<svg xmlns="http://www.w3.org/2000/svg" fill="none" viewBox="0 0 844 474" height="474" width="844">
<g clip-path="url(#clip0_8484_5416)">
<rect fill="#2F3747" height="474" width="844"></rect>
<rect fill="url(#paint0_linear_8484_5416)" height="474" width="844"></rect>
<rect fill="url(#paint1_linear_8484_5416)" height="474" width="844"></rect>
<rect fill-opacity="0.25" fill="url(#paint2_radial_8484_5416)" height="474" width="844"></rect>
<g filter="url(#filter0_f_8484_5416)">
<ellipse fill-opacity="0.94" fill="#00228C" transform="rotate(-100.709 413.67 251.067)" ry="242.439" rx="126.214" cy="251.067" cx="413.67"></ellipse>
</g>
<g filter="url(#filter1_ddd_8484_5416)">
<path fill="url(#paint3_linear_8484_5416)" d="M512.078 140.42L488.236 154.102C485.958 155.416 487.355 157.736 490.584 157.862C490.64 157.862 490.71 157.862 490.765 157.862L488.236 159.329C485.958 160.643 487.355 162.963 490.584 163.089C491.157 163.117 491.73 206.762 492.289 206.804L512.092 195.456H512.064H512.162V140.406H512.064L512.078 140.42Z"></path>
<path fill="#71E8DF" d="M490.626 199.201L490.765 199.117C490.765 199.117 490.64 199.117 490.584 199.117C490.584 199.117 490.612 199.159 490.626 199.215V199.201Z"></path>
<path fill="url(#paint4_linear_8484_5416)" d="M430.167 201.547C432.446 203.015 433.955 204.873 434.737 206.858C435.478 204.985 435.534 159.397 434.905 157.51C436.177 153.639 434.584 149.334 430.167 146.483C421.754 141.047 407.317 140.851 398.569 145.896C394.879 148.035 392.811 150.746 392.35 153.541C392.112 154.995 389.121 155.637 387.332 154.603L363.826 141.312V196.376L387.332 209.667C389.121 210.701 392.126 210.058 392.35 208.605C392.797 205.81 394.879 203.098 398.569 200.96C407.317 195.901 421.754 196.111 430.167 201.547Z"></path>
<path fill="url(#paint5_linear_8484_5416)" d="M392.35 208.601C392.797 205.806 394.879 203.095 398.569 200.956C407.317 195.897 421.754 196.107 430.168 201.543C432.446 203.011 433.955 204.869 434.737 206.854C435.478 204.981 435.534 159.393 434.905 157.506C436.177 153.635 434.584 149.331 430.168 146.48C421.754 141.043 407.317 140.847 398.569 145.893C394.879 148.031 392.811 150.742 392.35 153.537V208.601Z"></path>
<path fill="url(#paint6_linear_8484_5416)" d="M437.952 183.127L414.333 170.185C414.012 170.004 413.816 169.78 413.662 169.57V223.446C413.271 224.033 413.411 224.732 414.333 225.263L437.952 238.204V183.141V183.127Z"></path>
<path fill="url(#paint7_linear_8484_5416)" d="M437.952 238.184L462.06 224.264C464.338 222.951 468.321 223.775 468.53 225.648C468.88 228.597 471.102 231.49 475.183 233.684C483.065 237.918 495.601 237.946 503.455 233.74C507.69 231.476 509.87 228.457 510.066 225.382H510.163V170.333H510.066C509.87 173.407 507.69 176.426 503.469 178.676C495.629 182.869 483.079 182.841 475.197 178.62C471.102 176.426 468.88 173.533 468.544 170.584C468.321 168.726 464.352 167.887 462.074 169.201L437.966 183.12V238.184H437.952Z"></path>
<path fill="#71E8DF" d="M413.662 259.43C413.411 259.807 413.411 260.226 413.662 260.618V259.43Z"></path>
<path fill="url(#paint8_linear_8484_5416)" d="M398.569 145.893C407.317 140.834 421.754 141.043 430.167 146.48C436.974 150.868 437.113 158.695 430.335 163.125C426.534 165.612 421.447 166.996 416.22 167.29C413.69 167.429 412.53 169.148 414.333 170.196L437.952 183.138L462.06 169.218C464.338 167.904 468.321 168.729 468.53 170.602C468.88 173.551 471.102 176.443 475.183 178.638C483.065 182.872 495.601 182.886 503.455 178.694C512.134 174.054 512.288 166.199 503.944 161.378C500.213 159.226 495.433 158.052 490.57 157.856C487.341 157.73 485.944 155.41 488.222 154.097L512.092 140.401L445.764 103.086C440.943 100.305 435.003 100.305 430.181 103.086L363.826 141.309L387.332 154.6C389.121 155.634 392.126 154.991 392.35 153.538C392.797 150.742 394.879 148.031 398.569 145.893Z"></path>
<path fill="#72B5E8" d="M430.167 146.48C433.326 148.52 435.031 151.287 435.297 154.125C435.646 150.756 433.927 147.276 430.167 144.845C421.74 139.408 407.317 139.213 398.569 144.258C394.879 146.396 392.811 149.107 392.35 151.902C392.112 153.356 389.121 153.999 387.332 152.965L365.251 140.484L363.826 141.309L387.332 154.6C389.121 155.634 392.126 154.991 392.35 153.538C392.797 150.742 394.879 148.031 398.569 145.893C407.317 140.834 421.754 141.043 430.167 146.48Z"></path>
<path fill="url(#paint9_linear_8484_5416)" d="M430.167 146.48C433.326 148.52 435.031 151.287 435.297 154.125C435.646 150.756 433.927 147.276 430.167 144.845C421.74 139.408 407.317 139.213 398.569 144.258C394.879 146.396 392.811 149.107 392.35 151.902C392.112 153.356 389.121 153.999 387.332 152.965L365.251 140.484L363.826 141.309L387.332 154.6C389.121 155.634 392.126 154.991 392.35 153.538C392.797 150.742 394.879 148.031 398.569 145.893C407.317 140.834 421.754 141.043 430.167 146.48Z"></path>
<path fill="#72B5E8" d="M503.469 177.075C495.629 181.267 483.079 181.239 475.197 177.019C471.102 174.825 468.88 171.932 468.544 168.983C468.321 167.124 464.352 166.285 462.074 167.599L437.966 181.519L414.347 168.577C414.152 168.466 413.998 168.34 413.858 168.2C413.271 168.815 413.327 169.612 414.347 170.199L437.966 183.14L462.074 169.22C464.352 167.907 468.335 168.731 468.544 170.604C468.894 173.553 471.116 176.446 475.197 178.64C483.079 182.874 495.615 182.888 503.469 178.696C508.305 176.11 510.485 172.533 510.038 169.039C509.716 171.987 507.55 174.88 503.469 177.061V177.075Z"></path>
<path fill="url(#paint10_linear_8484_5416)" d="M503.469 177.075C495.629 181.267 483.079 181.239 475.197 177.019C471.102 174.825 468.88 171.932 468.544 168.983C468.321 167.124 464.352 166.285 462.074 167.599L437.966 181.519L414.347 168.577C414.152 168.466 413.998 168.34 413.858 168.2C413.271 168.815 413.327 169.612 414.347 170.199L437.966 183.14L462.074 169.22C464.352 167.907 468.335 168.731 468.544 170.604C468.894 173.553 471.116 176.446 475.197 178.64C483.079 182.874 495.615 182.888 503.469 178.696C508.305 176.11 510.485 172.533 510.038 169.039C509.716 171.987 507.55 174.88 503.469 177.061V177.075Z"></path>
<path fill="#72B5E8" d="M488.236 152.471C487.076 153.142 486.88 154.079 487.383 154.847C487.565 154.582 487.845 154.316 488.236 154.093L512.106 140.397L510.667 139.586L488.236 152.457V152.471Z"></path>
<path fill="url(#paint11_linear_8484_5416)" d="M488.236 152.471C487.076 153.142 486.88 154.079 487.383 154.847C487.565 154.582 487.845 154.316 488.236 154.093L512.106 140.397L510.667 139.586L488.236 152.457V152.471Z"></path>
</g>
<g filter="url(#filter2_d_8484_5416)">
<path fill="url(#paint12_linear_8484_5416)" d="M343.547 248.61C348.019 248.232 352.324 247.002 355.664 244.92C359.549 242.502 361.338 239.302 361.044 236.157H361.184V187.313V181.094L361.044 181.136C361.31 184.266 359.535 187.453 355.65 189.856C351.876 192.204 346.873 193.476 341.772 193.644C338.544 193.756 337.132 196.048 339.424 197.375L342.01 198.871C341.926 198.871 341.856 198.871 341.772 198.885C338.544 198.996 343.547 248.596 343.547 248.596V248.61Z"></path>
<path fill="url(#paint13_linear_8484_5416)" d="M340.235 226.891C338.446 227.925 335.441 227.24 335.19 225.786C334.659 222.754 332.227 219.819 327.894 217.611C320.068 213.614 307.155 213.558 299.314 217.471C293.081 220.588 290.775 225.241 292.341 229.518C291.642 231.405 291.698 276.993 292.536 278.866C293.585 276.504 295.835 274.268 299.314 272.535C307.155 268.608 320.068 268.677 327.894 272.674C332.227 274.883 334.659 277.831 335.19 280.85C335.455 282.318 338.446 282.988 340.235 281.954L365.447 267.126V212.062L340.235 226.891Z"></path>
<path fill="url(#paint14_linear_8484_5416)" d="M335.19 225.767C334.659 222.734 332.227 219.799 327.894 217.591C320.068 213.594 307.155 213.538 299.314 217.452C293.081 220.568 290.775 225.222 292.341 229.498C291.642 231.385 291.698 276.973 292.536 278.846C293.585 276.484 295.835 274.248 299.314 272.515C307.155 268.588 320.068 268.658 327.894 272.655C332.227 274.863 334.659 277.812 335.19 280.831V225.767Z"></path>
<path fill="#0FBAB8" d="M292.341 260.252C292.229 259.959 292.145 259.651 292.075 259.344C291.921 263.816 291.852 271.726 291.866 279.748C291.88 269.825 292.047 261.063 292.341 260.252Z"></path>
<path fill="url(#paint15_linear_8484_5416)" d="M290.58 310.726L313.388 297.435C314.087 297.03 314.324 296.527 314.212 296.051V241.281C314.184 241.673 313.933 242.064 313.388 242.371L290.58 255.662V310.726Z"></path>
<path fill="url(#paint16_linear_8484_5416)" d="M290.58 255.662L313.388 242.372C315.163 241.337 314.031 239.604 311.515 239.465C306.68 239.185 301.956 237.969 298.238 235.831C289.35 230.702 289.699 222.275 299.3 217.467C307.141 213.54 320.054 213.61 327.88 217.607C332.213 219.815 334.645 222.764 335.176 225.783C335.441 227.25 338.432 227.921 340.221 226.887L365.447 212.059L339.424 197.384C337.132 196.057 338.544 193.765 341.772 193.653C346.873 193.471 351.876 192.213 355.65 189.865C362.931 185.337 362.889 178.098 355.58 173.542C347.488 168.497 333.876 168.357 325.588 173.151C321.885 175.289 319.886 178.042 319.579 180.851C319.383 182.71 315.358 183.507 313.066 182.179L289.853 169L215 212.604L290.58 255.662Z"></path>
<path fill="url(#paint17_linear_8484_5416)" d="M355.664 188.147C351.89 190.495 346.887 191.767 341.786 191.935C339.075 192.032 337.649 193.654 338.628 194.967C339.145 194.269 340.263 193.723 341.786 193.668C346.887 193.486 351.89 192.228 355.664 189.88C359.633 187.407 361.408 184.122 361.03 180.922C360.709 183.563 358.92 186.135 355.664 188.161V188.147Z"></path>
<path fill="url(#paint18_linear_8484_5416)" d="M340.235 225.159C338.446 226.193 335.441 225.508 335.19 224.054C334.659 221.022 332.227 218.087 327.894 215.879C320.068 211.882 307.155 211.826 299.314 215.739C293.878 218.464 291.418 222.335 291.907 226.123C292.257 222.908 294.703 219.764 299.314 217.458C307.155 213.531 320.068 213.601 327.894 217.598C332.227 219.806 334.659 222.755 335.19 225.773C335.455 227.241 338.446 227.912 340.235 226.878L365.447 212.049L363.951 211.211L340.235 225.159Z"></path>
<path fill="url(#paint19_linear_8484_5416)" d="M313.402 240.65L290.594 253.941L216.495 211.734L215 212.601L290.58 255.66L313.388 242.369C314.422 241.768 314.45 240.943 313.807 240.314C313.681 240.426 313.556 240.538 313.388 240.636L313.402 240.65Z"></path>
<path fill="url(#paint20_linear_8484_5416)" d="M290.594 255.662V310.726L215 267.667V212.617L290.594 255.662Z"></path>
<path fill="#0FBAB8" d="M314.226 322.641C314.254 322.516 314.254 322.376 314.226 322.25V322.641Z"></path>
</g>
<g filter="url(#filter3_ddd_8484_5416)">
<path fill="url(#paint21_linear_8484_5416)" d="M509.73 234.331L507.145 232.836C507.229 232.836 507.299 232.836 507.382 232.822C510.611 232.71 512.022 230.418 509.73 229.09L485.008 214.961V270.025L505.608 281.764C506.195 281.708 506.781 238.063 507.382 238.049C510.611 237.937 512.022 235.645 509.73 234.317V234.331Z"></path>
<path fill="#71E8DF" d="M507.131 275.109L507.271 275.193C507.271 275.193 507.271 275.137 507.271 275.109C507.215 275.109 507.173 275.109 507.117 275.109H507.131Z"></path>
<path fill="url(#paint22_linear_8484_5416)" d="M550.176 193.042C546.458 190.89 541.748 189.688 536.899 189.409C535.278 189.311 534.243 188.57 534.174 187.773H534.132V242.837H534.174C534.229 243.634 535.264 244.388 536.899 244.486C541.734 244.766 546.458 245.982 550.176 248.12C553.068 249.783 554.955 251.809 555.892 253.934C556.716 252.061 556.786 206.487 556.087 204.586C557.569 200.561 555.612 196.201 550.176 193.056V193.042Z"></path>
<path fill="url(#paint23_linear_8484_5416)" d="M633.274 215.688L559.497 257.474V312.538L633.274 270.751V215.688Z"></path>
<path fill="url(#paint24_linear_8484_5416)" d="M536.06 244.3C533.768 242.972 529.757 243.769 529.548 245.628C529.254 248.437 527.256 251.19 523.538 253.328C515.251 258.108 501.638 257.982 493.547 252.937C489.969 250.701 488.138 247.836 488.054 244.957H488.012V300.02H488.054C488.138 302.899 489.955 305.778 493.547 308.014C501.638 313.06 515.251 313.199 523.538 308.406C527.242 306.267 529.24 303.514 529.548 300.705C529.743 298.846 533.768 298.05 536.06 299.378L559.497 312.57V257.507L536.06 244.314V244.3Z"></path>
<path fill="url(#paint25_linear_8484_5416)" d="M529.562 245.632C529.268 248.441 527.27 251.194 523.552 253.332C515.265 258.112 501.652 257.986 493.561 252.941C489.983 250.705 488.152 247.84 488.068 244.961H488.026V300.025H488.068C488.152 302.904 489.969 305.783 493.561 308.019C501.652 313.064 515.265 313.204 523.552 308.41C527.256 306.272 529.254 303.518 529.562 300.709V245.646V245.632Z"></path>
<path fill="url(#paint26_linear_8484_5416)" d="M633.33 215.709L558.84 173.195L535.026 186.486C533.251 187.52 534.383 189.253 536.899 189.393C541.734 189.672 546.458 190.888 550.176 193.027C559.064 198.156 558.715 206.583 549.113 211.39C541.273 215.318 528.36 215.248 520.533 211.251C516.201 209.043 513.769 206.094 513.238 203.075C512.973 201.608 509.982 200.937 508.193 201.971L485.008 214.954L509.73 229.084C512.022 230.411 510.611 232.703 507.382 232.815C502.281 232.997 497.278 234.254 493.505 236.602C486.237 241.13 486.265 248.37 493.575 252.926C501.666 257.971 515.279 258.111 523.566 253.317C527.27 251.179 529.268 248.426 529.576 245.617C529.771 243.758 533.796 242.961 536.088 244.289L559.525 257.482L633.358 215.709H633.33Z"></path>
<path fill="#72B5E8" d="M536.913 189.393C541.748 189.673 546.472 190.889 550.189 193.027C554.061 195.263 556.171 198.114 556.534 201.035C556.898 197.569 554.787 194.019 550.189 191.35C546.472 189.198 541.762 187.996 536.913 187.716C535.837 187.66 535.04 187.297 534.593 186.836C533.531 187.87 534.663 189.268 536.913 189.393Z"></path>
<path fill="url(#paint27_linear_8484_5416)" d="M536.913 189.393C541.748 189.673 546.472 190.889 550.189 193.027C554.061 195.263 556.171 198.114 556.534 201.035C556.898 197.569 554.787 194.019 550.189 191.35C546.472 189.198 541.762 187.996 536.913 187.716C535.837 187.66 535.04 187.297 534.593 186.836C533.531 187.87 534.663 189.268 536.913 189.393Z"></path>
<path fill="#72B5E8" d="M559.497 255.809L536.06 242.616C533.768 241.289 529.757 242.085 529.548 243.944C529.254 246.753 527.256 249.506 523.538 251.645C515.251 256.424 501.638 256.299 493.547 251.253C490.22 249.185 488.418 246.544 488.11 243.874C487.719 247.103 489.522 250.429 493.547 252.93C501.638 257.976 515.251 258.115 523.538 253.322C527.242 251.183 529.24 248.43 529.548 245.621C529.743 243.762 533.768 242.966 536.06 244.294L559.497 257.486L633.33 215.714L631.849 214.875L559.497 255.809Z"></path>
<path fill="url(#paint28_linear_8484_5416)" d="M559.497 255.809L536.06 242.616C533.768 241.289 529.757 242.085 529.548 243.944C529.254 246.753 527.256 249.506 523.538 251.645C515.251 256.424 501.638 256.299 493.547 251.253C490.22 249.185 488.418 246.544 488.11 243.874C487.719 247.103 489.522 250.429 493.547 252.93C501.638 257.976 515.251 258.115 523.538 253.322C527.242 251.183 529.24 248.43 529.548 245.621C529.743 243.762 533.768 242.966 536.06 244.294L559.497 257.486L633.33 215.714L631.849 214.875L559.497 255.809Z"></path>
<path fill="#72B5E8" d="M510.555 229.813C511.1 229.045 510.918 228.094 509.716 227.41L486.475 214.133L484.994 214.957L509.716 229.087C510.094 229.31 510.359 229.548 510.555 229.813Z"></path>
<path fill="url(#paint29_linear_8484_5416)" d="M510.555 229.813C511.1 229.045 510.918 228.094 509.716 227.41L486.475 214.133L484.994 214.957L509.716 229.087C510.094 229.31 510.359 229.548 510.555 229.813Z"></path>
</g>
<g filter="url(#filter4_ddd_8484_5416)">
<path fill="url(#paint30_linear_8484_5416)" d="M359.088 281.186C359.088 281.186 358.962 281.186 358.906 281.186L361.436 279.718C363.714 278.405 362.316 276.085 359.088 275.959C354.224 275.763 349.445 274.603 345.713 272.437C342.149 270.383 340.151 267.769 339.69 265.086V268.915C339.564 269.67 339.578 270.425 339.69 271.179V317.76C339.089 321.226 341.087 324.831 345.713 327.501C348.997 329.401 353.106 330.533 357.369 330.911L361.422 284.959C363.7 283.645 362.302 281.326 359.074 281.2L359.088 281.186Z"></path>
<path fill="url(#paint31_linear_8484_5416)" d="M431.663 267.826C426.422 268.12 421.349 269.503 417.548 271.991C413.089 274.898 411.538 279.049 412.838 282.85C412.195 284.737 412.251 330.325 413.019 332.198C413.802 330.297 415.297 328.522 417.548 327.055C421.349 324.567 426.436 323.184 431.663 322.89C433.326 322.792 434.374 322.024 434.402 321.213V266.289C434.262 267.044 433.228 267.743 431.663 267.826Z"></path>
<path fill="url(#paint32_linear_8484_5416)" d="M408.701 336.355L482.492 293.842H482.478L460.55 280.523C458.761 279.489 455.757 280.132 455.533 281.585C455.086 284.38 453.004 287.092 449.314 289.23C440.481 294.331 425.877 294.079 417.492 288.503C410.644 283.947 410.672 276.498 417.548 271.998C421.349 269.51 426.436 268.127 431.663 267.833C434.192 267.693 435.352 265.975 433.55 264.926L410.518 251.328L387.612 264.605C385.334 265.919 381.351 265.094 381.141 263.221C380.792 260.272 378.57 257.38 374.489 255.185C366.607 250.951 354.071 250.937 346.216 255.129C337.538 259.769 337.384 267.624 345.727 272.445C349.459 274.597 354.238 275.771 359.102 275.967C362.33 276.093 363.728 278.413 361.45 279.726L336.741 293.856H336.755L408.715 336.369L408.701 336.355Z"></path>
<path fill="#72B5E8" d="M345.713 272.437C349.445 274.589 354.224 275.763 359.088 275.959C360.611 276.015 361.729 276.574 362.232 277.287C363.197 275.973 361.785 274.324 359.088 274.212C354.224 274.016 349.445 272.856 345.713 270.69C342.052 268.566 340.025 265.869 339.648 263.102C339.27 266.442 341.283 269.866 345.713 272.437Z"></path>
<path fill="#72B5E8" d="M431.663 266.081C426.422 266.374 421.349 267.758 417.548 270.245C413.76 272.719 412.069 276.087 412.433 279.385C412.726 276.674 414.431 274.033 417.548 271.992C421.349 269.505 426.436 268.121 431.663 267.828C433.941 267.702 435.087 266.29 433.969 265.242C433.508 265.689 432.711 266.025 431.663 266.081Z"></path>
<path fill="url(#paint33_linear_8484_5416)" d="M431.663 266.081C426.422 266.374 421.349 267.758 417.548 270.245C413.76 272.719 412.069 276.087 412.433 279.385C412.726 276.674 414.431 274.033 417.548 271.992C421.349 269.505 426.436 268.121 431.663 267.828C433.941 267.702 435.087 266.29 433.969 265.242C433.508 265.689 432.711 266.025 431.663 266.081Z"></path>
<path fill="#72B5E8" d="M482.464 293.84L480.996 292.945L408.701 334.62L338.236 292.987L336.727 293.84H336.741V293.854L408.701 336.367L482.478 293.854L482.464 293.84Z"></path>
<path fill="url(#paint34_linear_8484_5416)" d="M482.464 293.84L480.996 292.945L408.701 334.62L338.236 292.987L336.727 293.84H336.741V293.854L408.701 336.367L482.478 293.854L482.464 293.84Z"></path>
<path fill="url(#paint35_linear_8484_5416)" d="M482.464 293.82V348.884L408.701 391.412V336.348L482.464 293.82Z"></path>
<path fill="url(#paint36_linear_8484_5416)" d="M408.701 336.357V391.421L336.727 348.893V293.844L408.701 336.357Z"></path>
</g>
<path fill="#1E2431" d="M262.018 276.279L248.616 272.825C248.207 272.719 247.787 272.066 247.85 271.633L251.384 247.594C251.45 247.144 252.049 247.423 252.263 248.002L262.377 275.482C262.568 276 262.398 276.377 262.018 276.279ZM264.301 276.571L252.59 244.753C252.296 243.957 251.729 243.209 251.108 242.802C250.47 242.381 249.919 242.396 249.627 242.807L239.354 257.252C239.036 257.704 239.084 258.522 239.48 259.391L245.506 272.586C245.865 273.374 246.454 274.056 247.048 274.409C247.217 274.51 247.385 274.583 247.548 274.625L263.343 278.696C263.827 278.82 264.21 278.658 264.394 278.25C264.577 277.842 264.544 277.229 264.301 276.571Z" clip-rule="evenodd" fill-rule="evenodd"></path>
</g>
<defs>
<filter color-interpolation-filters="sRGB" filterUnits="userSpaceOnUse" height="979.646" width="1194.46" y="-238.756" x="-183.558" id="filter0_f_8484_5416">
<feFlood result="BackgroundImageFix" flood-opacity="0"></feFlood>
<feBlend result="shape" in2="BackgroundImageFix" in="SourceGraphic" mode="normal"></feBlend>
<feGaussianBlur result="effect1_foregroundBlur_8484_5416" stdDeviation="178.921"></feGaussianBlur>
</filter>
<filter color-interpolation-filters="sRGB" filterUnits="userSpaceOnUse" height="265.617" width="240.336" y="55" x="317.826" id="filter1_ddd_8484_5416">
<feFlood result="BackgroundImageFix" flood-opacity="0"></feFlood>
<feColorMatrix result="hardAlpha" values="0 0 0 0 0 0 0 0 0 0 0 0 0 0 0 0 0 0 127 0" type="matrix" in="SourceAlpha"></feColorMatrix>
<feOffset dy="18"></feOffset>
<feGaussianBlur stdDeviation="21"></feGaussianBlur>
<feColorMatrix values="0 0 0 0 0.0901961 0 0 0 0 0.168627 0 0 0 0 0.301961 0 0 0 0.08 0" type="matrix"></feColorMatrix>
<feBlend result="effect1_dropShadow_8484_5416" in2="BackgroundImageFix" mode="normal"></feBlend>
<feColorMatrix result="hardAlpha" values="0 0 0 0 0 0 0 0 0 0 0 0 0 0 0 0 0 0 127 0" type="matrix" in="SourceAlpha"></feColorMatrix>
<feOffset dy="4"></feOffset>
<feGaussianBlur stdDeviation="13"></feGaussianBlur>
<feColorMatrix values="0 0 0 0 0.0901961 0 0 0 0 0.168627 0 0 0 0 0.301961 0 0 0 0.05 0" type="matrix"></feColorMatrix>
<feBlend result="effect2_dropShadow_8484_5416" in2="effect1_dropShadow_8484_5416" mode="normal"></feBlend>
<feColorMatrix result="hardAlpha" values="0 0 0 0 0 0 0 0 0 0 0 0 0 0 0 0 0 0 127 0" type="matrix" in="SourceAlpha"></feColorMatrix>
<feOffset></feOffset>
<feGaussianBlur stdDeviation="23"></feGaussianBlur>
<feComposite operator="out" in2="hardAlpha"></feComposite>
<feColorMatrix values="0 0 0 0 0.0901961 0 0 0 0 0.168627 0 0 0 0 0.301961 0 0 0 0.01 0" type="matrix"></feColorMatrix>
<feBlend result="effect3_dropShadow_8484_5416" in2="effect2_dropShadow_8484_5416" mode="normal"></feBlend>
<feBlend result="shape" in2="effect3_dropShadow_8484_5416" in="SourceGraphic" mode="normal"></feBlend>
</filter>
<filter color-interpolation-filters="sRGB" filterUnits="userSpaceOnUse" height="267.641" width="264.447" y="116" x="158" id="filter2_d_8484_5416">
<feFlood result="BackgroundImageFix" flood-opacity="0"></feFlood>
<feColorMatrix result="hardAlpha" values="0 0 0 0 0 0 0 0 0 0 0 0 0 0 0 0 0 0 127 0" type="matrix" in="SourceAlpha"></feColorMatrix>
<feOffset dy="4"></feOffset>
<feGaussianBlur stdDeviation="28.5"></feGaussianBlur>
<feComposite operator="out" in2="hardAlpha"></feComposite>
<feColorMatrix values="0 0 0 0 0.443137 0 0 0 0 0.909804 0 0 0 0 0.87451 0 0 0 0.6 0" type="matrix"></feColorMatrix>
<feBlend result="effect1_dropShadow_8484_5416" in2="BackgroundImageFix" mode="normal"></feBlend>
<feBlend result="shape" in2="effect1_dropShadow_8484_5416" in="SourceGraphic" mode="normal"></feBlend>
</filter>
<filter color-interpolation-filters="sRGB" filterUnits="userSpaceOnUse" height="245.375" width="240.364" y="127.195" x="438.994" id="filter3_ddd_8484_5416">
<feFlood result="BackgroundImageFix" flood-opacity="0"></feFlood>
<feColorMatrix result="hardAlpha" values="0 0 0 0 0 0 0 0 0 0 0 0 0 0 0 0 0 0 127 0" type="matrix" in="SourceAlpha"></feColorMatrix>
<feOffset dy="18"></feOffset>
<feGaussianBlur stdDeviation="21"></feGaussianBlur>
<feColorMatrix values="0 0 0 0 0.0901961 0 0 0 0 0.168627 0 0 0 0 0.301961 0 0 0 0.08 0" type="matrix"></feColorMatrix>
<feBlend result="effect1_dropShadow_8484_5416" in2="BackgroundImageFix" mode="normal"></feBlend>
<feColorMatrix result="hardAlpha" values="0 0 0 0 0 0 0 0 0 0 0 0 0 0 0 0 0 0 127 0" type="matrix" in="SourceAlpha"></feColorMatrix>
<feOffset dy="4"></feOffset>
<feGaussianBlur stdDeviation="13"></feGaussianBlur>
<feColorMatrix values="0 0 0 0 0.0901961 0 0 0 0 0.168627 0 0 0 0 0.301961 0 0 0 0.05 0" type="matrix"></feColorMatrix>
<feBlend result="effect2_dropShadow_8484_5416" in2="effect1_dropShadow_8484_5416" mode="normal"></feBlend>
<feColorMatrix result="hardAlpha" values="0 0 0 0 0 0 0 0 0 0 0 0 0 0 0 0 0 0 127 0" type="matrix" in="SourceAlpha"></feColorMatrix>
<feOffset></feOffset>
<feGaussianBlur stdDeviation="23"></feGaussianBlur>
<feComposite operator="out" in2="hardAlpha"></feComposite>
<feColorMatrix values="0 0 0 0 0.0901961 0 0 0 0 0.168627 0 0 0 0 0.301961 0 0 0 0.01 0" type="matrix"></feColorMatrix>
<feBlend result="effect3_dropShadow_8484_5416" in2="effect2_dropShadow_8484_5416" mode="normal"></feBlend>
<feBlend result="shape" in2="effect3_dropShadow_8484_5416" in="SourceGraphic" mode="normal"></feBlend>
</filter>
<filter color-interpolation-filters="sRGB" filterUnits="userSpaceOnUse" height="246.094" width="237.765" y="205.328" x="290.727" id="filter4_ddd_8484_5416">
<feFlood result="BackgroundImageFix" flood-opacity="0"></feFlood>
<feColorMatrix result="hardAlpha" values="0 0 0 0 0 0 0 0 0 0 0 0 0 0 0 0 0 0 127 0" type="matrix" in="SourceAlpha"></feColorMatrix>
<feOffset dy="18"></feOffset>
<feGaussianBlur stdDeviation="21"></feGaussianBlur>
<feColorMatrix values="0 0 0 0 0.0901961 0 0 0 0 0.168627 0 0 0 0 0.301961 0 0 0 0.08 0" type="matrix"></feColorMatrix>
<feBlend result="effect1_dropShadow_8484_5416" in2="BackgroundImageFix" mode="normal"></feBlend>
<feColorMatrix result="hardAlpha" values="0 0 0 0 0 0 0 0 0 0 0 0 0 0 0 0 0 0 127 0" type="matrix" in="SourceAlpha"></feColorMatrix>
<feOffset dy="4"></feOffset>
<feGaussianBlur stdDeviation="13"></feGaussianBlur>
<feColorMatrix values="0 0 0 0 0.0901961 0 0 0 0 0.168627 0 0 0 0 0.301961 0 0 0 0.05 0" type="matrix"></feColorMatrix>
<feBlend result="effect2_dropShadow_8484_5416" in2="effect1_dropShadow_8484_5416" mode="normal"></feBlend>
<feColorMatrix result="hardAlpha" values="0 0 0 0 0 0 0 0 0 0 0 0 0 0 0 0 0 0 127 0" type="matrix" in="SourceAlpha"></feColorMatrix>
<feOffset></feOffset>
<feGaussianBlur stdDeviation="23"></feGaussianBlur>
<feComposite operator="out" in2="hardAlpha"></feComposite>
<feColorMatrix values="0 0 0 0 0.0901961 0 0 0 0 0.168627 0 0 0 0 0.301961 0 0 0 0.01 0" type="matrix"></feColorMatrix>
<feBlend result="effect3_dropShadow_8484_5416" in2="effect2_dropShadow_8484_5416" mode="normal"></feBlend>
<feBlend result="shape" in2="effect3_dropShadow_8484_5416" in="SourceGraphic" mode="normal"></feBlend>
</filter>
<linearGradient gradientUnits="userSpaceOnUse" y2="474" x2="422" y1="0" x1="422" id="paint0_linear_8484_5416">
<stop stop-color="#0D0F14"></stop>
<stop stop-opacity="0" stop-color="#1B202B" offset="1"></stop>
</linearGradient>
<linearGradient gradientUnits="userSpaceOnUse" y2="474" x2="422" y1="0" x1="422" id="paint1_linear_8484_5416">
<stop stop-color="#1A202C"></stop>
<stop stop-color="#2D3748" offset="1"></stop>
</linearGradient>
<radialGradient gradientTransform="translate(422 474) rotate(180) scale(319.514 368.728)" gradientUnits="userSpaceOnUse" r="1" cy="0" cx="0" id="paint2_radial_8484_5416">
<stop stop-color="#718096"></stop>
<stop stop-opacity="0" stop-color="#718096" offset="1"></stop>
</radialGradient>
<linearGradient gradientUnits="userSpaceOnUse" y2="206.804" x2="499.638" y1="140.406" x1="499.638" id="paint3_linear_8484_5416">
<stop stop-color="#5A67D8" offset="0.0648065"></stop>
<stop stop-color="#434190" offset="1"></stop>
</linearGradient>
<linearGradient gradientUnits="userSpaceOnUse" y2="210.174" x2="399.582" y1="141.312" x1="399.582" id="paint4_linear_8484_5416">
<stop stop-color="#5A67D8" offset="0.0648065"></stop>
<stop stop-color="#434190" offset="1"></stop>
</linearGradient>
<linearGradient gradientUnits="userSpaceOnUse" y2="208.601" x2="413.844" y1="142.25" x1="413.844" id="paint5_linear_8484_5416">
<stop stop-color="#5A67D8" offset="0.0648065"></stop>
<stop stop-color="#434190" offset="1"></stop>
</linearGradient>
<linearGradient gradientUnits="userSpaceOnUse" y2="238.204" x2="425.705" y1="169.57" x1="425.705" id="paint6_linear_8484_5416">
<stop stop-color="#5A67D8" offset="0.0648065"></stop>
<stop stop-color="#434190" offset="1"></stop>
</linearGradient>
<linearGradient gradientUnits="userSpaceOnUse" y2="238.184" x2="474.058" y1="168.562" x1="474.058" id="paint7_linear_8484_5416">
<stop stop-color="#5A67D8" offset="0.0648065"></stop>
<stop stop-color="#434190" offset="1"></stop>
</linearGradient>
<linearGradient gradientUnits="userSpaceOnUse" y2="179.606" x2="438.182" y1="101" x1="437.959" id="paint8_linear_8484_5416">
<stop stop-color="#91BDFF"></stop>
<stop stop-color="#5A67D8" offset="1"></stop>
</linearGradient>
<linearGradient gradientUnits="userSpaceOnUse" y2="154.478" x2="399.598" y1="140.484" x1="399.583" id="paint9_linear_8484_5416">
<stop stop-color="#91BDFF"></stop>
<stop stop-color="#99A4FF" offset="1"></stop>
</linearGradient>
<linearGradient gradientUnits="userSpaceOnUse" y2="182.444" x2="461.802" y1="166.961" x1="461.789" id="paint10_linear_8484_5416">
<stop stop-color="#91BDFF"></stop>
<stop stop-color="#99A4FF" offset="1"></stop>
</linearGradient>
<linearGradient gradientUnits="userSpaceOnUse" y2="154.191" x2="499.66" y1="139.586" x1="499.615" id="paint11_linear_8484_5416">
<stop stop-color="#91BDFF"></stop>
<stop stop-color="#99A4FF" offset="1"></stop>
</linearGradient>
<linearGradient gradientUnits="userSpaceOnUse" y2="248.61" x2="349.74" y1="181.094" x1="349.74" id="paint12_linear_8484_5416">
<stop stop-color="#E9EBFF" offset="0.0648065"></stop>
<stop stop-color="#9CC6ED" offset="1"></stop>
</linearGradient>
<linearGradient gradientUnits="userSpaceOnUse" y2="282.454" x2="328.652" y1="212.062" x1="328.652" id="paint13_linear_8484_5416">
<stop stop-color="#E9EBFF" offset="0.0648065"></stop>
<stop stop-color="#9CC6ED" offset="1"></stop>
</linearGradient>
<linearGradient gradientUnits="userSpaceOnUse" y2="280.831" x2="313.524" y1="214.555" x1="313.524" id="paint14_linear_8484_5416">
<stop stop-color="#E9EBFF" offset="0.0648065"></stop>
<stop stop-color="#9CC6ED" offset="1"></stop>
</linearGradient>
<linearGradient gradientUnits="userSpaceOnUse" y2="310.726" x2="302.409" y1="241.281" x1="302.409" id="paint15_linear_8484_5416">
<stop stop-color="#E9EBFF" offset="0.0648065"></stop>
<stop stop-color="#9CC6ED" offset="1"></stop>
</linearGradient>
<linearGradient gradientUnits="userSpaceOnUse" y2="255.662" x2="290.223" y1="169" x1="290.223" id="paint16_linear_8484_5416">
<stop stop-color="#E9EBFF" offset="0.0648065"></stop>
<stop stop-color="#9CC6ED" offset="1"></stop>
</linearGradient>
<linearGradient gradientUnits="userSpaceOnUse" y2="194.967" x2="349.699" y1="180.922" x1="349.699" id="paint17_linear_8484_5416">
<stop stop-color="#E9EBFF" offset="0.0648065"></stop>
<stop stop-color="#9CC6ED" offset="1"></stop>
</linearGradient>
<linearGradient gradientUnits="userSpaceOnUse" y2="227.377" x2="328.647" y1="211.211" x1="328.647" id="paint18_linear_8484_5416">
<stop stop-color="#E9EBFF" offset="0.0648065"></stop>
<stop stop-color="#9CC6ED" offset="1"></stop>
</linearGradient>
<linearGradient gradientUnits="userSpaceOnUse" y2="255.66" x2="264.619" y1="211.734" x1="264.619" id="paint19_linear_8484_5416">
<stop stop-color="#E9EBFF" offset="0.0648065"></stop>
<stop stop-color="#9CC6ED" offset="1"></stop>
</linearGradient>
<linearGradient gradientUnits="userSpaceOnUse" y2="310.726" x2="252.797" y1="212.617" x1="252.797" id="paint20_linear_8484_5416">
<stop stop-color="#E9EBFF" offset="0.0648065"></stop>
<stop stop-color="#9CC6ED" offset="1"></stop>
</linearGradient>
<linearGradient gradientUnits="userSpaceOnUse" y2="281.764" x2="497.933" y1="214.961" x1="497.933" id="paint21_linear_8484_5416">
<stop stop-color="#5A67D8" offset="0.0648065"></stop>
<stop stop-color="#434190" offset="1"></stop>
</linearGradient>
<linearGradient gradientUnits="userSpaceOnUse" y2="253.934" x2="545.349" y1="187.773" x1="545.349" id="paint22_linear_8484_5416">
<stop stop-color="#5A67D8" offset="0.0648065"></stop>
<stop stop-color="#434190" offset="1"></stop>
</linearGradient>
<linearGradient gradientUnits="userSpaceOnUse" y2="312.538" x2="596.386" y1="215.688" x1="596.386" id="paint23_linear_8484_5416">
<stop stop-color="#5A67D8" offset="0.0648065"></stop>
<stop stop-color="#434190" offset="1"></stop>
</linearGradient>
<linearGradient gradientUnits="userSpaceOnUse" y2="312.57" x2="523.755" y1="243.641" x1="523.755" id="paint24_linear_8484_5416">
<stop stop-color="#5A67D8" offset="0.0648065"></stop>
<stop stop-color="#434190" offset="1"></stop>
</linearGradient>
<linearGradient gradientUnits="userSpaceOnUse" y2="311.906" x2="508.794" y1="244.961" x1="508.794" id="paint25_linear_8484_5416">
<stop stop-color="#5A67D8" offset="0.0648065"></stop>
<stop stop-color="#434190" offset="1"></stop>
</linearGradient>
<linearGradient gradientUnits="userSpaceOnUse" y2="253.858" x2="559.417" y1="173.195" x1="559.183" id="paint26_linear_8484_5416">
<stop stop-color="#91BDFF"></stop>
<stop stop-color="#5A67D8" offset="1"></stop>
</linearGradient>
<linearGradient gradientUnits="userSpaceOnUse" y2="200.425" x2="545.426" y1="186.836" x1="545.382" id="paint27_linear_8484_5416">
<stop stop-color="#91BDFF"></stop>
<stop stop-color="#99A4FF" offset="1"></stop>
</linearGradient>
<linearGradient gradientUnits="userSpaceOnUse" y2="255.655" x2="560.755" y1="214.875" x1="560.694" id="paint28_linear_8484_5416">
<stop stop-color="#91BDFF"></stop>
<stop stop-color="#99A4FF" offset="1"></stop>
</linearGradient>
<linearGradient gradientUnits="userSpaceOnUse" y2="229.139" x2="497.967" y1="214.133" x1="497.921" id="paint29_linear_8484_5416">
<stop stop-color="#91BDFF"></stop>
<stop stop-color="#99A4FF" offset="1"></stop>
</linearGradient>
<linearGradient gradientUnits="userSpaceOnUse" y2="330.911" x2="351.071" y1="265.086" x1="351.071" id="paint30_linear_8484_5416">
<stop stop-color="#5A67D8" offset="0.0648065"></stop>
<stop stop-color="#434190" offset="1"></stop>
</linearGradient>
<linearGradient gradientUnits="userSpaceOnUse" y2="332.198" x2="423.398" y1="266.289" x1="423.398" id="paint31_linear_8484_5416">
<stop stop-color="#5A67D8" offset="0.0648065"></stop>
<stop stop-color="#434190" offset="1"></stop>
</linearGradient>
<linearGradient gradientUnits="userSpaceOnUse" y2="332.713" x2="409.86" y1="251.328" x1="409.616" id="paint32_linear_8484_5416">
<stop stop-color="#91BDFF"></stop>
<stop stop-color="#5A67D8" offset="1"></stop>
</linearGradient>
<linearGradient gradientUnits="userSpaceOnUse" y2="278.777" x2="423.438" y1="265.242" x1="423.393" id="paint33_linear_8484_5416">
<stop stop-color="#91BDFF"></stop>
<stop stop-color="#99A4FF" offset="1"></stop>
</linearGradient>
<linearGradient gradientUnits="userSpaceOnUse" y2="334.501" x2="409.666" y1="292.945" x1="409.602" id="paint34_linear_8484_5416">
<stop stop-color="#91BDFF"></stop>
<stop stop-color="#99A4FF" offset="1"></stop>
</linearGradient>
<linearGradient gradientUnits="userSpaceOnUse" y2="391.412" x2="445.582" y1="293.82" x1="445.582" id="paint35_linear_8484_5416">
<stop stop-color="#5A67D8" offset="0.0648065"></stop>
<stop stop-color="#434190" offset="1"></stop>
</linearGradient>
<linearGradient gradientUnits="userSpaceOnUse" y2="391.421" x2="372.714" y1="293.844" x1="372.714" id="paint36_linear_8484_5416">
<stop stop-color="#5A67D8" offset="0.0648065"></stop>
<stop stop-color="#434190" offset="1"></stop>
</linearGradient>
<clipPath id="clip0_8484_5416">
<rect fill="white" height="474" width="844"></rect>
</clipPath>
</defs>
</svg>
