<svg width="37" height="36" viewBox="0 0 37 36" fill="none" xmlns="http://www.w3.org/2000/svg">
<g clip-path="url(#clip0_2619_19625)">
<path d="M17.2333 2.64941C17.302 2.72004 17.3332 2.81916 17.3171 2.91646L17.1526 3.92807C17.1335 4.04534 17.183 4.16324 17.2802 4.23169C17.3773 4.30014 17.505 4.30718 17.609 4.24977L18.4343 3.79335C18.5278 3.74164 18.6414 3.74164 18.7349 3.79335L19.5603 4.24977C19.6643 4.30718 19.792 4.30014 19.8891 4.23169C19.9861 4.16324 20.0357 4.04541 20.0167 3.92807L19.8521 2.91646C19.8361 2.81916 19.8672 2.72004 19.936 2.64941L20.6464 1.92095C20.7276 1.83766 20.7553 1.71603 20.7185 1.60579C20.6816 1.49556 20.5862 1.41515 20.4713 1.39742L19.5162 1.25152C19.4139 1.23583 19.3261 1.17012 19.2821 1.07642L18.8659 0.189605C18.8148 0.0803541 18.7052 0.010498 18.5846 0.010498C18.464 0.010498 18.3543 0.0802838 18.3033 0.189605L17.8872 1.07642C17.8433 1.17019 17.7555 1.23583 17.6531 1.25152L16.698 1.39742C16.5831 1.41515 16.4877 1.49556 16.4509 1.60579C16.414 1.71603 16.4418 1.83766 16.5229 1.92095L17.2333 2.64941Z" fill="#A0AEC0"/>
<path d="M20.4712 32.4478L19.5161 32.3018C19.4137 32.2861 19.3259 32.2204 19.282 32.1267L18.8659 31.2399C18.8148 31.1306 18.7051 31.0608 18.5845 31.0608C18.464 31.0608 18.3543 31.1306 18.3032 31.2399L17.8872 32.1267C17.8432 32.2205 17.7554 32.2861 17.653 32.3018L16.6979 32.4478C16.583 32.4655 16.4877 32.5459 16.4508 32.6562C16.4139 32.7664 16.4417 32.888 16.5228 32.9713L17.2333 33.6998C17.302 33.7704 17.3332 33.8695 17.3171 33.9668L17.1526 34.9784C17.1335 35.0957 17.183 35.2136 17.2802 35.2821C17.3774 35.3505 17.505 35.3575 17.609 35.3001L18.4343 34.8437C18.5278 34.792 18.6414 34.792 18.7349 34.8437L19.5603 35.3001C19.6643 35.3575 19.792 35.3505 19.8891 35.2821C19.9862 35.2136 20.0358 35.0958 20.0167 34.9784L19.8521 33.9668C19.8361 33.8695 19.8672 33.7705 19.936 33.6998L20.6464 32.9713C20.7276 32.888 20.7553 32.7664 20.7185 32.6562C20.6816 32.5459 20.5861 32.4655 20.4712 32.4478Z" fill="#A0AEC0"/>
<path d="M9.67064 4.74899C9.73966 4.81955 9.77096 4.91867 9.75513 5.01603L9.58995 6.02764C9.57075 6.14513 9.62034 6.26324 9.71764 6.33176C9.815 6.40028 9.94289 6.4071 10.047 6.34935L10.8723 5.89293C10.9658 5.84122 11.0794 5.84122 11.1729 5.89293L11.9983 6.34935C12.1023 6.40675 12.23 6.39972 12.3271 6.33127C12.4242 6.26282 12.4738 6.14499 12.4547 6.02764L12.2895 5.01603C12.2738 4.91853 12.3054 4.81941 12.3746 4.74899L13.085 4.02053C13.1661 3.93724 13.1939 3.8156 13.157 3.70537C13.1202 3.59513 13.0248 3.51472 12.9099 3.497L11.9548 3.35109C11.8522 3.33562 11.7641 3.26991 11.72 3.176L11.304 2.28918C11.2521 2.18204 11.1435 2.11401 11.0246 2.11401C10.9056 2.11401 10.797 2.18204 10.7451 2.28918L10.3254 3.176C10.2814 3.26977 10.1936 3.3354 10.0913 3.35109L9.13614 3.497C9.02112 3.51451 8.92558 3.59485 8.88858 3.70516C8.85158 3.81546 8.87929 3.93717 8.9604 4.02053L9.67064 4.74899Z" fill="#A0AEC0"/>
<path d="M28.4344 30.3873L27.4793 30.2414C27.3767 30.2259 27.2886 30.1602 27.2445 30.0663L26.8285 29.1801C26.7773 29.0712 26.6678 29.0017 26.5474 29.0017C26.4271 29.0017 26.3176 29.0712 26.2664 29.1801L25.8503 30.0663C25.8064 30.1601 25.7186 30.2257 25.6162 30.2414L24.6611 30.3873C24.5461 30.4048 24.4505 30.4851 24.4135 30.5955C24.3765 30.7058 24.4043 30.8275 24.4854 30.9108L25.1958 31.6393C25.2648 31.7098 25.2961 31.809 25.2803 31.9063L25.1151 32.9179C25.0959 33.0354 25.1455 33.1535 25.2428 33.2221C25.3402 33.2906 25.4681 33.2974 25.5722 33.2396L26.3975 32.7832C26.491 32.7315 26.6045 32.7315 26.6981 32.7832L27.5234 33.2396C27.6275 33.2971 27.7552 33.29 27.8523 33.2216C27.9493 33.1531 27.9989 33.0353 27.9799 32.9179L27.8147 31.9063C27.7988 31.809 27.8302 31.7098 27.8992 31.6393L28.6096 30.9108C28.6907 30.8275 28.7185 30.706 28.6817 30.5957C28.6448 30.4854 28.5493 30.405 28.4344 30.3873Z" fill="#A0AEC0"/>
<path d="M4.03504 10.1116C4.10377 10.1822 4.13493 10.2813 4.11889 10.3786L3.95435 11.3902C3.93528 11.5075 3.98481 11.6254 4.08196 11.6939C4.17911 11.7623 4.30672 11.7693 4.41077 11.7119L5.2361 11.2555C5.32959 11.2038 5.44313 11.2038 5.5367 11.2555L6.36203 11.7119C6.46607 11.7693 6.59375 11.7623 6.69084 11.6939C6.78799 11.6254 6.83751 11.5076 6.81845 11.3902L6.6539 10.3786C6.63786 10.2813 6.66896 10.1822 6.73776 10.1116L7.44884 9.38311C7.52995 9.29975 7.55767 9.17805 7.52067 9.06774C7.48366 8.95743 7.38806 8.87709 7.27311 8.85958L6.31799 8.71367C6.21563 8.69799 6.12784 8.63228 6.08387 8.53858L5.66783 7.65176C5.61675 7.54251 5.50708 7.47266 5.3865 7.47266C5.26593 7.47266 5.15625 7.54244 5.10518 7.65176L4.68914 8.53858C4.64517 8.63235 4.55738 8.69799 4.45502 8.71367L3.4999 8.85958C3.38502 8.87731 3.28962 8.95771 3.25276 9.06795C3.2159 9.17819 3.24369 9.29982 3.3248 9.38311L4.03504 10.1116Z" fill="#A0AEC0"/>
<path d="M34.1632 24.3848L33.2081 24.2389C33.1058 24.2232 33.018 24.1575 32.974 24.0638L32.5573 23.1769C32.5061 23.068 32.3966 22.9985 32.2764 22.9985C32.1561 22.9985 32.0465 23.068 31.9953 23.1769L31.5793 24.0638C31.5352 24.1577 31.4472 24.2234 31.3445 24.2389L30.3894 24.3848C30.2745 24.4025 30.1791 24.4829 30.1423 24.5931C30.1054 24.7034 30.1332 24.825 30.2143 24.9083L30.9254 25.6367C30.9943 25.7073 31.0257 25.8064 31.0099 25.9038L30.8447 26.9154C30.8256 27.0327 30.8751 27.1506 30.9723 27.219C31.0694 27.2875 31.1971 27.2945 31.3011 27.2371L32.1264 26.7807C32.2199 26.729 32.3335 26.729 32.427 26.7807L33.2524 27.2371C33.3564 27.2949 33.4844 27.288 33.5817 27.2195C33.6791 27.151 33.7287 27.0329 33.7094 26.9154L33.5442 25.9038C33.5282 25.8065 33.5593 25.7074 33.6281 25.6367L34.3392 24.9083C34.4203 24.8249 34.448 24.7032 34.411 24.5929C34.3738 24.4826 34.2783 24.4023 34.1632 24.3848Z" fill="#A0AEC0"/>
<path d="M4.36386 19.7568C4.46101 19.6884 4.51054 19.5706 4.49147 19.4532L4.32693 18.4416C4.31089 18.3443 4.34198 18.2452 4.41078 18.1746L5.12123 17.4461C5.20234 17.3628 5.23013 17.2412 5.19327 17.1309C5.1564 17.0207 5.06101 16.9403 4.94613 16.9226L3.99101 16.7767C3.88865 16.761 3.80086 16.6953 3.75689 16.6016L3.34085 15.7148C3.28978 15.6055 3.1801 15.5356 3.05953 15.5356C2.93895 15.5356 2.82928 15.6054 2.7782 15.7148L2.36216 16.6016C2.31819 16.6953 2.2304 16.761 2.12804 16.7767L1.17278 16.9226C1.0579 16.9404 0.962506 17.0208 0.925644 17.131C0.888781 17.2412 0.916569 17.3629 0.997681 17.4462L1.70813 18.1746C1.77686 18.2453 1.80803 18.3444 1.79199 18.4417L1.62744 19.4533C1.60838 19.5706 1.6579 19.6885 1.75505 19.7569C1.8522 19.8254 1.97982 19.8324 2.08386 19.775L2.90919 19.3186C3.00268 19.2669 3.11623 19.2669 3.20979 19.3186L4.03512 19.775C4.13902 19.8323 4.26671 19.8253 4.36386 19.7568Z" fill="#A0AEC0"/>
<path d="M36.1715 17.4461C36.2526 17.3628 36.2804 17.2412 36.2435 17.1309C36.2067 17.0207 36.1113 16.9403 35.9964 16.9226L35.0413 16.7767C34.9389 16.761 34.8511 16.6953 34.8072 16.6016L34.3911 15.7148C34.3401 15.6055 34.2304 15.5356 34.1098 15.5356C33.9892 15.5356 33.8795 15.6054 33.8285 15.7148L33.4124 16.6016C33.3685 16.6953 33.2807 16.761 33.1783 16.7767L32.2232 16.9226C32.1083 16.9403 32.0129 17.0207 31.9761 17.1309C31.9392 17.2412 31.967 17.3628 32.0481 17.4461L32.7585 18.1746C32.8273 18.2452 32.8584 18.3443 32.8424 18.4416L32.6779 19.4532C32.6588 19.5705 32.7083 19.6884 32.8055 19.7568C32.9026 19.8253 33.0302 19.8323 33.1343 19.7749L33.9596 19.3185C34.0531 19.2668 34.1666 19.2668 34.2602 19.3185L35.0855 19.7749C35.1896 19.8323 35.3173 19.8253 35.4143 19.7568C35.5114 19.6884 35.561 19.5706 35.542 19.4532L35.3774 18.4416C35.3614 18.3443 35.3925 18.2452 35.4613 18.1746L36.1715 17.4461Z" fill="#A0AEC0"/>
<path d="M7.54686 24.2574L6.59174 24.1115C6.48917 24.096 6.40109 24.0303 6.35699 23.9364L5.94094 23.0502C5.88973 22.9413 5.78027 22.8718 5.65997 22.8718C5.53968 22.8718 5.43014 22.9413 5.37893 23.0502L4.96289 23.9345C4.91892 24.0283 4.83113 24.0939 4.72877 24.1096L3.77365 24.2574C3.65863 24.2749 3.56309 24.3553 3.52609 24.4656C3.48909 24.5759 3.5168 24.6976 3.59792 24.7809L4.309 25.5094C4.37773 25.58 4.40889 25.6792 4.39286 25.7764L4.22768 26.7912C4.20847 26.9086 4.25807 27.0268 4.35536 27.0953C4.45272 27.1638 4.58062 27.1706 4.68473 27.1129L5.51006 26.6564C5.60306 26.6037 5.7166 26.6025 5.81066 26.6533L6.63599 27.1098C6.74003 27.1672 6.86772 27.1601 6.9648 27.0917C7.06195 27.0232 7.11147 26.9054 7.09241 26.7881L6.92723 25.7764C6.91133 25.6791 6.94271 25.58 7.01172 25.5094L7.72217 24.7809C7.80328 24.6977 7.83107 24.576 7.79421 24.4658C7.75706 24.3555 7.66174 24.2751 7.54686 24.2574Z" fill="#A0AEC0"/>
<path d="M31.1991 9.98406C31.2679 10.0547 31.299 10.1538 31.283 10.2511L31.1185 11.2658C31.0994 11.3831 31.1489 11.501 31.2461 11.5694C31.3432 11.6379 31.4708 11.6449 31.5749 11.5875L32.4002 11.1311C32.4937 11.0794 32.6072 11.0794 32.7008 11.1311L33.5261 11.5875C33.6304 11.6468 33.7593 11.6406 33.8575 11.5719C33.9558 11.5032 34.0056 11.384 33.9857 11.2658L33.8211 10.2542C33.8051 10.1569 33.8362 10.0578 33.905 9.98716L34.616 9.2587C34.6972 9.17534 34.7249 9.05363 34.6879 8.94333C34.6509 8.83302 34.5553 8.75268 34.4403 8.73517L33.4852 8.58926C33.3828 8.57357 33.295 8.50787 33.2511 8.41416L32.835 7.52798C32.784 7.41873 32.6743 7.34888 32.5537 7.34888C32.4331 7.34888 32.3235 7.41866 32.2724 7.52798L31.8563 8.41416C31.8124 8.50794 31.7246 8.57357 31.6222 8.58926L30.6671 8.73517C30.5522 8.75289 30.4568 8.8333 30.42 8.94354C30.3831 9.05377 30.4109 9.17541 30.492 9.2587L31.1991 9.98406Z" fill="#A0AEC0"/>
<path d="M12.6354 29.6198L11.6802 29.4739C11.5779 29.4582 11.4901 29.3925 11.4461 29.2988L11.0301 28.412C10.979 28.3028 10.8693 28.2329 10.7487 28.2329C10.6282 28.2329 10.5185 28.3027 10.4674 28.412L10.0514 29.2988C10.0074 29.3926 9.91962 29.4582 9.81726 29.4739L8.86214 29.6198C8.74726 29.6376 8.65187 29.718 8.61501 29.8282C8.57814 29.9384 8.60593 30.0601 8.68704 30.1434L9.39749 30.8718C9.46622 30.9425 9.49739 31.0416 9.48135 31.1389L9.3168 32.1505C9.29774 32.2678 9.34726 32.3857 9.44441 32.4541C9.54157 32.5226 9.66918 32.5296 9.77322 32.4722L10.5986 32.0158C10.692 31.9641 10.8056 31.9641 10.8992 32.0158L11.7245 32.4722C11.8285 32.5296 11.9562 32.5226 12.0533 32.4541C12.1504 32.3857 12.2 32.2678 12.1809 32.1505L12.0164 31.1382C12.0003 31.0409 12.0314 30.9419 12.1002 30.8712L12.8094 30.1446C12.8912 30.0616 12.9196 29.9397 12.8829 29.8291C12.846 29.7185 12.7505 29.6376 12.6354 29.6198Z" fill="#A0AEC0"/>
<path d="M25.0064 4.24854L24.8419 5.26015C24.8228 5.37742 24.8723 5.49533 24.9695 5.56378C25.0666 5.63223 25.1943 5.63926 25.2983 5.58186L26.1236 5.12544C26.2171 5.07373 26.3307 5.07373 26.4242 5.12544L27.2496 5.58186C27.3536 5.63926 27.4813 5.63223 27.5784 5.56378C27.6754 5.49533 27.725 5.37749 27.706 5.26015L27.5414 4.24854C27.5254 4.15125 27.5565 4.05213 27.6253 3.9815L28.3345 3.25494C28.4156 3.17165 28.4434 3.05001 28.4065 2.93978C28.3696 2.82954 28.2743 2.74913 28.1594 2.7314L27.2043 2.5855C27.1019 2.56981 27.0141 2.50411 26.9701 2.4104L26.5541 1.52359C26.503 1.41434 26.3933 1.34448 26.2728 1.34448C26.1522 1.34448 26.0425 1.41427 25.9914 1.52359L25.5754 2.4104C25.5314 2.50418 25.4436 2.56981 25.3413 2.5855L24.3862 2.7314C24.2713 2.74913 24.1759 2.82954 24.139 2.93978C24.1022 3.05001 24.1299 3.17165 24.2111 3.25494L24.9227 3.9815C24.9914 4.0522 25.0225 4.15132 25.0064 4.24854Z" fill="#A0AEC0"/>
<path d="M10.8304 20.8673C10.3712 20.8673 9.96515 20.7748 9.61232 20.59C9.26508 20.4052 8.99346 20.1448 8.79744 19.8088C8.60703 19.4727 8.51182 19.0863 8.51182 18.6495V17.0617C8.51182 16.6249 8.60703 16.2412 8.79744 15.9108C8.99346 15.5748 9.26508 15.3144 9.61232 15.1296C9.96515 14.9447 10.3712 14.8523 10.8304 14.8523C11.2785 14.8523 11.6789 14.9419 12.0317 15.1211C12.3846 15.2948 12.6562 15.5328 12.8466 15.8352C13.0426 16.1376 13.1406 16.4681 13.1406 16.8265V16.8349C13.1406 16.8741 13.1294 16.9049 13.107 16.9273C13.0846 16.9497 13.0538 16.9609 13.0146 16.9609H11.6957C11.6117 16.9609 11.5697 16.9357 11.5697 16.8853C11.5697 16.7005 11.5025 16.5409 11.3681 16.4065C11.2393 16.2721 11.06 16.2048 10.8304 16.2048C10.6064 16.2048 10.4272 16.2805 10.2928 16.4317C10.1584 16.5773 10.0912 16.7733 10.0912 17.0197V18.6999C10.0912 18.9407 10.1668 19.1367 10.318 19.2879C10.4748 19.4391 10.668 19.5147 10.8976 19.5147C11.1048 19.5147 11.2729 19.4587 11.4017 19.3467C11.5361 19.2291 11.6033 19.0695 11.6033 18.8679V18.7587C11.6033 18.7307 11.5893 18.7167 11.5613 18.7167H10.822C10.7828 18.7167 10.752 18.7055 10.7296 18.6831C10.7072 18.6607 10.696 18.6299 10.696 18.5907V17.5826C10.696 17.5434 10.7072 17.5126 10.7296 17.4902C10.752 17.4678 10.7828 17.4566 10.822 17.4566H13.0146C13.0538 17.4566 13.0846 17.4678 13.107 17.4902C13.1294 17.5126 13.1406 17.5434 13.1406 17.5826V18.7335C13.1406 19.1479 13.0426 19.5175 12.8466 19.8424C12.6562 20.1672 12.3846 20.4192 12.0317 20.5984C11.6845 20.7776 11.2841 20.8673 10.8304 20.8673ZM13.849 20.8C13.8098 20.8 13.779 20.7888 13.7566 20.7664C13.7342 20.744 13.723 20.7132 13.723 20.674V15.0455C13.723 15.0063 13.7342 14.9755 13.7566 14.9531C13.779 14.9307 13.8098 14.9195 13.849 14.9195H16.008C16.4617 14.9195 16.8621 14.9979 17.2093 15.1548C17.5622 15.3116 17.8338 15.5328 18.0242 15.8184C18.2146 16.104 18.3098 16.4345 18.3098 16.8097V18.9099C18.3098 19.2851 18.2146 19.6155 18.0242 19.9012C17.8338 20.1868 17.5622 20.408 17.2093 20.5648C16.8621 20.7216 16.4617 20.8 16.008 20.8H13.849ZM15.3024 19.4055C15.3024 19.4335 15.3164 19.4475 15.3444 19.4475H16.0668C16.2573 19.4475 16.4141 19.3747 16.5373 19.2291C16.6605 19.0779 16.7249 18.8819 16.7305 18.6411V17.0785C16.7305 16.8377 16.6689 16.6445 16.5457 16.4989C16.4225 16.3477 16.2601 16.2721 16.0584 16.2721H15.3444C15.3164 16.2721 15.3024 16.2861 15.3024 16.3141V19.4055ZM21.4783 14.9195C21.8759 14.9195 22.226 15.0007 22.5284 15.1632C22.8308 15.32 23.0632 15.5468 23.2256 15.8436C23.3937 16.1348 23.4777 16.4709 23.4777 16.8517C23.4777 17.2269 23.3909 17.5574 23.2172 17.843C23.0436 18.1286 22.8 18.3498 22.4864 18.5066C22.1728 18.6635 21.8115 18.7419 21.4027 18.7419H20.5122C20.4842 18.7419 20.4702 18.7559 20.4702 18.7839V20.674C20.4702 20.7132 20.459 20.744 20.4366 20.7664C20.4142 20.7888 20.3834 20.8 20.3442 20.8H19.0169C18.9777 20.8 18.9469 20.7888 18.9245 20.7664C18.9021 20.744 18.8909 20.7132 18.8909 20.674V15.0455C18.8909 15.0063 18.9021 14.9755 18.9245 14.9531C18.9469 14.9307 18.9777 14.9195 19.0169 14.9195H21.4783ZM21.2179 17.4818C21.4251 17.4818 21.5903 17.4286 21.7135 17.3221C21.8423 17.2101 21.9067 17.0645 21.9067 16.8853C21.9067 16.7005 21.8423 16.5521 21.7135 16.4401C21.5903 16.3281 21.4251 16.2721 21.2179 16.2721H20.5122C20.4842 16.2721 20.4702 16.2861 20.4702 16.3141V17.4398C20.4702 17.4678 20.4842 17.4818 20.5122 17.4818H21.2179ZM27.0447 20.8C26.9719 20.8 26.9243 20.7692 26.9019 20.7076L25.9778 18.5739C25.9666 18.5515 25.9498 18.5403 25.9274 18.5403H25.5746C25.5466 18.5403 25.5326 18.5543 25.5326 18.5823V20.674C25.5326 20.7132 25.5214 20.744 25.499 20.7664C25.4766 20.7888 25.4458 20.8 25.4066 20.8H24.0792C24.04 20.8 24.0092 20.7888 23.9868 20.7664C23.9644 20.744 23.9532 20.7132 23.9532 20.674V15.0455C23.9532 15.0063 23.9644 14.9755 23.9868 14.9531C24.0092 14.9307 24.04 14.9195 24.0792 14.9195H26.6247C27.0055 14.9195 27.3387 14.9979 27.6244 15.1548C27.9156 15.3116 28.1396 15.5328 28.2964 15.8184C28.4588 16.0984 28.54 16.4233 28.54 16.7929C28.54 17.1625 28.4476 17.4874 28.2628 17.7674C28.0836 18.0418 27.8344 18.2434 27.5151 18.3722C27.4871 18.3834 27.4787 18.403 27.4899 18.431L28.5568 20.6488C28.568 20.6824 28.5736 20.702 28.5736 20.7076C28.5736 20.7356 28.5624 20.758 28.54 20.7748C28.5176 20.7916 28.4896 20.8 28.456 20.8H27.0447ZM25.5746 16.2721C25.5466 16.2721 25.5326 16.2861 25.5326 16.3141V17.2969C25.5326 17.3249 25.5466 17.3389 25.5746 17.3389H26.3642C26.5435 17.3389 26.6891 17.2913 26.8011 17.1961C26.9131 17.0953 26.9691 16.9665 26.9691 16.8097C26.9691 16.6473 26.9131 16.5185 26.8011 16.4233C26.6891 16.3225 26.5435 16.2721 26.3642 16.2721H25.5746Z" fill="#A0AEC0"/>
</g>
<defs>
<clipPath id="clip0_2619_19625">
<rect width="35.35" height="35.35" fill="white" transform="translate(0.90979)"/>
</clipPath>
</defs>
</svg>
