<svg width="63" height="30" viewBox="0 0 63 30" fill="none" xmlns="http://www.w3.org/2000/svg">
<g clip-path="url(#clip0_2619_19643)">
<path d="M8.01701 10.8089C8.27427 10.8082 8.52168 10.9077 8.70679 11.0864C8.89191 11.265 9.00016 11.5087 9.0086 11.7659H9.65812V10.2936H9.56935C9.34865 10.2933 9.13332 10.2255 8.95222 10.0994C8.77112 9.97322 8.63291 9.79473 8.55611 9.58782L8.43703 9.26523C8.23161 8.70403 7.85875 8.21948 7.3689 7.87717C6.87904 7.53485 6.29585 7.35129 5.69823 7.35132H0.495607C0.495322 7.54455 0.533137 7.73595 0.606888 7.91456C0.680638 8.09316 0.788878 8.25548 0.925415 8.39222C1.06195 8.52895 1.22411 8.63743 1.40261 8.71145C1.58111 8.78546 1.77244 8.82356 1.96568 8.82356H5.39729C5.45471 8.82356 5.50978 8.84637 5.55038 8.88697C5.59099 8.92757 5.6138 8.98264 5.6138 9.04006C5.6138 9.09748 5.59099 9.15255 5.55038 9.19315C5.50978 9.23376 5.45471 9.25657 5.39729 9.25657H2.03063C2.12362 9.5571 2.31043 9.81995 2.56369 10.0066C2.81695 10.1932 3.12332 10.2938 3.43792 10.2936H6.86736C6.92479 10.2936 6.97985 10.3164 7.02046 10.357C7.06106 10.3976 7.08387 10.4527 7.08387 10.5101C7.08387 10.5676 7.06106 10.6226 7.02046 10.6632C6.97985 10.7038 6.92479 10.7266 6.86736 10.7266H3.5072C3.59917 11.0274 3.78542 11.2905 4.03845 11.4773C4.29147 11.664 4.59785 11.7644 4.91232 11.7637H5.72638C6.02618 11.4611 6.38297 11.2209 6.77614 11.0571C7.16931 10.8932 7.59105 10.8088 8.01701 10.8089Z" fill="#A0AEC0"/>
<path d="M15.5993 7.35132C15.0017 7.35129 14.4185 7.53485 13.9286 7.87717C13.4388 8.21948 13.0659 8.70403 12.8605 9.26523L12.7414 9.58782C12.665 9.7937 12.5278 9.97146 12.348 10.0975C12.1681 10.2236 11.9542 10.292 11.7347 10.2936H11.6632V11.7659H12.3127C12.3212 11.5087 12.4294 11.265 12.6145 11.0864C12.7996 10.9077 13.0471 10.8082 13.3043 10.8089C13.7308 10.8088 14.153 10.8934 14.5466 11.0576C14.9402 11.2219 15.2972 11.4626 15.5971 11.7659H16.4112C16.7222 11.7621 17.024 11.6597 17.2731 11.4733C17.5221 11.2869 17.7055 11.0262 17.7968 10.7288H14.4366C14.3792 10.7288 14.3242 10.706 14.2836 10.6654C14.2429 10.6248 14.2201 10.5697 14.2201 10.5123C14.2201 10.4549 14.2429 10.3998 14.2836 10.3592C14.3242 10.3186 14.3792 10.2958 14.4366 10.2958H17.8661C18.1807 10.296 18.4871 10.1954 18.7403 10.0087C18.9936 9.82211 19.1804 9.55927 19.2734 9.25873H15.9067C15.8493 9.25873 15.7942 9.23592 15.7536 9.19532C15.713 9.15472 15.6902 9.09965 15.6902 9.04223C15.6902 8.98481 15.713 8.92974 15.7536 8.88913C15.7942 8.84853 15.8493 8.82572 15.9067 8.82572H19.3383C19.5316 8.82572 19.7229 8.78762 19.9014 8.71361C20.0799 8.6396 20.2421 8.53112 20.3786 8.39438C20.5151 8.25764 20.6234 8.09533 20.6971 7.91672C20.7709 7.73811 20.8087 7.54672 20.8084 7.35348L15.5993 7.35132Z" fill="#A0AEC0"/>
<path d="M10.0805 7.77563V15.2754H11.2237V7.77563C10.8512 7.88992 10.453 7.88992 10.0805 7.77563Z" fill="#A0AEC0"/>
<path d="M10.0805 17.2627H11.2237V18.6743H10.0805V17.2627Z" fill="#A0AEC0"/>
<path d="M10.0805 24.6414H11.2237V20.6598L10.0805 20.6555V24.6414Z" fill="#A0AEC0"/>
<path d="M10.6521 7.42915C11.4868 7.42915 12.1633 6.75256 12.1633 5.91795C12.1633 5.08333 11.4868 4.40674 10.6521 4.40674C9.81752 4.40674 9.14093 5.08333 9.14093 5.91795C9.14093 6.75256 9.81752 7.42915 10.6521 7.42915Z" fill="#A0AEC0"/>
<path d="M13.2869 11.2418C13.2104 11.237 13.1338 11.248 13.0618 11.274C12.9898 11.2999 12.9238 11.3404 12.868 11.3928C12.8122 11.4453 12.7678 11.5086 12.7374 11.5789C12.707 11.6491 12.6913 11.7249 12.6913 11.8015C12.6913 11.878 12.707 11.9538 12.7374 12.0241C12.7678 12.0944 12.8122 12.1577 12.868 12.2101C12.9238 12.2625 12.9898 12.303 13.0618 12.329C13.1338 12.3549 13.2104 12.3659 13.2869 12.3611C13.659 12.3609 14.0206 12.4846 14.3145 12.7129C14.6085 12.9411 14.8179 13.2608 14.9098 13.6215C15.0017 13.9821 14.9708 14.363 14.822 14.7041C14.6731 15.0452 14.4148 15.3269 14.0879 15.5048C14.454 15.6644 14.7795 15.9041 15.0406 16.2063C15.4906 15.8439 15.8171 15.3507 15.975 14.7949C16.1328 14.239 16.1142 13.6479 15.9217 13.103C15.7293 12.5582 15.3724 12.0865 14.9005 11.7531C14.4285 11.4197 13.8647 11.2411 13.2869 11.2418Z" fill="#A0AEC0"/>
<path d="M13.0099 15.7083H8.01728C7.57342 15.7083 7.14773 15.532 6.83387 15.2181C6.52002 14.9043 6.34369 14.4786 6.34369 14.0347C6.34369 13.5909 6.52002 13.1652 6.83387 12.8513C7.14773 12.5375 7.57342 12.3611 8.01728 12.3611C8.0937 12.3659 8.17029 12.3549 8.24232 12.329C8.31435 12.303 8.3803 12.2625 8.4361 12.2101C8.49191 12.1577 8.53638 12.0944 8.56677 12.0241C8.59717 11.9538 8.61285 11.878 8.61285 11.8015C8.61285 11.7249 8.59717 11.6491 8.56677 11.5789C8.53638 11.5086 8.49191 11.4453 8.4361 11.3928C8.3803 11.3404 8.31435 11.2999 8.24232 11.274C8.17029 11.248 8.0937 11.237 8.01728 11.2418C7.64382 11.2314 7.27207 11.296 6.924 11.4317C6.57592 11.5675 6.25859 11.7716 5.99077 12.0321C5.72294 12.2925 5.51005 12.6041 5.36468 12.9482C5.21931 13.2924 5.14441 13.6622 5.14441 14.0358C5.14441 14.4094 5.21931 14.7792 5.36468 15.1234C5.51005 15.4675 5.72294 15.7791 5.99077 16.0395C6.25859 16.3 6.57592 16.5042 6.924 16.6399C7.27207 16.7756 7.64382 16.8402 8.01728 16.8298H13.0099C13.2832 16.8403 13.5436 16.9488 13.7435 17.1354C13.9434 17.3221 14.0694 17.5744 14.0986 17.8464C14.1277 18.1183 14.0581 18.3916 13.9023 18.6164C13.7465 18.8412 13.5151 19.0025 13.2502 19.0706C13.6017 19.2888 13.8981 19.5852 14.1162 19.9367C14.5516 19.6919 14.8936 19.3098 15.0888 18.8501C15.2841 18.3903 15.3216 17.8789 15.1954 17.3956C15.0693 16.9124 14.7867 16.4845 14.3916 16.1788C13.9966 15.8732 13.5115 15.707 13.0121 15.7061L13.0099 15.7083Z" fill="#A0AEC0"/>
<path d="M13.512 19.8586C13.2134 19.5222 12.8203 19.2838 12.384 19.1745C12.0051 19.0814 12.0181 19.1074 8.30285 19.1074C8.08351 19.1066 7.86904 19.0426 7.68513 18.9231C7.50122 18.8035 7.35566 18.6335 7.26588 18.4334C7.1761 18.2333 7.14591 18.0115 7.17891 17.7947C7.21192 17.5779 7.30672 17.3751 7.45198 17.2108C7.06964 17.1423 6.70287 17.0051 6.36945 16.8059C6.15564 17.1559 6.04321 17.5584 6.04469 17.9685C6.04469 19.8998 7.66415 20.2115 9.47414 20.2202C10.2514 20.2202 8.80947 20.2202 11.9077 20.2332C12.2091 20.2415 12.4949 20.3693 12.7022 20.5883C12.9095 20.8074 13.0212 21.0998 13.0129 21.4012C13.0046 21.7027 12.8769 21.9885 12.6578 22.1958C12.4388 22.4031 12.1463 22.5148 11.8449 22.5065H11.6652V23.6172H11.8449C12.2785 23.6132 12.7018 23.4846 13.0642 23.2465C13.4266 23.0084 13.7128 22.6711 13.8886 22.2747C14.0644 21.8783 14.1224 21.4397 14.0556 21.0113C13.9888 20.5828 13.8001 20.1827 13.512 19.8586Z" fill="#A0AEC0"/>
<path d="M8.60154 20.6251C8.20039 20.602 7.80312 20.5337 7.41726 20.4216C7.26102 20.7654 7.19337 21.1428 7.2205 21.5194C7.24763 21.8959 7.36867 22.2597 7.57256 22.5775C7.77645 22.8953 8.0567 23.157 8.38773 23.3386C8.71875 23.5202 9.08999 23.616 9.46756 23.6173H9.64726V22.5066H9.46756C9.24976 22.5062 9.03663 22.4435 8.85333 22.3258C8.67004 22.2082 8.52424 22.0405 8.43317 21.8427C8.34211 21.6448 8.30957 21.4251 8.3394 21.2093C8.36924 20.9936 8.4602 20.7909 8.60154 20.6251Z" fill="#A0AEC0"/>
</g>
<path d="M28.6518 8.70504C28.6518 8.64107 28.6701 8.5908 28.7066 8.55424C28.7432 8.51768 28.7935 8.4994 28.8575 8.4994H31.0235C31.0875 8.4994 31.1378 8.51768 31.1743 8.55424C31.2109 8.5908 31.2292 8.64107 31.2292 8.70504V17.8903C31.2292 17.9543 31.2109 18.0046 31.1743 18.0411C31.1378 18.0777 31.0875 18.0959 31.0235 18.0959H28.8575C28.7935 18.0959 28.7432 18.0777 28.7066 18.0411C28.6701 18.0046 28.6518 17.9543 28.6518 17.8903V14.4081C28.6518 14.3624 28.629 14.3396 28.5833 14.3396H26.4446C26.3989 14.3396 26.3761 14.3624 26.3761 14.4081V17.8903C26.3761 17.9543 26.3578 18.0046 26.3212 18.0411C26.2847 18.0777 26.2344 18.0959 26.1704 18.0959H24.0043C23.9404 18.0959 23.8901 18.0777 23.8535 18.0411C23.817 18.0046 23.7987 17.9543 23.7987 17.8903V8.70504C23.7987 8.64107 23.817 8.5908 23.8535 8.55424C23.8901 8.51768 23.9404 8.4994 24.0043 8.4994H26.1704C26.2344 8.4994 26.2847 8.51768 26.3212 8.55424C26.3578 8.5908 26.3761 8.64107 26.3761 8.70504V12.0638C26.3761 12.1095 26.3989 12.1324 26.4446 12.1324H28.5833C28.629 12.1324 28.6518 12.1095 28.6518 12.0638V8.70504ZM32.3853 18.0959C32.3213 18.0959 32.271 18.0777 32.2344 18.0411C32.1979 18.0046 32.1796 17.9543 32.1796 17.8903V8.70504C32.1796 8.64107 32.1979 8.5908 32.2344 8.55424C32.271 8.51768 32.3213 8.4994 32.3853 8.4994H34.5513C34.6153 8.4994 34.6656 8.51768 34.7021 8.55424C34.7387 8.5908 34.757 8.64107 34.757 8.70504V17.8903C34.757 17.9543 34.7387 18.0046 34.7021 18.0411C34.6656 18.0777 34.6153 18.0959 34.5513 18.0959H32.3853ZM40.0025 8.4994C40.6514 8.4994 41.2226 8.63193 41.7162 8.89698C42.2097 9.15288 42.589 9.52304 42.8541 10.0074C43.1282 10.4827 43.2653 11.0311 43.2653 11.6526C43.2653 12.2649 43.1237 12.8041 42.8403 13.2703C42.557 13.7364 42.1594 14.0974 41.6476 14.3533C41.1358 14.6092 40.5463 14.7372 39.8791 14.7372H38.4259C38.3802 14.7372 38.3574 14.76 38.3574 14.8057V17.8903C38.3574 17.9543 38.3391 18.0046 38.3025 18.0411C38.266 18.0777 38.2157 18.0959 38.1517 18.0959H35.9857C35.9217 18.0959 35.8714 18.0777 35.8349 18.0411C35.7983 18.0046 35.78 17.9543 35.78 17.8903V8.70504C35.78 8.64107 35.7983 8.5908 35.8349 8.55424C35.8714 8.51768 35.9217 8.4994 35.9857 8.4994H40.0025ZM39.5775 12.6808C39.9157 12.6808 40.1853 12.5939 40.3864 12.4203C40.5966 12.2375 40.7017 11.9999 40.7017 11.7074C40.7017 11.4058 40.5966 11.1636 40.3864 10.9808C40.1853 10.798 39.9157 10.7066 39.5775 10.7066H38.4259C38.3802 10.7066 38.3574 10.7295 38.3574 10.7752V12.6122C38.3574 12.6579 38.3802 12.6808 38.4259 12.6808H39.5775ZM49.3863 18.0959C49.2584 18.0959 49.1807 18.0365 49.1533 17.9177L48.8517 16.8484C48.8334 16.8118 48.8105 16.7936 48.7831 16.7936H45.8767C45.8493 16.7936 45.8265 16.8118 45.8082 16.8484L45.5066 17.9177C45.4792 18.0365 45.4015 18.0959 45.2735 18.0959H42.9292C42.7647 18.0959 42.7053 18.0183 42.751 17.8629L45.6437 8.66392C45.6802 8.55424 45.7579 8.4994 45.8767 8.4994H48.7831C48.9019 8.4994 48.9796 8.55424 49.0162 8.66392L51.9089 17.8629C51.918 17.8812 51.9226 17.9086 51.9226 17.9451C51.9226 18.0457 51.8586 18.0959 51.7306 18.0959H49.3863ZM46.4114 14.7372C46.4023 14.792 46.4206 14.8194 46.4663 14.8194H48.1799C48.2348 14.8194 48.253 14.792 48.2348 14.7372L47.3574 11.6663C47.3482 11.6388 47.3345 11.6251 47.3162 11.6251C47.298 11.6251 47.2842 11.6388 47.2751 11.6663L46.4114 14.7372ZM59.173 18.0959C59.045 18.0959 58.9674 18.0365 58.9399 17.9177L58.6383 16.8484C58.6201 16.8118 58.5972 16.7936 58.5698 16.7936H55.6634C55.636 16.7936 55.6131 16.8118 55.5949 16.8484L55.2932 17.9177C55.2658 18.0365 55.1881 18.0959 55.0602 18.0959H52.7159C52.5514 18.0959 52.492 18.0183 52.5377 17.8629L55.4303 8.66392C55.4669 8.55424 55.5446 8.4994 55.6634 8.4994H58.5698C58.6886 8.4994 58.7663 8.55424 58.8028 8.66392L61.6955 17.8629C61.7047 17.8812 61.7092 17.9086 61.7092 17.9451C61.7092 18.0457 61.6452 18.0959 61.5173 18.0959H59.173ZM56.1981 14.7372C56.1889 14.792 56.2072 14.8194 56.2529 14.8194H57.9666C58.0214 14.8194 58.0397 14.792 58.0214 14.7372L57.144 11.6663C57.1349 11.6388 57.1212 11.6251 57.1029 11.6251C57.0846 11.6251 57.0709 11.6388 57.0618 11.6663L56.1981 14.7372Z" fill="#A0AEC0"/>
<path d="M25.5303 25.3206C25.1858 25.3206 24.8831 25.2542 24.6223 25.1213C24.3615 24.9835 24.1573 24.7915 24.0096 24.5455C23.8669 24.2945 23.7955 24.0066 23.7955 23.6818V21.6518C23.7955 21.3319 23.8669 21.0489 24.0096 20.8028C24.1573 20.5568 24.3615 20.3673 24.6223 20.2344C24.8831 20.0966 25.1858 20.0277 25.5303 20.0277C25.8748 20.0277 26.1775 20.0942 26.4383 20.227C26.6991 20.3599 26.9009 20.5469 27.0436 20.7881C27.1912 21.0292 27.2651 21.3073 27.2651 21.6222C27.2651 21.6468 27.2577 21.6665 27.2429 21.6813C27.2281 21.696 27.2109 21.7034 27.1912 21.7034L26.8148 21.7256C26.7655 21.7256 26.7409 21.7034 26.7409 21.6591V21.637C26.7409 21.2876 26.6302 21.0095 26.4088 20.8028C26.1873 20.5912 25.8945 20.4854 25.5303 20.4854C25.1661 20.4854 24.8733 20.5912 24.6518 20.8028C24.4304 21.0144 24.3197 21.2925 24.3197 21.637V23.7039C24.3197 24.0484 24.4304 24.3265 24.6518 24.5381C24.8733 24.7497 25.1661 24.8555 25.5303 24.8555C25.8945 24.8555 26.1873 24.7522 26.4088 24.5455C26.6302 24.3339 26.7409 24.0534 26.7409 23.7039V23.6892C26.7409 23.6449 26.7655 23.6227 26.8148 23.6227L27.1912 23.6449C27.2405 23.6449 27.2651 23.667 27.2651 23.7113C27.2651 24.0312 27.1912 24.3142 27.0436 24.5602C26.9009 24.8014 26.6991 24.9884 26.4383 25.1213C26.1775 25.2542 25.8748 25.3206 25.5303 25.3206ZM30.0364 25.3132C29.687 25.3132 29.3794 25.2418 29.1137 25.0991C28.8479 24.9564 28.6412 24.7571 28.4936 24.5012C28.3509 24.2404 28.2795 23.9402 28.2795 23.6006V21.7403C28.2795 21.4008 28.3509 21.103 28.4936 20.8471C28.6412 20.5863 28.8479 20.3845 29.1137 20.2418C29.3794 20.0991 29.687 20.0277 30.0364 20.0277C30.3858 20.0277 30.6934 20.0991 30.9592 20.2418C31.2298 20.3845 31.4365 20.5863 31.5792 20.8471C31.7269 21.103 31.8007 21.4008 31.8007 21.7403V23.6006C31.8007 23.9402 31.7269 24.2404 31.5792 24.5012C31.4365 24.7571 31.2298 24.9564 30.9592 25.0991C30.6934 25.2418 30.3858 25.3132 30.0364 25.3132ZM30.0364 24.8629C30.4104 24.8629 30.7106 24.7497 30.937 24.5233C31.1634 24.297 31.2766 23.9968 31.2766 23.6227V21.733C31.2766 21.3589 31.1634 21.0587 30.937 20.8324C30.7106 20.6011 30.4104 20.4854 30.0364 20.4854C29.6673 20.4854 29.3696 20.6011 29.1432 20.8324C28.9168 21.0587 28.8036 21.3589 28.8036 21.733V23.6227C28.8036 23.9968 28.9168 24.297 29.1432 24.5233C29.3696 24.7497 29.6673 24.8629 30.0364 24.8629ZM36.3854 20.1385C36.41 20.104 36.4395 20.0868 36.474 20.0868H36.8579C36.9071 20.0868 36.9317 20.1114 36.9317 20.1606V25.1803C36.9317 25.2295 36.9071 25.2542 36.8579 25.2542H36.4814C36.4322 25.2542 36.4076 25.2295 36.4076 25.1803V21.076C36.4076 21.0612 36.4026 21.0514 36.3928 21.0464C36.3829 21.0415 36.3756 21.0464 36.3706 21.0612L35.1674 22.9067C35.1428 22.9411 35.1133 22.9584 35.0788 22.9584H34.8869C34.8524 22.9584 34.8229 22.9436 34.7983 22.9141L33.595 21.0833C33.5901 21.0686 33.5827 21.0637 33.5729 21.0686C33.563 21.0735 33.5581 21.0833 33.5581 21.0981V25.1803C33.5581 25.2295 33.5335 25.2542 33.4843 25.2542H33.1078C33.0586 25.2542 33.034 25.2295 33.034 25.1803V20.1606C33.034 20.1114 33.0586 20.0868 33.1078 20.0868H33.4917C33.5311 20.0868 33.5606 20.1015 33.5803 20.1311L34.9681 22.2349C34.973 22.2399 34.9804 22.2423 34.9902 22.2423C35.0001 22.2423 35.0074 22.2399 35.0124 22.2349L36.3854 20.1385ZM40.2745 20.0794C40.7076 20.0794 41.0546 20.2123 41.3154 20.478C41.5812 20.7438 41.714 21.0932 41.714 21.5263C41.714 21.9544 41.5787 22.2989 41.308 22.5597C41.0423 22.8206 40.6904 22.951 40.2524 22.951H38.8129C38.7932 22.951 38.7834 22.9608 38.7834 22.9805V25.1803C38.7834 25.2295 38.7588 25.2542 38.7096 25.2542H38.3331C38.2839 25.2542 38.2593 25.2295 38.2593 25.1803V20.1532C38.2593 20.104 38.2839 20.0794 38.3331 20.0794H40.2745ZM40.2155 22.5154C40.5058 22.5154 40.7421 22.4269 40.9242 22.2497C41.1062 22.0676 41.1973 21.8289 41.1973 21.5336C41.1973 21.2334 41.1062 20.9923 40.9242 20.8102C40.7421 20.6281 40.5058 20.5371 40.2155 20.5371H38.8129C38.7932 20.5371 38.7834 20.5469 38.7834 20.5666V22.4859C38.7834 22.5056 38.7932 22.5154 38.8129 22.5154H40.2155ZM42.7534 25.2542C42.7042 25.2542 42.6796 25.2295 42.6796 25.1803V20.1606C42.6796 20.1114 42.7042 20.0868 42.7534 20.0868H43.1299C43.1791 20.0868 43.2037 20.1114 43.2037 20.1606V24.7669C43.2037 24.7866 43.2135 24.7965 43.2332 24.7965H45.839C45.8883 24.7965 45.9129 24.8211 45.9129 24.8703V25.1803C45.9129 25.2295 45.8883 25.2542 45.839 25.2542H42.7534ZM46.949 25.2542C46.8998 25.2542 46.8752 25.2295 46.8752 25.1803V20.1606C46.8752 20.1114 46.8998 20.0868 46.949 20.0868H47.3255C47.3747 20.0868 47.3993 20.1114 47.3993 20.1606V25.1803C47.3993 25.2295 47.3747 25.2542 47.3255 25.2542H46.949ZM51.849 25.2542C51.8048 25.2542 51.7752 25.2345 51.7605 25.1951L51.4652 24.265C51.4603 24.2502 51.4504 24.2428 51.4357 24.2428H49.2285C49.2137 24.2428 49.2038 24.2502 49.1989 24.265L48.9036 25.1951C48.8889 25.2345 48.8594 25.2542 48.8151 25.2542H48.4164C48.3623 25.2542 48.3426 25.2271 48.3574 25.1729L49.9888 20.1458C50.0036 20.1065 50.0331 20.0868 50.0774 20.0868H50.5794C50.6236 20.0868 50.6532 20.1065 50.6679 20.1458L52.3067 25.1729L52.3141 25.2025C52.3141 25.2369 52.292 25.2542 52.2477 25.2542H51.849ZM49.3466 23.7778C49.3416 23.7876 49.3416 23.7974 49.3466 23.8073C49.3564 23.8122 49.3663 23.8147 49.3761 23.8147H51.2806C51.2905 23.8147 51.2979 23.8122 51.3028 23.8073C51.3126 23.7974 51.3151 23.7876 51.3102 23.7778L50.3505 20.7659C50.3456 20.7561 50.3382 20.7512 50.3284 20.7512C50.3185 20.7512 50.3111 20.7561 50.3062 20.7659L49.3466 23.7778ZM56.3478 20.1606C56.3478 20.1114 56.3724 20.0868 56.4216 20.0868H56.7981C56.8473 20.0868 56.8719 20.1114 56.8719 20.1606V25.1803C56.8719 25.2295 56.8473 25.2542 56.7981 25.2542H56.429C56.3945 25.2542 56.365 25.2369 56.3404 25.2025L53.8231 21.1055C53.8182 21.0907 53.8108 21.0858 53.801 21.0907C53.7912 21.0907 53.7862 21.0981 53.7862 21.1129L53.7936 25.1803C53.7936 25.2295 53.769 25.2542 53.7198 25.2542H53.3433C53.2941 25.2542 53.2695 25.2295 53.2695 25.1803V20.1606C53.2695 20.1114 53.2941 20.0868 53.3433 20.0868H53.7124C53.7469 20.0868 53.7764 20.104 53.801 20.1385L56.3182 24.2354C56.3232 24.2502 56.3305 24.2576 56.3404 24.2576C56.3502 24.2527 56.3552 24.2428 56.3552 24.2281L56.3478 20.1606ZM61.3733 20.0868C61.4225 20.0868 61.4471 20.1114 61.4471 20.1606V20.478C61.4471 20.5272 61.4225 20.5518 61.3733 20.5518H59.9264C59.9067 20.5518 59.8969 20.5617 59.8969 20.5814V25.1803C59.8969 25.2295 59.8723 25.2542 59.8231 25.2542H59.4466C59.3974 25.2542 59.3728 25.2295 59.3728 25.1803V20.5814C59.3728 20.5617 59.3629 20.5518 59.3432 20.5518H57.9554C57.9062 20.5518 57.8816 20.5272 57.8816 20.478V20.1606C57.8816 20.1114 57.9062 20.0868 57.9554 20.0868H61.3733Z" fill="#A0AEC0"/>
<defs>
<clipPath id="clip0_2619_19643">
<rect width="20.7845" height="20.7845" fill="white" transform="translate(0.259766 4.13208)"/>
</clipPath>
</defs>
</svg>
