<svg width="74" height="28" viewBox="0 0 74 28" fill="none" xmlns="http://www.w3.org/2000/svg">
<g clip-path="url(#clip0_2619_19658)">
<path d="M18.5341 20.9358L18.1029 21.7885C17.1644 21.5825 16.1302 21.472 15.175 21.4093C15.1286 21.2674 15.1942 21.0614 15.1286 20.9358H14.7146C14.6833 21.1241 14.7624 21.2674 14.6682 21.4241C13.6811 21.472 12.7268 21.5825 11.8039 21.772L11.375 20.9356C11.2154 20.9356 11.0407 20.9029 10.9295 20.9507L11.3272 21.8824L11.2801 21.9302C10.5631 22.135 9.86321 22.3888 9.18033 22.6737L9.11549 22.6412C8.66998 22.1527 8.24092 21.6151 7.89033 21.0764C7.81258 20.8089 7.49405 20.9659 7.3194 20.9359C7.70063 21.6303 8.20886 22.2469 8.71907 22.8787C8.2886 23.1326 7.85968 23.4177 7.41403 23.6222C6.45973 22.895 5.56828 21.9468 4.90115 20.951C4.70946 20.9195 4.58248 20.9359 4.39221 20.951C5.53621 22.753 7.31925 24.333 9.18019 25.2648L9.19523 25.2499L9.21225 25.2975C10.4681 25.9129 11.8037 26.3564 13.2199 26.5458C18.1026 27.1938 22.7632 25.0917 25.467 20.951C25.3252 20.9359 25.1177 20.9359 24.957 20.951C24.291 21.9155 23.4481 22.8485 22.5258 23.5744L22.3675 23.5593C21.9689 23.3069 21.538 23.0996 21.1561 22.8485C21.6663 22.2306 22.1602 21.6154 22.542 20.9359H22.0481C21.6497 21.5199 21.2351 22.1351 20.7111 22.6575C20.01 22.3738 19.3742 22.1201 18.6592 21.9302L18.5802 21.8675C18.6922 21.551 18.8967 21.2508 18.9622 20.9358H18.5338H18.5341ZM15.1943 21.8989C16.1002 21.9155 17.0062 22.0096 17.8494 22.2154L17.863 22.2632C17.4212 23.116 16.8617 23.9372 16.2587 24.712C15.9887 24.7434 15.7349 24.633 15.4619 24.6165L15.1945 24.5864C15.162 23.6533 15.1455 22.8306 15.1945 21.8987L15.1943 21.8989ZM12.1227 22.1828C12.9494 22.026 13.809 21.899 14.6999 21.899L14.7149 24.5704C14.382 24.6494 14.0157 24.6494 13.6972 24.7287C13.0444 23.9539 12.5041 23.1161 12.043 22.2469L12.1227 22.1828ZM9.56199 23.0369C10.182 22.737 10.8343 22.5157 11.502 22.3411L11.5668 22.3573C12.0273 23.2265 12.6003 24.0477 13.1732 24.8691C12.9494 24.9973 12.68 25.0765 12.4563 25.2019C11.4072 24.6808 10.4044 23.9538 9.56185 23.0846V23.0368L9.56199 23.0369ZM11.6138 25.7395C10.2768 25.3916 9.0366 24.7913 7.89062 23.97V23.9221C8.27327 23.6846 8.65536 23.4324 9.06867 23.2591C9.9753 24.1582 10.9139 24.839 11.9323 25.487L11.6136 25.7394L11.6138 25.7395ZM17.6255 25.85L17.5135 25.9455C15.8301 26.3085 13.9507 26.3235 12.2666 25.9128L12.3935 25.7709C13.8731 24.8064 16.1795 24.8064 17.6256 25.85H17.6255ZM20.7906 23.2428C21.2218 23.4175 21.6338 23.6536 22.0158 23.9223C21.1263 24.6331 20.0921 25.1079 19.0415 25.5023L18.294 25.7397C18.1685 25.6755 18.0565 25.5827 17.9447 25.4872L17.9746 25.4394C18.9951 24.839 19.9174 24.1118 20.7905 23.2429L20.7906 23.2428ZM20.3159 23.0217C19.8058 23.6057 19.1536 24.112 18.5479 24.5389C18.1824 24.76 17.8166 24.9973 17.4345 25.1869L16.7496 24.8868L16.7987 24.7763C17.3718 24.0014 17.882 23.2114 18.3268 22.3739L18.3731 22.3413C19.0581 22.4993 19.7103 22.7218 20.3159 23.0217Z" fill="#A0AEC0"/>
<path d="M1.86254 17.1255L0.288209 17.1582C0.256144 18.027 0.256144 18.8966 0.288209 19.7653H7.30261V17.1582C6.77736 17.1255 6.1894 17.1731 5.68046 17.1104L5.69621 11.5632L5.72828 11.5154L7.30261 11.5004C7.31978 10.5986 7.33467 9.63534 7.28771 8.8127L1.29033 8.79639L0.303958 8.81285C0.288209 9.70273 0.288209 10.5928 0.303958 11.4827C0.845525 11.5004 1.35446 11.4827 1.87971 11.5305V16.9057L1.86268 17.1253L1.86254 17.1255Z" fill="#A0AEC0"/>
<path d="M22.2068 5.00382L22.3677 4.94111C23.3364 5.6833 24.1959 6.58369 24.8781 7.57956C25.069 7.57956 25.2301 7.64369 25.3884 7.56452C23.2572 4.34066 19.7429 2.26974 15.9392 1.96952L15.9228 2.00087L15.8929 1.96952C15.462 1.9217 14.938 1.90681 14.4761 1.95306C14.3014 1.93816 14.0948 1.95306 13.8881 1.96952C10.0702 2.2696 6.55504 4.24518 4.36053 7.6122C4.51944 7.59588 4.70985 7.65859 4.86876 7.59588C5.25085 7.0597 5.68061 6.53729 6.15734 6.03105C6.57064 5.63534 6.95344 5.25751 7.39881 4.97247C7.81283 5.24133 8.27323 5.46225 8.67036 5.71466C8.17718 6.33128 7.66896 6.94804 7.30262 7.61234C7.41456 7.65873 7.62128 7.64369 7.78019 7.61234C8.17718 7.02707 8.60751 6.4418 9.11588 5.92067C9.80075 6.17308 10.4686 6.4418 11.1684 6.6315L11.2311 6.69436L10.8341 7.61248C11.0087 7.64384 11.1205 7.62752 11.2952 7.61248C11.4391 7.34233 11.5496 7.04225 11.7085 6.7748C12.6307 6.9794 13.6015 7.09007 14.5879 7.1227C14.7147 7.23181 14.6206 7.4706 14.6683 7.61248H15.096C15.145 7.45286 15.0825 7.27962 15.145 7.13774C16.0673 7.08993 17.0359 6.99444 17.9282 6.7748L18.0072 6.78984L18.4356 7.61248C18.5802 7.61248 18.7711 7.64384 18.8831 7.5797L18.4847 6.66428L18.5173 6.6315C19.2487 6.4418 19.9334 6.15804 20.6319 5.873C21.126 6.39413 21.5871 7.01217 22.0018 7.61248C22.1765 7.61248 22.3513 7.62752 22.4766 7.5797C22.2819 7.22642 22.0535 6.89285 21.7944 6.58383C21.5869 6.28361 21.3632 6.0163 21.0932 5.73111V5.65194L22.2065 5.00396L22.2068 5.00382ZM9.03671 5.33526C8.60765 5.17692 8.20925 4.94097 7.82786 4.67082V4.64074C8.82998 3.89728 9.94319 3.34465 11.1205 2.96412L11.2631 2.87132V2.90126C11.39 2.93404 11.4869 2.79074 11.5974 2.88622L11.8833 3.10728C10.8976 3.7239 9.92759 4.45105 9.03671 5.33512V5.33526ZM11.4699 6.20557L11.4071 6.22061C10.755 6.04723 10.118 5.84121 9.51414 5.57263L9.54621 5.477C10.4208 4.6406 11.343 3.94495 12.3614 3.40736C12.6002 3.50157 12.8375 3.58202 13.0764 3.69254L13.0293 3.81797C12.4243 4.57647 11.9481 5.39925 11.4699 6.20543V6.20557ZM14.6357 6.63136C14.1896 6.69421 13.7932 6.61632 13.3478 6.58355C12.9173 6.52069 12.3763 6.47302 11.948 6.33114C12.4091 5.4621 12.9494 4.62443 13.6015 3.84946L14.6206 3.99277C14.6685 4.81413 14.6357 5.76233 14.6357 6.63136ZM12.4412 2.88636L12.1868 2.68035C13.8731 2.28478 15.8601 2.25328 17.53 2.68035V2.71185C16.1466 3.72404 13.9036 3.81825 12.4412 2.88651V2.88636ZM15.1289 6.64626C15.0962 5.80986 15.1124 4.87684 15.1289 4.00766C15.448 3.96013 15.7974 3.91232 16.1138 3.86592C16.736 4.65578 17.339 5.4621 17.7537 6.33114C16.8943 6.53715 16.021 6.64626 15.1287 6.64626H15.1289ZM20.204 5.54127C19.582 5.81014 18.9462 6.06241 18.2612 6.20571C17.7702 5.36676 17.2299 4.53036 16.624 3.72404C16.8476 3.5972 17.1179 3.50157 17.3553 3.37614C18.3893 3.89728 19.3907 4.64089 20.234 5.49488L20.204 5.54127ZM20.7771 5.28887H20.6951C19.8547 4.43487 18.8669 3.69268 17.8628 3.10742L18.1684 2.83855C19.5027 3.18645 20.7606 3.78675 21.9039 4.60811L21.8738 4.67097L20.7771 5.28887Z" fill="#A0AEC0"/>
<path d="M14.8267 9.23974C13.0763 8.49628 10.6274 8.41838 9.03671 9.57118C8.00253 10.3297 7.684 11.6885 7.95485 12.8904C8.16229 14.0281 9.24343 14.8658 10.2769 15.2601C11.6937 15.7663 13.1733 16.1293 14.6031 16.6203C14.7476 16.6832 14.9379 16.8249 14.908 16.9997C14.908 17.1416 14.7627 17.2208 14.6509 17.2835C13.1563 17.6943 11.5341 17.379 10.453 16.2412C10.3261 16.083 10.2464 15.8933 10.1181 15.7351L7.97074 15.7516C7.9401 17.0312 7.92293 18.5007 7.97074 19.7655L10.3569 19.7506L10.389 18.9906C10.6598 19.1188 10.9299 19.2757 11.2007 19.419C12.8548 20.1135 14.9873 20.2703 16.6245 19.419C17.8168 18.7533 18.4553 17.4736 18.278 16.0998C18.1033 14.756 16.8316 13.5391 15.5439 13.2061L11.6939 12.0846L11.4074 11.9413C11.2806 11.8308 11.2008 11.6889 11.2315 11.5157C11.5343 10.9945 12.2349 11.1527 12.7601 11.1678C13.8733 11.326 15.0174 11.7054 15.6694 12.7326C16.3706 12.7326 17.1811 12.7477 17.945 12.7177C17.975 11.4202 17.9285 10.2824 17.9123 8.97002C17.1974 8.95498 16.3215 8.95498 15.6067 8.98776C15.574 9.17731 15.6367 9.44476 15.5575 9.63574L14.8269 9.23988L14.8267 9.23974Z" fill="#A0AEC0"/>
<path d="M28.316 9.74606C26.2478 8.41861 23.0963 8.32312 20.9681 9.52359C19.8058 10.1239 19.0417 11.3107 18.8044 12.5264C18.3732 14.5346 18.4851 16.9208 20.0102 18.4229C21.7948 20.0028 24.3869 20.3507 26.6925 19.7025C26.8014 19.6807 27.1509 19.592 27.3883 19.4638L27.4565 19.4338C28.1715 19.1339 28.8563 18.6425 29.3637 17.9795C30.5426 16.2415 30.6218 13.6329 29.9041 11.6738C29.6202 10.9152 29.031 10.2357 28.3162 9.74606H28.316ZM26.6136 16.1773C26.5316 16.5579 26.2753 16.9523 25.8714 17.0956C25.2247 17.3795 24.3517 17.3002 23.7541 16.9687C23.2518 16.6208 23.1892 16.037 23.1237 15.4829C23.0746 14.3916 22.9927 13.2388 23.3012 12.2415C23.544 11.6261 24.207 11.468 24.8047 11.4201C25.4348 11.4201 26.0486 11.5155 26.4361 12.0217C26.679 12.3847 26.6627 12.8594 26.7118 13.285C26.6953 14.1868 26.7746 15.2605 26.6136 16.1773Z" fill="#A0AEC0"/>
</g>
<path d="M38.5951 16.6609C38.565 16.6809 38.555 16.701 38.565 16.7211C38.575 16.7412 38.5951 16.7512 38.6252 16.7512H42.2083C42.2785 16.7512 42.3337 16.7713 42.3739 16.8114C42.414 16.8516 42.4341 16.9068 42.4341 16.977V18.9492C42.4341 19.0195 42.414 19.0747 42.3739 19.1148C42.3337 19.155 42.2785 19.175 42.2083 19.175H34.9819C34.9117 19.175 34.8565 19.155 34.8163 19.1148C34.7762 19.0747 34.7561 19.0195 34.7561 18.9492V17.0975C34.7561 16.9871 34.7962 16.8967 34.8765 16.8265C35.3282 16.4351 35.7798 16.0085 36.2315 15.5468C36.6932 15.0851 36.9842 14.7941 37.1047 14.6736C37.1047 14.6736 37.4409 14.3374 38.1133 13.6649C39.0166 12.7817 39.4683 12.1494 39.4683 11.768C39.4683 11.5271 39.378 11.3314 39.1973 11.1809C39.0166 11.0203 38.7858 10.94 38.5048 10.94C38.2137 10.94 37.9778 11.0203 37.7972 11.1809C37.6165 11.3314 37.5262 11.5372 37.5262 11.7981V12.0992C37.5262 12.1695 37.5061 12.2247 37.466 12.2648C37.4258 12.305 37.3706 12.3251 37.3004 12.3251H34.8916C34.8213 12.3251 34.7661 12.305 34.726 12.2648C34.6858 12.2247 34.6658 12.1695 34.6658 12.0992V11.3465C34.7059 10.7744 34.8966 10.2776 35.2378 9.85604C35.5891 9.42447 36.0458 9.09326 36.6078 8.86242C37.1799 8.63157 37.8122 8.51615 38.5048 8.51615C39.2776 8.51615 39.9551 8.66168 40.5372 8.95275C41.1193 9.23377 41.5609 9.62018 41.862 10.112C42.1732 10.5937 42.3287 11.1257 42.3287 11.7078C42.3287 12.1193 42.2284 12.5258 42.0276 12.9272C41.8369 13.3287 41.5509 13.7503 41.1695 14.1919C40.768 14.6435 40.1257 15.2658 39.2425 16.0587L38.5951 16.6609ZM44.4992 19.175C44.4189 19.175 44.3587 19.155 44.3186 19.1148C44.2885 19.0646 44.2885 18.9994 44.3186 18.9191L47.4349 11.1508C47.445 11.1307 47.44 11.1106 47.4199 11.0905C47.4098 11.0705 47.3948 11.0604 47.3747 11.0604H45.3875C45.3373 11.0604 45.3122 11.0855 45.3122 11.1357V11.8132C45.3122 11.8834 45.2921 11.9386 45.252 11.9788C45.2118 12.0189 45.1566 12.039 45.0864 12.039H43.2497C43.1794 12.039 43.1242 12.0189 43.0841 11.9788C43.0439 11.9386 43.0238 11.8834 43.0238 11.8132L43.0389 8.86242C43.0389 8.79216 43.059 8.73696 43.0991 8.69681C43.1393 8.65667 43.1945 8.63659 43.2647 8.63659H50.2201C50.2904 8.63659 50.3456 8.65667 50.3857 8.69681C50.4258 8.73696 50.4459 8.79216 50.4459 8.86242V10.9099C50.4459 10.9801 50.4258 11.0755 50.3857 11.1959L47.2994 18.9944C47.2593 19.1148 47.169 19.175 47.0285 19.175H44.4992ZM54.8832 19.3557C53.6889 19.3557 52.7454 19.0245 52.0529 18.3621C51.3704 17.6997 51.0292 16.7863 51.0292 15.6221V12.1896C51.0292 11.0554 51.3704 10.1622 52.0529 9.50978C52.7454 8.84736 53.6889 8.51615 54.8832 8.51615C56.0776 8.51615 57.021 8.84736 57.7136 9.50978C58.4061 10.1622 58.7524 11.0554 58.7524 12.1896V15.6221C58.7524 16.7763 58.4061 17.6896 57.7136 18.3621C57.021 19.0245 56.0776 19.3557 54.8832 19.3557ZM54.8832 16.9319C55.2044 16.9319 55.4553 16.8315 55.636 16.6308C55.8267 16.42 55.922 16.134 55.922 15.7726V12.0992C55.922 11.7379 55.8267 11.4569 55.636 11.2562C55.4553 11.0454 55.2044 10.94 54.8832 10.94C54.5621 10.94 54.3112 11.0454 54.1305 11.2562C53.9498 11.4569 53.8595 11.7379 53.8595 12.0992V15.7726C53.8595 16.134 53.9498 16.42 54.1305 16.6308C54.3112 16.8315 54.5621 16.9319 54.8832 16.9319ZM63.5134 19.3557C62.319 19.3557 61.3756 19.0245 60.683 18.3621C60.0006 17.6997 59.6593 16.7863 59.6593 15.6221V12.1896C59.6593 11.0554 60.0006 10.1622 60.683 9.50978C61.3756 8.84736 62.319 8.51615 63.5134 8.51615C64.7077 8.51615 65.6512 8.84736 66.3437 9.50978C67.0362 10.1622 67.3825 11.0554 67.3825 12.1896V15.6221C67.3825 16.7763 67.0362 17.6896 66.3437 18.3621C65.6512 19.0245 64.7077 19.3557 63.5134 19.3557ZM63.5134 16.9319C63.8345 16.9319 64.0855 16.8315 64.2661 16.6308C64.4568 16.42 64.5522 16.134 64.5522 15.7726V12.0992C64.5522 11.7379 64.4568 11.4569 64.2661 11.2562C64.0855 11.0454 63.8345 10.94 63.5134 10.94C63.1922 10.94 62.9413 11.0454 62.7606 11.2562C62.58 11.4569 62.4896 11.7379 62.4896 12.0992V15.7726C62.4896 16.134 62.58 16.42 62.7606 16.6308C62.9413 16.8315 63.1922 16.9319 63.5134 16.9319ZM69.7799 8.69681C69.8602 8.65667 69.9555 8.63659 70.0659 8.63659H72.5199C72.5901 8.63659 72.6453 8.65667 72.6855 8.69681C72.7256 8.73696 72.7457 8.79216 72.7457 8.86242V18.9492C72.7457 19.0195 72.7256 19.0747 72.6855 19.1148C72.6453 19.155 72.5901 19.175 72.5199 19.175H70.1412C70.0709 19.175 70.0157 19.155 69.9756 19.1148C69.9354 19.0747 69.9154 19.0195 69.9154 18.9492V11.2863C69.9154 11.2662 69.9053 11.2461 69.8853 11.226C69.8752 11.206 69.8602 11.2009 69.8401 11.211L68.4099 11.497H68.3497C68.2292 11.497 68.169 11.4268 68.169 11.2863V9.55494C68.169 9.41443 68.2292 9.3241 68.3497 9.28395L69.7799 8.69681Z" fill="#A0AEC0"/>
<defs>
<clipPath id="clip0_2619_19658">
<rect width="30.1" height="24.7365" fill="white" transform="translate(0.264099 1.92505)"/>
</clipPath>
</defs>
</svg>
