<svg width="60" height="29" viewBox="0 0 60 29" fill="none" xmlns="http://www.w3.org/2000/svg">
<path d="M11.6001 1.3252L0.214111 5.46615V14.67C0.214111 25.0701 11.2628 27.899 11.374 27.9268L11.6001 27.9815L11.8262 27.9268C11.9374 27.899 22.9861 25.0701 22.9861 14.67V5.46615L11.6001 1.3252ZM21.0885 14.67C21.0885 22.9047 13.1095 25.5881 11.6038 26.0208C10.1519 25.5909 2.11178 22.8343 2.11178 14.67V6.79489L11.6001 3.34517L21.0885 6.79489V14.67Z" fill="#A0AEC0"/>
<path d="M6.5781 13.9992L5.23639 15.3409L9.70258 19.8071L17.9641 11.5456L16.6224 10.2039L9.70258 17.1237L6.5781 13.9992Z" fill="#A0AEC0"/>
<path d="M29.8893 11.0805C29.2042 11.0805 28.607 10.9707 28.0975 10.7511C27.5881 10.5316 27.1929 10.2241 26.9118 9.82891C26.6395 9.43367 26.5034 8.96816 26.5034 8.43239V8.10303C26.5034 8.05911 26.5166 8.02398 26.5429 7.99763C26.5781 7.9625 26.6176 7.94493 26.6615 7.94493H27.834C27.878 7.94493 27.9131 7.9625 27.9394 7.99763C27.9746 8.02398 27.9921 8.05911 27.9921 8.10303V8.35335C27.9921 8.75737 28.1722 9.09552 28.5323 9.36779C28.8924 9.63129 29.3843 9.76303 30.0079 9.76303C30.5436 9.76303 30.9476 9.64885 31.2199 9.42049C31.4922 9.19213 31.6283 8.8979 31.6283 8.53779C31.6283 8.29187 31.5537 8.08546 31.4044 7.91858C31.2551 7.74292 31.0399 7.58483 30.7588 7.4443C30.4865 7.30377 30.0737 7.12811 29.5204 6.91731C28.8968 6.68895 28.3918 6.47377 28.0053 6.27176C27.6189 6.06974 27.2939 5.79747 27.0304 5.45493C26.7757 5.10361 26.6483 4.66884 26.6483 4.15064C26.6483 3.37773 26.9294 2.7673 27.4915 2.31937C28.0536 1.87143 28.8046 1.64746 29.7444 1.64746C30.4031 1.64746 30.9828 1.76164 31.4834 1.99C31.9928 2.21836 32.3881 2.53894 32.6691 2.95175C32.9502 3.35577 33.0907 3.82567 33.0907 4.36143V4.5854C33.0907 4.62932 33.0732 4.66884 33.038 4.70397C33.0117 4.73032 32.9765 4.7435 32.9326 4.7435H31.7469C31.703 4.7435 31.6635 4.73032 31.6283 4.70397C31.602 4.66884 31.5888 4.62932 31.5888 4.5854V4.44048C31.5888 4.02768 31.4175 3.68075 31.075 3.39969C30.7412 3.10984 30.2757 2.96492 29.6785 2.96492C29.1954 2.96492 28.8178 3.06593 28.5455 3.26794C28.282 3.46995 28.1502 3.7554 28.1502 4.12429C28.1502 4.38778 28.2205 4.60297 28.361 4.76985C28.5016 4.93673 28.7124 5.09043 28.9934 5.23096C29.2745 5.36271 29.7092 5.53398 30.2977 5.74477C30.9213 5.98191 31.4175 6.1971 31.7864 6.39033C32.1641 6.58356 32.4847 6.85583 32.7482 7.20715C33.0205 7.54969 33.1566 7.98007 33.1566 8.49827C33.1566 9.28875 32.8624 9.91674 32.2739 10.3822C31.6942 10.8477 30.8993 11.0805 29.8893 11.0805ZM37.818 11.1068C37.1593 11.1068 36.5752 10.9751 36.0658 10.7116C35.5564 10.4393 35.1612 10.0573 34.8801 9.56541C34.6078 9.07356 34.4717 8.50705 34.4717 7.86589V4.86207C34.4717 4.22969 34.6122 3.67196 34.8933 3.18889C35.1743 2.69704 35.5652 2.31937 36.0658 2.05587C36.5752 1.7836 37.1593 1.64746 37.818 1.64746C38.4856 1.64746 39.0696 1.7836 39.5703 2.05587C40.0797 2.31937 40.4749 2.69704 40.756 3.18889C41.037 3.67196 41.1776 4.22969 41.1776 4.86207V7.86589C41.1776 8.50705 41.037 9.07356 40.756 9.56541C40.4749 10.0573 40.0797 10.4393 39.5703 10.7116C39.0696 10.9751 38.4856 11.1068 37.818 11.1068ZM37.818 9.78938C38.3714 9.78938 38.8149 9.61811 39.1487 9.27557C39.4824 8.93303 39.6493 8.4807 39.6493 7.91858V4.8489C39.6493 4.278 39.4824 3.82127 39.1487 3.47873C38.8149 3.13619 38.3714 2.96492 37.818 2.96492C37.2735 2.96492 36.8343 3.13619 36.5006 3.47873C36.1668 3.82127 35.9999 4.278 35.9999 4.8489V7.91858C35.9999 8.4807 36.1668 8.93303 36.5006 9.27557C36.8343 9.61811 37.2735 9.78938 37.818 9.78938ZM45.9612 11.0805C45.3025 11.0805 44.7228 10.9531 44.2221 10.6984C43.7215 10.4349 43.3351 10.0704 43.0628 9.60494C42.7905 9.13943 42.6544 8.59927 42.6544 7.98446V4.73032C42.6544 4.11551 42.7905 3.57535 43.0628 3.10985C43.3351 2.64434 43.7215 2.28423 44.2221 2.02953C44.7228 1.77482 45.3025 1.64746 45.9612 1.64746C46.6111 1.64746 47.1864 1.77042 47.6871 2.01635C48.1877 2.26228 48.5742 2.60921 48.8464 3.05715C49.1187 3.50508 49.2549 4.02329 49.2549 4.61175C49.2549 4.65567 49.2373 4.69519 49.2022 4.73032C49.1758 4.75667 49.1407 4.76985 49.0968 4.76985L47.8847 4.83572C47.7793 4.83572 47.7266 4.78741 47.7266 4.6908C47.7266 4.1726 47.5641 3.7554 47.2391 3.43921C46.9229 3.12302 46.497 2.96492 45.9612 2.96492C45.4254 2.96492 44.9951 3.12302 44.6701 3.43921C44.3451 3.7554 44.1826 4.1726 44.1826 4.6908V8.05033C44.1826 8.55975 44.3451 8.97255 44.6701 9.28875C44.9951 9.60494 45.4254 9.76303 45.9612 9.76303C46.497 9.76303 46.9229 9.60933 47.2391 9.30192C47.5641 8.98573 47.7266 8.56853 47.7266 8.05033C47.7266 7.95372 47.7793 7.90541 47.8847 7.90541L49.0968 7.95811C49.1407 7.95811 49.1758 7.97128 49.2022 7.99763C49.2373 8.02398 49.2549 8.05472 49.2549 8.08985C49.2549 8.6871 49.1187 9.21409 48.8464 9.67081C48.5742 10.1187 48.1877 10.4657 47.6871 10.7116C47.1864 10.9575 46.6111 11.0805 45.9612 11.0805ZM55.2703 9.57859C55.2527 9.59615 55.244 9.61372 55.244 9.63129C55.2527 9.64885 55.2703 9.65763 55.2967 9.65763H59.0514C59.0953 9.65763 59.1305 9.6752 59.1568 9.71033C59.192 9.73668 59.2095 9.77181 59.2095 9.81573V10.817C59.2095 10.8609 59.192 10.9004 59.1568 10.9356C59.1305 10.9619 59.0953 10.9751 59.0514 10.9751H53.3863C53.3424 10.9751 53.3029 10.9619 53.2678 10.9356C53.2414 10.9004 53.2282 10.8609 53.2282 10.817V9.86843C53.2282 9.78938 53.2546 9.72351 53.3073 9.67081C53.9748 8.95938 54.7477 8.08546 55.626 7.04906L56.2452 6.32445C57.0533 5.38466 57.4573 4.67323 57.4573 4.19016C57.4573 3.83006 57.3299 3.53582 57.0752 3.30746C56.8205 3.0791 56.4912 2.96492 56.0871 2.96492C55.6831 2.96492 55.3537 3.0791 55.099 3.30746C54.8531 3.53582 54.7301 3.83884 54.7301 4.21651V4.55905C54.7301 4.60297 54.7126 4.64249 54.6775 4.67763C54.6511 4.70397 54.616 4.71715 54.5721 4.71715H53.3468C53.3029 4.71715 53.2634 4.70397 53.2282 4.67763C53.2019 4.64249 53.1887 4.60297 53.1887 4.55905V3.99254C53.2063 3.51826 53.3424 3.10545 53.5971 2.75413C53.8518 2.40281 54.1944 2.13053 54.6248 1.9373C55.0639 1.74408 55.5514 1.64746 56.0871 1.64746C56.6756 1.64746 57.1894 1.75725 57.6286 1.97683C58.0677 2.1964 58.4059 2.49942 58.643 2.88588C58.8802 3.26355 58.9987 3.68953 58.9987 4.16382C58.9987 4.88403 58.6167 5.71403 57.8525 6.65382C57.4309 7.1808 56.7371 7.97128 55.7709 9.02525L55.2703 9.57859ZM31.7587 12.3465C31.795 12.3465 31.8241 12.361 31.8459 12.3901C31.8749 12.4119 31.8895 12.441 31.8895 12.4773V13.3164C31.8895 13.3528 31.8749 13.3855 31.8459 13.4145C31.8241 13.4363 31.795 13.4472 31.7587 13.4472H29.7535C29.7171 13.4472 29.699 13.4654 29.699 13.5017V19.8443C29.699 19.8806 29.6844 19.9133 29.6554 19.9424C29.6336 19.9642 29.6045 19.9751 29.5682 19.9751H28.5656C28.5293 19.9751 28.4966 19.9642 28.4675 19.9424C28.4457 19.9133 28.4348 19.8806 28.4348 19.8443V13.5017C28.4348 13.4654 28.4166 13.4472 28.3803 13.4472H26.4514C26.4151 13.4472 26.3824 13.4363 26.3533 13.4145C26.3315 13.3855 26.3206 13.3528 26.3206 13.3164V12.4773C26.3206 12.441 26.3315 12.4119 26.3533 12.3901C26.3824 12.361 26.4151 12.3465 26.4514 12.3465H31.7587ZM35.0183 19.9642C34.982 19.9642 34.9493 19.9533 34.9202 19.9315C34.8984 19.9024 34.8875 19.8698 34.8875 19.8334V16.9128C34.8875 16.8837 34.8839 16.8619 34.8766 16.8474L32.6316 12.4991C32.6171 12.47 32.6098 12.4482 32.6098 12.4337C32.6098 12.3756 32.6498 12.3465 32.7297 12.3465H33.8086C33.8813 12.3465 33.9321 12.3792 33.9612 12.4446L35.4869 15.4851C35.5087 15.5142 35.5305 15.5142 35.5523 15.4851L37.0889 12.4446C37.1252 12.3792 37.1761 12.3465 37.2415 12.3465H38.3313C38.3821 12.3465 38.4148 12.361 38.4294 12.3901C38.4512 12.4192 38.4512 12.4555 38.4294 12.4991L36.1735 16.8474C36.159 16.8764 36.1517 16.8982 36.1517 16.9128V19.8334C36.1517 19.8698 36.1372 19.9024 36.1081 19.9315C36.0863 19.9533 36.0572 19.9642 36.0209 19.9642H35.0183ZM42.5471 12.3356C43.0048 12.3356 43.408 12.4301 43.7568 12.619C44.1055 12.8079 44.3743 13.0767 44.5632 13.4254C44.7594 13.7669 44.8575 14.1628 44.8575 14.6133C44.8575 15.0565 44.7594 15.4488 44.5632 15.7903C44.3671 16.1317 44.0873 16.3969 43.7241 16.5858C43.3681 16.7675 42.954 16.8583 42.4817 16.8583H40.738C40.7017 16.8583 40.6835 16.8764 40.6835 16.9128V19.8443C40.6835 19.8806 40.669 19.9133 40.64 19.9424C40.6182 19.9642 40.5891 19.9751 40.5528 19.9751H39.5502C39.5138 19.9751 39.4811 19.9642 39.4521 19.9424C39.4303 19.9133 39.4194 19.8806 39.4194 19.8443V12.4664C39.4194 12.4301 39.4303 12.401 39.4521 12.3792C39.4811 12.3501 39.5138 12.3356 39.5502 12.3356H42.5471ZM42.3618 15.8339C42.7324 15.8339 43.0302 15.7249 43.2555 15.5069C43.4807 15.289 43.5933 15.002 43.5933 14.646C43.5933 14.2827 43.4807 13.9885 43.2555 13.7633C43.0302 13.538 42.7324 13.4254 42.3618 13.4254H40.738C40.7017 13.4254 40.6835 13.4436 40.6835 13.4799V15.7794C40.6835 15.8157 40.7017 15.8339 40.738 15.8339H42.3618ZM51.1317 13.3055C51.1317 13.3419 51.1172 13.3746 51.0881 13.4036C51.0663 13.4254 51.0373 13.4363 51.0009 13.4363H47.2847C47.2484 13.4363 47.2302 13.4545 47.2302 13.4908V15.5287C47.2302 15.565 47.2484 15.5832 47.2847 15.5832H49.7804C49.8167 15.5832 49.8458 15.5977 49.8676 15.6268C49.8966 15.6486 49.9111 15.6777 49.9111 15.714V16.5422C49.9111 16.5786 49.8966 16.6113 49.8676 16.6403C49.8458 16.6621 49.8167 16.673 49.7804 16.673H47.2847C47.2484 16.673 47.2302 16.6912 47.2302 16.7275V18.8308C47.2302 18.8671 47.2484 18.8853 47.2847 18.8853H51.0009C51.0373 18.8853 51.0663 18.8998 51.0881 18.9289C51.1172 18.9507 51.1317 18.9797 51.1317 19.0161V19.8443C51.1317 19.8806 51.1172 19.9133 51.0881 19.9424C51.0663 19.9642 51.0373 19.9751 51.0009 19.9751H46.0969C46.0605 19.9751 46.0278 19.9642 45.9988 19.9424C45.977 19.9133 45.9661 19.8806 45.9661 19.8443V12.4773C45.9661 12.441 45.977 12.4119 45.9988 12.3901C46.0278 12.361 46.0605 12.3465 46.0969 12.3465H51.0009C51.0373 12.3465 51.0663 12.361 51.0881 12.3901C51.1172 12.4119 51.1317 12.441 51.1317 12.4773V13.3055ZM54.728 19.9751C54.6916 19.9751 54.6589 19.9642 54.6299 19.9424C54.6081 19.9133 54.5972 19.8806 54.5972 19.8443V12.4773C54.5972 12.441 54.6081 12.4119 54.6299 12.3901C54.6589 12.361 54.6916 12.3465 54.728 12.3465H55.7306C55.7669 12.3465 55.796 12.361 55.8178 12.3901C55.8468 12.4119 55.8614 12.441 55.8614 12.4773V19.8443C55.8614 19.8806 55.8468 19.9133 55.8178 19.9424C55.796 19.9642 55.7669 19.9751 55.7306 19.9751H54.728ZM57.5802 19.9751C57.5438 19.9751 57.5112 19.9642 57.4821 19.9424C57.4603 19.9133 57.4494 19.8806 57.4494 19.8443V12.4773C57.4494 12.441 57.4603 12.4119 57.4821 12.3901C57.5112 12.361 57.5438 12.3465 57.5802 12.3465H58.5828C58.6191 12.3465 58.6482 12.361 58.67 12.3901C58.699 12.4119 58.7136 12.441 58.7136 12.4773V19.8443C58.7136 19.8806 58.699 19.9133 58.67 19.9424C58.6482 19.9642 58.6191 19.9751 58.5828 19.9751H57.5802Z" fill="#A0AEC0"/>
<path d="M28.7603 28.4209C28.4736 28.4209 28.2213 28.3654 28.0034 28.2546C27.7856 28.1399 27.6174 27.9813 27.4989 27.7787C27.3804 27.5761 27.3211 27.341 27.3211 27.0735V25.6573C27.3211 25.3897 27.3804 25.1546 27.4989 24.952C27.6174 24.7495 27.7856 24.5927 28.0034 24.4819C28.2213 24.371 28.4736 24.3156 28.7603 24.3156C29.0431 24.3156 29.2935 24.3691 29.5114 24.4762C29.7293 24.5832 29.8974 24.7342 30.0159 24.9291C30.1344 25.1241 30.1937 25.3496 30.1937 25.6057C30.1937 25.6248 30.186 25.642 30.1707 25.6573C30.1593 25.6687 30.144 25.6745 30.1249 25.6745L29.5974 25.7031C29.5515 25.7031 29.5286 25.6821 29.5286 25.6401C29.5286 25.4146 29.4579 25.233 29.3164 25.0954C29.1788 24.9578 28.9934 24.889 28.7603 24.889C28.5271 24.889 28.3398 24.9578 28.1984 25.0954C28.057 25.233 27.9862 25.4146 27.9862 25.6401V27.1021C27.9862 27.3238 28.057 27.5035 28.1984 27.6411C28.3398 27.7787 28.5271 27.8475 28.7603 27.8475C28.9934 27.8475 29.1788 27.7806 29.3164 27.6468C29.4579 27.5092 29.5286 27.3277 29.5286 27.1021C29.5286 27.0601 29.5515 27.0391 29.5974 27.0391L30.1249 27.062C30.144 27.062 30.1593 27.0677 30.1707 27.0792C30.186 27.0907 30.1937 27.1041 30.1937 27.1193C30.1937 27.3793 30.1344 27.6086 30.0159 27.8074C29.8974 28.0023 29.7293 28.1533 29.5114 28.2603C29.2935 28.3674 29.0431 28.4209 28.7603 28.4209ZM34.3127 24.866C34.3127 24.8852 34.305 24.9024 34.2897 24.9176C34.2783 24.9291 34.263 24.9348 34.2439 24.9348H32.2887C32.2696 24.9348 32.26 24.9444 32.26 24.9635V26.0357C32.26 26.0548 32.2696 26.0644 32.2887 26.0644H33.6017C33.6208 26.0644 33.6361 26.072 33.6476 26.0873C33.6629 26.0988 33.6705 26.1141 33.6705 26.1332V26.5689C33.6705 26.588 33.6629 26.6052 33.6476 26.6205C33.6361 26.632 33.6208 26.6377 33.6017 26.6377H32.2887C32.2696 26.6377 32.26 26.6473 32.26 26.6664V27.773C32.26 27.7921 32.2696 27.8016 32.2887 27.8016H34.2439C34.263 27.8016 34.2783 27.8093 34.2897 27.8246C34.305 27.836 34.3127 27.8513 34.3127 27.8704V28.3062C34.3127 28.3253 34.305 28.3425 34.2897 28.3578C34.2783 28.3693 34.263 28.375 34.2439 28.375H31.6638C31.6446 28.375 31.6274 28.3693 31.6122 28.3578C31.6007 28.3425 31.595 28.3253 31.595 28.3062V24.4303C31.595 24.4112 31.6007 24.3959 31.6122 24.3844C31.6274 24.3691 31.6446 24.3615 31.6638 24.3615H34.2439C34.263 24.3615 34.2783 24.3691 34.2897 24.3844C34.305 24.3959 34.3127 24.4112 34.3127 24.4303V24.866ZM37.9294 28.375C37.8912 28.375 37.8644 28.3578 37.8491 28.3234L37.0923 26.6721C37.0847 26.6568 37.0732 26.6492 37.0579 26.6492H36.3699C36.3508 26.6492 36.3412 26.6587 36.3412 26.6779V28.3062C36.3412 28.3253 36.3336 28.3425 36.3183 28.3578C36.3068 28.3693 36.2915 28.375 36.2724 28.375H35.7449C35.7258 28.375 35.7086 28.3693 35.6933 28.3578C35.6818 28.3425 35.6761 28.3253 35.6761 28.3062V24.4303C35.6761 24.4112 35.6818 24.3959 35.6933 24.3844C35.7086 24.3691 35.7258 24.3615 35.7449 24.3615H37.3216C37.5548 24.3615 37.7612 24.4112 37.9409 24.5106C38.1205 24.6061 38.26 24.7437 38.3594 24.9234C38.4588 25.0992 38.5085 25.3018 38.5085 25.5311C38.5085 25.7949 38.4397 26.0204 38.3021 26.2077C38.1683 26.3912 37.981 26.5192 37.7402 26.5919C37.7326 26.5919 37.7268 26.5957 37.723 26.6033C37.7192 26.611 37.7192 26.6186 37.723 26.6263L38.5314 28.2947C38.5391 28.31 38.5429 28.3215 38.5429 28.3291C38.5429 28.3597 38.5219 28.375 38.4798 28.375H37.9294ZM36.3699 24.9348C36.3508 24.9348 36.3412 24.9444 36.3412 24.9635V26.1045C36.3412 26.1236 36.3508 26.1332 36.3699 26.1332H37.2299C37.4134 26.1332 37.5605 26.0797 37.6714 25.9726C37.7861 25.8618 37.8434 25.7165 37.8434 25.5369C37.8434 25.3572 37.7861 25.212 37.6714 25.1011C37.5605 24.9903 37.4134 24.9348 37.2299 24.9348H36.3699ZM42.5123 24.3615C42.5314 24.3615 42.5467 24.3691 42.5582 24.3844C42.5734 24.3959 42.5811 24.4112 42.5811 24.4303V24.8718C42.5811 24.8909 42.5734 24.9081 42.5582 24.9234C42.5467 24.9348 42.5314 24.9406 42.5123 24.9406H41.4573C41.4382 24.9406 41.4286 24.9501 41.4286 24.9692V28.3062C41.4286 28.3253 41.421 28.3425 41.4057 28.3578C41.3942 28.3693 41.379 28.375 41.3598 28.375H40.8323C40.8132 28.375 40.796 28.3693 40.7807 28.3578C40.7693 28.3425 40.7635 28.3253 40.7635 28.3062V24.9692C40.7635 24.9501 40.754 24.9406 40.7349 24.9406H39.72C39.7009 24.9406 39.6837 24.9348 39.6684 24.9234C39.657 24.9081 39.6512 24.8909 39.6512 24.8718V24.4303C39.6512 24.4112 39.657 24.3959 39.6684 24.3844C39.6837 24.3691 39.7009 24.3615 39.72 24.3615H42.5123ZM43.952 28.375C43.9329 28.375 43.9157 28.3693 43.9004 28.3578C43.8889 28.3425 43.8832 28.3253 43.8832 28.3062V24.4303C43.8832 24.4112 43.8889 24.3959 43.9004 24.3844C43.9157 24.3691 43.9329 24.3615 43.952 24.3615H44.4795C44.4986 24.3615 44.5139 24.3691 44.5254 24.3844C44.5407 24.3959 44.5483 24.4112 44.5483 24.4303V28.3062C44.5483 28.3253 44.5407 28.3425 44.5254 28.3578C44.5139 28.3693 44.4986 28.375 44.4795 28.375H43.952ZM48.7838 24.866C48.7838 24.8852 48.7762 24.9024 48.7609 24.9176C48.7494 24.9291 48.7341 24.9348 48.715 24.9348H46.7656C46.7465 24.9348 46.7369 24.9444 46.7369 24.9635V26.0357C46.7369 26.0548 46.7465 26.0644 46.7656 26.0644H48.0786C48.0977 26.0644 48.113 26.072 48.1244 26.0873C48.1397 26.0988 48.1474 26.1141 48.1474 26.1332V26.5689C48.1474 26.588 48.1397 26.6052 48.1244 26.6205C48.113 26.632 48.0977 26.6377 48.0786 26.6377H46.7656C46.7465 26.6377 46.7369 26.6473 46.7369 26.6664V28.3062C46.7369 28.3253 46.7293 28.3425 46.714 28.3578C46.7025 28.3693 46.6872 28.375 46.6681 28.375H46.1406C46.1215 28.375 46.1043 28.3693 46.089 28.3578C46.0776 28.3425 46.0718 28.3253 46.0718 28.3062V24.4303C46.0718 24.4112 46.0776 24.3959 46.089 24.3844C46.1043 24.3691 46.1215 24.3615 46.1406 24.3615H48.715C48.7341 24.3615 48.7494 24.3691 48.7609 24.3844C48.7762 24.3959 48.7838 24.4112 48.7838 24.4303V24.866ZM50.0594 28.375C50.0403 28.375 50.0231 28.3693 50.0078 28.3578C49.9963 28.3425 49.9906 28.3253 49.9906 28.3062V24.4303C49.9906 24.4112 49.9963 24.3959 50.0078 24.3844C50.0231 24.3691 50.0403 24.3615 50.0594 24.3615H50.5869C50.606 24.3615 50.6213 24.3691 50.6328 24.3844C50.648 24.3959 50.6557 24.4112 50.6557 24.4303V28.3062C50.6557 28.3253 50.648 28.3425 50.6328 28.3578C50.6213 28.3693 50.606 28.375 50.5869 28.375H50.0594ZM54.8969 24.866C54.8969 24.8852 54.8893 24.9024 54.874 24.9176C54.8625 24.9291 54.8472 24.9348 54.8281 24.9348H52.873C52.8539 24.9348 52.8443 24.9444 52.8443 24.9635V26.0357C52.8443 26.0548 52.8539 26.0644 52.873 26.0644H54.186C54.2051 26.0644 54.2204 26.072 54.2318 26.0873C54.2471 26.0988 54.2548 26.1141 54.2548 26.1332V26.5689C54.2548 26.588 54.2471 26.6052 54.2318 26.6205C54.2204 26.632 54.2051 26.6377 54.186 26.6377H52.873C52.8539 26.6377 52.8443 26.6473 52.8443 26.6664V27.773C52.8443 27.7921 52.8539 27.8016 52.873 27.8016H54.8281C54.8472 27.8016 54.8625 27.8093 54.874 27.8246C54.8893 27.836 54.8969 27.8513 54.8969 27.8704V28.3062C54.8969 28.3253 54.8893 28.3425 54.874 28.3578C54.8625 28.3693 54.8472 28.375 54.8281 28.375H52.248C52.2289 28.375 52.2117 28.3693 52.1964 28.3578C52.1849 28.3425 52.1792 28.3253 52.1792 28.3062V24.4303C52.1792 24.4112 52.1849 24.3959 52.1964 24.3844C52.2117 24.3691 52.2289 24.3615 52.248 24.3615H54.8281C54.8472 24.3615 54.8625 24.3691 54.874 24.3844C54.8893 24.3959 54.8969 24.4112 54.8969 24.4303V24.866ZM56.3292 28.375C56.3101 28.375 56.2929 28.3693 56.2776 28.3578C56.2661 28.3425 56.2604 28.3253 56.2604 28.3062V24.4303C56.2604 24.4112 56.2661 24.3959 56.2776 24.3844C56.2929 24.3691 56.3101 24.3615 56.3292 24.3615H57.7282C57.9996 24.3615 58.2385 24.4093 58.4449 24.5048C58.6513 24.6004 58.8099 24.738 58.9208 24.9176C59.0354 25.0935 59.0928 25.2999 59.0928 25.5369V27.1996C59.0928 27.4366 59.0354 27.6449 58.9208 27.8246C58.8099 28.0004 58.6513 28.1361 58.4449 28.2317C58.2385 28.3272 57.9996 28.375 57.7282 28.375H56.3292ZM56.9255 27.773C56.9255 27.7921 56.935 27.8016 56.9541 27.8016H57.7568C57.9594 27.8016 58.12 27.7386 58.2385 27.6124C58.3608 27.4825 58.4238 27.3105 58.4277 27.0964V25.6458C58.4277 25.4279 58.3665 25.2559 58.2442 25.1298C58.1219 24.9998 57.9575 24.9348 57.7511 24.9348H56.9541C56.935 24.9348 56.9255 24.9444 56.9255 24.9635V27.773Z" fill="#A0AEC0"/>
<line x1="27.0001" y1="21.8001" x2="59.5501" y2="21.8001" stroke="#A0AEC0" stroke-width="0.35"/>
</svg>
