<svg xmlns="http://www.w3.org/2000/svg" width="42" height="26" fill="none" viewBox="0 0 42 26"><g clip-path="url(#a)"><path fill="#252f3e" d="M11.696 9.87c0 .517.07.93.138 1.24.104.31.241.62.448 1a.56.56 0 0 1 .104.31c0 .137-.07.275-.276.413l-.862.586c-.138.069-.241.138-.345.138q-.207 0-.414-.207a3 3 0 0 1-.482-.655 6 6 0 0 1-.414-.827c-1.07 1.275-2.414 1.895-4.069 1.895-1.172 0-2.069-.344-2.758-.999-.69-.654-1.035-1.55-1.035-2.653 0-1.172.414-2.136 1.242-2.826.827-.689 1.965-1.068 3.379-1.068q.723 0 1.448.104c.517.068 1.034.172 1.586.31v-1c0-1.033-.207-1.791-.655-2.205-.448-.413-1.173-.62-2.241-.62-.483 0-.966.069-1.483.172-.517.138-1 .276-1.483.483-.207.068-.38.137-.483.172-.103 0-.172.034-.206.034-.207 0-.276-.138-.276-.413v-.69c0-.206.034-.378.103-.482a.84.84 0 0 1 .38-.275c.482-.242 1.068-.448 1.724-.62A8.7 8.7 0 0 1 6.903.91c1.655 0 2.828.379 3.62 1.102.76.758 1.139 1.861 1.139 3.412zM6.11 11.972c.449 0 .931-.07 1.414-.242a3.3 3.3 0 0 0 1.31-.896c.207-.275.38-.55.483-.895.069-.345.138-.724.138-1.206v-.586a14 14 0 0 0-1.276-.241c-.448-.07-.862-.07-1.31-.07-.931 0-1.586.173-2.069.552-.448.379-.69.896-.69 1.585q0 .982.518 1.447c.344.414.827.552 1.482.552m11.069 1.516c-.242 0-.414-.035-.518-.138-.103-.069-.207-.276-.276-.551l-3.24-10.682c-.07-.276-.139-.448-.139-.552 0-.206.104-.344.345-.344h1.345c.276 0 .448.034.552.138.103.069.207.275.276.55l2.31 9.132 2.138-9.131c.069-.276.137-.448.275-.551.104-.07.31-.138.552-.138h1.104c.275 0 .448.034.551.138.104.069.207.275.276.55l2.172 9.236 2.38-9.235c.068-.276.172-.448.275-.551.104-.07.276-.138.552-.138h1.276c.207 0 .345.103.345.344 0 .07 0 .138-.035.207a.9.9 0 0 1-.103.345l-3.345 10.682c-.069.275-.172.448-.276.551a.93.93 0 0 1-.517.138h-1.172c-.276 0-.449-.035-.552-.138s-.207-.276-.276-.551l-2.138-8.89-2.137 8.89c-.07.275-.138.448-.276.551-.104.103-.31.138-.552.138zm17.757.344a9 9 0 0 1-2.138-.24c-.69-.173-1.24-.345-1.586-.552-.207-.138-.379-.276-.413-.38-.035-.103-.104-.275-.104-.378v-.69q0-.413.31-.413c.07 0 .173 0 .242.035.069.034.207.069.345.137.482.207.965.38 1.517.483a9 9 0 0 0 1.655.172c.862 0 1.551-.138 2-.448.482-.31.724-.758.724-1.31 0-.378-.138-.688-.38-.964-.24-.276-.724-.482-1.379-.724l-2-.62c-1-.31-1.758-.792-2.206-1.413-.449-.62-.69-1.275-.69-1.998 0-.586.138-1.103.38-1.516a3.9 3.9 0 0 1 1-1.138q.62-.464 1.447-.723A5.8 5.8 0 0 1 35.385.91c.31 0 .62 0 .93.069.31.034.621.103.897.137.276.07.552.138.793.207.241.07.448.172.586.241.207.104.345.207.414.345a.86.86 0 0 1 .138.448v.655c0 .275-.104.448-.31.448-.104 0-.276-.07-.518-.173a6.5 6.5 0 0 0-2.655-.551c-.793 0-1.413.138-1.827.379s-.655.655-.655 1.24c0 .38.138.724.414.965.275.276.793.517 1.517.758l1.965.62c1 .31 1.724.759 2.138 1.31s.62 1.206.62 1.93c0 .585-.137 1.137-.344 1.585a3.4 3.4 0 0 1-1 1.206c-.414.344-.931.585-1.517.758-.69.275-1.345.344-2.035.344"/><path fill="#f90" fill-rule="evenodd" d="M37.561 20.552c-4.551 3.343-11.172 5.134-16.827 5.134-7.965 0-15.137-2.929-20.55-7.822-.414-.379-.035-.896.483-.62 5.861 3.411 13.068 5.444 20.55 5.444 5.034 0 10.586-1.033 15.689-3.204.724-.31 1.38.517.655 1.068" clip-rule="evenodd"/><path fill="#f90" fill-rule="evenodd" d="M39.427 18.415c-.586-.758-3.827-.344-5.31-.172-.448.07-.517-.344-.103-.62 2.586-1.826 6.861-1.31 7.344-.69s-.138 4.894-2.552 6.927c-.379.31-.724.138-.551-.276.551-1.378 1.758-4.445 1.172-5.169" clip-rule="evenodd"/><path fill="#3a3b3c" d="M11.696 9.87c0 .517.07.93.138 1.24.104.31.241.62.448 1a.56.56 0 0 1 .104.31c0 .137-.07.275-.276.413l-.862.586c-.138.069-.241.138-.345.138q-.207 0-.414-.207a3 3 0 0 1-.482-.655 6 6 0 0 1-.414-.827c-1.07 1.275-2.414 1.895-4.069 1.895-1.172 0-2.069-.344-2.758-.999-.69-.654-1.035-1.55-1.035-2.653 0-1.172.414-2.136 1.242-2.826.827-.689 1.965-1.068 3.379-1.068q.723 0 1.448.104c.517.068 1.034.172 1.586.31v-1c0-1.033-.207-1.791-.655-2.205-.448-.413-1.173-.62-2.241-.62-.483 0-.966.069-1.483.172-.517.138-1 .276-1.483.483-.207.068-.38.137-.483.172-.103 0-.172.034-.206.034-.207 0-.276-.138-.276-.413v-.69c0-.206.034-.378.103-.482a.84.84 0 0 1 .38-.275c.482-.242 1.068-.448 1.724-.62A8.7 8.7 0 0 1 6.903.91c1.655 0 2.828.379 3.62 1.102.76.758 1.139 1.861 1.139 3.412zM6.11 11.972c.449 0 .931-.07 1.414-.242a3.3 3.3 0 0 0 1.31-.896c.207-.275.38-.55.483-.895.069-.345.138-.724.138-1.206v-.586a14 14 0 0 0-1.276-.241c-.448-.07-.862-.07-1.31-.07-.931 0-1.586.173-2.069.552-.448.379-.69.896-.69 1.585q0 .982.518 1.447c.344.414.827.552 1.482.552m11.069 1.516c-.242 0-.414-.035-.518-.138-.103-.069-.207-.276-.276-.551l-3.24-10.682c-.07-.276-.139-.448-.139-.552 0-.206.104-.344.345-.344h1.345c.276 0 .448.034.552.138.103.069.207.275.276.55l2.31 9.132 2.138-9.131c.069-.276.137-.448.275-.551.104-.07.31-.138.552-.138h1.104c.275 0 .448.034.551.138.104.069.207.275.276.55l2.172 9.236 2.38-9.235c.068-.276.172-.448.275-.551.104-.07.276-.138.552-.138h1.276c.207 0 .345.103.345.344 0 .07 0 .138-.035.207a.9.9 0 0 1-.103.345l-3.345 10.682c-.069.275-.172.448-.276.551a.93.93 0 0 1-.517.138h-1.172c-.276 0-.449-.035-.552-.138s-.207-.276-.276-.551l-2.138-8.89-2.137 8.89c-.07.275-.138.448-.276.551-.104.103-.31.138-.552.138zm17.757.344a9 9 0 0 1-2.138-.24c-.69-.173-1.24-.345-1.586-.552-.207-.138-.379-.276-.413-.38-.035-.103-.104-.275-.104-.378v-.69q0-.413.31-.413c.07 0 .173 0 .242.035.069.034.207.069.345.137.482.207.965.38 1.517.483a9 9 0 0 0 1.655.172c.862 0 1.551-.138 2-.448.482-.31.724-.758.724-1.31 0-.378-.138-.688-.38-.964-.24-.276-.724-.482-1.379-.724l-2-.62c-1-.31-1.758-.792-2.206-1.413-.449-.62-.69-1.275-.69-1.998 0-.586.138-1.103.38-1.516a3.9 3.9 0 0 1 1-1.138q.62-.464 1.447-.723A5.8 5.8 0 0 1 35.385.91c.31 0 .62 0 .93.069.31.034.621.103.897.137.276.07.552.138.793.207.241.07.448.172.586.241.207.104.345.207.414.345a.86.86 0 0 1 .138.448v.655c0 .275-.104.448-.31.448-.104 0-.276-.07-.518-.173a6.5 6.5 0 0 0-2.655-.551c-.793 0-1.413.138-1.827.379s-.655.655-.655 1.24c0 .38.138.724.414.965.275.276.793.517 1.517.758l1.965.62c1 .31 1.724.759 2.138 1.31s.62 1.206.62 1.93c0 .585-.137 1.137-.344 1.585a3.4 3.4 0 0 1-1 1.206c-.414.344-.931.585-1.517.758-.69.275-1.345.344-2.035.344"/><path fill="#f90" fill-rule="evenodd" d="M37.561 20.552c-4.551 3.343-11.172 5.134-16.827 5.134-7.965 0-15.137-2.929-20.55-7.822-.414-.379-.035-.896.483-.62 5.861 3.411 13.068 5.444 20.55 5.444 5.034 0 10.586-1.033 15.689-3.204.724-.31 1.38.517.655 1.068" clip-rule="evenodd"/><path fill="#f90" fill-rule="evenodd" d="M39.427 18.415c-.586-.758-3.827-.344-5.31-.172-.448.07-.517-.344-.103-.62 2.586-1.826 6.861-1.31 7.344-.69s-.138 4.894-2.552 6.927c-.379.31-.724.138-.551-.276.551-1.378 1.758-4.445 1.172-5.169" clip-rule="evenodd"/></g><defs><clipPath id="a"><path fill="#fff" d="M.005.876H41.52v24.81H.005z"/></clipPath></defs></svg>