<svg width="42" height="26" viewBox="0 0 42 26" fill="none" xmlns="http://www.w3.org/2000/svg">
<g clip-path="url(#clip0_3994_520)">
<path d="M11.6962 9.8697C11.6962 10.3866 11.7651 10.8001 11.8341 11.1102C11.9375 11.4203 12.0754 11.7304 12.2823 12.1095C12.3513 12.2128 12.3858 12.3162 12.3858 12.4196C12.3858 12.5574 12.3168 12.6953 12.1099 12.8331L11.2479 13.4189C11.11 13.4878 11.0065 13.5567 10.9031 13.5567C10.7652 13.5567 10.6273 13.4878 10.4893 13.35C10.2824 13.1432 10.1445 12.9365 10.0066 12.6953C9.86867 12.454 9.73075 12.2128 9.59283 11.8683C8.52392 13.1432 7.17917 13.7634 5.52409 13.7634C4.35174 13.7634 3.45524 13.4189 2.76563 12.7642C2.07601 12.1095 1.7312 11.2136 1.7312 10.1109C1.7312 8.93934 2.14497 7.97452 2.97251 7.28536C3.80005 6.5962 4.93792 6.21716 6.35163 6.21716C6.83436 6.21716 7.31709 6.25162 7.79982 6.32054C8.31704 6.38945 8.83425 6.49283 9.38594 6.63066V5.63138C9.38594 4.59764 9.17906 3.83957 8.73081 3.42607C8.28256 3.01258 7.55846 2.80583 6.48955 2.80583C6.00682 2.80583 5.52409 2.87475 5.00688 2.97812C4.48967 3.11595 4.00693 3.25378 3.5242 3.46053C3.31732 3.52945 3.14491 3.59836 3.04147 3.63282C2.93803 3.63282 2.86907 3.66728 2.83459 3.66728C2.6277 3.66728 2.55874 3.52945 2.55874 3.25378V2.56462C2.55874 2.35788 2.59322 2.18559 2.66218 2.08221C2.73114 1.97884 2.86907 1.87547 3.04147 1.80655C3.5242 1.56534 4.11038 1.3586 4.76551 1.18631C5.45513 1.01402 6.14475 0.910645 6.90332 0.910645C8.5584 0.910645 9.73075 1.28968 10.5238 2.0133C11.2824 2.77137 11.6617 3.87403 11.6617 5.42463L11.6962 9.8697ZM6.11026 11.9716C6.55852 11.9716 7.04125 11.9027 7.52398 11.7304C8.00671 11.5581 8.45496 11.248 8.83425 10.8345C9.04113 10.5589 9.21354 10.2832 9.31698 9.93862C9.38594 9.59404 9.4549 9.215 9.4549 8.73259V8.14681C9.04113 8.04343 8.62736 7.97452 8.17911 7.9056C7.73086 7.83669 7.31709 7.83669 6.86884 7.83669C5.93786 7.83669 5.28272 8.00897 4.79999 8.38801C4.35174 8.76705 4.11038 9.28392 4.11038 9.97308C4.11038 10.6278 4.28278 11.1102 4.62759 11.4203C4.9724 11.8338 5.45513 11.9716 6.11026 11.9716ZM17.1786 13.4878C16.9372 13.4878 16.7648 13.4533 16.6614 13.35C16.558 13.281 16.4545 13.0743 16.3855 12.7986L13.1443 2.11667C13.0754 1.84101 13.0064 1.66872 13.0064 1.56534C13.0064 1.3586 13.1099 1.22077 13.3512 1.22077H14.696C14.9718 1.22077 15.1442 1.25522 15.2477 1.3586C15.3511 1.42751 15.4546 1.63426 15.5235 1.90992L17.8337 11.0413L19.9716 1.90992C20.0405 1.63426 20.1095 1.46197 20.2474 1.3586C20.3508 1.28968 20.5577 1.22077 20.7991 1.22077H21.9025C22.1783 1.22077 22.3507 1.25522 22.4542 1.3586C22.5576 1.42751 22.6611 1.63426 22.73 1.90992L24.9023 11.1446L27.2815 1.90992C27.3504 1.63426 27.4539 1.46197 27.5573 1.3586C27.6608 1.28968 27.8332 1.22077 28.109 1.22077H29.3848C29.5917 1.22077 29.7296 1.32414 29.7296 1.56534C29.7296 1.63426 29.7296 1.70318 29.6951 1.77209C29.6951 1.84101 29.6607 1.97884 29.5917 2.11667L26.2471 12.7986C26.1781 13.0743 26.0747 13.2466 25.9712 13.35C25.8678 13.4189 25.6954 13.4878 25.454 13.4878H24.2817C24.0058 13.4878 23.8334 13.4533 23.73 13.35C23.6265 13.2466 23.5231 13.0743 23.4541 12.7986L21.3163 3.90848L19.1785 12.7986C19.1095 13.0743 19.0406 13.2466 18.9026 13.35C18.7992 13.4533 18.5923 13.4878 18.351 13.4878H17.1786ZM34.9362 13.8324C34.2121 13.8324 33.488 13.7634 32.7984 13.5912C32.1088 13.4189 31.5571 13.2466 31.2123 13.0398C31.0054 12.902 30.833 12.7642 30.7985 12.6608C30.764 12.5574 30.6951 12.3851 30.6951 12.2818V11.5926C30.6951 11.3169 30.7985 11.1791 31.0054 11.1791C31.0744 11.1791 31.1778 11.1791 31.2468 11.2136C31.3157 11.248 31.4537 11.2825 31.5916 11.3514C32.0743 11.5581 32.557 11.7304 33.1087 11.8338C33.6604 11.9372 34.2121 12.0061 34.7638 12.0061C35.6258 12.0061 36.3155 11.8683 36.7637 11.5581C37.2464 11.248 37.4878 10.8001 37.4878 10.2487C37.4878 9.8697 37.3499 9.55958 37.1085 9.28392C36.8671 9.00825 36.3844 8.80151 35.7293 8.5603L33.7294 7.94006C32.7295 7.62994 31.9709 7.14753 31.5226 6.52728C31.0744 5.90704 30.833 5.25234 30.833 4.52873C30.833 3.94294 30.9709 3.42607 31.2123 3.01258C31.4537 2.59908 31.7985 2.18559 32.2122 1.87547C32.626 1.56535 33.1087 1.32414 33.6604 1.15185C34.2121 0.97956 34.7983 0.910645 35.3845 0.910645C35.6948 0.910645 36.0051 0.910645 36.3155 0.97956C36.6258 1.01402 36.9361 1.08293 37.212 1.11739C37.4878 1.18631 37.7636 1.25522 38.005 1.32414C38.2464 1.39306 38.4533 1.49643 38.5912 1.56534C38.7981 1.66872 38.936 1.77209 39.005 1.90992C39.0739 2.0133 39.1429 2.18559 39.1429 2.35788V3.01258C39.1429 3.28824 39.0394 3.46053 38.8326 3.46053C38.7291 3.46053 38.5567 3.39161 38.3153 3.28824C37.5223 2.94366 36.6603 2.73691 35.6603 2.73691C34.8673 2.73691 34.2466 2.87475 33.8328 3.11595C33.4191 3.35716 33.1777 3.77065 33.1777 4.35644C33.1777 4.73547 33.3156 5.08005 33.5915 5.32126C33.8673 5.59692 34.3845 5.83813 35.1086 6.07933L37.074 6.69957C38.074 7.0097 38.7981 7.45765 39.2118 8.00898C39.6256 8.5603 39.8325 9.215 39.8325 9.93862C39.8325 10.5244 39.6946 11.0757 39.4877 11.5237C39.2463 12.0061 38.9015 12.4196 38.4877 12.7297C38.074 13.0743 37.5568 13.3155 36.9706 13.4878C36.281 13.7634 35.6258 13.8324 34.9362 13.8324Z" fill="#252F3E"/>
<path fill-rule="evenodd" clip-rule="evenodd" d="M37.561 20.552C33.0095 23.8945 26.3892 25.6863 20.7343 25.6863C12.7693 25.6863 5.59727 22.7573 0.18378 17.8643C-0.22999 17.4853 0.149299 16.9684 0.666512 17.2441C6.52825 20.6554 13.7347 22.6884 21.2171 22.6884C26.2513 22.6884 31.8027 21.6547 36.9058 19.4838C37.6299 19.1737 38.2851 20.0007 37.561 20.552Z" fill="#FF9900"/>
<path fill-rule="evenodd" clip-rule="evenodd" d="M39.427 18.4154C38.8408 17.6574 35.5996 18.0709 34.117 18.2432C33.6687 18.3121 33.5998 17.8986 34.0135 17.6229C36.5996 15.7966 40.8752 16.3135 41.3579 16.9338C41.8407 17.554 41.22 21.8268 38.8064 23.8598C38.4271 24.1699 38.0823 23.9976 38.2547 23.5841C38.8064 22.2058 40.0132 19.1391 39.427 18.4154Z" fill="#FF9900"/>
<path d="M11.6962 9.8697C11.6962 10.3866 11.7651 10.8001 11.8341 11.1102C11.9375 11.4203 12.0754 11.7304 12.2823 12.1095C12.3513 12.2128 12.3858 12.3162 12.3858 12.4196C12.3858 12.5574 12.3168 12.6953 12.1099 12.8331L11.2479 13.4189C11.11 13.4878 11.0065 13.5567 10.9031 13.5567C10.7652 13.5567 10.6273 13.4878 10.4893 13.35C10.2824 13.1432 10.1445 12.9365 10.0066 12.6953C9.86867 12.454 9.73075 12.2128 9.59283 11.8683C8.52392 13.1432 7.17917 13.7634 5.52409 13.7634C4.35174 13.7634 3.45524 13.4189 2.76563 12.7642C2.07601 12.1095 1.7312 11.2136 1.7312 10.1109C1.7312 8.93934 2.14497 7.97452 2.97251 7.28536C3.80005 6.5962 4.93792 6.21716 6.35163 6.21716C6.83436 6.21716 7.31709 6.25162 7.79982 6.32054C8.31704 6.38945 8.83425 6.49283 9.38594 6.63066V5.63138C9.38594 4.59764 9.17906 3.83957 8.73081 3.42607C8.28256 3.01258 7.55846 2.80583 6.48955 2.80583C6.00682 2.80583 5.52409 2.87475 5.00688 2.97812C4.48967 3.11595 4.00693 3.25378 3.5242 3.46053C3.31732 3.52945 3.14491 3.59836 3.04147 3.63282C2.93803 3.63282 2.86907 3.66728 2.83459 3.66728C2.6277 3.66728 2.55874 3.52945 2.55874 3.25378V2.56462C2.55874 2.35788 2.59322 2.18559 2.66218 2.08221C2.73114 1.97884 2.86907 1.87547 3.04147 1.80655C3.5242 1.56534 4.11038 1.3586 4.76551 1.18631C5.45513 1.01402 6.14475 0.910645 6.90332 0.910645C8.5584 0.910645 9.73075 1.28968 10.5238 2.0133C11.2824 2.77137 11.6617 3.87403 11.6617 5.42463L11.6962 9.8697ZM6.11026 11.9716C6.55852 11.9716 7.04125 11.9027 7.52398 11.7304C8.00671 11.5581 8.45496 11.248 8.83425 10.8345C9.04113 10.5589 9.21354 10.2832 9.31698 9.93862C9.38594 9.59404 9.4549 9.215 9.4549 8.73259V8.14681C9.04113 8.04343 8.62736 7.97452 8.17911 7.9056C7.73086 7.83669 7.31709 7.83669 6.86884 7.83669C5.93786 7.83669 5.28272 8.00897 4.79999 8.38801C4.35174 8.76705 4.11038 9.28392 4.11038 9.97308C4.11038 10.6278 4.28278 11.1102 4.62759 11.4203C4.9724 11.8338 5.45513 11.9716 6.11026 11.9716ZM17.1786 13.4878C16.9372 13.4878 16.7648 13.4533 16.6614 13.35C16.558 13.281 16.4545 13.0743 16.3855 12.7986L13.1443 2.11667C13.0754 1.84101 13.0064 1.66872 13.0064 1.56534C13.0064 1.3586 13.1099 1.22077 13.3512 1.22077H14.696C14.9718 1.22077 15.1442 1.25522 15.2477 1.3586C15.3511 1.42751 15.4546 1.63426 15.5235 1.90992L17.8337 11.0413L19.9716 1.90992C20.0405 1.63426 20.1095 1.46197 20.2474 1.3586C20.3508 1.28968 20.5577 1.22077 20.7991 1.22077H21.9025C22.1783 1.22077 22.3507 1.25522 22.4542 1.3586C22.5576 1.42751 22.6611 1.63426 22.73 1.90992L24.9023 11.1446L27.2815 1.90992C27.3504 1.63426 27.4539 1.46197 27.5573 1.3586C27.6608 1.28968 27.8332 1.22077 28.109 1.22077H29.3848C29.5917 1.22077 29.7296 1.32414 29.7296 1.56534C29.7296 1.63426 29.7296 1.70318 29.6951 1.77209C29.6951 1.84101 29.6607 1.97884 29.5917 2.11667L26.2471 12.7986C26.1781 13.0743 26.0747 13.2466 25.9712 13.35C25.8678 13.4189 25.6954 13.4878 25.454 13.4878H24.2817C24.0058 13.4878 23.8334 13.4533 23.73 13.35C23.6265 13.2466 23.5231 13.0743 23.4541 12.7986L21.3163 3.90848L19.1785 12.7986C19.1095 13.0743 19.0406 13.2466 18.9026 13.35C18.7992 13.4533 18.5923 13.4878 18.351 13.4878H17.1786ZM34.9362 13.8324C34.2121 13.8324 33.488 13.7634 32.7984 13.5912C32.1088 13.4189 31.5571 13.2466 31.2123 13.0398C31.0054 12.902 30.833 12.7642 30.7985 12.6608C30.764 12.5574 30.6951 12.3851 30.6951 12.2818V11.5926C30.6951 11.3169 30.7985 11.1791 31.0054 11.1791C31.0744 11.1791 31.1778 11.1791 31.2468 11.2136C31.3157 11.248 31.4537 11.2825 31.5916 11.3514C32.0743 11.5581 32.557 11.7304 33.1087 11.8338C33.6604 11.9372 34.2121 12.0061 34.7638 12.0061C35.6258 12.0061 36.3155 11.8683 36.7637 11.5581C37.2464 11.248 37.4878 10.8001 37.4878 10.2487C37.4878 9.8697 37.3499 9.55958 37.1085 9.28392C36.8671 9.00825 36.3844 8.80151 35.7293 8.5603L33.7294 7.94006C32.7295 7.62994 31.9709 7.14753 31.5226 6.52728C31.0744 5.90704 30.833 5.25234 30.833 4.52873C30.833 3.94294 30.9709 3.42607 31.2123 3.01258C31.4537 2.59908 31.7985 2.18559 32.2122 1.87547C32.626 1.56535 33.1087 1.32414 33.6604 1.15185C34.2121 0.97956 34.7983 0.910645 35.3845 0.910645C35.6948 0.910645 36.0051 0.910645 36.3155 0.97956C36.6258 1.01402 36.9361 1.08293 37.212 1.11739C37.4878 1.18631 37.7636 1.25522 38.005 1.32414C38.2464 1.39306 38.4533 1.49643 38.5912 1.56534C38.7981 1.66872 38.936 1.77209 39.005 1.90992C39.0739 2.0133 39.1429 2.18559 39.1429 2.35788V3.01258C39.1429 3.28824 39.0394 3.46053 38.8326 3.46053C38.7291 3.46053 38.5567 3.39161 38.3153 3.28824C37.5223 2.94366 36.6603 2.73691 35.6603 2.73691C34.8673 2.73691 34.2466 2.87475 33.8328 3.11595C33.4191 3.35716 33.1777 3.77065 33.1777 4.35644C33.1777 4.73547 33.3156 5.08005 33.5915 5.32126C33.8673 5.59692 34.3845 5.83813 35.1086 6.07933L37.074 6.69957C38.074 7.0097 38.7981 7.45765 39.2118 8.00898C39.6256 8.5603 39.8325 9.215 39.8325 9.93862C39.8325 10.5244 39.6946 11.0757 39.4877 11.5237C39.2463 12.0061 38.9015 12.4196 38.4877 12.7297C38.074 13.0743 37.5568 13.3155 36.9706 13.4878C36.281 13.7634 35.6258 13.8324 34.9362 13.8324Z" fill="#2D3748"/>
<path fill-rule="evenodd" clip-rule="evenodd" d="M37.561 20.552C33.0095 23.8945 26.3892 25.6863 20.7343 25.6863C12.7693 25.6863 5.59727 22.7573 0.18378 17.8643C-0.22999 17.4853 0.149299 16.9684 0.666512 17.2441C6.52825 20.6554 13.7347 22.6884 21.2171 22.6884C26.2513 22.6884 31.8027 21.6547 36.9058 19.4838C37.6299 19.1737 38.2851 20.0007 37.561 20.552Z" fill="#FF9900"/>
<path fill-rule="evenodd" clip-rule="evenodd" d="M39.427 18.4154C38.8408 17.6574 35.5996 18.0709 34.117 18.2432C33.6687 18.3121 33.5998 17.8986 34.0135 17.6229C36.5996 15.7966 40.8752 16.3135 41.3579 16.9338C41.8407 17.554 41.22 21.8268 38.8064 23.8598C38.4271 24.1699 38.0823 23.9976 38.2547 23.5841C38.8064 22.2058 40.0132 19.1391 39.427 18.4154Z" fill="#FF9900"/>
</g>
<defs>
<clipPath id="clip0_3994_520">
<rect width="41.5149" height="24.8097" fill="white" transform="translate(0.00537109 0.875854)"/>
</clipPath>
</defs>
</svg>
