<svg xmlns="http://www.w3.org/2000/svg" fill="none" viewBox="0 0 892 534" height="534" width="892">
<path fill="white" d="M251.403 194.03C251.403 205.005 252.59 213.904 254.666 220.43C257.039 226.955 260.005 234.074 264.158 241.787C265.641 244.16 266.234 246.533 266.234 248.609C266.234 251.575 264.455 254.542 260.598 257.508L241.911 269.966C239.241 271.746 236.572 272.636 234.199 272.636C231.232 272.636 228.266 271.153 225.3 268.483C221.147 264.034 217.588 259.288 214.621 254.542C211.655 249.499 208.689 243.863 205.426 237.041C182.289 264.33 153.22 277.975 118.218 277.975C93.3014 277.975 73.4275 270.856 58.8928 256.618C44.3582 242.38 36.9425 223.396 36.9425 199.666C36.9425 174.453 45.8413 153.985 63.9355 138.561C82.0296 123.136 106.056 115.424 136.609 115.424C146.694 115.424 157.076 116.314 168.051 117.797C179.026 119.28 190.298 121.653 202.163 124.323V102.669C202.163 80.1256 197.417 64.4044 188.222 55.209C178.73 46.0136 162.712 41.5643 139.872 41.5643C129.49 41.5643 118.811 42.7508 107.836 45.4204C96.8609 48.09 86.1824 51.3529 75.8005 55.5057C71.0545 57.582 67.495 58.7686 65.4186 59.3618C63.3422 59.9551 61.8591 60.2517 60.6726 60.2517C56.5198 60.2517 54.4434 57.2854 54.4434 51.0563V36.5216C54.4434 31.7756 55.0367 28.2161 56.5198 26.1397C58.0029 24.0633 60.6726 21.9869 64.8253 19.9106C75.2072 14.5713 87.6655 10.1219 102.2 6.5624C116.735 2.70626 132.159 0.926504 148.474 0.926504C183.772 0.926504 209.579 8.9354 226.19 24.9532C242.504 40.971 250.81 65.2943 250.81 97.9232V194.03H251.403ZM130.973 239.117C140.762 239.117 150.847 237.337 161.525 233.778C172.204 230.218 181.696 223.693 189.705 214.794C194.451 209.158 198.01 202.929 199.79 195.81C201.57 188.691 202.756 180.089 202.756 170.003V157.545C194.154 155.469 184.959 153.689 175.467 152.502C165.975 151.316 156.779 150.723 147.584 150.723C127.71 150.723 113.175 154.579 103.387 162.588C93.5981 170.597 88.852 181.868 88.852 196.7C88.852 210.641 92.4115 221.023 99.8272 228.142C106.946 235.558 117.328 239.117 130.973 239.117ZM369.163 271.153C363.824 271.153 360.265 270.263 357.892 268.186C355.519 266.407 353.442 262.254 351.663 256.618L281.955 27.3262C280.176 21.3937 279.286 17.5376 279.286 15.4612C279.286 10.7152 281.659 8.04553 286.405 8.04553H315.474C321.11 8.04553 324.966 8.9354 327.043 11.0118C329.416 12.7915 331.195 16.9443 332.975 22.5802L382.808 218.947L429.082 22.5802C430.565 16.6477 432.345 12.7915 434.718 11.0118C437.091 9.23203 441.244 8.04553 446.583 8.04553H470.313C475.949 8.04553 479.805 8.9354 482.178 11.0118C484.551 12.7915 486.627 16.9443 487.814 22.5802L534.681 221.32L585.997 22.5802C587.777 16.6477 589.853 12.7915 591.93 11.0118C594.303 9.23203 598.159 8.04553 603.498 8.04553H631.084C635.83 8.04553 638.5 10.4185 638.5 15.4612C638.5 16.9443 638.203 18.4274 637.906 20.2072C637.61 21.9869 637.017 24.36 635.83 27.6228L564.343 256.915C562.564 262.847 560.487 266.703 558.114 268.483C555.741 270.263 551.885 271.449 546.842 271.449H521.333C515.697 271.449 511.841 270.559 509.467 268.483C507.094 266.407 505.018 262.551 503.832 256.618L457.855 65.2943L412.174 256.321C410.691 262.254 408.911 266.11 406.538 268.186C404.165 270.263 400.013 271.153 394.673 271.153H369.163ZM750.328 279.162C734.903 279.162 719.479 277.382 704.647 273.822C689.816 270.263 678.248 266.407 670.535 261.957C665.789 259.288 662.526 256.321 661.34 253.652C660.153 250.982 659.56 248.016 659.56 245.346V230.218C659.56 223.989 661.933 221.023 666.383 221.023C668.162 221.023 669.942 221.32 671.722 221.913C673.502 222.506 676.171 223.693 679.138 224.879C689.223 229.328 700.198 232.888 711.766 235.261C723.631 237.634 735.2 238.82 747.065 238.82C765.752 238.82 780.287 235.558 790.372 229.032C800.458 222.506 805.797 213.014 805.797 200.852C805.797 192.547 803.127 185.724 797.788 180.089C792.449 174.453 782.363 169.41 767.829 164.664L724.818 151.316C703.164 144.493 687.146 134.408 677.358 121.06C667.569 108.008 662.526 93.4738 662.526 78.0492C662.526 65.5909 665.196 54.6158 670.535 45.1238C675.875 35.6317 682.994 27.3262 691.892 20.8004C700.791 13.978 710.876 8.9354 722.742 5.37589C734.607 1.81638 747.065 0.333252 760.116 0.333252C766.642 0.333252 773.465 0.629878 779.99 1.51976C786.813 2.40963 793.042 3.59614 799.271 4.78264C805.204 6.26577 810.839 7.7489 816.179 9.52866C821.518 11.3084 825.671 13.0882 828.637 14.8679C832.79 17.2409 835.756 19.6139 837.536 22.2836C839.315 24.6566 840.205 27.9195 840.205 32.0722V46.0136C840.205 52.2428 837.832 55.5057 833.383 55.5057C831.01 55.5057 827.154 54.3192 822.111 51.9462C805.203 44.2339 786.219 40.3777 765.159 40.3777C748.251 40.3777 734.903 43.0474 725.708 48.6833C716.512 54.3192 711.766 62.9213 711.766 75.083C711.766 83.3885 714.733 90.5075 720.665 96.1434C726.598 101.779 737.573 107.415 753.294 112.458L795.415 125.806C816.772 132.628 832.196 142.12 841.392 154.282C850.587 166.444 855.037 180.385 855.037 195.81C855.037 208.565 852.367 220.133 847.324 230.218C841.985 240.304 834.866 249.202 825.671 256.321C816.475 263.737 805.5 269.076 792.745 272.932C779.397 277.085 765.456 279.162 750.328 279.162Z"></path>
<path fill="#FF9900" d="M806.39 423.322C708.8 495.402 567.013 533.667 445.1 533.667C274.243 533.667 120.294 470.485 4.01702 365.48C-5.17838 357.174 3.12715 345.902 14.1023 352.428C139.872 425.398 295.007 469.595 455.482 469.595C563.75 469.595 682.697 447.052 792.152 400.778C808.466 393.363 822.408 411.457 806.39 423.322Z" clip-rule="evenodd" fill-rule="evenodd"></path>
<path fill="#FF9900" d="M847.028 377.048C834.57 361.03 764.566 369.336 732.827 373.192C723.335 374.379 721.852 366.073 730.454 359.844C786.219 320.689 877.877 331.961 888.555 345.013C899.234 358.361 885.589 450.018 833.383 493.919C825.374 500.741 817.662 497.182 821.221 488.283C833.086 458.917 859.486 392.769 847.028 377.048Z" clip-rule="evenodd" fill-rule="evenodd"></path>
</svg>
