<svg width="32" height="32" viewBox="0 0 32 32" fill="none" xmlns="http://www.w3.org/2000/svg">
  <g clip-path="url(#clip0_2102_1891)">
    <path
      d="M25.2258 21.5402C26.2183 18.3253 26.0479 14.9486 24.7351 11.8093C23.4222 8.66988 21.0219 5.89909 17.8175 3.82433C20.7435 2.46814 24.0611 1.75703 27.4365 1.76255C28.7161 1.762 29.9927 1.86315 31.2479 2.06455L31.7759 0.354184C30.3478 0.118731 28.8941 7.90121e-05 27.4365 3.20929e-05C23.3454 -0.00632924 19.3382 0.933124 15.8897 2.70696C12.4409 0.933402 8.43369 -0.00602158 4.34283 3.20929e-05C2.88411 8.11828e-05 1.42914 0.118732 0 0.354184L0.527951 2.06455C1.78416 1.863 3.06197 1.76185 4.34283 1.76255C7.71879 1.75687 11.0372 2.46697 13.9651 3.82159C11.3466 5.51684 9.25661 7.68249 7.86237 10.1454C6.46815 12.6082 5.80836 15.2999 5.9358 18.0051C6.06325 20.7102 6.97438 23.3538 8.59633 25.7243C10.2182 28.0948 12.5059 30.1265 15.2765 31.6569L15.8964 32L16.5129 31.6569C20.8544 29.2558 23.9559 25.6573 25.2326 21.5402H25.2258ZM14.7963 29.1393C11.9431 27.1532 9.87256 24.5382 8.83954 21.6159C7.80651 18.6938 7.85602 15.5918 8.98198 12.6919C10.0855 14.1697 11.4549 15.5076 13.0455 16.6617C13.5974 17.0626 14.0386 17.5526 14.3401 18.0998C14.6417 18.647 14.7972 19.2392 14.7963 19.8381V29.1393ZM15.8897 16.2635C14.4238 15.3872 13.1188 14.3484 12.0134 13.1778C11.3057 12.428 10.9225 11.5118 10.9225 10.5698C10.9225 9.62755 11.3057 8.71141 12.0134 7.96156C13.1178 6.78135 14.4253 5.734 15.8964 4.85109C17.3839 5.74586 18.7041 6.80819 19.8169 8.0055C20.5015 8.74286 20.8715 9.63914 20.8715 10.5601C20.8715 11.4811 20.5015 12.3773 19.8169 13.1146C18.6998 14.3093 17.3775 15.3695 15.8897 16.2635ZM16.9796 29.1393V19.8381C16.9791 19.2391 17.1351 18.6466 17.4373 18.0993C17.7395 17.5521 18.1812 17.0622 18.7338 16.6617C20.324 15.5082 21.6924 14.1702 22.7938 12.6919C23.381 14.2023 23.6785 15.7762 23.676 17.359C23.6731 19.5947 23.0735 21.8038 21.9181 23.8365C20.7627 25.8691 19.0785 27.6776 16.9796 29.1393Z"
      fill="url(#paint0_linear_2102_1891)"
    />
  </g>
  <defs>
    <linearGradient
      id="paint0_linear_2102_1891"
      x1="0"
      y1="9.06666"
      x2="31.7759"
      y2="9.06666"
      gradientUnits="userSpaceOnUse"
    >
      <stop stop-color="#0037A5" />
      <stop offset="0.503789" stop-color="#6933FF" />
      <stop offset="1" stop-color="#00FCED" />
    </linearGradient>
    <clipPath id="clip0_2102_1891">
      <rect width="32" height="32" fill="white" />
    </clipPath>
  </defs>
</svg>