<svg width="40" height="33" viewBox="0 0 40 33" fill="none" xmlns="http://www.w3.org/2000/svg">
<path d="M25.2324 9.16718H26.4322L29.8518 5.7476L30.0198 4.29579C28.0608 2.56675 25.6934 1.36565 23.1412 0.80594C20.589 0.246234 17.9362 0.346402 15.4335 1.09698C12.9308 1.84756 10.6607 3.22378 8.8377 5.09562C7.01472 6.96746 5.69903 9.27314 5.01489 11.7948C5.39585 11.6387 5.81785 11.6134 6.21474 11.7229L13.0539 10.595C13.0539 10.595 13.4018 10.0191 13.5818 10.0551C15.0472 8.44567 17.0724 7.45727 19.2427 7.29221C21.4131 7.12714 23.5644 7.79791 25.2564 9.16718H25.2324Z" fill="#EA4335"/>
<path d="M34.7253 11.795C33.9393 8.90057 32.3255 6.29847 30.0819 4.30798L25.2825 9.10738C26.2827 9.92468 27.0843 10.9584 27.6268 12.1307C28.1693 13.3029 28.4385 14.5831 28.4141 15.8745V16.7264C28.975 16.7264 29.5305 16.8369 30.0487 17.0516C30.567 17.2662 31.0379 17.5809 31.4345 17.9775C31.8311 18.3742 32.1458 18.845 32.3604 19.3633C32.5751 19.8815 32.6856 20.437 32.6856 20.9979C32.6856 21.5588 32.5751 22.1143 32.3604 22.6325C32.1458 23.1508 31.8311 23.6216 31.4345 24.0183C31.0379 24.4149 30.567 24.7296 30.0487 24.9442C29.5305 25.1589 28.975 25.2694 28.4141 25.2694H19.8712L19.0193 26.1333V31.2566L19.8712 32.1085H28.4141C30.7997 32.1271 33.1279 31.3773 35.0543 29.9701C36.9808 28.5629 38.4031 26.573 39.1109 24.2948C39.8187 22.0165 39.7745 19.571 38.9847 17.3198C38.1948 15.0687 36.7014 13.1316 34.7253 11.795Z" fill="#4285F4"/>
<path d="M11.3143 32.0603H19.8573V25.2212H11.3143C10.7057 25.221 10.1042 25.0901 9.55056 24.8372L8.35071 25.2092L4.90714 28.6287L4.60718 29.8286C6.53825 31.2868 8.89458 32.0708 11.3143 32.0603Z" fill="#34A853"/>
<path d="M11.316 9.87519C9.00125 9.88902 6.74864 10.6255 4.87277 11.9817C2.9969 13.3378 1.59145 15.2461 0.852722 17.4398C0.113992 19.6335 0.0788735 22.0032 0.752271 24.2178C1.42567 26.4325 2.77395 28.3815 4.60881 29.7927L9.56419 24.8373C8.93446 24.5528 8.38316 24.1198 7.95759 23.5754C7.53202 23.0309 7.24488 22.3914 7.12081 21.7116C6.99674 21.0318 7.03945 20.3321 7.24526 19.6725C7.45108 19.0128 7.81386 18.4129 8.30248 17.9243C8.7911 17.4357 9.39097 17.0729 10.0506 16.8671C10.7103 16.6613 11.41 16.6186 12.0898 16.7426C12.7696 16.8667 13.4091 17.1539 13.9535 17.5794C14.4979 18.005 14.931 18.5563 15.2155 19.186L20.1709 14.2306C19.1308 12.8709 17.7902 11.7702 16.2541 11.0147C14.718 10.2591 13.0279 9.86909 11.316 9.87519Z" fill="#FBBC05"/>
</svg>
