<svg width="56" height="47" viewBox="0 0 56 47" fill="none" xmlns="http://www.w3.org/2000/svg">
<path d="M31.3095 42.4364H51.7309C52.3826 42.4364 53.0063 42.2075 53.5707 41.8845C54.1352 41.5614 54.7169 41.1561 55.0425 40.5966C55.3682 40.0371 55.5948 39.4026 55.5945 38.7567C55.5941 38.1107 55.3687 37.4764 55.0425 36.9173L41.2443 13.184C40.9186 12.6248 40.5207 12.2191 39.9564 11.8962C39.3922 11.5733 38.5843 11.3443 37.9327 11.3443C37.281 11.3443 36.6572 11.5733 36.0929 11.8962C35.5286 12.2191 35.1307 12.6248 34.8051 13.184L31.3095 19.2553L24.3184 7.48033C23.9924 6.92107 23.595 6.33181 23.0305 6.00895C22.4661 5.68608 21.8424 5.64099 21.1908 5.64099C20.5391 5.64099 19.9154 5.68608 19.351 6.00895C18.7866 6.33181 18.2051 6.92107 17.8792 7.48033L0.769322 36.9173C0.443127 37.4764 0.401652 38.1107 0.401369 38.7567C0.401085 39.4026 0.443618 40.0371 0.769322 40.5966C1.09503 41.1559 1.67678 41.5614 2.24114 41.8845C2.80549 42.2075 3.42922 42.4364 4.08091 42.4364H16.9593C22.0623 42.4364 25.7764 40.1473 28.3659 35.8132L34.6211 24.9586L37.9327 19.2553L48.0514 36.5491H34.6211L31.3095 42.4364ZM16.7753 36.5491H7.76045L21.1908 13.368L27.9979 24.9586L23.4888 32.819C21.7692 35.6311 19.8087 36.5491 16.7753 36.5491Z" fill="#00DC82"/>
</svg>

