<svg width="57" height="47" viewBox="0 0 57 47" fill="none" xmlns="http://www.w3.org/2000/svg">
<g clip-path="url(#clip0_4958_5013)">
<path d="M45.3219 23.6387C45.3219 25.1852 44.6947 26.5851 43.6791 27.5974C42.6636 28.6109 41.261 29.238 39.7114 29.238C38.1618 29.238 36.7591 29.864 35.7447 30.8775C34.7292 31.891 34.1009 33.2908 34.1009 34.8373C34.1009 36.3838 33.4737 37.7837 32.4581 38.796C31.4426 39.8095 30.04 40.4366 28.4904 40.4366C26.9408 40.4366 25.5381 39.8095 24.5237 38.796C23.5082 37.7837 22.8799 36.3838 22.8799 34.8373C22.8799 33.2908 23.5082 31.891 24.5237 30.8775C25.5381 29.864 26.9408 29.238 28.4904 29.238C30.04 29.238 31.4426 28.6109 32.4581 27.5974C33.4737 26.5851 34.1009 25.1852 34.1009 23.6387C34.1009 20.5457 31.5896 18.0394 28.4904 18.0394C26.9408 18.0394 25.5381 17.4123 24.5237 16.3988C23.5082 15.3865 22.8799 13.9866 22.8799 12.4401C22.8799 10.8936 23.5082 9.49377 24.5237 8.4803C25.5381 7.46682 26.9408 6.84082 28.4904 6.84082C31.5896 6.84082 34.1009 9.34707 34.1009 12.4401C34.1009 13.9866 34.7292 15.3865 35.7447 16.3988C36.7591 17.4123 38.1618 18.0394 39.7114 18.0394C42.8106 18.0394 45.3219 20.5457 45.3219 23.6387Z" fill="#F44250"/>
<path d="M22.8802 23.6387C22.8802 20.5462 20.3683 18.0394 17.2697 18.0394C14.1711 18.0394 11.6592 20.5462 11.6592 23.6387C11.6592 26.7311 14.1711 29.238 17.2697 29.238C20.3683 29.238 22.8802 26.7311 22.8802 23.6387Z" fill="#121212"/>
<path d="M11.6595 34.8373C11.6595 31.7449 9.14757 29.238 6.04897 29.238C2.95039 29.238 0.438477 31.7449 0.438477 34.8373C0.438477 37.9298 2.95039 40.4366 6.04897 40.4366C9.14757 40.4366 11.6595 37.9298 11.6595 34.8373Z" fill="#121212"/>
<path d="M56.5433 34.8373C56.5433 31.7449 54.0313 29.238 50.9328 29.238C47.8342 29.238 45.3223 31.7449 45.3223 34.8373C45.3223 37.9298 47.8342 40.4366 50.9328 40.4366C54.0313 40.4366 56.5433 37.9298 56.5433 34.8373Z" fill="#121212"/>
</g>
<defs>
<clipPath id="clip0_4958_5013">
<rect width="56.1796" height="33.5958" fill="white" transform="translate(0.400391 6.84082)"/>
</clipPath>
</defs>
</svg>

