<svg width="48" height="49" viewBox="0 0 48 49" fill="none" xmlns="http://www.w3.org/2000/svg">
<g clip-path="url(#clip0_4958_5122)">
<path d="M27.935 23.6847C27.8616 23.4646 27.1281 23.9048 26.9079 23.9781C27.1601 25.5068 27.3072 27.051 27.3481 28.5998C25.6376 27.6653 23.9951 26.6113 22.433 25.4453L21.9196 25.6655V25.4453L21.186 25.6655C20.9658 25.8121 21.0392 25.6655 21.0392 25.9589C21.197 28.0706 20.9224 30.1924 20.2323 32.1943C18.7651 30.9472 17.3713 29.1866 17.0045 27.5727C16.8486 27.6646 16.6719 27.7151 16.491 27.7194C16.2709 27.7928 16.1976 27.7194 16.2709 27.9396C16.8806 29.8767 18.0875 31.5716 19.7188 32.7813C18.3249 33.2947 16.7845 33.8817 15.0238 34.4685C14.437 34.6885 13.5567 34.9086 12.603 35.2754C14.0738 32.9216 15.2794 30.4121 16.1976 27.7928L15.0972 28.233C14.0149 30.6547 12.7392 32.9852 11.2826 35.202C11.2092 35.2754 11.2092 35.3488 11.1358 35.4221C10.7322 34.6892 10.4846 33.8806 10.4089 33.0473C10.3332 32.214 10.4308 31.3741 10.6957 30.5804C10.769 30.287 9.74201 31.0206 9.66866 31.094C9.37522 31.2407 9.37522 31.4607 9.30187 31.7541C9.21293 32.2137 9.16384 32.6801 9.15515 33.1481C9.1895 34.2194 9.51956 35.2602 10.1088 36.1558C7.83469 36.816 5.26714 37.6229 2.77294 38.2831V38.063C3.13973 36.3024 4.90034 34.0283 6.95439 32.8545L7.4679 32.2677L4.68027 34.1751C3.35981 35.2754 1.89264 37.036 1.52585 38.6499C1.01234 40.9975 2.77294 42.8314 4.68027 44.2252C6.74403 45.585 9.02731 46.5777 11.4293 47.1595C15.079 48.0773 18.8179 48.5939 22.5798 48.7001H23.0934C23.1568 48.6103 23.2063 48.5113 23.24 48.4067C23.4601 47.9665 26.7613 41.8043 27.6415 36.5958C28.6303 32.3587 28.7301 27.9625 27.935 23.6847ZM21.9196 25.8855C23.6329 27.0107 25.4222 28.0157 27.2747 28.8932C25.3424 30.2694 23.2483 31.4027 21.0392 32.2677C21.7488 30.2187 22.0479 28.05 21.9196 25.8855ZM15.9041 35.3488C17.1537 34.9297 18.3783 34.4399 19.5721 33.8817C18.6686 36.0553 17.6145 38.1634 16.4177 40.1905C15.8533 39.8914 15.3137 39.5479 14.8038 39.1634C13.7556 38.4177 12.8173 37.5288 12.0161 36.5226C13.3366 36.1558 14.6571 35.789 15.9041 35.3488ZM2.99302 38.6499C5.34049 38.063 7.83469 37.5496 10.3289 36.9626C8.49493 39.6769 6.88103 41.6576 6.00073 43.1982C4.53355 42.0978 3.06638 40.4105 2.99302 38.6499ZM6.29417 43.4182C7.76133 41.2175 9.5953 39.2367 11.2092 37.2562C11.611 37.7556 12.0526 38.2218 12.5297 38.6499C13.3681 39.4092 14.3059 40.0508 15.3173 40.5573C12.4416 41.5843 9.50728 42.6846 6.66096 43.6382C6.52068 43.6003 6.39369 43.5241 6.29417 43.4182ZM12.603 46.4259C12.4563 46.3525 12.3096 46.3525 12.1629 46.2792C10.3205 45.7578 8.56537 44.9666 6.95439 43.9318C8.12813 43.565 13.2632 42.2445 15.6841 41.4375C14.2903 43.7116 13.0432 45.5456 12.603 46.4259ZM22.9466 48.2599C20.9658 48.0399 16.9311 47.3795 14.2169 46.8661C17.9581 45.9858 20.4524 45.619 24.7071 43.565C23.9736 45.5456 23.3134 47.4529 22.9466 48.2599ZM13.5567 46.5727C13.406 46.5909 13.2532 46.5653 13.1165 46.4993C14.5108 44.8822 15.7857 43.166 16.9311 41.3642C19.4092 42.3851 22.0342 43.0041 24.7071 43.1982C22.9466 43.9318 13.9968 46.4993 13.5567 46.5727ZM26.6145 37.036C26.133 39.0704 25.5452 41.0784 24.8539 43.0514C22.3195 42.6186 19.853 41.8541 17.5181 40.7773C20.0122 39.7503 25.2941 37.3294 26.6879 36.3758C26.6879 36.5958 26.6145 36.816 26.6145 37.036ZM26.8347 35.9356C25.3675 36.816 20.379 38.7233 18.0315 39.6035C19.1421 37.6721 20.0517 35.6318 20.7458 33.5149C22.6466 34.6143 24.6978 35.4299 26.8347 35.9356ZM26.8347 35.6422C24.8741 35.0891 23.0159 34.222 21.3326 33.0747C23.4447 32.0366 25.4582 30.8088 27.3481 29.4068C27.3445 31.4956 27.1729 33.5809 26.8347 35.6422Z" fill="url(#paint0_radial_4958_5122)"/>
<path d="M10.916 7.17919C9.96231 6.4456 10.9893 5.41858 11.5762 4.97843C11.7963 4.75835 12.0897 4.61164 12.3098 4.39156C13.0434 5.27186 14.8773 7.61934 15.6109 8.35293L16.9314 8.27957C16.2712 7.69269 13.4835 4.90507 12.6766 4.17149C15.3558 4.96303 18.1087 5.47921 20.8928 5.71201V5.78538C19.5297 6.46658 18.2069 7.2259 16.9314 8.0595L18.0317 8.20622C19.1527 7.64373 20.1896 6.92771 21.1128 6.07881C21.5893 7.13425 22.1231 8.1628 22.712 9.15987L23.739 9.30659C21.8317 6.00546 20.4379 3.0711 19.8511 0.576904C18.4719 1.01706 10.916 3.65796 9.50748 5.49193C8.84726 6.22553 10.3878 6.8124 10.9013 7.17919H10.916ZM19.5723 0.943698C19.7048 2.40454 20.0508 3.83807 20.5993 5.1985C18.8387 4.75835 14.5839 4.09813 13.0434 3.95141C15.1147 2.73515 17.3018 1.72764 19.5723 0.943698Z" fill="url(#paint1_radial_4958_5122)"/>
<path d="M45.3925 19.65C42.7517 15.542 38.7903 11.7273 26.8328 9.52655C24.3386 9.0864 21.3309 8.71961 16.0491 7.76594C14.2151 7.47251 8.71324 6.59221 9.37346 5.49182C9.24538 5.65538 9.18736 5.86303 9.21211 6.0693C9.23685 6.27556 9.34236 6.4636 9.5055 6.59221C12.2198 9.67327 16.1811 11.5072 16.1811 17.8161C16.1811 23.6115 10.9727 29.04 5.69086 33.3681C5.37976 33.5906 5.08553 33.8359 4.81055 34.1018C9.59985 31.1285 14.6899 28.6696 19.9958 26.7658C26.1579 24.3451 38.4089 20.8972 45.4513 19.9434L45.3925 19.65ZM35.1224 12.9744C35.8559 13.2678 36.5161 13.5613 37.1765 13.8547C34.07 14.5216 31.0266 15.4543 28.0799 16.6423C28.9508 14.949 29.4981 13.1079 29.6939 11.2138C31.5131 11.7273 33.3618 12.3142 35.1224 12.9744ZM26.8328 16.7891C25.6148 16.0514 24.3391 15.4136 23.0181 14.8817C24.9584 13.4948 26.993 12.2446 29.1069 11.1404C29.0335 12.5343 28.3 14.4416 26.8328 16.7891ZM16.636 14.2949C18.0385 14.5921 19.4129 15.0093 20.7441 15.542C19.3625 16.6712 18.0403 17.871 16.7827 19.1366C16.9571 17.5236 16.9078 15.8943 16.636 14.2949ZM21.243 16.2755C20.7956 18.1423 20.0527 19.9254 19.0421 21.5574C18.4586 20.8898 17.7312 20.363 16.9147 20.0168C18.2501 18.6507 19.6979 17.3992 21.243 16.2755ZM22.1232 16.0555C23.2235 16.5689 24.3973 17.1559 25.5711 17.7427C23.7873 18.5608 22.0704 19.5174 20.436 20.6038C21.2775 19.2049 21.8546 17.6631 22.1379 16.0555H22.1232ZM28.432 10.9937C26.2846 11.8614 24.2421 12.9688 22.3433 14.2949C22.4063 12.7073 22.1053 11.1264 21.463 9.67327C23.8251 10.0401 26.0992 10.4802 28.4467 10.9937H28.432ZM20.9494 9.59991C21.4491 11.1366 21.6239 12.7604 21.463 14.3682C19.9224 13.8547 18.3085 13.4146 16.8413 13.0478C18.1043 11.7773 19.4792 10.6233 20.9494 9.59991ZM11.1194 7.39915C11.9997 7.69258 13.0267 7.98601 14.2005 8.27945C14.714 9.74663 15.0808 11.0671 15.4476 12.2408C14.3583 10.3472 12.8899 8.6989 11.1341 7.39915H11.1194ZM14.714 8.42616C16.8413 8.93969 19.1155 9.30648 20.436 9.52655C18.8878 10.3257 17.4764 11.3657 16.2545 12.6076C15.87 11.1716 15.3594 9.77233 14.7286 8.42616H14.714ZM16.3279 21.1906C16.9117 21.455 17.455 21.8008 17.9417 22.2176C16.6947 23.0979 15.5209 23.9783 14.5673 24.7851C15.3608 23.6977 15.9613 22.4818 16.3425 21.1906H16.3279ZM13.6869 26.1056C14.6406 25.4454 15.9611 24.4917 17.6483 23.3913C15.8732 25.5501 13.7389 27.3866 11.3395 28.82C12.2066 27.9877 12.9972 27.0794 13.7016 26.1056H13.6869ZM12.5132 28.8932C14.8875 27.3063 16.9926 25.3498 18.7487 23.0979C19.3457 23.8357 19.7266 24.7243 19.849 25.6655C17.0028 26.8392 14.7286 27.7196 12.5279 28.8932H12.5132ZM20.3772 25.5187C20.3812 24.3691 20.1042 23.2358 19.5704 22.2176C21.3309 21.1906 23.3117 20.0902 25.5124 18.9898C23.9275 21.2629 22.2129 23.4429 20.3772 25.5187ZM21.1842 25.2253C23.4096 23.3008 25.3596 21.0791 26.9796 18.623C28.5213 19.5827 29.9488 20.7149 31.2343 21.9975C28.3 22.8045 24.9109 23.8315 21.1842 25.2253ZM31.9679 21.7775C30.9723 20.1756 29.677 18.7808 28.1533 17.6693C31.2472 16.2976 34.434 15.1455 37.6899 14.2215C36.5895 16.2021 34.7556 18.2563 31.9679 21.7775ZM32.9216 21.5574C35.2015 19.6018 37.0287 17.1736 38.2769 14.4416C40.6626 15.7114 42.7999 17.4013 44.5857 19.43C44.6693 19.5205 44.7687 19.5951 44.8791 19.65C40.8411 19.8992 36.8366 20.5379 32.9216 21.5574Z" fill="url(#paint2_radial_4958_5122)"/>
<path d="M25.7353 47.3797H25.2954V48.6993H25.1487V47.3797H24.709V47.233H25.7353" fill="#231F20"/>
<path d="M27.4185 48.6989H27.272V47.3793C27.272 47.4527 27.272 47.5259 27.1986 47.5259L26.6854 48.6256H26.612L26.0989 47.5259C26.0935 47.4697 26.0674 47.4174 26.0256 47.3793V48.6256H25.8789V47.1593H26.0989L26.5388 48.1858C26.5465 48.2413 26.5722 48.2928 26.612 48.3323C26.6199 48.2767 26.6456 48.2253 26.6854 48.1858L27.1253 47.1593H27.3452" fill="#231F20"/>
</g>
<defs>
<radialGradient id="paint0_radial_4958_5122" cx="0" cy="0" r="1" gradientUnits="userSpaceOnUse" gradientTransform="translate(30.9688 21.3831) scale(42.3497)">
<stop stop-color="white"/>
<stop offset="0.87" stop-color="#99A5B4"/>
<stop offset="0.99" stop-color="#8A97A8"/>
</radialGradient>
<radialGradient id="paint1_radial_4958_5122" cx="0" cy="0" r="1" gradientUnits="userSpaceOnUse" gradientTransform="translate(26.152 11.7703) scale(20.7364 20.7364)">
<stop stop-color="white"/>
<stop offset="0.87" stop-color="#99A5B4"/>
<stop offset="0.99" stop-color="#8A97A8"/>
</radialGradient>
<radialGradient id="paint2_radial_4958_5122" cx="0" cy="0" r="1" gradientUnits="userSpaceOnUse" gradientTransform="translate(20.7309 20.5486) scale(17.5673 17.5673)">
<stop stop-color="#E23126"/>
<stop offset="1" stop-color="#B92226"/>
</radialGradient>
<clipPath id="clip0_4958_5122">
<rect width="45.1157" height="48.1235" fill="white" transform="translate(1.43555 0.576904)"/>
</clipPath>
</defs>
</svg>
