<svg width="35" height="43" viewBox="0 0 35 43" fill="none" xmlns="http://www.w3.org/2000/svg">
<path d="M32.7812 6.27393C28.9006 0.719839 21.236 -0.927546 15.6946 2.60416L5.96256 8.80714C4.64774 9.63422 3.51998 10.7266 2.65139 12.0143C1.78279 13.3021 1.19247 14.7569 0.918165 16.2859C0.453923 18.861 0.861894 21.5175 2.07749 23.8347C1.24427 25.0984 0.676096 26.5179 0.407346 28.0075C0.130047 29.5671 0.166986 31.1665 0.515998 32.7117C0.865009 34.2569 1.51907 35.7169 2.4398 37.006C6.32039 42.5608 13.9853 44.2074 19.526 40.6757L29.2584 34.4728C30.5732 33.6457 31.701 32.5533 32.5696 31.2656C33.4382 29.9778 34.0285 28.523 34.3028 26.994C34.7668 24.4188 34.359 21.7623 33.1438 19.4448C33.9766 18.1812 34.5445 16.7618 34.8132 15.2724C35.0908 13.7127 35.0539 12.1134 34.7049 10.5681C34.3559 9.02287 33.7021 7.56292 32.7812 6.27393Z" fill="#FF3E00"/>
<path d="M14.7443 37.5287C13.2128 37.9268 11.5959 37.8454 10.1121 37.2953C8.62828 36.7453 7.34899 35.7532 6.44697 34.453C5.89336 33.6779 5.50007 32.8001 5.29017 31.871C5.08026 30.9419 5.05797 29.9803 5.22458 29.0425C5.28097 28.7347 5.35865 28.4311 5.45705 28.1339L5.64025 27.5742L6.13913 27.9403C7.29021 28.7866 8.57737 29.4302 9.9451 29.8433L10.3067 29.953L10.2735 30.3142C10.2292 30.8277 10.3682 31.3404 10.666 31.7612C10.9376 32.1531 11.323 32.4523 11.7701 32.6181C12.2172 32.7839 12.7045 32.8085 13.166 32.6884C13.3771 32.6323 13.5785 32.5442 13.763 32.4272L23.4958 26.2224C23.7339 26.0724 23.9382 25.8745 24.0956 25.6412C24.253 25.408 24.3601 25.1445 24.41 24.8675C24.4599 24.5848 24.453 24.295 24.3897 24.015C24.3264 23.7349 24.208 23.4703 24.0413 23.2366C23.7697 22.8446 23.3843 22.5455 22.9372 22.3795C22.4902 22.2136 22.0029 22.1888 21.5413 22.3086C21.3302 22.3647 21.1288 22.4528 20.9443 22.5698L17.2302 24.9373C16.619 25.3257 15.9521 25.6183 15.2525 25.8052C13.721 26.2033 12.1041 26.1219 10.6203 25.5718C9.13649 25.0218 7.8572 24.0297 6.95518 22.7295C6.40141 21.9545 6.008 21.0767 5.79803 20.1476C5.58806 19.2185 5.56575 18.2569 5.73242 17.319C5.89785 16.3996 6.25337 15.5247 6.77625 14.7505C7.29913 13.9763 7.97784 13.3197 8.76898 12.8228L18.5007 6.62018C19.1116 6.23125 19.7786 5.93817 20.4783 5.75115C22.0099 5.35299 23.6267 5.43442 25.1106 5.98446C26.5944 6.53449 27.8737 7.52663 28.7757 8.82689C29.3293 9.60194 29.7227 10.4797 29.9326 11.4088C30.1426 12.3379 30.165 13.2995 29.9984 14.2373C29.9412 14.5457 29.8631 14.8497 29.7645 15.1474L29.5812 15.7071L29.0827 15.3418C27.9317 14.4953 26.6446 13.8518 25.2768 13.4388L24.9148 13.3291L24.9484 12.9679C24.9922 12.4544 24.8532 11.9419 24.5559 11.5209C24.2844 11.1293 23.8993 10.8304 23.4526 10.6646C23.0058 10.4988 22.519 10.474 22.0578 10.5937C21.8466 10.6498 21.6453 10.7379 21.4607 10.8549L11.7268 17.0575C11.4887 17.2074 11.2845 17.4052 11.1272 17.6384C10.9698 17.8716 10.8628 18.1351 10.813 18.412C10.7628 18.6947 10.7695 18.9846 10.8327 19.2647C10.8959 19.5448 11.0143 19.8095 11.1809 20.0433C11.4526 20.4352 11.838 20.7343 12.285 20.9002C12.7321 21.0662 13.2193 21.091 13.6809 20.9713C13.892 20.915 14.0933 20.8269 14.2779 20.7101L17.9913 18.3437C18.6023 17.9547 19.2692 17.6617 19.969 17.475C21.5001 17.077 23.1164 17.1583 24.5999 17.708C26.0833 18.2577 27.3624 19.2493 28.2645 20.5489C28.8182 21.3239 29.2116 22.2017 29.4216 23.1308C29.6316 24.0598 29.6539 25.0215 29.4872 25.9593C29.3222 26.8788 28.9671 27.7537 28.4448 28.5281C27.9224 29.3026 27.2443 29.9596 26.4536 30.4571L16.7219 36.6597C16.111 37.0487 15.4441 37.3417 14.7443 37.5287Z" fill="white"/>
</svg>

