<svg xmlns="http://www.w3.org/2000/svg" fill="none" viewBox="0 0 844 474" height="474" width="844">
<g clip-path="url(#clip0_11938_8089)">
<rect fill="url(#paint0_linear_11938_8089)" height="474" width="844"></rect>
<rect fill="url(#paint1_radial_11938_8089)" height="474" width="844"></rect>
<rect fill-opacity="0.2" fill="url(#paint2_radial_11938_8089)" height="474" width="844"></rect>
<g filter="url(#filter0_ddddddd_11938_8089)">
<path fill="#090A15" d="M479.578 356.445C475.393 354.029 475.393 350.112 479.578 347.696L752.081 190.38C756.266 187.963 763.052 187.963 767.237 190.38L1010.7 330.932C1014.89 333.348 1014.89 337.265 1010.7 339.681L738.199 496.997C734.013 499.413 727.228 499.413 723.043 496.997L479.578 356.445Z"></path>
<path stroke="#364153" d="M480.011 347.946L752.514 190.63C756.46 188.352 762.858 188.352 766.804 190.63L1010.27 331.182C1014.21 333.46 1014.21 337.153 1010.27 339.431L737.766 496.747C733.82 499.025 727.422 499.025 723.476 496.747L480.011 356.195C476.188 353.988 476.069 350.453 479.652 348.163L480.011 347.946Z"></path>
<path fill="#E2E8F0" d="M507.941 351.07L511.73 348.883L514.761 350.633C515.187 350.879 515.85 350.879 516.277 350.633L519.308 348.883L526.128 352.82C526.98 353.312 526.957 354.092 526.128 354.57L520.066 358.07C519.213 358.562 517.887 358.562 517.034 358.07L507.941 352.82C507.112 352.342 507.088 351.563 507.941 351.07ZM512.488 348.446H518.55L515.519 350.195L512.488 348.446ZM516.892 353.805L516.869 353.818C516.892 353.558 516.537 353.353 516.087 353.367C515.637 353.353 515.282 353.558 515.306 353.818V355.131C515.282 355.39 515.637 355.595 516.087 355.582H518.361C518.81 355.595 519.166 355.39 519.166 355.117C519.166 354.871 518.81 354.666 518.361 354.652H516.892V353.805ZM518.739 351.809L518.763 351.822C518.289 351.822 517.934 352.027 517.958 352.287C517.934 352.547 518.289 352.752 518.739 352.738H520.208V353.586C520.208 353.859 520.563 354.064 521.013 354.051C521.463 354.064 521.818 353.859 521.818 353.586V352.273C521.818 352.027 521.463 351.822 521.013 351.809H518.739Z"></path>
<path fill="#E2E8F0" d="M537.236 346.547C536.468 346.99 535.627 347.214 534.714 347.219C533.792 347.219 532.94 346.993 532.156 346.54L527.912 344.09L529.003 343.46L533.247 345.91C533.748 346.199 534.269 346.351 534.811 346.365C535.344 346.374 535.833 346.251 536.278 345.994C536.731 345.733 536.949 345.448 536.933 345.14C536.916 344.823 536.658 344.52 536.157 344.23L531.913 341.78L533.004 341.15L537.248 343.6C538.032 344.053 538.42 344.548 538.412 345.084C538.396 345.616 538.004 346.104 537.236 346.547ZM544.288 342.448C543.835 342.709 543.37 342.898 542.893 343.015C542.416 343.122 541.947 343.16 541.487 343.127C541.034 343.09 540.61 342.98 540.214 342.798L541.305 342.168C541.588 342.275 541.903 342.308 542.251 342.266C542.606 342.219 542.962 342.093 543.318 341.888L543.827 341.594C544.255 341.347 544.49 341.113 544.53 340.894C544.562 340.67 544.433 340.474 544.142 340.306C543.859 340.143 543.54 340.071 543.184 340.089C542.829 340.099 542.436 340.194 542.008 340.376L540.965 340.81C540.197 341.123 539.506 341.288 538.892 341.307C538.278 341.316 537.688 341.158 537.122 340.831C536.524 340.486 536.253 340.11 536.31 339.704C536.358 339.294 536.762 338.869 537.522 338.43L537.983 338.164C538.621 337.796 539.284 337.586 539.971 337.534C540.658 337.483 541.297 337.581 541.887 337.828L540.796 338.458C540.537 338.365 540.25 338.339 539.935 338.381C539.611 338.419 539.284 338.533 538.953 338.724L538.492 338.99C538.08 339.228 537.853 339.448 537.813 339.648C537.781 339.844 537.918 340.031 538.225 340.208C538.5 340.367 538.783 340.437 539.074 340.418C539.365 340.4 539.712 340.306 540.117 340.138L541.159 339.704C541.992 339.354 542.723 339.175 543.354 339.165C543.992 339.151 544.603 339.312 545.185 339.648C545.799 340.003 546.086 340.397 546.046 340.831C546.005 341.256 545.589 341.697 544.797 342.154L544.288 342.448ZM551.788 338.146C551.263 338.449 550.697 338.655 550.09 338.762C549.492 338.865 548.894 338.869 548.296 338.776C547.698 338.673 547.144 338.475 546.635 338.181L544.816 337.131C544.299 336.832 543.955 336.513 543.786 336.172C543.624 335.827 543.632 335.482 543.81 335.136C543.996 334.786 544.351 334.46 544.877 334.156C545.402 333.853 545.964 333.65 546.562 333.547C547.168 333.44 547.767 333.435 548.357 333.533C548.955 333.627 549.513 333.823 550.03 334.121L551.206 334.8L547.059 337.194L547.702 337.565C548.227 337.868 548.765 338.025 549.314 338.034C549.856 338.039 550.373 337.899 550.866 337.614C551.287 337.371 551.554 337.133 551.667 336.9C551.772 336.662 551.703 336.441 551.461 336.235L552.552 335.605C553.037 335.969 553.206 336.385 553.061 336.851C552.916 337.308 552.491 337.74 551.788 338.146ZM549.411 334.996L548.963 334.737C548.437 334.434 547.9 334.278 547.35 334.268C546.809 334.254 546.287 334.392 545.786 334.681C545.293 334.966 545.055 335.267 545.071 335.584C545.087 335.902 545.358 336.212 545.883 336.515L546.235 336.718L549.399 334.891L549.411 334.996ZM556.645 335.202L549.977 331.352L551.044 330.736L552.317 331.471L552.571 331.324L553.008 331.982C552.288 331.567 551.9 331.166 551.844 330.778C551.787 330.382 552.066 330.006 552.68 329.651C553.384 329.245 554.164 329.052 555.02 329.07C555.877 329.08 556.682 329.301 557.433 329.735L557.833 329.966L556.742 330.596L556.439 330.421C555.914 330.118 555.384 329.962 554.851 329.952C554.317 329.934 553.816 330.06 553.347 330.33C552.887 330.596 552.664 330.888 552.68 331.205C552.705 331.518 552.975 331.824 553.493 332.122L557.736 334.572L556.645 335.202ZM566.328 329.752C566.021 329.929 565.685 330.02 565.322 330.025C564.966 330.025 564.639 329.939 564.34 329.766C564.024 329.584 563.863 329.388 563.855 329.178C563.855 328.963 564.008 328.767 564.315 328.59C564.622 328.413 564.958 328.327 565.322 328.331C565.693 328.331 566.037 328.422 566.352 328.604C566.651 328.777 566.797 328.968 566.789 329.178C566.789 329.383 566.635 329.575 566.328 329.752ZM573.137 328.201L564.286 323.091L565.378 322.461L566.651 323.196L566.869 323.07L566.905 323.343C566.396 323.049 566.162 322.723 566.202 322.363C566.242 321.995 566.537 321.652 567.087 321.334C567.758 320.947 568.514 320.767 569.354 320.795C570.195 320.814 570.999 321.045 571.767 321.488L573.719 322.615C574.229 322.909 574.576 323.217 574.762 323.539C574.956 323.857 574.988 324.169 574.859 324.477C574.738 324.78 574.451 325.063 573.998 325.324C573.457 325.637 572.867 325.805 572.228 325.828C571.589 325.851 571.02 325.718 570.518 325.429L570.991 325.45L570.749 325.59L572.289 326.451L574.229 327.571L573.137 328.201ZM572.689 324.988C573.149 324.722 573.372 324.435 573.356 324.127C573.347 323.815 573.085 323.509 572.567 323.21L570.749 322.16C570.231 321.862 569.702 321.71 569.16 321.705C568.627 321.696 568.13 321.824 567.669 322.09C567.225 322.347 567.01 322.634 567.026 322.951C567.043 323.269 567.301 323.572 567.802 323.861L569.621 324.911C570.122 325.2 570.648 325.35 571.197 325.359C571.747 325.368 572.244 325.245 572.689 324.988ZM578.455 322.611L571.787 318.761L572.854 318.145L574.127 318.88L574.381 318.733L574.818 319.391C574.098 318.976 573.71 318.575 573.654 318.187C573.597 317.791 573.876 317.415 574.491 317.06C575.194 316.654 575.974 316.461 576.831 316.479C577.687 316.489 578.492 316.71 579.243 317.144L579.643 317.375L578.552 318.005L578.249 317.83C577.724 317.527 577.194 317.371 576.661 317.361C576.127 317.343 575.626 317.469 575.157 317.739C574.697 318.005 574.474 318.297 574.491 318.614C574.515 318.927 574.786 319.233 575.303 319.531L579.546 321.981L578.455 322.611ZM585.41 318.596L584.416 318.022L586.78 316.657L582.1 313.955L580.039 315.145L579.045 314.571L582.197 312.751L587.871 316.027L590.114 314.732L591.109 315.306L585.41 318.596ZM580.33 312.443C580.063 312.597 579.784 312.679 579.493 312.688C579.202 312.698 578.94 312.635 578.705 312.499C578.463 312.359 578.349 312.205 578.366 312.037C578.374 311.865 578.511 311.701 578.778 311.547C579.045 311.393 579.328 311.314 579.627 311.309C579.918 311.3 580.184 311.365 580.427 311.505C580.661 311.641 580.77 311.792 580.754 311.96C580.738 312.128 580.597 312.289 580.33 312.443ZM595.178 313.069C594.725 313.33 594.26 313.519 593.783 313.636C593.307 313.743 592.838 313.781 592.377 313.748C591.924 313.711 591.5 313.601 591.104 313.419L592.195 312.789C592.478 312.896 592.793 312.929 593.141 312.887C593.496 312.84 593.852 312.714 594.208 312.509L594.717 312.215C595.145 311.968 595.38 311.735 595.42 311.515C595.453 311.291 595.323 311.095 595.032 310.927C594.749 310.764 594.43 310.692 594.074 310.71C593.719 310.72 593.327 310.815 592.898 310.997L591.856 311.431C591.088 311.744 590.397 311.91 589.782 311.928C589.168 311.938 588.578 311.779 588.012 311.452C587.414 311.107 587.143 310.731 587.2 310.325C587.248 309.915 587.652 309.49 588.412 309.051L588.873 308.785C589.512 308.417 590.174 308.207 590.861 308.155C591.548 308.104 592.187 308.202 592.777 308.449L591.686 309.079C591.427 308.986 591.14 308.96 590.825 309.002C590.502 309.04 590.174 309.154 589.843 309.345L589.382 309.611C588.97 309.849 588.744 310.069 588.703 310.269C588.671 310.465 588.808 310.652 589.115 310.829C589.39 310.988 589.673 311.058 589.964 311.039C590.255 311.021 590.603 310.927 591.007 310.759L592.05 310.325C592.882 309.975 593.614 309.796 594.244 309.786C594.883 309.772 595.493 309.933 596.075 310.269C596.689 310.624 596.976 311.018 596.936 311.452C596.895 311.877 596.479 312.318 595.687 312.775L595.178 313.069ZM599.72 310.335L593.051 306.485L594.009 305.932L594.809 306.394L595.028 306.268L595.149 306.534C594.777 306.32 594.579 306.093 594.555 305.855C594.539 305.613 594.7 305.393 595.04 305.197C595.411 304.983 595.836 304.896 596.313 304.938C596.79 304.98 597.279 305.146 597.78 305.435L596.798 305.246L597.307 304.952L597.368 305.253C596.996 305.039 596.802 304.81 596.786 304.567C596.778 304.32 596.943 304.098 597.283 303.902C597.703 303.66 598.184 303.564 598.726 303.615C599.275 303.662 599.809 303.835 600.326 304.133L605.394 307.059L604.388 307.64L599.308 304.707C599.033 304.549 598.758 304.46 598.483 304.441C598.216 304.418 597.97 304.472 597.743 304.602C597.525 304.728 597.428 304.873 597.452 305.036C597.477 305.19 597.626 305.347 597.901 305.505L602.993 308.445L602.12 308.949L597.04 306.016C596.757 305.853 596.478 305.767 596.204 305.757C595.929 305.739 595.678 305.795 595.452 305.925C595.226 306.056 595.133 306.198 595.173 306.352C595.205 306.502 595.359 306.656 595.634 306.814L600.726 309.754L599.72 310.335ZM609.366 304.906C608.663 305.312 607.931 305.529 607.172 305.557C606.404 305.58 605.713 305.415 605.098 305.06C604.476 304.701 604.189 304.302 604.238 303.863C604.286 303.425 604.654 303.007 605.341 302.61L607.402 301.42L606.735 301.035C606.323 300.797 605.882 300.688 605.414 300.706C604.945 300.716 604.484 300.851 604.031 301.112C603.635 301.341 603.389 301.581 603.292 301.833C603.187 302.081 603.255 302.298 603.498 302.484L602.407 303.114C601.906 302.741 601.72 302.321 601.849 301.854C601.978 301.388 602.395 300.951 603.098 300.545C603.866 300.102 604.67 299.866 605.511 299.838C606.351 299.81 607.111 299.992 607.79 300.384L612.373 303.03L611.306 303.646L610.033 302.911L609.851 303.016L609.851 302.806C610.336 303.086 610.53 303.418 610.433 303.8C610.344 304.178 609.989 304.547 609.366 304.906ZM608.772 304.255C609.289 303.957 609.584 303.637 609.657 303.296C609.73 302.956 609.564 302.669 609.16 302.435L608.214 301.889L606.177 303.065C605.814 303.275 605.628 303.499 605.62 303.737C605.612 303.975 605.781 304.194 606.129 304.395C606.501 304.61 606.921 304.708 607.39 304.689C607.859 304.661 608.319 304.516 608.772 304.255Z"></path>
<rect fill="#2D3748" transform="matrix(0.866044 -0.499967 0.866044 0.499967 532.623 367.07)" rx="3.5" height="10.5" width="172.5"></rect>
<rect fill="#2D3748" transform="matrix(0.866044 -0.499967 0.866044 0.499967 548.645 376.32)" rx="3.5" height="10.5" width="292.153" opacity="0.9"></rect>
<rect fill="#2D3748" transform="matrix(0.866044 -0.499967 0.866044 0.499967 564.667 385.57)" rx="3.5" height="10.5" width="115" opacity="0.7"></rect>
<rect fill="#2D3748" transform="matrix(0.866044 -0.499967 0.866044 0.499967 580.688 394.82)" rx="3.5" height="10.5" width="153.33" opacity="0.6"></rect>
<rect fill="#2D3748" transform="matrix(0.866044 -0.499967 0.866044 0.499967 596.71 404.07)" rx="3.5" height="10.5" width="76.66" opacity="0.5"></rect>
<rect fill="#2D3748" transform="matrix(0.866044 -0.499967 0.866044 0.499967 612.732 413.32)" rx="3.5" height="10.5" width="292.153" opacity="0.4"></rect>
<rect fill="#2D3748" transform="matrix(0.866044 -0.499967 0.866044 0.499967 628.754 422.57)" rx="3.5" height="10.5" width="172.5" opacity="0.3"></rect>
<rect fill="#2D3748" transform="matrix(0.866044 -0.499967 0.866044 0.499967 644.776 431.812)" rx="3.5" height="10.5" width="115" opacity="0.2"></rect>
</g>
<g filter="url(#filter1_ddddddd_11938_8089)">
<path fill="#090A15" d="M479.578 274.437C475.393 272.021 475.393 268.104 479.578 265.688L752.081 108.372C756.266 105.956 763.052 105.956 767.237 108.372L1010.7 248.924C1014.89 251.34 1014.89 255.257 1010.7 257.674L738.199 414.99C734.013 417.406 727.228 417.406 723.043 414.99L479.578 274.437Z"></path>
<path stroke="#364153" d="M480.011 265.938L752.514 108.622C756.46 106.344 762.858 106.344 766.804 108.622L1010.27 249.174C1014.21 251.452 1014.21 255.146 1010.27 257.424L737.766 414.74C733.82 417.018 727.422 417.018 723.476 414.74L480.011 274.187C476.188 271.98 476.069 268.445 479.652 266.156L480.011 265.938Z"></path>
<path fill="#E2E8F0" d="M507.941 269.063L511.73 266.875L514.761 268.625C515.187 268.871 515.85 268.871 516.277 268.625L519.308 266.875L526.128 270.812C526.98 271.305 526.957 272.084 526.128 272.562L520.066 276.062C519.213 276.554 517.887 276.554 517.034 276.062L507.941 270.812C507.112 270.334 507.088 269.555 507.941 269.063ZM512.488 266.438H518.55L515.519 268.188L512.488 266.438ZM516.892 271.797L516.869 271.81C516.892 271.551 516.537 271.346 516.087 271.359C515.637 271.346 515.282 271.551 515.306 271.81V273.123C515.282 273.383 515.637 273.588 516.087 273.574H518.361C518.81 273.588 519.166 273.383 519.166 273.109C519.166 272.863 518.81 272.658 518.361 272.644H516.892V271.797ZM518.739 269.801L518.763 269.814C518.289 269.814 517.934 270.02 517.958 270.279C517.934 270.539 518.289 270.744 518.739 270.73H520.208V271.578C520.208 271.851 520.563 272.057 521.013 272.043C521.463 272.057 521.818 271.851 521.818 271.578V270.266C521.818 270.02 521.463 269.814 521.013 269.801H518.739Z"></path>
<path fill="#E2E8F0" d="M536.787 267.178L527.936 262.068L529.027 261.438L530.3 262.173L530.519 262.047L530.555 262.32C530.046 262.026 529.811 261.7 529.852 261.34C529.892 260.972 530.187 260.629 530.737 260.312C531.408 259.924 532.164 259.745 533.004 259.773C533.845 259.791 534.649 260.022 535.417 260.466L537.369 261.592C537.878 261.886 538.226 262.194 538.412 262.516C538.606 262.834 538.638 263.146 538.509 263.454C538.388 263.758 538.101 264.04 537.648 264.301C537.106 264.614 536.516 264.782 535.878 264.805C535.239 264.829 534.669 264.696 534.168 264.406L534.641 264.427L534.399 264.567L535.938 265.428L537.878 266.548L536.787 267.178ZM536.338 263.965C536.799 263.699 537.022 263.412 537.005 263.104C536.997 262.792 536.735 262.486 536.217 262.187L534.399 261.137C533.881 260.839 533.352 260.687 532.81 260.682C532.277 260.673 531.78 260.801 531.319 261.067C530.874 261.324 530.66 261.611 530.676 261.928C530.692 262.246 530.951 262.549 531.452 262.838L533.271 263.888C533.772 264.178 534.298 264.327 534.847 264.336C535.397 264.346 535.894 264.222 536.338 263.965ZM544.494 260.321C543.96 260.629 543.398 260.837 542.808 260.944C542.218 261.052 541.624 261.059 541.026 260.965C540.428 260.863 539.866 260.66 539.341 260.356L537.57 259.334C537.037 259.026 536.685 258.702 536.516 258.361C536.354 258.016 536.366 257.673 536.552 257.332C536.738 256.992 537.098 256.667 537.631 256.36C538.165 256.052 538.726 255.844 539.316 255.737C539.906 255.629 540.497 255.625 541.087 255.723C541.685 255.816 542.247 256.014 542.772 256.318L544.554 257.346C545.08 257.65 545.427 257.976 545.597 258.326C545.767 258.667 545.759 259.008 545.573 259.348C545.387 259.689 545.027 260.013 544.494 260.321ZM543.524 259.761C544.001 259.486 544.239 259.194 544.239 258.886C544.239 258.578 543.98 258.275 543.463 257.976L541.693 256.954C541.176 256.656 540.65 256.506 540.117 256.506C539.583 256.506 539.078 256.644 538.601 256.919C538.132 257.19 537.894 257.482 537.886 257.794C537.886 258.102 538.144 258.406 538.662 258.704L540.432 259.726C540.949 260.025 541.475 260.174 542.008 260.174C542.55 260.17 543.055 260.032 543.524 259.761ZM551.558 256.243C551.105 256.505 550.64 256.694 550.163 256.81C549.686 256.918 549.217 256.955 548.757 256.922C548.304 256.885 547.88 256.775 547.484 256.593L548.575 255.963C548.858 256.071 549.173 256.103 549.521 256.061C549.876 256.015 550.232 255.889 550.588 255.683L551.097 255.389C551.525 255.142 551.76 254.909 551.8 254.689C551.832 254.465 551.703 254.269 551.412 254.101C551.129 253.938 550.81 253.866 550.454 253.884C550.099 253.894 549.707 253.989 549.278 254.171L548.235 254.605C547.468 254.918 546.776 255.084 546.162 255.102C545.548 255.112 544.958 254.953 544.392 254.626C543.794 254.281 543.523 253.905 543.58 253.499C543.628 253.089 544.032 252.664 544.792 252.226L545.253 251.96C545.891 251.591 546.554 251.381 547.241 251.33C547.928 251.278 548.567 251.376 549.157 251.624L548.066 252.254C547.807 252.16 547.52 252.135 547.205 252.177C546.881 252.214 546.554 252.328 546.223 252.519L545.762 252.785C545.35 253.023 545.123 253.243 545.083 253.443C545.051 253.639 545.188 253.826 545.495 254.003C545.77 254.162 546.053 254.232 546.344 254.213C546.635 254.195 546.983 254.101 547.387 253.933L548.429 253.499C549.262 253.149 549.993 252.97 550.624 252.96C551.263 252.946 551.873 253.107 552.455 253.443C553.069 253.798 553.356 254.192 553.316 254.626C553.275 255.051 552.859 255.492 552.067 255.949L551.558 256.243ZM559.664 251.451C559.09 251.783 558.488 251.953 557.858 251.962C557.235 251.967 556.645 251.808 556.087 251.486L552.171 249.225L550.292 250.31L549.298 249.736L551.177 248.651L549.298 247.567L550.389 246.937L552.268 248.022L554.936 246.482L555.93 247.056L553.262 248.595L557.179 250.856C557.688 251.15 558.185 251.157 558.67 250.877L560.489 249.827L561.483 250.401L559.664 251.451ZM566.328 247.744C566.021 247.922 565.685 248.013 565.322 248.017C564.966 248.017 564.639 247.931 564.34 247.758C564.024 247.576 563.863 247.38 563.855 247.17C563.855 246.956 564.008 246.76 564.315 246.582C564.622 246.405 564.958 246.319 565.322 246.323C565.693 246.323 566.037 246.414 566.352 246.596C566.651 246.769 566.797 246.96 566.789 247.17C566.789 247.376 566.635 247.567 566.328 247.744ZM573.137 246.193L564.286 241.083L565.378 240.453L566.651 241.188L566.869 241.062L566.905 241.335C566.396 241.041 566.162 240.715 566.202 240.355C566.242 239.987 566.537 239.644 567.087 239.327C567.758 238.939 568.514 238.76 569.354 238.788C570.195 238.806 570.999 239.037 571.767 239.481L573.719 240.607C574.229 240.901 574.576 241.209 574.762 241.531C574.956 241.849 574.988 242.161 574.859 242.469C574.738 242.773 574.451 243.055 573.998 243.316C573.457 243.629 572.867 243.797 572.228 243.82C571.589 243.844 571.02 243.711 570.518 243.421L570.991 243.442L570.749 243.582L572.289 244.443L574.229 245.563L573.137 246.193ZM572.689 242.98C573.149 242.714 573.372 242.427 573.356 242.119C573.347 241.807 573.085 241.501 572.567 241.202L570.749 240.153C570.231 239.854 569.702 239.702 569.16 239.698C568.627 239.688 568.13 239.817 567.669 240.083C567.225 240.339 567.01 240.626 567.026 240.943C567.043 241.261 567.301 241.564 567.802 241.853L569.621 242.903C570.122 243.193 570.648 243.342 571.197 243.351C571.747 243.361 572.244 243.237 572.689 242.98ZM578.455 240.603L571.787 236.753L572.854 236.137L574.127 236.872L574.381 236.725L574.818 237.383C574.098 236.968 573.71 236.567 573.654 236.179C573.597 235.783 573.876 235.407 574.491 235.053C575.194 234.647 575.974 234.453 576.831 234.472C577.687 234.481 578.492 234.703 579.243 235.137L579.643 235.368L578.552 235.998L578.249 235.823C577.724 235.519 577.194 235.363 576.661 235.354C576.127 235.335 575.626 235.461 575.157 235.732C574.697 235.998 574.474 236.289 574.491 236.606C574.515 236.919 574.786 237.225 575.303 237.523L579.546 239.973L578.455 240.603ZM585.41 236.588L584.416 236.014L586.78 234.649L582.1 231.948L580.039 233.137L579.045 232.563L582.197 230.744L587.871 234.019L590.114 232.724L591.109 233.298L585.41 236.588ZM580.33 230.436C580.063 230.59 579.784 230.671 579.493 230.681C579.202 230.69 578.94 230.627 578.705 230.492C578.463 230.352 578.349 230.198 578.366 230.03C578.374 229.857 578.511 229.694 578.778 229.54C579.045 229.386 579.328 229.306 579.627 229.302C579.918 229.292 580.184 229.358 580.427 229.498C580.661 229.633 580.77 229.785 580.754 229.953C580.738 230.121 580.597 230.282 580.33 230.436ZM595.178 231.061C594.725 231.323 594.26 231.512 593.783 231.628C593.307 231.736 592.838 231.773 592.377 231.74C591.924 231.703 591.5 231.593 591.104 231.411L592.195 230.781C592.478 230.889 592.793 230.921 593.141 230.879C593.496 230.833 593.852 230.707 594.208 230.501L594.717 230.207C595.145 229.96 595.38 229.727 595.42 229.507C595.453 229.283 595.323 229.087 595.032 228.919C594.749 228.756 594.43 228.684 594.074 228.702C593.719 228.712 593.327 228.807 592.898 228.989L591.856 229.423C591.088 229.736 590.397 229.902 589.782 229.92C589.168 229.93 588.578 229.771 588.012 229.444C587.414 229.099 587.143 228.723 587.2 228.317C587.248 227.907 587.652 227.482 588.412 227.044L588.873 226.778C589.512 226.409 590.174 226.199 590.861 226.148C591.548 226.096 592.187 226.194 592.777 226.442L591.686 227.072C591.427 226.978 591.14 226.953 590.825 226.995C590.502 227.032 590.174 227.146 589.843 227.338L589.382 227.604C588.97 227.842 588.744 228.061 588.703 228.261C588.671 228.457 588.808 228.644 589.115 228.821C589.39 228.98 589.673 229.05 589.964 229.031C590.255 229.013 590.603 228.919 591.007 228.751L592.05 228.317C592.882 227.968 593.614 227.788 594.244 227.779C594.883 227.765 595.493 227.926 596.075 228.261C596.689 228.616 596.976 229.01 596.936 229.444C596.895 229.869 596.479 230.31 595.687 230.767L595.178 231.061ZM599.72 228.327L593.051 224.477L594.009 223.924L594.809 224.386L595.028 224.26L595.149 224.526C594.777 224.312 594.579 224.085 594.555 223.848C594.539 223.605 594.7 223.386 595.04 223.19C595.411 222.975 595.836 222.889 596.313 222.931C596.79 222.973 597.279 223.138 597.78 223.428L596.798 223.239L597.307 222.945L597.368 223.246C596.996 223.031 596.802 222.802 596.786 222.56C596.778 222.312 596.943 222.091 597.283 221.895C597.703 221.652 598.184 221.556 598.726 221.608C599.275 221.654 599.809 221.827 600.326 222.126L605.394 225.051L604.388 225.632L599.308 222.7C599.033 222.541 598.758 222.452 598.483 222.434C598.216 222.41 597.97 222.464 597.743 222.595C597.525 222.721 597.428 222.865 597.452 223.029C597.477 223.183 597.626 223.339 597.901 223.498L602.993 226.437L602.12 226.941L597.04 224.008C596.757 223.845 596.478 223.759 596.204 223.75C595.929 223.731 595.678 223.787 595.452 223.917C595.226 224.048 595.133 224.19 595.173 224.344C595.205 224.494 595.359 224.648 595.634 224.806L600.726 227.746L599.72 228.327ZM609.366 222.898C608.663 223.304 607.931 223.521 607.172 223.549C606.404 223.573 605.713 223.407 605.098 223.052C604.476 222.693 604.189 222.294 604.238 221.855C604.286 221.417 604.654 220.999 605.341 220.602L607.402 219.413L606.735 219.028C606.323 218.79 605.882 218.68 605.414 218.699C604.945 218.708 604.484 218.843 604.031 219.105C603.635 219.333 603.389 219.574 603.292 219.826C603.187 220.073 603.255 220.29 603.498 220.476L602.407 221.106C601.906 220.733 601.72 220.313 601.849 219.846C601.978 219.38 602.395 218.944 603.098 218.538C603.866 218.094 604.67 217.859 605.511 217.831C606.351 217.803 607.111 217.985 607.79 218.377L612.373 221.022L611.306 221.638L610.033 220.903L609.851 221.008L609.851 220.798C610.336 221.078 610.53 221.41 610.433 221.792C610.344 222.17 609.989 222.539 609.366 222.898ZM608.772 222.247C609.289 221.949 609.584 221.629 609.657 221.288C609.73 220.948 609.564 220.661 609.16 220.427L608.214 219.881L606.177 221.057C605.814 221.267 605.628 221.491 605.62 221.729C605.612 221.967 605.781 222.187 606.129 222.387C606.501 222.602 606.921 222.7 607.39 222.681C607.859 222.653 608.319 222.509 608.772 222.247Z"></path>
<rect fill="#2D3748" transform="matrix(0.866044 -0.499967 0.866044 0.499967 532.623 285.062)" rx="3.5" height="10.5" width="172.5"></rect>
<rect fill="#2D3748" transform="matrix(0.866044 -0.499967 0.866044 0.499967 548.645 294.312)" rx="3.5" height="10.5" width="292.153" opacity="0.9"></rect>
<rect fill="#2D3748" transform="matrix(0.866044 -0.499967 0.866044 0.499967 564.667 303.562)" rx="3.5" height="10.5" width="115" opacity="0.7"></rect>
<rect fill="#2D3748" transform="matrix(0.866044 -0.499967 0.866044 0.499967 580.688 312.812)" rx="3.5" height="10.5" width="153.33" opacity="0.6"></rect>
<rect fill="#2D3748" transform="matrix(0.866044 -0.499967 0.866044 0.499967 596.71 322.062)" rx="3.5" height="10.5" width="76.66" opacity="0.5"></rect>
<rect fill="#2D3748" transform="matrix(0.866044 -0.499967 0.866044 0.499967 612.732 331.312)" rx="3.5" height="10.5" width="292.153" opacity="0.4"></rect>
<rect fill="#2D3748" transform="matrix(0.866044 -0.499967 0.866044 0.499967 628.754 340.562)" rx="3.5" height="10.5" width="172.5" opacity="0.3"></rect>
<rect fill="#2D3748" transform="matrix(0.866044 -0.499967 0.866044 0.499967 644.776 349.805)" rx="3.5" height="10.5" width="115" opacity="0.2"></rect>
</g>
<g filter="url(#filter2_ddddddd_11938_8089)">
<path fill="#090A15" d="M479.578 192.445C475.393 190.029 475.393 186.112 479.578 183.696L752.081 26.3796C756.266 23.9635 763.052 23.9635 767.237 26.3796L1010.7 166.932C1014.89 169.348 1014.89 173.265 1010.7 175.681L738.199 332.997C734.013 335.413 727.228 335.413 723.043 332.997L479.578 192.445Z"></path>
<path stroke="#71E8DF" d="M480.011 183.946L752.514 26.6297C756.46 24.3516 762.858 24.3516 766.804 26.6297L1010.27 167.182C1014.21 169.46 1014.21 173.153 1010.27 175.431L737.766 332.747C733.82 335.025 727.422 335.025 723.476 332.747L480.011 192.195C476.188 189.988 476.069 186.453 479.652 184.163L480.011 183.946Z"></path>
<path fill="#E2E8F0" d="M507.941 187.07L511.73 184.883L514.761 186.633C515.187 186.879 515.85 186.879 516.277 186.633L519.308 184.883L526.128 188.82C526.98 189.312 526.957 190.092 526.128 190.57L520.066 194.07C519.213 194.562 517.887 194.562 517.034 194.07L507.941 188.82C507.112 188.342 507.088 187.563 507.941 187.07ZM512.488 184.446H518.55L515.519 186.195L512.488 184.446ZM516.892 189.805L516.869 189.818C516.892 189.558 516.537 189.353 516.087 189.367C515.637 189.353 515.282 189.558 515.306 189.818V191.131C515.282 191.39 515.637 191.595 516.087 191.582H518.361C518.81 191.595 519.166 191.39 519.166 191.117C519.166 190.871 518.81 190.666 518.361 190.652H516.892V189.805ZM518.739 187.809L518.763 187.822C518.289 187.822 517.934 188.027 517.958 188.287C517.934 188.547 518.289 188.752 518.739 188.738H520.208V189.586C520.208 189.859 520.563 190.064 521.013 190.051C521.463 190.064 521.818 189.859 521.818 189.586V188.273C521.818 188.027 521.463 187.822 521.013 187.809H518.739Z"></path>
<path fill="#E2E8F0" d="M537.296 182.512C536.763 182.82 536.193 183.032 535.587 183.149C534.989 183.261 534.39 183.27 533.792 183.177C533.186 183.079 532.62 182.878 532.095 182.575L530.276 181.525C529.743 181.217 529.395 180.89 529.233 180.545C529.072 180.2 529.088 179.855 529.282 179.509C529.484 179.159 529.852 178.83 530.385 178.522C531.153 178.079 531.978 177.841 532.859 177.808C533.74 177.776 534.548 177.958 535.284 178.354L534.192 178.984C533.74 178.751 533.267 178.646 532.774 178.669C532.281 178.683 531.808 178.821 531.355 179.082C530.878 179.358 530.636 179.656 530.628 179.978C530.612 180.296 530.854 180.599 531.355 180.888L533.186 181.945C533.687 182.234 534.217 182.377 534.774 182.372C535.332 182.367 535.849 182.227 536.326 181.952C536.779 181.691 537.017 181.418 537.042 181.133C537.074 180.844 536.892 180.571 536.496 180.314L537.587 179.684C538.274 180.109 538.59 180.576 538.533 181.084C538.476 181.593 538.064 182.069 537.296 182.512ZM543.936 178.679C543.233 179.085 542.501 179.302 541.741 179.33C540.973 179.353 540.282 179.188 539.668 178.833C539.046 178.474 538.759 178.075 538.807 177.636C538.856 177.197 539.223 176.78 539.911 176.383L541.972 175.193L541.305 174.808C540.893 174.57 540.452 174.461 539.983 174.479C539.514 174.489 539.054 174.624 538.601 174.885C538.205 175.114 537.958 175.354 537.861 175.606C537.756 175.854 537.825 176.071 538.068 176.257L536.976 176.887C536.475 176.514 536.289 176.094 536.419 175.627C536.548 175.161 536.964 174.724 537.667 174.318C538.435 173.875 539.24 173.639 540.08 173.611C540.921 173.583 541.681 173.765 542.36 174.157L546.943 176.803L545.876 177.419L544.603 176.684L544.421 176.789L544.421 176.579C544.906 176.859 545.1 177.19 545.003 177.573C544.914 177.951 544.558 178.32 543.936 178.679ZM543.342 178.028C543.859 177.729 544.154 177.41 544.227 177.069C544.3 176.729 544.134 176.442 543.73 176.208L542.784 175.662L540.747 176.838C540.383 177.048 540.197 177.272 540.189 177.51C540.181 177.748 540.351 177.967 540.699 178.168C541.07 178.383 541.491 178.481 541.96 178.462C542.428 178.434 542.889 178.289 543.342 178.028ZM552.394 173.656C551.82 173.987 551.218 174.158 550.588 174.167C549.965 174.172 549.375 174.013 548.817 173.691L544.901 171.43L543.022 172.515L542.028 171.941L543.907 170.856L542.028 169.771L543.119 169.141L544.998 170.226L547.666 168.686L548.66 169.26L545.992 170.8L549.909 173.061C550.418 173.355 550.915 173.362 551.4 173.082L553.219 172.032L554.213 172.606L552.394 173.656ZM559.058 169.949C558.533 170.252 557.967 170.458 557.361 170.565C556.762 170.668 556.164 170.672 555.566 170.579C554.968 170.476 554.414 170.278 553.905 169.984L552.086 168.934C551.569 168.635 551.225 168.316 551.056 167.975C550.894 167.63 550.902 167.285 551.08 166.939C551.266 166.589 551.622 166.263 552.147 165.959C552.672 165.656 553.234 165.453 553.832 165.35C554.438 165.243 555.037 165.238 555.627 165.336C556.225 165.43 556.783 165.626 557.3 165.924L558.476 166.603L554.329 168.997L554.972 169.368C555.497 169.671 556.035 169.828 556.585 169.837C557.126 169.842 557.643 169.702 558.136 169.417C558.557 169.174 558.824 168.936 558.937 168.703C559.042 168.465 558.973 168.244 558.731 168.038L559.822 167.408C560.307 167.772 560.477 168.188 560.331 168.654C560.186 169.111 559.761 169.543 559.058 169.949ZM556.682 166.799L556.233 166.54C555.708 166.237 555.17 166.081 554.62 166.071C554.079 166.057 553.557 166.195 553.056 166.484C552.563 166.769 552.325 167.07 552.341 167.387C552.357 167.705 552.628 168.015 553.153 168.318L553.505 168.521L556.669 166.694L556.682 166.799ZM566.704 167.915L565.71 167.341L567.831 166.116C568.171 165.92 568.341 165.733 568.341 165.556C568.349 165.374 568.191 165.19 567.868 165.003L567.019 164.513L565.831 163.799L565.613 163.925L565.637 163.701C566.122 163.981 566.344 164.296 566.304 164.646C566.263 164.996 565.972 165.327 565.431 165.64C564.744 166.037 563.98 166.221 563.139 166.193C562.29 166.16 561.486 165.925 560.726 165.486L559.32 164.674C558.56 164.236 558.156 163.774 558.107 163.288C558.059 162.803 558.378 162.362 559.065 161.965C559.607 161.653 560.181 161.485 560.787 161.461C561.393 161.438 561.939 161.566 562.424 161.846L562.036 161.86L562.242 161.741L560.969 161.006L562.048 160.383L568.959 164.373C569.557 164.718 569.844 165.099 569.82 165.514C569.804 165.925 569.468 166.319 568.814 166.697L566.704 167.915ZM564.812 164.905C565.265 164.644 565.479 164.357 565.455 164.044C565.431 163.732 565.168 163.431 564.667 163.141L563.394 162.406C562.893 162.117 562.371 161.965 561.83 161.951C561.288 161.937 560.791 162.061 560.338 162.322C559.878 162.588 559.655 162.875 559.672 163.183C559.696 163.487 559.967 163.788 560.484 164.086L561.757 164.821C562.274 165.12 562.796 165.276 563.321 165.29C563.855 165.299 564.352 165.171 564.812 164.905ZM573.574 161.541C573.04 161.849 572.479 162.057 571.888 162.164C571.298 162.271 570.704 162.278 570.106 162.185C569.508 162.082 568.946 161.879 568.421 161.576L566.651 160.554C566.117 160.246 565.766 159.922 565.596 159.581C565.434 159.236 565.446 158.893 565.632 158.552C565.818 158.212 566.178 157.887 566.711 157.579C567.245 157.271 567.806 157.064 568.397 156.956C568.987 156.849 569.577 156.844 570.167 156.942C570.765 157.036 571.327 157.234 571.852 157.537L573.634 158.566C574.16 158.87 574.507 159.196 574.677 159.546C574.847 159.887 574.839 160.228 574.653 160.568C574.467 160.909 574.107 161.233 573.574 161.541ZM572.604 160.981C573.081 160.706 573.319 160.414 573.319 160.106C573.319 159.798 573.06 159.495 572.543 159.196L570.773 158.174C570.256 157.876 569.73 157.726 569.197 157.726C568.663 157.726 568.158 157.864 567.681 158.139C567.212 158.41 566.974 158.702 566.966 159.014C566.966 159.322 567.225 159.626 567.742 159.924L569.512 160.946C570.029 161.245 570.555 161.394 571.088 161.394C571.63 161.389 572.135 161.252 572.604 160.981ZM578.455 158.611L571.787 154.761L572.854 154.145L574.127 154.88L574.381 154.733L574.818 155.391C574.098 154.976 573.71 154.575 573.654 154.187C573.597 153.791 573.876 153.415 574.491 153.06C575.194 152.654 575.974 152.461 576.831 152.479C577.687 152.489 578.492 152.71 579.243 153.144L579.643 153.375L578.552 154.005L578.249 153.83C577.724 153.527 577.194 153.371 576.661 153.361C576.127 153.343 575.626 153.469 575.157 153.739C574.697 154.005 574.474 154.297 574.491 154.614C574.515 154.927 574.786 155.233 575.303 155.531L579.546 157.981L578.455 158.611ZM588.72 155.205L587.108 153.14L578.378 150.956L579.59 150.256L585.265 151.74C585.459 151.787 585.677 151.852 585.919 151.936C586.154 152.016 586.352 152.083 586.513 152.139C586.416 152.046 586.299 151.932 586.162 151.796C586.016 151.656 585.899 151.533 585.81 151.425L583.143 148.205L584.319 147.526L589.884 154.533L588.72 155.205ZM595.408 148.964C595.101 149.141 594.766 149.232 594.402 149.237C594.046 149.237 593.719 149.151 593.42 148.978C593.104 148.796 592.943 148.6 592.935 148.39C592.935 148.176 593.088 147.98 593.395 147.802C593.703 147.625 594.038 147.539 594.402 147.543C594.774 147.543 595.117 147.634 595.432 147.816C595.731 147.989 595.877 148.18 595.869 148.39C595.869 148.595 595.715 148.787 595.408 148.964ZM602.217 147.413L593.366 142.303L594.458 141.673L595.731 142.408L595.949 142.282L595.985 142.555C595.476 142.261 595.242 141.935 595.282 141.575C595.323 141.207 595.618 140.864 596.167 140.546C596.838 140.159 597.594 139.979 598.435 140.007C599.275 140.026 600.079 140.257 600.847 140.7L602.799 141.827C603.309 142.121 603.656 142.429 603.842 142.751C604.036 143.069 604.068 143.381 603.939 143.689C603.818 143.993 603.531 144.275 603.078 144.536C602.537 144.849 601.947 145.017 601.308 145.04C600.67 145.063 600.1 144.93 599.599 144.641L600.071 144.662L599.829 144.802L601.369 145.663L603.309 146.783L602.217 147.413ZM601.769 144.2C602.23 143.934 602.452 143.647 602.436 143.339C602.428 143.027 602.165 142.721 601.648 142.422L599.829 141.372C599.312 141.074 598.782 140.922 598.241 140.917C597.707 140.908 597.21 141.036 596.749 141.302C596.305 141.559 596.09 141.846 596.107 142.163C596.123 142.481 596.381 142.784 596.883 143.073L598.701 144.123C599.202 144.412 599.728 144.562 600.277 144.571C600.827 144.58 601.324 144.457 601.769 144.2ZM607.535 141.823L600.867 137.973L601.934 137.357L603.207 138.092L603.462 137.945L603.898 138.603C603.179 138.188 602.791 137.787 602.734 137.399C602.677 137.003 602.956 136.627 603.571 136.272C604.274 135.866 605.054 135.673 605.911 135.691C606.768 135.701 607.572 135.922 608.324 136.356L608.724 136.587L607.632 137.217L607.329 137.042C606.804 136.739 606.274 136.583 605.741 136.573C605.207 136.555 604.706 136.681 604.238 136.951C603.777 137.217 603.554 137.509 603.571 137.826C603.595 138.139 603.866 138.445 604.383 138.743L608.627 141.193L607.535 141.823ZM614.49 137.808L613.496 137.234L615.86 135.869L611.18 133.167L609.119 134.357L608.125 133.783L611.277 131.963L616.951 135.239L619.195 133.944L620.189 134.518L614.49 137.808ZM609.41 131.655C609.143 131.809 608.864 131.891 608.573 131.9C608.282 131.91 608.02 131.847 607.785 131.711C607.543 131.571 607.43 131.417 607.446 131.249C607.454 131.077 607.591 130.913 607.858 130.76C608.125 130.606 608.408 130.526 608.707 130.522C608.998 130.512 609.264 130.578 609.507 130.718C609.741 130.853 609.851 131.004 609.834 131.172C609.818 131.34 609.677 131.501 609.41 131.655ZM624.258 132.281C623.805 132.542 623.34 132.731 622.864 132.848C622.387 132.955 621.918 132.993 621.457 132.96C621.004 132.923 620.58 132.813 620.184 132.631L621.275 132.001C621.558 132.108 621.873 132.141 622.221 132.099C622.577 132.052 622.932 131.926 623.288 131.721L623.797 131.427C624.226 131.18 624.46 130.947 624.5 130.727C624.533 130.503 624.403 130.307 624.112 130.139C623.83 129.976 623.51 129.904 623.155 129.922C622.799 129.932 622.407 130.027 621.978 130.209L620.936 130.643C620.168 130.956 619.477 131.122 618.862 131.14C618.248 131.15 617.658 130.991 617.092 130.664C616.494 130.319 616.223 129.943 616.28 129.537C616.328 129.127 616.733 128.702 617.492 128.263L617.953 127.997C618.592 127.629 619.254 127.419 619.942 127.367C620.629 127.316 621.267 127.414 621.857 127.661L620.766 128.291C620.507 128.198 620.22 128.172 619.905 128.214C619.582 128.252 619.254 128.366 618.923 128.557L618.462 128.823C618.05 129.061 617.824 129.281 617.783 129.481C617.751 129.677 617.888 129.864 618.196 130.041C618.47 130.2 618.753 130.27 619.044 130.251C619.335 130.233 619.683 130.139 620.087 129.971L621.13 129.537C621.962 129.187 622.694 129.008 623.324 128.998C623.963 128.984 624.573 129.145 625.155 129.481C625.769 129.836 626.056 130.23 626.016 130.664C625.976 131.089 625.559 131.53 624.767 131.987L624.258 132.281ZM628.8 129.547L622.131 125.697L623.089 125.144L623.889 125.606L624.108 125.48L624.229 125.746C623.857 125.532 623.659 125.305 623.635 125.067C623.619 124.825 623.78 124.605 624.12 124.409C624.492 124.195 624.916 124.108 625.393 124.15C625.87 124.192 626.359 124.358 626.86 124.647L625.878 124.458L626.387 124.164L626.448 124.465C626.076 124.251 625.882 124.022 625.866 123.779C625.858 123.532 626.023 123.31 626.363 123.114C626.783 122.872 627.264 122.776 627.806 122.827C628.355 122.874 628.889 123.047 629.406 123.345L634.474 126.271L633.468 126.852L628.388 123.919C628.113 123.761 627.838 123.672 627.563 123.653C627.296 123.63 627.05 123.684 626.824 123.814C626.605 123.94 626.508 124.085 626.533 124.248C626.557 124.402 626.706 124.559 626.981 124.717L632.074 127.657L631.201 128.161L626.12 125.228C625.837 125.065 625.559 124.979 625.284 124.969C625.009 124.951 624.758 125.007 624.532 125.137C624.306 125.268 624.213 125.41 624.253 125.564C624.286 125.714 624.439 125.868 624.714 126.026L629.806 128.966L628.8 129.547ZM638.446 124.118C637.743 124.524 637.012 124.741 636.252 124.769C635.484 124.792 634.793 124.627 634.178 124.272C633.556 123.913 633.269 123.514 633.318 123.075C633.366 122.637 633.734 122.219 634.421 121.822L636.482 120.632L635.815 120.247C635.403 120.009 634.963 119.9 634.494 119.918C634.025 119.928 633.564 120.063 633.112 120.324C632.715 120.553 632.469 120.793 632.372 121.045C632.267 121.293 632.336 121.51 632.578 121.696L631.487 122.326C630.986 121.953 630.8 121.533 630.929 121.066C631.058 120.6 631.475 120.163 632.178 119.757C632.946 119.314 633.75 119.078 634.591 119.05C635.431 119.022 636.191 119.204 636.87 119.596L641.453 122.242L640.386 122.858L639.113 122.123L638.931 122.228L638.931 122.018C639.416 122.298 639.61 122.63 639.513 123.012C639.424 123.39 639.069 123.759 638.446 124.118ZM637.852 123.467C638.37 123.169 638.665 122.849 638.737 122.508C638.81 122.168 638.644 121.881 638.24 121.647L637.295 121.101L635.258 122.277C634.894 122.487 634.708 122.711 634.7 122.949C634.692 123.187 634.862 123.407 635.209 123.607C635.581 123.822 636.001 123.92 636.47 123.901C636.939 123.873 637.4 123.729 637.852 123.467Z"></path>
<rect fill="#2D3748" transform="matrix(0.866044 -0.499967 0.866044 0.499967 532.623 203.07)" rx="3.5" height="10.5" width="172.5"></rect>
<rect fill="#2D3748" transform="matrix(0.866044 -0.499967 0.866044 0.499967 548.645 212.32)" rx="3.5" height="10.5" width="292.153" opacity="0.9"></rect>
<rect fill="#2D3748" transform="matrix(0.866044 -0.499967 0.866044 0.499967 564.667 221.57)" rx="3.5" height="10.5" width="115" opacity="0.7"></rect>
<rect fill="#2D3748" transform="matrix(0.866044 -0.499967 0.866044 0.499967 580.688 230.82)" rx="3.5" height="10.5" width="153.33" opacity="0.6"></rect>
<rect fill="#2D3748" transform="matrix(0.866044 -0.499967 0.866044 0.499967 596.71 240.07)" rx="3.5" height="10.5" width="76.66" opacity="0.5"></rect>
<rect fill="#2D3748" transform="matrix(0.866044 -0.499967 0.866044 0.499967 612.732 249.32)" rx="3.5" height="10.5" width="292.153" opacity="0.4"></rect>
<rect fill="#2D3748" transform="matrix(0.866044 -0.499967 0.866044 0.499967 628.754 258.57)" rx="3.5" height="10.5" width="172.5" opacity="0.3"></rect>
<rect fill="#2D3748" transform="matrix(0.866044 -0.499967 0.866044 0.499967 644.776 267.812)" rx="3.5" height="10.5" width="115" opacity="0.2"></rect>
</g>
<g filter="url(#filter3_dddddd_11938_8089)">
<path fill="white" d="M48.3484 62.5245C47.8772 63.2281 47.8845 64.1159 48.3672 64.8129L57.1047 77.4291C57.6718 78.248 58.7648 78.6213 59.7793 78.3428L84.9937 71.4188C86.3697 71.041 87.062 69.636 86.4605 68.4418L70.2515 36.2574C69.4611 34.6879 67.0781 34.5591 66.0913 36.0325L48.3484 62.5245ZM69.8209 43.6151C69.4764 42.8854 68.3098 42.9978 68.1388 43.7772L61.8984 72.2186C61.7668 72.8183 62.3802 73.3304 63.0206 73.1554L80.4416 68.3954C80.9501 68.2564 81.2121 67.7423 81.0016 67.2964L69.8209 43.6151Z" clip-rule="evenodd" fill-rule="evenodd"></path>
</g>
<rect fill="#16A394" rx="21" height="42" width="89" y="110" x="43"></rect>
<path fill="white" d="M63.446 138C63.326 138 63.248 137.94 63.212 137.82L59.504 125.652L59.486 125.58C59.486 125.46 59.552 125.4 59.684 125.4H61.952C62.084 125.4 62.168 125.46 62.204 125.58L64.598 134.364C64.61 134.4 64.628 134.418 64.652 134.418C64.676 134.418 64.694 134.4 64.706 134.364L67.064 125.58C67.1 125.46 67.184 125.4 67.316 125.4H69.53C69.602 125.4 69.656 125.424 69.692 125.472C69.728 125.52 69.734 125.58 69.71 125.652L65.948 137.82C65.912 137.94 65.834 138 65.714 138H63.446ZM79.0353 132.258C79.2153 132.846 79.3053 133.416 79.3053 133.968C79.3053 134.58 79.2093 135.132 79.0173 135.624C78.7413 136.392 78.2553 137.004 77.5593 137.46C76.8633 137.904 76.0473 138.126 75.1113 138.126C74.1993 138.126 73.3953 137.91 72.6993 137.478C72.0153 137.034 71.5293 136.434 71.2413 135.678C71.1213 135.366 71.0313 135.036 70.9713 134.688V134.652C70.9713 134.52 71.0433 134.454 71.1873 134.454H73.3653C73.4853 134.454 73.5633 134.52 73.5993 134.652C73.6113 134.724 73.6293 134.784 73.6533 134.832C73.6773 134.88 73.6953 134.922 73.7073 134.958C73.8273 135.27 74.0073 135.51 74.2473 135.678C74.4873 135.846 74.7693 135.93 75.0933 135.93C75.4293 135.93 75.7233 135.84 75.9753 135.66C76.2273 135.48 76.4133 135.228 76.5333 134.904C76.6533 134.664 76.7133 134.352 76.7133 133.968C76.7133 133.62 76.6593 133.308 76.5513 133.032C76.4673 132.72 76.2993 132.48 76.0473 132.312C75.7953 132.144 75.5013 132.06 75.1653 132.06C74.8293 132.06 74.5173 132.138 74.2293 132.294C73.9413 132.45 73.7493 132.654 73.6533 132.906C73.6173 133.026 73.5393 133.086 73.4193 133.086H71.2053C71.1453 133.086 71.0913 133.068 71.0433 133.032C71.0073 132.984 70.9893 132.93 70.9893 132.87V125.616C70.9893 125.556 71.0073 125.508 71.0433 125.472C71.0913 125.424 71.1453 125.4 71.2053 125.4H78.6393C78.6993 125.4 78.7473 125.424 78.7833 125.472C78.8313 125.508 78.8553 125.556 78.8553 125.616V127.362C78.8553 127.422 78.8313 127.476 78.7833 127.524C78.7473 127.56 78.6993 127.578 78.6393 127.578H73.6173C73.5573 127.578 73.5273 127.608 73.5273 127.668L73.5093 130.332C73.5093 130.416 73.5453 130.434 73.6173 130.386C74.1573 130.038 74.7813 129.864 75.4893 129.864C76.3293 129.864 77.0613 130.08 77.6853 130.512C78.3213 130.932 78.7713 131.514 79.0353 132.258ZM82.2404 138.072C81.8324 138.072 81.4904 137.94 81.2144 137.676C80.9504 137.4 80.8184 137.058 80.8184 136.65C80.8184 136.23 80.9504 135.888 81.2144 135.624C81.4784 135.36 81.8204 135.228 82.2404 135.228C82.6604 135.228 83.0024 135.36 83.2664 135.624C83.5304 135.888 83.6624 136.23 83.6624 136.65C83.6624 137.058 83.5244 137.4 83.2484 137.676C82.9844 137.94 82.6484 138.072 82.2404 138.072ZM87.452 125.454C87.512 125.418 87.602 125.4 87.722 125.4H89.9C89.96 125.4 90.008 125.424 90.044 125.472C90.092 125.508 90.116 125.556 90.116 125.616V137.784C90.116 137.844 90.092 137.898 90.044 137.946C90.008 137.982 89.96 138 89.9 138H87.794C87.734 138 87.68 137.982 87.632 137.946C87.596 137.898 87.578 137.844 87.578 137.784V127.92C87.578 127.896 87.566 127.872 87.542 127.848C87.518 127.824 87.494 127.818 87.47 127.83L85.688 128.316L85.616 128.334C85.508 128.334 85.454 128.268 85.454 128.136L85.4 126.588C85.4 126.468 85.454 126.384 85.562 126.336L87.452 125.454ZM99.9532 132.258C100.133 132.846 100.223 133.416 100.223 133.968C100.223 134.58 100.127 135.132 99.9352 135.624C99.6592 136.392 99.1732 137.004 98.4772 137.46C97.7812 137.904 96.9652 138.126 96.0292 138.126C95.1172 138.126 94.3132 137.91 93.6172 137.478C92.9332 137.034 92.4472 136.434 92.1592 135.678C92.0392 135.366 91.9492 135.036 91.8892 134.688V134.652C91.8892 134.52 91.9612 134.454 92.1052 134.454H94.2832C94.4032 134.454 94.4812 134.52 94.5172 134.652C94.5292 134.724 94.5472 134.784 94.5712 134.832C94.5952 134.88 94.6132 134.922 94.6252 134.958C94.7452 135.27 94.9252 135.51 95.1652 135.678C95.4052 135.846 95.6872 135.93 96.0112 135.93C96.3472 135.93 96.6412 135.84 96.8932 135.66C97.1452 135.48 97.3312 135.228 97.4512 134.904C97.5712 134.664 97.6312 134.352 97.6312 133.968C97.6312 133.62 97.5772 133.308 97.4692 133.032C97.3852 132.72 97.2172 132.48 96.9652 132.312C96.7132 132.144 96.4192 132.06 96.0832 132.06C95.7472 132.06 95.4352 132.138 95.1472 132.294C94.8592 132.45 94.6672 132.654 94.5712 132.906C94.5352 133.026 94.4572 133.086 94.3372 133.086H92.1232C92.0632 133.086 92.0092 133.068 91.9612 133.032C91.9252 132.984 91.9072 132.93 91.9072 132.87V125.616C91.9072 125.556 91.9252 125.508 91.9612 125.472C92.0092 125.424 92.0632 125.4 92.1232 125.4H99.5572C99.6172 125.4 99.6652 125.424 99.7012 125.472C99.7492 125.508 99.7732 125.556 99.7732 125.616V127.362C99.7732 127.422 99.7492 127.476 99.7012 127.524C99.6652 127.56 99.6172 127.578 99.5572 127.578H94.5352C94.4752 127.578 94.4452 127.608 94.4452 127.668L94.4272 130.332C94.4272 130.416 94.4632 130.434 94.5352 130.386C95.0752 130.038 95.6992 129.864 96.4072 129.864C97.2472 129.864 97.9792 130.08 98.6032 130.512C99.2392 130.932 99.6892 131.514 99.9532 132.258ZM103.158 138.072C102.75 138.072 102.408 137.94 102.132 137.676C101.868 137.4 101.736 137.058 101.736 136.65C101.736 136.23 101.868 135.888 102.132 135.624C102.396 135.36 102.738 135.228 103.158 135.228C103.578 135.228 103.92 135.36 104.184 135.624C104.448 135.888 104.58 136.23 104.58 136.65C104.58 137.058 104.442 137.4 104.166 137.676C103.902 137.94 103.566 138.072 103.158 138.072ZM110.307 138.198C108.987 138.198 107.943 137.832 107.175 137.1C106.407 136.356 106.023 135.348 106.023 134.076V129.324C106.023 128.076 106.407 127.086 107.175 126.354C107.943 125.622 108.987 125.256 110.307 125.256C111.627 125.256 112.671 125.622 113.439 126.354C114.219 127.086 114.609 128.076 114.609 129.324V134.076C114.609 135.348 114.219 136.356 113.439 137.1C112.671 137.832 111.627 138.198 110.307 138.198ZM110.307 136.02C110.847 136.02 111.273 135.858 111.585 135.534C111.909 135.198 112.071 134.754 112.071 134.202V129.252C112.071 128.7 111.909 128.262 111.585 127.938C111.273 127.602 110.847 127.434 110.307 127.434C109.779 127.434 109.353 127.602 109.029 127.938C108.717 128.262 108.561 128.7 108.561 129.252V134.202C108.561 134.754 108.717 135.198 109.029 135.534C109.353 135.858 109.779 136.02 110.307 136.02Z"></path>
<path fill="white" d="M72.739 253.783C67.2607 253.783 62.4673 252.902 58.3586 251.141C54.2499 249.315 51.0543 246.739 48.7717 243.413C46.5543 240.087 45.4456 236.239 45.4456 231.87V230.5C45.4456 230.044 45.5761 229.685 45.8369 229.424C46.0978 229.163 46.4565 229.033 46.913 229.033H62.076C62.5325 229.033 62.8912 229.163 63.1521 229.424C63.4129 229.685 63.5434 230.044 63.5434 230.5V231.087C63.5434 232.913 64.489 234.544 66.3803 235.978C68.3368 237.348 70.9129 238.033 74.1085 238.033C76.5216 238.033 78.2498 237.544 79.2933 236.565C80.3367 235.522 80.8585 234.381 80.8585 233.141C80.8585 231.707 80.2063 230.631 78.902 229.913C77.5976 229.196 75.2172 228.315 71.7607 227.272L68.9238 226.489C62.4673 224.533 57.0543 221.924 52.6847 218.663C48.3152 215.402 46.1304 210.674 46.1304 204.479C46.1304 200.37 47.2391 196.75 49.4565 193.62C51.6739 190.424 54.7065 187.979 58.5543 186.283C62.4673 184.587 66.8368 183.74 71.6629 183.74C76.7498 183.74 81.3476 184.685 85.4563 186.576C89.6302 188.468 92.891 191.142 95.2388 194.598C97.6519 198.055 98.8584 202 98.8584 206.435V207.315C98.8584 207.772 98.7279 208.131 98.4671 208.392C98.2062 208.652 97.8475 208.783 97.391 208.783H82.228C81.7715 208.783 81.4128 208.652 81.152 208.392C80.8911 208.131 80.7607 207.772 80.7607 207.315V207.218C80.7607 205.261 79.8802 203.5 78.1194 201.935C76.3585 200.305 73.9781 199.489 70.9781 199.489C68.8912 199.489 67.2281 199.913 65.989 200.761C64.8151 201.609 64.2281 202.783 64.2281 204.283C64.2281 205.457 64.6521 206.468 65.4999 207.315C66.4129 208.098 67.7825 208.881 69.6085 209.663C71.4346 210.381 74.239 211.326 78.0215 212.5C78.5433 212.696 80.8259 213.413 84.8693 214.652C88.978 215.826 92.4019 218.011 95.141 221.207C97.8801 224.337 99.2497 228.152 99.2497 232.652C99.2497 237.022 98.141 240.804 95.9236 244C93.7062 247.13 90.6084 249.543 86.6302 251.239C82.652 252.935 78.0215 253.783 72.739 253.783ZM152.913 216.805C153.891 220.065 154.38 223.718 154.38 227.761C154.38 232.457 153.663 236.631 152.228 240.283C150.663 244.261 148.217 247.522 144.891 250.065C141.565 252.543 137.587 253.783 132.957 253.783C128.196 253.783 124.674 252.283 122.392 249.283C122.261 249.152 122.131 249.12 122 249.185C121.87 249.185 121.805 249.283 121.805 249.478V269.141C121.805 269.598 121.674 269.956 121.413 270.217C121.152 270.478 120.794 270.609 120.337 270.609H104.881C104.424 270.609 104.066 270.478 103.805 270.217C103.544 269.956 103.413 269.598 103.413 269.141V203.598C103.413 203.142 103.544 202.783 103.805 202.522C104.066 202.261 104.424 202.131 104.881 202.131H120.337C120.794 202.131 121.152 202.261 121.413 202.522C121.674 202.783 121.805 203.142 121.805 203.598V206.533C121.805 206.729 121.87 206.859 122 206.924C122.131 206.989 122.261 206.924 122.392 206.729C124.805 203.142 128.587 201.348 133.739 201.348C138.109 201.348 142.022 202.75 145.478 205.555C149 208.294 151.478 212.044 152.913 216.805ZM133.641 234.804C134.62 232.913 135.109 230.468 135.109 227.468C135.109 224.533 134.62 222.152 133.641 220.326C132.468 218.174 130.739 217.098 128.457 217.098C126.174 217.098 124.446 218.207 123.272 220.424C122.294 222.25 121.805 224.598 121.805 227.468C121.805 230.598 122.326 233.109 123.37 235C124.544 237.022 126.239 238.033 128.457 238.033C130.805 238.033 132.533 236.957 133.641 234.804ZM159.282 253C158.825 253 158.466 252.87 158.206 252.609C157.945 252.348 157.814 251.989 157.814 251.533V185.99C157.814 185.533 157.945 185.174 158.206 184.913C158.466 184.653 158.825 184.522 159.282 184.522H174.738C175.195 184.522 175.553 184.653 175.814 184.913C176.075 185.174 176.206 185.533 176.206 185.99V251.533C176.206 251.989 176.075 252.348 175.814 252.609C175.553 252.87 175.195 253 174.738 253H159.282ZM189.99 198.707C187.316 198.707 185.098 197.859 183.338 196.163C181.642 194.403 180.794 192.185 180.794 189.511C180.794 186.772 181.642 184.555 183.338 182.859C185.098 181.163 187.316 180.316 189.99 180.316C192.664 180.316 194.848 181.163 196.544 182.859C198.305 184.555 199.185 186.772 199.185 189.511C199.185 192.12 198.305 194.305 196.544 196.066C194.848 197.826 192.664 198.707 189.99 198.707ZM182.164 253C181.707 253 181.348 252.87 181.088 252.609C180.827 252.348 180.696 251.989 180.696 251.533V203.598C180.696 203.142 180.827 202.783 181.088 202.522C181.348 202.261 181.707 202.131 182.164 202.131H197.62C198.077 202.131 198.435 202.261 198.696 202.522C198.957 202.783 199.088 203.142 199.088 203.598V251.533C199.088 251.989 198.957 252.348 198.696 252.609C198.435 252.87 198.077 253 197.62 253H182.164ZM236.839 215.337C236.839 215.794 236.709 216.152 236.448 216.413C236.187 216.674 235.828 216.805 235.372 216.805H227.252C226.926 216.805 226.763 216.968 226.763 217.294V232.652C226.763 235.913 227.937 237.544 230.285 237.544H233.904C234.361 237.544 234.719 237.674 234.98 237.935C235.241 238.196 235.372 238.554 235.372 239.011V251.533C235.372 252.446 234.882 252.967 233.904 253.098C231.361 253.293 228.915 253.391 226.567 253.391C220.633 253.391 216.263 252.478 213.459 250.652C210.654 248.826 209.22 245.37 209.154 240.283V217.294C209.154 216.968 208.991 216.805 208.665 216.805H203.383C202.926 216.805 202.567 216.674 202.307 216.413C202.046 216.152 201.915 215.794 201.915 215.337V203.598C201.915 203.142 202.046 202.783 202.307 202.522C202.567 202.261 202.926 202.131 203.383 202.131H208.665C208.991 202.131 209.154 201.968 209.154 201.642V189.903C209.154 189.446 209.285 189.087 209.546 188.826C209.807 188.566 210.165 188.435 210.622 188.435H225.296C225.752 188.435 226.111 188.566 226.372 188.826C226.633 189.087 226.763 189.446 226.763 189.903V201.642C226.763 201.968 226.926 202.131 227.252 202.131H235.372C235.828 202.131 236.187 202.261 236.448 202.522C236.709 202.783 236.839 203.142 236.839 203.598V215.337ZM258.539 272.467C258.343 272.467 258.18 272.337 258.05 272.076C257.919 271.815 257.854 271.456 257.854 271V258.87C257.854 257.891 258.213 257.402 258.93 257.402C263.234 257.402 266.267 257.141 268.028 256.62C269.854 256.098 270.897 254.989 271.158 253.293L271.06 252.707L255.604 203.794C255.539 203.663 255.506 203.468 255.506 203.207C255.506 202.489 255.963 202.131 256.876 202.131H273.31C274.223 202.131 274.778 202.555 274.973 203.402L280.256 229.522C280.321 229.783 280.419 229.913 280.549 229.913C280.68 229.913 280.778 229.783 280.843 229.522L286.125 203.402C286.321 202.555 286.875 202.131 287.789 202.131H303.832C304.941 202.131 305.332 202.685 305.006 203.794L289.06 253.196C287.365 258.217 285.571 262.033 283.68 264.641C281.789 267.25 278.952 269.206 275.169 270.511C271.452 271.815 266.136 272.467 259.223 272.467H258.539ZM327.624 253.783C321.429 253.783 316.179 252.12 311.874 248.794C307.635 245.467 304.831 240.967 303.461 235.294C302.809 232.946 302.483 230.337 302.483 227.468C302.483 224.272 302.874 221.37 303.657 218.761C305.222 213.348 308.092 209.109 312.266 206.044C316.505 202.913 321.657 201.348 327.722 201.348C333.787 201.348 338.874 202.913 342.983 206.044C347.157 209.109 350.026 213.283 351.591 218.565C352.374 221.305 352.765 224.207 352.765 227.272C352.765 229.75 352.504 232.228 351.983 234.707C350.613 240.576 347.776 245.239 343.472 248.696C339.233 252.087 333.95 253.783 327.624 253.783ZM327.624 238.033C329.32 238.033 330.689 237.478 331.733 236.37C332.776 235.196 333.494 233.663 333.885 231.772C334.146 230.533 334.276 229.065 334.276 227.37C334.276 225.87 334.113 224.37 333.787 222.87C332.809 219.022 330.755 217.098 327.624 217.098C324.363 217.098 322.309 219.022 321.461 222.87C321.135 223.978 320.972 225.478 320.972 227.37C320.972 229.065 321.102 230.533 321.363 231.772C322.342 235.946 324.429 238.033 327.624 238.033ZM385.304 203.598C385.304 203.142 385.434 202.783 385.695 202.522C385.956 202.261 386.315 202.131 386.771 202.131H402.228C402.684 202.131 403.043 202.261 403.304 202.522C403.565 202.783 403.695 203.142 403.695 203.598V251.533C403.695 251.989 403.565 252.348 403.304 252.609C403.043 252.87 402.684 253 402.228 253H386.771C386.315 253 385.956 252.87 385.695 252.609C385.434 252.348 385.304 251.989 385.304 251.533V248.304C385.304 248.109 385.239 247.978 385.108 247.913C384.978 247.848 384.847 247.913 384.717 248.109C382.043 251.891 377.869 253.783 372.195 253.783C367.239 253.783 363.293 252.185 360.358 248.989C357.423 245.728 355.956 241.228 355.956 235.489V203.598C355.956 203.142 356.087 202.783 356.347 202.522C356.608 202.261 356.967 202.131 357.423 202.131H372.88C373.336 202.131 373.695 202.261 373.956 202.522C374.217 202.783 374.347 203.142 374.347 203.598V231.478C374.347 233.435 374.836 235.033 375.815 236.272C376.858 237.446 378.195 238.033 379.826 238.033C381.26 238.033 382.434 237.609 383.347 236.761C384.326 235.848 384.945 234.641 385.206 233.141C385.271 233.011 385.304 232.815 385.304 232.554V203.598ZM436.736 201.446C438.954 201.446 440.715 201.87 442.019 202.718C442.606 203.044 442.834 203.663 442.704 204.576L440.356 219.641C440.291 220.163 440.095 220.489 439.769 220.62C439.508 220.75 439.117 220.75 438.595 220.62C437.421 220.359 436.378 220.228 435.465 220.228C434.486 220.228 433.573 220.326 432.725 220.522C431.03 220.848 429.562 221.565 428.323 222.674C427.149 223.718 426.562 225.152 426.562 226.978V251.533C426.562 251.989 426.432 252.348 426.171 252.609C425.91 252.87 425.552 253 425.095 253H409.639C409.182 253 408.823 252.87 408.563 252.609C408.302 252.348 408.171 251.989 408.171 251.533V203.598C408.171 203.142 408.302 202.783 408.563 202.522C408.823 202.261 409.182 202.131 409.639 202.131H425.095C425.552 202.131 425.91 202.261 426.171 202.522C426.432 202.783 426.562 203.142 426.562 203.598V205.946C426.562 206.142 426.628 206.272 426.758 206.337C426.889 206.402 426.986 206.37 427.052 206.239C429.53 203.044 432.758 201.446 436.736 201.446ZM69.0216 336.783C61.6521 336.783 55.8151 335.348 51.5108 332.478C47.2717 329.609 45.1522 325.794 45.1522 321.033V320.152C45.1522 319.696 45.2826 319.337 45.5435 319.076C45.8043 318.815 46.163 318.685 46.6195 318.685H61.2934C62.2716 318.685 62.7608 319.044 62.7608 319.761C62.7608 320.804 63.3151 321.652 64.4238 322.304C65.5977 322.957 67.0977 323.283 68.9238 323.283C70.3585 323.283 71.4998 323.087 72.3477 322.696C73.2607 322.239 73.7172 321.62 73.7172 320.837C73.7172 319.924 73.1955 319.304 72.152 318.978C71.1085 318.587 69.2499 318.163 66.576 317.707C64.0977 317.381 61.8803 316.989 59.9238 316.533C57.9673 316.076 56.076 315.391 54.2499 314.478C48.6413 311.739 45.8369 307.435 45.8369 301.565C45.8369 296.283 47.8913 292.109 51.9999 289.044C56.1086 285.913 61.5216 284.348 68.239 284.348C72.8042 284.348 76.7824 285.098 80.1737 286.598C83.6302 288.033 86.3041 290.087 88.1954 292.761C90.0867 295.435 91.0323 298.533 91.0323 302.055C91.0323 302.772 90.5432 303.131 89.565 303.131H75.3803C74.402 303.131 73.9129 302.772 73.9129 302.055C73.9129 300.946 73.4237 300.098 72.4455 299.511C71.4672 298.859 70.1629 298.533 68.5325 298.533C67.0325 298.533 65.7933 298.794 64.8151 299.315C63.9021 299.772 63.4455 300.424 63.4455 301.272C63.4455 302.315 64.0651 303.033 65.3042 303.424C66.5433 303.815 68.5325 304.207 71.2716 304.598C71.5977 304.663 72.8368 304.859 74.989 305.185C77.2063 305.511 79.3259 306.033 81.3476 306.75C84.8693 307.989 87.5432 309.718 89.3693 311.935C91.2606 314.087 92.2062 316.924 92.2062 320.446C92.2062 325.794 90.1193 329.87 85.9454 332.674C81.7715 335.413 76.1302 336.783 69.0216 336.783ZM119.263 336.783C113.719 336.783 108.893 335.446 104.784 332.772C100.676 330.033 97.6758 326.25 95.7845 321.424C94.4802 318.098 93.828 314.381 93.828 310.272C93.828 306.228 94.4802 302.544 95.7845 299.218C97.6106 294.587 100.611 290.968 104.784 288.359C108.958 285.685 113.784 284.348 119.263 284.348C124.806 284.348 129.697 285.75 133.936 288.555C138.241 291.294 141.143 294.75 142.643 298.924C143.099 300.098 143.393 301.337 143.523 302.641V302.935C143.523 303.587 143.099 304.011 142.252 304.207L127.089 306.652H126.795C125.947 306.652 125.491 306.228 125.426 305.381L125.034 304.011C124.708 302.902 123.991 301.989 122.882 301.272C121.839 300.489 120.6 300.098 119.165 300.098C116.556 300.098 114.697 301.272 113.589 303.62C112.806 305.25 112.415 307.5 112.415 310.37C112.415 313.044 112.774 315.294 113.491 317.12C114.6 319.728 116.491 321.033 119.165 321.033C122.034 321.033 123.991 319.533 125.034 316.533L125.132 316.141C125.328 315.033 125.882 314.576 126.795 314.772L142.056 317.315C142.904 317.511 143.328 317.967 143.328 318.685C143.328 319.467 143.099 320.544 142.643 321.913C140.947 326.674 137.98 330.359 133.741 332.967C129.567 335.511 124.741 336.783 119.263 336.783ZM177.159 284.348C180.419 284.348 183.354 285.066 185.963 286.5C188.572 287.935 190.626 290.055 192.126 292.859C193.691 295.598 194.474 298.859 194.474 302.641V334.533C194.474 334.989 194.343 335.348 194.082 335.609C193.821 335.87 193.463 336 193.006 336H177.55C177.093 336 176.735 335.87 176.474 335.609C176.213 335.348 176.082 334.989 176.082 334.533V306.652C176.082 304.696 175.561 303.131 174.517 301.957C173.539 300.718 172.235 300.098 170.604 300.098C168.909 300.098 167.539 300.718 166.496 301.957C165.517 303.131 165.028 304.696 165.028 306.652V334.533C165.028 334.989 164.898 335.348 164.637 335.609C164.376 335.87 164.017 336 163.561 336H148.104C147.648 336 147.289 335.87 147.028 335.609C146.767 335.348 146.637 334.989 146.637 334.533V268.99C146.637 268.533 146.767 268.174 147.028 267.913C147.289 267.653 147.648 267.522 148.104 267.522H163.561C164.017 267.522 164.376 267.653 164.637 267.913C164.898 268.174 165.028 268.533 165.028 268.99V290.12C165.028 290.381 165.093 290.544 165.224 290.609C165.354 290.674 165.452 290.609 165.517 290.413C167.996 286.37 171.876 284.348 177.159 284.348ZM247.471 306.946C247.667 308.381 247.765 309.848 247.765 311.348C247.765 312.391 247.732 313.207 247.667 313.794C247.667 314.707 247.178 315.163 246.2 315.163H216.852C216.591 315.163 216.461 315.294 216.461 315.554C216.461 316.141 216.722 316.826 217.243 317.609C217.895 318.717 219.037 319.663 220.667 320.446C222.363 321.163 224.254 321.522 226.341 321.522C228.102 321.522 229.732 321.261 231.232 320.739C232.732 320.217 234.004 319.467 235.048 318.489C235.374 318.228 235.7 318.098 236.026 318.098C236.482 318.098 236.841 318.294 237.102 318.685L244.537 328.174C244.798 328.5 244.928 328.859 244.928 329.25C244.928 329.641 244.765 329.967 244.439 330.228C242.156 332.446 239.319 334.109 235.928 335.217C232.537 336.261 228.885 336.783 224.972 336.783C218.906 336.783 213.722 335.511 209.417 332.967C205.113 330.424 201.983 326.804 200.026 322.109C198.591 318.717 197.874 315.065 197.874 311.152C197.874 307.044 198.461 303.391 199.635 300.196C201.396 295.239 204.298 291.359 208.341 288.555C212.385 285.75 217.145 284.348 222.624 284.348C226.798 284.348 230.645 285.326 234.167 287.283C237.754 289.239 240.689 291.946 242.971 295.402C245.319 298.794 246.819 302.641 247.471 306.946ZM222.526 300.098C219.852 300.098 217.993 301.402 216.95 304.011L216.559 305.087C216.493 305.283 216.526 305.446 216.656 305.576C216.787 305.641 216.917 305.674 217.048 305.674H228.2C228.461 305.674 228.591 305.544 228.591 305.283C228.591 305.022 228.493 304.598 228.298 304.011C227.972 302.772 227.287 301.826 226.243 301.174C225.265 300.457 224.026 300.098 222.526 300.098ZM310.839 284.348C315.991 284.348 320.002 285.946 322.871 289.142C325.741 292.337 327.176 296.837 327.176 302.641V334.533C327.176 334.989 327.045 335.348 326.784 335.609C326.523 335.87 326.165 336 325.708 336H310.252C309.795 336 309.437 335.87 309.176 335.609C308.915 335.348 308.784 334.989 308.784 334.533V306.652C308.784 304.696 308.295 303.131 307.317 301.957C306.404 300.718 305.197 300.098 303.697 300.098C302.132 300.098 300.86 300.718 299.882 301.957C298.904 303.131 298.415 304.696 298.415 306.652V334.533C298.415 334.989 298.284 335.348 298.024 335.609C297.763 335.87 297.404 336 296.947 336H281.491C281.034 336 280.676 335.87 280.415 335.609C280.154 335.348 280.024 334.989 280.024 334.533V306.652C280.024 304.696 279.502 303.131 278.458 301.957C277.48 300.718 276.176 300.098 274.545 300.098C273.111 300.098 271.904 300.555 270.926 301.468C270.013 302.315 269.426 303.489 269.165 304.989C269.1 305.12 269.067 305.315 269.067 305.576V334.533C269.067 334.989 268.937 335.348 268.676 335.609C268.415 335.87 268.056 336 267.6 336H252.143C251.687 336 251.328 335.87 251.067 335.609C250.806 335.348 250.676 334.989 250.676 334.533V286.598C250.676 286.142 250.806 285.783 251.067 285.522C251.328 285.261 251.687 285.131 252.143 285.131H267.6C268.056 285.131 268.415 285.261 268.676 285.522C268.937 285.783 269.067 286.142 269.067 286.598V291.489C269.067 291.75 269.132 291.881 269.263 291.881C269.393 291.881 269.524 291.783 269.654 291.587C272.132 286.761 276.306 284.348 282.176 284.348C285.502 284.348 288.404 285.131 290.882 286.696C293.426 288.196 295.35 290.381 296.654 293.25C296.85 293.576 297.045 293.544 297.241 293.152C298.545 290.218 300.339 288.033 302.621 286.598C304.969 285.098 307.708 284.348 310.839 284.348ZM353.464 284.348C357.899 284.348 361.975 285.098 365.692 286.598C369.409 288.098 372.344 290.152 374.496 292.761C376.649 295.37 377.725 298.207 377.725 301.272V334.533C377.725 334.989 377.594 335.348 377.333 335.609C377.072 335.87 376.714 336 376.257 336H360.801C360.344 336 359.986 335.87 359.725 335.609C359.464 335.348 359.333 334.989 359.333 334.533V331.109C359.333 330.848 359.268 330.717 359.138 330.717C359.073 330.652 358.975 330.717 358.844 330.913C357.736 332.935 356.203 334.435 354.246 335.413C352.29 336.326 349.714 336.783 346.518 336.783C341.17 336.783 336.964 335.576 333.899 333.163C330.834 330.685 329.301 327.098 329.301 322.402C329.301 317.446 331.029 313.631 334.486 310.957C338.007 308.283 343.094 306.946 349.746 306.946H358.844C359.17 306.946 359.333 306.783 359.333 306.457V304.696C359.333 303.326 358.812 302.218 357.768 301.37C356.79 300.522 355.453 300.098 353.757 300.098C352.583 300.098 351.54 300.294 350.627 300.685C349.714 301.076 349.062 301.598 348.67 302.25C348.41 302.707 348.149 303.033 347.888 303.228C347.692 303.359 347.399 303.391 347.007 303.326L331.257 301.37C330.344 301.239 329.888 300.848 329.888 300.196C330.149 297.261 331.323 294.587 333.41 292.174C335.497 289.761 338.268 287.87 341.725 286.5C345.247 285.066 349.16 284.348 353.464 284.348ZM352.192 324.065C354.279 324.065 355.975 323.511 357.279 322.402C358.649 321.294 359.333 319.794 359.333 317.902V316.631C359.333 316.304 359.17 316.141 358.844 316.141H353.953C349.844 316.141 347.79 317.478 347.79 320.152C347.79 321.326 348.149 322.272 348.866 322.989C349.649 323.707 350.757 324.065 352.192 324.065ZM390.837 311.739C390.38 311.739 389.989 311.609 389.663 311.348C389.402 311.087 389.272 310.728 389.272 310.272L387.609 268.99C387.609 268.011 388.065 267.522 388.978 267.522H404.435C405.348 267.522 405.804 268.011 405.804 268.99L404.043 310.272C404.043 310.728 403.88 311.087 403.554 311.348C403.293 311.609 402.935 311.739 402.478 311.739H390.837ZM395.924 336C393.25 336 391.033 335.152 389.272 333.457C387.576 331.696 386.728 329.478 386.728 326.804C386.728 324.065 387.576 321.848 389.272 320.152C391.033 318.457 393.25 317.609 395.924 317.609C398.598 317.609 400.783 318.457 402.478 320.152C404.239 321.848 405.12 324.065 405.12 326.804C405.12 329.413 404.239 331.598 402.478 333.359C400.783 335.12 398.598 336 395.924 336Z"></path>
<g filter="url(#filter4_dddd_11938_8089)">
<path fill="#71E8DF" d="M-50.2705 357.915C-51.4218 357.512 -52.6818 358.119 -53.0847 359.271C-53.4875 360.422 -52.8808 361.682 -51.7295 362.085L-51 360L-50.2705 357.915ZM461.976 360.987C462.521 359.895 462.078 358.569 460.987 358.024L443.202 349.145C442.111 348.6 440.785 349.043 440.24 350.134C439.695 351.226 440.138 352.552 441.229 353.097L457.037 360.989L449.145 376.798C448.6 377.889 449.043 379.215 450.134 379.76C451.226 380.305 452.552 379.862 453.097 378.771L461.976 360.987ZM-51 360L-51.7295 362.085C96.523 413.962 295.777 417.176 460.7 362.095L460 360L459.3 357.905C295.291 412.682 97.0425 409.464 -50.2705 357.915L-51 360Z"></path>
</g>
</g>
<defs>
<filter color-interpolation-filters="sRGB" filterUnits="userSpaceOnUse" height="779.367" width="1010.28" y="-67.9922" x="240" id="filter0_ddddddd_11938_8089">
<feFlood result="BackgroundImageFix" flood-opacity="0"></feFlood>
<feColorMatrix result="hardAlpha" values="0 0 0 0 0 0 0 0 0 0 0 0 0 0 0 0 0 0 127 0" type="matrix" in="SourceAlpha"></feColorMatrix>
<feOffset dy="-0.509789"></feOffset>
<feGaussianBlur stdDeviation="2.68798"></feGaussianBlur>
<feColorMatrix values="0 0 0 0 0 0 0 0 0 0 0 0 0 0 0 0 0 0 0.0723309 0" type="matrix"></feColorMatrix>
<feBlend result="effect1_dropShadow_11938_8089" in2="BackgroundImageFix" mode="normal"></feBlend>
<feColorMatrix result="hardAlpha" values="0 0 0 0 0 0 0 0 0 0 0 0 0 0 0 0 0 0 127 0" type="matrix" in="SourceAlpha"></feColorMatrix>
<feOffset dy="-1.1853"></feOffset>
<feGaussianBlur stdDeviation="6.24975"></feGaussianBlur>
<feColorMatrix values="0 0 0 0 0 0 0 0 0 0 0 0 0 0 0 0 0 0 0.104501 0" type="matrix"></feColorMatrix>
<feBlend result="effect2_dropShadow_11938_8089" in2="effect1_dropShadow_11938_8089" mode="normal"></feBlend>
<feColorMatrix result="hardAlpha" values="0 0 0 0 0 0 0 0 0 0 0 0 0 0 0 0 0 0 127 0" type="matrix" in="SourceAlpha"></feColorMatrix>
<feOffset dy="-2.12852"></feOffset>
<feGaussianBlur stdDeviation="11.2231"></feGaussianBlur>
<feColorMatrix values="0 0 0 0 0 0 0 0 0 0 0 0 0 0 0 0 0 0 0.128815 0" type="matrix"></feColorMatrix>
<feBlend result="effect3_dropShadow_11938_8089" in2="effect2_dropShadow_11938_8089" mode="normal"></feBlend>
<feColorMatrix result="hardAlpha" values="0 0 0 0 0 0 0 0 0 0 0 0 0 0 0 0 0 0 127 0" type="matrix" in="SourceAlpha"></feColorMatrix>
<feOffset dy="-3.53256"></feOffset>
<feGaussianBlur stdDeviation="18.6262"></feGaussianBlur>
<feColorMatrix values="0 0 0 0 0 0 0 0 0 0 0 0 0 0 0 0 0 0 0.151185 0" type="matrix"></feColorMatrix>
<feBlend result="effect4_dropShadow_11938_8089" in2="effect3_dropShadow_11938_8089" mode="normal"></feBlend>
<feColorMatrix result="hardAlpha" values="0 0 0 0 0 0 0 0 0 0 0 0 0 0 0 0 0 0 127 0" type="matrix" in="SourceAlpha"></feColorMatrix>
<feOffset dy="-5.81977"></feOffset>
<feGaussianBlur stdDeviation="30.686"></feGaussianBlur>
<feColorMatrix values="0 0 0 0 0 0 0 0 0 0 0 0 0 0 0 0 0 0 0.175499 0" type="matrix"></feColorMatrix>
<feBlend result="effect5_dropShadow_11938_8089" in2="effect4_dropShadow_11938_8089" mode="normal"></feBlend>
<feColorMatrix result="hardAlpha" values="0 0 0 0 0 0 0 0 0 0 0 0 0 0 0 0 0 0 127 0" type="matrix" in="SourceAlpha"></feColorMatrix>
<feOffset dy="-10.1713"></feOffset>
<feGaussianBlur stdDeviation="53.6303"></feGaussianBlur>
<feColorMatrix values="0 0 0 0 0 0 0 0 0 0 0 0 0 0 0 0 0 0 0.207669 0" type="matrix"></feColorMatrix>
<feBlend result="effect6_dropShadow_11938_8089" in2="effect5_dropShadow_11938_8089" mode="normal"></feBlend>
<feColorMatrix result="hardAlpha" values="0 0 0 0 0 0 0 0 0 0 0 0 0 0 0 0 0 0 127 0" type="matrix" in="SourceAlpha"></feColorMatrix>
<feOffset dy="-22"></feOffset>
<feGaussianBlur stdDeviation="116"></feGaussianBlur>
<feColorMatrix values="0 0 0 0 0 0 0 0 0 0 0 0 0 0 0 0 0 0 0.28 0" type="matrix"></feColorMatrix>
<feBlend result="effect7_dropShadow_11938_8089" in2="effect6_dropShadow_11938_8089" mode="normal"></feBlend>
<feBlend result="shape" in2="effect7_dropShadow_11938_8089" in="SourceGraphic" mode="normal"></feBlend>
</filter>
<filter color-interpolation-filters="sRGB" filterUnits="userSpaceOnUse" height="779.367" width="1010.28" y="-150" x="240" id="filter1_ddddddd_11938_8089">
<feFlood result="BackgroundImageFix" flood-opacity="0"></feFlood>
<feColorMatrix result="hardAlpha" values="0 0 0 0 0 0 0 0 0 0 0 0 0 0 0 0 0 0 127 0" type="matrix" in="SourceAlpha"></feColorMatrix>
<feOffset dy="-0.509789"></feOffset>
<feGaussianBlur stdDeviation="2.68798"></feGaussianBlur>
<feColorMatrix values="0 0 0 0 0 0 0 0 0 0 0 0 0 0 0 0 0 0 0.0723309 0" type="matrix"></feColorMatrix>
<feBlend result="effect1_dropShadow_11938_8089" in2="BackgroundImageFix" mode="normal"></feBlend>
<feColorMatrix result="hardAlpha" values="0 0 0 0 0 0 0 0 0 0 0 0 0 0 0 0 0 0 127 0" type="matrix" in="SourceAlpha"></feColorMatrix>
<feOffset dy="-1.1853"></feOffset>
<feGaussianBlur stdDeviation="6.24975"></feGaussianBlur>
<feColorMatrix values="0 0 0 0 0 0 0 0 0 0 0 0 0 0 0 0 0 0 0.104501 0" type="matrix"></feColorMatrix>
<feBlend result="effect2_dropShadow_11938_8089" in2="effect1_dropShadow_11938_8089" mode="normal"></feBlend>
<feColorMatrix result="hardAlpha" values="0 0 0 0 0 0 0 0 0 0 0 0 0 0 0 0 0 0 127 0" type="matrix" in="SourceAlpha"></feColorMatrix>
<feOffset dy="-2.12852"></feOffset>
<feGaussianBlur stdDeviation="11.2231"></feGaussianBlur>
<feColorMatrix values="0 0 0 0 0 0 0 0 0 0 0 0 0 0 0 0 0 0 0.128815 0" type="matrix"></feColorMatrix>
<feBlend result="effect3_dropShadow_11938_8089" in2="effect2_dropShadow_11938_8089" mode="normal"></feBlend>
<feColorMatrix result="hardAlpha" values="0 0 0 0 0 0 0 0 0 0 0 0 0 0 0 0 0 0 127 0" type="matrix" in="SourceAlpha"></feColorMatrix>
<feOffset dy="-3.53256"></feOffset>
<feGaussianBlur stdDeviation="18.6262"></feGaussianBlur>
<feColorMatrix values="0 0 0 0 0 0 0 0 0 0 0 0 0 0 0 0 0 0 0.151185 0" type="matrix"></feColorMatrix>
<feBlend result="effect4_dropShadow_11938_8089" in2="effect3_dropShadow_11938_8089" mode="normal"></feBlend>
<feColorMatrix result="hardAlpha" values="0 0 0 0 0 0 0 0 0 0 0 0 0 0 0 0 0 0 127 0" type="matrix" in="SourceAlpha"></feColorMatrix>
<feOffset dy="-5.81977"></feOffset>
<feGaussianBlur stdDeviation="30.686"></feGaussianBlur>
<feColorMatrix values="0 0 0 0 0 0 0 0 0 0 0 0 0 0 0 0 0 0 0.175499 0" type="matrix"></feColorMatrix>
<feBlend result="effect5_dropShadow_11938_8089" in2="effect4_dropShadow_11938_8089" mode="normal"></feBlend>
<feColorMatrix result="hardAlpha" values="0 0 0 0 0 0 0 0 0 0 0 0 0 0 0 0 0 0 127 0" type="matrix" in="SourceAlpha"></feColorMatrix>
<feOffset dy="-10.1713"></feOffset>
<feGaussianBlur stdDeviation="53.6303"></feGaussianBlur>
<feColorMatrix values="0 0 0 0 0 0 0 0 0 0 0 0 0 0 0 0 0 0 0.207669 0" type="matrix"></feColorMatrix>
<feBlend result="effect6_dropShadow_11938_8089" in2="effect5_dropShadow_11938_8089" mode="normal"></feBlend>
<feColorMatrix result="hardAlpha" values="0 0 0 0 0 0 0 0 0 0 0 0 0 0 0 0 0 0 127 0" type="matrix" in="SourceAlpha"></feColorMatrix>
<feOffset dy="-22"></feOffset>
<feGaussianBlur stdDeviation="116"></feGaussianBlur>
<feColorMatrix values="0 0 0 0 0 0 0 0 0 0 0 0 0 0 0 0 0 0 0.28 0" type="matrix"></feColorMatrix>
<feBlend result="effect7_dropShadow_11938_8089" in2="effect6_dropShadow_11938_8089" mode="normal"></feBlend>
<feBlend result="shape" in2="effect7_dropShadow_11938_8089" in="SourceGraphic" mode="normal"></feBlend>
</filter>
<filter color-interpolation-filters="sRGB" filterUnits="userSpaceOnUse" height="779.367" width="1010.28" y="-231.992" x="240" id="filter2_ddddddd_11938_8089">
<feFlood result="BackgroundImageFix" flood-opacity="0"></feFlood>
<feColorMatrix result="hardAlpha" values="0 0 0 0 0 0 0 0 0 0 0 0 0 0 0 0 0 0 127 0" type="matrix" in="SourceAlpha"></feColorMatrix>
<feOffset dy="-0.509789"></feOffset>
<feGaussianBlur stdDeviation="2.68798"></feGaussianBlur>
<feColorMatrix values="0 0 0 0 0 0 0 0 0 0 0 0 0 0 0 0 0 0 0.0723309 0" type="matrix"></feColorMatrix>
<feBlend result="effect1_dropShadow_11938_8089" in2="BackgroundImageFix" mode="normal"></feBlend>
<feColorMatrix result="hardAlpha" values="0 0 0 0 0 0 0 0 0 0 0 0 0 0 0 0 0 0 127 0" type="matrix" in="SourceAlpha"></feColorMatrix>
<feOffset dy="-1.1853"></feOffset>
<feGaussianBlur stdDeviation="6.24975"></feGaussianBlur>
<feColorMatrix values="0 0 0 0 0 0 0 0 0 0 0 0 0 0 0 0 0 0 0.104501 0" type="matrix"></feColorMatrix>
<feBlend result="effect2_dropShadow_11938_8089" in2="effect1_dropShadow_11938_8089" mode="normal"></feBlend>
<feColorMatrix result="hardAlpha" values="0 0 0 0 0 0 0 0 0 0 0 0 0 0 0 0 0 0 127 0" type="matrix" in="SourceAlpha"></feColorMatrix>
<feOffset dy="-2.12852"></feOffset>
<feGaussianBlur stdDeviation="11.2231"></feGaussianBlur>
<feColorMatrix values="0 0 0 0 0 0 0 0 0 0 0 0 0 0 0 0 0 0 0.128815 0" type="matrix"></feColorMatrix>
<feBlend result="effect3_dropShadow_11938_8089" in2="effect2_dropShadow_11938_8089" mode="normal"></feBlend>
<feColorMatrix result="hardAlpha" values="0 0 0 0 0 0 0 0 0 0 0 0 0 0 0 0 0 0 127 0" type="matrix" in="SourceAlpha"></feColorMatrix>
<feOffset dy="-3.53256"></feOffset>
<feGaussianBlur stdDeviation="18.6262"></feGaussianBlur>
<feColorMatrix values="0 0 0 0 0 0 0 0 0 0 0 0 0 0 0 0 0 0 0.151185 0" type="matrix"></feColorMatrix>
<feBlend result="effect4_dropShadow_11938_8089" in2="effect3_dropShadow_11938_8089" mode="normal"></feBlend>
<feColorMatrix result="hardAlpha" values="0 0 0 0 0 0 0 0 0 0 0 0 0 0 0 0 0 0 127 0" type="matrix" in="SourceAlpha"></feColorMatrix>
<feOffset dy="-5.81977"></feOffset>
<feGaussianBlur stdDeviation="30.686"></feGaussianBlur>
<feColorMatrix values="0 0 0 0 0 0 0 0 0 0 0 0 0 0 0 0 0 0 0.175499 0" type="matrix"></feColorMatrix>
<feBlend result="effect5_dropShadow_11938_8089" in2="effect4_dropShadow_11938_8089" mode="normal"></feBlend>
<feColorMatrix result="hardAlpha" values="0 0 0 0 0 0 0 0 0 0 0 0 0 0 0 0 0 0 127 0" type="matrix" in="SourceAlpha"></feColorMatrix>
<feOffset dy="-10.1713"></feOffset>
<feGaussianBlur stdDeviation="53.6303"></feGaussianBlur>
<feColorMatrix values="0 0 0 0 0 0 0 0 0 0 0 0 0 0 0 0 0 0 0.207669 0" type="matrix"></feColorMatrix>
<feBlend result="effect6_dropShadow_11938_8089" in2="effect5_dropShadow_11938_8089" mode="normal"></feBlend>
<feColorMatrix result="hardAlpha" values="0 0 0 0 0 0 0 0 0 0 0 0 0 0 0 0 0 0 127 0" type="matrix" in="SourceAlpha"></feColorMatrix>
<feOffset dy="-22"></feOffset>
<feGaussianBlur stdDeviation="116"></feGaussianBlur>
<feColorMatrix values="0 0 0 0 0 0 0 0 0 0 0 0 0 0 0 0 0 0 0.28 0" type="matrix"></feColorMatrix>
<feBlend result="effect7_dropShadow_11938_8089" in2="effect6_dropShadow_11938_8089" mode="normal"></feBlend>
<feBlend result="shape" in2="effect7_dropShadow_11938_8089" in="SourceGraphic" mode="normal"></feBlend>
</filter>
<filter color-interpolation-filters="sRGB" filterUnits="userSpaceOnUse" height="178.892" width="159.083" y="35" x="-12.2022" id="filter3_dddddd_11938_8089">
<feFlood result="BackgroundImageFix" flood-opacity="0"></feFlood>
<feColorMatrix result="hardAlpha" values="0 0 0 0 0 0 0 0 0 0 0 0 0 0 0 0 0 0 127 0" type="matrix" in="SourceAlpha"></feColorMatrix>
<feOffset dy="2.08244"></feOffset>
<feGaussianBlur stdDeviation="0.832974"></feGaussianBlur>
<feColorMatrix values="0 0 0 0 0 0 0 0 0 0 0 0 0 0 0 0 0 0 0.151819 0" type="matrix"></feColorMatrix>
<feBlend result="effect1_dropShadow_11938_8089" in2="BackgroundImageFix" mode="normal"></feBlend>
<feColorMatrix result="hardAlpha" values="0 0 0 0 0 0 0 0 0 0 0 0 0 0 0 0 0 0 127 0" type="matrix" in="SourceAlpha"></feColorMatrix>
<feOffset dy="5.00438"></feOffset>
<feGaussianBlur stdDeviation="2.00175"></feGaussianBlur>
<feColorMatrix values="0 0 0 0 0 0 0 0 0 0 0 0 0 0 0 0 0 0 0.218102 0" type="matrix"></feColorMatrix>
<feBlend result="effect2_dropShadow_11938_8089" in2="effect1_dropShadow_11938_8089" mode="normal"></feBlend>
<feColorMatrix result="hardAlpha" values="0 0 0 0 0 0 0 0 0 0 0 0 0 0 0 0 0 0 127 0" type="matrix" in="SourceAlpha"></feColorMatrix>
<feOffset dy="9.42281"></feOffset>
<feGaussianBlur stdDeviation="3.76912"></feGaussianBlur>
<feColorMatrix values="0 0 0 0 0 0 0 0 0 0 0 0 0 0 0 0 0 0 0.27 0" type="matrix"></feColorMatrix>
<feBlend result="effect3_dropShadow_11938_8089" in2="effect2_dropShadow_11938_8089" mode="normal"></feBlend>
<feColorMatrix result="hardAlpha" values="0 0 0 0 0 0 0 0 0 0 0 0 0 0 0 0 0 0 127 0" type="matrix" in="SourceAlpha"></feColorMatrix>
<feOffset dy="16.8087"></feOffset>
<feGaussianBlur stdDeviation="6.72347"></feGaussianBlur>
<feColorMatrix values="0 0 0 0 0 0 0 0 0 0 0 0 0 0 0 0 0 0 0.321898 0" type="matrix"></feColorMatrix>
<feBlend result="effect4_dropShadow_11938_8089" in2="effect3_dropShadow_11938_8089" mode="normal"></feBlend>
<feColorMatrix result="hardAlpha" values="0 0 0 0 0 0 0 0 0 0 0 0 0 0 0 0 0 0 127 0" type="matrix" in="SourceAlpha"></feColorMatrix>
<feOffset dy="31.4388"></feOffset>
<feGaussianBlur stdDeviation="12.5755"></feGaussianBlur>
<feColorMatrix values="0 0 0 0 0 0 0 0 0 0 0 0 0 0 0 0 0 0 0.388181 0" type="matrix"></feColorMatrix>
<feBlend result="effect5_dropShadow_11938_8089" in2="effect4_dropShadow_11938_8089" mode="normal"></feBlend>
<feColorMatrix result="hardAlpha" values="0 0 0 0 0 0 0 0 0 0 0 0 0 0 0 0 0 0 127 0" type="matrix" in="SourceAlpha"></feColorMatrix>
<feOffset dy="75.2527"></feOffset>
<feGaussianBlur stdDeviation="30.1011"></feGaussianBlur>
<feColorMatrix values="0 0 0 0 0 0 0 0 0 0 0 0 0 0 0 0 0 0 0.54 0" type="matrix"></feColorMatrix>
<feBlend result="effect6_dropShadow_11938_8089" in2="effect5_dropShadow_11938_8089" mode="normal"></feBlend>
<feBlend result="shape" in2="effect6_dropShadow_11938_8089" in="SourceGraphic" mode="normal"></feBlend>
</filter>
<filter color-interpolation-filters="sRGB" filterUnits="userSpaceOnUse" height="97.936" width="560.057" y="329.105" x="-75.5288" id="filter4_dddd_11938_8089">
<feFlood result="BackgroundImageFix" flood-opacity="0"></feFlood>
<feColorMatrix result="hardAlpha" values="0 0 0 0 0 0 0 0 0 0 0 0 0 0 0 0 0 0 127 0" type="matrix" in="SourceAlpha"></feColorMatrix>
<feOffset dy="0.311083"></feOffset>
<feGaussianBlur stdDeviation="1.38259"></feGaussianBlur>
<feColorMatrix values="0 0 0 0 0.537255 0 0 0 0 1 0 0 0 0 0.745098 0 0 0 0.146196 0" type="matrix"></feColorMatrix>
<feBlend result="effect1_dropShadow_11938_8089" in2="BackgroundImageFix" mode="normal"></feBlend>
<feColorMatrix result="hardAlpha" values="0 0 0 0 0 0 0 0 0 0 0 0 0 0 0 0 0 0 127 0" type="matrix" in="SourceAlpha"></feColorMatrix>
<feOffset dy="0.747576"></feOffset>
<feGaussianBlur stdDeviation="3.32256"></feGaussianBlur>
<feColorMatrix values="0 0 0 0 0.537255 0 0 0 0 1 0 0 0 0 0.745098 0 0 0 0.210024 0" type="matrix"></feColorMatrix>
<feBlend result="effect2_dropShadow_11938_8089" in2="effect1_dropShadow_11938_8089" mode="normal"></feBlend>
<feColorMatrix result="hardAlpha" values="0 0 0 0 0 0 0 0 0 0 0 0 0 0 0 0 0 0 127 0" type="matrix" in="SourceAlpha"></feColorMatrix>
<feOffset dy="1.40762"></feOffset>
<feGaussianBlur stdDeviation="6.25609"></feGaussianBlur>
<feColorMatrix values="0 0 0 0 0.537255 0 0 0 0 1 0 0 0 0 0.745098 0 0 0 0.26 0" type="matrix"></feColorMatrix>
<feBlend result="effect3_dropShadow_11938_8089" in2="effect2_dropShadow_11938_8089" mode="normal"></feBlend>
<feColorMatrix result="hardAlpha" values="0 0 0 0 0 0 0 0 0 0 0 0 0 0 0 0 0 0 127 0" type="matrix" in="SourceAlpha"></feColorMatrix>
<feOffset dy="2.51095"></feOffset>
<feGaussianBlur stdDeviation="11.1598"></feGaussianBlur>
<feColorMatrix values="0 0 0 0 0.537255 0 0 0 0 1 0 0 0 0 0.745098 0 0 0 0.6 0" type="matrix"></feColorMatrix>
<feBlend result="effect4_dropShadow_11938_8089" in2="effect3_dropShadow_11938_8089" mode="normal"></feBlend>
<feBlend result="shape" in2="effect4_dropShadow_11938_8089" in="SourceGraphic" mode="normal"></feBlend>
</filter>
<linearGradient gradientUnits="userSpaceOnUse" y2="474" x2="422" y1="0" x1="422" id="paint0_linear_11938_8089">
<stop stop-color="#090A15"></stop>
<stop stop-color="#0D3A38" offset="0.955752"></stop>
</linearGradient>
<radialGradient gradientTransform="translate(422 355.876) rotate(90) scale(529.676 495.147)" gradientUnits="userSpaceOnUse" r="1" cy="0" cx="0" id="paint1_radial_11938_8089">
<stop stop-opacity="0.11" stop-color="#71E8DF"></stop>
<stop stop-opacity="0" stop-color="#71E8DF" offset="1"></stop>
</radialGradient>
<radialGradient gradientTransform="translate(422 631.5) rotate(90) scale(127 226.135)" gradientUnits="userSpaceOnUse" r="1" cy="0" cx="0" id="paint2_radial_11938_8089">
<stop stop-color="#71E8DF"></stop>
<stop stop-opacity="0" stop-color="#71E8DF" offset="1"></stop>
</radialGradient>
<clipPath id="clip0_11938_8089">
<rect fill="white" height="474" width="844"></rect>
</clipPath>
</defs>
</svg>
