<svg width="48" height="48" viewBox="0 0 48 48" fill="none" xmlns="http://www.w3.org/2000/svg">
<g clip-path="url(#clip0_6115_39853)">
<mask id="mask0_6115_39853" style="mask-type:luminance" maskUnits="userSpaceOnUse" x="3" y="3" width="42" height="42">
<path d="M39.4839 3.35489H8.51626C5.66576 3.35489 3.35498 5.66567 3.35498 8.51617V39.4838C3.35498 42.3343 5.66576 44.6451 8.51626 44.6451H39.4839C42.3344 44.6451 44.6452 42.3343 44.6452 39.4838V8.51617C44.6452 5.66567 42.3344 3.35489 39.4839 3.35489Z" fill="white"/>
</mask>
<g mask="url(#mask0_6115_39853)">
<path d="M39.4839 3.35489H8.51626C5.66576 3.35489 3.35498 5.66567 3.35498 8.51617V39.4838C3.35498 42.3343 5.66576 44.6451 8.51626 44.6451H39.4839C42.3344 44.6451 44.6452 42.3343 44.6452 39.4838V8.51617C44.6452 5.66567 42.3344 3.35489 39.4839 3.35489Z" fill="white"/>
<path d="M16.0317 37.8709V10.4223H17.7071V26.3581H17.8947L32.3696 10.4223H34.5944L22.6794 23.4095L34.4872 37.8709H32.3964L21.6072 24.6157L17.7071 28.9314V37.8709H16.0317Z" fill="#161D2B"/>
</g>
<path d="M39.4839 3.35489H8.51626C5.66576 3.35489 3.35498 5.66567 3.35498 8.51617V39.4838C3.35498 42.3343 5.66576 44.6451 8.51626 44.6451H39.4839C42.3344 44.6451 44.6452 42.3343 44.6452 39.4838V8.51617C44.6452 5.66567 42.3344 3.35489 39.4839 3.35489Z" stroke="#161D2B" stroke-width="1.29032"/>
</g>
<defs>
<clipPath id="clip0_6115_39853">
<rect width="42.5805" height="42.5805" fill="white" transform="translate(2.70996 2.70973)"/>
</clipPath>
</defs>
</svg>
