<svg width="37" height="37" viewBox="0 0 37 37" fill="none" xmlns="http://www.w3.org/2000/svg">
<g clip-path="url(#clip0_3994_1253)">
<path d="M0.381592 7.08287C0.381592 3.65527 3.16021 0.876648 6.58782 0.876648H30.1709C33.5985 0.876648 36.3771 3.65527 36.3771 7.08287V27.1404C36.3771 30.6859 31.8897 32.2247 29.7139 29.4261L22.9098 20.6732V31.2868C22.9098 34.3715 20.4092 36.8721 17.3245 36.8721H6.58782C3.16021 36.8721 0.381592 34.0935 0.381592 30.6659V7.08287ZM6.58782 5.84203C5.9019 5.84203 5.34697 6.39696 5.34697 7.08187V30.6659C5.34697 31.3518 5.9019 31.9078 6.58682 31.9078H17.5104C17.8534 31.9078 17.9444 31.6298 17.9444 31.2868V17.0546C17.9444 13.5081 22.4318 11.9693 24.6086 14.7689L31.4127 23.5208V7.08287C31.4127 6.39696 31.4767 5.84203 30.7918 5.84203H6.58782Z" fill="#00E0D9"/>
<path d="M0.381592 7.08287C0.381592 3.65527 3.16021 0.876648 6.58782 0.876648H30.1709C33.5985 0.876648 36.3771 3.65527 36.3771 7.08287V27.1404C36.3771 30.6859 31.8897 32.2247 29.7139 29.4261L22.9098 20.6732V31.2868C22.9098 34.3715 20.4092 36.8721 17.3245 36.8721H6.58782C3.16021 36.8721 0.381592 34.0935 0.381592 30.6659V7.08287ZM6.58782 5.84203C5.9019 5.84203 5.34697 6.39696 5.34697 7.08187V30.6659C5.34697 31.3518 5.9019 31.9078 6.58682 31.9078H17.5104C17.8534 31.9078 17.9444 31.6298 17.9444 31.2868V17.0546C17.9444 13.5081 22.4318 11.9693 24.6086 14.7689L31.4127 23.5208V7.08287C31.4127 6.39696 31.4767 5.84203 30.7918 5.84203H6.58782Z" fill="url(#paint0_linear_3994_1253)"/>
<path d="M0.381592 7.08287C0.381592 3.65527 3.16021 0.876648 6.58782 0.876648H30.1709C33.5985 0.876648 36.3771 3.65527 36.3771 7.08287V27.1404C36.3771 30.6859 31.8897 32.2247 29.7139 29.4261L22.9098 20.6732V31.2868C22.9098 34.3715 20.4092 36.8721 17.3245 36.8721H6.58782C3.16021 36.8721 0.381592 34.0935 0.381592 30.6659V7.08287ZM6.58782 5.84203C5.9019 5.84203 5.34697 6.39696 5.34697 7.08187V30.6659C5.34697 31.3518 5.9019 31.9078 6.58682 31.9078H17.5104C17.8534 31.9078 17.9444 31.6298 17.9444 31.2868V17.0546C17.9444 13.5081 22.4318 11.9693 24.6086 14.7689L31.4127 23.5208V7.08287C31.4127 6.39696 31.4767 5.84203 30.7918 5.84203H6.58782Z" fill="url(#paint1_linear_3994_1253)" fill-opacity="0.4"/>
<path d="M30.1711 0.876648C33.5987 0.876648 36.3773 3.65527 36.3773 7.08287V27.1404C36.3773 30.6859 31.8899 32.2247 29.7142 29.4261L22.91 20.6732V31.2868C22.91 34.3715 20.4094 36.8721 17.3247 36.8721C17.4891 36.8721 17.6468 36.8068 17.7631 36.6906C17.8793 36.5743 17.9446 36.4166 17.9446 36.2522V17.0546C17.9446 13.5081 22.4321 11.9693 24.6088 14.7689L31.4129 23.5208V2.11749C31.4129 1.43258 30.857 0.876648 30.1711 0.876648Z" fill="#63F655"/>
</g>
<defs>
<linearGradient id="paint0_linear_3994_1253" x1="3599.93" y1="3600.43" x2="434.827" y2="0.87653" gradientUnits="userSpaceOnUse">
<stop stop-color="#62F755"/>
<stop offset="1" stop-color="#8FF986" stop-opacity="0"/>
</linearGradient>
<linearGradient id="paint1_linear_3994_1253" x1="3599.93" y1="3600.43" x2="1461.9" y2="2768.83" gradientUnits="userSpaceOnUse">
<stop stop-opacity="0.9"/>
<stop offset="1" stop-color="#1A1A1A" stop-opacity="0"/>
</linearGradient>
<clipPath id="clip0_3994_1253">
<rect width="35.9955" height="35.9955" fill="white" transform="translate(0.381592 0.876648)"/>
</clipPath>
</defs>
</svg>
