  <svg width="31" height="32" viewBox="0 0 31 32" fill="none" xmlns="http://www.w3.org/2000/svg">
    <path
      d="M30.8733 19.1687C30.6872 18.6037 30.1999 18.2102 29.5695 18.1157C29.2723 18.0712 28.9319 18.0902 28.5292 18.1735C27.8272 18.3187 27.3064 18.374 26.9263 18.3847C28.3609 15.9558 29.5276 13.186 30.1992 10.5787C31.2852 6.36283 30.7049 4.44224 30.0267 3.57344C28.232 1.2741 25.6136 0.0387791 22.4545 0.000911757C20.7694 -0.0197105 19.29 0.31391 18.5183 0.55376C17.7998 0.426721 17.0271 0.355729 16.2164 0.34258C14.697 0.318293 13.3543 0.650404 12.2071 1.33302C11.5718 1.11775 10.5526 0.81416 9.37537 0.620369C6.60664 0.164596 4.37524 0.519773 2.74307 1.67591C0.766641 3.07578 -0.149627 5.50791 0.0198535 8.90483C0.0735998 9.98336 0.675344 13.2647 1.62271 16.3768C2.1672 18.1655 2.7478 19.6509 3.3484 20.7921C4.2001 22.4104 5.11142 23.3634 6.13454 23.7056C6.70805 23.8972 7.74994 24.0313 8.84586 23.1163C8.98474 23.2848 9.16999 23.4525 9.416 23.6081C9.7283 23.8056 10.1103 23.967 10.4916 24.0627C11.8663 24.4073 13.154 24.3211 14.2525 23.8381C14.2592 24.034 14.2644 24.2212 14.2689 24.3828C14.2762 24.645 14.2833 24.902 14.2929 25.1424C14.358 26.7678 14.4683 28.0317 14.7951 28.9159C14.813 28.9647 14.8371 29.0387 14.8627 29.1173C15.0256 29.6178 15.2983 30.4556 15.9918 31.1119C16.71 31.7915 17.5787 32.0001 18.3743 32C18.7733 32 19.154 31.9475 19.4879 31.8758C20.6783 31.62 22.0301 31.2303 23.008 29.8342C23.9325 28.5143 24.382 26.5263 24.4633 23.3939C24.4739 23.3054 24.4836 23.2208 24.493 23.1402C24.4993 23.0858 24.5057 23.0302 24.5123 22.9747L24.7301 22.9939L24.7862 22.9977C25.9986 23.0531 27.481 22.7953 28.3914 22.3713C29.1108 22.0365 31.416 20.8163 30.8733 19.1687Z"
      fill="#000"
    />
    <path
      d="M28.8001 19.4889C25.1954 20.2345 24.9476 19.0108 24.9476 19.0108C28.7536 13.348 30.3447 6.16009 28.9716 4.40087C25.2259 -0.397926 18.7418 1.8716 18.6336 1.93052L18.5987 1.93677C17.8866 1.78853 17.0895 1.70022 16.1938 1.68557C14.5627 1.65876 13.3254 2.11432 12.3866 2.8282C12.3866 2.8282 0.81959 -1.94977 1.35756 8.83738C1.472 11.1323 4.63794 26.2015 8.41416 21.6499C9.79437 19.9855 11.1279 18.5783 11.1279 18.5783C11.7903 19.0194 12.5832 19.2445 13.4145 19.1637L13.4791 19.1087C13.459 19.3153 13.4682 19.5175 13.5049 19.7567C12.5321 20.8466 12.818 21.0379 10.8733 21.4393C8.90555 21.8459 10.0615 22.5698 10.8163 22.759C11.7312 22.9885 13.8481 23.3135 15.2784 21.3059L15.2213 21.5349C15.6025 21.841 15.8701 23.5261 15.8253 25.0536C15.7804 26.5811 15.7505 27.6298 16.0508 28.449C16.3511 29.2681 16.6505 31.1112 19.2069 30.5619C21.3431 30.1029 22.45 28.9134 22.604 26.9293C22.7133 25.5188 22.9606 25.7273 22.9763 24.4662L23.1746 23.8691C23.4034 21.957 23.211 21.3401 24.527 21.627L24.8468 21.6552C25.8155 21.6994 27.0833 21.499 27.8273 21.1522C29.4295 20.4067 30.3798 19.1619 28.8 19.4889H28.8001Z"
      fill="#417BA2"
    />
    <path
      d="M13.0646 9.86366C12.7398 9.81832 12.4456 9.86028 12.2968 9.97324C12.213 10.0368 12.1871 10.1105 12.1802 10.1612C12.1615 10.2955 12.2553 10.444 12.3129 10.5206C12.476 10.7373 12.7144 10.8864 12.9503 10.9192C12.9845 10.9239 13.0185 10.9262 13.0523 10.9262C13.4457 10.9262 13.8033 10.6191 13.8348 10.3924C13.8742 10.1085 13.4632 9.91928 13.0646 9.86366Z"
      fill="white"
    />
    <path
      d="M23.8244 9.87328H23.8243C23.7934 9.65075 23.3984 9.5873 23.0236 9.63954C22.6494 9.69185 22.2864 9.86121 22.3167 10.0842C22.3411 10.2577 22.6533 10.5538 23.0231 10.5537C23.0543 10.5537 23.0858 10.5517 23.1175 10.5472C23.3643 10.5129 23.5454 10.3558 23.6314 10.2652C23.7625 10.1272 23.8382 9.9733 23.8244 9.87328Z"
      fill="white"
    />
    <path
      d="M30.0001 19.4037C29.8627 18.987 29.4203 18.8528 28.6853 19.0051C26.5029 19.4567 25.7214 19.1438 25.4647 18.9543C27.161 16.3631 28.5565 13.2311 29.3093 10.3087C29.666 8.9244 29.863 7.63886 29.879 6.59107C29.8968 5.44083 29.7015 4.59575 29.2986 4.07947C27.6741 1.99814 25.29 0.881737 22.4039 0.851055C20.4199 0.828708 18.7436 1.33787 18.4186 1.481C17.7342 1.31035 16.9882 1.20558 16.176 1.19222C14.6865 1.16808 13.3991 1.52562 12.3331 2.25437C11.8701 2.08163 10.6735 1.66976 9.21027 1.43344C6.68033 1.02494 4.67 1.33442 3.23533 2.35353C1.52348 3.5696 0.73319 5.74334 0.886331 8.81425C0.937856 9.84752 1.52491 13.0259 2.4515 16.0698C3.67111 20.076 4.99678 22.344 6.39175 22.8105C6.55499 22.8651 6.74332 22.9033 6.95085 22.9033C7.45972 22.9033 8.08354 22.6733 8.73265 21.8909C9.8108 20.5903 10.8174 19.5005 11.1885 19.1045C11.7369 19.3997 12.3392 19.5645 12.9554 19.581C12.9565 19.5972 12.9581 19.6133 12.9595 19.6294C12.8359 19.7764 12.7345 19.9053 12.6481 20.0153C12.2212 20.5586 12.1324 20.6717 10.7582 20.9555C10.3673 21.0363 9.32902 21.2509 9.3139 21.9806C9.29734 22.7778 10.541 23.1126 10.6828 23.1481C11.1766 23.2721 11.6523 23.3332 12.106 23.3332C13.2094 23.3332 14.1804 22.9696 14.9564 22.266C14.9325 25.1082 15.0507 27.9089 15.391 28.7623C15.6697 29.4608 16.3507 31.168 18.5018 31.1679C18.8173 31.1679 19.1648 31.1311 19.547 31.049C21.7919 30.5663 22.7667 29.5715 23.1438 27.3782C23.3456 26.206 23.692 23.4069 23.8548 21.9055C24.1985 22.013 24.6411 22.0622 25.1195 22.0621C26.1174 22.0621 27.2687 21.8496 27.9907 21.5135C28.8018 21.1358 30.2656 20.2089 30.0001 19.4037ZM24.6541 9.25788C24.6466 9.70115 24.5858 10.1035 24.5213 10.5236C24.4519 10.9753 24.3801 11.4424 24.3621 12.0094C24.3442 12.5612 24.413 13.1349 24.4795 13.6896C24.6138 14.8101 24.7516 15.9637 24.218 17.102C24.1351 16.9544 24.0551 16.7933 23.9817 16.6148C23.9154 16.4537 23.7714 16.1948 23.5721 15.8364C22.7965 14.4417 20.9801 11.1757 21.91 9.84292C22.1869 9.44614 22.8897 9.03837 24.6541 9.25788ZM22.5155 1.74866C25.1013 1.80593 27.1468 2.77589 28.5951 4.63146C29.7058 6.05475 28.4827 12.531 24.9418 18.118C24.9068 18.0735 24.8712 18.0285 24.8344 17.9824C24.8197 17.9639 24.8047 17.9452 24.7896 17.9262C25.7046 16.411 25.5256 14.9119 25.3664 13.5827C25.301 13.0373 25.2392 12.5221 25.2549 12.0382C25.2712 11.5252 25.3388 11.0854 25.4042 10.66C25.4847 10.1357 25.5664 9.59337 25.5438 8.95394C25.5607 8.8869 25.5675 8.80764 25.5587 8.71358C25.5011 8.10038 24.8029 6.26543 23.3799 4.60437C22.6016 3.69599 21.4664 2.67932 19.9165 1.99361C20.5831 1.85508 21.4948 1.72588 22.5155 1.74866ZM8.04577 21.3182C7.33066 22.1803 6.83677 22.0151 6.67438 21.9609C5.61615 21.6069 4.38837 19.3644 3.30585 15.8083C2.36916 12.7313 1.82173 9.63713 1.77845 8.76949C1.64165 6.02551 2.30502 4.1131 3.75022 3.08544C6.10216 1.41303 9.96903 2.41403 11.5228 2.92176C11.5004 2.94382 11.4772 2.96451 11.4551 2.98693C8.90543 5.56887 8.96591 9.98016 8.97214 10.2498C8.97193 10.3538 8.9806 10.5011 8.99257 10.7037C9.03642 11.4456 9.11804 12.8265 8.89998 14.3904C8.69725 15.8436 9.14399 17.2659 10.1255 18.2927C10.2271 18.399 10.3331 18.4988 10.4427 18.5927C10.0058 19.0618 9.05634 20.0992 8.04577 21.3182ZM10.7704 17.673C9.97935 16.8454 9.62011 15.6942 9.78464 14.5144C10.015 12.8624 9.9299 11.4236 9.88425 10.6507C9.87787 10.5426 9.87221 10.4478 9.86884 10.373C10.2413 10.0419 11.9675 9.11446 13.1984 9.39728C13.7602 9.52633 14.1024 9.90982 14.2447 10.5696C14.9813 13.985 14.3423 15.4086 13.8288 16.5525C13.723 16.7882 13.623 17.011 13.5376 17.2415L13.4714 17.4196C13.3039 17.8701 13.148 18.2888 13.0514 18.6865C12.2105 18.684 11.3924 18.3238 10.7704 17.673ZM10.8995 22.2792C10.654 22.2177 10.4331 22.1108 10.3035 22.0222C10.4118 21.9712 10.6044 21.9017 10.9384 21.8328C12.555 21.499 12.8046 21.2635 13.3498 20.5694C13.4749 20.4103 13.6165 20.2299 13.8127 20.0102C13.8128 20.01 13.8129 20.01 13.813 20.0099C14.1053 19.6818 14.2389 19.7374 14.4814 19.8382C14.6779 19.9198 14.8692 20.1667 14.9468 20.4384C14.9835 20.5668 15.0248 20.8104 14.8898 20.9999C13.7509 22.5988 12.0914 22.5783 10.8995 22.2792ZM19.3597 30.1732C17.3821 30.5981 16.6819 29.5863 16.2204 28.4296C15.9226 27.6829 15.7763 24.3155 15.8801 20.597C15.8815 20.5475 15.8745 20.4997 15.8608 20.4548C15.849 20.3681 15.8308 20.2803 15.8056 20.192C15.6511 19.651 15.2748 19.1984 14.8233 19.0108C14.644 18.9362 14.3147 18.7995 13.919 18.901C14.0034 18.5524 14.1498 18.1588 14.3084 17.7326L14.3749 17.5533C14.4499 17.3511 14.5438 17.1417 14.6433 16.9201C15.1806 15.7232 15.9165 14.0838 15.1179 10.3802C14.8187 8.9931 13.8197 8.31572 12.3053 8.47301C11.3973 8.56722 10.5668 8.93454 10.1525 9.14514C10.0634 9.19041 9.98193 9.2341 9.90582 9.27671C10.0214 7.87899 10.4583 5.26701 12.0925 3.61443C13.1214 2.57398 14.4917 2.06015 16.1612 2.08781C19.4509 2.14185 21.5604 3.83459 22.7509 5.24517C23.7767 6.46073 24.3323 7.68513 24.554 8.34547C22.8868 8.17554 21.7529 8.50556 21.178 9.32952C19.9275 11.1219 21.8622 14.6008 22.792 16.2727C22.9625 16.5791 23.1096 16.8439 23.1559 16.9564C23.4587 17.6922 23.8507 18.1834 24.1369 18.542C24.2246 18.6519 24.3098 18.7585 24.3745 18.8515C23.8695 18.9975 22.9625 19.3347 23.0451 21.0205C22.9785 21.8665 22.5044 25.8268 22.2636 27.226C21.9457 29.0745 21.2673 29.7631 19.3597 30.1732ZM27.6146 20.7011C27.0983 20.9415 26.2342 21.1218 25.4133 21.1604C24.5066 21.203 24.0451 21.0586 23.9366 20.9698C23.8855 19.9193 24.2756 19.8095 24.6883 19.6933C24.7531 19.675 24.8164 19.6572 24.8775 19.6358C24.9154 19.6668 24.957 19.6975 25.0025 19.7276C25.7312 20.2099 27.031 20.262 28.8659 19.8822C28.8727 19.8808 28.8794 19.8795 28.8861 19.8781C28.6386 20.1101 28.2151 20.4215 27.6146 20.7011Z"
      fill="white"
    />
  </svg>