  <svg width="32" height="34" viewBox="0 0 32 34" fill="none" xmlns="http://www.w3.org/2000/svg">
    <g clip-path="url(#clip0_2102_1840)">
      <path
        d="M31.869 20.2662C31.6769 19.683 31.1739 19.2768 30.5232 19.1793C30.2165 19.1333 29.8651 19.1529 29.4494 19.2389C28.7248 19.3888 28.1873 19.4459 27.7949 19.4569C29.2757 16.9498 30.48 14.0909 31.1732 11.3997C32.2941 7.0481 31.6952 5.06569 30.9951 4.16893C29.1427 1.79558 26.44 0.520496 23.1792 0.48141C21.4399 0.460124 19.9128 0.804483 19.1163 1.05205C18.3747 0.920925 17.5771 0.847648 16.7403 0.834076C15.172 0.809007 13.7861 1.15181 12.602 1.8564C11.9462 1.6342 10.8942 1.32083 9.67909 1.12081C6.82124 0.650363 4.51802 1.01697 2.83332 2.21032C0.79327 3.65525 -0.15249 6.16566 0.0224457 9.67192C0.077922 10.7852 0.699035 14.1721 1.67689 17.3844C2.23891 19.2307 2.8382 20.7639 3.45813 21.9418C4.33724 23.6122 5.2779 24.5959 6.33395 24.9491C6.92592 25.1469 8.00134 25.2853 9.13254 24.3408C9.27589 24.5147 9.4671 24.6878 9.72103 24.8485C10.0434 25.0523 10.4377 25.2189 10.8313 25.3177C12.2502 25.6734 13.5793 25.5844 14.7132 25.0859C14.7201 25.2881 14.7255 25.4813 14.7301 25.6481C14.7377 25.9187 14.745 26.184 14.7549 26.4321C14.8221 28.1099 14.936 29.4144 15.2733 30.3271C15.2917 30.3775 15.3166 30.4539 15.343 30.535C15.5112 31.0516 15.7927 31.9164 16.5085 32.5938C17.2498 33.2953 18.1465 33.5106 18.9677 33.5105C19.3795 33.5105 19.7725 33.4563 20.1171 33.3823C21.3458 33.1182 22.7411 32.716 23.7505 31.275C24.7048 29.9126 25.1687 27.8606 25.2527 24.6274C25.2636 24.536 25.2736 24.4487 25.2833 24.3655C25.2898 24.3093 25.2964 24.252 25.3032 24.1947L25.5281 24.2145L25.586 24.2184C26.8374 24.2756 28.3675 24.0095 29.3072 23.5718C30.0498 23.2263 32.4292 21.9668 31.869 20.2662Z"
        fill="#231F20"
      />
      <path
        d="M29.7294 20.5969C26.0087 21.3665 25.7529 20.1034 25.7529 20.1034C29.6814 14.2583 31.3237 6.83906 29.9064 5.02321C26.0402 0.0699543 19.3473 2.41253 19.2357 2.47335L19.1996 2.4798C18.4646 2.32679 17.6419 2.23563 16.7173 2.22051C15.0337 2.19284 13.7566 2.66306 12.7876 3.39992C12.7876 3.39992 0.848265 -1.53184 1.40355 9.60252C1.52167 11.9713 4.78952 27.5255 8.68729 22.8274C10.1119 21.1095 11.4884 19.657 11.4884 19.657C12.1721 20.1123 12.9905 20.3446 13.8486 20.2612L13.9153 20.2045C13.8945 20.4177 13.904 20.6264 13.9419 20.8733C12.9378 21.9983 13.2329 22.1957 11.2256 22.6101C9.19449 23.0298 10.3877 23.777 11.1667 23.9722C12.1111 24.2091 14.2961 24.5446 15.7725 22.4724L15.7135 22.7087C16.107 23.0247 16.3832 24.764 16.337 26.3407C16.2906 27.9174 16.2598 28.9998 16.5697 29.8454C16.8797 30.6909 17.1887 32.5933 19.8274 32.0263C22.0324 31.5525 23.1749 30.3247 23.3339 28.2768C23.4467 26.8209 23.7019 27.0361 23.7181 25.7344L23.9228 25.1181C24.159 23.1444 23.9604 22.5077 25.3188 22.8038L25.6489 22.8329C26.6487 22.8785 27.9573 22.6717 28.7253 22.3137C30.3791 21.5442 31.3601 20.2594 29.7294 20.5969Z"
        fill="#417BA2"
      />
      <path
        d="M13.4876 10.6621C13.1524 10.6153 12.8487 10.6586 12.6951 10.7752C12.6086 10.8408 12.5819 10.9169 12.5748 10.9692C12.5555 11.1078 12.6523 11.2611 12.7117 11.3402C12.8801 11.5639 13.1262 11.7177 13.3697 11.7516C13.405 11.7565 13.4401 11.7588 13.4749 11.7588C13.881 11.7588 14.2501 11.4418 14.2826 11.2078C14.3233 10.9148 13.8991 10.7195 13.4876 10.6621Z"
        fill="#1A202C"
      />
      <path
        d="M24.5932 10.6711C24.5613 10.4415 24.1535 10.376 23.7666 10.4299C23.3804 10.4839 23.0057 10.6587 23.037 10.8889C23.0622 11.0679 23.3844 11.3736 23.7661 11.3735C23.7983 11.3735 23.8308 11.3714 23.8636 11.3668C24.1183 11.3314 24.3052 11.1692 24.394 11.0757C24.5293 10.9332 24.6075 10.7744 24.5932 10.6711Z"
        fill="#1A202C"
      />
      <path
        d="M30.9686 20.5089C30.8267 20.0788 30.3701 19.9403 29.6114 20.0975C27.3588 20.5637 26.5521 20.2407 26.2872 20.0451C28.0381 17.3705 29.4785 14.1377 30.2555 11.1212C30.6237 9.69234 30.8271 8.36542 30.8436 7.28391C30.8619 6.09664 30.6604 5.22436 30.2445 4.69146C28.5677 2.54314 26.1069 1.3908 23.1279 1.35913C21.08 1.33607 19.3497 1.86162 19.0143 2.00936C18.3079 1.83321 17.5378 1.72507 16.6995 1.71128C15.1621 1.68636 13.8332 2.05541 12.7329 2.80762C12.255 2.62932 11.0199 2.20419 9.50956 1.96027C6.89819 1.53862 4.82315 1.85806 3.3423 2.90997C1.57535 4.16518 0.759623 6.40889 0.917693 9.57865C0.970877 10.6452 1.57683 13.9259 2.53324 17.0677C3.79211 21.2029 5.16045 23.5439 6.60032 24.0254C6.76881 24.0818 6.9632 24.1212 7.17741 24.1212C7.70266 24.1212 8.34656 23.8838 9.01657 23.0762C10.1294 21.7337 11.1684 20.6089 11.5515 20.2001C12.1175 20.5048 12.7392 20.6749 13.3752 20.6919C13.3764 20.7087 13.378 20.7253 13.3795 20.7419C13.2519 20.8936 13.1472 21.0267 13.058 21.1402C12.6174 21.701 12.5257 21.8178 11.1073 22.1107C10.7038 22.1941 9.63213 22.4156 9.61653 23.1688C9.59943 23.9916 10.8831 24.3372 11.0295 24.3739C11.5392 24.5019 12.0302 24.5649 12.4985 24.5649C13.6374 24.5649 14.6397 24.1896 15.4406 23.4634C15.416 26.3971 15.538 29.2879 15.8892 30.1688C16.1769 30.8898 16.8798 32.6519 19.1002 32.6518C19.4258 32.6518 19.7845 32.6138 20.179 32.5291C22.4962 32.0308 23.5023 31.004 23.8916 28.7401C24.0999 27.5302 24.4574 24.641 24.6255 23.0913C24.9802 23.2022 25.4371 23.253 25.9309 23.2529C26.9609 23.2529 28.1492 23.0336 28.8945 22.6867C29.7317 22.2968 31.2426 21.3401 30.9686 20.5089ZM25.4505 10.0366C25.4427 10.4941 25.38 10.9094 25.3134 11.343C25.2418 11.8093 25.1677 12.2914 25.1491 12.8766C25.1306 13.4462 25.2016 14.0384 25.2703 14.6109C25.4089 15.7675 25.5511 16.9582 25.0004 18.1332C24.9148 17.9808 24.8322 17.8145 24.7564 17.6303C24.688 17.464 24.5394 17.1968 24.3337 16.8268C23.5331 15.3872 21.6582 12.0161 22.6181 10.6404C22.9039 10.2309 23.6293 9.80998 25.4505 10.0366ZM23.2431 2.28563C25.9121 2.34474 28.0234 3.34593 29.5183 5.26122C30.6648 6.73032 29.4023 13.415 25.7474 19.1819C25.7113 19.1359 25.6746 19.0895 25.6366 19.0419C25.6214 19.0228 25.6059 19.0035 25.5904 18.9839C26.5348 17.4199 26.35 15.8726 26.1857 14.5006C26.1182 13.9376 26.0544 13.4058 26.0706 12.9064C26.0875 12.3769 26.1572 11.9229 26.2247 11.4838C26.3078 10.9426 26.3922 10.3828 26.3688 9.72283C26.3863 9.65363 26.3933 9.57182 26.3842 9.47474C26.3248 8.8418 25.6041 6.94779 24.1353 5.23326C23.3319 4.29564 22.1602 3.24625 20.5604 2.53847C21.2485 2.39548 22.1895 2.26212 23.2431 2.28563ZM8.30758 22.4851C7.56945 23.3749 7.05966 23.2044 6.89205 23.1485C5.79975 22.7831 4.53245 20.4684 3.41509 16.7978C2.44825 13.6218 1.8832 10.428 1.83853 9.53244C1.69732 6.70014 2.38205 4.72618 3.87376 3.66544C6.30141 1.9392 10.2927 2.97242 11.8965 3.49649C11.8734 3.51926 11.8495 3.54062 11.8266 3.56376C9.19491 6.2288 9.25733 10.7821 9.26377 11.0604C9.26355 11.1677 9.2725 11.3198 9.28485 11.5289C9.33011 12.2947 9.41436 13.72 9.18928 15.3343C8.98003 16.8343 9.44115 18.3023 10.4542 19.3622C10.5591 19.4719 10.6685 19.5749 10.7817 19.6718C10.3307 20.156 9.35068 21.2268 8.30758 22.4851ZM11.1199 18.7225C10.3034 17.8683 9.93259 16.68 10.1024 15.4623C10.3402 13.7571 10.2524 12.272 10.2052 11.4742C10.1986 11.3626 10.1928 11.2648 10.1893 11.1876C10.5738 10.8458 12.3555 9.88852 13.6261 10.1804C14.2059 10.3136 14.5592 10.7095 14.706 11.3905C15.4663 14.9158 14.8068 16.3853 14.2767 17.566C14.1675 17.8093 14.0643 18.0392 13.9762 18.2771L13.9078 18.461C13.735 18.926 13.574 19.3582 13.4743 19.7687C12.6064 19.7661 11.7619 19.3943 11.1199 18.7225ZM11.2532 23.477C10.9998 23.4135 10.7717 23.3032 10.638 23.2117C10.7498 23.1591 10.9486 23.0873 11.2933 23.0162C12.9619 22.6717 13.2196 22.4286 13.7823 21.7122C13.9115 21.5479 14.0576 21.3617 14.2601 21.135C14.26 21.1351 14.2602 21.1348 14.2601 21.135C14.5618 20.7963 14.7 20.8534 14.9504 20.9574C15.1532 21.0417 15.3506 21.2965 15.4307 21.577C15.4686 21.7095 15.5112 21.9609 15.3719 22.1565C14.1963 23.8069 12.4834 23.7857 11.2532 23.477ZM19.9857 31.6251C17.9444 32.0637 17.2217 31.0193 16.7453 29.8254C16.4379 29.0546 16.2869 25.5788 16.3941 21.7407C16.3955 21.6896 16.3883 21.6402 16.3742 21.5939C16.362 21.5044 16.3432 21.4138 16.3172 21.3226C16.1577 20.7642 15.7693 20.297 15.3033 20.1034C15.1182 20.0264 14.7783 19.8853 14.3699 19.9901C14.457 19.6302 14.6081 19.224 14.7718 18.7841L14.8404 18.599C14.9178 18.3903 15.0148 18.1741 15.1175 17.9454C15.6721 16.71 16.4316 15.0178 15.6073 11.195C15.2985 9.76325 14.2674 9.06407 12.7042 9.22642C11.767 9.32366 10.9098 9.70281 10.4821 9.92019C10.3902 9.96691 10.3061 10.012 10.2275 10.056C10.3468 8.61328 10.7978 5.91723 12.4846 4.21146C13.5466 3.13752 14.961 2.60715 16.6842 2.6357C20.0798 2.69148 22.2572 4.4387 23.486 5.89469C24.5448 7.14937 25.1183 8.41318 25.3472 9.09478C23.6263 8.91938 22.4559 9.26002 21.8625 10.1105C20.5718 11.9606 22.5687 15.5514 23.5285 17.2772C23.7044 17.5934 23.8563 17.8668 23.9041 17.9829C24.2166 18.7424 24.6212 19.2494 24.9166 19.6195C25.0072 19.7329 25.0951 19.843 25.1619 19.939C24.6406 20.0897 23.7044 20.4377 23.7897 22.1778C23.721 23.051 23.2316 27.1388 22.983 28.583C22.6549 30.491 21.9547 31.2018 19.9857 31.6251ZM28.5063 21.8481C27.9734 22.0962 27.0814 22.2823 26.2341 22.3222C25.2982 22.3662 24.8219 22.2171 24.7099 22.1255C24.6572 21.0411 25.0598 20.9278 25.4858 20.8079C25.5527 20.789 25.618 20.7706 25.6811 20.7485C25.7202 20.7805 25.7631 20.8122 25.8101 20.8433C26.5623 21.3411 27.9039 21.3949 29.7979 21.0028C29.8049 21.0014 29.8118 21.0001 29.8187 20.9986C29.5632 21.2381 29.1261 21.5595 28.5063 21.8481Z"
        fill="#1A202C"
      />
    </g>
    <defs>
      <clipPath id="clip0_2102_1840">
        <rect
          width="31.9978"
          height="33.03"
          fill="white"
          transform="translate(0.00195312 0.480469)"
        />
      </clipPath>
    </defs>
  </svg>