<svg width="36" height="36" viewBox="0 0 36 36" fill="none" xmlns="http://www.w3.org/2000/svg">
<g clip-path="url(#clip0_4004_1790)">
<path d="M0.163764 15.3993C0.0780152 16.0003 0.0222188 16.6052 -0.00341797 17.2118H27.3377C27.2422 17.0253 27.1139 16.8571 26.9846 16.6925C22.3104 10.6537 19.7961 11.1773 16.1993 11.0239C15.0001 10.9746 14.1869 10.9548 9.41369 10.9548C6.85896 10.9548 4.08158 10.9613 1.377 10.9685C1.02688 11.9135 0.689214 12.8295 0.524809 13.5746H14.5353V15.3993H0.163764ZM27.5532 19.0383H0.0106076C0.0394321 19.5252 0.0848483 20.0056 0.150442 20.4795H25.5789C26.7125 20.4795 27.3471 19.8363 27.5532 19.0383ZM1.57901 25.4574C1.57901 25.4574 5.79456 35.8083 17.9753 35.9922C25.2557 35.9922 31.5113 31.6683 34.3528 25.4574H1.57901Z" fill="white"/>
<path d="M17.9734 -0.00341797C11.2418 -0.00341797 5.38402 3.69315 2.29063 9.15758C4.70805 9.15252 9.41605 9.14963 9.41605 9.14963H9.41714V9.14784C14.982 9.14784 15.1888 9.17269 16.2759 9.21807L16.949 9.24289C19.2936 9.32107 22.1755 9.57276 24.443 11.2884C25.6739 12.2189 27.451 14.2726 28.5104 15.7358C29.4898 17.0891 29.7715 18.6448 29.1056 20.1353C28.4927 21.5052 27.174 22.3223 25.577 22.3223H0.581543C0.581543 22.3223 0.730341 22.9531 0.95345 23.6493H35.073C35.6789 21.8281 35.9886 19.9214 35.9904 18.002C35.9907 8.05884 27.9241 -0.00341797 17.9734 -0.00341797Z" fill="white"/>
</g>
<defs>
<clipPath id="clip0_4004_1790">
<rect width="35.9955" height="35.9955" fill="white" transform="translate(-0.00341797 -0.00341797)"/>
</clipPath>
</defs>
</svg>
