<svg width="37" height="37" viewBox="0 0 37 37" fill="none" xmlns="http://www.w3.org/2000/svg">
<g clip-path="url(#clip0_3994_859)">
<path d="M0.537299 16.2793C0.45155 16.8803 0.395754 17.4852 0.370117 18.0918H27.7112C27.6157 17.9053 27.4875 17.7371 27.3581 17.5725C22.684 11.5337 20.1696 12.0573 16.5728 11.9039C15.3737 11.8546 14.5604 11.8348 9.78723 11.8348C7.2325 11.8348 4.45511 11.8413 1.75053 11.8485C1.40042 12.7935 1.06275 13.7095 0.898344 14.4546H14.9089V16.2793H0.537299ZM27.9267 19.9183H0.384143C0.412967 20.4052 0.458383 20.8856 0.523977 21.3595H25.9525C27.0861 21.3595 27.7206 20.7163 27.9267 19.9183ZM1.95255 26.3374C1.95255 26.3374 6.1681 36.6883 18.3489 36.8722C25.6293 36.8722 31.8848 32.5483 34.7264 26.3374H1.95255Z" fill="#1A202C"/>
<path d="M18.347 0.876648C11.6153 0.876648 5.75756 4.57322 2.66416 10.0376C5.08159 10.0326 9.78958 10.0297 9.78958 10.0297H9.79067V10.0279C15.3555 10.0279 15.5624 10.0528 16.6494 10.0981L17.3226 10.123C19.6672 10.2011 22.549 10.4528 24.8166 12.1684C26.0474 13.0989 27.8246 15.1527 28.8839 16.6159C29.8633 17.9692 30.145 19.5249 29.4792 21.0154C28.8662 22.3853 27.5475 23.2024 25.9505 23.2024H0.955078C0.955078 23.2024 1.10388 23.8331 1.32698 24.5294H35.4465C36.0524 22.7081 36.3621 20.8015 36.3639 18.8821C36.3642 8.9389 28.2977 0.876648 18.347 0.876648Z" fill="#1A202C"/>
</g>
<defs>
<clipPath id="clip0_3994_859">
<rect width="35.9955" height="35.9955" fill="white" transform="translate(0.370117 0.876648)"/>
</clipPath>
</defs>
</svg>
