<svg width="48" height="48" viewBox="0 0 48 48" fill="none" xmlns="http://www.w3.org/2000/svg">
<g clip-path="url(#clip0_6116_39954)">
<path fill-rule="evenodd" clip-rule="evenodd" d="M23.9993 7.74331L38.1811 15.8116L43.8624 12.5313L24.051 1.0935L4.14062 12.5313L9.82196 15.8116L23.9986 7.74331" fill="#52B0E7"/>
<path fill-rule="evenodd" clip-rule="evenodd" d="M4.24028 12.5926L9.97308 15.9022V32.2783L23.9996 40.3789V46.876L4.13721 35.468L4.24085 12.5922" fill="#3C76C3"/>
<path fill-rule="evenodd" clip-rule="evenodd" d="M18.5044 20.8232L24.0263 24.0111V30.5075L21.1627 28.8527L18.5055 27.3185L18.5044 20.8232" fill="#2E9D4D"/>
<path fill-rule="evenodd" clip-rule="evenodd" d="M29.6504 20.7629L24.0264 24.0096V30.5062L29.5471 27.3166L29.6504 20.7629Z" fill="#256F44"/>
<path fill-rule="evenodd" clip-rule="evenodd" d="M43.7598 12.5926L38.027 15.9022V32.0975L31.1689 36.237L24.0005 40.3786V46.8757L24.0521 46.9055L43.7785 35.5172L43.7603 12.5919" fill="#2E3B69"/>
<path fill-rule="evenodd" clip-rule="evenodd" d="M24.0253 24.0097L18.5034 20.8218V20.7829L24.0253 17.5945L24.0934 17.5551L26.8884 19.169L29.6493 20.7628L24.0253 24.0097Z" fill="#9FD62B"/>
<path fill-rule="evenodd" clip-rule="evenodd" d="M11.4829 24.7237L17.0048 27.9117V34.4081L14.1412 32.7532L11.484 31.2189L11.483 24.7237" fill="#3C76C3"/>
<path fill-rule="evenodd" clip-rule="evenodd" d="M22.5263 24.7237L17.0044 27.9117V34.4081L22.5256 31.2186L22.5263 24.7237Z" fill="#2E3B69"/>
<path fill-rule="evenodd" clip-rule="evenodd" d="M17.0043 27.9117L11.4829 24.7241L14.2778 23.0714L17.0045 21.4965L22.5266 24.7241L17.0045 27.9117" fill="#52B0E7"/>
<path fill-rule="evenodd" clip-rule="evenodd" d="M25.6934 24.8906L31.2152 28.0786V34.575L28.3517 32.9201L25.6944 31.386L25.6934 24.8906" fill="#3C76C3"/>
<path fill-rule="evenodd" clip-rule="evenodd" d="M36.7372 24.8906L31.2153 28.0786V34.575L36.7364 31.3857L36.7372 24.8906Z" fill="#2E3B69"/>
<path fill-rule="evenodd" clip-rule="evenodd" d="M31.2149 28.0786L25.6934 24.8909V24.8519L28.4883 23.2381L31.2149 21.6634L36.7371 24.8909L31.2149 28.0786Z" fill="#52B0E7"/>
<path fill-rule="evenodd" clip-rule="evenodd" d="M18.7276 28.9873L24.2493 32.1754V38.6716L21.3859 37.0168L18.7285 35.4825L18.7275 28.9873" fill="#3C76C3"/>
<path fill-rule="evenodd" clip-rule="evenodd" d="M29.7709 28.9873L24.249 32.1754V38.6716L29.7703 35.4823L29.7709 28.9873Z" fill="#2E3B69"/>
<path fill-rule="evenodd" clip-rule="evenodd" d="M24.2494 32.1744L18.728 28.9867V28.9477L21.5228 27.3339L24.2494 25.7591L29.7716 28.9867L24.2494 32.1744Z" fill="#52B0E7"/>
<path fill-rule="evenodd" clip-rule="evenodd" d="M18.5044 12.1368L24.0263 15.3248V21.8212L21.1627 20.1663L18.5055 18.6322L18.5044 12.1368" fill="#3C76C3"/>
<path fill-rule="evenodd" clip-rule="evenodd" d="M29.6504 12.078L24.0264 15.3247V21.8213L29.5471 18.6316L29.6504 12.078Z" fill="#2E3B69"/>
<path fill-rule="evenodd" clip-rule="evenodd" d="M24.0253 15.3248L18.5034 12.1368V12.0978L24.0253 8.90945L24.0934 8.87019L26.8884 10.484L29.6493 12.0779L24.0253 15.3248Z" fill="#52B0E7"/>
<path fill-rule="evenodd" clip-rule="evenodd" d="M11.4829 16.0388L17.0048 19.2267V25.723L14.1412 24.0683L11.484 22.534L11.483 16.0388" fill="#3C76C3"/>
<path fill-rule="evenodd" clip-rule="evenodd" d="M22.5263 16.0388L17.0044 19.2267V25.723L22.5256 22.5337L22.5263 16.0388Z" fill="#2E3B69"/>
<path fill-rule="evenodd" clip-rule="evenodd" d="M17.0043 19.2268L11.4829 16.0392L14.2778 14.3865L17.0045 12.8115L22.5266 16.0392L17.0045 19.2268" fill="#52B0E7"/>
<path fill-rule="evenodd" clip-rule="evenodd" d="M25.6934 16.2057L31.2152 19.3937V25.8901L28.3517 24.2352L25.6944 22.7009L25.6934 16.2057Z" fill="#3C76C3"/>
<path fill-rule="evenodd" clip-rule="evenodd" d="M36.7372 16.2057L31.2153 19.3937V25.8901L36.7364 22.7006L36.7372 16.2057Z" fill="#2E3B69"/>
<path fill-rule="evenodd" clip-rule="evenodd" d="M31.2149 19.3937L25.6934 16.206V16.167L28.4883 14.5532L31.2149 12.9784L36.7371 16.206L31.2149 19.3937Z" fill="#52B0E7"/>
<path fill-rule="evenodd" clip-rule="evenodd" d="M18.7276 20.3024L24.2493 23.4903V29.9867L21.3859 28.3319L18.7285 26.7977L18.7275 20.3024" fill="#3C76C3"/>
<path fill-rule="evenodd" clip-rule="evenodd" d="M29.7709 20.3024L24.249 23.4903V29.9867L29.7703 26.7972L29.7709 20.3024Z" fill="#2E3B69"/>
<path fill-rule="evenodd" clip-rule="evenodd" d="M24.2494 23.4889L18.728 20.3013V20.2624L21.5228 18.6484L24.2494 17.0735L29.7716 20.3013L24.2494 23.4889Z" fill="#52B0E7"/>
</g>
<defs>
<clipPath id="clip0_6116_39954">
<rect width="39.7259" height="45.8113" fill="white" transform="translate(4.13672 1.09436)"/>
</clipPath>
</defs>
</svg>
