<svg xmlns="http://www.w3.org/2000/svg" width="2500" height="1113" viewBox="0 0 512 228" style="height:100%;width:55px;margin-right:-30px">
    <style>
        height: 100%;
        width: 55px;
        margin-right: -30px;
    </style>
    <defs>
        <linearGradient x1="57.662%" y1="2.046%" x2="57.662%" y2="94.439%" id="a">
            <stop stop-color="#97D9F6" offset="0%"></stop>
            <stop stop-color="#0F80CC" offset="92.024%"></stop>
            <stop stop-color="#0F80CC" offset="100%"></stop>
        </linearGradient>
    </defs>
    <path d="M157.888 9.952H17.15C7.717 9.952 0 17.67 0 27.102V182.31c0 9.432 7.717 17.15 17.15 17.15h92.693c-1.052-46.122 14.698-135.63 48.045-189.508z" fill="#0F80CC"></path>
    <path d="M152.775 14.955H17.15c-6.698 0-12.148 5.449-12.148 12.148v143.883c30.716-11.788 76.817-21.96 108.693-21.498 6.406-33.494 25.232-99.134 39.08-134.533z" fill="url(#a)"></path>
    <path d="M190.715 4.872c-9.639-8.595-21.31-5.143-32.827 5.08-1.71 1.518-3.416 3.203-5.113 5.003-19.704 20.903-37.994 59.62-43.676 89.19 2.214 4.489 3.943 10.217 5.081 14.593.292 1.122.555 2.176.766 3.072.5 2.122.769 3.497.769 3.497s-.177-.668-.902-2.77c-.138-.403-.292-.843-.474-1.361a15.78 15.78 0 0 0-.304-.752c-1.285-2.988-4.84-9.294-6.405-12.04a300.723 300.723 0 0 0-3.511 10.983c4.517 8.265 7.27 22.429 7.27 22.429s-.239-.918-1.374-4.122c-1.008-2.833-6.027-11.628-7.216-13.684-2.034 7.509-2.842 12.578-2.113 13.812 1.415 2.391 2.762 6.518 3.946 11.081 2.673 10.28 4.53 22.796 4.53 22.796s.06.83.162 2.106c-.372 8.633-.149 17.584.52 25.674.885 10.71 2.552 19.91 4.677 24.834l1.443-.786c-3.12-9.701-4.388-22.414-3.833-37.076.84-22.41 5.997-49.437 15.526-77.606 16.1-42.523 38.436-76.641 58.879-92.935-18.633 16.828-43.851 71.297-51.4 91.467-8.453 22.588-14.443 43.784-18.053 64.092 6.229-19.039 26.368-27.222 26.368-27.222s9.877-12.182 21.42-29.586c-6.914 1.577-18.268 4.277-22.071 5.875-5.61 2.353-7.121 3.156-7.121 3.156s18.17-11.066 33.76-16.076c21.44-33.768 44.799-81.74 21.276-102.724" fill="#003B57"></path>
</svg>
