<svg width="48" height="49" viewBox="0 0 48 49" fill="none" xmlns="http://www.w3.org/2000/svg">
<g clip-path="url(#clip0_4958_5114)">
<path d="M35.5828 4.07477H7.27174C5.37194 4.07477 3.83008 5.6304 3.83008 7.51643V38.7392C3.83008 40.639 5.38571 42.1808 7.27174 42.1808H25.9255C25.719 32.9021 28.8854 14.8953 35.5897 4.04724L35.5828 4.07477Z" fill="#0F80CC"/>
<path d="M34.5522 5.08667H7.27366C5.92453 5.08667 4.83008 6.188 4.83008 7.53025V36.4746C11.0113 34.0999 20.2831 32.0555 26.6984 32.1519C28.6761 22.9558 31.296 13.9114 34.5522 5.08667Z" fill="url(#paint0_linear_4958_5114)"/>
<path d="M42.1899 3.05609C40.2488 1.33526 37.9016 2.02359 35.5819 4.07482L34.5494 5.07978C30.5846 9.27861 26.9777 17.0705 25.7663 23.0246C26.1979 23.9676 26.539 24.9494 26.785 25.9569L26.9364 26.6452L27.0879 27.3473C27.0879 27.3473 27.0534 27.2096 26.9089 26.7966L26.8125 26.5213C26.7932 26.4703 26.7725 26.4198 26.7506 26.3699C26.489 25.771 25.7869 24.4976 25.4634 23.947C25.213 24.6789 24.9766 25.4155 24.7544 26.1565C25.663 27.8223 26.2137 30.672 26.2137 30.672C26.2137 30.672 26.1655 30.4861 25.9384 29.846C25.7319 29.2746 24.7269 27.5056 24.4929 27.0926C24.0799 28.607 23.9215 29.6257 24.0661 29.8735C24.3414 30.3553 24.6168 31.2502 24.8577 32.1037C25.2294 33.6173 25.5326 35.147 25.7663 36.688L25.8007 37.1147C25.7293 38.8361 25.7638 40.5601 25.9039 42.2772C26.0829 44.4317 26.4202 46.2833 26.8469 47.2745L27.136 47.1162C26.5165 45.1613 26.255 42.6076 26.3651 39.6547C26.5372 35.1461 27.5697 29.7083 29.4901 24.0433C32.7459 15.4185 37.2339 8.54898 41.3501 5.27252C37.5987 8.65911 32.5257 19.6173 31.0114 23.6716C29.3112 28.2146 28.1066 32.4823 27.377 36.5641C28.6297 32.737 32.6771 31.085 32.6771 31.085C32.6771 31.085 34.6733 28.6345 36.9861 25.1309L32.5463 26.3148L31.1146 26.9481C31.1146 26.9481 34.7628 24.7248 37.9084 23.7129C42.2243 16.9191 46.9256 7.2618 42.1899 3.04921" fill="#003B57"/>
</g>
<defs>
<linearGradient id="paint0_linear_4958_5114" x1="21.9764" y1="5.72682" x2="21.9764" y2="34.7331" gradientUnits="userSpaceOnUse">
<stop stop-color="#97D9F6"/>
<stop offset="0.92024" stop-color="#0F80CC"/>
<stop offset="1" stop-color="#0F80CC"/>
</linearGradient>
<clipPath id="clip0_4958_5114">
<rect width="45.1201" height="45.1201" fill="white" transform="translate(1.43555 2.07861)"/>
</clipPath>
</defs>
</svg>
