<svg xmlns="http://www.w3.org/2000/svg" fill="none" viewBox="0 0 844 474" height="474" width="844">
<g clip-path="url(#clip0_8905_9230)">
<rect fill="url(#paint0_linear_8905_9230)" height="474" width="844"></rect>
<path fill="white" d="M332.593 129.3V161.583L350.304 147.459V137.595L332.593 129.3ZM332.145 101.276L350.08 90.515V71.683H332.145V101.276ZM374.068 161.583L376.086 163.377L374.068 164.946V164.722L304.345 220.321L307.484 207.318V50.8333L303 45.2286H358.823L374.068 54.4204V101.725L350.528 115.176L374.068 127.731V161.583ZM387.282 219.425V50.8333L382.798 45.2286H453.866V77.0636H426.963V71.683H411.943V105.76H437.724V132.214H411.943V199.023L415.53 204.404L385.712 226.374L387.282 219.425ZM465.109 164.722V50.8333L460.625 45.2286H516.449L531.694 54.4204V77.0636H504.791V71.683H489.77V146.338L504.791 157.548V134.456H496.72V108.002H531.694V215.165L533.487 219.425L465.109 164.722Z"></path>
<path fill="url(#paint1_linear_8905_9230)" d="M704.9 146.864L686.442 172.198L704.9 199.359L742.4 190.859L731.4 183.359L742.4 167.866L724.998 164.654L727.9 140.362L704.9 158.359L704.9 146.864Z"></path>
<line stroke-dasharray="10 10" stroke-linecap="round" stroke-width="5" stroke="#71E8DF" y2="87.0857" x2="860.173" y1="187.116" x1="686.915"></line>
<path fill="url(#paint2_linear_8905_9230)" d="M138.688 146.864L157.146 172.198L138.688 199.359L101.188 190.859L112.188 183.359L101.188 167.866L118.59 164.654L115.688 140.362L138.688 158.359L138.688 146.864Z"></path>
<line stroke-dasharray="10 10" stroke-linecap="round" stroke-width="5" stroke="#71E8DF" transform="matrix(-0.866025 -0.5 -0.5 0.866025 157.588 190.531)" y2="-2.5" x2="202.561" y1="-2.5" x1="2.5"></line>
<path fill="#E7E9EF" d="M559.27 178.439L572.575 201.484L589.858 191.505L572.118 160.779L562.516 166.323L559.27 178.439Z" clip-rule="evenodd" fill-rule="evenodd"></path>
<path fill="#C5D3DE" d="M572.575 201.48L559.27 178.435L525.565 197.894L522.168 210.571L530.834 225.58L572.575 201.48Z" clip-rule="evenodd" fill-rule="evenodd"></path>
<path fill="#7F9CF5" d="M530.835 225.581L522.17 210.572L502.495 221.931L492.755 258.282L519.756 242.693L523.153 230.015L530.835 225.581Z" clip-rule="evenodd" fill-rule="evenodd"></path>
<path fill="#C5D3DE" d="M519.757 242.699L492.755 258.288L464.102 274.831L481.102 340.529L518.922 350.662L577.309 316.952L581.351 292.864L549.751 311.109L543.717 303.876L518.109 318.661L501.131 313.612L493.973 289.733L509.651 280.682C505.82 274.047 508.094 265.563 514.728 261.733C521.363 257.902 529.847 260.175 533.677 266.81L519.757 242.699Z" clip-rule="evenodd" fill-rule="evenodd"></path>
<path fill="#7F9CF5" d="M528.597 285.753C535.232 281.922 537.505 273.438 533.675 266.803C529.844 260.169 521.361 257.895 514.726 261.726C508.091 265.557 505.818 274.04 509.648 280.675C511.323 283.576 513.888 285.644 516.799 286.731C520.545 288.131 524.864 287.908 528.597 285.753Z" clip-rule="evenodd" fill-rule="evenodd"></path>
<path fill="#E7E9EF" d="M571.101 223.764L585.021 247.875L607.425 234.94C604.939 230.635 606.414 225.129 610.719 222.644C615.025 220.158 620.53 221.633 623.016 225.938L645.42 213.004L658.097 216.4L698.28 193.2L684.36 169.089L671.683 165.693L607.173 202.938L571.101 223.764Z" clip-rule="evenodd" fill-rule="evenodd"></path>
<path fill="#A3BFFA" d="M612.893 239.134C617.695 240.42 622.631 237.571 623.918 232.768C625.204 227.966 622.355 223.03 617.553 221.744C612.751 220.457 607.815 223.307 606.528 228.109C605.241 232.911 608.091 237.847 612.893 239.134Z"></path>
<path fill="#C5D3DE" d="M623.017 225.94C625.503 230.245 624.028 235.751 619.722 238.236C615.417 240.722 609.911 239.247 607.425 234.942L585.022 247.876L598.942 271.988L623.054 258.066L675.415 227.836L670.775 219.799L658.098 216.402L645.421 213.006L623.017 225.94Z" clip-rule="evenodd" fill-rule="evenodd"></path>
<path fill="#6D91AC" d="M658.097 216.403L670.774 219.8L675.414 227.836L707.561 209.276L698.281 193.203L658.097 216.403Z" clip-rule="evenodd" fill-rule="evenodd"></path>
<path fill="#E7E9EF" d="M617.021 294.016L623.054 258.062L598.942 271.984L595.545 284.66L581.578 292.725L577.306 316.945L617.021 294.016Z" clip-rule="evenodd" fill-rule="evenodd"></path>
<path fill="#6D91AC" d="M533.675 266.804L580.382 239.838L571.102 223.763L607.175 202.937L602.535 194.899L589.858 191.503L523.151 230.016L519.754 242.693L533.675 266.804Z" clip-rule="evenodd" fill-rule="evenodd"></path>
<path fill="#F3EFF0" d="M533.676 266.805C537.506 273.44 535.233 281.924 528.598 285.755L543.715 303.872L549.749 311.105L581.349 292.86L581.579 292.727L595.546 284.663L598.944 271.986L585.023 247.875L580.384 239.839L533.676 266.805Z" clip-rule="evenodd" fill-rule="evenodd"></path>
<path fill="#1A202C" d="M711.147 206.705L704.089 194.48C706.249 193.279 707.008 190.53 705.771 188.392L696.498 172.329C695.274 170.21 692.563 169.484 690.44 170.709C690.421 170.72 690.403 170.731 690.384 170.742L687.962 166.548C687.375 165.531 686.407 164.788 685.271 164.484L672.597 161.093C671.461 160.789 670.251 160.949 669.232 161.537L614.183 193.319C612.062 194.544 611.334 197.255 612.558 199.375C613.782 201.495 616.493 202.22 618.615 200.996L672.073 170.132L681.199 172.573L691.975 191.239L657.222 211.304L646.322 208.388C645.186 208.084 643.976 208.244 642.957 208.832L623.748 219.922C619.572 216.247 613.064 215.607 608.259 218.478C603.37 221.204 600.671 227.161 601.765 232.614L586.397 241.488L576.918 225.07L625.316 197.128C627.437 195.903 628.164 193.192 626.941 191.072C625.717 188.952 623.005 188.227 620.883 189.451L608.561 196.566L606.14 192.373C605.552 191.355 604.584 190.612 603.448 190.309L592.548 187.392L575.739 158.277C574.589 156.192 571.721 155.425 569.681 156.657L560.079 162.201C559.06 162.789 558.316 163.757 558.012 164.893L555.238 175.229L523.122 193.771C522.104 194.359 521.36 195.328 521.055 196.463L518.131 207.361L500.046 217.802C499.028 218.39 498.284 219.359 497.979 220.494L488.705 255.056L461.641 270.682C459.915 271.678 459.065 273.703 459.563 275.632L476.54 341.29C476.94 342.837 478.141 344.048 479.684 344.461L517.495 354.577C518.63 354.88 519.841 354.721 520.86 354.133L618.966 297.491C620.112 296.829 620.903 295.69 621.123 294.385L626.82 260.509L709.521 212.761C711.643 211.536 712.371 208.825 711.147 206.705ZM612.69 226.155C614.791 224.883 617.744 225.673 618.927 227.823C620.185 230.003 619.434 232.8 617.253 234.059C615.152 235.33 612.199 234.54 611.017 232.391C609.746 230.291 610.539 227.338 612.69 226.155ZM606.197 240.29C615.941 248.541 630.45 239.981 628.173 227.602L645.797 217.426L667.598 223.259L669.1 225.862L600.307 265.582L590.828 249.164L606.197 240.29ZM516.696 265.25C521.189 262.656 526.948 264.185 529.56 268.655L529.584 268.698C529.587 268.702 529.59 268.707 529.593 268.711C532.171 273.195 530.641 278.939 526.179 281.552C526.146 281.571 526.113 281.59 526.08 281.61C521.58 284.174 515.83 282.622 513.239 278.135C510.639 273.632 512.19 267.852 516.696 265.25ZM508.243 286.137C513.08 291.14 520.43 292.979 527.068 290.816L536.671 302.322L517.279 313.517L504.43 309.701L498.973 291.488L508.243 286.137ZM534.645 286.051C539.106 281.378 540.796 274.612 539.011 268.373L546.701 263.933L547.44 276.309C547.575 278.773 549.747 280.629 552.131 280.467C554.575 280.32 556.439 278.219 556.293 275.775L555.305 259.219C555.3 259.138 555.293 259.058 555.284 258.978L564.123 253.875L564.862 266.251C564.998 268.714 567.169 270.57 569.553 270.409C571.998 270.261 573.861 268.16 573.715 265.717L572.727 249.16C572.722 249.079 572.715 248.999 572.706 248.92L578.51 245.568L593.923 272.265L591.475 281.389L550.498 305.047L534.645 286.051ZM600.878 201.001L568.645 219.611C566.524 220.835 565.796 223.547 567.02 225.667L574.078 237.892L535.05 260.425L524.273 241.758L526.721 232.634L590.249 195.956L599.375 198.398L600.878 201.001ZM566.101 168.959L570.272 166.551L583.567 189.579L573.965 195.123L563.803 177.522L566.101 168.959ZM557.419 184.205L566.282 199.558L532.222 219.223L526.697 209.653L529.145 200.529L557.419 184.205ZM506.069 224.56L520.312 216.337L524.54 223.658L520.698 225.876C519.68 226.464 518.936 227.433 518.631 228.569L515.707 239.466L499.568 248.784L506.069 224.56ZM518.019 345.538L484.48 336.565L468.994 276.671L517.889 248.442L521.749 255.127C518.529 255.064 515.252 255.849 512.265 257.574C504.847 261.857 501.558 270.579 503.812 278.461L491.504 285.566C489.723 286.594 488.882 288.711 489.472 290.679L496.621 314.543C497.05 315.974 498.171 317.093 499.604 317.519L516.578 322.559C517.741 322.905 519.005 322.757 520.059 322.148L542.436 309.229L546.077 313.592C547.458 315.247 549.831 315.668 551.699 314.59L575.151 301.049L573.008 313.79L518.019 345.538ZM612.724 290.859L582.967 308.04L585.11 295.299L597.497 288.147C598.516 287.559 599.259 286.59 599.564 285.455L602.488 274.557L616.862 266.258L612.724 290.859ZM676.783 221.428L674.362 217.235C673.775 216.217 672.806 215.474 671.67 215.17L669.336 214.546L696.408 198.916L701.249 207.302L676.783 221.428Z"></path>
<path fill="#1A202C" d="M553.293 228.934L553.291 228.936C549.873 230.874 550.605 236.097 554.362 237.059C558.098 238.104 561.344 233.946 559.352 230.557C558.127 228.436 555.415 227.709 553.293 228.934Z"></path>
<path fill="#1A202C" d="M537.886 237.834L537.884 237.836C535.706 238.958 534.853 241.632 535.975 243.809C537.1 245.991 539.78 246.839 541.951 245.718C544.128 244.595 544.983 241.92 543.86 239.744C542.738 237.566 540.063 236.712 537.886 237.834Z"></path>
<path fill="#E7E9EF" d="M281.923 179.346L268.618 202.39L251.335 192.411L269.075 161.685L278.677 167.229L281.923 179.346Z" clip-rule="evenodd" fill-rule="evenodd"></path>
<path fill="#C5D3DE" d="M268.618 202.387L281.923 179.341L315.628 198.8L319.024 211.477L310.359 226.486L268.618 202.387Z" clip-rule="evenodd" fill-rule="evenodd"></path>
<path fill="#7F9CF5" d="M310.358 226.487L319.023 211.478L338.698 222.837L348.438 259.188L321.437 243.599L318.04 230.922L310.358 226.487Z" clip-rule="evenodd" fill-rule="evenodd"></path>
<path fill="#C5D3DE" d="M321.436 243.605L348.438 259.194L377.091 275.737L360.091 341.435L322.271 351.568L263.884 317.858L259.842 293.771L291.442 312.015L297.476 304.782L323.084 319.567L340.061 314.519L347.219 290.64L331.542 281.588C335.373 274.953 333.099 266.47 326.465 262.639C319.83 258.808 311.346 261.082 307.515 267.716L321.436 243.605Z" clip-rule="evenodd" fill-rule="evenodd"></path>
<path fill="#7F9CF5" d="M312.596 286.659C305.961 282.828 303.687 274.344 307.518 267.71C311.349 261.075 319.832 258.802 326.467 262.632C333.102 266.463 335.375 274.947 331.545 281.581C329.87 284.483 327.305 286.55 324.394 287.637C320.648 289.037 316.329 288.814 312.596 286.659Z" clip-rule="evenodd" fill-rule="evenodd"></path>
<path fill="#E7E9EF" d="M270.092 224.67L256.172 248.781L233.768 235.846C236.254 231.541 234.779 226.035 230.474 223.55C226.168 221.064 220.663 222.539 218.177 226.845L195.773 213.91L183.096 217.307L142.912 194.107L156.833 169.995L169.51 166.599L234.02 203.844L270.092 224.67Z" clip-rule="evenodd" fill-rule="evenodd"></path>
<path fill="#A3BFFA" d="M228.3 240.04C223.498 241.327 218.562 238.477 217.275 233.675C215.988 228.873 218.838 223.937 223.64 222.65C228.442 221.363 233.378 224.213 234.665 229.015C235.952 233.817 233.102 238.753 228.3 240.04Z"></path>
<path fill="#C5D3DE" d="M218.176 226.846C215.69 231.152 217.165 236.657 221.471 239.143C225.776 241.629 231.282 240.153 233.767 235.848L256.171 248.783L242.25 272.894L218.139 258.973L165.778 228.742L170.418 220.705L183.095 217.309L195.772 213.912L218.176 226.846Z" clip-rule="evenodd" fill-rule="evenodd"></path>
<path fill="#6D91AC" d="M183.096 217.309L170.419 220.706L165.779 228.743L133.632 210.182L142.912 194.109L183.096 217.309Z" clip-rule="evenodd" fill-rule="evenodd"></path>
<path fill="#E7E9EF" d="M224.172 294.922L218.139 258.969L242.251 272.89L245.647 285.567L259.615 293.631L263.887 317.851L224.172 294.922Z" clip-rule="evenodd" fill-rule="evenodd"></path>
<path fill="#6D91AC" d="M307.518 267.71L260.811 240.744L270.091 224.669L234.018 203.843L238.658 195.806L251.335 192.409L318.042 230.922L321.438 243.599L307.518 267.71Z" clip-rule="evenodd" fill-rule="evenodd"></path>
<path fill="#F3EFF0" d="M307.517 267.712C303.687 274.347 305.96 282.83 312.595 286.661L297.478 304.778L291.444 312.011L259.844 293.767L259.614 293.634L245.647 285.57L242.249 272.893L256.17 248.781L260.809 240.745L307.517 267.712Z" clip-rule="evenodd" fill-rule="evenodd"></path>
<path fill="#1A202C" d="M130.046 207.611L137.104 195.386C134.943 194.185 134.185 191.436 135.421 189.298L144.695 173.236C145.919 171.116 148.63 170.391 150.752 171.615C150.771 171.626 150.79 171.638 150.809 171.649L153.231 167.455C153.818 166.437 154.786 165.694 155.922 165.39L168.596 161.999C169.732 161.695 170.942 161.855 171.961 162.443L227.01 194.226C229.131 195.45 229.859 198.162 228.635 200.281C227.411 202.401 224.7 203.127 222.578 201.902L169.12 171.038L159.994 173.48L149.217 192.145L183.971 212.21L194.871 209.294C196.007 208.99 197.217 209.15 198.236 209.738L217.445 220.828C221.621 217.153 228.128 216.513 232.934 219.385C237.823 222.111 240.522 228.067 239.427 233.521L254.796 242.394L264.275 225.976L215.877 198.034C213.756 196.81 213.029 194.098 214.252 191.978C215.476 189.858 218.187 189.133 220.309 190.358L232.632 197.472L235.053 193.279C235.641 192.261 236.609 191.519 237.745 191.215L248.645 188.298L265.454 159.184C266.604 157.098 269.472 156.331 271.512 157.563L281.114 163.107C282.133 163.695 282.876 164.664 283.181 165.799L285.955 176.135L318.071 194.677C319.089 195.265 319.833 196.234 320.138 197.369L323.062 208.267L341.147 218.708C342.165 219.296 342.909 220.265 343.214 221.401L352.488 255.962L379.552 271.588C381.278 272.585 382.128 274.609 381.63 276.538L364.653 342.197C364.253 343.743 363.052 344.954 361.509 345.367L323.698 355.483C322.562 355.787 321.352 355.627 320.333 355.039L222.227 298.397C221.081 297.735 220.289 296.596 220.07 295.291L214.373 261.415L131.672 213.667C129.55 212.442 128.822 209.731 130.046 207.611ZM228.503 227.061C226.402 225.79 223.449 226.58 222.266 228.73C221.008 230.909 221.758 233.706 223.939 234.965C226.041 236.237 228.994 235.447 230.176 233.297C231.447 231.197 230.654 228.244 228.503 227.061ZM234.996 241.197C225.252 249.448 210.743 240.887 213.019 228.508L195.396 218.333L173.595 224.165L172.092 226.768L240.886 266.488L250.365 250.07L234.996 241.197ZM324.497 266.156C320.004 263.562 314.245 265.091 311.633 269.562L311.609 269.604C311.606 269.608 311.603 269.613 311.6 269.618C309.022 274.102 310.552 279.845 315.014 282.458C315.047 282.477 315.08 282.496 315.113 282.516C319.613 285.08 325.363 283.528 327.954 279.041C330.554 274.539 329.003 268.758 324.497 266.156ZM332.95 287.043C328.113 292.046 320.763 293.885 314.125 291.722L304.522 303.228L323.914 314.423L336.763 310.608L342.22 292.395L332.95 287.043ZM306.548 286.957C302.087 282.284 300.397 275.518 302.181 269.279L294.491 264.839L293.753 277.216C293.618 279.679 291.446 281.535 289.062 281.373C286.618 281.226 284.754 279.126 284.9 276.682L285.888 260.125C285.893 260.044 285.9 259.964 285.909 259.884L277.07 254.781L276.331 267.157C276.195 269.621 274.024 271.477 271.64 271.315C269.195 271.168 267.332 269.067 267.478 266.623L268.466 250.066C268.471 249.986 268.478 249.905 268.487 249.826L262.683 246.474L247.27 273.171L249.718 282.295L290.694 305.953L306.548 286.957ZM240.315 201.907L272.548 220.517C274.669 221.742 275.397 224.453 274.173 226.573L267.115 238.798L306.143 261.331L316.92 242.664L314.471 233.54L250.944 196.862L241.818 199.304L240.315 201.907ZM275.092 169.865L270.921 167.457L257.626 190.485L267.228 196.029L277.39 178.429L275.092 169.865ZM283.774 185.112L274.91 200.464L308.971 220.129L314.496 210.559L312.047 201.435L283.774 185.112ZM335.124 225.467L320.88 217.243L316.653 224.565L320.495 226.783C321.513 227.371 322.257 228.339 322.562 229.475L325.486 240.372L341.625 249.69L335.124 225.467ZM323.174 346.444L356.713 337.471L372.199 277.577L323.304 249.348L319.444 256.033C322.664 255.971 325.94 256.755 328.928 258.48C336.346 262.763 339.635 271.485 337.381 279.367L349.689 286.473C351.47 287.501 352.311 289.617 351.721 291.585L344.572 315.45C344.143 316.881 343.022 317.999 341.589 318.425L324.615 323.465C323.452 323.812 322.188 323.663 321.134 323.054L298.757 310.135L295.116 314.499C293.735 316.153 291.362 316.574 289.494 315.496L266.042 301.956L268.184 314.696L323.174 346.444ZM228.469 291.765L258.226 308.946L256.083 296.205L243.696 289.053C242.677 288.465 241.934 287.497 241.629 286.361L238.704 275.463L224.331 267.165L228.469 291.765ZM164.41 222.334L166.831 218.141C167.418 217.123 168.387 216.38 169.522 216.077L171.857 215.452L144.785 199.822L139.944 208.208L164.41 222.334Z"></path>
<path fill="#1A202C" d="M287.899 229.84L287.902 229.842C291.319 231.78 290.588 237.003 286.831 237.965C283.095 239.01 279.849 234.852 281.841 231.463C283.066 229.343 285.778 228.616 287.899 229.84Z"></path>
<path fill="#1A202C" d="M303.307 238.74L303.309 238.742C305.487 239.864 306.34 242.538 305.218 244.715C304.092 246.897 301.413 247.745 299.242 246.624C297.065 245.502 296.21 242.827 297.332 240.65C298.455 238.473 301.13 237.618 303.307 238.74Z"></path>
<path stroke-width="5.63267" stroke="#1A202C" fill="#1A202C" d="M487.797 310.348C479.092 317.494 477.828 330.344 484.973 339.049C492.119 347.754 504.968 349.019 513.673 341.873C519.827 336.822 526.024 330.283 531.22 322.008C537.209 312.47 534.332 299.883 524.794 293.894C515.256 287.905 502.669 290.782 496.68 300.32C494.116 304.405 491.005 307.715 487.797 310.348Z"></path>
<path stroke-width="5.63267" stroke="#1A202C" fill="white" d="M475.278 317.41C464.321 320.019 457.554 331.015 460.163 341.971C462.771 352.927 473.768 359.694 484.724 357.086C492.239 355.297 503.245 350.439 513.674 341.879C522.379 334.734 523.643 321.884 516.498 313.179C509.352 304.473 496.503 303.209 487.797 310.354C481.946 315.157 476.51 317.117 475.278 317.41Z"></path>
<path stroke-width="5.63267" stroke="#1A202C" fill="#1A202C" d="M355.149 310.348C363.854 317.494 365.119 330.344 357.973 339.049C350.828 347.754 337.978 349.019 329.273 341.873C323.119 336.822 316.922 330.283 311.726 322.008C305.737 312.47 308.614 299.883 318.152 293.894C327.69 287.905 340.277 290.782 346.266 300.32C348.831 304.405 351.941 307.715 355.149 310.348Z"></path>
<path stroke-width="5.63267" stroke="#1A202C" fill="white" d="M367.669 317.41C378.625 320.019 385.392 331.015 382.784 341.971C380.175 352.927 369.179 359.694 358.223 357.086C350.708 355.297 339.702 350.439 329.273 341.879C320.568 334.734 319.303 321.884 326.449 313.179C333.594 304.473 346.444 303.209 355.149 310.354C361.001 315.157 366.437 317.117 367.669 317.41Z"></path>
<rect stroke-width="5.63267" stroke="#1A202C" fill="#1A202C" transform="rotate(30 383.447 343.715)" rx="23.3467" height="92.3685" width="46.6934" y="343.715" x="383.447"></rect>
<rect stroke-width="5.63267" stroke="#1A202C" fill="#1A202C" transform="rotate(-30 418.741 367.063)" rx="23.3467" height="92.3685" width="46.6934" y="367.063" x="418.741"></rect>
<path stroke-width="5.63267" stroke="#1A202C" fill="white" d="M396.092 309.066C374.627 309.066 357.227 326.467 357.227 347.932V357.192C357.227 389.544 383.454 415.771 415.806 415.771H426.719C459.072 415.771 485.299 389.544 485.299 357.191V347.932C485.299 326.467 467.898 309.066 446.433 309.066H396.092Z"></path>
<rect stroke-width="5.63267" stroke="#1A202C" fill="#E2E8F0" rx="13.5184" height="57.0805" width="94.1878" y="342.918" x="374.73"></rect>
<path stroke-width="5.63267" stroke="#1A202C" fill="white" d="M387.685 353.316C380.53 353.316 374.73 359.117 374.73 366.272V389.556C374.73 401.066 384.06 410.397 395.57 410.397H448.076C459.587 410.397 468.917 401.066 468.917 389.556V366.272C468.917 359.117 463.117 353.316 455.962 353.316H387.685Z"></path>
<line stroke-width="3.3796" stroke="#1A202C" y2="372.287" x2="466.101" y1="372.287" x1="376.423"></line>
<path stroke-width="3.3796" stroke="#1A202C" fill="#71E8DF" d="M393.031 379.158C396.706 379.158 399.685 376.178 399.685 372.503C399.685 368.828 396.706 365.849 393.031 365.849C389.356 365.849 386.377 368.828 386.377 372.503C386.377 376.178 389.356 379.158 393.031 379.158Z"></path>
<path stroke-width="5.63267" stroke="#1A202C" fill="#04C8BB" d="M494.334 255.816C494.334 259.21 497.084 261.961 500.478 261.961C503.872 261.961 506.622 259.21 506.622 255.816L506.622 179.273C506.622 175.879 503.872 173.129 500.478 173.129C497.084 173.129 494.334 175.879 494.334 179.273L494.334 255.816Z"></path>
<path stroke-width="5.63267" stroke="#1A202C" fill="#71E8DF" d="M497.203 233.043L495.118 233.043L494.509 235.038L483.343 271.645L482.233 275.283L486.037 275.283L497.203 275.283C504.27 275.283 510.003 269.55 510.003 262.483L510.003 245.843C510.003 238.776 504.27 233.043 497.203 233.043Z"></path>
<path stroke-width="5.63267" stroke="#1A202C" fill="#71E8DF" d="M349.184 235.17L348.647 233.043L346.454 233.043C339.386 233.043 333.654 238.776 333.654 245.843L333.654 262.483C333.654 269.55 339.386 275.283 346.454 275.283L355.698 275.283L359.314 275.283L358.428 271.777L349.184 235.17Z"></path>
<rect stroke-width="5.63267" stroke="#1A202C" fill="#71E8DF" rx="17.535" height="35.07" width="102.841" y="299.434" x="370.402"></rect>
<ellipse fill="#1A202C" ry="3.03974" rx="3.03969" cy="325.173" cx="389.605"></ellipse>
<ellipse fill="#1A202C" ry="3.03974" rx="3.03969" cy="325.173" cx="403.123"></ellipse>
<rect fill="#C3DAFE" rx="36.6124" height="129.145" width="125.963" y="175.508" x="358.841"></rect>
<line stroke-linecap="round" stroke-miterlimit="10" stroke-width="6.85714" stroke="#1A202C" y2="246.655" x2="404.361" y1="238.745" x1="390.66"></line>
<line stroke-linecap="round" stroke-miterlimit="10" stroke-width="6.85714" stroke="#1A202C" y2="238.742" x2="453.11" y1="246.652" x1="439.409"></line>
<path stroke-width="5.71429" stroke="#1A202C" fill="white" d="M372.725 276.163C372.725 265.35 381.491 256.584 392.304 256.584H451.686C462.499 256.584 471.265 265.35 471.265 276.163C471.265 286.976 462.499 295.742 451.686 295.742H392.304C381.491 295.742 372.725 286.976 372.725 276.163Z"></path>
<path stroke-linejoin="round" stroke-miterlimit="10" stroke-width="5.71429" stroke="#1A202C" d="M378.053 261.587C378.455 269.071 381.24 286.019 389.158 293.938C391.532 285.689 398.429 267.043 407.024 258.448C407.909 265.449 411.514 282.349 418.854 293.938"></path>
<path stroke-linejoin="round" stroke-miterlimit="10" stroke-width="5.71429" stroke="#1A202C" d="M462.801 261.587C462.398 269.071 459.614 286.019 451.695 293.938C449.321 285.689 442.425 267.043 433.83 258.448C432.945 265.449 429.339 282.349 422 293.938"></path>
<path stroke-width="5.71429" stroke="#1A202C" d="M372.725 276.163C372.725 265.35 381.491 256.584 392.304 256.584H451.686C462.499 256.584 471.265 265.35 471.265 276.163C471.265 286.976 462.499 295.742 451.686 295.742H392.304C381.491 295.742 372.725 286.976 372.725 276.163Z"></path>
<mask fill="black" height="167" width="157" y="157.25" x="343.542" maskUnits="userSpaceOnUse" id="path-60-outside-1_8905_9230">
<rect height="167" width="157" y="157.25" x="343.542" fill="white"></rect>
<path d="M493.117 269.445V235.539C493.117 196.169 461.199 164.25 421.829 164.25C382.46 164.25 350.542 196.169 350.542 235.539V269.445C350.542 295.695 371.818 316.971 398.067 316.971H445.592C471.841 316.971 493.117 295.695 493.117 269.445ZM479.538 275.857V233.557C479.584 224.922 474.187 217.195 466.061 214.275C460.034 212.004 453.852 210.172 447.567 208.791C443.345 207.863 438.991 209.3 435.934 212.356C433.423 214.867 430.018 216.278 426.467 216.278H417.126C413.616 216.278 410.25 214.884 407.769 212.402C404.747 209.38 400.443 207.961 396.27 208.875C389.958 210.258 383.75 212.097 377.698 214.377C369.568 217.25 364.128 224.934 364.119 233.557V275.857C364.102 284.505 369.547 292.224 377.698 295.105C391.591 300.35 406.336 302.964 421.184 302.811H422.677C437.457 302.938 452.13 300.324 465.959 295.105C474.111 292.224 479.555 284.505 479.538 275.857Z" clip-rule="evenodd" fill-rule="evenodd"></path>
</mask>
<path fill="white" d="M493.117 269.445V235.539C493.117 196.169 461.199 164.25 421.829 164.25C382.46 164.25 350.542 196.169 350.542 235.539V269.445C350.542 295.695 371.818 316.971 398.067 316.971H445.592C471.841 316.971 493.117 295.695 493.117 269.445ZM479.538 275.857V233.557C479.584 224.922 474.187 217.195 466.061 214.275C460.034 212.004 453.852 210.172 447.567 208.791C443.345 207.863 438.991 209.3 435.934 212.356C433.423 214.867 430.018 216.278 426.467 216.278H417.126C413.616 216.278 410.25 214.884 407.769 212.402C404.747 209.38 400.443 207.961 396.27 208.875C389.958 210.258 383.75 212.097 377.698 214.377C369.568 217.25 364.128 224.934 364.119 233.557V275.857C364.102 284.505 369.547 292.224 377.698 295.105C391.591 300.35 406.336 302.964 421.184 302.811H422.677C437.457 302.938 452.13 300.324 465.959 295.105C474.111 292.224 479.555 284.505 479.538 275.857Z" clip-rule="evenodd" fill-rule="evenodd"></path>
<path mask="url(#path-60-outside-1_8905_9230)" fill="#1A202C" d="M479.538 233.557L472.779 233.52L472.779 233.539V233.557H479.538ZM479.538 275.857H472.779L472.779 275.87L479.538 275.857ZM466.061 214.275L463.678 220.6L463.727 220.619L463.776 220.636L466.061 214.275ZM447.567 208.791L449.018 202.189L447.567 208.791ZM435.934 212.356L431.155 207.577V207.577L435.934 212.356ZM407.769 212.402L412.548 207.622L407.769 212.402ZM396.27 208.875L397.716 215.478L397.716 215.478L396.27 208.875ZM377.698 214.377L379.95 220.75L380.016 220.727L380.081 220.702L377.698 214.377ZM364.119 233.557L357.36 233.55V233.557H364.119ZM364.119 275.857L370.879 275.87V275.857H364.119ZM377.698 295.105L380.085 288.781L380.018 288.756L379.951 288.732L377.698 295.105ZM421.184 302.811V296.052H421.149L421.114 296.052L421.184 302.811ZM422.677 302.811L422.735 296.052L422.706 296.052H422.677V302.811ZM465.959 295.105L463.707 288.732L463.639 288.756L463.572 288.781L465.959 295.105ZM486.358 235.539V269.445H499.876V235.539H486.358ZM421.829 171.009C457.466 171.009 486.358 199.902 486.358 235.539H499.876C499.876 192.436 464.932 157.491 421.829 157.491V171.009ZM357.301 235.539C357.301 199.902 386.193 171.009 421.829 171.009V157.491C378.727 157.491 343.782 192.436 343.782 235.539H357.301ZM357.301 269.445V235.539H343.782V269.445H357.301ZM398.067 310.212C375.551 310.212 357.301 291.962 357.301 269.445H343.782C343.782 299.428 368.084 323.73 398.067 323.73V310.212ZM445.592 310.212H398.067V323.73H445.592V310.212ZM486.358 269.445C486.358 291.962 468.108 310.212 445.592 310.212V323.73C475.574 323.73 499.876 299.428 499.876 269.445H486.358ZM472.779 233.557V275.857H486.297V233.557H472.779ZM463.776 220.636C469.202 222.586 472.81 227.747 472.779 233.52L486.297 233.594C486.359 222.097 479.172 211.803 468.346 207.914L463.776 220.636ZM446.117 215.392C452.085 216.704 457.955 218.444 463.678 220.6L468.444 207.95C462.113 205.565 455.62 203.64 449.018 202.189L446.117 215.392ZM440.714 217.136C442.278 215.571 444.331 215 446.117 215.392L449.018 202.189C442.36 200.726 435.703 203.028 431.155 207.577L440.714 217.136ZM426.467 223.037C431.81 223.037 436.935 220.914 440.714 217.136L431.155 207.577C429.911 208.82 428.225 209.519 426.467 209.519V223.037ZM417.126 223.037H426.467V209.519H417.126V223.037ZM402.989 217.181C406.738 220.931 411.824 223.037 417.126 223.037V209.519C415.409 209.519 413.762 208.837 412.548 207.622L402.989 217.181ZM397.716 215.478C399.457 215.096 401.46 215.652 402.989 217.181L412.548 207.622C408.034 203.108 401.429 200.825 394.823 202.273L397.716 215.478ZM380.081 220.702C385.828 218.537 391.723 216.791 397.716 215.478L394.823 202.273C388.193 203.726 381.672 205.657 375.315 208.052L380.081 220.702ZM370.879 233.564C370.884 227.803 374.519 222.669 379.95 220.75L375.446 208.004C364.617 211.83 357.372 222.066 357.36 233.55L370.879 233.564ZM370.879 275.857V233.557H357.36V275.857H370.879ZM379.951 288.732C374.507 286.808 370.867 281.651 370.879 275.87L357.36 275.844C357.338 287.359 364.587 297.64 375.445 301.478L379.951 288.732ZM421.114 296.052C407.106 296.196 393.194 293.73 380.085 288.781L375.311 301.428C389.988 306.969 405.566 309.731 421.253 309.57L421.114 296.052ZM422.677 296.052H421.184V309.57H422.677V296.052ZM463.572 288.781C450.524 293.706 436.679 296.172 422.735 296.052L422.619 309.57C438.234 309.704 453.736 306.943 468.346 301.429L463.572 288.781ZM472.779 275.87C472.79 281.651 469.151 286.808 463.707 288.732L468.212 301.478C479.07 297.64 486.32 287.359 486.297 275.844L472.779 275.87Z"></path>
<rect fill="#1A202C" height="9.62627" width="10.0111" y="186.969" x="418.356"></rect>
<path stroke-width="6.72776" stroke="#1A202C" fill="white" d="M422.16 196.811L423.976 188.069L427.229 195.348L422.16 196.811ZM405.411 191.47C404.367 193.117 404.384 195.213 405.453 196.843L411.699 206.371C412.938 208.261 415.259 209.057 417.361 208.447L435.387 203.218C438.265 202.383 439.901 199.158 438.535 196.292L426.947 171.986C425.231 168.388 420.202 168.14 418.096 171.463L405.411 191.47Z"></path>
<g opacity="0.68" style="mix-blend-mode:overlay">
<path stroke-linejoin="round" stroke-linecap="round" stroke-miterlimit="10" stroke-width="7.88574" stroke="white" d="M396.177 223.82L382.359 228.217C380.893 228.426 377.962 230.353 377.962 236.382C377.962 242.412 377.962 244.974 377.962 249.58"></path>
</g>
</g>
<defs>
<linearGradient gradientUnits="userSpaceOnUse" y2="474" x2="422" y1="0" x1="422" id="paint0_linear_8905_9230">
<stop stop-color="#171937"></stop>
<stop stop-color="#282B6B" offset="1"></stop>
</linearGradient>
<linearGradient gradientUnits="userSpaceOnUse" y2="166.585" x2="757.68" y1="199.8" x1="652.149" id="paint1_linear_8905_9230">
<stop stop-color="#71E8DF"></stop>
<stop stop-opacity="0" stop-color="#71E8DF" offset="1"></stop>
</linearGradient>
<linearGradient gradientUnits="userSpaceOnUse" y2="166.585" x2="85.9079" y1="199.8" x1="191.439" id="paint2_linear_8905_9230">
<stop stop-color="#71E8DF"></stop>
<stop stop-opacity="0" stop-color="#71E8DF" offset="1"></stop>
</linearGradient>
<clipPath id="clip0_8905_9230">
<rect fill="white" height="474" width="844"></rect>
</clipPath>
</defs>
</svg>
