<svg xmlns="http://www.w3.org/2000/svg" fill="none" viewBox="0 0 844 474" height="474" width="844">
<g clip-path="url(#clip0_9981_187825)">
<rect fill="url(#paint0_linear_9981_187825)" height="474" width="844"></rect>
<rect fill="url(#paint1_radial_9981_187825)" height="474" width="844"></rect>
<rect fill-opacity="0.2" fill="url(#paint2_radial_9981_187825)" height="474" width="844"></rect>
<g opacity="0.44">
<path stroke-miterlimit="10" stroke-width="2.41079" stroke="#138478" d="M640.863 91.6878L763.768 306.549C773.907 324.283 761.054 346.349 740.629 346.263L493.105 345.271C472.68 345.185 460 323.018 470.286 305.37L594.914 91.5039C605.2 73.8553 630.733 73.9572 640.886 91.6852L640.863 91.6878Z"></path>
<path stroke-miterlimit="10" stroke-width="2.41079" stroke="#138478" d="M647.073 85.2233L772.468 304.442C785.342 326.941 769.02 354.946 743.104 354.839L490.553 353.826C464.624 353.725 448.541 325.597 461.586 303.195L588.743 84.9888C601.798 62.5908 634.203 62.7143 647.073 85.2233Z" opacity="0.95"></path>
<path stroke-miterlimit="10" stroke-width="2.41079" stroke="#138478" d="M653.276 78.742L781.16 302.318C796.765 329.592 776.989 363.531 745.572 363.398L488.007 362.358C456.587 362.236 437.092 328.142 452.906 300.991L582.587 78.4543C598.412 51.3069 637.684 51.4619 653.276 78.742Z" opacity="0.9"></path>
<path stroke-miterlimit="10" stroke-width="2.41079" stroke="#138478" d="M659.489 72.2608L789.872 300.198C808.2 332.243 784.972 372.105 748.051 371.957L485.469 370.9C448.557 370.756 425.649 330.697 444.23 298.807L576.439 71.9298C595.023 40.0293 641.172 40.2195 659.499 72.2644L659.489 72.2608Z" opacity="0.86"></path>
<path stroke-miterlimit="10" stroke-width="2.41079" stroke="#138478" d="M665.694 65.7808L798.567 298.075C819.629 334.885 792.932 380.687 750.521 380.517L482.911 379.44C440.499 379.27 414.175 333.257 435.538 296.61L570.275 65.3929C591.624 28.753 644.635 28.9611 665.694 65.7808Z" opacity="0.81"></path>
<path stroke-miterlimit="10" stroke-width="2.41079" stroke="#138478" d="M671.903 59.308L807.265 295.96C831.048 337.541 800.897 389.276 752.994 389.085L480.368 387.991C432.465 387.799 402.727 335.82 426.846 294.431L564.108 58.883C588.227 17.4938 648.105 17.7334 671.889 59.3143L671.903 59.308Z" opacity="0.76"></path>
<path stroke-miterlimit="10" stroke-width="2.41079" stroke="#138478" d="M678.104 52.8262L815.955 293.836C842.471 340.191 808.865 397.861 755.461 397.643L477.817 396.533C424.423 396.319 391.273 338.375 418.161 292.237L557.951 52.3481C584.839 6.20953 651.585 6.48058 678.101 52.8362L678.104 52.8262Z" opacity="0.71"></path>
<path stroke-miterlimit="10" stroke-width="2.41079" stroke="#138478" d="M684.319 46.3525L824.673 291.713C853.914 342.83 816.849 406.442 757.954 406.204L475.287 405.062C416.392 404.823 379.839 340.918 409.493 290.04L551.811 45.8111C581.465 -5.0669 655.082 -4.77429 684.323 46.3425L684.319 46.3525Z" opacity="0.67"></path>
<path stroke-miterlimit="10" stroke-width="2.41079" stroke="#138478" d="M690.524 39.8796L833.367 289.598C865.339 345.489 824.81 415.032 760.424 414.771L472.739 413.613C408.354 413.352 368.385 343.492 400.808 287.865L545.654 39.295C578.067 -16.336 658.552 -16.012 690.524 39.8796Z" opacity="0.62"></path>
<path stroke-miterlimit="10" stroke-width="2.41079" stroke="#138478" d="M696.73 33.3974L842.062 287.473C876.756 348.135 832.785 423.605 762.895 423.329L470.193 422.154C400.307 421.868 356.935 346.046 392.127 285.67L539.497 32.7695C574.68 -27.6109 662.033 -27.2553 696.73 33.3974Z" opacity="0.57"></path>
<path stroke-miterlimit="10" stroke-width="2.41079" stroke="#138478" d="M702.943 26.9251L850.775 285.361C888.203 350.789 840.764 432.199 765.384 431.901L467.653 430.705C392.277 430.397 345.492 348.611 383.44 283.491L533.338 26.2502C571.291 -38.8796 665.511 -38.4925 702.939 26.935L702.943 26.9251Z" opacity="0.52"></path>
<path stroke-miterlimit="10" stroke-width="2.41079" stroke="#138478" d="M709.144 20.445L859.465 283.239C899.615 353.437 848.721 440.781 767.849 440.461L465.102 439.249C384.23 438.929 334.033 351.177 374.755 281.298L527.181 19.7169C567.899 -50.1523 668.994 -49.7536 709.144 20.445Z" opacity="0.48"></path>
<path stroke-miterlimit="10" stroke-width="2.41079" stroke="#138478" d="M715.35 13.9729L868.161 281.124C911.042 356.098 856.683 449.371 770.325 449.02L462.563 447.78C376.191 447.435 322.591 353.722 366.078 279.103L521.029 13.1916C564.516 -61.427 672.469 -61.0004 715.35 13.9729Z" opacity="0.43"></path>
<path stroke-miterlimit="10" stroke-width="2.41079" stroke="#138478" d="M721.566 7.49751L876.866 279.006C922.482 358.744 864.665 457.961 772.806 457.584L460.017 456.324C368.154 455.958 311.141 356.279 357.397 276.911L514.876 6.65923C561.123 -72.7123 675.953 -72.2507 721.57 7.48753L721.566 7.49751Z" opacity="0.38"></path>
<path stroke-miterlimit="10" stroke-width="2.41079" stroke="#138478" d="M727.769 1.01411L885.569 276.884C933.907 361.393 872.638 466.533 775.284 466.145L457.478 464.868C360.124 464.48 299.699 358.836 348.711 274.725L508.718 0.132537C557.733 -83.9884 679.431 -83.4952 727.769 1.01411Z" opacity="0.33"></path>
<path stroke-miterlimit="10" stroke-width="2.41079" stroke="#138478" d="M733.979 -5.46599L894.267 274.761C945.337 364.045 880.603 475.115 777.759 474.705L454.925 473.408C352.071 472.994 288.238 361.399 340.024 272.529L502.559 -6.40447C554.34 -95.2648 682.909 -94.7501 733.972 -5.47963L733.979 -5.46599Z" opacity="0.29"></path>
<path stroke-miterlimit="10" stroke-width="2.41079" stroke="#138478" d="M740.18 -11.9439L902.972 272.634C956.766 366.679 888.584 483.697 780.239 483.261L452.388 481.947C344.043 481.511 276.798 363.951 331.349 270.341L496.408 -12.922C550.959 -106.532 686.386 -105.989 740.18 -11.9439Z" opacity="0.24"></path>
<path stroke-miterlimit="10" stroke-width="2.41079" stroke="#138478" d="M746.39 -18.4141L911.661 270.518C968.187 369.338 896.54 492.285 782.704 491.828L449.835 490.496C335.999 490.039 265.342 366.514 322.662 268.155L490.249 -19.4491C547.569 -117.808 689.864 -117.234 746.39 -18.4141Z" opacity="0.19"></path>
<path stroke-miterlimit="10" stroke-width="2.41079" stroke="#138478" d="M752.596 -24.9027L920.362 268.4C979.623 371.985 904.522 500.866 785.185 500.383L447.289 499.031C327.952 498.548 253.888 369.072 313.967 265.96L484.093 -25.981C544.172 -129.093 693.344 -128.484 752.596 -24.9027Z" opacity="0.14"></path>
<path stroke-miterlimit="10" stroke-width="2.41079" stroke="#138478" d="M758.809 -31.3764L929.065 266.284C991.048 374.64 912.491 509.454 787.659 508.96L444.75 507.581C319.922 507.076 242.445 371.635 305.291 263.783L477.941 -32.4881C540.786 -140.34 696.829 -139.709 758.802 -31.3564L758.809 -31.3764Z" opacity="0.1"></path>
</g>
<g filter="url(#filter0_dddddd_9981_187825)">
<rect stroke-width="1.5" stroke="#16A394" fill="#090A15" rx="19.25" height="93.5637" width="93.5637" y="39.75" x="66.75"></rect>
<path fill="white" d="M94.6763 92.5309C94.1885 93.2573 94.1961 94.1737 94.6957 94.8933L103.739 107.917C104.326 108.762 105.458 109.148 106.508 108.86L132.605 101.713C134.029 101.323 134.746 99.8721 134.123 98.6393L117.347 65.4153C116.528 63.795 114.062 63.662 113.041 65.1831L94.6763 92.5309ZM116.901 73.0106C116.544 72.2574 115.337 72.3734 115.16 73.1779L108.701 102.538C108.565 103.157 109.2 103.686 109.862 103.505L127.894 98.5914C128.42 98.448 128.691 97.9173 128.473 97.457L116.901 73.0106Z" clip-rule="evenodd" fill-rule="evenodd"></path>
</g>
<g filter="url(#filter1_dddddd_9981_187825)">
<rect stroke-width="1.5" stroke="#16A394" fill="#090A15" rx="19.25" height="93.5637" width="93.5637" y="39.75" x="170.686"></rect>
<g clip-path="url(#clip1_9981_187825)">
<path fill="white" d="M209.553 99.2634C209.553 99.0727 209.363 98.882 209.077 98.882C208.791 98.882 208.6 99.0727 208.6 99.2634C208.6 99.4541 208.791 99.6448 209.077 99.5495C209.363 99.5495 209.553 99.4541 209.553 99.2634ZM206.597 98.7866C206.693 98.5959 206.979 98.5005 207.265 98.5959C207.551 98.6913 207.646 98.882 207.646 99.0727C207.551 99.2634 207.265 99.3588 207.074 99.2634C206.788 99.2634 206.597 98.9773 206.597 98.7866ZM210.888 98.6913C211.079 98.5959 211.365 98.7866 211.365 98.9773C211.461 99.168 211.27 99.2634 210.984 99.3588C210.698 99.4541 210.412 99.3588 210.412 99.168C210.412 98.882 210.602 98.6913 210.888 98.6913ZM217.087 62.0741C230.341 62.0741 241.117 72.182 241.117 85.3413C241.117 95.9259 234.632 104.985 225.097 108.132C223.857 108.418 223.38 107.655 223.38 106.987C223.38 106.224 223.476 102.219 223.476 99.0727C223.476 96.7841 222.713 95.3538 221.854 94.5909C227.194 94.0188 232.821 93.2559 232.821 84.1016C232.821 81.4316 231.867 80.192 230.341 78.4755C230.532 77.808 231.39 75.3288 230.055 71.9913C228.053 71.3238 223.476 74.5659 223.476 74.5659C221.568 73.9938 219.566 73.803 217.468 73.803C215.466 73.803 213.463 73.9938 211.556 74.5659C211.556 74.5659 206.883 71.4191 204.976 71.9913C203.641 75.3288 204.404 77.808 204.69 78.4755C203.164 80.192 202.402 81.4316 202.402 84.1016C202.402 93.2559 207.837 94.0188 213.177 94.5909C212.414 95.2584 211.842 96.3073 211.651 97.833C210.221 98.5005 206.788 99.5495 204.69 95.8305C203.355 93.542 200.971 93.3513 200.971 93.3513C198.683 93.3513 200.876 94.877 200.876 94.877C202.402 95.5445 203.451 98.3098 203.451 98.3098C204.881 102.601 211.556 101.171 211.556 101.171C211.556 103.173 211.556 106.415 211.556 107.083C211.556 107.655 211.174 108.418 209.935 108.227C200.399 104.985 193.819 95.9259 193.819 85.3413C193.819 72.182 203.927 62.0741 217.087 62.0741ZM203.069 94.9723C203.164 94.877 203.355 94.9723 203.546 95.0677C203.737 95.2584 203.737 95.5445 203.641 95.6398C203.451 95.7352 203.26 95.6398 203.069 95.5445C202.974 95.3538 202.878 95.0677 203.069 94.9723ZM202.02 94.2095C202.116 94.1141 202.211 94.1141 202.402 94.2095C202.592 94.3048 202.688 94.4002 202.688 94.4955C202.592 94.6863 202.402 94.6863 202.211 94.5909C202.02 94.4955 201.925 94.4002 202.02 94.2095ZM205.072 97.6423C205.262 97.4516 205.548 97.547 205.739 97.7377C205.93 97.9284 205.93 98.2145 205.834 98.3098C205.739 98.5005 205.453 98.4052 205.262 98.2145C204.976 98.0238 204.976 97.7377 205.072 97.6423ZM204.023 96.212C204.213 96.1166 204.404 96.212 204.595 96.4027C204.69 96.5934 204.69 96.8795 204.595 96.9748C204.404 97.0702 204.213 96.9748 204.023 96.7841C203.832 96.5934 203.832 96.3073 204.023 96.212Z"></path>
</g>
</g>
<g filter="url(#filter2_dddddd_9981_187825)">
<path fill="white" d="M98.6605 153.586C102.766 153.586 106.375 154.425 109.485 156.105C112.596 157.785 114.991 160.18 116.67 163.29C118.412 166.339 119.283 169.854 119.283 173.835C119.283 177.754 118.381 181.207 116.577 184.193C114.835 187.179 112.347 189.512 109.112 191.192C105.939 192.809 102.269 193.618 98.1006 193.618H84.8498C84.5387 193.618 84.3832 193.774 84.3832 194.085V217.88C84.3832 218.191 84.2588 218.471 84.0099 218.72C83.8233 218.907 83.5745 219 83.2634 219H72.3455C72.0344 219 71.7545 218.907 71.5056 218.72C71.319 218.471 71.2257 218.191 71.2257 217.88V154.705C71.2257 154.394 71.319 154.146 71.5056 153.959C71.7545 153.71 72.0344 153.586 72.3455 153.586H98.6605ZM96.7009 183.073C99.5626 183.073 101.864 182.265 103.606 180.647C105.348 178.968 106.219 176.79 106.219 174.115C106.219 171.378 105.348 169.169 103.606 167.49C101.864 165.81 99.5626 164.97 96.7009 164.97H84.8498C84.5387 164.97 84.3832 165.126 84.3832 165.437V182.607C84.3832 182.918 84.5387 183.073 84.8498 183.073H96.7009ZM148.555 170.382C150.794 170.382 152.567 170.818 153.874 171.689C154.371 171.938 154.558 172.404 154.433 173.089L152.474 183.727C152.412 184.473 151.976 184.691 151.167 184.38C150.234 184.069 149.146 183.913 147.901 183.913C147.404 183.913 146.719 183.975 145.848 184.1C143.609 184.287 141.711 185.126 140.156 186.619C138.601 188.05 137.823 189.979 137.823 192.405V217.88C137.823 218.191 137.699 218.471 137.45 218.72C137.263 218.907 137.015 219 136.703 219H125.786C125.474 219 125.195 218.907 124.946 218.72C124.759 218.471 124.666 218.191 124.666 217.88V172.155C124.666 171.844 124.759 171.596 124.946 171.409C125.195 171.16 125.474 171.036 125.786 171.036H136.703C137.015 171.036 137.263 171.16 137.45 171.409C137.699 171.596 137.823 171.844 137.823 172.155V175.701C137.823 175.888 137.885 176.013 138.01 176.075C138.134 176.137 138.228 176.106 138.29 175.981C140.84 172.249 144.262 170.382 148.555 170.382ZM165.614 165.623C163.499 165.623 161.726 164.939 160.295 163.57C158.926 162.14 158.242 160.367 158.242 158.251C158.242 156.074 158.926 154.301 160.295 152.932C161.664 151.564 163.437 150.879 165.614 150.879C167.791 150.879 169.564 151.564 170.933 152.932C172.302 154.301 172.986 156.074 172.986 158.251C172.986 160.367 172.27 162.14 170.84 163.57C169.471 164.939 167.729 165.623 165.614 165.623ZM160.015 219C159.704 219 159.424 218.907 159.175 218.72C158.988 218.471 158.895 218.191 158.895 217.88V172.062C158.895 171.751 158.988 171.502 159.175 171.316C159.424 171.067 159.704 170.942 160.015 170.942H170.933C171.244 170.942 171.493 171.067 171.679 171.316C171.928 171.502 172.053 171.751 172.053 172.062V217.88C172.053 218.191 171.928 218.471 171.679 218.72C171.493 218.907 171.244 219 170.933 219H160.015ZM199.57 219.653C195.402 219.653 191.762 219.062 188.652 217.88C185.541 216.698 183.115 215.05 181.373 212.934C179.694 210.819 178.854 208.424 178.854 205.749V204.816C178.854 204.505 178.947 204.256 179.134 204.069C179.383 203.821 179.663 203.696 179.974 203.696H190.332C190.643 203.696 190.892 203.821 191.078 204.069C191.327 204.256 191.451 204.505 191.451 204.816V204.909C191.451 206.278 192.198 207.46 193.691 208.455C195.246 209.388 197.175 209.855 199.477 209.855C201.592 209.855 203.303 209.451 204.609 208.642C205.915 207.771 206.569 206.713 206.569 205.469C206.569 204.349 206.009 203.51 204.889 202.95C203.769 202.39 201.934 201.799 199.383 201.177C196.459 200.43 194.158 199.715 192.478 199.03C188.496 197.662 185.324 195.982 182.96 193.991C180.596 192.001 179.414 189.139 179.414 185.406C179.414 180.803 181.187 177.163 184.733 174.488C188.341 171.751 193.1 170.382 199.01 170.382C202.991 170.382 206.475 171.036 209.461 172.342C212.447 173.586 214.749 175.359 216.367 177.661C218.046 179.963 218.886 182.576 218.886 185.5C218.886 185.811 218.762 186.091 218.513 186.339C218.326 186.526 218.078 186.619 217.766 186.619H207.782C207.471 186.619 207.191 186.526 206.942 186.339C206.755 186.091 206.662 185.811 206.662 185.5C206.662 184.131 205.946 182.98 204.516 182.047C203.147 181.114 201.312 180.647 199.01 180.647C196.957 180.647 195.277 181.02 193.971 181.767C192.665 182.514 192.011 183.54 192.011 184.846C192.011 186.091 192.633 187.024 193.878 187.646C195.184 188.268 197.33 188.921 200.316 189.606C201.001 189.792 201.778 190.01 202.649 190.259C203.52 190.445 204.453 190.694 205.449 191.005C209.866 192.312 213.35 193.991 215.9 196.044C218.451 198.097 219.726 201.083 219.726 205.003C219.726 209.606 217.891 213.214 214.22 215.827C210.612 218.378 205.729 219.653 199.57 219.653ZM278.604 170.289C283.456 170.289 287.251 171.751 289.989 174.675C292.726 177.599 294.094 181.705 294.094 186.993V217.88C294.094 218.191 293.97 218.471 293.721 218.72C293.535 218.907 293.286 219 292.975 219H282.057C281.746 219 281.466 218.907 281.217 218.72C281.03 218.471 280.937 218.191 280.937 217.88V189.885C280.937 187.335 280.284 185.313 278.977 183.82C277.671 182.327 275.929 181.58 273.752 181.58C271.574 181.58 269.801 182.327 268.433 183.82C267.064 185.313 266.38 187.304 266.38 189.792V217.88C266.38 218.191 266.255 218.471 266.006 218.72C265.82 218.907 265.571 219 265.26 219H254.435C254.124 219 253.844 218.907 253.595 218.72C253.409 218.471 253.315 218.191 253.315 217.88V189.885C253.315 187.397 252.631 185.406 251.262 183.913C249.894 182.358 248.121 181.58 245.943 181.58C243.953 181.58 242.273 182.171 240.904 183.353C239.598 184.535 238.82 186.184 238.572 188.299V217.88C238.572 218.191 238.447 218.471 238.198 218.72C238.012 218.907 237.763 219 237.452 219H226.534C226.223 219 225.943 218.907 225.694 218.72C225.507 218.471 225.414 218.191 225.414 217.88V172.155C225.414 171.844 225.507 171.596 225.694 171.409C225.943 171.16 226.223 171.036 226.534 171.036H237.452C237.763 171.036 238.012 171.16 238.198 171.409C238.447 171.596 238.572 171.844 238.572 172.155V175.795C238.572 175.981 238.634 176.106 238.758 176.168C238.883 176.23 239.007 176.168 239.131 175.981C241.682 172.187 245.632 170.289 250.983 170.289C254.093 170.289 256.799 170.942 259.101 172.249C261.465 173.555 263.269 175.422 264.513 177.848C264.7 178.221 264.918 178.221 265.167 177.848C266.535 175.297 268.37 173.4 270.672 172.155C273.036 170.911 275.68 170.289 278.604 170.289ZM320.592 170.289C324.636 170.289 328.244 171.005 331.417 172.435C334.59 173.804 337.047 175.701 338.789 178.128C340.593 180.554 341.495 183.26 341.495 186.246V217.88C341.495 218.191 341.371 218.471 341.122 218.72C340.935 218.907 340.686 219 340.375 219H329.457C329.146 219 328.866 218.907 328.618 218.72C328.431 218.471 328.338 218.191 328.338 217.88V214.801C328.338 214.614 328.275 214.49 328.151 214.428C328.027 214.365 327.902 214.428 327.778 214.614C325.165 218.036 320.966 219.747 315.18 219.747C310.328 219.747 306.408 218.565 303.422 216.201C300.436 213.837 298.943 210.353 298.943 205.749C298.943 200.959 300.623 197.257 303.982 194.645C307.342 191.97 312.132 190.632 318.353 190.632H327.871C328.182 190.632 328.338 190.476 328.338 190.165V188.112C328.338 186.06 327.716 184.473 326.471 183.353C325.227 182.171 323.361 181.58 320.872 181.58C318.944 181.58 317.326 181.923 316.02 182.607C314.776 183.291 313.967 184.255 313.594 185.5C313.407 186.184 313.003 186.495 312.381 186.433L301.089 184.94C300.343 184.815 300.001 184.535 300.063 184.1C300.312 181.487 301.338 179.123 303.142 177.008C305.009 174.893 307.435 173.244 310.421 172.062C313.469 170.88 316.86 170.289 320.592 170.289ZM318.726 209.948C321.401 209.948 323.672 209.233 325.538 207.802C327.405 206.371 328.338 204.536 328.338 202.296V198.937C328.338 198.626 328.182 198.471 327.871 198.471H321.152C318.353 198.471 316.144 198.999 314.527 200.057C312.972 201.114 312.194 202.608 312.194 204.536C312.194 206.216 312.785 207.553 313.967 208.549C315.149 209.482 316.735 209.948 318.726 209.948ZM94.9279 299.026C90.0755 299.026 85.7829 298.031 82.0503 296.04C78.3799 294.05 75.5182 291.281 73.4653 287.735C71.4123 284.127 70.3858 279.99 70.3858 275.324V255.355C70.3858 250.751 71.4123 246.676 73.4653 243.13C75.5182 239.584 78.3799 236.847 82.0503 234.919C85.7829 232.928 90.0755 231.932 94.9279 231.932C99.8425 231.932 104.135 232.928 107.805 234.919C111.538 236.847 114.431 239.584 116.484 243.13C118.537 246.676 119.563 250.751 119.563 255.355V275.324C119.563 279.99 118.537 284.127 116.484 287.735C114.431 291.343 111.538 294.143 107.805 296.134C104.135 298.062 99.8425 299.026 94.9279 299.026ZM94.9279 287.735C98.3495 287.735 101.118 286.647 103.233 284.469C105.348 282.292 106.406 279.399 106.406 275.791V255.261C106.406 251.653 105.348 248.76 103.233 246.583C101.18 244.343 98.4117 243.224 94.9279 243.224C91.5063 243.224 88.738 244.343 86.6228 246.583C84.5698 248.76 83.5434 251.653 83.5434 255.261V275.791C83.5434 279.399 84.5698 282.292 86.6228 284.469C88.738 286.647 91.5063 287.735 94.9279 287.735ZM163.617 298C162.995 298 162.559 297.72 162.311 297.16L150.646 271.312C150.522 271.063 150.335 270.938 150.086 270.938H141.408C141.097 270.938 140.941 271.094 140.941 271.405V296.88C140.941 297.191 140.817 297.471 140.568 297.72C140.381 297.907 140.133 298 139.822 298H128.904C128.593 298 128.313 297.907 128.064 297.72C127.877 297.471 127.784 297.191 127.784 296.88V233.799C127.784 233.488 127.877 233.239 128.064 233.052C128.313 232.803 128.593 232.679 128.904 232.679H155.592C159.573 232.679 163.057 233.488 166.043 235.105C169.092 236.723 171.424 239.024 173.042 242.011C174.722 244.997 175.561 248.449 175.561 252.369C175.561 256.599 174.504 260.238 172.389 263.287C170.274 266.273 167.319 268.388 163.524 269.632C163.213 269.756 163.119 269.974 163.244 270.285L175.935 296.694C176.059 296.942 176.121 297.129 176.121 297.253C176.121 297.751 175.779 298 175.095 298H163.617ZM141.408 243.97C141.097 243.97 140.941 244.126 140.941 244.437V260.394C140.941 260.705 141.097 260.86 141.408 260.86H153.632C156.245 260.86 158.36 260.083 159.978 258.527C161.657 256.972 162.497 254.95 162.497 252.462C162.497 249.973 161.657 247.952 159.978 246.396C158.36 244.779 156.245 243.97 153.632 243.97H141.408ZM225.23 233.425C225.541 232.928 225.976 232.679 226.536 232.679H237.454C237.765 232.679 238.014 232.803 238.2 233.052C238.449 233.239 238.574 233.488 238.574 233.799V296.88C238.574 297.191 238.449 297.471 238.2 297.72C238.014 297.907 237.765 298 237.454 298H226.536C226.225 298 225.945 297.907 225.696 297.72C225.51 297.471 225.416 297.191 225.416 296.88V255.728C225.416 255.479 225.354 255.355 225.23 255.355C225.105 255.355 224.981 255.448 224.856 255.635L214.965 271.125C214.654 271.623 214.218 271.872 213.658 271.872H208.153C207.593 271.872 207.157 271.623 206.846 271.125L196.955 255.635C196.83 255.448 196.706 255.386 196.582 255.448C196.457 255.448 196.395 255.572 196.395 255.821V296.88C196.395 297.191 196.271 297.471 196.022 297.72C195.835 297.907 195.586 298 195.275 298H184.357C184.046 298 183.766 297.907 183.517 297.72C183.331 297.471 183.237 297.191 183.237 296.88V233.799C183.237 233.488 183.331 233.239 183.517 233.052C183.766 232.803 184.046 232.679 184.357 232.679H195.275C195.835 232.679 196.271 232.928 196.582 233.425L210.579 255.168C210.766 255.541 210.952 255.541 211.139 255.168L225.23 233.425ZM113.684 312.425C113.995 311.928 114.431 311.679 114.991 311.679H125.909C126.22 311.679 126.469 311.803 126.655 312.052C126.904 312.239 127.029 312.488 127.029 312.799V375.88C127.029 376.191 126.904 376.471 126.655 376.72C126.469 376.907 126.22 377 125.909 377H114.991C114.68 377 114.4 376.907 114.151 376.72C113.964 376.471 113.871 376.191 113.871 375.88V334.728C113.871 334.479 113.809 334.355 113.684 334.355C113.56 334.355 113.436 334.448 113.311 334.635L103.42 350.125C103.109 350.623 102.673 350.872 102.113 350.872H96.6076C96.0477 350.872 95.6122 350.623 95.3012 350.125L85.4097 334.635C85.2853 334.448 85.1608 334.386 85.0364 334.448C84.912 334.448 84.8498 334.572 84.8498 334.821V375.88C84.8498 376.191 84.7254 376.471 84.4765 376.72C84.2899 376.907 84.0411 377 83.73 377H72.8121C72.501 377 72.2211 376.907 71.9722 376.72C71.7856 376.471 71.6923 376.191 71.6923 375.88V312.799C71.6923 312.488 71.7856 312.239 71.9722 312.052C72.2211 311.803 72.501 311.679 72.8121 311.679H83.73C84.2899 311.679 84.7254 311.928 85.0364 312.425L99.0338 334.168C99.2204 334.541 99.4071 334.541 99.5937 334.168L113.684 312.425ZM154.822 328.289C158.866 328.289 162.474 329.005 165.647 330.435C168.819 331.804 171.277 333.701 173.019 336.128C174.823 338.554 175.725 341.26 175.725 344.246V375.88C175.725 376.191 175.6 376.471 175.352 376.72C175.165 376.907 174.916 377 174.605 377H163.687C163.376 377 163.096 376.907 162.847 376.72C162.661 376.471 162.567 376.191 162.567 375.88V372.801C162.567 372.614 162.505 372.49 162.381 372.428C162.256 372.365 162.132 372.428 162.007 372.614C159.395 376.036 155.195 377.747 149.41 377.747C144.557 377.747 140.638 376.565 137.652 374.201C134.666 371.837 133.173 368.353 133.173 363.749C133.173 358.959 134.852 355.257 138.212 352.645C141.571 349.97 146.361 348.632 152.582 348.632H162.101C162.412 348.632 162.567 348.476 162.567 348.165V346.112C162.567 344.06 161.945 342.473 160.701 341.353C159.457 340.171 157.59 339.58 155.102 339.58C153.173 339.58 151.556 339.923 150.25 340.607C149.005 341.291 148.197 342.255 147.823 343.5C147.637 344.184 147.232 344.495 146.61 344.433L135.319 342.94C134.573 342.815 134.23 342.535 134.293 342.1C134.541 339.487 135.568 337.123 137.372 335.008C139.238 332.893 141.665 331.244 144.651 330.062C147.699 328.88 151.089 328.289 154.822 328.289ZM152.956 367.948C155.631 367.948 157.901 367.233 159.768 365.802C161.634 364.371 162.567 362.536 162.567 360.296V356.937C162.567 356.626 162.412 356.471 162.101 356.471H155.382C152.582 356.471 150.374 356.999 148.757 358.057C147.201 359.114 146.424 360.608 146.424 362.536C146.424 364.216 147.015 365.553 148.197 366.549C149.379 367.482 150.965 367.948 152.956 367.948ZM208.135 328.289C213.112 328.289 217.125 329.813 220.173 332.862C223.221 335.91 224.745 340.047 224.745 345.273V375.88C224.745 376.191 224.621 376.471 224.372 376.72C224.186 376.907 223.937 377 223.626 377H212.708C212.397 377 212.117 376.907 211.868 376.72C211.681 376.471 211.588 376.191 211.588 375.88V347.979C211.588 345.49 210.873 343.469 209.442 341.913C208.073 340.358 206.238 339.58 203.936 339.58C201.634 339.58 199.768 340.358 198.337 341.913C196.968 343.469 196.284 345.49 196.284 347.979V375.88C196.284 376.191 196.16 376.471 195.911 376.72C195.724 376.907 195.475 377 195.164 377H184.246C183.935 377 183.655 376.907 183.407 376.72C183.22 376.471 183.127 376.191 183.127 375.88V330.155C183.127 329.844 183.22 329.596 183.407 329.409C183.655 329.16 183.935 329.036 184.246 329.036H195.164C195.475 329.036 195.724 329.16 195.911 329.409C196.16 329.596 196.284 329.844 196.284 330.155V333.422C196.284 333.608 196.346 333.733 196.471 333.795C196.595 333.857 196.689 333.826 196.751 333.701C199.301 330.093 203.096 328.289 208.135 328.289ZM239.384 323.623C237.269 323.623 235.496 322.939 234.065 321.57C232.697 320.14 232.012 318.367 232.012 316.251C232.012 314.074 232.697 312.301 234.065 310.932C235.434 309.564 237.207 308.879 239.384 308.879C241.562 308.879 243.335 309.564 244.703 310.932C246.072 312.301 246.756 314.074 246.756 316.251C246.756 318.367 246.041 320.14 244.61 321.57C243.241 322.939 241.5 323.623 239.384 323.623ZM233.785 377C233.474 377 233.194 376.907 232.946 376.72C232.759 376.471 232.666 376.191 232.666 375.88V330.062C232.666 329.751 232.759 329.502 232.946 329.316C233.194 329.067 233.474 328.942 233.785 328.942H244.703C245.014 328.942 245.263 329.067 245.45 329.316C245.699 329.502 245.823 329.751 245.823 330.062V375.88C245.823 376.191 245.699 376.471 245.45 376.72C245.263 376.907 245.014 377 244.703 377H233.785ZM281.552 328.942C281.863 328.942 282.112 329.067 282.299 329.316C282.548 329.502 282.672 329.751 282.672 330.062V338.927C282.672 339.238 282.548 339.518 282.299 339.767C282.112 339.954 281.863 340.047 281.552 340.047H272.501C272.19 340.047 272.034 340.202 272.034 340.514V375.88C272.034 376.191 271.91 376.471 271.661 376.72C271.474 376.907 271.225 377 270.914 377H259.996C259.685 377 259.405 376.907 259.156 376.72C258.97 376.471 258.876 376.191 258.876 375.88V340.514C258.876 340.202 258.721 340.047 258.41 340.047H252.904C252.593 340.047 252.313 339.954 252.064 339.767C251.878 339.518 251.784 339.238 251.784 338.927V330.062C251.784 329.751 251.878 329.502 252.064 329.316C252.313 329.067 252.593 328.942 252.904 328.942H258.41C258.721 328.942 258.876 328.787 258.876 328.476V326.423C258.876 322.566 259.467 319.58 260.649 317.465C261.831 315.287 263.729 313.763 266.342 312.892C269.017 311.959 272.687 311.555 277.353 311.679H280.899C281.21 311.679 281.459 311.803 281.646 312.052C281.894 312.239 282.019 312.488 282.019 312.799V320.357C282.019 320.668 281.894 320.948 281.646 321.197C281.459 321.384 281.21 321.477 280.899 321.477H277.82C275.642 321.539 274.118 322.006 273.247 322.877C272.438 323.686 272.034 325.21 272.034 327.449V328.476C272.034 328.787 272.19 328.942 272.501 328.942H281.552ZM327.974 348.072C328.347 350.436 328.472 353.08 328.347 356.004C328.285 356.75 327.881 357.124 327.134 357.124H298.299C297.926 357.124 297.802 357.279 297.926 357.59C298.113 358.835 298.455 360.079 298.953 361.323C300.57 364.807 303.867 366.549 308.844 366.549C312.826 366.486 315.967 364.869 318.269 361.696C318.518 361.323 318.798 361.136 319.109 361.136C319.296 361.136 319.513 361.261 319.762 361.51L326.481 368.135C326.792 368.446 326.947 368.726 326.947 368.975C326.947 369.099 326.823 369.348 326.574 369.721C324.521 372.272 321.877 374.263 318.642 375.694C315.407 377.062 311.861 377.747 308.004 377.747C302.654 377.747 298.113 376.533 294.38 374.107C290.71 371.681 288.066 368.291 286.448 363.936C285.142 360.825 284.489 356.75 284.489 351.711C284.489 348.29 284.955 345.273 285.888 342.66C287.319 338.243 289.808 334.728 293.354 332.115C296.962 329.502 301.223 328.196 306.138 328.196C312.359 328.196 317.336 330 321.069 333.608C324.863 337.216 327.165 342.038 327.974 348.072ZM306.231 339.58C302.312 339.58 299.73 341.416 298.486 345.086C298.237 345.895 298.02 346.89 297.833 348.072C297.833 348.383 297.988 348.539 298.299 348.539H314.443C314.816 348.539 314.941 348.383 314.816 348.072C314.505 346.268 314.35 345.397 314.35 345.459C313.79 343.593 312.795 342.162 311.364 341.167C309.995 340.109 308.284 339.58 306.231 339.58ZM353.082 377.653C348.914 377.653 345.274 377.062 342.164 375.88C339.053 374.698 336.627 373.05 334.885 370.934C333.205 368.819 332.366 366.424 332.366 363.749V362.816C332.366 362.505 332.459 362.256 332.646 362.069C332.894 361.821 333.174 361.696 333.485 361.696H343.843C344.154 361.696 344.403 361.821 344.59 362.069C344.839 362.256 344.963 362.505 344.963 362.816V362.909C344.963 364.278 345.71 365.46 347.203 366.455C348.758 367.388 350.687 367.855 352.988 367.855C355.104 367.855 356.814 367.451 358.121 366.642C359.427 365.771 360.08 364.713 360.08 363.469C360.08 362.349 359.52 361.51 358.401 360.95C357.281 360.39 355.446 359.799 352.895 359.177C349.971 358.43 347.669 357.715 345.99 357.03C342.008 355.662 338.835 353.982 336.471 351.991C334.107 350.001 332.925 347.139 332.925 343.406C332.925 338.803 334.698 335.163 338.244 332.488C341.853 329.751 346.612 328.382 352.522 328.382C356.503 328.382 359.987 329.036 362.973 330.342C365.959 331.586 368.261 333.359 369.879 335.661C371.558 337.963 372.398 340.576 372.398 343.5C372.398 343.811 372.274 344.091 372.025 344.339C371.838 344.526 371.589 344.619 371.278 344.619H361.293C360.982 344.619 360.702 344.526 360.454 344.339C360.267 344.091 360.174 343.811 360.174 343.5C360.174 342.131 359.458 340.98 358.027 340.047C356.659 339.114 354.824 338.647 352.522 338.647C350.469 338.647 348.789 339.02 347.483 339.767C346.176 340.514 345.523 341.54 345.523 342.846C345.523 344.091 346.145 345.024 347.389 345.646C348.696 346.268 350.842 346.921 353.828 347.606C354.513 347.792 355.29 348.01 356.161 348.259C357.032 348.445 357.965 348.694 358.961 349.005C363.378 350.312 366.861 351.991 369.412 354.044C371.963 356.097 373.238 359.083 373.238 363.003C373.238 367.606 371.403 371.214 367.732 373.827C364.124 376.378 359.241 377.653 353.082 377.653ZM406.363 338.461C406.363 338.772 406.238 339.052 405.99 339.3C405.803 339.487 405.554 339.58 405.243 339.58H396.285C395.974 339.58 395.818 339.736 395.818 340.047V359.83C395.818 361.883 396.222 363.407 397.031 364.402C397.902 365.398 399.271 365.895 401.137 365.895H404.217C404.528 365.895 404.776 366.02 404.963 366.269C405.212 366.455 405.336 366.704 405.336 367.015V375.88C405.336 376.565 404.963 376.969 404.217 377.093C401.604 377.218 399.737 377.28 398.618 377.28C393.454 377.28 389.597 376.44 387.046 374.76C384.496 373.019 383.189 369.784 383.127 365.056V340.047C383.127 339.736 382.972 339.58 382.661 339.58H377.342C377.031 339.58 376.751 339.487 376.502 339.3C376.315 339.052 376.222 338.772 376.222 338.461V330.155C376.222 329.844 376.315 329.596 376.502 329.409C376.751 329.16 377.031 329.036 377.342 329.036H382.661C382.972 329.036 383.127 328.88 383.127 328.569V317.465C383.127 317.153 383.22 316.905 383.407 316.718C383.656 316.469 383.936 316.345 384.247 316.345H394.698C395.009 316.345 395.258 316.469 395.445 316.718C395.694 316.905 395.818 317.153 395.818 317.465V328.569C395.818 328.88 395.974 329.036 396.285 329.036H405.243C405.554 329.036 405.803 329.16 405.99 329.409C406.238 329.596 406.363 329.844 406.363 330.155V338.461ZM432.962 377.747C427.736 377.747 423.257 376.378 419.525 373.641C415.792 370.903 413.241 367.171 411.873 362.443C411.002 359.519 410.566 356.346 410.566 352.925C410.566 349.254 411.002 345.957 411.873 343.033C413.304 338.429 415.885 334.821 419.618 332.208C423.351 329.596 427.83 328.289 433.055 328.289C438.157 328.289 442.511 329.596 446.12 332.208C449.728 334.759 452.279 338.336 453.772 342.94C454.767 346.05 455.265 349.316 455.265 352.738C455.265 356.097 454.829 359.239 453.958 362.163C452.59 367.015 450.039 370.841 446.306 373.641C442.636 376.378 438.188 377.747 432.962 377.747ZM432.962 366.455C435.015 366.455 436.757 365.833 438.188 364.589C439.619 363.345 440.645 361.634 441.267 359.457C441.765 357.466 442.014 355.289 442.014 352.925C442.014 350.312 441.765 348.103 441.267 346.299C440.583 344.184 439.525 342.535 438.095 341.353C436.664 340.171 434.922 339.58 432.869 339.58C430.754 339.58 428.981 340.171 427.55 341.353C426.181 342.535 425.186 344.184 424.564 346.299C424.066 347.792 423.817 350.001 423.817 352.925C423.817 355.724 424.035 357.901 424.47 359.457C425.093 361.634 426.119 363.345 427.55 364.589C429.043 365.833 430.847 366.455 432.962 366.455Z"></path>
</g>
<g filter="url(#filter3_dddd_9981_187825)">
<path fill="#B7F4EE" d="M540.75 204.188C540.75 189.49 528.572 177.312 513.875 177.312H661.688C676.385 177.312 688.562 189.49 688.562 204.188V311.688H621.375C613.816 311.688 607.938 317.986 607.938 325.125V331.844C607.938 350.74 592.82 365.438 574.344 365.438C555.447 365.438 540.75 350.74 540.75 331.844V204.188Z"></path>
</g>
<path fill="#16A394" d="M540.75 231.062H500.438C492.879 231.062 487 225.184 487 217.625V204.188C487 189.49 498.758 177.312 513.875 177.312C528.572 177.312 540.75 189.49 540.75 204.188V231.062ZM607.938 331.844V325.125C607.938 317.986 613.816 311.688 621.375 311.688H715.438C722.576 311.688 728.875 317.986 728.875 325.125C728.875 347.381 710.818 365.438 688.562 365.438H574.344C592.82 365.438 607.938 350.74 607.938 331.844Z"></path>
<g filter="url(#filter4_i_9981_187825)">
<path fill="#154F47" d="M578.625 229.094C578.156 228.469 578 227.688 578 226.906C578 224.719 579.719 223 581.75 223H598.781C600.656 223 602.219 223.938 603.156 225.5L613.781 243.312C606.281 244.25 599.562 247.844 594.562 253L578.625 229.094ZM657.219 229.094L641.281 253C636.281 247.844 629.562 244.25 622.062 243.312L632.688 225.5C633.625 223.938 635.188 223 637.062 223H654.094C656.281 223 658 224.719 658 226.906C658 227.688 657.688 228.469 657.219 229.094ZM590.5 275.5C590.5 265.812 595.656 256.75 604.25 251.75C612.688 246.906 623.156 246.906 631.75 251.75C640.188 256.75 645.5 265.812 645.5 275.5C645.5 285.344 640.188 294.406 631.75 299.406C623.156 304.25 612.688 304.25 604.25 299.406C595.656 294.406 590.5 285.344 590.5 275.5ZM619.25 260.812C618.781 259.719 617.219 259.719 616.594 260.812L613.156 267.844C612.844 268.312 612.531 268.625 612.062 268.625L604.25 269.719C603 269.875 602.531 271.438 603.312 272.219L609.094 277.844C609.406 278.156 609.562 278.625 609.406 279.094L608.156 286.906C607.844 288.156 609.094 288.938 610.188 288.469L617.219 284.719C617.688 284.562 618.156 284.562 618.625 284.719L625.656 288.469C626.75 288.938 628 288.156 627.688 286.906L626.438 279.094C626.281 278.625 626.438 278.156 626.75 277.844L632.531 272.219C633.312 271.438 632.844 270.031 631.594 269.719L623.781 268.625C623.312 268.625 623 268.312 622.688 267.844L619.25 260.812Z"></path>
</g>
</g>
<defs>
<filter color-interpolation-filters="sRGB" filterUnits="userSpaceOnUse" height="185.062" width="175.064" y="39" x="26" id="filter0_dddddd_9981_187825">
<feFlood result="BackgroundImageFix" flood-opacity="0"></feFlood>
<feColorMatrix result="hardAlpha" values="0 0 0 0 0 0 0 0 0 0 0 0 0 0 0 0 0 0 127 0" type="matrix" in="SourceAlpha"></feColorMatrix>
<feOffset dy="1.38363"></feOffset>
<feGaussianBlur stdDeviation="0.553451"></feGaussianBlur>
<feColorMatrix values="0 0 0 0 0.00392157 0 0 0 0 0.0627451 0 0 0 0 0.0588235 0 0 0 0.112458 0" type="matrix"></feColorMatrix>
<feBlend result="effect1_dropShadow_9981_187825" in2="BackgroundImageFix" mode="normal"></feBlend>
<feColorMatrix result="hardAlpha" values="0 0 0 0 0 0 0 0 0 0 0 0 0 0 0 0 0 0 127 0" type="matrix" in="SourceAlpha"></feColorMatrix>
<feOffset dy="3.32505"></feOffset>
<feGaussianBlur stdDeviation="1.33002"></feGaussianBlur>
<feColorMatrix values="0 0 0 0 0.00392157 0 0 0 0 0.0627451 0 0 0 0 0.0588235 0 0 0 0.161557 0" type="matrix"></feColorMatrix>
<feBlend result="effect2_dropShadow_9981_187825" in2="effect1_dropShadow_9981_187825" mode="normal"></feBlend>
<feColorMatrix result="hardAlpha" values="0 0 0 0 0 0 0 0 0 0 0 0 0 0 0 0 0 0 127 0" type="matrix" in="SourceAlpha"></feColorMatrix>
<feOffset dy="6.26078"></feOffset>
<feGaussianBlur stdDeviation="2.50431"></feGaussianBlur>
<feColorMatrix values="0 0 0 0 0.00392157 0 0 0 0 0.0627451 0 0 0 0 0.0588235 0 0 0 0.2 0" type="matrix"></feColorMatrix>
<feBlend result="effect3_dropShadow_9981_187825" in2="effect2_dropShadow_9981_187825" mode="normal"></feBlend>
<feColorMatrix result="hardAlpha" values="0 0 0 0 0 0 0 0 0 0 0 0 0 0 0 0 0 0 127 0" type="matrix" in="SourceAlpha"></feColorMatrix>
<feOffset dy="11.1682"></feOffset>
<feGaussianBlur stdDeviation="4.46726"></feGaussianBlur>
<feColorMatrix values="0 0 0 0 0.00392157 0 0 0 0 0.0627451 0 0 0 0 0.0588235 0 0 0 0.238443 0" type="matrix"></feColorMatrix>
<feBlend result="effect4_dropShadow_9981_187825" in2="effect3_dropShadow_9981_187825" mode="normal"></feBlend>
<feColorMatrix result="hardAlpha" values="0 0 0 0 0 0 0 0 0 0 0 0 0 0 0 0 0 0 127 0" type="matrix" in="SourceAlpha"></feColorMatrix>
<feOffset dy="20.8888"></feOffset>
<feGaussianBlur stdDeviation="8.35552"></feGaussianBlur>
<feColorMatrix values="0 0 0 0 0.00392157 0 0 0 0 0.0627451 0 0 0 0 0.0588235 0 0 0 0.287542 0" type="matrix"></feColorMatrix>
<feBlend result="effect5_dropShadow_9981_187825" in2="effect4_dropShadow_9981_187825" mode="normal"></feBlend>
<feColorMatrix result="hardAlpha" values="0 0 0 0 0 0 0 0 0 0 0 0 0 0 0 0 0 0 127 0" type="matrix" in="SourceAlpha"></feColorMatrix>
<feOffset dy="50"></feOffset>
<feGaussianBlur stdDeviation="20"></feGaussianBlur>
<feColorMatrix values="0 0 0 0 0.00392157 0 0 0 0 0.0627451 0 0 0 0 0.0588235 0 0 0 0.4 0" type="matrix"></feColorMatrix>
<feBlend result="effect6_dropShadow_9981_187825" in2="effect5_dropShadow_9981_187825" mode="normal"></feBlend>
<feBlend result="shape" in2="effect6_dropShadow_9981_187825" in="SourceGraphic" mode="normal"></feBlend>
</filter>
<filter color-interpolation-filters="sRGB" filterUnits="userSpaceOnUse" height="185.062" width="175.064" y="39" x="129.936" id="filter1_dddddd_9981_187825">
<feFlood result="BackgroundImageFix" flood-opacity="0"></feFlood>
<feColorMatrix result="hardAlpha" values="0 0 0 0 0 0 0 0 0 0 0 0 0 0 0 0 0 0 127 0" type="matrix" in="SourceAlpha"></feColorMatrix>
<feOffset dy="1.38363"></feOffset>
<feGaussianBlur stdDeviation="0.553451"></feGaussianBlur>
<feColorMatrix values="0 0 0 0 0.00392157 0 0 0 0 0.0627451 0 0 0 0 0.0588235 0 0 0 0.112458 0" type="matrix"></feColorMatrix>
<feBlend result="effect1_dropShadow_9981_187825" in2="BackgroundImageFix" mode="normal"></feBlend>
<feColorMatrix result="hardAlpha" values="0 0 0 0 0 0 0 0 0 0 0 0 0 0 0 0 0 0 127 0" type="matrix" in="SourceAlpha"></feColorMatrix>
<feOffset dy="3.32505"></feOffset>
<feGaussianBlur stdDeviation="1.33002"></feGaussianBlur>
<feColorMatrix values="0 0 0 0 0.00392157 0 0 0 0 0.0627451 0 0 0 0 0.0588235 0 0 0 0.161557 0" type="matrix"></feColorMatrix>
<feBlend result="effect2_dropShadow_9981_187825" in2="effect1_dropShadow_9981_187825" mode="normal"></feBlend>
<feColorMatrix result="hardAlpha" values="0 0 0 0 0 0 0 0 0 0 0 0 0 0 0 0 0 0 127 0" type="matrix" in="SourceAlpha"></feColorMatrix>
<feOffset dy="6.26078"></feOffset>
<feGaussianBlur stdDeviation="2.50431"></feGaussianBlur>
<feColorMatrix values="0 0 0 0 0.00392157 0 0 0 0 0.0627451 0 0 0 0 0.0588235 0 0 0 0.2 0" type="matrix"></feColorMatrix>
<feBlend result="effect3_dropShadow_9981_187825" in2="effect2_dropShadow_9981_187825" mode="normal"></feBlend>
<feColorMatrix result="hardAlpha" values="0 0 0 0 0 0 0 0 0 0 0 0 0 0 0 0 0 0 127 0" type="matrix" in="SourceAlpha"></feColorMatrix>
<feOffset dy="11.1682"></feOffset>
<feGaussianBlur stdDeviation="4.46726"></feGaussianBlur>
<feColorMatrix values="0 0 0 0 0.00392157 0 0 0 0 0.0627451 0 0 0 0 0.0588235 0 0 0 0.238443 0" type="matrix"></feColorMatrix>
<feBlend result="effect4_dropShadow_9981_187825" in2="effect3_dropShadow_9981_187825" mode="normal"></feBlend>
<feColorMatrix result="hardAlpha" values="0 0 0 0 0 0 0 0 0 0 0 0 0 0 0 0 0 0 127 0" type="matrix" in="SourceAlpha"></feColorMatrix>
<feOffset dy="20.8888"></feOffset>
<feGaussianBlur stdDeviation="8.35552"></feGaussianBlur>
<feColorMatrix values="0 0 0 0 0.00392157 0 0 0 0 0.0627451 0 0 0 0 0.0588235 0 0 0 0.287542 0" type="matrix"></feColorMatrix>
<feBlend result="effect5_dropShadow_9981_187825" in2="effect4_dropShadow_9981_187825" mode="normal"></feBlend>
<feColorMatrix result="hardAlpha" values="0 0 0 0 0 0 0 0 0 0 0 0 0 0 0 0 0 0 127 0" type="matrix" in="SourceAlpha"></feColorMatrix>
<feOffset dy="50"></feOffset>
<feGaussianBlur stdDeviation="20"></feGaussianBlur>
<feColorMatrix values="0 0 0 0 0.00392157 0 0 0 0 0.0627451 0 0 0 0 0.0588235 0 0 0 0.4 0" type="matrix"></feColorMatrix>
<feBlend result="effect6_dropShadow_9981_187825" in2="effect5_dropShadow_9981_187825" mode="normal"></feBlend>
<feBlend result="shape" in2="effect6_dropShadow_9981_187825" in="SourceGraphic" mode="normal"></feBlend>
</filter>
<filter color-interpolation-filters="sRGB" filterUnits="userSpaceOnUse" height="389.615" width="529.544" y="150.883" x="-1.94678" id="filter2_dddddd_9981_187825">
<feFlood result="BackgroundImageFix" flood-opacity="0"></feFlood>
<feColorMatrix result="hardAlpha" values="0 0 0 0 0 0 0 0 0 0 0 0 0 0 0 0 0 0 127 0" type="matrix" in="SourceAlpha"></feColorMatrix>
<feOffset dy="2.50203"></feOffset>
<feGaussianBlur stdDeviation="1.00081"></feGaussianBlur>
<feColorMatrix values="0 0 0 0 0.0156863 0 0 0 0 0.0705882 0 0 0 0 0.0823529 0 0 0 0.098401 0" type="matrix"></feColorMatrix>
<feBlend result="effect1_dropShadow_9981_187825" in2="BackgroundImageFix" mode="normal"></feBlend>
<feColorMatrix result="hardAlpha" values="0 0 0 0 0 0 0 0 0 0 0 0 0 0 0 0 0 0 127 0" type="matrix" in="SourceAlpha"></feColorMatrix>
<feOffset dy="6.01273"></feOffset>
<feGaussianBlur stdDeviation="2.40509"></feGaussianBlur>
<feColorMatrix values="0 0 0 0 0.0156863 0 0 0 0 0.0705882 0 0 0 0 0.0823529 0 0 0 0.141362 0" type="matrix"></feColorMatrix>
<feBlend result="effect2_dropShadow_9981_187825" in2="effect1_dropShadow_9981_187825" mode="normal"></feBlend>
<feColorMatrix result="hardAlpha" values="0 0 0 0 0 0 0 0 0 0 0 0 0 0 0 0 0 0 127 0" type="matrix" in="SourceAlpha"></feColorMatrix>
<feOffset dy="11.3214"></feOffset>
<feGaussianBlur stdDeviation="4.52858"></feGaussianBlur>
<feColorMatrix values="0 0 0 0 0.0156863 0 0 0 0 0.0705882 0 0 0 0 0.0823529 0 0 0 0.175 0" type="matrix"></feColorMatrix>
<feBlend result="effect3_dropShadow_9981_187825" in2="effect2_dropShadow_9981_187825" mode="normal"></feBlend>
<feColorMatrix result="hardAlpha" values="0 0 0 0 0 0 0 0 0 0 0 0 0 0 0 0 0 0 127 0" type="matrix" in="SourceAlpha"></feColorMatrix>
<feOffset dy="20.1955"></feOffset>
<feGaussianBlur stdDeviation="8.07821"></feGaussianBlur>
<feColorMatrix values="0 0 0 0 0.0156863 0 0 0 0 0.0705882 0 0 0 0 0.0823529 0 0 0 0.208638 0" type="matrix"></feColorMatrix>
<feBlend result="effect4_dropShadow_9981_187825" in2="effect3_dropShadow_9981_187825" mode="normal"></feBlend>
<feColorMatrix result="hardAlpha" values="0 0 0 0 0 0 0 0 0 0 0 0 0 0 0 0 0 0 127 0" type="matrix" in="SourceAlpha"></feColorMatrix>
<feOffset dy="37.7735"></feOffset>
<feGaussianBlur stdDeviation="15.1094"></feGaussianBlur>
<feColorMatrix values="0 0 0 0 0.0156863 0 0 0 0 0.0705882 0 0 0 0 0.0823529 0 0 0 0.251599 0" type="matrix"></feColorMatrix>
<feBlend result="effect5_dropShadow_9981_187825" in2="effect4_dropShadow_9981_187825" mode="normal"></feBlend>
<feColorMatrix result="hardAlpha" values="0 0 0 0 0 0 0 0 0 0 0 0 0 0 0 0 0 0 127 0" type="matrix" in="SourceAlpha"></feColorMatrix>
<feOffset dy="90.4157"></feOffset>
<feGaussianBlur stdDeviation="36.1663"></feGaussianBlur>
<feColorMatrix values="0 0 0 0 0.0156863 0 0 0 0 0.0705882 0 0 0 0 0.0823529 0 0 0 0.35 0" type="matrix"></feColorMatrix>
<feBlend result="effect6_dropShadow_9981_187825" in2="effect5_dropShadow_9981_187825" mode="normal"></feBlend>
<feBlend result="shape" in2="effect6_dropShadow_9981_187825" in="SourceGraphic" mode="normal"></feBlend>
</filter>
<filter color-interpolation-filters="sRGB" filterUnits="userSpaceOnUse" height="386.504" width="351.024" y="177.312" x="425.707" id="filter3_dddd_9981_187825">
<feFlood result="BackgroundImageFix" flood-opacity="0"></feFlood>
<feColorMatrix result="hardAlpha" values="0 0 0 0 0 0 0 0 0 0 0 0 0 0 0 0 0 0 127 0" type="matrix" in="SourceAlpha"></feColorMatrix>
<feOffset dy="4.99121"></feOffset>
<feGaussianBlur stdDeviation="1.99648"></feGaussianBlur>
<feColorMatrix values="0 0 0 0 0.00392157 0 0 0 0 0.101961 0 0 0 0 0.109804 0 0 0 0.233435 0" type="matrix"></feColorMatrix>
<feBlend result="effect1_dropShadow_9981_187825" in2="BackgroundImageFix" mode="normal"></feBlend>
<feColorMatrix result="hardAlpha" values="0 0 0 0 0 0 0 0 0 0 0 0 0 0 0 0 0 0 127 0" type="matrix" in="SourceAlpha"></feColorMatrix>
<feOffset dy="13.8001"></feOffset>
<feGaussianBlur stdDeviation="5.52002"></feGaussianBlur>
<feColorMatrix values="0 0 0 0 0.00392157 0 0 0 0 0.101961 0 0 0 0 0.109804 0 0 0 0.335 0" type="matrix"></feColorMatrix>
<feBlend result="effect2_dropShadow_9981_187825" in2="effect1_dropShadow_9981_187825" mode="normal"></feBlend>
<feColorMatrix result="hardAlpha" values="0 0 0 0 0 0 0 0 0 0 0 0 0 0 0 0 0 0 127 0" type="matrix" in="SourceAlpha"></feColorMatrix>
<feOffset dy="33.2252"></feOffset>
<feGaussianBlur stdDeviation="13.2901"></feGaussianBlur>
<feColorMatrix values="0 0 0 0 0.00392157 0 0 0 0 0.101961 0 0 0 0 0.109804 0 0 0 0.436565 0" type="matrix"></feColorMatrix>
<feBlend result="effect3_dropShadow_9981_187825" in2="effect2_dropShadow_9981_187825" mode="normal"></feBlend>
<feColorMatrix result="hardAlpha" values="0 0 0 0 0 0 0 0 0 0 0 0 0 0 0 0 0 0 127 0" type="matrix" in="SourceAlpha"></feColorMatrix>
<feOffset dy="110.21"></feOffset>
<feGaussianBlur stdDeviation="44.0842"></feGaussianBlur>
<feColorMatrix values="0 0 0 0 0.00392157 0 0 0 0 0.101961 0 0 0 0 0.109804 0 0 0 0.67 0" type="matrix"></feColorMatrix>
<feBlend result="effect4_dropShadow_9981_187825" in2="effect3_dropShadow_9981_187825" mode="normal"></feBlend>
<feBlend result="shape" in2="effect4_dropShadow_9981_187825" in="SourceGraphic" mode="normal"></feBlend>
</filter>
<filter color-interpolation-filters="sRGB" filterUnits="userSpaceOnUse" height="81.25" width="80" y="223" x="578" id="filter4_i_9981_187825">
<feFlood result="BackgroundImageFix" flood-opacity="0"></feFlood>
<feBlend result="shape" in2="BackgroundImageFix" in="SourceGraphic" mode="normal"></feBlend>
<feColorMatrix result="hardAlpha" values="0 0 0 0 0 0 0 0 0 0 0 0 0 0 0 0 0 0 127 0" type="matrix" in="SourceAlpha"></feColorMatrix>
<feOffset></feOffset>
<feGaussianBlur stdDeviation="4.8"></feGaussianBlur>
<feComposite k3="1" k2="-1" operator="arithmetic" in2="hardAlpha"></feComposite>
<feColorMatrix values="0 0 0 0 0.0392157 0 0 0 0 0.0588235 0 0 0 0 0.0980392 0 0 0 1 0" type="matrix"></feColorMatrix>
<feBlend result="effect1_innerShadow_9981_187825" in2="shape" mode="normal"></feBlend>
</filter>
<linearGradient gradientUnits="userSpaceOnUse" y2="474" x2="422" y1="0" x1="422" id="paint0_linear_9981_187825">
<stop stop-color="#090A15"></stop>
<stop stop-color="#0D3A38" offset="0.955752"></stop>
</linearGradient>
<radialGradient gradientTransform="translate(422 355.876) rotate(90) scale(529.676 495.147)" gradientUnits="userSpaceOnUse" r="1" cy="0" cx="0" id="paint1_radial_9981_187825">
<stop stop-opacity="0.11" stop-color="#71E8DF"></stop>
<stop stop-opacity="0" stop-color="#71E8DF" offset="1"></stop>
</radialGradient>
<radialGradient gradientTransform="translate(422 320.89) rotate(90) scale(229.1 407.933)" gradientUnits="userSpaceOnUse" r="1" cy="0" cx="0" id="paint2_radial_9981_187825">
<stop stop-color="#71E8DF"></stop>
<stop stop-opacity="0" stop-color="#71E8DF" offset="1"></stop>
</radialGradient>
<clipPath id="clip0_9981_187825">
<rect fill="white" height="474" width="844"></rect>
</clipPath>
<clipPath id="clip1_9981_187825">
<rect transform="translate(193.385 62.4453)" fill="white" height="48.1656" width="48.1656"></rect>
</clipPath>
</defs>
</svg>
