<svg width="21" height="22" viewBox="0 0 21 22" fill="none" xmlns="http://www.w3.org/2000/svg">
<path d="M10.3436 0.236235C10.4126 0.208829 10.491 0.21344 10.5569 0.249907L20.0511 5.50039C20.1306 5.54439 20.1799 5.62825 20.18 5.71914V16.2187C20.18 16.3096 20.1307 16.3939 20.0511 16.4379L10.5569 21.6874C10.4817 21.729 10.39 21.729 10.3148 21.6874L5.62531 19.0971C5.60342 19.0919 5.58202 19.0843 5.56183 19.0731L0.808899 16.4486C0.72927 16.4046 0.679993 16.3204 0.679993 16.2294V5.71866C0.679993 5.62777 0.7294 5.54396 0.808899 5.49991L5.50714 2.89639L5.53693 2.88223C5.55263 2.87605 5.56888 2.87192 5.58527 2.86905L10.3148 0.249907L10.3436 0.236235ZM6.2088 18.8485L10.4354 21.183L19.68 16.0707V11.393L6.2088 18.8485ZM5.93097 18.4311L19.4119 10.9696L5.87921 3.53164L5.93097 18.4311ZM1.17999 5.86514V16.0814L5.43048 18.4296L5.37921 3.53848L1.17999 5.86514ZM6.16632 3.11905L19.68 10.5458V5.86661L10.4359 0.754301L6.16632 3.11905Z" fill="#FF2210"/>
</svg>
