<svg width="25" height="25" viewBox="0 0 25 25" fill="none" xmlns="http://www.w3.org/2000/svg">
<path fill-rule="evenodd" clip-rule="evenodd" d="M22.7381 6.90099H22.538C21.4847 6.89935 20.63 7.75245 20.63 8.8057V13.0655C20.63 13.9161 19.927 14.6052 19.0903 14.6052C18.5932 14.6052 18.0969 14.355 17.8025 13.935L13.4516 7.72128C13.0907 7.20531 12.5034 6.89771 11.8677 6.89771C10.8759 6.89771 9.98342 7.74096 9.98342 8.78191V13.0663C9.98342 13.9169 9.28617 14.606 8.44374 14.606C7.945 14.606 7.44954 14.3558 7.15506 13.9358L2.28664 6.98302C2.17672 6.82634 1.92981 6.90345 1.92981 7.0954V10.8105C1.92981 10.9983 1.98723 11.1804 2.09469 11.3347L6.88518 18.1767C7.16818 18.5811 7.58571 18.8813 8.06722 18.9904C9.27223 19.2644 10.3813 18.3367 10.3813 17.1546V12.8727C10.3813 12.0221 11.0703 11.333 11.9209 11.333C12.4336 11.333 12.9168 11.5832 13.2113 12.0032L17.5621 18.2161C17.9238 18.7328 18.4808 19.0397 19.1452 19.0397C20.1592 19.0397 21.0278 18.1955 21.0278 17.1554V12.8719C21.0278 12.0212 21.7168 11.3322 22.5675 11.3322H22.7373C22.8439 11.3322 22.93 11.2461 22.93 11.1394V7.09293C22.93 6.9863 22.8447 6.90099 22.7381 6.90099Z" fill="black"/>
</svg>
