<svg xmlns="http://www.w3.org/2000/svg" fill="none" viewBox="0 0 844 474" height="474" width="844">
<g clip-path="url(#clip0_10732_4435)">
<rect fill="url(#paint0_linear_10732_4435)" height="474" width="844"></rect>
<rect fill="url(#paint1_radial_10732_4435)" height="474" width="844"></rect>
<rect fill-opacity="0.2" fill="url(#paint2_radial_10732_4435)" height="474" width="844"></rect>
<rect fill-opacity="0.05" fill="url(#paint3_linear_10732_4435)" rx="660.208" height="1442" width="1442" y="-476" x="-110"></rect>
<rect stroke-opacity="0.2" stroke="url(#paint4_linear_10732_4435)" rx="660.708" height="1443" width="1443" y="-476.5" x="-110.5"></rect>
<rect fill-opacity="0.05" fill="url(#paint5_linear_10732_4435)" rx="441" height="882" width="882" y="-196" x="170"></rect>
<rect stroke-opacity="0.2" stroke="url(#paint6_linear_10732_4435)" rx="441.5" height="883" width="883" y="-196.5" x="169.5"></rect>
<rect fill-opacity="0.05" fill="url(#paint7_linear_10732_4435)" rx="257" height="514" width="514" y="-12" x="354"></rect>
<rect stroke-opacity="0.2" stroke="url(#paint8_linear_10732_4435)" rx="257.5" height="515" width="515" y="-12.5" x="353.5"></rect>
<rect fill-opacity="0.05" fill="url(#paint9_linear_10732_4435)" rx="138" height="276" width="276" y="107" x="473"></rect>
<rect stroke-opacity="0.2" stroke="url(#paint10_linear_10732_4435)" rx="138.5" height="277" width="277" y="106.5" x="472.5"></rect>
<rect fill-opacity="0.05" fill="url(#paint11_linear_10732_4435)" rx="76" height="152" width="152" y="169" x="535"></rect>
<rect stroke-opacity="0.2" stroke="url(#paint12_linear_10732_4435)" rx="76.5" height="153" width="153" y="168.5" x="534.5"></rect>
<g filter="url(#filter0_dd_10732_4435)">
<path fill="url(#paint13_linear_10732_4435)" d="M611.44 336.233C655.464 336.233 691.153 320.873 691.153 301.926V275.691H531.727V301.926C531.727 320.873 567.416 336.233 611.44 336.233Z"></path>
<ellipse fill="url(#paint14_linear_10732_4435)" ry="28.2527" rx="79.7131" cy="275.686" cx="611.44"></ellipse>
<ellipse fill-opacity="0.44" fill="url(#paint15_radial_10732_4435)" ry="28.2527" rx="79.7131" cy="275.686" cx="611.44"></ellipse>
<path fill="url(#paint16_linear_10732_4435)" d="M611.439 299.904C653.235 299.904 687.116 288.128 687.116 273.602V253.488H535.762V273.602C535.762 288.128 569.644 299.904 611.439 299.904Z"></path>
<path fill-opacity="0.284" fill="#C6D4DB" d="M611.439 299.904C653.235 299.904 687.116 288.128 687.116 273.602V253.488H535.762V273.602C535.762 288.128 569.644 299.904 611.439 299.904Z"></path>
<path fill="url(#paint17_linear_10732_4435)" d="M611.439 291.614C653.234 291.614 687.116 279.839 687.116 265.312V245.199H535.762V265.312C535.762 279.839 569.644 291.614 611.439 291.614Z" opacity="0.5"></path>
<path fill="url(#paint18_linear_10732_4435)" d="M611.44 287.798C655.464 287.798 691.153 274.809 691.153 258.785V231.293H531.727V258.785C531.727 274.809 567.416 287.798 611.44 287.798Z"></path>
<ellipse fill="url(#paint19_linear_10732_4435)" ry="30.2708" rx="79.7131" cy="229.271" cx="611.44"></ellipse>
<ellipse fill-opacity="0.44" fill="url(#paint20_radial_10732_4435)" ry="30.2708" rx="79.7131" cy="229.271" cx="611.44"></ellipse>
<path fill="url(#paint21_linear_10732_4435)" d="M611.439 255.507C653.235 255.507 687.116 243.22 687.116 228.062V207.074H535.762V228.062C535.762 243.22 569.644 255.507 611.439 255.507Z"></path>
<path fill-opacity="0.284" fill="#C6D4DB" d="M611.439 255.507C653.235 255.507 687.116 243.22 687.116 228.062V207.074H535.762V228.062C535.762 243.22 569.644 255.507 611.439 255.507Z"></path>
<path fill="url(#paint22_linear_10732_4435)" d="M611.439 246.293C653.235 246.293 687.116 234.005 687.116 218.847V197.859H535.762V218.847C535.762 234.005 569.644 246.293 611.439 246.293Z" opacity="0.5"></path>
<path fill="url(#paint23_linear_10732_4435)" d="M611.44 242.333C655.465 242.333 691.153 229.149 691.153 212.885V184.98H531.727V212.885C531.727 229.149 567.416 242.333 611.44 242.333Z"></path>
<ellipse fill="url(#paint24_linear_10732_4435)" ry="29.4485" rx="79.7131" cy="184.054" cx="611.443"></ellipse>
<path stroke-width="2.76462" stroke-opacity="0.46" stroke="url(#paint25_radial_10732_4435)" d="M611.442 155.987C633.334 155.987 653.093 159.268 667.329 164.527C674.452 167.159 680.121 170.26 683.982 173.633C687.847 177.008 689.773 180.534 689.773 184.054C689.773 187.574 687.847 191.1 683.982 194.476C680.121 197.849 674.452 200.95 667.329 203.581C653.093 208.84 633.334 212.12 611.442 212.12C589.55 212.12 569.791 208.84 555.556 203.581C548.432 200.95 542.765 197.848 538.903 194.476C535.039 191.1 533.111 187.574 533.111 184.054C533.111 180.533 535.039 177.008 538.903 173.633C542.765 170.26 548.432 167.159 555.556 164.527C569.791 159.268 589.55 155.987 611.442 155.987Z"></path>
</g>
<g filter="url(#filter1_ddddd_10732_4435)">
<path fill="white" d="M79.9701 185C79.5488 185 79.275 184.789 79.1487 184.368L77.2532 178.176C77.169 178.008 77.0637 177.924 76.9373 177.924H61.3946C61.2682 177.924 61.1629 178.008 61.0787 178.176L59.2464 184.368C59.12 184.789 58.8462 185 58.425 185H50.4009C50.1482 185 49.9586 184.937 49.8323 184.81C49.7059 184.642 49.6849 184.41 49.7691 184.115L63.4164 141.404C63.5428 140.983 63.8165 140.773 64.2378 140.773H74.1573C74.5785 140.773 74.8523 140.983 74.9787 141.404L88.626 184.115C88.6681 184.2 88.6892 184.305 88.6892 184.431C88.6892 184.81 88.4575 185 87.9942 185H79.9701ZM63.3532 170.658C63.3111 170.91 63.3953 171.037 63.6059 171.037H74.726C74.9787 171.037 75.0629 170.91 74.9787 170.658L69.2923 151.893C69.2502 151.724 69.187 151.661 69.1028 151.703C69.0185 151.703 68.9553 151.766 68.9132 151.893L63.3532 170.658ZM119.528 185.505C116.158 185.505 113.21 184.979 110.682 183.926C108.155 182.831 106.196 181.293 104.806 179.314C103.459 177.292 102.785 174.954 102.785 172.3V170.91C102.785 170.7 102.848 170.531 102.974 170.405C103.143 170.236 103.332 170.152 103.543 170.152H110.746C110.956 170.152 111.125 170.236 111.251 170.405C111.42 170.531 111.504 170.7 111.504 170.91V171.858C111.504 173.543 112.283 174.975 113.841 176.155C115.4 177.292 117.506 177.86 120.16 177.86C122.392 177.86 124.056 177.397 125.151 176.47C126.246 175.502 126.794 174.322 126.794 172.932C126.794 171.921 126.457 171.079 125.783 170.405C125.109 169.689 124.182 169.078 123.003 168.573C121.866 168.025 120.033 167.288 117.506 166.361C114.684 165.393 112.283 164.403 110.303 163.392C108.366 162.381 106.723 161.012 105.375 159.285C104.069 157.516 103.416 155.347 103.416 152.777C103.416 150.25 104.069 148.039 105.375 146.143C106.681 144.248 108.492 142.794 110.809 141.784C113.125 140.773 115.8 140.267 118.833 140.267C122.034 140.267 124.877 140.836 127.362 141.973C129.89 143.11 131.848 144.711 133.238 146.775C134.67 148.797 135.387 151.156 135.387 153.851V154.799C135.387 155.01 135.302 155.199 135.134 155.368C135.007 155.494 134.839 155.557 134.628 155.557H127.362C127.152 155.557 126.962 155.494 126.794 155.368C126.667 155.199 126.604 155.01 126.604 154.799V154.294C126.604 152.524 125.867 151.029 124.393 149.808C122.961 148.544 120.981 147.912 118.454 147.912C116.474 147.912 114.916 148.333 113.778 149.176C112.683 150.018 112.136 151.177 112.136 152.651C112.136 153.704 112.451 154.588 113.083 155.304C113.757 156.021 114.726 156.673 115.99 157.263C117.295 157.811 119.296 158.569 121.992 159.538C124.983 160.633 127.32 161.602 129.005 162.444C130.732 163.286 132.27 164.55 133.617 166.235C135.007 167.878 135.702 170.026 135.702 172.68C135.702 176.639 134.249 179.777 131.343 182.094C128.437 184.368 124.498 185.505 119.528 185.505ZM144.91 148.86C143.478 148.86 142.277 148.397 141.308 147.47C140.382 146.501 139.918 145.301 139.918 143.869C139.918 142.394 140.382 141.194 141.308 140.267C142.235 139.341 143.435 138.877 144.91 138.877C146.384 138.877 147.584 139.341 148.511 140.267C149.438 141.194 149.901 142.394 149.901 143.869C149.901 145.301 149.417 146.501 148.448 147.47C147.521 148.397 146.342 148.86 144.91 148.86ZM141.119 185C140.908 185 140.719 184.937 140.55 184.81C140.424 184.642 140.361 184.452 140.361 184.242V153.219C140.361 153.009 140.424 152.84 140.55 152.714C140.719 152.546 140.908 152.461 141.119 152.461H148.511C148.722 152.461 148.89 152.546 149.017 152.714C149.185 152.84 149.269 153.009 149.269 153.219V184.242C149.269 184.452 149.185 184.642 149.017 184.81C148.89 184.937 148.722 185 148.511 185H141.119ZM190.962 152.019C194.247 152.019 196.817 153.009 198.67 154.989C200.523 156.968 201.45 159.748 201.45 163.329V184.242C201.45 184.452 201.366 184.642 201.197 184.81C201.071 184.937 200.903 185 200.692 185H193.3C193.089 185 192.899 184.937 192.731 184.81C192.605 184.642 192.541 184.452 192.541 184.242V165.287C192.541 163.56 192.099 162.191 191.215 161.18C190.33 160.17 189.151 159.664 187.676 159.664C186.202 159.664 185.002 160.17 184.075 161.18C183.148 162.191 182.685 163.539 182.685 165.224V184.242C182.685 184.452 182.601 184.642 182.432 184.81C182.306 184.937 182.138 185 181.927 185H174.598C174.387 185 174.198 184.937 174.029 184.81C173.903 184.642 173.84 184.452 173.84 184.242V165.287C173.84 163.602 173.376 162.255 172.45 161.244C171.523 160.191 170.322 159.664 168.848 159.664C167.5 159.664 166.363 160.064 165.436 160.865C164.552 161.665 164.025 162.781 163.857 164.213V184.242C163.857 184.452 163.773 184.642 163.604 184.81C163.478 184.937 163.309 185 163.099 185H155.706C155.496 185 155.306 184.937 155.138 184.81C155.011 184.642 154.948 184.452 154.948 184.242V153.283C154.948 153.072 155.011 152.904 155.138 152.777C155.306 152.609 155.496 152.524 155.706 152.524H163.099C163.309 152.524 163.478 152.609 163.604 152.777C163.773 152.904 163.857 153.072 163.857 153.283V155.747C163.857 155.873 163.899 155.957 163.983 155.999C164.067 156.042 164.152 155.999 164.236 155.873C165.963 153.304 168.638 152.019 172.26 152.019C174.366 152.019 176.198 152.461 177.757 153.346C179.358 154.23 180.579 155.494 181.421 157.137C181.548 157.39 181.695 157.39 181.864 157.137C182.79 155.41 184.033 154.125 185.591 153.283C187.192 152.44 188.982 152.019 190.962 152.019ZM235.44 161.244C236.198 163.392 236.577 165.919 236.577 168.825C236.577 171.732 236.177 174.364 235.376 176.723C234.408 179.419 232.87 181.567 230.764 183.168C228.7 184.726 226.131 185.505 223.056 185.505C220.023 185.505 217.664 184.452 215.979 182.346C215.895 182.22 215.811 182.178 215.727 182.22C215.643 182.262 215.6 182.346 215.6 182.473V195.994C215.6 196.204 215.516 196.373 215.348 196.499C215.221 196.668 215.053 196.752 214.842 196.752H207.45C207.239 196.752 207.05 196.668 206.881 196.499C206.755 196.373 206.692 196.204 206.692 195.994V153.283C206.692 153.072 206.755 152.904 206.881 152.777C207.05 152.609 207.239 152.524 207.45 152.524H214.842C215.053 152.524 215.221 152.609 215.348 152.777C215.516 152.904 215.6 153.072 215.6 153.283V155.368C215.6 155.494 215.643 155.578 215.727 155.62C215.811 155.62 215.895 155.578 215.979 155.494C217.749 153.177 220.192 152.019 223.309 152.019C226.215 152.019 228.721 152.84 230.827 154.483C232.975 156.084 234.513 158.337 235.44 161.244ZM225.773 175.396C226.826 173.754 227.352 171.521 227.352 168.699C227.352 166.045 226.91 163.939 226.025 162.381C225.057 160.57 223.498 159.664 221.35 159.664C219.412 159.664 217.959 160.57 216.99 162.381C216.106 163.897 215.664 166.024 215.664 168.762C215.664 171.584 216.127 173.775 217.054 175.333C218.022 177.018 219.454 177.86 221.35 177.86C223.245 177.86 224.72 177.039 225.773 175.396ZM241.844 185C241.633 185 241.443 184.937 241.275 184.81C241.149 184.642 241.085 184.452 241.085 184.242V141.531C241.085 141.32 241.149 141.152 241.275 141.025C241.443 140.857 241.633 140.773 241.844 140.773H249.236C249.446 140.773 249.615 140.857 249.741 141.025C249.91 141.152 249.994 141.32 249.994 141.531V184.242C249.994 184.452 249.91 184.642 249.741 184.81C249.615 184.937 249.446 185 249.236 185H241.844ZM283.995 165.414C284.248 167.014 284.332 168.804 284.248 170.784C284.205 171.29 283.932 171.542 283.426 171.542H263.903C263.65 171.542 263.566 171.648 263.65 171.858C263.777 172.701 264.008 173.543 264.345 174.385C265.44 176.744 267.673 177.924 271.043 177.924C273.738 177.882 275.865 176.786 277.424 174.638C277.592 174.385 277.782 174.259 277.993 174.259C278.119 174.259 278.266 174.343 278.435 174.512L282.984 178.998C283.195 179.208 283.3 179.398 283.3 179.566C283.3 179.651 283.216 179.819 283.047 180.072C281.657 181.799 279.867 183.147 277.677 184.115C275.486 185.042 273.085 185.505 270.474 185.505C266.851 185.505 263.777 184.684 261.249 183.041C258.764 181.399 256.974 179.103 255.879 176.155C254.994 174.048 254.552 171.29 254.552 167.878C254.552 165.561 254.868 163.518 255.5 161.749C256.469 158.758 258.153 156.379 260.554 154.609C262.997 152.84 265.883 151.956 269.21 151.956C273.422 151.956 276.792 153.177 279.319 155.62C281.889 158.063 283.447 161.328 283.995 165.414ZM269.273 159.664C266.62 159.664 264.872 160.907 264.029 163.392C263.861 163.939 263.713 164.613 263.587 165.414C263.587 165.624 263.692 165.73 263.903 165.73H274.833C275.086 165.73 275.17 165.624 275.086 165.414C274.876 164.192 274.77 163.602 274.77 163.645C274.391 162.381 273.717 161.412 272.748 160.738C271.822 160.022 270.663 159.664 269.273 159.664ZM304.649 152.082C306.165 152.082 307.366 152.377 308.25 152.967C308.587 153.135 308.714 153.451 308.629 153.914L307.303 161.117C307.26 161.623 306.966 161.77 306.418 161.56C305.786 161.349 305.049 161.244 304.207 161.244C303.87 161.244 303.406 161.286 302.817 161.37C301.3 161.496 300.016 162.065 298.963 163.076C297.909 164.045 297.383 165.35 297.383 166.993V184.242C297.383 184.452 297.299 184.642 297.13 184.81C297.004 184.937 296.835 185 296.625 185H289.233C289.022 185 288.832 184.937 288.664 184.81C288.537 184.642 288.474 184.452 288.474 184.242V153.283C288.474 153.072 288.537 152.904 288.664 152.777C288.832 152.609 289.022 152.524 289.233 152.524H296.625C296.835 152.524 297.004 152.609 297.13 152.777C297.299 152.904 297.383 153.072 297.383 153.283V155.684C297.383 155.81 297.425 155.894 297.509 155.936C297.594 155.978 297.657 155.957 297.699 155.873C299.426 153.346 301.743 152.082 304.649 152.082ZM70.1137 206.709C72.8937 206.709 75.3367 207.278 77.4428 208.415C79.5488 209.553 81.1705 211.174 82.3078 213.28C83.4872 215.344 84.0769 217.724 84.0769 220.42C84.0769 223.074 83.4661 225.411 82.2446 227.433C81.0652 229.455 79.3804 231.035 77.19 232.172C75.0419 233.267 72.5567 233.815 69.7346 233.815H60.7627C60.5521 233.815 60.4468 233.92 60.4468 234.13V250.242C60.4468 250.452 60.3626 250.642 60.1941 250.81C60.0677 250.937 59.8993 251 59.6887 251H52.2964C52.0858 251 51.8962 250.937 51.7277 250.81C51.6014 250.642 51.5382 250.452 51.5382 250.242V207.468C51.5382 207.257 51.6014 207.089 51.7277 206.962C51.8962 206.794 52.0858 206.709 52.2964 206.709H70.1137ZM68.7869 226.675C70.7244 226.675 72.2829 226.127 73.4623 225.032C74.6417 223.895 75.2314 222.421 75.2314 220.609C75.2314 218.756 74.6417 217.261 73.4623 216.124C72.2829 214.986 70.7244 214.418 68.7869 214.418H60.7627C60.5521 214.418 60.4468 214.523 60.4468 214.734V226.359C60.4468 226.57 60.5521 226.675 60.7627 226.675H68.7869ZM103.896 218.082C105.412 218.082 106.613 218.377 107.497 218.967C107.834 219.135 107.96 219.451 107.876 219.914L106.549 227.117C106.507 227.623 106.212 227.77 105.665 227.56C105.033 227.349 104.296 227.244 103.453 227.244C103.117 227.244 102.653 227.286 102.063 227.37C100.547 227.496 99.2624 228.065 98.2094 229.076C97.1564 230.045 96.6298 231.35 96.6298 232.993V250.242C96.6298 250.452 96.5456 250.642 96.3771 250.81C96.2507 250.937 96.0823 251 95.8717 251H88.4794C88.2688 251 88.0792 250.937 87.9107 250.81C87.7844 250.642 87.7212 250.452 87.7212 250.242V219.283C87.7212 219.072 87.7844 218.904 87.9107 218.777C88.0792 218.609 88.2688 218.524 88.4794 218.524H95.8717C96.0823 218.524 96.2507 218.609 96.3771 218.777C96.5456 218.904 96.6298 219.072 96.6298 219.283V221.684C96.6298 221.81 96.672 221.894 96.7562 221.936C96.8404 221.978 96.9036 221.957 96.9457 221.873C98.6727 219.346 100.989 218.082 103.896 218.082ZM115.446 214.86C114.014 214.86 112.814 214.397 111.845 213.47C110.918 212.501 110.455 211.301 110.455 209.869C110.455 208.394 110.918 207.194 111.845 206.267C112.771 205.341 113.972 204.877 115.446 204.877C116.92 204.877 118.121 205.341 119.048 206.267C119.974 207.194 120.438 208.394 120.438 209.869C120.438 211.301 119.953 212.501 118.984 213.47C118.058 214.397 116.878 214.86 115.446 214.86ZM111.655 251C111.445 251 111.255 250.937 111.087 250.81C110.96 250.642 110.897 250.452 110.897 250.242V219.219C110.897 219.009 110.96 218.84 111.087 218.714C111.255 218.546 111.445 218.461 111.655 218.461H119.048C119.258 218.461 119.427 218.546 119.553 218.714C119.722 218.84 119.806 219.009 119.806 219.219V250.242C119.806 250.452 119.722 250.642 119.553 250.81C119.427 250.937 119.258 251 119.048 251H111.655ZM139.764 251.505C136.394 251.505 133.467 250.663 130.982 248.978C128.539 247.293 126.79 244.977 125.737 242.028C125.021 239.922 124.663 237.437 124.663 234.573C124.663 231.751 125.021 229.308 125.737 227.244C126.748 224.379 128.496 222.126 130.982 220.483C133.467 218.84 136.394 218.019 139.764 218.019C143.134 218.019 146.082 218.861 148.609 220.546C151.179 222.231 152.885 224.358 153.727 226.928C154.064 227.939 154.232 228.697 154.232 229.202V229.329C154.232 229.708 154.022 229.939 153.601 230.024L146.335 231.098H146.208C145.829 231.098 145.577 230.887 145.45 230.466L145.261 229.455C144.966 228.36 144.313 227.454 143.302 226.738C142.291 226.022 141.091 225.664 139.701 225.664C138.353 225.664 137.215 226.001 136.289 226.675C135.362 227.349 134.709 228.276 134.33 229.455C133.867 230.719 133.635 232.446 133.635 234.636C133.635 236.826 133.846 238.553 134.267 239.817C134.646 241.08 135.299 242.07 136.226 242.786C137.194 243.502 138.353 243.86 139.701 243.86C141.006 243.86 142.144 243.523 143.112 242.85C144.123 242.133 144.818 241.165 145.197 239.943C145.24 239.859 145.261 239.733 145.261 239.564C145.303 239.522 145.324 239.459 145.324 239.375C145.366 238.869 145.661 238.658 146.208 238.743L153.474 239.88C153.896 239.964 154.106 240.196 154.106 240.575C154.106 240.912 153.98 241.544 153.727 242.47C152.842 245.293 151.116 247.504 148.546 249.105C146.019 250.705 143.091 251.505 139.764 251.505ZM162.959 214.86C161.526 214.86 160.326 214.397 159.357 213.47C158.43 212.501 157.967 211.301 157.967 209.869C157.967 208.394 158.43 207.194 159.357 206.267C160.284 205.341 161.484 204.877 162.959 204.877C164.433 204.877 165.633 205.341 166.56 206.267C167.487 207.194 167.95 208.394 167.95 209.869C167.95 211.301 167.465 212.501 166.497 213.47C165.57 214.397 164.391 214.86 162.959 214.86ZM159.168 251C158.957 251 158.767 250.937 158.599 250.81C158.473 250.642 158.409 250.452 158.409 250.242V219.219C158.409 219.009 158.473 218.84 158.599 218.714C158.767 218.546 158.957 218.461 159.168 218.461H166.56C166.77 218.461 166.939 218.546 167.065 218.714C167.234 218.84 167.318 219.009 167.318 219.219V250.242C167.318 250.452 167.234 250.642 167.065 250.81C166.939 250.937 166.77 251 166.56 251H159.168ZM189.93 218.019C193.299 218.019 196.016 219.051 198.08 221.115C200.144 223.179 201.176 225.98 201.176 229.518V250.242C201.176 250.452 201.092 250.642 200.923 250.81C200.797 250.937 200.629 251 200.418 251H193.026C192.815 251 192.626 250.937 192.457 250.81C192.331 250.642 192.268 250.452 192.268 250.242V231.35C192.268 229.666 191.783 228.297 190.814 227.244C189.888 226.191 188.645 225.664 187.087 225.664C185.528 225.664 184.264 226.191 183.296 227.244C182.369 228.297 181.906 229.666 181.906 231.35V250.242C181.906 250.452 181.821 250.642 181.653 250.81C181.527 250.937 181.358 251 181.147 251H173.755C173.545 251 173.355 250.937 173.187 250.81C173.06 250.642 172.997 250.452 172.997 250.242V219.283C172.997 219.072 173.06 218.904 173.187 218.777C173.355 218.609 173.545 218.524 173.755 218.524H181.147C181.358 218.524 181.527 218.609 181.653 218.777C181.821 218.904 181.906 219.072 181.906 219.283V221.494C181.906 221.62 181.948 221.705 182.032 221.747C182.116 221.789 182.179 221.768 182.222 221.684C183.949 219.241 186.518 218.019 189.93 218.019ZM226.125 219.283C226.125 219.072 226.188 218.904 226.315 218.777C226.483 218.609 226.673 218.524 226.883 218.524H234.276C234.486 218.524 234.655 218.609 234.781 218.777C234.95 218.904 235.034 219.072 235.034 219.283V248.094C235.034 253.612 233.433 257.55 230.232 259.909C227.073 262.267 222.987 263.447 217.975 263.447C216.5 263.447 214.858 263.342 213.046 263.131C212.625 263.089 212.415 262.815 212.415 262.31L212.667 255.802C212.667 255.254 212.962 255.023 213.552 255.107C215.068 255.36 216.458 255.486 217.722 255.486C220.418 255.486 222.482 254.896 223.914 253.717C225.388 252.537 226.125 250.642 226.125 248.03C226.125 247.904 226.083 247.841 225.999 247.841C225.915 247.799 225.83 247.82 225.746 247.904C224.145 249.631 221.808 250.495 218.733 250.495C215.995 250.495 213.468 249.842 211.151 248.536C208.876 247.188 207.255 245.04 206.286 242.091C205.654 240.154 205.338 237.648 205.338 234.573C205.338 231.287 205.717 228.613 206.476 226.549C207.36 223.979 208.855 221.915 210.961 220.357C213.068 218.798 215.511 218.019 218.291 218.019C221.534 218.019 224.019 218.988 225.746 220.925C225.83 221.01 225.915 221.052 225.999 221.052C226.083 221.01 226.125 220.925 226.125 220.799V219.283ZM225.62 239.69C225.957 238.427 226.125 236.7 226.125 234.51C226.125 233.204 226.083 232.193 225.999 231.477C225.915 230.761 225.767 230.087 225.556 229.455C225.177 228.318 224.546 227.412 223.661 226.738C222.776 226.022 221.681 225.664 220.376 225.664C219.112 225.664 218.038 226.022 217.153 226.738C216.269 227.412 215.616 228.318 215.195 229.455C214.605 230.719 214.31 232.425 214.31 234.573C214.31 236.931 214.563 238.616 215.068 239.627C215.447 240.765 216.1 241.691 217.027 242.407C217.996 243.081 219.133 243.418 220.439 243.418C221.787 243.418 222.903 243.081 223.787 242.407C224.672 241.691 225.283 240.786 225.62 239.69ZM280.516 207.278C280.726 206.941 281.021 206.773 281.4 206.773H288.793C289.003 206.773 289.172 206.857 289.298 207.025C289.467 207.152 289.551 207.32 289.551 207.531V250.242C289.551 250.452 289.467 250.642 289.298 250.81C289.172 250.937 289.003 251 288.793 251H281.4C281.19 251 281 250.937 280.832 250.81C280.705 250.642 280.642 250.452 280.642 250.242V222.379C280.642 222.21 280.6 222.126 280.516 222.126C280.432 222.126 280.347 222.189 280.263 222.315L273.566 232.804C273.355 233.141 273.06 233.309 272.681 233.309H268.954C268.574 233.309 268.28 233.141 268.069 232.804L261.372 222.315C261.288 222.189 261.203 222.147 261.119 222.189C261.035 222.189 260.993 222.273 260.993 222.442V250.242C260.993 250.452 260.908 250.642 260.74 250.81C260.614 250.937 260.445 251 260.234 251H252.842C252.632 251 252.442 250.937 252.274 250.81C252.147 250.642 252.084 250.452 252.084 250.242V207.531C252.084 207.32 252.147 207.152 252.274 207.025C252.442 206.857 252.632 206.773 252.842 206.773H260.234C260.614 206.773 260.908 206.941 261.119 207.278L270.596 221.999C270.723 222.252 270.849 222.252 270.975 221.999L280.516 207.278ZM309.759 251.505C306.221 251.505 303.188 250.579 300.661 248.725C298.134 246.872 296.407 244.345 295.48 241.144C294.89 239.164 294.596 237.016 294.596 234.699C294.596 232.214 294.89 229.981 295.48 228.002C296.449 224.885 298.197 222.442 300.724 220.673C303.251 218.904 306.284 218.019 309.822 218.019C313.276 218.019 316.225 218.904 318.668 220.673C321.111 222.4 322.838 224.822 323.849 227.939C324.523 230.045 324.86 232.256 324.86 234.573C324.86 236.847 324.565 238.974 323.975 240.954C323.048 244.24 321.322 246.83 318.794 248.725C316.309 250.579 313.297 251.505 309.759 251.505ZM309.759 243.86C311.149 243.86 312.329 243.439 313.297 242.597C314.266 241.754 314.961 240.596 315.382 239.122C315.719 237.774 315.888 236.3 315.888 234.699C315.888 232.93 315.719 231.435 315.382 230.213C314.919 228.781 314.203 227.665 313.234 226.865C312.265 226.064 311.086 225.664 309.696 225.664C308.264 225.664 307.063 226.064 306.095 226.865C305.168 227.665 304.494 228.781 304.073 230.213C303.736 231.224 303.567 232.719 303.567 234.699C303.567 236.595 303.715 238.069 304.01 239.122C304.431 240.596 305.126 241.754 306.095 242.597C307.106 243.439 308.327 243.86 309.759 243.86ZM349.478 207.531C349.478 207.32 349.541 207.152 349.667 207.025C349.836 206.857 350.026 206.773 350.236 206.773H357.628C357.839 206.773 358.007 206.857 358.134 207.025C358.302 207.152 358.387 207.32 358.387 207.531V250.242C358.387 250.452 358.302 250.642 358.134 250.81C358.007 250.937 357.839 251 357.628 251H350.236C350.026 251 349.836 250.937 349.667 250.81C349.541 250.642 349.478 250.452 349.478 250.242V248.157C349.478 248.03 349.436 247.967 349.352 247.967C349.267 247.925 349.183 247.946 349.099 248.03C347.33 250.347 344.908 251.505 341.833 251.505C338.884 251.505 336.336 250.684 334.188 249.041C332.082 247.399 330.565 245.145 329.639 242.281C328.923 240.091 328.565 237.542 328.565 234.636C328.565 231.645 328.944 229.034 329.702 226.801C330.671 224.106 332.187 221.978 334.251 220.42C336.357 218.819 338.948 218.019 342.022 218.019C345.055 218.019 347.414 219.072 349.099 221.178C349.183 221.304 349.267 221.347 349.352 221.304C349.436 221.262 349.478 221.178 349.478 221.052V207.531ZM348.151 241.144C348.994 239.585 349.415 237.458 349.415 234.762C349.415 231.94 348.951 229.729 348.025 228.128C347.056 226.485 345.645 225.664 343.792 225.664C341.812 225.664 340.317 226.485 339.306 228.128C338.253 229.771 337.726 232.003 337.726 234.825C337.726 237.353 338.168 239.459 339.053 241.144C340.106 242.955 341.664 243.86 343.728 243.86C345.624 243.86 347.098 242.955 348.151 241.144ZM392.594 231.414C392.846 233.014 392.931 234.804 392.846 236.784C392.804 237.29 392.531 237.542 392.025 237.542H372.502C372.249 237.542 372.165 237.648 372.249 237.858C372.375 238.701 372.607 239.543 372.944 240.385C374.039 242.744 376.272 243.924 379.641 243.924C382.337 243.882 384.464 242.786 386.023 240.638C386.191 240.385 386.381 240.259 386.591 240.259C386.718 240.259 386.865 240.343 387.034 240.512L391.583 244.998C391.793 245.208 391.899 245.398 391.899 245.566C391.899 245.651 391.814 245.819 391.646 246.072C390.256 247.799 388.466 249.147 386.275 250.115C384.085 251.042 381.684 251.505 379.073 251.505C375.45 251.505 372.375 250.684 369.848 249.041C367.363 247.399 365.573 245.103 364.478 242.155C363.593 240.048 363.151 237.29 363.151 233.878C363.151 231.561 363.467 229.518 364.099 227.749C365.067 224.758 366.752 222.379 369.153 220.609C371.596 218.84 374.482 217.956 377.809 217.956C382.021 217.956 385.391 219.177 387.918 221.62C390.488 224.063 392.046 227.328 392.594 231.414ZM377.872 225.664C375.219 225.664 373.471 226.907 372.628 229.392C372.46 229.939 372.312 230.613 372.186 231.414C372.186 231.624 372.291 231.73 372.502 231.73H383.432C383.685 231.73 383.769 231.624 383.685 231.414C383.474 230.192 383.369 229.602 383.369 229.645C382.99 228.381 382.316 227.412 381.347 226.738C380.421 226.022 379.262 225.664 377.872 225.664ZM397.831 251C397.621 251 397.431 250.937 397.263 250.81C397.136 250.642 397.073 250.452 397.073 250.242V207.531C397.073 207.32 397.136 207.152 397.263 207.025C397.431 206.857 397.621 206.773 397.831 206.773H405.224C405.434 206.773 405.603 206.857 405.729 207.025C405.898 207.152 405.982 207.32 405.982 207.531V250.242C405.982 250.452 405.898 250.642 405.729 250.81C405.603 250.937 405.434 251 405.224 251H397.831ZM69.7978 284.461C70.0084 284.461 70.1769 284.546 70.3032 284.714C70.4717 284.84 70.5559 285.009 70.5559 285.219V291.222C70.5559 291.432 70.4717 291.622 70.3032 291.79C70.1769 291.917 70.0084 291.98 69.7978 291.98H63.6691C63.4585 291.98 63.3532 292.085 63.3532 292.296V316.242C63.3532 316.452 63.269 316.642 63.1005 316.81C62.9741 316.937 62.8056 317 62.595 317H55.2027C54.9921 317 54.8026 316.937 54.6341 316.81C54.5077 316.642 54.4446 316.452 54.4446 316.242V292.296C54.4446 292.085 54.3393 291.98 54.1286 291.98H50.4009C50.1903 291.98 50.0008 291.917 49.8323 291.79C49.7059 291.622 49.6427 291.432 49.6427 291.222V285.219C49.6427 285.009 49.7059 284.84 49.8323 284.714C50.0008 284.546 50.1903 284.461 50.4009 284.461H54.1286C54.3393 284.461 54.4446 284.356 54.4446 284.145V282.755C54.4446 280.144 54.8447 278.122 55.645 276.69C56.4453 275.216 57.73 274.184 59.4991 273.594C61.3103 272.962 63.7955 272.688 66.9546 272.773H69.3555C69.5661 272.773 69.7346 272.857 69.8609 273.025C70.0294 273.152 70.1137 273.32 70.1137 273.531V278.649C70.1137 278.859 70.0294 279.049 69.8609 279.217C69.7346 279.344 69.5661 279.407 69.3555 279.407H67.2705C65.7962 279.449 64.7643 279.765 64.1746 280.354C63.627 280.902 63.3532 281.934 63.3532 283.45V284.145C63.3532 284.356 63.4585 284.461 63.6691 284.461H69.7978ZM86.8233 317.505C83.2851 317.505 80.2524 316.579 77.7251 314.725C75.1978 312.872 73.4709 310.345 72.5442 307.144C71.9545 305.164 71.6597 303.016 71.6597 300.699C71.6597 298.214 71.9545 295.981 72.5442 294.002C73.513 290.885 75.261 288.442 77.7883 286.673C80.3156 284.904 83.3483 284.019 86.8865 284.019C90.3404 284.019 93.2889 284.904 95.732 286.673C98.175 288.4 99.902 290.822 100.913 293.939C101.587 296.045 101.924 298.256 101.924 300.573C101.924 302.847 101.629 304.974 101.039 306.954C100.113 310.24 98.3856 312.83 95.8583 314.725C93.3732 316.579 90.3615 317.505 86.8233 317.505ZM86.8233 309.86C88.2133 309.86 89.3927 309.439 90.3615 308.597C91.3303 307.754 92.0253 306.596 92.4465 305.122C92.7835 303.774 92.952 302.3 92.952 300.699C92.952 298.93 92.7835 297.435 92.4465 296.213C91.9832 294.781 91.2671 293.665 90.2983 292.865C89.3295 292.064 88.1501 291.664 86.7601 291.664C85.328 291.664 84.1276 292.064 83.1588 292.865C82.2321 293.665 81.5582 294.781 81.1369 296.213C80.8 297.224 80.6315 298.719 80.6315 300.699C80.6315 302.595 80.7789 304.069 81.0738 305.122C81.495 306.596 82.19 307.754 83.1588 308.597C84.1697 309.439 85.3912 309.86 86.8233 309.86ZM122.562 284.082C124.078 284.082 125.278 284.377 126.163 284.967C126.5 285.135 126.626 285.451 126.542 285.914L125.215 293.117C125.173 293.623 124.878 293.77 124.331 293.56C123.699 293.349 122.962 293.244 122.119 293.244C121.782 293.244 121.319 293.286 120.729 293.37C119.213 293.496 117.928 294.065 116.875 295.076C115.822 296.045 115.296 297.35 115.296 298.993V316.242C115.296 316.452 115.211 316.642 115.043 316.81C114.917 316.937 114.748 317 114.537 317H107.145C106.935 317 106.745 316.937 106.577 316.81C106.45 316.642 106.387 316.452 106.387 316.242V285.283C106.387 285.072 106.45 284.904 106.577 284.777C106.745 284.609 106.935 284.524 107.145 284.524H114.537C114.748 284.524 114.917 284.609 115.043 284.777C115.211 284.904 115.296 285.072 115.296 285.283V287.684C115.296 287.81 115.338 287.894 115.422 287.936C115.506 287.978 115.569 287.957 115.612 287.873C117.339 285.346 119.655 284.082 122.562 284.082ZM169.696 273.278C169.906 272.941 170.201 272.773 170.58 272.773H177.973C178.183 272.773 178.352 272.857 178.478 273.025C178.647 273.152 178.731 273.32 178.731 273.531V316.242C178.731 316.452 178.647 316.642 178.478 316.81C178.352 316.937 178.183 317 177.973 317H170.58C170.37 317 170.18 316.937 170.012 316.81C169.885 316.642 169.822 316.452 169.822 316.242V288.379C169.822 288.21 169.78 288.126 169.696 288.126C169.612 288.126 169.527 288.189 169.443 288.315L162.746 298.804C162.535 299.141 162.24 299.309 161.861 299.309H158.133C157.754 299.309 157.46 299.141 157.249 298.804L150.552 288.315C150.467 288.189 150.383 288.147 150.299 288.189C150.215 288.189 150.173 288.273 150.173 288.442V316.242C150.173 316.452 150.088 316.642 149.92 316.81C149.793 316.937 149.625 317 149.414 317H142.022C141.811 317 141.622 316.937 141.453 316.81C141.327 316.642 141.264 316.452 141.264 316.242V273.531C141.264 273.32 141.327 273.152 141.453 273.025C141.622 272.857 141.811 272.773 142.022 272.773H149.414C149.793 272.773 150.088 272.941 150.299 273.278L159.776 287.999C159.903 288.252 160.029 288.252 160.155 287.999L169.696 273.278ZM198.939 317.505C195.401 317.505 192.368 316.579 189.841 314.725C187.314 312.872 185.587 310.345 184.66 307.144C184.07 305.164 183.775 303.016 183.775 300.699C183.775 298.214 184.07 295.981 184.66 294.002C185.629 290.885 187.377 288.442 189.904 286.673C192.431 284.904 195.464 284.019 199.002 284.019C202.456 284.019 205.405 284.904 207.848 286.673C210.291 288.4 212.018 290.822 213.029 293.939C213.703 296.045 214.04 298.256 214.04 300.573C214.04 302.847 213.745 304.974 213.155 306.954C212.228 310.24 210.501 312.83 207.974 314.725C205.489 316.579 202.477 317.505 198.939 317.505ZM198.939 309.86C200.329 309.86 201.509 309.439 202.477 308.597C203.446 307.754 204.141 306.596 204.562 305.122C204.899 303.774 205.068 302.3 205.068 300.699C205.068 298.93 204.899 297.435 204.562 296.213C204.099 294.781 203.383 293.665 202.414 292.865C201.445 292.064 200.266 291.664 198.876 291.664C197.444 291.664 196.243 292.064 195.275 292.865C194.348 293.665 193.674 294.781 193.253 296.213C192.916 297.224 192.747 298.719 192.747 300.699C192.747 302.595 192.895 304.069 193.19 305.122C193.611 306.596 194.306 307.754 195.275 308.597C196.285 309.439 197.507 309.86 198.939 309.86ZM238.658 273.531C238.658 273.32 238.721 273.152 238.847 273.025C239.016 272.857 239.205 272.773 239.416 272.773H246.808C247.019 272.773 247.187 272.857 247.314 273.025C247.482 273.152 247.566 273.32 247.566 273.531V316.242C247.566 316.452 247.482 316.642 247.314 316.81C247.187 316.937 247.019 317 246.808 317H239.416C239.205 317 239.016 316.937 238.847 316.81C238.721 316.642 238.658 316.452 238.658 316.242V314.157C238.658 314.03 238.616 313.967 238.531 313.967C238.447 313.925 238.363 313.946 238.279 314.03C236.51 316.347 234.088 317.505 231.013 317.505C228.064 317.505 225.516 316.684 223.368 315.041C221.262 313.399 219.745 311.145 218.819 308.281C218.103 306.091 217.745 303.542 217.745 300.636C217.745 297.645 218.124 295.034 218.882 292.801C219.851 290.106 221.367 287.978 223.431 286.42C225.537 284.819 228.128 284.019 231.202 284.019C234.235 284.019 236.594 285.072 238.279 287.178C238.363 287.304 238.447 287.347 238.531 287.304C238.616 287.262 238.658 287.178 238.658 287.052V273.531ZM237.331 307.144C238.173 305.585 238.595 303.458 238.595 300.762C238.595 297.94 238.131 295.729 237.205 294.128C236.236 292.485 234.825 291.664 232.971 291.664C230.992 291.664 229.496 292.485 228.486 294.128C227.433 295.771 226.906 298.003 226.906 300.825C226.906 303.353 227.348 305.459 228.233 307.144C229.286 308.955 230.844 309.86 232.908 309.86C234.804 309.86 236.278 308.955 237.331 307.144ZM281.774 297.414C282.026 299.014 282.111 300.804 282.026 302.784C281.984 303.29 281.71 303.542 281.205 303.542H261.682C261.429 303.542 261.345 303.648 261.429 303.858C261.555 304.701 261.787 305.543 262.124 306.385C263.219 308.744 265.452 309.924 268.821 309.924C271.517 309.882 273.644 308.786 275.203 306.638C275.371 306.385 275.561 306.259 275.771 306.259C275.898 306.259 276.045 306.343 276.214 306.512L280.763 310.998C280.973 311.208 281.079 311.398 281.079 311.566C281.079 311.651 280.994 311.819 280.826 312.072C279.436 313.799 277.646 315.147 275.455 316.115C273.265 317.042 270.864 317.505 268.253 317.505C264.63 317.505 261.555 316.684 259.028 315.041C256.543 313.399 254.753 311.103 253.658 308.155C252.773 306.048 252.331 303.29 252.331 299.878C252.331 297.561 252.647 295.518 253.279 293.749C254.247 290.758 255.932 288.379 258.333 286.609C260.776 284.84 263.661 283.956 266.989 283.956C271.201 283.956 274.571 285.177 277.098 287.62C279.668 290.063 281.226 293.328 281.774 297.414ZM267.052 291.664C264.399 291.664 262.651 292.907 261.808 295.392C261.64 295.939 261.492 296.613 261.366 297.414C261.366 297.624 261.471 297.73 261.682 297.73H272.612C272.865 297.73 272.949 297.624 272.865 297.414C272.654 296.192 272.549 295.602 272.549 295.645C272.17 294.381 271.496 293.412 270.527 292.738C269.601 292.022 268.442 291.664 267.052 291.664ZM302.428 284.082C303.944 284.082 305.144 284.377 306.029 284.967C306.366 285.135 306.492 285.451 306.408 285.914L305.081 293.117C305.039 293.623 304.744 293.77 304.197 293.56C303.565 293.349 302.828 293.244 301.985 293.244C301.648 293.244 301.185 293.286 300.595 293.37C299.079 293.496 297.794 294.065 296.741 295.076C295.688 296.045 295.162 297.35 295.162 298.993V316.242C295.162 316.452 295.077 316.642 294.909 316.81C294.783 316.937 294.614 317 294.404 317H287.011C286.801 317 286.611 316.937 286.443 316.81C286.316 316.642 286.253 316.452 286.253 316.242V285.283C286.253 285.072 286.316 284.904 286.443 284.777C286.611 284.609 286.801 284.524 287.011 284.524H294.404C294.614 284.524 294.783 284.609 294.909 284.777C295.077 284.904 295.162 285.072 295.162 285.283V287.684C295.162 287.81 295.204 287.894 295.288 287.936C295.372 287.978 295.436 287.957 295.478 287.873C297.205 285.346 299.521 284.082 302.428 284.082ZM326.109 284.019C329.479 284.019 332.196 285.051 334.259 287.115C336.323 289.179 337.355 291.98 337.355 295.518V316.242C337.355 316.452 337.271 316.642 337.103 316.81C336.976 316.937 336.808 317 336.597 317H329.205C328.994 317 328.805 316.937 328.636 316.81C328.51 316.642 328.447 316.452 328.447 316.242V297.35C328.447 295.666 327.962 294.297 326.994 293.244C326.067 292.191 324.824 291.664 323.266 291.664C321.707 291.664 320.444 292.191 319.475 293.244C318.548 294.297 318.085 295.666 318.085 297.35V316.242C318.085 316.452 318.001 316.642 317.832 316.81C317.706 316.937 317.537 317 317.327 317H309.934C309.724 317 309.534 316.937 309.366 316.81C309.239 316.642 309.176 316.452 309.176 316.242V285.283C309.176 285.072 309.239 284.904 309.366 284.777C309.534 284.609 309.724 284.524 309.934 284.524H317.327C317.537 284.524 317.706 284.609 317.832 284.777C318.001 284.904 318.085 285.072 318.085 285.283V287.494C318.085 287.62 318.127 287.705 318.211 287.747C318.296 287.789 318.359 287.768 318.401 287.684C320.128 285.241 322.697 284.019 326.109 284.019ZM52.6123 383C52.4017 383 52.2121 382.937 52.0436 382.81C51.9173 382.642 51.8541 382.452 51.8541 382.242V339.531C51.8541 339.32 51.9173 339.152 52.0436 339.025C52.2121 338.857 52.4017 338.773 52.6123 338.773H68.4078C71.5669 338.773 74.3258 339.341 76.6846 340.479C79.0855 341.574 80.9388 343.132 82.2446 345.154C83.5504 347.176 84.2032 349.514 84.2032 352.167V369.605C84.2032 372.259 83.5504 374.597 82.2446 376.619C80.9388 378.64 79.0855 380.22 76.6846 381.357C74.3258 382.452 71.5669 383 68.4078 383H52.6123ZM60.7627 375.039C60.7627 375.25 60.8681 375.355 61.0787 375.355H68.7237C70.6612 375.355 72.2197 374.702 73.3991 373.396C74.6206 372.091 75.2525 370.343 75.2946 368.152V353.62C75.2946 351.43 74.6838 349.682 73.4623 348.376C72.2829 347.071 70.6823 346.418 68.6605 346.418H61.0787C60.8681 346.418 60.7627 346.523 60.7627 346.734V375.039ZM101.846 350.019C104.584 350.019 107.027 350.503 109.175 351.472C111.323 352.399 112.987 353.684 114.166 355.326C115.388 356.969 115.999 358.801 115.999 360.823V382.242C115.999 382.452 115.914 382.642 115.746 382.81C115.619 382.937 115.451 383 115.24 383H107.848C107.637 383 107.448 382.937 107.279 382.81C107.153 382.642 107.09 382.452 107.09 382.242V380.157C107.09 380.03 107.048 379.946 106.964 379.904C106.879 379.862 106.795 379.904 106.711 380.03C104.942 382.347 102.099 383.505 98.1812 383.505C94.8958 383.505 92.2421 382.705 90.2203 381.105C88.1985 379.504 87.1876 377.145 87.1876 374.028C87.1876 370.785 88.3249 368.279 90.5994 366.51C92.874 364.698 96.1173 363.793 100.329 363.793H106.774C106.985 363.793 107.09 363.687 107.09 363.477V362.087C107.09 360.697 106.669 359.623 105.826 358.865C104.984 358.064 103.72 357.664 102.035 357.664C100.73 357.664 99.6344 357.896 98.7499 358.359C97.9075 358.822 97.3599 359.475 97.1072 360.318C96.9808 360.781 96.707 360.992 96.2858 360.95L88.6408 359.939C88.1353 359.854 87.9037 359.665 87.9458 359.37C88.1143 357.601 88.8093 356 90.0308 354.568C91.2944 353.136 92.9371 352.02 94.959 351.219C97.0229 350.419 99.3185 350.019 101.846 350.019ZM100.582 376.871C102.393 376.871 103.931 376.387 105.194 375.418C106.458 374.449 107.09 373.207 107.09 371.69V369.416C107.09 369.205 106.985 369.1 106.774 369.1H102.225C100.329 369.1 98.8341 369.458 97.739 370.174C96.6859 370.89 96.1594 371.901 96.1594 373.207C96.1594 374.344 96.5596 375.25 97.3599 375.924C98.1602 376.555 99.2343 376.871 100.582 376.871ZM138.97 356.906C138.97 357.116 138.886 357.306 138.717 357.475C138.591 357.601 138.423 357.664 138.212 357.664H132.146C131.936 357.664 131.831 357.769 131.831 357.98V371.375C131.831 372.765 132.104 373.797 132.652 374.47C133.242 375.144 134.168 375.481 135.432 375.481H137.517C137.728 375.481 137.896 375.566 138.022 375.734C138.191 375.86 138.275 376.029 138.275 376.24V382.242C138.275 382.705 138.022 382.979 137.517 383.063C135.748 383.147 134.484 383.19 133.726 383.19C130.23 383.19 127.618 382.621 125.891 381.484C124.164 380.304 123.28 378.114 123.238 374.913V357.98C123.238 357.769 123.133 357.664 122.922 357.664H119.321C119.11 357.664 118.92 357.601 118.752 357.475C118.626 357.306 118.562 357.116 118.562 356.906V351.283C118.562 351.072 118.626 350.904 118.752 350.777C118.92 350.609 119.11 350.524 119.321 350.524H122.922C123.133 350.524 123.238 350.419 123.238 350.209V342.69C123.238 342.479 123.301 342.311 123.427 342.184C123.596 342.016 123.785 341.932 123.996 341.932H131.072C131.283 341.932 131.451 342.016 131.578 342.184C131.746 342.311 131.831 342.479 131.831 342.69V350.209C131.831 350.419 131.936 350.524 132.146 350.524H138.212C138.423 350.524 138.591 350.609 138.717 350.777C138.886 350.904 138.97 351.072 138.97 351.283V356.906ZM156.022 350.019C158.76 350.019 161.203 350.503 163.351 351.472C165.499 352.399 167.163 353.684 168.342 355.326C169.564 356.969 170.175 358.801 170.175 360.823V382.242C170.175 382.452 170.09 382.642 169.922 382.81C169.795 382.937 169.627 383 169.416 383H162.024C161.814 383 161.624 382.937 161.455 382.81C161.329 382.642 161.266 382.452 161.266 382.242V380.157C161.266 380.03 161.224 379.946 161.14 379.904C161.055 379.862 160.971 379.904 160.887 380.03C159.118 382.347 156.275 383.505 152.357 383.505C149.072 383.505 146.418 382.705 144.396 381.105C142.375 379.504 141.364 377.145 141.364 374.028C141.364 370.785 142.501 368.279 144.775 366.51C147.05 364.698 150.293 363.793 154.505 363.793H160.95C161.161 363.793 161.266 363.687 161.266 363.477V362.087C161.266 360.697 160.845 359.623 160.002 358.865C159.16 358.064 157.896 357.664 156.211 357.664C154.906 357.664 153.81 357.896 152.926 358.359C152.083 358.822 151.536 359.475 151.283 360.318C151.157 360.781 150.883 360.992 150.462 360.95L142.817 359.939C142.311 359.854 142.08 359.665 142.122 359.37C142.29 357.601 142.985 356 144.207 354.568C145.47 353.136 147.113 352.02 149.135 351.219C151.199 350.419 153.495 350.019 156.022 350.019ZM154.758 376.871C156.569 376.871 158.107 376.387 159.37 375.418C160.634 374.449 161.266 373.207 161.266 371.69V369.416C161.266 369.205 161.161 369.1 160.95 369.1H156.401C154.505 369.1 153.01 369.458 151.915 370.174C150.862 370.89 150.335 371.901 150.335 373.207C150.335 374.344 150.736 375.25 151.536 375.924C152.336 376.555 153.41 376.871 154.758 376.871ZM203.934 358.801C204.734 360.992 205.134 363.603 205.134 366.636C205.134 369.542 204.776 372.091 204.06 374.281C203.092 377.145 201.533 379.399 199.385 381.041C197.279 382.684 194.773 383.505 191.866 383.505C188.791 383.505 186.369 382.347 184.6 380.03C184.516 379.946 184.432 379.925 184.348 379.967C184.263 379.967 184.221 380.03 184.221 380.157V382.242C184.221 382.452 184.137 382.642 183.968 382.81C183.842 382.937 183.674 383 183.463 383H176.071C175.86 383 175.671 382.937 175.502 382.81C175.376 382.642 175.313 382.452 175.313 382.242V339.531C175.313 339.32 175.376 339.152 175.502 339.025C175.671 338.857 175.86 338.773 176.071 338.773H183.463C183.674 338.773 183.842 338.857 183.968 339.025C184.137 339.152 184.221 339.32 184.221 339.531V353.052C184.221 353.178 184.263 353.262 184.348 353.304C184.432 353.347 184.516 353.304 184.6 353.178C186.243 351.072 188.581 350.019 191.613 350.019C194.688 350.019 197.258 350.819 199.322 352.42C201.428 353.978 202.965 356.106 203.934 358.801ZM194.583 373.144C195.468 371.543 195.91 369.437 195.91 366.825C195.91 363.919 195.404 361.687 194.393 360.128C193.383 358.485 191.887 357.664 189.908 357.664C188.054 357.664 186.643 358.485 185.674 360.128C184.748 361.729 184.284 363.94 184.284 366.762C184.284 369.584 184.706 371.711 185.548 373.144C186.559 374.955 188.033 375.86 189.971 375.86C192.035 375.86 193.572 374.955 194.583 373.144ZM222.661 350.019C225.399 350.019 227.842 350.503 229.991 351.472C232.139 352.399 233.803 353.684 234.982 355.326C236.203 356.969 236.814 358.801 236.814 360.823V382.242C236.814 382.452 236.73 382.642 236.561 382.81C236.435 382.937 236.267 383 236.056 383H228.664C228.453 383 228.264 382.937 228.095 382.81C227.969 382.642 227.906 382.452 227.906 382.242V380.157C227.906 380.03 227.863 379.946 227.779 379.904C227.695 379.862 227.611 379.904 227.526 380.03C225.757 382.347 222.914 383.505 218.997 383.505C215.711 383.505 213.058 382.705 211.036 381.105C209.014 379.504 208.003 377.145 208.003 374.028C208.003 370.785 209.141 368.279 211.415 366.51C213.69 364.698 216.933 363.793 221.145 363.793H227.59C227.8 363.793 227.906 363.687 227.906 363.477V362.087C227.906 360.697 227.484 359.623 226.642 358.865C225.8 358.064 224.536 357.664 222.851 357.664C221.545 357.664 220.45 357.896 219.566 358.359C218.723 358.822 218.176 359.475 217.923 360.318C217.796 360.781 217.523 360.992 217.101 360.95L209.456 359.939C208.951 359.854 208.719 359.665 208.761 359.37C208.93 357.601 209.625 356 210.846 354.568C212.11 353.136 213.753 352.02 215.775 351.219C217.839 350.419 220.134 350.019 222.661 350.019ZM221.398 376.871C223.209 376.871 224.746 376.387 226.01 375.418C227.274 374.449 227.906 373.207 227.906 371.69V369.416C227.906 369.205 227.8 369.1 227.59 369.1H223.041C221.145 369.1 219.65 369.458 218.555 370.174C217.502 370.89 216.975 371.901 216.975 373.207C216.975 374.344 217.375 375.25 218.176 375.924C218.976 376.555 220.05 376.871 221.398 376.871ZM254.778 383.442C251.956 383.442 249.492 383.042 247.386 382.242C245.28 381.442 243.637 380.325 242.458 378.893C241.32 377.461 240.752 375.839 240.752 374.028V373.396C240.752 373.186 240.815 373.017 240.941 372.891C241.11 372.722 241.299 372.638 241.51 372.638H248.523C248.734 372.638 248.902 372.722 249.029 372.891C249.197 373.017 249.281 373.186 249.281 373.396V373.46C249.281 374.386 249.787 375.187 250.798 375.86C251.851 376.492 253.156 376.808 254.715 376.808C256.147 376.808 257.305 376.534 258.19 375.987C259.074 375.397 259.517 374.681 259.517 373.839C259.517 373.08 259.138 372.512 258.379 372.133C257.621 371.754 256.379 371.353 254.652 370.932C252.672 370.427 251.114 369.942 249.976 369.479C247.281 368.552 245.132 367.415 243.532 366.067C241.931 364.719 241.131 362.782 241.131 360.255C241.131 357.138 242.331 354.673 244.732 352.862C247.175 351.009 250.398 350.082 254.399 350.082C257.095 350.082 259.454 350.524 261.475 351.409C263.497 352.251 265.056 353.452 266.151 355.01C267.288 356.569 267.857 358.338 267.857 360.318C267.857 360.528 267.773 360.718 267.604 360.886C267.478 361.013 267.309 361.076 267.099 361.076H260.338C260.128 361.076 259.938 361.013 259.769 360.886C259.643 360.718 259.58 360.528 259.58 360.318C259.58 359.391 259.096 358.612 258.127 357.98C257.2 357.348 255.958 357.032 254.399 357.032C253.009 357.032 251.872 357.285 250.987 357.79C250.103 358.296 249.66 358.991 249.66 359.875C249.66 360.718 250.082 361.35 250.924 361.771C251.809 362.192 253.262 362.634 255.284 363.098C255.747 363.224 256.273 363.371 256.863 363.54C257.453 363.666 258.085 363.835 258.759 364.045C261.749 364.93 264.108 366.067 265.835 367.457C267.562 368.847 268.425 370.869 268.425 373.523C268.425 376.64 267.183 379.083 264.698 380.852C262.255 382.579 258.948 383.442 254.778 383.442ZM301.024 363.414C301.277 365.014 301.361 366.804 301.277 368.784C301.235 369.29 300.961 369.542 300.456 369.542H280.932C280.68 369.542 280.596 369.648 280.68 369.858C280.806 370.701 281.038 371.543 281.375 372.385C282.47 374.744 284.702 375.924 288.072 375.924C290.768 375.882 292.895 374.786 294.453 372.638C294.622 372.385 294.811 372.259 295.022 372.259C295.148 372.259 295.296 372.343 295.464 372.512L300.013 376.998C300.224 377.208 300.329 377.398 300.329 377.566C300.329 377.651 300.245 377.819 300.077 378.072C298.687 379.799 296.896 381.147 294.706 382.115C292.516 383.042 290.115 383.505 287.503 383.505C283.881 383.505 280.806 382.684 278.279 381.041C275.794 379.399 274.004 377.103 272.908 374.155C272.024 372.048 271.582 369.29 271.582 365.878C271.582 363.561 271.897 361.518 272.529 359.749C273.498 356.758 275.183 354.379 277.584 352.609C280.027 350.84 282.912 349.956 286.24 349.956C290.452 349.956 293.822 351.177 296.349 353.62C298.918 356.063 300.477 359.328 301.024 363.414ZM286.303 357.664C283.649 357.664 281.901 358.907 281.059 361.392C280.89 361.939 280.743 362.613 280.617 363.414C280.617 363.624 280.722 363.73 280.932 363.73H291.863C292.116 363.73 292.2 363.624 292.116 363.414C291.905 362.192 291.8 361.602 291.8 361.645C291.421 360.381 290.747 359.412 289.778 358.738C288.851 358.022 287.693 357.664 286.303 357.664ZM318.024 383.442C315.202 383.442 312.738 383.042 310.632 382.242C308.526 381.442 306.883 380.325 305.704 378.893C304.566 377.461 303.998 375.839 303.998 374.028V373.396C303.998 373.186 304.061 373.017 304.187 372.891C304.356 372.722 304.545 372.638 304.756 372.638H311.769C311.98 372.638 312.148 372.722 312.275 372.891C312.443 373.017 312.527 373.186 312.527 373.396V373.46C312.527 374.386 313.033 375.187 314.044 375.86C315.097 376.492 316.403 376.808 317.961 376.808C319.393 376.808 320.551 376.534 321.436 375.987C322.321 375.397 322.763 374.681 322.763 373.839C322.763 373.08 322.384 372.512 321.626 372.133C320.867 371.754 319.625 371.353 317.898 370.932C315.918 370.427 314.36 369.942 313.222 369.479C310.527 368.552 308.378 367.415 306.778 366.067C305.177 364.719 304.377 362.782 304.377 360.255C304.377 357.138 305.577 354.673 307.978 352.862C310.421 351.009 313.644 350.082 317.645 350.082C320.341 350.082 322.7 350.524 324.721 351.409C326.743 352.251 328.302 353.452 329.397 355.01C330.534 356.569 331.103 358.338 331.103 360.318C331.103 360.528 331.019 360.718 330.85 360.886C330.724 361.013 330.555 361.076 330.345 361.076H323.584C323.374 361.076 323.184 361.013 323.016 360.886C322.889 360.718 322.826 360.528 322.826 360.318C322.826 359.391 322.342 358.612 321.373 357.98C320.446 357.348 319.204 357.032 317.645 357.032C316.255 357.032 315.118 357.285 314.233 357.79C313.349 358.296 312.906 358.991 312.906 359.875C312.906 360.718 313.328 361.35 314.17 361.771C315.055 362.192 316.508 362.634 318.53 363.098C318.993 363.224 319.52 363.371 320.109 363.54C320.699 363.666 321.331 363.835 322.005 364.045C324.995 364.93 327.354 366.067 329.081 367.457C330.808 368.847 331.672 370.869 331.672 373.523C331.672 376.64 330.429 379.083 327.944 380.852C325.501 382.579 322.194 383.442 318.024 383.442Z"></path>
</g>
<rect fill="#16A394" rx="22" height="44" width="295" y="70" x="48"></rect>
<path fill="white" d="M82 86.0625C82 86.6953 81.4727 87.293 80.6289 87.75C79.6094 88.3477 78.0977 88.7344 76.3398 88.8398C76.1992 88.8047 76.0586 88.7344 75.9531 88.6641C74.5469 88.1016 72.7188 87.75 70.75 87.75C70.4336 87.75 70.1523 87.7852 69.8711 87.7852L69.8359 87.75C68.9922 87.293 68.5 86.6953 68.5 86.0625C68.5 84.5156 71.5234 83.25 75.25 83.25C78.9766 83.25 82 84.5156 82 86.0625ZM69.625 88.9453C69.9766 88.9102 70.3633 88.875 70.75 88.875C72.9297 88.875 74.8633 89.332 76.0938 90C76.9727 90.457 77.5 91.0547 77.5 91.6875C77.5 91.8281 77.4648 91.9688 77.3945 92.1094C77.2539 92.5664 76.7969 92.9883 76.1641 93.375H76.1289C74.8984 94.0781 72.9297 94.5 70.75 94.5C68.6406 94.5 66.7773 94.1133 65.5117 93.4805C65.4414 93.4453 65.4062 93.4102 65.3359 93.375C64.4922 92.918 64 92.3203 64 91.6875C64 90.4922 65.8633 89.4375 68.5 89.0508C68.8516 89.0156 69.2383 88.9453 69.625 88.9453ZM78.625 91.6875C78.625 90.9492 78.2383 90.3164 77.7461 89.8242C78.7656 89.6836 79.6797 89.4375 80.4531 89.1211C81.0156 88.875 81.543 88.5586 82 88.207V89.4375C82 90.1406 81.4023 90.7734 80.4531 91.2305C79.9258 91.5117 79.293 91.7227 78.5898 91.8984C78.5898 91.8281 78.625 91.7578 78.625 91.7227V91.6875ZM77.5 95.0625C77.5 95.6953 76.9727 96.293 76.1289 96.75C76.0586 96.7852 76.0234 96.8203 75.9531 96.8555C74.6875 97.4883 72.8242 97.875 70.75 97.875C68.5352 97.875 66.5664 97.4531 65.3359 96.75C64.4922 96.293 64 95.6953 64 95.0625V93.832C64.4219 94.1836 64.9492 94.5 65.5117 94.7461C66.918 95.3086 68.7461 95.625 70.75 95.625C72.7188 95.625 74.5469 95.3086 75.9531 94.7461C76.1992 94.6055 76.4805 94.5 76.7266 94.3594C76.9375 94.2188 77.1484 94.0781 77.3242 93.9375C77.3945 93.9023 77.4297 93.8672 77.5 93.832V93.9375V94.1484V95.0625ZM78.625 95.0625V93.9375V93.0586C79.293 92.8828 79.8906 92.707 80.4531 92.4961C81.0156 92.25 81.543 91.9336 82 91.582V92.8125C82 93.1992 81.8242 93.5508 81.4727 93.9023C80.875 94.5 79.8906 94.957 78.5898 95.2734C78.5898 95.2031 78.625 95.1328 78.625 95.0625ZM70.75 99C72.7188 99 74.5469 98.6836 75.9531 98.1211C76.5156 97.875 77.043 97.5586 77.5 97.207V98.4375C77.5 100.02 74.4766 101.25 70.75 101.25C67.0234 101.25 64 100.02 64 98.4375V97.207C64.4219 97.5586 64.9492 97.875 65.5117 98.1211C66.918 98.6836 68.7461 99 70.75 99Z"></path>
<path fill="white" d="M99.58 98.198C98.644 98.198 97.816 98.006 97.096 97.622C96.388 97.238 95.836 96.704 95.44 96.02C95.044 95.324 94.846 94.526 94.846 93.626V89.774C94.846 88.886 95.044 88.1 95.44 87.416C95.836 86.732 96.388 86.204 97.096 85.832C97.816 85.448 98.644 85.256 99.58 85.256C100.528 85.256 101.356 85.448 102.064 85.832C102.784 86.204 103.342 86.732 103.738 87.416C104.134 88.1 104.332 88.886 104.332 89.774V93.626C104.332 94.526 104.134 95.324 103.738 96.02C103.342 96.716 102.784 97.256 102.064 97.64C101.356 98.012 100.528 98.198 99.58 98.198ZM99.58 96.02C100.24 96.02 100.774 95.81 101.182 95.39C101.59 94.97 101.794 94.412 101.794 93.716V89.756C101.794 89.06 101.59 88.502 101.182 88.082C100.786 87.65 100.252 87.434 99.58 87.434C98.92 87.434 98.386 87.65 97.978 88.082C97.582 88.502 97.384 89.06 97.384 89.756V93.716C97.384 94.412 97.582 94.97 97.978 95.39C98.386 95.81 98.92 96.02 99.58 96.02ZM111.48 85.382C112.272 85.382 112.968 85.544 113.568 85.868C114.168 86.192 114.63 86.654 114.954 87.254C115.29 87.842 115.458 88.52 115.458 89.288C115.458 90.044 115.284 90.71 114.936 91.286C114.6 91.862 114.12 92.312 113.496 92.636C112.884 92.948 112.176 93.104 111.372 93.104H108.816C108.756 93.104 108.726 93.134 108.726 93.194V97.784C108.726 97.844 108.702 97.898 108.654 97.946C108.618 97.982 108.57 98 108.51 98H106.404C106.344 98 106.29 97.982 106.242 97.946C106.206 97.898 106.188 97.844 106.188 97.784V85.598C106.188 85.538 106.206 85.49 106.242 85.454C106.29 85.406 106.344 85.382 106.404 85.382H111.48ZM111.102 91.07C111.654 91.07 112.098 90.914 112.434 90.602C112.77 90.278 112.938 89.858 112.938 89.342C112.938 88.814 112.77 88.388 112.434 88.064C112.098 87.74 111.654 87.578 111.102 87.578H108.816C108.756 87.578 108.726 87.608 108.726 87.668V90.98C108.726 91.04 108.756 91.07 108.816 91.07H111.102ZM125.766 87.362C125.766 87.422 125.742 87.476 125.694 87.524C125.658 87.56 125.61 87.578 125.55 87.578H119.646C119.586 87.578 119.556 87.608 119.556 87.668V90.458C119.556 90.518 119.586 90.548 119.646 90.548H123.516C123.576 90.548 123.624 90.572 123.66 90.62C123.708 90.656 123.732 90.704 123.732 90.764V92.51C123.732 92.57 123.708 92.624 123.66 92.672C123.624 92.708 123.576 92.726 123.516 92.726H119.646C119.586 92.726 119.556 92.756 119.556 92.816V95.732C119.556 95.792 119.586 95.822 119.646 95.822H125.55C125.61 95.822 125.658 95.846 125.694 95.894C125.742 95.93 125.766 95.978 125.766 96.038V97.784C125.766 97.844 125.742 97.898 125.694 97.946C125.658 97.982 125.61 98 125.55 98H117.234C117.174 98 117.12 97.982 117.072 97.946C117.036 97.898 117.018 97.844 117.018 97.784V85.616C117.018 85.556 117.036 85.508 117.072 85.472C117.12 85.424 117.174 85.4 117.234 85.4H125.55C125.61 85.4 125.658 85.424 125.694 85.472C125.742 85.508 125.766 85.556 125.766 85.616V87.362ZM134.442 98C134.322 98 134.238 97.946 134.19 97.838L131.94 92.852C131.916 92.804 131.88 92.78 131.832 92.78H130.158C130.098 92.78 130.068 92.81 130.068 92.87V97.784C130.068 97.844 130.044 97.898 129.996 97.946C129.96 97.982 129.912 98 129.852 98H127.746C127.686 98 127.632 97.982 127.584 97.946C127.548 97.898 127.53 97.844 127.53 97.784V85.616C127.53 85.556 127.548 85.508 127.584 85.472C127.632 85.424 127.686 85.4 127.746 85.4H132.894C133.662 85.4 134.334 85.556 134.91 85.868C135.498 86.18 135.948 86.624 136.26 87.2C136.584 87.776 136.746 88.442 136.746 89.198C136.746 90.014 136.542 90.716 136.134 91.304C135.726 91.88 135.156 92.288 134.424 92.528C134.364 92.552 134.346 92.594 134.37 92.654L136.818 97.748C136.842 97.796 136.854 97.832 136.854 97.856C136.854 97.952 136.788 98 136.656 98H134.442ZM130.158 87.578C130.098 87.578 130.068 87.608 130.068 87.668V90.746C130.068 90.806 130.098 90.836 130.158 90.836H132.516C133.02 90.836 133.428 90.686 133.74 90.386C134.064 90.086 134.226 89.696 134.226 89.216C134.226 88.736 134.064 88.346 133.74 88.046C133.428 87.734 133.02 87.578 132.516 87.578H130.158ZM146.86 98C146.74 98 146.662 97.94 146.626 97.82L146.086 96.056C146.062 96.008 146.032 95.984 145.996 95.984H141.568C141.532 95.984 141.502 96.008 141.478 96.056L140.956 97.82C140.92 97.94 140.842 98 140.722 98H138.436C138.364 98 138.31 97.982 138.274 97.946C138.238 97.898 138.232 97.832 138.256 97.748L142.144 85.58C142.18 85.46 142.258 85.4 142.378 85.4H145.204C145.324 85.4 145.402 85.46 145.438 85.58L149.326 97.748C149.338 97.772 149.344 97.802 149.344 97.838C149.344 97.946 149.278 98 149.146 98H146.86ZM142.126 93.914C142.114 93.986 142.138 94.022 142.198 94.022H145.366C145.438 94.022 145.462 93.986 145.438 93.914L143.818 88.568C143.806 88.52 143.788 88.502 143.764 88.514C143.74 88.514 143.722 88.532 143.71 88.568L142.126 93.914ZM158.073 85.4C158.133 85.4 158.181 85.424 158.217 85.472C158.265 85.508 158.289 85.556 158.289 85.616V87.38C158.289 87.44 158.265 87.494 158.217 87.542C158.181 87.578 158.133 87.596 158.073 87.596H154.851C154.791 87.596 154.761 87.626 154.761 87.686V97.784C154.761 97.844 154.737 97.898 154.689 97.946C154.653 97.982 154.605 98 154.545 98H152.439C152.379 98 152.325 97.982 152.277 97.946C152.241 97.898 152.223 97.844 152.223 97.784V87.686C152.223 87.626 152.193 87.596 152.133 87.596H149.001C148.941 87.596 148.887 87.578 148.839 87.542C148.803 87.494 148.785 87.44 148.785 87.38V85.616C148.785 85.556 148.803 85.508 148.839 85.472C148.887 85.424 148.941 85.4 149.001 85.4H158.073ZM160.125 98C160.065 98 160.011 97.982 159.963 97.946C159.927 97.898 159.909 97.844 159.909 97.784V85.616C159.909 85.556 159.927 85.508 159.963 85.472C160.011 85.424 160.065 85.4 160.125 85.4H162.231C162.291 85.4 162.339 85.424 162.375 85.472C162.423 85.508 162.447 85.556 162.447 85.616V97.784C162.447 97.844 162.423 97.898 162.375 97.946C162.339 97.982 162.291 98 162.231 98H160.125ZM169.119 98.198C168.183 98.198 167.355 98.006 166.635 97.622C165.927 97.238 165.375 96.704 164.979 96.02C164.583 95.324 164.385 94.526 164.385 93.626V89.774C164.385 88.886 164.583 88.1 164.979 87.416C165.375 86.732 165.927 86.204 166.635 85.832C167.355 85.448 168.183 85.256 169.119 85.256C170.067 85.256 170.895 85.448 171.603 85.832C172.323 86.204 172.881 86.732 173.277 87.416C173.673 88.1 173.871 88.886 173.871 89.774V93.626C173.871 94.526 173.673 95.324 173.277 96.02C172.881 96.716 172.323 97.256 171.603 97.64C170.895 98.012 170.067 98.198 169.119 98.198ZM169.119 96.02C169.779 96.02 170.313 95.81 170.721 95.39C171.129 94.97 171.333 94.412 171.333 93.716V89.756C171.333 89.06 171.129 88.502 170.721 88.082C170.325 87.65 169.791 87.434 169.119 87.434C168.459 87.434 167.925 87.65 167.517 88.082C167.121 88.502 166.923 89.06 166.923 89.756V93.716C166.923 94.412 167.121 94.97 167.517 95.39C167.925 95.81 168.459 96.02 169.119 96.02ZM183.053 85.616C183.053 85.556 183.071 85.508 183.107 85.472C183.155 85.424 183.209 85.4 183.269 85.4H185.375C185.435 85.4 185.483 85.424 185.519 85.472C185.567 85.508 185.591 85.556 185.591 85.616V97.784C185.591 97.844 185.567 97.898 185.519 97.946C185.483 97.982 185.435 98 185.375 98H183.341C183.221 98 183.137 97.952 183.089 97.856L178.427 90.152C178.403 90.116 178.379 90.104 178.355 90.116C178.331 90.116 178.319 90.14 178.319 90.188L178.355 97.784C178.355 97.844 178.331 97.898 178.283 97.946C178.247 97.982 178.199 98 178.139 98H176.033C175.973 98 175.919 97.982 175.871 97.946C175.835 97.898 175.817 97.844 175.817 97.784V85.616C175.817 85.556 175.835 85.508 175.871 85.472C175.919 85.424 175.973 85.4 176.033 85.4H178.067C178.187 85.4 178.271 85.448 178.319 85.544L182.963 93.212C182.987 93.248 183.011 93.266 183.035 93.266C183.059 93.254 183.071 93.224 183.071 93.176L183.053 85.616ZM192.107 98.144C191.147 98.144 190.307 97.994 189.587 97.694C188.867 97.382 188.309 96.944 187.913 96.38C187.529 95.804 187.337 95.138 187.337 94.382V93.986C187.337 93.926 187.355 93.878 187.391 93.842C187.439 93.794 187.493 93.77 187.553 93.77H189.605C189.665 93.77 189.713 93.794 189.749 93.842C189.797 93.878 189.821 93.926 189.821 93.986V94.256C189.821 94.736 190.043 95.144 190.487 95.48C190.931 95.804 191.531 95.966 192.287 95.966C192.923 95.966 193.397 95.834 193.709 95.57C194.021 95.294 194.177 94.958 194.177 94.562C194.177 94.274 194.081 94.034 193.889 93.842C193.697 93.638 193.433 93.464 193.097 93.32C192.773 93.164 192.251 92.954 191.531 92.69C190.727 92.414 190.043 92.132 189.479 91.844C188.927 91.556 188.459 91.166 188.075 90.674C187.703 90.17 187.517 89.552 187.517 88.82C187.517 88.1 187.703 87.47 188.075 86.93C188.447 86.39 188.963 85.976 189.623 85.688C190.283 85.4 191.045 85.256 191.909 85.256C192.821 85.256 193.631 85.418 194.339 85.742C195.059 86.066 195.617 86.522 196.013 87.11C196.421 87.686 196.625 88.358 196.625 89.126V89.396C196.625 89.456 196.601 89.51 196.553 89.558C196.517 89.594 196.469 89.612 196.409 89.612H194.339C194.279 89.612 194.225 89.594 194.177 89.558C194.141 89.51 194.123 89.456 194.123 89.396V89.252C194.123 88.748 193.913 88.322 193.493 87.974C193.085 87.614 192.521 87.434 191.801 87.434C191.237 87.434 190.793 87.554 190.469 87.794C190.157 88.034 190.001 88.364 190.001 88.784C190.001 89.084 190.091 89.336 190.271 89.54C190.463 89.744 190.739 89.93 191.099 90.098C191.471 90.254 192.041 90.47 192.809 90.746C193.661 91.058 194.327 91.334 194.807 91.574C195.299 91.814 195.737 92.174 196.121 92.654C196.517 93.122 196.715 93.734 196.715 94.49C196.715 95.618 196.301 96.512 195.473 97.172C194.645 97.82 193.523 98.144 192.107 98.144ZM198.133 93.77C198.073 93.77 198.019 93.752 197.971 93.716C197.935 93.668 197.917 93.614 197.917 93.554V91.808C197.917 91.748 197.935 91.7 197.971 91.664C198.019 91.616 198.073 91.592 198.133 91.592H204.019C204.079 91.592 204.127 91.616 204.163 91.664C204.211 91.7 204.235 91.748 204.235 91.808V93.554C204.235 93.614 204.211 93.668 204.163 93.716C204.127 93.752 204.079 93.77 204.019 93.77H198.133ZM213.328 91.43C213.256 91.466 213.256 91.502 213.328 91.538C214.468 92.126 215.038 93.104 215.038 94.472C215.038 95.636 214.642 96.518 213.85 97.118C213.058 97.706 212.02 98 210.736 98H206.074C206.014 98 205.96 97.982 205.912 97.946C205.876 97.898 205.858 97.844 205.858 97.784V85.616C205.858 85.556 205.876 85.508 205.912 85.472C205.96 85.424 206.014 85.4 206.074 85.4H210.592C213.436 85.4 214.858 86.552 214.858 88.856C214.858 90.056 214.348 90.914 213.328 91.43ZM208.486 87.578C208.426 87.578 208.396 87.608 208.396 87.668V90.476C208.396 90.536 208.426 90.566 208.486 90.566H210.592C211.156 90.566 211.594 90.434 211.906 90.17C212.218 89.906 212.374 89.546 212.374 89.09C212.374 88.622 212.218 88.256 211.906 87.992C211.594 87.716 211.156 87.578 210.592 87.578H208.486ZM210.736 95.804C211.288 95.804 211.72 95.666 212.032 95.39C212.344 95.102 212.5 94.712 212.5 94.22C212.5 93.728 212.344 93.344 212.032 93.068C211.72 92.78 211.282 92.636 210.718 92.636H208.486C208.426 92.636 208.396 92.666 208.396 92.726V95.714C208.396 95.774 208.426 95.804 208.486 95.804H210.736ZM224.344 98C224.224 98 224.146 97.94 224.11 97.82L223.57 96.056C223.546 96.008 223.516 95.984 223.48 95.984H219.052C219.016 95.984 218.986 96.008 218.962 96.056L218.44 97.82C218.404 97.94 218.326 98 218.206 98H215.92C215.848 98 215.794 97.982 215.758 97.946C215.722 97.898 215.716 97.832 215.74 97.748L219.628 85.58C219.664 85.46 219.742 85.4 219.862 85.4H222.688C222.808 85.4 222.886 85.46 222.922 85.58L226.81 97.748C226.822 97.772 226.828 97.802 226.828 97.838C226.828 97.946 226.762 98 226.63 98H224.344ZM219.61 93.914C219.598 93.986 219.622 94.022 219.682 94.022H222.85C222.922 94.022 222.946 93.986 222.922 93.914L221.302 88.568C221.29 88.52 221.272 88.502 221.248 88.514C221.224 88.514 221.206 88.532 221.194 88.568L219.61 93.914ZM231.939 98.144C230.979 98.144 230.139 97.994 229.419 97.694C228.699 97.382 228.141 96.944 227.745 96.38C227.361 95.804 227.169 95.138 227.169 94.382V93.986C227.169 93.926 227.187 93.878 227.223 93.842C227.271 93.794 227.325 93.77 227.385 93.77H229.437C229.497 93.77 229.545 93.794 229.581 93.842C229.629 93.878 229.653 93.926 229.653 93.986V94.256C229.653 94.736 229.875 95.144 230.319 95.48C230.763 95.804 231.363 95.966 232.119 95.966C232.755 95.966 233.229 95.834 233.541 95.57C233.853 95.294 234.009 94.958 234.009 94.562C234.009 94.274 233.913 94.034 233.721 93.842C233.529 93.638 233.265 93.464 232.929 93.32C232.605 93.164 232.083 92.954 231.363 92.69C230.559 92.414 229.875 92.132 229.311 91.844C228.759 91.556 228.291 91.166 227.907 90.674C227.535 90.17 227.349 89.552 227.349 88.82C227.349 88.1 227.535 87.47 227.907 86.93C228.279 86.39 228.795 85.976 229.455 85.688C230.115 85.4 230.877 85.256 231.741 85.256C232.653 85.256 233.463 85.418 234.171 85.742C234.891 86.066 235.449 86.522 235.845 87.11C236.253 87.686 236.457 88.358 236.457 89.126V89.396C236.457 89.456 236.433 89.51 236.385 89.558C236.349 89.594 236.301 89.612 236.241 89.612H234.171C234.111 89.612 234.057 89.594 234.009 89.558C233.973 89.51 233.955 89.456 233.955 89.396V89.252C233.955 88.748 233.745 88.322 233.325 87.974C232.917 87.614 232.353 87.434 231.633 87.434C231.069 87.434 230.625 87.554 230.301 87.794C229.989 88.034 229.833 88.364 229.833 88.784C229.833 89.084 229.923 89.336 230.103 89.54C230.295 89.744 230.571 89.93 230.931 90.098C231.303 90.254 231.873 90.47 232.641 90.746C233.493 91.058 234.159 91.334 234.639 91.574C235.131 91.814 235.569 92.174 235.953 92.654C236.349 93.122 236.547 93.734 236.547 94.49C236.547 95.618 236.133 96.512 235.305 97.172C234.477 97.82 233.355 98.144 231.939 98.144ZM247.073 87.362C247.073 87.422 247.049 87.476 247.001 87.524C246.965 87.56 246.917 87.578 246.857 87.578H240.953C240.893 87.578 240.863 87.608 240.863 87.668V90.458C240.863 90.518 240.893 90.548 240.953 90.548H244.823C244.883 90.548 244.931 90.572 244.967 90.62C245.015 90.656 245.039 90.704 245.039 90.764V92.51C245.039 92.57 245.015 92.624 244.967 92.672C244.931 92.708 244.883 92.726 244.823 92.726H240.953C240.893 92.726 240.863 92.756 240.863 92.816V95.732C240.863 95.792 240.893 95.822 240.953 95.822H246.857C246.917 95.822 246.965 95.846 247.001 95.894C247.049 95.93 247.073 95.978 247.073 96.038V97.784C247.073 97.844 247.049 97.898 247.001 97.946C246.965 97.982 246.917 98 246.857 98H238.541C238.481 98 238.427 97.982 238.379 97.946C238.343 97.898 238.325 97.844 238.325 97.784V85.616C238.325 85.556 238.343 85.508 238.379 85.472C238.427 85.424 238.481 85.4 238.541 85.4H246.857C246.917 85.4 246.965 85.424 247.001 85.472C247.049 85.508 247.073 85.556 247.073 85.616V87.362ZM249.052 98C248.992 98 248.938 97.982 248.89 97.946C248.854 97.898 248.836 97.844 248.836 97.784V85.616C248.836 85.556 248.854 85.508 248.89 85.472C248.938 85.424 248.992 85.4 249.052 85.4H253.552C254.452 85.4 255.238 85.562 255.91 85.886C256.594 86.198 257.122 86.642 257.494 87.218C257.866 87.794 258.052 88.46 258.052 89.216V94.184C258.052 94.94 257.866 95.606 257.494 96.182C257.122 96.758 256.594 97.208 255.91 97.532C255.238 97.844 254.452 98 253.552 98H249.052ZM251.374 95.732C251.374 95.792 251.404 95.822 251.464 95.822H253.642C254.194 95.822 254.638 95.636 254.974 95.264C255.322 94.892 255.502 94.394 255.514 93.77V89.63C255.514 89.006 255.34 88.508 254.992 88.136C254.656 87.764 254.2 87.578 253.624 87.578H251.464C251.404 87.578 251.374 87.608 251.374 87.668V95.732ZM271.037 91.43C270.965 91.466 270.965 91.502 271.037 91.538C272.177 92.126 272.747 93.104 272.747 94.472C272.747 95.636 272.351 96.518 271.559 97.118C270.767 97.706 269.729 98 268.445 98H263.783C263.723 98 263.669 97.982 263.621 97.946C263.585 97.898 263.567 97.844 263.567 97.784V85.616C263.567 85.556 263.585 85.508 263.621 85.472C263.669 85.424 263.723 85.4 263.783 85.4H268.301C271.145 85.4 272.567 86.552 272.567 88.856C272.567 90.056 272.057 90.914 271.037 91.43ZM266.195 87.578C266.135 87.578 266.105 87.608 266.105 87.668V90.476C266.105 90.536 266.135 90.566 266.195 90.566H268.301C268.865 90.566 269.303 90.434 269.615 90.17C269.927 89.906 270.083 89.546 270.083 89.09C270.083 88.622 269.927 88.256 269.615 87.992C269.303 87.716 268.865 87.578 268.301 87.578H266.195ZM268.445 95.804C268.997 95.804 269.429 95.666 269.741 95.39C270.053 95.102 270.209 94.712 270.209 94.22C270.209 93.728 270.053 93.344 269.741 93.068C269.429 92.78 268.991 92.636 268.427 92.636H266.195C266.135 92.636 266.105 92.666 266.105 92.726V95.714C266.105 95.774 266.135 95.804 266.195 95.804H268.445ZM274.945 98C274.885 98 274.831 97.982 274.783 97.946C274.747 97.898 274.729 97.844 274.729 97.784V85.616C274.729 85.556 274.747 85.508 274.783 85.472C274.831 85.424 274.885 85.4 274.945 85.4H277.051C277.111 85.4 277.159 85.424 277.195 85.472C277.243 85.508 277.267 85.556 277.267 85.616V97.784C277.267 97.844 277.243 97.898 277.195 97.946C277.159 97.982 277.111 98 277.051 98H274.945ZM279.673 98C279.613 98 279.559 97.982 279.511 97.946C279.475 97.898 279.457 97.844 279.457 97.784V85.616C279.457 85.556 279.475 85.508 279.511 85.472C279.559 85.424 279.613 85.4 279.673 85.4H281.779C281.839 85.4 281.887 85.424 281.923 85.472C281.971 85.508 281.995 85.556 281.995 85.616V95.732C281.995 95.792 282.025 95.822 282.085 95.822H287.971C288.031 95.822 288.079 95.846 288.115 95.894C288.163 95.93 288.187 95.978 288.187 96.038V97.784C288.187 97.844 288.163 97.898 288.115 97.946C288.079 97.982 288.031 98 287.971 98H279.673ZM289.974 98C289.914 98 289.86 97.982 289.812 97.946C289.776 97.898 289.758 97.844 289.758 97.784V85.616C289.758 85.556 289.776 85.508 289.812 85.472C289.86 85.424 289.914 85.4 289.974 85.4H292.08C292.14 85.4 292.188 85.424 292.224 85.472C292.272 85.508 292.296 85.556 292.296 85.616V95.732C292.296 95.792 292.326 95.822 292.386 95.822H298.272C298.332 95.822 298.38 95.846 298.416 95.894C298.464 95.93 298.488 95.978 298.488 96.038V97.784C298.488 97.844 298.464 97.898 298.416 97.946C298.38 97.982 298.332 98 298.272 98H289.974ZM300.275 98C300.215 98 300.161 97.982 300.113 97.946C300.077 97.898 300.059 97.844 300.059 97.784V85.616C300.059 85.556 300.077 85.508 300.113 85.472C300.161 85.424 300.215 85.4 300.275 85.4H302.381C302.441 85.4 302.489 85.424 302.525 85.472C302.573 85.508 302.597 85.556 302.597 85.616V97.784C302.597 97.844 302.573 97.898 302.525 97.946C302.489 97.982 302.441 98 302.381 98H300.275ZM312.023 85.616C312.023 85.556 312.041 85.508 312.077 85.472C312.125 85.424 312.179 85.4 312.239 85.4H314.345C314.405 85.4 314.453 85.424 314.489 85.472C314.537 85.508 314.561 85.556 314.561 85.616V97.784C314.561 97.844 314.537 97.898 314.489 97.946C314.453 97.982 314.405 98 314.345 98H312.311C312.191 98 312.107 97.952 312.059 97.856L307.397 90.152C307.373 90.116 307.349 90.104 307.325 90.116C307.301 90.116 307.289 90.14 307.289 90.188L307.325 97.784C307.325 97.844 307.301 97.898 307.253 97.946C307.217 97.982 307.169 98 307.109 98H305.003C304.943 98 304.889 97.982 304.841 97.946C304.805 97.898 304.787 97.844 304.787 97.784V85.616C304.787 85.556 304.805 85.508 304.841 85.472C304.889 85.424 304.943 85.4 305.003 85.4H307.037C307.157 85.4 307.241 85.448 307.289 85.544L311.933 93.212C311.957 93.248 311.981 93.266 312.005 93.266C312.029 93.254 312.041 93.224 312.041 93.176L312.023 85.616ZM321.186 98.144C320.262 98.144 319.446 97.958 318.738 97.586C318.03 97.214 317.478 96.698 317.082 96.038C316.698 95.366 316.506 94.592 316.506 93.716V89.684C316.506 88.808 316.698 88.034 317.082 87.362C317.478 86.69 318.03 86.174 318.738 85.814C319.446 85.442 320.262 85.256 321.186 85.256C322.098 85.256 322.902 85.436 323.598 85.796C324.306 86.156 324.852 86.648 325.236 87.272C325.632 87.884 325.83 88.568 325.83 89.324V89.45C325.83 89.51 325.806 89.564 325.758 89.612C325.722 89.648 325.674 89.666 325.614 89.666H323.508C323.448 89.666 323.394 89.648 323.346 89.612C323.31 89.564 323.292 89.51 323.292 89.45V89.396C323.292 88.844 323.1 88.382 322.716 88.01C322.332 87.626 321.822 87.434 321.186 87.434C320.538 87.434 320.016 87.638 319.62 88.046C319.236 88.442 319.044 88.964 319.044 89.612V93.788C319.044 94.436 319.254 94.964 319.674 95.372C320.094 95.768 320.628 95.966 321.276 95.966C321.9 95.966 322.398 95.804 322.77 95.48C323.142 95.144 323.328 94.682 323.328 94.094V93.284C323.328 93.224 323.298 93.194 323.238 93.194H321.222C321.162 93.194 321.108 93.176 321.06 93.14C321.024 93.092 321.006 93.038 321.006 92.978V91.322C321.006 91.262 321.024 91.214 321.06 91.178C321.108 91.13 321.162 91.106 321.222 91.106H325.614C325.674 91.106 325.722 91.13 325.758 91.178C325.806 91.214 325.83 91.262 325.83 91.322V93.698C325.83 94.61 325.638 95.402 325.254 96.074C324.87 96.746 324.324 97.262 323.616 97.622C322.92 97.97 322.11 98.144 321.186 98.144Z"></path>
<g filter="url(#filter2_ddddd_10732_4435)">
<path fill="#71E8DF" d="M706.591 343.898C695.238 343.898 684.872 337.974 679.196 328.102C673.519 318.353 673.519 306.383 679.196 296.511C684.872 286.763 695.238 280.716 706.591 280.716C717.821 280.716 728.186 286.763 733.863 296.511C739.539 306.383 739.539 318.353 733.863 328.102C728.186 337.974 717.821 343.898 706.591 343.898ZM695.238 320.945C694.498 320.081 693.264 320.081 692.4 320.698C691.536 321.439 691.536 322.673 692.153 323.536C694.991 326.745 699.68 330.077 706.591 330.077C713.378 330.077 718.067 326.745 720.906 323.536C721.523 322.673 721.523 321.439 720.659 320.698C719.795 320.081 718.561 320.081 717.821 320.945C715.723 323.536 711.897 326.128 706.591 326.128C701.161 326.128 697.459 323.536 695.238 320.945ZM701.038 309.592C701.655 310.456 702.889 310.703 703.753 309.962C704.617 309.345 704.863 308.111 704.123 307.247C700.421 302.188 692.893 302.188 689.191 307.247C688.451 308.111 688.698 309.345 689.561 309.962C690.425 310.703 691.659 310.456 692.276 309.592C694.498 306.754 698.817 306.754 701.038 309.592ZM712.021 309.592C714.242 306.754 718.561 306.754 720.782 309.592C721.399 310.456 722.633 310.703 723.497 309.962C724.361 309.345 724.608 308.111 723.867 307.247C720.165 302.188 712.638 302.188 708.936 307.247C708.195 308.111 708.442 309.345 709.306 309.962C710.17 310.703 711.404 310.456 712.021 309.592Z"></path>
</g>
</g>
<defs>
<filter color-interpolation-filters="sRGB" filterUnits="userSpaceOnUse" height="192.085" width="167.456" y="154" x="527.754" id="filter0_dd_10732_4435">
<feFlood result="BackgroundImageFix" flood-opacity="0"></feFlood>
<feColorMatrix result="hardAlpha" values="0 0 0 0 0 0 0 0 0 0 0 0 0 0 0 0 0 0 127 0" type="matrix" in="SourceAlpha"></feColorMatrix>
<feOffset dy="6.15648"></feOffset>
<feGaussianBlur stdDeviation="1.84694"></feGaussianBlur>
<feColorMatrix values="0 0 0 0 0.0901961 0 0 0 0 0.168627 0 0 0 0 0.301961 0 0 0 0.08 0" type="matrix"></feColorMatrix>
<feBlend result="effect1_dropShadow_10732_4435" in2="BackgroundImageFix" mode="normal"></feBlend>
<feColorMatrix result="hardAlpha" values="0 0 0 0 0 0 0 0 0 0 0 0 0 0 0 0 0 0 127 0" type="matrix" in="SourceAlpha"></feColorMatrix>
<feOffset dy="3.69389"></feOffset>
<feGaussianBlur stdDeviation="1.2313"></feGaussianBlur>
<feColorMatrix values="0 0 0 0 0.0901961 0 0 0 0 0.168627 0 0 0 0 0.301961 0 0 0 0.04 0" type="matrix"></feColorMatrix>
<feBlend result="effect2_dropShadow_10732_4435" in2="effect1_dropShadow_10732_4435" mode="normal"></feBlend>
<feBlend result="shape" in2="effect2_dropShadow_10732_4435" in="SourceGraphic" mode="normal"></feBlend>
</filter>
<filter color-interpolation-filters="sRGB" filterUnits="userSpaceOnUse" height="295.946" width="401.958" y="138.879" x="26.8334" id="filter1_ddddd_10732_4435">
<feFlood result="BackgroundImageFix" flood-opacity="0"></feFlood>
<feColorMatrix result="hardAlpha" values="0 0 0 0 0 0 0 0 0 0 0 0 0 0 0 0 0 0 127 0" type="matrix" in="SourceAlpha"></feColorMatrix>
<feOffset dy="1.88855"></feOffset>
<feGaussianBlur stdDeviation="0.75542"></feGaussianBlur>
<feColorMatrix values="0 0 0 0 0 0 0 0 0 0 0 0 0 0 0 0 0 0 0.129327 0" type="matrix"></feColorMatrix>
<feBlend result="effect1_dropShadow_10732_4435" in2="BackgroundImageFix" mode="normal"></feBlend>
<feColorMatrix result="hardAlpha" values="0 0 0 0 0 0 0 0 0 0 0 0 0 0 0 0 0 0 127 0" type="matrix" in="SourceAlpha"></feColorMatrix>
<feOffset dy="4.53845"></feOffset>
<feGaussianBlur stdDeviation="1.81538"></feGaussianBlur>
<feColorMatrix values="0 0 0 0 0 0 0 0 0 0 0 0 0 0 0 0 0 0 0.185791 0" type="matrix"></feColorMatrix>
<feBlend result="effect2_dropShadow_10732_4435" in2="effect1_dropShadow_10732_4435" mode="normal"></feBlend>
<feColorMatrix result="hardAlpha" values="0 0 0 0 0 0 0 0 0 0 0 0 0 0 0 0 0 0 127 0" type="matrix" in="SourceAlpha"></feColorMatrix>
<feOffset dy="8.54549"></feOffset>
<feGaussianBlur stdDeviation="3.4182"></feGaussianBlur>
<feColorMatrix values="0 0 0 0 0 0 0 0 0 0 0 0 0 0 0 0 0 0 0.23 0" type="matrix"></feColorMatrix>
<feBlend result="effect3_dropShadow_10732_4435" in2="effect2_dropShadow_10732_4435" mode="normal"></feBlend>
<feColorMatrix result="hardAlpha" values="0 0 0 0 0 0 0 0 0 0 0 0 0 0 0 0 0 0 127 0" type="matrix" in="SourceAlpha"></feColorMatrix>
<feOffset dy="15.2437"></feOffset>
<feGaussianBlur stdDeviation="6.09748"></feGaussianBlur>
<feColorMatrix values="0 0 0 0 0 0 0 0 0 0 0 0 0 0 0 0 0 0 0.274209 0" type="matrix"></feColorMatrix>
<feBlend result="effect4_dropShadow_10732_4435" in2="effect3_dropShadow_10732_4435" mode="normal"></feBlend>
<feColorMatrix result="hardAlpha" values="0 0 0 0 0 0 0 0 0 0 0 0 0 0 0 0 0 0 127 0" type="matrix" in="SourceAlpha"></feColorMatrix>
<feOffset dy="28.5117"></feOffset>
<feGaussianBlur stdDeviation="11.4047"></feGaussianBlur>
<feColorMatrix values="0 0 0 0 0 0 0 0 0 0 0 0 0 0 0 0 0 0 0.330673 0" type="matrix"></feColorMatrix>
<feBlend result="effect5_dropShadow_10732_4435" in2="effect4_dropShadow_10732_4435" mode="normal"></feBlend>
<feBlend result="shape" in2="effect5_dropShadow_10732_4435" in="SourceGraphic" mode="normal"></feBlend>
</filter>
<filter color-interpolation-filters="sRGB" filterUnits="userSpaceOnUse" height="114.505" width="111.639" y="280.715" x="650.71" id="filter2_ddddd_10732_4435">
<feFlood result="BackgroundImageFix" flood-opacity="0"></feFlood>
<feColorMatrix result="hardAlpha" values="0 0 0 0 0 0 0 0 0 0 0 0 0 0 0 0 0 0 127 0" type="matrix" in="SourceAlpha"></feColorMatrix>
<feOffset dy="1.88855"></feOffset>
<feGaussianBlur stdDeviation="0.75542"></feGaussianBlur>
<feColorMatrix values="0 0 0 0 0 0 0 0 0 0 0 0 0 0 0 0 0 0 0.129327 0" type="matrix"></feColorMatrix>
<feBlend result="effect1_dropShadow_10732_4435" in2="BackgroundImageFix" mode="normal"></feBlend>
<feColorMatrix result="hardAlpha" values="0 0 0 0 0 0 0 0 0 0 0 0 0 0 0 0 0 0 127 0" type="matrix" in="SourceAlpha"></feColorMatrix>
<feOffset dy="4.53845"></feOffset>
<feGaussianBlur stdDeviation="1.81538"></feGaussianBlur>
<feColorMatrix values="0 0 0 0 0 0 0 0 0 0 0 0 0 0 0 0 0 0 0.185791 0" type="matrix"></feColorMatrix>
<feBlend result="effect2_dropShadow_10732_4435" in2="effect1_dropShadow_10732_4435" mode="normal"></feBlend>
<feColorMatrix result="hardAlpha" values="0 0 0 0 0 0 0 0 0 0 0 0 0 0 0 0 0 0 127 0" type="matrix" in="SourceAlpha"></feColorMatrix>
<feOffset dy="8.54549"></feOffset>
<feGaussianBlur stdDeviation="3.4182"></feGaussianBlur>
<feColorMatrix values="0 0 0 0 0 0 0 0 0 0 0 0 0 0 0 0 0 0 0.23 0" type="matrix"></feColorMatrix>
<feBlend result="effect3_dropShadow_10732_4435" in2="effect2_dropShadow_10732_4435" mode="normal"></feBlend>
<feColorMatrix result="hardAlpha" values="0 0 0 0 0 0 0 0 0 0 0 0 0 0 0 0 0 0 127 0" type="matrix" in="SourceAlpha"></feColorMatrix>
<feOffset dy="15.2437"></feOffset>
<feGaussianBlur stdDeviation="6.09748"></feGaussianBlur>
<feColorMatrix values="0 0 0 0 0 0 0 0 0 0 0 0 0 0 0 0 0 0 0.274209 0" type="matrix"></feColorMatrix>
<feBlend result="effect4_dropShadow_10732_4435" in2="effect3_dropShadow_10732_4435" mode="normal"></feBlend>
<feColorMatrix result="hardAlpha" values="0 0 0 0 0 0 0 0 0 0 0 0 0 0 0 0 0 0 127 0" type="matrix" in="SourceAlpha"></feColorMatrix>
<feOffset dy="28.5117"></feOffset>
<feGaussianBlur stdDeviation="11.4047"></feGaussianBlur>
<feColorMatrix values="0 0 0 0 0 0 0 0 0 0 0 0 0 0 0 0 0 0 0.330673 0" type="matrix"></feColorMatrix>
<feBlend result="effect5_dropShadow_10732_4435" in2="effect4_dropShadow_10732_4435" mode="normal"></feBlend>
<feBlend result="shape" in2="effect5_dropShadow_10732_4435" in="SourceGraphic" mode="normal"></feBlend>
</filter>
<linearGradient gradientUnits="userSpaceOnUse" y2="474" x2="422" y1="0" x1="422" id="paint0_linear_10732_4435">
<stop stop-color="#090A15"></stop>
<stop stop-color="#0D3A38" offset="0.955752"></stop>
</linearGradient>
<radialGradient gradientTransform="translate(422 355.876) rotate(90) scale(529.676 495.147)" gradientUnits="userSpaceOnUse" r="1" cy="0" cx="0" id="paint1_radial_10732_4435">
<stop stop-opacity="0.11" stop-color="#71E8DF"></stop>
<stop stop-opacity="0" stop-color="#71E8DF" offset="1"></stop>
</radialGradient>
<radialGradient gradientTransform="translate(422 458.5) rotate(90) scale(300 534.177)" gradientUnits="userSpaceOnUse" r="1" cy="0" cx="0" id="paint2_radial_10732_4435">
<stop stop-color="#71E8DF"></stop>
<stop stop-opacity="0" stop-color="#71E8DF" offset="1"></stop>
</radialGradient>
<linearGradient gradientUnits="userSpaceOnUse" y2="966" x2="611" y1="-476" x1="611" id="paint3_linear_10732_4435">
<stop stop-color="#71E8DF"></stop>
<stop stop-color="#138478" offset="1"></stop>
</linearGradient>
<linearGradient gradientUnits="userSpaceOnUse" y2="966" x2="611" y1="-476" x1="611" id="paint4_linear_10732_4435">
<stop stop-color="#CCFFFB"></stop>
<stop stop-color="#71E8DF" offset="1"></stop>
</linearGradient>
<linearGradient gradientUnits="userSpaceOnUse" y2="686" x2="611" y1="-196" x1="611" id="paint5_linear_10732_4435">
<stop stop-color="#71E8DF"></stop>
<stop stop-color="#138478" offset="1"></stop>
</linearGradient>
<linearGradient gradientUnits="userSpaceOnUse" y2="686" x2="611" y1="-196" x1="611" id="paint6_linear_10732_4435">
<stop stop-color="#CCFFFB"></stop>
<stop stop-color="#71E8DF" offset="1"></stop>
</linearGradient>
<linearGradient gradientUnits="userSpaceOnUse" y2="502" x2="611" y1="-12" x1="611" id="paint7_linear_10732_4435">
<stop stop-color="#71E8DF"></stop>
<stop stop-color="#138478" offset="1"></stop>
</linearGradient>
<linearGradient gradientUnits="userSpaceOnUse" y2="502" x2="611" y1="-12" x1="611" id="paint8_linear_10732_4435">
<stop stop-color="#CCFFFB"></stop>
<stop stop-color="#71E8DF" offset="1"></stop>
</linearGradient>
<linearGradient gradientUnits="userSpaceOnUse" y2="383" x2="611" y1="107" x1="611" id="paint9_linear_10732_4435">
<stop stop-color="#71E8DF"></stop>
<stop stop-color="#138478" offset="1"></stop>
</linearGradient>
<linearGradient gradientUnits="userSpaceOnUse" y2="383" x2="611" y1="107" x1="611" id="paint10_linear_10732_4435">
<stop stop-color="#CCFFFB"></stop>
<stop stop-color="#71E8DF" offset="1"></stop>
</linearGradient>
<linearGradient gradientUnits="userSpaceOnUse" y2="321" x2="611" y1="169" x1="611" id="paint11_linear_10732_4435">
<stop stop-color="#71E8DF"></stop>
<stop stop-color="#138478" offset="1"></stop>
</linearGradient>
<linearGradient gradientUnits="userSpaceOnUse" y2="321" x2="611" y1="169" x1="611" id="paint12_linear_10732_4435">
<stop stop-color="#CCFFFB"></stop>
<stop stop-color="#71E8DF" offset="1"></stop>
</linearGradient>
<linearGradient gradientUnits="userSpaceOnUse" y2="265.946" x2="691.153" y1="265.946" x1="531.727" id="paint13_linear_10732_4435">
<stop stop-color="#B4C5CD"></stop>
<stop stop-color="#6C8A98" offset="0.718232"></stop>
<stop stop-color="#6B8692" offset="1"></stop>
</linearGradient>
<linearGradient gradientUnits="userSpaceOnUse" y2="312.117" x2="583.321" y1="236.935" x1="664.223" id="paint14_linear_10732_4435">
<stop stop-color="#648697"></stop>
<stop stop-color="#B8CCD5" offset="1"></stop>
</linearGradient>
<radialGradient gradientTransform="translate(566.746 304.048) rotate(-140.974) scale(45.0767 38.6792)" gradientUnits="userSpaceOnUse" r="1" cy="0" cx="0" id="paint15_radial_10732_4435">
<stop stop-color="white"></stop>
<stop stop-opacity="0" stop-color="white" offset="1"></stop>
</radialGradient>
<linearGradient gradientUnits="userSpaceOnUse" y2="246.017" x2="687.116" y1="246.017" x1="535.762" id="paint16_linear_10732_4435">
<stop stop-color="#183C56"></stop>
<stop stop-color="#335D7B" offset="0.286458"></stop>
<stop stop-color="#082133" offset="1"></stop>
</linearGradient>
<linearGradient gradientUnits="userSpaceOnUse" y2="237.728" x2="687.116" y1="237.728" x1="535.762" id="paint17_linear_10732_4435">
<stop stop-color="#183C56"></stop>
<stop stop-color="#335D7B" offset="0.286458"></stop>
<stop stop-color="#082133" offset="1"></stop>
</linearGradient>
<linearGradient gradientUnits="userSpaceOnUse" y2="228.357" x2="691.153" y1="228.357" x1="531.727" id="paint18_linear_10732_4435">
<stop stop-color="#B4C5CD"></stop>
<stop stop-color="#6C8A98" offset="0.718232"></stop>
<stop stop-color="#6B8692" offset="1"></stop>
</linearGradient>
<linearGradient gradientUnits="userSpaceOnUse" y2="262.379" x2="578.181" y1="187.752" x1="664.223" id="paint19_linear_10732_4435">
<stop stop-color="#648697"></stop>
<stop stop-color="#B8CCD5" offset="1"></stop>
</linearGradient>
<radialGradient gradientTransform="translate(566.745 259.658) rotate(-139.028) scale(46.3801 40.2774)" gradientUnits="userSpaceOnUse" r="1" cy="0" cx="0" id="paint20_radial_10732_4435">
<stop stop-color="white"></stop>
<stop stop-opacity="0" stop-color="white" offset="1"></stop>
</radialGradient>
<linearGradient gradientUnits="userSpaceOnUse" y2="199.278" x2="687.116" y1="199.278" x1="535.762" id="paint21_linear_10732_4435">
<stop stop-color="#183C56"></stop>
<stop stop-color="#335D7B" offset="0.286458"></stop>
<stop stop-color="#082133" offset="1"></stop>
</linearGradient>
<linearGradient gradientUnits="userSpaceOnUse" y2="190.063" x2="687.116" y1="190.063" x1="535.762" id="paint22_linear_10732_4435">
<stop stop-color="#183C56"></stop>
<stop stop-color="#335D7B" offset="0.286458"></stop>
<stop stop-color="#082133" offset="1"></stop>
</linearGradient>
<linearGradient gradientUnits="userSpaceOnUse" y2="182" x2="691.153" y1="182" x1="531.727" id="paint23_linear_10732_4435">
<stop stop-color="#B4C5CD"></stop>
<stop stop-color="#6C8A98" offset="0.718232"></stop>
<stop stop-color="#6B8692" offset="1"></stop>
</linearGradient>
<linearGradient gradientUnits="userSpaceOnUse" y2="237.349" x2="595.207" y1="161.444" x1="665.303" id="paint24_linear_10732_4435">
<stop stop-color="#B9CAD2"></stop>
<stop stop-color="#DBE6EB" offset="1"></stop>
</linearGradient>
<radialGradient gradientTransform="translate(554.768 208.976) rotate(-34.7432) scale(69.5319 188.213)" gradientUnits="userSpaceOnUse" r="1" cy="0" cx="0" id="paint25_radial_10732_4435">
<stop stop-color="white"></stop>
<stop stop-opacity="0" stop-color="white" offset="1"></stop>
</radialGradient>
<clipPath id="clip0_10732_4435">
<rect fill="white" height="474" width="844"></rect>
</clipPath>
</defs>
</svg>
