<svg width="38" height="38" viewBox="0 0 38 38" fill="none" xmlns="http://www.w3.org/2000/svg">
<rect width="38" height="38" rx="6" fill="#F7FAFC"/>
<path d="M26.4629 10.61H12.1629C11.2224 10.61 10.46 11.3724 10.46 12.3128V14.2405C10.46 15.1809 11.2224 15.9433 12.1629 15.9433H26.4629C27.4034 15.9433 28.1658 15.1809 28.1658 14.2405V12.3128C28.1658 11.3724 27.4034 10.61 26.4629 10.61Z" stroke="#5A67D8" stroke-width="2" stroke-linecap="round" stroke-linejoin="round"/>
<path d="M19.933 14.3347C20.4521 14.3347 20.8729 13.9139 20.8729 13.3949C20.8729 12.8758 20.4521 12.455 19.933 12.455C19.4139 12.455 18.9931 12.8758 18.9931 13.3949C18.9931 13.9139 19.4139 14.3347 19.933 14.3347Z" fill="#5A67D8"/>
<path d="M22.5771 14.3347C23.0962 14.3347 23.517 13.9139 23.517 13.3949C23.517 12.8758 23.0962 12.455 22.5771 12.455C22.058 12.455 21.6372 12.8758 21.6372 13.3949C21.6372 13.9139 22.058 14.3347 22.5771 14.3347Z" fill="#5A67D8"/>
<path d="M25.2213 14.3347C25.7404 14.3347 26.1612 13.9139 26.1612 13.3949C26.1612 12.8758 25.7404 12.455 25.2213 12.455C24.7022 12.455 24.2814 12.8758 24.2814 13.3949C24.2814 13.9139 24.7022 14.3347 25.2213 14.3347Z" fill="#5A67D8"/>
<path d="M26.4629 15.9434H12.1629C11.2224 15.9434 10.46 16.7057 10.46 17.6462V19.5739C10.46 20.5143 11.2224 21.2767 12.1629 21.2767H26.4629C27.4034 21.2767 28.1658 20.5143 28.1658 19.5739V17.6462C28.1658 16.7057 27.4034 15.9434 26.4629 15.9434Z" stroke="#5A67D8" stroke-width="2" stroke-linecap="round" stroke-linejoin="round"/>
<path d="M19.933 19.6681C20.4521 19.6681 20.8729 19.2473 20.8729 18.7282C20.8729 18.2091 20.4521 17.7883 19.933 17.7883C19.4139 17.7883 18.9931 18.2091 18.9931 18.7282C18.9931 19.2473 19.4139 19.6681 19.933 19.6681Z" fill="#5A67D8"/>
<path d="M22.5771 19.6681C23.0962 19.6681 23.517 19.2473 23.517 18.7282C23.517 18.2091 23.0962 17.7883 22.5771 17.7883C22.058 17.7883 21.6372 18.2091 21.6372 18.7282C21.6372 19.2473 22.058 19.6681 22.5771 19.6681Z" fill="#5A67D8"/>
<path d="M25.2213 19.6681C25.7404 19.6681 26.1612 19.2473 26.1612 18.7282C26.1612 18.2091 25.7404 17.7883 25.2213 17.7883C24.7022 17.7883 24.2814 18.2091 24.2814 18.7282C24.2814 19.2473 24.7022 19.6681 25.2213 19.6681Z" fill="#5A67D8"/>
<path d="M26.4629 21.2766H12.1629C11.2224 21.2766 10.46 22.039 10.46 22.9794V24.9071C10.46 25.8476 11.2224 26.6099 12.1629 26.6099H26.4629C27.4034 26.6099 28.1658 25.8476 28.1658 24.9071V22.9794C28.1658 22.039 27.4034 21.2766 26.4629 21.2766Z" stroke="#5A67D8" stroke-width="2" stroke-linecap="round" stroke-linejoin="round"/>
<path d="M19.933 25.0014C20.4521 25.0014 20.8729 24.5806 20.8729 24.0615C20.8729 23.5424 20.4521 23.1216 19.933 23.1216C19.4139 23.1216 18.9931 23.5424 18.9931 24.0615C18.9931 24.5806 19.4139 25.0014 19.933 25.0014Z" fill="#5A67D8"/>
<path d="M22.5771 25.0014C23.0962 25.0014 23.517 24.5806 23.517 24.0615C23.517 23.5424 23.0962 23.1216 22.5771 23.1216C22.058 23.1216 21.6372 23.5424 21.6372 24.0615C21.6372 24.5806 22.058 25.0014 22.5771 25.0014Z" fill="#5A67D8"/>
<path d="M25.2213 25.0014C25.7404 25.0014 26.1612 24.5806 26.1612 24.0615C26.1612 23.5424 25.7404 23.1216 25.2213 23.1216C24.7022 23.1216 24.2814 23.5424 24.2814 24.0615C24.2814 24.5806 24.7022 25.0014 25.2213 25.0014Z" fill="#5A67D8"/>
</svg>
