<svg width="38" height="38" viewBox="0 0 38 38" fill="none" xmlns="http://www.w3.org/2000/svg">
<rect width="38" height="38" rx="6" fill="#F7FAFC"/>
<path d="M11 24.3333V19C11 16.8783 11.8429 14.8434 13.3431 13.3431C14.8434 11.8429 16.8783 11 19 11C21.1217 11 23.1566 11.8429 24.6569 13.3431C26.1571 14.8434 27 16.8783 27 19V24.3333" stroke="#5A67D8" stroke-width="2" stroke-linecap="round" stroke-linejoin="round"/>
<path d="M27 25.2222C27 25.6937 26.8127 26.1458 26.4793 26.4792C26.1459 26.8126 25.6937 26.9999 25.2222 26.9999H24.3333C23.8618 26.9999 23.4097 26.8126 23.0763 26.4792C22.7429 26.1458 22.5556 25.6937 22.5556 25.2222V22.5555C22.5556 22.084 22.7429 21.6318 23.0763 21.2984C23.4097 20.965 23.8618 20.7777 24.3333 20.7777H27V25.2222ZM11 25.2222C11 25.6937 11.1873 26.1458 11.5207 26.4792C11.8541 26.8126 12.3063 26.9999 12.7778 26.9999H13.6667C14.1382 26.9999 14.5903 26.8126 14.9237 26.4792C15.2571 26.1458 15.4444 25.6937 15.4444 25.2222V22.5555C15.4444 22.084 15.2571 21.6318 14.9237 21.2984C14.5903 20.965 14.1382 20.7777 13.6667 20.7777H11V25.2222Z" stroke="#5A67D8" stroke-width="2" stroke-linecap="round" stroke-linejoin="round"/>
</svg>
