<svg width="38" height="38" viewBox="0 0 38 38" fill="none" xmlns="http://www.w3.org/2000/svg">
<rect width="38" height="38" rx="6" fill="#F7FAFC"/>
<path d="M26 11H12C11.4477 11 11 11.4477 11 12V26C11 26.5523 11.4477 27 12 27H26C26.5523 27 27 26.5523 27 26V12C27 11.4477 26.5523 11 26 11Z" stroke="#5A67D8" stroke-width="2" stroke-miterlimit="10" stroke-linecap="round"/>
<path d="M11.08 14.34H26.92" stroke="#5A67D8" stroke-width="2" stroke-miterlimit="10" stroke-linecap="round"/>
<path d="M22.5556 22.5556C23.2498 21.8613 23.6391 21.472 24.3333 20.7778L22.5556 19" stroke="#5A67D8" stroke-width="2" stroke-miterlimit="10" stroke-linecap="round" stroke-linejoin="round"/>
<path d="M15.4444 22.5556C14.7502 21.8613 14.3609 21.472 13.6667 20.7778L15.4444 19" stroke="#5A67D8" stroke-width="2" stroke-miterlimit="10" stroke-linecap="round" stroke-linejoin="round"/>
<path d="M19.8889 17L18.1111 23.2222" stroke="#5A67D8" stroke-width="2" stroke-miterlimit="10" stroke-linecap="round"/>
</svg>
