<svg width="38" height="38" viewBox="0 0 38 38" fill="none" xmlns="http://www.w3.org/2000/svg">
<rect width="38" height="38" rx="6" fill="#F7FAFC"/>
<path d="M10 11.3665V23.3741C9.99934 23.4596 10.0301 23.5424 10.0864 23.6068C10.1428 23.6712 10.2207 23.7127 10.3056 23.7234C11.5719 23.8543 16.3859 24.5093 18.1106 26.8453C18.1508 26.9075 18.2104 26.9548 18.2801 26.9798C18.3499 27.0049 18.4259 27.0064 18.4965 26.9841C18.5672 26.9618 18.6286 26.9169 18.6712 26.8563C18.7139 26.7958 18.7355 26.7229 18.7328 26.6488V15.6237C18.749 15.5629 18.749 15.4989 18.7328 15.4381C17.7844 14.1081 16.5408 13.0159 15.0996 12.2469C13.6583 11.478 12.0585 11.0534 10.4257 11.0062C10.3735 10.9985 10.3203 11.0019 10.2695 11.0164C10.2187 11.0308 10.1716 11.0559 10.1313 11.09C10.091 11.1241 10.0585 11.1664 10.0359 11.2141C10.0132 11.2617 10.001 11.3137 10 11.3665Z" stroke="#5A67D8" stroke-width="2" stroke-miterlimit="10" stroke-linecap="round"/>
<path d="M27.4656 11.3663V23.3738C27.4662 23.4594 27.4355 23.5422 27.3791 23.6066C27.3228 23.671 27.2448 23.7124 27.1599 23.7231C25.9045 23.8541 21.0906 24.5091 19.355 26.8451C19.3147 26.9073 19.2552 26.9546 19.1854 26.9796C19.1157 27.0047 19.0397 27.0062 18.969 26.9839C18.8984 26.9616 18.837 26.9167 18.7943 26.8561C18.7517 26.7955 18.73 26.7227 18.7328 26.6486V15.6235C18.7171 15.5626 18.7171 15.4988 18.7328 15.4379C19.68 14.1067 20.9233 13.0135 22.3648 12.2445C23.8063 11.4754 25.4066 11.0515 27.0398 11.006C27.0923 10.9963 27.1463 10.9984 27.1979 11.0121C27.2494 11.0258 27.2973 11.0508 27.338 11.0852C27.3788 11.1197 27.4113 11.1628 27.4334 11.2114C27.4554 11.26 27.4665 11.3129 27.4656 11.3663V11.3663Z" stroke="#5A67D8" stroke-width="2" stroke-miterlimit="10" stroke-linecap="round"/>
</svg>
