<svg width="38" height="38" viewBox="0 0 38 38" fill="none" xmlns="http://www.w3.org/2000/svg">
<rect width="38" height="38" rx="6" fill="#F7FAFC"/>
<path d="M27 18.5556C27.003 19.7288 26.7289 20.8861 26.2 21.9333C25.5728 23.1882 24.6086 24.2437 23.4155 24.9816C22.2223 25.7195 20.8473 26.1106 19.4444 26.1111C18.2712 26.1142 17.1139 25.8401 16.0667 25.3111L11 27L12.6889 21.9333C12.1599 20.8861 11.8858 19.7288 11.8889 18.5556C11.8894 17.1527 12.2805 15.7777 13.0184 14.5845C13.7563 13.3914 14.8118 12.4272 16.0667 11.8C17.1139 11.2711 18.2712 10.997 19.4444 11H19.8889C21.7416 11.1022 23.4916 11.8843 24.8037 13.1963C26.1157 14.5084 26.8978 16.2584 27 18.1111V18.5556Z" stroke="#5A67D8" stroke-width="2" stroke-linecap="round" stroke-linejoin="round"/>
</svg>
