<svg width="38" height="38" viewBox="0 0 38 38" fill="none" xmlns="http://www.w3.org/2000/svg">
<rect width="38" height="38" rx="6" fill="#F7FAFC"/>
<path d="M26.2222 27V25.2222C26.2222 24.2792 25.8476 23.3748 25.1808 22.708C24.514 22.0412 23.6097 21.6666 22.6667 21.6666H15.5556C14.6126 21.6666 13.7082 22.0412 13.0414 22.708C12.3746 23.3748 12 24.2792 12 25.2222V27" stroke="#5A67D8" stroke-width="2" stroke-linecap="round" stroke-linejoin="round"/>
<path d="M19.1111 18.1111C21.0748 18.1111 22.6667 16.5192 22.6667 14.5556C22.6667 12.5919 21.0748 11 19.1111 11C17.1474 11 15.5555 12.5919 15.5555 14.5556C15.5555 16.5192 17.1474 18.1111 19.1111 18.1111Z" stroke="#5A67D8" stroke-width="2" stroke-linecap="round" stroke-linejoin="round"/>
</svg>
