<svg xmlns="http://www.w3.org/2000/svg" fill="none" viewBox="0 0 844 474" height="474" width="844">
<g clip-path="url(#clip0_7338_3142)">
<rect fill="url(#paint0_radial_7338_3142)" height="474" width="844"></rect>
<line stroke-width="1.60952" stroke="#7F9CF5" y2="0.796804" x2="1320.75" y1="0.796804" x1="768.803"></line>
<line stroke-width="1.60952" stroke="#7F9CF5" y2="39.4452" x2="1320.75" y1="39.4452" x1="768.803"></line>
<line stroke-width="1.60952" stroke="#7F9CF5" y2="78.1406" x2="1320.75" y1="78.1406" x1="768.802"></line>
<line stroke-width="1.60952" stroke="#7F9CF5" y2="116.812" x2="1320.75" y1="116.812" x1="768.803"></line>
<line stroke-width="1.60952" stroke="#7F9CF5" y2="155.469" x2="1320.75" y1="155.469" x1="768.802"></line>
<line stroke-width="1.60952" stroke="#7F9CF5" y2="194.156" x2="1320.75" y1="194.156" x1="768.803"></line>
<line stroke-width="1.60952" stroke="#7F9CF5" y2="232.844" x2="1320.75" y1="232.844" x1="768.803"></line>
<path stroke-width="1.60952" stroke="#7F9CF5" d="M778.606 271.5L1320.75 271.501"></path>
<line stroke-width="1.60952" stroke="#7F9CF5" y2="272.312" x2="843.2" y1="-37.0859" x1="843.2"></line>
<line stroke-width="1.60952" stroke="#7F9CF5" y2="272.312" x2="806.404" y1="-37.0859" x1="806.404"></line>
<path stroke-width="1.60952" stroke="#7F9CF5" d="M769.607 -37.0859L769.607 271.483L819.92 271.483"></path>
<path stroke-width="1.60952" stroke="#7F9CF5" d="M-478.433 279.924L70.3266 279.922"></path>
<line stroke-width="1.60952" stroke="#7F9CF5" y2="318.609" x2="73.5154" y1="318.609" x1="-478.433"></line>
<line stroke-width="1.60952" stroke="#7F9CF5" y2="357.273" x2="73.5154" y1="357.273" x1="-478.433"></line>
<line stroke-width="1.60952" stroke="#7F9CF5" y2="395.945" x2="73.5146" y1="395.945" x1="-478.434"></line>
<line stroke-width="1.60952" stroke="#7F9CF5" y2="434.641" x2="73.5154" y1="434.641" x1="-478.433"></line>
<line stroke-width="1.60952" stroke="#7F9CF5" y2="473.297" x2="73.5146" y1="473.297" x1="-478.434"></line>
<path stroke-width="1.60952" stroke="#7F9CF5" d="M74.3193 590.128L74.3193 279.914L70.0698 279.914"></path>
<line stroke-width="1.60952" stroke="#7F9CF5" y2="590.125" x2="37.5237" y1="280.727" x1="37.5238"></line>
<line stroke-width="1.60952" stroke="#7F9CF5" y2="590.125" x2="0.726618" y1="280.727" x1="0.726634"></line>
<rect fill="white" rx="8.06001" height="70.0757" width="75.5935" y="130.945" x="384.203"></rect>
<g filter="url(#filter0_d_7338_3142)">
<path fill="#434190" d="M438.506 179.084L416.963 185.167C416.305 185.353 415.674 184.809 415.812 184.176L423.508 148.99C423.652 148.332 424.605 148.228 424.906 148.837L439.155 177.724C439.424 178.269 439.117 178.912 438.506 179.084ZM442.2 177.649L425.701 144.202C425.288 143.366 424.424 142.814 423.445 142.762C422.441 142.707 421.542 143.169 421.034 143.956L403.14 171.624C402.586 172.486 402.597 173.549 403.172 174.401L411.919 187.336C412.44 188.108 413.343 188.555 414.282 188.555C414.548 188.555 414.816 188.52 415.079 188.445L440.469 181.276C441.247 181.057 441.883 180.531 442.215 179.835C442.547 179.139 442.542 178.341 442.2 177.649Z" clip-rule="evenodd" fill-rule="evenodd"></path>
</g>
<path fill="white" d="M163.989 297C163.589 297 163.309 296.82 163.149 296.46L155.649 279.84C155.569 279.68 155.449 279.6 155.289 279.6H149.709C149.509 279.6 149.409 279.7 149.409 279.9V296.28C149.409 296.48 149.329 296.66 149.169 296.82C149.049 296.94 148.889 297 148.689 297H141.669C141.469 297 141.289 296.94 141.129 296.82C141.009 296.66 140.949 296.48 140.949 296.28V255.72C140.949 255.52 141.009 255.36 141.129 255.24C141.289 255.08 141.469 255 141.669 255H158.829C161.389 255 163.629 255.52 165.549 256.56C167.509 257.6 169.009 259.08 170.049 261C171.129 262.92 171.669 265.14 171.669 267.66C171.669 270.38 170.989 272.72 169.629 274.68C168.269 276.6 166.369 277.96 163.929 278.76C163.729 278.84 163.669 278.98 163.749 279.18L171.909 296.16C171.989 296.32 172.029 296.44 172.029 296.52C172.029 296.84 171.809 297 171.369 297H163.989ZM149.709 262.26C149.509 262.26 149.409 262.36 149.409 262.56V272.82C149.409 273.02 149.509 273.12 149.709 273.12H157.569C159.249 273.12 160.609 272.62 161.649 271.62C162.729 270.62 163.269 269.32 163.269 267.72C163.269 266.12 162.729 264.82 161.649 263.82C160.609 262.78 159.249 262.26 157.569 262.26H149.709ZM204.154 278.4C204.394 279.92 204.474 281.62 204.394 283.5C204.354 283.98 204.094 284.22 203.614 284.22H185.074C184.834 284.22 184.754 284.32 184.834 284.52C184.954 285.32 185.174 286.12 185.494 286.92C186.534 289.16 188.654 290.28 191.854 290.28C194.414 290.24 196.434 289.2 197.914 287.16C198.074 286.92 198.254 286.8 198.454 286.8C198.574 286.8 198.714 286.88 198.874 287.04L203.194 291.3C203.394 291.5 203.494 291.68 203.494 291.84C203.494 291.92 203.414 292.08 203.254 292.32C201.934 293.96 200.234 295.24 198.154 296.16C196.074 297.04 193.794 297.48 191.314 297.48C187.874 297.48 184.954 296.7 182.554 295.14C180.194 293.58 178.494 291.4 177.454 288.6C176.614 286.6 176.194 283.98 176.194 280.74C176.194 278.54 176.494 276.6 177.094 274.92C178.014 272.08 179.614 269.82 181.894 268.14C184.214 266.46 186.954 265.62 190.114 265.62C194.114 265.62 197.314 266.78 199.714 269.1C202.154 271.42 203.634 274.52 204.154 278.4ZM190.174 272.94C187.654 272.94 185.994 274.12 185.194 276.48C185.034 277 184.894 277.64 184.774 278.4C184.774 278.6 184.874 278.7 185.074 278.7H195.454C195.694 278.7 195.774 278.6 195.694 278.4C195.494 277.24 195.394 276.68 195.394 276.72C195.034 275.52 194.394 274.6 193.474 273.96C192.594 273.28 191.494 272.94 190.174 272.94ZM221.498 297.42C218.818 297.42 216.478 297.04 214.478 296.28C212.478 295.52 210.918 294.46 209.798 293.1C208.718 291.74 208.178 290.2 208.178 288.48V287.88C208.178 287.68 208.238 287.52 208.358 287.4C208.518 287.24 208.698 287.16 208.898 287.16H215.558C215.758 287.16 215.918 287.24 216.038 287.4C216.198 287.52 216.278 287.68 216.278 287.88V287.94C216.278 288.82 216.758 289.58 217.718 290.22C218.718 290.82 219.958 291.12 221.438 291.12C222.798 291.12 223.898 290.86 224.738 290.34C225.578 289.78 225.998 289.1 225.998 288.3C225.998 287.58 225.638 287.04 224.918 286.68C224.198 286.32 223.018 285.94 221.378 285.54C219.498 285.06 218.018 284.6 216.938 284.16C214.378 283.28 212.338 282.2 210.818 280.92C209.298 279.64 208.538 277.8 208.538 275.4C208.538 272.44 209.678 270.1 211.958 268.38C214.278 266.62 217.338 265.74 221.138 265.74C223.698 265.74 225.938 266.16 227.858 267C229.778 267.8 231.258 268.94 232.298 270.42C233.378 271.9 233.918 273.58 233.918 275.46C233.918 275.66 233.838 275.84 233.678 276C233.558 276.12 233.398 276.18 233.198 276.18H226.778C226.578 276.18 226.398 276.12 226.238 276C226.118 275.84 226.058 275.66 226.058 275.46C226.058 274.58 225.598 273.84 224.678 273.24C223.798 272.64 222.618 272.34 221.138 272.34C219.818 272.34 218.738 272.58 217.898 273.06C217.058 273.54 216.638 274.2 216.638 275.04C216.638 275.84 217.038 276.44 217.838 276.84C218.678 277.24 220.058 277.66 221.978 278.1C222.418 278.22 222.918 278.36 223.478 278.52C224.038 278.64 224.638 278.8 225.278 279C228.118 279.84 230.358 280.92 231.998 282.24C233.638 283.56 234.458 285.48 234.458 288C234.458 290.96 233.278 293.28 230.918 294.96C228.598 296.6 225.458 297.42 221.498 297.42ZM256.957 272.22C256.957 272.42 256.877 272.6 256.717 272.76C256.597 272.88 256.437 272.94 256.237 272.94H250.477C250.277 272.94 250.177 273.04 250.177 273.24V285.96C250.177 287.28 250.437 288.26 250.957 288.9C251.517 289.54 252.397 289.86 253.597 289.86H255.577C255.777 289.86 255.937 289.94 256.057 290.1C256.217 290.22 256.297 290.38 256.297 290.58V296.28C256.297 296.72 256.057 296.98 255.577 297.06C253.897 297.14 252.697 297.18 251.977 297.18C248.657 297.18 246.177 296.64 244.537 295.56C242.897 294.44 242.057 292.36 242.017 289.32V273.24C242.017 273.04 241.917 272.94 241.717 272.94H238.297C238.097 272.94 237.917 272.88 237.757 272.76C237.637 272.6 237.577 272.42 237.577 272.22V266.88C237.577 266.68 237.637 266.52 237.757 266.4C237.917 266.24 238.097 266.16 238.297 266.16H241.717C241.917 266.16 242.017 266.06 242.017 265.86V258.72C242.017 258.52 242.077 258.36 242.197 258.24C242.357 258.08 242.537 258 242.737 258H249.457C249.657 258 249.817 258.08 249.937 258.24C250.097 258.36 250.177 258.52 250.177 258.72V265.86C250.177 266.06 250.277 266.16 250.477 266.16H256.237C256.437 266.16 256.597 266.24 256.717 266.4C256.877 266.52 256.957 266.68 256.957 266.88V272.22ZM277.41 265.74C278.85 265.74 279.99 266.02 280.83 266.58C281.15 266.74 281.27 267.04 281.19 267.48L279.93 274.32C279.89 274.8 279.61 274.94 279.09 274.74C278.49 274.54 277.79 274.44 276.99 274.44C276.67 274.44 276.23 274.48 275.67 274.56C274.23 274.68 273.01 275.22 272.01 276.18C271.01 277.1 270.51 278.34 270.51 279.9V296.28C270.51 296.48 270.43 296.66 270.27 296.82C270.15 296.94 269.99 297 269.79 297H262.77C262.57 297 262.39 296.94 262.23 296.82C262.11 296.66 262.05 296.48 262.05 296.28V266.88C262.05 266.68 262.11 266.52 262.23 266.4C262.39 266.24 262.57 266.16 262.77 266.16H269.79C269.99 266.16 270.15 266.24 270.27 266.4C270.43 266.52 270.51 266.68 270.51 266.88V269.16C270.51 269.28 270.55 269.36 270.63 269.4C270.71 269.44 270.77 269.42 270.81 269.34C272.45 266.94 274.65 265.74 277.41 265.74ZM303.018 266.88C303.018 266.68 303.078 266.52 303.198 266.4C303.358 266.24 303.538 266.16 303.738 266.16H310.758C310.958 266.16 311.118 266.24 311.238 266.4C311.398 266.52 311.478 266.68 311.478 266.88V296.28C311.478 296.48 311.398 296.66 311.238 296.82C311.118 296.94 310.958 297 310.758 297H303.738C303.538 297 303.358 296.94 303.198 296.82C303.078 296.66 303.018 296.48 303.018 296.28V294.24C303.018 294.12 302.978 294.06 302.898 294.06C302.818 294.02 302.738 294.06 302.658 294.18C301.058 296.34 298.578 297.42 295.218 297.42C292.178 297.42 289.678 296.5 287.718 294.66C285.758 292.82 284.778 290.24 284.778 286.92V266.88C284.778 266.68 284.838 266.52 284.958 266.4C285.118 266.24 285.298 266.16 285.498 266.16H292.458C292.658 266.16 292.818 266.24 292.938 266.4C293.098 266.52 293.178 266.68 293.178 266.88V284.82C293.178 286.42 293.598 287.72 294.438 288.72C295.318 289.72 296.518 290.22 298.038 290.22C299.398 290.22 300.518 289.82 301.398 289.02C302.278 288.18 302.818 287.1 303.018 285.78V266.88ZM331.274 297.48C328.074 297.48 325.294 296.68 322.934 295.08C320.614 293.48 318.954 291.28 317.954 288.48C317.274 286.48 316.934 284.12 316.934 281.4C316.934 278.72 317.274 276.4 317.954 274.44C318.914 271.72 320.574 269.58 322.934 268.02C325.294 266.46 328.074 265.68 331.274 265.68C334.474 265.68 337.274 266.48 339.674 268.08C342.114 269.68 343.734 271.7 344.534 274.14C344.854 275.1 345.014 275.82 345.014 276.3V276.42C345.014 276.78 344.814 277 344.414 277.08L337.514 278.1H337.394C337.034 278.1 336.794 277.9 336.674 277.5L336.494 276.54C336.214 275.5 335.594 274.64 334.634 273.96C333.674 273.28 332.534 272.94 331.214 272.94C329.934 272.94 328.854 273.26 327.974 273.9C327.094 274.54 326.474 275.42 326.114 276.54C325.674 277.74 325.454 279.38 325.454 281.46C325.454 283.54 325.654 285.18 326.054 286.38C326.414 287.58 327.034 288.52 327.914 289.2C328.834 289.88 329.934 290.22 331.214 290.22C332.454 290.22 333.534 289.9 334.454 289.26C335.414 288.58 336.074 287.66 336.434 286.5C336.474 286.42 336.494 286.3 336.494 286.14C336.534 286.1 336.554 286.04 336.554 285.96C336.594 285.48 336.874 285.28 337.394 285.36L344.294 286.44C344.694 286.52 344.894 286.74 344.894 287.1C344.894 287.42 344.774 288.02 344.534 288.9C343.694 291.58 342.054 293.68 339.614 295.2C337.214 296.72 334.434 297.48 331.274 297.48ZM367.64 272.22C367.64 272.42 367.56 272.6 367.4 272.76C367.28 272.88 367.12 272.94 366.92 272.94H361.16C360.96 272.94 360.86 273.04 360.86 273.24V285.96C360.86 287.28 361.12 288.26 361.64 288.9C362.2 289.54 363.08 289.86 364.28 289.86H366.26C366.46 289.86 366.62 289.94 366.74 290.1C366.9 290.22 366.98 290.38 366.98 290.58V296.28C366.98 296.72 366.74 296.98 366.26 297.06C364.58 297.14 363.38 297.18 362.66 297.18C359.34 297.18 356.86 296.64 355.22 295.56C353.58 294.44 352.74 292.36 352.7 289.32V273.24C352.7 273.04 352.6 272.94 352.4 272.94H348.98C348.78 272.94 348.6 272.88 348.44 272.76C348.32 272.6 348.26 272.42 348.26 272.22V266.88C348.26 266.68 348.32 266.52 348.44 266.4C348.6 266.24 348.78 266.16 348.98 266.16H352.4C352.6 266.16 352.7 266.06 352.7 265.86V258.72C352.7 258.52 352.76 258.36 352.88 258.24C353.04 258.08 353.22 258 353.42 258H360.14C360.34 258 360.5 258.08 360.62 258.24C360.78 258.36 360.86 258.52 360.86 258.72V265.86C360.86 266.06 360.96 266.16 361.16 266.16H366.92C367.12 266.16 367.28 266.24 367.4 266.4C367.56 266.52 367.64 266.68 367.64 266.88V272.22ZM390.733 266.88C390.733 266.68 390.793 266.52 390.913 266.4C391.073 266.24 391.253 266.16 391.453 266.16H398.473C398.673 266.16 398.833 266.24 398.953 266.4C399.113 266.52 399.193 266.68 399.193 266.88V296.28C399.193 296.48 399.113 296.66 398.953 296.82C398.833 296.94 398.673 297 398.473 297H391.453C391.253 297 391.073 296.94 390.913 296.82C390.793 296.66 390.733 296.48 390.733 296.28V294.24C390.733 294.12 390.693 294.06 390.613 294.06C390.533 294.02 390.453 294.06 390.373 294.18C388.773 296.34 386.293 297.42 382.933 297.42C379.893 297.42 377.393 296.5 375.433 294.66C373.473 292.82 372.493 290.24 372.493 286.92V266.88C372.493 266.68 372.553 266.52 372.673 266.4C372.833 266.24 373.013 266.16 373.213 266.16H380.173C380.373 266.16 380.533 266.24 380.653 266.4C380.813 266.52 380.893 266.68 380.893 266.88V284.82C380.893 286.42 381.313 287.72 382.153 288.72C383.033 289.72 384.233 290.22 385.753 290.22C387.113 290.22 388.233 289.82 389.113 289.02C389.993 288.18 390.533 287.1 390.733 285.78V266.88ZM420.789 265.74C422.229 265.74 423.369 266.02 424.209 266.58C424.529 266.74 424.649 267.04 424.569 267.48L423.309 274.32C423.269 274.8 422.989 274.94 422.469 274.74C421.869 274.54 421.169 274.44 420.369 274.44C420.049 274.44 419.609 274.48 419.049 274.56C417.609 274.68 416.389 275.22 415.389 276.18C414.389 277.1 413.889 278.34 413.889 279.9V296.28C413.889 296.48 413.809 296.66 413.649 296.82C413.529 296.94 413.369 297 413.169 297H406.149C405.949 297 405.769 296.94 405.609 296.82C405.489 296.66 405.429 296.48 405.429 296.28V266.88C405.429 266.68 405.489 266.52 405.609 266.4C405.769 266.24 405.949 266.16 406.149 266.16H413.169C413.369 266.16 413.529 266.24 413.649 266.4C413.809 266.52 413.889 266.68 413.889 266.88V269.16C413.889 269.28 413.929 269.36 414.009 269.4C414.089 269.44 414.149 269.42 414.189 269.34C415.829 266.94 418.029 265.74 420.789 265.74ZM432.957 262.68C431.597 262.68 430.457 262.24 429.537 261.36C428.657 260.44 428.217 259.3 428.217 257.94C428.217 256.54 428.657 255.4 429.537 254.52C430.417 253.64 431.557 253.2 432.957 253.2C434.357 253.2 435.497 253.64 436.377 254.52C437.257 255.4 437.697 256.54 437.697 257.94C437.697 259.3 437.237 260.44 436.317 261.36C435.437 262.24 434.317 262.68 432.957 262.68ZM429.357 297C429.157 297 428.977 296.94 428.817 296.82C428.697 296.66 428.637 296.48 428.637 296.28V266.82C428.637 266.62 428.697 266.46 428.817 266.34C428.977 266.18 429.157 266.1 429.357 266.1H436.377C436.577 266.1 436.737 266.18 436.857 266.34C437.017 266.46 437.097 266.62 437.097 266.82V296.28C437.097 296.48 437.017 296.66 436.857 296.82C436.737 296.94 436.577 297 436.377 297H429.357ZM459.77 265.68C462.97 265.68 465.55 266.66 467.51 268.62C469.47 270.58 470.45 273.24 470.45 276.6V296.28C470.45 296.48 470.37 296.66 470.21 296.82C470.09 296.94 469.93 297 469.73 297H462.71C462.51 297 462.33 296.94 462.17 296.82C462.05 296.66 461.99 296.48 461.99 296.28V278.34C461.99 276.74 461.53 275.44 460.61 274.44C459.73 273.44 458.55 272.94 457.07 272.94C455.59 272.94 454.39 273.44 453.47 274.44C452.59 275.44 452.15 276.74 452.15 278.34V296.28C452.15 296.48 452.07 296.66 451.91 296.82C451.79 296.94 451.63 297 451.43 297H444.41C444.21 297 444.03 296.94 443.87 296.82C443.75 296.66 443.69 296.48 443.69 296.28V266.88C443.69 266.68 443.75 266.52 443.87 266.4C444.03 266.24 444.21 266.16 444.41 266.16H451.43C451.63 266.16 451.79 266.24 451.91 266.4C452.07 266.52 452.15 266.68 452.15 266.88V268.98C452.15 269.1 452.19 269.18 452.27 269.22C452.35 269.26 452.41 269.24 452.45 269.16C454.09 266.84 456.53 265.68 459.77 265.68ZM495.343 266.88C495.343 266.68 495.403 266.52 495.523 266.4C495.683 266.24 495.863 266.16 496.063 266.16H503.083C503.283 266.16 503.443 266.24 503.563 266.4C503.723 266.52 503.803 266.68 503.803 266.88V294.24C503.803 299.48 502.283 303.22 499.243 305.46C496.243 307.7 492.363 308.82 487.603 308.82C486.203 308.82 484.643 308.72 482.923 308.52C482.523 308.48 482.323 308.22 482.323 307.74L482.563 301.56C482.563 301.04 482.843 300.82 483.403 300.9C484.843 301.14 486.163 301.26 487.363 301.26C489.923 301.26 491.883 300.7 493.243 299.58C494.643 298.46 495.343 296.66 495.343 294.18C495.343 294.06 495.303 294 495.223 294C495.143 293.96 495.063 293.98 494.983 294.06C493.463 295.7 491.243 296.52 488.323 296.52C485.723 296.52 483.323 295.9 481.123 294.66C478.963 293.38 477.423 291.34 476.503 288.54C475.903 286.7 475.603 284.32 475.603 281.4C475.603 278.28 475.963 275.74 476.683 273.78C477.523 271.34 478.943 269.38 480.943 267.9C482.943 266.42 485.263 265.68 487.903 265.68C490.983 265.68 493.343 266.6 494.983 268.44C495.063 268.52 495.143 268.56 495.223 268.56C495.303 268.52 495.343 268.44 495.343 268.32V266.88ZM494.863 286.26C495.183 285.06 495.343 283.42 495.343 281.34C495.343 280.1 495.303 279.14 495.223 278.46C495.143 277.78 495.003 277.14 494.803 276.54C494.443 275.46 493.843 274.6 493.003 273.96C492.163 273.28 491.123 272.94 489.883 272.94C488.683 272.94 487.663 273.28 486.823 273.96C485.983 274.6 485.363 275.46 484.963 276.54C484.403 277.74 484.123 279.36 484.123 281.4C484.123 283.64 484.363 285.24 484.843 286.2C485.203 287.28 485.823 288.16 486.703 288.84C487.623 289.48 488.703 289.8 489.943 289.8C491.223 289.8 492.283 289.48 493.123 288.84C493.963 288.16 494.543 287.3 494.863 286.26ZM539.734 254.94C542.374 254.94 544.694 255.48 546.694 256.56C548.694 257.64 550.234 259.18 551.314 261.18C552.434 263.14 552.994 265.4 552.994 267.96C552.994 270.48 552.414 272.7 551.254 274.62C550.134 276.54 548.534 278.04 546.454 279.12C544.414 280.16 542.054 280.68 539.374 280.68H530.854C530.654 280.68 530.554 280.78 530.554 280.98V296.28C530.554 296.48 530.474 296.66 530.314 296.82C530.194 296.94 530.034 297 529.834 297H522.814C522.614 297 522.434 296.94 522.274 296.82C522.154 296.66 522.094 296.48 522.094 296.28V255.66C522.094 255.46 522.154 255.3 522.274 255.18C522.434 255.02 522.614 254.94 522.814 254.94H539.734ZM538.474 273.9C540.314 273.9 541.794 273.38 542.914 272.34C544.034 271.26 544.594 269.86 544.594 268.14C544.594 266.38 544.034 264.96 542.914 263.88C541.794 262.8 540.314 262.26 538.474 262.26H530.854C530.654 262.26 530.554 262.36 530.554 262.56V273.6C530.554 273.8 530.654 273.9 530.854 273.9H538.474ZM573.015 265.74C574.455 265.74 575.595 266.02 576.435 266.58C576.755 266.74 576.875 267.04 576.795 267.48L575.535 274.32C575.495 274.8 575.215 274.94 574.695 274.74C574.095 274.54 573.395 274.44 572.595 274.44C572.275 274.44 571.835 274.48 571.275 274.56C569.835 274.68 568.615 275.22 567.615 276.18C566.615 277.1 566.115 278.34 566.115 279.9V296.28C566.115 296.48 566.035 296.66 565.875 296.82C565.755 296.94 565.595 297 565.395 297H558.375C558.175 297 557.995 296.94 557.835 296.82C557.715 296.66 557.655 296.48 557.655 296.28V266.88C557.655 266.68 557.715 266.52 557.835 266.4C557.995 266.24 558.175 266.16 558.375 266.16H565.395C565.595 266.16 565.755 266.24 565.875 266.4C566.035 266.52 566.115 266.68 566.115 266.88V269.16C566.115 269.28 566.155 269.36 566.235 269.4C566.315 269.44 566.375 269.42 566.415 269.34C568.055 266.94 570.255 265.74 573.015 265.74ZM585.184 262.68C583.824 262.68 582.684 262.24 581.764 261.36C580.884 260.44 580.444 259.3 580.444 257.94C580.444 256.54 580.884 255.4 581.764 254.52C582.644 253.64 583.784 253.2 585.184 253.2C586.584 253.2 587.724 253.64 588.604 254.52C589.484 255.4 589.924 256.54 589.924 257.94C589.924 259.3 589.464 260.44 588.544 261.36C587.664 262.24 586.544 262.68 585.184 262.68ZM581.584 297C581.384 297 581.204 296.94 581.044 296.82C580.924 296.66 580.864 296.48 580.864 296.28V266.82C580.864 266.62 580.924 266.46 581.044 266.34C581.204 266.18 581.384 266.1 581.584 266.1H588.604C588.804 266.1 588.964 266.18 589.084 266.34C589.244 266.46 589.324 266.62 589.324 266.82V296.28C589.324 296.48 589.244 296.66 589.084 296.82C588.964 296.94 588.804 297 588.604 297H581.584ZM608.217 297.42C605.537 297.42 603.197 297.04 601.197 296.28C599.197 295.52 597.637 294.46 596.517 293.1C595.437 291.74 594.897 290.2 594.897 288.48V287.88C594.897 287.68 594.957 287.52 595.077 287.4C595.237 287.24 595.417 287.16 595.617 287.16H602.277C602.477 287.16 602.637 287.24 602.757 287.4C602.917 287.52 602.997 287.68 602.997 287.88V287.94C602.997 288.82 603.477 289.58 604.437 290.22C605.437 290.82 606.677 291.12 608.157 291.12C609.517 291.12 610.617 290.86 611.457 290.34C612.297 289.78 612.717 289.1 612.717 288.3C612.717 287.58 612.357 287.04 611.637 286.68C610.917 286.32 609.737 285.94 608.097 285.54C606.217 285.06 604.737 284.6 603.657 284.16C601.097 283.28 599.057 282.2 597.537 280.92C596.017 279.64 595.257 277.8 595.257 275.4C595.257 272.44 596.397 270.1 598.677 268.38C600.997 266.62 604.057 265.74 607.857 265.74C610.417 265.74 612.657 266.16 614.577 267C616.497 267.8 617.977 268.94 619.017 270.42C620.097 271.9 620.637 273.58 620.637 275.46C620.637 275.66 620.557 275.84 620.397 276C620.277 276.12 620.117 276.18 619.917 276.18H613.497C613.297 276.18 613.117 276.12 612.957 276C612.837 275.84 612.777 275.66 612.777 275.46C612.777 274.58 612.317 273.84 611.397 273.24C610.517 272.64 609.337 272.34 607.857 272.34C606.537 272.34 605.457 272.58 604.617 273.06C603.777 273.54 603.357 274.2 603.357 275.04C603.357 275.84 603.757 276.44 604.557 276.84C605.397 277.24 606.777 277.66 608.697 278.1C609.137 278.22 609.637 278.36 610.197 278.52C610.757 278.64 611.357 278.8 611.997 279C614.837 279.84 617.077 280.92 618.717 282.24C620.357 283.56 621.177 285.48 621.177 288C621.177 290.96 619.997 293.28 617.637 294.96C615.317 296.6 612.177 297.42 608.217 297.42ZM660.234 265.68C663.354 265.68 665.794 266.62 667.554 268.5C669.314 270.38 670.194 273.02 670.194 276.42V296.28C670.194 296.48 670.114 296.66 669.954 296.82C669.834 296.94 669.674 297 669.474 297H662.454C662.254 297 662.074 296.94 661.914 296.82C661.794 296.66 661.734 296.48 661.734 296.28V278.28C661.734 276.64 661.314 275.34 660.474 274.38C659.634 273.42 658.514 272.94 657.114 272.94C655.714 272.94 654.574 273.42 653.694 274.38C652.814 275.34 652.374 276.62 652.374 278.22V296.28C652.374 296.48 652.294 296.66 652.134 296.82C652.014 296.94 651.854 297 651.654 297H644.694C644.494 297 644.314 296.94 644.154 296.82C644.034 296.66 643.974 296.48 643.974 296.28V278.28C643.974 276.68 643.534 275.4 642.654 274.44C641.774 273.44 640.634 272.94 639.234 272.94C637.954 272.94 636.874 273.32 635.994 274.08C635.154 274.84 634.654 275.9 634.494 277.26V296.28C634.494 296.48 634.414 296.66 634.254 296.82C634.134 296.94 633.974 297 633.774 297H626.754C626.554 297 626.374 296.94 626.214 296.82C626.094 296.66 626.034 296.48 626.034 296.28V266.88C626.034 266.68 626.094 266.52 626.214 266.4C626.374 266.24 626.554 266.16 626.754 266.16H633.774C633.974 266.16 634.134 266.24 634.254 266.4C634.414 266.52 634.494 266.68 634.494 266.88V269.22C634.494 269.34 634.534 269.42 634.614 269.46C634.694 269.5 634.774 269.46 634.854 269.34C636.494 266.9 639.034 265.68 642.474 265.68C644.474 265.68 646.214 266.1 647.694 266.94C649.214 267.78 650.374 268.98 651.174 270.54C651.294 270.78 651.434 270.78 651.594 270.54C652.474 268.9 653.654 267.68 655.134 266.88C656.654 266.08 658.354 265.68 660.234 265.68ZM688.432 265.68C691.032 265.68 693.352 266.14 695.392 267.06C697.432 267.94 699.012 269.16 700.132 270.72C701.292 272.28 701.872 274.02 701.872 275.94V296.28C701.872 296.48 701.792 296.66 701.632 296.82C701.512 296.94 701.352 297 701.152 297H694.132C693.932 297 693.752 296.94 693.592 296.82C693.472 296.66 693.412 296.48 693.412 296.28V294.3C693.412 294.18 693.372 294.1 693.292 294.06C693.212 294.02 693.132 294.06 693.052 294.18C691.372 296.38 688.672 297.48 684.952 297.48C681.832 297.48 679.312 296.72 677.392 295.2C675.472 293.68 674.512 291.44 674.512 288.48C674.512 285.4 675.592 283.02 677.752 281.34C679.912 279.62 682.992 278.76 686.992 278.76H693.112C693.312 278.76 693.412 278.66 693.412 278.46V277.14C693.412 275.82 693.012 274.8 692.212 274.08C691.412 273.32 690.212 272.94 688.612 272.94C687.372 272.94 686.332 273.16 685.492 273.6C684.692 274.04 684.172 274.66 683.932 275.46C683.812 275.9 683.552 276.1 683.152 276.06L675.892 275.1C675.412 275.02 675.192 274.84 675.232 274.56C675.392 272.88 676.052 271.36 677.212 270C678.412 268.64 679.972 267.58 681.892 266.82C683.852 266.06 686.032 265.68 688.432 265.68ZM687.232 291.18C688.952 291.18 690.412 290.72 691.612 289.8C692.812 288.88 693.412 287.7 693.412 286.26V284.1C693.412 283.9 693.312 283.8 693.112 283.8H688.792C686.992 283.8 685.572 284.14 684.532 284.82C683.532 285.5 683.032 286.46 683.032 287.7C683.032 288.78 683.412 289.64 684.172 290.28C684.932 290.88 685.952 291.18 687.232 291.18Z"></path>
<rect stroke-width="1.60952" stroke="#7F9CF5" height="37.078" width="37.078" y="242.836" x="0.72639"></rect>
<rect stroke-width="1.60952" stroke="#7F9CF5" height="37.078" width="37.078" y="205.703" x="0.72639"></rect>
<rect stroke-width="1.60952" stroke="#7F9CF5" height="37.078" width="37.078" y="88.0938" x="0.72639"></rect>
<rect stroke-width="1.60952" stroke="#7F9CF5" height="38.6092" width="37.078" y="434.688" x="112.671"></rect>
<rect stroke-width="1.60952" stroke="#7F9CF5" height="38.6092" width="37.078" y="454.781" x="190.045"></rect>
<rect stroke-width="1.60952" stroke="#7F9CF5" height="38.6092" width="37.078" y="0.836009" x="732.534"></rect>
<rect stroke-width="1.60952" stroke="#7F9CF5" height="38.6092" width="37.078" y="0.836009" x="659.173"></rect>
<rect stroke-width="1.60952" stroke="#7F9CF5" height="38.6092" width="37.078" y="-23.1562" x="585.812"></rect>
<rect stroke-width="1.60952" stroke="#7F9CF5" height="37.078" width="37.078" y="300.867" x="806.117"></rect>
<rect stroke-width="1.60952" stroke="#7F9CF5" height="37.078" width="37.078" y="378.242" x="806.117"></rect>
</g>
<defs>
<filter color-interpolation-filters="sRGB" filterUnits="userSpaceOnUse" height="49.8269" width="43.758" y="141.75" x="400.717" id="filter0_d_7338_3142">
<feFlood result="BackgroundImageFix" flood-opacity="0"></feFlood>
<feColorMatrix result="hardAlpha" values="0 0 0 0 0 0 0 0 0 0 0 0 0 0 0 0 0 0 127 0" type="matrix" in="SourceAlpha"></feColorMatrix>
<feOffset dy="1.0075"></feOffset>
<feGaussianBlur stdDeviation="1.0075"></feGaussianBlur>
<feColorMatrix values="0 0 0 0 0.0114414 0 0 0 0 0.0718556 0 0 0 0 0.10917 0 0 0 0.1 0" type="matrix"></feColorMatrix>
<feBlend result="effect1_dropShadow_7338_3142" in2="BackgroundImageFix" mode="normal"></feBlend>
<feBlend result="shape" in2="effect1_dropShadow_7338_3142" in="SourceGraphic" mode="normal"></feBlend>
</filter>
<radialGradient gradientTransform="translate(410.761 237) rotate(-94.1036) scale(581.577 1035.55)" gradientUnits="userSpaceOnUse" r="1" cy="0" cx="0" id="paint0_radial_7338_3142">
<stop stop-color="#667EEA" offset="0.311258"></stop>
<stop stop-color="#4C51BF" offset="0.667745"></stop>
</radialGradient>
<clipPath id="clip0_7338_3142">
<rect fill="white" height="474" width="844"></rect>
</clipPath>
</defs>
</svg>
