<svg xmlns="http://www.w3.org/2000/svg" fill="none" viewBox="0 0 844 474" height="474" width="844">
<g clip-path="url(#clip0_1089_37428)">
<rect fill="url(#paint0_linear_1089_37428)" height="474" width="844"></rect>
<path fill="white" d="M62 93.98C62.88 93.98 63.6533 94.16 64.32 94.52C64.9867 94.88 65.5 95.3933 65.86 96.06C66.2333 96.7133 66.42 97.4667 66.42 98.32C66.42 99.16 66.2267 99.9 65.84 100.54C65.4667 101.18 64.9333 101.68 64.24 102.04C63.56 102.387 62.7733 102.56 61.88 102.56H59.04C58.9733 102.56 58.94 102.593 58.94 102.66V107.76C58.94 107.827 58.9133 107.887 58.86 107.94C58.82 107.98 58.7667 108 58.7 108H56.36C56.2933 108 56.2333 107.98 56.18 107.94C56.14 107.887 56.12 107.827 56.12 107.76V94.22C56.12 94.1533 56.14 94.1 56.18 94.06C56.2333 94.0067 56.2933 93.98 56.36 93.98H62ZM61.58 100.3C62.1933 100.3 62.6867 100.127 63.06 99.78C63.4333 99.42 63.62 98.9533 63.62 98.38C63.62 97.7933 63.4333 97.32 63.06 96.96C62.6867 96.6 62.1933 96.42 61.58 96.42H59.04C58.9733 96.42 58.94 96.4533 58.94 96.52V100.2C58.94 100.267 58.9733 100.3 59.04 100.3H61.58ZM77.8336 108C77.7003 108 77.6069 107.94 77.5536 107.82L75.0536 102.28C75.0269 102.227 74.9869 102.2 74.9336 102.2H73.0736C73.0069 102.2 72.9736 102.233 72.9736 102.3V107.76C72.9736 107.827 72.9469 107.887 72.8936 107.94C72.8536 107.98 72.8003 108 72.7336 108H70.3936C70.3269 108 70.2669 107.98 70.2136 107.94C70.1736 107.887 70.1536 107.827 70.1536 107.76V94.24C70.1536 94.1733 70.1736 94.12 70.2136 94.08C70.2669 94.0267 70.3269 94 70.3936 94H76.1136C76.9669 94 77.7136 94.1733 78.3536 94.52C79.0069 94.8667 79.5069 95.36 79.8536 96C80.2136 96.64 80.3936 97.38 80.3936 98.22C80.3936 99.1267 80.1669 99.9067 79.7136 100.56C79.2603 101.2 78.6269 101.653 77.8136 101.92C77.7469 101.947 77.7269 101.993 77.7536 102.06L80.4736 107.72C80.5003 107.773 80.5136 107.813 80.5136 107.84C80.5136 107.947 80.4403 108 80.2936 108H77.8336ZM73.0736 96.42C73.0069 96.42 72.9736 96.4533 72.9736 96.52V99.94C72.9736 100.007 73.0069 100.04 73.0736 100.04H75.6936C76.2536 100.04 76.7069 99.8733 77.0536 99.54C77.4136 99.2067 77.5936 98.7733 77.5936 98.24C77.5936 97.7067 77.4136 97.2733 77.0536 96.94C76.7069 96.5933 76.2536 96.42 75.6936 96.42H73.0736ZM84.6788 108C84.6121 108 84.5521 107.98 84.4988 107.94C84.4588 107.887 84.4388 107.827 84.4388 107.76V94.24C84.4388 94.1733 84.4588 94.12 84.4988 94.08C84.5521 94.0267 84.6121 94 84.6788 94H87.0188C87.0854 94 87.1388 94.0267 87.1788 94.08C87.2321 94.12 87.2588 94.1733 87.2588 94.24V107.76C87.2588 107.827 87.2321 107.887 87.1788 107.94C87.1388 107.98 87.0854 108 87.0188 108H84.6788ZM96.4927 108.16C95.426 108.16 94.4927 107.993 93.6927 107.66C92.8927 107.313 92.2727 106.827 91.8327 106.2C91.406 105.56 91.1927 104.82 91.1927 103.98V103.54C91.1927 103.473 91.2127 103.42 91.2527 103.38C91.306 103.327 91.366 103.3 91.4327 103.3H93.7127C93.7793 103.3 93.8327 103.327 93.8727 103.38C93.926 103.42 93.9527 103.473 93.9527 103.54V103.84C93.9527 104.373 94.1993 104.827 94.6927 105.2C95.186 105.56 95.8527 105.74 96.6927 105.74C97.3993 105.74 97.926 105.593 98.2727 105.3C98.6193 104.993 98.7927 104.62 98.7927 104.18C98.7927 103.86 98.686 103.593 98.4727 103.38C98.2593 103.153 97.966 102.96 97.5927 102.8C97.2327 102.627 96.6527 102.393 95.8527 102.1C94.9593 101.793 94.1993 101.48 93.5727 101.16C92.9593 100.84 92.4393 100.407 92.0127 99.86C91.5993 99.3 91.3927 98.6133 91.3927 97.8C91.3927 97 91.5993 96.3 92.0127 95.7C92.426 95.1 92.9993 94.64 93.7327 94.32C94.466 94 95.3127 93.84 96.2727 93.84C97.286 93.84 98.186 94.02 98.9727 94.38C99.7727 94.74 100.393 95.2467 100.833 95.9C101.286 96.54 101.513 97.2867 101.513 98.14V98.44C101.513 98.5067 101.486 98.5667 101.433 98.62C101.393 98.66 101.339 98.68 101.273 98.68H98.9727C98.906 98.68 98.846 98.66 98.7927 98.62C98.7527 98.5667 98.7327 98.5067 98.7327 98.44V98.28C98.7327 97.72 98.4993 97.2467 98.0327 96.86C97.5793 96.46 96.9527 96.26 96.1527 96.26C95.526 96.26 95.0327 96.3933 94.6727 96.66C94.326 96.9267 94.1527 97.2933 94.1527 97.76C94.1527 98.0933 94.2527 98.3733 94.4527 98.6C94.666 98.8267 94.9727 99.0333 95.3727 99.22C95.786 99.3933 96.4193 99.6333 97.2727 99.94C98.2193 100.287 98.9593 100.593 99.4927 100.86C100.039 101.127 100.526 101.527 100.953 102.06C101.393 102.58 101.613 103.26 101.613 104.1C101.613 105.353 101.153 106.347 100.233 107.08C99.3127 107.8 98.066 108.16 96.4927 108.16ZM114.587 94.16C114.654 94.0533 114.747 94 114.867 94H117.207C117.274 94 117.327 94.0267 117.367 94.08C117.421 94.12 117.447 94.1733 117.447 94.24V107.76C117.447 107.827 117.421 107.887 117.367 107.94C117.327 107.98 117.274 108 117.207 108H114.867C114.801 108 114.741 107.98 114.687 107.94C114.647 107.887 114.627 107.827 114.627 107.76V98.94C114.627 98.8867 114.614 98.86 114.587 98.86C114.561 98.86 114.534 98.88 114.507 98.92L112.387 102.24C112.321 102.347 112.227 102.4 112.107 102.4H110.927C110.807 102.4 110.714 102.347 110.647 102.24L108.527 98.92C108.501 98.88 108.474 98.8667 108.447 98.88C108.421 98.88 108.407 98.9067 108.407 98.96V107.76C108.407 107.827 108.381 107.887 108.327 107.94C108.287 107.98 108.234 108 108.167 108H105.827C105.761 108 105.701 107.98 105.647 107.94C105.607 107.887 105.587 107.827 105.587 107.76V94.24C105.587 94.1733 105.607 94.12 105.647 94.08C105.701 94.0267 105.761 94 105.827 94H108.167C108.287 94 108.381 94.0533 108.447 94.16L111.447 98.82C111.487 98.9 111.527 98.9 111.567 98.82L114.587 94.16ZM130.784 108C130.651 108 130.564 107.933 130.524 107.8L129.924 105.84C129.897 105.787 129.864 105.76 129.824 105.76H124.904C124.864 105.76 124.831 105.787 124.804 105.84L124.224 107.8C124.184 107.933 124.097 108 123.964 108H121.424C121.344 108 121.284 107.98 121.244 107.94C121.204 107.887 121.197 107.813 121.224 107.72L125.544 94.2C125.584 94.0667 125.671 94 125.804 94H128.944C129.077 94 129.164 94.0667 129.204 94.2L133.524 107.72C133.537 107.747 133.544 107.78 133.544 107.82C133.544 107.94 133.471 108 133.324 108H130.784ZM125.524 103.46C125.511 103.54 125.537 103.58 125.604 103.58H129.124C129.204 103.58 129.231 103.54 129.204 103.46L127.404 97.52C127.391 97.4667 127.371 97.4467 127.344 97.46C127.317 97.46 127.297 97.48 127.284 97.52L125.524 103.46ZM148.286 108.22C147.246 108.22 146.326 108.007 145.526 107.58C144.739 107.153 144.126 106.56 143.686 105.8C143.246 105.027 143.026 104.14 143.026 103.14V98.86C143.026 97.8733 143.246 97 143.686 96.24C144.126 95.48 144.739 94.8933 145.526 94.48C146.326 94.0533 147.246 93.84 148.286 93.84C149.339 93.84 150.259 94.0533 151.046 94.48C151.846 94.8933 152.466 95.48 152.906 96.24C153.346 97 153.566 97.8733 153.566 98.86V103.14C153.566 104.14 153.346 105.027 152.906 105.8C152.466 106.573 151.846 107.173 151.046 107.6C150.259 108.013 149.339 108.22 148.286 108.22ZM148.286 105.8C149.019 105.8 149.613 105.567 150.066 105.1C150.519 104.633 150.746 104.013 150.746 103.24V98.84C150.746 98.0667 150.519 97.4467 150.066 96.98C149.626 96.5 149.033 96.26 148.286 96.26C147.553 96.26 146.959 96.5 146.506 96.98C146.066 97.4467 145.846 98.0667 145.846 98.84V103.24C145.846 104.013 146.066 104.633 146.506 105.1C146.959 105.567 147.553 105.8 148.286 105.8ZM165.408 108C165.274 108 165.181 107.94 165.128 107.82L162.628 102.28C162.601 102.227 162.561 102.2 162.508 102.2H160.648C160.581 102.2 160.548 102.233 160.548 102.3V107.76C160.548 107.827 160.521 107.887 160.468 107.94C160.428 107.98 160.374 108 160.308 108H157.968C157.901 108 157.841 107.98 157.788 107.94C157.748 107.887 157.728 107.827 157.728 107.76V94.24C157.728 94.1733 157.748 94.12 157.788 94.08C157.841 94.0267 157.901 94 157.968 94H163.688C164.541 94 165.288 94.1733 165.928 94.52C166.581 94.8667 167.081 95.36 167.428 96C167.788 96.64 167.968 97.38 167.968 98.22C167.968 99.1267 167.741 99.9067 167.288 100.56C166.834 101.2 166.201 101.653 165.388 101.92C165.321 101.947 165.301 101.993 165.328 102.06L168.048 107.72C168.074 107.773 168.088 107.813 168.088 107.84C168.088 107.947 168.014 108 167.868 108H165.408ZM160.648 96.42C160.581 96.42 160.548 96.4533 160.548 96.52V99.94C160.548 100.007 160.581 100.04 160.648 100.04H163.268C163.828 100.04 164.281 99.8733 164.628 99.54C164.988 99.2067 165.168 98.7733 165.168 98.24C165.168 97.7067 164.988 97.2733 164.628 96.94C164.281 96.5933 163.828 96.42 163.268 96.42H160.648ZM181.013 94.16C181.08 94.0533 181.173 94 181.293 94H183.633C183.7 94 183.753 94.0267 183.793 94.08C183.846 94.12 183.873 94.1733 183.873 94.24V107.76C183.873 107.827 183.846 107.887 183.793 107.94C183.753 107.98 183.7 108 183.633 108H181.293C181.226 108 181.166 107.98 181.113 107.94C181.073 107.887 181.053 107.827 181.053 107.76V98.94C181.053 98.8867 181.04 98.86 181.013 98.86C180.986 98.86 180.96 98.88 180.933 98.92L178.813 102.24C178.746 102.347 178.653 102.4 178.533 102.4H177.353C177.233 102.4 177.14 102.347 177.073 102.24L174.953 98.92C174.926 98.88 174.9 98.8667 174.873 98.88C174.846 98.88 174.833 98.9067 174.833 98.96V107.76C174.833 107.827 174.806 107.887 174.753 107.94C174.713 107.98 174.66 108 174.593 108H172.253C172.186 108 172.126 107.98 172.073 107.94C172.033 107.887 172.013 107.827 172.013 107.76V94.24C172.013 94.1733 172.033 94.12 172.073 94.08C172.126 94.0267 172.186 94 172.253 94H174.593C174.713 94 174.806 94.0533 174.873 94.16L177.873 98.82C177.913 98.9 177.953 98.9 177.993 98.82L181.013 94.16ZM194.554 108C194.487 108 194.427 107.98 194.374 107.94C194.334 107.887 194.314 107.827 194.314 107.76V94.24C194.314 94.1733 194.334 94.12 194.374 94.08C194.427 94.0267 194.487 94 194.554 94H196.894C196.96 94 197.014 94.0267 197.054 94.08C197.107 94.12 197.134 94.1733 197.134 94.24V107.76C197.134 107.827 197.107 107.887 197.054 107.94C197.014 107.98 196.96 108 196.894 108H194.554ZM206.368 108.16C205.301 108.16 204.368 107.993 203.568 107.66C202.768 107.313 202.148 106.827 201.708 106.2C201.281 105.56 201.068 104.82 201.068 103.98V103.54C201.068 103.473 201.088 103.42 201.128 103.38C201.181 103.327 201.241 103.3 201.308 103.3H203.588C203.654 103.3 203.708 103.327 203.748 103.38C203.801 103.42 203.828 103.473 203.828 103.54V103.84C203.828 104.373 204.074 104.827 204.568 105.2C205.061 105.56 205.728 105.74 206.568 105.74C207.274 105.74 207.801 105.593 208.148 105.3C208.494 104.993 208.668 104.62 208.668 104.18C208.668 103.86 208.561 103.593 208.348 103.38C208.134 103.153 207.841 102.96 207.468 102.8C207.108 102.627 206.528 102.393 205.728 102.1C204.834 101.793 204.074 101.48 203.448 101.16C202.834 100.84 202.314 100.407 201.888 99.86C201.474 99.3 201.268 98.6133 201.268 97.8C201.268 97 201.474 96.3 201.888 95.7C202.301 95.1 202.874 94.64 203.608 94.32C204.341 94 205.188 93.84 206.148 93.84C207.161 93.84 208.061 94.02 208.848 94.38C209.648 94.74 210.268 95.2467 210.708 95.9C211.161 96.54 211.388 97.2867 211.388 98.14V98.44C211.388 98.5067 211.361 98.5667 211.308 98.62C211.268 98.66 211.214 98.68 211.148 98.68H208.848C208.781 98.68 208.721 98.66 208.668 98.62C208.628 98.5667 208.608 98.5067 208.608 98.44V98.28C208.608 97.72 208.374 97.2467 207.908 96.86C207.454 96.46 206.828 96.26 206.028 96.26C205.401 96.26 204.908 96.3933 204.548 96.66C204.201 96.9267 204.028 97.2933 204.028 97.76C204.028 98.0933 204.128 98.3733 204.328 98.6C204.541 98.8267 204.848 99.0333 205.248 99.22C205.661 99.3933 206.294 99.6333 207.148 99.94C208.094 100.287 208.834 100.593 209.368 100.86C209.914 101.127 210.401 101.527 210.828 102.06C211.268 102.58 211.488 103.26 211.488 104.1C211.488 105.353 211.028 106.347 210.108 107.08C209.188 107.8 207.941 108.16 206.368 108.16Z"></path>
<path fill="white" d="M53.9782 308C53.7509 308 53.5463 307.932 53.3644 307.795C53.2281 307.614 53.1599 307.409 53.1599 307.182V261.082C53.1599 260.855 53.2281 260.673 53.3644 260.537C53.5463 260.355 53.7509 260.264 53.9782 260.264H61.9569C62.1843 260.264 62.3661 260.355 62.5025 260.537C62.6844 260.673 62.7753 260.855 62.7753 261.082V307.182C62.7753 307.409 62.6844 307.614 62.5025 307.795C62.3661 307.932 62.1843 308 61.9569 308H53.9782ZM87.3727 272.402C91.0097 272.402 93.9421 273.516 96.1698 275.744C98.3975 277.972 99.5113 280.995 99.5113 284.814V307.182C99.5113 307.409 99.4204 307.614 99.2385 307.795C99.1022 307.932 98.9203 308 98.693 308H90.7142C90.4869 308 90.2823 307.932 90.1005 307.795C89.9641 307.614 89.8959 307.409 89.8959 307.182V286.792C89.8959 284.973 89.3731 283.495 88.3274 282.359C87.3272 281.222 85.9861 280.654 84.304 280.654C82.6218 280.654 81.2579 281.222 80.2123 282.359C79.2121 283.495 78.712 284.973 78.712 286.792V307.182C78.712 307.409 78.6211 307.614 78.4392 307.795C78.3028 307.932 78.121 308 77.8937 308H69.9149C69.6876 308 69.483 307.932 69.3012 307.795C69.1648 307.614 69.0966 307.409 69.0966 307.182V273.766C69.0966 273.539 69.1648 273.357 69.3012 273.221C69.483 273.039 69.6876 272.948 69.9149 272.948H77.8937C78.121 272.948 78.3028 273.039 78.4392 273.221C78.6211 273.357 78.712 273.539 78.712 273.766V276.153C78.712 276.29 78.7575 276.38 78.8484 276.426C78.9393 276.471 79.0075 276.449 79.053 276.358C80.917 273.721 83.6902 272.402 87.3727 272.402ZM135.591 272.402C139.228 272.402 142.16 273.516 144.388 275.744C146.616 277.972 147.73 280.995 147.73 284.814V307.182C147.73 307.409 147.639 307.614 147.457 307.795C147.32 307.932 147.139 308 146.911 308H138.933C138.705 308 138.501 307.932 138.319 307.795C138.182 307.614 138.114 307.409 138.114 307.182V286.792C138.114 284.973 137.591 283.495 136.546 282.359C135.546 281.222 134.204 280.654 132.522 280.654C130.84 280.654 129.476 281.222 128.431 282.359C127.43 283.495 126.93 284.973 126.93 286.792V307.182C126.93 307.409 126.839 307.614 126.658 307.795C126.521 307.932 126.339 308 126.112 308H118.133C117.906 308 117.701 307.932 117.519 307.795C117.383 307.614 117.315 307.409 117.315 307.182V273.766C117.315 273.539 117.383 273.357 117.519 273.221C117.701 273.039 117.906 272.948 118.133 272.948H126.112C126.339 272.948 126.521 273.039 126.658 273.221C126.839 273.357 126.93 273.539 126.93 273.766V276.153C126.93 276.29 126.976 276.38 127.067 276.426C127.158 276.471 127.226 276.449 127.271 276.358C129.135 273.721 131.908 272.402 135.591 272.402ZM184.546 282.359C185.364 284.677 185.774 287.405 185.774 290.542C185.774 293.679 185.342 296.521 184.478 299.067C183.432 301.976 181.773 304.295 179.5 306.022C177.272 307.704 174.499 308.546 171.18 308.546C167.907 308.546 165.361 307.409 163.542 305.136C163.451 304.999 163.36 304.954 163.269 304.999C163.178 305.045 163.133 305.136 163.133 305.272V319.866C163.133 320.093 163.042 320.275 162.86 320.411C162.724 320.593 162.542 320.684 162.315 320.684H154.336C154.109 320.684 153.904 320.593 153.722 320.411C153.586 320.275 153.518 320.093 153.518 319.866V273.766C153.518 273.539 153.586 273.357 153.722 273.221C153.904 273.039 154.109 272.948 154.336 272.948H162.315C162.542 272.948 162.724 273.039 162.86 273.221C163.042 273.357 163.133 273.539 163.133 273.766V276.017C163.133 276.153 163.178 276.244 163.269 276.29C163.36 276.29 163.451 276.244 163.542 276.153C165.452 273.653 168.088 272.402 171.453 272.402C174.59 272.402 177.295 273.289 179.568 275.062C181.887 276.79 183.546 279.222 184.546 282.359ZM174.112 297.634C175.249 295.861 175.817 293.452 175.817 290.406C175.817 287.542 175.34 285.269 174.385 283.586C173.339 281.631 171.657 280.654 169.339 280.654C167.247 280.654 165.679 281.631 164.633 283.586C163.679 285.223 163.201 287.519 163.201 290.474C163.201 293.52 163.701 295.884 164.702 297.566C165.747 299.385 167.293 300.294 169.339 300.294C171.385 300.294 172.976 299.407 174.112 297.634ZM229.511 272.402C233.057 272.402 235.83 273.471 237.83 275.608C239.831 277.744 240.831 280.745 240.831 284.609V307.182C240.831 307.409 240.74 307.614 240.558 307.795C240.422 307.932 240.24 308 240.013 308H232.034C231.807 308 231.602 307.932 231.42 307.795C231.284 307.614 231.216 307.409 231.216 307.182V286.723C231.216 284.859 230.738 283.382 229.784 282.291C228.829 281.2 227.556 280.654 225.965 280.654C224.373 280.654 223.078 281.2 222.078 282.291C221.077 283.382 220.577 284.837 220.577 286.655V307.182C220.577 307.409 220.486 307.614 220.305 307.795C220.168 307.932 219.986 308 219.759 308H211.848C211.621 308 211.416 307.932 211.235 307.795C211.098 307.614 211.03 307.409 211.03 307.182V286.723C211.03 284.905 210.53 283.45 209.53 282.359C208.53 281.222 207.234 280.654 205.643 280.654C204.188 280.654 202.96 281.086 201.96 281.95C201.005 282.814 200.437 284.018 200.255 285.564V307.182C200.255 307.409 200.164 307.614 199.983 307.795C199.846 307.932 199.664 308 199.437 308H191.458C191.231 308 191.026 307.932 190.844 307.795C190.708 307.614 190.64 307.409 190.64 307.182V273.766C190.64 273.539 190.708 273.357 190.844 273.221C191.026 273.039 191.231 272.948 191.458 272.948H199.437C199.664 272.948 199.846 273.039 199.983 273.221C200.164 273.357 200.255 273.539 200.255 273.766V276.426C200.255 276.562 200.301 276.653 200.392 276.699C200.483 276.744 200.574 276.699 200.664 276.562C202.528 273.789 205.415 272.402 209.325 272.402C211.598 272.402 213.576 272.88 215.258 273.835C216.986 274.789 218.304 276.153 219.213 277.926C219.35 278.199 219.509 278.199 219.691 277.926C220.691 276.062 222.032 274.676 223.714 273.766C225.442 272.857 227.374 272.402 229.511 272.402ZM53.9782 368C53.7509 368 53.5463 367.932 53.3644 367.795C53.2281 367.614 53.1599 367.409 53.1599 367.182V321.082C53.1599 320.855 53.2281 320.673 53.3644 320.537C53.5463 320.355 53.7509 320.264 53.9782 320.264H71.0268C74.4365 320.264 77.4144 320.878 79.9603 322.105C82.5517 323.287 84.5521 324.969 85.9614 327.152C87.3708 329.334 88.0754 331.857 88.0754 334.721V353.543C88.0754 356.407 87.3708 358.93 85.9614 361.112C84.5521 363.295 82.5517 364.999 79.9603 366.227C77.4144 367.409 74.4365 368 71.0268 368H53.9782ZM62.7753 359.407C62.7753 359.635 62.8889 359.748 63.1163 359.748H71.3678C73.4591 359.748 75.1412 359.044 76.4142 357.634C77.7326 356.225 78.4145 354.338 78.46 351.974V336.29C78.46 333.925 77.8008 332.039 76.4824 330.629C75.2094 329.22 73.4818 328.515 71.2996 328.515H63.1163C62.8889 328.515 62.7753 328.629 62.7753 328.856V359.407ZM108.818 368.546C104.999 368.546 101.726 367.545 98.9977 365.545C96.27 363.545 94.406 360.817 93.4058 357.362C92.7693 355.225 92.4511 352.906 92.4511 350.406C92.4511 347.724 92.7693 345.314 93.4058 343.177C94.4514 339.813 96.3382 337.176 99.0659 335.267C101.794 333.357 105.067 332.402 108.886 332.402C112.614 332.402 115.796 333.357 118.433 335.267C121.07 337.131 122.934 339.745 124.025 343.109C124.753 345.382 125.116 347.769 125.116 350.269C125.116 352.724 124.798 355.02 124.161 357.157C123.161 360.703 121.297 363.499 118.57 365.545C115.887 367.545 112.637 368.546 108.818 368.546ZM108.818 360.294C110.318 360.294 111.591 359.839 112.637 358.93C113.682 358.021 114.432 356.771 114.887 355.179C115.251 353.725 115.433 352.133 115.433 350.406C115.433 348.496 115.251 346.882 114.887 345.564C114.387 344.018 113.614 342.814 112.568 341.95C111.523 341.086 110.25 340.654 108.75 340.654C107.204 340.654 105.908 341.086 104.862 341.95C103.862 342.814 103.135 344.018 102.68 345.564C102.317 346.655 102.135 348.269 102.135 350.406C102.135 352.452 102.294 354.043 102.612 355.179C103.067 356.771 103.817 358.021 104.862 358.93C105.954 359.839 107.272 360.294 108.818 360.294ZM136.731 368C136.231 368 135.913 367.773 135.776 367.318L125.956 333.835L125.888 333.562C125.888 333.107 126.138 332.88 126.638 332.88H134.89C135.39 332.88 135.708 333.107 135.845 333.562L140.755 354.157C140.8 354.293 140.868 354.361 140.959 354.361C141.05 354.361 141.118 354.293 141.164 354.157L146.278 333.562C146.415 333.107 146.733 332.88 147.233 332.88H154.393C154.894 332.88 155.212 333.107 155.348 333.562L160.736 354.225C160.781 354.361 160.849 354.429 160.94 354.429C161.031 354.429 161.099 354.361 161.145 354.225L166.464 333.562C166.6 333.107 166.919 332.88 167.419 332.88L175.602 333.016C175.875 333.016 176.057 333.107 176.148 333.289C176.284 333.425 176.329 333.63 176.284 333.903L166.328 367.318C166.191 367.773 165.896 368 165.441 368H157.189C156.689 368 156.371 367.773 156.235 367.318L150.984 349.042C150.938 348.906 150.87 348.837 150.779 348.837C150.688 348.837 150.62 348.906 150.575 349.042L145.937 367.318C145.801 367.773 145.483 368 144.983 368H136.731ZM198.325 332.402C201.962 332.402 204.894 333.516 207.122 335.744C209.349 337.972 210.463 340.995 210.463 344.814V367.182C210.463 367.409 210.372 367.614 210.19 367.795C210.054 367.932 209.872 368 209.645 368H201.666C201.439 368 201.234 367.932 201.052 367.795C200.916 367.614 200.848 367.409 200.848 367.182V346.792C200.848 344.973 200.325 343.495 199.279 342.359C198.279 341.222 196.938 340.654 195.256 340.654C193.574 340.654 192.21 341.222 191.164 342.359C190.164 343.495 189.664 344.973 189.664 346.792V367.182C189.664 367.409 189.573 367.614 189.391 367.795C189.255 367.932 189.073 368 188.846 368H180.867C180.639 368 180.435 367.932 180.253 367.795C180.117 367.614 180.048 367.409 180.048 367.182V333.766C180.048 333.539 180.117 333.357 180.253 333.221C180.435 333.039 180.639 332.948 180.867 332.948H188.846C189.073 332.948 189.255 333.039 189.391 333.221C189.573 333.357 189.664 333.539 189.664 333.766V336.153C189.664 336.29 189.709 336.38 189.8 336.426C189.891 336.471 189.959 336.449 190.005 336.358C191.869 333.721 194.642 332.402 198.325 332.402ZM216.797 368C216.569 368 216.365 367.932 216.183 367.795C216.047 367.614 215.978 367.409 215.978 367.182V321.082C215.978 320.855 216.047 320.673 216.183 320.537C216.365 320.355 216.569 320.264 216.797 320.264H224.775C225.003 320.264 225.185 320.355 225.321 320.537C225.503 320.673 225.594 320.855 225.594 321.082V367.182C225.594 367.409 225.503 367.614 225.321 367.795C225.185 367.932 225.003 368 224.775 368H216.797ZM246.744 368.546C242.925 368.546 239.651 367.545 236.924 365.545C234.196 363.545 232.332 360.817 231.332 357.362C230.695 355.225 230.377 352.906 230.377 350.406C230.377 347.724 230.695 345.314 231.332 343.177C232.377 339.813 234.264 337.176 236.992 335.267C239.72 333.357 242.993 332.402 246.812 332.402C250.54 332.402 253.722 333.357 256.359 335.267C258.996 337.131 260.86 339.745 261.951 343.109C262.678 345.382 263.042 347.769 263.042 350.269C263.042 352.724 262.724 355.02 262.087 357.157C261.087 360.703 259.223 363.499 256.496 365.545C253.813 367.545 250.563 368.546 246.744 368.546ZM246.744 360.294C248.244 360.294 249.517 359.839 250.563 358.93C251.608 358.021 252.358 356.771 252.813 355.179C253.177 353.725 253.359 352.133 253.359 350.406C253.359 348.496 253.177 346.882 252.813 345.564C252.313 344.018 251.54 342.814 250.494 341.95C249.449 341.086 248.176 340.654 246.676 340.654C245.13 340.654 243.834 341.086 242.788 341.95C241.788 342.814 241.061 344.018 240.606 345.564C240.243 346.655 240.061 348.269 240.061 350.406C240.061 352.452 240.22 354.043 240.538 355.179C240.993 356.771 241.743 358.021 242.788 358.93C243.88 359.839 245.198 360.294 246.744 360.294ZM281.839 332.402C284.794 332.402 287.431 332.925 289.75 333.971C292.069 334.971 293.864 336.358 295.137 338.131C296.456 339.904 297.115 341.882 297.115 344.064V367.182C297.115 367.409 297.024 367.614 296.842 367.795C296.706 367.932 296.524 368 296.297 368H288.318C288.091 368 287.886 367.932 287.704 367.795C287.568 367.614 287.499 367.409 287.499 367.182V364.931C287.499 364.795 287.454 364.704 287.363 364.658C287.272 364.613 287.181 364.658 287.09 364.795C285.181 367.295 282.112 368.546 277.884 368.546C274.338 368.546 271.474 367.682 269.292 365.954C267.109 364.227 266.018 361.681 266.018 358.316C266.018 354.816 267.246 352.111 269.701 350.201C272.156 348.246 275.656 347.269 280.203 347.269H287.159C287.386 347.269 287.499 347.155 287.499 346.928V345.428C287.499 343.927 287.045 342.768 286.136 341.95C285.226 341.086 283.862 340.654 282.044 340.654C280.635 340.654 279.453 340.904 278.498 341.404C277.589 341.904 276.998 342.609 276.725 343.518C276.588 344.018 276.293 344.246 275.838 344.2L267.587 343.109C267.041 343.018 266.791 342.814 266.837 342.495C267.018 340.586 267.769 338.858 269.087 337.312C270.451 335.767 272.224 334.562 274.406 333.698C276.634 332.834 279.112 332.402 281.839 332.402ZM280.475 361.385C282.43 361.385 284.09 360.862 285.454 359.817C286.818 358.771 287.499 357.43 287.499 355.793V353.338C287.499 353.111 287.386 352.997 287.159 352.997H282.249C280.203 352.997 278.589 353.384 277.407 354.157C276.27 354.929 275.702 356.021 275.702 357.43C275.702 358.657 276.134 359.635 276.998 360.362C277.861 361.044 279.021 361.385 280.475 361.385ZM324.278 321.082C324.278 320.855 324.346 320.673 324.483 320.537C324.665 320.355 324.869 320.264 325.096 320.264H333.075C333.303 320.264 333.484 320.355 333.621 320.537C333.803 320.673 333.894 320.855 333.894 321.082V367.182C333.894 367.409 333.803 367.614 333.621 367.795C333.484 367.932 333.303 368 333.075 368H325.096C324.869 368 324.665 367.932 324.483 367.795C324.346 367.614 324.278 367.409 324.278 367.182V364.931C324.278 364.795 324.233 364.727 324.142 364.727C324.051 364.681 323.96 364.704 323.869 364.795C321.96 367.295 319.345 368.546 316.027 368.546C312.844 368.546 310.094 367.659 307.775 365.886C305.502 364.113 303.865 361.681 302.865 358.589C302.092 356.225 301.706 353.475 301.706 350.338C301.706 347.11 302.115 344.291 302.933 341.882C303.979 338.972 305.616 336.676 307.843 334.994C310.116 333.266 312.912 332.402 316.231 332.402C319.505 332.402 322.05 333.539 323.869 335.812C323.96 335.949 324.051 335.994 324.142 335.949C324.233 335.903 324.278 335.812 324.278 335.676V321.082ZM322.846 357.362C323.755 355.68 324.21 353.384 324.21 350.474C324.21 347.428 323.71 345.041 322.71 343.314C321.664 341.541 320.141 340.654 318.141 340.654C316.004 340.654 314.39 341.541 313.299 343.314C312.162 345.087 311.594 347.496 311.594 350.542C311.594 353.27 312.071 355.543 313.026 357.362C314.163 359.317 315.845 360.294 318.072 360.294C320.118 360.294 321.71 359.317 322.846 357.362ZM353.766 368.477C350.72 368.477 348.06 368.045 345.787 367.182C343.514 366.318 341.741 365.113 340.468 363.567C339.24 362.022 338.627 360.271 338.627 358.316V357.634C338.627 357.407 338.695 357.225 338.831 357.089C339.013 356.907 339.218 356.816 339.445 356.816H347.015C347.242 356.816 347.424 356.907 347.56 357.089C347.742 357.225 347.833 357.407 347.833 357.634V357.703C347.833 358.703 348.379 359.567 349.47 360.294C350.606 360.976 352.016 361.317 353.698 361.317C355.243 361.317 356.494 361.021 357.448 360.43C358.403 359.794 358.88 359.021 358.88 358.112C358.88 357.293 358.471 356.68 357.653 356.271C356.835 355.861 355.493 355.429 353.629 354.975C351.493 354.429 349.811 353.906 348.583 353.406C345.673 352.406 343.355 351.179 341.627 349.724C339.9 348.269 339.036 346.178 339.036 343.45C339.036 340.086 340.332 337.426 342.923 335.471C345.56 333.471 349.038 332.471 353.357 332.471C356.266 332.471 358.812 332.948 360.994 333.903C363.177 334.812 364.859 336.108 366.041 337.79C367.268 339.472 367.882 341.381 367.882 343.518C367.882 343.746 367.791 343.95 367.609 344.132C367.473 344.268 367.291 344.337 367.064 344.337H359.767C359.54 344.337 359.335 344.268 359.153 344.132C359.017 343.95 358.949 343.746 358.949 343.518C358.949 342.518 358.426 341.677 357.38 340.995C356.38 340.313 355.039 339.972 353.357 339.972C351.856 339.972 350.629 340.245 349.674 340.79C348.719 341.336 348.242 342.086 348.242 343.041C348.242 343.95 348.697 344.632 349.606 345.087C350.561 345.541 352.129 346.019 354.311 346.519C354.812 346.655 355.38 346.814 356.016 346.996C356.653 347.132 357.335 347.314 358.062 347.542C361.29 348.496 363.836 349.724 365.7 351.224C367.564 352.724 368.496 354.907 368.496 357.771C368.496 361.135 367.155 363.772 364.472 365.681C361.836 367.545 358.267 368.477 353.766 368.477Z"></path>
<path fill="#DBEAFF" d="M866 421.5L710.613 266.5C696.186 252.02 689.153 268.38 674.724 282.86L394 564.61L516.123 578H762.424C796.431 578 856 568.131 856 534L866 421.5Z"></path>
<path fill="#95D6A4" d="M351.907 450.379C359.585 450.379 365.809 444.154 365.809 436.476C365.809 428.798 359.585 422.573 351.907 422.573C344.228 422.573 338.004 428.798 338.004 436.476C338.004 444.154 344.228 450.379 351.907 450.379Z"></path>
<path fill="#C3DDFF" d="M684.735 270.483L539.001 416.218C533.571 421.647 524.768 421.647 519.339 416.218L481.353 378.232C473.208 370.087 460.004 370.087 451.86 378.232L339 498.5H550L710.178 267.402C702.166 262.591 691.643 263.575 684.735 270.483Z"></path>
<path fill="#A4CCFF" d="M473.154 373.265C465.907 370.867 457.626 372.466 451.86 378.232L321 509.5H403L473.154 373.265Z"></path>
<path fill="#090A15" d="M567.375 355.022C569.039 355.022 570.704 354.387 571.974 353.117L576.88 348.211C579.419 345.671 579.419 341.553 576.88 339.014C574.34 336.474 570.221 336.474 567.682 339.014L562.776 343.92C560.236 346.46 560.236 350.578 562.776 353.117C564.047 354.387 565.711 355.022 567.375 355.022Z"></path>
<path fill="#090A15" d="M616.432 305.967C618.096 305.967 619.761 305.332 621.031 304.062L625.936 299.156C628.476 296.616 628.476 292.498 625.936 289.959C623.396 287.419 619.278 287.419 616.739 289.959L611.833 294.864C609.293 297.404 609.293 301.523 611.833 304.062C613.103 305.332 614.767 305.967 616.432 305.967Z"></path>
<path fill="#090A15" d="M664.794 241.904L660.889 245.809C658.349 248.349 658.349 252.468 660.889 255.007C662.159 256.276 663.824 256.912 665.488 256.912C667.152 256.912 668.817 256.277 670.087 255.007L673.992 251.102C676.532 248.562 676.532 244.443 673.992 241.904C671.452 239.365 667.334 239.365 664.794 241.904Z"></path>
<path fill="#090A15" d="M640.959 281.44C642.624 281.44 644.289 280.806 645.559 279.535L650.465 274.63C653.005 272.09 653.004 267.971 650.465 265.431C647.924 262.891 643.806 262.892 641.266 265.431L636.361 270.337C633.821 272.877 633.822 276.995 636.361 279.535C637.631 280.806 639.295 281.44 640.959 281.44Z"></path>
<path fill="#090A15" d="M591.904 330.495C593.568 330.495 595.233 329.86 596.502 328.589L601.408 323.684C603.948 321.144 603.948 317.026 601.408 314.486C598.868 311.946 594.75 311.946 592.211 314.486L587.305 319.392C584.765 321.932 584.765 326.05 587.305 328.589C588.574 329.86 590.239 330.495 591.904 330.495Z"></path>
<path fill="#090A15" d="M405.434 391.839C407.098 391.839 408.763 391.205 410.033 389.935L414.938 385.029C417.478 382.489 417.478 378.371 414.938 375.831C412.397 373.291 408.28 373.292 405.74 375.831L400.834 380.737C398.294 383.277 398.294 387.395 400.834 389.935C402.105 391.205 403.769 391.839 405.434 391.839Z"></path>
<path fill="#090A15" d="M390.411 400.359C387.871 397.819 383.752 397.819 381.213 400.359L376.308 405.264C373.768 407.804 373.768 411.923 376.308 414.462C377.577 415.731 379.242 416.367 380.906 416.367C382.57 416.367 384.235 415.732 385.505 414.462L390.411 409.556C392.951 407.017 392.951 402.899 390.411 400.359Z"></path>
<path fill="#090A15" d="M429.962 367.312C431.626 367.312 433.291 366.677 434.561 365.407L436.798 363.169C437.568 362.4 438.377 361.651 439.202 360.943C441.929 358.605 442.245 354.5 439.907 351.773C437.569 349.045 433.463 348.729 430.737 351.068C429.659 351.991 428.603 352.969 427.6 353.973L425.363 356.21C422.823 358.75 422.823 362.868 425.363 365.407C426.633 366.677 428.297 367.312 429.962 367.312Z"></path>
<path fill="#090A15" d="M518.626 385.378C519.896 386.648 521.56 387.282 523.225 387.282C524.89 387.282 526.554 386.648 527.824 385.377C530.364 382.837 530.364 378.719 527.824 376.18L522.918 371.275C520.378 368.735 516.26 368.735 513.72 371.276C511.18 373.816 511.181 377.934 513.721 380.473L518.626 385.378Z"></path>
<path fill="#090A15" d="M459.931 351.305C460.225 351.305 460.523 351.285 460.822 351.244C462.731 350.982 464.675 350.849 466.602 350.849L466.823 350.85C470.373 350.881 473.342 347.971 473.36 344.379C473.378 340.787 470.481 337.861 466.889 337.842L466.602 337.841C464.087 337.841 461.548 338.015 459.056 338.356C455.497 338.843 453.008 342.124 453.495 345.683C453.943 348.941 456.731 351.305 459.931 351.305Z"></path>
<path fill="#090A15" d="M542.848 379.55C544.512 379.55 546.177 378.915 547.446 377.644L552.352 372.739C554.892 370.199 554.892 366.08 552.352 363.541C549.812 361.001 545.694 361.001 543.155 363.541L538.249 368.447C535.709 370.987 535.709 375.105 538.249 377.644C539.518 378.914 541.183 379.55 542.848 379.55Z"></path>
<path fill="#090A15" d="M489.551 357.61C491.221 358.694 492.833 359.911 494.339 361.228C495.572 362.307 497.098 362.836 498.618 362.836C500.428 362.836 502.231 362.083 503.516 360.613C505.881 357.908 505.605 353.8 502.901 351.436C500.93 349.712 498.82 348.118 496.633 346.698C493.62 344.743 489.591 345.6 487.636 348.614C485.68 351.627 486.538 355.654 489.551 357.61Z"></path>
<path fill="#090A15" d="M351.907 416.07C340.655 416.07 331.5 425.224 331.5 436.476C331.5 447.728 340.655 456.883 351.907 456.883C363.158 456.883 372.313 447.728 372.313 436.476C372.313 425.224 363.159 416.07 351.907 416.07ZM351.907 443.876C347.827 443.876 344.508 440.556 344.508 436.477C344.508 432.398 347.827 429.078 351.907 429.078C355.986 429.078 359.306 432.398 359.306 436.477C359.306 440.556 355.987 443.876 351.907 443.876Z"></path>
<path fill="white" d="M138.95 173.931C138.95 174.452 138.742 174.921 138.324 175.338C138.012 175.651 137.595 175.808 137.073 175.808H125.342C124.716 175.808 124.403 176.068 124.403 176.59L122.057 192.075C122.057 192.596 122.266 192.857 122.683 192.857H131.442C131.964 192.857 132.381 193.066 132.693 193.483C133.111 193.796 133.319 194.213 133.319 194.734V209.75C133.319 210.272 133.111 210.741 132.693 211.158C132.381 211.471 131.964 211.627 131.442 211.627H119.867C119.242 211.627 118.929 211.888 118.929 212.409L115.8 233.056C115.696 234.203 115.018 234.777 113.767 234.777H95.4664C94.215 234.777 93.6415 234.099 93.7458 232.743L96.8741 212.409C96.8741 211.888 96.6655 211.627 96.2484 211.627H80.6068C79.9811 211.627 79.6683 211.888 79.6683 212.409L76.54 233.056C76.4357 234.203 75.7579 234.777 74.5065 234.777H56.2058C54.9545 234.777 54.381 234.099 54.4852 232.743L57.6136 212.409C57.6136 211.888 57.405 211.627 56.9879 211.627H48.2286C47.7072 211.627 47.2379 211.471 46.8208 211.158C46.508 210.741 46.3516 210.272 46.3516 209.75V194.734C46.3516 194.213 46.508 193.796 46.8208 193.483C47.2379 193.066 47.7072 192.857 48.2286 192.857H59.8034C60.4291 192.857 60.7419 192.596 60.7419 192.075L63.0881 176.59C63.0881 176.068 62.8796 175.808 62.4625 175.808H54.016C53.4946 175.808 53.0253 175.651 52.6082 175.338C52.2954 174.921 52.139 174.452 52.139 173.931V158.758C52.139 158.237 52.2954 157.82 52.6082 157.507C53.0253 157.09 53.4946 156.881 54.016 156.881H65.4344C66.0601 156.881 66.3729 156.621 66.3729 156.099L69.5012 135.452C69.6055 134.305 70.2833 133.732 71.5346 133.732H89.8354C91.0867 133.732 91.6602 134.41 91.5559 135.765L88.4276 156.099C88.4276 156.621 88.6362 156.881 89.0533 156.881H104.539C105.164 156.881 105.477 156.621 105.477 156.099L108.605 135.452C108.71 134.305 109.387 133.732 110.639 133.732H128.939C130.191 133.732 130.764 134.41 130.66 135.765L127.532 156.099C127.532 156.621 127.74 156.881 128.157 156.881H137.23C137.751 156.881 138.168 157.09 138.481 157.507C138.898 157.82 139.107 158.237 139.107 158.758L138.95 173.931ZM99.0639 192.857C99.6896 192.857 100.002 192.596 100.002 192.075L102.349 176.59C102.349 176.068 102.14 175.808 101.723 175.808H86.0814C85.4557 175.808 85.1429 176.068 85.1429 176.59L82.7966 192.075C82.7966 192.596 83.0052 192.857 83.4223 192.857H99.0639ZM166.718 129.978C167.239 129.665 168.021 129.508 169.064 129.508H187.99C188.512 129.508 188.929 129.717 189.242 130.134C189.659 130.447 189.867 130.864 189.867 131.385V237.123C189.867 237.644 189.659 238.114 189.242 238.531C188.929 238.844 188.512 239 187.99 239H169.69C169.168 239 168.699 238.844 168.282 238.531C167.969 238.114 167.813 237.644 167.813 237.123V151.407C167.813 151.198 167.708 150.99 167.5 150.781C167.291 150.573 167.083 150.52 166.874 150.625L151.389 154.848L150.763 155.004C149.825 155.004 149.355 154.431 149.355 153.284L148.886 139.832C148.886 138.789 149.355 138.059 150.294 137.642L166.718 129.978Z"></path>
<path stroke-width="9" stroke="#090A15" d="M354.5 476L458.571 371.461C462.418 367.596 468.651 367.526 472.584 371.303L521.473 418.252C525.383 422.007 531.573 421.963 535.429 418.152L691.929 263.488C695.841 259.622 702.141 259.641 706.029 263.529L867.5 425"></path>
<path stroke-width="4.01869" stroke="#090A15" fill="#090A15" d="M689.519 180.063C683.308 185.162 682.406 194.329 687.504 200.54C692.602 206.751 701.77 207.653 707.981 202.555C712.371 198.951 716.793 194.286 720.5 188.382C724.773 181.577 722.72 172.597 715.915 168.324C709.11 164.051 700.13 166.104 695.857 172.909C694.027 175.823 691.808 178.185 689.519 180.063Z"></path>
<path stroke-width="4.01869" stroke="#090A15" fill="white" d="M680.587 185.099C672.77 186.96 667.942 194.805 669.803 202.622C671.664 210.439 679.509 215.267 687.326 213.406C692.688 212.129 700.541 208.664 707.981 202.556C714.192 197.458 715.094 188.291 709.996 182.08C704.898 175.869 695.73 174.967 689.519 180.065C685.344 183.491 681.466 184.889 680.587 185.099Z"></path>
<rect stroke-width="4.01869" stroke="#090A15" fill="#090A15" transform="matrix(0.960403 0.278615 -0.278618 0.960402 616.897 204.726)" rx="16.6571" height="65.9007" width="33.3142" y="-2.48961" x="-1.36994"></rect>
<rect stroke-width="4.01869" stroke="#090A15" fill="#090A15" transform="matrix(0.964879 -0.262695 0.262698 0.964878 652.475 211.113)" rx="16.6571" height="65.9007" width="33.3142" y="-1.41093" x="-2.46663"></rect>
<path stroke-width="4.01869" stroke="#090A15" fill="white" d="M625.931 176.327C610.616 176.327 598.202 188.742 598.202 204.056V210.662C598.202 233.744 616.914 252.456 639.996 252.456H647.783C670.865 252.456 689.577 233.744 689.577 210.662V204.056C689.577 188.742 677.162 176.327 661.848 176.327H625.931Z"></path>
<path stroke-width="4.01869" stroke="#090A15" fill="#E2E8F0" d="M679.541 202.807C684.861 202.544 689.388 206.643 689.651 211.963L690.711 233.372C690.974 238.692 686.875 243.218 681.555 243.482L642.667 245.407C634.465 245.813 627.487 239.493 627.081 231.291L626.538 220.319C626.132 212.117 632.451 205.139 640.653 204.733L679.541 202.807Z"></path>
<path stroke-width="4.01869" stroke="#090A15" fill="white" d="M679.942 202.787C685.041 202.535 689.379 206.463 689.631 211.562L690.453 228.154C690.859 236.356 684.539 243.334 676.337 243.74L649.501 245.069C641.299 245.475 634.321 239.155 633.914 230.953L633.093 214.361C632.841 209.263 636.769 204.925 641.868 204.672L679.942 202.787Z"></path>
<line stroke-width="2.41121" stroke="#090A15" y2="221.339" x2="634.809" y1="218.332" x1="688.516"></line>
<path stroke-width="2.41121" stroke="#090A15" fill="#7F9CF5" d="M679.181 223.765C676.669 223.89 674.808 221.682 674.687 219.235C674.566 216.788 676.2 214.406 678.712 214.282C681.224 214.158 683.085 216.366 683.206 218.813C683.327 221.26 681.693 223.641 679.181 223.765Z"></path>
<path stroke-width="4.01869" stroke="#090A15" fill="#7F9CF5" d="M696.348 122.079L694.339 122.079L694.339 124.088L694.339 150.206L694.339 152.215L696.348 152.215C701.39 152.215 705.48 148.125 705.48 143.083L705.48 131.211C705.48 126.169 701.39 122.079 696.348 122.079Z"></path>
<rect stroke-width="4.01869" stroke="#090A15" fill="#7F9CF5" transform="matrix(-0.999791 0.0204486 0.0204488 0.999791 684.214 170.711)" rx="12.5104" height="25.0209" width="73.3741" y="-2.05001" x="1.96784"></rect>
<ellipse fill="#090A15" transform="matrix(-0.999791 0.0204486 0.0204488 0.999791 671.005 185.131)" ry="2.16871" rx="2.16872" cy="2.16871" cx="2.16872"></ellipse>
<ellipse fill="#090A15" transform="matrix(-0.999791 0.0204486 0.0204488 0.999791 661.364 185.33)" ry="2.16871" rx="2.16872" cy="2.16871" cx="2.16872"></ellipse>
<rect fill="#C3DAFE" rx="26.1215" height="92.1393" width="89.8708" y="81.0334" x="599.354"></rect>
<path stroke-linecap="round" stroke-miterlimit="10" stroke-width="6.43177" stroke="#090A15" d="M633.109 126.895C635.712 124.292 639.934 124.292 642.538 126.895"></path>
<path stroke-linecap="round" stroke-miterlimit="10" stroke-width="6.43177" stroke="#090A15" d="M669.726 126.895C672.329 124.292 676.551 124.292 679.155 126.895"></path>
<path stroke-linecap="round" stroke-miterlimit="10" stroke-width="4.01986" stroke="#090A15" d="M663.138 143.467C663.138 147.217 660.099 150.257 656.35 150.257C652.601 150.257 649.562 147.217 649.562 143.467"></path>
<path stroke-linecap="round" stroke-miterlimit="10" stroke-width="4.82383" stroke="#090A15" d="M633.147 139.186C635.751 136.582 639.972 136.582 642.576 139.186"></path>
<path stroke-linecap="round" stroke-miterlimit="10" stroke-width="4.82383" stroke="#090A15" d="M669.764 139.186C672.367 136.582 676.589 136.582 679.193 139.186"></path>
<mask fill="black" height="119" width="112" y="68" x="588.434" maskUnits="userSpaceOnUse" id="path-41-outside-1_1089_37428">
<rect height="119" width="112" y="68" x="588.434" fill="white"></rect>
<path d="M695.158 148.052V123.861C695.158 95.7725 672.385 73 644.296 73C616.207 73 593.434 95.7725 593.434 123.861V148.052C593.434 166.78 608.614 181.959 627.342 181.959H661.25C679.978 181.959 695.158 166.78 695.158 148.052ZM691.358 152.631V122.452C691.391 116.291 687.54 110.778 681.743 108.695C677.443 107.075 673.032 105.768 668.548 104.782C665.536 104.121 662.429 105.146 660.248 107.326C658.457 109.118 656.027 110.124 653.494 110.124H646.829C644.325 110.124 641.924 109.13 640.153 107.359C637.997 105.203 634.927 104.19 631.949 104.843C627.446 105.83 623.017 107.141 618.699 108.768C612.898 110.818 609.017 116.3 609.011 122.452V152.631C608.999 158.801 612.883 164.308 618.699 166.364C628.611 170.106 639.131 171.971 649.724 171.862H650.79C661.335 171.952 671.804 170.087 681.67 166.364C687.486 164.308 691.37 158.801 691.358 152.631Z" clip-rule="evenodd" fill-rule="evenodd"></path>
</mask>
<path fill="white" d="M695.158 148.052V123.861C695.158 95.7725 672.385 73 644.296 73C616.207 73 593.434 95.7725 593.434 123.861V148.052C593.434 166.78 608.614 181.959 627.342 181.959H661.25C679.978 181.959 695.158 166.78 695.158 148.052ZM691.358 152.631V122.452C691.391 116.291 687.54 110.778 681.743 108.695C677.443 107.075 673.032 105.768 668.548 104.782C665.536 104.121 662.429 105.146 660.248 107.326C658.457 109.118 656.027 110.124 653.494 110.124H646.829C644.325 110.124 641.924 109.13 640.153 107.359C637.997 105.203 634.927 104.19 631.949 104.843C627.446 105.83 623.017 107.141 618.699 108.768C612.898 110.818 609.017 116.3 609.011 122.452V152.631C608.999 158.801 612.883 164.308 618.699 166.364C628.611 170.106 639.131 171.971 649.724 171.862H650.79C661.335 171.952 671.804 170.087 681.67 166.364C687.486 164.308 691.37 158.801 691.358 152.631Z" clip-rule="evenodd" fill-rule="evenodd"></path>
<path mask="url(#path-41-outside-1_1089_37428)" fill="#090A15" d="M691.358 122.452L686.536 122.426L686.536 122.439V122.452H691.358ZM691.358 152.631H686.536L686.536 152.641L691.358 152.631ZM681.743 108.695L680.043 113.208L680.077 113.221L680.112 113.234L681.743 108.695ZM668.548 104.782L667.513 109.492L668.548 104.782ZM660.248 107.326L656.838 103.917H656.838L660.248 107.326ZM640.153 107.359L636.743 110.769V110.769L640.153 107.359ZM631.949 104.843L630.917 100.132V100.132L631.949 104.843ZM618.699 108.768L620.305 113.315L620.352 113.298L620.399 113.281L618.699 108.768ZM609.011 122.452L604.188 122.447V122.452H609.011ZM609.011 152.631L613.833 152.641V152.631H609.011ZM618.699 166.364L620.402 161.852L620.354 161.834L620.306 161.817L618.699 166.364ZM649.724 171.862V167.039H649.699L649.675 167.039L649.724 171.862ZM650.79 171.862L650.831 167.039L650.811 167.039H650.79V171.862ZM681.67 166.364L680.063 161.817L680.015 161.834L679.967 161.852L681.67 166.364ZM690.335 123.861V148.052H699.98V123.861H690.335ZM644.296 77.8224C669.722 77.8224 690.335 98.4359 690.335 123.861H699.98C699.98 93.1092 675.048 68.1776 644.296 68.1776V77.8224ZM598.257 123.861C598.257 98.4359 618.87 77.8224 644.296 77.8224V68.1776C613.544 68.1776 588.612 93.1092 588.612 123.861H598.257ZM598.257 148.052V123.861H588.612V148.052H598.257ZM627.342 177.137C611.278 177.137 598.257 164.116 598.257 148.052H588.612C588.612 169.443 605.951 186.782 627.342 186.782V177.137ZM661.25 177.137H627.342V186.782H661.25V177.137ZM690.335 148.052C690.335 164.116 677.315 177.137 661.25 177.137V186.782C682.641 186.782 699.98 169.443 699.98 148.052H690.335ZM686.536 122.452V152.631H696.181V122.452H686.536ZM680.112 113.234C683.984 114.625 686.558 118.307 686.536 122.426L696.18 122.478C696.225 114.276 691.097 106.932 683.373 104.157L680.112 113.234ZM667.513 109.492C671.771 110.428 675.959 111.67 680.043 113.208L683.443 104.183C678.926 102.481 674.293 101.107 669.583 100.072L667.513 109.492ZM663.658 110.736C664.775 109.62 666.239 109.212 667.513 109.492L669.583 100.072C664.833 99.0285 660.084 100.671 656.838 103.917L663.658 110.736ZM653.494 114.947C657.306 114.947 660.962 113.432 663.658 110.736L656.838 103.917C655.951 104.804 654.748 105.302 653.494 105.302V114.947ZM646.829 114.947H653.494V105.302H646.829V114.947ZM636.743 110.769C639.418 113.444 643.046 114.947 646.829 114.947V105.302C645.604 105.302 644.429 104.815 643.563 103.949L636.743 110.769ZM632.981 109.554C634.223 109.281 635.652 109.678 636.743 110.769L643.563 103.949C640.343 100.728 635.63 99.0994 630.917 100.132L632.981 109.554ZM620.399 113.281C624.499 111.736 628.705 110.491 632.981 109.554L630.917 100.132C626.186 101.169 621.534 102.546 616.998 104.255L620.399 113.281ZM613.833 122.457C613.837 118.347 616.43 114.684 620.305 113.315L617.092 104.221C609.366 106.951 604.196 114.254 604.188 122.447L613.833 122.457ZM613.833 152.631V122.452H604.188V152.631H613.833ZM620.306 161.817C616.422 160.444 613.825 156.765 613.833 152.641L604.188 152.622C604.172 160.838 609.344 168.172 617.092 170.91L620.306 161.817ZM649.675 167.039C639.68 167.142 629.754 165.383 620.402 161.852L616.995 170.875C627.467 174.829 638.582 176.799 649.774 176.684L649.675 167.039ZM650.79 167.039H649.724V176.684H650.79V167.039ZM679.967 161.852C670.658 165.366 660.78 167.125 650.831 167.039L650.748 176.684C661.889 176.78 672.95 174.809 683.373 170.876L679.967 161.852ZM686.536 152.641C686.544 156.765 683.947 160.444 680.063 161.817L683.277 170.91C691.025 168.172 696.197 160.838 696.181 152.622L686.536 152.641Z"></path>
<rect stroke-width="4.01869" stroke="#090A15" fill="#7F9CF5" rx="11.2642" height="29.9101" width="22.5284" y="122.079" x="579.53"></rect>
<g opacity="0.4" style="mix-blend-mode:overlay">
<path stroke-linejoin="round" stroke-linecap="round" stroke-miterlimit="10" stroke-width="4.01869" stroke="white" d="M632.117 114.943L622.258 118.08C621.212 118.23 619.121 119.604 619.121 123.906C619.121 128.208 619.121 130.036 619.121 133.322"></path>
</g>
<rect fill="#090A15" height="6.86789" width="7.14263" y="89.2205" x="646.785"></rect>
<path stroke-width="4.79999" stroke="#090A15" fill="white" d="M658.938 100.808L658.269 98.503L658.938 100.808C660.992 100.212 662.159 97.9109 661.184 95.8661L652.916 78.5253C651.692 75.9578 648.104 75.7808 646.601 78.1518L637.551 92.4257L639.578 93.7108L637.551 92.4257C636.806 93.601 636.818 95.0966 637.581 96.2596L642.037 103.057C642.921 104.406 644.577 104.974 646.077 104.539L658.938 100.808ZM650.796 89.9995L653.117 95.1928L649.501 96.2367L650.796 89.9995Z"></path>
<path stroke-width="4.01869" stroke="#090A15" fill="#090A15" d="M601.55 216.826C606.939 210.865 606.475 201.665 600.515 196.276C594.554 190.888 585.354 191.351 579.965 197.312C576.156 201.525 572.473 206.793 569.68 213.18C566.46 220.542 569.818 229.12 577.18 232.34C584.543 235.559 593.121 232.201 596.34 224.839C597.719 221.687 599.565 219.022 601.55 216.826Z"></path>
<path stroke-width="4.01869" stroke="#090A15" fill="white" d="M609.639 210.528C617.095 207.531 620.709 199.058 617.713 191.602C614.716 184.147 606.243 180.532 598.787 183.529C593.673 185.584 586.419 190.173 579.964 197.313C574.575 203.274 575.039 212.474 581 217.863C586.96 223.251 596.16 222.788 601.549 216.827C605.171 212.821 608.8 210.865 609.639 210.528Z"></path>
<path stroke-linecap="round" stroke-width="4.75155" stroke="#1A202C" fill="#5A67D8" d="M729.809 58.1452C720.272 52.7218 712.732 54.1877 709.281 56.6368C708.554 57.1527 708.207 58.0195 708.152 58.9093L705.416 103.282C705.33 104.678 706.012 106.015 707.225 106.711C737.079 123.82 781.716 118.307 806.747 110.366C809.666 109.44 810.094 105.634 807.551 103.927L784.66 88.5656C782.754 87.287 782.407 84.6244 783.922 82.9004L804.377 59.6162C806.792 56.8668 804.31 52.6266 800.728 53.3742C772.839 59.1937 741.527 64.808 729.809 58.1452Z"></path>
<rect fill="#090A15" height="8.12037" width="8.44516" y="85.6805" x="751.034"></rect>
<path stroke-width="5.67534" stroke="#090A15" fill="white" d="M740.116 89.4719C739.235 90.8615 739.249 92.6299 740.151 94.005L745.42 102.042C746.465 103.637 748.423 104.308 750.196 103.794L749.406 101.068L750.196 103.794L765.402 99.3828C767.831 98.6784 769.21 95.9574 768.058 93.5398L758.283 73.0365C756.835 70.0008 752.593 69.7916 750.816 72.595L740.116 89.4719ZM754.244 93.9779L755.776 86.6033L758.521 92.7437L754.244 93.9779Z"></path>
<rect stroke-width="4.75155" stroke="#090A15" fill="#2D3748" transform="rotate(3.94818 708.046 54.135)" rx="5.03205" height="226.276" width="10.0641" y="54.135" x="708.046"></rect>
</g>
<defs>
<linearGradient gradientUnits="userSpaceOnUse" y2="474" x2="422" y1="0" x1="422" id="paint0_linear_1089_37428">
<stop stop-color="#5A67D8"></stop>
<stop stop-color="#667EEA" offset="1"></stop>
</linearGradient>
<clipPath id="clip0_1089_37428">
<rect fill="white" height="474" width="844"></rect>
</clipPath>
</defs>
</svg>
