<svg xmlns="http://www.w3.org/2000/svg" fill="none" viewBox="0 0 844 474" height="474" width="844">
<g clip-path="url(#clip0_7085_1132)">
<rect fill="#EBF4FF" height="474" width="844"></rect>
<g filter="url(#filter0_f_7085_1132)">
<ellipse fill="#7F9CF5" transform="rotate(-100.709 476.67 535.066)" ry="242.439" rx="126.214" cy="535.066" cx="476.67"></ellipse>
</g>
<g filter="url(#filter1_f_7085_1132)">
<ellipse fill-opacity="0.5" fill="#68D391" ry="133.5" rx="69.5" cy="258.5" cx="-6.5"></ellipse>
</g>
<path stroke-width="1.64829" stroke="#4C51BF" d="M139.497 81.6303H383.444C389.133 81.6303 393.745 86.2426 393.745 91.9321V130.667C393.745 136.356 389.133 140.969 383.444 140.969H139.497V81.6303Z"></path>
<path fill="#4C4DBF" d="M169.318 121.459C168.07 121.459 166.961 121.216 165.99 120.731C165.037 120.229 164.292 119.527 163.755 118.625C163.235 117.707 162.975 116.658 162.975 115.48V108.747C162.975 107.568 163.235 106.537 163.755 105.653C164.292 104.752 165.037 104.059 165.99 103.573C166.961 103.071 168.07 102.819 169.318 102.819C170.566 102.819 171.666 103.062 172.62 103.547C173.573 104.015 174.309 104.682 174.829 105.549C175.367 106.416 175.635 107.421 175.635 108.565V108.591C175.635 108.677 175.609 108.747 175.557 108.799C175.505 108.851 175.445 108.877 175.375 108.877L173.399 108.981C173.226 108.981 173.139 108.903 173.139 108.747V108.669C173.139 107.559 172.793 106.667 172.1 105.991C171.406 105.315 170.479 104.977 169.318 104.977C168.157 104.977 167.221 105.315 166.51 105.991C165.817 106.667 165.47 107.559 165.47 108.669V115.584C165.47 116.693 165.817 117.586 166.51 118.261C167.221 118.937 168.157 119.275 169.318 119.275C170.479 119.275 171.406 118.937 172.1 118.261C172.793 117.586 173.139 116.693 173.139 115.584V115.532C173.139 115.376 173.226 115.298 173.399 115.298L175.375 115.402C175.549 115.402 175.635 115.488 175.635 115.662C175.635 116.806 175.367 117.82 174.829 118.703C174.309 119.57 173.573 120.246 172.62 120.731C171.666 121.216 170.566 121.459 169.318 121.459ZM185.187 121.459C183.922 121.459 182.804 121.199 181.833 120.679C180.863 120.159 180.109 119.431 179.572 118.495C179.034 117.542 178.766 116.45 178.766 115.22V109.033C178.766 107.802 179.034 106.719 179.572 105.783C180.109 104.847 180.863 104.119 181.833 103.599C182.804 103.079 183.922 102.819 185.187 102.819C186.47 102.819 187.596 103.079 188.567 103.599C189.537 104.119 190.291 104.847 190.828 105.783C191.366 106.719 191.634 107.802 191.634 109.033V115.22C191.634 116.45 191.366 117.542 190.828 118.495C190.291 119.431 189.537 120.159 188.567 120.679C187.596 121.199 186.47 121.459 185.187 121.459ZM185.187 119.301C186.366 119.301 187.319 118.937 188.047 118.209C188.775 117.482 189.139 116.52 189.139 115.324V109.007C189.139 107.793 188.775 106.823 188.047 106.095C187.319 105.35 186.366 104.977 185.187 104.977C184.008 104.977 183.055 105.35 182.327 106.095C181.617 106.823 181.261 107.793 181.261 109.007V115.324C181.261 116.52 181.617 117.482 182.327 118.209C183.055 118.937 184.008 119.301 185.187 119.301ZM201.645 121.433C200.38 121.433 199.262 121.19 198.291 120.705C197.338 120.203 196.593 119.501 196.056 118.599C195.518 117.681 195.25 116.632 195.25 115.454V103.287C195.25 103.114 195.336 103.027 195.51 103.027H197.485C197.659 103.027 197.745 103.114 197.745 103.287V115.506C197.745 116.632 198.101 117.542 198.811 118.235C199.539 118.929 200.484 119.275 201.645 119.275C202.806 119.275 203.742 118.929 204.453 118.235C205.163 117.542 205.518 116.632 205.518 115.506V103.287C205.518 103.114 205.605 103.027 205.778 103.027H207.754C207.927 103.027 208.014 103.114 208.014 103.287V115.454C208.014 116.632 207.745 117.681 207.208 118.599C206.688 119.501 205.943 120.203 204.972 120.705C204.019 121.19 202.91 121.433 201.645 121.433ZM222.459 121.225C222.32 121.225 222.225 121.164 222.173 121.043L218.533 113.27C218.516 113.218 218.481 113.192 218.429 113.192H214.686C214.616 113.192 214.582 113.227 214.582 113.296V120.965C214.582 121.138 214.495 121.225 214.322 121.225H212.346C212.172 121.225 212.086 121.138 212.086 120.965V103.287C212.086 103.114 212.172 103.027 212.346 103.027H219.339C220.379 103.027 221.289 103.244 222.069 103.677C222.866 104.11 223.481 104.717 223.914 105.497C224.348 106.277 224.564 107.178 224.564 108.201C224.564 109.414 224.244 110.445 223.602 111.294C222.979 112.126 222.103 112.689 220.977 112.984C220.907 113.019 220.89 113.062 220.925 113.114L224.694 120.913C224.712 120.948 224.72 120.991 224.72 121.043C224.72 121.164 224.651 121.225 224.512 121.225H222.459ZM214.686 105.185C214.616 105.185 214.582 105.22 214.582 105.289V111.112C214.582 111.182 214.616 111.216 214.686 111.216H219.027C219.946 111.216 220.682 110.948 221.237 110.41C221.791 109.856 222.069 109.128 222.069 108.227C222.069 107.308 221.791 106.572 221.237 106.017C220.682 105.462 219.946 105.185 219.027 105.185H214.686ZM233.645 121.433C232.31 121.433 231.149 121.225 230.161 120.809C229.19 120.393 228.437 119.804 227.899 119.041C227.379 118.279 227.119 117.386 227.119 116.364V115.61C227.119 115.436 227.206 115.35 227.379 115.35H229.277C229.45 115.35 229.537 115.436 229.537 115.61V116.234C229.537 117.118 229.918 117.846 230.681 118.417C231.443 118.989 232.492 119.275 233.827 119.275C235.022 119.275 235.924 119.024 236.53 118.521C237.137 118.019 237.44 117.36 237.44 116.546C237.44 116.008 237.284 115.549 236.972 115.168C236.66 114.787 236.201 114.44 235.594 114.128C235.005 113.799 234.138 113.409 232.995 112.958C231.729 112.473 230.724 112.031 229.979 111.632C229.251 111.234 228.644 110.714 228.159 110.072C227.674 109.414 227.431 108.591 227.431 107.603C227.431 106.112 227.96 104.942 229.017 104.093C230.092 103.244 231.539 102.819 233.359 102.819C234.641 102.819 235.768 103.036 236.738 103.469C237.709 103.903 238.454 104.509 238.974 105.289C239.511 106.069 239.78 106.97 239.78 107.993V108.513C239.78 108.686 239.693 108.773 239.52 108.773H237.57C237.397 108.773 237.31 108.686 237.31 108.513V108.123C237.31 107.221 236.946 106.476 236.218 105.887C235.508 105.28 234.52 104.977 233.255 104.977C232.18 104.977 231.348 105.202 230.759 105.653C230.17 106.086 229.875 106.719 229.875 107.551C229.875 108.123 230.022 108.591 230.317 108.955C230.612 109.319 231.045 109.648 231.617 109.942C232.206 110.22 233.099 110.584 234.294 111.034C235.525 111.52 236.522 111.97 237.284 112.386C238.047 112.785 238.679 113.322 239.182 113.998C239.684 114.657 239.936 115.48 239.936 116.468C239.936 117.993 239.373 119.206 238.246 120.107C237.137 120.991 235.603 121.433 233.645 121.433ZM255.401 104.925C255.401 105.098 255.314 105.185 255.141 105.185H245.912C245.843 105.185 245.808 105.22 245.808 105.289V110.878C245.808 110.948 245.843 110.982 245.912 110.982H252.255C252.429 110.982 252.515 111.069 252.515 111.242V112.88C252.515 113.053 252.429 113.14 252.255 113.14H245.912C245.843 113.14 245.808 113.175 245.808 113.244V118.963C245.808 119.033 245.843 119.067 245.912 119.067H255.141C255.314 119.067 255.401 119.154 255.401 119.327V120.965C255.401 121.138 255.314 121.225 255.141 121.225H243.572C243.399 121.225 243.313 121.138 243.313 120.965V103.287C243.313 103.114 243.399 103.027 243.572 103.027H255.141C255.314 103.027 255.401 103.114 255.401 103.287V104.925ZM276.382 103.001C277.439 103.001 278.366 103.227 279.163 103.677C279.978 104.11 280.602 104.726 281.035 105.523C281.486 106.32 281.711 107.239 281.711 108.279C281.711 109.319 281.486 110.228 281.035 111.008C280.585 111.788 279.943 112.395 279.111 112.828C278.297 113.261 277.352 113.478 276.278 113.478H271.702C271.633 113.478 271.598 113.513 271.598 113.582V120.965C271.598 121.138 271.512 121.225 271.338 121.225H269.363C269.189 121.225 269.103 121.138 269.103 120.965V103.261C269.103 103.088 269.189 103.001 269.363 103.001H276.382ZM276.044 111.45C276.997 111.45 277.76 111.164 278.332 110.592C278.921 110.02 279.215 109.267 279.215 108.331C279.215 107.377 278.921 106.615 278.332 106.043C277.76 105.454 276.997 105.159 276.044 105.159H271.702C271.633 105.159 271.598 105.194 271.598 105.263V111.346C271.598 111.416 271.633 111.45 271.702 111.45H276.044ZM294.804 121.225C294.648 121.225 294.544 121.156 294.492 121.017L293.556 117.975C293.538 117.923 293.504 117.897 293.452 117.897H286.147C286.095 117.897 286.06 117.923 286.043 117.975L285.107 121.017C285.055 121.156 284.951 121.225 284.795 121.225H282.689C282.498 121.225 282.429 121.13 282.481 120.939L288.174 103.235C288.226 103.097 288.33 103.027 288.486 103.027H291.086C291.242 103.027 291.346 103.097 291.398 103.235L297.143 120.939L297.169 121.043C297.169 121.164 297.091 121.225 296.935 121.225H294.804ZM286.693 115.792C286.675 115.826 286.675 115.861 286.693 115.896C286.727 115.913 286.762 115.922 286.797 115.922H292.776C292.81 115.922 292.836 115.913 292.854 115.896C292.888 115.861 292.897 115.826 292.88 115.792L289.864 106.147C289.847 106.112 289.821 106.095 289.786 106.095C289.752 106.095 289.726 106.112 289.708 106.147L286.693 115.792ZM310.503 121.225C310.364 121.225 310.269 121.164 310.217 121.043L306.577 113.27C306.56 113.218 306.525 113.192 306.473 113.192H302.73C302.66 113.192 302.626 113.227 302.626 113.296V120.965C302.626 121.138 302.539 121.225 302.366 121.225H300.39C300.217 121.225 300.13 121.138 300.13 120.965V103.287C300.13 103.114 300.217 103.027 300.39 103.027H307.383C308.423 103.027 309.333 103.244 310.113 103.677C310.91 104.11 311.525 104.717 311.958 105.497C312.392 106.277 312.608 107.178 312.608 108.201C312.608 109.414 312.288 110.445 311.646 111.294C311.023 112.126 310.147 112.689 309.021 112.984C308.951 113.019 308.934 113.062 308.969 113.114L312.738 120.913C312.756 120.948 312.764 120.991 312.764 121.043C312.764 121.164 312.695 121.225 312.556 121.225H310.503ZM302.73 105.185C302.66 105.185 302.626 105.22 302.626 105.289V111.112C302.626 111.182 302.66 111.216 302.73 111.216H307.071C307.99 111.216 308.726 110.948 309.281 110.41C309.835 109.856 310.113 109.128 310.113 108.227C310.113 107.308 309.835 106.572 309.281 106.017C308.726 105.462 307.99 105.185 307.071 105.185H302.73ZM327.616 103.027C327.79 103.027 327.876 103.114 327.876 103.287V104.951C327.876 105.124 327.79 105.211 327.616 105.211H322.625C322.556 105.211 322.521 105.246 322.521 105.315V120.965C322.521 121.138 322.434 121.225 322.261 121.225H320.285C320.112 121.225 320.025 121.138 320.025 120.965V105.315C320.025 105.246 319.991 105.211 319.921 105.211H315.164C314.991 105.211 314.904 105.124 314.904 104.951V103.287C314.904 103.114 314.991 103.027 315.164 103.027H327.616ZM345.669 112.594C346.016 113.443 346.189 114.423 346.189 115.532C346.189 116.45 346.05 117.3 345.773 118.079C345.392 119.154 344.759 119.986 343.875 120.575C342.991 121.147 341.926 121.433 340.678 121.433C339.43 121.433 338.347 121.112 337.428 120.471C336.527 119.83 335.894 118.963 335.53 117.872C335.34 117.386 335.227 116.693 335.192 115.792C335.192 115.618 335.279 115.532 335.452 115.532H337.454C337.627 115.532 337.714 115.618 337.714 115.792C337.749 116.416 337.818 116.875 337.922 117.17C338.095 117.811 338.416 118.322 338.884 118.703C339.369 119.085 339.967 119.275 340.678 119.275C341.995 119.275 342.879 118.677 343.329 117.482C343.555 116.962 343.667 116.286 343.667 115.454C343.667 114.57 343.529 113.781 343.251 113.088C342.766 112.014 341.9 111.476 340.652 111.476C340.357 111.476 339.984 111.606 339.534 111.866C339.464 111.901 339.412 111.918 339.378 111.918C339.291 111.918 339.222 111.875 339.17 111.788L338.182 110.436C338.147 110.367 338.13 110.306 338.13 110.254C338.13 110.202 338.156 110.142 338.208 110.072L342.653 105.315C342.705 105.228 342.688 105.185 342.601 105.185H335.686C335.513 105.185 335.426 105.098 335.426 104.925V103.287C335.426 103.114 335.513 103.027 335.686 103.027H345.773C345.946 103.027 346.033 103.114 346.033 103.287V105.159C346.033 105.246 345.99 105.35 345.903 105.471L341.952 109.786C341.917 109.821 341.908 109.856 341.926 109.89C341.943 109.908 341.978 109.925 342.03 109.942C342.913 110.029 343.659 110.306 344.265 110.774C344.872 111.225 345.34 111.832 345.669 112.594ZM348.643 121.225C348.453 121.225 348.384 121.13 348.436 120.939L354.545 103.235C354.597 103.097 354.701 103.027 354.857 103.027H356.806C356.997 103.027 357.066 103.123 357.014 103.313L350.905 121.017C350.853 121.156 350.749 121.225 350.593 121.225H348.643ZM370.917 113.166C371.108 113.929 371.203 114.717 371.203 115.532C371.203 116.346 371.099 117.1 370.891 117.794C370.562 118.903 369.929 119.787 368.993 120.445C368.075 121.086 366.974 121.407 365.692 121.407C364.427 121.407 363.343 121.095 362.442 120.471C361.541 119.847 360.908 118.998 360.544 117.923C360.371 117.438 360.276 117.014 360.258 116.65V116.598C360.258 116.459 360.336 116.39 360.492 116.39H362.546C362.702 116.39 362.789 116.468 362.806 116.624C362.823 116.745 362.867 116.927 362.936 117.17C363.127 117.811 363.456 118.322 363.924 118.703C364.409 119.067 364.99 119.249 365.666 119.249C366.376 119.249 366.974 119.059 367.46 118.677C367.962 118.279 368.3 117.733 368.473 117.04C368.595 116.676 368.655 116.173 368.655 115.532C368.655 114.96 368.603 114.431 368.499 113.946C368.378 113.287 368.066 112.785 367.564 112.438C367.078 112.074 366.472 111.892 365.744 111.892C365.068 111.892 364.461 112.048 363.924 112.36C363.387 112.655 363.04 113.053 362.884 113.556C362.832 113.712 362.737 113.79 362.598 113.79H360.518C360.345 113.79 360.258 113.703 360.258 113.53V103.287C360.258 103.114 360.345 103.027 360.518 103.027H370.241C370.415 103.027 370.501 103.114 370.501 103.287V104.925C370.501 105.098 370.415 105.185 370.241 105.185H362.858C362.789 105.185 362.754 105.22 362.754 105.289L362.728 110.722C362.728 110.826 362.771 110.852 362.858 110.8C363.274 110.436 363.751 110.168 364.288 109.994C364.843 109.804 365.423 109.708 366.03 109.708C367.243 109.708 368.283 110.012 369.149 110.618C370.033 111.225 370.622 112.074 370.917 113.166Z"></path>
<path fill="#4C51BF" d="M81.8071 91.9321C81.8071 85.7874 86.7884 80.8062 92.9331 80.8062H142.794V141.793H92.9331C86.7884 141.793 81.8071 136.811 81.8071 130.667V91.9321Z"></path>
<path fill="white" d="M97.3389 116.824C96.9518 117.454 96.9578 118.249 97.3544 118.874L104.531 130.174C104.997 130.907 105.895 131.242 106.728 130.992L127.439 124.791C128.569 124.452 129.138 123.194 128.644 122.124L115.33 93.2967C114.681 91.8909 112.723 91.7755 111.913 93.0952L97.3389 116.824ZM114.976 99.8869C114.693 99.2334 113.735 99.334 113.594 100.032L108.469 125.507C108.361 126.044 108.864 126.503 109.39 126.346L123.7 122.082C124.118 121.958 124.333 121.498 124.16 121.098L114.976 99.8869Z" clip-rule="evenodd" fill-rule="evenodd"></path>
<path fill="#4C51BF" d="M93.8356 258.873C93.0335 258.873 92.301 258.678 91.6381 258.287C90.9753 257.889 90.445 257.359 90.0472 256.696C89.6561 256.033 89.4606 255.3 89.4606 254.498C89.4606 253.689 89.6561 252.957 90.0472 252.301C90.445 251.638 90.9753 251.111 91.6381 250.72C92.301 250.322 93.0335 250.123 93.8356 250.123C94.6443 250.123 95.3768 250.322 96.033 250.72C96.6959 251.111 97.2229 251.638 97.614 252.301C98.0117 252.957 98.2106 253.689 98.2106 254.498C98.2106 255.3 98.0117 256.033 97.614 256.696C97.2229 257.359 96.6959 257.889 96.033 258.287C95.3768 258.678 94.6443 258.873 93.8356 258.873ZM118.786 262.612H115.524L122.852 242.248H126.402L133.73 262.612H130.469L124.712 245.947H124.553L118.786 262.612ZM119.332 254.637H129.912V257.223H119.332V254.637ZM146.107 256.278V247.339H149.09V262.612H146.167V259.967H146.007C145.656 260.782 145.093 261.462 144.317 262.005C143.548 262.542 142.59 262.811 141.444 262.811C140.462 262.811 139.594 262.595 138.838 262.164C138.089 261.727 137.499 261.081 137.069 260.225C136.644 259.37 136.432 258.313 136.432 257.054V247.339H139.405V256.696C139.405 257.736 139.694 258.565 140.27 259.181C140.847 259.798 141.596 260.106 142.517 260.106C143.074 260.106 143.628 259.967 144.178 259.689C144.735 259.41 145.195 258.989 145.56 258.426C145.931 257.862 146.114 257.146 146.107 256.278ZM160.214 247.339V249.725H151.871V247.339H160.214ZM154.109 243.68H157.082V258.127C157.082 258.704 157.168 259.138 157.34 259.43C157.513 259.715 157.735 259.911 158.006 260.017C158.285 260.116 158.586 260.166 158.911 260.166C159.15 260.166 159.359 260.149 159.538 260.116C159.717 260.083 159.856 260.056 159.955 260.037L160.492 262.492C160.32 262.559 160.075 262.625 159.756 262.691C159.438 262.764 159.04 262.804 158.563 262.811C157.781 262.824 157.052 262.685 156.376 262.393C155.7 262.101 155.153 261.651 154.735 261.041C154.317 260.431 154.109 259.665 154.109 258.744V243.68ZM166.804 253.544V262.612H163.831V242.248H166.764V249.825H166.953C167.311 249.003 167.858 248.35 168.593 247.866C169.329 247.382 170.29 247.14 171.477 247.14C172.524 247.14 173.439 247.356 174.221 247.787C175.01 248.217 175.62 248.86 176.051 249.716C176.488 250.564 176.707 251.625 176.707 252.897V262.612H173.734V253.255C173.734 252.135 173.446 251.267 172.869 250.65C172.292 250.027 171.49 249.716 170.463 249.716C169.76 249.716 169.13 249.865 168.574 250.163C168.023 250.461 167.589 250.899 167.271 251.475C166.959 252.046 166.804 252.735 166.804 253.544ZM187.257 262.92C185.752 262.92 184.456 262.599 183.369 261.956C182.288 261.306 181.453 260.394 180.863 259.221C180.28 258.041 179.988 256.659 179.988 255.075C179.988 253.51 180.28 252.132 180.863 250.939C181.453 249.745 182.275 248.814 183.329 248.144C184.39 247.475 185.629 247.14 187.048 247.14C187.91 247.14 188.745 247.283 189.554 247.568C190.362 247.853 191.088 248.3 191.731 248.91C192.374 249.52 192.881 250.312 193.252 251.287C193.624 252.254 193.809 253.431 193.809 254.816V255.87H181.669V253.643H190.896C190.896 252.861 190.737 252.168 190.419 251.565C190.1 250.955 189.653 250.475 189.076 250.123C188.506 249.772 187.837 249.596 187.068 249.596C186.233 249.596 185.503 249.802 184.88 250.213C184.264 250.617 183.787 251.147 183.449 251.804C183.117 252.453 182.951 253.159 182.951 253.921V255.662C182.951 256.682 183.13 257.551 183.488 258.267C183.853 258.983 184.36 259.529 185.01 259.907C185.659 260.278 186.418 260.464 187.287 260.464C187.85 260.464 188.364 260.385 188.828 260.225C189.292 260.06 189.693 259.814 190.031 259.49C190.369 259.165 190.627 258.764 190.806 258.287L193.62 258.794C193.395 259.622 192.991 260.348 192.407 260.971C191.831 261.588 191.105 262.068 190.23 262.413C189.361 262.751 188.37 262.92 187.257 262.92ZM200.081 253.544V262.612H197.108V247.339H199.962V249.825H200.151C200.502 249.016 201.052 248.367 201.801 247.876C202.557 247.385 203.508 247.14 204.655 247.14C205.696 247.14 206.607 247.359 207.389 247.796C208.171 248.227 208.778 248.87 209.209 249.725C209.64 250.581 209.855 251.638 209.855 252.897V262.612H206.882V253.255C206.882 252.148 206.594 251.283 206.017 250.66C205.44 250.03 204.648 249.716 203.641 249.716C202.951 249.716 202.338 249.865 201.801 250.163C201.271 250.461 200.85 250.899 200.538 251.475C200.233 252.046 200.081 252.735 200.081 253.544ZM220.972 247.339V249.725H212.629V247.339H220.972ZM214.866 243.68H217.839V258.127C217.839 258.704 217.926 259.138 218.098 259.43C218.27 259.715 218.492 259.911 218.764 260.017C219.043 260.116 219.344 260.166 219.669 260.166C219.908 260.166 220.116 260.149 220.295 260.116C220.474 260.083 220.614 260.056 220.713 260.037L221.25 262.492C221.078 262.559 220.832 262.625 220.514 262.691C220.196 262.764 219.798 262.804 219.321 262.811C218.539 262.824 217.81 262.685 217.134 262.393C216.457 262.101 215.911 261.651 215.493 261.041C215.075 260.431 214.866 259.665 214.866 258.744V243.68ZM224.26 262.612V247.339H227.233V262.612H224.26ZM225.762 244.983C225.245 244.983 224.801 244.81 224.429 244.466C224.065 244.114 223.882 243.697 223.882 243.213C223.882 242.722 224.065 242.305 224.429 241.96C224.801 241.609 225.245 241.433 225.762 241.433C226.279 241.433 226.72 241.609 227.084 241.96C227.455 242.305 227.641 242.722 227.641 243.213C227.641 243.697 227.455 244.114 227.084 244.466C226.72 244.81 226.279 244.983 225.762 244.983ZM237.666 262.92C236.188 262.92 234.915 262.585 233.848 261.916C232.787 261.24 231.972 260.308 231.402 259.122C230.832 257.935 230.547 256.576 230.547 255.045C230.547 253.494 230.839 252.125 231.422 250.939C232.005 249.745 232.827 248.814 233.888 248.144C234.948 247.475 236.198 247.14 237.636 247.14C238.796 247.14 239.83 247.356 240.739 247.787C241.647 248.211 242.379 248.807 242.936 249.576C243.5 250.345 243.834 251.243 243.94 252.271H241.047C240.888 251.555 240.523 250.939 239.953 250.421C239.39 249.904 238.634 249.646 237.686 249.646C236.857 249.646 236.132 249.865 235.509 250.302C234.892 250.733 234.411 251.35 234.067 252.152C233.722 252.947 233.55 253.888 233.55 254.975C233.55 256.089 233.719 257.05 234.057 257.859C234.395 258.668 234.872 259.294 235.489 259.738C236.112 260.182 236.844 260.404 237.686 260.404C238.25 260.404 238.76 260.302 239.217 260.096C239.681 259.884 240.069 259.582 240.381 259.191C240.699 258.8 240.921 258.33 241.047 257.779H243.94C243.834 258.767 243.513 259.649 242.976 260.424C242.439 261.2 241.72 261.81 240.818 262.254C239.923 262.698 238.873 262.92 237.666 262.92ZM251.564 262.95C250.596 262.95 249.721 262.771 248.939 262.413C248.157 262.048 247.537 261.521 247.08 260.832C246.629 260.143 246.404 259.297 246.404 258.296C246.404 257.435 246.569 256.725 246.901 256.169C247.232 255.612 247.68 255.171 248.243 254.846C248.807 254.521 249.436 254.276 250.132 254.11C250.828 253.945 251.538 253.819 252.26 253.733C253.175 253.626 253.917 253.54 254.488 253.474C255.058 253.401 255.472 253.285 255.73 253.126C255.989 252.967 256.118 252.708 256.118 252.35V252.281C256.118 251.412 255.873 250.74 255.382 250.262C254.899 249.785 254.176 249.546 253.215 249.546C252.214 249.546 251.425 249.769 250.848 250.213C250.278 250.65 249.884 251.137 249.665 251.674L246.871 251.038C247.203 250.11 247.686 249.361 248.323 248.791C248.966 248.214 249.705 247.796 250.54 247.538C251.375 247.273 252.254 247.14 253.175 247.14C253.785 247.14 254.431 247.213 255.114 247.359C255.803 247.498 256.446 247.757 257.043 248.135C257.646 248.512 258.14 249.053 258.525 249.755C258.909 250.451 259.101 251.356 259.101 252.47V262.612H256.198V260.524H256.078C255.886 260.908 255.598 261.286 255.213 261.657C254.829 262.028 254.335 262.337 253.732 262.582C253.129 262.827 252.406 262.95 251.564 262.95ZM252.211 260.564C253.033 260.564 253.735 260.401 254.319 260.076C254.908 259.751 255.356 259.327 255.661 258.804C255.972 258.273 256.128 257.707 256.128 257.103V255.135C256.022 255.241 255.817 255.34 255.512 255.433C255.213 255.519 254.872 255.595 254.488 255.662C254.103 255.721 253.729 255.778 253.364 255.831C252.999 255.877 252.694 255.917 252.449 255.95C251.873 256.023 251.346 256.145 250.868 256.318C250.398 256.49 250.02 256.739 249.735 257.064C249.456 257.382 249.317 257.806 249.317 258.336C249.317 259.072 249.589 259.629 250.132 260.007C250.676 260.378 251.369 260.564 252.211 260.564ZM270.19 247.339V249.725H261.848V247.339H270.19ZM264.085 243.68H267.058V258.127C267.058 258.704 267.144 259.138 267.317 259.43C267.489 259.715 267.711 259.911 267.983 260.017C268.261 260.116 268.563 260.166 268.888 260.166C269.126 260.166 269.335 260.149 269.514 260.116C269.693 260.083 269.832 260.056 269.932 260.037L270.469 262.492C270.296 262.559 270.051 262.625 269.733 262.691C269.415 262.764 269.017 262.804 268.54 262.811C267.758 262.824 267.028 262.685 266.352 262.393C265.676 262.101 265.129 261.651 264.712 261.041C264.294 260.431 264.085 259.665 264.085 258.744V243.68ZM273.479 262.612V247.339H276.452V262.612H273.479ZM274.98 244.983C274.463 244.983 274.019 244.81 273.648 244.466C273.283 244.114 273.101 243.697 273.101 243.213C273.101 242.722 273.283 242.305 273.648 241.96C274.019 241.609 274.463 241.433 274.98 241.433C275.498 241.433 275.938 241.609 276.303 241.96C276.674 242.305 276.86 242.722 276.86 243.213C276.86 243.697 276.674 244.114 276.303 244.466C275.938 244.81 275.498 244.983 274.98 244.983ZM286.885 262.92C285.453 262.92 284.204 262.592 283.136 261.936C282.069 261.279 281.241 260.361 280.651 259.181C280.061 258.001 279.766 256.623 279.766 255.045C279.766 253.461 280.061 252.075 280.651 250.889C281.241 249.702 282.069 248.781 283.136 248.125C284.204 247.468 285.453 247.14 286.885 247.14C288.317 247.14 289.566 247.468 290.634 248.125C291.701 248.781 292.529 249.702 293.119 250.889C293.709 252.075 294.004 253.461 294.004 255.045C294.004 256.623 293.709 258.001 293.119 259.181C292.529 260.361 291.701 261.279 290.634 261.936C289.566 262.592 288.317 262.92 286.885 262.92ZM286.895 260.424C287.823 260.424 288.592 260.179 289.202 259.689C289.812 259.198 290.262 258.545 290.554 257.73C290.852 256.914 291.001 256.016 291.001 255.035C291.001 254.061 290.852 253.166 290.554 252.35C290.262 251.528 289.812 250.869 289.202 250.372C288.592 249.875 287.823 249.626 286.895 249.626C285.96 249.626 285.185 249.875 284.568 250.372C283.958 250.869 283.504 251.528 283.206 252.35C282.914 253.166 282.768 254.061 282.768 255.035C282.768 256.016 282.914 256.914 283.206 257.73C283.504 258.545 283.958 259.198 284.568 259.689C285.185 260.179 285.96 260.424 286.895 260.424ZM300.296 253.544V262.612H297.323V247.339H300.176V249.825H300.365C300.717 249.016 301.267 248.367 302.016 247.876C302.772 247.385 303.723 247.14 304.87 247.14C305.91 247.14 306.822 247.359 307.604 247.796C308.386 248.227 308.993 248.87 309.424 249.725C309.855 250.581 310.07 251.638 310.07 252.897V262.612H307.097V253.255C307.097 252.148 306.809 251.283 306.232 250.66C305.655 250.03 304.863 249.716 303.855 249.716C303.166 249.716 302.553 249.865 302.016 250.163C301.486 250.461 301.065 250.899 300.753 251.475C300.448 252.046 300.296 252.735 300.296 253.544Z"></path>
<path fill="#4748A5" d="M228.864 394.514C228.533 395.053 228.538 395.733 228.877 396.267L235.016 405.933C235.415 406.561 236.183 406.847 236.895 406.633L254.611 401.328C255.578 401.039 256.064 399.962 255.642 399.047L244.253 374.389C243.698 373.186 242.024 373.087 241.33 374.216L228.864 394.514ZM243.951 380.026C243.709 379.467 242.889 379.553 242.769 380.15L238.384 401.941C238.292 402.4 238.723 402.793 239.173 402.659L251.413 399.012C251.77 398.905 251.954 398.511 251.806 398.17L243.951 380.026Z" clip-rule="evenodd" fill-rule="evenodd"></path>
<path fill="#4748A5" d="M266.409 390.009H267.487C268.496 390.009 269.25 389.81 269.751 389.412C270.251 389.015 270.502 388.436 270.502 387.676C270.502 386.909 270.292 386.342 269.872 385.976C269.453 385.61 268.795 385.427 267.9 385.427H266.409V390.009ZM273.813 387.565C273.813 389.226 273.293 390.497 272.252 391.376C271.213 392.257 269.734 392.696 267.816 392.696H266.409V398.186H263.13V382.751H268.069C269.945 382.751 271.371 383.154 272.348 383.96C273.325 384.766 273.813 385.967 273.813 387.565V387.565Z" clip-rule="evenodd" fill-rule="evenodd"></path>
<path fill="#4748A5" d="M282.508 386.149C282.945 386.149 283.308 386.181 283.597 386.244L283.354 389.263C283.093 389.193 282.776 389.158 282.402 389.158C281.373 389.158 280.571 389.422 279.996 389.95C279.421 390.477 279.134 391.217 279.134 392.167V398.174H275.908V386.371H278.351L278.827 388.356H278.986C279.352 387.694 279.848 387.161 280.472 386.756C281.096 386.351 281.774 386.149 282.508 386.149" clip-rule="evenodd" fill-rule="evenodd"></path>
<path fill="#4748A5" d="M285.295 398.198H288.522V386.394H285.295V398.198ZM285.16 383.338C285.16 382.289 285.745 381.765 286.916 381.765C288.086 381.765 288.672 382.289 288.672 383.338C288.672 383.838 288.525 384.227 288.233 384.505C287.94 384.783 287.501 384.922 286.916 384.922C285.745 384.922 285.16 384.394 285.16 383.338V383.338Z" clip-rule="evenodd" fill-rule="evenodd"></path>
<path fill="#4748A5" d="M299.895 394.669C299.895 395.88 299.473 396.802 298.631 397.435C297.788 398.068 296.527 398.385 294.849 398.385C293.989 398.385 293.256 398.327 292.649 398.211C292.043 398.095 291.475 397.924 290.946 397.699V395.038C291.546 395.32 292.221 395.556 292.972 395.746C293.723 395.936 294.384 396.031 294.955 396.031C296.126 396.031 296.711 395.693 296.711 395.017C296.711 394.764 296.633 394.558 296.478 394.4C296.323 394.241 296.055 394.062 295.674 393.861C295.294 393.66 294.786 393.427 294.151 393.159C293.242 392.779 292.573 392.427 292.147 392.103C291.72 391.78 291.41 391.408 291.216 390.989C291.022 390.571 290.925 390.055 290.925 389.443C290.925 388.394 291.332 387.583 292.147 387.009C292.961 386.436 294.116 386.149 295.611 386.149C297.035 386.149 298.421 386.459 299.768 387.078L298.795 389.4C298.202 389.147 297.649 388.94 297.134 388.778C296.619 388.616 296.094 388.535 295.558 388.535C294.606 388.535 294.13 388.792 294.13 389.305C294.13 389.594 294.284 389.844 294.59 390.055C294.897 390.266 295.569 390.58 296.605 390.995C297.529 391.368 298.206 391.716 298.636 392.04C299.066 392.364 299.383 392.737 299.588 393.159C299.793 393.581 299.895 394.085 299.895 394.669" clip-rule="evenodd" fill-rule="evenodd"></path>
<path fill="#4748A5" d="M312.67 398.174H309.444V391.28C309.444 390.429 309.301 389.79 309.016 389.364C308.73 388.938 308.281 388.725 307.667 388.725C306.842 388.725 306.243 389.028 305.869 389.633C305.495 390.239 305.308 391.234 305.308 392.621V398.174H302.082V386.371H304.547L304.981 387.881H305.161C305.478 387.339 305.936 386.914 306.535 386.608C307.135 386.302 307.822 386.149 308.598 386.149C310.368 386.149 311.567 386.726 312.194 387.881H312.48C312.797 387.331 313.265 386.906 313.882 386.603C314.499 386.3 315.195 386.149 315.97 386.149C317.31 386.149 318.324 386.492 319.011 387.178C319.699 387.865 320.043 388.964 320.043 390.477V398.174H316.806V391.28C316.806 390.429 316.663 389.79 316.378 389.364C316.092 388.938 315.643 388.725 315.029 388.725C314.239 388.725 313.649 389.007 313.257 389.57C312.866 390.133 312.67 391.027 312.67 392.251V398.174Z" clip-rule="evenodd" fill-rule="evenodd"></path>
<path fill="#4748A5" d="M329.431 392.709L328.183 392.751C327.245 392.779 326.547 392.948 326.089 393.258C325.63 393.567 325.401 394.039 325.401 394.672C325.401 395.58 325.923 396.034 326.966 396.034C327.714 396.034 328.312 395.819 328.759 395.39C329.207 394.961 329.431 394.391 329.431 393.68V392.709ZM330.382 398.181L329.758 396.576H329.674C329.13 397.259 328.572 397.732 327.997 397.996C327.423 398.26 326.673 398.392 325.75 398.392C324.614 398.392 323.72 398.069 323.068 397.421C322.416 396.774 322.09 395.852 322.09 394.655C322.09 393.402 322.529 392.479 323.406 391.884C324.285 391.289 325.608 390.96 327.378 390.897L329.43 390.833V390.316C329.43 389.119 328.817 388.521 327.59 388.521C326.645 388.521 325.534 388.806 324.258 389.376L323.19 387.201C324.551 386.49 326.06 386.135 327.717 386.135C329.303 386.135 330.52 386.48 331.366 387.17C332.212 387.859 332.635 388.908 332.635 390.316V398.181H330.382Z" clip-rule="evenodd" fill-rule="evenodd"></path>
<path fill="#4748A5" d="M132.897 384.68C132.333 384.68 131.818 384.755 131.353 384.905C130.902 385.043 130.506 385.275 130.166 385.601C129.84 385.914 129.576 386.322 129.375 386.824C129.187 387.325 129.08 387.923 129.055 388.618C129.016 389.746 129.016 390.874 129.055 392.002C129.08 392.704 129.187 393.302 129.375 393.796C129.576 394.297 129.84 394.711 130.166 395.038C130.505 395.351 130.9 395.583 131.353 395.734C131.818 395.872 132.333 395.941 132.897 395.941C133.451 395.941 133.966 395.866 134.441 395.716C134.916 395.553 135.324 395.316 135.665 395.005C136.018 394.679 136.295 394.265 136.496 393.764C136.697 393.263 136.798 392.674 136.798 391.997V391.038H133.517C133.24 391.038 133.102 390.898 133.102 390.616V390.352C133.102 390.071 133.24 389.93 133.517 389.93H137.545C137.827 389.93 137.968 390.071 137.968 390.352V392.006C137.968 392.759 137.856 393.449 137.63 394.075C137.404 394.689 137.072 395.223 136.632 395.675C136.205 396.126 135.671 396.476 135.029 396.727C134.394 396.965 133.679 397.084 132.882 397.084C132.066 397.084 131.35 396.965 130.735 396.727C130.12 396.477 129.599 396.132 129.172 395.693C128.758 395.255 128.438 394.735 128.212 394.133C127.999 393.519 127.88 392.842 127.855 392.102C127.829 391.539 127.817 390.944 127.817 390.316C127.817 389.683 127.829 389.088 127.855 388.53C127.88 387.791 128.006 387.121 128.231 386.519C128.457 385.904 128.777 385.378 129.191 384.939C129.618 384.501 130.139 384.163 130.754 383.924C131.37 383.674 132.079 383.548 132.882 383.548C133.749 383.548 134.49 383.68 135.105 383.943C135.72 384.206 136.223 384.523 136.612 384.893C137.001 385.257 137.29 385.639 137.479 386.04C137.667 386.441 137.768 386.774 137.78 387.037C137.793 387.149 137.761 387.243 137.685 387.319C137.61 387.382 137.509 387.414 137.384 387.414H136.969C136.856 387.414 136.775 387.389 136.724 387.34C136.674 387.276 136.624 387.176 136.574 387.039C136.474 386.757 136.333 386.476 136.151 386.194C135.974 385.913 135.737 385.662 135.438 385.443C135.137 385.218 134.779 385.036 134.365 384.897C133.95 384.759 133.46 384.69 132.895 384.69L132.897 384.68ZM141.788 388.42C142.239 387.554 143.093 387.121 144.349 387.121H145.047C145.323 387.121 145.462 387.259 145.462 387.535V387.799C145.462 388.075 145.323 388.213 145.047 388.213H144.237C143.483 388.213 142.886 388.432 142.448 388.87C142.009 389.309 141.789 389.904 141.789 390.656V396.483C141.789 396.608 141.745 396.708 141.657 396.783C141.581 396.859 141.481 396.896 141.356 396.896H141.054C140.778 396.896 140.64 396.758 140.64 396.483V387.553C140.64 387.428 140.677 387.327 140.753 387.252C140.828 387.164 140.929 387.12 141.054 387.12H141.356C141.481 387.12 141.581 387.164 141.657 387.252C141.745 387.327 141.789 387.428 141.789 387.553V388.418L141.788 388.42ZM153.42 396.902C153.144 396.902 153.006 396.764 153.006 396.488V395.604C152.893 395.78 152.742 395.956 152.554 396.132C152.378 396.308 152.158 396.465 151.895 396.602C151.632 396.74 151.314 396.852 150.944 396.94C150.579 397.04 150.153 397.09 149.664 397.09C149.213 397.09 148.779 397.021 148.363 396.883C147.962 396.733 147.604 396.532 147.29 396.281C146.989 396.031 146.744 395.736 146.556 395.398C146.38 395.06 146.292 394.69 146.292 394.289C146.292 393.864 146.38 393.481 146.556 393.142C146.744 392.804 147.002 392.51 147.328 392.258C147.654 391.995 148.044 391.782 148.496 391.62C148.961 391.444 149.469 391.319 150.021 391.244L152.997 390.83V390.173C152.997 389.496 152.79 388.969 152.375 388.594C151.974 388.218 151.327 388.03 150.436 388.03C149.733 388.03 149.187 388.168 148.797 388.444C148.42 388.707 148.183 388.995 148.084 389.309C148.035 389.459 147.972 389.566 147.896 389.629C147.833 389.678 147.744 389.703 147.632 389.703H147.367C147.254 389.703 147.154 389.665 147.066 389.59C146.99 389.502 146.953 389.402 146.953 389.289C146.953 389.113 147.015 388.894 147.141 388.632C147.266 388.368 147.467 388.112 147.744 387.861C148.026 387.611 148.39 387.398 148.836 387.223C149.275 387.035 149.81 386.941 150.439 386.941C151.179 386.941 151.788 387.041 152.266 387.242C152.756 387.442 153.139 387.705 153.416 388.031C153.692 388.344 153.881 388.695 153.981 389.083C154.093 389.472 154.15 389.854 154.15 390.231V396.49C154.15 396.766 154.012 396.904 153.735 396.904H153.415L153.42 396.902ZM149.861 395.999C150.287 395.999 150.689 395.93 151.066 395.792C151.455 395.642 151.794 395.423 152.084 395.135C152.366 394.853 152.591 394.49 152.76 394.044C152.924 393.606 153.006 393.092 153.006 392.503V391.865L150.577 392.202C148.493 392.484 147.451 393.148 147.451 394.195C147.451 394.508 147.52 394.778 147.658 395.004C147.808 395.229 147.996 395.417 148.223 395.567C148.448 395.717 148.706 395.83 148.995 395.905C149.277 395.969 149.566 396 149.862 396L149.861 395.999ZM161.446 397.09C160.655 397.09 160.009 396.949 159.507 396.667C159.005 396.386 158.597 396.035 158.282 395.615V400.069C158.282 400.345 158.144 400.483 157.868 400.483H157.547C157.271 400.483 157.133 400.345 157.133 400.069V387.535C157.133 387.259 157.271 387.121 157.547 387.121H157.868C158.144 387.121 158.282 387.259 158.282 387.535V388.418C158.596 387.993 159.004 387.642 159.507 387.366C160.009 387.085 160.655 386.944 161.446 386.944C162.175 386.944 162.79 387.075 163.292 387.339C163.806 387.589 164.221 387.928 164.535 388.354C164.849 388.768 165.075 389.244 165.212 389.783C165.362 390.31 165.45 390.849 165.476 391.4C165.489 391.588 165.495 391.795 165.495 392.021C165.495 392.246 165.489 392.453 165.476 392.642C165.451 393.195 165.363 393.74 165.212 394.278C165.074 394.804 164.848 395.28 164.535 395.707C164.221 396.121 163.807 396.459 163.292 396.722C162.79 396.973 162.175 397.098 161.446 397.098V397.09ZM158.282 391.337C158.27 391.525 158.263 391.769 158.263 392.069C158.263 392.37 158.27 392.614 158.282 392.802C158.295 393.178 158.358 393.56 158.471 393.949C158.596 394.325 158.784 394.664 159.035 394.965C159.286 395.265 159.604 395.516 159.987 395.716C160.363 395.904 160.815 395.998 161.343 395.998C161.897 395.998 162.355 395.904 162.717 395.716C163.094 395.528 163.395 395.278 163.622 394.965C163.86 394.639 164.029 394.27 164.129 393.856C164.242 393.431 164.311 392.992 164.336 392.54C164.349 392.188 164.349 391.838 164.336 391.488C164.311 391.038 164.242 390.605 164.129 390.19C164.029 389.776 163.86 389.412 163.622 389.099C163.396 388.773 163.095 388.517 162.717 388.329C162.353 388.128 161.895 388.028 161.343 388.028C160.803 388.028 160.344 388.128 159.968 388.329C159.592 388.529 159.274 388.792 159.016 389.118C158.778 389.431 158.596 389.782 158.47 390.171C158.357 390.559 158.294 390.947 158.281 391.336L158.282 391.337ZM169.209 388.42C169.548 387.981 169.956 387.624 170.434 387.348C170.909 387.072 171.555 386.934 172.373 386.934C173.013 386.934 173.572 387.041 174.049 387.254C174.524 387.467 174.92 387.762 175.236 388.138C175.562 388.513 175.807 388.959 175.97 389.473C176.133 389.987 176.215 390.544 176.215 391.146V396.485C176.215 396.761 176.077 396.898 175.8 396.898H175.483C175.207 396.898 175.069 396.761 175.069 396.485V391.239C175.069 390.236 174.824 389.453 174.335 388.889C173.845 388.312 173.13 388.024 172.188 388.024C171.284 388.024 170.562 388.305 170.022 388.868C169.482 389.431 169.212 390.222 169.212 391.24V396.486C169.212 396.762 169.074 396.9 168.798 396.9H168.477C168.201 396.9 168.063 396.762 168.063 396.486V383.962C168.063 383.686 168.201 383.548 168.477 383.548H168.798C169.074 383.548 169.212 383.686 169.212 383.962V388.416L169.209 388.42ZM183.897 383.551C184.626 383.551 185.291 383.658 185.894 383.871C186.497 384.084 187.011 384.41 187.438 384.849C187.877 385.274 188.216 385.813 188.455 386.466C188.706 387.105 188.844 387.863 188.87 388.74C188.895 389.303 188.908 389.83 188.908 390.319C188.908 390.808 188.895 391.334 188.87 391.898C188.806 393.691 188.348 395.007 187.495 395.846L188.7 397.538C188.713 397.563 188.726 397.588 188.738 397.612C188.751 397.637 188.758 397.681 188.758 397.744C188.758 397.844 188.72 397.932 188.644 398.008C188.569 398.083 188.481 398.121 188.38 398.121H187.965C187.827 398.121 187.708 398.064 187.608 397.952C187.508 397.852 187.426 397.764 187.363 397.688L186.532 396.541C185.777 396.904 184.898 397.086 183.894 397.086C182.325 397.086 181.113 396.667 180.26 395.827C179.419 394.988 178.973 393.678 178.922 391.898C178.897 391.336 178.884 390.809 178.884 390.319C178.884 389.831 178.897 389.305 178.922 388.74C178.947 387.863 179.079 387.105 179.318 386.466C179.568 385.814 179.908 385.275 180.335 384.849C180.774 384.41 181.289 384.084 181.879 383.871C182.481 383.658 183.153 383.551 183.894 383.551H183.897ZM183.897 384.681C183.37 384.681 182.88 384.762 182.428 384.926C181.976 385.076 181.581 385.32 181.241 385.658C180.903 385.996 180.633 386.429 180.431 386.957C180.243 387.483 180.136 388.109 180.111 388.835C180.098 389.117 180.085 389.38 180.073 389.625C180.073 389.863 180.073 390.095 180.073 390.322C180.073 390.547 180.073 390.784 180.073 391.033C180.085 391.271 180.098 391.528 180.111 391.804C180.136 392.542 180.243 393.176 180.431 393.703C180.632 394.217 180.896 394.643 181.222 394.981C181.56 395.318 181.956 395.569 182.409 395.732C182.86 395.882 183.355 395.957 183.893 395.957C184.433 395.957 184.928 395.882 185.378 395.732C185.829 395.569 186.218 395.318 186.545 394.981C186.884 394.643 187.147 394.217 187.336 393.703C187.537 393.177 187.65 392.544 187.675 391.804C187.687 391.528 187.694 391.271 187.694 391.033C187.694 390.782 187.694 390.545 187.694 390.322C187.694 390.096 187.694 389.864 187.694 389.625C187.694 389.387 187.687 389.124 187.675 388.835C187.649 388.108 187.537 387.482 187.336 386.957C187.148 386.43 186.884 385.997 186.545 385.658C186.207 385.321 185.811 385.076 185.359 384.926C184.908 384.762 184.418 384.681 183.889 384.681H183.897ZM193.09 395.77H199.587C199.869 395.77 200.01 395.911 200.01 396.192V396.474C200.01 396.75 199.869 396.888 199.587 396.888H192.318C192.042 396.888 191.903 396.75 191.903 396.474V384.152C191.903 383.876 192.042 383.738 192.318 383.738H192.675C192.952 383.738 193.09 383.876 193.09 384.152V395.769V395.77ZM93.5834 401.061L92.3145 400.329L106.461 375.873L107.73 376.605L93.5834 401.061Z"></path>
<path fill="#4748A5" d="M92.0269 398.372H120.321V399.836H92.0269V398.372Z"></path>
<path fill="#4748A5" d="M106.739 407.346L92.5862 399.19L93.3201 397.923L107.472 406.077L106.739 407.346ZM119.034 386.088L104.881 377.933L105.615 376.666L119.768 384.822L119.034 386.088Z"></path>
<path fill="#4748A5" d="M93.3237 386.087L92.5898 384.82L106.754 376.674L107.488 377.94L93.3237 386.087Z"></path>
<path fill="#4748A5" d="M118.773 401.061L104.625 376.605L105.894 375.873L120.041 400.329L118.773 401.061ZM93.1492 383.854H94.6138V400.166H93.1492V383.854ZM117.742 383.854H119.209V400.166H117.741L117.742 383.854Z"></path>
<path fill="#4748A5" d="M106.491 406.713L105.85 405.605L118.159 398.512L118.8 399.62L106.491 406.713Z"></path>
<path fill="#4748A5" d="M121.151 400.638C120.741 401.344 120.068 401.86 119.278 402.072C118.487 402.283 117.646 402.173 116.937 401.766C116.228 401.357 115.712 400.685 115.5 399.896C115.288 399.108 115.398 398.267 115.806 397.56C116.216 396.853 116.889 396.337 117.679 396.125C118.469 395.914 119.311 396.024 120.02 396.431C121.505 397.276 122.008 399.176 121.152 400.638H121.151ZM96.5411 386.451C96.1316 387.158 95.458 387.674 94.6679 387.886C93.8778 388.097 93.0359 387.987 92.327 387.58C91.6188 387.171 91.1021 386.499 90.8901 385.71C90.6782 384.921 90.7884 384.081 91.1966 383.373C91.606 382.667 92.2797 382.151 93.0698 381.939C93.8598 381.728 94.7017 381.838 95.4106 382.245C96.8858 383.09 97.3881 384.989 96.5421 386.451H96.5411ZM91.2061 400.638C90.358 399.165 90.8614 397.287 92.3376 396.431C93.8128 395.585 95.694 396.087 96.5516 397.561C97.3997 399.033 96.8964 400.911 95.4201 401.767C93.9354 402.614 92.0542 402.111 91.2061 400.638V400.638ZM115.817 386.451C114.969 384.979 115.472 383.101 116.948 382.245C118.423 381.399 120.305 381.901 121.162 383.375C122.01 384.847 121.507 386.725 120.031 387.581C119.322 387.988 118.48 388.098 117.69 387.887C116.9 387.675 116.226 387.159 115.817 386.452V386.451ZM106.176 409.273C104.471 409.273 103.093 407.897 103.093 406.196C103.093 404.494 104.474 403.119 106.176 403.119C107.877 403.119 109.258 404.494 109.258 406.196C109.257 407.012 108.932 407.793 108.354 408.37C107.776 408.947 106.993 409.271 106.176 409.273V409.273ZM106.176 380.898C104.471 380.898 103.093 379.523 103.093 377.821C103.093 376.12 104.474 374.745 106.176 374.745C107.877 374.745 109.258 376.12 109.258 377.821C109.259 378.226 109.18 378.626 109.025 379C108.87 379.373 108.643 379.713 108.357 379.999C108.071 380.285 107.731 380.511 107.356 380.666C106.982 380.82 106.581 380.899 106.176 380.898Z"></path>
<g clip-path="url(#clip1_7085_1132)">
<path fill="#4748A5" d="M372.71 373.426H400.808C402.691 373.426 404.218 374.95 404.218 376.829V404.875C404.218 406.755 402.691 408.279 400.808 408.279H372.71C370.827 408.279 369.3 406.755 369.3 404.875V376.829C369.3 374.95 370.827 373.426 372.71 373.426ZM390.919 401.269V401.134L390.789 401.164C390.832 401.2 390.875 401.235 390.919 401.269ZM390.919 401.269V404.538C391.471 404.824 392.147 405.035 392.897 405.178C393.647 405.321 394.465 405.389 395.284 405.389C396.102 405.389 396.852 405.314 397.602 405.157C398.353 405.001 398.966 404.742 399.512 404.409C400.064 404.048 400.535 403.592 400.808 402.979C401.081 402.366 401.292 401.686 401.292 400.801C401.292 400.181 401.196 399.643 401.012 399.167C400.828 398.69 400.562 398.282 400.194 397.942C399.846 397.581 399.444 397.261 398.966 396.989C398.489 396.716 397.943 396.43 397.33 396.172C397.051 396.058 396.803 395.947 396.558 395.836C396.407 395.769 396.258 395.701 396.102 395.634C395.747 395.457 395.441 395.28 395.215 395.103C394.963 394.919 394.772 394.729 394.636 394.531C394.499 394.327 394.431 394.102 394.431 393.851C394.431 393.619 394.492 393.408 394.615 393.217C394.739 393.027 394.909 392.87 395.127 392.734C395.345 392.598 395.618 392.496 395.945 392.421C396.266 392.346 396.62 392.312 397.036 392.312C397.323 392.312 397.623 392.333 397.923 392.376C398.237 392.419 398.557 392.485 398.878 392.574C399.198 392.662 399.512 392.771 399.833 392.907C400.133 393.043 400.412 393.2 400.651 393.377V390.177C400.133 389.98 399.56 389.83 398.946 389.735C398.332 389.64 397.65 389.592 396.832 389.592C396.013 389.592 395.263 389.68 394.513 389.851C393.763 390.021 393.149 390.293 392.603 390.667C392.051 391.035 391.649 391.484 391.308 392.097C390.987 392.669 390.83 393.322 390.83 394.139C390.83 395.16 391.124 396.045 391.717 396.726C392.303 397.475 393.217 398.019 394.377 398.564C394.785 398.729 395.152 398.895 395.51 399.056C395.564 399.08 395.618 399.105 395.672 399.129C396.082 399.313 396.423 399.503 396.695 399.701C396.989 399.898 397.221 400.116 397.377 400.347C397.548 400.579 397.637 400.851 397.637 401.164C397.637 401.382 397.583 401.586 397.48 401.777C397.376 401.967 397.214 402.131 396.995 402.267C396.777 402.403 396.511 402.512 396.177 402.594C395.857 402.669 395.495 402.709 395.018 402.709C394.268 402.709 393.517 402.58 392.835 402.321C392.138 402.081 391.499 401.728 390.919 401.269ZM389.555 392.761H385.19V405.219H381.712V392.761H377.347V389.97H389.555V392.761Z" clip-rule="evenodd" fill-rule="evenodd"></path>
</g>
<g clip-path="url(#clip2_7085_1132)">
<path fill="#4748A5" d="M519.81 383.11V386.11H513.331V401.893H510.09V386.11H503.476V383.11H519.81ZM520.539 400.104C520.767 400.104 520.967 400.186 521.136 400.349C521.307 400.513 521.393 400.709 521.395 400.937C521.393 401.092 521.353 401.234 521.274 401.361C521.193 401.49 521.09 401.591 520.96 401.665C520.833 401.74 520.692 401.779 520.539 401.779C520.301 401.779 520.1 401.697 519.931 401.533C519.762 401.37 519.678 401.172 519.68 400.937C519.678 400.709 519.762 400.513 519.931 400.349C520.1 400.186 520.301 400.104 520.539 400.104ZM456.322 401.893L444.374 387.117V401.886H441.135V383.102H445.184L460.278 401.753L460.278 386.11L460.277 383.11H476.611V386.11H463.518V390.936H474.048V393.936H463.518V398.893H476.611V401.893H456.322ZM486.995 393.908L489.119 396.535L484.768 401.916H480.516L486.995 393.908ZM484.768 383.118L490.25 389.892L495.715 383.139L499.955 383.132L492.373 392.516L499.967 401.901H495.715L480.528 383.118H484.768ZM526.069 393.866H527.504V399.37C527.502 399.876 527.392 400.308 527.177 400.672C526.96 401.036 526.659 401.314 526.273 401.51C525.889 401.703 525.439 401.802 524.927 401.802C524.459 401.802 524.04 401.718 523.667 401.555C523.294 401.391 522.997 401.146 522.78 400.823C522.56 400.5 522.453 400.097 522.453 399.615H523.891C523.893 399.826 523.941 400.009 524.034 400.162C524.126 400.315 524.253 400.431 524.416 400.513C524.58 400.595 524.769 400.636 524.982 400.636C525.212 400.636 525.41 400.588 525.57 400.491C525.73 400.397 525.853 400.255 525.939 400.065C526.022 399.878 526.066 399.645 526.069 399.37V393.866ZM533.412 396.018C533.377 395.685 533.223 395.424 532.955 395.239C532.685 395.052 532.336 394.959 531.908 394.959C531.607 394.959 531.348 395.004 531.133 395.093C530.918 395.183 530.751 395.304 530.637 395.456C530.523 395.609 530.466 395.784 530.461 395.98C530.461 396.143 530.501 396.285 530.578 396.404C530.654 396.524 530.758 396.625 530.892 396.707C531.023 396.791 531.17 396.86 531.331 396.916C531.493 396.972 531.656 397.019 531.818 397.058L532.566 397.241C532.867 397.31 533.159 397.402 533.438 397.521C533.717 397.637 533.969 397.786 534.191 397.964C534.413 398.143 534.588 398.358 534.718 398.61C534.847 398.862 534.913 399.157 534.913 399.497C534.913 399.955 534.795 400.358 534.555 400.707C534.316 401.053 533.971 401.324 533.519 401.52C533.069 401.714 532.525 401.813 531.884 401.813C531.265 401.813 530.725 401.718 530.27 401.529C529.814 401.342 529.458 401.066 529.201 400.704C528.944 400.343 528.806 399.902 528.786 399.383H530.209C530.229 399.654 530.316 399.88 530.466 400.063C530.617 400.244 530.815 400.377 531.056 400.468C531.3 400.556 531.572 400.601 531.873 400.601C532.187 400.601 532.463 400.554 532.703 400.461C532.94 400.369 533.126 400.24 533.26 400.072C533.396 399.906 533.465 399.71 533.467 399.486C533.465 399.282 533.403 399.112 533.284 398.978C533.164 398.845 532.997 398.733 532.784 398.642C532.569 398.552 532.318 398.47 532.033 398.399L531.124 398.171C530.468 398.005 529.948 397.753 529.568 397.415C529.186 397.077 528.997 396.63 528.997 396.068C528.997 395.607 529.124 395.203 529.381 394.856C529.636 394.509 529.985 394.24 530.426 394.049C530.87 393.855 531.37 393.76 531.928 393.76C532.494 393.76 532.99 393.855 533.418 394.049C533.846 394.24 534.182 394.507 534.426 394.847C534.67 395.187 534.797 395.577 534.804 396.018H533.412Z"></path>
</g>
<g filter="url(#filter2_f_7085_1132)">
<ellipse fill="white" transform="rotate(91.312 784.952 181.158)" ry="298.611" rx="155.408" cy="181.158" cx="784.952"></ellipse>
</g>
<line stroke-width="1.99529" stroke="#C3DAFE" y2="71.8329" x2="1174.23" y1="71.8329" x1="587.614"></line>
<line stroke-width="1.99529" stroke="#C3DAFE" y2="112.947" x2="1174.23" y1="112.947" x1="587.614"></line>
<line stroke-width="1.99529" stroke="#C3DAFE" y2="154.03" x2="1174.23" y1="154.03" x1="587.614"></line>
<line stroke-width="1.99529" stroke="#C3DAFE" y2="195.143" x2="1174.23" y1="195.143" x1="587.614"></line>
<line stroke-width="1.99529" stroke="#C3DAFE" y2="236.258" x2="1174.23" y1="236.258" x1="587.614"></line>
<line stroke-width="1.99529" stroke="#C3DAFE" y2="277.348" x2="1174.23" y1="277.348" x1="587.614"></line>
<line stroke-width="1.99529" stroke="#C3DAFE" y2="318.454" x2="1174.23" y1="318.455" x1="587.614"></line>
<line stroke-width="1.99529" stroke="#C3DAFE" y2="359.568" x2="1174.23" y1="359.568" x1="587.614"></line>
<line stroke-width="1.99529" stroke="#C3DAFE" y2="400.659" x2="1174.23" y1="400.659" x1="587.614"></line>
<line stroke-width="1.99529" stroke="#C3DAFE" y2="401.662" x2="823.259" y1="72.8306" x1="823.259"></line>
<line stroke-width="1.99529" stroke="#C3DAFE" y2="401.662" x2="784.15" y1="72.8306" x1="784.15"></line>
<line stroke-width="1.99529" stroke="#C3DAFE" y2="401.662" x2="745.043" y1="72.8306" x1="745.043"></line>
<line stroke-width="1.99529" stroke="#C3DAFE" y2="401.662" x2="705.935" y1="72.8306" x1="705.935"></line>
<line stroke-width="1.99529" stroke="#C3DAFE" y2="401.662" x2="666.827" y1="72.8306" x1="666.827"></line>
<line stroke-width="1.99529" stroke="#C3DAFE" y2="401.662" x2="627.719" y1="72.8306" x1="627.719"></line>
<line stroke-width="1.99529" stroke="#C3DAFE" y2="401.662" x2="588.612" y1="72.8306" x1="588.612"></line>
<path fill="url(#paint0_linear_7085_1132)" d="M664.442 115.729L501.816 209.077L664.442 302.426L827.067 209.077L745.755 162.403L664.442 115.729Z"></path>
<path fill="url(#paint1_linear_7085_1132)" d="M664.433 302.289L631.51 257.894L720.301 270.863L664.433 302.289Z"></path>
<path fill="url(#paint2_linear_7085_1132)" d="M793.603 163.874L630.977 257.809L793.603 351.744L956.228 257.809L874.916 210.841L793.603 163.874Z"></path>
<path fill="url(#paint3_linear_7085_1132)" d="M793.827 351.751L761.204 307.277L849.995 320.247L793.827 351.751Z"></path>
<path fill="url(#paint4_linear_7085_1132)" d="M923.175 212.836L759.962 306.771L923.175 400.707L1086.39 306.771L1004.78 259.804L923.175 212.836Z"></path>
<g filter="url(#filter3_f_7085_1132)">
<ellipse fill="#434190" transform="matrix(-1 0 0 1 704.788 171.966)" ry="4.46288" rx="20.4017"></ellipse>
</g>
<circle fill="url(#paint5_linear_7085_1132)" transform="matrix(-1 0 0 1 704.838 147.153)" r="20.4518"></circle>
</g>
<defs>
<filter color-interpolation-filters="sRGB" filterUnits="userSpaceOnUse" height="979.646" width="1194.46" y="45.2431" x="-120.558" id="filter0_f_7085_1132">
<feFlood result="BackgroundImageFix" flood-opacity="0"></feFlood>
<feBlend result="shape" in2="BackgroundImageFix" in="SourceGraphic" mode="normal"></feBlend>
<feGaussianBlur result="effect1_foregroundBlur_7085_1132" stdDeviation="178.921"></feGaussianBlur>
</filter>
<filter color-interpolation-filters="sRGB" filterUnits="userSpaceOnUse" height="567" width="439" y="-25" x="-226" id="filter1_f_7085_1132">
<feFlood result="BackgroundImageFix" flood-opacity="0"></feFlood>
<feBlend result="shape" in2="BackgroundImageFix" in="SourceGraphic" mode="normal"></feBlend>
<feGaussianBlur result="effect1_foregroundBlur_7085_1132" stdDeviation="75"></feGaussianBlur>
</filter>
<filter color-interpolation-filters="sRGB" filterUnits="userSpaceOnUse" height="610.335" width="896.403" y="-124.009" x="336.751" id="filter2_f_7085_1132">
<feFlood result="BackgroundImageFix" flood-opacity="0"></feFlood>
<feBlend result="shape" in2="BackgroundImageFix" in="SourceGraphic" mode="normal"></feBlend>
<feGaussianBlur result="effect1_foregroundBlur_7085_1132" stdDeviation="74.8235"></feGaussianBlur>
</filter>
<filter color-interpolation-filters="sRGB" filterUnits="userSpaceOnUse" height="28.8787" width="60.7564" y="157.527" x="674.41" id="filter3_f_7085_1132">
<feFlood result="BackgroundImageFix" flood-opacity="0"></feFlood>
<feBlend result="shape" in2="BackgroundImageFix" in="SourceGraphic" mode="normal"></feBlend>
<feGaussianBlur result="effect1_foregroundBlur_7085_1132" stdDeviation="4.98823"></feGaussianBlur>
</filter>
<linearGradient gradientUnits="userSpaceOnUse" y2="302.426" x2="664.442" y1="115.729" x1="664.442" id="paint0_linear_7085_1132">
<stop stop-color="#5A67D8" offset="0.0648065"></stop>
<stop stop-color="#434190" offset="1"></stop>
</linearGradient>
<linearGradient gradientUnits="userSpaceOnUse" y2="302.462" x2="673.512" y1="257.894" x1="675.906" id="paint1_linear_7085_1132">
<stop stop-color="#38A169"></stop>
<stop stop-color="#68D391" offset="0.668984"></stop>
<stop stop-color="#77D99C" offset="1"></stop>
</linearGradient>
<linearGradient gradientUnits="userSpaceOnUse" y2="351.744" x2="793.603" y1="163.874" x1="793.603" id="paint2_linear_7085_1132">
<stop stop-color="#5A67D8" offset="0.0648065"></stop>
<stop stop-color="#434190" offset="1"></stop>
</linearGradient>
<linearGradient gradientUnits="userSpaceOnUse" y2="351.923" x2="803.198" y1="307.277" x1="805.6" id="paint3_linear_7085_1132">
<stop stop-color="#38A169"></stop>
<stop stop-color="#68D391" offset="0.668984"></stop>
<stop stop-color="#77D99C" offset="1"></stop>
</linearGradient>
<linearGradient gradientUnits="userSpaceOnUse" y2="400.707" x2="923.175" y1="212.836" x1="923.175" id="paint4_linear_7085_1132">
<stop stop-color="#5A67D8" offset="0.0648065"></stop>
<stop stop-color="#434190" offset="1"></stop>
</linearGradient>
<linearGradient gradientUnits="userSpaceOnUse" y2="40.7112" x2="16.0795" y1="0" x1="20.4518" id="paint5_linear_7085_1132">
<stop stop-color="#9AE6B4"></stop>
<stop stop-color="#68D391" offset="0.314811"></stop>
<stop stop-color="#38A169" offset="1"></stop>
</linearGradient>
<clipPath id="clip0_7085_1132">
<rect fill="white" height="474" width="844"></rect>
</clipPath>
<clipPath id="clip1_7085_1132">
<rect transform="translate(369.3 373.425)" fill="white" height="34.8529" width="34.9176"></rect>
</clipPath>
<clipPath id="clip2_7085_1132">
<rect transform="translate(441.135 383.097)" fill="white" height="18.9553" width="93.7788"></rect>
</clipPath>
</defs>
</svg>
