<svg xmlns="http://www.w3.org/2000/svg" fill="none" viewBox="0 0 844 474" height="474" width="844">
<g clip-path="url(#clip0_7080_3683)">
<rect fill="#434190" height="474" width="844"></rect>
<path fill="url(#paint0_linear_7080_3683)" d="M66.1407 -67.6326C65.4907 -68.0079 64.6898 -68.0079 64.0398 -67.6326L-59.8246 3.88051C-60.4746 4.2558 -60.875 4.94936 -60.875 5.69994C-60.875 6.45051 -60.4746 7.14407 -59.8246 7.51936L60.9387 77.242L-59.8246 146.965C-60.4746 147.34 -60.875 148.034 -60.875 148.784C-60.875 149.535 -60.4746 150.228 -59.8246 150.604L60.9288 220.321L-59.8246 290.037C-60.4746 290.413 -60.875 291.106 -60.875 291.857C-60.875 292.607 -60.4746 293.301 -59.8246 293.676L60.9486 363.405L-59.8246 433.133C-60.4746 433.508 -60.875 434.202 -60.875 434.953C-60.875 435.703 -60.4746 436.397 -59.8246 436.772L60.9438 506.498L-59.8246 576.223C-60.4746 576.599 -60.875 577.292 -60.875 578.043C-60.875 578.793 -60.4746 579.487 -59.8246 579.862L60.9387 649.585L-59.8246 719.307C-60.4746 719.683 -60.875 720.376 -60.875 721.127C-60.875 721.877 -60.4746 722.571 -59.8246 722.946L60.9407 792.67L-59.8246 862.394C-60.4746 862.769 -60.875 863.463 -60.875 864.213C-60.875 864.964 -60.4746 865.657 -59.8246 866.033L60.9368 935.754L-59.8246 1005.48C-60.4746 1005.85 -60.875 1006.54 -60.875 1007.3C-60.875 1008.05 -60.4746 1008.74 -59.8246 1009.11L64.0398 1080.63C64.6898 1081 65.4907 1081 66.1407 1080.63L188.799 1009.81L311.458 1080.63C312.108 1081 312.909 1081 313.559 1080.63L436.219 1009.81L558.879 1080.63C559.529 1081 560.33 1081 560.98 1080.63L683.639 1009.81L806.297 1080.63C806.947 1081 807.748 1081 808.398 1080.63L931.058 1009.81L1053.72 1080.63C1054.37 1081 1055.17 1081 1055.82 1080.63L1178.48 1009.81L1301.14 1080.63C1301.79 1081 1302.59 1081 1303.24 1080.63L1425.9 1009.81L1548.56 1080.63C1549.21 1081 1550.01 1081 1550.66 1080.63L1673.32 1009.81L1795.98 1080.63C1796.63 1081 1797.43 1081 1798.08 1080.63L1921.94 1009.11C1922.59 1008.74 1922.99 1008.05 1922.99 1007.3C1922.99 1006.54 1922.59 1005.85 1921.94 1005.48L1860.01 969.719L1801.18 935.754L1921.94 866.033C1922.59 865.657 1922.99 864.964 1922.99 864.213C1922.99 863.463 1922.59 862.769 1921.94 862.394L1860.01 826.637L1801.18 792.67L1921.94 722.946C1922.59 722.571 1922.99 721.877 1922.99 721.127C1922.99 720.376 1922.59 719.683 1921.94 719.307L1860.01 683.551L1801.18 649.585L1921.94 579.862C1922.59 579.487 1922.99 578.793 1922.99 578.043C1922.99 577.292 1922.59 576.599 1921.94 576.223L1860.01 540.467L1801.17 506.498L1921.94 436.772C1922.59 436.397 1922.99 435.703 1922.99 434.953C1922.99 434.202 1922.59 433.508 1921.94 433.133L1860.01 397.377L1801.17 363.405L1921.94 293.676C1922.59 293.301 1922.99 292.607 1922.99 291.857C1922.99 291.106 1922.59 290.413 1921.94 290.037L1860.01 254.281L1801.19 220.321L1921.94 150.604C1922.59 150.228 1922.99 149.535 1922.99 148.784C1922.99 148.034 1922.59 147.34 1921.94 146.965L1860.01 111.208L1801.18 77.2421L1921.94 7.51936C1922.59 7.14407 1922.99 6.45051 1922.99 5.69994C1922.99 4.94936 1922.59 4.2558 1921.94 3.88051L1860.01 -31.876L1798.08 -67.6326C1797.43 -68.0079 1796.63 -68.0079 1795.98 -67.6326L1673.32 3.18479L1612.59 -31.876L1550.66 -67.6326C1550.01 -68.0079 1549.21 -68.0079 1548.56 -67.6326L1425.9 3.18475L1365.17 -31.876L1303.24 -67.6326C1302.59 -68.0079 1301.79 -68.0079 1301.14 -67.6326L1178.48 3.18447L1117.75 -31.876L1055.82 -67.6326C1055.17 -68.0079 1054.37 -68.0079 1053.72 -67.6326L931.058 3.18504L870.33 -31.876L808.398 -67.6326C807.748 -68.0079 806.947 -68.0079 806.297 -67.6326L683.639 3.18451L622.912 -31.876L560.98 -67.6326C560.33 -68.0079 559.529 -68.0079 558.879 -67.6326L436.219 3.18506L375.491 -31.876L313.559 -67.6326C312.909 -68.0079 312.108 -68.0079 311.458 -67.6326L188.799 3.18449L128.073 -31.876L66.1407 -67.6326ZM1792.87 935.754L1673.32 866.729L1553.76 935.754L1612.59 969.719L1673.32 1004.78L1792.87 935.754ZM1545.45 935.754L1425.9 1004.78L1365.17 969.719L1306.34 935.754L1425.9 866.729L1545.45 935.754ZM1298.03 935.754L1178.48 866.729L1058.92 935.754L1117.75 969.719L1178.48 1004.78L1298.03 935.754ZM1050.61 935.754L931.058 1004.78L870.33 969.719L811.501 935.754L931.058 866.728L1050.61 935.754ZM803.194 935.754L683.639 1004.78L622.912 969.719L564.083 935.754L683.639 866.729L803.194 935.754ZM555.776 935.754L436.219 866.728L316.662 935.754L375.491 969.719L436.219 1004.78L555.776 935.754ZM308.355 935.754L188.799 1004.78L128.073 969.719L69.2437 935.754L188.799 866.729L308.355 935.754ZM1792.88 792.67L1673.32 861.698L1612.59 826.637L1553.76 792.67L1673.32 723.642L1792.88 792.67ZM1545.46 792.67L1425.9 723.642L1306.34 792.67L1365.17 826.637L1425.9 861.698L1545.46 792.67ZM1298.04 792.67L1178.48 861.698L1117.75 826.637L1058.92 792.67L1178.48 723.642L1298.04 792.67ZM1050.62 792.67L931.058 723.642L811.497 792.67L870.33 826.637L931.058 861.698L1050.62 792.67ZM803.198 792.67L683.639 723.642L564.079 792.67L622.912 826.637L683.639 861.698L803.198 792.67ZM555.78 792.67L436.219 861.698L375.491 826.637L316.658 792.67L436.219 723.642L555.78 792.67ZM308.359 792.67L188.799 723.642L69.2398 792.67L128.073 826.637L188.799 861.698L308.359 792.67ZM1792.87 649.585L1673.32 580.558L1553.76 649.585L1612.59 683.551L1673.32 718.612L1792.87 649.585ZM1545.45 649.585L1425.9 718.612L1365.17 683.551L1306.34 649.585L1425.9 580.558L1545.45 649.585ZM1298.04 649.585L1178.48 580.558L1058.92 649.585L1117.75 683.551L1178.48 718.611L1298.04 649.585ZM1050.62 649.585L931.058 718.612L870.33 683.551L811.499 649.585L931.058 580.558L1050.62 649.585ZM803.196 649.585L683.639 718.611L622.912 683.551L564.081 649.585L683.639 580.558L803.196 649.585ZM555.778 649.585L436.219 580.557L316.66 649.585L375.491 683.551L436.219 718.612L555.778 649.585ZM308.357 649.585L188.799 718.611L128.073 683.551L69.2418 649.585L188.799 580.558L308.357 649.585ZM1792.88 506.498L1673.32 575.527L1612.59 540.467L1553.75 506.498L1673.32 437.468L1792.88 506.498ZM1545.46 506.498L1425.9 437.468L1306.33 506.498L1365.17 540.467L1425.9 575.527L1545.46 506.498ZM1298.04 506.498L1178.48 575.527L1117.75 540.467L1058.91 506.498L1178.48 437.468L1298.04 506.498ZM1050.62 506.498L931.058 437.467L811.494 506.498L870.33 540.467L931.058 575.528L1050.62 506.498ZM803.201 506.498L683.639 437.468L564.076 506.498L622.912 540.467L683.639 575.527L803.201 506.498ZM555.783 506.498L436.219 575.528L375.491 540.467L316.655 506.498L436.219 437.467L555.783 506.498ZM308.362 506.498L188.799 437.468L69.2367 506.498L128.073 540.467L188.799 575.527L308.362 506.498ZM1792.88 363.405L1673.32 294.372L1553.75 363.405L1612.59 397.377L1673.32 432.437L1792.88 363.405ZM1545.46 363.405L1425.9 432.437L1365.17 397.377L1306.33 363.405L1425.9 294.372L1545.46 363.405ZM1298.05 363.405L1178.48 294.372L1058.91 363.405L1117.75 397.377L1178.48 432.437L1298.05 363.405ZM1050.63 363.405L931.058 432.438L870.33 397.377L811.489 363.405L931.058 294.372L1050.63 363.405ZM803.206 363.405L683.639 432.437L622.912 397.377L564.071 363.405L683.639 294.372L803.206 363.405ZM555.788 363.405L436.219 294.372L316.65 363.405L375.491 397.377L436.219 432.438L555.788 363.405ZM308.367 363.405L188.799 432.437L128.073 397.377L69.2319 363.405L188.799 294.372L308.367 363.405ZM1792.86 220.321L1673.32 289.342L1612.59 254.281L1553.77 220.32L1673.32 151.299L1792.86 220.321ZM1545.44 220.321L1425.9 151.299L1306.35 220.321L1365.17 254.281L1425.9 289.342L1545.44 220.321ZM1298.03 220.321L1178.48 289.341L1117.75 254.281L1058.93 220.321L1178.48 151.3L1298.03 220.321ZM1050.61 220.321L931.058 151.299L811.509 220.321L870.33 254.281L931.058 289.342L1050.61 220.321ZM803.186 220.321L683.639 151.3L564.091 220.321L622.912 254.281L683.639 289.341L803.186 220.321ZM555.768 220.321L436.219 289.342L375.491 254.281L316.67 220.321L436.219 151.299L555.768 220.321ZM308.347 220.321L188.799 151.3L69.2517 220.321L128.073 254.281L188.799 289.341L308.347 220.321ZM1792.87 77.2421L1673.32 8.21508L1553.76 77.242L1612.59 111.208L1673.32 146.269L1792.87 77.2421ZM1545.45 77.2421L1425.9 146.269L1365.17 111.208L1306.34 77.2421L1425.9 8.21512L1545.45 77.2421ZM1298.04 77.2421L1178.48 8.2154L1058.92 77.242L1117.75 111.208L1178.48 146.269L1298.04 77.2421ZM1050.62 77.2421L931.058 146.269L870.331 111.208L811.499 77.2421L931.058 8.21484L1050.62 77.2421ZM803.196 77.2421L683.639 146.269L622.912 111.208L564.081 77.242L683.639 8.21536L803.196 77.2421ZM555.778 77.242L436.219 8.21481L316.66 77.242L375.491 111.208L436.219 146.269L555.778 77.242ZM308.357 77.242L188.799 146.269L128.073 111.208L69.2418 77.242L188.799 8.21538L308.357 77.242ZM65.0902 74.7871L-54.5723 5.69994L65.0902 -63.3873L125.972 -28.2372L184.753 5.69994L65.0902 74.7871ZM312.509 74.7871L192.846 5.69994L312.509 -63.3873L373.391 -28.2372L432.171 5.69994L312.509 74.7871ZM440.267 5.69994L559.929 74.7871L679.592 5.69994L620.811 -28.2372L559.929 -63.3873L440.267 5.69994ZM807.348 74.7871L687.685 5.69994L807.348 -63.3873L868.23 -28.2372L927.01 5.69994L807.348 74.7871ZM935.106 5.69994L1054.77 74.7871L1174.43 5.69994L1115.65 -28.2372L1054.77 -63.3873L935.106 5.69994ZM1182.52 5.69994L1302.19 74.7871L1421.85 5.69994L1363.07 -28.2372L1302.19 -63.3873L1182.52 5.69994ZM1549.61 74.7871L1429.94 5.69994L1549.61 -63.3873L1610.49 -28.2372L1669.27 5.69994L1549.61 74.7871ZM1677.36 5.69994L1797.03 74.7871L1916.69 5.69994L1857.91 -28.2372L1797.03 -63.3873L1677.36 5.69994ZM65.0902 217.871L-54.5723 148.784L65.0902 79.6969L125.972 114.847L184.753 148.784L65.0902 217.871ZM192.846 148.784L312.509 217.871L432.171 148.784L373.391 114.847L312.509 79.6969L192.846 148.784ZM559.929 217.871L440.267 148.784L559.929 79.6969L620.811 114.847L679.592 148.784L559.929 217.871ZM687.685 148.784L807.348 217.871L927.01 148.784L868.23 114.847L807.348 79.697L687.685 148.784ZM1054.77 217.871L935.106 148.784L1054.77 79.6969L1115.65 114.847L1174.43 148.784L1054.77 217.871ZM1302.19 217.871L1182.52 148.784L1302.19 79.697L1363.07 114.847L1421.85 148.784L1302.19 217.871ZM1429.94 148.784L1549.61 217.871L1669.27 148.784L1610.49 114.847L1549.61 79.6969L1429.94 148.784ZM1797.03 217.871L1677.36 148.784L1797.03 79.697L1857.91 114.847L1916.69 148.784L1797.03 217.871ZM-54.5723 291.857L65.0902 360.944L184.753 291.857L125.972 257.92L65.0902 222.77L-54.5723 291.857ZM312.509 360.944L192.846 291.857L312.509 222.77L373.391 257.92L432.171 291.857L312.509 360.944ZM440.267 291.857L559.929 360.944L679.592 291.857L620.811 257.92L559.929 222.77L440.267 291.857ZM807.348 360.944L687.685 291.857L807.348 222.77L868.23 257.92L927.01 291.857L807.348 360.944ZM935.106 291.857L1054.77 360.944L1174.43 291.857L1115.65 257.92L1054.77 222.77L935.106 291.857ZM1182.52 291.857L1302.19 360.944L1421.85 291.857L1363.07 257.92L1302.19 222.77L1182.52 291.857ZM1549.61 360.944L1429.94 291.857L1549.61 222.77L1610.49 257.92L1669.27 291.857L1549.61 360.944ZM1677.36 291.857L1797.03 360.944L1916.69 291.857L1857.91 257.92L1797.03 222.77L1677.36 291.857ZM65.0902 504.04L-54.5723 434.953L65.0902 365.865L125.972 401.015L184.753 434.953L65.0902 504.04ZM192.846 434.953L312.509 504.04L432.171 434.953L373.391 401.015L312.509 365.865L192.846 434.953ZM559.929 504.04L440.267 434.953L559.929 365.865L620.811 401.015L679.592 434.953L559.929 504.04ZM687.685 434.953L807.348 504.04L927.01 434.953L868.23 401.015L807.348 365.865L687.685 434.953ZM1054.77 504.04L935.106 434.953L1054.77 365.865L1115.65 401.015L1174.43 434.953L1054.77 504.04ZM1302.19 504.04L1182.52 434.953L1302.19 365.865L1363.07 401.015L1421.85 434.953L1302.19 504.04ZM1429.94 434.953L1549.61 504.04L1669.27 434.953L1610.49 401.015L1549.61 365.865L1429.94 434.953ZM1797.03 504.04L1677.36 434.953L1797.03 365.865L1857.91 401.015L1916.69 434.953L1797.03 504.04ZM-54.5723 578.043L65.0902 647.13L184.753 578.043L125.972 544.106L65.0902 508.955L-54.5723 578.043ZM312.509 647.13L192.846 578.043L312.509 508.955L373.391 544.106L432.171 578.043L312.509 647.13ZM440.267 578.043L559.929 647.13L679.592 578.043L620.811 544.106L559.929 508.955L440.267 578.043ZM807.348 647.13L687.685 578.043L807.348 508.955L868.23 544.106L927.01 578.043L807.348 647.13ZM935.106 578.043L1054.77 647.13L1174.43 578.043L1115.65 544.106L1054.77 508.955L935.106 578.043ZM1182.52 578.043L1302.19 647.13L1421.85 578.043L1363.07 544.106L1302.19 508.955L1182.52 578.043ZM1549.61 647.13L1429.94 578.043L1549.61 508.955L1610.49 544.106L1669.27 578.043L1549.61 647.13ZM1677.36 578.043L1797.03 647.13L1916.69 578.043L1857.91 544.106L1797.03 508.955L1677.36 578.043ZM65.0902 790.214L-54.5723 721.127L65.0902 652.04L125.972 687.19L184.753 721.127L65.0902 790.214ZM192.846 721.127L312.509 790.214L432.171 721.127L373.391 687.19L312.509 652.04L192.846 721.127ZM559.929 790.214L440.267 721.127L559.929 652.04L620.811 687.19L679.592 721.127L559.929 790.214ZM687.685 721.127L807.348 790.214L927.01 721.127L868.23 687.19L807.348 652.04L687.685 721.127ZM1054.77 790.214L935.106 721.127L1054.77 652.04L1115.65 687.19L1174.43 721.127L1054.77 790.214ZM1302.19 790.214L1182.52 721.127L1302.19 652.04L1363.07 687.19L1421.85 721.127L1302.19 790.214ZM1429.94 721.127L1549.61 790.214L1669.27 721.127L1610.49 687.19L1549.61 652.04L1429.94 721.127ZM1797.03 790.214L1677.36 721.127L1797.03 652.04L1857.91 687.19L1916.69 721.127L1797.03 790.214ZM-54.5723 864.213L65.0902 933.301L184.753 864.213L125.972 830.276L65.0902 795.126L-54.5723 864.213ZM312.509 933.301L192.846 864.213L312.509 795.126L373.391 830.276L432.171 864.213L312.509 933.301ZM440.267 864.213L559.929 933.301L679.592 864.213L620.811 830.276L559.929 795.126L440.267 864.213ZM807.348 933.301L687.685 864.213L807.348 795.126L868.23 830.276L927.01 864.213L807.348 933.301ZM935.106 864.213L1054.77 933.301L1174.43 864.213L1115.65 830.276L1054.77 795.126L935.106 864.213ZM1182.52 864.213L1302.19 933.301L1421.85 864.213L1363.07 830.276L1302.19 795.126L1182.52 864.213ZM1549.61 933.301L1429.94 864.213L1549.61 795.126L1610.49 830.276L1669.27 864.213L1549.61 933.301ZM1677.36 864.213L1797.03 933.301L1916.69 864.213L1857.91 830.276L1797.03 795.126L1677.36 864.213ZM65.0902 1076.38L-54.5723 1007.3L65.0902 938.208L125.972 973.358L184.753 1007.3L65.0902 1076.38ZM192.846 1007.3L312.509 1076.38L432.171 1007.3L373.391 973.358L312.509 938.208L192.846 1007.3ZM559.929 1076.38L440.267 1007.3L559.929 938.208L620.811 973.358L679.592 1007.3L559.929 1076.38ZM687.685 1007.3L807.348 1076.38L927.01 1007.3L868.23 973.358L807.348 938.208L687.685 1007.3ZM1054.77 1076.38L935.106 1007.3L1054.77 938.208L1115.65 973.358L1174.43 1007.3L1054.77 1076.38ZM1302.19 1076.38L1182.52 1007.3L1302.19 938.208L1363.07 973.358L1421.85 1007.3L1302.19 1076.38ZM1429.94 1007.3L1549.61 1076.38L1669.27 1007.3L1610.49 973.358L1549.61 938.208L1429.94 1007.3ZM1797.03 1076.38L1677.36 1007.3L1797.03 938.208L1857.91 973.358L1916.69 1007.3L1797.03 1076.38Z" clip-rule="evenodd" fill-rule="evenodd"></path>
<rect fill="url(#paint1_linear_7080_3683)" height="1126" width="2023" y="-57" x="-76"></rect>
<path fill="white" d="M102.489 249.542C101.609 249.542 100.805 249.328 100.078 248.899C99.3504 248.462 98.7685 247.88 98.3321 247.153C97.903 246.426 97.6885 245.622 97.6885 244.742C97.6885 243.855 97.903 243.051 98.3321 242.331C98.7685 241.604 99.3504 241.025 100.078 240.596C100.805 240.16 101.609 239.942 102.489 239.942C103.376 239.942 104.18 240.16 104.9 240.596C105.627 241.025 106.205 241.604 106.635 242.331C107.071 243.051 107.289 243.855 107.289 244.742C107.289 245.622 107.071 246.426 106.635 247.153C106.205 247.88 105.627 248.462 104.9 248.899C104.18 249.328 103.376 249.542 102.489 249.542ZM131.348 231.301V253.645H127.977V231.301H131.348ZM135.996 253.645V236.887H139.127V239.614H139.334C139.683 238.691 140.254 237.971 141.047 237.454C141.84 236.931 142.789 236.669 143.895 236.669C145.015 236.669 145.953 236.931 146.709 237.454C147.473 237.978 148.037 238.698 148.4 239.614H148.575C148.975 238.72 149.611 238.007 150.484 237.476C151.357 236.938 152.397 236.669 153.604 236.669C155.124 236.669 156.365 237.145 157.325 238.098C158.292 239.051 158.776 240.487 158.776 242.407V253.645H155.514V242.713C155.514 241.578 155.204 240.756 154.586 240.247C153.968 239.738 153.23 239.484 152.372 239.484C151.31 239.484 150.484 239.811 149.895 240.465C149.306 241.113 149.011 241.946 149.011 242.964V253.645H145.76V242.506C145.76 241.596 145.476 240.865 144.909 240.313C144.342 239.76 143.604 239.484 142.694 239.484C142.076 239.484 141.505 239.647 140.982 239.974C140.465 240.294 140.047 240.742 139.727 241.316C139.414 241.891 139.258 242.556 139.258 243.313V253.645H135.996ZM168.024 254.015C166.963 254.015 166.002 253.819 165.144 253.426C164.286 253.026 163.606 252.448 163.104 251.692C162.61 250.935 162.362 250.008 162.362 248.91C162.362 247.964 162.544 247.186 162.908 246.575C163.271 245.964 163.762 245.48 164.381 245.124C164.999 244.768 165.69 244.498 166.453 244.317C167.217 244.135 167.995 243.997 168.788 243.902C169.792 243.786 170.606 243.691 171.232 243.618C171.857 243.538 172.312 243.411 172.596 243.237C172.879 243.062 173.021 242.778 173.021 242.386V242.309C173.021 241.356 172.752 240.618 172.214 240.094C171.683 239.571 170.89 239.309 169.835 239.309C168.737 239.309 167.872 239.553 167.239 240.04C166.613 240.52 166.181 241.055 165.941 241.644L162.875 240.945C163.239 239.927 163.77 239.105 164.468 238.48C165.173 237.847 165.984 237.389 166.901 237.105C167.817 236.814 168.781 236.669 169.792 236.669C170.461 236.669 171.17 236.749 171.919 236.909C172.676 237.062 173.381 237.345 174.036 237.76C174.698 238.174 175.24 238.767 175.661 239.538C176.083 240.302 176.294 241.295 176.294 242.516V253.645H173.108V251.353H172.978C172.767 251.775 172.45 252.19 172.028 252.597C171.607 253.004 171.065 253.343 170.403 253.612C169.741 253.881 168.948 254.015 168.024 254.015ZM168.734 251.397C169.635 251.397 170.406 251.219 171.046 250.863C171.694 250.506 172.185 250.041 172.519 249.466C172.861 248.884 173.032 248.262 173.032 247.6V245.44C172.916 245.557 172.69 245.666 172.356 245.768C172.028 245.862 171.654 245.946 171.232 246.019C170.81 246.084 170.399 246.146 169.999 246.204C169.599 246.255 169.265 246.299 168.995 246.335C168.363 246.415 167.784 246.549 167.261 246.739C166.744 246.928 166.33 247.2 166.017 247.557C165.712 247.906 165.559 248.371 165.559 248.953C165.559 249.761 165.857 250.372 166.453 250.786C167.05 251.193 167.81 251.397 168.734 251.397ZM187.665 260.278C186.334 260.278 185.188 260.103 184.228 259.754C183.276 259.405 182.497 258.943 181.894 258.369C181.29 257.794 180.839 257.165 180.541 256.481L183.345 255.325C183.541 255.645 183.803 255.983 184.13 256.339C184.465 256.703 184.916 257.012 185.483 257.267C186.058 257.521 186.796 257.648 187.698 257.648C188.934 257.648 189.956 257.347 190.763 256.743C191.571 256.147 191.974 255.194 191.974 253.885V250.59H191.767C191.571 250.946 191.287 251.343 190.916 251.779C190.552 252.215 190.051 252.594 189.411 252.914C188.77 253.234 187.938 253.394 186.912 253.394C185.588 253.394 184.396 253.084 183.334 252.466C182.279 251.841 181.443 250.921 180.824 249.706C180.214 248.484 179.908 246.982 179.908 245.2C179.908 243.418 180.21 241.891 180.814 240.618C181.425 239.345 182.261 238.371 183.323 237.694C184.385 237.011 185.588 236.669 186.934 236.669C187.974 236.669 188.814 236.843 189.454 237.192C190.094 237.534 190.592 237.934 190.949 238.393C191.312 238.851 191.593 239.254 191.789 239.604H192.029V236.887H195.226V254.015C195.226 255.456 194.891 256.637 194.222 257.561C193.553 258.485 192.647 259.169 191.505 259.612C190.371 260.056 189.091 260.278 187.665 260.278ZM187.632 250.688C188.57 250.688 189.363 250.47 190.011 250.033C190.665 249.59 191.16 248.957 191.494 248.135C191.836 247.306 192.007 246.313 192.007 245.157C192.007 244.029 191.84 243.036 191.505 242.178C191.171 241.32 190.68 240.651 190.032 240.171C189.385 239.684 188.585 239.44 187.632 239.44C186.65 239.44 185.832 239.694 185.178 240.204C184.523 240.705 184.028 241.389 183.694 242.255C183.366 243.12 183.203 244.087 183.203 245.157C183.203 246.255 183.37 247.219 183.705 248.048C184.039 248.877 184.534 249.524 185.188 249.99C185.85 250.455 186.665 250.688 187.632 250.688ZM206.823 253.983C205.172 253.983 203.75 253.63 202.557 252.924C201.371 252.212 200.455 251.212 199.808 249.924C199.168 248.63 198.848 247.113 198.848 245.375C198.848 243.658 199.168 242.146 199.808 240.836C200.455 239.527 201.357 238.505 202.513 237.771C203.677 237.036 205.037 236.669 206.594 236.669C207.539 236.669 208.456 236.825 209.343 237.138C210.23 237.451 211.027 237.942 211.732 238.611C212.438 239.28 212.994 240.149 213.401 241.218C213.809 242.28 214.012 243.571 214.012 245.091V246.248H200.691V243.804H210.816C210.816 242.946 210.641 242.186 210.292 241.524C209.943 240.855 209.452 240.327 208.819 239.942C208.194 239.556 207.459 239.364 206.615 239.364C205.699 239.364 204.899 239.589 204.215 240.04C203.539 240.484 203.015 241.065 202.644 241.785C202.281 242.498 202.099 243.273 202.099 244.109V246.019C202.099 247.139 202.295 248.091 202.688 248.877C203.088 249.662 203.644 250.262 204.357 250.677C205.07 251.084 205.903 251.288 206.855 251.288C207.474 251.288 208.037 251.201 208.546 251.026C209.056 250.844 209.496 250.575 209.867 250.219C210.237 249.862 210.521 249.422 210.718 248.899L213.805 249.455C213.558 250.364 213.114 251.161 212.474 251.844C211.841 252.521 211.045 253.048 210.085 253.426C209.132 253.797 208.045 253.983 206.823 253.983ZM240.392 231.301H243.774V245.997C243.774 247.56 243.407 248.946 242.673 250.153C241.938 251.353 240.905 252.299 239.574 252.99C238.243 253.674 236.683 254.015 234.894 254.015C233.112 254.015 231.555 253.674 230.224 252.99C228.893 252.299 227.861 251.353 227.126 250.153C226.391 248.946 226.024 247.56 226.024 245.997V231.301H229.395V245.724C229.395 246.735 229.617 247.633 230.061 248.419C230.512 249.204 231.148 249.822 231.97 250.273C232.792 250.717 233.766 250.939 234.894 250.939C236.028 250.939 237.007 250.717 237.829 250.273C238.658 249.822 239.291 249.204 239.727 248.419C240.171 247.633 240.392 246.735 240.392 245.724V231.301ZM248.414 259.929V236.887H251.6V239.604H251.872C252.061 239.254 252.334 238.851 252.691 238.393C253.047 237.934 253.542 237.534 254.174 237.192C254.807 236.843 255.644 236.669 256.684 236.669C258.036 236.669 259.244 237.011 260.306 237.694C261.368 238.378 262.2 239.364 262.804 240.651C263.415 241.938 263.72 243.487 263.72 245.298C263.72 247.11 263.419 248.662 262.815 249.957C262.211 251.244 261.382 252.237 260.327 252.935C259.273 253.626 258.069 253.972 256.716 253.972C255.698 253.972 254.865 253.801 254.218 253.459C253.578 253.117 253.076 252.717 252.712 252.259C252.349 251.801 252.069 251.393 251.872 251.037H251.676V259.929H248.414ZM251.61 245.266C251.61 246.444 251.781 247.477 252.123 248.364C252.465 249.251 252.96 249.946 253.607 250.448C254.254 250.943 255.047 251.19 255.985 251.19C256.96 251.19 257.775 250.932 258.429 250.415C259.084 249.892 259.578 249.182 259.913 248.288C260.255 247.393 260.426 246.386 260.426 245.266C260.426 244.16 260.258 243.167 259.924 242.287C259.597 241.407 259.102 240.713 258.44 240.204C257.785 239.694 256.967 239.44 255.985 239.44C255.04 239.44 254.24 239.684 253.585 240.171C252.938 240.658 252.447 241.338 252.112 242.211C251.778 243.084 251.61 244.102 251.61 245.266ZM270.637 231.301V253.645H267.375V231.301H270.637ZM282.084 253.983C280.513 253.983 279.142 253.623 277.971 252.903C276.8 252.183 275.891 251.175 275.244 249.881C274.597 248.586 274.273 247.073 274.273 245.342C274.273 243.604 274.597 242.084 275.244 240.782C275.891 239.48 276.8 238.469 277.971 237.749C279.142 237.029 280.513 236.669 282.084 236.669C283.656 236.669 285.027 237.029 286.198 237.749C287.369 238.469 288.278 239.48 288.925 240.782C289.572 242.084 289.896 243.604 289.896 245.342C289.896 247.073 289.572 248.586 288.925 249.881C288.278 251.175 287.369 252.183 286.198 252.903C285.027 253.623 283.656 253.983 282.084 253.983ZM282.095 251.244C283.114 251.244 283.957 250.975 284.626 250.437C285.296 249.899 285.79 249.182 286.11 248.288C286.438 247.393 286.601 246.408 286.601 245.331C286.601 244.262 286.438 243.28 286.11 242.386C285.79 241.484 285.296 240.76 284.626 240.214C283.957 239.669 283.114 239.396 282.095 239.396C281.07 239.396 280.219 239.669 279.542 240.214C278.873 240.76 278.375 241.484 278.048 242.386C277.728 243.28 277.568 244.262 277.568 245.331C277.568 246.408 277.728 247.393 278.048 248.288C278.375 249.182 278.873 249.899 279.542 250.437C280.219 250.975 281.07 251.244 282.095 251.244ZM298.414 254.015C297.352 254.015 296.392 253.819 295.534 253.426C294.675 253.026 293.995 252.448 293.493 251.692C292.999 250.935 292.752 250.008 292.752 248.91C292.752 247.964 292.933 247.186 293.297 246.575C293.661 245.964 294.152 245.48 294.77 245.124C295.388 244.768 296.079 244.498 296.843 244.317C297.607 244.135 298.385 243.997 299.178 243.902C300.181 243.786 300.996 243.691 301.621 243.618C302.247 243.538 302.701 243.411 302.985 243.237C303.269 243.062 303.411 242.778 303.411 242.386V242.309C303.411 241.356 303.141 240.618 302.603 240.094C302.072 239.571 301.28 239.309 300.225 239.309C299.127 239.309 298.261 239.553 297.628 240.04C297.003 240.52 296.57 241.055 296.33 241.644L293.264 240.945C293.628 239.927 294.159 239.105 294.857 238.48C295.563 237.847 296.374 237.389 297.29 237.105C298.207 236.814 299.17 236.669 300.181 236.669C300.85 236.669 301.56 236.749 302.309 236.909C303.065 237.062 303.771 237.345 304.425 237.76C305.087 238.174 305.629 238.767 306.051 239.538C306.473 240.302 306.684 241.295 306.684 242.516V253.645H303.498V251.353H303.367C303.156 251.775 302.84 252.19 302.418 252.597C301.996 253.004 301.454 253.343 300.792 253.612C300.13 253.881 299.338 254.015 298.414 254.015ZM299.123 251.397C300.025 251.397 300.796 251.219 301.436 250.863C302.083 250.506 302.574 250.041 302.909 249.466C303.251 248.884 303.421 248.262 303.421 247.6V245.44C303.305 245.557 303.08 245.666 302.745 245.768C302.418 245.862 302.043 245.946 301.621 246.019C301.2 246.084 300.789 246.146 300.389 246.204C299.989 246.255 299.654 246.299 299.385 246.335C298.752 246.415 298.174 246.549 297.65 246.739C297.134 246.928 296.719 247.2 296.406 247.557C296.101 247.906 295.948 248.371 295.948 248.953C295.948 249.761 296.246 250.372 296.843 250.786C297.439 251.193 298.199 251.397 299.123 251.397ZM317.302 253.972C315.949 253.972 314.741 253.626 313.68 252.935C312.625 252.237 311.796 251.244 311.192 249.957C310.596 248.662 310.297 247.11 310.297 245.298C310.297 243.487 310.599 241.938 311.203 240.651C311.814 239.364 312.65 238.378 313.712 237.694C314.774 237.011 315.978 236.669 317.323 236.669C318.363 236.669 319.2 236.843 319.833 237.192C320.473 237.534 320.967 237.934 321.316 238.393C321.673 238.851 321.949 239.254 322.146 239.604H322.342V231.301H325.604V253.645H322.418V251.037H322.146C321.949 251.393 321.666 251.801 321.295 252.259C320.931 252.717 320.429 253.117 319.789 253.459C319.149 253.801 318.32 253.972 317.302 253.972ZM318.022 251.19C318.96 251.19 319.753 250.943 320.4 250.448C321.055 249.946 321.549 249.251 321.884 248.364C322.226 247.477 322.397 246.444 322.397 245.266C322.397 244.102 322.229 243.084 321.895 242.211C321.56 241.338 321.069 240.658 320.422 240.171C319.774 239.684 318.974 239.44 318.022 239.44C317.04 239.44 316.222 239.694 315.567 240.204C314.912 240.713 314.418 241.407 314.083 242.287C313.756 243.167 313.592 244.16 313.592 245.266C313.592 246.386 313.76 247.393 314.094 248.288C314.429 249.182 314.923 249.892 315.578 250.415C316.24 250.932 317.054 251.19 318.022 251.19ZM342.817 240.978L339.86 241.502C339.737 241.124 339.54 240.764 339.271 240.422C339.01 240.08 338.653 239.8 338.202 239.582C337.751 239.363 337.188 239.254 336.511 239.254C335.587 239.254 334.816 239.462 334.198 239.876C333.58 240.284 333.271 240.811 333.271 241.458C333.271 242.018 333.478 242.469 333.893 242.811C334.307 243.153 334.976 243.433 335.9 243.651L338.562 244.262C340.104 244.618 341.253 245.168 342.01 245.909C342.766 246.651 343.144 247.615 343.144 248.801C343.144 249.804 342.853 250.699 342.272 251.484C341.697 252.263 340.893 252.874 339.86 253.317C338.835 253.761 337.646 253.983 336.293 253.983C334.416 253.983 332.885 253.583 331.7 252.783C330.514 251.975 329.787 250.83 329.518 249.346L332.671 248.866C332.867 249.688 333.271 250.31 333.882 250.732C334.493 251.146 335.289 251.353 336.271 251.353C337.34 251.353 338.195 251.132 338.835 250.688C339.475 250.237 339.795 249.688 339.795 249.041C339.795 248.517 339.599 248.077 339.206 247.72C338.82 247.364 338.228 247.095 337.428 246.913L334.591 246.291C333.027 245.935 331.871 245.368 331.122 244.589C330.38 243.811 330.009 242.826 330.009 241.633C330.009 240.644 330.285 239.778 330.838 239.036C331.391 238.294 332.154 237.716 333.129 237.302C334.104 236.88 335.22 236.669 336.478 236.669C338.289 236.669 339.715 237.062 340.755 237.847C341.795 238.625 342.482 239.669 342.817 240.978ZM102.489 293.542C101.609 293.542 100.805 293.328 100.078 292.899C99.3504 292.462 98.7685 291.88 98.3321 291.153C97.903 290.426 97.6885 289.622 97.6885 288.742C97.6885 287.855 97.903 287.051 98.3321 286.331C98.7685 285.604 99.3504 285.025 100.078 284.596C100.805 284.16 101.609 283.942 102.489 283.942C103.376 283.942 104.18 284.16 104.9 284.596C105.627 285.025 106.205 285.604 106.635 286.331C107.071 287.051 107.289 287.855 107.289 288.742C107.289 289.622 107.071 290.426 106.635 291.153C106.205 291.88 105.627 292.462 104.9 292.899C104.18 293.328 103.376 293.542 102.489 293.542ZM127.977 297.645V275.301H135.941C137.672 275.301 139.109 275.599 140.251 276.196C141.4 276.792 142.258 277.618 142.825 278.672C143.393 279.72 143.676 280.931 143.676 282.305C143.676 283.673 143.389 284.876 142.814 285.916C142.247 286.949 141.389 287.753 140.24 288.327C139.098 288.902 137.661 289.189 135.93 289.189H129.897V286.287H135.625C136.716 286.287 137.603 286.131 138.287 285.818C138.978 285.505 139.483 285.051 139.803 284.454C140.123 283.858 140.283 283.142 140.283 282.305C140.283 281.462 140.12 280.731 139.792 280.112C139.472 279.494 138.967 279.021 138.276 278.694C137.592 278.36 136.694 278.192 135.581 278.192H131.348V297.645H127.977ZM139.007 287.564L144.527 297.645H140.687L135.276 287.564H139.007ZM154.529 297.983C152.878 297.983 151.456 297.63 150.263 296.924C149.078 296.212 148.161 295.212 147.514 293.924C146.874 292.63 146.554 291.113 146.554 289.375C146.554 287.658 146.874 286.146 147.514 284.836C148.161 283.527 149.063 282.505 150.22 281.771C151.383 281.036 152.743 280.669 154.3 280.669C155.245 280.669 156.162 280.825 157.049 281.138C157.936 281.451 158.733 281.942 159.438 282.611C160.144 283.28 160.7 284.149 161.108 285.218C161.515 286.28 161.719 287.571 161.719 289.091V290.248H148.398V287.804H158.522C158.522 286.946 158.347 286.186 157.998 285.524C157.649 284.855 157.158 284.327 156.525 283.942C155.9 283.556 155.165 283.364 154.322 283.364C153.405 283.364 152.605 283.589 151.921 284.04C151.245 284.484 150.721 285.065 150.35 285.785C149.987 286.498 149.805 287.273 149.805 288.109V290.019C149.805 291.139 150.001 292.091 150.394 292.877C150.794 293.662 151.351 294.262 152.063 294.677C152.776 295.084 153.609 295.288 154.562 295.288C155.18 295.288 155.744 295.201 156.253 295.026C156.762 294.844 157.202 294.575 157.573 294.219C157.944 293.862 158.227 293.422 158.424 292.899L161.511 293.455C161.264 294.364 160.82 295.161 160.18 295.844C159.547 296.521 158.751 297.048 157.791 297.426C156.838 297.797 155.751 297.983 154.529 297.983ZM173.313 280.887V283.505H163.843V280.887H173.313ZM166.44 297.645V278.945C166.44 277.898 166.669 277.028 167.127 276.338C167.585 275.639 168.193 275.119 168.949 274.777C169.705 274.428 170.527 274.254 171.415 274.254C172.069 274.254 172.629 274.308 173.095 274.417C173.56 274.519 173.906 274.614 174.131 274.701L173.368 277.341C173.215 277.298 173.018 277.247 172.778 277.189C172.538 277.123 172.247 277.09 171.906 277.09C171.113 277.09 170.546 277.287 170.204 277.679C169.869 278.072 169.702 278.64 169.702 279.381V297.645H166.44ZM183.241 297.983C181.59 297.983 180.168 297.63 178.975 296.924C177.79 296.212 176.873 295.212 176.226 293.924C175.586 292.63 175.266 291.113 175.266 289.375C175.266 287.658 175.586 286.146 176.226 284.836C176.873 283.527 177.775 282.505 178.932 281.771C180.095 281.036 181.455 280.669 183.012 280.669C183.957 280.669 184.874 280.825 185.761 281.138C186.649 281.451 187.445 281.942 188.15 282.611C188.856 283.28 189.412 284.149 189.82 285.218C190.227 286.28 190.431 287.571 190.431 289.091V290.248H177.11V287.804H187.234C187.234 286.946 187.059 286.186 186.71 285.524C186.361 284.855 185.87 284.327 185.238 283.942C184.612 283.556 183.877 283.364 183.034 283.364C182.117 283.364 181.317 283.589 180.634 284.04C179.957 284.484 179.433 285.065 179.063 285.785C178.699 286.498 178.517 287.273 178.517 288.109V290.019C178.517 291.139 178.713 292.091 179.106 292.877C179.506 293.662 180.063 294.262 180.775 294.677C181.488 295.084 182.321 295.288 183.274 295.288C183.892 295.288 184.456 295.201 184.965 295.026C185.474 294.844 185.914 294.575 186.285 294.219C186.656 293.862 186.939 293.422 187.136 292.899L190.223 293.455C189.976 294.364 189.532 295.161 188.892 295.844C188.26 296.521 187.463 297.048 186.503 297.426C185.55 297.797 184.463 297.983 183.241 297.983ZM194.05 297.645V280.887H197.203V283.549H197.377C197.683 282.647 198.221 281.938 198.992 281.422C199.77 280.898 200.65 280.636 201.632 280.636C201.836 280.636 202.076 280.643 202.352 280.658C202.636 280.672 202.858 280.691 203.018 280.712V283.833C202.887 283.796 202.654 283.756 202.32 283.713C201.985 283.662 201.651 283.636 201.316 283.636C200.545 283.636 199.858 283.8 199.254 284.127C198.658 284.447 198.185 284.895 197.836 285.469C197.487 286.036 197.312 286.684 197.312 287.411V297.645H194.05ZM212.463 297.983C210.812 297.983 209.39 297.63 208.197 296.924C207.012 296.212 206.095 295.212 205.448 293.924C204.808 292.63 204.488 291.113 204.488 289.375C204.488 287.658 204.808 286.146 205.448 284.836C206.095 283.527 206.997 282.505 208.154 281.771C209.317 281.036 210.678 280.669 212.234 280.669C213.18 280.669 214.096 280.825 214.983 281.138C215.871 281.451 216.667 281.942 217.373 282.611C218.078 283.28 218.634 284.149 219.042 285.218C219.449 286.28 219.653 287.571 219.653 289.091V290.248H206.332V287.804H216.456C216.456 286.946 216.282 286.186 215.932 285.524C215.583 284.855 215.092 284.327 214.46 283.942C213.834 283.556 213.1 283.364 212.256 283.364C211.339 283.364 210.539 283.589 209.856 284.04C209.179 284.484 208.656 285.065 208.285 285.785C207.921 286.498 207.739 287.273 207.739 288.109V290.019C207.739 291.139 207.936 292.091 208.328 292.877C208.728 293.662 209.285 294.262 209.997 294.677C210.71 295.084 211.543 295.288 212.496 295.288C213.114 295.288 213.678 295.201 214.187 295.026C214.696 294.844 215.136 294.575 215.507 294.219C215.878 293.862 216.162 293.422 216.358 292.899L219.445 293.455C219.198 294.364 218.754 295.161 218.114 295.844C217.482 296.521 216.685 297.048 215.725 297.426C214.772 297.797 213.685 297.983 212.463 297.983ZM226.534 287.695V297.645H223.272V280.887H226.403V283.614H226.611C226.996 282.727 227.6 282.014 228.422 281.476C229.251 280.938 230.294 280.669 231.553 280.669C232.695 280.669 233.695 280.909 234.553 281.389C235.411 281.862 236.077 282.567 236.549 283.505C237.022 284.444 237.259 285.604 237.259 286.986V297.645H233.996V287.378C233.996 286.164 233.68 285.215 233.047 284.531C232.415 283.84 231.545 283.494 230.44 283.494C229.683 283.494 229.011 283.658 228.422 283.985C227.84 284.313 227.378 284.793 227.036 285.425C226.701 286.051 226.534 286.807 226.534 287.695ZM249.456 280.887V283.505H240.302V280.887H249.456ZM242.757 276.872H246.019V292.724C246.019 293.357 246.114 293.833 246.303 294.153C246.492 294.466 246.736 294.681 247.034 294.797C247.339 294.906 247.67 294.961 248.027 294.961C248.288 294.961 248.518 294.943 248.714 294.906C248.91 294.87 249.063 294.841 249.172 294.819L249.761 297.514C249.572 297.586 249.303 297.659 248.954 297.732C248.605 297.812 248.168 297.855 247.645 297.863C246.787 297.877 245.986 297.725 245.245 297.405C244.503 297.084 243.903 296.59 243.444 295.921C242.986 295.252 242.757 294.412 242.757 293.401V276.872ZM253.064 297.645V280.887H256.326V297.645H253.064ZM254.712 278.301C254.144 278.301 253.657 278.112 253.25 277.734C252.85 277.349 252.65 276.89 252.65 276.359C252.65 275.821 252.85 275.363 253.25 274.985C253.657 274.599 254.144 274.406 254.712 274.406C255.279 274.406 255.763 274.599 256.163 274.985C256.57 275.363 256.774 275.821 256.774 276.359C256.774 276.89 256.57 277.349 256.163 277.734C255.763 278.112 255.279 278.301 254.712 278.301ZM265.591 298.015C264.53 298.015 263.57 297.819 262.711 297.426C261.853 297.026 261.173 296.448 260.671 295.692C260.177 294.935 259.929 294.008 259.929 292.91C259.929 291.964 260.111 291.186 260.475 290.575C260.838 289.964 261.329 289.48 261.948 289.124C262.566 288.768 263.257 288.498 264.02 288.317C264.784 288.135 265.562 287.997 266.355 287.902C267.359 287.786 268.174 287.691 268.799 287.618C269.425 287.538 269.879 287.411 270.163 287.237C270.446 287.062 270.588 286.778 270.588 286.386V286.309C270.588 285.356 270.319 284.618 269.781 284.094C269.25 283.571 268.457 283.309 267.403 283.309C266.304 283.309 265.439 283.553 264.806 284.04C264.18 284.52 263.748 285.055 263.508 285.644L260.442 284.945C260.806 283.927 261.337 283.105 262.035 282.48C262.74 281.847 263.551 281.389 264.468 281.105C265.384 280.814 266.348 280.669 267.359 280.669C268.028 280.669 268.737 280.749 269.486 280.909C270.243 281.062 270.948 281.345 271.603 281.76C272.265 282.174 272.807 282.767 273.228 283.538C273.65 284.302 273.861 285.295 273.861 286.516V297.645H270.676V295.353H270.545C270.334 295.775 270.017 296.19 269.595 296.597C269.174 297.004 268.632 297.343 267.97 297.612C267.308 297.881 266.515 298.015 265.591 298.015ZM266.301 295.397C267.203 295.397 267.973 295.219 268.614 294.863C269.261 294.506 269.752 294.041 270.086 293.466C270.428 292.884 270.599 292.262 270.599 291.6V289.44C270.483 289.557 270.257 289.666 269.923 289.768C269.595 289.862 269.221 289.946 268.799 290.019C268.377 290.084 267.966 290.146 267.566 290.204C267.166 290.255 266.832 290.299 266.562 290.335C265.93 290.415 265.351 290.549 264.828 290.739C264.311 290.928 263.897 291.2 263.584 291.557C263.279 291.906 263.126 292.371 263.126 292.953C263.126 293.761 263.424 294.372 264.02 294.786C264.617 295.193 265.377 295.397 266.301 295.397ZM281.468 275.301V297.645H278.206V275.301H281.468ZM297.62 275.301V297.645H294.249V275.301H297.62ZM305.53 287.695V297.645H302.268V280.887H305.399V283.614H305.606C305.992 282.727 306.595 282.014 307.417 281.476C308.246 280.938 309.29 280.669 310.548 280.669C311.69 280.669 312.69 280.909 313.549 281.389C314.407 281.862 315.072 282.567 315.545 283.505C316.018 284.444 316.254 285.604 316.254 286.986V297.645H312.992V287.378C312.992 286.164 312.676 285.215 312.043 284.531C311.41 283.84 310.541 283.494 309.436 283.494C308.679 283.494 308.006 283.658 307.417 283.985C306.835 284.313 306.374 284.793 306.032 285.425C305.697 286.051 305.53 286.807 305.53 287.695ZM328.451 280.887V283.505H319.298V280.887H328.451ZM321.753 276.872H325.015V292.724C325.015 293.357 325.109 293.833 325.299 294.153C325.488 294.466 325.731 294.681 326.029 294.797C326.335 294.906 326.666 294.961 327.022 294.961C327.284 294.961 327.513 294.943 327.71 294.906C327.906 294.87 328.059 294.841 328.168 294.819L328.757 297.514C328.568 297.586 328.299 297.659 327.95 297.732C327.601 297.812 327.164 297.855 326.64 297.863C325.782 297.877 324.982 297.725 324.24 297.405C323.498 297.084 322.898 296.59 322.44 295.921C321.982 295.252 321.753 294.412 321.753 293.401V276.872ZM339.102 297.983C337.451 297.983 336.029 297.63 334.836 296.924C333.651 296.212 332.735 295.212 332.087 293.924C331.447 292.63 331.127 291.113 331.127 289.375C331.127 287.658 331.447 286.146 332.087 284.836C332.735 283.527 333.636 282.505 334.793 281.771C335.957 281.036 337.317 280.669 338.873 280.669C339.819 280.669 340.735 280.825 341.622 281.138C342.51 281.451 343.306 281.942 344.012 282.611C344.717 283.28 345.274 284.149 345.681 285.218C346.088 286.28 346.292 287.571 346.292 289.091V290.248H332.971V287.804H343.095C343.095 286.946 342.921 286.186 342.572 285.524C342.222 284.855 341.732 284.327 341.099 283.942C340.473 283.556 339.739 283.364 338.895 283.364C337.979 283.364 337.178 283.589 336.495 284.04C335.818 284.484 335.295 285.065 334.924 285.785C334.56 286.498 334.378 287.273 334.378 288.109V290.019C334.378 291.139 334.575 292.091 334.967 292.877C335.367 293.662 335.924 294.262 336.637 294.677C337.349 295.084 338.182 295.288 339.135 295.288C339.753 295.288 340.317 295.201 340.826 295.026C341.335 294.844 341.775 294.575 342.146 294.219C342.517 293.862 342.801 293.422 342.997 292.899L346.085 293.455C345.837 294.364 345.394 295.161 344.754 295.844C344.121 296.521 343.324 297.048 342.364 297.426C341.412 297.797 340.324 297.983 339.102 297.983ZM356.937 304.278C355.606 304.278 354.461 304.103 353.501 303.754C352.548 303.405 351.77 302.943 351.166 302.369C350.562 301.794 350.111 301.165 349.813 300.481L352.617 299.325C352.813 299.645 353.075 299.983 353.402 300.339C353.737 300.703 354.188 301.012 354.755 301.267C355.33 301.521 356.068 301.648 356.97 301.648C358.206 301.648 359.228 301.347 360.036 300.743C360.843 300.147 361.247 299.194 361.247 297.885V294.59H361.039C360.843 294.946 360.559 295.343 360.188 295.779C359.825 296.215 359.323 296.594 358.683 296.914C358.043 297.234 357.21 297.394 356.184 297.394C354.861 297.394 353.668 297.084 352.606 296.466C351.551 295.841 350.715 294.921 350.097 293.706C349.486 292.484 349.18 290.982 349.18 289.2C349.18 287.418 349.482 285.891 350.086 284.618C350.697 283.345 351.533 282.371 352.595 281.694C353.657 281.011 354.861 280.669 356.206 280.669C357.246 280.669 358.086 280.843 358.726 281.192C359.366 281.534 359.865 281.934 360.221 282.393C360.585 282.851 360.865 283.254 361.061 283.604H361.301V280.887H364.498V298.015C364.498 299.456 364.163 300.637 363.494 301.561C362.825 302.485 361.919 303.169 360.777 303.612C359.643 304.056 358.363 304.278 356.937 304.278ZM356.904 294.688C357.843 294.688 358.635 294.47 359.283 294.033C359.937 293.59 360.432 292.957 360.767 292.135C361.108 291.306 361.279 290.313 361.279 289.157C361.279 288.029 361.112 287.036 360.777 286.178C360.443 285.32 359.952 284.651 359.305 284.171C358.657 283.684 357.857 283.44 356.904 283.44C355.923 283.44 355.104 283.694 354.45 284.204C353.795 284.705 353.301 285.389 352.966 286.255C352.639 287.12 352.475 288.087 352.475 289.157C352.475 290.255 352.642 291.219 352.977 292.048C353.311 292.877 353.806 293.524 354.461 293.99C355.122 294.455 355.937 294.688 356.904 294.688ZM368.873 297.645V280.887H372.026V283.549H372.2C372.506 282.647 373.044 281.938 373.815 281.422C374.593 280.898 375.473 280.636 376.455 280.636C376.659 280.636 376.899 280.643 377.175 280.658C377.459 280.672 377.68 280.691 377.84 280.712V283.833C377.71 283.796 377.477 283.756 377.142 283.713C376.808 283.662 376.473 283.636 376.139 283.636C375.368 283.636 374.68 283.8 374.077 284.127C373.48 284.447 373.007 284.895 372.658 285.469C372.309 286.036 372.135 286.684 372.135 287.411V297.645H368.873ZM380.663 297.645V280.887H383.925V297.645H380.663ZM382.311 278.301C381.744 278.301 381.256 278.112 380.849 277.734C380.449 277.349 380.249 276.89 380.249 276.359C380.249 275.821 380.449 275.363 380.849 274.985C381.256 274.599 381.744 274.406 382.311 274.406C382.878 274.406 383.362 274.599 383.762 274.985C384.169 275.363 384.373 275.821 384.373 276.359C384.373 276.89 384.169 277.349 383.762 277.734C383.362 278.112 382.878 278.301 382.311 278.301ZM396.136 280.887V283.505H386.983V280.887H396.136ZM389.438 276.872H392.7V292.724C392.7 293.357 392.794 293.833 392.983 294.153C393.173 294.466 393.416 294.681 393.714 294.797C394.02 294.906 394.351 294.961 394.707 294.961C394.969 294.961 395.198 294.943 395.394 294.906C395.591 294.87 395.744 294.841 395.853 294.819L396.442 297.514C396.253 297.586 395.984 297.659 395.635 297.732C395.285 297.812 394.849 297.855 394.325 297.863C393.467 297.877 392.667 297.725 391.925 297.405C391.183 297.084 390.583 296.59 390.125 295.921C389.667 295.252 389.438 294.412 389.438 293.401V276.872ZM401.807 303.929C401.319 303.929 400.876 303.889 400.476 303.809C400.076 303.736 399.778 303.656 399.581 303.569L400.367 300.896C400.963 301.056 401.494 301.125 401.96 301.103C402.425 301.081 402.836 300.907 403.192 300.579C403.556 300.252 403.876 299.717 404.152 298.976L404.556 297.863L398.425 280.887H401.916L406.16 293.892H406.334L410.578 280.887H414.08L407.174 299.881C406.854 300.754 406.447 301.492 405.953 302.096C405.458 302.707 404.869 303.165 404.185 303.47C403.501 303.776 402.709 303.929 401.807 303.929Z"></path>
<path fill="#68D391" d="M349.739 386.82C348.711 385.61 347.825 384.372 347.645 384.118C347.642 384.113 347.637 384.109 347.631 384.106C347.625 384.103 347.619 384.101 347.612 384.101C347.606 384.101 347.599 384.103 347.593 384.106C347.588 384.109 347.583 384.113 347.579 384.118C347.399 384.372 346.513 385.61 345.486 386.82C336.675 398.017 346.876 405.571 346.876 405.571L346.959 405.628C347.036 406.797 347.228 408.477 347.228 408.477H347.996C347.996 408.477 348.187 406.804 348.265 405.636L348.348 405.571C348.348 405.571 358.55 398.017 349.739 386.82ZM347.612 405.407H347.612C347.612 405.407 347.155 405.018 347.031 404.823L347.03 404.802L347.583 392.612C347.584 392.604 347.587 392.597 347.592 392.592C347.598 392.587 347.605 392.584 347.612 392.584C347.62 392.584 347.627 392.587 347.632 392.592C347.637 392.597 347.641 392.604 347.641 392.612L348.194 404.802L348.193 404.823C348.07 405.017 347.612 405.407 347.612 405.407Z"></path>
<path fill="white" d="M366.663 402.911L362.427 392.617L362.415 392.588H359.112V393.277L359.643 393.278C359.722 393.278 359.801 393.294 359.874 393.325C359.947 393.355 360.014 393.4 360.07 393.456C360.126 393.513 360.17 393.58 360.2 393.653C360.229 393.727 360.244 393.805 360.244 393.885L360.146 404.253C360.145 404.41 360.083 404.559 359.973 404.67C359.863 404.782 359.713 404.845 359.557 404.848L359.014 404.854V405.54H362.228V404.855L361.898 404.848C361.74 404.844 361.591 404.779 361.481 404.667C361.371 404.555 361.309 404.404 361.308 404.247V394.48L365.929 405.532C365.961 405.61 366.016 405.676 366.086 405.722C366.156 405.769 366.238 405.794 366.322 405.794C366.406 405.794 366.488 405.769 366.558 405.722C366.628 405.676 366.683 405.61 366.716 405.532L371.231 394.723L371.298 404.245C371.299 404.404 371.237 404.556 371.126 404.67C371.014 404.783 370.862 404.848 370.703 404.85L370.364 404.854V405.54H374.126V404.854L373.611 404.85C373.453 404.847 373.302 404.783 373.191 404.672C373.08 404.56 373.017 404.409 373.016 404.251L372.984 393.885C372.984 393.727 373.046 393.575 373.157 393.463C373.267 393.35 373.418 393.285 373.576 393.282L374.126 393.277V392.588H370.914L366.663 402.911Z"></path>
<path fill="white" d="M396.279 404.688C396.225 404.633 396.183 404.568 396.155 404.497C396.127 404.425 396.115 404.348 396.118 404.272V399.191C396.118 398.228 395.831 397.465 395.266 396.926C394.7 396.387 393.924 396.114 392.959 396.114C391.596 396.114 390.525 396.663 389.777 397.747C389.77 397.757 389.76 397.765 389.75 397.769C389.739 397.774 389.727 397.775 389.715 397.773C389.703 397.771 389.692 397.766 389.684 397.758C389.675 397.75 389.669 397.739 389.666 397.728L389.314 396.371H388.725L387.211 397.236L387.21 397.712H387.601C387.76 397.703 387.916 397.755 388.039 397.855C388.095 397.912 388.138 397.98 388.166 398.055C388.193 398.129 388.204 398.209 388.198 398.289V404.272C388.202 404.349 388.19 404.425 388.162 404.497C388.134 404.569 388.092 404.634 388.037 404.688C387.983 404.742 387.917 404.785 387.845 404.813C387.774 404.84 387.697 404.853 387.62 404.849H387.241V405.538H390.723V404.849H390.345C390.268 404.853 390.191 404.84 390.119 404.813C390.047 404.785 389.982 404.743 389.927 404.688C389.873 404.634 389.83 404.569 389.802 404.497C389.775 404.425 389.762 404.349 389.766 404.272V400.312C389.768 399.796 389.88 399.286 390.093 398.816C390.304 398.337 390.639 397.922 391.063 397.614C391.508 397.297 392.044 397.132 392.591 397.145C393.259 397.145 393.757 397.355 394.072 397.769C394.389 398.188 394.55 398.728 394.55 399.375V404.272C394.554 404.349 394.541 404.425 394.514 404.497C394.486 404.569 394.443 404.634 394.389 404.688C394.335 404.743 394.269 404.785 394.197 404.813C394.125 404.84 394.049 404.853 393.972 404.849H393.593V405.538H397.075V404.849H396.696C396.619 404.852 396.543 404.84 396.471 404.812C396.399 404.784 396.334 404.742 396.279 404.688Z"></path>
<path fill="white" d="M428.192 393.365C427.198 392.844 426.089 392.577 424.966 392.588H420.399V393.278H420.841C421.02 393.291 421.188 393.367 421.314 393.493C421.441 393.619 421.517 393.787 421.53 393.965V404.163C421.528 404.252 421.508 404.34 421.471 404.421C421.434 404.502 421.38 404.575 421.314 404.635C421.254 404.701 421.182 404.754 421.1 404.792C421.019 404.829 420.931 404.849 420.841 404.85H420.399V405.54H424.966C426.089 405.551 427.198 405.284 428.192 404.763C429.163 404.248 429.971 403.472 430.521 402.523C431.094 401.553 431.384 400.389 431.384 399.064C431.384 397.739 431.094 396.576 430.521 395.605C429.97 394.656 429.163 393.88 428.192 393.365V393.365ZM429.558 399.064C429.558 400.275 429.34 401.305 428.91 402.128C428.481 402.948 427.908 403.566 427.207 403.964C426.502 404.363 425.703 404.57 424.892 404.563H423.972C423.882 404.562 423.794 404.542 423.713 404.505C423.631 404.468 423.559 404.414 423.499 404.348C423.433 404.288 423.379 404.215 423.342 404.134C423.305 404.053 423.285 403.965 423.283 403.876V394.252C423.284 394.163 423.304 394.075 423.342 393.994C423.379 393.913 423.432 393.84 423.499 393.78C423.559 393.714 423.632 393.661 423.713 393.624C423.794 393.587 423.882 393.567 423.972 393.565H424.892C425.703 393.558 426.502 393.765 427.207 394.165C427.908 394.562 428.481 395.18 428.91 396C429.34 396.823 429.558 397.854 429.558 399.064V399.064Z"></path>
<path fill="white" d="M442.138 399.75C441.723 399.27 440.914 398.861 439.957 398.643C441.273 397.992 441.941 397.065 441.941 395.887C441.95 395.276 441.77 394.676 441.426 394.171C441.061 393.656 440.56 393.253 439.979 393.006C439.298 392.717 438.564 392.574 437.824 392.589H432.701V393.278H433.107C433.285 393.291 433.453 393.368 433.58 393.494C433.706 393.62 433.783 393.788 433.796 393.966V404.164C433.794 404.253 433.773 404.341 433.736 404.422C433.699 404.503 433.646 404.575 433.58 404.635C433.52 404.702 433.447 404.755 433.366 404.792C433.284 404.829 433.196 404.849 433.107 404.851H432.664V405.541H438.226C439.028 405.549 439.825 405.405 440.573 405.115C441.243 404.861 441.83 404.426 442.268 403.859C442.684 403.309 442.895 402.635 442.895 401.856C442.911 401.085 442.641 400.335 442.138 399.75V399.75ZM435.764 404.348C435.698 404.288 435.645 404.216 435.608 404.135C435.57 404.054 435.55 403.966 435.548 403.877V399.296H438.189C439.117 399.296 439.837 399.535 440.329 400.008C440.82 400.48 441.069 401.102 441.069 401.856C441.069 402.313 440.957 402.763 440.743 403.166C440.519 403.588 440.18 403.937 439.766 404.176C439.334 404.434 438.803 404.564 438.189 404.564H436.237C436.148 404.562 436.06 404.542 435.978 404.505C435.897 404.468 435.824 404.415 435.764 404.348V404.348ZM435.548 398.319V394.253C435.55 394.163 435.57 394.075 435.607 393.994C435.644 393.913 435.698 393.841 435.764 393.781C435.824 393.715 435.897 393.662 435.979 393.625C436.06 393.588 436.148 393.568 436.237 393.565H437.492C438.395 393.565 439.065 393.789 439.483 394.23C439.902 394.672 440.115 395.248 440.115 395.942C440.115 396.661 439.918 397.244 439.529 397.674C439.141 398.102 438.549 398.319 437.769 398.319H435.548Z"></path>
<path fill="white" d="M383.019 396.716C382.269 396.321 381.433 396.114 380.585 396.114C379.736 396.114 378.9 396.321 378.15 396.717C377.423 397.115 376.821 397.706 376.41 398.424C375.989 399.201 375.769 400.071 375.769 400.954C375.769 401.838 375.989 402.708 376.41 403.485C376.821 404.203 377.423 404.794 378.15 405.193C378.9 405.588 379.736 405.795 380.585 405.795C381.433 405.795 382.269 405.588 383.019 405.192C383.746 404.794 384.348 404.203 384.759 403.485C385.18 402.708 385.401 401.838 385.401 400.954C385.401 400.071 385.18 399.201 384.759 398.424C384.348 397.706 383.746 397.115 383.019 396.716ZM383.722 400.954C383.722 402.125 383.435 403.067 382.868 403.752C382.303 404.436 381.535 404.782 380.585 404.782C379.634 404.782 378.866 404.436 378.301 403.752C377.734 403.067 377.447 402.126 377.447 400.954C377.447 399.783 377.734 398.842 378.301 398.156C378.866 397.473 379.634 397.127 380.585 397.127C381.535 397.127 382.303 397.473 382.868 398.156C383.435 398.842 383.722 399.784 383.722 400.954H383.722Z"></path>
<path fill="white" d="M416.565 396.716C415.815 396.321 414.979 396.114 414.131 396.114C413.282 396.114 412.446 396.321 411.696 396.717C410.969 397.115 410.367 397.706 409.956 398.424C409.535 399.201 409.315 400.071 409.315 400.954C409.315 401.838 409.535 402.708 409.956 403.485C410.367 404.203 410.969 404.794 411.696 405.193C412.446 405.588 413.282 405.795 414.131 405.795C414.979 405.795 415.815 405.588 416.565 405.192C417.292 404.794 417.894 404.203 418.305 403.485C418.726 402.708 418.947 401.838 418.947 400.954C418.947 400.071 418.726 399.201 418.305 398.424C417.894 397.706 417.292 397.115 416.565 396.716V396.716ZM417.268 400.954C417.268 402.125 416.981 403.067 416.414 403.752C415.849 404.436 415.081 404.782 414.131 404.782C413.18 404.782 412.412 404.436 411.847 403.752C411.28 403.067 410.993 402.126 410.993 400.954C410.993 399.784 411.28 398.842 411.847 398.156C412.412 397.473 413.18 397.127 414.131 397.127C415.081 397.127 415.849 397.473 416.414 398.156C416.981 398.842 417.268 399.784 417.268 400.954H417.268Z"></path>
<path fill="white" d="M403.025 396.114C402.303 396.106 401.59 396.271 400.945 396.597C400.346 396.896 399.837 397.35 399.473 397.911C399.121 398.453 398.936 399.086 398.939 399.731C398.931 400.294 399.072 400.848 399.347 401.339C399.615 401.807 399.985 402.207 400.431 402.511L399.076 404.348C398.994 404.459 398.944 404.591 398.933 404.729C398.921 404.867 398.948 405.005 399.011 405.129C399.074 405.252 399.169 405.356 399.287 405.428C399.406 405.501 399.541 405.539 399.68 405.539H400.069C399.707 405.775 399.402 406.088 399.175 406.455C398.936 406.838 398.808 407.279 398.805 407.73C398.805 408.544 399.166 409.216 399.877 409.725C400.584 410.232 401.572 410.488 402.814 410.488C403.648 410.494 404.476 410.355 405.261 410.075C405.968 409.833 406.6 409.415 407.099 408.859C407.561 408.33 407.811 407.649 407.799 406.947C407.799 406.172 407.514 405.616 406.845 405.091C406.273 404.642 405.382 404.405 404.269 404.405H400.465C400.461 404.405 400.457 404.404 400.453 404.401C400.449 404.399 400.446 404.396 400.444 404.392C400.442 404.388 400.441 404.384 400.441 404.379C400.441 404.375 400.443 404.371 400.445 404.367L401.432 403.036C401.666 403.144 401.912 403.226 402.164 403.281C402.416 403.328 402.672 403.351 402.929 403.349C403.672 403.36 404.408 403.195 405.075 402.866C405.68 402.568 406.195 402.114 406.567 401.552C406.923 401.012 407.113 400.378 407.11 399.731C407.11 399.028 406.772 397.747 405.838 397.094C405.84 397.087 405.845 397.088 405.847 397.088L407.895 397.317V396.381H404.621C404.108 396.204 403.568 396.113 403.025 396.114V396.114ZM404.17 402.047H404.169C403.818 402.237 403.424 402.337 403.025 402.337C402.4 402.342 401.799 402.099 401.354 401.663C400.881 401.217 400.642 400.567 400.642 399.731C400.642 398.896 400.881 398.246 401.354 397.799C401.8 397.363 402.4 397.121 403.025 397.125C403.424 397.126 403.818 397.225 404.169 397.415C404.541 397.618 404.849 397.92 405.06 398.286C405.291 398.671 405.408 399.158 405.408 399.731C405.408 400.305 405.291 400.792 405.06 401.177C404.849 401.543 404.541 401.844 404.17 402.047ZM401.587 405.539H404.165C404.881 405.539 405.336 405.678 405.641 405.988C405.793 406.146 405.911 406.332 405.99 406.536C406.068 406.74 406.104 406.958 406.096 407.177C406.104 407.503 406.033 407.827 405.89 408.121C405.746 408.415 405.535 408.671 405.273 408.867C404.722 409.297 403.979 409.515 403.063 409.515C402.26 409.515 401.603 409.339 401.109 408.99C400.621 408.644 400.374 408.131 400.374 407.463C400.37 407.054 400.49 406.654 400.719 406.315C400.934 405.984 401.234 405.716 401.587 405.539V405.539Z"></path>
<path fill="white" d="M446.592 405.556C446.407 405.452 446.254 405.3 446.148 405.116C446.043 404.93 445.988 404.719 445.988 404.505C445.988 404.291 446.043 404.08 446.148 403.894C446.254 403.71 446.407 403.558 446.592 403.454C446.788 403.348 447.007 403.292 447.23 403.292C447.453 403.292 447.672 403.348 447.868 403.454C448.053 403.558 448.207 403.71 448.312 403.894C448.417 404.08 448.473 404.291 448.473 404.505C448.473 404.719 448.417 404.93 448.312 405.116C448.207 405.3 448.053 405.452 447.868 405.556C447.672 405.662 447.453 405.718 447.23 405.718C447.007 405.718 446.788 405.662 446.592 405.556ZM447.76 405.416C447.915 405.328 448.042 405.199 448.129 405.043C448.216 404.877 448.262 404.693 448.262 404.505C448.262 404.318 448.216 404.133 448.129 403.967C448.042 403.811 447.915 403.682 447.76 403.594C447.597 403.505 447.415 403.459 447.23 403.459C447.045 403.459 446.863 403.505 446.701 403.594C446.546 403.682 446.418 403.811 446.332 403.967C446.244 404.133 446.198 404.318 446.198 404.505C446.198 404.693 446.244 404.877 446.332 405.043C446.418 405.199 446.546 405.328 446.701 405.416C446.863 405.505 447.045 405.551 447.23 405.551C447.415 405.551 447.597 405.505 447.76 405.416V405.416ZM446.716 405.085V405.001L446.733 404.988H446.789C446.808 404.987 446.825 404.979 446.838 404.966C446.851 404.954 446.859 404.936 446.86 404.918V404.039C446.859 404.02 446.851 404.003 446.838 403.99C446.825 403.977 446.808 403.97 446.789 403.969H446.733L446.716 403.955V403.872L446.733 403.859H447.227C447.346 403.852 447.463 403.885 447.561 403.952C447.602 403.983 447.634 404.024 447.656 404.07C447.677 404.116 447.687 404.167 447.685 404.219C447.685 404.262 447.677 404.304 447.66 404.344C447.644 404.384 447.62 404.42 447.589 404.45C447.525 404.516 447.439 404.558 447.347 404.568L447.461 404.602L447.681 404.948C447.687 404.96 447.696 404.969 447.708 404.976C447.719 404.983 447.731 404.987 447.745 404.988H447.801L447.815 405.001V405.085L447.801 405.098H447.511L447.491 405.085L447.184 404.575H447.11V404.918C447.111 404.936 447.119 404.954 447.132 404.966C447.145 404.979 447.162 404.987 447.18 404.988H447.237L447.254 405.001V405.085L447.237 405.098H446.733L446.716 405.085ZM447.194 404.465C447.226 404.467 447.259 404.463 447.29 404.452C447.321 404.441 447.35 404.424 447.374 404.402C447.396 404.377 447.413 404.348 447.424 404.317C447.435 404.285 447.44 404.252 447.437 404.219C447.441 404.153 447.419 404.088 447.377 404.037C447.357 404.014 447.333 403.997 447.305 403.985C447.277 403.973 447.247 403.968 447.217 403.969H447.18C447.162 403.97 447.145 403.978 447.132 403.99C447.119 404.003 447.111 404.02 447.11 404.039V404.465H447.194Z"></path>
<path fill="white" d="M84.5873 402.032C84.3343 402.444 84.3382 402.964 84.5974 403.372L89.2889 410.761C89.5933 411.24 90.1802 411.459 90.725 411.296L104.263 407.241C105.002 407.02 105.374 406.197 105.051 405.497L96.3478 386.648C95.9234 385.729 94.6439 385.653 94.114 386.516L84.5873 402.032ZM96.1166 390.957C95.9316 390.53 95.3052 390.596 95.2134 391.052L91.8628 407.709C91.7921 408.06 92.1215 408.36 92.4653 408.258L101.819 405.47C102.092 405.389 102.233 405.088 102.12 404.827L96.1166 390.957Z" clip-rule="evenodd" fill-rule="evenodd"></path>
<path fill="white" d="M113.277 398.585H114.102C114.873 398.585 115.449 398.433 115.832 398.129C116.215 397.824 116.406 397.382 116.406 396.801C116.406 396.214 116.245 395.781 115.925 395.501C115.604 395.221 115.102 395.081 114.417 395.081H113.277V398.585ZM118.937 396.71C118.937 397.98 118.54 398.951 117.744 399.624C116.95 400.297 115.819 400.633 114.354 400.633H113.278V404.83H110.773V393.03H114.548C115.981 393.03 117.071 393.338 117.817 393.954C118.564 394.57 118.937 395.489 118.937 396.71Z" clip-rule="evenodd" fill-rule="evenodd"></path>
<path fill="white" d="M125.58 395.636C125.914 395.636 126.192 395.66 126.413 395.708L126.227 398.016C126.027 397.963 125.785 397.936 125.499 397.936C124.713 397.936 124.1 398.137 123.66 398.541C123.221 398.944 123.002 399.509 123.002 400.236V404.827H120.536V395.805H122.404L122.767 397.322H122.889C123.169 396.817 123.547 396.409 124.024 396.1C124.501 395.79 125.02 395.636 125.58 395.636" clip-rule="evenodd" fill-rule="evenodd"></path>
<path fill="white" d="M127.713 404.828H130.178V395.806H127.713V404.828ZM127.609 393.473C127.609 392.671 128.056 392.271 128.95 392.271C129.844 392.271 130.292 392.671 130.292 393.473C130.292 393.855 130.18 394.152 129.957 394.365C129.733 394.577 129.397 394.683 128.95 394.683C128.056 394.683 127.609 394.28 127.609 393.473Z" clip-rule="evenodd" fill-rule="evenodd"></path>
<path fill="white" d="M138.868 402.148C138.868 403.074 138.546 403.778 137.901 404.262C137.258 404.747 136.294 404.989 135.012 404.989C134.354 404.989 133.795 404.944 133.331 404.855C132.868 404.767 132.434 404.636 132.03 404.464V402.43C132.488 402.646 133.003 402.826 133.578 402.971C134.151 403.116 134.656 403.189 135.093 403.189C135.987 403.189 136.435 402.931 136.435 402.414C136.435 402.221 136.375 402.063 136.257 401.942C136.138 401.821 135.934 401.684 135.642 401.531C135.352 401.377 134.964 401.199 134.479 400.994C133.784 400.704 133.273 400.435 132.947 400.187C132.621 399.94 132.384 399.656 132.236 399.336C132.088 399.016 132.013 398.621 132.013 398.153C132.013 397.352 132.324 396.732 132.947 396.293C133.569 395.855 134.452 395.636 135.594 395.636C136.682 395.636 137.741 395.873 138.771 396.346L138.027 398.121C137.574 397.927 137.151 397.769 136.758 397.645C136.365 397.521 135.963 397.459 135.554 397.459C134.826 397.459 134.462 397.656 134.462 398.048C134.462 398.269 134.58 398.46 134.814 398.621C135.049 398.783 135.562 399.022 136.354 399.34C137.06 399.625 137.577 399.891 137.906 400.139C138.234 400.386 138.477 400.671 138.633 400.994C138.79 401.317 138.868 401.702 138.868 402.148" clip-rule="evenodd" fill-rule="evenodd"></path>
<path fill="white" d="M148.631 404.828H146.165V399.558C146.165 398.907 146.056 398.419 145.838 398.093C145.619 397.768 145.276 397.605 144.807 397.605C144.177 397.605 143.719 397.836 143.433 398.299C143.147 398.762 143.005 399.523 143.005 400.583V404.828H140.539V395.805H142.423L142.754 396.959H142.892C143.134 396.545 143.484 396.221 143.942 395.987C144.4 395.753 144.926 395.636 145.519 395.636C146.871 395.636 147.787 396.077 148.267 396.959H148.485C148.728 396.54 149.085 396.214 149.556 395.983C150.028 395.751 150.56 395.636 151.153 395.636C152.177 395.636 152.952 395.898 153.477 396.423C154.002 396.947 154.265 397.788 154.265 398.945V404.828H151.791V399.558C151.791 398.907 151.682 398.419 151.464 398.093C151.245 397.768 150.902 397.605 150.433 397.605C149.83 397.605 149.379 397.82 149.079 398.251C148.78 398.681 148.631 399.364 148.631 400.301V404.828Z" clip-rule="evenodd" fill-rule="evenodd"></path>
<path fill="white" d="M161.439 400.645L160.485 400.678C159.768 400.699 159.235 400.828 158.885 401.065C158.534 401.302 158.359 401.662 158.359 402.147C158.359 402.841 158.758 403.188 159.556 403.188C160.127 403.188 160.584 403.024 160.926 402.695C161.268 402.367 161.439 401.932 161.439 401.388V400.645ZM162.166 404.825L161.689 403.598H161.625C161.21 404.12 160.783 404.482 160.344 404.684C159.905 404.886 159.332 404.986 158.626 404.986C157.758 404.986 157.076 404.739 156.577 404.244C156.079 403.749 155.83 403.044 155.83 402.13C155.83 401.172 156.165 400.466 156.836 400.011C157.507 399.557 158.518 399.305 159.871 399.257L161.439 399.208V398.813C161.439 397.899 160.97 397.441 160.032 397.441C159.31 397.441 158.462 397.659 157.486 398.095L156.67 396.432C157.71 395.889 158.863 395.617 160.129 395.617C161.342 395.617 162.271 395.881 162.918 396.408C163.565 396.935 163.888 397.737 163.888 398.813V404.825H162.166Z" clip-rule="evenodd" fill-rule="evenodd"></path>
<path fill="white" d="M227.251 399.431H224.831V404.105C224.831 405.358 225.66 405.335 227.251 405.268V407.169C224.003 407.549 222.726 406.655 222.726 404.127V399.453H220.934V397.418H222.726V394.801L224.831 394.175V397.418H227.251V399.431ZM236.48 397.396H238.585V407.147H236.48V405.738C235.74 406.767 234.576 407.393 233.052 407.393C230.387 407.393 228.191 405.156 228.191 402.271C228.191 399.364 230.409 397.15 233.052 397.15C234.576 397.15 235.74 397.776 236.48 398.782V397.396V397.396ZM233.388 405.402C235.158 405.402 236.48 404.105 236.48 402.271C236.48 400.46 235.158 399.14 233.388 399.14C231.641 399.14 230.297 400.437 230.297 402.271C230.297 404.105 231.641 405.402 233.388 405.402ZM242.102 395.942C241.363 395.942 240.758 395.316 240.758 394.6C240.758 393.862 241.363 393.258 242.102 393.258C242.841 393.258 243.446 393.862 243.446 394.6C243.468 395.316 242.841 395.942 242.102 395.942ZM241.049 407.147V397.396H243.155V407.147H241.049ZM245.596 407.147V392.9H247.702V407.147H245.596ZM261.411 397.396H263.629L260.56 407.147H258.499L256.46 400.571L254.4 407.147H252.339L249.27 397.396H251.488L253.392 404.127L255.452 397.396H257.468L259.507 404.127L261.411 397.396ZM266.272 395.942C265.533 395.942 264.928 395.316 264.928 394.6C264.928 393.862 265.533 393.258 266.272 393.258C267.011 393.258 267.616 393.862 267.616 394.6C267.616 395.316 267.011 395.942 266.272 395.942ZM265.197 407.147V397.396H267.302V407.147H265.197ZM274.896 397.15C277.091 397.15 278.659 398.626 278.659 401.175V407.169H276.553V401.377C276.553 399.901 275.702 399.118 274.358 399.118C272.969 399.118 271.872 399.945 271.872 401.936V407.169H269.766V397.418H271.872V398.67C272.521 397.642 273.574 397.15 274.896 397.15ZM288.649 393.504H290.755V407.169H288.649V405.76C287.91 406.789 286.745 407.415 285.222 407.415C282.557 407.415 280.361 405.179 280.361 402.294C280.361 399.386 282.579 397.172 285.222 397.172C286.745 397.172 287.91 397.798 288.649 398.805V393.504ZM285.581 405.402C287.35 405.402 288.672 404.105 288.672 402.271C288.672 400.46 287.35 399.14 285.581 399.14C283.833 399.14 282.489 400.437 282.489 402.271C282.489 404.105 283.811 405.402 285.581 405.402ZM297.834 407.415C294.877 407.415 292.681 405.179 292.681 402.294C292.681 399.386 294.899 397.172 297.834 397.172C299.76 397.172 301.418 398.156 302.202 399.699L300.387 400.75C299.962 399.833 298.998 399.252 297.834 399.252C296.109 399.252 294.81 400.549 294.81 402.316C294.81 404.083 296.109 405.38 297.834 405.38C298.998 405.38 299.962 404.776 300.432 403.881L302.246 404.91C301.418 406.409 299.76 407.415 297.834 407.415ZM305.718 400.102C305.718 401.869 310.982 400.795 310.982 404.418C310.982 406.364 309.28 407.415 307.174 407.415C305.226 407.415 303.814 406.543 303.187 405.134L305.002 404.083C305.315 404.955 306.099 405.492 307.174 405.492C308.115 405.492 308.832 405.179 308.832 404.396C308.832 402.651 303.568 403.635 303.568 400.147C303.568 398.313 305.158 397.172 307.152 397.172C308.765 397.172 310.086 397.91 310.758 399.207L308.989 400.191C308.63 399.431 307.958 399.073 307.152 399.073C306.39 399.051 305.718 399.386 305.718 400.102ZM314.723 400.102C314.723 401.869 319.987 400.795 319.987 404.418C319.987 406.364 318.285 407.415 316.179 407.415C314.23 407.415 312.819 406.543 312.192 405.134L314.006 404.083C314.32 404.955 315.104 405.492 316.179 405.492C317.12 405.492 317.837 405.179 317.837 404.396C317.837 402.651 312.573 403.635 312.573 400.147C312.573 398.313 314.163 397.172 316.157 397.172C317.77 397.172 319.091 397.91 319.763 399.207L317.994 400.191C317.635 399.431 316.963 399.073 316.157 399.073C315.395 399.051 314.723 399.386 314.723 400.102Z" clip-rule="evenodd" fill-rule="evenodd"></path>
<path fill="white" d="M199.475 392.429C195.779 392.429 193.45 394.285 192.531 397.976C193.92 396.119 195.533 395.426 197.392 395.896C198.445 396.164 199.206 396.925 200.035 397.774C201.402 399.161 202.97 400.749 206.419 400.749C210.116 400.749 212.445 398.893 213.364 395.202C211.975 397.059 210.362 397.752 208.503 397.282C207.45 397.014 206.688 396.254 205.859 395.404C204.493 394.017 202.925 392.429 199.475 392.429ZM192.531 400.727C188.835 400.727 186.505 402.583 185.587 406.273C186.976 404.417 188.589 403.724 190.448 404.193C191.501 404.462 192.262 405.222 193.091 406.072C194.458 407.459 196.026 409.046 199.475 409.046C203.171 409.046 205.501 407.19 206.419 403.5C205.031 405.356 203.418 406.05 201.559 405.58C200.506 405.311 199.744 404.551 198.915 403.701C197.549 402.337 195.981 400.727 192.531 400.727Z" clip-rule="evenodd" fill-rule="evenodd"></path>
<path fill="white" d="M483.879 401.766C484.026 403.653 484.026 404.538 484.026 405.503H479.652C479.652 405.293 479.656 405.1 479.66 404.905C479.672 404.299 479.684 403.666 479.586 402.389C479.456 400.519 478.649 400.104 477.166 400.104H475.852H470.288V396.702H477.374C479.247 396.702 480.184 396.133 480.184 394.627C480.184 393.302 479.247 392.499 477.374 392.499H470.288V389.17H478.155C482.396 389.17 484.503 391.17 484.503 394.364C484.503 396.754 483.02 398.312 481.017 398.571C482.708 398.909 483.696 399.87 483.879 401.766Z" clip-rule="evenodd" fill-rule="evenodd"></path>
<path fill="white" d="M470.288 405.503V402.967H474.912C475.684 402.967 475.852 403.539 475.852 403.88V405.503H470.288Z"></path>
<path fill="white" d="M536.807 393.95H532.463L530.485 396.703L528.56 393.95H523.903L528.091 399.638L523.538 405.533H527.883L530.199 402.391L532.515 405.533H537.172L532.593 399.456L536.807 393.95Z"></path>
<path fill="white" d="M493.605 401.402C493.215 402.311 492.486 402.7 491.341 402.7C490.067 402.7 489.026 402.025 488.922 400.597H497.065V399.428C497.065 396.286 495.01 393.637 491.133 393.637C487.517 393.637 484.811 396.26 484.811 399.921C484.811 403.609 487.465 405.843 491.185 405.843C494.255 405.843 496.389 404.362 496.987 401.713L493.605 401.402ZM488.974 398.571C489.13 397.48 489.728 396.649 491.081 396.649C492.33 396.649 493.007 397.532 493.059 398.571H488.974Z"></path>
<path fill="white" d="M509.44 395.922C508.946 394.572 507.879 393.637 505.824 393.637C504.081 393.637 502.832 394.416 502.207 395.688V393.948H497.993V405.531H502.207V399.843C502.207 398.103 502.702 396.961 504.081 396.961C505.355 396.961 505.668 397.792 505.668 399.376V405.531H509.882V399.843C509.882 398.103 510.351 396.961 511.756 396.961C513.031 396.961 513.317 397.792 513.317 399.376V405.531H517.531V398.259C517.531 395.844 516.595 393.637 513.395 393.637C511.443 393.637 510.065 394.624 509.44 395.922Z"></path>
<path fill="white" d="M518.91 393.949V405.532H523.125V393.949H518.91ZM518.884 392.858H523.151V389.17H518.884V392.858Z"></path>
<path stroke-width="1.75556" stroke="#68D391" d="M146.589 68.4666H406.411C412.471 68.4666 417.383 73.3791 417.383 79.4389V120.694C417.383 126.754 412.471 131.667 406.411 131.667H146.589V68.4666Z"></path>
<path fill="white" d="M178.351 111.199C177.022 111.199 175.84 110.941 174.807 110.424C173.791 109.889 172.998 109.141 172.425 108.181C171.871 107.203 171.595 106.086 171.595 104.831V97.6596C171.595 96.4044 171.871 95.3061 172.425 94.3647C172.998 93.4048 173.791 92.6664 174.807 92.1496C175.84 91.6142 177.022 91.3466 178.351 91.3466C179.68 91.3466 180.852 91.605 181.867 92.1219C182.882 92.6203 183.667 93.3309 184.221 94.2539C184.793 95.1769 185.079 96.2475 185.079 97.4658V97.4935C185.079 97.5858 185.051 97.6596 184.996 97.715C184.941 97.7704 184.876 97.7981 184.802 97.7981L182.698 97.9088C182.513 97.9088 182.421 97.8257 182.421 97.6596V97.5765C182.421 96.3952 182.052 95.4445 181.313 94.7246C180.575 94.0047 179.587 93.6447 178.351 93.6447C177.114 93.6447 176.117 94.0047 175.36 94.7246C174.622 95.4445 174.253 96.3952 174.253 97.5765V104.942C174.253 106.123 174.622 107.074 175.36 107.794C176.117 108.514 177.114 108.874 178.351 108.874C179.587 108.874 180.575 108.514 181.313 107.794C182.052 107.074 182.421 106.123 182.421 104.942V104.886C182.421 104.72 182.513 104.637 182.698 104.637L184.802 104.748C184.987 104.748 185.079 104.84 185.079 105.025C185.079 106.243 184.793 107.323 184.221 108.264C183.667 109.187 182.882 109.907 181.867 110.424C180.852 110.941 179.68 111.199 178.351 111.199ZM195.252 111.199C193.905 111.199 192.714 110.923 191.681 110.369C190.647 109.815 189.844 109.04 189.272 108.043C188.699 107.028 188.413 105.865 188.413 104.554V97.9642C188.413 96.6536 188.699 95.4999 189.272 94.5031C189.844 93.5063 190.647 92.731 191.681 92.1772C192.714 91.6235 193.905 91.3466 195.252 91.3466C196.618 91.3466 197.818 91.6235 198.852 92.1772C199.886 92.731 200.689 93.5063 201.261 94.5031C201.833 95.4999 202.119 96.6536 202.119 97.9642V104.554C202.119 105.865 201.833 107.028 201.261 108.043C200.689 109.04 199.886 109.815 198.852 110.369C197.818 110.923 196.618 111.199 195.252 111.199ZM195.252 108.901C196.508 108.901 197.523 108.514 198.298 107.738C199.074 106.963 199.461 105.939 199.461 104.665V97.9365C199.461 96.6444 199.074 95.6106 198.298 94.8354C197.523 94.0416 196.508 93.6447 195.252 93.6447C193.997 93.6447 192.982 94.0416 192.207 94.8354C191.45 95.6106 191.071 96.6444 191.071 97.9365V104.665C191.071 105.939 191.45 106.963 192.207 107.738C192.982 108.514 193.997 108.901 195.252 108.901ZM212.781 111.172C211.434 111.172 210.243 110.913 209.21 110.396C208.194 109.861 207.401 109.114 206.828 108.154C206.256 107.175 205.97 106.059 205.97 104.803V91.845C205.97 91.6604 206.062 91.5681 206.247 91.5681H208.351C208.536 91.5681 208.628 91.6604 208.628 91.845V104.859C208.628 106.059 209.006 107.028 209.763 107.766C210.539 108.504 211.545 108.874 212.781 108.874C214.018 108.874 215.015 108.504 215.772 107.766C216.529 107.028 216.907 106.059 216.907 104.859V91.845C216.907 91.6604 216.999 91.5681 217.184 91.5681H219.288C219.473 91.5681 219.565 91.6604 219.565 91.845V104.803C219.565 106.059 219.279 107.175 218.707 108.154C218.153 109.114 217.359 109.861 216.326 110.396C215.31 110.913 214.129 111.172 212.781 111.172ZM234.95 110.95C234.802 110.95 234.7 110.886 234.645 110.756L230.769 102.477C230.75 102.422 230.713 102.394 230.658 102.394H226.671C226.597 102.394 226.56 102.431 226.56 102.505V110.673C226.56 110.858 226.468 110.95 226.283 110.95H224.179C223.994 110.95 223.902 110.858 223.902 110.673V91.845C223.902 91.6604 223.994 91.5681 224.179 91.5681H231.627C232.735 91.5681 233.704 91.7988 234.534 92.2603C235.383 92.7218 236.039 93.3679 236.5 94.1985C236.962 95.0292 237.192 95.9891 237.192 97.0781C237.192 98.3703 236.851 99.4686 236.168 100.373C235.503 101.259 234.571 101.859 233.371 102.173C233.298 102.21 233.279 102.256 233.316 102.311L237.331 110.618C237.349 110.655 237.359 110.701 237.359 110.756C237.359 110.886 237.285 110.95 237.137 110.95H234.95ZM226.671 93.8663C226.597 93.8663 226.56 93.9032 226.56 93.977V100.179C226.56 100.253 226.597 100.29 226.671 100.29H231.295C232.273 100.29 233.058 100.004 233.648 99.4317C234.239 98.841 234.534 98.0657 234.534 97.1058C234.534 96.1275 234.239 95.343 233.648 94.7523C233.058 94.1616 232.273 93.8663 231.295 93.8663H226.671ZM246.864 111.172C245.442 111.172 244.205 110.95 243.153 110.507C242.12 110.064 241.317 109.437 240.744 108.624C240.191 107.812 239.914 106.861 239.914 105.772V104.969C239.914 104.785 240.006 104.693 240.191 104.693H242.212C242.396 104.693 242.489 104.785 242.489 104.969V105.634C242.489 106.575 242.895 107.351 243.707 107.96C244.519 108.569 245.636 108.874 247.057 108.874C248.331 108.874 249.291 108.606 249.937 108.071C250.583 107.535 250.906 106.834 250.906 105.966C250.906 105.394 250.74 104.905 250.408 104.499C250.075 104.093 249.586 103.723 248.94 103.391C248.313 103.04 247.39 102.625 246.171 102.145C244.824 101.628 243.753 101.158 242.959 100.733C242.184 100.308 241.538 99.7547 241.021 99.0717C240.504 98.3703 240.246 97.4935 240.246 96.4413C240.246 94.8538 240.809 93.6078 241.935 92.7033C243.079 91.7988 244.621 91.3466 246.559 91.3466C247.925 91.3466 249.125 91.5773 250.159 92.0388C251.192 92.5003 251.986 93.1463 252.54 93.977C253.112 94.8077 253.398 95.7675 253.398 96.8566V97.4104C253.398 97.595 253.306 97.6873 253.121 97.6873H251.045C250.86 97.6873 250.768 97.595 250.768 97.4104V96.9951C250.768 96.0352 250.38 95.2415 249.605 94.6138C248.848 93.9678 247.796 93.6447 246.448 93.6447C245.304 93.6447 244.418 93.8847 243.79 94.3647C243.163 94.8261 242.849 95.4999 242.849 96.3859C242.849 96.9951 243.006 97.4935 243.319 97.8811C243.633 98.2688 244.095 98.6195 244.704 98.9333C245.331 99.2286 246.282 99.6163 247.556 100.096C248.866 100.613 249.928 101.093 250.74 101.536C251.552 101.961 252.226 102.533 252.761 103.253C253.297 103.954 253.564 104.831 253.564 105.883C253.564 107.508 252.964 108.8 251.764 109.76C250.583 110.701 248.949 111.172 246.864 111.172ZM270.036 93.5894C270.036 93.774 269.944 93.8663 269.759 93.8663H259.93C259.856 93.8663 259.819 93.9032 259.819 93.977V99.9301C259.819 100.004 259.856 100.041 259.93 100.041H266.686C266.87 100.041 266.963 100.133 266.963 100.318V102.062C266.963 102.247 266.87 102.339 266.686 102.339H259.93C259.856 102.339 259.819 102.376 259.819 102.45V108.541C259.819 108.615 259.856 108.652 259.93 108.652H269.759C269.944 108.652 270.036 108.744 270.036 108.929V110.673C270.036 110.858 269.944 110.95 269.759 110.95H257.438C257.253 110.95 257.161 110.858 257.161 110.673V91.845C257.161 91.6604 257.253 91.5681 257.438 91.5681H269.759C269.944 91.5681 270.036 91.6604 270.036 91.845V93.5894ZM292.382 91.5404C293.508 91.5404 294.496 91.7804 295.345 92.2603C296.212 92.7218 296.877 93.3771 297.338 94.2262C297.818 95.0753 298.058 96.0537 298.058 97.1612C298.058 98.2688 297.818 99.2379 297.338 100.069C296.858 100.899 296.175 101.545 295.289 102.007C294.422 102.468 293.416 102.699 292.271 102.699H287.398C287.324 102.699 287.287 102.736 287.287 102.81V110.673C287.287 110.858 287.195 110.95 287.01 110.95H284.906C284.722 110.95 284.629 110.858 284.629 110.673V91.8173C284.629 91.6327 284.722 91.5404 284.906 91.5404H292.382ZM292.022 100.539C293.037 100.539 293.85 100.235 294.459 99.6255C295.086 99.0164 295.4 98.2134 295.4 97.2166C295.4 96.2013 295.086 95.3891 294.459 94.78C293.85 94.1524 293.037 93.8386 292.022 93.8386H287.398C287.324 93.8386 287.287 93.8755 287.287 93.9493V100.428C287.287 100.502 287.324 100.539 287.398 100.539H292.022ZM312.003 110.95C311.837 110.95 311.726 110.876 311.671 110.729L310.674 107.489C310.655 107.434 310.618 107.406 310.563 107.406H302.782C302.727 107.406 302.69 107.434 302.672 107.489L301.675 110.729C301.62 110.876 301.509 110.95 301.343 110.95H299.1C298.897 110.95 298.823 110.849 298.878 110.646L304.942 91.7896C304.998 91.6419 305.108 91.5681 305.274 91.5681H308.043C308.209 91.5681 308.32 91.6419 308.376 91.7896L314.495 110.646L314.522 110.756C314.522 110.886 314.439 110.95 314.273 110.95H312.003ZM303.364 105.163C303.345 105.2 303.345 105.237 303.364 105.274C303.401 105.292 303.438 105.302 303.475 105.302H309.843C309.88 105.302 309.908 105.292 309.926 105.274C309.963 105.237 309.972 105.2 309.954 105.163L306.742 94.8907C306.723 94.8538 306.696 94.8354 306.659 94.8354C306.622 94.8354 306.594 94.8538 306.576 94.8907L303.364 105.163ZM328.724 110.95C328.576 110.95 328.474 110.886 328.419 110.756L324.543 102.477C324.524 102.422 324.487 102.394 324.432 102.394H320.445C320.371 102.394 320.334 102.431 320.334 102.505V110.673C320.334 110.858 320.242 110.95 320.057 110.95H317.953C317.768 110.95 317.676 110.858 317.676 110.673V91.845C317.676 91.6604 317.768 91.5681 317.953 91.5681H325.401C326.508 91.5681 327.478 91.7988 328.308 92.2603C329.157 92.7218 329.813 93.3679 330.274 94.1985C330.736 95.0292 330.966 95.9891 330.966 97.0781C330.966 98.3703 330.625 99.4686 329.942 100.373C329.277 101.259 328.345 101.859 327.145 102.173C327.071 102.21 327.053 102.256 327.09 102.311L331.105 110.618C331.123 110.655 331.132 110.701 331.132 110.756C331.132 110.886 331.059 110.95 330.911 110.95H328.724ZM320.445 93.8663C320.371 93.8663 320.334 93.9032 320.334 93.977V100.179C320.334 100.253 320.371 100.29 320.445 100.29H325.069C326.047 100.29 326.831 100.004 327.422 99.4317C328.013 98.841 328.308 98.0657 328.308 97.1058C328.308 96.1275 328.013 95.343 327.422 94.7523C326.831 94.1616 326.047 93.8663 325.069 93.8663H320.445ZM346.951 91.5681C347.136 91.5681 347.228 91.6604 347.228 91.845V93.6171C347.228 93.8016 347.136 93.8939 346.951 93.8939H341.635C341.561 93.8939 341.524 93.9309 341.524 94.0047V110.673C341.524 110.858 341.432 110.95 341.247 110.95H339.143C338.958 110.95 338.866 110.858 338.866 110.673V94.0047C338.866 93.9309 338.829 93.8939 338.755 93.8939H333.688C333.504 93.8939 333.411 93.8016 333.411 93.6171V91.845C333.411 91.6604 333.504 91.5681 333.688 91.5681H346.951ZM367.757 103.363C367.941 103.363 368.034 103.456 368.034 103.64V105.468C368.034 105.652 367.941 105.745 367.757 105.745H366.566C366.492 105.745 366.455 105.782 366.455 105.855V110.673C366.455 110.858 366.363 110.95 366.179 110.95H364.074C363.89 110.95 363.797 110.858 363.797 110.673V105.855C363.797 105.782 363.76 105.745 363.687 105.745H355.269C355.085 105.745 354.992 105.652 354.992 105.468V103.973C354.992 103.88 355.02 103.77 355.075 103.64L360.53 91.7619C360.585 91.6327 360.687 91.5681 360.835 91.5681H363.05C363.142 91.5681 363.207 91.605 363.244 91.6788C363.299 91.7342 363.308 91.8081 363.271 91.9004L358.066 103.225C358.047 103.262 358.047 103.299 358.066 103.336C358.084 103.354 358.112 103.363 358.149 103.363H363.687C363.76 103.363 363.797 103.327 363.797 103.253V99.1271C363.797 98.9425 363.89 98.8502 364.074 98.8502H366.179C366.363 98.8502 366.455 98.9425 366.455 99.1271V103.253C366.455 103.327 366.492 103.363 366.566 103.363H367.757ZM370.617 110.95C370.414 110.95 370.341 110.849 370.396 110.646L376.903 91.7896C376.958 91.6419 377.069 91.5681 377.235 91.5681H379.312C379.515 91.5681 379.589 91.6696 379.533 91.8727L373.026 110.729C372.971 110.876 372.86 110.95 372.694 110.95H370.617ZM394.341 102.367C394.544 103.179 394.645 104.019 394.645 104.886C394.645 105.754 394.534 106.557 394.313 107.295C393.962 108.477 393.288 109.418 392.292 110.12C391.313 110.803 390.141 111.144 388.775 111.144C387.428 111.144 386.274 110.812 385.314 110.147C384.354 109.483 383.68 108.578 383.293 107.434C383.108 106.917 383.007 106.465 382.988 106.077V106.022C382.988 105.874 383.071 105.8 383.237 105.8H385.425C385.591 105.8 385.683 105.883 385.702 106.049C385.72 106.179 385.766 106.372 385.84 106.631C386.043 107.314 386.394 107.858 386.892 108.264C387.409 108.652 388.028 108.846 388.748 108.846C389.504 108.846 390.141 108.643 390.658 108.237C391.193 107.812 391.553 107.231 391.738 106.492C391.867 106.105 391.932 105.569 391.932 104.886C391.932 104.277 391.876 103.714 391.766 103.197C391.636 102.496 391.304 101.961 390.769 101.591C390.252 101.204 389.606 101.01 388.831 101.01C388.111 101.01 387.465 101.176 386.892 101.508C386.32 101.822 385.951 102.247 385.785 102.782C385.729 102.948 385.628 103.031 385.48 103.031H383.265C383.081 103.031 382.988 102.939 382.988 102.754V91.845C382.988 91.6604 383.081 91.5681 383.265 91.5681H393.621C393.805 91.5681 393.898 91.6604 393.898 91.845V93.5894C393.898 93.774 393.805 93.8663 393.621 93.8663H385.757C385.683 93.8663 385.646 93.9032 385.646 93.977L385.619 99.764C385.619 99.8747 385.665 99.9024 385.757 99.847C386.2 99.4594 386.708 99.1733 387.28 98.9887C387.871 98.7856 388.489 98.6841 389.135 98.6841C390.427 98.6841 391.535 99.0071 392.458 99.6532C393.399 100.299 394.027 101.204 394.341 102.367Z"></path>
<path fill="#68D391" d="M85.1445 79.4389C85.1445 72.8943 90.45 67.5889 96.9945 67.5889H150.1V132.544H96.9945C90.45 132.544 85.1445 127.239 85.1445 120.694V79.4389Z"></path>
<path fill="#434190" d="M101.849 106.185C101.437 106.857 101.443 107.706 101.866 108.372L109.522 120.43C110.019 121.213 110.977 121.569 111.866 121.303L133.96 114.686C135.165 114.324 135.772 112.982 135.245 111.84L121.042 81.0793C120.349 79.5791 118.261 79.456 117.397 80.8643L101.849 106.185ZM120.665 88.1115C120.363 87.4141 119.34 87.5215 119.191 88.2664L113.723 115.45C113.607 116.023 114.145 116.513 114.706 116.345L129.971 111.796C130.416 111.663 130.646 111.172 130.462 110.745L120.665 88.1115Z" clip-rule="evenodd" fill-rule="evenodd"></path>
<path fill="url(#paint2_linear_7080_3683)" d="M775.106 400.846L912.163 325.292L1046.93 400.846L912.163 477.511L775.106 400.846Z"></path>
<path stroke-width="2.45727" stroke="#434190" fill="url(#paint3_linear_7080_3683)" d="M714.723 307.087L912.198 199.22L1106.37 307.087L912.198 416.54L714.723 307.087Z"></path>
<path stroke-width="2.45727" stroke="#434190" fill="url(#paint4_linear_7080_3683)" d="M654.532 202.528L913.101 67.8892L1167.34 202.528L913.101 339.148L654.532 202.528Z"></path>
<path stroke-width="2.45727" stroke="#434190" fill="url(#paint5_linear_7080_3683)" d="M602.156 89.4463L910.389 -61.8774L1213.46 89.4463L910.389 242.995L602.156 89.4463Z"></path>
</g>
<defs>
<linearGradient gradientUnits="userSpaceOnUse" y2="-31.9988" x2="123.302" y1="646.857" x1="1308.34" id="paint0_linear_7080_3683">
<stop stop-opacity="0.1" stop-color="white"></stop>
<stop stop-opacity="0" stop-color="white" offset="0.972576"></stop>
</linearGradient>
<linearGradient gradientUnits="userSpaceOnUse" y2="164.03" x2="935.5" y1="1069" x1="935.5" id="paint1_linear_7080_3683">
<stop stop-opacity="0" stop-color="#434190"></stop>
<stop stop-color="#434190" offset="0.741935"></stop>
</linearGradient>
<linearGradient gradientUnits="userSpaceOnUse" y2="477.511" x2="911.016" y1="325.292" x1="911.016" id="paint2_linear_7080_3683">
<stop stop-opacity="0" stop-color="white" offset="0.183968"></stop>
<stop stop-color="white" offset="1"></stop>
</linearGradient>
<linearGradient gradientUnits="userSpaceOnUse" y2="416.54" x2="910.545" y1="199.22" x1="910.545" id="paint3_linear_7080_3683">
<stop stop-opacity="0" stop-color="white" offset="0.173551"></stop>
<stop stop-opacity="0.6" stop-color="white" offset="1"></stop>
</linearGradient>
<linearGradient gradientUnits="userSpaceOnUse" y2="339.148" x2="910.938" y1="67.8892" x1="910.938" id="paint4_linear_7080_3683">
<stop stop-color="#EBF4FF"></stop>
<stop stop-opacity="0.5" stop-color="#A3BFFA" offset="0.512099"></stop>
<stop stop-opacity="0.2" stop-color="#EBF4FF" offset="1"></stop>
</linearGradient>
<linearGradient gradientUnits="userSpaceOnUse" y2="242.995" x2="907.81" y1="-61.8774" x1="907.81" id="paint5_linear_7080_3683">
<stop stop-color="#68D391"></stop>
<stop stop-opacity="0.6" stop-color="#C3DAFE" offset="0.512099"></stop>
<stop stop-color="#A3BFFA" offset="1"></stop>
</linearGradient>
<clipPath id="clip0_7080_3683">
<rect fill="white" height="474" width="844"></rect>
</clipPath>
</defs>
</svg>
