<svg xmlns="http://www.w3.org/2000/svg" fill="none" viewBox="0 0 844 474" height="474" width="844">
<g clip-path="url(#clip0_7080_1584)">
<rect fill="url(#paint0_radial_7080_1584)" height="474" width="844"></rect>
<g clip-path="url(#clip1_7080_1584)">
<path fill="#7950ED" d="M165.143 200.599C165.143 212.256 173.692 221.831 184.692 223.169V178.029C173.692 179.367 165.143 188.942 165.143 200.599Z"></path>
<path fill="#7950ED" d="M209.521 200.598C209.521 188.882 200.885 179.247 189.769 177.998V223.228H209.492V201.223C209.521 201.015 209.521 200.807 209.521 200.598Z"></path>
<path fill="white" d="M229.202 200.628C231.594 200.628 233.228 201.788 234.104 203.037V200.866H237.897V216.002H234.104V213.801C233.228 215.11 231.536 216.27 229.173 216.27C225.409 216.27 222.404 213.117 222.404 208.389C222.404 203.662 225.409 200.628 229.202 200.628ZM230.165 203.989C228.152 203.989 226.255 205.535 226.255 208.389C226.255 211.244 228.152 212.909 230.165 212.909C232.236 212.909 234.104 211.333 234.104 208.449C234.104 205.565 232.236 203.989 230.165 203.989Z"></path>
<path fill="white" d="M262.493 207.644C262.493 205.235 261.18 203.987 259.196 203.987C257.183 203.987 255.87 205.235 255.87 207.644V216H252.106V207.644C252.106 205.235 250.793 203.987 248.809 203.987C246.767 203.987 245.454 205.235 245.454 207.644V216H241.69V200.864H245.454V202.708C246.388 201.459 247.963 200.656 249.831 200.656C252.135 200.656 254.032 201.667 255.053 203.541C256.016 201.816 257.971 200.656 260.159 200.656C263.718 200.656 266.257 202.946 266.257 207.139V216.03H262.493V207.644Z"></path>
<path fill="white" d="M278.627 200.628C282.45 200.628 285.425 203.662 285.425 208.389C285.425 213.117 282.45 216.27 278.627 216.27C276.293 216.27 274.63 215.08 273.726 213.861V223.228H269.962V200.866H273.726V203.067C274.601 201.758 276.323 200.628 278.627 200.628ZM277.635 203.989C275.622 203.989 273.726 205.565 273.726 208.449C273.726 211.333 275.622 212.909 277.635 212.909C279.678 212.909 281.574 211.274 281.574 208.389C281.574 205.505 279.678 203.989 277.635 203.989Z"></path>
<path fill="white" d="M288.286 195.78H292.05V216.03H288.286V195.78Z"></path>
<path fill="white" d="M295.462 196.821C295.462 195.572 296.425 194.591 297.767 194.591C299.08 194.591 300.072 195.572 300.072 196.821C300.072 198.07 299.08 199.052 297.767 199.052C296.425 199.052 295.462 198.07 295.462 196.821ZM295.87 200.865H299.635V216.001H295.87V200.865Z"></path>
<path fill="white" d="M309.846 200.628C313.552 200.628 316.032 202.591 316.848 205.981H312.793C312.356 204.702 311.363 203.87 309.817 203.87C307.717 203.87 306.316 205.475 306.316 208.449C306.316 211.393 307.717 212.999 309.817 212.999C311.363 212.999 312.326 212.285 312.793 210.917H316.848C316.032 214.158 313.552 216.27 309.846 216.27C305.557 216.27 302.494 213.207 302.494 208.449C302.494 203.691 305.557 200.628 309.846 200.628Z"></path>
<path fill="white" d="M325.574 200.628C327.966 200.628 329.6 201.788 330.476 203.037V200.866H334.269V216.002H330.476V213.801C329.6 215.11 327.908 216.27 325.545 216.27C321.781 216.27 318.776 213.117 318.776 208.389C318.776 203.662 321.781 200.628 325.574 200.628ZM326.537 203.989C324.524 203.989 322.628 205.535 322.628 208.389C322.628 211.244 324.524 212.909 326.537 212.909C328.608 212.909 330.476 211.333 330.476 208.449C330.476 205.565 328.608 203.989 326.537 203.989Z"></path>
<path fill="white" d="M338.675 204.016H336.896V200.864H338.675V197.118H342.468V200.864H345.794V204.016H342.439V211.331C342.439 212.342 342.848 212.788 344.015 212.788H345.765V216.03H343.402C340.571 216.03 338.646 214.81 338.646 211.331V204.016H338.675Z"></path>
<path fill="white" d="M348.216 196.821C348.216 195.572 349.178 194.591 350.52 194.591C351.833 194.591 352.825 195.572 352.825 196.821C352.825 198.07 351.833 199.052 350.52 199.052C349.178 199.052 348.216 198.07 348.216 196.821ZM348.623 200.865H352.388V216.001H348.623V200.865Z"></path>
<path fill="white" d="M362.803 216.27C358.513 216.27 355.275 213.207 355.275 208.449C355.275 203.662 358.63 200.628 362.919 200.628C367.208 200.628 370.564 203.662 370.564 208.449C370.564 213.207 367.15 216.27 362.803 216.27ZM362.803 212.939C364.786 212.939 366.683 211.452 366.683 208.449C366.683 205.416 364.844 203.959 362.832 203.959C360.819 203.959 359.039 205.416 359.039 208.449C359.097 211.452 360.789 212.939 362.803 212.939Z"></path>
<path fill="white" d="M383.868 207.646C383.868 205.208 382.555 203.899 380.572 203.899C378.529 203.899 377.216 205.208 377.216 207.646V216.002H373.453V200.866H377.216V202.74C378.179 201.461 379.784 200.628 381.709 200.628C385.181 200.628 387.631 202.918 387.631 207.111V216.002H383.868V207.646Z"></path>
</g>
<path fill="white" d="M457.369 210.554C456.872 211.365 456.879 212.388 457.389 213.191L466.604 227.728C467.202 228.671 468.355 229.102 469.425 228.781L496.019 220.802C497.47 220.367 498.2 218.748 497.566 217.372L480.47 180.288C479.636 178.479 477.123 178.331 476.082 180.028L457.369 210.554ZM480.016 188.765C479.653 187.925 478.422 188.054 478.242 188.952L471.66 221.724C471.521 222.415 472.168 223.005 472.844 222.803L491.218 217.319C491.754 217.159 492.03 216.566 491.808 216.052L480.016 188.765Z" clip-rule="evenodd" fill-rule="evenodd"></path>
<path fill="white" d="M513.728 203.767H515.348C516.861 203.767 517.993 203.468 518.745 202.87C519.497 202.272 519.872 201.401 519.872 200.258C519.872 199.105 519.557 198.253 518.928 197.702C518.297 197.152 517.311 196.876 515.966 196.876H513.728V203.767ZM524.842 200.084C524.842 202.582 524.062 204.492 522.5 205.815C520.939 207.139 518.719 207.8 515.84 207.8H513.728V216.056H508.806V192.843H516.221C519.037 192.843 521.177 193.45 522.643 194.661C524.11 195.873 524.842 197.681 524.842 200.084Z" clip-rule="evenodd" fill-rule="evenodd"></path>
<path fill="white" d="M537.89 197.971C538.547 197.971 539.092 198.019 539.525 198.114L539.16 202.655C538.769 202.549 538.293 202.496 537.731 202.496C536.186 202.496 534.982 202.893 534.119 203.687C533.256 204.481 532.825 205.592 532.825 207.022V216.056H527.982V198.305H531.65L532.365 201.29H532.603C533.153 200.295 533.897 199.493 534.834 198.884C535.77 198.276 536.789 197.971 537.89 197.971" clip-rule="evenodd" fill-rule="evenodd"></path>
<path fill="white" d="M542.095 216.055H546.938V198.304H542.095V216.055ZM541.889 193.715C541.889 192.138 542.767 191.35 544.524 191.35C546.281 191.35 547.16 192.138 547.16 193.715C547.16 194.467 546.94 195.051 546.501 195.47C546.061 195.888 545.403 196.096 544.524 196.096C542.767 196.096 541.889 195.303 541.889 193.715Z" clip-rule="evenodd" fill-rule="evenodd"></path>
<path fill="white" d="M563.987 210.784C563.987 212.605 563.355 213.991 562.089 214.944C560.825 215.897 558.932 216.373 556.413 216.373C555.122 216.373 554.022 216.286 553.111 216.111C552.201 215.936 551.349 215.68 550.555 215.341V211.34C551.455 211.763 552.468 212.118 553.596 212.404C554.723 212.689 555.715 212.832 556.572 212.832C558.329 212.832 559.208 212.324 559.208 211.308C559.208 210.927 559.092 210.618 558.859 210.379C558.626 210.141 558.224 209.871 557.652 209.569C557.081 209.267 556.318 208.916 555.366 208.513C554 207.942 552.997 207.413 552.357 206.926C551.716 206.439 551.251 205.881 550.96 205.251C550.669 204.621 550.523 203.846 550.523 202.924C550.523 201.347 551.134 200.128 552.357 199.265C553.579 198.402 555.312 197.971 557.557 197.971C559.695 197.971 561.775 198.437 563.797 199.368L562.336 202.861C561.447 202.48 560.615 202.168 559.843 201.924C559.07 201.681 558.282 201.559 557.478 201.559C556.049 201.559 555.334 201.946 555.334 202.718C555.334 203.153 555.565 203.528 556.024 203.846C556.485 204.163 557.493 204.634 559.049 205.259C560.436 205.82 561.453 206.344 562.098 206.83C562.743 207.318 563.22 207.878 563.527 208.513C563.834 209.149 563.987 209.906 563.987 210.784" clip-rule="evenodd" fill-rule="evenodd"></path>
<path fill="white" d="M583.172 216.056H578.329V205.688C578.329 204.407 578.114 203.446 577.687 202.806C577.257 202.166 576.583 201.845 575.662 201.845C574.424 201.845 573.524 202.3 572.963 203.211C572.402 204.121 572.121 205.619 572.121 207.704V216.056H567.278V198.305H570.978L571.629 200.575H571.899C572.375 199.76 573.064 199.122 573.963 198.662C574.863 198.202 575.895 197.971 577.059 197.971C579.716 197.971 581.515 198.84 582.458 200.575H582.886C583.363 199.749 584.064 199.109 584.99 198.654C585.916 198.199 586.961 197.971 588.126 197.971C590.137 197.971 591.659 198.487 592.691 199.519C593.723 200.551 594.239 202.205 594.239 204.481V216.056H589.38V205.688C589.38 204.407 589.165 203.446 588.737 202.806C588.308 202.166 587.634 201.845 586.712 201.845C585.527 201.845 584.641 202.269 584.053 203.116C583.466 203.963 583.172 205.307 583.172 207.148V216.056Z" clip-rule="evenodd" fill-rule="evenodd"></path>
<path fill="white" d="M608.331 207.832L606.458 207.895C605.05 207.938 604.002 208.192 603.315 208.658C602.626 209.123 602.283 209.832 602.283 210.785C602.283 212.15 603.066 212.833 604.632 212.833C605.754 212.833 606.651 212.51 607.323 211.864C607.995 211.219 608.331 210.362 608.331 209.292V207.832ZM609.761 216.055L608.824 213.641H608.697C607.882 214.668 607.043 215.38 606.18 215.777C605.318 216.174 604.193 216.372 602.807 216.372C601.102 216.372 599.761 215.885 598.781 214.912C597.802 213.938 597.313 212.551 597.313 210.752C597.313 208.868 597.972 207.479 599.289 206.584C600.608 205.69 602.595 205.194 605.252 205.099L608.332 205.004V204.226C608.332 202.427 607.411 201.527 605.569 201.527C604.151 201.527 602.483 201.955 600.568 202.813L598.964 199.542C601.007 198.473 603.273 197.938 605.76 197.938C608.141 197.938 609.967 198.457 611.238 199.494C612.507 200.532 613.143 202.109 613.143 204.226V216.055H609.761Z" clip-rule="evenodd" fill-rule="evenodd"></path>
<line stroke-width="1.31665" stroke="white" y2="236.998" x2="422.988" y1="179.943" x1="422.988"></line>
<rect fill="#A18DF5" transform="rotate(9.15669 -72.2098 362.945)" height="130.851" width="712.494" y="362.945" x="-72.2098"></rect>
<rect fill="#8C7AEB" transform="rotate(-6.43068 -312.752 512.773)" height="212.038" width="1189.35" y="512.773" x="-312.752"></rect>
</g>
<defs>
<radialGradient gradientTransform="translate(422 237) rotate(90) scale(237 422)" gradientUnits="userSpaceOnUse" r="1" cy="0" cx="0" id="paint0_radial_7080_1584">
<stop stop-color="#212D4A"></stop>
<stop stop-color="#131A2B" offset="1"></stop>
</radialGradient>
<clipPath id="clip0_7080_1584">
<rect fill="white" height="474" width="844"></rect>
</clipPath>
<clipPath id="clip1_7080_1584">
<rect transform="translate(165.143 177.309)" fill="white" height="46.5218" width="222.515"></rect>
</clipPath>
</defs>
</svg>
