<svg xmlns="http://www.w3.org/2000/svg" fill="none" viewBox="0 0 844 474" height="474" width="844">
<g clip-path="url(#clip0_7076_3051)">
<rect fill="#5A67D8" height="474" width="844"></rect>
<path fill-opacity="0.05" fill="white" d="M42.362 -27.1677C42.0756 -27.3331 41.7227 -27.3331 41.4363 -27.1677L-13.1415 4.34274C-13.4279 4.5081 -13.6043 4.8137 -13.6043 5.14442C-13.6043 5.47514 -13.4279 5.78074 -13.1415 5.94611L40.0606 36.6623L-13.1415 67.3785C-13.4279 67.5439 -13.6043 67.8495 -13.6043 68.1802C-13.6043 68.5109 -13.4279 68.8165 -13.1415 68.9819L40.088 99.7139L-13.1415 130.446C-13.4279 130.611 -13.6043 130.917 -13.6043 131.248C-13.6043 131.578 -13.4279 131.884 -13.1415 132.049L40.0738 162.773L-13.1415 193.497C-13.4279 193.662 -13.6043 193.968 -13.6043 194.299C-13.6043 194.629 -13.4279 194.935 -13.1415 195.1L40.0677 225.821L-13.1415 256.541C-13.4279 256.706 -13.6043 257.012 -13.6043 257.343C-13.6043 257.673 -13.4279 257.979 -13.1415 258.144L40.0809 288.872L-13.1415 319.6C-13.4279 319.765 -13.6043 320.071 -13.6043 320.402C-13.6043 320.733 -13.4279 321.038 -13.1415 321.203L40.0667 351.923L-13.1415 382.643C-13.4279 382.808 -13.6043 383.114 -13.6043 383.445C-13.6043 383.775 -13.4279 384.081 -13.1415 384.246L40.0464 414.954L-13.1415 445.662C-13.4279 445.828 -13.6043 446.133 -13.6043 446.464C-13.6043 446.795 -13.4279 447.1 -13.1415 447.266L41.4363 478.776C41.7227 478.942 42.0756 478.942 42.362 478.776L96.4085 447.572L150.455 478.776C150.741 478.942 151.094 478.942 151.381 478.776L205.428 447.572L259.475 478.776C259.761 478.942 260.114 478.942 260.4 478.776L314.447 447.572L368.494 478.776C368.78 478.942 369.133 478.942 369.419 478.776L423.466 447.572L477.513 478.776C477.8 478.942 478.152 478.942 478.439 478.776L532.485 447.572L586.532 478.776C586.818 478.942 587.171 478.942 587.457 478.776L641.504 447.572L695.551 478.776C695.838 478.942 696.19 478.942 696.477 478.776L750.524 447.572L804.57 478.776C804.857 478.942 805.21 478.942 805.496 478.776L860.074 447.266C860.36 447.1 860.537 446.795 860.537 446.464C860.537 446.133 860.36 445.828 860.074 445.662L832.785 429.907L806.886 414.954L860.074 384.246C860.36 384.081 860.537 383.775 860.537 383.445C860.537 383.114 860.36 382.808 860.074 382.643L832.785 366.888L806.866 351.923L860.074 321.203C860.36 321.038 860.537 320.733 860.537 320.402C860.537 320.071 860.36 319.765 860.074 319.6L832.785 303.845L806.852 288.872L860.074 258.144C860.36 257.979 860.537 257.673 860.537 257.343C860.537 257.012 860.36 256.706 860.074 256.541L832.785 240.786L806.865 225.821L860.074 195.1C860.36 194.935 860.537 194.629 860.537 194.299C860.537 193.968 860.36 193.662 860.074 193.497L832.785 177.742L806.859 162.773L860.074 132.049C860.36 131.884 860.537 131.578 860.537 131.248C860.537 130.917 860.36 130.611 860.074 130.446L832.785 114.691L806.844 99.7139L860.074 68.9819C860.36 68.8165 860.537 68.5109 860.537 68.1802C860.537 67.8495 860.36 67.5439 860.074 67.3785L832.785 51.6233L806.872 36.6623L860.074 5.94611C860.36 5.78074 860.537 5.47514 860.537 5.14442C860.537 4.8137 860.36 4.5081 860.074 4.34274L832.785 -11.4125L805.496 -27.1677C805.21 -27.3331 804.857 -27.3331 804.57 -27.1677L750.524 4.03623L723.766 -11.4125L696.477 -27.1677C696.19 -27.3331 695.837 -27.3331 695.551 -27.1677L641.504 4.03621L614.746 -11.4125L587.457 -27.1677C587.171 -27.3331 586.818 -27.3331 586.532 -27.1677L532.485 4.03596L505.728 -11.4125L478.439 -27.1677C478.152 -27.3331 477.8 -27.3331 477.513 -27.1677L423.466 4.03631L396.708 -11.4125L369.419 -27.1677C369.133 -27.3331 368.78 -27.3331 368.494 -27.1677L314.447 4.03606L287.689 -11.4125L260.4 -27.1677C260.114 -27.3331 259.761 -27.3331 259.475 -27.1677L205.428 4.0363L178.67 -11.4125L151.381 -27.1677C151.094 -27.3331 150.741 -27.3331 150.455 -27.1677L96.4085 4.03606L69.6508 -11.4125L42.362 -27.1677ZM803.181 414.954L750.524 384.553L697.867 414.954L723.766 429.907L750.524 445.356L803.181 414.954ZM694.161 414.954L641.504 445.356L614.746 429.907L588.847 414.954L641.504 384.553L694.161 414.954ZM585.142 414.954L532.485 384.553L479.829 414.954L505.728 429.907L532.485 445.356L585.142 414.954ZM476.123 414.954L423.466 445.356L396.708 429.907L370.809 414.954L423.466 384.553L476.123 414.954ZM367.104 414.954L314.447 445.356L287.689 429.907L261.79 414.954L314.447 384.553L367.104 414.954ZM258.085 414.954L205.428 384.553L152.771 414.954L178.67 429.907L205.428 445.356L258.085 414.954ZM149.065 414.954L96.4085 445.356L69.6508 429.907L43.7518 414.954L96.4085 384.553L149.065 414.954ZM803.201 351.923L750.524 382.336L723.766 366.888L697.846 351.923L750.524 321.51L803.201 351.923ZM694.182 351.923L641.504 321.51L588.827 351.923L614.746 366.888L641.504 382.336L694.182 351.923ZM585.162 351.923L532.485 382.336L505.728 366.888L479.808 351.923L532.485 321.51L585.162 351.923ZM476.144 351.923L423.466 321.51L370.789 351.923L396.708 366.888L423.466 382.336L476.144 351.923ZM367.124 351.923L314.447 321.51L261.77 351.923L287.689 366.888L314.447 382.336L367.124 351.923ZM258.105 351.923L205.428 382.336L178.67 366.888L152.75 351.923L205.428 321.51L258.105 351.923ZM149.085 351.923L96.4085 321.51L43.7316 351.923L69.6508 366.888L96.4085 382.336L149.085 351.923ZM803.215 288.872L750.524 258.451L697.832 288.872L723.766 303.845L750.524 319.294L803.215 288.872ZM694.196 288.872L641.504 319.294L614.746 303.845L588.813 288.872L641.504 258.451L694.196 288.872ZM585.176 288.872L532.485 258.451L479.794 288.872L505.728 303.845L532.485 319.293L585.176 288.872ZM476.158 288.872L423.466 319.294L396.708 303.845L370.775 288.872L423.466 258.451L476.158 288.872ZM367.138 288.872L314.447 319.293L287.689 303.845L261.756 288.872L314.447 258.451L367.138 288.872ZM258.119 288.872L205.428 258.451L152.736 288.872L178.67 303.845L205.428 319.294L258.119 288.872ZM149.1 288.872L96.4085 319.293L69.6508 303.845L43.7174 288.872L96.4085 258.451L149.1 288.872ZM803.202 225.821L750.524 256.234L723.766 240.786L697.845 225.821L750.524 195.407L803.202 225.821ZM694.182 225.821L641.504 195.407L588.826 225.821L614.746 240.786L641.504 256.234L694.182 225.821ZM585.163 225.821L532.485 256.234L505.728 240.786L479.807 225.821L532.485 195.407L585.163 225.821ZM476.145 225.821L423.466 195.407L370.788 225.821L396.708 240.786L423.466 256.234L476.145 225.821ZM367.125 225.821L314.447 195.407L261.769 225.821L287.689 240.786L314.447 256.234L367.125 225.821ZM258.106 225.821L205.428 256.234L178.67 240.786L152.749 225.821L205.428 195.407L258.106 225.821ZM149.086 225.821L96.4085 195.407L43.7306 225.821L69.6508 240.786L96.4085 256.234L149.086 225.821ZM803.208 162.773L750.524 132.356L697.839 162.773L723.766 177.742L750.524 193.19L803.208 162.773ZM694.189 162.773L641.504 193.19L614.746 177.742L588.82 162.773L641.504 132.356L694.189 162.773ZM585.169 162.773L532.485 132.356L479.801 162.773L505.728 177.742L532.485 193.19L585.169 162.773ZM476.151 162.773L423.466 193.19L396.708 177.742L370.782 162.773L423.466 132.356L476.151 162.773ZM367.131 162.773L314.447 193.19L287.689 177.742L261.763 162.773L314.447 132.356L367.131 162.773ZM258.112 162.773L205.428 132.356L152.743 162.773L178.67 177.742L205.428 193.19L258.112 162.773ZM149.093 162.773L96.4085 193.19L69.6508 177.742L43.7245 162.773L96.4085 132.356L149.093 162.773ZM803.222 99.7139L750.524 130.139L723.766 114.691L697.825 99.7139L750.524 69.2884L803.222 99.7139ZM694.203 99.7139L641.504 69.2885L588.806 99.714L614.746 114.691L641.504 130.139L694.203 99.7139ZM585.184 99.7138L532.485 130.139L505.728 114.691L479.787 99.7139L532.485 69.2885L585.184 99.7138ZM476.165 99.7139L423.466 69.2883L370.768 99.7139L396.708 114.691L423.466 130.139L476.165 99.7139ZM367.145 99.7139L314.447 69.2885L261.749 99.7139L287.689 114.691L314.447 130.139L367.145 99.7139ZM258.126 99.7139L205.428 130.139L178.67 114.691L152.729 99.7139L205.428 69.2883L258.126 99.7139ZM149.107 99.7139L96.4085 69.2886L43.7103 99.7139L69.6508 114.691L96.4085 130.139L149.107 99.7139ZM803.195 36.6623L750.524 6.25261L697.852 36.6623L723.766 51.6233L750.524 67.072L803.195 36.6623ZM694.175 36.6623L641.504 67.0719L614.747 51.6233L588.833 36.6622L641.504 6.25263L694.175 36.6623ZM585.156 36.6624L532.485 6.25288L479.815 36.6623L505.728 51.6233L532.485 67.0718L585.156 36.6624ZM476.137 36.6623L423.466 67.0721L396.708 51.6233L370.795 36.6623L423.466 6.25253L476.137 36.6623ZM367.118 36.6623L314.447 67.0719L287.689 51.6233L261.776 36.6623L314.447 6.25278L367.118 36.6623ZM258.099 36.6623L205.428 6.25254L152.756 36.6623L178.67 51.6233L205.428 67.0721L258.099 36.6623ZM149.079 36.6623L96.4085 67.0718L69.6508 51.6233L43.7377 36.6623L96.4085 6.25278L149.079 36.6623ZM41.8991 35.586L-10.8272 5.14442L41.8991 -25.2971L68.7251 -9.80913L94.6254 5.14442L41.8991 35.586ZM150.918 35.586L98.1916 5.14442L150.918 -25.2971L177.744 -9.80913L203.644 5.14442L150.918 35.586ZM207.211 5.14442L259.938 35.586L312.664 5.14442L286.764 -9.80913L259.938 -25.2971L207.211 5.14442ZM368.956 35.586L316.23 5.14442L368.956 -25.2971L395.782 -9.80913L421.683 5.14442L368.956 35.586ZM425.25 5.14442L477.976 35.586L530.702 5.14442L504.802 -9.80913L477.976 -25.2971L425.25 5.14442ZM534.268 5.14442L586.995 35.586L639.721 5.14442L613.821 -9.80913L586.995 -25.2971L534.268 5.14442ZM696.014 35.586L643.288 5.14442L696.014 -25.2971L722.84 -9.80913L748.74 5.14442L696.014 35.586ZM752.307 5.14442L805.033 35.586L857.76 5.14442L831.859 -9.80913L805.033 -25.2971L752.307 5.14442ZM41.8991 98.6217L-10.8272 68.1802L41.8991 37.7386L68.7251 53.2266L94.6254 68.1802L41.8991 98.6217ZM98.1916 68.1802L150.918 98.6217L203.644 68.1802L177.744 53.2266L150.918 37.7386L98.1916 68.1802ZM259.938 98.6217L207.211 68.1802L259.938 37.7386L286.764 53.2266L312.664 68.1802L259.938 98.6217ZM316.23 68.1802L368.956 98.6217L421.683 68.1802L395.782 53.2266L368.956 37.7386L316.23 68.1802ZM477.976 98.6217L425.25 68.1802L477.976 37.7386L504.802 53.2266L530.702 68.1802L477.976 98.6217ZM586.995 98.6217L534.269 68.1802L586.995 37.7386L613.821 53.2266L639.721 68.1802L586.995 98.6217ZM643.288 68.1802L696.014 98.6217L748.74 68.1802L722.84 53.2266L696.014 37.7386L643.288 68.1802ZM805.033 98.6217L752.307 68.1802L805.033 37.7386L831.859 53.2266L857.76 68.1802L805.033 98.6217ZM-10.8272 131.248L41.8991 161.689L94.6254 131.248L68.7251 116.294L41.8991 100.806L-10.8272 131.248ZM150.918 161.689L98.1916 131.248L150.918 100.806L177.744 116.294L203.644 131.248L150.918 161.689ZM207.211 131.248L259.938 161.689L312.664 131.248L286.764 116.294L259.938 100.806L207.211 131.248ZM368.956 161.689L316.23 131.248L368.956 100.806L395.782 116.294L421.683 131.248L368.956 161.689ZM425.25 131.248L477.976 161.689L530.702 131.248L504.802 116.294L477.976 100.806L425.25 131.248ZM534.268 131.248L586.995 161.689L639.721 131.248L613.821 116.294L586.995 100.806L534.268 131.248ZM696.014 161.689L643.288 131.248L696.014 100.806L722.84 116.294L748.74 131.248L696.014 161.689ZM752.307 131.248L805.033 161.689L857.76 131.248L831.859 116.294L805.033 100.806L752.307 131.248ZM41.8991 224.74L-10.8272 194.299L41.8991 163.857L68.7251 179.345L94.6254 194.299L41.8991 224.74ZM98.1916 194.299L150.918 224.74L203.644 194.299L177.744 179.345L150.918 163.857L98.1916 194.299ZM259.938 224.74L207.211 194.299L259.938 163.857L286.764 179.345L312.664 194.299L259.938 224.74ZM316.23 194.299L368.956 224.74L421.683 194.299L395.782 179.345L368.956 163.857L316.23 194.299ZM477.976 224.74L425.25 194.299L477.976 163.857L504.802 179.345L530.702 194.299L477.976 224.74ZM586.995 224.74L534.268 194.299L586.995 163.857L613.821 179.345L639.721 194.299L586.995 224.74ZM643.288 194.299L696.014 224.74L748.74 194.299L722.84 179.345L696.014 163.857L643.288 194.299ZM805.033 224.74L752.307 194.299L805.033 163.857L831.859 179.345L857.76 194.299L805.033 224.74ZM-10.8272 257.343L41.8991 287.784L94.6254 257.343L68.7251 242.389L41.8991 226.901L-10.8272 257.343ZM150.918 287.784L98.1916 257.343L150.918 226.901L177.744 242.389L203.644 257.343L150.918 287.784ZM207.211 257.343L259.938 287.784L312.664 257.343L286.764 242.389L259.938 226.901L207.211 257.343ZM368.956 287.784L316.23 257.343L368.956 226.901L395.782 242.389L421.683 257.343L368.956 287.784ZM425.25 257.343L477.976 287.784L530.702 257.343L504.802 242.389L477.976 226.901L425.25 257.343ZM534.268 257.343L586.995 287.784L639.721 257.343L613.821 242.389L586.995 226.901L534.268 257.343ZM696.014 287.784L643.288 257.343L696.014 226.901L722.84 242.389L748.74 257.343L696.014 287.784ZM752.307 257.343L805.033 287.784L857.76 257.343L831.859 242.389L805.033 226.901L752.307 257.343ZM41.8991 350.843L-10.8272 320.402L41.8991 289.96L68.7251 305.448L94.6254 320.402L41.8991 350.843ZM98.1916 320.402L150.918 350.843L203.644 320.402L177.744 305.448L150.918 289.96L98.1916 320.402ZM259.938 350.843L207.211 320.402L259.938 289.96L286.764 305.448L312.664 320.402L259.938 350.843ZM316.23 320.402L368.956 350.843L421.683 320.402L395.782 305.448L368.956 289.96L316.23 320.402ZM477.976 350.843L425.25 320.402L477.976 289.96L504.802 305.448L530.702 320.402L477.976 350.843ZM586.995 350.843L534.268 320.402L586.995 289.96L613.821 305.448L639.721 320.402L586.995 350.843ZM643.288 320.402L696.014 350.843L748.74 320.402L722.84 305.448L696.014 289.96L643.288 320.402ZM805.033 350.843L752.307 320.402L805.033 289.96L831.859 305.448L857.76 320.402L805.033 350.843ZM-10.8272 383.445L41.8991 413.886L94.6254 383.445L68.7251 368.491L41.8991 353.003L-10.8272 383.445ZM150.918 413.886L98.1916 383.445L150.918 353.003L177.744 368.491L203.644 383.445L150.918 413.886ZM207.211 383.445L259.938 413.886L312.664 383.445L286.764 368.491L259.938 353.003L207.211 383.445ZM368.956 413.886L316.23 383.445L368.956 353.003L395.782 368.491L421.683 383.445L368.956 413.886ZM425.25 383.445L477.976 413.886L530.702 383.445L504.802 368.491L477.976 353.003L425.25 383.445ZM534.268 383.445L586.995 413.886L639.721 383.445L613.821 368.491L586.995 353.003L534.268 383.445ZM696.014 413.886L643.288 383.445L696.014 353.003L722.84 368.491L748.74 383.445L696.014 413.886ZM752.307 383.445L805.033 413.886L857.76 383.445L831.859 368.491L805.033 353.003L752.307 383.445ZM41.8991 476.906L-10.8272 446.464L41.8991 416.022L68.7251 431.51L94.6254 446.464L41.8991 476.906ZM98.1916 446.464L150.918 476.906L203.644 446.464L177.744 431.51L150.918 416.022L98.1916 446.464ZM259.938 476.906L207.211 446.464L259.938 416.022L286.764 431.51L312.664 446.464L259.938 476.906ZM316.23 446.464L368.956 476.906L421.683 446.464L395.782 431.51L368.956 416.022L316.23 446.464ZM477.976 476.906L425.25 446.464L477.976 416.022L504.802 431.51L530.702 446.464L477.976 476.906ZM586.995 476.906L534.268 446.464L586.995 416.022L613.821 431.51L639.721 446.464L586.995 476.906ZM643.288 446.464L696.014 476.906L748.74 446.464L722.84 431.51L696.014 416.022L643.288 446.464ZM805.033 476.906L752.307 446.464L805.033 416.022L831.859 431.51L857.76 446.464L805.033 476.906Z" clip-rule="evenodd" fill-rule="evenodd"></path>
<path fill="white" d="M94.6925 239.139C93.8642 239.139 93.1079 238.938 92.4234 238.534C91.7389 238.123 91.1913 237.575 90.7806 236.891C90.3767 236.206 90.1748 235.45 90.1748 234.622C90.1748 233.787 90.3767 233.03 90.7806 232.353C91.1913 231.668 91.7389 231.124 92.4234 230.72C93.1079 230.309 93.8642 230.104 94.6925 230.104C95.5276 230.104 96.2839 230.309 96.9616 230.72C97.6461 231.124 98.1902 231.668 98.5941 232.353C99.0048 233.03 99.2101 233.787 99.2101 234.622C99.2101 235.45 99.0048 236.206 98.5941 236.891C98.1902 237.575 97.6461 238.123 96.9616 238.534C96.2839 238.938 95.5276 239.139 94.6925 239.139ZM132.91 228.615C132.712 227.992 132.445 227.435 132.11 226.942C131.781 226.442 131.387 226.018 130.929 225.669C130.47 225.313 129.947 225.042 129.358 224.857C128.776 224.673 128.136 224.58 127.438 224.58C126.254 224.58 125.186 224.885 124.234 225.494C123.283 226.103 122.53 226.997 121.976 228.174C121.428 229.344 121.154 230.778 121.154 232.476C121.154 234.18 121.431 235.621 121.986 236.798C122.54 237.976 123.3 238.869 124.265 239.478C125.23 240.087 126.329 240.392 127.561 240.392C128.704 240.392 129.7 240.159 130.549 239.694C131.404 239.228 132.065 238.571 132.53 237.723C133.003 236.867 133.239 235.861 133.239 234.704L134.06 234.858H128.044V232.24H136.309V234.632C136.309 236.398 135.932 237.931 135.179 239.232C134.433 240.526 133.4 241.525 132.079 242.23C130.764 242.935 129.259 243.287 127.561 243.287C125.658 243.287 123.988 242.849 122.551 241.973C121.12 241.097 120.004 239.855 119.203 238.246C118.403 236.631 118.002 234.714 118.002 232.496C118.002 230.819 118.235 229.314 118.7 227.979C119.166 226.644 119.819 225.511 120.661 224.58C121.51 223.642 122.506 222.927 123.649 222.434C124.799 221.935 126.055 221.685 127.417 221.685C128.554 221.685 129.611 221.853 130.59 222.188C131.576 222.523 132.452 222.999 133.218 223.615C133.992 224.231 134.632 224.964 135.138 225.812C135.645 226.654 135.987 227.589 136.165 228.615H132.91ZM140.09 243V227.229H143.057V229.734H143.221C143.509 228.886 144.015 228.218 144.741 227.732C145.473 227.24 146.302 226.993 147.226 226.993C147.417 226.993 147.643 227 147.903 227.014C148.17 227.027 148.379 227.044 148.53 227.065V230.001C148.406 229.967 148.187 229.93 147.873 229.889C147.558 229.841 147.243 229.817 146.928 229.817C146.202 229.817 145.556 229.971 144.987 230.279C144.426 230.58 143.981 231.001 143.653 231.542C143.324 232.075 143.16 232.685 143.16 233.369V243H140.09ZM155.635 243.349C154.635 243.349 153.732 243.164 152.924 242.795C152.116 242.418 151.476 241.874 151.004 241.162C150.539 240.45 150.306 239.578 150.306 238.544C150.306 237.654 150.477 236.922 150.819 236.347C151.162 235.772 151.624 235.317 152.205 234.981C152.787 234.646 153.438 234.392 154.156 234.221C154.875 234.05 155.607 233.92 156.353 233.831C157.298 233.722 158.065 233.633 158.653 233.564C159.242 233.489 159.67 233.369 159.937 233.205C160.204 233.041 160.337 232.774 160.337 232.404V232.332C160.337 231.435 160.084 230.741 159.577 230.248C159.078 229.755 158.332 229.509 157.339 229.509C156.306 229.509 155.491 229.738 154.895 230.197C154.307 230.648 153.9 231.151 153.674 231.706L150.789 231.049C151.131 230.09 151.63 229.317 152.288 228.728C152.952 228.133 153.715 227.702 154.577 227.435C155.44 227.161 156.347 227.024 157.298 227.024C157.928 227.024 158.595 227.099 159.3 227.25C160.012 227.394 160.676 227.66 161.292 228.051C161.915 228.441 162.425 228.999 162.822 229.724C163.219 230.443 163.417 231.377 163.417 232.527V243H160.419V240.844H160.296C160.098 241.241 159.8 241.631 159.403 242.014C159.006 242.398 158.496 242.716 157.873 242.969C157.25 243.222 156.504 243.349 155.635 243.349ZM156.302 240.885C157.151 240.885 157.876 240.717 158.479 240.382C159.088 240.046 159.55 239.608 159.865 239.068C160.187 238.52 160.347 237.935 160.347 237.312V235.279C160.238 235.388 160.026 235.491 159.711 235.587C159.403 235.676 159.05 235.755 158.653 235.823C158.256 235.885 157.87 235.943 157.493 235.998C157.117 236.046 156.802 236.087 156.549 236.121C155.953 236.196 155.409 236.323 154.916 236.501C154.43 236.679 154.04 236.935 153.746 237.271C153.458 237.599 153.314 238.037 153.314 238.585C153.314 239.345 153.595 239.92 154.156 240.31C154.718 240.693 155.433 240.885 156.302 240.885ZM167.506 248.914V227.229H170.505V229.786H170.761C170.939 229.457 171.196 229.077 171.531 228.646C171.867 228.215 172.332 227.838 172.928 227.517C173.523 227.188 174.31 227.024 175.289 227.024C176.562 227.024 177.699 227.346 178.698 227.989C179.697 228.632 180.481 229.56 181.049 230.772C181.624 231.983 181.912 233.441 181.912 235.145C181.912 236.85 181.628 238.311 181.059 239.53C180.491 240.741 179.711 241.676 178.718 242.333C177.726 242.983 176.593 243.308 175.32 243.308C174.362 243.308 173.578 243.147 172.969 242.825C172.366 242.504 171.894 242.127 171.552 241.696C171.21 241.265 170.946 240.881 170.761 240.546H170.576V248.914H167.506ZM170.515 235.115C170.515 236.224 170.676 237.195 170.997 238.031C171.319 238.866 171.785 239.519 172.394 239.992C173.003 240.457 173.749 240.69 174.632 240.69C175.549 240.69 176.316 240.447 176.932 239.961C177.548 239.468 178.013 238.801 178.328 237.959C178.65 237.117 178.811 236.169 178.811 235.115C178.811 234.074 178.653 233.14 178.339 232.312C178.031 231.483 177.565 230.83 176.942 230.351C176.326 229.871 175.556 229.632 174.632 229.632C173.742 229.632 172.989 229.861 172.373 230.32C171.764 230.778 171.302 231.418 170.987 232.24C170.672 233.061 170.515 234.019 170.515 235.115ZM188.421 233.636V243H185.351V221.972H188.38V229.796H188.575C188.945 228.947 189.509 228.273 190.269 227.773C191.029 227.274 192.022 227.024 193.247 227.024C194.328 227.024 195.273 227.246 196.081 227.691C196.895 228.136 197.525 228.8 197.97 229.683C198.422 230.559 198.647 231.655 198.647 232.969V243H195.578V233.338C195.578 232.182 195.28 231.285 194.684 230.648C194.089 230.005 193.261 229.683 192.2 229.683C191.474 229.683 190.824 229.837 190.249 230.145C189.681 230.453 189.232 230.905 188.904 231.5C188.582 232.089 188.421 232.801 188.421 233.636ZM210.722 236.182H213.843L216.04 239.047L217.078 240.32L220.579 244.889H217.334L214.993 241.84L214.192 240.731L210.722 236.182ZM221.256 232.486C221.256 234.731 220.846 236.662 220.024 238.277C219.203 239.886 218.077 241.124 216.646 241.994C215.223 242.856 213.604 243.287 211.79 243.287C209.969 243.287 208.343 242.856 206.913 241.994C205.489 241.124 204.366 239.882 203.545 238.267C202.724 236.651 202.313 234.724 202.313 232.486C202.313 230.241 202.724 228.314 203.545 226.706C204.366 225.09 205.489 223.851 206.913 222.989C208.343 222.119 209.969 221.685 211.79 221.685C213.604 221.685 215.223 222.119 216.646 222.989C218.077 223.851 219.203 225.09 220.024 226.706C220.846 228.314 221.256 230.241 221.256 232.486ZM218.115 232.486C218.115 230.775 217.837 229.334 217.283 228.164C216.735 226.986 215.982 226.096 215.024 225.494C214.073 224.885 212.994 224.58 211.79 224.58C210.578 224.58 209.497 224.885 208.545 225.494C207.594 226.096 206.841 226.986 206.286 228.164C205.739 229.334 205.465 230.775 205.465 232.486C205.465 234.197 205.739 235.642 206.286 236.819C206.841 237.99 207.594 238.879 208.545 239.489C209.497 240.091 210.578 240.392 211.79 240.392C212.994 240.392 214.073 240.091 215.024 239.489C215.982 238.879 216.735 237.99 217.283 236.819C217.837 235.642 218.115 234.197 218.115 232.486ZM225.212 243V221.972H228.385V240.269H237.913V243H225.212ZM260.755 231.08L257.973 231.572C257.856 231.216 257.671 230.878 257.418 230.556C257.172 230.234 256.836 229.971 256.412 229.765C255.988 229.56 255.457 229.457 254.821 229.457C253.951 229.457 253.226 229.652 252.644 230.043C252.062 230.426 251.771 230.922 251.771 231.531C251.771 232.058 251.966 232.483 252.356 232.804C252.747 233.126 253.376 233.39 254.246 233.595L256.751 234.17C258.202 234.505 259.283 235.022 259.995 235.72C260.707 236.419 261.063 237.326 261.063 238.441C261.063 239.386 260.789 240.228 260.242 240.967C259.701 241.699 258.945 242.274 257.973 242.692C257.007 243.11 255.888 243.318 254.615 243.318C252.849 243.318 251.408 242.942 250.293 242.189C249.177 241.429 248.492 240.351 248.239 238.955L251.206 238.503C251.391 239.276 251.771 239.862 252.346 240.259C252.921 240.649 253.671 240.844 254.595 240.844C255.601 240.844 256.405 240.635 257.007 240.218C257.61 239.793 257.911 239.276 257.911 238.667C257.911 238.174 257.726 237.76 257.357 237.425C256.994 237.089 256.436 236.836 255.683 236.665L253.013 236.08C251.542 235.744 250.453 235.21 249.748 234.478C249.05 233.746 248.701 232.818 248.701 231.696C248.701 230.765 248.961 229.95 249.481 229.252C250.002 228.554 250.72 228.01 251.638 227.619C252.555 227.222 253.606 227.024 254.79 227.024C256.494 227.024 257.836 227.394 258.815 228.133C259.793 228.865 260.44 229.847 260.755 231.08ZM271.236 243.318C269.682 243.318 268.344 242.986 267.221 242.322C266.105 241.652 265.243 240.71 264.634 239.499C264.031 238.28 263.73 236.853 263.73 235.217C263.73 233.602 264.031 232.178 264.634 230.946C265.243 229.714 266.092 228.752 267.18 228.061C268.275 227.37 269.555 227.024 271.02 227.024C271.91 227.024 272.772 227.171 273.607 227.465C274.442 227.76 275.192 228.222 275.856 228.852C276.52 229.481 277.043 230.299 277.427 231.305C277.81 232.305 278.002 233.52 278.002 234.95V236.039H265.465V233.739H274.993C274.993 232.931 274.829 232.216 274.501 231.593C274.172 230.963 273.71 230.467 273.114 230.104C272.526 229.741 271.834 229.56 271.04 229.56C270.178 229.56 269.425 229.772 268.782 230.197C268.145 230.614 267.652 231.162 267.303 231.839C266.961 232.51 266.79 233.239 266.79 234.026V235.823C266.79 236.877 266.975 237.774 267.344 238.513C267.721 239.252 268.244 239.817 268.915 240.207C269.586 240.591 270.37 240.782 271.266 240.782C271.848 240.782 272.379 240.7 272.858 240.536C273.337 240.365 273.751 240.111 274.1 239.776C274.449 239.441 274.716 239.027 274.901 238.534L277.807 239.057C277.574 239.913 277.156 240.662 276.554 241.306C275.959 241.942 275.209 242.439 274.306 242.795C273.409 243.144 272.386 243.318 271.236 243.318ZM281.408 243V227.229H284.375V229.734H284.54C284.827 228.886 285.334 228.218 286.059 227.732C286.792 227.24 287.62 226.993 288.544 226.993C288.736 226.993 288.961 227 289.222 227.014C289.488 227.027 289.697 227.044 289.848 227.065V230.001C289.725 229.967 289.506 229.93 289.191 229.889C288.876 229.841 288.561 229.817 288.246 229.817C287.521 229.817 286.874 229.971 286.306 230.279C285.744 230.58 285.299 231.001 284.971 231.542C284.642 232.075 284.478 232.685 284.478 233.369V243H281.408ZM306.476 227.229L300.757 243H297.471L291.742 227.229H295.038L299.032 239.365H299.196L303.18 227.229H306.476ZM315.622 243.318C314.068 243.318 312.73 242.986 311.607 242.322C310.491 241.652 309.629 240.71 309.02 239.499C308.417 238.28 308.116 236.853 308.116 235.217C308.116 233.602 308.417 232.178 309.02 230.946C309.629 229.714 310.478 228.752 311.566 228.061C312.661 227.37 313.941 227.024 315.406 227.024C316.296 227.024 317.158 227.171 317.993 227.465C318.828 227.76 319.578 228.222 320.242 228.852C320.906 229.481 321.43 230.299 321.813 231.305C322.196 232.305 322.388 233.52 322.388 234.95V236.039H309.851V233.739H319.379C319.379 232.931 319.215 232.216 318.887 231.593C318.558 230.963 318.096 230.467 317.501 230.104C316.912 229.741 316.221 229.56 315.427 229.56C314.564 229.56 313.811 229.772 313.168 230.197C312.531 230.614 312.038 231.162 311.689 231.839C311.347 232.51 311.176 233.239 311.176 234.026V235.823C311.176 236.877 311.361 237.774 311.73 238.513C312.107 239.252 312.63 239.817 313.301 240.207C313.972 240.591 314.756 240.782 315.652 240.782C316.234 240.782 316.765 240.7 317.244 240.536C317.723 240.365 318.137 240.111 318.486 239.776C318.835 239.441 319.102 239.027 319.287 238.534L322.193 239.057C321.96 239.913 321.542 240.662 320.94 241.306C320.345 241.942 319.595 242.439 318.692 242.795C317.795 243.144 316.772 243.318 315.622 243.318ZM325.794 243V227.229H328.761V229.734H328.926C329.213 228.886 329.72 228.218 330.445 227.732C331.178 227.24 332.006 226.993 332.93 226.993C333.122 226.993 333.347 227 333.608 227.014C333.874 227.027 334.083 227.044 334.234 227.065V230.001C334.111 229.967 333.892 229.93 333.577 229.889C333.262 229.841 332.947 229.817 332.632 229.817C331.907 229.817 331.26 229.971 330.692 230.279C330.13 230.58 329.685 231.001 329.357 231.542C329.028 232.075 328.864 232.685 328.864 233.369V243H325.794ZM356.36 231.08L353.578 231.572C353.461 231.216 353.276 230.878 353.023 230.556C352.777 230.234 352.441 229.971 352.017 229.765C351.593 229.56 351.062 229.457 350.426 229.457C349.556 229.457 348.831 229.652 348.249 230.043C347.667 230.426 347.376 230.922 347.376 231.531C347.376 232.058 347.571 232.483 347.961 232.804C348.352 233.126 348.981 233.39 349.851 233.595L352.356 234.17C353.807 234.505 354.888 235.022 355.6 235.72C356.312 236.419 356.668 237.326 356.668 238.441C356.668 239.386 356.394 240.228 355.847 240.967C355.306 241.699 354.55 242.274 353.578 242.692C352.613 243.11 351.493 243.318 350.22 243.318C348.454 243.318 347.013 242.942 345.898 242.189C344.782 241.429 344.097 240.351 343.844 238.955L346.811 238.503C346.996 239.276 347.376 239.862 347.951 240.259C348.526 240.649 349.276 240.844 350.2 240.844C351.206 240.844 352.01 240.635 352.613 240.218C353.215 239.793 353.516 239.276 353.516 238.667C353.516 238.174 353.331 237.76 352.962 237.425C352.599 237.089 352.041 236.836 351.288 236.665L348.618 236.08C347.147 235.744 346.058 235.21 345.353 234.478C344.655 233.746 344.306 232.818 344.306 231.696C344.306 230.765 344.566 229.95 345.087 229.252C345.607 228.554 346.325 228.01 347.243 227.619C348.16 227.222 349.211 227.024 350.395 227.024C352.099 227.024 353.441 227.394 354.42 228.133C355.398 228.865 356.045 229.847 356.36 231.08ZM366.841 243.318C365.287 243.318 363.949 242.986 362.826 242.322C361.71 241.652 360.848 240.71 360.239 239.499C359.636 238.28 359.335 236.853 359.335 235.217C359.335 233.602 359.636 232.178 360.239 230.946C360.848 229.714 361.697 228.752 362.785 228.061C363.88 227.37 365.16 227.024 366.625 227.024C367.515 227.024 368.377 227.171 369.212 227.465C370.047 227.76 370.797 228.222 371.461 228.852C372.125 229.481 372.649 230.299 373.032 231.305C373.415 232.305 373.607 233.52 373.607 234.95V236.039H361.07V233.739H370.598C370.598 232.931 370.434 232.216 370.106 231.593C369.777 230.963 369.315 230.467 368.72 230.104C368.131 229.741 367.44 229.56 366.646 229.56C365.783 229.56 365.03 229.772 364.387 230.197C363.75 230.614 363.257 231.162 362.908 231.839C362.566 232.51 362.395 233.239 362.395 234.026V235.823C362.395 236.877 362.58 237.774 362.949 238.513C363.326 239.252 363.849 239.817 364.52 240.207C365.191 240.591 365.975 240.782 366.871 240.782C367.453 240.782 367.984 240.7 368.463 240.536C368.942 240.365 369.356 240.111 369.705 239.776C370.054 239.441 370.321 239.027 370.506 238.534L373.412 239.057C373.179 239.913 372.761 240.662 372.159 241.306C371.564 241.942 370.814 242.439 369.911 242.795C369.014 243.144 367.991 243.318 366.841 243.318ZM384.375 227.229V229.693H375.76V227.229H384.375ZM378.071 223.451H381.141V238.369C381.141 238.965 381.23 239.413 381.407 239.714C381.585 240.009 381.815 240.211 382.095 240.32C382.383 240.423 382.694 240.474 383.03 240.474C383.276 240.474 383.492 240.457 383.677 240.423C383.861 240.389 384.005 240.361 384.108 240.341L384.662 242.877C384.484 242.945 384.231 243.014 383.902 243.082C383.574 243.157 383.163 243.199 382.67 243.205C381.863 243.219 381.11 243.075 380.412 242.774C379.713 242.473 379.149 242.007 378.717 241.378C378.286 240.748 378.071 239.957 378.071 239.006V223.451ZM397.761 236.46V227.229H400.841V243H397.823V240.269H397.658C397.295 241.111 396.714 241.812 395.913 242.374C395.119 242.928 394.13 243.205 392.945 243.205C391.932 243.205 391.036 242.983 390.255 242.538C389.482 242.086 388.873 241.419 388.428 240.536C387.99 239.653 387.771 238.561 387.771 237.261V227.229H390.841V236.891C390.841 237.966 391.138 238.821 391.734 239.458C392.329 240.094 393.103 240.413 394.054 240.413C394.629 240.413 395.201 240.269 395.769 239.981C396.344 239.694 396.82 239.259 397.196 238.677C397.58 238.096 397.768 237.356 397.761 236.46ZM404.966 248.914V227.229H407.964V229.786H408.221C408.399 229.457 408.655 229.077 408.991 228.646C409.326 228.215 409.792 227.838 410.387 227.517C410.983 227.188 411.77 227.024 412.749 227.024C414.022 227.024 415.158 227.346 416.158 227.989C417.157 228.632 417.941 229.56 418.509 230.772C419.084 231.983 419.371 233.441 419.371 235.145C419.371 236.85 419.087 238.311 418.519 239.53C417.951 240.741 417.171 241.676 416.178 242.333C415.186 242.983 414.053 243.308 412.78 243.308C411.821 243.308 411.038 243.147 410.428 242.825C409.826 242.504 409.354 242.127 409.011 241.696C408.669 241.265 408.406 240.881 408.221 240.546H408.036V248.914H404.966ZM407.974 235.115C407.974 236.224 408.135 237.195 408.457 238.031C408.779 238.866 409.244 239.519 409.853 239.992C410.463 240.457 411.209 240.69 412.092 240.69C413.009 240.69 413.776 240.447 414.392 239.961C415.008 239.468 415.473 238.801 415.788 237.959C416.11 237.117 416.27 236.169 416.27 235.115C416.27 234.074 416.113 233.14 415.798 232.312C415.49 231.483 415.025 230.83 414.402 230.351C413.786 229.871 413.016 229.632 412.092 229.632C411.202 229.632 410.449 229.861 409.833 230.32C409.224 230.778 408.762 231.418 408.447 232.24C408.132 233.061 407.974 234.019 407.974 235.115ZM94.6925 281.139C93.8642 281.139 93.1079 280.938 92.4234 280.534C91.7389 280.123 91.1913 279.575 90.7806 278.891C90.3767 278.206 90.1748 277.45 90.1748 276.622C90.1748 275.787 90.3767 275.03 90.7806 274.353C91.1913 273.668 91.7389 273.124 92.4234 272.72C93.1079 272.309 93.8642 272.104 94.6925 272.104C95.5276 272.104 96.2839 272.309 96.9616 272.72C97.6461 273.124 98.1902 273.668 98.5941 274.353C99.0048 275.03 99.2101 275.787 99.2101 276.622C99.2101 277.45 99.0048 278.206 98.5941 278.891C98.1902 279.575 97.6461 280.123 96.9616 280.534C96.2839 280.938 95.5276 281.139 94.6925 281.139ZM130.148 269.496C130.039 268.524 129.587 267.771 128.793 267.237C127.999 266.697 127 266.426 125.795 266.426C124.933 266.426 124.186 266.563 123.557 266.837C122.927 267.104 122.438 267.474 122.089 267.946C121.746 268.411 121.575 268.942 121.575 269.537C121.575 270.037 121.692 270.468 121.924 270.831C122.164 271.194 122.475 271.498 122.859 271.745C123.249 271.984 123.666 272.186 124.111 272.351C124.556 272.508 124.984 272.638 125.395 272.741L127.448 273.275C128.119 273.439 128.807 273.661 129.512 273.942C130.217 274.223 130.871 274.592 131.473 275.051C132.075 275.509 132.561 276.078 132.931 276.755C133.307 277.433 133.496 278.244 133.496 279.189C133.496 280.38 133.188 281.437 132.572 282.361C131.962 283.285 131.076 284.014 129.912 284.548C128.755 285.082 127.356 285.349 125.713 285.349C124.139 285.349 122.776 285.099 121.626 284.6C120.477 284.1 119.576 283.391 118.926 282.474C118.276 281.55 117.917 280.455 117.848 279.189H121.031C121.093 279.948 121.339 280.582 121.77 281.088C122.208 281.588 122.766 281.961 123.444 282.207C124.128 282.447 124.878 282.567 125.692 282.567C126.589 282.567 127.387 282.426 128.085 282.146C128.79 281.858 129.344 281.461 129.748 280.955C130.152 280.441 130.354 279.842 130.354 279.158C130.354 278.535 130.176 278.025 129.82 277.628C129.471 277.231 128.995 276.902 128.393 276.642C127.797 276.382 127.123 276.153 126.37 275.954L123.885 275.277C122.201 274.818 120.867 274.144 119.881 273.254C118.902 272.364 118.413 271.187 118.413 269.722C118.413 268.511 118.741 267.453 119.398 266.549C120.056 265.646 120.945 264.944 122.068 264.445C123.191 263.938 124.457 263.685 125.867 263.685C127.291 263.685 128.547 263.935 129.635 264.434C130.73 264.934 131.593 265.622 132.222 266.498C132.852 267.367 133.181 268.367 133.208 269.496H130.148ZM143.683 285.318C142.157 285.318 140.843 284.973 139.741 284.281C138.646 283.583 137.804 282.621 137.215 281.396C136.626 280.171 136.332 278.768 136.332 277.186C136.332 275.585 136.633 274.171 137.236 272.946C137.838 271.714 138.687 270.752 139.782 270.061C140.877 269.37 142.167 269.024 143.653 269.024C144.851 269.024 145.918 269.246 146.856 269.691C147.794 270.129 148.55 270.745 149.125 271.539C149.707 272.333 150.053 273.261 150.162 274.322H147.174C147.01 273.583 146.634 272.946 146.045 272.412C145.463 271.878 144.683 271.611 143.704 271.611C142.848 271.611 142.099 271.837 141.455 272.289C140.819 272.734 140.323 273.37 139.967 274.199C139.611 275.02 139.433 275.992 139.433 277.115C139.433 278.265 139.607 279.257 139.956 280.092C140.305 280.927 140.798 281.574 141.435 282.033C142.078 282.491 142.835 282.721 143.704 282.721C144.286 282.721 144.813 282.615 145.285 282.402C145.764 282.183 146.165 281.872 146.486 281.468C146.815 281.064 147.044 280.578 147.174 280.01H150.162C150.053 281.03 149.721 281.94 149.166 282.741C148.612 283.542 147.869 284.172 146.938 284.63C146.014 285.089 144.929 285.318 143.683 285.318ZM156.515 275.636V285H153.445V263.972H156.474V271.796H156.669C157.039 270.947 157.604 270.273 158.363 269.773C159.123 269.274 160.116 269.024 161.341 269.024C162.422 269.024 163.367 269.246 164.175 269.691C164.989 270.136 165.619 270.8 166.064 271.683C166.516 272.559 166.742 273.655 166.742 274.969V285H163.672V275.338C163.672 274.182 163.374 273.285 162.778 272.648C162.183 272.005 161.355 271.683 160.294 271.683C159.568 271.683 158.918 271.837 158.343 272.145C157.775 272.453 157.326 272.905 156.998 273.5C156.676 274.089 156.515 274.801 156.515 275.636ZM177.635 285.318C176.081 285.318 174.743 284.986 173.621 284.322C172.505 283.652 171.642 282.71 171.033 281.499C170.431 280.28 170.13 278.853 170.13 277.217C170.13 275.602 170.431 274.178 171.033 272.946C171.642 271.714 172.491 270.752 173.58 270.061C174.675 269.37 175.955 269.024 177.42 269.024C178.309 269.024 179.172 269.171 180.007 269.465C180.842 269.76 181.592 270.222 182.256 270.852C182.92 271.481 183.443 272.299 183.826 273.305C184.21 274.305 184.401 275.52 184.401 276.95V278.039H171.865V275.739H181.393C181.393 274.931 181.229 274.216 180.9 273.593C180.572 272.963 180.11 272.467 179.514 272.104C178.926 271.741 178.234 271.56 177.44 271.56C176.578 271.56 175.825 271.772 175.181 272.197C174.545 272.614 174.052 273.162 173.703 273.839C173.361 274.51 173.189 275.239 173.189 276.026V277.823C173.189 278.877 173.374 279.774 173.744 280.513C174.12 281.252 174.644 281.817 175.315 282.207C175.986 282.591 176.769 282.782 177.666 282.782C178.248 282.782 178.778 282.7 179.257 282.536C179.737 282.365 180.151 282.111 180.5 281.776C180.849 281.441 181.116 281.027 181.301 280.534L184.206 281.057C183.974 281.913 183.556 282.662 182.954 283.306C182.358 283.942 181.609 284.439 180.705 284.795C179.809 285.144 178.785 285.318 177.635 285.318ZM187.808 285V269.229H190.754V271.796H190.949C191.278 270.927 191.815 270.249 192.561 269.763C193.308 269.27 194.201 269.024 195.241 269.024C196.295 269.024 197.178 269.27 197.89 269.763C198.609 270.256 199.139 270.934 199.482 271.796H199.646C200.022 270.954 200.621 270.283 201.443 269.784C202.264 269.277 203.243 269.024 204.379 269.024C205.81 269.024 206.977 269.472 207.88 270.369C208.791 271.266 209.246 272.617 209.246 274.425V285H206.176V274.712C206.176 273.644 205.885 272.871 205.303 272.392C204.722 271.912 204.027 271.673 203.219 271.673C202.22 271.673 201.443 271.981 200.888 272.597C200.334 273.206 200.057 273.99 200.057 274.948V285H196.997V274.517C196.997 273.661 196.73 272.973 196.196 272.453C195.662 271.933 194.967 271.673 194.112 271.673C193.53 271.673 192.993 271.827 192.5 272.135C192.014 272.436 191.62 272.857 191.319 273.398C191.025 273.939 190.878 274.565 190.878 275.277V285H187.808ZM217.95 285.349C216.951 285.349 216.047 285.164 215.24 284.795C214.432 284.418 213.792 283.874 213.32 283.162C212.854 282.45 212.621 281.578 212.621 280.544C212.621 279.654 212.793 278.922 213.135 278.347C213.477 277.772 213.939 277.317 214.521 276.981C215.103 276.646 215.753 276.392 216.472 276.221C217.19 276.05 217.923 275.92 218.669 275.831C219.614 275.722 220.38 275.633 220.969 275.564C221.558 275.489 221.985 275.369 222.252 275.205C222.519 275.041 222.653 274.774 222.653 274.404V274.332C222.653 273.435 222.399 272.741 221.893 272.248C221.393 271.755 220.647 271.509 219.655 271.509C218.621 271.509 217.806 271.738 217.211 272.197C216.622 272.648 216.215 273.151 215.989 273.706L213.104 273.049C213.446 272.09 213.946 271.317 214.603 270.728C215.267 270.133 216.03 269.702 216.893 269.435C217.755 269.161 218.662 269.024 219.614 269.024C220.243 269.024 220.911 269.099 221.616 269.25C222.328 269.394 222.992 269.66 223.608 270.051C224.23 270.441 224.74 270.999 225.137 271.724C225.534 272.443 225.733 273.377 225.733 274.527V285H222.735V282.844H222.612C222.413 283.241 222.115 283.631 221.718 284.014C221.321 284.398 220.811 284.716 220.189 284.969C219.566 285.222 218.82 285.349 217.95 285.349ZM218.618 282.885C219.466 282.885 220.192 282.717 220.794 282.382C221.404 282.046 221.866 281.608 222.18 281.068C222.502 280.52 222.663 279.935 222.663 279.312V277.279C222.553 277.388 222.341 277.491 222.026 277.587C221.718 277.676 221.366 277.755 220.969 277.823C220.572 277.885 220.185 277.943 219.809 277.998C219.432 278.046 219.117 278.087 218.864 278.121C218.269 278.196 217.724 278.323 217.232 278.501C216.746 278.679 216.355 278.935 216.061 279.271C215.774 279.599 215.63 280.037 215.63 280.585C215.63 281.345 215.91 281.92 216.472 282.31C217.033 282.693 217.748 282.885 218.618 282.885ZM237.72 285V263.972H240.79V271.786H240.975C241.153 271.457 241.41 271.077 241.745 270.646C242.08 270.215 242.546 269.838 243.141 269.517C243.737 269.188 244.524 269.024 245.503 269.024C246.776 269.024 247.912 269.346 248.912 269.989C249.911 270.632 250.695 271.56 251.263 272.772C251.838 273.983 252.125 275.441 252.125 277.145C252.125 278.85 251.841 280.311 251.273 281.53C250.705 282.741 249.925 283.676 248.932 284.333C247.94 284.983 246.807 285.308 245.534 285.308C244.575 285.308 243.792 285.147 243.182 284.825C242.58 284.504 242.108 284.127 241.766 283.696C241.423 283.265 241.16 282.881 240.975 282.546H240.718V285H237.72ZM240.728 277.115C240.728 278.224 240.889 279.195 241.211 280.031C241.533 280.866 241.998 281.519 242.607 281.992C243.217 282.457 243.963 282.69 244.846 282.69C245.763 282.69 246.53 282.447 247.146 281.961C247.762 281.468 248.227 280.801 248.542 279.959C248.864 279.117 249.025 278.169 249.025 277.115C249.025 276.074 248.867 275.14 248.552 274.312C248.244 273.483 247.779 272.83 247.156 272.351C246.54 271.871 245.77 271.632 244.846 271.632C243.956 271.632 243.203 271.861 242.587 272.32C241.978 272.778 241.516 273.418 241.201 274.24C240.886 275.061 240.728 276.019 240.728 277.115ZM265.563 278.46V269.229H268.643V285H265.624V282.269H265.46C265.097 283.111 264.516 283.812 263.715 284.374C262.921 284.928 261.932 285.205 260.747 285.205C259.734 285.205 258.838 284.983 258.057 284.538C257.284 284.086 256.675 283.419 256.23 282.536C255.792 281.653 255.573 280.561 255.573 279.261V269.229H258.643V278.891C258.643 279.966 258.94 280.821 259.536 281.458C260.131 282.094 260.905 282.413 261.856 282.413C262.431 282.413 263.003 282.269 263.571 281.981C264.146 281.694 264.622 281.259 264.998 280.677C265.381 280.096 265.57 279.356 265.563 278.46ZM272.768 285V269.229H275.838V285H272.768ZM274.318 266.796C273.784 266.796 273.326 266.618 272.943 266.262C272.566 265.899 272.378 265.468 272.378 264.968C272.378 264.462 272.566 264.031 272.943 263.675C273.326 263.312 273.784 263.13 274.318 263.13C274.852 263.13 275.307 263.312 275.684 263.675C276.067 264.031 276.259 264.462 276.259 264.968C276.259 265.468 276.067 265.899 275.684 266.262C275.307 266.618 274.852 266.796 274.318 266.796ZM283.038 263.972V285H279.968V263.972H283.038ZM293.072 285.308C291.799 285.308 290.662 284.983 289.663 284.333C288.67 283.676 287.89 282.741 287.322 281.53C286.761 280.311 286.48 278.85 286.48 277.145C286.48 275.441 286.764 273.983 287.332 272.772C287.907 271.56 288.694 270.632 289.694 269.989C290.693 269.346 291.826 269.024 293.092 269.024C294.071 269.024 294.858 269.188 295.454 269.517C296.056 269.838 296.522 270.215 296.85 270.646C297.186 271.077 297.446 271.457 297.631 271.786H297.815V263.972H300.885V285H297.887V282.546H297.631C297.446 282.881 297.179 283.265 296.83 283.696C296.487 284.127 296.015 284.504 295.413 284.825C294.81 285.147 294.03 285.308 293.072 285.308ZM293.749 282.69C294.632 282.69 295.379 282.457 295.988 281.992C296.604 281.519 297.069 280.866 297.384 280.031C297.706 279.195 297.867 278.224 297.867 277.115C297.867 276.019 297.709 275.061 297.394 274.24C297.079 273.418 296.617 272.778 296.008 272.32C295.399 271.861 294.646 271.632 293.749 271.632C292.825 271.632 292.055 271.871 291.439 272.351C290.823 272.83 290.358 273.483 290.043 274.312C289.735 275.14 289.581 276.074 289.581 277.115C289.581 278.169 289.738 279.117 290.053 279.959C290.368 280.801 290.833 281.468 291.45 281.961C292.072 282.447 292.839 282.69 293.749 282.69ZM305.267 285V269.229H308.337V285H305.267ZM306.817 266.796C306.283 266.796 305.825 266.618 305.441 266.262C305.065 265.899 304.877 265.468 304.877 264.968C304.877 264.462 305.065 264.031 305.441 263.675C305.825 263.312 306.283 263.13 306.817 263.13C307.351 263.13 307.806 263.312 308.183 263.675C308.566 264.031 308.758 264.462 308.758 264.968C308.758 265.468 308.566 265.899 308.183 266.262C307.806 266.618 307.351 266.796 306.817 266.796ZM315.537 275.636V285H312.467V269.229H315.414V271.796H315.609C315.972 270.961 316.54 270.29 317.313 269.784C318.093 269.277 319.076 269.024 320.26 269.024C321.335 269.024 322.276 269.25 323.083 269.702C323.891 270.146 324.517 270.81 324.962 271.693C325.407 272.576 325.63 273.668 325.63 274.969V285H322.56V275.338C322.56 274.195 322.262 273.302 321.667 272.659C321.071 272.008 320.253 271.683 319.213 271.683C318.501 271.683 317.868 271.837 317.313 272.145C316.766 272.453 316.331 272.905 316.009 273.5C315.694 274.089 315.537 274.801 315.537 275.636ZM336.359 291.243C335.107 291.243 334.029 291.078 333.125 290.75C332.228 290.421 331.496 289.987 330.928 289.446C330.36 288.905 329.935 288.313 329.655 287.67L332.293 286.581C332.478 286.882 332.725 287.201 333.033 287.536C333.347 287.878 333.772 288.169 334.306 288.409C334.846 288.648 335.541 288.768 336.39 288.768C337.554 288.768 338.515 288.484 339.275 287.916C340.035 287.355 340.415 286.458 340.415 285.226V282.125H340.22C340.035 282.461 339.768 282.834 339.419 283.244C339.077 283.655 338.604 284.011 338.002 284.312C337.4 284.613 336.616 284.764 335.651 284.764C334.405 284.764 333.282 284.473 332.283 283.891C331.291 283.302 330.503 282.437 329.922 281.293C329.347 280.144 329.059 278.73 329.059 277.053C329.059 275.376 329.343 273.939 329.911 272.741C330.486 271.543 331.273 270.626 332.273 269.989C333.272 269.346 334.405 269.024 335.671 269.024C336.65 269.024 337.441 269.188 338.043 269.517C338.645 269.838 339.114 270.215 339.45 270.646C339.792 271.077 340.055 271.457 340.24 271.786H340.466V269.229H343.475V285.349C343.475 286.704 343.16 287.817 342.53 288.686C341.9 289.555 341.048 290.199 339.973 290.616C338.906 291.034 337.701 291.243 336.359 291.243ZM336.328 282.218C337.211 282.218 337.958 282.012 338.567 281.601C339.183 281.184 339.648 280.588 339.963 279.815C340.285 279.035 340.446 278.1 340.446 277.012C340.446 275.951 340.288 275.017 339.973 274.209C339.658 273.401 339.196 272.772 338.587 272.32C337.978 271.861 337.225 271.632 336.328 271.632C335.404 271.632 334.634 271.871 334.018 272.351C333.402 272.823 332.937 273.466 332.622 274.281C332.314 275.095 332.16 276.006 332.16 277.012C332.16 278.046 332.317 278.952 332.632 279.733C332.947 280.513 333.412 281.122 334.029 281.56C334.651 281.998 335.418 282.218 336.328 282.218ZM358.663 285L354.022 269.229H357.194L360.285 280.811H360.439L363.54 269.229H366.712L369.792 280.76H369.946L373.016 269.229H376.189L371.558 285H368.427L365.223 273.613H364.987L361.784 285H358.663ZM387.111 262.987L380.335 288.162H377.593L384.37 262.987H387.111ZM397.617 285V263.972H405.112C406.748 263.972 408.104 264.27 409.178 264.866C410.253 265.461 411.057 266.276 411.591 267.309C412.125 268.336 412.392 269.493 412.392 270.78C412.392 272.073 412.122 273.237 411.581 274.271C411.047 275.297 410.239 276.112 409.158 276.714C408.083 277.31 406.731 277.607 405.102 277.607H399.948V274.917H404.815C405.848 274.917 406.687 274.739 407.33 274.383C407.974 274.021 408.446 273.528 408.747 272.905C409.048 272.282 409.199 271.574 409.199 270.78C409.199 269.986 409.048 269.281 408.747 268.665C408.446 268.048 407.97 267.566 407.32 267.217C406.676 266.868 405.828 266.693 404.774 266.693H400.79V285H397.617ZM422.31 285.318C420.832 285.318 419.542 284.979 418.439 284.302C417.337 283.624 416.482 282.676 415.873 281.458C415.263 280.239 414.959 278.816 414.959 277.186C414.959 275.551 415.263 274.12 415.873 272.895C416.482 271.669 417.337 270.718 418.439 270.04C419.542 269.363 420.832 269.024 422.31 269.024C423.789 269.024 425.079 269.363 426.181 270.04C427.283 270.718 428.139 271.669 428.748 272.895C429.357 274.12 429.662 275.551 429.662 277.186C429.662 278.816 429.357 280.239 428.748 281.458C428.139 282.676 427.283 283.624 426.181 284.302C425.079 284.979 423.789 285.318 422.31 285.318ZM422.321 282.741C423.279 282.741 424.073 282.488 424.703 281.981C425.332 281.475 425.798 280.801 426.099 279.959C426.407 279.117 426.561 278.189 426.561 277.176C426.561 276.17 426.407 275.246 426.099 274.404C425.798 273.555 425.332 272.874 424.703 272.361C424.073 271.847 423.279 271.591 422.321 271.591C421.355 271.591 420.555 271.847 419.918 272.361C419.288 272.874 418.819 273.555 418.511 274.404C418.21 275.246 418.06 276.17 418.06 277.176C418.06 278.189 418.21 279.117 418.511 279.959C418.819 280.801 419.288 281.475 419.918 281.981C420.555 282.488 421.355 282.741 422.321 282.741ZM440.45 269.229V271.693H431.836V269.229H440.45ZM434.146 265.451H437.216V280.369C437.216 280.965 437.305 281.413 437.483 281.714C437.661 282.009 437.89 282.211 438.171 282.32C438.458 282.423 438.77 282.474 439.105 282.474C439.352 282.474 439.567 282.457 439.752 282.423C439.937 282.389 440.081 282.361 440.183 282.341L440.738 284.877C440.56 284.945 440.307 285.014 439.978 285.082C439.649 285.157 439.239 285.199 438.746 285.205C437.938 285.219 437.185 285.075 436.487 284.774C435.789 284.473 435.224 284.007 434.793 283.378C434.362 282.748 434.146 281.957 434.146 281.006V265.451ZM447.255 275.636V285H444.185V263.972H447.214V271.796H447.409C447.779 270.947 448.343 270.273 449.103 269.773C449.863 269.274 450.855 269.024 452.081 269.024C453.162 269.024 454.107 269.246 454.914 269.691C455.729 270.136 456.359 270.8 456.804 271.683C457.255 272.559 457.481 273.655 457.481 274.969V285H454.411V275.338C454.411 274.182 454.114 273.285 453.518 272.648C452.923 272.005 452.094 271.683 451.033 271.683C450.308 271.683 449.658 271.837 449.083 272.145C448.514 272.453 448.066 272.905 447.738 273.5C447.416 274.089 447.255 274.801 447.255 275.636ZM468.221 285.318C466.743 285.318 465.452 284.979 464.35 284.302C463.248 283.624 462.393 282.676 461.783 281.458C461.174 280.239 460.87 278.816 460.87 277.186C460.87 275.551 461.174 274.12 461.783 272.895C462.393 271.669 463.248 270.718 464.35 270.04C465.452 269.363 466.743 269.024 468.221 269.024C469.7 269.024 470.99 269.363 472.092 270.04C473.194 270.718 474.05 271.669 474.659 272.895C475.268 274.12 475.573 275.551 475.573 277.186C475.573 278.816 475.268 280.239 474.659 281.458C474.05 282.676 473.194 283.624 472.092 284.302C470.99 284.979 469.7 285.318 468.221 285.318ZM468.231 282.741C469.19 282.741 469.984 282.488 470.613 281.981C471.243 281.475 471.709 280.801 472.01 279.959C472.318 279.117 472.472 278.189 472.472 277.176C472.472 276.17 472.318 275.246 472.01 274.404C471.709 273.555 471.243 272.874 470.613 272.361C469.984 271.847 469.19 271.591 468.231 271.591C467.266 271.591 466.465 271.847 465.829 272.361C465.199 272.874 464.73 273.555 464.422 274.404C464.121 275.246 463.97 276.17 463.97 277.176C463.97 278.189 464.121 279.117 464.422 279.959C464.73 280.801 465.199 281.475 465.829 281.981C466.465 282.488 467.266 282.741 468.231 282.741ZM490.817 273.08L488.035 273.572C487.918 273.216 487.733 272.878 487.48 272.556C487.234 272.234 486.898 271.971 486.474 271.765C486.05 271.56 485.519 271.457 484.882 271.457C484.013 271.457 483.288 271.652 482.706 272.043C482.124 272.426 481.833 272.922 481.833 273.531C481.833 274.058 482.028 274.483 482.418 274.804C482.808 275.126 483.438 275.39 484.308 275.595L486.813 276.17C488.264 276.505 489.345 277.022 490.057 277.72C490.769 278.419 491.125 279.326 491.125 280.441C491.125 281.386 490.851 282.228 490.304 282.967C489.763 283.699 489.007 284.274 488.035 284.692C487.069 285.11 485.95 285.318 484.677 285.318C482.911 285.318 481.47 284.942 480.355 284.189C479.239 283.429 478.554 282.351 478.301 280.955L481.268 280.503C481.453 281.276 481.833 281.862 482.408 282.259C482.983 282.649 483.733 282.844 484.657 282.844C485.663 282.844 486.467 282.635 487.069 282.218C487.672 281.793 487.973 281.276 487.973 280.667C487.973 280.174 487.788 279.76 487.419 279.425C487.056 279.089 486.498 278.836 485.745 278.665L483.075 278.08C481.604 277.744 480.515 277.21 479.81 276.478C479.112 275.746 478.763 274.818 478.763 273.696C478.763 272.765 479.023 271.95 479.543 271.252C480.064 270.554 480.782 270.01 481.7 269.619C482.617 269.222 483.668 269.024 484.852 269.024C486.556 269.024 487.898 269.394 488.877 270.133C489.855 270.865 490.502 271.847 490.817 273.08Z"></path>
<rect fill="url(#paint0_linear_7076_3051)" transform="matrix(-1 0 0 1 806.788 -48.9558)" height="262.622" width="327.222"></rect>
<path fill="url(#paint1_linear_7076_3051)" d="M874.555 -65L1269.54 163L874.555 391L479.566 163L677.06 49L874.555 -65Z"></path>
<circle stroke-width="11.9991" stroke="#CBD5E0" fill="#727DDE" transform="matrix(-1 0 0 1 682.654 130.889)" r="10.8893"></circle>
<path stroke-width="11.9991" stroke="#CBD5E0" d="M683 144L683 277.982C683 341.505 734.495 393 798.018 393V393L876 393"></path>
<rect fill="url(#paint2_linear_7076_3051)" height="80" width="74" y="174" x="774"></rect>
<ellipse fill="url(#paint3_linear_7076_3051)" ry="45.9136" rx="45.5" cy="258.914" cx="819.5"></ellipse>
<path stroke-width="8.03858" stroke="white" d="M796.336 259.745L810.814 275.05L833.15 242.786"></path>
<circle stroke-width="11.7383" stroke="#5A67D8" fill="#77D99C" transform="matrix(-1 0 0 1 530.522 131.522)" r="10.6526"></circle>
<circle stroke-width="11.7383" stroke="#5A67D8" fill="#77D99C" transform="matrix(-1 0 0 1 704.522 341.522)" r="10.6526"></circle>
<path stroke-width="1.65217" stroke="#68D391" d="M139.5 81.4823H384.022C389.725 81.4823 394.348 86.1055 394.348 91.8084V130.635C394.348 136.337 389.725 140.961 384.022 140.961H139.5V81.4823Z"></path>
<path fill="white" d="M169.391 121.347C168.14 121.347 167.028 121.104 166.056 120.618C165.1 120.114 164.353 119.41 163.815 118.507C163.293 117.586 163.033 116.535 163.033 115.354V108.605C163.033 107.424 163.293 106.39 163.815 105.504C164.353 104.601 165.1 103.906 166.056 103.419C167.028 102.915 168.14 102.664 169.391 102.664C170.642 102.664 171.745 102.907 172.7 103.393C173.656 103.862 174.394 104.531 174.915 105.4C175.454 106.268 175.723 107.276 175.723 108.422V108.449C175.723 108.535 175.697 108.605 175.645 108.657C175.593 108.709 175.532 108.735 175.463 108.735L173.482 108.839C173.309 108.839 173.222 108.761 173.222 108.605V108.527C173.222 107.415 172.874 106.52 172.179 105.843C171.484 105.165 170.555 104.826 169.391 104.826C168.227 104.826 167.289 105.165 166.577 105.843C165.882 106.52 165.534 107.415 165.534 108.527V115.458C165.534 116.57 165.882 117.465 166.577 118.142C167.289 118.82 168.227 119.158 169.391 119.158C170.555 119.158 171.484 118.82 172.179 118.142C172.874 117.465 173.222 116.57 173.222 115.458V115.406C173.222 115.25 173.309 115.172 173.482 115.172L175.463 115.276C175.636 115.276 175.723 115.363 175.723 115.536C175.723 116.683 175.454 117.699 174.915 118.585C174.394 119.454 173.656 120.131 172.7 120.618C171.745 121.104 170.642 121.347 169.391 121.347ZM185.298 121.347C184.029 121.347 182.909 121.087 181.936 120.566C180.963 120.044 180.208 119.315 179.669 118.377C179.13 117.421 178.861 116.327 178.861 115.093V108.892C178.861 107.658 179.13 106.572 179.669 105.634C180.208 104.696 180.963 103.967 181.936 103.445C182.909 102.924 184.029 102.664 185.298 102.664C186.583 102.664 187.712 102.924 188.685 103.445C189.658 103.967 190.414 104.696 190.952 105.634C191.491 106.572 191.76 107.658 191.76 108.892V115.093C191.76 116.327 191.491 117.421 190.952 118.377C190.414 119.315 189.658 120.044 188.685 120.566C187.712 121.087 186.583 121.347 185.298 121.347ZM185.298 119.184C186.479 119.184 187.434 118.82 188.164 118.09C188.894 117.36 189.258 116.396 189.258 115.198V108.865C189.258 107.649 188.894 106.677 188.164 105.947C187.434 105.2 186.479 104.826 185.298 104.826C184.116 104.826 183.161 105.2 182.431 105.947C181.719 106.677 181.363 107.649 181.363 108.865V115.198C181.363 116.396 181.719 117.36 182.431 118.09C183.161 118.82 184.116 119.184 185.298 119.184ZM201.794 121.321C200.526 121.321 199.406 121.078 198.433 120.592C197.477 120.088 196.73 119.384 196.192 118.481C195.653 117.56 195.384 116.509 195.384 115.328V103.133C195.384 102.959 195.471 102.872 195.645 102.872H197.625C197.799 102.872 197.886 102.959 197.886 103.133V115.38C197.886 116.509 198.242 117.421 198.954 118.116C199.684 118.811 200.63 119.158 201.794 119.158C202.958 119.158 203.896 118.811 204.609 118.116C205.321 117.421 205.677 116.509 205.677 115.38V103.133C205.677 102.959 205.764 102.872 205.937 102.872H207.918C208.092 102.872 208.179 102.959 208.179 103.133V115.328C208.179 116.509 207.909 117.56 207.371 118.481C206.85 119.384 206.103 120.088 205.13 120.592C204.174 121.078 203.062 121.321 201.794 121.321ZM222.657 121.113C222.518 121.113 222.423 121.052 222.37 120.93L218.722 113.139C218.705 113.087 218.67 113.061 218.618 113.061H214.866C214.796 113.061 214.761 113.096 214.761 113.165V120.852C214.761 121.026 214.675 121.113 214.501 121.113H212.52C212.347 121.113 212.26 121.026 212.26 120.852V103.133C212.26 102.959 212.347 102.872 212.52 102.872H219.53C220.572 102.872 221.484 103.089 222.266 103.524C223.065 103.958 223.682 104.566 224.116 105.348C224.551 106.129 224.768 107.033 224.768 108.058C224.768 109.274 224.446 110.307 223.804 111.159C223.178 111.992 222.301 112.557 221.172 112.852C221.102 112.887 221.085 112.931 221.12 112.983L224.898 120.8C224.915 120.835 224.924 120.878 224.924 120.93C224.924 121.052 224.855 121.113 224.716 121.113H222.657ZM214.866 105.035C214.796 105.035 214.761 105.07 214.761 105.139V110.976C214.761 111.046 214.796 111.08 214.866 111.08H219.217C220.138 111.08 220.876 110.811 221.432 110.273C221.988 109.717 222.266 108.987 222.266 108.084C222.266 107.163 221.988 106.425 221.432 105.869C220.876 105.313 220.138 105.035 219.217 105.035H214.866ZM233.869 121.321C232.532 121.321 231.368 121.113 230.378 120.696C229.405 120.279 228.649 119.688 228.111 118.924C227.589 118.16 227.329 117.265 227.329 116.24V115.484C227.329 115.311 227.416 115.224 227.589 115.224H229.492C229.665 115.224 229.752 115.311 229.752 115.484V116.11C229.752 116.996 230.134 117.725 230.899 118.299C231.663 118.872 232.714 119.158 234.052 119.158C235.251 119.158 236.154 118.907 236.762 118.403C237.37 117.899 237.674 117.239 237.674 116.422C237.674 115.884 237.518 115.423 237.205 115.041C236.892 114.659 236.432 114.312 235.824 113.999C235.233 113.669 234.365 113.278 233.218 112.826C231.95 112.34 230.942 111.897 230.195 111.497C229.466 111.098 228.858 110.577 228.371 109.934C227.885 109.274 227.642 108.449 227.642 107.458C227.642 105.964 228.171 104.792 229.231 103.94C230.308 103.089 231.759 102.664 233.583 102.664C234.868 102.664 235.998 102.881 236.97 103.315C237.943 103.749 238.69 104.357 239.211 105.139C239.75 105.921 240.019 106.824 240.019 107.849V108.37C240.019 108.544 239.932 108.631 239.759 108.631H237.804C237.63 108.631 237.544 108.544 237.544 108.37V107.979C237.544 107.076 237.179 106.329 236.449 105.738C235.737 105.13 234.747 104.826 233.479 104.826C232.401 104.826 231.568 105.052 230.977 105.504C230.386 105.938 230.091 106.572 230.091 107.406C230.091 107.979 230.239 108.449 230.534 108.813C230.829 109.178 231.264 109.508 231.837 109.804C232.428 110.081 233.322 110.446 234.521 110.898C235.754 111.384 236.753 111.836 237.518 112.253C238.282 112.653 238.916 113.191 239.42 113.869C239.924 114.529 240.176 115.354 240.176 116.344C240.176 117.873 239.611 119.089 238.482 119.992C237.37 120.878 235.832 121.321 233.869 121.321ZM255.677 104.774C255.677 104.948 255.59 105.035 255.417 105.035H246.166C246.097 105.035 246.062 105.07 246.062 105.139V110.742C246.062 110.811 246.097 110.846 246.166 110.846H252.524C252.698 110.846 252.785 110.933 252.785 111.106V112.748C252.785 112.922 252.698 113.009 252.524 113.009H246.166C246.097 113.009 246.062 113.043 246.062 113.113V118.846C246.062 118.915 246.097 118.95 246.166 118.95H255.417C255.59 118.95 255.677 119.037 255.677 119.211V120.852C255.677 121.026 255.59 121.113 255.417 121.113H243.821C243.647 121.113 243.56 121.026 243.56 120.852V103.133C243.56 102.959 243.647 102.872 243.821 102.872H255.417C255.59 102.872 255.677 102.959 255.677 103.133V104.774ZM276.707 102.846C277.767 102.846 278.697 103.072 279.496 103.524C280.312 103.958 280.938 104.575 281.372 105.374C281.824 106.173 282.049 107.093 282.049 108.136C282.049 109.178 281.824 110.09 281.372 110.872C280.92 111.654 280.277 112.262 279.444 112.696C278.627 113.13 277.68 113.347 276.603 113.347H272.017C271.947 113.347 271.913 113.382 271.913 113.452V120.852C271.913 121.026 271.826 121.113 271.652 121.113H269.672C269.498 121.113 269.411 121.026 269.411 120.852V103.107C269.411 102.933 269.498 102.846 269.672 102.846H276.707ZM276.369 111.315C277.324 111.315 278.089 111.028 278.662 110.455C279.252 109.882 279.548 109.126 279.548 108.188C279.548 107.232 279.252 106.468 278.662 105.895C278.089 105.304 277.324 105.009 276.369 105.009H272.017C271.947 105.009 271.913 105.044 271.913 105.113V111.211C271.913 111.28 271.947 111.315 272.017 111.315H276.369ZM295.173 121.113C295.016 121.113 294.912 121.043 294.86 120.904L293.922 117.856C293.905 117.803 293.87 117.777 293.818 117.777H286.495C286.443 117.777 286.408 117.803 286.391 117.856L285.453 120.904C285.401 121.043 285.297 121.113 285.14 121.113H283.03C282.839 121.113 282.769 121.017 282.821 120.826L288.528 103.081C288.58 102.942 288.684 102.872 288.841 102.872H291.446C291.603 102.872 291.707 102.942 291.759 103.081L297.518 120.826L297.544 120.93C297.544 121.052 297.466 121.113 297.309 121.113H295.173ZM287.043 115.667C287.025 115.701 287.025 115.736 287.043 115.771C287.077 115.788 287.112 115.797 287.147 115.797H293.14C293.175 115.797 293.201 115.788 293.218 115.771C293.253 115.736 293.262 115.701 293.244 115.667L290.222 105.999C290.204 105.964 290.178 105.947 290.143 105.947C290.109 105.947 290.083 105.964 290.065 105.999L287.043 115.667ZM310.909 121.113C310.77 121.113 310.674 121.052 310.622 120.93L306.974 113.139C306.957 113.087 306.922 113.061 306.87 113.061H303.117C303.048 113.061 303.013 113.096 303.013 113.165V120.852C303.013 121.026 302.926 121.113 302.753 121.113H300.772C300.598 121.113 300.512 121.026 300.512 120.852V103.133C300.512 102.959 300.598 102.872 300.772 102.872H307.782C308.824 102.872 309.736 103.089 310.518 103.524C311.317 103.958 311.934 104.566 312.368 105.348C312.802 106.129 313.02 107.033 313.02 108.058C313.02 109.274 312.698 110.307 312.055 111.159C311.43 111.992 310.553 112.557 309.424 112.852C309.354 112.887 309.337 112.931 309.371 112.983L313.15 120.8C313.167 120.835 313.176 120.878 313.176 120.93C313.176 121.052 313.106 121.113 312.967 121.113H310.909ZM303.117 105.035C303.048 105.035 303.013 105.07 303.013 105.139V110.976C303.013 111.046 303.048 111.08 303.117 111.08H307.469C308.39 111.08 309.128 110.811 309.684 110.273C310.24 109.717 310.518 108.987 310.518 108.084C310.518 107.163 310.24 106.425 309.684 105.869C309.128 105.313 308.39 105.035 307.469 105.035H303.117ZM328.063 102.872C328.237 102.872 328.324 102.959 328.324 103.133V104.8C328.324 104.974 328.237 105.061 328.063 105.061H323.06C322.99 105.061 322.956 105.096 322.956 105.165V120.852C322.956 121.026 322.869 121.113 322.695 121.113H320.715C320.541 121.113 320.454 121.026 320.454 120.852V105.165C320.454 105.096 320.419 105.061 320.35 105.061H315.581C315.407 105.061 315.321 104.974 315.321 104.8V103.133C315.321 102.959 315.407 102.872 315.581 102.872H328.063ZM346.158 112.461C346.506 113.313 346.679 114.294 346.679 115.406C346.679 116.327 346.54 117.178 346.262 117.96C345.88 119.037 345.246 119.871 344.36 120.461C343.474 121.035 342.406 121.321 341.155 121.321C339.904 121.321 338.818 121 337.898 120.357C336.994 119.714 336.36 118.846 335.996 117.751C335.804 117.265 335.692 116.57 335.657 115.667C335.657 115.493 335.744 115.406 335.917 115.406H337.924C338.098 115.406 338.184 115.493 338.184 115.667C338.219 116.292 338.289 116.752 338.393 117.048C338.567 117.69 338.888 118.203 339.357 118.585C339.843 118.967 340.443 119.158 341.155 119.158C342.475 119.158 343.361 118.559 343.813 117.36C344.039 116.839 344.152 116.162 344.152 115.328C344.152 114.442 344.013 113.651 343.735 112.957C343.248 111.88 342.38 111.341 341.129 111.341C340.834 111.341 340.46 111.471 340.008 111.732C339.939 111.767 339.887 111.784 339.852 111.784C339.765 111.784 339.696 111.741 339.644 111.654L338.653 110.299C338.619 110.229 338.601 110.168 338.601 110.116C338.601 110.064 338.627 110.003 338.68 109.934L343.135 105.165C343.188 105.078 343.17 105.035 343.083 105.035H336.152C335.978 105.035 335.891 104.948 335.891 104.774V103.133C335.891 102.959 335.978 102.872 336.152 102.872H346.262C346.436 102.872 346.523 102.959 346.523 103.133V105.009C346.523 105.096 346.48 105.2 346.393 105.322L342.432 109.647C342.397 109.682 342.388 109.717 342.406 109.751C342.423 109.769 342.458 109.786 342.51 109.804C343.396 109.89 344.143 110.168 344.751 110.637C345.359 111.089 345.828 111.697 346.158 112.461ZM349.14 121.113C348.949 121.113 348.879 121.017 348.931 120.826L355.055 103.081C355.107 102.942 355.211 102.872 355.368 102.872H357.322C357.513 102.872 357.582 102.968 357.53 103.159L351.407 120.904C351.355 121.043 351.25 121.113 351.094 121.113H349.14ZM372.404 113.973C372.578 113.973 372.664 114.06 372.664 114.233V115.953C372.664 116.127 372.578 116.214 372.404 116.214H371.283C371.214 116.214 371.179 116.249 371.179 116.318V120.852C371.179 121.026 371.092 121.113 370.919 121.113H368.938C368.764 121.113 368.678 121.026 368.678 120.852V116.318C368.678 116.249 368.643 116.214 368.573 116.214H360.652C360.478 116.214 360.391 116.127 360.391 115.953V114.546C360.391 114.459 360.417 114.355 360.469 114.233L365.603 103.054C365.655 102.933 365.75 102.872 365.889 102.872H367.974C368.061 102.872 368.122 102.907 368.156 102.976C368.209 103.028 368.217 103.098 368.182 103.185L363.284 113.843C363.266 113.877 363.266 113.912 363.284 113.947C363.301 113.964 363.327 113.973 363.362 113.973H368.573C368.643 113.973 368.678 113.938 368.678 113.869V109.986C368.678 109.812 368.764 109.725 368.938 109.725H370.919C371.092 109.725 371.179 109.812 371.179 109.986V113.869C371.179 113.938 371.214 113.973 371.283 113.973H372.404Z"></path>
<path fill="#77D99C" d="M81.6738 91.8084C81.6738 85.6492 86.6668 80.6562 92.826 80.6562H142.804V141.787H92.826C86.6668 141.787 81.6738 136.794 81.6738 130.635V91.8084Z"></path>
<path fill="#434299" d="M97.0134 116.488C96.6263 117.118 96.6323 117.913 97.0289 118.537L104.206 129.838C104.671 130.571 105.569 130.905 106.403 130.656L127.113 124.454C128.243 124.116 128.812 122.857 128.318 121.788L115.004 92.9603C114.355 91.5544 112.398 91.439 111.587 92.7588L97.0134 116.488ZM114.65 99.5505C114.367 98.8969 113.409 98.9976 113.269 99.6956L108.143 125.17C108.035 125.708 108.539 126.166 109.065 126.01L123.374 121.746C123.792 121.622 124.007 121.161 123.834 120.762L114.65 99.5505Z" clip-rule="evenodd" fill-rule="evenodd"></path>
<path fill="white" d="M249.756 377.898C249.391 378.493 249.396 379.244 249.771 379.833L256.547 390.502C256.987 391.195 257.834 391.511 258.621 391.275L278.175 385.42C279.242 385.1 279.779 383.912 279.313 382.902L266.742 355.684C266.129 354.357 264.281 354.248 263.516 355.494L249.756 377.898ZM266.408 361.907C266.141 361.289 265.237 361.385 265.104 362.044L260.264 386.096C260.162 386.603 260.638 387.036 261.135 386.888L274.645 382.863C275.039 382.745 275.242 382.31 275.079 381.933L266.408 361.907Z" clip-rule="evenodd" fill-rule="evenodd"></path>
<path fill="white" d="M291.197 372.93H292.388C293.501 372.93 294.334 372.71 294.887 372.271C295.439 371.832 295.716 371.193 295.716 370.354C295.716 369.508 295.484 368.882 295.021 368.478C294.558 368.074 293.832 367.872 292.843 367.872H291.197V372.93ZM299.371 370.22C299.371 372.053 298.797 373.455 297.648 374.426C296.501 375.398 294.868 375.883 292.751 375.883H291.198V381.943H287.579V364.906H293.031C295.102 364.906 296.676 365.351 297.754 366.24C298.832 367.13 299.371 368.456 299.371 370.22Z" clip-rule="evenodd" fill-rule="evenodd"></path>
<path fill="white" d="M308.968 368.666C309.451 368.666 309.851 368.701 310.17 368.771L309.902 372.103C309.614 372.026 309.264 371.987 308.851 371.987C307.715 371.987 306.83 372.278 306.195 372.861C305.561 373.444 305.244 374.26 305.244 375.308V381.939H301.683V368.911H304.38L304.905 371.101H305.08C305.485 370.371 306.031 369.783 306.721 369.336C307.409 368.889 308.158 368.666 308.968 368.666" clip-rule="evenodd" fill-rule="evenodd"></path>
<path fill="white" d="M312.046 381.937H315.607V368.909H312.046V381.937ZM311.897 365.544C311.897 364.387 312.543 363.808 313.835 363.808C315.127 363.808 315.773 364.387 315.773 365.544C315.773 366.096 315.612 366.525 315.289 366.832C314.966 367.139 314.481 367.292 313.835 367.292C312.543 367.292 311.897 366.71 311.897 365.544Z" clip-rule="evenodd" fill-rule="evenodd"></path>
<path fill="white" d="M328.159 378.07C328.159 379.406 327.694 380.424 326.763 381.123C325.833 381.822 324.442 382.172 322.59 382.172C321.64 382.172 320.831 382.108 320.162 381.979C319.492 381.851 318.866 381.663 318.282 381.414V378.478C318.943 378.789 319.688 379.049 320.518 379.259C321.346 379.468 322.076 379.573 322.706 379.573C323.998 379.573 324.645 379.2 324.645 378.455C324.645 378.175 324.559 377.948 324.388 377.773C324.217 377.598 323.921 377.4 323.5 377.178C323.08 376.957 322.52 376.699 321.819 376.403C320.815 375.984 320.078 375.596 319.607 375.238C319.136 374.881 318.793 374.471 318.58 374.008C318.366 373.546 318.258 372.977 318.258 372.301C318.258 371.144 318.708 370.249 319.607 369.615C320.506 368.982 321.78 368.666 323.43 368.666C325.003 368.666 326.532 369.008 328.019 369.691L326.945 372.255C326.291 371.975 325.68 371.746 325.111 371.567C324.543 371.389 323.963 371.299 323.372 371.299C322.321 371.299 321.796 371.583 321.796 372.15C321.796 372.469 321.966 372.744 322.304 372.977C322.643 373.21 323.384 373.556 324.528 374.015C325.548 374.427 326.295 374.811 326.77 375.168C327.244 375.526 327.594 375.937 327.82 376.403C328.046 376.87 328.159 377.425 328.159 378.07" clip-rule="evenodd" fill-rule="evenodd"></path>
<path fill="white" d="M342.26 381.939H338.699V374.329C338.699 373.39 338.541 372.684 338.226 372.214C337.911 371.745 337.415 371.509 336.737 371.509C335.827 371.509 335.166 371.843 334.753 372.512C334.34 373.18 334.134 374.279 334.134 375.81V381.939H330.573V368.911H333.294L333.772 370.577H333.971C334.321 369.979 334.827 369.511 335.488 369.173C336.15 368.835 336.909 368.666 337.765 368.666C339.719 368.666 341.042 369.303 341.735 370.577H342.05C342.4 369.971 342.916 369.501 343.597 369.167C344.278 368.833 345.046 368.666 345.902 368.666C347.381 368.666 348.5 369.045 349.259 369.802C350.018 370.559 350.397 371.773 350.397 373.444V381.939H346.825V374.329C346.825 373.39 346.667 372.684 346.352 372.214C346.036 371.745 345.54 371.509 344.863 371.509C343.992 371.509 343.34 371.82 342.907 372.442C342.476 373.063 342.26 374.05 342.26 375.401V381.939Z" clip-rule="evenodd" fill-rule="evenodd"></path>
<path fill="white" d="M360.761 375.9L359.383 375.946C358.348 375.978 357.577 376.164 357.071 376.506C356.565 376.848 356.312 377.368 356.312 378.068C356.312 379.07 356.888 379.571 358.04 379.571C358.865 379.571 359.525 379.334 360.019 378.86C360.513 378.386 360.761 377.757 360.761 376.972V375.9ZM361.81 381.936L361.121 380.164H361.027C360.428 380.918 359.811 381.44 359.177 381.732C358.543 382.023 357.716 382.169 356.696 382.169C355.443 382.169 354.456 381.812 353.736 381.097C353.016 380.382 352.657 379.364 352.657 378.044C352.657 376.661 353.141 375.641 354.11 374.985C355.079 374.328 356.54 373.965 358.494 373.895L360.759 373.825V373.254C360.759 371.933 360.081 371.273 358.727 371.273C357.684 371.273 356.458 371.587 355.05 372.217L353.871 369.816C355.373 369.032 357.039 368.639 358.867 368.639C360.619 368.639 361.961 369.02 362.895 369.781C363.829 370.543 364.296 371.7 364.296 373.254V381.936H361.81Z" clip-rule="evenodd" fill-rule="evenodd"></path>
<path fill="white" d="M132.495 367.846C131.865 367.846 131.291 367.93 130.772 368.097C130.269 368.251 129.828 368.51 129.449 368.874C129.084 369.224 128.79 369.678 128.566 370.238C128.356 370.797 128.237 371.464 128.209 372.24C128.165 373.498 128.165 374.756 128.209 376.015C128.237 376.797 128.356 377.465 128.566 378.017C128.79 378.575 129.084 379.037 129.449 379.401C129.826 379.751 130.267 380.01 130.772 380.178C131.291 380.332 131.865 380.409 132.495 380.409C133.113 380.409 133.687 380.326 134.217 380.158C134.747 379.976 135.202 379.712 135.583 379.365C135.976 379.001 136.285 378.54 136.51 377.98C136.734 377.421 136.846 376.764 136.846 376.009V374.94H133.186C132.878 374.94 132.723 374.783 132.723 374.469V374.174C132.723 373.86 132.878 373.703 133.186 373.703H137.68C137.995 373.703 138.152 373.86 138.152 374.174V376.019C138.152 376.859 138.027 377.629 137.775 378.327C137.523 379.013 137.152 379.608 136.661 380.113C136.185 380.615 135.589 381.006 134.873 381.287C134.165 381.552 133.367 381.685 132.478 381.685C131.567 381.685 130.769 381.552 130.083 381.287C129.397 381.007 128.815 380.622 128.34 380.133C127.877 379.643 127.52 379.063 127.268 378.392C127.03 377.707 126.897 376.952 126.87 376.127C126.841 375.499 126.827 374.834 126.827 374.134C126.827 373.428 126.841 372.764 126.87 372.142C126.898 371.318 127.038 370.569 127.29 369.897C127.541 369.212 127.898 368.625 128.361 368.136C128.837 367.647 129.418 367.269 130.104 367.003C130.791 366.724 131.582 366.584 132.478 366.584C133.445 366.584 134.272 366.731 134.958 367.024C135.644 367.318 136.205 367.671 136.639 368.084C137.073 368.49 137.395 368.917 137.606 369.364C137.816 369.811 137.928 370.182 137.942 370.476C137.957 370.601 137.921 370.706 137.836 370.79C137.752 370.861 137.64 370.896 137.5 370.896H137.038C136.912 370.896 136.82 370.869 136.764 370.814C136.709 370.743 136.653 370.631 136.596 370.478C136.485 370.164 136.327 369.85 136.124 369.536C135.928 369.222 135.663 368.942 135.329 368.698C134.994 368.446 134.594 368.243 134.132 368.089C133.669 367.935 133.123 367.858 132.492 367.858L132.495 367.846ZM142.413 372.018C142.917 371.053 143.869 370.57 145.271 370.57H146.049C146.358 370.57 146.512 370.724 146.512 371.031V371.326C146.512 371.634 146.358 371.787 146.049 371.787H145.146C144.304 371.787 143.639 372.032 143.15 372.521C142.66 373.01 142.415 373.674 142.415 374.513V381.013C142.415 381.153 142.365 381.265 142.267 381.349C142.183 381.433 142.071 381.475 141.931 381.475H141.595C141.286 381.475 141.132 381.321 141.132 381.013V371.051C141.132 370.912 141.174 370.8 141.259 370.716C141.343 370.618 141.455 370.569 141.595 370.569H141.931C142.071 370.569 142.183 370.618 142.267 370.716C142.365 370.8 142.415 370.912 142.415 371.051V372.017L142.413 372.018ZM155.39 381.481C155.082 381.481 154.928 381.327 154.928 381.019V380.034C154.802 380.23 154.634 380.426 154.424 380.622C154.227 380.819 153.982 380.993 153.689 381.146C153.395 381.3 153.041 381.426 152.627 381.523C152.221 381.635 151.745 381.69 151.2 381.69C150.697 381.69 150.213 381.613 149.749 381.46C149.301 381.292 148.901 381.069 148.551 380.788C148.216 380.509 147.943 380.18 147.733 379.803C147.536 379.426 147.438 379.014 147.438 378.566C147.438 378.091 147.536 377.665 147.733 377.286C147.943 376.91 148.23 376.581 148.594 376.301C148.958 376.007 149.392 375.77 149.896 375.588C150.415 375.392 150.983 375.252 151.599 375.169L154.918 374.708V373.974C154.918 373.219 154.687 372.632 154.225 372.212C153.776 371.793 153.055 371.584 152.061 371.584C151.277 371.584 150.667 371.738 150.233 372.045C149.813 372.339 149.548 372.661 149.437 373.011C149.382 373.178 149.312 373.297 149.227 373.368C149.157 373.423 149.058 373.45 148.933 373.45H148.638C148.512 373.45 148.4 373.408 148.301 373.324C148.217 373.226 148.175 373.114 148.175 372.988C148.175 372.792 148.245 372.548 148.385 372.255C148.525 371.961 148.749 371.675 149.058 371.395C149.372 371.116 149.778 370.878 150.276 370.683C150.766 370.473 151.362 370.368 152.065 370.368C152.89 370.368 153.57 370.48 154.103 370.704C154.649 370.928 155.076 371.221 155.385 371.585C155.694 371.934 155.904 372.326 156.015 372.759C156.141 373.192 156.204 373.619 156.204 374.039V381.022C156.204 381.329 156.05 381.483 155.742 381.483H155.384L155.39 381.481ZM151.419 380.474C151.895 380.474 152.343 380.397 152.764 380.243C153.198 380.076 153.577 379.831 153.899 379.51C154.214 379.196 154.465 378.79 154.654 378.293C154.837 377.804 154.928 377.231 154.928 376.574V375.862L152.218 376.238C149.893 376.552 148.731 377.294 148.731 378.462C148.731 378.811 148.808 379.112 148.962 379.364C149.13 379.615 149.339 379.824 149.592 379.992C149.844 380.16 150.131 380.285 150.453 380.369C150.768 380.44 151.09 380.475 151.42 380.475L151.419 380.474ZM164.344 381.69C163.462 381.69 162.741 381.533 162.181 381.219C161.621 380.905 161.165 380.514 160.814 380.045V385.015C160.814 385.322 160.66 385.476 160.352 385.476H159.995C159.686 385.476 159.532 385.322 159.532 385.015V371.031C159.532 370.724 159.686 370.57 159.995 370.57H160.352C160.66 370.57 160.814 370.724 160.814 371.031V372.017C161.164 371.542 161.62 371.151 162.181 370.843C162.741 370.529 163.462 370.372 164.344 370.372C165.157 370.372 165.843 370.519 166.403 370.812C166.977 371.092 167.439 371.469 167.79 371.945C168.14 372.407 168.392 372.938 168.545 373.54C168.713 374.127 168.811 374.728 168.84 375.344C168.854 375.553 168.861 375.784 168.861 376.036C168.861 376.287 168.854 376.518 168.84 376.728C168.812 377.345 168.713 377.954 168.545 378.553C168.391 379.141 168.139 379.672 167.79 380.148C167.44 380.609 166.978 380.987 166.403 381.281C165.843 381.56 165.157 381.7 164.344 381.7V381.69ZM160.814 375.273C160.8 375.482 160.793 375.755 160.793 376.09C160.793 376.425 160.8 376.698 160.814 376.907C160.829 377.326 160.899 377.753 161.024 378.187C161.164 378.606 161.374 378.984 161.654 379.32C161.934 379.655 162.288 379.935 162.716 380.158C163.136 380.368 163.64 380.473 164.229 380.473C164.847 380.473 165.358 380.368 165.762 380.158C166.182 379.949 166.518 379.669 166.771 379.32C167.037 378.957 167.225 378.544 167.337 378.084C167.463 377.609 167.54 377.119 167.568 376.615C167.582 376.223 167.582 375.831 167.568 375.441C167.54 374.939 167.463 374.456 167.337 373.993C167.225 373.531 167.037 373.126 166.771 372.777C166.519 372.413 166.183 372.127 165.762 371.917C165.356 371.693 164.844 371.581 164.229 371.581C163.626 371.581 163.115 371.693 162.695 371.917C162.275 372.141 161.921 372.434 161.633 372.798C161.367 373.147 161.164 373.538 161.023 373.972C160.897 374.405 160.827 374.838 160.813 375.272L160.814 375.273ZM173.004 372.018C173.382 371.529 173.837 371.131 174.37 370.823C174.901 370.515 175.622 370.361 176.534 370.361C177.248 370.361 177.871 370.48 178.404 370.718C178.934 370.956 179.375 371.285 179.727 371.704C180.092 372.123 180.365 372.62 180.546 373.193C180.729 373.766 180.82 374.389 180.82 375.06V381.016C180.82 381.323 180.666 381.477 180.357 381.477H180.004C179.695 381.477 179.541 381.323 179.541 381.016V375.163C179.541 374.045 179.268 373.171 178.722 372.542C178.177 371.898 177.378 371.577 176.328 371.577C175.319 371.577 174.514 371.891 173.912 372.519C173.309 373.147 173.008 374.029 173.008 375.165V381.017C173.008 381.325 172.854 381.478 172.545 381.478H172.188C171.88 381.478 171.726 381.325 171.726 381.017V367.045C171.726 366.738 171.88 366.584 172.188 366.584H172.545C172.854 366.584 173.008 366.738 173.008 367.045V372.015L173.004 372.018ZM189.39 366.587C190.203 366.587 190.945 366.706 191.618 366.944C192.29 367.182 192.864 367.546 193.34 368.035C193.83 368.51 194.208 369.111 194.475 369.839C194.755 370.551 194.909 371.397 194.937 372.376C194.966 373.004 194.98 373.591 194.98 374.138C194.98 374.683 194.966 375.27 194.937 375.899C194.867 377.899 194.355 379.367 193.404 380.303L194.749 382.191C194.763 382.219 194.777 382.247 194.791 382.273C194.805 382.302 194.812 382.351 194.812 382.42C194.812 382.532 194.77 382.63 194.686 382.715C194.602 382.799 194.504 382.841 194.391 382.841H193.929C193.775 382.841 193.642 382.778 193.53 382.652C193.418 382.541 193.327 382.443 193.256 382.358L192.329 381.078C191.488 381.484 190.507 381.687 189.387 381.687C187.636 381.687 186.285 381.219 185.332 380.282C184.394 379.346 183.897 377.885 183.84 375.899C183.812 375.271 183.797 374.684 183.797 374.138C183.797 373.593 183.812 373.006 183.84 372.376C183.868 371.397 184.015 370.551 184.281 369.839C184.561 369.112 184.939 368.51 185.416 368.035C185.906 367.546 186.48 367.182 187.138 366.944C187.811 366.706 188.56 366.587 189.387 366.587H189.39ZM189.39 367.847C188.802 367.847 188.256 367.938 187.751 368.121C187.247 368.288 186.806 368.56 186.427 368.938C186.05 369.315 185.748 369.797 185.523 370.386C185.313 370.973 185.194 371.672 185.166 372.482C185.152 372.796 185.138 373.09 185.123 373.363C185.123 373.628 185.123 373.887 185.123 374.14C185.123 374.391 185.123 374.656 185.123 374.934C185.138 375.199 185.152 375.486 185.166 375.793C185.194 376.618 185.313 377.324 185.523 377.913C185.748 378.486 186.042 378.961 186.406 379.338C186.783 379.715 187.225 379.994 187.729 380.176C188.233 380.343 188.785 380.427 189.386 380.427C189.988 380.427 190.54 380.343 191.042 380.176C191.545 379.994 191.98 379.715 192.344 379.338C192.722 378.961 193.016 378.486 193.227 377.913C193.451 377.326 193.577 376.619 193.604 375.793C193.619 375.486 193.626 375.199 193.626 374.934C193.626 374.654 193.626 374.39 193.626 374.14C193.626 373.889 193.626 373.63 193.626 373.363C193.626 373.098 193.619 372.804 193.604 372.482C193.576 371.671 193.45 370.973 193.227 370.386C193.017 369.799 192.723 369.316 192.344 368.938C191.967 368.561 191.526 368.289 191.021 368.121C190.517 367.938 189.971 367.847 189.381 367.847H189.39ZM199.646 380.219H206.894C207.208 380.219 207.366 380.376 207.366 380.69V381.004C207.366 381.312 207.208 381.466 206.894 381.466H198.784C198.476 381.466 198.322 381.312 198.322 381.004V367.257C198.322 366.95 198.476 366.796 198.784 366.796H199.183C199.491 366.796 199.646 366.95 199.646 367.257V380.217V380.219ZM88.6367 386.121L87.221 385.304L103.003 358.021L104.419 358.838L88.6367 386.121Z"></path>
<path fill="white" d="M86.8997 383.13H118.464V384.763H86.8997V383.13Z"></path>
<path fill="white" d="M103.313 393.139L87.5235 384.04L88.3422 382.627L104.13 391.723L103.313 393.139ZM117.028 369.423L101.24 360.325L102.059 358.912L117.847 368.011L117.028 369.423Z"></path>
<path fill="white" d="M88.3469 369.422L87.5282 368.009L103.329 358.921L104.148 360.334L88.3469 369.422Z"></path>
<path fill="white" d="M116.737 386.121L100.954 358.838L102.37 358.021L118.152 385.304L116.737 386.121ZM88.152 366.925H89.7859V385.123H88.152V366.925ZM115.587 366.925H117.223V385.123H115.586L115.587 366.925Z"></path>
<path fill="white" d="M103.037 392.451L102.322 391.214L116.054 383.301L116.769 384.537L103.037 392.451Z"></path>
<path fill="white" d="M119.391 385.655C118.934 386.444 118.182 387.019 117.301 387.255C116.419 387.491 115.48 387.369 114.689 386.914C113.899 386.458 113.323 385.708 113.086 384.828C112.85 383.948 112.973 383.011 113.428 382.222C113.885 381.433 114.637 380.858 115.518 380.622C116.399 380.386 117.339 380.508 118.129 380.963C119.786 381.905 120.347 384.024 119.392 385.655H119.391ZM91.9365 369.829C91.4798 370.618 90.7282 371.193 89.8468 371.429C88.9654 371.665 88.0262 371.543 87.2354 371.088C86.4454 370.632 85.8689 369.882 85.6324 369.002C85.396 368.122 85.5189 367.185 85.9743 366.396C86.431 365.607 87.1826 365.032 88.064 364.796C88.9454 364.56 89.8846 364.682 90.6754 365.137C92.3211 366.079 92.8815 368.198 91.9377 369.829H91.9365ZM85.9849 385.655C85.0388 384.013 85.6003 381.918 87.2472 380.963C88.8929 380.018 90.9916 380.579 91.9483 382.223C92.8944 383.865 92.3329 385.96 90.686 386.915C89.0297 387.86 86.931 387.299 85.9849 385.655V385.655ZM113.44 369.829C112.494 368.187 113.056 366.092 114.702 365.137C116.348 364.192 118.447 364.753 119.404 366.397C120.35 368.039 119.788 370.134 118.141 371.089C117.35 371.544 116.411 371.666 115.53 371.43C114.648 371.194 113.897 370.619 113.44 369.83V369.829ZM102.685 395.289C100.783 395.289 99.246 393.754 99.246 391.856C99.246 389.958 100.787 388.424 102.685 388.424C104.583 388.424 106.124 389.958 106.124 391.856C106.122 392.766 105.759 393.638 105.115 394.282C104.47 394.925 103.596 395.287 102.685 395.289V395.289ZM102.685 363.634C100.783 363.634 99.246 362.1 99.246 360.202C99.246 358.304 100.787 356.769 102.685 356.769C104.583 356.769 106.124 358.304 106.124 360.202C106.124 360.653 106.036 361.099 105.863 361.516C105.691 361.933 105.438 362.312 105.118 362.631C104.799 362.95 104.419 363.202 104.002 363.375C103.584 363.547 103.137 363.635 102.685 363.634Z"></path>
<path fill="white" d="M424.601 377.293C426.635 377.293 428.283 375.648 428.283 373.618C428.283 371.588 426.635 369.943 424.601 369.943C422.568 369.943 420.92 371.588 420.92 373.618C420.92 375.648 422.568 377.293 424.601 377.293Z"></path>
<path stroke-width="1.80541" stroke="white" d="M424.6 366.148C429.544 366.148 434.136 366.856 437.599 368.046C441.77 369.479 444.335 371.652 444.335 373.62C444.335 375.67 441.617 377.979 437.137 379.46C433.75 380.581 429.293 381.165 424.6 381.165C419.789 381.165 415.233 380.616 411.808 379.448C407.475 377.97 404.865 375.631 404.865 373.62C404.865 371.668 407.314 369.512 411.427 368.08C414.902 366.871 419.608 366.148 424.6 366.148H424.6Z" clip-rule="evenodd" fill-rule="evenodd"></path>
<path stroke-width="1.80541" stroke="white" d="M418.085 369.908C420.555 365.634 423.464 362.017 426.226 359.617C429.554 356.726 432.722 355.594 434.429 356.577C436.209 357.601 436.854 361.105 435.902 365.719C435.183 369.207 433.463 373.353 431.119 377.41C428.715 381.57 425.963 385.236 423.238 387.613C419.79 390.621 416.457 391.71 414.711 390.705C413.017 389.731 412.369 386.535 413.182 382.264C413.869 378.654 415.592 374.224 418.085 369.908L418.085 369.908Z" clip-rule="evenodd" fill-rule="evenodd"></path>
<path stroke-width="1.80541" stroke="white" d="M418.091 377.424C415.614 373.155 413.928 368.832 413.224 365.245C412.377 360.923 412.976 357.618 414.682 356.633C416.46 355.605 419.823 356.797 423.352 359.925C426.021 362.29 428.761 365.847 431.112 369.9C433.522 374.056 435.329 378.267 436.032 381.811C436.921 386.295 436.201 389.721 434.457 390.729C432.765 391.707 429.668 390.671 426.366 387.835C423.577 385.439 420.592 381.736 418.091 377.424V377.424Z" clip-rule="evenodd" fill-rule="evenodd"></path>
<path fill="white" d="M465.469 383.004L460.956 376.199C463.237 375.998 465.292 374.348 465.292 371.335C465.292 368.268 463.112 366.306 460.054 366.306H453.338V382.991H455.418V376.361H458.752L463.013 382.991L465.469 383.004ZM459.805 374.548H455.419V368.169H459.805C461.786 368.169 463.139 369.469 463.139 371.346C463.139 373.223 461.785 374.55 459.805 374.55V374.548ZM473.214 383.303C475.195 383.303 476.823 382.653 478.027 381.453L477.124 380.226C476.171 381.202 474.768 381.752 473.39 381.752C470.784 381.752 469.179 379.851 469.029 377.575H478.828V377.1C478.828 373.473 476.672 370.62 473.012 370.62C469.553 370.62 467.048 373.447 467.048 376.949C467.048 380.727 469.629 383.294 473.213 383.294L473.214 383.303ZM476.975 376.198H469.03C469.13 374.347 470.407 372.169 472.989 372.169C475.747 372.169 476.949 374.396 476.975 376.198ZM491.312 383.003V374.697C491.312 371.77 489.183 370.619 486.625 370.619C484.644 370.619 483.091 371.269 481.788 372.62L482.666 373.921C483.743 372.771 484.922 372.245 486.375 372.245C488.13 372.245 489.434 373.17 489.434 374.797V376.973C488.456 375.847 487.078 375.321 485.423 375.321C483.368 375.321 481.186 376.597 481.186 379.299C481.186 381.925 483.366 383.302 485.423 383.302C487.052 383.302 488.432 382.727 489.434 381.626V383.001L491.312 383.003ZM486.1 381.952C484.346 381.952 483.117 380.852 483.117 379.325C483.117 377.774 484.346 376.673 486.1 376.673C487.428 376.673 488.706 377.174 489.434 378.175V380.451C488.707 381.452 487.428 381.953 486.1 381.953V381.952ZM500.401 383.303C502.607 383.303 503.91 382.402 504.838 381.202L503.584 380.052C502.783 381.127 501.755 381.627 500.512 381.627C497.931 381.627 496.328 379.626 496.328 376.949C496.328 374.273 497.932 372.297 500.512 372.297C501.766 372.297 502.793 372.773 503.584 373.872L504.838 372.722C503.911 371.521 502.607 370.621 500.401 370.621C496.792 370.621 494.361 373.373 494.361 376.95C494.361 380.553 496.792 383.295 500.401 383.295V383.303ZM510.528 383.303C511.63 383.303 512.308 382.978 512.785 382.528L512.234 381.127C511.983 381.402 511.492 381.627 510.955 381.627C510.129 381.627 509.727 380.977 509.727 380.076V372.571H512.184V370.92H509.727V367.618H507.846V370.92H505.841V372.572H507.846V380.478C507.846 382.28 508.749 383.305 510.528 383.305V383.303Z" clip-rule="evenodd" fill-rule="evenodd"></path>
</g>
<defs>
<linearGradient gradientUnits="userSpaceOnUse" y2="168.917" x2="328.159" y1="151.066" x1="26.1778" id="paint0_linear_7076_3051">
<stop stop-opacity="0.2" stop-color="white"></stop>
<stop stop-opacity="0.0938656" stop-color="white" offset="0.469328"></stop>
<stop stop-opacity="0" stop-color="white" offset="1"></stop>
</linearGradient>
<linearGradient gradientUnits="userSpaceOnUse" y2="391" x2="874.555" y1="-65" x1="874.555" id="paint1_linear_7076_3051">
<stop stop-color="#4247B8" offset="0.0648065"></stop>
<stop stop-color="#434190" offset="1"></stop>
</linearGradient>
<linearGradient gradientUnits="userSpaceOnUse" y2="254" x2="811" y1="174" x1="811" id="paint2_linear_7076_3051">
<stop stop-opacity="0" stop-color="white"></stop>
<stop stop-opacity="0.2" stop-color="white" offset="1"></stop>
</linearGradient>
<linearGradient gradientUnits="userSpaceOnUse" y2="294.686" x2="845.396" y1="225.604" x1="785.301" id="paint3_linear_7076_3051">
<stop stop-color="#9AE6B4"></stop>
<stop stop-color="#68D391" offset="0.647681"></stop>
<stop stop-color="#48BB78" offset="1"></stop>
</linearGradient>
<clipPath id="clip0_7076_3051">
<rect fill="white" height="474" width="844"></rect>
</clipPath>
</defs>
</svg>
