<svg xmlns="http://www.w3.org/2000/svg" fill="none" viewBox="0 0 844 474" height="474" width="844">
<g clip-path="url(#clip0_8755_9097)">
<rect fill="url(#paint0_radial_8755_9097)" height="474" width="844"></rect>
<path stroke-width="3.01431" stroke-opacity="0.5" stroke="url(#paint1_radial_8755_9097)" d="M655.971 -195L766.897 -130.963C779.132 -123.899 779.132 -112.447 766.897 -105.384L654.322 -40.3947C642.087 -33.3313 642.087 -21.8793 654.322 -14.816L763.651 48.2995C775.886 55.3629 795.723 55.3629 807.959 48.2995L813.421 45.1463C825.656 38.0829 845.493 38.0829 857.728 45.1463L976.794 113.883C989.03 120.947 1008.87 120.947 1021.1 113.883L1092.56 72.629C1104.8 65.5656 1124.63 65.5656 1136.87 72.629L1282.42 156.654M190.426 73.7597L301.352 137.797C313.587 144.86 313.587 156.312 301.352 163.376L188.777 228.365C176.542 235.428 176.542 246.88 188.777 253.944L298.106 317.059C310.341 324.123 330.178 324.123 342.413 317.059L347.875 313.906C360.11 306.843 379.948 306.843 392.183 313.906L511.249 382.643C523.484 389.706 543.321 389.706 555.556 382.643L627.017 341.389C639.252 334.325 659.089 334.325 671.325 341.389L816.872 425.413M1278.86 208.437L1221.36 241.629C1209.13 248.692 1189.29 248.692 1177.06 241.629L1095.18 194.361C1082.95 187.298 1063.11 187.298 1050.87 194.361L997.634 225.096C985.399 232.16 985.399 243.612 997.634 250.675L1088.46 303.109C1100.7 310.172 1100.7 321.624 1088.46 328.687L993.16 383.704C980.924 390.768 980.924 402.22 993.16 409.283L1141.04 494.655M813.313 477.197L755.819 510.388C743.583 517.452 723.746 517.452 711.511 510.388L629.634 463.121C617.399 456.058 597.562 456.058 585.327 463.121L532.088 493.856C519.853 500.919 519.853 512.371 532.088 519.435L622.914 571.868C635.149 578.932 635.149 590.384 622.914 597.447L527.614 652.464C515.378 659.527 515.378 670.979 527.613 678.043L675.495 763.414M832.293 147.991L933.844 89.3649M366.747 416.75L468.299 358.124M714.711 21.4847L792.775 -23.5816M249.165 290.244L327.229 245.178M832.028 201.997L894.627 238.135C906.862 245.199 906.862 256.651 894.627 263.714L837.826 296.505C825.591 303.568 805.754 303.568 793.519 296.505L541.194 150.838C528.959 143.775 528.959 132.323 541.194 125.259L591.304 96.3312C603.539 89.2678 603.539 77.8158 591.304 70.7524L420.757 -27.7039C408.522 -34.7673 388.685 -34.7673 376.45 -27.7039L302.551 14.9581C290.315 22.0215 270.478 22.0215 258.243 14.9581L178.546 -31.0512M366.483 470.757L429.081 506.895C441.316 513.958 441.316 525.41 429.081 532.474L372.281 565.265C360.046 572.328 340.208 572.328 327.973 565.265L75.6487 419.598C63.4135 412.534 63.4135 401.082 75.6487 394.019L125.758 365.091C137.993 358.027 137.993 346.575 125.758 339.512L-44.7884 241.056C-57.0236 233.992 -76.8607 233.992 -89.0959 241.056L-162.995 283.718C-175.23 290.781 -195.067 290.781 -207.303 283.718L-287 237.709M457.673 48.9287L505.587 21.268M-7.87321 317.688L40.0407 290.028M434.855 115.247L469.057 134.991C481.293 142.055 481.293 153.507 469.057 160.57L415.175 191.676M870.495 278.951L970.893 336.911C983.129 343.974 983.129 355.426 970.893 362.489L883.913 412.703M1260.21 195.052L1304.62 220.691C1316.86 227.754 1336.7 227.754 1348.93 220.691L1393.34 195.052C1405.58 187.989 1405.58 176.537 1393.34 169.473L1348.93 143.834C1336.7 136.771 1316.86 136.771 1304.62 143.834L1260.21 169.473C1247.98 176.537 1247.98 187.989 1260.21 195.052ZM794.666 463.812L839.078 489.451C851.313 496.514 871.15 496.514 883.386 489.451L927.798 463.812C940.033 456.748 940.033 445.296 927.797 438.233L883.386 412.594C871.15 405.53 851.313 405.53 839.078 412.594L794.666 438.233C782.431 445.296 782.431 456.748 794.666 463.812ZM724.154 187.302L768.566 212.942C780.801 220.005 800.638 220.005 812.873 212.942L857.285 187.302C869.52 180.239 869.52 168.787 857.285 161.724L812.873 136.085C800.638 129.021 780.801 129.021 768.566 136.085L724.154 161.724C711.919 168.787 711.919 180.239 724.154 187.302ZM258.608 456.062L303.02 481.701C315.255 488.764 335.092 488.764 347.327 481.701L391.739 456.062C403.975 448.999 403.975 437.547 391.739 430.483L347.327 404.844C335.092 397.781 315.255 397.781 303.02 404.844L258.608 430.483C246.373 437.547 246.373 448.999 258.608 456.062ZM770.569 -36.4011L814.981 -10.7621C827.216 -3.69871 847.053 -3.69871 859.288 -10.7621L903.7 -36.4012C915.935 -43.4645 915.935 -54.9165 903.7 -61.9799L859.288 -87.6189C847.053 -94.6823 827.216 -94.6823 814.981 -87.6189L770.569 -61.9799C758.333 -54.9165 758.334 -43.4645 770.569 -36.4011ZM305.023 232.359L349.435 257.998C361.67 265.061 381.507 265.061 393.742 257.998L438.154 232.359C450.39 225.295 450.389 213.843 438.154 206.78L393.742 181.141C381.507 174.077 361.67 174.077 349.435 181.141L305.023 206.78C292.788 213.843 292.788 225.295 305.023 232.359ZM347.71 87.8831L392.122 113.522C404.357 120.585 424.194 120.585 436.43 113.522L480.842 87.883C493.077 80.8197 493.077 69.3677 480.842 62.3043L436.43 36.6653C424.194 29.6019 404.357 29.6019 392.122 36.6653L347.71 62.3043C335.475 69.3677 335.475 80.8197 347.71 87.8831ZM-117.836 356.643L-73.4236 382.282C-61.1884 389.345 -41.3512 389.345 -29.116 382.282L15.296 356.643C27.5312 349.579 27.5311 338.127 15.2959 331.064L-29.1161 305.425C-41.3512 298.362 -61.1884 298.362 -73.4236 305.425L-117.836 331.064C-130.071 338.127 -130.071 349.579 -117.836 356.643Z" opacity="0.5"></path>
<path fill="white" d="M73.5267 167.727L72.4926 175.31H64.7123V202H54.5683V175.31H46.2462V167.727H73.5267ZM92.5202 174.719C94.7198 174.719 96.4433 175.409 97.6907 176.788C98.9711 178.166 99.6112 180.103 99.6112 182.598V202H89.8611V184.371C89.8611 183.386 89.7298 182.713 89.4672 182.352C89.2374 181.991 88.8763 181.81 88.3838 181.81C87.3005 181.81 86.2007 182.68 85.0846 184.42V202H75.3345V165.363L85.0846 164.378V178.068C86.2007 176.886 87.3497 176.033 88.5316 175.507C89.7134 174.982 91.043 174.719 92.5202 174.719ZM128.284 188.507C128.284 189.328 128.218 190.362 128.087 191.61H112.132C112.395 193.383 112.936 194.581 113.757 195.204C114.611 195.795 115.825 196.091 117.401 196.091C118.32 196.091 119.256 195.91 120.208 195.549C121.16 195.155 122.21 194.564 123.359 193.776L127.299 199.095C124.114 201.688 120.503 202.985 116.465 202.985C111.804 202.985 108.275 201.705 105.878 199.144C103.482 196.55 102.283 193.136 102.283 188.901C102.283 186.275 102.776 183.895 103.761 181.761C104.778 179.595 106.272 177.887 108.242 176.64C110.211 175.36 112.592 174.719 115.382 174.719C117.975 174.719 120.241 175.261 122.178 176.344C124.114 177.428 125.608 179.004 126.659 181.072C127.742 183.14 128.284 185.619 128.284 188.507ZM118.681 185.75C118.648 184.207 118.402 183.009 117.943 182.155C117.516 181.302 116.728 180.875 115.579 180.875C114.496 180.875 113.675 181.252 113.117 182.007C112.592 182.762 112.247 184.125 112.083 186.095H118.681V185.75ZM158.931 174.719C161.13 174.719 162.854 175.409 164.101 176.788C165.382 178.166 166.022 180.103 166.022 182.598V202H156.272V184.371C156.272 183.386 156.14 182.713 155.878 182.352C155.648 181.991 155.287 181.81 154.794 181.81C153.711 181.81 152.611 182.68 151.495 184.42V202H141.745V175.704H150.264L150.953 178.413C152.168 177.132 153.399 176.197 154.647 175.606C155.927 175.015 157.355 174.719 158.931 174.719ZM192.675 193.481C192.675 194.4 192.79 195.09 193.02 195.549C193.25 195.976 193.66 196.304 194.251 196.534L192.281 202.788C190.508 202.657 189.064 202.328 187.948 201.803C186.832 201.245 185.912 200.359 185.19 199.144C183.483 201.705 180.84 202.985 177.262 202.985C174.669 202.985 172.568 202.213 170.959 200.67C169.383 199.095 168.595 197.076 168.595 194.614C168.595 191.692 169.679 189.459 171.845 187.917C174.012 186.374 177.164 185.602 181.3 185.602H183.171V184.962C183.171 183.649 182.909 182.762 182.383 182.303C181.858 181.843 180.857 181.613 179.38 181.613C178.592 181.613 177.574 181.745 176.327 182.007C175.112 182.237 173.864 182.565 172.584 182.992L170.467 176.788C172.075 176.131 173.815 175.622 175.686 175.261C177.59 174.9 179.314 174.719 180.857 174.719C184.993 174.719 187.997 175.524 189.868 177.132C191.74 178.708 192.675 181.137 192.675 184.42V193.481ZM180.266 196.14C180.857 196.14 181.399 195.992 181.891 195.697C182.416 195.401 182.843 195.024 183.171 194.564V190.674H182.137C180.758 190.674 179.741 190.92 179.084 191.413C178.428 191.905 178.099 192.66 178.099 193.678C178.099 194.433 178.296 195.04 178.69 195.5C179.084 195.927 179.609 196.14 180.266 196.14ZM227.676 174.719C229.679 174.719 231.287 175.425 232.502 176.837C233.749 178.216 234.373 180.136 234.373 182.598V202H224.623V184.371C224.623 183.419 224.508 182.762 224.278 182.401C224.048 182.007 223.72 181.81 223.293 181.81C222.801 181.81 222.325 182.04 221.865 182.5C221.406 182.927 220.979 183.567 220.585 184.42V202H210.835V184.371C210.835 183.419 210.72 182.762 210.49 182.401C210.26 182.007 209.932 181.81 209.505 181.81C209.013 181.81 208.537 182.04 208.077 182.5C207.618 182.927 207.191 183.567 206.797 184.42V202H197.047V175.704H205.566L206.255 178.363C207.306 177.083 208.438 176.164 209.653 175.606C210.901 175.015 212.312 174.719 213.888 174.719C215.267 174.719 216.465 175.048 217.483 175.704C218.5 176.361 219.272 177.297 219.797 178.511C220.913 177.198 222.095 176.246 223.343 175.655C224.59 175.031 226.035 174.719 227.676 174.719ZM263.028 188.507C263.028 189.328 262.962 190.362 262.831 191.61H246.877C247.139 193.383 247.681 194.581 248.502 195.204C249.355 195.795 250.57 196.091 252.145 196.091C253.065 196.091 254 195.91 254.952 195.549C255.904 195.155 256.955 194.564 258.104 193.776L262.043 199.095C258.859 201.688 255.248 202.985 251.21 202.985C246.548 202.985 243.019 201.705 240.623 199.144C238.226 196.55 237.028 193.136 237.028 188.901C237.028 186.275 237.52 183.895 238.505 181.761C239.523 179.595 241.017 177.887 242.986 176.64C244.956 175.36 247.336 174.719 250.127 174.719C252.72 174.719 254.985 175.261 256.922 176.344C258.859 177.428 260.353 179.004 261.403 181.072C262.486 183.14 263.028 185.619 263.028 188.507ZM253.426 185.75C253.393 184.207 253.147 183.009 252.687 182.155C252.26 181.302 251.473 180.875 250.324 180.875C249.24 180.875 248.419 181.252 247.861 182.007C247.336 182.762 246.991 184.125 246.827 186.095H253.426V185.75ZM290.327 171.371C289.375 171.371 288.685 171.617 288.259 172.11C287.832 172.602 287.618 173.456 287.618 174.67V175.704H293.725L292.641 182.303H287.618V202H277.868V182.303H274.323V175.704H277.868V174.178C277.868 171.322 278.82 168.974 280.724 167.136C282.628 165.298 285.386 164.378 288.997 164.378C290.376 164.378 291.771 164.559 293.183 164.92C294.594 165.248 295.776 165.675 296.728 166.2L294.168 172.356C292.953 171.699 291.673 171.371 290.327 171.371ZM306.497 174.719C310.699 174.719 313.998 175.951 316.395 178.413C318.824 180.875 320.039 184.371 320.039 188.901C320.039 191.725 319.481 194.203 318.364 196.337C317.281 198.471 315.722 200.112 313.686 201.261C311.651 202.41 309.254 202.985 306.497 202.985C302.295 202.985 298.979 201.754 296.55 199.292C294.153 196.83 292.955 193.333 292.955 188.803C292.955 185.98 293.497 183.501 294.58 181.367C295.696 179.233 297.272 177.592 299.307 176.443C301.343 175.294 303.739 174.719 306.497 174.719ZM306.497 181.712C305.249 181.712 304.347 182.27 303.789 183.386C303.23 184.502 302.951 186.308 302.951 188.803C302.951 191.396 303.23 193.251 303.789 194.367C304.347 195.451 305.249 195.992 306.497 195.992C307.744 195.992 308.647 195.434 309.205 194.318C309.763 193.202 310.042 191.396 310.042 188.901C310.042 186.308 309.763 184.47 309.205 183.386C308.647 182.27 307.744 181.712 306.497 181.712ZM338.898 174.867C339.751 174.867 340.638 175.015 341.557 175.31L340.03 184.716C339.144 184.453 338.34 184.322 337.618 184.322C336.173 184.322 335.09 184.798 334.368 185.75C333.678 186.702 333.12 188.13 332.693 190.034V202H322.943V175.704H331.462L332.25 180.629C332.808 178.889 333.695 177.493 334.909 176.443C336.124 175.392 337.453 174.867 338.898 174.867ZM275.932 219.363V256H267.265L266.921 253.292C265.049 255.754 262.571 256.985 259.485 256.985C256.169 256.985 253.674 255.721 252 253.193C250.326 250.665 249.489 247.169 249.489 242.704C249.489 240.012 249.948 237.616 250.867 235.515C251.787 233.381 253.067 231.723 254.708 230.541C256.383 229.327 258.303 228.719 260.47 228.719C262.735 228.719 264.639 229.409 266.182 230.788V218.378L275.932 219.363ZM262.784 249.992C264.163 249.992 265.296 249.221 266.182 247.678V237.14C265.722 236.648 265.263 236.286 264.803 236.057C264.344 235.794 263.835 235.663 263.277 235.663C262.128 235.663 261.208 236.237 260.519 237.386C259.83 238.502 259.485 240.308 259.485 242.803C259.485 245.692 259.764 247.612 260.322 248.564C260.913 249.516 261.734 249.992 262.784 249.992ZM304.817 242.507C304.817 243.328 304.752 244.362 304.62 245.61H288.666C288.928 247.383 289.47 248.581 290.291 249.204C291.144 249.795 292.359 250.091 293.935 250.091C294.854 250.091 295.789 249.91 296.741 249.549C297.693 249.155 298.744 248.564 299.893 247.776L303.832 253.095C300.648 255.688 297.037 256.985 292.999 256.985C288.337 256.985 284.808 255.705 282.412 253.144C280.015 250.55 278.817 247.136 278.817 242.901C278.817 240.275 279.309 237.895 280.294 235.761C281.312 233.595 282.806 231.887 284.775 230.64C286.745 229.36 289.125 228.719 291.916 228.719C294.509 228.719 296.774 229.261 298.711 230.344C300.648 231.428 302.142 233.004 303.192 235.072C304.276 237.14 304.817 239.619 304.817 242.507ZM295.215 239.75C295.182 238.207 294.936 237.009 294.476 236.155C294.049 235.302 293.262 234.875 292.113 234.875C291.029 234.875 290.209 235.252 289.65 236.007C289.125 236.762 288.78 238.125 288.616 240.095H295.215V239.75ZM331.55 229.704L323.72 256H312.198L304.171 229.704H314.758L318.057 248.958L321.701 229.704H331.55ZM357.186 242.507C357.186 243.328 357.12 244.362 356.989 245.61H341.034C341.297 247.383 341.838 248.581 342.659 249.204C343.513 249.795 344.727 250.091 346.303 250.091C347.222 250.091 348.158 249.91 349.11 249.549C350.062 249.155 351.113 248.564 352.262 247.776L356.201 253.095C353.017 255.688 349.405 256.985 345.368 256.985C340.706 256.985 337.177 255.705 334.78 253.144C332.384 250.55 331.186 247.136 331.186 242.901C331.186 240.275 331.678 237.895 332.663 235.761C333.681 233.595 335.174 231.887 337.144 230.64C339.114 229.36 341.494 228.719 344.284 228.719C346.878 228.719 349.143 229.261 351.08 230.344C353.017 231.428 354.51 233.004 355.561 235.072C356.644 237.14 357.186 239.619 357.186 242.507ZM347.583 239.75C347.551 238.207 347.304 237.009 346.845 236.155C346.418 235.302 345.63 234.875 344.481 234.875C343.398 234.875 342.577 235.252 342.019 236.007C341.494 236.762 341.149 238.125 340.985 240.095H347.583V239.75ZM367.854 256.985C365.195 256.985 363.143 256.246 361.698 254.769C360.287 253.259 359.581 251.141 359.581 248.417V219.363L369.331 218.378V248.023C369.331 248.909 369.725 249.352 370.513 249.352C370.874 249.352 371.219 249.287 371.547 249.155L373.271 256.098C371.728 256.689 369.922 256.985 367.854 256.985ZM386.661 228.719C390.863 228.719 394.162 229.951 396.559 232.413C398.988 234.875 400.203 238.371 400.203 242.901C400.203 245.725 399.644 248.203 398.528 250.337C397.445 252.471 395.886 254.112 393.85 255.261C391.815 256.41 389.418 256.985 386.661 256.985C382.459 256.985 379.143 255.754 376.714 253.292C374.317 250.83 373.119 247.333 373.119 242.803C373.119 239.98 373.661 237.501 374.744 235.367C375.86 233.233 377.436 231.592 379.471 230.443C381.507 229.294 383.903 228.719 386.661 228.719ZM386.661 235.712C385.413 235.712 384.51 236.27 383.952 237.386C383.394 238.502 383.115 240.308 383.115 242.803C383.115 245.396 383.394 247.251 383.952 248.367C384.51 249.451 385.413 249.992 386.661 249.992C387.908 249.992 388.811 249.434 389.369 248.318C389.927 247.202 390.206 245.396 390.206 242.901C390.206 240.308 389.927 238.47 389.369 237.386C388.811 236.27 387.908 235.712 386.661 235.712ZM419.603 228.719C422.853 228.719 425.299 229.951 426.941 232.413C428.615 234.875 429.452 238.322 429.452 242.754C429.452 245.478 429.009 247.924 428.122 250.091C427.269 252.225 426.038 253.915 424.429 255.163C422.853 256.378 421.031 256.985 418.963 256.985C416.468 256.985 414.433 256.115 412.857 254.375V266.193L403.107 267.178V229.704H411.774L412.168 232.265C413.218 231.017 414.384 230.115 415.664 229.557C416.977 228.999 418.29 228.719 419.603 228.719ZM415.762 250.042C418.225 250.042 419.456 247.662 419.456 242.901C419.456 240.899 419.324 239.372 419.062 238.322C418.799 237.271 418.438 236.582 417.978 236.254C417.552 235.893 416.994 235.712 416.304 235.712C414.925 235.712 413.776 236.533 412.857 238.174V248.22C413.284 248.876 413.727 249.352 414.187 249.648C414.646 249.91 415.172 250.042 415.762 250.042ZM457.355 242.507C457.355 243.328 457.289 244.362 457.158 245.61H441.203C441.466 247.383 442.007 248.581 442.828 249.204C443.681 249.795 444.896 250.091 446.472 250.091C447.391 250.091 448.327 249.91 449.279 249.549C450.231 249.155 451.281 248.564 452.43 247.776L456.37 253.095C453.185 255.688 449.574 256.985 445.536 256.985C440.875 256.985 437.346 255.705 434.949 253.144C432.553 250.55 431.354 247.136 431.354 242.901C431.354 240.275 431.847 237.895 432.832 235.761C433.849 233.595 435.343 231.887 437.313 230.64C439.282 229.36 441.663 228.719 444.453 228.719C447.046 228.719 449.312 229.261 451.248 230.344C453.185 231.428 454.679 233.004 455.73 235.072C456.813 237.14 457.355 239.619 457.355 242.507ZM447.752 239.75C447.719 238.207 447.473 237.009 447.014 236.155C446.587 235.302 445.799 234.875 444.65 234.875C443.567 234.875 442.746 235.252 442.188 236.007C441.663 236.762 441.318 238.125 441.154 240.095H447.752V239.75ZM475.951 228.867C476.804 228.867 477.691 229.015 478.61 229.31L477.083 238.716C476.197 238.453 475.393 238.322 474.67 238.322C473.226 238.322 472.143 238.798 471.42 239.75C470.731 240.702 470.173 242.13 469.746 244.034V256H459.996V229.704H468.515L469.303 234.629C469.861 232.889 470.747 231.493 471.962 230.443C473.177 229.392 474.506 228.867 475.951 228.867ZM72.8373 296.507C72.8373 297.328 72.7717 298.362 72.6404 299.61H56.6857C56.9483 301.383 57.49 302.581 58.3107 303.204C59.1643 303.795 60.3789 304.091 61.9547 304.091C62.8739 304.091 63.8095 303.91 64.7615 303.549C65.7135 303.155 66.7641 302.564 67.9131 301.776L71.8525 307.095C68.6681 309.688 65.057 310.985 61.0191 310.985C56.3574 310.985 52.8283 309.705 50.4319 307.144C48.0354 304.55 46.8371 301.136 46.8371 296.901C46.8371 294.275 47.3296 291.895 48.3144 289.761C49.3321 287.595 50.8258 285.887 52.7955 284.64C54.7652 283.36 57.1453 282.719 59.9357 282.719C62.5292 282.719 64.7943 283.261 66.7312 284.344C68.6681 285.428 70.1618 287.004 71.2123 289.072C72.2957 291.14 72.8373 293.619 72.8373 296.507ZM63.235 293.75C63.2022 292.207 62.9559 291.009 62.4963 290.155C62.0696 289.302 61.2817 288.875 60.1327 288.875C59.0493 288.875 58.2286 289.252 57.6706 290.007C57.1453 290.762 56.8006 292.125 56.6365 294.095H63.235V293.75ZM91.5492 295.917L99.6743 310H88.7916L85.3446 300.939L82.1931 310H71.7044L79.731 296.212L72.3938 283.704H83.178L85.7386 291.435L88.053 283.704H98.2463L91.5492 295.917ZM117.27 282.719C120.52 282.719 122.966 283.951 124.607 286.413C126.281 288.875 127.118 292.322 127.118 296.754C127.118 299.478 126.675 301.924 125.789 304.091C124.935 306.225 123.704 307.915 122.096 309.163C120.52 310.378 118.698 310.985 116.63 310.985C114.135 310.985 112.099 310.115 110.523 308.375V320.193L100.773 321.178V283.704H109.44L109.834 286.265C110.885 285.017 112.05 284.115 113.33 283.557C114.643 282.999 115.957 282.719 117.27 282.719ZM113.429 304.042C115.891 304.042 117.122 301.662 117.122 296.901C117.122 294.899 116.991 293.372 116.728 292.322C116.465 291.271 116.104 290.582 115.645 290.254C115.218 289.893 114.66 289.712 113.97 289.712C112.592 289.712 111.443 290.533 110.523 292.174V302.22C110.95 302.876 111.393 303.352 111.853 303.648C112.313 303.91 112.838 304.042 113.429 304.042ZM155.021 296.507C155.021 297.328 154.955 298.362 154.824 299.61H138.869C139.132 301.383 139.674 302.581 140.494 303.204C141.348 303.795 142.562 304.091 144.138 304.091C145.057 304.091 145.993 303.91 146.945 303.549C147.897 303.155 148.948 302.564 150.097 301.776L154.036 307.095C150.852 309.688 147.241 310.985 143.203 310.985C138.541 310.985 135.012 309.705 132.615 307.144C130.219 304.55 129.021 301.136 129.021 296.901C129.021 294.275 129.513 291.895 130.498 289.761C131.516 287.595 133.009 285.887 134.979 284.64C136.949 283.36 139.329 282.719 142.119 282.719C144.713 282.719 146.978 283.261 148.915 284.344C150.852 285.428 152.345 287.004 153.396 289.072C154.479 291.14 155.021 293.619 155.021 296.507ZM145.419 293.75C145.386 292.207 145.14 291.009 144.68 290.155C144.253 289.302 143.465 288.875 142.316 288.875C141.233 288.875 140.412 289.252 139.854 290.007C139.329 290.762 138.984 292.125 138.82 294.095H145.419V293.75ZM173.617 282.867C174.471 282.867 175.357 283.015 176.276 283.31L174.75 292.716C173.863 292.453 173.059 292.322 172.337 292.322C170.892 292.322 169.809 292.798 169.087 293.75C168.397 294.702 167.839 296.13 167.412 298.034V310H157.662V283.704H166.181L166.969 288.629C167.527 286.889 168.414 285.493 169.628 284.443C170.843 283.392 172.173 282.867 173.617 282.867ZM187.61 283.704V310H177.86V283.704H187.61ZM182.735 269.178C184.31 269.178 185.607 269.687 186.625 270.704C187.675 271.689 188.201 272.92 188.201 274.397C188.201 275.875 187.675 277.122 186.625 278.14C185.607 279.125 184.31 279.617 182.735 279.617C181.159 279.617 179.846 279.125 178.795 278.14C177.778 277.122 177.269 275.875 177.269 274.397C177.269 272.92 177.778 271.689 178.795 270.704C179.846 269.687 181.159 269.178 182.735 269.178ZM216.526 296.507C216.526 297.328 216.461 298.362 216.329 299.61H200.375C200.637 301.383 201.179 302.581 202 303.204C202.853 303.795 204.068 304.091 205.644 304.091C206.563 304.091 207.499 303.91 208.451 303.549C209.403 303.155 210.453 302.564 211.602 301.776L215.542 307.095C212.357 309.688 208.746 310.985 204.708 310.985C200.046 310.985 196.517 309.705 194.121 307.144C191.724 304.55 190.526 301.136 190.526 296.901C190.526 294.275 191.019 291.895 192.003 289.761C193.021 287.595 194.515 285.887 196.485 284.64C198.454 283.36 200.834 282.719 203.625 282.719C206.218 282.719 208.483 283.261 210.42 284.344C212.357 285.428 213.851 287.004 214.901 289.072C215.985 291.14 216.526 293.619 216.526 296.507ZM206.924 293.75C206.891 292.207 206.645 291.009 206.185 290.155C205.759 289.302 204.971 288.875 203.822 288.875C202.738 288.875 201.918 289.252 201.36 290.007C200.834 290.762 200.49 292.125 200.325 294.095H206.924V293.75ZM236.354 282.719C238.553 282.719 240.277 283.409 241.524 284.788C242.804 286.166 243.445 288.103 243.445 290.598V310H233.694V292.371C233.694 291.386 233.563 290.713 233.3 290.352C233.071 289.991 232.71 289.81 232.217 289.81C231.134 289.81 230.034 290.68 228.918 292.42V310H219.168V283.704H227.687L228.376 286.413C229.591 285.132 230.822 284.197 232.069 283.606C233.35 283.015 234.778 282.719 236.354 282.719ZM259.806 282.719C263.549 282.719 266.733 283.885 269.359 286.216L265.321 291.879C263.811 290.664 262.268 290.057 260.693 290.057C259.182 290.057 258.066 290.582 257.344 291.632C256.622 292.683 256.261 294.489 256.261 297.049C256.261 299.511 256.622 301.202 257.344 302.121C258.099 303.008 259.182 303.451 260.594 303.451C261.349 303.451 262.055 303.336 262.712 303.106C263.368 302.843 264.189 302.4 265.174 301.776L269.359 307.735C266.7 309.902 263.598 310.985 260.052 310.985C257.196 310.985 254.718 310.41 252.617 309.261C250.516 308.08 248.907 306.438 247.791 304.337C246.675 302.203 246.117 299.774 246.117 297.049C246.117 294.292 246.675 291.829 247.791 289.663C248.94 287.496 250.549 285.805 252.617 284.591C254.685 283.343 257.081 282.719 259.806 282.719ZM294.719 296.507C294.719 297.328 294.653 298.362 294.522 299.61H278.567C278.83 301.383 279.371 302.581 280.192 303.204C281.046 303.795 282.26 304.091 283.836 304.091C284.755 304.091 285.691 303.91 286.643 303.549C287.595 303.155 288.645 302.564 289.794 301.776L293.734 307.095C290.549 309.688 286.938 310.985 282.9 310.985C278.239 310.985 274.71 309.705 272.313 307.144C269.917 304.55 268.718 301.136 268.718 296.901C268.718 294.275 269.211 291.895 270.196 289.761C271.213 287.595 272.707 285.887 274.677 284.64C276.646 283.36 279.027 282.719 281.817 282.719C284.41 282.719 286.676 283.261 288.612 284.344C290.549 285.428 292.043 287.004 293.094 289.072C294.177 291.14 294.719 293.619 294.719 296.507ZM285.116 293.75C285.083 292.207 284.837 291.009 284.378 290.155C283.951 289.302 283.163 288.875 282.014 288.875C280.931 288.875 280.11 289.252 279.552 290.007C279.027 290.762 278.682 292.125 278.518 294.095H285.116V293.75ZM64.5645 336.719C67.8146 336.719 70.2603 337.951 71.9017 340.413C73.576 342.875 74.4131 346.322 74.4131 350.754C74.4131 353.478 73.9699 355.924 73.0836 358.091C72.23 360.225 70.9989 361.915 69.3903 363.163C67.8146 364.378 65.9926 364.985 63.9244 364.985C61.4294 364.985 59.3941 364.115 57.8183 362.375V374.193L48.0682 375.178V337.704H56.7349L57.1289 340.265C58.1794 339.017 59.3448 338.115 60.6251 337.557C61.9383 336.999 63.2514 336.719 64.5645 336.719ZM60.7236 358.042C63.1857 358.042 64.4168 355.662 64.4168 350.901C64.4168 348.899 64.2855 347.372 64.0229 346.322C63.7602 345.271 63.3991 344.582 62.9395 344.254C62.5128 343.893 61.9547 343.712 61.2653 343.712C59.8865 343.712 58.7375 344.533 57.8183 346.174V356.22C58.2451 356.876 58.6882 357.352 59.1478 357.648C59.6074 357.91 60.1327 358.042 60.7236 358.042ZM94.7323 336.719C96.9318 336.719 98.6553 337.409 99.9028 338.788C101.183 340.166 101.823 342.103 101.823 344.598V364H92.0732V346.371C92.0732 345.386 91.9419 344.713 91.6793 344.352C91.4495 343.991 91.0884 343.81 90.5959 343.81C89.5126 343.81 88.4128 344.68 87.2967 346.42V364H77.5466V327.363L87.2967 326.378V340.068C88.4128 338.886 89.5618 338.033 90.7436 337.507C91.9255 336.982 93.255 336.719 94.7323 336.719ZM115.477 337.704V364H105.727V337.704H115.477ZM110.602 323.178C112.177 323.178 113.474 323.687 114.492 324.704C115.542 325.689 116.068 326.92 116.068 328.397C116.068 329.875 115.542 331.122 114.492 332.14C113.474 333.125 112.177 333.617 110.602 333.617C109.026 333.617 107.713 333.125 106.662 332.14C105.644 331.122 105.136 329.875 105.136 328.397C105.136 326.92 105.644 325.689 106.662 324.704C107.713 323.687 109.026 323.178 110.602 323.178ZM127.651 364.985C124.992 364.985 122.94 364.246 121.495 362.769C120.084 361.259 119.378 359.141 119.378 356.417V327.363L129.128 326.378V356.023C129.128 356.909 129.522 357.352 130.31 357.352C130.671 357.352 131.016 357.287 131.344 357.155L133.067 364.098C131.525 364.689 129.719 364.985 127.651 364.985ZM146.458 336.719C150.66 336.719 153.959 337.951 156.355 340.413C158.785 342.875 159.999 346.371 159.999 350.901C159.999 353.725 159.441 356.203 158.325 358.337C157.242 360.471 155.683 362.112 153.647 363.261C151.612 364.41 149.215 364.985 146.458 364.985C142.256 364.985 138.94 363.754 136.511 361.292C134.114 358.83 132.916 355.333 132.916 350.803C132.916 347.98 133.458 345.501 134.541 343.367C135.657 341.233 137.233 339.592 139.268 338.443C141.304 337.294 143.7 336.719 146.458 336.719ZM146.458 343.712C145.21 343.712 144.307 344.27 143.749 345.386C143.191 346.502 142.912 348.308 142.912 350.803C142.912 353.396 143.191 355.251 143.749 356.367C144.307 357.451 145.21 357.992 146.458 357.992C147.705 357.992 148.608 357.434 149.166 356.318C149.724 355.202 150.003 353.396 150.003 350.901C150.003 348.308 149.724 346.47 149.166 345.386C148.608 344.27 147.705 343.712 146.458 343.712ZM173.442 336.719C175.379 336.719 177.234 337.031 179.006 337.655C180.812 338.246 182.322 339.067 183.537 340.117L180.09 345.386C179.138 344.795 178.12 344.336 177.037 344.007C175.953 343.646 174.886 343.466 173.836 343.466C172.359 343.466 171.62 343.86 171.62 344.648C171.62 344.976 171.718 345.255 171.915 345.485C172.112 345.682 172.572 345.944 173.294 346.273C174.049 346.568 175.248 346.962 176.889 347.454C179.515 348.275 181.452 349.326 182.7 350.606C183.98 351.853 184.62 353.626 184.62 355.924C184.62 357.697 184.078 359.273 182.995 360.651C181.945 362.03 180.467 363.097 178.563 363.852C176.692 364.607 174.558 364.985 172.162 364.985C169.864 364.985 167.697 364.624 165.662 363.902C163.659 363.146 161.968 362.112 160.59 360.799L165.218 355.678C166.203 356.466 167.27 357.106 168.419 357.598C169.601 358.058 170.766 358.288 171.915 358.288C172.802 358.288 173.475 358.157 173.934 357.894C174.427 357.598 174.673 357.188 174.673 356.663C174.673 356.203 174.558 355.859 174.328 355.629C174.131 355.366 173.705 355.12 173.048 354.89C172.391 354.627 171.242 354.25 169.601 353.757C164.513 352.247 161.968 349.408 161.968 345.238C161.968 343.63 162.412 342.185 163.298 340.905C164.217 339.625 165.53 338.607 167.237 337.852C168.977 337.097 171.045 336.719 173.442 336.719ZM199.5 336.719C203.702 336.719 207.001 337.951 209.397 340.413C211.827 342.875 213.041 346.371 213.041 350.901C213.041 353.725 212.483 356.203 211.367 358.337C210.284 360.471 208.724 362.112 206.689 363.261C204.654 364.41 202.257 364.985 199.5 364.985C195.297 364.985 191.982 363.754 189.552 361.292C187.156 358.83 185.958 355.333 185.958 350.803C185.958 347.98 186.499 345.501 187.583 343.367C188.699 341.233 190.275 339.592 192.31 338.443C194.345 337.294 196.742 336.719 199.5 336.719ZM199.5 343.712C198.252 343.712 197.349 344.27 196.791 345.386C196.233 346.502 195.954 348.308 195.954 350.803C195.954 353.396 196.233 355.251 196.791 356.367C197.349 357.451 198.252 357.992 199.5 357.992C200.747 357.992 201.65 357.434 202.208 356.318C202.766 355.202 203.045 353.396 203.045 350.901C203.045 348.308 202.766 346.47 202.208 345.386C201.65 344.27 200.747 343.712 199.5 343.712ZM232.442 336.719C235.692 336.719 238.138 337.951 239.779 340.413C241.454 342.875 242.291 346.322 242.291 350.754C242.291 353.478 241.848 355.924 240.961 358.091C240.108 360.225 238.877 361.915 237.268 363.163C235.692 364.378 233.87 364.985 231.802 364.985C229.307 364.985 227.272 364.115 225.696 362.375V374.193L215.946 375.178V337.704H224.613L225.007 340.265C226.057 339.017 227.222 338.115 228.503 337.557C229.816 336.999 231.129 336.719 232.442 336.719ZM228.601 358.042C231.063 358.042 232.294 355.662 232.294 350.901C232.294 348.899 232.163 347.372 231.901 346.322C231.638 345.271 231.277 344.582 230.817 344.254C230.39 343.893 229.832 343.712 229.143 343.712C227.764 343.712 226.615 344.533 225.696 346.174V356.22C226.123 356.876 226.566 357.352 227.025 357.648C227.485 357.91 228.01 358.042 228.601 358.042ZM262.61 336.719C264.809 336.719 266.533 337.409 267.78 338.788C269.061 340.166 269.701 342.103 269.701 344.598V364H259.951V346.371C259.951 345.386 259.82 344.713 259.557 344.352C259.327 343.991 258.966 343.81 258.474 343.81C257.39 343.81 256.29 344.68 255.174 346.42V364H245.424V327.363L255.174 326.378V340.068C256.29 338.886 257.439 338.033 258.621 337.507C259.803 336.982 261.133 336.719 262.61 336.719ZM290.254 363.951C289.138 367.595 287.234 370.352 284.542 372.224C281.85 374.095 278.304 375.096 273.905 375.227L272.871 368.58C275.399 368.317 277.27 367.857 278.485 367.201C279.733 366.544 280.701 365.477 281.39 364H278.042L270.557 337.704H280.898L284.197 358.042L288.284 337.704H298.33L290.254 363.951Z"></path>
<path fill="#25FFFF" d="M60.4774 221.727C65.1719 221.727 68.8158 222.712 71.4093 224.682C74.0356 226.618 75.3487 229.475 75.3487 233.25C75.3487 237.156 74.1012 240.144 71.6063 242.212C69.1441 244.28 65.812 245.314 61.61 245.314H58.2615V256H48.1174V221.727H60.4774ZM60.6251 238.174C63.5469 238.174 65.0077 236.533 65.0077 233.25C65.0077 230.262 63.4484 228.769 60.3297 228.769H58.2615V238.174H60.6251ZM93.1646 228.867C94.0182 228.867 94.9045 229.015 95.8237 229.31L94.2972 238.716C93.4108 238.453 92.6065 238.322 91.8843 238.322C90.4399 238.322 89.3565 238.798 88.6343 239.75C87.9449 240.702 87.3868 242.13 86.96 244.034V256H77.21V229.704H85.729L86.5168 234.629C87.0749 232.889 87.9613 231.493 89.176 230.443C90.3906 229.392 91.7202 228.867 93.1646 228.867ZM107.157 229.704V256H97.4072V229.704H107.157ZM102.282 215.178C103.858 215.178 105.155 215.687 106.172 216.704C107.223 217.689 107.748 218.92 107.748 220.397C107.748 221.875 107.223 223.122 106.172 224.14C105.155 225.125 103.858 225.617 102.282 225.617C100.706 225.617 99.3933 225.125 98.3428 224.14C97.3251 223.122 96.8163 221.875 96.8163 220.397C96.8163 218.92 97.3251 217.689 98.3428 216.704C99.3933 215.687 100.706 215.178 102.282 215.178ZM121.843 228.719C123.78 228.719 125.635 229.031 127.407 229.655C129.213 230.246 130.723 231.067 131.938 232.117L128.491 237.386C127.539 236.795 126.521 236.336 125.438 236.007C124.354 235.646 123.287 235.466 122.237 235.466C120.759 235.466 120.021 235.86 120.021 236.648C120.021 236.976 120.119 237.255 120.316 237.485C120.513 237.682 120.973 237.944 121.695 238.273C122.45 238.568 123.648 238.962 125.29 239.454C127.916 240.275 129.853 241.326 131.1 242.606C132.381 243.853 133.021 245.626 133.021 247.924C133.021 249.697 132.479 251.273 131.396 252.651C130.345 254.03 128.868 255.097 126.964 255.852C125.093 256.607 122.959 256.985 120.562 256.985C118.264 256.985 116.098 256.624 114.062 255.902C112.06 255.146 110.369 254.112 108.99 252.799L113.619 247.678C114.604 248.466 115.671 249.106 116.82 249.598C118.002 250.058 119.167 250.288 120.316 250.288C121.203 250.288 121.876 250.157 122.335 249.894C122.828 249.598 123.074 249.188 123.074 248.663C123.074 248.203 122.959 247.859 122.729 247.629C122.532 247.366 122.105 247.12 121.449 246.89C120.792 246.627 119.643 246.25 118.002 245.757C112.913 244.247 110.369 241.408 110.369 237.238C110.369 235.63 110.812 234.185 111.699 232.905C112.618 231.625 113.931 230.607 115.638 229.852C117.378 229.097 119.446 228.719 121.843 228.719ZM166.219 228.719C168.221 228.719 169.83 229.425 171.044 230.837C172.292 232.216 172.916 234.136 172.916 236.598V256H163.166V238.371C163.166 237.419 163.051 236.762 162.821 236.401C162.591 236.007 162.263 235.81 161.836 235.81C161.344 235.81 160.868 236.04 160.408 236.5C159.948 236.927 159.522 237.567 159.128 238.42V256H149.378V238.371C149.378 237.419 149.263 236.762 149.033 236.401C148.803 236.007 148.475 235.81 148.048 235.81C147.556 235.81 147.08 236.04 146.62 236.5C146.16 236.927 145.734 237.567 145.34 238.42V256H135.59V229.704H144.109L144.798 232.363C145.849 231.083 146.981 230.164 148.196 229.606C149.443 229.015 150.855 228.719 152.431 228.719C153.809 228.719 155.008 229.048 156.025 229.704C157.043 230.361 157.815 231.297 158.34 232.511C159.456 231.198 160.638 230.246 161.885 229.655C163.133 229.031 164.577 228.719 166.219 228.719ZM199.552 247.481C199.552 248.4 199.667 249.09 199.897 249.549C200.126 249.976 200.537 250.304 201.128 250.534L199.158 256.788C197.385 256.657 195.941 256.328 194.825 255.803C193.708 255.245 192.789 254.359 192.067 253.144C190.36 255.705 187.717 256.985 184.139 256.985C181.545 256.985 179.444 256.213 177.836 254.67C176.26 253.095 175.472 251.076 175.472 248.614C175.472 245.692 176.555 243.459 178.722 241.917C180.889 240.374 184.04 239.602 188.177 239.602H190.048V238.962C190.048 237.649 189.785 236.762 189.26 236.303C188.735 235.843 187.734 235.613 186.256 235.613C185.468 235.613 184.451 235.745 183.203 236.007C181.989 236.237 180.741 236.565 179.461 236.992L177.343 230.788C178.952 230.131 180.692 229.622 182.563 229.261C184.467 228.9 186.191 228.719 187.734 228.719C191.87 228.719 194.874 229.524 196.745 231.132C198.616 232.708 199.552 235.137 199.552 238.42V247.481ZM187.143 250.14C187.734 250.14 188.275 249.992 188.768 249.697C189.293 249.401 189.72 249.024 190.048 248.564V244.674H189.014C187.635 244.674 186.617 244.92 185.961 245.413C185.304 245.905 184.976 246.66 184.976 247.678C184.976 248.433 185.173 249.04 185.567 249.5C185.961 249.927 186.486 250.14 187.143 250.14ZM207.382 217.886C208.728 217.886 209.844 218.313 210.731 219.166C211.617 220.02 212.06 221.103 212.06 222.416C212.06 223.204 211.929 224.025 211.666 224.879C211.404 225.699 210.944 226.766 210.288 228.079L207.284 234.235H202.655L204.723 226.307C203.311 225.322 202.606 224.009 202.606 222.367C202.606 221.087 203.065 220.02 203.984 219.166C204.904 218.313 206.036 217.886 207.382 217.886ZM225.907 228.719C227.844 228.719 229.698 229.031 231.471 229.655C233.277 230.246 234.787 231.067 236.002 232.117L232.555 237.386C231.603 236.795 230.585 236.336 229.501 236.007C228.418 235.646 227.351 235.466 226.301 235.466C224.823 235.466 224.085 235.86 224.085 236.648C224.085 236.976 224.183 237.255 224.38 237.485C224.577 237.682 225.037 237.944 225.759 238.273C226.514 238.568 227.712 238.962 229.354 239.454C231.98 240.275 233.917 241.326 235.164 242.606C236.445 243.853 237.085 245.626 237.085 247.924C237.085 249.697 236.543 251.273 235.46 252.651C234.409 254.03 232.932 255.097 231.028 255.852C229.157 256.607 227.023 256.985 224.626 256.985C222.328 256.985 220.162 256.624 218.126 255.902C216.124 255.146 214.433 254.112 213.054 252.799L217.683 247.678C218.668 248.466 219.735 249.106 220.884 249.598C222.066 250.058 223.231 250.288 224.38 250.288C225.267 250.288 225.94 250.157 226.399 249.894C226.892 249.598 227.138 249.188 227.138 248.663C227.138 248.203 227.023 247.859 226.793 247.629C226.596 247.366 226.169 247.12 225.513 246.89C224.856 246.627 223.707 246.25 222.066 245.757C216.977 244.247 214.433 241.408 214.433 237.238C214.433 235.63 214.876 234.185 215.763 232.905C216.682 231.625 217.995 230.607 219.702 229.852C221.442 229.097 223.51 228.719 225.907 228.719Z"></path>
<path fill="white" d="M57.9125 67.4327C61.0957 67.4327 63.8608 67.8828 66.2079 68.7831C68.5551 69.6512 70.4521 71.3071 71.8989 73.7507C73.378 76.1943 74.1175 79.6346 74.1175 84.0716C74.1175 90.3093 72.7028 94.6981 69.8733 97.2381C67.076 99.746 63.2338 101 58.3466 101H47.6398V67.4327H57.9125ZM57.382 74.2812V94.1033H58.9254C60.2115 94.1033 61.2243 93.7978 61.9638 93.1869C62.7354 92.576 63.2981 91.5471 63.6518 90.1003C64.0055 88.6534 64.1823 86.6439 64.1823 84.0716C64.1823 81.5316 63.9894 79.5542 63.6036 78.1395C63.2499 76.6926 62.7033 75.6959 61.9638 75.1493C61.2243 74.5705 60.2436 74.2812 59.0218 74.2812H57.382ZM97.8363 93.0422C97.8363 93.8782 97.9167 94.4891 98.0775 94.8749C98.2704 95.2286 98.624 95.518 99.1385 95.743L97.2576 101.772C95.6499 101.643 94.3156 101.322 93.2546 100.807C92.1935 100.26 91.3576 99.4245 90.7467 98.2992C89.1069 100.743 86.7597 101.965 83.7052 101.965C81.3902 101.965 79.5254 101.209 78.1107 99.6978C76.696 98.1866 75.9886 96.2093 75.9886 93.7657C75.9886 90.9362 76.9532 88.7659 78.8823 87.2548C80.8436 85.7436 83.6731 84.988 87.3706 84.988H88.721V84.3128C88.721 82.9302 88.512 82.0139 88.0941 81.5637C87.6761 81.0814 86.8401 80.8403 85.5862 80.8403C84.075 80.8403 82.1137 81.2744 79.7022 82.1425L77.6766 76.3068C79.0913 75.6637 80.6668 75.1654 82.403 74.8117C84.1714 74.458 85.8112 74.2812 87.3224 74.2812C90.9556 74.2812 93.6082 75.0368 95.2802 76.5479C96.9843 78.0591 97.8363 80.4545 97.8363 83.734V93.0422ZM86.6954 95.4054C87.4992 95.4054 88.1744 94.9392 88.721 94.0068V89.8591H88.1905C87.0973 89.8591 86.2935 90.1003 85.7791 90.5825C85.2968 91.0648 85.0556 91.8204 85.0556 92.8493C85.0556 93.6531 85.2003 94.2801 85.4897 94.7302C85.7791 95.1804 86.181 95.4054 86.6954 95.4054ZM119.009 99.7943C118.076 100.502 116.951 101.032 115.633 101.386C114.347 101.772 113.077 101.965 111.823 101.965C108.833 101.965 106.614 101.129 105.167 99.4567C103.72 97.7847 102.997 95.4376 102.997 92.4152V81.5637H100.392V75.2457H102.997V69.7959L112.353 68.7348V75.2457H117.514L116.549 81.5637H112.353V92.3188C112.353 93.8621 112.9 94.6338 113.993 94.6338C114.636 94.6338 115.311 94.4409 116.019 94.055L119.009 99.7943ZM140.977 93.0422C140.977 93.8782 141.057 94.4891 141.218 94.8749C141.411 95.2286 141.764 95.518 142.279 95.743L140.398 101.772C138.79 101.643 137.456 101.322 136.395 100.807C135.334 100.26 134.498 99.4245 133.887 98.2992C132.247 100.743 129.9 101.965 126.846 101.965C124.531 101.965 122.666 101.209 121.251 99.6978C119.836 98.1866 119.129 96.2093 119.129 93.7657C119.129 90.9362 120.094 88.7659 122.023 87.2548C123.984 85.7436 126.813 84.988 130.511 84.988H131.861V84.3128C131.861 82.9302 131.652 82.0139 131.234 81.5637C130.816 81.0814 129.981 80.8403 128.727 80.8403C127.215 80.8403 125.254 81.2744 122.843 82.1425L120.817 76.3068C122.232 75.6637 123.807 75.1654 125.543 74.8117C127.312 74.458 128.952 74.2812 130.463 74.2812C134.096 74.2812 136.749 75.0368 138.421 76.5479C140.125 78.0591 140.977 80.4545 140.977 83.734V93.0422ZM129.836 95.4054C130.64 95.4054 131.315 94.9392 131.861 94.0068V89.8591H131.331C130.238 89.8591 129.434 90.1003 128.919 90.5825C128.437 91.0648 128.196 91.8204 128.196 92.8493C128.196 93.6531 128.341 94.2801 128.63 94.7302C128.919 95.1804 129.321 95.4054 129.836 95.4054Z"></path>
<path fill="#4A5568" d="M143.967 110.019V102.881H166.249V110.019H143.967Z"></path>
<path fill="#25FFFF" d="M179.351 67.4327C182.535 67.4327 185.3 67.8828 187.647 68.7831C189.994 69.6512 191.891 71.3071 193.338 73.7507C194.817 76.1943 195.556 79.6346 195.556 84.0716C195.556 90.3093 194.142 94.6981 191.312 97.2381C188.515 99.746 184.673 101 179.786 101H169.079V67.4327H179.351ZM178.821 74.2812V94.1033H180.364C181.65 94.1033 182.663 93.7978 183.403 93.1869C184.174 92.576 184.737 91.5471 185.091 90.1003C185.444 88.6534 185.621 86.6439 185.621 84.0716C185.621 81.5316 185.428 79.5542 185.043 78.1395C184.689 76.6926 184.142 75.6959 183.403 75.1493C182.663 74.5705 181.683 74.2812 180.461 74.2812H178.821ZM215.476 82.9141L223.772 101H213.499L209.641 89.3286L206.12 101H195.944L203.853 83.2035L196.474 67.4327H206.747L209.737 77.2231L213.113 67.4327H223.241L215.476 82.9141Z"></path>
<path fill-opacity="0.07" fill="#01F0E2" d="M491.921 374.221L491.523 373.532L534.784 348.556C535.32 348.247 535.653 347.67 535.653 347.048C535.653 346.427 535.32 345.85 534.784 345.541L531.076 343.402C530.292 342.95 529.806 342.108 529.806 341.205C529.806 340.302 530.292 339.46 531.076 339.008L564.724 319.617L565.121 320.306L531.473 339.697C530.937 340.006 530.601 340.584 530.601 341.205C530.601 341.826 530.933 342.403 531.47 342.712L535.177 344.852C535.958 345.303 536.444 346.145 536.444 347.048C536.444 347.952 535.958 348.794 535.177 349.245L491.917 374.221H491.921Z"></path>
<path fill-opacity="0.07" fill="#01F0E2" d="M528.145 422.199C526.74 422.199 525.334 421.839 524.081 421.116L478.108 394.666L478.505 393.977L524.478 420.426C526.747 421.73 529.561 421.727 531.826 420.42L574.625 395.708C577.134 394.258 580.254 394.255 582.767 395.701L610.256 411.51L609.858 412.199L582.369 396.391C580.101 395.087 577.287 395.09 575.022 396.397L532.223 421.109C530.967 421.836 529.558 422.199 528.145 422.199Z"></path>
<path fill-opacity="0.07" fill="#01F0E2" d="M516.134 405.623C514.736 405.623 513.337 405.266 512.087 404.55L486.53 389.93L486.924 389.24L512.481 403.861C514.742 405.154 517.55 405.151 519.808 403.847L635.37 337.244C637.882 335.794 641.006 335.797 643.518 337.244L666.067 350.261C668.332 351.569 671.146 351.572 673.415 350.268L716.383 325.543C718.892 324.1 722.009 324.1 724.518 325.543L741.431 335.285L741.033 335.974L724.121 326.232C721.856 324.929 719.045 324.929 716.78 326.232L673.812 350.958C671.299 352.404 668.179 352.401 665.67 350.951L643.121 337.933C640.853 336.626 638.038 336.622 635.77 337.933L520.209 404.536C518.953 405.26 517.547 405.623 516.138 405.623H516.134Z"></path>
<path fill-opacity="0.07" fill="#01F0E2" d="M625.027 390.658L593.769 372.598C592.981 372.143 592.492 371.291 592.502 370.381C592.513 369.471 593.008 368.629 593.806 368.184L606.274 361.257C606.824 360.952 607.167 360.375 607.17 359.746C607.174 359.118 606.838 358.534 606.294 358.225L596.051 352.368C595.266 351.92 594.774 351.078 594.774 350.172C594.774 349.265 595.256 348.423 596.04 347.971L622.31 332.777C622.847 332.468 623.18 331.888 623.18 331.27C623.18 330.652 622.847 330.071 622.31 329.762L606.695 320.744L607.092 320.055L622.708 329.073C623.489 329.524 623.974 330.366 623.974 331.27C623.974 332.173 623.489 333.015 622.708 333.466L596.438 348.661C595.901 348.973 595.568 349.55 595.568 350.172C595.568 350.793 595.905 351.37 596.445 351.679L606.688 357.536C607.483 357.991 607.972 358.84 607.965 359.753C607.958 360.667 607.459 361.512 606.661 361.953L594.193 368.88C593.647 369.182 593.304 369.763 593.297 370.388C593.29 371.012 593.626 371.596 594.166 371.909L625.424 389.969L625.027 390.658Z"></path>
<path fill-opacity="0.07" fill="#01F0E2" d="M611.236 297.3L610.838 296.611L639.312 280.296C639.848 279.987 640.185 279.41 640.185 278.789C640.185 278.167 639.852 277.59 639.315 277.281L633.791 274.093C633.014 273.645 632.528 272.806 632.525 271.906C632.521 271.006 633 270.164 633.774 269.709L656.815 256.162C659.341 254.678 662.485 254.665 665.022 256.128L666.142 256.773C668.41 258.084 671.232 258.084 673.5 256.773L688.344 248.203L688.742 248.892L673.897 257.462C671.381 258.915 668.257 258.915 665.745 257.462L664.624 256.817C662.336 255.496 659.497 255.507 657.216 256.848L634.175 270.395C633.642 270.708 633.312 271.285 633.316 271.903C633.316 272.521 633.652 273.095 634.185 273.404L639.709 276.592C640.494 277.043 640.979 277.885 640.979 278.789C640.979 279.692 640.49 280.534 639.709 280.985L611.236 297.3Z"></path>
<path fill-opacity="0.07" fill="#01F0E2" d="M759.061 325.46L690.852 286.24C690.067 285.789 689.582 284.947 689.578 284.044C689.578 283.14 690.064 282.298 690.845 281.843L704.688 273.851C705.228 273.538 705.56 272.961 705.557 272.34C705.557 271.718 705.221 271.141 704.678 270.832L684.923 259.553C684.129 259.098 683.64 258.249 683.643 257.336C683.65 256.422 684.149 255.577 684.951 255.132L692.97 250.688L693.357 251.384L685.338 255.828C684.788 256.134 684.445 256.711 684.441 257.339C684.438 257.967 684.774 258.551 685.321 258.864L705.075 270.143C705.863 270.591 706.352 271.433 706.355 272.34C706.355 273.246 705.873 274.088 705.088 274.543L691.246 282.536C690.709 282.845 690.373 283.426 690.376 284.047C690.38 284.668 690.712 285.246 691.249 285.555L759.458 324.774L759.061 325.464V325.46Z"></path>
<path fill-opacity="0.07" fill="#01F0E2" d="M662.485 404.258L662.087 403.568L686.045 389.824C688.561 388.381 691.685 388.388 694.194 389.844L706.798 397.158C709.093 398.489 711.935 398.479 714.223 397.134L727.251 389.464C727.784 389.152 728.114 388.571 728.11 387.953C728.107 387.335 727.771 386.761 727.234 386.452L718.827 381.631C718.043 381.179 717.554 380.337 717.554 379.434C717.554 378.527 718.04 377.685 718.824 377.234L751.857 358.227L752.255 358.916L719.221 377.923C718.681 378.232 718.349 378.813 718.349 379.434C718.349 380.055 718.685 380.633 719.225 380.942L727.632 385.763C728.412 386.211 728.901 387.05 728.905 387.95C728.908 388.849 728.429 389.695 727.655 390.15L714.627 397.817C712.094 399.307 708.943 399.317 706.4 397.84L693.797 390.527C691.532 389.213 688.714 389.206 686.442 390.51L662.485 404.254V404.258Z"></path>
<path fill-opacity="0.07" fill="#01F0E2" d="M742.912 229.18C745.231 230.518 746.661 232.993 746.661 235.669C746.661 238.344 745.231 240.819 742.912 242.157L717.79 256.662C712.884 259.494 706.84 259.494 701.934 256.662L677.086 242.317C674.767 240.979 673.338 238.504 673.338 235.828C673.338 233.153 674.767 230.678 677.086 229.34L702.209 214.835C707.115 212.003 713.159 212.003 718.065 214.835L742.912 229.18Z"></path>
<path fill="#25FFFF" d="M709.864 251.781C707.053 251.781 704.245 251.058 701.739 249.612L676.892 235.266C674.457 233.861 672.946 231.243 672.946 228.431C672.946 225.62 674.457 223.002 676.892 221.597L702.014 207.092C707.025 204.199 713.253 204.199 718.267 207.092L743.115 221.437C745.549 222.843 747.06 225.46 747.06 228.272C747.06 231.083 745.549 233.701 743.115 235.107L717.992 249.612C715.487 251.058 712.675 251.781 709.867 251.781H709.864ZM710.139 205.716C707.467 205.716 704.795 206.406 702.411 207.781L677.289 222.286C675.099 223.549 673.741 225.905 673.741 228.431C673.741 230.958 675.099 233.314 677.289 234.577L702.136 248.922C706.903 251.676 712.825 251.676 717.592 248.922L742.714 234.417C744.904 233.154 746.262 230.798 746.262 228.272C746.262 225.746 744.904 223.389 742.714 222.126L717.867 207.781C715.483 206.406 712.811 205.716 710.139 205.716Z"></path>
<path fill="#25FFFF" d="M612.834 289.623L612.436 288.934L639.311 273.471C639.847 273.162 640.183 272.585 640.183 271.964C640.183 271.342 639.851 270.765 639.314 270.456L633.79 267.265C633.012 266.816 632.527 265.978 632.523 265.078C632.52 264.178 632.999 263.336 633.773 262.881L656.814 249.334C659.34 247.85 662.484 247.836 665.02 249.3L666.141 249.945C668.409 251.256 671.23 251.256 673.499 249.945L688.343 241.375L688.74 242.064L673.896 250.634C671.38 252.087 668.256 252.087 665.744 250.634L664.623 249.989C662.335 248.668 659.496 248.678 657.214 250.02L634.173 263.567C633.64 263.879 633.311 264.457 633.314 265.075C633.314 265.693 633.651 266.266 634.184 266.575L639.708 269.764C640.492 270.215 640.978 271.057 640.978 271.96C640.978 272.864 640.489 273.706 639.708 274.157L612.834 289.62V289.623Z"></path>
<path fill="#25FFFF" d="M491.921 367.401L491.523 366.712L534.784 341.736C535.32 341.427 535.653 340.849 535.653 340.228C535.653 339.607 535.32 339.029 534.784 338.72L531.076 336.581C530.292 336.13 529.806 335.288 529.806 334.385C529.806 333.481 530.292 332.639 531.076 332.188L564.724 312.797L565.121 313.486L531.473 332.877C530.937 333.186 530.601 333.763 530.601 334.385C530.601 335.006 530.933 335.583 531.47 335.892L535.177 338.031C535.958 338.483 536.444 339.325 536.444 340.228C536.444 341.131 535.958 341.973 535.177 342.425L491.917 367.401H491.921Z"></path>
<path fill="#25FFFF" d="M458.918 396.625C456.106 396.625 453.298 395.902 450.793 394.455L425.945 380.11C423.511 378.704 422 376.086 422 373.275C422 370.464 423.511 367.846 425.945 366.44L451.068 351.935C456.079 349.042 462.306 349.042 467.321 351.935L492.169 366.281C494.603 367.686 496.114 370.304 496.114 373.116C496.114 375.927 494.603 378.545 492.169 379.95L467.046 394.455C464.541 395.902 461.729 396.625 458.921 396.625H458.918ZM459.193 350.56C456.521 350.56 453.849 351.249 451.465 352.625L426.343 367.13C424.153 368.393 422.795 370.749 422.795 373.275C422.795 375.801 424.153 378.158 426.343 379.421L451.19 393.766C455.957 396.52 461.882 396.52 466.649 393.766L491.771 379.261C493.961 377.998 495.32 375.642 495.32 373.116C495.32 370.589 493.961 368.233 491.771 366.97L466.924 352.625C464.541 351.249 461.868 350.56 459.196 350.56H459.193Z"></path>
<path fill="#25FFFF" d="M528.145 415.371C526.74 415.371 525.334 415.011 524.081 414.288L478.108 387.838L478.505 387.148L524.478 413.598C526.747 414.902 529.561 414.902 531.826 413.592L574.625 388.88C577.134 387.43 580.254 387.427 582.767 388.873L610.256 404.682L609.858 405.371L582.369 389.563C580.101 388.259 577.287 388.262 575.022 389.569L532.223 414.281C530.967 415.007 529.558 415.371 528.145 415.371Z"></path>
<path fill="#25FFFF" d="M516.134 398.803C514.736 398.803 513.337 398.446 512.087 397.73L486.53 383.109L486.924 382.42L512.481 397.04C514.742 398.334 517.55 398.331 519.808 397.027L635.37 330.423C637.882 328.974 641.006 328.977 643.518 330.423L666.067 343.441C668.332 344.748 671.146 344.752 673.415 343.448L716.383 318.723C718.892 317.28 722.009 317.28 724.518 318.723L741.431 328.464L741.033 329.153L724.121 319.412C721.856 318.108 719.045 318.108 716.78 319.412L673.812 344.137C671.299 345.584 668.179 345.58 665.67 344.13L643.121 331.113C640.853 329.805 638.038 329.802 635.77 331.113L520.209 397.719C518.953 398.443 517.547 398.806 516.138 398.806L516.134 398.803Z"></path>
<path fill="#25FFFF" d="M625.027 383.838L593.769 365.778C592.981 365.323 592.492 364.47 592.502 363.56C592.509 362.647 593.008 361.808 593.806 361.364L606.274 354.437C606.824 354.132 607.167 353.554 607.17 352.926C607.174 352.298 606.838 351.714 606.294 351.405L596.051 345.548C595.266 345.1 594.774 344.258 594.774 343.351C594.774 342.445 595.256 341.603 596.04 341.151L622.31 325.957C622.847 325.648 623.18 325.067 623.18 324.449C623.18 323.828 622.847 323.251 622.31 322.942L606.695 313.924L607.092 313.234L622.708 322.252C623.489 322.704 623.974 323.546 623.974 324.449C623.974 325.352 623.489 326.194 622.708 326.646L596.438 341.84C595.901 342.153 595.568 342.73 595.568 343.351C595.568 343.973 595.905 344.55 596.445 344.859L606.688 350.716C607.483 351.171 607.972 352.02 607.965 352.933C607.958 353.846 607.459 354.692 606.661 355.133L594.193 362.06C593.647 362.365 593.304 362.943 593.297 363.567C593.29 364.192 593.626 364.776 594.166 365.088L625.424 383.148L625.027 383.838Z"></path>
<path fill="#25FFFF" d="M759.061 318.624L690.852 279.404C690.067 278.953 689.582 278.111 689.578 277.208C689.578 276.304 690.064 275.462 690.845 275.007L704.688 267.015C705.228 266.702 705.56 266.125 705.557 265.504C705.557 264.882 705.221 264.305 704.678 263.996L684.923 252.717C684.129 252.262 683.64 251.413 683.643 250.5C683.65 249.586 684.149 248.741 684.951 248.296L692.97 243.852L693.357 244.548L685.338 248.992C684.788 249.298 684.445 249.875 684.441 250.503C684.438 251.131 684.774 251.715 685.321 252.028L705.075 263.307C705.863 263.755 706.352 264.597 706.355 265.504C706.355 266.41 705.873 267.252 705.088 267.707L691.246 275.7C690.709 276.009 690.373 276.59 690.376 277.211C690.376 277.832 690.712 278.41 691.249 278.719L759.458 317.938L759.061 318.628V318.624Z"></path>
<path fill-opacity="0.07" fill="#01F0E2" d="M804.92 338.274C807.239 339.612 808.669 342.087 808.669 344.762C808.669 347.438 807.239 349.913 804.92 351.251L779.798 365.756C774.892 368.588 768.848 368.588 763.942 365.756L739.094 351.411C736.775 350.073 735.346 347.598 735.346 344.922C735.346 342.246 736.775 339.771 739.094 338.433L764.217 323.928C769.123 321.097 775.167 321.097 780.073 323.928L804.92 338.274Z"></path>
<path fill="#25FFFF" d="M771.869 360.883C769.057 360.883 766.249 360.16 763.743 358.713L738.896 344.368C736.462 342.962 734.951 340.344 734.951 337.533C734.951 334.722 736.462 332.104 738.896 330.698L764.018 316.193C769.03 313.3 775.257 313.3 780.272 316.193L805.119 330.538C807.554 331.944 809.065 334.562 809.065 337.373C809.065 340.185 807.554 342.803 805.119 344.208L779.997 358.713C777.491 360.16 774.68 360.883 771.872 360.883H771.869ZM772.144 314.818C769.471 314.818 766.799 315.507 764.416 316.882L739.293 331.387C737.103 332.65 735.745 335.007 735.745 337.533C735.745 340.059 737.103 342.415 739.293 343.679L764.141 358.024C768.908 360.778 774.829 360.778 779.596 358.024L804.719 343.519C806.909 342.256 808.267 339.9 808.267 337.373C808.267 334.847 806.909 332.491 804.719 331.228L779.871 316.882C777.488 315.507 774.816 314.818 772.144 314.818Z"></path>
<path fill="#25FFFF" d="M662.485 397.437L662.087 396.748L686.045 383.004C688.561 381.56 691.685 381.567 694.194 383.024L706.798 390.338C709.093 391.668 711.935 391.658 714.223 390.314L727.251 382.644C727.784 382.331 728.114 381.751 728.11 381.133C728.107 380.515 727.771 379.941 727.234 379.632L718.827 374.811C718.043 374.359 717.554 373.517 717.554 372.614C717.554 371.707 718.04 370.865 718.824 370.413L751.857 351.406L752.255 352.095L719.221 371.103C718.681 371.412 718.349 371.992 718.349 372.614C718.349 373.235 718.685 373.812 719.225 374.121L727.632 378.943C728.412 379.391 728.901 380.23 728.905 381.129C728.908 382.029 728.429 382.875 727.655 383.329L714.627 390.996C712.094 392.487 708.943 392.497 706.4 391.02L693.797 383.706C691.532 382.392 688.714 382.386 686.442 383.689L662.485 397.434V397.437Z"></path>
<path fill="#25FFFF" d="M641.186 437.297C638.375 437.297 635.567 436.574 633.061 435.127L608.214 420.782C605.779 419.376 604.268 416.758 604.268 413.947C604.268 411.136 605.779 408.518 608.214 407.112L633.336 392.607C638.348 389.714 644.575 389.714 649.59 392.607L674.437 406.953C676.871 408.358 678.382 410.976 678.382 413.787C678.382 416.599 676.871 419.217 674.437 420.622L649.315 435.127C646.809 436.574 643.997 437.297 641.189 437.297H641.186ZM641.461 391.232C638.789 391.232 636.117 391.921 633.733 393.296L608.611 407.801C606.421 409.064 605.063 411.421 605.063 413.947C605.063 416.473 606.421 418.83 608.611 420.093L633.458 434.438C638.225 437.192 644.147 437.192 648.914 434.438L674.036 419.933C676.226 418.67 677.584 416.314 677.584 413.787C677.584 411.261 676.226 408.905 674.036 407.642L649.189 393.296C646.805 391.921 644.133 391.232 641.461 391.232Z"></path>
<path fill="#11C0D8" d="M495.323 327.106C495.323 324.431 493.893 321.955 491.574 320.618L466.727 306.272C461.821 303.441 455.777 303.441 450.871 306.272L425.748 320.777C423.429 322.115 422 324.59 422 327.266C422 327.353 422.002 327.439 422.005 327.526V364.73C422.005 367.409 423.434 369.88 425.753 371.218L450.6 385.564C455.507 388.395 461.55 388.395 466.457 385.564L491.579 371.059C493.898 369.721 495.327 367.246 495.327 364.57C495.327 364.166 495.29 333.373 495.226 332.98H495.222V328.331C495.289 327.93 495.323 327.52 495.323 327.106Z" clip-rule="evenodd" fill-rule="evenodd"></path>
<path fill-opacity="0.07" fill="#01F0E2" d="M491.97 374C494.289 375.338 495.718 377.813 495.718 380.489C495.718 383.165 494.289 385.64 491.97 386.978L466.847 401.483C461.941 404.314 455.897 404.314 450.991 401.483L426.144 387.137C423.825 385.799 422.395 383.324 422.395 380.649C422.395 377.973 423.825 375.498 426.144 374.16L451.266 359.655C456.172 356.823 462.216 356.823 467.122 359.655L491.97 374Z"></path>
<path stroke-width="1.75939" stroke="white" d="M491.135 321.379L491.135 321.38C493.182 322.56 494.443 324.745 494.443 327.106C494.443 329.467 493.182 331.652 491.135 332.833L491.135 332.833L466.012 347.338C466.012 347.338 466.012 347.338 466.012 347.338C461.378 350.012 455.67 350.012 451.036 347.338C451.036 347.338 451.036 347.338 451.036 347.338L426.188 332.992L426.188 332.992C424.141 331.812 422.88 329.627 422.88 327.266C422.88 324.905 424.141 322.72 426.188 321.539L426.188 321.539L451.311 307.034C451.311 307.034 451.311 307.034 451.311 307.034C455.945 304.359 461.653 304.359 466.287 307.034C466.287 307.034 466.287 307.034 466.287 307.034L491.135 321.379Z" opacity="0.25"></path>
<path stroke-width="1.75939" stroke="white" d="M491.135 359.208L491.135 359.208C493.182 360.388 494.443 362.573 494.443 364.934C494.443 367.295 493.182 369.48 491.135 370.661L491.135 370.661L466.012 385.166C466.012 385.166 466.012 385.166 466.012 385.166C461.378 387.841 455.67 387.841 451.036 385.166C451.036 385.166 451.036 385.166 451.036 385.166L426.188 370.821L426.188 370.82C424.141 369.64 422.88 367.455 422.88 365.094C422.88 362.733 424.141 360.548 426.188 359.367L426.188 359.367L451.311 344.862C451.311 344.862 451.311 344.862 451.311 344.862C455.945 342.188 461.653 342.188 466.287 344.862C466.287 344.862 466.287 344.862 466.287 344.862L491.135 359.208Z" opacity="0.25"></path>
<path fill="#B5F7FF" d="M491.574 320.618C493.893 321.955 495.323 324.431 495.323 327.106C495.323 329.782 493.893 332.257 491.574 333.595L466.452 348.1C461.546 350.931 455.502 350.931 450.596 348.1L425.748 333.754C423.429 332.417 422 329.941 422 327.266C422 324.59 423.429 322.115 425.748 320.777L450.871 306.272C455.777 303.441 461.821 303.441 466.727 306.272L491.574 320.618Z" opacity="0.38"></path>
<rect stroke-width="0.879693" stroke="white" height="36.9471" width="0.879693" y="350.33" x="457.628" opacity="0.25"></rect>
<rect stroke-width="0.879693" stroke="white" height="36.9471" width="0.879693" y="306.346" x="457.628" opacity="0.25"></rect>
<g filter="url(#filter0_dd_8755_9097)">
<path fill="white" d="M462.05 308.327C462.887 308.574 463.379 309.41 463.133 310.247L456.834 332.291C456.588 333.127 455.752 333.619 454.915 333.373C454.079 333.127 453.587 332.291 453.833 331.454L460.131 309.41C460.377 308.574 461.214 308.081 462.05 308.327ZM466.036 314.232C466.626 313.593 467.66 313.593 468.25 314.232L473.761 319.743C474.401 320.334 474.401 321.367 473.761 321.958L468.25 327.469C467.66 328.108 466.626 328.108 466.036 327.469C465.396 326.878 465.396 325.845 466.036 325.254L470.415 320.826L466.036 316.446C465.396 315.856 465.396 314.823 466.036 314.232ZM450.93 314.232C451.569 314.823 451.569 315.856 450.93 316.446L446.55 320.826L450.93 325.254C451.569 325.845 451.569 326.878 450.93 327.469C450.339 328.108 449.306 328.108 448.715 327.469L443.204 321.958C442.564 321.367 442.564 320.334 443.204 319.743L448.715 314.232C449.306 313.593 450.339 313.593 450.93 314.232Z"></path>
</g>
<path fill-opacity="0.07" fill="#01F0E2" d="M619.395 300.657C621.714 301.994 623.143 304.47 623.143 307.145C623.143 309.821 621.714 312.296 619.395 313.634L594.272 328.139C589.366 330.971 583.322 330.971 578.416 328.139L553.569 313.793C551.25 312.456 549.82 309.98 549.82 307.305C549.82 304.629 551.25 302.154 553.569 300.816L578.691 286.311C583.597 283.48 589.641 283.48 594.547 286.311L619.395 300.657Z"></path>
<path fill="#25FFFF" d="M586.344 323.174C583.549 323.174 580.752 322.454 578.259 321.015L553.412 306.669C551.005 305.28 549.507 302.686 549.507 299.909C549.507 297.132 551.005 294.538 553.412 293.149L578.534 278.644C583.522 275.765 589.715 275.765 594.703 278.644L619.55 292.989C621.958 294.378 623.455 296.972 623.455 299.749C623.455 302.527 621.958 305.121 619.55 306.51L594.428 321.015C591.936 322.454 589.138 323.174 586.344 323.174ZM586.619 277.109C583.933 277.109 581.244 277.802 578.847 279.184L553.724 293.689C551.511 294.965 550.136 297.349 550.136 299.906C550.136 302.462 551.511 304.846 553.724 306.123L578.572 320.468C583.366 323.235 589.318 323.235 594.112 320.468L619.235 305.963C621.448 304.683 622.824 302.303 622.824 299.746C622.824 297.189 621.448 294.806 619.235 293.529L594.387 279.184C591.99 277.798 589.305 277.109 586.615 277.109H586.619Z"></path>
<path fill="#11C0D8" d="M586.344 315.119C583.549 315.119 580.752 314.4 578.259 312.96L553.412 298.614C551.005 297.226 549.507 294.632 549.507 291.854C549.507 289.077 551.005 286.483 553.412 285.094L578.534 270.589C583.522 267.71 589.715 267.71 594.703 270.589L619.55 284.935C621.958 286.323 623.455 288.917 623.455 291.695C623.455 294.472 621.958 297.066 619.55 298.455L594.428 312.96C591.936 314.4 589.138 315.119 586.344 315.119ZM586.619 269.054C583.933 269.054 581.244 269.747 578.847 271.129L553.724 285.634C551.511 286.911 550.136 289.294 550.136 291.851C550.136 294.408 551.511 296.791 553.724 298.068L578.572 312.413C583.366 315.18 589.318 315.18 594.112 312.413L619.235 297.908C621.448 296.628 622.824 294.248 622.824 291.691C622.824 289.135 621.448 286.751 619.235 285.474L594.387 271.129C591.99 269.744 589.305 269.054 586.615 269.054H586.619Z"></path>
<path fill="#11C0D8" d="M586.344 307.065C583.549 307.065 580.752 306.345 578.259 304.905L553.412 290.56C551.005 289.171 549.507 286.577 549.507 283.8C549.507 281.022 551.005 278.428 553.412 277.039L578.534 262.534C583.522 259.655 589.715 259.655 594.703 262.534L619.55 276.88C621.958 278.272 623.455 280.863 623.455 283.64C623.455 286.417 621.958 289.012 619.55 290.4L594.428 304.905C591.936 306.345 589.138 307.065 586.344 307.065ZM586.619 261C583.933 261 581.244 261.692 578.847 263.074L553.724 277.579C551.511 278.859 550.136 281.24 550.136 283.796C550.136 286.353 551.511 288.736 553.724 290.013L578.572 304.359C583.366 307.126 589.318 307.126 594.112 304.359L619.235 289.854C621.448 288.577 622.824 286.193 622.824 283.637C622.824 281.08 621.448 278.696 619.235 277.42L594.387 263.074C591.99 261.689 589.305 261 586.615 261H586.619Z"></path>
<path fill="#25FFFF" d="M623.039 244.689V239.015H618.73L594.548 225.053C589.642 222.222 583.598 222.222 578.692 225.053L554.51 239.015H549.825V276.439C549.825 279.118 551.254 281.59 553.573 282.928L578.42 297.273C583.327 300.105 589.37 300.105 594.277 297.273L619.399 282.768C621.718 281.43 623.148 278.955 623.148 276.279C623.148 275.875 623.11 245.083 623.046 244.689H623.039Z"></path>
<path fill="#E0FFFF" d="M619.395 232.329C621.714 233.666 623.143 236.142 623.143 238.817C623.143 241.493 621.714 243.968 619.395 245.306L594.272 259.811C589.366 262.642 583.322 262.642 578.416 259.811L553.569 245.465C551.25 244.127 549.82 241.652 549.82 238.977C549.82 236.301 551.25 233.826 553.569 232.488L578.691 217.983C583.597 215.151 589.641 215.151 594.547 217.983L619.395 232.329Z"></path>
<path fill="#87EEFF" d="M586.408 254.002C584.44 254.002 582.468 253.495 580.713 252.48L563.85 242.736C562.086 241.717 560.992 239.819 560.992 237.782C560.992 235.744 562.086 233.847 563.85 232.828L580.903 222.975C584.413 220.946 588.778 220.946 592.292 222.975L609.155 232.719C610.919 233.738 612.014 235.635 612.014 237.673C612.014 239.711 610.919 241.608 609.155 242.627L592.102 252.48C590.347 253.495 588.375 254.002 586.408 254.002ZM586.593 222.703C584.843 222.703 583.088 223.156 581.527 224.057L564.474 233.91C563.099 234.707 562.245 236.188 562.245 237.777C562.245 239.367 563.099 240.847 564.474 241.644L581.337 251.389C584.463 253.196 588.344 253.196 591.469 251.389L608.522 241.536C609.897 240.739 610.752 239.258 610.752 237.669C610.752 236.079 609.897 234.598 608.522 233.802L591.659 224.057C590.099 223.156 588.344 222.703 586.593 222.703Z"></path>
<path fill="#45A5B8" d="M608.617 233.339C610.176 234.235 611.134 235.887 611.134 237.677C611.134 239.467 610.176 241.12 608.617 242.015L591.735 251.706C588.439 253.598 584.378 253.598 581.082 251.706L564.388 242.122C562.83 241.227 561.871 239.574 561.871 237.784C561.871 235.994 562.83 234.341 564.388 233.446L581.27 223.755C584.566 221.863 588.628 221.863 591.923 223.755L608.617 233.339Z"></path>
<path fill="#43E8E1" d="M606.126 235.066C607.047 235.606 607.615 236.601 607.615 237.68C607.615 238.759 607.047 239.755 606.126 240.294L590.753 249.304C588.077 250.872 584.782 250.872 582.101 249.304L566.879 240.383C565.958 239.843 565.39 238.848 565.39 237.768C565.39 236.689 565.958 235.694 566.879 235.154L582.253 226.144C584.929 224.577 588.228 224.577 590.904 226.144L606.126 235.066Z"></path>
<path fill="url(#paint2_linear_8755_9097)" d="M607.615 173.953H565.39V236.836H565.402C565.394 236.944 565.39 237.053 565.39 237.165C565.39 238.719 566.211 240.154 567.547 240.931L581.856 249.254C584.681 250.897 588.163 250.897 590.988 249.254L605.458 240.839C606.794 240.061 607.615 238.626 607.615 237.072C607.615 236.994 607.615 236.913 607.608 236.836H607.615V173.953Z"></path>
<path fill="white" d="M577.957 185.948C579.334 185.948 580.614 186.735 581.352 187.916C582.041 189.146 582.041 190.672 581.352 191.853C580.614 193.083 579.334 193.821 577.957 193.821C576.53 193.821 575.25 193.083 574.512 191.853C573.823 190.672 573.823 189.146 574.512 187.916C575.25 186.735 576.53 185.948 577.957 185.948ZM596.064 185.948C597.442 185.948 598.722 186.735 599.46 187.916C600.149 189.146 600.149 190.672 599.46 191.853C598.722 193.083 597.442 193.821 596.064 193.821C594.638 193.821 593.358 193.083 592.62 191.853C591.931 190.672 591.931 189.146 592.62 187.916C593.358 186.735 594.638 185.948 596.064 185.948ZM570.871 200.66C570.871 197.757 573.184 195.395 576.087 195.395H578.203C578.99 195.395 579.728 195.592 580.417 195.887C580.319 196.232 580.319 196.626 580.319 196.97C580.319 198.889 581.106 200.562 582.434 201.694C582.434 201.694 582.434 201.694 582.385 201.694H571.904C571.314 201.694 570.871 201.251 570.871 200.66ZM590.799 201.694H590.75C592.079 200.562 592.866 198.889 592.866 196.97C592.866 196.626 592.866 196.232 592.817 195.887C593.457 195.592 594.195 195.395 594.982 195.395H597.098C600.001 195.395 602.363 197.757 602.363 200.66C602.363 201.251 601.871 201.694 601.28 201.694H590.799ZM581.893 196.97C581.893 195.297 582.779 193.772 584.255 192.886C585.682 192.049 587.503 192.049 588.979 192.886C590.406 193.772 591.341 195.297 591.341 196.97C591.341 198.692 590.406 200.218 588.979 201.103C587.503 201.94 585.682 201.94 584.255 201.103C582.779 200.218 581.893 198.692 581.893 196.97ZM577.169 209.862C577.169 206.221 580.072 203.268 583.714 203.268H589.471C593.112 203.268 596.064 206.221 596.064 209.862C596.064 210.551 595.474 211.141 594.736 211.141H578.449C577.76 211.141 577.169 210.6 577.169 209.862Z"></path>
<path fill="#11C0D8" d="M678.299 367.567C678.299 364.892 676.87 362.416 674.551 361.079L649.703 346.733C644.797 343.901 638.753 343.901 633.847 346.733L608.725 361.238C606.406 362.576 604.976 365.051 604.976 367.727C604.976 367.814 604.978 367.9 604.981 367.987V405.191C604.981 407.869 606.41 410.341 608.729 411.679L633.577 426.025C638.483 428.856 644.527 428.856 649.433 426.025L674.555 411.52C676.874 410.182 678.304 407.707 678.304 405.031C678.304 404.627 678.266 373.834 678.202 373.44H678.198V368.792C678.265 368.391 678.299 367.981 678.299 367.567Z" clip-rule="evenodd" fill-rule="evenodd"></path>
<path fill-opacity="0.07" fill="#01F0E2" d="M674.946 414.461C677.265 415.799 678.694 418.274 678.694 420.95C678.694 423.625 677.265 426.101 674.946 427.439L649.823 441.944C644.917 444.775 638.873 444.775 633.967 441.944L609.12 427.598C606.801 426.26 605.371 423.785 605.371 421.11C605.371 418.434 606.801 415.959 609.12 414.621L634.242 400.116C639.148 397.284 645.192 397.284 650.098 400.116L674.946 414.461Z"></path>
<path stroke-width="1.75939" stroke="white" d="M674.111 361.848L674.111 361.848C676.158 363.029 677.419 365.214 677.419 367.575C677.419 369.936 676.158 372.121 674.111 373.301L674.111 373.302L648.989 387.807C648.989 387.807 648.989 387.807 648.988 387.807C644.354 390.481 638.646 390.481 634.012 387.807C634.012 387.807 634.012 387.807 634.012 387.807L609.165 373.461L609.164 373.461C607.117 372.28 605.856 370.096 605.856 367.735C605.856 365.373 607.117 363.189 609.164 362.008L609.165 362.008L634.287 347.503C634.287 347.503 634.287 347.503 634.287 347.503C638.921 344.828 644.629 344.828 649.264 347.503C649.264 347.503 649.264 347.503 649.264 347.503L674.111 361.848Z" opacity="0.25"></path>
<path stroke-width="1.75939" stroke="white" d="M674.111 399.676L674.111 399.677C676.158 400.857 677.419 403.042 677.419 405.403C677.419 407.764 676.158 409.949 674.111 411.13L674.111 411.13L648.989 425.635C648.989 425.635 648.989 425.635 648.988 425.635C644.354 428.309 638.646 428.309 634.012 425.635C634.012 425.635 634.012 425.635 634.012 425.635L609.165 411.289L609.164 411.289C607.117 410.108 605.856 407.924 605.856 405.563C605.856 403.202 607.117 401.017 609.164 399.836L609.165 399.836L634.287 385.331C634.287 385.331 634.287 385.331 634.287 385.331C638.921 382.656 644.629 382.656 649.264 385.331C649.264 385.331 649.264 385.331 649.264 385.331L674.111 399.676Z" opacity="0.25"></path>
<path fill="#B5F7FF" d="M674.551 361.086C676.87 362.424 678.299 364.899 678.299 367.575C678.299 370.25 676.87 372.726 674.551 374.063L649.428 388.568C644.522 391.4 638.478 391.4 633.572 388.568L608.725 374.223C606.406 372.885 604.976 370.41 604.976 367.735C604.976 365.059 606.406 362.584 608.725 361.246L633.847 346.741C638.753 343.909 644.797 343.909 649.703 346.741L674.551 361.086Z" opacity="0.38"></path>
<rect stroke-width="0.879693" stroke="white" height="36.9471" width="0.879693" y="390.799" x="640.604" opacity="0.25"></rect>
<rect stroke-width="0.879693" stroke="white" height="36.9471" width="0.879693" y="346.815" x="640.604" opacity="0.25"></rect>
<g filter="url(#filter1_dd_8755_9097)">
<path fill="white" d="M635.185 348.69H641.483C642.32 348.69 643.058 349.428 643.058 350.265V356.563C643.058 357.449 642.32 358.138 641.483 358.138C640.598 358.138 639.909 357.449 639.909 356.563V354.103L629.969 363.993C629.379 364.633 628.345 364.633 627.755 363.993C627.115 363.403 627.115 362.369 627.755 361.779L637.645 351.839H635.185C634.299 351.839 633.61 351.15 633.61 350.265C633.61 349.428 634.299 348.69 635.185 348.69ZM655.655 352.626C655.655 353.512 655.163 354.25 654.474 354.693C653.736 355.136 652.801 355.136 652.112 354.693C651.374 354.25 650.931 353.512 650.931 352.626C650.931 351.79 651.374 351.052 652.112 350.609C652.801 350.166 653.736 350.166 654.474 350.609C655.163 351.052 655.655 351.79 655.655 352.626ZM649.356 358.925C649.356 359.811 648.864 360.549 648.175 360.992C647.437 361.434 646.502 361.434 645.814 360.992C645.076 360.549 644.633 359.811 644.633 358.925C644.633 358.088 645.076 357.35 645.814 356.907C646.502 356.465 647.437 356.465 648.175 356.907C648.864 357.35 649.356 358.088 649.356 358.925ZM646.995 367.585C646.109 367.585 645.371 367.142 644.928 366.404C644.485 365.715 644.485 364.78 644.928 364.042C645.371 363.353 646.109 362.861 646.995 362.861C647.831 362.861 648.569 363.353 649.012 364.042C649.455 364.78 649.455 365.715 649.012 366.404C648.569 367.142 647.831 367.585 646.995 367.585ZM649.356 371.522C649.356 372.407 648.864 373.145 648.175 373.588C647.437 374.031 646.502 374.031 645.814 373.588C645.076 373.145 644.633 372.407 644.633 371.522C644.633 370.685 645.076 369.947 645.814 369.504C646.502 369.061 647.437 369.061 648.175 369.504C648.864 369.947 649.356 370.685 649.356 371.522ZM655.655 371.522C655.655 372.407 655.163 373.145 654.474 373.588C653.736 374.031 652.801 374.031 652.112 373.588C651.374 373.145 650.931 372.407 650.931 371.522C650.931 370.685 651.374 369.947 652.112 369.504C652.801 369.061 653.736 369.061 654.474 369.504C655.163 369.947 655.655 370.685 655.655 371.522ZM640.696 367.585C639.81 367.585 639.072 367.142 638.629 366.404C638.187 365.715 638.187 364.78 638.629 364.042C639.072 363.353 639.81 362.861 640.696 362.861C641.533 362.861 642.271 363.353 642.714 364.042C643.156 364.78 643.156 365.715 642.714 366.404C642.271 367.142 641.533 367.585 640.696 367.585ZM643.058 371.522C643.058 372.407 642.566 373.145 641.877 373.588C641.139 374.031 640.204 374.031 639.515 373.588C638.777 373.145 638.334 372.407 638.334 371.522C638.334 370.685 638.777 369.947 639.515 369.504C640.204 369.061 641.139 369.061 641.877 369.504C642.566 369.947 643.058 370.685 643.058 371.522ZM634.398 373.884C633.512 373.884 632.774 373.441 632.331 372.703C631.888 372.014 631.888 371.079 632.331 370.341C632.774 369.652 633.512 369.16 634.398 369.16C635.234 369.16 635.972 369.652 636.415 370.341C636.858 371.079 636.858 372.014 636.415 372.703C635.972 373.441 635.234 373.884 634.398 373.884ZM655.655 365.223C655.655 366.109 655.163 366.847 654.474 367.29C653.736 367.733 652.801 367.733 652.112 367.29C651.374 366.847 650.931 366.109 650.931 365.223C650.931 364.387 651.374 363.649 652.112 363.206C652.801 362.763 653.736 362.763 654.474 363.206C655.163 363.649 655.655 364.387 655.655 365.223ZM653.293 361.287C652.407 361.287 651.669 360.844 651.226 360.106C650.783 359.417 650.783 358.482 651.226 357.744C651.669 357.055 652.407 356.563 653.293 356.563C654.129 356.563 654.868 357.055 655.31 357.744C655.753 358.482 655.753 359.417 655.31 360.106C654.868 360.844 654.129 361.287 653.293 361.287Z"></path>
</g>
<path fill="#11C0D8" d="M808.494 291.044C808.494 288.368 807.064 285.893 804.745 284.555L779.898 270.21C774.992 267.378 768.948 267.378 764.042 270.21L738.919 284.715C736.6 286.053 735.171 288.528 735.171 291.203C735.171 291.29 735.172 291.377 735.175 291.463V328.667C735.175 331.346 736.605 333.818 738.924 335.156L763.771 349.501C768.677 352.333 774.721 352.333 779.627 349.501L804.75 334.996C807.069 333.658 808.498 331.183 808.498 328.508C808.498 328.103 808.461 297.311 808.396 296.917H808.393V292.268C808.459 291.867 808.494 291.458 808.494 291.044Z" clip-rule="evenodd" fill-rule="evenodd"></path>
<path stroke-width="1.75939" stroke="white" d="M804.305 285.309L804.306 285.309C806.352 286.49 807.614 288.675 807.614 291.036C807.614 293.397 806.352 295.582 804.306 296.762L804.305 296.763L779.183 311.268C779.183 311.268 779.183 311.268 779.183 311.268C774.549 313.942 768.84 313.942 764.206 311.268C764.206 311.268 764.206 311.268 764.206 311.268L739.359 296.922L739.359 296.922C737.312 295.741 736.05 293.557 736.05 291.195C736.05 288.834 737.312 286.65 739.359 285.469L739.359 285.469L764.481 270.964C764.481 270.964 764.481 270.964 764.481 270.964C769.115 268.289 774.824 268.289 779.458 270.964C779.458 270.964 779.458 270.964 779.458 270.964L804.305 285.309Z" opacity="0.25"></path>
<path stroke-width="1.75939" stroke="white" d="M804.305 323.137L804.306 323.137C806.352 324.318 807.614 326.503 807.614 328.864C807.614 331.225 806.352 333.41 804.306 334.591L804.305 334.591L779.183 349.096C779.183 349.096 779.183 349.096 779.183 349.096C774.549 351.77 768.84 351.77 764.206 349.096C764.206 349.096 764.206 349.096 764.206 349.096L739.359 334.75L739.359 334.75C737.312 333.569 736.05 331.385 736.05 329.024C736.05 326.663 737.312 324.478 739.359 323.297L739.359 323.297L764.481 308.792C764.481 308.792 764.481 308.792 764.481 308.792C769.115 306.117 774.824 306.117 779.458 308.792C779.458 308.792 779.458 308.792 779.458 308.792L804.305 323.137Z" opacity="0.25"></path>
<path fill="#B5F7FF" d="M804.745 284.547C807.064 285.885 808.494 288.36 808.494 291.036C808.494 293.711 807.064 296.187 804.745 297.524L779.623 312.029C774.716 314.861 768.673 314.861 763.766 312.029L738.919 297.684C736.6 296.346 735.171 293.871 735.171 291.195C735.171 288.52 736.6 286.045 738.919 284.707L764.041 270.202C768.948 267.37 774.992 267.37 779.898 270.202L804.745 284.547Z" opacity="0.38"></path>
<rect stroke-width="0.879693" stroke="white" height="36.9471" width="0.879693" y="314.268" x="770.798" opacity="0.25"></rect>
<rect stroke-width="0.879693" stroke="white" height="36.9471" width="0.879693" y="270.284" x="770.798" opacity="0.25"></rect>
<g filter="url(#filter2_dd_8755_9097)">
<path fill="white" d="M762.919 272.405L768.037 276.341C768.332 276.587 768.529 276.932 768.529 277.276V279.933L773.892 285.297C775.319 284.608 777.091 284.854 778.272 286.035L783.783 291.546C784.422 292.136 784.422 293.17 783.783 293.76L780.633 296.909C780.043 297.549 779.01 297.549 778.419 296.909L772.908 291.398C771.727 290.217 771.481 288.397 772.219 286.97L766.856 281.606H764.149C763.805 281.606 763.46 281.459 763.214 281.163L759.278 276.046C758.934 275.554 758.983 274.914 759.426 274.471L761.394 272.503C761.787 272.11 762.476 272.06 762.919 272.405ZM760.016 291.694L767.348 284.362L770.399 287.413C770.103 288.446 770.153 289.578 770.546 290.611L764.74 296.417C764.149 297.008 763.264 297.352 762.378 297.352C760.557 297.352 759.081 295.876 759.081 294.056C759.081 293.17 759.426 292.284 760.016 291.694ZM784.275 279.244C784.275 282.098 782.602 284.559 780.191 285.69L779.403 284.903C778.026 283.525 776.057 283.033 774.286 283.525L770.103 279.294V279.244C770.103 275.357 773.253 272.159 777.189 272.159C777.681 272.159 778.173 272.257 778.665 272.356C779.206 272.454 779.354 273.143 778.96 273.537L775.811 276.686C775.664 276.833 775.614 277.03 775.614 277.227V280.081C775.614 280.475 775.959 280.868 776.402 280.868H779.206C779.403 280.868 779.6 280.77 779.748 280.622L782.897 277.473C783.291 277.079 783.979 277.227 784.078 277.768C784.176 278.26 784.275 278.752 784.275 279.244ZM761.837 293.416C761.837 294.105 762.329 294.597 763.018 294.597C763.657 294.597 764.199 294.105 764.199 293.416C764.199 292.776 763.657 292.235 763.018 292.235C762.329 292.235 761.837 292.776 761.837 293.416Z"></path>
</g>
<path fill="#11C0D8" d="M746.915 181.958C746.915 179.282 745.486 176.807 743.167 175.469L718.319 161.124C713.413 158.292 707.369 158.292 702.463 161.124L677.341 175.629C675.022 176.967 673.592 179.442 673.592 182.117C673.592 182.203 673.594 182.289 673.597 182.374V219.581C673.597 222.26 675.026 224.732 677.345 226.07L702.192 240.415C707.099 243.247 713.142 243.247 718.049 240.415L743.171 225.91C745.49 224.572 746.919 222.097 746.919 219.422C746.919 219.018 746.882 188.225 746.818 187.831H746.814V183.183C746.881 182.782 746.915 182.372 746.915 181.958Z" clip-rule="evenodd" fill-rule="evenodd"></path>
<path stroke-width="1.75939" stroke="white" d="M742.727 176.231L742.727 176.231C744.774 177.412 746.035 179.597 746.035 181.958C746.035 184.319 744.774 186.504 742.727 187.684L742.727 187.684L717.605 202.189C717.605 202.189 717.604 202.189 717.604 202.189C712.97 204.864 707.262 204.864 702.628 202.189C702.628 202.189 702.628 202.189 702.628 202.189L677.78 187.844L677.78 187.844C675.733 186.663 674.472 184.478 674.472 182.117C674.472 179.756 675.733 177.572 677.78 176.391L677.781 176.391L702.903 161.886C702.903 161.886 702.903 161.886 702.903 161.886C707.537 159.211 713.245 159.211 717.879 161.886C717.88 161.886 717.88 161.886 717.88 161.886L742.727 176.231Z" opacity="0.25"></path>
<path stroke-width="1.75939" stroke="white" d="M742.727 214.059L742.727 214.059C744.774 215.24 746.035 217.425 746.035 219.786C746.035 222.147 744.774 224.332 742.727 225.512L742.727 225.513L717.604 240.018C717.604 240.018 717.604 240.018 717.604 240.018C712.97 242.692 707.262 242.692 702.628 240.018C702.628 240.018 702.628 240.018 702.628 240.018L677.78 225.672L677.78 225.672C675.733 224.491 674.472 222.307 674.472 219.945C674.472 217.584 675.733 215.4 677.78 214.219L677.78 214.219L702.903 199.714C702.903 199.714 702.903 199.714 702.903 199.714C707.537 197.039 713.245 197.039 717.879 199.714C717.879 199.714 717.879 199.714 717.879 199.714L742.727 214.059Z" opacity="0.25"></path>
<path fill="#B5F7FF" d="M743.167 175.469C745.486 176.807 746.915 179.282 746.915 181.958C746.915 184.633 745.486 187.109 743.167 188.446L718.044 202.951C713.138 205.783 707.094 205.783 702.188 202.951L677.341 188.606C675.022 187.268 673.592 184.793 673.592 182.117C673.592 179.442 675.022 176.967 677.341 175.629L702.463 161.124C707.369 158.292 713.413 158.292 718.319 161.124L743.167 175.469Z" opacity="0.38"></path>
<rect stroke-width="0.879693" stroke="white" height="36.9471" width="0.879693" y="205.182" x="709.22" opacity="0.25"></rect>
<rect stroke-width="0.879693" stroke="white" height="36.9471" width="0.879693" y="161.198" x="709.22" opacity="0.25"></rect>
<g filter="url(#filter3_dd_8755_9097)">
<path fill="white" d="M721.121 167.009V169.371C721.121 171.585 716.152 173.308 710.099 173.308C703.998 173.308 699.077 171.585 699.077 169.371V167.009C699.077 164.844 703.998 163.073 710.099 163.073C716.152 163.073 721.121 164.844 721.121 167.009ZM718.415 173.652C719.448 173.308 720.383 172.816 721.121 172.274V177.244C721.121 179.458 716.152 181.181 710.099 181.181C703.998 181.181 699.077 179.458 699.077 177.244V172.274C699.766 172.816 700.75 173.308 701.734 173.652C703.949 174.439 706.901 174.882 710.099 174.882C713.248 174.882 716.201 174.439 718.415 173.652ZM699.077 180.147C699.766 180.689 700.75 181.181 701.734 181.525C703.949 182.312 706.901 182.755 710.099 182.755C713.248 182.755 716.201 182.312 718.415 181.525C719.448 181.181 720.383 180.689 721.121 180.147V184.33C721.121 186.544 716.152 188.266 710.099 188.266C703.998 188.266 699.077 186.544 699.077 184.33V180.147Z"></path>
</g>
</g>
<defs>
<filter color-interpolation-filters="sRGB" filterUnits="userSpaceOnUse" height="67.7643" width="74.0617" y="291.364" x="421.452" id="filter0_dd_8755_9097">
<feFlood result="BackgroundImageFix" flood-opacity="0"></feFlood>
<feColorMatrix result="hardAlpha" values="0 0 0 0 0 0 0 0 0 0 0 0 0 0 0 0 0 0 127 0" type="matrix" in="SourceAlpha"></feColorMatrix>
<feOffset dy="7.03754"></feOffset>
<feGaussianBlur stdDeviation="5.27816"></feGaussianBlur>
<feColorMatrix values="0 0 0 0 0.0901961 0 0 0 0 0.168627 0 0 0 0 0.301961 0 0 0 0.08 0" type="matrix"></feColorMatrix>
<feBlend result="effect1_dropShadow_8755_9097" in2="BackgroundImageFix" mode="normal"></feBlend>
<feColorMatrix result="hardAlpha" values="0 0 0 0 0 0 0 0 0 0 0 0 0 0 0 0 0 0 127 0" type="matrix" in="SourceAlpha"></feColorMatrix>
<feOffset dy="4.39846"></feOffset>
<feGaussianBlur stdDeviation="10.5563"></feGaussianBlur>
<feColorMatrix values="0 0 0 0 0.0901961 0 0 0 0 0.168627 0 0 0 0 0.301961 0 0 0 0.04 0" type="matrix"></feColorMatrix>
<feBlend result="effect2_dropShadow_8755_9097" in2="effect1_dropShadow_8755_9097" mode="normal"></feBlend>
<feBlend result="shape" in2="effect2_dropShadow_8755_9097" in="SourceGraphic" mode="normal"></feBlend>
</filter>
<filter color-interpolation-filters="sRGB" filterUnits="userSpaceOnUse" height="67.569" width="70.8633" y="331.973" x="606.003" id="filter1_dd_8755_9097">
<feFlood result="BackgroundImageFix" flood-opacity="0"></feFlood>
<feColorMatrix result="hardAlpha" values="0 0 0 0 0 0 0 0 0 0 0 0 0 0 0 0 0 0 127 0" type="matrix" in="SourceAlpha"></feColorMatrix>
<feOffset dy="7.03754"></feOffset>
<feGaussianBlur stdDeviation="5.27816"></feGaussianBlur>
<feColorMatrix values="0 0 0 0 0.0901961 0 0 0 0 0.168627 0 0 0 0 0.301961 0 0 0 0.08 0" type="matrix"></feColorMatrix>
<feBlend result="effect1_dropShadow_8755_9097" in2="BackgroundImageFix" mode="normal"></feBlend>
<feColorMatrix result="hardAlpha" values="0 0 0 0 0 0 0 0 0 0 0 0 0 0 0 0 0 0 127 0" type="matrix" in="SourceAlpha"></feColorMatrix>
<feOffset dy="4.39846"></feOffset>
<feGaussianBlur stdDeviation="10.5563"></feGaussianBlur>
<feColorMatrix values="0 0 0 0 0.0901961 0 0 0 0 0.168627 0 0 0 0 0.301961 0 0 0 0.04 0" type="matrix"></feColorMatrix>
<feBlend result="effect2_dropShadow_8755_9097" in2="effect1_dropShadow_8755_9097" mode="normal"></feBlend>
<feBlend result="shape" in2="effect2_dropShadow_8755_9097" in="SourceGraphic" mode="normal"></feBlend>
</filter>
<filter color-interpolation-filters="sRGB" filterUnits="userSpaceOnUse" height="67.7096" width="67.714" y="255.348" x="737.821" id="filter2_dd_8755_9097">
<feFlood result="BackgroundImageFix" flood-opacity="0"></feFlood>
<feColorMatrix result="hardAlpha" values="0 0 0 0 0 0 0 0 0 0 0 0 0 0 0 0 0 0 127 0" type="matrix" in="SourceAlpha"></feColorMatrix>
<feOffset dy="7.03754"></feOffset>
<feGaussianBlur stdDeviation="5.27816"></feGaussianBlur>
<feColorMatrix values="0 0 0 0 0.0901961 0 0 0 0 0.168627 0 0 0 0 0.301961 0 0 0 0.08 0" type="matrix"></feColorMatrix>
<feBlend result="effect1_dropShadow_8755_9097" in2="BackgroundImageFix" mode="normal"></feBlend>
<feColorMatrix result="hardAlpha" values="0 0 0 0 0 0 0 0 0 0 0 0 0 0 0 0 0 0 127 0" type="matrix" in="SourceAlpha"></feColorMatrix>
<feOffset dy="4.39846"></feOffset>
<feGaussianBlur stdDeviation="10.5563"></feGaussianBlur>
<feColorMatrix values="0 0 0 0 0.0901961 0 0 0 0 0.168627 0 0 0 0 0.301961 0 0 0 0.04 0" type="matrix"></feColorMatrix>
<feBlend result="effect2_dropShadow_8755_9097" in2="effect1_dropShadow_8755_9097" mode="normal"></feBlend>
<feBlend result="shape" in2="effect2_dropShadow_8755_9097" in="SourceGraphic" mode="normal"></feBlend>
</filter>
<filter color-interpolation-filters="sRGB" filterUnits="userSpaceOnUse" height="67.4206" width="64.2696" y="146.356" x="677.964" id="filter3_dd_8755_9097">
<feFlood result="BackgroundImageFix" flood-opacity="0"></feFlood>
<feColorMatrix result="hardAlpha" values="0 0 0 0 0 0 0 0 0 0 0 0 0 0 0 0 0 0 127 0" type="matrix" in="SourceAlpha"></feColorMatrix>
<feOffset dy="7.03754"></feOffset>
<feGaussianBlur stdDeviation="5.27816"></feGaussianBlur>
<feColorMatrix values="0 0 0 0 0.0901961 0 0 0 0 0.168627 0 0 0 0 0.301961 0 0 0 0.08 0" type="matrix"></feColorMatrix>
<feBlend result="effect1_dropShadow_8755_9097" in2="BackgroundImageFix" mode="normal"></feBlend>
<feColorMatrix result="hardAlpha" values="0 0 0 0 0 0 0 0 0 0 0 0 0 0 0 0 0 0 127 0" type="matrix" in="SourceAlpha"></feColorMatrix>
<feOffset dy="4.39846"></feOffset>
<feGaussianBlur stdDeviation="10.5563"></feGaussianBlur>
<feColorMatrix values="0 0 0 0 0.0901961 0 0 0 0 0.168627 0 0 0 0 0.301961 0 0 0 0.04 0" type="matrix"></feColorMatrix>
<feBlend result="effect2_dropShadow_8755_9097" in2="effect1_dropShadow_8755_9097" mode="normal"></feBlend>
<feBlend result="shape" in2="effect2_dropShadow_8755_9097" in="SourceGraphic" mode="normal"></feBlend>
</filter>
<radialGradient gradientTransform="translate(595.5 289.5) rotate(97.125) scale(302.335 510.401)" gradientUnits="userSpaceOnUse" r="1" cy="0" cx="0" id="paint0_radial_8755_9097">
<stop stop-color="#083133"></stop>
<stop stop-color="#1A202C" offset="1"></stop>
</radialGradient>
<radialGradient gradientTransform="translate(557.76 253.103) rotate(90) scale(510.311 899.591)" gradientUnits="userSpaceOnUse" r="1" cy="0" cx="0" id="paint1_radial_8755_9097">
<stop stop-opacity="0.5" stop-color="#25FFFF"></stop>
<stop stop-opacity="0" stop-color="#25FFFF" offset="0.604167"></stop>
</radialGradient>
<linearGradient gradientUnits="userSpaceOnUse" y2="204.672" x2="586.503" y1="275.249" x1="586.503" id="paint2_linear_8755_9097">
<stop stop-color="#00FFFF"></stop>
<stop stop-opacity="0" stop-color="#00FFFF" offset="1"></stop>
</linearGradient>
<clipPath id="clip0_8755_9097">
<rect fill="white" height="474" width="844"></rect>
</clipPath>
</defs>
</svg>
