<svg xmlns="http://www.w3.org/2000/svg" fill="none" viewBox="0 0 844 474" height="474" width="844">
<g clip-path="url(#clip0_7957_6091)">
<rect fill="url(#paint0_linear_7957_6091)" height="474" width="844"></rect>
<circle fill="white" r="114.286" cy="237.004" cx="323.631" opacity="0.99"></circle>
<circle fill-opacity="0.2" fill="white" r="145.496" cy="237.004" cx="323.631" opacity="0.2"></circle>
<circle fill-opacity="0.2" fill="white" r="206.45" cy="236.997" cx="323.631" opacity="0.2"></circle>
<circle fill-opacity="0.2" fill="white" r="583.851" cy="236.999" cx="323.631" opacity="0.2"></circle>
<circle fill="white" r="114.286" cy="237.004" cx="519.544" opacity="0.99"></circle>
<circle fill-opacity="0.2" fill="white" r="145.496" cy="237.004" cx="519.544" opacity="0.2"></circle>
<circle fill-opacity="0.2" fill="white" r="206.45" cy="236.997" cx="519.544" opacity="0.2"></circle>
<circle fill-opacity="0.2" fill="white" r="583.851" cy="236.999" cx="519.544" opacity="0.2"></circle>
<path fill="#5966D6" d="M567.469 193.444C558.397 189.291 548.82 186.344 538.983 184.68C537.637 187.086 536.419 189.562 535.334 192.097C524.855 190.518 514.199 190.518 503.72 192.097C502.635 189.562 501.417 187.086 500.071 184.68C490.228 186.358 480.645 189.312 471.564 193.465C453.536 220.138 448.649 246.148 451.093 271.788C461.65 279.588 473.467 285.521 486.029 289.327C488.858 285.523 491.361 281.486 493.512 277.262C489.427 275.736 485.484 273.853 481.729 271.636C482.717 270.919 483.684 270.181 484.618 269.464C495.544 274.602 507.469 277.267 519.543 277.267C531.618 277.267 543.543 274.602 554.469 269.464C555.414 270.235 556.381 270.974 557.358 271.636C553.596 273.857 549.646 275.743 545.553 277.272C547.701 281.495 550.205 285.528 553.036 289.327C565.609 285.536 577.435 279.606 587.994 271.799C590.861 242.064 583.096 216.293 567.469 193.444ZM496.607 256.019C489.798 256.019 484.172 249.84 484.172 242.238C484.172 234.636 489.602 228.402 496.585 228.402C503.568 228.402 509.15 234.636 509.031 242.238C508.912 249.84 503.547 256.019 496.607 256.019ZM542.48 256.019C535.66 256.019 530.056 249.84 530.056 242.238C530.056 234.636 535.486 228.402 542.48 228.402C549.474 228.402 555.012 234.636 554.893 242.238C554.773 249.84 549.419 256.019 542.48 256.019Z"></path>
<path fill="#5A67D8" d="M274.124 251.196C272.895 253.2 272.914 255.728 274.173 257.713L296.951 293.645C298.429 295.977 301.279 297.04 303.923 296.247L369.655 276.527C373.243 275.451 375.047 271.45 373.479 268.049L331.224 176.386C329.163 171.916 322.951 171.549 320.378 175.745L274.124 251.196ZM330.101 197.341C329.203 195.263 326.162 195.583 325.716 197.802L309.448 278.805C309.104 280.513 310.704 281.972 312.373 281.473L357.789 267.916C359.114 267.521 359.797 266.056 359.248 264.787L330.101 197.341Z" clip-rule="evenodd" fill-rule="evenodd"></path>
<path fill="#4A5568" d="M430.688 238.227L419.483 249.432C418.642 250.343 417.171 250.343 416.331 249.432C415.421 248.592 415.421 247.121 416.331 246.281L423.684 238.858H402.255C400.994 238.858 400.014 237.877 400.014 236.617C400.014 235.426 400.994 234.376 402.255 234.376H423.684L416.331 227.022C415.421 226.182 415.421 224.711 416.331 223.871C417.171 222.96 418.642 222.96 419.483 223.871L430.688 235.076C431.598 235.916 431.598 237.387 430.688 238.227Z"></path>
</g>
<defs>
<linearGradient gradientUnits="userSpaceOnUse" y2="287.747" x2="893.739" y1="10.1571" x1="5.06401" id="paint0_linear_7957_6091">
<stop stop-color="#5A67D8"></stop>
<stop stop-color="#4C51BF" offset="0.745399"></stop>
<stop stop-color="#434190" offset="1"></stop>
</linearGradient>
<clipPath id="clip0_7957_6091">
<rect fill="white" height="474" width="844"></rect>
</clipPath>
</defs>
</svg>
