<svg xmlns="http://www.w3.org/2000/svg" fill="none" viewBox="0 0 844 474" height="474" width="844"><path d="M0 0h844v474H0z" fill="url(#paint0_linear_501_62)"></path><path fill="#fff" d="M235.73 233.814h1.741c1.627 0 2.844-.323 3.652-.97.808-.647 1.212-1.589 1.212-2.826 0-1.247-.339-2.169-1.015-2.765-.678-.595-1.738-.893-3.183-.893h-2.407v7.454zm11.946-3.984c0 2.702-.838 4.768-2.517 6.2-1.678 1.432-4.064 2.147-7.159 2.147h-2.27v8.931h-5.29v-25.111h7.97c3.026 0 5.327.656 6.903 1.967 1.576 1.311 2.363 3.266 2.363 5.866zM261.7 227.545c.706 0 1.291.052 1.758.155l-.392 4.912c-.422-.114-.933-.172-1.536-.172-1.662 0-2.956.429-3.884 1.288-.926.859-1.39 2.062-1.39 3.607v9.773h-5.205v-19.202h3.942l.768 3.229h.256c.592-1.076 1.391-1.944 2.398-2.603 1.007-.658 2.102-.987 3.285-.987zM266.219 247.108h5.206v-19.202h-5.206v19.202zm-.221-24.166c0-1.706.944-2.559 2.833-2.559 1.888 0 2.833.853 2.833 2.559 0 .813-.236 1.445-.708 1.898-.473.452-1.181.678-2.125.678-1.889 0-2.833-.859-2.833-2.576zM289.75 241.406c0 1.97-.679 3.47-2.039 4.5-1.36 1.03-3.394 1.546-6.101 1.546-1.389 0-2.571-.095-3.55-.284-.978-.188-1.894-.466-2.748-.833v-4.328c.968.458 2.057.842 3.269 1.151 1.211.309 2.278.463 3.199.463 1.889 0 2.834-.549 2.834-1.648 0-.412-.126-.747-.376-1.005-.25-.258-.682-.549-1.297-.876-.614-.327-1.434-.707-2.458-1.142-1.467-.618-2.546-1.191-3.233-1.718-.689-.526-1.19-1.13-1.502-1.812-.313-.681-.47-1.52-.47-2.516 0-1.706.657-3.026 1.972-3.959 1.314-.933 3.176-1.4 5.588-1.4 2.299 0 4.534.504 6.707 1.512l-1.569 3.778c-.956-.412-1.85-.75-2.68-1.013-.831-.264-1.678-.395-2.543-.395-1.536 0-2.304.418-2.304 1.253 0 .47.248.877.743 1.22.495.343 1.578.853 3.251 1.529 1.49.607 2.583 1.174 3.277 1.7.693.527 1.205 1.133 1.536 1.821.33.687.494 1.506.494 2.456zM310.371 247.108h-5.206v-11.215c0-1.386-.23-2.425-.69-3.118-.462-.692-1.187-1.039-2.177-1.039-1.33 0-2.298.492-2.901 1.477-.603.985-.904 2.605-.904 4.861v9.034h-5.206v-19.202h3.977l.7 2.456h.29c.512-.882 1.252-1.572 2.218-2.07.967-.498 2.077-.747 3.329-.747 2.855 0 4.789.939 5.802 2.817h.46c.513-.893 1.267-1.586 2.262-2.078.996-.493 2.119-.739 3.37-.739 2.162 0 3.798.558 4.907 1.674 1.109 1.117 1.664 2.906 1.664 5.368v12.521h-5.223v-11.215c0-1.386-.23-2.425-.69-3.118-.462-.692-1.187-1.039-2.177-1.039-1.274 0-2.226.458-2.859 1.374-.63.916-.946 2.37-.946 4.362v9.636zM337.413 238.211l-2.014.069c-1.513.046-2.639.321-3.379.825-.74.504-1.109 1.27-1.109 2.301 0 1.477.842 2.216 2.525 2.216 1.206 0 2.171-.35 2.893-1.048.722-.698 1.084-1.626 1.084-2.783v-1.58zm1.536 8.897l-1.007-2.611h-.137c-.876 1.112-1.778 1.881-2.705 2.311-.927.429-2.136.644-3.626.644-1.832 0-3.274-.527-4.327-1.58-1.052-1.054-1.578-2.554-1.578-4.5 0-2.038.708-3.541 2.124-4.509 1.418-.967 3.553-1.503 6.409-1.606l3.311-.103v-.842c0-1.946-.99-2.92-2.97-2.92-1.524 0-3.317.464-5.376 1.392l-1.723-3.539c2.196-1.156 4.631-1.735 7.304-1.735 2.56 0 4.523.562 5.888 1.684 1.365 1.122 2.048 2.828 2.048 5.118v12.796h-3.635zM209.859 247.526l-20.969 6.163c-.641.189-1.255-.362-1.12-1.004l7.491-35.651c.14-.667 1.067-.773 1.36-.155l13.87 29.269c.261.553-.037 1.204-.632 1.378zm3.596-1.453l-16.06-33.891c-.403-.847-1.243-1.407-2.196-1.459-.977-.056-1.853.412-2.347 1.209l-17.418 28.035c-.539.874-.528 1.951.031 2.815l8.514 13.106c.508.782 1.387 1.235 2.301 1.235.259 0 .519-.036.775-.112l24.714-7.263c.757-.223 1.376-.755 1.7-1.461.323-.705.318-1.513-.014-2.214z" clip-rule="evenodd" fill-rule="evenodd"></path><g clip-path="url(#clip0_501_62)"><path fill="#fff" d="M653.218 193.653l-13.16-3.055-2.35-.94-60.394.47v29.14l75.904.235v-25.85z"></path><path fill="#F48120" d="M628.543 216.677c.378-1.001.512-2.078.389-3.14-.123-1.063-.498-2.081-1.094-2.97-.612-.734-1.363-1.34-2.21-1.784-.847-.443-1.773-.715-2.725-.801l-40.889-.47c-.235 0-.47-.235-.705-.235-.055-.041-.099-.094-.13-.155-.03-.061-.046-.129-.046-.197 0-.069.016-.136.046-.197.031-.062.075-.115.13-.156.235-.47.47-.705.94-.705l41.124-.47c2.611-.29 5.098-1.27 7.204-2.839s3.757-3.672 4.781-6.091l2.35-6.11c0-.235.235-.47 0-.705-1.278-5.69-4.378-10.808-8.83-14.576-4.452-3.768-10.012-5.979-15.836-6.298-5.823-.319-11.592 1.271-16.429 4.53-4.837 3.259-8.478 8.008-10.369 13.524-2.456-1.753-5.452-2.586-8.46-2.349-2.761.307-5.335 1.545-7.3 3.51-1.964 1.964-3.202 4.538-3.51 7.299-.156 1.414-.077 2.843.235 4.23-4.467.124-8.71 1.985-11.826 5.189-3.116 3.204-4.859 7.497-4.859 11.966-.038.868.041 1.738.235 2.585.011.183.089.357.219.487.13.129.303.207.486.218h75.434c.47 0 .94-.235.94-.705l.705-2.585z"></path><path fill="#FAAD3F" d="M641.468 190.37h-1.175c-.235 0-.47.235-.705.47l-1.645 5.64c-.378 1.001-.511 2.078-.389 3.141.123 1.063.498 2.081 1.094 2.969.612.734 1.363 1.341 2.21 1.784.847.444 1.773.716 2.725.801l8.695.47c.235 0 .47.235.705.235.054.041.099.094.129.156.031.061.047.128.047.197 0 .068-.016.136-.047.197-.03.061-.075.114-.129.155-.235.47-.47.705-.94.705l-8.93.47c-2.611.29-5.097 1.27-7.204 2.839-2.106 1.57-3.757 3.672-4.781 6.091l-.47 2.115c-.235.235 0 .705.47.705h31.02c.095.014.193.005.285-.026.092-.03.175-.082.243-.15.069-.069.12-.152.151-.244.03-.092.039-.189.026-.285.559-1.991.875-4.043.94-6.11-.038-5.909-2.402-11.566-6.58-15.745-4.179-4.178-9.836-6.542-15.745-6.58z"></path><path fill="#fff" d="M666.847 232.667c-.418 0-.827-.124-1.175-.357-.347-.232-.619-.563-.779-.949-.16-.387-.202-.812-.12-1.222.082-.41.283-.787.579-1.083.296-.296.672-.497 1.083-.579.41-.081.835-.039 1.222.121.386.16.716.431.949.779.232.347.356.756.356 1.175.001.278-.052.553-.158.81-.106.257-.262.491-.459.688-.196.196-.43.352-.687.458-.257.106-.533.16-.811.159zm0-3.76c-.325 0-.643.096-.914.277-.27.181-.481.437-.605.738-.125.301-.157.631-.094.951.063.319.22.612.45.842.23.23.523.386.842.45.32.063.65.031.951-.094.3-.124.557-.335.738-.606.181-.27.277-.588.277-.913.006-.218-.033-.434-.114-.636s-.202-.386-.356-.539c-.153-.154-.337-.275-.539-.356-.202-.081-.418-.12-.636-.114zm.94 2.82h-.47l-.47-.705h-.47v.705h-.47v-2.115h1.175c.096-.014.194-.005.286.025.091.031.175.082.243.151.068.068.12.152.151.243.03.092.039.19.025.286 0 .235-.235.47-.47.705l.47.705zm-.705-1.175c.235 0 .235 0 .235-.235.001-.031-.005-.062-.016-.091-.012-.029-.029-.055-.051-.077-.022-.022-.048-.039-.077-.051-.029-.011-.06-.017-.091-.016h-.705v.705h.705v-.235zm-210.792-2.115h5.17v14.099h8.93v4.465h-14.1v-18.564zm19.505 9.164c0-1.305.265-2.597.779-3.797.514-1.199 1.266-2.283 2.211-3.183.944-.901 2.062-1.601 3.285-2.057 1.223-.456 2.526-.659 3.83-.597 1.292-.059 2.582.149 3.79.61 1.208.46 2.309 1.164 3.234 2.067.925.903 1.655 1.987 2.145 3.183.489 1.197.728 2.482.701 3.774 0 1.306-.265 2.598-.779 3.797-.514 1.2-1.266 2.284-2.211 3.184-.945.901-2.062 1.601-3.285 2.057-1.223.456-2.526.659-3.83.597-1.287.039-2.568-.183-3.767-.65-1.2-.468-2.292-1.173-3.213-2.072-.922-.899-1.652-1.974-2.149-3.162-.496-1.188-.748-2.463-.741-3.751zm14.805 0c.046-.651-.041-1.305-.254-1.922-.214-.617-.551-1.184-.99-1.668-.44-.483-.972-.872-1.566-1.144-.594-.271-1.237-.419-1.89-.435-1.267.061-2.462.608-3.337 1.527-.875.919-1.363 2.139-1.363 3.407 0 1.269.488 2.489 1.363 3.408s2.07 1.466 3.337 1.527c2.82.47 4.7-1.88 4.7-4.7zm11.515 1.175v-10.339h5.17v10.339c0 2.585 1.41 3.995 3.525 3.995.494.041.99-.03 1.453-.208.463-.178.879-.458 1.218-.82.339-.361.592-.795.74-1.268.147-.473.186-.973.114-1.464v-10.574h5.169v10.339c0 6.11-3.524 8.695-8.694 8.695-5.405-.235-8.695-2.82-8.695-8.695zm25.144-10.339h7.285c6.58 0 10.575 3.76 10.575 9.164 0 5.405-3.995 9.4-10.575 9.4h-7.05v-18.564h-.235zm7.285 13.864c.655.063 1.316-.012 1.94-.22.624-.208 1.198-.544 1.685-.986.487-.443.875-.982 1.142-1.584.266-.601.403-1.252.403-1.91 0-.657-.137-1.308-.403-1.91-.267-.601-.655-1.14-1.142-1.583-.487-.442-1.061-.778-1.685-.986-.624-.208-1.285-.283-1.94-.22h-2.115v9.399h2.115zm17.86-13.864h14.805v4.465h-9.635v3.055h8.695v4.229h-8.695v6.815h-5.17v-18.564zm22.09 0h5.17v14.099h8.929v4.465h-14.099v-18.564zm27.494-.235h5.17l7.99 18.799h-5.64l-1.41-3.29h-7.285l-1.41 3.29h-5.405l7.99-18.799zm4.7 11.514l-2.115-5.169-2.115 5.169h4.23zm15.04-11.279h8.695c1.109-.09 2.225.051 3.277.415s2.016.943 2.833 1.7c.673.726 1.162 1.603 1.424 2.558.263.954.291 1.958.084 2.926-.207.968-.645 1.872-1.276 2.636-.63.763-1.436 1.363-2.347 1.749l4.465 6.58h-5.875l-3.76-5.64h-2.35v5.64h-5.17v-18.564zm8.46 8.929c1.645 0 2.82-.94 2.82-2.114 0-1.41-1.175-2.115-2.82-2.115h-3.29v4.464h3.29v-.235zm15.275-8.929h15.039v4.23h-9.869v2.82h8.929v4.229h-8.929v2.82h10.104v4.465h-15.274v-18.564zm-200.452 11.514c-.355.831-.944 1.54-1.695 2.041-.751.501-1.632.772-2.535.779-1.268-.061-2.462-.608-3.337-1.527-.875-.919-1.363-2.139-1.363-3.408 0-1.268.488-2.488 1.363-3.407s2.069-1.466 3.337-1.527c.961.018 1.895.317 2.689.86.793.543 1.41 1.305 1.776 2.195h5.404c-.462-2.252-1.707-4.266-3.514-5.686-1.807-1.419-4.059-2.153-6.355-2.069-1.299-.043-2.594.174-3.808.638-1.214.463-2.324 1.164-3.265 2.06-.941.897-1.693 1.973-2.214 3.163-.52 1.191-.799 2.474-.818 3.773-.007 1.288.245 2.563.741 3.751.496 1.188 1.227 2.263 2.148 3.162s2.014 1.604 3.213 2.072c1.2.467 2.481.689 3.768.65 2.245.015 4.432-.714 6.218-2.075 1.786-1.361 3.07-3.276 3.651-5.445h-5.404z"></path></g><g filter="url(#filter0_ddd_501_62)"><path fill="#fff" d="M397.925 234.855c.372 0 .558.186.558.558v3.514c0 .372-.186.557-.558.557h-8.757c-.149 0-.223.075-.223.224v8.59c0 .372-.186.557-.558.557h-3.514c-.372 0-.558-.185-.558-.557v-8.59c0-.149-.074-.224-.223-.224h-8.757c-.372 0-.558-.185-.558-.557v-3.514c0-.372.186-.558.558-.558h8.757c.149 0 .223-.075.223-.223v-8.925c0-.372.186-.558.558-.558h3.514c.372 0 .558.186.558.558v8.925c0 .148.074.223.223.223h8.757z"></path></g><defs><linearGradient gradientUnits="userSpaceOnUse" y2="553.163" x2="12.9951" y1="-496.418" x1="23.5212" id="paint0_linear_501_62"><stop stop-color="#5A67D8"></stop><stop stop-color="#4C51BF" offset=".745399"></stop><stop stop-color="#434190" offset="1"></stop></linearGradient><clipPath id="clip0_501_62"><path d="M0 0h238.287v78.7239H0z" transform="translate(430.676 168.734)" fill="#fff"></path></clipPath><filter color-interpolation-filters="sRGB" filterUnits="userSpaceOnUse" height="75.133" width="68.3409" y="202.832" x="352.46" id="filter0_ddd_501_62"><feFlood result="BackgroundImageFix" flood-opacity="0"></feFlood><feColorMatrix result="hardAlpha" values="0 0 0 0 0 0 0 0 0 0 0 0 0 0 0 0 0 0 127 0" in="SourceAlpha"></feColorMatrix><feOffset dy="8.73282"></feOffset><feGaussianBlur stdDeviation="10.1883"></feGaussianBlur><feColorMatrix values="0 0 0 0 0.0901961 0 0 0 0 0.168627 0 0 0 0 0.301961 0 0 0 0.08 0"></feColorMatrix><feBlend result="effect1_dropShadow_501_62" in2="BackgroundImageFix"></feBlend><feColorMatrix result="hardAlpha" values="0 0 0 0 0 0 0 0 0 0 0 0 0 0 0 0 0 0 127 0" in="SourceAlpha"></feColorMatrix><feOffset dy="1.94063"></feOffset><feGaussianBlur stdDeviation="6.30704"></feGaussianBlur><feColorMatrix values="0 0 0 0 0.0901961 0 0 0 0 0.168627 0 0 0 0 0.301961 0 0 0 0.05 0"></feColorMatrix><feBlend result="effect2_dropShadow_501_62" in2="effect1_dropShadow_501_62"></feBlend><feColorMatrix result="hardAlpha" values="0 0 0 0 0 0 0 0 0 0 0 0 0 0 0 0 0 0 127 0" in="SourceAlpha"></feColorMatrix><feOffset></feOffset><feGaussianBlur stdDeviation="11.1586"></feGaussianBlur><feComposite operator="out" in2="hardAlpha"></feComposite><feColorMatrix values="0 0 0 0 0.0901961 0 0 0 0 0.168627 0 0 0 0 0.301961 0 0 0 0.01 0"></feColorMatrix><feBlend result="effect3_dropShadow_501_62" in2="effect2_dropShadow_501_62"></feBlend><feBlend result="shape" in2="effect3_dropShadow_501_62" in="SourceGraphic"></feBlend></filter></defs></svg>