<svg xmlns="http://www.w3.org/2000/svg" fill="none" viewBox="0 0 844 474" height="474" width="844">
<rect fill="url(#paint0_linear_343_9284)" height="474" width="844"></rect>
<g filter="url(#filter0_dd_343_9284)">
<rect fill="url(#paint1_linear_343_9284)" rx="4.7197" height="42.7393" width="76.6952" y="233.127" x="250.883"></rect>
<rect fill="url(#paint2_linear_343_9284)" rx="4.7197" height="42.7393" width="76.6952" y="222.101" x="250.883"></rect>
<rect fill-opacity="0.44" fill="url(#paint3_radial_343_9284)" rx="4.7197" height="42.7393" width="76.6952" y="222.101" x="250.883"></rect>
<rect fill="url(#paint4_linear_343_9284)" rx="4.7197" height="42.7393" width="76.6952" y="220.033" x="250.883"></rect>
<rect fill-opacity="0.284" fill="#C6D4DB" rx="4.7197" height="42.7393" width="76.6952" y="220.033" x="250.883"></rect>
<rect fill="url(#paint5_linear_343_9284)" rx="4.7197" height="42.7393" width="76.6952" y="214.52" x="250.883" opacity="0.5"></rect>
<rect fill="url(#paint6_linear_343_9284)" rx="4.7197" height="42.7393" width="76.6952" y="211.757" x="250.883"></rect>
<rect fill="url(#paint7_linear_343_9284)" rx="4.7197" height="42.7393" width="76.6952" y="200.731" x="250.883"></rect>
<rect fill-opacity="0.44" fill="url(#paint8_radial_343_9284)" rx="4.7197" height="42.7393" width="76.6952" y="200.731" x="250.883"></rect>
<rect fill="url(#paint9_linear_343_9284)" rx="4.7197" height="42.7393" width="76.6952" y="198.664" x="250.883"></rect>
<rect fill-opacity="0.284" fill="#C6D4DB" rx="4.7197" height="42.7393" width="76.6952" y="198.664" x="250.883"></rect>
<rect fill="url(#paint10_linear_343_9284)" rx="4.7197" height="42.7393" width="76.6952" y="193.15" x="250.883" opacity="0.5"></rect>
<rect fill="url(#paint11_linear_343_9284)" rx="4.7197" height="42.7393" width="76.6952" y="190.746" x="250.883"></rect>
<rect fill="url(#paint12_linear_343_9284)" rx="4.7197" height="33.1219" width="76.6952" y="190.746" x="250.883"></rect>
<rect stroke-width="1.32464" stroke-opacity="0.46" stroke="url(#paint13_radial_343_9284)" rx="4.05738" height="31.7972" width="75.3705" y="191.409" x="251.546"></rect>
<g filter="url(#filter1_iiii_343_9284)">
<ellipse fill="#667EEA" ry="2.28726" rx="2.29323" cy="229.19" cx="261.738"></ellipse>
</g>
<path stroke-width="0.589963" stroke-opacity="0.67" stroke="#C3DAFE" d="M261.738 231.772C263.167 231.772 264.326 230.617 264.326 229.19C264.326 227.763 263.167 226.608 261.738 226.608C260.309 226.608 259.15 227.763 259.15 229.19C259.15 230.617 260.309 231.772 261.738 231.772Z"></path>
<g filter="url(#filter2_iiii_343_9284)">
<ellipse fill="#667EEA" ry="2.28726" rx="2.29323" cy="229.19" cx="269.149"></ellipse>
</g>
<path stroke-width="0.589963" stroke-opacity="0.67" stroke="#C3DAFE" d="M269.149 231.772C270.578 231.772 271.738 230.617 271.738 229.19C271.738 227.763 270.578 226.608 269.149 226.608C267.721 226.608 266.561 227.763 266.561 229.19C266.561 230.617 267.721 231.772 269.149 231.772Z"></path>
<g filter="url(#filter3_iiii_343_9284)">
<rect fill="#3F5564" rx="0.651033" height="1.30207" width="20.0129" y="228.539" x="300.31"></rect>
</g>
<rect stroke-width="0.589963" stroke-opacity="0.67" stroke="#C3DAFE" rx="0.946015" height="1.89203" width="20.6028" y="228.244" x="300.015"></rect>
</g>
<path fill="#718096" d="M151.912 226.113C151.566 226.458 151.566 227.019 151.912 227.364L157.544 232.996C157.889 233.342 158.45 233.342 158.795 232.996C159.141 232.65 159.141 232.09 158.795 231.745L153.789 226.739L158.795 221.733C159.141 221.387 159.141 220.827 158.795 220.481C158.45 220.135 157.889 220.135 157.544 220.481L151.912 226.113ZM236.018 227.364C236.363 227.019 236.363 226.458 236.018 226.113L230.386 220.481C230.04 220.135 229.48 220.135 229.134 220.481C228.789 220.827 228.789 221.387 229.134 221.733L234.14 226.739L229.134 231.745C228.789 232.09 228.789 232.65 229.134 232.996C229.48 233.342 230.04 233.342 230.386 232.996L236.018 227.364ZM152.538 227.623H235.392V225.854H152.538V227.623Z"></path>
<rect fill="#2D3748" rx="2" height="16.7197" width="51.4394" y="292.645" x="81.8285"></rect>
<path fill="#E2E8F0" d="M90.3606 306.099C89.747 306.099 89.2082 305.981 88.7441 305.745C88.28 305.501 87.9221 305.163 87.6703 304.73C87.4186 304.298 87.2928 303.798 87.2928 303.232V300.506C87.2928 299.94 87.4186 299.44 87.6703 299.008C87.9221 298.575 88.28 298.241 88.7441 298.005C89.2082 297.769 89.747 297.651 90.3606 297.651C90.9663 297.651 91.4972 297.765 91.9535 297.993C92.4176 298.213 92.7755 298.532 93.0272 298.949C93.2868 299.358 93.4166 299.834 93.4166 300.376C93.4166 300.447 93.3694 300.49 93.275 300.506L91.8945 300.589H91.8709C91.7922 300.589 91.7529 300.546 91.7529 300.459C91.7529 300.042 91.6231 299.708 91.3635 299.456C91.1118 299.204 90.7775 299.078 90.3606 299.078C89.9358 299.078 89.5936 299.204 89.334 299.456C89.0823 299.708 88.9565 300.042 88.9565 300.459V303.303C88.9565 303.712 89.0823 304.042 89.334 304.294C89.5936 304.545 89.9358 304.671 90.3606 304.671C90.7775 304.671 91.1118 304.545 91.3635 304.294C91.6231 304.042 91.7529 303.712 91.7529 303.303C91.7529 303.216 91.8001 303.173 91.8945 303.173L93.275 303.232C93.3143 303.232 93.3458 303.244 93.3694 303.267C93.4008 303.291 93.4166 303.318 93.4166 303.35C93.4166 303.893 93.2868 304.372 93.0272 304.789C92.7755 305.206 92.4176 305.529 91.9535 305.757C91.4972 305.985 90.9663 306.099 90.3606 306.099ZM95.3682 306.005C95.3288 306.005 95.2934 305.993 95.262 305.969C95.2384 305.938 95.2266 305.902 95.2266 305.863V297.887C95.2266 297.847 95.2384 297.816 95.262 297.792C95.2934 297.761 95.3288 297.745 95.3682 297.745H96.7487C96.788 297.745 96.8195 297.761 96.8431 297.792C96.8745 297.816 96.8903 297.847 96.8903 297.887V304.518C96.8903 304.557 96.9099 304.577 96.9493 304.577H100.808C100.847 304.577 100.878 304.593 100.902 304.624C100.933 304.648 100.949 304.679 100.949 304.719V305.863C100.949 305.902 100.933 305.938 100.902 305.969C100.878 305.993 100.847 306.005 100.808 306.005H95.3682ZM102.71 306.005C102.671 306.005 102.636 305.993 102.604 305.969C102.581 305.938 102.569 305.902 102.569 305.863V297.887C102.569 297.847 102.581 297.816 102.604 297.792C102.636 297.761 102.671 297.745 102.71 297.745H104.091C104.13 297.745 104.162 297.761 104.185 297.792C104.217 297.816 104.233 297.847 104.233 297.887V305.863C104.233 305.902 104.217 305.938 104.185 305.969C104.162 305.993 104.13 306.005 104.091 306.005H102.71ZM111.993 299.031C111.993 299.071 111.977 299.106 111.946 299.137C111.922 299.161 111.891 299.173 111.851 299.173H107.981C107.942 299.173 107.922 299.193 107.922 299.232V301.061C107.922 301.1 107.942 301.12 107.981 301.12H110.518C110.557 301.12 110.589 301.135 110.612 301.167C110.644 301.191 110.66 301.222 110.66 301.261V302.406C110.66 302.445 110.644 302.481 110.612 302.512C110.589 302.536 110.557 302.547 110.518 302.547H107.981C107.942 302.547 107.922 302.567 107.922 302.606V304.518C107.922 304.557 107.942 304.577 107.981 304.577H111.851C111.891 304.577 111.922 304.593 111.946 304.624C111.977 304.648 111.993 304.679 111.993 304.719V305.863C111.993 305.902 111.977 305.938 111.946 305.969C111.922 305.993 111.891 306.005 111.851 306.005H106.4C106.361 306.005 106.325 305.993 106.294 305.969C106.27 305.938 106.258 305.902 106.258 305.863V297.887C106.258 297.847 106.27 297.816 106.294 297.792C106.325 297.761 106.361 297.745 106.4 297.745H111.851C111.891 297.745 111.922 297.761 111.946 297.792C111.977 297.816 111.993 297.847 111.993 297.887V299.031ZM118.482 297.887C118.482 297.847 118.494 297.816 118.518 297.792C118.549 297.761 118.585 297.745 118.624 297.745H120.004C120.044 297.745 120.075 297.761 120.099 297.792C120.13 297.816 120.146 297.847 120.146 297.887V305.863C120.146 305.902 120.13 305.938 120.099 305.969C120.075 305.993 120.044 306.005 120.004 306.005H118.671C118.592 306.005 118.537 305.973 118.506 305.91L115.45 300.86C115.434 300.837 115.418 300.829 115.403 300.837C115.387 300.837 115.379 300.852 115.379 300.884L115.403 305.863C115.403 305.902 115.387 305.938 115.355 305.969C115.332 305.993 115.3 306.005 115.261 306.005H113.881C113.841 306.005 113.806 305.993 113.774 305.969C113.751 305.938 113.739 305.902 113.739 305.863V297.887C113.739 297.847 113.751 297.816 113.774 297.792C113.806 297.761 113.841 297.745 113.881 297.745H115.214C115.293 297.745 115.348 297.777 115.379 297.84L118.423 302.866C118.439 302.89 118.455 302.901 118.47 302.901C118.486 302.894 118.494 302.874 118.494 302.842L118.482 297.887ZM127.875 297.745C127.914 297.745 127.946 297.761 127.969 297.792C128.001 297.816 128.017 297.847 128.017 297.887V299.043C128.017 299.082 128.001 299.118 127.969 299.149C127.946 299.173 127.914 299.185 127.875 299.185H125.763C125.724 299.185 125.704 299.204 125.704 299.244V305.863C125.704 305.902 125.688 305.938 125.657 305.969C125.633 305.993 125.602 306.005 125.562 306.005H124.182C124.142 306.005 124.107 305.993 124.076 305.969C124.052 305.938 124.04 305.902 124.04 305.863V299.244C124.04 299.204 124.021 299.185 123.981 299.185H121.928C121.889 299.185 121.853 299.173 121.822 299.149C121.798 299.118 121.787 299.082 121.787 299.043V297.887C121.787 297.847 121.798 297.816 121.822 297.792C121.853 297.761 121.889 297.745 121.928 297.745H127.875Z"></path>
<rect fill="#2D3748" rx="2" height="16.7197" width="55.4394" y="292.645" x="259.445"></rect>
<path fill="#E2E8F0" d="M268.091 306.099C267.462 306.099 266.911 306.001 266.439 305.804C265.967 305.6 265.601 305.312 265.342 304.943C265.09 304.565 264.964 304.129 264.964 303.633V303.373C264.964 303.334 264.976 303.303 265 303.279C265.031 303.248 265.066 303.232 265.106 303.232H266.451C266.49 303.232 266.522 303.248 266.545 303.279C266.577 303.303 266.593 303.334 266.593 303.373V303.55C266.593 303.865 266.738 304.132 267.029 304.353C267.32 304.565 267.713 304.671 268.209 304.671C268.626 304.671 268.937 304.585 269.141 304.412C269.346 304.231 269.448 304.011 269.448 303.751C269.448 303.562 269.385 303.405 269.259 303.279C269.133 303.145 268.96 303.031 268.74 302.937C268.528 302.835 268.185 302.697 267.713 302.524C267.186 302.343 266.738 302.158 266.368 301.969C266.007 301.781 265.7 301.525 265.448 301.202C265.204 300.872 265.082 300.467 265.082 299.987C265.082 299.515 265.204 299.102 265.448 298.748C265.692 298.394 266.03 298.123 266.463 297.934C266.895 297.745 267.395 297.651 267.961 297.651C268.559 297.651 269.09 297.757 269.554 297.969C270.026 298.182 270.392 298.481 270.651 298.866C270.919 299.244 271.053 299.684 271.053 300.188V300.365C271.053 300.404 271.037 300.439 271.005 300.471C270.982 300.494 270.95 300.506 270.911 300.506H269.554C269.515 300.506 269.479 300.494 269.448 300.471C269.424 300.439 269.413 300.404 269.413 300.365V300.27C269.413 299.94 269.275 299.661 269 299.432C268.732 299.196 268.362 299.078 267.89 299.078C267.521 299.078 267.23 299.157 267.017 299.314C266.813 299.472 266.711 299.688 266.711 299.963C266.711 300.16 266.77 300.325 266.888 300.459C267.013 300.593 267.194 300.715 267.43 300.825C267.674 300.927 268.048 301.069 268.551 301.25C269.11 301.454 269.546 301.635 269.861 301.792C270.183 301.95 270.471 302.186 270.722 302.5C270.982 302.807 271.112 303.208 271.112 303.704C271.112 304.443 270.84 305.029 270.298 305.462C269.755 305.887 269.019 306.099 268.091 306.099ZM278.601 299.031C278.601 299.071 278.585 299.106 278.554 299.137C278.53 299.161 278.499 299.173 278.459 299.173H274.589C274.55 299.173 274.53 299.193 274.53 299.232V301.061C274.53 301.1 274.55 301.12 274.589 301.12H277.126C277.165 301.12 277.197 301.135 277.22 301.167C277.252 301.191 277.268 301.222 277.268 301.261V302.406C277.268 302.445 277.252 302.481 277.22 302.512C277.197 302.536 277.165 302.547 277.126 302.547H274.589C274.55 302.547 274.53 302.567 274.53 302.606V304.518C274.53 304.557 274.55 304.577 274.589 304.577H278.459C278.499 304.577 278.53 304.593 278.554 304.624C278.585 304.648 278.601 304.679 278.601 304.719V305.863C278.601 305.902 278.585 305.938 278.554 305.969C278.53 305.993 278.499 306.005 278.459 306.005H273.008C272.969 306.005 272.933 305.993 272.902 305.969C272.878 305.938 272.867 305.902 272.867 305.863V297.887C272.867 297.847 272.878 297.816 272.902 297.792C272.933 297.761 272.969 297.745 273.008 297.745H278.459C278.499 297.745 278.53 297.761 278.554 297.792C278.585 297.816 278.601 297.847 278.601 297.887V299.031ZM284.878 306.005C284.799 306.005 284.744 305.969 284.713 305.898L283.238 302.63C283.222 302.599 283.199 302.583 283.167 302.583H282.07C282.03 302.583 282.011 302.603 282.011 302.642V305.863C282.011 305.902 281.995 305.938 281.964 305.969C281.94 305.993 281.908 306.005 281.869 306.005H280.489C280.449 306.005 280.414 305.993 280.382 305.969C280.359 305.938 280.347 305.902 280.347 305.863V297.887C280.347 297.847 280.359 297.816 280.382 297.792C280.414 297.761 280.449 297.745 280.489 297.745H283.863C284.367 297.745 284.807 297.847 285.185 298.052C285.57 298.256 285.865 298.548 286.07 298.925C286.282 299.303 286.388 299.739 286.388 300.235C286.388 300.77 286.255 301.23 285.987 301.615C285.72 301.993 285.346 302.26 284.866 302.418C284.827 302.433 284.815 302.461 284.831 302.5L286.435 305.839C286.451 305.871 286.459 305.895 286.459 305.91C286.459 305.973 286.416 306.005 286.329 306.005H284.878ZM282.07 299.173C282.03 299.173 282.011 299.193 282.011 299.232V301.25C282.011 301.289 282.03 301.309 282.07 301.309H283.615C283.946 301.309 284.213 301.21 284.418 301.014C284.63 300.817 284.736 300.561 284.736 300.247C284.736 299.932 284.63 299.676 284.418 299.48C284.213 299.275 283.946 299.173 283.615 299.173H282.07ZM290.114 306.005C290.036 306.005 289.985 305.965 289.961 305.887L287.53 297.91L287.519 297.863C287.519 297.784 287.562 297.745 287.648 297.745H289.135C289.222 297.745 289.277 297.784 289.3 297.863L290.87 303.621C290.877 303.645 290.889 303.657 290.905 303.657C290.921 303.657 290.933 303.645 290.94 303.621L292.486 297.863C292.51 297.784 292.565 297.745 292.651 297.745H294.103C294.15 297.745 294.185 297.761 294.209 297.792C294.232 297.824 294.236 297.863 294.221 297.91L291.755 305.887C291.731 305.965 291.68 306.005 291.601 306.005H290.114ZM301.515 299.031C301.515 299.071 301.499 299.106 301.468 299.137C301.444 299.161 301.413 299.173 301.373 299.173H297.503C297.464 299.173 297.444 299.193 297.444 299.232V301.061C297.444 301.1 297.464 301.12 297.503 301.12H300.04C300.079 301.12 300.111 301.135 300.134 301.167C300.166 301.191 300.182 301.222 300.182 301.261V302.406C300.182 302.445 300.166 302.481 300.134 302.512C300.111 302.536 300.079 302.547 300.04 302.547H297.503C297.464 302.547 297.444 302.567 297.444 302.606V304.518C297.444 304.557 297.464 304.577 297.503 304.577H301.373C301.413 304.577 301.444 304.593 301.468 304.624C301.499 304.648 301.515 304.679 301.515 304.719V305.863C301.515 305.902 301.499 305.938 301.468 305.969C301.444 305.993 301.413 306.005 301.373 306.005H295.922C295.883 306.005 295.847 305.993 295.816 305.969C295.792 305.938 295.781 305.902 295.781 305.863V297.887C295.781 297.847 295.792 297.816 295.816 297.792C295.847 297.761 295.883 297.745 295.922 297.745H301.373C301.413 297.745 301.444 297.761 301.468 297.792C301.499 297.816 301.515 297.847 301.515 297.887V299.031ZM307.792 306.005C307.713 306.005 307.658 305.969 307.627 305.898L306.152 302.63C306.136 302.599 306.113 302.583 306.081 302.583H304.984C304.944 302.583 304.925 302.603 304.925 302.642V305.863C304.925 305.902 304.909 305.938 304.878 305.969C304.854 305.993 304.823 306.005 304.783 306.005H303.403C303.363 306.005 303.328 305.993 303.297 305.969C303.273 305.938 303.261 305.902 303.261 305.863V297.887C303.261 297.847 303.273 297.816 303.297 297.792C303.328 297.761 303.363 297.745 303.403 297.745H306.777C307.281 297.745 307.721 297.847 308.099 298.052C308.484 298.256 308.779 298.548 308.984 298.925C309.196 299.303 309.302 299.739 309.302 300.235C309.302 300.77 309.169 301.23 308.901 301.615C308.634 301.993 308.26 302.26 307.78 302.418C307.741 302.433 307.729 302.461 307.745 302.5L309.35 305.839C309.365 305.871 309.373 305.895 309.373 305.91C309.373 305.973 309.33 306.005 309.243 306.005H307.792ZM304.984 299.173C304.944 299.173 304.925 299.193 304.925 299.232V301.25C304.925 301.289 304.944 301.309 304.984 301.309H306.53C306.86 301.309 307.127 301.21 307.332 301.014C307.544 300.817 307.65 300.561 307.65 300.247C307.65 299.932 307.544 299.676 307.332 299.48C307.127 299.275 306.86 299.173 306.53 299.173H304.984Z"></path>
<rect fill="#2D3748" rx="2" height="16.7197" width="48.4394" y="292.645" x="484.296"></rect>
<path fill="#E2E8F0" d="M492.89 306.099C492.277 306.099 491.738 305.981 491.274 305.745C490.81 305.501 490.452 305.163 490.2 304.73C489.948 304.298 489.822 303.798 489.822 303.232V300.506C489.822 299.94 489.948 299.44 490.2 299.008C490.452 298.575 490.81 298.241 491.274 298.005C491.738 297.769 492.277 297.651 492.89 297.651C493.496 297.651 494.027 297.765 494.483 297.993C494.947 298.213 495.305 298.532 495.557 298.949C495.816 299.358 495.946 299.834 495.946 300.376C495.946 300.447 495.899 300.49 495.805 300.506L494.424 300.589H494.401C494.322 300.589 494.283 300.546 494.283 300.459C494.283 300.042 494.153 299.708 493.893 299.456C493.641 299.204 493.307 299.078 492.89 299.078C492.465 299.078 492.123 299.204 491.864 299.456C491.612 299.708 491.486 300.042 491.486 300.459V303.303C491.486 303.712 491.612 304.042 491.864 304.294C492.123 304.545 492.465 304.671 492.89 304.671C493.307 304.671 493.641 304.545 493.893 304.294C494.153 304.042 494.283 303.712 494.283 303.303C494.283 303.216 494.33 303.173 494.424 303.173L495.805 303.232C495.844 303.232 495.875 303.244 495.899 303.267C495.931 303.291 495.946 303.318 495.946 303.35C495.946 303.893 495.816 304.372 495.557 304.789C495.305 305.206 494.947 305.529 494.483 305.757C494.027 305.985 493.496 306.099 492.89 306.099ZM502.823 306.005C502.744 306.005 502.693 305.965 502.669 305.887L502.315 304.73C502.299 304.699 502.28 304.683 502.256 304.683H499.354C499.33 304.683 499.31 304.699 499.295 304.73L498.952 305.887C498.929 305.965 498.878 306.005 498.799 306.005H497.3C497.253 306.005 497.218 305.993 497.194 305.969C497.171 305.938 497.167 305.895 497.183 305.839L499.731 297.863C499.755 297.784 499.806 297.745 499.885 297.745H501.737C501.816 297.745 501.867 297.784 501.89 297.863L504.439 305.839C504.447 305.855 504.451 305.875 504.451 305.898C504.451 305.969 504.408 306.005 504.321 306.005H502.823ZM499.719 303.326C499.711 303.373 499.727 303.397 499.767 303.397H501.843C501.89 303.397 501.906 303.373 501.89 303.326L500.828 299.822C500.821 299.79 500.809 299.779 500.793 299.786C500.777 299.786 500.766 299.798 500.758 299.822L499.719 303.326ZM508.727 306.099C508.113 306.099 507.575 305.981 507.111 305.745C506.646 305.501 506.289 305.163 506.037 304.73C505.785 304.298 505.659 303.798 505.659 303.232V300.506C505.659 299.94 505.785 299.44 506.037 299.008C506.289 298.575 506.646 298.241 507.111 298.005C507.575 297.769 508.113 297.651 508.727 297.651C509.333 297.651 509.864 297.765 510.32 297.993C510.784 298.213 511.142 298.532 511.394 298.949C511.653 299.358 511.783 299.834 511.783 300.376C511.783 300.447 511.736 300.49 511.641 300.506L510.261 300.589H510.237C510.159 300.589 510.119 300.546 510.119 300.459C510.119 300.042 509.99 299.708 509.73 299.456C509.478 299.204 509.144 299.078 508.727 299.078C508.302 299.078 507.96 299.204 507.701 299.456C507.449 299.708 507.323 300.042 507.323 300.459V303.303C507.323 303.712 507.449 304.042 507.701 304.294C507.96 304.545 508.302 304.671 508.727 304.671C509.144 304.671 509.478 304.545 509.73 304.294C509.99 304.042 510.119 303.712 510.119 303.303C510.119 303.216 510.167 303.173 510.261 303.173L511.641 303.232C511.681 303.232 511.712 303.244 511.736 303.267C511.767 303.291 511.783 303.318 511.783 303.35C511.783 303.893 511.653 304.372 511.394 304.789C511.142 305.206 510.784 305.529 510.32 305.757C509.864 305.985 509.333 306.099 508.727 306.099ZM517.982 297.887C517.982 297.847 517.994 297.816 518.018 297.792C518.049 297.761 518.085 297.745 518.124 297.745H519.504C519.544 297.745 519.575 297.761 519.599 297.792C519.63 297.816 519.646 297.847 519.646 297.887V305.863C519.646 305.902 519.63 305.938 519.599 305.969C519.575 305.993 519.544 306.005 519.504 306.005H518.124C518.085 306.005 518.049 305.993 518.018 305.969C517.994 305.938 517.982 305.902 517.982 305.863V302.606C517.982 302.567 517.963 302.547 517.923 302.547H515.316C515.276 302.547 515.257 302.567 515.257 302.606V305.863C515.257 305.902 515.241 305.938 515.21 305.969C515.186 305.993 515.154 306.005 515.115 306.005H513.735C513.695 306.005 513.66 305.993 513.628 305.969C513.605 305.938 513.593 305.902 513.593 305.863V297.887C513.593 297.847 513.605 297.816 513.628 297.792C513.66 297.761 513.695 297.745 513.735 297.745H515.115C515.154 297.745 515.186 297.761 515.21 297.792C515.241 297.816 515.257 297.847 515.257 297.887V301.061C515.257 301.1 515.276 301.12 515.316 301.12H517.923C517.963 301.12 517.982 301.1 517.982 301.061V297.887ZM527.327 299.031C527.327 299.071 527.311 299.106 527.279 299.137C527.256 299.161 527.224 299.173 527.185 299.173H523.315C523.275 299.173 523.256 299.193 523.256 299.232V301.061C523.256 301.1 523.275 301.12 523.315 301.12H525.852C525.891 301.12 525.922 301.135 525.946 301.167C525.978 301.191 525.993 301.222 525.993 301.261V302.406C525.993 302.445 525.978 302.481 525.946 302.512C525.922 302.536 525.891 302.547 525.852 302.547H523.315C523.275 302.547 523.256 302.567 523.256 302.606V304.518C523.256 304.557 523.275 304.577 523.315 304.577H527.185C527.224 304.577 527.256 304.593 527.279 304.624C527.311 304.648 527.327 304.679 527.327 304.719V305.863C527.327 305.902 527.311 305.938 527.279 305.969C527.256 305.993 527.224 306.005 527.185 306.005H521.734C521.694 306.005 521.659 305.993 521.628 305.969C521.604 305.938 521.592 305.902 521.592 305.863V297.887C521.592 297.847 521.604 297.816 521.628 297.792C521.659 297.761 521.694 297.745 521.734 297.745H527.185C527.224 297.745 527.256 297.761 527.279 297.792C527.311 297.816 527.327 297.847 527.327 297.887V299.031Z"></path>
<rect fill="#2D3748" rx="2" height="16.7197" width="70.4394" y="292.645" x="692.795"></rect>
<path fill="#E2E8F0" d="M698.822 306.005C698.783 306.005 698.747 305.993 698.716 305.969C698.692 305.938 698.68 305.902 698.68 305.863V297.887C698.68 297.847 698.692 297.816 698.716 297.792C698.747 297.761 698.783 297.745 698.822 297.745H701.772C702.362 297.745 702.877 297.851 703.318 298.064C703.766 298.268 704.112 298.559 704.356 298.937C704.6 299.314 704.722 299.751 704.722 300.247V303.503C704.722 303.999 704.6 304.435 704.356 304.813C704.112 305.19 703.766 305.485 703.318 305.698C702.877 305.902 702.362 306.005 701.772 306.005H698.822ZM700.344 304.518C700.344 304.557 700.364 304.577 700.403 304.577H701.831C702.193 304.577 702.484 304.455 702.704 304.211C702.932 303.967 703.05 303.641 703.058 303.232V300.518C703.058 300.109 702.944 299.782 702.716 299.539C702.496 299.295 702.197 299.173 701.819 299.173H700.403C700.364 299.173 700.344 299.193 700.344 299.232V304.518ZM711.366 306.005C711.287 306.005 711.236 305.965 711.212 305.887L710.858 304.73C710.842 304.699 710.823 304.683 710.799 304.683H707.897C707.873 304.683 707.853 304.699 707.838 304.73L707.495 305.887C707.472 305.965 707.421 306.005 707.342 306.005H705.844C705.796 306.005 705.761 305.993 705.737 305.969C705.714 305.938 705.71 305.895 705.726 305.839L708.274 297.863C708.298 297.784 708.349 297.745 708.428 297.745H710.28C710.359 297.745 710.41 297.784 710.433 297.863L712.982 305.839C712.99 305.855 712.994 305.875 712.994 305.898C712.994 305.969 712.951 306.005 712.864 306.005H711.366ZM708.262 303.326C708.255 303.373 708.27 303.397 708.31 303.397H710.386C710.433 303.397 710.449 303.373 710.433 303.326L709.372 299.822C709.364 299.79 709.352 299.779 709.336 299.786C709.32 299.786 709.309 299.798 709.301 299.822L708.262 303.326ZM719.306 297.745C719.345 297.745 719.377 297.761 719.4 297.792C719.432 297.816 719.448 297.847 719.448 297.887V299.043C719.448 299.082 719.432 299.118 719.4 299.149C719.377 299.173 719.345 299.185 719.306 299.185H717.194C717.155 299.185 717.135 299.204 717.135 299.244V305.863C717.135 305.902 717.119 305.938 717.088 305.969C717.064 305.993 717.033 306.005 716.993 306.005H715.613C715.574 306.005 715.538 305.993 715.507 305.969C715.483 305.938 715.471 305.902 715.471 305.863V299.244C715.471 299.204 715.452 299.185 715.412 299.185H713.359C713.32 299.185 713.284 299.173 713.253 299.149C713.229 299.118 713.218 299.082 713.218 299.043V297.887C713.218 297.847 713.229 297.816 713.253 297.792C713.284 297.761 713.32 297.745 713.359 297.745H719.306ZM725.589 306.005C725.511 306.005 725.459 305.965 725.436 305.887L725.082 304.73C725.066 304.699 725.046 304.683 725.023 304.683H722.12C722.097 304.683 722.077 304.699 722.061 304.73L721.719 305.887C721.695 305.965 721.644 306.005 721.566 306.005H720.067C720.02 306.005 719.985 305.993 719.961 305.969C719.937 305.938 719.933 305.895 719.949 305.839L722.498 297.863C722.521 297.784 722.573 297.745 722.651 297.745H724.504C724.582 297.745 724.633 297.784 724.657 297.863L727.206 305.839C727.214 305.855 727.218 305.875 727.218 305.898C727.218 305.969 727.174 306.005 727.088 306.005H725.589ZM722.486 303.326C722.478 303.373 722.494 303.397 722.533 303.397H724.61C724.657 303.397 724.673 303.373 724.657 303.326L723.595 299.822C723.587 299.79 723.575 299.779 723.56 299.786C723.544 299.786 723.532 299.798 723.524 299.822L722.486 303.326ZM733.741 301.698C733.694 301.722 733.694 301.745 733.741 301.769C734.489 302.154 734.862 302.795 734.862 303.692C734.862 304.455 734.603 305.033 734.083 305.426C733.564 305.812 732.884 306.005 732.042 306.005H728.986C728.947 306.005 728.911 305.993 728.88 305.969C728.856 305.938 728.845 305.902 728.845 305.863V297.887C728.845 297.847 728.856 297.816 728.88 297.792C728.911 297.761 728.947 297.745 728.986 297.745H731.948C733.812 297.745 734.744 298.5 734.744 300.011C734.744 300.797 734.41 301.36 733.741 301.698ZM730.567 299.173C730.528 299.173 730.508 299.193 730.508 299.232V301.073C730.508 301.112 730.528 301.132 730.567 301.132H731.948C732.318 301.132 732.605 301.045 732.809 300.872C733.014 300.699 733.116 300.463 733.116 300.164C733.116 299.857 733.014 299.617 732.809 299.444C732.605 299.263 732.318 299.173 731.948 299.173H730.567ZM732.042 304.565C732.404 304.565 732.687 304.475 732.892 304.294C733.096 304.105 733.199 303.849 733.199 303.527C733.199 303.204 733.096 302.953 732.892 302.772C732.687 302.583 732.4 302.488 732.03 302.488H730.567C730.528 302.488 730.508 302.508 730.508 302.547V304.506C730.508 304.545 730.528 304.565 730.567 304.565H732.042ZM741.553 306.005C741.474 306.005 741.423 305.965 741.399 305.887L741.045 304.73C741.03 304.699 741.01 304.683 740.986 304.683H738.084C738.06 304.683 738.041 304.699 738.025 304.73L737.683 305.887C737.659 305.965 737.608 306.005 737.529 306.005H736.031C735.984 306.005 735.948 305.993 735.925 305.969C735.901 305.938 735.897 305.895 735.913 305.839L738.461 297.863C738.485 297.784 738.536 297.745 738.615 297.745H740.467C740.546 297.745 740.597 297.784 740.621 297.863L743.169 305.839C743.177 305.855 743.181 305.875 743.181 305.898C743.181 305.969 743.138 306.005 743.051 306.005H741.553ZM738.45 303.326C738.442 303.373 738.457 303.397 738.497 303.397H740.573C740.621 303.397 740.636 303.373 740.621 303.326L739.559 299.822C739.551 299.79 739.539 299.779 739.523 299.786C739.508 299.786 739.496 299.798 739.488 299.822L738.45 303.326ZM747.121 306.099C746.492 306.099 745.942 306.001 745.47 305.804C744.998 305.6 744.632 305.312 744.372 304.943C744.121 304.565 743.995 304.129 743.995 303.633V303.373C743.995 303.334 744.006 303.303 744.03 303.279C744.062 303.248 744.097 303.232 744.136 303.232H745.481C745.521 303.232 745.552 303.248 745.576 303.279C745.607 303.303 745.623 303.334 745.623 303.373V303.55C745.623 303.865 745.769 304.132 746.06 304.353C746.351 304.565 746.744 304.671 747.239 304.671C747.656 304.671 747.967 304.585 748.172 304.412C748.376 304.231 748.478 304.011 748.478 303.751C748.478 303.562 748.415 303.405 748.29 303.279C748.164 303.145 747.991 303.031 747.77 302.937C747.558 302.835 747.216 302.697 746.744 302.524C746.217 302.343 745.769 302.158 745.399 301.969C745.037 301.781 744.73 301.525 744.478 301.202C744.235 300.872 744.113 300.467 744.113 299.987C744.113 299.515 744.235 299.102 744.478 298.748C744.722 298.394 745.061 298.123 745.493 297.934C745.926 297.745 746.425 297.651 746.992 297.651C747.59 297.651 748.12 297.757 748.585 297.969C749.057 298.182 749.422 298.481 749.682 298.866C749.949 299.244 750.083 299.684 750.083 300.188V300.365C750.083 300.404 750.067 300.439 750.036 300.471C750.012 300.494 749.981 300.506 749.942 300.506H748.585C748.545 300.506 748.51 300.494 748.478 300.471C748.455 300.439 748.443 300.404 748.443 300.365V300.27C748.443 299.94 748.305 299.661 748.03 299.432C747.763 299.196 747.393 299.078 746.921 299.078C746.551 299.078 746.26 299.157 746.048 299.314C745.843 299.472 745.741 299.688 745.741 299.963C745.741 300.16 745.8 300.325 745.918 300.459C746.044 300.593 746.225 300.715 746.461 300.825C746.705 300.927 747.078 301.069 747.582 301.25C748.14 301.454 748.577 301.635 748.891 301.792C749.214 301.95 749.501 302.186 749.753 302.5C750.012 302.807 750.142 303.208 750.142 303.704C750.142 304.443 749.871 305.029 749.328 305.462C748.785 305.887 748.05 306.099 747.121 306.099ZM757.631 299.031C757.631 299.071 757.616 299.106 757.584 299.137C757.561 299.161 757.529 299.173 757.49 299.173H753.62C753.58 299.173 753.561 299.193 753.561 299.232V301.061C753.561 301.1 753.58 301.12 753.62 301.12H756.156C756.196 301.12 756.227 301.135 756.251 301.167C756.282 301.191 756.298 301.222 756.298 301.261V302.406C756.298 302.445 756.282 302.481 756.251 302.512C756.227 302.536 756.196 302.547 756.156 302.547H753.62C753.58 302.547 753.561 302.567 753.561 302.606V304.518C753.561 304.557 753.58 304.577 753.62 304.577H757.49C757.529 304.577 757.561 304.593 757.584 304.624C757.616 304.648 757.631 304.679 757.631 304.719V305.863C757.631 305.902 757.616 305.938 757.584 305.969C757.561 305.993 757.529 306.005 757.49 306.005H752.039C751.999 306.005 751.964 305.993 751.932 305.969C751.909 305.938 751.897 305.902 751.897 305.863V297.887C751.897 297.847 751.909 297.816 751.932 297.792C751.964 297.761 751.999 297.745 752.039 297.745H757.49C757.529 297.745 757.561 297.761 757.584 297.792C757.616 297.816 757.631 297.847 757.631 297.887V299.031Z"></path>
<g filter="url(#filter4_dd_343_9284)">
<rect fill="#667EEA" rx="29.5" height="59.1803" width="59" y="197.222" x="78.05"></rect>
<rect fill="url(#paint14_linear_343_9284)" rx="29.5" height="59.1803" width="59" y="197.222" x="78.05"></rect>
<path fill="white" d="M107.277 226.013C103.751 226.013 100.92 223.183 100.92 219.656C100.92 216.18 103.751 213.299 107.277 213.299C110.754 213.299 113.635 216.18 113.635 219.656C113.635 223.183 110.754 226.013 107.277 226.013ZM104.993 228.397H109.512C114.429 228.397 118.402 232.371 118.402 237.287C118.402 238.082 117.707 238.728 116.912 238.728H97.5928C96.7981 238.728 96.1525 238.082 96.1525 237.287C96.1525 232.371 100.076 228.397 104.993 228.397Z"></path>
</g>
<path fill="#16A394" d="M347.979 226.103C347.633 226.449 347.633 227.009 347.979 227.355L353.61 232.987C353.956 233.332 354.516 233.332 354.862 232.987C355.208 232.641 355.208 232.081 354.862 231.735L349.856 226.729L354.862 221.723C355.208 221.378 355.208 220.817 354.862 220.472C354.516 220.126 353.956 220.126 353.61 220.472L347.979 226.103ZM439.58 227.355C439.925 227.009 439.925 226.449 439.58 226.103L433.948 220.472C433.602 220.126 433.042 220.126 432.697 220.472C432.351 220.817 432.351 221.378 432.697 221.723L437.703 226.729L432.697 231.735C432.351 232.081 432.351 232.641 432.697 232.987C433.042 233.332 433.602 233.332 433.948 232.987L439.58 227.355ZM348.604 227.614H438.954V225.844H348.604V227.614Z"></path>
<path fill="#718096" d="M577.253 226.103C576.908 226.449 576.908 227.009 577.253 227.355L582.885 232.987C583.23 233.332 583.791 233.332 584.136 232.987C584.482 232.641 584.482 232.081 584.136 231.735L579.13 226.729L584.136 221.723C584.482 221.378 584.482 220.817 584.136 220.472C583.791 220.126 583.23 220.126 582.885 220.472L577.253 226.103ZM668.854 227.355C669.2 227.009 669.2 226.449 668.854 226.103L663.222 220.472C662.877 220.126 662.317 220.126 661.971 220.472C661.625 220.817 661.625 221.378 661.971 221.723L666.977 226.729L661.971 231.735C661.625 232.081 661.625 232.641 661.971 232.987C662.317 233.332 662.877 233.332 663.222 232.987L668.854 227.355ZM577.879 227.614H668.228V225.844H577.879V227.614Z"></path>
<g filter="url(#filter5_dd_343_9284)">
<path fill="url(#paint15_linear_343_9284)" d="M508.479 275.124C535.171 275.124 556.809 265.811 556.809 254.324V238.417H460.149V254.324C460.149 265.811 481.787 275.124 508.479 275.124Z"></path>
<ellipse fill="url(#paint16_linear_343_9284)" ry="17.1297" rx="48.3301" cy="238.417" cx="508.479"></ellipse>
<ellipse fill-opacity="0.44" fill="url(#paint17_radial_343_9284)" ry="17.1297" rx="48.3301" cy="238.417" cx="508.479"></ellipse>
<path fill="url(#paint18_linear_343_9284)" d="M508.479 253.1C533.819 253.1 554.362 245.96 554.362 237.153V224.958H462.596V237.153C462.596 245.96 483.138 253.1 508.479 253.1Z"></path>
<path fill-opacity="0.284" fill="#C6D4DB" d="M508.479 253.1C533.819 253.1 554.362 245.96 554.362 237.153V224.958H462.596V237.153C462.596 245.96 483.138 253.1 508.479 253.1Z"></path>
<path fill="url(#paint19_linear_343_9284)" d="M508.479 248.071C533.819 248.071 554.362 240.931 554.362 232.124V219.929H462.596V232.124C462.596 240.931 483.138 248.071 508.479 248.071Z" opacity="0.5"></path>
<path fill="url(#paint20_linear_343_9284)" d="M508.479 245.759C535.171 245.759 556.809 237.883 556.809 228.168V211.5H460.149V228.168C460.149 237.883 481.787 245.759 508.479 245.759Z"></path>
<ellipse fill="url(#paint21_linear_343_9284)" ry="18.3532" rx="48.3301" cy="210.275" cx="508.479"></ellipse>
<ellipse fill-opacity="0.44" fill="url(#paint22_radial_343_9284)" ry="18.3532" rx="48.3301" cy="210.275" cx="508.479"></ellipse>
<path fill="url(#paint23_linear_343_9284)" d="M508.479 226.182C533.819 226.182 554.362 218.732 554.362 209.542V196.817H462.596V209.542C462.596 218.732 483.138 226.182 508.479 226.182Z"></path>
<path fill-opacity="0.284" fill="#C6D4DB" d="M508.479 226.182C533.819 226.182 554.362 218.732 554.362 209.542V196.817H462.596V209.542C462.596 218.732 483.138 226.182 508.479 226.182Z"></path>
<path fill="url(#paint24_linear_343_9284)" d="M508.479 220.595C533.819 220.595 554.362 213.145 554.362 203.955V191.23H462.596V203.955C462.596 213.145 483.138 220.595 508.479 220.595Z" opacity="0.5"></path>
<path fill="url(#paint25_linear_343_9284)" d="M508.479 218.192C535.171 218.192 556.81 210.198 556.81 200.337V183.419H460.149V200.337C460.149 210.198 481.787 218.192 508.479 218.192Z"></path>
<ellipse fill="url(#paint26_linear_343_9284)" ry="17.8547" rx="48.3301" cy="182.859" cx="508.481"></ellipse>
<path stroke-width="1.67619" stroke-opacity="0.46" stroke="url(#paint27_radial_343_9284)" d="M555.973 182.859C555.973 184.993 554.805 187.131 552.462 189.177C550.12 191.222 546.684 193.102 542.365 194.698C533.734 197.886 521.754 199.875 508.481 199.875C495.207 199.875 483.228 197.886 474.597 194.698C470.278 193.102 466.841 191.222 464.5 189.177C462.157 187.131 460.989 184.993 460.989 182.859C460.989 180.724 462.157 178.587 464.5 176.54C466.841 174.495 470.278 172.615 474.597 171.02C483.228 167.831 495.207 165.842 508.481 165.842C521.754 165.842 533.734 167.831 542.365 171.02C546.684 172.615 550.12 174.495 552.462 176.54C554.805 178.587 555.973 180.724 555.973 182.859Z"></path>
</g>
<g style="mix-blend-mode:overlay">
<path fill="#16A394" d="M556.799 183.419C556.793 183.419 556.788 183.414 556.788 183.408C556.803 183.226 556.811 183.043 556.811 182.859C556.811 172.998 535.173 165.004 508.481 165.004C481.789 165.004 460.151 172.998 460.151 182.859C460.151 183.042 460.158 183.225 460.173 183.406C460.173 183.413 460.168 183.419 460.161 183.419C460.155 183.419 460.149 183.424 460.149 183.431V200.338C460.149 200.602 460.165 200.866 460.196 201.128C460.51 203.793 460.553 206.698 460.208 209.36C460.169 209.663 460.149 209.969 460.149 210.276C460.149 210.668 460.182 211.057 460.245 211.444C460.25 211.473 460.228 211.5 460.198 211.5C460.171 211.5 460.149 211.522 460.149 211.549V228.169C460.149 228.372 460.159 228.574 460.177 228.775C460.451 231.712 460.398 234.993 460.168 237.935C460.156 238.095 460.149 238.256 460.149 238.417L460.149 254.324C460.149 265.812 481.787 275.124 508.479 275.124C535.171 275.124 556.809 265.812 556.809 254.324V238.453L556.81 238.417C556.81 238.256 556.803 238.095 556.791 237.935C556.561 234.993 556.508 231.712 556.781 228.774C556.8 228.573 556.809 228.371 556.809 228.169V211.549C556.809 211.522 556.788 211.5 556.761 211.5C556.731 211.5 556.708 211.473 556.713 211.444C556.777 211.057 556.809 210.668 556.809 210.276C556.809 209.969 556.79 209.663 556.75 209.36C556.406 206.698 556.449 203.793 556.763 201.128C556.794 200.866 556.81 200.603 556.81 200.338V183.43C556.81 183.424 556.805 183.419 556.799 183.419Z"></path>
</g>
<g filter="url(#filter6_dd_343_9284)">
<path fill="url(#paint28_linear_343_9284)" d="M727.582 275.124C748.676 275.124 765.776 267.764 765.776 258.686V246.116H689.388V258.686C689.388 267.764 706.488 275.124 727.582 275.124Z"></path>
<ellipse fill="url(#paint29_linear_343_9284)" ry="13.537" rx="38.1937" cy="246.115" cx="727.582"></ellipse>
<ellipse fill-opacity="0.44" fill="url(#paint30_radial_343_9284)" ry="13.537" rx="38.1937" cy="246.115" cx="727.582"></ellipse>
<path fill="url(#paint31_linear_343_9284)" d="M727.582 257.719C747.608 257.719 763.842 252.077 763.842 245.117V235.479H691.322V245.117C691.322 252.077 707.556 257.719 727.582 257.719Z"></path>
<path fill-opacity="0.284" fill="#C6D4DB" d="M727.582 257.719C747.608 257.719 763.842 252.077 763.842 245.117V235.479H691.322V245.117C691.322 252.077 707.556 257.719 727.582 257.719Z"></path>
<path fill="url(#paint32_linear_343_9284)" d="M727.582 253.745C747.607 253.745 763.841 248.103 763.841 241.143V231.506H691.322V241.143C691.322 248.103 707.556 253.745 727.582 253.745Z" opacity="0.5"></path>
<path fill="url(#paint33_linear_343_9284)" d="M727.582 251.918C748.676 251.918 765.776 245.694 765.776 238.016V224.844H689.388V238.016C689.388 245.694 706.488 251.918 727.582 251.918Z"></path>
<ellipse fill="url(#paint34_linear_343_9284)" ry="14.5039" rx="38.1937" cy="223.876" cx="727.582"></ellipse>
<ellipse fill-opacity="0.44" fill="url(#paint35_radial_343_9284)" ry="14.5039" rx="38.1937" cy="223.876" cx="727.582"></ellipse>
<path fill="url(#paint36_linear_343_9284)" d="M727.582 236.447C747.608 236.447 763.842 230.559 763.842 223.297V213.241H691.322V223.297C691.322 230.559 707.556 236.447 727.582 236.447Z"></path>
<path fill-opacity="0.284" fill="#C6D4DB" d="M727.582 236.447C747.608 236.447 763.842 230.559 763.842 223.297V213.241H691.322V223.297C691.322 230.559 707.556 236.447 727.582 236.447Z"></path>
<path fill="url(#paint37_linear_343_9284)" d="M727.582 232.031C747.608 232.031 763.842 226.144 763.842 218.881V208.825H691.322V218.881C691.322 226.144 707.556 232.031 727.582 232.031Z" opacity="0.5"></path>
<path fill="url(#paint38_linear_343_9284)" d="M727.582 230.132C748.676 230.132 765.776 223.815 765.776 216.022V202.652H689.388V216.022C689.388 223.815 706.488 230.132 727.582 230.132Z"></path>
<ellipse fill="url(#paint39_linear_343_9284)" ry="14.1099" rx="38.1937" cy="202.21" cx="727.583"></ellipse>
<path stroke-width="1.32464" stroke-opacity="0.46" stroke="url(#paint40_radial_343_9284)" d="M765.115 202.21C765.115 203.897 764.192 205.586 762.34 207.203C760.49 208.819 757.774 210.305 754.361 211.566C747.54 214.086 738.073 215.657 727.583 215.657C717.094 215.657 707.627 214.086 700.806 211.566C697.393 210.305 694.677 208.819 692.827 207.203C690.975 205.586 690.052 203.897 690.052 202.21C690.052 200.523 690.975 198.834 692.827 197.216C694.677 195.6 697.393 194.115 700.806 192.854C707.627 190.334 717.094 188.762 727.583 188.762C738.073 188.762 747.54 190.334 754.361 192.854C757.774 194.115 760.49 195.6 762.34 197.216C764.192 198.834 765.115 200.523 765.115 202.21Z"></path>
</g>
<g style="mix-blend-mode:overlay">
<path fill="#667EEA" d="M765.768 202.653C765.763 202.653 765.759 202.649 765.759 202.644C765.771 202.5 765.777 202.355 765.777 202.21C765.777 194.417 748.677 188.1 727.583 188.1C706.489 188.1 689.39 194.417 689.39 202.21C689.39 202.355 689.395 202.499 689.407 202.643C689.408 202.648 689.403 202.653 689.398 202.653C689.393 202.653 689.389 202.657 689.389 202.662V216.023C689.389 216.232 689.401 216.44 689.425 216.647C689.674 218.754 689.707 221.049 689.435 223.153C689.404 223.393 689.388 223.634 689.388 223.877C689.388 224.187 689.414 224.494 689.464 224.799C689.468 224.823 689.45 224.844 689.427 224.844C689.406 224.844 689.388 224.861 689.388 224.882V238.017C689.388 238.177 689.396 238.337 689.411 238.496C689.627 240.817 689.585 243.41 689.403 245.735C689.393 245.861 689.389 245.988 689.389 246.116L689.388 258.686C689.388 267.765 706.488 275.124 727.582 275.124C748.676 275.124 765.776 267.765 765.776 258.686V246.144L765.776 246.116C765.776 245.988 765.771 245.861 765.761 245.735C765.58 243.41 765.538 240.817 765.754 238.495C765.768 238.337 765.776 238.177 765.776 238.017V224.882C765.776 224.861 765.759 224.844 765.738 224.844C765.714 224.844 765.696 224.823 765.7 224.799C765.75 224.494 765.776 224.187 765.776 223.877C765.776 223.634 765.76 223.393 765.729 223.153C765.457 221.049 765.491 218.754 765.739 216.647C765.764 216.44 765.776 216.232 765.776 216.023V202.661C765.776 202.656 765.772 202.653 765.768 202.653Z"></path>
<path fill="url(#paint41_linear_343_9284)" d="M765.768 202.653C765.763 202.653 765.759 202.649 765.759 202.644C765.771 202.5 765.777 202.355 765.777 202.21C765.777 194.417 748.677 188.1 727.583 188.1C706.489 188.1 689.39 194.417 689.39 202.21C689.39 202.355 689.395 202.499 689.407 202.643C689.408 202.648 689.403 202.653 689.398 202.653C689.393 202.653 689.389 202.657 689.389 202.662V216.023C689.389 216.232 689.401 216.44 689.425 216.647C689.674 218.754 689.707 221.049 689.435 223.153C689.404 223.393 689.388 223.634 689.388 223.877C689.388 224.187 689.414 224.494 689.464 224.799C689.468 224.823 689.45 224.844 689.427 224.844C689.406 224.844 689.388 224.861 689.388 224.882V238.017C689.388 238.177 689.396 238.337 689.411 238.496C689.627 240.817 689.585 243.41 689.403 245.735C689.393 245.861 689.389 245.988 689.389 246.116L689.388 258.686C689.388 267.765 706.488 275.124 727.582 275.124C748.676 275.124 765.776 267.765 765.776 258.686V246.144L765.776 246.116C765.776 245.988 765.771 245.861 765.761 245.735C765.58 243.41 765.538 240.817 765.754 238.495C765.768 238.337 765.776 238.177 765.776 238.017V224.882C765.776 224.861 765.759 224.844 765.738 224.844C765.714 224.844 765.696 224.823 765.7 224.799C765.75 224.494 765.776 224.187 765.776 223.877C765.776 223.634 765.76 223.393 765.729 223.153C765.457 221.049 765.491 218.754 765.739 216.647C765.764 216.44 765.776 216.232 765.776 216.023V202.661C765.776 202.656 765.772 202.653 765.768 202.653Z"></path>
</g>
<g filter="url(#filter7_dd_343_9284)">
<rect stroke-width="1.99112" stroke="white" fill="#1A202C" rx="17.4956" height="35.0926" width="34.9911" y="249.728" x="527.156"></rect>
<g filter="url(#filter8_dd_343_9284)">
<path fill="#04C8BB" d="M548.803 261.336L546.652 266.364H549.78C550.144 266.364 550.479 266.588 550.619 266.923C550.73 267.286 550.646 267.677 550.367 267.929L543.215 274.187C542.88 274.438 542.433 274.466 542.098 274.215C541.763 273.991 541.623 273.544 541.791 273.153L543.942 268.124H540.841C540.45 268.124 540.114 267.901 540.003 267.566C539.863 267.203 539.947 266.811 540.226 266.56L547.378 260.302C547.713 260.051 548.16 260.023 548.495 260.274C548.831 260.498 548.97 260.945 548.803 261.336Z"></path>
</g>
</g>
<defs>
<filter color-interpolation-filters="sRGB" filterUnits="userSpaceOnUse" height="89.8401" width="80.2349" y="190.746" x="249.113" id="filter0_dd_343_9284">
<feFlood result="BackgroundImageFix" flood-opacity="0"></feFlood>
<feColorMatrix result="hardAlpha" values="0 0 0 0 0 0 0 0 0 0 0 0 0 0 0 0 0 0 127 0" type="matrix" in="SourceAlpha"></feColorMatrix>
<feOffset dy="2.94981"></feOffset>
<feGaussianBlur stdDeviation="0.884944"></feGaussianBlur>
<feColorMatrix values="0 0 0 0 0.0901961 0 0 0 0 0.168627 0 0 0 0 0.301961 0 0 0 0.08 0" type="matrix"></feColorMatrix>
<feBlend result="effect1_dropShadow_343_9284" in2="BackgroundImageFix" mode="normal"></feBlend>
<feColorMatrix result="hardAlpha" values="0 0 0 0 0 0 0 0 0 0 0 0 0 0 0 0 0 0 127 0" type="matrix" in="SourceAlpha"></feColorMatrix>
<feOffset dy="1.76989"></feOffset>
<feGaussianBlur stdDeviation="0.589963"></feGaussianBlur>
<feColorMatrix values="0 0 0 0 0.0901961 0 0 0 0 0.168627 0 0 0 0 0.301961 0 0 0 0.04 0" type="matrix"></feColorMatrix>
<feBlend result="effect2_dropShadow_343_9284" in2="effect1_dropShadow_343_9284" mode="normal"></feBlend>
<feBlend result="shape" in2="effect2_dropShadow_343_9284" in="SourceGraphic" mode="normal"></feBlend>
</filter>
<filter color-interpolation-filters="sRGB" filterUnits="userSpaceOnUse" height="12.969" width="5.76636" y="226.313" x="258.855" id="filter1_iiii_343_9284">
<feFlood result="BackgroundImageFix" flood-opacity="0"></feFlood>
<feBlend result="shape" in2="BackgroundImageFix" in="SourceGraphic" mode="normal"></feBlend>
<feColorMatrix result="hardAlpha" values="0 0 0 0 0 0 0 0 0 0 0 0 0 0 0 0 0 0 127 0" type="matrix" in="SourceAlpha"></feColorMatrix>
<feOffset dy="0.893822"></feOffset>
<feGaussianBlur stdDeviation="0.550045"></feGaussianBlur>
<feComposite k3="1" k2="-1" operator="arithmetic" in2="hardAlpha"></feComposite>
<feColorMatrix values="0 0 0 0 0 0 0 0 0 0 0 0 0 0 0 0 0 0 0.0562291 0" type="matrix"></feColorMatrix>
<feBlend result="effect1_innerShadow_343_9284" in2="shape" mode="normal"></feBlend>
<feColorMatrix result="hardAlpha" values="0 0 0 0 0 0 0 0 0 0 0 0 0 0 0 0 0 0 127 0" type="matrix" in="SourceAlpha"></feColorMatrix>
<feOffset dy="2.14798"></feOffset>
<feGaussianBlur stdDeviation="1.32183"></feGaussianBlur>
<feComposite k3="1" k2="-1" operator="arithmetic" in2="hardAlpha"></feComposite>
<feColorMatrix values="0 0 0 0 0 0 0 0 0 0 0 0 0 0 0 0 0 0 0.0807786 0" type="matrix"></feColorMatrix>
<feBlend result="effect2_innerShadow_343_9284" in2="effect1_innerShadow_343_9284" mode="normal"></feBlend>
<feColorMatrix result="hardAlpha" values="0 0 0 0 0 0 0 0 0 0 0 0 0 0 0 0 0 0 127 0" type="matrix" in="SourceAlpha"></feColorMatrix>
<feOffset dy="4.04445"></feOffset>
<feGaussianBlur stdDeviation="2.4889"></feGaussianBlur>
<feComposite k3="1" k2="-1" operator="arithmetic" in2="hardAlpha"></feComposite>
<feColorMatrix values="0 0 0 0 0 0 0 0 0 0 0 0 0 0 0 0 0 0 0.1 0" type="matrix"></feColorMatrix>
<feBlend result="effect3_innerShadow_343_9284" in2="effect2_innerShadow_343_9284" mode="normal"></feBlend>
<feColorMatrix result="hardAlpha" values="0 0 0 0 0 0 0 0 0 0 0 0 0 0 0 0 0 0 127 0" type="matrix" in="SourceAlpha"></feColorMatrix>
<feOffset dy="7.21462"></feOffset>
<feGaussianBlur stdDeviation="4.43976"></feGaussianBlur>
<feComposite k3="1" k2="-1" operator="arithmetic" in2="hardAlpha"></feComposite>
<feColorMatrix values="0 0 0 0 0 0 0 0 0 0 0 0 0 0 0 0 0 0 0.119221 0" type="matrix"></feColorMatrix>
<feBlend result="effect4_innerShadow_343_9284" in2="effect3_innerShadow_343_9284" mode="normal"></feBlend>
</filter>
<filter color-interpolation-filters="sRGB" filterUnits="userSpaceOnUse" height="12.969" width="5.76636" y="226.313" x="266.266" id="filter2_iiii_343_9284">
<feFlood result="BackgroundImageFix" flood-opacity="0"></feFlood>
<feBlend result="shape" in2="BackgroundImageFix" in="SourceGraphic" mode="normal"></feBlend>
<feColorMatrix result="hardAlpha" values="0 0 0 0 0 0 0 0 0 0 0 0 0 0 0 0 0 0 127 0" type="matrix" in="SourceAlpha"></feColorMatrix>
<feOffset dy="0.893822"></feOffset>
<feGaussianBlur stdDeviation="0.550045"></feGaussianBlur>
<feComposite k3="1" k2="-1" operator="arithmetic" in2="hardAlpha"></feComposite>
<feColorMatrix values="0 0 0 0 0 0 0 0 0 0 0 0 0 0 0 0 0 0 0.0562291 0" type="matrix"></feColorMatrix>
<feBlend result="effect1_innerShadow_343_9284" in2="shape" mode="normal"></feBlend>
<feColorMatrix result="hardAlpha" values="0 0 0 0 0 0 0 0 0 0 0 0 0 0 0 0 0 0 127 0" type="matrix" in="SourceAlpha"></feColorMatrix>
<feOffset dy="2.14798"></feOffset>
<feGaussianBlur stdDeviation="1.32183"></feGaussianBlur>
<feComposite k3="1" k2="-1" operator="arithmetic" in2="hardAlpha"></feComposite>
<feColorMatrix values="0 0 0 0 0 0 0 0 0 0 0 0 0 0 0 0 0 0 0.0807786 0" type="matrix"></feColorMatrix>
<feBlend result="effect2_innerShadow_343_9284" in2="effect1_innerShadow_343_9284" mode="normal"></feBlend>
<feColorMatrix result="hardAlpha" values="0 0 0 0 0 0 0 0 0 0 0 0 0 0 0 0 0 0 127 0" type="matrix" in="SourceAlpha"></feColorMatrix>
<feOffset dy="4.04445"></feOffset>
<feGaussianBlur stdDeviation="2.4889"></feGaussianBlur>
<feComposite k3="1" k2="-1" operator="arithmetic" in2="hardAlpha"></feComposite>
<feColorMatrix values="0 0 0 0 0 0 0 0 0 0 0 0 0 0 0 0 0 0 0.1 0" type="matrix"></feColorMatrix>
<feBlend result="effect3_innerShadow_343_9284" in2="effect2_innerShadow_343_9284" mode="normal"></feBlend>
<feColorMatrix result="hardAlpha" values="0 0 0 0 0 0 0 0 0 0 0 0 0 0 0 0 0 0 127 0" type="matrix" in="SourceAlpha"></feColorMatrix>
<feOffset dy="7.21462"></feOffset>
<feGaussianBlur stdDeviation="4.43976"></feGaussianBlur>
<feComposite k3="1" k2="-1" operator="arithmetic" in2="hardAlpha"></feComposite>
<feColorMatrix values="0 0 0 0 0 0 0 0 0 0 0 0 0 0 0 0 0 0 0.119221 0" type="matrix"></feColorMatrix>
<feBlend result="effect4_innerShadow_343_9284" in2="effect3_innerShadow_343_9284" mode="normal"></feBlend>
</filter>
<filter color-interpolation-filters="sRGB" filterUnits="userSpaceOnUse" height="9.69655" width="21.1928" y="227.949" x="299.72" id="filter3_iiii_343_9284">
<feFlood result="BackgroundImageFix" flood-opacity="0"></feFlood>
<feBlend result="shape" in2="BackgroundImageFix" in="SourceGraphic" mode="normal"></feBlend>
<feColorMatrix result="hardAlpha" values="0 0 0 0 0 0 0 0 0 0 0 0 0 0 0 0 0 0 127 0" type="matrix" in="SourceAlpha"></feColorMatrix>
<feOffset dy="0.893822"></feOffset>
<feGaussianBlur stdDeviation="0.550045"></feGaussianBlur>
<feComposite k3="1" k2="-1" operator="arithmetic" in2="hardAlpha"></feComposite>
<feColorMatrix values="0 0 0 0 0 0 0 0 0 0 0 0 0 0 0 0 0 0 0.0562291 0" type="matrix"></feColorMatrix>
<feBlend result="effect1_innerShadow_343_9284" in2="shape" mode="normal"></feBlend>
<feColorMatrix result="hardAlpha" values="0 0 0 0 0 0 0 0 0 0 0 0 0 0 0 0 0 0 127 0" type="matrix" in="SourceAlpha"></feColorMatrix>
<feOffset dy="2.14798"></feOffset>
<feGaussianBlur stdDeviation="1.32183"></feGaussianBlur>
<feComposite k3="1" k2="-1" operator="arithmetic" in2="hardAlpha"></feComposite>
<feColorMatrix values="0 0 0 0 0 0 0 0 0 0 0 0 0 0 0 0 0 0 0.0807786 0" type="matrix"></feColorMatrix>
<feBlend result="effect2_innerShadow_343_9284" in2="effect1_innerShadow_343_9284" mode="normal"></feBlend>
<feColorMatrix result="hardAlpha" values="0 0 0 0 0 0 0 0 0 0 0 0 0 0 0 0 0 0 127 0" type="matrix" in="SourceAlpha"></feColorMatrix>
<feOffset dy="4.04445"></feOffset>
<feGaussianBlur stdDeviation="2.4889"></feGaussianBlur>
<feComposite k3="1" k2="-1" operator="arithmetic" in2="hardAlpha"></feComposite>
<feColorMatrix values="0 0 0 0 0 0 0 0 0 0 0 0 0 0 0 0 0 0 0.1 0" type="matrix"></feColorMatrix>
<feBlend result="effect3_innerShadow_343_9284" in2="effect2_innerShadow_343_9284" mode="normal"></feBlend>
<feColorMatrix result="hardAlpha" values="0 0 0 0 0 0 0 0 0 0 0 0 0 0 0 0 0 0 127 0" type="matrix" in="SourceAlpha"></feColorMatrix>
<feOffset dy="7.21462"></feOffset>
<feGaussianBlur stdDeviation="4.43976"></feGaussianBlur>
<feComposite k3="1" k2="-1" operator="arithmetic" in2="hardAlpha"></feComposite>
<feColorMatrix values="0 0 0 0 0 0 0 0 0 0 0 0 0 0 0 0 0 0 0.119221 0" type="matrix"></feColorMatrix>
<feBlend result="effect4_innerShadow_343_9284" in2="effect3_innerShadow_343_9284" mode="normal"></feBlend>
</filter>
<filter color-interpolation-filters="sRGB" filterUnits="userSpaceOnUse" height="63.9001" width="63.0126" y="197.222" x="75.8074" id="filter4_dd_343_9284">
<feFlood result="BackgroundImageFix" flood-opacity="0"></feFlood>
<feColorMatrix result="hardAlpha" values="0 0 0 0 0 0 0 0 0 0 0 0 0 0 0 0 0 0 127 0" type="matrix" in="SourceAlpha"></feColorMatrix>
<feOffset dy="2.94981"></feOffset>
<feGaussianBlur stdDeviation="0.884944"></feGaussianBlur>
<feColorMatrix values="0 0 0 0 0.0901961 0 0 0 0 0.168627 0 0 0 0 0.301961 0 0 0 0.08 0" type="matrix"></feColorMatrix>
<feBlend result="effect1_dropShadow_343_9284" in2="BackgroundImageFix" mode="normal"></feBlend>
<feColorMatrix result="hardAlpha" values="0 0 0 0 0 0 0 0 0 0 0 0 0 0 0 0 0 0 127 0" type="matrix" in="SourceAlpha"></feColorMatrix>
<feOffset dy="1.76989"></feOffset>
<feGaussianBlur stdDeviation="0.589963"></feGaussianBlur>
<feColorMatrix values="0 0 0 0 0.0901961 0 0 0 0 0.168627 0 0 0 0 0.301961 0 0 0 0.04 0" type="matrix"></feColorMatrix>
<feBlend result="effect2_dropShadow_343_9284" in2="effect1_dropShadow_343_9284" mode="normal"></feBlend>
<feBlend result="shape" in2="effect2_dropShadow_343_9284" in="SourceGraphic" mode="normal"></feBlend>
</filter>
<filter color-interpolation-filters="sRGB" filterUnits="userSpaceOnUse" height="118.488" width="103.05" y="164.636" x="456.98" id="filter5_dd_343_9284">
<feFlood result="BackgroundImageFix" flood-opacity="0"></feFlood>
<feColorMatrix result="hardAlpha" values="0 0 0 0 0 0 0 0 0 0 0 0 0 0 0 0 0 0 127 0" type="matrix" in="SourceAlpha"></feColorMatrix>
<feOffset dy="5"></feOffset>
<feGaussianBlur stdDeviation="1.5"></feGaussianBlur>
<feColorMatrix values="0 0 0 0 0.0901961 0 0 0 0 0.168627 0 0 0 0 0.301961 0 0 0 0.08 0" type="matrix"></feColorMatrix>
<feBlend result="effect1_dropShadow_343_9284" in2="BackgroundImageFix" mode="normal"></feBlend>
<feColorMatrix result="hardAlpha" values="0 0 0 0 0 0 0 0 0 0 0 0 0 0 0 0 0 0 127 0" type="matrix" in="SourceAlpha"></feColorMatrix>
<feOffset dy="3"></feOffset>
<feGaussianBlur stdDeviation="1"></feGaussianBlur>
<feColorMatrix values="0 0 0 0 0.0901961 0 0 0 0 0.168627 0 0 0 0 0.301961 0 0 0 0.04 0" type="matrix"></feColorMatrix>
<feBlend result="effect2_dropShadow_343_9284" in2="effect1_dropShadow_343_9284" mode="normal"></feBlend>
<feBlend result="shape" in2="effect2_dropShadow_343_9284" in="SourceGraphic" mode="normal"></feBlend>
</filter>
<filter color-interpolation-filters="sRGB" filterUnits="userSpaceOnUse" height="95.3149" width="82.6952" y="187.809" x="686.255" id="filter6_dd_343_9284">
<feFlood result="BackgroundImageFix" flood-opacity="0"></feFlood>
<feColorMatrix result="hardAlpha" values="0 0 0 0 0 0 0 0 0 0 0 0 0 0 0 0 0 0 127 0" type="matrix" in="SourceAlpha"></feColorMatrix>
<feOffset dy="5"></feOffset>
<feGaussianBlur stdDeviation="1.5"></feGaussianBlur>
<feColorMatrix values="0 0 0 0 0.0901961 0 0 0 0 0.168627 0 0 0 0 0.301961 0 0 0 0.08 0" type="matrix"></feColorMatrix>
<feBlend result="effect1_dropShadow_343_9284" in2="BackgroundImageFix" mode="normal"></feBlend>
<feColorMatrix result="hardAlpha" values="0 0 0 0 0 0 0 0 0 0 0 0 0 0 0 0 0 0 127 0" type="matrix" in="SourceAlpha"></feColorMatrix>
<feOffset dy="3"></feOffset>
<feGaussianBlur stdDeviation="1"></feGaussianBlur>
<feColorMatrix values="0 0 0 0 0.0901961 0 0 0 0 0.168627 0 0 0 0 0.301961 0 0 0 0.04 0" type="matrix"></feColorMatrix>
<feBlend result="effect2_dropShadow_343_9284" in2="effect1_dropShadow_343_9284" mode="normal"></feBlend>
<feBlend result="shape" in2="effect2_dropShadow_343_9284" in="SourceGraphic" mode="normal"></feBlend>
</filter>
<filter color-interpolation-filters="sRGB" filterUnits="userSpaceOnUse" height="39.7386" width="38.9734" y="248.732" x="525.165" id="filter7_dd_343_9284">
<feFlood result="BackgroundImageFix" flood-opacity="0"></feFlood>
<feColorMatrix result="hardAlpha" values="0 0 0 0 0 0 0 0 0 0 0 0 0 0 0 0 0 0 127 0" type="matrix" in="SourceAlpha"></feColorMatrix>
<feOffset dy="1.65927"></feOffset>
<feGaussianBlur stdDeviation="0.497781"></feGaussianBlur>
<feColorMatrix values="0 0 0 0 0.0901961 0 0 0 0 0.168627 0 0 0 0 0.301961 0 0 0 0.08 0" type="matrix"></feColorMatrix>
<feBlend result="effect1_dropShadow_343_9284" in2="BackgroundImageFix" mode="normal"></feBlend>
<feColorMatrix result="hardAlpha" values="0 0 0 0 0 0 0 0 0 0 0 0 0 0 0 0 0 0 127 0" type="matrix" in="SourceAlpha"></feColorMatrix>
<feOffset dy="0.995562"></feOffset>
<feGaussianBlur stdDeviation="0.331854"></feGaussianBlur>
<feColorMatrix values="0 0 0 0 0.0901961 0 0 0 0 0.168627 0 0 0 0 0.301961 0 0 0 0.04 0" type="matrix"></feColorMatrix>
<feBlend result="effect2_dropShadow_343_9284" in2="effect1_dropShadow_343_9284" mode="normal"></feBlend>
<feBlend result="shape" in2="effect2_dropShadow_343_9284" in="SourceGraphic" mode="normal"></feBlend>
</filter>
<filter color-interpolation-filters="sRGB" filterUnits="userSpaceOnUse" height="26.5793" width="37.1854" y="256.05" x="526.573" id="filter8_dd_343_9284">
<feFlood result="BackgroundImageFix" flood-opacity="0"></feFlood>
<feColorMatrix result="hardAlpha" values="0 0 0 0 0 0 0 0 0 0 0 0 0 0 0 0 0 0 127 0" type="matrix" in="SourceAlpha"></feColorMatrix>
<feOffset dy="3"></feOffset>
<feGaussianBlur stdDeviation="1"></feGaussianBlur>
<feColorMatrix values="0 0 0 0 0.0901961 0 0 0 0 0.168627 0 0 0 0 0.301961 0 0 0 0.08 0" type="matrix"></feColorMatrix>
<feBlend result="effect1_dropShadow_343_9284" in2="BackgroundImageFix" mode="normal"></feBlend>
<feColorMatrix result="hardAlpha" values="0 0 0 0 0 0 0 0 0 0 0 0 0 0 0 0 0 0 127 0" type="matrix" in="SourceAlpha"></feColorMatrix>
<feOffset></feOffset>
<feGaussianBlur stdDeviation="1"></feGaussianBlur>
<feColorMatrix values="0 0 0 0 0.0901961 0 0 0 0 0.168627 0 0 0 0 0.301961 0 0 0 0.04 0" type="matrix"></feColorMatrix>
<feBlend result="effect2_dropShadow_343_9284" in2="effect1_dropShadow_343_9284" mode="normal"></feBlend>
<feBlend result="shape" in2="effect2_dropShadow_343_9284" in="SourceGraphic" mode="normal"></feBlend>
</filter>
<linearGradient gradientUnits="userSpaceOnUse" y2="509.404" x2="844" y1="-4.21058e-06" x1="106.157" id="paint0_linear_343_9284">
<stop stop-color="#2D3748"></stop>
<stop stop-color="#1A202C" offset="1"></stop>
</linearGradient>
<linearGradient gradientUnits="userSpaceOnUse" y2="230.907" x2="327.578" y1="230.907" x1="250.883" id="paint1_linear_343_9284">
<stop stop-color="#B4C5CD"></stop>
<stop stop-color="#6C8A98" offset="0.718232"></stop>
<stop stop-color="#6B8692" offset="1"></stop>
</linearGradient>
<linearGradient gradientUnits="userSpaceOnUse" y2="245.93" x2="260.871" y1="214.16" x1="314.623" id="paint2_linear_343_9284">
<stop stop-color="#648697"></stop>
<stop stop-color="#B8CCD5" offset="1"></stop>
</linearGradient>
<radialGradient gradientTransform="translate(267.73 264.922) rotate(-128.121) scale(27.2891 23.248)" gradientUnits="userSpaceOnUse" r="1" cy="0" cx="0" id="paint3_radial_343_9284">
<stop stop-color="white"></stop>
<stop stop-opacity="0" stop-color="white" offset="1"></stop>
</radialGradient>
<linearGradient gradientUnits="userSpaceOnUse" y2="213.153" x2="327.578" y1="213.153" x1="250.883" id="paint4_linear_343_9284">
<stop stop-color="#183C56"></stop>
<stop stop-color="#335D7B" offset="0.286458"></stop>
<stop stop-color="#082133" offset="1"></stop>
</linearGradient>
<linearGradient gradientUnits="userSpaceOnUse" y2="207.64" x2="327.578" y1="207.64" x1="250.883" id="paint5_linear_343_9284">
<stop stop-color="#183C56"></stop>
<stop stop-color="#335D7B" offset="0.286458"></stop>
<stop stop-color="#082133" offset="1"></stop>
</linearGradient>
<linearGradient gradientUnits="userSpaceOnUse" y2="209.536" x2="327.578" y1="209.536" x1="250.883" id="paint6_linear_343_9284">
<stop stop-color="#B4C5CD"></stop>
<stop stop-color="#6C8A98" offset="0.718232"></stop>
<stop stop-color="#6B8692" offset="1"></stop>
</linearGradient>
<linearGradient gradientUnits="userSpaceOnUse" y2="224.561" x2="260.871" y1="192.791" x1="314.623" id="paint7_linear_343_9284">
<stop stop-color="#648697"></stop>
<stop stop-color="#B8CCD5" offset="1"></stop>
</linearGradient>
<radialGradient gradientTransform="translate(267.73 243.553) rotate(-128.121) scale(27.2891 23.248)" gradientUnits="userSpaceOnUse" r="1" cy="0" cx="0" id="paint8_radial_343_9284">
<stop stop-color="white"></stop>
<stop stop-opacity="0" stop-color="white" offset="1"></stop>
</radialGradient>
<linearGradient gradientUnits="userSpaceOnUse" y2="191.784" x2="327.578" y1="191.784" x1="250.883" id="paint9_linear_343_9284">
<stop stop-color="#183C56"></stop>
<stop stop-color="#335D7B" offset="0.286458"></stop>
<stop stop-color="#082133" offset="1"></stop>
</linearGradient>
<linearGradient gradientUnits="userSpaceOnUse" y2="186.27" x2="327.578" y1="186.27" x1="250.883" id="paint10_linear_343_9284">
<stop stop-color="#183C56"></stop>
<stop stop-color="#335D7B" offset="0.286458"></stop>
<stop stop-color="#082133" offset="1"></stop>
</linearGradient>
<linearGradient gradientUnits="userSpaceOnUse" y2="188.525" x2="327.578" y1="188.525" x1="250.883" id="paint11_linear_343_9284">
<stop stop-color="#B4C5CD"></stop>
<stop stop-color="#6C8A98" offset="0.718232"></stop>
<stop stop-color="#6B8692" offset="1"></stop>
</linearGradient>
<linearGradient gradientUnits="userSpaceOnUse" y2="231.116" x2="275.712" y1="194.592" x1="315.141" id="paint12_linear_343_9284">
<stop stop-color="#B9CAD2"></stop>
<stop stop-color="#DBE6EB" offset="1"></stop>
</linearGradient>
<radialGradient gradientTransform="translate(261.966 221.323) rotate(-39.0336) scale(35.3849 100.057)" gradientUnits="userSpaceOnUse" r="1" cy="0" cx="0" id="paint13_radial_343_9284">
<stop stop-color="white"></stop>
<stop stop-opacity="0" stop-color="white" offset="1"></stop>
</radialGradient>
<linearGradient gradientUnits="userSpaceOnUse" y2="197.348" x2="94.3401" y1="252.99" x1="137.05" id="paint14_linear_343_9284">
<stop stop-color="#4C51BF"></stop>
<stop stop-opacity="0" stop-color="#4C51BF" offset="1"></stop>
</linearGradient>
<linearGradient gradientUnits="userSpaceOnUse" y2="232.509" x2="556.809" y1="232.509" x1="460.149" id="paint15_linear_343_9284">
<stop stop-color="#B4C5CD"></stop>
<stop stop-color="#6C8A98" offset="0.718232"></stop>
<stop stop-color="#6B8692" offset="1"></stop>
</linearGradient>
<linearGradient gradientUnits="userSpaceOnUse" y2="260.505" x2="491.43" y1="214.922" x1="540.482" id="paint16_linear_343_9284">
<stop stop-color="#648697"></stop>
<stop stop-color="#B8CCD5" offset="1"></stop>
</linearGradient>
<radialGradient gradientTransform="translate(481.381 255.612) rotate(-140.974) scale(27.3301 23.4512)" gradientUnits="userSpaceOnUse" r="1" cy="0" cx="0" id="paint17_radial_343_9284">
<stop stop-color="white"></stop>
<stop stop-opacity="0" stop-color="white" offset="1"></stop>
</radialGradient>
<linearGradient gradientUnits="userSpaceOnUse" y2="220.428" x2="554.362" y1="220.428" x1="462.596" id="paint18_linear_343_9284">
<stop stop-color="#183C56"></stop>
<stop stop-color="#335D7B" offset="0.286458"></stop>
<stop stop-color="#082133" offset="1"></stop>
</linearGradient>
<linearGradient gradientUnits="userSpaceOnUse" y2="215.399" x2="554.362" y1="215.399" x1="462.596" id="paint19_linear_343_9284">
<stop stop-color="#183C56"></stop>
<stop stop-color="#335D7B" offset="0.286458"></stop>
<stop stop-color="#082133" offset="1"></stop>
</linearGradient>
<linearGradient gradientUnits="userSpaceOnUse" y2="209.719" x2="556.809" y1="209.719" x1="460.149" id="paint20_linear_343_9284">
<stop stop-color="#B4C5CD"></stop>
<stop stop-color="#6C8A98" offset="0.718232"></stop>
<stop stop-color="#6B8692" offset="1"></stop>
</linearGradient>
<linearGradient gradientUnits="userSpaceOnUse" y2="230.349" x2="488.315" y1="185.102" x1="540.482" id="paint21_linear_343_9284">
<stop stop-color="#648697"></stop>
<stop stop-color="#B8CCD5" offset="1"></stop>
</linearGradient>
<radialGradient gradientTransform="translate(481.381 228.699) rotate(-139.028) scale(28.1203 24.4202)" gradientUnits="userSpaceOnUse" r="1" cy="0" cx="0" id="paint22_radial_343_9284">
<stop stop-color="white"></stop>
<stop stop-opacity="0" stop-color="white" offset="1"></stop>
</radialGradient>
<linearGradient gradientUnits="userSpaceOnUse" y2="192.09" x2="554.362" y1="192.09" x1="462.596" id="paint23_linear_343_9284">
<stop stop-color="#183C56"></stop>
<stop stop-color="#335D7B" offset="0.286458"></stop>
<stop stop-color="#082133" offset="1"></stop>
</linearGradient>
<linearGradient gradientUnits="userSpaceOnUse" y2="186.503" x2="554.362" y1="186.503" x1="462.596" id="paint24_linear_343_9284">
<stop stop-color="#183C56"></stop>
<stop stop-color="#335D7B" offset="0.286458"></stop>
<stop stop-color="#082133" offset="1"></stop>
</linearGradient>
<linearGradient gradientUnits="userSpaceOnUse" y2="181.612" x2="556.81" y1="181.612" x1="460.149" id="paint25_linear_343_9284">
<stop stop-color="#B4C5CD"></stop>
<stop stop-color="#6C8A98" offset="0.718232"></stop>
<stop stop-color="#6B8692" offset="1"></stop>
</linearGradient>
<linearGradient gradientUnits="userSpaceOnUse" y2="215.171" x2="498.637" y1="169.15" x1="541.136" id="paint26_linear_343_9284">
<stop stop-color="#B9CAD2"></stop>
<stop stop-color="#DBE6EB" offset="1"></stop>
</linearGradient>
<radialGradient gradientTransform="translate(474.119 197.969) rotate(-34.7432) scale(42.1573 114.114)" gradientUnits="userSpaceOnUse" r="1" cy="0" cx="0" id="paint27_radial_343_9284">
<stop stop-color="white"></stop>
<stop stop-opacity="0" stop-color="white" offset="1"></stop>
</radialGradient>
<linearGradient gradientUnits="userSpaceOnUse" y2="241.447" x2="765.776" y1="241.447" x1="689.388" id="paint28_linear_343_9284">
<stop stop-color="#B4C5CD"></stop>
<stop stop-color="#6C8A98" offset="0.718232"></stop>
<stop stop-color="#6B8692" offset="1"></stop>
</linearGradient>
<linearGradient gradientUnits="userSpaceOnUse" y2="263.571" x2="714.109" y1="227.548" x1="752.873" id="paint29_linear_343_9284">
<stop stop-color="#648697"></stop>
<stop stop-color="#B8CCD5" offset="1"></stop>
</linearGradient>
<radialGradient gradientTransform="translate(706.167 259.705) rotate(-140.974) scale(21.598 18.5327)" gradientUnits="userSpaceOnUse" r="1" cy="0" cx="0" id="paint30_radial_343_9284">
<stop stop-color="white"></stop>
<stop stop-opacity="0" stop-color="white" offset="1"></stop>
</radialGradient>
<linearGradient gradientUnits="userSpaceOnUse" y2="231.9" x2="763.842" y1="231.9" x1="691.322" id="paint31_linear_343_9284">
<stop stop-color="#183C56"></stop>
<stop stop-color="#335D7B" offset="0.286458"></stop>
<stop stop-color="#082133" offset="1"></stop>
</linearGradient>
<linearGradient gradientUnits="userSpaceOnUse" y2="227.926" x2="763.841" y1="227.926" x1="691.322" id="paint32_linear_343_9284">
<stop stop-color="#183C56"></stop>
<stop stop-color="#335D7B" offset="0.286458"></stop>
<stop stop-color="#082133" offset="1"></stop>
</linearGradient>
<linearGradient gradientUnits="userSpaceOnUse" y2="223.437" x2="765.776" y1="223.437" x1="689.388" id="paint33_linear_343_9284">
<stop stop-color="#B4C5CD"></stop>
<stop stop-color="#6C8A98" offset="0.718232"></stop>
<stop stop-color="#6B8692" offset="1"></stop>
</linearGradient>
<linearGradient gradientUnits="userSpaceOnUse" y2="239.74" x2="711.647" y1="203.983" x1="752.873" id="paint34_linear_343_9284">
<stop stop-color="#648697"></stop>
<stop stop-color="#B8CCD5" offset="1"></stop>
</linearGradient>
<radialGradient gradientTransform="translate(706.167 238.436) rotate(-139.028) scale(22.2225 19.2985)" gradientUnits="userSpaceOnUse" r="1" cy="0" cx="0" id="paint35_radial_343_9284">
<stop stop-color="white"></stop>
<stop stop-opacity="0" stop-color="white" offset="1"></stop>
</radialGradient>
<linearGradient gradientUnits="userSpaceOnUse" y2="209.505" x2="763.842" y1="209.505" x1="691.322" id="paint36_linear_343_9284">
<stop stop-color="#183C56"></stop>
<stop stop-color="#335D7B" offset="0.286458"></stop>
<stop stop-color="#082133" offset="1"></stop>
</linearGradient>
<linearGradient gradientUnits="userSpaceOnUse" y2="205.09" x2="763.842" y1="205.09" x1="691.322" id="paint37_linear_343_9284">
<stop stop-color="#183C56"></stop>
<stop stop-color="#335D7B" offset="0.286458"></stop>
<stop stop-color="#082133" offset="1"></stop>
</linearGradient>
<linearGradient gradientUnits="userSpaceOnUse" y2="201.224" x2="765.776" y1="201.224" x1="689.388" id="paint38_linear_343_9284">
<stop stop-color="#B4C5CD"></stop>
<stop stop-color="#6C8A98" offset="0.718232"></stop>
<stop stop-color="#6B8692" offset="1"></stop>
</linearGradient>
<linearGradient gradientUnits="userSpaceOnUse" y2="227.745" x2="719.804" y1="191.377" x1="753.39" id="paint39_linear_343_9284">
<stop stop-color="#B9CAD2"></stop>
<stop stop-color="#DBE6EB" offset="1"></stop>
</linearGradient>
<radialGradient gradientTransform="translate(700.428 214.151) rotate(-34.7432) scale(33.3155 90.1805)" gradientUnits="userSpaceOnUse" r="1" cy="0" cx="0" id="paint40_radial_343_9284">
<stop stop-color="white"></stop>
<stop stop-opacity="0" stop-color="white" offset="1"></stop>
</radialGradient>
<linearGradient gradientUnits="userSpaceOnUse" y2="196.227" x2="701.37" y1="270.106" x1="765.777" id="paint41_linear_343_9284">
<stop stop-color="#4C51BF"></stop>
<stop stop-opacity="0" stop-color="#4C51BF" offset="1"></stop>
</linearGradient>
</defs>
</svg>
