<svg xmlns="http://www.w3.org/2000/svg" fill="none" viewBox="0 0 844 474" height="474" width="844">
<g clip-path="url(#clip0_10224_191320)">
<rect fill="url(#paint0_linear_10224_191320)" height="474" width="844"></rect>
<rect fill="url(#paint1_radial_10224_191320)" height="474" width="844"></rect>
<rect fill="url(#paint2_radial_10224_191320)" height="474" width="844"></rect>
<path fill="#A3BFFA" d="M299.416 132.797C299.143 132.797 298.965 132.66 298.883 132.387L297.652 128.367C297.598 128.258 297.529 128.203 297.447 128.203H287.357C287.275 128.203 287.207 128.258 287.152 128.367L285.962 132.387C285.88 132.66 285.703 132.797 285.429 132.797H280.22C280.056 132.797 279.933 132.756 279.851 132.674C279.769 132.564 279.755 132.414 279.81 132.223L288.67 104.495C288.752 104.221 288.929 104.085 289.203 104.085H295.643C295.916 104.085 296.094 104.221 296.176 104.495L305.036 132.223C305.063 132.277 305.077 132.346 305.077 132.428C305.077 132.674 304.926 132.797 304.625 132.797H299.416ZM288.629 123.486C288.601 123.65 288.656 123.732 288.793 123.732H296.012C296.176 123.732 296.23 123.65 296.176 123.486L292.484 111.304C292.457 111.194 292.416 111.153 292.361 111.181C292.306 111.181 292.265 111.222 292.238 111.304L288.629 123.486ZM329.273 104.577C329.273 104.44 329.314 104.331 329.396 104.249C329.505 104.139 329.628 104.085 329.765 104.085H334.564C334.701 104.085 334.81 104.139 334.892 104.249C335.002 104.331 335.056 104.44 335.056 104.577V132.305C335.056 132.441 335.002 132.564 334.892 132.674C334.81 132.756 334.701 132.797 334.564 132.797H329.929C329.656 132.797 329.464 132.687 329.355 132.469L318.731 114.913C318.677 114.831 318.622 114.804 318.567 114.831C318.513 114.831 318.485 114.886 318.485 114.995L318.567 132.305C318.567 132.441 318.513 132.564 318.403 132.674C318.321 132.756 318.212 132.797 318.075 132.797H313.276C313.139 132.797 313.016 132.756 312.907 132.674C312.825 132.564 312.784 132.441 312.784 132.305V104.577C312.784 104.44 312.825 104.331 312.907 104.249C313.016 104.139 313.139 104.085 313.276 104.085H317.911C318.184 104.085 318.376 104.194 318.485 104.413L329.068 121.886C329.122 121.968 329.177 122.009 329.232 122.009C329.287 121.982 329.314 121.914 329.314 121.804L329.273 104.577ZM360.413 104.577C360.413 104.44 360.454 104.331 360.536 104.249C360.645 104.139 360.768 104.085 360.905 104.085H365.704C365.841 104.085 365.95 104.139 366.032 104.249C366.141 104.331 366.196 104.44 366.196 104.577V132.305C366.196 132.441 366.141 132.564 366.032 132.674C365.95 132.756 365.841 132.797 365.704 132.797H361.069C360.795 132.797 360.604 132.687 360.495 132.469L349.871 114.913C349.816 114.831 349.762 114.804 349.707 114.831C349.652 114.831 349.625 114.886 349.625 114.995L349.707 132.305C349.707 132.441 349.652 132.564 349.543 132.674C349.461 132.756 349.351 132.797 349.215 132.797H344.416C344.279 132.797 344.156 132.756 344.047 132.674C343.965 132.564 343.923 132.441 343.923 132.305V104.577C343.923 104.44 343.965 104.331 344.047 104.249C344.156 104.139 344.279 104.085 344.416 104.085H349.051C349.324 104.085 349.516 104.194 349.625 104.413L360.207 121.886C360.262 121.968 360.317 122.009 360.372 122.009C360.426 121.982 360.454 121.914 360.454 121.804L360.413 104.577ZM385.517 133.248C383.384 133.248 381.497 132.811 379.857 131.936C378.243 131.06 376.985 129.844 376.083 128.285C375.181 126.699 374.729 124.88 374.729 122.83V114.052C374.729 112.028 375.181 110.237 376.083 108.679C376.985 107.12 378.243 105.917 379.857 105.069C381.497 104.194 383.384 103.756 385.517 103.756C387.677 103.756 389.564 104.194 391.177 105.069C392.818 105.917 394.09 107.12 394.992 108.679C395.894 110.237 396.346 112.028 396.346 114.052V122.83C396.346 124.88 395.894 126.699 394.992 128.285C394.09 129.871 392.818 131.101 391.177 131.977C389.564 132.824 387.677 133.248 385.517 133.248ZM385.517 128.285C387.021 128.285 388.238 127.806 389.168 126.849C390.097 125.892 390.562 124.621 390.562 123.035V114.011C390.562 112.425 390.097 111.153 389.168 110.196C388.265 109.212 387.048 108.72 385.517 108.72C384.013 108.72 382.796 109.212 381.866 110.196C380.964 111.153 380.513 112.425 380.513 114.011V123.035C380.513 124.621 380.964 125.892 381.866 126.849C382.796 127.806 384.013 128.285 385.517 128.285ZM415.3 133.125C413.194 133.125 411.335 132.715 409.721 131.894C408.135 131.074 406.891 129.926 405.989 128.449C405.114 126.945 404.676 125.222 404.676 123.281V104.577C404.676 104.44 404.717 104.331 404.799 104.249C404.908 104.139 405.032 104.085 405.168 104.085H409.967C410.104 104.085 410.213 104.139 410.295 104.249C410.405 104.331 410.46 104.44 410.46 104.577V123.322C410.46 124.771 410.897 125.947 411.772 126.849C412.674 127.724 413.85 128.162 415.3 128.162C416.749 128.162 417.911 127.724 418.786 126.849C419.688 125.947 420.14 124.771 420.14 123.322V104.577C420.14 104.44 420.181 104.331 420.263 104.249C420.372 104.139 420.495 104.085 420.632 104.085H425.431C425.568 104.085 425.677 104.139 425.759 104.249C425.868 104.331 425.923 104.44 425.923 104.577V123.281C425.923 125.222 425.472 126.945 424.57 128.449C423.695 129.926 422.45 131.074 420.837 131.894C419.251 132.715 417.405 133.125 415.3 133.125ZM451.268 104.577C451.268 104.44 451.309 104.331 451.391 104.249C451.501 104.139 451.624 104.085 451.76 104.085H456.559C456.696 104.085 456.806 104.139 456.888 104.249C456.997 104.331 457.052 104.44 457.052 104.577V132.305C457.052 132.441 456.997 132.564 456.888 132.674C456.806 132.756 456.696 132.797 456.559 132.797H451.924C451.651 132.797 451.46 132.687 451.35 132.469L440.727 114.913C440.672 114.831 440.617 114.804 440.563 114.831C440.508 114.831 440.481 114.886 440.481 114.995L440.563 132.305C440.563 132.441 440.508 132.564 440.399 132.674C440.317 132.756 440.207 132.797 440.07 132.797H435.271C435.135 132.797 435.012 132.756 434.902 132.674C434.82 132.564 434.779 132.441 434.779 132.305V104.577C434.779 104.44 434.82 104.331 434.902 104.249C435.012 104.139 435.135 104.085 435.271 104.085H439.906C440.18 104.085 440.371 104.194 440.481 104.413L451.063 121.886C451.118 121.968 451.173 122.009 451.227 122.009C451.282 121.982 451.309 121.914 451.309 121.804L451.268 104.577ZM476.25 133.125C474.117 133.125 472.243 132.715 470.63 131.894C469.017 131.047 467.773 129.871 466.898 128.367C466.022 126.863 465.585 125.127 465.585 123.158V113.683C465.585 111.714 466.022 109.977 466.898 108.473C467.773 106.969 469.017 105.807 470.63 104.987C472.243 104.167 474.117 103.756 476.25 103.756C478.355 103.756 480.201 104.153 481.787 104.946C483.4 105.712 484.644 106.819 485.52 108.268C486.422 109.69 486.873 111.345 486.873 113.231C486.873 113.478 486.709 113.628 486.381 113.683L481.582 113.97H481.5C481.226 113.97 481.09 113.819 481.09 113.519C481.09 112.069 480.638 110.907 479.736 110.032C478.861 109.157 477.699 108.72 476.25 108.72C474.773 108.72 473.583 109.157 472.681 110.032C471.806 110.907 471.368 112.069 471.368 113.519V123.404C471.368 124.826 471.806 125.974 472.681 126.849C473.583 127.724 474.773 128.162 476.25 128.162C477.699 128.162 478.861 127.724 479.736 126.849C480.638 125.974 481.09 124.826 481.09 123.404C481.09 123.103 481.254 122.953 481.582 122.953L486.381 123.158C486.518 123.158 486.627 123.199 486.709 123.281C486.818 123.363 486.873 123.459 486.873 123.568C486.873 125.455 486.422 127.123 485.52 128.572C484.644 130.021 483.4 131.142 481.787 131.936C480.201 132.729 478.355 133.125 476.25 133.125ZM495.708 132.797C495.572 132.797 495.448 132.756 495.339 132.674C495.257 132.564 495.216 132.441 495.216 132.305V104.577C495.216 104.44 495.257 104.331 495.339 104.249C495.448 104.139 495.572 104.085 495.708 104.085H500.507C500.644 104.085 500.753 104.139 500.835 104.249C500.945 104.331 501 104.44 501 104.577V132.305C501 132.441 500.945 132.564 500.835 132.674C500.753 132.756 500.644 132.797 500.507 132.797H495.708ZM526.582 104.577C526.582 104.44 526.623 104.331 526.705 104.249C526.814 104.139 526.937 104.085 527.074 104.085H531.873C532.01 104.085 532.119 104.139 532.201 104.249C532.311 104.331 532.365 104.44 532.365 104.577V132.305C532.365 132.441 532.311 132.564 532.201 132.674C532.119 132.756 532.01 132.797 531.873 132.797H527.238C526.965 132.797 526.773 132.687 526.664 132.469L516.04 114.913C515.986 114.831 515.931 114.804 515.876 114.831C515.822 114.831 515.794 114.886 515.794 114.995L515.876 132.305C515.876 132.441 515.822 132.564 515.712 132.674C515.63 132.756 515.521 132.797 515.384 132.797H510.585C510.448 132.797 510.325 132.756 510.216 132.674C510.134 132.564 510.093 132.441 510.093 132.305V104.577C510.093 104.44 510.134 104.331 510.216 104.249C510.325 104.139 510.448 104.085 510.585 104.085H515.22C515.494 104.085 515.685 104.194 515.794 104.413L526.377 121.886C526.432 121.968 526.486 122.009 526.541 122.009C526.596 121.982 526.623 121.914 526.623 121.804L526.582 104.577ZM551.563 133.125C549.458 133.125 547.598 132.701 545.985 131.853C544.372 131.006 543.114 129.83 542.211 128.326C541.336 126.795 540.899 125.031 540.899 123.035V113.847C540.899 111.851 541.336 110.087 542.211 108.555C543.114 107.024 544.372 105.848 545.985 105.028C547.598 104.18 549.458 103.756 551.563 103.756C553.642 103.756 555.474 104.167 557.06 104.987C558.673 105.807 559.917 106.928 560.792 108.35C561.695 109.745 562.146 111.304 562.146 113.026V113.314C562.146 113.45 562.091 113.573 561.982 113.683C561.9 113.765 561.79 113.806 561.654 113.806H556.855C556.718 113.806 556.595 113.765 556.485 113.683C556.403 113.573 556.362 113.45 556.362 113.314V113.19C556.362 111.933 555.925 110.88 555.05 110.032C554.175 109.157 553.013 108.72 551.563 108.72C550.087 108.72 548.897 109.184 547.995 110.114C547.12 111.017 546.682 112.206 546.682 113.683V123.199C546.682 124.675 547.161 125.879 548.118 126.808C549.075 127.711 550.292 128.162 551.768 128.162C553.19 128.162 554.325 127.793 555.173 127.054C556.021 126.289 556.444 125.236 556.444 123.896V122.05C556.444 121.914 556.376 121.845 556.239 121.845H551.645C551.509 121.845 551.386 121.804 551.276 121.722C551.194 121.613 551.153 121.49 551.153 121.353V117.579C551.153 117.443 551.194 117.333 551.276 117.251C551.386 117.142 551.509 117.087 551.645 117.087H561.654C561.79 117.087 561.9 117.142 561.982 117.251C562.091 117.333 562.146 117.443 562.146 117.579V122.994C562.146 125.072 561.708 126.877 560.833 128.408C559.958 129.939 558.714 131.115 557.101 131.936C555.515 132.729 553.669 133.125 551.563 133.125Z"></path>
<g filter="url(#filter0_ddddd_10224_191320)">
<path fill="white" d="M232.266 207.635C232.266 207.944 232.142 208.221 231.895 208.468C231.71 208.654 231.463 208.746 231.154 208.746H222.726C222.417 208.746 222.263 208.901 222.263 209.209V226.066C222.263 229.586 223.683 231.346 226.523 231.346H229.95C230.259 231.346 230.506 231.469 230.691 231.716C230.938 231.901 231.062 232.148 231.062 232.457V243.201C231.062 243.88 230.691 244.282 229.95 244.405C226.986 244.529 224.825 244.59 223.467 244.59C218.095 244.59 214.112 243.757 211.519 242.09C208.925 240.361 207.598 237.119 207.536 232.364V209.209C207.536 208.901 207.382 208.746 207.073 208.746H201.794C201.485 208.746 201.207 208.654 200.96 208.468C200.775 208.221 200.682 207.944 200.682 207.635V197.539C200.682 197.231 200.775 196.984 200.96 196.798C201.207 196.551 201.485 196.428 201.794 196.428H207.073C207.382 196.428 207.536 196.273 207.536 195.965V184.758C207.536 184.449 207.629 184.202 207.814 184.017C208.061 183.77 208.339 183.646 208.648 183.646H221.151C221.46 183.646 221.707 183.77 221.892 184.017C222.139 184.202 222.263 184.449 222.263 184.758V195.965C222.263 196.273 222.417 196.428 222.726 196.428H231.154C231.463 196.428 231.71 196.551 231.895 196.798C232.142 196.984 232.266 197.231 232.266 197.539V207.635ZM263.548 195.687C268.364 195.687 272.316 197.231 275.403 200.318C278.49 203.343 280.034 207.48 280.034 212.729V243.201C280.034 243.51 279.911 243.788 279.664 244.035C279.478 244.22 279.231 244.312 278.923 244.312H265.77C265.462 244.312 265.184 244.22 264.937 244.035C264.752 243.788 264.659 243.51 264.659 243.201V216.063C264.659 213.964 264.072 212.235 262.899 210.877C261.726 209.518 260.213 208.839 258.361 208.839C256.447 208.839 254.903 209.518 253.73 210.877C252.557 212.173 251.97 213.902 251.97 216.063V243.201C251.97 243.51 251.847 243.788 251.6 244.035C251.414 244.22 251.167 244.312 250.859 244.312H237.707C237.398 244.312 237.12 244.22 236.873 244.035C236.688 243.788 236.595 243.51 236.595 243.201V180.59C236.595 180.281 236.688 180.034 236.873 179.849C237.12 179.602 237.398 179.478 237.707 179.478H250.859C251.167 179.478 251.414 179.602 251.6 179.849C251.847 180.034 251.97 180.281 251.97 180.59V200.966C251.97 201.213 252.001 201.368 252.063 201.429C252.186 201.429 252.31 201.337 252.433 201.151C254.78 197.508 258.484 195.687 263.548 195.687ZM329.94 216.156C330.249 218.008 330.342 220.447 330.218 223.473C330.157 224.214 329.755 224.584 329.014 224.584H300.765C300.642 224.584 300.518 224.646 300.395 224.77C300.271 224.831 300.24 224.924 300.302 225.047C300.425 225.727 300.734 226.622 301.228 227.733C301.969 229.03 303.081 230.08 304.562 230.883C306.044 231.685 307.866 232.087 310.027 232.087C313.917 232.087 316.974 230.821 319.196 228.289C319.443 227.98 319.721 227.826 320.03 227.826C320.339 227.826 320.586 227.95 320.771 228.197L327.903 236.347C328.15 236.532 328.273 236.779 328.273 237.088C328.273 237.335 328.15 237.582 327.903 237.829C325.742 240.175 323.056 241.966 319.845 243.201C316.696 244.436 313.238 245.053 309.471 245.053C303.852 245.053 299.067 243.849 295.115 241.441C291.225 238.971 288.416 235.544 286.687 231.16C285.39 228.073 284.742 224.214 284.742 219.583C284.742 216.372 285.236 213.285 286.224 210.321C287.829 205.752 290.453 202.17 294.096 199.577C297.801 196.922 302.185 195.594 307.248 195.594C311.324 195.594 314.967 196.49 318.178 198.28C321.388 200.009 323.982 202.448 325.958 205.597C327.995 208.685 329.323 212.204 329.94 216.156ZM307.248 208.839C304.038 208.839 301.907 210.352 300.858 213.377C300.611 214.057 300.456 214.705 300.395 215.322C300.271 215.631 300.395 215.785 300.765 215.785H313.917C314.164 215.785 314.288 215.662 314.288 215.415C314.288 214.921 314.164 214.304 313.917 213.563C313.485 212.019 312.682 210.846 311.509 210.043C310.398 209.24 308.977 208.839 307.248 208.839ZM379.585 179.478C383.784 179.478 387.488 180.343 390.699 182.072C393.972 183.801 396.473 186.24 398.202 189.389C399.992 192.476 400.888 196.057 400.888 200.133C400.888 204.146 399.961 207.697 398.109 210.784C396.318 213.871 393.756 216.249 390.421 217.916C387.087 219.583 383.228 220.416 378.844 220.416H367.544C367.236 220.416 367.081 220.571 367.081 220.88V243.201C367.081 243.51 366.958 243.788 366.711 244.035C366.525 244.22 366.278 244.312 365.97 244.312H352.818C352.509 244.312 352.231 244.22 351.984 244.035C351.799 243.788 351.706 243.51 351.706 243.201V180.59C351.706 180.281 351.799 180.034 351.984 179.849C352.231 179.602 352.509 179.478 352.818 179.478H379.585ZM377.084 208.191C379.616 208.191 381.653 207.48 383.197 206.06C384.803 204.64 385.605 202.788 385.605 200.503C385.605 198.157 384.803 196.273 383.197 194.853C381.653 193.371 379.616 192.63 377.084 192.63H367.544C367.236 192.63 367.081 192.785 367.081 193.093V207.727C367.081 208.036 367.236 208.191 367.544 208.191H377.084ZM430.309 195.779C432.532 195.779 434.261 196.181 435.496 196.984C435.99 197.292 436.175 197.755 436.051 198.373L433.921 211.247C433.859 211.988 433.427 212.204 432.624 211.895C431.513 211.648 430.463 211.525 429.475 211.525C428.426 211.525 427.623 211.587 427.067 211.71C425.153 211.957 423.517 212.698 422.158 213.933C420.862 215.168 420.213 216.804 420.213 218.842V243.201C420.213 243.51 420.09 243.788 419.843 244.035C419.658 244.22 419.411 244.312 419.102 244.312H405.95C405.641 244.312 405.363 244.22 405.116 244.035C404.931 243.788 404.838 243.51 404.838 243.201V197.539C404.838 197.231 404.931 196.984 405.116 196.798C405.363 196.551 405.641 196.428 405.95 196.428H419.102C419.411 196.428 419.658 196.551 419.843 196.798C420.09 196.984 420.213 197.231 420.213 197.539V200.503C420.213 200.688 420.275 200.812 420.399 200.874C420.522 200.935 420.615 200.874 420.676 200.688C423.146 197.416 426.357 195.779 430.309 195.779ZM447.041 192.167C444.694 192.167 442.749 191.426 441.206 189.944C439.724 188.401 438.983 186.456 438.983 184.109C438.983 181.701 439.724 179.756 441.206 178.274C442.749 176.792 444.694 176.051 447.041 176.051C449.387 176.051 451.301 176.792 452.783 178.274C454.327 179.756 455.099 181.701 455.099 184.109C455.099 186.394 454.327 188.308 452.783 189.852C451.301 191.395 449.387 192.167 447.041 192.167ZM440.372 244.312C440.063 244.312 439.785 244.22 439.538 244.035C439.353 243.788 439.261 243.51 439.261 243.201V197.539C439.261 197.231 439.353 196.984 439.538 196.798C439.785 196.551 440.063 196.428 440.372 196.428H453.524C453.833 196.428 454.08 196.551 454.265 196.798C454.512 196.984 454.636 197.231 454.636 197.539V243.201C454.636 243.51 454.512 243.788 454.265 244.035C454.08 244.22 453.833 244.312 453.524 244.312H440.372ZM481.116 245.053C476.732 245.053 472.904 244.467 469.631 243.294C466.359 242.059 463.827 240.361 462.036 238.2C460.308 235.977 459.443 233.445 459.443 230.605V229.586C459.443 229.277 459.536 229.03 459.721 228.845C459.968 228.598 460.246 228.474 460.555 228.474H473.058C473.367 228.474 473.614 228.598 473.799 228.845C474.046 229.03 474.17 229.277 474.17 229.586C474.17 230.759 474.818 231.747 476.115 232.55C477.411 233.291 479.048 233.661 481.024 233.661C482.753 233.661 484.111 233.383 485.099 232.828C486.149 232.21 486.673 231.407 486.673 230.419C486.673 229.432 486.118 228.721 485.006 228.289C483.957 227.795 482.228 227.332 479.82 226.9C475.93 226.159 472.78 225.264 470.372 224.214C467.223 222.917 464.722 221.312 462.87 219.398C461.018 217.422 460.091 214.736 460.091 211.34C460.091 206.523 461.944 202.726 465.649 199.947C469.415 197.107 474.355 195.687 480.468 195.687C484.605 195.687 488.217 196.366 491.305 197.724C494.454 199.021 496.893 200.874 498.622 203.282C500.35 205.69 501.215 208.468 501.215 211.618C501.215 211.926 501.091 212.204 500.844 212.451C500.659 212.636 500.412 212.729 500.103 212.729H487.97C487.661 212.729 487.384 212.636 487.137 212.451C486.951 212.204 486.859 211.926 486.859 211.618C486.859 210.444 486.303 209.487 485.192 208.746C484.08 208.005 482.567 207.635 480.653 207.635C478.924 207.635 477.504 207.944 476.393 208.561C475.343 209.117 474.818 209.919 474.818 210.969C474.818 212.019 475.405 212.791 476.578 213.285C477.751 213.717 479.727 214.211 482.506 214.767C486.087 215.508 488.588 216.094 490.008 216.526C493.836 217.761 496.8 219.429 498.899 221.528C501.061 223.627 502.141 226.437 502.141 229.956C502.141 234.773 500.227 238.508 496.399 241.163C492.632 243.757 487.538 245.053 481.116 245.053ZM561.209 195.687C566.025 195.687 569.792 197.169 572.509 200.133C575.226 203.096 576.584 207.264 576.584 212.636V243.201C576.584 243.51 576.46 243.788 576.213 244.035C576.028 244.22 575.781 244.312 575.472 244.312H562.413C562.104 244.312 561.826 244.22 561.579 244.035C561.394 243.788 561.302 243.51 561.302 243.201V215.971C561.302 213.871 560.746 212.173 559.634 210.877C558.585 209.518 557.165 208.839 555.374 208.839C553.583 208.839 552.101 209.487 550.928 210.784C549.817 212.081 549.261 213.81 549.261 215.971V243.201C549.261 243.51 549.137 243.788 548.89 244.035C548.705 244.22 548.458 244.312 548.15 244.312H534.997C534.689 244.312 534.411 244.22 534.164 244.035C533.979 243.788 533.886 243.51 533.886 243.201V215.971C533.886 213.871 533.299 212.173 532.126 210.877C531.015 209.518 529.564 208.839 527.773 208.839C526.106 208.839 524.717 209.364 523.605 210.413C522.494 211.463 521.814 212.852 521.567 214.581V243.201C521.567 243.51 521.444 243.788 521.197 244.035C521.012 244.22 520.765 244.312 520.456 244.312H507.304C506.995 244.312 506.717 244.22 506.47 244.035C506.285 243.788 506.193 243.51 506.193 243.201V197.539C506.193 197.231 506.285 196.984 506.47 196.798C506.717 196.551 506.995 196.428 507.304 196.428H520.456C520.765 196.428 521.012 196.551 521.197 196.798C521.444 196.984 521.567 197.231 521.567 197.539V201.707C521.567 201.954 521.629 202.109 521.753 202.17C521.876 202.17 522 202.047 522.123 201.8C524.531 197.724 528.483 195.687 533.979 195.687C537.066 195.687 539.783 196.366 542.129 197.724C544.476 199.083 546.266 201.059 547.501 203.652C547.686 204.023 547.872 203.992 548.057 203.56C549.354 200.904 551.113 198.929 553.336 197.632C555.621 196.335 558.245 195.687 561.209 195.687ZM602.133 195.687C606.27 195.687 610.005 196.397 613.34 197.817C616.674 199.176 619.298 201.09 621.212 203.56C623.127 205.968 624.084 208.654 624.084 211.618V243.201C624.084 243.51 623.96 243.788 623.713 244.035C623.528 244.22 623.281 244.312 622.972 244.312H609.82C609.511 244.312 609.234 244.22 608.987 244.035C608.801 243.788 608.709 243.51 608.709 243.201V239.959C608.709 239.712 608.647 239.589 608.523 239.589C608.4 239.527 608.276 239.62 608.153 239.867C605.807 243.325 601.793 245.053 596.112 245.053C591.173 245.053 587.221 243.911 584.257 241.627C581.355 239.28 579.904 235.853 579.904 231.346C579.904 226.591 581.54 222.917 584.813 220.324C588.147 217.73 592.963 216.434 599.261 216.434H608.246C608.554 216.434 608.709 216.279 608.709 215.971V214.211C608.709 212.544 608.153 211.247 607.042 210.321C605.93 209.333 604.386 208.839 602.41 208.839C600.929 208.839 599.632 209.117 598.52 209.673C597.471 210.228 596.792 210.938 596.483 211.803C596.174 212.482 595.742 212.791 595.186 212.729L581.849 210.969C581.108 210.846 580.737 210.568 580.737 210.136C580.984 207.419 582.034 204.98 583.886 202.819C585.801 200.596 588.332 198.867 591.481 197.632C594.692 196.335 598.243 195.687 602.133 195.687ZM600.651 234.032C602.997 234.032 604.911 233.445 606.393 232.272C607.937 231.037 608.709 229.432 608.709 227.456V225.233C608.709 224.924 608.554 224.77 608.246 224.77H602.688C600.342 224.77 598.52 225.171 597.224 225.974C595.989 226.776 595.371 227.98 595.371 229.586C595.371 230.944 595.834 232.025 596.761 232.828C597.687 233.63 598.984 234.032 600.651 234.032ZM116.678 342.053C111.553 342.053 107.076 341.251 103.248 339.645C99.481 337.978 96.548 335.632 94.4486 332.606C92.411 329.519 91.3922 325.968 91.3922 321.955V320.195C91.3922 319.886 91.4848 319.639 91.67 319.454C91.917 319.207 92.1949 319.084 92.5036 319.084H105.378C105.687 319.084 105.934 319.207 106.119 319.454C106.366 319.639 106.489 319.886 106.489 320.195V321.307C106.489 323.344 107.508 325.135 109.546 326.678C111.583 328.16 114.331 328.901 117.789 328.901C120.506 328.901 122.513 328.315 123.809 327.142C125.106 325.968 125.754 324.61 125.754 323.066C125.754 321.831 125.353 320.843 124.55 320.102C123.809 319.3 122.79 318.651 121.494 318.157C120.197 317.602 118.19 316.861 115.473 315.935C115.103 315.749 114.732 315.626 114.362 315.564C113.992 315.441 113.652 315.317 113.343 315.194C109.33 313.897 105.841 312.508 102.877 311.026C99.9132 309.482 97.3816 307.383 95.2822 304.727C93.1828 302.011 92.1331 298.676 92.1331 294.724C92.1331 290.896 93.1211 287.562 95.097 284.722C97.1346 281.819 99.9441 279.597 103.525 278.053C107.107 276.509 111.151 275.737 115.659 275.737C120.413 275.737 124.674 276.602 128.44 278.331C132.269 280.06 135.263 282.499 137.424 285.648C139.586 288.797 140.666 292.409 140.666 296.484V297.781C140.666 298.09 140.543 298.368 140.296 298.615C140.11 298.8 139.863 298.892 139.555 298.892H126.68C126.372 298.892 126.094 298.8 125.847 298.615C125.662 298.368 125.569 298.09 125.569 297.781V297.133C125.569 294.971 124.612 293.057 122.698 291.39C120.784 289.723 118.221 288.889 115.01 288.889C112.602 288.889 110.719 289.383 109.361 290.371C108.002 291.359 107.323 292.749 107.323 294.539C107.323 295.898 107.755 297.04 108.62 297.966C109.484 298.831 110.812 299.664 112.602 300.467C114.455 301.208 117.264 302.196 121.031 303.431C125.353 304.913 128.718 306.209 131.126 307.321C133.534 308.432 135.788 310.254 137.888 312.785C140.049 315.255 141.129 318.528 141.129 322.603C141.129 326.617 140.11 330.075 138.073 332.977C136.035 335.879 133.164 338.133 129.459 339.738C125.816 341.282 121.556 342.053 116.678 342.053ZM175.643 304.635C175.643 304.944 175.519 305.221 175.272 305.468C175.087 305.654 174.84 305.746 174.531 305.746H166.103C165.794 305.746 165.64 305.901 165.64 306.209V323.066C165.64 326.586 167.06 328.346 169.9 328.346H173.327C173.636 328.346 173.883 328.469 174.068 328.716C174.315 328.901 174.439 329.148 174.439 329.457V340.201C174.439 340.88 174.068 341.282 173.327 341.405C170.363 341.529 168.202 341.59 166.844 341.59C161.472 341.59 157.489 340.757 154.896 339.09C152.302 337.361 150.975 334.119 150.913 329.364V306.209C150.913 305.901 150.759 305.746 150.45 305.746H145.171C144.862 305.746 144.584 305.654 144.337 305.468C144.152 305.221 144.059 304.944 144.059 304.635V294.539C144.059 294.231 144.152 293.984 144.337 293.798C144.584 293.551 144.862 293.428 145.171 293.428H150.45C150.759 293.428 150.913 293.273 150.913 292.965V281.758C150.913 281.449 151.006 281.202 151.191 281.017C151.438 280.77 151.716 280.646 152.024 280.646H164.528C164.837 280.646 165.084 280.77 165.269 281.017C165.516 281.202 165.64 281.449 165.64 281.758V292.965C165.64 293.273 165.794 293.428 166.103 293.428H174.531C174.84 293.428 175.087 293.551 175.272 293.798C175.519 293.984 175.643 294.231 175.643 294.539V304.635ZM199.978 292.687C204.115 292.687 207.851 293.397 211.185 294.817C214.519 296.176 217.144 298.09 219.058 300.56C220.972 302.968 221.929 305.654 221.929 308.618V340.201C221.929 340.51 221.805 340.788 221.558 341.035C221.373 341.22 221.126 341.312 220.817 341.312H207.665C207.357 341.312 207.079 341.22 206.832 341.035C206.647 340.788 206.554 340.51 206.554 340.201V336.959C206.554 336.712 206.492 336.589 206.369 336.589C206.245 336.527 206.122 336.62 205.998 336.867C203.652 340.325 199.638 342.053 193.958 342.053C189.018 342.053 185.066 340.911 182.102 338.627C179.2 336.28 177.749 332.853 177.749 328.346C177.749 323.591 179.385 319.917 182.658 317.324C185.992 314.73 190.808 313.434 197.107 313.434H206.091C206.4 313.434 206.554 313.279 206.554 312.971V311.211C206.554 309.544 205.998 308.247 204.887 307.321C203.775 306.333 202.232 305.839 200.256 305.839C198.774 305.839 197.477 306.117 196.366 306.673C195.316 307.228 194.637 307.938 194.328 308.803C194.019 309.482 193.587 309.791 193.031 309.729L179.694 307.969C178.953 307.846 178.583 307.568 178.583 307.136C178.83 304.419 179.879 301.98 181.732 299.819C183.646 297.596 186.177 295.867 189.327 294.632C192.537 293.335 196.088 292.687 199.978 292.687ZM198.496 331.032C200.842 331.032 202.756 330.445 204.238 329.272C205.782 328.037 206.554 326.432 206.554 324.456V322.233C206.554 321.924 206.4 321.77 206.091 321.77H200.534C198.187 321.77 196.366 322.171 195.069 322.974C193.834 323.776 193.217 324.98 193.217 326.586C193.217 327.944 193.68 329.025 194.606 329.828C195.532 330.63 196.829 331.032 198.496 331.032ZM253.156 292.779C255.379 292.779 257.108 293.181 258.343 293.984C258.837 294.292 259.022 294.755 258.899 295.373L256.769 308.247C256.707 308.988 256.275 309.204 255.472 308.895C254.36 308.648 253.311 308.525 252.323 308.525C251.273 308.525 250.47 308.587 249.915 308.71C248.001 308.957 246.364 309.698 245.006 310.933C243.709 312.168 243.061 313.804 243.061 315.842V340.201C243.061 340.51 242.937 340.788 242.69 341.035C242.505 341.22 242.258 341.312 241.949 341.312H228.797C228.489 341.312 228.211 341.22 227.964 341.035C227.778 340.788 227.686 340.51 227.686 340.201V294.539C227.686 294.231 227.778 293.984 227.964 293.798C228.211 293.551 228.489 293.428 228.797 293.428H241.949C242.258 293.428 242.505 293.551 242.69 293.798C242.937 293.984 243.061 294.231 243.061 294.539V297.503C243.061 297.688 243.123 297.812 243.246 297.874C243.37 297.935 243.462 297.874 243.524 297.688C245.994 294.416 249.205 292.779 253.156 292.779ZM291.74 304.635C291.74 304.944 291.616 305.221 291.37 305.468C291.184 305.654 290.937 305.746 290.629 305.746H282.2C281.891 305.746 281.737 305.901 281.737 306.209V323.066C281.737 326.586 283.157 328.346 285.998 328.346H289.424C289.733 328.346 289.98 328.469 290.165 328.716C290.412 328.901 290.536 329.148 290.536 329.457V340.201C290.536 340.88 290.165 341.282 289.424 341.405C286.461 341.529 284.299 341.59 282.941 341.59C277.569 341.59 273.586 340.757 270.993 339.09C268.4 337.361 267.072 334.119 267.01 329.364V306.209C267.01 305.901 266.856 305.746 266.547 305.746H261.268C260.959 305.746 260.681 305.654 260.434 305.468C260.249 305.221 260.156 304.944 260.156 304.635V294.539C260.156 294.231 260.249 293.984 260.434 293.798C260.681 293.551 260.959 293.428 261.268 293.428H266.547C266.856 293.428 267.01 293.273 267.01 292.965V281.758C267.01 281.449 267.103 281.202 267.288 281.017C267.535 280.77 267.813 280.646 268.122 280.646H280.626C280.934 280.646 281.181 280.77 281.367 281.017C281.614 281.202 281.737 281.449 281.737 281.758V292.965C281.737 293.273 281.891 293.428 282.2 293.428H290.629C290.937 293.428 291.184 293.551 291.37 293.798C291.616 293.984 291.74 294.231 291.74 294.539V304.635ZM323.763 294.539C323.763 294.231 323.855 293.984 324.041 293.798C324.288 293.551 324.565 293.428 324.874 293.428H338.026C338.335 293.428 338.582 293.551 338.767 293.798C339.014 293.984 339.138 294.231 339.138 294.539V340.201C339.138 340.51 339.014 340.788 338.767 341.035C338.582 341.22 338.335 341.312 338.026 341.312H324.874C324.565 341.312 324.288 341.22 324.041 341.035C323.855 340.788 323.763 340.51 323.763 340.201V336.959C323.763 336.774 323.701 336.651 323.577 336.589C323.454 336.527 323.331 336.589 323.207 336.774C320.737 340.294 316.847 342.053 311.537 342.053C306.844 342.053 303.047 340.572 300.145 337.608C297.242 334.644 295.791 330.507 295.791 325.197V294.539C295.791 294.231 295.884 293.984 296.069 293.798C296.316 293.551 296.594 293.428 296.903 293.428H310.055C310.364 293.428 310.611 293.551 310.796 293.798C311.043 293.984 311.166 294.231 311.166 294.539V321.677C311.166 323.838 311.722 325.567 312.834 326.864C313.945 328.16 315.458 328.809 317.372 328.809C319.101 328.809 320.521 328.284 321.632 327.234C322.806 326.185 323.516 324.795 323.763 323.066V294.539ZM390.063 306.765C391.051 310.099 391.545 313.681 391.545 317.509C391.545 321.893 390.897 325.783 389.6 329.179C388.18 333.008 385.895 336.126 382.746 338.534C379.659 340.88 375.892 342.053 371.446 342.053C367 342.053 363.635 340.602 361.351 337.7C361.227 337.515 361.104 337.453 360.98 337.515C360.857 337.577 360.795 337.7 360.795 337.886V357.151C360.795 357.459 360.671 357.706 360.424 357.892C360.239 358.139 359.992 358.262 359.683 358.262H346.531C346.223 358.262 345.945 358.139 345.698 357.892C345.513 357.706 345.42 357.459 345.42 357.151V294.539C345.42 294.231 345.513 293.984 345.698 293.798C345.945 293.551 346.223 293.428 346.531 293.428H359.683C359.992 293.428 360.239 293.551 360.424 293.798C360.671 293.984 360.795 294.231 360.795 294.539V297.596C360.795 297.781 360.857 297.904 360.98 297.966C361.104 297.966 361.227 297.904 361.351 297.781C363.821 294.385 367.371 292.687 372.002 292.687C376.201 292.687 379.906 293.953 383.116 296.484C386.327 298.954 388.643 302.381 390.063 306.765ZM373.669 325.567C374.904 323.468 375.522 320.689 375.522 317.231C375.522 313.897 374.966 311.273 373.854 309.358C372.558 307.012 370.613 305.839 368.019 305.839C365.549 305.839 363.666 307.012 362.369 309.358C361.32 311.458 360.795 314.113 360.795 317.324C360.795 320.782 361.382 323.56 362.555 325.66C363.851 327.821 365.673 328.901 368.019 328.901C370.551 328.901 372.434 327.79 373.669 325.567ZM441.32 276.478C445.519 276.478 449.224 277.343 452.435 279.072C455.707 280.801 458.208 283.24 459.937 286.389C461.728 289.476 462.623 293.057 462.623 297.133C462.623 301.146 461.697 304.697 459.844 307.784C458.054 310.871 455.491 313.249 452.157 314.916C448.823 316.583 444.963 317.416 440.579 317.416H429.28C428.971 317.416 428.817 317.571 428.817 317.88V340.201C428.817 340.51 428.693 340.788 428.446 341.035C428.261 341.22 428.014 341.312 427.705 341.312H414.553C414.244 341.312 413.966 341.22 413.719 341.035C413.534 340.788 413.442 340.51 413.442 340.201V277.59C413.442 277.281 413.534 277.034 413.719 276.849C413.966 276.602 414.244 276.478 414.553 276.478H441.32ZM438.82 305.191C441.351 305.191 443.389 304.48 444.932 303.06C446.538 301.64 447.341 299.788 447.341 297.503C447.341 295.157 446.538 293.273 444.932 291.853C443.389 290.371 441.351 289.63 438.82 289.63H429.28C428.971 289.63 428.817 289.785 428.817 290.093V304.727C428.817 305.036 428.971 305.191 429.28 305.191H438.82ZM492.044 292.779C494.267 292.779 495.996 293.181 497.231 293.984C497.725 294.292 497.91 294.755 497.787 295.373L495.657 308.247C495.595 308.988 495.163 309.204 494.36 308.895C493.248 308.648 492.199 308.525 491.211 308.525C490.161 308.525 489.358 308.587 488.803 308.71C486.889 308.957 485.252 309.698 483.894 310.933C482.597 312.168 481.949 313.804 481.949 315.842V340.201C481.949 340.51 481.825 340.788 481.578 341.035C481.393 341.22 481.146 341.312 480.837 341.312H467.685C467.377 341.312 467.099 341.22 466.852 341.035C466.666 340.788 466.574 340.51 466.574 340.201V294.539C466.574 294.231 466.666 293.984 466.852 293.798C467.099 293.551 467.377 293.428 467.685 293.428H480.837C481.146 293.428 481.393 293.551 481.578 293.798C481.825 293.984 481.949 294.231 481.949 294.539V297.503C481.949 297.688 482.011 297.812 482.134 297.874C482.258 297.935 482.35 297.874 482.412 297.688C484.882 294.416 488.093 292.779 492.044 292.779ZM521.315 342.053C515.757 342.053 511.034 340.572 507.144 337.608C503.254 334.644 500.66 330.63 499.364 325.567C498.623 323.035 498.252 320.257 498.252 317.231C498.252 313.835 498.653 310.84 499.456 308.247C500.876 303.369 503.501 299.572 507.329 296.855C511.219 294.076 515.912 292.687 521.407 292.687C526.841 292.687 531.441 294.076 535.208 296.855C538.974 299.572 541.598 303.338 543.08 308.154C543.945 310.933 544.377 313.897 544.377 317.046C544.377 319.886 544.037 322.603 543.358 325.197C542.062 330.383 539.468 334.489 535.578 337.515C531.688 340.541 526.934 342.053 521.315 342.053ZM521.315 328.901C523.105 328.901 524.587 328.346 525.76 327.234C526.934 326.061 527.798 324.486 528.354 322.511C528.724 320.905 528.909 319.145 528.909 317.231C528.909 315.379 528.693 313.588 528.261 311.859C527.767 309.945 526.934 308.463 525.76 307.413C524.587 306.364 523.105 305.839 521.315 305.839C517.733 305.839 515.387 307.846 514.275 311.859C513.905 313.341 513.72 315.132 513.72 317.231C513.72 319.145 513.905 320.905 514.275 322.511C514.769 324.486 515.603 326.061 516.776 327.234C518.011 328.346 519.524 328.901 521.315 328.901ZM578.241 294.539C578.241 294.231 578.333 293.984 578.518 293.798C578.765 293.551 579.043 293.428 579.352 293.428H592.504C592.813 293.428 593.06 293.551 593.245 293.798C593.492 293.984 593.616 294.231 593.616 294.539V335.941C593.616 344.4 591.177 350.451 586.299 354.094C581.421 357.737 575.246 359.559 567.774 359.559C564.996 359.559 562.063 359.312 558.976 358.818C558.358 358.756 558.049 358.355 558.049 357.614L558.512 346.129C558.512 345.697 558.636 345.388 558.883 345.203C559.13 345.079 559.439 345.079 559.809 345.203C562.341 345.758 564.687 346.036 566.848 346.036C570.368 346.036 573.146 345.233 575.184 343.628C577.222 342.023 578.241 339.491 578.241 336.033L577.592 336.681C575.369 338.904 572.159 340.016 567.96 340.016C563.884 340.016 560.149 339.12 556.753 337.33C553.357 335.539 550.918 332.39 549.436 327.883C548.448 324.919 547.954 321.276 547.954 316.953C547.954 312.199 548.54 308.309 549.714 305.283C551.134 301.455 553.387 298.398 556.475 296.114C559.624 293.829 563.267 292.687 567.404 292.687C571.85 292.687 575.277 294.045 577.685 296.762C577.808 296.886 577.932 296.947 578.055 296.947C578.179 296.886 578.241 296.762 578.241 296.577V294.539ZM577.407 323.807C577.963 322.387 578.241 320.072 578.241 316.861C578.241 315.194 578.179 313.897 578.055 312.971C577.932 311.983 577.685 311.057 577.314 310.192C576.82 308.834 576.018 307.784 574.906 307.043C573.857 306.24 572.56 305.839 571.016 305.839C568.114 305.839 566.046 307.29 564.811 310.192C563.884 311.921 563.421 314.206 563.421 317.046C563.421 320.072 563.823 322.294 564.625 323.715C565.181 325.011 566.015 326.061 567.126 326.864C568.238 327.666 569.565 328.068 571.109 328.068C574.258 328.068 576.357 326.648 577.407 323.807ZM624.965 292.779C627.188 292.779 628.917 293.181 630.152 293.984C630.646 294.292 630.831 294.755 630.708 295.373L628.578 308.247C628.516 308.988 628.084 309.204 627.281 308.895C626.169 308.648 625.12 308.525 624.132 308.525C623.082 308.525 622.279 308.587 621.724 308.71C619.81 308.957 618.173 309.698 616.815 310.933C615.518 312.168 614.87 313.804 614.87 315.842V340.201C614.87 340.51 614.746 340.788 614.499 341.035C614.314 341.22 614.067 341.312 613.758 341.312H600.606C600.297 341.312 600.02 341.22 599.773 341.035C599.587 340.788 599.495 340.51 599.495 340.201V294.539C599.495 294.231 599.587 293.984 599.773 293.798C600.02 293.551 600.297 293.428 600.606 293.428H613.758C614.067 293.428 614.314 293.551 614.499 293.798C614.746 293.984 614.87 294.231 614.87 294.539V297.503C614.87 297.688 614.932 297.812 615.055 297.874C615.178 297.935 615.271 297.874 615.333 297.688C617.803 294.416 621.014 292.779 624.965 292.779ZM653.105 292.687C657.242 292.687 660.977 293.397 664.312 294.817C667.646 296.176 670.27 298.09 672.184 300.56C674.098 302.968 675.056 305.654 675.056 308.618V340.201C675.056 340.51 674.932 340.788 674.685 341.035C674.5 341.22 674.253 341.312 673.944 341.312H660.792C660.483 341.312 660.205 341.22 659.958 341.035C659.773 340.788 659.681 340.51 659.681 340.201V336.959C659.681 336.712 659.619 336.589 659.495 336.589C659.372 336.527 659.248 336.62 659.125 336.867C656.779 340.325 652.765 342.053 647.084 342.053C642.144 342.053 638.193 340.911 635.229 338.627C632.327 336.28 630.876 332.853 630.876 328.346C630.876 323.591 632.512 319.917 635.785 317.324C639.119 314.73 643.935 313.434 650.233 313.434H659.218C659.526 313.434 659.681 313.279 659.681 312.971V311.211C659.681 309.544 659.125 308.247 658.013 307.321C656.902 306.333 655.358 305.839 653.382 305.839C651.9 305.839 650.604 306.117 649.492 306.673C648.443 307.228 647.763 307.938 647.455 308.803C647.146 309.482 646.714 309.791 646.158 309.729L632.821 307.969C632.08 307.846 631.709 307.568 631.709 307.136C631.956 304.419 633.006 301.98 634.858 299.819C636.773 297.596 639.304 295.867 642.453 294.632C645.664 293.335 649.215 292.687 653.105 292.687ZM651.623 331.032C653.969 331.032 655.883 330.445 657.365 329.272C658.909 328.037 659.681 326.432 659.681 324.456V322.233C659.681 321.924 659.526 321.77 659.218 321.77H653.66C651.314 321.77 649.492 322.171 648.196 322.974C646.961 323.776 646.343 324.98 646.343 326.586C646.343 327.944 646.806 329.025 647.733 329.828C648.659 330.63 649.955 331.032 651.623 331.032ZM735.829 292.687C740.645 292.687 744.412 294.169 747.129 297.133C749.846 300.096 751.204 304.264 751.204 309.636V340.201C751.204 340.51 751.08 340.788 750.833 341.035C750.648 341.22 750.401 341.312 750.092 341.312H737.033C736.724 341.312 736.446 341.22 736.199 341.035C736.014 340.788 735.922 340.51 735.922 340.201V312.971C735.922 310.871 735.366 309.173 734.254 307.877C733.205 306.518 731.785 305.839 729.994 305.839C728.203 305.839 726.721 306.487 725.548 307.784C724.437 309.081 723.881 310.81 723.881 312.971V340.201C723.881 340.51 723.757 340.788 723.51 341.035C723.325 341.22 723.078 341.312 722.77 341.312H709.617C709.309 341.312 709.031 341.22 708.784 341.035C708.599 340.788 708.506 340.51 708.506 340.201V312.971C708.506 310.871 707.919 309.173 706.746 307.877C705.635 306.518 704.184 305.839 702.393 305.839C700.726 305.839 699.337 306.364 698.225 307.413C697.114 308.463 696.434 309.852 696.187 311.581V340.201C696.187 340.51 696.064 340.788 695.817 341.035C695.632 341.22 695.385 341.312 695.076 341.312H681.924C681.615 341.312 681.337 341.22 681.09 341.035C680.905 340.788 680.813 340.51 680.813 340.201V294.539C680.813 294.231 680.905 293.984 681.09 293.798C681.337 293.551 681.615 293.428 681.924 293.428H695.076C695.385 293.428 695.632 293.551 695.817 293.798C696.064 293.984 696.187 294.231 696.187 294.539V298.707C696.187 298.954 696.249 299.109 696.373 299.17C696.496 299.17 696.62 299.047 696.743 298.8C699.151 294.724 703.103 292.687 708.599 292.687C711.686 292.687 714.403 293.366 716.749 294.724C719.096 296.083 720.886 298.059 722.121 300.652C722.306 301.023 722.492 300.992 722.677 300.56C723.974 297.904 725.733 295.929 727.956 294.632C730.241 293.335 732.865 292.687 735.829 292.687Z"></path>
</g>
<g filter="url(#filter1_d_10224_191320)">
<path fill="#A3BFFA" d="M619.193 88.5914C618.46 88.6999 617.783 89.0452 617.265 89.5745C612.291 93.6991 607.466 98.5002 602.678 103.4C601.658 105.612 601.273 109.636 602.6 114.589C602.829 115.447 602.38 116.309 601.598 116.513C600.817 116.716 599.996 116.194 599.77 115.347C598.911 112.145 598.643 109.019 598.921 106.306C598.011 106.809 597.052 107.219 596.058 107.528C595.108 107.824 594.16 108.125 593.214 108.431C589.089 109.817 586.703 114.409 587.812 118.549C588.92 122.685 593.283 125.472 597.55 124.61C598.522 124.401 599.494 124.187 600.465 123.969C602.976 123.406 605.588 123.479 608.063 124.181C614.725 126.049 621.373 127.819 627.807 128.915C628.52 129.113 629.278 129.074 629.967 128.803C634.221 126.944 635.322 116.805 632.575 106.555C629.829 96.3043 623.806 88.0728 619.193 88.5914ZM630.045 119.604C629.837 122.702 629.132 124.165 628.831 124.563C628.39 124.441 627.103 123.731 625.387 121.212C623.425 118.335 621.672 114.25 620.479 109.796C619.285 105.342 618.759 100.923 619.021 97.4538C619.248 94.4144 620.008 93.1563 620.327 92.8256C620.786 93.0177 622.129 93.9355 623.858 96.5136C625.834 99.4629 627.531 103.362 628.666 107.597C629.801 111.833 630.281 116.058 630.045 119.604Z"></path>
<path fill="#A3BFFA" d="M627.605 107.882C627.46 107.34 627.21 106.832 626.869 106.387C626.527 105.942 626.102 105.569 625.616 105.288C625.13 105.008 624.594 104.826 624.038 104.753C623.482 104.679 622.917 104.716 622.375 104.862L621.588 105.072C621.392 105.125 621.223 105.249 621.114 105.42C621.005 105.591 620.964 105.797 621 105.997C621.201 107.13 621.457 108.284 621.769 109.446C622.08 110.607 622.434 111.734 622.827 112.816C622.896 113.007 623.034 113.165 623.214 113.258C623.394 113.352 623.603 113.375 623.799 113.322L624.586 113.111C625.68 112.818 626.612 112.103 627.179 111.122C627.745 110.141 627.898 108.976 627.605 107.882Z"></path>
<path fill="#A3BFFA" d="M633.734 98.4863C633.259 98.6095 632.756 98.5658 632.309 98.3624C631.863 98.159 631.499 97.8083 631.28 97.3691C631.061 96.9298 631 96.4286 631.106 95.9494C631.213 95.4703 631.481 95.0422 631.865 94.737L635.783 91.6807C636.232 91.3701 636.783 91.2432 637.324 91.3258C637.864 91.4084 638.352 91.6944 638.688 92.1252C639.024 92.5559 639.183 93.0989 639.131 93.6428C639.08 94.1868 638.823 94.6906 638.412 95.0511L634.495 98.1075C634.269 98.2833 634.01 98.4121 633.734 98.4863Z"></path>
<path fill="#A3BFFA" d="M641.982 106.069L637.475 107.276C637.198 107.37 636.904 107.406 636.612 107.382C636.32 107.358 636.037 107.274 635.778 107.136C635.52 106.998 635.293 106.809 635.111 106.579C634.929 106.35 634.796 106.085 634.72 105.803C634.644 105.52 634.627 105.224 634.67 104.934C634.713 104.645 634.815 104.367 634.97 104.118C635.124 103.869 635.328 103.655 635.569 103.488C635.81 103.322 636.082 103.206 636.369 103.149L640.876 101.941C641.409 101.835 641.963 101.935 642.425 102.222C642.887 102.509 643.222 102.961 643.363 103.487C643.503 104.012 643.439 104.571 643.183 105.051C642.926 105.53 642.497 105.894 641.982 106.069Z"></path>
<path fill="#A3BFFA" d="M643.551 117.458C643.274 117.531 642.986 117.548 642.702 117.509L637.781 116.821C637.49 116.798 637.206 116.716 636.948 116.58C636.689 116.443 636.461 116.256 636.278 116.028C636.095 115.8 635.96 115.537 635.882 115.255C635.804 114.973 635.785 114.679 635.826 114.389C635.866 114.1 635.966 113.821 636.118 113.572C636.27 113.322 636.472 113.106 636.71 112.937C636.949 112.769 637.22 112.651 637.506 112.591C637.792 112.53 638.087 112.53 638.374 112.588L643.295 113.276C643.78 113.348 644.226 113.585 644.558 113.947C644.89 114.308 645.087 114.773 645.117 115.263C645.147 115.753 645.008 116.238 644.723 116.638C644.438 117.037 644.024 117.327 643.551 117.458Z"></path>
<path fill="#A3BFFA" d="M607.133 126.03C605.094 125.518 602.963 125.489 600.91 125.947C600.093 126.131 599.266 126.313 598.444 126.491C599.705 131.39 601.62 136.096 604.139 140.482C605.543 142.923 608.426 143.67 610.32 142.291C612.214 140.912 612.658 138.258 611.506 136.242C609.656 133.02 608.188 129.593 607.133 126.03Z"></path>
</g>
<g filter="url(#filter2_d_10224_191320)">
<path fill="#A3BFFA" d="M225.057 88.5914C225.789 88.6999 226.466 89.0452 226.984 89.5745C231.959 93.6991 236.784 98.5002 241.572 103.4C242.591 105.612 242.977 109.636 241.65 114.589C241.42 115.447 241.869 116.309 242.651 116.513C243.433 116.716 244.253 116.194 244.48 115.347C245.338 112.145 245.606 109.019 245.329 106.306C246.239 106.809 247.198 107.219 248.191 107.528C249.142 107.824 250.09 108.125 251.036 108.431C255.161 109.817 257.547 114.409 256.438 118.549C255.33 122.685 250.966 125.472 246.7 124.61C245.728 124.401 244.756 124.187 243.785 123.969C241.274 123.406 238.662 123.479 236.187 124.181C229.525 126.049 222.877 127.819 216.443 128.915C215.73 129.113 214.971 129.074 214.282 128.803C210.028 126.944 208.928 116.805 211.675 106.555C214.421 96.3043 220.444 88.0728 225.057 88.5914ZM214.205 119.604C214.413 122.702 215.118 124.165 215.418 124.563C215.859 124.441 217.146 123.731 218.863 121.212C220.825 118.335 222.578 114.25 223.771 109.796C224.964 105.342 225.49 100.923 225.229 97.4538C225.002 94.4144 224.242 93.1563 223.922 92.8256C223.464 93.0177 222.121 93.9355 220.392 96.5136C218.415 99.4629 216.718 103.362 215.583 107.597C214.449 111.833 213.969 116.058 214.205 119.604Z"></path>
<path fill="#A3BFFA" d="M216.645 107.882C216.79 107.34 217.04 106.832 217.381 106.387C217.722 105.942 218.148 105.569 218.634 105.288C219.119 105.008 219.656 104.826 220.212 104.753C220.768 104.679 221.333 104.716 221.874 104.862L222.661 105.072C222.857 105.125 223.027 105.249 223.136 105.42C223.245 105.591 223.285 105.797 223.25 105.997C223.049 107.13 222.792 108.284 222.481 109.446C222.17 110.607 221.815 111.734 221.423 112.816C221.354 113.007 221.215 113.165 221.035 113.258C220.855 113.352 220.647 113.375 220.451 113.322L219.664 113.111C218.57 112.818 217.637 112.103 217.071 111.122C216.505 110.141 216.351 108.976 216.645 107.882Z"></path>
<path fill="#A3BFFA" d="M210.516 98.4863C210.991 98.6095 211.494 98.5658 211.94 98.3624C212.387 98.159 212.75 97.8083 212.969 97.3691C213.188 96.9298 213.25 96.4286 213.143 95.9494C213.037 95.4703 212.769 95.0422 212.385 94.737L208.467 91.6807C208.017 91.3701 207.466 91.2432 206.926 91.3258C206.386 91.4084 205.898 91.6944 205.562 92.1252C205.226 92.5559 205.067 93.0989 205.118 93.6428C205.17 94.1868 205.427 94.6906 205.837 95.0511L209.755 98.1075C209.981 98.2833 210.239 98.4121 210.516 98.4863Z"></path>
<path fill="#A3BFFA" d="M202.268 106.069L206.774 107.276C207.052 107.37 207.345 107.406 207.637 107.382C207.929 107.358 208.213 107.274 208.471 107.136C208.73 106.998 208.957 106.809 209.139 106.579C209.321 106.35 209.454 106.085 209.53 105.803C209.605 105.52 209.622 105.224 209.579 104.934C209.537 104.645 209.435 104.367 209.28 104.118C209.125 103.869 208.921 103.655 208.681 103.488C208.44 103.322 208.168 103.206 207.88 103.149L203.374 101.941C202.841 101.835 202.287 101.935 201.825 102.222C201.363 102.509 201.028 102.961 200.887 103.487C200.746 104.012 200.811 104.571 201.067 105.051C201.324 105.53 201.753 105.894 202.268 106.069Z"></path>
<path fill="#A3BFFA" d="M200.699 117.458C200.975 117.531 201.264 117.548 201.547 117.509L206.468 116.821C206.76 116.798 207.044 116.716 207.302 116.58C207.561 116.443 207.789 116.256 207.972 116.028C208.155 115.8 208.29 115.537 208.368 115.255C208.445 114.973 208.464 114.679 208.424 114.389C208.383 114.1 208.284 113.821 208.132 113.572C207.98 113.322 207.778 113.106 207.539 112.937C207.301 112.769 207.03 112.651 206.744 112.591C206.458 112.53 206.162 112.53 205.876 112.588L200.955 113.276C200.469 113.348 200.023 113.585 199.692 113.947C199.36 114.308 199.162 114.773 199.132 115.263C199.102 115.753 199.242 116.238 199.527 116.638C199.812 117.037 200.226 117.327 200.699 117.458Z"></path>
<path fill="#A3BFFA" d="M237.117 126.03C239.156 125.518 241.287 125.489 243.34 125.947C244.157 126.131 244.983 126.313 245.806 126.491C244.545 131.39 242.63 136.096 240.111 140.482C238.707 142.923 235.824 143.67 233.93 142.291C232.036 140.912 231.592 138.258 232.743 136.242C234.594 133.02 236.062 129.593 237.117 126.03Z"></path>
</g>
</g>
<defs>
<filter color-interpolation-filters="sRGB" filterUnits="userSpaceOnUse" height="218.805" width="691.187" y="176.055" x="75.7045" id="filter0_ddddd_10224_191320">
<feFlood result="BackgroundImageFix" flood-opacity="0"></feFlood>
<feColorMatrix result="hardAlpha" values="0 0 0 0 0 0 0 0 0 0 0 0 0 0 0 0 0 0 127 0" type="matrix" in="SourceAlpha"></feColorMatrix>
<feOffset dy="1.29889"></feOffset>
<feGaussianBlur stdDeviation="0.519557"></feGaussianBlur>
<feColorMatrix values="0 0 0 0 0 0 0 0 0 0 0 0 0 0 0 0 0 0 0.129327 0" type="matrix"></feColorMatrix>
<feBlend result="effect1_dropShadow_10224_191320" in2="BackgroundImageFix" mode="normal"></feBlend>
<feColorMatrix result="hardAlpha" values="0 0 0 0 0 0 0 0 0 0 0 0 0 0 0 0 0 0 127 0" type="matrix" in="SourceAlpha"></feColorMatrix>
<feOffset dy="3.12142"></feOffset>
<feGaussianBlur stdDeviation="1.24857"></feGaussianBlur>
<feColorMatrix values="0 0 0 0 0 0 0 0 0 0 0 0 0 0 0 0 0 0 0.185791 0" type="matrix"></feColorMatrix>
<feBlend result="effect2_dropShadow_10224_191320" in2="effect1_dropShadow_10224_191320" mode="normal"></feBlend>
<feColorMatrix result="hardAlpha" values="0 0 0 0 0 0 0 0 0 0 0 0 0 0 0 0 0 0 127 0" type="matrix" in="SourceAlpha"></feColorMatrix>
<feOffset dy="5.87735"></feOffset>
<feGaussianBlur stdDeviation="2.35094"></feGaussianBlur>
<feColorMatrix values="0 0 0 0 0 0 0 0 0 0 0 0 0 0 0 0 0 0 0.23 0" type="matrix"></feColorMatrix>
<feBlend result="effect3_dropShadow_10224_191320" in2="effect2_dropShadow_10224_191320" mode="normal"></feBlend>
<feColorMatrix result="hardAlpha" values="0 0 0 0 0 0 0 0 0 0 0 0 0 0 0 0 0 0 127 0" type="matrix" in="SourceAlpha"></feColorMatrix>
<feOffset dy="10.4842"></feOffset>
<feGaussianBlur stdDeviation="4.19368"></feGaussianBlur>
<feColorMatrix values="0 0 0 0 0 0 0 0 0 0 0 0 0 0 0 0 0 0 0.274209 0" type="matrix"></feColorMatrix>
<feBlend result="effect4_dropShadow_10224_191320" in2="effect3_dropShadow_10224_191320" mode="normal"></feBlend>
<feColorMatrix result="hardAlpha" values="0 0 0 0 0 0 0 0 0 0 0 0 0 0 0 0 0 0 127 0" type="matrix" in="SourceAlpha"></feColorMatrix>
<feOffset dy="19.6095"></feOffset>
<feGaussianBlur stdDeviation="7.84381"></feGaussianBlur>
<feColorMatrix values="0 0 0 0 0 0 0 0 0 0 0 0 0 0 0 0 0 0 0.330673 0" type="matrix"></feColorMatrix>
<feBlend result="effect5_dropShadow_10224_191320" in2="effect4_dropShadow_10224_191320" mode="normal"></feBlend>
<feBlend result="shape" in2="effect5_dropShadow_10224_191320" in="SourceGraphic" mode="normal"></feBlend>
</filter>
<filter color-interpolation-filters="sRGB" filterUnits="userSpaceOnUse" height="167.377" width="170.552" y="32.0847" x="531.055" id="filter1_d_10224_191320">
<feFlood result="BackgroundImageFix" flood-opacity="0"></feFlood>
<feColorMatrix result="hardAlpha" values="0 0 0 0 0 0 0 0 0 0 0 0 0 0 0 0 0 0 127 0" type="matrix" in="SourceAlpha"></feColorMatrix>
<feOffset></feOffset>
<feGaussianBlur stdDeviation="28.2428"></feGaussianBlur>
<feComposite operator="out" in2="hardAlpha"></feComposite>
<feColorMatrix values="0 0 0 0 0.639216 0 0 0 0 0.74902 0 0 0 0 0.980392 0 0 0 1 0" type="matrix"></feColorMatrix>
<feBlend result="effect1_dropShadow_10224_191320" in2="BackgroundImageFix" mode="normal"></feBlend>
<feBlend result="shape" in2="effect1_dropShadow_10224_191320" in="SourceGraphic" mode="normal"></feBlend>
</filter>
<filter color-interpolation-filters="sRGB" filterUnits="userSpaceOnUse" height="167.377" width="170.552" y="32.0847" x="142.643" id="filter2_d_10224_191320">
<feFlood result="BackgroundImageFix" flood-opacity="0"></feFlood>
<feColorMatrix result="hardAlpha" values="0 0 0 0 0 0 0 0 0 0 0 0 0 0 0 0 0 0 127 0" type="matrix" in="SourceAlpha"></feColorMatrix>
<feOffset></feOffset>
<feGaussianBlur stdDeviation="28.2428"></feGaussianBlur>
<feComposite operator="out" in2="hardAlpha"></feComposite>
<feColorMatrix values="0 0 0 0 0.639216 0 0 0 0 0.74902 0 0 0 0 0.980392 0 0 0 1 0" type="matrix"></feColorMatrix>
<feBlend result="effect1_dropShadow_10224_191320" in2="BackgroundImageFix" mode="normal"></feBlend>
<feBlend result="shape" in2="effect1_dropShadow_10224_191320" in="SourceGraphic" mode="normal"></feBlend>
</filter>
<linearGradient gradientUnits="userSpaceOnUse" y2="474" x2="422" y1="0" x1="422" id="paint0_linear_10224_191320">
<stop stop-color="#090A15"></stop>
<stop stop-color="#0D0F3A" offset="0.955752"></stop>
</linearGradient>
<radialGradient gradientTransform="translate(422 355.876) rotate(90) scale(529.676 495.147)" gradientUnits="userSpaceOnUse" r="1" cy="0" cx="0" id="paint1_radial_10224_191320">
<stop stop-opacity="0.11" stop-color="#5A67D8"></stop>
<stop stop-opacity="0" stop-color="#5A67D8" offset="1"></stop>
</radialGradient>
<radialGradient gradientTransform="translate(422 306.5) rotate(90) scale(222.5 396.181)" gradientUnits="userSpaceOnUse" r="1" cy="0" cx="0" id="paint2_radial_10224_191320">
<stop stop-color="#5A67D8"></stop>
<stop stop-opacity="0" stop-color="#5A67D8" offset="1"></stop>
</radialGradient>
<clipPath id="clip0_10224_191320">
<rect fill="white" height="474" width="844"></rect>
</clipPath>
</defs>
</svg>
