<svg xmlns="http://www.w3.org/2000/svg" fill="none" viewBox="0 0 844 474" height="474" width="844">
<g clip-path="url(#clip0_7082_4620)">
<rect fill="url(#paint0_linear_7082_4620)" height="474" width="844"></rect>
<path stroke-dasharray="7 7" stroke-width="2" stroke="url(#paint1_radial_7082_4620)" d="M862.315 368L-10.9998 133.996"></path>
<path stroke-dasharray="7 7" stroke-width="2" stroke="url(#paint2_radial_7082_4620)" d="M862.314 133.996L-11 368"></path>
<path fill="url(#paint3_linear_7082_4620)" d="M273.1 324.87C249.303 320.891 204.047 301.581 223.314 259.973C242.581 218.365 229.631 218.014 218.465 208.153C228.057 206.876 255.752 210.002 255.142 230.051C255.584 229.037 266.582 220.067 250.838 201.996C237.764 186.99 243.384 174.996 247.828 170.875C248.831 178.691 257.604 186.716 263.129 178.998C266.283 174.593 271.31 168.061 255.139 153.396C238.969 138.731 260.3 111.233 270.621 106.97C270.621 123.262 275.954 159.535 297.285 156.807C323.809 153.414 328.63 125.978 311.749 113.94C311.571 113.857 311.478 113.794 311.478 113.749C311.569 113.812 311.659 113.876 311.749 113.94C314.973 115.451 345.905 123.609 346.313 147.854C346.743 173.411 386.672 127.469 370.009 110.807C369.947 110.779 369.931 110.765 369.966 110.765C369.981 110.779 369.995 110.793 370.009 110.807C371.454 111.466 398.174 120.057 394.05 147.854C391.04 155.954 388.975 170.278 404.802 162.775C404.802 161.923 425.015 152.97 413.403 125.26C411.253 119.291 410.565 105.82 425.015 99.6809C424.155 100.107 417.704 118.439 435.766 135.917C435.471 135.917 442.472 140.337 445.5 146.833C448.785 139.768 456.27 130.772 462.861 125.26C463.291 125.26 457.27 153.396 475.332 153.396C498.986 153.396 507.157 126.539 491.245 110.765L491.27 110.765C492.588 110.753 540.646 110.32 534.682 153.396C534.283 156.275 532.799 175.565 553.873 156.807C557.704 153.396 563.75 135.917 553.873 102.682C563.75 106.97 624.995 137.623 594.031 196.88C580.971 221.873 586.083 235.144 591.88 233.02C597.678 230.896 588.612 219.048 604.782 201.996L616.824 191.338C618.721 195.291 610.803 216.299 616.824 237.806C626.09 270.904 622.586 273.751 622.586 273.751C622.586 273.751 623.016 278.467 614.426 290.043C605.837 301.619 569.076 324.87 569.076 324.87H273.1Z"></path>
<path fill="white" d="M47.2457 402.691C46.9147 403.231 46.9198 403.912 47.2589 404.447L53.397 414.13C53.7954 414.758 54.5633 415.045 55.2759 414.831L72.989 409.517C73.9557 409.227 74.442 408.149 74.0195 407.232L62.6327 382.531C62.0774 381.327 60.4033 381.228 59.7101 382.359L47.2457 402.691ZM62.3301 388.178C62.0881 387.618 61.2686 387.705 61.1485 388.303L56.7646 410.131C56.6722 410.591 57.1031 410.984 57.5529 410.85L69.7912 407.196C70.1484 407.09 70.3325 406.695 70.1846 406.353L62.3301 388.178Z" clip-rule="evenodd" fill-rule="evenodd"></path>
<path fill="white" d="M84.7851 398.176H85.8639C86.8722 398.176 87.6261 397.977 88.1269 397.579C88.6277 397.181 88.8779 396.601 88.8779 395.839C88.8779 395.071 88.668 394.503 88.2487 394.137C87.8289 393.77 87.1717 393.587 86.2762 393.587H84.7851V398.176ZM92.1876 395.725C92.1876 397.389 91.6678 398.661 90.6274 399.542C89.5878 400.424 88.109 400.864 86.1914 400.864H84.7847V406.364H81.5063V390.902H86.445C88.3207 390.902 89.7465 391.306 90.723 392.113C91.6996 392.92 92.1876 394.124 92.1876 395.725Z" clip-rule="evenodd" fill-rule="evenodd"></path>
<path fill="white" d="M100.878 394.312C101.316 394.312 101.678 394.344 101.968 394.407L101.724 397.432C101.463 397.362 101.146 397.326 100.773 397.326C99.743 397.326 98.9412 397.59 98.3661 398.119C97.7918 398.648 97.5046 399.389 97.5046 400.34V406.358H94.2789V394.534H96.7219L97.198 396.522H97.3564C97.7231 395.86 98.2183 395.326 98.8426 394.92C99.4663 394.515 100.145 394.312 100.878 394.312" clip-rule="evenodd" fill-rule="evenodd"></path>
<path fill="white" d="M103.678 406.366H106.904V394.542H103.678V406.366ZM103.541 391.483C103.541 390.433 104.126 389.908 105.296 389.908C106.466 389.908 107.052 390.433 107.052 391.483C107.052 391.984 106.906 392.373 106.613 392.652C106.32 392.93 105.882 393.069 105.296 393.069C104.126 393.069 103.541 392.541 103.541 391.483Z" clip-rule="evenodd" fill-rule="evenodd"></path>
<path fill="white" d="M118.26 402.85C118.26 404.063 117.839 404.986 116.996 405.621C116.154 406.255 114.894 406.573 113.216 406.573C112.355 406.573 111.623 406.514 111.016 406.398C110.41 406.282 109.842 406.111 109.313 405.885V403.22C109.913 403.502 110.588 403.738 111.339 403.929C112.089 404.119 112.75 404.214 113.321 404.214C114.492 404.214 115.077 403.876 115.077 403.199C115.077 402.945 115 402.739 114.845 402.58C114.689 402.422 114.422 402.242 114.041 402.041C113.66 401.84 113.152 401.606 112.518 401.337C111.609 400.957 110.94 400.604 110.514 400.28C110.087 399.956 109.777 399.584 109.583 399.164C109.389 398.745 109.292 398.228 109.292 397.615C109.292 396.564 109.699 395.752 110.514 395.177C111.328 394.603 112.482 394.315 113.977 394.315C115.401 394.315 116.787 394.626 118.133 395.246L117.161 397.573C116.568 397.319 116.015 397.111 115.5 396.949C114.985 396.786 114.46 396.705 113.925 396.705C112.973 396.705 112.497 396.963 112.497 397.477C112.497 397.767 112.65 398.017 112.957 398.228C113.264 398.44 113.935 398.754 114.971 399.17C115.895 399.544 116.572 399.892 117.002 400.216C117.432 400.541 117.749 400.914 117.954 401.337C118.159 401.761 118.26 402.265 118.26 402.85" clip-rule="evenodd" fill-rule="evenodd"></path>
<path fill="white" d="M131.038 406.358H127.813V399.452C127.813 398.599 127.67 397.959 127.385 397.533C127.099 397.106 126.65 396.892 126.036 396.892C125.211 396.892 124.612 397.196 124.238 397.802C123.864 398.409 123.678 399.406 123.678 400.795V406.358H120.452V394.534H122.916L123.35 396.047H123.53C123.847 395.504 124.305 395.079 124.904 394.772C125.504 394.466 126.191 394.312 126.967 394.312C128.737 394.312 129.935 394.891 130.563 396.047H130.848C131.165 395.497 131.633 395.07 132.249 394.767C132.866 394.464 133.562 394.312 134.338 394.312C135.678 394.312 136.691 394.656 137.379 395.343C138.066 396.031 138.41 397.132 138.41 398.648V406.358H135.173V399.452C135.173 398.599 135.03 397.959 134.746 397.533C134.459 397.106 134.01 396.892 133.397 396.892C132.607 396.892 132.017 397.175 131.625 397.739C131.234 398.303 131.038 399.198 131.038 400.425V406.358Z" clip-rule="evenodd" fill-rule="evenodd"></path>
<path fill="white" d="M147.796 400.881L146.548 400.923C145.61 400.951 144.912 401.12 144.454 401.431C143.995 401.741 143.767 402.213 143.767 402.848C143.767 403.757 144.288 404.212 145.332 404.212C146.079 404.212 146.677 403.997 147.124 403.567C147.572 403.137 147.796 402.566 147.796 401.853V400.881ZM148.748 406.36L148.124 404.752H148.039C147.496 405.436 146.937 405.91 146.363 406.175C145.788 406.439 145.039 406.571 144.116 406.571C142.98 406.571 142.087 406.247 141.435 405.598C140.783 404.95 140.457 404.026 140.457 402.828C140.457 401.573 140.895 400.647 141.773 400.051C142.651 399.456 143.975 399.126 145.744 399.063L147.796 398.999V398.481C147.796 397.282 147.182 396.683 145.956 396.683C145.011 396.683 143.9 396.968 142.624 397.54L141.556 395.361C142.917 394.649 144.426 394.293 146.083 394.293C147.669 394.293 148.885 394.639 149.731 395.329C150.577 396.02 151 397.071 151 398.481V406.36H148.748Z" clip-rule="evenodd" fill-rule="evenodd"></path>
<rect fill="#8EAAF5" height="144.603" width="296.418" y="180.449" x="272.625"></rect>
<rect fill="#3E3976" height="22.3208" width="57.2973" y="180.445" x="272.624"></rect>
<rect fill="#3E3976" height="22.3208" width="28.6486" y="204.797" x="272.624"></rect>
<rect fill="#3E3976" height="22.3208" width="57.2973" y="180.445" x="332.449"></rect>
<rect fill="#3E3976" height="22.3208" width="57.2973" y="204.797" x="303.799"></rect>
<rect fill="#3E3976" height="22.3208" width="57.2973" y="180.445" x="392.274"></rect>
<rect fill="#3E3976" height="22.3208" width="57.2973" y="204.797" x="363.626"></rect>
<rect fill="#3E3976" height="22.3208" width="57.2973" y="180.445" x="452.099"></rect>
<rect fill="#3E3976" height="22.3208" width="57.2973" y="204.797" x="423.451"></rect>
<rect fill="#3E3976" height="22.3208" width="57.2973" y="180.445" x="511.924"></rect>
<rect fill="#3E3976" height="22.3208" width="57.2973" y="204.797" x="483.276"></rect>
<rect fill="#3E3976" height="22.3208" width="26.1208" y="204.797" x="543.1"></rect>
<rect fill="#3E3976" height="22.3208" width="57.2973" y="229.41" x="272.624"></rect>
<rect fill="#3E3976" height="22.3208" width="28.6486" y="253.762" x="272.624"></rect>
<rect fill="#3E3976" height="22.3208" width="57.2973" y="229.41" x="332.449"></rect>
<rect fill="#3E3976" height="22" width="66" y="254" x="304"></rect>
<rect fill="#3E3976" height="22.3208" width="57.2973" y="229.41" x="392.274"></rect>
<rect fill="#3E3976" height="22.3208" width="57.2973" y="229.41" x="452.099"></rect>
<rect fill="#3E3976" height="22.3208" width="57.2973" y="229.41" x="511.924"></rect>
<rect fill="#3E3976" height="22" width="69" y="254" x="472"></rect>
<rect fill="#3E3976" height="22.3208" width="26.1208" y="253.762" x="543.101"></rect>
<rect fill="#3E3976" height="22.3208" width="57.2973" y="278.38" x="272.624"></rect>
<rect fill="#3E3976" height="22.3208" width="28.6486" y="302.731" x="272.624"></rect>
<rect fill="#3E3976" height="22.3208" width="57.2973" y="278.38" x="332.449"></rect>
<rect fill="#3E3976" height="22.3208" width="57.2973" y="302.731" x="303.799"></rect>
<rect fill="#3E3976" height="22.3208" width="57.2973" y="278.38" x="392.274"></rect>
<rect fill="#3E3976" height="22.3208" width="57.2973" y="302.731" x="363.626"></rect>
<rect fill="#3E3976" height="22.3208" width="57.2973" y="278.38" x="452.099"></rect>
<rect fill="#3E3976" height="22.3208" width="57.2973" y="302.731" x="423.451"></rect>
<rect fill="#3E3976" height="22.3208" width="57.2973" y="278.38" x="511.924"></rect>
<rect fill="#3E3976" height="22.3208" width="57.2973" y="302.731" x="483.276"></rect>
<rect fill="#3E3976" height="22.3208" width="26.1208" y="302.731" x="543.1"></rect>
<circle stroke-width="8" stroke="#8EAAF5" fill="#8EAAF5" r="46.5" cy="258.5" cx="421.5"></circle>
<mask height="32" width="60" y="263" x="393" maskUnits="userSpaceOnUse" style="mask-type:alpha" id="mask0_7082_4620">
<rect fill="url(#paint4_linear_7082_4620)" transform="matrix(-1 0 0 1 452.801 263.611)" height="30.5675" width="59.6655"></rect>
</mask>
<g mask="url(#mask0_7082_4620)">
<ellipse fill="url(#paint5_radial_7082_4620)" transform="matrix(-1 0 0 1 422.968 278.307)" ry="12.0507" rx="29.8327"></ellipse>
</g>
<path fill="url(#paint6_linear_7082_4620)" d="M422.97 286.867C408.929 286.867 397.546 281.968 397.546 275.925V267.558H448.394V275.925C448.394 281.968 437.011 286.867 422.97 286.867Z"></path>
<ellipse fill="url(#paint7_linear_7082_4620)" transform="matrix(-1 0 0 1 422.97 267.567)" ry="9.01102" rx="25.424"></ellipse>
<ellipse fill-opacity="0.44" fill="url(#paint8_radial_7082_4620)" transform="matrix(-1 0 0 1 422.97 267.567)" ry="9.01102" rx="25.424"></ellipse>
<path fill="url(#paint9_linear_7082_4620)" d="M422.968 275.284C409.638 275.284 398.831 271.528 398.831 266.895V260.48H447.104V266.895C447.104 271.528 436.298 275.284 422.968 275.284Z"></path>
<path fill-opacity="0.284" fill="#C6D4DB" d="M422.968 275.284C409.638 275.284 398.831 271.528 398.831 266.895V260.48H447.104V266.895C447.104 271.528 436.298 275.284 422.968 275.284Z"></path>
<path fill="url(#paint10_linear_7082_4620)" d="M422.968 272.638C409.638 272.638 398.831 268.882 398.831 264.249V257.834H447.104V264.249C447.104 268.882 436.298 272.638 422.968 272.638Z" opacity="0.5"></path>
<path fill="url(#paint11_linear_7082_4620)" d="M422.97 271.432C408.929 271.432 397.546 267.289 397.546 262.178V253.41H448.394V262.178C448.394 267.289 437.011 271.432 422.97 271.432Z"></path>
<ellipse fill="url(#paint12_linear_7082_4620)" transform="matrix(-1 0 0 1 422.97 252.76)" ry="9.65467" rx="25.424"></ellipse>
<ellipse fill-opacity="0.44" fill="url(#paint13_radial_7082_4620)" transform="matrix(-1 0 0 1 422.97 252.76)" ry="9.65467" rx="25.424"></ellipse>
<path fill="url(#paint14_linear_7082_4620)" d="M422.968 261.134C409.638 261.134 398.831 257.214 398.831 252.38V245.686H447.104V252.38C447.104 257.214 436.298 261.134 422.968 261.134Z"></path>
<path fill-opacity="0.284" fill="#C6D4DB" d="M422.968 261.134C409.638 261.134 398.831 257.214 398.831 252.38V245.686H447.104V252.38C447.104 257.214 436.298 261.134 422.968 261.134Z"></path>
<path fill="url(#paint15_linear_7082_4620)" d="M422.968 258.19C409.638 258.19 398.831 254.271 398.831 249.437V242.743H447.104V249.437C447.104 254.271 436.298 258.19 422.968 258.19Z" opacity="0.5"></path>
<path fill="url(#paint16_linear_7082_4620)" d="M422.97 256.923C408.929 256.923 397.546 252.718 397.546 247.53V238.63H448.394V247.53C448.394 252.718 437.011 256.923 422.97 256.923Z"></path>
<ellipse fill="url(#paint17_linear_7082_4620)" transform="matrix(-1 0 0 1 422.97 238.333)" ry="9.3924" rx="25.424"></ellipse>
<path stroke-width="3.04735" stroke-opacity="0.46" stroke="url(#paint18_radial_7082_4620)" d="M399.07 238.333C399.07 239.029 399.446 239.881 400.546 240.842C401.643 241.8 403.318 242.732 405.52 243.546C409.912 245.168 416.081 246.202 422.97 246.202C429.858 246.202 436.027 245.168 440.419 243.546C442.621 242.732 444.297 241.8 445.394 240.842C446.494 239.881 446.87 239.029 446.87 238.333C446.87 237.638 446.494 236.786 445.394 235.825C444.297 234.867 442.621 233.935 440.419 233.121C436.027 231.499 429.858 230.465 422.97 230.465C416.081 230.465 409.912 231.499 405.52 233.121C403.318 233.935 401.643 234.867 400.546 235.825C399.446 236.786 399.07 237.638 399.07 238.333Z"></path>
</g>
<defs>
<linearGradient gradientUnits="userSpaceOnUse" y2="468.437" x2="457.915" y1="0" x1="457.915" id="paint0_linear_7082_4620">
<stop stop-color="#EBF8FF" offset="0.0308789"></stop>
<stop stop-color="#667EEA" offset="1"></stop>
</linearGradient>
<radialGradient gradientTransform="translate(425.787 250.515) rotate(-75) scale(0.5 452.061)" gradientUnits="userSpaceOnUse" r="1" cy="0" cx="0" id="paint1_radial_7082_4620">
<stop stop-color="white" offset="0.751686"></stop>
<stop stop-opacity="0" stop-color="white" offset="0.928773"></stop>
</radialGradient>
<radialGradient gradientTransform="translate(425.528 250.515) rotate(-105) scale(0.5 452.061)" gradientUnits="userSpaceOnUse" r="1" cy="0" cx="0" id="paint2_radial_7082_4620">
<stop stop-color="white" offset="0.751686"></stop>
<stop stop-opacity="0" stop-color="white" offset="0.928773"></stop>
</radialGradient>
<linearGradient gradientUnits="userSpaceOnUse" y2="324.343" x2="419.023" y1="99.6809" x1="419.023" id="paint3_linear_7082_4620">
<stop stop-color="#EBF4FF"></stop>
<stop stop-color="#EBF4FF" offset="0.0001"></stop>
<stop stop-opacity="0" stop-color="#EBF4FF" offset="1"></stop>
</linearGradient>
<linearGradient gradientUnits="userSpaceOnUse" y2="3.23311" x2="7.34797" y1="15.2838" x1="13.8142" id="paint4_linear_7082_4620">
<stop stop-color="#C4C4C4"></stop>
<stop stop-opacity="0" stop-color="#C4C4C4" offset="1"></stop>
</linearGradient>
<radialGradient gradientTransform="translate(29.8327 12.0507) rotate(90) scale(12.0507 29.8327)" gradientUnits="userSpaceOnUse" r="1" cy="0" cx="0" id="paint5_radial_7082_4620">
<stop stop-color="#071B29" offset="0.604167"></stop>
<stop stop-opacity="0.17" stop-color="#071B29" offset="0.848958"></stop>
<stop stop-opacity="0" stop-color="#071B29" offset="1"></stop>
</radialGradient>
<linearGradient gradientUnits="userSpaceOnUse" y2="264.449" x2="397.546" y1="264.449" x1="448.394" id="paint6_linear_7082_4620">
<stop stop-color="#B4C5CD"></stop>
<stop stop-color="#6C8A98" offset="0.718232"></stop>
<stop stop-color="#6B8692" offset="1"></stop>
</linearGradient>
<linearGradient gradientUnits="userSpaceOnUse" y2="20.6303" x2="16.4554" y1="-3.34837" x1="42.2587" id="paint7_linear_7082_4620">
<stop stop-color="#648697"></stop>
<stop stop-color="#B8CCD5" offset="1"></stop>
</linearGradient>
<radialGradient gradientTransform="translate(11.1689 18.0568) rotate(-140.974) scale(14.3769 12.3365)" gradientUnits="userSpaceOnUse" r="1" cy="0" cx="0" id="paint8_radial_7082_4620">
<stop stop-color="white"></stop>
<stop stop-opacity="0" stop-color="white" offset="1"></stop>
</radialGradient>
<linearGradient gradientUnits="userSpaceOnUse" y2="258.097" x2="398.831" y1="258.097" x1="447.104" id="paint9_linear_7082_4620">
<stop stop-color="#183C56"></stop>
<stop stop-color="#335D7B" offset="0.286458"></stop>
<stop stop-color="#082133" offset="1"></stop>
</linearGradient>
<linearGradient gradientUnits="userSpaceOnUse" y2="255.451" x2="398.831" y1="255.451" x1="447.104" id="paint10_linear_7082_4620">
<stop stop-color="#183C56"></stop>
<stop stop-color="#335D7B" offset="0.286458"></stop>
<stop stop-color="#082133" offset="1"></stop>
</linearGradient>
<linearGradient gradientUnits="userSpaceOnUse" y2="252.473" x2="397.546" y1="252.473" x1="448.394" id="paint11_linear_7082_4620">
<stop stop-color="#B4C5CD"></stop>
<stop stop-color="#6C8A98" offset="0.718232"></stop>
<stop stop-color="#6B8692" offset="1"></stop>
</linearGradient>
<linearGradient gradientUnits="userSpaceOnUse" y2="20.2142" x2="14.8164" y1="-3.58754" x1="42.2587" id="paint12_linear_7082_4620">
<stop stop-color="#648697"></stop>
<stop stop-color="#B8CCD5" offset="1"></stop>
</linearGradient>
<radialGradient gradientTransform="translate(11.1689 19.3465) rotate(-139.028) scale(14.7926 12.8462)" gradientUnits="userSpaceOnUse" r="1" cy="0" cx="0" id="paint13_radial_7082_4620">
<stop stop-color="white"></stop>
<stop stop-opacity="0" stop-color="white" offset="1"></stop>
</radialGradient>
<linearGradient gradientUnits="userSpaceOnUse" y2="243.199" x2="398.831" y1="243.199" x1="447.104" id="paint14_linear_7082_4620">
<stop stop-color="#183C56"></stop>
<stop stop-color="#335D7B" offset="0.286458"></stop>
<stop stop-color="#082133" offset="1"></stop>
</linearGradient>
<linearGradient gradientUnits="userSpaceOnUse" y2="240.256" x2="398.831" y1="240.256" x1="447.104" id="paint15_linear_7082_4620">
<stop stop-color="#183C56"></stop>
<stop stop-color="#335D7B" offset="0.286458"></stop>
<stop stop-color="#082133" offset="1"></stop>
</linearGradient>
<linearGradient gradientUnits="userSpaceOnUse" y2="237.68" x2="397.546" y1="237.68" x1="448.394" id="paint16_linear_7082_4620">
<stop stop-color="#B4C5CD"></stop>
<stop stop-color="#6C8A98" offset="0.718232"></stop>
<stop stop-color="#6B8692" offset="1"></stop>
</linearGradient>
<linearGradient gradientUnits="userSpaceOnUse" y2="26.3904" x2="20.2457" y1="2.18122" x1="42.6023" id="paint17_linear_7082_4620">
<stop stop-color="#B9CAD2"></stop>
<stop stop-color="#DBE6EB" offset="1"></stop>
</linearGradient>
<radialGradient gradientTransform="translate(441.046 246.282) rotate(-145.257) scale(22.1767 60.0294)" gradientUnits="userSpaceOnUse" r="1" cy="0" cx="0" id="paint18_radial_7082_4620">
<stop stop-color="white"></stop>
<stop stop-opacity="0" stop-color="white" offset="1"></stop>
</radialGradient>
<clipPath id="clip0_7082_4620">
<rect fill="white" height="474" width="844"></rect>
</clipPath>
</defs>
</svg>
