<svg xmlns="http://www.w3.org/2000/svg" fill="none" viewBox="0 0 844 474" height="474" width="844">
<g clip-path="url(#clip0_9968_187397)">
<rect fill="url(#paint0_linear_9968_187397)" height="474" width="844"></rect>
<g filter="url(#filter0_dddddd_9968_187397)">
<path fill="white" d="M354.916 390.104C312.48 390.104 280.071 378.477 257.691 355.225C235.31 331.972 224.119 294.041 224.119 241.431V232.712C224.119 194.344 229.497 163.535 240.251 140.282C251.296 116.738 266.992 99.5894 287.338 88.8349C307.684 78.0805 331.518 72.7033 358.84 72.7033C380.93 72.7033 399.823 75.6099 415.519 81.4231C431.505 86.9457 444.149 96.2468 453.45 109.326C463.042 122.406 468.71 140.282 470.454 162.953H384.564C382.529 157.14 379.477 152.78 375.408 149.874C371.339 146.676 365.235 145.078 357.096 145.078C349.248 145.078 342.418 146.967 336.605 150.745C330.792 154.233 326.286 160.483 323.089 169.493C319.892 178.213 318.148 190.857 317.857 207.424C323.961 198.995 332.681 192.746 344.017 188.677C355.352 184.607 368.723 182.573 384.128 182.573C404.474 182.573 421.477 186.787 435.138 195.216C448.799 203.355 459.118 214.691 466.094 229.224C473.36 243.757 476.993 260.034 476.993 278.054V282.85C476.993 304.65 472.052 323.688 462.17 339.965C452.578 355.951 438.626 368.304 420.315 377.024C402.294 385.744 380.494 390.104 354.916 390.104ZM350.556 317.73C360.148 317.73 367.415 314.678 372.356 308.574C377.297 302.179 379.768 294.041 379.768 284.158V279.798C379.768 269.916 377.297 261.923 372.356 255.819C367.415 249.715 360.148 246.663 350.556 246.663C340.674 246.663 333.117 249.715 327.885 255.819C322.944 261.923 320.473 269.916 320.473 279.798V284.158C320.473 294.041 322.944 302.179 327.885 308.574C333.117 314.678 340.674 317.73 350.556 317.73Z"></path>
</g>
<g filter="url(#filter1_dddddd_9968_187397)">
<path fill="white" d="M167.757 377.133C165.451 377.133 163.943 376.068 163.234 373.94L122.523 243.294C122.346 242.939 122.257 242.407 122.257 241.697C122.257 239.746 123.499 238.77 125.982 238.77H171.749C174.232 238.77 175.74 239.923 176.272 242.229L190.374 308.218C190.552 308.927 190.818 309.282 191.173 309.282C191.527 309.282 191.793 308.927 191.971 308.218L206.073 242.229C206.605 239.923 208.113 238.77 210.597 238.77L256.363 239.302C257.782 239.302 258.757 239.746 259.29 240.633C259.999 241.342 260.176 242.407 259.822 243.826L219.377 373.94C218.668 376.068 217.16 377.133 214.854 377.133H167.757Z"></path>
</g>
<g filter="url(#filter2_dddddd_9968_187397)">
<path fill="white" d="M504.469 129.047C503.613 130.327 503.626 131.941 504.504 133.208L520.391 156.148C521.422 157.637 523.409 158.316 525.254 157.809L571.101 145.219C573.602 144.532 574.861 141.978 573.768 139.806L544.295 81.2864C542.858 78.4325 538.525 78.1982 536.731 80.8774L504.469 129.047ZM543.512 94.6647C542.886 93.3379 540.765 93.5423 540.454 94.9593L529.107 146.674C528.868 147.764 529.983 148.695 531.147 148.377L562.824 139.722C563.748 139.469 564.225 138.535 563.842 137.724L543.512 94.6647Z" clip-rule="evenodd" fill-rule="evenodd"></path>
</g>
<rect fill="#5A67D8" rx="25.9173" height="51.8346" width="129.146" y="185.871" x="504.73"></rect>
<rect stroke-width="1.78898" stroke="#7F9CF5" rx="25.9173" height="51.8346" width="129.146" y="185.871" x="504.73"></rect>
<path fill="white" d="M538.979 207.487C538.979 207.571 538.945 207.646 538.878 207.712C538.828 207.763 538.761 207.788 538.678 207.788H530.488C530.405 207.788 530.363 207.829 530.363 207.913V211.795C530.363 211.878 530.405 211.92 530.488 211.92H535.873C535.956 211.92 536.023 211.954 536.073 212.02C536.14 212.07 536.173 212.137 536.173 212.221V214.65C536.173 214.734 536.14 214.809 536.073 214.876C536.023 214.926 535.956 214.951 535.873 214.951H530.488C530.405 214.951 530.363 214.992 530.363 215.076V221.989C530.363 222.072 530.329 222.147 530.263 222.214C530.213 222.264 530.146 222.289 530.062 222.289H527.132C527.048 222.289 526.973 222.264 526.907 222.214C526.856 222.147 526.831 222.072 526.831 221.989V205.058C526.831 204.974 526.856 204.907 526.907 204.857C526.973 204.79 527.048 204.757 527.132 204.757H538.678C538.761 204.757 538.828 204.79 538.878 204.857C538.945 204.907 538.979 204.974 538.979 205.058V207.487ZM550.035 222.289C549.868 222.289 549.759 222.206 549.709 222.039L548.958 219.584C548.924 219.517 548.883 219.484 548.833 219.484H542.671C542.621 219.484 542.58 219.517 542.546 219.584L541.82 222.039C541.77 222.206 541.661 222.289 541.494 222.289H538.313C538.213 222.289 538.138 222.264 538.088 222.214C538.038 222.147 538.03 222.055 538.063 221.938L543.473 205.008C543.523 204.841 543.631 204.757 543.798 204.757H547.731C547.898 204.757 548.006 204.841 548.056 205.008L553.466 221.938C553.483 221.972 553.491 222.014 553.491 222.064C553.491 222.214 553.399 222.289 553.216 222.289H550.035ZM543.448 216.604C543.431 216.704 543.465 216.754 543.548 216.754H547.956C548.056 216.754 548.09 216.704 548.056 216.604L545.802 209.165C545.785 209.098 545.76 209.073 545.727 209.09C545.694 209.09 545.669 209.115 545.652 209.165L543.448 216.604ZM560.603 222.489C559.267 222.489 558.098 222.281 557.097 221.863C556.095 221.429 555.318 220.82 554.767 220.035C554.233 219.233 553.966 218.307 553.966 217.255V216.704C553.966 216.62 553.991 216.554 554.041 216.504C554.108 216.437 554.183 216.403 554.266 216.403H557.122C557.205 216.403 557.272 216.437 557.322 216.504C557.389 216.554 557.422 216.62 557.422 216.704V217.08C557.422 217.747 557.731 218.315 558.349 218.783C558.967 219.233 559.801 219.459 560.853 219.459C561.738 219.459 562.398 219.275 562.832 218.908C563.266 218.524 563.483 218.056 563.483 217.505C563.483 217.105 563.35 216.771 563.082 216.504C562.815 216.22 562.448 215.978 561.98 215.777C561.53 215.56 560.803 215.268 559.801 214.901C558.683 214.517 557.731 214.124 556.946 213.723C556.178 213.323 555.527 212.78 554.993 212.095C554.475 211.394 554.216 210.534 554.216 209.516C554.216 208.514 554.475 207.637 554.993 206.886C555.51 206.135 556.228 205.559 557.147 205.158C558.065 204.757 559.125 204.557 560.327 204.557C561.596 204.557 562.723 204.782 563.709 205.233C564.71 205.684 565.487 206.318 566.038 207.136C566.606 207.938 566.889 208.873 566.889 209.942V210.317C566.889 210.401 566.856 210.476 566.789 210.543C566.739 210.593 566.672 210.618 566.589 210.618H563.709C563.625 210.618 563.55 210.593 563.483 210.543C563.433 210.476 563.408 210.401 563.408 210.317V210.117C563.408 209.416 563.116 208.823 562.531 208.339C561.964 207.838 561.179 207.587 560.177 207.587C559.392 207.587 558.775 207.754 558.324 208.088C557.89 208.422 557.673 208.881 557.673 209.466C557.673 209.883 557.798 210.234 558.048 210.518C558.315 210.801 558.699 211.06 559.2 211.294C559.718 211.511 560.511 211.812 561.58 212.196C562.765 212.63 563.692 213.014 564.36 213.348C565.044 213.682 565.654 214.183 566.188 214.85C566.739 215.502 567.015 216.353 567.015 217.405C567.015 218.975 566.439 220.219 565.286 221.137C564.134 222.039 562.573 222.489 560.603 222.489ZM581.389 204.757C581.472 204.757 581.539 204.79 581.589 204.857C581.656 204.907 581.689 204.974 581.689 205.058V207.512C581.689 207.596 581.656 207.671 581.589 207.738C581.539 207.788 581.472 207.813 581.389 207.813H576.906C576.822 207.813 576.78 207.854 576.78 207.938V221.989C576.78 222.072 576.747 222.147 576.68 222.214C576.63 222.264 576.563 222.289 576.48 222.289H573.549C573.466 222.289 573.391 222.264 573.324 222.214C573.274 222.147 573.249 222.072 573.249 221.989V207.938C573.249 207.854 573.207 207.813 573.124 207.813H568.766C568.682 207.813 568.607 207.788 568.54 207.738C568.49 207.671 568.465 207.596 568.465 207.512V205.058C568.465 204.974 568.49 204.907 568.54 204.857C568.607 204.79 568.682 204.757 568.766 204.757H581.389ZM596.115 207.487C596.115 207.571 596.081 207.646 596.014 207.712C595.964 207.763 595.897 207.788 595.814 207.788H587.599C587.516 207.788 587.474 207.829 587.474 207.913V211.795C587.474 211.878 587.516 211.92 587.599 211.92H592.984C593.067 211.92 593.134 211.954 593.184 212.02C593.251 212.07 593.284 212.137 593.284 212.221V214.65C593.284 214.734 593.251 214.809 593.184 214.876C593.134 214.926 593.067 214.951 592.984 214.951H587.599C587.516 214.951 587.474 214.992 587.474 215.076V219.133C587.474 219.217 587.516 219.259 587.599 219.259H595.814C595.897 219.259 595.964 219.292 596.014 219.359C596.081 219.409 596.115 219.476 596.115 219.559V221.989C596.115 222.072 596.081 222.147 596.014 222.214C595.964 222.264 595.897 222.289 595.814 222.289H584.243C584.159 222.289 584.084 222.264 584.017 222.214C583.967 222.147 583.942 222.072 583.942 221.989V205.058C583.942 204.974 583.967 204.907 584.017 204.857C584.084 204.79 584.159 204.757 584.243 204.757H595.814C595.897 204.757 595.964 204.79 596.014 204.857C596.081 204.907 596.115 204.974 596.115 205.058V207.487ZM608.186 222.289C608.019 222.289 607.902 222.214 607.836 222.064L604.705 215.126C604.671 215.059 604.621 215.026 604.555 215.026H602.225C602.142 215.026 602.1 215.068 602.1 215.151V221.989C602.1 222.072 602.067 222.147 602 222.214C601.95 222.264 601.883 222.289 601.8 222.289H598.869C598.786 222.289 598.711 222.264 598.644 222.214C598.594 222.147 598.569 222.072 598.569 221.989V205.058C598.569 204.974 598.594 204.907 598.644 204.857C598.711 204.79 598.786 204.757 598.869 204.757H606.032C607.101 204.757 608.036 204.974 608.837 205.408C609.656 205.842 610.282 206.46 610.716 207.262C611.167 208.063 611.392 208.99 611.392 210.042C611.392 211.177 611.108 212.154 610.54 212.972C609.973 213.774 609.18 214.341 608.161 214.675C608.078 214.709 608.053 214.767 608.086 214.85L611.492 221.938C611.526 222.005 611.542 222.055 611.542 222.089C611.542 222.222 611.45 222.289 611.267 222.289H608.186ZM602.225 207.788C602.142 207.788 602.1 207.829 602.1 207.913V212.196C602.1 212.279 602.142 212.321 602.225 212.321H605.506C606.208 212.321 606.775 212.112 607.209 211.695C607.66 211.277 607.886 210.735 607.886 210.067C607.886 209.399 607.66 208.856 607.209 208.439C606.775 208.005 606.208 207.788 605.506 207.788H602.225Z"></path>
<g filter="url(#filter3_dddddd_9968_187397)">
<rect fill="#5A67D8" rx="26.8118" height="53.6236" width="221.935" y="253.148" x="503.836"></rect>
<rect stroke-width="1.78898" stroke="#7F9CF5" rx="25.9173" height="51.8346" width="220.146" y="254.043" x="504.73"></rect>
<path fill="white" d="M538.102 273.129C538.185 272.996 538.302 272.929 538.453 272.929H541.383C541.466 272.929 541.533 272.962 541.583 273.029C541.65 273.079 541.683 273.146 541.683 273.23V290.16C541.683 290.244 541.65 290.319 541.583 290.386C541.533 290.436 541.466 290.461 541.383 290.461H538.453C538.369 290.461 538.294 290.436 538.227 290.386C538.177 290.319 538.152 290.244 538.152 290.16V279.115C538.152 279.048 538.135 279.015 538.102 279.015C538.069 279.015 538.035 279.04 538.002 279.09L535.347 283.248C535.263 283.381 535.147 283.448 534.996 283.448H533.519C533.368 283.448 533.251 283.381 533.168 283.248L530.513 279.09C530.48 279.04 530.446 279.023 530.413 279.04C530.38 279.04 530.363 279.074 530.363 279.14V290.16C530.363 290.244 530.329 290.319 530.263 290.386C530.213 290.436 530.146 290.461 530.062 290.461H527.132C527.048 290.461 526.973 290.436 526.907 290.386C526.856 290.319 526.831 290.244 526.831 290.16V273.23C526.831 273.146 526.856 273.079 526.907 273.029C526.973 272.962 527.048 272.929 527.132 272.929H530.062C530.213 272.929 530.329 272.996 530.413 273.129L534.17 278.965C534.22 279.065 534.27 279.065 534.32 278.965L538.102 273.129ZM550.971 290.736C549.669 290.736 548.517 290.469 547.515 289.935C546.53 289.401 545.762 288.658 545.211 287.706C544.66 286.737 544.384 285.627 544.384 284.375V279.015C544.384 277.779 544.66 276.686 545.211 275.734C545.762 274.782 546.53 274.048 547.515 273.53C548.517 272.996 549.669 272.729 550.971 272.729C552.291 272.729 553.443 272.996 554.428 273.53C555.43 274.048 556.206 274.782 556.757 275.734C557.308 276.686 557.584 277.779 557.584 279.015V284.375C557.584 285.627 557.308 286.737 556.757 287.706C556.206 288.674 555.43 289.426 554.428 289.96C553.443 290.478 552.291 290.736 550.971 290.736ZM550.971 287.706C551.89 287.706 552.633 287.414 553.201 286.829C553.768 286.245 554.052 285.468 554.052 284.5V278.99C554.052 278.022 553.768 277.245 553.201 276.661C552.65 276.06 551.907 275.759 550.971 275.759C550.053 275.759 549.31 276.06 548.742 276.661C548.191 277.245 547.916 278.022 547.916 278.99V284.5C547.916 285.468 548.191 286.245 548.742 286.829C549.31 287.414 550.053 287.706 550.971 287.706ZM569.908 290.461C569.741 290.461 569.625 290.386 569.558 290.236L566.427 283.298C566.394 283.231 566.344 283.198 566.277 283.198H563.947C563.864 283.198 563.822 283.239 563.822 283.323V290.16C563.822 290.244 563.789 290.319 563.722 290.386C563.672 290.436 563.605 290.461 563.522 290.461H560.591C560.508 290.461 560.433 290.436 560.366 290.386C560.316 290.319 560.291 290.244 560.291 290.16V273.23C560.291 273.146 560.316 273.079 560.366 273.029C560.433 272.962 560.508 272.929 560.591 272.929H567.754C568.823 272.929 569.758 273.146 570.56 273.58C571.378 274.014 572.004 274.632 572.438 275.434C572.889 276.235 573.114 277.162 573.114 278.214C573.114 279.349 572.83 280.326 572.263 281.144C571.695 281.945 570.902 282.513 569.883 282.847C569.8 282.88 569.775 282.939 569.808 283.022L573.214 290.11C573.248 290.177 573.264 290.227 573.264 290.261C573.264 290.394 573.173 290.461 572.989 290.461H569.908ZM563.947 275.959C563.864 275.959 563.822 276.001 563.822 276.085V280.368C563.822 280.451 563.864 280.493 563.947 280.493H567.228C567.93 280.493 568.497 280.284 568.932 279.867C569.382 279.449 569.608 278.907 569.608 278.239C569.608 277.571 569.382 277.028 568.932 276.611C568.497 276.177 567.93 275.959 567.228 275.959H563.947ZM587.848 275.659C587.848 275.742 587.814 275.818 587.747 275.884C587.697 275.934 587.63 275.959 587.547 275.959H579.332C579.249 275.959 579.207 276.001 579.207 276.085V279.967C579.207 280.05 579.249 280.092 579.332 280.092H584.717C584.8 280.092 584.867 280.125 584.917 280.192C584.984 280.242 585.017 280.309 585.017 280.393V282.822C585.017 282.905 584.984 282.981 584.917 283.047C584.867 283.098 584.8 283.123 584.717 283.123H579.332C579.249 283.123 579.207 283.164 579.207 283.248V287.305C579.207 287.389 579.249 287.43 579.332 287.43H587.547C587.63 287.43 587.697 287.464 587.747 287.531C587.814 287.581 587.848 287.647 587.848 287.731V290.16C587.848 290.244 587.814 290.319 587.747 290.386C587.697 290.436 587.63 290.461 587.547 290.461H575.976C575.892 290.461 575.817 290.436 575.75 290.386C575.7 290.319 575.675 290.244 575.675 290.16V273.23C575.675 273.146 575.7 273.079 575.75 273.029C575.817 272.962 575.892 272.929 575.976 272.929H587.547C587.63 272.929 587.697 272.962 587.747 273.029C587.814 273.079 587.848 273.146 587.848 273.23V275.659ZM607.463 275.659C607.463 275.742 607.429 275.818 607.363 275.884C607.313 275.934 607.246 275.959 607.162 275.959H598.972C598.889 275.959 598.847 276.001 598.847 276.085V279.967C598.847 280.05 598.889 280.092 598.972 280.092H604.357C604.441 280.092 604.507 280.125 604.557 280.192C604.624 280.242 604.658 280.309 604.658 280.393V282.822C604.658 282.905 604.624 282.981 604.557 283.047C604.507 283.098 604.441 283.123 604.357 283.123H598.972C598.889 283.123 598.847 283.164 598.847 283.248V290.16C598.847 290.244 598.814 290.319 598.747 290.386C598.697 290.436 598.63 290.461 598.547 290.461H595.616C595.533 290.461 595.458 290.436 595.391 290.386C595.341 290.319 595.316 290.244 595.316 290.16V273.23C595.316 273.146 595.341 273.079 595.391 273.029C595.458 272.962 595.533 272.929 595.616 272.929H607.162C607.246 272.929 607.313 272.962 607.363 273.029C607.429 273.079 607.463 273.146 607.463 273.23V275.659ZM609.631 290.461C609.548 290.461 609.472 290.436 609.406 290.386C609.355 290.319 609.33 290.244 609.33 290.16V273.23C609.33 273.146 609.355 273.079 609.406 273.029C609.472 272.962 609.548 272.929 609.631 272.929H612.561C612.645 272.929 612.712 272.962 612.762 273.029C612.828 273.079 612.862 273.146 612.862 273.23V287.305C612.862 287.389 612.904 287.43 612.987 287.43H621.177C621.261 287.43 621.327 287.464 621.377 287.531C621.444 287.581 621.478 287.647 621.478 287.731V290.16C621.478 290.244 621.444 290.319 621.377 290.386C621.327 290.436 621.261 290.461 621.177 290.461H609.631ZM635.835 275.659C635.835 275.742 635.802 275.818 635.735 275.884C635.685 275.934 635.618 275.959 635.535 275.959H627.32C627.236 275.959 627.195 276.001 627.195 276.085V279.967C627.195 280.05 627.236 280.092 627.32 280.092H632.705C632.788 280.092 632.855 280.125 632.905 280.192C632.972 280.242 633.005 280.309 633.005 280.393V282.822C633.005 282.905 632.972 282.981 632.905 283.047C632.855 283.098 632.788 283.123 632.705 283.123H627.32C627.236 283.123 627.195 283.164 627.195 283.248V287.305C627.195 287.389 627.236 287.43 627.32 287.43H635.535C635.618 287.43 635.685 287.464 635.735 287.531C635.802 287.581 635.835 287.647 635.835 287.731V290.16C635.835 290.244 635.802 290.319 635.735 290.386C635.685 290.436 635.618 290.461 635.535 290.461H623.964C623.88 290.461 623.805 290.436 623.738 290.386C623.688 290.319 623.663 290.244 623.663 290.16V273.23C623.663 273.146 623.688 273.079 623.738 273.029C623.805 272.962 623.88 272.929 623.964 272.929H635.535C635.618 272.929 635.685 272.962 635.735 273.029C635.802 273.079 635.835 273.146 635.835 273.23V275.659ZM637.789 290.461C637.672 290.461 637.588 290.428 637.538 290.361C637.488 290.294 637.496 290.21 637.563 290.11L642.422 281.77C642.455 281.72 642.455 281.67 642.422 281.62L637.563 273.28L637.513 273.129C637.513 272.996 637.605 272.929 637.789 272.929H640.969C641.136 272.929 641.262 272.996 641.345 273.129L644.601 278.865C644.651 278.965 644.701 278.965 644.751 278.865L648.007 273.129C648.091 272.996 648.216 272.929 648.383 272.929H651.539C651.656 272.929 651.739 272.962 651.789 273.029C651.839 273.096 651.831 273.179 651.764 273.28L646.905 281.62C646.889 281.67 646.889 281.72 646.905 281.77L651.764 290.11L651.814 290.261C651.814 290.394 651.722 290.461 651.539 290.461H648.383C648.216 290.461 648.091 290.394 648.007 290.261L644.751 284.55C644.701 284.45 644.651 284.45 644.601 284.55L641.32 290.261C641.237 290.394 641.111 290.461 640.944 290.461H637.789ZM654.39 290.461C654.307 290.461 654.232 290.436 654.165 290.386C654.115 290.319 654.09 290.244 654.09 290.16V273.23C654.09 273.146 654.115 273.079 654.165 273.029C654.232 272.962 654.307 272.929 654.39 272.929H657.321C657.404 272.929 657.471 272.962 657.521 273.029C657.588 273.079 657.621 273.146 657.621 273.23V290.16C657.621 290.244 657.588 290.319 657.521 290.386C657.471 290.436 657.404 290.461 657.321 290.461H654.39ZM671.063 281.319C670.963 281.369 670.963 281.419 671.063 281.47C672.649 282.288 673.442 283.649 673.442 285.552C673.442 287.172 672.891 288.399 671.789 289.234C670.687 290.052 669.243 290.461 667.457 290.461H660.97C660.886 290.461 660.811 290.436 660.744 290.386C660.694 290.319 660.669 290.244 660.669 290.16V273.23C660.669 273.146 660.694 273.079 660.744 273.029C660.811 272.962 660.886 272.929 660.97 272.929H667.256C671.213 272.929 673.192 274.532 673.192 277.738C673.192 279.407 672.482 280.601 671.063 281.319ZM664.326 275.959C664.242 275.959 664.201 276.001 664.201 276.085V279.992C664.201 280.075 664.242 280.117 664.326 280.117H667.256C668.041 280.117 668.65 279.933 669.085 279.566C669.519 279.199 669.736 278.698 669.736 278.063C669.736 277.412 669.519 276.903 669.085 276.536C668.65 276.152 668.041 275.959 667.256 275.959H664.326ZM667.457 287.405C668.225 287.405 668.826 287.213 669.26 286.829C669.694 286.429 669.911 285.886 669.911 285.201C669.911 284.517 669.694 283.982 669.26 283.598C668.826 283.198 668.216 282.997 667.432 282.997H664.326C664.242 282.997 664.201 283.039 664.201 283.123V287.28C664.201 287.364 664.242 287.405 664.326 287.405H667.457ZM676.501 290.461C676.418 290.461 676.342 290.436 676.276 290.386C676.225 290.319 676.2 290.244 676.2 290.16V273.23C676.2 273.146 676.225 273.079 676.276 273.029C676.342 272.962 676.418 272.929 676.501 272.929H679.431C679.515 272.929 679.582 272.962 679.632 273.029C679.698 273.079 679.732 273.146 679.732 273.23V287.305C679.732 287.389 679.774 287.43 679.857 287.43H688.047C688.131 287.43 688.197 287.464 688.247 287.531C688.314 287.581 688.348 287.647 688.348 287.731V290.16C688.348 290.244 688.314 290.319 688.247 290.386C688.197 290.436 688.131 290.461 688.047 290.461H676.501ZM702.705 275.659C702.705 275.742 702.672 275.818 702.605 275.884C702.555 275.934 702.488 275.959 702.405 275.959H694.19C694.106 275.959 694.065 276.001 694.065 276.085V279.967C694.065 280.05 694.106 280.092 694.19 280.092H699.575C699.658 280.092 699.725 280.125 699.775 280.192C699.842 280.242 699.875 280.309 699.875 280.393V282.822C699.875 282.905 699.842 282.981 699.775 283.047C699.725 283.098 699.658 283.123 699.575 283.123H694.19C694.106 283.123 694.065 283.164 694.065 283.248V287.305C694.065 287.389 694.106 287.43 694.19 287.43H702.405C702.488 287.43 702.555 287.464 702.605 287.531C702.672 287.581 702.705 287.647 702.705 287.731V290.16C702.705 290.244 702.672 290.319 702.605 290.386C702.555 290.436 702.488 290.461 702.405 290.461H690.834C690.75 290.461 690.675 290.436 690.608 290.386C690.558 290.319 690.533 290.244 690.533 290.16V273.23C690.533 273.146 690.558 273.079 690.608 273.029C690.675 272.962 690.75 272.929 690.834 272.929H702.405C702.488 272.929 702.555 272.962 702.605 273.029C702.672 273.079 702.705 273.146 702.705 273.23V275.659Z"></path>
</g>
<g filter="url(#filter4_dddddd_9968_187397)">
<rect fill="#5A67D8" rx="26.8118" height="53.6236" width="222.935" y="321.32" x="503.836"></rect>
<rect stroke-width="1.78898" stroke="#7F9CF5" rx="25.9173" height="51.8346" width="221.146" y="322.215" x="504.73"></rect>
<path fill="white" d="M538.928 341.101C539.012 341.101 539.079 341.134 539.129 341.201C539.196 341.251 539.229 341.318 539.229 341.401V343.856C539.229 343.939 539.196 344.014 539.129 344.081C539.079 344.131 539.012 344.156 538.928 344.156H534.445C534.362 344.156 534.32 344.198 534.32 344.282V358.332C534.32 358.416 534.287 358.491 534.22 358.558C534.17 358.608 534.103 358.633 534.019 358.633H531.089C531.006 358.633 530.931 358.608 530.864 358.558C530.814 358.491 530.789 358.416 530.789 358.332V344.282C530.789 344.198 530.747 344.156 530.663 344.156H526.305C526.222 344.156 526.147 344.131 526.08 344.081C526.03 344.014 526.005 343.939 526.005 343.856V341.401C526.005 341.318 526.03 341.251 526.08 341.201C526.147 341.134 526.222 341.101 526.305 341.101H538.928ZM546.216 358.608C546.132 358.608 546.057 358.583 545.99 358.533C545.94 358.466 545.915 358.391 545.915 358.307V351.971C545.915 351.904 545.907 351.854 545.89 351.82L540.731 341.451C540.697 341.385 540.681 341.335 540.681 341.301C540.681 341.168 540.772 341.101 540.956 341.101H544.112C544.279 341.101 544.396 341.176 544.463 341.326L547.593 347.988C547.643 348.089 547.693 348.089 547.744 347.988L550.874 341.326C550.941 341.176 551.058 341.101 551.225 341.101H554.431C554.548 341.101 554.623 341.134 554.656 341.201C554.706 341.251 554.706 341.335 554.656 341.451L549.447 351.82C549.43 351.854 549.422 351.904 549.422 351.971V358.307C549.422 358.391 549.388 358.466 549.321 358.533C549.271 358.583 549.205 358.608 549.121 358.608H546.216ZM564.031 341.076C565.133 341.076 566.102 341.301 566.937 341.752C567.772 342.203 568.414 342.846 568.865 343.681C569.333 344.499 569.567 345.442 569.567 346.511C569.567 347.563 569.324 348.489 568.84 349.291C568.373 350.092 567.705 350.718 566.837 351.169C565.985 351.603 565 351.82 563.881 351.82H560.325C560.241 351.82 560.199 351.862 560.199 351.946V358.332C560.199 358.416 560.166 358.491 560.099 358.558C560.049 358.608 559.982 358.633 559.899 358.633H556.969C556.885 358.633 556.81 358.608 556.743 358.558C556.693 358.491 556.668 358.416 556.668 358.332V341.376C556.668 341.293 556.693 341.226 556.743 341.176C556.81 341.109 556.885 341.076 556.969 341.076H564.031ZM563.505 348.99C564.274 348.99 564.891 348.773 565.359 348.339C565.826 347.888 566.06 347.304 566.06 346.586C566.06 345.851 565.826 345.258 565.359 344.808C564.891 344.357 564.274 344.131 563.505 344.131H560.325C560.241 344.131 560.199 344.173 560.199 344.257V348.865C560.199 348.948 560.241 348.99 560.325 348.99H563.505ZM583.91 343.831C583.91 343.914 583.876 343.989 583.809 344.056C583.759 344.106 583.693 344.131 583.609 344.131H575.394C575.311 344.131 575.269 344.173 575.269 344.257V348.139C575.269 348.222 575.311 348.264 575.394 348.264H580.779C580.862 348.264 580.929 348.297 580.979 348.364C581.046 348.414 581.08 348.481 581.08 348.564V350.994C581.08 351.077 581.046 351.153 580.979 351.219C580.929 351.269 580.862 351.294 580.779 351.294H575.394C575.311 351.294 575.269 351.336 575.269 351.42V355.477C575.269 355.561 575.311 355.602 575.394 355.602H583.609C583.693 355.602 583.759 355.636 583.809 355.702C583.876 355.753 583.91 355.819 583.91 355.903V358.332C583.91 358.416 583.876 358.491 583.809 358.558C583.759 358.608 583.693 358.633 583.609 358.633H572.038C571.955 358.633 571.879 358.608 571.813 358.558C571.763 358.491 571.737 358.416 571.737 358.332V341.401C571.737 341.318 571.763 341.251 571.813 341.201C571.879 341.134 571.955 341.101 572.038 341.101H583.609C583.693 341.101 583.759 341.134 583.809 341.201C583.876 341.251 583.91 341.318 583.91 341.401V343.831ZM585.863 352.747C585.779 352.747 585.704 352.722 585.637 352.672C585.587 352.605 585.562 352.53 585.562 352.447V350.017C585.562 349.934 585.587 349.867 585.637 349.817C585.704 349.75 585.779 349.717 585.863 349.717H594.053C594.136 349.717 594.203 349.75 594.253 349.817C594.32 349.867 594.353 349.934 594.353 350.017V352.447C594.353 352.53 594.32 352.605 594.253 352.672C594.203 352.722 594.136 352.747 594.053 352.747H585.863ZM602.623 358.833C601.287 358.833 600.118 358.624 599.117 358.207C598.115 357.773 597.338 357.163 596.787 356.379C596.253 355.577 595.986 354.651 595.986 353.599V353.048C595.986 352.964 596.011 352.897 596.061 352.847C596.128 352.78 596.203 352.747 596.286 352.747H599.142C599.225 352.747 599.292 352.78 599.342 352.847C599.409 352.897 599.442 352.964 599.442 353.048V353.423C599.442 354.091 599.751 354.659 600.369 355.126C600.987 355.577 601.821 355.803 602.873 355.803C603.758 355.803 604.418 355.619 604.852 355.252C605.286 354.868 605.503 354.4 605.503 353.849C605.503 353.448 605.37 353.114 605.102 352.847C604.835 352.563 604.468 352.321 604 352.121C603.55 351.904 602.823 351.612 601.821 351.244C600.703 350.86 599.751 350.468 598.966 350.067C598.198 349.666 597.547 349.124 597.013 348.439C596.495 347.738 596.236 346.878 596.236 345.86C596.236 344.858 596.495 343.981 597.013 343.23C597.53 342.478 598.248 341.902 599.167 341.502C600.085 341.101 601.145 340.9 602.347 340.9C603.616 340.9 604.743 341.126 605.729 341.577C606.73 342.028 607.507 342.662 608.058 343.48C608.626 344.282 608.909 345.217 608.909 346.285V346.661C608.909 346.744 608.876 346.82 608.809 346.886C608.759 346.936 608.692 346.962 608.609 346.962H605.729C605.645 346.962 605.57 346.936 605.503 346.886C605.453 346.82 605.428 346.744 605.428 346.661V346.461C605.428 345.759 605.136 345.167 604.551 344.682C603.984 344.181 603.199 343.931 602.197 343.931C601.412 343.931 600.795 344.098 600.344 344.432C599.91 344.766 599.693 345.225 599.693 345.809C599.693 346.227 599.818 346.577 600.068 346.861C600.335 347.145 600.719 347.404 601.22 347.638C601.738 347.855 602.531 348.155 603.6 348.539C604.785 348.974 605.712 349.358 606.38 349.692C607.064 350.025 607.674 350.526 608.208 351.194C608.759 351.845 609.035 352.697 609.035 353.749C609.035 355.318 608.459 356.562 607.306 357.481C606.154 358.382 604.593 358.833 602.623 358.833ZM622.653 358.633C622.486 358.633 622.377 358.549 622.327 358.382L621.576 355.928C621.542 355.861 621.501 355.828 621.45 355.828H615.289C615.239 355.828 615.197 355.861 615.164 355.928L614.438 358.382C614.388 358.549 614.279 358.633 614.112 358.633H610.931C610.831 358.633 610.756 358.608 610.706 358.558C610.656 358.491 610.647 358.399 610.681 358.282L616.091 341.351C616.141 341.184 616.249 341.101 616.416 341.101H620.348C620.515 341.101 620.624 341.184 620.674 341.351L626.084 358.282C626.101 358.316 626.109 358.357 626.109 358.407C626.109 358.558 626.017 358.633 625.833 358.633H622.653ZM616.066 352.947C616.049 353.048 616.082 353.098 616.166 353.098H620.574C620.674 353.098 620.707 353.048 620.674 352.947L618.42 345.509C618.403 345.442 618.378 345.417 618.345 345.434C618.311 345.434 618.286 345.459 618.27 345.509L616.066 352.947ZM640.458 343.831C640.458 343.914 640.424 343.989 640.357 344.056C640.307 344.106 640.24 344.131 640.157 344.131H631.967C631.884 344.131 631.842 344.173 631.842 344.257V348.139C631.842 348.222 631.884 348.264 631.967 348.264H637.352C637.435 348.264 637.502 348.297 637.552 348.364C637.619 348.414 637.652 348.481 637.652 348.564V350.994C637.652 351.077 637.619 351.153 637.552 351.219C637.502 351.269 637.435 351.294 637.352 351.294H631.967C631.884 351.294 631.842 351.336 631.842 351.42V358.332C631.842 358.416 631.808 358.491 631.742 358.558C631.692 358.608 631.625 358.633 631.541 358.633H628.611C628.527 358.633 628.452 358.608 628.386 358.558C628.335 358.491 628.31 358.416 628.31 358.332V341.401C628.31 341.318 628.335 341.251 628.386 341.201C628.452 341.134 628.527 341.101 628.611 341.101H640.157C640.24 341.101 640.307 341.134 640.357 341.201C640.424 341.251 640.458 341.318 640.458 341.401V343.831ZM654.497 343.831C654.497 343.914 654.464 343.989 654.397 344.056C654.347 344.106 654.28 344.131 654.197 344.131H645.982C645.898 344.131 645.857 344.173 645.857 344.257V348.139C645.857 348.222 645.898 348.264 645.982 348.264H651.367C651.45 348.264 651.517 348.297 651.567 348.364C651.634 348.414 651.667 348.481 651.667 348.564V350.994C651.667 351.077 651.634 351.153 651.567 351.219C651.517 351.269 651.45 351.294 651.367 351.294H645.982C645.898 351.294 645.857 351.336 645.857 351.42V355.477C645.857 355.561 645.898 355.602 645.982 355.602H654.197C654.28 355.602 654.347 355.636 654.397 355.702C654.464 355.753 654.497 355.819 654.497 355.903V358.332C654.497 358.416 654.464 358.491 654.397 358.558C654.347 358.608 654.28 358.633 654.197 358.633H642.626C642.542 358.633 642.467 358.608 642.4 358.558C642.35 358.491 642.325 358.416 642.325 358.332V341.401C642.325 341.318 642.35 341.251 642.4 341.201C642.467 341.134 642.542 341.101 642.626 341.101H654.197C654.28 341.101 654.347 341.134 654.397 341.201C654.464 341.251 654.497 341.318 654.497 341.401V343.831ZM667.976 358.833C666.641 358.833 665.472 358.624 664.47 358.207C663.468 357.773 662.692 357.163 662.141 356.379C661.607 355.577 661.339 354.651 661.339 353.599V353.048C661.339 352.964 661.364 352.897 661.414 352.847C661.481 352.78 661.556 352.747 661.64 352.747H664.495C664.579 352.747 664.645 352.78 664.695 352.847C664.762 352.897 664.796 352.964 664.796 353.048V353.423C664.796 354.091 665.105 354.659 665.722 355.126C666.34 355.577 667.175 355.803 668.227 355.803C669.112 355.803 669.771 355.619 670.206 355.252C670.64 354.868 670.857 354.4 670.857 353.849C670.857 353.448 670.723 353.114 670.456 352.847C670.189 352.563 669.821 352.321 669.354 352.121C668.903 351.904 668.177 351.612 667.175 351.244C666.056 350.86 665.105 350.468 664.32 350.067C663.552 349.666 662.901 349.124 662.366 348.439C661.849 347.738 661.59 346.878 661.59 345.86C661.59 344.858 661.849 343.981 662.366 343.23C662.884 342.478 663.602 341.902 664.52 341.502C665.438 341.101 666.499 340.9 667.701 340.9C668.97 340.9 670.097 341.126 671.082 341.577C672.084 342.028 672.86 342.662 673.411 343.48C673.979 344.282 674.263 345.217 674.263 346.285V346.661C674.263 346.744 674.23 346.82 674.163 346.886C674.113 346.936 674.046 346.962 673.962 346.962H671.082C670.999 346.962 670.924 346.936 670.857 346.886C670.807 346.82 670.782 346.744 670.782 346.661V346.461C670.782 345.759 670.489 345.167 669.905 344.682C669.337 344.181 668.553 343.931 667.551 343.931C666.766 343.931 666.148 344.098 665.697 344.432C665.263 344.766 665.046 345.225 665.046 345.809C665.046 346.227 665.171 346.577 665.422 346.861C665.689 347.145 666.073 347.404 666.574 347.638C667.092 347.855 667.885 348.155 668.953 348.539C670.139 348.974 671.065 349.358 671.733 349.692C672.418 350.025 673.027 350.526 673.562 351.194C674.113 351.845 674.388 352.697 674.388 353.749C674.388 355.318 673.812 356.562 672.66 357.481C671.508 358.382 669.947 358.833 667.976 358.833ZM682.747 340.9C684.016 340.9 685.134 341.159 686.103 341.677C687.071 342.195 687.822 342.929 688.357 343.881C688.891 344.833 689.158 345.935 689.158 347.187V352.797C689.158 354.283 688.758 355.544 687.956 356.579C687.155 357.598 686.053 358.274 684.65 358.608C684.583 358.624 684.55 358.666 684.55 358.733V360.787C684.55 360.87 684.516 360.937 684.45 360.987C684.4 361.054 684.333 361.087 684.249 361.087H681.319C681.235 361.087 681.16 361.054 681.094 360.987C681.043 360.937 681.018 360.87 681.018 360.787V358.758C681.018 358.691 680.985 358.65 680.918 358.633C679.516 358.299 678.405 357.614 677.587 356.579C676.769 355.544 676.36 354.283 676.36 352.797V347.187C676.36 345.935 676.627 344.841 677.161 343.906C677.696 342.954 678.447 342.22 679.415 341.702C680.384 341.168 681.494 340.9 682.747 340.9ZM685.627 347.012C685.627 346.093 685.36 345.35 684.825 344.783C684.308 344.215 683.615 343.931 682.747 343.931C681.895 343.931 681.202 344.215 680.668 344.783C680.15 345.35 679.891 346.093 679.891 347.012V352.722C679.891 353.64 680.15 354.383 680.668 354.951C681.202 355.519 681.895 355.803 682.747 355.803C683.615 355.803 684.308 355.519 684.825 354.951C685.36 354.383 685.627 353.64 685.627 352.722V347.012ZM692.008 358.633C691.924 358.633 691.849 358.608 691.782 358.558C691.732 358.491 691.707 358.416 691.707 358.332V341.401C691.707 341.318 691.732 341.251 691.782 341.201C691.849 341.134 691.924 341.101 692.008 341.101H694.938C695.022 341.101 695.088 341.134 695.139 341.201C695.205 341.251 695.239 341.318 695.239 341.401V355.477C695.239 355.561 695.28 355.602 695.364 355.602H703.554C703.637 355.602 703.704 355.636 703.754 355.702C703.821 355.753 703.854 355.819 703.854 355.903V358.332C703.854 358.416 703.821 358.491 703.754 358.558C703.704 358.608 703.637 358.633 703.554 358.633H692.008Z"></path>
</g>
</g>
<defs>
<filter color-interpolation-filters="sRGB" filterUnits="userSpaceOnUse" height="631.831" width="532.37" y="72.7031" x="84.3715" id="filter0_dddddd_9968_187397">
<feFlood result="BackgroundImageFix" flood-opacity="0"></feFlood>
<feColorMatrix result="hardAlpha" values="0 0 0 0 0 0 0 0 0 0 0 0 0 0 0 0 0 0 127 0" type="matrix" in="SourceAlpha"></feColorMatrix>
<feOffset dy="4.83398"></feOffset>
<feGaussianBlur stdDeviation="1.93359"></feGaussianBlur>
<feColorMatrix values="0 0 0 0 0.235294 0 0 0 0 0.219608 0 0 0 0 0.643137 0 0 0 0.11527 0" type="matrix"></feColorMatrix>
<feBlend result="effect1_dropShadow_9968_187397" in2="BackgroundImageFix" mode="normal"></feBlend>
<feColorMatrix result="hardAlpha" values="0 0 0 0 0 0 0 0 0 0 0 0 0 0 0 0 0 0 127 0" type="matrix" in="SourceAlpha"></feColorMatrix>
<feOffset dy="11.6167"></feOffset>
<feGaussianBlur stdDeviation="4.64669"></feGaussianBlur>
<feColorMatrix values="0 0 0 0 0.235294 0 0 0 0 0.219608 0 0 0 0 0.643137 0 0 0 0.165596 0" type="matrix"></feColorMatrix>
<feBlend result="effect2_dropShadow_9968_187397" in2="effect1_dropShadow_9968_187397" mode="normal"></feBlend>
<feColorMatrix result="hardAlpha" values="0 0 0 0 0 0 0 0 0 0 0 0 0 0 0 0 0 0 127 0" type="matrix" in="SourceAlpha"></feColorMatrix>
<feOffset dy="21.8733"></feOffset>
<feGaussianBlur stdDeviation="8.74931"></feGaussianBlur>
<feColorMatrix values="0 0 0 0 0.235294 0 0 0 0 0.219608 0 0 0 0 0.643137 0 0 0 0.205 0" type="matrix"></feColorMatrix>
<feBlend result="effect3_dropShadow_9968_187397" in2="effect2_dropShadow_9968_187397" mode="normal"></feBlend>
<feColorMatrix result="hardAlpha" values="0 0 0 0 0 0 0 0 0 0 0 0 0 0 0 0 0 0 127 0" type="matrix" in="SourceAlpha"></feColorMatrix>
<feOffset dy="39.0182"></feOffset>
<feGaussianBlur stdDeviation="15.6073"></feGaussianBlur>
<feColorMatrix values="0 0 0 0 0.235294 0 0 0 0 0.219608 0 0 0 0 0.643137 0 0 0 0.244404 0" type="matrix"></feColorMatrix>
<feBlend result="effect4_dropShadow_9968_187397" in2="effect3_dropShadow_9968_187397" mode="normal"></feBlend>
<feColorMatrix result="hardAlpha" values="0 0 0 0 0 0 0 0 0 0 0 0 0 0 0 0 0 0 127 0" type="matrix" in="SourceAlpha"></feColorMatrix>
<feOffset dy="72.9792"></feOffset>
<feGaussianBlur stdDeviation="29.1917"></feGaussianBlur>
<feColorMatrix values="0 0 0 0 0.235294 0 0 0 0 0.219608 0 0 0 0 0.643137 0 0 0 0.29473 0" type="matrix"></feColorMatrix>
<feBlend result="effect5_dropShadow_9968_187397" in2="effect4_dropShadow_9968_187397" mode="normal"></feBlend>
<feColorMatrix result="hardAlpha" values="0 0 0 0 0 0 0 0 0 0 0 0 0 0 0 0 0 0 127 0" type="matrix" in="SourceAlpha"></feColorMatrix>
<feOffset dy="174.685"></feOffset>
<feGaussianBlur stdDeviation="69.874"></feGaussianBlur>
<feColorMatrix values="0 0 0 0 0.235294 0 0 0 0 0.219608 0 0 0 0 0.643137 0 0 0 0.41 0" type="matrix"></feColorMatrix>
<feBlend result="effect6_dropShadow_9968_187397" in2="effect5_dropShadow_9968_187397" mode="normal"></feBlend>
<feBlend result="shape" in2="effect6_dropShadow_9968_187397" in="SourceGraphic" mode="normal"></feBlend>
</filter>
<filter color-interpolation-filters="sRGB" filterUnits="userSpaceOnUse" height="330.256" width="308.671" y="238.773" x="36.97" id="filter1_dddddd_9968_187397">
<feFlood result="BackgroundImageFix" flood-opacity="0"></feFlood>
<feColorMatrix result="hardAlpha" values="0 0 0 0 0 0 0 0 0 0 0 0 0 0 0 0 0 0 127 0" type="matrix" in="SourceAlpha"></feColorMatrix>
<feOffset dy="2.95015"></feOffset>
<feGaussianBlur stdDeviation="1.18006"></feGaussianBlur>
<feColorMatrix values="0 0 0 0 0.235294 0 0 0 0 0.219608 0 0 0 0 0.643137 0 0 0 0.11527 0" type="matrix"></feColorMatrix>
<feBlend result="effect1_dropShadow_9968_187397" in2="BackgroundImageFix" mode="normal"></feBlend>
<feColorMatrix result="hardAlpha" values="0 0 0 0 0 0 0 0 0 0 0 0 0 0 0 0 0 0 127 0" type="matrix" in="SourceAlpha"></feColorMatrix>
<feOffset dy="7.08962"></feOffset>
<feGaussianBlur stdDeviation="2.83585"></feGaussianBlur>
<feColorMatrix values="0 0 0 0 0.235294 0 0 0 0 0.219608 0 0 0 0 0.643137 0 0 0 0.165596 0" type="matrix"></feColorMatrix>
<feBlend result="effect2_dropShadow_9968_187397" in2="effect1_dropShadow_9968_187397" mode="normal"></feBlend>
<feColorMatrix result="hardAlpha" values="0 0 0 0 0 0 0 0 0 0 0 0 0 0 0 0 0 0 127 0" type="matrix" in="SourceAlpha"></feColorMatrix>
<feOffset dy="13.3491"></feOffset>
<feGaussianBlur stdDeviation="5.33965"></feGaussianBlur>
<feColorMatrix values="0 0 0 0 0.235294 0 0 0 0 0.219608 0 0 0 0 0.643137 0 0 0 0.205 0" type="matrix"></feColorMatrix>
<feBlend result="effect3_dropShadow_9968_187397" in2="effect2_dropShadow_9968_187397" mode="normal"></feBlend>
<feColorMatrix result="hardAlpha" values="0 0 0 0 0 0 0 0 0 0 0 0 0 0 0 0 0 0 127 0" type="matrix" in="SourceAlpha"></feColorMatrix>
<feOffset dy="23.8126"></feOffset>
<feGaussianBlur stdDeviation="9.52502"></feGaussianBlur>
<feColorMatrix values="0 0 0 0 0.235294 0 0 0 0 0.219608 0 0 0 0 0.643137 0 0 0 0.244404 0" type="matrix"></feColorMatrix>
<feBlend result="effect4_dropShadow_9968_187397" in2="effect3_dropShadow_9968_187397" mode="normal"></feBlend>
<feColorMatrix result="hardAlpha" values="0 0 0 0 0 0 0 0 0 0 0 0 0 0 0 0 0 0 127 0" type="matrix" in="SourceAlpha"></feColorMatrix>
<feOffset dy="44.5388"></feOffset>
<feGaussianBlur stdDeviation="17.8155"></feGaussianBlur>
<feColorMatrix values="0 0 0 0 0.235294 0 0 0 0 0.219608 0 0 0 0 0.643137 0 0 0 0.29473 0" type="matrix"></feColorMatrix>
<feBlend result="effect5_dropShadow_9968_187397" in2="effect4_dropShadow_9968_187397" mode="normal"></feBlend>
<feColorMatrix result="hardAlpha" values="0 0 0 0 0 0 0 0 0 0 0 0 0 0 0 0 0 0 127 0" type="matrix" in="SourceAlpha"></feColorMatrix>
<feOffset dy="106.609"></feOffset>
<feGaussianBlur stdDeviation="42.6437"></feGaussianBlur>
<feColorMatrix values="0 0 0 0 0.235294 0 0 0 0 0.219608 0 0 0 0 0.643137 0 0 0 0.41 0" type="matrix"></feColorMatrix>
<feBlend result="effect6_dropShadow_9968_187397" in2="effect5_dropShadow_9968_187397" mode="normal"></feBlend>
<feBlend result="shape" in2="effect6_dropShadow_9968_187397" in="SourceGraphic" mode="normal"></feBlend>
</filter>
<filter color-interpolation-filters="sRGB" filterUnits="userSpaceOnUse" height="182.74" width="162.562" y="79" x="457.719" id="filter2_dddddd_9968_187397">
<feFlood result="BackgroundImageFix" flood-opacity="0"></feFlood>
<feColorMatrix result="hardAlpha" values="0 0 0 0 0 0 0 0 0 0 0 0 0 0 0 0 0 0 127 0" type="matrix" in="SourceAlpha"></feColorMatrix>
<feOffset dy="1.59522"></feOffset>
<feGaussianBlur stdDeviation="0.638087"></feGaussianBlur>
<feColorMatrix values="0 0 0 0 0.235294 0 0 0 0 0.219608 0 0 0 0 0.643137 0 0 0 0.11527 0" type="matrix"></feColorMatrix>
<feBlend result="effect1_dropShadow_9968_187397" in2="BackgroundImageFix" mode="normal"></feBlend>
<feColorMatrix result="hardAlpha" values="0 0 0 0 0 0 0 0 0 0 0 0 0 0 0 0 0 0 127 0" type="matrix" in="SourceAlpha"></feColorMatrix>
<feOffset dy="3.83353"></feOffset>
<feGaussianBlur stdDeviation="1.53341"></feGaussianBlur>
<feColorMatrix values="0 0 0 0 0.235294 0 0 0 0 0.219608 0 0 0 0 0.643137 0 0 0 0.165596 0" type="matrix"></feColorMatrix>
<feBlend result="effect2_dropShadow_9968_187397" in2="effect1_dropShadow_9968_187397" mode="normal"></feBlend>
<feColorMatrix result="hardAlpha" values="0 0 0 0 0 0 0 0 0 0 0 0 0 0 0 0 0 0 127 0" type="matrix" in="SourceAlpha"></feColorMatrix>
<feOffset dy="7.2182"></feOffset>
<feGaussianBlur stdDeviation="2.88728"></feGaussianBlur>
<feColorMatrix values="0 0 0 0 0.235294 0 0 0 0 0.219608 0 0 0 0 0.643137 0 0 0 0.205 0" type="matrix"></feColorMatrix>
<feBlend result="effect3_dropShadow_9968_187397" in2="effect2_dropShadow_9968_187397" mode="normal"></feBlend>
<feColorMatrix result="hardAlpha" values="0 0 0 0 0 0 0 0 0 0 0 0 0 0 0 0 0 0 127 0" type="matrix" in="SourceAlpha"></feColorMatrix>
<feOffset dy="12.876"></feOffset>
<feGaussianBlur stdDeviation="5.15041"></feGaussianBlur>
<feColorMatrix values="0 0 0 0 0.235294 0 0 0 0 0.219608 0 0 0 0 0.643137 0 0 0 0.244404 0" type="matrix"></feColorMatrix>
<feBlend result="effect4_dropShadow_9968_187397" in2="effect3_dropShadow_9968_187397" mode="normal"></feBlend>
<feColorMatrix result="hardAlpha" values="0 0 0 0 0 0 0 0 0 0 0 0 0 0 0 0 0 0 127 0" type="matrix" in="SourceAlpha"></feColorMatrix>
<feOffset dy="24.0832"></feOffset>
<feGaussianBlur stdDeviation="9.63328"></feGaussianBlur>
<feColorMatrix values="0 0 0 0 0.235294 0 0 0 0 0.219608 0 0 0 0 0.643137 0 0 0 0.29473 0" type="matrix"></feColorMatrix>
<feBlend result="effect5_dropShadow_9968_187397" in2="effect4_dropShadow_9968_187397" mode="normal"></feBlend>
<feColorMatrix result="hardAlpha" values="0 0 0 0 0 0 0 0 0 0 0 0 0 0 0 0 0 0 127 0" type="matrix" in="SourceAlpha"></feColorMatrix>
<feOffset dy="57.6462"></feOffset>
<feGaussianBlur stdDeviation="23.0585"></feGaussianBlur>
<feColorMatrix values="0 0 0 0 0.235294 0 0 0 0 0.219608 0 0 0 0 0.643137 0 0 0 0.41 0" type="matrix"></feColorMatrix>
<feBlend result="effect6_dropShadow_9968_187397" in2="effect5_dropShadow_9968_187397" mode="normal"></feBlend>
<feBlend result="shape" in2="effect6_dropShadow_9968_187397" in="SourceGraphic" mode="normal"></feBlend>
</filter>
<filter color-interpolation-filters="sRGB" filterUnits="userSpaceOnUse" height="238.353" width="406.663" y="171.176" x="411.472" id="filter3_dddddd_9968_187397">
<feFlood result="BackgroundImageFix" flood-opacity="0"></feFlood>
<feColorMatrix result="hardAlpha" values="0 0 0 0 0 0 0 0 0 0 0 0 0 0 0 0 0 0 127 0" type="matrix" in="SourceAlpha"></feColorMatrix>
<feOffset dy="0.287544"></feOffset>
<feGaussianBlur stdDeviation="1.27797"></feGaussianBlur>
<feColorMatrix values="0 0 0 0 0.188235 0 0 0 0 0.34902 0 0 0 0 0.909804 0 0 0 0.106835 0" type="matrix"></feColorMatrix>
<feBlend result="effect1_dropShadow_9968_187397" in2="BackgroundImageFix" mode="normal"></feBlend>
<feColorMatrix result="hardAlpha" values="0 0 0 0 0 0 0 0 0 0 0 0 0 0 0 0 0 0 127 0" type="matrix" in="SourceAlpha"></feColorMatrix>
<feOffset dy="0.691008"></feOffset>
<feGaussianBlur stdDeviation="3.07115"></feGaussianBlur>
<feColorMatrix values="0 0 0 0 0.188235 0 0 0 0 0.34902 0 0 0 0 0.909804 0 0 0 0.153479 0" type="matrix"></feColorMatrix>
<feBlend result="effect2_dropShadow_9968_187397" in2="effect1_dropShadow_9968_187397" mode="normal"></feBlend>
<feColorMatrix result="hardAlpha" values="0 0 0 0 0 0 0 0 0 0 0 0 0 0 0 0 0 0 127 0" type="matrix" in="SourceAlpha"></feColorMatrix>
<feOffset dy="1.30111"></feOffset>
<feGaussianBlur stdDeviation="5.78269"></feGaussianBlur>
<feColorMatrix values="0 0 0 0 0.188235 0 0 0 0 0.34902 0 0 0 0 0.909804 0 0 0 0.19 0" type="matrix"></feColorMatrix>
<feBlend result="effect3_dropShadow_9968_187397" in2="effect2_dropShadow_9968_187397" mode="normal"></feBlend>
<feColorMatrix result="hardAlpha" values="0 0 0 0 0 0 0 0 0 0 0 0 0 0 0 0 0 0 127 0" type="matrix" in="SourceAlpha"></feColorMatrix>
<feOffset dy="2.32095"></feOffset>
<feGaussianBlur stdDeviation="10.3153"></feGaussianBlur>
<feColorMatrix values="0 0 0 0 0.188235 0 0 0 0 0.34902 0 0 0 0 0.909804 0 0 0 0.226521 0" type="matrix"></feColorMatrix>
<feBlend result="effect4_dropShadow_9968_187397" in2="effect3_dropShadow_9968_187397" mode="normal"></feBlend>
<feColorMatrix result="hardAlpha" values="0 0 0 0 0 0 0 0 0 0 0 0 0 0 0 0 0 0 127 0" type="matrix" in="SourceAlpha"></feColorMatrix>
<feOffset dy="4.34108"></feOffset>
<feGaussianBlur stdDeviation="19.2937"></feGaussianBlur>
<feColorMatrix values="0 0 0 0 0.188235 0 0 0 0 0.34902 0 0 0 0 0.909804 0 0 0 0.273165 0" type="matrix"></feColorMatrix>
<feBlend result="effect5_dropShadow_9968_187397" in2="effect4_dropShadow_9968_187397" mode="normal"></feBlend>
<feColorMatrix result="hardAlpha" values="0 0 0 0 0 0 0 0 0 0 0 0 0 0 0 0 0 0 127 0" type="matrix" in="SourceAlpha"></feColorMatrix>
<feOffset dy="10.3909"></feOffset>
<feGaussianBlur stdDeviation="46.1819"></feGaussianBlur>
<feColorMatrix values="0 0 0 0 0.188235 0 0 0 0 0.34902 0 0 0 0 0.909804 0 0 0 0.38 0" type="matrix"></feColorMatrix>
<feBlend result="effect6_dropShadow_9968_187397" in2="effect5_dropShadow_9968_187397" mode="normal"></feBlend>
<feBlend result="shape" in2="effect6_dropShadow_9968_187397" in="SourceGraphic" mode="normal"></feBlend>
</filter>
<filter color-interpolation-filters="sRGB" filterUnits="userSpaceOnUse" height="238.353" width="407.663" y="239.347" x="411.472" id="filter4_dddddd_9968_187397">
<feFlood result="BackgroundImageFix" flood-opacity="0"></feFlood>
<feColorMatrix result="hardAlpha" values="0 0 0 0 0 0 0 0 0 0 0 0 0 0 0 0 0 0 127 0" type="matrix" in="SourceAlpha"></feColorMatrix>
<feOffset dy="0.287544"></feOffset>
<feGaussianBlur stdDeviation="1.27797"></feGaussianBlur>
<feColorMatrix values="0 0 0 0 0.188235 0 0 0 0 0.34902 0 0 0 0 0.909804 0 0 0 0.106835 0" type="matrix"></feColorMatrix>
<feBlend result="effect1_dropShadow_9968_187397" in2="BackgroundImageFix" mode="normal"></feBlend>
<feColorMatrix result="hardAlpha" values="0 0 0 0 0 0 0 0 0 0 0 0 0 0 0 0 0 0 127 0" type="matrix" in="SourceAlpha"></feColorMatrix>
<feOffset dy="0.691008"></feOffset>
<feGaussianBlur stdDeviation="3.07115"></feGaussianBlur>
<feColorMatrix values="0 0 0 0 0.188235 0 0 0 0 0.34902 0 0 0 0 0.909804 0 0 0 0.153479 0" type="matrix"></feColorMatrix>
<feBlend result="effect2_dropShadow_9968_187397" in2="effect1_dropShadow_9968_187397" mode="normal"></feBlend>
<feColorMatrix result="hardAlpha" values="0 0 0 0 0 0 0 0 0 0 0 0 0 0 0 0 0 0 127 0" type="matrix" in="SourceAlpha"></feColorMatrix>
<feOffset dy="1.30111"></feOffset>
<feGaussianBlur stdDeviation="5.78269"></feGaussianBlur>
<feColorMatrix values="0 0 0 0 0.188235 0 0 0 0 0.34902 0 0 0 0 0.909804 0 0 0 0.19 0" type="matrix"></feColorMatrix>
<feBlend result="effect3_dropShadow_9968_187397" in2="effect2_dropShadow_9968_187397" mode="normal"></feBlend>
<feColorMatrix result="hardAlpha" values="0 0 0 0 0 0 0 0 0 0 0 0 0 0 0 0 0 0 127 0" type="matrix" in="SourceAlpha"></feColorMatrix>
<feOffset dy="2.32095"></feOffset>
<feGaussianBlur stdDeviation="10.3153"></feGaussianBlur>
<feColorMatrix values="0 0 0 0 0.188235 0 0 0 0 0.34902 0 0 0 0 0.909804 0 0 0 0.226521 0" type="matrix"></feColorMatrix>
<feBlend result="effect4_dropShadow_9968_187397" in2="effect3_dropShadow_9968_187397" mode="normal"></feBlend>
<feColorMatrix result="hardAlpha" values="0 0 0 0 0 0 0 0 0 0 0 0 0 0 0 0 0 0 127 0" type="matrix" in="SourceAlpha"></feColorMatrix>
<feOffset dy="4.34108"></feOffset>
<feGaussianBlur stdDeviation="19.2937"></feGaussianBlur>
<feColorMatrix values="0 0 0 0 0.188235 0 0 0 0 0.34902 0 0 0 0 0.909804 0 0 0 0.273165 0" type="matrix"></feColorMatrix>
<feBlend result="effect5_dropShadow_9968_187397" in2="effect4_dropShadow_9968_187397" mode="normal"></feBlend>
<feColorMatrix result="hardAlpha" values="0 0 0 0 0 0 0 0 0 0 0 0 0 0 0 0 0 0 127 0" type="matrix" in="SourceAlpha"></feColorMatrix>
<feOffset dy="10.3909"></feOffset>
<feGaussianBlur stdDeviation="46.1819"></feGaussianBlur>
<feColorMatrix values="0 0 0 0 0.188235 0 0 0 0 0.34902 0 0 0 0 0.909804 0 0 0 0.38 0" type="matrix"></feColorMatrix>
<feBlend result="effect6_dropShadow_9968_187397" in2="effect5_dropShadow_9968_187397" mode="normal"></feBlend>
<feBlend result="shape" in2="effect6_dropShadow_9968_187397" in="SourceGraphic" mode="normal"></feBlend>
</filter>
<linearGradient gradientUnits="userSpaceOnUse" y2="474" x2="422" y1="0" x1="422" id="paint0_linear_9968_187397">
<stop stop-color="#434190"></stop>
<stop stop-color="#090A15" offset="1"></stop>
</linearGradient>
<clipPath id="clip0_9968_187397">
<rect fill="white" height="474" width="844"></rect>
</clipPath>
</defs>
</svg>
