<svg xmlns="http://www.w3.org/2000/svg" fill="none" viewBox="0 0 844 474" height="474" width="844">
<g clip-path="url(#clip0_10415_301309)">
<rect fill="url(#paint0_linear_10415_301309)" height="474" width="844"></rect>
<rect fill="url(#paint1_radial_10415_301309)" height="474" width="844"></rect>
<rect fill="url(#paint2_radial_10415_301309)" height="474" width="844"></rect>
<ellipse fill-opacity="0.45" fill="#0D0E26" ry="31.4886" rx="102.521" cy="422.215" cx="146.521"></ellipse>
<path fill-opacity="0.38" fill="url(#paint3_radial_10415_301309)" d="M-161 332.984L-161 100.984L701 100.984L644.149 332.984L-161 332.984Z"></path>
<rect fill-opacity="0.38" fill="url(#paint4_linear_10415_301309)" transform="rotate(-90 100 313.984)" height="581" width="21" y="313.984" x="100"></rect>
<rect fill-opacity="0.38" fill="url(#paint5_linear_10415_301309)" transform="rotate(-90 100 172.984)" height="581" width="12" y="172.984" x="100"></rect>
<rect fill-opacity="0.38" fill="url(#paint6_linear_10415_301309)" transform="rotate(-90 100 280.984)" height="581" width="5.99999" y="280.984" x="100"></rect>
<rect fill-opacity="0.38" fill="url(#paint7_linear_10415_301309)" transform="rotate(-90 100 136.984)" height="610" width="25" y="136.984" x="100"></rect>
<path fill-opacity="0.1" fill="#3178C6" d="M205.682 92.6735L79.3336 180.609C70.8651 186.503 68.7779 198.146 74.6718 206.615L162.608 332.963C168.502 341.432 180.145 343.519 188.613 337.625L314.962 249.689C323.43 243.795 325.517 232.152 319.623 223.684L231.687 97.3352C225.794 88.8667 214.151 86.7796 205.682 92.6735Z"></path>
<path fill-opacity="0.1" fill="#3178C6" d="M250.977 92.6735L124.629 180.609C116.16 186.503 114.073 198.146 119.967 206.615L207.903 332.963C213.797 341.432 225.44 343.519 233.908 337.625L360.257 249.689C368.725 243.795 370.812 232.152 364.919 223.684L276.983 97.3352C271.089 88.8667 259.446 86.7796 250.977 92.6735Z"></path>
<path fill-opacity="0.1" fill="#3178C6" d="M296.272 92.6735L169.924 180.609C161.455 186.503 159.368 198.146 165.262 206.615L253.198 332.963C259.092 341.432 270.735 343.519 279.204 337.625L405.552 249.689C414.021 243.795 416.108 232.152 410.214 223.684L322.278 97.3352C316.384 88.8667 304.741 86.7796 296.272 92.6735Z"></path>
<path fill-opacity="0.1" fill="#3178C6" d="M341.568 92.6735L215.219 180.609C206.751 186.503 204.664 198.146 210.557 206.615L298.493 332.963C304.387 341.432 316.03 343.519 324.499 337.625L450.847 249.689C459.316 243.795 461.403 232.152 455.509 223.684L367.573 97.3352C361.679 88.8667 350.036 86.7796 341.568 92.6735Z"></path>
<path fill-opacity="0.1" fill="#3178C6" d="M386.863 92.6735L260.514 180.609C252.046 186.503 249.959 198.146 255.853 206.615L343.789 332.963C349.682 341.432 361.325 343.519 369.794 337.625L496.142 249.689C504.611 243.795 506.698 232.152 500.804 223.684L412.868 97.3352C406.974 88.8667 395.331 86.7796 386.863 92.6735Z"></path>
<path fill-opacity="0.1" fill="#3178C6" d="M432.158 92.6735L305.81 180.609C297.341 186.503 295.254 198.146 301.148 206.615L389.084 332.963C394.978 341.432 406.621 343.519 415.089 337.625L541.438 249.689C549.906 243.795 551.993 232.152 546.099 223.684L458.163 97.3352C452.27 88.8667 440.626 86.7796 432.158 92.6735Z"></path>
<path fill-opacity="0.1" fill="#3178C6" d="M477.453 92.6735L351.105 180.609C342.636 186.503 340.549 198.146 346.443 206.615L434.379 332.963C440.273 341.432 451.916 343.519 460.384 337.625L586.733 249.689C595.201 243.795 597.288 232.152 591.395 223.684L503.459 97.3352C497.565 88.8667 485.922 86.7796 477.453 92.6735Z"></path>
<path fill-opacity="0.1" fill="#3178C6" d="M522.748 92.6735L396.4 180.609C387.931 186.503 385.844 198.146 391.738 206.615L479.674 332.963C485.568 341.432 497.211 343.519 505.68 337.625L632.028 249.689C640.497 243.795 642.584 232.152 636.69 223.684L548.754 97.3352C542.86 88.8667 531.217 86.7796 522.748 92.6735Z"></path>
<path fill-opacity="0.1" fill="#3178C6" d="M568.044 92.6735L441.695 180.609C433.227 186.503 431.14 198.146 437.033 206.615L524.969 332.963C530.863 341.432 542.506 343.519 550.975 337.625L677.323 249.689C685.792 243.795 687.879 232.152 681.985 223.684L594.049 97.3352C588.155 88.8667 576.512 86.7796 568.044 92.6735Z"></path>
<path fill-opacity="0.1" fill="#3178C6" d="M613.339 92.6735L486.99 180.609C478.522 186.503 476.435 198.146 482.329 206.615L570.264 332.963C576.158 341.432 587.801 343.519 596.27 337.625L722.618 249.689C731.087 243.795 733.174 232.152 727.28 223.684L639.344 97.3352C633.45 88.8667 621.807 86.7796 613.339 92.6735Z"></path>
<path fill-opacity="0.1" fill="#3178C6" d="M658.634 92.6735L532.286 180.609C523.817 186.503 521.73 198.146 527.624 206.615L615.56 332.963C621.454 341.432 633.097 343.519 641.565 337.625L767.914 249.689C776.382 243.795 778.469 232.152 772.575 223.684L684.639 97.3352C678.746 88.8667 667.103 86.7796 658.634 92.6735Z"></path>
<path fill-opacity="0.1" fill="#3178C6" d="M703.929 92.6735L577.581 180.609C569.112 186.503 567.025 198.146 572.919 206.615L660.855 332.963C666.749 341.432 678.392 343.519 686.86 337.625L813.209 249.689C821.677 243.795 823.764 232.152 817.871 223.684L729.935 97.3352C724.041 88.8667 712.398 86.7796 703.929 92.6735Z"></path>
<g clip-path="url(#clip1_10415_301309)">
<path fill="#3178C6" d="M695.66 92.6579L569.312 180.594C560.843 186.488 558.756 198.131 564.65 206.599L652.586 332.948C658.48 341.416 670.123 343.503 678.591 337.609L804.94 249.673C813.408 243.78 815.496 232.137 809.602 223.668L721.666 97.3196C715.772 88.8511 704.129 86.764 695.66 92.6579Z"></path>
<path fill="#3178C6" d="M695.66 92.6579L569.312 180.594C560.843 186.488 558.756 198.131 564.65 206.599L652.586 332.948C658.48 341.416 670.123 343.503 678.591 337.609L804.94 249.673C813.408 243.78 815.496 232.137 809.602 223.668L721.666 97.3196C715.772 88.8511 704.129 86.764 695.66 92.6579Z"></path>
<path fill="white" d="M738.135 248.551L748.82 263.904C752.206 263.446 755.825 262.351 759.678 260.619C763.531 258.887 767.345 256.707 771.121 254.079C774.801 251.518 778.051 248.734 780.873 245.725C783.695 242.717 785.792 239.536 787.164 236.184C788.535 232.832 789.042 229.346 788.683 225.726C788.325 222.106 786.81 218.377 784.139 214.539C782.203 211.756 780.09 209.607 777.8 208.091C775.51 206.576 773.013 205.548 770.31 205.008C767.607 204.468 764.709 204.312 761.615 204.543C758.522 204.773 755.199 205.27 751.646 206.034C749.051 206.605 746.681 207.055 744.536 207.385C742.391 207.715 740.474 207.862 738.787 207.826C737.099 207.79 735.634 207.527 734.392 207.039C733.15 206.55 732.128 205.731 731.326 204.579C730.592 203.524 730.202 202.383 730.156 201.157C730.11 199.93 730.371 198.669 730.94 197.37C731.509 196.072 732.397 194.754 733.603 193.417C734.809 192.078 736.292 190.797 738.052 189.573C739.332 188.682 740.75 187.837 742.308 187.038C743.865 186.239 745.503 185.538 747.221 184.935C748.939 184.333 750.69 183.863 752.472 183.524C754.255 183.185 756.001 183.015 757.709 183.013L747.726 168.668C744.767 169.398 741.753 170.51 738.685 172.005C735.617 173.499 732.29 175.494 728.707 177.988C725.059 180.527 721.876 183.324 719.158 186.379C716.44 189.434 714.419 192.655 713.097 196.045C711.775 199.434 711.29 202.916 711.642 206.493C711.994 210.07 713.416 213.649 715.91 217.232C719.093 221.805 723.128 224.789 728.017 226.182C732.904 227.575 738.815 227.521 745.749 226.018C748.462 225.412 751.019 224.89 753.422 224.452C755.825 224.015 758.002 223.781 759.952 223.753C761.904 223.724 763.63 223.97 765.133 224.491C766.636 225.012 767.854 225.944 768.789 227.288C769.479 228.279 769.879 229.366 769.989 230.547C770.099 231.729 769.883 232.971 769.341 234.274C768.8 235.577 767.923 236.911 766.712 238.276C765.501 239.641 763.92 241.003 761.968 242.361C758.64 244.677 754.938 246.387 750.862 247.491C746.786 248.595 742.544 248.949 738.135 248.551ZM686 228.688L705.694 214.982L696.926 202.383L642.032 240.588L650.8 253.187L670.398 239.547L709.44 295.642L725.041 284.784L686 228.688Z" clip-rule="evenodd" fill-rule="evenodd"></path>
</g>
<g filter="url(#filter0_dddddd_10415_301309)">
<path fill="#3178C6" d="M695.66 92.6579L569.312 180.594C560.843 186.488 558.756 198.131 564.65 206.599L652.586 332.948C658.48 341.416 670.123 343.503 678.591 337.609L804.94 249.673C813.408 243.78 815.496 232.137 809.602 223.668L721.666 97.3196C715.772 88.8511 704.129 86.764 695.66 92.6579Z"></path>
<path stroke-width="5" stroke="#07092B" fill="#3178C6" d="M694.232 90.6059L567.884 178.542C558.282 185.224 555.916 198.426 562.598 208.027L650.534 334.376C657.217 343.978 670.418 346.344 680.02 339.661L806.368 251.725C815.97 245.043 818.336 231.842 811.654 222.24L723.718 95.8915C717.035 86.2897 703.834 83.9233 694.232 90.6059Z"></path>
<path fill="white" d="M738.135 248.551L748.82 263.904C752.206 263.446 755.825 262.351 759.678 260.619C763.531 258.887 767.345 256.707 771.121 254.079C774.801 251.518 778.051 248.734 780.873 245.725C783.695 242.717 785.792 239.536 787.164 236.184C788.535 232.832 789.042 229.346 788.683 225.726C788.325 222.106 786.81 218.377 784.139 214.539C782.203 211.756 780.09 209.607 777.8 208.091C775.51 206.576 773.013 205.548 770.31 205.008C767.607 204.468 764.709 204.312 761.615 204.543C758.522 204.773 755.199 205.27 751.646 206.034C749.051 206.605 746.681 207.055 744.536 207.385C742.391 207.715 740.474 207.862 738.787 207.826C737.099 207.79 735.634 207.527 734.392 207.039C733.15 206.55 732.128 205.731 731.326 204.579C730.592 203.524 730.202 202.383 730.156 201.157C730.11 199.93 730.371 198.669 730.94 197.37C731.509 196.072 732.397 194.754 733.603 193.417C734.809 192.078 736.292 190.797 738.052 189.573C739.332 188.682 740.75 187.837 742.308 187.038C743.865 186.239 745.503 185.538 747.221 184.935C748.939 184.333 750.69 183.863 752.472 183.524C754.255 183.185 756.001 183.015 757.709 183.013L747.726 168.668C744.767 169.398 741.753 170.51 738.685 172.005C735.617 173.499 732.29 175.494 728.707 177.988C725.059 180.527 721.876 183.324 719.158 186.379C716.44 189.434 714.419 192.655 713.097 196.045C711.775 199.434 711.29 202.916 711.642 206.493C711.994 210.07 713.416 213.649 715.91 217.232C719.093 221.805 723.128 224.789 728.017 226.182C732.904 227.575 738.815 227.521 745.749 226.018C748.462 225.412 751.019 224.89 753.422 224.452C755.825 224.015 758.002 223.781 759.952 223.753C761.904 223.724 763.63 223.97 765.133 224.491C766.636 225.012 767.854 225.944 768.789 227.288C769.479 228.279 769.879 229.366 769.989 230.547C770.099 231.729 769.883 232.971 769.341 234.274C768.8 235.577 767.923 236.911 766.712 238.276C765.501 239.641 763.92 241.003 761.968 242.361C758.64 244.677 754.938 246.387 750.862 247.491C746.786 248.595 742.544 248.949 738.135 248.551ZM686 228.688L705.694 214.982L696.926 202.383L642.032 240.588L650.8 253.187L670.398 239.547L709.44 295.642L725.041 284.784L686 228.688Z" clip-rule="evenodd" fill-rule="evenodd"></path>
</g>
<g filter="url(#filter1_dddddd_10415_301309)">
<path fill="white" d="M87.0169 135.522C86.7369 135.662 86.7369 135.802 87.0169 135.942C91.2632 138.182 93.3863 141.915 93.3863 147.141C93.3863 151.808 91.7765 155.284 88.5568 157.57C85.3371 159.857 81.1141 161 75.8879 161H57.2696C57.0363 161 56.8263 160.93 56.6397 160.79C56.4997 160.603 56.4297 160.393 56.4297 160.16V112.844C56.4297 112.611 56.4997 112.424 56.6397 112.284C56.8263 112.098 57.0363 112.004 57.2696 112.004H75.328C81.0208 112.004 85.3137 113.078 88.2068 115.224C91.1465 117.371 92.6164 120.847 92.6164 125.653C92.6164 130.226 90.7499 133.516 87.0169 135.522ZM68.3986 121.944C68.1653 121.944 68.0486 122.06 68.0486 122.294V131.113C68.0486 131.346 68.1653 131.463 68.3986 131.463H75.328C77.2411 131.463 78.711 131.066 79.7376 130.273C80.7641 129.433 81.2774 128.266 81.2774 126.773C81.2774 125.233 80.7641 124.043 79.7376 123.203C78.711 122.364 77.2411 121.944 75.328 121.944H68.3986ZM75.8879 150.991C77.7544 150.991 79.2009 150.571 80.2275 149.731C81.2541 148.844 81.7674 147.585 81.7674 145.951C81.7674 144.365 81.2541 143.152 80.2275 142.312C79.2476 141.425 77.8011 140.982 75.8879 140.982H68.3986C68.1653 140.982 68.0486 141.098 68.0486 141.332V150.641C68.0486 150.874 68.1653 150.991 68.3986 150.991H75.8879ZM114.328 161.56C110.128 161.56 106.558 160.44 103.619 158.2C100.679 155.96 98.719 152.927 97.7391 149.101C97.1791 147.188 96.8991 145.088 96.8991 142.802C96.8991 140.235 97.2024 137.972 97.809 136.012C98.8823 132.326 100.865 129.456 103.759 127.403C106.698 125.303 110.245 124.253 114.398 124.253C118.504 124.253 121.98 125.303 124.827 127.403C127.673 129.456 129.656 132.303 130.776 135.942C131.429 138.042 131.756 140.282 131.756 142.662C131.756 144.808 131.499 146.861 130.986 148.821C130.006 152.741 128.046 155.844 125.107 158.13C122.167 160.417 118.574 161.56 114.328 161.56ZM114.328 151.621C115.681 151.621 116.801 151.201 117.687 150.361C118.574 149.474 119.227 148.284 119.647 146.791C119.927 145.578 120.067 144.248 120.067 142.802C120.067 141.402 119.904 140.049 119.577 138.742C119.204 137.295 118.574 136.176 117.687 135.382C116.801 134.589 115.681 134.192 114.328 134.192C111.621 134.192 109.848 135.709 109.008 138.742C108.728 139.862 108.588 141.215 108.588 142.802C108.588 144.248 108.728 145.578 109.008 146.791C109.381 148.284 110.011 149.474 110.898 150.361C111.831 151.201 112.974 151.621 114.328 151.621ZM151.957 161.56C147.758 161.56 144.188 160.44 141.248 158.2C138.309 155.96 136.349 152.927 135.369 149.101C134.809 147.188 134.529 145.088 134.529 142.802C134.529 140.235 134.832 137.972 135.439 136.012C136.512 132.326 138.495 129.456 141.388 127.403C144.328 125.303 147.874 124.253 152.027 124.253C156.134 124.253 159.61 125.303 162.456 127.403C165.303 129.456 167.286 132.303 168.406 135.942C169.059 138.042 169.386 140.282 169.386 142.662C169.386 144.808 169.129 146.861 168.616 148.821C167.636 152.741 165.676 155.844 162.736 158.13C159.797 160.417 156.204 161.56 151.957 161.56ZM151.957 151.621C153.311 151.621 154.43 151.201 155.317 150.361C156.204 149.474 156.857 148.284 157.277 146.791C157.557 145.578 157.697 144.248 157.697 142.802C157.697 141.402 157.533 140.049 157.207 138.742C156.834 137.295 156.204 136.176 155.317 135.382C154.43 134.589 153.311 134.192 151.957 134.192C149.251 134.192 147.478 135.709 146.638 138.742C146.358 139.862 146.218 141.215 146.218 142.802C146.218 144.248 146.358 145.578 146.638 146.791C147.011 148.284 147.641 149.474 148.528 150.361C149.461 151.201 150.604 151.621 151.957 151.621ZM188.397 161.56C185.084 161.56 182.191 161.117 179.718 160.23C177.245 159.297 175.332 158.014 173.979 156.38C172.672 154.701 172.019 152.787 172.019 150.641V149.871C172.019 149.638 172.089 149.451 172.229 149.311C172.415 149.124 172.625 149.031 172.859 149.031H182.308C182.541 149.031 182.728 149.124 182.868 149.311C183.054 149.451 183.148 149.638 183.148 149.871C183.148 150.758 183.638 151.504 184.618 152.111C185.597 152.671 186.834 152.951 188.327 152.951C189.634 152.951 190.66 152.741 191.407 152.321C192.2 151.854 192.597 151.248 192.597 150.501C192.597 149.754 192.177 149.218 191.337 148.891C190.544 148.518 189.237 148.168 187.417 147.841C184.478 147.281 182.098 146.605 180.278 145.811C177.898 144.831 176.008 143.618 174.608 142.172C173.209 140.679 172.509 138.649 172.509 136.082C172.509 132.443 173.909 129.573 176.708 127.473C179.555 125.327 183.288 124.253 187.907 124.253C191.034 124.253 193.763 124.767 196.097 125.793C198.476 126.773 200.319 128.173 201.626 129.993C202.933 131.813 203.586 133.912 203.586 136.292C203.586 136.526 203.493 136.736 203.306 136.922C203.166 137.062 202.979 137.132 202.746 137.132H193.577C193.343 137.132 193.133 137.062 192.947 136.922C192.807 136.736 192.737 136.526 192.737 136.292C192.737 135.406 192.317 134.682 191.477 134.122C190.637 133.562 189.494 133.283 188.047 133.283C186.741 133.283 185.667 133.516 184.828 133.982C184.034 134.402 183.638 135.009 183.638 135.802C183.638 136.596 184.081 137.179 184.968 137.552C185.854 137.879 187.347 138.252 189.447 138.672C192.154 139.232 194.043 139.675 195.117 140.002C198.01 140.935 200.249 142.195 201.836 143.782C203.469 145.368 204.286 147.491 204.286 150.151C204.286 153.791 202.839 156.614 199.946 158.62C197.1 160.58 193.25 161.56 188.397 161.56ZM229.539 133.283C229.539 133.516 229.445 133.726 229.259 133.912C229.119 134.052 228.932 134.122 228.699 134.122H222.329C222.096 134.122 221.979 134.239 221.979 134.472V147.211C221.979 149.871 223.053 151.201 225.199 151.201H227.789C228.022 151.201 228.209 151.294 228.349 151.481C228.535 151.621 228.629 151.808 228.629 152.041V160.16C228.629 160.673 228.349 160.977 227.789 161.07C225.549 161.163 223.916 161.21 222.889 161.21C218.83 161.21 215.82 160.58 213.86 159.32C211.9 158.014 210.897 155.564 210.85 151.971V134.472C210.85 134.239 210.734 134.122 210.5 134.122H206.511C206.277 134.122 206.067 134.052 205.881 133.912C205.741 133.726 205.671 133.516 205.671 133.283V125.653C205.671 125.42 205.741 125.233 205.881 125.093C206.067 124.907 206.277 124.813 206.511 124.813H210.5C210.734 124.813 210.85 124.697 210.85 124.463V115.994C210.85 115.761 210.92 115.574 211.06 115.434C211.247 115.247 211.457 115.154 211.69 115.154H221.139C221.373 115.154 221.559 115.247 221.699 115.434C221.886 115.574 221.979 115.761 221.979 115.994V124.463C221.979 124.697 222.096 124.813 222.329 124.813H228.699C228.932 124.813 229.119 124.907 229.259 125.093C229.445 125.233 229.539 125.42 229.539 125.653V133.283ZM238.83 121.594C237.057 121.594 235.587 121.034 234.42 119.914C233.3 118.747 232.74 117.277 232.74 115.504C232.74 113.684 233.3 112.214 234.42 111.095C235.587 109.975 237.057 109.415 238.83 109.415C240.603 109.415 242.05 109.975 243.169 111.095C244.336 112.214 244.919 113.684 244.919 115.504C244.919 117.231 244.336 118.677 243.169 119.844C242.05 121.01 240.603 121.594 238.83 121.594ZM233.79 161C233.557 161 233.347 160.93 233.16 160.79C233.02 160.603 232.95 160.393 232.95 160.16V125.653C232.95 125.42 233.02 125.233 233.16 125.093C233.347 124.907 233.557 124.813 233.79 124.813H243.729C243.963 124.813 244.149 124.907 244.289 125.093C244.476 125.233 244.569 125.42 244.569 125.653V160.16C244.569 160.393 244.476 160.603 244.289 160.79C244.149 160.93 243.963 161 243.729 161H233.79ZM269.55 124.253C273.19 124.253 276.177 125.42 278.51 127.753C280.843 130.039 282.009 133.166 282.009 137.132V160.16C282.009 160.393 281.916 160.603 281.729 160.79C281.589 160.93 281.403 161 281.169 161H271.23C270.997 161 270.787 160.93 270.6 160.79C270.46 160.603 270.39 160.393 270.39 160.16V139.652C270.39 138.065 269.947 136.759 269.06 135.732C268.174 134.706 267.031 134.192 265.631 134.192C264.184 134.192 263.018 134.706 262.131 135.732C261.245 136.712 260.801 138.019 260.801 139.652V160.16C260.801 160.393 260.708 160.603 260.521 160.79C260.381 160.93 260.195 161 259.961 161H250.022C249.789 161 249.579 160.93 249.392 160.79C249.252 160.603 249.182 160.393 249.182 160.16V125.653C249.182 125.42 249.252 125.233 249.392 125.093C249.579 124.907 249.789 124.813 250.022 124.813H259.961C260.195 124.813 260.381 124.907 260.521 125.093C260.708 125.233 260.801 125.42 260.801 125.653V128.243C260.801 128.43 260.825 128.546 260.871 128.593C260.965 128.593 261.058 128.523 261.151 128.383C262.924 125.63 265.724 124.253 269.55 124.253ZM308.243 125.653C308.243 125.42 308.313 125.233 308.453 125.093C308.64 124.907 308.85 124.813 309.083 124.813H319.022C319.256 124.813 319.442 124.907 319.582 125.093C319.769 125.233 319.862 125.42 319.862 125.653V156.94C319.862 163.333 318.019 167.906 314.333 170.659C310.646 173.412 305.98 174.789 300.334 174.789C298.234 174.789 296.018 174.602 293.685 174.229C293.218 174.182 292.985 173.879 292.985 173.319L293.335 164.64C293.335 164.313 293.428 164.08 293.615 163.94C293.801 163.846 294.035 163.846 294.315 163.94C296.228 164.36 298.001 164.57 299.634 164.57C302.294 164.57 304.394 163.963 305.933 162.75C307.473 161.537 308.243 159.623 308.243 157.01L307.753 157.5C306.073 159.18 303.647 160.02 300.474 160.02C297.394 160.02 294.571 159.343 292.005 157.99C289.438 156.637 287.595 154.257 286.475 150.851C285.729 148.611 285.355 145.858 285.355 142.592C285.355 138.999 285.799 136.059 286.685 133.772C287.758 130.879 289.462 128.57 291.795 126.843C294.175 125.117 296.928 124.253 300.054 124.253C303.414 124.253 306.003 125.28 307.823 127.333C307.917 127.426 308.01 127.473 308.103 127.473C308.197 127.426 308.243 127.333 308.243 127.193V125.653ZM307.613 147.771C308.033 146.698 308.243 144.948 308.243 142.522C308.243 141.262 308.197 140.282 308.103 139.582C308.01 138.835 307.823 138.135 307.543 137.482C307.17 136.456 306.563 135.662 305.723 135.102C304.93 134.496 303.95 134.192 302.784 134.192C300.591 134.192 299.027 135.289 298.094 137.482C297.394 138.789 297.044 140.515 297.044 142.662C297.044 144.948 297.348 146.628 297.954 147.701C298.374 148.681 299.004 149.474 299.844 150.081C300.684 150.688 301.687 150.991 302.854 150.991C305.234 150.991 306.82 149.918 307.613 147.771ZM77.2878 182.004C80.4608 182.004 83.2606 182.658 85.687 183.964C88.1601 185.271 90.05 187.114 91.3565 189.494C92.7097 191.827 93.3863 194.533 93.3863 197.613C93.3863 200.646 92.6864 203.329 91.2865 205.662C89.9333 207.995 87.9968 209.792 85.477 211.052C82.9573 212.312 80.0409 212.942 76.7278 212.942H68.1886C67.9553 212.942 67.8387 213.058 67.8387 213.292V230.16C67.8387 230.393 67.7453 230.603 67.5587 230.79C67.4187 230.93 67.232 231 66.9987 231H57.0596C56.8263 231 56.6163 230.93 56.4297 230.79C56.2897 230.603 56.2197 230.393 56.2197 230.16V182.844C56.2197 182.611 56.2897 182.424 56.4297 182.284C56.6163 182.098 56.8263 182.004 57.0596 182.004H77.2878ZM75.398 203.702C77.3111 203.702 78.851 203.166 80.0175 202.093C81.2308 201.019 81.8374 199.62 81.8374 197.893C81.8374 196.12 81.2308 194.697 80.0175 193.623C78.851 192.504 77.3111 191.944 75.398 191.944H68.1886C67.9553 191.944 67.8387 192.06 67.8387 192.294V203.353C67.8387 203.586 67.9553 203.702 68.1886 203.702H75.398ZM115.62 194.323C117.3 194.323 118.607 194.627 119.54 195.233C119.913 195.467 120.053 195.817 119.96 196.283L118.35 206.012C118.303 206.572 117.977 206.736 117.37 206.502C116.53 206.316 115.737 206.222 114.99 206.222C114.197 206.222 113.59 206.269 113.17 206.362C111.724 206.549 110.487 207.109 109.461 208.042C108.481 208.975 107.991 210.212 107.991 211.752V230.16C107.991 230.393 107.898 230.603 107.711 230.79C107.571 230.93 107.384 231 107.151 231H97.2119C96.9786 231 96.7686 230.93 96.582 230.79C96.442 230.603 96.372 230.393 96.372 230.16V195.653C96.372 195.42 96.442 195.233 96.582 195.093C96.7686 194.907 96.9786 194.813 97.2119 194.813H107.151C107.384 194.813 107.571 194.907 107.711 195.093C107.898 195.233 107.991 195.42 107.991 195.653V197.893C107.991 198.033 108.038 198.126 108.131 198.173C108.224 198.22 108.294 198.173 108.341 198.033C110.207 195.56 112.634 194.323 115.62 194.323ZM128.264 191.594C126.491 191.594 125.021 191.034 123.855 189.914C122.735 188.747 122.175 187.277 122.175 185.504C122.175 183.684 122.735 182.214 123.855 181.095C125.021 179.975 126.491 179.415 128.264 179.415C130.038 179.415 131.484 179.975 132.604 181.095C133.771 182.214 134.354 183.684 134.354 185.504C134.354 187.231 133.771 188.677 132.604 189.844C131.484 191.01 130.038 191.594 128.264 191.594ZM123.225 231C122.992 231 122.782 230.93 122.595 230.79C122.455 230.603 122.385 230.393 122.385 230.16V195.653C122.385 195.42 122.455 195.233 122.595 195.093C122.782 194.907 122.992 194.813 123.225 194.813H133.164C133.397 194.813 133.584 194.907 133.724 195.093C133.911 195.233 134.004 195.42 134.004 195.653V230.16C134.004 230.393 133.911 230.603 133.724 230.79C133.584 230.93 133.397 231 133.164 231H123.225ZM154.016 231.56C150.703 231.56 147.809 231.117 145.336 230.23C142.863 229.297 140.95 228.014 139.597 226.38C138.29 224.701 137.637 222.787 137.637 220.641V219.871C137.637 219.638 137.707 219.451 137.847 219.311C138.034 219.124 138.244 219.031 138.477 219.031H147.926C148.159 219.031 148.346 219.124 148.486 219.311C148.673 219.451 148.766 219.638 148.766 219.871C148.766 220.758 149.256 221.504 150.236 222.111C151.216 222.671 152.452 222.951 153.946 222.951C155.252 222.951 156.279 222.741 157.025 222.321C157.819 221.854 158.215 221.248 158.215 220.501C158.215 219.754 157.795 219.218 156.955 218.891C156.162 218.518 154.855 218.168 153.036 217.841C150.096 217.281 147.716 216.605 145.896 215.811C143.517 214.831 141.627 213.618 140.227 212.172C138.827 210.679 138.127 208.649 138.127 206.082C138.127 202.443 139.527 199.573 142.327 197.473C145.173 195.327 148.906 194.253 153.526 194.253C156.652 194.253 159.382 194.767 161.715 195.793C164.095 196.773 165.938 198.173 167.244 199.993C168.551 201.813 169.204 203.912 169.204 206.292C169.204 206.526 169.111 206.736 168.924 206.922C168.784 207.062 168.598 207.132 168.364 207.132H159.195C158.962 207.132 158.752 207.062 158.565 206.922C158.425 206.736 158.355 206.526 158.355 206.292C158.355 205.406 157.935 204.682 157.095 204.122C156.255 203.562 155.112 203.283 153.666 203.283C152.359 203.283 151.286 203.516 150.446 203.982C149.653 204.402 149.256 205.009 149.256 205.802C149.256 206.596 149.699 207.179 150.586 207.552C151.472 207.879 152.966 208.252 155.065 208.672C157.772 209.232 159.662 209.675 160.735 210.002C163.628 210.935 165.868 212.195 167.454 213.782C169.088 215.368 169.904 217.491 169.904 220.151C169.904 223.791 168.458 226.614 165.565 228.62C162.718 230.58 158.868 231.56 154.016 231.56ZM214.542 194.253C218.182 194.253 221.028 195.373 223.081 197.613C225.134 199.853 226.161 203.003 226.161 207.062V230.16C226.161 230.393 226.068 230.603 225.881 230.79C225.741 230.93 225.554 231 225.321 231H215.452C215.219 231 215.009 230.93 214.822 230.79C214.682 230.603 214.612 230.393 214.612 230.16V209.582C214.612 207.995 214.192 206.712 213.352 205.732C212.559 204.706 211.486 204.192 210.132 204.192C208.779 204.192 207.659 204.682 206.773 205.662C205.933 206.642 205.513 207.949 205.513 209.582V230.16C205.513 230.393 205.42 230.603 205.233 230.79C205.093 230.93 204.906 231 204.673 231H194.734C194.501 231 194.291 230.93 194.104 230.79C193.964 230.603 193.894 230.393 193.894 230.16V209.582C193.894 207.995 193.451 206.712 192.564 205.732C191.724 204.706 190.628 204.192 189.274 204.192C188.014 204.192 186.965 204.589 186.125 205.382C185.285 206.176 184.771 207.225 184.585 208.532V230.16C184.585 230.393 184.491 230.603 184.305 230.79C184.165 230.93 183.978 231 183.745 231H173.806C173.572 231 173.362 230.93 173.176 230.79C173.036 230.603 172.966 230.393 172.966 230.16V195.653C172.966 195.42 173.036 195.233 173.176 195.093C173.362 194.907 173.572 194.813 173.806 194.813H183.745C183.978 194.813 184.165 194.907 184.305 195.093C184.491 195.233 184.585 195.42 184.585 195.653V198.803C184.585 198.99 184.631 199.106 184.725 199.153C184.818 199.153 184.911 199.06 185.005 198.873C186.825 195.793 189.811 194.253 193.964 194.253C196.297 194.253 198.35 194.767 200.123 195.793C201.897 196.82 203.25 198.313 204.183 200.273C204.323 200.553 204.463 200.529 204.603 200.203C205.583 198.196 206.913 196.703 208.593 195.723C210.319 194.743 212.302 194.253 214.542 194.253ZM245.468 194.253C248.595 194.253 251.418 194.79 253.937 195.863C256.457 196.89 258.44 198.336 259.887 200.203C261.333 202.023 262.057 204.052 262.057 206.292V230.16C262.057 230.393 261.963 230.603 261.777 230.79C261.637 230.93 261.45 231 261.217 231H251.278C251.044 231 250.834 230.93 250.648 230.79C250.508 230.603 250.438 230.393 250.438 230.16V227.71C250.438 227.524 250.391 227.43 250.298 227.43C250.205 227.384 250.111 227.454 250.018 227.64C248.245 230.253 245.212 231.56 240.919 231.56C237.186 231.56 234.199 230.697 231.959 228.97C229.766 227.197 228.67 224.607 228.67 221.201C228.67 217.608 229.906 214.831 232.379 212.872C234.899 210.912 238.539 209.932 243.298 209.932H250.088C250.321 209.932 250.438 209.815 250.438 209.582V208.252C250.438 206.992 250.018 206.012 249.178 205.312C248.338 204.566 247.171 204.192 245.678 204.192C244.558 204.192 243.578 204.402 242.739 204.822C241.945 205.242 241.432 205.779 241.199 206.432C240.965 206.946 240.639 207.179 240.219 207.132L230.14 205.802C229.58 205.709 229.3 205.499 229.3 205.172C229.486 203.119 230.28 201.276 231.68 199.643C233.126 197.963 235.039 196.656 237.419 195.723C239.845 194.743 242.529 194.253 245.468 194.253ZM244.348 223.231C246.122 223.231 247.568 222.787 248.688 221.901C249.855 220.968 250.438 219.754 250.438 218.261V216.581C250.438 216.348 250.321 216.231 250.088 216.231H245.888C244.115 216.231 242.739 216.535 241.759 217.141C240.825 217.748 240.359 218.658 240.359 219.871C240.359 220.898 240.709 221.714 241.409 222.321C242.109 222.927 243.088 223.231 244.348 223.231ZM297.778 231.77C293.998 231.77 290.662 231.023 287.769 229.53C284.923 227.99 282.706 225.844 281.12 223.091C279.533 220.338 278.74 217.141 278.74 213.502V199.503C278.74 195.957 279.533 192.83 281.12 190.124C282.706 187.371 284.923 185.247 287.769 183.754C290.662 182.214 293.998 181.445 297.778 181.445C301.558 181.445 304.894 182.214 307.787 183.754C310.68 185.247 312.92 187.371 314.507 190.124C316.093 192.83 316.886 195.957 316.886 199.503V213.502C316.886 217.141 316.093 220.338 314.507 223.091C312.92 225.844 310.68 227.99 307.787 229.53C304.894 231.023 301.558 231.77 297.778 231.77ZM297.778 221.831C300.018 221.831 301.814 221.108 303.168 219.661C304.567 218.214 305.267 216.278 305.267 213.852V199.363C305.267 196.983 304.567 195.07 303.168 193.623C301.814 192.13 300.018 191.384 297.778 191.384C295.585 191.384 293.788 192.13 292.389 193.623C291.035 195.07 290.359 196.983 290.359 199.363V213.852C290.359 216.278 291.035 218.214 292.389 219.661C293.788 221.108 295.585 221.831 297.778 221.831ZM347.83 231C347.364 231 347.037 230.79 346.85 230.37L338.591 211.752C338.498 211.565 338.358 211.472 338.171 211.472H333.551C333.318 211.472 333.201 211.588 333.201 211.822V230.16C333.201 230.393 333.108 230.603 332.921 230.79C332.782 230.93 332.595 231 332.362 231H322.422C322.189 231 321.979 230.93 321.793 230.79C321.653 230.603 321.583 230.393 321.583 230.16V182.844C321.583 182.611 321.653 182.424 321.793 182.284C321.979 182.098 322.189 182.004 322.422 182.004H343.211C346.29 182.004 348.997 182.634 351.33 183.894C353.663 185.154 355.459 186.951 356.719 189.284C358.026 191.57 358.679 194.207 358.679 197.193C358.679 200.319 357.909 203.026 356.369 205.312C354.829 207.599 352.683 209.255 349.93 210.282C349.697 210.375 349.627 210.539 349.72 210.772L358.959 230.02C359.052 230.207 359.099 230.347 359.099 230.44C359.099 230.813 358.842 231 358.329 231H347.83ZM333.551 191.944C333.318 191.944 333.201 192.06 333.201 192.294V202.233C333.201 202.466 333.318 202.583 333.551 202.583H341.321C343.047 202.583 344.447 202.116 345.52 201.183C346.594 200.203 347.13 198.92 347.13 197.333C347.13 195.7 346.594 194.393 345.52 193.413C344.447 192.434 343.047 191.944 341.321 191.944H333.551ZM394.604 182.564C394.791 182.191 395.117 182.004 395.584 182.004H405.453C405.686 182.004 405.873 182.098 406.013 182.284C406.2 182.424 406.293 182.611 406.293 182.844V230.16C406.293 230.393 406.2 230.603 406.013 230.79C405.873 230.93 405.686 231 405.453 231H395.514C395.281 231 395.071 230.93 394.884 230.79C394.744 230.603 394.674 230.393 394.674 230.16V202.023C394.674 201.836 394.627 201.743 394.534 201.743C394.441 201.743 394.347 201.813 394.254 201.953L388.234 211.612C388.048 211.985 387.721 212.172 387.255 212.172H382.285C381.818 212.172 381.492 211.985 381.305 211.612L375.216 201.883C375.122 201.743 375.029 201.673 374.936 201.673C374.842 201.673 374.796 201.766 374.796 201.953V230.16C374.796 230.393 374.702 230.603 374.516 230.79C374.376 230.93 374.189 231 373.956 231H364.017C363.783 231 363.573 230.93 363.387 230.79C363.247 230.603 363.177 230.393 363.177 230.16V182.844C363.177 182.611 363.247 182.424 363.387 182.284C363.573 182.098 363.783 182.004 364.017 182.004H373.886C374.306 182.004 374.632 182.191 374.866 182.564L384.595 197.823C384.735 198.103 384.875 198.103 385.015 197.823L394.604 182.564ZM77.2878 252.004C80.4608 252.004 83.2606 252.658 85.687 253.964C88.1601 255.271 90.05 257.114 91.3565 259.494C92.7097 261.827 93.3863 264.533 93.3863 267.613C93.3863 270.646 92.6864 273.329 91.2865 275.662C89.9333 277.995 87.9968 279.792 85.477 281.052C82.9573 282.312 80.0409 282.942 76.7278 282.942H68.1886C67.9553 282.942 67.8387 283.058 67.8387 283.292V300.16C67.8387 300.393 67.7453 300.603 67.5587 300.79C67.4187 300.93 67.232 301 66.9987 301H57.0596C56.8263 301 56.6163 300.93 56.4297 300.79C56.2897 300.603 56.2197 300.393 56.2197 300.16V252.844C56.2197 252.611 56.2897 252.424 56.4297 252.284C56.6163 252.098 56.8263 252.004 57.0596 252.004H77.2878ZM75.398 273.702C77.3111 273.702 78.851 273.166 80.0175 272.093C81.2308 271.019 81.8374 269.62 81.8374 267.893C81.8374 266.12 81.2308 264.697 80.0175 263.623C78.851 262.504 77.3111 261.944 75.398 261.944H68.1886C67.9553 261.944 67.8387 262.06 67.8387 262.294V273.353C67.8387 273.586 67.9553 273.702 68.1886 273.702H75.398ZM127.575 279.722C127.808 281.122 127.878 282.965 127.785 285.251C127.738 285.811 127.435 286.091 126.875 286.091H105.527C105.434 286.091 105.34 286.138 105.247 286.231C105.154 286.278 105.13 286.348 105.177 286.441C105.27 286.955 105.504 287.631 105.877 288.471C106.437 289.451 107.277 290.244 108.397 290.851C109.517 291.458 110.893 291.761 112.526 291.761C115.466 291.761 117.776 290.804 119.456 288.891C119.642 288.658 119.852 288.541 120.086 288.541C120.319 288.541 120.506 288.634 120.646 288.821L126.035 294.981C126.222 295.121 126.315 295.307 126.315 295.54C126.315 295.727 126.222 295.914 126.035 296.1C124.402 297.874 122.372 299.227 119.946 300.16C117.566 301.093 114.953 301.56 112.106 301.56C107.86 301.56 104.244 300.65 101.257 298.83C98.3176 296.964 96.1945 294.374 94.8879 291.061C93.908 288.728 93.418 285.811 93.418 282.312C93.418 279.885 93.7913 277.552 94.5379 275.312C95.7512 271.859 97.7343 269.153 100.487 267.193C103.287 265.187 106.6 264.183 110.426 264.183C113.506 264.183 116.259 264.86 118.686 266.213C121.112 267.52 123.072 269.363 124.565 271.743C126.105 274.076 127.108 276.736 127.575 279.722ZM110.426 274.192C108 274.192 106.39 275.336 105.597 277.622C105.41 278.135 105.294 278.625 105.247 279.092C105.154 279.325 105.247 279.442 105.527 279.442H115.466C115.653 279.442 115.746 279.349 115.746 279.162C115.746 278.789 115.653 278.322 115.466 277.762C115.139 276.596 114.533 275.709 113.646 275.102C112.806 274.496 111.733 274.192 110.426 274.192ZM150.379 264.323C152.059 264.323 153.366 264.627 154.299 265.233C154.672 265.467 154.812 265.817 154.719 266.283L153.109 276.012C153.062 276.572 152.736 276.736 152.129 276.502C151.289 276.316 150.496 276.222 149.749 276.222C148.956 276.222 148.349 276.269 147.929 276.362C146.483 276.549 145.246 277.109 144.22 278.042C143.24 278.975 142.75 280.212 142.75 281.752V300.16C142.75 300.393 142.657 300.603 142.47 300.79C142.33 300.93 142.143 301 141.91 301H131.971C131.738 301 131.528 300.93 131.341 300.79C131.201 300.603 131.131 300.393 131.131 300.16V265.653C131.131 265.42 131.201 265.233 131.341 265.093C131.528 264.907 131.738 264.813 131.971 264.813H141.91C142.143 264.813 142.33 264.907 142.47 265.093C142.657 265.233 142.75 265.42 142.75 265.653V267.893C142.75 268.033 142.797 268.126 142.89 268.173C142.983 268.22 143.053 268.173 143.1 268.033C144.966 265.56 147.393 264.323 150.379 264.323ZM179.537 264.743C179.77 264.743 179.957 264.837 180.097 265.023C180.284 265.163 180.377 265.35 180.377 265.583V273.423C180.377 273.656 180.284 273.866 180.097 274.052C179.957 274.192 179.77 274.262 179.537 274.262H172.958C172.724 274.262 172.608 274.379 172.608 274.612V300.16C172.608 300.393 172.514 300.603 172.328 300.79C172.188 300.93 172.001 301 171.768 301H161.829C161.595 301 161.385 300.93 161.199 300.79C161.059 300.603 160.989 300.393 160.989 300.16V274.612C160.989 274.379 160.872 274.262 160.639 274.262H156.719C156.486 274.262 156.276 274.192 156.089 274.052C155.949 273.866 155.879 273.656 155.879 273.423V265.583C155.879 265.35 155.949 265.163 156.089 265.023C156.276 264.837 156.486 264.743 156.719 264.743H160.639C160.872 264.743 160.989 264.627 160.989 264.393V262.504C160.989 259.75 161.479 257.604 162.459 256.064C163.438 254.478 165.002 253.381 167.148 252.774C169.295 252.121 172.211 251.864 175.897 252.004H178.767C179 252.004 179.187 252.098 179.327 252.284C179.514 252.424 179.607 252.611 179.607 252.844V259.214C179.607 259.447 179.514 259.657 179.327 259.844C179.187 259.984 179 260.054 178.767 260.054H176.037C174.777 260.147 173.891 260.45 173.378 260.964C172.864 261.477 172.608 262.34 172.608 263.553V264.393C172.608 264.627 172.724 264.743 172.958 264.743H179.537ZM198.509 301.56C194.309 301.56 190.739 300.44 187.8 298.2C184.86 295.96 182.9 292.927 181.92 289.101C181.36 287.188 181.08 285.088 181.08 282.802C181.08 280.235 181.383 277.972 181.99 276.012C183.063 272.326 185.046 269.456 187.94 267.403C190.879 265.303 194.426 264.253 198.579 264.253C202.685 264.253 206.161 265.303 209.008 267.403C211.854 269.456 213.837 272.303 214.957 275.942C215.61 278.042 215.937 280.282 215.937 282.662C215.937 284.808 215.68 286.861 215.167 288.821C214.187 292.741 212.227 295.844 209.288 298.13C206.348 300.417 202.755 301.56 198.509 301.56ZM198.509 291.621C199.862 291.621 200.982 291.201 201.868 290.361C202.755 289.474 203.408 288.284 203.828 286.791C204.108 285.578 204.248 284.248 204.248 282.802C204.248 281.402 204.085 280.049 203.758 278.742C203.385 277.295 202.755 276.176 201.868 275.382C200.982 274.589 199.862 274.192 198.509 274.192C195.802 274.192 194.029 275.709 193.189 278.742C192.909 279.862 192.769 281.215 192.769 282.802C192.769 284.248 192.909 285.578 193.189 286.791C193.562 288.284 194.192 289.474 195.079 290.361C196.012 291.201 197.155 291.621 198.509 291.621ZM238.798 264.323C240.478 264.323 241.784 264.627 242.718 265.233C243.091 265.467 243.231 265.817 243.138 266.283L241.528 276.012C241.481 276.572 241.155 276.736 240.548 276.502C239.708 276.316 238.915 276.222 238.168 276.222C237.375 276.222 236.768 276.269 236.348 276.362C234.902 276.549 233.665 277.109 232.639 278.042C231.659 278.975 231.169 280.212 231.169 281.752V300.16C231.169 300.393 231.075 300.603 230.889 300.79C230.749 300.93 230.562 301 230.329 301H220.39C220.156 301 219.946 300.93 219.76 300.79C219.62 300.603 219.55 300.393 219.55 300.16V265.653C219.55 265.42 219.62 265.233 219.76 265.093C219.946 264.907 220.156 264.813 220.39 264.813H230.329C230.562 264.813 230.749 264.907 230.889 265.093C231.075 265.233 231.169 265.42 231.169 265.653V267.893C231.169 268.033 231.215 268.126 231.309 268.173C231.402 268.22 231.472 268.173 231.519 268.033C233.385 265.56 235.812 264.323 238.798 264.323ZM286.999 264.253C290.639 264.253 293.485 265.373 295.538 267.613C297.591 269.853 298.618 273.003 298.618 277.062V300.16C298.618 300.393 298.525 300.603 298.338 300.79C298.198 300.93 298.011 301 297.778 301H287.909C287.676 301 287.466 300.93 287.279 300.79C287.139 300.603 287.069 300.393 287.069 300.16V279.582C287.069 277.995 286.649 276.712 285.809 275.732C285.016 274.706 283.943 274.192 282.589 274.192C281.236 274.192 280.116 274.682 279.23 275.662C278.39 276.642 277.97 277.949 277.97 279.582V300.16C277.97 300.393 277.877 300.603 277.69 300.79C277.55 300.93 277.363 301 277.13 301H267.191C266.958 301 266.748 300.93 266.561 300.79C266.421 300.603 266.351 300.393 266.351 300.16V279.582C266.351 277.995 265.908 276.712 265.021 275.732C264.181 274.706 263.085 274.192 261.731 274.192C260.472 274.192 259.422 274.589 258.582 275.382C257.742 276.176 257.228 277.225 257.042 278.532V300.16C257.042 300.393 256.948 300.603 256.762 300.79C256.622 300.93 256.435 301 256.202 301H246.263C246.029 301 245.82 300.93 245.633 300.79C245.493 300.603 245.423 300.393 245.423 300.16V265.653C245.423 265.42 245.493 265.233 245.633 265.093C245.82 264.907 246.029 264.813 246.263 264.813H256.202C256.435 264.813 256.622 264.907 256.762 265.093C256.948 265.233 257.042 265.42 257.042 265.653V268.803C257.042 268.99 257.088 269.106 257.182 269.153C257.275 269.153 257.368 269.06 257.462 268.873C259.282 265.793 262.268 264.253 266.421 264.253C268.754 264.253 270.807 264.767 272.58 265.793C274.354 266.82 275.707 268.313 276.64 270.273C276.78 270.553 276.92 270.529 277.06 270.203C278.04 268.196 279.37 266.703 281.05 265.723C282.776 264.743 284.759 264.253 286.999 264.253ZM317.925 264.253C321.052 264.253 323.875 264.79 326.395 265.863C328.914 266.89 330.897 268.336 332.344 270.203C333.791 272.023 334.514 274.052 334.514 276.292V300.16C334.514 300.393 334.421 300.603 334.234 300.79C334.094 300.93 333.907 301 333.674 301H323.735C323.502 301 323.292 300.93 323.105 300.79C322.965 300.603 322.895 300.393 322.895 300.16V297.71C322.895 297.524 322.848 297.43 322.755 297.43C322.662 297.384 322.568 297.454 322.475 297.64C320.702 300.253 317.669 301.56 313.376 301.56C309.643 301.56 306.656 300.697 304.417 298.97C302.223 297.197 301.127 294.607 301.127 291.201C301.127 287.608 302.363 284.831 304.837 282.872C307.356 280.912 310.996 279.932 315.756 279.932H322.545C322.778 279.932 322.895 279.815 322.895 279.582V278.252C322.895 276.992 322.475 276.012 321.635 275.312C320.795 274.566 319.629 274.192 318.135 274.192C317.015 274.192 316.036 274.402 315.196 274.822C314.402 275.242 313.889 275.779 313.656 276.432C313.422 276.946 313.096 277.179 312.676 277.132L302.597 275.802C302.037 275.709 301.757 275.499 301.757 275.172C301.943 273.119 302.737 271.276 304.137 269.643C305.583 267.963 307.496 266.656 309.876 265.723C312.303 264.743 314.986 264.253 317.925 264.253ZM316.805 293.231C318.579 293.231 320.025 292.787 321.145 291.901C322.312 290.968 322.895 289.754 322.895 288.261V286.581C322.895 286.348 322.778 286.231 322.545 286.231H318.345C316.572 286.231 315.196 286.535 314.216 287.141C313.282 287.748 312.816 288.658 312.816 289.871C312.816 290.898 313.166 291.714 313.866 292.321C314.566 292.927 315.546 293.231 316.805 293.231ZM359.233 264.253C362.872 264.253 365.859 265.42 368.192 267.753C370.525 270.039 371.691 273.166 371.691 277.132V300.16C371.691 300.393 371.598 300.603 371.411 300.79C371.271 300.93 371.085 301 370.851 301H360.912C360.679 301 360.469 300.93 360.282 300.79C360.142 300.603 360.072 300.393 360.072 300.16V279.652C360.072 278.065 359.629 276.759 358.743 275.732C357.856 274.706 356.713 274.192 355.313 274.192C353.866 274.192 352.7 274.706 351.813 275.732C350.927 276.712 350.483 278.019 350.483 279.652V300.16C350.483 300.393 350.39 300.603 350.203 300.79C350.063 300.93 349.877 301 349.643 301H339.704C339.471 301 339.261 300.93 339.074 300.79C338.934 300.603 338.864 300.393 338.864 300.16V265.653C338.864 265.42 338.934 265.233 339.074 265.093C339.261 264.907 339.471 264.813 339.704 264.813H349.643C349.877 264.813 350.063 264.907 350.203 265.093C350.39 265.233 350.483 265.42 350.483 265.653V268.243C350.483 268.43 350.507 268.546 350.553 268.593C350.647 268.593 350.74 268.523 350.833 268.383C352.606 265.63 355.406 264.253 359.233 264.253ZM392.537 301.56C388.711 301.56 385.351 300.603 382.458 298.69C379.612 296.777 377.582 294.141 376.369 290.781C375.482 288.541 375.039 285.858 375.039 282.732C375.039 279.605 375.482 276.922 376.369 274.682C377.535 271.416 379.565 268.873 382.458 267.053C385.351 265.187 388.711 264.253 392.537 264.253C396.41 264.253 399.817 265.21 402.757 267.123C405.696 269.036 407.679 271.463 408.706 274.402C409.033 275.242 409.243 276.152 409.336 277.132C409.336 277.645 409.079 277.949 408.566 278.042L398.837 279.512H398.697C398.277 279.512 397.997 279.279 397.857 278.812L397.717 278.182C397.624 277.809 397.53 277.482 397.437 277.202C397.017 276.316 396.364 275.592 395.477 275.032C394.637 274.472 393.634 274.192 392.467 274.192C389.994 274.192 388.361 275.289 387.568 277.482C387.055 278.789 386.798 280.562 386.798 282.802C386.798 284.808 387.031 286.558 387.498 288.051C388.385 290.431 390.041 291.621 392.467 291.621C393.681 291.621 394.731 291.318 395.617 290.711C396.504 290.058 397.134 289.148 397.507 287.981C397.554 287.888 397.577 287.748 397.577 287.561C397.624 287.515 397.647 287.421 397.647 287.281C397.787 286.721 398.114 286.488 398.627 286.581L408.426 288.121C408.893 288.214 409.126 288.471 409.126 288.891C409.126 289.591 408.986 290.361 408.706 291.201C407.586 294.467 405.556 297.01 402.617 298.83C399.723 300.65 396.364 301.56 392.537 301.56ZM445.532 279.722C445.765 281.122 445.835 282.965 445.742 285.251C445.695 285.811 445.392 286.091 444.832 286.091H423.484C423.391 286.091 423.297 286.138 423.204 286.231C423.111 286.278 423.087 286.348 423.134 286.441C423.227 286.955 423.461 287.631 423.834 288.471C424.394 289.451 425.234 290.244 426.354 290.851C427.474 291.458 428.85 291.761 430.483 291.761C433.423 291.761 435.733 290.804 437.413 288.891C437.599 288.658 437.809 288.541 438.043 288.541C438.276 288.541 438.463 288.634 438.603 288.821L443.992 294.981C444.179 295.121 444.272 295.307 444.272 295.54C444.272 295.727 444.179 295.914 443.992 296.1C442.359 297.874 440.329 299.227 437.903 300.16C435.523 301.093 432.91 301.56 430.063 301.56C425.817 301.56 422.201 300.65 419.214 298.83C416.275 296.964 414.151 294.374 412.845 291.061C411.865 288.728 411.375 285.811 411.375 282.312C411.375 279.885 411.748 277.552 412.495 275.312C413.708 271.859 415.691 269.153 418.444 267.193C421.244 265.187 424.557 264.183 428.383 264.183C431.463 264.183 434.216 264.86 436.643 266.213C439.069 267.52 441.029 269.363 442.522 271.743C444.062 274.076 445.065 276.736 445.532 279.722ZM428.383 274.192C425.957 274.192 424.347 275.336 423.554 277.622C423.367 278.135 423.251 278.625 423.204 279.092C423.111 279.325 423.204 279.442 423.484 279.442H433.423C433.61 279.442 433.703 279.349 433.703 279.162C433.703 278.789 433.61 278.322 433.423 277.762C433.096 276.596 432.49 275.709 431.603 275.102C430.763 274.496 429.69 274.192 428.383 274.192Z"></path>
</g>
<g filter="url(#filter2_dddddd_10415_301309)">
<path fill="#C3DAFE" d="M61.8034 91C61.6265 91 61.5027 90.9204 61.432 90.7613L58.1165 83.414C58.0811 83.3433 58.028 83.3079 57.9573 83.3079H55.4905C55.4021 83.3079 55.3579 83.3521 55.3579 83.4405V90.6817C55.3579 90.7701 55.3226 90.8497 55.2518 90.9204C55.1988 90.9735 55.128 91 55.0396 91H51.9363C51.8479 91 51.7683 90.9735 51.6976 90.9204C51.6445 90.8497 51.618 90.7701 51.618 90.6817V72.7512C51.618 72.6628 51.6445 72.5921 51.6976 72.539C51.7683 72.4683 51.8479 72.4329 51.9363 72.4329H59.5223C60.654 72.4329 61.6442 72.6628 62.493 73.1226C63.3595 73.5823 64.0226 74.2366 64.4823 75.0854C64.9598 75.9341 65.1985 76.9155 65.1985 78.0296C65.1985 79.232 64.8979 80.2665 64.2966 81.1329C63.6954 81.9817 62.8555 82.5829 61.7768 82.9366C61.6884 82.972 61.6619 83.0338 61.6973 83.1223L65.3046 90.6287C65.3399 90.6994 65.3576 90.7524 65.3576 90.7878C65.3576 90.9293 65.2604 91 65.0659 91H61.8034ZM55.4905 75.6424C55.4021 75.6424 55.3579 75.6866 55.3579 75.775V80.3107C55.3579 80.3991 55.4021 80.4433 55.4905 80.4433H58.9652C59.7079 80.4433 60.3091 80.2223 60.7689 79.7802C61.2463 79.3381 61.4851 78.7634 61.4851 78.0561C61.4851 77.3488 61.2463 76.7741 60.7689 76.332C60.3091 75.8723 59.7079 75.6424 58.9652 75.6424H55.4905ZM77.3004 91.2122C75.9389 91.2122 74.7364 90.947 73.6931 90.4165C72.6675 89.886 71.8629 89.1433 71.2794 88.1884C70.7135 87.2159 70.4306 86.1018 70.4306 84.8463V72.7512C70.4306 72.6628 70.4571 72.5921 70.5102 72.539C70.5809 72.4683 70.6605 72.4329 70.7489 72.4329H73.8523C73.9407 72.4329 74.0114 72.4683 74.0645 72.539C74.1352 72.5921 74.1706 72.6628 74.1706 72.7512V84.8729C74.1706 85.8101 74.4535 86.5704 75.0193 87.154C75.6029 87.7198 76.3632 88.0027 77.3004 88.0027C78.2376 88.0027 78.9892 87.7198 79.555 87.154C80.1385 86.5704 80.4303 85.8101 80.4303 84.8729V72.7512C80.4303 72.6628 80.4568 72.5921 80.5099 72.539C80.5806 72.4683 80.6602 72.4329 80.7486 72.4329H83.852C83.9404 72.4329 84.0111 72.4683 84.0642 72.539C84.1349 72.5921 84.1703 72.6628 84.1703 72.7512V84.8463C84.1703 86.1018 83.8785 87.2159 83.2949 88.1884C82.7291 89.1433 81.9245 89.886 80.8812 90.4165C79.8556 90.947 78.662 91.2122 77.3004 91.2122ZM96.2629 91.2122C94.8483 91.2122 93.6104 90.9912 92.5495 90.5491C91.4885 90.0893 90.6662 89.4439 90.0827 88.6128C89.5169 87.764 89.2339 86.7826 89.2339 85.6686V85.0851C89.2339 84.9966 89.2604 84.9259 89.3135 84.8729C89.3842 84.8021 89.4638 84.7668 89.5522 84.7668H92.576C92.6644 84.7668 92.7351 84.8021 92.7882 84.8729C92.8589 84.9259 92.8943 84.9966 92.8943 85.0851V85.4829C92.8943 86.1902 93.2214 86.7915 93.8757 87.2866C94.53 87.764 95.4141 88.0027 96.5281 88.0027C97.4653 88.0027 98.1638 87.8082 98.6236 87.4192C99.0833 87.0125 99.3132 86.5174 99.3132 85.9338C99.3132 85.5095 99.1717 85.1558 98.8888 84.8729C98.6059 84.5723 98.2169 84.3159 97.7217 84.1037C97.2443 83.8738 96.4751 83.5643 95.4141 83.1753C94.2294 82.7686 93.2214 82.353 92.3903 81.9287C91.5769 81.5043 90.8873 80.9296 90.3214 80.2046C89.7733 79.4619 89.4992 78.5512 89.4992 77.4726C89.4992 76.4116 89.7733 75.4832 90.3214 74.6875C90.8696 73.8918 91.63 73.2817 92.6025 72.8573C93.5751 72.4329 94.6979 72.2207 95.9711 72.2207C97.315 72.2207 98.5086 72.4595 99.5519 72.9369C100.613 73.4143 101.435 74.0863 102.019 74.9527C102.62 75.8015 102.921 76.7918 102.921 77.9235V78.3213C102.921 78.4098 102.885 78.4893 102.814 78.5601C102.761 78.6131 102.691 78.6396 102.602 78.6396H99.5519C99.4635 78.6396 99.3839 78.6131 99.3132 78.5601C99.2601 78.4893 99.2336 78.4098 99.2336 78.3213V78.1091C99.2336 77.3665 98.9242 76.7387 98.3053 76.2259C97.704 75.6954 96.8729 75.4302 95.812 75.4302C94.9809 75.4302 94.3266 75.607 93.8492 75.9607C93.3894 76.3143 93.1595 76.8006 93.1595 77.4195C93.1595 77.8616 93.2922 78.2329 93.5574 78.5335C93.8403 78.8341 94.247 79.1082 94.7775 79.3558C95.3257 79.5857 96.1656 79.904 97.2973 80.3107C98.5528 80.7704 99.5342 81.1771 100.242 81.5308C100.967 81.8845 101.612 82.4149 102.178 83.1223C102.761 83.8119 103.053 84.7137 103.053 85.8277C103.053 87.4899 102.443 88.8073 101.223 89.7799C100.003 90.7348 98.3495 91.2122 96.2629 91.2122ZM120.928 72.4329C121.017 72.4329 121.087 72.4683 121.14 72.539C121.211 72.5921 121.247 72.6628 121.247 72.7512V75.3506C121.247 75.439 121.211 75.5186 121.14 75.5893C121.087 75.6424 121.017 75.6689 120.928 75.6689H116.18C116.092 75.6689 116.048 75.7131 116.048 75.8015V90.6817C116.048 90.7701 116.012 90.8497 115.942 90.9204C115.889 90.9735 115.818 91 115.73 91H112.626C112.538 91 112.458 90.9735 112.387 90.9204C112.334 90.8497 112.308 90.7701 112.308 90.6817V75.8015C112.308 75.7131 112.264 75.6689 112.175 75.6689H107.56C107.472 75.6689 107.392 75.6424 107.321 75.5893C107.268 75.5186 107.242 75.439 107.242 75.3506V72.7512C107.242 72.6628 107.268 72.5921 107.321 72.539C107.392 72.4683 107.472 72.4329 107.56 72.4329H120.928ZM147.059 72.4329C147.147 72.4329 147.218 72.4683 147.271 72.539C147.342 72.5921 147.377 72.6628 147.377 72.7512V75.3506C147.377 75.439 147.342 75.5186 147.271 75.5893C147.218 75.6424 147.147 75.6689 147.059 75.6689H142.311C142.223 75.6689 142.178 75.7131 142.178 75.8015V90.6817C142.178 90.7701 142.143 90.8497 142.072 90.9204C142.019 90.9735 141.949 91 141.86 91H138.757C138.668 91 138.589 90.9735 138.518 90.9204C138.465 90.8497 138.439 90.7701 138.439 90.6817V75.8015C138.439 75.7131 138.394 75.6689 138.306 75.6689H133.691C133.602 75.6689 133.523 75.6424 133.452 75.5893C133.399 75.5186 133.372 75.439 133.372 75.3506V72.7512C133.372 72.6628 133.399 72.5921 133.452 72.539C133.523 72.4683 133.602 72.4329 133.691 72.4329H147.059ZM158.269 91.2918C156.89 91.2918 155.67 91.0088 154.609 90.443C153.566 89.8771 152.752 89.0902 152.169 88.0823C151.585 87.0567 151.293 85.8808 151.293 84.5546V78.8784C151.293 77.5698 151.585 76.4116 152.169 75.4037C152.752 74.3957 153.566 73.6177 154.609 73.0695C155.67 72.5037 156.89 72.2207 158.269 72.2207C159.666 72.2207 160.886 72.5037 161.93 73.0695C162.991 73.6177 163.813 74.3957 164.396 75.4037C164.98 76.4116 165.272 77.5698 165.272 78.8784V84.5546C165.272 85.8808 164.98 87.0567 164.396 88.0823C163.813 89.1079 162.991 89.9037 161.93 90.4695C160.886 91.0177 159.666 91.2918 158.269 91.2918ZM158.269 88.0823C159.242 88.0823 160.029 87.7729 160.63 87.154C161.231 86.5351 161.532 85.7128 161.532 84.6872V78.8518C161.532 77.8262 161.231 77.004 160.63 76.3851C160.046 75.7485 159.259 75.4302 158.269 75.4302C157.297 75.4302 156.51 75.7485 155.909 76.3851C155.325 77.004 155.033 77.8262 155.033 78.8518V84.6872C155.033 85.7128 155.325 86.5351 155.909 87.154C156.51 87.7729 157.297 88.0823 158.269 88.0823ZM191.565 72.4329C191.653 72.4329 191.724 72.4683 191.777 72.539C191.848 72.5921 191.883 72.6628 191.883 72.7512V75.3506C191.883 75.439 191.848 75.5186 191.777 75.5893C191.724 75.6424 191.653 75.6689 191.565 75.6689H186.817C186.729 75.6689 186.685 75.7131 186.685 75.8015V90.6817C186.685 90.7701 186.649 90.8497 186.578 90.9204C186.525 90.9735 186.455 91 186.366 91H183.263C183.174 91 183.095 90.9735 183.024 90.9204C182.971 90.8497 182.945 90.7701 182.945 90.6817V75.8015C182.945 75.7131 182.9 75.6689 182.812 75.6689H178.197C178.108 75.6689 178.029 75.6424 177.958 75.5893C177.905 75.5186 177.878 75.439 177.878 75.3506V72.7512C177.878 72.6628 177.905 72.5921 177.958 72.539C178.029 72.4683 178.108 72.4329 178.197 72.4329H191.565ZM201.935 90.9735C201.847 90.9735 201.767 90.947 201.696 90.8939C201.643 90.8232 201.617 90.7436 201.617 90.6552V83.9445C201.617 83.8738 201.608 83.8207 201.59 83.7854L196.126 72.8043C196.091 72.7335 196.073 72.6805 196.073 72.6451C196.073 72.5037 196.17 72.4329 196.365 72.4329H199.707C199.884 72.4329 200.008 72.5125 200.078 72.6716L203.394 79.7271C203.447 79.8332 203.5 79.8332 203.553 79.7271L206.869 72.6716C206.939 72.5125 207.063 72.4329 207.24 72.4329H210.635C210.759 72.4329 210.838 72.4683 210.874 72.539C210.927 72.5921 210.927 72.6805 210.874 72.8043L205.357 83.7854C205.339 83.8207 205.33 83.8738 205.33 83.9445V90.6552C205.33 90.7436 205.295 90.8232 205.224 90.8939C205.171 90.947 205.1 90.9735 205.012 90.9735H201.935ZM223.455 72.4064C224.622 72.4064 225.648 72.6451 226.532 73.1226C227.416 73.6 228.097 74.2808 228.574 75.1649C229.069 76.0314 229.317 77.0305 229.317 78.1622C229.317 79.2762 229.061 80.2576 228.548 81.1064C228.053 81.9552 227.345 82.6183 226.426 83.0957C225.524 83.5555 224.481 83.7854 223.296 83.7854H219.529C219.441 83.7854 219.397 83.8296 219.397 83.918V90.6817C219.397 90.7701 219.361 90.8497 219.291 90.9204C219.238 90.9735 219.167 91 219.078 91H215.975C215.887 91 215.807 90.9735 215.736 90.9204C215.683 90.8497 215.657 90.7701 215.657 90.6817V72.7247C215.657 72.6363 215.683 72.5655 215.736 72.5125C215.807 72.4418 215.887 72.4064 215.975 72.4064H223.455ZM222.898 80.7881C223.711 80.7881 224.366 80.5582 224.861 80.0985C225.356 79.621 225.603 79.0021 225.603 78.2418C225.603 77.4637 225.356 76.836 224.861 76.3585C224.366 75.8811 223.711 75.6424 222.898 75.6424H219.529C219.441 75.6424 219.397 75.6866 219.397 75.775V80.6555C219.397 80.7439 219.441 80.7881 219.529 80.7881H222.898ZM247.159 75.3241C247.159 75.4125 247.124 75.4921 247.053 75.5628C247 75.6159 246.929 75.6424 246.841 75.6424H238.141C238.053 75.6424 238.008 75.6866 238.008 75.775V79.8863C238.008 79.9747 238.053 80.0189 238.141 80.0189H243.844C243.932 80.0189 244.003 80.0543 244.056 80.125C244.127 80.178 244.162 80.2488 244.162 80.3372V82.9101C244.162 82.9985 244.127 83.078 244.056 83.1488C244.003 83.2018 243.932 83.2284 243.844 83.2284H238.141C238.053 83.2284 238.008 83.2726 238.008 83.361V87.6579C238.008 87.7463 238.053 87.7905 238.141 87.7905H246.841C246.929 87.7905 247 87.8259 247.053 87.8966C247.124 87.9497 247.159 88.0204 247.159 88.1088V90.6817C247.159 90.7701 247.124 90.8497 247.053 90.9204C247 90.9735 246.929 91 246.841 91H234.587C234.498 91 234.419 90.9735 234.348 90.9204C234.295 90.8497 234.268 90.7701 234.268 90.6817V72.7512C234.268 72.6628 234.295 72.5921 234.348 72.539C234.419 72.4683 234.498 72.4329 234.587 72.4329H246.841C246.929 72.4329 247 72.4683 247.053 72.539C247.124 72.5921 247.159 72.6628 247.159 72.7512V75.3241ZM258.777 91.2122C257.362 91.2122 256.124 90.9912 255.063 90.5491C254.002 90.0893 253.18 89.4439 252.596 88.6128C252.031 87.764 251.748 86.7826 251.748 85.6686V85.0851C251.748 84.9966 251.774 84.9259 251.827 84.8729C251.898 84.8021 251.978 84.7668 252.066 84.7668H255.09C255.178 84.7668 255.249 84.8021 255.302 84.8729C255.373 84.9259 255.408 84.9966 255.408 85.0851V85.4829C255.408 86.1902 255.735 86.7915 256.389 87.2866C257.044 87.764 257.928 88.0027 259.042 88.0027C259.979 88.0027 260.678 87.8082 261.137 87.4192C261.597 87.0125 261.827 86.5174 261.827 85.9338C261.827 85.5095 261.685 85.1558 261.403 84.8729C261.12 84.5723 260.731 84.3159 260.235 84.1037C259.758 83.8738 258.989 83.5643 257.928 83.1753C256.743 82.7686 255.735 82.353 254.904 81.9287C254.091 81.5043 253.401 80.9296 252.835 80.2046C252.287 79.4619 252.013 78.5512 252.013 77.4726C252.013 76.4116 252.287 75.4832 252.835 74.6875C253.383 73.8918 254.144 73.2817 255.116 72.8573C256.089 72.4329 257.212 72.2207 258.485 72.2207C259.829 72.2207 261.022 72.4595 262.066 72.9369C263.127 73.4143 263.949 74.0863 264.532 74.9527C265.134 75.8015 265.434 76.7918 265.434 77.9235V78.3213C265.434 78.4098 265.399 78.4893 265.328 78.5601C265.275 78.6131 265.204 78.6396 265.116 78.6396H262.066C261.977 78.6396 261.898 78.6131 261.827 78.5601C261.774 78.4893 261.747 78.4098 261.747 78.3213V78.1091C261.747 77.3665 261.438 76.7387 260.819 76.2259C260.218 75.6954 259.387 75.4302 258.326 75.4302C257.495 75.4302 256.84 75.607 256.363 75.9607C255.903 76.3143 255.673 76.8006 255.673 77.4195C255.673 77.8616 255.806 78.2329 256.071 78.5335C256.354 78.8341 256.761 79.1082 257.291 79.3558C257.839 79.5857 258.679 79.904 259.811 80.3107C261.067 80.7704 262.048 81.1771 262.755 81.5308C263.48 81.8845 264.126 82.4149 264.692 83.1223C265.275 83.8119 265.567 84.7137 265.567 85.8277C265.567 87.4899 264.957 88.8073 263.737 89.7799C262.517 90.7348 260.863 91.2122 258.777 91.2122ZM277.363 91.2122C275.984 91.2122 274.772 90.947 273.729 90.4165C272.686 89.8683 271.881 89.1079 271.315 88.1354C270.75 87.1628 270.467 86.0399 270.467 84.7668V78.6396C270.467 77.3665 270.75 76.2436 271.315 75.271C271.881 74.2985 272.686 73.547 273.729 73.0165C274.772 72.486 275.984 72.2207 277.363 72.2207C278.725 72.2207 279.918 72.4771 280.944 72.9899C281.987 73.4851 282.792 74.2012 283.357 75.1384C283.941 76.0579 284.233 77.1277 284.233 78.3479C284.233 78.507 284.127 78.6043 283.914 78.6396L280.811 78.8253H280.758C280.581 78.8253 280.493 78.728 280.493 78.5335C280.493 77.5963 280.201 76.8448 279.618 76.279C279.052 75.7131 278.3 75.4302 277.363 75.4302C276.408 75.4302 275.639 75.7131 275.055 76.279C274.489 76.8448 274.207 77.5963 274.207 78.5335V84.9259C274.207 85.8454 274.489 86.5881 275.055 87.154C275.639 87.7198 276.408 88.0027 277.363 88.0027C278.3 88.0027 279.052 87.7198 279.618 87.154C280.201 86.5881 280.493 85.8454 280.493 84.9259C280.493 84.7314 280.599 84.6341 280.811 84.6341L283.914 84.7668C284.003 84.7668 284.074 84.7933 284.127 84.8463C284.197 84.8994 284.233 84.9613 284.233 85.032C284.233 86.2521 283.941 87.3308 283.357 88.268C282.792 89.2052 281.987 89.9302 280.944 90.443C279.918 90.9558 278.725 91.2122 277.363 91.2122ZM299.813 91C299.636 91 299.513 90.9204 299.442 90.7613L296.126 83.414C296.091 83.3433 296.038 83.3079 295.967 83.3079H293.5C293.412 83.3079 293.368 83.3521 293.368 83.4405V90.6817C293.368 90.7701 293.332 90.8497 293.262 90.9204C293.209 90.9735 293.138 91 293.049 91H289.946C289.858 91 289.778 90.9735 289.707 90.9204C289.654 90.8497 289.628 90.7701 289.628 90.6817V72.7512C289.628 72.6628 289.654 72.5921 289.707 72.539C289.778 72.4683 289.858 72.4329 289.946 72.4329H297.532C298.664 72.4329 299.654 72.6628 300.503 73.1226C301.369 73.5823 302.032 74.2366 302.492 75.0854C302.97 75.9341 303.208 76.9155 303.208 78.0296C303.208 79.232 302.908 80.2665 302.306 81.1329C301.705 81.9817 300.865 82.5829 299.787 82.9366C299.698 82.972 299.672 83.0338 299.707 83.1223L303.314 90.6287C303.35 90.6994 303.367 90.7524 303.367 90.7878C303.367 90.9293 303.27 91 303.076 91H299.813ZM293.5 75.6424C293.412 75.6424 293.368 75.6866 293.368 75.775V80.3107C293.368 80.3991 293.412 80.4433 293.5 80.4433H296.975C297.718 80.4433 298.319 80.2223 298.779 79.7802C299.256 79.3381 299.495 78.7634 299.495 78.0561C299.495 77.3488 299.256 76.7741 298.779 76.332C298.319 75.8723 297.718 75.6424 296.975 75.6424H293.5ZM308.891 91C308.803 91 308.723 90.9735 308.653 90.9204C308.6 90.8497 308.573 90.7701 308.573 90.6817V72.7512C308.573 72.6628 308.6 72.5921 308.653 72.539C308.723 72.4683 308.803 72.4329 308.891 72.4329H311.995C312.083 72.4329 312.154 72.4683 312.207 72.539C312.278 72.5921 312.313 72.6628 312.313 72.7512V90.6817C312.313 90.7701 312.278 90.8497 312.207 90.9204C312.154 90.9735 312.083 91 311.995 91H308.891ZM325.859 72.4064C327.026 72.4064 328.052 72.6451 328.936 73.1226C329.82 73.6 330.501 74.2808 330.978 75.1649C331.473 76.0314 331.721 77.0305 331.721 78.1622C331.721 79.2762 331.464 80.2576 330.952 81.1064C330.456 81.9552 329.749 82.6183 328.83 83.0957C327.928 83.5555 326.884 83.7854 325.7 83.7854H321.933C321.845 83.7854 321.801 83.8296 321.801 83.918V90.6817C321.801 90.7701 321.765 90.8497 321.695 90.9204C321.641 90.9735 321.571 91 321.482 91H318.379C318.291 91 318.211 90.9735 318.14 90.9204C318.087 90.8497 318.061 90.7701 318.061 90.6817V72.7247C318.061 72.6363 318.087 72.5655 318.14 72.5125C318.211 72.4418 318.291 72.4064 318.379 72.4064H325.859ZM325.302 80.7881C326.115 80.7881 326.77 80.5582 327.265 80.0985C327.76 79.621 328.007 79.0021 328.007 78.2418C328.007 77.4637 327.76 76.836 327.265 76.3585C326.77 75.8811 326.115 75.6424 325.302 75.6424H321.933C321.845 75.6424 321.801 75.6866 321.801 75.775V80.6555C321.801 80.7439 321.845 80.7881 321.933 80.7881H325.302ZM349.484 72.4329C349.572 72.4329 349.643 72.4683 349.696 72.539C349.767 72.5921 349.802 72.6628 349.802 72.7512V75.3506C349.802 75.439 349.767 75.5186 349.696 75.5893C349.643 75.6424 349.572 75.6689 349.484 75.6689H344.736C344.647 75.6689 344.603 75.7131 344.603 75.8015V90.6817C344.603 90.7701 344.568 90.8497 344.497 90.9204C344.444 90.9735 344.373 91 344.285 91H341.181C341.093 91 341.013 90.9735 340.943 90.9204C340.89 90.8497 340.863 90.7701 340.863 90.6817V75.8015C340.863 75.7131 340.819 75.6689 340.731 75.6689H336.115C336.027 75.6689 335.947 75.6424 335.877 75.5893C335.824 75.5186 335.797 75.439 335.797 75.3506V72.7512C335.797 72.6628 335.824 72.5921 335.877 72.539C335.947 72.4683 336.027 72.4329 336.115 72.4329H349.484ZM369.54 91.2122C368.179 91.2122 366.976 90.947 365.933 90.4165C364.907 89.886 364.103 89.1433 363.519 88.1884C362.953 87.2159 362.67 86.1018 362.67 84.8463V72.7512C362.67 72.6628 362.697 72.5921 362.75 72.539C362.821 72.4683 362.9 72.4329 362.989 72.4329H366.092C366.18 72.4329 366.251 72.4683 366.304 72.539C366.375 72.5921 366.41 72.6628 366.41 72.7512V84.8729C366.41 85.8101 366.693 86.5704 367.259 87.154C367.843 87.7198 368.603 88.0027 369.54 88.0027C370.477 88.0027 371.229 87.7198 371.795 87.154C372.378 86.5704 372.67 85.8101 372.67 84.8729V72.7512C372.67 72.6628 372.697 72.5921 372.75 72.539C372.82 72.4683 372.9 72.4329 372.988 72.4329H376.092C376.18 72.4329 376.251 72.4683 376.304 72.539C376.375 72.5921 376.41 72.6628 376.41 72.7512V84.8463C376.41 86.1018 376.118 87.2159 375.535 88.1884C374.969 89.1433 374.164 89.886 373.121 90.4165C372.095 90.947 370.902 91.2122 369.54 91.2122ZM389.802 72.4064C390.969 72.4064 391.995 72.6451 392.879 73.1226C393.763 73.6 394.444 74.2808 394.922 75.1649C395.417 76.0314 395.664 77.0305 395.664 78.1622C395.664 79.2762 395.408 80.2576 394.895 81.1064C394.4 81.9552 393.693 82.6183 392.773 83.0957C391.871 83.5555 390.828 83.7854 389.643 83.7854H385.877C385.788 83.7854 385.744 83.8296 385.744 83.918V90.6817C385.744 90.7701 385.709 90.8497 385.638 90.9204C385.585 90.9735 385.514 91 385.426 91H382.322C382.234 91 382.154 90.9735 382.084 90.9204C382.031 90.8497 382.004 90.7701 382.004 90.6817V72.7247C382.004 72.6363 382.031 72.5655 382.084 72.5125C382.154 72.4418 382.234 72.4064 382.322 72.4064H389.802ZM389.245 80.7881C390.059 80.7881 390.713 80.5582 391.208 80.0985C391.703 79.621 391.951 79.0021 391.951 78.2418C391.951 77.4637 391.703 76.836 391.208 76.3585C390.713 75.8811 390.059 75.6424 389.245 75.6424H385.877C385.788 75.6424 385.744 75.6866 385.744 75.775V80.6555C385.744 80.7439 385.788 80.7881 385.877 80.7881H389.245ZM400.934 91C400.846 91 400.766 90.9735 400.695 90.9204C400.642 90.8497 400.616 90.7701 400.616 90.6817V72.7512C400.616 72.6628 400.642 72.5921 400.695 72.539C400.766 72.4683 400.846 72.4329 400.934 72.4329H407.565C408.891 72.4329 410.05 72.6716 411.04 73.1491C412.048 73.6088 412.826 74.2631 413.374 75.1119C413.922 75.9607 414.196 76.9421 414.196 78.0561V85.3768C414.196 86.4909 413.922 87.4723 413.374 88.321C412.826 89.1698 412.048 89.8329 411.04 90.3104C410.05 90.7701 408.891 91 407.565 91H400.934ZM404.356 87.6579C404.356 87.7463 404.4 87.7905 404.488 87.7905H407.698C408.511 87.7905 409.165 87.5165 409.661 86.9683C410.173 86.4201 410.439 85.6863 410.456 84.7668V78.6662C410.456 77.7466 410.2 77.0128 409.687 76.4646C409.192 75.9165 408.52 75.6424 407.671 75.6424H404.488C404.4 75.6424 404.356 75.6866 404.356 75.775V87.6579ZM430.458 91C430.281 91 430.166 90.9116 430.113 90.7348L429.317 88.1354C429.282 88.0646 429.238 88.0293 429.185 88.0293H422.66C422.607 88.0293 422.562 88.0646 422.527 88.1354L421.758 90.7348C421.705 90.9116 421.59 91 421.413 91H418.044C417.938 91 417.859 90.9735 417.806 90.9204C417.753 90.8497 417.744 90.7524 417.779 90.6287L423.508 72.6982C423.561 72.5213 423.676 72.4329 423.853 72.4329H428.018C428.194 72.4329 428.309 72.5213 428.362 72.6982L434.092 90.6287C434.109 90.664 434.118 90.7082 434.118 90.7613C434.118 90.9204 434.021 91 433.826 91H430.458ZM423.482 84.979C423.464 85.0851 423.5 85.1381 423.588 85.1381H428.256C428.362 85.1381 428.398 85.0851 428.362 84.979L425.975 77.1012C425.957 77.0305 425.931 77.004 425.896 77.0216C425.86 77.0216 425.834 77.0482 425.816 77.1012L423.482 84.979ZM449.634 72.4329C449.722 72.4329 449.793 72.4683 449.846 72.539C449.917 72.5921 449.952 72.6628 449.952 72.7512V75.3506C449.952 75.439 449.917 75.5186 449.846 75.5893C449.793 75.6424 449.722 75.6689 449.634 75.6689H444.886C444.798 75.6689 444.753 75.7131 444.753 75.8015V90.6817C444.753 90.7701 444.718 90.8497 444.647 90.9204C444.594 90.9735 444.524 91 444.435 91H441.332C441.243 91 441.164 90.9735 441.093 90.9204C441.04 90.8497 441.013 90.7701 441.013 90.6817V75.8015C441.013 75.7131 440.969 75.6689 440.881 75.6689H436.266C436.177 75.6689 436.098 75.6424 436.027 75.5893C435.974 75.5186 435.947 75.439 435.947 75.3506V72.7512C435.947 72.6628 435.974 72.5921 436.027 72.539C436.098 72.4683 436.177 72.4329 436.266 72.4329H449.634ZM467.882 75.3241C467.882 75.4125 467.846 75.4921 467.776 75.5628C467.722 75.6159 467.652 75.6424 467.563 75.6424H458.863C458.775 75.6424 458.731 75.6866 458.731 75.775V79.8863C458.731 79.9747 458.775 80.0189 458.863 80.0189H464.566C464.654 80.0189 464.725 80.0543 464.778 80.125C464.849 80.178 464.884 80.2488 464.884 80.3372V82.9101C464.884 82.9985 464.849 83.078 464.778 83.1488C464.725 83.2018 464.654 83.2284 464.566 83.2284H458.863C458.775 83.2284 458.731 83.2726 458.731 83.361V87.6579C458.731 87.7463 458.775 87.7905 458.863 87.7905H467.563C467.652 87.7905 467.722 87.8259 467.776 87.8966C467.846 87.9497 467.882 88.0204 467.882 88.1088V90.6817C467.882 90.7701 467.846 90.8497 467.776 90.9204C467.722 90.9735 467.652 91 467.563 91H455.309C455.221 91 455.141 90.9735 455.07 90.9204C455.017 90.8497 454.991 90.7701 454.991 90.6817V72.7512C454.991 72.6628 455.017 72.5921 455.07 72.539C455.141 72.4683 455.221 72.4329 455.309 72.4329H467.563C467.652 72.4329 467.722 72.4683 467.776 72.539C467.846 72.5921 467.882 72.6628 467.882 72.7512V75.3241Z"></path>
</g>
<g clip-path="url(#clip2_10415_301309)">
<path fill="#8F1E1C" d="M130.483 367.445C110.068 367.445 91.5208 369.9 77.7891 373.899V408.065C91.5208 412.064 110.068 414.518 130.483 414.518C153.848 414.518 174.766 411.304 188.816 406.236V375.728C174.766 370.66 153.848 367.445 130.483 367.445Z"></path>
<path fill="#8F1E1C" d="M189.729 398.353C189.131 396.699 189.011 394.607 189.518 392.59C190.426 388.978 192.995 386.976 195.259 388.118C195.82 388.401 196.309 388.852 196.714 389.423C196.751 389.423 196.788 389.423 196.825 389.426C196.825 389.426 203.735 397.662 197.339 407.416C197.2 407.97 185.47 421.641 182.754 422.076C180.977 422.361 185.064 408.118 189.729 398.353Z"></path>
<path fill="#8F1E1C" d="M76.3695 396.735C77.1915 395.241 77.4796 393.201 77.0235 391.086C76.2068 387.299 73.3154 384.71 70.5654 385.303C69.8833 385.45 69.2743 385.78 68.7561 386.249C68.7124 386.24 68.6687 386.232 68.6251 386.225C68.6251 386.225 59.8949 392.732 66.7552 403.893C66.8801 404.474 79.7594 420.773 82.9325 421.847C85.0092 422.55 81.1882 407.497 76.3695 396.735Z"></path>
<path fill="#E33A25" d="M64.1158 397.672L64.1169 397.674C64.1453 397.696 64.1718 397.717 64.1158 397.672Z"></path>
<path fill="#E43A25" d="M203.019 386.018C202.883 385.543 202.747 385.068 202.607 384.597L207.365 377.704C207.851 377.002 207.95 376.091 207.633 375.291C207.317 374.496 206.627 373.925 205.81 373.785L197.763 372.42C197.451 371.784 197.124 371.157 196.797 370.536L200.177 362.796C200.525 362.007 200.451 361.091 199.99 360.376C199.531 359.657 198.751 359.237 197.92 359.269L189.754 359.566C189.331 359.016 188.902 358.47 188.463 357.934L190.34 349.639C190.53 348.796 190.29 347.915 189.704 347.303C189.12 346.693 188.272 346.441 187.466 346.638L179.512 348.594C178.997 348.139 178.473 347.689 177.944 347.249L178.23 338.732C178.261 337.87 177.859 337.051 177.169 336.573C176.479 336.091 175.604 336.019 174.849 336.376L167.429 339.904C166.831 339.561 166.23 339.222 165.623 338.893L164.312 330.501C164.179 329.651 163.632 328.929 162.866 328.599C162.102 328.267 161.227 328.374 160.556 328.879L153.94 333.843C153.289 333.626 152.635 333.419 151.972 333.221L149.12 325.262C148.83 324.451 148.162 323.856 147.347 323.688C146.534 323.522 145.698 323.803 145.135 324.433L139.566 330.663C138.892 330.585 138.219 330.515 137.543 330.456L133.244 323.212C132.808 322.478 132.039 322.031 131.21 322.031C130.382 322.031 129.611 322.478 129.179 323.212L124.878 330.456C124.203 330.515 123.526 330.585 122.854 330.663L117.284 324.433C116.721 323.803 115.881 323.522 115.072 323.688C114.257 323.857 113.587 324.451 113.299 325.262L110.445 333.221C109.784 333.419 109.129 333.628 108.476 333.843L101.863 328.879C101.19 328.373 100.315 328.266 99.5496 328.599C98.7868 328.929 98.2374 329.651 98.1053 330.501L96.7931 338.893C96.1861 339.222 95.5851 339.559 94.9859 339.904L87.5662 336.376C86.8128 336.017 85.9333 336.091 85.2471 336.573C84.5577 337.051 84.1549 337.87 84.1863 338.732L84.4709 347.249C83.9428 347.689 83.4203 348.139 82.9026 348.594L74.9499 346.638C74.1418 346.442 73.2951 346.693 72.7103 347.303C72.1218 347.915 71.8834 348.796 72.0724 349.639L73.9457 357.934C73.5112 358.472 73.0811 359.016 72.6596 359.566L64.4935 359.269C63.6692 359.245 62.8826 359.657 62.4222 360.376C61.9608 361.091 61.891 362.007 62.2344 362.796L65.6174 370.536C65.2888 371.157 64.9623 371.784 64.6483 372.42L56.6019 373.785C55.7845 373.923 55.0954 374.494 54.7775 375.291C54.4616 376.091 54.5641 377.002 55.0466 377.704L59.8062 384.597C59.7694 384.719 59.7356 384.842 59.6992 384.964L57.0839 387.742L64.1157 397.675C64.1157 397.675 131.602 428.806 194.202 398.202C201.353 396.919 203.019 386.018 203.019 386.018Z"></path>
<path fill="#E43A25" d="M66.3079 399.397C68.0088 397.464 72.1409 395.124 71.8244 392.22C71.2578 387.02 66.9459 383.225 62.1936 383.743C61.015 383.871 59.9204 384.253 58.9486 384.834C58.8769 384.817 58.8051 384.801 58.7333 384.788C58.7333 384.788 42.6615 392.678 51.822 408.463C51.9084 409.26 70.0987 432.605 75.2073 434.383C78.5508 435.547 72.1193 414.433 66.3079 399.397Z"></path>
<path fill="#E43A25" d="M196.883 398.707C194.914 397.048 189.724 395.541 189.606 392.622C189.396 387.396 193.097 383.003 197.874 382.811C199.059 382.763 200.198 382.979 201.245 383.409C201.313 383.382 201.382 383.356 201.451 383.332C201.451 383.332 218.514 388.753 211.794 405.722C211.827 406.522 197.299 432.306 192.51 434.821C189.376 436.468 193.364 414.438 196.883 398.707Z"></path>
<path fill="#E43A25" d="M78.6435 398.836C78.6435 398.836 78.429 420.129 99.2958 424.88L103.647 416.139C103.647 416.139 88.5264 417.601 87.3633 398.836H78.6435Z"></path>
<path fill="#E43A25" d="M184.912 398.836C184.912 398.836 185.126 420.129 164.26 424.88L159.909 416.139C159.909 416.139 175.029 417.601 176.192 398.836H184.912Z"></path>
<path fill="#E43A25" d="M169.838 420.545C166.698 412.955 156.564 409.941 147.203 413.814C138.964 417.223 134.077 424.83 135.165 431.78C141.67 431.679 148.648 431.257 155.44 430.273C155.44 430.273 151.433 436.75 145.537 442.402C149.502 443.426 154.126 443.142 158.576 441.301C167.937 437.428 172.979 428.135 169.838 420.545Z"></path>
<path fill="#E43A25" d="M111.771 429.906C111.771 429.906 120.332 431.038 132.036 431.326C133.061 423.958 127.479 416.16 118.574 413.143C108.736 409.811 98.5697 413.576 95.8674 421.554C93.165 429.532 98.9499 438.7 108.788 442.033C113.149 443.511 117.574 443.592 121.386 442.531C115.661 436.869 111.771 429.906 111.771 429.906Z"></path>
<rect fill="#0E113C" rx="4.37634" height="15.3172" width="8.75269" y="379.766" x="134.601"></rect>
<rect stroke-width="1.09409" stroke-opacity="0.2" stroke="#0E113C" rx="4.92339" height="16.4113" width="9.84677" y="379.219" x="134.054"></rect>
<rect fill="#D5D6DE" rx="1.64113" height="4.37634" width="3.28226" y="381.953" x="138.978"></rect>
<rect fill="#0E113C" rx="4.37634" height="15.3172" width="8.75269" y="375" x="163"></rect>
<rect stroke-width="1.09409" stroke-opacity="0.2" stroke="#0E113C" rx="4.92339" height="16.4113" width="9.84677" y="374.453" x="162.453"></rect>
<rect fill="#D5D6DE" rx="1.64113" height="4.37634" width="3.28226" y="377.188" x="167.376"></rect>
</g>
</g>
<defs>
<filter color-interpolation-filters="sRGB" filterUnits="userSpaceOnUse" height="391.774" width="391.773" y="18.7437" x="491.24" id="filter0_dddddd_10415_301309">
<feFlood result="BackgroundImageFix" flood-opacity="0"></feFlood>
<feColorMatrix result="hardAlpha" values="0 0 0 0 0 0 0 0 0 0 0 0 0 0 0 0 0 0 127 0" type="matrix" in="SourceAlpha"></feColorMatrix>
<feOffset dy="-0.0138891"></feOffset>
<feGaussianBlur stdDeviation="1.13891"></feGaussianBlur>
<feColorMatrix values="0 0 0 0 0.282353 0 0 0 0 0.501961 0 0 0 0 1 0 0 0 0.143384 0" type="matrix"></feColorMatrix>
<feBlend result="effect1_dropShadow_10415_301309" in2="BackgroundImageFix" mode="normal"></feBlend>
<feColorMatrix result="hardAlpha" values="0 0 0 0 0 0 0 0 0 0 0 0 0 0 0 0 0 0 127 0" type="matrix" in="SourceAlpha"></feColorMatrix>
<feOffset dy="-0.0333775"></feOffset>
<feGaussianBlur stdDeviation="2.73696"></feGaussianBlur>
<feColorMatrix values="0 0 0 0 0.282353 0 0 0 0 0.501961 0 0 0 0 1 0 0 0 0.205985 0" type="matrix"></feColorMatrix>
<feBlend result="effect2_dropShadow_10415_301309" in2="effect1_dropShadow_10415_301309" mode="normal"></feBlend>
<feColorMatrix result="hardAlpha" values="0 0 0 0 0 0 0 0 0 0 0 0 0 0 0 0 0 0 127 0" type="matrix" in="SourceAlpha"></feColorMatrix>
<feOffset dy="-0.0628469"></feOffset>
<feGaussianBlur stdDeviation="5.15345"></feGaussianBlur>
<feColorMatrix values="0 0 0 0 0.282353 0 0 0 0 0.501961 0 0 0 0 1 0 0 0 0.255 0" type="matrix"></feColorMatrix>
<feBlend result="effect3_dropShadow_10415_301309" in2="effect2_dropShadow_10415_301309" mode="normal"></feBlend>
<feColorMatrix result="hardAlpha" values="0 0 0 0 0 0 0 0 0 0 0 0 0 0 0 0 0 0 127 0" type="matrix" in="SourceAlpha"></feColorMatrix>
<feOffset dy="-0.112108"></feOffset>
<feGaussianBlur stdDeviation="9.19287"></feGaussianBlur>
<feColorMatrix values="0 0 0 0 0.282353 0 0 0 0 0.501961 0 0 0 0 1 0 0 0 0.304015 0" type="matrix"></feColorMatrix>
<feBlend result="effect4_dropShadow_10415_301309" in2="effect3_dropShadow_10415_301309" mode="normal"></feBlend>
<feColorMatrix result="hardAlpha" values="0 0 0 0 0 0 0 0 0 0 0 0 0 0 0 0 0 0 127 0" type="matrix" in="SourceAlpha"></feColorMatrix>
<feOffset dy="-0.209686"></feOffset>
<feGaussianBlur stdDeviation="17.1942"></feGaussianBlur>
<feColorMatrix values="0 0 0 0 0.282353 0 0 0 0 0.501961 0 0 0 0 1 0 0 0 0.366616 0" type="matrix"></feColorMatrix>
<feBlend result="effect5_dropShadow_10415_301309" in2="effect4_dropShadow_10415_301309" mode="normal"></feBlend>
<feColorMatrix result="hardAlpha" values="0 0 0 0 0 0 0 0 0 0 0 0 0 0 0 0 0 0 127 0" type="matrix" in="SourceAlpha"></feColorMatrix>
<feOffset dy="-0.50191"></feOffset>
<feGaussianBlur stdDeviation="31.3694"></feGaussianBlur>
<feColorMatrix values="0 0 0 0 0.282353 0 0 0 0 0.501961 0 0 0 0 1 0 0 0 0.51 0" type="matrix"></feColorMatrix>
<feBlend result="effect6_dropShadow_10415_301309" in2="effect5_dropShadow_10415_301309" mode="normal"></feBlend>
<feBlend result="shape" in2="effect6_dropShadow_10415_301309" in="SourceGraphic" mode="normal"></feBlend>
</filter>
<filter color-interpolation-filters="sRGB" filterUnits="userSpaceOnUse" height="353.135" width="550.649" y="56.0873" x="-24.2736" id="filter1_dddddd_10415_301309">
<feFlood result="BackgroundImageFix" flood-opacity="0"></feFlood>
<feColorMatrix result="hardAlpha" values="0 0 0 0 0 0 0 0 0 0 0 0 0 0 0 0 0 0 127 0" type="matrix" in="SourceAlpha"></feColorMatrix>
<feOffset dy="0.751766"></feOffset>
<feGaussianBlur stdDeviation="1.11373"></feGaussianBlur>
<feColorMatrix values="0 0 0 0 0 0 0 0 0 0 0 0 0 0 0 0 0 0 0.149007 0" type="matrix"></feColorMatrix>
<feBlend result="effect1_dropShadow_10415_301309" in2="BackgroundImageFix" mode="normal"></feBlend>
<feColorMatrix result="hardAlpha" values="0 0 0 0 0 0 0 0 0 0 0 0 0 0 0 0 0 0 127 0" type="matrix" in="SourceAlpha"></feColorMatrix>
<feOffset dy="1.8066"></feOffset>
<feGaussianBlur stdDeviation="2.67644"></feGaussianBlur>
<feColorMatrix values="0 0 0 0 0 0 0 0 0 0 0 0 0 0 0 0 0 0 0.214063 0" type="matrix"></feColorMatrix>
<feBlend result="effect2_dropShadow_10415_301309" in2="effect1_dropShadow_10415_301309" mode="normal"></feBlend>
<feColorMatrix result="hardAlpha" values="0 0 0 0 0 0 0 0 0 0 0 0 0 0 0 0 0 0 127 0" type="matrix" in="SourceAlpha"></feColorMatrix>
<feOffset dy="3.40166"></feOffset>
<feGaussianBlur stdDeviation="5.0395"></feGaussianBlur>
<feColorMatrix values="0 0 0 0 0 0 0 0 0 0 0 0 0 0 0 0 0 0 0.265 0" type="matrix"></feColorMatrix>
<feBlend result="effect3_dropShadow_10415_301309" in2="effect2_dropShadow_10415_301309" mode="normal"></feBlend>
<feColorMatrix result="hardAlpha" values="0 0 0 0 0 0 0 0 0 0 0 0 0 0 0 0 0 0 127 0" type="matrix" in="SourceAlpha"></feColorMatrix>
<feOffset dy="6.06799"></feOffset>
<feGaussianBlur stdDeviation="8.98961"></feGaussianBlur>
<feColorMatrix values="0 0 0 0 0 0 0 0 0 0 0 0 0 0 0 0 0 0 0.315937 0" type="matrix"></feColorMatrix>
<feBlend result="effect4_dropShadow_10415_301309" in2="effect3_dropShadow_10415_301309" mode="normal"></feBlend>
<feColorMatrix result="hardAlpha" values="0 0 0 0 0 0 0 0 0 0 0 0 0 0 0 0 0 0 127 0" type="matrix" in="SourceAlpha"></feColorMatrix>
<feOffset dy="11.3495"></feOffset>
<feGaussianBlur stdDeviation="16.8141"></feGaussianBlur>
<feColorMatrix values="0 0 0 0 0 0 0 0 0 0 0 0 0 0 0 0 0 0 0.380993 0" type="matrix"></feColorMatrix>
<feBlend result="effect5_dropShadow_10415_301309" in2="effect4_dropShadow_10415_301309" mode="normal"></feBlend>
<feColorMatrix result="hardAlpha" values="0 0 0 0 0 0 0 0 0 0 0 0 0 0 0 0 0 0 127 0" type="matrix" in="SourceAlpha"></feColorMatrix>
<feOffset dy="27.1665"></feOffset>
<feGaussianBlur stdDeviation="40.2466"></feGaussianBlur>
<feColorMatrix values="0 0 0 0 0 0 0 0 0 0 0 0 0 0 0 0 0 0 0.53 0" type="matrix"></feColorMatrix>
<feBlend result="effect6_dropShadow_10415_301309" in2="effect5_dropShadow_10415_301309" mode="normal"></feBlend>
<feBlend result="shape" in2="effect6_dropShadow_10415_301309" in="SourceGraphic" mode="normal"></feBlend>
</filter>
<filter color-interpolation-filters="sRGB" filterUnits="userSpaceOnUse" height="183.788" width="580.981" y="17.656" x="-30.7409" id="filter2_dddddd_10415_301309">
<feFlood result="BackgroundImageFix" flood-opacity="0"></feFlood>
<feColorMatrix result="hardAlpha" values="0 0 0 0 0 0 0 0 0 0 0 0 0 0 0 0 0 0 127 0" type="matrix" in="SourceAlpha"></feColorMatrix>
<feOffset dy="0.76919"></feOffset>
<feGaussianBlur stdDeviation="1.13954"></feGaussianBlur>
<feColorMatrix values="0 0 0 0 0 0 0 0 0 0 0 0 0 0 0 0 0 0 0.149007 0" type="matrix"></feColorMatrix>
<feBlend result="effect1_dropShadow_10415_301309" in2="BackgroundImageFix" mode="normal"></feBlend>
<feColorMatrix result="hardAlpha" values="0 0 0 0 0 0 0 0 0 0 0 0 0 0 0 0 0 0 127 0" type="matrix" in="SourceAlpha"></feColorMatrix>
<feOffset dy="1.84847"></feOffset>
<feGaussianBlur stdDeviation="2.73847"></feGaussianBlur>
<feColorMatrix values="0 0 0 0 0 0 0 0 0 0 0 0 0 0 0 0 0 0 0.214063 0" type="matrix"></feColorMatrix>
<feBlend result="effect2_dropShadow_10415_301309" in2="effect1_dropShadow_10415_301309" mode="normal"></feBlend>
<feColorMatrix result="hardAlpha" values="0 0 0 0 0 0 0 0 0 0 0 0 0 0 0 0 0 0 127 0" type="matrix" in="SourceAlpha"></feColorMatrix>
<feOffset dy="3.4805"></feOffset>
<feGaussianBlur stdDeviation="5.1563"></feGaussianBlur>
<feColorMatrix values="0 0 0 0 0 0 0 0 0 0 0 0 0 0 0 0 0 0 0.265 0" type="matrix"></feColorMatrix>
<feBlend result="effect3_dropShadow_10415_301309" in2="effect2_dropShadow_10415_301309" mode="normal"></feBlend>
<feColorMatrix result="hardAlpha" values="0 0 0 0 0 0 0 0 0 0 0 0 0 0 0 0 0 0 127 0" type="matrix" in="SourceAlpha"></feColorMatrix>
<feOffset dy="6.20862"></feOffset>
<feGaussianBlur stdDeviation="9.19796"></feGaussianBlur>
<feColorMatrix values="0 0 0 0 0 0 0 0 0 0 0 0 0 0 0 0 0 0 0.315937 0" type="matrix"></feColorMatrix>
<feBlend result="effect4_dropShadow_10415_301309" in2="effect3_dropShadow_10415_301309" mode="normal"></feBlend>
<feColorMatrix result="hardAlpha" values="0 0 0 0 0 0 0 0 0 0 0 0 0 0 0 0 0 0 127 0" type="matrix" in="SourceAlpha"></feColorMatrix>
<feOffset dy="11.6125"></feOffset>
<feGaussianBlur stdDeviation="17.2038"></feGaussianBlur>
<feColorMatrix values="0 0 0 0 0 0 0 0 0 0 0 0 0 0 0 0 0 0 0.380993 0" type="matrix"></feColorMatrix>
<feBlend result="effect5_dropShadow_10415_301309" in2="effect4_dropShadow_10415_301309" mode="normal"></feBlend>
<feColorMatrix result="hardAlpha" values="0 0 0 0 0 0 0 0 0 0 0 0 0 0 0 0 0 0 127 0" type="matrix" in="SourceAlpha"></feColorMatrix>
<feOffset dy="27.7961"></feOffset>
<feGaussianBlur stdDeviation="41.1794"></feGaussianBlur>
<feColorMatrix values="0 0 0 0 0 0 0 0 0 0 0 0 0 0 0 0 0 0 0.53 0" type="matrix"></feColorMatrix>
<feBlend result="effect6_dropShadow_10415_301309" in2="effect5_dropShadow_10415_301309" mode="normal"></feBlend>
<feBlend result="shape" in2="effect6_dropShadow_10415_301309" in="SourceGraphic" mode="normal"></feBlend>
</filter>
<linearGradient gradientUnits="userSpaceOnUse" y2="474" x2="422" y1="0" x1="422" id="paint0_linear_10415_301309">
<stop stop-color="#090A15"></stop>
<stop stop-color="#0D0F3A" offset="0.955752"></stop>
</linearGradient>
<radialGradient gradientTransform="translate(422 355.876) rotate(90) scale(529.676 495.147)" gradientUnits="userSpaceOnUse" r="1" cy="0" cx="0" id="paint1_radial_10415_301309">
<stop stop-opacity="0.11" stop-color="#5A67D8"></stop>
<stop stop-opacity="0" stop-color="#5A67D8" offset="1"></stop>
</radialGradient>
<radialGradient gradientTransform="translate(640.5 386) rotate(119.477) scale(444.034 455.483)" gradientUnits="userSpaceOnUse" r="1" cy="0" cx="0" id="paint2_radial_10415_301309">
<stop stop-color="#5A67D8"></stop>
<stop stop-opacity="0" stop-color="#5A67D8" offset="1"></stop>
</radialGradient>
<radialGradient gradientTransform="translate(526.922 216.984) scale(748.744 164.988)" gradientUnits="userSpaceOnUse" r="1" cy="0" cx="0" id="paint3_radial_10415_301309">
<stop stop-color="#C3DAFE"></stop>
<stop stop-opacity="0" stop-color="#C3DAFE" offset="1"></stop>
</radialGradient>
<linearGradient gradientUnits="userSpaceOnUse" y2="1129.53" x2="110.5" y1="515.46" x1="110.5" id="paint4_linear_10415_301309">
<stop stop-opacity="0" stop-color="#C3DAFE"></stop>
<stop stop-color="#C3DAFE" offset="1"></stop>
</linearGradient>
<linearGradient gradientUnits="userSpaceOnUse" y2="988.527" x2="106" y1="374.46" x1="106" id="paint5_linear_10415_301309">
<stop stop-opacity="0" stop-color="#C3DAFE"></stop>
<stop stop-color="#C3DAFE" offset="1"></stop>
</linearGradient>
<linearGradient gradientUnits="userSpaceOnUse" y2="1096.53" x2="103" y1="482.46" x1="103" id="paint6_linear_10415_301309">
<stop stop-opacity="0" stop-color="#C3DAFE"></stop>
<stop stop-color="#C3DAFE" offset="1"></stop>
</linearGradient>
<linearGradient gradientUnits="userSpaceOnUse" y2="993.234" x2="112.5" y1="348.517" x1="112.5" id="paint7_linear_10415_301309">
<stop stop-opacity="0" stop-color="#C3DAFE"></stop>
<stop stop-color="#C3DAFE" offset="1"></stop>
</linearGradient>
<clipPath id="clip0_10415_301309">
<rect fill="white" height="474" width="844"></rect>
</clipPath>
<clipPath id="clip1_10415_301309">
<rect transform="translate(553.978 191.266) rotate(-34.8371)" fill="white" height="191.301" width="191.301"></rect>
</clipPath>
<clipPath id="clip2_10415_301309">
<rect transform="translate(49 322)" fill="white" height="121.303" width="164.404"></rect>
</clipPath>
</defs>
</svg>
