<svg xmlns="http://www.w3.org/2000/svg" fill="none" viewBox="0 0 844 474" height="474" width="844">
<rect fill="url(#paint0_radial_7085_1213)" height="474" width="844"></rect>
<path fill="url(#paint1_linear_7085_1213)" d="M437 338.5C360.785 338.5 299 276.268 299 199.5L437 199.5L437 338.5Z"></path>
<path fill="url(#paint2_linear_7085_1213)" d="M437 88C375.696 88 326 137.92 326 199.5L437 199.5L437 88Z"></path>
<path fill="url(#paint3_linear_7085_1213)" d="M437 88C498.304 88 548 137.92 548 199.5L437 199.5L437 88Z"></path>
<path fill="url(#paint4_linear_7085_1213)" d="M437 311.5C498.304 311.5 548 261.58 548 200L437 200L437 311.5Z"></path>
<path fill-opacity="0.2" fill="#4299E1" d="M94.7184 398.3C95.9017 398.3 96.9434 398.55 97.8434 399.05C98.7434 399.533 99.4434 400.217 99.9434 401.1C100.443 401.983 100.693 403.008 100.693 404.175V410.475C100.693 411.975 100.268 413.225 99.4184 414.225C98.585 415.225 97.4517 415.842 96.0184 416.075C95.9517 416.092 95.9184 416.133 95.9184 416.2V418.475C95.9184 418.642 95.835 418.725 95.6684 418.725H93.7684C93.6017 418.725 93.5184 418.642 93.5184 418.475V416.2C93.5184 416.133 93.485 416.092 93.4184 416.075C91.985 415.842 90.8434 415.225 89.9934 414.225C89.16 413.225 88.7434 411.975 88.7434 410.475V404.175C88.7434 403.008 88.9934 401.983 89.4934 401.1C89.9934 400.217 90.6934 399.533 91.5934 399.05C92.4934 398.55 93.535 398.3 94.7184 398.3ZM98.2934 404.05C98.2934 402.95 97.96 402.067 97.2934 401.4C96.6434 400.717 95.785 400.375 94.7184 400.375C93.6517 400.375 92.785 400.717 92.1184 401.4C91.4684 402.067 91.1434 402.95 91.1434 404.05V410.45C91.1434 411.55 91.4684 412.442 92.1184 413.125C92.785 413.792 93.6517 414.125 94.7184 414.125C95.785 414.125 96.6434 413.792 97.2934 413.125C97.96 412.442 98.2934 411.55 98.2934 410.45V404.05ZM106.244 398.575C106.344 398.525 106.452 398.5 106.569 398.5H108.544C108.711 398.5 108.794 398.583 108.794 398.75V415.75C108.794 415.917 108.711 416 108.544 416H106.644C106.477 416 106.394 415.917 106.394 415.75V401.075C106.394 401.042 106.377 401.017 106.344 401C106.327 400.983 106.302 400.983 106.269 401L103.644 401.9C103.611 401.917 103.569 401.925 103.519 401.925C103.419 401.925 103.361 401.858 103.344 401.725L103.244 400.3C103.244 400.133 103.294 400.033 103.394 400L106.244 398.575ZM116.713 416C116.53 416 116.463 415.908 116.513 415.725L122.388 398.7C122.438 398.567 122.538 398.5 122.688 398.5H124.563C124.746 398.5 124.813 398.592 124.763 398.775L118.888 415.8C118.838 415.933 118.738 416 118.588 416H116.713ZM135.913 413.8C135.896 413.833 135.896 413.867 135.913 413.9C135.929 413.917 135.954 413.925 135.988 413.925H143.513C143.679 413.925 143.763 414.008 143.763 414.175V415.75C143.763 415.917 143.679 416 143.513 416H133.038C132.871 416 132.788 415.917 132.788 415.75V414.225C132.788 414.108 132.829 414.008 132.913 413.925C133.479 413.275 134.779 411.75 136.813 409.35L138.538 407.275C140.088 405.425 140.863 403.992 140.863 402.975C140.863 402.192 140.596 401.567 140.063 401.1C139.546 400.617 138.854 400.375 137.988 400.375C137.121 400.375 136.429 400.617 135.913 401.1C135.396 401.583 135.146 402.217 135.163 403V403.75C135.163 403.917 135.079 404 134.913 404H132.988C132.821 404 132.738 403.917 132.738 403.75V402.675C132.771 401.808 133.013 401.042 133.463 400.375C133.929 399.708 134.554 399.2 135.338 398.85C136.121 398.483 137.004 398.3 137.988 398.3C139.054 398.3 139.988 398.5 140.788 398.9C141.588 399.3 142.204 399.85 142.638 400.55C143.071 401.25 143.288 402.042 143.288 402.925C143.288 404.308 142.538 405.942 141.038 407.825C140.371 408.675 139.579 409.633 138.663 410.7C137.746 411.75 136.829 412.783 135.913 413.8ZM149.018 398.575C149.118 398.525 149.226 398.5 149.343 398.5H151.318C151.484 398.5 151.568 398.583 151.568 398.75V415.75C151.568 415.917 151.484 416 151.318 416H149.418C149.251 416 149.168 415.917 149.168 415.75V401.075C149.168 401.042 149.151 401.017 149.118 401C149.101 400.983 149.076 400.983 149.043 401L146.418 401.9C146.384 401.917 146.343 401.925 146.293 401.925C146.193 401.925 146.134 401.858 146.118 401.725L146.018 400.3C146.018 400.133 146.068 400.033 146.168 400L149.018 398.575Z"></path>
<path fill-opacity="0.2" fill="#4299E1" d="M508.558 398.3C509.741 398.3 510.783 398.55 511.683 399.05C512.583 399.533 513.283 400.217 513.783 401.1C514.283 401.983 514.533 403.008 514.533 404.175V410.475C514.533 411.975 514.108 413.225 513.258 414.225C512.424 415.225 511.291 415.842 509.858 416.075C509.791 416.092 509.758 416.133 509.758 416.2V418.475C509.758 418.642 509.674 418.725 509.508 418.725H507.608C507.441 418.725 507.358 418.642 507.358 418.475V416.2C507.358 416.133 507.324 416.092 507.258 416.075C505.824 415.842 504.683 415.225 503.833 414.225C502.999 413.225 502.583 411.975 502.583 410.475V404.175C502.583 403.008 502.833 401.983 503.333 401.1C503.833 400.217 504.533 399.533 505.433 399.05C506.333 398.55 507.374 398.3 508.558 398.3ZM512.133 404.05C512.133 402.95 511.799 402.067 511.133 401.4C510.483 400.717 509.624 400.375 508.558 400.375C507.491 400.375 506.624 400.717 505.958 401.4C505.308 402.067 504.983 402.95 504.983 404.05V410.45C504.983 411.55 505.308 412.442 505.958 413.125C506.624 413.792 507.491 414.125 508.558 414.125C509.624 414.125 510.483 413.792 511.133 413.125C511.799 412.442 512.133 411.55 512.133 410.45V404.05ZM527.008 407.7C527.342 408.517 527.508 409.458 527.508 410.525C527.508 411.408 527.375 412.225 527.108 412.975C526.742 414.008 526.133 414.808 525.283 415.375C524.433 415.925 523.408 416.2 522.208 416.2C521.008 416.2 519.967 415.892 519.083 415.275C518.217 414.658 517.608 413.825 517.258 412.775C517.075 412.308 516.967 411.642 516.933 410.775C516.933 410.608 517.017 410.525 517.183 410.525H519.108C519.275 410.525 519.358 410.608 519.358 410.775C519.392 411.375 519.458 411.817 519.558 412.1C519.725 412.717 520.033 413.208 520.483 413.575C520.95 413.942 521.525 414.125 522.208 414.125C523.475 414.125 524.325 413.55 524.758 412.4C524.975 411.9 525.083 411.25 525.083 410.45C525.083 409.6 524.95 408.842 524.683 408.175C524.217 407.142 523.383 406.625 522.183 406.625C521.9 406.625 521.542 406.75 521.108 407C521.042 407.033 520.992 407.05 520.958 407.05C520.875 407.05 520.808 407.008 520.758 406.925L519.808 405.625C519.775 405.558 519.758 405.5 519.758 405.45C519.758 405.4 519.783 405.342 519.833 405.275L524.108 400.7C524.158 400.617 524.142 400.575 524.058 400.575H517.408C517.242 400.575 517.158 400.492 517.158 400.325V398.75C517.158 398.583 517.242 398.5 517.408 398.5H527.108C527.275 398.5 527.358 398.583 527.358 398.75V400.55C527.358 400.633 527.317 400.733 527.233 400.85L523.433 405C523.4 405.033 523.392 405.067 523.408 405.1C523.425 405.117 523.458 405.133 523.508 405.15C524.358 405.233 525.075 405.5 525.658 405.95C526.242 406.383 526.692 406.967 527.008 407.7ZM534.874 416C534.69 416 534.624 415.908 534.674 415.725L540.549 398.7C540.599 398.567 540.699 398.5 540.849 398.5H542.724C542.907 398.5 542.974 398.592 542.924 398.775L537.049 415.8C536.999 415.933 536.899 416 536.749 416H534.874ZM554.073 413.8C554.056 413.833 554.056 413.867 554.073 413.9C554.09 413.917 554.115 413.925 554.148 413.925H561.673C561.84 413.925 561.923 414.008 561.923 414.175V415.75C561.923 415.917 561.84 416 561.673 416H551.198C551.031 416 550.948 415.917 550.948 415.75V414.225C550.948 414.108 550.99 414.008 551.073 413.925C551.64 413.275 552.94 411.75 554.973 409.35L556.698 407.275C558.248 405.425 559.023 403.992 559.023 402.975C559.023 402.192 558.756 401.567 558.223 401.1C557.706 400.617 557.015 400.375 556.148 400.375C555.281 400.375 554.59 400.617 554.073 401.1C553.556 401.583 553.306 402.217 553.323 403V403.75C553.323 403.917 553.24 404 553.073 404H551.148C550.981 404 550.898 403.917 550.898 403.75V402.675C550.931 401.808 551.173 401.042 551.623 400.375C552.09 399.708 552.715 399.2 553.498 398.85C554.281 398.483 555.165 398.3 556.148 398.3C557.215 398.3 558.148 398.5 558.948 398.9C559.748 399.3 560.365 399.85 560.798 400.55C561.231 401.25 561.448 402.042 561.448 402.925C561.448 404.308 560.698 405.942 559.198 407.825C558.531 408.675 557.74 409.633 556.823 410.7C555.906 411.75 554.99 412.783 554.073 413.8ZM567.178 398.575C567.278 398.525 567.387 398.5 567.503 398.5H569.478C569.645 398.5 569.728 398.583 569.728 398.75V415.75C569.728 415.917 569.645 416 569.478 416H567.578C567.412 416 567.328 415.917 567.328 415.75V401.075C567.328 401.042 567.312 401.017 567.278 401C567.262 400.983 567.237 400.983 567.203 401L564.578 401.9C564.545 401.917 564.503 401.925 564.453 401.925C564.353 401.925 564.295 401.858 564.278 401.725L564.178 400.3C564.178 400.133 564.228 400.033 564.328 400L567.178 398.575Z"></path>
<path fill-opacity="0.2" fill="#4299E1" d="M300.314 398.3C301.497 398.3 302.539 398.55 303.439 399.05C304.339 399.533 305.039 400.217 305.539 401.1C306.039 401.983 306.289 403.008 306.289 404.175V410.475C306.289 411.975 305.864 413.225 305.014 414.225C304.18 415.225 303.047 415.842 301.614 416.075C301.547 416.092 301.514 416.133 301.514 416.2V418.475C301.514 418.642 301.43 418.725 301.264 418.725H299.364C299.197 418.725 299.114 418.642 299.114 418.475V416.2C299.114 416.133 299.08 416.092 299.014 416.075C297.58 415.842 296.439 415.225 295.589 414.225C294.755 413.225 294.339 411.975 294.339 410.475V404.175C294.339 403.008 294.589 401.983 295.089 401.1C295.589 400.217 296.289 399.533 297.189 399.05C298.089 398.55 299.13 398.3 300.314 398.3ZM303.889 404.05C303.889 402.95 303.555 402.067 302.889 401.4C302.239 400.717 301.38 400.375 300.314 400.375C299.247 400.375 298.38 400.717 297.714 401.4C297.064 402.067 296.739 402.95 296.739 404.05V410.45C296.739 411.55 297.064 412.442 297.714 413.125C298.38 413.792 299.247 414.125 300.314 414.125C301.38 414.125 302.239 413.792 302.889 413.125C303.555 412.442 303.889 411.55 303.889 410.45V404.05ZM312.064 413.8C312.048 413.833 312.048 413.867 312.064 413.9C312.081 413.917 312.106 413.925 312.139 413.925H319.664C319.831 413.925 319.914 414.008 319.914 414.175V415.75C319.914 415.917 319.831 416 319.664 416H309.189C309.023 416 308.939 415.917 308.939 415.75V414.225C308.939 414.108 308.981 414.008 309.064 413.925C309.631 413.275 310.931 411.75 312.964 409.35L314.689 407.275C316.239 405.425 317.014 403.992 317.014 402.975C317.014 402.192 316.748 401.567 316.214 401.1C315.698 400.617 315.006 400.375 314.139 400.375C313.273 400.375 312.581 400.617 312.064 401.1C311.548 401.583 311.298 402.217 311.314 403V403.75C311.314 403.917 311.231 404 311.064 404H309.139C308.973 404 308.889 403.917 308.889 403.75V402.675C308.923 401.808 309.164 401.042 309.614 400.375C310.081 399.708 310.706 399.2 311.489 398.85C312.273 398.483 313.156 398.3 314.139 398.3C315.206 398.3 316.139 398.5 316.939 398.9C317.739 399.3 318.356 399.85 318.789 400.55C319.223 401.25 319.439 402.042 319.439 402.925C319.439 404.308 318.689 405.942 317.189 407.825C316.523 408.675 315.731 409.633 314.814 410.7C313.898 411.75 312.981 412.783 312.064 413.8ZM327.118 416C326.935 416 326.868 415.908 326.918 415.725L332.793 398.7C332.843 398.567 332.943 398.5 333.093 398.5H334.968C335.151 398.5 335.218 398.592 335.168 398.775L329.293 415.8C329.243 415.933 329.143 416 328.993 416H327.118ZM346.317 413.8C346.301 413.833 346.301 413.867 346.317 413.9C346.334 413.917 346.359 413.925 346.392 413.925H353.917C354.084 413.925 354.167 414.008 354.167 414.175V415.75C354.167 415.917 354.084 416 353.917 416H343.442C343.276 416 343.192 415.917 343.192 415.75V414.225C343.192 414.108 343.234 414.008 343.317 413.925C343.884 413.275 345.184 411.75 347.217 409.35L348.942 407.275C350.492 405.425 351.267 403.992 351.267 402.975C351.267 402.192 351.001 401.567 350.467 401.1C349.951 400.617 349.259 400.375 348.392 400.375C347.526 400.375 346.834 400.617 346.317 401.1C345.801 401.583 345.551 402.217 345.567 403V403.75C345.567 403.917 345.484 404 345.317 404H343.392C343.226 404 343.142 403.917 343.142 403.75V402.675C343.176 401.808 343.417 401.042 343.867 400.375C344.334 399.708 344.959 399.2 345.742 398.85C346.526 398.483 347.409 398.3 348.392 398.3C349.459 398.3 350.392 398.5 351.192 398.9C351.992 399.3 352.609 399.85 353.042 400.55C353.476 401.25 353.692 402.042 353.692 402.925C353.692 404.308 352.942 405.942 351.442 407.825C350.776 408.675 349.984 409.633 349.067 410.7C348.151 411.75 347.234 412.783 346.317 413.8ZM359.422 398.575C359.522 398.525 359.631 398.5 359.747 398.5H361.722C361.889 398.5 361.972 398.583 361.972 398.75V415.75C361.972 415.917 361.889 416 361.722 416H359.822C359.656 416 359.572 415.917 359.572 415.75V401.075C359.572 401.042 359.556 401.017 359.522 401C359.506 400.983 359.481 400.983 359.447 401L356.822 401.9C356.789 401.917 356.747 401.925 356.697 401.925C356.597 401.925 356.539 401.858 356.522 401.725L356.422 400.3C356.422 400.133 356.472 400.033 356.572 400L359.422 398.575Z"></path>
<path fill="#4299E1" d="M693.669 398.3C694.935 398.3 696.052 398.558 697.019 399.075C697.985 399.592 698.735 400.325 699.269 401.275C699.802 402.225 700.069 403.325 700.069 404.575V410.175C700.069 411.658 699.669 412.917 698.869 413.95C698.069 414.967 696.969 415.642 695.569 415.975C695.502 415.992 695.469 416.033 695.469 416.1V418.15C695.469 418.233 695.435 418.3 695.369 418.35C695.319 418.417 695.252 418.45 695.169 418.45H692.244C692.16 418.45 692.085 418.417 692.019 418.35C691.969 418.3 691.944 418.233 691.944 418.15V416.125C691.944 416.058 691.91 416.017 691.844 416C690.444 415.667 689.335 414.983 688.519 413.95C687.702 412.917 687.294 411.658 687.294 410.175V404.575C687.294 403.325 687.56 402.233 688.094 401.3C688.627 400.35 689.377 399.617 690.344 399.1C691.31 398.567 692.419 398.3 693.669 398.3ZM696.544 404.4C696.544 403.483 696.277 402.742 695.744 402.175C695.227 401.608 694.535 401.325 693.669 401.325C692.819 401.325 692.127 401.608 691.594 402.175C691.077 402.742 690.819 403.483 690.819 404.4V410.1C690.819 411.017 691.077 411.758 691.594 412.325C692.127 412.892 692.819 413.175 693.669 413.175C694.535 413.175 695.227 412.892 695.744 412.325C696.277 411.758 696.544 411.017 696.544 410.1V404.4ZM714.738 408.375C714.821 408.375 714.888 408.408 714.938 408.475C715.005 408.525 715.038 408.592 715.038 408.675V411.2C715.038 411.283 715.005 411.358 714.938 411.425C714.888 411.475 714.821 411.5 714.738 411.5H713.663C713.58 411.5 713.538 411.542 713.538 411.625V415.7C713.538 415.783 713.505 415.858 713.438 415.925C713.388 415.975 713.321 416 713.238 416H710.313C710.23 416 710.155 415.975 710.088 415.925C710.038 415.858 710.013 415.783 710.013 415.7V411.625C710.013 411.542 709.971 411.5 709.888 411.5H702.213C702.13 411.5 702.055 411.475 701.988 411.425C701.938 411.358 701.913 411.283 701.913 411.2V409.2C701.913 409.1 701.938 408.975 701.988 408.825L706.488 398.725C706.555 398.575 706.671 398.5 706.838 398.5H709.963C710.08 398.5 710.155 398.533 710.188 398.6C710.238 398.65 710.238 398.733 710.188 398.85L706.013 408.225C705.996 408.258 705.996 408.292 706.013 408.325C706.03 408.358 706.055 408.375 706.088 408.375H709.888C709.971 408.375 710.013 408.333 710.013 408.25V405.15C710.013 405.067 710.038 405 710.088 404.95C710.155 404.883 710.23 404.85 710.313 404.85H713.238C713.321 404.85 713.388 404.883 713.438 404.95C713.505 405 713.538 405.067 713.538 405.15V408.25C713.538 408.333 713.58 408.375 713.663 408.375H714.738ZM722.079 416C721.829 416 721.746 415.883 721.829 415.65L728.254 398.725C728.304 398.575 728.421 398.5 728.604 398.5H731.504C731.754 398.5 731.838 398.617 731.754 398.85L725.329 415.775C725.279 415.925 725.163 416 724.979 416H722.079ZM743.876 412.825C743.842 412.858 743.834 412.892 743.851 412.925C743.867 412.958 743.901 412.975 743.951 412.975H750.726C750.809 412.975 750.876 413.008 750.926 413.075C750.992 413.125 751.026 413.192 751.026 413.275V415.7C751.026 415.783 750.992 415.858 750.926 415.925C750.876 415.975 750.809 416 750.726 416H739.476C739.392 416 739.317 415.975 739.251 415.925C739.201 415.858 739.176 415.783 739.176 415.7V413.4C739.176 413.25 739.226 413.125 739.326 413.025C740.142 412.225 740.976 411.358 741.826 410.425C742.676 409.475 743.209 408.883 743.426 408.65C743.892 408.1 744.367 407.575 744.851 407.075C746.367 405.392 747.126 404.142 747.126 403.325C747.126 402.742 746.917 402.267 746.501 401.9C746.084 401.517 745.542 401.325 744.876 401.325C744.209 401.325 743.667 401.517 743.251 401.9C742.834 402.267 742.626 402.758 742.626 403.375V404C742.626 404.083 742.592 404.158 742.526 404.225C742.476 404.275 742.409 404.3 742.326 404.3H739.376C739.292 404.3 739.217 404.275 739.151 404.225C739.101 404.158 739.076 404.083 739.076 404V402.825C739.126 401.925 739.409 401.133 739.926 400.45C740.442 399.75 741.126 399.217 741.976 398.85C742.842 398.483 743.809 398.3 744.876 398.3C746.059 398.3 747.084 398.525 747.951 398.975C748.834 399.408 749.509 400 749.976 400.75C750.459 401.5 750.701 402.333 750.701 403.25C750.701 403.95 750.526 404.667 750.176 405.4C749.826 406.133 749.301 406.925 748.601 407.775C748.084 408.425 747.526 409.067 746.926 409.7C746.326 410.333 745.434 411.25 744.251 412.45L743.876 412.825ZM755.644 398.575C755.727 398.525 755.852 398.5 756.019 398.5H759.044C759.127 398.5 759.194 398.533 759.244 398.6C759.31 398.65 759.344 398.717 759.344 398.8V415.7C759.344 415.783 759.31 415.858 759.244 415.925C759.194 415.975 759.127 416 759.044 416H756.119C756.035 416 755.96 415.975 755.894 415.925C755.844 415.858 755.819 415.783 755.819 415.7V402C755.819 401.967 755.802 401.933 755.769 401.9C755.735 401.867 755.702 401.858 755.669 401.875L753.194 402.55L753.094 402.575C752.944 402.575 752.869 402.483 752.869 402.3L752.794 400.15C752.794 399.983 752.869 399.867 753.019 399.8L755.644 398.575Z"></path>
<path fill="#487DA6" d="M106.199 69.7581L88.2274 75.0757C87.6783 75.2384 87.1521 74.7632 87.2675 74.2093L93.6877 43.4486C93.8078 42.8733 94.6026 42.782 94.8534 43.3147L106.741 68.5691C106.965 69.0455 106.709 69.6073 106.199 69.7581M109.283 68.5041L95.5189 39.2627V39.2621C95.1737 38.531 94.4533 38.0487 93.6369 38.004C92.7993 37.9552 92.0489 38.3593 91.6256 39.0472L76.6977 63.2362C76.2353 63.9901 76.2443 64.9197 76.724 65.6645L84.0209 76.9729C84.4558 77.648 85.2094 78.0387 85.9926 78.0387C86.2146 78.0387 86.4378 78.0074 86.6573 77.9423L107.838 71.675C108.487 71.4829 109.018 71.0237 109.296 70.415C109.572 69.806 109.568 69.1091 109.283 68.5041" clip-rule="evenodd" fill-rule="evenodd"></path>
<defs>
<radialGradient gradientTransform="translate(422 237) rotate(90) scale(237 422)" gradientUnits="userSpaceOnUse" r="1" cy="0" cx="0" id="paint0_radial_7085_1213">
<stop stop-color="#2A4365"></stop>
<stop stop-color="#2D3748" offset="1"></stop>
</radialGradient>
<linearGradient gradientUnits="userSpaceOnUse" y2="199.5" x2="437" y1="299.5" x1="345" id="paint1_linear_7085_1213">
<stop stop-color="#63B3ED"></stop>
<stop stop-color="#2B6CB0" offset="1"></stop>
</linearGradient>
<linearGradient gradientUnits="userSpaceOnUse" y2="199.5" x2="381.5" y1="88" x1="381.5" id="paint2_linear_7085_1213">
<stop stop-color="#63B3ED"></stop>
<stop stop-color="#1A202C" offset="1"></stop>
</linearGradient>
<linearGradient gradientUnits="userSpaceOnUse" y2="199.5" x2="492.5" y1="88" x1="492.5" id="paint3_linear_7085_1213">
<stop stop-color="#1A202C"></stop>
<stop stop-color="#63B3ED" offset="1"></stop>
</linearGradient>
<linearGradient gradientUnits="userSpaceOnUse" y2="200" x2="492.5" y1="311.5" x1="492.5" id="paint4_linear_7085_1213">
<stop stop-color="#63B3ED"></stop>
<stop stop-color="#1A202C" offset="1"></stop>
</linearGradient>
</defs>
</svg>
