<svg xmlns="http://www.w3.org/2000/svg" fill="none" viewBox="0 0 843 474" height="474" width="843">
<g clip-path="url(#clip0_5817_1878)">
<rect fill="url(#paint0_linear_5817_1878)" height="474" width="842.667"></rect>
<path fill="url(#paint1_linear_5817_1878)" d="M113.465 -26.8904C112.815 -27.2657 112.014 -27.2657 111.364 -26.8904L-12.5003 44.6227C-13.1504 44.998 -13.5508 45.6915 -13.5508 46.4421C-13.5508 47.1927 -13.1504 47.8863 -12.5003 48.2616L108.263 117.984L-12.5003 187.707C-13.1504 188.082 -13.5508 188.776 -13.5508 189.526C-13.5508 190.277 -13.1504 190.97 -12.5003 191.346L108.253 261.063L-12.5003 330.78C-13.1504 331.155 -13.5508 331.849 -13.5508 332.599C-13.5508 333.35 -13.1504 334.043 -12.5003 334.419L108.273 404.147L-12.5003 473.875C-13.1504 474.251 -13.5508 474.944 -13.5508 475.695C-13.5508 476.445 -13.1504 477.139 -12.5003 477.514L108.268 547.24L-12.5003 616.965C-13.1504 617.341 -13.5508 618.034 -13.5508 618.785C-13.5508 619.535 -13.1504 620.229 -12.5003 620.604L108.263 690.327L-12.5003 760.05C-13.1504 760.425 -13.5508 761.118 -13.5508 761.869C-13.5508 762.62 -13.1504 763.313 -12.5003 763.688L108.265 833.412L-12.5003 903.136C-13.1504 903.511 -13.5508 904.205 -13.5508 904.956C-13.5508 905.706 -13.1504 906.4 -12.5003 906.775L108.261 976.497L-12.5003 1046.22C-13.1504 1046.59 -13.5508 1047.29 -13.5508 1048.04C-13.5508 1048.79 -13.1504 1049.48 -12.5003 1049.86L111.364 1121.37C112.014 1121.75 112.815 1121.75 113.465 1121.37L236.124 1050.55L358.783 1121.37C359.433 1121.75 360.233 1121.75 360.883 1121.37L483.543 1050.55L606.203 1121.37C606.853 1121.75 607.654 1121.75 608.304 1121.37L730.963 1050.55L853.622 1121.37C854.272 1121.75 855.072 1121.75 855.722 1121.37L978.382 1050.55L1101.04 1121.37C1101.69 1121.75 1102.49 1121.75 1103.14 1121.37L1225.8 1050.55L1348.46 1121.37C1349.11 1121.75 1349.91 1121.75 1350.56 1121.37L1473.22 1050.55L1595.88 1121.37C1596.53 1121.75 1597.33 1121.75 1597.98 1121.37L1720.64 1050.55L1843.3 1121.37C1843.95 1121.75 1844.75 1121.75 1845.4 1121.37L1969.26 1049.86C1969.91 1049.48 1970.32 1048.79 1970.32 1048.04C1970.32 1047.29 1969.91 1046.59 1969.26 1046.22L1907.33 1010.46L1848.5 976.497L1969.26 906.775C1969.91 906.4 1970.32 905.706 1970.32 904.956C1970.32 904.205 1969.91 903.511 1969.26 903.136L1907.33 867.38L1848.5 833.412L1969.26 763.688C1969.91 763.313 1970.32 762.62 1970.32 761.869C1970.32 761.118 1969.91 760.425 1969.26 760.05L1907.33 724.293L1848.5 690.327L1969.26 620.604C1969.91 620.229 1970.32 619.535 1970.32 618.785C1970.32 618.034 1969.91 617.341 1969.26 616.965L1907.33 581.209L1848.5 547.24L1969.26 477.514C1969.91 477.139 1970.32 476.445 1970.32 475.695C1970.32 474.944 1969.91 474.251 1969.26 473.875L1907.33 438.119L1848.49 404.147L1969.26 334.419C1969.91 334.043 1970.32 333.35 1970.32 332.599C1970.32 331.849 1969.91 331.155 1969.26 330.78L1907.33 295.023L1848.51 261.063L1969.26 191.346C1969.91 190.971 1970.32 190.277 1970.32 189.526C1970.32 188.776 1969.91 188.082 1969.26 187.707L1907.33 151.95L1848.5 117.984L1969.26 48.2616C1969.91 47.8863 1970.32 47.1927 1970.32 46.4421C1970.32 45.6915 1969.91 44.998 1969.26 44.6227L1907.33 8.86614L1845.4 -26.8904C1844.75 -27.2657 1843.95 -27.2657 1843.3 -26.8904L1720.64 43.927L1659.91 8.86614L1597.98 -26.8904C1597.33 -27.2657 1596.53 -27.2657 1595.88 -26.8904L1473.22 43.9269L1412.49 8.86614L1350.56 -26.8904C1349.91 -27.2657 1349.11 -27.2657 1348.46 -26.8904L1225.8 43.9267L1165.08 8.86614L1103.14 -26.8904C1102.49 -27.2657 1101.69 -27.2657 1101.04 -26.8904L978.382 43.9272L917.655 8.86614L855.722 -26.8904C855.072 -27.2657 854.272 -27.2657 853.622 -26.8904L730.963 43.9267L670.236 8.86614L608.304 -26.8904C607.654 -27.2657 606.853 -27.2657 606.203 -26.8904L483.543 43.9272L422.816 8.86614L360.883 -26.8904C360.233 -27.2657 359.433 -27.2657 358.783 -26.8904L236.124 43.9267L175.397 8.86614L113.465 -26.8904ZM1840.2 976.497L1720.64 907.471L1601.08 976.497L1659.91 1010.46L1720.64 1045.52L1840.2 976.497ZM1592.78 976.497L1473.22 1045.52L1412.49 1010.46L1353.66 976.497L1473.22 907.471L1592.78 976.497ZM1345.36 976.497L1225.8 907.471L1106.25 976.497L1165.08 1010.46L1225.8 1045.52L1345.36 976.497ZM1097.94 976.497L978.382 1045.52L917.655 1010.46L858.826 976.497L978.382 907.47L1097.94 976.497ZM850.519 976.497L730.963 1045.52L670.236 1010.46L611.407 976.497L730.963 907.471L850.519 976.497ZM603.1 976.497L483.543 907.47L363.986 976.497L422.816 1010.46L483.543 1045.52L603.1 976.497ZM355.68 976.497L236.124 1045.52L175.397 1010.46L116.568 976.497L236.124 907.471L355.68 976.497ZM1840.2 833.412L1720.64 902.44L1659.91 867.38L1601.08 833.412L1720.64 764.384L1840.2 833.412ZM1592.78 833.412L1473.22 764.384L1353.66 833.412L1412.49 867.38L1473.22 902.44L1592.78 833.412ZM1345.36 833.412L1225.8 902.44L1165.08 867.38L1106.24 833.412L1225.8 764.385L1345.36 833.412ZM1097.94 833.412L978.382 764.384L858.822 833.412L917.655 867.38L978.382 902.441L1097.94 833.412ZM850.522 833.412L730.963 764.384L611.403 833.412L670.236 867.38L730.963 902.44L850.522 833.412ZM603.104 833.412L483.543 902.441L422.816 867.38L363.983 833.412L483.543 764.384L603.104 833.412ZM355.683 833.412L236.124 764.385L116.564 833.412L175.397 867.38L236.124 902.44L355.683 833.412ZM1840.2 690.327L1720.64 621.3L1601.08 690.327L1659.91 724.293L1720.64 759.354L1840.2 690.327ZM1592.78 690.327L1473.22 759.354L1412.49 724.293L1353.66 690.327L1473.22 621.3L1592.78 690.327ZM1345.36 690.327L1225.8 621.3L1106.24 690.327L1165.08 724.293L1225.8 759.354L1345.36 690.327ZM1097.94 690.327L978.382 759.354L917.655 724.293L858.824 690.327L978.382 621.3L1097.94 690.327ZM850.521 690.327L730.963 759.354L670.236 724.293L611.405 690.327L730.963 621.3L850.521 690.327ZM603.102 690.327L483.543 621.3L363.984 690.327L422.816 724.293L483.543 759.354L603.102 690.327ZM355.681 690.327L236.124 759.354L175.397 724.293L116.566 690.327L236.124 621.3L355.681 690.327ZM1840.2 547.24L1720.64 616.27L1659.91 581.209L1601.08 547.24L1720.64 478.21L1840.2 547.24ZM1592.78 547.24L1473.22 478.21L1353.66 547.24L1412.49 581.209L1473.22 616.27L1592.78 547.24ZM1345.36 547.24L1225.8 616.269L1165.08 581.209L1106.24 547.24L1225.8 478.21L1345.36 547.24ZM1097.95 547.24L978.382 478.21L858.818 547.24L917.655 581.209L978.382 616.27L1097.95 547.24ZM850.526 547.24L730.963 478.21L611.4 547.24L670.236 581.209L730.963 616.269L850.526 547.24ZM603.107 547.24L483.543 616.27L422.816 581.209L363.979 547.24L483.543 478.21L603.107 547.24ZM355.687 547.24L236.124 478.21L116.561 547.24L175.397 581.209L236.124 616.269L355.687 547.24ZM1840.21 404.147L1720.64 335.114L1601.07 404.147L1659.91 438.119L1720.64 473.18L1840.21 404.147ZM1592.79 404.147L1473.22 473.18L1412.49 438.119L1353.65 404.147L1473.22 335.114L1592.79 404.147ZM1345.37 404.147L1225.8 335.115L1106.23 404.147L1165.08 438.119L1225.8 473.179L1345.37 404.147ZM1097.95 404.147L978.382 473.18L917.655 438.119L858.814 404.147L978.382 335.114L1097.95 404.147ZM850.53 404.147L730.963 473.179L670.236 438.119L611.395 404.147L730.963 335.115L850.53 404.147ZM603.112 404.147L483.543 335.114L363.975 404.147L422.816 438.119L483.543 473.18L603.112 404.147ZM355.691 404.147L236.124 473.179L175.397 438.119L116.556 404.147L236.124 335.115L355.691 404.147ZM1840.19 261.063L1720.64 330.084L1659.91 295.023L1601.09 261.063L1720.64 192.042L1840.19 261.063ZM1592.77 261.063L1473.22 192.042L1353.67 261.063L1412.49 295.023L1473.22 330.084L1592.77 261.063ZM1345.35 261.063L1225.8 330.084L1165.08 295.023L1106.25 261.063L1225.8 192.042L1345.35 261.063ZM1097.93 261.063L978.382 192.041L858.834 261.063L917.655 295.023L978.382 330.084L1097.93 261.063ZM850.511 261.063L730.963 192.042L611.415 261.063L670.236 295.023L730.963 330.084L850.511 261.063ZM603.092 261.063L483.543 330.084L422.816 295.023L363.994 261.063L483.543 192.041L603.092 261.063ZM355.672 261.063L236.124 192.042L116.576 261.063L175.397 295.023L236.124 330.084L355.672 261.063ZM1840.2 117.984L1720.64 48.9573L1601.08 117.984L1659.91 151.95L1720.64 187.011L1840.2 117.984ZM1592.78 117.984L1473.22 187.011L1412.49 151.95L1353.66 117.984L1473.22 48.9573L1592.78 117.984ZM1345.36 117.984L1225.8 48.9576L1106.24 117.984L1165.08 151.95L1225.8 187.011L1345.36 117.984ZM1097.94 117.984L978.382 187.011L917.655 151.95L858.824 117.984L978.382 48.957L1097.94 117.984ZM850.521 117.984L730.963 187.011L670.236 151.95L611.405 117.984L730.963 48.9576L850.521 117.984ZM603.102 117.984L483.543 48.957L363.985 117.984L422.816 151.95L483.543 187.011L603.102 117.984ZM355.681 117.984L236.124 187.011L175.397 151.95L116.566 117.984L236.124 48.9576L355.681 117.984ZM112.414 115.529L-7.2481 46.4421L112.414 -22.6451L173.296 12.505L232.077 46.4421L112.414 115.529ZM359.833 115.529L240.17 46.4421L359.833 -22.6451L420.715 12.505L479.496 46.4421L359.833 115.529ZM487.591 46.4421L607.253 115.529L726.916 46.4421L668.135 12.505L607.253 -22.6451L487.591 46.4421ZM854.672 115.529L735.009 46.4421L854.672 -22.6451L915.554 12.505L974.335 46.4421L854.672 115.529ZM982.43 46.4421L1102.09 115.529L1221.76 46.4421L1162.97 12.505L1102.09 -22.6451L982.43 46.4421ZM1229.85 46.4421L1349.51 115.529L1469.17 46.4421L1410.39 12.505L1349.51 -22.6451L1229.85 46.4421ZM1596.93 115.529L1477.27 46.4421L1596.93 -22.6451L1657.81 12.505L1716.59 46.4421L1596.93 115.529ZM1724.69 46.4421L1844.35 115.529L1964.01 46.4421L1905.23 12.505L1844.35 -22.6451L1724.69 46.4421ZM112.414 258.614L-7.2481 189.526L112.414 120.439L173.296 155.589L232.077 189.526L112.414 258.614ZM240.17 189.526L359.833 258.614L479.496 189.526L420.715 155.589L359.833 120.439L240.17 189.526ZM607.253 258.614L487.591 189.526L607.253 120.439L668.135 155.589L726.916 189.526L607.253 258.614ZM735.01 189.526L854.672 258.614L974.335 189.526L915.554 155.589L854.672 120.439L735.01 189.526ZM1102.09 258.614L982.43 189.526L1102.09 120.439L1162.97 155.589L1221.76 189.526L1102.09 258.614ZM1349.51 258.614L1229.85 189.526L1349.51 120.439L1410.39 155.589L1469.17 189.526L1349.51 258.614ZM1477.27 189.526L1596.93 258.614L1716.59 189.526L1657.81 155.589L1596.93 120.439L1477.27 189.526ZM1844.35 258.614L1724.69 189.526L1844.35 120.439L1905.23 155.589L1964.01 189.526L1844.35 258.614ZM-7.2481 332.599L112.414 401.686L232.077 332.599L173.296 298.662L112.414 263.512L-7.2481 332.599ZM359.833 401.686L240.17 332.599L359.833 263.512L420.715 298.662L479.496 332.599L359.833 401.686ZM487.591 332.599L607.253 401.686L726.916 332.599L668.135 298.662L607.253 263.512L487.591 332.599ZM854.672 401.686L735.009 332.599L854.672 263.512L915.554 298.662L974.335 332.599L854.672 401.686ZM982.43 332.599L1102.09 401.686L1221.76 332.599L1162.97 298.662L1102.09 263.512L982.43 332.599ZM1229.85 332.599L1349.51 401.686L1469.17 332.599L1410.39 298.662L1349.51 263.512L1229.85 332.599ZM1596.93 401.686L1477.27 332.599L1596.93 263.512L1657.81 298.662L1716.59 332.599L1596.93 401.686ZM1724.69 332.599L1844.35 401.686L1964.01 332.599L1905.23 298.662L1844.35 263.512L1724.69 332.599ZM112.414 544.782L-7.2481 475.695L112.414 406.608L173.296 441.758L232.077 475.695L112.414 544.782ZM240.17 475.695L359.833 544.782L479.496 475.695L420.715 441.758L359.833 406.608L240.17 475.695ZM607.253 544.782L487.591 475.695L607.253 406.608L668.135 441.758L726.916 475.695L607.253 544.782ZM735.009 475.695L854.672 544.782L974.335 475.695L915.554 441.758L854.672 406.608L735.009 475.695ZM1102.09 544.782L982.43 475.695L1102.09 406.608L1162.97 441.758L1221.76 475.695L1102.09 544.782ZM1349.51 544.782L1229.85 475.695L1349.51 406.608L1410.39 441.758L1469.17 475.695L1349.51 544.782ZM1477.27 475.695L1596.93 544.782L1716.59 475.695L1657.81 441.758L1596.93 406.608L1477.27 475.695ZM1844.35 544.782L1724.69 475.695L1844.35 406.608L1905.23 441.758L1964.01 475.695L1844.35 544.782ZM-7.2481 618.785L112.414 687.872L232.077 618.785L173.296 584.848L112.414 549.698L-7.2481 618.785ZM359.833 687.872L240.17 618.785L359.833 549.698L420.715 584.848L479.496 618.785L359.833 687.872ZM487.591 618.785L607.253 687.872L726.916 618.785L668.135 584.848L607.253 549.698L487.591 618.785ZM854.672 687.872L735.009 618.785L854.672 549.698L915.554 584.848L974.335 618.785L854.672 687.872ZM982.43 618.785L1102.09 687.872L1221.76 618.785L1162.97 584.848L1102.09 549.698L982.43 618.785ZM1229.85 618.785L1349.51 687.872L1469.17 618.785L1410.39 584.848L1349.51 549.698L1229.85 618.785ZM1596.93 687.872L1477.27 618.785L1596.93 549.698L1657.81 584.848L1716.59 618.785L1596.93 687.872ZM1724.69 618.785L1844.35 687.872L1964.01 618.785L1905.23 584.848L1844.35 549.698L1724.69 618.785ZM112.414 830.956L-7.2481 761.869L112.414 692.782L173.296 727.932L232.077 761.869L112.414 830.956ZM240.17 761.869L359.833 830.956L479.496 761.869L420.715 727.932L359.833 692.782L240.17 761.869ZM607.253 830.956L487.591 761.869L607.253 692.782L668.135 727.932L726.916 761.869L607.253 830.956ZM735.009 761.869L854.672 830.956L974.335 761.869L915.554 727.932L854.672 692.782L735.009 761.869ZM1102.09 830.956L982.43 761.869L1102.09 692.782L1162.97 727.932L1221.76 761.869L1102.09 830.956ZM1349.51 830.956L1229.85 761.869L1349.51 692.782L1410.39 727.932L1469.17 761.869L1349.51 830.956ZM1477.27 761.869L1596.93 830.956L1716.59 761.869L1657.81 727.932L1596.93 692.782L1477.27 761.869ZM1844.35 830.956L1724.69 761.869L1844.35 692.782L1905.23 727.932L1964.01 761.869L1844.35 830.956ZM-7.2481 904.956L112.414 974.043L232.077 904.956L173.296 871.018L112.414 835.868L-7.2481 904.956ZM359.833 974.043L240.17 904.956L359.833 835.868L420.715 871.018L479.496 904.956L359.833 974.043ZM487.591 904.956L607.253 974.043L726.916 904.956L668.135 871.018L607.253 835.868L487.591 904.956ZM854.672 974.043L735.009 904.956L854.672 835.868L915.554 871.018L974.335 904.956L854.672 974.043ZM982.43 904.956L1102.09 974.043L1221.76 904.956L1162.97 871.018L1102.09 835.868L982.43 904.956ZM1229.85 904.956L1349.51 974.043L1469.17 904.956L1410.39 871.018L1349.51 835.868L1229.85 904.956ZM1596.93 974.043L1477.27 904.956L1596.93 835.868L1657.81 871.018L1716.59 904.956L1596.93 974.043ZM1724.69 904.956L1844.35 974.043L1964.01 904.956L1905.23 871.018L1844.35 835.868L1724.69 904.956ZM112.414 1117.12L-7.2481 1048.04L112.414 978.95L173.296 1014.1L232.077 1048.04L112.414 1117.12ZM240.17 1048.04L359.833 1117.12L479.496 1048.04L420.715 1014.1L359.833 978.95L240.17 1048.04ZM607.253 1117.12L487.591 1048.04L607.253 978.95L668.135 1014.1L726.916 1048.04L607.253 1117.12ZM735.009 1048.04L854.672 1117.12L974.335 1048.04L915.554 1014.1L854.672 978.95L735.009 1048.04ZM1102.09 1117.12L982.43 1048.04L1102.09 978.95L1162.97 1014.1L1221.76 1048.04L1102.09 1117.12ZM1349.51 1117.12L1229.85 1048.04L1349.51 978.95L1410.39 1014.1L1469.17 1048.04L1349.51 1117.12ZM1477.27 1048.04L1596.93 1117.12L1716.59 1048.04L1657.81 1014.1L1596.93 978.95L1477.27 1048.04ZM1844.35 1117.12L1724.69 1048.04L1844.35 978.95L1905.23 1014.1L1964.01 1048.04L1844.35 1117.12Z" clip-rule="evenodd" fill-rule="evenodd"></path>
<path fill="url(#paint2_linear_5817_1878)" d="M873.17 -18.4336L664.479 102.041L873.17 222.516L1081.86 102.041L977.516 41.8039L873.17 -18.4336Z"></path>
<path fill="url(#paint3_linear_5817_1878)" d="M718.681 49.1562L732.934 57.3854V73.8438L718.681 82.0729L704.428 73.8438V57.3854L718.681 49.1562Z"></path>
<path fill="white" d="M73.2335 272.055H67.6788L77.7923 243.327H84.2166L94.3441 272.055H88.7894L81.1167 249.219H80.8922L73.2335 272.055ZM73.4158 260.791H88.565V264.971H73.4158V260.791ZM111.636 262.993V250.509H116.714V272.055H111.79V268.225H111.566C111.079 269.432 110.28 270.418 109.167 271.185C108.064 271.952 106.703 272.335 105.085 272.335C103.673 272.335 102.425 272.022 101.34 271.395C100.265 270.76 99.423 269.838 98.8152 268.632C98.2074 267.416 97.9035 265.948 97.9035 264.228V250.509H102.981V263.442C102.981 264.807 103.355 265.892 104.103 266.696C104.851 267.501 105.833 267.903 107.049 267.903C107.797 267.903 108.522 267.72 109.223 267.356C109.925 266.991 110.5 266.449 110.949 265.729C111.407 264.999 111.636 264.087 111.636 262.993ZM132.694 250.509V254.437H120.308V250.509H132.694ZM123.366 245.347H128.444V265.574C128.444 266.257 128.547 266.781 128.752 267.145C128.967 267.501 129.248 267.744 129.594 267.875C129.94 268.006 130.323 268.071 130.744 268.071C131.062 268.071 131.352 268.048 131.614 268.001C131.885 267.954 132.091 267.912 132.231 267.875L133.087 271.844C132.815 271.938 132.427 272.041 131.922 272.153C131.427 272.265 130.819 272.331 130.099 272.349C128.827 272.387 127.682 272.195 126.662 271.774C125.643 271.344 124.834 270.68 124.236 269.782C123.646 268.885 123.357 267.762 123.366 266.416V245.347ZM142.481 259.43V272.055H137.403V243.327H142.369V254.17H142.621C143.126 252.955 143.907 251.996 144.964 251.295C146.03 250.584 147.386 250.229 149.032 250.229C150.528 250.229 151.833 250.542 152.945 251.168C154.058 251.795 154.918 252.711 155.526 253.918C156.144 255.124 156.452 256.597 156.452 258.336V272.055H151.374V259.122C151.374 257.672 151 256.546 150.252 255.741C149.513 254.928 148.475 254.521 147.138 254.521C146.24 254.521 145.436 254.717 144.726 255.11C144.024 255.493 143.472 256.05 143.07 256.779C142.678 257.509 142.481 258.392 142.481 259.43ZM171.166 272.475C169.006 272.475 167.141 272.027 165.57 271.129C164.008 270.222 162.806 268.941 161.965 267.286C161.123 265.621 160.702 263.662 160.702 261.408C160.702 259.192 161.123 257.247 161.965 255.573C162.816 253.89 164.003 252.581 165.528 251.645C167.052 250.701 168.843 250.229 170.9 250.229C172.228 250.229 173.481 250.444 174.659 250.874C175.847 251.295 176.894 251.949 177.801 252.838C178.718 253.726 179.438 254.858 179.961 256.232C180.485 257.598 180.747 259.225 180.747 261.114V262.671H163.087V259.248H175.879C175.87 258.276 175.66 257.411 175.248 256.653C174.837 255.886 174.262 255.283 173.523 254.844C172.794 254.404 171.943 254.184 170.97 254.184C169.932 254.184 169.02 254.437 168.235 254.942C167.449 255.437 166.837 256.092 166.397 256.906C165.967 257.71 165.747 258.593 165.738 259.557V262.544C165.738 263.797 165.967 264.873 166.425 265.771C166.884 266.659 167.524 267.342 168.347 267.819C169.17 268.286 170.133 268.52 171.237 268.52C171.975 268.52 172.644 268.417 173.242 268.211C173.841 267.996 174.36 267.683 174.799 267.271C175.239 266.86 175.571 266.35 175.795 265.743L180.536 266.276C180.237 267.529 179.667 268.623 178.825 269.558C177.993 270.484 176.927 271.204 175.627 271.718C174.327 272.223 172.84 272.475 171.166 272.475ZM190.12 259.43V272.055H185.043V250.509H189.896V254.17H190.148C190.644 252.964 191.434 252.005 192.519 251.295C193.613 250.584 194.964 250.229 196.573 250.229C198.06 250.229 199.355 250.547 200.458 251.183C201.571 251.818 202.431 252.74 203.039 253.946C203.656 255.152 203.96 256.616 203.951 258.336V272.055H198.873V259.122C198.873 257.682 198.499 256.555 197.751 255.741C197.012 254.928 195.988 254.521 194.679 254.521C193.791 254.521 193.001 254.717 192.309 255.11C191.626 255.493 191.088 256.05 190.695 256.779C190.312 257.509 190.12 258.392 190.12 259.43ZM219.872 250.509V254.437H207.486V250.509H219.872ZM210.544 245.347H215.621V265.574C215.621 266.257 215.724 266.781 215.93 267.145C216.145 267.501 216.426 267.744 216.772 267.875C217.118 268.006 217.501 268.071 217.922 268.071C218.24 268.071 218.53 268.048 218.792 268.001C219.063 267.954 219.268 267.912 219.409 267.875L220.264 271.844C219.993 271.938 219.605 272.041 219.1 272.153C218.605 272.265 217.997 272.331 217.277 272.349C216.005 272.387 214.859 272.195 213.84 271.774C212.821 271.344 212.012 270.68 211.413 269.782C210.824 268.885 210.534 267.762 210.544 266.416V245.347ZM224.118 272.055V250.509H229.196V272.055H224.118ZM226.671 247.451C225.867 247.451 225.175 247.185 224.595 246.652C224.015 246.109 223.726 245.46 223.726 244.702C223.726 243.935 224.015 243.285 224.595 242.752C225.175 242.21 225.867 241.939 226.671 241.939C227.485 241.939 228.177 242.21 228.747 242.752C229.327 243.285 229.617 243.935 229.617 244.702C229.617 245.46 229.327 246.109 228.747 246.652C228.177 247.185 227.485 247.451 226.671 247.451ZM243.816 272.475C241.665 272.475 239.818 272.003 238.275 271.059C236.741 270.114 235.558 268.81 234.726 267.145C233.903 265.471 233.492 263.545 233.492 261.366C233.492 259.178 233.913 257.247 234.754 255.573C235.596 253.89 236.783 252.581 238.317 251.645C239.86 250.701 241.684 250.229 243.788 250.229C245.536 250.229 247.084 250.551 248.431 251.197C249.787 251.832 250.867 252.735 251.671 253.904C252.475 255.063 252.933 256.419 253.045 257.972H248.192C247.996 256.934 247.528 256.069 246.789 255.377C246.06 254.675 245.083 254.325 243.858 254.325C242.82 254.325 241.908 254.605 241.123 255.166C240.337 255.718 239.724 256.513 239.285 257.551C238.855 258.589 238.64 259.833 238.64 261.282C238.64 262.75 238.855 264.013 239.285 265.069C239.715 266.117 240.318 266.925 241.094 267.496C241.88 268.057 242.801 268.338 243.858 268.338C244.606 268.338 245.275 268.197 245.864 267.917C246.462 267.627 246.962 267.211 247.365 266.668C247.767 266.126 248.042 265.467 248.192 264.691H253.045C252.924 266.215 252.475 267.566 251.699 268.744C250.923 269.913 249.866 270.83 248.529 271.494C247.192 272.148 245.621 272.475 243.816 272.475ZM263.415 272.49C262.05 272.49 260.82 272.246 259.726 271.76C258.641 271.265 257.781 270.535 257.145 269.572C256.518 268.609 256.205 267.421 256.205 266.009C256.205 264.793 256.429 263.788 256.878 262.993C257.327 262.198 257.94 261.562 258.716 261.086C259.492 260.609 260.366 260.249 261.339 260.006C262.321 259.753 263.335 259.571 264.383 259.458C265.645 259.328 266.669 259.211 267.455 259.108C268.24 258.996 268.811 258.827 269.166 258.603C269.531 258.369 269.713 258.009 269.713 257.523V257.439C269.713 256.382 269.4 255.564 268.773 254.984C268.147 254.404 267.244 254.114 266.066 254.114C264.822 254.114 263.836 254.385 263.106 254.928C262.386 255.47 261.9 256.111 261.648 256.849L256.906 256.176C257.28 254.867 257.898 253.773 258.758 252.894C259.618 252.005 260.67 251.341 261.914 250.902C263.158 250.453 264.532 250.229 266.038 250.229C267.076 250.229 268.109 250.35 269.138 250.593C270.167 250.837 271.106 251.239 271.957 251.8C272.808 252.351 273.491 253.104 274.005 254.058C274.529 255.012 274.791 256.204 274.791 257.635V272.055H269.909V269.095H269.741C269.432 269.693 268.998 270.255 268.437 270.778C267.885 271.293 267.188 271.709 266.347 272.027C265.514 272.335 264.537 272.49 263.415 272.49ZM264.733 268.758C265.753 268.758 266.636 268.557 267.385 268.155C268.133 267.744 268.708 267.201 269.11 266.528C269.521 265.855 269.727 265.121 269.727 264.326V261.787C269.568 261.918 269.297 262.039 268.913 262.152C268.539 262.264 268.119 262.362 267.651 262.446C267.183 262.53 266.721 262.605 266.262 262.671C265.804 262.736 265.407 262.792 265.07 262.839C264.313 262.942 263.635 263.11 263.036 263.344C262.438 263.578 261.965 263.905 261.619 264.326C261.273 264.737 261.1 265.27 261.1 265.925C261.1 266.86 261.442 267.566 262.124 268.043C262.807 268.52 263.677 268.758 264.733 268.758ZM290.655 250.509V254.437H278.269V250.509H290.655ZM281.327 245.347H286.405V265.574C286.405 266.257 286.508 266.781 286.714 267.145C286.929 267.501 287.209 267.744 287.555 267.875C287.901 268.006 288.285 268.071 288.706 268.071C289.024 268.071 289.313 268.048 289.575 268.001C289.846 267.954 290.052 267.912 290.192 267.875L291.048 271.844C290.777 271.938 290.389 272.041 289.884 272.153C289.388 272.265 288.78 272.331 288.06 272.349C286.789 272.387 285.643 272.195 284.624 271.774C283.604 271.344 282.796 270.68 282.197 269.782C281.608 268.885 281.318 267.762 281.327 266.416V245.347ZM294.902 272.055V250.509H299.98V272.055H294.902ZM297.455 247.451C296.651 247.451 295.959 247.185 295.379 246.652C294.799 246.109 294.509 245.46 294.509 244.702C294.509 243.935 294.799 243.285 295.379 242.752C295.959 242.21 296.651 241.939 297.455 241.939C298.268 241.939 298.96 242.21 299.531 242.752C300.111 243.285 300.401 243.935 300.401 244.702C300.401 245.46 300.111 246.109 299.531 246.652C298.96 247.185 298.268 247.451 297.455 247.451ZM314.599 272.475C312.495 272.475 310.672 272.013 309.129 271.087C307.586 270.161 306.389 268.866 305.538 267.201C304.696 265.537 304.276 263.592 304.276 261.366C304.276 259.141 304.696 257.191 305.538 255.517C306.389 253.843 307.586 252.543 309.129 251.617C310.672 250.692 312.495 250.229 314.599 250.229C316.703 250.229 318.527 250.692 320.07 251.617C321.613 252.543 322.805 253.843 323.647 255.517C324.498 257.191 324.923 259.141 324.923 261.366C324.923 263.592 324.498 265.537 323.647 267.201C322.805 268.866 321.613 270.161 320.07 271.087C318.527 272.013 316.703 272.475 314.599 272.475ZM314.627 268.408C315.768 268.408 316.722 268.094 317.489 267.468C318.256 266.832 318.826 265.981 319.2 264.915C319.584 263.849 319.775 262.661 319.775 261.352C319.775 260.034 319.584 258.841 319.2 257.775C318.826 256.7 318.256 255.844 317.489 255.208C316.722 254.572 315.768 254.254 314.627 254.254C313.459 254.254 312.486 254.572 311.71 255.208C310.943 255.844 310.368 256.7 309.985 257.775C309.61 258.841 309.423 260.034 309.423 261.352C309.423 262.661 309.61 263.849 309.985 264.915C310.368 265.981 310.943 266.832 311.71 267.468C312.486 268.094 313.459 268.408 314.627 268.408ZM334.311 259.43V272.055H329.233V250.509H334.086V254.17H334.339C334.834 252.964 335.625 252.005 336.709 251.295C337.804 250.584 339.155 250.229 340.763 250.229C342.25 250.229 343.545 250.547 344.649 251.183C345.762 251.818 346.622 252.74 347.23 253.946C347.847 255.152 348.151 256.616 348.141 258.336V272.055H343.064V259.122C343.064 257.682 342.69 256.555 341.941 255.741C341.203 254.928 340.179 254.521 338.87 254.521C337.981 254.521 337.191 254.717 336.499 255.11C335.816 255.493 335.279 256.05 334.886 256.779C334.503 257.509 334.311 258.392 334.311 259.43Z"></path>
<path stroke-linejoin="round" stroke-width="1.60032" stroke="#535BCB" fill="#B7F4EE" d="M819.725 212.055L659.853 304.357L819.725 396.659L979.597 304.357L899.661 258.206L819.725 212.055Z"></path>
<path stroke-linejoin="round" stroke-width="1.60032" stroke="#535BCB" fill="#B7F4EE" d="M819.725 154.988L659.853 247.291L819.725 339.593L979.597 247.291L899.661 201.139L819.725 154.988Z"></path>
<path stroke-linejoin="round" stroke-width="1.60032" stroke="#535BCB" fill="#B7F4EE" d="M819.725 74.0117L659.853 166.314L819.725 258.616L979.597 166.314L899.661 120.163L819.725 74.0117Z"></path>
<path stroke-linejoin="round" stroke-width="1.60032" stroke="#535BCB" fill="url(#paint4_linear_5817_1878)" d="M659.853 351.105L819.725 443.407V258.802L659.853 166.5V351.105Z"></path>
<path stroke-linejoin="round" stroke-width="1.60032" stroke="#535BCB" fill="url(#paint5_linear_5817_1878)" d="M979.6 351.124V166.52L819.728 258.822V443.427L979.6 351.124Z"></path>
<path stroke-width="1.75556" stroke="#494EBD" fill="white" d="M141.322 71.9793H311.611C317.671 71.9793 322.583 76.8918 322.583 82.9516V124.207C322.583 130.267 317.671 135.179 311.611 135.179H141.322V71.9793Z"></path>
<path fill="#484DBD" d="M170.889 114.273C169.56 114.273 168.379 114.014 167.345 113.497C166.33 112.962 165.536 112.214 164.964 111.255C164.41 110.276 164.133 109.159 164.133 107.904V100.733C164.133 99.4776 164.41 98.3793 164.964 97.4379C165.536 96.478 166.33 95.7396 167.345 95.2228C168.379 94.6875 169.56 94.4198 170.889 94.4198C172.218 94.4198 173.39 94.6782 174.406 95.1951C175.421 95.6935 176.205 96.4042 176.759 97.3271C177.331 98.2501 177.617 99.3207 177.617 100.539V100.567C177.617 100.659 177.59 100.733 177.534 100.788C177.479 100.844 177.414 100.871 177.341 100.871L175.236 100.982C175.052 100.982 174.959 100.899 174.959 100.733V100.65C174.959 99.4684 174.59 98.5178 173.852 97.7978C173.113 97.0779 172.126 96.718 170.889 96.718C169.652 96.718 168.656 97.0779 167.899 97.7978C167.16 98.5178 166.791 99.4684 166.791 100.65V108.015C166.791 109.196 167.16 110.147 167.899 110.867C168.656 111.587 169.652 111.947 170.889 111.947C172.126 111.947 173.113 111.587 173.852 110.867C174.59 110.147 174.959 109.196 174.959 108.015V107.96C174.959 107.793 175.052 107.71 175.236 107.71L177.341 107.821C177.525 107.821 177.617 107.913 177.617 108.098C177.617 109.316 177.331 110.396 176.759 111.338C176.205 112.261 175.421 112.98 174.406 113.497C173.39 114.014 172.218 114.273 170.889 114.273ZM192.249 94.9182C192.249 94.7336 192.341 94.6413 192.526 94.6413H194.63C194.815 94.6413 194.907 94.7336 194.907 94.9182V113.747C194.907 113.931 194.815 114.023 194.63 114.023H192.526C192.341 114.023 192.249 113.931 192.249 113.747V105.523C192.249 105.449 192.212 105.412 192.138 105.412H184.247C184.173 105.412 184.136 105.449 184.136 105.523V113.747C184.136 113.931 184.044 114.023 183.859 114.023H181.755C181.57 114.023 181.478 113.931 181.478 113.747V94.9182C181.478 94.7336 181.57 94.6413 181.755 94.6413H183.859C184.044 94.6413 184.136 94.7336 184.136 94.9182V103.003C184.136 103.077 184.173 103.114 184.247 103.114H192.138C192.212 103.114 192.249 103.077 192.249 103.003V94.9182ZM211.254 114.023C211.088 114.023 210.977 113.95 210.922 113.802L209.925 110.562C209.907 110.507 209.87 110.479 209.814 110.479H202.034C201.978 110.479 201.941 110.507 201.923 110.562L200.926 113.802C200.871 113.95 200.76 114.023 200.594 114.023H198.351C198.148 114.023 198.074 113.922 198.13 113.719L204.193 94.8628C204.249 94.7152 204.36 94.6413 204.526 94.6413H207.295C207.461 94.6413 207.571 94.7152 207.627 94.8628L213.746 113.719L213.774 113.83C213.774 113.959 213.691 114.023 213.525 114.023H211.254ZM202.615 108.236C202.597 108.273 202.597 108.31 202.615 108.347C202.652 108.366 202.689 108.375 202.726 108.375H209.094C209.131 108.375 209.159 108.366 209.177 108.347C209.214 108.31 209.224 108.273 209.205 108.236L205.993 97.964C205.975 97.9271 205.947 97.9086 205.91 97.9086C205.873 97.9086 205.846 97.9271 205.827 97.964L202.615 108.236ZM224.514 94.6136C225.64 94.6136 226.627 94.8536 227.476 95.3335C228.344 95.795 229.009 96.4503 229.47 97.2994C229.95 98.1486 230.19 99.1269 230.19 100.234C230.19 101.342 229.95 102.311 229.47 103.142C228.99 103.972 228.307 104.619 227.421 105.08C226.553 105.541 225.547 105.772 224.403 105.772H219.53C219.456 105.772 219.419 105.809 219.419 105.883V113.747C219.419 113.931 219.327 114.023 219.142 114.023H217.038C216.853 114.023 216.761 113.931 216.761 113.747V94.8905C216.761 94.7059 216.853 94.6136 217.038 94.6136H224.514ZM224.154 103.612C225.169 103.612 225.981 103.308 226.59 102.699C227.218 102.09 227.532 101.287 227.532 100.29C227.532 99.2746 227.218 98.4624 226.59 97.8532C225.981 97.2256 225.169 96.9118 224.154 96.9118H219.53C219.456 96.9118 219.419 96.9487 219.419 97.0226V103.502C219.419 103.576 219.456 103.612 219.53 103.612H224.154ZM245.662 94.6413C245.846 94.6413 245.939 94.7336 245.939 94.9182V96.6903C245.939 96.8749 245.846 96.9672 245.662 96.9672H240.345C240.272 96.9672 240.235 97.0041 240.235 97.0779V113.747C240.235 113.931 240.142 114.023 239.958 114.023H237.853C237.669 114.023 237.577 113.931 237.577 113.747V97.0779C237.577 97.0041 237.54 96.9672 237.466 96.9672H232.399C232.214 96.9672 232.122 96.8749 232.122 96.6903V94.9182C232.122 94.7336 232.214 94.6413 232.399 94.6413H245.662ZM262.115 96.6626C262.115 96.8472 262.023 96.9395 261.838 96.9395H252.008C251.935 96.9395 251.898 96.9764 251.898 97.0502V103.003C251.898 103.077 251.935 103.114 252.008 103.114H258.764C258.949 103.114 259.041 103.206 259.041 103.391V105.135C259.041 105.32 258.949 105.412 258.764 105.412H252.008C251.935 105.412 251.898 105.449 251.898 105.523V111.615C251.898 111.688 251.935 111.725 252.008 111.725H261.838C262.023 111.725 262.115 111.818 262.115 112.002V113.747C262.115 113.931 262.023 114.023 261.838 114.023H249.516C249.332 114.023 249.24 113.931 249.24 113.747V94.9182C249.24 94.7336 249.332 94.6413 249.516 94.6413H261.838C262.023 94.6413 262.115 94.7336 262.115 94.9182V96.6626ZM276.836 114.023C276.688 114.023 276.586 113.959 276.531 113.83L272.655 105.551C272.636 105.495 272.599 105.468 272.544 105.468H268.557C268.483 105.468 268.446 105.505 268.446 105.578V113.747C268.446 113.931 268.354 114.023 268.169 114.023H266.065C265.88 114.023 265.788 113.931 265.788 113.747V94.9182C265.788 94.7336 265.88 94.6413 266.065 94.6413H273.513C274.621 94.6413 275.59 94.8721 276.42 95.3335C277.269 95.795 277.925 96.4411 278.386 97.2718C278.848 98.1024 279.078 99.0623 279.078 100.151C279.078 101.444 278.737 102.542 278.054 103.446C277.389 104.332 276.457 104.932 275.257 105.246C275.184 105.283 275.165 105.329 275.202 105.385L279.217 113.691C279.235 113.728 279.245 113.774 279.245 113.83C279.245 113.959 279.171 114.023 279.023 114.023H276.836ZM268.557 96.9395C268.483 96.9395 268.446 96.9764 268.446 97.0502V103.253C268.446 103.326 268.483 103.363 268.557 103.363H273.181C274.159 103.363 274.944 103.077 275.534 102.505C276.125 101.914 276.42 101.139 276.42 100.179C276.42 99.2007 276.125 98.4162 275.534 97.8255C274.944 97.2348 274.159 96.9395 273.181 96.9395H268.557ZM299 105.44C299.203 106.252 299.304 107.092 299.304 107.96C299.304 108.827 299.194 109.63 298.972 110.369C298.621 111.55 297.948 112.491 296.951 113.193C295.973 113.876 294.8 114.217 293.434 114.217C292.087 114.217 290.933 113.885 289.973 113.22C289.013 112.556 288.34 111.651 287.952 110.507C287.767 109.99 287.666 109.538 287.647 109.15V109.095C287.647 108.947 287.731 108.873 287.897 108.873H290.084C290.25 108.873 290.343 108.956 290.361 109.123C290.379 109.252 290.426 109.446 290.499 109.704C290.702 110.387 291.053 110.932 291.552 111.338C292.068 111.725 292.687 111.919 293.407 111.919C294.164 111.919 294.8 111.716 295.317 111.31C295.853 110.885 296.213 110.304 296.397 109.566C296.526 109.178 296.591 108.643 296.591 107.96C296.591 107.35 296.536 106.787 296.425 106.271C296.296 105.569 295.963 105.034 295.428 104.665C294.911 104.277 294.265 104.083 293.49 104.083C292.77 104.083 292.124 104.249 291.552 104.582C290.979 104.895 290.61 105.32 290.444 105.855C290.389 106.021 290.287 106.104 290.139 106.104H287.924C287.74 106.104 287.647 106.012 287.647 105.828V94.9182C287.647 94.7336 287.74 94.6413 287.924 94.6413H298.28C298.465 94.6413 298.557 94.7336 298.557 94.9182V96.6626C298.557 96.8472 298.465 96.9395 298.28 96.9395H290.416C290.343 96.9395 290.306 96.9764 290.306 97.0502L290.278 102.837C290.278 102.948 290.324 102.976 290.416 102.92C290.859 102.533 291.367 102.246 291.939 102.062C292.53 101.859 293.148 101.757 293.794 101.757C295.087 101.757 296.194 102.08 297.117 102.726C298.058 103.373 298.686 104.277 299 105.44Z"></path>
<path fill="#484DBD" d="M79.8779 82.9516C79.8779 76.407 85.1834 71.1016 91.7279 71.1016H144.833V136.057H91.7279C85.1834 136.057 79.8779 130.752 79.8779 124.207V82.9516Z"></path>
<path fill="white" d="M96.421 109.697C96.0088 110.37 96.0151 111.218 96.4375 111.885L104.081 123.943C104.577 124.725 105.534 125.082 106.421 124.816L128.48 118.198C129.684 117.837 130.289 116.494 129.763 115.353L115.583 84.5924C114.891 83.0923 112.807 82.9692 111.943 84.3775L96.421 109.697ZM115.206 91.6246C114.905 90.9272 113.884 91.0346 113.734 91.7795L108.275 118.963C108.16 119.536 108.697 120.025 109.257 119.858L124.498 115.308C124.942 115.176 125.172 114.684 124.987 114.258L115.206 91.6246Z" clip-rule="evenodd" fill-rule="evenodd"></path>
<path fill="white" d="M225.849 381.051C225.626 381.051 225.419 381.099 225.228 381.162C225.634 381.433 225.857 381.792 225.969 382.198C225.977 382.254 225.993 382.294 226.001 382.35C226.009 382.398 226.017 382.445 226.017 382.493C226.049 383.194 225.833 383.282 225.682 383.696C225.451 384.23 225.515 384.804 225.794 385.266C225.818 385.322 225.849 385.386 225.889 385.442C225.586 383.425 227.268 383.123 227.579 382.493C227.603 381.943 227.148 381.577 226.79 381.322C226.447 381.115 226.136 381.051 225.849 381.051V381.051ZM228.383 381.505C228.352 381.688 228.375 381.64 228.368 381.736C228.36 381.8 228.36 381.88 228.352 381.943C228.336 382.007 228.32 382.071 228.296 382.135C228.28 382.198 228.256 382.262 228.232 382.326C228.2 382.39 228.176 382.445 228.144 382.509C228.12 382.541 228.105 382.573 228.081 382.605C228.065 382.629 228.049 382.653 228.033 382.676C227.993 382.732 227.953 382.788 227.913 382.836C227.865 382.884 227.826 382.939 227.77 382.979V382.987C227.722 383.027 227.674 383.075 227.618 383.115C227.451 383.242 227.26 383.338 227.085 383.457C227.029 383.497 226.973 383.529 226.925 383.577C226.869 383.617 226.822 383.657 226.774 383.704C226.718 383.752 226.678 383.8 226.63 383.856C226.59 383.904 226.543 383.959 226.511 384.015C226.471 384.071 226.431 384.127 226.399 384.183C226.367 384.246 226.343 384.302 226.312 384.366C226.288 384.43 226.264 384.485 226.248 384.549C226.224 384.621 226.208 384.685 226.192 384.748C226.184 384.78 226.184 384.82 226.176 384.852C226.168 384.884 226.168 384.916 226.16 384.948C226.16 385.011 226.152 385.083 226.152 385.147C226.152 385.195 226.152 385.242 226.16 385.29C226.16 385.354 226.168 385.418 226.184 385.489C226.192 385.553 226.208 385.617 226.224 385.681C226.248 385.744 226.264 385.808 226.288 385.872C226.304 385.912 226.328 385.952 226.343 385.983L224.511 385.274C224.2 385.187 223.897 385.107 223.586 385.035C223.419 384.995 223.252 384.955 223.084 384.916C222.606 384.82 222.12 384.748 221.634 384.7C221.618 384.7 221.61 384.693 221.594 384.693C221.116 384.645 220.646 384.621 220.168 384.621C219.817 384.621 219.466 384.637 219.124 384.661C218.638 384.693 218.152 384.756 217.666 384.836C217.546 384.852 217.426 384.876 217.307 384.9C217.06 384.948 216.821 385.003 216.59 385.059C216.47 385.091 216.351 385.123 216.231 385.155C216.112 385.203 216 385.258 215.888 385.306C215.801 385.346 215.713 385.386 215.626 385.426C215.61 385.434 215.594 385.434 215.586 385.442C215.506 385.481 215.434 385.513 215.363 385.553C215.339 385.561 215.323 385.569 215.307 385.577C215.219 385.617 215.131 385.665 215.06 385.705C215.004 385.728 214.948 385.76 214.9 385.784C214.876 385.8 214.845 385.816 214.829 385.824C214.757 385.864 214.685 385.904 214.621 385.944C214.55 385.983 214.486 386.023 214.43 386.063C214.374 386.103 214.319 386.135 214.271 386.175C214.263 386.183 214.255 386.183 214.247 386.191C214.199 386.222 214.143 386.262 214.096 386.302C214.096 386.302 214.088 386.31 214.08 386.318C214.04 386.35 214 386.382 213.96 386.414C213.944 386.422 213.928 386.438 213.912 386.446C213.872 386.477 213.833 386.517 213.793 386.549C213.785 386.565 213.769 386.573 213.761 386.581C213.713 386.629 213.665 386.669 213.617 386.717C213.609 386.717 213.609 386.725 213.601 386.732C213.554 386.772 213.506 386.82 213.458 386.868C213.45 386.876 213.45 386.884 213.442 386.884C213.402 386.924 213.362 386.964 213.323 387.011C213.307 387.027 213.283 387.043 213.267 387.059C213.227 387.107 213.179 387.155 213.131 387.203C213.123 387.219 213.107 387.227 213.099 387.242C213.036 387.306 212.98 387.37 212.916 387.434C212.908 387.442 212.9 387.45 212.892 387.458C212.765 387.593 212.629 387.729 212.486 387.848C212.342 387.976 212.191 388.095 212.04 388.199C211.88 388.31 211.729 388.406 211.561 388.502C211.402 388.589 211.235 388.669 211.059 388.741C210.892 388.812 210.717 388.876 210.541 388.932C210.207 389.004 209.864 389.139 209.569 389.163C209.506 389.163 209.434 389.179 209.37 389.187C209.298 389.203 209.235 389.219 209.171 389.235C209.107 389.259 209.043 389.282 208.98 389.306C208.916 389.33 208.852 389.362 208.788 389.394C208.733 389.434 208.669 389.466 208.613 389.506C208.557 389.545 208.501 389.593 208.454 389.641C208.398 389.681 208.342 389.737 208.294 389.785C208.246 389.84 208.199 389.888 208.159 389.944C208.119 390.008 208.071 390.063 208.039 390.127C207.999 390.183 207.96 390.247 207.928 390.31C207.896 390.382 207.864 390.446 207.84 390.518C207.816 390.581 207.792 390.653 207.768 390.725C207.752 390.789 207.736 390.852 207.728 390.916C207.728 390.924 207.72 390.932 207.72 390.94C207.705 391.012 207.705 391.107 207.697 391.155C207.689 391.211 207.681 391.259 207.681 391.315C207.681 391.346 207.681 391.386 207.689 391.418C207.697 391.474 207.705 391.522 207.721 391.57C207.736 391.617 207.752 391.665 207.776 391.713V391.721C207.8 391.769 207.832 391.817 207.864 391.864C207.896 391.912 207.928 391.96 207.968 392.008C208.007 392.048 208.055 392.095 208.103 392.135C208.151 392.183 208.199 392.223 208.254 392.263C208.446 392.43 208.494 392.486 208.741 392.613C208.78 392.637 208.82 392.653 208.868 392.677C208.876 392.677 208.884 392.685 208.892 392.685C208.892 392.701 208.892 392.709 208.9 392.725C208.908 392.789 208.924 392.853 208.94 392.916C208.956 392.988 208.98 393.052 209.004 393.108C209.027 393.155 209.043 393.203 209.067 393.251C209.075 393.267 209.083 393.283 209.091 393.291C209.123 393.355 209.155 393.41 209.187 393.466C209.227 393.522 209.266 393.578 209.306 393.633C209.346 393.681 209.394 393.737 209.442 393.785C209.49 393.833 209.537 393.873 209.593 393.92C209.593 393.92 209.601 393.928 209.609 393.928C209.657 393.968 209.705 394.008 209.753 394.04C209.808 394.08 209.864 394.112 209.928 394.143C209.984 394.175 210.047 394.207 210.111 394.231C210.159 394.255 210.215 394.271 210.271 394.287C210.279 394.295 210.286 394.295 210.302 394.303C210.334 394.311 210.374 394.319 210.406 394.327C210.382 394.757 210.374 395.163 210.438 395.307C210.51 395.466 210.86 394.98 211.211 394.422C211.163 394.972 211.131 395.618 211.211 395.809C211.299 396.008 211.777 395.387 212.191 394.701C217.841 393.394 222.997 397.299 223.539 402.813C223.435 401.953 222.375 401.475 221.889 401.594C221.65 402.184 221.244 402.941 220.59 403.411C220.646 402.885 220.622 402.343 220.51 401.817C220.335 402.55 219.992 403.236 219.522 403.825C218.765 403.881 218.008 403.515 217.61 402.965C217.578 402.941 217.57 402.893 217.546 402.861C217.522 402.805 217.498 402.75 217.482 402.694C217.458 402.638 217.442 402.582 217.434 402.527C217.426 402.471 217.426 402.415 217.426 402.351C217.426 402.311 217.426 402.272 217.426 402.232C217.434 402.176 217.45 402.12 217.466 402.064C217.482 402.009 217.498 401.953 217.522 401.897C217.554 401.841 217.578 401.785 217.618 401.73C217.753 401.347 217.753 401.036 217.506 400.853C217.458 400.821 217.411 400.797 217.355 400.773C217.323 400.765 217.283 400.75 217.251 400.742C217.227 400.734 217.211 400.726 217.187 400.718C217.132 400.702 217.076 400.686 217.02 400.678C216.964 400.662 216.909 400.654 216.853 400.654C216.797 400.646 216.733 400.638 216.677 400.638C216.638 400.638 216.598 400.646 216.558 400.646C216.494 400.646 216.438 400.654 216.383 400.67C216.327 400.678 216.271 400.686 216.215 400.702C216.159 400.718 216.104 400.734 216.048 400.758C215.992 400.781 215.944 400.805 215.889 400.829C215.841 400.853 215.793 400.885 215.737 400.909C213.88 402.12 214.988 404.957 216.255 405.778C215.777 405.866 215.291 405.969 215.155 406.073C215.147 406.081 215.139 406.089 215.139 406.089C215.482 406.296 215.841 406.471 216.215 406.623C216.725 406.79 217.267 406.941 217.506 407.005V407.013C218.168 407.148 218.837 407.196 219.514 407.156C223.044 406.909 225.937 404.224 226.463 400.686C226.479 400.758 226.495 400.821 226.511 400.893C226.535 401.036 226.567 401.188 226.583 401.339V401.347C226.599 401.419 226.607 401.491 226.614 401.554V401.586C226.622 401.658 226.63 401.73 226.63 401.794C226.638 401.881 226.646 401.969 226.646 402.056V402.184C226.646 402.224 226.654 402.272 226.654 402.311C226.654 402.359 226.646 402.407 226.646 402.455V402.566C226.646 402.622 226.638 402.67 226.638 402.726C226.638 402.758 226.638 402.79 226.63 402.829C226.63 402.885 226.622 402.941 226.622 403.005C226.614 403.029 226.614 403.053 226.614 403.076C226.606 403.14 226.598 403.196 226.591 403.26C226.591 403.284 226.591 403.308 226.583 403.331C226.575 403.411 226.559 403.483 226.551 403.563V403.571V403.579C226.535 403.65 226.519 403.73 226.503 403.802V403.826C226.487 403.897 226.471 403.969 226.455 404.041C226.455 404.049 226.447 404.065 226.447 404.073C226.431 404.144 226.415 404.216 226.391 404.288V404.312C226.367 404.391 226.343 404.463 226.328 404.535C226.32 404.543 226.32 404.551 226.32 404.551C226.296 404.63 226.272 404.71 226.248 404.79C226.216 404.869 226.192 404.941 226.16 405.021C226.128 405.101 226.104 405.18 226.072 405.252C226.041 405.332 226.009 405.403 225.977 405.483H225.969C225.937 405.555 225.905 405.634 225.865 405.706C225.857 405.73 225.849 405.746 225.841 405.762C225.833 405.77 225.833 405.778 225.825 405.786C225.307 406.83 224.542 407.746 223.586 408.463C223.522 408.503 223.459 408.551 223.395 408.599C223.379 408.615 223.355 408.623 223.339 408.639C223.283 408.679 223.228 408.718 223.164 408.758L223.188 408.806H223.196C223.307 408.79 223.419 408.774 223.53 408.758H223.538C223.746 408.726 223.953 408.687 224.16 408.647C224.216 408.639 224.28 408.623 224.335 408.607C224.375 408.599 224.407 408.591 224.447 408.583C224.503 408.575 224.558 408.559 224.614 408.551C224.662 408.535 224.71 408.527 224.758 408.511C225.555 408.32 226.328 408.057 227.069 407.746C225.802 409.475 224.104 410.87 222.12 411.786C223.036 411.723 223.953 411.571 224.837 411.316C228.049 410.368 230.75 408.208 232.368 405.3C232.041 407.141 231.308 408.894 230.224 410.424C230.997 409.914 231.706 409.324 232.352 408.655C234.137 406.79 235.308 404.423 235.707 401.881C235.978 403.14 236.057 404.439 235.938 405.722C241.691 397.698 236.416 389.378 234.209 387.187C234.201 387.171 234.193 387.163 234.193 387.147C234.185 387.155 234.185 387.155 234.185 387.163C234.185 387.155 234.185 387.155 234.177 387.147C234.177 387.243 234.169 387.338 234.161 387.434C234.137 387.617 234.113 387.792 234.081 387.968C234.041 388.143 233.993 388.318 233.946 388.494C233.89 388.661 233.826 388.836 233.754 389.004C233.683 389.163 233.603 389.33 233.515 389.49C233.428 389.641 233.332 389.801 233.228 389.944C233.125 390.095 233.013 390.239 232.902 390.374C232.782 390.518 232.655 390.645 232.527 390.773C232.448 390.844 232.376 390.908 232.296 390.972C232.232 391.028 232.177 391.076 232.113 391.131C231.969 391.243 231.826 391.346 231.667 391.442C231.515 391.538 231.356 391.633 231.196 391.713C231.029 391.793 230.862 391.864 230.694 391.936C230.527 392 230.352 392.056 230.176 392.104C230.001 392.151 229.818 392.191 229.643 392.223C229.459 392.255 229.276 392.271 229.101 392.287C228.973 392.295 228.846 392.303 228.718 392.303C228.535 392.303 228.352 392.287 228.176 392.271C227.993 392.255 227.81 392.231 227.634 392.191C227.451 392.159 227.276 392.111 227.1 392.056H227.093C227.268 392.04 227.443 392.024 227.618 391.992C227.802 391.96 227.977 391.92 228.152 391.872C228.328 391.825 228.503 391.769 228.67 391.705C228.846 391.641 229.013 391.562 229.172 391.482C229.34 391.402 229.491 391.315 229.65 391.219C229.802 391.115 229.953 391.012 230.097 390.9C230.24 390.789 230.376 390.669 230.503 390.542C230.639 390.422 230.758 390.287 230.878 390.151C230.997 390.008 231.109 389.864 231.212 389.721C231.228 389.697 231.244 389.665 231.26 389.641C231.34 389.514 231.42 389.386 231.491 389.259C231.579 389.099 231.659 388.94 231.73 388.773C231.802 388.605 231.866 388.438 231.922 388.263C231.977 388.095 232.017 387.92 232.057 387.745C232.089 387.561 232.121 387.386 232.137 387.211C232.153 387.027 232.169 386.844 232.169 386.669C232.169 386.541 232.161 386.414 232.153 386.286C232.137 386.103 232.113 385.928 232.089 385.752C232.057 385.569 232.017 385.394 231.969 385.218C231.914 385.051 231.858 384.876 231.794 384.708C231.73 384.541 231.651 384.374 231.571 384.214C231.483 384.055 231.396 383.896 231.3 383.744C231.196 383.593 231.093 383.449 230.981 383.306C230.862 383.171 230.742 383.035 230.615 382.9C230.551 382.836 230.479 382.764 230.408 382.7C230.049 382.421 229.674 382.158 229.3 381.919C229.244 381.888 229.196 381.864 229.14 381.84C228.878 381.672 228.63 381.585 228.383 381.505L228.383 381.505Z" clip-rule="evenodd" fill-rule="evenodd"></path>
<path fill="white" d="M245.896 401.821C246.13 401.711 246.35 401.642 246.557 401.601C247.067 401.518 247.356 401.449 247.439 401.394C247.577 401.312 247.673 401.201 247.715 401.091C247.77 400.898 247.797 400.498 247.797 399.864V398.666L247.811 397.687L247.77 396.226V395.358C247.77 394.779 247.729 394.297 247.632 393.939C247.605 393.801 247.481 393.663 247.288 393.525C247.026 393.332 246.599 393.153 245.978 392.974L245.965 392.312C246.075 392.285 246.185 392.257 246.282 392.243C246.378 392.23 246.75 392.133 247.398 391.968C247.908 391.789 248.238 391.651 248.376 391.582C248.431 391.554 248.5 391.513 248.611 391.458C248.721 391.361 248.845 391.279 248.983 391.182C249.258 390.989 249.589 390.645 249.975 390.176L250.705 390.121L250.678 391.678C250.664 391.83 250.664 391.954 250.664 392.05C250.664 392.133 250.664 392.34 250.678 392.684C251.45 392.023 252.139 391.568 252.773 391.306C253.586 390.962 254.371 390.796 255.102 390.796C255.97 390.796 256.742 391.017 257.389 391.444C258.051 391.871 258.478 392.367 258.671 392.919C258.878 393.484 258.974 394.628 258.974 396.323L258.919 400.843C258.919 401.05 258.96 401.229 259.029 401.367C259.126 401.436 259.388 401.504 259.801 401.573L260.476 401.697C260.559 401.821 260.6 401.959 260.6 402.138C260.6 402.249 260.6 402.4 260.586 402.593L257.872 402.4L257.072 402.428H256.438L254.605 402.566H254.137C254.123 402.442 254.123 402.359 254.123 402.29C254.123 402.125 254.137 401.945 254.151 401.752C254.275 401.725 254.605 401.684 255.115 401.615C255.253 401.601 255.405 401.56 255.584 401.518C255.763 401.449 255.873 401.367 255.901 401.298C255.97 401.132 256.011 400.843 256.011 400.402C256.011 399.616 255.997 399.024 255.984 398.61L255.997 397.012C255.997 395.055 255.887 393.842 255.639 393.373C255.281 392.671 254.757 392.326 254.054 392.326C253.544 392.326 253.007 392.464 252.456 392.726C251.891 392.988 251.325 393.387 250.733 393.925L250.705 394.159L250.733 395.027L250.719 395.951L250.774 398.169L250.747 398.514C250.747 400.016 250.802 400.87 250.926 401.063C251.05 401.256 251.505 401.463 252.304 401.697C252.332 401.849 252.345 401.973 252.345 402.042C252.345 402.152 252.304 402.318 252.249 402.552C251.959 402.566 251.711 402.566 251.518 402.566C251.325 402.566 251.022 402.538 250.609 402.483L249.134 402.455C248.39 402.455 247.329 402.483 245.937 402.552C245.896 402.455 245.882 402.359 245.882 402.262C245.882 402.194 245.882 402.042 245.896 401.821L245.896 401.821Z"></path>
<path fill="white" d="M262.171 395.191C262.419 394.406 262.626 393.882 262.819 393.634C263.329 392.876 263.88 392.284 264.459 391.856C265.052 391.429 265.575 391.154 266.044 391.016C266.664 390.837 267.146 390.754 267.532 390.754C268.401 390.754 269.103 390.823 269.627 390.961C270.165 391.085 270.619 391.278 270.978 391.526C271.488 391.884 271.901 392.256 272.218 392.614C272.535 392.986 272.783 393.427 272.976 393.924C273.183 394.42 273.293 395.026 273.32 395.729L271.777 395.701C271.35 395.701 270.426 395.66 268.979 395.577C268.442 395.55 268.084 395.522 267.877 395.522C267.808 395.522 267.312 395.536 266.389 395.536H265.19C265.176 395.674 265.162 395.784 265.162 395.867C265.162 396.363 265.231 396.873 265.341 397.424C265.465 397.962 265.644 398.43 265.879 398.844C266.127 399.257 266.416 399.602 266.774 399.891C267.133 400.194 267.505 400.401 267.877 400.539L268.676 400.8C269.393 400.8 269.861 400.773 270.109 400.732C270.55 400.635 270.936 400.525 271.267 400.387C271.612 400.235 272.011 399.987 272.494 399.643C272.824 399.891 273.1 400.098 273.334 400.304C272.521 401.186 271.667 401.848 270.799 402.248C269.93 402.647 268.952 402.84 267.877 402.84C267.147 402.84 266.554 402.785 266.085 402.647C265.479 402.482 264.914 402.234 264.418 401.889C263.922 401.545 263.494 401.117 263.136 400.621C262.778 400.111 262.502 399.588 262.323 399.05C262.103 398.347 261.979 397.782 261.979 397.369C261.979 396.556 262.047 395.839 262.171 395.191L262.171 395.191ZM270.22 394.599C270.206 394.075 270.109 393.593 269.917 393.111C269.724 392.642 269.42 392.284 269.007 392.022C268.607 391.76 268.194 391.622 267.78 391.622C267.16 391.622 266.609 391.898 266.099 392.435C265.603 392.986 265.327 393.717 265.258 394.654L268.414 394.668C268.621 394.668 268.91 394.654 269.269 394.626C269.544 394.599 269.737 394.585 269.848 394.585C269.93 394.585 270.054 394.585 270.22 394.599V394.599Z"></path>
<path fill="white" d="M275.512 398.65C275.787 398.595 275.994 398.568 276.118 398.568C276.187 398.568 276.283 398.568 276.408 398.581L276.532 398.719C277.041 399.601 277.358 400.125 277.524 400.318C277.841 400.69 278.158 400.993 278.475 401.227C278.681 401.365 279.012 401.531 279.467 401.682C279.77 401.793 280.101 401.848 280.445 401.848C281.024 401.848 281.52 401.668 281.934 401.296C282.347 400.911 282.554 400.511 282.554 400.07C282.554 399.78 282.471 399.532 282.32 399.326C282.168 399.119 281.851 398.912 281.383 398.706C281.148 398.609 280.569 398.444 279.632 398.209C278.709 397.975 278.158 397.823 277.965 397.755C277.524 397.589 277.138 397.355 276.807 397.066C276.463 396.762 276.215 396.432 276.035 396.059C275.801 395.536 275.677 395.081 275.677 394.709C275.677 394.006 275.787 393.441 275.98 392.986C276.187 392.545 276.476 392.146 276.849 391.801C277.11 391.539 277.51 391.305 278.047 391.098C278.585 390.892 279.178 390.781 279.784 390.781C280.666 390.781 281.438 390.836 282.099 390.96C282.761 391.084 283.326 391.264 283.781 391.498C283.849 391.705 283.918 392.201 284.029 392.959C284.125 393.73 284.18 394.185 284.18 394.323C284.18 394.392 284.166 394.461 284.139 394.53C283.891 394.599 283.698 394.64 283.532 394.64C283.45 394.64 283.312 394.626 283.133 394.612C283.05 394.488 282.94 394.282 282.802 394.034C282.361 393.207 281.906 392.628 281.438 392.297C280.969 391.953 280.445 391.787 279.825 391.787C279.191 391.787 278.654 391.98 278.227 392.339C277.91 392.614 277.758 392.972 277.758 393.441C277.758 393.744 277.923 394.047 278.254 394.364C278.571 394.681 279.136 394.929 279.936 395.095C281.148 395.357 282.044 395.632 282.609 395.894C283.436 396.28 284.029 396.749 284.359 397.272C284.69 397.796 284.869 398.402 284.869 399.091C284.869 400.166 284.456 401.062 283.643 401.779C282.843 402.482 281.672 402.84 280.115 402.84C279.922 402.84 279.384 402.799 278.53 402.702C278.144 402.661 277.689 402.564 277.165 402.426C277.028 402.385 276.697 402.261 276.146 402.027C276.049 401.972 275.98 401.903 275.925 401.834C275.898 401.751 275.829 401.365 275.746 400.676C275.608 399.546 275.526 398.871 275.512 398.65V398.65Z"></path>
<path fill="white" d="M286.868 392.034C287.957 391.579 288.743 391.124 289.225 390.683C289.721 390.242 290.231 389.512 290.782 388.52H291.568C291.65 388.768 291.692 389.016 291.692 389.278C291.692 389.76 291.678 390.132 291.678 390.408L291.637 391.221C291.637 391.262 291.637 391.372 291.65 391.538L291.967 391.551C292.009 391.551 292.45 391.538 293.263 391.496C293.332 391.496 293.676 391.482 294.296 391.469C294.352 391.717 294.393 391.937 294.393 392.13C294.393 392.351 294.352 392.599 294.283 392.874C293.979 392.916 293.759 392.93 293.594 392.93C293.525 392.93 293.373 392.93 293.153 392.902H292.436L292.188 392.888L291.526 392.916L291.499 398.208C291.485 399.228 291.499 399.875 291.554 400.123C291.609 400.385 291.719 400.62 291.885 400.854C292.091 400.95 292.326 401.005 292.588 401.005C292.836 401.005 293.015 400.978 293.139 400.937C293.263 400.881 293.47 400.757 293.745 400.537C293.8 400.482 293.897 400.427 294.007 400.344C294.228 400.509 294.42 400.688 294.558 400.868L294.613 401.033C294.283 401.543 293.828 401.943 293.235 402.232C292.657 402.521 292.036 402.659 291.375 402.659C290.507 402.659 289.818 402.384 289.28 401.846C288.743 401.295 288.481 400.454 288.481 399.31L288.536 396.885V392.93L288.109 392.916L287.103 392.93L286.924 392.888C286.868 392.806 286.841 392.737 286.841 392.654C286.841 392.599 286.855 392.392 286.868 392.034L286.868 392.034Z"></path>
<path fill="white" d="M446.883 401.678C446.624 400.891 445.947 400.343 445.071 400.211C444.658 400.149 444.184 400.176 443.625 400.292C442.649 400.494 441.925 400.571 441.397 400.586C443.391 397.204 445.012 393.346 445.946 389.716C447.455 383.845 446.649 381.17 445.706 379.961C443.212 376.759 439.572 375.038 435.181 374.986C432.839 374.957 430.783 375.422 429.71 375.756C428.712 375.579 427.638 375.48 426.511 375.461C424.399 375.428 422.533 375.89 420.938 376.841C420.055 376.541 418.639 376.118 417.003 375.848C413.154 375.214 410.053 375.708 407.784 377.318C405.037 379.268 403.764 382.654 403.999 387.385C404.074 388.887 404.91 393.456 406.227 397.79C406.984 400.281 407.791 402.349 408.626 403.938C409.809 406.192 411.076 407.519 412.498 407.995C413.295 408.262 414.743 408.449 416.267 407.175C416.46 407.41 416.717 407.643 417.059 407.86C417.493 408.135 418.024 408.36 418.554 408.493C420.465 408.973 422.254 408.853 423.781 408.18C423.791 408.453 423.798 408.713 423.804 408.939C423.814 409.304 423.824 409.662 423.838 409.996C423.928 412.26 424.081 414.02 424.535 415.251C424.56 415.319 424.594 415.422 424.629 415.532C424.856 416.229 425.235 417.395 426.199 418.309C427.197 419.256 428.404 419.546 429.51 419.546C430.065 419.546 430.594 419.473 431.058 419.373C432.713 419.017 434.592 418.474 435.951 416.53C437.236 414.692 437.86 411.924 437.973 407.561C437.988 407.438 438.002 407.32 438.015 407.208C438.023 407.132 438.032 407.055 438.041 406.978L438.344 407.004L438.422 407.01C440.107 407.087 442.168 406.728 443.433 406.137C444.433 405.671 447.637 403.972 446.883 401.678"></path>
<path fill="white" d="M444.33 402.391C439.301 403.433 438.955 401.723 438.955 401.723C444.265 393.809 446.485 383.763 444.569 381.305C439.344 374.598 430.298 377.77 430.147 377.852L430.098 377.861C429.105 377.654 427.993 377.53 426.743 377.51C424.468 377.472 422.742 378.109 421.432 379.107C421.432 379.107 405.295 372.429 406.046 387.505C406.206 390.712 410.622 411.773 415.89 405.412C417.816 403.085 419.676 401.119 419.676 401.119C420.6 401.735 421.706 402.05 422.866 401.937L422.956 401.86C422.928 402.149 422.941 402.431 422.992 402.766C421.635 404.289 422.034 404.556 419.321 405.117C416.576 405.685 418.188 406.697 419.241 406.962C420.518 407.282 423.471 407.736 425.466 404.931L425.387 405.251C425.918 405.679 426.292 408.034 426.229 410.168C426.167 412.303 426.125 413.769 426.544 414.914C426.963 416.059 427.38 418.634 430.947 417.867C433.927 417.225 435.471 415.563 435.686 412.79C435.839 410.819 436.184 411.11 436.205 409.347L436.482 408.513C436.801 405.841 436.533 404.979 438.369 405.38L438.815 405.419C440.166 405.481 441.935 405.201 442.973 404.716C445.208 403.674 446.534 401.934 444.33 402.391H444.33"></path>
<path fill="#16A394" d="M422.243 388.838C421.742 388.774 421.288 388.833 421.059 388.994C420.929 389.084 420.889 389.189 420.879 389.261C420.85 389.452 420.995 389.663 421.084 389.772C421.335 390.08 421.703 390.292 422.067 390.339C422.12 390.346 422.172 390.349 422.224 390.349C422.832 390.349 423.383 389.912 423.432 389.59C423.493 389.186 422.859 388.917 422.243 388.838"></path>
<path fill="#16A394" d="M436.752 388.711H436.751C436.709 388.344 436.174 388.239 435.665 388.325C435.158 388.412 434.665 388.691 434.707 389.059C434.74 389.346 435.163 389.834 435.665 389.834C435.707 389.834 435.75 389.831 435.793 389.823C436.127 389.767 436.373 389.507 436.49 389.358C436.668 389.13 436.77 388.876 436.752 388.711"></path>
<path fill="#16A394" d="M444.103 401.67C445.123 401.459 445.737 401.645 445.928 402.223C446.296 403.338 444.265 404.622 443.14 405.145C442.138 405.611 440.54 405.905 439.156 405.905C438.492 405.905 437.878 405.837 437.401 405.688C437.175 407.768 436.695 411.646 436.415 413.27C435.892 416.308 434.539 417.687 431.424 418.355C430.894 418.469 430.412 418.52 429.974 418.52C426.99 418.52 426.045 416.155 425.658 415.188L425.658 415.187C425.186 414.005 425.022 410.125 425.055 406.188C423.979 407.162 422.631 407.666 421.1 407.666C420.471 407.666 419.811 407.582 419.126 407.41C418.929 407.361 417.204 406.897 417.227 405.792C417.247 404.782 418.687 404.484 419.23 404.372L419.23 404.372L419.23 404.372C421.137 403.979 421.26 403.822 421.853 403.07C421.972 402.917 422.113 402.739 422.285 402.535L422.283 402.517C422.282 402.501 422.28 402.484 422.279 402.468C421.424 402.445 420.588 402.217 419.827 401.808C419.313 402.357 417.916 403.866 416.42 405.668C415.519 406.752 414.654 407.071 413.948 407.071C413.66 407.071 413.399 407.018 413.172 406.942C411.237 406.296 409.397 403.154 407.705 397.604C406.42 393.387 405.605 388.984 405.534 387.552C405.321 383.298 406.418 380.287 408.793 378.602C410.783 377.19 413.573 376.761 417.083 377.327C419.113 377.655 420.773 378.225 421.416 378.465C422.895 377.455 424.681 376.96 426.747 376.993C427.874 377.012 428.909 377.157 429.859 377.393C430.31 377.195 432.636 376.49 435.388 376.521C439.393 376.563 442.7 378.11 444.954 380.993C445.513 381.708 445.784 382.879 445.76 384.472C445.737 385.924 445.464 387.705 444.969 389.623C443.925 393.671 441.989 398.01 439.635 401.6C439.991 401.862 441.075 402.296 444.103 401.67ZM438.326 389.921C438.415 389.339 438.5 388.781 438.51 388.167C436.062 387.863 435.087 388.428 434.703 388.978C433.413 390.824 435.933 395.349 437.009 397.281C437.285 397.777 437.485 398.136 437.577 398.359C437.679 398.607 437.79 398.83 437.905 399.034C438.645 397.457 438.454 395.859 438.268 394.307C438.176 393.538 438.08 392.744 438.105 391.979C438.13 391.195 438.229 390.548 438.326 389.923L438.326 389.923L438.326 389.921ZM435.544 377.761C439.131 377.841 441.969 379.185 443.979 381.755C445.52 383.727 443.823 392.699 438.91 400.439C438.861 400.377 438.812 400.315 438.761 400.251L438.699 400.173C439.968 398.074 439.72 395.997 439.499 394.156C439.408 393.4 439.323 392.686 439.344 392.016C439.367 391.306 439.461 390.697 439.551 390.109L439.551 390.107C439.663 389.38 439.777 388.629 439.745 387.743C439.769 387.65 439.778 387.541 439.766 387.41C439.686 386.561 438.717 384.019 436.743 381.718C435.663 380.459 434.088 379.051 431.938 378.101C432.862 377.909 434.127 377.73 435.544 377.761ZM413.564 405.766C413.79 405.841 414.475 406.069 415.467 404.875C416.869 403.187 418.186 401.749 418.793 401.1C418.641 400.969 418.493 400.831 418.352 400.684C416.991 399.261 416.371 397.291 416.652 395.278C416.955 393.111 416.842 391.198 416.781 390.171C416.764 389.89 416.752 389.686 416.752 389.542C416.744 389.168 416.66 383.057 420.197 379.48C420.214 379.463 420.232 379.446 420.25 379.43L420.25 379.43C420.264 379.416 420.278 379.403 420.291 379.39C418.135 378.686 412.77 377.3 409.507 379.617C407.502 381.04 406.582 383.69 406.771 387.491C406.831 388.693 407.591 392.979 408.891 397.242C410.393 402.169 412.096 405.275 413.564 405.766L413.564 405.766ZM419.248 399.827C418.151 398.681 417.652 397.086 417.88 395.451C418.2 393.163 418.082 391.171 418.019 390.1V390.1V390.1L418.019 390.099L418.017 390.072L418.017 390.071L418.017 390.071L418.017 390.071C418.009 389.933 418.002 389.811 417.997 389.714C418.514 389.255 420.909 387.971 422.617 388.362C423.396 388.541 423.871 389.072 424.069 389.986C425.091 394.718 424.204 396.69 423.492 398.275L423.492 398.275C423.345 398.601 423.206 398.91 423.087 399.229L422.996 399.476L422.994 399.48C422.762 400.103 422.547 400.681 422.413 401.231C421.246 401.228 420.111 400.729 419.248 399.827ZM418.601 405.849C418.78 405.971 419.087 406.119 419.427 406.205C421.081 406.619 423.384 406.647 424.964 404.432C425.151 404.17 425.094 403.832 425.043 403.654C424.935 403.278 424.67 402.936 424.397 402.823L424.397 402.823C424.061 402.683 423.875 402.606 423.47 403.061L423.469 403.061C423.199 403.364 423.003 403.612 422.83 403.832L422.827 403.836C422.071 404.798 421.724 405.124 419.481 405.586C419.018 405.682 418.751 405.778 418.601 405.849ZM431.165 417.14C428.421 417.729 427.449 416.327 426.809 414.725C426.396 413.69 426.193 409.025 426.337 403.874C426.339 403.805 426.329 403.739 426.31 403.677C426.294 403.557 426.268 403.435 426.233 403.313C426.019 402.563 425.497 401.936 424.871 401.676C424.622 401.573 424.165 401.384 423.616 401.524C423.733 401.041 423.936 400.496 424.156 399.905L424.249 399.657C424.353 399.377 424.483 399.087 424.621 398.78C425.366 397.122 426.387 394.851 425.279 389.72C424.864 387.798 423.478 386.86 421.377 387.078C420.117 387.208 418.965 387.717 418.39 388.009C418.266 388.072 418.153 388.132 418.048 388.191C418.208 386.255 418.814 382.636 421.082 380.347C422.509 378.905 424.41 378.194 426.727 378.232C431.291 378.307 434.218 380.652 435.87 382.606C437.293 384.29 438.064 385.986 438.371 386.901C436.058 386.666 434.485 387.123 433.687 388.264C431.952 390.747 434.637 395.567 435.927 397.883C436.163 398.308 436.367 398.674 436.432 398.83C436.852 399.85 437.396 400.53 437.793 401.027L437.795 401.03L437.795 401.03C437.916 401.181 438.033 401.327 438.122 401.456C437.422 401.658 436.163 402.125 436.278 404.46C436.186 405.632 435.528 411.119 435.194 413.057C434.753 415.618 433.811 416.572 431.165 417.14ZM439.564 404.651C440.703 404.598 441.902 404.348 442.618 404.015C443.451 403.628 444.039 403.196 444.382 402.875L444.354 402.88C441.809 403.406 440.005 403.334 438.994 402.666C438.931 402.625 438.873 402.582 438.821 402.539C438.738 402.568 438.653 402.592 438.566 402.616L438.558 402.619L438.558 402.619C437.985 402.78 437.444 402.932 437.515 404.387C437.666 404.51 438.306 404.71 439.564 404.651Z" clip-rule="evenodd" fill-rule="evenodd"></path>
<g clip-path="url(#clip1_5817_1878)">
<path fill="white" d="M346.374 415.684C335.482 415.608 326.011 406.569 326.084 395.084C326.155 384.034 335.338 374.73 346.701 374.805C357.744 374.879 367.061 384.045 366.963 395.275C367.054 406.404 357.691 415.762 346.374 415.684ZM346.374 415.684C335.482 415.608 326.011 406.569 326.084 395.084C326.155 384.034 335.338 374.73 346.701 374.805C357.744 374.879 367.061 384.045 366.963 395.275C367.054 406.404 357.691 415.762 346.374 415.684Z"></path>
<path fill="white" d="M346.394 412.969C336.948 412.904 328.736 405.065 328.799 395.106C328.86 385.523 336.824 377.454 346.678 377.52C356.254 377.584 364.334 385.533 364.248 395.272C364.328 404.922 356.208 413.037 346.394 412.969ZM346.394 412.969C336.948 412.904 328.736 405.065 328.799 395.106C328.86 385.523 336.824 377.454 346.678 377.52C356.254 377.584 364.334 385.533 364.248 395.272C364.328 404.922 356.208 413.037 346.394 412.969Z"></path>
<path fill="#16A394" d="M353.123 395.239C353.078 396.084 352.34 396.785 351.612 396.663C351.609 396.663 351.605 396.663 351.601 396.663C350.796 396.664 350.142 396.012 350.141 395.206C350.169 394.398 350.838 393.762 351.646 393.775C352.452 393.779 353.167 394.46 353.123 395.239ZM340.169 403.425C340.472 403.434 340.776 403.428 341.127 403.428V405.629C338.949 405.997 337.156 405.379 336.716 403.539C336.565 402.862 336.472 402.174 336.438 401.481C336.392 400.748 336.473 400.006 336.417 399.274C336.262 397.26 336.001 396.573 334.068 396.478V393.971C334.207 393.939 334.347 393.915 334.489 393.899C335.548 393.847 335.995 393.522 336.232 392.478C336.34 391.892 336.404 391.298 336.423 390.702C336.507 389.55 336.477 388.378 336.669 387.245C336.946 385.605 337.964 384.809 339.645 384.72C340.124 384.694 340.604 384.716 341.146 384.716V386.966C340.923 386.982 340.718 387.014 340.515 387.008C339.145 386.966 339.074 387.433 338.974 388.567C338.912 389.278 338.998 390.001 338.949 390.715C338.899 391.425 338.804 392.132 338.665 392.83C338.467 393.842 337.845 394.595 336.983 395.234C338.657 396.323 338.847 398.016 338.956 399.735C339.014 400.659 338.988 401.589 339.081 402.508C339.154 403.222 339.432 403.404 340.169 403.425ZM341.58 393.775C341.588 393.775 341.597 393.775 341.605 393.775C342.406 393.789 343.044 394.448 343.031 395.249C343.031 395.275 343.03 395.301 343.029 395.327C342.984 396.11 342.313 396.707 341.531 396.662C341.499 396.663 341.468 396.662 341.436 396.661C340.639 396.621 340.026 395.943 340.065 395.146C340.105 394.35 340.783 393.736 341.58 393.775ZM346.567 393.775C347.443 393.769 348.024 394.336 348.029 395.201C348.034 396.09 347.482 396.659 346.613 396.662C345.728 396.666 345.146 396.107 345.141 395.247C345.138 395.203 345.138 395.159 345.139 395.115C345.164 394.351 345.803 393.751 346.567 393.775ZM357.011 392.679C357.244 393.549 357.697 393.855 358.613 393.896C358.763 393.903 358.912 393.929 359.118 393.952V396.457C359.007 396.494 358.892 396.521 358.776 396.539C357.549 396.615 356.99 397.119 356.866 398.349C356.787 399.135 356.794 399.929 356.739 400.717C356.716 401.582 356.638 402.445 356.504 403.301C356.19 404.85 355.223 405.623 353.625 405.717C353.11 405.748 352.592 405.722 352.037 405.722V403.483C352.336 403.464 352.599 403.439 352.864 403.432C353.819 403.409 354.156 403.102 354.203 402.153C354.255 401.111 354.277 400.068 354.324 399.026C354.391 397.519 354.804 396.173 356.207 395.234C355.404 394.661 354.76 393.968 354.593 393.033C354.391 391.9 354.325 390.741 354.217 389.592C354.163 389.018 354.166 388.438 354.109 387.864C354.049 387.244 353.623 387.03 353.059 387.016C352.736 387.008 352.412 387.014 351.999 387.014V384.827C354.635 384.39 356.456 385.267 356.625 387.789C356.696 388.848 356.686 389.913 356.753 390.972C356.783 391.548 356.869 392.12 357.011 392.679Z"></path>
</g>
<path fill="white" d="M80.1081 399.809C79.7955 400.319 79.8003 400.962 80.1206 401.468L85.9173 410.612C86.2935 411.205 87.0187 411.476 87.6917 411.274L104.42 406.255C105.333 405.982 105.792 404.963 105.393 404.098L94.6393 380.771C94.1149 379.633 92.5339 379.54 91.8792 380.608L80.1081 399.809ZM94.3536 386.104C94.125 385.575 93.3511 385.656 93.2376 386.221L89.0976 406.835C89.0103 407.27 89.4172 407.641 89.8421 407.514L101.4 404.064C101.737 403.963 101.911 403.591 101.771 403.268L94.3536 386.104Z" clip-rule="evenodd" fill-rule="evenodd"></path>
<path fill="white" d="M115.562 395.542H116.58C117.533 395.542 118.245 395.354 118.718 394.977C119.19 394.601 119.427 394.053 119.427 393.334C119.427 392.609 119.229 392.073 118.832 391.727C118.436 391.38 117.815 391.207 116.97 391.207H115.562V395.542ZM122.552 393.222C122.552 394.794 122.061 395.995 121.079 396.828C120.097 397.66 118.7 398.076 116.889 398.076H115.561V403.27H112.465V388.668H117.129C118.9 388.668 120.247 389.049 121.169 389.811C122.091 390.574 122.552 391.711 122.552 393.222V393.222Z" clip-rule="evenodd" fill-rule="evenodd"></path>
<path fill="white" d="M130.761 391.895C131.174 391.895 131.516 391.925 131.789 391.984L131.56 394.841C131.313 394.774 131.014 394.741 130.661 394.741C129.688 394.741 128.931 394.991 128.388 395.49C127.846 395.989 127.575 396.689 127.575 397.588V403.27H124.528V392.104H126.835L127.285 393.982H127.435C127.781 393.356 128.249 392.852 128.838 392.469C129.427 392.086 130.068 391.895 130.761 391.895" clip-rule="evenodd" fill-rule="evenodd"></path>
<path fill="white" d="M133.397 403.272H136.444V392.105H133.397V403.272ZM133.268 389.218C133.268 388.226 133.82 387.73 134.925 387.73C136.03 387.73 136.583 388.226 136.583 389.218C136.583 389.691 136.445 390.059 136.169 390.322C135.892 390.585 135.478 390.716 134.925 390.716C133.82 390.716 133.268 390.217 133.268 389.218V389.218Z" clip-rule="evenodd" fill-rule="evenodd"></path>
<path fill="white" d="M147.18 399.954C147.18 401.1 146.782 401.972 145.986 402.571C145.19 403.17 144 403.47 142.415 403.47C141.603 403.47 140.911 403.415 140.338 403.305C139.765 403.195 139.229 403.034 138.73 402.821V400.304C139.296 400.57 139.933 400.793 140.643 400.973C141.352 401.153 141.976 401.243 142.515 401.243C143.62 401.243 144.173 400.923 144.173 400.284C144.173 400.044 144.1 399.85 143.954 399.7C143.807 399.55 143.554 399.38 143.194 399.19C142.835 399 142.355 398.779 141.756 398.526C140.898 398.167 140.266 397.834 139.864 397.527C139.461 397.221 139.168 396.87 138.985 396.474C138.802 396.077 138.71 395.59 138.71 395.01C138.71 394.018 139.094 393.251 139.864 392.708C140.633 392.166 141.723 391.895 143.134 391.895C144.48 391.895 145.788 392.188 147.06 392.773L146.141 394.97C145.582 394.731 145.059 394.535 144.573 394.381C144.087 394.228 143.59 394.152 143.085 394.152C142.186 394.152 141.736 394.395 141.736 394.881C141.736 395.154 141.881 395.39 142.171 395.59C142.461 395.789 143.095 396.086 144.073 396.479C144.946 396.832 145.585 397.161 145.991 397.467C146.397 397.774 146.697 398.126 146.89 398.526C147.083 398.926 147.18 399.402 147.18 399.954" clip-rule="evenodd" fill-rule="evenodd"></path>
<path fill="white" d="M159.241 403.27H156.195V396.749C156.195 395.943 156.059 395.339 155.79 394.936C155.52 394.533 155.096 394.331 154.517 394.331C153.738 394.331 153.172 394.618 152.819 395.191C152.466 395.763 152.289 396.705 152.289 398.017V403.27H149.243V392.104H151.57L151.98 393.533H152.15C152.449 393.02 152.882 392.619 153.448 392.329C154.014 392.039 154.663 391.895 155.396 391.895C157.067 391.895 158.199 392.441 158.792 393.533H159.061C159.361 393.013 159.802 392.61 160.385 392.324C160.967 392.038 161.624 391.895 162.357 391.895C163.622 391.895 164.579 392.219 165.228 392.868C165.878 393.517 166.202 394.558 166.202 395.989V403.27H163.146V396.749C163.146 395.943 163.011 395.339 162.742 394.936C162.472 394.533 162.047 394.331 161.468 394.331C160.722 394.331 160.165 394.598 159.795 395.131C159.426 395.663 159.241 396.509 159.241 397.667V403.27Z" clip-rule="evenodd" fill-rule="evenodd"></path>
<path fill="white" d="M175.066 398.094L173.887 398.134C173.002 398.16 172.343 398.32 171.91 398.613C171.477 398.906 171.261 399.352 171.261 399.952C171.261 400.81 171.753 401.24 172.739 401.24C173.444 401.24 174.009 401.037 174.432 400.63C174.854 400.225 175.066 399.685 175.066 399.012V398.094ZM175.966 403.271L175.377 401.753H175.297C174.784 402.399 174.256 402.846 173.713 403.096C173.171 403.346 172.464 403.471 171.591 403.471C170.519 403.471 169.675 403.164 169.059 402.552C168.444 401.939 168.136 401.067 168.136 399.935C168.136 398.75 168.55 397.876 169.379 397.313C170.208 396.751 171.458 396.44 173.129 396.38L175.067 396.32V395.83C175.067 394.698 174.488 394.132 173.329 394.132C172.437 394.132 171.388 394.402 170.183 394.941L169.174 392.884C170.459 392.211 171.885 391.875 173.449 391.875C174.947 391.875 176.096 392.202 176.895 392.854C177.694 393.506 178.093 394.498 178.093 395.83V403.271H175.966Z" clip-rule="evenodd" fill-rule="evenodd"></path>
</g>
<defs>
<linearGradient gradientUnits="userSpaceOnUse" y2="-125.522" x2="695.2" y1="576.7" x1="14.0444" id="paint0_linear_5817_1878">
<stop stop-color="#187367"></stop>
<stop stop-color="#16A394" offset="0.425004"></stop>
<stop stop-color="#04C8BB" offset="0.741605"></stop>
<stop stop-color="#71E8DF" offset="1"></stop>
</linearGradient>
<linearGradient gradientUnits="userSpaceOnUse" y2="8.74339" x2="170.626" y1="687.599" x1="1355.67" id="paint1_linear_5817_1878">
<stop stop-opacity="0.1" stop-color="white"></stop>
<stop stop-opacity="0" stop-color="white" offset="0.972576"></stop>
</linearGradient>
<linearGradient gradientUnits="userSpaceOnUse" y2="222.516" x2="873.17" y1="-18.4336" x1="873.17" id="paint2_linear_5817_1878">
<stop stop-color="#4247B8" offset="0.0648065"></stop>
<stop stop-color="#4C51BF" offset="0.637734"></stop>
<stop stop-color="#232662" offset="1"></stop>
</linearGradient>
<linearGradient gradientUnits="userSpaceOnUse" y2="82.0729" x2="718.681" y1="49.1562" x1="718.681" id="paint3_linear_5817_1878">
<stop stop-color="#787DE7"></stop>
<stop stop-opacity="0.99" stop-color="#5258E0" offset="1"></stop>
</linearGradient>
<linearGradient gradientUnits="userSpaceOnUse" y2="443.407" x2="739.789" y1="166.5" x1="739.789" id="paint4_linear_5817_1878">
<stop stop-color="#92EFE6"></stop>
<stop stop-opacity="0" stop-color="#B7F4EE" offset="1"></stop>
</linearGradient>
<linearGradient gradientUnits="userSpaceOnUse" y2="443.427" x2="899.664" y1="166.52" x1="899.664" id="paint5_linear_5817_1878">
<stop stop-color="#92EFE6"></stop>
<stop stop-opacity="0" stop-color="#B7F4EE" offset="1"></stop>
</linearGradient>
<clipPath id="clip0_5817_1878">
<rect fill="white" height="474" width="842.667"></rect>
</clipPath>
<clipPath id="clip1_5817_1878">
<rect transform="translate(326.082 374.809)" fill="white" height="40.8794" width="40.8794"></rect>
</clipPath>
</defs>
</svg>
