<svg xmlns="http://www.w3.org/2000/svg" fill="none" viewBox="0 0 844 474" height="474" width="844">
<g clip-path="url(#clip0_10536_188398)">
<rect fill="url(#paint0_linear_10536_188398)" height="474" width="844"></rect>
<rect fill="url(#paint1_radial_10536_188398)" height="474" width="844"></rect>
<rect fill-opacity="0.2" fill="url(#paint2_radial_10536_188398)" height="474" width="844"></rect>
<g filter="url(#filter0_dddddd_10536_188398)">
<rect stroke-width="1.68766" stroke="#16A394" fill="#090B16" rx="21.6582" height="254.312" width="287.312" y="122.844" x="498.844"></rect>
</g>
<g filter="url(#filter1_ddddd_10536_188398)">
<path fill="white" d="M56.781 136.387C59.0164 136.387 60.9807 136.844 62.6742 137.759C64.3676 138.673 65.6715 139.977 66.586 141.671C67.5343 143.33 68.0085 145.244 68.0085 147.411C68.0085 149.545 67.5174 151.425 66.5352 153.051C65.5869 154.676 64.2321 155.946 62.471 156.861C60.7437 157.741 58.7454 158.182 56.4762 158.182H49.2622C49.0928 158.182 49.0082 158.266 49.0082 158.436V171.39C49.0082 171.56 48.9404 171.712 48.805 171.848C48.7034 171.949 48.5679 172 48.3985 172H42.4546C42.2853 172 42.1328 171.949 41.9974 171.848C41.8958 171.712 41.845 171.56 41.845 171.39V136.997C41.845 136.827 41.8958 136.692 41.9974 136.59C42.1328 136.455 42.2853 136.387 42.4546 136.387H56.781ZM55.7142 152.441C57.2721 152.441 58.5253 152.001 59.4736 151.12C60.4219 150.206 60.8961 149.02 60.8961 147.564C60.8961 146.074 60.4219 144.871 59.4736 143.957C58.5253 143.042 57.2721 142.585 55.7142 142.585H49.2622C49.0928 142.585 49.0082 142.67 49.0082 142.839V152.187C49.0082 152.356 49.0928 152.441 49.2622 152.441H55.7142ZM83.9443 145.532C85.1636 145.532 86.1288 145.769 86.8401 146.243C87.111 146.378 87.2126 146.632 87.1449 147.005L86.078 152.796C86.0442 153.203 85.8071 153.321 85.3668 153.152C84.8588 152.983 84.2661 152.898 83.5887 152.898C83.3177 152.898 82.9452 152.932 82.471 153C81.2518 153.101 80.2188 153.559 79.372 154.371C78.5253 155.15 78.102 156.2 78.102 157.521V171.39C78.102 171.56 78.0342 171.712 77.8988 171.848C77.7972 171.949 77.6617 172 77.4923 172H71.5484C71.3791 172 71.2266 171.949 71.0912 171.848C70.9896 171.712 70.9388 171.56 70.9388 171.39V146.497C70.9388 146.328 70.9896 146.192 71.0912 146.091C71.2266 145.955 71.3791 145.887 71.5484 145.887H77.4923C77.6617 145.887 77.7972 145.955 77.8988 146.091C78.0342 146.192 78.102 146.328 78.102 146.497V148.427C78.102 148.529 78.1358 148.597 78.2036 148.631C78.2713 148.665 78.3221 148.648 78.356 148.58C79.7446 146.548 81.6074 145.532 83.9443 145.532ZM93.2317 142.941C92.0802 142.941 91.1149 142.568 90.336 141.823C89.5908 141.044 89.2183 140.079 89.2183 138.927C89.2183 137.742 89.5908 136.777 90.336 136.032C91.0811 135.286 92.0463 134.914 93.2317 134.914C94.4171 134.914 95.3824 135.286 96.1275 136.032C96.8726 136.777 97.2452 137.742 97.2452 138.927C97.2452 140.079 96.8557 141.044 96.0767 141.823C95.3316 142.568 94.3833 142.941 93.2317 142.941ZM90.1835 172C90.0142 172 89.8618 171.949 89.7263 171.848C89.6247 171.712 89.5739 171.56 89.5739 171.39V146.446C89.5739 146.277 89.6247 146.141 89.7263 146.04C89.8618 145.904 90.0142 145.836 90.1835 145.836H96.1275C96.2968 145.836 96.4323 145.904 96.5339 146.04C96.6694 146.141 96.7371 146.277 96.7371 146.446V171.39C96.7371 171.56 96.6694 171.712 96.5339 171.848C96.4323 171.949 96.2968 172 96.1275 172H90.1835ZM111.718 172.356C109.449 172.356 107.468 172.034 105.774 171.39C104.081 170.747 102.76 169.849 101.811 168.698C100.897 167.546 100.44 166.242 100.44 164.786V164.278C100.44 164.109 100.491 163.973 100.592 163.872C100.728 163.736 100.88 163.668 101.049 163.668H106.689C106.858 163.668 106.993 163.736 107.095 163.872C107.23 163.973 107.298 164.109 107.298 164.278V164.329C107.298 165.074 107.705 165.717 108.517 166.259C109.364 166.767 110.414 167.021 111.667 167.021C112.819 167.021 113.75 166.801 114.461 166.361C115.173 165.887 115.528 165.311 115.528 164.634C115.528 164.024 115.223 163.567 114.614 163.262C114.004 162.957 113.005 162.635 111.616 162.297C110.025 161.89 108.771 161.501 107.857 161.128C105.689 160.383 103.962 159.469 102.675 158.385C101.388 157.301 100.745 155.743 100.745 153.711C100.745 151.205 101.71 149.223 103.64 147.767C105.605 146.277 108.196 145.532 111.413 145.532C113.581 145.532 115.477 145.887 117.103 146.599C118.729 147.276 119.982 148.241 120.863 149.494C121.777 150.747 122.234 152.17 122.234 153.762C122.234 153.931 122.167 154.084 122.031 154.219C121.929 154.321 121.794 154.371 121.625 154.371H116.189C116.019 154.371 115.867 154.321 115.731 154.219C115.63 154.084 115.579 153.931 115.579 153.762C115.579 153.017 115.19 152.39 114.411 151.882C113.665 151.374 112.666 151.12 111.413 151.12C110.296 151.12 109.381 151.323 108.67 151.73C107.959 152.136 107.603 152.695 107.603 153.406C107.603 154.084 107.942 154.592 108.619 154.93C109.33 155.269 110.499 155.625 112.124 155.997C112.497 156.099 112.92 156.217 113.395 156.353C113.869 156.454 114.377 156.59 114.919 156.759C117.323 157.47 119.22 158.385 120.609 159.502C121.997 160.62 122.691 162.246 122.691 164.38C122.691 166.886 121.692 168.85 119.694 170.273C117.73 171.661 115.071 172.356 111.718 172.356ZM154.746 145.481C157.387 145.481 159.453 146.277 160.944 147.869C162.434 149.46 163.179 151.696 163.179 154.575V171.39C163.179 171.56 163.111 171.712 162.976 171.848C162.874 171.949 162.739 172 162.569 172H156.625C156.456 172 156.304 171.949 156.168 171.848C156.067 171.712 156.016 171.56 156.016 171.39V156.149C156.016 154.761 155.66 153.66 154.949 152.847C154.238 152.034 153.289 151.628 152.104 151.628C150.919 151.628 149.953 152.034 149.208 152.847C148.463 153.66 148.091 154.744 148.091 156.099V171.39C148.091 171.56 148.023 171.712 147.887 171.848C147.786 171.949 147.65 172 147.481 172H141.588C141.418 172 141.266 171.949 141.131 171.848C141.029 171.712 140.978 171.56 140.978 171.39V156.149C140.978 154.795 140.606 153.711 139.86 152.898C139.115 152.051 138.15 151.628 136.965 151.628C135.881 151.628 134.966 151.95 134.221 152.593C133.51 153.237 133.087 154.134 132.951 155.286V171.39C132.951 171.56 132.884 171.712 132.748 171.848C132.646 171.949 132.511 172 132.342 172H126.398C126.228 172 126.076 171.949 125.94 171.848C125.839 171.712 125.788 171.56 125.788 171.39V146.497C125.788 146.328 125.839 146.192 125.94 146.091C126.076 145.955 126.228 145.887 126.398 145.887H132.342C132.511 145.887 132.646 145.955 132.748 146.091C132.884 146.192 132.951 146.328 132.951 146.497V148.478C132.951 148.58 132.985 148.648 133.053 148.681C133.121 148.715 133.188 148.681 133.256 148.58C134.645 146.514 136.795 145.481 139.708 145.481C141.401 145.481 142.875 145.836 144.128 146.548C145.415 147.259 146.397 148.275 147.074 149.596C147.176 149.799 147.295 149.799 147.43 149.596C148.175 148.207 149.174 147.174 150.427 146.497C151.714 145.82 153.154 145.481 154.746 145.481ZM177.605 145.481C179.807 145.481 181.771 145.87 183.498 146.649C185.225 147.394 186.563 148.427 187.512 149.748C188.494 151.069 188.985 152.542 188.985 154.168V171.39C188.985 171.56 188.917 171.712 188.782 171.848C188.68 171.949 188.545 172 188.375 172H182.431C182.262 172 182.11 171.949 181.974 171.848C181.872 171.712 181.822 171.56 181.822 171.39V169.714C181.822 169.612 181.788 169.545 181.72 169.511C181.652 169.477 181.585 169.511 181.517 169.612C180.094 171.475 177.808 172.406 174.658 172.406C172.017 172.406 169.883 171.763 168.257 170.476C166.632 169.189 165.819 167.292 165.819 164.786C165.819 162.178 166.733 160.163 168.562 158.74C170.391 157.284 172.999 156.556 176.386 156.556H181.568C181.737 156.556 181.822 156.471 181.822 156.302V155.184C181.822 154.067 181.483 153.203 180.806 152.593C180.128 151.95 179.112 151.628 177.757 151.628C176.708 151.628 175.827 151.814 175.116 152.187C174.438 152.559 173.998 153.084 173.795 153.762C173.693 154.134 173.473 154.304 173.134 154.27L166.987 153.457C166.581 153.389 166.395 153.237 166.428 153C166.564 151.577 167.123 150.29 168.105 149.139C169.121 147.987 170.442 147.09 172.068 146.446C173.727 145.803 175.573 145.481 177.605 145.481ZM176.589 167.072C178.045 167.072 179.282 166.683 180.298 165.904C181.314 165.125 181.822 164.126 181.822 162.906V161.077C181.822 160.908 181.737 160.823 181.568 160.823H177.91C176.386 160.823 175.183 161.111 174.303 161.687C173.456 162.263 173.033 163.076 173.033 164.126C173.033 165.04 173.355 165.768 173.998 166.31C174.642 166.818 175.505 167.072 176.589 167.072ZM217.308 136.387C219.544 136.387 221.508 136.844 223.201 137.759C224.895 138.673 226.199 139.977 227.113 141.671C228.062 143.33 228.536 145.244 228.536 147.411C228.536 149.545 228.045 151.425 227.062 153.051C226.114 154.676 224.759 155.946 222.998 156.861C221.271 157.741 219.273 158.182 217.004 158.182H209.79C209.62 158.182 209.535 158.266 209.535 158.436V171.39C209.535 171.56 209.468 171.712 209.332 171.848C209.231 171.949 209.095 172 208.926 172H202.982C202.813 172 202.66 171.949 202.525 171.848C202.423 171.712 202.372 171.56 202.372 171.39V136.997C202.372 136.827 202.423 136.692 202.525 136.59C202.66 136.455 202.813 136.387 202.982 136.387H217.308ZM216.241 152.441C217.799 152.441 219.053 152.001 220.001 151.12C220.949 150.206 221.423 149.02 221.423 147.564C221.423 146.074 220.949 144.871 220.001 143.957C219.053 143.042 217.799 142.585 216.241 142.585H209.79C209.62 142.585 209.535 142.67 209.535 142.839V152.187C209.535 152.356 209.62 152.441 209.79 152.441H216.241ZM241.51 172.406C238.665 172.406 236.226 171.661 234.194 170.171C232.162 168.681 230.774 166.649 230.029 164.075C229.554 162.483 229.317 160.756 229.317 158.893C229.317 156.895 229.554 155.1 230.029 153.508C230.807 151.001 232.213 149.037 234.245 147.615C236.277 146.192 238.716 145.481 241.561 145.481C244.338 145.481 246.709 146.192 248.673 147.615C250.638 149.003 252.026 150.951 252.839 153.457C253.381 155.15 253.652 156.928 253.652 158.791C253.652 160.62 253.415 162.331 252.941 163.922C252.196 166.564 250.807 168.647 248.775 170.171C246.777 171.661 244.355 172.406 241.51 172.406ZM241.51 166.259C242.628 166.259 243.576 165.921 244.355 165.243C245.134 164.566 245.693 163.634 246.031 162.449C246.302 161.365 246.438 160.18 246.438 158.893C246.438 157.47 246.302 156.268 246.031 155.286C245.659 154.134 245.083 153.237 244.304 152.593C243.525 151.95 242.577 151.628 241.459 151.628C240.308 151.628 239.342 151.95 238.563 152.593C237.818 153.237 237.276 154.134 236.938 155.286C236.667 156.099 236.531 157.301 236.531 158.893C236.531 160.417 236.65 161.602 236.887 162.449C237.226 163.634 237.784 164.566 238.563 165.243C239.376 165.921 240.358 166.259 241.51 166.259ZM267.655 172.356C265.386 172.356 263.405 172.034 261.711 171.39C260.018 170.747 258.697 169.849 257.749 168.698C256.834 167.546 256.377 166.242 256.377 164.786V164.278C256.377 164.109 256.428 163.973 256.529 163.872C256.665 163.736 256.817 163.668 256.987 163.668H262.626C262.795 163.668 262.931 163.736 263.032 163.872C263.168 163.973 263.235 164.109 263.235 164.278V164.329C263.235 165.074 263.642 165.717 264.455 166.259C265.301 166.767 266.351 167.021 267.604 167.021C268.756 167.021 269.687 166.801 270.399 166.361C271.11 165.887 271.465 165.311 271.465 164.634C271.465 164.024 271.161 163.567 270.551 163.262C269.941 162.957 268.942 162.635 267.554 162.297C265.962 161.89 264.709 161.501 263.794 161.128C261.627 160.383 259.899 159.469 258.612 158.385C257.325 157.301 256.682 155.743 256.682 153.711C256.682 151.205 257.647 149.223 259.578 147.767C261.542 146.277 264.133 145.532 267.35 145.532C269.518 145.532 271.415 145.887 273.04 146.599C274.666 147.276 275.919 148.241 276.8 149.494C277.714 150.747 278.171 152.17 278.171 153.762C278.171 153.931 278.104 154.084 277.968 154.219C277.867 154.321 277.731 154.371 277.562 154.371H272.126C271.957 154.371 271.804 154.321 271.669 154.219C271.567 154.084 271.516 153.931 271.516 153.762C271.516 153.017 271.127 152.39 270.348 151.882C269.603 151.374 268.604 151.12 267.35 151.12C266.233 151.12 265.318 151.323 264.607 151.73C263.896 152.136 263.54 152.695 263.54 153.406C263.54 154.084 263.879 154.592 264.556 154.93C265.267 155.269 266.436 155.625 268.062 155.997C268.434 156.099 268.858 156.217 269.332 156.353C269.806 156.454 270.314 156.59 270.856 156.759C273.26 157.47 275.157 158.385 276.546 159.502C277.934 160.62 278.629 162.246 278.629 164.38C278.629 166.886 277.63 168.85 275.631 170.273C273.667 171.661 271.008 172.356 267.655 172.356ZM296.662 151.018C296.662 151.188 296.595 151.34 296.459 151.476C296.358 151.577 296.222 151.628 296.053 151.628H291.176C291.006 151.628 290.922 151.713 290.922 151.882V162.652C290.922 163.77 291.142 164.6 291.582 165.142C292.056 165.684 292.801 165.954 293.818 165.954H295.494C295.663 165.954 295.799 166.022 295.9 166.158C296.036 166.259 296.104 166.395 296.104 166.564V171.39C296.104 171.763 295.9 171.983 295.494 172.051C294.072 172.119 293.055 172.152 292.446 172.152C289.635 172.152 287.535 171.695 286.146 170.781C284.758 169.832 284.046 168.071 284.013 165.497V151.882C284.013 151.713 283.928 151.628 283.759 151.628H280.863C280.693 151.628 280.541 151.577 280.406 151.476C280.304 151.34 280.253 151.188 280.253 151.018V146.497C280.253 146.328 280.304 146.192 280.406 146.091C280.541 145.955 280.693 145.887 280.863 145.887H283.759C283.928 145.887 284.013 145.803 284.013 145.633V139.588C284.013 139.418 284.063 139.283 284.165 139.181C284.3 139.046 284.453 138.978 284.622 138.978H290.312C290.481 138.978 290.617 139.046 290.719 139.181C290.854 139.283 290.922 139.418 290.922 139.588V145.633C290.922 145.803 291.006 145.887 291.176 145.887H296.053C296.222 145.887 296.358 145.955 296.459 146.091C296.595 146.192 296.662 146.328 296.662 146.497V151.018ZM315.812 146.497C315.812 146.328 315.862 146.192 315.964 146.091C316.099 145.955 316.252 145.887 316.421 145.887H322.365C322.535 145.887 322.67 145.955 322.772 146.091C322.907 146.192 322.975 146.328 322.975 146.497V169.663C322.975 174.1 321.688 177.267 319.114 179.163C316.574 181.06 313.288 182.008 309.258 182.008C308.073 182.008 306.752 181.924 305.295 181.754C304.957 181.72 304.787 181.5 304.787 181.094L304.991 175.861C304.991 175.421 305.228 175.234 305.702 175.302C306.921 175.505 308.039 175.607 309.055 175.607C311.222 175.607 312.882 175.133 314.034 174.185C315.219 173.236 315.812 171.712 315.812 169.612C315.812 169.511 315.778 169.46 315.71 169.46C315.642 169.426 315.575 169.443 315.507 169.511C314.22 170.899 312.34 171.594 309.868 171.594C307.666 171.594 305.634 171.069 303.771 170.019C301.942 168.935 300.638 167.208 299.859 164.837C299.351 163.279 299.097 161.264 299.097 158.791C299.097 156.149 299.402 153.999 300.012 152.339C300.723 150.273 301.925 148.614 303.619 147.361C305.312 146.107 307.277 145.481 309.512 145.481C312.12 145.481 314.118 146.26 315.507 147.818C315.575 147.886 315.642 147.919 315.71 147.919C315.778 147.886 315.812 147.818 315.812 147.716V146.497ZM315.405 162.906C315.676 161.89 315.812 160.502 315.812 158.74C315.812 157.691 315.778 156.878 315.71 156.302C315.642 155.726 315.524 155.184 315.354 154.676C315.05 153.762 314.542 153.034 313.83 152.492C313.119 151.916 312.238 151.628 311.189 151.628C310.172 151.628 309.309 151.916 308.598 152.492C307.886 153.034 307.361 153.762 307.023 154.676C306.549 155.692 306.311 157.064 306.311 158.791C306.311 160.688 306.515 162.043 306.921 162.855C307.226 163.77 307.751 164.515 308.496 165.091C309.275 165.633 310.189 165.904 311.239 165.904C312.323 165.904 313.221 165.633 313.932 165.091C314.643 164.515 315.134 163.787 315.405 162.906ZM340.078 145.532C341.298 145.532 342.263 145.769 342.974 146.243C343.245 146.378 343.347 146.632 343.279 147.005L342.212 152.796C342.178 153.203 341.941 153.321 341.501 153.152C340.993 152.983 340.4 152.898 339.723 152.898C339.452 152.898 339.079 152.932 338.605 153C337.386 153.101 336.353 153.559 335.506 154.371C334.659 155.15 334.236 156.2 334.236 157.521V171.39C334.236 171.56 334.168 171.712 334.033 171.848C333.931 171.949 333.796 172 333.626 172H327.682C327.513 172 327.361 171.949 327.225 171.848C327.124 171.712 327.073 171.56 327.073 171.39V146.497C327.073 146.328 327.124 146.192 327.225 146.091C327.361 145.955 327.513 145.887 327.682 145.887H333.626C333.796 145.887 333.931 145.955 334.033 146.091C334.168 146.192 334.236 146.328 334.236 146.497V148.427C334.236 148.529 334.27 148.597 334.338 148.631C334.405 148.665 334.456 148.648 334.49 148.58C335.879 146.548 337.741 145.532 340.078 145.532ZM367.975 156.251C368.178 157.538 368.246 158.978 368.178 160.569C368.144 160.976 367.924 161.179 367.518 161.179H351.82C351.617 161.179 351.549 161.264 351.617 161.433C351.718 162.11 351.904 162.788 352.175 163.465C353.056 165.362 354.851 166.31 357.561 166.31C359.728 166.276 361.438 165.396 362.692 163.668C362.827 163.465 362.979 163.364 363.149 163.364C363.25 163.364 363.369 163.431 363.504 163.567L367.162 167.174C367.332 167.343 367.416 167.495 367.416 167.631C367.416 167.699 367.349 167.834 367.213 168.037C366.095 169.426 364.656 170.51 362.895 171.289C361.134 172.034 359.203 172.406 357.103 172.406C354.191 172.406 351.718 171.746 349.686 170.425C347.688 169.104 346.248 167.258 345.368 164.888C344.657 163.194 344.301 160.976 344.301 158.232C344.301 156.37 344.555 154.727 345.063 153.305C345.842 150.9 347.197 148.986 349.127 147.564C351.092 146.141 353.412 145.43 356.087 145.43C359.474 145.43 362.184 146.412 364.216 148.377C366.282 150.341 367.535 152.966 367.975 156.251ZM356.138 151.628C354.004 151.628 352.599 152.627 351.921 154.625C351.786 155.066 351.667 155.608 351.566 156.251C351.566 156.42 351.65 156.505 351.82 156.505H360.609C360.812 156.505 360.88 156.42 360.812 156.251C360.643 155.269 360.558 154.795 360.558 154.829C360.253 153.813 359.711 153.034 358.932 152.492C358.187 151.916 357.256 151.628 356.138 151.628ZM381.644 172.356C379.375 172.356 377.394 172.034 375.7 171.39C374.007 170.747 372.686 169.849 371.738 168.698C370.823 167.546 370.366 166.242 370.366 164.786V164.278C370.366 164.109 370.417 163.973 370.518 163.872C370.654 163.736 370.806 163.668 370.976 163.668H376.615C376.784 163.668 376.92 163.736 377.021 163.872C377.157 163.973 377.224 164.109 377.224 164.278V164.329C377.224 165.074 377.631 165.717 378.444 166.259C379.29 166.767 380.34 167.021 381.593 167.021C382.745 167.021 383.676 166.801 384.388 166.361C385.099 165.887 385.454 165.311 385.454 164.634C385.454 164.024 385.15 163.567 384.54 163.262C383.93 162.957 382.931 162.635 381.543 162.297C379.951 161.89 378.698 161.501 377.783 161.128C375.616 160.383 373.888 159.469 372.601 158.385C371.314 157.301 370.671 155.743 370.671 153.711C370.671 151.205 371.636 149.223 373.567 147.767C375.531 146.277 378.122 145.532 381.339 145.532C383.507 145.532 385.404 145.887 387.029 146.599C388.655 147.276 389.908 148.241 390.789 149.494C391.703 150.747 392.16 152.17 392.16 153.762C392.16 153.931 392.093 154.084 391.957 154.219C391.856 154.321 391.72 154.371 391.551 154.371H386.115C385.946 154.371 385.793 154.321 385.658 154.219C385.556 154.084 385.505 153.931 385.505 153.762C385.505 153.017 385.116 152.39 384.337 151.882C383.592 151.374 382.593 151.12 381.339 151.12C380.222 151.12 379.307 151.323 378.596 151.73C377.885 152.136 377.529 152.695 377.529 153.406C377.529 154.084 377.868 154.592 378.545 154.93C379.257 155.269 380.425 155.625 382.051 155.997C382.423 156.099 382.847 156.217 383.321 156.353C383.795 156.454 384.303 156.59 384.845 156.759C387.25 157.47 389.146 158.385 390.535 159.502C391.923 160.62 392.618 162.246 392.618 164.38C392.618 166.886 391.619 168.85 389.62 170.273C387.656 171.661 384.997 172.356 381.644 172.356ZM352.647 231.406C349.802 231.406 347.364 230.661 345.332 229.171C343.3 227.681 341.911 225.649 341.166 223.075C340.692 221.483 340.455 219.756 340.455 217.893C340.455 215.895 340.692 214.1 341.166 212.508C341.945 210.001 343.35 208.037 345.382 206.615C347.415 205.192 349.853 204.481 352.698 204.481C355.475 204.481 357.846 205.192 359.811 206.615C361.775 208.003 363.164 209.951 363.976 212.457C364.518 214.15 364.789 215.928 364.789 217.791C364.789 219.62 364.552 221.331 364.078 222.922C363.333 225.564 361.944 227.647 359.912 229.171C357.914 230.661 355.492 231.406 352.647 231.406ZM352.647 225.259C353.765 225.259 354.713 224.921 355.492 224.243C356.271 223.566 356.83 222.634 357.169 221.449C357.44 220.365 357.575 219.18 357.575 217.893C357.575 216.47 357.44 215.268 357.169 214.286C356.796 213.134 356.22 212.237 355.441 211.593C354.662 210.95 353.714 210.628 352.597 210.628C351.445 210.628 350.48 210.95 349.701 211.593C348.956 212.237 348.414 213.134 348.075 214.286C347.804 215.099 347.669 216.301 347.669 217.893C347.669 219.417 347.787 220.602 348.024 221.449C348.363 222.634 348.922 223.566 349.701 224.243C350.514 224.921 351.496 225.259 352.647 225.259ZM381.993 204.481C384.703 204.481 386.887 205.311 388.547 206.97C390.206 208.63 391.036 210.882 391.036 213.727V230.39C391.036 230.56 390.968 230.712 390.833 230.848C390.731 230.949 390.596 231 390.426 231H384.482C384.313 231 384.161 230.949 384.025 230.848C383.924 230.712 383.873 230.56 383.873 230.39V215.2C383.873 213.846 383.483 212.745 382.704 211.898C381.959 211.051 380.96 210.628 379.707 210.628C378.454 210.628 377.438 211.051 376.659 211.898C375.914 212.745 375.541 213.846 375.541 215.2V230.39C375.541 230.56 375.473 230.712 375.338 230.848C375.236 230.949 375.101 231 374.932 231H368.988C368.818 231 368.666 230.949 368.53 230.848C368.429 230.712 368.378 230.56 368.378 230.39V205.497C368.378 205.328 368.429 205.192 368.53 205.091C368.666 204.955 368.818 204.887 368.988 204.887H374.932C375.101 204.887 375.236 204.955 375.338 205.091C375.473 205.192 375.541 205.328 375.541 205.497V207.275C375.541 207.377 375.575 207.444 375.643 207.478C375.711 207.512 375.761 207.495 375.795 207.427C377.184 205.463 379.25 204.481 381.993 204.481ZM51.5483 290C51.2096 290 50.9895 289.831 50.8879 289.492L40.4225 255.149L40.3717 254.946C40.3717 254.607 40.558 254.438 40.9305 254.438H47.3317C47.7042 254.438 47.9413 254.607 48.0429 254.946L54.7997 279.738C54.8336 279.839 54.8844 279.89 54.9521 279.89C55.0199 279.89 55.0707 279.839 55.1045 279.738L61.7597 254.946C61.8613 254.607 62.0984 254.438 62.471 254.438H68.7197C68.9229 254.438 69.0753 254.506 69.1769 254.641C69.2785 254.777 69.2955 254.946 69.2277 255.149L58.6099 289.492C58.5083 289.831 58.2882 290 57.9495 290H51.5483ZM92.2184 274.251C92.4217 275.538 92.4894 276.978 92.4217 278.569C92.3878 278.976 92.1676 279.179 91.7612 279.179H76.0631C75.8599 279.179 75.7922 279.264 75.8599 279.433C75.9615 280.11 76.1478 280.788 76.4187 281.465C77.2993 283.362 79.0944 284.31 81.8038 284.31C83.9714 284.276 85.6818 283.396 86.9349 281.668C87.0704 281.465 87.2228 281.364 87.3922 281.364C87.4938 281.364 87.6123 281.431 87.7478 281.567L91.4056 285.174C91.5749 285.343 91.6596 285.495 91.6596 285.631C91.6596 285.699 91.5919 285.834 91.4564 286.037C90.3387 287.426 88.8993 288.51 87.1382 289.289C85.377 290.034 83.4465 290.406 81.3466 290.406C78.4339 290.406 75.9615 289.746 73.9294 288.425C71.9311 287.104 70.4917 285.258 69.6111 282.888C68.8999 281.194 68.5443 278.976 68.5443 276.232C68.5443 274.37 68.7983 272.727 69.3063 271.305C70.0853 268.9 71.44 266.986 73.3706 265.564C75.3349 264.141 77.6549 263.43 80.3306 263.43C83.7174 263.43 86.4269 264.412 88.459 266.377C90.525 268.341 91.7782 270.966 92.2184 274.251ZM80.3814 269.628C78.2476 269.628 76.8421 270.627 76.1647 272.625C76.0292 273.066 75.9107 273.608 75.8091 274.251C75.8091 274.42 75.8938 274.505 76.0631 274.505H84.852C85.0552 274.505 85.123 274.42 85.0552 274.251C84.8859 273.269 84.8012 272.795 84.8012 272.829C84.4964 271.813 83.9545 271.034 83.1755 270.492C82.4304 269.916 81.499 269.628 80.3814 269.628ZM108.826 263.532C110.045 263.532 111.01 263.769 111.722 264.243C111.993 264.378 112.094 264.632 112.026 265.005L110.96 270.796C110.926 271.203 110.689 271.321 110.248 271.152C109.74 270.983 109.148 270.898 108.47 270.898C108.199 270.898 107.827 270.932 107.353 271C106.133 271.101 105.1 271.559 104.254 272.371C103.407 273.15 102.983 274.2 102.983 275.521V289.39C102.983 289.56 102.916 289.712 102.78 289.848C102.679 289.949 102.543 290 102.374 290H96.4299C96.2606 290 96.1082 289.949 95.9727 289.848C95.8711 289.712 95.8203 289.56 95.8203 289.39V264.497C95.8203 264.328 95.8711 264.192 95.9727 264.091C96.1082 263.955 96.2606 263.887 96.4299 263.887H102.374C102.543 263.887 102.679 263.955 102.78 264.091C102.916 264.192 102.983 264.328 102.983 264.497V266.427C102.983 266.529 103.017 266.597 103.085 266.631C103.153 266.665 103.204 266.648 103.238 266.58C104.626 264.548 106.489 263.532 108.826 263.532ZM125.089 290.406C122.379 290.406 120.025 289.729 118.027 288.374C116.063 287.02 114.657 285.157 113.81 282.786C113.235 281.093 112.947 279.094 112.947 276.791C112.947 274.522 113.235 272.558 113.81 270.898C114.623 268.595 116.029 266.783 118.027 265.462C120.025 264.141 122.379 263.481 125.089 263.481C127.798 263.481 130.169 264.158 132.201 265.513C134.267 266.868 135.639 268.578 136.316 270.644C136.587 271.457 136.723 272.067 136.723 272.473V272.575C136.723 272.879 136.553 273.066 136.215 273.133L130.372 273.997H130.271C129.966 273.997 129.763 273.828 129.661 273.489L129.509 272.676C129.272 271.796 128.747 271.067 127.934 270.492C127.121 269.916 126.156 269.628 125.038 269.628C123.954 269.628 123.04 269.899 122.295 270.441C121.549 270.983 121.024 271.728 120.72 272.676C120.347 273.692 120.161 275.081 120.161 276.842C120.161 278.603 120.33 279.992 120.669 281.008C120.974 282.024 121.499 282.82 122.244 283.396C123.023 283.971 123.954 284.259 125.038 284.259C126.088 284.259 127.002 283.988 127.781 283.446C128.594 282.871 129.153 282.092 129.458 281.109C129.492 281.042 129.509 280.94 129.509 280.805C129.542 280.771 129.559 280.72 129.559 280.652C129.593 280.246 129.83 280.076 130.271 280.144L136.113 281.059C136.452 281.126 136.621 281.313 136.621 281.618C136.621 281.888 136.519 282.396 136.316 283.142C135.605 285.411 134.216 287.189 132.15 288.476C130.118 289.763 127.764 290.406 125.089 290.406ZM162.696 274.251C162.899 275.538 162.967 276.978 162.899 278.569C162.865 278.976 162.645 279.179 162.238 279.179H146.54C146.337 279.179 146.269 279.264 146.337 279.433C146.439 280.11 146.625 280.788 146.896 281.465C147.776 283.362 149.572 284.31 152.281 284.31C154.449 284.276 156.159 283.396 157.412 281.668C157.548 281.465 157.7 281.364 157.869 281.364C157.971 281.364 158.089 281.431 158.225 281.567L161.883 285.174C162.052 285.343 162.137 285.495 162.137 285.631C162.137 285.699 162.069 285.834 161.934 286.037C160.816 287.426 159.376 288.51 157.615 289.289C155.854 290.034 153.924 290.406 151.824 290.406C148.911 290.406 146.439 289.746 144.407 288.425C142.408 287.104 140.969 285.258 140.088 282.888C139.377 281.194 139.021 278.976 139.021 276.232C139.021 274.37 139.275 272.727 139.783 271.305C140.562 268.9 141.917 266.986 143.848 265.564C145.812 264.141 148.132 263.43 150.808 263.43C154.195 263.43 156.904 264.412 158.936 266.377C161.002 268.341 162.255 270.966 162.696 274.251ZM150.859 269.628C148.725 269.628 147.319 270.627 146.642 272.625C146.506 273.066 146.388 273.608 146.286 274.251C146.286 274.42 146.371 274.505 146.54 274.505H155.329C155.532 274.505 155.6 274.42 155.532 274.251C155.363 273.269 155.278 272.795 155.278 272.829C154.974 271.813 154.432 271.034 153.653 270.492C152.908 269.916 151.976 269.628 150.859 269.628ZM166.907 290C166.738 290 166.585 289.949 166.45 289.848C166.348 289.712 166.297 289.56 166.297 289.39V255.048C166.297 254.878 166.348 254.743 166.45 254.641C166.585 254.506 166.738 254.438 166.907 254.438H172.851C173.02 254.438 173.156 254.506 173.257 254.641C173.393 254.743 173.461 254.878 173.461 255.048V289.39C173.461 289.56 173.393 289.712 173.257 289.848C173.156 289.949 173.02 290 172.851 290H166.907ZM210.157 254.844C210.327 254.573 210.564 254.438 210.869 254.438H216.813C216.982 254.438 217.117 254.506 217.219 254.641C217.355 254.743 217.422 254.878 217.422 255.048V289.39C217.422 289.56 217.355 289.712 217.219 289.848C217.117 289.949 216.982 290 216.813 290H210.869C210.699 290 210.547 289.949 210.411 289.848C210.31 289.712 210.259 289.56 210.259 289.39V266.986C210.259 266.851 210.225 266.783 210.157 266.783C210.09 266.783 210.022 266.834 209.954 266.935L204.569 275.369C204.4 275.64 204.163 275.775 203.858 275.775H200.86C200.556 275.775 200.319 275.64 200.149 275.369L194.764 266.935C194.696 266.834 194.629 266.8 194.561 266.834C194.493 266.834 194.459 266.902 194.459 267.037V289.39C194.459 289.56 194.392 289.712 194.256 289.848C194.155 289.949 194.019 290 193.85 290H187.906C187.736 290 187.584 289.949 187.449 289.848C187.347 289.712 187.296 289.56 187.296 289.39V255.048C187.296 254.878 187.347 254.743 187.449 254.641C187.584 254.506 187.736 254.438 187.906 254.438H193.85C194.155 254.438 194.392 254.573 194.561 254.844L202.181 266.681C202.283 266.885 202.385 266.885 202.486 266.681L210.157 254.844ZM232.554 263.481C234.755 263.481 236.719 263.87 238.447 264.649C240.174 265.394 241.512 266.427 242.46 267.748C243.442 269.069 243.933 270.542 243.933 272.168V289.39C243.933 289.56 243.866 289.712 243.73 289.848C243.629 289.949 243.493 290 243.324 290H237.38C237.211 290 237.058 289.949 236.923 289.848C236.821 289.712 236.77 289.56 236.77 289.39V287.714C236.77 287.612 236.736 287.545 236.669 287.511C236.601 287.477 236.533 287.511 236.465 287.612C235.043 289.475 232.757 290.406 229.607 290.406C226.965 290.406 224.832 289.763 223.206 288.476C221.58 287.189 220.767 285.292 220.767 282.786C220.767 280.178 221.682 278.163 223.511 276.74C225.34 275.284 227.947 274.556 231.334 274.556H236.516C236.686 274.556 236.77 274.471 236.77 274.302V273.184C236.77 272.067 236.432 271.203 235.754 270.593C235.077 269.95 234.061 269.628 232.706 269.628C231.656 269.628 230.775 269.814 230.064 270.187C229.387 270.559 228.947 271.084 228.743 271.762C228.642 272.134 228.422 272.304 228.083 272.27L221.936 271.457C221.529 271.389 221.343 271.237 221.377 271C221.512 269.577 222.071 268.29 223.053 267.139C224.069 265.987 225.39 265.09 227.016 264.446C228.676 263.803 230.521 263.481 232.554 263.481ZM231.538 285.072C232.994 285.072 234.23 284.683 235.246 283.904C236.262 283.125 236.77 282.126 236.77 280.906V279.077C236.77 278.908 236.686 278.823 236.516 278.823H232.858C231.334 278.823 230.132 279.111 229.251 279.687C228.405 280.263 227.981 281.076 227.981 282.126C227.981 283.04 228.303 283.768 228.947 284.31C229.59 284.818 230.454 285.072 231.538 285.072ZM260.969 263.532C262.188 263.532 263.153 263.769 263.864 264.243C264.135 264.378 264.237 264.632 264.169 265.005L263.102 270.796C263.069 271.203 262.831 271.321 262.391 271.152C261.883 270.983 261.29 270.898 260.613 270.898C260.342 270.898 259.97 270.932 259.495 271C258.276 271.101 257.243 271.559 256.396 272.371C255.55 273.15 255.126 274.2 255.126 275.521V289.39C255.126 289.56 255.059 289.712 254.923 289.848C254.822 289.949 254.686 290 254.517 290H248.573C248.403 290 248.251 289.949 248.116 289.848C248.014 289.712 247.963 289.56 247.963 289.39V264.497C247.963 264.328 248.014 264.192 248.116 264.091C248.251 263.955 248.403 263.887 248.573 263.887H254.517C254.686 263.887 254.822 263.955 254.923 264.091C255.059 264.192 255.126 264.328 255.126 264.497V266.427C255.126 266.529 255.16 266.597 255.228 266.631C255.296 266.665 255.346 266.648 255.38 266.58C256.769 264.548 258.632 263.532 260.969 263.532ZM267.005 290C266.835 290 266.683 289.949 266.547 289.848C266.446 289.712 266.395 289.56 266.395 289.39V255.048C266.395 254.878 266.446 254.743 266.547 254.641C266.683 254.506 266.835 254.438 267.005 254.438H272.949C273.118 254.438 273.253 254.506 273.355 254.641C273.491 254.743 273.558 254.878 273.558 255.048V272.168C273.558 272.27 273.592 272.338 273.66 272.371C273.728 272.371 273.795 272.338 273.863 272.27L280.772 264.243C281.009 264.006 281.263 263.887 281.534 263.887H288.291C288.63 263.887 288.799 264.006 288.799 264.243C288.799 264.345 288.748 264.48 288.647 264.649L282.195 272.829C282.127 272.964 282.11 273.083 282.144 273.184L289.714 289.289C289.781 289.424 289.815 289.526 289.815 289.594C289.815 289.865 289.629 290 289.256 290H283.008C282.669 290 282.432 289.848 282.296 289.543L277.267 277.655C277.233 277.587 277.165 277.553 277.064 277.553C276.996 277.519 276.945 277.536 276.911 277.604L273.66 281.668C273.592 281.804 273.558 281.905 273.558 281.973V289.39C273.558 289.56 273.491 289.712 273.355 289.848C273.253 289.949 273.118 290 272.949 290H267.005ZM313.251 274.251C313.454 275.538 313.522 276.978 313.454 278.569C313.42 278.976 313.2 279.179 312.794 279.179H297.096C296.892 279.179 296.825 279.264 296.892 279.433C296.994 280.11 297.18 280.788 297.451 281.465C298.332 283.362 300.127 284.31 302.836 284.31C305.004 284.276 306.714 283.396 307.967 281.668C308.103 281.465 308.255 281.364 308.425 281.364C308.526 281.364 308.645 281.431 308.78 281.567L312.438 285.174C312.607 285.343 312.692 285.495 312.692 285.631C312.692 285.699 312.624 285.834 312.489 286.037C311.371 287.426 309.932 288.51 308.171 289.289C306.409 290.034 304.479 290.406 302.379 290.406C299.466 290.406 296.994 289.746 294.962 288.425C292.964 287.104 291.524 285.258 290.644 282.888C289.932 281.194 289.577 278.976 289.577 276.232C289.577 274.37 289.831 272.727 290.339 271.305C291.118 268.9 292.472 266.986 294.403 265.564C296.367 264.141 298.687 263.43 301.363 263.43C304.75 263.43 307.459 264.412 309.491 266.377C311.557 268.341 312.811 270.966 313.251 274.251ZM301.414 269.628C299.28 269.628 297.874 270.627 297.197 272.625C297.062 273.066 296.943 273.608 296.841 274.251C296.841 274.42 296.926 274.505 297.096 274.505H305.884C306.088 274.505 306.155 274.42 306.088 274.251C305.918 273.269 305.834 272.795 305.834 272.829C305.529 271.813 304.987 271.034 304.208 270.492C303.463 269.916 302.531 269.628 301.414 269.628ZM331.244 269.018C331.244 269.188 331.176 269.34 331.041 269.476C330.939 269.577 330.804 269.628 330.635 269.628H325.757C325.588 269.628 325.503 269.713 325.503 269.882V280.652C325.503 281.77 325.724 282.6 326.164 283.142C326.638 283.684 327.383 283.954 328.399 283.954H330.076C330.245 283.954 330.381 284.022 330.482 284.158C330.618 284.259 330.685 284.395 330.685 284.564V289.39C330.685 289.763 330.482 289.983 330.076 290.051C328.653 290.119 327.637 290.152 327.028 290.152C324.216 290.152 322.117 289.695 320.728 288.781C319.339 287.832 318.628 286.071 318.594 283.497V269.882C318.594 269.713 318.51 269.628 318.34 269.628H315.445C315.275 269.628 315.123 269.577 314.987 269.476C314.886 269.34 314.835 269.188 314.835 269.018V264.497C314.835 264.328 314.886 264.192 314.987 264.091C315.123 263.955 315.275 263.887 315.445 263.887H318.34C318.51 263.887 318.594 263.803 318.594 263.633V257.588C318.594 257.418 318.645 257.283 318.747 257.181C318.882 257.046 319.035 256.978 319.204 256.978H324.894C325.063 256.978 325.199 257.046 325.3 257.181C325.436 257.283 325.503 257.418 325.503 257.588V263.633C325.503 263.803 325.588 263.887 325.757 263.887H330.635C330.804 263.887 330.939 263.955 331.041 264.091C331.176 264.192 331.244 264.328 331.244 264.497V269.018ZM357.859 270.898C358.469 272.625 358.773 274.658 358.773 276.994C358.773 279.331 358.452 281.448 357.808 283.345C357.029 285.512 355.793 287.24 354.1 288.527C352.44 289.78 350.374 290.406 347.902 290.406C345.463 290.406 343.566 289.56 342.212 287.866C342.144 287.765 342.076 287.731 342.008 287.765C341.941 287.799 341.907 287.866 341.907 287.968V298.84C341.907 299.009 341.839 299.145 341.704 299.246C341.602 299.382 341.467 299.449 341.297 299.449H335.353C335.184 299.449 335.032 299.382 334.896 299.246C334.794 299.145 334.744 299.009 334.744 298.84V264.497C334.744 264.328 334.794 264.192 334.896 264.091C335.032 263.955 335.184 263.887 335.353 263.887H341.297C341.467 263.887 341.602 263.955 341.704 264.091C341.839 264.192 341.907 264.328 341.907 264.497V266.173C341.907 266.275 341.941 266.343 342.008 266.377C342.076 266.377 342.144 266.343 342.212 266.275C343.634 264.412 345.599 263.481 348.105 263.481C350.442 263.481 352.457 264.141 354.15 265.462C355.878 266.749 357.114 268.561 357.859 270.898ZM350.086 282.278C350.933 280.957 351.356 279.162 351.356 276.893C351.356 274.759 351.001 273.066 350.289 271.813C349.51 270.356 348.257 269.628 346.53 269.628C344.972 269.628 343.804 270.356 343.025 271.813C342.313 273.032 341.958 274.742 341.958 276.944C341.958 279.213 342.33 280.974 343.075 282.227C343.854 283.582 345.006 284.259 346.53 284.259C348.054 284.259 349.239 283.599 350.086 282.278ZM363.008 290C362.839 290 362.687 289.949 362.551 289.848C362.45 289.712 362.399 289.56 362.399 289.39V255.048C362.399 254.878 362.45 254.743 362.551 254.641C362.687 254.506 362.839 254.438 363.008 254.438H368.952C369.122 254.438 369.257 254.506 369.359 254.641C369.494 254.743 369.562 254.878 369.562 255.048V289.39C369.562 289.56 369.494 289.712 369.359 289.848C369.257 289.949 369.122 290 368.952 290H363.008ZM384.2 263.481C386.402 263.481 388.366 263.87 390.093 264.649C391.821 265.394 393.159 266.427 394.107 267.748C395.089 269.069 395.58 270.542 395.58 272.168V289.39C395.58 289.56 395.512 289.712 395.377 289.848C395.275 289.949 395.14 290 394.971 290H389.027C388.857 290 388.705 289.949 388.569 289.848C388.468 289.712 388.417 289.56 388.417 289.39V287.714C388.417 287.612 388.383 287.545 388.315 287.511C388.248 287.477 388.18 287.511 388.112 287.612C386.69 289.475 384.404 290.406 381.254 290.406C378.612 290.406 376.478 289.763 374.853 288.476C373.227 287.189 372.414 285.292 372.414 282.786C372.414 280.178 373.328 278.163 375.157 276.74C376.986 275.284 379.594 274.556 382.981 274.556H388.163C388.332 274.556 388.417 274.471 388.417 274.302V273.184C388.417 272.067 388.078 271.203 387.401 270.593C386.724 269.95 385.707 269.628 384.353 269.628C383.303 269.628 382.422 269.814 381.711 270.187C381.034 270.559 380.593 271.084 380.39 271.762C380.288 272.134 380.068 272.304 379.73 272.27L373.582 271.457C373.176 271.389 372.99 271.237 373.024 271C373.159 269.577 373.718 268.29 374.7 267.139C375.716 265.987 377.037 265.09 378.663 264.446C380.322 263.803 382.168 263.481 384.2 263.481ZM383.184 285.072C384.641 285.072 385.877 284.683 386.893 283.904C387.909 283.125 388.417 282.126 388.417 280.906V279.077C388.417 278.908 388.332 278.823 388.163 278.823H384.505C382.981 278.823 381.779 279.111 380.898 279.687C380.051 280.263 379.628 281.076 379.628 282.126C379.628 283.04 379.95 283.768 380.593 284.31C381.237 284.818 382.1 285.072 383.184 285.072ZM411.091 290.406C408.382 290.406 406.028 289.729 404.03 288.374C402.065 287.02 400.66 285.157 399.813 282.786C399.237 281.093 398.949 279.094 398.949 276.791C398.949 274.522 399.237 272.558 399.813 270.898C400.626 268.595 402.031 266.783 404.03 265.462C406.028 264.141 408.382 263.481 411.091 263.481C413.801 263.481 416.172 264.158 418.204 265.513C420.27 266.868 421.641 268.578 422.319 270.644C422.59 271.457 422.725 272.067 422.725 272.473V272.575C422.725 272.879 422.556 273.066 422.217 273.133L416.375 273.997H416.273C415.968 273.997 415.765 273.828 415.664 273.489L415.511 272.676C415.274 271.796 414.749 271.067 413.936 270.492C413.123 269.916 412.158 269.628 411.041 269.628C409.957 269.628 409.042 269.899 408.297 270.441C407.552 270.983 407.027 271.728 406.722 272.676C406.35 273.692 406.163 275.081 406.163 276.842C406.163 278.603 406.333 279.992 406.671 281.008C406.976 282.024 407.501 282.82 408.246 283.396C409.025 283.971 409.957 284.259 411.041 284.259C412.09 284.259 413.005 283.988 413.784 283.446C414.597 282.871 415.156 282.092 415.46 281.109C415.494 281.042 415.511 280.94 415.511 280.805C415.545 280.771 415.562 280.72 415.562 280.652C415.596 280.246 415.833 280.076 416.273 280.144L422.116 281.059C422.454 281.126 422.624 281.313 422.624 281.618C422.624 281.888 422.522 282.396 422.319 283.142C421.608 285.411 420.219 287.189 418.153 288.476C416.121 289.763 413.767 290.406 411.091 290.406ZM448.698 274.251C448.901 275.538 448.969 276.978 448.901 278.569C448.868 278.976 448.647 279.179 448.241 279.179H432.543C432.34 279.179 432.272 279.264 432.34 279.433C432.441 280.11 432.628 280.788 432.898 281.465C433.779 283.362 435.574 284.31 438.284 284.31C440.451 284.276 442.162 283.396 443.415 281.668C443.55 281.465 443.703 281.364 443.872 281.364C443.974 281.364 444.092 281.431 444.228 281.567L447.885 285.174C448.055 285.343 448.139 285.495 448.139 285.631C448.139 285.699 448.072 285.834 447.936 286.037C446.818 287.426 445.379 288.51 443.618 289.289C441.857 290.034 439.926 290.406 437.826 290.406C434.914 290.406 432.441 289.746 430.409 288.425C428.411 287.104 426.971 285.258 426.091 282.888C425.38 281.194 425.024 278.976 425.024 276.232C425.024 274.37 425.278 272.727 425.786 271.305C426.565 268.9 427.92 266.986 429.85 265.564C431.815 264.141 434.135 263.43 436.81 263.43C440.197 263.43 442.907 264.412 444.939 266.377C447.005 268.341 448.258 270.966 448.698 274.251ZM436.861 269.628C434.727 269.628 433.322 270.627 432.644 272.625C432.509 273.066 432.39 273.608 432.289 274.251C432.289 274.42 432.374 274.505 432.543 274.505H441.332C441.535 274.505 441.603 274.42 441.535 274.251C441.366 273.269 441.281 272.795 441.281 272.829C440.976 271.813 440.434 271.034 439.655 270.492C438.91 269.916 437.979 269.628 436.861 269.628Z"></path>
<path fill="#71E8DF" d="M55.2569 204.481C57.9664 204.481 60.151 205.311 61.8105 206.97C63.4701 208.63 64.2999 210.882 64.2999 213.727V230.39C64.2999 230.56 64.2321 230.712 64.0966 230.848C63.995 230.949 63.8596 231 63.6902 231H57.7463C57.5769 231 57.4245 230.949 57.2891 230.848C57.1874 230.712 57.1366 230.56 57.1366 230.39V215.2C57.1366 213.846 56.7472 212.745 55.9682 211.898C55.2231 211.051 54.2239 210.628 52.9708 210.628C51.7177 210.628 50.7016 211.051 49.9226 211.898C49.1775 212.745 48.805 213.846 48.805 215.2V230.39C48.805 230.56 48.7372 230.712 48.6018 230.848C48.5001 230.949 48.3647 231 48.1953 231H42.2514C42.082 231 41.9296 230.949 41.7942 230.848C41.6926 230.712 41.6418 230.56 41.6418 230.39V205.497C41.6418 205.328 41.6926 205.192 41.7942 205.091C41.9296 204.955 42.082 204.887 42.2514 204.887H48.1953C48.3647 204.887 48.5001 204.955 48.6018 205.091C48.7372 205.192 48.805 205.328 48.805 205.497V207.275C48.805 207.377 48.8388 207.444 48.9066 207.478C48.9743 207.512 49.0251 207.495 49.059 207.427C50.4476 205.463 52.5136 204.481 55.2569 204.481ZM79.792 231.406C76.947 231.406 74.5085 230.661 72.4763 229.171C70.4442 227.681 69.0556 225.649 68.3105 223.075C67.8363 221.483 67.5993 219.756 67.5993 217.893C67.5993 215.895 67.8363 214.1 68.3105 212.508C69.0895 210.001 70.495 208.037 72.5272 206.615C74.5593 205.192 76.9978 204.481 79.8428 204.481C82.62 204.481 84.9908 205.192 86.9552 206.615C88.9196 208.003 90.3082 209.951 91.121 212.457C91.6629 214.15 91.9339 215.928 91.9339 217.791C91.9339 219.62 91.6968 221.331 91.2226 222.922C90.4775 225.564 89.0889 227.647 87.0568 229.171C85.0585 230.661 82.6369 231.406 79.792 231.406ZM79.792 225.259C80.9096 225.259 81.858 224.921 82.6369 224.243C83.4159 223.566 83.9747 222.634 84.3134 221.449C84.5844 220.365 84.7199 219.18 84.7199 217.893C84.7199 216.47 84.5844 215.268 84.3134 214.286C83.9409 213.134 83.3651 212.237 82.5861 211.593C81.8072 210.95 80.8588 210.628 79.7412 210.628C78.5896 210.628 77.6244 210.95 76.8454 211.593C76.1003 212.237 75.5584 213.134 75.2197 214.286C74.9488 215.099 74.8133 216.301 74.8133 217.893C74.8133 219.417 74.9318 220.602 75.1689 221.449C75.5076 222.634 76.0664 223.566 76.8454 224.243C77.6582 224.921 78.6404 225.259 79.792 225.259ZM100.587 231C100.214 231 99.977 230.831 99.8754 230.492L92.5598 205.548L92.509 205.345C92.509 205.006 92.6952 204.836 93.0678 204.836H99.215C99.5875 204.836 99.8246 205.006 99.9262 205.345L103.584 220.687C103.618 220.789 103.669 220.839 103.736 220.839C103.804 220.839 103.855 220.789 103.889 220.687L107.699 205.345C107.801 205.006 108.038 204.836 108.41 204.836H113.745C114.117 204.836 114.354 205.006 114.456 205.345L118.469 220.738C118.503 220.839 118.554 220.89 118.622 220.89C118.689 220.89 118.74 220.839 118.774 220.738L122.737 205.345C122.838 205.006 123.075 204.836 123.448 204.836L129.544 204.938C129.748 204.938 129.883 205.006 129.951 205.141C130.052 205.243 130.086 205.395 130.052 205.599L122.635 230.492C122.533 230.831 122.313 231 121.975 231H115.828C115.455 231 115.218 230.831 115.116 230.492L111.204 216.877C111.171 216.775 111.12 216.724 111.052 216.724C110.984 216.724 110.933 216.775 110.9 216.877L107.445 230.492C107.343 230.831 107.106 231 106.734 231H100.587ZM152.426 204.481C154.627 204.481 156.592 204.87 158.319 205.649C160.046 206.394 161.384 207.427 162.332 208.748C163.315 210.069 163.806 211.542 163.806 213.168V230.39C163.806 230.56 163.738 230.712 163.603 230.848C163.501 230.949 163.365 231 163.196 231H157.252C157.083 231 156.93 230.949 156.795 230.848C156.693 230.712 156.643 230.56 156.643 230.39V228.714C156.643 228.612 156.609 228.545 156.541 228.511C156.473 228.477 156.405 228.511 156.338 228.612C154.915 230.475 152.629 231.406 149.479 231.406C146.838 231.406 144.704 230.763 143.078 229.476C141.452 228.189 140.64 226.292 140.64 223.786C140.64 221.178 141.554 219.163 143.383 217.74C145.212 216.284 147.82 215.556 151.207 215.556H156.388C156.558 215.556 156.643 215.471 156.643 215.302V214.184C156.643 213.067 156.304 212.203 155.626 211.593C154.949 210.95 153.933 210.628 152.578 210.628C151.528 210.628 150.648 210.814 149.937 211.187C149.259 211.559 148.819 212.084 148.616 212.762C148.514 213.134 148.294 213.304 147.955 213.27L141.808 212.457C141.402 212.389 141.215 212.237 141.249 212C141.385 210.577 141.944 209.29 142.926 208.139C143.942 206.987 145.263 206.09 146.888 205.446C148.548 204.803 150.394 204.481 152.426 204.481ZM151.41 226.072C152.866 226.072 154.102 225.683 155.118 224.904C156.134 224.125 156.643 223.126 156.643 221.906V220.077C156.643 219.908 156.558 219.823 156.388 219.823H152.731C151.207 219.823 150.004 220.111 149.124 220.687C148.277 221.263 147.854 222.076 147.854 223.126C147.854 224.04 148.175 224.768 148.819 225.31C149.462 225.818 150.326 226.072 151.41 226.072ZM174.406 231C174.067 231 173.847 230.831 173.745 230.492L165.617 205.548C165.583 205.48 165.566 205.395 165.566 205.294C165.566 204.989 165.752 204.836 166.125 204.836H172.678C173.051 204.836 173.288 205.006 173.39 205.345L177.555 220.738C177.589 220.839 177.64 220.89 177.708 220.89C177.776 220.89 177.826 220.839 177.86 220.738L182.026 205.345C182.128 205.006 182.365 204.836 182.737 204.836L189.291 204.938C189.494 204.938 189.647 205.006 189.748 205.141C189.85 205.243 189.867 205.412 189.799 205.649L181.721 230.492C181.62 230.831 181.4 231 181.061 231H174.406ZM201.544 204.481C203.745 204.481 205.71 204.87 207.437 205.649C209.164 206.394 210.502 207.427 211.451 208.748C212.433 210.069 212.924 211.542 212.924 213.168V230.39C212.924 230.56 212.856 230.712 212.721 230.848C212.619 230.949 212.484 231 212.314 231H206.37C206.201 231 206.048 230.949 205.913 230.848C205.811 230.712 205.761 230.56 205.761 230.39V228.714C205.761 228.612 205.727 228.545 205.659 228.511C205.591 228.477 205.524 228.511 205.456 228.612C204.033 230.475 201.747 231.406 198.597 231.406C195.956 231.406 193.822 230.763 192.196 229.476C190.571 228.189 189.758 226.292 189.758 223.786C189.758 221.178 190.672 219.163 192.501 217.74C194.33 216.284 196.938 215.556 200.325 215.556H205.507C205.676 215.556 205.761 215.471 205.761 215.302V214.184C205.761 213.067 205.422 212.203 204.745 211.593C204.067 210.95 203.051 210.628 201.696 210.628C200.646 210.628 199.766 210.814 199.055 211.187C198.377 211.559 197.937 212.084 197.734 212.762C197.632 213.134 197.412 213.304 197.073 213.27L190.926 212.457C190.52 212.389 190.333 212.237 190.367 212C190.503 210.577 191.062 209.29 192.044 208.139C193.06 206.987 194.381 206.09 196.006 205.446C197.666 204.803 199.512 204.481 201.544 204.481ZM200.528 226.072C201.984 226.072 203.22 225.683 204.237 224.904C205.253 224.125 205.761 223.126 205.761 221.906V220.077C205.761 219.908 205.676 219.823 205.507 219.823H201.849C200.325 219.823 199.122 220.111 198.242 220.687C197.395 221.263 196.972 222.076 196.972 223.126C196.972 224.04 197.293 224.768 197.937 225.31C198.58 225.818 199.444 226.072 200.528 226.072ZM220.815 201.941C219.663 201.941 218.698 201.568 217.919 200.823C217.174 200.044 216.801 199.079 216.801 197.927C216.801 196.742 217.174 195.777 217.919 195.032C218.664 194.286 219.629 193.914 220.815 193.914C222 193.914 222.965 194.286 223.71 195.032C224.455 195.777 224.828 196.742 224.828 197.927C224.828 199.079 224.438 200.044 223.659 200.823C222.914 201.568 221.966 201.941 220.815 201.941ZM217.766 231C217.597 231 217.445 230.949 217.309 230.848C217.208 230.712 217.157 230.56 217.157 230.39V205.446C217.157 205.277 217.208 205.141 217.309 205.04C217.445 204.904 217.597 204.836 217.766 204.836H223.71C223.88 204.836 224.015 204.904 224.117 205.04C224.252 205.141 224.32 205.277 224.32 205.446V230.39C224.32 230.56 224.252 230.712 224.117 230.848C224.015 230.949 223.88 231 223.71 231H217.766ZM229.496 231C229.327 231 229.174 230.949 229.039 230.848C228.937 230.712 228.886 230.56 228.886 230.39V196.048C228.886 195.878 228.937 195.743 229.039 195.641C229.174 195.506 229.327 195.438 229.496 195.438H235.44C235.609 195.438 235.745 195.506 235.846 195.641C235.982 195.743 236.049 195.878 236.049 196.048V230.39C236.049 230.56 235.982 230.712 235.846 230.848C235.745 230.949 235.609 231 235.44 231H229.496ZM250.688 204.481C252.889 204.481 254.854 204.87 256.581 205.649C258.308 206.394 259.646 207.427 260.594 208.748C261.577 210.069 262.068 211.542 262.068 213.168V230.39C262.068 230.56 262 230.712 261.864 230.848C261.763 230.949 261.627 231 261.458 231H255.514C255.345 231 255.192 230.949 255.057 230.848C254.955 230.712 254.904 230.56 254.904 230.39V228.714C254.904 228.612 254.871 228.545 254.803 228.511C254.735 228.477 254.667 228.511 254.6 228.612C253.177 230.475 250.891 231.406 247.741 231.406C245.1 231.406 242.966 230.763 241.34 229.476C239.714 228.189 238.902 226.292 238.902 223.786C238.902 221.178 239.816 219.163 241.645 217.74C243.474 216.284 246.082 215.556 249.469 215.556H254.65C254.82 215.556 254.904 215.471 254.904 215.302V214.184C254.904 213.067 254.566 212.203 253.888 211.593C253.211 210.95 252.195 210.628 250.84 210.628C249.79 210.628 248.91 210.814 248.198 211.187C247.521 211.559 247.081 212.084 246.878 212.762C246.776 213.134 246.556 213.304 246.217 213.27L240.07 212.457C239.664 212.389 239.477 212.237 239.511 212C239.647 210.577 240.205 209.29 241.188 208.139C242.204 206.987 243.525 206.09 245.15 205.446C246.81 204.803 248.656 204.481 250.688 204.481ZM249.672 226.072C251.128 226.072 252.364 225.683 253.38 224.904C254.396 224.125 254.904 223.126 254.904 221.906V220.077C254.904 219.908 254.82 219.823 254.65 219.823H250.993C249.469 219.823 248.266 220.111 247.386 220.687C246.539 221.263 246.116 222.076 246.116 223.126C246.116 224.04 246.437 224.768 247.081 225.31C247.724 225.818 248.588 226.072 249.672 226.072ZM289.213 211.542C289.856 213.304 290.178 215.404 290.178 217.842C290.178 220.179 289.89 222.228 289.314 223.989C288.535 226.292 287.282 228.104 285.555 229.425C283.861 230.746 281.846 231.406 279.509 231.406C277.037 231.406 275.09 230.475 273.667 228.612C273.599 228.545 273.532 228.528 273.464 228.561C273.396 228.561 273.362 228.612 273.362 228.714V230.39C273.362 230.56 273.294 230.712 273.159 230.848C273.057 230.949 272.922 231 272.753 231H266.809C266.639 231 266.487 230.949 266.351 230.848C266.25 230.712 266.199 230.56 266.199 230.39V196.048C266.199 195.878 266.25 195.743 266.351 195.641C266.487 195.506 266.639 195.438 266.809 195.438H272.753C272.922 195.438 273.057 195.506 273.159 195.641C273.294 195.743 273.362 195.878 273.362 196.048V206.919C273.362 207.021 273.396 207.089 273.464 207.123C273.532 207.156 273.599 207.123 273.667 207.021C274.988 205.328 276.868 204.481 279.306 204.481C281.779 204.481 283.845 205.124 285.504 206.411C287.198 207.665 288.434 209.375 289.213 211.542ZM281.694 223.075C282.405 221.788 282.761 220.094 282.761 217.994C282.761 215.658 282.354 213.862 281.541 212.609C280.729 211.288 279.526 210.628 277.934 210.628C276.444 210.628 275.31 211.288 274.531 212.609C273.786 213.896 273.413 215.674 273.413 217.944C273.413 220.213 273.752 221.923 274.429 223.075C275.242 224.531 276.427 225.259 277.985 225.259C279.645 225.259 280.881 224.531 281.694 223.075ZM294.466 231C294.297 231 294.144 230.949 294.009 230.848C293.907 230.712 293.856 230.56 293.856 230.39V196.048C293.856 195.878 293.907 195.743 294.009 195.641C294.144 195.506 294.297 195.438 294.466 195.438H300.41C300.579 195.438 300.715 195.506 300.816 195.641C300.952 195.743 301.02 195.878 301.02 196.048V230.39C301.02 230.56 300.952 230.712 300.816 230.848C300.715 230.949 300.579 231 300.41 231H294.466ZM328.359 215.251C328.562 216.538 328.63 217.978 328.562 219.569C328.528 219.976 328.308 220.179 327.902 220.179H312.203C312 220.179 311.932 220.264 312 220.433C312.102 221.11 312.288 221.788 312.559 222.465C313.44 224.362 315.235 225.31 317.944 225.31C320.112 225.276 321.822 224.396 323.075 222.668C323.211 222.465 323.363 222.364 323.532 222.364C323.634 222.364 323.753 222.431 323.888 222.567L327.546 226.174C327.715 226.343 327.8 226.495 327.8 226.631C327.8 226.699 327.732 226.834 327.597 227.037C326.479 228.426 325.04 229.51 323.278 230.289C321.517 231.034 319.587 231.406 317.487 231.406C314.574 231.406 312.102 230.746 310.07 229.425C308.071 228.104 306.632 226.258 305.751 223.888C305.04 222.194 304.685 219.976 304.685 217.232C304.685 215.37 304.939 213.727 305.447 212.305C306.226 209.9 307.58 207.986 309.511 206.564C311.475 205.141 313.795 204.43 316.471 204.43C319.858 204.43 322.567 205.412 324.599 207.377C326.665 209.341 327.918 211.966 328.359 215.251ZM316.522 210.628C314.388 210.628 312.982 211.627 312.305 213.625C312.17 214.066 312.051 214.608 311.949 215.251C311.949 215.42 312.034 215.505 312.203 215.505H320.992C321.196 215.505 321.263 215.42 321.196 215.251C321.026 214.269 320.942 213.795 320.942 213.829C320.637 212.813 320.095 212.034 319.316 211.492C318.571 210.916 317.639 210.628 316.522 210.628Z"></path>
</g>
<g filter="url(#filter2_ddd_10536_188398)">
<path fill="white" d="M642.728 183.447C634.899 183.447 629.255 188.575 629.255 196.359C629.255 204.142 635.627 209.27 643.456 209.27C648.189 209.27 652.377 207.347 654.926 204.234L649.464 201.029C648.007 202.585 645.823 203.501 643.365 203.501C639.997 203.501 637.084 201.67 635.991 198.831H655.927C656.109 198.007 656.2 197.183 656.2 196.359C656.2 188.575 650.556 183.447 642.728 183.447ZM635.991 193.794C636.902 190.956 639.268 189.124 642.728 189.124C646.096 189.124 648.554 190.956 649.464 193.794H635.991ZM634.353 175.571L614.69 209.911L594.936 175.571H602.309L614.599 197L626.979 175.571H634.353ZM567.808 172L594.116 217.787H541.5L567.808 172ZM684.784 196.359C684.784 200.662 687.606 203.501 691.885 203.501C694.798 203.501 696.983 202.128 698.166 200.021L703.628 203.227C701.352 206.981 697.165 209.27 691.885 209.27C684.056 209.27 678.412 204.142 678.412 196.359C678.412 188.575 684.056 183.447 691.885 183.447C697.074 183.447 701.352 185.736 703.628 189.491L698.166 192.696C697.074 190.498 694.798 189.216 691.885 189.216C687.606 189.216 684.784 192.055 684.784 196.359ZM743.5 175.571V208.446H737.128V175.571H743.5ZM719.285 183.447C711.457 183.447 705.813 188.575 705.813 196.359C705.813 204.142 712.185 209.27 720.014 209.27C724.747 209.27 728.935 207.347 731.484 204.234L726.022 201.029C724.565 202.585 722.381 203.501 719.923 203.501C716.555 203.501 713.642 201.67 712.549 198.831H732.485C732.667 198.007 732.758 197.183 732.758 196.359C732.849 188.575 727.114 183.447 719.285 183.447ZM712.549 193.794C713.459 190.956 715.826 189.124 719.285 189.124C722.745 189.124 725.112 190.956 726.022 193.794H712.549ZM676.318 184.179V191.139C675.59 190.956 674.862 190.773 674.043 190.773C669.946 190.773 666.942 193.611 666.942 197.915V208.538H660.57V184.179H666.942V190.773C666.942 187.11 671.13 184.179 676.318 184.179Z"></path>
</g>
<g filter="url(#filter3_d_10536_188398)">
<line stroke="#92EFE6" y2="246.289" x2="531" y1="246.289" x1="754"></line>
</g>
<g filter="url(#filter4_ddd_10536_188398)">
<path fill="white" d="M541.965 313.916C541.336 314.942 541.346 316.236 541.99 317.252L553.65 335.645C554.406 336.839 555.865 337.383 557.219 336.977L590.866 326.883C592.702 326.332 593.626 324.284 592.823 322.543L571.193 275.622C570.139 273.334 566.959 273.146 565.642 275.294L541.965 313.916ZM570.619 286.349C570.159 285.285 568.602 285.449 568.374 286.585L560.047 328.049C559.871 328.923 560.69 329.67 561.544 329.415L584.792 322.475C585.47 322.272 585.82 321.523 585.539 320.873L570.619 286.349Z" clip-rule="evenodd" fill-rule="evenodd"></path>
</g>
<g filter="url(#filter5_ddd_10536_188398)">
<path fill="white" d="M629.626 300.575C629.626 303.797 628.62 306.26 626.605 307.967C624.592 309.674 621.729 310.526 618.016 310.526H615.292V321.175H608.945V291.237H618.507C622.139 291.237 624.899 292.019 626.79 293.582C628.681 295.145 629.626 297.476 629.626 300.575ZM615.293 305.326H617.382C619.334 305.326 620.794 304.941 621.764 304.169C622.733 303.398 623.218 302.275 623.218 300.8C623.218 299.313 622.812 298.214 622 297.504C621.187 296.794 619.914 296.439 618.18 296.439H615.293V305.326Z" clip-rule="evenodd" fill-rule="evenodd"></path>
<path fill="white" d="M648.561 298.035C648.001 297.912 647.298 297.851 646.452 297.851C645.032 297.851 643.718 298.243 642.51 299.028C641.302 299.813 640.343 300.848 639.633 302.131H639.326L638.404 298.281H633.674V321.174H639.92V309.523C639.92 307.68 640.476 306.246 641.588 305.222C642.701 304.198 644.254 303.687 646.247 303.687C646.971 303.687 647.585 303.755 648.09 303.891L648.561 298.035Z"></path>
<path fill="white" d="M651.878 321.174H658.124V298.281H651.878V321.174Z"></path>
<path fill="white" d="M651.611 292.363C651.611 290.329 652.744 289.312 655.01 289.312C657.275 289.312 658.409 290.329 658.409 292.363C658.409 293.333 658.126 294.087 657.56 294.626C656.993 295.166 656.143 295.435 655.01 295.435C652.744 295.435 651.611 294.411 651.611 292.363Z"></path>
<path fill="white" d="M677.663 319.74C679.295 318.512 680.11 316.724 680.11 314.375C680.11 313.242 679.913 312.266 679.517 311.447C679.121 310.628 678.506 309.905 677.674 309.276C676.842 308.649 675.531 307.973 673.742 307.25C671.735 306.444 670.435 305.836 669.841 305.427C669.248 305.018 668.95 304.533 668.95 303.973C668.95 302.976 669.872 302.478 671.715 302.478C672.752 302.478 673.769 302.635 674.766 302.949C675.762 303.264 676.834 303.666 677.981 304.157L679.865 299.653C677.257 298.452 674.575 297.851 671.817 297.851C668.923 297.851 666.688 298.407 665.112 299.52C663.534 300.632 662.746 302.205 662.746 304.239C662.746 305.427 662.934 306.427 663.31 307.239C663.684 308.052 664.285 308.772 665.112 309.399C665.937 310.028 667.231 310.71 668.991 311.447C670.22 311.966 671.203 312.419 671.94 312.808C672.677 313.198 673.196 313.546 673.497 313.853C673.797 314.161 673.947 314.56 673.947 315.051C673.947 316.362 672.813 317.017 670.547 317.017C669.442 317.017 668.162 316.832 666.709 316.464C665.254 316.095 663.947 315.639 662.787 315.092V320.252C663.811 320.689 664.91 321.02 666.084 321.245C667.258 321.471 668.677 321.583 670.343 321.583C673.591 321.583 676.032 320.969 677.663 319.74Z"></path>
<path fill="white" d="M704.85 321.174H698.605V307.803C698.605 306.151 698.328 304.912 697.776 304.086C697.222 303.261 696.353 302.847 695.165 302.847C693.568 302.847 692.408 303.434 691.684 304.608C690.96 305.783 690.598 307.714 690.598 310.404V321.174H684.353V298.281H689.124L689.964 301.209H690.312C690.926 300.158 691.814 299.335 692.974 298.742C694.134 298.148 695.465 297.851 696.967 297.851C700.394 297.851 702.714 298.971 703.929 301.209H704.482C705.096 300.144 706.001 299.319 707.195 298.731C708.39 298.144 709.738 297.851 711.239 297.851C713.833 297.851 715.796 298.517 717.126 299.847C718.458 301.178 719.123 303.311 719.123 306.246V321.174H712.857V307.803C712.857 306.151 712.58 304.912 712.028 304.086C711.474 303.261 710.605 302.847 709.417 302.847C707.888 302.847 706.745 303.394 705.986 304.485C705.229 305.578 704.85 307.311 704.85 309.686V321.174Z"></path>
<path fill="white" d="M737.93 318.062L739.139 321.175H743.5V305.919C743.5 303.189 742.681 301.155 741.043 299.817C739.405 298.479 737.05 297.81 733.978 297.81C730.771 297.81 727.849 298.5 725.214 299.879L727.282 304.097C729.753 302.991 731.903 302.438 733.732 302.438C736.108 302.438 737.296 303.599 737.296 305.919V306.923L733.323 307.045C729.897 307.168 727.334 307.807 725.634 308.96C723.934 310.114 723.085 311.906 723.085 314.335C723.085 316.656 723.716 318.444 724.978 319.7C726.242 320.956 727.971 321.584 730.17 321.584C731.958 321.584 733.408 321.328 734.521 320.816C735.633 320.304 736.715 319.386 737.766 318.062H737.93ZM734.879 310.65L737.296 310.568V312.451C737.296 313.831 736.862 314.937 735.995 315.769C735.129 316.602 733.971 317.018 732.524 317.018C730.504 317.018 729.494 316.137 729.494 314.377C729.494 313.148 729.937 312.234 730.825 311.633C731.712 311.032 733.064 310.705 734.879 310.65Z" clip-rule="evenodd" fill-rule="evenodd"></path>
</g>
<path fill="#71E8DF" d="M45.9067 334.14C44.3273 333.64 42.641 334.514 42.1403 336.093C41.6396 337.673 42.514 339.359 44.0933 339.86L45.9067 334.14ZM470.645 338.416C471.427 336.955 470.877 335.137 469.416 334.355L445.613 321.611C444.152 320.829 442.334 321.379 441.552 322.84C440.77 324.301 441.32 326.119 442.781 326.901L463.939 338.229L452.611 359.387C451.829 360.848 452.379 362.666 453.84 363.448C455.301 364.23 457.119 363.68 457.901 362.219L470.645 338.416ZM44.0933 339.86C167.013 378.831 332.156 381.241 468.869 339.871L467.131 334.129C331.558 375.153 167.653 372.739 45.9067 334.14L44.0933 339.86Z"></path>
</g>
<defs>
<filter color-interpolation-filters="sRGB" filterUnits="userSpaceOnUse" height="380" width="413" y="72" x="436" id="filter0_dddddd_10536_188398">
<feFlood result="BackgroundImageFix" flood-opacity="0"></feFlood>
<feColorMatrix result="hardAlpha" values="0 0 0 0 0 0 0 0 0 0 0 0 0 0 0 0 0 0 127 0" type="matrix" in="SourceAlpha"></feColorMatrix>
<feOffset dy="0.332071"></feOffset>
<feGaussianBlur stdDeviation="0.85785"></feGaussianBlur>
<feColorMatrix values="0 0 0 0 0.215686 0 0 0 0 1 0 0 0 0 0.772549 0 0 0 0.0759093 0" type="matrix"></feColorMatrix>
<feBlend result="effect1_dropShadow_10536_188398" in2="BackgroundImageFix" mode="normal"></feBlend>
<feColorMatrix result="hardAlpha" values="0 0 0 0 0 0 0 0 0 0 0 0 0 0 0 0 0 0 127 0" type="matrix" in="SourceAlpha"></feColorMatrix>
<feOffset dy="0.798012"></feOffset>
<feGaussianBlur stdDeviation="2.06153"></feGaussianBlur>
<feColorMatrix values="0 0 0 0 0.215686 0 0 0 0 1 0 0 0 0 0.772549 0 0 0 0.109051 0" type="matrix"></feColorMatrix>
<feBlend result="effect2_dropShadow_10536_188398" in2="effect1_dropShadow_10536_188398" mode="normal"></feBlend>
<feColorMatrix result="hardAlpha" values="0 0 0 0 0 0 0 0 0 0 0 0 0 0 0 0 0 0 127 0" type="matrix" in="SourceAlpha"></feColorMatrix>
<feOffset dy="1.50259"></feOffset>
<feGaussianBlur stdDeviation="3.88168"></feGaussianBlur>
<feColorMatrix values="0 0 0 0 0.215686 0 0 0 0 1 0 0 0 0 0.772549 0 0 0 0.135 0" type="matrix"></feColorMatrix>
<feBlend result="effect3_dropShadow_10536_188398" in2="effect2_dropShadow_10536_188398" mode="normal"></feBlend>
<feColorMatrix result="hardAlpha" values="0 0 0 0 0 0 0 0 0 0 0 0 0 0 0 0 0 0 127 0" type="matrix" in="SourceAlpha"></feColorMatrix>
<feOffset dy="2.68036"></feOffset>
<feGaussianBlur stdDeviation="6.92426"></feGaussianBlur>
<feColorMatrix values="0 0 0 0 0.215686 0 0 0 0 1 0 0 0 0 0.772549 0 0 0 0.160949 0" type="matrix"></feColorMatrix>
<feBlend result="effect4_dropShadow_10536_188398" in2="effect3_dropShadow_10536_188398" mode="normal"></feBlend>
<feColorMatrix result="hardAlpha" values="0 0 0 0 0 0 0 0 0 0 0 0 0 0 0 0 0 0 127 0" type="matrix" in="SourceAlpha"></feColorMatrix>
<feOffset dy="5.01331"></feOffset>
<feGaussianBlur stdDeviation="12.9511"></feGaussianBlur>
<feColorMatrix values="0 0 0 0 0.215686 0 0 0 0 1 0 0 0 0 0.772549 0 0 0 0.194091 0" type="matrix"></feColorMatrix>
<feBlend result="effect5_dropShadow_10536_188398" in2="effect4_dropShadow_10536_188398" mode="normal"></feBlend>
<feColorMatrix result="hardAlpha" values="0 0 0 0 0 0 0 0 0 0 0 0 0 0 0 0 0 0 127 0" type="matrix" in="SourceAlpha"></feColorMatrix>
<feOffset dy="12"></feOffset>
<feGaussianBlur stdDeviation="31"></feGaussianBlur>
<feColorMatrix values="0 0 0 0 0.215686 0 0 0 0 1 0 0 0 0 0.772549 0 0 0 0.27 0" type="matrix"></feColorMatrix>
<feBlend result="effect6_dropShadow_10536_188398" in2="effect5_dropShadow_10536_188398" mode="normal"></feBlend>
<feBlend result="shape" in2="effect6_dropShadow_10536_188398" in="SourceGraphic" mode="normal"></feBlend>
</filter>
<filter color-interpolation-filters="sRGB" filterUnits="userSpaceOnUse" height="205.805" width="445.312" y="134.914" x="22.0313" id="filter1_ddddd_10536_188398">
<feFlood result="BackgroundImageFix" flood-opacity="0"></feFlood>
<feColorMatrix result="hardAlpha" values="0 0 0 0 0 0 0 0 0 0 0 0 0 0 0 0 0 0 127 0" type="matrix" in="SourceAlpha"></feColorMatrix>
<feOffset dy="1.51853"></feOffset>
<feGaussianBlur stdDeviation="0.607413"></feGaussianBlur>
<feColorMatrix values="0 0 0 0 0 0 0 0 0 0 0 0 0 0 0 0 0 0 0.129327 0" type="matrix"></feColorMatrix>
<feBlend result="effect1_dropShadow_10536_188398" in2="BackgroundImageFix" mode="normal"></feBlend>
<feColorMatrix result="hardAlpha" values="0 0 0 0 0 0 0 0 0 0 0 0 0 0 0 0 0 0 127 0" type="matrix" in="SourceAlpha"></feColorMatrix>
<feOffset dy="3.64925"></feOffset>
<feGaussianBlur stdDeviation="1.4597"></feGaussianBlur>
<feColorMatrix values="0 0 0 0 0 0 0 0 0 0 0 0 0 0 0 0 0 0 0.185791 0" type="matrix"></feColorMatrix>
<feBlend result="effect2_dropShadow_10536_188398" in2="effect1_dropShadow_10536_188398" mode="normal"></feBlend>
<feColorMatrix result="hardAlpha" values="0 0 0 0 0 0 0 0 0 0 0 0 0 0 0 0 0 0 127 0" type="matrix" in="SourceAlpha"></feColorMatrix>
<feOffset dy="6.87121"></feOffset>
<feGaussianBlur stdDeviation="2.74848"></feGaussianBlur>
<feColorMatrix values="0 0 0 0 0 0 0 0 0 0 0 0 0 0 0 0 0 0 0.23 0" type="matrix"></feColorMatrix>
<feBlend result="effect3_dropShadow_10536_188398" in2="effect2_dropShadow_10536_188398" mode="normal"></feBlend>
<feColorMatrix result="hardAlpha" values="0 0 0 0 0 0 0 0 0 0 0 0 0 0 0 0 0 0 127 0" type="matrix" in="SourceAlpha"></feColorMatrix>
<feOffset dy="12.2571"></feOffset>
<feGaussianBlur stdDeviation="4.90282"></feGaussianBlur>
<feColorMatrix values="0 0 0 0 0 0 0 0 0 0 0 0 0 0 0 0 0 0 0.274209 0" type="matrix"></feColorMatrix>
<feBlend result="effect4_dropShadow_10536_188398" in2="effect3_dropShadow_10536_188398" mode="normal"></feBlend>
<feColorMatrix result="hardAlpha" values="0 0 0 0 0 0 0 0 0 0 0 0 0 0 0 0 0 0 127 0" type="matrix" in="SourceAlpha"></feColorMatrix>
<feOffset dy="22.9255"></feOffset>
<feGaussianBlur stdDeviation="9.17019"></feGaussianBlur>
<feColorMatrix values="0 0 0 0 0 0 0 0 0 0 0 0 0 0 0 0 0 0 0.330673 0" type="matrix"></feColorMatrix>
<feBlend result="effect5_dropShadow_10536_188398" in2="effect4_dropShadow_10536_188398" mode="normal"></feBlend>
<feBlend result="shape" in2="effect5_dropShadow_10536_188398" in="SourceGraphic" mode="normal"></feBlend>
</filter>
<filter color-interpolation-filters="sRGB" filterUnits="userSpaceOnUse" height="109.866" width="266.077" y="139.961" x="509.461" id="filter2_ddd_10536_188398">
<feFlood result="BackgroundImageFix" flood-opacity="0"></feFlood>
<feColorMatrix result="hardAlpha" values="0 0 0 0 0 0 0 0 0 0 0 0 0 0 0 0 0 0 127 0" type="matrix" in="SourceAlpha"></feColorMatrix>
<feOffset></feOffset>
<feGaussianBlur stdDeviation="11.4921"></feGaussianBlur>
<feColorMatrix values="0 0 0 0 0.0352941 0 0 0 0 0.0392157 0 0 0 0 0.0823529 0 0 0 1 0" type="matrix"></feColorMatrix>
<feBlend result="effect1_dropShadow_10536_188398" in2="BackgroundImageFix" mode="normal"></feBlend>
<feColorMatrix result="hardAlpha" values="0 0 0 0 0 0 0 0 0 0 0 0 0 0 0 0 0 0 127 0" type="matrix" in="SourceAlpha"></feColorMatrix>
<feOffset></feOffset>
<feGaussianBlur stdDeviation="9.05441"></feGaussianBlur>
<feColorMatrix values="0 0 0 0 0.0352941 0 0 0 0 0.0392157 0 0 0 0 0.0823529 0 0 0 0.05 0" type="matrix"></feColorMatrix>
<feBlend result="effect2_dropShadow_10536_188398" in2="effect1_dropShadow_10536_188398" mode="normal"></feBlend>
<feColorMatrix result="hardAlpha" values="0 0 0 0 0 0 0 0 0 0 0 0 0 0 0 0 0 0 127 0" type="matrix" in="SourceAlpha"></feColorMatrix>
<feOffset></feOffset>
<feGaussianBlur stdDeviation="16.0193"></feGaussianBlur>
<feComposite operator="out" in2="hardAlpha"></feComposite>
<feColorMatrix values="0 0 0 0 0.0352941 0 0 0 0 0.0392157 0 0 0 0 0.0823529 0 0 0 0.01 0" type="matrix"></feColorMatrix>
<feBlend result="effect3_dropShadow_10536_188398" in2="effect2_dropShadow_10536_188398" mode="normal"></feBlend>
<feBlend result="shape" in2="effect3_dropShadow_10536_188398" in="SourceGraphic" mode="normal"></feBlend>
</filter>
<filter color-interpolation-filters="sRGB" filterUnits="userSpaceOnUse" height="48" width="270" y="226.289" x="507.5" id="filter3_d_10536_188398">
<feFlood result="BackgroundImageFix" flood-opacity="0"></feFlood>
<feColorMatrix result="hardAlpha" values="0 0 0 0 0 0 0 0 0 0 0 0 0 0 0 0 0 0 127 0" type="matrix" in="SourceAlpha"></feColorMatrix>
<feOffset dy="4"></feOffset>
<feGaussianBlur stdDeviation="11.75"></feGaussianBlur>
<feComposite operator="out" in2="hardAlpha"></feComposite>
<feColorMatrix values="0 0 0 0 0.443137 0 0 0 0 0.909804 0 0 0 0 0.87451 0 0 0 1 0" type="matrix"></feColorMatrix>
<feBlend result="effect1_dropShadow_10536_188398" in2="BackgroundImageFix" mode="normal"></feBlend>
<feBlend result="shape" in2="effect1_dropShadow_10536_188398" in="SourceGraphic" mode="normal"></feBlend>
</filter>
<filter color-interpolation-filters="sRGB" filterUnits="userSpaceOnUse" height="131.805" width="120.099" y="239.547" x="507.258" id="filter4_ddd_10536_188398">
<feFlood result="BackgroundImageFix" flood-opacity="0"></feFlood>
<feColorMatrix result="hardAlpha" values="0 0 0 0 0 0 0 0 0 0 0 0 0 0 0 0 0 0 127 0" type="matrix" in="SourceAlpha"></feColorMatrix>
<feOffset></feOffset>
<feGaussianBlur stdDeviation="12.2826"></feGaussianBlur>
<feColorMatrix values="0 0 0 0 0.0352941 0 0 0 0 0.0392157 0 0 0 0 0.0823529 0 0 0 1 0" type="matrix"></feColorMatrix>
<feBlend result="effect1_dropShadow_10536_188398" in2="BackgroundImageFix" mode="normal"></feBlend>
<feColorMatrix result="hardAlpha" values="0 0 0 0 0 0 0 0 0 0 0 0 0 0 0 0 0 0 127 0" type="matrix" in="SourceAlpha"></feColorMatrix>
<feOffset></feOffset>
<feGaussianBlur stdDeviation="9.6772"></feGaussianBlur>
<feColorMatrix values="0 0 0 0 0.0352941 0 0 0 0 0.0392157 0 0 0 0 0.0823529 0 0 0 0.05 0" type="matrix"></feColorMatrix>
<feBlend result="effect2_dropShadow_10536_188398" in2="effect1_dropShadow_10536_188398" mode="normal"></feBlend>
<feColorMatrix result="hardAlpha" values="0 0 0 0 0 0 0 0 0 0 0 0 0 0 0 0 0 0 127 0" type="matrix" in="SourceAlpha"></feColorMatrix>
<feOffset></feOffset>
<feGaussianBlur stdDeviation="17.1212"></feGaussianBlur>
<feComposite operator="out" in2="hardAlpha"></feComposite>
<feColorMatrix values="0 0 0 0 0.0352941 0 0 0 0 0.0392157 0 0 0 0 0.0823529 0 0 0 0.01 0" type="matrix"></feColorMatrix>
<feBlend result="effect3_dropShadow_10536_188398" in2="effect2_dropShadow_10536_188398" mode="normal"></feBlend>
<feBlend result="shape" in2="effect3_dropShadow_10536_188398" in="SourceGraphic" mode="normal"></feBlend>
</filter>
<filter color-interpolation-filters="sRGB" filterUnits="userSpaceOnUse" height="100.758" width="203.04" y="255.07" x="574.702" id="filter5_ddd_10536_188398">
<feFlood result="BackgroundImageFix" flood-opacity="0"></feFlood>
<feColorMatrix result="hardAlpha" values="0 0 0 0 0 0 0 0 0 0 0 0 0 0 0 0 0 0 127 0" type="matrix" in="SourceAlpha"></feColorMatrix>
<feOffset></feOffset>
<feGaussianBlur stdDeviation="12.2826"></feGaussianBlur>
<feColorMatrix values="0 0 0 0 0.0352941 0 0 0 0 0.0392157 0 0 0 0 0.0823529 0 0 0 1 0" type="matrix"></feColorMatrix>
<feBlend result="effect1_dropShadow_10536_188398" in2="BackgroundImageFix" mode="normal"></feBlend>
<feColorMatrix result="hardAlpha" values="0 0 0 0 0 0 0 0 0 0 0 0 0 0 0 0 0 0 127 0" type="matrix" in="SourceAlpha"></feColorMatrix>
<feOffset></feOffset>
<feGaussianBlur stdDeviation="9.6772"></feGaussianBlur>
<feColorMatrix values="0 0 0 0 0.0352941 0 0 0 0 0.0392157 0 0 0 0 0.0823529 0 0 0 0.05 0" type="matrix"></feColorMatrix>
<feBlend result="effect2_dropShadow_10536_188398" in2="effect1_dropShadow_10536_188398" mode="normal"></feBlend>
<feColorMatrix result="hardAlpha" values="0 0 0 0 0 0 0 0 0 0 0 0 0 0 0 0 0 0 127 0" type="matrix" in="SourceAlpha"></feColorMatrix>
<feOffset></feOffset>
<feGaussianBlur stdDeviation="17.1212"></feGaussianBlur>
<feComposite operator="out" in2="hardAlpha"></feComposite>
<feColorMatrix values="0 0 0 0 0.0352941 0 0 0 0 0.0392157 0 0 0 0 0.0823529 0 0 0 0.01 0" type="matrix"></feColorMatrix>
<feBlend result="effect3_dropShadow_10536_188398" in2="effect2_dropShadow_10536_188398" mode="normal"></feBlend>
<feBlend result="shape" in2="effect3_dropShadow_10536_188398" in="SourceGraphic" mode="normal"></feBlend>
</filter>
<linearGradient gradientUnits="userSpaceOnUse" y2="474" x2="422" y1="0" x1="422" id="paint0_linear_10536_188398">
<stop stop-color="#090A15"></stop>
<stop stop-color="#0D3A38" offset="0.955752"></stop>
</linearGradient>
<radialGradient gradientTransform="translate(422 355.876) rotate(90) scale(529.676 495.147)" gradientUnits="userSpaceOnUse" r="1" cy="0" cx="0" id="paint1_radial_10536_188398">
<stop stop-opacity="0.11" stop-color="#71E8DF"></stop>
<stop stop-opacity="0" stop-color="#71E8DF" offset="1"></stop>
</radialGradient>
<radialGradient gradientTransform="translate(422 458.5) rotate(90) scale(300 534.177)" gradientUnits="userSpaceOnUse" r="1" cy="0" cx="0" id="paint2_radial_10536_188398">
<stop stop-color="#71E8DF"></stop>
<stop stop-opacity="0" stop-color="#71E8DF" offset="1"></stop>
</radialGradient>
<clipPath id="clip0_10536_188398">
<rect fill="white" height="474" width="844"></rect>
</clipPath>
</defs>
</svg>
