<svg xmlns="http://www.w3.org/2000/svg" fill="none" viewBox="0 0 844 474" height="474" width="844">
<g clip-path="url(#clip0_7080_4274)">
<rect fill="#EBF4FF" height="474" width="844"></rect>
<g filter="url(#filter0_f_7080_4274)">
<ellipse fill="#7F9CF5" transform="rotate(-100.709 476.67 535.066)" ry="242.439" rx="126.214" cy="535.066" cx="476.67"></ellipse>
</g>
<g filter="url(#filter1_f_7080_4274)">
<ellipse fill-opacity="0.5" fill="#68D391" ry="133.5" rx="69.5" cy="258.5" cx="-6.5"></ellipse>
</g>
<path stroke-width="1.64829" stroke="#4C51BF" d="M139.497 81.6303H383.444C389.133 81.6303 393.745 86.2426 393.745 91.9321V130.667C393.745 136.356 389.133 140.969 383.444 140.969H139.497V81.6303Z"></path>
<path fill="#4C4DBF" d="M169.318 121.459C168.07 121.459 166.961 121.217 165.99 120.731C165.037 120.229 164.292 119.527 163.755 118.626C163.235 117.707 162.975 116.659 162.975 115.48V108.747C162.975 107.568 163.235 106.537 163.755 105.653C164.292 104.752 165.037 104.059 165.99 103.573C166.961 103.071 168.07 102.82 169.318 102.82C170.566 102.82 171.666 103.062 172.62 103.547C173.573 104.015 174.309 104.683 174.829 105.549C175.367 106.416 175.635 107.421 175.635 108.565V108.591C175.635 108.678 175.609 108.747 175.557 108.799C175.505 108.851 175.445 108.877 175.375 108.877L173.399 108.981C173.226 108.981 173.139 108.903 173.139 108.747V108.669C173.139 107.56 172.793 106.667 172.1 105.991C171.406 105.315 170.479 104.977 169.318 104.977C168.157 104.977 167.221 105.315 166.51 105.991C165.817 106.667 165.47 107.56 165.47 108.669V115.584C165.47 116.693 165.817 117.586 166.51 118.262C167.221 118.938 168.157 119.276 169.318 119.276C170.479 119.276 171.406 118.938 172.1 118.262C172.793 117.586 173.139 116.693 173.139 115.584V115.532C173.139 115.376 173.226 115.298 173.399 115.298L175.375 115.402C175.549 115.402 175.635 115.489 175.635 115.662C175.635 116.806 175.367 117.82 174.829 118.704C174.309 119.57 173.573 120.246 172.62 120.731C171.666 121.217 170.566 121.459 169.318 121.459ZM185.187 121.459C183.922 121.459 182.804 121.199 181.833 120.679C180.863 120.159 180.109 119.432 179.572 118.496C179.034 117.542 178.766 116.451 178.766 115.22V109.033C178.766 107.802 179.034 106.719 179.572 105.783C180.109 104.847 180.863 104.119 181.833 103.599C182.804 103.08 183.922 102.82 185.187 102.82C186.47 102.82 187.596 103.08 188.567 103.599C189.537 104.119 190.291 104.847 190.828 105.783C191.366 106.719 191.634 107.802 191.634 109.033V115.22C191.634 116.451 191.366 117.542 190.828 118.496C190.291 119.432 189.537 120.159 188.567 120.679C187.596 121.199 186.47 121.459 185.187 121.459ZM185.187 119.302C186.366 119.302 187.319 118.938 188.047 118.21C188.775 117.482 189.139 116.52 189.139 115.324V109.007C189.139 107.794 188.775 106.823 188.047 106.095C187.319 105.35 186.366 104.977 185.187 104.977C184.008 104.977 183.055 105.35 182.327 106.095C181.617 106.823 181.261 107.794 181.261 109.007V115.324C181.261 116.52 181.617 117.482 182.327 118.21C183.055 118.938 184.008 119.302 185.187 119.302ZM201.645 121.433C200.38 121.433 199.262 121.191 198.291 120.705C197.338 120.203 196.593 119.501 196.056 118.6C195.518 117.681 195.25 116.633 195.25 115.454V103.288C195.25 103.114 195.336 103.028 195.51 103.028H197.485C197.659 103.028 197.745 103.114 197.745 103.288V115.506C197.745 116.633 198.101 117.542 198.811 118.236C199.539 118.929 200.484 119.276 201.645 119.276C202.806 119.276 203.742 118.929 204.453 118.236C205.163 117.542 205.518 116.633 205.518 115.506V103.288C205.518 103.114 205.605 103.028 205.778 103.028H207.754C207.927 103.028 208.014 103.114 208.014 103.288V115.454C208.014 116.633 207.745 117.681 207.208 118.6C206.688 119.501 205.943 120.203 204.972 120.705C204.019 121.191 202.91 121.433 201.645 121.433ZM222.459 121.225C222.32 121.225 222.225 121.165 222.173 121.043L218.533 113.27C218.516 113.218 218.481 113.192 218.429 113.192H214.686C214.616 113.192 214.582 113.227 214.582 113.296V120.965C214.582 121.139 214.495 121.225 214.322 121.225H212.346C212.172 121.225 212.086 121.139 212.086 120.965V103.288C212.086 103.114 212.172 103.028 212.346 103.028H219.339C220.379 103.028 221.289 103.244 222.069 103.677C222.866 104.111 223.481 104.717 223.914 105.497C224.348 106.277 224.564 107.178 224.564 108.201C224.564 109.414 224.244 110.445 223.602 111.295C222.979 112.126 222.103 112.69 220.977 112.984C220.907 113.019 220.89 113.062 220.925 113.114L224.694 120.913C224.712 120.948 224.72 120.991 224.72 121.043C224.72 121.165 224.651 121.225 224.512 121.225H222.459ZM214.686 105.185C214.616 105.185 214.582 105.22 214.582 105.289V111.113C214.582 111.182 214.616 111.217 214.686 111.217H219.027C219.946 111.217 220.682 110.948 221.237 110.411C221.791 109.856 222.069 109.128 222.069 108.227C222.069 107.308 221.791 106.572 221.237 106.017C220.682 105.463 219.946 105.185 219.027 105.185H214.686ZM233.645 121.433C232.31 121.433 231.149 121.225 230.161 120.809C229.19 120.393 228.437 119.804 227.899 119.042C227.379 118.279 227.119 117.386 227.119 116.364V115.61C227.119 115.437 227.206 115.35 227.379 115.35H229.277C229.45 115.35 229.537 115.437 229.537 115.61V116.234C229.537 117.118 229.918 117.846 230.681 118.418C231.443 118.99 232.492 119.276 233.827 119.276C235.022 119.276 235.924 119.024 236.53 118.522C237.137 118.019 237.44 117.36 237.44 116.546C237.44 116.009 237.284 115.549 236.972 115.168C236.66 114.787 236.201 114.44 235.594 114.128C235.005 113.799 234.138 113.409 232.995 112.958C231.729 112.473 230.724 112.031 229.979 111.632C229.251 111.234 228.644 110.714 228.159 110.073C227.674 109.414 227.431 108.591 227.431 107.603C227.431 106.112 227.96 104.943 229.017 104.093C230.092 103.244 231.539 102.82 233.359 102.82C234.641 102.82 235.768 103.036 236.738 103.469C237.709 103.903 238.454 104.509 238.974 105.289C239.511 106.069 239.78 106.97 239.78 107.993V108.513C239.78 108.686 239.693 108.773 239.52 108.773H237.57C237.397 108.773 237.31 108.686 237.31 108.513V108.123C237.31 107.222 236.946 106.476 236.218 105.887C235.508 105.281 234.52 104.977 233.255 104.977C232.18 104.977 231.348 105.203 230.759 105.653C230.17 106.087 229.875 106.719 229.875 107.551C229.875 108.123 230.022 108.591 230.317 108.955C230.612 109.319 231.045 109.648 231.617 109.943C232.206 110.22 233.099 110.584 234.294 111.035C235.525 111.52 236.522 111.97 237.284 112.386C238.047 112.785 238.679 113.322 239.182 113.998C239.684 114.657 239.936 115.48 239.936 116.468C239.936 117.993 239.373 119.206 238.246 120.107C237.137 120.991 235.603 121.433 233.645 121.433ZM255.401 104.925C255.401 105.099 255.314 105.185 255.141 105.185H245.912C245.843 105.185 245.808 105.22 245.808 105.289V110.879C245.808 110.948 245.843 110.983 245.912 110.983H252.255C252.429 110.983 252.515 111.069 252.515 111.243V112.88C252.515 113.054 252.429 113.14 252.255 113.14H245.912C245.843 113.14 245.808 113.175 245.808 113.244V118.964C245.808 119.033 245.843 119.068 245.912 119.068H255.141C255.314 119.068 255.401 119.154 255.401 119.328V120.965C255.401 121.139 255.314 121.225 255.141 121.225H243.572C243.399 121.225 243.313 121.139 243.313 120.965V103.288C243.313 103.114 243.399 103.028 243.572 103.028H255.141C255.314 103.028 255.401 103.114 255.401 103.288V104.925ZM276.382 103.002C277.439 103.002 278.366 103.227 279.163 103.677C279.978 104.111 280.602 104.726 281.035 105.523C281.486 106.32 281.711 107.239 281.711 108.279C281.711 109.319 281.486 110.229 281.035 111.009C280.585 111.788 279.943 112.395 279.111 112.828C278.297 113.262 277.352 113.478 276.278 113.478H271.702C271.633 113.478 271.598 113.513 271.598 113.582V120.965C271.598 121.139 271.512 121.225 271.338 121.225H269.363C269.189 121.225 269.103 121.139 269.103 120.965V103.262C269.103 103.088 269.189 103.002 269.363 103.002H276.382ZM276.044 111.451C276.997 111.451 277.76 111.165 278.332 110.593C278.921 110.021 279.215 109.267 279.215 108.331C279.215 107.378 278.921 106.615 278.332 106.043C277.76 105.454 276.997 105.159 276.044 105.159H271.702C271.633 105.159 271.598 105.194 271.598 105.263V111.347C271.598 111.416 271.633 111.451 271.702 111.451H276.044ZM294.804 121.225C294.648 121.225 294.544 121.156 294.492 121.017L293.556 117.976C293.538 117.924 293.504 117.898 293.452 117.898H286.147C286.095 117.898 286.06 117.924 286.043 117.976L285.107 121.017C285.055 121.156 284.951 121.225 284.795 121.225H282.689C282.498 121.225 282.429 121.13 282.481 120.939L288.174 103.236C288.226 103.097 288.33 103.028 288.486 103.028H291.086C291.242 103.028 291.346 103.097 291.398 103.236L297.143 120.939L297.169 121.043C297.169 121.165 297.091 121.225 296.935 121.225H294.804ZM286.693 115.792C286.675 115.827 286.675 115.861 286.693 115.896C286.727 115.913 286.762 115.922 286.797 115.922H292.776C292.81 115.922 292.836 115.913 292.854 115.896C292.888 115.861 292.897 115.827 292.88 115.792L289.864 106.147C289.847 106.112 289.821 106.095 289.786 106.095C289.752 106.095 289.726 106.112 289.708 106.147L286.693 115.792ZM310.503 121.225C310.364 121.225 310.269 121.165 310.217 121.043L306.577 113.27C306.56 113.218 306.525 113.192 306.473 113.192H302.73C302.66 113.192 302.626 113.227 302.626 113.296V120.965C302.626 121.139 302.539 121.225 302.366 121.225H300.39C300.217 121.225 300.13 121.139 300.13 120.965V103.288C300.13 103.114 300.217 103.028 300.39 103.028H307.383C308.423 103.028 309.333 103.244 310.113 103.677C310.91 104.111 311.525 104.717 311.958 105.497C312.392 106.277 312.608 107.178 312.608 108.201C312.608 109.414 312.288 110.445 311.646 111.295C311.023 112.126 310.147 112.69 309.021 112.984C308.951 113.019 308.934 113.062 308.969 113.114L312.738 120.913C312.756 120.948 312.764 120.991 312.764 121.043C312.764 121.165 312.695 121.225 312.556 121.225H310.503ZM302.73 105.185C302.66 105.185 302.626 105.22 302.626 105.289V111.113C302.626 111.182 302.66 111.217 302.73 111.217H307.071C307.99 111.217 308.726 110.948 309.281 110.411C309.835 109.856 310.113 109.128 310.113 108.227C310.113 107.308 309.835 106.572 309.281 106.017C308.726 105.463 307.99 105.185 307.071 105.185H302.73ZM327.616 103.028C327.79 103.028 327.876 103.114 327.876 103.288V104.951C327.876 105.125 327.79 105.211 327.616 105.211H322.625C322.556 105.211 322.521 105.246 322.521 105.315V120.965C322.521 121.139 322.434 121.225 322.261 121.225H320.285C320.112 121.225 320.025 121.139 320.025 120.965V105.315C320.025 105.246 319.991 105.211 319.921 105.211H315.164C314.991 105.211 314.904 105.125 314.904 104.951V103.288C314.904 103.114 314.991 103.028 315.164 103.028H327.616ZM346.215 113.166C346.406 113.929 346.501 114.717 346.501 115.532C346.501 116.347 346.397 117.101 346.189 117.794C345.86 118.903 345.227 119.787 344.291 120.445C343.373 121.087 342.272 121.407 340.99 121.407C339.724 121.407 338.641 121.095 337.74 120.471C336.839 119.848 336.206 118.998 335.842 117.924C335.669 117.438 335.574 117.014 335.556 116.65V116.598C335.556 116.459 335.634 116.39 335.79 116.39H337.844C338 116.39 338.087 116.468 338.104 116.624C338.121 116.745 338.165 116.927 338.234 117.17C338.425 117.811 338.754 118.322 339.222 118.704C339.707 119.068 340.288 119.25 340.964 119.25C341.674 119.25 342.272 119.059 342.757 118.678C343.26 118.279 343.598 117.733 343.771 117.04C343.893 116.676 343.953 116.173 343.953 115.532C343.953 114.96 343.901 114.431 343.797 113.946C343.676 113.288 343.364 112.785 342.861 112.438C342.376 112.074 341.77 111.892 341.042 111.892C340.366 111.892 339.759 112.048 339.222 112.36C338.685 112.655 338.338 113.054 338.182 113.556C338.13 113.712 338.035 113.79 337.896 113.79H335.816C335.643 113.79 335.556 113.704 335.556 113.53V103.288C335.556 103.114 335.643 103.028 335.816 103.028H345.539C345.712 103.028 345.799 103.114 345.799 103.288V104.925C345.799 105.099 345.712 105.185 345.539 105.185H338.156C338.087 105.185 338.052 105.22 338.052 105.289L338.026 110.723C338.026 110.827 338.069 110.853 338.156 110.801C338.572 110.437 339.049 110.168 339.586 109.995C340.14 109.804 340.721 109.709 341.328 109.709C342.541 109.709 343.581 110.012 344.447 110.619C345.331 111.225 345.92 112.074 346.215 113.166ZM348.618 121.225C348.427 121.225 348.358 121.13 348.41 120.939L354.519 103.236C354.571 103.097 354.675 103.028 354.831 103.028H356.781C356.972 103.028 357.041 103.123 356.989 103.314L350.88 121.017C350.828 121.156 350.724 121.225 350.568 121.225H348.618ZM370.892 113.166C371.082 113.929 371.178 114.717 371.178 115.532C371.178 116.347 371.074 117.101 370.866 117.794C370.536 118.903 369.904 119.787 368.968 120.445C368.049 121.087 366.949 121.407 365.666 121.407C364.401 121.407 363.318 121.095 362.417 120.471C361.516 119.848 360.883 118.998 360.519 117.924C360.346 117.438 360.25 117.014 360.233 116.65V116.598C360.233 116.459 360.311 116.39 360.467 116.39H362.521C362.677 116.39 362.763 116.468 362.781 116.624C362.798 116.745 362.841 116.927 362.911 117.17C363.101 117.811 363.431 118.322 363.899 118.704C364.384 119.068 364.964 119.25 365.64 119.25C366.351 119.25 366.949 119.059 367.434 118.678C367.937 118.279 368.275 117.733 368.448 117.04C368.569 116.676 368.63 116.173 368.63 115.532C368.63 114.96 368.578 114.431 368.474 113.946C368.353 113.288 368.041 112.785 367.538 112.438C367.053 112.074 366.446 111.892 365.718 111.892C365.042 111.892 364.436 112.048 363.899 112.36C363.361 112.655 363.015 113.054 362.859 113.556C362.807 113.712 362.711 113.79 362.573 113.79H360.493C360.32 113.79 360.233 113.704 360.233 113.53V103.288C360.233 103.114 360.32 103.028 360.493 103.028H370.216C370.389 103.028 370.476 103.114 370.476 103.288V104.925C370.476 105.099 370.389 105.185 370.216 105.185H362.833C362.763 105.185 362.729 105.22 362.729 105.289L362.703 110.723C362.703 110.827 362.746 110.853 362.833 110.801C363.249 110.437 363.725 110.168 364.263 109.995C364.817 109.804 365.398 109.709 366.004 109.709C367.217 109.709 368.257 110.012 369.124 110.619C370.008 111.225 370.597 112.074 370.892 113.166Z"></path>
<path fill="#4C51BF" d="M81.8073 91.9321C81.8073 85.7874 86.7885 80.8062 92.9332 80.8062H142.794V141.793H92.9332C86.7885 141.793 81.8073 136.811 81.8073 130.667V91.9321Z"></path>
<path fill="white" d="M97.3392 116.824C96.9521 117.454 96.9581 118.249 97.3546 118.874L104.531 130.174C104.997 130.907 105.895 131.242 106.728 130.992L127.439 124.791C128.569 124.452 129.138 123.194 128.644 122.124L115.33 93.2967C114.681 91.8909 112.723 91.7755 111.913 93.0952L97.3392 116.824ZM114.976 99.8869C114.693 99.2334 113.735 99.334 113.595 100.032L108.469 125.507C108.361 126.044 108.865 126.503 109.391 126.346L123.7 122.082C124.118 121.958 124.333 121.498 124.16 121.098L114.976 99.8869Z" clip-rule="evenodd" fill-rule="evenodd"></path>
<path fill="#4C51BF" d="M93.8358 258.873C93.0337 258.873 92.3013 258.678 91.6384 258.287C90.9755 257.889 90.4452 257.359 90.0475 256.696C89.6564 256.033 89.4608 255.3 89.4608 254.498C89.4608 253.689 89.6564 252.957 90.0475 252.301C90.4452 251.638 90.9755 251.111 91.6384 250.72C92.3013 250.322 93.0337 250.123 93.8358 250.123C94.6445 250.123 95.377 250.322 96.0333 250.72C96.6961 251.111 97.2231 251.638 97.6142 252.301C98.012 252.957 98.2108 253.689 98.2108 254.498C98.2108 255.3 98.012 256.033 97.6142 256.696C97.2231 257.359 96.6961 257.889 96.0333 258.287C95.377 258.678 94.6445 258.873 93.8358 258.873ZM123.658 262.612H117.066V242.248H123.867C125.862 242.248 127.576 242.656 129.007 243.471C130.439 244.28 131.536 245.443 132.299 246.961C133.067 248.473 133.452 250.286 133.452 252.4C133.452 254.521 133.064 256.344 132.289 257.869C131.52 259.394 130.406 260.567 128.948 261.389C127.489 262.204 125.726 262.612 123.658 262.612ZM120.138 259.927H123.489C125.04 259.927 126.329 259.635 127.357 259.052C128.384 258.462 129.153 257.61 129.664 256.497C130.174 255.376 130.429 254.011 130.429 252.4C130.429 250.803 130.174 249.447 129.664 248.333C129.16 247.22 128.407 246.375 127.406 245.798C126.406 245.221 125.163 244.933 123.678 244.933H120.138V259.927ZM143.616 262.92C142.112 262.92 140.816 262.599 139.729 261.956C138.648 261.306 137.813 260.394 137.223 259.221C136.64 258.041 136.348 256.659 136.348 255.075C136.348 253.51 136.64 252.132 137.223 250.939C137.813 249.745 138.635 248.814 139.689 248.144C140.749 247.475 141.989 247.14 143.408 247.14C144.269 247.14 145.105 247.283 145.913 247.568C146.722 247.853 147.448 248.3 148.091 248.91C148.734 249.52 149.241 250.312 149.612 251.287C149.983 252.254 150.169 253.431 150.169 254.816V255.87H138.028V253.643H147.256C147.256 252.861 147.096 252.168 146.778 251.565C146.46 250.955 146.013 250.475 145.436 250.123C144.866 249.772 144.196 249.596 143.427 249.596C142.592 249.596 141.863 249.802 141.24 250.213C140.623 250.617 140.146 251.147 139.808 251.804C139.477 252.453 139.311 253.159 139.311 253.921V255.662C139.311 256.682 139.49 257.551 139.848 258.267C140.212 258.983 140.72 259.529 141.369 259.907C142.019 260.278 142.778 260.464 143.646 260.464C144.21 260.464 144.723 260.385 145.187 260.225C145.651 260.06 146.052 259.814 146.391 259.49C146.729 259.165 146.987 258.764 147.166 258.287L149.98 258.794C149.755 259.622 149.35 260.348 148.767 260.971C148.19 261.588 147.464 262.068 146.589 262.413C145.721 262.751 144.73 262.92 143.616 262.92ZM153.468 268.339V247.339H156.371V249.815H156.62C156.792 249.497 157.04 249.129 157.365 248.711C157.69 248.294 158.141 247.929 158.718 247.617C159.294 247.299 160.057 247.14 161.005 247.14C162.237 247.14 163.338 247.452 164.306 248.075C165.273 248.698 166.032 249.596 166.583 250.769C167.139 251.943 167.418 253.355 167.418 255.005C167.418 256.656 167.143 258.071 166.593 259.251C166.042 260.424 165.287 261.329 164.326 261.966C163.364 262.595 162.267 262.91 161.034 262.91C160.106 262.91 159.347 262.754 158.757 262.443C158.174 262.131 157.717 261.767 157.385 261.349C157.054 260.931 156.799 260.56 156.62 260.235H156.441V268.339H153.468ZM156.381 254.975C156.381 256.049 156.537 256.991 156.848 257.799C157.16 258.608 157.611 259.241 158.201 259.698C158.79 260.149 159.513 260.375 160.368 260.375C161.256 260.375 161.999 260.139 162.595 259.669C163.192 259.191 163.643 258.545 163.948 257.73C164.259 256.914 164.415 255.996 164.415 254.975C164.415 253.968 164.263 253.063 163.958 252.261C163.659 251.459 163.209 250.826 162.605 250.362C162.009 249.898 161.263 249.666 160.368 249.666C159.506 249.666 158.777 249.888 158.181 250.332C157.591 250.776 157.143 251.396 156.838 252.191C156.533 252.987 156.381 253.915 156.381 254.975ZM173.722 242.248V262.612H170.749V242.248H173.722ZM184.155 262.92C182.723 262.92 181.473 262.592 180.406 261.936C179.339 261.279 178.51 260.361 177.92 259.181C177.33 258.001 177.035 256.623 177.035 255.045C177.035 253.461 177.33 252.075 177.92 250.889C178.51 249.702 179.339 248.781 180.406 248.125C181.473 247.468 182.723 247.14 184.155 247.14C185.587 247.14 186.836 247.468 187.903 248.125C188.971 248.781 189.799 249.702 190.389 250.889C190.979 252.075 191.274 253.461 191.274 255.045C191.274 256.623 190.979 258.001 190.389 259.181C189.799 260.361 188.971 261.279 187.903 261.936C186.836 262.592 185.587 262.92 184.155 262.92ZM184.165 260.424C185.093 260.424 185.862 260.179 186.471 259.689C187.081 259.198 187.532 258.545 187.824 257.73C188.122 256.914 188.271 256.016 188.271 255.035C188.271 254.061 188.122 253.166 187.824 252.35C187.532 251.528 187.081 250.869 186.471 250.372C185.862 249.875 185.093 249.626 184.165 249.626C183.23 249.626 182.454 249.875 181.838 250.372C181.228 250.869 180.774 251.528 180.476 252.35C180.184 253.166 180.038 254.061 180.038 255.035C180.038 256.016 180.184 256.914 180.476 257.73C180.774 258.545 181.228 259.198 181.838 259.689C182.454 260.179 183.23 260.424 184.165 260.424ZM195.952 268.339C195.508 268.339 195.104 268.303 194.739 268.23C194.375 268.163 194.103 268.091 193.924 268.011L194.64 265.575C195.183 265.721 195.667 265.784 196.092 265.764C196.516 265.744 196.89 265.585 197.215 265.287C197.547 264.988 197.838 264.501 198.09 263.825L198.458 262.811L192.87 247.339H196.052L199.92 259.191H200.079L203.947 247.339H207.138L200.844 264.65C200.553 265.446 200.181 266.118 199.731 266.669C199.28 267.225 198.743 267.643 198.12 267.921C197.497 268.2 196.774 268.339 195.952 268.339ZM209.932 262.612V247.339H212.786V249.825H212.975C213.293 248.983 213.814 248.327 214.536 247.856C215.259 247.379 216.124 247.14 217.131 247.14C218.152 247.14 219.007 247.379 219.697 247.856C220.393 248.333 220.906 248.99 221.238 249.825H221.397C221.761 249.01 222.342 248.36 223.137 247.876C223.932 247.385 224.88 247.14 225.981 247.14C227.366 247.14 228.496 247.574 229.371 248.443C230.253 249.311 230.694 250.62 230.694 252.37V262.612H227.721V252.649C227.721 251.615 227.439 250.866 226.876 250.402C226.312 249.938 225.639 249.706 224.857 249.706C223.889 249.706 223.137 250.004 222.6 250.6C222.063 251.19 221.795 251.949 221.795 252.877V262.612H218.832V252.46C218.832 251.631 218.573 250.965 218.056 250.461C217.539 249.957 216.866 249.706 216.038 249.706C215.474 249.706 214.954 249.855 214.476 250.153C214.006 250.445 213.625 250.852 213.333 251.376C213.048 251.9 212.905 252.506 212.905 253.196V262.612H209.932ZM241.261 262.92C239.756 262.92 238.46 262.599 237.373 261.956C236.293 261.306 235.457 260.394 234.867 259.221C234.284 258.041 233.992 256.659 233.992 255.075C233.992 253.51 234.284 252.132 234.867 250.939C235.457 249.745 236.279 248.814 237.333 248.144C238.394 247.475 239.634 247.14 241.052 247.14C241.914 247.14 242.749 247.283 243.558 247.568C244.366 247.853 245.092 248.3 245.735 248.91C246.378 249.52 246.885 250.312 247.257 251.287C247.628 252.254 247.813 253.431 247.813 254.816V255.87H235.673V253.643H244.9C244.9 252.861 244.741 252.168 244.423 251.565C244.105 250.955 243.657 250.475 243.081 250.123C242.51 249.772 241.841 249.596 241.072 249.596C240.237 249.596 239.508 249.802 238.884 250.213C238.268 250.617 237.791 251.147 237.453 251.804C237.121 252.453 236.956 253.159 236.956 253.921V255.662C236.956 256.682 237.134 257.551 237.492 258.267C237.857 258.983 238.364 259.529 239.014 259.907C239.663 260.278 240.422 260.464 241.291 260.464C241.854 260.464 242.368 260.385 242.832 260.225C243.296 260.06 243.697 259.814 244.035 259.49C244.373 259.165 244.632 258.764 244.811 258.287L247.625 258.794C247.399 259.622 246.995 260.348 246.411 260.971C245.835 261.588 245.109 262.068 244.234 262.413C243.366 262.751 242.375 262.92 241.261 262.92ZM254.085 253.544V262.612H251.112V247.339H253.966V249.825H254.155C254.506 249.016 255.056 248.367 255.805 247.876C256.561 247.385 257.512 247.14 258.659 247.14C259.7 247.14 260.611 247.359 261.393 247.796C262.176 248.227 262.782 248.87 263.213 249.725C263.644 250.581 263.859 251.638 263.859 252.897V262.612H260.886V253.255C260.886 252.148 260.598 251.283 260.021 250.66C259.444 250.03 258.652 249.716 257.645 249.716C256.955 249.716 256.342 249.865 255.805 250.163C255.275 250.461 254.854 250.899 254.543 251.475C254.238 252.046 254.085 252.735 254.085 253.544ZM274.976 247.339V249.725H266.633V247.339H274.976ZM268.871 243.68H271.844V258.127C271.844 258.704 271.93 259.138 272.102 259.43C272.275 259.715 272.497 259.911 272.768 260.017C273.047 260.116 273.348 260.166 273.673 260.166C273.912 260.166 274.121 260.149 274.3 260.116C274.479 260.083 274.618 260.056 274.717 260.037L275.254 262.492C275.082 262.559 274.837 262.625 274.518 262.691C274.2 262.764 273.802 262.804 273.325 262.811C272.543 262.824 271.814 262.685 271.138 262.393C270.462 262.101 269.915 261.651 269.497 261.041C269.079 260.431 268.871 259.665 268.871 258.744V243.68Z"></path>
<path fill="#4748A5" d="M228.864 394.513C228.533 395.053 228.538 395.733 228.877 396.267L235.016 405.933C235.415 406.56 236.183 406.846 236.896 406.633L254.611 401.328C255.578 401.039 256.065 399.962 255.642 399.047L244.253 374.388C243.698 373.186 242.024 373.087 241.33 374.216L228.864 394.513ZM243.951 380.026C243.709 379.467 242.889 379.553 242.769 380.15L238.384 401.941C238.292 402.4 238.723 402.793 239.173 402.659L251.413 399.012C251.77 398.905 251.954 398.511 251.807 398.17L243.951 380.026Z" clip-rule="evenodd" fill-rule="evenodd"></path>
<path fill="#4748A5" d="M266.409 390.009H267.488C268.496 390.009 269.25 389.81 269.751 389.412C270.252 389.014 270.502 388.436 270.502 387.676C270.502 386.909 270.292 386.342 269.873 385.976C269.453 385.61 268.796 385.427 267.9 385.427H266.409V390.009ZM273.813 387.565C273.813 389.226 273.293 390.496 272.252 391.376C271.213 392.256 269.734 392.696 267.816 392.696H266.409V398.186H263.13V382.751H268.069C269.945 382.751 271.371 383.154 272.348 383.959C273.325 384.765 273.813 385.967 273.813 387.565Z" clip-rule="evenodd" fill-rule="evenodd"></path>
<path fill="#4748A5" d="M282.508 386.149C282.945 386.149 283.309 386.18 283.598 386.244L283.354 389.263C283.093 389.193 282.776 389.158 282.402 389.158C281.373 389.158 280.571 389.422 279.996 389.949C279.421 390.477 279.134 391.217 279.134 392.167V398.174H275.908V386.371H278.351L278.827 388.355H278.986C279.353 387.694 279.848 387.161 280.472 386.756C281.096 386.351 281.775 386.149 282.508 386.149" clip-rule="evenodd" fill-rule="evenodd"></path>
<path fill="#4748A5" d="M285.296 398.198H288.522V386.394H285.296V398.198ZM285.16 383.338C285.16 382.289 285.746 381.765 286.916 381.765C288.086 381.765 288.672 382.289 288.672 383.338C288.672 383.838 288.526 384.227 288.233 384.505C287.94 384.783 287.501 384.922 286.916 384.922C285.746 384.922 285.16 384.394 285.16 383.338Z" clip-rule="evenodd" fill-rule="evenodd"></path>
<path fill="#4748A5" d="M299.895 394.669C299.895 395.88 299.474 396.801 298.631 397.435C297.788 398.068 296.528 398.385 294.85 398.385C293.989 398.385 293.256 398.327 292.65 398.211C292.043 398.095 291.476 397.924 290.947 397.699V395.038C291.546 395.32 292.221 395.556 292.973 395.746C293.723 395.935 294.384 396.031 294.955 396.031C296.126 396.031 296.712 395.693 296.712 395.017C296.712 394.764 296.634 394.558 296.479 394.4C296.323 394.241 296.056 394.062 295.675 393.861C295.294 393.66 294.786 393.427 294.152 393.159C293.242 392.779 292.574 392.427 292.147 392.103C291.721 391.78 291.41 391.408 291.217 390.989C291.023 390.571 290.925 390.055 290.925 389.442C290.925 388.394 291.333 387.583 292.147 387.009C292.962 386.435 294.116 386.149 295.611 386.149C297.036 386.149 298.421 386.459 299.768 387.078L298.795 389.4C298.203 389.147 297.649 388.94 297.134 388.777C296.62 388.616 296.094 388.535 295.559 388.535C294.607 388.535 294.13 388.792 294.13 389.305C294.13 389.594 294.284 389.844 294.59 390.055C294.897 390.266 295.569 390.579 296.605 390.995C297.529 391.368 298.207 391.716 298.636 392.04C299.066 392.364 299.384 392.737 299.588 393.159C299.793 393.581 299.895 394.085 299.895 394.669" clip-rule="evenodd" fill-rule="evenodd"></path>
<path fill="#4748A5" d="M312.67 398.174H309.444V391.28C309.444 390.429 309.301 389.79 309.016 389.364C308.73 388.938 308.28 388.725 307.667 388.725C306.842 388.725 306.243 389.028 305.869 389.633C305.495 390.238 305.308 391.234 305.308 392.621V398.174H302.082V386.371H304.547L304.98 387.88H305.16C305.477 387.338 305.936 386.914 306.535 386.608C307.135 386.302 307.822 386.149 308.598 386.149C310.368 386.149 311.566 386.726 312.194 387.88H312.48C312.797 387.331 313.264 386.906 313.881 386.603C314.498 386.3 315.194 386.149 315.97 386.149C317.31 386.149 318.324 386.492 319.011 387.178C319.699 387.864 320.042 388.964 320.042 390.477V398.174H316.806V391.28C316.806 390.429 316.663 389.79 316.378 389.364C316.092 388.938 315.642 388.725 315.029 388.725C314.239 388.725 313.649 389.007 313.257 389.57C312.866 390.133 312.67 391.026 312.67 392.251V398.174Z" clip-rule="evenodd" fill-rule="evenodd"></path>
<path fill="#4748A5" d="M329.431 392.709L328.183 392.751C327.246 392.779 326.548 392.948 326.089 393.258C325.631 393.568 325.402 394.039 325.402 394.672C325.402 395.58 325.924 396.034 326.967 396.034C327.714 396.034 328.312 395.819 328.76 395.39C329.207 394.961 329.431 394.391 329.431 393.68V392.709ZM330.383 398.181L329.759 396.577H329.674C329.131 397.26 328.572 397.733 327.998 397.997C327.423 398.26 326.674 398.392 325.75 398.392C324.614 398.392 323.721 398.069 323.069 397.421C322.417 396.774 322.09 395.852 322.09 394.655C322.09 393.403 322.529 392.479 323.407 391.884C324.285 391.289 325.609 390.96 327.379 390.897L329.431 390.833V390.316C329.431 389.12 328.817 388.521 327.59 388.521C326.646 388.521 325.535 388.806 324.259 389.376L323.19 387.201C324.551 386.491 326.061 386.135 327.717 386.135C329.304 386.135 330.52 386.48 331.367 387.17C332.213 387.859 332.636 388.908 332.636 390.316V398.181H330.383Z" clip-rule="evenodd" fill-rule="evenodd"></path>
<path fill="#4748A5" d="M132.897 384.68C132.333 384.68 131.818 384.755 131.353 384.905C130.902 385.042 130.506 385.275 130.166 385.601C129.84 385.914 129.576 386.322 129.375 386.823C129.187 387.324 129.08 387.923 129.055 388.618C129.015 389.746 129.015 390.874 129.055 392.002C129.08 392.703 129.187 393.302 129.375 393.796C129.576 394.297 129.84 394.711 130.166 395.037C130.505 395.351 130.9 395.583 131.353 395.734C131.818 395.872 132.333 395.941 132.897 395.941C133.451 395.941 133.965 395.866 134.441 395.716C134.916 395.553 135.324 395.316 135.665 395.005C136.018 394.679 136.295 394.265 136.496 393.763C136.697 393.262 136.798 392.673 136.798 391.997V391.038H133.516C133.24 391.038 133.102 390.897 133.102 390.616V390.352C133.102 390.071 133.24 389.93 133.516 389.93H137.545C137.827 389.93 137.968 390.071 137.968 390.352V392.006C137.968 392.759 137.856 393.449 137.63 394.075C137.404 394.689 137.072 395.223 136.632 395.675C136.205 396.125 135.671 396.476 135.029 396.727C134.394 396.965 133.679 397.084 132.882 397.084C132.066 397.084 131.35 396.965 130.735 396.727C130.12 396.477 129.599 396.132 129.172 395.693C128.758 395.255 128.438 394.735 128.212 394.133C127.999 393.519 127.879 392.842 127.855 392.102C127.829 391.539 127.817 390.944 127.817 390.316C127.817 389.683 127.829 389.088 127.855 388.53C127.88 387.791 128.006 387.121 128.231 386.518C128.457 385.904 128.777 385.378 129.191 384.939C129.618 384.501 130.139 384.162 130.754 383.924C131.37 383.673 132.079 383.548 132.882 383.548C133.749 383.548 134.49 383.68 135.105 383.943C135.72 384.206 136.222 384.523 136.612 384.893C137.001 385.257 137.29 385.639 137.479 386.04C137.667 386.441 137.767 386.773 137.78 387.037C137.793 387.149 137.761 387.243 137.685 387.318C137.61 387.382 137.509 387.413 137.384 387.413H136.969C136.856 387.413 136.774 387.389 136.724 387.34C136.674 387.276 136.624 387.176 136.574 387.039C136.473 386.757 136.332 386.476 136.151 386.194C135.974 385.913 135.737 385.662 135.438 385.443C135.137 385.218 134.779 385.036 134.364 384.897C133.95 384.759 133.46 384.69 132.895 384.69L132.897 384.68ZM141.788 388.419C142.239 387.554 143.093 387.121 144.349 387.121H145.047C145.323 387.121 145.462 387.259 145.462 387.535V387.799C145.462 388.075 145.323 388.213 145.047 388.213H144.237C143.483 388.213 142.886 388.432 142.448 388.87C142.009 389.308 141.789 389.904 141.789 390.656V396.482C141.789 396.608 141.745 396.708 141.657 396.783C141.581 396.859 141.481 396.896 141.355 396.896H141.054C140.778 396.896 140.639 396.758 140.639 396.482V387.553C140.639 387.428 140.677 387.327 140.753 387.252C140.828 387.164 140.929 387.12 141.054 387.12H141.355C141.481 387.12 141.581 387.164 141.657 387.252C141.745 387.327 141.789 387.428 141.789 387.553V388.418L141.788 388.419ZM153.42 396.902C153.144 396.902 153.006 396.764 153.006 396.488V395.604C152.893 395.78 152.742 395.956 152.554 396.132C152.378 396.308 152.158 396.465 151.895 396.602C151.632 396.74 151.314 396.852 150.943 396.94C150.579 397.039 150.152 397.089 149.664 397.089C149.213 397.089 148.779 397.02 148.363 396.883C147.961 396.733 147.604 396.532 147.29 396.281C146.989 396.03 146.744 395.736 146.556 395.397C146.38 395.06 146.292 394.69 146.292 394.289C146.292 393.863 146.38 393.481 146.556 393.142C146.744 392.804 147.002 392.51 147.328 392.258C147.654 391.995 148.044 391.782 148.495 391.62C148.961 391.444 149.469 391.319 150.021 391.244L152.997 390.83V390.173C152.997 389.496 152.79 388.969 152.375 388.594C151.973 388.218 151.327 388.03 150.436 388.03C149.733 388.03 149.187 388.168 148.797 388.444C148.42 388.707 148.183 388.995 148.084 389.309C148.035 389.459 147.972 389.566 147.896 389.629C147.832 389.678 147.744 389.703 147.631 389.703H147.367C147.254 389.703 147.154 389.665 147.066 389.59C146.99 389.502 146.953 389.402 146.953 389.289C146.953 389.113 147.015 388.894 147.141 388.632C147.266 388.368 147.467 388.112 147.744 387.861C148.026 387.611 148.39 387.398 148.836 387.222C149.275 387.035 149.809 386.941 150.439 386.941C151.179 386.941 151.788 387.041 152.266 387.241C152.756 387.442 153.139 387.705 153.416 388.031C153.692 388.344 153.88 388.695 153.98 389.083C154.093 389.472 154.15 389.854 154.15 390.231V396.49C154.15 396.766 154.012 396.904 153.735 396.904H153.415L153.42 396.902ZM149.861 395.999C150.287 395.999 150.689 395.93 151.066 395.792C151.455 395.642 151.794 395.423 152.083 395.135C152.365 394.853 152.591 394.49 152.76 394.044C152.924 393.606 153.006 393.092 153.006 392.503V391.865L150.577 392.202C148.493 392.484 147.451 393.148 147.451 394.195C147.451 394.508 147.52 394.778 147.658 395.004C147.808 395.229 147.996 395.417 148.223 395.567C148.448 395.717 148.705 395.83 148.995 395.905C149.277 395.968 149.566 396 149.862 396L149.861 395.999ZM161.446 397.089C160.655 397.089 160.009 396.949 159.507 396.667C159.005 396.386 158.597 396.035 158.282 395.615V400.069C158.282 400.345 158.144 400.483 157.868 400.483H157.547C157.271 400.483 157.133 400.345 157.133 400.069V387.535C157.133 387.259 157.271 387.121 157.547 387.121H157.868C158.144 387.121 158.282 387.259 158.282 387.535V388.418C158.596 387.993 159.004 387.642 159.507 387.366C160.009 387.085 160.655 386.944 161.446 386.944C162.174 386.944 162.79 387.075 163.291 387.339C163.806 387.589 164.221 387.928 164.535 388.354C164.849 388.768 165.074 389.244 165.212 389.783C165.362 390.309 165.45 390.848 165.476 391.4C165.489 391.588 165.495 391.795 165.495 392.021C165.495 392.246 165.489 392.453 165.476 392.641C165.451 393.195 165.363 393.74 165.212 394.278C165.074 394.804 164.848 395.28 164.535 395.707C164.221 396.12 163.807 396.459 163.291 396.722C162.79 396.973 162.174 397.098 161.446 397.098V397.089ZM158.282 391.337C158.27 391.525 158.263 391.769 158.263 392.069C158.263 392.37 158.27 392.614 158.282 392.802C158.295 393.178 158.358 393.56 158.471 393.949C158.596 394.325 158.784 394.663 159.035 394.965C159.286 395.265 159.603 395.516 159.987 395.716C160.363 395.904 160.815 395.998 161.343 395.998C161.897 395.998 162.355 395.904 162.717 395.716C163.094 395.528 163.395 395.278 163.621 394.965C163.86 394.639 164.029 394.269 164.129 393.856C164.242 393.431 164.311 392.992 164.336 392.54C164.349 392.188 164.349 391.838 164.336 391.488C164.311 391.037 164.242 390.605 164.129 390.189C164.029 389.776 163.86 389.412 163.621 389.099C163.396 388.773 163.094 388.516 162.717 388.329C162.353 388.128 161.895 388.028 161.343 388.028C160.803 388.028 160.344 388.128 159.968 388.329C159.591 388.529 159.274 388.792 159.016 389.118C158.778 389.431 158.596 389.782 158.469 390.17C158.357 390.559 158.294 390.947 158.281 391.336L158.282 391.337ZM169.209 388.419C169.547 387.981 169.956 387.624 170.434 387.348C170.909 387.072 171.555 386.934 172.373 386.934C173.013 386.934 173.572 387.041 174.049 387.254C174.524 387.467 174.92 387.762 175.236 388.138C175.562 388.513 175.807 388.958 175.969 389.473C176.133 389.986 176.215 390.544 176.215 391.146V396.485C176.215 396.76 176.077 396.898 175.8 396.898H175.483C175.207 396.898 175.069 396.76 175.069 396.485V391.239C175.069 390.236 174.824 389.453 174.335 388.889C173.845 388.312 173.13 388.024 172.188 388.024C171.284 388.024 170.562 388.305 170.022 388.868C169.482 389.431 169.212 390.222 169.212 391.24V396.486C169.212 396.762 169.074 396.899 168.798 396.899H168.477C168.201 396.899 168.063 396.762 168.063 396.486V383.962C168.063 383.686 168.201 383.548 168.477 383.548H168.798C169.074 383.548 169.212 383.686 169.212 383.962V388.416L169.209 388.419ZM183.897 383.551C184.626 383.551 185.291 383.658 185.894 383.871C186.497 384.084 187.011 384.41 187.438 384.849C187.877 385.274 188.216 385.813 188.455 386.466C188.706 387.105 188.844 387.863 188.87 388.74C188.895 389.303 188.908 389.83 188.908 390.319C188.908 390.808 188.895 391.334 188.87 391.898C188.806 393.691 188.348 395.007 187.495 395.846L188.7 397.538C188.713 397.563 188.726 397.588 188.738 397.612C188.751 397.637 188.757 397.681 188.757 397.744C188.757 397.844 188.72 397.932 188.644 398.008C188.569 398.083 188.481 398.121 188.38 398.121H187.965C187.827 398.121 187.708 398.064 187.608 397.952C187.508 397.852 187.426 397.764 187.363 397.688L186.531 396.541C185.777 396.904 184.898 397.086 183.894 397.086C182.325 397.086 181.113 396.667 180.26 395.827C179.419 394.988 178.973 393.678 178.922 391.898C178.897 391.335 178.884 390.809 178.884 390.319C178.884 389.831 178.897 389.305 178.922 388.74C178.947 387.863 179.079 387.105 179.317 386.466C179.568 385.814 179.907 385.275 180.335 384.849C180.774 384.41 181.289 384.084 181.879 383.871C182.481 383.658 183.153 383.551 183.894 383.551H183.897ZM183.897 384.681C183.37 384.681 182.88 384.762 182.427 384.926C181.976 385.076 181.581 385.32 181.241 385.658C180.903 385.996 180.633 386.429 180.431 386.956C180.243 387.483 180.136 388.109 180.11 388.835C180.098 389.117 180.085 389.38 180.072 389.625C180.072 389.863 180.072 390.095 180.072 390.321C180.072 390.547 180.072 390.784 180.072 391.033C180.085 391.271 180.098 391.528 180.11 391.803C180.136 392.542 180.243 393.176 180.431 393.703C180.632 394.217 180.895 394.643 181.222 394.98C181.56 395.318 181.956 395.569 182.408 395.732C182.86 395.882 183.354 395.957 183.893 395.957C184.433 395.957 184.928 395.882 185.378 395.732C185.829 395.569 186.218 395.318 186.545 394.98C186.884 394.643 187.147 394.217 187.336 393.703C187.537 393.177 187.65 392.544 187.675 391.803C187.687 391.528 187.694 391.271 187.694 391.033C187.694 390.782 187.694 390.545 187.694 390.321C187.694 390.096 187.694 389.864 187.694 389.625C187.694 389.387 187.687 389.124 187.675 388.835C187.649 388.108 187.536 387.482 187.336 386.956C187.148 386.43 186.884 385.997 186.545 385.658C186.207 385.32 185.811 385.076 185.359 384.926C184.908 384.762 184.418 384.681 183.889 384.681H183.897ZM193.09 395.77H199.587C199.869 395.77 200.01 395.911 200.01 396.192V396.474C200.01 396.75 199.869 396.888 199.587 396.888H192.318C192.042 396.888 191.903 396.75 191.903 396.474V384.152C191.903 383.876 192.042 383.738 192.318 383.738H192.675C192.952 383.738 193.09 383.876 193.09 384.152V395.769V395.77ZM93.5833 401.061L92.3143 400.329L106.461 375.872L107.73 376.605L93.5833 401.061Z"></path>
<path fill="#4748A5" d="M92.027 398.371H120.321V399.835H92.027V398.371Z"></path>
<path fill="#4748A5" d="M106.739 407.346L92.5862 399.19L93.3201 397.923L107.472 406.077L106.739 407.346ZM119.034 386.088L104.881 377.933L105.615 376.666L119.768 384.822L119.034 386.088Z"></path>
<path fill="#4748A5" d="M93.324 386.087L92.5901 384.82L106.754 376.674L107.488 377.94L93.324 386.087Z"></path>
<path fill="#4748A5" d="M118.773 401.061L104.625 376.605L105.894 375.872L120.041 400.329L118.773 401.061ZM93.1493 383.854H94.6139V400.166H93.1493V383.854ZM117.742 383.854H119.209V400.166H117.741L117.742 383.854Z"></path>
<path fill="#4748A5" d="M106.491 406.713L105.85 405.604L118.159 398.511L118.8 399.62L106.491 406.713Z"></path>
<path fill="#4748A5" d="M121.151 400.637C120.741 401.344 120.068 401.86 119.278 402.072C118.488 402.283 117.646 402.173 116.937 401.766C116.229 401.357 115.712 400.685 115.5 399.896C115.288 399.107 115.398 398.267 115.806 397.559C116.216 396.853 116.889 396.337 117.68 396.125C118.47 395.914 119.311 396.024 120.02 396.431C121.505 397.275 122.008 399.175 121.152 400.637H121.151ZM96.5412 386.451C96.1318 387.158 95.4581 387.674 94.668 387.885C93.8779 388.097 93.036 387.987 92.3271 387.579C91.619 387.171 91.1022 386.498 90.8902 385.71C90.6783 384.921 90.7885 384.081 91.1967 383.373C91.6061 382.666 92.2798 382.151 93.0699 381.939C93.86 381.727 94.7019 381.837 95.4107 382.245C96.8859 383.089 97.3882 384.989 96.5423 386.451H96.5412ZM91.2062 400.637C90.3581 399.165 90.8615 397.287 92.3377 396.431C93.8129 395.585 95.6942 396.087 96.5518 397.56C97.3999 399.033 96.8965 400.911 95.4203 401.767C93.9356 402.613 92.0543 402.111 91.2062 400.637V400.637ZM115.817 386.451C114.969 384.979 115.472 383.101 116.948 382.245C118.424 381.398 120.305 381.901 121.162 383.374C122.011 384.847 121.507 386.725 120.031 387.581C119.322 387.988 118.48 388.098 117.69 387.886C116.9 387.675 116.226 387.159 115.817 386.452V386.451ZM106.176 409.273C104.471 409.273 103.093 407.897 103.093 406.196C103.093 404.494 104.474 403.119 106.176 403.119C107.877 403.119 109.258 404.494 109.258 406.196C109.257 407.011 108.932 407.793 108.354 408.37C107.776 408.947 106.993 409.271 106.176 409.273V409.273ZM106.176 380.898C104.471 380.898 103.093 379.523 103.093 377.821C103.093 376.12 104.474 374.744 106.176 374.744C107.877 374.744 109.258 376.12 109.258 377.821C109.259 378.225 109.18 378.626 109.025 378.999C108.871 379.373 108.643 379.713 108.357 379.998C108.071 380.284 107.731 380.511 107.356 380.665C106.982 380.82 106.581 380.899 106.176 380.898Z"></path>
<g clip-path="url(#clip1_7080_4274)">
<path fill="#4748A5" d="M372.711 373.426H400.809C402.692 373.426 404.219 374.95 404.219 376.829V404.875C404.219 406.755 402.692 408.279 400.809 408.279H372.711C370.828 408.279 369.301 406.755 369.301 404.875V376.829C369.301 374.95 370.828 373.426 372.711 373.426ZM390.92 401.269V401.134L390.79 401.164C390.833 401.2 390.876 401.235 390.92 401.269ZM390.92 401.269V404.538C391.472 404.824 392.148 405.035 392.898 405.178C393.648 405.321 394.466 405.389 395.285 405.389C396.103 405.389 396.853 405.314 397.603 405.157C398.354 405.001 398.967 404.742 399.513 404.408C400.065 404.048 400.536 403.592 400.809 402.979C401.082 402.366 401.293 401.686 401.293 400.801C401.293 400.181 401.197 399.643 401.013 399.167C400.829 398.69 400.563 398.282 400.195 397.942C399.847 397.581 399.445 397.261 398.967 396.989C398.49 396.716 397.944 396.43 397.331 396.172C397.052 396.058 396.804 395.946 396.559 395.836C396.408 395.769 396.259 395.701 396.103 395.634C395.748 395.457 395.442 395.28 395.216 395.103C394.964 394.919 394.773 394.729 394.637 394.531C394.5 394.327 394.432 394.102 394.432 393.85C394.432 393.619 394.493 393.408 394.616 393.217C394.74 393.027 394.91 392.87 395.128 392.734C395.346 392.598 395.619 392.496 395.946 392.421C396.267 392.346 396.621 392.312 397.037 392.312C397.324 392.312 397.624 392.333 397.924 392.376C398.238 392.419 398.558 392.485 398.879 392.573C399.199 392.662 399.513 392.771 399.833 392.907C400.134 393.043 400.413 393.2 400.652 393.377V390.177C400.134 389.98 399.561 389.83 398.947 389.735C398.333 389.639 397.651 389.592 396.833 389.592C396.014 389.592 395.264 389.68 394.514 389.85C393.764 390.021 393.15 390.293 392.604 390.667C392.052 391.035 391.65 391.484 391.309 392.097C390.988 392.669 390.831 393.322 390.831 394.139C390.831 395.16 391.125 396.045 391.718 396.726C392.304 397.475 393.218 398.019 394.378 398.564C394.786 398.729 395.153 398.895 395.511 399.056C395.565 399.08 395.619 399.104 395.673 399.129C396.083 399.313 396.424 399.503 396.696 399.701C396.99 399.898 397.221 400.116 397.378 400.347C397.549 400.579 397.638 400.851 397.638 401.164C397.638 401.382 397.584 401.586 397.481 401.777C397.377 401.967 397.215 402.131 396.996 402.267C396.778 402.403 396.512 402.512 396.178 402.594C395.858 402.668 395.496 402.709 395.019 402.709C394.269 402.709 393.518 402.58 392.836 402.321C392.139 402.081 391.5 401.728 390.92 401.269ZM389.556 392.761H385.191V405.218H381.713V392.761H377.348V389.97H389.556V392.761Z" clip-rule="evenodd" fill-rule="evenodd"></path>
</g>
<g clip-path="url(#clip2_7080_4274)">
<path fill="#4748A5" d="M519.811 383.11V386.11H513.332V401.893H510.091V386.11H503.477V383.11H519.811ZM520.54 400.104C520.768 400.104 520.968 400.186 521.137 400.349C521.308 400.513 521.393 400.709 521.396 400.937C521.393 401.092 521.354 401.234 521.275 401.361C521.194 401.49 521.091 401.591 520.961 401.664C520.834 401.74 520.693 401.778 520.54 401.778C520.302 401.778 520.101 401.697 519.932 401.533C519.763 401.369 519.679 401.171 519.681 400.937C519.679 400.709 519.763 400.513 519.932 400.349C520.101 400.186 520.302 400.104 520.54 400.104ZM456.323 401.893L444.375 387.117V401.885H441.135V383.102H445.185L460.279 401.752L460.279 386.11L460.278 383.11H476.612V386.11H463.519V390.936H474.049V393.936H463.519V398.893H476.612V401.893H456.323ZM486.996 393.908L489.12 396.535L484.769 401.915H480.517L486.996 393.908ZM484.769 383.117L490.251 389.892L495.716 383.138L499.956 383.132L492.374 392.516L499.968 401.901H495.716L480.529 383.117H484.769ZM526.07 393.865H527.505V399.37C527.503 399.876 527.393 400.308 527.178 400.672C526.961 401.036 526.66 401.313 526.274 401.509C525.89 401.703 525.44 401.802 524.928 401.802C524.46 401.802 524.041 401.718 523.668 401.555C523.295 401.391 522.998 401.146 522.781 400.823C522.561 400.5 522.454 400.097 522.454 399.615H523.892C523.894 399.826 523.942 400.009 524.035 400.162C524.127 400.315 524.254 400.431 524.417 400.513C524.581 400.594 524.77 400.635 524.983 400.635C525.213 400.635 525.411 400.588 525.571 400.491C525.731 400.396 525.854 400.254 525.94 400.065C526.023 399.878 526.067 399.645 526.07 399.37V393.865ZM533.413 396.018C533.378 395.684 533.224 395.424 532.956 395.239C532.686 395.052 532.337 394.959 531.909 394.959C531.608 394.959 531.349 395.004 531.134 395.092C530.919 395.183 530.752 395.303 530.638 395.456C530.524 395.609 530.467 395.783 530.462 395.979C530.462 396.143 530.502 396.285 530.579 396.403C530.655 396.524 530.759 396.625 530.893 396.707C531.024 396.791 531.171 396.86 531.332 396.916C531.494 396.972 531.657 397.019 531.819 397.058L532.567 397.241C532.868 397.31 533.16 397.402 533.439 397.521C533.718 397.637 533.97 397.785 534.192 397.964C534.414 398.143 534.589 398.358 534.719 398.61C534.848 398.862 534.914 399.157 534.914 399.497C534.914 399.955 534.796 400.358 534.556 400.706C534.317 401.053 533.972 401.324 533.52 401.52C533.07 401.714 532.526 401.813 531.885 401.813C531.266 401.813 530.726 401.718 530.271 401.529C529.815 401.341 529.459 401.066 529.202 400.704C528.945 400.343 528.807 399.901 528.787 399.383H530.21C530.23 399.654 530.317 399.88 530.467 400.063C530.618 400.244 530.816 400.377 531.057 400.467C531.301 400.556 531.573 400.601 531.874 400.601C532.188 400.601 532.464 400.554 532.704 400.461C532.941 400.368 533.127 400.239 533.261 400.071C533.397 399.906 533.465 399.71 533.468 399.486C533.465 399.281 533.404 399.111 533.285 398.978C533.165 398.844 532.998 398.732 532.785 398.642C532.57 398.552 532.319 398.47 532.034 398.399L531.125 398.171C530.469 398.005 529.949 397.753 529.569 397.415C529.187 397.077 528.998 396.629 528.998 396.068C528.998 395.607 529.125 395.202 529.382 394.856C529.637 394.509 529.986 394.24 530.427 394.048C530.871 393.855 531.371 393.76 531.929 393.76C532.495 393.76 532.991 393.855 533.419 394.048C533.847 394.24 534.183 394.507 534.427 394.847C534.671 395.187 534.798 395.577 534.805 396.018H533.413Z"></path>
</g>
<g filter="url(#filter2_f_7080_4274)">
<ellipse fill="white" transform="rotate(91.312 784.952 181.158)" ry="298.611" rx="155.408" cy="181.158" cx="784.952"></ellipse>
</g>
<line stroke-width="1.99529" stroke="#C3DAFE" y2="71.8327" x2="1174.23" y1="71.8327" x1="587.615"></line>
<line stroke-width="1.99529" stroke="#C3DAFE" y2="112.947" x2="1174.23" y1="112.947" x1="587.614"></line>
<line stroke-width="1.99529" stroke="#C3DAFE" y2="154.029" x2="1174.23" y1="154.029" x1="587.614"></line>
<line stroke-width="1.99529" stroke="#C3DAFE" y2="195.143" x2="1174.23" y1="195.143" x1="587.614"></line>
<line stroke-width="1.99529" stroke="#C3DAFE" y2="236.257" x2="1174.23" y1="236.257" x1="587.614"></line>
<line stroke-width="1.99529" stroke="#C3DAFE" y2="277.348" x2="1174.23" y1="277.348" x1="587.614"></line>
<line stroke-width="1.99529" stroke="#C3DAFE" y2="318.454" x2="1174.23" y1="318.454" x1="587.614"></line>
<line stroke-width="1.99529" stroke="#C3DAFE" y2="359.568" x2="1174.23" y1="359.568" x1="587.614"></line>
<line stroke-width="1.99529" stroke="#C3DAFE" y2="400.659" x2="1174.23" y1="400.659" x1="587.614"></line>
<line stroke-width="1.99529" stroke="#C3DAFE" y2="401.662" x2="823.259" y1="72.8303" x1="823.259"></line>
<line stroke-width="1.99529" stroke="#C3DAFE" y2="401.662" x2="784.151" y1="72.8303" x1="784.151"></line>
<line stroke-width="1.99529" stroke="#C3DAFE" y2="401.662" x2="745.043" y1="72.8303" x1="745.043"></line>
<line stroke-width="1.99529" stroke="#C3DAFE" y2="401.662" x2="705.935" y1="72.8303" x1="705.935"></line>
<line stroke-width="1.99529" stroke="#C3DAFE" y2="401.662" x2="666.827" y1="72.8303" x1="666.827"></line>
<line stroke-width="1.99529" stroke="#C3DAFE" y2="401.662" x2="627.719" y1="72.8303" x1="627.719"></line>
<line stroke-width="1.99529" stroke="#C3DAFE" y2="401.662" x2="588.612" y1="72.8303" x1="588.612"></line>
<path fill="url(#paint0_linear_7080_4274)" d="M664.442 115.729L501.816 209.078L664.442 302.426L827.068 209.078L745.755 162.403L664.442 115.729Z"></path>
<path fill="url(#paint1_linear_7080_4274)" d="M664.433 302.289L631.51 257.894L720.301 270.863L664.433 302.289Z"></path>
<path fill="url(#paint2_linear_7080_4274)" d="M793.603 163.874L630.977 257.809L793.603 351.744L956.228 257.809L874.915 210.841L793.603 163.874Z"></path>
<path fill="url(#paint3_linear_7080_4274)" d="M793.827 351.751L761.204 307.277L849.995 320.247L793.827 351.751Z"></path>
<path fill="url(#paint4_linear_7080_4274)" d="M923.174 212.836L759.962 306.772L923.174 400.707L1086.39 306.772L1004.78 259.804L923.174 212.836Z"></path>
<g filter="url(#filter3_f_7080_4274)">
<ellipse fill="#434190" transform="matrix(-1 0 0 1 704.788 171.967)" ry="4.46288" rx="20.4017"></ellipse>
</g>
<circle fill="url(#paint5_linear_7080_4274)" transform="matrix(-1 0 0 1 704.838 147.153)" r="20.4518"></circle>
</g>
<defs>
<filter color-interpolation-filters="sRGB" filterUnits="userSpaceOnUse" height="979.646" width="1194.46" y="45.243" x="-120.558" id="filter0_f_7080_4274">
<feFlood result="BackgroundImageFix" flood-opacity="0"></feFlood>
<feBlend result="shape" in2="BackgroundImageFix" in="SourceGraphic" mode="normal"></feBlend>
<feGaussianBlur result="effect1_foregroundBlur_7080_4274" stdDeviation="178.921"></feGaussianBlur>
</filter>
<filter color-interpolation-filters="sRGB" filterUnits="userSpaceOnUse" height="567" width="439" y="-25" x="-226" id="filter1_f_7080_4274">
<feFlood result="BackgroundImageFix" flood-opacity="0"></feFlood>
<feBlend result="shape" in2="BackgroundImageFix" in="SourceGraphic" mode="normal"></feBlend>
<feGaussianBlur result="effect1_foregroundBlur_7080_4274" stdDeviation="75"></feGaussianBlur>
</filter>
<filter color-interpolation-filters="sRGB" filterUnits="userSpaceOnUse" height="610.335" width="896.403" y="-124.009" x="336.751" id="filter2_f_7080_4274">
<feFlood result="BackgroundImageFix" flood-opacity="0"></feFlood>
<feBlend result="shape" in2="BackgroundImageFix" in="SourceGraphic" mode="normal"></feBlend>
<feGaussianBlur result="effect1_foregroundBlur_7080_4274" stdDeviation="74.8235"></feGaussianBlur>
</filter>
<filter color-interpolation-filters="sRGB" filterUnits="userSpaceOnUse" height="28.8787" width="60.7564" y="157.527" x="674.41" id="filter3_f_7080_4274">
<feFlood result="BackgroundImageFix" flood-opacity="0"></feFlood>
<feBlend result="shape" in2="BackgroundImageFix" in="SourceGraphic" mode="normal"></feBlend>
<feGaussianBlur result="effect1_foregroundBlur_7080_4274" stdDeviation="4.98823"></feGaussianBlur>
</filter>
<linearGradient gradientUnits="userSpaceOnUse" y2="302.426" x2="664.442" y1="115.729" x1="664.442" id="paint0_linear_7080_4274">
<stop stop-color="#5A67D8" offset="0.0648065"></stop>
<stop stop-color="#434190" offset="1"></stop>
</linearGradient>
<linearGradient gradientUnits="userSpaceOnUse" y2="302.462" x2="673.512" y1="257.894" x1="675.906" id="paint1_linear_7080_4274">
<stop stop-color="#38A169"></stop>
<stop stop-color="#68D391" offset="0.668984"></stop>
<stop stop-color="#77D99C" offset="1"></stop>
</linearGradient>
<linearGradient gradientUnits="userSpaceOnUse" y2="351.744" x2="793.603" y1="163.874" x1="793.603" id="paint2_linear_7080_4274">
<stop stop-color="#5A67D8" offset="0.0648065"></stop>
<stop stop-color="#434190" offset="1"></stop>
</linearGradient>
<linearGradient gradientUnits="userSpaceOnUse" y2="351.923" x2="803.198" y1="307.277" x1="805.6" id="paint3_linear_7080_4274">
<stop stop-color="#38A169"></stop>
<stop stop-color="#68D391" offset="0.668984"></stop>
<stop stop-color="#77D99C" offset="1"></stop>
</linearGradient>
<linearGradient gradientUnits="userSpaceOnUse" y2="400.707" x2="923.174" y1="212.836" x1="923.174" id="paint4_linear_7080_4274">
<stop stop-color="#5A67D8" offset="0.0648065"></stop>
<stop stop-color="#434190" offset="1"></stop>
</linearGradient>
<linearGradient gradientUnits="userSpaceOnUse" y2="40.7112" x2="16.0795" y1="0" x1="20.4518" id="paint5_linear_7080_4274">
<stop stop-color="#9AE6B4"></stop>
<stop stop-color="#68D391" offset="0.314811"></stop>
<stop stop-color="#38A169" offset="1"></stop>
</linearGradient>
<clipPath id="clip0_7080_4274">
<rect fill="white" height="474" width="844"></rect>
</clipPath>
<clipPath id="clip1_7080_4274">
<rect transform="translate(369.301 373.425)" fill="white" height="34.8529" width="34.9176"></rect>
</clipPath>
<clipPath id="clip2_7080_4274">
<rect transform="translate(441.135 383.097)" fill="white" height="18.9553" width="93.7788"></rect>
</clipPath>
</defs>
</svg>
