<svg xmlns="http://www.w3.org/2000/svg" fill="none" viewBox="0 0 844 474" height="474" width="844">
<g clip-path="url(#clip0_7076_2773)">
<rect fill="#5A67D8" height="474" width="844"></rect>
<path fill-opacity="0.05" fill="white" d="M42.362 -27.1678C42.0756 -27.3331 41.7227 -27.3331 41.4363 -27.1678L-13.1415 4.34267C-13.4279 4.50804 -13.6043 4.81364 -13.6043 5.14436C-13.6043 5.47508 -13.4279 5.78068 -13.1415 5.94604L40.0606 36.6622L-13.1415 67.3784C-13.4279 67.5438 -13.6043 67.8494 -13.6043 68.1801C-13.6043 68.5109 -13.4279 68.8165 -13.1415 68.9818L40.088 99.7138L-13.1415 130.446C-13.4279 130.611 -13.6043 130.917 -13.6043 131.248C-13.6043 131.578 -13.4279 131.884 -13.1415 132.049L40.0738 162.773L-13.1415 193.497C-13.4279 193.662 -13.6043 193.968 -13.6043 194.299C-13.6043 194.629 -13.4279 194.935 -13.1415 195.1L40.0677 225.821L-13.1415 256.541C-13.4279 256.706 -13.6043 257.012 -13.6043 257.343C-13.6043 257.673 -13.4279 257.979 -13.1415 258.144L40.0809 288.872L-13.1415 319.6C-13.4279 319.765 -13.6043 320.071 -13.6043 320.402C-13.6043 320.732 -13.4279 321.038 -13.1415 321.203L40.0667 351.923L-13.1415 382.643C-13.4279 382.808 -13.6043 383.114 -13.6043 383.445C-13.6043 383.775 -13.4279 384.081 -13.1415 384.246L40.0464 414.954L-13.1415 445.662C-13.4279 445.828 -13.6043 446.133 -13.6043 446.464C-13.6043 446.795 -13.4279 447.1 -13.1415 447.266L41.4363 478.776C41.7227 478.941 42.0756 478.941 42.362 478.776L96.4085 447.572L150.455 478.776C150.741 478.941 151.094 478.941 151.381 478.776L205.428 447.572L259.475 478.776C259.761 478.941 260.114 478.941 260.4 478.776L314.447 447.572L368.494 478.776C368.78 478.941 369.133 478.941 369.419 478.776L423.466 447.572L477.513 478.776C477.8 478.941 478.152 478.941 478.439 478.776L532.485 447.572L586.532 478.776C586.818 478.941 587.171 478.941 587.457 478.776L641.504 447.572L695.551 478.776C695.838 478.941 696.19 478.941 696.477 478.776L750.524 447.572L804.57 478.776C804.857 478.941 805.21 478.941 805.496 478.776L860.074 447.266C860.36 447.1 860.537 446.795 860.537 446.464C860.537 446.133 860.36 445.828 860.074 445.662L832.785 429.907L806.886 414.954L860.074 384.246C860.36 384.081 860.537 383.775 860.537 383.445C860.537 383.114 860.36 382.808 860.074 382.643L832.785 366.888L806.866 351.923L860.074 321.203C860.36 321.038 860.537 320.732 860.537 320.402C860.537 320.071 860.36 319.765 860.074 319.6L832.785 303.845L806.852 288.872L860.074 258.144C860.36 257.979 860.537 257.673 860.537 257.343C860.537 257.012 860.36 256.706 860.074 256.541L832.785 240.786L806.865 225.821L860.074 195.1C860.36 194.935 860.537 194.629 860.537 194.299C860.537 193.968 860.36 193.662 860.074 193.497L832.785 177.742L806.859 162.773L860.074 132.049C860.36 131.884 860.537 131.578 860.537 131.248C860.537 130.917 860.36 130.611 860.074 130.446L832.785 114.691L806.844 99.7138L860.074 68.9818C860.36 68.8165 860.537 68.5109 860.537 68.1801C860.537 67.8494 860.36 67.5438 860.074 67.3784L832.785 51.6232L806.872 36.6622L860.074 5.94604C860.36 5.78068 860.537 5.47508 860.537 5.14436C860.537 4.81364 860.36 4.50804 860.074 4.34267L832.785 -11.4126L805.496 -27.1678C805.21 -27.3331 804.857 -27.3331 804.57 -27.1678L750.524 4.03617L723.766 -11.4126L696.477 -27.1678C696.19 -27.3331 695.837 -27.3331 695.551 -27.1678L641.504 4.03615L614.746 -11.4126L587.457 -27.1678C587.171 -27.3331 586.818 -27.3331 586.532 -27.1678L532.485 4.0359L505.728 -11.4126L478.439 -27.1678C478.152 -27.3331 477.8 -27.3331 477.513 -27.1678L423.466 4.03625L396.708 -11.4126L369.419 -27.1678C369.133 -27.3331 368.78 -27.3331 368.494 -27.1678L314.447 4.036L287.689 -11.4126L260.4 -27.1678C260.114 -27.3331 259.761 -27.3331 259.475 -27.1678L205.428 4.03624L178.67 -11.4126L151.381 -27.1678C151.094 -27.3331 150.741 -27.3331 150.455 -27.1678L96.4085 4.036L69.6508 -11.4126L42.362 -27.1678ZM803.181 414.954L750.524 384.553L697.867 414.954L723.766 429.907L750.524 445.356L803.181 414.954ZM694.161 414.954L641.504 445.356L614.746 429.907L588.847 414.954L641.504 384.553L694.161 414.954ZM585.142 414.954L532.485 384.553L479.829 414.954L505.728 429.907L532.485 445.355L585.142 414.954ZM476.123 414.954L423.466 445.356L396.708 429.907L370.809 414.954L423.466 384.553L476.123 414.954ZM367.104 414.954L314.447 445.356L287.689 429.907L261.79 414.954L314.447 384.553L367.104 414.954ZM258.085 414.954L205.428 384.553L152.771 414.954L178.67 429.907L205.428 445.356L258.085 414.954ZM149.065 414.954L96.4085 445.356L69.6508 429.907L43.7518 414.954L96.4085 384.553L149.065 414.954ZM803.201 351.923L750.524 382.336L723.766 366.888L697.846 351.923L750.524 321.51L803.201 351.923ZM694.182 351.923L641.504 321.51L588.827 351.923L614.746 366.888L641.504 382.336L694.182 351.923ZM585.162 351.923L532.485 382.336L505.728 366.888L479.808 351.923L532.485 321.51L585.162 351.923ZM476.144 351.923L423.466 321.51L370.789 351.923L396.708 366.888L423.466 382.336L476.144 351.923ZM367.124 351.923L314.447 321.51L261.77 351.923L287.689 366.888L314.447 382.336L367.124 351.923ZM258.105 351.923L205.428 382.336L178.67 366.888L152.75 351.923L205.428 321.51L258.105 351.923ZM149.085 351.923L96.4085 321.51L43.7316 351.923L69.6508 366.888L96.4085 382.336L149.085 351.923ZM803.215 288.872L750.524 258.451L697.832 288.872L723.766 303.845L750.524 319.293L803.215 288.872ZM694.196 288.872L641.504 319.294L614.746 303.845L588.813 288.872L641.504 258.451L694.196 288.872ZM585.176 288.872L532.485 258.451L479.794 288.872L505.728 303.845L532.485 319.293L585.176 288.872ZM476.158 288.872L423.466 319.294L396.708 303.845L370.775 288.872L423.466 258.451L476.158 288.872ZM367.138 288.872L314.447 319.293L287.689 303.845L261.756 288.872L314.447 258.451L367.138 288.872ZM258.119 288.872L205.428 258.451L152.736 288.872L178.67 303.845L205.428 319.294L258.119 288.872ZM149.1 288.872L96.4085 319.293L69.6508 303.845L43.7174 288.872L96.4085 258.451L149.1 288.872ZM803.202 225.821L750.524 256.234L723.766 240.786L697.845 225.821L750.524 195.407L803.202 225.821ZM694.182 225.82L641.504 195.407L588.826 225.821L614.746 240.786L641.504 256.234L694.182 225.82ZM585.163 225.821L532.485 256.234L505.728 240.786L479.807 225.821L532.485 195.407L585.163 225.821ZM476.145 225.821L423.466 195.407L370.788 225.821L396.708 240.786L423.466 256.234L476.145 225.821ZM367.125 225.821L314.447 195.407L261.769 225.821L287.689 240.786L314.447 256.234L367.125 225.821ZM258.106 225.821L205.428 256.234L178.67 240.786L152.749 225.821L205.428 195.407L258.106 225.821ZM149.086 225.821L96.4085 195.407L43.7306 225.821L69.6508 240.786L96.4085 256.234L149.086 225.821ZM803.208 162.773L750.524 132.356L697.839 162.773L723.766 177.742L750.524 193.19L803.208 162.773ZM694.189 162.773L641.504 193.19L614.746 177.742L588.82 162.773L641.504 132.356L694.189 162.773ZM585.169 162.773L532.485 132.356L479.801 162.773L505.728 177.742L532.485 193.19L585.169 162.773ZM476.151 162.773L423.466 193.19L396.708 177.742L370.782 162.773L423.466 132.356L476.151 162.773ZM367.131 162.773L314.447 193.19L287.689 177.742L261.763 162.773L314.447 132.356L367.131 162.773ZM258.112 162.773L205.428 132.356L152.743 162.773L178.67 177.742L205.428 193.19L258.112 162.773ZM149.093 162.773L96.4085 193.19L69.6508 177.742L43.7245 162.773L96.4085 132.356L149.093 162.773ZM803.222 99.7138L750.524 130.139L723.766 114.691L697.825 99.7138L750.524 69.2884L803.222 99.7138ZM694.203 99.7138L641.504 69.2884L588.806 99.7139L614.746 114.691L641.504 130.139L694.203 99.7138ZM585.184 99.7137L532.485 130.139L505.728 114.691L479.787 99.7138L532.485 69.2885L585.184 99.7137ZM476.165 99.7138L423.466 69.2883L370.768 99.7139L396.708 114.691L423.466 130.139L476.165 99.7138ZM367.145 99.7138L314.447 69.2885L261.749 99.7138L287.689 114.691L314.447 130.139L367.145 99.7138ZM258.126 99.7138L205.428 130.139L178.67 114.691L152.729 99.7138L205.428 69.2883L258.126 99.7138ZM149.107 99.7138L96.4085 69.2885L43.7103 99.7138L69.6508 114.691L96.4085 130.139L149.107 99.7138ZM803.195 36.6622L750.524 6.25255L697.852 36.6622L723.766 51.6232L750.524 67.0719L803.195 36.6622ZM694.175 36.6623L641.504 67.0719L614.747 51.6232L588.833 36.6621L641.504 6.25257L694.175 36.6623ZM585.156 36.6623L532.485 6.25282L479.815 36.6622L505.728 51.6232L532.485 67.0718L585.156 36.6623ZM476.137 36.6622L423.466 67.072L396.708 51.6232L370.795 36.6622L423.466 6.25247L476.137 36.6622ZM367.118 36.6623L314.447 67.0718L287.689 51.6232L261.776 36.6622L314.447 6.25272L367.118 36.6623ZM258.099 36.6622L205.428 6.25248L152.756 36.6622L178.67 51.6232L205.428 67.072L258.099 36.6622ZM149.079 36.6622L96.4085 67.0718L69.6508 51.6232L43.7377 36.6622L96.4085 6.25272L149.079 36.6622ZM41.8991 35.5859L-10.8272 5.14436L41.8991 -25.2972L68.7251 -9.80919L94.6254 5.14436L41.8991 35.5859ZM150.918 35.5859L98.1916 5.14436L150.918 -25.2972L177.744 -9.80919L203.644 5.14436L150.918 35.5859ZM207.211 5.14436L259.938 35.5859L312.664 5.14436L286.764 -9.80919L259.938 -25.2972L207.211 5.14436ZM368.956 35.5859L316.23 5.14436L368.956 -25.2972L395.782 -9.80919L421.683 5.14436L368.956 35.5859ZM425.25 5.14436L477.976 35.5859L530.702 5.14436L504.802 -9.80919L477.976 -25.2972L425.25 5.14436ZM534.268 5.14436L586.995 35.5859L639.721 5.14436L613.821 -9.80919L586.995 -25.2972L534.268 5.14436ZM696.014 35.5859L643.288 5.14436L696.014 -25.2972L722.84 -9.80919L748.74 5.14436L696.014 35.5859ZM752.307 5.14436L805.033 35.5859L857.76 5.14436L831.859 -9.80919L805.033 -25.2972L752.307 5.14436ZM41.8991 98.6217L-10.8272 68.1801L41.8991 37.7386L68.7251 53.2266L94.6254 68.1801L41.8991 98.6217ZM98.1916 68.1801L150.918 98.6217L203.644 68.1801L177.744 53.2266L150.918 37.7386L98.1916 68.1801ZM259.938 98.6217L207.211 68.1801L259.938 37.7386L286.764 53.2266L312.664 68.1801L259.938 98.6217ZM316.23 68.1801L368.956 98.6217L421.683 68.1801L395.782 53.2266L368.956 37.7386L316.23 68.1801ZM477.976 98.6217L425.25 68.1801L477.976 37.7386L504.802 53.2266L530.702 68.1801L477.976 98.6217ZM586.995 98.6217L534.269 68.1801L586.995 37.7386L613.821 53.2266L639.721 68.1801L586.995 98.6217ZM643.288 68.1801L696.014 98.6217L748.74 68.1801L722.84 53.2266L696.014 37.7386L643.288 68.1801ZM805.033 98.6217L752.307 68.1801L805.033 37.7386L831.859 53.2266L857.76 68.1801L805.033 98.6217ZM-10.8272 131.248L41.8991 161.689L94.6254 131.248L68.7251 116.294L41.8991 100.806L-10.8272 131.248ZM150.918 161.689L98.1916 131.248L150.918 100.806L177.744 116.294L203.644 131.248L150.918 161.689ZM207.211 131.248L259.938 161.689L312.664 131.248L286.764 116.294L259.938 100.806L207.211 131.248ZM368.956 161.689L316.23 131.248L368.956 100.806L395.782 116.294L421.683 131.248L368.956 161.689ZM425.25 131.248L477.976 161.689L530.702 131.248L504.802 116.294L477.976 100.806L425.25 131.248ZM534.268 131.248L586.995 161.689L639.721 131.248L613.821 116.294L586.995 100.806L534.268 131.248ZM696.014 161.689L643.288 131.248L696.014 100.806L722.84 116.294L748.74 131.248L696.014 161.689ZM752.307 131.248L805.033 161.689L857.76 131.248L831.859 116.294L805.033 100.806L752.307 131.248ZM41.8991 224.74L-10.8272 194.299L41.8991 163.857L68.7251 179.345L94.6254 194.299L41.8991 224.74ZM98.1916 194.299L150.918 224.74L203.644 194.299L177.744 179.345L150.918 163.857L98.1916 194.299ZM259.938 224.74L207.211 194.299L259.938 163.857L286.764 179.345L312.664 194.299L259.938 224.74ZM316.23 194.299L368.956 224.74L421.683 194.299L395.782 179.345L368.956 163.857L316.23 194.299ZM477.976 224.74L425.25 194.299L477.976 163.857L504.802 179.345L530.702 194.299L477.976 224.74ZM586.995 224.74L534.268 194.299L586.995 163.857L613.821 179.345L639.721 194.299L586.995 224.74ZM643.288 194.299L696.014 224.74L748.74 194.299L722.84 179.345L696.014 163.857L643.288 194.299ZM805.033 224.74L752.307 194.299L805.033 163.857L831.859 179.345L857.76 194.299L805.033 224.74ZM-10.8272 257.343L41.8991 287.784L94.6254 257.343L68.7251 242.389L41.8991 226.901L-10.8272 257.343ZM150.918 287.784L98.1916 257.343L150.918 226.901L177.744 242.389L203.644 257.343L150.918 287.784ZM207.211 257.343L259.938 287.784L312.664 257.343L286.764 242.389L259.938 226.901L207.211 257.343ZM368.956 287.784L316.23 257.343L368.956 226.901L395.782 242.389L421.683 257.343L368.956 287.784ZM425.25 257.343L477.976 287.784L530.702 257.343L504.802 242.389L477.976 226.901L425.25 257.343ZM534.268 257.343L586.995 287.784L639.721 257.343L613.821 242.389L586.995 226.901L534.268 257.343ZM696.014 287.784L643.288 257.343L696.014 226.901L722.84 242.389L748.74 257.343L696.014 287.784ZM752.307 257.343L805.033 287.784L857.76 257.343L831.859 242.389L805.033 226.901L752.307 257.343ZM41.8991 350.843L-10.8272 320.402L41.8991 289.96L68.7251 305.448L94.6254 320.402L41.8991 350.843ZM98.1916 320.402L150.918 350.843L203.644 320.402L177.744 305.448L150.918 289.96L98.1916 320.402ZM259.938 350.843L207.211 320.402L259.938 289.96L286.764 305.448L312.664 320.402L259.938 350.843ZM316.23 320.402L368.956 350.843L421.683 320.402L395.782 305.448L368.956 289.96L316.23 320.402ZM477.976 350.843L425.25 320.402L477.976 289.96L504.802 305.448L530.702 320.402L477.976 350.843ZM586.995 350.843L534.268 320.402L586.995 289.96L613.821 305.448L639.721 320.402L586.995 350.843ZM643.288 320.402L696.014 350.843L748.74 320.402L722.84 305.448L696.014 289.96L643.288 320.402ZM805.033 350.843L752.307 320.402L805.033 289.96L831.859 305.448L857.76 320.402L805.033 350.843ZM-10.8272 383.445L41.8991 413.886L94.6254 383.445L68.7251 368.491L41.8991 353.003L-10.8272 383.445ZM150.918 413.886L98.1916 383.445L150.918 353.003L177.744 368.491L203.644 383.445L150.918 413.886ZM207.211 383.445L259.938 413.886L312.664 383.445L286.764 368.491L259.938 353.003L207.211 383.445ZM368.956 413.886L316.23 383.445L368.956 353.003L395.782 368.491L421.683 383.445L368.956 413.886ZM425.25 383.445L477.976 413.886L530.702 383.445L504.802 368.491L477.976 353.003L425.25 383.445ZM534.268 383.445L586.995 413.886L639.721 383.445L613.821 368.491L586.995 353.003L534.268 383.445ZM696.014 413.886L643.288 383.445L696.014 353.003L722.84 368.491L748.74 383.445L696.014 413.886ZM752.307 383.445L805.033 413.886L857.76 383.445L831.859 368.491L805.033 353.003L752.307 383.445ZM41.8991 476.906L-10.8272 446.464L41.8991 416.022L68.7251 431.51L94.6254 446.464L41.8991 476.906ZM98.1916 446.464L150.918 476.906L203.644 446.464L177.744 431.51L150.918 416.022L98.1916 446.464ZM259.938 476.906L207.211 446.464L259.938 416.022L286.764 431.51L312.664 446.464L259.938 476.906ZM316.23 446.464L368.956 476.906L421.683 446.464L395.782 431.51L368.956 416.022L316.23 446.464ZM477.976 476.906L425.25 446.464L477.976 416.022L504.802 431.51L530.702 446.464L477.976 476.906ZM586.995 476.906L534.268 446.464L586.995 416.022L613.821 431.51L639.721 446.464L586.995 476.906ZM643.288 446.464L696.014 476.906L748.74 446.464L722.84 431.51L696.014 416.022L643.288 446.464ZM805.033 476.906L752.307 446.464L805.033 416.022L831.859 431.51L857.76 446.464L805.033 476.906Z" clip-rule="evenodd" fill-rule="evenodd"></path>
<path fill="white" d="M94.6925 239.139C93.8642 239.139 93.1079 238.938 92.4234 238.534C91.7389 238.123 91.1913 237.575 90.7806 236.891C90.3767 236.206 90.1748 235.45 90.1748 234.622C90.1748 233.787 90.3767 233.03 90.7806 232.353C91.1913 231.668 91.7389 231.124 92.4234 230.72C93.1079 230.309 93.8642 230.104 94.6925 230.104C95.5276 230.104 96.2839 230.309 96.9616 230.72C97.6461 231.124 98.1902 231.668 98.5941 232.353C99.0048 233.03 99.2101 233.787 99.2101 234.622C99.2101 235.45 99.0048 236.206 98.5941 236.891C98.1902 237.575 97.6461 238.123 96.9616 238.534C96.2839 238.938 95.5276 239.139 94.6925 239.139ZM118.68 243V221.972H126.175C127.811 221.972 129.166 222.27 130.241 222.866C131.315 223.461 132.12 224.276 132.654 225.309C133.188 226.336 133.455 227.493 133.455 228.78C133.455 230.073 133.184 231.237 132.643 232.271C132.11 233.297 131.302 234.112 130.22 234.714C129.146 235.31 127.794 235.607 126.165 235.607H121.01V232.917H125.877C126.911 232.917 127.749 232.739 128.393 232.383C129.036 232.021 129.508 231.528 129.81 230.905C130.111 230.282 130.261 229.574 130.261 228.78C130.261 227.986 130.111 227.281 129.81 226.665C129.508 226.048 129.033 225.566 128.382 225.217C127.739 224.868 126.89 224.693 125.836 224.693H121.852V243H118.68ZM136.927 243V227.229H139.895V229.734H140.059C140.347 228.886 140.853 228.218 141.579 227.732C142.311 227.24 143.139 226.993 144.063 226.993C144.255 226.993 144.481 227 144.741 227.014C145.008 227.027 145.217 227.044 145.367 227.065V230.001C145.244 229.967 145.025 229.93 144.71 229.889C144.395 229.841 144.08 229.817 143.766 229.817C143.04 229.817 142.393 229.971 141.825 230.279C141.264 230.58 140.819 231.001 140.49 231.542C140.162 232.075 139.997 232.685 139.997 233.369V243H136.927ZM154.102 243.318C152.624 243.318 151.334 242.979 150.231 242.302C149.129 241.624 148.274 240.676 147.665 239.458C147.055 238.239 146.751 236.816 146.751 235.186C146.751 233.551 147.055 232.12 147.665 230.895C148.274 229.669 149.129 228.718 150.231 228.04C151.334 227.363 152.624 227.024 154.102 227.024C155.581 227.024 156.871 227.363 157.973 228.04C159.075 228.718 159.931 229.669 160.54 230.895C161.149 232.12 161.454 233.551 161.454 235.186C161.454 236.816 161.149 238.239 160.54 239.458C159.931 240.676 159.075 241.624 157.973 242.302C156.871 242.979 155.581 243.318 154.102 243.318ZM154.113 240.741C155.071 240.741 155.865 240.488 156.495 239.981C157.124 239.475 157.59 238.801 157.891 237.959C158.199 237.117 158.353 236.189 158.353 235.176C158.353 234.17 158.199 233.246 157.891 232.404C157.59 231.555 157.124 230.874 156.495 230.361C155.865 229.847 155.071 229.591 154.113 229.591C153.147 229.591 152.347 229.847 151.71 230.361C151.08 230.874 150.611 231.555 150.303 232.404C150.002 233.246 149.852 234.17 149.852 235.176C149.852 236.189 150.002 237.117 150.303 237.959C150.611 238.801 151.08 239.475 151.71 239.981C152.347 240.488 153.147 240.741 154.113 240.741ZM164.881 227.229H167.95V244.027C167.95 245.081 167.759 245.971 167.376 246.696C166.999 247.422 166.438 247.973 165.692 248.349C164.952 248.726 164.039 248.914 162.95 248.914C162.841 248.914 162.738 248.914 162.642 248.914C162.54 248.914 162.433 248.911 162.324 248.904V246.265C162.42 246.265 162.505 246.265 162.581 246.265C162.649 246.265 162.728 246.265 162.817 246.265C163.542 246.265 164.066 246.07 164.388 245.68C164.716 245.296 164.881 244.739 164.881 244.006V227.229ZM166.4 224.796C165.866 224.796 165.408 224.618 165.024 224.262C164.648 223.899 164.46 223.468 164.46 222.968C164.46 222.462 164.648 222.031 165.024 221.675C165.408 221.312 165.866 221.13 166.4 221.13C166.934 221.13 167.389 221.312 167.766 221.675C168.149 222.031 168.341 222.462 168.341 222.968C168.341 223.468 168.149 223.899 167.766 224.262C167.389 224.618 166.934 224.796 166.4 224.796ZM178.878 243.318C177.324 243.318 175.986 242.986 174.863 242.322C173.747 241.652 172.885 240.71 172.276 239.499C171.673 238.28 171.372 236.853 171.372 235.217C171.372 233.602 171.673 232.178 172.276 230.946C172.885 229.714 173.734 228.752 174.822 228.061C175.917 227.37 177.197 227.024 178.662 227.024C179.552 227.024 180.414 227.171 181.249 227.465C182.084 227.76 182.834 228.222 183.498 228.852C184.162 229.481 184.686 230.299 185.069 231.305C185.452 232.305 185.644 233.52 185.644 234.95V236.039H173.107V233.739H182.635C182.635 232.931 182.471 232.216 182.143 231.593C181.814 230.963 181.352 230.467 180.757 230.104C180.168 229.741 179.477 229.56 178.683 229.56C177.82 229.56 177.067 229.772 176.424 230.197C175.787 230.614 175.294 231.162 174.945 231.839C174.603 232.51 174.432 233.239 174.432 234.026V235.823C174.432 236.877 174.617 237.774 174.986 238.513C175.363 239.252 175.886 239.817 176.557 240.207C177.228 240.591 178.012 240.782 178.908 240.782C179.49 240.782 180.021 240.7 180.5 240.536C180.979 240.365 181.393 240.111 181.742 239.776C182.091 239.441 182.358 239.027 182.543 238.534L185.449 239.057C185.216 239.913 184.798 240.662 184.196 241.306C183.601 241.942 182.851 242.439 181.948 242.795C181.051 243.144 180.028 243.318 178.878 243.318ZM195.693 243.318C194.167 243.318 192.852 242.973 191.75 242.281C190.655 241.583 189.813 240.621 189.225 239.396C188.636 238.171 188.342 236.768 188.342 235.186C188.342 233.585 188.643 232.171 189.245 230.946C189.847 229.714 190.696 228.752 191.791 228.061C192.887 227.37 194.177 227.024 195.662 227.024C196.86 227.024 197.928 227.246 198.866 227.691C199.803 228.129 200.56 228.745 201.135 229.539C201.717 230.333 202.062 231.261 202.172 232.322H199.184C199.02 231.583 198.643 230.946 198.055 230.412C197.473 229.878 196.692 229.611 195.714 229.611C194.858 229.611 194.108 229.837 193.465 230.289C192.828 230.734 192.332 231.37 191.976 232.199C191.62 233.02 191.442 233.992 191.442 235.115C191.442 236.265 191.617 237.257 191.966 238.092C192.315 238.927 192.808 239.574 193.444 240.033C194.088 240.491 194.844 240.721 195.714 240.721C196.295 240.721 196.822 240.615 197.295 240.402C197.774 240.183 198.174 239.872 198.496 239.468C198.825 239.064 199.054 238.578 199.184 238.01H202.172C202.062 239.03 201.73 239.94 201.176 240.741C200.621 241.542 199.879 242.172 198.948 242.63C198.024 243.089 196.939 243.318 195.693 243.318ZM212.817 227.229V229.693H204.202V227.229H212.817ZM206.512 223.451H209.582V238.369C209.582 238.965 209.671 239.413 209.849 239.714C210.027 240.009 210.257 240.211 210.537 240.32C210.825 240.423 211.136 240.474 211.471 240.474C211.718 240.474 211.934 240.457 212.118 240.423C212.303 240.389 212.447 240.361 212.55 240.341L213.104 242.877C212.926 242.945 212.673 243.014 212.344 243.082C212.016 243.157 211.605 243.199 211.112 243.205C210.304 243.219 209.551 243.075 208.853 242.774C208.155 242.473 207.59 242.007 207.159 241.378C206.728 240.748 206.512 239.957 206.512 239.006V223.451ZM235.682 231.08L232.9 231.572C232.783 231.216 232.598 230.878 232.345 230.556C232.099 230.234 231.763 229.971 231.339 229.765C230.915 229.56 230.384 229.457 229.748 229.457C228.878 229.457 228.153 229.652 227.571 230.043C226.989 230.426 226.698 230.922 226.698 231.531C226.698 232.058 226.893 232.483 227.283 232.804C227.673 233.126 228.303 233.39 229.173 233.595L231.678 234.17C233.129 234.505 234.21 235.022 234.922 235.72C235.634 236.419 235.99 237.326 235.99 238.441C235.99 239.386 235.716 240.228 235.169 240.967C234.628 241.699 233.872 242.274 232.9 242.692C231.934 243.11 230.815 243.318 229.542 243.318C227.776 243.318 226.335 242.942 225.22 242.189C224.104 241.429 223.419 240.351 223.166 238.955L226.133 238.503C226.318 239.276 226.698 239.862 227.273 240.259C227.848 240.649 228.598 240.844 229.522 240.844C230.528 240.844 231.332 240.635 231.934 240.218C232.537 239.793 232.838 239.276 232.838 238.667C232.838 238.174 232.653 237.76 232.284 237.425C231.921 237.089 231.363 236.836 230.61 236.665L227.94 236.08C226.469 235.744 225.38 235.21 224.675 234.478C223.977 233.746 223.628 232.818 223.628 231.696C223.628 230.765 223.888 229.95 224.408 229.252C224.929 228.554 225.647 228.01 226.565 227.619C227.482 227.222 228.533 227.024 229.717 227.024C231.421 227.024 232.763 227.394 233.742 228.133C234.72 228.865 235.367 229.847 235.682 231.08ZM246.163 243.318C244.609 243.318 243.271 242.986 242.148 242.322C241.032 241.652 240.17 240.71 239.561 239.499C238.958 238.28 238.657 236.853 238.657 235.217C238.657 233.602 238.958 232.178 239.561 230.946C240.17 229.714 241.019 228.752 242.107 228.061C243.202 227.37 244.482 227.024 245.947 227.024C246.837 227.024 247.699 227.171 248.534 227.465C249.369 227.76 250.119 228.222 250.783 228.852C251.447 229.481 251.97 230.299 252.354 231.305C252.737 232.305 252.929 233.52 252.929 234.95V236.039H240.392V233.739H249.92C249.92 232.931 249.756 232.216 249.428 231.593C249.099 230.963 248.637 230.467 248.041 230.104C247.453 229.741 246.761 229.56 245.967 229.56C245.105 229.56 244.352 229.772 243.709 230.197C243.072 230.614 242.579 231.162 242.23 231.839C241.888 232.51 241.717 233.239 241.717 234.026V235.823C241.717 236.877 241.902 237.774 242.271 238.513C242.648 239.252 243.171 239.817 243.842 240.207C244.513 240.591 245.297 240.782 246.193 240.782C246.775 240.782 247.306 240.7 247.785 240.536C248.264 240.365 248.678 240.111 249.027 239.776C249.376 239.441 249.643 239.027 249.828 238.534L252.734 239.057C252.501 239.913 252.083 240.662 251.481 241.306C250.886 241.942 250.136 242.439 249.232 242.795C248.336 243.144 247.312 243.318 246.163 243.318ZM263.697 227.229V229.693H255.082V227.229H263.697ZM257.393 223.451H260.462V238.369C260.462 238.965 260.551 239.413 260.729 239.714C260.907 240.009 261.137 240.211 261.417 240.32C261.705 240.423 262.016 240.474 262.352 240.474C262.598 240.474 262.814 240.457 262.999 240.423C263.183 240.389 263.327 240.361 263.43 240.341L263.984 242.877C263.806 242.945 263.553 243.014 263.224 243.082C262.896 243.157 262.485 243.199 261.992 243.205C261.185 243.219 260.432 243.075 259.733 242.774C259.035 242.473 258.471 242.007 258.039 241.378C257.608 240.748 257.393 239.957 257.393 239.006V223.451ZM277.083 236.46V227.229H280.163V243H277.144V240.269H276.98C276.617 241.111 276.036 241.812 275.235 242.374C274.441 242.928 273.452 243.205 272.267 243.205C271.254 243.205 270.358 242.983 269.577 242.538C268.804 242.086 268.195 241.419 267.75 240.536C267.312 239.653 267.093 238.561 267.093 237.261V227.229H270.163V236.891C270.163 237.966 270.46 238.821 271.056 239.458C271.651 240.094 272.425 240.413 273.376 240.413C273.951 240.413 274.523 240.269 275.091 239.981C275.666 239.694 276.142 239.259 276.518 238.677C276.901 238.096 277.09 237.356 277.083 236.46ZM284.288 248.914V227.229H287.286V229.786H287.543C287.721 229.457 287.977 229.077 288.313 228.646C288.648 228.215 289.114 227.838 289.709 227.517C290.305 227.188 291.092 227.024 292.071 227.024C293.344 227.024 294.48 227.346 295.479 227.989C296.479 228.632 297.263 229.56 297.831 230.772C298.406 231.983 298.693 233.441 298.693 235.145C298.693 236.85 298.409 238.311 297.841 239.53C297.273 240.741 296.493 241.676 295.5 242.333C294.508 242.983 293.375 243.308 292.102 243.308C291.143 243.308 290.359 243.147 289.75 242.825C289.148 242.504 288.676 242.127 288.333 241.696C287.991 241.265 287.728 240.881 287.543 240.546H287.358V248.914H284.288ZM287.296 235.115C287.296 236.224 287.457 237.195 287.779 238.031C288.101 238.866 288.566 239.519 289.175 239.992C289.784 240.457 290.531 240.69 291.414 240.69C292.331 240.69 293.097 240.447 293.713 239.961C294.33 239.468 294.795 238.801 295.11 237.959C295.432 237.117 295.592 236.169 295.592 235.115C295.592 234.074 295.435 233.14 295.12 232.312C294.812 231.483 294.347 230.83 293.724 230.351C293.108 229.871 292.338 229.632 291.414 229.632C290.524 229.632 289.771 229.861 289.155 230.32C288.546 230.778 288.084 231.418 287.769 232.24C287.454 233.061 287.296 234.019 287.296 235.115ZM94.6925 281.139C93.8642 281.139 93.1079 280.938 92.4234 280.534C91.7389 280.123 91.1913 279.575 90.7806 278.891C90.3767 278.206 90.1748 277.45 90.1748 276.622C90.1748 275.787 90.3767 275.03 90.7806 274.353C91.1913 273.668 91.7389 273.124 92.4234 272.72C93.1079 272.309 93.8642 272.104 94.6925 272.104C95.5276 272.104 96.2839 272.309 96.9616 272.72C97.6461 273.124 98.1902 273.668 98.5941 274.353C99.0048 275.03 99.2101 275.787 99.2101 276.622C99.2101 277.45 99.0048 278.206 98.5941 278.891C98.1902 279.575 97.6461 280.123 96.9616 280.534C96.2839 280.938 95.5276 281.139 94.6925 281.139ZM125.487 285H118.68V263.972H125.703C127.763 263.972 129.532 264.393 131.011 265.235C132.489 266.07 133.622 267.272 134.409 268.839C135.203 270.4 135.6 272.272 135.6 274.455C135.6 276.646 135.2 278.528 134.399 280.102C133.605 281.677 132.455 282.888 130.949 283.737C129.443 284.579 127.623 285 125.487 285ZM121.852 282.228H125.312C126.914 282.228 128.246 281.927 129.307 281.324C130.367 280.715 131.161 279.835 131.689 278.686C132.216 277.529 132.479 276.119 132.479 274.455C132.479 272.806 132.216 271.406 131.689 270.256C131.168 269.106 130.391 268.233 129.358 267.638C128.324 267.042 127.041 266.745 125.508 266.745H121.852V282.228ZM143.889 285.349C142.889 285.349 141.986 285.164 141.178 284.795C140.371 284.418 139.731 283.874 139.258 283.162C138.793 282.45 138.56 281.578 138.56 280.544C138.56 279.654 138.731 278.922 139.073 278.347C139.416 277.772 139.878 277.317 140.459 276.981C141.041 276.646 141.692 276.392 142.41 276.221C143.129 276.05 143.861 275.92 144.608 275.831C145.552 275.722 146.319 275.633 146.907 275.564C147.496 275.489 147.924 275.369 148.191 275.205C148.458 275.041 148.591 274.774 148.591 274.404V274.332C148.591 273.435 148.338 272.741 147.831 272.248C147.332 271.755 146.586 271.509 145.593 271.509C144.56 271.509 143.745 271.738 143.15 272.197C142.561 272.648 142.154 273.151 141.928 273.706L139.043 273.049C139.385 272.09 139.885 271.317 140.542 270.728C141.206 270.133 141.969 269.702 142.831 269.435C143.694 269.161 144.601 269.024 145.552 269.024C146.182 269.024 146.849 269.099 147.554 269.25C148.266 269.394 148.93 269.66 149.546 270.051C150.169 270.441 150.679 270.999 151.076 271.724C151.473 272.443 151.672 273.377 151.672 274.527V285H148.673V282.844H148.55C148.352 283.241 148.054 283.631 147.657 284.014C147.26 284.398 146.75 284.716 146.127 284.969C145.504 285.222 144.758 285.349 143.889 285.349ZM144.556 282.885C145.405 282.885 146.131 282.717 146.733 282.382C147.342 282.046 147.804 281.608 148.119 281.068C148.441 280.52 148.602 279.935 148.602 279.312V277.279C148.492 277.388 148.28 277.491 147.965 277.587C147.657 277.676 147.304 277.755 146.907 277.823C146.51 277.885 146.124 277.943 145.747 277.998C145.371 278.046 145.056 278.087 144.803 278.121C144.207 278.196 143.663 278.323 143.17 278.501C142.684 278.679 142.294 278.935 142 279.271C141.712 279.599 141.568 280.037 141.568 280.585C141.568 281.345 141.849 281.92 142.41 282.31C142.972 282.693 143.687 282.885 144.556 282.885ZM163.122 269.229V271.693H154.508V269.229H163.122ZM156.818 265.451H159.888V280.369C159.888 280.965 159.977 281.413 160.155 281.714C160.333 282.009 160.562 282.211 160.843 282.32C161.13 282.423 161.442 282.474 161.777 282.474C162.024 282.474 162.239 282.457 162.424 282.423C162.609 282.389 162.753 282.361 162.855 282.341L163.41 284.877C163.232 284.945 162.978 285.014 162.65 285.082C162.321 285.157 161.911 285.199 161.418 285.205C160.61 285.219 159.857 285.075 159.159 284.774C158.461 284.473 157.896 284.007 157.465 283.378C157.034 282.748 156.818 281.957 156.818 281.006V265.451ZM171.108 285.349C170.108 285.349 169.205 285.164 168.397 284.795C167.589 284.418 166.949 283.874 166.477 283.162C166.012 282.45 165.779 281.578 165.779 280.544C165.779 279.654 165.95 278.922 166.292 278.347C166.635 277.772 167.097 277.317 167.678 276.981C168.26 276.646 168.91 276.392 169.629 276.221C170.348 276.05 171.08 275.92 171.826 275.831C172.771 275.722 173.538 275.633 174.126 275.564C174.715 275.489 175.143 275.369 175.41 275.205C175.677 275.041 175.81 274.774 175.81 274.404V274.332C175.81 273.435 175.557 272.741 175.05 272.248C174.551 271.755 173.805 271.509 172.812 271.509C171.779 271.509 170.964 271.738 170.368 272.197C169.78 272.648 169.373 273.151 169.147 273.706L166.262 273.049C166.604 272.09 167.103 271.317 167.761 270.728C168.425 270.133 169.188 269.702 170.05 269.435C170.913 269.161 171.82 269.024 172.771 269.024C173.401 269.024 174.068 269.099 174.773 269.25C175.485 269.394 176.149 269.66 176.765 270.051C177.388 270.441 177.898 270.999 178.295 271.724C178.692 272.443 178.89 273.377 178.89 274.527V285H175.892V282.844H175.769C175.571 283.241 175.273 283.631 174.876 284.014C174.479 284.398 173.969 284.716 173.346 284.969C172.723 285.222 171.977 285.349 171.108 285.349ZM171.775 282.885C172.624 282.885 173.349 282.717 173.952 282.382C174.561 282.046 175.023 281.608 175.338 281.068C175.66 280.52 175.82 279.935 175.82 279.312V277.279C175.711 277.388 175.499 277.491 175.184 277.587C174.876 277.676 174.523 277.755 174.126 277.823C173.729 277.885 173.343 277.943 172.966 277.998C172.59 278.046 172.275 278.087 172.022 278.121C171.426 278.196 170.882 278.323 170.389 278.501C169.903 278.679 169.513 278.935 169.219 279.271C168.931 279.599 168.787 280.037 168.787 280.585C168.787 281.345 169.068 281.92 169.629 282.31C170.191 282.693 170.906 282.885 171.775 282.885ZM190.631 285V269.229H193.578V271.796H193.773C194.102 270.927 194.639 270.249 195.385 269.763C196.131 269.27 197.024 269.024 198.065 269.024C199.119 269.024 200.002 269.27 200.714 269.763C201.433 270.256 201.963 270.934 202.305 271.796H202.47C202.846 270.954 203.445 270.283 204.266 269.784C205.088 269.277 206.067 269.024 207.203 269.024C208.633 269.024 209.8 269.472 210.704 270.369C211.614 271.266 212.07 272.617 212.07 274.425V285H209V274.712C209 273.644 208.709 272.871 208.127 272.392C207.545 271.912 206.85 271.673 206.043 271.673C205.043 271.673 204.266 271.981 203.712 272.597C203.157 273.206 202.88 273.99 202.88 274.948V285H199.821V274.517C199.821 273.661 199.554 272.973 199.02 272.453C198.486 271.933 197.791 271.673 196.935 271.673C196.354 271.673 195.816 271.827 195.323 272.135C194.837 272.436 194.444 272.857 194.143 273.398C193.848 273.939 193.701 274.565 193.701 275.277V285H190.631ZM222.827 285.318C221.349 285.318 220.058 284.979 218.956 284.302C217.854 283.624 216.999 282.676 216.39 281.458C215.78 280.239 215.476 278.816 215.476 277.186C215.476 275.551 215.78 274.12 216.39 272.895C216.999 271.669 217.854 270.718 218.956 270.04C220.058 269.363 221.349 269.024 222.827 269.024C224.306 269.024 225.596 269.363 226.698 270.04C227.8 270.718 228.656 271.669 229.265 272.895C229.874 274.12 230.179 275.551 230.179 277.186C230.179 278.816 229.874 280.239 229.265 281.458C228.656 282.676 227.8 283.624 226.698 284.302C225.596 284.979 224.306 285.318 222.827 285.318ZM222.838 282.741C223.796 282.741 224.59 282.488 225.22 281.981C225.849 281.475 226.315 280.801 226.616 279.959C226.924 279.117 227.078 278.189 227.078 277.176C227.078 276.17 226.924 275.246 226.616 274.404C226.315 273.555 225.849 272.874 225.22 272.361C224.59 271.847 223.796 271.591 222.838 271.591C221.872 271.591 221.072 271.847 220.435 272.361C219.805 272.874 219.336 273.555 219.028 274.404C218.727 275.246 218.577 276.17 218.577 277.176C218.577 278.189 218.727 279.117 219.028 279.959C219.336 280.801 219.805 281.475 220.435 281.981C221.072 282.488 221.872 282.741 222.838 282.741ZM239.509 285.308C238.236 285.308 237.1 284.983 236.1 284.333C235.108 283.676 234.328 282.741 233.759 281.53C233.198 280.311 232.918 278.85 232.918 277.145C232.918 275.441 233.202 273.983 233.77 272.772C234.345 271.56 235.132 270.632 236.131 269.989C237.131 269.346 238.263 269.024 239.53 269.024C240.509 269.024 241.296 269.188 241.891 269.517C242.494 269.838 242.959 270.215 243.288 270.646C243.623 271.077 243.883 271.457 244.068 271.786H244.253V263.972H247.323V285H244.325V282.546H244.068C243.883 282.881 243.616 283.265 243.267 283.696C242.925 284.127 242.453 284.504 241.85 284.825C241.248 285.147 240.468 285.308 239.509 285.308ZM240.187 282.69C241.07 282.69 241.816 282.457 242.425 281.992C243.041 281.519 243.507 280.866 243.822 280.031C244.143 279.195 244.304 278.224 244.304 277.115C244.304 276.019 244.147 275.061 243.832 274.24C243.517 273.418 243.055 272.778 242.446 272.32C241.837 271.861 241.084 271.632 240.187 271.632C239.263 271.632 238.493 271.871 237.877 272.351C237.261 272.83 236.795 273.483 236.48 274.312C236.172 275.14 236.018 276.074 236.018 277.115C236.018 278.169 236.176 279.117 236.491 279.959C236.805 280.801 237.271 281.468 237.887 281.961C238.51 282.447 239.277 282.69 240.187 282.69ZM258.501 285.318C256.948 285.318 255.609 284.986 254.487 284.322C253.371 283.652 252.509 282.71 251.899 281.499C251.297 280.28 250.996 278.853 250.996 277.217C250.996 275.602 251.297 274.178 251.899 272.946C252.509 271.714 253.357 270.752 254.446 270.061C255.541 269.37 256.821 269.024 258.286 269.024C259.176 269.024 260.038 269.171 260.873 269.465C261.708 269.76 262.458 270.222 263.122 270.852C263.786 271.481 264.309 272.299 264.693 273.305C265.076 274.305 265.268 275.52 265.268 276.95V278.039H252.731V275.739H262.259C262.259 274.931 262.095 274.216 261.766 273.593C261.438 272.963 260.976 272.467 260.38 272.104C259.792 271.741 259.1 271.56 258.306 271.56C257.444 271.56 256.691 271.772 256.047 272.197C255.411 272.614 254.918 273.162 254.569 273.839C254.227 274.51 254.056 275.239 254.056 276.026V277.823C254.056 278.877 254.24 279.774 254.61 280.513C254.987 281.252 255.51 281.817 256.181 282.207C256.852 282.591 257.636 282.782 258.532 282.782C259.114 282.782 259.644 282.7 260.124 282.536C260.603 282.365 261.017 282.111 261.366 281.776C261.715 281.441 261.982 281.027 262.167 280.534L265.073 281.057C264.84 281.913 264.422 282.662 263.82 283.306C263.224 283.942 262.475 284.439 261.571 284.795C260.675 285.144 259.651 285.318 258.501 285.318ZM271.744 263.972V285H268.674V263.972H271.744ZM275.874 285V269.229H278.944V285H275.874ZM277.424 266.796C276.89 266.796 276.432 266.618 276.048 266.262C275.672 265.899 275.484 265.468 275.484 264.968C275.484 264.462 275.672 264.031 276.048 263.675C276.432 263.312 276.89 263.13 277.424 263.13C277.958 263.13 278.413 263.312 278.79 263.675C279.173 264.031 279.365 264.462 279.365 264.968C279.365 265.468 279.173 265.899 278.79 266.262C278.413 266.618 277.958 266.796 277.424 266.796ZM286.144 275.636V285H283.074V269.229H286.021V271.796H286.216C286.578 270.961 287.147 270.29 287.92 269.784C288.7 269.277 289.683 269.024 290.867 269.024C291.942 269.024 292.883 269.25 293.69 269.702C294.498 270.146 295.124 270.81 295.569 271.693C296.014 272.576 296.237 273.668 296.237 274.969V285H293.167V275.338C293.167 274.195 292.869 273.302 292.273 272.659C291.678 272.008 290.86 271.683 289.82 271.683C289.108 271.683 288.475 271.837 287.92 272.145C287.373 272.453 286.938 272.905 286.616 273.5C286.301 274.089 286.144 274.801 286.144 275.636ZM306.966 291.243C305.714 291.243 304.635 291.078 303.732 290.75C302.835 290.421 302.103 289.987 301.535 289.446C300.967 288.905 300.542 288.313 300.262 287.67L302.9 286.581C303.085 286.882 303.331 287.201 303.64 287.536C303.954 287.878 304.379 288.169 304.913 288.409C305.453 288.648 306.148 288.768 306.997 288.768C308.161 288.768 309.122 288.484 309.882 287.916C310.642 287.355 311.022 286.458 311.022 285.226V282.125H310.827C310.642 282.461 310.375 282.834 310.026 283.244C309.684 283.655 309.211 284.011 308.609 284.312C308.007 284.613 307.223 284.764 306.258 284.764C305.012 284.764 303.889 284.473 302.89 283.891C301.897 283.302 301.11 282.437 300.528 281.293C299.954 280.144 299.666 278.73 299.666 277.053C299.666 275.376 299.95 273.939 300.518 272.741C301.093 271.543 301.88 270.626 302.88 269.989C303.879 269.346 305.012 269.024 306.278 269.024C307.257 269.024 308.048 269.188 308.65 269.517C309.252 269.838 309.721 270.215 310.057 270.646C310.399 271.077 310.662 271.457 310.847 271.786H311.073V269.229H314.081V285.349C314.081 286.704 313.767 287.817 313.137 288.686C312.507 289.555 311.655 290.199 310.58 290.616C309.512 291.034 308.308 291.243 306.966 291.243ZM306.935 282.218C307.818 282.218 308.564 282.012 309.174 281.601C309.79 281.184 310.255 280.588 310.57 279.815C310.892 279.035 311.053 278.1 311.053 277.012C311.053 275.951 310.895 275.017 310.58 274.209C310.265 273.401 309.803 272.772 309.194 272.32C308.585 271.861 307.832 271.632 306.935 271.632C306.011 271.632 305.241 271.871 304.625 272.351C304.009 272.823 303.544 273.466 303.229 274.281C302.921 275.095 302.767 276.006 302.767 277.012C302.767 278.046 302.924 278.952 303.239 279.733C303.554 280.513 304.019 281.122 304.635 281.56C305.258 281.998 306.025 282.218 306.935 282.218ZM329.27 285L324.629 269.229H327.801L330.892 280.811H331.046L334.147 269.229H337.319L340.399 280.76H340.553L343.623 269.229H346.796L342.165 285H339.034L335.83 273.613H335.594L332.391 285H329.27ZM349.709 285V269.229H352.779V285H349.709ZM351.26 266.796C350.726 266.796 350.267 266.618 349.884 266.262C349.507 265.899 349.319 265.468 349.319 264.968C349.319 264.462 349.507 264.031 349.884 263.675C350.267 263.312 350.726 263.13 351.26 263.13C351.794 263.13 352.249 263.312 352.625 263.675C353.009 264.031 353.2 264.462 353.2 264.968C353.2 265.468 353.009 265.899 352.625 266.262C352.249 266.618 351.794 266.796 351.26 266.796ZM364.271 269.229V271.693H355.657V269.229H364.271ZM357.967 265.451H361.037V280.369C361.037 280.965 361.126 281.413 361.304 281.714C361.482 282.009 361.711 282.211 361.992 282.32C362.279 282.423 362.591 282.474 362.926 282.474C363.173 282.474 363.388 282.457 363.573 282.423C363.758 282.389 363.902 282.361 364.004 282.341L364.559 284.877C364.381 284.945 364.127 285.014 363.799 285.082C363.47 285.157 363.06 285.199 362.567 285.205C361.759 285.219 361.006 285.075 360.308 284.774C359.61 284.473 359.045 284.007 358.614 283.378C358.183 282.748 357.967 281.957 357.967 281.006V265.451ZM371.076 275.636V285H368.006V263.972H371.035V271.796H371.23C371.6 270.947 372.164 270.273 372.924 269.773C373.684 269.274 374.676 269.024 375.902 269.024C376.983 269.024 377.928 269.246 378.735 269.691C379.55 270.136 380.18 270.8 380.625 271.683C381.076 272.559 381.302 273.655 381.302 274.969V285H378.232V275.338C378.232 274.182 377.935 273.285 377.339 272.648C376.744 272.005 375.915 271.683 374.854 271.683C374.129 271.683 373.478 271.837 372.904 272.145C372.335 272.453 371.887 272.905 371.558 273.5C371.237 274.089 371.076 274.801 371.076 275.636ZM393.297 285V263.972H400.792C402.428 263.972 403.784 264.27 404.858 264.866C405.933 265.461 406.737 266.276 407.271 267.309C407.805 268.336 408.072 269.493 408.072 270.78C408.072 272.073 407.802 273.237 407.261 274.271C406.727 275.297 405.919 276.112 404.838 276.714C403.763 277.31 402.411 277.607 400.782 277.607H395.628V274.917H400.495C401.528 274.917 402.367 274.739 403.01 274.383C403.654 274.021 404.126 273.528 404.427 272.905C404.728 272.282 404.879 271.574 404.879 270.78C404.879 269.986 404.728 269.281 404.427 268.665C404.126 268.048 403.65 267.566 403 267.217C402.356 266.868 401.508 266.693 400.454 266.693H396.47V285H393.297ZM411.545 285V269.229H414.512V271.734H414.676C414.964 270.886 415.47 270.218 416.196 269.732C416.928 269.24 417.757 268.993 418.681 268.993C418.872 268.993 419.098 269 419.358 269.014C419.625 269.027 419.834 269.044 419.985 269.065V272.001C419.862 271.967 419.642 271.93 419.328 271.889C419.013 271.841 418.698 271.817 418.383 271.817C417.657 271.817 417.011 271.971 416.442 272.279C415.881 272.58 415.436 273.001 415.108 273.542C414.779 274.075 414.615 274.685 414.615 275.369V285H411.545ZM422.641 285V269.229H425.711V285H422.641ZM424.192 266.796C423.658 266.796 423.199 266.618 422.816 266.262C422.44 265.899 422.251 265.468 422.251 264.968C422.251 264.462 422.44 264.031 422.816 263.675C423.199 263.312 423.658 263.13 424.192 263.13C424.726 263.13 425.181 263.312 425.557 263.675C425.941 264.031 426.132 264.462 426.132 264.968C426.132 265.468 425.941 265.899 425.557 266.262C425.181 266.618 424.726 266.796 424.192 266.796ZM441.659 273.08L438.877 273.572C438.76 273.216 438.576 272.878 438.322 272.556C438.076 272.234 437.741 271.971 437.316 271.765C436.892 271.56 436.361 271.457 435.725 271.457C434.855 271.457 434.13 271.652 433.548 272.043C432.966 272.426 432.675 272.922 432.675 273.531C432.675 274.058 432.87 274.483 433.261 274.804C433.651 275.126 434.28 275.39 435.15 275.595L437.655 276.17C439.106 276.505 440.188 277.022 440.899 277.72C441.611 278.419 441.967 279.326 441.967 280.441C441.967 281.386 441.693 282.228 441.146 282.967C440.605 283.699 439.849 284.274 438.877 284.692C437.912 285.11 436.793 285.318 435.519 285.318C433.753 285.318 432.312 284.942 431.197 284.189C430.081 283.429 429.397 282.351 429.143 280.955L432.111 280.503C432.295 281.276 432.675 281.862 433.25 282.259C433.825 282.649 434.575 282.844 435.499 282.844C436.505 282.844 437.309 282.635 437.912 282.218C438.514 281.793 438.815 281.276 438.815 280.667C438.815 280.174 438.63 279.76 438.261 279.425C437.898 279.089 437.34 278.836 436.587 278.665L433.918 278.08C432.446 277.744 431.358 277.21 430.653 276.478C429.954 275.746 429.605 274.818 429.605 273.696C429.605 272.765 429.865 271.95 430.386 271.252C430.906 270.554 431.625 270.01 432.542 269.619C433.459 269.222 434.51 269.024 435.694 269.024C437.398 269.024 438.74 269.394 439.719 270.133C440.698 270.865 441.344 271.847 441.659 273.08ZM445.343 285V269.229H448.289V271.796H448.485C448.813 270.927 449.35 270.249 450.096 269.763C450.843 269.27 451.736 269.024 452.776 269.024C453.83 269.024 454.713 269.27 455.425 269.763C456.144 270.256 456.674 270.934 457.017 271.796H457.181C457.557 270.954 458.156 270.283 458.978 269.784C459.799 269.277 460.778 269.024 461.914 269.024C463.345 269.024 464.512 269.472 465.415 270.369C466.326 271.266 466.781 272.617 466.781 274.425V285H463.711V274.712C463.711 273.644 463.42 272.871 462.838 272.392C462.257 271.912 461.562 271.673 460.754 271.673C459.755 271.673 458.978 271.981 458.423 272.597C457.869 273.206 457.592 273.99 457.592 274.948V285H454.532V274.517C454.532 273.661 454.265 272.973 453.731 272.453C453.197 271.933 452.502 271.673 451.647 271.673C451.065 271.673 450.528 271.827 450.035 272.135C449.549 272.436 449.155 272.857 448.854 273.398C448.56 273.939 448.413 274.565 448.413 275.277V285H445.343ZM475.485 285.349C474.486 285.349 473.582 285.164 472.775 284.795C471.967 284.418 471.327 283.874 470.855 283.162C470.389 282.45 470.156 281.578 470.156 280.544C470.156 279.654 470.328 278.922 470.67 278.347C471.012 277.772 471.474 277.317 472.056 276.981C472.638 276.646 473.288 276.392 474.007 276.221C474.725 276.05 475.458 275.92 476.204 275.831C477.149 275.722 477.915 275.633 478.504 275.564C479.093 275.489 479.52 275.369 479.787 275.205C480.054 275.041 480.188 274.774 480.188 274.404V274.332C480.188 273.435 479.934 272.741 479.428 272.248C478.928 271.755 478.182 271.509 477.19 271.509C476.156 271.509 475.342 271.738 474.746 272.197C474.157 272.648 473.75 273.151 473.524 273.706L470.639 273.049C470.981 272.09 471.481 271.317 472.138 270.728C472.802 270.133 473.565 269.702 474.428 269.435C475.29 269.161 476.197 269.024 477.149 269.024C477.778 269.024 478.446 269.099 479.151 269.25C479.863 269.394 480.527 269.66 481.143 270.051C481.765 270.441 482.275 270.999 482.672 271.724C483.069 272.443 483.268 273.377 483.268 274.527V285H480.27V282.844H480.147C479.948 283.241 479.65 283.631 479.253 284.014C478.856 284.398 478.346 284.716 477.724 284.969C477.101 285.222 476.355 285.349 475.485 285.349ZM476.153 282.885C477.001 282.885 477.727 282.717 478.329 282.382C478.939 282.046 479.401 281.608 479.715 281.068C480.037 280.52 480.198 279.935 480.198 279.312V277.279C480.088 277.388 479.876 277.491 479.561 277.587C479.253 277.676 478.901 277.755 478.504 277.823C478.107 277.885 477.72 277.943 477.344 277.998C476.967 278.046 476.652 278.087 476.399 278.121C475.804 278.196 475.259 278.323 474.767 278.501C474.281 278.679 473.89 278.935 473.596 279.271C473.309 279.599 473.165 280.037 473.165 280.585C473.165 281.345 473.445 281.92 474.007 282.31C474.568 282.693 475.283 282.885 476.153 282.885Z"></path>
<rect fill="url(#paint0_linear_7076_2773)" transform="matrix(-1 0 0 1 806.788 -48.9559)" height="262.622" width="327.222"></rect>
<path fill="url(#paint1_linear_7076_2773)" d="M874.555 -65L1269.54 163L874.555 391L479.566 163L677.06 49L874.555 -65Z"></path>
<circle stroke-width="11.9991" stroke="#CBD5E0" fill="#727DDE" transform="matrix(-1 0 0 1 682.654 130.889)" r="10.8893"></circle>
<path stroke-width="11.9991" stroke="#CBD5E0" d="M683 144L683 277.982C683 341.505 734.495 393 798.018 393V393L876 393"></path>
<rect fill="url(#paint2_linear_7076_2773)" height="80" width="74" y="174" x="774"></rect>
<ellipse fill="url(#paint3_linear_7076_2773)" ry="45.9136" rx="45.5" cy="258.914" cx="819.5"></ellipse>
<path stroke-width="8.03858" stroke="white" d="M796.336 259.745L810.814 275.05L833.15 242.786"></path>
<circle stroke-width="11.7383" stroke="#5A67D8" fill="#77D99C" transform="matrix(-1 0 0 1 530.522 131.522)" r="10.6526"></circle>
<circle stroke-width="11.7383" stroke="#5A67D8" fill="#77D99C" transform="matrix(-1 0 0 1 704.522 341.522)" r="10.6526"></circle>
<path stroke-width="1.65217" stroke="#68D391" d="M139.5 81.4823H384.022C389.725 81.4823 394.348 86.1055 394.348 91.8084V130.635C394.348 136.337 389.725 140.961 384.022 140.961H139.5V81.4823Z"></path>
<path fill="white" d="M169.391 121.347C168.14 121.347 167.028 121.104 166.056 120.618C165.1 120.114 164.353 119.41 163.815 118.507C163.293 117.586 163.033 116.535 163.033 115.354V108.605C163.033 107.424 163.293 106.39 163.815 105.504C164.353 104.601 165.1 103.906 166.056 103.419C167.028 102.915 168.14 102.664 169.391 102.664C170.642 102.664 171.745 102.907 172.7 103.393C173.656 103.862 174.394 104.531 174.915 105.4C175.454 106.268 175.723 107.276 175.723 108.422V108.449C175.723 108.535 175.697 108.605 175.645 108.657C175.593 108.709 175.532 108.735 175.463 108.735L173.482 108.839C173.309 108.839 173.222 108.761 173.222 108.605V108.527C173.222 107.415 172.874 106.52 172.179 105.843C171.484 105.165 170.555 104.826 169.391 104.826C168.227 104.826 167.289 105.165 166.577 105.843C165.882 106.52 165.534 107.415 165.534 108.527V115.458C165.534 116.57 165.882 117.465 166.577 118.142C167.289 118.82 168.227 119.158 169.391 119.158C170.555 119.158 171.484 118.82 172.179 118.142C172.874 117.465 173.222 116.57 173.222 115.458V115.406C173.222 115.25 173.309 115.172 173.482 115.172L175.463 115.276C175.636 115.276 175.723 115.363 175.723 115.536C175.723 116.683 175.454 117.699 174.915 118.585C174.394 119.454 173.656 120.131 172.7 120.618C171.745 121.104 170.642 121.347 169.391 121.347ZM185.298 121.347C184.029 121.347 182.909 121.087 181.936 120.566C180.963 120.044 180.208 119.315 179.669 118.377C179.13 117.421 178.861 116.327 178.861 115.093V108.892C178.861 107.658 179.13 106.572 179.669 105.634C180.208 104.696 180.963 103.967 181.936 103.445C182.909 102.924 184.029 102.664 185.298 102.664C186.583 102.664 187.712 102.924 188.685 103.445C189.658 103.967 190.414 104.696 190.952 105.634C191.491 106.572 191.76 107.658 191.76 108.892V115.093C191.76 116.327 191.491 117.421 190.952 118.377C190.414 119.315 189.658 120.044 188.685 120.566C187.712 121.087 186.583 121.347 185.298 121.347ZM185.298 119.184C186.479 119.184 187.434 118.82 188.164 118.09C188.894 117.36 189.258 116.396 189.258 115.198V108.865C189.258 107.649 188.894 106.677 188.164 105.947C187.434 105.2 186.479 104.826 185.298 104.826C184.116 104.826 183.161 105.2 182.431 105.947C181.719 106.677 181.363 107.649 181.363 108.865V115.198C181.363 116.396 181.719 117.36 182.431 118.09C183.161 118.82 184.116 119.184 185.298 119.184ZM201.794 121.321C200.526 121.321 199.406 121.078 198.433 120.592C197.477 120.088 196.73 119.384 196.192 118.481C195.653 117.56 195.384 116.509 195.384 115.328V103.133C195.384 102.959 195.471 102.872 195.645 102.872H197.625C197.799 102.872 197.886 102.959 197.886 103.133V115.38C197.886 116.509 198.242 117.421 198.954 118.116C199.684 118.811 200.63 119.158 201.794 119.158C202.958 119.158 203.896 118.811 204.609 118.116C205.321 117.421 205.677 116.509 205.677 115.38V103.133C205.677 102.959 205.764 102.872 205.937 102.872H207.918C208.092 102.872 208.179 102.959 208.179 103.133V115.328C208.179 116.509 207.909 117.56 207.371 118.481C206.85 119.384 206.103 120.088 205.13 120.592C204.174 121.078 203.062 121.321 201.794 121.321ZM222.657 121.113C222.518 121.113 222.423 121.052 222.37 120.93L218.722 113.139C218.705 113.087 218.67 113.061 218.618 113.061H214.866C214.796 113.061 214.761 113.096 214.761 113.165V120.852C214.761 121.026 214.675 121.113 214.501 121.113H212.52C212.347 121.113 212.26 121.026 212.26 120.852V103.133C212.26 102.959 212.347 102.872 212.52 102.872H219.53C220.572 102.872 221.484 103.089 222.266 103.524C223.065 103.958 223.682 104.566 224.116 105.348C224.551 106.129 224.768 107.033 224.768 108.058C224.768 109.274 224.446 110.307 223.804 111.159C223.178 111.992 222.301 112.557 221.172 112.852C221.102 112.887 221.085 112.931 221.12 112.983L224.898 120.8C224.915 120.835 224.924 120.878 224.924 120.93C224.924 121.052 224.855 121.113 224.716 121.113H222.657ZM214.866 105.035C214.796 105.035 214.761 105.07 214.761 105.139V110.976C214.761 111.046 214.796 111.08 214.866 111.08H219.217C220.138 111.08 220.876 110.811 221.432 110.273C221.988 109.717 222.266 108.987 222.266 108.084C222.266 107.163 221.988 106.425 221.432 105.869C220.876 105.313 220.138 105.035 219.217 105.035H214.866ZM233.869 121.321C232.532 121.321 231.368 121.113 230.378 120.696C229.405 120.279 228.649 119.688 228.111 118.924C227.589 118.16 227.329 117.265 227.329 116.24V115.484C227.329 115.311 227.416 115.224 227.589 115.224H229.492C229.665 115.224 229.752 115.311 229.752 115.484V116.11C229.752 116.996 230.134 117.725 230.899 118.299C231.663 118.872 232.714 119.158 234.052 119.158C235.251 119.158 236.154 118.907 236.762 118.403C237.37 117.899 237.674 117.239 237.674 116.422C237.674 115.884 237.518 115.423 237.205 115.041C236.892 114.659 236.432 114.312 235.824 113.999C235.233 113.669 234.365 113.278 233.218 112.826C231.95 112.34 230.942 111.897 230.195 111.497C229.466 111.098 228.858 110.577 228.371 109.934C227.885 109.274 227.642 108.449 227.642 107.458C227.642 105.964 228.171 104.792 229.231 103.94C230.308 103.089 231.759 102.664 233.583 102.664C234.868 102.664 235.998 102.881 236.97 103.315C237.943 103.749 238.69 104.357 239.211 105.139C239.75 105.921 240.019 106.824 240.019 107.849V108.37C240.019 108.544 239.932 108.631 239.759 108.631H237.804C237.63 108.631 237.544 108.544 237.544 108.37V107.979C237.544 107.076 237.179 106.329 236.449 105.738C235.737 105.13 234.747 104.826 233.479 104.826C232.401 104.826 231.568 105.052 230.977 105.504C230.386 105.938 230.091 106.572 230.091 107.406C230.091 107.979 230.239 108.449 230.534 108.813C230.829 109.178 231.264 109.508 231.837 109.804C232.428 110.081 233.322 110.446 234.521 110.898C235.754 111.384 236.753 111.836 237.518 112.253C238.282 112.653 238.916 113.191 239.42 113.869C239.924 114.529 240.176 115.354 240.176 116.344C240.176 117.873 239.611 119.089 238.482 119.992C237.37 120.878 235.832 121.321 233.869 121.321ZM255.677 104.774C255.677 104.948 255.59 105.035 255.417 105.035H246.166C246.097 105.035 246.062 105.07 246.062 105.139V110.742C246.062 110.811 246.097 110.846 246.166 110.846H252.524C252.698 110.846 252.785 110.933 252.785 111.106V112.748C252.785 112.922 252.698 113.009 252.524 113.009H246.166C246.097 113.009 246.062 113.043 246.062 113.113V118.846C246.062 118.915 246.097 118.95 246.166 118.95H255.417C255.59 118.95 255.677 119.037 255.677 119.211V120.852C255.677 121.026 255.59 121.113 255.417 121.113H243.821C243.647 121.113 243.56 121.026 243.56 120.852V103.133C243.56 102.959 243.647 102.872 243.821 102.872H255.417C255.59 102.872 255.677 102.959 255.677 103.133V104.774ZM276.707 102.846C277.767 102.846 278.697 103.072 279.496 103.524C280.312 103.958 280.938 104.575 281.372 105.374C281.824 106.173 282.049 107.093 282.049 108.136C282.049 109.178 281.824 110.09 281.372 110.872C280.92 111.654 280.277 112.262 279.444 112.696C278.627 113.13 277.68 113.347 276.603 113.347H272.017C271.947 113.347 271.913 113.382 271.913 113.452V120.852C271.913 121.026 271.826 121.113 271.652 121.113H269.672C269.498 121.113 269.411 121.026 269.411 120.852V103.107C269.411 102.933 269.498 102.846 269.672 102.846H276.707ZM276.369 111.315C277.324 111.315 278.089 111.028 278.662 110.455C279.252 109.882 279.548 109.126 279.548 108.188C279.548 107.232 279.252 106.468 278.662 105.895C278.089 105.304 277.324 105.009 276.369 105.009H272.017C271.947 105.009 271.913 105.044 271.913 105.113V111.211C271.913 111.28 271.947 111.315 272.017 111.315H276.369ZM295.173 121.113C295.016 121.113 294.912 121.043 294.86 120.904L293.922 117.856C293.905 117.803 293.87 117.777 293.818 117.777H286.495C286.443 117.777 286.408 117.803 286.391 117.856L285.453 120.904C285.401 121.043 285.297 121.113 285.14 121.113H283.03C282.839 121.113 282.769 121.017 282.821 120.826L288.528 103.081C288.58 102.942 288.684 102.872 288.841 102.872H291.446C291.603 102.872 291.707 102.942 291.759 103.081L297.518 120.826L297.544 120.93C297.544 121.052 297.466 121.113 297.309 121.113H295.173ZM287.043 115.667C287.025 115.701 287.025 115.736 287.043 115.771C287.077 115.788 287.112 115.797 287.147 115.797H293.14C293.175 115.797 293.201 115.788 293.218 115.771C293.253 115.736 293.262 115.701 293.244 115.667L290.222 105.999C290.204 105.964 290.178 105.947 290.143 105.947C290.109 105.947 290.083 105.964 290.065 105.999L287.043 115.667ZM310.909 121.113C310.77 121.113 310.674 121.052 310.622 120.93L306.974 113.139C306.957 113.087 306.922 113.061 306.87 113.061H303.117C303.048 113.061 303.013 113.096 303.013 113.165V120.852C303.013 121.026 302.926 121.113 302.753 121.113H300.772C300.598 121.113 300.512 121.026 300.512 120.852V103.133C300.512 102.959 300.598 102.872 300.772 102.872H307.782C308.824 102.872 309.736 103.089 310.518 103.524C311.317 103.958 311.934 104.566 312.368 105.348C312.802 106.129 313.02 107.033 313.02 108.058C313.02 109.274 312.698 110.307 312.055 111.159C311.43 111.992 310.553 112.557 309.424 112.852C309.354 112.887 309.337 112.931 309.371 112.983L313.15 120.8C313.167 120.835 313.176 120.878 313.176 120.93C313.176 121.052 313.106 121.113 312.967 121.113H310.909ZM303.117 105.035C303.048 105.035 303.013 105.07 303.013 105.139V110.976C303.013 111.046 303.048 111.08 303.117 111.08H307.469C308.39 111.08 309.128 110.811 309.684 110.273C310.24 109.717 310.518 108.987 310.518 108.084C310.518 107.163 310.24 106.425 309.684 105.869C309.128 105.313 308.39 105.035 307.469 105.035H303.117ZM328.063 102.872C328.237 102.872 328.324 102.959 328.324 103.133V104.8C328.324 104.974 328.237 105.061 328.063 105.061H323.06C322.99 105.061 322.956 105.096 322.956 105.165V120.852C322.956 121.026 322.869 121.113 322.695 121.113H320.715C320.541 121.113 320.454 121.026 320.454 120.852V105.165C320.454 105.096 320.419 105.061 320.35 105.061H315.581C315.407 105.061 315.321 104.974 315.321 104.8V103.133C315.321 102.959 315.407 102.872 315.581 102.872H328.063ZM339.175 118.82C339.157 118.854 339.157 118.889 339.175 118.924C339.192 118.941 339.218 118.95 339.253 118.95H347.096C347.27 118.95 347.357 119.037 347.357 119.211V120.852C347.357 121.026 347.27 121.113 347.096 121.113H336.178C336.004 121.113 335.917 121.026 335.917 120.852V119.263C335.917 119.141 335.961 119.037 336.048 118.95C336.638 118.272 337.993 116.683 340.113 114.181L341.911 112.018C343.526 110.09 344.334 108.596 344.334 107.536C344.334 106.72 344.056 106.069 343.5 105.582C342.962 105.078 342.241 104.826 341.337 104.826C340.434 104.826 339.713 105.078 339.175 105.582C338.636 106.086 338.376 106.746 338.393 107.563V108.344C338.393 108.518 338.306 108.605 338.132 108.605H336.126C335.952 108.605 335.865 108.518 335.865 108.344V107.224C335.9 106.32 336.152 105.521 336.621 104.826C337.107 104.132 337.759 103.602 338.575 103.237C339.392 102.855 340.312 102.664 341.337 102.664C342.449 102.664 343.422 102.872 344.256 103.289C345.09 103.706 345.733 104.279 346.184 105.009C346.636 105.738 346.862 106.564 346.862 107.484C346.862 108.926 346.08 110.629 344.517 112.592C343.822 113.478 342.996 114.477 342.041 115.588C341.086 116.683 340.13 117.76 339.175 118.82ZM349.649 121.113C349.457 121.113 349.388 121.017 349.44 120.826L355.564 103.081C355.616 102.942 355.72 102.872 355.876 102.872H357.831C358.022 102.872 358.091 102.968 358.039 103.159L351.916 120.904C351.864 121.043 351.759 121.113 351.603 121.113H349.649ZM372.913 113.973C373.087 113.973 373.173 114.06 373.173 114.233V115.953C373.173 116.127 373.087 116.214 372.913 116.214H371.792C371.723 116.214 371.688 116.249 371.688 116.318V120.852C371.688 121.026 371.601 121.113 371.428 121.113H369.447C369.273 121.113 369.187 121.026 369.187 120.852V116.318C369.187 116.249 369.152 116.214 369.082 116.214H361.161C360.987 116.214 360.9 116.127 360.9 115.953V114.546C360.9 114.459 360.926 114.355 360.978 114.233L366.112 103.054C366.164 102.933 366.259 102.872 366.398 102.872H368.483C368.57 102.872 368.631 102.907 368.665 102.976C368.717 103.028 368.726 103.098 368.691 103.185L363.792 113.843C363.775 113.877 363.775 113.912 363.792 113.947C363.81 113.964 363.836 113.973 363.871 113.973H369.082C369.152 113.973 369.187 113.938 369.187 113.869V109.986C369.187 109.812 369.273 109.725 369.447 109.725H371.428C371.601 109.725 371.688 109.812 371.688 109.986V113.869C371.688 113.938 371.723 113.973 371.792 113.973H372.913Z"></path>
<path fill="#77D99C" d="M81.6738 91.8084C81.6738 85.6492 86.6668 80.6562 92.826 80.6562H142.804V141.787H92.826C86.6668 141.787 81.6738 136.794 81.6738 130.635V91.8084Z"></path>
<path fill="#434299" d="M97.0134 116.488C96.6263 117.118 96.6323 117.913 97.0289 118.537L104.206 129.838C104.671 130.571 105.569 130.905 106.403 130.656L127.113 124.454C128.243 124.116 128.812 122.857 128.318 121.788L115.004 92.9603C114.355 91.5544 112.398 91.439 111.587 92.7588L97.0134 116.488ZM114.65 99.5505C114.367 98.8969 113.409 98.9976 113.269 99.6956L108.143 125.17C108.035 125.708 108.539 126.166 109.065 126.01L123.374 121.746C123.792 121.622 124.007 121.161 123.834 120.762L114.65 99.5505Z" clip-rule="evenodd" fill-rule="evenodd"></path>
<path fill="white" d="M249.756 377.898C249.391 378.493 249.396 379.244 249.771 379.833L256.547 390.502C256.987 391.195 257.834 391.511 258.621 391.275L278.175 385.42C279.242 385.1 279.779 383.912 279.313 382.902L266.742 355.684C266.129 354.357 264.281 354.248 263.516 355.494L249.756 377.898ZM266.408 361.907C266.141 361.289 265.237 361.385 265.104 362.044L260.264 386.096C260.162 386.603 260.638 387.036 261.135 386.888L274.645 382.863C275.039 382.745 275.242 382.31 275.079 381.933L266.408 361.907Z" clip-rule="evenodd" fill-rule="evenodd"></path>
<path fill="white" d="M291.197 372.93H292.388C293.501 372.93 294.334 372.71 294.887 372.271C295.439 371.832 295.716 371.193 295.716 370.354C295.716 369.508 295.484 368.882 295.021 368.478C294.558 368.074 293.832 367.872 292.843 367.872H291.197V372.93ZM299.371 370.22C299.371 372.053 298.797 373.455 297.648 374.426C296.501 375.398 294.868 375.883 292.751 375.883H291.198V381.943H287.579V364.906H293.031C295.102 364.906 296.676 365.351 297.754 366.24C298.832 367.13 299.371 368.456 299.371 370.22Z" clip-rule="evenodd" fill-rule="evenodd"></path>
<path fill="white" d="M308.968 368.666C309.451 368.666 309.851 368.701 310.17 368.771L309.902 372.103C309.614 372.026 309.264 371.987 308.851 371.987C307.715 371.987 306.83 372.278 306.195 372.861C305.561 373.443 305.244 374.259 305.244 375.308V381.939H301.683V368.911H304.38L304.905 371.101H305.08C305.485 370.371 306.031 369.782 306.721 369.336C307.409 368.889 308.158 368.666 308.968 368.666" clip-rule="evenodd" fill-rule="evenodd"></path>
<path fill="white" d="M312.046 381.937H315.607V368.909H312.046V381.937ZM311.897 365.544C311.897 364.387 312.543 363.808 313.835 363.808C315.127 363.808 315.773 364.387 315.773 365.544C315.773 366.096 315.612 366.525 315.289 366.832C314.966 367.139 314.481 367.292 313.835 367.292C312.543 367.292 311.897 366.71 311.897 365.544Z" clip-rule="evenodd" fill-rule="evenodd"></path>
<path fill="white" d="M328.159 378.07C328.159 379.406 327.694 380.424 326.763 381.123C325.833 381.822 324.442 382.172 322.59 382.172C321.64 382.172 320.831 382.108 320.162 381.979C319.492 381.851 318.866 381.663 318.282 381.414V378.478C318.943 378.789 319.688 379.049 320.518 379.259C321.346 379.468 322.076 379.573 322.706 379.573C323.998 379.573 324.645 379.2 324.645 378.455C324.645 378.175 324.559 377.948 324.388 377.773C324.217 377.598 323.921 377.4 323.5 377.178C323.08 376.957 322.52 376.699 321.819 376.403C320.815 375.984 320.078 375.596 319.607 375.238C319.136 374.881 318.793 374.471 318.58 374.008C318.366 373.546 318.258 372.977 318.258 372.301C318.258 371.144 318.708 370.249 319.607 369.615C320.506 368.982 321.78 368.666 323.43 368.666C325.003 368.666 326.532 369.008 328.019 369.691L326.945 372.255C326.291 371.975 325.68 371.746 325.111 371.567C324.543 371.389 323.963 371.299 323.372 371.299C322.321 371.299 321.796 371.583 321.796 372.15C321.796 372.469 321.966 372.744 322.304 372.977C322.643 373.21 323.384 373.556 324.528 374.015C325.548 374.427 326.295 374.811 326.77 375.168C327.244 375.526 327.594 375.937 327.82 376.403C328.046 376.869 328.159 377.425 328.159 378.07" clip-rule="evenodd" fill-rule="evenodd"></path>
<path fill="white" d="M342.26 381.939H338.699V374.329C338.699 373.39 338.541 372.684 338.226 372.214C337.911 371.744 337.415 371.509 336.737 371.509C335.827 371.509 335.166 371.843 334.753 372.511C334.34 373.18 334.134 374.279 334.134 375.81V381.939H330.573V368.911H333.294L333.772 370.577H333.971C334.321 369.979 334.827 369.51 335.488 369.173C336.15 368.835 336.909 368.666 337.765 368.666C339.719 368.666 341.042 369.303 341.735 370.577H342.05C342.4 369.971 342.916 369.501 343.597 369.167C344.278 368.833 345.046 368.666 345.902 368.666C347.381 368.666 348.5 369.045 349.259 369.802C350.018 370.559 350.397 371.773 350.397 373.443V381.939H346.825V374.329C346.825 373.39 346.667 372.684 346.352 372.214C346.036 371.744 345.54 371.509 344.863 371.509C343.992 371.509 343.34 371.82 342.907 372.442C342.476 373.063 342.26 374.05 342.26 375.401V381.939Z" clip-rule="evenodd" fill-rule="evenodd"></path>
<path fill="white" d="M360.761 375.9L359.383 375.946C358.348 375.978 357.577 376.164 357.071 376.506C356.565 376.848 356.312 377.368 356.312 378.068C356.312 379.07 356.888 379.571 358.04 379.571C358.865 379.571 359.525 379.334 360.019 378.86C360.513 378.386 360.761 377.757 360.761 376.972V375.9ZM361.81 381.936L361.121 380.164H361.027C360.428 380.918 359.811 381.44 359.177 381.732C358.543 382.023 357.716 382.169 356.696 382.169C355.443 382.169 354.456 381.812 353.736 381.097C353.016 380.382 352.657 379.364 352.657 378.044C352.657 376.661 353.141 375.641 354.11 374.985C355.079 374.328 356.54 373.965 358.494 373.895L360.759 373.825V373.254C360.759 371.933 360.081 371.273 358.727 371.273C357.684 371.273 356.458 371.587 355.05 372.217L353.871 369.816C355.373 369.032 357.039 368.639 358.867 368.639C360.619 368.639 361.961 369.02 362.895 369.781C363.829 370.543 364.296 371.7 364.296 373.254V381.936H361.81Z" clip-rule="evenodd" fill-rule="evenodd"></path>
<path fill="white" d="M132.495 367.846C131.865 367.846 131.291 367.93 130.772 368.097C130.269 368.251 129.828 368.51 129.449 368.874C129.084 369.224 128.79 369.678 128.566 370.238C128.356 370.797 128.237 371.464 128.209 372.24C128.165 373.498 128.165 374.756 128.209 376.015C128.237 376.797 128.356 377.465 128.566 378.017C128.79 378.575 129.084 379.037 129.449 379.401C129.826 379.751 130.267 380.01 130.772 380.179C131.291 380.332 131.865 380.409 132.495 380.409C133.113 380.409 133.687 380.326 134.217 380.158C134.747 379.976 135.202 379.712 135.583 379.365C135.976 379.001 136.285 378.54 136.51 377.98C136.734 377.421 136.846 376.764 136.846 376.009V374.94H133.186C132.878 374.94 132.723 374.783 132.723 374.469V374.174C132.723 373.86 132.878 373.703 133.186 373.703H137.68C137.995 373.703 138.152 373.86 138.152 374.174V376.019C138.152 376.859 138.027 377.629 137.775 378.327C137.523 379.013 137.152 379.608 136.661 380.113C136.185 380.615 135.589 381.006 134.873 381.287C134.165 381.552 133.367 381.685 132.478 381.685C131.567 381.685 130.769 381.552 130.083 381.287C129.397 381.007 128.815 380.622 128.34 380.133C127.877 379.644 127.52 379.063 127.268 378.392C127.03 377.707 126.897 376.952 126.87 376.127C126.841 375.499 126.827 374.834 126.827 374.134C126.827 373.428 126.841 372.764 126.87 372.142C126.898 371.318 127.038 370.569 127.29 369.897C127.541 369.212 127.898 368.625 128.361 368.136C128.837 367.647 129.418 367.269 130.104 367.003C130.791 366.724 131.582 366.584 132.478 366.584C133.445 366.584 134.272 366.731 134.958 367.024C135.644 367.318 136.205 367.671 136.639 368.084C137.073 368.49 137.395 368.917 137.606 369.364C137.816 369.812 137.928 370.182 137.942 370.476C137.957 370.601 137.921 370.706 137.836 370.79C137.752 370.861 137.64 370.896 137.5 370.896H137.038C136.912 370.896 136.82 370.869 136.764 370.814C136.709 370.743 136.653 370.631 136.596 370.478C136.485 370.164 136.327 369.85 136.124 369.536C135.928 369.222 135.663 368.943 135.329 368.698C134.994 368.446 134.594 368.243 134.132 368.089C133.669 367.935 133.123 367.858 132.492 367.858L132.495 367.846ZM142.413 372.018C142.917 371.053 143.869 370.57 145.271 370.57H146.049C146.358 370.57 146.512 370.724 146.512 371.031V371.326C146.512 371.634 146.358 371.787 146.049 371.787H145.146C144.304 371.787 143.639 372.032 143.15 372.521C142.66 373.01 142.415 373.674 142.415 374.513V381.013C142.415 381.153 142.365 381.265 142.267 381.349C142.183 381.433 142.071 381.475 141.931 381.475H141.595C141.286 381.475 141.132 381.321 141.132 381.013V371.051C141.132 370.912 141.174 370.8 141.259 370.716C141.343 370.618 141.455 370.569 141.595 370.569H141.931C142.071 370.569 142.183 370.618 142.267 370.716C142.365 370.8 142.415 370.912 142.415 371.051V372.017L142.413 372.018ZM155.39 381.481C155.082 381.481 154.928 381.327 154.928 381.019V380.034C154.802 380.23 154.634 380.426 154.424 380.622C154.227 380.819 153.982 380.993 153.689 381.146C153.395 381.3 153.041 381.426 152.627 381.523C152.221 381.635 151.745 381.69 151.2 381.69C150.697 381.69 150.213 381.614 149.749 381.46C149.301 381.292 148.901 381.069 148.551 380.788C148.216 380.509 147.943 380.18 147.733 379.803C147.536 379.426 147.438 379.014 147.438 378.566C147.438 378.092 147.536 377.665 147.733 377.286C147.943 376.91 148.23 376.581 148.594 376.301C148.958 376.007 149.392 375.77 149.896 375.588C150.415 375.392 150.983 375.252 151.599 375.169L154.918 374.708V373.974C154.918 373.219 154.687 372.632 154.225 372.213C153.776 371.793 153.055 371.584 152.061 371.584C151.277 371.584 150.667 371.738 150.233 372.045C149.813 372.339 149.548 372.661 149.437 373.011C149.382 373.178 149.312 373.297 149.227 373.368C149.157 373.423 149.058 373.45 148.933 373.45H148.638C148.512 373.45 148.4 373.408 148.301 373.324C148.217 373.226 148.175 373.114 148.175 372.989C148.175 372.792 148.245 372.548 148.385 372.255C148.525 371.961 148.749 371.675 149.058 371.395C149.372 371.116 149.778 370.878 150.276 370.683C150.766 370.473 151.362 370.368 152.065 370.368C152.89 370.368 153.57 370.48 154.103 370.704C154.649 370.928 155.076 371.221 155.385 371.585C155.694 371.934 155.904 372.326 156.015 372.759C156.141 373.192 156.204 373.619 156.204 374.039V381.022C156.204 381.329 156.05 381.483 155.742 381.483H155.384L155.39 381.481ZM151.419 380.474C151.895 380.474 152.343 380.397 152.764 380.243C153.198 380.076 153.577 379.832 153.899 379.51C154.214 379.196 154.465 378.79 154.654 378.293C154.837 377.804 154.928 377.231 154.928 376.574V375.862L152.218 376.238C149.893 376.552 148.731 377.294 148.731 378.462C148.731 378.811 148.808 379.112 148.962 379.364C149.13 379.615 149.339 379.824 149.592 379.992C149.844 380.16 150.131 380.285 150.453 380.369C150.768 380.44 151.09 380.475 151.42 380.475L151.419 380.474ZM164.344 381.69C163.462 381.69 162.741 381.533 162.181 381.219C161.621 380.905 161.165 380.514 160.814 380.045V385.015C160.814 385.322 160.66 385.476 160.352 385.476H159.995C159.686 385.476 159.532 385.322 159.532 385.015V371.031C159.532 370.724 159.686 370.57 159.995 370.57H160.352C160.66 370.57 160.814 370.724 160.814 371.031V372.017C161.164 371.542 161.62 371.151 162.181 370.843C162.741 370.529 163.462 370.372 164.344 370.372C165.157 370.372 165.843 370.519 166.403 370.812C166.977 371.092 167.439 371.469 167.79 371.945C168.14 372.407 168.392 372.938 168.545 373.54C168.713 374.127 168.811 374.728 168.84 375.344C168.854 375.553 168.861 375.784 168.861 376.036C168.861 376.287 168.854 376.518 168.84 376.728C168.812 377.345 168.713 377.954 168.545 378.554C168.391 379.141 168.139 379.672 167.79 380.148C167.44 380.609 166.978 380.987 166.403 381.281C165.843 381.56 165.157 381.7 164.344 381.7V381.69ZM160.814 375.273C160.8 375.483 160.793 375.755 160.793 376.09C160.793 376.425 160.8 376.698 160.814 376.907C160.829 377.327 160.899 377.753 161.024 378.187C161.164 378.606 161.374 378.984 161.654 379.32C161.934 379.655 162.288 379.935 162.716 380.158C163.136 380.368 163.64 380.473 164.229 380.473C164.847 380.473 165.358 380.368 165.762 380.158C166.182 379.949 166.518 379.669 166.771 379.32C167.037 378.957 167.225 378.544 167.337 378.084C167.463 377.609 167.54 377.119 167.568 376.615C167.582 376.223 167.582 375.831 167.568 375.441C167.54 374.939 167.463 374.456 167.337 373.993C167.225 373.531 167.037 373.126 166.771 372.777C166.519 372.413 166.183 372.127 165.762 371.917C165.356 371.693 164.844 371.581 164.229 371.581C163.626 371.581 163.115 371.693 162.695 371.917C162.275 372.141 161.921 372.434 161.633 372.798C161.367 373.147 161.164 373.538 161.023 373.972C160.897 374.405 160.827 374.838 160.813 375.272L160.814 375.273ZM173.004 372.018C173.382 371.529 173.837 371.131 174.37 370.823C174.901 370.515 175.622 370.361 176.534 370.361C177.248 370.361 177.871 370.48 178.404 370.718C178.934 370.956 179.375 371.285 179.727 371.704C180.092 372.123 180.365 372.62 180.546 373.193C180.729 373.766 180.82 374.389 180.82 375.06V381.016C180.82 381.323 180.666 381.477 180.357 381.477H180.004C179.695 381.477 179.541 381.323 179.541 381.016V375.163C179.541 374.045 179.268 373.171 178.722 372.542C178.177 371.898 177.378 371.577 176.328 371.577C175.319 371.577 174.514 371.891 173.912 372.519C173.309 373.147 173.008 374.029 173.008 375.165V381.017C173.008 381.325 172.854 381.478 172.545 381.478H172.188C171.88 381.478 171.726 381.325 171.726 381.017V367.046C171.726 366.738 171.88 366.584 172.188 366.584H172.545C172.854 366.584 173.008 366.738 173.008 367.046V372.015L173.004 372.018ZM189.39 366.587C190.203 366.587 190.945 366.706 191.618 366.944C192.29 367.182 192.864 367.546 193.34 368.035C193.83 368.51 194.208 369.111 194.475 369.839C194.755 370.551 194.909 371.397 194.937 372.376C194.966 373.004 194.98 373.591 194.98 374.138C194.98 374.683 194.966 375.27 194.937 375.899C194.867 377.899 194.355 379.367 193.404 380.303L194.749 382.191C194.763 382.219 194.777 382.247 194.791 382.273C194.805 382.302 194.812 382.351 194.812 382.421C194.812 382.532 194.77 382.63 194.686 382.715C194.602 382.799 194.504 382.841 194.391 382.841H193.929C193.775 382.841 193.642 382.778 193.53 382.652C193.418 382.541 193.327 382.443 193.256 382.358L192.329 381.078C191.488 381.484 190.507 381.687 189.387 381.687C187.636 381.687 186.285 381.219 185.332 380.282C184.394 379.346 183.897 377.885 183.84 375.899C183.812 375.271 183.797 374.684 183.797 374.138C183.797 373.593 183.812 373.006 183.84 372.376C183.868 371.397 184.015 370.551 184.281 369.839C184.561 369.112 184.939 368.51 185.416 368.035C185.906 367.546 186.48 367.182 187.138 366.944C187.811 366.706 188.56 366.587 189.387 366.587H189.39ZM189.39 367.847C188.802 367.847 188.256 367.938 187.751 368.121C187.247 368.288 186.806 368.56 186.427 368.938C186.05 369.315 185.748 369.797 185.523 370.386C185.313 370.973 185.194 371.672 185.166 372.482C185.152 372.796 185.138 373.09 185.123 373.363C185.123 373.628 185.123 373.887 185.123 374.14C185.123 374.391 185.123 374.656 185.123 374.934C185.138 375.199 185.152 375.486 185.166 375.793C185.194 376.618 185.313 377.324 185.523 377.913C185.748 378.486 186.042 378.961 186.406 379.338C186.783 379.715 187.225 379.994 187.729 380.176C188.233 380.343 188.785 380.427 189.386 380.427C189.988 380.427 190.54 380.343 191.042 380.176C191.545 379.994 191.98 379.715 192.344 379.338C192.722 378.961 193.016 378.486 193.227 377.913C193.451 377.326 193.577 376.619 193.604 375.793C193.619 375.486 193.626 375.199 193.626 374.934C193.626 374.654 193.626 374.39 193.626 374.14C193.626 373.889 193.626 373.63 193.626 373.363C193.626 373.098 193.619 372.804 193.604 372.482C193.576 371.671 193.45 370.973 193.227 370.386C193.017 369.799 192.723 369.316 192.344 368.938C191.967 368.561 191.526 368.289 191.021 368.121C190.517 367.938 189.971 367.847 189.381 367.847H189.39ZM199.646 380.219H206.894C207.208 380.219 207.366 380.376 207.366 380.69V381.004C207.366 381.312 207.208 381.466 206.894 381.466H198.784C198.476 381.466 198.322 381.312 198.322 381.004V367.257C198.322 366.95 198.476 366.796 198.784 366.796H199.183C199.491 366.796 199.646 366.95 199.646 367.257V380.217V380.219ZM88.6367 386.122L87.221 385.304L103.003 358.021L104.419 358.838L88.6367 386.122Z"></path>
<path fill="white" d="M86.8997 383.13H118.464V384.763H86.8997V383.13Z"></path>
<path fill="white" d="M103.313 393.139L87.5235 384.04L88.3422 382.627L104.13 391.723L103.313 393.139ZM117.028 369.423L101.24 360.325L102.059 358.912L117.847 368.011L117.028 369.423Z"></path>
<path fill="white" d="M88.3469 369.422L87.5282 368.009L103.329 358.921L104.148 360.334L88.3469 369.422Z"></path>
<path fill="white" d="M116.737 386.122L100.954 358.838L102.37 358.021L118.152 385.304L116.737 386.122ZM88.152 366.925H89.7859V385.123H88.152V366.925ZM115.587 366.925H117.223V385.123H115.586L115.587 366.925Z"></path>
<path fill="white" d="M103.037 392.451L102.322 391.214L116.054 383.301L116.769 384.537L103.037 392.451Z"></path>
<path fill="white" d="M119.391 385.655C118.934 386.444 118.182 387.019 117.301 387.255C116.419 387.491 115.48 387.369 114.689 386.914C113.899 386.458 113.323 385.708 113.086 384.828C112.85 383.948 112.973 383.011 113.428 382.222C113.885 381.433 114.637 380.858 115.518 380.622C116.399 380.386 117.339 380.508 118.129 380.963C119.786 381.905 120.347 384.024 119.392 385.655H119.391ZM91.9365 369.829C91.4798 370.618 90.7282 371.193 89.8468 371.429C88.9654 371.665 88.0262 371.543 87.2354 371.088C86.4454 370.632 85.8689 369.882 85.6324 369.002C85.396 368.122 85.5189 367.185 85.9743 366.396C86.431 365.607 87.1826 365.032 88.064 364.796C88.9454 364.56 89.8846 364.682 90.6754 365.137C92.3211 366.079 92.8815 368.198 91.9377 369.829H91.9365ZM85.9849 385.655C85.0388 384.013 85.6003 381.918 87.2472 380.963C88.8929 380.018 90.9916 380.579 91.9483 382.223C92.8944 383.865 92.3329 385.96 90.686 386.915C89.0297 387.86 86.931 387.299 85.9849 385.655V385.655ZM113.44 369.829C112.494 368.187 113.056 366.092 114.702 365.137C116.348 364.192 118.447 364.753 119.404 366.397C120.35 368.039 119.788 370.134 118.141 371.089C117.35 371.544 116.411 371.667 115.53 371.431C114.648 371.195 113.897 370.619 113.44 369.83V369.829ZM102.685 395.289C100.783 395.289 99.246 393.754 99.246 391.856C99.246 389.958 100.787 388.424 102.685 388.424C104.583 388.424 106.124 389.958 106.124 391.856C106.122 392.766 105.759 393.638 105.115 394.282C104.47 394.925 103.596 395.287 102.685 395.289V395.289ZM102.685 363.634C100.783 363.634 99.246 362.1 99.246 360.202C99.246 358.304 100.787 356.769 102.685 356.769C104.583 356.769 106.124 358.304 106.124 360.202C106.124 360.653 106.036 361.099 105.863 361.516C105.691 361.933 105.438 362.312 105.118 362.631C104.799 362.95 104.419 363.202 104.002 363.375C103.584 363.547 103.137 363.635 102.685 363.634Z"></path>
<path fill="white" d="M424.601 377.293C426.635 377.293 428.283 375.648 428.283 373.618C428.283 371.588 426.635 369.943 424.601 369.943C422.568 369.943 420.92 371.588 420.92 373.618C420.92 375.648 422.568 377.293 424.601 377.293Z"></path>
<path stroke-width="1.80541" stroke="white" d="M424.6 366.148C429.544 366.148 434.136 366.856 437.599 368.046C441.77 369.479 444.335 371.652 444.335 373.62C444.335 375.67 441.617 377.979 437.137 379.46C433.75 380.58 429.293 381.165 424.6 381.165C419.789 381.165 415.233 380.616 411.808 379.448C407.475 377.97 404.865 375.631 404.865 373.62C404.865 371.668 407.314 369.512 411.427 368.08C414.902 366.871 419.608 366.148 424.6 366.148H424.6Z" clip-rule="evenodd" fill-rule="evenodd"></path>
<path stroke-width="1.80541" stroke="white" d="M418.085 369.908C420.555 365.634 423.464 362.017 426.226 359.617C429.554 356.726 432.722 355.594 434.429 356.576C436.209 357.601 436.854 361.105 435.902 365.719C435.183 369.207 433.463 373.353 431.119 377.41C428.715 381.57 425.963 385.236 423.238 387.613C419.79 390.621 416.457 391.71 414.711 390.705C413.017 389.731 412.369 386.535 413.182 382.264C413.869 378.654 415.592 374.224 418.085 369.908L418.085 369.908Z" clip-rule="evenodd" fill-rule="evenodd"></path>
<path stroke-width="1.80541" stroke="white" d="M418.091 377.424C415.614 373.155 413.928 368.832 413.224 365.245C412.377 360.923 412.976 357.618 414.682 356.633C416.46 355.605 419.823 356.797 423.352 359.925C426.021 362.29 428.761 365.847 431.112 369.9C433.522 374.056 435.329 378.267 436.032 381.81C436.921 386.295 436.201 389.721 434.457 390.729C432.765 391.707 429.668 390.671 426.366 387.835C423.577 385.439 420.592 381.736 418.091 377.424V377.424Z" clip-rule="evenodd" fill-rule="evenodd"></path>
<path fill="white" d="M465.469 383.004L460.956 376.199C463.237 375.998 465.292 374.348 465.292 371.335C465.292 368.268 463.112 366.306 460.054 366.306H453.338V382.991H455.418V376.361H458.752L463.013 382.991L465.469 383.004ZM459.805 374.548H455.419V368.169H459.805C461.786 368.169 463.139 369.469 463.139 371.346C463.139 373.223 461.785 374.55 459.805 374.55V374.548ZM473.214 383.303C475.195 383.303 476.823 382.653 478.027 381.453L477.124 380.226C476.171 381.202 474.768 381.752 473.39 381.752C470.784 381.752 469.179 379.851 469.029 377.575H478.828V377.099C478.828 373.473 476.672 370.62 473.012 370.62C469.553 370.62 467.048 373.447 467.048 376.949C467.048 380.727 469.629 383.294 473.213 383.294L473.214 383.303ZM476.975 376.198H469.03C469.13 374.347 470.407 372.169 472.989 372.169C475.747 372.169 476.949 374.396 476.975 376.198ZM491.312 383.003V374.697C491.312 371.77 489.183 370.619 486.625 370.619C484.644 370.619 483.091 371.269 481.788 372.62L482.666 373.921C483.743 372.771 484.922 372.245 486.375 372.245C488.13 372.245 489.434 373.17 489.434 374.796V376.973C488.456 375.846 487.078 375.321 485.423 375.321C483.368 375.321 481.186 376.597 481.186 379.299C481.186 381.925 483.366 383.302 485.423 383.302C487.052 383.302 488.432 382.727 489.434 381.626V383.001L491.312 383.003ZM486.1 381.952C484.346 381.952 483.117 380.852 483.117 379.325C483.117 377.774 484.346 376.673 486.1 376.673C487.428 376.673 488.706 377.173 489.434 378.175V380.451C488.707 381.452 487.428 381.953 486.1 381.953V381.952ZM500.401 383.303C502.607 383.303 503.91 382.402 504.838 381.202L503.584 380.052C502.783 381.127 501.755 381.627 500.512 381.627C497.931 381.627 496.328 379.626 496.328 376.949C496.328 374.273 497.932 372.297 500.512 372.297C501.766 372.297 502.793 372.773 503.584 373.872L504.838 372.722C503.911 371.521 502.607 370.621 500.401 370.621C496.792 370.621 494.361 373.373 494.361 376.95C494.361 380.553 496.792 383.295 500.401 383.295V383.303ZM510.528 383.303C511.63 383.303 512.308 382.978 512.785 382.528L512.234 381.127C511.983 381.402 511.492 381.627 510.955 381.627C510.129 381.627 509.727 380.977 509.727 380.076V372.571H512.184V370.92H509.727V367.618H507.846V370.92H505.841V372.572H507.846V380.478C507.846 382.28 508.749 383.305 510.528 383.305V383.303Z" clip-rule="evenodd" fill-rule="evenodd"></path>
</g>
<defs>
<linearGradient gradientUnits="userSpaceOnUse" y2="168.917" x2="328.159" y1="151.066" x1="26.1778" id="paint0_linear_7076_2773">
<stop stop-opacity="0.2" stop-color="white"></stop>
<stop stop-opacity="0.0938656" stop-color="white" offset="0.469328"></stop>
<stop stop-opacity="0" stop-color="white" offset="1"></stop>
</linearGradient>
<linearGradient gradientUnits="userSpaceOnUse" y2="391" x2="874.555" y1="-65" x1="874.555" id="paint1_linear_7076_2773">
<stop stop-color="#4247B8" offset="0.0648065"></stop>
<stop stop-color="#434190" offset="1"></stop>
</linearGradient>
<linearGradient gradientUnits="userSpaceOnUse" y2="254" x2="811" y1="174" x1="811" id="paint2_linear_7076_2773">
<stop stop-opacity="0" stop-color="white"></stop>
<stop stop-opacity="0.2" stop-color="white" offset="1"></stop>
</linearGradient>
<linearGradient gradientUnits="userSpaceOnUse" y2="294.686" x2="845.396" y1="225.604" x1="785.301" id="paint3_linear_7076_2773">
<stop stop-color="#9AE6B4"></stop>
<stop stop-color="#68D391" offset="0.647681"></stop>
<stop stop-color="#48BB78" offset="1"></stop>
</linearGradient>
<clipPath id="clip0_7076_2773">
<rect fill="white" height="474" width="844"></rect>
</clipPath>
</defs>
</svg>
