<svg xmlns="http://www.w3.org/2000/svg" width="523" height="150" fill="none"><g clip-path="url(#a)"><path fill="#0F172A" d="M5 110h14V81.4h26.6V69H19V52.6h27.1V40H5zm74.31 1.3c16.1 0 27.699-12.2 27.699-27.2s-11.6-27.3-27.7-27.3-27.7 12.3-27.7 27.3 11.6 27.2 27.7 27.2m-14.2-27.2c0-8.1 5.6-15 14.2-15s14.2 6.9 14.2 15S87.91 99 79.31 99s-14.2-6.8-14.2-14.9m47.874 25.9h13.5V83.4c0-8.7 6-13.9 13.8-13.9h1.9V56.8c-9-.5-14.3 3.6-16.1 11.1V58h-13.1zm37.692 0h13.5V81.5c0-9 5.1-12.9 10.8-12.9 6.7 0 11.2 3.9 11.2 12.9V110h13.5V81.5c0-10 4.3-12.9 10.6-12.9 6.1 0 10.4 3.9 10.4 12.9V110h13.5V78.2c0-13.1-8.6-21.4-19.8-21.4-9.1 0-14.1 3.5-17.6 9.8-3.4-6.3-9.6-9.8-16.9-9.8-8 0-13.2 3-15.9 8.8V58h-13.3zm124.915 1.3c14.3 0 25.7-12.1 25.7-27.1s-11.4-27.3-25.7-27.3c-8.9 0-13.6 3.6-16.4 9.1V37h-13.5v73h13.1v-8.5c2.8 5.9 7.5 9.8 16.8 9.8m-16.8-27.1c0-8.1 5.7-15.1 14.6-15.1 8.6 0 14.4 6.9 14.4 15 0 7.9-5.8 15-14.4 15-8.9 0-14.6-6.8-14.6-14.9m50.522 25.8h13.5V83.4c0-8.7 6-13.9 13.8-13.9h1.9V56.8c-9-.5-14.3 3.6-16.1 11.1V58h-13.1zm37.691 0h13.5V58h-13.5zm-1.4-64.3c0 4.4 3.5 8 8.1 8 4.7 0 8.1-3.5 8.1-8 0-4.3-3.4-7.9-8.1-7.9-4.6 0-8.1 3.6-8.1 7.9m47.684 65.6c10.2 0 17.4-3.7 22.3-10l-9.8-8.5c-2.7 3.6-6.1 6.2-11.3 6.2-8.6 0-14.5-6.9-14.5-15s5.6-15 14.2-15c4.6 0 8.6 2.3 11 5.9l10.4-8.5c-4.4-6.1-12.1-9.8-21.6-9.7-15.9.1-27.5 12.2-27.5 27.3s11.9 27.3 26.8 27.3m62.042-1.3h17.9l-24.6-27.8 24.5-24.2h-19.2l-19.5 21V37h-13.5v73h13.5V85.3zm40.232 1.3c11.5 0 20.2-7.2 20.2-16.8 0-7.8-3.5-13.4-18.6-17.3-6.2-1.6-7-3.2-7-5 0-3.2 2.8-4.6 6.5-4.6 3.5 0 6.7 1.6 9.2 5.6l9.8-7.5c-5.3-6.9-10.9-9-19.3-9-12.2 0-19.4 6.8-19.4 15.9 0 6.6 2.1 12.9 16 16.2 8.2 1.9 9.5 3.4 9.5 6.1 0 3.1-2.6 5.4-7.2 5.4-4.4 0-8.4-2.1-12.2-6.4l-9.1 8.3c5.7 6.1 12.8 9.1 21.6 9.1"/></g><defs><clipPath id="a"><path fill="#fff" d="M0 0h523v150H0z"/></clipPath></defs></svg>