<svg xmlns="http://www.w3.org/2000/svg" fill="none" viewBox="0 0 844 474" height="474" width="844">
<g clip-path="url(#clip0_977_14782)">
<rect fill="#1A202C" height="474" width="844"></rect>
<g clip-path="url(#clip1_977_14782)">
<path stroke-linecap="round" stroke-miterlimit="10" stroke-width="8.74703" stroke="url(#paint0_linear_977_14782)" d="M483.639 90.797C454.973 105.141 429.597 126.965 410.759 155.612C404.619 164.929 399.436 174.624 395.15 184.519C394.273 186.534 393.476 188.569 392.678 190.624C387.416 204.07 383.848 217.934 381.814 231.879C371.628 302.081 401.529 375.215 464.562 416.73C522.691 455.013 594.415 456.808 652.603 427.702C681.269 413.358 706.645 391.534 725.483 362.886C731.623 353.57 736.806 343.875 741.092 333.98"></path>
<path stroke-linecap="round" stroke-miterlimit="10" stroke-width="8.74703" stroke="url(#paint1_linear_977_14782)" d="M460.894 85.1912C436.195 100.373 414.367 121.04 397.423 146.815C385.323 165.228 376.592 184.898 371.07 205.107C370.432 207.401 369.874 209.715 369.315 212.029C363.794 235.45 362.538 259.449 365.289 282.909C372.066 340.862 403.383 395.543 455.771 430.056C524.126 475.082 609.784 473.565 675.308 433.288C700.007 418.106 721.835 397.439 738.78 371.664C750.88 353.251 759.611 333.581 765.133 313.372"></path>
<path stroke-linecap="round" stroke-miterlimit="10" stroke-width="8.74703" stroke="url(#paint2_linear_977_14782)" d="M421.702 94.5271C407.628 107.055 394.93 121.578 384.105 138.057C379.839 144.56 375.952 151.203 372.444 157.966C371.268 160.26 370.131 162.554 369.035 164.868C355.519 193.396 348.642 223.779 347.964 254.062C346.35 327.476 381.314 400.131 446.998 443.401C531.999 499.379 641.817 488.627 714.498 423.991C728.572 411.463 741.27 396.939 752.094 380.461C756.36 373.958 760.247 367.315 763.756 360.552"></path>
<path stroke-linecap="round" stroke-miterlimit="10" stroke-width="8.74703" stroke="url(#paint3_linear_977_14782)" d="M394.97 98.4173C375.195 119.683 359.028 144.979 347.905 173.666C341.167 191.022 336.642 208.697 334.15 226.392C333.752 229.285 333.393 232.198 333.114 235.09C330.104 264.416 332.735 293.642 340.31 321.371C359.407 391.214 410.12 451.461 482.602 479.61C575.356 515.658 677.261 488.866 741.25 420.061C761.025 398.795 777.192 373.499 788.316 344.812C795.053 327.456 799.579 309.781 802.07 292.086"></path>
<path stroke-linecap="round" stroke-miterlimit="10" stroke-width="8.74703" stroke="url(#paint4_linear_977_14782)" d="M370.312 102.866C339.035 142.366 319.22 191.581 316.31 245.624C314.496 279.358 319.42 311.936 329.905 342.019C341.009 373.878 358.371 402.964 380.538 427.702C423.656 475.8 485.074 507.479 554.486 511.23C639.327 515.818 716.772 477.675 765.89 415.612C797.167 376.113 816.982 326.898 819.892 272.855C821.707 239.12 816.783 206.543 806.297 176.459"></path>
<path stroke-linecap="round" stroke-miterlimit="10" stroke-width="8.74703" stroke="url(#paint5_linear_977_14782)" d="M379.761 68.2541C371.907 76.0343 364.432 84.3731 357.435 93.2705C349.122 103.824 341.766 114.816 335.287 126.147C270.441 239.579 296.655 386.865 402.267 470.074C509.534 554.58 661.753 543.887 756.441 450.225"></path>
<path stroke-linecap="round" stroke-miterlimit="10" stroke-width="8.74703" stroke="url(#paint6_linear_977_14782)" d="M392.379 35.876C368.956 54.2892 348.084 76.7323 330.821 102.966C327.851 107.474 325.06 112.023 322.389 116.631C308.853 139.972 299.026 164.549 292.707 189.646C264.041 303.676 308.395 428.519 411.954 496.706C516.59 565.611 650.409 556.115 743.862 482.602C767.285 464.189 788.156 441.746 805.419 415.512C808.389 411.004 811.18 406.455 813.852 401.847"></path>
<path stroke-linecap="round" stroke-miterlimit="10" stroke-width="8.74703" stroke="url(#paint7_linear_977_14782)" d="M401.188 9.7629C368.834 31.388 340.188 59.6762 317.483 94.1886C305.004 113.18 294.957 133.07 287.283 153.498C279.388 174.465 274.006 195.99 271.016 217.695C255.666 328.873 303.409 444.34 403.161 510.033C506.86 578.34 637.709 573.712 735.009 508.717C767.362 487.091 796.008 458.803 818.713 424.291C831.192 405.299 841.239 385.409 848.914 364.981"></path>
<path stroke-linecap="round" stroke-miterlimit="10" stroke-width="8.74703" stroke="url(#paint8_linear_977_14782)" d="M379.822 5.51303C325.58 45.731 283.718 103.524 264.003 173.447C260.893 184.459 258.441 195.491 256.567 206.523C245.623 270.939 255.292 335.116 281.266 391.473C318.663 472.588 389.908 537.503 482.344 563.577C580.162 591.187 680.432 569.302 756.382 512.985C810.624 472.767 852.486 414.974 872.201 345.051C875.311 334.039 877.763 323.007 879.637 311.975"></path>
<path stroke-linecap="round" stroke-miterlimit="10" stroke-width="8.74703" stroke="url(#paint9_linear_977_14782)" d="M265.399 123.134C244.528 169.417 233.982 221.166 236.594 275.268C238.089 306.13 243.77 335.795 253.059 363.784C263.704 395.882 279.114 425.746 298.37 452.598C361.881 541.074 467.533 596.653 584.13 591.027C712.866 584.803 821.15 505.584 870.846 395.363C891.718 349.081 902.263 297.332 899.651 243.23C898.156 212.368 892.475 182.703 883.186 154.714"></path>
<path stroke-linecap="round" stroke-miterlimit="10" stroke-width="8.74703" stroke="url(#paint10_linear_977_14782)" d="M317.205 18.101C302.732 33.1827 289.436 49.7806 277.535 67.8547C268.126 82.1783 259.913 96.9608 252.876 112.043C244.723 129.518 238.145 147.433 233.081 165.587C193.591 307.447 247.534 464.827 376.888 550.011C519.04 643.633 705.208 619.076 819.033 500.357C833.505 485.275 846.802 468.677 858.702 450.603C868.112 436.28 876.324 421.497 883.361 406.415"></path>
<path stroke-linecap="round" stroke-miterlimit="10" stroke-width="8.74703" stroke="url(#paint11_linear_977_14782)" d="M273.169 46.11C270.099 50.3592 267.109 54.6682 264.198 59.077C237.705 99.3748 220.283 143.044 211.412 187.671C183.324 328.792 240.795 479.51 368.096 563.357C531.259 670.804 749.84 629.409 863.027 472.348"></path>
<path stroke-linecap="round" stroke-miterlimit="10" stroke-width="8.74703" stroke="url(#paint12_linear_977_14782)" d="M230.251 85.7094C222.257 101.27 215.44 117.189 209.778 133.368C193.273 180.469 186.535 229.624 188.987 278.061C194.927 394.925 254.392 507.579 359.326 576.703C534.251 691.911 770.194 643.214 885.315 468.179C892.91 456.628 899.768 444.818 905.947 432.788C913.941 417.228 920.759 401.308 926.42 385.129"></path>
<path stroke-linecap="round" stroke-miterlimit="10" stroke-width="8.74703" stroke="url(#paint13_linear_977_14782)" d="M241.635 35.4972C233.402 47.5466 225.728 60.1546 218.711 73.361C188.271 130.676 173.36 192.179 172.503 253.005C171.945 292.285 177.267 331.266 188.032 368.671C216.677 468.239 283.956 556.535 382.372 608.902C561.841 704.379 782.435 647.145 894.586 483.001C902.819 470.952 910.494 458.344 917.511 445.137C947.951 387.823 962.862 326.319 963.719 265.493"></path>
<path stroke-linecap="round" stroke-miterlimit="10" stroke-width="8.74703" stroke="url(#paint14_linear_977_14782)" d="M216.556 44.8332C198.895 73.8396 184.562 105.499 174.236 139.473C145.61 233.774 152.567 330.548 187.333 415.293C202.224 451.581 222.238 485.654 246.737 516.396C296.872 579.337 365.805 628.292 448.413 653.409C631.65 709.127 824.276 630.208 919.642 473.665C937.304 444.658 951.637 412.999 961.963 379.025C990.589 284.724 983.632 187.95 948.866 103.205"></path>
<path stroke-linecap="round" stroke-miterlimit="10" stroke-width="8.74703" stroke="url(#paint15_linear_977_14782)" d="M250.704 -27.563C236.372 -11.6434 223.035 5.55293 210.915 23.9861C169.013 87.7044 146.408 158.624 141.623 229.784C139.55 260.685 140.846 291.647 145.371 322.09C162.694 438.374 227.401 547.098 333.033 616.662C511.566 734.243 746.552 700.19 885.495 546.001C899.828 530.082 913.164 512.885 925.284 494.452C967.186 430.734 989.792 359.814 994.576 288.654"></path>
<path stroke-linecap="round" stroke-miterlimit="10" stroke-width="8.74703" stroke="url(#paint16_linear_977_14782)" d="M289.281 -85.9744C254.515 -57.8857 223.457 -24.0715 197.602 15.2088C146.929 92.2732 123.446 179.452 124.762 265.414C125.38 305.751 131.48 345.81 142.783 384.412C171.329 481.804 233.105 569.961 324.265 630.008C489.302 738.692 700.846 722.454 846.925 604.433C881.691 576.344 912.749 542.53 938.603 503.25C989.277 426.186 1012.76 339.007 1011.44 253.045"></path>
<path stroke-linecap="round" stroke-miterlimit="10" stroke-width="8.74703" stroke="url(#paint17_linear_977_14782)" d="M183.346 7.9467C149.976 58.9572 126.254 117.429 115.27 181.247C97.0703 287.118 116.765 390.875 164.508 478.612C183.964 514.381 208.125 547.457 236.252 576.962C301.936 645.868 389.408 695.063 490.176 712.419C676.104 744.437 855.574 659.293 952.874 510.551C986.244 459.541 1009.97 401.069 1020.95 337.251C1039.15 231.38 1019.45 127.623 971.712 39.8857"></path>
<path stroke-linecap="round" stroke-miterlimit="10" stroke-width="8.74703" stroke="url(#paint18_linear_977_14782)" d="M204.715 -47.3931C152.487 14.39 115.309 90.2774 100.079 175.501C78.4703 296.394 104.764 414.973 165.324 511.628C189.166 549.711 218.35 584.383 251.999 614.467C315.41 671.163 394.729 711.56 484.414 727.62C657.305 758.561 825.452 691.312 931.483 565.89C983.711 504.107 1020.89 428.22 1036.12 342.996C1057.73 222.103 1031.43 103.544 970.873 6.86915"></path>
<path stroke-linecap="round" stroke-miterlimit="10" stroke-width="8.74703" stroke="url(#paint19_linear_977_14782)" d="M134.39 28.2352C100.362 91.9734 79.9092 164.17 77.0586 241.095C73.2711 343.994 101.538 440.768 152.849 521.802C185.661 573.611 227.922 618.976 277.26 655.363C353.947 711.94 447.798 746.871 549.982 750.642C743.864 757.804 916.017 650.955 1001.84 490.223C1035.86 426.484 1056.32 354.288 1059.17 277.363C1062.95 174.464 1034.69 77.6897 983.376 -3.34463"></path>
<path stroke-linecap="round" stroke-miterlimit="10" stroke-width="8.74703" stroke="url(#paint20_linear_977_14782)" d="M263.425 -146.721C217.875 -112.548 177.368 -70.1353 144.317 -19.8828C89.7365 63.1065 62.7453 156.37 61.031 249.055C60.0143 304.314 67.9881 359.355 84.4938 411.881C118.303 519.528 187.893 616.602 289.2 683.332C472.676 804.166 706.387 790.001 872.799 665.178C918.35 631.005 958.856 588.593 991.907 538.34C1046.49 455.351 1073.48 362.088 1075.19 269.403"></path>
<path stroke-linecap="round" stroke-miterlimit="10" stroke-width="8.74703" stroke="url(#paint21_linear_977_14782)" d="M228.18 -138.78C166.842 -86.493 116.727 -19.2636 84.0747 60.2944C35.8135 177.896 33.6207 303.118 69.0441 415.832C82.2606 457.865 100.74 498.143 123.963 535.648C179.959 626.018 263.743 700.25 369.316 743.64C556.699 820.664 763.518 780.466 908.043 657.259C969.381 604.972 1019.5 537.743 1052.15 458.184C1100.41 340.583 1102.6 215.361 1067.18 102.647"></path>
<path stroke-linecap="round" stroke-miterlimit="10" stroke-width="8.74703" stroke="url(#paint22_linear_977_14782)" d="M198.736 -133.514C102.254 -42.7045 38.7028 83.5152 29.9117 225.934C24.8284 308.165 38.5433 387.264 67.3086 459.102C91.5887 519.768 126.633 575.227 170.17 622.966C261.27 722.833 389.628 788.865 534.83 797.842C689.282 807.398 832.769 750.562 937.485 651.992C1033.97 561.183 1097.52 434.963 1106.31 292.545C1111.39 210.313 1097.68 131.214 1068.91 59.3765"></path>
<path stroke-linecap="round" stroke-miterlimit="10" stroke-width="8.74703" stroke="url(#paint23_linear_977_14782)" d="M51.0605 57.2617C15.1586 148.869 3.09839 251.11 21.2187 354.926C43.1266 480.308 105.701 588.533 192.973 668.47C247.893 718.763 312.58 757.843 383.088 782.94C470.241 813.941 566.265 823.577 663.684 806.54C861.493 771.928 1016.66 635.913 1085.12 461.236C1121.02 369.629 1133.08 267.388 1114.96 163.572C1093.05 38.1902 1030.48 -70.0351 943.204 -149.972"></path>
<path stroke-linecap="round" stroke-miterlimit="10" stroke-width="8.74703" stroke="url(#paint24_linear_977_14782)" d="M143.398 -122.482C60.1519 -29.9168 6.34899 90.2981 -1.92379 223.959C-12.3894 393.189 52.2578 549.991 163.113 661.807C201.925 700.948 246.399 734.583 295.298 761.295C366.384 800.136 446.819 824.375 532.856 829.701C713.601 840.893 880.173 766.242 992.822 640.96C1076.07 548.395 1129.87 428.2 1138.14 294.52C1148.59 125.289 1083.96 -31.5127 973.087 -143.329"></path>
<rect fill="url(#paint25_linear_977_14782)" height="500.451" width="851.823" y="-26.2222" x="3.99023"></rect>
<rect fill="url(#paint26_linear_977_14782)" height="496.45" width="855.99" y="-22.2208" x="-0.177734"></rect>
</g>
<g filter="url(#filter0_d_977_14782)">
<path fill="white" d="M186.834 266.817C186.551 266.817 186.368 266.676 186.283 266.393L185.011 262.237C184.954 262.124 184.883 262.068 184.799 262.068H174.366C174.281 262.068 174.21 262.124 174.154 262.237L172.924 266.393C172.839 266.676 172.655 266.817 172.373 266.817H166.987C166.817 266.817 166.69 266.775 166.605 266.69C166.52 266.577 166.506 266.422 166.562 266.224L175.723 237.555C175.808 237.272 175.992 237.131 176.274 237.131H182.933C183.215 237.131 183.399 237.272 183.484 237.555L192.644 266.224C192.673 266.28 192.687 266.351 192.687 266.436C192.687 266.69 192.531 266.817 192.22 266.817H186.834ZM175.68 257.191C175.652 257.36 175.709 257.445 175.85 257.445H183.314C183.484 257.445 183.54 257.36 183.484 257.191L179.667 244.595C179.639 244.482 179.596 244.439 179.54 244.468C179.483 244.468 179.441 244.51 179.413 244.595L175.68 257.191ZM204.065 267.157C201.803 267.157 199.838 266.591 198.17 265.46C196.53 264.329 195.357 262.774 194.65 260.795C194.169 259.382 193.929 257.714 193.929 255.791C193.929 253.897 194.169 252.257 194.65 250.872C195.329 248.949 196.502 247.436 198.17 246.334C199.838 245.231 201.803 244.68 204.065 244.68C206.327 244.68 208.306 245.245 210.002 246.376C211.727 247.507 212.872 248.935 213.438 250.659C213.664 251.338 213.777 251.847 213.777 252.186V252.271C213.777 252.525 213.635 252.681 213.353 252.738L208.476 253.458H208.391C208.136 253.458 207.967 253.317 207.882 253.034L207.755 252.356C207.557 251.621 207.119 251.013 206.44 250.532C205.761 250.052 204.956 249.811 204.023 249.811C203.118 249.811 202.355 250.037 201.733 250.49C201.11 250.942 200.672 251.564 200.418 252.356C200.107 253.204 199.951 254.363 199.951 255.833C199.951 257.304 200.093 258.463 200.375 259.311C200.63 260.159 201.068 260.824 201.69 261.304C202.34 261.785 203.118 262.025 204.023 262.025C204.899 262.025 205.662 261.799 206.313 261.347C206.991 260.866 207.458 260.216 207.712 259.396C207.741 259.339 207.755 259.254 207.755 259.141C207.783 259.113 207.797 259.071 207.797 259.014C207.825 258.675 208.023 258.533 208.391 258.59L213.268 259.353C213.551 259.41 213.692 259.565 213.692 259.82C213.692 260.046 213.607 260.47 213.438 261.092C212.844 262.986 211.685 264.471 209.96 265.545C208.264 266.62 206.299 267.157 204.065 267.157ZM225.747 267.157C223.485 267.157 221.52 266.591 219.852 265.46C218.212 264.329 217.039 262.774 216.332 260.795C215.851 259.382 215.611 257.714 215.611 255.791C215.611 253.897 215.851 252.257 216.332 250.872C217.011 248.949 218.184 247.436 219.852 246.334C221.52 245.231 223.485 244.68 225.747 244.68C228.009 244.68 229.988 245.245 231.684 246.376C233.409 247.507 234.554 248.935 235.119 250.659C235.346 251.338 235.459 251.847 235.459 252.186V252.271C235.459 252.525 235.317 252.681 235.035 252.738L230.157 253.458H230.073C229.818 253.458 229.649 253.317 229.564 253.034L229.436 252.356C229.239 251.621 228.8 251.013 228.122 250.532C227.443 250.052 226.637 249.811 225.704 249.811C224.8 249.811 224.036 250.037 223.414 250.49C222.792 250.942 222.354 251.564 222.1 252.356C221.789 253.204 221.633 254.363 221.633 255.833C221.633 257.304 221.775 258.463 222.057 259.311C222.312 260.159 222.75 260.824 223.372 261.304C224.022 261.785 224.8 262.025 225.704 262.025C226.581 262.025 227.344 261.799 227.995 261.347C228.673 260.866 229.14 260.216 229.394 259.396C229.422 259.339 229.436 259.254 229.436 259.141C229.465 259.113 229.479 259.071 229.479 259.014C229.507 258.675 229.705 258.533 230.073 258.59L234.95 259.353C235.232 259.41 235.374 259.565 235.374 259.82C235.374 260.046 235.289 260.47 235.119 261.092C234.526 262.986 233.366 264.471 231.642 265.545C229.945 266.62 227.98 267.157 225.747 267.157ZM257.14 253.671C257.31 254.745 257.367 255.946 257.31 257.275C257.282 257.615 257.098 257.784 256.759 257.784H243.654C243.485 257.784 243.428 257.855 243.485 257.996C243.569 258.562 243.725 259.127 243.951 259.693C244.686 261.276 246.185 262.068 248.447 262.068C250.256 262.039 251.684 261.304 252.73 259.862C252.843 259.693 252.97 259.608 253.112 259.608C253.196 259.608 253.295 259.664 253.408 259.777L256.462 262.789C256.603 262.93 256.674 263.057 256.674 263.17C256.674 263.227 256.617 263.34 256.504 263.51C255.571 264.669 254.37 265.573 252.9 266.224C251.429 266.846 249.818 267.157 248.065 267.157C245.633 267.157 243.569 266.605 241.873 265.503C240.205 264.4 239.003 262.859 238.268 260.88C237.675 259.466 237.378 257.615 237.378 255.324C237.378 253.769 237.59 252.398 238.014 251.211C238.664 249.203 239.795 247.606 241.407 246.419C243.046 245.231 244.983 244.637 247.217 244.637C250.044 244.637 252.306 245.457 254.002 247.097C255.727 248.737 256.773 250.928 257.14 253.671ZM247.259 249.811C245.478 249.811 244.305 250.645 243.739 252.313C243.626 252.681 243.527 253.133 243.442 253.671C243.442 253.812 243.513 253.883 243.654 253.883H250.991C251.161 253.883 251.217 253.812 251.161 253.671C251.019 252.851 250.949 252.455 250.949 252.483C250.694 251.635 250.242 250.985 249.592 250.532C248.97 250.052 248.192 249.811 247.259 249.811ZM260.656 266.817C260.515 266.817 260.388 266.775 260.274 266.69C260.19 266.577 260.147 266.45 260.147 266.309V237.64C260.147 237.498 260.19 237.385 260.274 237.3C260.388 237.187 260.515 237.131 260.656 237.131H265.618C265.759 237.131 265.873 237.187 265.957 237.3C266.07 237.385 266.127 237.498 266.127 237.64V266.309C266.127 266.45 266.07 266.577 265.957 266.69C265.873 266.775 265.759 266.817 265.618 266.817H260.656ZM288.949 253.671C289.119 254.745 289.175 255.946 289.119 257.275C289.091 257.615 288.907 257.784 288.568 257.784H275.463C275.293 257.784 275.237 257.855 275.293 257.996C275.378 258.562 275.534 259.127 275.76 259.693C276.495 261.276 277.993 262.068 280.255 262.068C282.065 262.039 283.493 261.304 284.539 259.862C284.652 259.693 284.779 259.608 284.92 259.608C285.005 259.608 285.104 259.664 285.217 259.777L288.271 262.789C288.412 262.93 288.483 263.057 288.483 263.17C288.483 263.227 288.426 263.34 288.313 263.51C287.38 264.669 286.178 265.573 284.708 266.224C283.238 266.846 281.627 267.157 279.874 267.157C277.442 267.157 275.378 266.605 273.682 265.503C272.014 264.4 270.812 262.859 270.077 260.88C269.483 259.466 269.186 257.615 269.186 255.324C269.186 253.769 269.398 252.398 269.823 251.211C270.473 249.203 271.604 247.606 273.215 246.419C274.855 245.231 276.792 244.637 279.025 244.637C281.853 244.637 284.115 245.457 285.811 247.097C287.536 248.737 288.582 250.928 288.949 253.671ZM279.068 249.811C277.287 249.811 276.113 250.645 275.548 252.313C275.435 252.681 275.336 253.133 275.251 253.671C275.251 253.812 275.322 253.883 275.463 253.883H282.8C282.969 253.883 283.026 253.812 282.969 253.671C282.828 252.851 282.757 252.455 282.757 252.483C282.503 251.635 282.051 250.985 281.4 250.532C280.778 250.052 280.001 249.811 279.068 249.811ZM302.813 244.722C303.831 244.722 304.636 244.92 305.23 245.316C305.456 245.429 305.541 245.641 305.485 245.952L304.594 250.787C304.566 251.126 304.368 251.225 304 251.084C303.576 250.942 303.081 250.872 302.516 250.872C302.29 250.872 301.979 250.9 301.583 250.956C300.565 251.041 299.703 251.423 298.996 252.101C298.289 252.752 297.936 253.628 297.936 254.731V266.309C297.936 266.45 297.879 266.577 297.766 266.69C297.681 266.775 297.568 266.817 297.427 266.817H292.465C292.324 266.817 292.196 266.775 292.083 266.69C291.998 266.577 291.956 266.45 291.956 266.309V245.528C291.956 245.387 291.998 245.273 292.083 245.189C292.196 245.076 292.324 245.019 292.465 245.019H297.427C297.568 245.019 297.681 245.076 297.766 245.189C297.879 245.273 297.936 245.387 297.936 245.528V247.139C297.936 247.224 297.964 247.281 298.021 247.309C298.077 247.337 298.119 247.323 298.148 247.267C299.307 245.57 300.862 244.722 302.813 244.722ZM315.788 244.68C317.626 244.68 319.266 245.005 320.708 245.655C322.15 246.277 323.266 247.139 324.058 248.242C324.878 249.345 325.288 250.575 325.288 251.932V266.309C325.288 266.45 325.231 266.577 325.118 266.69C325.033 266.775 324.92 266.817 324.779 266.817H319.817C319.676 266.817 319.548 266.775 319.435 266.69C319.35 266.577 319.308 266.45 319.308 266.309V264.909C319.308 264.824 319.28 264.768 319.223 264.739C319.167 264.711 319.11 264.739 319.054 264.824C317.866 266.379 315.958 267.157 313.328 267.157C311.123 267.157 309.342 266.62 307.985 265.545C306.628 264.471 305.949 262.888 305.949 260.795C305.949 258.618 306.712 256.936 308.239 255.749C309.766 254.533 311.943 253.925 314.77 253.925H319.096C319.237 253.925 319.308 253.854 319.308 253.713V252.78C319.308 251.847 319.025 251.126 318.46 250.617C317.894 250.08 317.046 249.811 315.915 249.811C315.039 249.811 314.304 249.967 313.71 250.278C313.145 250.589 312.777 251.027 312.607 251.592C312.523 251.903 312.339 252.045 312.056 252.017L306.925 251.338C306.585 251.281 306.43 251.154 306.458 250.956C306.571 249.769 307.038 248.694 307.858 247.733C308.706 246.772 309.808 246.023 311.165 245.485C312.551 244.948 314.092 244.68 315.788 244.68ZM314.94 262.704C316.156 262.704 317.188 262.379 318.036 261.728C318.884 261.078 319.308 260.244 319.308 259.226V257.699C319.308 257.558 319.237 257.487 319.096 257.487H316.043C314.77 257.487 313.767 257.728 313.031 258.208C312.325 258.689 311.971 259.368 311.971 260.244C311.971 261.007 312.24 261.615 312.777 262.068C313.314 262.492 314.035 262.704 314.94 262.704ZM340.707 249.302C340.707 249.444 340.65 249.571 340.537 249.684C340.453 249.769 340.339 249.811 340.198 249.811H336.127C335.985 249.811 335.915 249.882 335.915 250.023V259.014C335.915 259.947 336.098 260.64 336.466 261.092C336.862 261.545 337.484 261.771 338.332 261.771H339.732C339.873 261.771 339.986 261.827 340.071 261.94C340.184 262.025 340.24 262.138 340.24 262.28V266.309C340.24 266.62 340.071 266.803 339.732 266.86C338.544 266.916 337.696 266.945 337.187 266.945C334.84 266.945 333.087 266.563 331.928 265.8C330.769 265.008 330.175 263.538 330.147 261.389V250.023C330.147 249.882 330.076 249.811 329.935 249.811H327.518C327.376 249.811 327.249 249.769 327.136 249.684C327.051 249.571 327.009 249.444 327.009 249.302V245.528C327.009 245.387 327.051 245.273 327.136 245.189C327.249 245.076 327.376 245.019 327.518 245.019H329.935C330.076 245.019 330.147 244.948 330.147 244.807V239.76C330.147 239.619 330.189 239.506 330.274 239.421C330.387 239.308 330.515 239.251 330.656 239.251H335.406C335.547 239.251 335.66 239.308 335.745 239.421C335.858 239.506 335.915 239.619 335.915 239.76V244.807C335.915 244.948 335.985 245.019 336.127 245.019H340.198C340.339 245.019 340.453 245.076 340.537 245.189C340.65 245.273 340.707 245.387 340.707 245.528V249.302ZM362.465 253.671C362.635 254.745 362.691 255.946 362.635 257.275C362.606 257.615 362.423 257.784 362.083 257.784H348.979C348.809 257.784 348.753 257.855 348.809 257.996C348.894 258.562 349.049 259.127 349.276 259.693C350.011 261.276 351.509 262.068 353.771 262.068C355.581 262.039 357.008 261.304 358.054 259.862C358.168 259.693 358.295 259.608 358.436 259.608C358.521 259.608 358.62 259.664 358.733 259.777L361.786 262.789C361.928 262.93 361.999 263.057 361.999 263.17C361.999 263.227 361.942 263.34 361.829 263.51C360.896 264.669 359.694 265.573 358.224 266.224C356.754 266.846 355.142 267.157 353.389 267.157C350.958 267.157 348.894 266.605 347.198 265.503C345.53 264.4 344.328 262.859 343.593 260.88C342.999 259.466 342.702 257.615 342.702 255.324C342.702 253.769 342.914 252.398 343.338 251.211C343.989 249.203 345.12 247.606 346.731 246.419C348.371 245.231 350.308 244.637 352.541 244.637C355.369 244.637 357.63 245.457 359.327 247.097C361.051 248.737 362.097 250.928 362.465 253.671ZM352.584 249.811C350.802 249.811 349.629 250.645 349.064 252.313C348.951 252.681 348.852 253.133 348.767 253.671C348.767 253.812 348.837 253.883 348.979 253.883H356.316C356.485 253.883 356.542 253.812 356.485 253.671C356.344 252.851 356.273 252.455 356.273 252.483C356.019 251.635 355.566 250.985 354.916 250.532C354.294 250.052 353.517 249.811 352.584 249.811Z"></path>
<path fill="#04C8BB" d="M137.201 235.37L131.057 249.733H139.994C141.031 249.733 141.989 250.372 142.388 251.329C142.707 252.367 142.468 253.484 141.67 254.202L121.241 272.077C120.284 272.795 119.007 272.875 118.05 272.156C117.092 271.518 116.693 270.241 117.172 269.124L123.316 254.76H114.459C113.341 254.76 112.384 254.122 112.065 253.165C111.666 252.127 111.905 251.01 112.703 250.292L133.131 232.417C134.089 231.699 135.366 231.619 136.323 232.337C137.281 232.976 137.68 234.252 137.201 235.37Z"></path>
</g>
<line stroke-width="0.703501" stroke="#16A394" y2="309.97" x2="423.82" y1="191.375" x1="423.821"></line>
<g filter="url(#filter1_dddd_977_14782)">
<mask fill="black" height="97" width="160" y="201.928" x="487.564" maskUnits="userSpaceOnUse" id="path-31-outside-1_977_14782">
<rect height="97" width="160" y="201.928" x="487.564" fill="white"></rect>
<path d="M523.155 297.984C516.381 297.984 510.398 296.62 505.208 293.893C500.017 291.166 495.97 287.383 493.067 282.544C490.251 277.617 488.844 271.942 488.844 265.52V235.959C488.844 229.537 490.251 223.862 493.067 218.935C495.97 214.008 500.017 210.225 505.208 207.586C510.398 204.859 516.381 203.495 523.155 203.495C529.842 203.495 535.736 204.815 540.839 207.454C546.03 210.093 550.033 213.7 552.848 218.275C555.751 222.762 557.203 227.777 557.203 233.32V234.243C557.203 234.683 557.027 235.079 556.675 235.431C556.411 235.695 556.059 235.827 555.619 235.827H540.179C539.739 235.827 539.343 235.695 538.992 235.431C538.728 235.079 538.596 234.683 538.596 234.243V233.848C538.596 229.801 537.188 226.413 534.373 223.686C531.557 220.871 527.818 219.463 523.155 219.463C518.404 219.463 514.577 220.959 511.674 223.95C508.859 226.853 507.451 230.68 507.451 235.431V266.048C507.451 270.799 508.991 274.67 512.07 277.661C515.149 280.564 519.064 282.016 523.815 282.016C528.39 282.016 532.041 280.828 534.769 278.453C537.496 275.989 538.86 272.602 538.86 268.291V262.353C538.86 261.913 538.64 261.693 538.2 261.693H523.419C522.979 261.693 522.583 261.561 522.232 261.297C521.968 260.945 521.836 260.549 521.836 260.109V247.968C521.836 247.528 521.968 247.176 522.232 246.912C522.583 246.561 522.979 246.385 523.419 246.385H555.619C556.059 246.385 556.411 246.561 556.675 246.912C557.027 247.176 557.203 247.528 557.203 247.968V265.388C557.203 272.074 555.795 277.881 552.98 282.808C550.165 287.735 546.162 291.518 540.971 294.157C535.868 296.708 529.93 297.984 523.155 297.984ZM628.16 296.928C627.28 296.928 626.708 296.488 626.444 295.609L622.485 282.676C622.309 282.324 622.089 282.148 621.825 282.148H589.361C589.097 282.148 588.877 282.324 588.701 282.676L584.874 295.609C584.61 296.488 584.038 296.928 583.159 296.928H566.399C565.871 296.928 565.475 296.796 565.211 296.532C564.947 296.181 564.903 295.697 565.079 295.081L593.584 205.87C593.848 204.991 594.42 204.551 595.3 204.551H616.019C616.898 204.551 617.47 204.991 617.734 205.87L646.239 295.081C646.327 295.257 646.371 295.477 646.371 295.741C646.371 296.532 645.887 296.928 644.92 296.928H628.16ZM593.452 266.972C593.364 267.499 593.54 267.763 593.98 267.763H617.206C617.734 267.763 617.91 267.499 617.734 266.972L605.857 227.777C605.769 227.425 605.637 227.293 605.461 227.381C605.285 227.381 605.153 227.513 605.065 227.777L593.452 266.972Z"></path>
</mask>
<path fill="#1A202C" d="M523.155 297.984C516.381 297.984 510.398 296.62 505.208 293.893C500.017 291.166 495.97 287.383 493.067 282.544C490.251 277.617 488.844 271.942 488.844 265.52V235.959C488.844 229.537 490.251 223.862 493.067 218.935C495.97 214.008 500.017 210.225 505.208 207.586C510.398 204.859 516.381 203.495 523.155 203.495C529.842 203.495 535.736 204.815 540.839 207.454C546.03 210.093 550.033 213.7 552.848 218.275C555.751 222.762 557.203 227.777 557.203 233.32V234.243C557.203 234.683 557.027 235.079 556.675 235.431C556.411 235.695 556.059 235.827 555.619 235.827H540.179C539.739 235.827 539.343 235.695 538.992 235.431C538.728 235.079 538.596 234.683 538.596 234.243V233.848C538.596 229.801 537.188 226.413 534.373 223.686C531.557 220.871 527.818 219.463 523.155 219.463C518.404 219.463 514.577 220.959 511.674 223.95C508.859 226.853 507.451 230.68 507.451 235.431V266.048C507.451 270.799 508.991 274.67 512.07 277.661C515.149 280.564 519.064 282.016 523.815 282.016C528.39 282.016 532.041 280.828 534.769 278.453C537.496 275.989 538.86 272.602 538.86 268.291V262.353C538.86 261.913 538.64 261.693 538.2 261.693H523.419C522.979 261.693 522.583 261.561 522.232 261.297C521.968 260.945 521.836 260.549 521.836 260.109V247.968C521.836 247.528 521.968 247.176 522.232 246.912C522.583 246.561 522.979 246.385 523.419 246.385H555.619C556.059 246.385 556.411 246.561 556.675 246.912C557.027 247.176 557.203 247.528 557.203 247.968V265.388C557.203 272.074 555.795 277.881 552.98 282.808C550.165 287.735 546.162 291.518 540.971 294.157C535.868 296.708 529.93 297.984 523.155 297.984ZM628.16 296.928C627.28 296.928 626.708 296.488 626.444 295.609L622.485 282.676C622.309 282.324 622.089 282.148 621.825 282.148H589.361C589.097 282.148 588.877 282.324 588.701 282.676L584.874 295.609C584.61 296.488 584.038 296.928 583.159 296.928H566.399C565.871 296.928 565.475 296.796 565.211 296.532C564.947 296.181 564.903 295.697 565.079 295.081L593.584 205.87C593.848 204.991 594.42 204.551 595.3 204.551H616.019C616.898 204.551 617.47 204.991 617.734 205.87L646.239 295.081C646.327 295.257 646.371 295.477 646.371 295.741C646.371 296.532 645.887 296.928 644.92 296.928H628.16ZM593.452 266.972C593.364 267.499 593.54 267.763 593.98 267.763H617.206C617.734 267.763 617.91 267.499 617.734 266.972L605.857 227.777C605.769 227.425 605.637 227.293 605.461 227.381C605.285 227.381 605.153 227.513 605.065 227.777L593.452 266.972Z"></path>
<path mask="url(#path-31-outside-1_977_14782)" fill="#71E8DF" d="M505.208 293.893L505.643 293.064L505.208 293.893ZM493.067 282.544L492.254 283.008L492.259 283.017L492.264 283.026L493.067 282.544ZM493.067 218.935L492.26 218.46L492.254 218.471L493.067 218.935ZM505.208 207.586L505.632 208.421L505.643 208.415L505.208 207.586ZM540.839 207.454L540.409 208.286L540.415 208.289L540.839 207.454ZM552.848 218.275L552.051 218.766L552.056 218.775L552.062 218.784L552.848 218.275ZM556.675 235.431L557.337 236.093L557.337 236.093L556.675 235.431ZM538.992 235.431L538.242 235.993L538.323 236.1L538.43 236.18L538.992 235.431ZM534.373 223.686L533.711 224.348L533.716 224.353L533.721 224.359L534.373 223.686ZM511.674 223.95L511.002 223.298L511.002 223.298L511.674 223.95ZM512.07 277.661L511.418 278.333L511.428 278.342L512.07 277.661ZM534.769 278.453L535.383 279.159L535.39 279.153L535.396 279.148L534.769 278.453ZM522.232 261.297L521.482 261.859L521.563 261.966L521.67 262.046L522.232 261.297ZM556.675 246.912L555.926 247.474L556.006 247.581L556.113 247.662L556.675 246.912ZM552.98 282.808L553.793 283.272L552.98 282.808ZM540.971 294.157L541.39 294.995L541.395 294.992L540.971 294.157ZM523.155 297.048C516.509 297.048 510.68 295.711 505.643 293.064L504.772 294.722C510.117 297.53 516.253 298.92 523.155 298.92V297.048ZM505.643 293.064C500.598 290.413 496.681 286.748 493.869 282.062L492.264 283.026C495.259 288.018 499.436 291.918 504.772 294.722L505.643 293.064ZM493.88 282.079C491.155 277.312 489.78 271.801 489.78 265.52H487.907C487.907 272.083 489.347 277.922 492.254 283.008L493.88 282.079ZM489.78 265.52V235.959H487.907V265.52H489.78ZM489.78 235.959C489.78 229.678 491.155 224.167 493.88 219.4L492.254 218.471C489.347 223.557 487.907 229.396 487.907 235.959H489.78ZM493.873 219.411C496.684 214.64 500.597 210.981 505.632 208.421L504.783 206.751C499.437 209.47 495.256 213.376 492.26 218.46L493.873 219.411ZM505.643 208.415C510.68 205.768 516.509 204.431 523.155 204.431V202.559C516.253 202.559 510.117 203.949 504.772 206.757L505.643 208.415ZM523.155 204.431C529.717 204.431 535.459 205.726 540.409 208.286L541.269 206.622C536.013 203.904 529.967 202.559 523.155 202.559V204.431ZM540.415 208.289C545.465 210.857 549.333 214.35 552.051 218.766L553.646 217.785C550.732 213.051 546.594 209.33 541.263 206.619L540.415 208.289ZM552.062 218.784C554.864 223.114 556.267 227.95 556.267 233.32H558.139C558.139 227.604 556.639 222.411 553.634 217.767L552.062 218.784ZM556.267 233.32V234.243H558.139V233.32H556.267ZM556.267 234.243C556.267 234.402 556.215 234.568 556.013 234.769L557.337 236.093C557.84 235.591 558.139 234.965 558.139 234.243H556.267ZM556.013 234.769C555.956 234.826 555.859 234.891 555.619 234.891V236.763C556.26 236.763 556.867 236.564 557.337 236.093L556.013 234.769ZM555.619 234.891H540.179V236.763H555.619V234.891ZM540.179 234.891C539.942 234.891 539.743 234.825 539.553 234.682L538.43 236.18C538.944 236.566 539.537 236.763 540.179 236.763V234.891ZM539.741 234.869C539.598 234.68 539.532 234.481 539.532 234.243H537.659C537.659 234.886 537.857 235.479 538.242 235.993L539.741 234.869ZM539.532 234.243V233.848H537.659V234.243H539.532ZM539.532 233.848C539.532 229.556 538.028 225.924 535.024 223.014L533.721 224.359C536.348 226.903 537.659 230.045 537.659 233.848H539.532ZM535.035 223.024C532.014 220.003 528.021 218.527 523.155 218.527V220.399C527.616 220.399 531.101 221.738 533.711 224.348L535.035 223.024ZM523.155 218.527C518.19 218.527 514.107 220.099 511.002 223.298L512.346 224.602C515.048 221.818 518.619 220.399 523.155 220.399V218.527ZM511.002 223.298C507.988 226.406 506.515 230.483 506.515 235.431H508.387C508.387 230.878 509.73 227.3 512.346 224.602L511.002 223.298ZM506.515 235.431V266.048H508.387V235.431H506.515ZM506.515 266.048C506.515 271.022 508.137 275.145 511.418 278.333L512.722 276.989C509.845 274.194 508.387 270.575 508.387 266.048H506.515ZM511.428 278.342C514.702 281.43 518.857 282.952 523.815 282.952V281.08C519.271 281.08 515.596 279.699 512.712 276.98L511.428 278.342ZM523.815 282.952C528.554 282.952 532.444 281.719 535.383 279.159L534.154 277.747C531.638 279.938 528.226 281.08 523.815 281.08V282.952ZM535.396 279.148C538.354 276.476 539.796 272.817 539.796 268.291H537.923C537.923 272.388 536.637 275.503 534.141 277.758L535.396 279.148ZM539.796 268.291V262.353H537.923V268.291H539.796ZM539.796 262.353C539.796 261.988 539.704 261.543 539.357 261.196C539.009 260.848 538.564 260.757 538.2 260.757V262.629C538.275 262.629 538.16 262.647 538.032 262.52C537.905 262.392 537.923 262.277 537.923 262.353H539.796ZM538.2 260.757H523.419V262.629H538.2V260.757ZM523.419 260.757C523.182 260.757 522.983 260.69 522.793 260.548L521.67 262.046C522.184 262.432 522.777 262.629 523.419 262.629V260.757ZM522.981 260.735C522.838 260.545 522.772 260.347 522.772 260.109H520.899C520.899 260.752 521.097 261.345 521.482 261.859L522.981 260.735ZM522.772 260.109V247.968H520.899V260.109H522.772ZM522.772 247.968C522.772 247.729 522.836 247.632 522.894 247.575L521.569 246.25C521.099 246.721 520.899 247.328 520.899 247.968H522.772ZM522.894 247.575C523.095 247.373 523.261 247.321 523.419 247.321V245.448C522.698 245.448 522.072 245.748 521.569 246.25L522.894 247.575ZM523.419 247.321H555.619V245.448H523.419V247.321ZM555.619 247.321C555.765 247.321 555.839 247.358 555.926 247.474L557.424 246.351C556.984 245.763 556.354 245.448 555.619 245.448V247.321ZM556.113 247.662C556.23 247.749 556.267 247.823 556.267 247.968H558.139C558.139 247.234 557.825 246.604 557.237 246.163L556.113 247.662ZM556.267 247.968V265.388H558.139V247.968H556.267ZM556.267 265.388C556.267 271.941 554.888 277.581 552.167 282.343L553.793 283.272C556.703 278.181 558.139 272.208 558.139 265.388H556.267ZM552.167 282.343C549.445 287.107 545.579 290.764 540.547 293.322L541.395 294.992C546.744 292.272 550.885 288.362 553.793 283.272L552.167 282.343ZM540.552 293.32C535.602 295.795 529.811 297.048 523.155 297.048V298.92C530.048 298.92 536.135 297.622 541.39 294.995L540.552 293.32ZM626.444 295.609L627.341 295.34L627.339 295.335L626.444 295.609ZM622.485 282.676L623.38 282.402L623.358 282.327L623.323 282.257L622.485 282.676ZM588.701 282.676L587.864 282.257L587.827 282.331L587.803 282.41L588.701 282.676ZM584.874 295.609L585.771 295.878L585.772 295.874L584.874 295.609ZM565.211 296.532L564.462 297.094L564.502 297.147L564.549 297.195L565.211 296.532ZM565.079 295.081L564.187 294.796L564.183 294.81L564.179 294.824L565.079 295.081ZM593.584 205.87L594.476 206.155L594.478 206.147L594.481 206.139L593.584 205.87ZM617.734 205.87L616.837 206.139L616.84 206.147L616.842 206.155L617.734 205.87ZM646.239 295.081L645.347 295.366L645.369 295.435L645.402 295.5L646.239 295.081ZM593.452 266.972L592.554 266.706L592.538 266.761L592.528 266.818L593.452 266.972ZM617.734 266.972L616.838 267.243L616.842 267.255L616.846 267.268L617.734 266.972ZM605.857 227.777L604.949 228.004L604.954 228.027L604.961 228.049L605.857 227.777ZM605.461 227.381V228.317H605.682L605.88 228.219L605.461 227.381ZM605.065 227.777L604.177 227.481L604.172 227.496L604.168 227.511L605.065 227.777ZM628.16 295.992C627.88 295.992 627.731 295.925 627.642 295.856C627.549 295.785 627.432 295.643 627.341 295.34L625.547 295.878C625.72 296.454 626.021 296.972 626.5 297.341C626.983 297.712 627.56 297.865 628.16 297.865V295.992ZM627.339 295.335L623.38 282.402L621.59 282.95L625.549 295.883L627.339 295.335ZM623.323 282.257C623.075 281.762 622.604 281.212 621.825 281.212V283.084C621.785 283.084 621.74 283.077 621.695 283.061C621.651 283.045 621.62 283.025 621.603 283.011C621.574 282.988 621.598 282.995 621.648 283.095L623.323 282.257ZM621.825 281.212H589.361V283.084H621.825V281.212ZM589.361 281.212C588.582 281.212 588.111 281.762 587.864 282.257L589.539 283.095C589.589 282.995 589.612 282.988 589.583 283.011C589.566 283.025 589.535 283.045 589.491 283.061C589.447 283.077 589.401 283.084 589.361 283.084V281.212ZM587.803 282.41L583.976 295.343L585.772 295.874L589.599 282.942L587.803 282.41ZM583.977 295.34C583.886 295.643 583.769 295.785 583.676 295.856C583.588 295.925 583.438 295.992 583.159 295.992V297.865C583.758 297.865 584.335 297.712 584.818 297.341C585.297 296.972 585.598 296.454 585.771 295.878L583.977 295.34ZM583.159 295.992H566.399V297.865H583.159V295.992ZM566.399 295.992C566.015 295.992 565.899 295.897 565.873 295.87L564.549 297.195C565.05 297.696 565.726 297.865 566.399 297.865V295.992ZM565.96 295.971C565.941 295.946 565.845 295.807 565.979 295.338L564.179 294.824C563.961 295.587 563.952 296.415 564.462 297.094L565.96 295.971ZM565.971 295.366L594.476 206.155L592.692 205.585L564.187 294.796L565.971 295.366ZM594.481 206.139C594.572 205.836 594.689 205.694 594.782 205.623C594.871 205.554 595.02 205.487 595.3 205.487V203.614C594.7 203.614 594.123 203.767 593.64 204.138C593.161 204.507 592.86 205.025 592.687 205.601L594.481 206.139ZM595.3 205.487H616.019V203.614H595.3V205.487ZM616.019 205.487C616.299 205.487 616.448 205.554 616.536 205.623C616.629 205.694 616.746 205.836 616.837 206.139L618.631 205.601C618.458 205.025 618.158 204.507 617.678 204.138C617.195 203.767 616.619 203.614 616.019 203.614V205.487ZM616.842 206.155L645.347 295.366L647.131 294.796L618.626 205.585L616.842 206.155ZM645.402 295.5C645.407 295.509 645.435 295.575 645.435 295.741H647.308C647.308 295.379 647.248 295.005 647.077 294.662L645.402 295.5ZM645.435 295.741C645.435 295.845 645.419 295.894 645.413 295.907C645.411 295.913 645.41 295.914 645.412 295.911C645.414 295.908 645.416 295.906 645.415 295.907C645.411 295.91 645.3 295.992 644.92 295.992V297.865C645.507 297.865 646.122 297.748 646.601 297.356C647.117 296.935 647.308 296.336 647.308 295.741H645.435ZM644.92 295.992H628.16V297.865H644.92V295.992ZM592.528 266.818C592.47 267.166 592.454 267.657 592.739 268.085C593.063 268.571 593.579 268.7 593.98 268.7V266.827C593.959 266.827 593.998 266.823 594.068 266.853C594.148 266.888 594.235 266.952 594.297 267.046C594.355 267.132 594.365 267.202 594.366 267.215C594.367 267.225 594.363 267.2 594.376 267.126L592.528 266.818ZM593.98 268.7H617.206V266.827H593.98V268.7ZM617.206 268.7C617.573 268.7 618.161 268.614 618.513 268.085C618.85 267.58 618.736 267.015 618.622 266.676L616.846 267.268C616.87 267.34 616.864 267.351 616.864 267.318C616.864 267.278 616.874 267.168 616.955 267.046C617.039 266.92 617.147 266.86 617.208 266.837C617.258 266.818 617.268 266.827 617.206 266.827V268.7ZM618.63 266.7L606.753 227.506L604.961 228.049L616.838 267.243L618.63 266.7ZM606.765 227.55C606.713 227.338 606.608 227.006 606.354 226.752C606.207 226.605 605.994 226.469 605.717 226.429C605.446 226.391 605.212 226.459 605.042 226.544L605.88 228.219C605.799 228.259 605.647 228.311 605.452 228.283C605.253 228.255 605.111 228.157 605.03 228.076C604.958 228.004 604.931 227.944 604.93 227.942C604.928 227.936 604.936 227.953 604.949 228.004L606.765 227.55ZM605.461 226.445C604.663 226.445 604.306 227.095 604.177 227.481L605.954 228.073C605.972 228.017 605.967 228.067 605.892 228.142C605.851 228.184 605.789 228.231 605.706 228.267C605.622 228.302 605.537 228.317 605.461 228.317V226.445ZM604.168 227.511L592.554 266.706L594.35 267.238L605.963 228.043L604.168 227.511Z"></path>
</g>
<path fill="white" d="M378.178 70.4856C377.897 70.9439 377.902 71.5221 378.19 71.9761L383.399 80.1932C383.737 80.7266 384.388 80.9697 384.993 80.7883L400.025 76.2786C400.846 76.0325 401.259 75.1174 400.9 74.3396L391.237 53.3774C390.765 52.3552 389.345 52.2712 388.756 53.2309L378.178 70.4856ZM390.98 58.1696C390.774 57.6944 390.079 57.7676 389.977 58.2752L386.257 76.7995C386.178 77.1901 386.544 77.5237 386.926 77.4097L397.312 74.3094C397.615 74.2189 397.771 73.8841 397.645 73.5936L390.98 58.1696Z" clip-rule="evenodd" fill-rule="evenodd"></path>
<path fill="white" d="M410.036 66.6491H410.951C411.807 66.6491 412.447 66.4802 412.872 66.142C413.297 65.8039 413.509 65.3117 413.509 64.6655C413.509 64.0136 413.331 63.5319 412.975 63.2207C412.619 62.9095 412.061 62.7539 411.301 62.7539H410.036V66.6491ZM416.319 64.567C416.319 65.9792 415.877 67.0589 414.995 67.8068C414.112 68.5551 412.857 68.9287 411.23 68.9287H410.036V73.5959H407.254V60.4744H411.445C413.037 60.4744 414.247 60.817 415.076 61.5018C415.904 62.187 416.319 63.2087 416.319 64.567Z" clip-rule="evenodd" fill-rule="evenodd"></path>
<path fill="white" d="M423.694 63.373C424.065 63.373 424.373 63.3999 424.619 63.4538L424.412 66.0205C424.191 65.9609 423.922 65.9308 423.605 65.9308C422.731 65.9308 422.05 66.1552 421.562 66.6039C421.075 67.0527 420.831 67.6811 420.831 68.4889V73.5957H418.094V63.5616H420.167L420.571 65.2488H420.705C421.017 64.6866 421.437 64.2331 421.967 63.8889C422.496 63.5451 423.072 63.373 423.694 63.373Z" clip-rule="evenodd" fill-rule="evenodd"></path>
<path fill="white" d="M426.067 73.5956H428.804V63.5615H426.067V73.5956ZM425.951 60.9676C425.951 60.0761 426.448 59.6305 427.441 59.6305C428.434 59.6305 428.931 60.0761 428.931 60.9676C428.931 61.3926 428.807 61.7231 428.558 61.9595C428.31 62.1959 427.938 62.3138 427.441 62.3138C426.448 62.3138 425.951 61.8651 425.951 60.9676Z" clip-rule="evenodd" fill-rule="evenodd"></path>
<path fill="white" d="M438.445 70.6159C438.445 71.6453 438.087 72.429 437.372 72.9674C436.657 73.5059 435.588 73.7753 434.164 73.7753C433.434 73.7753 432.812 73.7258 432.297 73.6269C431.783 73.5284 431.301 73.3832 430.852 73.1918V70.93C431.361 71.1696 431.933 71.3699 432.571 71.5315C433.208 71.6928 433.769 71.7736 434.253 71.7736C435.247 71.7736 435.744 71.4865 435.744 70.9123C435.744 70.6968 435.678 70.5218 435.546 70.3871C435.414 70.2524 435.187 70.1 434.864 69.9292C434.541 69.7587 434.11 69.56 433.571 69.3324C432.8 69.0095 432.233 68.7103 431.871 68.4349C431.509 68.1599 431.245 67.8442 431.081 67.488C430.916 67.1321 430.834 66.6938 430.834 66.1731C430.834 65.2817 431.179 64.5924 431.871 64.1046C432.562 63.6169 433.541 63.3732 434.81 63.3732C436.019 63.3732 437.194 63.6366 438.337 64.163L437.512 66.1373C437.009 65.9218 436.539 65.7456 436.102 65.6078C435.666 65.4702 435.22 65.4015 434.765 65.4015C433.957 65.4015 433.553 65.6198 433.553 66.0565C433.553 66.3021 433.684 66.5145 433.944 66.6938C434.204 66.8732 434.774 67.1397 435.654 67.4928C436.438 67.81 437.012 68.106 437.377 68.3811C437.742 68.6565 438.011 68.9734 438.185 69.3324C438.358 69.6915 438.445 70.1193 438.445 70.6159Z" clip-rule="evenodd" fill-rule="evenodd"></path>
<path fill="white" d="M449.289 73.5957H446.551V67.735C446.551 67.0112 446.43 66.468 446.188 66.1061C445.945 65.7441 445.564 65.5629 445.043 65.5629C444.344 65.5629 443.835 65.8202 443.518 66.3349C443.201 66.8495 443.042 67.696 443.042 68.8749V73.5957H440.305V63.5616H442.396L442.764 64.8451H442.917C443.186 64.3843 443.575 64.0236 444.083 63.7634C444.592 63.5032 445.175 63.373 445.834 63.373C447.335 63.373 448.352 63.8639 448.885 64.8451H449.127C449.397 64.3782 449.793 64.0163 450.317 63.759C450.84 63.5017 451.431 63.373 452.089 63.373C453.226 63.373 454.086 63.6649 454.669 64.248C455.253 64.8314 455.544 65.7663 455.544 67.0527V73.5957H452.798V67.735C452.798 67.0112 452.677 66.468 452.435 66.1061C452.192 65.7441 451.811 65.5629 451.29 65.5629C450.62 65.5629 450.119 65.8025 449.787 66.281C449.455 66.7598 449.289 67.5195 449.289 68.5605V73.5957Z" clip-rule="evenodd" fill-rule="evenodd"></path>
<path fill="white" d="M463.51 68.9468L462.451 68.9826C461.655 69.0067 461.063 69.1503 460.674 69.4136C460.285 69.677 460.091 70.0776 460.091 70.6163C460.091 71.388 460.533 71.774 461.419 71.774C462.053 71.774 462.56 71.5915 462.94 71.2264C463.32 70.8616 463.51 70.3771 463.51 69.7724V68.9468ZM464.318 73.5956L463.788 72.2313H463.716C463.255 72.8119 462.781 73.214 462.294 73.4384C461.806 73.6628 461.17 73.775 460.387 73.775C459.423 73.775 458.665 73.4999 458.111 72.9494C457.558 72.3989 457.281 71.6152 457.281 70.5979C457.281 69.5331 457.654 68.7478 458.398 68.242C459.144 67.7365 460.267 67.4567 461.769 67.4028L463.51 67.3489V66.9091C463.51 65.8921 462.989 65.3834 461.948 65.3834C461.146 65.3834 460.204 65.6256 459.121 66.1104L458.215 64.2616C459.369 63.6572 460.65 63.3549 462.056 63.3549C463.402 63.3549 464.434 63.6483 465.152 64.2346C465.87 64.8209 466.229 65.7124 466.229 66.9091V73.5956H464.318Z" clip-rule="evenodd" fill-rule="evenodd"></path>
</g>
<defs>
<filter color-interpolation-filters="sRGB" filterUnits="userSpaceOnUse" height="49.2556" width="259.053" y="231.619" x="107.666" id="filter0_d_977_14782">
<feFlood result="BackgroundImageFix" flood-opacity="0"></feFlood>
<feColorMatrix result="hardAlpha" values="0 0 0 0 0 0 0 0 0 0 0 0 0 0 0 0 0 0 127 0" type="matrix" in="SourceAlpha"></feColorMatrix>
<feOffset dy="4"></feOffset>
<feGaussianBlur stdDeviation="2"></feGaussianBlur>
<feComposite operator="out" in2="hardAlpha"></feComposite>
<feColorMatrix values="0 0 0 0 0 0 0 0 0 0 0 0 0 0 0 0 0 0 0.25 0" type="matrix"></feColorMatrix>
<feBlend result="effect1_dropShadow_977_14782" in2="BackgroundImageFix" mode="normal"></feBlend>
<feBlend result="shape" in2="effect1_dropShadow_977_14782" in="SourceGraphic" mode="normal"></feBlend>
</filter>
<filter color-interpolation-filters="sRGB" filterUnits="userSpaceOnUse" height="406.599" width="469.637" y="47.4402" x="332.789" id="filter1_dddd_977_14782">
<feFlood result="BackgroundImageFix" flood-opacity="0"></feFlood>
<feColorMatrix result="hardAlpha" values="0 0 0 0 0 0 0 0 0 0 0 0 0 0 0 0 0 0 127 0" type="matrix" in="SourceAlpha"></feColorMatrix>
<feOffset></feOffset>
<feGaussianBlur stdDeviation="17.4781"></feGaussianBlur>
<feComposite operator="out" in2="hardAlpha"></feComposite>
<feColorMatrix values="0 0 0 0 0.443137 0 0 0 0 0.909804 0 0 0 0 0.87451 0 0 0 0.15 0" type="matrix"></feColorMatrix>
<feBlend result="effect1_dropShadow_977_14782" in2="BackgroundImageFix" mode="normal"></feBlend>
<feColorMatrix result="hardAlpha" values="0 0 0 0 0 0 0 0 0 0 0 0 0 0 0 0 0 0 127 0" type="matrix" in="SourceAlpha"></feColorMatrix>
<feOffset></feOffset>
<feGaussianBlur stdDeviation="3.4332"></feGaussianBlur>
<feComposite operator="out" in2="hardAlpha"></feComposite>
<feColorMatrix values="0 0 0 0 0.0235294 0 0 0 0 0.729412 0 0 0 0 0.686275 0 0 0 0.75 0" type="matrix"></feColorMatrix>
<feBlend result="effect2_dropShadow_977_14782" in2="effect1_dropShadow_977_14782" mode="normal"></feBlend>
<feColorMatrix result="hardAlpha" values="0 0 0 0 0 0 0 0 0 0 0 0 0 0 0 0 0 0 127 0" type="matrix" in="SourceAlpha"></feColorMatrix>
<feOffset></feOffset>
<feGaussianBlur stdDeviation="78.0274"></feGaussianBlur>
<feComposite operator="out" in2="hardAlpha"></feComposite>
<feColorMatrix values="0 0 0 0 0.0156863 0 0 0 0 0.784314 0 0 0 0 0.733333 0 0 0 0.3 0" type="matrix"></feColorMatrix>
<feBlend result="effect3_dropShadow_977_14782" in2="effect2_dropShadow_977_14782" mode="normal"></feBlend>
<feColorMatrix result="hardAlpha" values="0 0 0 0 0 0 0 0 0 0 0 0 0 0 0 0 0 0 127 0" type="matrix" in="SourceAlpha"></feColorMatrix>
<feOffset></feOffset>
<feGaussianBlur stdDeviation="4.68164"></feGaussianBlur>
<feComposite operator="out" in2="hardAlpha"></feComposite>
<feColorMatrix values="0 0 0 0 0.101961 0 0 0 0 0.12549 0 0 0 0 0.172549 0 0 0 0.5 0" type="matrix"></feColorMatrix>
<feBlend result="effect4_dropShadow_977_14782" in2="effect3_dropShadow_977_14782" mode="normal"></feBlend>
<feBlend result="shape" in2="effect4_dropShadow_977_14782" in="SourceGraphic" mode="normal"></feBlend>
</filter>
<linearGradient gradientUnits="userSpaceOnUse" y2="212.958" x2="379.837" y1="269.256" x1="741.092" id="paint0_linear_977_14782">
<stop stop-color="#04C8BB"></stop>
<stop stop-opacity="0" stop-color="#04C8BB" offset="0.75"></stop>
</linearGradient>
<linearGradient gradientUnits="userSpaceOnUse" y2="169.615" x2="370.444" y1="274.428" x1="765.133" id="paint1_linear_977_14782">
<stop stop-color="#04C8BB"></stop>
<stop stop-opacity="0" stop-color="#04C8BB" offset="0.75"></stop>
</linearGradient>
<linearGradient gradientUnits="userSpaceOnUse" y2="75.0675" x2="347.696" y1="287.079" x1="763.756" id="paint2_linear_977_14782">
<stop stop-color="#04C8BB"></stop>
<stop stop-opacity="0" stop-color="#04C8BB" offset="0.75"></stop>
</linearGradient>
<linearGradient gradientUnits="userSpaceOnUse" y2="0.403011" x2="386.648" y1="297.033" x1="802.07" id="paint3_linear_977_14782">
<stop stop-color="#04C8BB"></stop>
<stop stop-opacity="0" stop-color="#04C8BB" offset="0.75"></stop>
</linearGradient>
<linearGradient gradientUnits="userSpaceOnUse" y2="131.724" x2="759.748" y1="593.687" x1="820.365" id="paint4_linear_977_14782">
<stop stop-color="#04C8BB"></stop>
<stop stop-opacity="0" stop-color="#04C8BB" offset="1"></stop>
</linearGradient>
<linearGradient gradientUnits="userSpaceOnUse" y2="43.2467" x2="416.006" y1="298.136" x1="756.361" id="paint5_linear_977_14782">
<stop stop-color="#04C8BB"></stop>
<stop stop-opacity="0" stop-color="#04C8BB" offset="1"></stop>
</linearGradient>
<linearGradient gradientUnits="userSpaceOnUse" y2="203.635" x2="303.056" y1="499.562" x1="682.19" id="paint6_linear_977_14782">
<stop stop-color="#04C8BB"></stop>
<stop stop-opacity="0" stop-color="#04C8BB" offset="1"></stop>
</linearGradient>
<linearGradient gradientUnits="userSpaceOnUse" y2="30.8224" x2="388.896" y1="395.272" x1="748.452" id="paint7_linear_977_14782">
<stop stop-color="#04C8BB"></stop>
<stop stop-opacity="0" stop-color="#04C8BB" offset="1"></stop>
</linearGradient>
<linearGradient gradientUnits="userSpaceOnUse" y2="193.093" x2="251.854" y1="656.185" x1="656.966" id="paint8_linear_977_14782">
<stop stop-color="#04C8BB"></stop>
<stop stop-opacity="0" stop-color="#04C8BB" offset="1"></stop>
</linearGradient>
<linearGradient gradientUnits="userSpaceOnUse" y2="90.4077" x2="685.481" y1="598.958" x1="796.27" id="paint9_linear_977_14782">
<stop stop-color="#04C8BB"></stop>
<stop stop-opacity="0" stop-color="#04C8BB" offset="1"></stop>
</linearGradient>
<linearGradient gradientUnits="userSpaceOnUse" y2="16.4249" x2="384.365" y1="431.317" x1="768.669" id="paint10_linear_977_14782">
<stop stop-color="#04C8BB"></stop>
<stop stop-opacity="0" stop-color="#04C8BB" offset="1"></stop>
</linearGradient>
<linearGradient gradientUnits="userSpaceOnUse" y2="39.2046" x2="373.084" y1="450.879" x1="749.091" id="paint11_linear_977_14782">
<stop stop-color="#04C8BB"></stop>
<stop stop-opacity="0" stop-color="#04C8BB" offset="1"></stop>
</linearGradient>
<linearGradient gradientUnits="userSpaceOnUse" y2="110.64" x2="322.633" y1="462.665" x1="672.4" id="paint12_linear_977_14782">
<stop stop-color="#04C8BB"></stop>
<stop stop-opacity="0" stop-color="#04C8BB" offset="1"></stop>
</linearGradient>
<linearGradient gradientUnits="userSpaceOnUse" y2="-16.4286" x2="429.615" y1="470.146" x1="826.834" id="paint13_linear_977_14782">
<stop stop-color="#04C8BB"></stop>
<stop stop-opacity="0" stop-color="#04C8BB" offset="1"></stop>
</linearGradient>
<linearGradient gradientUnits="userSpaceOnUse" y2="99.1607" x2="824.528" y1="484.201" x1="837.34" id="paint14_linear_977_14782">
<stop stop-color="#04C8BB"></stop>
<stop stop-opacity="0" stop-color="#04C8BB" offset="1"></stop>
</linearGradient>
<linearGradient gradientUnits="userSpaceOnUse" y2="-57.3513" x2="383.685" y1="473.635" x1="846.852" id="paint15_linear_977_14782">
<stop stop-color="#04C8BB"></stop>
<stop stop-opacity="0" stop-color="#04C8BB" offset="1"></stop>
</linearGradient>
<linearGradient gradientUnits="userSpaceOnUse" y2="-87.6198" x2="343.397" y1="467.385" x1="858.085" id="paint16_linear_977_14782">
<stop stop-color="#04C8BB"></stop>
<stop stop-opacity="0" stop-color="#04C8BB" offset="1"></stop>
</linearGradient>
<linearGradient gradientUnits="userSpaceOnUse" y2="-137.333" x2="601.95" y1="506.77" x1="868.651" id="paint17_linear_977_14782">
<stop stop-color="#04C8BB"></stop>
<stop stop-opacity="0" stop-color="#04C8BB" offset="1"></stop>
</linearGradient>
<linearGradient gradientUnits="userSpaceOnUse" y2="5.97085" x2="854.931" y1="501.449" x1="879.076" id="paint18_linear_977_14782">
<stop stop-color="#04C8BB"></stop>
<stop stop-opacity="0" stop-color="#04C8BB" offset="1"></stop>
</linearGradient>
<linearGradient gradientUnits="userSpaceOnUse" y2="26.4782" x2="876.038" y1="525.743" x1="889.486" id="paint19_linear_977_14782">
<stop stop-color="#04C8BB"></stop>
<stop stop-opacity="0" stop-color="#04C8BB" offset="1"></stop>
</linearGradient>
<linearGradient gradientUnits="userSpaceOnUse" y2="-125.109" x2="241.293" y1="511.987" x1="713.064" id="paint20_linear_977_14782">
<stop stop-color="#04C8BB"></stop>
<stop stop-opacity="0" stop-color="#04C8BB" offset="1"></stop>
</linearGradient>
<linearGradient gradientUnits="userSpaceOnUse" y2="-129.261" x2="307.241" y1="493.539" x1="665.248" id="paint21_linear_977_14782">
<stop stop-color="#04C8BB"></stop>
<stop stop-opacity="0" stop-color="#04C8BB" offset="1"></stop>
</linearGradient>
<linearGradient gradientUnits="userSpaceOnUse" y2="-152.777" x2="314.048" y1="520.474" x1="920.777" id="paint22_linear_977_14782">
<stop stop-color="#04C8BB"></stop>
<stop stop-opacity="0" stop-color="#04C8BB" offset="1"></stop>
</linearGradient>
<linearGradient gradientUnits="userSpaceOnUse" y2="-67.3915" x2="639.093" y1="960.019" x1="497.704" id="paint23_linear_977_14782">
<stop stop-color="#04C8BB"></stop>
<stop stop-opacity="0" stop-color="#04C8BB" offset="1"></stop>
</linearGradient>
<linearGradient gradientUnits="userSpaceOnUse" y2="-50.0651" x2="916.958" y1="539.934" x1="941.635" id="paint24_linear_977_14782">
<stop stop-color="#04C8BB"></stop>
<stop stop-opacity="0" stop-color="#04C8BB" offset="1"></stop>
</linearGradient>
<linearGradient gradientUnits="userSpaceOnUse" y2="383.364" x2="838.569" y1="224.003" x1="-338.805" id="paint25_linear_977_14782">
<stop stop-color="#1A202C" offset="0.055728"></stop>
<stop stop-opacity="0" stop-color="#1A202C" offset="0.677083"></stop>
<stop stop-opacity="0.46332" stop-color="#1A202C" offset="1"></stop>
</linearGradient>
<linearGradient gradientUnits="userSpaceOnUse" y2="-47.2658" x2="1120.51" y1="554.919" x1="-0.177759" id="paint26_linear_977_14782">
<stop stop-color="#1A202C" offset="0.055728"></stop>
<stop stop-opacity="0" stop-color="#1A202C" offset="0.677083"></stop>
<stop stop-opacity="0.46332" stop-color="#1A202C" offset="1"></stop>
</linearGradient>
<clipPath id="clip0_977_14782">
<rect fill="white" height="474" width="844"></rect>
</clipPath>
<clipPath id="clip1_977_14782">
<rect transform="translate(-137 -102)" fill="white" height="576" width="1302"></rect>
</clipPath>
</defs>
</svg>
