<svg xmlns="http://www.w3.org/2000/svg" fill="none" viewBox="0 0 844 474" height="474" width="844">
<rect fill="url(#paint0_linear_9944_187349)" height="474" width="844"></rect>
<path fill="white" d="M113.183 165.542C117.229 165.542 120.785 166.369 123.85 168.024C126.915 169.679 129.275 172.04 130.93 175.105C132.646 178.108 133.505 181.572 133.505 185.495C133.505 189.357 132.616 192.759 130.838 195.702C129.122 198.644 126.67 200.943 123.482 202.598C120.355 204.192 116.739 204.989 112.632 204.989H99.5743C99.2678 204.989 99.1146 205.142 99.1146 205.449V228.897C99.1146 229.203 98.9919 229.479 98.7467 229.724C98.5628 229.908 98.3176 230 98.0111 230H87.2527C86.9462 230 86.6704 229.908 86.4252 229.724C86.2413 229.479 86.1493 229.203 86.1493 228.897V166.645C86.1493 166.339 86.2413 166.093 86.4252 165.909C86.6704 165.664 86.9462 165.542 87.2527 165.542H113.183ZM111.252 194.598C114.072 194.598 116.34 193.802 118.057 192.208C119.773 190.553 120.631 188.407 120.631 185.771C120.631 183.074 119.773 180.898 118.057 179.242C116.34 177.587 114.072 176.76 111.252 176.76H99.5743C99.2678 176.76 99.1146 176.913 99.1146 177.22V194.139C99.1146 194.445 99.2678 194.598 99.5743 194.598H111.252ZM162.348 182.093C164.555 182.093 166.302 182.522 167.589 183.38C168.08 183.626 168.264 184.085 168.141 184.76L166.21 195.242C166.149 195.978 165.72 196.192 164.923 195.886C164.003 195.579 162.93 195.426 161.704 195.426C161.214 195.426 160.54 195.487 159.681 195.61C157.475 195.794 155.605 196.621 154.072 198.093C152.54 199.503 151.774 201.403 151.774 203.794V228.897C151.774 229.203 151.651 229.479 151.406 229.724C151.222 229.908 150.977 230 150.67 230H139.912C139.605 230 139.329 229.908 139.084 229.724C138.9 229.479 138.808 229.203 138.808 228.897V183.84C138.808 183.534 138.9 183.288 139.084 183.104C139.329 182.859 139.605 182.737 139.912 182.737H150.67C150.977 182.737 151.222 182.859 151.406 183.104C151.651 183.288 151.774 183.534 151.774 183.84V187.334C151.774 187.518 151.835 187.641 151.958 187.702C152.08 187.763 152.172 187.733 152.233 187.61C154.747 183.932 158.118 182.093 162.348 182.093ZM179.158 177.403C177.074 177.403 175.327 176.729 173.917 175.38C172.568 173.971 171.894 172.223 171.894 170.139C171.894 167.994 172.568 166.247 173.917 164.898C175.265 163.549 177.013 162.875 179.158 162.875C181.304 162.875 183.051 163.549 184.399 164.898C185.748 166.247 186.422 167.994 186.422 170.139C186.422 172.223 185.717 173.971 184.307 175.38C182.959 176.729 181.242 177.403 179.158 177.403ZM173.641 230C173.334 230 173.059 229.908 172.813 229.724C172.629 229.479 172.538 229.203 172.538 228.897V183.748C172.538 183.442 172.629 183.196 172.813 183.013C173.059 182.767 173.334 182.645 173.641 182.645H184.399C184.706 182.645 184.951 182.767 185.135 183.013C185.38 183.196 185.503 183.442 185.503 183.748V228.897C185.503 229.203 185.38 229.479 185.135 229.724C184.951 229.908 184.706 230 184.399 230H173.641ZM212.618 230.644C208.511 230.644 204.925 230.061 201.859 228.897C198.794 227.732 196.404 226.107 194.687 224.023C193.032 221.939 192.204 219.579 192.204 216.943V216.023C192.204 215.717 192.296 215.472 192.48 215.288C192.726 215.042 193.001 214.92 193.308 214.92H203.515C203.821 214.92 204.066 215.042 204.25 215.288C204.495 215.472 204.618 215.717 204.618 216.023V216.115C204.618 217.464 205.354 218.629 206.825 219.609C208.357 220.529 210.258 220.989 212.526 220.989C214.61 220.989 216.296 220.59 217.583 219.793C218.871 218.935 219.514 217.893 219.514 216.667C219.514 215.564 218.963 214.736 217.859 214.184C216.756 213.633 214.947 213.05 212.434 212.437C209.553 211.702 207.285 210.997 205.629 210.322C201.706 208.974 198.58 207.318 196.25 205.357C193.921 203.395 192.756 200.575 192.756 196.897C192.756 192.361 194.503 188.775 197.997 186.139C201.553 183.442 206.243 182.093 212.066 182.093C215.989 182.093 219.422 182.737 222.365 184.024C225.307 185.25 227.575 186.997 229.169 189.265C230.824 191.533 231.652 194.108 231.652 196.989C231.652 197.296 231.529 197.572 231.284 197.817C231.1 198.001 230.855 198.093 230.548 198.093H220.71C220.403 198.093 220.127 198.001 219.882 197.817C219.698 197.572 219.606 197.296 219.606 196.989C219.606 195.641 218.901 194.507 217.491 193.587C216.143 192.667 214.334 192.208 212.066 192.208C210.043 192.208 208.388 192.576 207.101 193.311C205.813 194.047 205.17 195.058 205.17 196.346C205.17 197.572 205.783 198.491 207.009 199.104C208.296 199.717 210.411 200.361 213.353 201.035C214.028 201.219 214.794 201.434 215.652 201.679C216.51 201.863 217.43 202.108 218.411 202.414C222.763 203.702 226.196 205.357 228.709 207.38C231.223 209.403 232.479 212.345 232.479 216.207C232.479 220.743 230.671 224.299 227.054 226.874C223.499 229.387 218.687 230.644 212.618 230.644ZM290.497 182.001C295.278 182.001 299.018 183.442 301.715 186.323C304.412 189.204 305.761 193.25 305.761 198.46V228.897C305.761 229.203 305.638 229.479 305.393 229.724C305.209 229.908 304.964 230 304.658 230H293.899C293.593 230 293.317 229.908 293.072 229.724C292.888 229.479 292.796 229.203 292.796 228.897V201.311C292.796 198.798 292.152 196.805 290.865 195.334C289.577 193.863 287.861 193.127 285.715 193.127C283.57 193.127 281.823 193.863 280.474 195.334C279.125 196.805 278.451 198.767 278.451 201.219V228.897C278.451 229.203 278.329 229.479 278.083 229.724C277.899 229.908 277.654 230 277.348 230H266.681C266.375 230 266.099 229.908 265.854 229.724C265.67 229.479 265.578 229.203 265.578 228.897V201.311C265.578 198.859 264.904 196.897 263.555 195.426C262.206 193.893 260.459 193.127 258.314 193.127C256.352 193.127 254.697 193.71 253.348 194.874C252.061 196.039 251.295 197.664 251.049 199.748V228.897C251.049 229.203 250.927 229.479 250.682 229.724C250.498 229.908 250.253 230 249.946 230H239.188C238.881 230 238.605 229.908 238.36 229.724C238.176 229.479 238.084 229.203 238.084 228.897V183.84C238.084 183.534 238.176 183.288 238.36 183.104C238.605 182.859 238.881 182.737 239.188 182.737H249.946C250.253 182.737 250.498 182.859 250.682 183.104C250.927 183.288 251.049 183.534 251.049 183.84V187.426C251.049 187.61 251.111 187.733 251.233 187.794C251.356 187.855 251.479 187.794 251.601 187.61C254.115 183.871 258.007 182.001 263.279 182.001C266.344 182.001 269.011 182.645 271.279 183.932C273.608 185.219 275.386 187.058 276.612 189.449C276.796 189.817 277.011 189.817 277.256 189.449C278.604 186.936 280.413 185.066 282.681 183.84C285.01 182.614 287.616 182.001 290.497 182.001ZM331.872 182.001C335.856 182.001 339.412 182.706 342.538 184.116C345.665 185.465 348.086 187.334 349.802 189.725C351.58 192.116 352.469 194.782 352.469 197.725V228.897C352.469 229.203 352.346 229.479 352.101 229.724C351.917 229.908 351.672 230 351.366 230H340.607C340.301 230 340.025 229.908 339.78 229.724C339.596 229.479 339.504 229.203 339.504 228.897V225.862C339.504 225.678 339.442 225.556 339.32 225.494C339.197 225.433 339.075 225.494 338.952 225.678C336.377 229.05 332.24 230.736 326.539 230.736C321.757 230.736 317.895 229.571 314.953 227.241C312.01 224.912 310.539 221.479 310.539 216.943C310.539 212.223 312.194 208.575 315.504 206.001C318.815 203.365 323.535 202.047 329.665 202.047H339.044C339.35 202.047 339.504 201.893 339.504 201.587V199.564C339.504 197.541 338.891 195.978 337.665 194.874C336.439 193.71 334.6 193.127 332.148 193.127C330.247 193.127 328.653 193.464 327.366 194.139C326.14 194.813 325.343 195.763 324.975 196.989C324.791 197.664 324.393 197.97 323.78 197.909L312.654 196.438C311.918 196.315 311.581 196.039 311.642 195.61C311.887 193.035 312.899 190.706 314.677 188.622C316.516 186.537 318.906 184.913 321.849 183.748C324.853 182.583 328.194 182.001 331.872 182.001ZM330.033 221.081C332.669 221.081 334.906 220.376 336.745 218.966C338.584 217.556 339.504 215.747 339.504 213.541V210.23C339.504 209.924 339.35 209.771 339.044 209.771H332.423C329.665 209.771 327.489 210.292 325.895 211.334C324.362 212.376 323.596 213.847 323.596 215.747C323.596 217.403 324.178 218.721 325.343 219.701C326.508 220.621 328.071 221.081 330.033 221.081ZM403.734 165.542C407.78 165.542 411.335 166.369 414.4 168.024C417.465 169.679 419.825 172.04 421.48 175.105C423.197 178.108 424.055 181.572 424.055 185.495C424.055 189.357 423.166 192.759 421.388 195.702C419.672 198.644 417.22 200.943 414.032 202.598C410.906 204.192 407.289 204.989 403.182 204.989H390.125C389.818 204.989 389.665 205.142 389.665 205.449V228.897C389.665 229.203 389.542 229.479 389.297 229.724C389.113 229.908 388.868 230 388.562 230H377.803C377.497 230 377.221 229.908 376.976 229.724C376.792 229.479 376.7 229.203 376.7 228.897V166.645C376.7 166.339 376.792 166.093 376.976 165.909C377.221 165.664 377.497 165.542 377.803 165.542H403.734ZM401.803 194.598C404.623 194.598 406.891 193.802 408.607 192.208C410.324 190.553 411.182 188.407 411.182 185.771C411.182 183.074 410.324 180.898 408.607 179.242C406.891 177.587 404.623 176.76 401.803 176.76H390.125C389.818 176.76 389.665 176.913 389.665 177.22V194.139C389.665 194.445 389.818 194.598 390.125 194.598H401.803ZM447.538 230.736C442.389 230.736 437.975 229.387 434.297 226.69C430.619 223.992 428.106 220.314 426.757 215.655C425.899 212.774 425.47 209.648 425.47 206.276C425.47 202.66 425.899 199.411 426.757 196.529C428.167 191.993 430.711 188.438 434.389 185.863C438.067 183.288 442.481 182.001 447.63 182.001C452.657 182.001 456.948 183.288 460.503 185.863C464.059 188.376 466.572 191.901 468.043 196.438C469.024 199.503 469.515 202.721 469.515 206.092C469.515 209.403 469.085 212.498 468.227 215.38C466.879 220.161 464.365 223.931 460.687 226.69C457.07 229.387 452.687 230.736 447.538 230.736ZM447.538 219.609C449.561 219.609 451.277 218.996 452.687 217.77C454.097 216.544 455.109 214.859 455.722 212.713C456.212 210.751 456.457 208.606 456.457 206.276C456.457 203.702 456.212 201.526 455.722 199.748C455.047 197.664 454.005 196.039 452.595 194.874C451.185 193.71 449.469 193.127 447.446 193.127C445.362 193.127 443.615 193.71 442.205 194.874C440.856 196.039 439.875 197.664 439.262 199.748C438.772 201.219 438.527 203.395 438.527 206.276C438.527 209.035 438.741 211.18 439.17 212.713C439.783 214.859 440.795 216.544 442.205 217.77C443.676 218.996 445.454 219.609 447.538 219.609ZM494.86 230.644C490.753 230.644 487.167 230.061 484.102 228.897C481.037 227.732 478.646 226.107 476.93 224.023C475.275 221.939 474.447 219.579 474.447 216.943V216.023C474.447 215.717 474.539 215.472 474.723 215.288C474.968 215.042 475.244 214.92 475.55 214.92H485.757C486.064 214.92 486.309 215.042 486.493 215.288C486.738 215.472 486.86 215.717 486.86 216.023V216.115C486.86 217.464 487.596 218.629 489.067 219.609C490.6 220.529 492.5 220.989 494.768 220.989C496.853 220.989 498.538 220.59 499.826 219.793C501.113 218.935 501.757 217.893 501.757 216.667C501.757 215.564 501.205 214.736 500.102 214.184C498.998 213.633 497.19 213.05 494.676 212.437C491.795 211.702 489.527 210.997 487.872 210.322C483.949 208.974 480.822 207.318 478.493 205.357C476.163 203.395 474.999 200.575 474.999 196.897C474.999 192.361 476.746 188.775 480.24 186.139C483.795 183.442 488.485 182.093 494.309 182.093C498.232 182.093 501.665 182.737 504.607 184.024C507.55 185.25 509.818 186.997 511.412 189.265C513.067 191.533 513.894 194.108 513.894 196.989C513.894 197.296 513.772 197.572 513.527 197.817C513.343 198.001 513.097 198.093 512.791 198.093H502.952C502.646 198.093 502.37 198.001 502.125 197.817C501.941 197.572 501.849 197.296 501.849 196.989C501.849 195.641 501.144 194.507 499.734 193.587C498.385 192.667 496.577 192.208 494.309 192.208C492.286 192.208 490.631 192.576 489.343 193.311C488.056 194.047 487.412 195.058 487.412 196.346C487.412 197.572 488.025 198.491 489.251 199.104C490.539 199.717 492.653 200.361 495.596 201.035C496.27 201.219 497.037 201.434 497.895 201.679C498.753 201.863 499.672 202.108 500.653 202.414C505.006 203.702 508.439 205.357 510.952 207.38C513.465 209.403 514.722 212.345 514.722 216.207C514.722 220.743 512.914 224.299 509.297 226.874C505.741 229.387 500.929 230.644 494.86 230.644ZM547.363 192.024C547.363 192.33 547.24 192.606 546.995 192.851C546.811 193.035 546.566 193.127 546.259 193.127H537.432C537.125 193.127 536.972 193.28 536.972 193.587V213.081C536.972 215.104 537.371 216.606 538.168 217.586C539.026 218.567 540.374 219.058 542.213 219.058H545.248C545.554 219.058 545.8 219.18 545.983 219.426C546.229 219.609 546.351 219.855 546.351 220.161V228.897C546.351 229.571 545.983 229.969 545.248 230.092C542.673 230.215 540.834 230.276 539.731 230.276C534.643 230.276 530.842 229.448 528.329 227.793C525.815 226.077 524.528 222.889 524.467 218.23V193.587C524.467 193.28 524.313 193.127 524.007 193.127H518.766C518.459 193.127 518.183 193.035 517.938 192.851C517.754 192.606 517.662 192.33 517.662 192.024V183.84C517.662 183.534 517.754 183.288 517.938 183.104C518.183 182.859 518.459 182.737 518.766 182.737H524.007C524.313 182.737 524.467 182.583 524.467 182.277V171.335C524.467 171.028 524.559 170.783 524.743 170.599C524.988 170.354 525.264 170.231 525.57 170.231H535.869C536.175 170.231 536.42 170.354 536.604 170.599C536.85 170.783 536.972 171.028 536.972 171.335V182.277C536.972 182.583 537.125 182.737 537.432 182.737H546.259C546.566 182.737 546.811 182.859 546.995 183.104C547.24 183.288 547.363 183.534 547.363 183.84V192.024ZM582.022 183.84C582.022 183.534 582.114 183.288 582.298 183.104C582.543 182.859 582.819 182.737 583.126 182.737H593.884C594.191 182.737 594.436 182.859 594.62 183.104C594.865 183.288 594.987 183.534 594.987 183.84V225.77C594.987 233.801 592.658 239.532 587.999 242.965C583.401 246.398 577.455 248.115 570.16 248.115C568.015 248.115 565.624 247.961 562.988 247.655C562.375 247.593 562.069 247.195 562.069 246.459L562.436 236.988C562.436 236.191 562.866 235.854 563.724 235.977C565.931 236.345 567.954 236.529 569.793 236.529C573.716 236.529 576.72 235.67 578.804 233.954C580.949 232.237 582.022 229.479 582.022 225.678C582.022 225.494 581.961 225.402 581.838 225.402C581.716 225.341 581.593 225.372 581.471 225.494C579.141 228.008 575.739 229.264 571.264 229.264C567.279 229.264 563.601 228.314 560.23 226.414C556.919 224.452 554.559 221.326 553.149 217.035C552.23 214.215 551.77 210.567 551.77 206.092C551.77 201.311 552.322 197.418 553.425 194.415C554.712 190.675 556.889 187.671 559.954 185.403C563.019 183.135 566.574 182.001 570.62 182.001C575.34 182.001 578.957 183.411 581.471 186.231C581.593 186.353 581.716 186.415 581.838 186.415C581.961 186.353 582.022 186.231 582.022 186.047V183.84ZM581.287 213.541C581.777 211.702 582.022 209.188 582.022 206.001C582.022 204.1 581.961 202.629 581.838 201.587C581.716 200.545 581.501 199.564 581.195 198.644C580.643 196.989 579.723 195.671 578.436 194.69C577.149 193.648 575.555 193.127 573.655 193.127C571.816 193.127 570.252 193.648 568.965 194.69C567.678 195.671 566.728 196.989 566.115 198.644C565.256 200.483 564.827 202.966 564.827 206.092C564.827 209.525 565.195 211.977 565.931 213.449C566.482 215.104 567.432 216.452 568.781 217.495C570.191 218.475 571.846 218.966 573.747 218.966C575.708 218.966 577.333 218.475 578.62 217.495C579.907 216.452 580.796 215.134 581.287 213.541ZM625.944 182.093C628.151 182.093 629.898 182.522 631.186 183.38C631.676 183.626 631.86 184.085 631.737 184.76L629.806 195.242C629.745 195.978 629.316 196.192 628.519 195.886C627.6 195.579 626.527 195.426 625.301 195.426C624.81 195.426 624.136 195.487 623.278 195.61C621.071 195.794 619.201 196.621 617.669 198.093C616.136 199.503 615.37 201.403 615.37 203.794V228.897C615.37 229.203 615.247 229.479 615.002 229.724C614.818 229.908 614.573 230 614.266 230H603.508C603.202 230 602.926 229.908 602.681 229.724C602.497 229.479 602.405 229.203 602.405 228.897V183.84C602.405 183.534 602.497 183.288 602.681 183.104C602.926 182.859 603.202 182.737 603.508 182.737H614.266C614.573 182.737 614.818 182.859 615.002 183.104C615.247 183.288 615.37 183.534 615.37 183.84V187.334C615.37 187.518 615.431 187.641 615.554 187.702C615.676 187.763 615.768 187.733 615.83 187.61C618.343 183.932 621.715 182.093 625.944 182.093ZM676.437 201.495C676.805 203.824 676.927 206.43 676.805 209.311C676.743 210.046 676.345 210.414 675.609 210.414H647.196C646.828 210.414 646.706 210.567 646.828 210.874C647.012 212.1 647.349 213.326 647.84 214.552C649.434 217.985 652.683 219.701 657.587 219.701C661.51 219.64 664.606 218.046 666.874 214.92C667.119 214.552 667.395 214.368 667.701 214.368C667.885 214.368 668.1 214.491 668.345 214.736L674.966 221.265C675.272 221.571 675.425 221.847 675.425 222.092C675.425 222.215 675.303 222.46 675.058 222.828C673.035 225.341 670.429 227.303 667.242 228.713C664.054 230.061 660.56 230.736 656.759 230.736C651.487 230.736 647.012 229.54 643.334 227.149C639.717 224.759 637.112 221.418 635.518 217.127C634.231 214.062 633.587 210.046 633.587 205.081C633.587 201.709 634.047 198.736 634.966 196.162C636.376 191.809 638.828 188.346 642.323 185.771C645.878 183.196 650.077 181.909 654.92 181.909C661.05 181.909 665.954 183.687 669.632 187.242C673.372 190.798 675.64 195.549 676.437 201.495ZM655.012 193.127C651.15 193.127 648.606 194.936 647.38 198.552C647.135 199.349 646.92 200.33 646.736 201.495C646.736 201.801 646.89 201.955 647.196 201.955H663.104C663.472 201.955 663.594 201.801 663.472 201.495C663.165 199.717 663.012 198.859 663.012 198.92C662.46 197.081 661.479 195.671 660.069 194.69C658.721 193.648 657.035 193.127 655.012 193.127ZM701.178 230.644C697.071 230.644 693.484 230.061 690.419 228.897C687.354 227.732 684.963 226.107 683.247 224.023C681.592 221.939 680.764 219.579 680.764 216.943V216.023C680.764 215.717 680.856 215.472 681.04 215.288C681.285 215.042 681.561 214.92 681.868 214.92H692.074C692.381 214.92 692.626 215.042 692.81 215.288C693.055 215.472 693.178 215.717 693.178 216.023V216.115C693.178 217.464 693.913 218.629 695.385 219.609C696.917 220.529 698.818 220.989 701.086 220.989C703.17 220.989 704.856 220.59 706.143 219.793C707.43 218.935 708.074 217.893 708.074 216.667C708.074 215.564 707.522 214.736 706.419 214.184C705.316 213.633 703.507 213.05 700.994 212.437C698.113 211.702 695.844 210.997 694.189 210.322C690.266 208.974 687.14 207.318 684.81 205.357C682.481 203.395 681.316 200.575 681.316 196.897C681.316 192.361 683.063 188.775 686.557 186.139C690.113 183.442 694.802 182.093 700.626 182.093C704.549 182.093 707.982 182.737 710.925 184.024C713.867 185.25 716.135 186.997 717.729 189.265C719.384 191.533 720.212 194.108 720.212 196.989C720.212 197.296 720.089 197.572 719.844 197.817C719.66 198.001 719.415 198.093 719.108 198.093H709.269C708.963 198.093 708.687 198.001 708.442 197.817C708.258 197.572 708.166 197.296 708.166 196.989C708.166 195.641 707.461 194.507 706.051 193.587C704.703 192.667 702.894 192.208 700.626 192.208C698.603 192.208 696.948 192.576 695.661 193.311C694.373 194.047 693.73 195.058 693.73 196.346C693.73 197.572 694.343 198.491 695.569 199.104C696.856 199.717 698.971 200.361 701.913 201.035C702.588 201.219 703.354 201.434 704.212 201.679C705.07 201.863 705.99 202.108 706.971 202.414C711.323 203.702 714.756 205.357 717.269 207.38C719.783 209.403 721.039 212.345 721.039 216.207C721.039 220.743 719.231 224.299 715.614 226.874C712.059 229.387 707.247 230.644 701.178 230.644ZM742.276 164.714C745.77 164.714 748.958 165.511 751.839 167.105C754.72 168.699 756.958 170.875 758.551 173.633C760.207 176.392 761.034 179.488 761.034 182.921C761.034 186.476 760.207 189.694 758.551 192.576C756.958 195.457 754.72 197.725 751.839 199.38C748.958 200.974 745.77 201.771 742.276 201.771C738.782 201.771 735.594 200.974 732.713 199.38C729.893 197.725 727.656 195.457 726 192.576C724.407 189.694 723.61 186.476 723.61 182.921C723.61 179.488 724.407 176.392 726 173.633C727.656 170.875 729.893 168.699 732.713 167.105C735.594 165.511 738.782 164.714 742.276 164.714ZM742.276 196.346C746.077 196.346 749.234 195.089 751.747 192.576C754.26 190.001 755.517 186.783 755.517 182.921C755.517 180.53 754.935 178.354 753.77 176.392C752.605 174.43 751.011 172.898 748.988 171.794C746.965 170.63 744.728 170.047 742.276 170.047C739.824 170.047 737.586 170.63 735.563 171.794C733.54 172.898 731.947 174.43 730.782 176.392C729.678 178.354 729.127 180.53 729.127 182.921C729.127 186.844 730.353 190.062 732.805 192.576C735.318 195.089 738.475 196.346 742.276 196.346ZM748.804 179.978C748.804 182.001 748.069 183.442 746.598 184.3C746.352 184.361 746.291 184.545 746.414 184.852L748.345 190.277C748.406 190.399 748.437 190.553 748.437 190.736C748.437 191.288 748.1 191.564 747.425 191.564H745.126C744.513 191.564 744.115 191.258 743.931 190.645L742.184 185.495C742.061 185.25 741.908 185.127 741.724 185.127H741.54C741.234 185.127 741.081 185.281 741.081 185.587V190.461C741.081 190.767 740.958 191.043 740.713 191.288C740.529 191.472 740.284 191.564 739.977 191.564H737.954C737.648 191.564 737.372 191.472 737.127 191.288C736.943 191.043 736.851 190.767 736.851 190.461V175.656C736.851 175.35 736.943 175.105 737.127 174.921C737.372 174.676 737.648 174.553 737.954 174.553H743.379C744.973 174.553 746.26 175.074 747.241 176.116C748.283 177.158 748.804 178.446 748.804 179.978ZM741.54 178.231C741.234 178.231 741.081 178.384 741.081 178.691V181.449C741.081 181.756 741.234 181.909 741.54 181.909H742.736C743.287 181.909 743.716 181.725 744.023 181.357C744.391 180.99 744.575 180.56 744.575 180.07C744.575 179.518 744.391 179.089 744.023 178.783C743.716 178.415 743.287 178.231 742.736 178.231H741.54Z"></path>
<path fill="white" d="M84.3666 307.211V282.716H88.1301V307.211H84.3666ZM86.2803 278.634C85.5467 278.634 84.9142 278.384 84.3826 277.884C83.8617 277.385 83.6012 276.784 83.6012 276.082C83.6012 275.381 83.8617 274.78 84.3826 274.28C84.9142 273.781 85.5467 273.531 86.2803 273.531C87.0139 273.531 87.6411 273.781 88.162 274.28C88.6936 274.78 88.9594 275.381 88.9594 276.082C88.9594 276.784 88.6936 277.385 88.162 277.884C87.6411 278.384 87.0139 278.634 86.2803 278.634ZM111.475 288.202L108.095 289.159C107.882 288.595 107.568 288.048 107.154 287.516C106.75 286.974 106.197 286.528 105.495 286.177C104.794 285.826 103.895 285.651 102.8 285.651C101.301 285.651 100.052 285.996 99.0527 286.687C98.064 287.368 97.5697 288.234 97.5697 289.286C97.5697 290.222 97.9099 290.961 98.5903 291.503C99.2707 292.045 100.334 292.497 101.78 292.859L105.416 293.752C107.606 294.283 109.238 295.097 110.311 296.192C111.385 297.276 111.922 298.674 111.922 300.386C111.922 301.789 111.518 303.043 110.71 304.149C109.913 305.255 108.796 306.127 107.361 306.764C105.926 307.402 104.257 307.721 102.354 307.721C99.8554 307.721 97.7876 307.179 96.1504 306.095C94.5131 305.01 93.4766 303.426 93.0407 301.342L96.6128 300.449C96.953 301.768 97.5962 302.756 98.5424 303.416C99.4993 304.075 100.748 304.404 102.29 304.404C104.044 304.404 105.437 304.032 106.468 303.288C107.51 302.533 108.031 301.629 108.031 300.577C108.031 299.726 107.733 299.014 107.138 298.44C106.543 297.855 105.628 297.419 104.395 297.132L100.313 296.176C98.0693 295.644 96.4215 294.82 95.369 293.704C94.3271 292.577 93.8062 291.168 93.8062 289.478C93.8062 288.096 94.1942 286.873 94.9703 285.81C95.757 284.747 96.8255 283.912 98.1756 283.306C99.5365 282.7 101.078 282.397 102.8 282.397C105.224 282.397 107.127 282.929 108.509 283.992C109.902 285.055 110.891 286.459 111.475 288.202ZM362.345 307.721C360.303 307.721 358.501 307.206 356.939 306.174C355.376 305.133 354.153 303.665 353.271 301.773C352.388 299.87 351.947 297.621 351.947 295.027C351.947 292.455 352.388 290.222 353.271 288.33C354.153 286.437 355.381 284.975 356.954 283.944C358.528 282.913 360.346 282.397 362.408 282.397C364.003 282.397 365.263 282.663 366.188 283.195C367.123 283.716 367.836 284.311 368.325 284.981C368.824 285.64 369.212 286.182 369.489 286.607H369.808V274.551H373.571V307.211H369.935V303.447H369.489C369.212 303.894 368.819 304.457 368.309 305.138C367.798 305.808 367.07 306.408 366.124 306.94C365.178 307.461 363.918 307.721 362.345 307.721ZM362.855 304.34C364.365 304.34 365.64 303.947 366.682 303.16C367.724 302.363 368.516 301.263 369.058 299.859C369.6 298.445 369.872 296.813 369.872 294.964C369.872 293.135 369.606 291.535 369.074 290.164C368.543 288.781 367.756 287.708 366.714 286.942C365.672 286.166 364.386 285.778 362.855 285.778C361.26 285.778 359.931 286.187 358.868 287.006C357.816 287.814 357.024 288.914 356.492 290.307C355.971 291.689 355.711 293.241 355.711 294.964C355.711 296.707 355.976 298.291 356.508 299.716C357.05 301.13 357.847 302.257 358.9 303.097C359.963 303.926 361.281 304.34 362.855 304.34ZM395.525 297.196V282.716H399.289V307.211H395.525V303.065H395.27C394.696 304.309 393.803 305.366 392.591 306.238C391.379 307.099 389.848 307.53 387.998 307.53C386.467 307.53 385.107 307.195 383.916 306.525C382.725 305.845 381.79 304.824 381.109 303.463C380.429 302.092 380.089 300.364 380.089 298.281V282.716H383.852V298.025C383.852 299.812 384.352 301.236 385.351 302.299C386.361 303.362 387.647 303.894 389.21 303.894C390.146 303.894 391.097 303.655 392.065 303.176C393.043 302.698 393.861 301.964 394.521 300.976C395.19 299.987 395.525 298.727 395.525 297.196ZM405.284 307.211V282.716H408.92V286.416H409.175C409.621 285.204 410.429 284.221 411.599 283.466C412.768 282.711 414.086 282.334 415.554 282.334C415.83 282.334 416.175 282.339 416.59 282.35C417.005 282.36 417.318 282.376 417.531 282.397V286.225C417.403 286.193 417.111 286.145 416.654 286.081C416.207 286.007 415.734 285.97 415.235 285.97C414.044 285.97 412.981 286.219 412.045 286.719C411.12 287.208 410.387 287.888 409.845 288.76C409.313 289.621 409.047 290.605 409.047 291.71V307.211H405.284ZM421.094 307.211V282.716H424.858V307.211H421.094ZM423.008 278.634C422.274 278.634 421.642 278.384 421.11 277.884C420.589 277.385 420.329 276.784 420.329 276.082C420.329 275.381 420.589 274.78 421.11 274.28C421.642 273.781 422.274 273.531 423.008 273.531C423.741 273.531 424.368 273.781 424.889 274.28C425.421 274.78 425.687 275.381 425.687 276.082C425.687 276.784 425.421 277.385 424.889 277.884C424.368 278.384 423.741 278.634 423.008 278.634ZM434.616 292.476V307.211H430.852V282.716H434.488V286.544H434.807C435.381 285.3 436.253 284.3 437.423 283.546C438.592 282.78 440.102 282.397 441.952 282.397C443.61 282.397 445.061 282.738 446.305 283.418C447.549 284.088 448.516 285.108 449.208 286.48C449.899 287.841 450.244 289.563 450.244 291.647V307.211H446.481V291.902C446.481 289.978 445.981 288.479 444.982 287.405C443.982 286.32 442.611 285.778 440.867 285.778C439.666 285.778 438.592 286.039 437.646 286.56C436.71 287.08 435.971 287.841 435.429 288.84C434.887 289.839 434.616 291.051 434.616 292.476ZM466.11 316.907C464.292 316.907 462.729 316.673 461.422 316.205C460.114 315.748 459.024 315.142 458.153 314.387C457.292 313.643 456.606 312.846 456.096 311.995L459.094 309.89C459.434 310.337 459.864 310.847 460.385 311.421C460.906 312.006 461.618 312.511 462.522 312.936C463.436 313.372 464.632 313.59 466.11 313.59C468.088 313.59 469.72 313.111 471.006 312.155C472.292 311.198 472.936 309.699 472.936 307.657V302.682H472.617C472.34 303.129 471.947 303.681 471.437 304.34C470.937 304.989 470.214 305.568 469.268 306.079C468.332 306.578 467.067 306.828 465.472 306.828C463.495 306.828 461.719 306.36 460.146 305.425C458.583 304.489 457.345 303.129 456.43 301.342C455.527 299.556 455.075 297.388 455.075 294.836C455.075 292.327 455.516 290.142 456.399 288.282C457.281 286.411 458.509 284.965 460.082 283.944C461.656 282.913 463.474 282.397 465.536 282.397C467.131 282.397 468.396 282.663 469.332 283.195C470.278 283.716 471.001 284.311 471.5 284.981C472.011 285.64 472.404 286.182 472.68 286.607H473.063V282.716H476.699V307.913C476.699 310.018 476.221 311.729 475.264 313.048C474.318 314.376 473.042 315.349 471.437 315.966C469.842 316.593 468.066 316.907 466.11 316.907ZM465.983 303.447C467.492 303.447 468.768 303.102 469.81 302.411C470.852 301.72 471.644 300.726 472.186 299.429C472.728 298.132 472.999 296.58 472.999 294.772C472.999 293.007 472.734 291.45 472.202 290.1C471.67 288.75 470.884 287.692 469.842 286.926C468.8 286.161 467.514 285.778 465.983 285.778C464.388 285.778 463.059 286.182 461.996 286.99C460.943 287.798 460.151 288.882 459.62 290.243C459.099 291.604 458.838 293.114 458.838 294.772C458.838 296.473 459.104 297.978 459.636 299.285C460.178 300.582 460.975 301.603 462.028 302.347C463.091 303.081 464.409 303.447 465.983 303.447Z"></path>
<path fill="#71E8DF" d="M141.832 274.551V307.211H134.927V281.106H134.736L127.257 285.794V279.67L135.342 274.551H141.832ZM161.502 307.929C158.759 307.918 156.399 307.243 154.421 305.903C152.455 304.564 150.94 302.624 149.877 300.083C148.824 297.542 148.303 294.485 148.314 290.913C148.314 287.352 148.84 284.316 149.892 281.807C150.956 279.298 152.471 277.39 154.437 276.082C156.415 274.764 158.77 274.105 161.502 274.105C164.234 274.105 166.584 274.764 168.55 276.082C170.528 277.401 172.048 279.314 173.111 281.823C174.174 284.322 174.701 287.352 174.69 290.913C174.69 294.496 174.159 297.558 173.095 300.099C172.043 302.639 170.533 304.58 168.566 305.919C166.6 307.259 164.245 307.929 161.502 307.929ZM161.502 302.204C163.373 302.204 164.867 301.263 165.983 299.381C167.099 297.499 167.652 294.677 167.642 290.913C167.642 288.436 167.386 286.373 166.876 284.726C166.376 283.078 165.664 281.839 164.739 281.01C163.825 280.181 162.746 279.766 161.502 279.766C159.641 279.766 158.153 280.696 157.037 282.557C155.92 284.417 155.357 287.203 155.346 290.913C155.346 293.422 155.596 295.516 156.096 297.196C156.606 298.865 157.324 300.12 158.249 300.96C159.174 301.789 160.258 302.204 161.502 302.204ZM191.521 307.929C188.778 307.918 186.418 307.243 184.441 305.903C182.474 304.564 180.959 302.624 179.896 300.083C178.843 297.542 178.322 294.485 178.333 290.913C178.333 287.352 178.859 284.316 179.912 281.807C180.975 279.298 182.49 277.39 184.457 276.082C186.434 274.764 188.789 274.105 191.521 274.105C194.253 274.105 196.603 274.764 198.57 276.082C200.547 277.401 202.067 279.314 203.13 281.823C204.194 284.322 204.72 287.352 204.709 290.913C204.709 294.496 204.178 297.558 203.115 300.099C202.062 302.639 200.552 304.58 198.586 305.919C196.619 307.259 194.264 307.929 191.521 307.929ZM191.521 302.204C193.392 302.204 194.886 301.263 196.002 299.381C197.118 297.499 197.671 294.677 197.661 290.913C197.661 288.436 197.406 286.373 196.895 284.726C196.396 283.078 195.683 281.839 194.758 281.01C193.844 280.181 192.765 279.766 191.521 279.766C189.661 279.766 188.172 280.696 187.056 282.557C185.94 284.417 185.376 287.203 185.366 290.913C185.366 293.422 185.615 295.516 186.115 297.196C186.625 298.865 187.343 300.12 188.268 300.96C189.193 301.789 190.277 302.204 191.521 302.204ZM226.611 301.087V299.365C226.611 298.057 226.888 296.856 227.441 295.761C228.004 294.655 228.817 293.773 229.88 293.114C230.954 292.444 232.262 292.109 233.803 292.109C235.366 292.109 236.679 292.439 237.742 293.098C238.816 293.757 239.624 294.639 240.166 295.745C240.719 296.84 240.996 298.047 240.996 299.365V301.087C240.996 302.395 240.719 303.602 240.166 304.707C239.613 305.802 238.8 306.679 237.726 307.339C236.653 308.008 235.345 308.343 233.803 308.343C232.241 308.343 230.928 308.008 229.865 307.339C228.801 306.679 227.993 305.802 227.441 304.707C226.888 303.602 226.611 302.395 226.611 301.087ZM231.252 299.365V301.087C231.252 301.842 231.433 302.554 231.794 303.224C232.166 303.894 232.836 304.229 233.803 304.229C234.771 304.229 235.43 303.899 235.781 303.24C236.142 302.581 236.323 301.863 236.323 301.087V299.365C236.323 298.589 236.153 297.866 235.813 297.196C235.473 296.526 234.803 296.192 233.803 296.192C232.847 296.192 232.182 296.526 231.81 297.196C231.438 297.866 231.252 298.589 231.252 299.365ZM209.851 282.397V280.675C209.851 279.357 210.133 278.15 210.696 277.055C211.26 275.949 212.073 275.067 213.136 274.408C214.21 273.749 215.507 273.419 217.027 273.419C218.601 273.419 219.919 273.749 220.982 274.408C222.045 275.067 222.853 275.949 223.406 277.055C223.959 278.15 224.235 279.357 224.235 280.675V282.397C224.235 283.716 223.954 284.922 223.39 286.017C222.837 287.112 222.024 287.989 220.95 288.649C219.887 289.297 218.579 289.621 217.027 289.621C215.475 289.621 214.162 289.292 213.088 288.633C212.025 287.963 211.217 287.086 210.664 286.001C210.122 284.906 209.851 283.705 209.851 282.397ZM214.524 280.675V282.397C214.524 283.173 214.704 283.891 215.066 284.55C215.438 285.209 216.092 285.539 217.027 285.539C218.005 285.539 218.67 285.209 219.021 284.55C219.382 283.891 219.563 283.173 219.563 282.397V280.675C219.563 279.899 219.393 279.176 219.052 278.506C218.712 277.837 218.037 277.502 217.027 277.502C216.081 277.502 215.427 277.842 215.066 278.522C214.704 279.203 214.524 279.92 214.524 280.675ZM211.956 307.211L234.409 274.551H238.588L216.134 307.211H211.956ZM269.16 282.716V287.819H254.042V282.716H269.16ZM257.502 307.211V280.946C257.502 279.171 257.848 277.698 258.539 276.529C259.241 275.359 260.198 274.482 261.409 273.898C262.621 273.313 263.998 273.021 265.54 273.021C266.582 273.021 267.533 273.1 268.394 273.26C269.266 273.419 269.915 273.563 270.34 273.69L269.128 278.793C268.862 278.708 268.533 278.629 268.139 278.554C267.756 278.48 267.363 278.443 266.959 278.443C265.96 278.443 265.263 278.676 264.87 279.144C264.477 279.601 264.28 280.245 264.28 281.074V307.211H257.502ZM272.412 307.211V282.716H278.998V286.99H279.253C279.7 285.47 280.449 284.322 281.502 283.546C282.554 282.759 283.766 282.365 285.138 282.365C285.478 282.365 285.845 282.387 286.238 282.429C286.631 282.472 286.977 282.53 287.274 282.605V288.633C286.956 288.537 286.514 288.452 285.951 288.378C285.387 288.303 284.872 288.266 284.404 288.266C283.405 288.266 282.512 288.484 281.725 288.92C280.949 289.345 280.332 289.94 279.875 290.706C279.429 291.471 279.205 292.354 279.205 293.353V307.211H272.412ZM299.911 307.689C297.392 307.689 295.223 307.179 293.405 306.158C291.598 305.127 290.205 303.671 289.227 301.789C288.249 299.897 287.76 297.659 287.76 295.075C287.76 292.556 288.249 290.344 289.227 288.441C290.205 286.538 291.582 285.055 293.357 283.992C295.143 282.929 297.238 282.397 299.64 282.397C301.256 282.397 302.761 282.658 304.153 283.179C305.557 283.689 306.779 284.46 307.821 285.491C308.874 286.522 309.692 287.819 310.277 289.382C310.862 290.934 311.154 292.752 311.154 294.836V296.702H290.471V292.492H304.759C304.759 291.514 304.547 290.647 304.121 289.892C303.696 289.138 303.106 288.548 302.351 288.122C301.607 287.686 300.741 287.469 299.752 287.469C298.721 287.469 297.806 287.708 297.009 288.186C296.222 288.654 295.606 289.286 295.159 290.084C294.713 290.871 294.484 291.748 294.473 292.715V296.718C294.473 297.93 294.697 298.977 295.143 299.859C295.6 300.742 296.244 301.422 297.073 301.901C297.902 302.379 298.885 302.618 300.023 302.618C300.778 302.618 301.469 302.512 302.096 302.299C302.723 302.087 303.26 301.768 303.707 301.342C304.153 300.917 304.493 300.396 304.727 299.78L311.01 300.194C310.692 301.704 310.038 303.022 309.049 304.149C308.071 305.265 306.806 306.137 305.254 306.764C303.712 307.381 301.931 307.689 299.911 307.689ZM325.852 307.689C323.332 307.689 321.164 307.179 319.346 306.158C317.538 305.127 316.146 303.671 315.168 301.789C314.189 299.897 313.7 297.659 313.7 295.075C313.7 292.556 314.189 290.344 315.168 288.441C316.146 286.538 317.522 285.055 319.298 283.992C321.084 282.929 323.178 282.397 325.581 282.397C327.197 282.397 328.701 282.658 330.094 283.179C331.497 283.689 332.72 284.46 333.762 285.491C334.814 286.522 335.633 287.819 336.218 289.382C336.802 290.934 337.095 292.752 337.095 294.836V296.702H316.411V292.492H330.7C330.7 291.514 330.487 290.647 330.062 289.892C329.637 289.138 329.047 288.548 328.292 288.122C327.548 287.686 326.681 287.469 325.693 287.469C324.661 287.469 323.747 287.708 322.95 288.186C322.163 288.654 321.546 289.286 321.1 290.084C320.653 290.871 320.425 291.748 320.414 292.715V296.718C320.414 297.93 320.637 298.977 321.084 299.859C321.541 300.742 322.184 301.422 323.013 301.901C323.843 302.379 324.826 302.618 325.964 302.618C326.718 302.618 327.41 302.512 328.037 302.299C328.664 302.087 329.201 301.768 329.647 301.342C330.094 300.917 330.434 300.396 330.668 299.78L336.951 300.194C336.632 301.704 335.978 303.022 334.99 304.149C334.012 305.265 332.746 306.137 331.194 306.764C329.653 307.381 327.872 307.689 325.852 307.689Z"></path>
<rect fill="#090A15" rx="31.5965" height="63.1931" width="262.902" y="259.011" x="489.903"></rect>
<rect stroke-width="3.22416" stroke="#71E8DF" rx="31.5965" height="63.1931" width="262.902" y="259.011" x="489.903"></rect>
<path fill="#71E8DF" d="M531.806 284.794C531.806 284.898 531.764 284.991 531.682 285.073C531.62 285.135 531.537 285.166 531.434 285.166H521.269C521.166 285.166 521.114 285.218 521.114 285.321V290.125C521.114 290.228 521.166 290.279 521.269 290.279H527.932C528.035 290.279 528.118 290.321 528.18 290.403C528.262 290.465 528.304 290.548 528.304 290.651V293.657C528.304 293.761 528.262 293.854 528.18 293.936C528.118 293.998 528.035 294.029 527.932 294.029H521.269C521.166 294.029 521.114 294.081 521.114 294.184V299.205C521.114 299.308 521.166 299.36 521.269 299.36H531.434C531.537 299.36 531.62 299.401 531.682 299.484C531.764 299.546 531.806 299.628 531.806 299.731V302.737C531.806 302.841 531.764 302.934 531.682 303.016C531.62 303.078 531.537 303.109 531.434 303.109H517.116C517.013 303.109 516.92 303.078 516.837 303.016C516.775 302.934 516.744 302.841 516.744 302.737V281.788C516.744 281.685 516.775 281.602 516.837 281.54C516.92 281.458 517.013 281.416 517.116 281.416H531.434C531.537 281.416 531.62 281.458 531.682 281.54C531.764 281.602 531.806 281.685 531.806 281.788V284.794ZM548.633 303.109C548.426 303.109 548.292 303.006 548.23 302.799L547.3 299.762C547.259 299.68 547.207 299.638 547.145 299.638H539.522C539.46 299.638 539.408 299.68 539.367 299.762L538.468 302.799C538.406 303.006 538.272 303.109 538.065 303.109H534.129C534.005 303.109 533.912 303.078 533.85 303.016C533.788 302.934 533.778 302.82 533.819 302.676L540.513 281.726C540.575 281.52 540.71 281.416 540.916 281.416H545.782C545.988 281.416 546.122 281.52 546.184 281.726L552.878 302.676C552.899 302.717 552.909 302.768 552.909 302.83C552.909 303.016 552.796 303.109 552.568 303.109H548.633ZM540.482 296.075C540.462 296.199 540.503 296.261 540.606 296.261H546.06C546.184 296.261 546.226 296.199 546.184 296.075L543.395 286.871C543.375 286.788 543.344 286.757 543.302 286.778C543.261 286.778 543.23 286.809 543.209 286.871L540.482 296.075ZM567.533 303.109C567.327 303.109 567.182 303.016 567.1 302.83L563.226 294.246C563.184 294.164 563.123 294.122 563.04 294.122H560.158C560.054 294.122 560.003 294.174 560.003 294.277V302.737C560.003 302.841 559.962 302.934 559.879 303.016C559.817 303.078 559.734 303.109 559.631 303.109H556.005C555.902 303.109 555.809 303.078 555.726 303.016C555.664 302.934 555.633 302.841 555.633 302.737V281.788C555.633 281.685 555.664 281.602 555.726 281.54C555.809 281.458 555.902 281.416 556.005 281.416H564.868C566.191 281.416 567.347 281.685 568.339 282.222C569.352 282.759 570.126 283.524 570.663 284.515C571.221 285.507 571.5 286.654 571.5 287.955C571.5 289.36 571.149 290.569 570.446 291.581C569.744 292.573 568.763 293.275 567.502 293.688C567.399 293.73 567.368 293.802 567.409 293.905L571.624 302.676C571.665 302.758 571.686 302.82 571.686 302.861C571.686 303.027 571.572 303.109 571.345 303.109H567.533ZM560.158 285.166C560.054 285.166 560.003 285.218 560.003 285.321V290.62C560.003 290.724 560.054 290.775 560.158 290.775H564.217C565.085 290.775 565.788 290.517 566.325 290.001C566.883 289.484 567.162 288.813 567.162 287.986C567.162 287.16 566.883 286.488 566.325 285.972C565.788 285.435 565.085 285.166 564.217 285.166H560.158ZM575.041 303.109C574.938 303.109 574.845 303.078 574.762 303.016C574.7 302.934 574.669 302.841 574.669 302.737V281.788C574.669 281.685 574.7 281.602 574.762 281.54C574.845 281.458 574.938 281.416 575.041 281.416H578.667C578.77 281.416 578.853 281.458 578.915 281.54C578.997 281.602 579.039 281.685 579.039 281.788V299.205C579.039 299.308 579.09 299.36 579.194 299.36H589.327C589.431 299.36 589.513 299.401 589.575 299.484C589.658 299.546 589.699 299.628 589.699 299.731V302.737C589.699 302.841 589.658 302.934 589.575 303.016C589.513 303.078 589.431 303.109 589.327 303.109H575.041ZM596.657 303.078C596.554 303.078 596.461 303.047 596.378 302.985C596.316 302.903 596.285 302.81 596.285 302.707V294.866C596.285 294.783 596.275 294.721 596.254 294.68L589.87 281.85C589.829 281.768 589.808 281.706 589.808 281.664C589.808 281.499 589.922 281.416 590.149 281.416H594.054C594.26 281.416 594.405 281.509 594.488 281.695L598.361 289.939C598.423 290.063 598.485 290.063 598.547 289.939L602.421 281.695C602.504 281.509 602.648 281.416 602.855 281.416H606.822C606.966 281.416 607.059 281.458 607.1 281.54C607.162 281.602 607.162 281.706 607.1 281.85L600.655 294.68C600.634 294.721 600.624 294.783 600.624 294.866V302.707C600.624 302.81 600.582 302.903 600.5 302.985C600.438 303.047 600.355 303.078 600.252 303.078H596.657ZM629.921 303.109C629.714 303.109 629.58 303.006 629.518 302.799L628.588 299.762C628.547 299.68 628.495 299.638 628.434 299.638H620.81C620.748 299.638 620.696 299.68 620.655 299.762L619.756 302.799C619.694 303.006 619.56 303.109 619.353 303.109H615.418C615.294 303.109 615.201 303.078 615.139 303.016C615.077 302.934 615.066 302.82 615.108 302.676L621.802 281.726C621.864 281.52 621.998 281.416 622.205 281.416H627.07C627.277 281.416 627.411 281.52 627.473 281.726L634.167 302.676C634.187 302.717 634.198 302.768 634.198 302.83C634.198 303.016 634.084 303.109 633.857 303.109H629.921ZM621.771 296.075C621.75 296.199 621.791 296.261 621.895 296.261H627.349C627.473 296.261 627.514 296.199 627.473 296.075L624.684 286.871C624.663 286.788 624.632 286.757 624.591 286.778C624.549 286.778 624.518 286.809 624.498 286.871L621.771 296.075ZM643.879 303.357C642.268 303.357 640.853 303.047 639.634 302.428C638.415 301.787 637.475 300.899 636.814 299.762C636.153 298.626 635.822 297.314 635.822 295.827V288.668C635.822 287.18 636.153 285.869 636.814 284.732C637.475 283.596 638.415 282.718 639.634 282.098C640.853 281.478 642.268 281.168 643.879 281.168C645.47 281.168 646.865 281.468 648.063 282.067C649.282 282.646 650.222 283.482 650.883 284.577C651.565 285.652 651.906 286.902 651.906 288.327C651.906 288.513 651.782 288.627 651.534 288.668L647.908 288.885H647.846C647.64 288.885 647.536 288.771 647.536 288.544C647.536 287.449 647.195 286.571 646.514 285.91C645.852 285.249 644.974 284.918 643.879 284.918C642.764 284.918 641.865 285.249 641.183 285.91C640.522 286.571 640.192 287.449 640.192 288.544V296.013C640.192 297.087 640.522 297.955 641.183 298.616C641.865 299.277 642.764 299.607 643.879 299.607C644.974 299.607 645.852 299.277 646.514 298.616C647.195 297.955 647.536 297.087 647.536 296.013C647.536 295.785 647.66 295.672 647.908 295.672L651.534 295.827C651.637 295.827 651.72 295.858 651.782 295.92C651.865 295.982 651.906 296.054 651.906 296.137C651.906 297.562 651.565 298.822 650.883 299.917C650.222 301.012 649.282 301.859 648.063 302.459C646.865 303.058 645.47 303.357 643.879 303.357ZM662.734 303.357C661.122 303.357 659.707 303.047 658.488 302.428C657.269 301.787 656.329 300.899 655.668 299.762C655.007 298.626 654.676 297.314 654.676 295.827V288.668C654.676 287.18 655.007 285.869 655.668 284.732C656.329 283.596 657.269 282.718 658.488 282.098C659.707 281.478 661.122 281.168 662.734 281.168C664.325 281.168 665.719 281.468 666.917 282.067C668.136 282.646 669.076 283.482 669.737 284.577C670.419 285.652 670.76 286.902 670.76 288.327C670.76 288.513 670.636 288.627 670.388 288.668L666.762 288.885H666.7C666.494 288.885 666.391 288.771 666.391 288.544C666.391 287.449 666.05 286.571 665.368 285.91C664.707 285.249 663.829 284.918 662.734 284.918C661.618 284.918 660.719 285.249 660.038 285.91C659.376 286.571 659.046 287.449 659.046 288.544V296.013C659.046 297.087 659.376 297.955 660.038 298.616C660.719 299.277 661.618 299.607 662.734 299.607C663.829 299.607 664.707 299.277 665.368 298.616C666.05 297.955 666.391 297.087 666.391 296.013C666.391 295.785 666.514 295.672 666.762 295.672L670.388 295.827C670.492 295.827 670.574 295.858 670.636 295.92C670.719 295.982 670.76 296.054 670.76 296.137C670.76 297.562 670.419 298.822 669.737 299.917C669.076 301.012 668.136 301.859 666.917 302.459C665.719 303.058 664.325 303.357 662.734 303.357ZM689.026 284.794C689.026 284.898 688.984 284.991 688.902 285.073C688.84 285.135 688.757 285.166 688.654 285.166H678.489C678.386 285.166 678.334 285.218 678.334 285.321V290.125C678.334 290.228 678.386 290.279 678.489 290.279H685.152C685.255 290.279 685.338 290.321 685.4 290.403C685.482 290.465 685.524 290.548 685.524 290.651V293.657C685.524 293.761 685.482 293.854 685.4 293.936C685.338 293.998 685.255 294.029 685.152 294.029H678.489C678.386 294.029 678.334 294.081 678.334 294.184V299.205C678.334 299.308 678.386 299.36 678.489 299.36H688.654C688.757 299.36 688.84 299.401 688.902 299.484C688.984 299.546 689.026 299.628 689.026 299.731V302.737C689.026 302.841 688.984 302.934 688.902 303.016C688.84 303.078 688.757 303.109 688.654 303.109H674.336C674.233 303.109 674.14 303.078 674.057 303.016C673.995 302.934 673.964 302.841 673.964 302.737V281.788C673.964 281.685 673.995 281.602 674.057 281.54C674.14 281.458 674.233 281.416 674.336 281.416H688.654C688.757 281.416 688.84 281.458 688.902 281.54C688.984 281.602 689.026 281.685 689.026 281.788V284.794ZM699.5 303.357C697.847 303.357 696.401 303.099 695.161 302.583C693.922 302.045 692.961 301.291 692.279 300.32C691.618 299.329 691.287 298.182 691.287 296.88V296.199C691.287 296.095 691.318 296.013 691.38 295.951C691.463 295.868 691.556 295.827 691.659 295.827H695.192C695.295 295.827 695.378 295.868 695.44 295.951C695.523 296.013 695.564 296.095 695.564 296.199V296.663C695.564 297.49 695.946 298.192 696.711 298.771C697.475 299.329 698.508 299.607 699.81 299.607C700.905 299.607 701.721 299.38 702.258 298.926C702.795 298.451 703.064 297.872 703.064 297.19C703.064 296.694 702.898 296.281 702.568 295.951C702.237 295.599 701.783 295.3 701.204 295.052C700.646 294.783 699.748 294.422 698.508 293.967C697.124 293.492 695.946 293.007 694.975 292.511C694.025 292.015 693.219 291.343 692.558 290.496C691.918 289.629 691.597 288.565 691.597 287.304C691.597 286.065 691.918 284.98 692.558 284.05C693.198 283.121 694.087 282.408 695.223 281.912C696.359 281.416 697.671 281.168 699.159 281.168C700.729 281.168 702.124 281.447 703.343 282.005C704.582 282.563 705.543 283.348 706.225 284.36C706.927 285.352 707.278 286.509 707.278 287.831V288.296C707.278 288.399 707.237 288.492 707.154 288.575C707.092 288.637 707.01 288.668 706.906 288.668H703.343C703.239 288.668 703.146 288.637 703.064 288.575C703.002 288.492 702.971 288.399 702.971 288.296V288.048C702.971 287.18 702.609 286.447 701.886 285.848C701.184 285.228 700.213 284.918 698.973 284.918C698.002 284.918 697.238 285.125 696.68 285.538C696.143 285.951 695.874 286.519 695.874 287.242C695.874 287.759 696.029 288.193 696.339 288.544C696.669 288.895 697.145 289.215 697.764 289.505C698.405 289.773 699.386 290.145 700.708 290.62C702.175 291.158 703.322 291.633 704.148 292.046C704.995 292.459 705.749 293.079 706.411 293.905C707.092 294.711 707.433 295.765 707.433 297.066C707.433 299.008 706.72 300.548 705.295 301.684C703.869 302.799 701.938 303.357 699.5 303.357ZM717.93 303.357C716.278 303.357 714.831 303.099 713.592 302.583C712.352 302.045 711.392 301.291 710.71 300.32C710.049 299.329 709.718 298.182 709.718 296.88V296.199C709.718 296.095 709.749 296.013 709.811 295.951C709.894 295.868 709.987 295.827 710.09 295.827H713.623C713.726 295.827 713.809 295.868 713.871 295.951C713.953 296.013 713.995 296.095 713.995 296.199V296.663C713.995 297.49 714.377 298.192 715.141 298.771C715.906 299.329 716.939 299.607 718.24 299.607C719.335 299.607 720.151 299.38 720.689 298.926C721.226 298.451 721.494 297.872 721.494 297.19C721.494 296.694 721.329 296.281 720.998 295.951C720.668 295.599 720.213 295.3 719.635 295.052C719.077 294.783 718.178 294.422 716.939 293.967C715.555 293.492 714.377 293.007 713.406 292.511C712.456 292.015 711.65 291.343 710.989 290.496C710.348 289.629 710.028 288.565 710.028 287.304C710.028 286.065 710.348 284.98 710.989 284.05C711.629 283.121 712.517 282.408 713.654 281.912C714.79 281.416 716.102 281.168 717.59 281.168C719.16 281.168 720.554 281.447 721.773 282.005C723.013 282.563 723.973 283.348 724.655 284.36C725.358 285.352 725.709 286.509 725.709 287.831V288.296C725.709 288.399 725.668 288.492 725.585 288.575C725.523 288.637 725.44 288.668 725.337 288.668H721.773C721.67 288.668 721.577 288.637 721.494 288.575C721.432 288.492 721.401 288.399 721.401 288.296V288.048C721.401 287.18 721.04 286.447 720.317 285.848C719.614 285.228 718.643 284.918 717.404 284.918C716.433 284.918 715.668 285.125 715.11 285.538C714.573 285.951 714.305 286.519 714.305 287.242C714.305 287.759 714.46 288.193 714.769 288.544C715.1 288.895 715.575 289.215 716.195 289.505C716.835 289.773 717.817 290.145 719.139 290.62C720.606 291.158 721.753 291.633 722.579 292.046C723.426 292.459 724.18 293.079 724.841 293.905C725.523 294.711 725.864 295.765 725.864 297.066C725.864 299.008 725.151 300.548 723.726 301.684C722.3 302.799 720.368 303.357 717.93 303.357Z"></path>
<path stroke-width="4.27684" stroke="#71E8DF" d="M131.175 322.281C185.17 316.401 278.298 315.01 336.463 322.281"></path>
<defs>
<linearGradient gradientUnits="userSpaceOnUse" y2="0" x2="422" y1="474" x1="422" id="paint0_linear_9944_187349">
<stop stop-color="#093137"></stop>
<stop stop-color="#0A0B16" offset="1"></stop>
</linearGradient>
</defs>
</svg>
