<svg xmlns="http://www.w3.org/2000/svg" fill="none" viewBox="0 0 844 474" height="474" width="844">
<g clip-path="url(#clip0_7077_8581)">
<rect fill="url(#paint0_linear_7077_8581)" height="474" width="844"></rect>
<path fill="url(#paint1_linear_7077_8581)" d="M570.19 -27.4651C569.54 -27.8404 568.74 -27.8404 568.09 -27.4651L444.225 44.048C443.575 44.4233 443.175 45.1168 443.175 45.8674C443.175 46.618 443.575 47.3116 444.225 47.6868L564.988 117.41L444.225 187.132C443.575 187.507 443.175 188.201 443.175 188.952C443.175 189.702 443.575 190.396 444.225 190.771L564.979 260.488L444.225 330.205C443.575 330.58 443.175 331.274 443.175 332.024C443.175 332.775 443.575 333.469 444.225 333.844L564.998 403.572L444.225 473.301C443.575 473.676 443.175 474.369 443.175 475.12C443.175 475.871 443.575 476.564 444.225 476.939L564.994 546.665L444.225 616.391C443.575 616.766 443.175 617.46 443.175 618.21C443.175 618.961 443.575 619.654 444.225 620.03L564.989 689.752L444.225 759.475C443.575 759.85 443.175 760.544 443.175 761.294C443.175 762.045 443.575 762.739 444.225 763.114L564.99 832.838L444.225 902.561C443.575 902.937 443.175 903.63 443.175 904.381C443.175 905.131 443.575 905.825 444.225 906.2L564.987 975.922L444.225 1045.64C443.575 1046.02 443.175 1046.71 443.175 1047.46C443.175 1048.21 443.575 1048.91 444.225 1049.28L568.09 1120.8C568.74 1121.17 569.54 1121.17 570.19 1120.8L692.849 1049.98L815.508 1120.8C816.158 1121.17 816.959 1121.17 817.609 1120.8L940.269 1049.98L1062.93 1120.8C1063.58 1121.17 1064.38 1121.17 1065.03 1120.8L1187.69 1049.98L1310.35 1120.8C1311 1121.17 1311.8 1121.17 1312.45 1120.8L1435.11 1049.98L1557.77 1120.8C1558.42 1121.17 1559.22 1121.17 1559.87 1120.8L1682.53 1049.98L1805.19 1120.8C1805.84 1121.17 1806.64 1121.17 1807.29 1120.8L1929.95 1049.98L2052.61 1120.8C2053.26 1121.17 2054.06 1121.17 2054.71 1120.8L2177.37 1049.98L2300.03 1120.8C2300.68 1121.17 2301.48 1121.17 2302.13 1120.8L2425.99 1049.28C2426.64 1048.91 2427.04 1048.21 2427.04 1047.46C2427.04 1046.71 2426.64 1046.02 2425.99 1045.64L2364.06 1009.89L2305.23 975.922L2425.99 906.2C2426.64 905.825 2427.04 905.131 2427.04 904.381C2427.04 903.63 2426.64 902.937 2425.99 902.561L2364.06 866.805L2305.23 832.838L2425.99 763.114C2426.64 762.739 2427.04 762.045 2427.04 761.294C2427.04 760.544 2426.64 759.85 2425.99 759.475L2364.06 723.718L2305.23 689.752L2425.99 620.03C2426.64 619.654 2427.04 618.961 2427.04 618.21C2427.04 617.46 2426.64 616.766 2425.99 616.391L2364.06 580.634L2305.22 546.665L2425.99 476.939C2426.64 476.564 2427.04 475.871 2427.04 475.12C2427.04 474.369 2426.64 473.676 2425.99 473.301L2364.06 437.544L2305.22 403.572L2425.99 333.844C2426.64 333.469 2427.04 332.775 2427.04 332.024C2427.04 331.274 2426.64 330.58 2425.99 330.205L2364.06 294.448L2305.24 260.488L2425.99 190.771C2426.64 190.396 2427.04 189.702 2427.04 188.952C2427.04 188.201 2426.64 187.508 2425.99 187.132L2364.06 151.376L2305.23 117.41L2425.99 47.6868C2426.64 47.3116 2427.04 46.618 2427.04 45.8674C2427.04 45.1168 2426.64 44.4233 2425.99 44.048L2364.06 8.29144L2302.13 -27.4651C2301.48 -27.8404 2300.68 -27.8404 2300.03 -27.4651L2177.37 43.3523L2116.64 8.29144L2054.71 -27.4651C2054.06 -27.8404 2053.26 -27.8404 2052.61 -27.4651L1929.95 43.3522L1869.22 8.29144L1807.29 -27.4651C1806.64 -27.8404 1805.84 -27.8404 1805.19 -27.4651L1682.53 43.352L1621.8 8.29144L1559.87 -27.4651C1559.22 -27.8404 1558.42 -27.8404 1557.77 -27.4651L1435.11 43.3525L1374.38 8.29144L1312.45 -27.4651C1311.8 -27.8404 1311 -27.8404 1310.35 -27.4651L1187.69 43.352L1126.96 8.29144L1065.03 -27.4651C1064.38 -27.8404 1063.58 -27.8404 1062.93 -27.4651L940.269 43.3525L879.541 8.29144L817.609 -27.4651C816.959 -27.8404 816.158 -27.8404 815.508 -27.4651L692.849 43.352L632.123 8.29144L570.19 -27.4651ZM2296.92 975.922L2177.37 906.896L2057.81 975.922L2116.64 1009.89L2177.37 1044.95L2296.92 975.922ZM2049.5 975.922L1929.95 1044.95L1869.22 1009.89L1810.39 975.922L1929.95 906.896L2049.5 975.922ZM1802.08 975.922L1682.53 906.896L1562.97 975.922L1621.8 1009.89L1682.53 1044.95L1802.08 975.922ZM1554.66 975.922L1435.11 1044.95L1374.38 1009.89L1315.55 975.922L1435.11 906.896L1554.66 975.922ZM1307.24 975.922L1187.69 1044.95L1126.96 1009.89L1068.13 975.922L1187.69 906.896L1307.24 975.922ZM1059.83 975.922L940.269 906.896L820.712 975.922L879.541 1009.89L940.269 1044.95L1059.83 975.922ZM812.405 975.922L692.849 1044.95L632.123 1009.89L573.294 975.922L692.849 906.896L812.405 975.922ZM2296.93 832.838L2177.37 901.866L2116.64 866.805L2057.81 832.838L2177.37 763.81L2296.93 832.838ZM2049.51 832.838L1929.95 763.81L1810.39 832.838L1869.22 866.805L1929.95 901.866L2049.51 832.838ZM1802.09 832.838L1682.53 901.865L1621.8 866.805L1562.97 832.838L1682.53 763.81L1802.09 832.838ZM1554.67 832.838L1435.11 763.809L1315.55 832.838L1374.38 866.805L1435.11 901.866L1554.67 832.838ZM1307.25 832.838L1187.69 763.81L1068.13 832.838L1126.96 866.805L1187.69 901.865L1307.25 832.838ZM1059.83 832.838L940.269 901.866L879.541 866.805L820.708 832.838L940.269 763.809L1059.83 832.838ZM812.409 832.838L692.849 763.81L573.29 832.838L632.123 866.805L692.849 901.865L812.409 832.838ZM2296.92 689.752L2177.37 620.725L2057.81 689.752L2116.64 723.718L2177.37 758.779L2296.92 689.752ZM2049.5 689.752L1929.95 758.779L1869.22 723.718L1810.39 689.752L1929.95 620.725L2049.5 689.752ZM1802.08 689.752L1682.53 620.726L1562.97 689.752L1621.8 723.718L1682.53 758.779L1802.08 689.752ZM1554.67 689.752L1435.11 758.779L1374.38 723.718L1315.55 689.752L1435.11 620.725L1554.67 689.752ZM1307.25 689.752L1187.69 758.779L1126.96 723.718L1068.13 689.752L1187.69 620.726L1307.25 689.752ZM1059.83 689.752L940.269 620.725L820.71 689.752L879.541 723.718L940.269 758.779L1059.83 689.752ZM812.407 689.752L692.849 758.779L632.123 723.718L573.292 689.752L692.849 620.726L812.407 689.752ZM2296.93 546.665L2177.37 615.695L2116.64 580.634L2057.8 546.665L2177.37 477.635L2296.93 546.665ZM2049.51 546.665L1929.95 477.635L1810.38 546.665L1869.22 580.634L1929.95 615.695L2049.51 546.665ZM1802.09 546.665L1682.53 615.695L1621.8 580.634L1562.96 546.665L1682.53 477.635L1802.09 546.665ZM1554.67 546.665L1435.11 477.635L1315.54 546.665L1374.38 580.634L1435.11 615.695L1554.67 546.665ZM1307.25 546.665L1187.69 477.635L1068.13 546.665L1126.96 580.634L1187.69 615.695L1307.25 546.665ZM1059.83 546.665L940.269 615.695L879.541 580.634L820.705 546.665L940.269 477.635L1059.83 546.665ZM812.412 546.665L692.849 477.635L573.286 546.665L632.123 580.634L692.849 615.695L812.412 546.665ZM2296.93 403.572L2177.37 334.54L2057.8 403.572L2116.64 437.544L2177.37 472.605L2296.93 403.572ZM2049.51 403.572L1929.95 472.605L1869.22 437.544L1810.38 403.572L1929.95 334.54L2049.51 403.572ZM1802.09 403.572L1682.53 334.54L1562.96 403.572L1621.8 437.544L1682.53 472.605L1802.09 403.572ZM1554.68 403.572L1435.11 472.605L1374.38 437.544L1315.54 403.572L1435.11 334.539L1554.68 403.572ZM1307.26 403.572L1187.69 472.605L1126.96 437.544L1068.12 403.572L1187.69 334.54L1307.26 403.572ZM1059.84 403.572L940.269 334.539L820.7 403.572L879.541 437.544L940.269 472.605L1059.84 403.572ZM812.417 403.572L692.849 472.605L632.123 437.544L573.282 403.572L692.849 334.54L812.417 403.572ZM2296.91 260.488L2177.37 329.509L2116.64 294.448L2057.82 260.488L2177.37 191.467L2296.91 260.488ZM2049.49 260.488L1929.95 191.467L1810.4 260.488L1869.22 294.448L1929.95 329.509L2049.49 260.488ZM1802.07 260.488L1682.53 329.509L1621.8 294.448L1562.98 260.488L1682.53 191.467L1802.07 260.488ZM1554.66 260.488L1435.11 191.467L1315.56 260.488L1374.38 294.448L1435.11 329.509L1554.66 260.488ZM1307.24 260.488L1187.69 191.467L1068.14 260.488L1126.96 294.448L1187.69 329.509L1307.24 260.488ZM1059.82 260.488L940.269 329.509L879.541 294.448L820.72 260.488L940.269 191.467L1059.82 260.488ZM812.397 260.488L692.849 191.467L573.302 260.488L632.123 294.448L692.849 329.509L812.397 260.488ZM2296.92 117.41L2177.37 48.3826L2057.81 117.41L2116.64 151.376L2177.37 186.436L2296.92 117.41ZM2049.5 117.41L1929.95 186.436L1869.22 151.376L1810.39 117.41L1929.95 48.3826L2049.5 117.41ZM1802.09 117.41L1682.53 48.3829L1562.97 117.41L1621.8 151.376L1682.53 186.436L1802.09 117.41ZM1554.67 117.41L1435.11 186.437L1374.38 151.376L1315.55 117.41L1435.11 48.3823L1554.67 117.41ZM1307.25 117.41L1187.69 186.436L1126.96 151.376L1068.13 117.41L1187.69 48.3828L1307.25 117.41ZM1059.83 117.41L940.269 48.3823L820.71 117.41L879.541 151.376L940.269 186.437L1059.83 117.41ZM812.407 117.41L692.849 186.436L632.123 151.376L573.292 117.41L692.849 48.3829L812.407 117.41ZM569.14 114.955L449.477 45.8674L569.14 -23.2198L630.022 11.9303L688.803 45.8674L569.14 114.955ZM816.559 114.955L696.896 45.8674L816.559 -23.2198L877.44 11.9303L936.221 45.8674L816.559 114.955ZM944.316 45.8674L1063.98 114.955L1183.64 45.8674L1124.86 11.9303L1063.98 -23.2198L944.316 45.8674ZM1311.4 114.955L1191.74 45.8674L1311.4 -23.2198L1372.28 11.9303L1431.06 45.8674L1311.4 114.955ZM1439.16 45.8674L1558.82 114.955L1678.48 45.8674L1619.7 11.9303L1558.82 -23.2198L1439.16 45.8674ZM1686.57 45.8674L1806.24 114.955L1925.9 45.8674L1867.12 11.9303L1806.24 -23.2198L1686.57 45.8674ZM2053.66 114.955L1933.99 45.8674L2053.66 -23.2198L2114.54 11.9303L2173.32 45.8674L2053.66 114.955ZM2181.41 45.8674L2301.08 114.955L2420.74 45.8674L2361.96 11.9303L2301.08 -23.2198L2181.41 45.8674ZM569.14 258.039L449.477 188.952L569.14 119.864L630.022 155.014L688.803 188.952L569.14 258.039ZM696.896 188.952L816.559 258.039L936.221 188.952L877.44 155.014L816.559 119.864L696.896 188.952ZM1063.98 258.039L944.316 188.952L1063.98 119.864L1124.86 155.014L1183.64 188.952L1063.98 258.039ZM1191.74 188.952L1311.4 258.039L1431.06 188.952L1372.28 155.015L1311.4 119.865L1191.74 188.952ZM1558.82 258.039L1439.16 188.952L1558.82 119.864L1619.7 155.014L1678.48 188.952L1558.82 258.039ZM1806.24 258.039L1686.57 188.952L1806.24 119.865L1867.12 155.015L1925.9 188.952L1806.24 258.039ZM1933.99 188.952L2053.66 258.039L2173.32 188.952L2114.54 155.014L2053.66 119.864L1933.99 188.952ZM2301.08 258.039L2181.41 188.952L2301.08 119.865L2361.96 155.015L2420.74 188.952L2301.08 258.039ZM449.477 332.024L569.14 401.112L688.803 332.024L630.022 298.087L569.14 262.937L449.477 332.024ZM816.559 401.112L696.896 332.024L816.559 262.937L877.44 298.087L936.221 332.024L816.559 401.112ZM944.316 332.024L1063.98 401.112L1183.64 332.024L1124.86 298.087L1063.98 262.937L944.316 332.024ZM1311.4 401.112L1191.74 332.024L1311.4 262.937L1372.28 298.087L1431.06 332.024L1311.4 401.112ZM1439.16 332.024L1558.82 401.112L1678.48 332.024L1619.7 298.087L1558.82 262.937L1439.16 332.024ZM1686.57 332.024L1806.24 401.112L1925.9 332.024L1867.12 298.087L1806.24 262.937L1686.57 332.024ZM2053.66 401.112L1933.99 332.024L2053.66 262.937L2114.54 298.087L2173.32 332.024L2053.66 401.112ZM2181.41 332.024L2301.08 401.112L2420.74 332.024L2361.96 298.087L2301.08 262.937L2181.41 332.024ZM569.14 544.207L449.477 475.12L569.14 406.033L630.022 441.183L688.803 475.12L569.14 544.207ZM696.896 475.12L816.559 544.207L936.221 475.12L877.44 441.183L816.559 406.033L696.896 475.12ZM1063.98 544.207L944.316 475.12L1063.98 406.033L1124.86 441.183L1183.64 475.12L1063.98 544.207ZM1191.74 475.12L1311.4 544.207L1431.06 475.12L1372.28 441.183L1311.4 406.033L1191.74 475.12ZM1558.82 544.207L1439.16 475.12L1558.82 406.033L1619.7 441.183L1678.48 475.12L1558.82 544.207ZM1806.24 544.207L1686.57 475.12L1806.24 406.033L1867.12 441.183L1925.9 475.12L1806.24 544.207ZM1933.99 475.12L2053.66 544.207L2173.32 475.12L2114.54 441.183L2053.66 406.033L1933.99 475.12ZM2301.08 544.207L2181.41 475.12L2301.08 406.033L2361.96 441.183L2420.74 475.12L2301.08 544.207ZM449.477 618.21L569.14 687.297L688.803 618.21L630.022 584.273L569.14 549.123L449.477 618.21ZM816.559 687.297L696.896 618.21L816.559 549.123L877.44 584.273L936.221 618.21L816.559 687.297ZM944.316 618.21L1063.98 687.297L1183.64 618.21L1124.86 584.273L1063.98 549.123L944.316 618.21ZM1311.4 687.297L1191.74 618.21L1311.4 549.123L1372.28 584.273L1431.06 618.21L1311.4 687.297ZM1439.16 618.21L1558.82 687.297L1678.48 618.21L1619.7 584.273L1558.82 549.123L1439.16 618.21ZM1686.57 618.21L1806.24 687.297L1925.9 618.21L1867.12 584.273L1806.24 549.123L1686.57 618.21ZM2053.66 687.297L1933.99 618.21L2053.66 549.123L2114.54 584.273L2173.32 618.21L2053.66 687.297ZM2181.41 618.21L2301.08 687.297L2420.74 618.21L2361.96 584.273L2301.08 549.123L2181.41 618.21ZM569.14 830.382L449.477 761.294L569.14 692.207L630.022 727.357L688.803 761.294L569.14 830.382ZM696.896 761.294L816.559 830.382L936.221 761.294L877.44 727.357L816.559 692.207L696.896 761.294ZM1063.98 830.382L944.316 761.294L1063.98 692.207L1124.86 727.357L1183.64 761.294L1063.98 830.382ZM1191.74 761.294L1311.4 830.382L1431.06 761.294L1372.28 727.357L1311.4 692.207L1191.74 761.294ZM1558.82 830.382L1439.16 761.294L1558.82 692.207L1619.7 727.357L1678.48 761.294L1558.82 830.382ZM1806.24 830.382L1686.57 761.294L1806.24 692.207L1867.12 727.357L1925.9 761.294L1806.24 830.382ZM1933.99 761.294L2053.66 830.382L2173.32 761.294L2114.54 727.357L2053.66 692.207L1933.99 761.294ZM2301.08 830.382L2181.41 761.294L2301.08 692.207L2361.96 727.357L2420.74 761.294L2301.08 830.382ZM449.477 904.381L569.14 973.468L688.803 904.381L630.022 870.444L569.14 835.294L449.477 904.381ZM816.559 973.468L696.896 904.381L816.559 835.294L877.44 870.444L936.221 904.381L816.559 973.468ZM944.316 904.381L1063.98 973.468L1183.64 904.381L1124.86 870.444L1063.98 835.294L944.316 904.381ZM1311.4 973.468L1191.74 904.381L1311.4 835.294L1372.28 870.444L1431.06 904.381L1311.4 973.468ZM1439.16 904.381L1558.82 973.468L1678.48 904.381L1619.7 870.444L1558.82 835.294L1439.16 904.381ZM1686.57 904.381L1806.24 973.468L1925.9 904.381L1867.12 870.444L1806.24 835.294L1686.57 904.381ZM2053.66 973.468L1933.99 904.381L2053.66 835.294L2114.54 870.444L2173.32 904.381L2053.66 973.468ZM2181.41 904.381L2301.08 973.468L2420.74 904.381L2361.96 870.444L2301.08 835.294L2181.41 904.381ZM569.14 1116.55L449.477 1047.46L569.14 978.376L630.022 1013.53L688.803 1047.46L569.14 1116.55ZM696.896 1047.46L816.559 1116.55L936.221 1047.46L877.44 1013.53L816.559 978.376L696.896 1047.46ZM1063.98 1116.55L944.316 1047.46L1063.98 978.376L1124.86 1013.53L1183.64 1047.46L1063.98 1116.55ZM1191.74 1047.46L1311.4 1116.55L1431.06 1047.46L1372.28 1013.53L1311.4 978.376L1191.74 1047.46ZM1558.82 1116.55L1439.16 1047.46L1558.82 978.376L1619.7 1013.53L1678.48 1047.46L1558.82 1116.55ZM1806.24 1116.55L1686.57 1047.46L1806.24 978.376L1867.12 1013.53L1925.9 1047.46L1806.24 1116.55ZM1933.99 1047.46L2053.66 1116.55L2173.32 1047.46L2114.54 1013.53L2053.66 978.376L1933.99 1047.46ZM2301.08 1116.55L2181.41 1047.46L2301.08 978.376L2361.96 1013.53L2420.74 1047.46L2301.08 1116.55Z" clip-rule="evenodd" fill-rule="evenodd"></path>
<path fill="white" d="M379.487 407.55C379.274 407.55 379.076 407.596 378.893 407.657C379.282 407.916 379.495 408.258 379.602 408.647C379.61 408.7 379.625 408.738 379.632 408.791C379.64 408.837 379.648 408.883 379.648 408.928C379.678 409.598 379.472 409.682 379.327 410.078C379.106 410.588 379.167 411.137 379.434 411.578C379.457 411.631 379.487 411.692 379.526 411.746C379.236 409.819 380.845 409.53 381.142 408.928C381.165 408.403 380.731 408.053 380.387 407.809C380.059 407.611 379.762 407.55 379.487 407.55V407.55ZM381.913 407.984C381.882 408.159 381.905 408.114 381.897 408.205C381.89 408.266 381.89 408.342 381.882 408.403C381.867 408.464 381.852 408.525 381.829 408.586C381.814 408.647 381.791 408.708 381.768 408.768C381.737 408.829 381.714 408.883 381.684 408.944C381.661 408.974 381.646 409.005 381.623 409.035C381.608 409.058 381.592 409.081 381.577 409.103C381.539 409.157 381.501 409.21 381.463 409.256C381.417 409.301 381.379 409.355 381.325 409.393V409.4C381.28 409.439 381.234 409.484 381.181 409.522C381.02 409.644 380.837 409.735 380.67 409.85C380.616 409.888 380.563 409.918 380.517 409.964C380.464 410.002 380.418 410.04 380.372 410.086C380.319 410.131 380.281 410.177 380.235 410.23C380.197 410.276 380.151 410.329 380.121 410.383C380.082 410.436 380.044 410.489 380.014 410.543C379.983 410.604 379.96 410.657 379.93 410.718C379.907 410.779 379.884 410.832 379.869 410.893C379.846 410.961 379.831 411.022 379.815 411.083C379.808 411.114 379.808 411.152 379.8 411.182C379.793 411.213 379.793 411.243 379.785 411.274C379.785 411.334 379.777 411.403 379.777 411.464C379.777 411.51 379.777 411.555 379.785 411.601C379.785 411.662 379.793 411.723 379.808 411.791C379.815 411.852 379.831 411.913 379.846 411.974C379.869 412.035 379.884 412.096 379.907 412.157C379.922 412.195 379.945 412.233 379.96 412.263L378.206 411.586C377.909 411.502 377.619 411.426 377.322 411.357C377.161 411.319 377.001 411.281 376.841 411.243C376.384 411.152 375.918 411.083 375.453 411.038C375.438 411.038 375.43 411.03 375.415 411.03C374.957 410.984 374.508 410.961 374.05 410.961C373.714 410.961 373.379 410.977 373.051 410.999C372.586 411.03 372.12 411.091 371.655 411.167C371.541 411.182 371.426 411.205 371.312 411.228C371.076 411.274 370.847 411.327 370.626 411.38C370.511 411.411 370.397 411.441 370.283 411.472C370.168 411.517 370.061 411.571 369.955 411.616C369.871 411.654 369.787 411.692 369.703 411.73C369.688 411.738 369.672 411.738 369.665 411.746C369.589 411.784 369.52 411.814 369.451 411.852C369.428 411.86 369.413 411.867 369.398 411.875C369.314 411.913 369.23 411.959 369.161 411.997C369.108 412.02 369.055 412.05 369.009 412.073C368.986 412.088 368.956 412.104 368.94 412.111C368.872 412.149 368.803 412.187 368.742 412.225C368.673 412.263 368.612 412.301 368.559 412.34C368.506 412.378 368.452 412.408 368.406 412.446C368.399 412.454 368.391 412.454 368.384 412.461C368.338 412.492 368.284 412.53 368.239 412.568C368.239 412.568 368.231 412.576 368.223 412.583C368.185 412.614 368.147 412.644 368.109 412.675C368.094 412.682 368.078 412.697 368.063 412.705C368.025 412.736 367.987 412.774 367.949 412.804C367.941 412.819 367.926 412.827 367.918 412.835C367.873 412.88 367.827 412.918 367.781 412.964C367.773 412.964 367.773 412.972 367.766 412.979C367.72 413.017 367.674 413.063 367.629 413.109C367.621 413.116 367.621 413.124 367.613 413.124C367.575 413.162 367.537 413.2 367.499 413.246C367.484 413.261 367.461 413.276 367.446 413.291C367.407 413.337 367.362 413.383 367.316 413.428C367.308 413.444 367.293 413.451 367.285 413.466C367.224 413.527 367.171 413.588 367.11 413.649C367.102 413.657 367.095 413.664 367.087 413.672C366.965 413.801 366.835 413.931 366.698 414.045C366.561 414.167 366.416 414.281 366.271 414.38C366.119 414.487 365.974 414.578 365.813 414.67C365.661 414.753 365.501 414.829 365.333 414.898C365.173 414.966 365.005 415.027 364.837 415.081C364.517 415.149 364.189 415.279 363.907 415.302C363.846 415.302 363.777 415.317 363.716 415.324C363.648 415.34 363.587 415.355 363.526 415.37C363.465 415.393 363.404 415.416 363.343 415.439C363.282 415.461 363.221 415.492 363.159 415.522C363.106 415.56 363.045 415.591 362.992 415.629C362.938 415.667 362.885 415.713 362.839 415.758C362.786 415.796 362.732 415.85 362.687 415.895C362.641 415.949 362.595 415.994 362.557 416.048C362.519 416.109 362.473 416.162 362.443 416.223C362.404 416.276 362.366 416.337 362.336 416.398C362.305 416.467 362.275 416.527 362.252 416.596C362.229 416.657 362.206 416.725 362.183 416.794C362.168 416.855 362.153 416.916 362.145 416.977C362.145 416.984 362.138 416.992 362.138 417C362.122 417.068 362.122 417.159 362.115 417.205C362.107 417.258 362.099 417.304 362.099 417.357C362.099 417.388 362.099 417.426 362.107 417.456C362.115 417.51 362.122 417.555 362.138 417.601C362.153 417.647 362.168 417.692 362.191 417.738V417.746C362.214 417.791 362.244 417.837 362.275 417.883C362.305 417.928 362.336 417.974 362.374 418.02C362.412 418.058 362.458 418.104 362.504 418.142C362.549 418.187 362.595 418.225 362.649 418.264C362.832 418.423 362.877 418.477 363.114 418.599C363.152 418.621 363.19 418.637 363.236 418.659C363.243 418.659 363.251 418.667 363.259 418.667C363.259 418.682 363.259 418.69 363.266 418.705C363.274 418.766 363.289 418.827 363.304 418.888C363.32 418.956 363.343 419.017 363.365 419.071C363.388 419.116 363.404 419.162 363.426 419.208C363.434 419.223 363.442 419.238 363.449 419.246C363.48 419.307 363.51 419.36 363.541 419.413C363.579 419.467 363.617 419.52 363.655 419.573C363.693 419.619 363.739 419.672 363.785 419.718C363.831 419.764 363.876 419.802 363.93 419.847C363.93 419.847 363.937 419.855 363.945 419.855C363.991 419.893 364.037 419.931 364.082 419.962C364.136 420 364.189 420.03 364.25 420.061C364.303 420.091 364.364 420.121 364.425 420.144C364.471 420.167 364.525 420.182 364.578 420.198C364.586 420.205 364.593 420.205 364.609 420.213C364.639 420.22 364.677 420.228 364.708 420.236C364.685 420.647 364.677 421.035 364.738 421.172C364.807 421.324 365.142 420.86 365.478 420.327C365.432 420.852 365.402 421.469 365.478 421.652C365.562 421.842 366.019 421.248 366.416 420.594C371.823 419.345 376.757 423.076 377.276 428.345C377.177 427.523 376.163 427.066 375.697 427.18C375.469 427.743 375.08 428.467 374.454 428.916C374.508 428.413 374.485 427.896 374.378 427.393C374.21 428.094 373.882 428.748 373.432 429.312C372.708 429.365 371.983 429.015 371.602 428.49C371.571 428.467 371.564 428.421 371.541 428.391C371.518 428.337 371.495 428.284 371.48 428.231C371.457 428.177 371.442 428.124 371.434 428.071C371.427 428.017 371.427 427.964 371.427 427.903C371.427 427.865 371.427 427.827 371.427 427.789C371.434 427.736 371.449 427.682 371.465 427.629C371.48 427.576 371.495 427.523 371.518 427.469C371.549 427.416 371.571 427.363 371.61 427.309C371.739 426.944 371.739 426.647 371.503 426.472C371.457 426.441 371.411 426.418 371.358 426.396C371.327 426.388 371.289 426.373 371.259 426.365C371.236 426.358 371.221 426.35 371.198 426.342C371.144 426.327 371.091 426.312 371.038 426.304C370.984 426.289 370.931 426.281 370.877 426.281C370.824 426.274 370.763 426.266 370.71 426.266C370.672 426.266 370.633 426.274 370.595 426.274C370.534 426.274 370.481 426.281 370.427 426.297C370.374 426.304 370.321 426.312 370.267 426.327C370.214 426.342 370.161 426.358 370.107 426.38C370.054 426.403 370.008 426.426 369.955 426.449C369.909 426.472 369.863 426.502 369.81 426.525C368.033 427.682 369.093 430.393 370.305 431.177C369.848 431.261 369.383 431.36 369.253 431.459C369.245 431.467 369.238 431.474 369.238 431.474C369.566 431.672 369.909 431.84 370.267 431.985C370.755 432.144 371.274 432.289 371.503 432.35V432.358C372.136 432.487 372.776 432.533 373.425 432.495C376.803 432.259 379.571 429.693 380.075 426.312C380.09 426.38 380.105 426.441 380.121 426.51C380.143 426.647 380.174 426.792 380.189 426.936V426.944C380.204 427.012 380.212 427.081 380.22 427.142V427.172C380.227 427.241 380.235 427.309 380.235 427.37C380.243 427.454 380.25 427.538 380.25 427.622V427.743C380.25 427.781 380.258 427.827 380.258 427.865C380.258 427.911 380.25 427.957 380.25 428.002V428.109C380.25 428.162 380.243 428.208 380.243 428.261C380.243 428.292 380.243 428.322 380.235 428.36C380.235 428.413 380.227 428.467 380.227 428.528C380.22 428.551 380.22 428.573 380.22 428.596C380.212 428.657 380.204 428.71 380.197 428.771C380.197 428.794 380.197 428.817 380.189 428.84C380.182 428.916 380.166 428.985 380.159 429.061V429.068V429.076C380.143 429.144 380.128 429.221 380.113 429.289V429.312C380.098 429.381 380.082 429.449 380.067 429.518C380.067 429.525 380.059 429.54 380.059 429.548C380.044 429.617 380.029 429.685 380.006 429.754V429.776C379.983 429.853 379.96 429.921 379.945 429.99C379.937 429.997 379.937 430.005 379.937 430.005C379.915 430.081 379.892 430.157 379.869 430.233C379.838 430.309 379.815 430.378 379.785 430.454C379.754 430.53 379.732 430.606 379.701 430.675C379.671 430.751 379.64 430.82 379.61 430.896H379.602C379.571 430.964 379.541 431.04 379.503 431.109C379.495 431.132 379.487 431.147 379.48 431.162C379.472 431.17 379.472 431.177 379.465 431.185C378.969 432.183 378.237 433.058 377.322 433.744C377.261 433.782 377.2 433.827 377.139 433.873C377.123 433.888 377.1 433.896 377.085 433.911C377.032 433.949 376.978 433.987 376.917 434.025L376.94 434.071H376.948C377.055 434.056 377.161 434.04 377.268 434.025H377.276C377.474 433.995 377.672 433.957 377.871 433.919C377.924 433.911 377.985 433.896 378.038 433.881C378.077 433.873 378.107 433.865 378.145 433.858C378.199 433.85 378.252 433.835 378.305 433.827C378.351 433.812 378.397 433.804 378.443 433.789C379.205 433.606 379.945 433.355 380.654 433.058C379.442 434.711 377.817 436.043 375.918 436.919C376.795 436.858 377.672 436.713 378.519 436.469C381.592 435.563 384.178 433.5 385.726 430.721C385.413 432.48 384.712 434.155 383.674 435.617C384.414 435.129 385.093 434.566 385.711 433.926C387.419 432.144 388.54 429.883 388.921 427.454C389.181 428.657 389.257 429.898 389.142 431.124C394.649 423.457 389.6 415.507 387.488 413.413C387.48 413.398 387.472 413.39 387.472 413.375C387.465 413.383 387.465 413.383 387.465 413.39C387.465 413.383 387.465 413.383 387.457 413.375C387.457 413.467 387.449 413.558 387.442 413.649C387.419 413.824 387.396 413.992 387.366 414.159C387.327 414.327 387.282 414.494 387.236 414.662C387.183 414.822 387.122 414.989 387.053 415.149C386.984 415.302 386.908 415.462 386.824 415.614C386.74 415.758 386.649 415.911 386.55 416.048C386.45 416.192 386.344 416.33 386.237 416.459C386.122 416.596 386 416.718 385.878 416.84C385.802 416.908 385.734 416.969 385.657 417.03C385.596 417.083 385.543 417.129 385.482 417.182C385.345 417.289 385.207 417.388 385.055 417.479C384.91 417.571 384.757 417.662 384.605 417.738C384.445 417.814 384.284 417.883 384.124 417.951C383.964 418.012 383.796 418.066 383.629 418.111C383.461 418.157 383.285 418.195 383.118 418.226C382.942 418.256 382.767 418.271 382.599 418.286C382.477 418.294 382.355 418.302 382.233 418.302C382.058 418.302 381.882 418.286 381.714 418.271C381.539 418.256 381.364 418.233 381.196 418.195C381.02 418.165 380.853 418.119 380.685 418.066H380.677C380.845 418.05 381.013 418.035 381.181 418.005C381.356 417.974 381.524 417.936 381.692 417.89C381.859 417.845 382.027 417.791 382.187 417.731C382.355 417.67 382.515 417.593 382.668 417.517C382.828 417.441 382.973 417.357 383.125 417.266C383.27 417.167 383.415 417.068 383.552 416.962C383.69 416.855 383.819 416.741 383.941 416.619C384.071 416.505 384.185 416.375 384.3 416.246C384.414 416.109 384.521 415.972 384.62 415.835C384.635 415.812 384.651 415.781 384.666 415.758C384.742 415.637 384.818 415.515 384.887 415.393C384.971 415.241 385.047 415.088 385.116 414.928C385.184 414.769 385.245 414.609 385.299 414.441C385.352 414.281 385.39 414.114 385.428 413.946C385.459 413.771 385.489 413.604 385.505 413.436C385.52 413.261 385.535 413.086 385.535 412.918C385.535 412.796 385.528 412.675 385.52 412.553C385.505 412.378 385.482 412.21 385.459 412.043C385.428 411.868 385.39 411.7 385.345 411.532C385.291 411.373 385.238 411.205 385.177 411.045C385.116 410.885 385.04 410.725 384.963 410.573C384.879 410.421 384.795 410.269 384.704 410.124C384.605 409.979 384.506 409.842 384.399 409.705C384.285 409.576 384.17 409.446 384.048 409.317C383.987 409.256 383.918 409.187 383.85 409.126C383.507 408.86 383.148 408.609 382.79 408.38C382.736 408.35 382.691 408.327 382.637 408.304C382.386 408.144 382.149 408.06 381.913 407.984L381.913 407.984Z" clip-rule="evenodd" fill-rule="evenodd"></path>
<path fill="white" d="M398.673 427.395C398.897 427.289 399.108 427.224 399.306 427.184C399.794 427.105 400.071 427.039 400.15 426.987C400.282 426.908 400.374 426.802 400.414 426.697C400.467 426.512 400.493 426.131 400.493 425.525V424.379L400.506 423.444L400.467 422.048V421.219C400.467 420.666 400.427 420.205 400.335 419.862C400.308 419.731 400.19 419.599 400.005 419.467C399.754 419.283 399.345 419.112 398.752 418.941L398.739 418.309C398.844 418.282 398.95 418.256 399.042 418.243C399.134 418.23 399.49 418.137 400.11 417.979C400.598 417.808 400.915 417.677 401.047 417.611C401.1 417.584 401.166 417.545 401.271 417.492C401.377 417.4 401.495 417.321 401.627 417.229C401.891 417.044 402.207 416.715 402.577 416.268L403.276 416.215L403.249 417.703C403.236 417.848 403.236 417.966 403.236 418.058C403.236 418.137 403.236 418.335 403.249 418.664C403.988 418.032 404.647 417.598 405.254 417.347C406.032 417.018 406.784 416.86 407.483 416.86C408.314 416.86 409.053 417.071 409.673 417.479C410.306 417.887 410.715 418.361 410.899 418.888C411.097 419.428 411.189 420.521 411.189 422.141L411.137 426.46C411.137 426.657 411.176 426.829 411.242 426.96C411.334 427.026 411.585 427.092 411.981 427.158L412.627 427.276C412.706 427.395 412.746 427.526 412.746 427.698C412.746 427.803 412.746 427.948 412.732 428.132L410.134 427.948L409.369 427.974H408.762L407.008 428.106H406.56C406.547 427.987 406.547 427.908 406.547 427.842C406.547 427.684 406.56 427.513 406.573 427.329C406.692 427.303 407.008 427.263 407.496 427.197C407.628 427.184 407.773 427.145 407.945 427.105C408.116 427.039 408.222 426.96 408.248 426.894C408.314 426.736 408.354 426.46 408.354 426.038C408.354 425.288 408.34 424.722 408.327 424.327L408.34 422.799C408.34 420.929 408.235 419.77 407.997 419.323C407.655 418.651 407.153 418.322 406.481 418.322C405.993 418.322 405.478 418.453 404.951 418.704C404.41 418.954 403.869 419.336 403.302 419.849L403.276 420.073L403.302 420.903L403.289 421.785L403.342 423.905L403.315 424.234C403.315 425.67 403.368 426.486 403.487 426.67C403.606 426.855 404.041 427.052 404.806 427.276C404.832 427.421 404.845 427.54 404.845 427.605C404.845 427.711 404.806 427.869 404.753 428.093C404.476 428.106 404.239 428.106 404.054 428.106C403.869 428.106 403.579 428.08 403.183 428.027L401.772 428.001C401.06 428.001 400.044 428.027 398.712 428.093C398.673 428.001 398.66 427.908 398.66 427.816C398.66 427.75 398.66 427.605 398.673 427.395L398.673 427.395Z"></path>
<path fill="white" d="M414.249 421.062C414.486 420.311 414.684 419.811 414.869 419.574C415.357 418.85 415.884 418.283 416.438 417.875C417.005 417.467 417.507 417.204 417.955 417.072C418.549 416.901 419.01 416.822 419.379 416.822C420.21 416.822 420.883 416.887 421.384 417.019C421.899 417.138 422.334 417.322 422.677 417.559C423.165 417.901 423.56 418.257 423.864 418.599C424.167 418.955 424.405 419.376 424.589 419.85C424.787 420.324 424.893 420.904 424.919 421.575L423.442 421.549C423.033 421.549 422.149 421.51 420.764 421.431C420.25 421.404 419.907 421.378 419.709 421.378C419.643 421.378 419.168 421.391 418.285 421.391H417.137C417.124 421.523 417.111 421.628 417.111 421.707C417.111 422.181 417.177 422.668 417.282 423.195C417.401 423.709 417.573 424.156 417.797 424.551C418.034 424.947 418.311 425.276 418.654 425.552C418.997 425.842 419.353 426.04 419.709 426.171L420.474 426.421C421.16 426.421 421.608 426.395 421.846 426.356C422.268 426.263 422.637 426.158 422.954 426.026C423.283 425.881 423.666 425.644 424.128 425.315C424.444 425.552 424.708 425.75 424.932 425.947C424.154 426.79 423.336 427.422 422.505 427.804C421.674 428.186 420.738 428.37 419.709 428.37C419.01 428.37 418.443 428.318 417.995 428.186C417.414 428.028 416.874 427.791 416.399 427.462C415.924 427.132 415.515 426.724 415.172 426.25C414.829 425.763 414.565 425.263 414.394 424.749C414.183 424.077 414.064 423.538 414.064 423.142C414.064 422.366 414.13 421.681 414.249 421.062L414.249 421.062ZM421.951 420.496C421.938 419.995 421.846 419.534 421.661 419.073C421.477 418.626 421.186 418.283 420.791 418.033C420.408 417.783 420.013 417.651 419.617 417.651C419.023 417.651 418.496 417.915 418.008 418.428C417.533 418.955 417.269 419.653 417.203 420.548L420.224 420.561C420.421 420.561 420.698 420.548 421.041 420.522C421.305 420.496 421.49 420.482 421.595 420.482C421.674 420.482 421.793 420.482 421.951 420.496V420.496Z"></path>
<path fill="white" d="M427.016 424.367C427.279 424.314 427.477 424.288 427.596 424.288C427.662 424.288 427.754 424.288 427.873 424.301L427.992 424.432C428.48 425.275 428.783 425.776 428.941 425.96C429.245 426.315 429.548 426.605 429.851 426.829C430.049 426.961 430.366 427.119 430.801 427.264C431.091 427.369 431.408 427.422 431.737 427.422C432.291 427.422 432.766 427.25 433.162 426.895C433.558 426.526 433.755 426.144 433.755 425.723C433.755 425.446 433.676 425.209 433.531 425.012C433.386 424.814 433.083 424.617 432.634 424.419C432.41 424.327 431.856 424.169 430.959 423.945C430.076 423.721 429.548 423.576 429.363 423.511C428.941 423.353 428.572 423.129 428.255 422.852C427.926 422.562 427.688 422.246 427.517 421.891C427.293 421.39 427.174 420.956 427.174 420.6C427.174 419.929 427.279 419.389 427.464 418.954C427.662 418.533 427.939 418.151 428.295 417.822C428.546 417.572 428.928 417.348 429.442 417.15C429.957 416.953 430.524 416.847 431.104 416.847C431.948 416.847 432.687 416.9 433.32 417.019C433.953 417.137 434.494 417.308 434.929 417.532C434.995 417.73 435.061 418.204 435.167 418.928C435.259 419.665 435.312 420.1 435.312 420.232C435.312 420.298 435.298 420.363 435.272 420.429C435.035 420.495 434.85 420.535 434.692 420.535C434.613 420.535 434.481 420.521 434.309 420.508C434.23 420.39 434.125 420.192 433.993 419.955C433.571 419.165 433.135 418.612 432.687 418.296C432.239 417.967 431.737 417.809 431.144 417.809C430.537 417.809 430.023 417.993 429.614 418.335C429.311 418.599 429.166 418.941 429.166 419.389C429.166 419.679 429.324 419.968 429.64 420.271C429.944 420.574 430.484 420.811 431.249 420.969C432.41 421.219 433.267 421.483 433.808 421.733C434.599 422.102 435.167 422.549 435.483 423.05C435.8 423.55 435.971 424.13 435.971 424.788C435.971 425.815 435.575 426.671 434.797 427.356C434.032 428.027 432.911 428.37 431.421 428.37C431.236 428.37 430.722 428.33 429.904 428.238C429.535 428.199 429.1 428.106 428.598 427.975C428.466 427.935 428.15 427.817 427.622 427.593C427.53 427.54 427.464 427.474 427.411 427.408C427.385 427.329 427.319 426.961 427.24 426.302C427.108 425.222 427.029 424.577 427.016 424.367V424.367Z"></path>
<path fill="white" d="M437.884 418.045C438.926 417.611 439.678 417.176 440.14 416.755C440.614 416.333 441.102 415.635 441.63 414.687H442.382C442.461 414.924 442.501 415.161 442.501 415.412C442.501 415.872 442.487 416.228 442.487 416.491L442.448 417.268C442.448 417.308 442.448 417.413 442.461 417.571L442.764 417.584C442.804 417.584 443.226 417.571 444.004 417.532C444.07 417.532 444.4 417.518 444.993 417.505C445.046 417.742 445.086 417.953 445.086 418.137C445.086 418.348 445.046 418.585 444.98 418.848C444.69 418.888 444.479 418.901 444.321 418.901C444.255 418.901 444.11 418.901 443.899 418.875H443.213L442.975 418.862L442.342 418.888L442.316 423.945C442.303 424.919 442.316 425.538 442.369 425.775C442.421 426.025 442.527 426.249 442.685 426.473C442.883 426.565 443.107 426.618 443.358 426.618C443.595 426.618 443.767 426.591 443.885 426.552C444.004 426.499 444.202 426.381 444.466 426.17C444.519 426.117 444.611 426.065 444.716 425.986C444.927 426.144 445.112 426.315 445.244 426.486L445.297 426.644C444.98 427.131 444.545 427.513 443.978 427.79C443.424 428.066 442.83 428.198 442.197 428.198C441.366 428.198 440.707 427.935 440.192 427.421C439.678 426.894 439.428 426.091 439.428 424.998L439.48 422.68V418.901L439.071 418.888L438.109 418.901L437.937 418.862C437.884 418.783 437.858 418.717 437.858 418.638C437.858 418.585 437.871 418.388 437.884 418.045L437.884 418.045Z"></path>
<path fill="white" d="M609.592 427.259C609.344 426.507 608.696 425.984 607.858 425.858C607.462 425.799 607.009 425.824 606.474 425.935C605.54 426.128 604.847 426.202 604.342 426.216C606.25 422.984 607.802 419.298 608.695 415.829C610.14 410.219 609.368 407.664 608.466 406.508C606.078 403.448 602.595 401.805 598.393 401.754C596.152 401.727 594.184 402.171 593.157 402.49C592.202 402.321 591.174 402.226 590.095 402.209C588.074 402.177 586.288 402.618 584.762 403.527C583.917 403.24 582.561 402.836 580.996 402.579C577.313 401.972 574.344 402.445 572.173 403.983C569.544 405.846 568.326 409.082 568.551 413.602C568.622 415.037 569.423 419.403 570.683 423.544C571.407 425.924 572.18 427.901 572.979 429.419C574.111 431.572 575.324 432.841 576.685 433.296C577.448 433.551 578.833 433.729 580.291 432.512C580.476 432.736 580.722 432.959 581.05 433.166C581.465 433.429 581.973 433.644 582.48 433.771C584.309 434.23 586.022 434.115 587.483 433.472C587.492 433.733 587.499 433.982 587.505 434.197C587.515 434.546 587.524 434.888 587.537 435.208C587.623 437.371 587.77 439.052 588.205 440.229C588.229 440.294 588.261 440.392 588.295 440.497C588.511 441.163 588.874 442.278 589.797 443.151C590.752 444.055 591.908 444.333 592.966 444.333C593.497 444.333 594.003 444.263 594.447 444.167C596.031 443.827 597.829 443.308 599.13 441.451C600.359 439.694 600.957 437.049 601.065 432.881C601.079 432.763 601.092 432.651 601.105 432.544C601.113 432.471 601.122 432.397 601.131 432.323L601.42 432.349L601.495 432.354C603.108 432.428 605.079 432.085 606.29 431.52C607.247 431.075 610.314 429.451 609.592 427.259"></path>
<path fill="white" d="M607.149 427.943C602.336 428.939 602.005 427.305 602.005 427.305C607.086 419.742 609.211 410.143 607.377 407.794C602.376 401.386 593.719 404.416 593.575 404.495L593.528 404.504C592.578 404.306 591.513 404.188 590.317 404.168C588.14 404.132 586.488 404.741 585.234 405.694C585.234 405.694 569.791 399.313 570.509 413.719C570.662 416.783 574.889 436.907 579.931 430.829C581.774 428.606 583.554 426.727 583.554 426.727C584.438 427.316 585.497 427.617 586.607 427.509L586.693 427.435C586.666 427.711 586.678 427.981 586.728 428.301C585.429 429.756 585.81 430.012 583.214 430.548C580.587 431.091 582.13 432.057 583.138 432.31C584.359 432.616 587.186 433.05 589.095 430.369L589.019 430.675C589.528 431.084 589.885 433.334 589.826 435.374C589.766 437.414 589.726 438.815 590.127 439.909C590.528 441.002 590.927 443.464 594.34 442.73C597.192 442.117 598.67 440.529 598.876 437.879C599.022 435.995 599.352 436.274 599.373 434.59L599.638 433.792C599.943 431.239 599.686 430.415 601.443 430.798L601.87 430.836C603.164 430.895 604.856 430.627 605.85 430.164C607.989 429.169 609.258 427.506 607.148 427.943H607.149"></path>
<path fill="#10CBBF" d="M586.01 414.992C585.531 414.931 585.096 414.988 584.876 415.141C584.753 415.227 584.715 415.328 584.704 415.396C584.677 415.579 584.815 415.781 584.9 415.885C585.141 416.179 585.493 416.382 585.842 416.426C585.892 416.433 585.942 416.436 585.992 416.436C586.573 416.436 587.101 416.019 587.148 415.711C587.206 415.325 586.599 415.068 586.01 414.992"></path>
<path fill="#10CBBF" d="M599.895 414.873H599.895C599.855 414.522 599.342 414.422 598.856 414.505C598.37 414.587 597.899 414.854 597.939 415.206C597.97 415.479 598.375 415.946 598.855 415.946C598.896 415.946 598.937 415.942 598.978 415.935C599.298 415.881 599.533 415.634 599.645 415.491C599.815 415.273 599.913 415.031 599.895 414.873"></path>
<path fill="#11CCBF" d="M606.933 427.255C607.909 427.054 608.496 427.231 608.679 427.783C609.031 428.849 607.088 430.076 606.011 430.576C605.052 431.02 603.523 431.302 602.198 431.302C601.563 431.302 600.975 431.237 600.519 431.094C600.302 433.082 599.843 436.787 599.575 438.339C599.074 441.242 597.779 442.559 594.799 443.198C594.291 443.307 593.83 443.355 593.411 443.355C590.555 443.356 589.65 441.096 589.28 440.171L589.28 440.171C588.828 439.041 588.671 435.334 588.703 431.572C587.673 432.503 586.383 432.984 584.918 432.984C584.316 432.984 583.684 432.903 583.028 432.739C582.84 432.692 581.189 432.249 581.211 431.194C581.231 430.228 582.609 429.944 583.128 429.837L583.129 429.837C584.953 429.461 585.071 429.312 585.638 428.592C585.753 428.447 585.887 428.276 586.052 428.082L586.05 428.065L586.05 428.064C586.049 428.049 586.047 428.033 586.046 428.017C585.228 427.996 584.428 427.777 583.7 427.387C583.207 427.911 581.871 429.354 580.439 431.075C579.577 432.111 578.749 432.415 578.073 432.415C577.797 432.415 577.547 432.365 577.331 432.292C575.478 431.675 573.718 428.673 572.099 423.369C570.868 419.34 570.089 415.133 570.02 413.765C569.817 409.7 570.866 406.823 573.139 405.213C575.044 403.864 577.714 403.454 581.073 403.995C583.016 404.308 584.605 404.853 585.22 405.082C586.635 404.117 588.345 403.644 590.323 403.676C591.401 403.693 592.392 403.832 593.3 404.058C593.732 403.868 595.958 403.194 598.592 403.224C602.424 403.265 605.59 404.742 607.747 407.498C608.282 408.181 608.541 409.3 608.518 410.822C608.497 412.209 608.235 413.911 607.761 415.743C606.762 419.612 604.909 423.758 602.656 427.188C602.997 427.439 604.035 427.853 606.933 427.255ZM601.404 416.028C601.489 415.472 601.57 414.939 601.58 414.352C599.237 414.062 598.304 414.601 597.936 415.127C596.702 416.891 599.113 421.214 600.143 423.06C600.408 423.535 600.599 423.878 600.687 424.091C600.785 424.327 600.891 424.54 601.001 424.736C601.709 423.229 601.526 421.702 601.348 420.219C601.26 419.484 601.169 418.725 601.192 417.994C601.216 417.245 601.311 416.627 601.403 416.03L601.404 416.028ZM598.74 404.411C602.174 404.487 604.89 405.771 606.813 408.227C608.288 410.111 606.664 418.684 601.962 426.08C601.916 426.021 601.868 425.961 601.819 425.9L601.76 425.826C602.975 423.82 602.737 421.836 602.526 420.076C602.439 419.354 602.357 418.672 602.378 418.032C602.399 417.353 602.489 416.772 602.576 416.209L602.576 416.207C602.683 415.513 602.791 414.795 602.761 413.949C602.784 413.86 602.793 413.755 602.781 413.631C602.705 412.819 601.778 410.39 599.888 408.191C598.855 406.989 597.347 405.643 595.289 404.735C596.174 404.552 597.385 404.381 598.74 404.411ZM577.706 431.168C577.921 431.24 578.577 431.458 579.527 430.317C580.868 428.704 582.129 427.33 582.709 426.709C582.564 426.585 582.423 426.453 582.288 426.312C580.985 424.953 580.392 423.07 580.661 421.147C580.95 419.077 580.842 417.249 580.784 416.267C580.768 415.998 580.756 415.803 580.757 415.666C580.748 415.309 580.668 409.469 584.054 406.052C584.07 406.035 584.087 406.019 584.103 406.003L584.104 406.003L584.104 406.003C584.117 405.991 584.13 405.978 584.143 405.965C582.08 405.293 576.946 403.968 573.823 406.182C571.904 407.542 571.023 410.074 571.205 413.706C571.262 414.855 571.989 418.95 573.233 423.024C574.67 427.731 576.3 430.699 577.706 431.168L577.706 431.168ZM583.145 425.493C582.095 424.397 581.618 422.873 581.836 421.312C582.142 419.125 582.029 417.221 581.969 416.198L581.969 416.197L581.967 416.171C581.959 416.039 581.952 415.922 581.948 415.829C582.443 415.391 584.735 414.163 586.369 414.538C587.115 414.709 587.57 415.216 587.759 416.09C588.737 420.611 587.888 422.495 587.206 424.009L587.206 424.01C587.066 424.322 586.933 424.616 586.82 424.922L586.732 425.157L586.73 425.161L586.73 425.161C586.509 425.756 586.302 426.309 586.174 426.834C585.058 426.831 583.971 426.354 583.145 425.493ZM582.525 431.248C582.697 431.365 582.991 431.507 583.317 431.588C584.899 431.984 587.103 432.011 588.615 429.894C588.794 429.644 588.74 429.321 588.691 429.151C588.588 428.792 588.334 428.465 588.073 428.357L588.073 428.357C587.751 428.223 587.573 428.15 587.185 428.584L587.185 428.584C586.926 428.873 586.739 429.111 586.573 429.321L586.573 429.321L586.57 429.325C585.846 430.243 585.515 430.555 583.368 430.997C582.925 431.088 582.669 431.18 582.525 431.248ZM594.55 442.038C591.924 442.6 590.994 441.261 590.381 439.73C589.986 438.741 589.792 434.284 589.929 429.361C589.931 429.296 589.922 429.232 589.904 429.173C589.888 429.058 589.864 428.942 589.83 428.825C589.625 428.109 589.126 427.51 588.526 427.261C588.288 427.163 587.851 426.982 587.325 427.116C587.437 426.655 587.632 426.134 587.842 425.57L587.931 425.332C588.03 425.065 588.155 424.787 588.287 424.494C589.001 422.91 589.978 420.74 588.917 415.837C588.52 414.001 587.194 413.104 585.183 413.312C583.977 413.437 582.874 413.923 582.324 414.202C582.206 414.262 582.098 414.32 581.997 414.376C582.15 412.526 582.73 409.068 584.9 406.881C586.266 405.504 588.086 404.823 590.303 404.86C594.671 404.932 597.472 407.172 599.053 409.039C600.415 410.649 601.152 412.269 601.447 413.143C599.233 412.918 597.727 413.355 596.964 414.446C595.304 416.819 597.873 421.424 599.107 423.637C599.334 424.043 599.529 424.393 599.59 424.542C599.993 425.516 600.513 426.166 600.893 426.641L600.895 426.644C601.011 426.788 601.123 426.928 601.209 427.051C600.538 427.244 599.334 427.69 599.443 429.922C599.355 431.042 598.725 436.284 598.406 438.136C597.984 440.583 597.083 441.495 594.55 442.038ZM602.588 430.107C603.678 430.056 604.826 429.817 605.511 429.499C606.309 429.129 606.871 428.717 607.199 428.41L607.173 428.415C604.736 428.918 603.01 428.849 602.043 428.21C601.982 428.171 601.927 428.13 601.877 428.089C601.798 428.116 601.717 428.139 601.633 428.163L601.625 428.165L601.625 428.165C601.077 428.319 600.56 428.464 600.627 429.855C600.771 429.972 601.384 430.163 602.588 430.107Z" clip-rule="evenodd" fill-rule="evenodd"></path>
<g clip-path="url(#clip1_7077_8581)">
<path fill="white" d="M524.859 449.943C514.232 449.87 504.992 441.05 505.063 429.845C505.132 419.063 514.092 409.985 525.178 410.059C535.953 410.131 545.044 419.074 544.947 430.031C545.036 440.889 535.901 450.02 524.859 449.943ZM524.859 449.943C514.232 449.87 504.992 441.05 505.063 429.845C505.132 419.063 514.092 409.985 525.178 410.059C535.953 410.131 545.044 419.074 544.947 430.031C545.036 440.889 535.901 450.02 524.859 449.943Z"></path>
<path fill="white" d="M524.878 447.295C515.662 447.231 507.65 439.583 507.712 429.866C507.772 420.516 515.541 412.644 525.155 412.708C534.499 412.77 542.382 420.526 542.299 430.027C542.376 439.443 534.454 447.361 524.878 447.295ZM524.878 447.295C515.662 447.231 507.65 439.583 507.712 429.866C507.772 420.516 515.541 412.644 525.155 412.708C534.499 412.77 542.382 420.526 542.299 430.027C542.376 439.443 534.454 447.361 524.878 447.295Z"></path>
<path fill="#11CCBF" d="M531.444 429.994C531.4 430.818 530.68 431.503 529.97 431.383C529.967 431.383 529.963 431.383 529.96 431.383C529.174 431.384 528.536 430.748 528.535 429.962C528.562 429.174 529.215 428.553 530.004 428.566C530.79 428.57 531.487 429.234 531.444 429.994ZM518.805 437.981C519.101 437.99 519.398 437.984 519.739 437.984V440.131C517.615 440.491 515.865 439.887 515.436 438.092C515.289 437.432 515.198 436.76 515.165 436.084C515.12 435.369 515.199 434.645 515.144 433.931C514.993 431.966 514.739 431.295 512.853 431.202V428.757C512.988 428.725 513.125 428.702 513.263 428.686C514.297 428.636 514.733 428.319 514.964 427.3C515.069 426.728 515.131 426.149 515.15 425.567C515.232 424.443 515.203 423.3 515.39 422.194C515.661 420.594 516.654 419.817 518.294 419.73C518.761 419.705 519.229 419.727 519.758 419.727V421.922C519.54 421.937 519.341 421.969 519.143 421.963C517.806 421.922 517.737 422.377 517.639 423.484C517.578 424.178 517.662 424.884 517.615 425.58C517.566 426.273 517.473 426.962 517.338 427.644C517.145 428.631 516.538 429.366 515.696 429.989C517.33 431.052 517.515 432.704 517.622 434.381C517.679 435.282 517.652 436.19 517.744 437.086C517.815 437.782 518.086 437.96 518.805 437.981ZM520.181 428.566C520.19 428.566 520.198 428.566 520.207 428.566C520.988 428.579 521.61 429.222 521.598 430.004C521.598 430.029 521.597 430.055 521.595 430.08C521.551 430.843 520.897 431.426 520.134 431.383C520.103 431.383 520.072 431.383 520.042 431.381C519.264 431.342 518.665 430.681 518.704 429.904C518.743 429.126 519.404 428.527 520.181 428.566ZM525.048 428.566C525.902 428.559 526.469 429.113 526.474 429.957C526.479 430.824 525.941 431.379 525.092 431.383C524.229 431.387 523.661 430.841 523.656 430.001C523.654 429.959 523.653 429.916 523.654 429.873C523.678 429.127 524.302 428.542 525.048 428.566ZM535.237 427.496C535.465 428.345 535.907 428.643 536.8 428.684C536.947 428.691 537.092 428.716 537.293 428.738V431.183C537.185 431.218 537.073 431.245 536.96 431.262C535.763 431.337 535.217 431.828 535.096 433.028C535.019 433.795 535.025 434.57 534.972 435.339C534.95 436.183 534.873 437.025 534.742 437.859C534.437 439.371 533.493 440.125 531.934 440.218C531.432 440.247 530.926 440.222 530.385 440.222V438.037C530.676 438.019 530.933 437.994 531.191 437.988C532.123 437.966 532.452 437.665 532.498 436.74C532.548 435.723 532.57 434.705 532.616 433.688C532.682 432.219 533.084 430.906 534.453 429.989C533.67 429.43 533.041 428.754 532.878 427.841C532.681 426.736 532.617 425.606 532.511 424.484C532.459 423.924 532.461 423.358 532.407 422.798C532.348 422.194 531.932 421.985 531.382 421.971C531.067 421.963 530.75 421.969 530.347 421.969V419.836C532.919 419.409 534.696 420.264 534.861 422.725C534.93 423.759 534.92 424.797 534.986 425.83C535.015 426.393 535.099 426.951 535.237 427.496Z"></path>
</g>
<path fill="white" d="M225.726 425.475C225.427 425.963 225.431 426.577 225.738 427.06L231.286 435.798C231.646 436.365 232.34 436.623 232.984 436.43L248.993 431.635C249.867 431.373 250.306 430.4 249.924 429.573L239.633 407.284C239.131 406.197 237.618 406.108 236.991 407.128L225.726 425.475ZM239.359 412.38C239.141 411.874 238.4 411.952 238.291 412.492L234.329 432.189C234.246 432.604 234.635 432.959 235.042 432.838L246.103 429.541C246.426 429.445 246.592 429.089 246.458 428.78L239.359 412.38Z" clip-rule="evenodd" fill-rule="evenodd"></path>
<path fill="white" d="M259.654 421.401H260.629C261.54 421.401 262.221 421.222 262.674 420.862C263.127 420.503 263.353 419.979 263.353 419.292C263.353 418.599 263.163 418.087 262.784 417.756C262.405 417.425 261.811 417.26 261.001 417.26H259.654V421.401ZM266.345 419.185C266.345 420.687 265.875 421.835 264.935 422.63C263.995 423.426 262.659 423.823 260.926 423.823H259.654V428.786H256.691V414.834H261.155C262.85 414.834 264.139 415.198 265.021 415.926C265.904 416.655 266.345 417.741 266.345 419.185Z" clip-rule="evenodd" fill-rule="evenodd"></path>
<path fill="white" d="M274.202 417.914C274.597 417.914 274.925 417.943 275.186 418L274.967 420.729C274.731 420.666 274.444 420.634 274.106 420.634C273.176 420.634 272.451 420.873 271.931 421.35C271.412 421.827 271.153 422.495 271.153 423.354V428.784H268.237V418.115H270.445L270.876 419.909H271.019C271.35 419.311 271.798 418.829 272.362 418.463C272.926 418.097 273.539 417.914 274.202 417.914" clip-rule="evenodd" fill-rule="evenodd"></path>
<path fill="white" d="M276.723 428.785H279.639V418.116H276.723V428.785ZM276.6 415.358C276.6 414.41 277.129 413.936 278.186 413.936C279.244 413.936 279.773 414.41 279.773 415.358C279.773 415.81 279.641 416.161 279.376 416.412C279.112 416.664 278.715 416.789 278.186 416.789C277.129 416.789 276.6 416.312 276.6 415.358Z" clip-rule="evenodd" fill-rule="evenodd"></path>
<path fill="white" d="M289.916 425.616C289.916 426.71 289.535 427.543 288.773 428.116C288.012 428.689 286.873 428.975 285.356 428.975C284.579 428.975 283.916 428.922 283.368 428.817C282.82 428.712 282.307 428.558 281.829 428.355V425.95C282.371 426.204 282.981 426.417 283.66 426.589C284.338 426.761 284.936 426.847 285.452 426.847C286.509 426.847 287.039 426.541 287.039 425.931C287.039 425.702 286.968 425.516 286.828 425.372C286.688 425.229 286.446 425.067 286.102 424.885C285.758 424.704 285.299 424.493 284.725 424.251C283.904 423.907 283.299 423.589 282.914 423.297C282.528 423.004 282.248 422.668 282.073 422.29C281.898 421.911 281.81 421.445 281.81 420.892C281.81 419.944 282.178 419.211 282.914 418.692C283.65 418.173 284.693 417.914 286.044 417.914C287.332 417.914 288.584 418.194 289.801 418.754L288.922 420.853C288.386 420.624 287.886 420.437 287.421 420.29C286.956 420.144 286.481 420.071 285.997 420.071C285.136 420.071 284.706 420.303 284.706 420.767C284.706 421.029 284.845 421.254 285.122 421.445C285.399 421.636 286.006 421.919 286.943 422.295C287.778 422.632 288.39 422.947 288.778 423.239C289.167 423.532 289.454 423.869 289.639 424.251C289.823 424.633 289.916 425.088 289.916 425.616" clip-rule="evenodd" fill-rule="evenodd"></path>
<path fill="white" d="M301.459 428.784H298.543V422.552C298.543 421.783 298.414 421.205 298.157 420.82C297.898 420.436 297.492 420.243 296.938 420.243C296.192 420.243 295.651 420.516 295.313 421.064C294.975 421.611 294.806 422.511 294.806 423.765V428.784H291.891V418.115H294.118L294.51 419.48H294.673C294.959 418.99 295.374 418.606 295.915 418.329C296.457 418.053 297.078 417.914 297.779 417.914C299.378 417.914 300.462 418.436 301.029 419.48H301.287C301.574 418.983 301.996 418.598 302.553 418.325C303.111 418.051 303.74 417.914 304.441 417.914C305.652 417.914 306.568 418.225 307.189 418.845C307.81 419.465 308.121 420.459 308.121 421.827V428.784H305.196V422.552C305.196 421.783 305.067 421.205 304.809 420.82C304.551 420.436 304.145 420.243 303.59 420.243C302.877 420.243 302.343 420.498 301.989 421.006C301.636 421.516 301.459 422.323 301.459 423.43V428.784Z" clip-rule="evenodd" fill-rule="evenodd"></path>
<path fill="white" d="M316.605 423.839L315.477 423.877C314.63 423.903 313.999 424.056 313.585 424.336C313.17 424.616 312.963 425.042 312.963 425.614C312.963 426.435 313.435 426.845 314.378 426.845C315.053 426.845 315.594 426.651 315.998 426.263C316.403 425.875 316.605 425.36 316.605 424.717V423.839ZM317.466 428.783L316.902 427.332H316.825C316.334 427.949 315.83 428.377 315.31 428.616C314.791 428.854 314.114 428.974 313.279 428.974C312.253 428.974 311.446 428.681 310.856 428.096C310.267 427.51 309.972 426.677 309.972 425.595C309.972 424.463 310.369 423.628 311.162 423.09C311.956 422.553 313.152 422.255 314.751 422.198L316.605 422.141V421.673C316.605 420.592 316.051 420.051 314.942 420.051C314.088 420.051 313.085 420.308 311.931 420.824L310.966 418.858C312.196 418.215 313.56 417.894 315.057 417.894C316.491 417.894 317.59 418.206 318.355 418.829C319.119 419.453 319.502 420.4 319.502 421.673V428.783H317.466Z" clip-rule="evenodd" fill-rule="evenodd"></path>
<path stroke-linejoin="round" stroke-width="1.63408" stroke="#535BCB" fill="#B7F4EE" d="M319.753 151.474L245.585 194.272L319.753 237.07L393.922 194.272L356.838 172.873L319.753 151.474Z"></path>
<path stroke-linejoin="round" stroke-width="1.63408" stroke="#535BCB" fill="#B7F4EE" d="M486.824 221.833L393.922 275.47L486.824 329.107L579.726 275.47L533.275 248.651L486.824 221.833Z"></path>
<path stroke-linejoin="round" stroke-width="1.63408" stroke="#535BCB" fill="#B7F4EE" d="M319.753 125.033L245.585 167.607L319.753 210.181L393.922 167.607L356.838 146.32L319.753 125.033Z"></path>
<path stroke-linejoin="round" stroke-width="1.63408" stroke="#535BCB" fill="#B7F4EE" d="M486.824 184.188L393.922 237.825L486.824 291.462L579.726 237.825L533.275 211.007L486.824 184.188Z"></path>
<path stroke-linejoin="round" stroke-width="1.63408" stroke="#535BCB" fill="#B7F4EE" d="M319.753 87.3884L245.585 130.187L319.753 172.985L393.922 130.187L356.838 108.788L319.753 87.3884Z"></path>
<path stroke-linejoin="round" stroke-width="1.63408" stroke="#535BCB" fill="#B7F4EE" d="M486.824 141.614L393.922 195.251L486.824 248.888L579.726 195.251L533.275 168.433L486.824 141.614Z"></path>
<path stroke-linejoin="round" stroke-width="1.63408" stroke="#535BCB" fill="url(#paint2_linear_7077_8581)" d="M245.585 215.858L319.529 258.581V173.134L245.585 130.411V215.858Z"></path>
<path stroke-linejoin="round" stroke-width="1.63408" stroke="#535BCB" fill="url(#paint3_linear_7077_8581)" d="M393.922 302.635L486.824 356.271V248.998L393.922 195.361V302.635Z"></path>
<path stroke-linejoin="round" stroke-width="1.63408" stroke="#535BCB" fill="url(#paint4_linear_7077_8581)" d="M393.922 215.858V130.411L319.529 173.134V258.581L393.922 215.858Z"></path>
<path stroke-linejoin="round" stroke-width="1.63408" stroke="#535BCB" fill="url(#paint5_linear_7077_8581)" d="M579.726 302.645V195.371L486.824 249.008V356.282L579.726 302.645Z"></path>
<path stroke-linejoin="round" stroke-width="1.63408" stroke="#535BCB" fill="#B7F4EE" d="M378.796 311.37L347.763 329.287L378.796 347.204L409.83 329.287L394.313 320.328L378.796 311.37Z"></path>
<path stroke-linejoin="round" stroke-width="1.63408" stroke="#535BCB" fill="#B7F4EE" d="M378.796 300.292L347.763 318.209L378.796 336.126L409.83 318.209L394.313 309.251L378.796 300.292Z"></path>
<path stroke-linejoin="round" stroke-width="1.63408" stroke="#535BCB" fill="#B7F4EE" d="M378.796 284.573L347.763 302.491L378.796 320.408L409.83 302.491L394.313 293.532L378.796 284.573Z"></path>
<path stroke-linejoin="round" stroke-width="1.63408" stroke="#535BCB" fill="url(#paint6_linear_7077_8581)" d="M347.763 338.362L378.796 356.279V320.445L347.763 302.527V338.362Z"></path>
<path stroke-linejoin="round" stroke-width="1.63408" stroke="#535BCB" fill="url(#paint7_linear_7077_8581)" d="M409.83 338.365V302.531L378.797 320.448V356.282L409.83 338.365Z"></path>
<path fill="#4C51BF" d="M581.566 150.897C581.246 151.216 581.246 151.734 581.566 152.054L586.771 157.259C587.09 157.578 587.608 157.578 587.927 157.259C588.247 156.939 588.247 156.421 587.927 156.102L583.301 151.475L587.927 146.849C588.247 146.529 588.247 146.012 587.927 145.692C587.608 145.373 587.09 145.373 586.771 145.692L581.566 150.897ZM641.878 152.054C642.197 151.734 642.197 151.216 641.878 150.897L636.673 145.692C636.354 145.373 635.836 145.373 635.517 145.692C635.197 146.012 635.197 146.529 635.517 146.849L640.143 151.475L635.517 156.102C635.197 156.421 635.197 156.939 635.517 157.259C635.836 157.578 636.354 157.578 636.673 157.259L641.878 152.054ZM582.144 152.293H641.3V150.657H582.144V152.293Z"></path>
<path fill="#4C51BF" d="M590.807 129.741C590.355 129.741 589.989 130.108 589.989 130.559L589.989 137.92C589.989 138.372 590.355 138.738 590.807 138.738C591.259 138.738 591.625 138.372 591.625 137.92L591.625 131.377L598.168 131.377C598.619 131.377 598.986 131.011 598.986 130.559C598.986 130.108 598.619 129.741 598.168 129.741L590.807 129.741ZM632.636 173.206C633.088 173.206 633.454 172.84 633.454 172.389L633.454 165.028C633.454 164.576 633.088 164.21 632.636 164.21C632.184 164.21 631.818 164.576 631.818 165.028L631.818 171.571L625.275 171.571C624.824 171.571 624.457 171.937 624.457 172.389C624.457 172.84 624.824 173.206 625.275 173.206L632.636 173.206ZM590.229 131.138L632.058 172.967L633.215 171.81L591.385 129.981L590.229 131.138Z"></path>
<path fill="#4C51BF" d="M632.636 129.741C633.088 129.741 633.454 130.108 633.454 130.559L633.454 137.92C633.454 138.372 633.088 138.738 632.636 138.738C632.184 138.738 631.818 138.372 631.818 137.92L631.818 131.377L625.275 131.377C624.824 131.377 624.457 131.011 624.457 130.559C624.457 130.108 624.824 129.741 625.275 129.741L632.636 129.741ZM590.807 173.206C590.355 173.206 589.989 172.84 589.989 172.389L589.989 165.028C589.989 164.576 590.355 164.21 590.807 164.21C591.259 164.21 591.625 164.576 591.625 165.028L591.625 171.571L598.168 171.571C598.619 171.571 598.986 171.937 598.986 172.389C598.986 172.84 598.619 173.206 598.168 173.206L590.807 173.206ZM633.214 131.138L591.385 172.967L590.228 171.81L632.058 129.981L633.214 131.138Z"></path>
<circle fill="#787DE7" r="17.7019" cy="151.699" cx="612.17"></circle>
<path fill="#4C51BF" d="M612.3 121.319C611.981 121 611.463 121 611.144 121.319L605.939 126.524C605.619 126.843 605.619 127.361 605.939 127.681C606.258 128 606.776 128 607.095 127.681L611.722 123.054L616.348 127.681C616.668 128 617.186 128 617.505 127.681C617.825 127.361 617.825 126.843 617.505 126.524L612.3 121.319ZM611.144 181.631C611.463 181.951 611.981 181.951 612.3 181.631L617.505 176.426C617.825 176.107 617.825 175.589 617.505 175.27C617.186 174.95 616.668 174.95 616.348 175.27L611.722 179.896L607.095 175.27C606.776 174.95 606.258 174.95 605.939 175.27C605.619 175.589 605.619 176.107 605.939 176.426L611.144 181.631ZM610.904 121.897V181.053H612.54V121.897H610.904Z"></path>
<path stroke-linejoin="round" stroke-width="1.63408" stroke="#535BCB" fill="#14CCC0" d="M611.609 140.37L601.861 145.998L611.609 151.626L621.357 145.998L616.483 143.184L611.609 140.37Z"></path>
<path stroke-linejoin="round" stroke-width="1.63408" stroke="#535BCB" fill="url(#paint8_linear_7077_8581)" d="M601.861 157.406L611.609 163.034V151.778L601.861 146.15V157.406Z"></path>
<path stroke-linejoin="round" stroke-width="1.63408" stroke="#535BCB" fill="url(#paint9_linear_7077_8581)" d="M621.357 157.406V146.15L611.609 151.778V163.034L621.357 157.406Z"></path>
<path stroke-linecap="round" stroke-width="1.66209" stroke="#4C51BF" d="M487.832 196.508C522.271 196.577 527.268 148.36 567.355 148.36"></path>
<ellipse fill="#4C51BF" transform="matrix(-1 0 0 1 487.181 196.088)" ry="2.54541" rx="2.7332"></ellipse>
<path stroke-linecap="round" stroke-width="1.66209" stroke="#4C51BF" d="M318.709 131.219C287.041 131.284 282.446 86.1943 245.585 86.1943"></path>
<ellipse fill="#4C51BF" ry="2.3803" rx="2.51327" cy="130.825" cx="319.308"></ellipse>
<path stroke-linecap="round" stroke-width="1.66209" stroke="#4C51BF" d="M312.755 347.529C339.583 347.593 343.475 302.65 374.702 302.65"></path>
<circle fill="#4C51BF" transform="matrix(-1 0 0 1 376.221 302.501)" r="2.24074"></circle>
<g clip-path="url(#clip2_7077_8581)">
<path stroke-linejoin="round" stroke-linecap="round" stroke-width="1.63574" stroke="#4C51BF" d="M230.049 87.5371L225.418 82.9062L220.787 87.5371"></path>
<path stroke-linejoin="round" stroke-linecap="round" stroke-width="1.63574" stroke="#4C51BF" d="M225.418 82.9062V93.3257"></path>
<path stroke-linejoin="round" stroke-linecap="round" stroke-width="1.63574" stroke="#4C51BF" d="M235.131 90.3046C236.26 89.6891 237.152 88.715 237.666 87.5361C238.18 86.3573 238.287 85.0408 237.97 83.7944C237.653 82.5481 236.929 81.4429 235.914 80.6533C234.899 79.8636 233.65 79.4345 232.364 79.4337H230.905C230.555 78.0783 229.902 76.82 228.995 75.7533C228.088 74.6866 226.952 73.8394 225.67 73.2753C224.389 72.7113 222.996 72.445 221.597 72.4965C220.198 72.5481 218.829 72.9161 217.593 73.5729C216.357 74.2298 215.285 75.1584 214.459 76.2888C213.634 77.4193 213.075 78.7223 212.825 80.0998C212.575 81.4773 212.641 82.8936 213.018 84.242C213.394 85.5904 214.071 86.836 214.998 87.885"></path>
<path stroke-linejoin="round" stroke-linecap="round" stroke-width="1.63574" stroke="#4C51BF" d="M230.049 87.5371L225.418 82.9062L220.787 87.5371"></path>
</g>
<g clip-path="url(#clip3_7077_8581)">
<path stroke-linejoin="round" stroke-linecap="round" stroke-width="1.63574" stroke="#4C51BF" d="M284.787 333.067C283.188 333.247 281.746 332.097 281.566 330.498C281.385 328.9 282.535 327.458 284.134 327.277C285.733 327.097 287.175 328.247 287.355 329.846C287.535 331.444 286.385 332.887 284.787 333.067Z"></path>
<path stroke-linejoin="round" stroke-linecap="round" stroke-width="1.63574" stroke="#4C51BF" d="M277.647 333.871C277.808 334.147 277.883 334.466 277.861 334.785C277.84 335.105 277.723 335.41 277.526 335.663L277.475 335.727C277.316 335.927 277.197 336.155 277.127 336.401C277.056 336.646 277.034 336.903 277.063 337.156C277.091 337.41 277.17 337.655 277.293 337.879C277.417 338.102 277.583 338.299 277.783 338.458C277.982 338.617 278.211 338.735 278.456 338.806C278.702 338.877 278.958 338.898 279.212 338.87C279.465 338.841 279.711 338.763 279.934 338.639C280.158 338.516 280.354 338.349 280.513 338.15L280.565 338.085C280.767 337.837 281.039 337.656 281.346 337.564C281.652 337.472 281.979 337.473 282.285 337.569C282.584 337.659 282.85 337.835 283.051 338.074C283.252 338.314 283.378 338.607 283.414 338.917L283.433 339.081C283.49 339.593 283.749 340.061 284.152 340.382C284.554 340.703 285.068 340.851 285.58 340.794C286.092 340.736 286.56 340.477 286.881 340.074C287.202 339.672 287.35 339.158 287.292 338.646L287.282 338.559C287.254 338.239 287.322 337.918 287.479 337.637C287.635 337.356 287.873 337.129 288.16 336.985C288.437 336.824 288.755 336.749 289.075 336.77C289.394 336.792 289.7 336.909 289.952 337.105L290.016 337.157C290.216 337.316 290.445 337.434 290.69 337.505C290.935 337.576 291.192 337.597 291.446 337.569C291.699 337.54 291.945 337.462 292.168 337.338C292.391 337.215 292.588 337.049 292.747 336.849C292.906 336.65 293.025 336.421 293.095 336.175C293.166 335.93 293.188 335.673 293.159 335.42C293.131 335.166 293.052 334.921 292.929 334.697C292.805 334.474 292.639 334.277 292.439 334.118L292.375 334.067C292.127 333.865 291.945 333.593 291.853 333.286C291.761 332.979 291.763 332.652 291.858 332.347C291.949 332.048 292.124 331.781 292.364 331.581C292.603 331.38 292.896 331.254 293.207 331.218L293.371 331.199C293.882 331.142 294.35 330.883 294.672 330.48C294.993 330.077 295.141 329.564 295.083 329.052C295.025 328.54 294.767 328.072 294.364 327.751C293.961 327.43 293.447 327.282 292.936 327.34L292.849 327.349C292.529 327.378 292.207 327.31 291.926 327.153C291.646 326.996 291.418 326.759 291.274 326.472C291.113 326.195 291.038 325.877 291.06 325.557C291.081 325.238 291.198 324.932 291.395 324.68L291.446 324.615C291.605 324.416 291.724 324.187 291.794 323.942C291.865 323.697 291.887 323.44 291.858 323.186C291.83 322.933 291.751 322.687 291.628 322.464C291.504 322.24 291.338 322.044 291.138 321.885C290.939 321.725 290.71 321.607 290.465 321.536C290.22 321.466 289.963 321.444 289.709 321.473C289.456 321.501 289.21 321.579 288.987 321.703C288.764 321.827 288.567 321.993 288.408 322.192L288.356 322.257C288.154 322.505 287.882 322.687 287.575 322.779C287.269 322.871 286.942 322.869 286.636 322.773L286.559 322.782C286.26 322.692 285.994 322.516 285.793 322.277C285.592 322.037 285.466 321.744 285.43 321.434L285.411 321.27C285.354 320.758 285.095 320.29 284.692 319.969C284.29 319.648 283.776 319.5 283.264 319.558C282.752 319.615 282.284 319.874 281.963 320.277C281.642 320.679 281.494 321.193 281.552 321.705L281.562 321.792C281.595 322.102 281.538 322.416 281.395 322.694C281.253 322.972 281.033 323.203 280.761 323.357C280.484 323.519 280.166 323.593 279.847 323.572C279.527 323.55 279.222 323.434 278.969 323.237L278.905 323.186C278.705 323.026 278.476 322.908 278.231 322.837C277.986 322.767 277.729 322.745 277.476 322.774C277.222 322.802 276.976 322.88 276.753 323.004C276.53 323.127 276.333 323.294 276.174 323.493C276.015 323.693 275.896 323.922 275.826 324.167C275.755 324.412 275.733 324.669 275.762 324.922C275.791 325.176 275.869 325.422 275.992 325.645C276.116 325.868 276.282 326.065 276.482 326.224L276.546 326.275C276.794 326.478 276.976 326.75 277.068 327.056C277.16 327.363 277.158 327.69 277.063 327.996L277.071 328.073C276.981 328.372 276.806 328.638 276.566 328.839C276.326 329.039 276.034 329.166 275.723 329.202L275.559 329.22C275.047 329.278 274.579 329.537 274.258 329.939C273.937 330.342 273.789 330.856 273.847 331.368C273.905 331.879 274.163 332.347 274.566 332.668C274.969 332.99 275.482 333.138 275.994 333.08L276.081 333.07C276.392 333.036 276.705 333.094 276.984 333.236C277.262 333.379 277.492 333.599 277.647 333.871V333.871Z"></path>
</g>
<g clip-path="url(#clip4_7077_8581)">
<path stroke-linejoin="round" stroke-linecap="round" stroke-width="1.63574" stroke="#4C51BF" d="M298.173 347.793C297.066 347.917 296.068 347.121 295.943 346.015C295.819 344.908 296.615 343.91 297.721 343.785C298.828 343.66 299.826 344.456 299.951 345.563C300.076 346.67 299.28 347.668 298.173 347.793Z"></path>
<path stroke-linejoin="round" stroke-linecap="round" stroke-width="1.63574" stroke="#4C51BF" d="M293.23 348.351C293.342 348.543 293.393 348.763 293.378 348.984C293.364 349.206 293.283 349.417 293.147 349.592L293.111 349.636C293.001 349.775 292.919 349.933 292.87 350.103C292.821 350.273 292.806 350.45 292.826 350.626C292.846 350.801 292.9 350.971 292.985 351.126C293.071 351.281 293.186 351.417 293.324 351.527C293.462 351.637 293.621 351.719 293.79 351.768C293.96 351.817 294.138 351.832 294.313 351.812C294.489 351.792 294.659 351.738 294.814 351.653C294.968 351.567 295.104 351.452 295.215 351.314L295.25 351.269C295.39 351.097 295.578 350.972 295.791 350.908C296.003 350.844 296.229 350.846 296.441 350.912C296.648 350.974 296.832 351.096 296.971 351.262C297.11 351.427 297.198 351.63 297.223 351.845L297.235 351.959C297.275 352.313 297.454 352.637 297.733 352.859C298.012 353.082 298.368 353.184 298.722 353.144C299.076 353.104 299.4 352.925 299.623 352.646C299.845 352.367 299.947 352.012 299.907 351.657L299.901 351.597C299.881 351.376 299.928 351.153 300.037 350.959C300.145 350.764 300.309 350.607 300.508 350.507C300.7 350.396 300.92 350.344 301.141 350.359C301.363 350.374 301.574 350.454 301.749 350.591L301.794 350.626C301.932 350.737 302.09 350.818 302.26 350.867C302.43 350.916 302.607 350.931 302.783 350.912C302.959 350.892 303.128 350.838 303.283 350.752C303.438 350.667 303.574 350.551 303.684 350.413C303.794 350.275 303.876 350.117 303.925 349.947C303.974 349.777 303.989 349.599 303.969 349.424C303.949 349.248 303.895 349.078 303.81 348.924C303.724 348.769 303.609 348.633 303.471 348.523L303.426 348.487C303.255 348.347 303.129 348.159 303.065 347.947C303.001 347.734 303.003 347.508 303.069 347.296C303.131 347.089 303.253 346.905 303.419 346.766C303.585 346.627 303.787 346.54 304.002 346.515L304.116 346.502C304.47 346.462 304.794 346.283 305.016 346.004C305.239 345.725 305.341 345.37 305.301 345.015C305.261 344.661 305.082 344.337 304.803 344.115C304.525 343.892 304.169 343.79 303.815 343.83L303.754 343.837C303.533 343.856 303.31 343.809 303.116 343.701C302.921 343.592 302.764 343.428 302.664 343.229C302.553 343.037 302.501 342.817 302.516 342.596C302.531 342.375 302.612 342.163 302.748 341.988L302.783 341.944C302.894 341.806 302.976 341.647 303.024 341.477C303.073 341.308 303.088 341.13 303.069 340.954C303.049 340.779 302.995 340.609 302.909 340.454C302.824 340.3 302.708 340.163 302.57 340.053C302.432 339.943 302.274 339.861 302.104 339.812C301.934 339.763 301.756 339.748 301.581 339.768C301.405 339.788 301.235 339.842 301.081 339.928C300.926 340.013 300.79 340.128 300.68 340.266L300.644 340.311C300.504 340.483 300.316 340.609 300.104 340.672C299.891 340.736 299.665 340.735 299.453 340.668L299.4 340.675C299.193 340.612 299.009 340.49 298.87 340.325C298.731 340.159 298.643 339.956 298.618 339.741L298.605 339.628C298.566 339.273 298.386 338.949 298.108 338.727C297.829 338.505 297.473 338.402 297.119 338.442C296.765 338.482 296.441 338.661 296.218 338.94C295.996 339.219 295.894 339.574 295.934 339.929L295.94 339.989C295.964 340.204 295.924 340.421 295.825 340.614C295.727 340.806 295.574 340.966 295.386 341.073C295.195 341.185 294.974 341.236 294.753 341.221C294.532 341.206 294.32 341.126 294.145 340.989L294.101 340.954C293.963 340.844 293.804 340.762 293.635 340.713C293.465 340.664 293.287 340.649 293.111 340.669C292.936 340.688 292.766 340.743 292.611 340.828C292.457 340.914 292.32 341.029 292.21 341.167C292.1 341.305 292.018 341.464 291.969 341.633C291.92 341.803 291.905 341.981 291.925 342.156C291.945 342.332 291.999 342.502 292.085 342.657C292.17 342.811 292.285 342.947 292.423 343.057L292.468 343.093C292.64 343.233 292.766 343.421 292.829 343.634C292.893 343.846 292.892 344.072 292.826 344.284L292.832 344.337C292.769 344.544 292.648 344.729 292.482 344.868C292.316 345.007 292.113 345.094 291.898 345.119L291.785 345.132C291.43 345.172 291.106 345.351 290.884 345.63C290.662 345.908 290.559 346.264 290.599 346.618C290.639 346.973 290.818 347.297 291.097 347.519C291.376 347.741 291.732 347.844 292.086 347.804L292.146 347.797C292.361 347.774 292.578 347.814 292.771 347.912C292.963 348.011 293.123 348.163 293.23 348.351V348.351Z"></path>
</g>
<path fill="url(#paint10_linear_7077_8581)" d="M920.72 -21.064L707.625 101.953L920.72 224.969L1133.81 101.953L1027.27 40.4444L920.72 -21.064Z"></path>
<path fill="url(#paint11_linear_7077_8581)" d="M-87.6135 155.058L-384.96 326.699L-87.6135 498.34L209.733 326.699L61.0596 240.879L-87.6135 155.058Z"></path>
<path fill="url(#paint12_linear_7077_8581)" d="M762.972 47.9509L777.526 56.3537V73.1593L762.972 81.562L748.418 73.1593V56.3537L762.972 47.9509Z"></path>
<path fill="url(#paint13_linear_7077_8581)" d="M-43.4709 138.029L56.2728 195.616V310.79L-43.4709 368.377L-143.215 310.79V195.616L-43.4709 138.029Z"></path>
</g>
<defs>
<linearGradient gradientUnits="userSpaceOnUse" y2="475.149" x2="848.411" y1="-3.07226" x1="-4.39581" id="paint0_linear_7077_8581">
<stop stop-color="#71E8DF"></stop>
<stop stop-color="#04C8BB" offset="0.455336"></stop>
<stop stop-color="#109D93" offset="1"></stop>
</linearGradient>
<linearGradient gradientUnits="userSpaceOnUse" y2="8.16868" x2="627.352" y1="687.025" x1="1812.39" id="paint1_linear_7077_8581">
<stop stop-opacity="0.1" stop-color="white"></stop>
<stop stop-opacity="0" stop-color="white" offset="0.972576"></stop>
</linearGradient>
<linearGradient gradientUnits="userSpaceOnUse" y2="258.581" x2="282.557" y1="130.411" x1="282.557" id="paint2_linear_7077_8581">
<stop stop-color="#92EFE6"></stop>
<stop stop-opacity="0" stop-color="#B7F4EE" offset="1"></stop>
</linearGradient>
<linearGradient gradientUnits="userSpaceOnUse" y2="356.272" x2="440.373" y1="195.361" x1="440.373" id="paint3_linear_7077_8581">
<stop stop-color="#92EFE6"></stop>
<stop stop-opacity="0" stop-color="#B7F4EE" offset="1"></stop>
</linearGradient>
<linearGradient gradientUnits="userSpaceOnUse" y2="258.581" x2="356.726" y1="130.411" x1="356.726" id="paint4_linear_7077_8581">
<stop stop-color="#92EFE6"></stop>
<stop stop-opacity="0" stop-color="#B7F4EE" offset="1"></stop>
</linearGradient>
<linearGradient gradientUnits="userSpaceOnUse" y2="356.282" x2="533.275" y1="195.371" x1="533.275" id="paint5_linear_7077_8581">
<stop stop-color="#92EFE6"></stop>
<stop stop-opacity="0" stop-color="#B7F4EE" offset="1"></stop>
</linearGradient>
<linearGradient gradientUnits="userSpaceOnUse" y2="356.279" x2="363.28" y1="302.527" x1="363.28" id="paint6_linear_7077_8581">
<stop stop-color="#92EFE6"></stop>
<stop stop-opacity="0" stop-color="#B7F4EE" offset="1"></stop>
</linearGradient>
<linearGradient gradientUnits="userSpaceOnUse" y2="356.282" x2="394.313" y1="302.531" x1="394.313" id="paint7_linear_7077_8581">
<stop stop-color="#92EFE6"></stop>
<stop stop-opacity="0" stop-color="#B7F4EE" offset="1"></stop>
</linearGradient>
<linearGradient gradientUnits="userSpaceOnUse" y2="163.034" x2="606.735" y1="146.15" x1="606.735" id="paint8_linear_7077_8581">
<stop stop-color="#92EFE6"></stop>
<stop stop-opacity="0" stop-color="#B7F4EE" offset="1"></stop>
</linearGradient>
<linearGradient gradientUnits="userSpaceOnUse" y2="163.034" x2="616.483" y1="146.15" x1="616.483" id="paint9_linear_7077_8581">
<stop stop-color="#92EFE6"></stop>
<stop stop-opacity="0" stop-color="#B7F4EE" offset="1"></stop>
</linearGradient>
<linearGradient gradientUnits="userSpaceOnUse" y2="224.969" x2="920.72" y1="-21.064" x1="920.72" id="paint10_linear_7077_8581">
<stop stop-color="#4247B8" offset="0.0648065"></stop>
<stop stop-color="#4C51BF" offset="0.637734"></stop>
<stop stop-color="#232662" offset="1"></stop>
</linearGradient>
<linearGradient gradientUnits="userSpaceOnUse" y2="498.34" x2="-87.6135" y1="155.058" x1="-87.6135" id="paint11_linear_7077_8581">
<stop stop-color="#4C51BF"></stop>
<stop stop-color="#4C51BF" offset="0.628651"></stop>
<stop stop-color="#232662" offset="1"></stop>
</linearGradient>
<linearGradient gradientUnits="userSpaceOnUse" y2="81.562" x2="762.972" y1="47.9509" x1="762.972" id="paint12_linear_7077_8581">
<stop stop-color="#787DE7"></stop>
<stop stop-opacity="0.99" stop-color="#5258E0" offset="1"></stop>
</linearGradient>
<linearGradient gradientUnits="userSpaceOnUse" y2="368.377" x2="-43.4709" y1="138.029" x1="-43.4709" id="paint13_linear_7077_8581">
<stop stop-color="#787DE7"></stop>
<stop stop-opacity="0.99" stop-color="#5258E0" offset="1"></stop>
</linearGradient>
<clipPath id="clip0_7077_8581">
<rect fill="white" height="474" width="844"></rect>
</clipPath>
<clipPath id="clip1_7077_8581">
<rect transform="translate(505.062 410.057)" fill="white" height="39.8852" width="39.8852"></rect>
</clipPath>
<clipPath id="clip2_7077_8581">
<rect transform="translate(211.526 69.0144)" fill="white" height="27.7852" width="27.7852"></rect>
</clipPath>
<clipPath id="clip3_7077_8581">
<rect transform="matrix(-0.993706 0.112018 0.112018 0.993706 294.734 317.288)" fill="white" height="23.3037" width="23.3037"></rect>
</clipPath>
<clipPath id="clip4_7077_8581">
<rect transform="matrix(-0.993706 0.112018 0.112018 0.993706 305.059 336.87)" fill="white" height="16.1333" width="16.1333"></rect>
</clipPath>
</defs>
</svg>
