<svg viewBox="0 0 24 24" xmlns="http://www.w3.org/2000/svg">
  <path fill-rule="evenodd" clip-rule="evenodd" fill="currentColor"
    d="M6.07487 4.69565C6.08912 4.71013 6.10534 4.7259 6.12379 4.74297C6.34243 4.94524 6.74438 5.1989 7.36983 5.44364C8.60966 5.9288 10.4231 6.26087 12.5 6.26087C14.5769 6.26087 16.3903 5.9288 17.6302 5.44364C18.2556 5.1989 18.6576 4.94524 18.8762 4.74297C18.8947 4.7259 18.9109 4.71013 18.9251 4.69565C18.9109 4.68117 18.8947 4.6654 18.8762 4.64833C18.6576 4.44606 18.2556 4.1924 17.6302 3.94766C16.3903 3.46251 14.5769 3.13043 12.5 3.13043C10.4231 3.13043 8.60966 3.46251 7.36983 3.94766C6.74438 4.1924 6.34243 4.44606 6.12379 4.64833C6.10534 4.6654 6.08912 4.68118 6.07487 4.69565ZM19 8.24474C18.8956 8.28978 18.79 8.3331 18.6835 8.37476C17.0279 9.02261 14.8414 9.3913 12.5 9.3913C10.1586 9.3913 7.97206 9.02261 6.31646 8.37476C6.21 8.3331 6.10442 8.28978 6 8.24474V11.9179C6.0198 11.9454 6.05703 11.99 6.12316 12.0515C6.3392 12.2525 6.73772 12.5053 7.36073 12.7495C8.59592 13.2336 10.4087 13.5652 12.5 13.5652C14.5913 13.5652 16.4041 13.2336 17.6393 12.7495C18.2623 12.5053 18.6608 12.2525 18.8768 12.0515C18.943 11.99 18.9802 11.9454 19 11.9179V8.24474ZM19 15.5543C18.899 15.5978 18.797 15.6397 18.6941 15.6801C17.0404 16.3282 14.8531 16.6957 12.5 16.6957C10.1469 16.6957 7.95964 16.3282 6.30594 15.6801C6.20304 15.6397 6.10098 15.5978 6 15.5543V19.2222C6.0198 19.2497 6.05703 19.2944 6.12316 19.3559C6.3392 19.5568 6.73772 19.8097 7.36073 20.0539C8.59592 20.5379 10.4087 20.8696 12.5 20.8696C14.5913 20.8696 16.4041 20.5379 17.6393 20.0539C18.2623 19.8097 18.6608 19.5568 18.8768 19.3559C18.943 19.2944 18.9802 19.2497 19 19.2222V15.5543ZM19.02 19.1894C19.0202 19.1894 19.0191 19.1922 19.0159 19.1979C19.0181 19.1922 19.0197 19.1894 19.02 19.1894ZM5.98002 19.1894C5.98028 19.1894 5.98189 19.1922 5.9841 19.1979C5.98087 19.1922 5.97977 19.1894 5.98002 19.1894ZM22 19.3043C22 20.3409 21.4622 21.1447 20.8732 21.6926C20.2836 22.241 19.5155 22.6625 18.6941 22.9844C17.0404 23.6325 14.8531 24 12.5 24C10.1469 24 7.95964 23.6325 6.30594 22.9844C5.4845 22.6625 4.71636 22.241 4.12684 21.6926C3.53779 21.1447 3 20.3409 3 19.3043V4.69565C3 3.65506 3.54431 2.85111 4.13357 2.30596C4.72458 1.75919 5.4942 1.3383 6.31646 1.01654C7.97206 0.368699 10.1586 0 12.5 0C14.8414 0 17.0279 0.368699 18.6835 1.01654C19.5058 1.3383 20.2754 1.75919 20.8664 2.30596C21.4557 2.85111 22 3.65506 22 4.69565V19.3043ZM19.0169 4.58424C19.0192 4.57853 19.0208 4.57569 19.021 4.5757C19.0213 4.5757 19.0202 4.57856 19.0169 4.58424ZM5.98309 4.58424C5.97983 4.57856 5.9787 4.5757 5.97896 4.5757C5.97921 4.57569 5.98084 4.57853 5.98309 4.58424Z" />
</svg>