<svg width="120" height="32" viewBox="0 0 120 32" fill="none" xmlns="http://www.w3.org/2000/svg">
<g clip-path="url(#clip0_3098_947)">
<g clip-path="url(#clip1_3098_947)">
<path fill-rule="evenodd" clip-rule="evenodd" d="M0.234958 20.2786C-0.0828314 20.797 -0.0779131 21.4511 0.247636 21.9646L6.13998 31.2596C6.5224 31.8628 7.25954 32.1379 7.94368 31.9327L24.9476 26.8315C25.8755 26.5531 26.3424 25.518 25.9368 24.6381L15.0059 0.92642C14.4728 -0.229944 12.8658 -0.324863 12.2003 0.760704L0.234958 20.2786ZM14.7155 6.34716C14.4831 5.80958 13.6964 5.89238 13.5811 6.46655L9.37273 27.4207C9.28399 27.8625 9.69767 28.2398 10.1295 28.1109L21.8778 24.6039C22.2207 24.5016 22.3974 24.1228 22.2554 23.7943L14.7155 6.34716Z" fill="#1A202C"/>
<path fill-rule="evenodd" clip-rule="evenodd" d="M44.5355 13.5373C44.5355 15.1655 44.0269 16.4104 43.0089 17.2728C41.9916 18.1355 40.5446 18.5663 38.6683 18.5663H37.2918V23.9475H34.084V8.81851H38.9164C40.7518 8.81851 42.1469 9.2135 43.1024 10.0031C44.0579 10.7931 44.5355 11.9712 44.5355 13.5373ZM37.2923 15.9383H38.3479C39.3345 15.9383 40.0723 15.7435 40.5623 15.3536C41.0523 14.9638 41.2971 14.3963 41.2971 13.6512C41.2971 12.8996 41.0917 12.3442 40.6814 11.9854C40.2707 11.6266 39.6276 11.4471 38.7513 11.4471H37.2923V15.9383Z" fill="#1A202C"/>
<path d="M54.1045 12.2538C53.8216 12.1917 53.4665 12.1606 53.0386 12.1606C52.3209 12.1606 51.657 12.359 51.0468 12.7555C50.4358 13.1523 49.9513 13.6752 49.5925 14.3234H49.4376L48.9717 12.378H46.5812V23.9473H49.7376V18.0593C49.7376 17.1279 50.0186 16.4033 50.5805 15.8859C51.1433 15.3685 51.9278 15.1098 52.9352 15.1098C53.3009 15.1098 53.6112 15.1445 53.8666 15.2132L54.1045 12.2538Z" fill="#1A202C"/>
<path d="M55.7807 23.9475H58.937V12.3782H55.7807V23.9475Z" fill="#1A202C"/>
<path d="M55.6459 9.38733C55.6459 8.35946 56.2185 7.8457 57.3636 7.8457C58.5084 7.8457 59.0814 8.35946 59.0814 9.38733C59.0814 9.87733 58.9382 10.2584 58.652 10.531C58.3656 10.8036 57.9362 10.9395 57.3636 10.9395C56.2185 10.9395 55.6459 10.4221 55.6459 9.38733Z" fill="#1A202C"/>
<path d="M68.8115 23.2227C69.6362 22.6019 70.0483 21.6983 70.0483 20.5115C70.0483 19.9389 69.9486 19.4456 69.7483 19.0316C69.5481 18.6176 69.2375 18.2522 68.8169 17.9347C68.3964 17.6175 67.7339 17.2762 66.8299 16.9105C65.8159 16.5034 65.1589 16.1961 64.8586 15.9893C64.5589 15.7825 64.4084 15.5376 64.4084 15.2545C64.4084 14.7509 64.8743 14.4992 65.8057 14.4992C66.3297 14.4992 66.8438 14.5785 67.3473 14.7371C67.8508 14.896 68.3927 15.0992 68.9722 15.3476L69.9241 13.0712C68.6065 12.4643 67.2508 12.1606 65.8572 12.1606C64.3945 12.1606 63.265 12.4416 62.4685 13.004C61.6712 13.5663 61.2729 14.3611 61.2729 15.3889C61.2729 15.9893 61.3679 16.4946 61.5579 16.905C61.7472 17.3157 62.0508 17.6796 62.4685 17.9968C62.8854 18.3143 63.5395 18.6593 64.4292 19.0316C65.05 19.294 65.547 19.5231 65.9193 19.7197C66.292 19.9166 66.554 20.0924 66.706 20.2477C66.8577 20.4029 66.9337 20.6046 66.9337 20.8531C66.9337 21.5152 66.3607 21.8463 65.2156 21.8463C64.6569 21.8463 64.0101 21.7531 63.2756 21.5671C62.5405 21.3808 61.8802 21.1498 61.2937 20.8736V23.4814C61.8111 23.7021 62.3665 23.8695 62.9599 23.9831C63.5533 24.0971 64.2703 24.1541 65.1121 24.1541C66.7539 24.1541 67.9871 23.8436 68.8115 23.2227Z" fill="#1A202C"/>
<path d="M82.551 23.9473H79.3947V17.19C79.3947 16.3554 79.2547 15.7291 78.9759 15.3118C78.696 14.8945 78.2564 14.6855 77.6561 14.6855C76.8493 14.6855 76.2628 14.9822 75.897 15.5757C75.5313 16.1691 75.3486 17.145 75.3486 18.5043V23.9473H72.1923V12.378H74.6035L75.0278 13.8579H75.2039C75.5141 13.3266 75.9628 12.9108 76.5489 12.6108C77.1354 12.3108 77.8081 12.1606 78.567 12.1606C80.2987 12.1606 81.4712 12.7266 82.0855 13.8579H82.3646C82.6752 13.3197 83.1323 12.9024 83.736 12.6057C84.3396 12.309 85.0207 12.1606 85.7797 12.1606C87.0903 12.1606 88.0824 12.4972 88.7547 13.1695C89.4274 13.8422 89.7636 14.9201 89.7636 16.4033V23.9473H86.5971V17.19C86.5971 16.3554 86.4571 15.7291 86.1783 15.3118C85.8984 14.8945 85.4588 14.6855 84.8585 14.6855C84.086 14.6855 83.5083 14.9618 83.125 15.5135C82.7424 16.0657 82.551 16.9415 82.551 18.1419V23.9473Z" fill="#1A202C"/>
<path fill-rule="evenodd" clip-rule="evenodd" d="M99.2683 22.3745L99.8788 23.9475H102.083V16.2379C102.083 14.8582 101.669 13.8303 100.841 13.1543C100.013 12.4783 98.8232 12.14 97.271 12.14C95.6501 12.14 94.1735 12.4886 92.842 13.1854L93.887 15.3171C95.1356 14.7581 96.2223 14.4789 97.1468 14.4789C98.3471 14.4789 98.9474 15.0654 98.9474 16.2379V16.7451L96.9399 16.8072C95.2083 16.8693 93.9133 17.192 93.0539 17.7748C92.1952 18.358 91.7659 19.2634 91.7659 20.4912C91.7659 21.6641 92.0849 22.5678 92.7229 23.2025C93.3612 23.8372 94.2352 24.1543 95.3464 24.1543C96.2501 24.1543 96.983 24.025 97.545 23.7663C98.1074 23.5076 98.654 23.0439 99.1853 22.3745H99.2683ZM97.7264 18.6286L98.9476 18.5873V19.5392C98.9476 20.2364 98.7283 20.7951 98.2902 21.2156C97.8525 21.6366 97.2675 21.8471 96.5363 21.8471C95.5154 21.8471 95.0049 21.402 95.0049 20.5122C95.0049 19.8911 95.2289 19.4292 95.6776 19.1256C96.126 18.8219 96.8089 18.6564 97.7264 18.6286Z" fill="#1A202C"/>
</g>
</g>
<defs>
<clipPath id="clip0_3098_947">
<rect width="120" height="32" fill="white"/>
</clipPath>
<clipPath id="clip1_3098_947">
<rect width="120" height="32" fill="white"/>
</clipPath>
</defs>
</svg>
