<svg xmlns="http://www.w3.org/2000/svg" fill="none" viewBox="0 0 844 474" height="474" width="844">
<rect fill="url(#paint0_linear_9739_151996)" height="474" width="844"></rect>
<path fill="#71E8DF" d="M59.1543 99.98C60.0343 99.98 60.8076 100.16 61.4743 100.52C62.141 100.88 62.6543 101.393 63.0143 102.06C63.3876 102.713 63.5743 103.467 63.5743 104.32C63.5743 105.16 63.381 105.9 62.9943 106.54C62.621 107.18 62.0876 107.68 61.3943 108.04C60.7143 108.387 59.9276 108.56 59.0343 108.56H56.1943C56.1276 108.56 56.0943 108.593 56.0943 108.66V113.76C56.0943 113.827 56.0676 113.887 56.0143 113.94C55.9743 113.98 55.921 114 55.8543 114H53.5143C53.4476 114 53.3876 113.98 53.3343 113.94C53.2943 113.887 53.2743 113.827 53.2743 113.76V100.22C53.2743 100.153 53.2943 100.1 53.3343 100.06C53.3876 100.007 53.4476 99.98 53.5143 99.98H59.1543ZM58.7343 106.3C59.3476 106.3 59.841 106.127 60.2143 105.78C60.5876 105.42 60.7743 104.953 60.7743 104.38C60.7743 103.793 60.5876 103.32 60.2143 102.96C59.841 102.6 59.3476 102.42 58.7343 102.42H56.1943C56.1276 102.42 56.0943 102.453 56.0943 102.52V106.2C56.0943 106.267 56.1276 106.3 56.1943 106.3H58.7343ZM74.9879 114C74.8546 114 74.7612 113.94 74.7079 113.82L72.2079 108.28C72.1812 108.227 72.1412 108.2 72.0879 108.2H70.2279C70.1612 108.2 70.1279 108.233 70.1279 108.3V113.76C70.1279 113.827 70.1012 113.887 70.0479 113.94C70.0079 113.98 69.9546 114 69.8879 114H67.5479C67.4812 114 67.4212 113.98 67.3679 113.94C67.3279 113.887 67.3079 113.827 67.3079 113.76V100.24C67.3079 100.173 67.3279 100.12 67.3679 100.08C67.4212 100.027 67.4812 100 67.5479 100H73.2679C74.1212 100 74.8679 100.173 75.5079 100.52C76.1612 100.867 76.6612 101.36 77.0079 102C77.3679 102.64 77.5479 103.38 77.5479 104.22C77.5479 105.127 77.3212 105.907 76.8679 106.56C76.4146 107.2 75.7812 107.653 74.9679 107.92C74.9012 107.947 74.8812 107.993 74.9079 108.06L77.6279 113.72C77.6546 113.773 77.6679 113.813 77.6679 113.84C77.6679 113.947 77.5946 114 77.4479 114H74.9879ZM70.2279 102.42C70.1612 102.42 70.1279 102.453 70.1279 102.52V105.94C70.1279 106.007 70.1612 106.04 70.2279 106.04H72.8479C73.4079 106.04 73.8612 105.873 74.2079 105.54C74.5679 105.207 74.7479 104.773 74.7479 104.24C74.7479 103.707 74.5679 103.273 74.2079 102.94C73.8612 102.593 73.4079 102.42 72.8479 102.42H70.2279ZM81.833 114C81.7664 114 81.7064 113.98 81.653 113.94C81.613 113.887 81.593 113.827 81.593 113.76V100.24C81.593 100.173 81.613 100.12 81.653 100.08C81.7064 100.027 81.7664 100 81.833 100H84.173C84.2397 100 84.293 100.027 84.333 100.08C84.3864 100.12 84.413 100.173 84.413 100.24V113.76C84.413 113.827 84.3864 113.887 84.333 113.94C84.293 113.98 84.2397 114 84.173 114H81.833ZM93.647 114.16C92.5803 114.16 91.647 113.993 90.847 113.66C90.047 113.313 89.427 112.827 88.987 112.2C88.5603 111.56 88.347 110.82 88.347 109.98V109.54C88.347 109.473 88.367 109.42 88.407 109.38C88.4603 109.327 88.5203 109.3 88.587 109.3H90.867C90.9336 109.3 90.987 109.327 91.027 109.38C91.0803 109.42 91.107 109.473 91.107 109.54V109.84C91.107 110.373 91.3536 110.827 91.847 111.2C92.3403 111.56 93.007 111.74 93.847 111.74C94.5536 111.74 95.0803 111.593 95.427 111.3C95.7736 110.993 95.947 110.62 95.947 110.18C95.947 109.86 95.8403 109.593 95.627 109.38C95.4136 109.153 95.1203 108.96 94.747 108.8C94.387 108.627 93.807 108.393 93.007 108.1C92.1136 107.793 91.3536 107.48 90.727 107.16C90.1136 106.84 89.5936 106.407 89.167 105.86C88.7536 105.3 88.547 104.613 88.547 103.8C88.547 103 88.7536 102.3 89.167 101.7C89.5803 101.1 90.1536 100.64 90.887 100.32C91.6203 100 92.467 99.84 93.427 99.84C94.4403 99.84 95.3403 100.02 96.127 100.38C96.927 100.74 97.547 101.247 97.987 101.9C98.4403 102.54 98.667 103.287 98.667 104.14V104.44C98.667 104.507 98.6403 104.567 98.587 104.62C98.547 104.66 98.4936 104.68 98.427 104.68H96.127C96.0603 104.68 96.0003 104.66 95.947 104.62C95.907 104.567 95.887 104.507 95.887 104.44V104.28C95.887 103.72 95.6536 103.247 95.187 102.86C94.7336 102.46 94.107 102.26 93.307 102.26C92.6803 102.26 92.187 102.393 91.827 102.66C91.4803 102.927 91.307 103.293 91.307 103.76C91.307 104.093 91.407 104.373 91.607 104.6C91.8203 104.827 92.127 105.033 92.527 105.22C92.9403 105.393 93.5736 105.633 94.427 105.94C95.3736 106.287 96.1136 106.593 96.647 106.86C97.1936 107.127 97.6803 107.527 98.107 108.06C98.547 108.58 98.767 109.26 98.767 110.1C98.767 111.353 98.307 112.347 97.387 113.08C96.467 113.8 95.2203 114.16 93.647 114.16ZM111.741 100.16C111.808 100.053 111.901 100 112.021 100H114.361C114.428 100 114.481 100.027 114.521 100.08C114.575 100.12 114.601 100.173 114.601 100.24V113.76C114.601 113.827 114.575 113.887 114.521 113.94C114.481 113.98 114.428 114 114.361 114H112.021C111.955 114 111.895 113.98 111.841 113.94C111.801 113.887 111.781 113.827 111.781 113.76V104.94C111.781 104.887 111.768 104.86 111.741 104.86C111.715 104.86 111.688 104.88 111.661 104.92L109.541 108.24C109.475 108.347 109.381 108.4 109.261 108.4H108.081C107.961 108.4 107.868 108.347 107.801 108.24L105.681 104.92C105.655 104.88 105.628 104.867 105.601 104.88C105.575 104.88 105.561 104.907 105.561 104.96V113.76C105.561 113.827 105.535 113.887 105.481 113.94C105.441 113.98 105.388 114 105.321 114H102.981C102.915 114 102.855 113.98 102.801 113.94C102.761 113.887 102.741 113.827 102.741 113.76V100.24C102.741 100.173 102.761 100.12 102.801 100.08C102.855 100.027 102.915 100 102.981 100H105.321C105.441 100 105.535 100.053 105.601 100.16L108.601 104.82C108.641 104.9 108.681 104.9 108.721 104.82L111.741 100.16ZM127.938 114C127.805 114 127.718 113.933 127.678 113.8L127.078 111.84C127.052 111.787 127.018 111.76 126.978 111.76H122.058C122.018 111.76 121.985 111.787 121.958 111.84L121.378 113.8C121.338 113.933 121.252 114 121.118 114H118.578C118.498 114 118.438 113.98 118.398 113.94C118.358 113.887 118.352 113.813 118.378 113.72L122.698 100.2C122.738 100.067 122.825 100 122.958 100H126.098C126.232 100 126.318 100.067 126.358 100.2L130.678 113.72C130.692 113.747 130.698 113.78 130.698 113.82C130.698 113.94 130.625 114 130.478 114H127.938ZM122.678 109.46C122.665 109.54 122.692 109.58 122.758 109.58H126.278C126.358 109.58 126.385 109.54 126.358 109.46L124.558 103.52C124.545 103.467 124.525 103.447 124.498 103.46C124.472 103.46 124.452 103.48 124.438 103.52L122.678 109.46ZM146.24 99.98C147.12 99.98 147.894 100.16 148.56 100.52C149.227 100.88 149.74 101.393 150.1 102.06C150.474 102.713 150.66 103.467 150.66 104.32C150.66 105.16 150.467 105.9 150.08 106.54C149.707 107.18 149.174 107.68 148.48 108.04C147.8 108.387 147.014 108.56 146.12 108.56H143.28C143.214 108.56 143.18 108.593 143.18 108.66V113.76C143.18 113.827 143.154 113.887 143.1 113.94C143.06 113.98 143.007 114 142.94 114H140.6C140.534 114 140.474 113.98 140.42 113.94C140.38 113.887 140.36 113.827 140.36 113.76V100.22C140.36 100.153 140.38 100.1 140.42 100.06C140.474 100.007 140.534 99.98 140.6 99.98H146.24ZM145.82 106.3C146.434 106.3 146.927 106.127 147.3 105.78C147.674 105.42 147.86 104.953 147.86 104.38C147.86 103.793 147.674 103.32 147.3 102.96C146.927 102.6 146.434 102.42 145.82 102.42H143.28C143.214 102.42 143.18 102.453 143.18 102.52V106.2C143.18 106.267 143.214 106.3 143.28 106.3H145.82ZM159.474 114.16C158.447 114.16 157.54 113.96 156.754 113.56C155.98 113.16 155.374 112.6 154.934 111.88C154.507 111.147 154.294 110.307 154.294 109.36V100.24C154.294 100.173 154.314 100.12 154.354 100.08C154.407 100.027 154.467 100 154.534 100H156.874C156.94 100 156.994 100.027 157.034 100.08C157.087 100.12 157.114 100.173 157.114 100.24V109.38C157.114 110.087 157.327 110.66 157.754 111.1C158.194 111.527 158.767 111.74 159.474 111.74C160.18 111.74 160.747 111.527 161.174 111.1C161.614 110.66 161.834 110.087 161.834 109.38V100.24C161.834 100.173 161.854 100.12 161.894 100.08C161.947 100.027 162.007 100 162.074 100H164.414C164.48 100 164.534 100.027 164.574 100.08C164.627 100.12 164.654 100.173 164.654 100.24V109.36C164.654 110.307 164.434 111.147 163.994 111.88C163.567 112.6 162.96 113.16 162.174 113.56C161.4 113.96 160.5 114.16 159.474 114.16ZM169.212 114C169.145 114 169.085 113.98 169.032 113.94C168.992 113.887 168.972 113.827 168.972 113.76V100.24C168.972 100.173 168.992 100.12 169.032 100.08C169.085 100.027 169.145 100 169.212 100H171.552C171.619 100 171.672 100.027 171.712 100.08C171.765 100.12 171.792 100.173 171.792 100.24V111.48C171.792 111.547 171.825 111.58 171.892 111.58H178.432C178.499 111.58 178.552 111.607 178.592 111.66C178.645 111.7 178.672 111.753 178.672 111.82V113.76C178.672 113.827 178.645 113.887 178.592 113.94C178.552 113.98 178.499 114 178.432 114H169.212ZM187.217 114.16C186.151 114.16 185.217 113.993 184.417 113.66C183.617 113.313 182.997 112.827 182.557 112.2C182.131 111.56 181.917 110.82 181.917 109.98V109.54C181.917 109.473 181.937 109.42 181.977 109.38C182.031 109.327 182.091 109.3 182.157 109.3H184.437C184.504 109.3 184.557 109.327 184.597 109.38C184.651 109.42 184.677 109.473 184.677 109.54V109.84C184.677 110.373 184.924 110.827 185.417 111.2C185.911 111.56 186.577 111.74 187.417 111.74C188.124 111.74 188.651 111.593 188.997 111.3C189.344 110.993 189.517 110.62 189.517 110.18C189.517 109.86 189.411 109.593 189.197 109.38C188.984 109.153 188.691 108.96 188.317 108.8C187.957 108.627 187.377 108.393 186.577 108.1C185.684 107.793 184.924 107.48 184.297 107.16C183.684 106.84 183.164 106.407 182.737 105.86C182.324 105.3 182.117 104.613 182.117 103.8C182.117 103 182.324 102.3 182.737 101.7C183.151 101.1 183.724 100.64 184.457 100.32C185.191 100 186.037 99.84 186.997 99.84C188.011 99.84 188.911 100.02 189.697 100.38C190.497 100.74 191.117 101.247 191.557 101.9C192.011 102.54 192.237 103.287 192.237 104.14V104.44C192.237 104.507 192.211 104.567 192.157 104.62C192.117 104.66 192.064 104.68 191.997 104.68H189.697C189.631 104.68 189.571 104.66 189.517 104.62C189.477 104.567 189.457 104.507 189.457 104.44V104.28C189.457 103.72 189.224 103.247 188.757 102.86C188.304 102.46 187.677 102.26 186.877 102.26C186.251 102.26 185.757 102.393 185.397 102.66C185.051 102.927 184.877 103.293 184.877 103.76C184.877 104.093 184.977 104.373 185.177 104.6C185.391 104.827 185.697 105.033 186.097 105.22C186.511 105.393 187.144 105.633 187.997 105.94C188.944 106.287 189.684 106.593 190.217 106.86C190.764 107.127 191.251 107.527 191.677 108.06C192.117 108.58 192.337 109.26 192.337 110.1C192.337 111.353 191.877 112.347 190.957 113.08C190.037 113.8 188.791 114.16 187.217 114.16ZM206.032 102.18C206.032 102.247 206.005 102.307 205.952 102.36C205.912 102.4 205.858 102.42 205.792 102.42H199.232C199.165 102.42 199.132 102.453 199.132 102.52V105.62C199.132 105.687 199.165 105.72 199.232 105.72H203.532C203.598 105.72 203.652 105.747 203.692 105.8C203.745 105.84 203.772 105.893 203.772 105.96V107.9C203.772 107.967 203.745 108.027 203.692 108.08C203.652 108.12 203.598 108.14 203.532 108.14H199.232C199.165 108.14 199.132 108.173 199.132 108.24V111.48C199.132 111.547 199.165 111.58 199.232 111.58H205.792C205.858 111.58 205.912 111.607 205.952 111.66C206.005 111.7 206.032 111.753 206.032 111.82V113.76C206.032 113.827 206.005 113.887 205.952 113.94C205.912 113.98 205.858 114 205.792 114H196.552C196.485 114 196.425 113.98 196.372 113.94C196.332 113.887 196.312 113.827 196.312 113.76V100.24C196.312 100.173 196.332 100.12 196.372 100.08C196.425 100.027 196.485 100 196.552 100H205.792C205.858 100 205.912 100.027 205.952 100.08C206.005 100.12 206.032 100.173 206.032 100.24V102.18ZM224.895 114C224.762 114 224.675 113.933 224.635 113.8L224.035 111.84C224.009 111.787 223.975 111.76 223.935 111.76H219.015C218.975 111.76 218.942 111.787 218.915 111.84L218.335 113.8C218.295 113.933 218.209 114 218.075 114H215.535C215.455 114 215.395 113.98 215.355 113.94C215.315 113.887 215.309 113.813 215.335 113.72L219.655 100.2C219.695 100.067 219.782 100 219.915 100H223.055C223.189 100 223.275 100.067 223.315 100.2L227.635 113.72C227.649 113.747 227.655 113.78 227.655 113.82C227.655 113.94 227.582 114 227.435 114H224.895ZM219.635 109.46C219.622 109.54 219.649 109.58 219.715 109.58H223.235C223.315 109.58 223.342 109.54 223.315 109.46L221.515 103.52C221.502 103.467 221.482 103.447 221.455 103.46C221.429 103.46 221.409 103.48 221.395 103.52L219.635 109.46ZM239.453 100.24C239.453 100.173 239.473 100.12 239.513 100.08C239.567 100.027 239.627 100 239.693 100H242.033C242.1 100 242.153 100.027 242.193 100.08C242.247 100.12 242.273 100.173 242.273 100.24V113.76C242.273 113.827 242.247 113.887 242.193 113.94C242.153 113.98 242.1 114 242.033 114H239.773C239.64 114 239.547 113.947 239.493 113.84L234.313 105.28C234.287 105.24 234.26 105.227 234.233 105.24C234.207 105.24 234.193 105.267 234.193 105.32L234.233 113.76C234.233 113.827 234.207 113.887 234.153 113.94C234.113 113.98 234.06 114 233.993 114H231.653C231.587 114 231.527 113.98 231.473 113.94C231.433 113.887 231.413 113.827 231.413 113.76V100.24C231.413 100.173 231.433 100.12 231.473 100.08C231.527 100.027 231.587 100 231.653 100H233.913C234.047 100 234.14 100.053 234.193 100.16L239.353 108.68C239.38 108.72 239.407 108.74 239.433 108.74C239.46 108.727 239.473 108.693 239.473 108.64L239.453 100.24ZM246.837 114C246.77 114 246.71 113.98 246.657 113.94C246.617 113.887 246.597 113.827 246.597 113.76V100.24C246.597 100.173 246.617 100.12 246.657 100.08C246.71 100.027 246.77 100 246.837 100H251.837C252.837 100 253.71 100.18 254.457 100.54C255.217 100.887 255.804 101.38 256.217 102.02C256.63 102.66 256.837 103.4 256.837 104.24V109.76C256.837 110.6 256.63 111.34 256.217 111.98C255.804 112.62 255.217 113.12 254.457 113.48C253.71 113.827 252.837 114 251.837 114H246.837ZM249.417 111.48C249.417 111.547 249.45 111.58 249.517 111.58H251.937C252.55 111.58 253.044 111.373 253.417 110.96C253.804 110.547 254.004 109.993 254.017 109.3V104.7C254.017 104.007 253.824 103.453 253.437 103.04C253.064 102.627 252.557 102.42 251.917 102.42H249.517C249.45 102.42 249.417 102.453 249.417 102.52V111.48ZM267.204 114C267.137 114 267.077 113.98 267.024 113.94C266.984 113.887 266.964 113.827 266.964 113.76V100.24C266.964 100.173 266.984 100.12 267.024 100.08C267.077 100.027 267.137 100 267.204 100H269.544C269.611 100 269.664 100.027 269.704 100.08C269.757 100.12 269.784 100.173 269.784 100.24V113.76C269.784 113.827 269.757 113.887 269.704 113.94C269.664 113.98 269.611 114 269.544 114H267.204ZM282.258 100.24C282.258 100.173 282.278 100.12 282.318 100.08C282.371 100.027 282.431 100 282.498 100H284.838C284.905 100 284.958 100.027 284.998 100.08C285.051 100.12 285.078 100.173 285.078 100.24V113.76C285.078 113.827 285.051 113.887 284.998 113.94C284.958 113.98 284.905 114 284.838 114H282.578C282.445 114 282.351 113.947 282.298 113.84L277.118 105.28C277.091 105.24 277.065 105.227 277.038 105.24C277.011 105.24 276.998 105.267 276.998 105.32L277.038 113.76C277.038 113.827 277.011 113.887 276.958 113.94C276.918 113.98 276.865 114 276.798 114H274.458C274.391 114 274.331 113.98 274.278 113.94C274.238 113.887 274.218 113.827 274.218 113.76V100.24C274.218 100.173 274.238 100.12 274.278 100.08C274.331 100.027 274.391 100 274.458 100H276.718C276.851 100 276.945 100.053 276.998 100.16L282.158 108.68C282.185 108.72 282.211 108.74 282.238 108.74C282.265 108.727 282.278 108.693 282.278 108.64L282.258 100.24ZM297.442 100.24C297.442 100.173 297.462 100.12 297.502 100.08C297.555 100.027 297.615 100 297.682 100H300.022C300.088 100 300.142 100.027 300.182 100.08C300.235 100.12 300.262 100.173 300.262 100.24V113.76C300.262 113.827 300.235 113.887 300.182 113.94C300.142 113.98 300.088 114 300.022 114H297.762C297.628 114 297.535 113.947 297.482 113.84L292.302 105.28C292.275 105.24 292.248 105.227 292.222 105.24C292.195 105.24 292.182 105.267 292.182 105.32L292.222 113.76C292.222 113.827 292.195 113.887 292.142 113.94C292.102 113.98 292.048 114 291.982 114H289.642C289.575 114 289.515 113.98 289.462 113.94C289.422 113.887 289.402 113.827 289.402 113.76V100.24C289.402 100.173 289.422 100.12 289.462 100.08C289.515 100.027 289.575 100 289.642 100H291.902C292.035 100 292.128 100.053 292.182 100.16L297.342 108.68C297.368 108.72 297.395 108.74 297.422 108.74C297.448 108.727 297.462 108.693 297.462 108.64L297.442 100.24ZM309.622 114.16C308.596 114.16 307.689 113.953 306.902 113.54C306.116 113.127 305.502 112.553 305.062 111.82C304.636 111.073 304.422 110.213 304.422 109.24V104.76C304.422 103.787 304.636 102.927 305.062 102.18C305.502 101.433 306.116 100.86 306.902 100.46C307.689 100.047 308.596 99.84 309.622 99.84C310.636 99.84 311.529 100.04 312.302 100.44C313.089 100.84 313.696 101.387 314.122 102.08C314.562 102.76 314.782 103.52 314.782 104.36V104.5C314.782 104.567 314.756 104.627 314.702 104.68C314.662 104.72 314.609 104.74 314.542 104.74H312.202C312.136 104.74 312.076 104.72 312.022 104.68C311.982 104.627 311.962 104.567 311.962 104.5V104.44C311.962 103.827 311.749 103.313 311.322 102.9C310.896 102.473 310.329 102.26 309.622 102.26C308.902 102.26 308.322 102.487 307.882 102.94C307.456 103.38 307.242 103.96 307.242 104.68V109.32C307.242 110.04 307.476 110.627 307.942 111.08C308.409 111.52 309.002 111.74 309.722 111.74C310.416 111.74 310.969 111.56 311.382 111.2C311.796 110.827 312.002 110.313 312.002 109.66V108.76C312.002 108.693 311.969 108.66 311.902 108.66H309.662C309.596 108.66 309.536 108.64 309.482 108.6C309.442 108.547 309.422 108.487 309.422 108.42V106.58C309.422 106.513 309.442 106.46 309.482 106.42C309.536 106.367 309.596 106.34 309.662 106.34H314.542C314.609 106.34 314.662 106.367 314.702 106.42C314.756 106.46 314.782 106.513 314.782 106.58V109.22C314.782 110.233 314.569 111.113 314.142 111.86C313.716 112.607 313.109 113.18 312.322 113.58C311.549 113.967 310.649 114.16 309.622 114.16ZM328.669 102.18C328.669 102.247 328.642 102.307 328.589 102.36C328.549 102.4 328.495 102.42 328.429 102.42H321.869C321.802 102.42 321.769 102.453 321.769 102.52V105.62C321.769 105.687 321.802 105.72 321.869 105.72H326.169C326.235 105.72 326.289 105.747 326.329 105.8C326.382 105.84 326.409 105.893 326.409 105.96V107.9C326.409 107.967 326.382 108.027 326.329 108.08C326.289 108.12 326.235 108.14 326.169 108.14H321.869C321.802 108.14 321.769 108.173 321.769 108.24V111.48C321.769 111.547 321.802 111.58 321.869 111.58H328.429C328.495 111.58 328.549 111.607 328.589 111.66C328.642 111.7 328.669 111.753 328.669 111.82V113.76C328.669 113.827 328.642 113.887 328.589 113.94C328.549 113.98 328.495 114 328.429 114H319.189C319.122 114 319.062 113.98 319.009 113.94C318.969 113.887 318.949 113.827 318.949 113.76V100.24C318.949 100.173 318.969 100.12 319.009 100.08C319.062 100.027 319.122 100 319.189 100H328.429C328.495 100 328.549 100.027 328.589 100.08C328.642 100.12 328.669 100.173 328.669 100.24V102.18ZM337.428 114.16C336.362 114.16 335.428 113.993 334.628 113.66C333.828 113.313 333.208 112.827 332.768 112.2C332.342 111.56 332.128 110.82 332.128 109.98V109.54C332.128 109.473 332.148 109.42 332.188 109.38C332.242 109.327 332.302 109.3 332.368 109.3H334.648C334.715 109.3 334.768 109.327 334.808 109.38C334.862 109.42 334.888 109.473 334.888 109.54V109.84C334.888 110.373 335.135 110.827 335.628 111.2C336.122 111.56 336.788 111.74 337.628 111.74C338.335 111.74 338.862 111.593 339.208 111.3C339.555 110.993 339.728 110.62 339.728 110.18C339.728 109.86 339.622 109.593 339.408 109.38C339.195 109.153 338.902 108.96 338.528 108.8C338.168 108.627 337.588 108.393 336.788 108.1C335.895 107.793 335.135 107.48 334.508 107.16C333.895 106.84 333.375 106.407 332.948 105.86C332.535 105.3 332.328 104.613 332.328 103.8C332.328 103 332.535 102.3 332.948 101.7C333.362 101.1 333.935 100.64 334.668 100.32C335.402 100 336.248 99.84 337.208 99.84C338.222 99.84 339.122 100.02 339.908 100.38C340.708 100.74 341.328 101.247 341.768 101.9C342.222 102.54 342.448 103.287 342.448 104.14V104.44C342.448 104.507 342.422 104.567 342.368 104.62C342.328 104.66 342.275 104.68 342.208 104.68H339.908C339.842 104.68 339.782 104.66 339.728 104.62C339.688 104.567 339.668 104.507 339.668 104.44V104.28C339.668 103.72 339.435 103.247 338.968 102.86C338.515 102.46 337.888 102.26 337.088 102.26C336.462 102.26 335.968 102.393 335.608 102.66C335.262 102.927 335.088 103.293 335.088 103.76C335.088 104.093 335.188 104.373 335.388 104.6C335.602 104.827 335.908 105.033 336.308 105.22C336.722 105.393 337.355 105.633 338.208 105.94C339.155 106.287 339.895 106.593 340.428 106.86C340.975 107.127 341.462 107.527 341.888 108.06C342.328 108.58 342.548 109.26 342.548 110.1C342.548 111.353 342.088 112.347 341.168 113.08C340.248 113.8 339.002 114.16 337.428 114.16ZM356.026 100C356.093 100 356.146 100.027 356.186 100.08C356.24 100.12 356.266 100.173 356.266 100.24V102.2C356.266 102.267 356.24 102.327 356.186 102.38C356.146 102.42 356.093 102.44 356.026 102.44H352.446C352.38 102.44 352.346 102.473 352.346 102.54V113.76C352.346 113.827 352.32 113.887 352.266 113.94C352.226 113.98 352.173 114 352.106 114H349.766C349.7 114 349.64 113.98 349.586 113.94C349.546 113.887 349.526 113.827 349.526 113.76V102.54C349.526 102.473 349.493 102.44 349.426 102.44H345.946C345.88 102.44 345.82 102.42 345.766 102.38C345.726 102.327 345.706 102.267 345.706 102.2V100.24C345.706 100.173 345.726 100.12 345.766 100.08C345.82 100.027 345.88 100 345.946 100H356.026Z"></path>
<path fill="white" d="M86.272 188.72C85.984 188.864 85.984 189.008 86.272 189.152C90.832 191.504 93.112 195.416 93.112 200.888C93.112 205.544 91.528 209.072 88.36 211.472C85.192 213.824 81.04 215 75.904 215H57.256C57.016 215 56.8 214.928 56.608 214.784C56.464 214.592 56.392 214.376 56.392 214.136V165.464C56.392 165.224 56.464 165.032 56.608 164.888C56.8 164.696 57.016 164.6 57.256 164.6H75.328C86.704 164.6 92.392 169.208 92.392 178.424C92.392 183.224 90.352 186.656 86.272 188.72ZM66.904 173.312C66.664 173.312 66.544 173.432 66.544 173.672V184.904C66.544 185.144 66.664 185.264 66.904 185.264H75.328C77.584 185.264 79.336 184.736 80.584 183.68C81.832 182.624 82.456 181.184 82.456 179.36C82.456 177.488 81.832 176.024 80.584 174.968C79.336 173.864 77.584 173.312 75.328 173.312H66.904ZM75.904 206.216C78.112 206.216 79.84 205.664 81.088 204.56C82.336 203.408 82.96 201.848 82.96 199.88C82.96 197.912 82.336 196.376 81.088 195.272C79.84 194.12 78.088 193.544 75.832 193.544H66.904C66.664 193.544 66.544 193.664 66.544 193.904V205.856C66.544 206.096 66.664 206.216 66.904 206.216H75.904ZM120.131 178.856C120.131 178.616 120.203 178.424 120.347 178.28C120.539 178.088 120.755 177.992 120.995 177.992H129.419C129.659 177.992 129.851 178.088 129.995 178.28C130.187 178.424 130.283 178.616 130.283 178.856V214.136C130.283 214.376 130.187 214.592 129.995 214.784C129.851 214.928 129.659 215 129.419 215H120.995C120.755 215 120.539 214.928 120.347 214.784C120.203 214.592 120.131 214.376 120.131 214.136V211.688C120.131 211.544 120.083 211.472 119.987 211.472C119.891 211.424 119.795 211.472 119.699 211.616C117.779 214.208 114.803 215.504 110.771 215.504C107.123 215.504 104.123 214.4 101.771 212.192C99.4186 209.984 98.2426 206.888 98.2426 202.904V178.856C98.2426 178.616 98.3146 178.424 98.4586 178.28C98.6506 178.088 98.8666 177.992 99.1066 177.992H107.459C107.699 177.992 107.891 178.088 108.035 178.28C108.227 178.424 108.323 178.616 108.323 178.856V200.384C108.323 202.304 108.827 203.864 109.835 205.064C110.891 206.264 112.331 206.864 114.155 206.864C115.787 206.864 117.131 206.384 118.187 205.424C119.243 204.416 119.891 203.12 120.131 201.536V178.856ZM141.797 173.816C140.165 173.816 138.797 173.288 137.693 172.232C136.637 171.128 136.109 169.76 136.109 168.128C136.109 166.448 136.637 165.08 137.693 164.024C138.749 162.968 140.117 162.44 141.797 162.44C143.477 162.44 144.845 162.968 145.901 164.024C146.957 165.08 147.485 166.448 147.485 168.128C147.485 169.76 146.933 171.128 145.829 172.232C144.773 173.288 143.429 173.816 141.797 173.816ZM137.477 215C137.237 215 137.021 214.928 136.829 214.784C136.685 214.592 136.613 214.376 136.613 214.136V178.784C136.613 178.544 136.685 178.352 136.829 178.208C137.021 178.016 137.237 177.92 137.477 177.92H145.901C146.141 177.92 146.333 178.016 146.477 178.208C146.669 178.352 146.765 178.544 146.765 178.784V214.136C146.765 214.376 146.669 214.592 146.477 214.784C146.333 214.928 146.141 215 145.901 215H137.477ZM154.101 215C153.861 215 153.645 214.928 153.453 214.784C153.309 214.592 153.237 214.376 153.237 214.136V165.464C153.237 165.224 153.309 165.032 153.453 164.888C153.645 164.696 153.861 164.6 154.101 164.6H162.525C162.765 164.6 162.957 164.696 163.101 164.888C163.293 165.032 163.389 165.224 163.389 165.464V214.136C163.389 214.376 163.293 214.592 163.101 214.784C162.957 214.928 162.765 215 162.525 215H154.101ZM192.343 165.464C192.343 165.224 192.415 165.032 192.559 164.888C192.751 164.696 192.967 164.6 193.207 164.6H201.631C201.871 164.6 202.063 164.696 202.207 164.888C202.399 165.032 202.495 165.224 202.495 165.464V214.136C202.495 214.376 202.399 214.592 202.207 214.784C202.063 214.928 201.871 215 201.631 215H193.207C192.967 215 192.751 214.928 192.559 214.784C192.415 214.592 192.343 214.376 192.343 214.136V211.76C192.343 211.616 192.295 211.544 192.199 211.544C192.103 211.496 192.007 211.52 191.911 211.616C189.895 214.256 187.135 215.576 183.631 215.576C180.271 215.576 177.367 214.64 174.919 212.768C172.519 210.896 170.791 208.328 169.735 205.064C168.919 202.568 168.511 199.664 168.511 196.352C168.511 192.944 168.943 189.968 169.807 187.424C170.911 184.352 172.639 181.928 174.991 180.152C177.391 178.328 180.343 177.416 183.847 177.416C187.303 177.416 189.991 178.616 191.911 181.016C192.007 181.16 192.103 181.208 192.199 181.16C192.295 181.112 192.343 181.016 192.343 180.872V165.464ZM190.831 203.768C191.791 201.992 192.271 199.568 192.271 196.496C192.271 193.28 191.743 190.76 190.687 188.936C189.583 187.064 187.975 186.128 185.863 186.128C183.607 186.128 181.903 187.064 180.751 188.936C179.551 190.808 178.951 193.352 178.951 196.568C178.951 199.448 179.455 201.848 180.463 203.768C181.663 205.832 183.439 206.864 185.791 206.864C187.951 206.864 189.631 205.832 190.831 203.768ZM240.122 177.488C241.85 177.488 243.218 177.824 244.226 178.496C244.61 178.688 244.754 179.048 244.658 179.576L243.146 187.784C243.098 188.36 242.762 188.528 242.138 188.288C241.418 188.048 240.578 187.928 239.618 187.928C239.234 187.928 238.706 187.976 238.034 188.072C236.306 188.216 234.842 188.864 233.642 190.016C232.442 191.12 231.842 192.608 231.842 194.48V214.136C231.842 214.376 231.746 214.592 231.554 214.784C231.41 214.928 231.218 215 230.978 215H222.554C222.314 215 222.098 214.928 221.906 214.784C221.762 214.592 221.69 214.376 221.69 214.136V178.856C221.69 178.616 221.762 178.424 221.906 178.28C222.098 178.088 222.314 177.992 222.554 177.992H230.978C231.218 177.992 231.41 178.088 231.554 178.28C231.746 178.424 231.842 178.616 231.842 178.856V181.592C231.842 181.736 231.89 181.832 231.986 181.88C232.082 181.928 232.154 181.904 232.202 181.808C234.17 178.928 236.81 177.488 240.122 177.488ZM279.658 192.68C279.946 194.504 280.042 196.544 279.946 198.8C279.898 199.376 279.586 199.664 279.01 199.664H256.762C256.474 199.664 256.378 199.784 256.474 200.024C256.618 200.984 256.882 201.944 257.266 202.904C258.514 205.592 261.058 206.936 264.898 206.936C267.97 206.888 270.394 205.64 272.17 203.192C272.362 202.904 272.578 202.76 272.818 202.76C272.962 202.76 273.13 202.856 273.322 203.048L278.506 208.16C278.746 208.4 278.866 208.616 278.866 208.808C278.866 208.904 278.77 209.096 278.578 209.384C276.994 211.352 274.954 212.888 272.458 213.992C269.962 215.048 267.226 215.576 264.25 215.576C260.122 215.576 256.618 214.64 253.738 212.768C250.906 210.896 248.866 208.28 247.618 204.92C246.61 202.52 246.106 199.376 246.106 195.488C246.106 192.848 246.466 190.52 247.186 188.504C248.29 185.096 250.21 182.384 252.946 180.368C255.73 178.352 259.018 177.344 262.81 177.344C267.61 177.344 271.45 178.736 274.33 181.52C277.258 184.304 279.034 188.024 279.658 192.68ZM262.882 186.128C259.858 186.128 257.866 187.544 256.906 190.376C256.714 191 256.546 191.768 256.402 192.68C256.402 192.92 256.522 193.04 256.762 193.04H269.218C269.506 193.04 269.602 192.92 269.506 192.68C269.266 191.288 269.146 190.616 269.146 190.664C268.714 189.224 267.946 188.12 266.842 187.352C265.786 186.536 264.466 186.128 262.882 186.128ZM299.171 177.416C302.291 177.416 305.075 177.968 307.523 179.072C309.971 180.128 311.867 181.592 313.211 183.464C314.603 185.336 315.299 187.424 315.299 189.728V214.136C315.299 214.376 315.203 214.592 315.011 214.784C314.867 214.928 314.675 215 314.435 215H306.011C305.771 215 305.555 214.928 305.363 214.784C305.219 214.592 305.147 214.376 305.147 214.136V211.76C305.147 211.616 305.099 211.52 305.003 211.472C304.907 211.424 304.811 211.472 304.715 211.616C302.699 214.256 299.459 215.576 294.995 215.576C291.251 215.576 288.227 214.664 285.923 212.84C283.619 211.016 282.467 208.328 282.467 204.776C282.467 201.08 283.763 198.224 286.355 196.208C288.947 194.144 292.643 193.112 297.443 193.112H304.787C305.027 193.112 305.147 192.992 305.147 192.752V191.168C305.147 189.584 304.667 188.36 303.707 187.496C302.747 186.584 301.307 186.128 299.387 186.128C297.899 186.128 296.651 186.392 295.643 186.92C294.683 187.448 294.059 188.192 293.771 189.152C293.627 189.68 293.315 189.92 292.835 189.872L284.123 188.72C283.547 188.624 283.283 188.408 283.331 188.072C283.523 186.056 284.315 184.232 285.707 182.6C287.147 180.968 289.019 179.696 291.323 178.784C293.675 177.872 296.291 177.416 299.171 177.416ZM297.731 208.016C299.795 208.016 301.547 207.464 302.987 206.36C304.427 205.256 305.147 203.84 305.147 202.112V199.52C305.147 199.28 305.027 199.16 304.787 199.16H299.603C297.443 199.16 295.739 199.568 294.491 200.384C293.291 201.2 292.691 202.352 292.691 203.84C292.691 205.136 293.147 206.168 294.059 206.936C294.971 207.656 296.195 208.016 297.731 208.016ZM321.875 215C321.635 215 321.419 214.928 321.227 214.784C321.083 214.592 321.011 214.376 321.011 214.136V165.464C321.011 165.224 321.083 165.032 321.227 164.888C321.419 164.696 321.635 164.6 321.875 164.6H330.299C330.539 164.6 330.731 164.696 330.875 164.888C331.067 165.032 331.163 165.224 331.163 165.464V214.136C331.163 214.376 331.067 214.592 330.875 214.784C330.731 214.928 330.539 215 330.299 215H321.875ZM336.357 198.08C336.117 198.08 335.901 198.008 335.709 197.864C335.565 197.672 335.493 197.456 335.493 197.216V190.232C335.493 189.992 335.565 189.8 335.709 189.656C335.901 189.464 336.117 189.368 336.357 189.368H359.901C360.141 189.368 360.333 189.464 360.477 189.656C360.669 189.8 360.765 189.992 360.765 190.232V197.216C360.765 197.456 360.669 197.672 360.477 197.864C360.333 198.008 360.141 198.08 359.901 198.08H336.357ZM76.984 264.264C76.984 264.504 76.888 264.72 76.696 264.912C76.552 265.056 76.36 265.128 76.12 265.128H69.208C68.968 265.128 68.848 265.248 68.848 265.488V280.752C68.848 282.336 69.16 283.512 69.784 284.28C70.456 285.048 71.512 285.432 72.952 285.432H75.328C75.568 285.432 75.76 285.528 75.904 285.72C76.096 285.864 76.192 286.056 76.192 286.296V293.136C76.192 293.664 75.904 293.976 75.328 294.072C73.312 294.168 71.872 294.216 71.008 294.216C67.024 294.216 64.048 293.568 62.08 292.272C60.112 290.928 59.104 288.432 59.056 284.784V265.488C59.056 265.248 58.936 265.128 58.696 265.128H54.592C54.352 265.128 54.136 265.056 53.944 264.912C53.8 264.72 53.728 264.504 53.728 264.264V257.856C53.728 257.616 53.8 257.424 53.944 257.28C54.136 257.088 54.352 256.992 54.592 256.992H58.696C58.936 256.992 59.056 256.872 59.056 256.632V248.064C59.056 247.824 59.128 247.632 59.272 247.488C59.464 247.296 59.68 247.2 59.92 247.2H67.984C68.224 247.2 68.416 247.296 68.56 247.488C68.752 247.632 68.848 247.824 68.848 248.064V256.632C68.848 256.872 68.968 256.992 69.208 256.992H76.12C76.36 256.992 76.552 257.088 76.696 257.28C76.888 257.424 76.984 257.616 76.984 257.856V264.264ZM87.1276 252.816C85.4956 252.816 84.1276 252.288 83.0236 251.232C81.9676 250.128 81.4396 248.76 81.4396 247.128C81.4396 245.448 81.9676 244.08 83.0236 243.024C84.0796 241.968 85.4476 241.44 87.1276 241.44C88.8076 241.44 90.1756 241.968 91.2316 243.024C92.2876 244.08 92.8156 245.448 92.8156 247.128C92.8156 248.76 92.2636 250.128 91.1596 251.232C90.1036 252.288 88.7596 252.816 87.1276 252.816ZM82.8076 294C82.5676 294 82.3516 293.928 82.1596 293.784C82.0156 293.592 81.9436 293.376 81.9436 293.136V257.784C81.9436 257.544 82.0156 257.352 82.1596 257.208C82.3516 257.016 82.5676 256.92 82.8076 256.92H91.2316C91.4716 256.92 91.6636 257.016 91.8076 257.208C91.9996 257.352 92.0956 257.544 92.0956 257.784V293.136C92.0956 293.376 91.9996 293.592 91.8076 293.784C91.6636 293.928 91.4716 294 91.2316 294H82.8076ZM139.607 256.416C143.351 256.416 146.279 257.544 148.391 259.8C150.503 262.056 151.559 265.224 151.559 269.304V293.136C151.559 293.376 151.463 293.592 151.271 293.784C151.127 293.928 150.935 294 150.695 294H142.271C142.031 294 141.815 293.928 141.623 293.784C141.479 293.592 141.407 293.376 141.407 293.136V271.536C141.407 269.568 140.903 268.008 139.895 266.856C138.887 265.704 137.543 265.128 135.863 265.128C134.183 265.128 132.815 265.704 131.759 266.856C130.703 268.008 130.175 269.544 130.175 271.464V293.136C130.175 293.376 130.079 293.592 129.887 293.784C129.743 293.928 129.551 294 129.311 294H120.959C120.719 294 120.503 293.928 120.311 293.784C120.167 293.592 120.095 293.376 120.095 293.136V271.536C120.095 269.616 119.567 268.08 118.511 266.928C117.455 265.728 116.087 265.128 114.407 265.128C112.871 265.128 111.575 265.584 110.519 266.496C109.511 267.408 108.911 268.68 108.719 270.312V293.136C108.719 293.376 108.623 293.592 108.431 293.784C108.287 293.928 108.095 294 107.855 294H99.4311C99.1911 294 98.9751 293.928 98.7831 293.784C98.6391 293.592 98.5671 293.376 98.5671 293.136V257.856C98.5671 257.616 98.6391 257.424 98.7831 257.28C98.9751 257.088 99.1911 256.992 99.4311 256.992H107.855C108.095 256.992 108.287 257.088 108.431 257.28C108.623 257.424 108.719 257.616 108.719 257.856V260.664C108.719 260.808 108.767 260.904 108.863 260.952C108.959 261 109.055 260.952 109.151 260.808C111.119 257.88 114.167 256.416 118.295 256.416C120.695 256.416 122.783 256.92 124.559 257.928C126.383 258.936 127.775 260.376 128.735 262.248C128.879 262.536 129.047 262.536 129.239 262.248C130.295 260.28 131.711 258.816 133.487 257.856C135.311 256.896 137.351 256.416 139.607 256.416ZM189.793 271.68C190.081 273.504 190.177 275.544 190.081 277.8C190.033 278.376 189.721 278.664 189.145 278.664H166.897C166.609 278.664 166.513 278.784 166.609 279.024C166.753 279.984 167.017 280.944 167.401 281.904C168.649 284.592 171.193 285.936 175.033 285.936C178.105 285.888 180.529 284.64 182.305 282.192C182.497 281.904 182.713 281.76 182.953 281.76C183.097 281.76 183.265 281.856 183.457 282.048L188.641 287.16C188.881 287.4 189.001 287.616 189.001 287.808C189.001 287.904 188.905 288.096 188.713 288.384C187.129 290.352 185.089 291.888 182.593 292.992C180.097 294.048 177.361 294.576 174.385 294.576C170.257 294.576 166.753 293.64 163.873 291.768C161.041 289.896 159.001 287.28 157.753 283.92C156.745 281.52 156.241 278.376 156.241 274.488C156.241 271.848 156.601 269.52 157.321 267.504C158.425 264.096 160.345 261.384 163.081 259.368C165.865 257.352 169.153 256.344 172.945 256.344C177.745 256.344 181.585 257.736 184.465 260.52C187.393 263.304 189.169 267.024 189.793 271.68ZM173.017 265.128C169.993 265.128 168.001 266.544 167.041 269.376C166.849 270 166.681 270.768 166.537 271.68C166.537 271.92 166.657 272.04 166.897 272.04H179.353C179.641 272.04 179.737 271.92 179.641 271.68C179.401 270.288 179.281 269.616 179.281 269.664C178.849 268.224 178.081 267.12 176.977 266.352C175.921 265.536 174.601 265.128 173.017 265.128ZM193.492 301.056C192.916 301.056 192.652 300.744 192.7 300.12L195.076 283.416C195.124 282.888 195.436 282.624 196.012 282.624H203.356C203.98 282.624 204.22 282.936 204.076 283.56L199.612 300.336C199.468 300.816 199.132 301.056 198.604 301.056H193.492ZM247.049 244.464C247.049 244.224 247.121 244.032 247.265 243.888C247.457 243.696 247.673 243.6 247.913 243.6H256.337C256.577 243.6 256.769 243.696 256.913 243.888C257.105 244.032 257.201 244.224 257.201 244.464V293.136C257.201 293.376 257.105 293.592 256.913 293.784C256.769 293.928 256.577 294 256.337 294H247.913C247.673 294 247.457 293.928 247.265 293.784C247.121 293.592 247.049 293.376 247.049 293.136V290.76C247.049 290.616 247.001 290.544 246.905 290.544C246.809 290.496 246.713 290.52 246.617 290.616C244.601 293.256 241.841 294.576 238.337 294.576C234.977 294.576 232.073 293.64 229.625 291.768C227.225 289.896 225.497 287.328 224.441 284.064C223.625 281.568 223.217 278.664 223.217 275.352C223.217 271.944 223.649 268.968 224.513 266.424C225.617 263.352 227.345 260.928 229.697 259.152C232.097 257.328 235.049 256.416 238.553 256.416C242.009 256.416 244.697 257.616 246.617 260.016C246.713 260.16 246.809 260.208 246.905 260.16C247.001 260.112 247.049 260.016 247.049 259.872V244.464ZM245.537 282.768C246.497 280.992 246.977 278.568 246.977 275.496C246.977 272.28 246.449 269.76 245.393 267.936C244.289 266.064 242.681 265.128 240.569 265.128C238.313 265.128 236.609 266.064 235.457 267.936C234.257 269.808 233.657 272.352 233.657 275.568C233.657 278.448 234.161 280.848 235.169 282.768C236.369 284.832 238.145 285.864 240.497 285.864C242.657 285.864 244.337 284.832 245.537 282.768ZM285.022 257.856C285.022 257.616 285.094 257.424 285.238 257.28C285.43 257.088 285.646 256.992 285.886 256.992H294.31C294.55 256.992 294.742 257.088 294.886 257.28C295.078 257.424 295.174 257.616 295.174 257.856V293.136C295.174 293.376 295.078 293.592 294.886 293.784C294.742 293.928 294.55 294 294.31 294H285.886C285.646 294 285.43 293.928 285.238 293.784C285.094 293.592 285.022 293.376 285.022 293.136V290.688C285.022 290.544 284.974 290.472 284.878 290.472C284.782 290.424 284.686 290.472 284.59 290.616C282.67 293.208 279.694 294.504 275.662 294.504C272.014 294.504 269.014 293.4 266.662 291.192C264.31 288.984 263.134 285.888 263.134 281.904V257.856C263.134 257.616 263.206 257.424 263.35 257.28C263.542 257.088 263.758 256.992 263.998 256.992H272.35C272.59 256.992 272.782 257.088 272.926 257.28C273.118 257.424 273.214 257.616 273.214 257.856V279.384C273.214 281.304 273.718 282.864 274.726 284.064C275.782 285.264 277.222 285.864 279.046 285.864C280.678 285.864 282.022 285.384 283.078 284.424C284.134 283.416 284.782 282.12 285.022 280.536V257.856ZM319.648 256.488C321.376 256.488 322.744 256.824 323.752 257.496C324.136 257.688 324.28 258.048 324.184 258.576L322.672 266.784C322.624 267.36 322.288 267.528 321.664 267.288C320.944 267.048 320.104 266.928 319.144 266.928C318.76 266.928 318.232 266.976 317.56 267.072C315.832 267.216 314.368 267.864 313.168 269.016C311.968 270.12 311.368 271.608 311.368 273.48V293.136C311.368 293.376 311.272 293.592 311.08 293.784C310.936 293.928 310.744 294 310.504 294H302.08C301.84 294 301.624 293.928 301.432 293.784C301.288 293.592 301.216 293.376 301.216 293.136V257.856C301.216 257.616 301.288 257.424 301.432 257.28C301.624 257.088 301.84 256.992 302.08 256.992H310.504C310.744 256.992 310.936 257.088 311.08 257.28C311.272 257.424 311.368 257.616 311.368 257.856V260.592C311.368 260.736 311.416 260.832 311.512 260.88C311.608 260.928 311.68 260.904 311.728 260.808C313.696 257.928 316.336 256.488 319.648 256.488ZM341.677 256.416C344.797 256.416 347.581 256.968 350.029 258.072C352.477 259.128 354.373 260.592 355.717 262.464C357.109 264.336 357.805 266.424 357.805 268.728V293.136C357.805 293.376 357.709 293.592 357.517 293.784C357.373 293.928 357.181 294 356.941 294H348.517C348.277 294 348.061 293.928 347.869 293.784C347.725 293.592 347.653 293.376 347.653 293.136V290.76C347.653 290.616 347.605 290.52 347.509 290.472C347.413 290.424 347.317 290.472 347.221 290.616C345.205 293.256 341.965 294.576 337.501 294.576C333.757 294.576 330.733 293.664 328.429 291.84C326.125 290.016 324.973 287.328 324.973 283.776C324.973 280.08 326.269 277.224 328.861 275.208C331.453 273.144 335.149 272.112 339.949 272.112H347.293C347.533 272.112 347.653 271.992 347.653 271.752V270.168C347.653 268.584 347.173 267.36 346.213 266.496C345.253 265.584 343.813 265.128 341.893 265.128C340.405 265.128 339.157 265.392 338.149 265.92C337.189 266.448 336.565 267.192 336.277 268.152C336.133 268.68 335.821 268.92 335.341 268.872L326.629 267.72C326.053 267.624 325.789 267.408 325.837 267.072C326.029 265.056 326.821 263.232 328.213 261.6C329.653 259.968 331.525 258.696 333.829 257.784C336.181 256.872 338.797 256.416 341.677 256.416ZM340.237 287.016C342.301 287.016 344.053 286.464 345.493 285.36C346.933 284.256 347.653 282.84 347.653 281.112V278.52C347.653 278.28 347.533 278.16 347.293 278.16H342.109C339.949 278.16 338.245 278.568 336.997 279.384C335.797 280.2 335.197 281.352 335.197 282.84C335.197 284.136 335.653 285.168 336.565 285.936C337.477 286.656 338.701 287.016 340.237 287.016ZM396.276 266.424C397.188 268.92 397.644 271.896 397.644 275.352C397.644 278.664 397.236 281.568 396.42 284.064C395.316 287.328 393.54 289.896 391.092 291.768C388.692 293.64 385.836 294.576 382.524 294.576C379.02 294.576 376.26 293.256 374.244 290.616C374.148 290.52 374.052 290.496 373.956 290.544C373.86 290.544 373.812 290.616 373.812 290.76V293.136C373.812 293.376 373.716 293.592 373.524 293.784C373.38 293.928 373.188 294 372.948 294H364.524C364.284 294 364.068 293.928 363.876 293.784C363.732 293.592 363.66 293.376 363.66 293.136V244.464C363.66 244.224 363.732 244.032 363.876 243.888C364.068 243.696 364.284 243.6 364.524 243.6H372.948C373.188 243.6 373.38 243.696 373.524 243.888C373.716 244.032 373.812 244.224 373.812 244.464V259.872C373.812 260.016 373.86 260.112 373.956 260.16C374.052 260.208 374.148 260.16 374.244 260.016C376.116 257.616 378.78 256.416 382.236 256.416C385.74 256.416 388.668 257.328 391.02 259.152C393.42 260.928 395.172 263.352 396.276 266.424ZM385.62 282.768C386.628 280.944 387.132 278.544 387.132 275.568C387.132 272.256 386.556 269.712 385.404 267.936C384.252 266.064 382.548 265.128 380.292 265.128C378.18 265.128 376.572 266.064 375.468 267.936C374.412 269.76 373.884 272.28 373.884 275.496C373.884 278.712 374.364 281.136 375.324 282.768C376.476 284.832 378.156 285.864 380.364 285.864C382.716 285.864 384.468 284.832 385.62 282.768ZM403.721 294C403.481 294 403.265 293.928 403.073 293.784C402.929 293.592 402.857 293.376 402.857 293.136V244.464C402.857 244.224 402.929 244.032 403.073 243.888C403.265 243.696 403.481 243.6 403.721 243.6H412.145C412.385 243.6 412.577 243.696 412.721 243.888C412.913 244.032 413.009 244.224 413.009 244.464V293.136C413.009 293.376 412.913 293.592 412.721 293.784C412.577 293.928 412.385 294 412.145 294H403.721ZM451.755 271.68C452.043 273.504 452.139 275.544 452.043 277.8C451.995 278.376 451.683 278.664 451.107 278.664H428.859C428.571 278.664 428.475 278.784 428.571 279.024C428.715 279.984 428.979 280.944 429.363 281.904C430.611 284.592 433.155 285.936 436.995 285.936C440.067 285.888 442.491 284.64 444.267 282.192C444.459 281.904 444.675 281.76 444.915 281.76C445.059 281.76 445.227 281.856 445.419 282.048L450.603 287.16C450.843 287.4 450.963 287.616 450.963 287.808C450.963 287.904 450.867 288.096 450.675 288.384C449.091 290.352 447.051 291.888 444.555 292.992C442.059 294.048 439.323 294.576 436.347 294.576C432.219 294.576 428.715 293.64 425.835 291.768C423.003 289.896 420.963 287.28 419.715 283.92C418.707 281.52 418.203 278.376 418.203 274.488C418.203 271.848 418.563 269.52 419.283 267.504C420.387 264.096 422.307 261.384 425.043 259.368C427.827 257.352 431.115 256.344 434.907 256.344C439.707 256.344 443.547 257.736 446.427 260.52C449.355 263.304 451.131 267.024 451.755 271.68ZM434.979 265.128C431.955 265.128 429.963 266.544 429.003 269.376C428.811 270 428.643 270.768 428.499 271.68C428.499 271.92 428.619 272.04 428.859 272.04H441.315C441.603 272.04 441.699 271.92 441.603 271.68C441.363 270.288 441.243 269.616 441.243 269.664C440.811 268.224 440.043 267.12 438.939 266.352C437.883 265.536 436.563 265.128 434.979 265.128ZM64.96 373C64.432 373 64.096 372.76 63.952 372.28L53.584 336.928L53.512 336.64C53.512 336.16 53.776 335.92 54.304 335.92H63.016C63.544 335.92 63.88 336.16 64.024 336.64L69.208 358.384C69.256 358.528 69.328 358.6 69.424 358.6C69.52 358.6 69.592 358.528 69.64 358.384L75.04 336.64C75.184 336.16 75.52 335.92 76.048 335.92H83.608C84.136 335.92 84.472 336.16 84.616 336.64L90.304 358.456C90.352 358.6 90.424 358.672 90.52 358.672C90.616 358.672 90.688 358.6 90.736 358.456L96.352 336.64C96.496 336.16 96.832 335.92 97.36 335.92L106 336.064C106.288 336.064 106.48 336.16 106.576 336.352C106.72 336.496 106.768 336.712 106.72 337L96.208 372.28C96.064 372.76 95.752 373 95.272 373H86.56C86.032 373 85.696 372.76 85.552 372.28L80.008 352.984C79.96 352.84 79.888 352.768 79.792 352.768C79.696 352.768 79.624 352.84 79.576 352.984L74.68 372.28C74.536 372.76 74.2 373 73.672 373H64.96ZM124.648 373.576C120.616 373.576 117.16 372.52 114.28 370.408C111.4 368.296 109.432 365.416 108.376 361.768C107.704 359.512 107.368 357.064 107.368 354.424C107.368 351.592 107.704 349.048 108.376 346.792C109.48 343.24 111.472 340.456 114.352 338.44C117.232 336.424 120.688 335.416 124.72 335.416C128.656 335.416 132.016 336.424 134.8 338.44C137.584 340.408 139.552 343.168 140.704 346.72C141.472 349.12 141.856 351.64 141.856 354.28C141.856 356.872 141.52 359.296 140.848 361.552C139.792 365.296 137.824 368.248 134.944 370.408C132.112 372.52 128.68 373.576 124.648 373.576ZM124.648 364.864C126.232 364.864 127.576 364.384 128.68 363.424C129.784 362.464 130.576 361.144 131.056 359.464C131.44 357.928 131.632 356.248 131.632 354.424C131.632 352.408 131.44 350.704 131.056 349.312C130.528 347.68 129.712 346.408 128.608 345.496C127.504 344.584 126.16 344.128 124.576 344.128C122.944 344.128 121.576 344.584 120.472 345.496C119.416 346.408 118.648 347.68 118.168 349.312C117.784 350.464 117.592 352.168 117.592 354.424C117.592 356.584 117.76 358.264 118.096 359.464C118.576 361.144 119.368 362.464 120.472 363.424C121.624 364.384 123.016 364.864 124.648 364.864ZM165.374 335.488C167.102 335.488 168.47 335.824 169.478 336.496C169.862 336.688 170.006 337.048 169.91 337.576L168.398 345.784C168.35 346.36 168.014 346.528 167.39 346.288C166.67 346.048 165.83 345.928 164.87 345.928C164.486 345.928 163.958 345.976 163.286 346.072C161.558 346.216 160.094 346.864 158.894 348.016C157.694 349.12 157.094 350.608 157.094 352.48V372.136C157.094 372.376 156.998 372.592 156.806 372.784C156.662 372.928 156.47 373 156.23 373H147.806C147.566 373 147.35 372.928 147.158 372.784C147.014 372.592 146.942 372.376 146.942 372.136V336.856C146.942 336.616 147.014 336.424 147.158 336.28C147.35 336.088 147.566 335.992 147.806 335.992H156.23C156.47 335.992 156.662 336.088 156.806 336.28C156.998 336.424 157.094 336.616 157.094 336.856V339.592C157.094 339.736 157.142 339.832 157.238 339.88C157.334 339.928 157.406 339.904 157.454 339.808C159.422 336.928 162.062 335.488 165.374 335.488ZM173.929 373C173.689 373 173.473 372.928 173.281 372.784C173.137 372.592 173.065 372.376 173.065 372.136V323.464C173.065 323.224 173.137 323.032 173.281 322.888C173.473 322.696 173.689 322.6 173.929 322.6H182.353C182.593 322.6 182.785 322.696 182.929 322.888C183.121 323.032 183.217 323.224 183.217 323.464V347.728C183.217 347.872 183.265 347.968 183.361 348.016C183.457 348.016 183.553 347.968 183.649 347.872L193.441 336.496C193.777 336.16 194.137 335.992 194.521 335.992H204.097C204.577 335.992 204.817 336.16 204.817 336.496C204.817 336.64 204.745 336.832 204.601 337.072L195.457 348.664C195.361 348.856 195.337 349.024 195.385 349.168L206.113 371.992C206.209 372.184 206.257 372.328 206.257 372.424C206.257 372.808 205.993 373 205.465 373H196.609C196.129 373 195.793 372.784 195.601 372.352L188.473 355.504C188.425 355.408 188.329 355.36 188.185 355.36C188.089 355.312 188.017 355.336 187.969 355.432L183.361 361.192C183.265 361.384 183.217 361.528 183.217 361.624V372.136C183.217 372.376 183.121 372.592 182.929 372.784C182.785 372.928 182.593 373 182.353 373H173.929ZM231.111 335.92C231.351 335.92 231.543 336.016 231.687 336.208C231.879 336.352 231.975 336.544 231.975 336.784V343.624C231.975 343.864 231.879 344.08 231.687 344.272C231.543 344.416 231.351 344.488 231.111 344.488H224.127C223.887 344.488 223.767 344.608 223.767 344.848V372.136C223.767 372.376 223.671 372.592 223.479 372.784C223.335 372.928 223.143 373 222.903 373H214.479C214.239 373 214.023 372.928 213.831 372.784C213.687 372.592 213.615 372.376 213.615 372.136V344.848C213.615 344.608 213.495 344.488 213.255 344.488H209.007C208.767 344.488 208.551 344.416 208.359 344.272C208.215 344.08 208.143 343.864 208.143 343.624V336.784C208.143 336.544 208.215 336.352 208.359 336.208C208.551 336.016 208.767 335.92 209.007 335.92H213.255C213.495 335.92 213.615 335.8 213.615 335.56V333.976C213.615 331 214.071 328.696 214.983 327.064C215.895 325.384 217.359 324.208 219.375 323.536C221.439 322.816 224.271 322.504 227.871 322.6H230.607C230.847 322.6 231.039 322.696 231.183 322.888C231.375 323.032 231.471 323.224 231.471 323.464V329.296C231.471 329.536 231.375 329.752 231.183 329.944C231.039 330.088 230.847 330.16 230.607 330.16H228.231C226.551 330.208 225.375 330.568 224.703 331.24C224.079 331.864 223.767 333.04 223.767 334.768V335.56C223.767 335.8 223.887 335.92 224.127 335.92H231.111ZM238.743 373C238.503 373 238.287 372.928 238.095 372.784C237.951 372.592 237.879 372.376 237.879 372.136V323.464C237.879 323.224 237.951 323.032 238.095 322.888C238.287 322.696 238.503 322.6 238.743 322.6H247.167C247.407 322.6 247.599 322.696 247.743 322.888C247.935 323.032 248.031 323.224 248.031 323.464V372.136C248.031 372.376 247.935 372.592 247.743 372.784C247.599 372.928 247.407 373 247.167 373H238.743ZM270.341 373.576C266.309 373.576 262.853 372.52 259.973 370.408C257.093 368.296 255.125 365.416 254.069 361.768C253.397 359.512 253.061 357.064 253.061 354.424C253.061 351.592 253.397 349.048 254.069 346.792C255.173 343.24 257.165 340.456 260.045 338.44C262.925 336.424 266.381 335.416 270.413 335.416C274.349 335.416 277.709 336.424 280.493 338.44C283.277 340.408 285.245 343.168 286.397 346.72C287.165 349.12 287.549 351.64 287.549 354.28C287.549 356.872 287.213 359.296 286.541 361.552C285.485 365.296 283.517 368.248 280.637 370.408C277.805 372.52 274.373 373.576 270.341 373.576ZM270.341 364.864C271.925 364.864 273.269 364.384 274.373 363.424C275.477 362.464 276.269 361.144 276.749 359.464C277.133 357.928 277.325 356.248 277.325 354.424C277.325 352.408 277.133 350.704 276.749 349.312C276.221 347.68 275.405 346.408 274.301 345.496C273.197 344.584 271.853 344.128 270.269 344.128C268.637 344.128 267.269 344.584 266.165 345.496C265.109 346.408 264.341 347.68 263.861 349.312C263.477 350.464 263.285 352.168 263.285 354.424C263.285 356.584 263.453 358.264 263.789 359.464C264.269 361.144 265.061 362.464 266.165 363.424C267.317 364.384 268.709 364.864 270.341 364.864ZM299.812 373C299.284 373 298.948 372.76 298.804 372.28L288.436 336.928L288.364 336.64C288.364 336.16 288.628 335.92 289.156 335.92H297.868C298.396 335.92 298.732 336.16 298.876 336.64L304.06 358.384C304.108 358.528 304.18 358.6 304.276 358.6C304.372 358.6 304.444 358.528 304.492 358.384L309.892 336.64C310.036 336.16 310.372 335.92 310.9 335.92H318.46C318.988 335.92 319.324 336.16 319.468 336.64L325.156 358.456C325.204 358.6 325.276 358.672 325.372 358.672C325.468 358.672 325.54 358.6 325.588 358.456L331.204 336.64C331.348 336.16 331.684 335.92 332.212 335.92L340.852 336.064C341.14 336.064 341.332 336.16 341.428 336.352C341.572 336.496 341.62 336.712 341.572 337L331.06 372.28C330.916 372.76 330.604 373 330.124 373H321.412C320.884 373 320.548 372.76 320.404 372.28L314.86 352.984C314.812 352.84 314.74 352.768 314.644 352.768C314.548 352.768 314.476 352.84 314.428 352.984L309.532 372.28C309.388 372.76 309.052 373 308.524 373H299.812ZM357.705 373.504C354.489 373.504 351.681 373.048 349.281 372.136C346.881 371.224 345.009 369.952 343.665 368.32C342.369 366.688 341.721 364.84 341.721 362.776V362.056C341.721 361.816 341.793 361.624 341.937 361.48C342.129 361.288 342.345 361.192 342.585 361.192H350.577C350.817 361.192 351.009 361.288 351.153 361.48C351.345 361.624 351.441 361.816 351.441 362.056V362.128C351.441 363.184 352.017 364.096 353.169 364.864C354.369 365.584 355.857 365.944 357.633 365.944C359.265 365.944 360.585 365.632 361.593 365.008C362.601 364.336 363.105 363.52 363.105 362.56C363.105 361.696 362.673 361.048 361.809 360.616C360.945 360.184 359.529 359.728 357.561 359.248C355.305 358.672 353.529 358.12 352.233 357.592C349.161 356.536 346.713 355.24 344.889 353.704C343.065 352.168 342.153 349.96 342.153 347.08C342.153 343.528 343.521 340.72 346.257 338.656C349.041 336.544 352.713 335.488 357.273 335.488C360.345 335.488 363.033 335.992 365.337 337C367.641 337.96 369.417 339.328 370.665 341.104C371.961 342.88 372.609 344.896 372.609 347.152C372.609 347.392 372.513 347.608 372.321 347.8C372.177 347.944 371.985 348.016 371.745 348.016H364.041C363.801 348.016 363.585 347.944 363.393 347.8C363.249 347.608 363.177 347.392 363.177 347.152C363.177 346.096 362.625 345.208 361.521 344.488C360.465 343.768 359.049 343.408 357.273 343.408C355.689 343.408 354.393 343.696 353.385 344.272C352.377 344.848 351.873 345.64 351.873 346.648C351.873 347.608 352.353 348.328 353.313 348.808C354.321 349.288 355.977 349.792 358.281 350.32C358.809 350.464 359.409 350.632 360.081 350.824C360.753 350.968 361.473 351.16 362.241 351.4C365.649 352.408 368.337 353.704 370.305 355.288C372.273 356.872 373.257 359.176 373.257 362.2C373.257 365.752 371.841 368.536 369.009 370.552C366.225 372.52 362.457 373.504 357.705 373.504Z"></path>
<rect fill-opacity="0.2" fill="#0A2E34" transform="matrix(-1 0 0 1 732.381 29)" rx="12.0381" height="144.457" width="199.381"></rect>
<rect fill-opacity="0.2" fill="#0A2E34" transform="matrix(-1 0 0 1 732.381 40.4609)" rx="12.0381" height="144.457" width="199.381"></rect>
<rect fill-opacity="0.2" fill="#0A2E34" transform="matrix(-1 0 0 1 732.381 51.9141)" rx="12.0381" height="144.457" width="199.381"></rect>
<rect fill-opacity="0.2" fill="#0A2E34" transform="matrix(-1 0 0 1 732.381 63.375)" rx="12.0381" height="144.457" width="199.381"></rect>
<rect fill-opacity="0.2" fill="#0A2E34" transform="matrix(-1 0 0 1 732.381 74.8281)" rx="12.0381" height="144.457" width="199.381"></rect>
<rect stroke-width="0.752381" stroke="#71E8DF" fill="#0D383F" transform="matrix(-1 0 0 1 731.629 86.2891)" rx="11.6619" height="143.705" width="198.629" y="0.376191" x="-0.376191"></rect>
<g filter="url(#filter0_ddd_9739_151996)">
<path fill="white" d="M594.121 170.308C593.158 171.878 593.173 173.859 594.159 175.415L612.005 203.566C613.164 205.393 615.396 206.226 617.468 205.605L668.968 190.155C671.778 189.312 673.192 186.177 671.964 183.512L638.857 111.696C637.243 108.194 632.376 107.907 630.36 111.195L594.121 170.308ZM637.978 128.114C637.274 126.486 634.891 126.737 634.542 128.476L621.796 191.939C621.528 193.278 622.781 194.42 624.088 194.03L659.67 183.408C660.709 183.098 661.244 181.951 660.814 180.956L637.978 128.114Z" clip-rule="evenodd" fill-rule="evenodd"></path>
</g>
<rect fill-opacity="0.2" fill="#0A2E34" transform="rotate(180 732.381 444.484)" rx="12.0381" height="144.457" width="199.381" y="444.484" x="732.381"></rect>
<rect fill-opacity="0.2" fill="#0A2E34" transform="rotate(180 732.381 433.023)" rx="12.0381" height="144.457" width="199.381" y="433.023" x="732.381"></rect>
<rect fill-opacity="0.2" fill="#0A2E34" transform="rotate(180 732.381 421.57)" rx="12.0381" height="144.457" width="199.381" y="421.57" x="732.381"></rect>
<rect fill-opacity="0.2" fill="#0A2E34" transform="rotate(180 732.381 410.109)" rx="12.0381" height="144.457" width="199.381" y="410.109" x="732.381"></rect>
<rect fill-opacity="0.2" fill="#0A2E34" transform="rotate(180 732.381 398.656)" rx="12.0381" height="144.457" width="199.381" y="398.656" x="732.381"></rect>
<rect stroke-width="0.752381" stroke="#71E8DF" fill="#0D383F" transform="rotate(180 732.005 386.819)" rx="11.6619" height="143.705" width="198.629" y="386.819" x="732.005"></rect>
<g filter="url(#filter1_ddd_9739_151996)">
<path fill="white" d="M567.618 293.605C566.793 294.252 566.381 295.159 566.381 296.325C566.381 297.478 566.793 298.379 567.618 299.027C568.443 299.674 569.414 299.998 570.531 299.998C571.635 299.998 572.596 299.671 573.414 299.017C574.232 298.363 574.642 297.465 574.642 296.325C574.642 295.159 574.232 294.252 573.414 293.605C572.596 292.957 571.635 292.633 570.531 292.633C569.414 292.633 568.443 292.957 567.618 293.605ZM574.193 301.709H566.829V321.045H574.193V301.709ZM575.859 321.045V301.378H582.346L582.678 303.535C583.47 302.615 584.424 301.942 585.541 301.514C586.594 301.113 587.646 300.912 588.698 300.912H588.892C589.763 300.925 590.565 301.025 591.298 301.213C592.032 301.401 592.73 301.718 593.393 302.165C594.055 302.612 594.62 303.182 595.088 303.875C595.555 304.569 595.926 305.446 596.198 306.509C596.471 307.571 596.608 308.783 596.608 310.143V321.045H589.263V310.182C589.263 309.055 588.996 308.229 588.464 307.704C587.931 307.179 587.275 306.917 586.496 306.917C585.548 306.917 584.746 307.244 584.09 307.898C583.434 308.553 583.106 309.489 583.106 310.707V321.045H575.859ZM598 301.378V321.045H605.247V310.707C605.247 309.489 605.575 308.553 606.231 307.898C606.887 307.244 607.689 306.917 608.637 306.917C609.417 306.917 610.073 307.179 610.605 307.704C611.138 308.229 611.404 309.055 611.404 310.182V321.045H618.749V310.143C618.749 308.783 618.612 307.571 618.34 306.509C618.067 305.446 617.697 304.569 617.229 303.875C616.762 303.182 616.197 302.612 615.534 302.165C614.872 301.718 614.174 301.401 613.44 301.213C612.706 301.025 611.904 300.925 611.034 300.912H610.839C609.787 300.912 608.735 301.113 607.683 301.514C606.566 301.942 605.611 302.615 604.819 303.535L604.488 301.378H598ZM620.048 310.853C620.048 308.845 620.538 307.07 621.519 305.528C622.499 303.986 623.818 302.81 625.474 302.001C627.13 301.191 628.977 300.786 631.016 300.786C632.393 300.786 633.75 301.032 635.088 301.525L636.691 299.499C636.907 299.223 637.08 298.998 637.212 298.823L640.606 299.653L642.511 302.613L639.959 305.625C641.219 307.024 641.849 308.663 641.849 310.542V310.931C641.823 312.174 641.498 313.373 640.874 314.526C640.251 315.679 639.374 316.657 638.244 317.461C639.089 317.94 639.793 318.477 640.358 319.073C640.923 319.669 641.323 320.256 641.556 320.832C641.79 321.409 641.943 321.885 642.014 322.261C642.086 322.636 642.121 323.012 642.121 323.388C642.121 324.619 641.914 325.733 641.498 326.731C641.082 327.728 640.521 328.557 639.813 329.218C639.105 329.879 638.267 330.433 637.299 330.88C636.332 331.327 635.322 331.647 634.27 331.842C633.218 332.036 632.107 332.133 630.938 332.133C627.418 332.133 624.723 331.272 622.853 329.549C621.165 327.994 620.32 325.914 620.32 323.31C620.32 323.038 620.327 322.759 620.34 322.475H627.237V322.611C627.237 323.248 627.315 323.791 627.472 324.239L627.509 324.34C627.691 324.858 627.967 325.247 628.337 325.506C628.708 325.765 629.1 325.947 629.516 326.05C629.932 326.154 630.406 326.206 630.938 326.206C631.964 326.206 632.828 325.963 633.53 325.477C634.231 324.991 634.582 324.295 634.582 323.388C634.582 322.598 634.299 321.963 633.734 321.483C633.191 321.022 632.332 320.783 631.159 320.765L631.016 320.764C627.691 320.764 625.032 319.87 623.038 318.082C621.044 316.294 620.048 313.885 620.048 310.853ZM628.279 313.612C627.558 312.906 627.198 311.976 627.198 310.823C627.198 309.553 627.555 308.559 628.269 307.84C628.984 307.121 629.899 306.761 631.016 306.761C632.081 306.761 632.968 307.157 633.676 307.947C634.384 308.737 634.737 309.696 634.737 310.823C634.737 312.067 634.38 313.019 633.666 313.68C632.952 314.341 632.068 314.671 631.016 314.671C629.912 314.671 629 314.318 628.279 313.612ZM642.914 311.251C642.914 309.864 643.125 308.591 643.547 307.432C643.969 306.272 644.534 305.297 645.242 304.507C645.95 303.717 646.774 303.046 647.716 302.496C648.658 301.945 649.648 301.543 650.687 301.291C651.726 301.038 652.791 300.912 653.882 300.912C655.636 300.912 657.23 301.194 658.665 301.757C660.1 302.321 661.292 303.134 662.24 304.196C663.188 305.258 663.844 306.554 664.208 308.083C664.362 308.731 664.44 309.411 664.443 310.123L664.442 310.337C664.442 311.257 664.331 312.242 664.111 313.291H650.336C650.583 314.095 651.148 314.713 652.031 315.147C652.915 315.581 653.817 315.798 654.74 315.798C656.688 315.798 658.376 315.267 659.805 314.205L663.39 318.227C662.234 319.303 660.88 320.116 659.328 320.666C657.776 321.217 656.136 321.492 654.408 321.492C652.811 321.492 651.333 321.292 649.976 320.89C648.619 320.488 647.408 319.883 646.343 319.073C645.278 318.263 644.44 317.191 643.829 315.857C643.219 314.522 642.914 312.987 642.914 311.251ZM657.526 308.588H650.375C650.466 307.979 650.768 307.467 651.281 307.053C651.794 306.638 652.389 306.386 653.064 306.295C653.376 306.256 653.681 306.237 653.98 306.237C654.343 306.237 654.701 306.263 655.051 306.314C655.714 306.418 656.282 306.674 656.756 307.082C657.23 307.49 657.487 307.992 657.526 308.588ZM664.474 318.985L666.871 313.641C667.793 314.237 668.734 314.707 669.696 315.05C670.657 315.393 671.407 315.601 671.946 315.672C672.485 315.743 673.118 315.798 673.845 315.837C675.183 315.837 675.852 315.52 675.852 314.885C675.852 314.276 675.157 313.913 673.768 313.797C672.949 313.771 672.16 313.686 671.4 313.544C670.64 313.401 669.884 313.168 669.131 312.844C668.377 312.52 667.725 312.122 667.173 311.649C666.621 311.176 666.173 310.57 665.828 309.832C665.484 309.093 665.312 308.264 665.312 307.344C665.312 306.204 665.565 305.207 666.072 304.352C666.578 303.496 667.267 302.826 668.137 302.34C669.007 301.854 669.968 301.495 671.02 301.262C672.072 301.028 673.202 300.912 674.41 300.912C675.982 300.912 677.476 301.126 678.891 301.553C680.307 301.981 681.502 302.564 682.476 303.302L679.359 307.675C678.858 307.358 678.155 307.087 677.251 306.861L677.08 306.82C676.144 306.587 675.294 306.47 674.527 306.47H674.41C673.241 306.47 672.657 306.794 672.657 307.442C672.657 307.675 672.771 307.889 672.998 308.083C673.21 308.264 673.555 308.367 674.033 308.39L674.138 308.394C675.047 308.42 675.891 308.491 676.67 308.608C677.45 308.724 678.252 308.931 679.076 309.229C679.901 309.527 680.606 309.91 681.19 310.376C681.775 310.843 682.252 311.461 682.622 312.232C682.992 313.003 683.178 313.887 683.178 314.885C683.178 315.831 683.012 316.683 682.681 317.44C682.35 318.198 681.898 318.83 681.327 319.335C680.755 319.841 680.073 320.265 679.281 320.608C678.489 320.951 677.654 321.198 676.778 321.347C675.901 321.496 674.975 321.57 674.001 321.57C672.248 321.57 670.494 321.34 668.741 320.88C666.988 320.42 665.565 319.789 664.474 318.985ZM683.523 301.495V307.111H686.679V313.894C686.666 314.956 686.777 315.908 687.01 316.751C687.27 317.683 687.621 318.445 688.062 319.034C688.504 319.623 689.043 320.109 689.68 320.492C690.316 320.874 690.985 321.143 691.686 321.298C692.388 321.454 693.147 321.531 693.966 321.531C696.2 321.531 698.09 321.091 699.635 320.21L698.038 314.788C697.336 315.241 696.622 315.468 695.894 315.468C694.622 315.468 693.966 314.833 693.927 313.563V307.111H698.408V301.495H693.966V295.82L686.679 296.617V301.495H683.523Z" clip-rule="evenodd" fill-rule="evenodd"></path>
</g>
<defs>
<filter color-interpolation-filters="sRGB" filterUnits="userSpaceOnUse" height="166.141" width="148.219" y="74.2811" x="558.8" id="filter0_ddd_9739_151996">
<feFlood result="BackgroundImageFix" flood-opacity="0"></feFlood>
<feColorMatrix result="hardAlpha" values="0 0 0 0 0 0 0 0 0 0 0 0 0 0 0 0 0 0 127 0" type="matrix" in="SourceAlpha"></feColorMatrix>
<feOffset></feOffset>
<feGaussianBlur stdDeviation="12.4143"></feGaussianBlur>
<feColorMatrix values="0 0 0 0 0.0352941 0 0 0 0 0.0392157 0 0 0 0 0.0823529 0 0 0 1 0" type="matrix"></feColorMatrix>
<feBlend result="effect1_dropShadow_9739_151996" in2="BackgroundImageFix" mode="normal"></feBlend>
<feColorMatrix result="hardAlpha" values="0 0 0 0 0 0 0 0 0 0 0 0 0 0 0 0 0 0 127 0" type="matrix" in="SourceAlpha"></feColorMatrix>
<feOffset></feOffset>
<feGaussianBlur stdDeviation="9.78095"></feGaussianBlur>
<feColorMatrix values="0 0 0 0 0.0352941 0 0 0 0 0.0392157 0 0 0 0 0.0823529 0 0 0 0.05 0" type="matrix"></feColorMatrix>
<feBlend result="effect2_dropShadow_9739_151996" in2="effect1_dropShadow_9739_151996" mode="normal"></feBlend>
<feColorMatrix result="hardAlpha" values="0 0 0 0 0 0 0 0 0 0 0 0 0 0 0 0 0 0 127 0" type="matrix" in="SourceAlpha"></feColorMatrix>
<feOffset></feOffset>
<feGaussianBlur stdDeviation="17.3048"></feGaussianBlur>
<feComposite operator="out" in2="hardAlpha"></feComposite>
<feColorMatrix values="0 0 0 0 0.0352941 0 0 0 0 0.0392157 0 0 0 0 0.0823529 0 0 0 0.01 0" type="matrix"></feColorMatrix>
<feBlend result="effect3_dropShadow_9739_151996" in2="effect2_dropShadow_9739_151996" mode="normal"></feBlend>
<feBlend result="shape" in2="effect3_dropShadow_9739_151996" in="SourceGraphic" mode="normal"></feBlend>
</filter>
<filter color-interpolation-filters="sRGB" filterUnits="userSpaceOnUse" height="108.719" width="202.473" y="258.023" x="531.771" id="filter1_ddd_9739_151996">
<feFlood result="BackgroundImageFix" flood-opacity="0"></feFlood>
<feColorMatrix result="hardAlpha" values="0 0 0 0 0 0 0 0 0 0 0 0 0 0 0 0 0 0 127 0" type="matrix" in="SourceAlpha"></feColorMatrix>
<feOffset></feOffset>
<feGaussianBlur stdDeviation="12.4143"></feGaussianBlur>
<feColorMatrix values="0 0 0 0 0.0352941 0 0 0 0 0.0392157 0 0 0 0 0.0823529 0 0 0 1 0" type="matrix"></feColorMatrix>
<feBlend result="effect1_dropShadow_9739_151996" in2="BackgroundImageFix" mode="normal"></feBlend>
<feColorMatrix result="hardAlpha" values="0 0 0 0 0 0 0 0 0 0 0 0 0 0 0 0 0 0 127 0" type="matrix" in="SourceAlpha"></feColorMatrix>
<feOffset></feOffset>
<feGaussianBlur stdDeviation="9.78095"></feGaussianBlur>
<feColorMatrix values="0 0 0 0 0.0352941 0 0 0 0 0.0392157 0 0 0 0 0.0823529 0 0 0 0.05 0" type="matrix"></feColorMatrix>
<feBlend result="effect2_dropShadow_9739_151996" in2="effect1_dropShadow_9739_151996" mode="normal"></feBlend>
<feColorMatrix result="hardAlpha" values="0 0 0 0 0 0 0 0 0 0 0 0 0 0 0 0 0 0 127 0" type="matrix" in="SourceAlpha"></feColorMatrix>
<feOffset></feOffset>
<feGaussianBlur stdDeviation="17.3048"></feGaussianBlur>
<feComposite operator="out" in2="hardAlpha"></feComposite>
<feColorMatrix values="0 0 0 0 0.0352941 0 0 0 0 0.0392157 0 0 0 0 0.0823529 0 0 0 0.01 0" type="matrix"></feColorMatrix>
<feBlend result="effect3_dropShadow_9739_151996" in2="effect2_dropShadow_9739_151996" mode="normal"></feBlend>
<feBlend result="shape" in2="effect3_dropShadow_9739_151996" in="SourceGraphic" mode="normal"></feBlend>
</filter>
<linearGradient gradientUnits="userSpaceOnUse" y2="474" x2="422" y1="0" x1="422" id="paint0_linear_9739_151996">
<stop stop-color="#0B1A1E"></stop>
<stop stop-color="#0A0B16" offset="1"></stop>
</linearGradient>
</defs>
</svg>
