<svg xmlns="http://www.w3.org/2000/svg" fill="none" viewBox="0 0 844 474" height="474" width="844">
<rect fill="url(#paint0_linear_9905_188143)" height="474" width="844"></rect>
<rect stroke-width="2" stroke="#71E8DF" rx="20" height="40" width="300" y="88" x="53"></rect>
<path fill="#71E8DF" d="M74.3 102.382C75.092 102.382 75.788 102.544 76.388 102.868C76.988 103.192 77.45 103.654 77.774 104.254C78.11 104.842 78.278 105.52 78.278 106.288C78.278 107.044 78.104 107.71 77.756 108.286C77.42 108.862 76.94 109.312 76.316 109.636C75.704 109.948 74.996 110.104 74.192 110.104H71.636C71.576 110.104 71.546 110.134 71.546 110.194V114.784C71.546 114.844 71.522 114.898 71.474 114.946C71.438 114.982 71.39 115 71.33 115H69.224C69.164 115 69.11 114.982 69.062 114.946C69.026 114.898 69.008 114.844 69.008 114.784V102.598C69.008 102.538 69.026 102.49 69.062 102.454C69.11 102.406 69.164 102.382 69.224 102.382H74.3ZM73.922 108.07C74.474 108.07 74.918 107.914 75.254 107.602C75.59 107.278 75.758 106.858 75.758 106.342C75.758 105.814 75.59 105.388 75.254 105.064C74.918 104.74 74.474 104.578 73.922 104.578H71.636C71.576 104.578 71.546 104.608 71.546 104.668V107.98C71.546 108.04 71.576 108.07 71.636 108.07H73.922ZM86.7502 115C86.6302 115 86.5462 114.946 86.4982 114.838L84.2482 109.852C84.2242 109.804 84.1882 109.78 84.1402 109.78H82.4662C82.4062 109.78 82.3762 109.81 82.3762 109.87V114.784C82.3762 114.844 82.3522 114.898 82.3042 114.946C82.2682 114.982 82.2202 115 82.1602 115H80.0542C79.9942 115 79.9402 114.982 79.8922 114.946C79.8562 114.898 79.8382 114.844 79.8382 114.784V102.616C79.8382 102.556 79.8562 102.508 79.8922 102.472C79.9402 102.424 79.9942 102.4 80.0542 102.4H85.2022C85.9702 102.4 86.6422 102.556 87.2182 102.868C87.8062 103.18 88.2562 103.624 88.5682 104.2C88.8922 104.776 89.0542 105.442 89.0542 106.198C89.0542 107.014 88.8502 107.716 88.4422 108.304C88.0342 108.88 87.4642 109.288 86.7322 109.528C86.6722 109.552 86.6542 109.594 86.6782 109.654L89.1262 114.748C89.1502 114.796 89.1622 114.832 89.1622 114.856C89.1622 114.952 89.0962 115 88.9642 115H86.7502ZM82.4662 104.578C82.4062 104.578 82.3762 104.608 82.3762 104.668V107.746C82.3762 107.806 82.4062 107.836 82.4662 107.836H84.8242C85.3282 107.836 85.7362 107.686 86.0482 107.386C86.3722 107.086 86.5342 106.696 86.5342 106.216C86.5342 105.736 86.3722 105.346 86.0482 105.046C85.7362 104.734 85.3282 104.578 84.8242 104.578H82.4662ZM91.1109 115C91.0509 115 90.9969 114.982 90.9489 114.946C90.9129 114.898 90.8949 114.844 90.8949 114.784V102.616C90.8949 102.556 90.9129 102.508 90.9489 102.472C90.9969 102.424 91.0509 102.4 91.1109 102.4H93.2169C93.2769 102.4 93.3249 102.424 93.3609 102.472C93.4089 102.508 93.4329 102.556 93.4329 102.616V114.784C93.4329 114.844 93.4089 114.898 93.3609 114.946C93.3249 114.982 93.2769 115 93.2169 115H91.1109ZM99.9434 115.144C98.9834 115.144 98.1434 114.994 97.4234 114.694C96.7034 114.382 96.1454 113.944 95.7494 113.38C95.3654 112.804 95.1734 112.138 95.1734 111.382V110.986C95.1734 110.926 95.1914 110.878 95.2274 110.842C95.2754 110.794 95.3294 110.77 95.3894 110.77H97.4414C97.5014 110.77 97.5494 110.794 97.5854 110.842C97.6334 110.878 97.6574 110.926 97.6574 110.986V111.256C97.6574 111.736 97.8794 112.144 98.3234 112.48C98.7674 112.804 99.3674 112.966 100.123 112.966C100.759 112.966 101.233 112.834 101.545 112.57C101.857 112.294 102.013 111.958 102.013 111.562C102.013 111.274 101.917 111.034 101.725 110.842C101.533 110.638 101.269 110.464 100.933 110.32C100.609 110.164 100.087 109.954 99.3674 109.69C98.5634 109.414 97.8794 109.132 97.3154 108.844C96.7634 108.556 96.2954 108.166 95.9114 107.674C95.5394 107.17 95.3534 106.552 95.3534 105.82C95.3534 105.1 95.5394 104.47 95.9114 103.93C96.2834 103.39 96.7994 102.976 97.4594 102.688C98.1194 102.4 98.8814 102.256 99.7454 102.256C100.657 102.256 101.467 102.418 102.175 102.742C102.895 103.066 103.453 103.522 103.849 104.11C104.257 104.686 104.461 105.358 104.461 106.126V106.396C104.461 106.456 104.437 106.51 104.389 106.558C104.353 106.594 104.305 106.612 104.245 106.612H102.175C102.115 106.612 102.061 106.594 102.013 106.558C101.977 106.51 101.959 106.456 101.959 106.396V106.252C101.959 105.748 101.749 105.322 101.329 104.974C100.921 104.614 100.357 104.434 99.6374 104.434C99.0734 104.434 98.6294 104.554 98.3054 104.794C97.9934 105.034 97.8374 105.364 97.8374 105.784C97.8374 106.084 97.9274 106.336 98.1074 106.54C98.2994 106.744 98.5754 106.93 98.9354 107.098C99.3074 107.254 99.8774 107.47 100.645 107.746C101.497 108.058 102.163 108.334 102.643 108.574C103.135 108.814 103.573 109.174 103.957 109.654C104.353 110.122 104.551 110.734 104.551 111.49C104.551 112.618 104.137 113.512 103.309 114.172C102.481 114.82 101.359 115.144 99.9434 115.144ZM114.428 102.544C114.488 102.448 114.572 102.4 114.68 102.4H116.786C116.846 102.4 116.894 102.424 116.93 102.472C116.978 102.508 117.002 102.556 117.002 102.616V114.784C117.002 114.844 116.978 114.898 116.93 114.946C116.894 114.982 116.846 115 116.786 115H114.68C114.62 115 114.566 114.982 114.518 114.946C114.482 114.898 114.464 114.844 114.464 114.784V106.846C114.464 106.798 114.452 106.774 114.428 106.774C114.404 106.774 114.38 106.792 114.356 106.828L112.448 109.816C112.388 109.912 112.304 109.96 112.196 109.96H111.134C111.026 109.96 110.942 109.912 110.882 109.816L108.974 106.828C108.95 106.792 108.926 106.78 108.902 106.792C108.878 106.792 108.866 106.816 108.866 106.864V114.784C108.866 114.844 108.842 114.898 108.794 114.946C108.758 114.982 108.71 115 108.65 115H106.544C106.484 115 106.43 114.982 106.382 114.946C106.346 114.898 106.328 114.844 106.328 114.784V102.616C106.328 102.556 106.346 102.508 106.382 102.472C106.43 102.424 106.484 102.4 106.544 102.4H108.65C108.758 102.4 108.842 102.448 108.902 102.544L111.602 106.738C111.638 106.81 111.674 106.81 111.71 106.738L114.428 102.544ZM127.206 115C127.086 115 127.008 114.94 126.972 114.82L126.432 113.056C126.408 113.008 126.378 112.984 126.342 112.984H121.914C121.878 112.984 121.848 113.008 121.824 113.056L121.302 114.82C121.266 114.94 121.188 115 121.068 115H118.782C118.71 115 118.656 114.982 118.62 114.946C118.584 114.898 118.578 114.832 118.602 114.748L122.49 102.58C122.526 102.46 122.604 102.4 122.724 102.4H125.55C125.67 102.4 125.748 102.46 125.784 102.58L129.672 114.748C129.684 114.772 129.69 114.802 129.69 114.838C129.69 114.946 129.624 115 129.492 115H127.206ZM122.472 110.914C122.46 110.986 122.484 111.022 122.544 111.022H125.712C125.784 111.022 125.808 110.986 125.784 110.914L124.164 105.568C124.152 105.52 124.134 105.502 124.11 105.514C124.086 105.514 124.068 105.532 124.056 105.568L122.472 110.914ZM140.077 102.382C140.869 102.382 141.565 102.544 142.165 102.868C142.765 103.192 143.227 103.654 143.551 104.254C143.887 104.842 144.055 105.52 144.055 106.288C144.055 107.044 143.881 107.71 143.533 108.286C143.197 108.862 142.717 109.312 142.093 109.636C141.481 109.948 140.773 110.104 139.969 110.104H137.413C137.353 110.104 137.323 110.134 137.323 110.194V114.784C137.323 114.844 137.299 114.898 137.251 114.946C137.215 114.982 137.167 115 137.107 115H135.001C134.941 115 134.887 114.982 134.839 114.946C134.803 114.898 134.785 114.844 134.785 114.784V102.598C134.785 102.538 134.803 102.49 134.839 102.454C134.887 102.406 134.941 102.382 135.001 102.382H140.077ZM139.699 108.07C140.251 108.07 140.695 107.914 141.031 107.602C141.367 107.278 141.535 106.858 141.535 106.342C141.535 105.814 141.367 105.388 141.031 105.064C140.695 104.74 140.251 104.578 139.699 104.578H137.413C137.353 104.578 137.323 104.608 137.323 104.668V107.98C137.323 108.04 137.353 108.07 137.413 108.07H139.699ZM150.188 115.144C149.264 115.144 148.448 114.964 147.74 114.604C147.044 114.244 146.498 113.74 146.102 113.092C145.718 112.432 145.526 111.676 145.526 110.824V102.616C145.526 102.556 145.544 102.508 145.58 102.472C145.628 102.424 145.682 102.4 145.742 102.4H147.848C147.908 102.4 147.956 102.424 147.992 102.472C148.04 102.508 148.064 102.556 148.064 102.616V110.842C148.064 111.478 148.256 111.994 148.64 112.39C149.036 112.774 149.552 112.966 150.188 112.966C150.824 112.966 151.334 112.774 151.718 112.39C152.114 111.994 152.312 111.478 152.312 110.842V102.616C152.312 102.556 152.33 102.508 152.366 102.472C152.414 102.424 152.468 102.4 152.528 102.4H154.634C154.694 102.4 154.742 102.424 154.778 102.472C154.826 102.508 154.85 102.556 154.85 102.616V110.824C154.85 111.676 154.652 112.432 154.256 113.092C153.872 113.74 153.326 114.244 152.618 114.604C151.922 114.964 151.112 115.144 150.188 115.144ZM157.152 115C157.092 115 157.038 114.982 156.99 114.946C156.954 114.898 156.936 114.844 156.936 114.784V102.616C156.936 102.556 156.954 102.508 156.99 102.472C157.038 102.424 157.092 102.4 157.152 102.4H159.258C159.318 102.4 159.366 102.424 159.402 102.472C159.45 102.508 159.474 102.556 159.474 102.616V112.732C159.474 112.792 159.504 112.822 159.564 112.822H165.45C165.51 112.822 165.558 112.846 165.594 112.894C165.642 112.93 165.666 112.978 165.666 113.038V114.784C165.666 114.844 165.642 114.898 165.594 114.946C165.558 114.982 165.51 115 165.45 115H157.152ZM171.557 115.144C170.597 115.144 169.757 114.994 169.037 114.694C168.317 114.382 167.759 113.944 167.363 113.38C166.979 112.804 166.787 112.138 166.787 111.382V110.986C166.787 110.926 166.805 110.878 166.841 110.842C166.889 110.794 166.943 110.77 167.003 110.77H169.055C169.115 110.77 169.163 110.794 169.199 110.842C169.247 110.878 169.271 110.926 169.271 110.986V111.256C169.271 111.736 169.493 112.144 169.937 112.48C170.381 112.804 170.981 112.966 171.737 112.966C172.373 112.966 172.847 112.834 173.159 112.57C173.471 112.294 173.627 111.958 173.627 111.562C173.627 111.274 173.531 111.034 173.339 110.842C173.147 110.638 172.883 110.464 172.547 110.32C172.223 110.164 171.701 109.954 170.981 109.69C170.177 109.414 169.493 109.132 168.929 108.844C168.377 108.556 167.909 108.166 167.525 107.674C167.153 107.17 166.967 106.552 166.967 105.82C166.967 105.1 167.153 104.47 167.525 103.93C167.897 103.39 168.413 102.976 169.073 102.688C169.733 102.4 170.495 102.256 171.359 102.256C172.271 102.256 173.081 102.418 173.789 102.742C174.509 103.066 175.067 103.522 175.463 104.11C175.871 104.686 176.075 105.358 176.075 106.126V106.396C176.075 106.456 176.051 106.51 176.003 106.558C175.967 106.594 175.919 106.612 175.859 106.612H173.789C173.729 106.612 173.675 106.594 173.627 106.558C173.591 106.51 173.573 106.456 173.573 106.396V106.252C173.573 105.748 173.363 105.322 172.943 104.974C172.535 104.614 171.971 104.434 171.251 104.434C170.687 104.434 170.243 104.554 169.919 104.794C169.607 105.034 169.451 105.364 169.451 105.784C169.451 106.084 169.541 106.336 169.721 106.54C169.913 106.744 170.189 106.93 170.549 107.098C170.921 107.254 171.491 107.47 172.259 107.746C173.111 108.058 173.777 108.334 174.257 108.574C174.749 108.814 175.187 109.174 175.571 109.654C175.967 110.122 176.165 110.734 176.165 111.49C176.165 112.618 175.751 113.512 174.923 114.172C174.095 114.82 172.973 115.144 171.557 115.144ZM186.69 104.362C186.69 104.422 186.666 104.476 186.618 104.524C186.582 104.56 186.534 104.578 186.474 104.578H180.57C180.51 104.578 180.48 104.608 180.48 104.668V107.458C180.48 107.518 180.51 107.548 180.57 107.548H184.44C184.5 107.548 184.548 107.572 184.584 107.62C184.632 107.656 184.656 107.704 184.656 107.764V109.51C184.656 109.57 184.632 109.624 184.584 109.672C184.548 109.708 184.5 109.726 184.44 109.726H180.57C180.51 109.726 180.48 109.756 180.48 109.816V112.732C180.48 112.792 180.51 112.822 180.57 112.822H186.474C186.534 112.822 186.582 112.846 186.618 112.894C186.666 112.93 186.69 112.978 186.69 113.038V114.784C186.69 114.844 186.666 114.898 186.618 114.946C186.582 114.982 186.534 115 186.474 115H178.158C178.098 115 178.044 114.982 177.996 114.946C177.96 114.898 177.942 114.844 177.942 114.784V102.616C177.942 102.556 177.96 102.508 177.996 102.472C178.044 102.424 178.098 102.4 178.158 102.4H186.474C186.534 102.4 186.582 102.424 186.618 102.472C186.666 102.508 186.69 102.556 186.69 102.616V104.362ZM200.067 115C199.947 115 199.869 114.94 199.833 114.82L199.293 113.056C199.269 113.008 199.239 112.984 199.203 112.984H194.775C194.739 112.984 194.709 113.008 194.685 113.056L194.163 114.82C194.127 114.94 194.049 115 193.929 115H191.643C191.571 115 191.517 114.982 191.481 114.946C191.445 114.898 191.439 114.832 191.463 114.748L195.351 102.58C195.387 102.46 195.465 102.4 195.585 102.4H198.411C198.531 102.4 198.609 102.46 198.645 102.58L202.533 114.748C202.545 114.772 202.551 114.802 202.551 114.838C202.551 114.946 202.485 115 202.353 115H200.067ZM195.333 110.914C195.321 110.986 195.345 111.022 195.405 111.022H198.573C198.645 111.022 198.669 110.986 198.645 110.914L197.025 105.568C197.013 105.52 196.995 105.502 196.971 105.514C196.947 105.514 196.929 105.532 196.917 105.568L195.333 110.914ZM211.369 102.616C211.369 102.556 211.387 102.508 211.423 102.472C211.471 102.424 211.525 102.4 211.585 102.4H213.691C213.751 102.4 213.799 102.424 213.835 102.472C213.883 102.508 213.907 102.556 213.907 102.616V114.784C213.907 114.844 213.883 114.898 213.835 114.946C213.799 114.982 213.751 115 213.691 115H211.657C211.537 115 211.453 114.952 211.405 114.856L206.743 107.152C206.719 107.116 206.695 107.104 206.671 107.116C206.647 107.116 206.635 107.14 206.635 107.188L206.671 114.784C206.671 114.844 206.647 114.898 206.599 114.946C206.563 114.982 206.515 115 206.455 115H204.349C204.289 115 204.235 114.982 204.187 114.946C204.151 114.898 204.133 114.844 204.133 114.784V102.616C204.133 102.556 204.151 102.508 204.187 102.472C204.235 102.424 204.289 102.4 204.349 102.4H206.383C206.503 102.4 206.587 102.448 206.635 102.544L211.279 110.212C211.303 110.248 211.327 110.266 211.351 110.266C211.375 110.254 211.387 110.224 211.387 110.176L211.369 102.616ZM216.214 115C216.154 115 216.1 114.982 216.052 114.946C216.016 114.898 215.998 114.844 215.998 114.784V102.616C215.998 102.556 216.016 102.508 216.052 102.472C216.1 102.424 216.154 102.4 216.214 102.4H220.714C221.614 102.4 222.4 102.562 223.072 102.886C223.756 103.198 224.284 103.642 224.656 104.218C225.028 104.794 225.214 105.46 225.214 106.216V111.184C225.214 111.94 225.028 112.606 224.656 113.182C224.284 113.758 223.756 114.208 223.072 114.532C222.4 114.844 221.614 115 220.714 115H216.214ZM218.536 112.732C218.536 112.792 218.566 112.822 218.626 112.822H220.804C221.356 112.822 221.8 112.636 222.136 112.264C222.484 111.892 222.664 111.394 222.676 110.77V106.63C222.676 106.006 222.502 105.508 222.154 105.136C221.818 104.764 221.362 104.578 220.786 104.578H218.626C218.566 104.578 218.536 104.608 218.536 104.668V112.732ZM239.423 102.4C239.483 102.4 239.531 102.424 239.567 102.472C239.615 102.508 239.639 102.556 239.639 102.616V104.38C239.639 104.44 239.615 104.494 239.567 104.542C239.531 104.578 239.483 104.596 239.423 104.596H236.201C236.141 104.596 236.111 104.626 236.111 104.686V114.784C236.111 114.844 236.087 114.898 236.039 114.946C236.003 114.982 235.955 115 235.895 115H233.789C233.729 115 233.675 114.982 233.627 114.946C233.591 114.898 233.573 114.844 233.573 114.784V104.686C233.573 104.626 233.543 104.596 233.483 104.596H230.351C230.291 104.596 230.237 104.578 230.189 104.542C230.153 104.494 230.135 104.44 230.135 104.38V102.616C230.135 102.556 230.153 102.508 230.189 102.472C230.237 102.424 230.291 102.4 230.351 102.4H239.423ZM248.17 115C248.05 115 247.966 114.946 247.918 114.838L245.668 109.852C245.644 109.804 245.608 109.78 245.56 109.78H243.886C243.826 109.78 243.796 109.81 243.796 109.87V114.784C243.796 114.844 243.772 114.898 243.724 114.946C243.688 114.982 243.64 115 243.58 115H241.474C241.414 115 241.36 114.982 241.312 114.946C241.276 114.898 241.258 114.844 241.258 114.784V102.616C241.258 102.556 241.276 102.508 241.312 102.472C241.36 102.424 241.414 102.4 241.474 102.4H246.622C247.39 102.4 248.062 102.556 248.638 102.868C249.226 103.18 249.676 103.624 249.988 104.2C250.312 104.776 250.474 105.442 250.474 106.198C250.474 107.014 250.27 107.716 249.862 108.304C249.454 108.88 248.884 109.288 248.152 109.528C248.092 109.552 248.074 109.594 248.098 109.654L250.546 114.748C250.57 114.796 250.582 114.832 250.582 114.856C250.582 114.952 250.516 115 250.384 115H248.17ZM243.886 104.578C243.826 104.578 243.796 104.608 243.796 104.668V107.746C243.796 107.806 243.826 107.836 243.886 107.836H246.244C246.748 107.836 247.156 107.686 247.468 107.386C247.792 107.086 247.954 106.696 247.954 106.216C247.954 105.736 247.792 105.346 247.468 105.046C247.156 104.734 246.748 104.578 246.244 104.578H243.886ZM252.531 115C252.471 115 252.417 114.982 252.369 114.946C252.333 114.898 252.315 114.844 252.315 114.784V102.616C252.315 102.556 252.333 102.508 252.369 102.472C252.417 102.424 252.471 102.4 252.531 102.4H254.637C254.697 102.4 254.745 102.424 254.781 102.472C254.829 102.508 254.853 102.556 254.853 102.616V114.784C254.853 114.844 254.829 114.898 254.781 114.946C254.745 114.982 254.697 115 254.637 115H252.531ZM261.471 115.144C260.547 115.144 259.731 114.958 259.023 114.586C258.315 114.214 257.763 113.698 257.367 113.038C256.983 112.366 256.791 111.592 256.791 110.716V106.684C256.791 105.808 256.983 105.034 257.367 104.362C257.763 103.69 258.315 103.174 259.023 102.814C259.731 102.442 260.547 102.256 261.471 102.256C262.383 102.256 263.187 102.436 263.883 102.796C264.591 103.156 265.137 103.648 265.521 104.272C265.917 104.884 266.115 105.568 266.115 106.324V106.45C266.115 106.51 266.091 106.564 266.043 106.612C266.007 106.648 265.959 106.666 265.899 106.666H263.793C263.733 106.666 263.679 106.648 263.631 106.612C263.595 106.564 263.577 106.51 263.577 106.45V106.396C263.577 105.844 263.385 105.382 263.001 105.01C262.617 104.626 262.107 104.434 261.471 104.434C260.823 104.434 260.301 104.638 259.905 105.046C259.521 105.442 259.329 105.964 259.329 106.612V110.788C259.329 111.436 259.539 111.964 259.959 112.372C260.379 112.768 260.913 112.966 261.561 112.966C262.185 112.966 262.683 112.804 263.055 112.48C263.427 112.144 263.613 111.682 263.613 111.094V110.284C263.613 110.224 263.583 110.194 263.523 110.194H261.507C261.447 110.194 261.393 110.176 261.345 110.14C261.309 110.092 261.291 110.038 261.291 109.978V108.322C261.291 108.262 261.309 108.214 261.345 108.178C261.393 108.13 261.447 108.106 261.507 108.106H265.899C265.959 108.106 266.007 108.13 266.043 108.178C266.091 108.214 266.115 108.262 266.115 108.322V110.698C266.115 111.61 265.923 112.402 265.539 113.074C265.155 113.746 264.609 114.262 263.901 114.622C263.205 114.97 262.395 115.144 261.471 115.144ZM272.493 115.144C271.569 115.144 270.753 114.958 270.045 114.586C269.337 114.214 268.785 113.698 268.389 113.038C268.005 112.366 267.813 111.592 267.813 110.716V106.684C267.813 105.808 268.005 105.034 268.389 104.362C268.785 103.69 269.337 103.174 270.045 102.814C270.753 102.442 271.569 102.256 272.493 102.256C273.405 102.256 274.209 102.436 274.905 102.796C275.613 103.156 276.159 103.648 276.543 104.272C276.939 104.884 277.137 105.568 277.137 106.324V106.45C277.137 106.51 277.113 106.564 277.065 106.612C277.029 106.648 276.981 106.666 276.921 106.666H274.815C274.755 106.666 274.701 106.648 274.653 106.612C274.617 106.564 274.599 106.51 274.599 106.45V106.396C274.599 105.844 274.407 105.382 274.023 105.01C273.639 104.626 273.129 104.434 272.493 104.434C271.845 104.434 271.323 104.638 270.927 105.046C270.543 105.442 270.351 105.964 270.351 106.612V110.788C270.351 111.436 270.561 111.964 270.981 112.372C271.401 112.768 271.935 112.966 272.583 112.966C273.207 112.966 273.705 112.804 274.077 112.48C274.449 112.144 274.635 111.682 274.635 111.094V110.284C274.635 110.224 274.605 110.194 274.545 110.194H272.529C272.469 110.194 272.415 110.176 272.367 110.14C272.331 110.092 272.313 110.038 272.313 109.978V108.322C272.313 108.262 272.331 108.214 272.367 108.178C272.415 108.13 272.469 108.106 272.529 108.106H276.921C276.981 108.106 277.029 108.13 277.065 108.178C277.113 108.214 277.137 108.262 277.137 108.322V110.698C277.137 111.61 276.945 112.402 276.561 113.074C276.177 113.746 275.631 114.262 274.923 114.622C274.227 114.97 273.417 115.144 272.493 115.144ZM287.834 104.362C287.834 104.422 287.81 104.476 287.762 104.524C287.726 104.56 287.678 104.578 287.618 104.578H281.714C281.654 104.578 281.624 104.608 281.624 104.668V107.458C281.624 107.518 281.654 107.548 281.714 107.548H285.584C285.644 107.548 285.692 107.572 285.728 107.62C285.776 107.656 285.8 107.704 285.8 107.764V109.51C285.8 109.57 285.776 109.624 285.728 109.672C285.692 109.708 285.644 109.726 285.584 109.726H281.714C281.654 109.726 281.624 109.756 281.624 109.816V112.732C281.624 112.792 281.654 112.822 281.714 112.822H287.618C287.678 112.822 287.726 112.846 287.762 112.894C287.81 112.93 287.834 112.978 287.834 113.038V114.784C287.834 114.844 287.81 114.898 287.762 114.946C287.726 114.982 287.678 115 287.618 115H279.302C279.242 115 279.188 114.982 279.14 114.946C279.104 114.898 279.086 114.844 279.086 114.784V102.616C279.086 102.556 279.104 102.508 279.14 102.472C279.188 102.424 279.242 102.4 279.302 102.4H287.618C287.678 102.4 287.726 102.424 287.762 102.472C287.81 102.508 287.834 102.556 287.834 102.616V104.362ZM296.51 115C296.39 115 296.306 114.946 296.258 114.838L294.008 109.852C293.984 109.804 293.948 109.78 293.9 109.78H292.226C292.166 109.78 292.136 109.81 292.136 109.87V114.784C292.136 114.844 292.112 114.898 292.064 114.946C292.028 114.982 291.98 115 291.92 115H289.814C289.754 115 289.7 114.982 289.652 114.946C289.616 114.898 289.598 114.844 289.598 114.784V102.616C289.598 102.556 289.616 102.508 289.652 102.472C289.7 102.424 289.754 102.4 289.814 102.4H294.962C295.73 102.4 296.402 102.556 296.978 102.868C297.566 103.18 298.016 103.624 298.328 104.2C298.652 104.776 298.814 105.442 298.814 106.198C298.814 107.014 298.61 107.716 298.202 108.304C297.794 108.88 297.224 109.288 296.492 109.528C296.432 109.552 296.414 109.594 296.438 109.654L298.886 114.748C298.91 114.796 298.922 114.832 298.922 114.856C298.922 114.952 298.856 115 298.724 115H296.51ZM292.226 104.578C292.166 104.578 292.136 104.608 292.136 104.668V107.746C292.136 107.806 292.166 107.836 292.226 107.836H294.584C295.088 107.836 295.496 107.686 295.808 107.386C296.132 107.086 296.294 106.696 296.294 106.216C296.294 105.736 296.132 105.346 295.808 105.046C295.496 104.734 295.088 104.578 294.584 104.578H292.226ZM301.897 115.072C301.489 115.072 301.147 114.94 300.871 114.676C300.607 114.4 300.475 114.058 300.475 113.65C300.475 113.23 300.607 112.888 300.871 112.624C301.135 112.36 301.477 112.228 301.897 112.228C302.317 112.228 302.659 112.36 302.923 112.624C303.187 112.888 303.319 113.23 303.319 113.65C303.319 114.058 303.181 114.4 302.905 114.676C302.641 114.94 302.305 115.072 301.897 115.072ZM305.722 115C305.662 115 305.608 114.982 305.56 114.946C305.524 114.898 305.506 114.844 305.506 114.784V102.616C305.506 102.556 305.524 102.508 305.56 102.472C305.608 102.424 305.662 102.4 305.722 102.4H310.222C311.122 102.4 311.908 102.562 312.58 102.886C313.264 103.198 313.792 103.642 314.164 104.218C314.536 104.794 314.722 105.46 314.722 106.216V111.184C314.722 111.94 314.536 112.606 314.164 113.182C313.792 113.758 313.264 114.208 312.58 114.532C311.908 114.844 311.122 115 310.222 115H305.722ZM308.044 112.732C308.044 112.792 308.074 112.822 308.134 112.822H310.312C310.864 112.822 311.308 112.636 311.644 112.264C311.992 111.892 312.172 111.394 312.184 110.77V106.63C312.184 106.006 312.01 105.508 311.662 105.136C311.326 104.764 310.87 104.578 310.294 104.578H308.134C308.074 104.578 308.044 104.608 308.044 104.668V112.732ZM325.381 104.362C325.381 104.422 325.357 104.476 325.309 104.524C325.273 104.56 325.225 104.578 325.165 104.578H319.261C319.201 104.578 319.171 104.608 319.171 104.668V107.458C319.171 107.518 319.201 107.548 319.261 107.548H323.131C323.191 107.548 323.239 107.572 323.275 107.62C323.323 107.656 323.347 107.704 323.347 107.764V109.51C323.347 109.57 323.323 109.624 323.275 109.672C323.239 109.708 323.191 109.726 323.131 109.726H319.261C319.201 109.726 319.171 109.756 319.171 109.816V112.732C319.171 112.792 319.201 112.822 319.261 112.822H325.165C325.225 112.822 325.273 112.846 325.309 112.894C325.357 112.93 325.381 112.978 325.381 113.038V114.784C325.381 114.844 325.357 114.898 325.309 114.946C325.273 114.982 325.225 115 325.165 115H316.849C316.789 115 316.735 114.982 316.687 114.946C316.651 114.898 316.633 114.844 316.633 114.784V102.616C316.633 102.556 316.651 102.508 316.687 102.472C316.735 102.424 316.789 102.4 316.849 102.4H325.165C325.225 102.4 325.273 102.424 325.309 102.472C325.357 102.508 325.381 102.556 325.381 102.616V104.362ZM330.598 115C330.478 115 330.4 114.94 330.364 114.82L326.656 102.652L326.638 102.58C326.638 102.46 326.704 102.4 326.836 102.4H329.104C329.236 102.4 329.32 102.46 329.356 102.58L331.75 111.364C331.762 111.4 331.78 111.418 331.804 111.418C331.828 111.418 331.846 111.4 331.858 111.364L334.216 102.58C334.252 102.46 334.336 102.4 334.468 102.4H336.682C336.754 102.4 336.808 102.424 336.844 102.472C336.88 102.52 336.886 102.58 336.862 102.652L333.1 114.82C333.064 114.94 332.986 115 332.866 115H330.598Z"></path>
<path fill="white" d="M86.272 194.72C85.984 194.864 85.984 195.008 86.272 195.152C90.832 197.504 93.112 201.416 93.112 206.888C93.112 211.544 91.528 215.072 88.36 217.472C85.192 219.824 81.04 221 75.904 221H57.256C57.016 221 56.8 220.928 56.608 220.784C56.464 220.592 56.392 220.376 56.392 220.136V171.464C56.392 171.224 56.464 171.032 56.608 170.888C56.8 170.696 57.016 170.6 57.256 170.6H75.328C86.704 170.6 92.392 175.208 92.392 184.424C92.392 189.224 90.352 192.656 86.272 194.72ZM66.904 179.312C66.664 179.312 66.544 179.432 66.544 179.672V190.904C66.544 191.144 66.664 191.264 66.904 191.264H75.328C77.584 191.264 79.336 190.736 80.584 189.68C81.832 188.624 82.456 187.184 82.456 185.36C82.456 183.488 81.832 182.024 80.584 180.968C79.336 179.864 77.584 179.312 75.328 179.312H66.904ZM75.904 212.216C78.112 212.216 79.84 211.664 81.088 210.56C82.336 209.408 82.96 207.848 82.96 205.88C82.96 203.912 82.336 202.376 81.088 201.272C79.84 200.12 78.088 199.544 75.832 199.544H66.904C66.664 199.544 66.544 199.664 66.544 199.904V211.856C66.544 212.096 66.664 212.216 66.904 212.216H75.904ZM120.131 184.856C120.131 184.616 120.203 184.424 120.347 184.28C120.539 184.088 120.755 183.992 120.995 183.992H129.419C129.659 183.992 129.851 184.088 129.995 184.28C130.187 184.424 130.283 184.616 130.283 184.856V220.136C130.283 220.376 130.187 220.592 129.995 220.784C129.851 220.928 129.659 221 129.419 221H120.995C120.755 221 120.539 220.928 120.347 220.784C120.203 220.592 120.131 220.376 120.131 220.136V217.688C120.131 217.544 120.083 217.472 119.987 217.472C119.891 217.424 119.795 217.472 119.699 217.616C117.779 220.208 114.803 221.504 110.771 221.504C107.123 221.504 104.123 220.4 101.771 218.192C99.4186 215.984 98.2426 212.888 98.2426 208.904V184.856C98.2426 184.616 98.3146 184.424 98.4586 184.28C98.6506 184.088 98.8666 183.992 99.1066 183.992H107.459C107.699 183.992 107.891 184.088 108.035 184.28C108.227 184.424 108.323 184.616 108.323 184.856V206.384C108.323 208.304 108.827 209.864 109.835 211.064C110.891 212.264 112.331 212.864 114.155 212.864C115.787 212.864 117.131 212.384 118.187 211.424C119.243 210.416 119.891 209.12 120.131 207.536V184.856ZM141.797 179.816C140.165 179.816 138.797 179.288 137.693 178.232C136.637 177.128 136.109 175.76 136.109 174.128C136.109 172.448 136.637 171.08 137.693 170.024C138.749 168.968 140.117 168.44 141.797 168.44C143.477 168.44 144.845 168.968 145.901 170.024C146.957 171.08 147.485 172.448 147.485 174.128C147.485 175.76 146.933 177.128 145.829 178.232C144.773 179.288 143.429 179.816 141.797 179.816ZM137.477 221C137.237 221 137.021 220.928 136.829 220.784C136.685 220.592 136.613 220.376 136.613 220.136V184.784C136.613 184.544 136.685 184.352 136.829 184.208C137.021 184.016 137.237 183.92 137.477 183.92H145.901C146.141 183.92 146.333 184.016 146.477 184.208C146.669 184.352 146.765 184.544 146.765 184.784V220.136C146.765 220.376 146.669 220.592 146.477 220.784C146.333 220.928 146.141 221 145.901 221H137.477ZM154.101 221C153.861 221 153.645 220.928 153.453 220.784C153.309 220.592 153.237 220.376 153.237 220.136V171.464C153.237 171.224 153.309 171.032 153.453 170.888C153.645 170.696 153.861 170.6 154.101 170.6H162.525C162.765 170.6 162.957 170.696 163.101 170.888C163.293 171.032 163.389 171.224 163.389 171.464V220.136C163.389 220.376 163.293 220.592 163.101 220.784C162.957 220.928 162.765 221 162.525 221H154.101ZM192.343 171.464C192.343 171.224 192.415 171.032 192.559 170.888C192.751 170.696 192.967 170.6 193.207 170.6H201.631C201.871 170.6 202.063 170.696 202.207 170.888C202.399 171.032 202.495 171.224 202.495 171.464V220.136C202.495 220.376 202.399 220.592 202.207 220.784C202.063 220.928 201.871 221 201.631 221H193.207C192.967 221 192.751 220.928 192.559 220.784C192.415 220.592 192.343 220.376 192.343 220.136V217.76C192.343 217.616 192.295 217.544 192.199 217.544C192.103 217.496 192.007 217.52 191.911 217.616C189.895 220.256 187.135 221.576 183.631 221.576C180.271 221.576 177.367 220.64 174.919 218.768C172.519 216.896 170.791 214.328 169.735 211.064C168.919 208.568 168.511 205.664 168.511 202.352C168.511 198.944 168.943 195.968 169.807 193.424C170.911 190.352 172.639 187.928 174.991 186.152C177.391 184.328 180.343 183.416 183.847 183.416C187.303 183.416 189.991 184.616 191.911 187.016C192.007 187.16 192.103 187.208 192.199 187.16C192.295 187.112 192.343 187.016 192.343 186.872V171.464ZM190.831 209.768C191.791 207.992 192.271 205.568 192.271 202.496C192.271 199.28 191.743 196.76 190.687 194.936C189.583 193.064 187.975 192.128 185.863 192.128C183.607 192.128 181.903 193.064 180.751 194.936C179.551 196.808 178.951 199.352 178.951 202.568C178.951 205.448 179.455 207.848 180.463 209.768C181.663 211.832 183.439 212.864 185.791 212.864C187.951 212.864 189.631 211.832 190.831 209.768ZM236.45 183.416C239.57 183.416 242.354 183.968 244.802 185.072C247.25 186.128 249.146 187.592 250.49 189.464C251.882 191.336 252.578 193.424 252.578 195.728V220.136C252.578 220.376 252.482 220.592 252.29 220.784C252.146 220.928 251.954 221 251.714 221H243.29C243.05 221 242.834 220.928 242.642 220.784C242.498 220.592 242.426 220.376 242.426 220.136V217.76C242.426 217.616 242.378 217.52 242.282 217.472C242.186 217.424 242.09 217.472 241.994 217.616C239.978 220.256 236.738 221.576 232.274 221.576C228.53 221.576 225.506 220.664 223.202 218.84C220.898 217.016 219.746 214.328 219.746 210.776C219.746 207.08 221.042 204.224 223.634 202.208C226.226 200.144 229.922 199.112 234.722 199.112H242.066C242.306 199.112 242.426 198.992 242.426 198.752V197.168C242.426 195.584 241.946 194.36 240.986 193.496C240.026 192.584 238.586 192.128 236.666 192.128C235.178 192.128 233.93 192.392 232.922 192.92C231.962 193.448 231.338 194.192 231.05 195.152C230.906 195.68 230.594 195.92 230.114 195.872L221.402 194.72C220.826 194.624 220.562 194.408 220.61 194.072C220.802 192.056 221.594 190.232 222.986 188.6C224.426 186.968 226.298 185.696 228.602 184.784C230.954 183.872 233.57 183.416 236.45 183.416ZM235.01 214.016C237.074 214.016 238.826 213.464 240.266 212.36C241.706 211.256 242.426 209.84 242.426 208.112V205.52C242.426 205.28 242.306 205.16 242.066 205.16H236.882C234.722 205.16 233.018 205.568 231.77 206.384C230.57 207.2 229.97 208.352 229.97 209.84C229.97 211.136 230.426 212.168 231.338 212.936C232.25 213.656 233.474 214.016 235.01 214.016ZM281.559 221C281.079 221 280.767 220.76 280.623 220.28L269.103 184.928C269.055 184.832 269.031 184.712 269.031 184.568C269.031 184.136 269.295 183.92 269.823 183.92H279.111C279.639 183.92 279.975 184.16 280.119 184.64L286.023 206.456C286.071 206.6 286.143 206.672 286.239 206.672C286.335 206.672 286.407 206.6 286.455 206.456L292.359 184.64C292.503 184.16 292.839 183.92 293.367 183.92L302.655 184.064C302.943 184.064 303.159 184.16 303.303 184.352C303.447 184.496 303.471 184.736 303.375 185.072L291.927 220.28C291.783 220.76 291.471 221 290.991 221H281.559ZM312.701 179.816C311.069 179.816 309.701 179.288 308.597 178.232C307.541 177.128 307.013 175.76 307.013 174.128C307.013 172.448 307.541 171.08 308.597 170.024C309.653 168.968 311.021 168.44 312.701 168.44C314.381 168.44 315.749 168.968 316.805 170.024C317.861 171.08 318.389 172.448 318.389 174.128C318.389 175.76 317.837 177.128 316.733 178.232C315.677 179.288 314.333 179.816 312.701 179.816ZM308.381 221C308.141 221 307.925 220.928 307.733 220.784C307.589 220.592 307.517 220.376 307.517 220.136V184.784C307.517 184.544 307.589 184.352 307.733 184.208C307.925 184.016 308.141 183.92 308.381 183.92H316.805C317.045 183.92 317.237 184.016 317.381 184.208C317.573 184.352 317.669 184.544 317.669 184.784V220.136C317.669 220.376 317.573 220.592 317.381 220.784C317.237 220.928 317.045 221 316.805 221H308.381ZM347.109 171.464C347.109 171.224 347.181 171.032 347.325 170.888C347.517 170.696 347.733 170.6 347.973 170.6H356.397C356.637 170.6 356.829 170.696 356.973 170.888C357.165 171.032 357.261 171.224 357.261 171.464V220.136C357.261 220.376 357.165 220.592 356.973 220.784C356.829 220.928 356.637 221 356.397 221H347.973C347.733 221 347.517 220.928 347.325 220.784C347.181 220.592 347.109 220.376 347.109 220.136V217.76C347.109 217.616 347.061 217.544 346.965 217.544C346.869 217.496 346.773 217.52 346.677 217.616C344.661 220.256 341.901 221.576 338.397 221.576C335.037 221.576 332.133 220.64 329.685 218.768C327.285 216.896 325.557 214.328 324.501 211.064C323.685 208.568 323.277 205.664 323.277 202.352C323.277 198.944 323.709 195.968 324.573 193.424C325.677 190.352 327.405 187.928 329.757 186.152C332.157 184.328 335.109 183.416 338.613 183.416C342.069 183.416 344.757 184.616 346.677 187.016C346.773 187.16 346.869 187.208 346.965 187.16C347.061 187.112 347.109 187.016 347.109 186.872V171.464ZM345.597 209.768C346.557 207.992 347.037 205.568 347.037 202.496C347.037 199.28 346.509 196.76 345.453 194.936C344.349 193.064 342.741 192.128 340.629 192.128C338.373 192.128 336.669 193.064 335.517 194.936C334.317 196.808 333.717 199.352 333.717 202.568C333.717 205.448 334.221 207.848 335.229 209.768C336.429 211.832 338.205 212.864 340.557 212.864C342.717 212.864 344.397 211.832 345.597 209.768ZM396.242 198.68C396.53 200.504 396.626 202.544 396.53 204.8C396.482 205.376 396.17 205.664 395.594 205.664H373.346C373.058 205.664 372.962 205.784 373.058 206.024C373.202 206.984 373.466 207.944 373.85 208.904C375.098 211.592 377.642 212.936 381.482 212.936C384.554 212.888 386.978 211.64 388.754 209.192C388.946 208.904 389.162 208.76 389.402 208.76C389.546 208.76 389.714 208.856 389.906 209.048L395.09 214.16C395.33 214.4 395.45 214.616 395.45 214.808C395.45 214.904 395.354 215.096 395.162 215.384C393.578 217.352 391.538 218.888 389.042 219.992C386.546 221.048 383.81 221.576 380.834 221.576C376.706 221.576 373.202 220.64 370.322 218.768C367.49 216.896 365.45 214.28 364.202 210.92C363.194 208.52 362.69 205.376 362.69 201.488C362.69 198.848 363.05 196.52 363.77 194.504C364.874 191.096 366.794 188.384 369.53 186.368C372.314 184.352 375.602 183.344 379.394 183.344C384.194 183.344 388.034 184.736 390.914 187.52C393.842 190.304 395.618 194.024 396.242 198.68ZM379.466 192.128C376.442 192.128 374.45 193.544 373.49 196.376C373.298 197 373.13 197.768 372.986 198.68C372.986 198.92 373.106 199.04 373.346 199.04H385.802C386.09 199.04 386.186 198.92 386.09 198.68C385.85 197.288 385.73 196.616 385.73 196.664C385.298 195.224 384.53 194.12 383.426 193.352C382.37 192.536 381.05 192.128 379.466 192.128ZM417.691 221.576C413.659 221.576 410.203 220.52 407.323 218.408C404.443 216.296 402.475 213.416 401.419 209.768C400.747 207.512 400.411 205.064 400.411 202.424C400.411 199.592 400.747 197.048 401.419 194.792C402.523 191.24 404.515 188.456 407.395 186.44C410.275 184.424 413.731 183.416 417.763 183.416C421.699 183.416 425.059 184.424 427.843 186.44C430.627 188.408 432.595 191.168 433.747 194.72C434.515 197.12 434.899 199.64 434.899 202.28C434.899 204.872 434.563 207.296 433.891 209.552C432.835 213.296 430.867 216.248 427.987 218.408C425.155 220.52 421.723 221.576 417.691 221.576ZM417.691 212.864C419.275 212.864 420.619 212.384 421.723 211.424C422.827 210.464 423.619 209.144 424.099 207.464C424.483 205.928 424.675 204.248 424.675 202.424C424.675 200.408 424.483 198.704 424.099 197.312C423.571 195.68 422.755 194.408 421.651 193.496C420.547 192.584 419.203 192.128 417.619 192.128C415.987 192.128 414.619 192.584 413.515 193.496C412.459 194.408 411.691 195.68 411.211 197.312C410.827 198.464 410.635 200.168 410.635 202.424C410.635 204.584 410.803 206.264 411.139 207.464C411.619 209.144 412.411 210.464 413.515 211.424C414.667 212.384 416.059 212.864 417.691 212.864ZM88.792 272.928C89.656 275.376 90.088 278.256 90.088 281.568C90.088 284.88 89.632 287.88 88.72 290.568C87.616 293.64 85.864 296.088 83.464 297.912C81.112 299.688 78.184 300.576 74.68 300.576C71.224 300.576 68.536 299.376 66.616 296.976C66.52 296.832 66.424 296.784 66.328 296.832C66.232 296.88 66.184 296.976 66.184 297.12V312.528C66.184 312.768 66.088 312.96 65.896 313.104C65.752 313.296 65.56 313.392 65.32 313.392H56.896C56.656 313.392 56.44 313.296 56.248 313.104C56.104 312.96 56.032 312.768 56.032 312.528V263.856C56.032 263.616 56.104 263.424 56.248 263.28C56.44 263.088 56.656 262.992 56.896 262.992H65.32C65.56 262.992 65.752 263.088 65.896 263.28C66.088 263.424 66.184 263.616 66.184 263.856V266.232C66.184 266.376 66.232 266.472 66.328 266.52C66.424 266.52 66.52 266.472 66.616 266.376C68.632 263.736 71.416 262.416 74.968 262.416C78.28 262.416 81.136 263.352 83.536 265.224C85.984 267.048 87.736 269.616 88.792 272.928ZM77.776 289.056C78.976 287.184 79.576 284.64 79.576 281.424C79.576 278.4 79.072 276 78.064 274.224C76.96 272.16 75.184 271.128 72.736 271.128C70.528 271.128 68.872 272.16 67.768 274.224C66.76 275.952 66.256 278.376 66.256 281.496C66.256 284.712 66.784 287.208 67.84 288.984C68.944 290.904 70.576 291.864 72.736 291.864C74.896 291.864 76.576 290.928 77.776 289.056ZM113.658 262.488C115.386 262.488 116.754 262.824 117.762 263.496C118.146 263.688 118.29 264.048 118.194 264.576L116.682 272.784C116.634 273.36 116.298 273.528 115.674 273.288C114.954 273.048 114.114 272.928 113.154 272.928C112.77 272.928 112.242 272.976 111.57 273.072C109.842 273.216 108.378 273.864 107.178 275.016C105.978 276.12 105.378 277.608 105.378 279.48V299.136C105.378 299.376 105.282 299.592 105.09 299.784C104.946 299.928 104.754 300 104.514 300H96.0899C95.8499 300 95.6339 299.928 95.4419 299.784C95.2979 299.592 95.2259 299.376 95.2259 299.136V263.856C95.2259 263.616 95.2979 263.424 95.4419 263.28C95.6339 263.088 95.8499 262.992 96.0899 262.992H104.514C104.754 262.992 104.946 263.088 105.09 263.28C105.282 263.424 105.378 263.616 105.378 263.856V266.592C105.378 266.736 105.426 266.832 105.522 266.88C105.618 266.928 105.69 266.904 105.738 266.808C107.706 263.928 110.346 262.488 113.658 262.488ZM136.778 300.576C132.746 300.576 129.29 299.52 126.41 297.408C123.53 295.296 121.562 292.416 120.506 288.768C119.834 286.512 119.498 284.064 119.498 281.424C119.498 278.592 119.834 276.048 120.506 273.792C121.61 270.24 123.602 267.456 126.482 265.44C129.362 263.424 132.818 262.416 136.85 262.416C140.786 262.416 144.146 263.424 146.93 265.44C149.714 267.408 151.682 270.168 152.834 273.72C153.602 276.12 153.986 278.64 153.986 281.28C153.986 283.872 153.65 286.296 152.978 288.552C151.922 292.296 149.954 295.248 147.074 297.408C144.242 299.52 140.81 300.576 136.778 300.576ZM136.778 291.864C138.362 291.864 139.706 291.384 140.81 290.424C141.914 289.464 142.706 288.144 143.186 286.464C143.57 284.928 143.762 283.248 143.762 281.424C143.762 279.408 143.57 277.704 143.186 276.312C142.658 274.68 141.842 273.408 140.738 272.496C139.634 271.584 138.29 271.128 136.706 271.128C135.074 271.128 133.706 271.584 132.602 272.496C131.546 273.408 130.778 274.68 130.298 276.312C129.914 277.464 129.722 279.168 129.722 281.424C129.722 283.584 129.89 285.264 130.226 286.464C130.706 288.144 131.498 289.464 132.602 290.424C133.754 291.384 135.146 291.864 136.778 291.864ZM175.344 300.576C171.504 300.576 168.168 299.616 165.336 297.696C162.552 295.776 160.56 293.136 159.36 289.776C158.544 287.376 158.136 284.544 158.136 281.28C158.136 278.064 158.544 275.28 159.36 272.928C160.512 269.664 162.504 267.096 165.336 265.224C168.168 263.352 171.504 262.416 175.344 262.416C179.184 262.416 182.544 263.376 185.424 265.296C188.352 267.216 190.296 269.64 191.256 272.568C191.64 273.72 191.832 274.584 191.832 275.16V275.304C191.832 275.736 191.592 276 191.112 276.096L182.832 277.32H182.688C182.256 277.32 181.968 277.08 181.824 276.6L181.608 275.448C181.272 274.2 180.528 273.168 179.376 272.352C178.224 271.536 176.856 271.128 175.272 271.128C173.736 271.128 172.44 271.512 171.384 272.28C170.328 273.048 169.584 274.104 169.152 275.448C168.624 276.888 168.36 278.856 168.36 281.352C168.36 283.848 168.6 285.816 169.08 287.256C169.512 288.696 170.256 289.824 171.312 290.64C172.416 291.456 173.736 291.864 175.272 291.864C176.76 291.864 178.056 291.48 179.16 290.712C180.312 289.896 181.104 288.792 181.536 287.4C181.584 287.304 181.608 287.16 181.608 286.968C181.656 286.92 181.68 286.848 181.68 286.752C181.728 286.176 182.064 285.936 182.688 286.032L190.968 287.328C191.448 287.424 191.688 287.688 191.688 288.12C191.688 288.504 191.544 289.224 191.256 290.28C190.248 293.496 188.28 296.016 185.352 297.84C182.472 299.664 179.136 300.576 175.344 300.576ZM228.642 277.68C228.93 279.504 229.026 281.544 228.93 283.8C228.882 284.376 228.57 284.664 227.994 284.664H205.746C205.458 284.664 205.362 284.784 205.458 285.024C205.602 285.984 205.866 286.944 206.25 287.904C207.498 290.592 210.042 291.936 213.882 291.936C216.954 291.888 219.378 290.64 221.154 288.192C221.346 287.904 221.562 287.76 221.802 287.76C221.946 287.76 222.114 287.856 222.306 288.048L227.49 293.16C227.73 293.4 227.85 293.616 227.85 293.808C227.85 293.904 227.754 294.096 227.562 294.384C225.978 296.352 223.938 297.888 221.442 298.992C218.946 300.048 216.21 300.576 213.234 300.576C209.106 300.576 205.602 299.64 202.722 297.768C199.89 295.896 197.85 293.28 196.602 289.92C195.594 287.52 195.09 284.376 195.09 280.488C195.09 277.848 195.45 275.52 196.17 273.504C197.274 270.096 199.194 267.384 201.93 265.368C204.714 263.352 208.002 262.344 211.794 262.344C216.594 262.344 220.434 263.736 223.314 266.52C226.242 269.304 228.018 273.024 228.642 277.68ZM211.866 271.128C208.842 271.128 206.85 272.544 205.89 275.376C205.698 276 205.53 276.768 205.386 277.68C205.386 277.92 205.506 278.04 205.746 278.04H218.202C218.49 278.04 218.586 277.92 218.49 277.68C218.25 276.288 218.13 275.616 218.13 275.664C217.698 274.224 216.93 273.12 215.826 272.352C214.77 271.536 213.45 271.128 211.866 271.128ZM248.015 300.504C244.799 300.504 241.991 300.048 239.591 299.136C237.191 298.224 235.319 296.952 233.975 295.32C232.679 293.688 232.031 291.84 232.031 289.776V289.056C232.031 288.816 232.103 288.624 232.247 288.48C232.439 288.288 232.655 288.192 232.895 288.192H240.887C241.127 288.192 241.319 288.288 241.463 288.48C241.655 288.624 241.751 288.816 241.751 289.056V289.128C241.751 290.184 242.327 291.096 243.479 291.864C244.679 292.584 246.167 292.944 247.943 292.944C249.575 292.944 250.895 292.632 251.903 292.008C252.911 291.336 253.415 290.52 253.415 289.56C253.415 288.696 252.983 288.048 252.119 287.616C251.255 287.184 249.839 286.728 247.871 286.248C245.615 285.672 243.839 285.12 242.543 284.592C239.471 283.536 237.023 282.24 235.199 280.704C233.375 279.168 232.463 276.96 232.463 274.08C232.463 270.528 233.831 267.72 236.567 265.656C239.351 263.544 243.023 262.488 247.583 262.488C250.655 262.488 253.343 262.992 255.647 264C257.951 264.96 259.727 266.328 260.975 268.104C262.271 269.88 262.919 271.896 262.919 274.152C262.919 274.392 262.823 274.608 262.631 274.8C262.487 274.944 262.295 275.016 262.055 275.016H254.351C254.111 275.016 253.895 274.944 253.703 274.8C253.559 274.608 253.487 274.392 253.487 274.152C253.487 273.096 252.935 272.208 251.831 271.488C250.775 270.768 249.359 270.408 247.583 270.408C245.999 270.408 244.703 270.696 243.695 271.272C242.687 271.848 242.183 272.64 242.183 273.648C242.183 274.608 242.663 275.328 243.623 275.808C244.631 276.288 246.287 276.792 248.591 277.32C249.119 277.464 249.719 277.632 250.391 277.824C251.063 277.968 251.783 278.16 252.551 278.4C255.959 279.408 258.647 280.704 260.615 282.288C262.583 283.872 263.567 286.176 263.567 289.2C263.567 292.752 262.151 295.536 259.319 297.552C256.535 299.52 252.767 300.504 248.015 300.504ZM282.223 300.504C279.007 300.504 276.199 300.048 273.799 299.136C271.399 298.224 269.527 296.952 268.183 295.32C266.887 293.688 266.239 291.84 266.239 289.776V289.056C266.239 288.816 266.311 288.624 266.455 288.48C266.647 288.288 266.863 288.192 267.103 288.192H275.095C275.335 288.192 275.527 288.288 275.671 288.48C275.863 288.624 275.959 288.816 275.959 289.056V289.128C275.959 290.184 276.535 291.096 277.687 291.864C278.887 292.584 280.375 292.944 282.151 292.944C283.783 292.944 285.103 292.632 286.111 292.008C287.119 291.336 287.623 290.52 287.623 289.56C287.623 288.696 287.191 288.048 286.327 287.616C285.463 287.184 284.047 286.728 282.079 286.248C279.823 285.672 278.047 285.12 276.751 284.592C273.679 283.536 271.231 282.24 269.407 280.704C267.583 279.168 266.671 276.96 266.671 274.08C266.671 270.528 268.039 267.72 270.775 265.656C273.559 263.544 277.231 262.488 281.791 262.488C284.863 262.488 287.551 262.992 289.855 264C292.159 264.96 293.935 266.328 295.183 268.104C296.479 269.88 297.127 271.896 297.127 274.152C297.127 274.392 297.031 274.608 296.839 274.8C296.695 274.944 296.503 275.016 296.263 275.016H288.559C288.319 275.016 288.103 274.944 287.911 274.8C287.767 274.608 287.695 274.392 287.695 274.152C287.695 273.096 287.143 272.208 286.039 271.488C284.983 270.768 283.567 270.408 281.791 270.408C280.207 270.408 278.911 270.696 277.903 271.272C276.895 271.848 276.391 272.64 276.391 273.648C276.391 274.608 276.871 275.328 277.831 275.808C278.839 276.288 280.495 276.792 282.799 277.32C283.327 277.464 283.927 277.632 284.599 277.824C285.271 277.968 285.991 278.16 286.759 278.4C290.167 279.408 292.855 280.704 294.823 282.288C296.791 283.872 297.775 286.176 297.775 289.2C297.775 292.752 296.359 295.536 293.527 297.552C290.743 299.52 286.975 300.504 282.223 300.504ZM307.636 258.816C306.004 258.816 304.636 258.288 303.532 257.232C302.476 256.128 301.948 254.76 301.948 253.128C301.948 251.448 302.476 250.08 303.532 249.024C304.588 247.968 305.956 247.44 307.636 247.44C309.316 247.44 310.684 247.968 311.74 249.024C312.796 250.08 313.324 251.448 313.324 253.128C313.324 254.76 312.772 256.128 311.668 257.232C310.612 258.288 309.268 258.816 307.636 258.816ZM303.316 300C303.076 300 302.86 299.928 302.668 299.784C302.524 299.592 302.452 299.376 302.452 299.136V263.784C302.452 263.544 302.524 263.352 302.668 263.208C302.86 263.016 303.076 262.92 303.316 262.92H311.74C311.98 262.92 312.172 263.016 312.316 263.208C312.508 263.352 312.604 263.544 312.604 263.784V299.136C312.604 299.376 312.508 299.592 312.316 299.784C312.172 299.928 311.98 300 311.74 300H303.316ZM338.372 262.416C342.212 262.416 345.308 263.592 347.66 265.944C350.012 268.296 351.188 271.488 351.188 275.52V299.136C351.188 299.376 351.092 299.592 350.9 299.784C350.756 299.928 350.564 300 350.324 300H341.9C341.66 300 341.444 299.928 341.252 299.784C341.108 299.592 341.036 299.376 341.036 299.136V277.608C341.036 275.688 340.484 274.128 339.38 272.928C338.324 271.728 336.908 271.128 335.132 271.128C333.356 271.128 331.916 271.728 330.812 272.928C329.756 274.128 329.228 275.688 329.228 277.608V299.136C329.228 299.376 329.132 299.592 328.94 299.784C328.796 299.928 328.604 300 328.364 300H319.94C319.7 300 319.484 299.928 319.292 299.784C319.148 299.592 319.076 299.376 319.076 299.136V263.856C319.076 263.616 319.148 263.424 319.292 263.28C319.484 263.088 319.7 262.992 319.94 262.992H328.364C328.604 262.992 328.796 263.088 328.94 263.28C329.132 263.424 329.228 263.616 329.228 263.856V266.376C329.228 266.52 329.276 266.616 329.372 266.664C329.468 266.712 329.54 266.688 329.588 266.592C331.556 263.808 334.484 262.416 338.372 262.416ZM379.619 263.856C379.619 263.616 379.691 263.424 379.835 263.28C380.027 263.088 380.243 262.992 380.483 262.992H388.907C389.147 262.992 389.339 263.088 389.483 263.28C389.675 263.424 389.771 263.616 389.771 263.856V296.688C389.771 302.976 387.947 307.464 384.299 310.152C380.699 312.84 376.043 314.184 370.331 314.184C368.651 314.184 366.779 314.064 364.715 313.824C364.235 313.776 363.995 313.464 363.995 312.888L364.283 305.472C364.283 304.848 364.619 304.584 365.291 304.68C367.019 304.968 368.603 305.112 370.043 305.112C373.115 305.112 375.467 304.44 377.099 303.096C378.779 301.752 379.619 299.592 379.619 296.616C379.619 296.472 379.571 296.4 379.475 296.4C379.379 296.352 379.283 296.376 379.187 296.472C377.363 298.44 374.699 299.424 371.195 299.424C368.075 299.424 365.195 298.68 362.555 297.192C359.963 295.656 358.115 293.208 357.011 289.848C356.291 287.64 355.931 284.784 355.931 281.28C355.931 277.536 356.363 274.488 357.227 272.136C358.235 269.208 359.939 266.856 362.339 265.08C364.739 263.304 367.523 262.416 370.691 262.416C374.387 262.416 377.219 263.52 379.187 265.728C379.283 265.824 379.379 265.872 379.475 265.872C379.571 265.824 379.619 265.728 379.619 265.584V263.856ZM379.043 287.112C379.427 285.672 379.619 283.704 379.619 281.208C379.619 279.72 379.571 278.568 379.475 277.752C379.379 276.936 379.211 276.168 378.971 275.448C378.539 274.152 377.819 273.12 376.811 272.352C375.803 271.536 374.555 271.128 373.067 271.128C371.627 271.128 370.403 271.536 369.395 272.352C368.387 273.12 367.643 274.152 367.163 275.448C366.491 276.888 366.155 278.832 366.155 281.28C366.155 283.968 366.443 285.888 367.019 287.04C367.451 288.336 368.195 289.392 369.251 290.208C370.355 290.976 371.651 291.36 373.139 291.36C374.675 291.36 375.947 290.976 376.955 290.208C377.963 289.392 378.659 288.36 379.043 287.112ZM88.792 351.928C89.656 354.376 90.088 357.256 90.088 360.568C90.088 363.88 89.632 366.88 88.72 369.568C87.616 372.64 85.864 375.088 83.464 376.912C81.112 378.688 78.184 379.576 74.68 379.576C71.224 379.576 68.536 378.376 66.616 375.976C66.52 375.832 66.424 375.784 66.328 375.832C66.232 375.88 66.184 375.976 66.184 376.12V391.528C66.184 391.768 66.088 391.96 65.896 392.104C65.752 392.296 65.56 392.392 65.32 392.392H56.896C56.656 392.392 56.44 392.296 56.248 392.104C56.104 391.96 56.032 391.768 56.032 391.528V342.856C56.032 342.616 56.104 342.424 56.248 342.28C56.44 342.088 56.656 341.992 56.896 341.992H65.32C65.56 341.992 65.752 342.088 65.896 342.28C66.088 342.424 66.184 342.616 66.184 342.856V345.232C66.184 345.376 66.232 345.472 66.328 345.52C66.424 345.52 66.52 345.472 66.616 345.376C68.632 342.736 71.416 341.416 74.968 341.416C78.28 341.416 81.136 342.352 83.536 344.224C85.984 346.048 87.736 348.616 88.792 351.928ZM77.776 368.056C78.976 366.184 79.576 363.64 79.576 360.424C79.576 357.4 79.072 355 78.064 353.224C76.96 351.16 75.184 350.128 72.736 350.128C70.528 350.128 68.872 351.16 67.768 353.224C66.76 354.952 66.256 357.376 66.256 360.496C66.256 363.712 66.784 366.208 67.84 367.984C68.944 369.904 70.576 370.864 72.736 370.864C74.896 370.864 76.576 369.928 77.776 368.056ZM100.698 337.816C99.0659 337.816 97.6979 337.288 96.5939 336.232C95.5379 335.128 95.0099 333.76 95.0099 332.128C95.0099 330.448 95.5379 329.08 96.5939 328.024C97.6499 326.968 99.0179 326.44 100.698 326.44C102.378 326.44 103.746 326.968 104.802 328.024C105.858 329.08 106.386 330.448 106.386 332.128C106.386 333.76 105.834 335.128 104.73 336.232C103.674 337.288 102.33 337.816 100.698 337.816ZM96.3779 379C96.1379 379 95.9219 378.928 95.7299 378.784C95.5859 378.592 95.5139 378.376 95.5139 378.136V342.784C95.5139 342.544 95.5859 342.352 95.7299 342.208C95.9219 342.016 96.1379 341.92 96.3779 341.92H104.802C105.042 341.92 105.234 342.016 105.378 342.208C105.57 342.352 105.666 342.544 105.666 342.784V378.136C105.666 378.376 105.57 378.592 105.378 378.784C105.234 378.928 105.042 379 104.802 379H96.3779ZM145.185 351.928C146.049 354.376 146.481 357.256 146.481 360.568C146.481 363.88 146.025 366.88 145.113 369.568C144.009 372.64 142.257 375.088 139.857 376.912C137.505 378.688 134.577 379.576 131.073 379.576C127.617 379.576 124.929 378.376 123.009 375.976C122.913 375.832 122.817 375.784 122.721 375.832C122.625 375.88 122.577 375.976 122.577 376.12V391.528C122.577 391.768 122.481 391.96 122.289 392.104C122.145 392.296 121.953 392.392 121.713 392.392H113.289C113.049 392.392 112.833 392.296 112.641 392.104C112.497 391.96 112.425 391.768 112.425 391.528V342.856C112.425 342.616 112.497 342.424 112.641 342.28C112.833 342.088 113.049 341.992 113.289 341.992H121.713C121.953 341.992 122.145 342.088 122.289 342.28C122.481 342.424 122.577 342.616 122.577 342.856V345.232C122.577 345.376 122.625 345.472 122.721 345.52C122.817 345.52 122.913 345.472 123.009 345.376C125.025 342.736 127.809 341.416 131.361 341.416C134.673 341.416 137.529 342.352 139.929 344.224C142.377 346.048 144.129 348.616 145.185 351.928ZM134.169 368.056C135.369 366.184 135.969 363.64 135.969 360.424C135.969 357.4 135.465 355 134.457 353.224C133.353 351.16 131.577 350.128 129.129 350.128C126.921 350.128 125.265 351.16 124.161 353.224C123.153 354.952 122.649 357.376 122.649 360.496C122.649 363.712 123.177 366.208 124.233 367.984C125.337 369.904 126.969 370.864 129.129 370.864C131.289 370.864 132.969 369.928 134.169 368.056ZM184.168 356.68C184.456 358.504 184.552 360.544 184.456 362.8C184.408 363.376 184.096 363.664 183.52 363.664H161.272C160.984 363.664 160.888 363.784 160.984 364.024C161.128 364.984 161.392 365.944 161.776 366.904C163.024 369.592 165.568 370.936 169.408 370.936C172.48 370.888 174.904 369.64 176.68 367.192C176.872 366.904 177.088 366.76 177.328 366.76C177.472 366.76 177.64 366.856 177.832 367.048L183.016 372.16C183.256 372.4 183.376 372.616 183.376 372.808C183.376 372.904 183.28 373.096 183.088 373.384C181.504 375.352 179.464 376.888 176.968 377.992C174.472 379.048 171.736 379.576 168.76 379.576C164.632 379.576 161.128 378.64 158.248 376.768C155.416 374.896 153.376 372.28 152.128 368.92C151.12 366.52 150.616 363.376 150.616 359.488C150.616 356.848 150.976 354.52 151.696 352.504C152.8 349.096 154.72 346.384 157.456 344.368C160.24 342.352 163.528 341.344 167.32 341.344C172.12 341.344 175.96 342.736 178.84 345.52C181.768 348.304 183.544 352.024 184.168 356.68ZM167.392 350.128C164.368 350.128 162.376 351.544 161.416 354.376C161.224 355 161.056 355.768 160.912 356.68C160.912 356.92 161.032 357.04 161.272 357.04H173.728C174.016 357.04 174.112 356.92 174.016 356.68C173.776 355.288 173.656 354.616 173.656 354.664C173.224 353.224 172.456 352.12 171.352 351.352C170.296 350.536 168.976 350.128 167.392 350.128ZM190.137 379C189.897 379 189.681 378.928 189.489 378.784C189.345 378.592 189.273 378.376 189.273 378.136V329.464C189.273 329.224 189.345 329.032 189.489 328.888C189.681 328.696 189.897 328.6 190.137 328.6H198.561C198.801 328.6 198.993 328.696 199.137 328.888C199.329 329.032 199.425 329.224 199.425 329.464V378.136C199.425 378.376 199.329 378.592 199.137 378.784C198.993 378.928 198.801 379 198.561 379H190.137ZM210.883 337.816C209.251 337.816 207.883 337.288 206.779 336.232C205.723 335.128 205.195 333.76 205.195 332.128C205.195 330.448 205.723 329.08 206.779 328.024C207.835 326.968 209.203 326.44 210.883 326.44C212.563 326.44 213.931 326.968 214.987 328.024C216.043 329.08 216.571 330.448 216.571 332.128C216.571 333.76 216.019 335.128 214.915 336.232C213.859 337.288 212.515 337.816 210.883 337.816ZM206.563 379C206.323 379 206.107 378.928 205.915 378.784C205.771 378.592 205.699 378.376 205.699 378.136V342.784C205.699 342.544 205.771 342.352 205.915 342.208C206.107 342.016 206.323 341.92 206.563 341.92H214.987C215.227 341.92 215.419 342.016 215.563 342.208C215.755 342.352 215.851 342.544 215.851 342.784V378.136C215.851 378.376 215.755 378.592 215.563 378.784C215.419 378.928 215.227 379 214.987 379H206.563ZM241.619 341.416C245.459 341.416 248.555 342.592 250.907 344.944C253.259 347.296 254.435 350.488 254.435 354.52V378.136C254.435 378.376 254.339 378.592 254.147 378.784C254.003 378.928 253.811 379 253.571 379H245.147C244.907 379 244.691 378.928 244.499 378.784C244.355 378.592 244.283 378.376 244.283 378.136V356.608C244.283 354.688 243.731 353.128 242.627 351.928C241.571 350.728 240.155 350.128 238.379 350.128C236.603 350.128 235.163 350.728 234.059 351.928C233.003 353.128 232.475 354.688 232.475 356.608V378.136C232.475 378.376 232.379 378.592 232.187 378.784C232.043 378.928 231.851 379 231.611 379H223.187C222.947 379 222.731 378.928 222.539 378.784C222.395 378.592 222.323 378.376 222.323 378.136V342.856C222.323 342.616 222.395 342.424 222.539 342.28C222.731 342.088 222.947 341.992 223.187 341.992H231.611C231.851 341.992 232.043 342.088 232.187 342.28C232.379 342.424 232.475 342.616 232.475 342.856V345.376C232.475 345.52 232.523 345.616 232.619 345.664C232.715 345.712 232.787 345.688 232.835 345.592C234.803 342.808 237.731 341.416 241.619 341.416ZM292.807 356.68C293.095 358.504 293.191 360.544 293.095 362.8C293.047 363.376 292.735 363.664 292.159 363.664H269.911C269.623 363.664 269.527 363.784 269.623 364.024C269.767 364.984 270.031 365.944 270.415 366.904C271.663 369.592 274.207 370.936 278.047 370.936C281.119 370.888 283.543 369.64 285.319 367.192C285.511 366.904 285.727 366.76 285.967 366.76C286.111 366.76 286.279 366.856 286.471 367.048L291.655 372.16C291.895 372.4 292.015 372.616 292.015 372.808C292.015 372.904 291.919 373.096 291.727 373.384C290.143 375.352 288.103 376.888 285.607 377.992C283.111 379.048 280.375 379.576 277.399 379.576C273.271 379.576 269.767 378.64 266.887 376.768C264.055 374.896 262.015 372.28 260.767 368.92C259.759 366.52 259.255 363.376 259.255 359.488C259.255 356.848 259.615 354.52 260.335 352.504C261.439 349.096 263.359 346.384 266.095 344.368C268.879 342.352 272.167 341.344 275.959 341.344C280.759 341.344 284.599 342.736 287.479 345.52C290.407 348.304 292.183 352.024 292.807 356.68ZM276.031 350.128C273.007 350.128 271.015 351.544 270.055 354.376C269.863 355 269.695 355.768 269.551 356.68C269.551 356.92 269.671 357.04 269.911 357.04H282.367C282.655 357.04 282.751 356.92 282.655 356.68C282.415 355.288 282.295 354.616 282.295 354.664C281.863 353.224 281.095 352.12 279.991 351.352C278.935 350.536 277.615 350.128 276.031 350.128Z"></path>
<rect fill-opacity="0.2" fill="#0A2E34" transform="matrix(-1 0 0 1 732.381 29)" rx="12.0381" height="144.457" width="199.381"></rect>
<rect fill-opacity="0.2" fill="#0A2E34" transform="matrix(-1 0 0 1 732.381 40.4609)" rx="12.0381" height="144.457" width="199.381"></rect>
<rect fill-opacity="0.2" fill="#0A2E34" transform="matrix(-1 0 0 1 732.381 51.9141)" rx="12.0381" height="144.457" width="199.381"></rect>
<rect fill-opacity="0.2" fill="#0A2E34" transform="matrix(-1 0 0 1 732.381 63.375)" rx="12.0381" height="144.457" width="199.381"></rect>
<rect fill-opacity="0.2" fill="#0A2E34" transform="matrix(-1 0 0 1 732.381 74.8281)" rx="12.0381" height="144.457" width="199.381"></rect>
<rect stroke-width="0.752381" stroke="#71E8DF" fill="#090A15" transform="matrix(-1 0 0 1 731.629 86.2891)" rx="11.6619" height="143.705" width="198.629" y="0.376191" x="-0.376191"></rect>
<g filter="url(#filter0_ddd_9905_188143)">
<path fill="white" d="M594.121 170.308C593.158 171.878 593.173 173.859 594.159 175.415L612.005 203.566C613.164 205.393 615.396 206.226 617.468 205.605L668.968 190.155C671.778 189.312 673.192 186.177 671.964 183.512L638.857 111.696C637.243 108.194 632.376 107.907 630.36 111.195L594.121 170.308ZM637.978 128.114C637.274 126.486 634.891 126.737 634.542 128.476L621.796 191.939C621.528 193.278 622.781 194.42 624.088 194.03L659.67 183.408C660.709 183.098 661.244 181.951 660.814 180.956L637.978 128.114Z" clip-rule="evenodd" fill-rule="evenodd"></path>
</g>
<rect fill-opacity="0.2" fill="#0A2E34" transform="rotate(180 732.381 444.484)" rx="12.0381" height="144.457" width="199.381" y="444.484" x="732.381"></rect>
<rect fill-opacity="0.2" fill="#0A2E34" transform="rotate(180 732.381 433.023)" rx="12.0381" height="144.457" width="199.381" y="433.023" x="732.381"></rect>
<rect fill-opacity="0.2" fill="#0A2E34" transform="rotate(180 732.381 421.57)" rx="12.0381" height="144.457" width="199.381" y="421.57" x="732.381"></rect>
<rect fill-opacity="0.2" fill="#0A2E34" transform="rotate(180 732.381 410.109)" rx="12.0381" height="144.457" width="199.381" y="410.109" x="732.381"></rect>
<rect fill-opacity="0.2" fill="#0A2E34" transform="rotate(180 732.381 398.656)" rx="12.0381" height="144.457" width="199.381" y="398.656" x="732.381"></rect>
<rect stroke-width="0.752381" stroke="#71E8DF" fill="#090A15" transform="rotate(180 732.005 386.819)" rx="11.6619" height="143.705" width="198.629" y="386.819" x="732.005"></rect>
<g clip-path="url(#clip0_9905_188143)">
<path fill="url(#paint1_linear_9905_188143)" d="M593.107 300.594H579.939H580.459V304.184H584.893V319.632H588.646V304.184H593.107V300.594Z"></path>
<path fill="url(#paint2_linear_9905_188143)" d="M596.698 308.377V306.038H593.189V319.637H596.698V313.136C596.698 310.28 599.01 309.465 600.832 309.682V305.766C599.119 305.766 597.405 306.527 596.698 308.377Z"></path>
<path fill="url(#paint3_linear_9905_188143)" d="M604.586 304.403C605.783 304.403 606.762 303.423 606.762 302.254C606.762 301.084 605.783 300.078 604.586 300.078C603.417 300.078 602.437 301.084 602.437 302.254C602.437 303.423 603.417 304.403 604.586 304.403ZM602.845 319.633H606.354V306.034H602.845V319.633Z"></path>
<path fill="url(#paint4_linear_9905_188143)" d="M619.683 306.037V307.723C618.731 306.445 617.262 305.656 615.331 305.656C611.468 305.656 608.558 308.811 608.558 312.619C608.558 316.454 611.468 319.582 615.331 319.582C617.262 319.582 618.731 318.793 619.683 317.515V318.983C619.683 321.132 618.323 322.328 616.12 322.328C614.025 322.328 613.128 321.485 612.556 320.425L609.564 322.138C610.761 324.341 613.1 325.456 616.011 325.456C619.601 325.456 623.11 323.444 623.11 318.983V306.037H619.683ZM615.875 316.345C613.672 316.345 612.067 314.795 612.067 312.619C612.067 310.47 613.672 308.92 615.875 308.92C618.078 308.92 619.683 310.47 619.683 312.619C619.683 314.795 618.078 316.345 615.875 316.345Z"></path>
<path fill="url(#paint5_linear_9905_188143)" d="M636.412 306.037V307.723C635.46 306.445 633.991 305.656 632.06 305.656C628.197 305.656 625.287 308.811 625.287 312.619C625.287 316.454 628.197 319.582 632.06 319.582C633.991 319.582 635.46 318.793 636.412 317.515V318.983C636.412 321.132 635.052 322.328 632.849 322.328C630.754 322.328 629.856 321.485 629.285 320.425L626.293 322.138C627.49 324.341 629.829 325.456 632.74 325.456C636.33 325.456 639.839 323.444 639.839 318.983V306.037H636.412ZM632.604 316.345C630.4 316.345 628.796 314.795 628.796 312.619C628.796 310.47 630.4 308.92 632.604 308.92C634.807 308.92 636.412 310.47 636.412 312.619C636.412 314.795 634.807 316.345 632.604 316.345Z"></path>
<path fill="url(#paint6_linear_9905_188143)" d="M645.688 314.278H655.942C656.024 313.816 656.078 313.353 656.078 312.836C656.078 308.838 653.222 305.656 649.197 305.656C644.926 305.656 642.016 308.784 642.016 312.836C642.016 316.889 644.899 320.017 649.468 320.017C652.08 320.017 654.12 318.956 655.398 317.107L652.569 315.475C651.971 316.263 650.883 316.835 649.523 316.835C647.673 316.835 646.177 316.073 645.688 314.278ZM645.633 311.558C646.041 309.818 647.32 308.811 649.197 308.811C650.665 308.811 652.134 309.6 652.569 311.558H645.633Z"></path>
<path fill="url(#paint7_linear_9905_188143)" d="M661.669 308.377V306.038H658.16V319.637H661.669V313.136C661.669 310.28 663.981 309.465 665.803 309.682V305.766C664.089 305.766 662.376 306.527 661.669 308.377Z"></path>
<path fill="url(#paint8_linear_9905_188143)" d="M667.136 319.983C668.414 319.983 669.448 318.949 669.448 317.671C669.448 316.393 668.414 315.359 667.136 315.359C665.857 315.359 664.824 316.393 664.824 317.671C664.824 318.949 665.857 319.983 667.136 319.983Z"></path>
<path fill="url(#paint9_linear_9905_188143)" d="M681.879 300.594V307.638C680.9 306.387 679.458 305.653 677.472 305.653C673.827 305.653 670.835 308.78 670.835 312.833C670.835 316.885 673.827 320.013 677.472 320.013C679.458 320.013 680.9 319.279 681.879 318.028V319.632H685.388V300.594H681.879ZM678.125 316.668C675.949 316.668 674.344 315.117 674.344 312.833C674.344 310.548 675.949 308.998 678.125 308.998C680.274 308.998 681.879 310.548 681.879 312.833C681.879 315.117 680.274 316.668 678.125 316.668Z"></path>
<path fill="url(#paint10_linear_9905_188143)" d="M691.018 314.278H701.273C701.354 313.816 701.409 313.353 701.409 312.836C701.409 308.838 698.553 305.656 694.527 305.656C690.256 305.656 687.346 308.784 687.346 312.836C687.346 316.889 690.229 320.017 694.799 320.017C697.41 320.017 699.45 318.956 700.729 317.107L697.9 315.475C697.302 316.263 696.213 316.835 694.853 316.835C693.004 316.835 691.508 316.073 691.018 314.278ZM690.964 311.558C691.372 309.818 692.65 308.811 694.527 308.811C695.996 308.811 697.465 309.6 697.9 311.558H690.964Z"></path>
<path fill="url(#paint11_linear_9905_188143)" d="M711.99 306.031L708.672 315.55L705.38 306.031H701.518L706.686 319.63H710.685L715.853 306.031H711.99Z"></path>
<path fill="url(#paint12_linear_9905_188143)" d="M557.883 306.372L563.132 297.281L576.141 319.811H550.124L555.373 310.72L559.086 312.864L557.55 315.523H568.714L563.132 305.856L561.597 308.516L557.883 306.372Z" clip-rule="evenodd" fill-rule="evenodd"></path>
</g>
<defs>
<filter color-interpolation-filters="sRGB" filterUnits="userSpaceOnUse" height="166.141" width="148.219" y="74.2811" x="558.8" id="filter0_ddd_9905_188143">
<feFlood result="BackgroundImageFix" flood-opacity="0"></feFlood>
<feColorMatrix result="hardAlpha" values="0 0 0 0 0 0 0 0 0 0 0 0 0 0 0 0 0 0 127 0" type="matrix" in="SourceAlpha"></feColorMatrix>
<feOffset></feOffset>
<feGaussianBlur stdDeviation="12.4143"></feGaussianBlur>
<feColorMatrix values="0 0 0 0 0.0352941 0 0 0 0 0.0392157 0 0 0 0 0.0823529 0 0 0 1 0" type="matrix"></feColorMatrix>
<feBlend result="effect1_dropShadow_9905_188143" in2="BackgroundImageFix" mode="normal"></feBlend>
<feColorMatrix result="hardAlpha" values="0 0 0 0 0 0 0 0 0 0 0 0 0 0 0 0 0 0 127 0" type="matrix" in="SourceAlpha"></feColorMatrix>
<feOffset></feOffset>
<feGaussianBlur stdDeviation="9.78095"></feGaussianBlur>
<feColorMatrix values="0 0 0 0 0.0352941 0 0 0 0 0.0392157 0 0 0 0 0.0823529 0 0 0 0.05 0" type="matrix"></feColorMatrix>
<feBlend result="effect2_dropShadow_9905_188143" in2="effect1_dropShadow_9905_188143" mode="normal"></feBlend>
<feColorMatrix result="hardAlpha" values="0 0 0 0 0 0 0 0 0 0 0 0 0 0 0 0 0 0 127 0" type="matrix" in="SourceAlpha"></feColorMatrix>
<feOffset></feOffset>
<feGaussianBlur stdDeviation="17.3048"></feGaussianBlur>
<feComposite operator="out" in2="hardAlpha"></feComposite>
<feColorMatrix values="0 0 0 0 0.0352941 0 0 0 0 0.0392157 0 0 0 0 0.0823529 0 0 0 0.01 0" type="matrix"></feColorMatrix>
<feBlend result="effect3_dropShadow_9905_188143" in2="effect2_dropShadow_9905_188143" mode="normal"></feBlend>
<feBlend result="shape" in2="effect3_dropShadow_9905_188143" in="SourceGraphic" mode="normal"></feBlend>
</filter>
<linearGradient gradientUnits="userSpaceOnUse" y2="474" x2="422" y1="0" x1="422" id="paint0_linear_9905_188143">
<stop stop-color="#0B1A1E"></stop>
<stop stop-color="#0A0B16" offset="1"></stop>
</linearGradient>
<linearGradient gradientUnits="userSpaceOnUse" y2="300.077" x2="622.871" y1="330.171" x1="622.871" id="paint1_linear_9905_188143">
<stop stop-color="#41FF54"></stop>
<stop stop-color="#E7FF52" offset="1"></stop>
</linearGradient>
<linearGradient gradientUnits="userSpaceOnUse" y2="300.081" x2="622.871" y1="330.176" x1="622.871" id="paint2_linear_9905_188143">
<stop stop-color="#41FF54"></stop>
<stop stop-color="#E7FF52" offset="1"></stop>
</linearGradient>
<linearGradient gradientUnits="userSpaceOnUse" y2="300.078" x2="622.871" y1="330.172" x1="622.871" id="paint3_linear_9905_188143">
<stop stop-color="#41FF54"></stop>
<stop stop-color="#E7FF52" offset="1"></stop>
</linearGradient>
<linearGradient gradientUnits="userSpaceOnUse" y2="300.081" x2="622.871" y1="330.175" x1="622.871" id="paint4_linear_9905_188143">
<stop stop-color="#41FF54"></stop>
<stop stop-color="#E7FF52" offset="1"></stop>
</linearGradient>
<linearGradient gradientUnits="userSpaceOnUse" y2="300.081" x2="622.871" y1="330.175" x1="622.871" id="paint5_linear_9905_188143">
<stop stop-color="#41FF54"></stop>
<stop stop-color="#E7FF52" offset="1"></stop>
</linearGradient>
<linearGradient gradientUnits="userSpaceOnUse" y2="300.081" x2="622.871" y1="330.175" x1="622.871" id="paint6_linear_9905_188143">
<stop stop-color="#41FF54"></stop>
<stop stop-color="#E7FF52" offset="1"></stop>
</linearGradient>
<linearGradient gradientUnits="userSpaceOnUse" y2="300.081" x2="622.871" y1="330.176" x1="622.871" id="paint7_linear_9905_188143">
<stop stop-color="#41FF54"></stop>
<stop stop-color="#E7FF52" offset="1"></stop>
</linearGradient>
<linearGradient gradientUnits="userSpaceOnUse" y2="302.736" x2="693.992" y1="327.878" x1="690.338" id="paint8_linear_9905_188143">
<stop stop-color="#2563EB"></stop>
<stop stop-color="#A855F7" offset="1"></stop>
</linearGradient>
<linearGradient gradientUnits="userSpaceOnUse" y2="302.739" x2="693.993" y1="327.881" x1="690.338" id="paint9_linear_9905_188143">
<stop stop-color="#2563EB"></stop>
<stop stop-color="#A855F7" offset="1"></stop>
</linearGradient>
<linearGradient gradientUnits="userSpaceOnUse" y2="302.742" x2="693.992" y1="327.885" x1="690.338" id="paint10_linear_9905_188143">
<stop stop-color="#2563EB"></stop>
<stop stop-color="#A855F7" offset="1"></stop>
</linearGradient>
<linearGradient gradientUnits="userSpaceOnUse" y2="302.737" x2="693.993" y1="327.879" x1="690.338" id="paint11_linear_9905_188143">
<stop stop-color="#2563EB"></stop>
<stop stop-color="#A855F7" offset="1"></stop>
</linearGradient>
<linearGradient gradientUnits="userSpaceOnUse" y2="303.906" x2="570.946" y1="319.811" x1="571.189" id="paint12_linear_9905_188143">
<stop stop-color="#41FF54"></stop>
<stop stop-color="#E7FF52" offset="1"></stop>
</linearGradient>
<clipPath id="clip0_9905_188143">
<rect transform="translate(550 297)" fill="white" height="28.735" width="166"></rect>
</clipPath>
</defs>
</svg>
