<svg xmlns="http://www.w3.org/2000/svg" fill="none" viewBox="0 0 844 474" height="474" width="844"><g clip-path="url(#clip0_568_994)"><path d="M0 0h844v474H0z" fill="#1A202C"></path><g filter="url(#filter0_f_568_994)" opacity=".44"><ellipse fill-opacity=".94" fill="#08666C" transform="rotate(-100.709 591.763 286.934)" ry="294.982" rx="153.567" cy="286.934" cx="591.763"></ellipse></g><g fill="#25FFFF" opacity=".2"><path d="M719.756 107.623c-7.716 0-15.422-1.985-22.299-5.954l-68.19-39.3693c-6.681-3.8577-10.828-11.042-10.828-18.7574 0-7.7155 4.147-14.8998 10.828-18.7575l68.945-39.8071c13.754-7.939 30.843-7.939 44.606 0l68.19 39.3692c6.681 3.8577 10.828 11.042 10.828 18.7574 0 7.7154-4.147 14.8997-10.828 18.7574l-68.945 39.8073c-6.877 3.969-14.592 5.954-22.298 5.954h-.009zm.754-126.4191c-7.333 0-14.666 1.8916-21.208 5.6654l-68.945 39.8071c-6.01 3.4664-9.737 9.9332-9.737 16.8659 0 6.9326 3.727 13.3994 9.737 16.8658l68.19 39.3691c13.083 7.5568 29.334 7.5568 42.417 0l68.945-39.8071c6.01-3.4663 9.737-9.9331 9.737-16.8658 0-6.9327-3.727-13.3995-9.737-16.8658l-68.191-39.3692c-6.541-3.7738-13.874-5.6654-21.208-5.6654z"></path><path d="M453.465 211.489l-1.09-1.892 73.753-42.435c1.472-.848 2.395-2.432 2.395-4.137 0-1.705-.913-3.289-2.386-4.137l-15.16-8.759c-2.134-1.23-3.467-3.532-3.476-6.001-.009-2.469 1.305-4.78 3.429-6.029l63.233-37.179c6.933-4.0723 15.561-4.1096 22.522-.093l3.075 1.77c6.225 3.597 13.968 3.597 20.192 0l40.739-23.519 1.091 1.8916-40.739 23.5194c-6.905 3.988-15.478 3.988-22.373 0l-3.075-1.771c-6.281-3.6246-14.071-3.5967-20.332.084l-63.233 37.179c-1.463.858-2.367 2.442-2.358 4.138 0 1.696.923 3.27 2.386 4.118l15.16 8.75c2.153 1.239 3.485 3.55 3.485 6.029 0 2.478-1.342 4.789-3.485 6.029l-73.753 42.434v.01zM188.089 511.098c-3.839 0-7.679-.978-11.108-2.944l-70.137-40.124 1.081-1.892 70.137 40.124c6.206 3.55 13.912 3.541 20.109-.037L515.314 323.44c6.895-3.979 15.468-3.969 22.363 0l61.882 35.726c6.215 3.587 13.94 3.597 20.165.019l117.921-67.855c6.886-3.96 15.44-3.96 22.326 0l46.414 26.734-1.091 1.891-46.413-26.734c-6.215-3.578-13.931-3.578-20.146 0l-117.921 67.855c-6.896 3.97-15.459 3.96-22.345-.018l-61.882-35.726c-6.224-3.588-13.949-3.597-20.174 0L199.27 508.126c-3.447 1.984-7.305 2.982-11.172 2.982l-.009-.01zM854.772 291.075L667.579 183.441c-2.152-1.239-3.485-3.55-3.494-6.029 0-2.478 1.332-4.789 3.476-6.038l37.99-21.935c1.481-.857 2.395-2.441 2.385-4.146 0-1.706-.922-3.29-2.413-4.138L651.31 110.2c-2.181-1.248-3.522-3.578-3.513-6.084.019-2.507 1.388-4.8271 3.587-6.0478l22.01-12.1974 1.062 1.9102-22.009 12.1974c-1.51.8386-2.451 2.4226-2.46 4.1466-.01 1.724.913 3.327 2.413 4.184l54.213 30.955c2.162 1.23 3.504 3.541 3.513 6.029 0 2.487-1.323 4.798-3.476 6.047l-37.99 21.935c-1.472.848-2.395 2.441-2.385 4.146 0 1.706.922 3.29 2.395 4.138l187.192 107.634-1.09 1.891v-.009zM889.922 407.028c-7.716 0-15.422-1.985-22.299-5.954l-68.19-39.369c-6.681-3.858-10.828-11.042-10.828-18.758 0-7.715 4.147-14.9 10.828-18.757l68.945-39.807c13.754-7.94 30.843-7.94 44.606 0l68.19 39.369c6.681 3.857 10.828 11.042 10.828 18.757 0 7.716-4.147 14.9-10.828 18.758l-68.945 39.807c-6.877 3.969-14.592 5.954-22.298 5.954h-.009zm.754-126.419c-7.333 0-14.666 1.891-21.208 5.665l-68.945 39.807c-6.01 3.467-9.737 9.933-9.737 16.866s3.727 13.4 9.737 16.866l68.191 39.369c13.082 7.557 29.333 7.557 42.416 0l68.945-39.807c6.01-3.466 9.737-9.933 9.737-16.866s-3.727-13.399-9.737-16.866l-68.191-39.369c-6.541-3.774-13.874-5.665-21.208-5.665z"></path><path d="M589.731 507.357l-1.09-1.891 65.748-37.72c6.905-3.96 15.478-3.942 22.364.056l34.589 20.071c6.299 3.653 14.098 3.625 20.379-.065l35.753-21.05c1.463-.857 2.367-2.451 2.358-4.146-.009-1.696-.932-3.271-2.404-4.119l-23.072-13.232c-2.152-1.239-3.494-3.55-3.494-6.029 0-2.488 1.332-4.798 3.485-6.038l90.656-52.163 1.09 1.892-90.656 52.163c-1.482.848-2.395 2.441-2.395 4.146 0 1.706.923 3.29 2.404 4.138l23.072 13.231c2.143 1.23 3.485 3.532 3.494 6.001.01 2.47-1.304 4.79-3.429 6.038l-35.753 21.041c-6.952 4.09-15.599 4.118-22.578.065l-34.589-20.071c-6.215-3.606-13.949-3.625-20.183-.047l-65.749 37.72v.009z"></path></g><rect fill="url(#paint0_linear_568_994)" transform="matrix(1 0 0 -1 509.85 274.901)" rx="1.0865" height="203.538" width="2.173" opacity=".58"></rect><rect fill="url(#paint1_linear_568_994)" transform="matrix(1 0 0 -1 638.057 274.901)" rx="1.0865" height="203.538" width="2.173" opacity=".58"></rect><rect fill="url(#paint2_linear_568_994)" transform="matrix(1 0 0 -1 573.592 238.684)" rx="1.0865" height="203.538" width="2.173" opacity=".58"></rect><mask fill="#fff" id="a"><path d="M635.356 291.7l-49.798-28.749c-5.852-3.382-15.356-3.382-21.179 0L514.914 291.7c-5.816 3.383-5.78 8.881.072 12.263l49.791 28.749c5.853 3.383 15.349 3.383 21.165 0l49.472-28.749c5.824-3.382 5.788-8.88-.065-12.263"></path></mask><path mask="url(#a)" fill="#0FF" d="M585.558 262.951l-.725 1.255h.001l.724-1.255zm-21.179 0l-.728-1.252.728 1.252zM514.914 291.7l-.728-1.252.728 1.252zm.072 12.263l-.725 1.254.001.001.724-1.255zm49.791 28.749l.725-1.254v-.001l-.725 1.255zm21.165 0l-.728-1.253v.001l.728 1.252zm49.472-28.749l-.727-1.253-.001.001.728 1.252zm.667-13.517l-49.798-28.749-1.449 2.509 49.798 28.749 1.449-2.509zm-49.798-28.749c-3.198-1.849-7.303-2.731-11.325-2.731-4.022 0-8.121.882-11.307 2.733l1.455 2.505c2.638-1.532 6.203-2.341 9.852-2.341 3.648 0 7.221.809 9.875 2.343l1.45-2.509zm-22.632.002l-49.465 28.749 1.456 2.505 49.465-28.749-1.456-2.505zm-49.465 28.749c-3.177 1.848-5.078 4.474-5.06 7.393.017 2.913 1.945 5.532 5.135 7.376l1.45-2.508c-2.662-1.539-3.679-3.36-3.688-4.886-.009-1.522.98-3.336 3.619-4.871l-1.456-2.504zm.076 14.77l49.791 28.749 1.449-2.51-49.791-28.748-1.449 2.509zm49.79 28.748c3.199 1.849 7.302 2.732 11.321 2.732 4.02 0 8.115-.883 11.298-2.734l-1.457-2.504c-2.634 1.532-6.195 2.34-9.841 2.34-3.645 0-7.217-.808-9.871-2.342l-1.45 2.508zm22.618-.001l49.472-28.749-1.456-2.505-49.472 28.748 1.456 2.506zm49.472-28.749c3.18-1.847 5.084-4.474 5.067-7.393-.017-2.914-1.945-5.533-5.135-7.377l-1.45 2.508c2.662 1.539 3.679 3.36 3.688 4.886.008 1.521-.982 3.335-3.625 4.87l1.455 2.506z"></path><path fill="#25FFFF" d="M640.202 260.38c-.002-2.224-1.47-4.447-4.402-6.143l-50.129-28.942c-5.87-3.395-15.414-3.395-21.284 0l-50.129 28.942c-2.877 1.663-4.344 3.835-4.401 6.016l-.007.002v26.926c0 2.23 1.475 4.443 4.394 6.149l50.129 28.942c5.87 3.395 15.414 3.395 21.284 0l50.129-28.942c2.886-1.673 4.362-3.854 4.394-6.035V287l.033.017v-25.063c.003-.1.003-.201 0-.302v-1.266l-.011-.006z" clip-rule="evenodd" fill-rule="evenodd" opacity=".2"></path><path fill="#4381DD" d="M640.202 260.38c-.002-2.224-1.47-4.447-4.402-6.143l-50.129-28.942c-5.87-3.395-15.414-3.395-21.284 0l-50.129 28.942c-2.877 1.663-4.344 3.835-4.401 6.016l-.007.002v11.643c0 2.23 1.475 4.444 4.394 6.149l50.129 28.942c2.94 1.7 6.801 2.549 10.661 2.546v.045c3.854 0 7.707-.852 10.642-2.541l50.129-28.943c2.886-1.672 4.362-3.853 4.394-6.034v-.326l.014.014v-9.796c.003-.1.003-.201 0-.302v-1.266l-.011-.006zm-18.225 5.78l-43.537 25.136c-1.886 1.083-4.936 1.083-6.822 0l-43.533-25.134 43.535-25.142c1.886-1.082 4.936-1.082 6.822 0l43.535 25.14z" clip-rule="evenodd" fill-rule="evenodd"></path><path fill="#C1C0F7" d="M514.258 266.536l50.129 28.942c5.87 3.394 15.414 3.394 21.284 0l50.129-28.942c5.87-3.395 5.87-8.905 0-12.299l-50.129-28.942c-5.87-3.395-15.414-3.395-21.284 0l-50.129 28.942c-5.87 3.394-5.87 8.904 0 12.299zm57.36-37.06c1.886-1.082 4.936-1.082 6.822 0l50.128 28.943c1.886 1.082 1.886 2.853 0 3.935l-50.128 28.942c-1.886 1.083-4.936 1.083-6.822 0l-50.128-28.942c-1.886-1.082-1.886-2.853 0-3.935l50.128-28.943z" clip-rule="evenodd" fill-rule="evenodd"></path><path fill="#25FFFF" d="M578.442 229.476c-1.885-1.082-4.935-1.082-6.821 0l-50.129 28.943c-1.885 1.082-1.885 2.853 0 3.935l50.129 28.942c1.886 1.083 4.936 1.083 6.821 0l50.129-28.942c1.886-1.082 1.886-2.853 0-3.935l-50.129-28.943z" opacity=".65"></path><mask fill="#fff" id="b"><path d="M635.356 235.202l-49.798-28.749c-5.852-3.382-15.356-3.382-21.179 0l-49.465 28.749c-5.816 3.383-5.78 8.88.072 12.263l49.791 28.749c5.853 3.383 15.349 3.383 21.165 0l49.472-28.749c5.824-3.383 5.788-8.88-.065-12.263"></path></mask><path mask="url(#b)" fill="#0FF" d="M585.558 206.453l-.725 1.255h.001l.724-1.255zm-21.179 0l-.728-1.252.728 1.252zm-49.465 28.749l-.728-1.252.728 1.252zm.072 12.263l-.725 1.254.001.001.724-1.255zm49.791 28.749l.725-1.254v-.001l-.725 1.255zm21.165 0l-.728-1.253v.001l.728 1.252zm49.472-28.749l-.727-1.253-.001.001.728 1.252zm.667-13.518l-49.798-28.748-1.449 2.509 49.798 28.749 1.449-2.51zm-49.798-28.748c-3.198-1.849-7.303-2.731-11.325-2.731-4.022 0-8.121.882-11.307 2.733l1.455 2.505c2.638-1.532 6.203-2.341 9.852-2.341 3.648 0 7.221.809 9.875 2.343l1.45-2.509zm-22.632.002l-49.465 28.749 1.456 2.505 49.465-28.749-1.456-2.505zm-49.465 28.749c-3.177 1.847-5.078 4.474-5.06 7.392.017 2.914 1.945 5.533 5.135 7.377l1.45-2.508c-2.662-1.539-3.679-3.36-3.688-4.886-.009-1.522.98-3.336 3.619-4.871l-1.456-2.504zm.076 14.77l49.791 28.748 1.449-2.509-49.791-28.748-1.449 2.509zm49.79 28.748c3.199 1.849 7.302 2.732 11.321 2.732 4.02 0 8.115-.883 11.298-2.734l-1.457-2.504c-2.634 1.532-6.195 2.34-9.841 2.34-3.645 0-7.217-.808-9.871-2.342l-1.45 2.508zm22.618-.002l49.472-28.748-1.456-2.505-49.472 28.748 1.456 2.505zm49.472-28.748c3.18-1.848 5.084-4.474 5.067-7.393-.017-2.914-1.945-5.533-5.135-7.377l-1.45 2.508c2.662 1.539 3.679 3.36 3.688 4.886.008 1.521-.982 3.335-3.625 4.87l1.455 2.506z"></path><path fill="#25FFFF" d="M640.202 203.882c-.002-2.224-1.47-4.447-4.402-6.143l-50.129-28.942c-5.87-3.395-15.414-3.395-21.284 0l-50.129 28.942c-2.877 1.663-4.344 3.835-4.401 6.016l-.007.002v26.925c0 2.231 1.475 4.444 4.394 6.15l50.129 28.942c5.87 3.394 15.414 3.394 21.284 0l50.129-28.942c2.886-1.673 4.362-3.854 4.394-6.035v-.295l.033.017v-25.063c.003-.1.003-.201 0-.302v-1.266l-.011-.006z" clip-rule="evenodd" fill-rule="evenodd" opacity=".2"></path><path fill="#4381DD" d="M640.202 203.882c-.002-2.224-1.47-4.447-4.402-6.143l-50.129-28.942c-5.87-3.395-15.414-3.395-21.284 0l-50.129 28.942c-2.877 1.663-4.344 3.835-4.401 6.016l-.007.002V215.4c0 2.23 1.475 4.443 4.394 6.149l50.129 28.942c2.94 1.7 6.801 2.549 10.661 2.546v.045c3.854 0 7.707-.853 10.642-2.542l50.129-28.942c2.886-1.673 4.362-3.853 4.394-6.034v-.326l.014.014v-9.796c.003-.1.003-.201 0-.302v-1.266l-.011-.006zm-18.225 5.78l-43.537 25.136c-1.886 1.083-4.936 1.083-6.822 0l-43.533-25.134 43.535-25.142c1.886-1.082 4.936-1.082 6.822 0l43.535 25.14z" clip-rule="evenodd" fill-rule="evenodd"></path><path fill="#C1C0F7" d="M514.258 210.037l50.129 28.943c5.87 3.394 15.414 3.394 21.284 0l50.129-28.943c5.87-3.394 5.87-8.904 0-12.298l-50.129-28.942c-5.87-3.395-15.414-3.395-21.284 0l-50.129 28.942c-5.87 3.394-5.87 8.904 0 12.298zm57.36-37.059c1.886-1.082 4.936-1.082 6.822 0l50.128 28.942c1.886 1.083 1.886 2.854 0 3.936l-50.128 28.942c-1.886 1.083-4.936 1.083-6.822 0l-50.128-28.942c-1.886-1.082-1.886-2.853 0-3.936l50.128-28.942z" clip-rule="evenodd" fill-rule="evenodd"></path><path fill="#25FFFF" d="M578.442 172.978c-1.885-1.082-4.935-1.082-6.821 0l-50.129 28.942c-1.885 1.083-1.885 2.854 0 3.936l50.129 28.942c1.886 1.083 4.936 1.083 6.821 0l50.129-28.942c1.886-1.082 1.886-2.853 0-3.936l-50.129-28.942z" opacity=".65"></path><mask fill="#fff" id="c"><path d="M635.356 178.704l-49.798-28.749c-5.852-3.382-15.356-3.382-21.179 0l-49.465 28.749c-5.816 3.383-5.78 8.88.072 12.263l49.791 28.749c5.853 3.382 15.349 3.382 21.165 0l49.472-28.749c5.824-3.383 5.788-8.88-.065-12.263"></path></mask><path mask="url(#c)" fill="#0FF" d="M585.558 149.955l-.725 1.254.001.001.724-1.255zm-21.179 0l-.728-1.253v.001l.728 1.252zm-49.465 28.749l-.728-1.252.728 1.252zm.072 12.263l-.725 1.254.001.001.724-1.255zm49.791 28.749l.725-1.254v-.001l-.725 1.255zm21.165 0l-.728-1.253v.001l.728 1.252zm49.472-28.749l-.727-1.253h-.001l.728 1.253zm.667-13.518l-49.798-28.748-1.449 2.509 49.798 28.749 1.449-2.51zm-49.798-28.748c-3.198-1.849-7.303-2.731-11.325-2.731-4.022 0-8.121.882-11.307 2.732l1.455 2.506c2.638-1.532 6.203-2.341 9.852-2.341 3.648 0 7.221.809 9.875 2.342l1.45-2.508zm-22.632.002l-49.465 28.749 1.456 2.505 49.465-28.749-1.456-2.505zm-49.465 28.749c-3.177 1.847-5.078 4.474-5.06 7.392.017 2.914 1.945 5.533 5.135 7.377l1.45-2.508c-2.662-1.539-3.679-3.36-3.688-4.886-.009-1.522.98-3.336 3.619-4.871l-1.456-2.504zm.076 14.77l49.791 28.748 1.449-2.509-49.791-28.749-1.449 2.51zm49.79 28.748c3.199 1.849 7.302 2.731 11.321 2.731 4.02 0 8.115-.882 11.298-2.733l-1.457-2.504c-2.634 1.531-6.195 2.34-9.841 2.34-3.645 0-7.217-.808-9.871-2.342l-1.45 2.508zm22.618-.002l49.472-28.748-1.456-2.506-49.472 28.749 1.456 2.505zm49.472-28.748c3.18-1.848 5.084-4.474 5.067-7.393-.017-2.914-1.945-5.533-5.135-7.377l-1.45 2.508c2.662 1.539 3.679 3.36 3.688 4.886.008 1.521-.982 3.335-3.625 4.87l1.455 2.506z"></path><path fill="#25FFFF" d="M640.202 147.384c-.002-2.224-1.47-4.447-4.402-6.143l-50.129-28.942c-5.87-3.395-15.414-3.395-21.284 0l-50.129 28.942c-2.877 1.663-4.344 3.835-4.401 6.016l-.007.002v26.925c0 2.231 1.475 4.444 4.394 6.15l50.129 28.942c5.87 3.394 15.414 3.394 21.284 0l50.129-28.942c2.886-1.673 4.362-3.854 4.394-6.035v-.295l.033.016v-25.062c.003-.101.003-.201 0-.302v-1.266l-.011-.006z" clip-rule="evenodd" fill-rule="evenodd" opacity=".2"></path><path fill="#4381DD" d="M640.202 147.384c-.002-2.224-1.47-4.447-4.402-6.143l-50.129-28.942c-5.87-3.395-15.414-3.395-21.284 0l-50.129 28.942c-2.877 1.663-4.344 3.835-4.401 6.016l-.007.002v11.643c0 2.23 1.475 4.443 4.394 6.149l50.129 28.942c2.94 1.7 6.801 2.549 10.661 2.546v.045c3.854 0 7.707-.853 10.642-2.542l50.129-28.942c2.886-1.673 4.362-3.854 4.394-6.034v-.326l.014.014v-9.796c.003-.101.003-.201 0-.302v-1.266l-.011-.006zm-18.225 5.779L578.44 178.3c-1.886 1.083-4.936 1.083-6.822 0l-43.533-25.134 43.535-25.142c1.886-1.082 4.936-1.082 6.822 0l43.535 25.139z" clip-rule="evenodd" fill-rule="evenodd"></path><path fill="#C1C0F7" d="M514.258 153.539l50.129 28.943c5.87 3.394 15.414 3.394 21.284 0l50.129-28.943c5.87-3.394 5.87-8.904 0-12.298l-50.129-28.942c-5.87-3.395-15.414-3.395-21.284 0l-50.129 28.942c-5.87 3.394-5.87 8.904 0 12.298zm57.36-37.059c1.886-1.082 4.936-1.082 6.822 0l50.128 28.942c1.886 1.083 1.886 2.854 0 3.936L578.44 178.3c-1.886 1.083-4.936 1.083-6.822 0l-50.128-28.942c-1.886-1.082-1.886-2.853 0-3.936l50.128-28.942z" clip-rule="evenodd" fill-rule="evenodd"></path><path fill="#25FFFF" d="M578.442 116.48c-1.885-1.082-4.935-1.082-6.821 0l-50.129 28.942c-1.885 1.083-1.885 2.854 0 3.936l50.129 28.942c1.886 1.083 4.936 1.083 6.821 0l50.129-28.942c1.886-1.082 1.886-2.853 0-3.936l-50.129-28.942z" opacity=".65"></path><rect fill="url(#paint3_linear_568_994)" transform="matrix(1 0 0 -1 594.598 324.156)" rx="1.0865" height="203.538" width="2.173" opacity=".58"></rect><rect fill="url(#paint4_linear_568_994)" transform="matrix(1 0 0 -1 722.805 324.156)" rx="1.0865" height="203.538" width="2.173" opacity=".58"></rect><rect fill="url(#paint5_linear_568_994)" transform="matrix(1 0 0 -1 658.34 287.939)" rx="1.0865" height="203.538" width="2.173" opacity=".58"></rect><mask fill="#fff" id="d"><path d="M720.1 340.955l-49.798-28.749c-5.852-3.383-15.355-3.383-21.179 0l-49.465 28.749c-5.816 3.383-5.78 8.88.073 12.263l49.79 28.749c5.853 3.382 15.349 3.382 21.165 0l49.472-28.749c5.824-3.383 5.788-8.88-.065-12.263"></path></mask><path mask="url(#d)" fill="#0FF" d="M670.302 312.206l-.724 1.254v.001l.724-1.255zm-21.179 0l-.728-1.253v.001l.728 1.252zm-49.465 28.749l-.728-1.253v.001l.728 1.252zm.073 12.263l-.725 1.254.725-1.254zm49.79 28.749l.725-1.255-.725 1.255zm21.165 0l-.728-1.253.728 1.253zm49.472-28.749l-.727-1.253.727 1.253zm.667-13.518l-49.798-28.749-1.449 2.51 49.798 28.749 1.449-2.51zm-49.798-28.748c-3.198-1.849-7.303-2.732-11.325-2.732-4.022 0-8.121.883-11.307 2.733l1.456 2.506c2.637-1.532 6.202-2.341 9.851-2.341 3.648 0 7.222.808 9.876 2.342l1.449-2.508zm-22.632.002l-49.465 28.748 1.456 2.505 49.465-28.748-1.456-2.505zm-49.465 28.749c-3.177 1.847-5.078 4.474-5.06 7.392.018 2.914 1.945 5.533 5.136 7.377l1.449-2.508c-2.662-1.539-3.679-3.36-3.688-4.886-.009-1.522.98-3.336 3.619-4.871l-1.456-2.504zm.076 14.769l49.791 28.749 1.449-2.509-49.791-28.749-1.449 2.509zm49.79 28.749c3.199 1.849 7.302 2.731 11.321 2.731 4.02 0 8.115-.882 11.298-2.733l-1.457-2.505c-2.634 1.532-6.195 2.341-9.841 2.341-3.645 0-7.217-.809-9.871-2.343l-1.45 2.509zm22.618-.002l49.472-28.749-1.455-2.505-49.473 28.749 1.456 2.505zm49.472-28.748c3.18-1.848 5.084-4.474 5.067-7.393-.017-2.914-1.945-5.533-5.135-7.377l-1.45 2.508c2.663 1.539 3.679 3.36 3.688 4.886.008 1.521-.982 3.335-3.625 4.87l1.455 2.506z"></path><path fill="#25FFFF" d="M724.948 309.635c-.002-2.224-1.47-4.447-4.402-6.143l-50.129-28.943c-5.87-3.394-15.414-3.394-21.284 0l-50.129 28.943c-2.876 1.663-4.343 3.834-4.401 6.016l-.007.002v26.925c0 2.23 1.476 4.444 4.394 6.15l50.129 28.942c5.87 3.394 15.414 3.394 21.284 0l50.129-28.942c2.886-1.673 4.362-3.854 4.394-6.035v-.295l.033.016v-25.062c.003-.101.003-.201 0-.302v-1.266l-.011-.006z" clip-rule="evenodd" fill-rule="evenodd" opacity=".2"></path><path fill="#4381DD" d="M724.948 309.635c-.002-2.224-1.47-4.447-4.402-6.143l-50.129-28.943c-5.87-3.394-15.414-3.394-21.284 0l-50.129 28.943c-2.876 1.663-4.343 3.834-4.401 6.016l-.007.002v11.642c0 2.231 1.476 4.444 4.394 6.15l50.129 28.942c2.94 1.7 6.801 2.549 10.661 2.546v.045c3.854 0 7.707-.853 10.642-2.542l50.129-28.942c2.886-1.673 4.362-3.854 4.395-6.035v-.325l.013.014v-9.796c.003-.101.003-.201 0-.302v-1.266l-.011-.006zm-18.225 5.779l-43.537 25.137c-1.886 1.082-4.936 1.082-6.822 0l-43.533-25.134 43.535-25.142c1.886-1.082 4.936-1.082 6.822 0l43.535 25.139z" clip-rule="evenodd" fill-rule="evenodd"></path><path fill="#C1C0F7" d="M599.004 315.79l50.129 28.943c5.87 3.394 15.414 3.394 21.284 0l50.129-28.943c5.87-3.394 5.87-8.904 0-12.298l-50.129-28.943c-5.87-3.394-15.414-3.394-21.284 0l-50.129 28.943c-5.87 3.394-5.87 8.904 0 12.298zm57.36-37.059c1.886-1.082 4.936-1.082 6.822 0l50.128 28.942c1.886 1.083 1.886 2.854 0 3.936l-50.128 28.942c-1.886 1.082-4.936 1.082-6.822 0l-50.128-28.942c-1.886-1.082-1.886-2.853 0-3.936l50.128-28.942z" clip-rule="evenodd" fill-rule="evenodd"></path><path fill="#25FFFF" d="M663.189 278.731c-1.886-1.082-4.936-1.082-6.822 0l-50.128 28.942c-1.886 1.083-1.886 2.854 0 3.936l50.128 28.942c1.886 1.082 4.936 1.082 6.822 0l50.128-28.942c1.886-1.082 1.886-2.853 0-3.936l-50.128-28.942z" opacity=".65"></path><mask fill="#fff" id="e"><path d="M720.1 284.457l-49.798-28.749c-5.852-3.383-15.355-3.383-21.179 0l-49.465 28.749c-5.816 3.382-5.78 8.88.073 12.263l49.79 28.749c5.853 3.382 15.349 3.382 21.165 0l49.472-28.749c5.824-3.383 5.788-8.881-.065-12.263"></path></mask><path mask="url(#e)" fill="#0FF" d="M670.302 255.708l-.724 1.254v.001l.724-1.255zm-21.179 0l-.728-1.253v.001l.728 1.252zm-49.465 28.749l-.728-1.253v.001l.728 1.252zm.073 12.263l-.725 1.254.725-1.254zm49.79 28.749l.725-1.255-.725 1.255zm21.165 0l-.728-1.253.728 1.253zm49.472-28.749l-.727-1.253.727 1.253zm.667-13.518l-49.798-28.749-1.449 2.51 49.798 28.748 1.449-2.509zm-49.798-28.748c-3.198-1.849-7.303-2.732-11.325-2.732-4.022 0-8.121.883-11.307 2.733l1.456 2.506c2.637-1.533 6.202-2.341 9.851-2.341 3.648 0 7.222.808 9.876 2.342l1.449-2.508zm-22.632.002l-49.465 28.748 1.456 2.505 49.465-28.749-1.456-2.504zm-49.465 28.749c-3.177 1.847-5.078 4.474-5.06 7.392.018 2.914 1.945 5.533 5.136 7.377l1.449-2.508c-2.662-1.539-3.679-3.36-3.688-4.887-.009-1.522.98-3.335 3.619-4.87l-1.456-2.504zm.076 14.769l49.791 28.749 1.449-2.509-49.791-28.749-1.449 2.509zm49.79 28.749c3.199 1.849 7.302 2.731 11.321 2.731 4.02 0 8.115-.882 11.298-2.733l-1.457-2.505c-2.634 1.532-6.195 2.341-9.841 2.341-3.645 0-7.217-.809-9.871-2.343l-1.45 2.509zm22.618-.002l49.472-28.749-1.455-2.505-49.473 28.749 1.456 2.505zm49.472-28.749c3.18-1.847 5.084-4.473 5.067-7.392-.017-2.914-1.945-5.533-5.135-7.377l-1.45 2.508c2.663 1.539 3.679 3.36 3.688 4.886.008 1.521-.982 3.335-3.625 4.87l1.455 2.505z"></path><path fill="#25FFFF" d="M724.948 253.137c-.002-2.224-1.47-4.448-4.402-6.143l-50.129-28.943c-5.87-3.394-15.414-3.394-21.284 0l-50.129 28.943c-2.876 1.663-4.343 3.834-4.401 6.016l-.007.002v26.925c0 2.23 1.476 4.444 4.394 6.149l50.129 28.943c5.87 3.394 15.414 3.394 21.284 0l50.129-28.943c2.886-1.672 4.362-3.853 4.394-6.034v-.295l.033.016v-25.062c.003-.101.003-.201 0-.302v-1.266l-.011-.006z" clip-rule="evenodd" fill-rule="evenodd" opacity=".2"></path><path fill="#4381DD" d="M724.948 253.137c-.002-2.224-1.47-4.448-4.402-6.143l-50.129-28.943c-5.87-3.394-15.414-3.394-21.284 0l-50.129 28.943c-2.876 1.663-4.343 3.834-4.401 6.016l-.007.002v11.642c0 2.23 1.476 4.444 4.394 6.15l50.129 28.942c2.94 1.7 6.801 2.549 10.661 2.546v.045c3.854 0 7.707-.853 10.642-2.542l50.129-28.942c2.886-1.673 4.362-3.854 4.395-6.035v-.325l.013.014v-9.796c.003-.101.003-.201 0-.302v-1.266l-.011-.006zm-18.225 5.779l-43.537 25.137c-1.886 1.082-4.936 1.082-6.822 0l-43.533-25.135 43.535-25.141c1.886-1.082 4.936-1.082 6.822 0l43.535 25.139z" clip-rule="evenodd" fill-rule="evenodd"></path><path fill="#C1C0F7" d="M599.004 259.292l50.129 28.943c5.87 3.394 15.414 3.394 21.284 0l50.129-28.943c5.87-3.394 5.87-8.904 0-12.298l-50.129-28.943c-5.87-3.394-15.414-3.394-21.284 0l-50.129 28.943c-5.87 3.394-5.87 8.904 0 12.298zm57.36-37.059c1.886-1.082 4.936-1.082 6.822 0l50.128 28.942c1.886 1.082 1.886 2.853 0 3.936l-50.128 28.942c-1.886 1.082-4.936 1.082-6.822 0l-50.128-28.942c-1.886-1.083-1.886-2.854 0-3.936l50.128-28.942z" clip-rule="evenodd" fill-rule="evenodd"></path><path fill="#25FFFF" d="M663.189 222.233c-1.886-1.082-4.936-1.082-6.822 0l-50.128 28.942c-1.886 1.082-1.886 2.853 0 3.936l50.128 28.942c1.886 1.082 4.936 1.082 6.822 0l50.128-28.942c1.886-1.083 1.886-2.854 0-3.936l-50.128-28.942z" opacity=".65"></path><mask fill="#fff" id="f"><path d="M720.1 227.959l-49.798-28.749c-5.852-3.383-15.355-3.383-21.179 0l-49.465 28.749c-5.816 3.382-5.78 8.88.073 12.263l49.79 28.749c5.853 3.382 15.349 3.382 21.165 0l49.472-28.749c5.824-3.383 5.788-8.881-.065-12.263"></path></mask><path mask="url(#f)" fill="#0FF" d="M670.302 199.21l-.724 1.254v.001l.724-1.255zm-21.179 0l-.728-1.253.728 1.253zm-49.465 28.749l-.728-1.253.728 1.253zm.073 12.263l-.725 1.254.725-1.254zm49.79 28.749l.725-1.255-.725 1.255zm21.165 0l-.728-1.253.728 1.253zm49.472-28.749l-.727-1.253.727 1.253zm.667-13.518l-49.798-28.749-1.449 2.51 49.798 28.748 1.449-2.509zm-49.798-28.748c-3.198-1.849-7.303-2.732-11.325-2.732-4.022 0-8.121.883-11.307 2.733l1.456 2.506c2.637-1.533 6.202-2.341 9.851-2.341 3.648 0 7.222.808 9.876 2.342l1.449-2.508zm-22.632.001l-49.465 28.749 1.456 2.505 49.465-28.749-1.456-2.505zm-49.465 28.749c-3.177 1.848-5.078 4.475-5.06 7.393.018 2.914 1.945 5.533 5.136 7.377l1.449-2.509c-2.662-1.538-3.679-3.359-3.688-4.886-.009-1.522.98-3.335 3.619-4.87l-1.456-2.505zm.076 14.77l49.791 28.749 1.449-2.509-49.791-28.749-1.449 2.509zm49.79 28.749c3.199 1.848 7.302 2.731 11.321 2.731 4.02 0 8.115-.882 11.298-2.733l-1.457-2.505c-2.634 1.532-6.195 2.341-9.841 2.341-3.645 0-7.217-.809-9.871-2.343l-1.45 2.509zm22.618-.002l49.472-28.749-1.455-2.505-49.473 28.749 1.456 2.505zm49.472-28.749c3.18-1.847 5.084-4.473 5.067-7.392-.017-2.914-1.945-5.534-5.135-7.377l-1.45 2.508c2.663 1.539 3.679 3.359 3.688 4.886.008 1.521-.982 3.335-3.625 4.87l1.455 2.505z"></path><path fill="#25FFFF" d="M724.948 196.639c-.002-2.224-1.47-4.448-4.402-6.143l-50.129-28.943c-5.87-3.394-15.414-3.394-21.284 0l-50.129 28.943c-2.876 1.663-4.343 3.834-4.401 6.016l-.007.002v26.925c0 2.23 1.476 4.444 4.394 6.149l50.129 28.943c5.87 3.394 15.414 3.394 21.284 0l50.129-28.943c2.886-1.672 4.362-3.853 4.394-6.034v-.295l.033.016v-25.062c.003-.101.003-.202 0-.302v-1.266l-.011-.006z" clip-rule="evenodd" fill-rule="evenodd" opacity=".2"></path><path fill="#4381DD" d="M724.948 196.639c-.002-2.224-1.47-4.448-4.402-6.143l-50.129-28.943c-5.87-3.394-15.414-3.394-21.284 0l-50.129 28.943c-2.876 1.663-4.343 3.834-4.401 6.016l-.007.002v11.642c0 2.23 1.476 4.444 4.394 6.149l50.129 28.943c2.94 1.7 6.801 2.548 10.661 2.546v.045c3.854 0 7.707-.853 10.642-2.542l50.129-28.942c2.886-1.673 4.362-3.854 4.395-6.035v-.325l.013.014v-9.796c.003-.101.003-.202 0-.302v-1.266l-.011-.006zm-18.225 5.779l-43.537 25.137c-1.886 1.082-4.936 1.082-6.822 0l-43.533-25.135 43.535-25.141c1.886-1.082 4.936-1.082 6.822 0l43.535 25.139z" clip-rule="evenodd" fill-rule="evenodd"></path><path fill="#C1C0F7" d="M599.004 202.794l50.129 28.942c5.87 3.395 15.414 3.395 21.284 0l50.129-28.942c5.87-3.394 5.87-8.904 0-12.298l-50.129-28.943c-5.87-3.394-15.414-3.394-21.284 0l-50.129 28.943c-5.87 3.394-5.87 8.904 0 12.298zm57.36-37.059c1.886-1.082 4.936-1.082 6.822 0l50.128 28.942c1.886 1.082 1.886 2.853 0 3.936l-50.128 28.942c-1.886 1.082-4.936 1.082-6.822 0l-50.128-28.942c-1.886-1.083-1.886-2.854 0-3.936l50.128-28.942z" clip-rule="evenodd" fill-rule="evenodd"></path><path fill="#25FFFF" d="M663.189 165.735c-1.886-1.082-4.936-1.082-6.822 0l-50.128 28.942c-1.886 1.082-1.886 2.853 0 3.936l50.128 28.942c1.886 1.082 4.936 1.082 6.822 0l50.128-28.942c1.886-1.083 1.886-2.854 0-3.936l-50.128-28.942z" opacity=".65"></path><rect fill="url(#paint6_linear_568_994)" transform="matrix(1 0 0 -1 428 325.604)" rx="1.0865" height="203.538" width="2.173" opacity=".58"></rect><rect fill="url(#paint7_linear_568_994)" transform="matrix(1 0 0 -1 556.207 325.604)" rx="1.0865" height="203.538" width="2.173" opacity=".58"></rect><rect fill="url(#paint8_linear_568_994)" transform="matrix(1 0 0 -1 491.742 289.388)" rx="1.0865" height="203.538" width="2.173" opacity=".58"></rect><mask fill="#fff" id="g"><path d="M553.507 342.404l-49.798-28.749c-5.853-3.383-15.356-3.383-21.18 0l-49.465 28.749c-5.816 3.382-5.78 8.88.073 12.263l49.791 28.748c5.852 3.383 15.348 3.383 21.165 0l49.472-28.748c5.823-3.383 5.787-8.881-.066-12.263"></path></mask><path mask="url(#g)" fill="#0FF" d="M503.709 313.655l-.725 1.254.725-1.254zm-21.18 0l-.727-1.253h-.001l.728 1.253zm-49.465 28.749l-.728-1.253.728 1.253zm.073 12.263l-.725 1.254.725-1.254zm49.791 28.748l.724-1.254-.724 1.254zm21.165 0l-.728-1.252h-.001l.729 1.252zm49.472-28.748l-.728-1.253.728 1.253zm.666-13.518L504.433 312.4l-1.449 2.509 49.798 28.749 1.449-2.509zm-49.797-28.748c-3.199-1.849-7.304-2.732-11.326-2.732s-8.121.883-11.306 2.733l1.455 2.505c2.638-1.532 6.202-2.341 9.851-2.341 3.649 0 7.222.809 9.876 2.343l1.45-2.508zm-22.633.001l-49.465 28.749 1.456 2.505 49.465-28.749-1.456-2.505zm-49.465 28.749c-3.177 1.848-5.078 4.475-5.06 7.393.018 2.914 1.945 5.533 5.136 7.377l1.45-2.509c-2.662-1.538-3.679-3.359-3.689-4.886-.009-1.522.98-3.335 3.62-4.87l-1.457-2.505zm.076 14.77l49.791 28.749 1.449-2.509-49.791-28.749-1.449 2.509zm49.791 28.749c3.198 1.848 7.301 2.731 11.321 2.731 4.019 0 8.115-.883 11.297-2.733l-1.457-2.505c-2.634 1.532-6.194 2.341-9.84 2.341s-7.217-.809-9.872-2.343l-1.449 2.509zm22.617-.002l49.473-28.749-1.456-2.505-49.472 28.749 1.455 2.505zm49.472-28.749c3.181-1.847 5.084-4.474 5.067-7.392-.016-2.914-1.944-5.534-5.135-7.378l-1.449 2.509c2.662 1.539 3.678 3.359 3.687 4.885.009 1.522-.982 3.336-3.625 4.871l1.455 2.505z"></path><path fill="#25FFFF" d="M558.353 311.084c-.003-2.224-1.47-4.448-4.403-6.143l-50.129-28.943c-5.87-3.394-15.414-3.394-21.284 0l-50.128 28.943c-2.877 1.663-4.344 3.834-4.402 6.016l-.007.002v26.925c0 2.23 1.476 4.444 4.395 6.149l50.128 28.943c5.871 3.394 15.414 3.394 21.285 0l50.128-28.943c2.886-1.672 4.362-3.853 4.395-6.034v-.295l.033.016v-25.062c.003-.101.003-.202 0-.302v-1.266l-.011-.006z" clip-rule="evenodd" fill-rule="evenodd" opacity=".2"></path><path fill="#4381DD" d="M558.353 311.084c-.003-2.224-1.47-4.448-4.403-6.143l-50.129-28.943c-5.87-3.394-15.414-3.394-21.284 0l-50.128 28.943c-2.877 1.663-4.344 3.834-4.402 6.016l-.007.002v11.642c0 2.23 1.476 4.444 4.395 6.149l50.128 28.943c2.94 1.7 6.802 2.548 10.661 2.545v.046c3.854 0 7.707-.853 10.643-2.542l50.128-28.942c2.886-1.673 4.362-3.854 4.395-6.035v-.325l.014.014v-9.796c.003-.101.003-.202 0-.302v-1.266l-.011-.006zm-18.226 5.779L496.59 342c-1.886 1.082-4.936 1.082-6.822 0l-43.533-25.135 43.536-25.141c1.885-1.083 4.935-1.083 6.821 0l43.535 25.139z" clip-rule="evenodd" fill-rule="evenodd"></path><path fill="#C1C0F7" d="M432.409 317.239l50.128 28.942c5.871 3.395 15.414 3.395 21.285 0l50.128-28.942c5.871-3.394 5.871-8.904 0-12.298l-50.128-28.943c-5.871-3.394-15.414-3.394-21.285 0l-50.128 28.943c-5.871 3.394-5.871 8.904 0 12.298zm57.36-37.059c1.885-1.083 4.935-1.083 6.821 0l50.129 28.942c1.885 1.082 1.885 2.853 0 3.935L496.59 342c-1.886 1.082-4.936 1.082-6.821 0l-50.129-28.943c-1.886-1.082-1.886-2.853 0-3.935l50.129-28.942z" clip-rule="evenodd" fill-rule="evenodd"></path><path fill="#25FFFF" d="M496.593 280.18c-1.886-1.083-4.936-1.083-6.822 0l-50.128 28.942c-1.886 1.082-1.886 2.853 0 3.935L489.771 342c1.886 1.082 4.936 1.082 6.822 0l50.128-28.943c1.886-1.082 1.886-2.853 0-3.935l-50.128-28.942z" opacity=".65"></path><mask fill="#fff" id="h"><path d="M553.507 285.906l-49.798-28.749c-5.853-3.383-15.356-3.383-21.18 0l-49.465 28.749c-5.816 3.382-5.78 8.88.073 12.262l49.791 28.749c5.852 3.383 15.348 3.383 21.165 0l49.472-28.749c5.823-3.382 5.787-8.88-.066-12.262"></path></mask><path mask="url(#h)" fill="#0FF" d="M503.709 257.157l-.725 1.254.725-1.254zm-21.18 0l-.727-1.253h-.001l.728 1.253zm-49.465 28.749l-.728-1.253.728 1.253zm.073 12.262l-.725 1.255.725-1.255zm49.791 28.749l.724-1.254-.724 1.254zm21.165 0l-.728-1.252h-.001l.729 1.252zm49.472-28.749l-.728-1.252.728 1.252zm.666-13.517l-49.798-28.749-1.449 2.509 49.798 28.749 1.449-2.509zm-49.797-28.749c-3.199-1.848-7.304-2.731-11.326-2.731s-8.121.883-11.306 2.733l1.455 2.505c2.638-1.532 6.202-2.341 9.851-2.341 3.649 0 7.222.809 9.876 2.343l1.45-2.509zm-22.633.002l-49.465 28.749 1.456 2.505 49.465-28.749-1.456-2.505zm-49.465 28.749c-3.177 1.848-5.078 4.475-5.06 7.393.018 2.913 1.945 5.533 5.136 7.377l1.45-2.509c-2.662-1.538-3.679-3.359-3.689-4.886-.009-1.522.98-3.335 3.62-4.87l-1.457-2.505zm.076 14.77l49.791 28.749 1.449-2.509-49.791-28.749-1.449 2.509zm49.791 28.749c3.198 1.848 7.301 2.731 11.321 2.731 4.019 0 8.115-.883 11.297-2.733l-1.457-2.505c-2.634 1.532-6.194 2.341-9.84 2.341s-7.217-.809-9.872-2.343l-1.449 2.509zm22.617-.002l49.473-28.749-1.456-2.505-49.472 28.749 1.455 2.505zm49.472-28.749c3.181-1.847 5.084-4.474 5.067-7.392-.016-2.914-1.944-5.534-5.135-7.378l-1.449 2.509c2.662 1.538 3.678 3.359 3.687 4.885.009 1.522-.982 3.335-3.625 4.871l1.455 2.505z"></path><path fill="#25FFFF" d="M558.353 254.586c-.003-2.224-1.47-4.448-4.403-6.144L503.821 219.5c-5.87-3.394-15.414-3.394-21.284 0l-50.128 28.942c-2.877 1.664-4.344 3.835-4.402 6.016l-.007.002v26.926c0 2.23 1.476 4.444 4.395 6.149l50.128 28.942c5.871 3.395 15.414 3.395 21.285 0l50.128-28.942c2.886-1.672 4.362-3.853 4.395-6.034v-.295l.033.016V256.16c.003-.101.003-.202 0-.302v-1.266l-.011-.006z" clip-rule="evenodd" fill-rule="evenodd" opacity=".2"></path><path fill="#4381DD" d="M558.353 254.586c-.003-2.224-1.47-4.448-4.403-6.144L503.821 219.5c-5.87-3.394-15.414-3.394-21.284 0l-50.128 28.942c-2.877 1.664-4.344 3.835-4.402 6.016l-.007.002v11.643c0 2.23 1.476 4.444 4.395 6.149l50.128 28.943c2.94 1.7 6.802 2.548 10.661 2.545v.046c3.854 0 7.707-.853 10.643-2.542l50.128-28.943c2.886-1.672 4.362-3.853 4.395-6.034v-.325l.014.013v-9.795c.003-.101.003-.202 0-.302v-1.266l-.011-.006zm-18.226 5.779l-43.537 25.137c-1.886 1.082-4.936 1.082-6.822 0l-43.533-25.135 43.536-25.141c1.885-1.083 4.935-1.083 6.821 0l43.535 25.139z" clip-rule="evenodd" fill-rule="evenodd"></path><path fill="#C1C0F7" d="M432.409 260.741l50.128 28.942c5.871 3.395 15.414 3.395 21.285 0l50.128-28.942c5.871-3.394 5.871-8.904 0-12.299L503.822 219.5c-5.871-3.394-15.414-3.394-21.285 0l-50.128 28.942c-5.871 3.395-5.871 8.905 0 12.299zm57.36-37.059c1.885-1.083 4.935-1.083 6.821 0l50.129 28.942c1.885 1.082 1.885 2.853 0 3.935l-50.129 28.943c-1.886 1.082-4.936 1.082-6.821 0l-50.129-28.943c-1.886-1.082-1.886-2.853 0-3.935l50.129-28.942z" clip-rule="evenodd" fill-rule="evenodd"></path><path fill="#25FFFF" d="M496.593 223.682c-1.886-1.083-4.936-1.083-6.822 0l-50.128 28.942c-1.886 1.082-1.886 2.853 0 3.935l50.128 28.943c1.886 1.082 4.936 1.082 6.822 0l50.128-28.943c1.886-1.082 1.886-2.853 0-3.935l-50.128-28.942z" opacity=".65"></path><mask fill="#fff" id="i"><path d="M553.507 229.407l-49.798-28.748c-5.853-3.383-15.356-3.383-21.18 0l-49.465 28.748c-5.816 3.383-5.78 8.881.073 12.263l49.791 28.749c5.852 3.383 15.348 3.383 21.165 0l49.472-28.749c5.823-3.382 5.787-8.88-.066-12.263"></path></mask><path mask="url(#i)" fill="#0FF" d="M503.709 200.659l-.725 1.254.725-1.254zm-21.18 0l-.727-1.253h-.001l.728 1.253zm-49.465 28.748l-.728-1.252.728 1.252zm.073 12.263l-.725 1.255.725-1.255zm49.791 28.749l.724-1.254-.724 1.254zm21.165 0l-.728-1.252h-.001l.729 1.252zm49.472-28.749l-.728-1.252.728 1.252zm.666-13.517l-49.798-28.749-1.449 2.509 49.798 28.749 1.449-2.509zm-49.797-28.749c-3.199-1.848-7.304-2.731-11.326-2.731s-8.121.882-11.306 2.733l1.455 2.505c2.638-1.532 6.202-2.341 9.851-2.341 3.649 0 7.222.809 9.876 2.343l1.45-2.509zm-22.633.002l-49.465 28.749 1.456 2.505 49.465-28.749-1.456-2.505zm-49.465 28.749c-3.177 1.848-5.078 4.475-5.06 7.393.018 2.913 1.945 5.533 5.136 7.377l1.45-2.509c-2.662-1.538-3.679-3.359-3.689-4.886-.009-1.522.98-3.335 3.62-4.87l-1.457-2.505zm.076 14.77l49.791 28.749 1.449-2.509-49.791-28.749-1.449 2.509zm49.791 28.748c3.198 1.849 7.301 2.732 11.321 2.732 4.019 0 8.115-.883 11.297-2.733l-1.457-2.505c-2.634 1.532-6.194 2.341-9.84 2.341s-7.217-.809-9.872-2.343l-1.449 2.508zm22.617-.001l49.473-28.749-1.456-2.505-49.472 28.749 1.455 2.505zm49.472-28.749c3.181-1.847 5.084-4.474 5.067-7.392-.016-2.914-1.944-5.534-5.135-7.378l-1.449 2.509c2.662 1.538 3.678 3.359 3.687 4.885.009 1.522-.982 3.335-3.625 4.871l1.455 2.505z"></path><path fill="#25FFFF" d="M558.353 198.088c-.003-2.224-1.47-4.448-4.403-6.144l-50.129-28.942c-5.87-3.394-15.414-3.394-21.284 0l-50.128 28.942c-2.877 1.664-4.344 3.835-4.402 6.016l-.007.002v26.926c0 2.23 1.476 4.444 4.395 6.149l50.128 28.942c5.871 3.395 15.414 3.395 21.285 0l50.128-28.942c2.886-1.673 4.362-3.853 4.395-6.034v-.296l.033.017v-25.062c.003-.101.003-.202 0-.303v-1.265l-.011-.006z" clip-rule="evenodd" fill-rule="evenodd" opacity=".2"></path><path fill="#4381DD" d="M558.353 198.088c-.003-2.224-1.47-4.448-4.403-6.144l-50.129-28.942c-5.87-3.394-15.414-3.394-21.284 0l-50.128 28.942c-2.877 1.664-4.344 3.835-4.402 6.016l-.007.002v11.643c0 2.23 1.476 4.444 4.395 6.149l50.128 28.943c2.94 1.7 6.802 2.548 10.661 2.545v.045c3.854 0 7.707-.852 10.643-2.541l50.128-28.943c2.886-1.672 4.362-3.853 4.395-6.034v-.325l.014.013v-9.795c.003-.101.003-.202 0-.303v-1.265l-.011-.006zm-18.226 5.779l-43.537 25.137c-1.886 1.082-4.936 1.082-6.822 0l-43.533-25.135 43.536-25.141c1.885-1.083 4.935-1.083 6.821 0l43.535 25.139z" clip-rule="evenodd" fill-rule="evenodd"></path><path fill="#C1C0F7" d="M432.409 204.243l50.128 28.942c5.871 3.395 15.414 3.395 21.285 0l50.128-28.942c5.871-3.395 5.871-8.904 0-12.299l-50.128-28.942c-5.871-3.394-15.414-3.394-21.285 0l-50.128 28.942c-5.871 3.395-5.871 8.904 0 12.299zm57.36-37.06c1.885-1.082 4.935-1.082 6.821 0l50.129 28.943c1.885 1.082 1.885 2.853 0 3.935l-50.129 28.943c-1.886 1.082-4.936 1.082-6.821 0l-50.129-28.943c-1.886-1.082-1.886-2.853 0-3.935l50.129-28.943z" clip-rule="evenodd" fill-rule="evenodd"></path><path fill="#25FFFF" d="M496.593 167.183c-1.886-1.082-4.936-1.082-6.822 0l-50.128 28.943c-1.886 1.082-1.886 2.853 0 3.935l50.128 28.943c1.886 1.082 4.936 1.082 6.822 0l50.128-28.943c1.886-1.082 1.886-2.853 0-3.935l-50.128-28.943z" opacity=".65"></path><rect fill="url(#paint9_linear_568_994)" transform="matrix(1 0 0 -1 512.748 374.859)" rx="1.0865" height="203.538" width="2.173" opacity=".58"></rect><rect fill="url(#paint10_linear_568_994)" transform="matrix(1 0 0 -1 640.955 374.859)" rx="1.0865" height="203.538" width="2.173" opacity=".58"></rect><rect fill="url(#paint11_linear_568_994)" transform="matrix(1 0 0 -1 576.488 338.642)" rx="1.0865" height="203.538" width="2.173" opacity=".58"></rect><mask fill="#fff" id="j"><path d="M638.251 391.658l-49.798-28.749c-5.853-3.382-15.356-3.382-21.18 0l-49.464 28.749c-5.817 3.383-5.781 8.881.072 12.263l49.791 28.749c5.852 3.383 15.348 3.383 21.165 0l49.472-28.749c5.823-3.382 5.787-8.88-.065-12.263"></path></mask><path mask="url(#j)" fill="#0FF" d="M588.453 362.909l-.725 1.255h.001l.724-1.255zm-21.18 0l-.727-1.252h-.001l.728 1.252zm-49.464 28.749l-.728-1.252h-.001l.729 1.252zm.072 12.263l-.725 1.255h.001l.724-1.255zm49.791 28.749l.725-1.254h-.001l-.724 1.254zm21.165 0l-.728-1.252h-.001l.729 1.252zm49.472-28.749l-.728-1.252.728 1.252zm.666-13.517l-49.798-28.749-1.448 2.509 49.798 28.749 1.448-2.509zm-49.797-28.749c-3.199-1.848-7.304-2.731-11.326-2.731s-8.121.882-11.306 2.733l1.455 2.505c2.638-1.532 6.202-2.341 9.851-2.341 3.649 0 7.222.809 9.876 2.343l1.45-2.509zm-22.633.002l-49.464 28.749 1.455 2.505 49.465-28.749-1.456-2.505zm-49.465 28.749c-3.177 1.848-5.078 4.474-5.06 7.393.018 2.913 1.946 5.533 5.136 7.377l1.45-2.509c-2.662-1.539-3.679-3.36-3.689-4.886-.009-1.522.98-3.335 3.62-4.87l-1.457-2.505zm.077 14.77l49.79 28.749 1.449-2.509-49.791-28.749-1.448 2.509zm49.79 28.748c3.198 1.849 7.301 2.732 11.321 2.732 4.019 0 8.115-.883 11.297-2.734l-1.457-2.504c-2.634 1.532-6.194 2.34-9.84 2.34s-7.217-.808-9.871-2.342l-1.45 2.508zm22.618-.001l49.472-28.749-1.456-2.505-49.472 28.749 1.456 2.505zm49.471-28.749c3.181-1.847 5.084-4.474 5.067-7.392-.016-2.915-1.944-5.534-5.134-7.378l-1.45 2.509c2.662 1.538 3.678 3.359 3.687 4.885.009 1.522-.982 3.335-3.625 4.871l1.455 2.505z"></path><path fill="#25FFFF" d="M643.099 360.339c-.003-2.225-1.47-4.448-4.403-6.144l-50.128-28.942c-5.871-3.394-15.414-3.394-21.285 0l-50.128 28.942c-2.877 1.664-4.344 3.835-4.401 6.016l-.008.002v26.926c0 2.23 1.476 4.444 4.395 6.149l50.128 28.942c5.871 3.395 15.414 3.395 21.285 0l50.128-28.942c2.886-1.673 4.362-3.854 4.395-6.035v-.295l.033.017v-25.063c.003-.1.003-.201 0-.302v-1.265l-.011-.006z" clip-rule="evenodd" fill-rule="evenodd" opacity=".2"></path><path fill="#4381DD" d="M643.099 360.339c-.003-2.225-1.47-4.448-4.403-6.144l-50.128-28.942c-5.871-3.394-15.414-3.394-21.285 0l-50.128 28.942c-2.877 1.664-4.344 3.835-4.401 6.016l-.008.002v11.643c0 2.23 1.476 4.444 4.395 6.149l50.128 28.942c2.94 1.7 6.802 2.549 10.662 2.546v.045c3.853 0 7.707-.852 10.642-2.541l50.128-28.943c2.886-1.672 4.362-3.853 4.395-6.034v-.325l.014.013v-9.796c.003-.1.003-.201 0-.302v-1.265l-.011-.006zm-18.226 5.779l-43.537 25.137c-1.886 1.082-4.936 1.082-6.821 0l-43.534-25.135 43.536-25.142c1.886-1.082 4.936-1.082 6.821 0l43.535 25.14z" clip-rule="evenodd" fill-rule="evenodd"></path><path fill="#C1C0F7" d="M517.153 366.494l50.128 28.942c5.871 3.394 15.414 3.394 21.285 0l50.128-28.942c5.871-3.395 5.871-8.904 0-12.299l-50.128-28.942c-5.871-3.394-15.414-3.394-21.285 0l-50.128 28.942c-5.871 3.395-5.871 8.904 0 12.299zm57.36-37.06c1.886-1.082 4.936-1.082 6.821 0l50.129 28.943c1.886 1.082 1.886 2.853 0 3.935l-50.129 28.943c-1.885 1.082-4.935 1.082-6.821 0l-50.129-28.943c-1.885-1.082-1.885-2.853 0-3.935l50.129-28.943z" clip-rule="evenodd" fill-rule="evenodd"></path><path fill="#25FFFF" d="M581.337 329.434c-1.886-1.082-4.936-1.082-6.822 0l-50.128 28.943c-1.886 1.082-1.886 2.853 0 3.935l50.128 28.943c1.886 1.082 4.936 1.082 6.822 0l50.128-28.943c1.886-1.082 1.886-2.853 0-3.935l-50.128-28.943z" opacity=".65"></path><mask fill="#fff" id="k"><path d="M638.251 335.16l-49.798-28.749c-5.853-3.382-15.356-3.382-21.18 0l-49.464 28.749c-5.817 3.383-5.781 8.881.072 12.263l49.791 28.749c5.852 3.383 15.348 3.383 21.165 0l49.472-28.749c5.823-3.382 5.787-8.88-.065-12.263"></path></mask><path mask="url(#k)" fill="#0FF" d="M588.453 306.411l-.725 1.255h.001l.724-1.255zm-21.18 0l-.727-1.252h-.001l.728 1.252zm-49.464 28.749l-.728-1.252h-.001l.729 1.252zm.072 12.263l-.725 1.254.001.001.724-1.255zm49.791 28.749l.725-1.254-.001-.001-.724 1.255zm21.165 0l-.728-1.252h-.001l.729 1.252zm49.472-28.749l-.728-1.252.728 1.252zm.666-13.517l-49.798-28.749-1.448 2.509 49.798 28.749 1.448-2.509zm-49.797-28.749c-3.199-1.849-7.304-2.731-11.326-2.731s-8.121.882-11.306 2.733l1.455 2.505c2.638-1.532 6.202-2.341 9.851-2.341 3.649 0 7.222.809 9.876 2.343l1.45-2.509zm-22.633.002l-49.464 28.749 1.455 2.505 49.465-28.749-1.456-2.505zm-49.465 28.749c-3.177 1.848-5.078 4.474-5.06 7.393.018 2.913 1.946 5.532 5.136 7.376l1.45-2.508c-2.662-1.539-3.679-3.36-3.689-4.886-.009-1.522.98-3.336 3.62-4.87l-1.457-2.505zm.077 14.77l49.79 28.749 1.449-2.51-49.791-28.748-1.448 2.509zm49.79 28.748c3.198 1.849 7.301 2.732 11.321 2.732 4.019 0 8.115-.883 11.297-2.734l-1.457-2.504c-2.634 1.532-6.194 2.34-9.84 2.34s-7.217-.808-9.871-2.342l-1.45 2.508zm22.618-.001l49.472-28.749-1.456-2.505-49.472 28.749 1.456 2.505zm49.471-28.749c3.181-1.847 5.084-4.474 5.067-7.393-.016-2.914-1.944-5.533-5.134-7.377l-1.45 2.508c2.662 1.539 3.678 3.36 3.687 4.886.009 1.522-.982 3.335-3.625 4.871l1.455 2.505z"></path><path fill="#25FFFF" d="M643.099 303.84c-.003-2.224-1.47-4.447-4.403-6.143l-50.128-28.942c-5.871-3.395-15.414-3.395-21.285 0l-50.128 28.942c-2.877 1.664-4.344 3.835-4.401 6.016l-.008.002v26.926c0 2.23 1.476 4.443 4.395 6.149l50.128 28.942c5.871 3.395 15.414 3.395 21.285 0l50.128-28.942c2.886-1.673 4.362-3.854 4.395-6.035v-.295l.033.017v-25.063c.003-.1.003-.201 0-.302v-1.266l-.011-.006z" clip-rule="evenodd" fill-rule="evenodd" opacity=".2"></path><path fill="#4381DD" d="M643.099 303.84c-.003-2.224-1.47-4.447-4.403-6.143l-50.128-28.942c-5.871-3.395-15.414-3.395-21.285 0l-50.128 28.942c-2.877 1.664-4.344 3.835-4.401 6.016l-.008.002v11.643c0 2.23 1.476 4.444 4.395 6.149l50.128 28.942c2.94 1.7 6.802 2.549 10.662 2.546v.045c3.853 0 7.707-.852 10.642-2.541l50.128-28.943c2.886-1.672 4.362-3.853 4.395-6.034v-.326l.014.014v-9.796c.003-.1.003-.201 0-.302v-1.266l-.011-.006zm-18.226 5.78l-43.537 25.136c-1.886 1.083-4.936 1.083-6.821 0l-43.534-25.134 43.536-25.142c1.886-1.082 4.936-1.082 6.821 0l43.535 25.14z" clip-rule="evenodd" fill-rule="evenodd"></path><path fill="#C1C0F7" d="M517.153 309.996l50.128 28.942c5.871 3.394 15.414 3.394 21.285 0l50.128-28.942c5.871-3.395 5.871-8.904 0-12.299l-50.128-28.942c-5.871-3.395-15.414-3.395-21.285 0l-50.128 28.942c-5.871 3.395-5.871 8.904 0 12.299zm57.36-37.06c1.886-1.082 4.936-1.082 6.821 0l50.129 28.943c1.886 1.082 1.886 2.853 0 3.935l-50.129 28.942c-1.885 1.083-4.935 1.083-6.821 0l-50.129-28.942c-1.885-1.082-1.885-2.853 0-3.935l50.129-28.943z" clip-rule="evenodd" fill-rule="evenodd"></path><path fill="#25FFFF" d="M581.337 272.936c-1.886-1.082-4.936-1.082-6.822 0l-50.128 28.943c-1.886 1.082-1.886 2.853 0 3.935l50.128 28.942c1.886 1.083 4.936 1.083 6.822 0l50.128-28.942c1.886-1.082 1.886-2.853 0-3.935l-50.128-28.943z" opacity=".65"></path><mask fill="#fff" id="l"><path d="M638.251 278.662l-49.798-28.749c-5.853-3.382-15.356-3.382-21.18 0l-49.464 28.749c-5.817 3.383-5.781 8.88.072 12.263l49.791 28.749c5.852 3.383 15.348 3.383 21.165 0l49.472-28.749c5.823-3.383 5.787-8.88-.065-12.263"></path></mask><path mask="url(#l)" fill="#0FF" d="M588.453 249.913l-.725 1.255h.001l.724-1.255zm-21.18 0l-.727-1.252h-.001l.728 1.252zm-49.464 28.749l-.728-1.252h-.001l.729 1.252zm.072 12.263l-.725 1.254.001.001.724-1.255zm49.791 28.749l.725-1.254-.001-.001-.724 1.255zm21.165 0l-.728-1.253-.001.001.729 1.252zm49.472-28.749l-.728-1.253v.001l.728 1.252zm.666-13.517l-49.798-28.749-1.448 2.509 49.798 28.749 1.448-2.509zm-49.797-28.749c-3.199-1.849-7.304-2.731-11.326-2.731s-8.121.882-11.306 2.733l1.455 2.505c2.638-1.532 6.202-2.341 9.851-2.341 3.649 0 7.222.809 9.876 2.343l1.45-2.509zm-22.633.002l-49.464 28.749 1.455 2.505 49.465-28.749-1.456-2.505zM517.08 277.41c-3.177 1.848-5.078 4.474-5.06 7.393.018 2.913 1.946 5.532 5.136 7.376l1.45-2.508c-2.662-1.539-3.679-3.36-3.689-4.886-.009-1.522.98-3.336 3.62-4.871l-1.457-2.504zm.077 14.77l49.79 28.749 1.449-2.51-49.791-28.748-1.448 2.509zm49.79 28.748c3.198 1.849 7.301 2.732 11.321 2.732 4.019 0 8.115-.883 11.297-2.734l-1.457-2.504c-2.634 1.532-6.194 2.34-9.84 2.34s-7.217-.808-9.871-2.342l-1.45 2.508zm22.618-.001l49.472-28.749-1.456-2.505-49.472 28.748 1.456 2.506zm49.471-28.749c3.181-1.848 5.084-4.474 5.067-7.393-.016-2.914-1.944-5.533-5.134-7.377l-1.45 2.508c2.662 1.539 3.678 3.36 3.687 4.886.009 1.521-.982 3.335-3.625 4.87l1.455 2.506z"></path><path fill="#25FFFF" d="M643.099 247.342c-.003-2.224-1.47-4.447-4.403-6.143l-50.128-28.942c-5.871-3.395-15.414-3.395-21.285 0l-50.128 28.942c-2.877 1.663-4.344 3.835-4.401 6.016l-.008.002v26.926c0 2.23 1.476 4.443 4.395 6.149l50.128 28.942c5.871 3.395 15.414 3.395 21.285 0l50.128-28.942c2.886-1.673 4.362-3.854 4.395-6.035v-.295l.033.017v-25.063c.003-.1.003-.201 0-.302v-1.266l-.011-.006z" clip-rule="evenodd" fill-rule="evenodd" opacity=".2"></path><path fill="#4381DD" d="M643.099 247.342c-.003-2.224-1.47-4.447-4.403-6.143l-50.128-28.942c-5.871-3.395-15.414-3.395-21.285 0l-50.128 28.942c-2.877 1.663-4.344 3.835-4.401 6.016l-.008.002v11.643c0 2.23 1.476 4.444 4.395 6.149l50.128 28.942c2.94 1.7 6.802 2.549 10.662 2.546v.045c3.853 0 7.707-.853 10.642-2.542l50.128-28.942c2.886-1.672 4.362-3.853 4.395-6.034v-.326l.014.014v-9.796c.003-.1.003-.201 0-.302v-1.266l-.011-.006zm-18.226 5.78l-43.537 25.136c-1.886 1.083-4.936 1.083-6.821 0l-43.534-25.134 43.536-25.142c1.886-1.082 4.936-1.082 6.821 0l43.535 25.14z" clip-rule="evenodd" fill-rule="evenodd"></path><path fill="#C1C0F7" d="M517.153 253.498l50.128 28.942c5.871 3.394 15.414 3.394 21.285 0l50.128-28.942c5.871-3.395 5.871-8.905 0-12.299l-50.128-28.942c-5.871-3.395-15.414-3.395-21.285 0l-50.128 28.942c-5.871 3.394-5.871 8.904 0 12.299zm57.36-37.06c1.886-1.082 4.936-1.082 6.821 0l50.129 28.943c1.886 1.082 1.886 2.853 0 3.935l-50.129 28.942c-1.885 1.083-4.935 1.083-6.821 0l-50.129-28.942c-1.885-1.082-1.885-2.853 0-3.935l50.129-28.943z" clip-rule="evenodd" fill-rule="evenodd"></path><path fill="#25FFFF" d="M581.337 216.438c-1.886-1.082-4.936-1.082-6.822 0l-50.128 28.943c-1.886 1.082-1.886 2.853 0 3.935l50.128 28.942c1.886 1.083 4.936 1.083 6.822 0l50.128-28.942c1.886-1.082 1.886-2.853 0-3.935l-50.128-28.943z" opacity=".65"></path><path fill-opacity=".4" fill="#42E8E0" d="M586.385 61.9515c-5.071-2.9037-13.272-2.9037-18.343 0l-134.79 77.6525c-5.07 2.903-5.07 7.655 0 10.559l134.79 77.652c5.071 2.903 13.272 2.903 18.343 0l134.79-77.652c5.07-2.904 5.07-7.656 0-10.559l-134.79-77.6525z"></path><path fill="#25FFFF" d="M721.175 139.604l-134.79-77.6525c-5.071-2.9037-13.272-2.9037-18.343 0l-134.79 77.6525c-5.07 2.903-5.07 7.655 0 10.559l134.79 77.652c5.071 2.903 13.272 2.903 18.343 0l134.79-77.652c5.07-2.904 5.07-7.656 0-10.559zm-135.15 87.582l134.788-77.651.002-.001c2.402-1.376 3.438-3.088 3.438-4.651 0-1.563-1.036-3.275-3.438-4.651l-.002-.001-134.788-77.6509c-.001-.0001 0 .0001 0 0-2.4-1.3741-5.587-2.082-8.812-2.082-3.224 0-6.41.7075-8.81 2.0816 0 .0001-.001.0003-.001.0004l-134.79 77.6519c-2.402 1.376-3.438 3.088-3.438 4.651 0 1.563 1.036 3.275 3.438 4.651l.002.001 134.788 77.651c2.4 1.374 5.586 2.082 8.811 2.082 3.226 0 6.412-.708 8.812-2.082z" clip-rule="evenodd" fill-rule="evenodd"></path><path fill="#718096" d="M84.024 181.456c7.168 0 12.9067 1.6 17.216 4.8 4.309 3.157 6.464 8.917 6.464 17.28 0 8.235-2.069 14.037-6.208 17.408-4.1387 3.371-9.7067 5.056-16.704 5.056h-15.04v-44.544h14.272zm-1.088 9.28v25.984h2.624c2.048 0 3.6907-.405 4.928-1.216 1.2373-.811 2.1547-2.155 2.752-4.032.5973-1.92.896-4.565.896-7.936 0-3.328-.32-5.909-.96-7.744-.5973-1.877-1.5147-3.179-2.752-3.904-1.2373-.768-2.8373-1.152-4.8-1.152h-2.688zm56.415 24.192c0 1.195.149 2.091.448 2.688.299.555.832.981 1.6 1.28l-2.56 8.128c-2.304-.171-4.181-.597-5.632-1.28-1.451-.725-2.645-1.877-3.584-3.456-2.219 3.328-5.653 4.992-10.304 4.992-3.371 0-6.101-1.003-8.192-3.008-2.048-2.048-3.072-4.672-3.072-7.872 0-3.797 1.408-6.699 4.224-8.704 2.816-2.005 6.912-3.008 12.288-3.008h2.432v-.832c0-1.707-.341-2.859-1.024-3.456s-1.984-.896-3.904-.896c-1.024 0-2.347.171-3.968.512-1.579.299-3.2.725-4.864 1.28l-2.752-8.064c2.091-.853 4.352-1.515 6.784-1.984 2.475-.469 4.715-.704 6.72-.704 5.376 0 9.28 1.045 11.712 3.136 2.432 2.048 3.648 5.205 3.648 9.472v11.776zm-16.128 3.456c.768 0 1.472-.192 2.112-.576.683-.384 1.237-.875 1.664-1.472v-5.056h-1.344c-1.792 0-3.115.32-3.968.96-.853.64-1.28 1.621-1.28 2.944 0 .981.256 1.771.768 2.368.512.555 1.195.832 2.048.832zm44.466 5.952c-1.323.939-2.944 1.664-4.864 2.176-1.877.512-3.669.768-5.376.768-4.224-.043-7.36-1.216-9.408-3.52-2.005-2.347-3.008-5.803-3.008-10.368V200.4h-4.096v-8.576h4.096v-7.168l12.672-1.472v8.64h7.68l-1.28 8.576h-6.4v12.864c0 1.493.235 2.56.704 3.2.469.597 1.131.896 1.984.896 1.067 0 2.133-.299 3.2-.896l4.096 7.872zm29.102-9.408c0 1.195.149 2.091.448 2.688.299.555.832.981 1.6 1.28l-2.56 8.128c-2.304-.171-4.181-.597-5.632-1.28-1.451-.725-2.645-1.877-3.584-3.456-2.219 3.328-5.653 4.992-10.304 4.992-3.371 0-6.101-1.003-8.192-3.008-2.048-2.048-3.072-4.672-3.072-7.872 0-3.797 1.408-6.699 4.224-8.704 2.816-2.005 6.912-3.008 12.288-3.008h2.432v-.832c0-1.707-.341-2.859-1.024-3.456s-1.984-.896-3.904-.896c-1.024 0-2.347.171-3.968.512-1.579.299-3.2.725-4.864 1.28l-2.752-8.064c2.091-.853 4.352-1.515 6.784-1.984 2.475-.469 4.715-.704 6.72-.704 5.376 0 9.28 1.045 11.712 3.136 2.432 2.048 3.648 5.205 3.648 9.472v11.776zm-16.128 3.456c.768 0 1.472-.192 2.112-.576.683-.384 1.237-.875 1.664-1.472v-5.056h-1.344c-1.792 0-3.115.32-3.968.96-.853.64-1.28 1.621-1.28 2.944 0 .981.256 1.771.768 2.368.512.555 1.195.832 2.048.832zm47.649-36.928c7.168 0 12.906 1.6 17.216 4.8 4.309 3.157 6.464 8.917 6.464 17.28 0 8.235-2.07 14.037-6.208 17.408-4.139 3.371-9.707 5.056-16.704 5.056h-15.04v-44.544h14.272zm-1.088 9.28v25.984h2.624c2.048 0 3.69-.405 4.928-1.216 1.237-.811 2.154-2.155 2.752-4.032.597-1.92.896-4.565.896-7.936 0-3.328-.32-5.909-.96-7.744-.598-1.877-1.515-3.179-2.752-3.904-1.238-.768-2.838-1.152-4.8-1.152h-2.688zM277.766 202l12.416 24h-14.208l-6.144-15.296L264.07 226h-13.952l11.904-23.616-11.072-20.928h14.144l4.864 12.8 5.44-12.8h13.888L277.766 202z"></path><path fill="#fff" d="M116.664 294h-12.992l-.32-15.808c-.043-1.237-.064-3.093-.064-5.568 0-4.352.171-8.555.512-12.608l-5.248 29.504h-12.48l-5.632-29.504c.5547 5.931.832 11.008.832 15.232v2.88L80.952 294H67.96l3.2-44.544h16.256l5.12 28.864 4.608-28.864h16.32l3.2 44.544zm31.937-11.072c0 1.195.149 2.091.448 2.688.299.555.832.981 1.6 1.28l-2.56 8.128c-2.304-.171-4.181-.597-5.632-1.28-1.451-.725-2.645-1.877-3.584-3.456-2.219 3.328-5.653 4.992-10.304 4.992-3.371 0-6.101-1.003-8.192-3.008-2.048-2.048-3.072-4.672-3.072-7.872 0-3.797 1.408-6.699 4.224-8.704 2.816-2.005 6.912-3.008 12.288-3.008h2.432v-.832c0-1.707-.341-2.859-1.024-3.456s-1.984-.896-3.904-.896c-1.024 0-2.347.171-3.968.512-1.579.299-3.2.725-4.864 1.28l-2.752-8.064c2.091-.853 4.352-1.515 6.784-1.984 2.475-.469 4.715-.704 6.72-.704 5.376 0 9.28 1.045 11.712 3.136 2.432 2.048 3.648 5.205 3.648 9.472v11.776zm-16.128 3.456c.768 0 1.472-.192 2.112-.576.683-.384 1.237-.875 1.664-1.472v-5.056h-1.344c-1.792 0-3.115.32-3.968.96-.853.64-1.28 1.621-1.28 2.944 0 .981.256 1.771.768 2.368.512.555 1.195.832 2.048.832zm42.866-27.84c2.859 0 5.099.896 6.72 2.688 1.664 1.792 2.496 4.309 2.496 7.552V294h-12.672v-22.912c0-1.28-.171-2.155-.512-2.624-.299-.469-.768-.704-1.408-.704-1.408 0-2.837 1.131-4.288 3.392V294h-12.672v-34.176h11.072l.896 3.52c1.579-1.664 3.179-2.88 4.8-3.648 1.664-.768 3.52-1.152 5.568-1.152zm25.681 1.28V294h-12.672v-34.176h12.672zm-6.336-18.88c2.048 0 3.733.661 5.056 1.984 1.365 1.28 2.048 2.88 2.048 4.8s-.683 3.541-2.048 4.864c-1.323 1.28-3.008 1.92-5.056 1.92s-3.755-.64-5.12-1.92c-1.323-1.323-1.984-2.944-1.984-4.864s.661-3.52 1.984-4.8c1.365-1.323 3.072-1.984 5.12-1.984zm28.431 13.248c-1.238 0-2.134.32-2.688.96-.555.64-.832 1.749-.832 3.328v1.344h7.936l-1.408 8.576h-6.528V294h-12.672v-25.6h-4.608v-8.576h4.608v-1.984c0-3.712 1.237-6.763 3.712-9.152 2.474-2.389 6.058-3.584 10.752-3.584 1.792 0 3.605.235 5.44.704 1.834.427 3.37.981 4.608 1.664l-3.328 8c-1.579-.853-3.243-1.28-4.992-1.28zm35.928 22.272c0 1.067-.086 2.411-.256 4.032h-20.736c.341 2.304 1.045 3.861 2.112 4.672 1.109.768 2.688 1.152 4.736 1.152 1.194 0 2.41-.235 3.648-.704 1.237-.512 2.602-1.28 4.096-2.304l5.12 6.912c-4.139 3.371-8.832 5.056-14.08 5.056-6.059 0-10.646-1.664-13.76-4.992-3.115-3.371-4.672-7.808-4.672-13.312 0-3.413.64-6.507 1.92-9.28 1.322-2.816 3.264-5.035 5.824-6.656 2.56-1.664 5.653-2.496 9.28-2.496 3.37 0 6.314.704 8.832 2.112 2.517 1.408 4.458 3.456 5.824 6.144 1.408 2.688 2.112 5.909 2.112 9.664zm-12.48-3.584c-.043-2.005-.363-3.563-.96-4.672-.555-1.109-1.579-1.664-3.072-1.664-1.408 0-2.475.491-3.2 1.472-.683.981-1.131 2.752-1.344 5.312h8.576v-.448zm28.329-14.336c2.517 0 4.928.405 7.232 1.216 2.346.768 4.309 1.835 5.888 3.2l-4.48 6.848c-1.238-.768-2.56-1.365-3.968-1.792-1.408-.469-2.795-.704-4.16-.704-1.92 0-2.88.512-2.88 1.536 0 .427.128.789.384 1.088.256.256.853.597 1.792 1.024.981.384 2.538.896 4.672 1.536 3.413 1.067 5.93 2.432 7.552 4.096 1.664 1.621 2.496 3.925 2.496 6.912 0 2.304-.704 4.352-2.112 6.144-1.366 1.792-3.286 3.179-5.76 4.16-2.432.981-5.206 1.472-8.32 1.472-2.987 0-5.803-.469-8.448-1.408-2.603-.981-4.8-2.325-6.592-4.032l6.016-6.656c1.28 1.024 2.666 1.856 4.16 2.496 1.536.597 3.05.896 4.544.896 1.152 0 2.026-.171 2.624-.512.64-.384.96-.917.96-1.6 0-.597-.15-1.045-.448-1.344-.256-.341-.811-.661-1.664-.96-.854-.341-2.347-.832-4.48-1.472-6.614-1.963-9.92-5.653-9.92-11.072 0-2.091.576-3.968 1.728-5.632 1.194-1.664 2.901-2.987 5.12-3.968 2.261-.981 4.949-1.472 8.064-1.472zm40.522 33.792c-1.323.939-2.944 1.664-4.864 2.176-1.877.512-3.669.768-5.376.768-4.224-.043-7.36-1.216-9.408-3.52-2.005-2.347-3.008-5.803-3.008-10.368V268.4h-4.096v-8.576h4.096v-7.168l12.672-1.472v8.64h7.68l-1.28 8.576h-6.4v12.864c0 1.493.235 2.56.704 3.2.469.597 1.131.896 1.984.896 1.067 0 2.133-.299 3.2-.896l4.096 7.872zm15.221-33.792c5.462 0 9.75 1.6 12.864 4.8 3.158 3.2 4.736 7.744 4.736 13.632 0 3.669-.725 6.891-2.176 9.664-1.408 2.773-3.434 4.907-6.08 6.4-2.645 1.493-5.76 2.24-9.344 2.24-5.461 0-9.77-1.6-12.928-4.8-3.114-3.2-4.672-7.744-4.672-13.632 0-3.669.704-6.891 2.112-9.664 1.451-2.773 3.499-4.907 6.144-6.4 2.646-1.493 5.76-2.24 9.344-2.24zm0 9.088c-1.621 0-2.794.725-3.52 2.176-.725 1.451-1.088 3.797-1.088 7.04 0 3.371.363 5.781 1.088 7.232.726 1.408 1.899 2.112 3.52 2.112 1.622 0 2.795-.725 3.52-2.176.726-1.451 1.088-3.797 1.088-7.04 0-3.371-.362-5.76-1.088-7.168-.725-1.451-1.898-2.176-3.52-2.176z"></path></g><defs><linearGradient gradientUnits="userSpaceOnUse" y2="203.538" x2="1.0865" y1="0" x1="1.0865" id="paint0_linear_568_994"><stop stop-color="#42E8E0"></stop><stop stop-opacity="0" stop-color="#42E8E0" offset="1"></stop></linearGradient><linearGradient gradientUnits="userSpaceOnUse" y2="203.538" x2="1.0865" y1="0" x1="1.0865" id="paint1_linear_568_994"><stop stop-color="#42E8E0"></stop><stop stop-opacity="0" stop-color="#42E8E0" offset="1"></stop></linearGradient><linearGradient gradientUnits="userSpaceOnUse" y2="203.538" x2="1.0865" y1="0" x1="1.0865" id="paint2_linear_568_994"><stop stop-color="#42E8E0"></stop><stop stop-opacity="0" stop-color="#42E8E0" offset="1"></stop></linearGradient><linearGradient gradientUnits="userSpaceOnUse" y2="203.538" x2="1.0865" y1="0" x1="1.0865" id="paint3_linear_568_994"><stop stop-color="#42E8E0"></stop><stop stop-opacity="0" stop-color="#42E8E0" offset="1"></stop></linearGradient><linearGradient gradientUnits="userSpaceOnUse" y2="203.538" x2="1.0865" y1="0" x1="1.0865" id="paint4_linear_568_994"><stop stop-color="#42E8E0"></stop><stop stop-opacity="0" stop-color="#42E8E0" offset="1"></stop></linearGradient><linearGradient gradientUnits="userSpaceOnUse" y2="203.538" x2="1.0865" y1="0" x1="1.0865" id="paint5_linear_568_994"><stop stop-color="#42E8E0"></stop><stop stop-opacity="0" stop-color="#42E8E0" offset="1"></stop></linearGradient><linearGradient gradientUnits="userSpaceOnUse" y2="203.538" x2="1.0865" y1="0" x1="1.0865" id="paint6_linear_568_994"><stop stop-color="#42E8E0"></stop><stop stop-opacity="0" stop-color="#42E8E0" offset="1"></stop></linearGradient><linearGradient gradientUnits="userSpaceOnUse" y2="203.538" x2="1.0865" y1="0" x1="1.0865" id="paint7_linear_568_994"><stop stop-color="#42E8E0"></stop><stop stop-opacity="0" stop-color="#42E8E0" offset="1"></stop></linearGradient><linearGradient gradientUnits="userSpaceOnUse" y2="203.538" x2="1.0865" y1="0" x1="1.0865" id="paint8_linear_568_994"><stop stop-color="#42E8E0"></stop><stop stop-opacity="0" stop-color="#42E8E0" offset="1"></stop></linearGradient><linearGradient gradientUnits="userSpaceOnUse" y2="203.538" x2="1.0865" y1="0" x1="1.0865" id="paint9_linear_568_994"><stop stop-color="#42E8E0"></stop><stop stop-opacity="0" stop-color="#42E8E0" offset="1"></stop></linearGradient><linearGradient gradientUnits="userSpaceOnUse" y2="203.538" x2="1.0865" y1="0" x1="1.0865" id="paint10_linear_568_994"><stop stop-color="#42E8E0"></stop><stop stop-opacity="0" stop-color="#42E8E0" offset="1"></stop></linearGradient><linearGradient gradientUnits="userSpaceOnUse" y2="203.538" x2="1.0865" y1="0" x1="1.0865" id="paint11_linear_568_994"><stop stop-color="#42E8E0"></stop><stop stop-opacity="0" stop-color="#42E8E0" offset="1"></stop></linearGradient><clipPath id="clip0_568_994"><path d="M0 0h844v474H0z" fill="#fff"></path></clipPath><filter color-interpolation-filters="sRGB" filterUnits="userSpaceOnUse" height="1036.85" width="1298.22" y="-231.492" x="-57.3463" id="filter0_f_568_994"><feFlood result="BackgroundImageFix" flood-opacity="0"></feFlood><feBlend result="shape" in2="BackgroundImageFix" in="SourceGraphic"></feBlend><feGaussianBlur result="effect1_foregroundBlur_568_994" stdDeviation="178.921"></feGaussianBlur></filter></defs></svg>
