<svg xmlns="http://www.w3.org/2000/svg" fill="none" viewBox="0 0 844 474" height="474" width="844">
<g clip-path="url(#clip0_7078_9185)">
<rect fill="#A3BFFA" height="474" width="844"></rect>
<g filter="url(#filter0_f_7078_9185)">
<ellipse fill="#E6F0FF" ry="46.3028" rx="81.6333" cy="252.581" cx="420.998"></ellipse>
</g>
<path fill-opacity="0.1" fill="white" d="M326.098 297.323L422.521 131.261L518.229 297.323L422.521 353.748L326.098 297.323Z"></path>
<path stroke-width="1.75556" stroke="url(#paint0_linear_7078_9185)" d="M326.098 297.323L422.521 131.261L518.229 297.323M326.098 297.323L422.521 353.748L518.229 297.323M326.098 297.323L374.31 269.914L422.521 242.505L518.229 297.323"></path>
<path stroke-linejoin="round" stroke-width="1.75556" stroke="#535BCB" fill="#FAF089" d="M714.466 200.004L701.009 207.773L714.466 215.543L727.923 207.773L721.195 203.889L714.466 200.004Z"></path>
<path stroke-linejoin="round" stroke-width="1.75556" stroke="#535BCB" fill="url(#paint1_linear_7078_9185)" d="M701.009 223.328L714.466 231.098V215.559L701.009 207.79V223.328Z"></path>
<path stroke-linejoin="round" stroke-width="1.75556" stroke="#535BCB" fill="url(#paint2_linear_7078_9185)" d="M727.923 223.329V207.79L714.466 215.56V231.098L727.923 223.329Z"></path>
<path stroke-linejoin="round" stroke-width="1.75556" stroke="#535BCB" fill="#FAF089" d="M399.343 229.211L376.1 242.631L399.343 256.05L422.586 242.631L410.965 235.921L399.343 229.211Z"></path>
<path stroke-linejoin="round" stroke-width="1.75556" stroke="#535BCB" fill="url(#paint3_linear_7078_9185)" d="M376.1 269.498L399.343 282.918V256.079L376.1 242.659V269.498Z"></path>
<path stroke-linejoin="round" stroke-width="1.75556" stroke="#535BCB" fill="url(#paint4_linear_7078_9185)" d="M422.586 269.5V242.661L399.343 256.08V282.919L422.586 269.5Z"></path>
<path stroke-linejoin="round" stroke-width="1.75556" stroke="#535BCB" fill="#FAF089" d="M714.466 179.067L701.009 186.836L714.466 194.605L727.923 186.836L721.195 182.951L714.466 179.067Z"></path>
<path stroke-linejoin="round" stroke-width="1.75556" stroke="#535BCB" fill="url(#paint5_linear_7078_9185)" d="M701.009 202.391L714.466 210.16V194.622L701.009 186.852V202.391Z"></path>
<path stroke-linejoin="round" stroke-width="1.75556" stroke="#535BCB" fill="url(#paint6_linear_7078_9185)" d="M727.923 202.392V186.853L714.466 194.622V210.161L727.923 202.392Z"></path>
<path stroke-linejoin="round" stroke-width="1.75556" stroke="#535BCB" fill="#EBF4FF" d="M445.786 229.211L422.542 242.631L445.786 256.05L469.029 242.631L457.407 235.921L445.786 229.211Z"></path>
<path stroke-linejoin="round" stroke-width="1.75556" stroke="#535BCB" fill="url(#paint7_linear_7078_9185)" d="M422.542 269.498L445.786 282.918V256.079L422.542 242.659V269.498Z"></path>
<path stroke-linejoin="round" stroke-width="1.75556" stroke="#535BCB" fill="url(#paint8_linear_7078_9185)" d="M469.029 269.5V242.661L445.786 256.08V282.919L469.029 269.5Z"></path>
<path stroke-linejoin="round" stroke-width="1.75556" stroke="#535BCB" fill="#EBF4FF" d="M532.526 170.76L509.283 184.18L532.526 197.599L555.769 184.18L544.148 177.47L532.526 170.76Z"></path>
<path stroke-linejoin="round" stroke-width="1.75556" stroke="#535BCB" fill="url(#paint9_linear_7078_9185)" d="M509.283 211.047L532.526 224.466V197.627L509.283 184.208V211.047Z"></path>
<path stroke-linejoin="round" stroke-width="1.75556" stroke="#535BCB" fill="url(#paint10_linear_7078_9185)" d="M555.769 211.049V184.21L532.526 197.629V224.468L555.769 211.049Z"></path>
<path stroke-linejoin="round" stroke-width="1.75556" stroke="#535BCB" fill="#9AE6B4" d="M422.375 189.009L399.132 202.429L422.375 215.848L445.618 202.429L433.997 195.719L422.375 189.009Z"></path>
<path stroke-linejoin="round" stroke-width="1.75556" stroke="#535BCB" fill="url(#paint11_linear_7078_9185)" d="M399.132 229.296L422.375 242.716V215.877L399.132 202.457V229.296Z"></path>
<path stroke-linejoin="round" stroke-width="1.75556" stroke="#535BCB" fill="url(#paint12_linear_7078_9185)" d="M445.618 229.298V202.459L422.375 215.878V242.717L445.618 229.298Z"></path>
<path stroke-linejoin="round" stroke-width="1.75556" stroke="#535BCB" fill="#EBF4FF" d="M163.059 321.135L139.816 334.555L163.059 347.974L186.302 334.555L174.681 327.845L163.059 321.135Z"></path>
<path stroke-linejoin="round" stroke-width="1.75556" stroke="#535BCB" fill="url(#paint13_linear_7078_9185)" d="M139.816 361.422L163.059 374.842V348.003L139.816 334.583V361.422Z"></path>
<path stroke-linejoin="round" stroke-width="1.75556" stroke="#535BCB" fill="url(#paint14_linear_7078_9185)" d="M186.302 361.424V334.585L163.059 348.004V374.843L186.302 361.424Z"></path>
<path stroke-linejoin="round" stroke-width="1.75556" stroke="#535BCB" fill="#9AE6B4" d="M183.997 352.656L169.552 360.997L183.997 369.337L198.443 360.997L191.22 356.827L183.997 352.656Z"></path>
<path stroke-linejoin="round" stroke-width="1.75556" stroke="#535BCB" fill="url(#paint15_linear_7078_9185)" d="M169.552 377.695L183.997 386.035V369.355L169.552 361.015V377.695Z"></path>
<path stroke-linejoin="round" stroke-width="1.75556" stroke="#535BCB" fill="url(#paint16_linear_7078_9185)" d="M198.443 377.696V361.015L183.997 369.355V386.036L198.443 377.696Z"></path>
<path stroke-linejoin="round" stroke-width="1.75556" stroke="#535BCB" fill="#9AE6B4" d="M202.419 363.847L187.974 372.188L202.419 380.528L216.865 372.188L209.642 368.017L202.419 363.847Z"></path>
<path stroke-linejoin="round" stroke-width="1.75556" stroke="#535BCB" fill="url(#paint17_linear_7078_9185)" d="M187.974 388.886L202.419 397.226V380.545L187.974 372.205V388.886Z"></path>
<path stroke-linejoin="round" stroke-width="1.75556" stroke="#535BCB" fill="url(#paint18_linear_7078_9185)" d="M216.865 388.887V372.206L202.419 380.546V397.227L216.865 388.887Z"></path>
<path stroke-linejoin="round" stroke-width="1.75556" stroke="#535BCB" fill="#FAF089" d="M422.736 269.478L399.493 282.897L422.736 296.317L445.979 282.897L434.357 276.188L422.736 269.478Z"></path>
<path stroke-linejoin="round" stroke-width="1.75556" stroke="#535BCB" fill="url(#paint19_linear_7078_9185)" d="M399.493 309.765L422.736 323.184V296.345L399.493 282.926V309.765Z"></path>
<path stroke-linejoin="round" stroke-width="1.75556" stroke="#535BCB" fill="url(#paint20_linear_7078_9185)" d="M445.979 309.766V282.927L422.736 296.347V323.186L445.979 309.766Z"></path>
<path stroke-dasharray="3.51 3.51" stroke-width="1.75556" stroke="#535BCB" d="M422.583 131.68V354.524"></path>
<path stroke-width="1.75556" stroke="#535BCB" fill-opacity="0.1" fill="#BDCEFB" d="M550.249 249.71L634.954 201.029C635.363 200.794 635.615 200.359 635.615 199.888V102.542C635.615 101.53 634.52 100.896 633.642 101.401L548.937 150.082C548.528 150.317 548.276 150.752 548.276 151.224V248.569C548.276 249.581 549.371 250.215 550.249 249.71Z"></path>
<path fill="#EBF4FF" d="M650.976 206.035C650.976 206.819 650.558 207.543 649.879 207.935L565.612 256.604C564.149 257.449 562.32 256.393 562.32 254.704V157.365C562.32 156.581 562.739 155.857 563.417 155.465L647.684 106.796C649.147 105.951 650.976 107.007 650.976 108.696V206.035Z"></path>
<path fill="#EBF4FF" d="M107.764 143.871C107.764 144.718 108.226 145.634 109.302 146.574C110.377 147.512 111.983 148.398 114.043 149.159C118.157 150.678 123.898 151.636 130.282 151.636C136.667 151.636 142.408 150.678 146.521 149.159C148.581 148.398 150.187 147.512 151.262 146.574C152.338 145.634 152.8 144.718 152.8 143.871C152.8 143.024 152.338 142.108 151.262 141.167C150.187 140.229 148.581 139.344 146.521 138.582C142.408 137.063 136.667 136.105 130.282 136.105C123.898 136.105 118.157 137.063 114.043 138.582C111.983 139.344 110.377 140.229 109.302 141.167C108.226 142.108 107.764 143.024 107.764 143.871Z"></path>
<path stroke-width="1.75556" stroke-opacity="0.46" stroke="url(#paint21_radial_7078_9185)" d="M107.764 143.871C107.764 144.718 108.226 145.634 109.302 146.574C110.377 147.512 111.983 148.398 114.043 149.159C118.157 150.678 123.898 151.636 130.282 151.636C136.667 151.636 142.408 150.678 146.521 149.159C148.581 148.398 150.187 147.512 151.262 146.574C152.338 145.634 152.8 144.718 152.8 143.871C152.8 143.024 152.338 142.108 151.262 141.167C150.187 140.229 148.581 139.344 146.521 138.582C142.408 137.063 136.667 136.105 130.282 136.105C123.898 136.105 118.157 137.063 114.043 138.582C111.983 139.344 110.377 140.229 109.302 141.167C108.226 142.108 107.764 143.024 107.764 143.871Z"></path>
<path stroke-width="1.75556" stroke="#535BCB" d="M107.764 143.871C107.764 144.718 108.226 145.634 109.302 146.574C110.377 147.512 111.983 148.398 114.043 149.159C118.157 150.678 123.898 151.636 130.282 151.636C136.667 151.636 142.408 150.678 146.521 149.159C148.581 148.398 150.187 147.512 151.262 146.574C152.338 145.634 152.8 144.718 152.8 143.871C152.8 143.024 152.338 142.108 151.262 141.167C150.187 140.229 148.581 139.344 146.521 138.582C142.408 137.063 136.667 136.105 130.282 136.105C123.898 136.105 118.157 137.063 114.043 138.582C111.983 139.344 110.377 140.229 109.302 141.167C108.226 142.108 107.764 143.024 107.764 143.871Z"></path>
<path stroke-width="1.75556" stroke-opacity="0.46" stroke="url(#paint22_radial_7078_9185)" d="M107.541 143.628V152.684C107.541 157.324 117.722 161.085 130.282 161.085C142.842 161.085 153.023 157.324 153.023 152.684V143.628"></path>
<path stroke-width="1.75556" stroke="#535BCB" d="M107.541 143.628V152.684C107.541 157.324 117.722 161.085 130.282 161.085C142.842 161.085 153.023 157.324 153.023 152.684V143.628"></path>
<path stroke-width="1.75556" stroke-opacity="0.46" stroke="url(#paint23_radial_7078_9185)" d="M107.541 153.773V162.829C107.541 167.469 117.722 171.23 130.282 171.23C142.842 171.23 153.023 167.469 153.023 162.829V153.773"></path>
<path stroke-width="1.75556" stroke="#535BCB" d="M107.541 153.773V162.829C107.541 167.469 117.722 171.23 130.282 171.23C142.842 171.23 153.023 167.469 153.023 162.829V153.773"></path>
<path stroke-width="1.75556" stroke-opacity="0.46" stroke="url(#paint24_radial_7078_9185)" d="M107.541 163.917V172.972C107.541 177.612 117.722 181.374 130.282 181.374C142.842 181.374 153.023 177.612 153.023 172.972V163.917"></path>
<path stroke-width="1.75556" stroke="#535BCB" d="M107.541 163.917V172.972C107.541 177.612 117.722 181.374 130.282 181.374C142.842 181.374 153.023 177.612 153.023 172.972V163.917"></path>
<path fill="#EBF4FF" d="M122.489 140.166C122.489 140.231 122.524 140.413 122.857 140.693C123.186 140.97 123.715 141.259 124.445 141.518C125.897 142.034 127.961 142.37 130.282 142.37C132.603 142.37 134.667 142.034 136.119 141.518C136.849 141.259 137.378 140.97 137.707 140.693C138.04 140.413 138.075 140.231 138.075 140.166C138.075 140.1 138.04 139.918 137.707 139.638C137.378 139.361 136.849 139.072 136.119 138.813C134.667 138.297 132.603 137.961 130.282 137.961C127.961 137.961 125.897 138.297 124.445 138.813C123.715 139.072 123.186 139.361 122.857 139.638C122.524 139.918 122.489 140.1 122.489 140.166Z"></path>
<path stroke-width="1.75556" stroke-opacity="0.46" stroke="url(#paint25_radial_7078_9185)" d="M122.489 140.166C122.489 140.231 122.524 140.413 122.857 140.693C123.186 140.97 123.715 141.259 124.445 141.518C125.897 142.034 127.961 142.37 130.282 142.37C132.603 142.37 134.667 142.034 136.119 141.518C136.849 141.259 137.378 140.97 137.707 140.693C138.04 140.413 138.075 140.231 138.075 140.166C138.075 140.1 138.04 139.918 137.707 139.638C137.378 139.361 136.849 139.072 136.119 138.813C134.667 138.297 132.603 137.961 130.282 137.961C127.961 137.961 125.897 138.297 124.445 138.813C123.715 139.072 123.186 139.361 122.857 139.638C122.524 139.918 122.489 140.1 122.489 140.166Z"></path>
<path stroke-width="1.75556" stroke="#535BCB" d="M122.489 140.166C122.489 140.231 122.524 140.413 122.857 140.693C123.186 140.97 123.715 141.259 124.445 141.518C125.897 142.034 127.961 142.37 130.282 142.37C132.603 142.37 134.667 142.034 136.119 141.518C136.849 141.259 137.378 140.97 137.707 140.693C138.04 140.413 138.075 140.231 138.075 140.166C138.075 140.1 138.04 139.918 137.707 139.638C137.378 139.361 136.849 139.072 136.119 138.813C134.667 138.297 132.603 137.961 130.282 137.961C127.961 137.961 125.897 138.297 124.445 138.813C123.715 139.072 123.186 139.361 122.857 139.638C122.524 139.918 122.489 140.1 122.489 140.166Z"></path>
<path stroke-width="1.75556" stroke-opacity="0.46" stroke="url(#paint26_radial_7078_9185)" d="M122.172 140.408V143.638C122.172 145.293 125.803 146.634 130.282 146.634C134.761 146.634 138.393 145.293 138.393 143.638V140.408"></path>
<path stroke-width="1.75556" stroke="#535BCB" d="M122.172 140.408V143.638C122.172 145.293 125.803 146.634 130.282 146.634C134.761 146.634 138.393 145.293 138.393 143.638V140.408"></path>
<path fill="#EBF4FF" d="M162.917 143.845C162.917 144.692 163.379 145.608 164.455 146.548C165.53 147.487 167.136 148.372 169.196 149.133C173.309 150.653 179.05 151.61 185.435 151.61C191.819 151.61 197.561 150.653 201.674 149.133C203.734 148.372 205.34 147.487 206.415 146.548C207.491 145.608 207.953 144.692 207.953 143.845C207.953 142.998 207.491 142.082 206.415 141.142C205.34 140.203 203.734 139.318 201.674 138.557C197.561 137.037 191.819 136.08 185.435 136.08C179.05 136.08 173.309 137.037 169.196 138.557C167.136 139.318 165.53 140.203 164.455 141.142C163.379 142.082 162.917 142.998 162.917 143.845Z"></path>
<path stroke-width="1.75556" stroke-opacity="0.46" stroke="url(#paint27_radial_7078_9185)" d="M162.917 143.845C162.917 144.692 163.379 145.608 164.455 146.548C165.53 147.487 167.136 148.372 169.196 149.133C173.309 150.653 179.05 151.61 185.435 151.61C191.819 151.61 197.561 150.653 201.674 149.133C203.734 148.372 205.34 147.487 206.415 146.548C207.491 145.608 207.953 144.692 207.953 143.845C207.953 142.998 207.491 142.082 206.415 141.142C205.34 140.203 203.734 139.318 201.674 138.557C197.561 137.037 191.819 136.08 185.435 136.08C179.05 136.08 173.309 137.037 169.196 138.557C167.136 139.318 165.53 140.203 164.455 141.142C163.379 142.082 162.917 142.998 162.917 143.845Z"></path>
<path stroke-width="1.75556" stroke="#535BCB" d="M162.917 143.845C162.917 144.692 163.379 145.608 164.455 146.548C165.53 147.487 167.136 148.372 169.196 149.133C173.309 150.653 179.05 151.61 185.435 151.61C191.819 151.61 197.561 150.653 201.674 149.133C203.734 148.372 205.34 147.487 206.415 146.548C207.491 145.608 207.953 144.692 207.953 143.845C207.953 142.998 207.491 142.082 206.415 141.142C205.34 140.203 203.734 139.318 201.674 138.557C197.561 137.037 191.819 136.08 185.435 136.08C179.05 136.08 173.309 137.037 169.196 138.557C167.136 139.318 165.53 140.203 164.455 141.142C163.379 142.082 162.917 142.998 162.917 143.845Z"></path>
<path stroke-width="1.75556" stroke-opacity="0.46" stroke="url(#paint28_radial_7078_9185)" d="M162.694 143.604V152.66C162.694 157.3 172.875 161.061 185.435 161.061C197.994 161.061 208.176 157.3 208.176 152.66V143.604"></path>
<path stroke-width="1.75556" stroke="#535BCB" d="M162.694 143.604V152.66C162.694 157.3 172.875 161.061 185.435 161.061C197.994 161.061 208.176 157.3 208.176 152.66V143.604"></path>
<path stroke-width="1.75556" stroke-opacity="0.46" stroke="url(#paint29_radial_7078_9185)" d="M162.694 153.746V162.802C162.694 167.442 172.875 171.203 185.435 171.203C197.994 171.203 208.176 167.442 208.176 162.802V153.746"></path>
<path stroke-width="1.75556" stroke="#535BCB" d="M162.694 153.746V162.802C162.694 167.442 172.875 171.203 185.435 171.203C197.994 171.203 208.176 167.442 208.176 162.802V153.746"></path>
<path stroke-width="1.75556" stroke-opacity="0.46" stroke="url(#paint30_radial_7078_9185)" d="M162.694 163.89V172.946C162.694 177.586 172.875 181.347 185.435 181.347C197.994 181.347 208.176 177.586 208.176 172.946V163.89"></path>
<path stroke-width="1.75556" stroke="#535BCB" d="M162.694 163.89V172.946C162.694 177.586 172.875 181.347 185.435 181.347C197.994 181.347 208.176 177.586 208.176 172.946V163.89"></path>
<path fill="#EBF4FF" d="M177.641 140.143C177.641 140.208 177.676 140.391 178.01 140.671C178.339 140.948 178.867 141.236 179.597 141.496C181.05 142.012 183.113 142.348 185.435 142.348C187.756 142.348 189.82 142.012 191.272 141.496C192.002 141.236 192.531 140.948 192.86 140.671C193.193 140.391 193.228 140.208 193.228 140.143C193.228 140.078 193.193 139.895 192.86 139.615C192.531 139.339 192.002 139.05 191.272 138.79C189.82 138.274 187.756 137.938 185.435 137.938C183.113 137.938 181.05 138.274 179.597 138.79C178.867 139.05 178.339 139.339 178.01 139.615C177.676 139.895 177.641 140.078 177.641 140.143Z"></path>
<path stroke-width="1.75556" stroke-opacity="0.46" stroke="url(#paint31_radial_7078_9185)" d="M177.641 140.143C177.641 140.208 177.676 140.391 178.01 140.671C178.339 140.948 178.867 141.236 179.597 141.496C181.05 142.012 183.113 142.348 185.435 142.348C187.756 142.348 189.82 142.012 191.272 141.496C192.002 141.236 192.531 140.948 192.86 140.671C193.193 140.391 193.228 140.208 193.228 140.143C193.228 140.078 193.193 139.895 192.86 139.615C192.531 139.339 192.002 139.05 191.272 138.79C189.82 138.274 187.756 137.938 185.435 137.938C183.113 137.938 181.05 138.274 179.597 138.79C178.867 139.05 178.339 139.339 178.01 139.615C177.676 139.895 177.641 140.078 177.641 140.143Z"></path>
<path stroke-width="1.75556" stroke="#535BCB" d="M177.641 140.143C177.641 140.208 177.676 140.391 178.01 140.671C178.339 140.948 178.867 141.236 179.597 141.496C181.05 142.012 183.113 142.348 185.435 142.348C187.756 142.348 189.82 142.012 191.272 141.496C192.002 141.236 192.531 140.948 192.86 140.671C193.193 140.391 193.228 140.208 193.228 140.143C193.228 140.078 193.193 139.895 192.86 139.615C192.531 139.339 192.002 139.05 191.272 138.79C189.82 138.274 187.756 137.938 185.435 137.938C183.113 137.938 181.05 138.274 179.597 138.79C178.867 139.05 178.339 139.339 178.01 139.615C177.676 139.895 177.641 140.078 177.641 140.143Z"></path>
<path stroke-width="1.75556" stroke-opacity="0.46" stroke="url(#paint32_radial_7078_9185)" d="M177.324 140.384V143.613C177.324 145.268 180.956 146.61 185.435 146.61C189.914 146.61 193.545 145.268 193.545 143.613V140.384"></path>
<path stroke-width="1.75556" stroke="#535BCB" d="M177.324 140.384V143.613C177.324 145.268 180.956 146.61 185.435 146.61C189.914 146.61 193.545 145.268 193.545 143.613V140.384"></path>
<path fill="#EBF4FF" d="M217.708 143.871C217.708 144.718 218.169 145.634 219.246 146.574C220.321 147.512 221.926 148.398 223.987 149.159C228.1 150.678 233.841 151.636 240.226 151.636C246.61 151.636 252.351 150.678 256.465 149.159C258.525 148.398 260.131 147.512 261.205 146.574C262.282 145.634 262.743 144.718 262.743 143.871C262.743 143.024 262.282 142.108 261.205 141.167C260.131 140.229 258.525 139.344 256.465 138.582C252.351 137.063 246.61 136.105 240.226 136.105C233.841 136.105 228.1 137.063 223.987 138.582C221.926 139.344 220.321 140.229 219.246 141.167C218.169 142.108 217.708 143.024 217.708 143.871Z"></path>
<path stroke-width="1.75556" stroke-opacity="0.46" stroke="url(#paint33_radial_7078_9185)" d="M217.708 143.871C217.708 144.718 218.169 145.634 219.246 146.574C220.321 147.512 221.926 148.398 223.987 149.159C228.1 150.678 233.841 151.636 240.226 151.636C246.61 151.636 252.351 150.678 256.465 149.159C258.525 148.398 260.131 147.512 261.205 146.574C262.282 145.634 262.743 144.718 262.743 143.871C262.743 143.024 262.282 142.108 261.205 141.167C260.131 140.229 258.525 139.344 256.465 138.582C252.351 137.063 246.61 136.105 240.226 136.105C233.841 136.105 228.1 137.063 223.987 138.582C221.926 139.344 220.321 140.229 219.246 141.167C218.169 142.108 217.708 143.024 217.708 143.871Z"></path>
<path stroke-width="1.75556" stroke="#535BCB" d="M217.708 143.871C217.708 144.718 218.169 145.634 219.246 146.574C220.321 147.512 221.926 148.398 223.987 149.159C228.1 150.678 233.841 151.636 240.226 151.636C246.61 151.636 252.351 150.678 256.465 149.159C258.525 148.398 260.131 147.512 261.205 146.574C262.282 145.634 262.743 144.718 262.743 143.871C262.743 143.024 262.282 142.108 261.205 141.167C260.131 140.229 258.525 139.344 256.465 138.582C252.351 137.063 246.61 136.105 240.226 136.105C233.841 136.105 228.1 137.063 223.987 138.582C221.926 139.344 220.321 140.229 219.246 141.167C218.169 142.108 217.708 143.024 217.708 143.871Z"></path>
<path stroke-width="1.75556" stroke-opacity="0.46" stroke="url(#paint34_radial_7078_9185)" d="M217.484 143.628V152.684C217.484 157.324 227.666 161.085 240.225 161.085C252.785 161.085 262.967 157.324 262.967 152.684V143.628"></path>
<path stroke-width="1.75556" stroke="#535BCB" d="M217.484 143.628V152.684C217.484 157.324 227.666 161.085 240.225 161.085C252.785 161.085 262.967 157.324 262.967 152.684V143.628"></path>
<path stroke-width="1.75556" stroke-opacity="0.46" stroke="url(#paint35_radial_7078_9185)" d="M217.484 153.773V162.829C217.484 167.469 227.666 171.23 240.225 171.23C252.785 171.23 262.967 167.469 262.967 162.829V153.773"></path>
<path stroke-width="1.75556" stroke="#535BCB" d="M217.484 153.773V162.829C217.484 167.469 227.666 171.23 240.225 171.23C252.785 171.23 262.967 167.469 262.967 162.829V153.773"></path>
<path stroke-width="1.75556" stroke-opacity="0.46" stroke="url(#paint36_radial_7078_9185)" d="M217.484 163.917V172.972C217.484 177.612 227.666 181.374 240.225 181.374C252.785 181.374 262.967 177.612 262.967 172.972V163.917"></path>
<path stroke-width="1.75556" stroke="#535BCB" d="M217.484 163.917V172.972C217.484 177.612 227.666 181.374 240.225 181.374C252.785 181.374 262.967 177.612 262.967 172.972V163.917"></path>
<path fill="#EBF4FF" d="M232.432 140.166C232.432 140.231 232.467 140.413 232.801 140.693C233.13 140.97 233.658 141.259 234.388 141.518C235.84 142.034 237.904 142.37 240.226 142.37C242.547 142.37 244.611 142.034 246.063 141.518C246.793 141.259 247.321 140.97 247.651 140.693C247.984 140.413 248.019 140.231 248.019 140.166C248.019 140.1 247.984 139.918 247.651 139.638C247.321 139.361 246.793 139.072 246.063 138.813C244.611 138.297 242.547 137.961 240.226 137.961C237.904 137.961 235.84 138.297 234.388 138.813C233.658 139.072 233.13 139.361 232.801 139.638C232.467 139.918 232.432 140.1 232.432 140.166Z"></path>
<path stroke-width="1.75556" stroke-opacity="0.46" stroke="url(#paint37_radial_7078_9185)" d="M232.432 140.166C232.432 140.231 232.467 140.413 232.801 140.693C233.13 140.97 233.658 141.259 234.388 141.518C235.84 142.034 237.904 142.37 240.226 142.37C242.547 142.37 244.611 142.034 246.063 141.518C246.793 141.259 247.321 140.97 247.651 140.693C247.984 140.413 248.019 140.231 248.019 140.166C248.019 140.1 247.984 139.918 247.651 139.638C247.321 139.361 246.793 139.072 246.063 138.813C244.611 138.297 242.547 137.961 240.226 137.961C237.904 137.961 235.84 138.297 234.388 138.813C233.658 139.072 233.13 139.361 232.801 139.638C232.467 139.918 232.432 140.1 232.432 140.166Z"></path>
<path stroke-width="1.75556" stroke="#535BCB" d="M232.432 140.166C232.432 140.231 232.467 140.413 232.801 140.693C233.13 140.97 233.658 141.259 234.388 141.518C235.84 142.034 237.904 142.37 240.226 142.37C242.547 142.37 244.611 142.034 246.063 141.518C246.793 141.259 247.321 140.97 247.651 140.693C247.984 140.413 248.019 140.231 248.019 140.166C248.019 140.1 247.984 139.918 247.651 139.638C247.321 139.361 246.793 139.072 246.063 138.813C244.611 138.297 242.547 137.961 240.226 137.961C237.904 137.961 235.84 138.297 234.388 138.813C233.658 139.072 233.13 139.361 232.801 139.638C232.467 139.918 232.432 140.1 232.432 140.166Z"></path>
<path stroke-width="1.75556" stroke-opacity="0.46" stroke="url(#paint38_radial_7078_9185)" d="M232.115 140.408V143.638C232.115 145.293 235.746 146.634 240.226 146.634C244.705 146.634 248.336 145.293 248.336 143.638V140.408"></path>
<path stroke-width="1.75556" stroke="#535BCB" d="M232.115 140.408V143.638C232.115 145.293 235.746 146.634 240.226 146.634C244.705 146.634 248.336 145.293 248.336 143.638V140.408"></path>
<rect stroke-width="1.75556" stroke="#5864D4" rx="1.75556" height="14.2768" width="41.6944" y="137.579" x="305.132"></rect>
<ellipse fill="#5864D5" ry="1.78137" rx="1.81041" cy="144.717" cx="340.462"></ellipse>
<rect stroke-width="1.75556" stroke="#5864D4" rx="1.75556" height="14.2768" width="41.6944" y="123.328" x="305.132"></rect>
<ellipse fill="#5864D5" ry="1.78137" rx="1.81041" cy="130.466" cx="340.462"></ellipse>
<rect stroke-width="1.75556" stroke="#5864D4" rx="1.75556" height="14.2768" width="41.6944" y="174.445" x="305.132"></rect>
<ellipse fill="#5864D5" ry="1.78137" rx="1.81041" cy="181.584" cx="340.462"></ellipse>
<rect stroke-width="1.75556" stroke="#5864D4" rx="1.75556" height="14.2768" width="41.6944" y="160.194" x="305.132"></rect>
<ellipse fill="#5864D5" ry="1.78137" rx="1.81041" cy="167.333" cx="340.462"></ellipse>
<circle stroke-width="1.75556" stroke="#535BCB" transform="rotate(-23.3225 574.245 161.877)" r="2.89154" cy="161.877" cx="574.245"></circle>
<circle stroke-width="1.75556" stroke="#535BCB" transform="rotate(-23.3225 582.39 158.367)" r="2.89154" cy="158.367" cx="582.39"></circle>
<circle stroke-width="1.75556" stroke="#535BCB" transform="rotate(-23.3225 590.534 154.855)" r="2.89154" cy="154.855" cx="590.534"></circle>
<path fill="#EBF4FF" d="M206.82 319.268C206.82 320.052 207.238 320.777 207.917 321.169L292.184 369.837C293.647 370.682 295.476 369.627 295.476 367.937V270.598C295.476 269.814 295.058 269.09 294.379 268.698L210.112 220.029C208.649 219.184 206.82 220.24 206.82 221.929V319.268Z"></path>
<circle stroke-width="1.75556" stroke="#535BCB" transform="matrix(-0.918291 -0.395906 -0.395906 0.918291 275.868 279.989)" r="2.89154"></circle>
<circle stroke-width="1.75556" stroke="#535BCB" transform="matrix(-0.918291 -0.395906 -0.395906 0.918291 267.724 276.478)" r="2.89154"></circle>
<circle stroke-width="1.75556" stroke="#535BCB" transform="matrix(-0.918291 -0.395906 -0.395906 0.918291 259.58 272.966)" r="2.89154"></circle>
<path stroke-width="1.75556" stroke="#535BCB" d="M244.335 250.316L287.365 275.426C288.039 275.819 288.454 276.541 288.454 277.321V374.954C288.454 376.645 286.622 377.7 285.159 376.853L200.893 328.045C200.215 327.653 199.798 326.929 199.798 326.146V228.61C199.798 226.899 201.669 225.846 203.131 226.734L235.762 246.538"></path>
<path stroke-linecap="round" stroke-width="1.75556" stroke="#5762D2" d="M607.526 202.767C607.526 271.763 678.187 221.154 678.187 290.105"></path>
<path stroke-linecap="round" stroke-width="1.75556" stroke="#5762D2" d="M240.176 248.411C240.176 210.317 320.612 242.554 323.126 194.866"></path>
<path stroke-linecap="round" stroke-width="1.75556" stroke="#5762D2" d="M241.493 319.511C241.493 266.075 183.998 260.49 183.998 201.889"></path>
<rect stroke-width="1.75556" stroke="#5661D1" fill="#9AE6B4" rx="4.38889" height="22.3833" width="59.6889" y="309.856" x="570.659"></rect>
<rect stroke-width="1.75556" stroke="#5661D1" fill="#9AE6B4" rx="4.38889" height="22.3833" width="59.6889" y="309.856" x="645.27"></rect>
<path stroke-linecap="round" stroke-width="1.75556" stroke="#5864D4" d="M599.626 359.74V350.233C599.626 347.325 601.984 344.967 604.893 344.967H630.548H640.689H670.726C673.635 344.967 675.993 347.325 675.993 350.233V359.74M599.626 368.377V377.883C599.626 380.792 601.984 383.15 604.893 383.15H670.726C673.635 383.15 675.993 380.792 675.993 377.883V368.377"></path>
<path stroke-linecap="round" stroke-width="1.75556" stroke="#5864D4" d="M583.387 337.066C583.387 360.225 588.185 364.278 599.626 364.278"></path>
<path stroke-linecap="round" stroke-width="1.75556" stroke="#5864D4" d="M691.793 337.066C691.793 360.225 686.865 364.278 675.115 364.278"></path>
<path stroke-width="1.75556" stroke="#5864D4" d="M748.409 347.6V376.567C748.409 377.536 747.623 378.322 746.654 378.322H724.709C723.74 378.322 722.954 377.536 722.954 376.567V355.332C722.954 354.865 723.14 354.418 723.47 354.088L731.234 346.356C731.563 346.028 732.008 345.844 732.473 345.844H746.654C747.623 345.844 748.409 346.63 748.409 347.6Z"></path>
<path stroke-width="1.75556" stroke="#5864D4" d="M733.533 344.967V353.744C733.533 355.199 732.354 356.378 730.9 356.378H722.076"></path>
<path fill="#535BCB" d="M739.28 371.125L734.18 372.61C734.024 372.656 733.875 372.523 733.907 372.368L735.73 363.775C735.764 363.614 735.989 363.589 736.06 363.738L739.434 370.792C739.498 370.926 739.425 371.083 739.28 371.125ZM740.155 370.774L736.249 362.606V362.605C736.151 362.401 735.946 362.266 735.715 362.254C735.477 362.24 735.264 362.353 735.144 362.545L730.907 369.303C730.776 369.513 730.778 369.773 730.914 369.981L732.985 373.14C733.109 373.329 733.323 373.438 733.545 373.438C733.608 373.438 733.671 373.429 733.734 373.411L739.745 371.66C739.929 371.606 740.08 371.478 740.159 371.308C740.237 371.138 740.236 370.943 740.155 370.774Z" clip-rule="evenodd" fill-rule="evenodd"></path>
<path stroke-linecap="round" stroke-width="1.75556" stroke="#555FCF" d="M672.796 289.667H564.515C557.243 289.667 551.348 295.562 551.348 302.833V384.467C551.348 391.738 557.243 397.633 564.515 397.633H757.626C764.898 397.633 770.793 391.738 770.793 384.467V302.833C770.793 295.562 764.909 289.667 757.637 289.667C734.222 289.667 700.116 289.667 682.428 289.667"></path>
<path stroke-linecap="round" stroke-width="1.75556" stroke="#555FCF" d="M188.546 201.889L275.287 201.889C282.559 201.889 288.454 195.994 288.454 188.722L288.454 127.278C288.454 120.006 282.559 114.111 275.287 114.111L93.5871 114.111C86.3153 114.111 80.4204 120.006 80.4204 127.278L80.4204 188.722C80.4204 195.994 86.2982 201.889 93.57 201.889C118.851 201.889 160.449 201.889 177.301 201.889"></path>
<rect fill="#FAF089" height="22.3833" width="28.0889" y="352.867" x="635.176"></rect>
<rect stroke-width="1.75556" stroke="#5159C8" rx="1.75556" height="22.3833" width="26.3516" y="352.823" x="635.917"></rect>
<ellipse fill="#5159C8" ry="0.965555" rx="0.969213" cy="357.256" cx="646.185"></ellipse>
<ellipse fill="#5159C8" ry="0.965555" rx="0.969213" cy="357.256" cx="643.277"></ellipse>
<ellipse fill="#5159C8" ry="0.965555" rx="0.969213" cy="357.256" cx="640.37"></ellipse>
<rect fill="#FAF089" height="22.7227" width="14.5656" y="352.672" x="612.848"></rect>
<rect stroke-width="1.75556" stroke="#5159C8" rx="1.75556" height="21.9444" width="14.0444" y="353.306" x="613.232"></rect>
<ellipse fill="#5159C8" ry="0.987499" rx="0.9875" cy="372.178" cx="620.254"></ellipse>
<path stroke-width="1.75556" stroke="#5159C8" d="M612.354 368.721H628.154"></path>
<g filter="url(#filter1_f_7078_9185)">
<circle fill-opacity="0.5" fill="#9AE6B4" transform="matrix(-1 0 0 1 608.637 201.464)" r="13.4004"></circle>
</g>
<circle fill="#9AE6B4" transform="matrix(-1 0 0 1 608.637 201.464)" r="5.86269"></circle>
<g filter="url(#filter2_f_7078_9185)">
<circle fill-opacity="0.5" fill="#9AE6B4" transform="matrix(-1 0 0 1 421.671 128.389)" r="13.4004"></circle>
</g>
<circle fill="#9AE6B4" transform="matrix(-1 0 0 1 421.671 128.389)" r="5.86269"></circle>
<path stroke-dasharray="3.51 3.51" stroke-width="1.75556" stroke="url(#paint39_linear_7078_9185)" d="M423.094 353.934L607.988 455.009"></path>
<circle fill="#FAF089" transform="matrix(-0.5 -0.866025 -0.866025 0.5 423.3 353.714)" r="5.86269"></circle>
<g filter="url(#filter3_f_7078_9185)">
<circle fill-opacity="0.4" fill="#FAF089" transform="matrix(-0.5 -0.866025 -0.866025 0.5 423.3 353.714)" r="13.4004"></circle>
</g>
<path stroke-dasharray="3.51 3.51" stroke-width="1.75556" stroke="url(#paint40_linear_7078_9185)" d="M157.348 346.485L-27.5463 447.56"></path>
<path stroke-dasharray="3.51 3.51" stroke-width="1.75556" stroke="url(#paint41_linear_7078_9185)" d="M627.276 201.475L809.763 96.1167"></path>
<path stroke-dasharray="3.51 3.51" stroke-width="1.75556" stroke="url(#paint42_linear_7078_9185)" d="M432.318 122.475L249.832 17.1165"></path>
<circle fill="#FAF089" transform="rotate(-60 157.142 346.265)" r="5.86269" cy="346.265" cx="157.142"></circle>
<g filter="url(#filter4_f_7078_9185)">
<circle fill-opacity="0.4" fill="#FAF089" transform="rotate(-60 157.142 346.265)" r="13.4004" cy="346.265" cx="157.142"></circle>
</g>
<path stroke-dasharray="3.51 3.51" stroke-width="1.75556" stroke="#535BCB" d="M457.426 397.194L388.959 397.194"></path>
</g>
<defs>
<filter color-interpolation-filters="sRGB" filterUnits="userSpaceOnUse" height="180.383" width="251.044" y="162.389" x="295.476" id="filter0_f_7078_9185">
<feFlood result="BackgroundImageFix" flood-opacity="0"></feFlood>
<feBlend result="shape" in2="BackgroundImageFix" in="SourceGraphic" mode="normal"></feBlend>
<feGaussianBlur result="effect1_foregroundBlur_7078_9185" stdDeviation="21.9444"></feGaussianBlur>
</filter>
<filter color-interpolation-filters="sRGB" filterUnits="userSpaceOnUse" height="35.5786" width="35.5786" y="183.675" x="590.848" id="filter1_f_7078_9185">
<feFlood result="BackgroundImageFix" flood-opacity="0"></feFlood>
<feBlend result="shape" in2="BackgroundImageFix" in="SourceGraphic" mode="normal"></feBlend>
<feGaussianBlur result="effect1_foregroundBlur_7078_9185" stdDeviation="2.19444"></feGaussianBlur>
</filter>
<filter color-interpolation-filters="sRGB" filterUnits="userSpaceOnUse" height="35.5786" width="35.5786" y="110.6" x="403.882" id="filter2_f_7078_9185">
<feFlood result="BackgroundImageFix" flood-opacity="0"></feFlood>
<feBlend result="shape" in2="BackgroundImageFix" in="SourceGraphic" mode="normal"></feBlend>
<feGaussianBlur result="effect1_foregroundBlur_7078_9185" stdDeviation="2.19444"></feGaussianBlur>
</filter>
<filter color-interpolation-filters="sRGB" filterUnits="userSpaceOnUse" height="35.5832" width="35.5831" y="335.922" x="405.508" id="filter3_f_7078_9185">
<feFlood result="BackgroundImageFix" flood-opacity="0"></feFlood>
<feBlend result="shape" in2="BackgroundImageFix" in="SourceGraphic" mode="normal"></feBlend>
<feGaussianBlur result="effect1_foregroundBlur_7078_9185" stdDeviation="2.19444"></feGaussianBlur>
</filter>
<filter color-interpolation-filters="sRGB" filterUnits="userSpaceOnUse" height="35.5832" width="35.5831" y="328.473" x="139.351" id="filter4_f_7078_9185">
<feFlood result="BackgroundImageFix" flood-opacity="0"></feFlood>
<feBlend result="shape" in2="BackgroundImageFix" in="SourceGraphic" mode="normal"></feBlend>
<feGaussianBlur result="effect1_foregroundBlur_7078_9185" stdDeviation="2.19444"></feGaussianBlur>
</filter>
<linearGradient gradientUnits="userSpaceOnUse" y2="353.748" x2="422.164" y1="131.261" x1="422.164" id="paint0_linear_7078_9185">
<stop stop-color="#4C51BF"></stop>
<stop stop-color="#5A67D8" offset="1"></stop>
</linearGradient>
<linearGradient gradientUnits="userSpaceOnUse" y2="231.098" x2="707.738" y1="207.79" x1="707.738" id="paint1_linear_7078_9185">
<stop stop-color="#ECC94B"></stop>
<stop stop-opacity="0" stop-color="#ECC94B" offset="1"></stop>
</linearGradient>
<linearGradient gradientUnits="userSpaceOnUse" y2="231.098" x2="721.195" y1="207.79" x1="721.195" id="paint2_linear_7078_9185">
<stop stop-color="#D69E2E"></stop>
<stop stop-opacity="0" stop-color="#D69E2E" offset="1"></stop>
</linearGradient>
<linearGradient gradientUnits="userSpaceOnUse" y2="282.918" x2="387.722" y1="242.659" x1="387.722" id="paint3_linear_7078_9185">
<stop stop-color="#ECC94B"></stop>
<stop stop-opacity="0" stop-color="#ECC94B" offset="1"></stop>
</linearGradient>
<linearGradient gradientUnits="userSpaceOnUse" y2="282.919" x2="410.965" y1="242.661" x1="410.965" id="paint4_linear_7078_9185">
<stop stop-color="#D69E2E"></stop>
<stop stop-opacity="0" stop-color="#D69E2E" offset="1"></stop>
</linearGradient>
<linearGradient gradientUnits="userSpaceOnUse" y2="210.16" x2="707.738" y1="186.852" x1="707.738" id="paint5_linear_7078_9185">
<stop stop-color="#ECC94B"></stop>
<stop stop-opacity="0" stop-color="#ECC94B" offset="1"></stop>
</linearGradient>
<linearGradient gradientUnits="userSpaceOnUse" y2="210.161" x2="721.195" y1="186.853" x1="721.195" id="paint6_linear_7078_9185">
<stop stop-color="#D69E2E"></stop>
<stop stop-opacity="0" stop-color="#D69E2E" offset="1"></stop>
</linearGradient>
<linearGradient gradientUnits="userSpaceOnUse" y2="282.918" x2="434.164" y1="242.659" x1="434.164" id="paint7_linear_7078_9185">
<stop stop-color="#EBF4FF"></stop>
<stop stop-opacity="0" stop-color="#EBF4FF" offset="1"></stop>
</linearGradient>
<linearGradient gradientUnits="userSpaceOnUse" y2="282.919" x2="457.407" y1="242.661" x1="457.407" id="paint8_linear_7078_9185">
<stop stop-color="#EBF4FF"></stop>
<stop stop-opacity="0" stop-color="#EBF4FF" offset="1"></stop>
</linearGradient>
<linearGradient gradientUnits="userSpaceOnUse" y2="224.466" x2="520.905" y1="184.208" x1="520.905" id="paint9_linear_7078_9185">
<stop stop-color="#EBF4FF"></stop>
<stop stop-opacity="0" stop-color="#EBF4FF" offset="1"></stop>
</linearGradient>
<linearGradient gradientUnits="userSpaceOnUse" y2="224.468" x2="544.148" y1="184.21" x1="544.148" id="paint10_linear_7078_9185">
<stop stop-color="#EBF4FF"></stop>
<stop stop-opacity="0" stop-color="#EBF4FF" offset="1"></stop>
</linearGradient>
<linearGradient gradientUnits="userSpaceOnUse" y2="242.716" x2="410.754" y1="202.457" x1="410.754" id="paint11_linear_7078_9185">
<stop stop-color="#48BB78"></stop>
<stop stop-opacity="0" stop-color="#68D391" offset="1"></stop>
</linearGradient>
<linearGradient gradientUnits="userSpaceOnUse" y2="242.717" x2="433.997" y1="202.459" x1="433.997" id="paint12_linear_7078_9185">
<stop stop-color="#38A169"></stop>
<stop stop-opacity="0" stop-color="#38A169" offset="1"></stop>
</linearGradient>
<linearGradient gradientUnits="userSpaceOnUse" y2="374.842" x2="151.438" y1="334.583" x1="151.438" id="paint13_linear_7078_9185">
<stop stop-color="#EBF4FF"></stop>
<stop stop-opacity="0" stop-color="#EBF4FF" offset="1"></stop>
</linearGradient>
<linearGradient gradientUnits="userSpaceOnUse" y2="374.843" x2="174.681" y1="334.585" x1="174.681" id="paint14_linear_7078_9185">
<stop stop-color="#EBF4FF"></stop>
<stop stop-opacity="0" stop-color="#EBF4FF" offset="1"></stop>
</linearGradient>
<linearGradient gradientUnits="userSpaceOnUse" y2="386.035" x2="176.775" y1="361.015" x1="176.775" id="paint15_linear_7078_9185">
<stop stop-color="#48BB78"></stop>
<stop stop-opacity="0" stop-color="#68D391" offset="1"></stop>
</linearGradient>
<linearGradient gradientUnits="userSpaceOnUse" y2="386.036" x2="191.22" y1="361.015" x1="191.22" id="paint16_linear_7078_9185">
<stop stop-color="#38A169"></stop>
<stop stop-opacity="0" stop-color="#38A169" offset="1"></stop>
</linearGradient>
<linearGradient gradientUnits="userSpaceOnUse" y2="397.226" x2="195.197" y1="372.205" x1="195.197" id="paint17_linear_7078_9185">
<stop stop-color="#48BB78"></stop>
<stop stop-opacity="0" stop-color="#68D391" offset="1"></stop>
</linearGradient>
<linearGradient gradientUnits="userSpaceOnUse" y2="397.227" x2="209.642" y1="372.206" x1="209.642" id="paint18_linear_7078_9185">
<stop stop-color="#38A169"></stop>
<stop stop-opacity="0" stop-color="#38A169" offset="1"></stop>
</linearGradient>
<linearGradient gradientUnits="userSpaceOnUse" y2="323.184" x2="411.114" y1="282.926" x1="411.114" id="paint19_linear_7078_9185">
<stop stop-color="#ECC94B"></stop>
<stop stop-opacity="0" stop-color="#ECC94B" offset="1"></stop>
</linearGradient>
<linearGradient gradientUnits="userSpaceOnUse" y2="323.186" x2="434.358" y1="282.927" x1="434.358" id="paint20_linear_7078_9185">
<stop stop-color="#D69E2E"></stop>
<stop stop-opacity="0" stop-color="#D69E2E" offset="1"></stop>
</linearGradient>
<radialGradient gradientTransform="translate(146.916 151.185) rotate(-145.257) scale(20.4075 55.2404)" gradientUnits="userSpaceOnUse" r="1" cy="0" cx="0" id="paint21_radial_7078_9185">
<stop stop-color="white"></stop>
<stop stop-opacity="0" stop-color="white" offset="1"></stop>
</radialGradient>
<radialGradient gradientTransform="translate(146.451 159.794) rotate(-145.257) scale(19.8367 53.6952)" gradientUnits="userSpaceOnUse" r="1" cy="0" cx="0" id="paint22_radial_7078_9185">
<stop stop-color="white"></stop>
<stop stop-opacity="0" stop-color="white" offset="1"></stop>
</radialGradient>
<radialGradient gradientTransform="translate(146.451 169.939) rotate(-145.257) scale(19.8367 53.6952)" gradientUnits="userSpaceOnUse" r="1" cy="0" cx="0" id="paint23_radial_7078_9185">
<stop stop-color="white"></stop>
<stop stop-opacity="0" stop-color="white" offset="1"></stop>
</radialGradient>
<radialGradient gradientTransform="translate(146.451 180.082) rotate(-145.257) scale(19.8367 53.6952)" gradientUnits="userSpaceOnUse" r="1" cy="0" cx="0" id="paint24_radial_7078_9185">
<stop stop-color="white"></stop>
<stop stop-opacity="0" stop-color="white" offset="1"></stop>
</radialGradient>
<radialGradient gradientTransform="translate(136.447 142.774) rotate(-146.282) scale(7.47213 19.9424)" gradientUnits="userSpaceOnUse" r="1" cy="0" cx="0" id="paint25_radial_7078_9185">
<stop stop-color="white"></stop>
<stop stop-opacity="0" stop-color="white" offset="1"></stop>
</radialGradient>
<radialGradient gradientTransform="translate(136.048 146.174) rotate(-145.257) scale(7.07461 19.15)" gradientUnits="userSpaceOnUse" r="1" cy="0" cx="0" id="paint26_radial_7078_9185">
<stop stop-color="white"></stop>
<stop stop-opacity="0" stop-color="white" offset="1"></stop>
</radialGradient>
<radialGradient gradientTransform="translate(202.069 151.16) rotate(-145.257) scale(20.4075 55.2404)" gradientUnits="userSpaceOnUse" r="1" cy="0" cx="0" id="paint27_radial_7078_9185">
<stop stop-color="white"></stop>
<stop stop-opacity="0" stop-color="white" offset="1"></stop>
</radialGradient>
<radialGradient gradientTransform="translate(201.603 159.77) rotate(-145.257) scale(19.8367 53.6952)" gradientUnits="userSpaceOnUse" r="1" cy="0" cx="0" id="paint28_radial_7078_9185">
<stop stop-color="white"></stop>
<stop stop-opacity="0" stop-color="white" offset="1"></stop>
</radialGradient>
<radialGradient gradientTransform="translate(201.603 169.912) rotate(-145.257) scale(19.8367 53.6952)" gradientUnits="userSpaceOnUse" r="1" cy="0" cx="0" id="paint29_radial_7078_9185">
<stop stop-color="white"></stop>
<stop stop-opacity="0" stop-color="white" offset="1"></stop>
</radialGradient>
<radialGradient gradientTransform="translate(201.603 180.056) rotate(-145.257) scale(19.8367 53.6952)" gradientUnits="userSpaceOnUse" r="1" cy="0" cx="0" id="paint30_radial_7078_9185">
<stop stop-color="white"></stop>
<stop stop-opacity="0" stop-color="white" offset="1"></stop>
</radialGradient>
<radialGradient gradientTransform="translate(191.6 142.752) rotate(-146.282) scale(7.47213 19.9424)" gradientUnits="userSpaceOnUse" r="1" cy="0" cx="0" id="paint31_radial_7078_9185">
<stop stop-color="white"></stop>
<stop stop-opacity="0" stop-color="white" offset="1"></stop>
</radialGradient>
<radialGradient gradientTransform="translate(191.201 146.149) rotate(-145.257) scale(7.07461 19.15)" gradientUnits="userSpaceOnUse" r="1" cy="0" cx="0" id="paint32_radial_7078_9185">
<stop stop-color="white"></stop>
<stop stop-opacity="0" stop-color="white" offset="1"></stop>
</radialGradient>
<radialGradient gradientTransform="translate(256.86 151.185) rotate(-145.257) scale(20.4075 55.2404)" gradientUnits="userSpaceOnUse" r="1" cy="0" cx="0" id="paint33_radial_7078_9185">
<stop stop-color="white"></stop>
<stop stop-opacity="0" stop-color="white" offset="1"></stop>
</radialGradient>
<radialGradient gradientTransform="translate(256.394 159.794) rotate(-145.257) scale(19.8367 53.6952)" gradientUnits="userSpaceOnUse" r="1" cy="0" cx="0" id="paint34_radial_7078_9185">
<stop stop-color="white"></stop>
<stop stop-opacity="0" stop-color="white" offset="1"></stop>
</radialGradient>
<radialGradient gradientTransform="translate(256.394 169.939) rotate(-145.257) scale(19.8367 53.6952)" gradientUnits="userSpaceOnUse" r="1" cy="0" cx="0" id="paint35_radial_7078_9185">
<stop stop-color="white"></stop>
<stop stop-opacity="0" stop-color="white" offset="1"></stop>
</radialGradient>
<radialGradient gradientTransform="translate(256.394 180.082) rotate(-145.257) scale(19.8367 53.6952)" gradientUnits="userSpaceOnUse" r="1" cy="0" cx="0" id="paint36_radial_7078_9185">
<stop stop-color="white"></stop>
<stop stop-opacity="0" stop-color="white" offset="1"></stop>
</radialGradient>
<radialGradient gradientTransform="translate(246.391 142.774) rotate(-146.282) scale(7.47213 19.9424)" gradientUnits="userSpaceOnUse" r="1" cy="0" cx="0" id="paint37_radial_7078_9185">
<stop stop-color="white"></stop>
<stop stop-opacity="0" stop-color="white" offset="1"></stop>
</radialGradient>
<radialGradient gradientTransform="translate(245.992 146.174) rotate(-145.257) scale(7.07461 19.15)" gradientUnits="userSpaceOnUse" r="1" cy="0" cx="0" id="paint38_radial_7078_9185">
<stop stop-color="white"></stop>
<stop stop-opacity="0" stop-color="white" offset="1"></stop>
</radialGradient>
<linearGradient gradientUnits="userSpaceOnUse" y2="449.886" x2="598.619" y1="360.08" x1="434.338" id="paint39_linear_7078_9185">
<stop stop-color="#FAF089"></stop>
<stop stop-opacity="0" stop-color="#ECC94B" offset="1"></stop>
</linearGradient>
<linearGradient gradientUnits="userSpaceOnUse" y2="442.437" x2="-18.1768" y1="352.63" x1="146.104" id="paint40_linear_7078_9185">
<stop stop-color="#FAF089"></stop>
<stop stop-opacity="0" stop-color="#ECC94B" offset="0.590225"></stop>
</linearGradient>
<linearGradient gradientUnits="userSpaceOnUse" y2="101.456" x2="800.515" y1="195.069" x1="638.373" id="paint41_linear_7078_9185">
<stop stop-color="#9AE6B4"></stop>
<stop stop-opacity="0" stop-color="#9AE6B4" offset="1"></stop>
</linearGradient>
<linearGradient gradientUnits="userSpaceOnUse" y2="22.4559" x2="259.079" y1="116.069" x1="421.221" id="paint42_linear_7078_9185">
<stop stop-color="#9AE6B4"></stop>
<stop stop-opacity="0" stop-color="#9AE6B4" offset="1"></stop>
</linearGradient>
<clipPath id="clip0_7078_9185">
<rect fill="white" height="474" width="844"></rect>
</clipPath>
</defs>
</svg>
