<svg xmlns="http://www.w3.org/2000/svg" fill="none" viewBox="0 0 844 474" height="474" width="844">
<g clip-path="url(#clip0_9138_10147)">
<rect fill="url(#paint0_linear_9138_10147)" height="474" width="844"></rect>
<path fill="white" d="M85.107 141.3C88.779 141.3 92.019 142.056 94.827 143.568C97.689 145.08 99.876 147.213 101.388 149.967C102.954 152.667 103.737 155.799 103.737 159.363C103.737 162.873 102.927 165.978 101.307 168.678C99.741 171.378 97.5 173.457 94.584 174.915C91.668 176.373 88.293 177.102 84.459 177.102H74.577C74.307 177.102 74.172 177.237 74.172 177.507V197.028C74.172 197.298 74.064 197.541 73.848 197.757C73.686 197.919 73.47 198 73.2 198H61.698C61.428 198 61.185 197.919 60.969 197.757C60.807 197.541 60.726 197.298 60.726 197.028V142.272C60.726 142.002 60.807 141.786 60.969 141.624C61.185 141.408 61.428 141.3 61.698 141.3H85.107ZM82.92 166.41C85.134 166.41 86.916 165.789 88.266 164.547C89.67 163.305 90.372 161.685 90.372 159.687C90.372 157.635 89.67 155.988 88.266 154.746C86.916 153.45 85.134 152.802 82.92 152.802H74.577C74.307 152.802 74.172 152.937 74.172 153.207V166.005C74.172 166.275 74.307 166.41 74.577 166.41H82.92ZM131.087 155.556C133.031 155.556 134.543 155.907 135.623 156.609C136.055 156.879 136.217 157.284 136.109 157.824L134.246 169.083C134.192 169.731 133.814 169.92 133.112 169.65C132.14 169.434 131.222 169.326 130.358 169.326C129.44 169.326 128.738 169.38 128.252 169.488C126.578 169.704 125.147 170.352 123.959 171.432C122.825 172.512 122.258 173.943 122.258 175.725V197.028C122.258 197.298 122.15 197.541 121.934 197.757C121.772 197.919 121.556 198 121.286 198H109.784C109.514 198 109.271 197.919 109.055 197.757C108.893 197.541 108.812 197.298 108.812 197.028V157.095C108.812 156.825 108.893 156.609 109.055 156.447C109.271 156.231 109.514 156.123 109.784 156.123H121.286C121.556 156.123 121.772 156.231 121.934 156.447C122.15 156.609 122.258 156.825 122.258 157.095V159.687C122.258 159.849 122.312 159.957 122.42 160.011C122.528 160.065 122.609 160.011 122.663 159.849C124.823 156.987 127.631 155.556 131.087 155.556ZM147.34 152.397C145.288 152.397 143.587 151.749 142.237 150.453C140.941 149.103 140.293 147.402 140.293 145.35C140.293 143.244 140.941 141.543 142.237 140.247C143.587 138.951 145.288 138.303 147.34 138.303C149.392 138.303 151.066 138.951 152.362 140.247C153.712 141.543 154.387 143.244 154.387 145.35C154.387 147.348 153.712 149.022 152.362 150.372C151.066 151.722 149.392 152.397 147.34 152.397ZM141.508 198C141.238 198 140.995 197.919 140.779 197.757C140.617 197.541 140.536 197.298 140.536 197.028V157.095C140.536 156.825 140.617 156.609 140.779 156.447C140.995 156.231 141.238 156.123 141.508 156.123H153.01C153.28 156.123 153.496 156.231 153.658 156.447C153.874 156.609 153.982 156.825 153.982 157.095V197.028C153.982 197.298 153.874 197.541 153.658 197.757C153.496 197.919 153.28 198 153.01 198H141.508ZM178.76 198.648C174.926 198.648 171.578 198.135 168.716 197.109C165.854 196.029 163.64 194.544 162.074 192.654C160.562 190.71 159.806 188.496 159.806 186.012V185.121C159.806 184.851 159.887 184.635 160.049 184.473C160.265 184.257 160.508 184.149 160.778 184.149H171.713C171.983 184.149 172.199 184.257 172.361 184.473C172.577 184.635 172.685 184.851 172.685 185.121C172.685 186.147 173.252 187.011 174.386 187.713C175.52 188.361 176.951 188.685 178.679 188.685C180.191 188.685 181.379 188.442 182.243 187.956C183.161 187.416 183.62 186.714 183.62 185.85C183.62 184.986 183.134 184.365 182.162 183.987C181.244 183.555 179.732 183.15 177.626 182.772C174.224 182.124 171.47 181.341 169.364 180.423C166.61 179.289 164.423 177.885 162.803 176.211C161.183 174.483 160.373 172.134 160.373 169.164C160.373 164.952 161.993 161.631 165.233 159.201C168.527 156.717 172.847 155.475 178.193 155.475C181.811 155.475 184.97 156.069 187.67 157.257C190.424 158.391 192.557 160.011 194.069 162.117C195.581 164.223 196.337 166.653 196.337 169.407C196.337 169.677 196.229 169.92 196.013 170.136C195.851 170.298 195.635 170.379 195.365 170.379H184.754C184.484 170.379 184.241 170.298 184.025 170.136C183.863 169.92 183.782 169.677 183.782 169.407C183.782 168.381 183.296 167.544 182.324 166.896C181.352 166.248 180.029 165.924 178.355 165.924C176.843 165.924 175.601 166.194 174.629 166.734C173.711 167.22 173.252 167.922 173.252 168.84C173.252 169.758 173.765 170.433 174.791 170.865C175.817 171.243 177.545 171.675 179.975 172.161C183.107 172.809 185.294 173.322 186.536 173.7C189.884 174.78 192.476 176.238 194.312 178.074C196.202 179.91 197.147 182.367 197.147 185.445C197.147 189.657 195.473 192.924 192.125 195.246C188.831 197.514 184.376 198.648 178.76 198.648ZM250.424 155.475C254.636 155.475 257.93 156.771 260.306 159.363C262.682 161.955 263.87 165.6 263.87 170.298V197.028C263.87 197.298 263.762 197.541 263.546 197.757C263.384 197.919 263.168 198 262.898 198H251.477C251.207 198 250.964 197.919 250.748 197.757C250.586 197.541 250.505 197.298 250.505 197.028V173.214C250.505 171.378 250.019 169.893 249.047 168.759C248.129 167.571 246.887 166.977 245.321 166.977C243.755 166.977 242.459 167.544 241.433 168.678C240.461 169.812 239.975 171.324 239.975 173.214V197.028C239.975 197.298 239.867 197.541 239.651 197.757C239.489 197.919 239.273 198 239.003 198H227.501C227.231 198 226.988 197.919 226.772 197.757C226.61 197.541 226.529 197.298 226.529 197.028V173.214C226.529 171.378 226.016 169.893 224.99 168.759C224.018 167.571 222.749 166.977 221.183 166.977C219.725 166.977 218.51 167.436 217.538 168.354C216.566 169.272 215.972 170.487 215.756 171.999V197.028C215.756 197.298 215.648 197.541 215.432 197.757C215.27 197.919 215.054 198 214.784 198H203.282C203.012 198 202.769 197.919 202.553 197.757C202.391 197.541 202.31 197.298 202.31 197.028V157.095C202.31 156.825 202.391 156.609 202.553 156.447C202.769 156.231 203.012 156.123 203.282 156.123H214.784C215.054 156.123 215.27 156.231 215.432 156.447C215.648 156.609 215.756 156.825 215.756 157.095V160.74C215.756 160.956 215.81 161.091 215.918 161.145C216.026 161.145 216.134 161.037 216.242 160.821C218.348 157.257 221.804 155.475 226.61 155.475C229.31 155.475 231.686 156.069 233.738 157.257C235.79 158.445 237.356 160.173 238.436 162.441C238.598 162.765 238.76 162.738 238.922 162.36C240.056 160.038 241.595 158.31 243.539 157.176C245.537 156.042 247.832 155.475 250.424 155.475ZM287.834 155.475C291.452 155.475 294.719 156.096 297.635 157.338C300.551 158.526 302.846 160.2 304.52 162.36C306.194 164.466 307.031 166.815 307.031 169.407V197.028C307.031 197.298 306.923 197.541 306.707 197.757C306.545 197.919 306.329 198 306.059 198H294.557C294.287 198 294.044 197.919 293.828 197.757C293.666 197.541 293.585 197.298 293.585 197.028V194.193C293.585 193.977 293.531 193.869 293.423 193.869C293.315 193.815 293.207 193.896 293.099 194.112C291.047 197.136 287.537 198.648 282.569 198.648C278.249 198.648 274.793 197.649 272.201 195.651C269.663 193.599 268.394 190.602 268.394 186.66C268.394 182.502 269.825 179.289 272.687 177.021C275.603 174.753 279.815 173.619 285.323 173.619H293.18C293.45 173.619 293.585 173.484 293.585 173.214V171.675C293.585 170.217 293.099 169.083 292.127 168.273C291.155 167.409 289.805 166.977 288.077 166.977C286.781 166.977 285.647 167.22 284.675 167.706C283.757 168.192 283.163 168.813 282.893 169.569C282.623 170.163 282.245 170.433 281.759 170.379L270.095 168.84C269.447 168.732 269.123 168.489 269.123 168.111C269.339 165.735 270.257 163.602 271.877 161.712C273.551 159.768 275.765 158.256 278.519 157.176C281.327 156.042 284.432 155.475 287.834 155.475ZM286.538 189.009C288.59 189.009 290.264 188.496 291.56 187.47C292.91 186.39 293.585 184.986 293.585 183.258V181.314C293.585 181.044 293.45 180.909 293.18 180.909H288.32C286.268 180.909 284.675 181.26 283.541 181.962C282.461 182.664 281.921 183.717 281.921 185.121C281.921 186.309 282.326 187.254 283.136 187.956C283.946 188.658 285.08 189.009 286.538 189.009ZM61.941 273C61.671 273 61.428 272.919 61.212 272.757C61.05 272.541 60.969 272.298 60.969 272.028V217.272C60.969 217.002 61.05 216.786 61.212 216.624C61.428 216.408 61.671 216.3 61.941 216.3H73.443C73.713 216.3 73.929 216.408 74.091 216.624C74.307 216.786 74.415 217.002 74.415 217.272V272.028C74.415 272.298 74.307 272.541 74.091 272.757C73.929 272.919 73.713 273 73.443 273H61.941ZM105.41 230.475C109.622 230.475 113.078 231.825 115.778 234.525C118.478 237.171 119.828 240.789 119.828 245.379V272.028C119.828 272.298 119.72 272.541 119.504 272.757C119.342 272.919 119.126 273 118.856 273H107.354C107.084 273 106.841 272.919 106.625 272.757C106.463 272.541 106.382 272.298 106.382 272.028V248.295C106.382 246.459 105.869 244.947 104.843 243.759C103.817 242.571 102.494 241.977 100.874 241.977C99.1995 241.977 97.8495 242.571 96.8235 243.759C95.7975 244.893 95.2845 246.405 95.2845 248.295V272.028C95.2845 272.298 95.1765 272.541 94.9605 272.757C94.7985 272.919 94.5825 273 94.3125 273H82.8105C82.5405 273 82.2975 272.919 82.0815 272.757C81.9195 272.541 81.8385 272.298 81.8385 272.028V232.095C81.8385 231.825 81.9195 231.609 82.0815 231.447C82.2975 231.231 82.5405 231.123 82.8105 231.123H94.3125C94.5825 231.123 94.7985 231.231 94.9605 231.447C95.1765 231.609 95.2845 231.825 95.2845 232.095V235.092C95.2845 235.308 95.3115 235.443 95.3655 235.497C95.4735 235.497 95.5815 235.416 95.6895 235.254C97.7415 232.068 100.982 230.475 105.41 230.475ZM144.193 273.648C140.359 273.648 137.011 273.135 134.149 272.109C131.287 271.029 129.073 269.544 127.507 267.654C125.995 265.71 125.239 263.496 125.239 261.012V260.121C125.239 259.851 125.32 259.635 125.482 259.473C125.698 259.257 125.941 259.149 126.211 259.149H137.146C137.416 259.149 137.632 259.257 137.794 259.473C138.01 259.635 138.118 259.851 138.118 260.121C138.118 261.147 138.685 262.011 139.819 262.713C140.953 263.361 142.384 263.685 144.112 263.685C145.624 263.685 146.812 263.442 147.676 262.956C148.594 262.416 149.053 261.714 149.053 260.85C149.053 259.986 148.567 259.365 147.595 258.987C146.677 258.555 145.165 258.15 143.059 257.772C139.657 257.124 136.903 256.341 134.797 255.423C132.043 254.289 129.856 252.885 128.236 251.211C126.616 249.483 125.806 247.134 125.806 244.164C125.806 239.952 127.426 236.631 130.666 234.201C133.96 231.717 138.28 230.475 143.626 230.475C147.244 230.475 150.403 231.069 153.103 232.257C155.857 233.391 157.99 235.011 159.502 237.117C161.014 239.223 161.77 241.653 161.77 244.407C161.77 244.677 161.662 244.92 161.446 245.136C161.284 245.298 161.068 245.379 160.798 245.379H150.187C149.917 245.379 149.674 245.298 149.458 245.136C149.296 244.92 149.215 244.677 149.215 244.407C149.215 243.381 148.729 242.544 147.757 241.896C146.785 241.248 145.462 240.924 143.788 240.924C142.276 240.924 141.034 241.194 140.062 241.734C139.144 242.22 138.685 242.922 138.685 243.84C138.685 244.758 139.198 245.433 140.224 245.865C141.25 246.243 142.978 246.675 145.408 247.161C148.54 247.809 150.727 248.322 151.969 248.7C155.317 249.78 157.909 251.238 159.745 253.074C161.635 254.91 162.58 257.367 162.58 260.445C162.58 264.657 160.906 267.924 157.558 270.246C154.264 272.514 149.809 273.648 144.193 273.648ZM174.709 227.397C172.657 227.397 170.956 226.749 169.606 225.453C168.31 224.103 167.662 222.402 167.662 220.35C167.662 218.244 168.31 216.543 169.606 215.247C170.956 213.951 172.657 213.303 174.709 213.303C176.761 213.303 178.435 213.951 179.731 215.247C181.081 216.543 181.756 218.244 181.756 220.35C181.756 222.348 181.081 224.022 179.731 225.372C178.435 226.722 176.761 227.397 174.709 227.397ZM168.877 273C168.607 273 168.364 272.919 168.148 272.757C167.986 272.541 167.905 272.298 167.905 272.028V232.095C167.905 231.825 167.986 231.609 168.148 231.447C168.364 231.231 168.607 231.123 168.877 231.123H180.379C180.649 231.123 180.865 231.231 181.027 231.447C181.243 231.609 181.351 231.825 181.351 232.095V272.028C181.351 272.298 181.243 272.541 181.027 272.757C180.865 272.919 180.649 273 180.379 273H168.877ZM214.229 217.272C214.229 217.002 214.31 216.786 214.472 216.624C214.688 216.408 214.931 216.3 215.201 216.3H226.703C226.973 216.3 227.189 216.408 227.351 216.624C227.567 216.786 227.675 217.002 227.675 217.272V272.028C227.675 272.298 227.567 272.541 227.351 272.757C227.189 272.919 226.973 273 226.703 273H215.201C214.931 273 214.688 272.919 214.472 272.757C214.31 272.541 214.229 272.298 214.229 272.028V269.355C214.229 269.193 214.175 269.112 214.067 269.112C213.959 269.058 213.851 269.085 213.743 269.193C211.583 272.163 208.478 273.648 204.428 273.648C200.756 273.648 197.489 272.541 194.627 270.327C191.819 268.113 189.821 265.089 188.633 261.255C187.769 258.339 187.337 255.207 187.337 251.859C187.337 248.079 187.904 244.677 189.038 241.653C190.28 238.305 192.251 235.605 194.951 233.553C197.705 231.501 201.026 230.475 204.914 230.475C208.802 230.475 211.745 231.744 213.743 234.282C213.851 234.444 213.959 234.498 214.067 234.444C214.175 234.39 214.229 234.282 214.229 234.12V217.272ZM212.852 258.987C213.77 257.259 214.229 254.964 214.229 252.102C214.229 248.97 213.716 246.54 212.69 244.812C211.556 242.922 209.963 241.977 207.911 241.977C205.697 241.977 204.05 242.949 202.97 244.893C201.89 246.729 201.35 249.132 201.35 252.102C201.35 254.964 201.836 257.286 202.808 259.068C203.942 261.12 205.643 262.146 207.911 262.146C210.071 262.146 211.718 261.093 212.852 258.987ZM273.541 248.376C273.811 249.996 273.892 252.129 273.784 254.775C273.73 255.423 273.379 255.747 272.731 255.747H248.026C247.918 255.747 247.81 255.801 247.702 255.909C247.594 255.963 247.567 256.044 247.621 256.152C247.729 256.746 247.999 257.529 248.431 258.501C249.079 259.635 250.051 260.553 251.347 261.255C252.643 261.957 254.236 262.308 256.126 262.308C259.528 262.308 262.201 261.201 264.145 258.987C264.361 258.717 264.604 258.582 264.874 258.582C265.144 258.582 265.36 258.69 265.522 258.906L271.759 266.034C271.975 266.196 272.083 266.412 272.083 266.682C272.083 266.898 271.975 267.114 271.759 267.33C269.869 269.382 267.52 270.948 264.712 272.028C261.958 273.108 258.934 273.648 255.64 273.648C250.726 273.648 246.541 272.595 243.085 270.489C239.683 268.329 237.226 265.332 235.714 261.498C234.58 258.798 234.013 255.423 234.013 251.373C234.013 248.565 234.445 245.865 235.309 243.273C236.713 239.277 239.008 236.145 242.194 233.877C245.434 231.555 249.268 230.394 253.696 230.394C257.26 230.394 260.446 231.177 263.254 232.743C266.062 234.255 268.33 236.388 270.058 239.142C271.84 241.842 273.001 244.92 273.541 248.376ZM253.696 241.977C250.888 241.977 249.025 243.3 248.107 245.946C247.891 246.54 247.756 247.107 247.702 247.647C247.594 247.917 247.702 248.052 248.026 248.052H259.528C259.744 248.052 259.852 247.944 259.852 247.728C259.852 247.296 259.744 246.756 259.528 246.108C259.15 244.758 258.448 243.732 257.422 243.03C256.45 242.328 255.208 241.977 253.696 241.977ZM301.551 230.556C303.495 230.556 305.007 230.907 306.087 231.609C306.519 231.879 306.681 232.284 306.573 232.824L304.71 244.083C304.656 244.731 304.278 244.92 303.576 244.65C302.604 244.434 301.686 244.326 300.822 244.326C299.904 244.326 299.202 244.38 298.716 244.488C297.042 244.704 295.611 245.352 294.423 246.432C293.289 247.512 292.722 248.943 292.722 250.725V272.028C292.722 272.298 292.614 272.541 292.398 272.757C292.236 272.919 292.02 273 291.75 273H280.248C279.978 273 279.735 272.919 279.519 272.757C279.357 272.541 279.276 272.298 279.276 272.028V232.095C279.276 231.825 279.357 231.609 279.519 231.447C279.735 231.231 279.978 231.123 280.248 231.123H291.75C292.02 231.123 292.236 231.231 292.398 231.447C292.614 231.609 292.722 231.825 292.722 232.095V234.687C292.722 234.849 292.776 234.957 292.884 235.011C292.992 235.065 293.073 235.011 293.127 234.849C295.287 231.987 298.095 230.556 301.551 230.556ZM85.107 291.3C88.779 291.3 92.019 292.056 94.827 293.568C97.689 295.08 99.876 297.213 101.388 299.967C102.954 302.667 103.737 305.799 103.737 309.363C103.737 312.873 102.927 315.978 101.307 318.678C99.741 321.378 97.5 323.457 94.584 324.915C91.668 326.373 88.293 327.102 84.459 327.102H74.577C74.307 327.102 74.172 327.237 74.172 327.507V347.028C74.172 347.298 74.064 347.541 73.848 347.757C73.686 347.919 73.47 348 73.2 348H61.698C61.428 348 61.185 347.919 60.969 347.757C60.807 347.541 60.726 347.298 60.726 347.028V292.272C60.726 292.002 60.807 291.786 60.969 291.624C61.185 291.408 61.428 291.3 61.698 291.3H85.107ZM82.92 316.41C85.134 316.41 86.916 315.789 88.266 314.547C89.67 313.305 90.372 311.685 90.372 309.687C90.372 307.635 89.67 305.988 88.266 304.746C86.916 303.45 85.134 302.802 82.92 302.802H74.577C74.307 302.802 74.172 302.937 74.172 303.207V316.005C74.172 316.275 74.307 316.41 74.577 316.41H82.92ZM131.087 305.556C133.031 305.556 134.543 305.907 135.623 306.609C136.055 306.879 136.217 307.284 136.109 307.824L134.246 319.083C134.192 319.731 133.814 319.92 133.112 319.65C132.14 319.434 131.222 319.326 130.358 319.326C129.44 319.326 128.738 319.38 128.252 319.488C126.578 319.704 125.147 320.352 123.959 321.432C122.825 322.512 122.258 323.943 122.258 325.725V347.028C122.258 347.298 122.15 347.541 121.934 347.757C121.772 347.919 121.556 348 121.286 348H109.784C109.514 348 109.271 347.919 109.055 347.757C108.893 347.541 108.812 347.298 108.812 347.028V307.095C108.812 306.825 108.893 306.609 109.055 306.447C109.271 306.231 109.514 306.123 109.784 306.123H121.286C121.556 306.123 121.772 306.231 121.934 306.447C122.15 306.609 122.258 306.825 122.258 307.095V309.687C122.258 309.849 122.312 309.957 122.42 310.011C122.528 310.065 122.609 310.011 122.663 309.849C124.823 306.987 127.631 305.556 131.087 305.556ZM158.305 348.648C153.445 348.648 149.314 347.352 145.912 344.76C142.51 342.168 140.242 338.658 139.108 334.23C138.46 332.016 138.136 329.586 138.136 326.94C138.136 323.97 138.487 321.351 139.189 319.083C140.431 314.817 142.726 311.496 146.074 309.12C149.476 306.69 153.58 305.475 158.386 305.475C163.138 305.475 167.161 306.69 170.455 309.12C173.749 311.496 176.044 314.79 177.34 319.002C178.096 321.432 178.474 324.024 178.474 326.778C178.474 329.262 178.177 331.638 177.583 333.906C176.449 338.442 174.181 342.033 170.779 344.679C167.377 347.325 163.219 348.648 158.305 348.648ZM158.305 337.146C159.871 337.146 161.167 336.66 162.193 335.688C163.219 334.662 163.975 333.285 164.461 331.557C164.785 330.153 164.947 328.614 164.947 326.94C164.947 325.32 164.758 323.754 164.38 322.242C163.948 320.568 163.219 319.272 162.193 318.354C161.167 317.436 159.871 316.977 158.305 316.977C155.173 316.977 153.121 318.732 152.149 322.242C151.825 323.538 151.663 325.104 151.663 326.94C151.663 328.614 151.825 330.153 152.149 331.557C152.581 333.285 153.31 334.662 154.336 335.688C155.416 336.66 156.739 337.146 158.305 337.146ZM209.709 307.095C209.709 306.825 209.79 306.609 209.952 306.447C210.168 306.231 210.411 306.123 210.681 306.123H222.183C222.453 306.123 222.669 306.231 222.831 306.447C223.047 306.609 223.155 306.825 223.155 307.095V343.302C223.155 350.7 221.022 355.992 216.756 359.178C212.49 362.364 207.09 363.957 200.556 363.957C198.126 363.957 195.561 363.741 192.861 363.309C192.321 363.255 192.051 362.904 192.051 362.256L192.456 352.212C192.456 351.834 192.564 351.564 192.78 351.402C192.996 351.294 193.266 351.294 193.59 351.402C195.804 351.888 197.856 352.131 199.746 352.131C202.824 352.131 205.254 351.429 207.036 350.025C208.818 348.621 209.709 346.407 209.709 343.383L209.142 343.95C207.198 345.894 204.39 346.866 200.718 346.866C197.154 346.866 193.887 346.083 190.917 344.517C187.947 342.951 185.814 340.197 184.518 336.255C183.654 333.663 183.222 330.477 183.222 326.697C183.222 322.539 183.735 319.137 184.761 316.491C186.003 313.143 187.974 310.47 190.674 308.472C193.428 306.474 196.614 305.475 200.232 305.475C204.12 305.475 207.117 306.663 209.223 309.039C209.331 309.147 209.439 309.201 209.547 309.201C209.655 309.147 209.709 309.039 209.709 308.877V307.095ZM208.98 332.691C209.466 331.449 209.709 329.424 209.709 326.616C209.709 325.158 209.655 324.024 209.547 323.214C209.439 322.35 209.223 321.54 208.899 320.784C208.467 319.596 207.765 318.678 206.793 318.03C205.875 317.328 204.741 316.977 203.391 316.977C200.853 316.977 199.044 318.246 197.964 320.784C197.154 322.296 196.749 324.294 196.749 326.778C196.749 329.424 197.1 331.368 197.802 332.61C198.288 333.744 199.017 334.662 199.989 335.364C200.961 336.066 202.122 336.417 203.472 336.417C206.226 336.417 208.062 335.175 208.98 332.691ZM252.192 305.556C254.136 305.556 255.648 305.907 256.728 306.609C257.16 306.879 257.322 307.284 257.214 307.824L255.351 319.083C255.297 319.731 254.919 319.92 254.217 319.65C253.245 319.434 252.327 319.326 251.463 319.326C250.545 319.326 249.843 319.38 249.357 319.488C247.683 319.704 246.252 320.352 245.064 321.432C243.93 322.512 243.363 323.943 243.363 325.725V347.028C243.363 347.298 243.255 347.541 243.039 347.757C242.877 347.919 242.661 348 242.391 348H230.889C230.619 348 230.376 347.919 230.16 347.757C229.998 347.541 229.917 347.298 229.917 347.028V307.095C229.917 306.825 229.998 306.609 230.16 306.447C230.376 306.231 230.619 306.123 230.889 306.123H242.391C242.661 306.123 242.877 306.231 243.039 306.447C243.255 306.609 243.363 306.825 243.363 307.095V309.687C243.363 309.849 243.417 309.957 243.525 310.011C243.633 310.065 243.714 310.011 243.768 309.849C245.928 306.987 248.736 305.556 252.192 305.556ZM278.42 305.475C282.038 305.475 285.305 306.096 288.221 307.338C291.137 308.526 293.432 310.2 295.106 312.36C296.78 314.466 297.617 316.815 297.617 319.407V347.028C297.617 347.298 297.509 347.541 297.293 347.757C297.131 347.919 296.915 348 296.645 348H285.143C284.873 348 284.63 347.919 284.414 347.757C284.252 347.541 284.171 347.298 284.171 347.028V344.193C284.171 343.977 284.117 343.869 284.009 343.869C283.901 343.815 283.793 343.896 283.685 344.112C281.633 347.136 278.123 348.648 273.155 348.648C268.835 348.648 265.379 347.649 262.787 345.651C260.249 343.599 258.98 340.602 258.98 336.66C258.98 332.502 260.411 329.289 263.273 327.021C266.189 324.753 270.401 323.619 275.909 323.619H283.766C284.036 323.619 284.171 323.484 284.171 323.214V321.675C284.171 320.217 283.685 319.083 282.713 318.273C281.741 317.409 280.391 316.977 278.663 316.977C277.367 316.977 276.233 317.22 275.261 317.706C274.343 318.192 273.749 318.813 273.479 319.569C273.209 320.163 272.831 320.433 272.345 320.379L260.681 318.84C260.033 318.732 259.709 318.489 259.709 318.111C259.925 315.735 260.843 313.602 262.463 311.712C264.137 309.768 266.351 308.256 269.105 307.176C271.913 306.042 275.018 305.475 278.42 305.475ZM277.124 339.009C279.176 339.009 280.85 338.496 282.146 337.47C283.496 336.39 284.171 334.986 284.171 333.258V331.314C284.171 331.044 284.036 330.909 283.766 330.909H278.906C276.854 330.909 275.261 331.26 274.127 331.962C273.047 332.664 272.507 333.717 272.507 335.121C272.507 336.309 272.912 337.254 273.722 337.956C274.532 338.658 275.666 339.009 277.124 339.009ZM352.386 305.475C356.598 305.475 359.892 306.771 362.268 309.363C364.644 311.955 365.832 315.6 365.832 320.298V347.028C365.832 347.298 365.724 347.541 365.508 347.757C365.346 347.919 365.13 348 364.86 348H353.439C353.169 348 352.926 347.919 352.71 347.757C352.548 347.541 352.467 347.298 352.467 347.028V323.214C352.467 321.378 351.981 319.893 351.009 318.759C350.091 317.571 348.849 316.977 347.283 316.977C345.717 316.977 344.421 317.544 343.395 318.678C342.423 319.812 341.937 321.324 341.937 323.214V347.028C341.937 347.298 341.829 347.541 341.613 347.757C341.451 347.919 341.235 348 340.965 348H329.463C329.193 348 328.95 347.919 328.734 347.757C328.572 347.541 328.491 347.298 328.491 347.028V323.214C328.491 321.378 327.978 319.893 326.952 318.759C325.98 317.571 324.711 316.977 323.145 316.977C321.687 316.977 320.472 317.436 319.5 318.354C318.528 319.272 317.934 320.487 317.718 321.999V347.028C317.718 347.298 317.61 347.541 317.394 347.757C317.232 347.919 317.016 348 316.746 348H305.244C304.974 348 304.731 347.919 304.515 347.757C304.353 347.541 304.272 347.298 304.272 347.028V307.095C304.272 306.825 304.353 306.609 304.515 306.447C304.731 306.231 304.974 306.123 305.244 306.123H316.746C317.016 306.123 317.232 306.231 317.394 306.447C317.61 306.609 317.718 306.825 317.718 307.095V310.74C317.718 310.956 317.772 311.091 317.88 311.145C317.988 311.145 318.096 311.037 318.204 310.821C320.31 307.257 323.766 305.475 328.572 305.475C331.272 305.475 333.648 306.069 335.7 307.257C337.752 308.445 339.318 310.173 340.398 312.441C340.56 312.765 340.722 312.738 340.884 312.36C342.018 310.038 343.557 308.31 345.501 307.176C347.499 306.042 349.794 305.475 352.386 305.475Z"></path>
<path fill="#C3DAFE" d="M70.9763 114.226C69.544 114.226 68.2907 113.962 67.2165 113.435C66.1611 112.888 65.3413 112.134 64.7571 111.173C64.1728 110.193 63.8807 109.062 63.8807 107.781V106C63.8807 105.906 63.909 105.83 63.9655 105.774C64.0409 105.698 64.1257 105.661 64.2199 105.661H67.5275C67.6217 105.661 67.6971 105.698 67.7536 105.774C67.829 105.83 67.8667 105.906 67.8667 106V107.781C67.8667 108.685 68.14 109.42 68.6865 109.986C69.2519 110.532 70.0152 110.806 70.9763 110.806C71.8998 110.806 72.6537 110.532 73.2379 109.986C73.841 109.42 74.1425 108.685 74.1425 107.781V94.5506C74.1425 94.4564 74.1708 94.381 74.2273 94.3244C74.3027 94.2491 74.3875 94.2114 74.4818 94.2114H77.761C77.8553 94.2114 77.9306 94.2491 77.9872 94.3244C78.0626 94.381 78.1003 94.4564 78.1003 94.5506V107.781C78.1003 109.062 77.7987 110.193 77.1956 111.173C76.5926 112.134 75.7539 112.888 74.6797 113.435C73.6054 113.962 72.371 114.226 70.9763 114.226ZM91.2498 114.311C89.7797 114.311 88.4794 114.009 87.3486 113.406C86.2366 112.803 85.3697 111.965 84.7478 110.89C84.1259 109.797 83.8149 108.544 83.8149 107.131V101.081C83.8149 99.6862 84.1259 98.4518 84.7478 97.3775C85.3697 96.3033 86.2366 95.4741 87.3486 94.8898C88.4794 94.2867 89.7797 93.9852 91.2498 93.9852C92.7386 93.9852 94.039 94.2867 95.151 94.8898C96.2817 95.4741 97.1581 96.3033 97.78 97.3775C98.4019 98.4518 98.7129 99.6862 98.7129 101.081V107.131C98.7129 108.544 98.4019 109.797 97.78 110.89C97.1581 111.983 96.2817 112.832 95.151 113.435C94.039 114.019 92.7386 114.311 91.2498 114.311ZM91.2498 110.89C92.2863 110.89 93.125 110.561 93.7657 109.901C94.4065 109.241 94.7269 108.365 94.7269 107.272V101.053C94.7269 99.9595 94.4065 99.0831 93.7657 98.4235C93.1438 97.745 92.3052 97.4058 91.2498 97.4058C90.2132 97.4058 89.3746 97.745 88.7338 98.4235C88.1118 99.0831 87.8009 99.9595 87.8009 101.053V107.272C87.8009 108.365 88.1118 109.241 88.7338 109.901C89.3746 110.561 90.2132 110.89 91.2498 110.89ZM104.935 114C104.841 114 104.756 113.972 104.68 113.915C104.624 113.84 104.596 113.755 104.596 113.661V94.5506C104.596 94.4564 104.624 94.381 104.68 94.3244C104.756 94.2491 104.841 94.2114 104.935 94.2114H108.242C108.337 94.2114 108.412 94.2491 108.469 94.3244C108.544 94.381 108.582 94.4564 108.582 94.5506V113.661C108.582 113.755 108.544 113.84 108.469 113.915C108.412 113.972 108.337 114 108.242 114H104.935ZM126.213 94.5506C126.213 94.4564 126.241 94.381 126.298 94.3244C126.373 94.2491 126.458 94.2114 126.552 94.2114H129.86C129.954 94.2114 130.03 94.2491 130.086 94.3244C130.161 94.381 130.199 94.4564 130.199 94.5506V113.661C130.199 113.755 130.161 113.84 130.086 113.915C130.03 113.972 129.954 114 129.86 114H126.665C126.477 114 126.345 113.925 126.27 113.774L118.948 101.675C118.91 101.618 118.873 101.599 118.835 101.618C118.797 101.618 118.778 101.656 118.778 101.731L118.835 113.661C118.835 113.755 118.797 113.84 118.722 113.915C118.665 113.972 118.59 114 118.496 114H115.188C115.094 114 115.009 113.972 114.934 113.915C114.877 113.84 114.849 113.755 114.849 113.661V94.5506C114.849 94.4564 114.877 94.381 114.934 94.3244C115.009 94.2491 115.094 94.2114 115.188 94.2114H118.382C118.571 94.2114 118.703 94.2867 118.778 94.4375L126.072 106.48C126.109 106.537 126.147 106.565 126.185 106.565C126.223 106.546 126.241 106.499 126.241 106.424L126.213 94.5506ZM152.143 114.226C150.692 114.226 149.41 113.943 148.298 113.378C147.205 112.813 146.348 112.021 145.726 111.003C145.123 109.967 144.821 108.78 144.821 107.441V94.5506C144.821 94.4564 144.849 94.381 144.906 94.3244C144.981 94.2491 145.066 94.2114 145.16 94.2114H148.468C148.562 94.2114 148.637 94.2491 148.694 94.3244C148.769 94.381 148.807 94.4564 148.807 94.5506V107.47C148.807 108.469 149.109 109.279 149.712 109.901C150.334 110.504 151.144 110.806 152.143 110.806C153.142 110.806 153.943 110.504 154.546 109.901C155.168 109.279 155.479 108.469 155.479 107.47V94.5506C155.479 94.4564 155.507 94.381 155.563 94.3244C155.639 94.2491 155.724 94.2114 155.818 94.2114H159.125C159.22 94.2114 159.295 94.2491 159.352 94.3244C159.427 94.381 159.465 94.4564 159.465 94.5506V107.441C159.465 108.78 159.154 109.967 158.532 111.003C157.929 112.021 157.071 112.813 155.959 113.378C154.866 113.943 153.594 114.226 152.143 114.226ZM172.353 114.226C170.845 114.226 169.526 113.991 168.395 113.519C167.264 113.029 166.388 112.342 165.766 111.456C165.163 110.551 164.861 109.505 164.861 108.318V107.696C164.861 107.602 164.89 107.526 164.946 107.47C165.022 107.394 165.106 107.357 165.201 107.357H168.423C168.518 107.357 168.593 107.394 168.65 107.47C168.725 107.526 168.763 107.602 168.763 107.696V108.12C168.763 108.874 169.111 109.515 169.809 110.042C170.506 110.551 171.448 110.806 172.636 110.806C173.634 110.806 174.379 110.598 174.869 110.184C175.359 109.75 175.604 109.222 175.604 108.601C175.604 108.148 175.453 107.771 175.152 107.47C174.85 107.149 174.435 106.876 173.908 106.65C173.399 106.405 172.579 106.075 171.448 105.661C170.186 105.227 169.111 104.784 168.226 104.332C167.359 103.88 166.624 103.267 166.021 102.494C165.436 101.703 165.144 100.732 165.144 99.5826C165.144 98.4518 165.436 97.4624 166.021 96.6143C166.605 95.7662 167.415 95.116 168.452 94.6637C169.488 94.2114 170.685 93.9852 172.042 93.9852C173.474 93.9852 174.746 94.2396 175.858 94.7485C176.989 95.2573 177.865 95.9735 178.487 96.897C179.128 97.8016 179.449 98.857 179.449 100.063V100.487C179.449 100.581 179.411 100.666 179.335 100.742C179.279 100.798 179.204 100.826 179.109 100.826H175.858C175.764 100.826 175.679 100.798 175.604 100.742C175.547 100.666 175.519 100.581 175.519 100.487V100.261C175.519 99.4695 175.189 98.8004 174.53 98.2539C173.889 97.6885 173.003 97.4058 171.872 97.4058C170.987 97.4058 170.289 97.5943 169.78 97.9712C169.29 98.3481 169.045 98.8664 169.045 99.526C169.045 99.9972 169.187 100.393 169.469 100.713C169.771 101.034 170.204 101.326 170.77 101.59C171.354 101.835 172.249 102.174 173.455 102.607C174.794 103.097 175.839 103.531 176.593 103.908C177.366 104.285 178.054 104.85 178.657 105.604C179.279 106.339 179.59 107.3 179.59 108.487C179.59 110.259 178.94 111.663 177.639 112.7C176.339 113.717 174.577 114.226 172.353 114.226Z"></path>
<g filter="url(#filter0_dddd_9138_10147)" clip-path="url(#clip1_9138_10147)">
<path fill="url(#paint1_linear_9138_10147)" d="M606.49 386.995C687.394 386.995 752.979 321.409 752.979 240.505C752.979 159.601 687.394 94.0156 606.49 94.0156C525.586 94.0156 460 159.601 460 240.505C460 321.409 525.586 386.995 606.49 386.995Z"></path>
<path fill="url(#paint2_linear_9138_10147)" d="M606.49 374.122C680.288 374.122 740.113 314.297 740.113 240.499C740.113 166.7 680.288 106.875 606.49 106.875C532.691 106.875 472.866 166.7 472.866 240.499C472.866 314.297 532.691 374.122 606.49 374.122Z"></path>
<path fill="url(#paint3_linear_9138_10147)" d="M606.49 326.751C654.116 326.751 692.724 288.142 692.724 240.516C692.724 192.89 654.116 154.281 606.49 154.281C558.863 154.281 520.255 192.89 520.255 240.516C520.255 288.142 558.863 326.751 606.49 326.751Z"></path>
<path stroke-miterlimit="10" stroke-width="4.13696" stroke="#090A15" d="M606.49 326.787C654.139 326.787 692.766 288.16 692.766 240.511C692.766 192.862 654.139 154.234 606.49 154.234C558.841 154.234 520.214 192.862 520.214 240.511C520.214 288.16 558.841 326.787 606.49 326.787Z"></path>
<path stroke-miterlimit="10" stroke-width="4.13696" stroke="#090A15" d="M606.49 373.286C679.819 373.286 739.265 313.84 739.265 240.51C739.265 167.18 679.819 107.734 606.49 107.734C533.16 107.734 473.714 167.18 473.714 240.51C473.714 313.84 533.16 373.286 606.49 373.286Z"></path>
<path fill="url(#paint4_linear_9138_10147)" d="M606.49 305.691C642.486 305.691 671.668 276.51 671.668 240.514C671.668 204.517 642.486 175.336 606.49 175.336C570.493 175.336 541.312 204.517 541.312 240.514C541.312 276.51 570.493 305.691 606.49 305.691Z"></path>
<path fill="#090A15" d="M554.178 324.184C554.674 325.177 554.881 326.231 554.757 327.328C554.654 328.424 554.24 329.5 553.516 330.534C552.813 331.547 551.965 332.292 550.951 332.768C549.938 333.244 548.903 333.409 547.766 333.244C546.649 333.099 545.532 332.644 544.456 331.878L540.443 329.086C540.443 329.086 540.299 329.045 540.236 329.127L535.541 335.871C535.541 335.871 535.396 335.995 535.313 336.015C535.21 336.015 535.127 336.015 535.045 335.953L532.749 334.34C532.749 334.34 532.604 334.195 532.604 334.112C532.604 334.009 532.604 333.926 532.666 333.843L544.477 316.903C544.477 316.903 544.622 316.778 544.704 316.758C544.808 316.758 544.891 316.758 544.973 316.82L551.861 321.619C552.916 322.343 553.682 323.211 554.178 324.204V324.184ZM548.407 330.017C549.276 329.872 550 329.396 550.558 328.59C551.137 327.762 551.344 326.893 551.199 326.025C551.034 325.156 550.537 324.411 549.689 323.811L545.966 321.205C545.966 321.205 545.801 321.164 545.759 321.246L542.077 326.521C542.077 326.521 542.036 326.666 542.119 326.728L545.842 329.334C546.69 329.934 547.559 330.162 548.428 330.017H548.407Z"></path>
<path fill="#090A15" d="M561.976 350.777L561.873 341.117C561.873 341.117 561.831 340.972 561.749 340.931L558.398 339.441C558.398 339.441 558.232 339.441 558.191 339.524L554.654 347.446C554.654 347.446 554.55 347.612 554.447 347.633C554.364 347.674 554.261 347.674 554.178 347.633L551.613 346.495C551.613 346.495 551.448 346.392 551.427 346.288C551.386 346.185 551.386 346.102 551.427 345.999L559.825 327.155C559.825 327.155 559.928 326.989 560.032 326.969C560.115 326.927 560.218 326.927 560.321 326.969L567.996 330.382C569.133 330.878 570.023 331.581 570.685 332.429C571.346 333.298 571.719 334.27 571.822 335.346C571.926 336.421 571.719 337.518 571.222 338.635C570.643 339.917 569.836 340.869 568.782 341.469C567.727 342.068 566.527 342.296 565.203 342.13C565.162 342.13 565.12 342.13 565.1 342.13C565.058 342.151 565.038 342.193 565.058 342.234L565.369 352.101C565.369 352.101 565.369 352.245 565.369 352.287C565.307 352.432 565.162 352.473 564.955 352.369L562.287 351.17C562.1 351.087 562.018 350.942 562.018 350.735L561.976 350.777ZM561.935 331.188L559.453 336.732C559.453 336.732 559.453 336.897 559.535 336.939L563.714 338.8C564.603 339.193 565.451 339.255 566.237 338.966C567.023 338.676 567.603 338.097 567.996 337.228C568.389 336.359 568.43 335.532 568.12 334.746C567.809 333.96 567.21 333.381 566.32 332.967L562.142 331.105C562.142 331.105 561.976 331.105 561.935 331.188Z"></path>
<path fill="#090A15" d="M575.752 354.998C574.739 354.13 574.056 353.075 573.684 351.813C573.312 350.551 573.291 349.207 573.622 347.759L575.173 340.974C575.504 339.547 576.104 338.347 576.993 337.396C577.883 336.444 578.958 335.803 580.241 335.451C581.523 335.1 582.909 335.1 584.399 335.451C585.909 335.803 587.15 336.403 588.163 337.271C589.156 338.14 589.859 339.195 590.232 340.436C590.604 341.677 590.645 343.022 590.314 344.449L588.763 351.234C588.432 352.682 587.812 353.881 586.922 354.854C586.033 355.826 584.957 356.467 583.675 356.819C582.392 357.17 581.006 357.15 579.496 356.819C578.007 356.467 576.766 355.867 575.752 354.998ZM583.447 353.385C584.378 352.785 584.998 351.854 585.288 350.592L586.881 343.663C587.17 342.381 587.046 341.264 586.467 340.312C585.888 339.361 584.978 338.74 583.737 338.451C582.516 338.161 581.42 338.326 580.489 338.926C579.558 339.526 578.938 340.478 578.648 341.76L577.055 348.689C576.766 349.951 576.911 351.068 577.49 352.02C578.069 352.971 578.958 353.571 580.2 353.861C581.441 354.15 582.537 353.985 583.468 353.385H583.447Z"></path>
<path fill="#090A15" d="M598.361 358.696C597.223 358.055 596.354 357.186 595.754 356.048C595.155 354.931 594.886 353.649 594.948 352.242L595.196 344.858C595.237 343.41 595.61 342.169 596.272 341.093C596.933 340.018 597.864 339.211 599.043 338.653C600.222 338.094 601.567 337.846 603.098 337.887C604.607 337.929 605.911 338.28 607.048 338.901C608.186 339.521 609.034 340.369 609.634 341.404C610.234 342.438 610.503 343.596 610.461 344.879V345.127C610.461 345.127 610.42 345.313 610.337 345.375C610.254 345.437 610.172 345.479 610.068 345.479L607.297 345.375C607.297 345.375 607.11 345.334 607.048 345.251C606.986 345.168 606.945 345.086 606.945 344.982V344.837C606.986 343.741 606.655 342.831 605.931 342.086C605.207 341.342 604.235 340.969 602.994 340.928C601.753 340.887 600.739 341.217 599.974 341.941C599.188 342.665 598.795 343.617 598.754 344.837L598.485 352.47C598.443 353.69 598.816 354.683 599.581 355.449C600.346 356.214 601.36 356.628 602.622 356.669C603.842 356.71 604.814 356.421 605.538 355.8C606.262 355.18 606.635 354.311 606.676 353.194L606.738 351.312C606.738 351.312 606.697 351.167 606.593 351.146L602.849 351.022C602.849 351.022 602.663 350.981 602.601 350.898C602.539 350.815 602.498 350.732 602.498 350.629L602.58 348.374C602.58 348.374 602.622 348.188 602.704 348.126C602.787 348.064 602.87 348.023 602.973 348.023L610.027 348.271C610.027 348.271 610.213 348.312 610.275 348.395C610.337 348.478 610.379 348.561 610.379 348.664L610.254 352.573C610.172 354.911 609.427 356.71 608.02 357.951C606.593 359.213 604.732 359.792 602.415 359.71C600.884 359.668 599.56 359.317 598.423 358.675L598.361 358.696Z"></path>
<path fill="#090A15" d="M629.429 357.16L624.093 349.093C624.093 349.093 623.969 348.99 623.886 349.01L620.266 349.569C620.266 349.569 620.121 349.652 620.142 349.734L621.486 358.298C621.486 358.298 621.486 358.484 621.424 358.567C621.362 358.649 621.28 358.691 621.176 358.712L618.404 359.146C618.404 359.146 618.218 359.146 618.135 359.084C618.053 359.022 618.011 358.939 617.991 358.836L614.805 338.461C614.805 338.461 614.805 338.275 614.867 338.192C614.929 338.109 615.012 338.068 615.115 338.047L623.41 336.744C624.63 336.558 625.768 336.641 626.782 337.013C627.816 337.385 628.664 337.985 629.326 338.833C629.988 339.681 630.422 340.716 630.608 341.915C630.815 343.301 630.65 344.542 630.091 345.618C629.533 346.714 628.643 347.542 627.444 348.121C627.402 348.121 627.382 348.162 627.361 348.204C627.34 348.245 627.361 348.286 627.361 348.328L632.987 356.436C632.987 356.436 633.07 356.56 633.07 356.602C633.091 356.767 632.987 356.85 632.78 356.891L629.884 357.346C629.678 357.388 629.533 357.305 629.429 357.139V357.16ZM618.735 340.736L619.666 346.735C619.666 346.735 619.749 346.88 619.832 346.859L624.362 346.156C625.334 346.011 626.058 345.597 626.554 344.935C627.051 344.274 627.237 343.467 627.092 342.515C626.947 341.564 626.533 340.861 625.851 340.364C625.168 339.868 624.341 339.702 623.369 339.847L618.839 340.55C618.839 340.55 618.694 340.633 618.715 340.716L618.735 340.736Z"></path>
<path fill="#090A15" d="M653.279 349.847L651.189 347.138C651.189 347.138 651.065 347.055 651.003 347.076L643.453 349.909C643.453 349.909 643.371 349.992 643.35 350.075L643.557 353.488C643.557 353.695 643.474 353.839 643.288 353.922L640.433 354.998C640.33 355.039 640.227 355.039 640.144 354.998C640.061 354.956 640.02 354.853 639.999 354.708L638.944 333.072C638.944 332.865 639.027 332.72 639.213 332.638L642.791 331.293C642.978 331.231 643.143 331.272 643.267 331.438L656.754 348.42C656.754 348.42 656.816 348.503 656.836 348.544C656.898 348.71 656.836 348.834 656.609 348.916L653.754 349.992C653.568 350.054 653.403 350.013 653.279 349.847ZM643.329 346.993L649.121 344.821C649.224 344.779 649.245 344.697 649.162 344.614L642.626 336.154C642.626 336.154 642.543 336.051 642.502 336.071C642.461 336.071 642.44 336.133 642.46 336.216L643.143 346.889C643.164 347.013 643.226 347.055 643.329 347.013V346.993Z"></path>
<path fill="#090A15" d="M664.138 319.72L666.496 318.21C666.496 318.21 666.662 318.148 666.765 318.168C666.869 318.189 666.931 318.251 666.993 318.334L678.142 335.688C678.142 335.688 678.225 335.874 678.183 335.957C678.183 336.061 678.1 336.123 678.018 336.185L675.66 337.695C675.66 337.695 675.473 337.757 675.391 337.736C675.287 337.715 675.225 337.653 675.163 337.571L667.303 325.325C667.303 325.325 667.22 325.263 667.179 325.263C667.117 325.263 667.096 325.305 667.117 325.367L667.075 332.358C667.075 332.544 666.993 332.689 666.848 332.792L665.669 333.558C665.503 333.661 665.359 333.661 665.172 333.578L658.781 330.745C658.781 330.745 658.698 330.703 658.657 330.745C658.615 330.786 658.615 330.827 658.657 330.889L666.496 343.114C666.496 343.114 666.579 343.3 666.538 343.383C666.517 343.486 666.455 343.549 666.372 343.611L664.014 345.121C664.014 345.121 663.828 345.203 663.745 345.162C663.642 345.141 663.58 345.079 663.518 344.996L652.369 327.642C652.369 327.642 652.307 327.456 652.327 327.373C652.327 327.27 652.41 327.208 652.493 327.145L654.851 325.635C655.016 325.532 655.161 325.532 655.347 325.615L663.6 329.276C663.6 329.276 663.704 329.276 663.745 329.276C663.787 329.255 663.787 329.214 663.787 329.173L663.89 320.133C663.89 319.947 663.973 319.802 664.118 319.699L664.138 319.72Z"></path>
<path fill="#090A15" d="M554.136 157.216C554.136 157.216 553.971 157.134 553.909 157.051L543.153 139.448C543.153 139.448 543.091 139.262 543.111 139.179C543.132 139.076 543.194 139.014 543.277 138.952L545.676 137.483C545.676 137.483 545.862 137.421 545.945 137.442C546.049 137.462 546.111 137.524 546.173 137.607L556.929 155.21C556.929 155.21 556.991 155.396 556.97 155.479C556.95 155.562 556.887 155.644 556.805 155.706L554.405 157.175C554.405 157.175 554.219 157.237 554.136 157.216Z"></path>
<path fill="#090A15" d="M564.934 128.27C564.934 128.27 565.037 128.104 565.141 128.063L567.726 126.987C567.726 126.987 567.913 126.946 568.016 126.987C568.099 127.029 568.182 127.091 568.223 127.194L576.145 146.245C576.145 146.245 576.187 146.431 576.145 146.534C576.104 146.638 576.042 146.7 575.938 146.741L573.435 147.775C573.249 147.858 573.084 147.837 572.939 147.713L559.287 137.805C559.287 137.805 559.184 137.764 559.142 137.785C559.101 137.805 559.101 137.867 559.142 137.929L564.665 151.023C564.665 151.023 564.706 151.209 564.665 151.312C564.624 151.416 564.562 151.478 564.458 151.519L561.873 152.595C561.873 152.595 561.686 152.636 561.583 152.595C561.48 152.554 561.418 152.491 561.376 152.388L553.454 133.337C553.454 133.337 553.413 133.151 553.454 133.048C553.495 132.965 553.557 132.882 553.661 132.841L556.164 131.807C556.35 131.724 556.515 131.745 556.66 131.869L570.291 141.797C570.291 141.797 570.395 141.839 570.436 141.818C570.478 141.797 570.478 141.735 570.436 141.673L564.934 128.559C564.934 128.559 564.893 128.373 564.934 128.27Z"></path>
<path fill="#090A15" d="M583.612 144.22C582.35 143.951 581.337 143.413 580.53 142.648C579.723 141.862 579.206 140.869 578.958 139.648L578.813 138.904C578.813 138.904 578.813 138.718 578.875 138.635C578.937 138.552 579.02 138.511 579.103 138.49L581.771 137.973C581.771 137.973 581.957 137.973 582.04 138.035C582.123 138.097 582.185 138.159 582.206 138.262L582.309 138.821C582.495 139.731 583.054 140.414 583.984 140.869C584.915 141.324 586.094 141.407 587.522 141.138C588.742 140.91 589.611 140.455 590.128 139.814C590.645 139.173 590.831 138.449 590.666 137.621C590.562 137.063 590.293 136.628 589.88 136.297C589.466 135.966 588.907 135.718 588.225 135.511C587.542 135.325 586.508 135.098 585.163 134.87C583.653 134.622 582.392 134.353 581.44 134.084C580.489 133.815 579.62 133.319 578.875 132.636C578.131 131.954 577.655 131.043 577.407 129.864C577.055 128.106 577.427 126.596 578.524 125.334C579.599 124.073 581.213 123.225 583.343 122.811C584.833 122.521 586.218 122.521 587.459 122.811C588.701 123.101 589.735 123.659 590.562 124.466C591.39 125.272 591.907 126.286 592.155 127.506L592.258 128.024C592.258 128.024 592.258 128.21 592.196 128.292C592.134 128.375 592.072 128.417 591.969 128.437L589.28 128.954C589.28 128.954 589.094 128.954 589.011 128.892C588.928 128.83 588.866 128.768 588.845 128.665L588.783 128.334C588.597 127.403 588.059 126.679 587.17 126.183C586.28 125.686 585.143 125.562 583.798 125.831C582.702 126.038 581.895 126.431 581.378 127.01C580.861 127.589 580.675 128.292 580.84 129.14C580.964 129.74 581.213 130.195 581.606 130.506C581.999 130.816 582.536 131.064 583.24 131.25C583.943 131.436 584.998 131.643 586.425 131.85C587.956 132.119 589.176 132.388 590.107 132.657C591.038 132.926 591.886 133.402 592.651 134.063C593.417 134.725 593.913 135.656 594.141 136.835C594.492 138.635 594.099 140.186 592.982 141.51C591.865 142.834 590.148 143.703 587.852 144.158C586.301 144.468 584.895 144.468 583.633 144.199L583.612 144.22Z"></path>
<path fill="#090A15" d="M599.684 142.279C599.684 142.279 599.56 142.134 599.56 142.03L598.484 121.428C598.484 121.428 598.505 121.242 598.588 121.16C598.65 121.077 598.733 121.035 598.836 121.035L601.649 120.891C601.649 120.891 601.835 120.911 601.918 120.994C602.001 121.077 602.042 121.139 602.042 121.242L603.118 141.844C603.118 141.844 603.097 142.03 603.014 142.113C602.952 142.196 602.87 142.237 602.766 142.237L599.953 142.382C599.953 142.382 599.767 142.361 599.684 142.299V142.279Z"></path>
<path fill="#090A15" d="M608.434 141.82C608.434 141.82 608.351 141.654 608.351 141.551L610.233 121.011C610.233 121.011 610.295 120.824 610.358 120.762C610.44 120.7 610.523 120.68 610.626 120.68L618.032 121.362C619.479 121.486 620.721 121.859 621.755 122.459C622.81 123.058 623.575 123.865 624.092 124.858C624.609 125.851 624.795 126.989 624.692 128.23L623.885 137.041C623.782 138.303 623.368 139.379 622.686 140.247C622.003 141.137 621.093 141.778 619.955 142.192C618.818 142.606 617.535 142.73 616.087 142.606L608.682 141.923C608.682 141.923 608.496 141.882 608.434 141.799V141.82ZM612.281 139.213L616.542 139.606C617.618 139.71 618.507 139.441 619.211 138.82C619.914 138.2 620.328 137.331 620.452 136.193L621.155 128.499C621.258 127.34 621.01 126.389 620.431 125.665C619.852 124.92 619.004 124.506 617.907 124.403L613.688 124.01C613.688 124.01 613.522 124.051 613.522 124.155L612.157 139.048C612.157 139.048 612.198 139.213 612.302 139.213H612.281Z"></path>
<path fill="#090A15" d="M646.536 130.577C646.536 130.577 646.349 130.639 646.267 130.597L636.276 127.66C636.276 127.66 636.11 127.66 636.09 127.764L634.476 133.245C634.476 133.245 634.476 133.411 634.58 133.431L641.282 135.396C641.282 135.396 641.447 135.479 641.509 135.562C641.551 135.645 641.571 135.748 641.53 135.851L640.868 138.085C640.868 138.085 640.785 138.251 640.702 138.313C640.62 138.354 640.516 138.375 640.434 138.334L633.732 136.369C633.732 136.369 633.566 136.369 633.546 136.472L631.891 142.119C631.891 142.119 631.891 142.284 631.994 142.305L641.985 145.242C641.985 145.242 642.15 145.325 642.212 145.408C642.254 145.49 642.275 145.594 642.233 145.697L641.571 147.931C641.571 147.931 641.488 148.097 641.406 148.159C641.323 148.2 641.22 148.221 641.137 148.18L627.961 144.311C627.961 144.311 627.795 144.229 627.733 144.146C627.671 144.063 627.671 143.96 627.712 143.877L633.525 124.082C633.525 124.082 633.608 123.916 633.69 123.854C633.773 123.792 633.876 123.792 633.959 123.834L647.135 127.702C647.135 127.702 647.301 127.784 647.363 127.867C647.404 127.95 647.425 128.053 647.384 128.136L646.722 130.37C646.722 130.37 646.639 130.535 646.556 130.597L646.536 130.577Z"></path>
<path fill="#090A15" d="M655.616 154.92L656.092 145.26C656.092 145.26 656.051 145.095 655.988 145.074L652.741 143.378C652.741 143.378 652.575 143.357 652.534 143.44L648.542 151.135C648.542 151.135 648.418 151.28 648.335 151.321C648.232 151.362 648.149 151.342 648.066 151.3L645.584 149.997C645.584 149.997 645.439 149.873 645.398 149.79C645.377 149.687 645.377 149.604 645.419 149.521L654.934 131.215C654.934 131.215 655.058 131.071 655.14 131.029C655.244 131.009 655.327 131.009 655.409 131.05L662.856 134.918C663.952 135.497 664.821 136.221 665.421 137.131C666.021 138.041 666.352 139.034 666.393 140.11C666.434 141.185 666.165 142.282 665.607 143.357C664.966 144.598 664.097 145.488 663.001 146.046C661.904 146.584 660.705 146.729 659.381 146.481C659.339 146.481 659.298 146.481 659.277 146.481C659.236 146.501 659.215 146.543 659.215 146.584L658.946 156.451C658.946 156.451 658.946 156.596 658.926 156.637C658.843 156.782 658.719 156.802 658.512 156.699L655.906 155.355C655.72 155.272 655.637 155.106 655.658 154.92H655.616ZM656.733 135.352L653.941 140.73C653.941 140.73 653.92 140.896 654.003 140.937L658.057 143.047C658.926 143.502 659.753 143.606 660.56 143.357C661.367 143.109 661.987 142.571 662.421 141.723C662.856 140.875 662.959 140.048 662.69 139.241C662.421 138.434 661.863 137.814 660.994 137.359L656.94 135.249C656.94 135.249 656.775 135.228 656.733 135.311V135.352Z"></path>
<g filter="url(#filter1_d_9138_10147)">
<path fill="#090A15" d="M572.062 247.323C571.151 248.86 571.165 250.798 572.099 252.32L589 279.866C590.097 281.654 592.212 282.469 594.174 281.861L642.948 266.743C645.61 265.918 646.949 262.85 645.785 260.243L614.431 189.972C612.902 186.545 608.293 186.264 606.384 189.481L572.062 247.323ZM613.598 206.037C612.932 204.444 610.675 204.689 610.344 206.391L598.273 268.489C598.019 269.799 599.205 270.917 600.444 270.535L634.143 260.142C635.126 259.838 635.633 258.716 635.226 257.742L613.598 206.037Z" clip-rule="evenodd" fill-rule="evenodd"></path>
</g>
<path fill="#090A15" d="M497.684 227.262C501.09 227.262 503.856 228.837 505.857 230.709C507.857 232.54 509.177 234.753 509.815 236.285C509.943 236.626 509.943 237.009 509.815 237.35C509.177 238.839 507.857 241.053 505.857 242.926C503.856 244.798 501.09 246.331 497.684 246.331C494.237 246.331 491.47 244.798 489.469 242.926C487.469 241.053 486.149 238.839 485.511 237.35C485.383 237.009 485.383 236.626 485.511 236.285C486.149 234.753 487.469 232.54 489.469 230.709C491.47 228.837 494.237 227.262 497.684 227.262ZM491.555 236.796C491.555 239.01 492.704 241.01 494.62 242.117C496.492 243.224 498.834 243.224 500.749 242.117C502.622 241.01 503.814 239.01 503.814 236.796C503.814 234.625 502.622 232.625 500.749 231.518C498.834 230.411 496.492 230.411 494.62 231.518C492.704 232.625 491.555 234.625 491.555 236.796ZM497.684 234.072C497.684 233.774 497.599 233.519 497.514 233.221C497.429 233.008 497.599 232.71 497.855 232.71C499.557 232.795 501.132 233.987 501.6 235.775C502.196 237.945 500.919 240.159 498.706 240.755C496.535 241.351 494.279 240.031 493.726 237.86C493.641 237.562 493.598 237.264 493.598 237.009C493.555 236.754 493.853 236.583 494.066 236.669C494.364 236.754 494.62 236.796 494.96 236.796C496.45 236.796 497.684 235.604 497.684 234.072Z"></path>
<path fill="#090A15" d="M715.618 227.262C719.023 227.262 721.79 228.837 723.791 230.709C725.791 232.54 727.111 234.753 727.749 236.285C727.877 236.626 727.877 237.009 727.749 237.35C727.111 238.839 725.791 241.053 723.791 242.926C721.79 244.798 719.023 246.331 715.618 246.331C712.17 246.331 709.404 244.798 707.403 242.926C705.403 241.053 704.083 238.839 703.445 237.35C703.317 237.009 703.317 236.626 703.445 236.285C704.083 234.753 705.403 232.54 707.403 230.709C709.404 228.837 712.17 227.262 715.618 227.262ZM709.489 236.796C709.489 239.01 710.638 241.01 712.553 242.117C714.426 243.224 716.767 243.224 718.683 242.117C720.556 241.01 721.748 239.01 721.748 236.796C721.748 234.625 720.556 232.625 718.683 231.518C716.767 230.411 714.426 230.411 712.553 231.518C710.638 232.625 709.489 234.625 709.489 236.796ZM715.618 234.072C715.618 233.774 715.533 233.519 715.448 233.221C715.363 233.008 715.533 232.71 715.788 232.71C717.491 232.795 719.066 233.987 719.534 235.775C720.13 237.945 718.853 240.159 716.64 240.755C714.469 241.351 712.213 240.031 711.66 237.86C711.574 237.562 711.532 237.264 711.532 237.009C711.489 236.754 711.787 236.583 712 236.669C712.298 236.754 712.553 236.796 712.894 236.796C714.384 236.796 715.618 235.604 715.618 234.072Z"></path>
</g>
</g>
<defs>
<filter color-interpolation-filters="sRGB" filterUnits="userSpaceOnUse" height="412.864" width="358.38" y="87.9463" x="420.045" id="filter0_dddd_9138_10147">
<feFlood result="BackgroundImageFix" flood-opacity="0"></feFlood>
<feColorMatrix result="hardAlpha" values="0 0 0 0 0 0 0 0 0 0 0 0 0 0 0 0 0 0 127 0" type="matrix" in="SourceAlpha"></feColorMatrix>
<feOffset dy="4.84298"></feOffset>
<feGaussianBlur stdDeviation="5.44835"></feGaussianBlur>
<feColorMatrix values="0 0 0 0 0 0 0 0 0 0 0 0 0 0 0 0 0 0 0.1 0" type="matrix"></feColorMatrix>
<feBlend result="effect1_dropShadow_9138_10147" in2="BackgroundImageFix" mode="normal"></feBlend>
<feColorMatrix result="hardAlpha" values="0 0 0 0 0 0 0 0 0 0 0 0 0 0 0 0 0 0 127 0" type="matrix" in="SourceAlpha"></feColorMatrix>
<feOffset dy="20.5826" dx="-2.42149"></feOffset>
<feGaussianBlur stdDeviation="10.2913"></feGaussianBlur>
<feColorMatrix values="0 0 0 0 0 0 0 0 0 0 0 0 0 0 0 0 0 0 0.09 0" type="matrix"></feColorMatrix>
<feBlend result="effect2_dropShadow_9138_10147" in2="effect1_dropShadow_9138_10147" mode="normal"></feBlend>
<feColorMatrix result="hardAlpha" values="0 0 0 0 0 0 0 0 0 0 0 0 0 0 0 0 0 0 127 0" type="matrix" in="SourceAlpha"></feColorMatrix>
<feOffset dy="46.0083" dx="-4.84298"></feOffset>
<feGaussianBlur stdDeviation="13.9236"></feGaussianBlur>
<feColorMatrix values="0 0 0 0 0 0 0 0 0 0 0 0 0 0 0 0 0 0 0.05 0" type="matrix"></feColorMatrix>
<feBlend result="effect3_dropShadow_9138_10147" in2="effect2_dropShadow_9138_10147" mode="normal"></feBlend>
<feColorMatrix result="hardAlpha" values="0 0 0 0 0 0 0 0 0 0 0 0 0 0 0 0 0 0 127 0" type="matrix" in="SourceAlpha"></feColorMatrix>
<feOffset dy="81.1198" dx="-7.26446"></feOffset>
<feGaussianBlur stdDeviation="16.345"></feGaussianBlur>
<feColorMatrix values="0 0 0 0 0 0 0 0 0 0 0 0 0 0 0 0 0 0 0.01 0" type="matrix"></feColorMatrix>
<feBlend result="effect4_dropShadow_9138_10147" in2="effect3_dropShadow_9138_10147" mode="normal"></feBlend>
<feBlend result="shape" in2="effect4_dropShadow_9138_10147" in="SourceGraphic" mode="normal"></feBlend>
</filter>
<filter color-interpolation-filters="sRGB" filterUnits="userSpaceOnUse" height="304.054" width="284.037" y="82.6177" x="466.78" id="filter1_d_9138_10147">
<feFlood result="BackgroundImageFix" flood-opacity="0"></feFlood>
<feColorMatrix result="hardAlpha" values="0 0 0 0 0 0 0 0 0 0 0 0 0 0 0 0 0 0 127 0" type="matrix" in="SourceAlpha"></feColorMatrix>
<feOffset></feOffset>
<feGaussianBlur stdDeviation="52.3045"></feGaussianBlur>
<feColorMatrix values="0 0 0 0 1 0 0 0 0 1 0 0 0 0 1 0 0 0 0.63 0" type="matrix"></feColorMatrix>
<feBlend result="effect1_dropShadow_9138_10147" in2="BackgroundImageFix" mode="normal"></feBlend>
<feBlend result="shape" in2="effect1_dropShadow_9138_10147" in="SourceGraphic" mode="normal"></feBlend>
</filter>
<linearGradient gradientUnits="userSpaceOnUse" y2="474" x2="422" y1="0" x1="422" id="paint0_linear_9138_10147">
<stop stop-color="#282B6B"></stop>
<stop stop-color="#090A15" offset="1"></stop>
</linearGradient>
<linearGradient gradientUnits="userSpaceOnUse" y2="240.505" x2="753" y1="240.505" x1="460" id="paint1_linear_9138_10147">
<stop stop-color="#B8C5CA"></stop>
<stop stop-color="#CAD3D7" offset="0.27"></stop>
<stop stop-color="#E5E9EB" offset="0.73"></stop>
<stop stop-color="#F0F1F3" offset="1"></stop>
</linearGradient>
<linearGradient gradientUnits="userSpaceOnUse" y2="104.558" x2="606.49" y1="376.108" x1="606.49" id="paint2_linear_9138_10147">
<stop stop-color="#667EEA"></stop>
<stop stop-color="#7F9CF5" offset="0.36"></stop>
<stop stop-color="#C3DAFE" offset="0.79"></stop>
<stop stop-color="#EBF4FF" offset="1"></stop>
</linearGradient>
<linearGradient gradientUnits="userSpaceOnUse" y2="94.0265" x2="692.745" y1="94.0265" x1="520.255" id="paint3_linear_9138_10147">
<stop stop-color="#B8C5CA"></stop>
<stop stop-color="#CAD3D7" offset="0.27"></stop>
<stop stop-color="#E5E9EB" offset="0.73"></stop>
<stop stop-color="#F0F1F3" offset="1"></stop>
</linearGradient>
<linearGradient gradientUnits="userSpaceOnUse" y2="240.514" x2="671.668" y1="240.514" x1="541.333" id="paint4_linear_9138_10147">
<stop stop-color="#F0F1F3"></stop>
<stop stop-color="#E5E9EB" offset="0.27"></stop>
<stop stop-color="#CAD3D7" offset="0.73"></stop>
<stop stop-color="#B8C5CA" offset="1"></stop>
</linearGradient>
<clipPath id="clip0_9138_10147">
<rect fill="white" height="474" width="844"></rect>
</clipPath>
<clipPath id="clip1_9138_10147">
<rect transform="translate(460 94)" fill="white" height="293" width="293"></rect>
</clipPath>
</defs>
</svg>
