<svg xmlns="http://www.w3.org/2000/svg" fill="none" viewBox="0 0 844 474" height="474" width="844">
<g clip-path="url(#clip0_5817_1595)">
<rect fill="url(#paint0_linear_5817_1595)" height="474" width="844"></rect>
<path fill="url(#paint1_linear_5817_1595)" d="M113.379 -27.0623C112.729 -27.4376 111.929 -27.4376 111.279 -27.0623L-12.5858 44.4508C-13.2358 44.8261 -13.6362 45.5197 -13.6362 46.2702C-13.6362 47.0208 -13.2358 47.7144 -12.5858 48.0897L108.177 117.812L-12.5858 187.535C-13.2358 187.91 -13.6362 188.604 -13.6362 189.354C-13.6362 190.105 -13.2358 190.799 -12.5858 191.174L108.168 260.891L-12.5858 330.608C-13.2358 330.983 -13.6362 331.677 -13.6362 332.427C-13.6362 333.178 -13.2358 333.871 -12.5858 334.247L108.187 403.975L-12.5858 473.703C-13.2358 474.079 -13.6362 474.772 -13.6362 475.523C-13.6362 476.273 -13.2358 476.967 -12.5858 477.342L108.183 547.068L-12.5858 616.794C-13.2358 617.169 -13.6362 617.862 -13.6362 618.613C-13.6362 619.364 -13.2358 620.057 -12.5858 620.432L108.177 690.155L-12.5858 759.878C-13.2358 760.253 -13.6362 760.947 -13.6362 761.697C-13.6362 762.448 -13.2358 763.141 -12.5858 763.517L108.179 833.24L-12.5858 902.964C-13.2358 903.34 -13.6362 904.033 -13.6362 904.784C-13.6362 905.534 -13.2358 906.228 -12.5858 906.603L108.176 976.325L-12.5858 1046.05C-13.2358 1046.42 -13.6362 1047.12 -13.6362 1047.87C-13.6362 1048.62 -13.2358 1049.31 -12.5858 1049.69L111.279 1121.2C111.929 1121.57 112.729 1121.57 113.379 1121.2L236.038 1050.38L358.697 1121.2C359.347 1121.57 360.148 1121.57 360.798 1121.2L483.458 1050.38L606.118 1121.2C606.768 1121.57 607.568 1121.57 608.218 1121.2L730.877 1050.38L853.536 1121.2C854.186 1121.57 854.987 1121.57 855.637 1121.2L978.297 1050.38L1100.96 1121.2C1101.61 1121.57 1102.41 1121.57 1103.06 1121.2L1225.72 1050.38L1348.38 1121.2C1349.03 1121.57 1349.83 1121.57 1350.48 1121.2L1473.14 1050.38L1595.79 1121.2C1596.44 1121.57 1597.25 1121.57 1597.9 1121.2L1720.55 1050.38L1843.21 1121.2C1843.86 1121.57 1844.66 1121.57 1845.31 1121.2L1969.18 1049.69C1969.83 1049.31 1970.23 1048.62 1970.23 1047.87C1970.23 1047.12 1969.83 1046.42 1969.18 1046.05L1907.25 1010.29L1848.42 976.325L1969.18 906.603C1969.83 906.228 1970.23 905.534 1970.23 904.784C1970.23 904.033 1969.83 903.34 1969.18 902.964L1907.25 867.208L1848.41 833.24L1969.18 763.517C1969.83 763.141 1970.23 762.448 1970.23 761.697C1970.23 760.947 1969.83 760.253 1969.18 759.878L1907.25 724.121L1848.42 690.155L1969.18 620.432C1969.83 620.057 1970.23 619.364 1970.23 618.613C1970.23 617.862 1969.83 617.169 1969.18 616.794L1907.25 581.037L1848.41 547.068L1969.18 477.342C1969.83 476.967 1970.23 476.273 1970.23 475.523C1970.23 474.772 1969.83 474.079 1969.18 473.703L1907.25 437.947L1848.41 403.975L1969.18 334.247C1969.83 333.871 1970.23 333.178 1970.23 332.427C1970.23 331.677 1969.83 330.983 1969.18 330.608L1907.25 294.851L1848.43 260.891L1969.18 191.174C1969.83 190.799 1970.23 190.105 1970.23 189.355C1970.23 188.604 1969.83 187.91 1969.18 187.535L1907.25 151.779L1848.42 117.812L1969.18 48.0897C1969.83 47.7144 1970.23 47.0208 1970.23 46.2702C1970.23 45.5197 1969.83 44.8261 1969.18 44.4508L1907.25 8.69427L1845.31 -27.0623C1844.66 -27.4376 1843.86 -27.4376 1843.21 -27.0623L1720.55 43.7551L1659.83 8.69427L1597.9 -27.0623C1597.25 -27.4376 1596.44 -27.4376 1595.79 -27.0623L1473.14 43.7551L1412.41 8.69427L1350.48 -27.0623C1349.83 -27.4376 1349.03 -27.4376 1348.38 -27.0623L1225.72 43.7548L1164.99 8.69427L1103.06 -27.0623C1102.41 -27.4376 1101.61 -27.4376 1100.96 -27.0623L978.297 43.7553L917.569 8.69427L855.637 -27.0623C854.987 -27.4376 854.186 -27.4376 853.536 -27.0623L730.877 43.7548L670.151 8.69427L608.218 -27.0623C607.568 -27.4376 606.768 -27.4376 606.118 -27.0623L483.458 43.7554L422.73 8.69427L360.798 -27.0623C360.148 -27.4376 359.347 -27.4376 358.697 -27.0623L236.038 43.7548L175.312 8.69427L113.379 -27.0623ZM1840.11 976.325L1720.55 907.299L1601 976.325L1659.83 1010.29L1720.55 1045.35L1840.11 976.325ZM1592.69 976.325L1473.14 1045.35L1412.41 1010.29L1353.58 976.325L1473.14 907.299L1592.69 976.325ZM1345.27 976.325L1225.72 907.299L1106.16 976.325L1164.99 1010.29L1225.72 1045.35L1345.27 976.325ZM1097.85 976.325L978.297 1045.35L917.569 1010.29L858.74 976.325L978.297 907.299L1097.85 976.325ZM850.433 976.325L730.877 1045.35L670.151 1010.29L611.321 976.325L730.877 907.299L850.433 976.325ZM603.015 976.325L483.458 907.299L363.901 976.325L422.73 1010.29L483.458 1045.35L603.015 976.325ZM355.594 976.325L236.038 1045.35L175.312 1010.29L116.482 976.325L236.038 907.299L355.594 976.325ZM1840.11 833.24L1720.55 902.268L1659.83 867.208L1600.99 833.24L1720.55 764.212L1840.11 833.24ZM1592.7 833.24L1473.14 764.212L1353.58 833.24L1412.41 867.208L1473.14 902.268L1592.7 833.24ZM1345.28 833.24L1225.72 902.268L1164.99 867.208L1106.16 833.24L1225.72 764.213L1345.28 833.24ZM1097.86 833.24L978.297 764.212L858.736 833.24L917.569 867.208L978.297 902.269L1097.86 833.24ZM850.437 833.24L730.877 764.213L611.318 833.24L670.151 867.208L730.877 902.268L850.437 833.24ZM603.018 833.24L483.458 902.269L422.73 867.208L363.897 833.24L483.458 764.212L603.018 833.24ZM355.598 833.24L236.038 764.213L116.479 833.24L175.312 867.208L236.038 902.268L355.598 833.24ZM1840.11 690.155L1720.55 621.128L1601 690.155L1659.83 724.121L1720.55 759.182L1840.11 690.155ZM1592.69 690.155L1473.14 759.182L1412.41 724.121L1353.58 690.155L1473.14 621.128L1592.69 690.155ZM1345.27 690.155L1225.72 621.128L1106.16 690.155L1164.99 724.121L1225.72 759.182L1345.27 690.155ZM1097.86 690.155L978.297 759.182L917.569 724.121L858.738 690.155L978.297 621.128L1097.86 690.155ZM850.435 690.155L730.877 759.182L670.151 724.121L611.32 690.155L730.877 621.128L850.435 690.155ZM603.016 690.155L483.458 621.128L363.899 690.155L422.73 724.121L483.458 759.182L603.016 690.155ZM355.596 690.155L236.038 759.182L175.312 724.121L116.481 690.155L236.038 621.128L355.596 690.155ZM1840.12 547.068L1720.55 616.098L1659.83 581.037L1600.99 547.068L1720.55 478.038L1840.12 547.068ZM1592.7 547.068L1473.14 478.038L1353.57 547.068L1412.41 581.037L1473.14 616.098L1592.7 547.068ZM1345.28 547.068L1225.72 616.097L1164.99 581.037L1106.15 547.068L1225.72 478.038L1345.28 547.068ZM1097.86 547.068L978.297 478.038L858.733 547.068L917.569 581.037L978.297 616.098L1097.86 547.068ZM850.44 547.068L730.877 478.038L611.314 547.068L670.151 581.037L730.877 616.098L850.44 547.068ZM603.022 547.068L483.458 616.098L422.73 581.037L363.894 547.068L483.458 478.038L603.022 547.068ZM355.601 547.068L236.038 478.038L116.475 547.068L175.312 581.037L236.038 616.097L355.601 547.068ZM1840.12 403.975L1720.55 334.942L1600.99 403.975L1659.83 437.947L1720.55 473.008L1840.12 403.975ZM1592.7 403.975L1473.14 473.008L1412.41 437.947L1353.57 403.975L1473.14 334.942L1592.7 403.975ZM1345.28 403.975L1225.72 334.943L1106.15 403.975L1164.99 437.947L1225.72 473.007L1345.28 403.975ZM1097.87 403.975L978.297 473.008L917.569 437.947L858.728 403.975L978.297 334.942L1097.87 403.975ZM850.445 403.975L730.877 473.007L670.151 437.947L611.31 403.975L730.877 334.943L850.445 403.975ZM603.026 403.975L483.458 334.942L363.889 403.975L422.73 437.947L483.458 473.008L603.026 403.975ZM355.606 403.975L236.038 473.007L175.312 437.947L116.471 403.975L236.038 334.943L355.606 403.975ZM1840.1 260.891L1720.55 329.912L1659.83 294.851L1601.01 260.891L1720.55 191.87L1840.1 260.891ZM1592.68 260.891L1473.14 191.87L1353.59 260.891L1412.41 294.851L1473.14 329.912L1592.68 260.891ZM1345.26 260.891L1225.72 329.912L1164.99 294.851L1106.17 260.891L1225.72 191.87L1345.26 260.891ZM1097.85 260.891L978.297 191.869L858.748 260.891L917.569 294.851L978.297 329.912L1097.85 260.891ZM850.425 260.891L730.877 191.87L611.329 260.891L670.151 294.851L730.877 329.912L850.425 260.891ZM603.007 260.891L483.458 329.912L422.73 294.851L363.909 260.891L483.458 191.869L603.007 260.891ZM355.586 260.891L236.038 191.87L116.49 260.891L175.312 294.851L236.038 329.912L355.586 260.891ZM1840.11 117.812L1720.55 48.7854L1601 117.812L1659.83 151.778L1720.55 186.839L1840.11 117.812ZM1592.69 117.812L1473.14 186.839L1412.41 151.779L1353.58 117.812L1473.14 48.7854L1592.69 117.812ZM1345.27 117.812L1225.72 48.7857L1106.16 117.812L1164.99 151.778L1225.72 186.839L1345.27 117.812ZM1097.86 117.812L978.297 186.84L917.569 151.779L858.738 117.812L978.297 48.7851L1097.86 117.812ZM850.435 117.812L730.877 186.839L670.151 151.778L611.32 117.812L730.877 48.7857L850.435 117.812ZM603.016 117.812L483.458 48.7851L363.899 117.812L422.73 151.778L483.458 186.84L603.016 117.812ZM355.596 117.812L236.038 186.839L175.312 151.778L116.481 117.812L236.038 48.7857L355.596 117.812ZM112.329 115.357L-7.33355 46.2702L112.329 -22.817L173.211 12.3331L231.992 46.2702L112.329 115.357ZM359.748 115.357L240.085 46.2702L359.748 -22.817L420.629 12.3331L479.41 46.2702L359.748 115.357ZM487.505 46.2702L607.168 115.357L726.831 46.2702L668.05 12.3331L607.168 -22.817L487.505 46.2702ZM854.587 115.357L734.924 46.2702L854.587 -22.817L915.468 12.3331L974.249 46.2702L854.587 115.357ZM982.344 46.2702L1102.01 115.357L1221.67 46.2702L1162.89 12.3331L1102.01 -22.817L982.344 46.2702ZM1229.76 46.2702L1349.43 115.357L1469.09 46.2702L1410.31 12.3331L1349.43 -22.817L1229.76 46.2702ZM1596.84 115.357L1477.18 46.2702L1596.84 -22.817L1657.73 12.3331L1716.51 46.2702L1596.84 115.357ZM1724.6 46.2702L1844.26 115.357L1963.93 46.2702L1905.15 12.3331L1844.26 -22.817L1724.6 46.2702ZM112.329 258.442L-7.33355 189.354L112.329 120.267L173.211 155.417L231.992 189.354L112.329 258.442ZM240.085 189.354L359.748 258.442L479.41 189.354L420.629 155.417L359.748 120.267L240.085 189.354ZM607.168 258.442L487.505 189.354L607.168 120.267L668.05 155.417L726.831 189.354L607.168 258.442ZM734.924 189.355L854.587 258.442L974.249 189.355L915.468 155.417L854.587 120.267L734.924 189.355ZM1102.01 258.442L982.344 189.354L1102.01 120.267L1162.89 155.417L1221.67 189.354L1102.01 258.442ZM1349.43 258.442L1229.76 189.355L1349.43 120.267L1410.31 155.417L1469.09 189.355L1349.43 258.442ZM1477.18 189.354L1596.84 258.442L1716.51 189.354L1657.73 155.417L1596.84 120.267L1477.18 189.354ZM1844.26 258.442L1724.6 189.355L1844.26 120.267L1905.15 155.417L1963.93 189.355L1844.26 258.442ZM-7.33355 332.427L112.329 401.514L231.992 332.427L173.211 298.49L112.329 263.34L-7.33355 332.427ZM359.748 401.514L240.085 332.427L359.748 263.34L420.629 298.49L479.41 332.427L359.748 401.514ZM487.505 332.427L607.168 401.514L726.831 332.427L668.05 298.49L607.168 263.34L487.505 332.427ZM854.587 401.514L734.924 332.427L854.587 263.34L915.468 298.49L974.249 332.427L854.587 401.514ZM982.344 332.427L1102.01 401.514L1221.67 332.427L1162.89 298.49L1102.01 263.34L982.344 332.427ZM1229.76 332.427L1349.43 401.514L1469.09 332.427L1410.31 298.49L1349.43 263.34L1229.76 332.427ZM1596.84 401.514L1477.18 332.427L1596.84 263.34L1657.73 298.49L1716.51 332.427L1596.84 401.514ZM1724.6 332.427L1844.26 401.514L1963.93 332.427L1905.15 298.49L1844.26 263.34L1724.6 332.427ZM112.329 544.61L-7.33355 475.523L112.329 406.436L173.211 441.586L231.992 475.523L112.329 544.61ZM240.085 475.523L359.748 544.61L479.41 475.523L420.629 441.586L359.748 406.436L240.085 475.523ZM607.168 544.61L487.505 475.523L607.168 406.436L668.05 441.586L726.831 475.523L607.168 544.61ZM734.924 475.523L854.587 544.61L974.249 475.523L915.468 441.586L854.587 406.436L734.924 475.523ZM1102.01 544.61L982.344 475.523L1102.01 406.436L1162.89 441.586L1221.67 475.523L1102.01 544.61ZM1349.43 544.61L1229.76 475.523L1349.43 406.436L1410.31 441.586L1469.09 475.523L1349.43 544.61ZM1477.18 475.523L1596.84 544.61L1716.51 475.523L1657.73 441.586L1596.84 406.436L1477.18 475.523ZM1844.26 544.61L1724.6 475.523L1844.26 406.436L1905.15 441.586L1963.93 475.523L1844.26 544.61ZM-7.33355 618.613L112.329 687.7L231.992 618.613L173.211 584.676L112.329 549.526L-7.33355 618.613ZM359.748 687.7L240.085 618.613L359.748 549.526L420.629 584.676L479.41 618.613L359.748 687.7ZM487.505 618.613L607.168 687.7L726.831 618.613L668.05 584.676L607.168 549.526L487.505 618.613ZM854.587 687.7L734.924 618.613L854.587 549.526L915.468 584.676L974.249 618.613L854.587 687.7ZM982.344 618.613L1102.01 687.7L1221.67 618.613L1162.89 584.676L1102.01 549.526L982.344 618.613ZM1229.76 618.613L1349.43 687.7L1469.09 618.613L1410.31 584.676L1349.43 549.526L1229.76 618.613ZM1596.84 687.7L1477.18 618.613L1596.84 549.526L1657.73 584.676L1716.51 618.613L1596.84 687.7ZM1724.6 618.613L1844.26 687.7L1963.93 618.613L1905.15 584.676L1844.26 549.526L1724.6 618.613ZM112.329 830.784L-7.33355 761.697L112.329 692.61L173.211 727.76L231.992 761.697L112.329 830.784ZM240.085 761.697L359.748 830.784L479.41 761.697L420.629 727.76L359.748 692.61L240.085 761.697ZM607.168 830.784L487.505 761.697L607.168 692.61L668.05 727.76L726.831 761.697L607.168 830.784ZM734.924 761.697L854.587 830.784L974.249 761.697L915.468 727.76L854.587 692.61L734.924 761.697ZM1102.01 830.784L982.344 761.697L1102.01 692.61L1162.89 727.76L1221.67 761.697L1102.01 830.784ZM1349.43 830.784L1229.76 761.697L1349.43 692.61L1410.31 727.76L1469.09 761.697L1349.43 830.784ZM1477.18 761.697L1596.84 830.784L1716.51 761.697L1657.73 727.76L1596.84 692.61L1477.18 761.697ZM1844.26 830.784L1724.6 761.697L1844.26 692.61L1905.15 727.76L1963.93 761.697L1844.26 830.784ZM-7.33355 904.784L112.329 973.871L231.992 904.784L173.211 870.847L112.329 835.696L-7.33355 904.784ZM359.748 973.871L240.085 904.784L359.748 835.696L420.629 870.847L479.41 904.784L359.748 973.871ZM487.505 904.784L607.168 973.871L726.831 904.784L668.05 870.847L607.168 835.696L487.505 904.784ZM854.587 973.871L734.924 904.784L854.587 835.696L915.468 870.847L974.249 904.784L854.587 973.871ZM982.344 904.784L1102.01 973.871L1221.67 904.784L1162.89 870.847L1102.01 835.696L982.344 904.784ZM1229.76 904.784L1349.43 973.871L1469.09 904.784L1410.31 870.847L1349.43 835.696L1229.76 904.784ZM1596.84 973.871L1477.18 904.784L1596.84 835.696L1657.73 870.847L1716.51 904.784L1596.84 973.871ZM1724.6 904.784L1844.26 973.871L1963.93 904.784L1905.15 870.847L1844.26 835.696L1724.6 904.784ZM112.329 1116.95L-7.33355 1047.87L112.329 978.778L173.211 1013.93L231.992 1047.87L112.329 1116.95ZM240.085 1047.87L359.748 1116.95L479.41 1047.87L420.629 1013.93L359.748 978.778L240.085 1047.87ZM607.168 1116.95L487.505 1047.87L607.168 978.778L668.05 1013.93L726.831 1047.87L607.168 1116.95ZM734.924 1047.87L854.587 1116.95L974.249 1047.87L915.468 1013.93L854.587 978.778L734.924 1047.87ZM1102.01 1116.95L982.344 1047.87L1102.01 978.778L1162.89 1013.93L1221.67 1047.87L1102.01 1116.95ZM1349.43 1116.95L1229.76 1047.87L1349.43 978.778L1410.31 1013.93L1469.09 1047.87L1349.43 1116.95ZM1477.18 1047.87L1596.84 1116.95L1716.51 1047.87L1657.73 1013.93L1596.84 978.778L1477.18 1047.87ZM1844.26 1116.95L1724.6 1047.87L1844.26 978.778L1905.15 1013.93L1963.93 1047.87L1844.26 1116.95Z" clip-rule="evenodd" fill-rule="evenodd"></path>
<path fill="url(#paint2_linear_5817_1595)" d="M878.696 -18.5508L668.683 102.687L878.696 223.924L1088.71 102.687L983.702 42.068L878.696 -18.5508Z"></path>
<path fill="url(#paint3_linear_5817_1595)" d="M723.229 49.4648L737.573 57.7461V74.3086L723.229 82.5898L708.885 74.3086V57.7461L723.229 49.4648Z"></path>
<path fill="white" d="M81.1644 273.918V245.009H99.9666V249.399H86.4013V257.247H98.9926V261.637H86.4013V269.528H100.08V273.918H81.1644ZM105.084 273.918V252.236H110.038V255.85H110.264C110.659 254.598 111.337 253.634 112.297 252.956C113.266 252.269 114.372 251.926 115.614 251.926C115.896 251.926 116.211 251.94 116.56 251.968C116.917 251.987 117.214 252.02 117.449 252.067V256.767C117.233 256.692 116.889 256.626 116.419 256.57C115.957 256.504 115.51 256.471 115.078 256.471C114.146 256.471 113.308 256.673 112.565 257.078C111.831 257.473 111.252 258.024 110.829 258.729C110.405 259.435 110.193 260.249 110.193 261.171V273.918H105.084ZM120.844 273.918V252.236H125.798V255.85H126.024C126.42 254.598 127.097 253.634 128.057 252.956C129.026 252.269 130.132 251.926 131.374 251.926C131.656 251.926 131.972 251.94 132.32 251.968C132.678 251.987 132.974 252.02 133.209 252.067V256.767C132.993 256.692 132.649 256.626 132.179 256.57C131.718 256.504 131.271 256.471 130.838 256.471C129.906 256.471 129.069 256.673 128.325 257.078C127.591 257.473 127.012 258.024 126.589 258.729C126.165 259.435 125.954 260.249 125.954 261.171V273.918H120.844ZM145.169 274.341C143.051 274.341 141.216 273.876 139.664 272.944C138.111 272.012 136.906 270.709 136.05 269.034C135.203 267.359 134.78 265.401 134.78 263.162C134.78 260.922 135.203 258.96 136.05 257.275C136.906 255.591 138.111 254.283 139.664 253.351C141.216 252.42 143.051 251.954 145.169 251.954C147.286 251.954 149.121 252.42 150.674 253.351C152.227 254.283 153.427 255.591 154.273 257.275C155.13 258.96 155.558 260.922 155.558 263.162C155.558 265.401 155.13 267.359 154.273 269.034C153.427 270.709 152.227 272.012 150.674 272.944C149.121 273.876 147.286 274.341 145.169 274.341ZM145.197 270.248C146.345 270.248 147.305 269.933 148.077 269.302C148.848 268.662 149.422 267.806 149.799 266.733C150.185 265.66 150.378 264.465 150.378 263.148C150.378 261.821 150.185 260.621 149.799 259.548C149.422 258.466 148.848 257.605 148.077 256.965C147.305 256.325 146.345 256.005 145.197 256.005C144.021 256.005 143.042 256.325 142.261 256.965C141.489 257.605 140.911 258.466 140.525 259.548C140.148 260.621 139.96 261.821 139.96 263.148C139.96 264.465 140.148 265.66 140.525 266.733C140.911 267.806 141.489 268.662 142.261 269.302C143.042 269.933 144.021 270.248 145.197 270.248ZM159.895 273.918V252.236H164.85V255.85H165.076C165.471 254.598 166.148 253.634 167.108 252.956C168.078 252.269 169.183 251.926 170.425 251.926C170.708 251.926 171.023 251.94 171.371 251.968C171.729 251.987 172.025 252.02 172.26 252.067V256.767C172.044 256.692 171.701 256.626 171.23 256.57C170.769 256.504 170.322 256.471 169.889 256.471C168.957 256.471 168.12 256.673 167.376 257.078C166.642 257.473 166.064 258.024 165.64 258.729C165.217 259.435 165.005 260.249 165.005 261.171V273.918H159.895ZM185.741 273.918V245.009H190.978V257.247H204.374V245.009H209.625V273.918H204.374V261.637H190.978V273.918H185.741ZM221.334 274.356C219.96 274.356 218.723 274.111 217.621 273.622C216.53 273.123 215.664 272.389 215.024 271.419C214.394 270.45 214.078 269.255 214.078 267.834C214.078 266.611 214.304 265.599 214.756 264.799C215.208 263.999 215.824 263.359 216.605 262.879C217.386 262.4 218.266 262.037 219.245 261.793C220.233 261.538 221.254 261.355 222.308 261.242C223.578 261.11 224.609 260.993 225.399 260.889C226.19 260.776 226.764 260.607 227.121 260.381C227.488 260.146 227.672 259.783 227.672 259.294V259.209C227.672 258.146 227.357 257.323 226.726 256.739C226.096 256.156 225.188 255.864 224.002 255.864C222.75 255.864 221.757 256.137 221.023 256.683C220.299 257.228 219.809 257.873 219.555 258.616L214.784 257.939C215.161 256.621 215.782 255.52 216.648 254.636C217.513 253.742 218.572 253.074 219.824 252.631C221.075 252.18 222.458 251.954 223.974 251.954C225.018 251.954 226.058 252.076 227.093 252.321C228.128 252.566 229.074 252.97 229.93 253.535C230.787 254.09 231.474 254.848 231.991 255.807C232.518 256.767 232.782 257.967 232.782 259.407V273.918H227.87V270.94H227.7C227.39 271.542 226.952 272.106 226.387 272.633C225.832 273.151 225.131 273.57 224.284 273.89C223.447 274.2 222.463 274.356 221.334 274.356ZM222.661 270.601C223.687 270.601 224.576 270.398 225.329 269.994C226.082 269.58 226.66 269.034 227.065 268.356C227.479 267.679 227.686 266.94 227.686 266.14V263.585C227.526 263.717 227.253 263.839 226.867 263.952C226.491 264.065 226.067 264.164 225.597 264.249C225.126 264.333 224.661 264.409 224.199 264.475C223.738 264.54 223.338 264.597 223 264.644C222.237 264.747 221.555 264.917 220.953 265.152C220.351 265.387 219.875 265.717 219.527 266.14C219.179 266.554 219.005 267.091 219.005 267.749C219.005 268.69 219.348 269.401 220.035 269.881C220.722 270.361 221.597 270.601 222.661 270.601ZM243.03 261.214V273.918H237.92V252.236H242.804V255.92H243.058C243.557 254.706 244.352 253.742 245.444 253.027C246.545 252.311 247.905 251.954 249.523 251.954C251.019 251.954 252.323 252.274 253.433 252.914C254.553 253.554 255.419 254.481 256.03 255.695C256.652 256.908 256.957 258.381 256.948 260.113V273.918H251.838V260.903C251.838 259.454 251.462 258.32 250.709 257.501C249.965 256.683 248.935 256.273 247.617 256.273C246.723 256.273 245.928 256.471 245.232 256.866C244.545 257.252 244.004 257.812 243.609 258.546C243.223 259.28 243.03 260.169 243.03 261.214ZM270.189 274.299C268.485 274.299 266.961 273.862 265.615 272.986C264.269 272.111 263.206 270.841 262.425 269.175C261.644 267.509 261.253 265.486 261.253 263.105C261.253 260.696 261.649 258.664 262.439 257.007C263.239 255.342 264.316 254.085 265.672 253.238C267.027 252.382 268.537 251.954 270.203 251.954C271.473 251.954 272.518 252.17 273.336 252.603C274.155 253.027 274.804 253.54 275.284 254.142C275.764 254.735 276.136 255.295 276.4 255.822H276.611V245.009H281.735V273.918H276.71V270.502H276.4C276.136 271.029 275.755 271.589 275.256 272.182C274.757 272.765 274.099 273.264 273.28 273.678C272.461 274.092 271.431 274.299 270.189 274.299ZM271.614 270.107C272.697 270.107 273.619 269.815 274.381 269.232C275.143 268.639 275.722 267.815 276.117 266.761C276.512 265.707 276.71 264.479 276.71 263.077C276.71 261.675 276.512 260.456 276.117 259.421C275.731 258.386 275.157 257.581 274.395 257.007C273.642 256.433 272.715 256.146 271.614 256.146C270.476 256.146 269.525 256.443 268.763 257.036C268.001 257.628 267.427 258.447 267.041 259.492C266.655 260.536 266.462 261.731 266.462 263.077C266.462 264.432 266.655 265.641 267.041 266.705C267.436 267.759 268.015 268.592 268.777 269.203C269.549 269.806 270.494 270.107 271.614 270.107ZM292.29 245.009V273.918H287.18V245.009H292.29ZM297.545 273.918V252.236H302.655V273.918H297.545ZM300.114 249.159C299.305 249.159 298.608 248.891 298.025 248.354C297.441 247.809 297.15 247.154 297.15 246.392C297.15 245.621 297.441 244.967 298.025 244.43C298.608 243.884 299.305 243.611 300.114 243.611C300.933 243.611 301.629 243.884 302.203 244.43C302.787 244.967 303.078 245.621 303.078 246.392C303.078 247.154 302.787 247.809 302.203 248.354C301.629 248.891 300.933 249.159 300.114 249.159ZM313.019 261.214V273.918H307.909V252.236H312.794V255.92H313.048C313.546 254.706 314.342 253.742 315.433 253.027C316.534 252.311 317.894 251.954 319.513 251.954C321.009 251.954 322.312 252.274 323.423 252.914C324.543 253.554 325.408 254.481 326.02 255.695C326.641 256.908 326.947 258.381 326.938 260.113V273.918H321.828V260.903C321.828 259.454 321.451 258.32 320.698 257.501C319.955 256.683 318.924 256.273 317.607 256.273C316.713 256.273 315.918 256.471 315.221 256.866C314.534 257.252 313.993 257.812 313.598 258.546C313.212 259.28 313.019 260.169 313.019 261.214ZM341.561 282.5C339.726 282.5 338.15 282.251 336.833 281.752C335.515 281.263 334.457 280.604 333.657 279.776C332.857 278.948 332.302 278.03 331.991 277.023L336.593 275.908C336.8 276.332 337.101 276.751 337.496 277.165C337.891 277.588 338.423 277.936 339.091 278.209C339.769 278.491 340.62 278.633 341.646 278.633C343.095 278.633 344.295 278.28 345.246 277.574C346.196 276.878 346.671 275.729 346.671 274.13V270.022H346.417C346.154 270.549 345.768 271.09 345.26 271.645C344.761 272.201 344.098 272.666 343.269 273.043C342.451 273.419 341.42 273.607 340.178 273.607C338.512 273.607 337.002 273.217 335.647 272.436C334.301 271.645 333.228 270.469 332.429 268.907C331.638 267.335 331.243 265.369 331.243 263.006C331.243 260.626 331.638 258.616 332.429 256.979C333.228 255.332 334.306 254.085 335.661 253.238C337.016 252.382 338.527 251.954 340.192 251.954C341.463 251.954 342.507 252.17 343.326 252.603C344.154 253.027 344.813 253.54 345.302 254.142C345.791 254.735 346.163 255.295 346.417 255.822H346.7V252.236H351.739V274.271C351.739 276.125 351.297 277.659 350.412 278.873C349.527 280.087 348.318 280.995 346.784 281.597C345.25 282.199 343.509 282.5 341.561 282.5ZM341.604 269.599C342.686 269.599 343.608 269.335 344.37 268.808C345.133 268.281 345.711 267.524 346.107 266.535C346.502 265.547 346.7 264.362 346.7 262.978C346.7 261.614 346.502 260.419 346.107 259.393C345.721 258.367 345.147 257.572 344.385 257.007C343.632 256.433 342.705 256.146 341.604 256.146C340.465 256.146 339.515 256.443 338.752 257.036C337.99 257.628 337.416 258.442 337.03 259.478C336.644 260.503 336.452 261.67 336.452 262.978C336.452 264.305 336.644 265.467 337.03 266.465C337.426 267.453 338.004 268.225 338.767 268.78C339.538 269.326 340.484 269.599 341.604 269.599Z"></path>
<path stroke-linejoin="round" stroke-width="1.61045" stroke="#535BCB" fill="#B7F4EE" d="M824.914 213.398L664.03 306.285L824.914 399.172L985.798 306.285L905.356 259.842L824.914 213.398Z"></path>
<path stroke-linejoin="round" stroke-width="1.61045" stroke="#535BCB" fill="#B7F4EE" d="M824.914 155.969L664.03 248.855L824.914 341.742L985.798 248.855L905.356 202.412L824.914 155.969Z"></path>
<path stroke-linejoin="round" stroke-width="1.61045" stroke="#535BCB" fill="#B7F4EE" d="M824.914 74.4805L664.03 167.367L824.914 260.254L985.798 167.367L905.356 120.924L824.914 74.4805Z"></path>
<path stroke-linejoin="round" stroke-width="1.61045" stroke="#535BCB" fill="url(#paint4_linear_5817_1595)" d="M664.03 353.328L824.914 446.214V260.441L664.03 167.555V353.328Z"></path>
<path stroke-linejoin="round" stroke-width="1.61045" stroke="#535BCB" fill="url(#paint5_linear_5817_1595)" d="M985.8 353.347V167.574L824.916 260.461V446.234L985.8 353.347Z"></path>
<path stroke-width="1.76667" stroke="#494EBD" fill="white" d="M142.217 72.4341H313.583C319.682 72.4341 324.625 77.3776 324.625 83.4758V124.992C324.625 131.091 319.682 136.034 313.583 136.034H142.217V72.4341Z"></path>
<path fill="#484DBD" d="M171.971 114.817C170.633 114.817 169.444 114.557 168.404 114.037C167.382 113.498 166.584 112.746 166.008 111.78C165.451 110.795 165.172 109.672 165.172 108.408V101.192C165.172 99.9285 165.451 98.8233 166.008 97.8759C166.584 96.9099 167.382 96.1669 168.404 95.6468C169.444 95.1081 170.633 94.8387 171.971 94.8387C173.308 94.8387 174.488 95.0988 175.509 95.6189C176.531 96.1205 177.321 96.8356 177.878 97.7644C178.454 98.6932 178.742 99.7706 178.742 100.997V101.025C178.742 101.117 178.714 101.192 178.658 101.247C178.602 101.303 178.537 101.331 178.463 101.331L176.345 101.442C176.16 101.442 176.067 101.359 176.067 101.192V101.108C176.067 99.9192 175.695 98.9626 174.952 98.2381C174.209 97.5137 173.215 97.1514 171.971 97.1514C170.726 97.1514 169.723 97.5137 168.961 98.2381C168.218 98.9626 167.847 99.9192 167.847 101.108V108.52C167.847 109.709 168.218 110.665 168.961 111.39C169.723 112.114 170.726 112.477 171.971 112.477C173.215 112.477 174.209 112.114 174.952 111.39C175.695 110.665 176.067 109.709 176.067 108.52V108.464C176.067 108.297 176.16 108.213 176.345 108.213L178.463 108.325C178.649 108.325 178.742 108.418 178.742 108.604C178.742 109.83 178.454 110.916 177.878 111.864C177.321 112.792 176.531 113.517 175.509 114.037C174.488 114.557 173.308 114.817 171.971 114.817ZM193.466 95.3403C193.466 95.1545 193.558 95.0616 193.744 95.0616H195.862C196.048 95.0616 196.141 95.1545 196.141 95.3403V114.288C196.141 114.474 196.048 114.566 195.862 114.566H193.744C193.558 114.566 193.466 114.474 193.466 114.288V106.012C193.466 105.938 193.428 105.901 193.354 105.901H185.413C185.339 105.901 185.301 105.938 185.301 106.012V114.288C185.301 114.474 185.209 114.566 185.023 114.566H182.905C182.719 114.566 182.627 114.474 182.627 114.288V95.3403C182.627 95.1545 182.719 95.0616 182.905 95.0616H185.023C185.209 95.0616 185.301 95.1545 185.301 95.3403V103.477C185.301 103.551 185.339 103.588 185.413 103.588H193.354C193.428 103.588 193.466 103.551 193.466 103.477V95.3403ZM212.591 114.566C212.424 114.566 212.313 114.492 212.257 114.343L211.254 111.083C211.235 111.028 211.198 111 211.142 111H203.312C203.257 111 203.22 111.028 203.201 111.083L202.198 114.343C202.142 114.492 202.031 114.566 201.864 114.566H199.607C199.402 114.566 199.328 114.464 199.384 114.26L205.486 95.2845C205.542 95.1359 205.653 95.0616 205.82 95.0616H208.607C208.774 95.0616 208.885 95.1359 208.941 95.2845L215.099 114.26L215.127 114.371C215.127 114.501 215.043 114.566 214.876 114.566H212.591ZM203.898 108.743C203.879 108.78 203.879 108.817 203.898 108.854C203.935 108.873 203.972 108.882 204.009 108.882H210.418C210.455 108.882 210.483 108.873 210.501 108.854C210.539 108.817 210.548 108.78 210.529 108.743L207.297 98.4053C207.278 98.3682 207.251 98.3496 207.213 98.3496C207.176 98.3496 207.148 98.3682 207.13 98.4053L203.898 108.743ZM225.935 95.0338C227.068 95.0338 228.062 95.2753 228.916 95.7582C229.789 96.2226 230.458 96.8821 230.922 97.7366C231.405 98.5911 231.647 99.5756 231.647 100.69C231.647 101.805 231.405 102.78 230.922 103.616C230.439 104.452 229.752 105.102 228.86 105.566C227.987 106.031 226.975 106.263 225.823 106.263H220.919C220.845 106.263 220.808 106.3 220.808 106.374V114.288C220.808 114.474 220.715 114.566 220.529 114.566H218.411C218.226 114.566 218.133 114.474 218.133 114.288V95.3124C218.133 95.1266 218.226 95.0338 218.411 95.0338H225.935ZM225.573 104.09C226.594 104.09 227.412 103.783 228.025 103.17C228.656 102.557 228.972 101.749 228.972 100.746C228.972 99.7242 228.656 98.9069 228.025 98.2938C227.412 97.6623 226.594 97.3465 225.573 97.3465H220.919C220.845 97.3465 220.808 97.3836 220.808 97.4579V103.978C220.808 104.052 220.845 104.09 220.919 104.09H225.573ZM247.217 95.0616C247.402 95.0616 247.495 95.1545 247.495 95.3403V97.1236C247.495 97.3093 247.402 97.4022 247.217 97.4022H241.867C241.792 97.4022 241.755 97.4394 241.755 97.5137V114.288C241.755 114.474 241.662 114.566 241.477 114.566H239.359C239.173 114.566 239.08 114.474 239.08 114.288V97.5137C239.08 97.4394 239.043 97.4022 238.969 97.4022H233.87C233.684 97.4022 233.591 97.3093 233.591 97.1236V95.3403C233.591 95.1545 233.684 95.0616 233.87 95.0616H247.217ZM263.774 97.0957C263.774 97.2815 263.681 97.3743 263.495 97.3743H253.603C253.529 97.3743 253.492 97.4115 253.492 97.4858V103.477C253.492 103.551 253.529 103.588 253.603 103.588H260.402C260.588 103.588 260.681 103.681 260.681 103.867V105.622C260.681 105.808 260.588 105.901 260.402 105.901H253.603C253.529 105.901 253.492 105.938 253.492 106.012V112.142C253.492 112.217 253.529 112.254 253.603 112.254H263.495C263.681 112.254 263.774 112.347 263.774 112.532V114.288C263.774 114.474 263.681 114.566 263.495 114.566H251.096C250.91 114.566 250.817 114.474 250.817 114.288V95.3403C250.817 95.1545 250.91 95.0616 251.096 95.0616H263.495C263.681 95.0616 263.774 95.1545 263.774 95.3403V97.0957ZM278.588 114.566C278.439 114.566 278.337 114.501 278.281 114.371L274.38 106.04C274.362 105.984 274.325 105.956 274.269 105.956H270.257C270.182 105.956 270.145 105.994 270.145 106.068V114.288C270.145 114.474 270.052 114.566 269.866 114.566H267.749C267.563 114.566 267.47 114.474 267.47 114.288V95.3403C267.47 95.1545 267.563 95.0616 267.749 95.0616H275.244C276.359 95.0616 277.334 95.2938 278.17 95.7582C279.024 96.2226 279.684 96.8728 280.148 97.7087C280.613 98.5446 280.845 99.5106 280.845 100.607C280.845 101.907 280.501 103.012 279.814 103.922C279.145 104.814 278.207 105.418 277 105.734C276.925 105.771 276.907 105.817 276.944 105.873L280.984 114.232C281.003 114.269 281.012 114.316 281.012 114.371C281.012 114.501 280.938 114.566 280.789 114.566H278.588ZM270.257 97.3743C270.182 97.3743 270.145 97.4115 270.145 97.4858V103.727C270.145 103.802 270.182 103.839 270.257 103.839H274.91C275.894 103.839 276.684 103.551 277.278 102.975C277.873 102.381 278.17 101.6 278.17 100.634C278.17 99.6499 277.873 98.8604 277.278 98.266C276.684 97.6716 275.894 97.3743 274.91 97.3743H270.257ZM300.307 105.316C300.679 106.226 300.864 107.275 300.864 108.464C300.864 109.449 300.716 110.359 300.419 111.195C300.01 112.347 299.332 113.238 298.385 113.87C297.437 114.483 296.295 114.789 294.957 114.789C293.62 114.789 292.459 114.446 291.474 113.758C290.508 113.071 289.83 112.142 289.44 110.972C289.236 110.452 289.115 109.709 289.078 108.743C289.078 108.557 289.171 108.464 289.357 108.464H291.502C291.688 108.464 291.781 108.557 291.781 108.743C291.818 109.412 291.892 109.904 292.004 110.22C292.189 110.907 292.533 111.455 293.035 111.864C293.555 112.272 294.196 112.477 294.957 112.477C296.369 112.477 297.316 111.836 297.799 110.554C298.041 109.997 298.162 109.272 298.162 108.381C298.162 107.433 298.013 106.588 297.716 105.845C297.196 104.693 296.267 104.117 294.929 104.117C294.614 104.117 294.214 104.257 293.731 104.535C293.657 104.573 293.601 104.591 293.564 104.591C293.471 104.591 293.397 104.545 293.341 104.452L292.282 103.003C292.245 102.929 292.227 102.864 292.227 102.808C292.227 102.752 292.254 102.687 292.31 102.613L297.075 97.5137C297.131 97.4208 297.112 97.3743 297.019 97.3743H289.607C289.422 97.3743 289.329 97.2815 289.329 97.0957V95.3403C289.329 95.1545 289.422 95.0616 289.607 95.0616H300.419C300.604 95.0616 300.697 95.1545 300.697 95.3403V97.3465C300.697 97.4394 300.651 97.5508 300.558 97.6808L296.323 102.306C296.285 102.343 296.276 102.381 296.295 102.418C296.313 102.436 296.35 102.455 296.406 102.473C297.354 102.566 298.152 102.864 298.803 103.365C299.453 103.848 299.954 104.498 300.307 105.316Z"></path>
<path fill="#484DBD" d="M80.3833 83.4758C80.3833 76.8898 85.7223 71.5508 92.3083 71.5508H145.75V136.917H92.3083C85.7223 136.917 80.3833 131.578 80.3833 124.992V83.4758Z"></path>
<path fill="white" d="M96.5738 109.697C96.1609 110.37 96.1673 111.218 96.5903 111.885L104.246 123.943C104.743 124.725 105.701 125.082 106.59 124.816L128.683 118.198C129.889 117.837 130.496 116.494 129.969 115.353L115.766 84.5924C115.073 83.0923 112.985 82.9692 112.121 84.3775L96.5738 109.697ZM115.389 91.6246C115.087 90.9272 114.065 91.0346 113.915 91.7795L108.447 118.963C108.331 119.536 108.869 120.025 109.43 119.858L124.695 115.308C125.14 115.176 125.37 114.684 125.185 114.258L115.389 91.6246Z" clip-rule="evenodd" fill-rule="evenodd"></path>
<path fill="white" d="M226.208 381.047C225.984 381.047 225.777 381.095 225.585 381.158C225.992 381.429 226.216 381.788 226.327 382.194C226.335 382.25 226.351 382.29 226.359 382.346C226.367 382.394 226.375 382.441 226.375 382.489C226.407 383.19 226.192 383.278 226.04 383.693C225.809 384.226 225.872 384.8 226.152 385.262C226.176 385.318 226.208 385.382 226.248 385.438C225.944 383.422 227.628 383.119 227.94 382.489C227.964 381.939 227.509 381.573 227.15 381.318C226.806 381.111 226.495 381.047 226.208 381.047ZM228.746 381.501C228.714 381.684 228.738 381.637 228.73 381.732C228.722 381.796 228.722 381.876 228.714 381.939C228.698 382.003 228.682 382.067 228.658 382.131C228.642 382.194 228.618 382.258 228.594 382.322C228.562 382.386 228.538 382.441 228.506 382.505C228.482 382.537 228.466 382.569 228.443 382.601C228.427 382.625 228.411 382.649 228.395 382.673C228.355 382.728 228.315 382.784 228.275 382.832C228.227 382.88 228.187 382.935 228.131 382.975V382.983C228.083 383.023 228.035 383.071 227.98 383.111C227.812 383.238 227.62 383.334 227.445 383.453C227.389 383.493 227.333 383.525 227.285 383.573C227.229 383.613 227.181 383.653 227.134 383.7C227.078 383.748 227.038 383.796 226.99 383.852C226.95 383.9 226.902 383.955 226.87 384.011C226.83 384.067 226.79 384.123 226.758 384.179C226.727 384.242 226.703 384.298 226.671 384.362C226.647 384.426 226.623 384.481 226.607 384.545C226.583 384.617 226.567 384.681 226.551 384.744C226.543 384.776 226.543 384.816 226.535 384.848C226.527 384.88 226.527 384.912 226.519 384.944C226.519 385.007 226.511 385.079 226.511 385.143C226.511 385.191 226.511 385.238 226.519 385.286C226.519 385.35 226.527 385.414 226.543 385.485C226.551 385.549 226.567 385.613 226.583 385.677C226.607 385.74 226.623 385.804 226.647 385.868C226.663 385.908 226.687 385.948 226.703 385.98L224.867 385.27C224.556 385.183 224.252 385.103 223.941 385.031C223.773 384.991 223.606 384.952 223.438 384.912C222.959 384.816 222.472 384.744 221.986 384.697C221.97 384.697 221.962 384.689 221.946 384.689C221.467 384.641 220.996 384.617 220.517 384.617C220.166 384.617 219.815 384.633 219.471 384.657C218.985 384.689 218.498 384.752 218.011 384.832C217.891 384.848 217.771 384.872 217.652 384.896C217.404 384.944 217.165 384.999 216.933 385.055C216.814 385.087 216.694 385.119 216.574 385.151C216.455 385.199 216.343 385.254 216.231 385.302C216.143 385.342 216.055 385.382 215.968 385.422C215.952 385.43 215.936 385.43 215.928 385.438C215.848 385.477 215.776 385.509 215.704 385.549C215.68 385.557 215.664 385.565 215.648 385.573C215.561 385.613 215.473 385.661 215.401 385.701C215.345 385.725 215.289 385.756 215.241 385.78C215.217 385.796 215.185 385.812 215.17 385.82C215.098 385.86 215.026 385.9 214.962 385.94C214.89 385.98 214.826 386.019 214.77 386.059C214.715 386.099 214.659 386.131 214.611 386.171C214.603 386.179 214.595 386.179 214.587 386.187C214.539 386.219 214.483 386.258 214.435 386.298C214.435 386.298 214.427 386.306 214.419 386.314C214.379 386.346 214.339 386.378 214.3 386.41C214.284 386.418 214.268 386.434 214.252 386.442C214.212 386.474 214.172 386.513 214.132 386.545C214.124 386.561 214.108 386.569 214.1 386.577C214.052 386.625 214.004 386.665 213.956 386.713C213.948 386.713 213.948 386.721 213.94 386.729C213.893 386.768 213.845 386.816 213.797 386.864C213.789 386.872 213.789 386.88 213.781 386.88C213.741 386.92 213.701 386.96 213.661 387.007C213.645 387.023 213.621 387.039 213.605 387.055C213.565 387.103 213.517 387.151 213.47 387.199C213.462 387.215 213.446 387.223 213.438 387.239C213.374 387.302 213.318 387.366 213.254 387.43C213.246 387.438 213.238 387.446 213.23 387.454C213.102 387.589 212.967 387.725 212.823 387.844C212.679 387.972 212.528 388.091 212.376 388.195C212.216 388.306 212.065 388.402 211.897 388.498C211.738 388.585 211.57 388.665 211.394 388.737C211.227 388.808 211.051 388.872 210.876 388.928C210.54 389 210.197 389.135 209.902 389.159C209.838 389.159 209.766 389.175 209.702 389.183C209.63 389.199 209.567 389.215 209.503 389.231C209.439 389.255 209.375 389.279 209.311 389.302C209.247 389.326 209.184 389.358 209.12 389.39C209.064 389.43 209 389.462 208.944 389.502C208.888 389.542 208.832 389.589 208.784 389.637C208.729 389.677 208.673 389.733 208.625 389.781C208.577 389.836 208.529 389.884 208.489 389.94C208.449 390.004 208.401 390.06 208.369 390.123C208.33 390.179 208.29 390.243 208.258 390.307C208.226 390.378 208.194 390.442 208.17 390.514C208.146 390.577 208.122 390.649 208.098 390.721C208.082 390.785 208.066 390.848 208.058 390.912C208.058 390.92 208.05 390.928 208.05 390.936C208.034 391.008 208.034 391.103 208.026 391.151C208.018 391.207 208.01 391.255 208.01 391.311C208.01 391.342 208.01 391.382 208.018 391.414C208.026 391.47 208.034 391.518 208.05 391.566C208.066 391.613 208.082 391.661 208.106 391.709V391.717C208.13 391.765 208.162 391.813 208.194 391.86C208.226 391.908 208.258 391.956 208.298 392.004C208.338 392.044 208.385 392.092 208.433 392.131C208.481 392.179 208.529 392.219 208.585 392.259C208.776 392.426 208.824 392.482 209.072 392.61C209.112 392.633 209.152 392.649 209.2 392.673C209.207 392.673 209.215 392.681 209.223 392.681C209.223 392.697 209.223 392.705 209.231 392.721C209.239 392.785 209.255 392.849 209.271 392.912C209.287 392.984 209.311 393.048 209.335 393.104C209.359 393.151 209.375 393.199 209.399 393.247C209.407 393.263 209.415 393.279 209.423 393.287C209.455 393.351 209.487 393.406 209.519 393.462C209.559 393.518 209.599 393.574 209.638 393.63C209.678 393.677 209.726 393.733 209.774 393.781C209.822 393.829 209.87 393.869 209.926 393.916C209.926 393.916 209.934 393.924 209.942 393.924C209.99 393.964 210.038 394.004 210.085 394.036C210.141 394.076 210.197 394.108 210.261 394.14C210.317 394.171 210.381 394.203 210.445 394.227C210.492 394.251 210.548 394.267 210.604 394.283C210.612 394.291 210.62 394.291 210.636 394.299C210.668 394.307 210.708 394.315 210.74 394.323C210.716 394.753 210.708 395.16 210.772 395.303C210.844 395.462 211.195 394.976 211.546 394.418C211.498 394.968 211.466 395.614 211.546 395.805C211.634 396.004 212.113 395.383 212.528 394.697C218.187 393.39 223.35 397.295 223.893 402.81C223.789 401.949 222.728 401.471 222.241 401.59C222.002 402.18 221.595 402.937 220.94 403.407C220.996 402.881 220.972 402.339 220.86 401.813C220.685 402.547 220.342 403.232 219.871 403.822C219.112 403.877 218.354 403.511 217.955 402.961C217.923 402.937 217.915 402.889 217.891 402.857C217.867 402.802 217.843 402.746 217.827 402.69C217.803 402.634 217.787 402.578 217.779 402.523C217.772 402.467 217.772 402.411 217.772 402.347C217.772 402.308 217.772 402.268 217.772 402.228C217.779 402.172 217.795 402.116 217.811 402.06C217.827 402.005 217.843 401.949 217.867 401.893C217.899 401.837 217.923 401.782 217.963 401.726C218.099 401.343 218.099 401.033 217.851 400.849C217.803 400.817 217.756 400.793 217.7 400.77C217.668 400.762 217.628 400.746 217.596 400.738C217.572 400.73 217.556 400.722 217.532 400.714C217.476 400.698 217.42 400.682 217.364 400.674C217.309 400.658 217.253 400.65 217.197 400.65C217.141 400.642 217.077 400.634 217.021 400.634C216.981 400.634 216.941 400.642 216.902 400.642C216.838 400.642 216.782 400.65 216.726 400.666C216.67 400.674 216.614 400.682 216.558 400.698C216.502 400.714 216.447 400.73 216.391 400.754C216.335 400.778 216.287 400.801 216.231 400.825C216.183 400.849 216.135 400.881 216.079 400.905C214.22 402.116 215.329 404.953 216.598 405.774C216.119 405.862 215.632 405.965 215.497 406.069C215.489 406.077 215.481 406.085 215.481 406.085C215.824 406.292 216.183 406.467 216.558 406.619C217.069 406.786 217.612 406.937 217.851 407.001V407.009C218.514 407.145 219.184 407.192 219.863 407.153C223.398 406.906 226.296 404.22 226.822 400.682C226.838 400.754 226.854 400.817 226.87 400.889C226.894 401.033 226.926 401.184 226.942 401.335V401.343C226.958 401.415 226.966 401.487 226.974 401.551V401.582C226.982 401.654 226.99 401.726 226.99 401.79C226.998 401.877 227.006 401.965 227.006 402.053V402.18C227.006 402.22 227.014 402.268 227.014 402.308C227.014 402.355 227.006 402.403 227.006 402.451V402.563C227.006 402.618 226.998 402.666 226.998 402.722C226.998 402.754 226.998 402.786 226.99 402.826C226.99 402.881 226.982 402.937 226.982 403.001C226.974 403.025 226.974 403.049 226.974 403.073C226.966 403.136 226.958 403.192 226.95 403.256C226.95 403.28 226.95 403.304 226.942 403.328C226.934 403.407 226.918 403.479 226.91 403.559V403.567V403.575C226.894 403.646 226.878 403.726 226.862 403.798V403.822C226.846 403.893 226.83 403.965 226.814 404.037C226.814 404.045 226.806 404.061 226.806 404.069C226.79 404.14 226.774 404.212 226.75 404.284V404.308C226.727 404.387 226.703 404.459 226.687 404.531C226.679 404.539 226.679 404.547 226.679 404.547C226.655 404.627 226.631 404.706 226.607 404.786C226.575 404.866 226.551 404.937 226.519 405.017C226.487 405.097 226.463 405.176 226.431 405.248C226.399 405.328 226.367 405.399 226.335 405.479H226.327C226.295 405.551 226.264 405.631 226.224 405.702C226.216 405.726 226.208 405.742 226.2 405.758C226.192 405.766 226.192 405.774 226.184 405.782C225.665 406.826 224.899 407.742 223.941 408.459C223.877 408.499 223.813 408.547 223.749 408.595C223.733 408.611 223.71 408.619 223.694 408.635C223.638 408.675 223.582 408.714 223.518 408.754L223.542 408.802H223.55C223.662 408.786 223.773 408.77 223.885 408.754H223.893C224.101 408.722 224.308 408.683 224.516 408.643C224.572 408.635 224.635 408.619 224.691 408.603C224.731 408.595 224.763 408.587 224.803 408.579C224.859 408.571 224.915 408.555 224.971 408.547C225.019 408.531 225.066 408.523 225.114 408.507C225.912 408.316 226.687 408.053 227.429 407.742C226.16 409.471 224.46 410.866 222.472 411.782C223.39 411.719 224.308 411.567 225.194 411.312C228.411 410.364 231.116 408.204 232.736 405.296C232.409 407.137 231.675 408.89 230.59 410.42C231.364 409.91 232.074 409.32 232.721 408.651C234.508 406.786 235.682 404.419 236.081 401.877C236.352 403.136 236.432 404.435 236.312 405.718C242.075 397.694 236.791 389.374 234.58 387.183C234.572 387.167 234.564 387.159 234.564 387.143C234.556 387.151 234.556 387.151 234.556 387.159C234.556 387.151 234.556 387.151 234.548 387.143C234.548 387.239 234.54 387.334 234.532 387.43C234.508 387.613 234.484 387.789 234.452 387.964C234.413 388.139 234.365 388.314 234.317 388.49C234.261 388.657 234.197 388.832 234.125 389C234.053 389.159 233.974 389.326 233.886 389.486C233.798 389.637 233.702 389.797 233.598 389.94C233.495 390.091 233.383 390.235 233.271 390.37C233.152 390.514 233.024 390.641 232.896 390.769C232.816 390.841 232.744 390.904 232.665 390.968C232.601 391.024 232.545 391.072 232.481 391.127C232.337 391.239 232.194 391.343 232.034 391.438C231.882 391.534 231.723 391.629 231.563 391.709C231.396 391.789 231.228 391.861 231.06 391.932C230.893 391.996 230.717 392.052 230.542 392.1C230.366 392.147 230.182 392.187 230.007 392.219C229.823 392.251 229.64 392.267 229.464 392.283C229.336 392.291 229.209 392.299 229.081 392.299C228.897 392.299 228.714 392.283 228.538 392.267C228.355 392.251 228.171 392.227 227.996 392.187C227.812 392.155 227.636 392.108 227.461 392.052H227.453C227.628 392.036 227.804 392.02 227.98 391.988C228.163 391.956 228.339 391.916 228.514 391.868C228.69 391.821 228.866 391.765 229.033 391.701C229.209 391.637 229.376 391.558 229.536 391.478C229.704 391.398 229.855 391.311 230.015 391.215C230.166 391.111 230.318 391.008 230.462 390.896C230.605 390.785 230.741 390.665 230.869 390.538C231.005 390.418 231.124 390.283 231.244 390.147C231.364 390.004 231.475 389.86 231.579 389.717C231.595 389.693 231.611 389.661 231.627 389.637C231.707 389.51 231.787 389.382 231.859 389.255C231.946 389.095 232.026 388.936 232.098 388.769C232.17 388.601 232.234 388.434 232.29 388.259C232.345 388.091 232.385 387.916 232.425 387.741C232.457 387.557 232.489 387.382 232.505 387.207C232.521 387.023 232.537 386.84 232.537 386.665C232.537 386.537 232.529 386.41 232.521 386.282C232.505 386.099 232.481 385.924 232.457 385.748C232.425 385.565 232.385 385.39 232.337 385.215C232.282 385.047 232.226 384.872 232.162 384.705C232.098 384.537 232.018 384.37 231.938 384.211C231.851 384.051 231.763 383.892 231.667 383.74C231.563 383.589 231.459 383.446 231.348 383.302C231.228 383.167 231.108 383.031 230.981 382.896C230.917 382.832 230.845 382.76 230.773 382.696C230.414 382.418 230.039 382.155 229.664 381.916C229.608 381.884 229.56 381.86 229.504 381.836C229.241 381.668 228.993 381.581 228.746 381.501L228.746 381.501Z" clip-rule="evenodd" fill-rule="evenodd"></path>
<path fill="white" d="M246.286 401.818C246.52 401.707 246.741 401.638 246.948 401.597C247.459 401.514 247.749 401.445 247.832 401.39C247.97 401.308 248.066 401.197 248.108 401.087C248.163 400.894 248.191 400.495 248.191 399.861V398.662L248.204 397.683L248.163 396.222V395.354C248.163 394.775 248.122 394.293 248.025 393.935C247.997 393.797 247.873 393.659 247.68 393.521C247.418 393.328 246.99 393.149 246.369 392.97L246.355 392.308C246.465 392.281 246.576 392.253 246.672 392.24C246.769 392.226 247.142 392.129 247.79 391.964C248.301 391.785 248.632 391.647 248.77 391.578C248.826 391.55 248.895 391.509 249.005 391.454C249.115 391.358 249.24 391.275 249.378 391.178C249.654 390.985 249.985 390.641 250.372 390.172L251.103 390.117L251.076 391.674C251.062 391.826 251.062 391.95 251.062 392.047C251.062 392.129 251.062 392.336 251.076 392.681C251.848 392.019 252.539 391.564 253.174 391.302C253.988 390.958 254.775 390.792 255.506 390.792C256.376 390.792 257.149 391.013 257.798 391.44C258.46 391.867 258.888 392.364 259.081 392.915C259.288 393.48 259.385 394.624 259.385 396.319L259.33 400.839C259.33 401.046 259.371 401.225 259.44 401.363C259.537 401.432 259.799 401.501 260.213 401.569L260.889 401.693C260.972 401.818 261.014 401.955 261.014 402.134C261.014 402.245 261.014 402.396 261 402.589L258.281 402.396L257.48 402.424H256.845L255.009 402.562H254.54C254.526 402.438 254.526 402.355 254.526 402.286C254.526 402.121 254.54 401.942 254.554 401.749C254.678 401.721 255.009 401.68 255.52 401.611C255.658 401.597 255.81 401.556 255.989 401.514C256.169 401.445 256.279 401.363 256.307 401.294C256.376 401.128 256.417 400.839 256.417 400.398C256.417 399.612 256.403 399.02 256.39 398.606L256.403 397.008C256.403 395.051 256.293 393.838 256.045 393.37C255.686 392.667 255.161 392.322 254.457 392.322C253.947 392.322 253.408 392.46 252.856 392.722C252.29 392.984 251.724 393.383 251.131 393.921L251.103 394.155L251.131 395.023L251.117 395.947L251.172 398.165L251.145 398.51C251.145 400.012 251.2 400.867 251.324 401.06C251.448 401.252 251.904 401.459 252.704 401.693C252.732 401.845 252.746 401.969 252.746 402.038C252.746 402.148 252.704 402.314 252.649 402.548C252.359 402.562 252.111 402.562 251.917 402.562C251.724 402.562 251.421 402.534 251.006 402.479L249.53 402.451C248.784 402.451 247.721 402.479 246.327 402.548C246.286 402.451 246.272 402.355 246.272 402.259C246.272 402.19 246.272 402.038 246.286 401.818L246.286 401.818Z"></path>
<path fill="white" d="M262.587 395.188C262.836 394.402 263.043 393.878 263.236 393.63C263.747 392.872 264.299 392.28 264.879 391.853C265.472 391.425 265.997 391.15 266.466 391.012C267.087 390.833 267.57 390.75 267.957 390.75C268.826 390.75 269.53 390.819 270.055 390.957C270.593 391.081 271.049 391.274 271.407 391.522C271.918 391.88 272.332 392.252 272.65 392.61C272.967 392.983 273.216 393.424 273.409 393.92C273.616 394.416 273.726 395.022 273.754 395.725L272.208 395.698C271.78 395.698 270.855 395.656 269.406 395.573C268.868 395.546 268.509 395.518 268.302 395.518C268.233 395.518 267.736 395.532 266.811 395.532H265.61C265.596 395.67 265.583 395.78 265.583 395.863C265.583 396.359 265.652 396.869 265.762 397.42C265.886 397.958 266.066 398.426 266.3 398.84C266.549 399.253 266.839 399.598 267.198 399.887C267.556 400.19 267.929 400.397 268.302 400.535L269.102 400.797C269.82 400.797 270.289 400.769 270.538 400.728C270.98 400.631 271.366 400.521 271.697 400.383C272.042 400.232 272.443 399.983 272.926 399.639C273.257 399.887 273.533 400.094 273.768 400.3C272.953 401.182 272.098 401.844 271.228 402.244C270.358 402.643 269.378 402.836 268.302 402.836C267.57 402.836 266.977 402.781 266.507 402.643C265.9 402.478 265.334 402.23 264.837 401.885C264.34 401.541 263.912 401.114 263.554 400.617C263.195 400.108 262.919 399.584 262.739 399.046C262.518 398.344 262.394 397.778 262.394 397.365C262.394 396.552 262.463 395.835 262.587 395.188L262.587 395.188ZM270.648 394.595C270.634 394.071 270.538 393.589 270.345 393.107C270.151 392.638 269.848 392.28 269.434 392.018C269.033 391.756 268.619 391.618 268.205 391.618C267.584 391.618 267.032 391.894 266.521 392.431C266.024 392.983 265.748 393.713 265.679 394.65L268.84 394.664C269.047 394.664 269.337 394.65 269.696 394.623C269.972 394.595 270.165 394.581 270.276 394.581C270.358 394.581 270.483 394.581 270.648 394.595V394.595Z"></path>
<path fill="white" d="M275.948 398.646C276.224 398.591 276.431 398.564 276.556 398.564C276.625 398.564 276.721 398.564 276.845 398.578L276.97 398.715C277.48 399.597 277.798 400.121 277.963 400.314C278.281 400.686 278.598 400.989 278.916 401.224C279.123 401.361 279.454 401.527 279.91 401.678C280.213 401.789 280.545 401.844 280.89 401.844C281.469 401.844 281.966 401.665 282.38 401.292C282.795 400.907 283.002 400.507 283.002 400.066C283.002 399.777 282.919 399.528 282.767 399.322C282.615 399.115 282.298 398.908 281.828 398.702C281.594 398.605 281.014 398.44 280.075 398.205C279.151 397.971 278.598 397.82 278.405 397.751C277.963 397.585 277.577 397.351 277.246 397.062C276.901 396.758 276.652 396.428 276.473 396.056C276.238 395.532 276.114 395.077 276.114 394.705C276.114 394.002 276.224 393.437 276.418 392.982C276.625 392.541 276.914 392.142 277.287 391.797C277.549 391.535 277.95 391.301 278.488 391.094C279.026 390.888 279.62 390.777 280.227 390.777C281.111 390.777 281.884 390.832 282.546 390.957C283.209 391.081 283.775 391.26 284.23 391.494C284.299 391.701 284.368 392.197 284.479 392.955C284.575 393.727 284.63 394.181 284.63 394.319C284.63 394.388 284.617 394.457 284.589 394.526C284.341 394.595 284.147 394.636 283.982 394.636C283.899 394.636 283.761 394.622 283.581 394.609C283.499 394.485 283.388 394.278 283.25 394.03C282.808 393.203 282.353 392.624 281.884 392.293C281.414 391.949 280.89 391.783 280.269 391.783C279.634 391.783 279.095 391.976 278.667 392.335C278.35 392.61 278.198 392.969 278.198 393.437C278.198 393.74 278.364 394.044 278.695 394.361C279.013 394.677 279.578 394.926 280.379 395.091C281.594 395.353 282.491 395.628 283.057 395.89C283.885 396.276 284.479 396.745 284.81 397.268C285.141 397.792 285.321 398.398 285.321 399.087C285.321 400.162 284.906 401.058 284.092 401.775C283.291 402.478 282.118 402.836 280.558 402.836C280.365 402.836 279.827 402.795 278.971 402.698C278.585 402.657 278.129 402.56 277.605 402.423C277.467 402.381 277.135 402.257 276.583 402.023C276.487 401.968 276.418 401.899 276.362 401.83C276.335 401.747 276.266 401.361 276.183 400.672C276.045 399.542 275.962 398.867 275.948 398.646V398.646Z"></path>
<path fill="white" d="M287.323 392.03C288.413 391.575 289.2 391.12 289.683 390.679C290.18 390.238 290.691 389.508 291.243 388.516H292.03C292.113 388.764 292.154 389.012 292.154 389.274C292.154 389.756 292.14 390.128 292.14 390.404L292.099 391.217C292.099 391.258 292.099 391.368 292.113 391.534L292.43 391.548C292.471 391.548 292.913 391.534 293.728 391.492C293.797 391.492 294.142 391.479 294.763 391.465C294.818 391.713 294.859 391.933 294.859 392.126C294.859 392.347 294.818 392.595 294.749 392.871C294.445 392.912 294.224 392.926 294.059 392.926C293.99 392.926 293.838 392.926 293.617 392.898H292.899L292.651 392.884L291.988 392.912L291.961 398.204C291.947 399.224 291.961 399.871 292.016 400.12C292.071 400.381 292.182 400.616 292.347 400.85C292.554 400.946 292.789 401.002 293.051 401.002C293.3 401.002 293.479 400.974 293.603 400.933C293.728 400.877 293.935 400.753 294.211 400.533C294.266 400.478 294.363 400.423 294.473 400.34C294.694 400.505 294.887 400.685 295.025 400.864L295.08 401.029C294.749 401.539 294.294 401.939 293.7 402.228C293.12 402.517 292.499 402.655 291.837 402.655C290.967 402.655 290.277 402.38 289.739 401.842C289.2 401.291 288.938 400.45 288.938 399.306L288.993 396.881V392.926L288.565 392.912L287.558 392.926L287.378 392.884C287.323 392.802 287.295 392.733 287.295 392.65C287.295 392.595 287.309 392.388 287.323 392.03L287.323 392.03Z"></path>
<path fill="white" d="M447.591 401.678C447.332 400.891 446.654 400.343 445.776 400.211C445.363 400.149 444.889 400.176 444.328 400.292C443.351 400.494 442.626 400.571 442.097 400.586C444.094 397.204 445.718 393.346 446.653 389.716C448.165 383.845 447.357 381.17 446.413 379.961C443.914 376.759 440.269 375.038 435.871 374.986C433.526 374.957 431.466 375.422 430.392 375.756C429.392 375.579 428.316 375.48 427.187 375.461C425.072 375.428 423.203 375.89 421.606 376.841C420.722 376.541 419.303 376.118 417.664 375.848C413.809 375.214 410.703 375.708 408.431 377.318C405.68 379.268 404.404 382.654 404.64 387.385C404.715 388.887 405.552 393.456 406.871 397.79C407.629 400.281 408.438 402.349 409.274 403.938C410.459 406.192 411.728 407.519 413.152 407.995C413.951 408.262 415.401 408.449 416.927 407.175C417.12 407.41 417.378 407.643 417.72 407.86C418.155 408.135 418.687 408.36 419.218 408.493C421.132 408.973 422.924 408.853 424.453 408.18C424.463 408.453 424.47 408.713 424.476 408.939C424.486 409.304 424.496 409.662 424.51 409.996C424.6 412.26 424.754 414.02 425.209 415.251C425.234 415.319 425.267 415.422 425.303 415.532C425.53 416.229 425.909 417.395 426.875 418.309C427.874 419.256 429.084 419.546 430.191 419.546C430.747 419.546 431.277 419.473 431.742 419.373C433.399 419.017 435.281 418.474 436.642 416.53C437.929 414.692 438.555 411.924 438.668 407.561C438.683 407.438 438.696 407.32 438.709 407.208C438.718 407.132 438.727 407.055 438.736 406.978L439.039 407.004L439.117 407.01C440.805 407.087 442.869 406.728 444.136 406.137C445.138 405.671 448.347 403.972 447.591 401.678Z"></path>
<path fill="white" d="M445.034 402.391C439.997 403.433 439.651 401.723 439.651 401.723C444.969 393.809 447.192 383.763 445.274 381.305C440.04 374.598 430.98 377.77 430.829 377.852L430.78 377.861C429.785 377.654 428.671 377.53 427.42 377.51C425.141 377.472 423.412 378.109 422.1 379.107C422.1 379.107 405.938 372.429 406.689 387.505C406.849 390.712 411.273 411.773 416.549 405.412C418.478 403.085 420.341 401.119 420.341 401.119C421.267 401.735 422.375 402.05 423.536 401.937L423.627 401.86C423.598 402.149 423.611 402.431 423.663 402.766C422.303 404.289 422.703 404.556 419.986 405.117C417.236 405.685 418.851 406.697 419.906 406.962C421.184 407.282 424.142 407.736 426.141 404.931L426.061 405.251C426.593 405.679 426.967 408.034 426.905 410.168C426.842 412.303 426.8 413.769 427.22 414.914C427.64 416.059 428.058 418.634 431.63 417.867C434.615 417.225 436.161 415.563 436.377 412.79C436.529 410.819 436.875 411.11 436.897 409.347L437.174 408.513C437.493 405.841 437.225 404.979 439.063 405.38L439.51 405.419C440.864 405.481 442.635 405.201 443.675 404.716C445.914 403.674 447.241 401.934 445.034 402.391H445.034Z"></path>
<path fill="#16A394" d="M422.912 388.838C422.41 388.774 421.955 388.833 421.725 388.994C421.596 389.084 421.556 389.189 421.545 389.261C421.516 389.452 421.661 389.663 421.75 389.772C422.003 390.08 422.371 390.292 422.735 390.339C422.788 390.346 422.841 390.349 422.893 390.349C423.501 390.349 424.054 389.912 424.103 389.59C424.163 389.186 423.528 388.917 422.912 388.838Z"></path>
<path fill="#16A394" d="M437.443 388.711H437.443C437.401 388.344 436.864 388.239 436.355 388.325C435.847 388.412 435.354 388.691 435.395 389.059C435.429 389.345 435.853 389.834 436.355 389.833C436.397 389.833 436.44 389.83 436.483 389.823C436.818 389.766 437.064 389.507 437.181 389.357C437.359 389.13 437.462 388.876 437.443 388.711Z"></path>
<path fill="#16A394" d="M444.808 401.67C445.83 401.459 446.445 401.645 446.636 402.223C447.005 403.338 444.97 404.622 443.843 405.145C442.84 405.611 441.24 405.905 439.853 405.905C439.189 405.905 438.573 405.837 438.096 405.688C437.87 407.768 437.388 411.646 437.108 413.27C436.584 416.308 435.229 417.687 432.109 418.355C431.578 418.469 431.095 418.52 430.657 418.52C427.668 418.52 426.722 416.155 426.334 415.188L426.334 415.187C425.861 414.005 425.697 410.125 425.73 406.188C424.652 407.162 423.303 407.666 421.769 407.666C421.139 407.666 420.478 407.582 419.791 407.41C419.594 407.361 417.866 406.897 417.889 405.792C417.91 404.782 419.352 404.484 419.896 404.372L419.896 404.372L419.896 404.372C421.806 403.979 421.929 403.822 422.522 403.07C422.643 402.917 422.783 402.739 422.955 402.535L422.954 402.517L422.951 402.491L422.949 402.468C422.093 402.445 421.256 402.217 420.494 401.808C419.978 402.357 418.58 403.866 417.081 405.668C416.179 406.752 415.312 407.071 414.605 407.071C414.317 407.071 414.055 407.018 413.828 406.942C411.89 406.296 410.048 403.154 408.353 397.604C407.065 393.387 406.249 388.984 406.178 387.552C405.965 383.298 407.063 380.287 409.442 378.602C411.436 377.19 414.229 376.761 417.745 377.327C419.779 377.655 421.441 378.225 422.085 378.465C423.566 377.455 425.355 376.96 427.425 376.993C428.554 377.012 429.59 377.157 430.541 377.393C430.993 377.195 433.323 376.49 436.08 376.521C440.09 376.563 443.403 378.11 445.661 380.993C446.221 381.708 446.492 382.879 446.467 384.472C446.445 385.924 446.171 387.705 445.676 389.623C444.63 393.671 442.69 398.01 440.333 401.6C440.69 401.862 441.776 402.296 444.808 401.67ZM439.021 389.92C439.111 389.338 439.196 388.781 439.206 388.167C436.754 387.863 435.777 388.428 435.393 388.977C434.1 390.824 436.625 395.348 437.702 397.28C437.979 397.777 438.179 398.136 438.272 398.359C438.374 398.606 438.485 398.829 438.6 399.034C439.341 397.457 439.15 395.859 438.963 394.306C438.871 393.538 438.775 392.743 438.8 391.979C438.825 391.194 438.925 390.548 439.021 389.923L439.021 389.92ZM436.234 377.761C439.828 377.84 442.67 379.184 444.683 381.755C446.226 383.726 444.527 392.698 439.606 400.438C439.557 400.377 439.508 400.314 439.457 400.25L439.395 400.173C440.666 398.073 440.417 395.997 440.196 394.155C440.105 393.4 440.019 392.686 440.041 392.016C440.064 391.306 440.158 390.697 440.248 390.108L440.249 390.106C440.36 389.38 440.474 388.629 440.443 387.743C440.466 387.65 440.476 387.54 440.463 387.41C440.383 386.56 439.413 384.018 437.435 381.717C436.354 380.459 434.776 379.05 432.623 378.1C433.549 377.908 434.816 377.729 436.234 377.761ZM414.221 405.767C414.446 405.842 415.133 406.071 416.126 404.877C417.531 403.188 418.85 401.751 419.457 401.101C419.305 400.971 419.157 400.833 419.016 400.685C417.652 399.263 417.032 397.292 417.313 395.279C417.616 393.113 417.503 391.2 417.442 390.172C417.425 389.891 417.413 389.687 417.414 389.543C417.405 389.169 417.321 383.058 420.864 379.481C420.881 379.464 420.899 379.448 420.916 379.431L420.916 379.431L420.916 379.431L420.916 379.431C420.93 379.418 420.944 379.405 420.958 379.391C418.799 378.688 413.425 377.301 410.157 379.618C408.149 381.042 407.227 383.691 407.417 387.492C407.477 388.694 408.238 392.981 409.539 397.243C411.044 402.17 412.75 405.277 414.22 405.767L414.221 405.767ZM419.913 399.825C418.814 398.679 418.315 397.084 418.543 395.45C418.863 393.162 418.745 391.169 418.682 390.098L418.682 390.097L418.68 390.07C418.672 389.931 418.665 389.81 418.66 389.712C419.178 389.254 421.577 387.969 423.287 388.361C424.068 388.539 424.543 389.071 424.741 389.985C425.765 394.716 424.877 396.688 424.163 398.273L424.163 398.273C424.016 398.6 423.877 398.908 423.759 399.228L423.667 399.474L423.665 399.478L423.665 399.478C423.433 400.101 423.217 400.68 423.083 401.229C421.914 401.226 420.778 400.727 419.913 399.825ZM419.265 405.849C419.445 405.972 419.752 406.12 420.093 406.205C421.749 406.62 424.055 406.648 425.638 404.433C425.825 404.171 425.768 403.833 425.717 403.655C425.609 403.279 425.343 402.937 425.07 402.824L425.07 402.824C424.733 402.684 424.548 402.607 424.142 403.062L424.141 403.062C423.87 403.365 423.674 403.613 423.501 403.833L423.498 403.837C422.74 404.798 422.393 405.125 420.147 405.587C419.683 405.683 419.415 405.779 419.265 405.849ZM431.849 417.14C429.101 417.729 428.128 416.327 427.487 414.725C427.073 413.69 426.87 409.025 427.014 403.874C427.016 403.805 427.006 403.739 426.987 403.677C426.971 403.557 426.945 403.435 426.91 403.313C426.696 402.563 426.173 401.936 425.545 401.676C425.296 401.573 424.838 401.384 424.289 401.524C424.406 401.041 424.609 400.496 424.83 399.906L424.922 399.657C425.026 399.377 425.157 399.087 425.295 398.78C426.042 397.122 427.064 394.851 425.955 389.72C425.539 387.798 424.151 386.86 422.046 387.078C420.784 387.208 419.63 387.717 419.055 388.009C418.931 388.072 418.818 388.132 418.712 388.191C418.872 386.255 419.48 382.636 421.75 380.347C423.18 378.905 425.084 378.194 427.405 378.232C431.976 378.307 434.907 380.652 436.562 382.606C437.987 384.29 438.759 385.986 439.068 386.901C436.751 386.666 435.175 387.123 434.376 388.264C432.638 390.747 435.327 395.567 436.619 397.883C436.856 398.308 437.06 398.674 437.125 398.83C437.545 399.85 438.09 400.53 438.488 401.027L438.49 401.03C438.611 401.181 438.729 401.327 438.818 401.456C438.116 401.658 436.856 402.125 436.971 404.46C436.878 405.632 436.219 411.119 435.885 413.057C435.443 415.618 434.5 416.572 431.849 417.14ZM440.261 404.653C441.402 404.599 442.603 404.35 443.32 404.017C444.155 403.629 444.743 403.198 445.087 402.877L445.059 402.882C442.509 403.408 440.703 403.336 439.69 402.668C439.627 402.626 439.569 402.584 439.517 402.541C439.434 402.57 439.349 402.594 439.262 402.618L439.254 402.62C438.68 402.781 438.138 402.934 438.209 404.389C438.36 404.512 439.001 404.712 440.261 404.653Z" clip-rule="evenodd" fill-rule="evenodd"></path>
<g clip-path="url(#clip1_5817_1595)">
<path fill="white" d="M348.565 418.321C337.605 418.246 328.074 409.149 328.148 397.592C328.219 386.471 337.46 377.108 348.895 377.184C360.008 377.258 369.384 386.483 369.285 397.784C369.377 408.983 359.955 418.4 348.565 418.321ZM348.565 418.321C337.605 418.246 328.074 409.149 328.148 397.592C328.219 386.471 337.46 377.108 348.895 377.184C360.008 377.258 369.384 386.483 369.285 397.784C369.377 408.983 359.955 418.4 348.565 418.321Z"></path>
<path fill="white" d="M348.585 415.592C339.08 415.526 330.815 407.638 330.879 397.616C330.941 387.972 338.955 379.852 348.871 379.918C358.508 379.982 366.639 387.982 366.553 397.782C366.632 407.494 358.462 415.661 348.585 415.592ZM348.585 415.592C339.08 415.526 330.815 407.638 330.879 397.616C330.941 387.972 338.955 379.852 348.871 379.918C358.508 379.982 366.639 387.982 366.553 397.782C366.632 407.494 358.462 415.661 348.585 415.592Z"></path>
<path fill="#16A394" d="M355.358 397.747C355.312 398.597 354.57 399.303 353.838 399.18C353.834 399.18 353.83 399.18 353.827 399.18C353.016 399.181 352.358 398.525 352.357 397.714C352.385 396.901 353.059 396.26 353.872 396.274C354.683 396.278 355.402 396.963 355.358 397.747ZM342.321 405.985C342.627 405.994 342.933 405.988 343.286 405.988V408.203C341.094 408.573 339.29 407.951 338.847 406.099C338.695 405.418 338.602 404.725 338.568 404.029C338.521 403.291 338.602 402.544 338.546 401.808C338.39 399.781 338.127 399.089 336.183 398.993V396.471C336.322 396.439 336.463 396.414 336.606 396.399C337.672 396.346 338.121 396.019 338.36 394.969C338.468 394.379 338.533 393.781 338.552 393.181C338.636 392.022 338.606 390.843 338.799 389.702C339.079 388.052 340.103 387.251 341.795 387.161C342.276 387.135 342.759 387.157 343.305 387.157V389.421C343.08 389.437 342.875 389.47 342.67 389.464C341.291 389.422 341.22 389.891 341.119 391.033C341.057 391.748 341.143 392.476 341.094 393.195C341.043 393.909 340.948 394.62 340.808 395.323C340.609 396.342 339.983 397.099 339.115 397.742C340.8 398.838 340.992 400.542 341.101 402.272C341.16 403.201 341.133 404.137 341.227 405.062C341.301 405.78 341.58 405.963 342.321 405.985ZM343.741 396.274C343.75 396.274 343.759 396.274 343.767 396.274C344.573 396.288 345.215 396.951 345.202 397.757C345.202 397.783 345.201 397.81 345.2 397.836C345.154 398.623 344.479 399.225 343.692 399.179C343.66 399.18 343.629 399.179 343.597 399.178C342.795 399.138 342.178 398.456 342.217 397.654C342.257 396.852 342.94 396.234 343.741 396.274ZM348.761 396.274C349.642 396.267 350.227 396.838 350.231 397.709C350.236 398.604 349.682 399.176 348.806 399.179C347.916 399.183 347.33 398.62 347.325 397.755C347.323 397.711 347.322 397.666 347.323 397.622C347.348 396.853 347.992 396.249 348.761 396.274ZM359.27 395.171C359.505 396.046 359.961 396.354 360.882 396.396C361.033 396.403 361.184 396.428 361.391 396.451V398.973C361.279 399.01 361.164 399.037 361.047 399.055C359.812 399.132 359.249 399.639 359.125 400.877C359.045 401.667 359.052 402.466 358.997 403.26C358.974 404.13 358.895 404.999 358.76 405.86C358.445 407.419 357.471 408.197 355.863 408.292C355.345 408.322 354.823 408.297 354.265 408.297V406.043C354.566 406.024 354.831 405.999 355.097 405.992C356.058 405.969 356.398 405.659 356.445 404.705C356.497 403.656 356.519 402.606 356.566 401.558C356.634 400.042 357.049 398.687 358.462 397.742C357.654 397.166 357.005 396.468 356.837 395.527C356.633 394.386 356.568 393.221 356.458 392.064C356.404 391.486 356.407 390.903 356.351 390.325C356.29 389.702 355.861 389.486 355.294 389.472C354.968 389.464 354.642 389.47 354.226 389.47V387.27C356.879 386.829 358.712 387.712 358.882 390.25C358.953 391.316 358.943 392.387 359.011 393.453C359.041 394.033 359.128 394.608 359.27 395.171Z"></path>
</g>
<path fill="white" d="M80.2359 399.809C79.9228 400.319 79.9276 400.962 80.2484 401.468L86.0543 410.612C86.4311 411.205 87.1574 411.476 87.8315 411.274L104.586 406.255C105.5 405.982 105.96 404.963 105.561 404.098L94.7901 380.771C94.2649 379.633 92.6814 379.54 92.0257 380.608L80.2359 399.809ZM94.5039 386.104C94.275 385.575 93.4998 385.656 93.3862 386.221L89.2396 406.835C89.1522 407.27 89.5598 407.641 89.9853 407.514L101.561 404.064C101.899 403.963 102.073 403.591 101.933 403.268L94.5039 386.104Z" clip-rule="evenodd" fill-rule="evenodd"></path>
<path fill="white" d="M115.742 395.544H116.763C117.717 395.544 118.43 395.356 118.903 394.98C119.377 394.603 119.614 394.056 119.614 393.336C119.614 392.611 119.415 392.075 119.018 391.729C118.621 391.382 118 391.209 117.153 391.209H115.742V395.544ZM122.745 393.226C122.745 394.798 122.254 395.999 121.27 396.831C120.286 397.664 118.887 398.08 117.074 398.08H115.743V403.274H112.642V388.672H117.313C119.088 388.672 120.436 389.053 121.36 389.815C122.284 390.578 122.745 391.715 122.745 393.226Z" clip-rule="evenodd" fill-rule="evenodd"></path>
<path fill="white" d="M130.968 391.891C131.382 391.891 131.725 391.921 131.999 391.981L131.769 394.837C131.522 394.77 131.222 394.737 130.868 394.737C129.894 394.737 129.136 394.987 128.592 395.486C128.049 395.985 127.777 396.685 127.777 397.584V403.267H124.726V392.1H127.037L127.487 393.978H127.637C127.984 393.352 128.452 392.848 129.043 392.465C129.633 392.082 130.274 391.891 130.968 391.891Z" clip-rule="evenodd" fill-rule="evenodd"></path>
<path fill="white" d="M133.607 403.272H136.658V392.106H133.607V403.272ZM133.478 389.218C133.478 388.226 134.031 387.73 135.138 387.73C136.245 387.73 136.799 388.226 136.799 389.218C136.799 389.691 136.66 390.059 136.383 390.322C136.107 390.585 135.692 390.716 135.138 390.716C134.031 390.716 133.478 390.217 133.478 389.218Z" clip-rule="evenodd" fill-rule="evenodd"></path>
<path fill="white" d="M147.413 399.95C147.413 401.096 147.015 401.968 146.217 402.567C145.421 403.166 144.229 403.466 142.641 403.466C141.828 403.466 141.135 403.411 140.561 403.301C139.987 403.191 139.45 403.03 138.95 402.817V400.3C139.517 400.567 140.156 400.789 140.866 400.969C141.576 401.149 142.201 401.239 142.741 401.239C143.848 401.239 144.402 400.919 144.402 400.28C144.402 400.04 144.329 399.846 144.182 399.696C144.035 399.546 143.782 399.376 143.422 399.186C143.062 398.996 142.581 398.775 141.981 398.522C141.121 398.163 140.489 397.83 140.086 397.523C139.682 397.217 139.389 396.866 139.206 396.47C139.022 396.074 138.93 395.586 138.93 395.006C138.93 394.014 139.315 393.247 140.086 392.705C140.856 392.162 141.948 391.891 143.362 391.891C144.709 391.891 146.019 392.184 147.293 392.769L146.373 394.967C145.813 394.727 145.289 394.531 144.802 394.377C144.315 394.224 143.818 394.148 143.312 394.148C142.412 394.148 141.961 394.391 141.961 394.877C141.961 395.15 142.107 395.386 142.396 395.586C142.687 395.785 143.322 396.082 144.302 396.475C145.176 396.828 145.816 397.157 146.223 397.463C146.629 397.77 146.93 398.123 147.123 398.522C147.317 398.922 147.413 399.398 147.413 399.95Z" clip-rule="evenodd" fill-rule="evenodd"></path>
<path fill="white" d="M159.494 403.267H156.443V396.745C156.443 395.939 156.308 395.335 156.038 394.932C155.767 394.529 155.343 394.328 154.762 394.328C153.982 394.328 153.415 394.614 153.062 395.187C152.708 395.759 152.532 396.701 152.532 398.013V403.267H149.48V392.1H151.811L152.221 393.529H152.392C152.692 393.016 153.125 392.615 153.692 392.325C154.259 392.036 154.909 391.891 155.643 391.891C157.317 391.891 158.45 392.437 159.044 393.529H159.314C159.614 393.009 160.056 392.607 160.639 392.32C161.223 392.034 161.881 391.891 162.615 391.891C163.882 391.891 164.841 392.215 165.491 392.864C166.141 393.514 166.466 394.554 166.466 395.985V403.267H163.405V396.745C163.405 395.939 163.27 395.335 163 394.932C162.73 394.529 162.305 394.328 161.725 394.328C160.978 394.328 160.419 394.594 160.049 395.127C159.679 395.66 159.494 396.505 159.494 397.663V403.267Z" clip-rule="evenodd" fill-rule="evenodd"></path>
<path fill="white" d="M175.345 398.091L174.164 398.131C173.277 398.158 172.617 398.317 172.184 398.61C171.75 398.904 171.534 399.349 171.534 399.949C171.534 400.808 172.027 401.237 173.014 401.237C173.721 401.237 174.286 401.034 174.709 400.628C175.133 400.222 175.345 399.683 175.345 399.01V398.091ZM176.246 403.267L175.656 401.749H175.575C175.062 402.395 174.533 402.842 173.99 403.092C173.447 403.342 172.738 403.467 171.865 403.467C170.79 403.467 169.945 403.161 169.328 402.548C168.712 401.935 168.403 401.063 168.403 399.931C168.403 398.746 168.818 397.872 169.648 397.31C170.479 396.747 171.731 396.436 173.405 396.376L175.346 396.316V395.826C175.346 394.695 174.765 394.128 173.605 394.128C172.711 394.128 171.661 394.398 170.454 394.938L169.444 392.88C170.731 392.208 172.158 391.871 173.725 391.871C175.225 391.871 176.376 392.198 177.176 392.85C177.976 393.503 178.377 394.495 178.377 395.826V403.267H176.246Z" clip-rule="evenodd" fill-rule="evenodd"></path>
</g>
<defs>
<linearGradient gradientUnits="userSpaceOnUse" y2="-126.599" x2="695.189" y1="576.7" x1="14.0667" id="paint0_linear_5817_1595">
<stop stop-color="#187367"></stop>
<stop stop-color="#16A394" offset="0.425004"></stop>
<stop stop-color="#04C8BB" offset="0.741605"></stop>
<stop stop-color="#71E8DF" offset="1"></stop>
</linearGradient>
<linearGradient gradientUnits="userSpaceOnUse" y2="8.57151" x2="170.541" y1="687.428" x1="1355.58" id="paint1_linear_5817_1595">
<stop stop-opacity="0.1" stop-color="white"></stop>
<stop stop-opacity="0" stop-color="white" offset="0.972576"></stop>
</linearGradient>
<linearGradient gradientUnits="userSpaceOnUse" y2="223.924" x2="878.696" y1="-18.5508" x1="878.696" id="paint2_linear_5817_1595">
<stop stop-color="#4247B8" offset="0.0648065"></stop>
<stop stop-color="#4C51BF" offset="0.637734"></stop>
<stop stop-color="#232662" offset="1"></stop>
</linearGradient>
<linearGradient gradientUnits="userSpaceOnUse" y2="82.5898" x2="723.229" y1="49.4648" x1="723.229" id="paint3_linear_5817_1595">
<stop stop-color="#787DE7"></stop>
<stop stop-opacity="0.99" stop-color="#5258E0" offset="1"></stop>
</linearGradient>
<linearGradient gradientUnits="userSpaceOnUse" y2="446.214" x2="744.472" y1="167.555" x1="744.472" id="paint4_linear_5817_1595">
<stop stop-color="#92EFE6"></stop>
<stop stop-opacity="0" stop-color="#B7F4EE" offset="1"></stop>
</linearGradient>
<linearGradient gradientUnits="userSpaceOnUse" y2="446.234" x2="905.358" y1="167.574" x1="905.358" id="paint5_linear_5817_1595">
<stop stop-color="#92EFE6"></stop>
<stop stop-opacity="0" stop-color="#B7F4EE" offset="1"></stop>
</linearGradient>
<clipPath id="clip0_5817_1595">
<rect fill="white" height="474" width="844"></rect>
</clipPath>
<clipPath id="clip1_5817_1595">
<rect transform="translate(328.147 377.184)" fill="white" height="41.1381" width="41.1381"></rect>
</clipPath>
</defs>
</svg>
