<svg xmlns="http://www.w3.org/2000/svg" fill="none" viewBox="0 0 844 474" height="474" width="844">
<rect fill="url(#paint0_linear_10295_188569)" height="474" width="844"></rect>
<g filter="url(#filter0_ddd_10295_188569)">
<path fill="white" d="M195.697 260.848C193.662 260.848 191.916 260.567 190.461 260.007C189.015 259.456 187.864 258.704 187.009 257.75C186.153 256.796 185.597 255.724 185.342 254.534L191.154 253.752C191.331 254.205 191.611 254.627 191.995 255.021C192.378 255.414 192.885 255.729 193.514 255.965C194.153 256.211 194.93 256.334 195.845 256.334C197.212 256.334 198.338 256 199.223 255.331C200.118 254.672 200.565 253.565 200.565 252.012V247.866H200.3C200.025 248.496 199.611 249.091 199.061 249.651C198.51 250.212 197.802 250.669 196.936 251.023C196.071 251.377 195.038 251.554 193.839 251.554C192.137 251.554 190.588 251.161 189.192 250.374C187.805 249.578 186.699 248.363 185.873 246.73C185.057 245.088 184.648 243.013 184.648 240.505C184.648 237.939 185.066 235.795 185.902 234.074C186.738 232.353 187.85 231.064 189.236 230.209C190.633 229.353 192.162 228.925 193.824 228.925C195.093 228.925 196.155 229.142 197.01 229.574C197.866 229.997 198.554 230.528 199.075 231.168C199.607 231.797 200.015 232.417 200.3 233.026H200.536V229.22H206.776V252.1C206.776 254.028 206.304 255.64 205.36 256.939C204.415 258.237 203.107 259.21 201.436 259.859C199.774 260.518 197.861 260.848 195.697 260.848ZM195.83 246.834C196.843 246.834 197.699 246.583 198.397 246.081C199.105 245.57 199.646 244.842 200.02 243.898C200.403 242.944 200.595 241.803 200.595 240.476C200.595 239.148 200.408 237.997 200.034 237.024C199.661 236.041 199.12 235.278 198.412 234.737C197.704 234.197 196.843 233.926 195.83 233.926C194.797 233.926 193.927 234.206 193.219 234.767C192.511 235.318 191.975 236.085 191.611 237.068C191.247 238.052 191.065 239.188 191.065 240.476C191.065 241.784 191.247 242.915 191.611 243.869C191.985 244.813 192.521 245.546 193.219 246.067C193.927 246.578 194.797 246.834 195.83 246.834ZM208.869 251.879V229.22H214.961V233.174H215.197C215.61 231.767 216.304 230.705 217.277 229.987C218.251 229.26 219.372 228.896 220.64 228.896C220.955 228.896 221.294 228.916 221.658 228.955C222.022 228.994 222.342 229.048 222.617 229.117V234.693C222.322 234.605 221.914 234.526 221.393 234.457C220.871 234.388 220.395 234.354 219.962 234.354C219.038 234.354 218.211 234.556 217.484 234.959C216.766 235.352 216.195 235.903 215.772 236.611C215.359 237.319 215.153 238.135 215.153 239.06V251.879H208.869ZM232.23 252.321C229.899 252.321 227.893 251.849 226.211 250.905C224.539 249.951 223.251 248.604 222.346 246.863C221.441 245.113 220.989 243.043 220.989 240.653C220.989 238.322 221.441 236.277 222.346 234.516C223.251 232.756 224.525 231.384 226.167 230.401C227.819 229.417 229.756 228.925 231.979 228.925C233.474 228.925 234.865 229.166 236.154 229.648C237.452 230.12 238.583 230.833 239.546 231.787C240.52 232.741 241.277 233.941 241.818 235.387C242.359 236.822 242.63 238.504 242.63 240.432V242.158H223.497V238.263H236.714C236.714 237.358 236.517 236.557 236.124 235.859C235.731 235.16 235.185 234.615 234.487 234.221C233.798 233.818 232.997 233.616 232.082 233.616C231.128 233.616 230.283 233.838 229.545 234.28C228.817 234.713 228.247 235.298 227.834 236.036C227.421 236.763 227.209 237.575 227.199 238.47V242.172C227.199 243.293 227.406 244.262 227.819 245.078C228.242 245.894 228.837 246.524 229.604 246.966C230.371 247.409 231.281 247.63 232.333 247.63C233.031 247.63 233.671 247.532 234.251 247.335C234.831 247.139 235.328 246.844 235.741 246.45C236.154 246.057 236.468 245.575 236.685 245.005L242.497 245.388C242.202 246.785 241.597 248.004 240.683 249.046C239.778 250.079 238.607 250.886 237.171 251.466C235.746 252.036 234.098 252.321 232.23 252.321ZM250.284 252.306C248.838 252.306 247.55 252.056 246.419 251.554C245.288 251.043 244.393 250.291 243.734 249.297C243.085 248.294 242.761 247.045 242.761 245.55C242.761 244.292 242.992 243.234 243.454 242.379C243.916 241.523 244.546 240.835 245.342 240.313C246.139 239.792 247.043 239.399 248.056 239.134C249.079 238.868 250.151 238.681 251.272 238.573C252.59 238.435 253.652 238.307 254.459 238.189C255.265 238.062 255.85 237.875 256.214 237.629C256.578 237.383 256.76 237.019 256.76 236.537V236.449C256.76 235.514 256.465 234.792 255.875 234.28C255.295 233.769 254.468 233.513 253.396 233.513C252.266 233.513 251.366 233.764 250.697 234.265C250.028 234.757 249.586 235.377 249.369 236.124L243.557 235.652C243.852 234.275 244.432 233.085 245.298 232.082C246.163 231.069 247.279 230.292 248.647 229.751C250.023 229.201 251.617 228.925 253.426 228.925C254.685 228.925 255.89 229.073 257.04 229.368C258.201 229.663 259.228 230.12 260.123 230.74C261.028 231.359 261.741 232.156 262.262 233.13C262.783 234.093 263.044 235.249 263.044 236.596V251.879H257.084V248.737H256.907C256.544 249.445 256.057 250.069 255.447 250.61C254.837 251.141 254.104 251.559 253.249 251.864C252.393 252.159 251.405 252.306 250.284 252.306ZM252.084 247.97C253.008 247.97 253.824 247.788 254.532 247.424C255.241 247.05 255.796 246.548 256.199 245.919C256.602 245.29 256.804 244.577 256.804 243.78V241.376C256.607 241.504 256.337 241.621 255.993 241.73C255.658 241.828 255.28 241.922 254.857 242.01C254.434 242.089 254.011 242.162 253.588 242.231C253.165 242.29 252.782 242.344 252.438 242.394C251.7 242.502 251.056 242.674 250.505 242.91C249.954 243.146 249.527 243.465 249.222 243.869C248.917 244.262 248.764 244.754 248.764 245.344C248.764 246.2 249.074 246.853 249.694 247.306C250.323 247.748 251.12 247.97 252.084 247.97ZM277.064 229.22V233.941H263.418V229.22H277.064ZM266.516 223.792H272.8V244.916C272.8 245.496 272.889 245.949 273.066 246.273C273.243 246.588 273.489 246.809 273.804 246.937C274.128 247.065 274.502 247.129 274.925 247.129C275.22 247.129 275.515 247.104 275.81 247.055C276.105 246.996 276.331 246.952 276.488 246.922L277.477 251.598C277.162 251.697 276.719 251.81 276.149 251.938C275.579 252.075 274.885 252.159 274.069 252.189C272.555 252.248 271.227 252.046 270.086 251.584C268.955 251.122 268.075 250.404 267.446 249.43C266.816 248.456 266.506 247.227 266.516 245.742V223.792ZM290.434 229.22V233.941H276.45V229.22H290.434ZM279.651 251.879V227.583C279.651 225.941 279.97 224.579 280.61 223.497C281.259 222.415 282.144 221.604 283.265 221.063C284.386 220.522 285.66 220.251 287.085 220.251C288.049 220.251 288.929 220.325 289.726 220.473C290.532 220.62 291.132 220.753 291.526 220.871L290.405 225.592C290.159 225.513 289.854 225.439 289.49 225.37C289.136 225.301 288.772 225.267 288.398 225.267C287.474 225.267 286.83 225.483 286.466 225.916C286.102 226.339 285.92 226.934 285.92 227.701V251.879H279.651ZM291.365 251.879V229.22H297.458V233.174H297.694C298.107 231.767 298.8 230.705 299.774 229.987C300.747 229.26 301.869 228.896 303.137 228.896C303.452 228.896 303.791 228.916 304.155 228.955C304.519 228.994 304.839 229.048 305.114 229.117V234.693C304.819 234.605 304.411 234.526 303.889 234.457C303.368 234.388 302.891 234.354 302.458 234.354C301.534 234.354 300.708 234.556 299.98 234.959C299.262 235.352 298.692 235.903 298.269 236.611C297.856 237.319 297.65 238.135 297.65 239.06V251.879H291.365ZM314.638 252.321C312.346 252.321 310.365 251.834 308.693 250.861C307.031 249.877 305.747 248.511 304.843 246.76C303.938 245 303.486 242.959 303.486 240.638C303.486 238.298 303.938 236.252 304.843 234.501C305.747 232.741 307.031 231.374 308.693 230.401C310.365 229.417 312.346 228.925 314.638 228.925C316.929 228.925 318.906 229.417 320.568 230.401C322.24 231.374 323.528 232.741 324.433 234.501C325.338 236.252 325.79 238.298 325.79 240.638C325.79 242.959 325.338 245 324.433 246.76C323.528 248.511 322.24 249.877 320.568 250.861C318.906 251.834 316.929 252.321 314.638 252.321ZM314.667 247.453C315.71 247.453 316.58 247.158 317.278 246.568C317.977 245.968 318.503 245.152 318.857 244.119C319.221 243.087 319.403 241.912 319.403 240.594C319.403 239.276 319.221 238.101 318.857 237.068C318.503 236.036 317.977 235.219 317.278 234.619C316.58 234.02 315.71 233.72 314.667 233.72C313.615 233.72 312.73 234.02 312.012 234.619C311.304 235.219 310.768 236.036 310.404 237.068C310.05 238.101 309.873 239.276 309.873 240.594C309.873 241.912 310.05 243.087 310.404 244.119C310.768 245.152 311.304 245.968 312.012 246.568C312.73 247.158 313.615 247.453 314.667 247.453ZM333.253 238.779V251.879H326.969V229.22H332.958V233.218H333.223C333.725 231.9 334.565 230.858 335.746 230.091C336.926 229.314 338.357 228.925 340.038 228.925C341.612 228.925 342.984 229.27 344.154 229.958C345.324 230.646 346.234 231.63 346.883 232.908C347.532 234.177 347.857 235.691 347.857 237.452V251.879H341.572V238.573C341.582 237.186 341.228 236.104 340.51 235.328C339.793 234.541 338.804 234.147 337.545 234.147C336.699 234.147 335.952 234.329 335.303 234.693C334.664 235.057 334.162 235.588 333.798 236.286C333.444 236.975 333.262 237.806 333.253 238.779ZM361.953 229.22V233.941H348.308V229.22H361.953ZM351.406 223.792H357.691V244.916C357.691 245.496 357.778 245.949 357.955 246.273C358.132 246.588 358.379 246.809 358.693 246.937C359.019 247.065 359.391 247.129 359.814 247.129C360.109 247.129 360.405 247.104 360.699 247.055C360.996 246.996 361.22 246.952 361.377 246.922L362.367 251.598C362.053 251.697 361.609 251.81 361.038 251.938C360.47 252.075 359.775 252.159 358.96 252.189C357.444 252.248 356.118 252.046 354.977 251.584C353.845 251.122 352.965 250.404 352.335 249.43C351.706 248.456 351.396 247.227 351.406 245.742V223.792ZM373.221 252.321C370.891 252.321 368.884 251.849 367.204 250.905C365.532 249.951 364.243 248.604 363.339 246.863C362.434 245.113 361.98 243.043 361.98 240.653C361.98 238.322 362.434 236.277 363.339 234.516C364.243 232.756 365.517 231.384 367.16 230.401C368.812 229.417 370.749 228.925 372.972 228.925C374.467 228.925 375.858 229.166 377.147 229.648C378.445 230.12 379.574 230.833 380.539 231.787C381.513 232.741 382.269 233.941 382.81 235.387C383.35 236.822 383.622 238.504 383.622 240.432V242.158H364.49V238.263H377.708C377.708 237.358 377.511 236.557 377.117 235.859C376.723 235.16 376.177 234.615 375.479 234.221C374.791 233.818 373.989 233.616 373.074 233.616C372.12 233.616 371.275 233.838 370.537 234.28C369.809 234.713 369.238 235.298 368.827 236.036C368.413 236.763 368.201 237.575 368.191 238.47V242.172C368.191 243.293 368.398 244.262 368.812 245.078C369.233 245.894 369.829 246.524 370.597 246.966C371.364 247.409 372.274 247.63 373.326 247.63C374.024 247.63 374.662 247.532 375.243 247.335C375.823 247.139 376.319 246.844 376.733 246.45C377.147 246.057 377.461 245.575 377.678 245.005L383.49 245.388C383.193 246.785 382.59 248.004 381.675 249.046C380.771 250.079 379.599 250.886 378.164 251.466C376.738 252.036 375.09 252.321 373.221 252.321ZM391.099 238.779V251.879H384.816V229.22H390.805V233.218H391.069C391.57 231.9 392.413 230.858 393.592 230.091C394.773 229.314 396.204 228.925 397.884 228.925C399.459 228.925 400.83 229.27 402.001 229.958C403.17 230.646 404.08 231.63 404.73 232.908C405.378 234.177 405.702 235.691 405.702 237.452V251.879H399.419V238.573C399.429 237.186 399.075 236.104 398.357 235.328C397.639 234.541 396.65 234.147 395.391 234.147C394.546 234.147 393.799 234.329 393.151 234.693C392.51 235.057 392.009 235.588 391.645 236.286C391.291 236.975 391.109 237.806 391.099 238.779ZM416.098 252.248C414.376 252.248 412.818 251.805 411.423 250.92C410.034 250.025 408.933 248.712 408.118 246.981C407.31 245.24 406.906 243.106 406.906 240.579C406.906 237.983 407.325 235.824 408.162 234.103C408.997 232.372 410.109 231.079 411.495 230.223C412.891 229.358 414.421 228.925 416.083 228.925C417.352 228.925 418.409 229.142 419.254 229.574C420.111 229.997 420.799 230.528 421.32 231.168C421.851 231.797 422.255 232.417 422.529 233.026H422.721V221.668H428.992V251.879H422.795V248.25H422.529C422.235 248.879 421.816 249.504 421.275 250.123C420.744 250.733 420.051 251.239 419.196 251.643C418.349 252.046 417.317 252.248 416.098 252.248ZM418.09 247.247C419.102 247.247 419.957 246.971 420.657 246.421C421.365 245.86 421.906 245.078 422.28 244.075C422.661 243.072 422.853 241.897 422.853 240.549C422.853 239.202 422.666 238.032 422.295 237.039C421.921 236.045 421.38 235.278 420.669 234.737C419.962 234.197 419.102 233.926 418.09 233.926C417.055 233.926 416.186 234.206 415.478 234.767C414.77 235.328 414.234 236.104 413.87 237.098C413.506 238.091 413.324 239.242 413.324 240.549C413.324 241.867 413.506 243.033 413.87 244.046C414.244 245.049 414.78 245.836 415.478 246.406C416.186 246.966 417.055 247.247 418.09 247.247Z"></path>
<path fill="white" d="M127.424 212L135.549 220.3L119.278 236.908L135.549 253.523L127.403 261.837L103 236.929L127.424 212Z"></path>
<path fill="white" d="M143.694 245.238L135.557 253.544L143.694 261.849L151.831 253.544L143.694 245.238Z"></path>
<path fill="white" d="M159.967 245.232L168.106 236.924L151.828 220.31L135.557 236.924L143.696 245.232L151.828 236.924L159.967 245.232Z"></path>
</g>
<g filter="url(#filter1_ddd_10295_188569)">
<path fill="white" d="M512.435 244.92C511.847 245.879 511.856 247.09 512.458 248.041L523.368 265.25C524.076 266.367 525.441 266.876 526.707 266.496L558.189 257.052C559.907 256.536 560.771 254.62 560.02 252.991L539.782 209.09C538.796 206.949 535.82 206.774 534.588 208.783L512.435 244.92ZM539.245 219.126C538.815 218.131 537.358 218.284 537.145 219.347L529.353 258.143C529.189 258.961 529.955 259.659 530.754 259.421L552.505 252.928C553.14 252.738 553.467 252.037 553.205 251.429L539.245 219.126Z" clip-rule="evenodd" fill-rule="evenodd"></path>
</g>
<g filter="url(#filter2_ddd_10295_188569)">
<path fill="white" d="M594.455 232.436C594.455 235.451 593.513 237.755 591.628 239.352C589.745 240.949 587.066 241.747 583.592 241.747H581.043V251.71H575.104V223.7H584.051C587.449 223.7 590.032 224.431 591.801 225.893C593.57 227.355 594.455 229.536 594.455 232.436ZM581.044 236.881H582.999C584.825 236.881 586.191 236.521 587.098 235.799C588.006 235.077 588.459 234.026 588.459 232.647C588.459 231.255 588.079 230.227 587.319 229.563C586.558 228.898 585.368 228.566 583.746 228.566H581.044V236.881Z" clip-rule="evenodd" fill-rule="evenodd"></path>
<path fill="white" d="M612.171 230.06C611.647 229.945 610.99 229.887 610.197 229.887C608.869 229.887 607.64 230.255 606.51 230.989C605.379 231.723 604.482 232.691 603.817 233.892H603.53L602.668 230.29H598.242V251.71H604.086V240.808C604.086 239.084 604.606 237.742 605.647 236.784C606.688 235.826 608.141 235.347 610.006 235.347C610.683 235.347 611.258 235.412 611.73 235.539L612.171 230.06Z"></path>
<path fill="white" d="M615.274 251.71H621.118V230.29H615.274V251.71Z"></path>
<path fill="white" d="M615.025 224.753C615.025 222.85 616.085 221.898 618.205 221.898C620.325 221.898 621.385 222.85 621.385 224.753C621.385 225.66 621.12 226.365 620.59 226.87C620.06 227.375 619.265 227.626 618.205 227.626C616.085 227.626 615.025 226.669 615.025 224.753Z"></path>
<path fill="white" d="M639.4 250.368C640.927 249.219 641.69 247.546 641.69 245.348C641.69 244.288 641.505 243.375 641.135 242.608C640.764 241.842 640.189 241.165 639.41 240.578C638.631 239.99 637.405 239.358 635.731 238.681C633.854 237.928 632.637 237.359 632.081 236.976C631.527 236.593 631.248 236.14 631.248 235.615C631.248 234.683 632.11 234.217 633.835 234.217C634.805 234.217 635.757 234.364 636.689 234.657C637.621 234.952 638.625 235.328 639.698 235.788L641.46 231.573C639.02 230.449 636.511 229.887 633.93 229.887C631.222 229.887 629.131 230.407 627.656 231.449C626.18 232.49 625.443 233.961 625.443 235.864C625.443 236.976 625.619 237.911 625.97 238.671C626.321 239.432 626.883 240.105 627.656 240.693C628.428 241.28 629.639 241.919 631.286 242.608C632.436 243.094 633.356 243.518 634.045 243.882C634.735 244.247 635.22 244.572 635.502 244.86C635.783 245.147 635.923 245.521 635.923 245.981C635.923 247.207 634.863 247.82 632.742 247.82C631.708 247.82 630.511 247.647 629.151 247.303C627.79 246.958 626.567 246.53 625.481 246.019V250.847C626.439 251.256 627.468 251.565 628.566 251.776C629.665 251.987 630.992 252.093 632.551 252.093C635.59 252.093 637.874 251.517 639.4 250.368Z"></path>
<path fill="white" d="M664.838 251.71H658.994V239.199C658.994 237.654 658.735 236.494 658.219 235.722C657.701 234.949 656.887 234.562 655.775 234.562C654.281 234.562 653.196 235.111 652.518 236.21C651.841 237.309 651.503 239.116 651.503 241.632V251.71H645.659V230.29H650.124L650.909 233.03H651.235C651.809 232.046 652.64 231.276 653.725 230.721C654.811 230.165 656.057 229.887 657.462 229.887C660.668 229.887 662.839 230.935 663.976 233.03H664.493C665.068 232.033 665.914 231.261 667.032 230.711C668.149 230.162 669.41 229.887 670.816 229.887C673.242 229.887 675.079 230.51 676.324 231.755C677.569 233.001 678.192 234.996 678.192 237.742V251.71H672.329V239.199C672.329 237.654 672.07 236.494 671.554 235.722C671.035 234.949 670.222 234.562 669.11 234.562C667.68 234.562 666.61 235.073 665.901 236.095C665.192 237.117 664.838 238.739 664.838 240.961V251.71Z"></path>
<path fill="white" d="M695.789 248.798L696.919 251.71H701V237.436C701 234.882 700.234 232.979 698.701 231.727C697.168 230.475 694.965 229.849 692.091 229.849C689.09 229.849 686.356 230.494 683.891 231.785L685.826 235.731C688.137 234.696 690.149 234.179 691.861 234.179C694.083 234.179 695.195 235.265 695.195 237.436V238.375L691.478 238.49C688.272 238.605 685.874 239.203 684.283 240.282C682.694 241.361 681.899 243.038 681.899 245.311C681.899 247.482 682.489 249.155 683.67 250.331C684.852 251.506 686.471 252.093 688.528 252.093C690.201 252.093 691.558 251.853 692.598 251.374C693.64 250.895 694.652 250.037 695.635 248.798H695.789ZM692.934 241.862L695.195 241.786V243.548C695.195 244.839 694.789 245.873 693.978 246.652C693.168 247.431 692.084 247.821 690.731 247.821C688.841 247.821 687.895 246.997 687.895 245.35C687.895 244.2 688.31 243.345 689.141 242.782C689.971 242.22 691.235 241.914 692.934 241.862Z" clip-rule="evenodd" fill-rule="evenodd"></path>
</g>
<g filter="url(#filter3_d_10295_188569)">
<line stroke="#92EFE6" y2="317" x2="472.5" y1="157" x1="472.5"></line>
</g>
<defs>
<filter color-interpolation-filters="sRGB" filterUnits="userSpaceOnUse" height="222.375" width="498.515" y="125.738" x="16.7384" id="filter0_ddd_10295_188569">
<feFlood result="BackgroundImageFix" flood-opacity="0"></feFlood>
<feColorMatrix result="hardAlpha" values="0 0 0 0 0 0 0 0 0 0 0 0 0 0 0 0 0 0 127 0" type="matrix" in="SourceAlpha"></feColorMatrix>
<feOffset></feOffset>
<feGaussianBlur stdDeviation="30.9417"></feGaussianBlur>
<feColorMatrix values="0 0 0 0 0.0352941 0 0 0 0 0.0392157 0 0 0 0 0.0823529 0 0 0 1 0" type="matrix"></feColorMatrix>
<feBlend result="effect1_dropShadow_10295_188569" in2="BackgroundImageFix" mode="normal"></feBlend>
<feColorMatrix result="hardAlpha" values="0 0 0 0 0 0 0 0 0 0 0 0 0 0 0 0 0 0 127 0" type="matrix" in="SourceAlpha"></feColorMatrix>
<feOffset></feOffset>
<feGaussianBlur stdDeviation="24.3783"></feGaussianBlur>
<feColorMatrix values="0 0 0 0 0.0352941 0 0 0 0 0.0392157 0 0 0 0 0.0823529 0 0 0 0.05 0" type="matrix"></feColorMatrix>
<feBlend result="effect2_dropShadow_10295_188569" in2="effect1_dropShadow_10295_188569" mode="normal"></feBlend>
<feColorMatrix result="hardAlpha" values="0 0 0 0 0 0 0 0 0 0 0 0 0 0 0 0 0 0 127 0" type="matrix" in="SourceAlpha"></feColorMatrix>
<feOffset></feOffset>
<feGaussianBlur stdDeviation="43.1308"></feGaussianBlur>
<feComposite operator="out" in2="hardAlpha"></feComposite>
<feColorMatrix values="0 0 0 0 0.0352941 0 0 0 0 0.0392157 0 0 0 0 0.0823529 0 0 0 0.01 0" type="matrix"></feColorMatrix>
<feBlend result="effect3_dropShadow_10295_188569" in2="effect2_dropShadow_10295_188569" mode="normal"></feBlend>
<feBlend result="shape" in2="effect3_dropShadow_10295_188569" in="SourceGraphic" mode="normal"></feBlend>
</filter>
<filter color-interpolation-filters="sRGB" filterUnits="userSpaceOnUse" height="123.32" width="112.37" y="175.336" x="479.961" id="filter1_ddd_10295_188569">
<feFlood result="BackgroundImageFix" flood-opacity="0"></feFlood>
<feColorMatrix result="hardAlpha" values="0 0 0 0 0 0 0 0 0 0 0 0 0 0 0 0 0 0 127 0" type="matrix" in="SourceAlpha"></feColorMatrix>
<feOffset></feOffset>
<feGaussianBlur stdDeviation="11.4921"></feGaussianBlur>
<feColorMatrix values="0 0 0 0 0.0352941 0 0 0 0 0.0392157 0 0 0 0 0.0823529 0 0 0 1 0" type="matrix"></feColorMatrix>
<feBlend result="effect1_dropShadow_10295_188569" in2="BackgroundImageFix" mode="normal"></feBlend>
<feColorMatrix result="hardAlpha" values="0 0 0 0 0 0 0 0 0 0 0 0 0 0 0 0 0 0 127 0" type="matrix" in="SourceAlpha"></feColorMatrix>
<feOffset></feOffset>
<feGaussianBlur stdDeviation="9.05441"></feGaussianBlur>
<feColorMatrix values="0 0 0 0 0.0352941 0 0 0 0 0.0392157 0 0 0 0 0.0823529 0 0 0 0.05 0" type="matrix"></feColorMatrix>
<feBlend result="effect2_dropShadow_10295_188569" in2="effect1_dropShadow_10295_188569" mode="normal"></feBlend>
<feColorMatrix result="hardAlpha" values="0 0 0 0 0 0 0 0 0 0 0 0 0 0 0 0 0 0 127 0" type="matrix" in="SourceAlpha"></feColorMatrix>
<feOffset></feOffset>
<feGaussianBlur stdDeviation="16.0193"></feGaussianBlur>
<feComposite operator="out" in2="hardAlpha"></feComposite>
<feColorMatrix values="0 0 0 0 0.0352941 0 0 0 0 0.0392157 0 0 0 0 0.0823529 0 0 0 0.01 0" type="matrix"></feColorMatrix>
<feBlend result="effect3_dropShadow_10295_188569" in2="effect2_dropShadow_10295_188569" mode="normal"></feBlend>
<feBlend result="shape" in2="effect3_dropShadow_10295_188569" in="SourceGraphic" mode="normal"></feBlend>
</filter>
<filter color-interpolation-filters="sRGB" filterUnits="userSpaceOnUse" height="94.2727" width="189.973" y="189.86" x="543.065" id="filter2_ddd_10295_188569">
<feFlood result="BackgroundImageFix" flood-opacity="0"></feFlood>
<feColorMatrix result="hardAlpha" values="0 0 0 0 0 0 0 0 0 0 0 0 0 0 0 0 0 0 127 0" type="matrix" in="SourceAlpha"></feColorMatrix>
<feOffset></feOffset>
<feGaussianBlur stdDeviation="11.4921"></feGaussianBlur>
<feColorMatrix values="0 0 0 0 0.0352941 0 0 0 0 0.0392157 0 0 0 0 0.0823529 0 0 0 1 0" type="matrix"></feColorMatrix>
<feBlend result="effect1_dropShadow_10295_188569" in2="BackgroundImageFix" mode="normal"></feBlend>
<feColorMatrix result="hardAlpha" values="0 0 0 0 0 0 0 0 0 0 0 0 0 0 0 0 0 0 127 0" type="matrix" in="SourceAlpha"></feColorMatrix>
<feOffset></feOffset>
<feGaussianBlur stdDeviation="9.05441"></feGaussianBlur>
<feColorMatrix values="0 0 0 0 0.0352941 0 0 0 0 0.0392157 0 0 0 0 0.0823529 0 0 0 0.05 0" type="matrix"></feColorMatrix>
<feBlend result="effect2_dropShadow_10295_188569" in2="effect1_dropShadow_10295_188569" mode="normal"></feBlend>
<feColorMatrix result="hardAlpha" values="0 0 0 0 0 0 0 0 0 0 0 0 0 0 0 0 0 0 127 0" type="matrix" in="SourceAlpha"></feColorMatrix>
<feOffset></feOffset>
<feGaussianBlur stdDeviation="16.0193"></feGaussianBlur>
<feComposite operator="out" in2="hardAlpha"></feComposite>
<feColorMatrix values="0 0 0 0 0.0352941 0 0 0 0 0.0392157 0 0 0 0 0.0823529 0 0 0 0.01 0" type="matrix"></feColorMatrix>
<feBlend result="effect3_dropShadow_10295_188569" in2="effect2_dropShadow_10295_188569" mode="normal"></feBlend>
<feBlend result="shape" in2="effect3_dropShadow_10295_188569" in="SourceGraphic" mode="normal"></feBlend>
</filter>
<filter color-interpolation-filters="sRGB" filterUnits="userSpaceOnUse" height="207" width="48" y="137.5" x="448.5" id="filter3_d_10295_188569">
<feFlood result="BackgroundImageFix" flood-opacity="0"></feFlood>
<feColorMatrix result="hardAlpha" values="0 0 0 0 0 0 0 0 0 0 0 0 0 0 0 0 0 0 127 0" type="matrix" in="SourceAlpha"></feColorMatrix>
<feOffset dy="4"></feOffset>
<feGaussianBlur stdDeviation="11.75"></feGaussianBlur>
<feComposite operator="out" in2="hardAlpha"></feComposite>
<feColorMatrix values="0 0 0 0 0.443137 0 0 0 0 0.909804 0 0 0 0 0.87451 0 0 0 1 0" type="matrix"></feColorMatrix>
<feBlend result="effect1_dropShadow_10295_188569" in2="BackgroundImageFix" mode="normal"></feBlend>
<feBlend result="shape" in2="effect1_dropShadow_10295_188569" in="SourceGraphic" mode="normal"></feBlend>
</filter>
<linearGradient gradientUnits="userSpaceOnUse" y2="0" x2="422" y1="474" x1="422" id="paint0_linear_10295_188569">
<stop stop-color="#093137"></stop>
<stop stop-color="#0A0B16" offset="1"></stop>
</linearGradient>
</defs>
</svg>
