<svg xmlns="http://www.w3.org/2000/svg" fill="none" viewBox="0 0 844 474" height="474" width="844">
<g clip-path="url(#clip0_7076_3607)">
<rect fill="url(#paint0_radial_7076_3607)" height="474" width="844"></rect>
<path fill-opacity="0.2" fill="#EBF4FF" d="M953.515 -18.9204L1018.94 -18.9204V45.8699L953.515 45.8699V-18.9204ZM1018.94 441.634V506.425L953.515 506.425V441.634H1018.94ZM1018.94 375.837V440.634H953.515V375.837H1018.94ZM1018.94 310.039V374.837H953.515L953.515 310.039H1018.94ZM1018.94 244.248V309.039H953.515V244.248H1018.94ZM1018.94 178.458V243.248H953.515V178.458H1018.94ZM1018.94 112.668V177.458H953.515V112.668H1018.94ZM1018.94 46.8699V111.668H953.515V46.8699L1018.94 46.8699ZM952.515 -18.9204L887.087 -18.9204V45.8699H952.515V-18.9204ZM820.663 -18.9204L886.087 -18.9204V45.8699L820.663 45.8699V-18.9204ZM819.663 -18.9204L754.236 -18.9204V45.8699L819.663 45.8699V-18.9204ZM687.808 -18.9204L753.236 -18.9204V45.8699L687.808 45.8699V-18.9204ZM686.808 -18.9204L621.378 -18.9204V45.8699H686.808V-18.9204ZM554.954 -18.9204L620.378 -18.9204V45.8699L554.954 45.8699V-18.9204ZM553.954 -18.9204L488.524 -18.9204V45.8699L553.954 45.8699V-18.9204ZM553.954 46.8699L488.524 46.8699V111.668H553.954V46.8699ZM553.954 112.668H488.524V177.458H553.954V112.668ZM554.954 177.458V112.668L620.378 112.668V177.458L554.954 177.458ZM553.954 178.458H488.524L488.524 243.248H553.954L553.954 178.458ZM554.954 243.248L554.954 178.458L620.378 178.458L620.378 243.248H554.954ZM553.954 244.248H488.524V309.039H553.954V244.248ZM554.954 309.039V244.248H620.378V309.039H554.954ZM553.954 310.039H488.524L488.524 374.837H553.954L553.954 310.039ZM554.954 374.837L554.954 310.039H620.378L620.378 374.837H554.954ZM553.954 375.837H488.524V440.634H553.954V375.837ZM554.954 440.634V375.837H620.378V440.634H554.954ZM553.954 441.634H488.524V506.425H553.954V441.634ZM554.954 506.425V441.634H620.378V506.425H554.954ZM554.954 111.668V46.8699L620.378 46.8699V111.668L554.954 111.668ZM621.378 112.668V177.458H686.808V112.668H621.378ZM621.378 178.458L621.378 243.248H686.808L686.808 178.458H621.378ZM621.378 244.248V309.039H686.808V244.248H621.378ZM621.378 310.039L621.378 374.837H686.808L686.808 310.039H621.378ZM621.378 375.837V440.634H686.808V375.837H621.378ZM621.378 441.634V506.425H686.808V441.634H621.378ZM621.378 46.8699V111.668H686.808V46.8699H621.378ZM687.808 177.458V112.668L753.236 112.668V177.458L687.808 177.458ZM687.808 243.248L687.808 178.458L753.236 178.458L753.236 243.248H687.808ZM687.808 309.039V244.248H753.236V309.039H687.808ZM687.808 374.837L687.808 310.039H753.236L753.236 374.837H687.808ZM687.808 440.634V375.837H753.236V440.634H687.808ZM687.808 506.425V441.634H753.236V506.425H687.808ZM687.808 111.668V46.8699L753.236 46.8699V111.668L687.808 111.668ZM754.236 112.668V177.458H819.663V112.668H754.236ZM754.236 178.458L754.236 243.248H819.663V178.458H754.236ZM754.236 244.248V309.039H819.663V244.248H754.236ZM754.236 310.039L754.236 374.837H819.663L819.663 310.039H754.236ZM754.236 375.837V440.634H819.663V375.837H754.236ZM754.236 441.634V506.425H819.663V441.634H754.236ZM754.236 46.8699V111.668H819.663V46.8699L754.236 46.8699ZM820.663 177.458V112.668H886.087V177.458H820.663ZM820.663 243.248V178.458H886.087V243.248L820.663 243.248ZM820.663 309.039V244.248L886.087 244.248V309.039L820.663 309.039ZM820.663 374.837L820.663 310.039L886.087 310.039L886.087 374.837L820.663 374.837ZM820.663 440.634V375.837L886.087 375.837V440.634L820.663 440.634ZM820.663 506.425V441.634L886.087 441.634V506.425H820.663ZM820.663 111.668V46.8699L886.087 46.8699V111.668H820.663ZM887.087 112.668V177.458L952.515 177.458V112.668L887.087 112.668ZM887.087 178.458V243.248H952.515V178.458L887.087 178.458ZM887.087 244.248V309.039H952.515V244.248H887.087ZM887.087 310.039L887.087 374.837H952.515L952.515 310.039H887.087ZM887.087 375.837V440.634H952.515V375.837H887.087ZM887.087 441.634V506.425H952.515V441.634H887.087ZM887.087 46.8699V111.668L952.515 111.668V46.8699H887.087ZM1019.94 45.8699V-18.9204L1085.37 -18.9204V45.8699L1019.94 45.8699ZM1086.37 45.8699V-18.9204L1151.79 -18.9204V45.8699L1086.37 45.8699ZM1019.94 46.8699L1085.37 46.8699V111.668H1019.94V46.8699ZM1086.37 46.8699V111.668L1151.79 111.668V46.8699L1086.37 46.8699ZM1019.94 112.668H1085.37V177.458H1019.94V112.668ZM1086.37 112.668V177.458L1151.79 177.458V112.668L1086.37 112.668ZM1019.94 178.458H1085.37V243.248H1019.94V178.458ZM1086.37 178.458V243.248H1151.79V178.458L1086.37 178.458ZM1019.94 244.248H1085.37V309.039H1019.94V244.248ZM1086.37 244.248V309.039H1151.79V244.248H1086.37ZM1019.94 310.039H1085.37V374.837H1019.94V310.039ZM1086.37 310.039V374.837H1151.79V310.039H1086.37ZM1019.94 375.837H1085.37V440.634H1019.94V375.837ZM1086.37 375.837V440.634H1151.79V375.837H1086.37ZM1019.94 441.634H1085.37V506.425H1019.94V441.634ZM1086.37 441.634V506.425H1151.79V441.634H1086.37ZM1152.79 111.668V46.8699H1218.22V111.668H1152.79ZM1152.79 177.458V112.668H1218.22V177.458H1152.79ZM1152.79 243.248V178.458H1218.22V243.248L1152.79 243.248ZM1152.79 309.039V244.248L1218.22 244.248V309.039L1152.79 309.039ZM1152.79 374.837V310.039L1218.22 310.039V374.837L1152.79 374.837ZM1152.79 440.634V375.837L1218.22 375.837V440.634L1152.79 440.634ZM1152.79 506.425V441.634L1218.22 441.634V506.425H1152.79ZM1152.79 45.8699V-18.9204L1218.22 -18.9204V45.8699H1152.79ZM1219.22 45.8699V-18.9204L1284.65 -18.9204V45.8699L1219.22 45.8699ZM1219.22 46.8699V111.668L1284.65 111.668V46.8699L1219.22 46.8699ZM1219.22 112.668V177.458L1284.65 177.458V112.668L1219.22 112.668ZM1219.22 178.458V243.248H1284.65V178.458L1219.22 178.458ZM1219.22 244.248V309.039H1284.65V244.248H1219.22ZM1219.22 310.039V374.837H1284.65V310.039H1219.22ZM1219.22 375.837V440.634H1284.65V375.837H1219.22ZM1219.22 441.634V506.425H1284.65V441.634H1219.22ZM1285.65 111.668V46.8699L1351.08 46.8699V111.668H1285.65ZM1285.65 177.458V112.668H1351.08V177.458H1285.65ZM1285.65 243.248V178.458H1351.08V243.248H1285.65ZM1285.65 309.039V244.248H1351.08V309.039H1285.65ZM1285.65 374.837V310.039H1351.08V374.837H1285.65ZM1285.65 440.634V375.837H1351.08V440.634H1285.65ZM1285.65 506.425V441.634H1351.08V506.425H1285.65ZM1285.65 45.8699V-18.9204L1351.08 -18.9204V45.8699L1285.65 45.8699ZM1352.08 45.8699V-18.9204L1417.5 -18.9204V45.8699L1352.08 45.8699ZM1352.08 46.8699V111.668H1417.5V46.8699L1352.08 46.8699ZM1352.08 112.668V177.458H1417.5V112.668H1352.08ZM1352.08 178.458V243.248H1417.5V178.458H1352.08ZM1352.08 244.248V309.039H1417.5V244.248H1352.08ZM1352.08 310.039V374.837H1417.5V310.039H1352.08ZM1352.08 375.837V440.634H1417.5V375.837H1352.08ZM1352.08 441.634V506.425H1417.5V441.634H1352.08ZM1418.5 111.668V46.8699H1483.93V111.668L1418.5 111.668ZM1418.5 177.458V112.668L1483.93 112.668V177.458L1418.5 177.458ZM1418.5 243.248V178.458L1483.93 178.458V243.248H1418.5ZM1418.5 309.039V244.248H1483.93V309.039H1418.5ZM1418.5 374.837V310.039H1483.93V374.837H1418.5ZM1418.5 440.634V375.837H1483.93V440.634H1418.5ZM1418.5 506.425V441.634H1483.93V506.425H1418.5ZM1418.5 45.8699V-18.9204L1483.93 -18.9204V45.8699H1418.5ZM1484.93 45.8699V-18.9204L1550.36 -18.9204V45.8699L1484.93 45.8699ZM1551.36 -18.9204H1550.36V-19.9204L-43.896 -19.9204V-18.9204L-43.896 -18.9204L-43.8961 507.423H-43.896V507.425L1550.36 507.425L1550.36 507.423H1551.36V-18.9204ZM1484.93 46.8699V111.668H1550.36V46.8699L1484.93 46.8699ZM1484.93 112.668V177.458H1550.36V112.668H1484.93ZM1484.93 178.458V243.248L1550.36 243.248V178.458H1484.93ZM1484.93 244.248V309.039L1550.36 309.039V244.248L1484.93 244.248ZM1484.93 310.039V374.837L1550.36 374.837V310.039L1484.93 310.039ZM1484.93 375.837V440.634L1550.36 440.634V375.837L1484.93 375.837ZM1484.93 441.634V506.425H1550.36V441.634L1484.93 441.634ZM-42.8961 506.425H22.5355L22.5355 441.634H-42.8961L-42.8961 506.425ZM-42.8961 440.634H22.5355L22.5355 375.837H-42.8961L-42.8961 440.634ZM-42.8961 374.837H22.5355L22.5355 310.039H-42.8961L-42.8961 374.837ZM-42.8961 309.039H22.5355L22.5355 244.248H-42.8961L-42.8961 309.039ZM-42.8961 243.248H22.5355L22.5355 178.458H-42.8961L-42.8961 243.248ZM-42.8961 177.458H22.5355L22.5355 112.668H-42.896L-42.8961 177.458ZM-42.896 111.668H22.5355L22.5355 46.8699L-42.896 46.8699L-42.896 111.668ZM-42.896 45.8699L22.5355 45.8699L22.5355 -18.9204L-42.896 -18.9204L-42.896 45.8699ZM23.5355 45.8699L23.5355 -18.9204L88.9595 -18.9204V45.8699L23.5355 45.8699ZM23.5355 111.668L23.5355 46.8699L88.9595 46.8699L88.9595 111.668L23.5355 111.668ZM23.5355 177.458L23.5355 112.668L88.9595 112.668V177.458L23.5355 177.458ZM23.5355 243.248L23.5355 178.458L88.9595 178.458V243.248H23.5355ZM23.5355 309.039L23.5355 244.248H88.9595L88.9595 309.039H23.5355ZM23.5355 374.837L23.5355 310.039H88.9595V374.837H23.5355ZM23.5355 440.634L23.5355 375.837H88.9595L88.9595 440.634H23.5355ZM23.5355 506.425L23.5355 441.634H88.9595V506.425H23.5355ZM89.9595 506.425H155.387V441.634L89.9595 441.634V506.425ZM89.9595 440.634L155.387 440.634L155.387 375.837L89.9595 375.837L89.9595 440.634ZM89.9595 374.837L155.387 374.837V310.039L89.9595 310.039V374.837ZM89.9595 309.039L155.387 309.039L155.387 244.248L89.9595 244.248L89.9595 309.039ZM89.9595 243.248L155.387 243.248V178.458H89.9595V243.248ZM89.9595 177.458H155.387V112.668H89.9595V177.458ZM89.9595 111.668H155.387L155.387 46.8699H89.9595L89.9595 111.668ZM89.9595 45.8699H155.387V-18.9204L89.9595 -18.9204V45.8699ZM156.387 45.8699V-18.9204L221.817 -18.9204V45.8699L156.387 45.8699ZM156.387 111.668L156.387 46.8699L221.817 46.8699V111.668L156.387 111.668ZM156.387 177.458V112.668L221.817 112.668L221.817 177.458L156.387 177.458ZM156.387 243.248V178.458L221.817 178.458V243.248H156.387ZM156.387 309.039L156.387 244.248H221.817L221.817 309.039H156.387ZM156.387 374.837V310.039H221.817V374.837H156.387ZM156.387 440.634L156.387 375.837H221.817V440.634H156.387ZM156.387 506.425V441.634H221.817V506.425H156.387ZM222.817 506.425H288.245V441.634H222.817V506.425ZM222.817 440.634H288.245V375.837H222.817V440.634ZM222.817 374.837H288.245V310.039H222.817V374.837ZM222.817 309.039H288.245V244.248H222.817L222.817 309.039ZM222.817 243.248H288.245L288.245 178.458H222.817V243.248ZM222.817 177.458H288.245L288.245 112.668H222.817L222.817 177.458ZM222.817 111.668H288.245V46.8699L222.817 46.8699V111.668ZM222.817 45.8699L288.245 45.8699V-18.9204L222.817 -18.9204V45.8699ZM289.245 45.8699V-18.9204L354.669 -18.9204V45.8699L289.245 45.8699ZM289.245 111.668V46.8699L354.669 46.8699V111.668H289.245ZM289.245 177.458L289.245 112.668H354.669L354.669 177.458H289.245ZM289.245 243.248L289.245 178.458H354.669L354.669 243.248H289.245ZM289.245 309.039V244.248H354.669V309.039H289.245ZM289.245 374.837V310.039H354.669V374.837H289.245ZM289.245 440.634V375.837H354.669V440.634H289.245ZM289.245 506.425V441.634H354.669V506.425L289.245 506.425ZM355.669 506.425H421.097V441.634H355.669V506.425ZM355.669 440.634H421.097V375.837H355.669V440.634ZM355.669 374.837H421.097V310.039H355.669V374.837ZM355.669 309.039H421.097L421.097 244.248H355.669V309.039ZM355.669 243.248H421.097L421.097 178.458L355.669 178.458L355.669 243.248ZM355.669 177.458L421.097 177.458L421.097 112.668L355.669 112.668L355.669 177.458ZM355.669 111.668L421.097 111.668V46.8699H355.669V111.668ZM355.669 45.8699H421.097V-18.9204L355.669 -18.9204V45.8699ZM422.097 45.8699V-18.9204L487.523 -18.9204V45.8699L422.097 45.8699ZM422.097 506.425H487.523V441.634L422.097 441.634V506.425ZM422.097 440.634L487.523 440.634V375.837L422.097 375.837V440.634ZM422.097 374.837L487.523 374.837L487.523 310.039L422.097 310.039V374.837ZM422.097 309.039L487.523 309.039V244.248L422.097 244.248L422.097 309.039ZM422.097 243.248L487.523 243.248L487.523 178.458H422.097L422.097 243.248ZM422.097 177.458H487.523V112.668H422.097L422.097 177.458ZM422.097 111.668H487.523V46.8699L422.097 46.8699V111.668Z" clip-rule="evenodd" fill-rule="evenodd"></path>
<rect fill="url(#paint1_linear_7076_3607)" rx="15.2812" height="161.544" width="147.572" y="128.608" x="179"></rect>
<rect fill="url(#paint2_linear_7076_3607)" rx="15.2812" height="64.2724" width="147.367" y="301.807" x="179"></rect>
<rect fill="url(#paint3_linear_7076_3607)" rx="15.2812" height="238.386" width="223.978" y="128.608" x="340.545"></rect>
<rect fill="#6379E6" rx="9.1649" height="18.3298" width="52.6981" y="216.17" x="364.542"></rect>
<path fill="white" d="M378.262 226.514H377.681C377.662 226.652 377.629 226.781 377.583 226.9C377.537 227.017 377.475 227.119 377.398 227.205C377.32 227.293 377.225 227.361 377.112 227.409C377.001 227.457 376.869 227.482 376.716 227.482C376.575 227.482 376.453 227.46 376.348 227.416C376.243 227.369 376.152 227.307 376.075 227.227C375.997 227.149 375.933 227.059 375.883 226.957C375.833 226.854 375.792 226.744 375.76 226.627C375.729 226.511 375.706 226.394 375.691 226.275C375.679 226.153 375.672 226.036 375.672 225.923V225.278C375.672 225.165 375.679 225.049 375.691 224.929C375.706 224.808 375.729 224.69 375.76 224.574C375.792 224.459 375.833 224.35 375.883 224.247C375.935 224.145 376 224.055 376.078 223.977C376.153 223.9 376.243 223.839 376.348 223.795C376.455 223.749 376.578 223.726 376.716 223.726C376.869 223.726 377.001 223.752 377.112 223.804C377.225 223.855 377.32 223.925 377.398 224.015C377.475 224.105 377.537 224.21 377.583 224.329C377.629 224.449 377.662 224.577 377.681 224.716H378.262C378.237 224.498 378.185 224.299 378.105 224.119C378.027 223.938 377.924 223.783 377.794 223.653C377.664 223.526 377.509 223.427 377.329 223.358C377.149 223.287 376.944 223.251 376.716 223.251C376.525 223.251 376.353 223.278 376.2 223.333C376.047 223.385 375.911 223.459 375.792 223.553C375.67 223.647 375.566 223.759 375.477 223.889C375.392 224.017 375.32 224.156 375.264 224.307C375.205 224.458 375.161 224.616 375.132 224.782C375.105 224.947 375.09 225.115 375.088 225.285V225.923C375.09 226.092 375.105 226.26 375.132 226.426C375.161 226.591 375.205 226.749 375.264 226.9C375.32 227.051 375.392 227.19 375.477 227.318C375.566 227.446 375.67 227.557 375.792 227.651C375.911 227.746 376.047 227.82 376.2 227.874C376.355 227.927 376.527 227.953 376.716 227.953C376.936 227.953 377.135 227.918 377.313 227.849C377.493 227.778 377.649 227.679 377.781 227.551C377.911 227.425 378.017 227.274 378.099 227.098C378.18 226.92 378.235 226.725 378.262 226.514ZM379.194 226.158V226.228C379.194 226.473 379.229 226.7 379.301 226.91C379.372 227.119 379.475 227.301 379.609 227.456C379.741 227.611 379.902 227.733 380.093 227.821C380.286 227.909 380.502 227.953 380.743 227.953C380.982 227.953 381.197 227.909 381.388 227.821C381.578 227.733 381.741 227.611 381.875 227.456C382.007 227.301 382.108 227.119 382.18 226.91C382.251 226.7 382.287 226.473 382.287 226.228V226.158C382.287 225.913 382.251 225.686 382.18 225.476C382.108 225.265 382.007 225.081 381.875 224.926C381.741 224.771 381.577 224.65 381.385 224.562C381.194 224.472 380.978 224.427 380.737 224.427C380.498 224.427 380.283 224.472 380.093 224.562C379.902 224.65 379.741 224.771 379.609 224.926C379.475 225.081 379.372 225.265 379.301 225.476C379.229 225.686 379.194 225.913 379.194 226.158ZM379.775 226.228V226.158C379.775 225.993 379.795 225.835 379.835 225.684C379.875 225.531 379.936 225.397 380.017 225.281C380.097 225.166 380.196 225.075 380.316 225.008C380.435 224.939 380.576 224.904 380.737 224.904C380.898 224.904 381.039 224.939 381.158 225.008C381.28 225.075 381.381 225.166 381.463 225.281C381.543 225.397 381.602 225.531 381.642 225.684C381.684 225.835 381.705 225.993 381.705 226.158V226.228C381.705 226.395 381.685 226.555 381.645 226.708C381.606 226.859 381.546 226.992 381.466 227.108C381.385 227.223 381.283 227.314 381.161 227.381C381.042 227.448 380.903 227.482 380.743 227.482C380.582 227.482 380.441 227.448 380.319 227.381C380.198 227.314 380.097 227.223 380.017 227.108C379.936 226.992 379.875 226.859 379.835 226.708C379.795 226.555 379.775 226.395 379.775 226.228ZM385.657 227.89H386.185V224.489H385.601V226.928C385.569 227.002 385.529 227.07 385.481 227.133C385.435 227.193 385.381 227.246 385.318 227.29C385.242 227.344 385.153 227.387 385.051 227.419C384.948 227.448 384.832 227.463 384.702 227.463C384.591 227.463 384.492 227.448 384.406 227.419C384.322 227.389 384.251 227.338 384.193 227.265C384.134 227.193 384.09 227.097 384.061 226.976C384.031 226.854 384.017 226.701 384.017 226.517V224.489H383.435V226.51C383.435 226.764 383.462 226.982 383.517 227.164C383.573 227.344 383.653 227.493 383.756 227.61C383.858 227.728 383.982 227.815 384.127 227.871C384.271 227.926 384.432 227.953 384.611 227.953C384.833 227.953 385.029 227.907 385.198 227.815C385.368 227.72 385.509 227.589 385.623 227.422L385.657 227.89ZM387.475 227.89H388.057V225.451C388.096 225.378 388.143 225.311 388.195 225.25C388.249 225.189 388.308 225.136 388.371 225.09C388.448 225.037 388.533 224.997 388.626 224.967C388.718 224.936 388.817 224.92 388.924 224.92C389.048 224.92 389.157 224.935 389.251 224.964C389.347 224.993 389.429 225.041 389.496 225.105C389.561 225.17 389.61 225.255 389.644 225.36C389.677 225.465 389.694 225.593 389.694 225.743V227.89H390.276V225.731C390.276 225.505 390.247 225.31 390.191 225.146C390.136 224.981 390.058 224.845 389.955 224.738C389.852 224.631 389.728 224.552 389.581 224.502C389.436 224.452 389.275 224.427 389.097 224.427C388.965 224.429 388.839 224.449 388.72 224.486C388.602 224.522 388.494 224.573 388.393 224.64C388.326 224.684 388.262 224.737 388.201 224.797C388.143 224.856 388.088 224.921 388.038 224.992L387.997 224.489H387.475V227.89ZM392.911 223.666H392.326V224.489H391.434V224.939H392.326V226.787C392.326 226.996 392.353 227.176 392.408 227.324C392.464 227.471 392.541 227.591 392.637 227.683C392.734 227.777 392.847 227.846 392.977 227.89C393.109 227.932 393.25 227.953 393.401 227.953C393.491 227.953 393.581 227.949 393.671 227.94C393.764 227.932 393.85 227.919 393.932 227.903C394.014 227.888 394.089 227.87 394.158 227.849C394.228 227.826 394.286 227.8 394.335 227.771L394.253 227.359C394.217 227.367 394.171 227.378 394.114 227.39C394.06 227.401 394.001 227.411 393.938 227.422C393.874 227.432 393.808 227.442 393.74 227.45C393.673 227.456 393.608 227.46 393.546 227.46C393.46 227.46 393.378 227.449 393.3 227.428C393.225 227.407 393.158 227.371 393.099 227.318C393.041 227.268 392.995 227.2 392.961 227.114C392.928 227.028 392.911 226.919 392.911 226.787V224.939H394.206V224.489H392.911V223.666ZM397.095 227.953C397.426 227.953 397.704 227.887 397.928 227.755C398.155 227.621 398.324 227.468 398.437 227.296L398.082 227.02C397.975 227.158 397.841 227.269 397.68 227.353C397.519 227.437 397.334 227.478 397.127 227.478C396.97 227.478 396.826 227.449 396.696 227.39C396.566 227.332 396.455 227.251 396.363 227.148C396.273 227.052 396.202 226.941 396.149 226.815C396.099 226.69 396.067 226.544 396.052 226.378V226.356H398.481V226.096C398.481 225.859 398.451 225.639 398.39 225.435C398.332 225.232 398.242 225.055 398.12 224.904C397.998 224.756 397.846 224.639 397.661 224.555C397.479 224.47 397.265 224.427 397.02 224.427C396.825 224.427 396.634 224.466 396.448 224.546C396.264 224.626 396.099 224.74 395.955 224.889C395.808 225.039 395.69 225.224 395.602 225.442C395.514 225.658 395.47 225.903 395.47 226.177V226.309C395.47 226.546 395.51 226.765 395.59 226.966C395.67 227.167 395.781 227.341 395.923 227.488C396.066 227.635 396.236 227.749 396.435 227.83C396.637 227.912 396.857 227.953 397.095 227.953ZM397.02 224.904C397.169 224.904 397.297 224.932 397.403 224.986C397.512 225.041 397.602 225.112 397.674 225.2C397.745 225.288 397.8 225.393 397.84 225.514C397.88 225.633 397.9 225.746 397.9 225.85V225.879H396.071C396.094 225.721 396.134 225.583 396.19 225.464C396.249 225.342 396.32 225.24 396.404 225.156C396.488 225.074 396.582 225.012 396.687 224.97C396.792 224.926 396.903 224.904 397.02 224.904ZM401.88 224.427C401.633 224.427 401.412 224.481 401.217 224.59C401.024 224.697 400.859 224.844 400.721 225.03L400.717 224.945L400.692 224.489H400.139V227.89H400.724V225.709C400.761 225.604 400.809 225.51 400.865 225.426C400.924 225.34 400.992 225.268 401.069 225.209C401.155 225.142 401.256 225.092 401.371 225.058C401.486 225.023 401.615 225.005 401.758 225.005C401.869 225.005 401.975 225.011 402.075 225.024C402.178 225.034 402.286 225.052 402.399 225.077L402.478 224.508C402.419 224.483 402.331 224.463 402.214 224.449C402.098 224.434 401.987 224.427 401.88 224.427ZM405.971 226.988C405.971 227.043 405.96 227.094 405.939 227.142C405.918 227.19 405.888 227.234 405.848 227.274C405.783 227.339 405.693 227.39 405.578 227.428C405.463 227.464 405.327 227.482 405.172 227.482C405.074 227.482 404.974 227.471 404.874 227.45C404.773 227.429 404.682 227.394 404.6 227.343C404.517 227.293 404.446 227.227 404.39 227.145C404.335 227.064 404.304 226.963 404.296 226.844H403.714C403.714 226.988 403.747 227.127 403.812 227.262C403.879 227.396 403.975 227.513 404.101 227.614C404.224 227.716 404.376 227.799 404.556 227.862C404.737 227.923 404.942 227.953 405.172 227.953C405.374 227.953 405.559 227.929 405.729 227.881C405.898 227.833 406.044 227.764 406.166 227.676C406.287 227.588 406.381 227.483 406.448 227.359C406.518 227.235 406.552 227.098 406.552 226.947C406.552 226.807 406.522 226.683 406.461 226.576C406.402 226.47 406.316 226.375 406.203 226.294C406.09 226.214 405.951 226.146 405.785 226.089C405.62 226.031 405.432 225.979 405.223 225.935C405.063 225.904 404.931 225.871 404.827 225.838C404.724 225.804 404.642 225.767 404.582 225.725C404.519 225.683 404.475 225.636 404.45 225.583C404.424 225.531 404.412 225.471 404.412 225.404C404.412 225.339 404.428 225.276 404.459 225.215C404.49 225.155 404.538 225.101 404.6 225.055C404.661 225.009 404.738 224.972 404.83 224.945C404.924 224.918 405.033 224.904 405.157 224.904C405.276 224.904 405.383 224.921 405.477 224.955C405.574 224.988 405.655 225.032 405.722 225.087C405.789 225.141 405.842 225.204 405.88 225.275C405.917 225.344 405.936 225.416 405.936 225.489H406.518C406.518 225.34 406.485 225.202 406.42 225.074C406.357 224.944 406.267 224.831 406.15 224.735C406.033 224.638 405.89 224.563 405.722 224.508C405.555 224.454 405.366 224.427 405.157 224.427C404.962 224.427 404.783 224.453 404.619 224.505C404.458 224.558 404.319 224.629 404.201 224.719C404.084 224.809 403.993 224.915 403.928 225.036C403.863 225.156 403.83 225.285 403.83 225.423C403.83 225.563 403.862 225.687 403.925 225.794C403.988 225.899 404.077 225.99 404.192 226.067C404.305 226.147 404.441 226.215 404.6 226.272C404.762 226.328 404.94 226.376 405.135 226.416C405.294 226.448 405.427 226.483 405.534 226.523C405.641 226.561 405.727 226.603 405.792 226.649C405.857 226.695 405.903 226.746 405.93 226.803C405.957 226.857 405.971 226.919 405.971 226.988Z"></path>
<rect fill="#6379E6" rx="9.1649" height="18.3298" width="42.3876" y="216.17" x="429.268"></rect>
<path fill="white" d="M441.89 227.29L441.88 225.611H440.397V226.102H441.327L441.321 227.13C441.272 227.199 441.213 227.255 441.141 227.299C441.07 227.341 440.994 227.375 440.912 227.4C440.83 227.425 440.745 227.442 440.657 227.45C440.572 227.459 440.489 227.462 440.409 227.46C440.271 227.457 440.147 227.433 440.038 227.387C439.929 227.339 439.834 227.275 439.752 227.196C439.668 227.116 439.597 227.024 439.539 226.919C439.48 226.814 439.432 226.703 439.394 226.586C439.356 226.468 439.328 226.349 439.309 226.228C439.292 226.104 439.283 225.984 439.281 225.869V225.332C439.281 225.219 439.288 225.101 439.303 224.98C439.318 224.858 439.342 224.739 439.375 224.621C439.409 224.504 439.452 224.393 439.504 224.288C439.556 224.181 439.622 224.088 439.702 224.009C439.782 223.929 439.875 223.866 439.982 223.82C440.089 223.772 440.211 223.748 440.349 223.748C440.494 223.748 440.621 223.771 440.73 223.817C440.839 223.861 440.933 223.923 441.013 224.002C441.09 224.082 441.153 224.178 441.201 224.291C441.249 224.402 441.285 224.524 441.308 224.656H441.883C441.864 224.442 441.814 224.25 441.732 224.078C441.651 223.904 441.543 223.755 441.409 223.631C441.275 223.51 441.117 223.417 440.937 223.352C440.757 223.285 440.56 223.251 440.346 223.251C440.154 223.251 439.98 223.279 439.825 223.336C439.67 223.393 439.531 223.469 439.41 223.565C439.286 223.664 439.18 223.78 439.092 223.914C439.004 224.046 438.931 224.19 438.872 224.345C438.814 224.5 438.77 224.662 438.74 224.832C438.713 225 438.698 225.168 438.696 225.338V225.869C438.698 226.041 438.715 226.212 438.747 226.382C438.78 226.549 438.829 226.709 438.894 226.862C438.957 227.017 439.036 227.161 439.13 227.293C439.224 227.425 439.334 227.539 439.46 227.636C439.586 227.734 439.727 227.812 439.884 227.868C440.044 227.923 440.217 227.951 440.406 227.953C440.593 227.955 440.771 227.934 440.94 227.89C441.11 227.848 441.268 227.783 441.415 227.695C441.501 227.645 441.584 227.586 441.663 227.519C441.743 227.45 441.818 227.374 441.89 227.29ZM445.222 227.89H445.829V227.84C445.791 227.746 445.762 227.636 445.741 227.51C445.72 227.382 445.71 227.262 445.71 227.148V225.567C445.71 225.377 445.675 225.21 445.606 225.068C445.537 224.925 445.442 224.806 445.323 224.709C445.201 224.615 445.058 224.545 444.892 224.499C444.727 224.451 444.548 224.427 444.355 224.427C444.143 224.427 443.954 224.456 443.786 224.515C443.621 224.573 443.48 224.65 443.365 224.744C443.248 224.84 443.158 224.948 443.095 225.068C443.034 225.187 443.002 225.309 443 225.432H443.585C443.585 225.361 443.602 225.293 443.635 225.228C443.671 225.161 443.72 225.103 443.783 225.055C443.846 225.007 443.922 224.968 444.012 224.939C444.105 224.91 444.208 224.895 444.324 224.895C444.447 224.895 444.558 224.911 444.657 224.942C444.757 224.973 444.842 225.017 444.911 225.074C444.98 225.133 445.034 225.203 445.072 225.285C445.109 225.366 445.128 225.459 445.128 225.561V225.828H444.493C444.256 225.828 444.042 225.851 443.849 225.898C443.658 225.944 443.495 226.013 443.359 226.105C443.222 226.199 443.117 226.317 443.041 226.457C442.968 226.597 442.931 226.761 442.931 226.947C442.931 227.09 442.958 227.223 443.013 227.346C443.07 227.468 443.149 227.573 443.252 227.661C443.352 227.751 443.475 227.822 443.62 227.874C443.766 227.927 443.93 227.953 444.11 227.953C444.221 227.953 444.326 227.941 444.424 227.918C444.523 227.895 444.616 227.864 444.704 227.824C444.79 227.784 444.868 227.738 444.94 227.686C445.013 227.633 445.079 227.578 445.138 227.519C445.144 227.591 445.153 227.66 445.166 227.727C445.181 227.792 445.199 227.846 445.222 227.89ZM444.195 227.447C444.082 227.447 443.982 227.432 443.896 227.403C443.81 227.374 443.739 227.333 443.682 227.28C443.626 227.23 443.583 227.169 443.554 227.098C443.526 227.027 443.513 226.949 443.513 226.866C443.513 226.778 443.528 226.699 443.56 226.63C443.593 226.561 443.642 226.501 443.704 226.451C443.792 226.379 443.911 226.327 444.06 226.294C444.21 226.258 444.386 226.24 444.588 226.24H445.128V226.928C445.095 226.995 445.049 227.06 444.99 227.123C444.931 227.184 444.862 227.238 444.782 227.287C444.701 227.335 444.611 227.374 444.512 227.403C444.414 227.432 444.308 227.447 444.195 227.447ZM449.288 227.89H449.816V224.489H449.231V226.928C449.2 227.002 449.16 227.07 449.112 227.133C449.066 227.193 449.011 227.246 448.948 227.29C448.873 227.344 448.784 227.387 448.681 227.419C448.578 227.448 448.462 227.463 448.332 227.463C448.221 227.463 448.123 227.448 448.037 227.419C447.953 227.389 447.882 227.338 447.823 227.265C447.764 227.193 447.72 227.097 447.691 226.976C447.662 226.854 447.647 226.701 447.647 226.517V224.489H447.066V226.51C447.066 226.764 447.093 226.982 447.147 227.164C447.204 227.344 447.284 227.493 447.386 227.61C447.489 227.728 447.612 227.815 447.757 227.871C447.902 227.926 448.063 227.953 448.241 227.953C448.463 227.953 448.659 227.907 448.829 227.815C448.999 227.72 449.14 227.589 449.253 227.422L449.288 227.89ZM450.999 226.162V226.228C450.999 226.471 451.03 226.698 451.093 226.91C451.156 227.119 451.246 227.301 451.363 227.456C451.479 227.611 451.62 227.733 451.788 227.821C451.955 227.909 452.143 227.953 452.35 227.953C452.474 227.953 452.589 227.939 452.696 227.912C452.803 227.887 452.9 227.85 452.988 227.802C453.045 227.771 453.097 227.734 453.145 227.692C453.196 227.65 453.243 227.604 453.287 227.554V227.846C453.287 227.993 453.266 228.123 453.224 228.236C453.182 228.349 453.122 228.443 453.045 228.519C452.965 228.596 452.87 228.655 452.759 228.695C452.648 228.735 452.523 228.754 452.385 228.754C452.307 228.754 452.23 228.746 452.152 228.729C452.075 228.715 451.997 228.689 451.92 228.654C451.842 228.618 451.766 228.57 451.69 228.509C451.615 228.451 451.542 228.378 451.47 228.292L451.169 228.641C451.246 228.752 451.338 228.846 451.445 228.921C451.554 228.996 451.667 229.056 451.785 229.1C451.9 229.146 452.014 229.179 452.127 229.198C452.24 229.219 452.341 229.229 452.429 229.229C452.643 229.229 452.837 229.198 453.013 229.135C453.189 229.072 453.341 228.98 453.469 228.858C453.595 228.737 453.692 228.589 453.761 228.415C453.833 228.241 453.868 228.042 453.868 227.818V224.489H453.34L453.312 224.86C453.272 224.81 453.229 224.764 453.183 224.722C453.139 224.68 453.092 224.643 453.042 224.612C452.95 224.551 452.846 224.505 452.731 224.474C452.617 224.442 452.493 224.427 452.357 224.427C452.145 224.427 451.955 224.47 451.788 224.555C451.62 224.641 451.478 224.761 451.36 224.914C451.243 225.067 451.153 225.25 451.09 225.464C451.029 225.675 450.999 225.908 450.999 226.162ZM451.58 226.228V226.162C451.58 225.996 451.597 225.839 451.631 225.69C451.666 225.539 451.722 225.406 451.797 225.291C451.87 225.178 451.965 225.088 452.08 225.021C452.197 224.954 452.338 224.92 452.501 224.92C452.598 224.92 452.686 224.933 452.765 224.958C452.845 224.981 452.917 225.013 452.982 225.055C453.047 225.099 453.105 225.151 453.155 225.209C453.205 225.268 453.249 225.333 453.287 225.404V226.963C453.249 227.036 453.205 227.103 453.155 227.164C453.105 227.225 453.048 227.277 452.985 227.321C452.92 227.365 452.847 227.4 452.765 227.425C452.686 227.448 452.595 227.46 452.495 227.46C452.334 227.46 452.195 227.427 452.08 227.362C451.965 227.295 451.87 227.205 451.797 227.092C451.722 226.979 451.666 226.848 451.631 226.699C451.597 226.55 451.58 226.393 451.58 226.228ZM456.667 227.953C456.998 227.953 457.276 227.887 457.5 227.755C457.726 227.621 457.896 227.468 458.009 227.296L457.654 227.02C457.547 227.158 457.413 227.269 457.252 227.353C457.09 227.437 456.906 227.478 456.698 227.478C456.541 227.478 456.398 227.449 456.268 227.39C456.138 227.332 456.027 227.251 455.935 227.148C455.845 227.052 455.773 226.941 455.721 226.815C455.671 226.69 455.638 226.544 455.623 226.378V226.356H458.053V226.096C458.053 225.859 458.023 225.639 457.962 225.435C457.903 225.232 457.813 225.055 457.692 224.904C457.57 224.756 457.417 224.639 457.233 224.555C457.05 224.47 456.837 224.427 456.592 224.427C456.397 224.427 456.206 224.466 456.02 224.546C455.835 224.626 455.671 224.74 455.526 224.889C455.379 225.039 455.262 225.224 455.174 225.442C455.086 225.658 455.042 225.903 455.042 226.177V226.309C455.042 226.546 455.082 226.765 455.161 226.966C455.241 227.167 455.352 227.341 455.495 227.488C455.637 227.635 455.808 227.749 456.007 227.83C456.208 227.912 456.428 227.953 456.667 227.953ZM456.592 224.904C456.74 224.904 456.868 224.932 456.975 224.986C457.084 225.041 457.174 225.112 457.245 225.2C457.316 225.288 457.372 225.393 457.412 225.514C457.452 225.633 457.472 225.746 457.472 225.85V225.879H455.642C455.665 225.721 455.705 225.583 455.762 225.464C455.82 225.342 455.892 225.24 455.976 225.156C456.059 225.074 456.154 225.012 456.258 224.97C456.363 224.926 456.474 224.904 456.592 224.904ZM461.483 226.988C461.483 227.043 461.473 227.094 461.452 227.142C461.431 227.19 461.401 227.234 461.361 227.274C461.296 227.339 461.206 227.39 461.09 227.428C460.975 227.464 460.84 227.482 460.685 227.482C460.587 227.482 460.487 227.471 460.386 227.45C460.286 227.429 460.195 227.394 460.113 227.343C460.029 227.293 459.959 227.227 459.902 227.145C459.848 227.064 459.817 226.963 459.808 226.844H459.227C459.227 226.988 459.259 227.127 459.324 227.262C459.391 227.396 459.488 227.513 459.613 227.614C459.737 227.716 459.889 227.799 460.069 227.862C460.249 227.923 460.455 227.953 460.685 227.953C460.886 227.953 461.072 227.929 461.241 227.881C461.411 227.833 461.557 227.764 461.678 227.676C461.8 227.588 461.894 227.483 461.961 227.359C462.03 227.235 462.065 227.098 462.065 226.947C462.065 226.807 462.034 226.683 461.974 226.576C461.915 226.47 461.829 226.375 461.716 226.294C461.603 226.214 461.463 226.146 461.298 226.089C461.132 226.031 460.945 225.979 460.735 225.935C460.576 225.904 460.444 225.871 460.339 225.838C460.237 225.804 460.155 225.767 460.094 225.725C460.031 225.683 459.987 225.636 459.962 225.583C459.937 225.531 459.924 225.471 459.924 225.404C459.924 225.339 459.94 225.276 459.972 225.215C460.003 225.155 460.05 225.101 460.113 225.055C460.174 225.009 460.25 224.972 460.342 224.945C460.437 224.918 460.546 224.904 460.669 224.904C460.789 224.904 460.896 224.921 460.99 224.955C461.086 224.988 461.168 225.032 461.235 225.087C461.302 225.141 461.354 225.204 461.392 225.275C461.43 225.344 461.449 225.416 461.449 225.489H462.03C462.03 225.34 461.998 225.202 461.933 225.074C461.87 224.944 461.78 224.831 461.663 224.735C461.545 224.638 461.403 224.563 461.235 224.508C461.067 224.454 460.879 224.427 460.669 224.427C460.474 224.427 460.295 224.453 460.132 224.505C459.971 224.558 459.831 224.629 459.714 224.719C459.597 224.809 459.505 224.915 459.44 225.036C459.375 225.156 459.343 225.285 459.343 225.423C459.343 225.563 459.374 225.687 459.437 225.794C459.5 225.899 459.589 225.99 459.704 226.067C459.818 226.147 459.954 226.215 460.113 226.272C460.274 226.328 460.452 226.376 460.647 226.416C460.807 226.448 460.94 226.483 461.046 226.523C461.153 226.561 461.239 226.603 461.304 226.649C461.369 226.695 461.415 226.746 461.442 226.803C461.47 226.857 461.483 226.919 461.483 226.988Z"></path>
<rect fill="#6379E6" rx="9.1649" height="18.3298" width="56.7078" y="216.17" x="485.405"></rect>
<path fill="white" d="M496.977 227.89V223.314H496.427V225.281H494.551V223.314H494.004V227.89H494.551V225.775H496.427V227.89H496.977ZM498.258 224.489V224.995H499.414V227.387H498.258V227.89H501.105V227.387H499.996V224.489H498.258ZM499.339 223.597C499.339 223.691 499.367 223.77 499.424 223.833C499.482 223.895 499.57 223.927 499.688 223.927C499.803 223.927 499.89 223.895 499.949 223.833C500.007 223.77 500.037 223.691 500.037 223.597C500.037 223.544 500.028 223.496 500.011 223.452C499.995 223.408 499.97 223.372 499.936 223.342C499.909 223.315 499.874 223.294 499.832 223.279C499.79 223.263 499.742 223.254 499.688 223.254C499.633 223.254 499.584 223.263 499.54 223.279C499.498 223.294 499.464 223.315 499.436 223.342C499.403 223.374 499.378 223.411 499.361 223.455C499.346 223.499 499.339 223.547 499.339 223.597ZM504.485 226.988C504.485 227.043 504.475 227.094 504.454 227.142C504.433 227.19 504.403 227.234 504.363 227.274C504.298 227.339 504.208 227.39 504.092 227.428C503.977 227.464 503.842 227.482 503.687 227.482C503.589 227.482 503.489 227.471 503.388 227.45C503.288 227.429 503.197 227.394 503.115 227.343C503.031 227.293 502.961 227.227 502.904 227.145C502.85 227.064 502.818 226.963 502.81 226.844H502.229C502.229 226.988 502.261 227.127 502.326 227.262C502.393 227.396 502.49 227.513 502.615 227.614C502.739 227.716 502.891 227.799 503.071 227.862C503.251 227.923 503.457 227.953 503.687 227.953C503.888 227.953 504.074 227.929 504.243 227.881C504.413 227.833 504.559 227.764 504.68 227.676C504.802 227.588 504.896 227.483 504.963 227.359C505.032 227.235 505.067 227.098 505.067 226.947C505.067 226.807 505.036 226.683 504.976 226.576C504.917 226.47 504.831 226.375 504.718 226.294C504.605 226.214 504.465 226.146 504.3 226.089C504.134 226.031 503.947 225.979 503.737 225.935C503.578 225.904 503.446 225.871 503.341 225.838C503.239 225.804 503.157 225.767 503.096 225.725C503.033 225.683 502.989 225.636 502.964 225.583C502.939 225.531 502.926 225.471 502.926 225.404C502.926 225.339 502.942 225.276 502.974 225.215C503.005 225.155 503.052 225.101 503.115 225.055C503.176 225.009 503.252 224.972 503.344 224.945C503.439 224.918 503.548 224.904 503.671 224.904C503.791 224.904 503.898 224.921 503.992 224.955C504.088 224.988 504.17 225.032 504.237 225.087C504.304 225.141 504.356 225.204 504.394 225.275C504.432 225.344 504.451 225.416 504.451 225.489H505.032C505.032 225.34 505 225.202 504.935 225.074C504.872 224.944 504.782 224.831 504.664 224.735C504.547 224.638 504.405 224.563 504.237 224.508C504.069 224.454 503.881 224.427 503.671 224.427C503.476 224.427 503.297 224.453 503.134 224.505C502.972 224.558 502.833 224.629 502.716 224.719C502.598 224.809 502.507 224.915 502.442 225.036C502.377 225.156 502.345 225.285 502.345 225.423C502.345 225.563 502.376 225.687 502.439 225.794C502.502 225.899 502.591 225.99 502.706 226.067C502.82 226.147 502.956 226.215 503.115 226.272C503.276 226.328 503.454 226.376 503.649 226.416C503.809 226.448 503.942 226.483 504.048 226.523C504.155 226.561 504.241 226.603 504.306 226.649C504.371 226.695 504.417 226.746 504.444 226.803C504.472 226.857 504.485 226.919 504.485 226.988ZM507.661 223.666H507.076V224.489H506.184V224.939H507.076V226.787C507.076 226.996 507.104 227.176 507.158 227.324C507.215 227.471 507.291 227.591 507.388 227.683C507.484 227.777 507.597 227.846 507.727 227.89C507.859 227.932 508.001 227.953 508.151 227.953C508.241 227.953 508.332 227.949 508.422 227.94C508.514 227.932 508.601 227.919 508.683 227.903C508.764 227.888 508.84 227.87 508.909 227.849C508.978 227.826 509.037 227.8 509.085 227.771L509.003 227.359C508.968 227.367 508.921 227.378 508.865 227.39C508.81 227.401 508.752 227.411 508.689 227.422C508.624 227.432 508.558 227.442 508.491 227.45C508.424 227.456 508.359 227.46 508.296 227.46C508.21 227.46 508.128 227.449 508.051 227.428C507.975 227.407 507.908 227.371 507.85 227.318C507.791 227.268 507.745 227.2 507.711 227.114C507.678 227.028 507.661 226.919 507.661 226.787V224.939H508.956V224.489H507.661V223.666ZM510.18 226.158V226.228C510.18 226.473 510.216 226.7 510.287 226.91C510.358 227.119 510.461 227.301 510.595 227.456C510.727 227.611 510.888 227.733 511.079 227.821C511.272 227.909 511.488 227.953 511.729 227.953C511.968 227.953 512.183 227.909 512.374 227.821C512.564 227.733 512.727 227.611 512.861 227.456C512.993 227.301 513.095 227.119 513.166 226.91C513.237 226.7 513.273 226.473 513.273 226.228V226.158C513.273 225.913 513.237 225.686 513.166 225.476C513.095 225.265 512.993 225.081 512.861 224.926C512.727 224.771 512.563 224.65 512.371 224.562C512.18 224.472 511.964 224.427 511.723 224.427C511.484 224.427 511.27 224.472 511.079 224.562C510.888 224.65 510.727 224.771 510.595 224.926C510.461 225.081 510.358 225.265 510.287 225.476C510.216 225.686 510.18 225.913 510.18 226.158ZM510.761 226.228V226.158C510.761 225.993 510.781 225.835 510.821 225.684C510.861 225.531 510.922 225.397 511.003 225.281C511.083 225.166 511.183 225.075 511.302 225.008C511.421 224.939 511.562 224.904 511.723 224.904C511.885 224.904 512.025 224.939 512.144 225.008C512.266 225.075 512.367 225.166 512.449 225.281C512.529 225.397 512.589 225.531 512.628 225.684C512.67 225.835 512.691 225.993 512.691 226.158V226.228C512.691 226.395 512.671 226.555 512.631 226.708C512.592 226.859 512.532 226.992 512.452 227.108C512.371 227.223 512.269 227.314 512.147 227.381C512.028 227.448 511.889 227.482 511.729 227.482C511.568 227.482 511.427 227.448 511.305 227.381C511.184 227.314 511.083 227.223 511.003 227.108C510.922 226.992 510.861 226.859 510.821 226.708C510.781 226.555 510.761 226.395 510.761 226.228ZM514.295 226.162V226.228C514.295 226.471 514.327 226.698 514.39 226.91C514.453 227.119 514.543 227.301 514.66 227.456C514.775 227.611 514.917 227.733 515.084 227.821C515.252 227.909 515.44 227.953 515.647 227.953C515.771 227.953 515.886 227.939 515.993 227.912C516.1 227.887 516.197 227.85 516.285 227.802C516.342 227.771 516.394 227.734 516.442 227.692C516.492 227.65 516.54 227.604 516.584 227.554V227.846C516.584 227.993 516.563 228.123 516.521 228.236C516.479 228.349 516.419 228.443 516.342 228.519C516.262 228.596 516.167 228.655 516.056 228.695C515.944 228.735 515.82 228.754 515.682 228.754C515.604 228.754 515.526 228.746 515.449 228.729C515.371 228.715 515.294 228.689 515.216 228.654C515.139 228.618 515.062 228.57 514.987 228.509C514.912 228.451 514.838 228.378 514.767 228.292L514.465 228.641C514.543 228.752 514.635 228.846 514.742 228.921C514.851 228.996 514.964 229.056 515.081 229.1C515.196 229.146 515.311 229.179 515.424 229.198C515.537 229.219 515.638 229.229 515.726 229.229C515.939 229.229 516.134 229.198 516.31 229.135C516.486 229.072 516.638 228.98 516.766 228.858C516.892 228.737 516.989 228.589 517.058 228.415C517.129 228.241 517.165 228.042 517.165 227.818V224.489H516.637L516.609 224.86C516.569 224.81 516.526 224.764 516.48 224.722C516.436 224.68 516.389 224.643 516.338 224.612C516.246 224.551 516.143 224.505 516.027 224.474C515.914 224.442 515.789 224.427 515.653 224.427C515.442 224.427 515.252 224.47 515.084 224.555C514.917 224.641 514.774 224.761 514.657 224.914C514.54 225.067 514.449 225.25 514.387 225.464C514.326 225.675 514.295 225.908 514.295 226.162ZM514.877 226.228V226.162C514.877 225.996 514.894 225.839 514.927 225.69C514.963 225.539 515.018 225.406 515.094 225.291C515.167 225.178 515.261 225.088 515.377 225.021C515.494 224.954 515.634 224.92 515.798 224.92C515.894 224.92 515.982 224.933 516.062 224.958C516.141 224.981 516.214 225.013 516.279 225.055C516.344 225.099 516.401 225.151 516.452 225.209C516.502 225.268 516.546 225.333 516.584 225.404V226.963C516.546 227.036 516.502 227.103 516.452 227.164C516.401 227.225 516.345 227.277 516.282 227.321C516.217 227.365 516.144 227.4 516.062 227.425C515.982 227.448 515.892 227.46 515.792 227.46C515.63 227.46 515.492 227.427 515.377 227.362C515.261 227.295 515.167 227.205 515.094 227.092C515.018 226.979 514.963 226.848 514.927 226.699C514.894 226.55 514.877 226.393 514.877 226.228ZM520.69 224.427C520.442 224.427 520.221 224.481 520.026 224.59C519.834 224.697 519.668 224.844 519.53 225.03L519.527 224.945L519.502 224.489H518.948V227.89H519.533V225.709C519.571 225.604 519.618 225.51 519.674 225.426C519.733 225.34 519.801 225.268 519.879 225.209C519.965 225.142 520.065 225.092 520.18 225.058C520.296 225.023 520.425 225.005 520.567 225.005C520.678 225.005 520.784 225.011 520.885 225.024C520.987 225.034 521.095 225.052 521.208 225.077L521.287 224.508C521.228 224.483 521.14 224.463 521.023 224.449C520.908 224.434 520.797 224.427 520.69 224.427ZM524.755 227.89H525.361V227.84C525.324 227.746 525.294 227.636 525.273 227.51C525.253 227.382 525.242 227.262 525.242 227.148V225.567C525.242 225.377 525.207 225.21 525.138 225.068C525.069 224.925 524.975 224.806 524.855 224.709C524.734 224.615 524.59 224.545 524.425 224.499C524.259 224.451 524.08 224.427 523.887 224.427C523.676 224.427 523.486 224.456 523.319 224.515C523.153 224.573 523.013 224.65 522.897 224.744C522.78 224.84 522.69 224.948 522.627 225.068C522.566 225.187 522.535 225.309 522.533 225.432H523.117C523.117 225.361 523.134 225.293 523.168 225.228C523.203 225.161 523.253 225.103 523.315 225.055C523.378 225.007 523.455 224.968 523.545 224.939C523.637 224.91 523.741 224.895 523.856 224.895C523.98 224.895 524.091 224.911 524.189 224.942C524.29 224.973 524.375 225.017 524.444 225.074C524.513 225.133 524.566 225.203 524.604 225.285C524.642 225.366 524.661 225.459 524.661 225.561V225.828H524.026C523.789 225.828 523.574 225.851 523.381 225.898C523.191 225.944 523.027 226.013 522.891 226.105C522.755 226.199 522.649 226.317 522.574 226.457C522.5 226.597 522.464 226.761 522.464 226.947C522.464 227.09 522.491 227.223 522.545 227.346C522.602 227.468 522.682 227.573 522.784 227.661C522.885 227.751 523.007 227.822 523.152 227.874C523.299 227.927 523.462 227.953 523.642 227.953C523.753 227.953 523.858 227.941 523.957 227.918C524.055 227.895 524.148 227.864 524.236 227.824C524.322 227.784 524.401 227.738 524.472 227.686C524.545 227.633 524.611 227.578 524.67 227.519C524.676 227.591 524.686 227.66 524.698 227.727C524.713 227.792 524.732 227.846 524.755 227.89ZM523.727 227.447C523.614 227.447 523.514 227.432 523.429 227.403C523.343 227.374 523.271 227.333 523.215 227.28C523.158 227.23 523.115 227.169 523.086 227.098C523.059 227.027 523.045 226.949 523.045 226.866C523.045 226.778 523.061 226.699 523.092 226.63C523.126 226.561 523.174 226.501 523.237 226.451C523.325 226.379 523.443 226.327 523.592 226.294C523.743 226.258 523.919 226.24 524.12 226.24H524.661V226.928C524.627 226.995 524.581 227.06 524.522 227.123C524.464 227.184 524.394 227.238 524.315 227.287C524.233 227.335 524.143 227.374 524.045 227.403C523.946 227.432 523.84 227.447 523.727 227.447ZM526.846 224.489H526.325V227.89H526.878V225.184C526.89 225.151 526.906 225.119 526.925 225.09C526.946 225.06 526.97 225.034 526.997 225.011C527.033 224.982 527.076 224.96 527.126 224.945C527.178 224.928 527.239 224.92 527.308 224.92C527.371 224.92 527.426 224.928 527.472 224.945C527.52 224.96 527.56 224.984 527.591 225.017C527.625 225.053 527.649 225.098 527.664 225.153C527.68 225.207 527.689 225.27 527.689 225.341V227.89H528.242V225.344C528.242 225.332 528.242 225.321 528.242 225.313C528.242 225.302 528.242 225.292 528.242 225.281C528.248 225.229 528.261 225.182 528.28 225.14C528.298 225.096 528.325 225.057 528.358 225.024C528.392 224.992 528.434 224.967 528.484 224.948C528.534 224.929 528.594 224.92 528.663 224.92C528.728 224.92 528.784 224.928 528.833 224.945C528.883 224.962 528.925 224.987 528.958 225.021C528.99 225.056 529.014 225.101 529.031 225.156C529.047 225.21 529.056 225.273 529.056 225.344V227.89H529.609V225.351C529.609 225.187 529.59 225.046 529.552 224.926C529.515 224.805 529.46 224.706 529.389 224.631C529.324 224.564 529.244 224.514 529.15 224.48C529.056 224.444 528.95 224.427 528.833 224.427C528.747 224.429 528.667 224.44 528.594 224.461C528.523 224.482 528.458 224.51 528.399 224.546C528.353 224.577 528.31 224.614 528.27 224.656C528.23 224.698 528.196 224.743 528.166 224.791C528.143 224.739 528.115 224.692 528.082 224.65C528.05 224.608 528.014 224.572 527.975 224.543C527.92 224.505 527.856 224.477 527.783 224.458C527.712 224.437 527.631 224.427 527.541 224.427C527.382 224.429 527.245 224.463 527.132 224.53C527.021 224.597 526.931 224.691 526.862 224.81L526.846 224.489ZM532.898 226.988C532.898 227.043 532.887 227.094 532.866 227.142C532.846 227.19 532.815 227.234 532.775 227.274C532.71 227.339 532.62 227.39 532.505 227.428C532.39 227.464 532.255 227.482 532.1 227.482C532.001 227.482 531.902 227.471 531.801 227.45C531.7 227.429 531.609 227.394 531.528 227.343C531.444 227.293 531.374 227.227 531.317 227.145C531.263 227.064 531.231 226.963 531.223 226.844H530.641C530.641 226.988 530.674 227.127 530.739 227.262C530.806 227.396 530.902 227.513 531.028 227.614C531.151 227.716 531.303 227.799 531.484 227.862C531.664 227.923 531.869 227.953 532.1 227.953C532.301 227.953 532.486 227.929 532.656 227.881C532.826 227.833 532.971 227.764 533.093 227.676C533.214 227.588 533.309 227.483 533.376 227.359C533.445 227.235 533.479 227.098 533.479 226.947C533.479 226.807 533.449 226.683 533.388 226.576C533.33 226.47 533.244 226.375 533.13 226.294C533.017 226.214 532.878 226.146 532.712 226.089C532.547 226.031 532.359 225.979 532.15 225.935C531.991 225.904 531.859 225.871 531.754 225.838C531.651 225.804 531.569 225.767 531.509 225.725C531.446 225.683 531.402 225.636 531.377 225.583C531.352 225.531 531.339 225.471 531.339 225.404C531.339 225.339 531.355 225.276 531.386 225.215C531.418 225.155 531.465 225.101 531.528 225.055C531.588 225.009 531.665 224.972 531.757 224.945C531.851 224.918 531.96 224.904 532.084 224.904C532.203 224.904 532.31 224.921 532.404 224.955C532.501 224.988 532.583 225.032 532.65 225.087C532.717 225.141 532.769 225.204 532.807 225.275C532.844 225.344 532.863 225.416 532.863 225.489H533.445C533.445 225.34 533.412 225.202 533.347 225.074C533.284 224.944 533.194 224.831 533.077 224.735C532.96 224.638 532.817 224.563 532.65 224.508C532.482 224.454 532.293 224.427 532.084 224.427C531.889 224.427 531.71 224.453 531.546 224.505C531.385 224.558 531.246 224.629 531.128 224.719C531.011 224.809 530.92 224.915 530.855 225.036C530.79 225.156 530.758 225.285 530.758 225.423C530.758 225.563 530.789 225.687 530.852 225.794C530.915 225.899 531.004 225.99 531.119 226.067C531.232 226.147 531.368 226.215 531.528 226.272C531.689 226.328 531.867 226.376 532.062 226.416C532.221 226.448 532.354 226.483 532.461 226.523C532.568 226.561 532.654 226.603 532.719 226.649C532.784 226.695 532.83 226.746 532.857 226.803C532.884 226.857 532.898 226.919 532.898 226.988Z"></path>
<rect fill="white" height="82.0817" width="26.4541" y="262.212" x="365.431"></rect>
<rect fill="#6379E6" height="24.4499" width="26.4541" y="319.842" x="365.431"></rect>
<rect fill="#6379E6" height="24.4499" width="26.4541" y="262.212" x="365.431"></rect>
<rect fill="url(#paint4_linear_7076_3607)" height="8.29549" width="26.4541" y="286.661" x="365.431"></rect>
<rect fill="url(#paint5_linear_7076_3607)" height="8.29549" width="26.4541" y="336.438" x="365.431"></rect>
<rect fill="white" height="82.0817" width="26.4541" y="262.212" x="403.023"></rect>
<rect fill="white" height="82.0817" width="26.4541" y="262.212" x="440.616"></rect>
<rect fill="white" height="82.0817" width="26.4541" y="262.212" x="478.209"></rect>
<rect fill="url(#paint6_linear_7076_3607)" height="22.2668" width="26.4541" y="262.212" x="403.023"></rect>
<rect fill="url(#paint7_linear_7076_3607)" height="22.2668" width="26.4541" y="262.212" x="478.209"></rect>
<rect fill="url(#paint8_linear_7076_3607)" height="10.4785" width="26.4541" y="334.252" x="478.209"></rect>
<rect fill="#6379E6" height="36.2382" width="26.4541" y="298.012" x="478.209"></rect>
<rect fill="#6379E6" height="33.182" width="26.4541" y="311.11" x="403.023"></rect>
<rect fill="#6379E6" transform="rotate(180 467.071 284.48)" height="22.2668" width="26.4541" y="284.48" x="467.071"></rect>
<rect fill="white" height="82.0817" width="26.4541" y="262.212" x="515.802"></rect>
<rect fill="#68D391" transform="rotate(180 467.071 344.291)" height="20.5204" width="26.4541" y="344.291" x="467.071"></rect>
<rect fill="#6379E6" height="10.4785" width="26.4541" y="334.252" x="515.802"></rect>
<rect fill="url(#paint9_linear_7076_3607)" height="11.3517" width="26.4541" y="298.012" x="515.802"></rect>
<rect fill="#6379E6" height="35.8016" width="26.4541" y="262.212" x="515.802"></rect>
<rect fill="url(#paint10_linear_7076_3607)" height="8.29549" width="26.4541" y="262.212" x="440.616"></rect>
<circle fill="#68D391" r="7.67525" cy="215.109" cx="254.157"></circle>
<circle stroke-width="0.918177" stroke="white" r="13.7949" cy="215.105" cx="254.159"></circle>
<circle stroke-width="0.918177" stroke="white" r="20.922" cy="215.111" cx="254.16"></circle>
<circle stroke-width="0.918177" stroke="white" r="27.5007" cy="215.106" cx="254.159"></circle>
<circle stroke-width="0.918177" stroke="white" r="34.6278" cy="215.107" cx="254.157"></circle>
<circle stroke-width="0.918177" stroke="white" r="41.7548" cy="215.107" cx="254.157"></circle>
<circle stroke-width="0.918177" stroke="white" r="49.43" cy="215.107" cx="254.159"></circle>
<circle stroke-width="0.918177" stroke="white" r="56.0088" cy="215.108" cx="254.158"></circle>
<circle stroke-width="0.918177" stroke="white" fill="#667EEA" r="1.98116" cy="180.636" cx="254.223"></circle>
<circle stroke-width="0.918177" stroke="white" fill="#68D391" r="1.98116" cy="220.289" cx="274.509"></circle>
<circle stroke-width="0.918177" stroke="white" fill="#667EEA" r="1.98116" cy="213.712" cx="212.008"></circle>
<circle stroke-width="0.918177" stroke="white" fill="#667EEA" r="1.98116" cy="226.323" cx="302.65"></circle>
<circle stroke-width="0.918177" stroke="white" fill="#667EEA" r="1.98116" cy="260.936" cx="274.243"></circle>
<rect fill="#68D391" rx="15.609" height="31.218" width="106.509" y="110" x="200.855"></rect>
<path fill="white" d="M223.631 120.204C224.379 120.204 225.037 120.357 225.603 120.663C226.17 120.969 226.606 121.405 226.912 121.972C227.229 122.527 227.388 123.167 227.388 123.892C227.388 124.606 227.223 125.235 226.895 125.779C226.578 126.323 226.124 126.748 225.535 127.054C224.957 127.348 224.289 127.496 223.53 127.496H221.116C221.059 127.496 221.031 127.524 221.031 127.581V131.915C221.031 131.971 221.008 132.022 220.963 132.068C220.929 132.102 220.884 132.119 220.827 132.119H218.838C218.782 132.119 218.731 132.102 218.685 132.068C218.651 132.022 218.634 131.971 218.634 131.915V120.408C218.634 120.351 218.651 120.306 218.685 120.272C218.731 120.227 218.782 120.204 218.838 120.204H223.631ZM223.275 125.575C223.796 125.575 224.215 125.428 224.532 125.133C224.85 124.827 225.008 124.431 225.008 123.943C225.008 123.445 224.85 123.042 224.532 122.737C224.215 122.431 223.796 122.278 223.275 122.278H221.116C221.059 122.278 221.031 122.306 221.031 122.363V125.49C221.031 125.547 221.059 125.575 221.116 125.575H223.275ZM235.898 132.119C235.784 132.119 235.705 132.068 235.66 131.966L233.535 127.258C233.512 127.212 233.478 127.19 233.433 127.19H231.852C231.796 127.19 231.767 127.218 231.767 127.275V131.915C231.767 131.971 231.745 132.022 231.699 132.068C231.665 132.102 231.62 132.119 231.563 132.119H229.575C229.518 132.119 229.467 132.102 229.422 132.068C229.388 132.022 229.371 131.971 229.371 131.915V120.425C229.371 120.368 229.388 120.323 229.422 120.289C229.467 120.244 229.518 120.221 229.575 120.221H234.436C235.161 120.221 235.796 120.368 236.339 120.663C236.895 120.958 237.32 121.377 237.614 121.921C237.92 122.465 238.073 123.093 238.073 123.807C238.073 124.578 237.881 125.241 237.495 125.796C237.11 126.34 236.572 126.725 235.881 126.952C235.824 126.974 235.807 127.014 235.83 127.071L238.141 131.881C238.164 131.926 238.175 131.96 238.175 131.983C238.175 132.073 238.113 132.119 237.988 132.119H235.898ZM231.852 122.278C231.796 122.278 231.767 122.306 231.767 122.363V125.269C231.767 125.326 231.796 125.354 231.852 125.354H234.079C234.555 125.354 234.94 125.212 235.235 124.929C235.541 124.646 235.694 124.278 235.694 123.824C235.694 123.371 235.541 123.003 235.235 122.72C234.94 122.425 234.555 122.278 234.079 122.278H231.852ZM248.581 122.074C248.581 122.13 248.559 122.181 248.513 122.227C248.479 122.261 248.434 122.278 248.377 122.278H242.803C242.746 122.278 242.718 122.306 242.718 122.363V124.997C242.718 125.054 242.746 125.082 242.803 125.082H246.457C246.514 125.082 246.559 125.105 246.593 125.15C246.638 125.184 246.661 125.229 246.661 125.286V126.935C246.661 126.991 246.638 127.042 246.593 127.088C246.559 127.122 246.514 127.139 246.457 127.139H242.803C242.746 127.139 242.718 127.167 242.718 127.224V129.977C242.718 130.034 242.746 130.062 242.803 130.062H248.377C248.434 130.062 248.479 130.085 248.513 130.13C248.559 130.164 248.581 130.209 248.581 130.266V131.915C248.581 131.971 248.559 132.022 248.513 132.068C248.479 132.102 248.434 132.119 248.377 132.119H240.525C240.468 132.119 240.417 132.102 240.372 132.068C240.338 132.022 240.321 131.971 240.321 131.915V120.425C240.321 120.368 240.338 120.323 240.372 120.289C240.417 120.244 240.468 120.221 240.525 120.221H248.377C248.434 120.221 248.479 120.244 248.513 120.289C248.559 120.323 248.581 120.368 248.581 120.425V122.074ZM254.018 132.119C253.904 132.119 253.831 132.062 253.797 131.949L250.295 120.459L250.278 120.391C250.278 120.278 250.341 120.221 250.465 120.221H252.607C252.732 120.221 252.811 120.278 252.845 120.391L255.105 128.685C255.117 128.719 255.134 128.736 255.156 128.736C255.179 128.736 255.196 128.719 255.207 128.685L257.434 120.391C257.468 120.278 257.547 120.221 257.672 120.221H259.763C259.831 120.221 259.882 120.244 259.915 120.289C259.949 120.334 259.955 120.391 259.932 120.459L256.38 131.949C256.346 132.062 256.273 132.119 256.159 132.119H254.018ZM262.143 132.119C262.087 132.119 262.036 132.102 261.99 132.068C261.956 132.022 261.939 131.971 261.939 131.915V120.425C261.939 120.368 261.956 120.323 261.99 120.289C262.036 120.244 262.087 120.221 262.143 120.221H264.132C264.189 120.221 264.234 120.244 264.268 120.289C264.313 120.323 264.336 120.368 264.336 120.425V131.915C264.336 131.971 264.313 132.022 264.268 132.068C264.234 132.102 264.189 132.119 264.132 132.119H262.143ZM275.174 122.074C275.174 122.13 275.152 122.181 275.106 122.227C275.072 122.261 275.027 122.278 274.97 122.278H269.396C269.339 122.278 269.311 122.306 269.311 122.363V124.997C269.311 125.054 269.339 125.082 269.396 125.082H273.05C273.107 125.082 273.152 125.105 273.186 125.15C273.231 125.184 273.254 125.229 273.254 125.286V126.935C273.254 126.991 273.231 127.042 273.186 127.088C273.152 127.122 273.107 127.139 273.05 127.139H269.396C269.339 127.139 269.311 127.167 269.311 127.224V129.977C269.311 130.034 269.339 130.062 269.396 130.062H274.97C275.027 130.062 275.072 130.085 275.106 130.13C275.152 130.164 275.174 130.209 275.174 130.266V131.915C275.174 131.971 275.152 132.022 275.106 132.068C275.072 132.102 275.027 132.119 274.97 132.119H267.118C267.061 132.119 267.01 132.102 266.965 132.068C266.931 132.022 266.914 131.971 266.914 131.915V120.425C266.914 120.368 266.931 120.323 266.965 120.289C267.01 120.244 267.061 120.221 267.118 120.221H274.97C275.027 120.221 275.072 120.244 275.106 120.289C275.152 120.323 275.174 120.368 275.174 120.425V122.074ZM280.084 132.119C279.959 132.119 279.88 132.062 279.846 131.949L276.837 120.442L276.82 120.374C276.82 120.272 276.883 120.221 277.007 120.221H279.115C279.228 120.221 279.302 120.278 279.336 120.391L280.951 127.309C280.962 127.354 280.979 127.377 281.002 127.377C281.024 127.377 281.041 127.354 281.053 127.309L282.616 120.408C282.65 120.283 282.724 120.221 282.837 120.221H284.894C285.018 120.221 285.098 120.278 285.132 120.391L286.831 127.309C286.843 127.343 286.86 127.365 286.882 127.377C286.905 127.377 286.922 127.354 286.933 127.309L288.497 120.408C288.531 120.283 288.605 120.221 288.718 120.221H290.724C290.882 120.221 290.945 120.295 290.911 120.442L288.123 131.949C288.089 132.062 288.01 132.119 287.885 132.119H285.863C285.749 132.119 285.676 132.062 285.642 131.949L283.908 124.589C283.897 124.544 283.88 124.521 283.857 124.521C283.834 124.521 283.817 124.544 283.806 124.589L282.191 131.932C282.169 132.056 282.095 132.119 281.97 132.119H280.084Z"></path>
<path fill="white" d="M308.567 318.01L303.754 315.5L303.987 320.923L308.567 318.01ZM304.299 317.723C296.481 318.361 286.646 320.689 277.356 324.998C268.067 329.306 259.29 335.611 253.635 344.225L254.421 344.741C259.95 336.319 268.563 330.112 277.751 325.851C286.938 321.59 296.665 319.289 304.376 318.66L304.299 317.723ZM253.635 344.225C252.087 346.584 251.247 348.522 251.008 350.075C250.766 351.646 251.137 352.868 252.056 353.679C252.949 354.465 254.272 354.784 255.771 354.774C257.281 354.764 259.038 354.422 260.879 353.811C264.56 352.589 268.651 350.264 271.887 347.215C275.119 344.17 277.545 340.355 277.784 336.15L276.845 336.096C276.625 339.972 274.378 343.576 271.242 346.531C268.111 349.482 264.14 351.738 260.583 352.919C258.804 353.51 257.148 353.825 255.765 353.834C254.371 353.843 253.322 353.541 252.678 352.973C252.061 352.429 251.73 351.564 251.937 350.218C252.147 348.856 252.906 347.05 254.421 344.741L253.635 344.225ZM277.784 336.15C277.903 334.05 277.485 332.234 276.544 330.738C275.603 329.243 274.163 328.104 272.298 327.321C268.588 325.762 263.151 325.588 256.373 326.813C242.798 329.267 223.588 337.383 201.378 351.892L201.892 352.679C224.047 338.207 243.137 330.161 256.54 327.738C263.252 326.525 268.473 326.733 271.934 328.188C273.656 328.911 274.929 329.936 275.748 331.239C276.567 332.54 276.956 334.155 276.845 336.096L277.784 336.15Z"></path>
<line stroke-width="0.87321" stroke="white" y2="244.952" x2="542.255" y1="244.952" x1="365.866"></line>
<line stroke-width="0.87321" stroke="white" y2="248.008" x2="366.303" y1="241.896" x1="366.303"></line>
<line stroke-width="0.87321" stroke="white" y2="248.008" x2="542.692" y1="241.896" x1="542.692"></line>
<path stroke-width="0.87321" stroke="white" fill="#68D391" d="M493.357 244.77C493.357 245.883 492.47 246.773 491.391 246.773C490.312 246.773 489.425 245.883 489.425 244.77C489.425 243.657 490.312 242.766 491.391 242.766C492.47 242.766 493.357 243.657 493.357 244.77Z"></path>
<path fill="white" d="M386.452 174.657L386.79 174.38L386.398 173.901L386.078 174.431L386.452 174.657ZM397.377 188.002L397.039 188.278L397.438 188.766L397.755 188.221L397.377 188.002ZM414.261 158.886L414.665 158.719L414.327 157.902L413.884 158.667L414.261 158.886ZM432.139 202.156L431.735 202.322L432.041 203.063L432.498 202.404L432.139 202.156ZM447.533 179.914L447.864 179.629L447.495 179.202L447.174 179.666L447.533 179.914ZM456.969 190.833L456.638 191.118L457.048 191.592L457.351 191.044L456.969 190.833ZM474.638 158.886L475.013 158.662L474.624 158.009L474.256 158.674L474.638 158.886ZM487.174 179.914L486.799 180.138L487.126 180.687L487.519 180.182L487.174 179.914ZM498.497 165.356L498.915 165.229L498.67 164.422L498.152 165.088L498.497 165.356ZM507.798 196.058L507.38 196.184L508.233 196.091L507.798 196.058ZM535.701 161.312L531.055 159.355L531.683 164.358L535.701 161.312ZM373.914 196.283L386.826 174.882L386.078 174.431L373.166 195.832L373.914 196.283ZM386.114 174.933L397.039 188.278L397.715 187.725L386.79 174.38L386.114 174.933ZM397.755 188.221L414.639 159.105L413.884 158.667L396.999 187.783L397.755 188.221ZM413.858 159.052L431.735 202.322L432.542 201.989L414.665 158.719L413.858 159.052ZM432.498 202.404L447.892 180.163L447.174 179.666L431.78 201.907L432.498 202.404ZM447.203 180.2L456.638 191.118L457.299 190.547L447.864 179.629L447.203 180.2ZM457.351 191.044L475.02 159.097L474.256 158.674L456.587 190.621L457.351 191.044ZM474.263 159.109L486.799 180.138L487.549 179.691L475.013 158.662L474.263 159.109ZM487.519 180.182L498.842 165.624L498.152 165.088L486.83 179.646L487.519 180.182ZM498.079 165.483L507.38 196.184L508.216 195.931L498.915 165.229L498.079 165.483ZM508.233 196.091C508.657 190.523 511.309 182.861 515.513 176.174C519.723 169.479 525.43 163.855 531.907 162.226L531.694 161.379C524.895 163.089 519.031 168.939 514.774 175.709C510.512 182.488 507.8 190.284 507.363 196.024L508.233 196.091Z"></path>
<circle stroke-width="0.87321" stroke="white" fill="#667EEA" r="1.82359" cy="195.921" cx="373.374"></circle>
<circle stroke-width="0.87321" stroke="white" fill="#667EEA" r="1.82359" cy="174.086" cx="386.315"></circle>
<circle stroke-width="0.87321" stroke="white" fill="#667EEA" r="1.82359" cy="187.838" cx="397.234"></circle>
<circle stroke-width="0.87321" stroke="white" fill="#667EEA" r="1.82359" cy="159.53" cx="414.218"></circle>
<circle stroke-width="0.87321" stroke="white" fill="#667EEA" r="1.82359" cy="201.992" cx="432.416"></circle>
<circle stroke-width="0.87321" stroke="white" fill="#667EEA" r="1.82359" cy="180.152" cx="448.187"></circle>
<circle stroke-width="0.87321" stroke="white" fill="#667EEA" r="1.82359" cy="191.074" cx="457.083"></circle>
<circle stroke-width="0.87321" stroke="white" fill="#667EEA" r="1.82359" cy="158.72" cx="475.28"></circle>
<circle stroke-width="0.87321" stroke="white" fill="#667EEA" r="1.82359" cy="179.749" cx="487.412"></circle>
<circle stroke-width="0.87321" stroke="white" fill="#667EEA" r="1.82359" cy="164.785" cx="498.737"></circle>
<circle stroke-width="0.87321" stroke="white" fill="#667EEA" r="1.82359" cy="194.708" cx="507.632"></circle>
<circle stroke-width="0.87321" stroke="white" fill="#667EEA" r="2.00364" cy="351.539" cx="201.961"></circle>
<rect fill="url(#paint11_linear_7076_3607)" rx="13.6592" height="114.347" width="90.5411" y="251.664" x="577.458"></rect>
<rect fill="url(#paint12_linear_7076_3607)" rx="13.6592" height="114.347" width="90.5411" y="128.734" x="577.458"></rect>
<path fill="white" d="M615.321 173.14C615.522 173.542 615.622 174.021 615.622 174.575C615.622 175.188 615.488 175.723 615.221 176.183C614.991 176.613 614.647 176.948 614.187 177.187C613.738 177.426 613.207 177.546 612.595 177.546C611.982 177.546 611.442 177.426 610.973 177.187C610.504 176.938 610.15 176.584 609.911 176.125C609.653 175.676 609.524 175.154 609.524 174.561C609.524 174.035 609.629 173.552 609.839 173.112C610.05 172.672 610.361 172.342 610.772 172.122C610.82 172.102 610.82 172.079 610.772 172.05C610.466 171.82 610.236 171.581 610.083 171.332C609.815 170.931 609.681 170.471 609.681 169.955C609.681 169.39 609.844 168.874 610.169 168.405C610.409 168.041 610.739 167.754 611.16 167.544C611.59 167.333 612.068 167.228 612.595 167.228C613.13 167.228 613.604 167.333 614.015 167.544C614.427 167.754 614.752 168.041 614.991 168.405C615.307 168.874 615.465 169.39 615.465 169.955C615.465 170.471 615.331 170.94 615.063 171.361C614.891 171.629 614.666 171.859 614.388 172.05C614.34 172.079 614.34 172.102 614.388 172.122C614.79 172.342 615.101 172.681 615.321 173.14ZM611.246 169.223C611.112 169.472 611.045 169.716 611.045 169.955C611.045 170.337 611.136 170.658 611.317 170.916C611.576 171.347 611.997 171.562 612.58 171.562C613.154 171.562 613.58 171.342 613.857 170.902C614.02 170.672 614.101 170.352 614.101 169.94C614.101 169.673 614.039 169.429 613.915 169.209C613.79 168.969 613.613 168.778 613.384 168.635C613.154 168.491 612.882 168.419 612.566 168.419C612.269 168.419 612.006 168.491 611.777 168.635C611.547 168.778 611.37 168.974 611.246 169.223ZM613.9 175.695C614.12 175.389 614.23 174.977 614.23 174.461C614.23 174.001 614.149 173.624 613.986 173.327C613.719 172.83 613.25 172.581 612.58 172.581C611.93 172.581 611.47 172.815 611.203 173.284C611.021 173.59 610.93 173.987 610.93 174.475C610.93 174.953 611.03 175.346 611.231 175.652C611.509 176.111 611.963 176.341 612.595 176.341C613.188 176.341 613.623 176.125 613.9 175.695ZM620.42 177.575C619.454 177.575 618.684 177.302 618.11 176.757C617.545 176.202 617.263 175.46 617.263 174.532V170.285C617.263 169.357 617.545 168.62 618.11 168.075C618.684 167.53 619.454 167.257 620.42 167.257C621.387 167.257 622.157 167.53 622.731 168.075C623.314 168.62 623.606 169.357 623.606 170.285V174.532C623.606 175.46 623.314 176.202 622.731 176.757C622.157 177.302 621.387 177.575 620.42 177.575ZM620.42 176.384C620.975 176.384 621.415 176.226 621.74 175.91C622.066 175.585 622.228 175.154 622.228 174.619V170.227C622.228 169.692 622.066 169.266 621.74 168.95C621.415 168.625 620.975 168.462 620.42 168.462C619.885 168.462 619.454 168.625 619.129 168.95C618.803 169.266 618.641 169.692 618.641 170.227V174.619C618.641 175.154 618.803 175.585 619.129 175.91C619.454 176.226 619.885 176.384 620.42 176.384ZM627.831 171.505C627.439 171.505 627.075 171.409 626.74 171.218C626.415 171.026 626.157 170.768 625.965 170.443C625.774 170.117 625.678 169.759 625.678 169.366C625.678 168.984 625.774 168.63 625.965 168.304C626.157 167.979 626.415 167.726 626.74 167.544C627.075 167.353 627.439 167.257 627.831 167.257C628.213 167.257 628.567 167.353 628.893 167.544C629.218 167.735 629.476 167.994 629.668 168.319C629.859 168.635 629.955 168.984 629.955 169.366C629.955 169.759 629.859 170.117 629.668 170.443C629.476 170.768 629.218 171.026 628.893 171.218C628.567 171.409 628.213 171.505 627.831 171.505ZM627.415 177.431C627.357 177.431 627.319 177.417 627.3 177.388C627.281 177.35 627.285 177.307 627.314 177.259L632.738 167.487C632.777 167.42 632.834 167.386 632.911 167.386H633.614C633.671 167.386 633.71 167.405 633.729 167.443C633.748 167.472 633.743 167.51 633.714 167.558L628.29 177.331C628.261 177.398 628.204 177.431 628.118 177.431H627.415ZM627.831 170.658C628.185 170.658 628.481 170.534 628.72 170.285C628.96 170.036 629.079 169.73 629.079 169.366C629.079 169.012 628.955 168.716 628.706 168.477C628.467 168.228 628.175 168.104 627.831 168.104C627.477 168.104 627.175 168.228 626.927 168.477C626.678 168.716 626.554 169.012 626.554 169.366C626.554 169.73 626.678 170.036 626.927 170.285C627.175 170.534 627.477 170.658 627.831 170.658ZM633.298 177.56C632.906 177.56 632.542 177.465 632.208 177.273C631.882 177.082 631.624 176.824 631.433 176.498C631.241 176.173 631.146 175.819 631.146 175.436C631.146 175.054 631.241 174.7 631.433 174.375C631.624 174.049 631.882 173.791 632.208 173.6C632.542 173.408 632.906 173.313 633.298 173.313C633.681 173.313 634.035 173.408 634.36 173.6C634.685 173.791 634.944 174.049 635.135 174.375C635.326 174.7 635.422 175.054 635.422 175.436C635.422 175.819 635.326 176.173 635.135 176.498C634.944 176.824 634.685 177.082 634.36 177.273C634.035 177.465 633.681 177.56 633.298 177.56ZM633.298 176.714C633.652 176.714 633.949 176.589 634.188 176.341C634.427 176.092 634.547 175.79 634.547 175.436C634.547 175.083 634.422 174.781 634.173 174.532C633.934 174.284 633.643 174.159 633.298 174.159C632.944 174.159 632.643 174.284 632.394 174.532C632.145 174.781 632.021 175.083 632.021 175.436C632.021 175.79 632.145 176.092 632.394 176.341C632.643 176.589 632.944 176.714 633.298 176.714Z"></path>
<rect fill="#6379E6" height="3.12211" width="66.3448" y="211.475" x="589.556"></rect>
<rect fill="#6379E6" height="3.12211" width="66.3448" y="219.281" x="589.556"></rect>
<rect fill="#6379E6" height="3.12211" width="66.3448" y="227.087" x="589.556"></rect>
<path stroke-linecap="round" stroke-width="0.87419" stroke="white" d="M648.096 271.576V340.782C648.096 345.452 644.31 349.238 639.64 349.238V349.238C634.97 349.238 631.185 345.452 631.185 340.782V310.033"></path>
<path stroke-linecap="round" stroke-width="0.87419" stroke="white" d="M614.273 310.033V340.782C614.273 345.452 610.488 349.238 605.818 349.238V349.238C601.148 349.238 597.362 345.452 597.362 340.782V271.576"></path>
<path stroke-linecap="round" stroke-width="0.87419" stroke="white" d="M631.185 310.032V280.03C631.185 275.36 627.4 271.574 622.73 271.574V271.574C618.06 271.574 614.274 275.36 614.274 280.03V310.032"></path>
<path fill="white" d="M597.362 283.278C597.147 283.278 596.972 283.453 596.972 283.668C596.972 283.884 597.147 284.059 597.362 284.059V283.278ZM614.144 283.668L610.241 281.415V285.922L614.144 283.668ZM597.362 284.059H610.631V283.278H597.362V284.059Z"></path>
<circle stroke-width="0.87321" stroke="white" fill="#667EEA" r="1.82359" cy="271.487" cx="597.281"></circle>
<circle stroke-width="0.87321" stroke="white" fill="#667EEA" r="1.82359" cy="271.487" cx="648.015"></circle>
<path fill="white" d="M631.316 334.792C631.531 334.792 631.706 334.617 631.706 334.402C631.706 334.186 631.531 334.012 631.316 334.012V334.792ZM614.144 334.402L618.047 336.655V332.149L614.144 334.402ZM631.316 334.012H617.656V334.792H631.316V334.012Z"></path>
<path fill="white" d="M631.316 283.398C631.1 283.398 630.925 283.573 630.925 283.789C630.925 284.004 631.1 284.179 631.316 284.179V283.398ZM648.097 283.789L644.194 281.535V286.042L648.097 283.789ZM631.316 284.179H644.585V283.398H631.316V284.179Z"></path>
<path fill="white" d="M650.048 172.443C650.048 187.746 637.642 200.151 622.339 200.151C607.036 200.151 594.63 187.746 594.63 172.443C594.63 157.139 607.036 144.734 622.339 144.734C637.642 144.734 650.048 157.139 650.048 172.443ZM600.172 172.443C600.172 184.685 610.097 194.61 622.339 194.61C634.582 194.61 644.506 184.685 644.506 172.443C644.506 160.2 634.582 150.276 622.339 150.276C610.097 150.276 600.172 160.2 600.172 172.443Z"></path>
<path fill="#68D391" d="M622.339 200.151C615.929 200.151 609.716 197.929 604.761 193.862C599.806 189.795 596.414 184.136 595.163 177.848C593.912 171.561 594.88 165.034 597.902 159.381C600.924 153.727 605.813 149.296 611.736 146.843C617.658 144.39 624.248 144.066 630.383 145.927C636.517 147.788 641.817 151.718 645.378 157.048C648.94 162.379 650.543 168.779 649.914 175.159C649.286 181.538 646.465 187.503 641.932 192.036L638.014 188.117C641.64 184.491 643.897 179.719 644.399 174.615C644.902 169.512 643.62 164.391 640.77 160.127C637.921 155.863 633.682 152.719 628.774 151.23C623.866 149.741 618.594 150 613.856 151.963C609.118 153.926 605.207 157.47 602.79 161.993C600.372 166.516 599.598 171.737 600.598 176.767C601.599 181.797 604.312 186.324 608.277 189.578C612.241 192.831 617.211 194.61 622.339 194.61L622.339 200.151Z"></path>
</g>
<defs>
<radialGradient gradientTransform="translate(422 237) rotate(90) scale(237 422)" gradientUnits="userSpaceOnUse" r="1" cy="0" cx="0" id="paint0_radial_7076_3607">
<stop stop-color="#667EEA"></stop>
<stop stop-color="#667EEA" offset="1"></stop>
</radialGradient>
<linearGradient gradientUnits="userSpaceOnUse" y2="290.152" x2="252.786" y1="128.608" x1="252.786" id="paint1_linear_7076_3607">
<stop stop-color="#4247B8" offset="0.0648065"></stop>
<stop stop-color="#434190" offset="1"></stop>
</linearGradient>
<linearGradient gradientUnits="userSpaceOnUse" y2="366.079" x2="252.684" y1="207.2" x1="252.684" id="paint2_linear_7076_3607">
<stop stop-color="#4247B8" offset="0.0648065"></stop>
<stop stop-color="#434190" offset="1"></stop>
</linearGradient>
<linearGradient gradientUnits="userSpaceOnUse" y2="366.995" x2="452.534" y1="128.608" x1="452.534" id="paint3_linear_7076_3607">
<stop stop-color="#4247B8" offset="0.0648065"></stop>
<stop stop-color="#434190" offset="1"></stop>
</linearGradient>
<linearGradient gradientUnits="userSpaceOnUse" y2="314.451" x2="378.658" y1="286.661" x1="378.658" id="paint4_linear_7076_3607">
<stop stop-color="#68D391"></stop>
<stop stop-color="#48BB78" offset="1"></stop>
</linearGradient>
<linearGradient gradientUnits="userSpaceOnUse" y2="364.227" x2="378.658" y1="336.438" x1="378.658" id="paint5_linear_7076_3607">
<stop stop-color="#68D391"></stop>
<stop stop-color="#48BB78" offset="1"></stop>
</linearGradient>
<linearGradient gradientUnits="userSpaceOnUse" y2="336.806" x2="416.25" y1="262.212" x1="416.25" id="paint6_linear_7076_3607">
<stop stop-color="#68D391"></stop>
<stop stop-color="#48BB78" offset="1"></stop>
</linearGradient>
<linearGradient gradientUnits="userSpaceOnUse" y2="336.806" x2="491.436" y1="262.212" x1="491.436" id="paint7_linear_7076_3607">
<stop stop-color="#68D391"></stop>
<stop stop-color="#48BB78" offset="1"></stop>
</linearGradient>
<linearGradient gradientUnits="userSpaceOnUse" y2="369.355" x2="491.436" y1="334.252" x1="491.436" id="paint8_linear_7076_3607">
<stop stop-color="#68D391"></stop>
<stop stop-color="#48BB78" offset="1"></stop>
</linearGradient>
<linearGradient gradientUnits="userSpaceOnUse" y2="336.04" x2="529.029" y1="298.012" x1="529.029" id="paint9_linear_7076_3607">
<stop stop-color="#68D391"></stop>
<stop stop-color="#48BB78" offset="1"></stop>
</linearGradient>
<linearGradient gradientUnits="userSpaceOnUse" y2="290.002" x2="453.843" y1="262.212" x1="453.843" id="paint10_linear_7076_3607">
<stop stop-color="#68D391"></stop>
<stop stop-color="#48BB78" offset="1"></stop>
</linearGradient>
<linearGradient gradientUnits="userSpaceOnUse" y2="366.011" x2="622.729" y1="251.664" x1="622.729" id="paint11_linear_7076_3607">
<stop stop-color="#4247B8" offset="0.0648065"></stop>
<stop stop-color="#434190" offset="1"></stop>
</linearGradient>
<linearGradient gradientUnits="userSpaceOnUse" y2="243.081" x2="622.729" y1="128.734" x1="622.729" id="paint12_linear_7076_3607">
<stop stop-color="#4247B8" offset="0.0648065"></stop>
<stop stop-color="#434190" offset="1"></stop>
</linearGradient>
<clipPath id="clip0_7076_3607">
<rect fill="white" height="474" width="844"></rect>
</clipPath>
</defs>
</svg>
