<svg xmlns="http://www.w3.org/2000/svg" fill="none" viewBox="0 0 844 474" height="474" width="844">
<g clip-path="url(#clip0_7082_4461)">
<rect fill="white" height="474" width="844"></rect>
<path fill="#2D3748" d="M216.459 155.729C218.926 155.729 221.093 156.234 222.962 157.243C224.831 158.252 226.27 159.691 227.279 161.56C228.325 163.391 228.848 165.503 228.848 167.895C228.848 170.249 228.307 172.323 227.223 174.117C226.176 175.911 224.681 177.313 222.738 178.322C220.832 179.294 218.627 179.78 216.123 179.78H208.162C207.975 179.78 207.882 179.873 207.882 180.06V194.355C207.882 194.542 207.807 194.711 207.657 194.86C207.545 194.972 207.396 195.028 207.209 195.028H200.65C200.463 195.028 200.295 194.972 200.145 194.86C200.033 194.711 199.977 194.542 199.977 194.355V156.402C199.977 156.215 200.033 156.066 200.145 155.953C200.295 155.804 200.463 155.729 200.65 155.729H216.459ZM215.282 173.445C217.001 173.445 218.384 172.959 219.43 171.987C220.477 170.978 221 169.67 221 168.063C221 166.418 220.477 165.091 219.43 164.082C218.384 163.073 217.001 162.569 215.282 162.569H208.162C207.975 162.569 207.882 162.662 207.882 162.849V173.164C207.882 173.351 207.975 173.445 208.162 173.445H215.282ZM247.555 165.82C248.9 165.82 249.966 166.082 250.75 166.605C251.049 166.755 251.162 167.035 251.087 167.446L249.91 173.837C249.872 174.286 249.611 174.416 249.125 174.229C248.564 174.043 247.91 173.949 247.163 173.949C246.864 173.949 246.452 173.987 245.929 174.061C244.584 174.173 243.444 174.678 242.509 175.575C241.575 176.435 241.108 177.593 241.108 179.051V194.355C241.108 194.542 241.033 194.711 240.884 194.86C240.772 194.972 240.622 195.028 240.435 195.028H233.876C233.689 195.028 233.521 194.972 233.371 194.86C233.259 194.711 233.203 194.542 233.203 194.355V166.885C233.203 166.699 233.259 166.549 233.371 166.437C233.521 166.287 233.689 166.213 233.876 166.213H240.435C240.622 166.213 240.772 166.287 240.884 166.437C241.033 166.549 241.108 166.699 241.108 166.885V169.016C241.108 169.128 241.145 169.203 241.22 169.24C241.295 169.277 241.351 169.259 241.388 169.184C242.921 166.941 244.976 165.82 247.555 165.82ZM258.925 162.961C257.654 162.961 256.589 162.55 255.729 161.728C254.907 160.868 254.496 159.803 254.496 158.532C254.496 157.224 254.907 156.159 255.729 155.337C256.552 154.515 257.617 154.103 258.925 154.103C260.233 154.103 261.298 154.515 262.12 155.337C262.943 156.159 263.354 157.224 263.354 158.532C263.354 159.803 262.924 160.868 262.064 161.728C261.242 162.55 260.196 162.961 258.925 162.961ZM255.561 195.028C255.374 195.028 255.206 194.972 255.057 194.86C254.945 194.711 254.889 194.542 254.889 194.355V166.829C254.889 166.642 254.945 166.493 255.057 166.381C255.206 166.231 255.374 166.157 255.561 166.157H262.12C262.307 166.157 262.457 166.231 262.569 166.381C262.718 166.493 262.793 166.642 262.793 166.829V194.355C262.793 194.542 262.718 194.711 262.569 194.86C262.457 194.972 262.307 195.028 262.12 195.028H255.561ZM280.446 195.421C277.942 195.421 275.755 195.066 273.887 194.355C272.018 193.645 270.56 192.655 269.514 191.384C268.505 190.113 268 188.675 268 187.067V186.507C268 186.32 268.056 186.171 268.168 186.058C268.318 185.909 268.486 185.834 268.673 185.834H274.896C275.083 185.834 275.232 185.909 275.344 186.058C275.494 186.171 275.569 186.32 275.569 186.507V186.563C275.569 187.385 276.017 188.095 276.914 188.693C277.848 189.254 279.007 189.534 280.39 189.534C281.661 189.534 282.688 189.291 283.473 188.805C284.258 188.282 284.651 187.647 284.651 186.899C284.651 186.227 284.314 185.722 283.641 185.386C282.969 185.049 281.866 184.694 280.334 184.32C278.577 183.872 277.194 183.442 276.185 183.031C273.793 182.209 271.887 181.2 270.467 180.004C269.047 178.808 268.337 177.089 268.337 174.846C268.337 172.08 269.402 169.894 271.532 168.287C273.7 166.642 276.559 165.82 280.11 165.82C282.501 165.82 284.594 166.213 286.388 166.998C288.182 167.745 289.565 168.81 290.537 170.193C291.546 171.576 292.051 173.146 292.051 174.902C292.051 175.089 291.976 175.257 291.826 175.407C291.714 175.519 291.565 175.575 291.378 175.575H285.379C285.192 175.575 285.024 175.519 284.875 175.407C284.763 175.257 284.707 175.089 284.707 174.902C284.707 174.08 284.277 173.389 283.417 172.828C282.595 172.267 281.492 171.987 280.11 171.987C278.876 171.987 277.867 172.211 277.082 172.66C276.297 173.108 275.905 173.725 275.905 174.51C275.905 175.257 276.279 175.818 277.026 176.192C277.811 176.565 279.1 176.958 280.894 177.369C281.306 177.481 281.773 177.612 282.296 177.761C282.819 177.873 283.38 178.023 283.978 178.21C286.631 178.995 288.724 180.004 290.257 181.237C291.789 182.47 292.555 184.264 292.555 186.619C292.555 189.385 291.453 191.552 289.248 193.122C287.08 194.654 284.146 195.421 280.446 195.421ZM329.048 165.764C331.964 165.764 334.243 166.642 335.888 168.399C337.532 170.156 338.355 172.622 338.355 175.799V194.355C338.355 194.542 338.28 194.711 338.13 194.86C338.018 194.972 337.869 195.028 337.682 195.028H331.123C330.936 195.028 330.768 194.972 330.618 194.86C330.506 194.711 330.45 194.542 330.45 194.355V177.537C330.45 176.005 330.058 174.79 329.273 173.893C328.488 172.996 327.441 172.548 326.133 172.548C324.825 172.548 323.76 172.996 322.938 173.893C322.116 174.79 321.704 175.986 321.704 177.481V194.355C321.704 194.542 321.63 194.711 321.48 194.86C321.368 194.972 321.219 195.028 321.032 195.028H314.529C314.342 195.028 314.174 194.972 314.024 194.86C313.912 194.711 313.856 194.542 313.856 194.355V177.537C313.856 176.042 313.445 174.846 312.622 173.949C311.8 173.015 310.735 172.548 309.427 172.548C308.231 172.548 307.222 172.903 306.4 173.613C305.615 174.323 305.148 175.313 304.998 176.584V194.355C304.998 194.542 304.923 194.711 304.774 194.86C304.662 194.972 304.512 195.028 304.325 195.028H297.766C297.579 195.028 297.411 194.972 297.262 194.86C297.15 194.711 297.094 194.542 297.094 194.355V166.885C297.094 166.699 297.15 166.549 297.262 166.437C297.411 166.287 297.579 166.213 297.766 166.213H304.325C304.512 166.213 304.662 166.287 304.774 166.437C304.923 166.549 304.998 166.699 304.998 166.885V169.072C304.998 169.184 305.036 169.259 305.11 169.296C305.185 169.333 305.26 169.296 305.335 169.184C306.867 166.904 309.24 165.764 312.454 165.764C314.323 165.764 315.949 166.157 317.332 166.941C318.752 167.726 319.836 168.848 320.583 170.305C320.695 170.529 320.826 170.529 320.976 170.305C321.798 168.773 322.9 167.633 324.283 166.885C325.703 166.138 327.292 165.764 329.048 165.764ZM355.395 165.764C357.824 165.764 359.992 166.194 361.898 167.054C363.804 167.876 365.281 169.016 366.327 170.473C367.411 171.931 367.953 173.557 367.953 175.351V194.355C367.953 194.542 367.878 194.711 367.729 194.86C367.616 194.972 367.467 195.028 367.28 195.028H360.721C360.534 195.028 360.366 194.972 360.216 194.86C360.104 194.711 360.048 194.542 360.048 194.355V192.505C360.048 192.393 360.011 192.319 359.936 192.281C359.861 192.244 359.787 192.281 359.712 192.393C358.142 194.449 355.619 195.477 352.144 195.477C349.228 195.477 346.874 194.767 345.08 193.346C343.286 191.926 342.389 189.833 342.389 187.067C342.389 184.19 343.398 181.966 345.416 180.396C347.434 178.789 350.312 177.986 354.05 177.986H359.768C359.955 177.986 360.048 177.892 360.048 177.705V176.472C360.048 175.239 359.674 174.286 358.927 173.613C358.179 172.903 357.058 172.548 355.563 172.548C354.405 172.548 353.433 172.753 352.648 173.164C351.901 173.575 351.415 174.155 351.19 174.902C351.078 175.313 350.835 175.5 350.462 175.463L343.678 174.566C343.23 174.491 343.024 174.323 343.062 174.061C343.211 172.492 343.828 171.071 344.912 169.801C346.033 168.53 347.49 167.539 349.284 166.829C351.116 166.119 353.153 165.764 355.395 165.764ZM354.274 189.59C355.881 189.59 357.245 189.16 358.366 188.301C359.488 187.441 360.048 186.339 360.048 184.993V182.975C360.048 182.788 359.955 182.695 359.768 182.695H355.731C354.05 182.695 352.723 183.012 351.751 183.648C350.817 184.283 350.35 185.18 350.35 186.339C350.35 187.348 350.705 188.151 351.415 188.749C352.125 189.31 353.078 189.59 354.274 189.59ZM406.776 174.79C406.963 174.79 407.113 174.865 407.225 175.014C407.374 175.126 407.449 175.276 407.449 175.463V180.901C407.449 181.088 407.374 181.256 407.225 181.405C407.113 181.517 406.963 181.573 406.776 181.573H399.096C398.909 181.573 398.815 181.667 398.815 181.854V189.422C398.815 189.609 398.741 189.777 398.591 189.927C398.479 190.039 398.33 190.095 398.143 190.095H392.761C392.574 190.095 392.406 190.039 392.256 189.927C392.144 189.777 392.088 189.609 392.088 189.422V181.854C392.088 181.667 391.995 181.573 391.808 181.573H384.127C383.941 181.573 383.772 181.517 383.623 181.405C383.511 181.256 383.455 181.088 383.455 180.901V175.463C383.455 175.276 383.511 175.126 383.623 175.014C383.772 174.865 383.941 174.79 384.127 174.79H391.808C391.995 174.79 392.088 174.697 392.088 174.51V166.773C392.088 166.586 392.144 166.437 392.256 166.325C392.406 166.175 392.574 166.101 392.761 166.101H398.143C398.33 166.101 398.479 166.175 398.591 166.325C398.741 166.437 398.815 166.586 398.815 166.773V174.51C398.815 174.697 398.909 174.79 399.096 174.79H406.776ZM448.964 156.234C449.151 155.935 449.412 155.785 449.748 155.785H456.308C456.495 155.785 456.644 155.86 456.756 156.01C456.906 156.122 456.98 156.271 456.98 156.458V194.355C456.98 194.542 456.906 194.711 456.756 194.86C456.644 194.972 456.495 195.028 456.308 195.028H449.748C449.562 195.028 449.393 194.972 449.244 194.86C449.132 194.711 449.076 194.542 449.076 194.355V169.632C449.076 169.483 449.038 169.408 448.964 169.408C448.889 169.408 448.814 169.464 448.739 169.576L442.797 178.883C442.61 179.182 442.348 179.331 442.012 179.331H438.704C438.368 179.331 438.106 179.182 437.92 178.883L431.977 169.576C431.902 169.464 431.828 169.427 431.753 169.464C431.678 169.464 431.641 169.539 431.641 169.688V194.355C431.641 194.542 431.566 194.711 431.416 194.86C431.304 194.972 431.155 195.028 430.968 195.028H424.409C424.222 195.028 424.054 194.972 423.904 194.86C423.792 194.711 423.736 194.542 423.736 194.355V156.458C423.736 156.271 423.792 156.122 423.904 156.01C424.054 155.86 424.222 155.785 424.409 155.785H430.968C431.304 155.785 431.566 155.935 431.753 156.234L440.162 169.296C440.274 169.52 440.386 169.52 440.498 169.296L448.964 156.234ZM476.033 195.477C472.893 195.477 470.202 194.654 467.96 193.01C465.717 191.366 464.185 189.123 463.363 186.283C462.839 184.526 462.578 182.62 462.578 180.564C462.578 178.359 462.839 176.378 463.363 174.622C464.222 171.856 465.773 169.688 468.016 168.119C470.258 166.549 472.949 165.764 476.089 165.764C479.153 165.764 481.769 166.549 483.937 168.119C486.105 169.651 487.637 171.8 488.534 174.566C489.132 176.435 489.431 178.397 489.431 180.452C489.431 182.47 489.17 184.358 488.646 186.114C487.824 189.03 486.292 191.328 484.049 193.01C481.844 194.654 479.172 195.477 476.033 195.477ZM476.033 188.693C477.266 188.693 478.312 188.32 479.172 187.572C480.032 186.825 480.648 185.797 481.022 184.489C481.321 183.293 481.47 181.985 481.47 180.564C481.47 178.995 481.321 177.668 481.022 176.584C480.611 175.313 479.976 174.323 479.116 173.613C478.256 172.903 477.21 172.548 475.976 172.548C474.706 172.548 473.641 172.903 472.781 173.613C471.959 174.323 471.361 175.313 470.987 176.584C470.688 177.481 470.539 178.808 470.539 180.564C470.539 182.246 470.669 183.554 470.931 184.489C471.305 185.797 471.921 186.825 472.781 187.572C473.678 188.32 474.762 188.693 476.033 188.693ZM509.537 165.764C512.527 165.764 514.938 166.68 516.769 168.511C518.6 170.343 519.516 172.828 519.516 175.967V194.355C519.516 194.542 519.441 194.711 519.292 194.86C519.18 194.972 519.03 195.028 518.843 195.028H512.284C512.097 195.028 511.929 194.972 511.779 194.86C511.667 194.711 511.611 194.542 511.611 194.355V177.593C511.611 176.098 511.182 174.883 510.322 173.949C509.5 173.015 508.397 172.548 507.014 172.548C505.631 172.548 504.51 173.015 503.651 173.949C502.828 174.883 502.417 176.098 502.417 177.593V194.355C502.417 194.542 502.343 194.711 502.193 194.86C502.081 194.972 501.931 195.028 501.745 195.028H495.185C494.998 195.028 494.83 194.972 494.681 194.86C494.569 194.711 494.513 194.542 494.513 194.355V166.885C494.513 166.699 494.569 166.549 494.681 166.437C494.83 166.287 494.998 166.213 495.185 166.213H501.745C501.931 166.213 502.081 166.287 502.193 166.437C502.343 166.549 502.417 166.699 502.417 166.885V168.848C502.417 168.96 502.455 169.034 502.529 169.072C502.604 169.109 502.66 169.09 502.698 169.016C504.23 166.848 506.51 165.764 509.537 165.764ZM542.774 166.885C542.774 166.699 542.83 166.549 542.943 166.437C543.092 166.287 543.26 166.213 543.447 166.213H550.006C550.193 166.213 550.343 166.287 550.455 166.437C550.604 166.549 550.679 166.699 550.679 166.885V192.449C550.679 197.345 549.259 200.84 546.418 202.933C543.615 205.026 539.99 206.072 535.542 206.072C534.234 206.072 532.777 205.979 531.17 205.792C530.796 205.755 530.609 205.512 530.609 205.063L530.833 199.289C530.833 198.803 531.095 198.597 531.618 198.672C532.964 198.896 534.197 199.009 535.318 199.009C537.71 199.009 539.541 198.485 540.812 197.439C542.12 196.392 542.774 194.711 542.774 192.393C542.774 192.281 542.737 192.225 542.662 192.225C542.587 192.188 542.513 192.206 542.438 192.281C541.018 193.814 538.944 194.58 536.215 194.58C533.786 194.58 531.543 194 529.488 192.842C527.47 191.646 526.031 189.74 525.171 187.124C524.61 185.404 524.33 183.181 524.33 180.452C524.33 177.537 524.667 175.164 525.339 173.332C526.124 171.053 527.451 169.221 529.32 167.838C531.188 166.456 533.356 165.764 535.823 165.764C538.701 165.764 540.906 166.624 542.438 168.343C542.513 168.418 542.587 168.455 542.662 168.455C542.737 168.418 542.774 168.343 542.774 168.231V166.885ZM542.326 184.993C542.625 183.872 542.774 182.34 542.774 180.396C542.774 179.238 542.737 178.341 542.662 177.705C542.587 177.07 542.457 176.472 542.27 175.911C541.933 174.902 541.373 174.099 540.588 173.501C539.803 172.865 538.831 172.548 537.673 172.548C536.552 172.548 535.599 172.865 534.814 173.501C534.029 174.099 533.449 174.902 533.076 175.911C532.553 177.033 532.291 178.546 532.291 180.452C532.291 182.545 532.515 184.04 532.964 184.937C533.3 185.946 533.879 186.768 534.702 187.404C535.561 188.002 536.57 188.301 537.729 188.301C538.925 188.301 539.915 188.002 540.7 187.404C541.485 186.768 542.027 185.965 542.326 184.993ZM569.048 195.477C565.909 195.477 563.218 194.654 560.976 193.01C558.733 191.366 557.201 189.123 556.378 186.283C555.855 184.526 555.594 182.62 555.594 180.564C555.594 178.359 555.855 176.378 556.378 174.622C557.238 171.856 558.789 169.688 561.032 168.119C563.274 166.549 565.965 165.764 569.104 165.764C572.169 165.764 574.785 166.549 576.953 168.119C579.121 169.651 580.653 171.8 581.55 174.566C582.148 176.435 582.447 178.397 582.447 180.452C582.447 182.47 582.185 184.358 581.662 186.114C580.84 189.03 579.308 191.328 577.065 193.01C574.86 194.654 572.188 195.477 569.048 195.477ZM569.048 188.693C570.282 188.693 571.328 188.32 572.188 187.572C573.047 186.825 573.664 185.797 574.038 184.489C574.337 183.293 574.486 181.985 574.486 180.564C574.486 178.995 574.337 177.668 574.038 176.584C573.627 175.313 572.991 174.323 572.132 173.613C571.272 172.903 570.226 172.548 568.992 172.548C567.722 172.548 566.656 172.903 565.797 173.613C564.975 174.323 564.377 175.313 564.003 176.584C563.704 177.481 563.554 178.808 563.554 180.564C563.554 182.246 563.685 183.554 563.947 184.489C564.32 185.797 564.937 186.825 565.797 187.572C566.694 188.32 567.778 188.693 569.048 188.693ZM588.706 195.028C588.519 195.028 588.351 194.972 588.201 194.86C588.089 194.711 588.033 194.542 588.033 194.355V156.458C588.033 156.271 588.089 156.122 588.201 156.01C588.351 155.86 588.519 155.785 588.706 155.785H602.721C605.524 155.785 607.972 156.29 610.065 157.299C612.195 158.271 613.84 159.653 614.998 161.447C616.157 163.241 616.736 165.316 616.736 167.67V183.143C616.736 185.498 616.157 187.572 614.998 189.366C613.84 191.16 612.195 192.561 610.065 193.571C607.972 194.542 605.524 195.028 602.721 195.028H588.706ZM595.938 187.964C595.938 188.151 596.031 188.245 596.218 188.245H603.001C604.721 188.245 606.103 187.665 607.15 186.507C608.234 185.348 608.794 183.797 608.832 181.854V168.96C608.832 167.016 608.29 165.465 607.206 164.307C606.159 163.148 604.739 162.569 602.945 162.569H596.218C596.031 162.569 595.938 162.662 595.938 162.849V187.964ZM645.954 174.566C645.729 174.678 645.729 174.79 645.954 174.902C649.504 176.734 651.279 179.78 651.279 184.04C651.279 187.665 650.046 190.412 647.579 192.281C645.113 194.113 641.88 195.028 637.881 195.028H623.361C623.174 195.028 623.006 194.972 622.856 194.86C622.744 194.711 622.688 194.542 622.688 194.355V156.458C622.688 156.271 622.744 156.122 622.856 156.01C623.006 155.86 623.174 155.785 623.361 155.785H637.432C646.29 155.785 650.719 159.373 650.719 166.549C650.719 170.286 649.13 172.959 645.954 174.566ZM630.873 162.569C630.686 162.569 630.593 162.662 630.593 162.849V171.595C630.593 171.781 630.686 171.875 630.873 171.875H637.432C639.189 171.875 640.553 171.464 641.525 170.642C642.496 169.819 642.982 168.698 642.982 167.278C642.982 165.82 642.496 164.68 641.525 163.858C640.553 162.998 639.189 162.569 637.432 162.569H630.873ZM637.881 188.189C639.6 188.189 640.945 187.759 641.917 186.899C642.889 186.002 643.375 184.788 643.375 183.255C643.375 181.723 642.889 180.527 641.917 179.667C640.945 178.77 639.581 178.322 637.825 178.322H630.873C630.686 178.322 630.593 178.415 630.593 178.602V187.908C630.593 188.095 630.686 188.189 630.873 188.189H637.881ZM263.753 257.028C263.566 257.028 263.398 256.972 263.248 256.86C263.136 256.711 263.08 256.542 263.08 256.355V218.458C263.08 218.271 263.136 218.122 263.248 218.01C263.398 217.86 263.566 217.785 263.753 217.785H270.312C270.499 217.785 270.648 217.86 270.76 218.01C270.91 218.122 270.984 218.271 270.984 218.458V249.964C270.984 250.151 271.078 250.245 271.265 250.245H289.597C289.784 250.245 289.933 250.32 290.045 250.469C290.195 250.581 290.27 250.731 290.27 250.918V256.355C290.27 256.542 290.195 256.711 290.045 256.86C289.933 256.972 289.784 257.028 289.597 257.028H263.753ZM306.15 227.764C308.579 227.764 310.747 228.194 312.653 229.054C314.559 229.876 316.035 231.016 317.082 232.473C318.166 233.931 318.708 235.557 318.708 237.351V256.355C318.708 256.542 318.633 256.711 318.483 256.86C318.371 256.972 318.222 257.028 318.035 257.028H311.476C311.289 257.028 311.121 256.972 310.971 256.86C310.859 256.711 310.803 256.542 310.803 256.355V254.505C310.803 254.393 310.766 254.319 310.691 254.281C310.616 254.244 310.541 254.281 310.467 254.393C308.897 256.449 306.374 257.477 302.898 257.477C299.983 257.477 297.628 256.767 295.835 255.346C294.041 253.926 293.144 251.833 293.144 249.067C293.144 246.19 294.153 243.966 296.171 242.396C298.189 240.789 301.067 239.986 304.804 239.986H310.523C310.709 239.986 310.803 239.892 310.803 239.705V238.472C310.803 237.239 310.429 236.286 309.682 235.613C308.934 234.903 307.813 234.548 306.318 234.548C305.159 234.548 304.188 234.753 303.403 235.164C302.655 235.575 302.169 236.155 301.945 236.902C301.833 237.313 301.59 237.5 301.216 237.463L294.433 236.566C293.985 236.491 293.779 236.323 293.816 236.061C293.966 234.492 294.582 233.071 295.666 231.801C296.788 230.53 298.245 229.539 300.039 228.829C301.87 228.119 303.907 227.764 306.15 227.764ZM305.029 251.59C306.636 251.59 308 251.16 309.121 250.301C310.242 249.441 310.803 248.339 310.803 246.993V244.975C310.803 244.788 310.709 244.695 310.523 244.695H306.486C304.804 244.695 303.478 245.012 302.506 245.648C301.571 246.283 301.104 247.18 301.104 248.339C301.104 249.348 301.459 250.151 302.169 250.749C302.88 251.31 303.833 251.59 305.029 251.59ZM341.094 228.885C341.094 228.699 341.15 228.549 341.262 228.437C341.412 228.287 341.58 228.213 341.767 228.213H348.326C348.513 228.213 348.662 228.287 348.774 228.437C348.924 228.549 348.999 228.699 348.999 228.885V256.355C348.999 256.542 348.924 256.711 348.774 256.86C348.662 256.972 348.513 257.028 348.326 257.028H341.767C341.58 257.028 341.412 256.972 341.262 256.86C341.15 256.711 341.094 256.542 341.094 256.355V254.449C341.094 254.337 341.057 254.281 340.982 254.281C340.907 254.244 340.832 254.281 340.758 254.393C339.263 256.412 336.945 257.421 333.806 257.421C330.966 257.421 328.63 256.561 326.798 254.842C324.967 253.123 324.051 250.712 324.051 247.61V228.885C324.051 228.699 324.107 228.549 324.22 228.437C324.369 228.287 324.537 228.213 324.724 228.213H331.227C331.414 228.213 331.564 228.287 331.676 228.437C331.825 228.549 331.9 228.699 331.9 228.885V245.648C331.9 247.143 332.292 248.357 333.077 249.292C333.899 250.226 335.021 250.693 336.441 250.693C337.712 250.693 338.758 250.32 339.58 249.572C340.403 248.787 340.907 247.778 341.094 246.545V228.885ZM369.849 227.764C372.839 227.764 375.25 228.68 377.081 230.511C378.912 232.343 379.828 234.828 379.828 237.967V256.355C379.828 256.542 379.753 256.711 379.604 256.86C379.492 256.972 379.342 257.028 379.155 257.028H372.596C372.409 257.028 372.241 256.972 372.092 256.86C371.979 256.711 371.923 256.542 371.923 256.355V239.593C371.923 238.098 371.494 236.883 370.634 235.949C369.812 235.015 368.709 234.548 367.326 234.548C365.943 234.548 364.822 235.015 363.963 235.949C363.14 236.883 362.729 238.098 362.729 239.593V256.355C362.729 256.542 362.655 256.711 362.505 256.86C362.393 256.972 362.243 257.028 362.057 257.028H355.497C355.31 257.028 355.142 256.972 354.993 256.86C354.881 256.711 354.825 256.542 354.825 256.355V228.885C354.825 228.699 354.881 228.549 354.993 228.437C355.142 228.287 355.31 228.213 355.497 228.213H362.057C362.243 228.213 362.393 228.287 362.505 228.437C362.655 228.549 362.729 228.699 362.729 228.885V230.848C362.729 230.96 362.767 231.034 362.841 231.072C362.916 231.109 362.972 231.09 363.01 231.016C364.542 228.848 366.822 227.764 369.849 227.764ZM397.989 257.477C394.999 257.477 392.401 256.729 390.196 255.234C388.029 253.739 386.478 251.684 385.543 249.067C384.908 247.199 384.59 244.994 384.59 242.452C384.59 239.948 384.908 237.78 385.543 235.949C386.44 233.408 387.991 231.408 390.196 229.951C392.401 228.493 394.999 227.764 397.989 227.764C400.979 227.764 403.595 228.512 405.837 230.007C408.117 231.502 409.631 233.389 410.378 235.669C410.677 236.566 410.827 237.239 410.827 237.687V237.799C410.827 238.136 410.64 238.341 410.266 238.416L403.819 239.369H403.707C403.371 239.369 403.146 239.182 403.034 238.808L402.866 237.911C402.604 236.94 402.025 236.136 401.128 235.501C400.231 234.865 399.166 234.548 397.933 234.548C396.737 234.548 395.728 234.847 394.905 235.445C394.083 236.043 393.504 236.865 393.168 237.911C392.756 239.033 392.551 240.565 392.551 242.508C392.551 244.452 392.738 245.984 393.111 247.105C393.448 248.227 394.027 249.105 394.849 249.74C395.709 250.376 396.737 250.693 397.933 250.693C399.091 250.693 400.1 250.394 400.96 249.796C401.857 249.161 402.474 248.301 402.81 247.217C402.847 247.143 402.866 247.031 402.866 246.881C402.903 246.844 402.922 246.788 402.922 246.713C402.96 246.264 403.221 246.078 403.707 246.152L410.154 247.161C410.528 247.236 410.715 247.442 410.715 247.778C410.715 248.077 410.603 248.638 410.378 249.46C409.593 251.964 408.061 253.926 405.781 255.346C403.539 256.767 400.941 257.477 397.989 257.477ZM430.454 227.764C433.444 227.764 435.855 228.68 437.686 230.511C439.518 232.343 440.433 234.828 440.433 237.967V256.355C440.433 256.542 440.359 256.711 440.209 256.86C440.097 256.972 439.947 257.028 439.761 257.028H433.201C433.015 257.028 432.846 256.972 432.697 256.86C432.585 256.711 432.529 256.542 432.529 256.355V239.593C432.529 238.098 432.099 236.883 431.239 235.949C430.417 235.015 429.315 234.548 427.932 234.548C426.549 234.548 425.428 235.015 424.568 235.949C423.746 236.883 423.335 238.098 423.335 239.593V256.355C423.335 256.542 423.26 256.711 423.11 256.86C422.998 256.972 422.849 257.028 422.662 257.028H416.103C415.916 257.028 415.748 256.972 415.598 256.86C415.486 256.711 415.43 256.542 415.43 256.355V218.458C415.43 218.271 415.486 218.122 415.598 218.01C415.748 217.86 415.916 217.785 416.103 217.785H422.662C422.849 217.785 422.998 217.86 423.11 218.01C423.26 218.122 423.335 218.271 423.335 218.458V230.848C423.335 230.96 423.372 231.034 423.447 231.072C423.522 231.109 423.578 231.09 423.615 231.016C425.147 228.848 427.427 227.764 430.454 227.764ZM466.506 257.028C466.095 257.028 465.833 256.841 465.721 256.468L455.798 218.514L455.742 218.29C455.742 217.953 455.948 217.785 456.359 217.785H463.31C463.684 217.785 463.927 217.972 464.039 218.346L469.365 241.163C469.402 241.312 469.458 241.387 469.533 241.387C469.608 241.387 469.664 241.312 469.701 241.163L474.859 218.402C474.971 217.991 475.214 217.785 475.588 217.785H482.371C482.782 217.785 483.044 217.972 483.156 218.346L488.762 241.163C488.8 241.275 488.856 241.35 488.93 241.387C489.005 241.387 489.061 241.312 489.099 241.163L494.256 218.402C494.368 217.991 494.611 217.785 494.985 217.785H501.6C502.123 217.785 502.329 218.028 502.217 218.514L493.023 256.468C492.911 256.841 492.649 257.028 492.238 257.028H485.567C485.193 257.028 484.95 256.841 484.838 256.468L479.12 232.193C479.082 232.044 479.026 231.969 478.951 231.969C478.877 231.969 478.821 232.044 478.783 232.193L473.457 256.412C473.383 256.823 473.14 257.028 472.729 257.028H466.506ZM528.534 239.649C528.758 241.069 528.833 242.658 528.758 244.414C528.721 244.863 528.478 245.087 528.029 245.087H510.706C510.482 245.087 510.407 245.181 510.482 245.367C510.594 246.115 510.8 246.862 511.099 247.61C512.07 249.703 514.051 250.749 517.041 250.749C519.433 250.712 521.32 249.74 522.703 247.834C522.853 247.61 523.021 247.498 523.208 247.498C523.32 247.498 523.451 247.573 523.6 247.722L527.637 251.702C527.824 251.889 527.917 252.057 527.917 252.207C527.917 252.282 527.842 252.431 527.693 252.655C526.459 254.188 524.871 255.384 522.928 256.243C520.984 257.066 518.854 257.477 516.537 257.477C513.322 257.477 510.594 256.748 508.352 255.29C506.147 253.833 504.558 251.796 503.586 249.18C502.802 247.311 502.409 244.863 502.409 241.836C502.409 239.78 502.689 237.967 503.25 236.398C504.11 233.744 505.605 231.632 507.735 230.063C509.903 228.493 512.463 227.708 515.415 227.708C519.153 227.708 522.143 228.792 524.385 230.96C526.665 233.127 528.048 236.024 528.534 239.649ZM515.471 234.548C513.117 234.548 511.566 235.65 510.818 237.855C510.669 238.341 510.538 238.939 510.426 239.649C510.426 239.836 510.519 239.929 510.706 239.929H520.405C520.629 239.929 520.704 239.836 520.629 239.649C520.442 238.565 520.349 238.042 520.349 238.079C520.012 236.958 519.414 236.099 518.555 235.501C517.733 234.865 516.705 234.548 515.471 234.548ZM559.138 239.649C559.362 241.069 559.437 242.658 559.362 244.414C559.324 244.863 559.081 245.087 558.633 245.087H541.31C541.086 245.087 541.011 245.181 541.086 245.367C541.198 246.115 541.403 246.862 541.702 247.61C542.674 249.703 544.655 250.749 547.645 250.749C550.037 250.712 551.924 249.74 553.307 247.834C553.457 247.61 553.625 247.498 553.812 247.498C553.924 247.498 554.055 247.573 554.204 247.722L558.241 251.702C558.427 251.889 558.521 252.057 558.521 252.207C558.521 252.282 558.446 252.431 558.297 252.655C557.063 254.188 555.475 255.384 553.531 256.243C551.588 257.066 549.458 257.477 547.14 257.477C543.926 257.477 541.198 256.748 538.955 255.29C536.75 253.833 535.162 251.796 534.19 249.18C533.405 247.311 533.013 244.863 533.013 241.836C533.013 239.78 533.293 237.967 533.854 236.398C534.713 233.744 536.208 231.632 538.339 230.063C540.506 228.493 543.067 227.708 546.019 227.708C549.757 227.708 552.747 228.792 554.989 230.96C557.269 233.127 558.652 236.024 559.138 239.649ZM546.075 234.548C543.721 234.548 542.17 235.65 541.422 237.855C541.273 238.341 541.142 238.939 541.03 239.649C541.03 239.836 541.123 239.929 541.31 239.929H551.009C551.233 239.929 551.308 239.836 551.233 239.649C551.046 238.565 550.953 238.042 550.953 238.079C550.616 236.958 550.018 236.099 549.159 235.501C548.336 234.865 547.309 234.548 546.075 234.548ZM564.906 257.028C564.719 257.028 564.551 256.972 564.402 256.86C564.289 256.711 564.233 256.542 564.233 256.355V218.458C564.233 218.271 564.289 218.122 564.402 218.01C564.551 217.86 564.719 217.785 564.906 217.785H571.465C571.652 217.785 571.802 217.86 571.914 218.01C572.063 218.122 572.138 218.271 572.138 218.458V237.351C572.138 237.463 572.175 237.538 572.25 237.575C572.325 237.575 572.4 237.538 572.474 237.463L580.099 228.605C580.36 228.343 580.641 228.213 580.94 228.213H588.396C588.77 228.213 588.956 228.343 588.956 228.605C588.956 228.717 588.9 228.867 588.788 229.054L581.668 238.079C581.594 238.229 581.575 238.36 581.612 238.472L589.966 256.243C590.04 256.393 590.078 256.505 590.078 256.58C590.078 256.879 589.872 257.028 589.461 257.028H582.565C582.192 257.028 581.93 256.86 581.781 256.524L576.231 243.405C576.193 243.331 576.118 243.293 576.006 243.293C575.932 243.256 575.875 243.274 575.838 243.349L572.25 247.834C572.175 247.984 572.138 248.096 572.138 248.171V256.355C572.138 256.542 572.063 256.711 571.914 256.86C571.802 256.972 571.652 257.028 571.465 257.028H564.906Z"></path>
<path fill="url(#paint0_linear_7082_4461)" d="M318.542 309.131C318.356 309.131 318.232 309.049 318.17 308.884L316.933 304.985C316.912 304.923 316.871 304.892 316.809 304.892H307.557C307.495 304.892 307.454 304.923 307.433 304.985L306.196 308.884C306.134 309.049 306.01 309.131 305.824 309.131H304.153C303.926 309.131 303.844 309.018 303.906 308.791L310.744 287.719C310.806 287.554 310.93 287.471 311.115 287.471H313.22C313.405 287.471 313.529 287.554 313.591 287.719L320.46 308.791L320.491 308.915C320.491 309.059 320.398 309.131 320.213 309.131H318.542ZM308.052 302.943C308.032 302.984 308.032 303.025 308.052 303.067C308.093 303.087 308.135 303.097 308.176 303.097H316.159C316.2 303.097 316.231 303.087 316.252 303.067C316.293 303.025 316.304 302.984 316.283 302.943L312.26 290.318C312.24 290.277 312.209 290.256 312.168 290.256C312.126 290.256 312.095 290.277 312.075 290.318L308.052 302.943ZM336.997 297.373C337.306 298.363 337.461 299.673 337.461 301.303C337.461 302.953 337.327 304.232 337.059 305.14C336.687 306.46 336.007 307.502 335.016 308.265C334.047 309.008 332.819 309.379 331.334 309.379C330.53 309.379 329.787 309.224 329.106 308.915C328.426 308.585 327.858 308.121 327.404 307.522C327.363 307.481 327.322 307.471 327.281 307.491C327.26 307.491 327.25 307.512 327.25 307.553V314.825C327.25 315.031 327.147 315.134 326.94 315.134H325.362C325.156 315.134 325.053 315.031 325.053 314.825V293.784C325.053 293.577 325.156 293.474 325.362 293.474H326.94C327.147 293.474 327.25 293.577 327.25 293.784V295.083C327.25 295.125 327.26 295.155 327.281 295.176C327.322 295.176 327.363 295.155 327.404 295.114C327.858 294.516 328.415 294.052 329.075 293.722C329.756 293.392 330.509 293.227 331.334 293.227C332.778 293.227 333.985 293.598 334.955 294.341C335.945 295.083 336.625 296.094 336.997 297.373ZM334.552 305.202C334.779 304.748 334.944 304.242 335.047 303.685C335.171 303.108 335.233 302.314 335.233 301.303C335.233 300.333 335.192 299.58 335.109 299.044C335.027 298.487 334.882 297.992 334.676 297.559C334.429 296.816 333.985 296.228 333.346 295.795C332.727 295.362 331.984 295.145 331.118 295.145C330.292 295.145 329.601 295.362 329.044 295.795C328.487 296.228 328.075 296.806 327.807 297.528C327.621 297.94 327.487 298.425 327.404 298.982C327.322 299.539 327.281 300.313 327.281 301.303C327.281 302.293 327.322 303.077 327.404 303.654C327.487 304.211 327.631 304.707 327.838 305.14C328.085 305.841 328.487 306.408 329.044 306.842C329.622 307.254 330.303 307.46 331.087 307.46C331.912 307.46 332.624 307.254 333.222 306.842C333.841 306.429 334.284 305.882 334.552 305.202ZM348.995 293.32C349.676 293.32 350.264 293.454 350.759 293.722C350.924 293.804 350.986 293.938 350.944 294.124L350.604 295.64C350.542 295.847 350.408 295.908 350.202 295.826C349.851 295.682 349.449 295.609 348.995 295.609L348.593 295.64C347.52 295.682 346.633 296.084 345.932 296.847C345.23 297.59 344.88 298.539 344.88 299.694V308.822C344.88 309.028 344.777 309.131 344.57 309.131H342.992C342.786 309.131 342.683 309.028 342.683 308.822V293.784C342.683 293.577 342.786 293.474 342.992 293.474H344.57C344.777 293.474 344.88 293.577 344.88 293.784V295.671C344.88 295.733 344.89 295.774 344.911 295.795C344.952 295.795 344.983 295.774 345.003 295.733C345.437 294.97 345.983 294.382 346.643 293.969C347.324 293.536 348.108 293.32 348.995 293.32ZM356.213 290.628C355.718 290.628 355.305 290.462 354.975 290.132C354.645 289.802 354.48 289.39 354.48 288.895C354.48 288.379 354.645 287.966 354.975 287.657C355.305 287.327 355.718 287.162 356.213 287.162C356.708 287.162 357.12 287.327 357.45 287.657C357.781 287.966 357.946 288.379 357.946 288.895C357.946 289.39 357.781 289.802 357.45 290.132C357.12 290.462 356.708 290.628 356.213 290.628ZM355.346 309.1C355.14 309.1 355.037 308.997 355.037 308.791V293.753C355.037 293.546 355.14 293.443 355.346 293.443H356.924C357.131 293.443 357.234 293.546 357.234 293.753V308.791C357.234 308.997 357.131 309.1 356.924 309.1H355.346ZM363.697 309.131C363.491 309.131 363.388 309.028 363.388 308.822V287.781C363.388 287.574 363.491 287.471 363.697 287.471H365.275C365.482 287.471 365.585 287.574 365.585 287.781V308.822C365.585 309.028 365.482 309.131 365.275 309.131H363.697ZM380.489 307.058C380.427 307.161 380.448 307.213 380.551 307.213H390.267C390.473 307.213 390.576 307.316 390.576 307.522V308.822C390.576 309.028 390.473 309.131 390.267 309.131H377.921C377.714 309.131 377.611 309.028 377.611 308.822V307.522C377.611 307.378 377.663 307.254 377.766 307.151C378.467 306.326 380.045 304.387 382.5 301.334L384.79 298.487C386.729 296.032 387.699 294.124 387.699 292.763C387.699 291.669 387.327 290.793 386.585 290.132C385.842 289.472 384.872 289.142 383.676 289.142C382.5 289.142 381.551 289.483 380.829 290.163C380.107 290.823 379.757 291.7 379.777 292.794V293.753C379.777 293.959 379.674 294.062 379.468 294.062H377.859C377.652 294.062 377.549 293.959 377.549 293.753V292.515C377.591 290.927 378.178 289.648 379.313 288.678C380.468 287.709 381.923 287.224 383.676 287.224C384.914 287.224 386.007 287.461 386.956 287.935C387.905 288.41 388.637 289.07 389.153 289.916C389.669 290.741 389.926 291.68 389.926 292.732C389.926 294.485 388.957 296.599 387.018 299.075C386.007 300.375 384.058 302.767 381.17 306.254L380.489 307.058ZM407.228 299.663C407.413 300.57 407.506 301.499 407.506 302.448C407.506 303.458 407.413 304.325 407.228 305.047C406.877 306.367 406.176 307.419 405.123 308.203C404.071 308.966 402.803 309.348 401.318 309.348C399.853 309.348 398.605 308.977 397.573 308.234C396.542 307.491 395.841 306.501 395.469 305.263C395.325 304.81 395.232 304.356 395.191 303.902V303.84C395.191 303.675 395.284 303.593 395.469 303.593H397.109C397.316 303.593 397.429 303.696 397.45 303.902C397.45 304.026 397.491 304.232 397.573 304.521C397.78 305.408 398.203 306.12 398.842 306.656C399.502 307.172 400.317 307.429 401.287 307.429C402.277 307.429 403.102 307.151 403.762 306.594C404.443 306.037 404.886 305.274 405.093 304.304C405.216 303.83 405.278 303.211 405.278 302.448C405.278 301.746 405.227 301.076 405.123 300.436C404.979 299.487 404.567 298.765 403.886 298.27C403.205 297.775 402.359 297.528 401.348 297.528C400.441 297.528 399.626 297.734 398.904 298.147C398.182 298.559 397.718 299.106 397.512 299.787C397.45 299.972 397.336 300.065 397.171 300.065H395.5C395.294 300.065 395.191 299.962 395.191 299.756V287.781C395.191 287.574 395.294 287.471 395.5 287.471H406.33C406.537 287.471 406.64 287.574 406.64 287.781V289.08C406.64 289.287 406.537 289.39 406.33 289.39H397.512C397.429 289.39 397.388 289.431 397.388 289.514L397.357 297.002C397.357 297.043 397.367 297.074 397.388 297.095C397.429 297.115 397.47 297.105 397.512 297.064C398.027 296.589 398.636 296.228 399.337 295.981C400.039 295.712 400.781 295.578 401.565 295.578C403.03 295.578 404.267 295.939 405.278 296.661C406.289 297.363 406.939 298.363 407.228 299.663ZM411.333 300.467C411.127 300.467 411.023 300.364 411.023 300.158V298.858C411.023 298.652 411.127 298.549 411.333 298.549H420.492C420.698 298.549 420.801 298.652 420.801 298.858V300.158C420.801 300.364 420.698 300.467 420.492 300.467H411.333ZM427.471 307.058C427.409 307.161 427.43 307.213 427.533 307.213H437.249C437.455 307.213 437.559 307.316 437.559 307.522V308.822C437.559 309.028 437.455 309.131 437.249 309.131H424.903C424.697 309.131 424.594 309.028 424.594 308.822V307.522C424.594 307.378 424.645 307.254 424.748 307.151C425.45 306.326 427.028 304.387 429.483 301.334L431.772 298.487C433.711 296.032 434.681 294.124 434.681 292.763C434.681 291.669 434.31 290.793 433.567 290.132C432.824 289.472 431.855 289.142 430.658 289.142C429.483 289.142 428.534 289.483 427.812 290.163C427.09 290.823 426.739 291.7 426.76 292.794V293.753C426.76 293.959 426.656 294.062 426.45 294.062H424.841C424.635 294.062 424.532 293.959 424.532 293.753V292.515C424.573 290.927 425.161 289.648 426.295 288.678C427.451 287.709 428.905 287.224 430.658 287.224C431.896 287.224 432.989 287.461 433.938 287.935C434.887 288.41 435.62 289.07 436.135 289.916C436.651 290.741 436.909 291.68 436.909 292.732C436.909 294.485 435.939 296.599 434 299.075C432.989 300.375 431.04 302.767 428.152 306.254L427.471 307.058ZM453.87 291.277C454.117 292.102 454.241 293.072 454.241 294.186V303.84C454.241 305.532 453.684 306.883 452.57 307.894C451.456 308.884 450.002 309.379 448.207 309.379C446.474 309.379 445.061 308.894 443.968 307.925C442.895 306.934 442.359 305.655 442.359 304.088V303.654C442.359 303.448 442.462 303.345 442.668 303.345H444.246C444.453 303.345 444.556 303.448 444.556 303.654V303.902C444.556 304.954 444.896 305.81 445.577 306.47C446.258 307.13 447.134 307.46 448.207 307.46C449.321 307.46 450.239 307.12 450.961 306.439C451.683 305.738 452.044 304.82 452.044 303.685V299.168C452.044 299.126 452.023 299.106 451.982 299.106C451.941 299.085 451.91 299.096 451.889 299.137C450.982 300.354 449.62 300.962 447.805 300.962C446.505 300.962 445.412 300.674 444.525 300.096C443.658 299.518 442.998 298.704 442.544 297.652C442.111 296.785 441.895 295.609 441.895 294.124C441.895 292.866 442.049 291.834 442.359 291.03C442.792 289.833 443.483 288.905 444.432 288.245C445.402 287.585 446.588 287.255 447.99 287.255C449.476 287.255 450.724 287.616 451.735 288.338C452.766 289.039 453.478 290.019 453.87 291.277ZM448.083 299.044C448.991 299.044 449.754 298.827 450.373 298.394C451.013 297.94 451.456 297.321 451.704 296.538C451.93 295.939 452.044 295.104 452.044 294.031C452.044 293.144 451.951 292.391 451.765 291.772C451.518 290.989 451.074 290.359 450.435 289.885C449.795 289.41 449.012 289.173 448.083 289.173C447.196 289.173 446.433 289.4 445.793 289.854C445.154 290.287 444.7 290.927 444.432 291.772C444.205 292.35 444.092 293.134 444.092 294.124C444.092 295.176 444.226 296.001 444.494 296.599C444.741 297.342 445.175 297.94 445.793 298.394C446.412 298.827 447.176 299.044 448.083 299.044ZM459.392 311.576C459.289 311.576 459.207 311.545 459.145 311.483C459.104 311.421 459.093 311.339 459.114 311.235L460.475 304.614C460.517 304.428 460.63 304.335 460.816 304.335H462.177C462.28 304.335 462.353 304.366 462.394 304.428C462.456 304.49 462.476 304.572 462.456 304.676L460.723 311.297C460.682 311.483 460.568 311.576 460.383 311.576H459.392ZM477.645 307.058C477.583 307.161 477.603 307.213 477.706 307.213H487.422C487.629 307.213 487.732 307.316 487.732 307.522V308.822C487.732 309.028 487.629 309.131 487.422 309.131H475.076C474.87 309.131 474.767 309.028 474.767 308.822V307.522C474.767 307.378 474.818 307.254 474.922 307.151C475.623 306.326 477.201 304.387 479.656 301.334L481.946 298.487C483.885 296.032 484.854 294.124 484.854 292.763C484.854 291.669 484.483 290.793 483.74 290.132C482.998 289.472 482.028 289.142 480.832 289.142C479.656 289.142 478.707 289.483 477.985 290.163C477.263 290.823 476.912 291.7 476.933 292.794V293.753C476.933 293.959 476.83 294.062 476.623 294.062H475.014C474.808 294.062 474.705 293.959 474.705 293.753V292.515C474.746 290.927 475.334 289.648 476.469 288.678C477.624 287.709 479.078 287.224 480.832 287.224C482.069 287.224 483.163 287.461 484.112 287.935C485.061 288.41 485.793 289.07 486.309 289.916C486.824 290.741 487.082 291.68 487.082 292.732C487.082 294.485 486.113 296.599 484.173 299.075C483.163 300.375 481.213 302.767 478.325 306.254L477.645 307.058ZM498.999 309.441C497.019 309.441 495.441 308.873 494.265 307.739C493.089 306.604 492.501 305.088 492.501 303.19V293.412C492.501 291.515 493.089 290.009 494.265 288.895C495.441 287.76 497.019 287.193 498.999 287.193C501 287.193 502.599 287.76 503.795 288.895C504.992 290.029 505.59 291.535 505.59 293.412V303.19C505.59 305.088 504.992 306.604 503.795 307.739C502.599 308.873 501 309.441 498.999 309.441ZM498.999 307.522C500.319 307.522 501.382 307.141 502.186 306.377C502.991 305.614 503.393 304.593 503.393 303.314V293.32C503.393 292.061 502.991 291.05 502.186 290.287C501.402 289.524 500.34 289.142 498.999 289.142C497.7 289.142 496.658 289.524 495.874 290.287C495.09 291.05 494.698 292.061 494.698 293.32V303.314C494.698 304.593 495.09 305.614 495.874 306.377C496.658 307.141 497.7 307.522 498.999 307.522ZM513.277 307.058C513.215 307.161 513.236 307.213 513.339 307.213H523.055C523.261 307.213 523.365 307.316 523.365 307.522V308.822C523.365 309.028 523.261 309.131 523.055 309.131H510.709C510.503 309.131 510.399 309.028 510.399 308.822V307.522C510.399 307.378 510.451 307.254 510.554 307.151C511.256 306.326 512.834 304.387 515.288 301.334L517.578 298.487C519.517 296.032 520.487 294.124 520.487 292.763C520.487 291.669 520.116 290.793 519.373 290.132C518.63 289.472 517.661 289.142 516.464 289.142C515.288 289.142 514.34 289.483 513.618 290.163C512.896 290.823 512.545 291.7 512.565 292.794V293.753C512.565 293.959 512.462 294.062 512.256 294.062H510.647C510.441 294.062 510.338 293.959 510.338 293.753V292.515C510.379 290.927 510.967 289.648 512.101 288.678C513.257 287.709 514.711 287.224 516.464 287.224C517.702 287.224 518.795 287.461 519.744 287.935C520.693 288.41 521.425 289.07 521.941 289.916C522.457 290.741 522.715 291.68 522.715 292.732C522.715 294.485 521.745 296.599 519.806 299.075C518.795 300.375 516.846 302.767 513.958 306.254L513.277 307.058ZM530.64 307.058C530.578 307.161 530.599 307.213 530.702 307.213H540.418C540.624 307.213 540.728 307.316 540.728 307.522V308.822C540.728 309.028 540.624 309.131 540.418 309.131H528.072C527.866 309.131 527.763 309.028 527.763 308.822V307.522C527.763 307.378 527.814 307.254 527.917 307.151C528.619 306.326 530.197 304.387 532.652 301.334L534.941 298.487C536.88 296.032 537.85 294.124 537.85 292.763C537.85 291.669 537.479 290.793 536.736 290.132C535.993 289.472 535.024 289.142 533.827 289.142C532.652 289.142 531.703 289.483 530.981 290.163C530.259 290.823 529.908 291.7 529.929 292.794V293.753C529.929 293.959 529.825 294.062 529.619 294.062H528.01C527.804 294.062 527.701 293.959 527.701 293.753V292.515C527.742 290.927 528.33 289.648 529.464 288.678C530.62 287.709 532.074 287.224 533.827 287.224C535.065 287.224 536.158 287.461 537.107 287.935C538.056 288.41 538.788 289.07 539.304 289.916C539.82 290.741 540.078 291.68 540.078 292.732C540.078 294.485 539.108 296.599 537.169 299.075C536.158 300.375 534.209 302.767 531.321 306.254L530.64 307.058Z"></path>
<path fill="#A3BFFA" d="M149.565 309.708C143.558 312.049 138.454 312.336 134.252 310.568C130.086 308.893 126.904 305.236 124.706 299.6L113.52 270.909C111.971 266.935 110.125 264.249 107.983 262.849C105.932 261.412 103.403 261.068 100.394 261.815C99.2136 262.063 98.425 261.678 98.0287 260.662L93.3272 248.603C92.8949 247.494 93.2152 246.678 94.288 246.153C97.0084 244.666 98.6371 242.701 99.1742 240.256C99.8037 237.775 99.3619 234.594 97.8488 230.713L86.8787 202.577C84.6811 196.94 84.5486 192.095 86.481 188.042C88.4135 183.988 92.3829 180.791 98.3891 178.449L111.002 173.531C111.464 173.351 111.906 173.392 112.327 173.654C112.805 173.787 113.134 174.084 113.314 174.546L118.556 187.991C118.736 188.453 118.713 188.941 118.488 189.454C118.318 189.84 118.003 190.122 117.541 190.303L113.799 191.762C111.581 192.626 110.085 194.114 109.312 196.225C108.538 198.337 108.674 200.732 109.718 203.412L118.419 225.727C120.184 230.255 120.96 234.157 120.747 237.434C120.499 240.618 119.24 243.397 116.973 245.771C116.526 246.265 116.634 246.542 117.297 246.603C120.609 246.908 123.453 248.195 125.827 250.462C128.202 252.73 130.271 256.128 132.037 260.656L140.953 283.525C142.034 286.297 143.556 288.153 145.518 289.091C147.517 290.121 149.625 290.204 151.842 289.339L155.585 287.88C156.047 287.7 156.47 287.695 156.856 287.864C157.369 288.089 157.716 288.433 157.897 288.895L163.192 302.478C163.373 302.94 163.332 303.382 163.07 303.803C162.937 304.281 162.64 304.61 162.178 304.79L149.565 309.708Z"></path>
<path fill="#7F9CF5" d="M135.178 315.317C129.172 317.658 124.067 317.945 119.865 316.177C115.699 314.502 112.517 310.846 110.32 305.209L99.1334 276.518C97.5843 272.544 95.7384 269.858 93.5958 268.458C91.5456 267.022 89.0162 266.677 86.0076 267.424C84.8267 267.672 84.0381 267.287 83.6418 266.271L78.9404 254.212C78.5081 253.104 78.8283 252.287 79.9011 251.762C82.6215 250.276 84.2503 248.31 84.7874 245.865C85.4168 243.384 84.975 240.203 83.4619 236.322L72.4919 208.186C70.2943 202.549 70.1617 197.704 72.0942 193.651C74.0267 189.597 77.996 186.4 84.0022 184.058L96.6152 179.141C97.0773 178.96 97.5189 179.001 97.9402 179.263C98.4179 179.396 98.7468 179.693 98.927 180.155L104.169 193.6C104.349 194.062 104.326 194.55 104.101 195.064C103.932 195.449 103.616 195.732 103.154 195.912L99.4117 197.371C97.194 198.235 95.6984 199.723 94.9248 201.835C94.1512 203.946 94.2868 206.341 95.3316 209.021L104.032 231.336C105.797 235.864 106.573 239.766 106.361 243.043C106.112 246.227 104.853 249.006 102.586 251.38C102.139 251.874 102.247 252.151 102.91 252.212C106.222 252.517 109.066 253.804 111.44 256.072C113.815 258.339 115.885 261.737 117.65 266.265L126.566 289.135C127.647 291.907 129.169 293.762 131.131 294.7C133.13 295.73 135.238 295.813 137.456 294.948L141.198 293.489C141.66 293.309 142.084 293.304 142.469 293.473C142.983 293.698 143.33 294.042 143.51 294.504L148.806 308.087C148.986 308.549 148.945 308.991 148.683 309.412C148.55 309.89 148.253 310.219 147.791 310.399L135.178 315.317Z"></path>
<path fill="#A3BFFA" d="M709.221 238.615C715.227 240.957 720.331 241.243 724.534 239.475C728.7 237.8 731.882 234.144 734.079 228.507L745.265 199.816C746.815 195.843 748.66 193.156 750.803 191.756C752.853 190.32 755.383 189.975 758.391 190.722C759.572 190.97 760.361 190.586 760.757 189.569L765.458 177.51C765.891 176.402 765.57 175.585 764.498 175.06C761.777 173.574 760.149 171.608 759.611 169.163C758.982 166.682 759.424 163.501 760.937 159.621L771.907 131.484C774.105 125.847 774.237 121.002 772.305 116.949C770.372 112.896 766.403 109.698 760.397 107.356L747.784 102.439C747.322 102.259 746.88 102.299 746.459 102.561C745.981 102.694 745.652 102.991 745.472 103.453L740.23 116.898C740.05 117.36 740.073 117.848 740.298 118.362C740.467 118.747 740.783 119.03 741.245 119.21L744.987 120.669C747.205 121.534 748.7 123.021 749.474 125.133C750.248 127.244 750.112 129.639 749.067 132.319L740.367 154.634C738.602 159.162 737.825 163.064 738.038 166.341C738.287 169.525 739.545 172.304 741.813 174.679C742.259 175.172 742.151 175.449 741.489 175.51C738.176 175.815 735.333 177.102 732.958 179.37C730.584 181.637 728.514 185.035 726.749 189.563L717.832 212.433C716.752 215.205 715.23 217.06 713.267 217.998C711.269 219.028 709.161 219.111 706.943 218.247L703.201 216.787C702.739 216.607 702.315 216.602 701.93 216.771C701.416 216.996 701.069 217.34 700.889 217.802L695.593 231.386C695.413 231.848 695.454 232.289 695.715 232.711C695.848 233.188 696.146 233.517 696.608 233.697L709.221 238.615Z"></path>
<path fill="#7F9CF5" d="M723.608 244.224C729.614 246.566 734.718 246.853 738.92 245.085C743.087 243.409 746.268 239.753 748.466 234.116L759.652 205.425C761.201 201.452 763.047 198.765 765.19 197.365C767.24 195.929 769.769 195.584 772.778 196.332C773.959 196.579 774.748 196.195 775.144 195.178L779.845 183.12C780.278 182.011 779.957 181.194 778.885 180.669C776.164 179.183 774.535 177.217 773.998 174.772C773.369 172.292 773.811 169.111 775.324 165.23L786.294 137.093C788.491 131.456 788.624 126.611 786.691 122.558C784.759 118.505 780.79 115.307 774.783 112.965L762.17 108.048C761.708 107.868 761.267 107.908 760.845 108.17C760.368 108.303 760.039 108.601 759.859 109.063L754.617 122.507C754.437 122.969 754.459 123.457 754.685 123.971C754.854 124.356 755.17 124.639 755.632 124.819L759.374 126.278C761.592 127.143 763.087 128.631 763.861 130.742C764.634 132.853 764.499 135.249 763.454 137.928L754.754 160.244C752.988 164.771 752.212 168.673 752.425 171.95C752.674 175.134 753.932 177.913 756.2 180.288C756.646 180.781 756.538 181.058 755.876 181.119C752.563 181.425 749.72 182.711 747.345 184.979C744.971 187.246 742.901 190.644 741.136 195.172L732.219 218.042C731.138 220.814 729.617 222.669 727.654 223.607C725.656 224.637 723.548 224.72 721.33 223.856L717.588 222.397C717.126 222.216 716.702 222.211 716.317 222.38C715.803 222.606 715.456 222.949 715.276 223.411L709.98 236.995C709.8 237.457 709.841 237.898 710.102 238.32C710.235 238.797 710.533 239.126 710.995 239.306L723.608 244.224Z"></path>
<g filter="url(#filter0_dd_7082_4461)">
<path fill="url(#paint1_linear_7082_4461)" d="M-0.456352 481.333C30.5079 499.21 61.8466 502.9 69.5406 489.573L80.1939 471.121L-31.9376 406.382L-42.5909 424.834C-50.2849 438.16 -31.4206 463.456 -0.456352 481.333Z"></path>
<ellipse fill="url(#paint2_linear_7082_4461)" transform="rotate(30 24.1288 438.751)" ry="22.9455" rx="64.7392" cy="438.751" cx="24.1288"></ellipse>
<ellipse fill-opacity="0.44" fill="url(#paint3_radial_7082_4461)" transform="rotate(30 24.1288 438.751)" ry="22.9455" rx="64.7392" cy="438.751" cx="24.1288"></ellipse>
<path fill="url(#paint4_linear_7082_4461)" d="M14.2942 455.783C43.6906 472.756 72.303 478.232 78.2017 468.015L86.3693 453.868L-20.0847 392.407L-28.2522 406.554C-34.151 416.77 -15.1023 438.811 14.2942 455.783Z"></path>
<path fill-opacity="0.284" fill="#C6D4DB" d="M14.2942 455.783C43.6906 472.756 72.303 478.232 78.2017 468.015L86.3693 453.868L-20.0847 392.407L-28.2522 406.554C-34.151 416.77 -15.1023 438.811 14.2942 455.783Z"></path>
<path fill="url(#paint5_linear_7082_4461)" d="M17.6617 449.95C47.0582 466.922 75.6706 472.398 81.5693 462.182L89.7368 448.035L-16.7172 386.574L-24.8847 400.72C-30.7834 410.937 -11.7347 432.978 17.6617 449.95Z" opacity="0.5"></path>
<path fill="url(#paint6_linear_7082_4461)" d="M19.2111 447.268C50.1753 465.146 80.5516 470.502 87.0584 459.232L98.2223 439.895L-13.9092 375.156L-25.0731 394.492C-31.5799 405.763 -11.7532 429.391 19.2111 447.268Z"></path>
<ellipse fill="url(#paint7_linear_7082_4461)" transform="rotate(30 42.9765 406.105)" ry="24.5845" rx="64.7392" cy="406.105" cx="42.9765"></ellipse>
<ellipse fill-opacity="0.44" fill="url(#paint8_radial_7082_4461)" transform="rotate(30 42.9765 406.105)" ry="24.5845" rx="64.7392" cy="406.105" cx="42.9765"></ellipse>
<path fill="url(#paint9_linear_7082_4461)" d="M32.3223 424.558C61.7188 441.53 90.5391 446.646 96.6943 435.985L105.217 421.223L-1.23706 359.762L-9.75968 374.523C-15.9149 385.185 2.92588 407.586 32.3223 424.558Z"></path>
<path fill-opacity="0.284" fill="#C6D4DB" d="M32.3223 424.558C61.7188 441.53 90.5391 446.646 96.6943 435.985L105.217 421.223L-1.23706 359.762L-9.75968 374.523C-15.9149 385.185 2.92588 407.586 32.3223 424.558Z"></path>
<path fill="url(#paint10_linear_7082_4461)" d="M36.0645 418.076C65.461 435.048 94.2813 440.164 100.436 429.503L108.959 414.741L2.50513 353.28L-6.0175 368.042C-12.1727 378.703 6.66807 401.104 36.0645 418.076Z" opacity="0.5"></path>
<path fill="url(#paint11_linear_7082_4461)" d="M37.6745 415.289C68.6388 433.166 99.0942 438.385 105.699 426.946L117.03 407.32L4.89844 342.58L-6.43291 362.207C-13.0373 373.646 6.71025 397.412 37.6745 415.289Z"></path>
<ellipse fill="url(#paint12_linear_7082_4461)" transform="rotate(30 61.3409 374.301)" ry="23.9167" rx="64.7392" cy="374.301" cx="61.3409"></ellipse>
<path stroke-width="2.24529" stroke-opacity="0.46" stroke="url(#paint13_radial_7082_4461)" d="M116.434 406.109C115.005 408.585 112.218 410.283 108.129 411.088C104.043 411.892 98.7979 411.771 92.7192 410.729C80.571 408.647 65.3417 402.931 49.9439 394.041C34.5461 385.151 21.9811 374.821 14.1041 365.341C10.1626 360.597 7.43517 356.115 6.08873 352.175C4.74125 348.231 4.81787 344.969 6.24742 342.493C7.67698 340.017 10.4637 338.319 14.5526 337.515C18.6385 336.71 23.884 336.831 29.9627 337.873C42.1109 339.955 57.3402 345.671 72.738 354.561C88.1358 363.451 100.701 373.782 108.578 383.261C112.519 388.005 115.247 392.487 116.593 396.428C117.941 400.371 117.864 403.633 116.434 406.109Z"></path>
</g>
<path fill="#EBF4FF" d="M590.339 423.03C593.887 423.03 597.428 423.383 600.905 424.086C603.527 411.001 612.003 399.839 623.904 393.797C635.803 387.755 649.816 387.502 661.928 393.108C672.889 362.916 706.25 347.327 736.442 358.288C766.634 369.249 782.223 402.612 771.262 432.802C797.71 433.638 818.601 455.529 818.205 481.986C817.808 508.445 796.267 529.697 769.805 529.739H590.339C560.875 529.739 536.985 505.852 536.985 476.385C536.985 446.917 560.875 423.03 590.339 423.03V423.03Z" opacity="0.5"></path>
<path fill="#EBF4FF" d="M481.46 443.893C485.008 443.893 488.549 444.246 492.025 444.949C494.647 431.864 503.124 420.702 515.025 414.66C526.923 408.618 540.937 408.365 553.049 413.971C564.01 383.779 597.371 368.19 627.563 379.151C657.755 390.112 673.343 423.475 662.383 453.665C688.83 454.501 709.722 476.392 709.326 502.849C708.928 529.308 687.388 550.56 660.926 550.602H481.46C451.995 550.602 428.105 526.715 428.105 497.248C428.105 467.78 451.995 443.893 481.46 443.893V443.893Z" opacity="0.5"></path>
<path fill="#EBF4FF" d="M84.1537 46.5374C87.3175 46.5374 90.475 46.2227 93.5755 45.5954C95.9135 57.2644 103.472 67.2184 114.085 72.6062C124.696 77.994 137.193 78.22 147.994 73.2208C157.769 100.145 187.519 114.046 214.443 104.272C241.367 94.4974 255.268 64.7452 245.494 37.8231C269.079 37.0776 287.709 17.5561 287.357 -6.03745C287.002 -29.6331 267.793 -48.5843 244.195 -48.6223H84.1537C57.8779 -48.6223 36.5738 -27.3204 36.5738 -1.04249C36.5738 25.2354 57.8779 46.5374 84.1537 46.5374V46.5374Z" opacity="0.5"></path>
<path fill="#EBF4FF" d="M145.802 33.0632C148.966 33.0632 152.123 32.7485 155.224 32.1213C157.562 43.7903 165.121 53.7443 175.734 59.1321C186.345 64.5198 198.842 64.7458 209.643 59.7467C219.417 86.6708 249.167 100.572 276.091 90.7977C303.015 81.0233 316.917 51.2711 307.142 24.349C330.727 23.6035 349.358 4.08194 349.005 -19.5116C348.65 -43.1072 329.441 -62.0585 305.843 -62.0965H145.802C119.526 -62.0965 98.2223 -40.7945 98.2223 -14.5166C98.2223 11.7613 119.526 33.0632 145.802 33.0632V33.0632Z" opacity="0.5"></path>
<path fill="#38A169" d="M132.516 5.23338C126.203 28.7934 111.098 48.4845 89.9748 60.6796C68.8526 72.8712 44.2472 76.1114 20.6903 69.7993C-6.45562 62.5251 -28.4118 43.5398 -39.5498 17.7071C-39.9584 16.7634 -39.5211 15.671 -38.5784 15.2626C-37.6399 14.8567 -36.5462 15.2906 -36.1378 16.2334C-25.453 41.0186 -4.38772 59.2334 21.6518 66.2107C68.3021 78.7101 116.426 50.9258 128.927 4.2717C131.496 -5.3142 132.427 -15.146 131.692 -24.9478C131.614 -25.9752 132.381 -26.8626 133.404 -26.9414C134.43 -27.0203 135.319 -26.2523 135.397 -25.2293C136.164 -15.0067 135.193 -4.7562 132.516 5.23338Z" clip-rule="evenodd" fill-rule="evenodd"></path>
<path fill="#38A169" d="M166.267 -12.8186C166.239 -12.711 166.197 -12.6007 166.145 -12.4943C163.125 -6.22099 158.73 -2.03521 153.082 -0.0665866C142.871 3.49472 132.341 -1.50078 131.898 -1.71586C131.437 -1.93994 131.084 -2.34246 130.931 -2.83238C130.779 -3.3263 130.837 -3.85554 131.089 -4.30444C131.332 -4.73439 137.152 -14.8338 147.579 -17.7058C153.347 -19.2992 159.337 -18.3574 165.391 -14.9125C166.134 -14.49 166.483 -13.622 166.267 -12.8186Z" clip-rule="evenodd" fill-rule="evenodd"></path>
<path fill="#38A169" d="M134.31 -2.97285C134.253 -2.76106 134.159 -2.55665 134.026 -2.37577C133.73 -1.95822 133.271 -1.68048 132.764 -1.61205C132.277 -1.54698 120.713 -0.0647098 112.116 -6.62352C107.359 -10.2559 104.478 -15.5945 103.558 -22.4962C103.431 -23.469 104.072 -24.3664 105.03 -24.5623C111.851 -25.9569 117.839 -24.9893 122.827 -21.6849C131.842 -15.7158 134.238 -4.30224 134.333 -3.82004C134.393 -3.53661 134.384 -3.24545 134.31 -2.97285Z" clip-rule="evenodd" fill-rule="evenodd"></path>
<path fill="#38A169" d="M147.62 46.574C147.51 46.9876 147.251 47.3687 146.873 47.6282C141.122 51.551 135.222 52.977 129.347 51.8596C118.72 49.84 112.099 40.2459 111.824 39.8395C111.537 39.4133 111.433 38.8894 111.548 38.3869C111.664 37.877 111.977 37.4561 112.416 37.1934C112.844 36.9416 122.934 31.1083 133.397 33.8275C139.188 35.3346 143.91 39.1444 147.428 45.1563C147.69 45.5988 147.745 46.1108 147.62 46.574Z" clip-rule="evenodd" fill-rule="evenodd"></path>
<path fill="#38A169" d="M115.3 38.1696C115.136 38.782 115.012 39.1551 114.988 39.2328C114.824 39.7209 114.465 40.1185 114 40.3305C113.533 40.5455 112.998 40.555 112.522 40.3593C112.067 40.1724 101.312 35.6726 97.1459 25.6928C94.8419 20.1739 95.0206 14.108 97.6752 7.67062C98.045 6.76772 99.054 6.30898 99.9773 6.61659C106.583 8.81925 111.286 12.6558 113.954 18.011C117.973 26.0707 116.12 35.1087 115.3 38.1696Z" clip-rule="evenodd" fill-rule="evenodd"></path>
<path fill="#38A169" d="M101.777 88.6839C101.576 89.4325 100.925 89.9959 100.122 90.0575C93.179 90.5799 87.3592 88.8653 82.8242 84.9578C74.6342 77.8989 73.6966 66.2793 73.6633 65.79C73.6253 65.2731 73.7998 64.7723 74.1496 64.3935C74.4995 64.0143 74.9859 63.8 75.5004 63.7937C75.9944 63.7895 87.6499 63.7792 95.353 71.3688C99.6128 75.5703 101.795 81.2293 101.84 88.1937C101.838 88.3651 101.819 88.5284 101.776 88.6857L101.777 88.6839Z" clip-rule="evenodd" fill-rule="evenodd"></path>
<path fill="#38A169" d="M85.6873 52.4099C83.4314 60.8289 77.022 66.5654 76.7066 66.8455C76.3187 67.1848 75.8097 67.3505 75.3019 67.3024C74.7899 67.2528 74.3217 66.9962 74.0055 66.591C73.7054 66.2016 66.6426 56.9242 68.0255 46.1997C68.7865 40.2634 71.9724 35.1038 77.49 30.8562C78.2632 30.2578 79.3687 30.3659 80.0148 31.0958C84.6328 36.3064 86.7874 41.9784 86.4226 47.9472C86.3258 49.5032 86.0659 50.997 85.6873 52.4099Z" clip-rule="evenodd" fill-rule="evenodd"></path>
<path fill="#38A169" d="M43.6139 96.0449C43.0248 98.2435 42.1008 100.452 40.8362 102.674C40.356 103.522 39.2983 103.853 38.4179 103.428C32.1431 100.407 27.9593 96.0138 25.9906 90.3656C22.4276 80.1527 27.4247 69.6249 27.6395 69.1813C27.8644 68.7153 28.2665 68.3677 28.76 68.215C29.2503 68.0606 29.7792 68.1198 30.2285 68.3722C30.6561 68.6142 40.7575 74.4352 43.6305 84.858C44.6384 88.5134 44.63 92.2545 43.6139 96.0449Z" clip-rule="evenodd" fill-rule="evenodd"></path>
<path fill="#38A169" d="M50.3559 54.0309C49.7762 56.1945 48.86 58.2222 47.609 60.111C41.6389 69.1245 30.2265 71.5212 29.7437 71.6165C29.2441 71.7175 28.7197 71.6103 28.2996 71.3097C27.8823 71.0117 27.6043 70.554 27.5358 70.047C27.4708 69.5566 25.9933 57.9935 32.5487 49.3957C36.1793 44.6369 41.5182 41.7616 48.4205 40.8419C49.3884 40.7112 50.2901 41.3553 50.4874 42.3097C51.3538 46.5516 51.3096 50.4717 50.3559 54.0309Z" clip-rule="evenodd" fill-rule="evenodd"></path>
<path fill="#38A169" d="M19.3397 37.153C19.3298 37.1902 19.3212 37.224 19.3072 37.2606C17.1041 43.8662 13.2715 48.5695 7.91267 51.2374C-1.76572 56.0573 -12.8421 52.4283 -13.309 52.2708C-13.798 52.106 -14.1948 51.749 -14.4068 51.2832C-14.6217 50.8129 -14.6313 50.2817 -14.4354 49.8047C-14.249 49.3493 -9.74878 38.5948 0.230974 34.4292C5.75244 32.1259 11.8167 32.3004 18.2541 34.955C19.1195 35.3143 19.5806 36.2559 19.3397 37.153Z" clip-rule="evenodd" fill-rule="evenodd"></path>
<path fill="#38A169" d="M644.755 345.801L644.755 345.917C644.76 346.057 644.78 346.199 644.818 346.338C644.961 346.876 645.339 347.318 645.843 347.549C664.31 355.952 679.651 351.842 691.445 335.33C691.767 334.877 691.871 334.305 691.728 333.77C691.581 333.233 691.205 332.787 690.702 332.559C684.49 329.734 678.634 328.321 673.145 328.321C662.316 328.321 652.926 333.817 645.1 344.778C644.885 345.082 644.767 345.437 644.755 345.801Z" clip-rule="evenodd" fill-rule="evenodd"></path>
<path fill="#38A169" d="M719.487 327.396C743.878 327.396 766.808 336.89 784.054 354.137C801.297 371.384 810.795 394.313 810.795 418.701C810.795 446.804 798.139 472.926 776.069 490.37C775.264 491.009 774.095 490.87 773.457 490.065C772.822 489.263 772.958 488.095 773.763 487.456C794.938 470.721 807.08 445.659 807.08 418.701C807.08 370.405 767.787 331.112 719.487 331.112C709.563 331.112 699.825 332.757 690.547 336.004C689.575 336.345 688.52 335.834 688.179 334.866C687.837 333.895 688.349 332.838 689.316 332.498C698.992 329.111 709.145 327.396 719.487 327.396Z" clip-rule="evenodd" fill-rule="evenodd"></path>
<path fill="#38A169" d="M693.314 299.467C693.426 299.467 693.543 299.478 693.659 299.501C700.5 300.795 705.681 303.956 709.045 308.903C715.127 317.844 713.027 329.308 712.934 329.792C712.837 330.295 712.54 330.74 712.106 331.015C711.668 331.29 711.142 331.371 710.643 331.243C710.165 331.119 698.903 328.112 693.431 318.784C690.399 313.625 689.758 307.594 691.519 300.856C691.734 300.028 692.483 299.466 693.314 299.467Z" clip-rule="evenodd" fill-rule="evenodd"></path>
<path fill="#38A169" d="M711.096 327.787C711.315 327.787 711.537 327.826 711.746 327.907C712.226 328.085 712.613 328.456 712.81 328.929C712.999 329.382 717.424 340.169 713.314 350.17C711.036 355.705 706.625 359.869 700.197 362.544C699.29 362.919 698.257 362.532 697.82 361.657C694.708 355.43 694.093 349.395 695.993 343.722C699.426 333.469 709.83 328.201 710.272 327.984C710.53 327.853 710.813 327.787 711.096 327.787Z" clip-rule="evenodd" fill-rule="evenodd"></path>
<path fill="#38A169" d="M755.509 302.106C755.938 302.106 756.373 302.257 756.721 302.555C761.999 307.096 764.903 312.425 765.344 318.389C766.144 329.176 758.591 338.055 758.269 338.427C757.932 338.814 757.453 339.05 756.938 339.069C756.415 339.089 755.927 338.895 755.56 338.539C755.206 338.191 746.96 329.954 746.879 319.144C746.836 313.161 749.293 307.614 754.19 302.66C754.55 302.292 755.03 302.106 755.509 302.106Z" clip-rule="evenodd" fill-rule="evenodd"></path>
<path fill="#38A169" d="M755.756 335.501C756.391 335.501 756.783 335.524 756.864 335.528C757.378 335.559 757.855 335.803 758.18 336.197C758.509 336.593 758.656 337.107 758.591 337.618C758.528 338.106 756.965 349.659 748.403 356.266C743.669 359.92 737.763 361.317 730.858 360.419C729.891 360.295 729.186 359.439 729.244 358.468C729.662 351.517 732.151 345.982 736.633 342.019C743.378 336.051 752.588 335.501 755.756 335.501Z" clip-rule="evenodd" fill-rule="evenodd"></path>
<path fill="#38A169" d="M808.05 335.49C808.825 335.49 809.538 335.973 809.805 336.732C812.106 343.303 811.957 349.369 809.356 354.761C804.657 364.498 793.676 368.411 793.212 368.57C792.723 368.741 792.194 368.702 791.737 368.462C791.281 368.222 790.948 367.808 790.809 367.312C790.677 366.836 787.65 355.581 792.987 346.176C795.943 340.974 800.844 337.401 807.56 335.555C807.726 335.512 807.889 335.489 808.052 335.489L808.05 335.49Z" clip-rule="evenodd" fill-rule="evenodd"></path>
<path fill="#38A169" d="M777.176 360.419C785.892 360.419 793.092 365.125 793.444 365.358C793.872 365.644 794.164 366.093 794.249 366.596C794.334 367.103 794.207 367.622 793.897 368.032C793.599 368.423 786.466 377.646 775.749 379.086C769.818 379.888 764.009 378.146 758.478 373.916C757.7 373.324 757.519 372.228 758.056 371.415C761.894 365.605 766.815 362.056 772.675 360.864C774.203 360.555 775.713 360.419 777.176 360.419Z" clip-rule="evenodd" fill-rule="evenodd"></path>
<path fill="#38A169" d="M830.214 389.765C832.49 389.765 834.863 390.086 837.336 390.733C838.279 390.977 838.872 391.913 838.69 392.873C837.396 399.716 834.235 404.894 829.289 408.258C820.346 414.343 808.884 412.241 808.4 412.148C807.891 412.051 807.452 411.753 807.176 411.316C806.9 410.882 806.821 410.356 806.948 409.857C807.071 409.381 810.08 398.117 819.404 392.645C822.674 390.725 826.289 389.765 830.214 389.765Z" clip-rule="evenodd" fill-rule="evenodd"></path>
<path fill="#38A169" d="M787.886 394.127C790.126 394.127 792.322 394.487 794.47 395.207C804.722 398.64 809.99 409.044 810.207 409.485C810.434 409.942 810.467 410.476 810.285 410.96C810.105 411.44 809.735 411.827 809.263 412.024C808.806 412.214 798.019 416.634 788.018 412.527C782.481 410.252 778.322 405.839 775.648 399.41C775.271 398.509 775.66 397.471 776.53 397.034C780.404 395.099 784.201 394.127 787.886 394.127Z" clip-rule="evenodd" fill-rule="evenodd"></path>
<path fill="#38A169" d="M819.206 446.092C825.128 446.092 830.62 448.55 835.532 453.404C836.224 454.089 836.271 455.196 835.637 455.935C831.096 461.214 825.767 464.117 819.799 464.558C809.019 465.356 800.136 457.804 799.765 457.483C799.373 457.146 799.142 456.666 799.122 456.151C799.103 455.637 799.292 455.142 799.653 454.774C800 454.422 808.233 446.173 819.048 446.092C819.101 446.092 819.152 446.092 819.206 446.092Z" clip-rule="evenodd" fill-rule="evenodd"></path>
<path fill="#38A169" d="M779.611 428.455C779.65 428.455 779.684 428.454 779.723 428.458C786.674 428.877 792.209 431.361 796.173 435.847C803.334 443.948 802.695 455.586 802.664 456.078C802.631 456.593 802.389 457.069 801.994 457.394C801.595 457.723 801.085 457.87 800.573 457.804C800.085 457.742 788.532 456.179 781.926 447.617C778.272 442.88 776.871 436.977 777.769 430.072C777.892 429.143 778.682 428.454 779.611 428.455Z" clip-rule="evenodd" fill-rule="evenodd"></path>
</g>
<defs>
<filter color-interpolation-filters="sRGB" filterUnits="userSpaceOnUse" height="201.172" width="192.583" y="320.678" x="-59.7178" id="filter0_dd_7082_4461">
<feFlood result="BackgroundImageFix" flood-opacity="0"></feFlood>
<feColorMatrix result="hardAlpha" values="0 0 0 0 0 0 0 0 0 0 0 0 0 0 0 0 0 0 127 0" type="matrix" in="SourceAlpha"></feColorMatrix>
<feOffset dy="5"></feOffset>
<feGaussianBlur stdDeviation="1.5"></feGaussianBlur>
<feColorMatrix values="0 0 0 0 0.0901961 0 0 0 0 0.168627 0 0 0 0 0.301961 0 0 0 0.08 0" type="matrix"></feColorMatrix>
<feBlend result="effect1_dropShadow_7082_4461" in2="BackgroundImageFix" mode="normal"></feBlend>
<feColorMatrix result="hardAlpha" values="0 0 0 0 0 0 0 0 0 0 0 0 0 0 0 0 0 0 127 0" type="matrix" in="SourceAlpha"></feColorMatrix>
<feOffset dy="3"></feOffset>
<feGaussianBlur stdDeviation="1"></feGaussianBlur>
<feColorMatrix values="0 0 0 0 0.0901961 0 0 0 0 0.168627 0 0 0 0 0.301961 0 0 0 0.04 0" type="matrix"></feColorMatrix>
<feBlend result="effect2_dropShadow_7082_4461" in2="effect1_dropShadow_7082_4461" mode="normal"></feBlend>
<feBlend result="shape" in2="effect2_dropShadow_7082_4461" in="SourceGraphic" mode="normal"></feBlend>
</filter>
<linearGradient gradientUnits="userSpaceOnUse" y2="302.89" x2="535.938" y1="302.89" x1="307.206" id="paint0_linear_7082_4461">
<stop stop-color="#5A67D8"></stop>
<stop stop-color="#48BB78" offset="1"></stop>
</linearGradient>
<linearGradient gradientUnits="userSpaceOnUse" y2="464.267" x2="84.1513" y1="399.528" x1="-27.9802" id="paint1_linear_7082_4461">
<stop stop-color="#B4C5CD"></stop>
<stop stop-color="#6C8A98" offset="0.718232"></stop>
<stop stop-color="#6B8692" offset="1"></stop>
</linearGradient>
<linearGradient gradientUnits="userSpaceOnUse" y2="468.338" x2="1.29137" y1="407.279" x1="66.9966" id="paint2_linear_7082_4461">
<stop stop-color="#648697"></stop>
<stop stop-color="#B8CCD5" offset="1"></stop>
</linearGradient>
<radialGradient gradientTransform="translate(-12.1701 461.785) rotate(-140.974) scale(36.6092 31.4134)" gradientUnits="userSpaceOnUse" r="1" cy="0" cx="0" id="paint3_radial_7082_4461">
<stop stop-color="white"></stop>
<stop stop-opacity="0" stop-color="white" offset="1"></stop>
</radialGradient>
<linearGradient gradientUnits="userSpaceOnUse" y2="448.613" x2="89.4033" y1="387.152" x1="-17.0507" id="paint4_linear_7082_4461">
<stop stop-color="#183C56"></stop>
<stop stop-color="#335D7B" offset="0.286458"></stop>
<stop stop-color="#082133" offset="1"></stop>
</linearGradient>
<linearGradient gradientUnits="userSpaceOnUse" y2="442.78" x2="92.7708" y1="381.319" x1="-13.6832" id="paint5_linear_7082_4461">
<stop stop-color="#183C56"></stop>
<stop stop-color="#335D7B" offset="0.286458"></stop>
<stop stop-color="#082133" offset="1"></stop>
</linearGradient>
<linearGradient gradientUnits="userSpaceOnUse" y2="437.83" x2="99.4147" y1="373.091" x1="-12.7168" id="paint6_linear_7082_4461">
<stop stop-color="#B4C5CD"></stop>
<stop stop-color="#6C8A98" offset="0.718232"></stop>
<stop stop-color="#6B8692" offset="1"></stop>
</linearGradient>
<linearGradient gradientUnits="userSpaceOnUse" y2="432.994" x2="15.9655" y1="372.386" x1="85.8443" id="paint7_linear_7082_4461">
<stop stop-color="#648697"></stop>
<stop stop-color="#B8CCD5" offset="1"></stop>
</linearGradient>
<radialGradient gradientTransform="translate(6.67768 430.785) rotate(-139.028) scale(37.6677 32.7114)" gradientUnits="userSpaceOnUse" r="1" cy="0" cx="0" id="paint8_radial_7082_4461">
<stop stop-color="white"></stop>
<stop stop-opacity="0" stop-color="white" offset="1"></stop>
</radialGradient>
<linearGradient gradientUnits="userSpaceOnUse" y2="415.74" x2="108.383" y1="354.278" x1="1.92886" id="paint9_linear_7082_4461">
<stop stop-color="#183C56"></stop>
<stop stop-color="#335D7B" offset="0.286458"></stop>
<stop stop-color="#082133" offset="1"></stop>
</linearGradient>
<linearGradient gradientUnits="userSpaceOnUse" y2="409.258" x2="112.125" y1="347.797" x1="5.67105" id="paint10_linear_7082_4461">
<stop stop-color="#183C56"></stop>
<stop stop-color="#335D7B" offset="0.286458"></stop>
<stop stop-color="#082133" offset="1"></stop>
</linearGradient>
<linearGradient gradientUnits="userSpaceOnUse" y2="405.223" x2="118.24" y1="340.484" x1="6.10867" id="paint11_linear_7082_4461">
<stop stop-color="#B4C5CD"></stop>
<stop stop-color="#6C8A98" offset="0.718232"></stop>
<stop stop-color="#6B8692" offset="1"></stop>
</linearGradient>
<linearGradient gradientUnits="userSpaceOnUse" y2="417.584" x2="48.1552" y1="355.939" x1="105.084" id="paint12_linear_7082_4461">
<stop stop-color="#B9CAD2"></stop>
<stop stop-color="#DBE6EB" offset="1"></stop>
</linearGradient>
<radialGradient gradientTransform="translate(11.3588 368.816) rotate(-4.74319) scale(56.4705 152.858)" gradientUnits="userSpaceOnUse" r="1" cy="0" cx="0" id="paint13_radial_7082_4461">
<stop stop-color="white"></stop>
<stop stop-opacity="0" stop-color="white" offset="1"></stop>
</radialGradient>
<clipPath id="clip0_7082_4461">
<rect fill="white" height="474" width="844"></rect>
</clipPath>
</defs>
</svg>
