<svg xmlns="http://www.w3.org/2000/svg" fill="none" viewBox="0 0 844 474" height="474" width="844">
<g clip-path="url(#clip0_10539_188427)">
<rect fill="url(#paint0_linear_10539_188427)" height="474" width="844"></rect>
<g filter="url(#filter0_dddddd_10539_188427)">
<path fill="#A0AEC0" d="M499.588 390.227C465.028 390.227 437.729 380.644 417.691 361.476C397.943 342.309 388.069 315.881 388.069 282.193V182.872C388.069 150.055 397.943 124.208 417.691 105.331C437.729 86.164 465.028 76.5804 499.588 76.5804C534.147 76.5804 561.446 86.164 581.484 105.331C601.523 124.208 611.542 150.055 611.542 182.872V282.193C611.542 315.591 601.523 342.019 581.484 361.476C561.446 380.644 534.147 390.227 499.588 390.227ZM499.588 320.092C508.881 320.092 516.141 317.188 521.369 311.38C526.887 305.281 529.645 297.005 529.645 286.55V180.258C529.645 169.803 526.887 161.672 521.369 155.863C516.141 149.765 508.881 146.715 499.588 146.715C490.294 146.715 483.034 149.765 477.807 155.863C472.579 161.672 469.965 169.803 469.965 180.258V286.55C469.965 297.005 472.579 305.281 477.807 311.38C483.034 317.188 490.294 320.092 499.588 320.092Z"></path>
</g>
<g filter="url(#filter1_dddddd_10539_188427)">
<path fill="#E2E8F0" d="M477.038 241.681C482.556 253.007 485.315 267.382 485.315 284.807C485.315 301.07 482.556 315.446 477.038 327.934C469.197 345.939 456.128 360.46 437.832 371.496C419.536 382.241 398.626 387.614 375.103 387.614C352.16 387.614 331.686 382.386 313.68 371.931C295.674 361.186 282.606 346.52 274.474 327.934C268.666 315.155 265.762 300.78 265.762 284.807V156.735C265.762 141.052 270.118 127.112 278.83 114.915C287.833 102.718 300.321 93.2791 316.294 86.5996C332.557 79.9201 351.289 76.5804 372.489 76.5804C393.108 76.5804 411.259 79.9201 426.942 86.5996C442.914 93.2791 455.257 102.718 463.969 114.915C472.972 127.112 477.474 141.052 477.474 156.735V171.981C477.474 174.014 476.893 175.612 475.731 176.773C474.569 177.935 472.972 178.516 470.939 178.516H402.111C400.078 178.516 398.481 177.935 397.319 176.773C396.158 175.612 395.577 174.014 395.577 171.981V168.932C395.577 162.833 393.399 157.606 389.042 153.25C384.686 148.893 379.023 146.715 372.053 146.715C365.083 146.715 359.275 148.893 354.628 153.25C349.982 157.606 347.659 162.833 347.659 168.932V197.247C347.659 198.119 347.949 198.699 348.53 198.99C349.111 199.28 349.691 199.135 350.272 198.554C360.727 191.294 374.231 187.664 390.785 187.664C408.791 187.664 425.489 192.31 440.881 201.604C456.564 210.897 468.616 224.256 477.038 241.681ZM396.884 307.024C401.24 301.216 403.418 294.391 403.418 286.55C403.418 278.418 401.24 271.448 396.884 265.64C391.947 259.251 384.977 256.056 375.974 256.056C365.809 256.056 358.404 259.251 353.757 265.64C349.982 270.867 348.094 277.547 348.094 285.678C348.094 294.1 349.982 301.216 353.757 307.024C358.404 313.994 365.519 317.479 375.103 317.479C384.396 317.479 391.656 313.994 396.884 307.024Z"></path>
</g>
<g filter="url(#filter2_dddddd_10539_188427)">
<path fill="white" d="M237.916 390.104C195.48 390.104 163.071 378.477 140.691 355.225C118.31 331.972 107.119 294.041 107.119 241.431V232.712C107.119 194.344 112.497 163.535 123.251 140.282C134.296 116.738 149.992 99.5894 170.338 88.8349C190.684 78.0805 214.518 72.7033 241.84 72.7033C263.93 72.7033 282.823 75.6099 298.519 81.4231C314.505 86.9457 327.149 96.2468 336.45 109.326C346.042 122.406 351.71 140.282 353.454 162.953H267.564C265.529 157.14 262.477 152.78 258.408 149.874C254.339 146.676 248.235 145.078 240.096 145.078C232.248 145.078 225.418 146.967 219.605 150.745C213.792 154.233 209.286 160.483 206.089 169.493C202.892 178.213 201.148 190.857 200.857 207.424C206.961 198.995 215.681 192.746 227.017 188.677C238.352 184.607 251.723 182.573 267.128 182.573C287.474 182.573 304.477 186.787 318.138 195.216C331.799 203.355 342.118 214.691 349.094 229.224C356.36 243.757 359.993 260.034 359.993 278.054V282.85C359.993 304.65 355.052 323.688 345.17 339.965C335.578 355.951 321.626 368.304 303.315 377.024C285.294 385.744 263.494 390.104 237.916 390.104ZM233.556 317.73C243.148 317.73 250.415 314.678 255.356 308.574C260.297 302.179 262.768 294.041 262.768 284.158V279.798C262.768 269.916 260.297 261.923 255.356 255.819C250.415 249.715 243.148 246.663 233.556 246.663C223.674 246.663 216.117 249.715 210.885 255.819C205.944 261.923 203.473 269.916 203.473 279.798V284.158C203.473 294.041 205.944 302.179 210.885 308.574C216.117 314.678 223.674 317.73 233.556 317.73Z"></path>
</g>
<g filter="url(#filter3_dddddd_10539_188427)">
<path fill="white" d="M86.7573 389C84.4513 389 82.9435 387.936 82.2339 385.807L41.5234 255.161C41.346 254.806 41.2573 254.274 41.2573 253.564C41.2573 251.613 42.499 250.637 44.9825 250.637H90.7486C93.232 250.637 94.7398 251.79 95.272 254.096L109.374 320.085C109.552 320.794 109.818 321.149 110.173 321.149C110.527 321.149 110.793 320.794 110.971 320.085L125.073 254.096C125.605 251.79 127.113 250.637 129.597 250.637L175.363 251.17C176.782 251.17 177.757 251.613 178.29 252.5C178.999 253.209 179.176 254.274 178.822 255.693L138.377 385.807C137.668 387.936 136.16 389 133.854 389H86.7573Z"></path>
</g>
<g filter="url(#filter4_dddddd_10539_188427)">
<path fill="white" d="M300.26 391.129C292.987 391.129 286.956 388.823 282.167 384.211C277.555 379.421 275.249 373.39 275.249 366.117C275.249 358.667 277.555 352.635 282.167 348.023C286.956 343.411 292.987 341.105 300.26 341.105C307.533 341.105 313.476 343.411 318.088 348.023C322.877 352.635 325.272 358.667 325.272 366.117C325.272 373.212 322.877 379.155 318.088 383.944C313.298 388.734 307.356 391.129 300.26 391.129Z"></path>
</g>
<g filter="url(#filter5_dddddd_10539_188427)">
<path fill="white" d="M585.634 143.047C584.777 144.327 584.79 145.941 585.668 147.208L601.555 170.148C602.586 171.637 604.573 172.316 606.418 171.809L652.265 159.219C654.767 158.532 656.025 155.978 654.932 153.806L625.459 95.2864C624.022 92.4325 619.689 92.1982 617.895 94.8774L585.634 143.047ZM624.676 108.665C624.05 107.338 621.929 107.542 621.618 108.959L610.271 160.674C610.032 161.764 611.147 162.695 612.312 162.377L643.988 153.722C644.912 153.469 645.389 152.535 645.006 151.724L624.676 108.665Z" clip-rule="evenodd" fill-rule="evenodd"></path>
</g>
<rect fill="#5A67D8" rx="25.9173" height="51.8346" width="200.146" y="199.871" x="585.894"></rect>
<rect stroke-width="1.78898" stroke="#7F9CF5" rx="25.9173" height="51.8346" width="200.146" y="199.871" x="585.894"></rect>
<path fill="white" d="M620.168 221.487C620.168 221.571 620.134 221.646 620.068 221.712C620.017 221.763 619.951 221.788 619.867 221.788H611.652C611.569 221.788 611.527 221.829 611.527 221.913V225.795C611.527 225.878 611.569 225.92 611.652 225.92H617.037C617.12 225.92 617.187 225.954 617.237 226.02C617.304 226.07 617.338 226.137 617.338 226.221V228.65C617.338 228.734 617.304 228.809 617.237 228.876C617.187 228.926 617.12 228.951 617.037 228.951H611.652C611.569 228.951 611.527 228.992 611.527 229.076V233.133C611.527 233.217 611.569 233.259 611.652 233.259H619.867C619.951 233.259 620.017 233.292 620.068 233.359C620.134 233.409 620.168 233.476 620.168 233.559V235.989C620.168 236.072 620.134 236.147 620.068 236.214C620.017 236.264 619.951 236.289 619.867 236.289H608.296C608.213 236.289 608.137 236.264 608.071 236.214C608.021 236.147 607.995 236.072 607.995 235.989V219.058C607.995 218.974 608.021 218.907 608.071 218.857C608.137 218.79 608.213 218.757 608.296 218.757H619.867C619.951 218.757 620.017 218.79 620.068 218.857C620.134 218.907 620.168 218.974 620.168 219.058V221.487ZM628.633 236.489C627.297 236.489 626.128 236.281 625.126 235.863C624.125 235.429 623.348 234.82 622.797 234.035C622.263 233.233 621.996 232.307 621.996 231.255V230.704C621.996 230.62 622.021 230.554 622.071 230.504C622.138 230.437 622.213 230.403 622.296 230.403H625.151C625.235 230.403 625.302 230.437 625.352 230.504C625.419 230.554 625.452 230.62 625.452 230.704V231.08C625.452 231.747 625.761 232.315 626.379 232.783C626.996 233.233 627.831 233.459 628.883 233.459C629.768 233.459 630.428 233.275 630.862 232.908C631.296 232.524 631.513 232.056 631.513 231.505C631.513 231.105 631.379 230.771 631.112 230.504C630.845 230.22 630.478 229.978 630.01 229.777C629.559 229.56 628.833 229.268 627.831 228.901C626.713 228.517 625.761 228.124 624.976 227.723C624.208 227.323 623.557 226.78 623.023 226.095C622.505 225.394 622.246 224.534 622.246 223.516C622.246 222.514 622.505 221.637 623.023 220.886C623.54 220.135 624.258 219.559 625.176 219.158C626.095 218.757 627.155 218.557 628.357 218.557C629.626 218.557 630.753 218.782 631.738 219.233C632.74 219.684 633.517 220.318 634.068 221.136C634.635 221.938 634.919 222.873 634.919 223.942V224.317C634.919 224.401 634.886 224.476 634.819 224.543C634.769 224.593 634.702 224.618 634.619 224.618H631.738C631.655 224.618 631.58 224.593 631.513 224.543C631.463 224.476 631.438 224.401 631.438 224.317V224.117C631.438 223.416 631.146 222.823 630.561 222.339C629.994 221.838 629.209 221.587 628.207 221.587C627.422 221.587 626.804 221.754 626.354 222.088C625.919 222.422 625.702 222.881 625.702 223.466C625.702 223.883 625.828 224.234 626.078 224.518C626.345 224.801 626.729 225.06 627.23 225.294C627.748 225.511 628.541 225.812 629.61 226.196C630.795 226.63 631.722 227.014 632.39 227.348C633.074 227.682 633.684 228.183 634.218 228.85C634.769 229.502 635.044 230.353 635.044 231.405C635.044 232.975 634.468 234.219 633.316 235.137C632.164 236.039 630.603 236.489 628.633 236.489ZM648.788 218.957C648.871 218.824 648.988 218.757 649.138 218.757H652.069C652.152 218.757 652.219 218.79 652.269 218.857C652.336 218.907 652.369 218.974 652.369 219.058V235.989C652.369 236.072 652.336 236.147 652.269 236.214C652.219 236.264 652.152 236.289 652.069 236.289H649.138C649.055 236.289 648.98 236.264 648.913 236.214C648.863 236.147 648.838 236.072 648.838 235.989V224.943C648.838 224.877 648.821 224.843 648.788 224.843C648.754 224.843 648.721 224.868 648.687 224.918L646.033 229.076C645.949 229.209 645.832 229.276 645.682 229.276H644.204C644.054 229.276 643.937 229.209 643.854 229.076L641.199 224.918C641.165 224.868 641.132 224.852 641.099 224.868C641.065 224.868 641.049 224.902 641.049 224.968V235.989C641.049 236.072 641.015 236.147 640.948 236.214C640.898 236.264 640.831 236.289 640.748 236.289H637.818C637.734 236.289 637.659 236.264 637.592 236.214C637.542 236.147 637.517 236.072 637.517 235.989V219.058C637.517 218.974 637.542 218.907 637.592 218.857C637.659 218.79 637.734 218.757 637.818 218.757H640.748C640.898 218.757 641.015 218.824 641.099 218.957L644.855 224.793C644.906 224.893 644.956 224.893 645.006 224.793L648.788 218.957ZM666.446 236.489C665.11 236.489 663.941 236.281 662.939 235.863C661.938 235.429 661.161 234.82 660.61 234.035C660.076 233.233 659.809 232.307 659.809 231.255V230.704C659.809 230.62 659.834 230.554 659.884 230.504C659.951 230.437 660.026 230.403 660.109 230.403H662.964C663.048 230.403 663.115 230.437 663.165 230.504C663.232 230.554 663.265 230.62 663.265 230.704V231.08C663.265 231.747 663.574 232.315 664.192 232.783C664.81 233.233 665.644 233.459 666.696 233.459C667.581 233.459 668.241 233.275 668.675 232.908C669.109 232.524 669.326 232.056 669.326 231.505C669.326 231.105 669.193 230.771 668.925 230.504C668.658 230.22 668.291 229.978 667.823 229.777C667.373 229.56 666.646 229.268 665.644 228.901C664.526 228.517 663.574 228.124 662.789 227.723C662.021 227.323 661.37 226.78 660.836 226.095C660.318 225.394 660.059 224.534 660.059 223.516C660.059 222.514 660.318 221.637 660.836 220.886C661.353 220.135 662.071 219.559 662.99 219.158C663.908 218.757 664.968 218.557 666.17 218.557C667.439 218.557 668.566 218.782 669.552 219.233C670.553 219.684 671.33 220.318 671.881 221.136C672.448 221.938 672.732 222.873 672.732 223.942V224.317C672.732 224.401 672.699 224.476 672.632 224.543C672.582 224.593 672.515 224.618 672.432 224.618H669.552C669.468 224.618 669.393 224.593 669.326 224.543C669.276 224.476 669.251 224.401 669.251 224.317V224.117C669.251 223.416 668.959 222.823 668.374 222.339C667.807 221.838 667.022 221.587 666.02 221.587C665.235 221.587 664.618 221.754 664.167 222.088C663.733 222.422 663.515 222.881 663.515 223.466C663.515 223.883 663.641 224.234 663.891 224.518C664.158 224.801 664.542 225.06 665.043 225.294C665.561 225.511 666.354 225.812 667.423 226.196C668.608 226.63 669.535 227.014 670.203 227.348C670.887 227.682 671.497 228.183 672.031 228.85C672.582 229.502 672.858 230.353 672.858 231.405C672.858 232.975 672.281 234.219 671.129 235.137C669.977 236.039 668.416 236.489 666.446 236.489ZM681.692 236.489C680.406 236.489 679.271 236.239 678.286 235.738C677.317 235.237 676.557 234.536 676.006 233.634C675.472 232.716 675.205 231.664 675.205 230.478V219.058C675.205 218.974 675.23 218.907 675.28 218.857C675.347 218.79 675.422 218.757 675.506 218.757H678.436C678.519 218.757 678.586 218.79 678.636 218.857C678.703 218.907 678.736 218.974 678.736 219.058V230.504C678.736 231.388 679.004 232.106 679.538 232.657C680.089 233.192 680.807 233.459 681.692 233.459C682.577 233.459 683.286 233.192 683.821 232.657C684.372 232.106 684.647 231.388 684.647 230.504V219.058C684.647 218.974 684.672 218.907 684.722 218.857C684.789 218.79 684.864 218.757 684.948 218.757H687.878C687.962 218.757 688.028 218.79 688.078 218.857C688.145 218.907 688.179 218.974 688.179 219.058V230.478C688.179 231.664 687.903 232.716 687.352 233.634C686.818 234.536 686.058 235.237 685.073 235.738C684.105 236.239 682.977 236.489 681.692 236.489ZM698.32 218.732C699.422 218.732 700.39 218.957 701.225 219.408C702.06 219.859 702.703 220.502 703.154 221.337C703.621 222.155 703.855 223.098 703.855 224.167C703.855 225.219 703.613 226.146 703.129 226.947C702.661 227.748 701.993 228.375 701.125 228.825C700.273 229.26 699.288 229.477 698.17 229.477H694.613C694.53 229.477 694.488 229.518 694.488 229.602V235.989C694.488 236.072 694.454 236.147 694.388 236.214C694.338 236.264 694.271 236.289 694.187 236.289H691.257C691.173 236.289 691.098 236.264 691.031 236.214C690.981 236.147 690.956 236.072 690.956 235.989V219.033C690.956 218.949 690.981 218.882 691.031 218.832C691.098 218.765 691.173 218.732 691.257 218.732H698.32ZM697.794 226.646C698.562 226.646 699.18 226.429 699.647 225.995C700.115 225.544 700.348 224.96 700.348 224.242C700.348 223.507 700.115 222.915 699.647 222.464C699.18 222.013 698.562 221.788 697.794 221.788H694.613C694.53 221.788 694.488 221.829 694.488 221.913V226.521C694.488 226.605 694.53 226.646 694.613 226.646H697.794ZM713.264 218.732C714.366 218.732 715.334 218.957 716.169 219.408C717.004 219.859 717.647 220.502 718.098 221.337C718.565 222.155 718.799 223.098 718.799 224.167C718.799 225.219 718.557 226.146 718.073 226.947C717.605 227.748 716.937 228.375 716.069 228.825C715.218 229.26 714.232 229.477 713.114 229.477H709.557C709.474 229.477 709.432 229.518 709.432 229.602V235.989C709.432 236.072 709.399 236.147 709.332 236.214C709.282 236.264 709.215 236.289 709.131 236.289H706.201C706.118 236.289 706.043 236.264 705.976 236.214C705.926 236.147 705.901 236.072 705.901 235.989V219.033C705.901 218.949 705.926 218.882 705.976 218.832C706.043 218.765 706.118 218.732 706.201 218.732H713.264ZM712.738 226.646C713.506 226.646 714.124 226.429 714.591 225.995C715.059 225.544 715.293 224.96 715.293 224.242C715.293 223.507 715.059 222.915 714.591 222.464C714.124 222.013 713.506 221.788 712.738 221.788H709.557C709.474 221.788 709.432 221.829 709.432 221.913V226.521C709.432 226.605 709.474 226.646 709.557 226.646H712.738ZM727.206 236.565C725.904 236.565 724.752 236.297 723.75 235.763C722.765 235.229 721.997 234.486 721.446 233.534C720.895 232.566 720.619 231.455 720.619 230.203V224.843C720.619 223.608 720.895 222.514 721.446 221.562C721.997 220.61 722.765 219.876 723.75 219.358C724.752 218.824 725.904 218.557 727.206 218.557C728.526 218.557 729.678 218.824 730.663 219.358C731.665 219.876 732.441 220.61 732.992 221.562C733.543 222.514 733.819 223.608 733.819 224.843V230.203C733.819 231.455 733.543 232.566 732.992 233.534C732.441 234.502 731.665 235.254 730.663 235.788C729.678 236.306 728.526 236.565 727.206 236.565ZM727.206 233.534C728.125 233.534 728.868 233.242 729.436 232.657C730.003 232.073 730.287 231.297 730.287 230.328V224.818C730.287 223.85 730.003 223.073 729.436 222.489C728.885 221.888 728.141 221.587 727.206 221.587C726.288 221.587 725.545 221.888 724.977 222.489C724.426 223.073 724.151 223.85 724.151 224.818V230.328C724.151 231.297 724.426 232.073 724.977 232.657C725.545 233.242 726.288 233.534 727.206 233.534ZM746.143 236.289C745.976 236.289 745.859 236.214 745.793 236.064L742.662 229.126C742.629 229.059 742.578 229.026 742.512 229.026H740.182C740.099 229.026 740.057 229.068 740.057 229.151V235.989C740.057 236.072 740.024 236.147 739.957 236.214C739.907 236.264 739.84 236.289 739.757 236.289H736.826C736.743 236.289 736.668 236.264 736.601 236.214C736.551 236.147 736.526 236.072 736.526 235.989V219.058C736.526 218.974 736.551 218.907 736.601 218.857C736.668 218.79 736.743 218.757 736.826 218.757H743.989C745.058 218.757 745.993 218.974 746.795 219.408C747.613 219.842 748.239 220.46 748.673 221.262C749.124 222.063 749.349 222.99 749.349 224.042C749.349 225.177 749.065 226.154 748.498 226.972C747.93 227.774 747.137 228.341 746.118 228.675C746.035 228.709 746.01 228.767 746.043 228.85L749.449 235.938C749.483 236.005 749.499 236.055 749.499 236.089C749.499 236.222 749.408 236.289 749.224 236.289H746.143ZM740.182 221.788C740.099 221.788 740.057 221.829 740.057 221.913V226.196C740.057 226.279 740.099 226.321 740.182 226.321H743.463C744.165 226.321 744.732 226.112 745.167 225.695C745.617 225.277 745.843 224.735 745.843 224.067C745.843 223.399 745.617 222.856 745.167 222.439C744.732 222.005 744.165 221.788 743.463 221.788H740.182ZM763.983 218.757C764.066 218.757 764.133 218.79 764.183 218.857C764.25 218.907 764.283 218.974 764.283 219.058V221.512C764.283 221.596 764.25 221.671 764.183 221.738C764.133 221.788 764.066 221.813 763.983 221.813H759.5C759.416 221.813 759.374 221.854 759.374 221.938V235.989C759.374 236.072 759.341 236.147 759.274 236.214C759.224 236.264 759.157 236.289 759.074 236.289H756.144C756.06 236.289 755.985 236.264 755.918 236.214C755.868 236.147 755.843 236.072 755.843 235.989V221.938C755.843 221.854 755.801 221.813 755.718 221.813H751.36C751.276 221.813 751.201 221.788 751.134 221.738C751.084 221.671 751.059 221.596 751.059 221.512V219.058C751.059 218.974 751.084 218.907 751.134 218.857C751.201 218.79 751.276 218.757 751.36 218.757H763.983Z"></path>
<g filter="url(#filter6_dddddd_10539_188427)">
<rect fill="#5A67D8" rx="26.8118" height="53.6236" width="210.935" y="267.148" x="585"></rect>
<rect stroke-width="1.78898" stroke="#7F9CF5" rx="25.9173" height="51.8346" width="209.146" y="268.043" x="585.894"></rect>
<path fill="white" d="M608.296 304.461C608.213 304.461 608.137 304.436 608.071 304.386C608.021 304.319 607.995 304.244 607.995 304.16V287.23C607.995 287.146 608.021 287.079 608.071 287.029C608.137 286.962 608.213 286.929 608.296 286.929H614.557C615.81 286.929 616.903 287.154 617.838 287.605C618.79 288.039 619.525 288.657 620.042 289.459C620.56 290.26 620.819 291.187 620.819 292.239V299.151C620.819 300.203 620.56 301.13 620.042 301.931C619.525 302.733 618.79 303.359 617.838 303.81C616.903 304.244 615.81 304.461 614.557 304.461H608.296ZM611.527 301.305C611.527 301.389 611.569 301.43 611.652 301.43H614.683C615.451 301.43 616.069 301.172 616.536 300.654C617.02 300.136 617.271 299.443 617.287 298.575V292.815C617.287 291.946 617.045 291.254 616.561 290.736C616.094 290.218 615.459 289.959 614.658 289.959H611.652C611.569 289.959 611.527 290.001 611.527 290.085V301.305ZM625.707 287.004C625.79 286.954 625.916 286.929 626.083 286.929H629.113C629.197 286.929 629.263 286.962 629.313 287.029C629.38 287.079 629.414 287.146 629.414 287.23V304.16C629.414 304.244 629.38 304.319 629.313 304.386C629.263 304.436 629.197 304.461 629.113 304.461H626.183C626.099 304.461 626.024 304.436 625.957 304.386C625.907 304.319 625.882 304.244 625.882 304.16V290.435C625.882 290.402 625.866 290.369 625.832 290.335C625.799 290.302 625.765 290.293 625.732 290.31L623.252 290.986L623.152 291.011C623.002 291.011 622.927 290.92 622.927 290.736L622.852 288.582C622.852 288.415 622.927 288.298 623.077 288.231L625.707 287.004ZM648.616 287.129C648.7 286.996 648.817 286.929 648.967 286.929H651.897C651.981 286.929 652.048 286.962 652.098 287.029C652.165 287.079 652.198 287.146 652.198 287.23V304.16C652.198 304.244 652.165 304.319 652.098 304.386C652.048 304.436 651.981 304.461 651.897 304.461H648.967C648.884 304.461 648.808 304.436 648.742 304.386C648.692 304.319 648.667 304.244 648.667 304.16V293.115C648.667 293.048 648.65 293.015 648.616 293.015C648.583 293.015 648.55 293.04 648.516 293.09L645.861 297.248C645.778 297.381 645.661 297.448 645.511 297.448H644.033C643.883 297.448 643.766 297.381 643.682 297.248L641.028 293.09C640.994 293.04 640.961 293.023 640.927 293.04C640.894 293.04 640.877 293.074 640.877 293.14V304.16C640.877 304.244 640.844 304.319 640.777 304.386C640.727 304.436 640.66 304.461 640.577 304.461H637.646C637.563 304.461 637.488 304.436 637.421 304.386C637.371 304.319 637.346 304.244 637.346 304.16V287.23C637.346 287.146 637.371 287.079 637.421 287.029C637.488 286.962 637.563 286.929 637.646 286.929H640.577C640.727 286.929 640.844 286.996 640.927 287.129L644.684 292.965C644.734 293.065 644.784 293.065 644.835 292.965L648.616 287.129ZM655.55 304.461C655.467 304.461 655.392 304.436 655.325 304.386C655.275 304.319 655.25 304.244 655.25 304.16V287.23C655.25 287.146 655.275 287.079 655.325 287.029C655.392 286.962 655.467 286.929 655.55 286.929H658.481C658.564 286.929 658.631 286.962 658.681 287.029C658.748 287.079 658.781 287.146 658.781 287.23V304.16C658.781 304.244 658.748 304.319 658.681 304.386C658.631 304.436 658.564 304.461 658.481 304.461H655.55ZM667.99 304.661C666.705 304.661 665.569 304.402 664.584 303.885C663.599 303.367 662.831 302.649 662.28 301.731C661.746 300.796 661.478 299.719 661.478 298.5V292.89C661.478 291.671 661.746 290.594 662.28 289.659C662.831 288.724 663.599 288.006 664.584 287.505C665.569 286.987 666.705 286.729 667.99 286.729C669.259 286.729 670.378 286.979 671.346 287.48C672.332 287.981 673.091 288.665 673.626 289.534C674.177 290.385 674.452 291.337 674.452 292.389V292.564C674.452 292.648 674.419 292.723 674.352 292.79C674.302 292.84 674.235 292.865 674.151 292.865H671.221C671.138 292.865 671.063 292.84 670.996 292.79C670.946 292.723 670.921 292.648 670.921 292.564V292.489C670.921 291.721 670.653 291.078 670.119 290.561C669.585 290.026 668.875 289.759 667.99 289.759C667.089 289.759 666.362 290.043 665.811 290.611C665.277 291.162 665.01 291.888 665.01 292.79V298.6C665.01 299.502 665.302 300.237 665.886 300.804C666.471 301.355 667.214 301.631 668.115 301.631C668.984 301.631 669.677 301.405 670.194 300.955C670.712 300.487 670.971 299.844 670.971 299.026V297.899C670.971 297.815 670.929 297.774 670.845 297.774H668.04C667.957 297.774 667.882 297.749 667.815 297.699C667.765 297.632 667.74 297.557 667.74 297.473V295.169C667.74 295.086 667.765 295.019 667.815 294.969C667.882 294.902 667.957 294.868 668.04 294.868H674.151C674.235 294.868 674.302 294.902 674.352 294.969C674.419 295.019 674.452 295.086 674.452 295.169V298.475C674.452 299.744 674.185 300.846 673.651 301.781C673.116 302.716 672.357 303.434 671.371 303.935C670.403 304.419 669.276 304.661 667.99 304.661ZM686.782 304.461C686.615 304.461 686.498 304.386 686.432 304.236L683.301 297.298C683.267 297.231 683.217 297.198 683.151 297.198H680.821C680.738 297.198 680.696 297.239 680.696 297.323V304.16C680.696 304.244 680.663 304.319 680.596 304.386C680.546 304.436 680.479 304.461 680.395 304.461H677.465C677.382 304.461 677.307 304.436 677.24 304.386C677.19 304.319 677.165 304.244 677.165 304.16V287.23C677.165 287.146 677.19 287.079 677.24 287.029C677.307 286.962 677.382 286.929 677.465 286.929H684.628C685.697 286.929 686.632 287.146 687.433 287.58C688.251 288.014 688.878 288.632 689.312 289.434C689.763 290.235 689.988 291.162 689.988 292.214C689.988 293.349 689.704 294.326 689.136 295.144C688.569 295.945 687.776 296.513 686.757 296.847C686.674 296.88 686.649 296.939 686.682 297.022L690.088 304.11C690.122 304.177 690.138 304.227 690.138 304.261C690.138 304.394 690.046 304.461 689.863 304.461H686.782ZM680.821 289.959C680.738 289.959 680.696 290.001 680.696 290.085V294.368C680.696 294.451 680.738 294.493 680.821 294.493H684.102C684.804 294.493 685.371 294.284 685.805 293.867C686.256 293.449 686.482 292.907 686.482 292.239C686.482 291.571 686.256 291.028 685.805 290.611C685.371 290.177 684.804 289.959 684.102 289.959H680.821ZM704.061 304.461C703.894 304.461 703.786 304.377 703.736 304.21L702.984 301.756C702.951 301.689 702.909 301.656 702.859 301.656H696.698C696.648 301.656 696.606 301.689 696.573 301.756L695.846 304.21C695.796 304.377 695.688 304.461 695.521 304.461H692.34C692.24 304.461 692.165 304.436 692.115 304.386C692.064 304.319 692.056 304.227 692.089 304.11L697.499 287.179C697.549 287.012 697.658 286.929 697.825 286.929H701.757C701.924 286.929 702.033 287.012 702.083 287.179L707.493 304.11C707.509 304.144 707.518 304.185 707.518 304.236C707.518 304.386 707.426 304.461 707.242 304.461H704.061ZM697.474 298.776C697.458 298.876 697.491 298.926 697.574 298.926H701.983C702.083 298.926 702.116 298.876 702.083 298.776L699.829 291.337C699.812 291.27 699.787 291.245 699.753 291.262C699.72 291.262 699.695 291.287 699.678 291.337L697.474 298.776ZM719.664 286.929C719.747 286.929 719.814 286.962 719.864 287.029C719.931 287.079 719.964 287.146 719.964 287.23V289.684C719.964 289.767 719.931 289.843 719.864 289.909C719.814 289.959 719.747 289.985 719.664 289.985H715.181C715.097 289.985 715.055 290.026 715.055 290.11V304.16C715.055 304.244 715.022 304.319 714.955 304.386C714.905 304.436 714.838 304.461 714.755 304.461H711.824C711.741 304.461 711.666 304.436 711.599 304.386C711.549 304.319 711.524 304.244 711.524 304.16V290.11C711.524 290.026 711.482 289.985 711.399 289.985H707.041C706.957 289.985 706.882 289.959 706.815 289.909C706.765 289.843 706.74 289.767 706.74 289.684V287.23C706.74 287.146 706.765 287.079 706.815 287.029C706.882 286.962 706.957 286.929 707.041 286.929H719.664ZM722.518 304.461C722.435 304.461 722.359 304.436 722.293 304.386C722.243 304.319 722.217 304.244 722.217 304.16V287.23C722.217 287.146 722.243 287.079 722.293 287.029C722.359 286.962 722.435 286.929 722.518 286.929H725.448C725.532 286.929 725.599 286.962 725.649 287.029C725.716 287.079 725.749 287.146 725.749 287.23V304.16C725.749 304.244 725.716 304.319 725.649 304.386C725.599 304.436 725.532 304.461 725.448 304.461H722.518ZM735.033 304.736C733.731 304.736 732.579 304.469 731.577 303.935C730.592 303.401 729.824 302.658 729.273 301.706C728.722 300.737 728.446 299.627 728.446 298.375V293.015C728.446 291.779 728.722 290.686 729.273 289.734C729.824 288.782 730.592 288.048 731.577 287.53C732.579 286.996 733.731 286.729 735.033 286.729C736.352 286.729 737.504 286.996 738.49 287.53C739.491 288.048 740.268 288.782 740.819 289.734C741.37 290.686 741.645 291.779 741.645 293.015V298.375C741.645 299.627 741.37 300.737 740.819 301.706C740.268 302.674 739.491 303.426 738.49 303.96C737.504 304.478 736.352 304.736 735.033 304.736ZM735.033 301.706C735.952 301.706 736.695 301.414 737.262 300.829C737.83 300.245 738.114 299.468 738.114 298.5V292.99C738.114 292.022 737.83 291.245 737.262 290.661C736.711 290.06 735.968 289.759 735.033 289.759C734.115 289.759 733.372 290.06 732.804 290.661C732.253 291.245 731.978 292.022 731.978 292.99V298.5C731.978 299.468 732.253 300.245 732.804 300.829C733.372 301.414 734.115 301.706 735.033 301.706ZM754.421 287.23C754.421 287.146 754.446 287.079 754.496 287.029C754.563 286.962 754.638 286.929 754.721 286.929H757.652C757.735 286.929 757.802 286.962 757.852 287.029C757.919 287.079 757.952 287.146 757.952 287.23V304.16C757.952 304.244 757.919 304.319 757.852 304.386C757.802 304.436 757.735 304.461 757.652 304.461H754.822C754.655 304.461 754.538 304.394 754.471 304.261L747.984 293.541C747.951 293.491 747.917 293.474 747.884 293.491C747.851 293.491 747.834 293.524 747.834 293.591L747.884 304.16C747.884 304.244 747.851 304.319 747.784 304.386C747.734 304.436 747.667 304.461 747.583 304.461H744.653C744.57 304.461 744.494 304.436 744.428 304.386C744.378 304.319 744.353 304.244 744.353 304.16V287.23C744.353 287.146 744.378 287.079 744.428 287.029C744.494 286.962 744.57 286.929 744.653 286.929H747.483C747.65 286.929 747.767 286.996 747.834 287.129L754.296 297.799C754.329 297.849 754.362 297.874 754.396 297.874C754.429 297.857 754.446 297.815 754.446 297.749L754.421 287.23ZM767.02 304.661C765.684 304.661 764.515 304.453 763.513 304.035C762.512 303.601 761.735 302.992 761.184 302.207C760.65 301.405 760.383 300.479 760.383 299.427V298.876C760.383 298.792 760.408 298.725 760.458 298.675C760.525 298.609 760.6 298.575 760.683 298.575H763.539C763.622 298.575 763.689 298.609 763.739 298.675C763.806 298.725 763.839 298.792 763.839 298.876V299.251C763.839 299.919 764.148 300.487 764.766 300.955C765.384 301.405 766.218 301.631 767.27 301.631C768.155 301.631 768.815 301.447 769.249 301.08C769.683 300.696 769.9 300.228 769.9 299.677C769.9 299.276 769.767 298.943 769.499 298.675C769.232 298.392 768.865 298.149 768.397 297.949C767.947 297.732 767.22 297.44 766.218 297.072C765.1 296.688 764.148 296.296 763.363 295.895C762.595 295.495 761.944 294.952 761.41 294.267C760.892 293.566 760.633 292.706 760.633 291.688C760.633 290.686 760.892 289.809 761.41 289.058C761.927 288.306 762.645 287.73 763.564 287.33C764.482 286.929 765.542 286.729 766.744 286.729C768.013 286.729 769.14 286.954 770.126 287.405C771.127 287.856 771.904 288.49 772.455 289.308C773.022 290.11 773.306 291.045 773.306 292.113V292.489C773.306 292.573 773.273 292.648 773.206 292.715C773.156 292.765 773.089 292.79 773.006 292.79H770.126C770.042 292.79 769.967 292.765 769.9 292.715C769.85 292.648 769.825 292.573 769.825 292.489V292.289C769.825 291.587 769.533 290.995 768.948 290.51C768.381 290.01 767.596 289.759 766.594 289.759C765.809 289.759 765.192 289.926 764.741 290.26C764.307 290.594 764.09 291.053 764.09 291.638C764.09 292.055 764.215 292.406 764.465 292.689C764.732 292.973 765.116 293.232 765.617 293.466C766.135 293.683 766.928 293.983 767.997 294.368C769.182 294.802 770.109 295.186 770.777 295.52C771.461 295.854 772.071 296.354 772.605 297.022C773.156 297.674 773.432 298.525 773.432 299.577C773.432 301.147 772.856 302.39 771.703 303.309C770.551 304.21 768.99 304.661 767.02 304.661Z"></path>
</g>
<g filter="url(#filter7_dddddd_10539_188427)">
<rect fill="#5A67D8" rx="26.8118" height="53.6236" width="185.935" y="335.32" x="585"></rect>
<rect stroke-width="1.78898" stroke="#7F9CF5" rx="25.9173" height="51.8346" width="184.146" y="336.215" x="585.894"></rect>
<path fill="white" d="M619.266 355.301C619.35 355.168 619.466 355.101 619.617 355.101H622.547C622.631 355.101 622.697 355.134 622.747 355.201C622.814 355.251 622.848 355.318 622.848 355.401V372.332C622.848 372.416 622.814 372.491 622.747 372.558C622.697 372.608 622.631 372.633 622.547 372.633H619.617C619.533 372.633 619.458 372.608 619.391 372.558C619.341 372.491 619.316 372.416 619.316 372.332V361.287C619.316 361.22 619.299 361.187 619.266 361.187C619.233 361.187 619.199 361.212 619.166 361.262L616.511 365.42C616.428 365.553 616.311 365.62 616.16 365.62H614.683C614.532 365.62 614.416 365.553 614.332 365.42L611.677 361.262C611.644 361.212 611.61 361.195 611.577 361.212C611.544 361.212 611.527 361.245 611.527 361.312V372.332C611.527 372.416 611.494 372.491 611.427 372.558C611.377 372.608 611.31 372.633 611.226 372.633H608.296C608.213 372.633 608.137 372.608 608.071 372.558C608.021 372.491 607.995 372.416 607.995 372.332V355.401C607.995 355.318 608.021 355.251 608.071 355.201C608.137 355.134 608.213 355.101 608.296 355.101H611.226C611.377 355.101 611.494 355.168 611.577 355.301L615.334 361.137C615.384 361.237 615.434 361.237 615.484 361.137L619.266 355.301ZM632.06 372.833C630.758 372.833 629.614 372.583 628.629 372.082C627.644 371.564 626.884 370.846 626.35 369.928C625.816 369.01 625.549 367.949 625.549 366.747V360.962C625.549 359.759 625.816 358.699 626.35 357.781C626.884 356.862 627.644 356.153 628.629 355.652C629.614 355.151 630.758 354.9 632.06 354.9C633.346 354.9 634.473 355.143 635.442 355.627C636.427 356.094 637.186 356.771 637.721 357.655C638.272 358.524 638.547 359.534 638.547 360.686C638.547 360.836 638.447 360.928 638.247 360.962L635.316 361.137H635.266C635.099 361.137 635.016 361.045 635.016 360.861C635.016 359.976 634.74 359.267 634.189 358.732C633.655 358.198 632.945 357.931 632.06 357.931C631.159 357.931 630.433 358.198 629.882 358.732C629.347 359.267 629.08 359.976 629.08 360.861V366.897C629.08 367.766 629.347 368.467 629.882 369.001C630.433 369.535 631.159 369.803 632.06 369.803C632.945 369.803 633.655 369.535 634.189 369.001C634.74 368.467 635.016 367.766 635.016 366.897C635.016 366.714 635.116 366.622 635.316 366.622L638.247 366.747C638.33 366.747 638.397 366.772 638.447 366.822C638.514 366.872 638.547 366.931 638.547 366.998C638.547 368.15 638.272 369.168 637.721 370.053C637.186 370.938 636.427 371.623 635.442 372.107C634.473 372.591 633.346 372.833 632.06 372.833ZM648.375 355.076C649.477 355.076 650.446 355.301 651.28 355.752C652.115 356.203 652.758 356.846 653.209 357.681C653.677 358.499 653.91 359.442 653.91 360.511C653.91 361.563 653.668 362.489 653.184 363.291C652.716 364.092 652.049 364.718 651.18 365.169C650.329 365.603 649.344 365.82 648.225 365.82H644.668C644.585 365.82 644.543 365.862 644.543 365.946V372.332C644.543 372.416 644.51 372.491 644.443 372.558C644.393 372.608 644.326 372.633 644.243 372.633H641.312C641.229 372.633 641.154 372.608 641.087 372.558C641.037 372.491 641.012 372.416 641.012 372.332V355.376C641.012 355.293 641.037 355.226 641.087 355.176C641.154 355.109 641.229 355.076 641.312 355.076H648.375ZM647.849 362.99C648.617 362.99 649.235 362.773 649.703 362.339C650.17 361.888 650.404 361.304 650.404 360.586C650.404 359.851 650.17 359.258 649.703 358.808C649.235 358.357 648.617 358.131 647.849 358.131H644.668C644.585 358.131 644.543 358.173 644.543 358.257V362.865C644.543 362.948 644.585 362.99 644.668 362.99H647.849ZM667.106 372.833C665.77 372.833 664.602 372.624 663.6 372.207C662.598 371.773 661.822 371.163 661.271 370.379C660.736 369.577 660.469 368.651 660.469 367.599V367.048C660.469 366.964 660.494 366.897 660.544 366.847C660.611 366.78 660.686 366.747 660.77 366.747H663.625C663.708 366.747 663.775 366.78 663.825 366.847C663.892 366.897 663.925 366.964 663.925 367.048V367.423C663.925 368.091 664.234 368.659 664.852 369.126C665.47 369.577 666.305 369.803 667.357 369.803C668.242 369.803 668.901 369.619 669.335 369.252C669.769 368.868 669.986 368.4 669.986 367.849C669.986 367.448 669.853 367.114 669.586 366.847C669.319 366.563 668.951 366.321 668.484 366.121C668.033 365.904 667.307 365.612 666.305 365.244C665.186 364.86 664.234 364.468 663.45 364.067C662.681 363.666 662.03 363.124 661.496 362.439C660.978 361.738 660.72 360.878 660.72 359.86C660.72 358.858 660.978 357.981 661.496 357.23C662.014 356.478 662.732 355.902 663.65 355.502C664.568 355.101 665.629 354.9 666.831 354.9C668.1 354.9 669.227 355.126 670.212 355.577C671.214 356.028 671.99 356.662 672.541 357.48C673.109 358.282 673.393 359.217 673.393 360.285V360.661C673.393 360.744 673.359 360.82 673.293 360.886C673.242 360.936 673.176 360.962 673.092 360.962H670.212C670.128 360.962 670.053 360.936 669.986 360.886C669.936 360.82 669.911 360.744 669.911 360.661V360.461C669.911 359.759 669.619 359.167 669.035 358.682C668.467 358.181 667.682 357.931 666.68 357.931C665.896 357.931 665.278 358.098 664.827 358.432C664.393 358.766 664.176 359.225 664.176 359.809C664.176 360.227 664.301 360.577 664.552 360.861C664.819 361.145 665.203 361.404 665.704 361.638C666.221 361.855 667.014 362.155 668.083 362.539C669.268 362.974 670.195 363.358 670.863 363.692C671.548 364.025 672.157 364.526 672.691 365.194C673.242 365.845 673.518 366.697 673.518 367.749C673.518 369.318 672.942 370.562 671.79 371.481C670.638 372.382 669.076 372.833 667.106 372.833ZM688.163 357.831C688.163 357.914 688.129 357.989 688.063 358.056C688.013 358.106 687.946 358.131 687.862 358.131H679.647C679.564 358.131 679.522 358.173 679.522 358.257V362.139C679.522 362.222 679.564 362.264 679.647 362.264H685.032C685.116 362.264 685.182 362.297 685.232 362.364C685.299 362.414 685.333 362.481 685.333 362.564V364.994C685.333 365.077 685.299 365.153 685.232 365.219C685.182 365.269 685.116 365.294 685.032 365.294H679.647C679.564 365.294 679.522 365.336 679.522 365.42V369.477C679.522 369.561 679.564 369.602 679.647 369.602H687.862C687.946 369.602 688.013 369.636 688.063 369.702C688.129 369.753 688.163 369.819 688.163 369.903V372.332C688.163 372.416 688.129 372.491 688.063 372.558C688.013 372.608 687.946 372.633 687.862 372.633H676.291C676.208 372.633 676.133 372.608 676.066 372.558C676.016 372.491 675.991 372.416 675.991 372.332V355.401C675.991 355.318 676.016 355.251 676.066 355.201C676.133 355.134 676.208 355.101 676.291 355.101H687.862C687.946 355.101 688.013 355.134 688.063 355.201C688.129 355.251 688.163 355.318 688.163 355.401V357.831ZM700.234 372.633C700.067 372.633 699.951 372.558 699.884 372.407L696.753 365.47C696.72 365.403 696.67 365.37 696.603 365.37H694.274C694.19 365.37 694.148 365.411 694.148 365.495V372.332C694.148 372.416 694.115 372.491 694.048 372.558C693.998 372.608 693.931 372.633 693.848 372.633H690.917C690.834 372.633 690.759 372.608 690.692 372.558C690.642 372.491 690.617 372.416 690.617 372.332V355.401C690.617 355.318 690.642 355.251 690.692 355.201C690.759 355.134 690.834 355.101 690.917 355.101H698.08C699.149 355.101 700.084 355.318 700.886 355.752C701.704 356.186 702.33 356.804 702.764 357.605C703.215 358.407 703.44 359.334 703.44 360.385C703.44 361.521 703.156 362.498 702.589 363.316C702.021 364.117 701.228 364.685 700.209 365.019C700.126 365.052 700.101 365.111 700.134 365.194L703.54 372.282C703.574 372.349 703.591 372.399 703.591 372.432C703.591 372.566 703.499 372.633 703.315 372.633H700.234ZM694.274 358.131C694.19 358.131 694.148 358.173 694.148 358.257V362.539C694.148 362.623 694.19 362.665 694.274 362.665H697.555C698.256 362.665 698.823 362.456 699.258 362.038C699.708 361.621 699.934 361.078 699.934 360.411C699.934 359.743 699.708 359.2 699.258 358.783C698.823 358.348 698.256 358.131 697.555 358.131H694.274ZM710.097 372.633C709.93 372.633 709.822 372.549 709.772 372.382L704.612 355.451L704.587 355.351C704.587 355.184 704.679 355.101 704.863 355.101H708.019C708.202 355.101 708.319 355.184 708.369 355.351L711.7 367.574C711.717 367.624 711.742 367.649 711.775 367.649C711.809 367.649 711.834 367.624 711.851 367.574L715.131 355.351C715.182 355.184 715.298 355.101 715.482 355.101H718.563C718.663 355.101 718.738 355.134 718.788 355.201C718.838 355.268 718.847 355.351 718.813 355.451L713.579 372.382C713.529 372.549 713.42 372.633 713.253 372.633H710.097ZM733.044 357.831C733.044 357.914 733.011 357.989 732.944 358.056C732.894 358.106 732.827 358.131 732.744 358.131H724.529C724.445 358.131 724.404 358.173 724.404 358.257V362.139C724.404 362.222 724.445 362.264 724.529 362.264H729.914C729.997 362.264 730.064 362.297 730.114 362.364C730.181 362.414 730.214 362.481 730.214 362.564V364.994C730.214 365.077 730.181 365.153 730.114 365.219C730.064 365.269 729.997 365.294 729.914 365.294H724.529C724.445 365.294 724.404 365.336 724.404 365.42V369.477C724.404 369.561 724.445 369.602 724.529 369.602H732.744C732.827 369.602 732.894 369.636 732.944 369.702C733.011 369.753 733.044 369.819 733.044 369.903V372.332C733.044 372.416 733.011 372.491 732.944 372.558C732.894 372.608 732.827 372.633 732.744 372.633H721.173C721.089 372.633 721.014 372.608 720.947 372.558C720.897 372.491 720.872 372.416 720.872 372.332V355.401C720.872 355.318 720.897 355.251 720.947 355.201C721.014 355.134 721.089 355.101 721.173 355.101H732.744C732.827 355.101 732.894 355.134 732.944 355.201C733.011 355.251 733.044 355.318 733.044 355.401V357.831ZM745.116 372.633C744.949 372.633 744.832 372.558 744.765 372.407L741.635 365.47C741.601 365.403 741.551 365.37 741.484 365.37H739.155C739.072 365.37 739.03 365.411 739.03 365.495V372.332C739.03 372.416 738.997 372.491 738.93 372.558C738.88 372.608 738.813 372.633 738.729 372.633H735.799C735.716 372.633 735.64 372.608 735.574 372.558C735.524 372.491 735.499 372.416 735.499 372.332V355.401C735.499 355.318 735.524 355.251 735.574 355.201C735.64 355.134 735.716 355.101 735.799 355.101H742.962C744.031 355.101 744.966 355.318 745.767 355.752C746.585 356.186 747.212 356.804 747.646 357.605C748.096 358.407 748.322 359.334 748.322 360.385C748.322 361.521 748.038 362.498 747.47 363.316C746.903 364.117 746.11 364.685 745.091 365.019C745.008 365.052 744.982 365.111 745.016 365.194L748.422 372.282C748.455 372.349 748.472 372.399 748.472 372.432C748.472 372.566 748.38 372.633 748.197 372.633H745.116ZM739.155 358.131C739.072 358.131 739.03 358.173 739.03 358.257V362.539C739.03 362.623 739.072 362.665 739.155 362.665H742.436C743.137 362.665 743.705 362.456 744.139 362.038C744.59 361.621 744.816 361.078 744.816 360.411C744.816 359.743 744.59 359.2 744.139 358.783C743.705 358.348 743.137 358.131 742.436 358.131H739.155Z"></path>
</g>
<g filter="url(#filter8_dddddd_10539_188427)">
<path fill="white" d="M446.092 391.129C438.819 391.129 432.788 388.823 427.999 384.211C423.386 379.421 421.08 373.39 421.08 366.117C421.08 358.667 423.386 352.635 427.999 348.023C432.788 343.411 438.819 341.105 446.092 341.105C453.365 341.105 459.308 343.411 463.92 348.023C468.709 352.635 471.104 358.667 471.104 366.117C471.104 373.212 468.709 379.155 463.92 383.944C459.13 388.734 453.188 391.129 446.092 391.129Z"></path>
</g>
</g>
<defs>
<filter color-interpolation-filters="sRGB" filterUnits="userSpaceOnUse" height="627.815" width="502.733" y="76.5781" x="248.439" id="filter0_dddddd_10539_188427">
<feFlood result="BackgroundImageFix" flood-opacity="0"></feFlood>
<feColorMatrix result="hardAlpha" values="0 0 0 0 0 0 0 0 0 0 0 0 0 0 0 0 0 0 127 0" type="matrix" in="SourceAlpha"></feColorMatrix>
<feOffset dy="4.82989"></feOffset>
<feGaussianBlur stdDeviation="1.93196"></feGaussianBlur>
<feColorMatrix values="0 0 0 0 0.235294 0 0 0 0 0.219608 0 0 0 0 0.643137 0 0 0 0.11527 0" type="matrix"></feColorMatrix>
<feBlend result="effect1_dropShadow_10539_188427" in2="BackgroundImageFix" mode="normal"></feBlend>
<feColorMatrix result="hardAlpha" values="0 0 0 0 0 0 0 0 0 0 0 0 0 0 0 0 0 0 127 0" type="matrix" in="SourceAlpha"></feColorMatrix>
<feOffset dy="11.6069"></feOffset>
<feGaussianBlur stdDeviation="4.64276"></feGaussianBlur>
<feColorMatrix values="0 0 0 0 0.235294 0 0 0 0 0.219608 0 0 0 0 0.643137 0 0 0 0.165596 0" type="matrix"></feColorMatrix>
<feBlend result="effect2_dropShadow_10539_188427" in2="effect1_dropShadow_10539_188427" mode="normal"></feBlend>
<feColorMatrix result="hardAlpha" values="0 0 0 0 0 0 0 0 0 0 0 0 0 0 0 0 0 0 127 0" type="matrix" in="SourceAlpha"></feColorMatrix>
<feOffset dy="21.8548"></feOffset>
<feGaussianBlur stdDeviation="8.74191"></feGaussianBlur>
<feColorMatrix values="0 0 0 0 0.235294 0 0 0 0 0.219608 0 0 0 0 0.643137 0 0 0 0.205 0" type="matrix"></feColorMatrix>
<feBlend result="effect3_dropShadow_10539_188427" in2="effect2_dropShadow_10539_188427" mode="normal"></feBlend>
<feColorMatrix result="hardAlpha" values="0 0 0 0 0 0 0 0 0 0 0 0 0 0 0 0 0 0 127 0" type="matrix" in="SourceAlpha"></feColorMatrix>
<feOffset dy="38.9852"></feOffset>
<feGaussianBlur stdDeviation="15.5941"></feGaussianBlur>
<feColorMatrix values="0 0 0 0 0.235294 0 0 0 0 0.219608 0 0 0 0 0.643137 0 0 0 0.244404 0" type="matrix"></feColorMatrix>
<feBlend result="effect4_dropShadow_10539_188427" in2="effect3_dropShadow_10539_188427" mode="normal"></feBlend>
<feColorMatrix result="hardAlpha" values="0 0 0 0 0 0 0 0 0 0 0 0 0 0 0 0 0 0 127 0" type="matrix" in="SourceAlpha"></feColorMatrix>
<feOffset dy="72.9175"></feOffset>
<feGaussianBlur stdDeviation="29.167"></feGaussianBlur>
<feColorMatrix values="0 0 0 0 0.235294 0 0 0 0 0.219608 0 0 0 0 0.643137 0 0 0 0.29473 0" type="matrix"></feColorMatrix>
<feBlend result="effect5_dropShadow_10539_188427" in2="effect4_dropShadow_10539_188427" mode="normal"></feBlend>
<feColorMatrix result="hardAlpha" values="0 0 0 0 0 0 0 0 0 0 0 0 0 0 0 0 0 0 127 0" type="matrix" in="SourceAlpha"></feColorMatrix>
<feOffset dy="174.537"></feOffset>
<feGaussianBlur stdDeviation="69.8149"></feGaussianBlur>
<feColorMatrix values="0 0 0 0 0.235294 0 0 0 0 0.219608 0 0 0 0 0.643137 0 0 0 0.41 0" type="matrix"></feColorMatrix>
<feBlend result="effect6_dropShadow_10539_188427" in2="effect5_dropShadow_10539_188427" mode="normal"></feBlend>
<feBlend result="shape" in2="effect6_dropShadow_10539_188427" in="SourceGraphic" mode="normal"></feBlend>
</filter>
<filter color-interpolation-filters="sRGB" filterUnits="userSpaceOnUse" height="625.206" width="498.812" y="76.5781" x="126.132" id="filter1_dddddd_10539_188427">
<feFlood result="BackgroundImageFix" flood-opacity="0"></feFlood>
<feColorMatrix result="hardAlpha" values="0 0 0 0 0 0 0 0 0 0 0 0 0 0 0 0 0 0 127 0" type="matrix" in="SourceAlpha"></feColorMatrix>
<feOffset dy="4.82989"></feOffset>
<feGaussianBlur stdDeviation="1.93196"></feGaussianBlur>
<feColorMatrix values="0 0 0 0 0.235294 0 0 0 0 0.219608 0 0 0 0 0.643137 0 0 0 0.11527 0" type="matrix"></feColorMatrix>
<feBlend result="effect1_dropShadow_10539_188427" in2="BackgroundImageFix" mode="normal"></feBlend>
<feColorMatrix result="hardAlpha" values="0 0 0 0 0 0 0 0 0 0 0 0 0 0 0 0 0 0 127 0" type="matrix" in="SourceAlpha"></feColorMatrix>
<feOffset dy="11.6069"></feOffset>
<feGaussianBlur stdDeviation="4.64276"></feGaussianBlur>
<feColorMatrix values="0 0 0 0 0.235294 0 0 0 0 0.219608 0 0 0 0 0.643137 0 0 0 0.165596 0" type="matrix"></feColorMatrix>
<feBlend result="effect2_dropShadow_10539_188427" in2="effect1_dropShadow_10539_188427" mode="normal"></feBlend>
<feColorMatrix result="hardAlpha" values="0 0 0 0 0 0 0 0 0 0 0 0 0 0 0 0 0 0 127 0" type="matrix" in="SourceAlpha"></feColorMatrix>
<feOffset dy="21.8548"></feOffset>
<feGaussianBlur stdDeviation="8.74191"></feGaussianBlur>
<feColorMatrix values="0 0 0 0 0.235294 0 0 0 0 0.219608 0 0 0 0 0.643137 0 0 0 0.205 0" type="matrix"></feColorMatrix>
<feBlend result="effect3_dropShadow_10539_188427" in2="effect2_dropShadow_10539_188427" mode="normal"></feBlend>
<feColorMatrix result="hardAlpha" values="0 0 0 0 0 0 0 0 0 0 0 0 0 0 0 0 0 0 127 0" type="matrix" in="SourceAlpha"></feColorMatrix>
<feOffset dy="38.9852"></feOffset>
<feGaussianBlur stdDeviation="15.5941"></feGaussianBlur>
<feColorMatrix values="0 0 0 0 0.235294 0 0 0 0 0.219608 0 0 0 0 0.643137 0 0 0 0.244404 0" type="matrix"></feColorMatrix>
<feBlend result="effect4_dropShadow_10539_188427" in2="effect3_dropShadow_10539_188427" mode="normal"></feBlend>
<feColorMatrix result="hardAlpha" values="0 0 0 0 0 0 0 0 0 0 0 0 0 0 0 0 0 0 127 0" type="matrix" in="SourceAlpha"></feColorMatrix>
<feOffset dy="72.9175"></feOffset>
<feGaussianBlur stdDeviation="29.167"></feGaussianBlur>
<feColorMatrix values="0 0 0 0 0.235294 0 0 0 0 0.219608 0 0 0 0 0.643137 0 0 0 0.29473 0" type="matrix"></feColorMatrix>
<feBlend result="effect5_dropShadow_10539_188427" in2="effect4_dropShadow_10539_188427" mode="normal"></feBlend>
<feColorMatrix result="hardAlpha" values="0 0 0 0 0 0 0 0 0 0 0 0 0 0 0 0 0 0 127 0" type="matrix" in="SourceAlpha"></feColorMatrix>
<feOffset dy="174.537"></feOffset>
<feGaussianBlur stdDeviation="69.8149"></feGaussianBlur>
<feColorMatrix values="0 0 0 0 0.235294 0 0 0 0 0.219608 0 0 0 0 0.643137 0 0 0 0.41 0" type="matrix"></feColorMatrix>
<feBlend result="effect6_dropShadow_10539_188427" in2="effect5_dropShadow_10539_188427" mode="normal"></feBlend>
<feBlend result="shape" in2="effect6_dropShadow_10539_188427" in="SourceGraphic" mode="normal"></feBlend>
</filter>
<filter color-interpolation-filters="sRGB" filterUnits="userSpaceOnUse" height="631.831" width="532.37" y="72.7031" x="-32.6285" id="filter2_dddddd_10539_188427">
<feFlood result="BackgroundImageFix" flood-opacity="0"></feFlood>
<feColorMatrix result="hardAlpha" values="0 0 0 0 0 0 0 0 0 0 0 0 0 0 0 0 0 0 127 0" type="matrix" in="SourceAlpha"></feColorMatrix>
<feOffset dy="4.83398"></feOffset>
<feGaussianBlur stdDeviation="1.93359"></feGaussianBlur>
<feColorMatrix values="0 0 0 0 0.235294 0 0 0 0 0.219608 0 0 0 0 0.643137 0 0 0 0.11527 0" type="matrix"></feColorMatrix>
<feBlend result="effect1_dropShadow_10539_188427" in2="BackgroundImageFix" mode="normal"></feBlend>
<feColorMatrix result="hardAlpha" values="0 0 0 0 0 0 0 0 0 0 0 0 0 0 0 0 0 0 127 0" type="matrix" in="SourceAlpha"></feColorMatrix>
<feOffset dy="11.6167"></feOffset>
<feGaussianBlur stdDeviation="4.64669"></feGaussianBlur>
<feColorMatrix values="0 0 0 0 0.235294 0 0 0 0 0.219608 0 0 0 0 0.643137 0 0 0 0.165596 0" type="matrix"></feColorMatrix>
<feBlend result="effect2_dropShadow_10539_188427" in2="effect1_dropShadow_10539_188427" mode="normal"></feBlend>
<feColorMatrix result="hardAlpha" values="0 0 0 0 0 0 0 0 0 0 0 0 0 0 0 0 0 0 127 0" type="matrix" in="SourceAlpha"></feColorMatrix>
<feOffset dy="21.8733"></feOffset>
<feGaussianBlur stdDeviation="8.74931"></feGaussianBlur>
<feColorMatrix values="0 0 0 0 0.235294 0 0 0 0 0.219608 0 0 0 0 0.643137 0 0 0 0.205 0" type="matrix"></feColorMatrix>
<feBlend result="effect3_dropShadow_10539_188427" in2="effect2_dropShadow_10539_188427" mode="normal"></feBlend>
<feColorMatrix result="hardAlpha" values="0 0 0 0 0 0 0 0 0 0 0 0 0 0 0 0 0 0 127 0" type="matrix" in="SourceAlpha"></feColorMatrix>
<feOffset dy="39.0182"></feOffset>
<feGaussianBlur stdDeviation="15.6073"></feGaussianBlur>
<feColorMatrix values="0 0 0 0 0.235294 0 0 0 0 0.219608 0 0 0 0 0.643137 0 0 0 0.244404 0" type="matrix"></feColorMatrix>
<feBlend result="effect4_dropShadow_10539_188427" in2="effect3_dropShadow_10539_188427" mode="normal"></feBlend>
<feColorMatrix result="hardAlpha" values="0 0 0 0 0 0 0 0 0 0 0 0 0 0 0 0 0 0 127 0" type="matrix" in="SourceAlpha"></feColorMatrix>
<feOffset dy="72.9792"></feOffset>
<feGaussianBlur stdDeviation="29.1917"></feGaussianBlur>
<feColorMatrix values="0 0 0 0 0.235294 0 0 0 0 0.219608 0 0 0 0 0.643137 0 0 0 0.29473 0" type="matrix"></feColorMatrix>
<feBlend result="effect5_dropShadow_10539_188427" in2="effect4_dropShadow_10539_188427" mode="normal"></feBlend>
<feColorMatrix result="hardAlpha" values="0 0 0 0 0 0 0 0 0 0 0 0 0 0 0 0 0 0 127 0" type="matrix" in="SourceAlpha"></feColorMatrix>
<feOffset dy="174.685"></feOffset>
<feGaussianBlur stdDeviation="69.874"></feGaussianBlur>
<feColorMatrix values="0 0 0 0 0.235294 0 0 0 0 0.219608 0 0 0 0 0.643137 0 0 0 0.41 0" type="matrix"></feColorMatrix>
<feBlend result="effect6_dropShadow_10539_188427" in2="effect5_dropShadow_10539_188427" mode="normal"></feBlend>
<feBlend result="shape" in2="effect6_dropShadow_10539_188427" in="SourceGraphic" mode="normal"></feBlend>
</filter>
<filter color-interpolation-filters="sRGB" filterUnits="userSpaceOnUse" height="330.256" width="308.671" y="250.641" x="-44.03" id="filter3_dddddd_10539_188427">
<feFlood result="BackgroundImageFix" flood-opacity="0"></feFlood>
<feColorMatrix result="hardAlpha" values="0 0 0 0 0 0 0 0 0 0 0 0 0 0 0 0 0 0 127 0" type="matrix" in="SourceAlpha"></feColorMatrix>
<feOffset dy="2.95015"></feOffset>
<feGaussianBlur stdDeviation="1.18006"></feGaussianBlur>
<feColorMatrix values="0 0 0 0 0.235294 0 0 0 0 0.219608 0 0 0 0 0.643137 0 0 0 0.11527 0" type="matrix"></feColorMatrix>
<feBlend result="effect1_dropShadow_10539_188427" in2="BackgroundImageFix" mode="normal"></feBlend>
<feColorMatrix result="hardAlpha" values="0 0 0 0 0 0 0 0 0 0 0 0 0 0 0 0 0 0 127 0" type="matrix" in="SourceAlpha"></feColorMatrix>
<feOffset dy="7.08962"></feOffset>
<feGaussianBlur stdDeviation="2.83585"></feGaussianBlur>
<feColorMatrix values="0 0 0 0 0.235294 0 0 0 0 0.219608 0 0 0 0 0.643137 0 0 0 0.165596 0" type="matrix"></feColorMatrix>
<feBlend result="effect2_dropShadow_10539_188427" in2="effect1_dropShadow_10539_188427" mode="normal"></feBlend>
<feColorMatrix result="hardAlpha" values="0 0 0 0 0 0 0 0 0 0 0 0 0 0 0 0 0 0 127 0" type="matrix" in="SourceAlpha"></feColorMatrix>
<feOffset dy="13.3491"></feOffset>
<feGaussianBlur stdDeviation="5.33965"></feGaussianBlur>
<feColorMatrix values="0 0 0 0 0.235294 0 0 0 0 0.219608 0 0 0 0 0.643137 0 0 0 0.205 0" type="matrix"></feColorMatrix>
<feBlend result="effect3_dropShadow_10539_188427" in2="effect2_dropShadow_10539_188427" mode="normal"></feBlend>
<feColorMatrix result="hardAlpha" values="0 0 0 0 0 0 0 0 0 0 0 0 0 0 0 0 0 0 127 0" type="matrix" in="SourceAlpha"></feColorMatrix>
<feOffset dy="23.8126"></feOffset>
<feGaussianBlur stdDeviation="9.52502"></feGaussianBlur>
<feColorMatrix values="0 0 0 0 0.235294 0 0 0 0 0.219608 0 0 0 0 0.643137 0 0 0 0.244404 0" type="matrix"></feColorMatrix>
<feBlend result="effect4_dropShadow_10539_188427" in2="effect3_dropShadow_10539_188427" mode="normal"></feBlend>
<feColorMatrix result="hardAlpha" values="0 0 0 0 0 0 0 0 0 0 0 0 0 0 0 0 0 0 127 0" type="matrix" in="SourceAlpha"></feColorMatrix>
<feOffset dy="44.5388"></feOffset>
<feGaussianBlur stdDeviation="17.8155"></feGaussianBlur>
<feColorMatrix values="0 0 0 0 0.235294 0 0 0 0 0.219608 0 0 0 0 0.643137 0 0 0 0.29473 0" type="matrix"></feColorMatrix>
<feBlend result="effect5_dropShadow_10539_188427" in2="effect4_dropShadow_10539_188427" mode="normal"></feBlend>
<feColorMatrix result="hardAlpha" values="0 0 0 0 0 0 0 0 0 0 0 0 0 0 0 0 0 0 127 0" type="matrix" in="SourceAlpha"></feColorMatrix>
<feOffset dy="106.609"></feOffset>
<feGaussianBlur stdDeviation="42.6437"></feGaussianBlur>
<feColorMatrix values="0 0 0 0 0.235294 0 0 0 0 0.219608 0 0 0 0 0.643137 0 0 0 0.41 0" type="matrix"></feColorMatrix>
<feBlend result="effect6_dropShadow_10539_188427" in2="effect5_dropShadow_10539_188427" mode="normal"></feBlend>
<feBlend result="shape" in2="effect6_dropShadow_10539_188427" in="SourceGraphic" mode="normal"></feBlend>
</filter>
<filter color-interpolation-filters="sRGB" filterUnits="userSpaceOnUse" height="241.92" width="220.598" y="341.102" x="189.961" id="filter4_dddddd_10539_188427">
<feFlood result="BackgroundImageFix" flood-opacity="0"></feFlood>
<feColorMatrix result="hardAlpha" values="0 0 0 0 0 0 0 0 0 0 0 0 0 0 0 0 0 0 127 0" type="matrix" in="SourceAlpha"></feColorMatrix>
<feOffset dy="2.95015"></feOffset>
<feGaussianBlur stdDeviation="1.18006"></feGaussianBlur>
<feColorMatrix values="0 0 0 0 0.235294 0 0 0 0 0.219608 0 0 0 0 0.643137 0 0 0 0.11527 0" type="matrix"></feColorMatrix>
<feBlend result="effect1_dropShadow_10539_188427" in2="BackgroundImageFix" mode="normal"></feBlend>
<feColorMatrix result="hardAlpha" values="0 0 0 0 0 0 0 0 0 0 0 0 0 0 0 0 0 0 127 0" type="matrix" in="SourceAlpha"></feColorMatrix>
<feOffset dy="7.08962"></feOffset>
<feGaussianBlur stdDeviation="2.83585"></feGaussianBlur>
<feColorMatrix values="0 0 0 0 0.235294 0 0 0 0 0.219608 0 0 0 0 0.643137 0 0 0 0.165596 0" type="matrix"></feColorMatrix>
<feBlend result="effect2_dropShadow_10539_188427" in2="effect1_dropShadow_10539_188427" mode="normal"></feBlend>
<feColorMatrix result="hardAlpha" values="0 0 0 0 0 0 0 0 0 0 0 0 0 0 0 0 0 0 127 0" type="matrix" in="SourceAlpha"></feColorMatrix>
<feOffset dy="13.3491"></feOffset>
<feGaussianBlur stdDeviation="5.33965"></feGaussianBlur>
<feColorMatrix values="0 0 0 0 0.235294 0 0 0 0 0.219608 0 0 0 0 0.643137 0 0 0 0.205 0" type="matrix"></feColorMatrix>
<feBlend result="effect3_dropShadow_10539_188427" in2="effect2_dropShadow_10539_188427" mode="normal"></feBlend>
<feColorMatrix result="hardAlpha" values="0 0 0 0 0 0 0 0 0 0 0 0 0 0 0 0 0 0 127 0" type="matrix" in="SourceAlpha"></feColorMatrix>
<feOffset dy="23.8126"></feOffset>
<feGaussianBlur stdDeviation="9.52502"></feGaussianBlur>
<feColorMatrix values="0 0 0 0 0.235294 0 0 0 0 0.219608 0 0 0 0 0.643137 0 0 0 0.244404 0" type="matrix"></feColorMatrix>
<feBlend result="effect4_dropShadow_10539_188427" in2="effect3_dropShadow_10539_188427" mode="normal"></feBlend>
<feColorMatrix result="hardAlpha" values="0 0 0 0 0 0 0 0 0 0 0 0 0 0 0 0 0 0 127 0" type="matrix" in="SourceAlpha"></feColorMatrix>
<feOffset dy="44.5388"></feOffset>
<feGaussianBlur stdDeviation="17.8155"></feGaussianBlur>
<feColorMatrix values="0 0 0 0 0.235294 0 0 0 0 0.219608 0 0 0 0 0.643137 0 0 0 0.29473 0" type="matrix"></feColorMatrix>
<feBlend result="effect5_dropShadow_10539_188427" in2="effect4_dropShadow_10539_188427" mode="normal"></feBlend>
<feColorMatrix result="hardAlpha" values="0 0 0 0 0 0 0 0 0 0 0 0 0 0 0 0 0 0 127 0" type="matrix" in="SourceAlpha"></feColorMatrix>
<feOffset dy="106.609"></feOffset>
<feGaussianBlur stdDeviation="42.6437"></feGaussianBlur>
<feColorMatrix values="0 0 0 0 0.235294 0 0 0 0 0.219608 0 0 0 0 0.643137 0 0 0 0.41 0" type="matrix"></feColorMatrix>
<feBlend result="effect6_dropShadow_10539_188427" in2="effect5_dropShadow_10539_188427" mode="normal"></feBlend>
<feBlend result="shape" in2="effect6_dropShadow_10539_188427" in="SourceGraphic" mode="normal"></feBlend>
</filter>
<filter color-interpolation-filters="sRGB" filterUnits="userSpaceOnUse" height="182.74" width="162.562" y="93" x="538.883" id="filter5_dddddd_10539_188427">
<feFlood result="BackgroundImageFix" flood-opacity="0"></feFlood>
<feColorMatrix result="hardAlpha" values="0 0 0 0 0 0 0 0 0 0 0 0 0 0 0 0 0 0 127 0" type="matrix" in="SourceAlpha"></feColorMatrix>
<feOffset dy="1.59522"></feOffset>
<feGaussianBlur stdDeviation="0.638087"></feGaussianBlur>
<feColorMatrix values="0 0 0 0 0.235294 0 0 0 0 0.219608 0 0 0 0 0.643137 0 0 0 0.11527 0" type="matrix"></feColorMatrix>
<feBlend result="effect1_dropShadow_10539_188427" in2="BackgroundImageFix" mode="normal"></feBlend>
<feColorMatrix result="hardAlpha" values="0 0 0 0 0 0 0 0 0 0 0 0 0 0 0 0 0 0 127 0" type="matrix" in="SourceAlpha"></feColorMatrix>
<feOffset dy="3.83353"></feOffset>
<feGaussianBlur stdDeviation="1.53341"></feGaussianBlur>
<feColorMatrix values="0 0 0 0 0.235294 0 0 0 0 0.219608 0 0 0 0 0.643137 0 0 0 0.165596 0" type="matrix"></feColorMatrix>
<feBlend result="effect2_dropShadow_10539_188427" in2="effect1_dropShadow_10539_188427" mode="normal"></feBlend>
<feColorMatrix result="hardAlpha" values="0 0 0 0 0 0 0 0 0 0 0 0 0 0 0 0 0 0 127 0" type="matrix" in="SourceAlpha"></feColorMatrix>
<feOffset dy="7.2182"></feOffset>
<feGaussianBlur stdDeviation="2.88728"></feGaussianBlur>
<feColorMatrix values="0 0 0 0 0.235294 0 0 0 0 0.219608 0 0 0 0 0.643137 0 0 0 0.205 0" type="matrix"></feColorMatrix>
<feBlend result="effect3_dropShadow_10539_188427" in2="effect2_dropShadow_10539_188427" mode="normal"></feBlend>
<feColorMatrix result="hardAlpha" values="0 0 0 0 0 0 0 0 0 0 0 0 0 0 0 0 0 0 127 0" type="matrix" in="SourceAlpha"></feColorMatrix>
<feOffset dy="12.876"></feOffset>
<feGaussianBlur stdDeviation="5.15041"></feGaussianBlur>
<feColorMatrix values="0 0 0 0 0.235294 0 0 0 0 0.219608 0 0 0 0 0.643137 0 0 0 0.244404 0" type="matrix"></feColorMatrix>
<feBlend result="effect4_dropShadow_10539_188427" in2="effect3_dropShadow_10539_188427" mode="normal"></feBlend>
<feColorMatrix result="hardAlpha" values="0 0 0 0 0 0 0 0 0 0 0 0 0 0 0 0 0 0 127 0" type="matrix" in="SourceAlpha"></feColorMatrix>
<feOffset dy="24.0832"></feOffset>
<feGaussianBlur stdDeviation="9.63328"></feGaussianBlur>
<feColorMatrix values="0 0 0 0 0.235294 0 0 0 0 0.219608 0 0 0 0 0.643137 0 0 0 0.29473 0" type="matrix"></feColorMatrix>
<feBlend result="effect5_dropShadow_10539_188427" in2="effect4_dropShadow_10539_188427" mode="normal"></feBlend>
<feColorMatrix result="hardAlpha" values="0 0 0 0 0 0 0 0 0 0 0 0 0 0 0 0 0 0 127 0" type="matrix" in="SourceAlpha"></feColorMatrix>
<feOffset dy="57.6462"></feOffset>
<feGaussianBlur stdDeviation="23.0585"></feGaussianBlur>
<feColorMatrix values="0 0 0 0 0.235294 0 0 0 0 0.219608 0 0 0 0 0.643137 0 0 0 0.41 0" type="matrix"></feColorMatrix>
<feBlend result="effect6_dropShadow_10539_188427" in2="effect5_dropShadow_10539_188427" mode="normal"></feBlend>
<feBlend result="shape" in2="effect6_dropShadow_10539_188427" in="SourceGraphic" mode="normal"></feBlend>
</filter>
<filter color-interpolation-filters="sRGB" filterUnits="userSpaceOnUse" height="156.884" width="314.194" y="221.327" x="533.371" id="filter6_dddddd_10539_188427">
<feFlood result="BackgroundImageFix" flood-opacity="0"></feFlood>
<feColorMatrix result="hardAlpha" values="0 0 0 0 0 0 0 0 0 0 0 0 0 0 0 0 0 0 127 0" type="matrix" in="SourceAlpha"></feColorMatrix>
<feOffset dy="0.160731"></feOffset>
<feGaussianBlur stdDeviation="0.71436"></feGaussianBlur>
<feColorMatrix values="0 0 0 0 0.188235 0 0 0 0 0.34902 0 0 0 0 0.909804 0 0 0 0.106835 0" type="matrix"></feColorMatrix>
<feBlend result="effect1_dropShadow_10539_188427" in2="BackgroundImageFix" mode="normal"></feBlend>
<feColorMatrix result="hardAlpha" values="0 0 0 0 0 0 0 0 0 0 0 0 0 0 0 0 0 0 127 0" type="matrix" in="SourceAlpha"></feColorMatrix>
<feOffset dy="0.386259"></feOffset>
<feGaussianBlur stdDeviation="1.71671"></feGaussianBlur>
<feColorMatrix values="0 0 0 0 0.188235 0 0 0 0 0.34902 0 0 0 0 0.909804 0 0 0 0.153479 0" type="matrix"></feColorMatrix>
<feBlend result="effect2_dropShadow_10539_188427" in2="effect1_dropShadow_10539_188427" mode="normal"></feBlend>
<feColorMatrix result="hardAlpha" values="0 0 0 0 0 0 0 0 0 0 0 0 0 0 0 0 0 0 127 0" type="matrix" in="SourceAlpha"></feColorMatrix>
<feOffset dy="0.727291"></feOffset>
<feGaussianBlur stdDeviation="3.2324"></feGaussianBlur>
<feColorMatrix values="0 0 0 0 0.188235 0 0 0 0 0.34902 0 0 0 0 0.909804 0 0 0 0.19 0" type="matrix"></feColorMatrix>
<feBlend result="effect3_dropShadow_10539_188427" in2="effect2_dropShadow_10539_188427" mode="normal"></feBlend>
<feColorMatrix result="hardAlpha" values="0 0 0 0 0 0 0 0 0 0 0 0 0 0 0 0 0 0 127 0" type="matrix" in="SourceAlpha"></feColorMatrix>
<feOffset dy="1.29736"></feOffset>
<feGaussianBlur stdDeviation="5.76606"></feGaussianBlur>
<feColorMatrix values="0 0 0 0 0.188235 0 0 0 0 0.34902 0 0 0 0 0.909804 0 0 0 0.226521 0" type="matrix"></feColorMatrix>
<feBlend result="effect4_dropShadow_10539_188427" in2="effect3_dropShadow_10539_188427" mode="normal"></feBlend>
<feColorMatrix result="hardAlpha" values="0 0 0 0 0 0 0 0 0 0 0 0 0 0 0 0 0 0 127 0" type="matrix" in="SourceAlpha"></feColorMatrix>
<feOffset dy="2.42657"></feOffset>
<feGaussianBlur stdDeviation="10.7848"></feGaussianBlur>
<feColorMatrix values="0 0 0 0 0.188235 0 0 0 0 0.34902 0 0 0 0 0.909804 0 0 0 0.273165 0" type="matrix"></feColorMatrix>
<feBlend result="effect5_dropShadow_10539_188427" in2="effect4_dropShadow_10539_188427" mode="normal"></feBlend>
<feColorMatrix result="hardAlpha" values="0 0 0 0 0 0 0 0 0 0 0 0 0 0 0 0 0 0 127 0" type="matrix" in="SourceAlpha"></feColorMatrix>
<feOffset dy="5.80831"></feOffset>
<feGaussianBlur stdDeviation="25.8147"></feGaussianBlur>
<feColorMatrix values="0 0 0 0 0.188235 0 0 0 0 0.34902 0 0 0 0 0.909804 0 0 0 0.38 0" type="matrix"></feColorMatrix>
<feBlend result="effect6_dropShadow_10539_188427" in2="effect5_dropShadow_10539_188427" mode="normal"></feBlend>
<feBlend result="shape" in2="effect6_dropShadow_10539_188427" in="SourceGraphic" mode="normal"></feBlend>
</filter>
<filter color-interpolation-filters="sRGB" filterUnits="userSpaceOnUse" height="156.884" width="289.194" y="289.499" x="533.371" id="filter7_dddddd_10539_188427">
<feFlood result="BackgroundImageFix" flood-opacity="0"></feFlood>
<feColorMatrix result="hardAlpha" values="0 0 0 0 0 0 0 0 0 0 0 0 0 0 0 0 0 0 127 0" type="matrix" in="SourceAlpha"></feColorMatrix>
<feOffset dy="0.160731"></feOffset>
<feGaussianBlur stdDeviation="0.71436"></feGaussianBlur>
<feColorMatrix values="0 0 0 0 0.188235 0 0 0 0 0.34902 0 0 0 0 0.909804 0 0 0 0.106835 0" type="matrix"></feColorMatrix>
<feBlend result="effect1_dropShadow_10539_188427" in2="BackgroundImageFix" mode="normal"></feBlend>
<feColorMatrix result="hardAlpha" values="0 0 0 0 0 0 0 0 0 0 0 0 0 0 0 0 0 0 127 0" type="matrix" in="SourceAlpha"></feColorMatrix>
<feOffset dy="0.386259"></feOffset>
<feGaussianBlur stdDeviation="1.71671"></feGaussianBlur>
<feColorMatrix values="0 0 0 0 0.188235 0 0 0 0 0.34902 0 0 0 0 0.909804 0 0 0 0.153479 0" type="matrix"></feColorMatrix>
<feBlend result="effect2_dropShadow_10539_188427" in2="effect1_dropShadow_10539_188427" mode="normal"></feBlend>
<feColorMatrix result="hardAlpha" values="0 0 0 0 0 0 0 0 0 0 0 0 0 0 0 0 0 0 127 0" type="matrix" in="SourceAlpha"></feColorMatrix>
<feOffset dy="0.727291"></feOffset>
<feGaussianBlur stdDeviation="3.2324"></feGaussianBlur>
<feColorMatrix values="0 0 0 0 0.188235 0 0 0 0 0.34902 0 0 0 0 0.909804 0 0 0 0.19 0" type="matrix"></feColorMatrix>
<feBlend result="effect3_dropShadow_10539_188427" in2="effect2_dropShadow_10539_188427" mode="normal"></feBlend>
<feColorMatrix result="hardAlpha" values="0 0 0 0 0 0 0 0 0 0 0 0 0 0 0 0 0 0 127 0" type="matrix" in="SourceAlpha"></feColorMatrix>
<feOffset dy="1.29736"></feOffset>
<feGaussianBlur stdDeviation="5.76606"></feGaussianBlur>
<feColorMatrix values="0 0 0 0 0.188235 0 0 0 0 0.34902 0 0 0 0 0.909804 0 0 0 0.226521 0" type="matrix"></feColorMatrix>
<feBlend result="effect4_dropShadow_10539_188427" in2="effect3_dropShadow_10539_188427" mode="normal"></feBlend>
<feColorMatrix result="hardAlpha" values="0 0 0 0 0 0 0 0 0 0 0 0 0 0 0 0 0 0 127 0" type="matrix" in="SourceAlpha"></feColorMatrix>
<feOffset dy="2.42657"></feOffset>
<feGaussianBlur stdDeviation="10.7848"></feGaussianBlur>
<feColorMatrix values="0 0 0 0 0.188235 0 0 0 0 0.34902 0 0 0 0 0.909804 0 0 0 0.273165 0" type="matrix"></feColorMatrix>
<feBlend result="effect5_dropShadow_10539_188427" in2="effect4_dropShadow_10539_188427" mode="normal"></feBlend>
<feColorMatrix result="hardAlpha" values="0 0 0 0 0 0 0 0 0 0 0 0 0 0 0 0 0 0 127 0" type="matrix" in="SourceAlpha"></feColorMatrix>
<feOffset dy="5.80831"></feOffset>
<feGaussianBlur stdDeviation="25.8147"></feGaussianBlur>
<feColorMatrix values="0 0 0 0 0.188235 0 0 0 0 0.34902 0 0 0 0 0.909804 0 0 0 0.38 0" type="matrix"></feColorMatrix>
<feBlend result="effect6_dropShadow_10539_188427" in2="effect5_dropShadow_10539_188427" mode="normal"></feBlend>
<feBlend result="shape" in2="effect6_dropShadow_10539_188427" in="SourceGraphic" mode="normal"></feBlend>
</filter>
<filter color-interpolation-filters="sRGB" filterUnits="userSpaceOnUse" height="241.92" width="220.598" y="341.102" x="335.793" id="filter8_dddddd_10539_188427">
<feFlood result="BackgroundImageFix" flood-opacity="0"></feFlood>
<feColorMatrix result="hardAlpha" values="0 0 0 0 0 0 0 0 0 0 0 0 0 0 0 0 0 0 127 0" type="matrix" in="SourceAlpha"></feColorMatrix>
<feOffset dy="2.95015"></feOffset>
<feGaussianBlur stdDeviation="1.18006"></feGaussianBlur>
<feColorMatrix values="0 0 0 0 0.235294 0 0 0 0 0.219608 0 0 0 0 0.643137 0 0 0 0.11527 0" type="matrix"></feColorMatrix>
<feBlend result="effect1_dropShadow_10539_188427" in2="BackgroundImageFix" mode="normal"></feBlend>
<feColorMatrix result="hardAlpha" values="0 0 0 0 0 0 0 0 0 0 0 0 0 0 0 0 0 0 127 0" type="matrix" in="SourceAlpha"></feColorMatrix>
<feOffset dy="7.08962"></feOffset>
<feGaussianBlur stdDeviation="2.83585"></feGaussianBlur>
<feColorMatrix values="0 0 0 0 0.235294 0 0 0 0 0.219608 0 0 0 0 0.643137 0 0 0 0.165596 0" type="matrix"></feColorMatrix>
<feBlend result="effect2_dropShadow_10539_188427" in2="effect1_dropShadow_10539_188427" mode="normal"></feBlend>
<feColorMatrix result="hardAlpha" values="0 0 0 0 0 0 0 0 0 0 0 0 0 0 0 0 0 0 127 0" type="matrix" in="SourceAlpha"></feColorMatrix>
<feOffset dy="13.3491"></feOffset>
<feGaussianBlur stdDeviation="5.33965"></feGaussianBlur>
<feColorMatrix values="0 0 0 0 0.235294 0 0 0 0 0.219608 0 0 0 0 0.643137 0 0 0 0.205 0" type="matrix"></feColorMatrix>
<feBlend result="effect3_dropShadow_10539_188427" in2="effect2_dropShadow_10539_188427" mode="normal"></feBlend>
<feColorMatrix result="hardAlpha" values="0 0 0 0 0 0 0 0 0 0 0 0 0 0 0 0 0 0 127 0" type="matrix" in="SourceAlpha"></feColorMatrix>
<feOffset dy="23.8126"></feOffset>
<feGaussianBlur stdDeviation="9.52502"></feGaussianBlur>
<feColorMatrix values="0 0 0 0 0.235294 0 0 0 0 0.219608 0 0 0 0 0.643137 0 0 0 0.244404 0" type="matrix"></feColorMatrix>
<feBlend result="effect4_dropShadow_10539_188427" in2="effect3_dropShadow_10539_188427" mode="normal"></feBlend>
<feColorMatrix result="hardAlpha" values="0 0 0 0 0 0 0 0 0 0 0 0 0 0 0 0 0 0 127 0" type="matrix" in="SourceAlpha"></feColorMatrix>
<feOffset dy="44.5388"></feOffset>
<feGaussianBlur stdDeviation="17.8155"></feGaussianBlur>
<feColorMatrix values="0 0 0 0 0.235294 0 0 0 0 0.219608 0 0 0 0 0.643137 0 0 0 0.29473 0" type="matrix"></feColorMatrix>
<feBlend result="effect5_dropShadow_10539_188427" in2="effect4_dropShadow_10539_188427" mode="normal"></feBlend>
<feColorMatrix result="hardAlpha" values="0 0 0 0 0 0 0 0 0 0 0 0 0 0 0 0 0 0 127 0" type="matrix" in="SourceAlpha"></feColorMatrix>
<feOffset dy="106.609"></feOffset>
<feGaussianBlur stdDeviation="42.6437"></feGaussianBlur>
<feColorMatrix values="0 0 0 0 0.235294 0 0 0 0 0.219608 0 0 0 0 0.643137 0 0 0 0.41 0" type="matrix"></feColorMatrix>
<feBlend result="effect6_dropShadow_10539_188427" in2="effect5_dropShadow_10539_188427" mode="normal"></feBlend>
<feBlend result="shape" in2="effect6_dropShadow_10539_188427" in="SourceGraphic" mode="normal"></feBlend>
</filter>
<linearGradient gradientUnits="userSpaceOnUse" y2="474" x2="422" y1="0" x1="422" id="paint0_linear_10539_188427">
<stop stop-color="#434190"></stop>
<stop stop-color="#090A15" offset="1"></stop>
</linearGradient>
<clipPath id="clip0_10539_188427">
<rect fill="white" height="474" width="844"></rect>
</clipPath>
</defs>
</svg>
