<svg xmlns="http://www.w3.org/2000/svg" fill="none" viewBox="0 0 844 474" height="474" width="844">
<rect fill="url(#paint0_radial_1842_66043)" height="474" width="844"></rect>
<line stroke-width="1.46059" stroke="#5A67D8" y2="442.73" x2="819.726" y1="442.73" x1="24.2742"></line>
<line stroke-width="1.46059" stroke="#5A67D8" y2="392.73" x2="819.726" y1="392.73" x1="24.2742"></line>
<line stroke-width="1.46059" stroke="#5A67D8" y2="342.73" x2="819.726" y1="342.73" x1="24.2742"></line>
<line stroke-width="1.46059" stroke="#5A67D8" y2="292.73" x2="819.726" y1="292.73" x1="24.2742"></line>
<line stroke-width="1.46059" stroke="#5A67D8" y2="242.73" x2="819.726" y1="242.73" x1="24.2742"></line>
<line stroke-width="1.46059" stroke="#5A67D8" y2="192.73" x2="819.726" y1="192.73" x1="24.2742"></line>
<line stroke-width="1.46059" stroke="#5A67D8" y2="142.73" x2="819.726" y1="142.73" x1="24.2742"></line>
<line stroke-width="1.46059" stroke="#5A67D8" y2="92.7297" x2="819.726" y1="92.7297" x1="24.2742"></line>
<line stroke-width="1.46059" stroke="#5A67D8" y2="42.7297" x2="819.726" y1="42.7297" x1="24.2742"></line>
<line stroke-width="1.46059" stroke="#7F9CF5" y2="404.611" x2="132.22" y1="278.522" x1="132.22"></line>
<line stroke-width="1.46059" stroke="#7F9CF5" y2="405.342" x2="120.745" y1="405.342" x1="143.247"></line>
<line stroke-width="1.46059" stroke="#7F9CF5" y2="279.253" x2="120.745" y1="279.253" x1="143.247"></line>
<line stroke-width="1.46059" stroke="#7F9CF5" y2="240.412" x2="719.28" y1="50.1221" x1="719.28"></line>
<line stroke-width="1.46059" stroke="#7F9CF5" y2="396.097" x2="216.143" y1="273.252" x1="216.143"></line>
<line stroke-width="1.46059" stroke="#7F9CF5" y2="328.998" x2="467.914" y1="103.437" x1="467.914"></line>
<line stroke-width="1.46059" stroke="#7F9CF5" y2="279.739" x2="635.559" y1="29.04" x1="635.559"></line>
<line stroke-width="1.46059" stroke="#7F9CF5" y2="393.664" x2="300.067" y1="251.358" x1="300.067"></line>
<line stroke-width="1.46059" stroke="#7F9CF5" y2="241.142" x2="707.806" y1="241.142" x1="730.307"></line>
<line stroke-width="1.46059" stroke="#7F9CF5" y2="401.206" x2="383.991" y1="185.78" x1="383.99"></line>
<line stroke-width="1.46059" stroke="#7F9CF5" y2="323.972" x2="551.838" y1="58.0283" x1="551.838"></line>
<line stroke-width="1.46059" stroke="#7F9CF5" y2="329.728" x2="456.44" y1="329.728" x1="478.941"></line>
<line stroke-width="1.46059" stroke="#7F9CF5" y2="280.47" x2="624.084" y1="280.47" x1="646.586"></line>
<line stroke-width="1.46059" stroke="#7F9CF5" y2="50.8524" x2="707.806" y1="50.8524" x1="730.307"></line>
<line stroke-width="1.46059" stroke="#7F9CF5" y2="396.827" x2="204.669" y1="396.827" x1="227.17"></line>
<line stroke-width="1.46059" stroke="#7F9CF5" y2="394.394" x2="288.593" y1="394.394" x1="311.094"></line>
<line stroke-width="1.46059" stroke="#7F9CF5" y2="401.936" x2="372.516" y1="401.936" x1="395.017"></line>
<line stroke-width="1.46059" stroke="#7F9CF5" y2="104.167" x2="456.44" y1="104.167" x1="478.941"></line>
<line stroke-width="1.46059" stroke="#7F9CF5" y2="29.7703" x2="624.084" y1="29.7703" x1="646.586"></line>
<line stroke-width="1.46059" stroke="#7F9CF5" y2="324.702" x2="540.363" y1="324.702" x1="562.865"></line>
<line stroke-width="1.46059" stroke="#7F9CF5" y2="273.982" x2="204.669" y1="273.982" x1="227.17"></line>
<line stroke-width="1.46059" stroke="#7F9CF5" y2="251.076" x2="288.593" y1="251.076" x1="311.094"></line>
<line stroke-width="1.46059" stroke="#7F9CF5" y2="186.511" x2="372.516" y1="186.511" x1="395.017"></line>
<line stroke-width="1.46059" stroke="#7F9CF5" y2="58.7586" x2="540.363" y1="58.7586" x1="562.865"></line>
<rect stroke-width="1.46059" stroke="#7F9CF5" fill="#667EEA" height="82.8686" width="76.7871" y="316.147" x="93.6025"></rect>
<rect stroke-width="1.46059" stroke="#7F9CF5" fill="#667EEA" height="16.3782" width="76.7871" y="382.638" x="93.6025"></rect>
<rect stroke-width="1.46059" stroke="#7F9CF5" fill="#667EEA" height="80.4359" width="76.7871" y="310.066" x="177.526"></rect>
<rect stroke-width="1.46059" stroke="#7F9CF5" fill="#667EEA" height="80.4359" width="76.7871" y="304.795" x="261.45"></rect>
<rect stroke-width="1.46059" stroke="#7F9CF5" fill="#667EEA" height="80.4359" width="76.7871" y="298.207" x="345.373"></rect>
<rect stroke-width="1.46059" stroke="#7F9CF5" fill="#667EEA" height="55.9668" width="76.7871" y="243.98" x="429.297"></rect>
<rect stroke-width="1.46059" stroke="#7F9CF5" fill="#667EEA" height="67.521" width="76.7871" y="146.678" x="680.663"></rect>
<rect stroke-width="1.46059" stroke="#7F9CF5" fill="#667EEA" height="100.707" width="76.7871" y="146.678" x="596.942"></rect>
<rect stroke-width="1.46059" stroke="#7F9CF5" fill="#667EEA" height="115.564" width="76.7871" y="168.571" x="513.221"></rect>
<rect stroke-width="1.46059" stroke="#7F9CF5" fill="#667EEA" height="13.5404" width="76.7871" y="376.962" x="177.526"></rect>
<rect stroke-width="1.46059" stroke="#7F9CF5" fill="#667EEA" height="16.3782" width="76.7871" y="368.852" x="261.45"></rect>
<rect stroke-width="1.46059" stroke="#7F9CF5" fill="#667EEA" height="33.0594" width="76.7871" y="181.139" x="680.663"></rect>
<rect stroke-width="1.46059" stroke="#7F9CF5" fill="#667EEA" height="25.9647" width="76.7871" y="273.982" x="429.297"></rect>
<rect stroke-width="1.46059" stroke="#7F9CF5" fill="#667EEA" height="56.1101" width="76.7871" y="191.275" x="596.942"></rect>
<rect stroke-width="1.46059" stroke="#7F9CF5" fill="#667EEA" height="16.3782" width="76.7871" y="362.264" x="345.373"></rect>
<rect stroke-width="1.46059" stroke="#7F9CF5" fill="#667EEA" height="56.3718" width="76.7871" y="227.763" x="513.221"></rect>
<g filter="url(#filter0_ddd_1842_66043)">
<rect fill="url(#paint1_linear_1842_66043)" rx="39.0494" height="78.0988" width="508.492" y="197.95" x="167.754"></rect>
</g>
<rect fill="#5D6DC9" rx="29.3258" height="58.6516" width="485.735" y="207.674" x="179.132"></rect>
<g filter="url(#filter1_ddd_1842_66043)">
<rect fill="url(#paint2_linear_1842_66043)" rx="29.3258" height="58.6516" width="419.88" y="207.674" x="179.132"></rect>
</g>
<path fill="white" d="M215.781 233.54C216.008 234.087 216.121 234.74 216.121 235.5V241.52C216.121 242.24 215.934 242.88 215.561 243.44C215.188 243.987 214.661 244.413 213.981 244.72C213.301 245.013 212.521 245.16 211.641 245.16C210.774 245.16 210.008 245.013 209.341 244.72C208.674 244.413 208.154 243.993 207.781 243.46C207.408 242.913 207.221 242.287 207.221 241.58V241.02C207.221 240.953 207.241 240.9 207.281 240.86C207.334 240.807 207.394 240.78 207.461 240.78H209.801C209.868 240.78 209.921 240.807 209.961 240.86C210.014 240.9 210.041 240.953 210.041 241.02V241.2C210.041 241.64 210.188 242.007 210.481 242.3C210.788 242.593 211.174 242.74 211.641 242.74C212.134 242.74 212.534 242.593 212.841 242.3C213.148 241.993 213.301 241.607 213.301 241.14V239.28C213.301 239.24 213.288 239.213 213.261 239.2C213.234 239.187 213.208 239.193 213.181 239.22C212.634 239.687 211.914 239.92 211.021 239.92C210.221 239.92 209.501 239.74 208.861 239.38C208.234 239.007 207.741 238.473 207.381 237.78C207.048 237.153 206.881 236.387 206.881 235.48C206.881 234.693 207.014 234 207.281 233.4C207.614 232.613 208.148 231.993 208.881 231.54C209.628 231.087 210.501 230.86 211.501 230.86C212.514 230.86 213.394 231.1 214.141 231.58C214.901 232.047 215.448 232.7 215.781 233.54ZM211.501 237.56C212.194 237.56 212.694 237.287 213.001 236.74C213.201 236.393 213.301 235.947 213.301 235.4C213.301 234.96 213.214 234.553 213.041 234.18C212.748 233.593 212.241 233.3 211.521 233.3C210.828 233.3 210.321 233.593 210.001 234.18C209.801 234.553 209.701 234.973 209.701 235.44C209.701 235.947 209.814 236.387 210.041 236.76C210.374 237.293 210.861 237.56 211.501 237.56ZM219.806 245C219.713 245 219.646 244.973 219.606 244.92C219.566 244.867 219.573 244.8 219.626 244.72L223.506 238.06C223.533 238.02 223.533 237.98 223.506 237.94L219.626 231.28L219.586 231.16C219.586 231.053 219.659 231 219.806 231H222.346C222.479 231 222.579 231.053 222.646 231.16L225.246 235.74C225.286 235.82 225.326 235.82 225.366 235.74L227.966 231.16C228.033 231.053 228.133 231 228.266 231H230.786C230.879 231 230.946 231.027 230.986 231.08C231.026 231.133 231.019 231.2 230.966 231.28L227.086 237.94C227.073 237.98 227.073 238.02 227.086 238.06L230.966 244.72L231.006 244.84C231.006 244.947 230.933 245 230.786 245H228.266C228.133 245 228.033 244.947 227.966 244.84L225.366 240.28C225.326 240.2 225.286 240.2 225.246 240.28L222.626 244.84C222.559 244.947 222.459 245 222.326 245H219.806ZM250.527 233.18C250.527 233.247 250.501 233.307 250.447 233.36C250.407 233.4 250.354 233.42 250.287 233.42H243.747C243.681 233.42 243.647 233.453 243.647 233.52V236.62C243.647 236.687 243.681 236.72 243.747 236.72H248.047C248.114 236.72 248.167 236.747 248.207 236.8C248.261 236.84 248.287 236.893 248.287 236.96V238.9C248.287 238.967 248.261 239.027 248.207 239.08C248.167 239.12 248.114 239.14 248.047 239.14H243.747C243.681 239.14 243.647 239.173 243.647 239.24V244.76C243.647 244.827 243.621 244.887 243.567 244.94C243.527 244.98 243.474 245 243.407 245H241.067C241.001 245 240.941 244.98 240.887 244.94C240.847 244.887 240.827 244.827 240.827 244.76V231.24C240.827 231.173 240.847 231.12 240.887 231.08C240.941 231.027 241.001 231 241.067 231H250.287C250.354 231 250.407 231.027 250.447 231.08C250.501 231.12 250.527 231.173 250.527 231.24V233.18ZM261.356 245C261.223 245 261.136 244.933 261.096 244.8L260.496 242.84C260.469 242.787 260.436 242.76 260.396 242.76H255.476C255.436 242.76 255.403 242.787 255.376 242.84L254.796 244.8C254.756 244.933 254.669 245 254.536 245H251.996C251.916 245 251.856 244.98 251.816 244.94C251.776 244.887 251.769 244.813 251.796 244.72L256.116 231.2C256.156 231.067 256.243 231 256.376 231H259.516C259.649 231 259.736 231.067 259.776 231.2L264.096 244.72C264.109 244.747 264.116 244.78 264.116 244.82C264.116 244.94 264.043 245 263.896 245H261.356ZM256.096 240.46C256.083 240.54 256.109 240.58 256.176 240.58H259.696C259.776 240.58 259.803 240.54 259.776 240.46L257.976 234.52C257.963 234.467 257.943 234.447 257.916 234.46C257.889 234.46 257.869 234.48 257.856 234.52L256.096 240.46ZM271.795 245.16C270.728 245.16 269.795 244.993 268.995 244.66C268.195 244.313 267.575 243.827 267.135 243.2C266.708 242.56 266.495 241.82 266.495 240.98V240.54C266.495 240.473 266.515 240.42 266.555 240.38C266.608 240.327 266.668 240.3 266.735 240.3H269.015C269.082 240.3 269.135 240.327 269.175 240.38C269.228 240.42 269.255 240.473 269.255 240.54V240.84C269.255 241.373 269.502 241.827 269.995 242.2C270.488 242.56 271.155 242.74 271.995 242.74C272.702 242.74 273.228 242.593 273.575 242.3C273.922 241.993 274.095 241.62 274.095 241.18C274.095 240.86 273.988 240.593 273.775 240.38C273.562 240.153 273.268 239.96 272.895 239.8C272.535 239.627 271.955 239.393 271.155 239.1C270.262 238.793 269.502 238.48 268.875 238.16C268.262 237.84 267.742 237.407 267.315 236.86C266.902 236.3 266.695 235.613 266.695 234.8C266.695 234 266.902 233.3 267.315 232.7C267.728 232.1 268.302 231.64 269.035 231.32C269.768 231 270.615 230.84 271.575 230.84C272.588 230.84 273.488 231.02 274.275 231.38C275.075 231.74 275.695 232.247 276.135 232.9C276.588 233.54 276.815 234.287 276.815 235.14V235.44C276.815 235.507 276.788 235.567 276.735 235.62C276.695 235.66 276.642 235.68 276.575 235.68H274.275C274.208 235.68 274.148 235.66 274.095 235.62C274.055 235.567 274.035 235.507 274.035 235.44V235.28C274.035 234.72 273.802 234.247 273.335 233.86C272.882 233.46 272.255 233.26 271.455 233.26C270.828 233.26 270.335 233.393 269.975 233.66C269.628 233.927 269.455 234.293 269.455 234.76C269.455 235.093 269.555 235.373 269.755 235.6C269.968 235.827 270.275 236.033 270.675 236.22C271.088 236.393 271.722 236.633 272.575 236.94C273.522 237.287 274.262 237.593 274.795 237.86C275.342 238.127 275.828 238.527 276.255 239.06C276.695 239.58 276.915 240.26 276.915 241.1C276.915 242.353 276.455 243.347 275.535 244.08C274.615 244.8 273.368 245.16 271.795 245.16ZM290.393 231C290.46 231 290.513 231.027 290.553 231.08C290.607 231.12 290.633 231.173 290.633 231.24V233.2C290.633 233.267 290.607 233.327 290.553 233.38C290.513 233.42 290.46 233.44 290.393 233.44H286.813C286.747 233.44 286.713 233.473 286.713 233.54V244.76C286.713 244.827 286.687 244.887 286.633 244.94C286.593 244.98 286.54 245 286.473 245H284.133C284.067 245 284.007 244.98 283.953 244.94C283.913 244.887 283.893 244.827 283.893 244.76V233.54C283.893 233.473 283.86 233.44 283.793 233.44H280.313C280.247 233.44 280.187 233.42 280.133 233.38C280.093 233.327 280.073 233.267 280.073 233.2V231.24C280.073 231.173 280.093 231.12 280.133 231.08C280.187 231.027 280.247 231 280.313 231H290.393ZM304.153 233.18C304.153 233.247 304.126 233.307 304.073 233.36C304.033 233.4 303.979 233.42 303.913 233.42H297.353C297.286 233.42 297.253 233.453 297.253 233.52V236.62C297.253 236.687 297.286 236.72 297.353 236.72H301.653C301.719 236.72 301.773 236.747 301.813 236.8C301.866 236.84 301.893 236.893 301.893 236.96V238.9C301.893 238.967 301.866 239.027 301.813 239.08C301.773 239.12 301.719 239.14 301.653 239.14H297.353C297.286 239.14 297.253 239.173 297.253 239.24V242.48C297.253 242.547 297.286 242.58 297.353 242.58H303.913C303.979 242.58 304.033 242.607 304.073 242.66C304.126 242.7 304.153 242.753 304.153 242.82V244.76C304.153 244.827 304.126 244.887 304.073 244.94C304.033 244.98 303.979 245 303.913 245H294.673C294.606 245 294.546 244.98 294.493 244.94C294.453 244.887 294.433 244.827 294.433 244.76V231.24C294.433 231.173 294.453 231.12 294.493 231.08C294.546 231.027 294.606 231 294.673 231H303.913C303.979 231 304.033 231.027 304.073 231.08C304.126 231.12 304.153 231.173 304.153 231.24V233.18ZM315.792 245C315.659 245 315.566 244.94 315.512 244.82L313.012 239.28C312.986 239.227 312.946 239.2 312.892 239.2H311.032C310.966 239.2 310.932 239.233 310.932 239.3V244.76C310.932 244.827 310.906 244.887 310.852 244.94C310.812 244.98 310.759 245 310.692 245H308.352C308.286 245 308.226 244.98 308.172 244.94C308.132 244.887 308.112 244.827 308.112 244.76V231.24C308.112 231.173 308.132 231.12 308.172 231.08C308.226 231.027 308.286 231 308.352 231H314.072C314.926 231 315.672 231.173 316.312 231.52C316.966 231.867 317.466 232.36 317.812 233C318.172 233.64 318.352 234.38 318.352 235.22C318.352 236.127 318.126 236.907 317.672 237.56C317.219 238.2 316.586 238.653 315.772 238.92C315.706 238.947 315.686 238.993 315.712 239.06L318.432 244.72C318.459 244.773 318.472 244.813 318.472 244.84C318.472 244.947 318.399 245 318.252 245H315.792ZM311.032 233.42C310.966 233.42 310.932 233.453 310.932 233.52V236.94C310.932 237.007 310.966 237.04 311.032 237.04H313.652C314.212 237.04 314.666 236.873 315.012 236.54C315.372 236.207 315.552 235.773 315.552 235.24C315.552 234.707 315.372 234.273 315.012 233.94C314.666 233.593 314.212 233.42 313.652 233.42H311.032ZM333.321 245.16C332.281 245.16 331.368 244.96 330.581 244.56C329.795 244.147 329.188 243.573 328.761 242.84C328.335 242.107 328.121 241.26 328.121 240.3V235.68C328.121 234.72 328.335 233.873 328.761 233.14C329.188 232.407 329.795 231.84 330.581 231.44C331.368 231.04 332.281 230.84 333.321 230.84C334.348 230.84 335.248 231.033 336.021 231.42C336.808 231.793 337.415 232.333 337.841 233.04C338.281 233.733 338.501 234.54 338.501 235.46C338.501 235.58 338.421 235.653 338.261 235.68L335.921 235.82H335.881C335.748 235.82 335.681 235.747 335.681 235.6C335.681 234.893 335.461 234.327 335.021 233.9C334.595 233.473 334.028 233.26 333.321 233.26C332.601 233.26 332.021 233.473 331.581 233.9C331.155 234.327 330.941 234.893 330.941 235.6V240.42C330.941 241.113 331.155 241.673 331.581 242.1C332.021 242.527 332.601 242.74 333.321 242.74C334.028 242.74 334.595 242.527 335.021 242.1C335.461 241.673 335.681 241.113 335.681 240.42C335.681 240.273 335.761 240.2 335.921 240.2L338.261 240.3C338.328 240.3 338.381 240.32 338.421 240.36C338.475 240.4 338.501 240.447 338.501 240.5C338.501 241.42 338.281 242.233 337.841 242.94C337.415 243.647 336.808 244.193 336.021 244.58C335.248 244.967 334.348 245.16 333.321 245.16ZM347.549 245.22C346.509 245.22 345.589 245.007 344.789 244.58C344.003 244.153 343.389 243.56 342.949 242.8C342.509 242.027 342.289 241.14 342.289 240.14V235.86C342.289 234.873 342.509 234 342.949 233.24C343.389 232.48 344.003 231.893 344.789 231.48C345.589 231.053 346.509 230.84 347.549 230.84C348.603 230.84 349.523 231.053 350.309 231.48C351.109 231.893 351.729 232.48 352.169 233.24C352.609 234 352.829 234.873 352.829 235.86V240.14C352.829 241.14 352.609 242.027 352.169 242.8C351.729 243.573 351.109 244.173 350.309 244.6C349.523 245.013 348.603 245.22 347.549 245.22ZM347.549 242.8C348.283 242.8 348.876 242.567 349.329 242.1C349.783 241.633 350.009 241.013 350.009 240.24V235.84C350.009 235.067 349.783 234.447 349.329 233.98C348.889 233.5 348.296 233.26 347.549 233.26C346.816 233.26 346.223 233.5 345.769 233.98C345.329 234.447 345.109 235.067 345.109 235.84V240.24C345.109 241.013 345.329 241.633 345.769 242.1C346.223 242.567 346.816 242.8 347.549 242.8ZM357.231 245C357.165 245 357.105 244.98 357.051 244.94C357.011 244.887 356.991 244.827 356.991 244.76V231.24C356.991 231.173 357.011 231.12 357.051 231.08C357.105 231.027 357.165 231 357.231 231H359.571C359.638 231 359.691 231.027 359.731 231.08C359.785 231.12 359.811 231.173 359.811 231.24V242.48C359.811 242.547 359.845 242.58 359.911 242.58H366.451C366.518 242.58 366.571 242.607 366.611 242.66C366.665 242.7 366.691 242.753 366.691 242.82V244.76C366.691 244.827 366.665 244.887 366.611 244.94C366.571 244.98 366.518 245 366.451 245H357.231ZM370.677 245C370.61 245 370.55 244.98 370.497 244.94C370.457 244.887 370.437 244.827 370.437 244.76V231.24C370.437 231.173 370.457 231.12 370.497 231.08C370.55 231.027 370.61 231 370.677 231H375.677C376.677 231 377.55 231.18 378.297 231.54C379.057 231.887 379.643 232.38 380.057 233.02C380.47 233.66 380.677 234.4 380.677 235.24V240.76C380.677 241.6 380.47 242.34 380.057 242.98C379.643 243.62 379.057 244.12 378.297 244.48C377.55 244.827 376.677 245 375.677 245H370.677ZM373.257 242.48C373.257 242.547 373.29 242.58 373.357 242.58H375.777C376.39 242.58 376.883 242.373 377.257 241.96C377.643 241.547 377.843 240.993 377.857 240.3V235.7C377.857 235.007 377.663 234.453 377.277 234.04C376.903 233.627 376.397 233.42 375.757 233.42H373.357C373.29 233.42 373.257 233.453 373.257 233.52V242.48ZM395.604 245.16C394.537 245.16 393.604 244.993 392.804 244.66C392.004 244.313 391.384 243.827 390.944 243.2C390.517 242.56 390.304 241.82 390.304 240.98V240.54C390.304 240.473 390.324 240.42 390.364 240.38C390.417 240.327 390.477 240.3 390.544 240.3H392.824C392.89 240.3 392.944 240.327 392.984 240.38C393.037 240.42 393.064 240.473 393.064 240.54V240.84C393.064 241.373 393.31 241.827 393.804 242.2C394.297 242.56 394.964 242.74 395.804 242.74C396.51 242.74 397.037 242.593 397.384 242.3C397.73 241.993 397.904 241.62 397.904 241.18C397.904 240.86 397.797 240.593 397.584 240.38C397.37 240.153 397.077 239.96 396.704 239.8C396.344 239.627 395.764 239.393 394.964 239.1C394.07 238.793 393.31 238.48 392.684 238.16C392.07 237.84 391.55 237.407 391.124 236.86C390.71 236.3 390.504 235.613 390.504 234.8C390.504 234 390.71 233.3 391.124 232.7C391.537 232.1 392.11 231.64 392.844 231.32C393.577 231 394.424 230.84 395.384 230.84C396.397 230.84 397.297 231.02 398.084 231.38C398.884 231.74 399.504 232.247 399.944 232.9C400.397 233.54 400.624 234.287 400.624 235.14V235.44C400.624 235.507 400.597 235.567 400.544 235.62C400.504 235.66 400.45 235.68 400.384 235.68H398.084C398.017 235.68 397.957 235.66 397.904 235.62C397.864 235.567 397.844 235.507 397.844 235.44V235.28C397.844 234.72 397.61 234.247 397.144 233.86C396.69 233.46 396.064 233.26 395.264 233.26C394.637 233.26 394.144 233.393 393.784 233.66C393.437 233.927 393.264 234.293 393.264 234.76C393.264 235.093 393.364 235.373 393.564 235.6C393.777 235.827 394.084 236.033 394.484 236.22C394.897 236.393 395.53 236.633 396.384 236.94C397.33 237.287 398.07 237.593 398.604 237.86C399.15 238.127 399.637 238.527 400.064 239.06C400.504 239.58 400.724 240.26 400.724 241.1C400.724 242.353 400.264 243.347 399.344 244.08C398.424 244.8 397.177 245.16 395.604 245.16ZM414.202 231C414.269 231 414.322 231.027 414.362 231.08C414.415 231.12 414.442 231.173 414.442 231.24V233.2C414.442 233.267 414.415 233.327 414.362 233.38C414.322 233.42 414.269 233.44 414.202 233.44H410.622C410.555 233.44 410.522 233.473 410.522 233.54V244.76C410.522 244.827 410.495 244.887 410.442 244.94C410.402 244.98 410.349 245 410.282 245H407.942C407.875 245 407.815 244.98 407.762 244.94C407.722 244.887 407.702 244.827 407.702 244.76V233.54C407.702 233.473 407.669 233.44 407.602 233.44H404.122C404.055 233.44 403.995 233.42 403.942 233.38C403.902 233.327 403.882 233.267 403.882 233.2V231.24C403.882 231.173 403.902 231.12 403.942 231.08C403.995 231.027 404.055 231 404.122 231H414.202ZM425.852 245C425.719 245 425.632 244.933 425.592 244.8L424.992 242.84C424.966 242.787 424.932 242.76 424.892 242.76H419.972C419.932 242.76 419.899 242.787 419.872 242.84L419.292 244.8C419.252 244.933 419.166 245 419.032 245H416.492C416.412 245 416.352 244.98 416.312 244.94C416.272 244.887 416.266 244.813 416.292 244.72L420.612 231.2C420.652 231.067 420.739 231 420.872 231H424.012C424.146 231 424.232 231.067 424.272 231.2L428.592 244.72C428.606 244.747 428.612 244.78 428.612 244.82C428.612 244.94 428.539 245 428.392 245H425.852ZM420.592 240.46C420.579 240.54 420.606 240.58 420.672 240.58H424.192C424.272 240.58 424.299 240.54 424.272 240.46L422.472 234.52C422.459 234.467 422.439 234.447 422.412 234.46C422.386 234.46 422.366 234.48 422.352 234.52L420.592 240.46ZM440.05 245C439.917 245 439.823 244.94 439.77 244.82L437.27 239.28C437.243 239.227 437.203 239.2 437.15 239.2H435.29C435.223 239.2 435.19 239.233 435.19 239.3V244.76C435.19 244.827 435.163 244.887 435.11 244.94C435.07 244.98 435.017 245 434.95 245H432.61C432.543 245 432.483 244.98 432.43 244.94C432.39 244.887 432.37 244.827 432.37 244.76V231.24C432.37 231.173 432.39 231.12 432.43 231.08C432.483 231.027 432.543 231 432.61 231H438.33C439.183 231 439.93 231.173 440.57 231.52C441.223 231.867 441.723 232.36 442.07 233C442.43 233.64 442.61 234.38 442.61 235.22C442.61 236.127 442.383 236.907 441.93 237.56C441.477 238.2 440.843 238.653 440.03 238.92C439.963 238.947 439.943 238.993 439.97 239.06L442.69 244.72C442.717 244.773 442.73 244.813 442.73 244.84C442.73 244.947 442.657 245 442.51 245H440.05ZM435.29 233.42C435.223 233.42 435.19 233.453 435.19 233.52V236.94C435.19 237.007 435.223 237.04 435.29 237.04H437.91C438.47 237.04 438.923 236.873 439.27 236.54C439.63 236.207 439.81 235.773 439.81 235.24C439.81 234.707 439.63 234.273 439.27 233.94C438.923 233.593 438.47 233.42 437.91 233.42H435.29ZM456.296 231C456.362 231 456.416 231.027 456.456 231.08C456.509 231.12 456.536 231.173 456.536 231.24V233.2C456.536 233.267 456.509 233.327 456.456 233.38C456.416 233.42 456.362 233.44 456.296 233.44H452.716C452.649 233.44 452.616 233.473 452.616 233.54V244.76C452.616 244.827 452.589 244.887 452.536 244.94C452.496 244.98 452.442 245 452.376 245H450.036C449.969 245 449.909 244.98 449.856 244.94C449.816 244.887 449.796 244.827 449.796 244.76V233.54C449.796 233.473 449.762 233.44 449.696 233.44H446.216C446.149 233.44 446.089 233.42 446.036 233.38C445.996 233.327 445.976 233.267 445.976 233.2V231.24C445.976 231.173 445.996 231.12 446.036 231.08C446.089 231.027 446.149 231 446.216 231H456.296ZM465.018 245.16C463.951 245.16 463.018 244.993 462.218 244.66C461.418 244.313 460.798 243.827 460.358 243.2C459.931 242.56 459.718 241.82 459.718 240.98V240.54C459.718 240.473 459.738 240.42 459.778 240.38C459.831 240.327 459.891 240.3 459.958 240.3H462.238C462.304 240.3 462.358 240.327 462.398 240.38C462.451 240.42 462.478 240.473 462.478 240.54V240.84C462.478 241.373 462.724 241.827 463.218 242.2C463.711 242.56 464.378 242.74 465.218 242.74C465.924 242.74 466.451 242.593 466.798 242.3C467.144 241.993 467.318 241.62 467.318 241.18C467.318 240.86 467.211 240.593 466.998 240.38C466.784 240.153 466.491 239.96 466.118 239.8C465.758 239.627 465.178 239.393 464.378 239.1C463.484 238.793 462.724 238.48 462.098 238.16C461.484 237.84 460.964 237.407 460.538 236.86C460.124 236.3 459.918 235.613 459.918 234.8C459.918 234 460.124 233.3 460.538 232.7C460.951 232.1 461.524 231.64 462.258 231.32C462.991 231 463.838 230.84 464.798 230.84C465.811 230.84 466.711 231.02 467.498 231.38C468.298 231.74 468.918 232.247 469.358 232.9C469.811 233.54 470.038 234.287 470.038 235.14V235.44C470.038 235.507 470.011 235.567 469.958 235.62C469.918 235.66 469.864 235.68 469.798 235.68H467.498C467.431 235.68 467.371 235.66 467.318 235.62C467.278 235.567 467.258 235.507 467.258 235.44V235.28C467.258 234.72 467.024 234.247 466.558 233.86C466.104 233.46 465.478 233.26 464.678 233.26C464.051 233.26 463.558 233.393 463.198 233.66C462.851 233.927 462.678 234.293 462.678 234.76C462.678 235.093 462.778 235.373 462.978 235.6C463.191 235.827 463.498 236.033 463.898 236.22C464.311 236.393 464.944 236.633 465.798 236.94C466.744 237.287 467.484 237.593 468.018 237.86C468.564 238.127 469.051 238.527 469.478 239.06C469.918 239.58 470.138 240.26 470.138 241.1C470.138 242.353 469.678 243.347 468.758 244.08C467.838 244.8 466.591 245.16 465.018 245.16Z"></path>
<path stroke-linejoin="round" stroke-linecap="round" stroke-width="3" stroke-opacity="0.48" stroke="white" d="M542.435 229.92L550.975 238.46L542.435 247"></path>
<path stroke-linejoin="round" stroke-linecap="round" stroke-width="3" stroke-opacity="0.82" stroke="white" d="M554.975 229.92L563.515 238.46L554.975 247"></path>
<path stroke-linejoin="round" stroke-linecap="round" stroke-width="3" stroke="white" d="M567.515 229.92L576.055 238.46L567.515 247"></path>
<defs>
<filter color-interpolation-filters="sRGB" filterUnits="userSpaceOnUse" height="184.099" width="600.492" y="151.95" x="121.754" id="filter0_ddd_1842_66043">
<feFlood result="BackgroundImageFix" flood-opacity="0"></feFlood>
<feColorMatrix result="hardAlpha" values="0 0 0 0 0 0 0 0 0 0 0 0 0 0 0 0 0 0 127 0" type="matrix" in="SourceAlpha"></feColorMatrix>
<feOffset dy="18"></feOffset>
<feGaussianBlur stdDeviation="21"></feGaussianBlur>
<feColorMatrix values="0 0 0 0 0.0901961 0 0 0 0 0.168627 0 0 0 0 0.301961 0 0 0 0.08 0" type="matrix"></feColorMatrix>
<feBlend result="effect1_dropShadow_1842_66043" in2="BackgroundImageFix" mode="normal"></feBlend>
<feColorMatrix result="hardAlpha" values="0 0 0 0 0 0 0 0 0 0 0 0 0 0 0 0 0 0 127 0" type="matrix" in="SourceAlpha"></feColorMatrix>
<feOffset dy="4"></feOffset>
<feGaussianBlur stdDeviation="13"></feGaussianBlur>
<feColorMatrix values="0 0 0 0 0.0901961 0 0 0 0 0.168627 0 0 0 0 0.301961 0 0 0 0.05 0" type="matrix"></feColorMatrix>
<feBlend result="effect2_dropShadow_1842_66043" in2="effect1_dropShadow_1842_66043" mode="normal"></feBlend>
<feColorMatrix result="hardAlpha" values="0 0 0 0 0 0 0 0 0 0 0 0 0 0 0 0 0 0 127 0" type="matrix" in="SourceAlpha"></feColorMatrix>
<feOffset></feOffset>
<feGaussianBlur stdDeviation="23"></feGaussianBlur>
<feComposite operator="out" in2="hardAlpha"></feComposite>
<feColorMatrix values="0 0 0 0 0.0901961 0 0 0 0 0.168627 0 0 0 0 0.301961 0 0 0 0.01 0" type="matrix"></feColorMatrix>
<feBlend result="effect3_dropShadow_1842_66043" in2="effect2_dropShadow_1842_66043" mode="normal"></feBlend>
<feBlend result="shape" in2="effect3_dropShadow_1842_66043" in="SourceGraphic" mode="normal"></feBlend>
</filter>
<filter color-interpolation-filters="sRGB" filterUnits="userSpaceOnUse" height="164.651" width="511.88" y="161.674" x="133.132" id="filter1_ddd_1842_66043">
<feFlood result="BackgroundImageFix" flood-opacity="0"></feFlood>
<feColorMatrix result="hardAlpha" values="0 0 0 0 0 0 0 0 0 0 0 0 0 0 0 0 0 0 127 0" type="matrix" in="SourceAlpha"></feColorMatrix>
<feOffset dy="18"></feOffset>
<feGaussianBlur stdDeviation="21"></feGaussianBlur>
<feColorMatrix values="0 0 0 0 0.0901961 0 0 0 0 0.168627 0 0 0 0 0.301961 0 0 0 0.08 0" type="matrix"></feColorMatrix>
<feBlend result="effect1_dropShadow_1842_66043" in2="BackgroundImageFix" mode="normal"></feBlend>
<feColorMatrix result="hardAlpha" values="0 0 0 0 0 0 0 0 0 0 0 0 0 0 0 0 0 0 127 0" type="matrix" in="SourceAlpha"></feColorMatrix>
<feOffset dy="4"></feOffset>
<feGaussianBlur stdDeviation="13"></feGaussianBlur>
<feColorMatrix values="0 0 0 0 0.0901961 0 0 0 0 0.168627 0 0 0 0 0.301961 0 0 0 0.05 0" type="matrix"></feColorMatrix>
<feBlend result="effect2_dropShadow_1842_66043" in2="effect1_dropShadow_1842_66043" mode="normal"></feBlend>
<feColorMatrix result="hardAlpha" values="0 0 0 0 0 0 0 0 0 0 0 0 0 0 0 0 0 0 127 0" type="matrix" in="SourceAlpha"></feColorMatrix>
<feOffset></feOffset>
<feGaussianBlur stdDeviation="23"></feGaussianBlur>
<feComposite operator="out" in2="hardAlpha"></feComposite>
<feColorMatrix values="0 0 0 0 0.0901961 0 0 0 0 0.168627 0 0 0 0 0.301961 0 0 0 0.01 0" type="matrix"></feColorMatrix>
<feBlend result="effect3_dropShadow_1842_66043" in2="effect2_dropShadow_1842_66043" mode="normal"></feBlend>
<feBlend result="shape" in2="effect3_dropShadow_1842_66043" in="SourceGraphic" mode="normal"></feBlend>
</filter>
<radialGradient gradientTransform="translate(422 205.894) rotate(90) scale(298.225 531.017)" gradientUnits="userSpaceOnUse" r="1" cy="0" cx="0" id="paint0_radial_1842_66043">
<stop stop-color="#667EEA" offset="0.311258"></stop>
<stop stop-color="#5A67D8" offset="1"></stop>
</radialGradient>
<linearGradient gradientUnits="userSpaceOnUse" y2="276.049" x2="422" y1="197.95" x1="422" id="paint1_linear_1842_66043">
<stop stop-color="#4247B8" offset="0.0648065"></stop>
<stop stop-color="#434190" offset="1"></stop>
</linearGradient>
<linearGradient gradientUnits="userSpaceOnUse" y2="281.094" x2="169.616" y1="212.655" x1="579.759" id="paint2_linear_1842_66043">
<stop stop-color="#68D391"></stop>
<stop stop-color="#68D3C0" offset="1"></stop>
</linearGradient>
</defs>
</svg>
