<svg width="1055" height="598" viewBox="0 0 1055 598" fill="none" xmlns="http://www.w3.org/2000/svg">
<path fill-rule="evenodd" clip-rule="evenodd" d="M283.807 165.486L161.544 240.054C157.809 242.333 152.989 239.889 152.752 235.597L139.704 -2.74663C139.46 -7.20381 145.15 -9.44648 148.048 -6.03511L285.472 155.692C288.063 158.743 287.279 163.37 283.807 165.486ZM304.101 150.187L144.983 -37.0734C140.997 -41.7526 134.728 -43.8699 128.612 -42.5827C122.33 -41.2832 117.583 -36.8339 115.809 -30.9505L53.1144 176.022C51.1811 182.467 53.0753 189.268 58.0811 193.782L134.194 262.295C138.732 266.386 145.065 267.761 150.849 266.211C152.488 265.772 154.075 265.1 155.568 264.189L299.666 176.304C304.08 173.612 307.095 169.193 307.949 164.179C308.796 159.164 307.394 154.061 304.101 150.187Z" stroke="#E2E8F0" stroke-width="2" stroke-dasharray="20 10"/>
<path fill-rule="evenodd" clip-rule="evenodd" d="M839.254 231.364L812.222 216.613C811.396 216.162 811.333 215.002 812.106 214.496L855.089 186.44C855.893 185.916 856.923 186.734 856.599 187.641L841.257 230.621C840.967 231.432 840.021 231.783 839.254 231.364ZM844.285 233.499L862.05 183.733C862.493 182.487 862.213 181.092 861.315 180.092C860.398 179.062 859.059 178.656 857.773 178.958L812.488 189.536C811.08 189.869 810.017 190.953 809.715 192.37L805.139 213.911C804.865 215.196 805.29 216.523 806.201 217.434C806.459 217.692 806.754 217.915 807.085 218.095L838.944 235.481C839.92 236.013 841.067 236.1 842.093 235.72C843.118 235.338 843.917 234.528 844.285 233.499Z" stroke="#E2E8F0" stroke-width="2" stroke-dasharray="20 10"/>
<path fill-rule="evenodd" clip-rule="evenodd" d="M194.669 399.665L173.227 443.286C172.573 444.619 170.747 444.796 169.898 443.61L122.762 377.718C121.88 376.486 123.101 374.807 124.553 375.257L193.363 396.557C194.661 396.959 195.278 398.427 194.669 399.665ZM197.696 391.588L118.023 366.924C116.03 366.31 113.849 366.845 112.331 368.327C110.768 369.843 110.219 371.982 110.782 373.99L130.511 444.689C131.131 446.887 132.912 448.49 135.168 448.871L169.443 454.636C171.488 454.982 173.552 454.222 174.927 452.725C175.316 452.301 175.649 451.82 175.91 451.287L201.182 399.876C201.955 398.301 202.015 396.487 201.346 394.895C200.675 393.305 199.345 392.098 197.696 391.588Z" stroke="#E2E8F0" stroke-width="2" stroke-dasharray="20 10"/>
<path fill-rule="evenodd" clip-rule="evenodd" d="M885.649 388.785L987.354 386.337C990.462 386.261 992.559 389.477 991.18 392.202L914.549 543.47C913.116 546.299 908.819 545.657 908.247 542.529L881.147 394.219C880.636 391.421 882.762 388.853 885.649 388.785ZM867.73 390.989L899.108 562.713C899.898 567.007 903.003 570.537 907.223 571.917C911.549 573.349 916.05 572.298 919.232 569.309L1031.32 464.244C1034.8 460.966 1036.05 456.109 1034.57 451.554L1012.08 382.369C1010.74 378.24 1007.33 375.145 1003.23 374.044C1002.06 373.732 1000.85 373.581 999.603 373.611L879.735 376.496C876.064 376.585 872.639 378.232 870.332 381.014C868.03 383.798 867.08 387.436 867.73 390.989Z" stroke="#E2E8F0" stroke-width="2" stroke-dasharray="20 10"/>
<path d="M996.188 216.195L995.212 216.413L995.214 216.419L996.188 216.195ZM934.465 230.346L934.689 231.321L935.664 231.097L935.44 230.122L934.465 230.346ZM934.465 230.346L934.241 229.372L933.266 229.596L933.491 230.571L934.465 230.346ZM997.152 215.921C996.2 211.787 992.393 208.891 987.288 207.255L986.678 209.16C991.514 210.709 994.486 213.254 995.202 216.369L997.152 215.921ZM974.422 205.604C970.397 205.672 966.068 206.195 961.632 207.216L962.081 209.165C966.387 208.174 970.577 207.67 974.456 207.603L974.422 205.604ZM961.632 207.216C957.197 208.236 953.074 209.659 949.425 211.356L950.268 213.17C953.785 211.534 957.775 210.156 962.081 209.165L961.632 207.216ZM938.574 218.465C934.698 222.167 932.539 226.437 933.491 230.57L935.44 230.122C934.723 227.007 936.283 223.418 939.955 219.912L938.574 218.465ZM933.491 230.57C933.491 230.57 933.491 230.57 933.491 230.57L935.44 230.122C935.44 230.122 935.44 230.122 935.44 230.122L933.491 230.57ZM933.491 230.57C933.491 230.571 933.491 230.571 933.491 230.571L935.44 230.122C935.44 230.122 935.44 230.122 935.44 230.122L933.491 230.57ZM934.241 229.372L934.241 229.372L934.689 231.321L934.689 231.321L934.241 229.372ZM934.241 229.372L934.241 229.372L934.689 231.321L934.689 231.321L934.241 229.372ZM933.491 230.571L936.704 244.535L938.653 244.086L935.44 230.122L933.491 230.571ZM939.917 258.499L943.131 272.463L945.08 272.015L941.866 258.051L939.917 258.499ZM943.131 272.463C944.082 276.597 947.889 279.494 952.994 281.129L953.604 279.224C948.768 277.675 945.797 275.13 945.08 272.015L943.131 272.463ZM965.86 282.78C969.885 282.712 974.215 282.189 978.65 281.168L978.201 279.219C973.896 280.21 969.705 280.714 965.826 280.781L965.86 282.78ZM978.65 281.168C983.085 280.148 987.208 278.725 990.858 277.028L990.014 275.215C986.497 276.85 982.507 278.228 978.201 279.219L978.65 281.168ZM1001.71 269.919C1005.58 266.217 1007.74 261.947 1006.79 257.814L1004.84 258.262C1005.56 261.377 1004 264.966 1000.33 268.472L1001.71 269.919ZM1006.79 257.814L1003.58 243.866L1001.63 244.315L1004.84 258.262L1006.79 257.814ZM1000.37 229.919L997.163 215.971L995.214 216.419L998.423 230.367L1000.37 229.919ZM997.164 215.977C997.163 215.971 997.162 215.965 997.16 215.958L995.209 216.398C995.21 216.403 995.211 216.408 995.212 216.413L997.164 215.977ZM997.156 215.94C997.154 215.933 997.153 215.927 997.152 215.921L995.202 216.369C995.204 216.374 995.205 216.379 995.206 216.384L997.156 215.94Z" fill="#E2E8F0"/>
<ellipse cx="965.469" cy="222.996" rx="31.8629" ry="15.2388" transform="rotate(-12.9591 965.469 222.996)" stroke="#E2E8F0" stroke-width="2" stroke-dasharray="20 10"/>
<path d="M1001.39 237.001C1003.27 245.203 990.903 255.051 973.753 258.998C956.604 262.944 941.172 259.494 939.285 251.292" stroke="#E2E8F0" stroke-width="2" stroke-dasharray="20 10"/>
</svg>
