<svg xmlns="http://www.w3.org/2000/svg" fill="none" viewBox="0 0 844 474" height="474" width="844">
<g clip-path="url(#clip0_9098_9262)">
<rect fill="url(#paint0_linear_9098_9262)" height="474" width="844"></rect>
<g opacity="0.5">
<g filter="url(#filter0_f_9098_9262)">
<ellipse fill="#5A67D8" ry="81.8401" rx="86.5046" cy="295.168" cx="426.586"></ellipse>
</g>
<g filter="url(#filter1_f_9098_9262)">
<ellipse fill="#5A67D8" ry="81.8401" rx="29.683" cy="295.168" cx="426.586"></ellipse>
</g>
</g>
<path fill="white" d="M165.529 123.827C168.302 123.827 170.738 124.394 172.839 125.528C174.939 126.663 176.557 128.28 177.691 130.38C178.867 132.439 179.455 134.812 179.455 137.501C179.455 140.148 178.846 142.479 177.628 144.496C176.452 146.512 174.771 148.087 172.587 149.222C170.444 150.314 167.966 150.86 165.151 150.86H156.203C155.993 150.86 155.888 150.965 155.888 151.175V167.244C155.888 167.454 155.804 167.643 155.636 167.811C155.51 167.937 155.342 168 155.132 168H147.759C147.549 168 147.36 167.937 147.192 167.811C147.066 167.643 147.003 167.454 147.003 167.244V124.583C147.003 124.373 147.066 124.205 147.192 124.079C147.36 123.911 147.549 123.827 147.759 123.827H165.529ZM164.206 143.74C166.138 143.74 167.693 143.193 168.869 142.101C170.045 140.967 170.633 139.497 170.633 137.69C170.633 135.842 170.045 134.35 168.869 133.216C167.693 132.082 166.138 131.515 164.206 131.515H156.203C155.993 131.515 155.888 131.62 155.888 131.83V143.424C155.888 143.634 155.993 143.74 156.203 143.74H164.206ZM200.482 135.17C201.994 135.17 203.191 135.464 204.074 136.052C204.41 136.22 204.536 136.535 204.452 136.997L203.128 144.181C203.086 144.685 202.792 144.832 202.246 144.622C201.616 144.412 200.881 144.307 200.041 144.307C199.705 144.307 199.243 144.349 198.654 144.433C197.142 144.559 195.861 145.126 194.811 146.134C193.76 147.1 193.235 148.403 193.235 150.041V167.244C193.235 167.454 193.151 167.643 192.983 167.811C192.857 167.937 192.689 168 192.479 168H185.106C184.896 168 184.707 167.937 184.539 167.811C184.413 167.643 184.35 167.454 184.35 167.244V136.367C184.35 136.157 184.413 135.989 184.539 135.863C184.707 135.695 184.896 135.611 185.106 135.611H192.479C192.689 135.611 192.857 135.695 192.983 135.863C193.151 135.989 193.235 136.157 193.235 136.367V138.761C193.235 138.887 193.277 138.971 193.361 139.013C193.445 139.055 193.508 139.034 193.55 138.95C195.273 136.43 197.583 135.17 200.482 135.17ZM213.262 131.956C211.834 131.956 210.636 131.494 209.67 130.57C208.746 129.603 208.284 128.406 208.284 126.978C208.284 125.507 208.746 124.31 209.67 123.386C210.594 122.462 211.792 122 213.262 122C214.732 122 215.93 122.462 216.854 123.386C217.778 124.31 218.24 125.507 218.24 126.978C218.24 128.406 217.757 129.603 216.791 130.57C215.867 131.494 214.69 131.956 213.262 131.956ZM209.481 168C209.271 168 209.082 167.937 208.914 167.811C208.788 167.643 208.725 167.454 208.725 167.244V136.304C208.725 136.094 208.788 135.926 208.914 135.8C209.082 135.632 209.271 135.548 209.481 135.548H216.854C217.064 135.548 217.232 135.632 217.358 135.8C217.526 135.926 217.61 136.094 217.61 136.304V167.244C217.61 167.454 217.526 167.643 217.358 167.811C217.232 167.937 217.064 168 216.854 168H209.481ZM237.452 168.441C234.637 168.441 232.18 168.042 230.079 167.244C227.979 166.446 226.341 165.332 225.164 163.904C224.03 162.476 223.463 160.858 223.463 159.052V158.422C223.463 158.212 223.526 158.044 223.652 157.918C223.82 157.75 224.009 157.666 224.219 157.666H231.214C231.424 157.666 231.592 157.75 231.718 157.918C231.886 158.044 231.97 158.212 231.97 158.422V158.485C231.97 159.409 232.474 160.207 233.482 160.879C234.532 161.51 235.835 161.825 237.389 161.825C238.817 161.825 239.973 161.552 240.855 161.005C241.737 160.417 242.178 159.703 242.178 158.863C242.178 158.107 241.8 157.54 241.044 157.162C240.288 156.783 239.048 156.384 237.326 155.964C235.352 155.46 233.797 154.977 232.663 154.515C229.974 153.591 227.832 152.456 226.235 151.112C224.639 149.768 223.841 147.835 223.841 145.315C223.841 142.206 225.038 139.749 227.433 137.942C229.869 136.094 233.083 135.17 237.074 135.17C239.763 135.17 242.115 135.611 244.132 136.493C246.148 137.333 247.702 138.53 248.795 140.085C249.929 141.639 250.496 143.403 250.496 145.378C250.496 145.588 250.412 145.777 250.244 145.945C250.118 146.071 249.95 146.134 249.74 146.134H242.997C242.787 146.134 242.598 146.071 242.43 145.945C242.304 145.777 242.241 145.588 242.241 145.378C242.241 144.454 241.758 143.676 240.792 143.046C239.868 142.416 238.628 142.101 237.074 142.101C235.688 142.101 234.553 142.353 233.671 142.857C232.789 143.361 232.348 144.055 232.348 144.937C232.348 145.777 232.768 146.407 233.608 146.827C234.49 147.247 235.94 147.688 237.956 148.151C238.418 148.277 238.943 148.424 239.532 148.592C240.12 148.718 240.75 148.886 241.422 149.096C244.405 149.978 246.757 151.112 248.48 152.498C250.202 153.885 251.063 155.901 251.063 158.548C251.063 161.657 249.824 164.093 247.345 165.858C244.909 167.58 241.611 168.441 237.452 168.441ZM292.082 135.107C295.359 135.107 297.922 136.094 299.77 138.068C301.619 140.043 302.543 142.815 302.543 146.386V167.244C302.543 167.454 302.459 167.643 302.291 167.811C302.165 167.937 301.997 168 301.787 168H294.414C294.204 168 294.015 167.937 293.847 167.811C293.721 167.643 293.658 167.454 293.658 167.244V148.34C293.658 146.617 293.217 145.252 292.335 144.244C291.452 143.235 290.276 142.731 288.806 142.731C287.335 142.731 286.138 143.235 285.214 144.244C284.29 145.252 283.828 146.596 283.828 148.277V167.244C283.828 167.454 283.744 167.643 283.576 167.811C283.449 167.937 283.281 168 283.071 168H275.762C275.552 168 275.363 167.937 275.195 167.811C275.069 167.643 275.006 167.454 275.006 167.244V148.34C275.006 146.659 274.543 145.315 273.619 144.307C272.695 143.256 271.498 142.731 270.027 142.731C268.683 142.731 267.549 143.13 266.625 143.929C265.742 144.727 265.217 145.84 265.049 147.268V167.244C265.049 167.454 264.965 167.643 264.797 167.811C264.671 167.937 264.503 168 264.293 168H256.92C256.71 168 256.521 167.937 256.353 167.811C256.227 167.643 256.164 167.454 256.164 167.244V136.367C256.164 136.157 256.227 135.989 256.353 135.863C256.521 135.695 256.71 135.611 256.92 135.611H264.293C264.503 135.611 264.671 135.695 264.797 135.863C264.965 135.989 265.049 136.157 265.049 136.367V138.824C265.049 138.95 265.091 139.034 265.175 139.076C265.259 139.118 265.343 139.076 265.427 138.95C267.15 136.388 269.817 135.107 273.43 135.107C275.531 135.107 277.358 135.548 278.912 136.43C280.509 137.312 281.727 138.572 282.567 140.211C282.693 140.463 282.84 140.463 283.008 140.211C283.933 138.488 285.172 137.207 286.726 136.367C288.323 135.527 290.108 135.107 292.082 135.107ZM321.697 135.107C324.427 135.107 326.864 135.59 329.006 136.556C331.149 137.48 332.808 138.761 333.984 140.4C335.203 142.038 335.812 143.866 335.812 145.882V167.244C335.812 167.454 335.728 167.643 335.56 167.811C335.434 167.937 335.266 168 335.056 168H327.683C327.473 168 327.284 167.937 327.116 167.811C326.99 167.643 326.927 167.454 326.927 167.244V165.164C326.927 165.038 326.885 164.954 326.801 164.912C326.717 164.87 326.633 164.912 326.549 165.038C324.784 167.349 321.949 168.504 318.042 168.504C314.765 168.504 312.119 167.706 310.102 166.11C308.086 164.513 307.077 162.161 307.077 159.052C307.077 155.817 308.212 153.318 310.48 151.553C312.749 149.747 315.983 148.844 320.184 148.844H326.612C326.822 148.844 326.927 148.739 326.927 148.529V147.142C326.927 145.756 326.507 144.685 325.667 143.929C324.826 143.13 323.566 142.731 321.886 142.731C320.583 142.731 319.491 142.962 318.609 143.424C317.769 143.887 317.223 144.538 316.971 145.378C316.845 145.84 316.572 146.05 316.151 146.008L308.527 145C308.023 144.916 307.792 144.727 307.834 144.433C308.002 142.668 308.695 141.072 309.913 139.644C311.173 138.215 312.812 137.102 314.828 136.304C316.887 135.506 319.176 135.107 321.697 135.107ZM320.436 161.888C322.243 161.888 323.776 161.405 325.036 160.438C326.297 159.472 326.927 158.233 326.927 156.72V154.452C326.927 154.242 326.822 154.137 326.612 154.137H322.075C320.184 154.137 318.693 154.494 317.601 155.208C316.551 155.922 316.025 156.93 316.025 158.233C316.025 159.367 316.425 160.27 317.223 160.942C318.021 161.573 319.092 161.888 320.436 161.888ZM370.943 168.693C367.667 168.693 364.768 168.021 362.247 166.677C359.769 165.332 357.836 163.463 356.45 161.068C355.064 158.632 354.371 155.838 354.371 152.688V139.202C354.371 136.094 355.064 133.342 356.45 130.948C357.836 128.553 359.769 126.705 362.247 125.402C364.768 124.058 367.667 123.386 370.943 123.386C374.262 123.386 377.161 124.058 379.639 125.402C382.16 126.705 384.113 128.553 385.5 130.948C386.886 133.342 387.579 136.094 387.579 139.202V152.688C387.579 155.838 386.886 158.632 385.5 161.068C384.113 163.505 382.16 165.395 379.639 166.74C377.161 168.042 374.262 168.693 370.943 168.693ZM370.943 161.068C373.254 161.068 375.123 160.333 376.552 158.863C377.98 157.393 378.694 155.439 378.694 153.003V139.139C378.694 136.703 377.98 134.749 376.552 133.279C375.165 131.767 373.296 131.011 370.943 131.011C368.633 131.011 366.763 131.767 365.335 133.279C363.949 134.749 363.256 136.703 363.256 139.139V153.003C363.256 155.439 363.949 157.393 365.335 158.863C366.763 160.333 368.633 161.068 370.943 161.068ZM418.588 168C418.168 168 417.874 167.811 417.706 167.433L409.829 149.978C409.745 149.81 409.619 149.726 409.451 149.726H403.591C403.381 149.726 403.276 149.831 403.276 150.041V167.244C403.276 167.454 403.192 167.643 403.024 167.811C402.897 167.937 402.729 168 402.519 168H395.147C394.937 168 394.748 167.937 394.58 167.811C394.454 167.643 394.391 167.454 394.391 167.244V124.646C394.391 124.436 394.454 124.268 394.58 124.142C394.748 123.974 394.937 123.89 395.147 123.89H413.169C415.857 123.89 418.21 124.436 420.226 125.528C422.285 126.621 423.86 128.175 424.952 130.191C426.087 132.208 426.654 134.539 426.654 137.186C426.654 140.043 425.94 142.5 424.511 144.559C423.083 146.575 421.088 148.003 418.525 148.844C418.315 148.928 418.252 149.075 418.336 149.285L426.906 167.118C426.99 167.286 427.032 167.412 427.032 167.496C427.032 167.832 426.801 168 426.339 168H418.588ZM403.591 131.515C403.381 131.515 403.276 131.62 403.276 131.83V142.605C403.276 142.815 403.381 142.92 403.591 142.92H411.846C413.61 142.92 415.038 142.395 416.13 141.345C417.265 140.295 417.832 138.929 417.832 137.249C417.832 135.569 417.265 134.203 416.13 133.153C415.038 132.061 413.61 131.515 411.846 131.515H403.591ZM461.454 124.394C461.664 124.058 461.958 123.89 462.336 123.89H469.709C469.919 123.89 470.087 123.974 470.213 124.142C470.381 124.268 470.465 124.436 470.465 124.646V167.244C470.465 167.454 470.381 167.643 470.213 167.811C470.087 167.937 469.919 168 469.709 168H462.336C462.126 168 461.937 167.937 461.769 167.811C461.643 167.643 461.58 167.454 461.58 167.244V139.455C461.58 139.286 461.538 139.202 461.454 139.202C461.37 139.202 461.286 139.265 461.202 139.392L454.522 149.852C454.312 150.188 454.018 150.356 453.64 150.356H449.922C449.544 150.356 449.25 150.188 449.04 149.852L442.361 139.392C442.277 139.265 442.193 139.223 442.109 139.265C442.025 139.265 441.983 139.35 441.983 139.518V167.244C441.983 167.454 441.899 167.643 441.731 167.811C441.604 167.937 441.436 168 441.226 168H433.854C433.644 168 433.455 167.937 433.287 167.811C433.161 167.643 433.098 167.454 433.098 167.244V124.646C433.098 124.436 433.161 124.268 433.287 124.142C433.455 123.974 433.644 123.89 433.854 123.89H441.226C441.604 123.89 441.899 124.058 442.109 124.394L451.561 139.076C451.687 139.329 451.813 139.329 451.939 139.076L461.454 124.394ZM508.78 141.975C508.78 142.185 508.696 142.374 508.528 142.542C508.402 142.668 508.234 142.731 508.024 142.731H501.975C501.765 142.731 501.66 142.836 501.66 143.046V156.405C501.66 157.792 501.933 158.821 502.479 159.493C503.067 160.165 503.991 160.501 505.251 160.501H507.331C507.541 160.501 507.709 160.585 507.835 160.753C508.003 160.879 508.087 161.047 508.087 161.257V167.244C508.087 167.706 507.835 167.979 507.331 168.063C505.566 168.147 504.306 168.189 503.55 168.189C500.063 168.189 497.459 167.622 495.736 166.488C494.014 165.311 493.132 163.127 493.09 159.934V143.046C493.09 142.836 492.985 142.731 492.775 142.731H489.183C488.973 142.731 488.784 142.668 488.616 142.542C488.49 142.374 488.427 142.185 488.427 141.975V136.367C488.427 136.157 488.49 135.989 488.616 135.863C488.784 135.695 488.973 135.611 489.183 135.611H492.775C492.985 135.611 493.09 135.506 493.09 135.296V127.797C493.09 127.587 493.153 127.419 493.279 127.293C493.447 127.125 493.636 127.041 493.846 127.041H500.903C501.113 127.041 501.281 127.125 501.407 127.293C501.576 127.419 501.66 127.587 501.66 127.797V135.296C501.66 135.506 501.765 135.611 501.975 135.611H508.024C508.234 135.611 508.402 135.695 508.528 135.863C508.696 135.989 508.78 136.157 508.78 136.367V141.975ZM528.002 168.504C524.474 168.504 521.449 167.58 518.928 165.731C516.408 163.883 514.685 161.362 513.761 158.17C513.173 156.195 512.879 154.053 512.879 151.742C512.879 149.264 513.173 147.037 513.761 145.063C514.727 141.954 516.471 139.518 518.991 137.753C521.512 135.989 524.537 135.107 528.066 135.107C531.51 135.107 534.451 135.989 536.888 137.753C539.324 139.476 541.046 141.891 542.055 145C542.727 147.1 543.063 149.306 543.063 151.616C543.063 153.885 542.769 156.006 542.181 157.981C541.256 161.257 539.534 163.841 537.014 165.731C534.535 167.58 531.531 168.504 528.002 168.504ZM528.002 160.879C529.389 160.879 530.565 160.459 531.531 159.619C532.498 158.779 533.191 157.624 533.611 156.153C533.947 154.809 534.115 153.339 534.115 151.742C534.115 149.978 533.947 148.487 533.611 147.268C533.149 145.84 532.434 144.727 531.468 143.929C530.502 143.13 529.326 142.731 527.939 142.731C526.511 142.731 525.314 143.13 524.348 143.929C523.423 144.727 522.751 145.84 522.331 147.268C521.995 148.277 521.827 149.768 521.827 151.742C521.827 153.633 521.974 155.103 522.268 156.153C522.688 157.624 523.381 158.779 524.348 159.619C525.356 160.459 526.574 160.879 528.002 160.879ZM592.582 130.759C592.582 130.969 592.498 131.158 592.33 131.326C592.204 131.452 592.036 131.515 591.826 131.515H571.157C570.947 131.515 570.842 131.62 570.842 131.83V141.597C570.842 141.807 570.947 141.912 571.157 141.912H584.705C584.915 141.912 585.083 141.996 585.209 142.164C585.377 142.29 585.461 142.458 585.461 142.668V148.781C585.461 148.991 585.377 149.18 585.209 149.348C585.083 149.474 584.915 149.537 584.705 149.537H571.157C570.947 149.537 570.842 149.642 570.842 149.852V160.06C570.842 160.27 570.947 160.375 571.157 160.375H591.826C592.036 160.375 592.204 160.459 592.33 160.627C592.498 160.753 592.582 160.921 592.582 161.131V167.244C592.582 167.454 592.498 167.643 592.33 167.811C592.204 167.937 592.036 168 591.826 168H562.713C562.503 168 562.314 167.937 562.146 167.811C562.02 167.643 561.957 167.454 561.957 167.244V124.646C561.957 124.436 562.02 124.268 562.146 124.142C562.314 123.974 562.503 123.89 562.713 123.89H591.826C592.036 123.89 592.204 123.974 592.33 124.142C592.498 124.268 592.582 124.436 592.582 124.646V130.759ZM596.929 168C596.635 168 596.425 167.916 596.299 167.748C596.215 167.538 596.257 167.307 596.425 167.055L606.57 151.994C606.654 151.868 606.654 151.742 606.57 151.616L596.425 136.556C596.341 136.388 596.299 136.241 596.299 136.115C596.299 135.779 596.509 135.611 596.929 135.611H604.806C605.184 135.611 605.478 135.779 605.688 136.115L611.359 144.748C611.527 145 611.674 145 611.8 144.748L617.471 136.115C617.681 135.779 617.976 135.611 618.354 135.611H626.798C627.092 135.611 627.281 135.716 627.365 135.926C627.449 136.094 627.407 136.304 627.239 136.556L617.156 151.616C617.114 151.742 617.114 151.868 617.156 151.994L627.239 167.055C627.323 167.181 627.365 167.328 627.365 167.496C627.365 167.832 627.176 168 626.798 168H618.858C618.48 168 618.186 167.832 617.976 167.496L612.304 158.863C612.178 158.611 612.052 158.611 611.926 158.863L606.255 167.496C606.045 167.832 605.751 168 605.373 168H596.929ZM661.02 144.307C661.776 146.449 662.154 148.97 662.154 151.868C662.154 154.767 661.755 157.393 660.957 159.745C659.99 162.434 658.457 164.576 656.357 166.173C654.298 167.727 651.736 168.504 648.669 168.504C645.644 168.504 643.292 167.454 641.611 165.353C641.527 165.227 641.443 165.185 641.359 165.227C641.275 165.269 641.233 165.353 641.233 165.479V178.964C641.233 179.175 641.149 179.343 640.981 179.469C640.855 179.637 640.687 179.721 640.477 179.721H633.104C632.894 179.721 632.705 179.637 632.537 179.469C632.411 179.343 632.348 179.175 632.348 178.964V136.367C632.348 136.157 632.411 135.989 632.537 135.863C632.705 135.695 632.894 135.611 633.104 135.611H640.477C640.687 135.611 640.855 135.695 640.981 135.863C641.149 135.989 641.233 136.157 641.233 136.367V138.446C641.233 138.572 641.275 138.656 641.359 138.698C641.443 138.698 641.527 138.656 641.611 138.572C643.376 136.262 645.812 135.107 648.921 135.107C651.82 135.107 654.319 135.926 656.42 137.564C658.562 139.16 660.096 141.408 661.02 144.307ZM651.379 158.422C652.429 156.783 652.954 154.557 652.954 151.742C652.954 149.096 652.513 146.995 651.631 145.441C650.664 143.634 649.11 142.731 646.968 142.731C645.035 142.731 643.586 143.634 642.62 145.441C641.737 146.953 641.296 149.075 641.296 151.805C641.296 154.62 641.758 156.804 642.683 158.359C643.649 160.039 645.077 160.879 646.968 160.879C648.858 160.879 650.328 160.06 651.379 158.422ZM682.031 168.504C678.502 168.504 675.477 167.58 672.957 165.731C670.436 163.883 668.714 161.362 667.789 158.17C667.201 156.195 666.907 154.053 666.907 151.742C666.907 149.264 667.201 147.037 667.789 145.063C668.756 141.954 670.499 139.518 673.02 137.753C675.54 135.989 678.565 135.107 682.094 135.107C685.538 135.107 688.479 135.989 690.916 137.753C693.352 139.476 695.075 141.891 696.083 145C696.755 147.1 697.091 149.306 697.091 151.616C697.091 153.885 696.797 156.006 696.209 157.981C695.285 161.257 693.562 163.841 691.042 165.731C688.563 167.58 685.559 168.504 682.031 168.504ZM682.031 160.879C683.417 160.879 684.593 160.459 685.559 159.619C686.526 158.779 687.219 157.624 687.639 156.153C687.975 154.809 688.143 153.339 688.143 151.742C688.143 149.978 687.975 148.487 687.639 147.268C687.177 145.84 686.463 144.727 685.496 143.929C684.53 143.13 683.354 142.731 681.968 142.731C680.539 142.731 679.342 143.13 678.376 143.929C677.452 144.727 676.779 145.84 676.359 147.268C676.023 148.277 675.855 149.768 675.855 151.742C675.855 153.633 676.002 155.103 676.296 156.153C676.716 157.624 677.41 158.779 678.376 159.619C679.384 160.459 680.602 160.879 682.031 160.879Z"></path>
<path fill="#C3DAFE" d="M363.62 93.8223C363.507 93.8788 363.507 93.9353 363.62 93.9919C365.41 94.9154 366.305 96.4513 366.305 98.5998C366.305 100.428 365.683 101.813 364.439 102.755C363.196 103.679 361.565 104.141 359.549 104.141H352.227C352.133 104.141 352.048 104.112 351.973 104.056C351.916 103.98 351.888 103.896 351.888 103.801V84.6912C351.888 84.597 351.916 84.5216 351.973 84.4651C352.048 84.3897 352.133 84.352 352.227 84.352H359.323C363.789 84.352 366.023 86.1612 366.023 89.7797C366.023 91.6644 365.222 93.0119 363.62 93.8223ZM356.015 87.7726C355.921 87.7726 355.874 87.8197 355.874 87.9139V92.324C355.874 92.4182 355.921 92.4653 356.015 92.4653H359.323C360.208 92.4653 360.896 92.258 361.386 91.8434C361.876 91.4288 362.121 90.8634 362.121 90.1472C362.121 89.4122 361.876 88.8374 361.386 88.4228C360.896 87.9893 360.208 87.7726 359.323 87.7726H356.015ZM359.549 100.692C360.416 100.692 361.094 100.475 361.584 100.042C362.074 99.5892 362.319 98.9767 362.319 98.204C362.319 97.4313 362.074 96.8283 361.584 96.3948C361.094 95.9425 360.406 95.7163 359.521 95.7163H356.015C355.921 95.7163 355.874 95.7634 355.874 95.8577V100.55C355.874 100.645 355.921 100.692 356.015 100.692H359.549ZM383.101 104.141C382.912 104.141 382.78 104.056 382.705 103.886L379.171 96.0556C379.133 95.9802 379.077 95.9425 379.002 95.9425H376.372C376.278 95.9425 376.231 95.9896 376.231 96.0838V103.801C376.231 103.896 376.193 103.98 376.118 104.056C376.062 104.112 375.986 104.141 375.892 104.141H372.584C372.49 104.141 372.405 104.112 372.33 104.056C372.273 103.98 372.245 103.896 372.245 103.801V84.6912C372.245 84.597 372.273 84.5216 372.33 84.4651C372.405 84.3897 372.49 84.352 372.584 84.352H380.669C381.876 84.352 382.931 84.597 383.836 85.087C384.759 85.577 385.466 86.2743 385.956 87.1789C386.465 88.0836 386.719 89.1295 386.719 90.3168C386.719 91.5984 386.399 92.7009 385.758 93.6244C385.117 94.529 384.222 95.1698 383.072 95.5467C382.978 95.5844 382.95 95.6504 382.988 95.7446L386.832 103.745C386.87 103.82 386.889 103.877 386.889 103.914C386.889 104.065 386.785 104.141 386.578 104.141H383.101ZM376.372 87.7726C376.278 87.7726 376.231 87.8197 376.231 87.9139V92.748C376.231 92.8423 376.278 92.8894 376.372 92.8894H380.076C380.867 92.8894 381.508 92.6538 381.998 92.1826C382.507 91.7115 382.761 91.099 382.761 90.3451C382.761 89.5913 382.507 88.9788 381.998 88.5076C381.508 88.0176 380.867 87.7726 380.076 87.7726H376.372ZM392.776 104.141C392.682 104.141 392.597 104.112 392.522 104.056C392.465 103.98 392.437 103.896 392.437 103.801V84.6912C392.437 84.597 392.465 84.5216 392.522 84.4651C392.597 84.3897 392.682 84.352 392.776 84.352H396.084C396.178 84.352 396.253 84.3897 396.31 84.4651C396.385 84.5216 396.423 84.597 396.423 84.6912V103.801C396.423 103.896 396.385 103.98 396.31 104.056C396.253 104.112 396.178 104.141 396.084 104.141H392.776ZM414.054 84.6912C414.054 84.597 414.083 84.5216 414.139 84.4651C414.215 84.3897 414.299 84.352 414.394 84.352H417.701C417.795 84.352 417.871 84.3897 417.927 84.4651C418.003 84.5216 418.04 84.597 418.04 84.6912V103.801C418.04 103.896 418.003 103.98 417.927 104.056C417.871 104.112 417.795 104.141 417.701 104.141H414.507C414.318 104.141 414.186 104.065 414.111 103.914L406.789 91.8151C406.751 91.7586 406.714 91.7397 406.676 91.7586C406.638 91.7586 406.62 91.7963 406.62 91.8717L406.676 103.801C406.676 103.896 406.638 103.98 406.563 104.056C406.506 104.112 406.431 104.141 406.337 104.141H403.029C402.935 104.141 402.85 104.112 402.775 104.056C402.718 103.98 402.69 103.896 402.69 103.801V84.6912C402.69 84.597 402.718 84.5216 402.775 84.4651C402.85 84.3897 402.935 84.352 403.029 84.352H406.224C406.412 84.352 406.544 84.4274 406.62 84.5781L413.913 96.6209C413.951 96.6775 413.988 96.7058 414.026 96.7058C414.064 96.6869 414.083 96.6398 414.083 96.5644L414.054 84.6912ZM431.272 104.367C429.82 104.367 428.539 104.075 427.427 103.49C426.315 102.906 425.448 102.096 424.826 101.059C424.223 100.004 423.922 98.7883 423.922 97.4125V91.0801C423.922 89.7043 424.223 88.4888 424.826 87.4334C425.448 86.378 426.315 85.5676 427.427 85.0022C428.539 84.418 429.82 84.1258 431.272 84.1258C432.704 84.1258 433.967 84.4085 435.06 84.9739C436.172 85.5393 437.029 86.312 437.632 87.292C438.254 88.2532 438.565 89.3274 438.565 90.5147V90.7126C438.565 90.8069 438.527 90.8917 438.452 90.967C438.396 91.0236 438.32 91.0519 438.226 91.0519H434.918C434.824 91.0519 434.739 91.0236 434.664 90.967C434.607 90.8917 434.579 90.8069 434.579 90.7126V90.6278C434.579 89.7609 434.278 89.0353 433.675 88.4511C433.071 87.848 432.27 87.5464 431.272 87.5464C430.254 87.5464 429.434 87.8668 428.812 88.5076C428.209 89.1295 427.908 89.9493 427.908 90.967V97.5256C427.908 98.5433 428.237 99.3725 428.897 100.013C429.557 100.635 430.395 100.946 431.413 100.946C432.393 100.946 433.175 100.692 433.759 100.183C434.344 99.6552 434.636 98.9296 434.636 98.0061V96.734C434.636 96.6398 434.589 96.5927 434.494 96.5927H431.328C431.234 96.5927 431.149 96.5644 431.074 96.5079C431.017 96.4325 430.989 96.3477 430.989 96.2534V93.6526C430.989 93.5584 431.017 93.483 431.074 93.4265C431.149 93.3511 431.234 93.3134 431.328 93.3134H438.226C438.32 93.3134 438.396 93.3511 438.452 93.4265C438.527 93.483 438.565 93.5584 438.565 93.6526V97.3842C438.565 98.8165 438.264 100.06 437.66 101.116C437.057 102.171 436.2 102.982 435.088 103.547C433.995 104.094 432.723 104.367 431.272 104.367ZM444.793 104.141C444.699 104.141 444.614 104.112 444.539 104.056C444.482 103.98 444.454 103.896 444.454 103.801V84.6912C444.454 84.597 444.482 84.5216 444.539 84.4651C444.614 84.3897 444.699 84.352 444.793 84.352H448.101C448.195 84.352 448.27 84.3897 448.327 84.4651C448.402 84.5216 448.44 84.597 448.44 84.6912V103.801C448.44 103.896 448.402 103.98 448.327 104.056C448.27 104.112 448.195 104.141 448.101 104.141H444.793ZM466.071 84.6912C466.071 84.597 466.1 84.5216 466.156 84.4651C466.232 84.3897 466.316 84.352 466.411 84.352H469.718C469.812 84.352 469.888 84.3897 469.944 84.4651C470.02 84.5216 470.057 84.597 470.057 84.6912V103.801C470.057 103.896 470.02 103.98 469.944 104.056C469.888 104.112 469.812 104.141 469.718 104.141H466.524C466.335 104.141 466.203 104.065 466.128 103.914L458.806 91.8151C458.768 91.7586 458.731 91.7397 458.693 91.7586C458.655 91.7586 458.636 91.7963 458.636 91.8717L458.693 103.801C458.693 103.896 458.655 103.98 458.58 104.056C458.523 104.112 458.448 104.141 458.354 104.141H455.046C454.952 104.141 454.867 104.112 454.792 104.056C454.735 103.98 454.707 103.896 454.707 103.801V84.6912C454.707 84.597 454.735 84.5216 454.792 84.4651C454.867 84.3897 454.952 84.352 455.046 84.352H458.241C458.429 84.352 458.561 84.4274 458.636 84.5781L465.93 96.6209C465.968 96.6775 466.005 96.7058 466.043 96.7058C466.081 96.6869 466.1 96.6398 466.1 96.5644L466.071 84.6912ZM483.289 104.367C481.837 104.367 480.556 104.075 479.444 103.49C478.332 102.906 477.465 102.096 476.843 101.059C476.24 100.004 475.938 98.7883 475.938 97.4125V91.0801C475.938 89.7043 476.24 88.4888 476.843 87.4334C477.465 86.378 478.332 85.5676 479.444 85.0022C480.556 84.418 481.837 84.1258 483.289 84.1258C484.721 84.1258 485.984 84.4085 487.077 84.9739C488.189 85.5393 489.046 86.312 489.649 87.292C490.271 88.2532 490.582 89.3274 490.582 90.5147V90.7126C490.582 90.8069 490.544 90.8917 490.469 90.967C490.412 91.0236 490.337 91.0519 490.243 91.0519H486.935C486.841 91.0519 486.756 91.0236 486.681 90.967C486.624 90.8917 486.596 90.8069 486.596 90.7126V90.6278C486.596 89.7609 486.295 89.0353 485.691 88.4511C485.088 87.848 484.287 87.5464 483.289 87.5464C482.271 87.5464 481.451 87.8668 480.829 88.5076C480.226 89.1295 479.924 89.9493 479.924 90.967V97.5256C479.924 98.5433 480.254 99.3725 480.914 100.013C481.574 100.635 482.412 100.946 483.43 100.946C484.41 100.946 485.192 100.692 485.776 100.183C486.36 99.6552 486.653 98.9296 486.653 98.0061V96.734C486.653 96.6398 486.605 96.5927 486.511 96.5927H483.345C483.251 96.5927 483.166 96.5644 483.091 96.5079C483.034 96.4325 483.006 96.3477 483.006 96.2534V93.6526C483.006 93.5584 483.034 93.483 483.091 93.4265C483.166 93.3511 483.251 93.3134 483.345 93.3134H490.243C490.337 93.3134 490.412 93.3511 490.469 93.4265C490.544 93.483 490.582 93.5584 490.582 93.6526V97.3842C490.582 98.8165 490.281 100.06 489.677 101.116C489.074 102.171 488.217 102.982 487.105 103.547C486.012 104.094 484.74 104.367 483.289 104.367Z"></path>
<rect fill-opacity="0.2" fill="#282B6B" transform="matrix(-1 0 0 1 782.781 213.328)" rx="13.5694" height="162.832" width="224.742"></rect>
<rect fill-opacity="0.2" fill="#282B6B" transform="matrix(-1 0 0 1 757.339 213.328)" rx="13.5694" height="162.832" width="224.742"></rect>
<rect fill-opacity="0.2" fill="#282B6B" transform="matrix(-1 0 0 1 731.896 213.328)" rx="13.5694" height="162.832" width="224.742"></rect>
<rect fill-opacity="0.2" fill="#282B6B" transform="matrix(-1 0 0 1 706.454 213.328)" rx="13.5694" height="162.832" width="224.742"></rect>
<rect fill-opacity="0.2" fill="#282B6B" transform="matrix(-1 0 0 1 681.011 213.328)" rx="13.5694" height="162.832" width="224.742"></rect>
<rect stroke-width="0.848084" stroke="#5A67D8" fill="#282B6B" transform="matrix(-1 0 0 1 654.721 213.328)" rx="13.1453" height="161.984" width="223.894" y="0.424042" x="-0.424042"></rect>
<g filter="url(#filter2_dddd_9098_9262)">
<path fill="white" d="M538.223 290.446C539.092 289.132 540.043 288.961 540.819 288.961C541.589 288.961 542.876 289.132 543.745 290.446C555.077 306.471 578.575 348.744 580.748 351.046C583.966 354.455 588.383 352.33 590.946 348.464C593.477 344.655 594.175 341.982 594.175 339.132C594.175 337.191 557.579 267.093 553.889 261.257C550.346 255.643 549.191 254.227 543.129 254.227H538.591C532.541 254.227 531.666 255.643 528.124 261.251C524.427 267.099 487.831 337.196 487.831 339.138C487.831 341.994 488.53 344.661 491.06 348.47C493.623 352.336 498.04 354.466 501.258 351.051C503.431 348.75 526.897 306.477 538.223 290.457V290.446Z"></path>
</g>
<rect fill-opacity="0.2" fill="#282B6B" transform="matrix(1 0 0 -1 167.073 376.164)" rx="13.5694" height="162.832" width="224.742"></rect>
<rect fill-opacity="0.2" fill="#282B6B" transform="matrix(1 0 0 -1 141.63 376.164)" rx="13.5694" height="162.832" width="224.742"></rect>
<rect fill-opacity="0.2" fill="#282B6B" transform="matrix(1 0 0 -1 116.188 376.164)" rx="13.5694" height="162.832" width="224.742"></rect>
<rect fill-opacity="0.2" fill="#282B6B" transform="matrix(1 0 0 -1 90.7449 376.164)" rx="13.5694" height="162.832" width="224.742"></rect>
<rect fill-opacity="0.2" fill="#282B6B" transform="matrix(1 0 0 -1 65.3025 376.164)" rx="13.5694" height="162.832" width="224.742"></rect>
<rect stroke-width="0.848084" stroke="#5A67D8" fill="#282B6B" transform="matrix(1 0 0 -1 192.515 375.316)" rx="13.1453" height="161.984" width="223.894" y="-0.424042" x="0.424042"></rect>
<g filter="url(#filter3_dddd_9098_9262)">
<path fill="white" d="M265.814 318.425C264.734 320.244 264.751 322.54 265.857 324.343L285.876 356.97C287.176 359.088 289.68 360.053 292.005 359.333L349.775 341.426C352.928 340.449 354.514 336.816 353.136 333.727L315.998 250.494C314.187 246.435 308.727 246.102 306.466 249.912L265.814 318.425ZM315.012 269.522C314.222 267.635 311.549 267.926 311.158 269.941L296.86 343.495C296.558 345.046 297.964 346.37 299.431 345.918L339.346 333.607C340.511 333.248 341.111 331.918 340.629 330.765L315.012 269.522Z" clip-rule="evenodd" fill-rule="evenodd"></path>
</g>
</g>
<defs>
<filter color-interpolation-filters="sRGB" filterUnits="userSpaceOnUse" height="373.496" width="382.825" y="108.42" x="235.174" id="filter0_f_9098_9262">
<feFlood result="BackgroundImageFix" flood-opacity="0"></feFlood>
<feBlend result="shape" in2="BackgroundImageFix" in="SourceGraphic" mode="normal"></feBlend>
<feGaussianBlur result="effect1_foregroundBlur_9098_9262" stdDeviation="52.454"></feGaussianBlur>
</filter>
<filter color-interpolation-filters="sRGB" filterUnits="userSpaceOnUse" height="373.496" width="269.182" y="108.42" x="291.995" id="filter1_f_9098_9262">
<feFlood result="BackgroundImageFix" flood-opacity="0"></feFlood>
<feBlend result="shape" in2="BackgroundImageFix" in="SourceGraphic" mode="normal"></feBlend>
<feGaussianBlur result="effect1_foregroundBlur_9098_9262" stdDeviation="52.454"></feGaussianBlur>
</filter>
<filter color-interpolation-filters="sRGB" filterUnits="userSpaceOnUse" height="346.349" width="354.154" y="130.321" x="363.926" id="filter2_dddd_9098_9262">
<feFlood result="BackgroundImageFix" flood-opacity="0"></feFlood>
<feColorMatrix result="hardAlpha" values="0 0 0 0 0 0 0 0 0 0 0 0 0 0 0 0 0 0 127 0" type="matrix" in="SourceAlpha"></feColorMatrix>
<feOffset></feOffset>
<feGaussianBlur stdDeviation="61.9526"></feGaussianBlur>
<feColorMatrix values="0 0 0 0 1 0 0 0 0 1 0 0 0 0 1 0 0 0 0.63 0" type="matrix"></feColorMatrix>
<feBlend result="effect1_dropShadow_9098_9262" in2="BackgroundImageFix" mode="normal"></feBlend>
<feColorMatrix result="hardAlpha" values="0 0 0 0 0 0 0 0 0 0 0 0 0 0 0 0 0 0 127 0" type="matrix" in="SourceAlpha"></feColorMatrix>
<feOffset></feOffset>
<feGaussianBlur stdDeviation="11.0251"></feGaussianBlur>
<feColorMatrix values="0 0 0 0 0.0352941 0 0 0 0 0.0392157 0 0 0 0 0.0823529 0 0 0 0.05 0" type="matrix"></feColorMatrix>
<feBlend result="effect2_dropShadow_9098_9262" in2="effect1_dropShadow_9098_9262" mode="normal"></feBlend>
<feColorMatrix result="hardAlpha" values="0 0 0 0 0 0 0 0 0 0 0 0 0 0 0 0 0 0 127 0" type="matrix" in="SourceAlpha"></feColorMatrix>
<feOffset></feOffset>
<feGaussianBlur stdDeviation="19.5059"></feGaussianBlur>
<feComposite operator="out" in2="hardAlpha"></feComposite>
<feColorMatrix values="0 0 0 0 0.0352941 0 0 0 0 0.0392157 0 0 0 0 0.0823529 0 0 0 0.01 0" type="matrix"></feColorMatrix>
<feBlend result="effect3_dropShadow_9098_9262" in2="effect2_dropShadow_9098_9262" mode="normal"></feBlend>
<feColorMatrix result="hardAlpha" values="0 0 0 0 0 0 0 0 0 0 0 0 0 0 0 0 0 0 127 0" type="matrix" in="SourceAlpha"></feColorMatrix>
<feOffset dy="3.39234"></feOffset>
<feGaussianBlur stdDeviation="1.69617"></feGaussianBlur>
<feComposite operator="out" in2="hardAlpha"></feComposite>
<feColorMatrix values="0 0 0 0 0 0 0 0 0 0 0 0 0 0 0 0 0 0 0.25 0" type="matrix"></feColorMatrix>
<feBlend result="effect4_dropShadow_9098_9262" in2="effect3_dropShadow_9098_9262" mode="normal"></feBlend>
<feBlend result="shape" in2="effect4_dropShadow_9098_9262" in="SourceGraphic" mode="normal"></feBlend>
</filter>
<filter color-interpolation-filters="sRGB" filterUnits="userSpaceOnUse" height="360.138" width="336.43" y="123.337" x="141.111" id="filter3_dddd_9098_9262">
<feFlood result="BackgroundImageFix" flood-opacity="0"></feFlood>
<feColorMatrix result="hardAlpha" values="0 0 0 0 0 0 0 0 0 0 0 0 0 0 0 0 0 0 127 0" type="matrix" in="SourceAlpha"></feColorMatrix>
<feOffset></feOffset>
<feGaussianBlur stdDeviation="61.9526"></feGaussianBlur>
<feColorMatrix values="0 0 0 0 1 0 0 0 0 1 0 0 0 0 1 0 0 0 0.63 0" type="matrix"></feColorMatrix>
<feBlend result="effect1_dropShadow_9098_9262" in2="BackgroundImageFix" mode="normal"></feBlend>
<feColorMatrix result="hardAlpha" values="0 0 0 0 0 0 0 0 0 0 0 0 0 0 0 0 0 0 127 0" type="matrix" in="SourceAlpha"></feColorMatrix>
<feOffset></feOffset>
<feGaussianBlur stdDeviation="11.0251"></feGaussianBlur>
<feColorMatrix values="0 0 0 0 0.0352941 0 0 0 0 0.0392157 0 0 0 0 0.0823529 0 0 0 0.05 0" type="matrix"></feColorMatrix>
<feBlend result="effect2_dropShadow_9098_9262" in2="effect1_dropShadow_9098_9262" mode="normal"></feBlend>
<feColorMatrix result="hardAlpha" values="0 0 0 0 0 0 0 0 0 0 0 0 0 0 0 0 0 0 127 0" type="matrix" in="SourceAlpha"></feColorMatrix>
<feOffset></feOffset>
<feGaussianBlur stdDeviation="19.5059"></feGaussianBlur>
<feComposite operator="out" in2="hardAlpha"></feComposite>
<feColorMatrix values="0 0 0 0 0.0352941 0 0 0 0 0.0392157 0 0 0 0 0.0823529 0 0 0 0.01 0" type="matrix"></feColorMatrix>
<feBlend result="effect3_dropShadow_9098_9262" in2="effect2_dropShadow_9098_9262" mode="normal"></feBlend>
<feColorMatrix result="hardAlpha" values="0 0 0 0 0 0 0 0 0 0 0 0 0 0 0 0 0 0 127 0" type="matrix" in="SourceAlpha"></feColorMatrix>
<feOffset dy="3.39234"></feOffset>
<feGaussianBlur stdDeviation="1.69617"></feGaussianBlur>
<feComposite operator="out" in2="hardAlpha"></feComposite>
<feColorMatrix values="0 0 0 0 0 0 0 0 0 0 0 0 0 0 0 0 0 0 0.25 0" type="matrix"></feColorMatrix>
<feBlend result="effect4_dropShadow_9098_9262" in2="effect3_dropShadow_9098_9262" mode="normal"></feBlend>
<feBlend result="shape" in2="effect4_dropShadow_9098_9262" in="SourceGraphic" mode="normal"></feBlend>
</filter>
<linearGradient gradientUnits="userSpaceOnUse" y2="474" x2="422" y1="0" x1="422" id="paint0_linear_9098_9262">
<stop stop-color="#282B6B"></stop>
<stop stop-color="#090A15" offset="1"></stop>
</linearGradient>
<clipPath id="clip0_9098_9262">
<rect fill="white" height="474" width="844"></rect>
</clipPath>
</defs>
</svg>
