<svg xmlns="http://www.w3.org/2000/svg" fill="none" viewBox="0 0 844 474" height="474" width="844">
<g clip-path="url(#clip0_7082_4735)">
<rect fill="url(#paint0_linear_7082_4735)" height="474" width="844"></rect>
<mask height="120" width="234" y="262" x="255" maskUnits="userSpaceOnUse" style="mask-type:alpha" id="mask0_7082_4735">
<rect fill="url(#paint1_linear_7082_4735)" height="119.433" width="233.124" y="262.454" x="255"></rect>
</mask>
<g mask="url(#mask0_7082_4735)">
<ellipse fill="url(#paint2_radial_7082_4735)" ry="47.0841" rx="116.562" cy="319.882" cx="371.562"></ellipse>
</g>
<path fill="url(#paint3_linear_7082_4735)" d="M371.555 353.288C426.417 353.288 470.891 334.148 470.891 310.536V277.843H272.219V310.536C272.219 334.148 316.693 353.288 371.555 353.288Z"></path>
<ellipse fill="url(#paint4_linear_7082_4735)" ry="35.2077" rx="99.3361" cy="277.851" cx="371.555"></ellipse>
<ellipse fill-opacity="0.44" fill="url(#paint5_radial_7082_4735)" ry="35.2077" rx="99.3361" cy="277.851" cx="371.555"></ellipse>
<path fill="url(#paint6_linear_7082_4735)" d="M371.566 308.029C423.65 308.029 465.872 293.354 465.872 275.252V250.187H277.26V275.252C277.26 293.354 319.482 308.029 371.566 308.029Z"></path>
<path fill-opacity="0.284" fill="#C6D4DB" d="M371.566 308.029C423.65 308.029 465.872 293.354 465.872 275.252V250.187H277.26V275.252C277.26 293.354 319.482 308.029 371.566 308.029Z"></path>
<path fill="url(#paint7_linear_7082_4735)" d="M371.566 297.685C423.65 297.685 465.872 283.011 465.872 264.909V239.844H277.26V264.909C277.26 283.011 319.482 297.685 371.566 297.685Z" opacity="0.5"></path>
<path fill="url(#paint8_linear_7082_4735)" d="M371.555 292.944C426.417 292.944 470.891 276.756 470.891 256.788V222.528H272.219V256.788C272.219 276.756 316.693 292.944 371.555 292.944Z"></path>
<ellipse fill="url(#paint9_linear_7082_4735)" ry="37.7226" rx="99.3361" cy="220.01" cx="371.555"></ellipse>
<ellipse fill-opacity="0.44" fill="url(#paint10_radial_7082_4735)" ry="37.7226" rx="99.3361" cy="220.01" cx="371.555"></ellipse>
<path fill="url(#paint11_linear_7082_4735)" d="M371.566 252.692C423.65 252.692 465.872 237.379 465.872 218.49V192.336H277.26V218.49C277.26 237.379 319.482 252.692 371.566 252.692Z"></path>
<path fill-opacity="0.284" fill="#C6D4DB" d="M371.566 252.692C423.65 252.692 465.872 237.379 465.872 218.49V192.336H277.26V218.49C277.26 237.379 319.482 252.692 371.566 252.692Z"></path>
<path fill="url(#paint12_linear_7082_4735)" d="M371.566 241.22C423.65 241.22 465.872 225.908 465.872 207.018V180.864H277.26V207.018C277.26 225.908 319.482 241.22 371.566 241.22Z" opacity="0.5"></path>
<path fill="url(#paint13_linear_7082_4735)" d="M371.555 236.275C426.417 236.275 470.891 219.844 470.891 199.577V164.803H272.219V199.577C272.219 219.844 316.693 236.275 371.555 236.275Z"></path>
<ellipse fill="url(#paint14_linear_7082_4735)" ry="36.6979" rx="99.3361" cy="163.651" cx="371.555"></ellipse>
<path stroke-width="3.23168" stroke-opacity="0.46" stroke="url(#paint15_radial_7082_4735)" d="M469.275 163.651C469.275 168.08 466.851 172.501 462.022 176.718C457.196 180.933 450.12 184.803 441.236 188.085C423.482 194.644 398.846 198.733 371.555 198.733C344.264 198.733 319.629 194.644 301.874 188.085C292.99 184.803 285.914 180.933 281.088 176.718C276.259 172.501 273.835 168.08 273.835 163.651C273.835 159.222 276.259 154.801 281.088 150.584C285.914 146.369 292.99 142.499 301.874 139.217C319.629 132.658 344.264 128.569 371.555 128.569C398.846 128.569 423.482 132.658 441.236 139.217C450.12 142.499 457.196 146.369 462.022 150.584C466.851 154.801 469.275 159.222 469.275 163.651Z"></path>
<g filter="url(#filter0_d_7082_4735)">
<rect fill="url(#paint16_linear_7082_4735)" rx="13.3299" height="81" width="281" y="103" x="434"></rect>
</g>
<path fill="#3C366B" d="M469.372 156.845H471.328V151.345C471.469 151.5 471.621 151.645 471.783 151.779C471.945 151.906 472.118 152.022 472.302 152.128C472.605 152.297 472.943 152.428 473.317 152.519C473.698 152.611 474.107 152.657 474.544 152.657C475.263 152.657 475.901 152.509 476.458 152.213C477.022 151.916 477.495 151.508 477.875 150.986C478.256 150.464 478.545 149.85 478.743 149.145C478.94 148.433 479.039 147.668 479.039 146.85V146.628C479.039 145.775 478.94 144.992 478.743 144.28C478.545 143.561 478.256 142.944 477.875 142.429C477.495 141.914 477.022 141.513 476.458 141.223C475.894 140.934 475.245 140.79 474.512 140.79C474.096 140.79 473.705 140.836 473.338 140.927C472.978 141.012 472.651 141.139 472.354 141.308C472.143 141.421 471.945 141.558 471.762 141.721C471.579 141.876 471.41 142.052 471.254 142.249L471.159 141.001H469.372V156.845ZM477.082 146.628V146.85C477.082 147.407 477.019 147.94 476.892 148.447C476.772 148.955 476.585 149.403 476.331 149.791C476.077 150.178 475.753 150.489 475.358 150.721C474.963 150.947 474.494 151.06 473.951 151.06C473.613 151.06 473.303 151.017 473.021 150.933C472.746 150.848 472.495 150.732 472.27 150.584C472.072 150.457 471.896 150.302 471.741 150.118C471.586 149.935 471.448 149.738 471.328 149.526V144.016C471.462 143.776 471.618 143.557 471.794 143.36C471.97 143.162 472.171 142.997 472.397 142.863C472.601 142.729 472.83 142.627 473.084 142.556C473.345 142.486 473.627 142.45 473.93 142.45C474.48 142.45 474.953 142.563 475.348 142.789C475.742 143.014 476.07 143.318 476.331 143.698C476.585 144.086 476.772 144.534 476.892 145.042C477.019 145.542 477.082 146.071 477.082 146.628ZM489.891 140.79C489.059 140.79 488.315 140.973 487.659 141.34C487.01 141.699 486.453 142.193 485.988 142.82L485.977 142.535L485.893 141.001H484.031V152.445H485.998V145.105C486.125 144.753 486.284 144.435 486.474 144.153C486.672 143.864 486.901 143.621 487.162 143.423C487.451 143.198 487.789 143.029 488.177 142.916C488.565 142.796 488.999 142.736 489.478 142.736C489.852 142.736 490.208 142.757 490.546 142.799C490.892 142.835 491.255 142.895 491.636 142.979L491.9 141.065C491.703 140.98 491.407 140.913 491.012 140.864C490.624 140.814 490.25 140.79 489.891 140.79ZM495.708 141.001V142.704H499.6V150.753H495.708V152.445H505.29V150.753H501.557V141.001H495.708ZM499.346 137.998C499.346 138.315 499.441 138.579 499.632 138.791C499.829 139.002 500.125 139.108 500.52 139.108C500.908 139.108 501.201 139.002 501.398 138.791C501.596 138.579 501.694 138.315 501.694 137.998C501.694 137.821 501.666 137.659 501.61 137.511C501.553 137.363 501.469 137.24 501.356 137.141C501.264 137.049 501.148 136.979 501.007 136.929C500.866 136.873 500.704 136.845 500.52 136.845C500.337 136.845 500.171 136.873 500.023 136.929C499.882 136.979 499.766 137.049 499.674 137.141C499.561 137.247 499.477 137.373 499.42 137.522C499.371 137.67 499.346 137.828 499.346 137.998ZM516.015 149.41C516.015 149.593 515.98 149.766 515.909 149.928C515.839 150.09 515.737 150.238 515.603 150.372C515.384 150.591 515.081 150.764 514.693 150.891C514.305 151.01 513.85 151.07 513.329 151.07C512.997 151.07 512.662 151.035 512.324 150.965C511.985 150.894 511.679 150.774 511.404 150.605C511.122 150.436 510.885 150.214 510.695 149.939C510.512 149.664 510.406 149.325 510.378 148.923H508.421C508.421 149.41 508.53 149.879 508.749 150.33C508.975 150.781 509.299 151.176 509.722 151.515C510.138 151.86 510.649 152.139 511.256 152.35C511.862 152.555 512.553 152.657 513.329 152.657C514.006 152.657 514.63 152.576 515.201 152.414C515.772 152.251 516.262 152.022 516.671 151.726C517.08 151.43 517.397 151.074 517.623 150.658C517.855 150.242 517.972 149.78 517.972 149.272C517.972 148.8 517.87 148.384 517.665 148.024C517.468 147.665 517.179 147.347 516.798 147.072C516.417 146.804 515.948 146.575 515.391 146.385C514.834 146.187 514.203 146.015 513.498 145.867C512.962 145.761 512.518 145.652 512.165 145.539C511.82 145.426 511.545 145.299 511.34 145.158C511.129 145.017 510.981 144.858 510.896 144.682C510.811 144.506 510.769 144.305 510.769 144.079C510.769 143.861 510.822 143.649 510.928 143.445C511.033 143.24 511.192 143.06 511.404 142.905C511.608 142.75 511.866 142.627 512.176 142.535C512.493 142.443 512.86 142.397 513.276 142.397C513.678 142.397 514.037 142.454 514.355 142.567C514.679 142.679 514.954 142.828 515.18 143.011C515.405 143.194 515.581 143.406 515.708 143.645C515.835 143.878 515.899 144.118 515.899 144.365H517.855C517.855 143.864 517.746 143.399 517.528 142.969C517.316 142.531 517.013 142.151 516.618 141.826C516.223 141.502 515.744 141.248 515.18 141.065C514.615 140.881 513.981 140.79 513.276 140.79C512.62 140.79 512.017 140.878 511.467 141.054C510.924 141.23 510.455 141.47 510.06 141.773C509.666 142.077 509.359 142.433 509.14 142.842C508.922 143.244 508.812 143.677 508.812 144.143C508.812 144.615 508.918 145.031 509.13 145.391C509.341 145.743 509.641 146.05 510.029 146.311C510.409 146.579 510.868 146.808 511.404 146.998C511.947 147.189 512.546 147.351 513.202 147.485C513.738 147.591 514.185 147.71 514.545 147.844C514.905 147.971 515.194 148.112 515.412 148.268C515.631 148.423 515.786 148.595 515.878 148.786C515.969 148.969 516.015 149.177 516.015 149.41ZM522.319 141.001H520.563V152.445H522.425V143.339C522.467 143.226 522.52 143.12 522.583 143.021C522.654 142.923 522.735 142.835 522.827 142.757C522.946 142.658 523.091 142.584 523.26 142.535C523.436 142.479 523.641 142.45 523.874 142.45C524.085 142.45 524.268 142.479 524.424 142.535C524.586 142.584 524.72 142.665 524.826 142.778C524.938 142.898 525.019 143.05 525.069 143.233C525.125 143.416 525.153 143.628 525.153 143.868V152.445H527.015V143.878C527.015 143.836 527.015 143.801 527.015 143.772C527.015 143.737 527.015 143.702 527.015 143.667C527.036 143.49 527.078 143.332 527.142 143.191C527.205 143.043 527.293 142.912 527.406 142.799C527.519 142.694 527.66 142.609 527.829 142.545C527.999 142.482 528.2 142.45 528.432 142.45C528.651 142.45 528.841 142.479 529.003 142.535C529.173 142.591 529.314 142.676 529.426 142.789C529.532 142.909 529.613 143.06 529.67 143.244C529.726 143.427 529.754 143.638 529.754 143.878V152.445H531.616V143.899C531.616 143.349 531.552 142.873 531.425 142.471C531.298 142.062 531.115 141.731 530.875 141.477C530.657 141.252 530.389 141.082 530.072 140.97C529.754 140.85 529.398 140.79 529.003 140.79C528.714 140.797 528.446 140.836 528.2 140.906C527.96 140.977 527.741 141.072 527.544 141.192C527.389 141.297 527.244 141.421 527.11 141.562C526.976 141.703 526.86 141.854 526.761 142.017C526.684 141.84 526.588 141.682 526.476 141.541C526.37 141.4 526.25 141.28 526.116 141.181C525.933 141.054 525.718 140.959 525.471 140.896C525.231 140.825 524.96 140.79 524.656 140.79C524.12 140.797 523.662 140.913 523.281 141.139C522.908 141.364 522.604 141.678 522.372 142.08L522.319 141.001ZM541.949 152.445H543.991V152.276C543.864 151.959 543.765 151.589 543.694 151.166C543.624 150.735 543.589 150.33 543.589 149.949V144.629C543.589 143.987 543.472 143.427 543.24 142.947C543.007 142.468 542.69 142.066 542.288 141.742C541.879 141.424 541.396 141.188 540.839 141.033C540.282 140.871 539.679 140.79 539.03 140.79C538.318 140.79 537.68 140.888 537.116 141.086C536.559 141.283 536.086 141.541 535.698 141.858C535.304 142.182 535 142.545 534.789 142.947C534.584 143.349 534.479 143.758 534.472 144.174H536.439C536.439 143.935 536.495 143.705 536.608 143.487C536.728 143.261 536.894 143.067 537.105 142.905C537.317 142.743 537.574 142.612 537.877 142.514C538.187 142.415 538.536 142.366 538.924 142.366C539.34 142.366 539.714 142.419 540.045 142.524C540.384 142.63 540.669 142.778 540.902 142.969C541.135 143.166 541.315 143.402 541.442 143.677C541.568 143.952 541.632 144.262 541.632 144.608V145.507H539.495C538.699 145.507 537.976 145.585 537.327 145.74C536.686 145.895 536.136 146.127 535.677 146.438C535.219 146.755 534.863 147.15 534.609 147.622C534.362 148.095 534.239 148.645 534.239 149.272C534.239 149.752 534.33 150.2 534.514 150.616C534.704 151.025 534.972 151.377 535.318 151.673C535.656 151.976 536.069 152.216 536.555 152.392C537.049 152.569 537.599 152.657 538.205 152.657C538.579 152.657 538.931 152.618 539.263 152.541C539.594 152.463 539.908 152.357 540.204 152.223C540.493 152.089 540.758 151.934 540.997 151.758C541.244 151.582 541.466 151.395 541.664 151.197C541.685 151.437 541.717 151.67 541.759 151.895C541.808 152.114 541.872 152.297 541.949 152.445ZM538.491 150.954C538.11 150.954 537.775 150.905 537.486 150.806C537.197 150.707 536.957 150.57 536.767 150.393C536.576 150.224 536.432 150.02 536.333 149.78C536.241 149.54 536.196 149.279 536.196 148.997C536.196 148.701 536.248 148.437 536.354 148.204C536.467 147.971 536.629 147.77 536.841 147.601C537.137 147.361 537.535 147.185 538.036 147.072C538.544 146.952 539.136 146.893 539.813 146.893H541.632V149.209C541.519 149.434 541.364 149.653 541.167 149.865C540.969 150.069 540.736 150.252 540.469 150.415C540.194 150.577 539.89 150.707 539.559 150.806C539.228 150.905 538.871 150.954 538.491 150.954ZM559.792 146.639V146.861C559.792 147.693 559.894 148.465 560.099 149.177C560.303 149.882 560.6 150.492 560.987 151.007C561.368 151.522 561.833 151.927 562.383 152.223C562.941 152.512 563.568 152.657 564.266 152.657C564.908 152.657 565.472 152.533 565.958 152.287C566.445 152.04 566.868 151.694 567.228 151.25L567.376 152.445H570.03V136.199H567.08V142.027C566.727 141.632 566.322 141.329 565.863 141.118C565.412 140.899 564.887 140.79 564.287 140.79C563.575 140.79 562.941 140.931 562.383 141.213C561.833 141.495 561.365 141.893 560.977 142.408C560.589 142.923 560.293 143.54 560.088 144.259C559.891 144.978 559.792 145.771 559.792 146.639ZM562.733 146.861V146.639C562.733 146.159 562.775 145.711 562.859 145.295C562.944 144.872 563.078 144.502 563.261 144.185C563.445 143.875 563.681 143.631 563.97 143.455C564.266 143.272 564.622 143.18 565.038 143.18C565.539 143.18 565.955 143.289 566.286 143.508C566.618 143.72 566.882 144.019 567.08 144.407V149.04C566.882 149.42 566.614 149.72 566.276 149.939C565.944 150.157 565.525 150.267 565.017 150.267C564.601 150.267 564.249 150.178 563.959 150.002C563.67 149.826 563.434 149.583 563.251 149.272C563.067 148.969 562.933 148.613 562.849 148.204C562.771 147.788 562.733 147.34 562.733 146.861ZM583.421 146.84V146.618C583.421 145.927 583.357 145.278 583.23 144.671C583.11 144.065 582.923 143.519 582.67 143.032C582.507 142.729 582.321 142.45 582.109 142.196C581.898 141.936 581.661 141.713 581.4 141.53C581.076 141.29 580.706 141.107 580.29 140.98C579.881 140.853 579.43 140.79 578.936 140.79C578.576 140.79 578.242 140.829 577.931 140.906C577.628 140.977 577.346 141.086 577.085 141.234C576.902 141.333 576.729 141.453 576.567 141.594C576.405 141.728 576.253 141.876 576.112 142.038V136.199H573.172V152.445H575.816L575.953 151.229C576.073 151.384 576.2 151.529 576.334 151.663C576.468 151.79 576.613 151.906 576.768 152.012C577.057 152.223 577.381 152.382 577.741 152.488C578.108 152.6 578.513 152.657 578.957 152.657C579.444 152.657 579.888 152.593 580.29 152.466C580.699 152.347 581.066 152.17 581.39 151.938C581.749 151.691 582.06 151.381 582.321 151.007C582.589 150.633 582.804 150.217 582.966 149.759C583.114 149.343 583.227 148.892 583.304 148.405C583.382 147.911 583.421 147.39 583.421 146.84ZM580.48 146.618V146.84C580.48 147.136 580.466 147.421 580.438 147.696C580.417 147.971 580.378 148.225 580.322 148.458C580.251 148.775 580.145 149.061 580.004 149.315C579.87 149.561 579.694 149.762 579.475 149.917C579.32 150.03 579.137 150.118 578.925 150.182C578.714 150.245 578.478 150.277 578.217 150.277C577.914 150.277 577.642 150.242 577.402 150.171C577.17 150.101 576.965 149.999 576.789 149.865C576.641 149.759 576.51 149.635 576.398 149.494C576.292 149.346 576.197 149.184 576.112 149.008V144.449C576.176 144.315 576.246 144.192 576.324 144.079C576.401 143.959 576.486 143.853 576.577 143.762C576.768 143.571 576.997 143.427 577.265 143.328C577.533 143.229 577.843 143.18 578.196 143.18C578.457 143.18 578.689 143.212 578.894 143.275C579.098 143.332 579.282 143.42 579.444 143.54C579.691 143.73 579.874 143.942 579.994 144.174C580.121 144.4 580.223 144.657 580.3 144.946C580.364 145.193 580.41 145.458 580.438 145.74C580.466 146.022 580.48 146.314 580.48 146.618ZM604.68 152.657C605.787 152.657 606.746 152.442 607.557 152.012C608.368 151.582 608.96 151.102 609.334 150.573L607.863 148.987C607.525 149.424 607.084 149.752 606.541 149.97C605.998 150.189 605.438 150.298 604.86 150.298C604.451 150.298 604.073 150.235 603.728 150.108C603.382 149.981 603.076 149.801 602.808 149.568C602.547 149.343 602.339 149.092 602.184 148.817C602.029 148.535 601.902 148.165 601.803 147.707V147.675H609.566V146.427C609.566 145.588 609.45 144.823 609.217 144.132C608.985 143.434 608.646 142.838 608.202 142.345C607.751 141.851 607.201 141.47 606.552 141.202C605.91 140.927 605.177 140.79 604.352 140.79C603.555 140.79 602.818 140.934 602.141 141.223C601.464 141.513 600.879 141.918 600.386 142.44C599.892 142.962 599.508 143.586 599.233 144.312C598.958 145.031 598.82 145.828 598.82 146.702V147.125C598.82 147.894 598.958 148.617 599.233 149.293C599.515 149.963 599.913 150.545 600.428 151.039C600.943 151.539 601.56 151.934 602.279 152.223C602.998 152.512 603.798 152.657 604.68 152.657ZM604.331 143.17C604.704 143.17 605.032 143.229 605.314 143.349C605.604 143.462 605.847 143.617 606.044 143.815C606.242 144.019 606.397 144.259 606.51 144.534C606.622 144.809 606.679 145.102 606.679 145.412V145.644H601.856C601.926 145.271 602.032 144.932 602.173 144.629C602.314 144.326 602.49 144.065 602.702 143.846C602.906 143.628 603.146 143.462 603.421 143.349C603.696 143.229 603.999 143.17 604.331 143.17ZM617.372 144.576L614.897 141.001H611.734L615.563 146.618L611.586 152.445H614.77L617.382 148.701L620.016 152.445H623.189L619.212 146.618L623.052 141.001H619.889L617.372 144.576ZM630.699 152.657C631.806 152.657 632.765 152.442 633.575 152.012C634.386 151.582 634.979 151.102 635.352 150.573L633.882 148.987C633.544 149.424 633.103 149.752 632.56 149.97C632.017 150.189 631.457 150.298 630.878 150.298C630.469 150.298 630.092 150.235 629.747 150.108C629.401 149.981 629.094 149.801 628.826 149.568C628.566 149.343 628.358 149.092 628.202 148.817C628.047 148.535 627.92 148.165 627.822 147.707V147.675H635.585V146.427C635.585 145.588 635.469 144.823 635.236 144.132C635.003 143.434 634.665 142.838 634.221 142.345C633.769 141.851 633.219 141.47 632.571 141.202C631.929 140.927 631.196 140.79 630.371 140.79C629.574 140.79 628.837 140.934 628.16 141.223C627.483 141.513 626.898 141.918 626.404 142.44C625.911 142.962 625.527 143.586 625.252 144.312C624.977 145.031 624.839 145.828 624.839 146.702V147.125C624.839 147.894 624.977 148.617 625.252 149.293C625.534 149.963 625.932 150.545 626.447 151.039C626.961 151.539 627.578 151.934 628.298 152.223C629.017 152.512 629.817 152.657 630.699 152.657ZM630.35 143.17C630.723 143.17 631.051 143.229 631.333 143.349C631.622 143.462 631.866 143.617 632.063 143.815C632.26 144.019 632.416 144.259 632.528 144.534C632.641 144.809 632.698 145.102 632.698 145.412V145.644H627.875C627.945 145.271 628.051 144.932 628.192 144.629C628.333 144.326 628.509 144.065 628.721 143.846C628.925 143.628 629.165 143.462 629.44 143.349C629.715 143.229 630.018 143.17 630.35 143.17ZM643.221 150.309C642.749 150.309 642.358 150.214 642.047 150.023C641.744 149.833 641.504 149.579 641.328 149.262C641.145 148.951 641.018 148.592 640.947 148.183C640.877 147.767 640.842 147.337 640.842 146.893V146.575C640.842 146.138 640.877 145.715 640.947 145.306C641.025 144.897 641.155 144.534 641.339 144.217C641.515 143.899 641.755 143.645 642.058 143.455C642.361 143.265 642.745 143.17 643.211 143.17C643.528 143.17 643.821 143.226 644.089 143.339C644.357 143.445 644.586 143.589 644.776 143.772C644.967 143.956 645.111 144.174 645.21 144.428C645.309 144.682 645.351 144.95 645.337 145.232H648.108C648.122 144.555 648.009 143.945 647.769 143.402C647.53 142.852 647.195 142.383 646.765 141.996C646.327 141.615 645.809 141.319 645.21 141.107C644.61 140.896 643.958 140.79 643.253 140.79C642.372 140.79 641.596 140.941 640.926 141.245C640.263 141.548 639.706 141.96 639.255 142.482C638.804 143.004 638.465 143.617 638.24 144.322C638.014 145.02 637.901 145.771 637.901 146.575V146.893C637.901 147.696 638.014 148.451 638.24 149.156C638.472 149.854 638.814 150.464 639.266 150.986C639.71 151.508 640.267 151.92 640.937 152.223C641.607 152.519 642.386 152.667 643.274 152.667C643.93 152.667 644.551 152.565 645.136 152.361C645.728 152.149 646.246 151.86 646.691 151.493C647.135 151.127 647.484 150.69 647.738 150.182C647.999 149.674 648.122 149.124 648.108 148.532H645.337C645.351 148.8 645.301 149.043 645.189 149.262C645.083 149.48 644.931 149.667 644.734 149.822C644.536 149.977 644.307 150.097 644.046 150.182C643.785 150.267 643.51 150.309 643.221 150.309ZM658.632 152.445H661.297V141.001H658.346V149.029C658.254 149.212 658.145 149.378 658.018 149.526C657.891 149.674 657.747 149.801 657.585 149.907C657.394 150.027 657.172 150.118 656.918 150.182C656.671 150.245 656.393 150.277 656.083 150.277C655.737 150.277 655.445 150.235 655.205 150.15C654.965 150.066 654.771 149.925 654.623 149.727C654.475 149.537 654.366 149.283 654.295 148.966C654.232 148.648 654.2 148.257 654.2 147.792V141.001H651.26V147.77C651.26 148.638 651.355 149.382 651.545 150.002C651.743 150.616 652.018 151.12 652.37 151.515C652.723 151.916 653.146 152.209 653.639 152.392C654.133 152.576 654.676 152.667 655.268 152.667C655.917 152.667 656.513 152.505 657.056 152.181C657.606 151.857 658.075 151.409 658.462 150.838L658.632 152.445ZM669.568 138.198H666.628V141.001H664.015V143.17H666.628V148.373C666.628 149.128 666.726 149.776 666.924 150.319C667.121 150.855 667.403 151.296 667.77 151.641C668.13 151.994 668.563 152.255 669.071 152.424C669.586 152.586 670.157 152.667 670.784 152.667C671.109 152.667 671.437 152.65 671.768 152.615C672.106 152.586 672.431 152.544 672.741 152.488C673.051 152.431 673.344 152.361 673.619 152.276C673.894 152.184 674.134 152.079 674.338 151.959L674.053 149.939C673.919 149.974 673.756 150.009 673.566 150.044C673.383 150.08 673.185 150.111 672.974 150.14C672.755 150.175 672.526 150.203 672.286 150.224C672.054 150.245 671.824 150.256 671.599 150.256C671.288 150.256 671.006 150.221 670.753 150.15C670.506 150.08 670.294 149.96 670.118 149.791C669.942 149.628 669.804 149.41 669.706 149.135C669.614 148.853 669.568 148.504 669.568 148.088V143.17H673.841V141.001H669.568V138.198ZM682.736 152.657C683.843 152.657 684.802 152.442 685.613 152.012C686.424 151.582 687.016 151.102 687.39 150.573L685.92 148.987C685.581 149.424 685.14 149.752 684.598 149.97C684.055 150.189 683.494 150.298 682.916 150.298C682.507 150.298 682.13 150.235 681.784 150.108C681.439 149.981 681.132 149.801 680.864 149.568C680.603 149.343 680.395 149.092 680.24 148.817C680.085 148.535 679.958 148.165 679.859 147.707V147.675H687.622V146.427C687.622 145.588 687.506 144.823 687.273 144.132C687.041 143.434 686.702 142.838 686.258 142.345C685.807 141.851 685.257 141.47 684.608 141.202C683.966 140.927 683.233 140.79 682.408 140.79C681.611 140.79 680.875 140.934 680.198 141.223C679.521 141.513 678.935 141.918 678.442 142.44C677.948 142.962 677.564 143.586 677.289 144.312C677.014 145.031 676.877 145.828 676.877 146.702V147.125C676.877 147.894 677.014 148.617 677.289 149.293C677.571 149.963 677.969 150.545 678.484 151.039C678.999 151.539 679.616 151.934 680.335 152.223C681.054 152.512 681.855 152.657 682.736 152.657ZM682.387 143.17C682.761 143.17 683.089 143.229 683.371 143.349C683.66 143.462 683.903 143.617 684.1 143.815C684.298 144.019 684.453 144.259 684.566 144.534C684.679 144.809 684.735 145.102 684.735 145.412V145.644H679.912C679.983 145.271 680.088 144.932 680.229 144.629C680.37 144.326 680.547 144.065 680.758 143.846C680.963 143.628 681.202 143.462 681.477 143.349C681.752 143.229 682.056 143.17 682.387 143.17Z"></path>
<g filter="url(#filter1_d_7082_4735)">
<circle fill="#667EEA" r="18.3812" cy="102.381" cx="710.381"></circle>
<circle fill="url(#paint17_linear_7082_4735)" r="18.3812" cy="102.381" cx="710.381"></circle>
</g>
<path stroke-width="2.62588" stroke="white" d="M705.129 94.5035L711.694 101.256L705.129 108.008M709.506 110.259H718.259"></path>
<circle fill="#F07362" transform="rotate(180 449.151 117.566)" r="3.0266" cy="117.566" cx="449.151"></circle>
<circle fill="#F2BB2E" transform="rotate(180 457.625 117.566)" r="3.0266" cy="117.566" cx="457.625"></circle>
<circle fill="#27AE60" transform="rotate(180 466.1 117.566)" r="3.0266" cy="117.566" cx="466.1"></circle>
<g filter="url(#filter2_d_7082_4735)">
<rect fill="url(#paint18_linear_7082_4735)" rx="13.3299" height="81.0569" width="312.116" y="198.633" x="433.884"></rect>
</g>
<g filter="url(#filter3_d_7082_4735)">
<circle fill="#667EEA" r="18.3812" cy="198.381" cx="736.381"></circle>
<circle fill="url(#paint19_linear_7082_4735)" r="18.3812" cy="198.381" cx="736.381"></circle>
</g>
<path stroke-width="2.62588" stroke="white" d="M731.13 190.502L737.695 197.255L731.13 204.007M735.507 206.258H744.26"></path>
<path fill="#3C366B" d="M469.372 252.4H471.328V246.9C471.469 247.055 471.621 247.2 471.783 247.334C471.945 247.461 472.118 247.577 472.302 247.683C472.605 247.852 472.943 247.982 473.317 248.074C473.698 248.166 474.107 248.212 474.544 248.212C475.263 248.212 475.901 248.063 476.458 247.767C477.022 247.471 477.495 247.062 477.875 246.54C478.256 246.019 478.545 245.405 478.743 244.7C478.94 243.988 479.039 243.223 479.039 242.405V242.183C479.039 241.33 478.94 240.547 478.743 239.835C478.545 239.116 478.256 238.499 477.875 237.984C477.495 237.469 477.022 237.067 476.458 236.778C475.894 236.489 475.245 236.344 474.512 236.344C474.096 236.344 473.705 236.39 473.338 236.482C472.978 236.567 472.651 236.693 472.354 236.863C472.143 236.976 471.945 237.113 471.762 237.275C471.579 237.43 471.41 237.607 471.254 237.804L471.159 236.556H469.372V252.4ZM477.082 242.183V242.405C477.082 242.962 477.019 243.494 476.892 244.002C476.772 244.51 476.585 244.957 476.331 245.345C476.077 245.733 475.753 246.043 475.358 246.276C474.963 246.502 474.494 246.614 473.951 246.614C473.613 246.614 473.303 246.572 473.021 246.488C472.746 246.403 472.495 246.287 472.27 246.138C472.072 246.012 471.896 245.856 471.741 245.673C471.586 245.49 471.448 245.292 471.328 245.081V239.57C471.462 239.331 471.618 239.112 471.794 238.915C471.97 238.717 472.171 238.551 472.397 238.417C472.601 238.284 472.83 238.181 473.084 238.111C473.345 238.04 473.627 238.005 473.93 238.005C474.48 238.005 474.953 238.118 475.348 238.343C475.742 238.569 476.07 238.872 476.331 239.253C476.585 239.641 476.772 240.089 476.892 240.596C477.019 241.097 477.082 241.626 477.082 242.183ZM489.891 236.344C489.059 236.344 488.315 236.528 487.659 236.894C487.01 237.254 486.453 237.748 485.988 238.375L485.977 238.09L485.893 236.556H484.031V248H485.998V240.66C486.125 240.307 486.284 239.99 486.474 239.708C486.672 239.419 486.901 239.175 487.162 238.978C487.451 238.752 487.789 238.583 488.177 238.47C488.565 238.351 488.999 238.291 489.478 238.291C489.852 238.291 490.208 238.312 490.546 238.354C490.892 238.389 491.255 238.449 491.636 238.534L491.9 236.619C491.703 236.535 491.407 236.468 491.012 236.418C490.624 236.369 490.25 236.344 489.891 236.344ZM495.708 236.556V238.259H499.6V246.308H495.708V248H505.29V246.308H501.557V236.556H495.708ZM499.346 233.552C499.346 233.869 499.441 234.134 499.632 234.345C499.829 234.557 500.125 234.663 500.52 234.663C500.908 234.663 501.201 234.557 501.398 234.345C501.596 234.134 501.694 233.869 501.694 233.552C501.694 233.376 501.666 233.214 501.61 233.066C501.553 232.918 501.469 232.794 501.356 232.695C501.264 232.604 501.148 232.533 501.007 232.484C500.866 232.428 500.704 232.399 500.52 232.399C500.337 232.399 500.171 232.428 500.023 232.484C499.882 232.533 499.766 232.604 499.674 232.695C499.561 232.801 499.477 232.928 499.42 233.076C499.371 233.224 499.346 233.383 499.346 233.552ZM516.015 244.964C516.015 245.148 515.98 245.321 515.909 245.483C515.839 245.645 515.737 245.793 515.603 245.927C515.384 246.146 515.081 246.318 514.693 246.445C514.305 246.565 513.85 246.625 513.329 246.625C512.997 246.625 512.662 246.59 512.324 246.519C511.985 246.449 511.679 246.329 511.404 246.16C511.122 245.99 510.885 245.768 510.695 245.493C510.512 245.218 510.406 244.88 510.378 244.478H508.421C508.421 244.964 508.53 245.433 508.749 245.885C508.975 246.336 509.299 246.731 509.722 247.069C510.138 247.415 510.649 247.693 511.256 247.905C511.862 248.109 512.553 248.212 513.329 248.212C514.006 248.212 514.63 248.13 515.201 247.968C515.772 247.806 516.262 247.577 516.671 247.281C517.08 246.985 517.397 246.629 517.623 246.213C517.855 245.797 517.972 245.335 517.972 244.827C517.972 244.355 517.87 243.939 517.665 243.579C517.468 243.219 517.179 242.902 516.798 242.627C516.417 242.359 515.948 242.13 515.391 241.94C514.834 241.742 514.203 241.569 513.498 241.421C512.962 241.316 512.518 241.206 512.165 241.093C511.82 240.981 511.545 240.854 511.34 240.713C511.129 240.572 510.981 240.413 510.896 240.237C510.811 240.06 510.769 239.859 510.769 239.634C510.769 239.415 510.822 239.204 510.928 238.999C511.033 238.795 511.192 238.615 511.404 238.46C511.608 238.305 511.866 238.181 512.176 238.09C512.493 237.998 512.86 237.952 513.276 237.952C513.678 237.952 514.037 238.009 514.355 238.121C514.679 238.234 514.954 238.382 515.18 238.566C515.405 238.749 515.581 238.96 515.708 239.2C515.835 239.433 515.899 239.673 515.899 239.919H517.855C517.855 239.419 517.746 238.953 517.528 238.523C517.316 238.086 517.013 237.705 516.618 237.381C516.223 237.057 515.744 236.803 515.18 236.619C514.615 236.436 513.981 236.344 513.276 236.344C512.62 236.344 512.017 236.433 511.467 236.609C510.924 236.785 510.455 237.025 510.06 237.328C509.666 237.631 509.359 237.987 509.14 238.396C508.922 238.798 508.812 239.232 508.812 239.697C508.812 240.17 508.918 240.586 509.13 240.945C509.341 241.298 509.641 241.605 510.029 241.865C510.409 242.133 510.868 242.363 511.404 242.553C511.947 242.743 512.546 242.906 513.202 243.04C513.738 243.145 514.185 243.265 514.545 243.399C514.905 243.526 515.194 243.667 515.412 243.822C515.631 243.977 515.786 244.15 515.878 244.34C515.969 244.524 516.015 244.732 516.015 244.964ZM522.319 236.556H520.563V248H522.425V238.893C522.467 238.781 522.52 238.675 522.583 238.576C522.654 238.477 522.735 238.389 522.827 238.312C522.946 238.213 523.091 238.139 523.26 238.09C523.436 238.033 523.641 238.005 523.874 238.005C524.085 238.005 524.268 238.033 524.424 238.09C524.586 238.139 524.72 238.22 524.826 238.333C524.938 238.453 525.019 238.604 525.069 238.788C525.125 238.971 525.153 239.183 525.153 239.422V248H527.015V239.433C527.015 239.391 527.015 239.355 527.015 239.327C527.015 239.292 527.015 239.257 527.015 239.221C527.036 239.045 527.078 238.886 527.142 238.745C527.205 238.597 527.293 238.467 527.406 238.354C527.519 238.248 527.66 238.164 527.829 238.1C527.999 238.037 528.2 238.005 528.432 238.005C528.651 238.005 528.841 238.033 529.003 238.09C529.173 238.146 529.314 238.231 529.426 238.343C529.532 238.463 529.613 238.615 529.67 238.798C529.726 238.982 529.754 239.193 529.754 239.433V248H531.616V239.454C531.616 238.904 531.552 238.428 531.425 238.026C531.298 237.617 531.115 237.286 530.875 237.032C530.657 236.806 530.389 236.637 530.072 236.524C529.754 236.404 529.398 236.344 529.003 236.344C528.714 236.352 528.446 236.39 528.2 236.461C527.96 236.531 527.741 236.626 527.544 236.746C527.389 236.852 527.244 236.976 527.11 237.117C526.976 237.258 526.86 237.409 526.761 237.571C526.684 237.395 526.588 237.236 526.476 237.095C526.37 236.954 526.25 236.835 526.116 236.736C525.933 236.609 525.718 236.514 525.471 236.45C525.231 236.38 524.96 236.344 524.656 236.344C524.12 236.352 523.662 236.468 523.281 236.693C522.908 236.919 522.604 237.233 522.372 237.635L522.319 236.556ZM541.949 248H543.991V247.831C543.864 247.513 543.765 247.143 543.694 246.72C543.624 246.29 543.589 245.885 543.589 245.504V240.184C543.589 239.542 543.472 238.982 543.24 238.502C543.007 238.023 542.69 237.621 542.288 237.296C541.879 236.979 541.396 236.743 540.839 236.588C540.282 236.426 539.679 236.344 539.03 236.344C538.318 236.344 537.68 236.443 537.116 236.641C536.559 236.838 536.086 237.095 535.698 237.413C535.304 237.737 535 238.1 534.789 238.502C534.584 238.904 534.479 239.313 534.472 239.729H536.439C536.439 239.489 536.495 239.26 536.608 239.042C536.728 238.816 536.894 238.622 537.105 238.46C537.317 238.298 537.574 238.167 537.877 238.068C538.187 237.97 538.536 237.92 538.924 237.92C539.34 237.92 539.714 237.973 540.045 238.079C540.384 238.185 540.669 238.333 540.902 238.523C541.135 238.721 541.315 238.957 541.442 239.232C541.568 239.507 541.632 239.817 541.632 240.163V241.062H539.495C538.699 241.062 537.976 241.139 537.327 241.294C536.686 241.449 536.136 241.682 535.677 241.992C535.219 242.31 534.863 242.705 534.609 243.177C534.362 243.649 534.239 244.199 534.239 244.827C534.239 245.306 534.33 245.754 534.514 246.17C534.704 246.579 534.972 246.932 535.318 247.228C535.656 247.531 536.069 247.771 536.555 247.947C537.049 248.123 537.599 248.212 538.205 248.212C538.579 248.212 538.931 248.173 539.263 248.095C539.594 248.018 539.908 247.912 540.204 247.778C540.493 247.644 540.758 247.489 540.997 247.313C541.244 247.136 541.466 246.949 541.664 246.752C541.685 246.992 541.717 247.224 541.759 247.45C541.808 247.669 541.872 247.852 541.949 248ZM538.491 246.509C538.11 246.509 537.775 246.459 537.486 246.361C537.197 246.262 536.957 246.124 536.767 245.948C536.576 245.779 536.432 245.574 536.333 245.335C536.241 245.095 536.196 244.834 536.196 244.552C536.196 244.256 536.248 243.991 536.354 243.759C536.467 243.526 536.629 243.325 536.841 243.156C537.137 242.916 537.535 242.74 538.036 242.627C538.544 242.507 539.136 242.447 539.813 242.447H541.632V244.764C541.519 244.989 541.364 245.208 541.167 245.419C540.969 245.624 540.736 245.807 540.469 245.969C540.194 246.131 539.89 246.262 539.559 246.361C539.228 246.459 538.871 246.509 538.491 246.509ZM561.929 236.556H559.401V248H562.077V239.433C562.112 239.341 562.151 239.257 562.193 239.179C562.235 239.101 562.285 239.034 562.341 238.978C562.419 238.9 562.507 238.841 562.606 238.798C562.704 238.756 562.817 238.735 562.944 238.735C563.057 238.735 563.163 238.752 563.261 238.788C563.36 238.816 563.448 238.869 563.526 238.946C563.596 239.024 563.653 239.133 563.695 239.274C563.737 239.415 563.758 239.595 563.758 239.814V248H566.35V239.56C566.35 239.475 566.35 239.408 566.35 239.359C566.35 239.309 566.35 239.278 566.35 239.264C566.385 239.186 566.427 239.119 566.477 239.063C566.526 238.999 566.582 238.943 566.646 238.893C566.723 238.844 566.805 238.805 566.889 238.777C566.981 238.749 567.083 238.735 567.196 238.735C567.302 238.735 567.404 238.752 567.503 238.788C567.608 238.816 567.7 238.869 567.778 238.946C567.855 239.031 567.915 239.144 567.957 239.285C568.007 239.426 568.031 239.606 568.031 239.824V248H570.707V239.835C570.707 239.2 570.644 238.664 570.517 238.227C570.397 237.783 570.228 237.42 570.009 237.138C569.784 236.863 569.519 236.662 569.216 236.535C568.92 236.408 568.599 236.344 568.254 236.344C567.979 236.344 567.725 236.38 567.492 236.45C567.259 236.521 567.051 236.619 566.868 236.746C566.72 236.845 566.582 236.965 566.456 237.106C566.336 237.24 566.226 237.392 566.128 237.561C566.064 237.384 565.987 237.229 565.895 237.095C565.81 236.954 565.708 236.835 565.588 236.736C565.433 236.602 565.25 236.503 565.038 236.44C564.827 236.376 564.587 236.344 564.319 236.344C563.769 236.344 563.3 236.489 562.912 236.778C562.532 237.06 562.232 237.448 562.013 237.942L561.929 236.556ZM573.891 236.556V238.957H577.149V245.61H573.891V248H583.22V245.61H580.121V236.556H573.891ZM576.937 233.626C576.937 233.852 576.976 234.063 577.053 234.261C577.138 234.451 577.254 234.613 577.402 234.747C577.551 234.888 577.727 234.998 577.931 235.075C578.143 235.153 578.375 235.192 578.629 235.192C579.151 235.192 579.564 235.047 579.867 234.758C580.177 234.462 580.332 234.085 580.332 233.626C580.332 233.168 580.177 232.794 579.867 232.505C579.564 232.209 579.151 232.061 578.629 232.061C578.375 232.061 578.143 232.1 577.931 232.177C577.727 232.255 577.551 232.361 577.402 232.495C577.254 232.636 577.138 232.805 577.053 233.002C576.976 233.193 576.937 233.401 576.937 233.626ZM585.822 242.193V242.415C585.822 243.248 585.927 244.02 586.139 244.732C586.357 245.437 586.668 246.047 587.07 246.562C587.471 247.076 587.954 247.482 588.519 247.778C589.09 248.067 589.731 248.212 590.444 248.212C590.803 248.212 591.138 248.173 591.448 248.095C591.766 248.018 592.055 247.908 592.316 247.767C592.492 247.669 592.658 247.556 592.813 247.429C592.968 247.302 593.116 247.161 593.257 247.006V247.662C593.257 248.049 593.201 248.398 593.088 248.709C592.982 249.019 592.827 249.28 592.622 249.491C592.397 249.724 592.115 249.9 591.776 250.02C591.445 250.14 591.064 250.2 590.634 250.2C590.366 250.2 590.105 250.172 589.851 250.115C589.604 250.066 589.365 249.988 589.132 249.883C588.892 249.777 588.663 249.639 588.445 249.47C588.226 249.308 588.021 249.118 587.831 248.899L586.509 250.686C586.756 251.004 587.052 251.275 587.397 251.501C587.743 251.734 588.11 251.924 588.497 252.072C588.885 252.22 589.277 252.329 589.671 252.4C590.066 252.47 590.436 252.506 590.782 252.506C591.586 252.506 592.319 252.396 592.982 252.178C593.652 251.966 594.226 251.652 594.706 251.236C595.178 250.82 595.545 250.309 595.806 249.703C596.074 249.096 596.208 248.405 596.208 247.63V236.556H593.532L593.416 237.645C593.275 237.469 593.119 237.31 592.95 237.169C592.781 237.021 592.598 236.894 592.4 236.789C592.139 236.641 591.847 236.531 591.522 236.461C591.205 236.383 590.853 236.344 590.465 236.344C589.745 236.344 589.1 236.485 588.529 236.768C587.958 237.05 587.471 237.448 587.07 237.963C586.668 238.477 586.357 239.094 586.139 239.814C585.927 240.533 585.822 241.326 585.822 242.193ZM588.772 242.415V242.193C588.772 241.714 588.822 241.266 588.92 240.85C589.019 240.427 589.171 240.057 589.375 239.74C589.573 239.429 589.823 239.186 590.126 239.01C590.429 238.826 590.789 238.735 591.205 238.735C591.431 238.735 591.639 238.756 591.829 238.798C592.027 238.841 592.206 238.9 592.368 238.978C592.559 239.07 592.728 239.19 592.876 239.338C593.024 239.486 593.151 239.658 593.257 239.856V244.7C593.158 244.876 593.042 245.035 592.908 245.176C592.774 245.317 592.619 245.437 592.443 245.536C592.273 245.627 592.083 245.698 591.871 245.747C591.667 245.797 591.438 245.821 591.184 245.821C590.768 245.821 590.408 245.733 590.105 245.557C589.802 245.38 589.552 245.137 589.354 244.827C589.157 244.524 589.009 244.168 588.91 243.759C588.818 243.343 588.772 242.895 588.772 242.415ZM607.345 236.344C606.577 236.344 605.868 236.531 605.219 236.905C604.571 237.272 604.013 237.779 603.548 238.428L603.527 238.174L603.411 236.556H600.671V248H603.612V241.125C603.746 240.801 603.915 240.519 604.119 240.279C604.324 240.039 604.571 239.842 604.86 239.687C605.099 239.553 605.371 239.454 605.674 239.391C605.984 239.32 606.33 239.285 606.711 239.285C607.077 239.285 607.461 239.309 607.863 239.359C608.272 239.401 608.671 239.468 609.059 239.56L609.492 236.63C609.26 236.56 608.953 236.496 608.572 236.44C608.198 236.376 607.789 236.344 607.345 236.344ZM619.286 248H622.269V247.82C622.121 247.531 622.008 247.186 621.93 246.784C621.853 246.382 621.814 245.874 621.814 245.261V240.353C621.814 239.69 621.691 239.108 621.444 238.608C621.197 238.1 620.855 237.681 620.418 237.349C619.981 237.018 619.463 236.768 618.863 236.598C618.271 236.429 617.629 236.344 616.938 236.344C616.17 236.344 615.486 236.443 614.886 236.641C614.294 236.831 613.793 237.092 613.384 237.423C612.968 237.755 612.651 238.139 612.433 238.576C612.221 239.013 612.115 239.475 612.115 239.962H615.056C615.056 239.757 615.084 239.57 615.14 239.401C615.204 239.232 615.299 239.087 615.426 238.967C615.567 238.834 615.75 238.731 615.976 238.661C616.201 238.583 616.469 238.544 616.78 238.544C617.132 238.544 617.439 238.59 617.7 238.682C617.968 238.767 618.19 238.89 618.366 239.052C618.535 239.207 618.662 239.394 618.747 239.613C618.831 239.824 618.874 240.064 618.874 240.332V241.009H617.234C616.388 241.009 615.637 241.086 614.982 241.241C614.333 241.39 613.786 241.608 613.342 241.897C612.849 242.215 612.478 242.62 612.232 243.114C611.985 243.6 611.861 244.161 611.861 244.795C611.861 245.289 611.96 245.747 612.158 246.17C612.355 246.586 612.63 246.946 612.983 247.249C613.335 247.552 613.755 247.788 614.241 247.958C614.735 248.127 615.274 248.212 615.859 248.212C616.219 248.212 616.554 248.176 616.864 248.106C617.174 248.042 617.46 247.951 617.721 247.831C617.975 247.718 618.207 247.584 618.419 247.429C618.631 247.274 618.817 247.108 618.98 246.932C619.015 247.136 619.057 247.33 619.106 247.513C619.156 247.697 619.216 247.859 619.286 248ZM616.483 245.938C616.208 245.938 615.965 245.906 615.754 245.842C615.549 245.772 615.376 245.68 615.235 245.567C615.094 245.447 614.985 245.303 614.908 245.134C614.837 244.957 614.802 244.767 614.802 244.563C614.802 244.302 614.851 244.062 614.95 243.843C615.049 243.618 615.2 243.424 615.405 243.262C615.609 243.107 615.874 242.987 616.198 242.902C616.522 242.81 616.914 242.765 617.372 242.765H618.874V244.732C618.789 244.88 618.673 245.028 618.525 245.176C618.377 245.317 618.2 245.444 617.996 245.557C617.791 245.67 617.562 245.761 617.308 245.832C617.055 245.902 616.78 245.938 616.483 245.938ZM630.54 233.753H627.6V236.556H624.987V238.724H627.6V243.928C627.6 244.682 627.698 245.331 627.896 245.874C628.093 246.41 628.375 246.851 628.742 247.196C629.101 247.549 629.535 247.81 630.043 247.979C630.558 248.141 631.129 248.222 631.756 248.222C632.081 248.222 632.408 248.204 632.74 248.169C633.078 248.141 633.403 248.099 633.713 248.042C634.023 247.986 634.316 247.915 634.591 247.831C634.866 247.739 635.106 247.633 635.31 247.513L635.024 245.493C634.89 245.529 634.728 245.564 634.538 245.599C634.355 245.634 634.157 245.666 633.946 245.694C633.727 245.73 633.498 245.758 633.258 245.779C633.025 245.8 632.796 245.811 632.571 245.811C632.26 245.811 631.978 245.775 631.724 245.705C631.478 245.634 631.266 245.514 631.09 245.345C630.914 245.183 630.776 244.964 630.677 244.689C630.586 244.407 630.54 244.058 630.54 243.642V238.724H634.813V236.556H630.54V233.753ZM643.708 248.212C644.815 248.212 645.774 247.996 646.585 247.566C647.396 247.136 647.988 246.657 648.362 246.128L646.892 244.541C646.553 244.979 646.112 245.306 645.569 245.525C645.026 245.744 644.466 245.853 643.888 245.853C643.479 245.853 643.102 245.789 642.756 245.663C642.411 245.536 642.104 245.356 641.836 245.123C641.575 244.897 641.367 244.647 641.212 244.372C641.057 244.09 640.93 243.72 640.831 243.262V243.23H648.594V241.982C648.594 241.143 648.478 240.378 648.245 239.687C648.013 238.989 647.674 238.393 647.23 237.899C646.779 237.406 646.229 237.025 645.58 236.757C644.938 236.482 644.205 236.344 643.38 236.344C642.583 236.344 641.846 236.489 641.17 236.778C640.493 237.067 639.907 237.473 639.414 237.994C638.92 238.516 638.536 239.14 638.261 239.866C637.986 240.586 637.848 241.382 637.848 242.257V242.68C637.848 243.448 637.986 244.171 638.261 244.848C638.543 245.518 638.941 246.1 639.456 246.593C639.971 247.094 640.588 247.489 641.307 247.778C642.026 248.067 642.827 248.212 643.708 248.212ZM643.359 238.724C643.733 238.724 644.06 238.784 644.343 238.904C644.632 239.017 644.875 239.172 645.072 239.369C645.27 239.574 645.425 239.814 645.538 240.089C645.651 240.364 645.707 240.656 645.707 240.966V241.199H640.884C640.954 240.825 641.06 240.487 641.201 240.184C641.342 239.881 641.519 239.62 641.73 239.401C641.935 239.183 642.174 239.017 642.449 238.904C642.724 238.784 643.027 238.724 643.359 238.724ZM663.867 242.193V242.415C663.867 243.248 663.969 244.02 664.174 244.732C664.378 245.437 664.675 246.047 665.062 246.562C665.443 247.076 665.908 247.482 666.458 247.778C667.016 248.067 667.643 248.212 668.341 248.212C668.983 248.212 669.547 248.088 670.033 247.841C670.52 247.595 670.943 247.249 671.303 246.805L671.451 248H674.105V231.754H671.155V237.582C670.802 237.187 670.397 236.884 669.938 236.672C669.487 236.454 668.962 236.344 668.362 236.344C667.65 236.344 667.016 236.485 666.458 236.768C665.908 237.05 665.44 237.448 665.052 237.963C664.664 238.477 664.368 239.094 664.163 239.814C663.966 240.533 663.867 241.326 663.867 242.193ZM666.807 242.415V242.193C666.807 241.714 666.85 241.266 666.934 240.85C667.019 240.427 667.153 240.057 667.336 239.74C667.52 239.429 667.756 239.186 668.045 239.01C668.341 238.826 668.697 238.735 669.113 238.735C669.614 238.735 670.03 238.844 670.361 239.063C670.693 239.274 670.957 239.574 671.155 239.962V244.594C670.957 244.975 670.689 245.275 670.351 245.493C670.019 245.712 669.6 245.821 669.092 245.821C668.676 245.821 668.323 245.733 668.034 245.557C667.745 245.38 667.509 245.137 667.326 244.827C667.142 244.524 667.008 244.168 666.924 243.759C666.846 243.343 666.807 242.895 666.807 242.415ZM677.966 236.556V238.957H681.224V245.61H677.966V248H687.295V245.61H684.196V236.556H677.966ZM681.012 233.626C681.012 233.852 681.051 234.063 681.128 234.261C681.213 234.451 681.329 234.613 681.477 234.747C681.625 234.888 681.802 234.998 682.006 235.075C682.218 235.153 682.45 235.192 682.704 235.192C683.226 235.192 683.639 235.047 683.942 234.758C684.252 234.462 684.407 234.085 684.407 233.626C684.407 233.168 684.252 232.794 683.942 232.505C683.639 232.209 683.226 232.061 682.704 232.061C682.45 232.061 682.218 232.1 682.006 232.177C681.802 232.255 681.625 232.361 681.477 232.495C681.329 232.636 681.213 232.805 681.128 233.002C681.051 233.193 681.012 233.401 681.012 233.626ZM693.038 248H695.989V238.724H700.114V236.556H695.989V235.932C695.989 235.594 696.031 235.29 696.116 235.022C696.207 234.754 696.345 234.529 696.528 234.345C696.733 234.127 697.008 233.961 697.353 233.848C697.699 233.736 698.118 233.679 698.612 233.679C699.07 233.679 699.468 233.7 699.807 233.743C700.145 233.785 700.449 233.834 700.716 233.891L700.907 231.585C700.667 231.543 700.434 231.504 700.209 231.469C699.99 231.433 699.772 231.402 699.553 231.373C699.334 231.345 699.109 231.324 698.876 231.31C698.65 231.289 698.414 231.278 698.167 231.278C697.385 231.278 696.676 231.38 696.042 231.585C695.407 231.782 694.868 232.079 694.423 232.473C693.979 232.868 693.637 233.355 693.397 233.933C693.158 234.511 693.038 235.177 693.038 235.932V236.556H690.034V238.724H693.038V248ZM706.047 248H708.998V238.724H713.123V236.556H708.998V235.932C708.998 235.594 709.04 235.29 709.125 235.022C709.217 234.754 709.354 234.529 709.537 234.345C709.742 234.127 710.017 233.961 710.362 233.848C710.708 233.736 711.127 233.679 711.621 233.679C712.079 233.679 712.478 233.7 712.816 233.743C713.155 233.785 713.458 233.834 713.726 233.891L713.916 231.585C713.676 231.543 713.444 231.504 713.218 231.469C713 231.433 712.781 231.402 712.562 231.373C712.344 231.345 712.118 231.324 711.885 231.31C711.66 231.289 711.424 231.278 711.177 231.278C710.394 231.278 709.686 231.38 709.051 231.585C708.416 231.782 707.877 232.079 707.433 232.473C706.988 232.868 706.646 233.355 706.407 233.933C706.167 234.511 706.047 235.177 706.047 235.932V236.556H703.043V238.724H706.047V248Z"></path>
<circle fill="#F07362" transform="rotate(180 449.034 211.573)" r="3.0266" cy="211.573" cx="449.034"></circle>
<circle fill="#F2BB2E" transform="rotate(180 457.509 211.573)" r="3.0266" cy="211.573" cx="457.509"></circle>
<circle fill="#27AE60" transform="rotate(180 465.984 211.573)" r="3.0266" cy="211.573" cx="465.984"></circle>
<path fill="white" d="M59.3094 386.704C58.8909 387.387 58.8974 388.248 59.3261 388.924L67.0855 401.164C67.5891 401.959 68.5598 402.321 69.4607 402.051L91.8524 395.333C93.0743 394.967 93.6891 393.603 93.155 392.445L78.7606 361.22C78.0586 359.697 75.9424 359.572 75.066 361.002L59.3094 386.704ZM78.3781 368.358C78.0722 367.65 77.0362 367.759 76.8843 368.516L71.3425 396.109C71.2257 396.691 71.7704 397.188 72.3391 397.018L87.8099 392.4C88.2615 392.265 88.4941 391.766 88.3072 391.334L78.3781 368.358Z" clip-rule="evenodd" fill-rule="evenodd"></path>
<path fill="white" d="M106.763 380.998H108.127C109.402 380.998 110.355 380.746 110.988 380.243C111.621 379.739 111.937 379.006 111.937 378.043C111.937 377.072 111.672 376.355 111.142 375.891C110.611 375.428 109.78 375.196 108.648 375.196H106.763V380.998ZM116.121 377.898C116.121 380.001 115.464 381.61 114.149 382.724C112.835 383.838 110.966 384.395 108.541 384.395H106.763V391.347H102.619V371.802H108.862C111.233 371.802 113.036 372.312 114.27 373.332C115.504 374.353 116.121 375.875 116.121 377.898Z" clip-rule="evenodd" fill-rule="evenodd"></path>
<path fill="white" d="M127.108 376.111C127.661 376.111 128.119 376.151 128.485 376.231L128.177 380.054C127.848 379.966 127.447 379.921 126.974 379.921C125.673 379.921 124.659 380.255 123.932 380.924C123.206 381.592 122.843 382.528 122.843 383.731V391.338H118.765V376.392H121.854L122.456 378.905H122.656C123.119 378.067 123.745 377.392 124.535 376.879C125.323 376.367 126.181 376.111 127.108 376.111" clip-rule="evenodd" fill-rule="evenodd"></path>
<path fill="white" d="M130.648 391.344H134.726V376.397H130.648V391.344ZM130.474 372.533C130.474 371.205 131.213 370.541 132.693 370.541C134.172 370.541 134.912 371.205 134.912 372.533C134.912 373.166 134.727 373.658 134.357 374.01C133.987 374.362 133.433 374.538 132.693 374.538C131.213 374.538 130.474 373.869 130.474 372.533Z" clip-rule="evenodd" fill-rule="evenodd"></path>
<path fill="white" d="M149.081 386.903C149.081 388.436 148.549 389.603 147.483 390.405C146.418 391.207 144.825 391.609 142.704 391.609C141.616 391.609 140.69 391.535 139.923 391.388C139.157 391.241 138.439 391.025 137.771 390.74V387.37C138.528 387.727 139.382 388.026 140.331 388.266C141.28 388.507 142.116 388.627 142.838 388.627C144.317 388.627 145.057 388.199 145.057 387.344C145.057 387.023 144.959 386.762 144.763 386.562C144.567 386.361 144.228 386.134 143.747 385.88C143.266 385.626 142.624 385.33 141.822 384.991C140.672 384.51 139.827 384.064 139.289 383.654C138.749 383.244 138.357 382.774 138.112 382.243C137.867 381.713 137.744 381.06 137.744 380.285C137.744 378.957 138.258 377.93 139.289 377.203C140.318 376.477 141.777 376.114 143.666 376.114C145.467 376.114 147.218 376.506 148.921 377.29L147.691 380.231C146.942 379.91 146.242 379.648 145.592 379.443C144.941 379.238 144.277 379.135 143.6 379.135C142.397 379.135 141.795 379.46 141.795 380.111C141.795 380.477 141.989 380.793 142.376 381.06C142.764 381.327 143.613 381.724 144.923 382.25C146.091 382.723 146.947 383.164 147.49 383.574C148.034 383.984 148.435 384.456 148.694 384.991C148.952 385.526 149.081 386.163 149.081 386.903" clip-rule="evenodd" fill-rule="evenodd"></path>
<path fill="white" d="M165.234 391.338H161.156V382.608C161.156 381.53 160.976 380.721 160.615 380.182C160.254 379.643 159.686 379.373 158.91 379.373C157.868 379.373 157.11 379.756 156.638 380.523C156.165 381.289 155.929 382.55 155.929 384.306V391.338H151.851V376.392H154.967L155.515 378.304H155.742C156.143 377.617 156.723 377.08 157.48 376.692C158.238 376.305 159.107 376.111 160.087 376.111C162.324 376.111 163.839 376.842 164.633 378.304H164.993C165.395 377.608 165.985 377.069 166.765 376.686C167.545 376.302 168.425 376.111 169.405 376.111C171.099 376.111 172.38 376.546 173.249 377.414C174.118 378.283 174.552 379.676 174.552 381.592V391.338H170.461V382.608C170.461 381.53 170.281 380.721 169.92 380.182C169.559 379.643 168.991 379.373 168.215 379.373C167.217 379.373 166.471 379.73 165.976 380.442C165.481 381.156 165.234 382.287 165.234 383.838V391.338Z" clip-rule="evenodd" fill-rule="evenodd"></path>
<path fill="white" d="M186.418 384.417L184.84 384.471C183.655 384.506 182.773 384.72 182.193 385.113C181.614 385.505 181.324 386.102 181.324 386.904C181.324 388.054 181.984 388.629 183.303 388.629C184.247 388.629 185.003 388.357 185.569 387.813C186.135 387.269 186.418 386.548 186.418 385.647V384.417ZM187.621 391.341L186.832 389.309H186.725C186.039 390.174 185.333 390.773 184.606 391.107C183.88 391.441 182.933 391.608 181.766 391.608C180.33 391.608 179.201 391.198 178.376 390.378C177.552 389.558 177.14 388.391 177.14 386.876C177.14 385.29 177.695 384.12 178.804 383.366C179.914 382.613 181.587 382.197 183.824 382.116L186.418 382.036V381.381C186.418 379.866 185.642 379.108 184.092 379.108C182.897 379.108 181.493 379.469 179.88 380.191L178.53 377.437C180.25 376.537 182.158 376.087 184.252 376.087C186.257 376.087 187.795 376.524 188.865 377.397C189.934 378.27 190.469 379.598 190.469 381.381V391.341H187.621Z" clip-rule="evenodd" fill-rule="evenodd"></path>
</g>
<defs>
<filter color-interpolation-filters="sRGB" filterUnits="userSpaceOnUse" height="160.918" width="360.918" y="103" x="434" id="filter0_d_7082_4735">
<feFlood result="BackgroundImageFix" flood-opacity="0"></feFlood>
<feColorMatrix result="hardAlpha" values="0 0 0 0 0 0 0 0 0 0 0 0 0 0 0 0 0 0 127 0" type="matrix" in="SourceAlpha"></feColorMatrix>
<feOffset dy="39.9591" dx="39.9591"></feOffset>
<feGaussianBlur stdDeviation="19.9795"></feGaussianBlur>
<feComposite operator="out" in2="hardAlpha"></feComposite>
<feColorMatrix values="0 0 0 0 0 0 0 0 0 0 0 0 0 0 0 0 0 0 0.25 0" type="matrix"></feColorMatrix>
<feBlend result="effect1_dropShadow_7082_4735" in2="BackgroundImageFix" mode="normal"></feBlend>
<feBlend result="shape" in2="effect1_dropShadow_7082_4735" in="SourceGraphic" mode="normal"></feBlend>
</filter>
<filter color-interpolation-filters="sRGB" filterUnits="userSpaceOnUse" height="40.7233" width="40.7233" y="82.7622" x="690.02" id="filter1_d_7082_4735">
<feFlood result="BackgroundImageFix" flood-opacity="0"></feFlood>
<feColorMatrix result="hardAlpha" values="0 0 0 0 0 0 0 0 0 0 0 0 0 0 0 0 0 0 127 0" type="matrix" in="SourceAlpha"></feColorMatrix>
<feOffset dy="0.74268"></feOffset>
<feGaussianBlur stdDeviation="0.99024"></feGaussianBlur>
<feColorMatrix values="0 0 0 0 0.0470588 0 0 0 0 0.203922 0 0 0 0 0.294118 0 0 0 0.15 0" type="matrix"></feColorMatrix>
<feBlend result="effect1_dropShadow_7082_4735" in2="BackgroundImageFix" mode="normal"></feBlend>
<feBlend result="shape" in2="effect1_dropShadow_7082_4735" in="SourceGraphic" mode="normal"></feBlend>
</filter>
<filter color-interpolation-filters="sRGB" filterUnits="userSpaceOnUse" height="160.975" width="392.034" y="198.633" x="433.884" id="filter2_d_7082_4735">
<feFlood result="BackgroundImageFix" flood-opacity="0"></feFlood>
<feColorMatrix result="hardAlpha" values="0 0 0 0 0 0 0 0 0 0 0 0 0 0 0 0 0 0 127 0" type="matrix" in="SourceAlpha"></feColorMatrix>
<feOffset dy="39.9591" dx="39.9591"></feOffset>
<feGaussianBlur stdDeviation="19.9795"></feGaussianBlur>
<feComposite operator="out" in2="hardAlpha"></feComposite>
<feColorMatrix values="0 0 0 0 0 0 0 0 0 0 0 0 0 0 0 0 0 0 0.25 0" type="matrix"></feColorMatrix>
<feBlend result="effect1_dropShadow_7082_4735" in2="BackgroundImageFix" mode="normal"></feBlend>
<feBlend result="shape" in2="effect1_dropShadow_7082_4735" in="SourceGraphic" mode="normal"></feBlend>
</filter>
<filter color-interpolation-filters="sRGB" filterUnits="userSpaceOnUse" height="40.7233" width="40.7233" y="178.762" x="716.02" id="filter3_d_7082_4735">
<feFlood result="BackgroundImageFix" flood-opacity="0"></feFlood>
<feColorMatrix result="hardAlpha" values="0 0 0 0 0 0 0 0 0 0 0 0 0 0 0 0 0 0 127 0" type="matrix" in="SourceAlpha"></feColorMatrix>
<feOffset dy="0.74268"></feOffset>
<feGaussianBlur stdDeviation="0.99024"></feGaussianBlur>
<feColorMatrix values="0 0 0 0 0.0470588 0 0 0 0 0.203922 0 0 0 0 0.294118 0 0 0 0.15 0" type="matrix"></feColorMatrix>
<feBlend result="effect1_dropShadow_7082_4735" in2="BackgroundImageFix" mode="normal"></feBlend>
<feBlend result="shape" in2="effect1_dropShadow_7082_4735" in="SourceGraphic" mode="normal"></feBlend>
</filter>
<linearGradient gradientUnits="userSpaceOnUse" y2="338.514" x2="770.811" y1="1.74509e-06" x1="178.577" id="paint0_linear_7082_4735">
<stop stop-color="#C3DAFE"></stop>
<stop stop-color="#667EEA" offset="1"></stop>
</linearGradient>
<linearGradient gradientUnits="userSpaceOnUse" y2="275.087" x2="283.71" y1="322.171" x1="308.975" id="paint1_linear_7082_4735">
<stop stop-color="#C4C4C4"></stop>
<stop stop-opacity="0" stop-color="#C4C4C4" offset="1"></stop>
</linearGradient>
<radialGradient gradientTransform="translate(371.562 319.882) rotate(90) scale(47.0841 116.562)" gradientUnits="userSpaceOnUse" r="1" cy="0" cx="0" id="paint2_radial_7082_4735">
<stop stop-color="#071B29" offset="0.604167"></stop>
<stop stop-opacity="0.17" stop-color="#071B29" offset="0.848958"></stop>
<stop stop-opacity="0" stop-color="#071B29" offset="1"></stop>
</radialGradient>
<linearGradient gradientUnits="userSpaceOnUse" y2="265.699" x2="470.891" y1="265.699" x1="272.219" id="paint3_linear_7082_4735">
<stop stop-color="#B4C5CD"></stop>
<stop stop-color="#6C8A98" offset="0.718232"></stop>
<stop stop-color="#6B8692" offset="1"></stop>
</linearGradient>
<linearGradient gradientUnits="userSpaceOnUse" y2="323.249" x2="336.513" y1="229.56" x1="437.332" id="paint4_linear_7082_4735">
<stop stop-color="#648697"></stop>
<stop stop-color="#B8CCD5" offset="1"></stop>
</linearGradient>
<radialGradient gradientTransform="translate(315.858 313.194) rotate(-140.974) scale(56.1733 48.2008)" gradientUnits="userSpaceOnUse" r="1" cy="0" cx="0" id="paint5_radial_7082_4735">
<stop stop-color="white"></stop>
<stop stop-opacity="0" stop-color="white" offset="1"></stop>
</radialGradient>
<linearGradient gradientUnits="userSpaceOnUse" y2="240.877" x2="465.872" y1="240.877" x1="277.26" id="paint6_linear_7082_4735">
<stop stop-color="#183C56"></stop>
<stop stop-color="#335D7B" offset="0.286458"></stop>
<stop stop-color="#082133" offset="1"></stop>
</linearGradient>
<linearGradient gradientUnits="userSpaceOnUse" y2="230.533" x2="465.872" y1="230.533" x1="277.26" id="paint7_linear_7082_4735">
<stop stop-color="#183C56"></stop>
<stop stop-color="#335D7B" offset="0.286458"></stop>
<stop stop-color="#082133" offset="1"></stop>
</linearGradient>
<linearGradient gradientUnits="userSpaceOnUse" y2="218.869" x2="470.891" y1="218.869" x1="272.219" id="paint8_linear_7082_4735">
<stop stop-color="#B4C5CD"></stop>
<stop stop-color="#6C8A98" offset="0.718232"></stop>
<stop stop-color="#6B8692" offset="1"></stop>
</linearGradient>
<linearGradient gradientUnits="userSpaceOnUse" y2="261.268" x2="330.109" y1="168.27" x1="437.332" id="paint9_linear_7082_4735">
<stop stop-color="#648697"></stop>
<stop stop-color="#B8CCD5" offset="1"></stop>
</linearGradient>
<radialGradient gradientTransform="translate(315.858 257.878) rotate(-139.028) scale(57.7974 50.1925)" gradientUnits="userSpaceOnUse" r="1" cy="0" cx="0" id="paint10_radial_7082_4735">
<stop stop-color="white"></stop>
<stop stop-opacity="0" stop-color="white" offset="1"></stop>
</radialGradient>
<linearGradient gradientUnits="userSpaceOnUse" y2="182.62" x2="465.872" y1="182.62" x1="277.26" id="paint11_linear_7082_4735">
<stop stop-color="#183C56"></stop>
<stop stop-color="#335D7B" offset="0.286458"></stop>
<stop stop-color="#082133" offset="1"></stop>
</linearGradient>
<linearGradient gradientUnits="userSpaceOnUse" y2="171.148" x2="465.872" y1="171.148" x1="277.26" id="paint12_linear_7082_4735">
<stop stop-color="#183C56"></stop>
<stop stop-color="#335D7B" offset="0.286458"></stop>
<stop stop-color="#082133" offset="1"></stop>
</linearGradient>
<linearGradient gradientUnits="userSpaceOnUse" y2="161.089" x2="470.891" y1="161.089" x1="272.219" id="paint13_linear_7082_4735">
<stop stop-color="#B4C5CD"></stop>
<stop stop-color="#6C8A98" offset="0.718232"></stop>
<stop stop-color="#6B8692" offset="1"></stop>
</linearGradient>
<linearGradient gradientUnits="userSpaceOnUse" y2="230.065" x2="351.323" y1="135.476" x1="438.674" id="paint14_linear_7082_4735">
<stop stop-color="#B9CAD2"></stop>
<stop stop-color="#DBE6EB" offset="1"></stop>
</linearGradient>
<radialGradient gradientTransform="translate(300.929 194.708) rotate(-34.7432) scale(86.6486 234.546)" gradientUnits="userSpaceOnUse" r="1" cy="0" cx="0" id="paint15_radial_7082_4735">
<stop stop-color="white"></stop>
<stop stop-opacity="0" stop-color="white" offset="1"></stop>
</radialGradient>
<linearGradient gradientUnits="userSpaceOnUse" y2="269.751" x2="615.999" y1="107.799" x1="453.813" id="paint16_linear_7082_4735">
<stop stop-color="#EDF2F7" offset="0.376326"></stop>
<stop stop-color="#CBD5E0" offset="1"></stop>
</linearGradient>
<linearGradient gradientUnits="userSpaceOnUse" y2="98.3311" x2="702.281" y1="118.737" x1="730.32" id="paint17_linear_7082_4735">
<stop stop-color="#4C51BF"></stop>
<stop stop-opacity="0" stop-color="#0C344B" offset="1"></stop>
<stop stop-opacity="0" stop-color="#4C51BF" offset="1"></stop>
</linearGradient>
<linearGradient gradientUnits="userSpaceOnUse" y2="380.627" x2="539.152" y1="202.123" x1="442.127" id="paint18_linear_7082_4735">
<stop stop-color="#EDF2F7"></stop>
<stop stop-color="#CBD5E0" offset="1"></stop>
</linearGradient>
<linearGradient gradientUnits="userSpaceOnUse" y2="194.331" x2="728.281" y1="214.737" x1="756.32" id="paint19_linear_7082_4735">
<stop stop-color="#4C51BF"></stop>
<stop stop-opacity="0" stop-color="#0C344B" offset="1"></stop>
<stop stop-opacity="0" stop-color="#4C51BF" offset="1"></stop>
</linearGradient>
<clipPath id="clip0_7082_4735">
<rect fill="white" height="474" width="844"></rect>
</clipPath>
</defs>
</svg>
