<svg xmlns="http://www.w3.org/2000/svg" fill="none" viewBox="0 0 844 474" height="474" width="844">
<g clip-path="url(#clip0_10022_187808)">
<rect fill="url(#paint0_linear_10022_187808)" height="474" width="844"></rect>
<rect fill="url(#paint1_radial_10022_187808)" height="474" width="844"></rect>
<rect fill-opacity="0.2" fill="url(#paint2_radial_10022_187808)" height="474" width="844"></rect>
<g opacity="0.44">
<path stroke-miterlimit="10" stroke-width="2.41079" stroke="#138478" d="M648.862 95.6878L771.768 310.549C781.907 328.283 769.053 350.349 748.628 350.263L501.105 349.271C480.68 349.185 468 327.018 478.286 309.37L602.914 95.5039C613.2 77.8553 638.733 77.9572 648.886 95.6852L648.862 95.6878Z"></path>
<path stroke-miterlimit="10" stroke-width="2.41079" stroke="#138478" d="M655.073 89.2233L780.468 308.442C793.342 330.941 777.02 358.946 751.104 358.839L498.553 357.826C472.624 357.725 456.541 329.597 469.586 307.195L596.743 88.9888C609.798 66.5908 642.202 66.7143 655.073 89.2233Z" opacity="0.95"></path>
<path stroke-miterlimit="10" stroke-width="2.41079" stroke="#138478" d="M661.276 82.742L789.16 306.318C804.765 333.592 784.989 367.531 753.572 367.398L496.007 366.358C464.587 366.236 445.092 332.142 460.906 304.991L590.587 82.4543C606.412 55.3069 645.684 55.4619 661.276 82.742Z" opacity="0.9"></path>
<path stroke-miterlimit="10" stroke-width="2.41079" stroke="#138478" d="M667.489 76.2608L797.872 304.198C816.2 336.243 792.972 376.105 756.051 375.957L493.469 374.9C456.557 374.756 433.649 334.697 452.23 302.807L584.439 75.9298C603.023 44.0293 649.172 44.2195 667.499 76.2644L667.489 76.2608Z" opacity="0.86"></path>
<path stroke-miterlimit="10" stroke-width="2.41079" stroke="#138478" d="M673.694 69.7808L806.566 302.075C827.629 338.885 800.932 384.687 758.52 384.517L490.911 383.44C448.499 383.27 422.174 337.257 443.538 300.61L578.275 69.3929C599.624 32.753 652.635 32.9611 673.694 69.7808Z" opacity="0.81"></path>
<path stroke-miterlimit="10" stroke-width="2.41079" stroke="#138478" d="M679.903 63.308L815.265 299.96C839.048 341.541 808.897 393.276 760.994 393.085L488.368 391.991C440.465 391.799 410.727 339.82 434.846 298.431L572.108 62.883C596.227 21.4938 656.105 21.7334 679.889 63.3143L679.903 63.308Z" opacity="0.76"></path>
<path stroke-miterlimit="10" stroke-width="2.41079" stroke="#138478" d="M686.104 56.8262L823.955 297.836C850.47 344.191 816.864 401.861 763.461 401.643L485.816 400.533C432.423 400.319 399.273 342.375 426.161 296.237L565.951 56.3481C592.839 10.2095 659.585 10.4806 686.1 56.8362L686.104 56.8262Z" opacity="0.71"></path>
<path stroke-miterlimit="10" stroke-width="2.41079" stroke="#138478" d="M692.319 50.3525L832.673 295.713C861.914 346.83 824.849 410.442 765.955 410.204L483.287 409.062C424.392 408.823 387.84 344.918 417.494 294.04L559.811 49.8111C589.465 -1.0669 663.083 -0.774294 692.323 50.3425L692.319 50.3525Z" opacity="0.67"></path>
<path stroke-miterlimit="10" stroke-width="2.41079" stroke="#138478" d="M698.524 43.8796L841.367 293.598C873.339 349.489 832.81 419.032 768.425 418.771L480.739 417.613C416.354 417.352 376.385 347.492 408.808 291.865L553.654 43.295C586.067 -12.336 666.552 -12.012 698.524 43.8796Z" opacity="0.62"></path>
<path stroke-miterlimit="10" stroke-width="2.41079" stroke="#138478" d="M704.73 37.3974L850.062 291.473C884.756 352.135 840.785 427.605 770.895 427.329L478.192 426.154C408.306 425.868 364.934 350.046 400.127 289.67L547.497 36.7695C582.68 -23.6109 670.032 -23.2553 704.73 37.3974Z" opacity="0.57"></path>
<path stroke-miterlimit="10" stroke-width="2.41079" stroke="#138478" d="M710.943 30.9251L858.775 289.361C896.203 354.789 848.764 436.199 773.384 435.901L475.653 434.705C400.277 434.397 353.492 352.611 391.44 287.491L541.338 30.2502C579.291 -34.8796 673.511 -34.4925 710.939 30.935L710.943 30.9251Z" opacity="0.52"></path>
<path stroke-miterlimit="10" stroke-width="2.41079" stroke="#138478" d="M717.144 24.445L867.465 287.239C907.615 357.437 856.721 444.781 775.849 444.461L473.102 443.249C392.23 442.929 342.033 355.177 382.755 285.298L535.181 23.7169C575.899 -46.1523 676.994 -45.7536 717.144 24.445Z" opacity="0.48"></path>
<path stroke-miterlimit="10" stroke-width="2.41079" stroke="#138478" d="M723.35 17.9729L876.161 285.124C919.042 360.098 864.683 453.371 778.325 453.02L470.563 451.78C384.191 451.435 330.591 357.722 374.078 283.103L529.029 17.1916C572.516 -57.427 680.469 -57.0004 723.35 17.9729Z" opacity="0.43"></path>
<path stroke-miterlimit="10" stroke-width="2.41079" stroke="#138478" d="M729.566 11.4975L884.866 283.006C930.483 362.744 872.665 461.961 780.806 461.584L468.017 460.324C376.154 459.958 319.141 360.279 365.398 280.911L522.876 10.6592C569.123 -68.7123 683.953 -68.2507 729.57 11.4875L729.566 11.4975Z" opacity="0.38"></path>
<path stroke-miterlimit="10" stroke-width="2.41079" stroke="#138478" d="M735.769 5.01411L893.568 280.884C941.906 365.393 880.638 470.533 783.284 470.145L465.478 468.868C368.124 468.48 307.698 362.836 356.71 278.725L516.717 4.13254C565.733 -79.9884 687.431 -79.4952 735.769 5.01411Z" opacity="0.33"></path>
<path stroke-miterlimit="10" stroke-width="2.41079" stroke="#138478" d="M741.979 -1.46599L902.267 278.761C953.337 368.045 888.603 479.115 785.759 478.705L462.925 477.408C360.071 476.994 296.238 365.399 348.024 276.529L510.559 -2.40447C562.34 -91.2648 690.909 -90.7501 741.972 -1.47963L741.979 -1.46599Z" opacity="0.29"></path>
<path stroke-miterlimit="10" stroke-width="2.41079" stroke="#138478" d="M748.18 -7.9439L910.972 276.634C964.766 370.679 896.584 487.697 788.239 487.261L460.388 485.947C352.042 485.511 284.797 367.951 339.348 274.341L504.408 -8.922C558.959 -102.532 694.385 -101.989 748.18 -7.9439Z" opacity="0.24"></path>
<path stroke-miterlimit="10" stroke-width="2.41079" stroke="#138478" d="M754.39 -14.4141L919.66 274.518C976.187 373.338 904.54 496.285 790.703 495.828L457.835 494.496C343.999 494.039 273.341 370.514 330.662 272.155L498.249 -15.4491C555.569 -113.808 697.864 -113.234 754.39 -14.4141Z" opacity="0.19"></path>
<path stroke-miterlimit="10" stroke-width="2.41079" stroke="#138478" d="M760.596 -20.9027L928.362 272.4C987.623 375.985 912.522 504.866 793.185 504.383L455.289 503.031C335.952 502.548 261.888 373.072 321.967 269.96L492.093 -21.981C552.172 -125.093 701.344 -124.484 760.596 -20.9027Z" opacity="0.14"></path>
<path stroke-miterlimit="10" stroke-width="2.41079" stroke="#138478" d="M766.809 -27.3764L937.065 270.284C999.048 378.64 920.491 513.454 795.659 512.96L452.75 511.581C327.922 511.076 250.445 375.635 313.291 267.783L485.941 -28.4881C548.786 -136.34 704.829 -135.709 766.802 -27.3564L766.809 -27.3764Z" opacity="0.1"></path>
</g>
<g filter="url(#filter0_ddd_10022_187808)">
<path fill="#090A15" d="M612.876 112C618.264 102.667 631.736 102.667 637.124 112L751.44 310C756.828 319.333 750.093 331 739.315 331H510.685C499.907 331 493.172 319.333 498.56 310L612.876 112Z"></path>
</g>
<g filter="url(#filter1_dd_10022_187808)">
<path stroke-width="3" stroke="url(#paint3_linear_10022_187808)" d="M752.739 309.25L638.423 111.25C632.457 100.917 617.543 100.917 611.577 111.25L497.261 309.25C491.295 319.583 498.753 332.5 510.685 332.5H739.315C751.247 332.5 758.705 319.583 752.739 309.25Z"></path>
</g>
<g filter="url(#filter2_dddddd_10022_187808)">
<path fill="#71E8DF" d="M603.119 210.019C608.447 205.031 615.817 200.836 625 200.836C634.07 200.836 641.439 205.031 646.768 210.019C652.097 215.008 655.611 220.79 657.312 224.871C657.652 225.778 657.652 226.799 657.312 227.706C655.611 231.674 652.097 237.569 646.768 242.558C641.439 247.546 634.07 251.628 625 251.628C615.817 251.628 608.447 247.546 603.119 242.558C597.79 237.569 594.275 231.674 592.575 227.706C592.234 226.799 592.234 225.778 592.575 224.871C594.275 220.79 597.79 214.894 603.119 210.019ZM625 242.558C630.782 242.558 636.111 239.497 639.059 234.395C642.006 229.406 642.006 223.171 639.059 218.069C636.111 213.08 630.782 209.906 625 209.906C619.104 209.906 613.776 213.08 610.828 218.069C607.88 223.171 607.88 229.406 610.828 234.395C613.776 239.497 619.104 242.558 625 242.558Z"></path>
</g>
<g filter="url(#filter3_d_10022_187808)">
<path fill="#71E8DF" d="M603.119 210.019C608.447 205.031 615.817 200.836 625 200.836C634.07 200.836 641.439 205.031 646.768 210.019C652.097 215.008 655.611 220.79 657.312 224.871C657.652 225.778 657.652 226.799 657.312 227.706C655.611 231.674 652.097 237.569 646.768 242.558C641.439 247.546 634.07 251.628 625 251.628C615.817 251.628 608.447 247.546 603.119 242.558C597.79 237.569 594.275 231.674 592.575 227.706C592.234 226.799 592.234 225.778 592.575 224.871C594.275 220.79 597.79 214.894 603.119 210.019ZM625 242.558C630.782 242.558 636.111 239.497 639.059 234.395C642.006 229.406 642.006 223.171 639.059 218.069C636.111 213.08 630.782 209.906 625 209.906C619.104 209.906 613.776 213.08 610.828 218.069C607.88 223.171 607.88 229.406 610.828 234.395C613.776 239.497 619.104 242.558 625 242.558Z"></path>
</g>
<path stroke-linecap="round" stroke-width="19" stroke="#71E8DF" d="M55 292C118.988 284.454 283.571 273.889 430 292"></path>
<g filter="url(#filter4_dddddd_10022_187808)">
<path fill="white" d="M119.379 99.4944C119.796 99.4944 120.129 99.6611 120.379 99.9945C120.713 100.244 120.88 100.578 120.88 100.995V115.87C120.88 116.287 120.713 116.662 120.379 116.996C120.129 117.246 119.796 117.371 119.379 117.371H97.503C97.0863 117.371 96.878 117.579 96.878 117.996V185.5C96.878 185.917 96.7113 186.292 96.3779 186.625C96.1279 186.875 95.7946 187 95.3779 187H77.6268C77.2101 187 76.835 186.875 76.5017 186.625C76.2517 186.292 76.1267 185.917 76.1267 185.5V117.996C76.1267 117.579 75.9183 117.371 75.5016 117.371H54.3753C53.9586 117.371 53.5836 117.246 53.2502 116.996C53.0002 116.662 52.8752 116.287 52.8752 115.87V100.995C52.8752 100.578 53.0002 100.244 53.2502 99.9945C53.5836 99.6611 53.9586 99.4944 54.3753 99.4944H119.379ZM157.546 188.375C150.795 188.375 144.837 187.042 139.67 184.375C134.586 181.625 130.628 177.791 127.794 172.874C124.96 167.957 123.544 162.248 123.544 155.748V130.746C123.544 124.413 124.96 118.829 127.794 113.995C130.628 109.078 134.586 105.286 139.67 102.62C144.837 99.8695 150.795 98.4944 157.546 98.4944C164.296 98.4944 170.255 99.8695 175.422 102.62C180.589 105.286 184.589 109.078 187.423 113.995C190.256 118.829 191.673 124.413 191.673 130.746V155.748C191.673 162.248 190.256 167.957 187.423 172.874C184.589 177.791 180.589 181.625 175.422 184.375C170.255 187.042 164.296 188.375 157.546 188.375ZM157.546 170.624C161.546 170.624 164.755 169.332 167.172 166.749C169.672 164.165 170.922 160.707 170.922 156.373V130.496C170.922 126.246 169.672 122.829 167.172 120.246C164.755 117.579 161.546 116.245 157.546 116.245C153.629 116.245 150.42 117.579 147.92 120.246C145.503 122.829 144.295 126.246 144.295 130.496V156.373C144.295 160.707 145.503 164.165 147.92 166.749C150.42 169.332 153.629 170.624 157.546 170.624ZM237.313 99.4944C242.98 99.4944 247.98 100.661 252.314 102.995C256.731 105.328 260.106 108.62 262.439 112.87C264.856 117.037 266.065 121.871 266.065 127.371C266.065 132.788 264.814 137.58 262.314 141.747C259.897 145.914 256.439 149.123 251.939 151.373C247.438 153.623 242.23 154.748 236.313 154.748H221.062C220.645 154.748 220.437 154.956 220.437 155.373V185.5C220.437 185.917 220.27 186.292 219.937 186.625C219.687 186.875 219.353 187 218.937 187H201.185C200.769 187 200.394 186.875 200.06 186.625C199.81 186.292 199.685 185.917 199.685 185.5V100.995C199.685 100.578 199.81 100.244 200.06 99.9945C200.394 99.6611 200.769 99.4944 201.185 99.4944H237.313ZM233.937 138.247C237.354 138.247 240.105 137.289 242.188 135.372C244.355 133.455 245.438 130.955 245.438 127.871C245.438 124.704 244.355 122.163 242.188 120.246C240.105 118.246 237.354 117.246 233.937 117.246H221.062C220.645 117.246 220.437 117.454 220.437 117.871V137.622C220.437 138.039 220.645 138.247 221.062 138.247H233.937ZM351.676 146.622C353.093 150.623 353.802 154.623 353.802 158.623C353.802 162.79 353.051 166.79 351.551 170.624C349.385 175.791 345.759 179.958 340.676 183.125C335.675 186.208 329.883 187.75 323.3 187.75C316.716 187.75 310.924 186.25 305.923 183.25C300.923 180.166 297.298 175.999 295.048 170.749C294.131 168.415 293.464 165.915 293.048 163.248V162.998C293.048 162.082 293.548 161.623 294.548 161.623H312.799C313.549 161.623 314.132 162.04 314.549 162.873C314.632 163.373 314.924 164.04 315.424 164.874C317.008 168.29 319.549 169.999 323.05 169.999C324.8 169.999 326.383 169.582 327.8 168.749C329.217 167.832 330.342 166.54 331.175 164.874C332.092 163.207 332.55 161.123 332.55 158.623C332.55 156.29 332.133 154.29 331.3 152.623C330.717 151.123 329.717 149.956 328.3 149.123C326.966 148.206 325.425 147.748 323.675 147.748C321.758 147.748 319.966 148.206 318.299 149.123C316.633 150.039 315.507 151.206 314.924 152.623C314.674 153.456 314.132 153.873 313.299 153.873H294.673C294.256 153.873 293.881 153.748 293.548 153.498C293.298 153.165 293.173 152.789 293.173 152.373V100.995C293.173 100.578 293.298 100.244 293.548 99.9945C293.881 99.6611 294.256 99.4944 294.673 99.4944H349.426C349.843 99.4944 350.176 99.6611 350.426 99.9945C350.76 100.244 350.926 100.578 350.926 100.995V115.745C350.926 116.162 350.76 116.537 350.426 116.871C350.176 117.121 349.843 117.246 349.426 117.246H314.549C314.132 117.246 313.924 117.454 313.924 117.871V132.497C313.924 132.747 314.007 132.913 314.174 132.997C314.341 133.08 314.507 133.038 314.674 132.872C318.091 130.871 321.966 129.871 326.3 129.871C332.217 129.871 337.425 131.371 341.926 134.372C346.426 137.372 349.676 141.455 351.676 146.622ZM112.254 200.495C112.587 199.828 113.171 199.494 114.004 199.494H131.63C132.047 199.494 132.38 199.661 132.63 199.994C132.964 200.244 133.13 200.578 133.13 200.995V285.5C133.13 285.917 132.964 286.292 132.63 286.625C132.38 286.875 132.047 287 131.63 287H113.879C113.462 287 113.087 286.875 112.754 286.625C112.504 286.292 112.379 285.917 112.379 285.5V235.247C112.379 234.913 112.296 234.747 112.129 234.747C111.962 234.747 111.796 234.872 111.629 235.122L100.878 252.373C100.545 253.04 99.9615 253.373 99.1281 253.373H90.2526C89.4192 253.373 88.8358 253.04 88.5024 252.373L77.6268 234.997C77.4601 234.747 77.2934 234.622 77.1267 234.622C76.96 234.622 76.8767 234.788 76.8767 235.122V285.5C76.8767 285.917 76.71 286.292 76.3767 286.625C76.1267 286.875 75.7933 287 75.3766 287H57.6255C57.2088 287 56.8338 286.875 56.5004 286.625C56.2504 286.292 56.1254 285.917 56.1254 285.5V200.995C56.1254 200.578 56.2504 200.244 56.5004 199.994C56.8338 199.661 57.2088 199.494 57.6255 199.494H75.2516C76.0017 199.494 76.585 199.828 77.0017 200.495L94.3778 227.746C94.6278 228.246 94.8779 228.246 95.1279 227.746L112.254 200.495ZM167.491 286.75C167.074 286.75 166.699 286.625 166.366 286.375C166.116 286.042 165.991 285.667 165.991 285.25V255.623C165.991 255.29 165.949 255.04 165.866 254.873L140.239 201.245C140.072 200.911 139.989 200.661 139.989 200.495C139.989 199.828 140.447 199.494 141.364 199.494H160.615C161.449 199.494 162.032 199.869 162.366 200.62L175.991 232.247C176.241 232.747 176.491 232.747 176.741 232.247L190.492 200.62C190.826 199.869 191.409 199.494 192.242 199.494H211.619C212.202 199.494 212.577 199.661 212.744 199.994C212.994 200.244 212.994 200.661 212.744 201.245L186.742 254.873C186.659 255.04 186.617 255.29 186.617 255.623V285.25C186.617 285.667 186.45 286.042 186.117 286.375C185.867 286.625 185.534 286.75 185.117 286.75H167.491ZM282.969 199.494C283.386 199.494 283.719 199.661 283.969 199.994C284.302 200.244 284.469 200.578 284.469 200.995V215.87C284.469 216.287 284.302 216.662 283.969 216.996C283.719 217.246 283.386 217.371 282.969 217.371H261.093C260.676 217.371 260.467 217.579 260.467 217.996V285.5C260.467 285.917 260.301 286.292 259.967 286.625C259.717 286.875 259.384 287 258.967 287H241.216C240.8 287 240.425 286.875 240.091 286.625C239.841 286.292 239.716 285.917 239.716 285.5V217.996C239.716 217.579 239.508 217.371 239.091 217.371H217.965C217.548 217.371 217.173 217.246 216.84 216.996C216.59 216.662 216.465 216.287 216.465 215.87V200.995C216.465 200.578 216.59 200.244 216.84 199.994C217.173 199.661 217.548 199.494 217.965 199.494H282.969ZM336.328 200.995C336.328 200.578 336.453 200.244 336.703 199.994C337.036 199.661 337.411 199.494 337.828 199.494H355.579C355.996 199.494 356.329 199.661 356.579 199.994C356.912 200.244 357.079 200.578 357.079 200.995V285.5C357.079 285.917 356.912 286.292 356.579 286.625C356.329 286.875 355.996 287 355.579 287H337.828C337.411 287 337.036 286.875 336.703 286.625C336.453 286.292 336.328 285.917 336.328 285.5V252.248C336.328 251.831 336.119 251.623 335.703 251.623H312.326C311.91 251.623 311.701 251.831 311.701 252.248V285.5C311.701 285.917 311.535 286.292 311.201 286.625C310.951 286.875 310.618 287 310.201 287H292.45C292.033 287 291.658 286.875 291.325 286.625C291.075 286.292 290.95 285.917 290.95 285.5V200.995C290.95 200.578 291.075 200.244 291.325 199.994C291.658 199.661 292.033 199.494 292.45 199.494H310.201C310.618 199.494 310.951 199.661 311.201 199.994C311.535 200.244 311.701 200.578 311.701 200.995V233.247C311.701 233.663 311.91 233.872 312.326 233.872H335.703C336.119 233.872 336.328 233.663 336.328 233.247V200.995ZM397.599 288C390.682 288 384.64 286.917 379.473 284.75C374.389 282.5 370.431 279.333 367.597 275.249C364.847 271.082 363.472 266.29 363.472 260.873V258.498C363.472 258.081 363.597 257.748 363.847 257.498C364.18 257.165 364.555 256.998 364.972 256.998H382.348C382.765 256.998 383.098 257.165 383.348 257.498C383.682 257.748 383.848 258.081 383.848 258.498V259.998C383.848 262.748 385.223 265.165 387.974 267.249C390.724 269.249 394.432 270.249 399.099 270.249C402.766 270.249 405.475 269.457 407.225 267.874C408.975 266.29 409.85 264.457 409.85 262.373C409.85 260.707 409.308 259.373 408.225 258.373C407.225 257.29 405.85 256.415 404.1 255.748C402.35 254.998 399.641 253.998 395.974 252.748C395.474 252.498 394.974 252.331 394.474 252.248C393.974 252.081 393.516 251.914 393.099 251.748C387.682 249.998 382.973 248.123 378.973 246.122C374.973 244.039 371.556 241.205 368.722 237.622C365.889 233.955 364.472 229.455 364.472 224.121C364.472 218.954 365.806 214.454 368.472 210.62C371.223 206.703 375.014 203.703 379.848 201.62C384.682 199.536 390.14 198.494 396.224 198.494C402.641 198.494 408.392 199.661 413.475 201.995C418.642 204.328 422.684 207.62 425.601 211.87C428.518 216.12 429.976 220.996 429.976 226.496V228.246C429.976 228.663 429.81 229.038 429.476 229.371C429.226 229.621 428.893 229.746 428.476 229.746H411.1C410.683 229.746 410.308 229.621 409.975 229.371C409.725 229.038 409.6 228.663 409.6 228.246V227.371C409.6 224.454 408.308 221.871 405.725 219.621C403.141 217.371 399.683 216.245 395.349 216.245C392.099 216.245 389.557 216.912 387.724 218.246C385.89 219.579 384.973 221.454 384.973 223.871C384.973 225.704 385.557 227.246 386.724 228.496C387.89 229.663 389.682 230.788 392.099 231.871C394.599 232.872 398.391 234.205 403.475 235.872C409.308 237.872 413.85 239.622 417.1 241.122C420.351 242.622 423.393 245.081 426.226 248.498C429.143 251.831 430.601 256.248 430.601 261.748C430.601 267.165 429.226 271.832 426.476 275.749C423.726 279.666 419.851 282.708 414.85 284.875C409.933 286.958 404.183 288 397.599 288Z"></path>
</g>
<path fill="white" d="M68.4 354C68.1576 354 68 353.879 67.9273 353.636L66.8364 350.073C66.7879 349.976 66.7273 349.927 66.6545 349.927H57.7091C57.6364 349.927 57.5758 349.976 57.5273 350.073L56.4727 353.636C56.4 353.879 56.2424 354 56 354H51.3818C51.2364 354 51.1273 353.964 51.0545 353.891C50.9818 353.794 50.9697 353.661 51.0182 353.491L58.8727 328.909C58.9455 328.667 59.103 328.545 59.3455 328.545H65.0545C65.297 328.545 65.4545 328.667 65.5273 328.909L73.3818 353.491C73.4061 353.539 73.4182 353.6 73.4182 353.673C73.4182 353.891 73.2848 354 73.0182 354H68.4ZM58.8364 345.745C58.8121 345.891 58.8606 345.964 58.9818 345.964H65.3818C65.5273 345.964 65.5758 345.891 65.5273 345.745L62.2545 334.945C62.2303 334.848 62.1939 334.812 62.1455 334.836C62.097 334.836 62.0606 334.873 62.0364 334.945L58.8364 345.745ZM95.3418 340.727C95.1963 340.8 95.1963 340.873 95.3418 340.945C97.6448 342.133 98.7963 344.109 98.7963 346.873C98.7963 349.224 97.9963 351.006 96.3963 352.218C94.7963 353.406 92.6993 354 90.1054 354H80.6872C80.566 354 80.4569 353.964 80.3599 353.891C80.2872 353.794 80.2509 353.685 80.2509 353.564V328.982C80.2509 328.861 80.2872 328.764 80.3599 328.691C80.4569 328.594 80.566 328.545 80.6872 328.545H89.8145C95.5599 328.545 98.4327 330.873 98.4327 335.527C98.4327 337.952 97.4024 339.685 95.3418 340.727ZM85.5599 332.945C85.4387 332.945 85.3781 333.006 85.3781 333.127V338.8C85.3781 338.921 85.4387 338.982 85.5599 338.982H89.8145C90.9539 338.982 91.8387 338.715 92.469 338.182C93.0993 337.648 93.4145 336.921 93.4145 336C93.4145 335.055 93.0993 334.315 92.469 333.782C91.8387 333.224 90.9539 332.945 89.8145 332.945H85.5599ZM90.1054 349.564C91.2206 349.564 92.0933 349.285 92.7236 348.727C93.3539 348.145 93.669 347.358 93.669 346.364C93.669 345.37 93.3539 344.594 92.7236 344.036C92.0933 343.455 91.2084 343.164 90.069 343.164H85.5599C85.4387 343.164 85.3781 343.224 85.3781 343.345V349.382C85.3781 349.503 85.4387 349.564 85.5599 349.564H90.1054ZM115.456 354.4C113.565 354.4 111.892 354.012 110.438 353.236C109.007 352.461 107.892 351.382 107.092 350C106.292 348.594 105.892 346.982 105.892 345.164V337.382C105.892 335.588 106.292 334 107.092 332.618C107.892 331.236 109.007 330.17 110.438 329.418C111.892 328.642 113.565 328.255 115.456 328.255C117.371 328.255 119.044 328.642 120.474 329.418C121.929 330.17 123.056 331.236 123.856 332.618C124.656 334 125.056 335.588 125.056 337.382V345.164C125.056 346.982 124.656 348.594 123.856 350C123.056 351.406 121.929 352.497 120.474 353.273C119.044 354.024 117.371 354.4 115.456 354.4ZM115.456 350C116.789 350 117.868 349.576 118.692 348.727C119.517 347.879 119.929 346.752 119.929 345.345V337.345C119.929 335.939 119.517 334.812 118.692 333.964C117.892 333.091 116.814 332.655 115.456 332.655C114.123 332.655 113.044 333.091 112.22 333.964C111.42 334.812 111.02 335.939 111.02 337.345V345.345C111.02 346.752 111.42 347.879 112.22 348.727C113.044 349.576 114.123 350 115.456 350ZM141.859 354.291C139.993 354.291 138.344 353.927 136.914 353.2C135.508 352.473 134.405 351.455 133.605 350.145C132.829 348.812 132.441 347.285 132.441 345.564V328.982C132.441 328.861 132.478 328.764 132.55 328.691C132.647 328.594 132.756 328.545 132.878 328.545H137.132C137.253 328.545 137.35 328.594 137.423 328.691C137.52 328.764 137.568 328.861 137.568 328.982V345.6C137.568 346.885 137.956 347.927 138.732 348.727C139.532 349.503 140.575 349.891 141.859 349.891C143.144 349.891 144.175 349.503 144.95 348.727C145.75 347.927 146.15 346.885 146.15 345.6V328.982C146.15 328.861 146.187 328.764 146.259 328.691C146.356 328.594 146.465 328.545 146.587 328.545H150.841C150.962 328.545 151.059 328.594 151.132 328.691C151.229 328.764 151.278 328.861 151.278 328.982V345.564C151.278 347.285 150.878 348.812 150.078 350.145C149.302 351.455 148.199 352.473 146.768 353.2C145.362 353.927 143.726 354.291 141.859 354.291ZM176.692 328.545C176.814 328.545 176.911 328.594 176.983 328.691C177.08 328.764 177.129 328.861 177.129 328.982V332.545C177.129 332.667 177.08 332.776 176.983 332.873C176.911 332.945 176.814 332.982 176.692 332.982H170.183C170.062 332.982 170.001 333.042 170.001 333.164V353.564C170.001 353.685 169.953 353.794 169.856 353.891C169.783 353.964 169.686 354 169.565 354H165.311C165.189 354 165.08 353.964 164.983 353.891C164.911 353.794 164.874 353.685 164.874 353.564V333.164C164.874 333.042 164.814 332.982 164.692 332.982H158.365C158.244 332.982 158.135 332.945 158.038 332.873C157.965 332.776 157.929 332.667 157.929 332.545V328.982C157.929 328.861 157.965 328.764 158.038 328.691C158.135 328.594 158.244 328.545 158.365 328.545H176.692ZM205.462 328.509C207.062 328.509 208.468 328.836 209.68 329.491C210.892 330.145 211.825 331.079 212.48 332.291C213.159 333.479 213.498 334.848 213.498 336.4C213.498 337.927 213.146 339.273 212.443 340.436C211.765 341.6 210.795 342.509 209.534 343.164C208.298 343.794 206.868 344.109 205.243 344.109H200.08C199.959 344.109 199.898 344.17 199.898 344.291V353.564C199.898 353.685 199.85 353.794 199.753 353.891C199.68 353.964 199.583 354 199.462 354H195.207C195.086 354 194.977 353.964 194.88 353.891C194.807 353.794 194.771 353.685 194.771 353.564V328.945C194.771 328.824 194.807 328.727 194.88 328.655C194.977 328.558 195.086 328.509 195.207 328.509H205.462ZM204.698 340C205.813 340 206.71 339.685 207.389 339.055C208.068 338.4 208.407 337.552 208.407 336.509C208.407 335.442 208.068 334.582 207.389 333.927C206.71 333.273 205.813 332.945 204.698 332.945H200.08C199.959 332.945 199.898 333.006 199.898 333.127V339.818C199.898 339.939 199.959 340 200.08 340H204.698ZM234.25 354C234.008 354 233.838 353.891 233.741 353.673L229.195 343.6C229.147 343.503 229.074 343.455 228.977 343.455H225.595C225.474 343.455 225.414 343.515 225.414 343.636V353.564C225.414 353.685 225.365 353.794 225.268 353.891C225.195 353.964 225.098 354 224.977 354H220.723C220.602 354 220.492 353.964 220.395 353.891C220.323 353.794 220.286 353.685 220.286 353.564V328.982C220.286 328.861 220.323 328.764 220.395 328.691C220.492 328.594 220.602 328.545 220.723 328.545H231.123C232.674 328.545 234.032 328.861 235.195 329.491C236.383 330.121 237.292 331.018 237.923 332.182C238.577 333.345 238.905 334.691 238.905 336.218C238.905 337.867 238.492 339.285 237.668 340.473C236.844 341.636 235.692 342.461 234.214 342.945C234.092 342.994 234.056 343.079 234.105 343.2L239.05 353.491C239.098 353.588 239.123 353.661 239.123 353.709C239.123 353.903 238.989 354 238.723 354H234.25ZM225.595 332.945C225.474 332.945 225.414 333.006 225.414 333.127V339.345C225.414 339.467 225.474 339.527 225.595 339.527H230.359C231.377 339.527 232.202 339.224 232.832 338.618C233.486 338.012 233.814 337.224 233.814 336.255C233.814 335.285 233.486 334.497 232.832 333.891C232.202 333.261 231.377 332.945 230.359 332.945H225.595ZM246.696 354C246.575 354 246.465 353.964 246.368 353.891C246.296 353.794 246.259 353.685 246.259 353.564V328.982C246.259 328.861 246.296 328.764 246.368 328.691C246.465 328.594 246.575 328.545 246.696 328.545H250.95C251.072 328.545 251.168 328.594 251.241 328.691C251.338 328.764 251.387 328.861 251.387 328.982V353.564C251.387 353.685 251.338 353.794 251.241 353.891C251.168 353.964 251.072 354 250.95 354H246.696ZM268.176 354.291C266.236 354.291 264.539 353.988 263.085 353.382C261.63 352.752 260.503 351.867 259.703 350.727C258.927 349.564 258.539 348.218 258.539 346.691V345.891C258.539 345.77 258.576 345.673 258.648 345.6C258.745 345.503 258.854 345.455 258.976 345.455H263.121C263.242 345.455 263.339 345.503 263.412 345.6C263.509 345.673 263.557 345.77 263.557 345.891V346.436C263.557 347.406 264.006 348.23 264.903 348.909C265.8 349.564 267.012 349.891 268.539 349.891C269.824 349.891 270.782 349.624 271.412 349.091C272.042 348.533 272.357 347.855 272.357 347.055C272.357 346.473 272.163 345.988 271.776 345.6C271.388 345.188 270.854 344.836 270.176 344.545C269.521 344.23 268.466 343.806 267.012 343.273C265.388 342.715 264.006 342.145 262.866 341.564C261.751 340.982 260.806 340.194 260.03 339.2C259.279 338.182 258.903 336.933 258.903 335.455C258.903 334 259.279 332.727 260.03 331.636C260.782 330.545 261.824 329.709 263.157 329.127C264.491 328.545 266.03 328.255 267.776 328.255C269.618 328.255 271.254 328.582 272.685 329.236C274.139 329.891 275.266 330.812 276.066 332C276.891 333.164 277.303 334.521 277.303 336.073V336.618C277.303 336.739 277.254 336.848 277.157 336.945C277.085 337.018 276.988 337.055 276.866 337.055H272.685C272.563 337.055 272.454 337.018 272.357 336.945C272.285 336.848 272.248 336.739 272.248 336.618V336.327C272.248 335.309 271.824 334.448 270.976 333.745C270.151 333.018 269.012 332.655 267.557 332.655C266.418 332.655 265.521 332.897 264.866 333.382C264.236 333.867 263.921 334.533 263.921 335.382C263.921 335.988 264.103 336.497 264.466 336.909C264.854 337.321 265.412 337.697 266.139 338.036C266.891 338.352 268.042 338.788 269.594 339.345C271.315 339.976 272.66 340.533 273.63 341.018C274.624 341.503 275.509 342.23 276.285 343.2C277.085 344.145 277.485 345.382 277.485 346.909C277.485 349.188 276.648 350.994 274.976 352.327C273.303 353.636 271.036 354.291 268.176 354.291ZM301.075 328.836C301.196 328.642 301.366 328.545 301.584 328.545H305.838C305.96 328.545 306.057 328.594 306.129 328.691C306.226 328.764 306.275 328.861 306.275 328.982V353.564C306.275 353.685 306.226 353.794 306.129 353.891C306.057 353.964 305.96 354 305.838 354H301.584C301.463 354 301.353 353.964 301.257 353.891C301.184 353.794 301.147 353.685 301.147 353.564V337.527C301.147 337.43 301.123 337.382 301.075 337.382C301.026 337.382 300.978 337.418 300.929 337.491L297.075 343.527C296.953 343.721 296.784 343.818 296.566 343.818H294.42C294.202 343.818 294.032 343.721 293.911 343.527L290.057 337.491C290.008 337.418 289.96 337.394 289.911 337.418C289.863 337.418 289.838 337.467 289.838 337.564V353.564C289.838 353.685 289.79 353.794 289.693 353.891C289.62 353.964 289.523 354 289.402 354H285.147C285.026 354 284.917 353.964 284.82 353.891C284.747 353.794 284.711 353.685 284.711 353.564V328.982C284.711 328.861 284.747 328.764 284.82 328.691C284.917 328.594 285.026 328.545 285.147 328.545H289.402C289.62 328.545 289.79 328.642 289.911 328.836L295.366 337.309C295.438 337.455 295.511 337.455 295.584 337.309L301.075 328.836ZM330.524 354C330.281 354 330.124 353.879 330.051 353.636L328.96 350.073C328.911 349.976 328.851 349.927 328.778 349.927H319.833C319.76 349.927 319.699 349.976 319.651 350.073L318.596 353.636C318.524 353.879 318.366 354 318.124 354H313.505C313.36 354 313.251 353.964 313.178 353.891C313.105 353.794 313.093 353.661 313.142 353.491L320.996 328.909C321.069 328.667 321.227 328.545 321.469 328.545H327.178C327.421 328.545 327.578 328.667 327.651 328.909L335.505 353.491C335.53 353.539 335.542 353.6 335.542 353.673C335.542 353.891 335.408 354 335.142 354H330.524ZM320.96 345.745C320.936 345.891 320.984 345.964 321.105 345.964H327.505C327.651 345.964 327.699 345.891 327.651 345.745L324.378 334.945C324.354 334.848 324.318 334.812 324.269 334.836C324.221 334.836 324.184 334.873 324.16 334.945L320.96 345.745ZM362.345 354.4C360.454 354.4 358.782 354.012 357.327 353.236C355.897 352.461 354.782 351.382 353.982 350C353.182 348.594 352.782 346.982 352.782 345.164V337.382C352.782 335.588 353.182 334 353.982 332.618C354.782 331.236 355.897 330.17 357.327 329.418C358.782 328.642 360.454 328.255 362.345 328.255C364.26 328.255 365.933 328.642 367.363 329.418C368.818 330.17 369.945 331.236 370.745 332.618C371.545 334 371.945 335.588 371.945 337.382V345.164C371.945 346.982 371.545 348.594 370.745 350C369.945 351.406 368.818 352.497 367.363 353.273C365.933 354.024 364.26 354.4 362.345 354.4ZM362.345 350C363.679 350 364.757 349.576 365.582 348.727C366.406 347.879 366.818 346.752 366.818 345.345V337.345C366.818 335.939 366.406 334.812 365.582 333.964C364.782 333.091 363.703 332.655 362.345 332.655C361.012 332.655 359.933 333.091 359.109 333.964C358.309 334.812 357.909 335.939 357.909 337.345V345.345C357.909 346.752 358.309 347.879 359.109 348.727C359.933 349.576 361.012 350 362.345 350ZM393.476 354C393.233 354 393.064 353.891 392.967 353.673L388.421 343.6C388.373 343.503 388.3 343.455 388.203 343.455H384.821C384.7 343.455 384.639 343.515 384.639 343.636V353.564C384.639 353.685 384.591 353.794 384.494 353.891C384.421 353.964 384.324 354 384.203 354H379.949C379.827 354 379.718 353.964 379.621 353.891C379.549 353.794 379.512 353.685 379.512 353.564V328.982C379.512 328.861 379.549 328.764 379.621 328.691C379.718 328.594 379.827 328.545 379.949 328.545H390.349C391.9 328.545 393.258 328.861 394.421 329.491C395.609 330.121 396.518 331.018 397.149 332.182C397.803 333.345 398.13 334.691 398.13 336.218C398.13 337.867 397.718 339.285 396.894 340.473C396.07 341.636 394.918 342.461 393.439 342.945C393.318 342.994 393.282 343.079 393.33 343.2L398.276 353.491C398.324 353.588 398.349 353.661 398.349 353.709C398.349 353.903 398.215 354 397.949 354H393.476ZM384.821 332.945C384.7 332.945 384.639 333.006 384.639 333.127V339.345C384.639 339.467 384.7 339.527 384.821 339.527H389.585C390.603 339.527 391.427 339.224 392.058 338.618C392.712 338.012 393.039 337.224 393.039 336.255C393.039 335.285 392.712 334.497 392.058 333.891C391.427 333.261 390.603 332.945 389.585 332.945H384.821ZM421.849 328.836C421.97 328.642 422.14 328.545 422.358 328.545H426.612C426.734 328.545 426.831 328.594 426.903 328.691C427 328.764 427.049 328.861 427.049 328.982V353.564C427.049 353.685 427 353.794 426.903 353.891C426.831 353.964 426.734 354 426.612 354H422.358C422.237 354 422.128 353.964 422.031 353.891C421.958 353.794 421.922 353.685 421.922 353.564V337.527C421.922 337.43 421.897 337.382 421.849 337.382C421.8 337.382 421.752 337.418 421.703 337.491L417.849 343.527C417.728 343.721 417.558 343.818 417.34 343.818H415.194C414.976 343.818 414.806 343.721 414.685 343.527L410.831 337.491C410.782 337.418 410.734 337.394 410.685 337.418C410.637 337.418 410.612 337.467 410.612 337.564V353.564C410.612 353.685 410.564 353.794 410.467 353.891C410.394 353.964 410.297 354 410.176 354H405.922C405.8 354 405.691 353.964 405.594 353.891C405.522 353.794 405.485 353.685 405.485 353.564V328.982C405.485 328.861 405.522 328.764 405.594 328.691C405.691 328.594 405.8 328.545 405.922 328.545H410.176C410.394 328.545 410.564 328.642 410.685 328.836L416.14 337.309C416.212 337.455 416.285 337.455 416.358 337.309L421.849 328.836Z"></path>
</g>
<defs>
<filter color-interpolation-filters="sRGB" filterUnits="userSpaceOnUse" height="332.115" width="362.788" y="93.72" x="443.606" id="filter0_ddd_10022_187808">
<feFlood result="BackgroundImageFix" flood-opacity="0"></feFlood>
<feColorMatrix result="hardAlpha" values="0 0 0 0 0 0 0 0 0 0 0 0 0 0 0 0 0 0 127 0" type="matrix" in="SourceAlpha"></feColorMatrix>
<feOffset dy="12.5216"></feOffset>
<feGaussianBlur stdDeviation="7.95119"></feGaussianBlur>
<feColorMatrix values="0 0 0 0 0.286275 0 0 0 0 1 0 0 0 0 0.835294 0 0 0 0.27 0" type="matrix"></feColorMatrix>
<feBlend result="effect1_dropShadow_10022_187808" in2="BackgroundImageFix" mode="normal"></feBlend>
<feColorMatrix result="hardAlpha" values="0 0 0 0 0 0 0 0 0 0 0 0 0 0 0 0 0 0 127 0" type="matrix" in="SourceAlpha"></feColorMatrix>
<feOffset dy="22.3363"></feOffset>
<feGaussianBlur stdDeviation="14.1836"></feGaussianBlur>
<feColorMatrix values="0 0 0 0 0.286275 0 0 0 0 1 0 0 0 0 0.835294 0 0 0 0.321898 0" type="matrix"></feColorMatrix>
<feBlend result="effect2_dropShadow_10022_187808" in2="effect1_dropShadow_10022_187808" mode="normal"></feBlend>
<feColorMatrix result="hardAlpha" values="0 0 0 0 0 0 0 0 0 0 0 0 0 0 0 0 0 0 127 0" type="matrix" in="SourceAlpha"></feColorMatrix>
<feOffset dy="41.7776"></feOffset>
<feGaussianBlur stdDeviation="26.5288"></feGaussianBlur>
<feColorMatrix values="0 0 0 0 0.286275 0 0 0 0 1 0 0 0 0 0.835294 0 0 0 0.388181 0" type="matrix"></feColorMatrix>
<feBlend result="effect3_dropShadow_10022_187808" in2="effect2_dropShadow_10022_187808" mode="normal"></feBlend>
<feBlend result="shape" in2="effect3_dropShadow_10022_187808" in="SourceGraphic" mode="normal"></feBlend>
</filter>
<filter color-interpolation-filters="sRGB" filterUnits="userSpaceOnUse" height="263.805" width="294.486" y="98.6192" x="477.757" id="filter1_dd_10022_187808">
<feFlood result="BackgroundImageFix" flood-opacity="0"></feFlood>
<feColorMatrix result="hardAlpha" values="0 0 0 0 0 0 0 0 0 0 0 0 0 0 0 0 0 0 127 0" type="matrix" in="SourceAlpha"></feColorMatrix>
<feOffset dy="6.6501"></feOffset>
<feGaussianBlur stdDeviation="4.22282"></feGaussianBlur>
<feColorMatrix values="0 0 0 0 0.286275 0 0 0 0 1 0 0 0 0 0.835294 0 0 0 0.218102 0" type="matrix"></feColorMatrix>
<feBlend result="effect1_dropShadow_10022_187808" in2="BackgroundImageFix" mode="normal"></feBlend>
<feColorMatrix result="hardAlpha" values="0 0 0 0 0 0 0 0 0 0 0 0 0 0 0 0 0 0 127 0" type="matrix" in="SourceAlpha"></feColorMatrix>
<feOffset dy="12.5216"></feOffset>
<feGaussianBlur stdDeviation="7.95119"></feGaussianBlur>
<feColorMatrix values="0 0 0 0 0.286275 0 0 0 0 1 0 0 0 0 0.835294 0 0 0 0.27 0" type="matrix"></feColorMatrix>
<feBlend result="effect2_dropShadow_10022_187808" in2="effect1_dropShadow_10022_187808" mode="normal"></feBlend>
<feBlend result="shape" in2="effect2_dropShadow_10022_187808" in="SourceGraphic" mode="normal"></feBlend>
</filter>
<filter color-interpolation-filters="sRGB" filterUnits="userSpaceOnUse" height="304.789" width="319.418" y="73.8359" x="465.234" id="filter2_dddddd_10022_187808">
<feFlood result="BackgroundImageFix" flood-opacity="0"></feFlood>
<feColorMatrix result="hardAlpha" values="0 0 0 0 0 0 0 0 0 0 0 0 0 0 0 0 0 0 127 0" type="matrix" in="SourceAlpha"></feColorMatrix>
<feOffset></feOffset>
<feGaussianBlur stdDeviation="1.75721"></feGaussianBlur>
<feColorMatrix values="0 0 0 0 0.286275 0 0 0 0 1 0 0 0 0 0.835294 0 0 0 0.151819 0" type="matrix"></feColorMatrix>
<feBlend result="effect1_dropShadow_10022_187808" in2="BackgroundImageFix" mode="normal"></feBlend>
<feColorMatrix result="hardAlpha" values="0 0 0 0 0 0 0 0 0 0 0 0 0 0 0 0 0 0 127 0" type="matrix" in="SourceAlpha"></feColorMatrix>
<feOffset></feOffset>
<feGaussianBlur stdDeviation="4.22282"></feGaussianBlur>
<feColorMatrix values="0 0 0 0 0.286275 0 0 0 0 1 0 0 0 0 0.835294 0 0 0 0.218102 0" type="matrix"></feColorMatrix>
<feBlend result="effect2_dropShadow_10022_187808" in2="effect1_dropShadow_10022_187808" mode="normal"></feBlend>
<feColorMatrix result="hardAlpha" values="0 0 0 0 0 0 0 0 0 0 0 0 0 0 0 0 0 0 127 0" type="matrix" in="SourceAlpha"></feColorMatrix>
<feOffset></feOffset>
<feGaussianBlur stdDeviation="7.95119"></feGaussianBlur>
<feColorMatrix values="0 0 0 0 0.286275 0 0 0 0 1 0 0 0 0 0.835294 0 0 0 0.27 0" type="matrix"></feColorMatrix>
<feBlend result="effect3_dropShadow_10022_187808" in2="effect2_dropShadow_10022_187808" mode="normal"></feBlend>
<feColorMatrix result="hardAlpha" values="0 0 0 0 0 0 0 0 0 0 0 0 0 0 0 0 0 0 127 0" type="matrix" in="SourceAlpha"></feColorMatrix>
<feOffset></feOffset>
<feGaussianBlur stdDeviation="14.1836"></feGaussianBlur>
<feColorMatrix values="0 0 0 0 0.286275 0 0 0 0 1 0 0 0 0 0.835294 0 0 0 0.321898 0" type="matrix"></feColorMatrix>
<feBlend result="effect4_dropShadow_10022_187808" in2="effect3_dropShadow_10022_187808" mode="normal"></feBlend>
<feColorMatrix result="hardAlpha" values="0 0 0 0 0 0 0 0 0 0 0 0 0 0 0 0 0 0 127 0" type="matrix" in="SourceAlpha"></feColorMatrix>
<feOffset></feOffset>
<feGaussianBlur stdDeviation="26.5288"></feGaussianBlur>
<feColorMatrix values="0 0 0 0 0.286275 0 0 0 0 1 0 0 0 0 0.835294 0 0 0 0.388181 0" type="matrix"></feColorMatrix>
<feBlend result="effect5_dropShadow_10022_187808" in2="effect4_dropShadow_10022_187808" mode="normal"></feBlend>
<feColorMatrix result="hardAlpha" values="0 0 0 0 0 0 0 0 0 0 0 0 0 0 0 0 0 0 127 0" type="matrix" in="SourceAlpha"></feColorMatrix>
<feOffset></feOffset>
<feGaussianBlur stdDeviation="63.5"></feGaussianBlur>
<feColorMatrix values="0 0 0 0 0.286275 0 0 0 0 1 0 0 0 0 0.835294 0 0 0 0.54 0" type="matrix"></feColorMatrix>
<feBlend result="effect6_dropShadow_10022_187808" in2="effect5_dropShadow_10022_187808" mode="normal"></feBlend>
<feBlend result="shape" in2="effect6_dropShadow_10022_187808" in="SourceGraphic" mode="normal"></feBlend>
</filter>
<filter color-interpolation-filters="sRGB" filterUnits="userSpaceOnUse" height="77.1891" width="91.818" y="187.636" x="579.034" id="filter3_d_10022_187808">
<feFlood result="BackgroundImageFix" flood-opacity="0"></feFlood>
<feColorMatrix result="hardAlpha" values="0 0 0 0 0 0 0 0 0 0 0 0 0 0 0 0 0 0 127 0" type="matrix" in="SourceAlpha"></feColorMatrix>
<feOffset></feOffset>
<feGaussianBlur stdDeviation="6.6"></feGaussianBlur>
<feComposite operator="out" in2="hardAlpha"></feComposite>
<feColorMatrix values="0 0 0 0 0.010739 0 0 0 0 0.0116376 0 0 0 0 0.0287109 0 0 0 0.73 0" type="matrix"></feColorMatrix>
<feBlend result="effect1_dropShadow_10022_187808" in2="BackgroundImageFix" mode="normal"></feBlend>
<feBlend result="shape" in2="effect1_dropShadow_10022_187808" in="SourceGraphic" mode="normal"></feBlend>
</filter>
<filter color-interpolation-filters="sRGB" filterUnits="userSpaceOnUse" height="407.529" width="571.523" y="98.4922" x="-44.0233" id="filter4_dddddd_10022_187808">
<feFlood result="BackgroundImageFix" flood-opacity="0"></feFlood>
<feColorMatrix result="hardAlpha" values="0 0 0 0 0 0 0 0 0 0 0 0 0 0 0 0 0 0 127 0" type="matrix" in="SourceAlpha"></feColorMatrix>
<feOffset dy="3.35178"></feOffset>
<feGaussianBlur stdDeviation="1.34071"></feGaussianBlur>
<feColorMatrix values="0 0 0 0 0.0156863 0 0 0 0 0.0705882 0 0 0 0 0.0823529 0 0 0 0.098401 0" type="matrix"></feColorMatrix>
<feBlend result="effect1_dropShadow_10022_187808" in2="BackgroundImageFix" mode="normal"></feBlend>
<feColorMatrix result="hardAlpha" values="0 0 0 0 0 0 0 0 0 0 0 0 0 0 0 0 0 0 127 0" type="matrix" in="SourceAlpha"></feColorMatrix>
<feOffset dy="8.05479"></feOffset>
<feGaussianBlur stdDeviation="3.22192"></feGaussianBlur>
<feColorMatrix values="0 0 0 0 0.0156863 0 0 0 0 0.0705882 0 0 0 0 0.0823529 0 0 0 0.141362 0" type="matrix"></feColorMatrix>
<feBlend result="effect2_dropShadow_10022_187808" in2="effect1_dropShadow_10022_187808" mode="normal"></feBlend>
<feColorMatrix result="hardAlpha" values="0 0 0 0 0 0 0 0 0 0 0 0 0 0 0 0 0 0 127 0" type="matrix" in="SourceAlpha"></feColorMatrix>
<feOffset dy="15.1665"></feOffset>
<feGaussianBlur stdDeviation="6.06658"></feGaussianBlur>
<feColorMatrix values="0 0 0 0 0.0156863 0 0 0 0 0.0705882 0 0 0 0 0.0823529 0 0 0 0.175 0" type="matrix"></feColorMatrix>
<feBlend result="effect3_dropShadow_10022_187808" in2="effect2_dropShadow_10022_187808" mode="normal"></feBlend>
<feColorMatrix result="hardAlpha" values="0 0 0 0 0 0 0 0 0 0 0 0 0 0 0 0 0 0 127 0" type="matrix" in="SourceAlpha"></feColorMatrix>
<feOffset dy="27.0544"></feOffset>
<feGaussianBlur stdDeviation="10.8218"></feGaussianBlur>
<feColorMatrix values="0 0 0 0 0.0156863 0 0 0 0 0.0705882 0 0 0 0 0.0823529 0 0 0 0.208638 0" type="matrix"></feColorMatrix>
<feBlend result="effect4_dropShadow_10022_187808" in2="effect3_dropShadow_10022_187808" mode="normal"></feBlend>
<feColorMatrix result="hardAlpha" values="0 0 0 0 0 0 0 0 0 0 0 0 0 0 0 0 0 0 127 0" type="matrix" in="SourceAlpha"></feColorMatrix>
<feOffset dy="50.6022"></feOffset>
<feGaussianBlur stdDeviation="20.2409"></feGaussianBlur>
<feColorMatrix values="0 0 0 0 0.0156863 0 0 0 0 0.0705882 0 0 0 0 0.0823529 0 0 0 0.251599 0" type="matrix"></feColorMatrix>
<feBlend result="effect5_dropShadow_10022_187808" in2="effect4_dropShadow_10022_187808" mode="normal"></feBlend>
<feColorMatrix result="hardAlpha" values="0 0 0 0 0 0 0 0 0 0 0 0 0 0 0 0 0 0 127 0" type="matrix" in="SourceAlpha"></feColorMatrix>
<feOffset dy="121.123"></feOffset>
<feGaussianBlur stdDeviation="48.4491"></feGaussianBlur>
<feColorMatrix values="0 0 0 0 0.0156863 0 0 0 0 0.0705882 0 0 0 0 0.0823529 0 0 0 0.35 0" type="matrix"></feColorMatrix>
<feBlend result="effect6_dropShadow_10022_187808" in2="effect5_dropShadow_10022_187808" mode="normal"></feBlend>
<feBlend result="shape" in2="effect6_dropShadow_10022_187808" in="SourceGraphic" mode="normal"></feBlend>
</filter>
<linearGradient gradientUnits="userSpaceOnUse" y2="474" x2="422" y1="0" x1="422" id="paint0_linear_10022_187808">
<stop stop-color="#090A15"></stop>
<stop stop-color="#0D3A38" offset="0.955752"></stop>
</linearGradient>
<radialGradient gradientTransform="translate(422 355.876) rotate(90) scale(529.676 495.147)" gradientUnits="userSpaceOnUse" r="1" cy="0" cx="0" id="paint1_radial_10022_187808">
<stop stop-opacity="0.11" stop-color="#71E8DF"></stop>
<stop stop-opacity="0" stop-color="#71E8DF" offset="1"></stop>
</radialGradient>
<radialGradient gradientTransform="translate(422 320.89) rotate(90) scale(229.1 407.933)" gradientUnits="userSpaceOnUse" r="1" cy="0" cx="0" id="paint2_radial_10022_187808">
<stop stop-color="#71E8DF"></stop>
<stop stop-opacity="0" stop-color="#71E8DF" offset="1"></stop>
</radialGradient>
<linearGradient gradientUnits="userSpaceOnUse" y2="411" x2="625" y1="91" x1="625" id="paint3_linear_10022_187808">
<stop stop-color="#92EFE6"></stop>
<stop stop-opacity="0" stop-color="#92EFE6" offset="1"></stop>
</linearGradient>
<clipPath id="clip0_10022_187808">
<rect fill="white" height="474" width="844"></rect>
</clipPath>
</defs>
</svg>
