<svg xmlns:xlink="http://www.w3.org/1999/xlink" xmlns="http://www.w3.org/2000/svg" width="844" viewBox="0 0 844 475" height="475" fill="none"><filter y="156.363" x="83.8108" width="339.846" height="181.816" filterUnits="userSpaceOnUse" color-interpolation-filters="sRGB" id="a"><feFlood result="BackgroundImageFix" flood-opacity="0"></feFlood><feColorMatrix values="0 0 0 0 0 0 0 0 0 0 0 0 0 0 0 0 0 0 127 0" type="matrix" result="hardAlpha" in="SourceAlpha"></feColorMatrix><feMorphology result="effect1_dropShadow_8338_5495" radius="15.3964" operator="dilate" in="SourceAlpha"></feMorphology><feOffset dy="15.3964"></feOffset><feGaussianBlur stdDeviation="15.3964"></feGaussianBlur><feComposite operator="out" in2="hardAlpha"></feComposite><feColorMatrix values="0 0 0 0 0 0 0 0 0 0 0 0 0 0 0 0 0 0 0.05 0" type="matrix"></feColorMatrix><feBlend result="effect1_dropShadow_8338_5495" mode="normal" in2="BackgroundImageFix"></feBlend><feBlend result="shape" mode="normal" in2="effect1_dropShadow_8338_5495" in="SourceGraphic"></feBlend></filter><filter y="156.207" x="419.849" width="340.378" height="182.378" filterUnits="userSpaceOnUse" color-interpolation-filters="sRGB" id="b"><feFlood result="BackgroundImageFix" flood-opacity="0"></feFlood><feColorMatrix values="0 0 0 0 0 0 0 0 0 0 0 0 0 0 0 0 0 0 127 0" type="matrix" result="hardAlpha" in="SourceAlpha"></feColorMatrix><feMorphology result="effect1_dropShadow_8338_5495" radius="15.3964" operator="dilate" in="SourceAlpha"></feMorphology><feOffset dy="15.3964"></feOffset><feGaussianBlur stdDeviation="15.3964"></feGaussianBlur><feComposite operator="out" in2="hardAlpha"></feComposite><feColorMatrix values="0 0 0 0 0 0 0 0 0 0 0 0 0 0 0 0 0 0 0.05 0" type="matrix"></feColorMatrix><feBlend result="effect1_dropShadow_8338_5495" mode="normal" in2="BackgroundImageFix"></feBlend><feBlend result="shape" mode="normal" in2="effect1_dropShadow_8338_5495" in="SourceGraphic"></feBlend></filter><filter y="185.172" x="373.222" width="97.0566" height="106.677" filterUnits="userSpaceOnUse" color-interpolation-filters="sRGB" id="c"><feFlood result="BackgroundImageFix" flood-opacity="0"></feFlood><feColorMatrix values="0 0 0 0 0 0 0 0 0 0 0 0 0 0 0 0 0 0 127 0" type="matrix" result="hardAlpha" in="SourceAlpha"></feColorMatrix><feOffset dy="12.3719"></feOffset><feGaussianBlur stdDeviation="14.4339"></feGaussianBlur><feColorMatrix values="0 0 0 0 0.0901961 0 0 0 0 0.168627 0 0 0 0 0.301961 0 0 0 0.08 0" type="matrix"></feColorMatrix><feBlend result="effect1_dropShadow_8338_5495" mode="normal" in2="BackgroundImageFix"></feBlend><feColorMatrix values="0 0 0 0 0 0 0 0 0 0 0 0 0 0 0 0 0 0 127 0" type="matrix" result="hardAlpha" in="SourceAlpha"></feColorMatrix><feOffset dy="2.74932"></feOffset><feGaussianBlur stdDeviation="8.93529"></feGaussianBlur><feColorMatrix values="0 0 0 0 0.0901961 0 0 0 0 0.168627 0 0 0 0 0.301961 0 0 0 0.05 0" type="matrix"></feColorMatrix><feBlend result="effect2_dropShadow_8338_5495" mode="normal" in2="effect1_dropShadow_8338_5495"></feBlend><feColorMatrix values="0 0 0 0 0 0 0 0 0 0 0 0 0 0 0 0 0 0 127 0" type="matrix" result="hardAlpha" in="SourceAlpha"></feColorMatrix><feOffset></feOffset><feGaussianBlur stdDeviation="15.8086"></feGaussianBlur><feComposite operator="out" in2="hardAlpha"></feComposite><feColorMatrix values="0 0 0 0 0.0901961 0 0 0 0 0.168627 0 0 0 0 0.301961 0 0 0 0.01 0" type="matrix"></feColorMatrix><feBlend result="effect3_dropShadow_8338_5495" mode="normal" in2="effect2_dropShadow_8338_5495"></feBlend><feBlend result="shape" mode="normal" in2="effect3_dropShadow_8338_5495" in="SourceGraphic"></feBlend></filter><linearGradient y2="474" y1="0" x2="422" x1="422" gradientUnits="userSpaceOnUse" id="d"><stop stop-color="#5a67d8" offset="0"></stop><stop stop-color="#667eea" offset="1"></stop></linearGradient><linearGradient y2="430.682" y1="34.8594" x2="422.27" x1="422.27" gradientUnits="userSpaceOnUse" id="e"><stop stop-color="#e2e8f0" offset="0"></stop><stop stop-opacity="0" stop-color="#e2e8f0" offset="1"></stop></linearGradient><clipPath id="f"><path d="m0 .210938h844v474h-844z"></path></clipPath><clipPath id="g"><path d="m521.039 214.625h138v34.5265h-138z"></path></clipPath><g clip-path="url(#f)"><path transform="translate(0 .210938)" fill="url(#d)" d="m0 0h844v474h-844z"></path><path stroke-width="1.40879" stroke-opacity=".12" stroke-miterlimit="10" stroke="url(#e)" d="m653.129 91.7403c-10.73-6.9915-21.726-13.5553-32.981-19.6584-10.205-5.4945-20.616-10.5778-31.227-15.2003m64.208 34.8587c2.153-1.9247 4.387-3.7837 6.801-5.3794 1.538-1.0035 3.137-1.9083 4.876-2.5334-11.959-5.2477-24.102-10.0841-36.399-14.4929-13.009-4.6061-26.182-8.7681-39.486-12.453m64.208 34.8587c-14.356-5.0997-28.896-9.6566-43.584-13.7034-15.547-4.2278-31.227-7.8797-47.034-11.0053 4.692-2.6157 9.516-4.9681 14.542-6.8599 3.861-1.4312 7.813-2.5828 11.868-3.2901m-26.413 10.1573c-10.195-5.7779-20.614-11.1252-31.292-15.9595m31.292 15.9595c4.693-2.6158 9.517-4.9667 14.542-6.8705 3.855-1.4238 7.813-2.5661 11.868-3.278-13.941-3.8244-28.001-7.152-42.17-9.983-14.668-2.8972-29.436-5.2813-44.273-7.1521m60.033 27.2836c-16.485-3.2118-33.075-5.8276-49.748-7.897-17.129-2.0529-34.32-3.5429-51.554-4.4369 7.2-3.6091 14.578-6.854 22.163-9.5691 6.252-2.2019 12.616-4.0395 19.106-5.3806m28.741 11.3241c-9.398-4.2216-18.981-8.0129-28.741-11.3241m28.741 11.3241c-9.406-4.2216-18.981-8.0129-28.741-11.3241m-91.942-4.7763c-15.377.3317-30.732 1.1776-46.051 2.5541-15.062 1.4097-30.069 3.3169-44.998 5.7548 5.838 1.1278 11.56 2.7367 17.175 4.6937 6.913 2.438 13.62 5.4067 20.165 8.7071 9.223-4.8262 18.656-9.2544 28.321-13.1353m25.388-8.5744c-8.622 2.3882-17.079 5.274-25.388 8.5744m25.388-8.5744c8.087 2.0731 16.027 4.6438 23.828 7.6125 9.167 3.5492 18.107 7.629 26.844 12.107-17.434-.8624-34.882-1.1444-52.337-.8293-17.376.3649-34.735 1.2936-52.046 2.8195 9.225-4.8262 18.658-9.2544 28.323-13.1353m-127.369 29.1494c-3.973-2.3974-8.077-4.58-12.378-6.3326-3.198-1.2896-6.485-2.3147-9.876-2.943 13.451-4.2823 27.046-8.0685 40.764-11.3918 14.294-3.4225 28.701-6.3325 43.199-8.7465m-61.709 29.4139c10.434-6.1341 21.104-11.8383 32.034-17.0299 9.706-4.5634 19.595-8.7134 29.675-12.384m-61.709 29.4139c16.005-3.7863 32.133-6.9939 48.362-9.6559 16.82-2.695 33.723-4.8114 50.687-6.349-6.545-3.3068-13.253-6.2829-20.168-8.7299-5.612-1.951-11.335-3.5548-17.172-4.6791m-61.709 29.4139c10.434-6.1341 21.104-11.8383 32.035-17.0299 9.706-4.5634 19.594-8.7134 29.674-12.384m-148.403 56.9051c-1.54-1.7885-3.123-3.5607-4.837-5.2018-.978-.9354-1.999-1.8215-3.151-2.5436 11.346-5.5303 22.885-10.6669 34.591-15.3931 12.448-5.0052 25.07-9.5344 37.838-13.637m-64.441 36.7755c10.725-7.2696 21.712-14.1456 32.976-20.562 10.275-5.8093 20.762-11.2411 31.465-16.2135m-64.441 36.7755c13.633-5.4973 27.469-10.4695 41.472-14.966 14.92-4.7262 30.005-8.8945 45.224-12.5376-3.975-2.3959-8.08-4.5784-12.38-6.3344-3.197-1.28-6.486-2.3139-9.875-2.9375m-64.441 36.7755c10.725-7.2696 21.712-14.1456 32.977-20.562 10.274-5.8093 20.761-11.2411 31.464-16.2135m-64.444 36.7855c2.45 2.881 4.782 5.859 7.073 8.869 3.37 4.451 6.638 8.966 9.859 13.53-15.27 4.613-30.375 9.76-45.264 15.489-13.598 5.276-26.995 11.054-40.138 17.383m68.47-55.271c-11.662 7.979-22.993 16.411-34.012 25.248-11.861 9.581-23.337 19.6-34.458 30.023m68.47-55.271c-12.65 5.163-25.106 10.763-37.328 16.864-11.235 5.649-22.254 11.702-33.023 18.192-.294 2.719-.225 5.47-.005 8.189.353 4.047 1.049 8.06 1.886 12.026m68.47-55.271c-11.662 7.979-22.994 16.411-34.013 25.248-11.86 9.581-23.336 19.6-34.457 30.023m155.164-82.7698c5.333 3.2543 10.411 6.9012 15.339 10.7442 6.471 5.0696 12.665 10.4988 18.692 16.0917-18.061 2.7639-36.023 6.0839-53.859 10.0409-16.792 3.778-33.449 8.095-49.936 13.034m69.764-49.9108c-11.674 6.9175-23.026 14.342-34.088 22.1916m34.088-22.1916c-15.22 3.6468-30.305 7.817-45.224 12.5431-14.003 4.4809-27.839 9.4523-41.472 14.9637 2.452 2.878 4.786 5.854 7.075 8.863 3.369 4.448 6.637 8.978 9.857 13.541m0 0c11.543-9.681 23.42-18.954 35.676-27.7192m-35.676 27.7192c11.541-9.681 23.42-18.954 35.676-27.7192m133.14-38.2083c8.062 4.1294 15.846 8.7523 23.422 13.7043 9.243 6.1036 18.159 12.6678 26.833 19.5446m-50.255-33.2489c-10.685 5.6594-21.065 11.8617-31.186 18.4589-11.619 7.65-22.877 15.8265-33.833 24.3814m65.019-42.8403c-16.965 1.5465-33.868 3.6688-50.688 6.3669-16.229 2.6487-32.358 5.8567-48.362 9.6406 5.333 3.2574 10.413 6.8932 15.341 10.7429 6.469 5.0836 12.664 10.4964 18.69 16.0899m65.019-42.8403c-10.685 5.6594-21.065 11.8617-31.188 18.4589-11.619 7.65-22.875 15.8265-33.831 24.3814m115.274-9.5914c-19.529.3619-39.028 1.3491-58.493 2.9449-18.995 1.6122-37.929 3.8168-56.781 6.6465m115.274-9.5914c-8.672-6.8849-17.589-13.4408-26.832-19.535-7.575-4.9578-15.36-9.5861-23.423-13.7203 17.311-1.5153 34.671-2.4541 52.045-2.8165 17.456-.3129 34.905-.0329 52.339.8236-8.732 4.4307-17.174 9.3719-25.403 14.6755-9.887 6.4072-19.432 13.3255-28.726 20.5727zm54.128-35.239c10.241 5.3014 20.18 11.1626 29.873 17.4024 11.247 7.31 22.14 15.1467 32.744 23.3622m-62.617-40.7646c-8.731 4.4288-17.175 9.3679-25.404 14.6693-9.886 6.4209-19.432 13.3194-28.725 20.5635 19.631-.3128 39.255-.033 58.865.8726 19.343.9384 38.641 2.486 57.881 4.6592m-62.617-40.7646c17.234.9055 34.43 2.3873 51.561 4.4453 16.665 2.0744 33.256 4.6922 49.742 7.9027-6.105 3.4409-11.952 7.3264-17.634 11.4424-7.281 5.3343-14.259 11.0307-21.052 16.9742m38.686-28.4264c11.507 6.5881 22.696 13.6842 33.603 21.2228 12.195 8.4727 24.012 17.4696 35.504 26.8766m-69.107-48.0994c-6.105 3.4579-11.95 7.3256-17.625 11.4555-7.282 5.3261-14.267 11.0292-21.061 16.9618 18.619 2.1468 37.162 4.8831 55.595 8.2271 17.523 3.244 34.934 7.03 52.198 11.455m-69.107-48.0994c15.806 3.1302 31.494 6.7848 47.034 11.0129 14.688 4.0479 29.229 8.5874 43.592 13.7005-3.241 2.9335-6.298 6.0637-9.273 9.259-4.231 4.589-8.28 9.325-12.246 14.127m21.519-23.3869c11.749 7.7124 23.182 15.8959 34.297 24.5009 12.061 9.401 23.738 19.257 35.053 29.518m-69.35-54.0189c-3.241 2.9388-6.297 6.0563-9.272 9.2549-4.227 4.595-8.281 9.32-12.255 14.142 16.132 4.173 32.107 8.881 47.898 14.207 14.527 4.936 28.874 10.392 42.979 16.415m-69.35-54.0189c11.749 7.7124 23.182 15.8959 34.305 24.5009 12.053 9.401 23.73 19.257 35.045 29.518m-69.35-54.0189c13.401 4.806 26.623 10.0989 39.625 15.8959 12.017 5.39 23.82 11.236 35.385 17.535-.383 2.793-1.02 5.537-1.754 8.265-1.123 4.156-2.471 8.248-3.906 12.323m5.657-20.587c11.13 8.545 21.933 17.491 32.412 26.821 11.085 9.908 21.785 20.232 32.129 30.925m-64.541-57.746c-.377 2.79-1.021 5.547-1.752 8.273-1.126 4.152-2.472 8.256-3.907 12.328 12.814 5.515 25.418 11.511 37.745 18.035 11.077 5.932 21.91 12.281 32.455 19.11m-64.541-57.746c11.13 8.545 21.932 17.491 32.419 26.821 11.077 9.908 21.778 20.232 32.122 30.925m-64.541-57.746c10.59 5.82 20.964 12.008 31.079 18.629 9.206 6.06 18.181 12.441 26.906 19.174 1.584 2.645 2.849 5.45 3.862 8.368 1.273 3.752 2.125 7.647 2.694 11.575m60.708 73.014c-9.404-13.075-19.245-25.836-29.54-38.236-9.981-11.947-20.371-23.564-31.175-34.788m60.715 73.024c-1.116-6.396-2.611-12.73-4.594-18.938-1.673-5.095-3.67-10.096-6.053-14.909-7.275-6.867-14.852-13.388-22.695-19.581-8.828-6.945-17.967-13.451-27.373-19.596m60.715 73.024c-8.916-6.631-18.181-12.777-27.696-18.53-10.945-6.553-22.199-12.573-33.683-18.139.865-6.851 1.456-13.749 1.559-20.663.052-5.251-.177-10.488-.895-15.692m-.665 36.35c-11.026-13.392-22.488-26.434-34.408-39.047-11.3-11.897-22.999-23.397-35.12-34.451m69.528 73.498c.865-6.855 1.457-13.742 1.56-20.661.053-5.248-.176-10.497-.894-15.682-10.537-6.839-21.371-13.186-32.448-19.102-12.328-6.537-24.93-12.534-37.746-18.053m69.528 73.498c-13.075-6.282-26.417-11.992-39.952-17.209-15.198-5.821-30.62-11.038-46.203-15.746 3.433-7.698 6.786-15.413 9.975-23.206 2.33-5.742 4.587-11.5 6.652-17.337m-16.625 40.53c-12.046-13.229-24.508-26.055-37.42-38.447m37.42 38.447c3.433-7.677 6.778-15.417 9.976-23.206 2.33-5.73 4.587-11.491 6.651-17.333-14.111-6.019-28.451-11.474-42.978-16.415-15.79-5.327-31.767-10.026-47.898-14.21m74.249 71.164c-12.046-13.213-24.508-26.055-37.42-38.447m37.42 38.447c-17.212-5.15-34.594-9.672-52.11-13.679-18.988-4.281-38.101-7.95-57.311-11.072 6.386-8.916 12.861-17.767 19.491-26.506 5.114-6.711 10.315-13.373 15.681-19.907m36.829 32.717c-11.892-11.329-24.147-22.273-36.829-32.717m0 0c-17.256-4.41-34.668-8.22-52.192-11.447-18.431-3.356-36.976-6.0959-55.593-8.2362m107.785 19.6832c-5.366 6.534-10.568 13.182-15.688 19.911-6.622 8.739-13.097 17.592-19.484 26.51m0 0c-12.061-12.501-24.478-24.661-37.316-36.352-11.419-10.328-23.162-20.283-35.297-29.7522m72.613 66.1042c-12.061-12.501-24.479-24.661-37.324-36.352-11.411-10.328-23.154-20.283-35.289-29.7522m72.613 66.1042c-20.408-3.259-40.906-5.902-61.462-7.977-21.371-2.108-42.793-3.616-64.245-4.524 9.213-10.328 18.647-20.462 28.4-30.288 7.993-8.026 16.184-15.841 24.694-23.3152m-116.75-5.5117c-19.528.3737-39.028 1.3486-58.491 2.9571-18.995 1.6085-37.929 3.8181-56.781 6.6452 7.693 7.1816 15.103 14.6716 22.337 22.3086 8.958 9.521 17.636 19.302 26.13 29.229 11.285-11.682 22.875-23.072 34.862-34.039 10.337-9.391 20.954-18.4734 31.943-27.1009zm0 0c10.404 8.3026 20.446 17.0439 30.23 26.0609 11.483 10.659 22.597 21.724 33.424 33.065-21.808-.894-43.637-1.17-65.459-.845-21.689.357-43.363 1.316-65.002 2.859 11.287-11.682 22.878-23.072 34.87-34.039 10.331-9.391 20.948-18.4734 31.937-27.1009zm-189.054 77.3179c-5.561-8.548-11.173-17.063-16.865-25.53-4.321-6.411-8.689-12.805-13.146-19.119 16.486-4.937 33.144-9.244 49.933-13.032 17.838-3.95 35.801-7.269 53.86-10.0368m-73.782 67.7178c12.176-12.741 24.724-25.125 37.711-37.056 11.663-10.636 23.663-20.9 36.071-30.6618m-73.782 67.7178c19.68-3.837 39.469-7.058 59.343-9.713 20.904-2.752 41.88-4.889 62.906-6.46-8.494-9.94-17.175-19.701-26.134-29.22-7.232-7.658-14.641-15.137-22.333-22.3248m-73.782 67.7178c12.176-12.741 24.725-25.125 37.714-37.056 11.66-10.636 23.66-20.9 36.068-30.6618m-177.3 95.1608c-2.677-7.414-5.219-14.892-7.496-22.434-1.66-5.552-3.178-11.137-4.398-16.786 13.144-6.338 26.541-12.115 40.137-17.395 14.89-5.729 29.993-10.864 45.265-15.486m-73.508 72.101c11.856-13.335 24.129-26.285 36.86-38.77 11.823-11.538 24.024-22.675 36.648-33.331m-73.508 72.101c16.135-5.552 32.466-10.479 48.944-14.892 18.053-4.766 36.257-8.938 54.576-12.549-5.562-8.553-11.172-17.074-16.866-25.547-4.321-6.403-8.689-12.79-13.146-19.113m-73.508 72.101c11.856-13.335 24.13-26.285 36.862-38.77 11.822-11.538 24.022-22.675 36.646-33.331m-152.8167 106.513c-.2598-6.703-.2012-13.422.3804-20.108.4817-5.198 1.2803-10.348 2.5639-15.402 9.5889-6.909 19.4852-13.374 29.6335-19.427 11.3447-6.719 22.9778-12.93 34.8379-18.698m-67.4157 73.635c10.6237-13.358 21.6863-26.367 33.2069-38.965 10.9961-11.947 22.3899-23.53 34.2088-34.67m-67.4157 73.635c11.9073-6.449 24.1013-12.344 36.5046-17.795 14.0465-6.1 28.3351-11.599 42.8041-16.622-2.679-7.416-5.222-14.879-7.501-22.422-1.657-5.546-3.174-11.139-4.392-16.796m-67.4157 73.635c10.6237-13.358 21.6862-26.367 33.2084-38.965 10.9945-11.947 22.3884-23.53 34.2073-34.67m-122.3988 110.594c1.5425-6.323 3.4551-12.536 5.8158-18.594 2.0156-5.089 4.33873-10.054 6.99604-14.846 6.508997-6.745 13.30842-13.208 20.36546-19.39 7.9563-6.901 16.2233-13.442 24.751-19.64m-57.9283 72.47c8.918-12.927 18.27169-25.525 28.06251-37.796 9.55189-11.912 19.50509-23.465 29.86579-34.674m-57.9283 72.47c7.8876-6.604 16.12336-12.755 24.62612-18.547 9.82208-6.619 19.97038-12.723 30.35758-18.406-.2591-6.713-.2014-13.426.3794-20.124.4825-5.183 1.2819-10.335 2.5652-15.393m-57.9326 72.474c-1.8141 7.598-3.0898 15.318-3.9574 23.084-1.0042 9.373-1.4152 18.777-1.4031 28.211-8.3925 4.823-16.5636 10.025-24.398 15.728m29.7585-67.023c-9.016 13.134-17.5724 26.587-25.6631 40.314-8.0619 13.771-15.649 27.816-22.7462 42.119m48.4093-82.433c-6.8075 5.748-13.3359 11.815-19.5169 18.23-5.3438 5.597-10.4115 11.436-15.1637 17.549-2.9169 6.962-5.4545 14.06-7.6387 21.279-2.4876 8.342-4.4943 16.805-6.09 25.375m18.6508-15.41c-6.5087 4.778-12.761 9.874-18.6508 15.41m18.6508-15.41c-6.5073 4.783-12.7612 9.891-18.6506 15.402-1.8047 9.921-3.0524 19.932-3.8441 29.972-.8674 11.629-1.1274 23.289-.9075 34.933 6.8044-16.412 14.1657-32.572 22.0544-48.493 8.0536-16.13 16.6404-31.978 25.7471-47.543m-24.3993 15.729c7.8352-5.688 16.0056-10.902 24.3993-15.729m60.3455-88.249c.371 8.575 1.2608 17.103 2.4647 25.6 1.5503 10.653 3.5932 21.228 5.9471 31.727m-8.4118-57.327c-10.9581 13.87-21.4313 28.094-31.43031 42.672-10.14525 14.87-19.78399 30.064-28.91629 45.581m60.3466-88.253c-10.39 5.681-20.5385 11.792-30.35892 18.411-8.50416 5.788-16.74048 11.946-24.62728 18.55-1.8135 7.589-3.0882 15.301-3.9565 23.075-1.0037 9.375-1.4162 18.781-1.4039 28.217m60.3466-88.253c-10.9581 13.87-21.4329 28.094-31.43194 42.672-10.14372 14.87-19.78236 30.064-28.91466 45.581m68.7584-30.926c-12.8117 4.603-25.4648 9.636-37.87771 15.224-10.51781 4.788-20.84469 9.975-30.88069 15.702m68.7584-30.926c2.9172 12.851 6.2979 25.596 9.9863 38.25 4.4367 15.102 9.3069 30.068 14.4828 44.927m-24.4691-83.177c14.863-5.293 29.9173-10.022 45.1013-14.296 17.2677-4.821 34.6827-9.08 52.2047-12.867m-26.412-64.573c3.516 9.691 7.266 19.288 11.148 28.822 4.902 12 10.016 23.907 15.263 35.751-17.521 3.792-34.937 8.037-52.2036 12.859-15.1863 4.291-30.2398 9.004-45.1046 14.309m70.8972-91.741c-12.549 14.185-24.6128 28.791-36.2206 43.756-12.0588 15.636-23.6119 31.631-34.6766 47.985m70.8972-91.741c-14.469 5.009-28.7578 10.518-42.8048 16.619-12.4052 5.446-24.5982 11.345-36.504 17.805.3729 8.567 1.264 17.103 2.4688 25.592 1.5497 10.659 3.591 21.223 5.9428 31.725m70.8972-91.741c-12.549 14.185-24.6128 28.791-36.2221 43.756-12.0588 15.621-23.6104 31.631-34.6751 47.985m174.4202-119.192c7.034 10.821 13.99 21.689 20.903 32.604 8.428 13.297 16.787 26.657 25.099 40.033-21.515 2.318-42.972 5.126-64.349 8.47-19.679 3.139-39.279 6.735-58.763 10.915m77.11-92.022c-13.304 14.007-26.146 28.44-38.581 43.219-13.309 15.9-26.137 32.178-38.529 48.803m77.11-92.022c-18.32 3.628-36.526 7.777-54.578 12.572-16.478 4.401-32.811 9.338-48.945 14.874 3.518 9.685 7.267 19.275 11.151 28.818 4.903 12.003 10.017 23.912 15.262 35.758m77.11-92.022c-13.306 14.007-26.146 28.44-38.583 43.219-13.307 15.9-26.136 32.178-38.527 48.803m199.358-108.195c10.215 12 20.155 24.222 29.9 36.602 11.386 14.492 22.508 29.206 33.423 44.063-23.687.317-47.367 1.158-71.022 2.523-22.89 1.365-45.743 3.222-68.547 5.635m76.246-88.823c-12.81 13.333-25.209 27.047-37.28 41.047-13.384 15.602-26.351 31.538-38.966 47.776m76.246-88.823c-21.026 1.572-42.002 3.698-62.906 6.444-19.874 2.667-39.664 5.889-59.344 9.73 7.036 10.825 13.995 21.698 20.906 32.603 8.429 13.301 16.788 26.665 25.098 40.046m76.246-88.823c-12.81 13.333-25.211 27.047-37.281 41.047-13.386 15.602-26.352 31.538-38.965 47.776m206.708-90.849c12.431 13.073 24.471 26.512 36.206 40.22 13.157 15.425 25.921 31.167 38.36 47.163m-74.566-87.383c-10.946 12.31-21.564 24.891-31.968 37.647-12.01 14.805-23.708 29.832-35.172 45.05 23.858-.27 47.722-.032 71.572.731 23.405.81 46.788 2.112 70.134 3.955m-74.566-87.383c21.451.921 42.873 2.414 64.243 4.527 20.565 2.065 41.055 4.718 61.464 7.974-7.97 11.136-15.791 22.382-23.532 33.692-9.324 13.645-18.514 27.386-27.609 41.19m51.137-74.876c13.305 13.864 26.158 28.154 38.627 42.777 13.46 15.871 26.462 32.122 39.042 48.705m-77.669-91.482c-7.969 11.145-15.79 22.384-23.524 33.687-9.331 13.659-18.521 27.396-27.622 41.197m51.146-74.884c19.21 3.114 38.332 6.782 57.311 11.066 17.515 4.015 34.905 8.536 52.117 13.69-4.469 9.99-9.087 19.918-13.778 29.798-5.882 12.362-11.892 24.661-17.981 36.928m0 0c-20.572-3.746-41.239-6.924-61.973-9.627-22.222-2.861-44.51-5.153-66.842-6.971m0 0c-23.339-1.846-46.722-3.153-70.128-3.953-23.85-.769-47.714-1.015-71.571-.738 12.395 16.917 24.53 34.019 36.452 51.259 13.142 19.071 26.04 38.31 38.708 57.704 11.566-18.609 23.229-37.141 35.009-55.612 10.403-16.287 20.903-32.512 31.53-48.66zm160.575-50.136c12.861 14.185 25.234 28.808 37.17 43.776 12.49 15.75 24.477 31.892 35.984 48.378m-73.154-92.154c-4.468 9.989-9.086 19.916-13.778 29.81-5.883 12.353-11.891 24.659-17.981 36.918 18.729 3.445 37.368 7.374 55.883 11.852 16.48 4.04 32.84 8.517 49.03 13.574m-73.154-92.154c15.576 4.713 31.005 9.927 46.204 15.735 13.535 5.229 26.876 10.944 39.952 17.222-1.154 8.877-2.774 17.676-4.655 26.428-2.411 11.007-5.247 21.935-8.347 32.769m13.003-59.191c11.446 14.001 22.405 28.374 32.892 43.117 10.707 15.114 20.903 30.584 30.59 46.363m-63.482-89.48c-1.155 8.87-2.776 17.679-4.655 26.426-2.413 11.019-5.247 21.93-8.348 32.763 14.112 4.451 28.075 9.335 41.824 14.79 11.758 4.714 23.339 9.829 34.661 15.501m-63.482-89.48c11.446 14.001 22.405 28.374 32.898 43.117 10.701 15.114 20.897 30.584 30.584 46.363m-63.482-89.48c11.477 5.563 22.731 11.59 33.683 18.143 9.516 5.749 18.774 11.9 27.697 18.529 1.325 7.836 2.095 15.748 2.464 23.692.406 9.705.223 19.426-.362 29.116m-2.1-52.815c9.554 13.371 18.648 27.062 27.262 41.058 8.628 14.102 16.76 28.478 24.404 43.129m-51.666-84.187c1.325 7.843 2.094 15.762 2.464 23.696.408 9.701.223 19.418-.362 29.119 9.531 4.812 18.855 10.021 27.868 15.747 7.51 4.827 14.777 9.99 21.696 15.625m-51.666-84.187c7.711 5.787 15.141 11.909 22.23 18.442 6.112 5.696 11.942 11.681 17.441 17.971 2.715 7.096 5.003 14.346 6.911 21.701 2.183 8.59 3.849 17.301 5.084 26.073m21.069 44.368c6.319 14.698 12.143 29.602 17.419 44.697-.865-10.667-2.191-21.304-4.033-31.853-1.664-9.299-3.73-18.509-6.237-27.616-3.641-5.076-7.629-9.872-11.892-14.433-5.113-5.4-10.589-10.432-16.332-15.154m21.075 44.359c-6.511-15.022-13.549-29.823-21.075-44.359m21.075 44.359c6.319 14.698 12.143 29.602 17.427 44.697-4.862-3.958-10.041-7.504-15.392-10.77-6.836-4.134-13.94-7.783-21.193-11.152.748-12.035 1.007-24.114.645-36.179-.349-10.357-1.163-20.686-2.562-30.955m1.917 67.141c-7.422-16.887-15.405-33.507-23.923-49.873-8.658-16.515-17.841-32.732-27.557-48.651m51.48 98.524c.747-12.043 1.006-24.117.644-36.175-.347-10.359-1.161-20.703-2.561-30.973-6.918-5.634-14.192-10.806-21.696-15.621-9.012-5.723-18.336-10.94-27.867-15.755m51.48 98.524c-9.124-4.188-18.454-7.885-27.897-11.283-11.639-4.129-23.442-7.796-35.334-11.134 3.1-13.609 5.794-27.307 7.911-41.109 1.747-11.611 3.086-23.282 3.84-34.998m-11.749 76.108c-9.752-18.426-20.047-36.566-30.865-54.403-10.781-17.657-22.066-34.997-33.868-51.989m64.733 106.392c3.1-13.612 5.787-27.315 7.91-41.123 1.746-11.605 3.086-23.271 3.841-34.981-11.322-5.675-22.902-10.79-34.661-15.499-13.748-5.463-27.719-10.337-41.823-14.789m64.733 106.392c-14.296-3.969-28.718-7.485-43.214-10.67-16.991-3.697-34.062-6.926-51.199-9.839 6.008-15.333 11.751-30.786 17.13-46.36 4.491-13.068 8.717-26.243 12.55-39.523m-29.679 85.883c-11.787-19.486-24.049-38.697-36.791-57.573-12.358-18.236-25.167-36.166-38.442-53.746m75.233 111.319c6.009-15.339 11.752-30.784 17.132-46.367 4.492-13.066 8.715-26.24 12.549-39.52-16.191-5.062-32.552-9.545-49.031-13.57-18.514-4.498-37.154-8.416-55.883-11.862m75.233 111.319c-19.557-3.278-39.182-6.13-58.85-8.63-21.843-2.729-43.74-5.047-65.673-7.014 9.05-17.092 18.019-34.229 26.877-51.428 7.561-14.698 15.042-29.442 22.413-44.247m-49.289 95.666c-12.92-19.83-26.202-39.431-39.884-58.771m39.884 58.771c9.051-17.098 18.02-34.228 26.877-51.419 7.563-14.704 15.043-29.454 22.414-44.251-20.572-3.745-41.24-6.922-61.974-9.623-22.221-2.855-44.509-5.158-66.842-6.969m79.525 112.262c-12.927-19.83-26.21-39.431-39.884-58.771m39.884 58.771c-23.694-2.087-47.418-3.776-71.17-5.096-24.945-1.35-49.912-2.302-74.894-2.885 11.566-18.618 23.229-37.16 35.016-55.625 10.404-16.285 20.898-32.509 31.523-48.656m39.641 53.491c-12.854-18.096-26.047-35.947-39.641-53.491m-218.96 105.578c-10.969-18.222-21.989-36.429-33.071-54.59-9.692-15.87-19.432-31.724-29.239-47.517 22.803-2.415 45.657-4.275 68.547-5.628 23.654-1.369 47.334-2.2 71.021-2.522m-77.258 110.257c12.893-19.576 26.045-38.998 39.498-58.204 12.32-17.546 24.892-34.907 37.76-52.053m-77.258 110.257c25.29-.999 50.589-1.599 75.904-1.83 25.507-.215 51.013-.031 76.52.538-12.675-19.391-25.573-38.628-38.722-57.696-11.922-17.254-24.049-34.354-36.444-51.269m-77.258 110.257c12.893-19.576 26.048-38.998 39.501-58.204 12.317-17.546 24.889-34.907 37.757-52.053m-218.709 120.569c-8.239-16.615-16.345-33.307-24.27-50.091-6.72-14.239-13.307-28.555-19.7-42.963 19.486-4.169 39.083-7.772 58.763-10.898 21.377-3.357 42.834-6.162 64.35-8.477m-79.143 112.429c12.734-19.819 25.863-39.377 39.415-58.659 12.853-18.209 26.081-36.143 39.728-53.77m-79.143 112.429c22.748-2.452 45.537-4.506 68.354-6.192 24.344-1.763 48.712-3.127 73.099-4.124-10.97-18.224-21.991-36.433-33.074-54.597-9.692-15.864-19.43-31.713-29.236-47.516m-79.143 112.429c12.735-19.819 25.864-39.377 39.418-58.659 12.852-18.209 26.078-36.143 39.725-53.77m-195.9499 129.722c11.2948-19.27 23.084-38.235 35.3709-56.881 12.014-18.144 24.494-35.984 37.466-53.459m-72.8369 110.34c18.1727-3.528 36.4259-6.601 54.7329-9.338 20.64-3.057 41.336-5.673 62.073-7.939-8.239-16.639-16.346-33.323-24.274-50.098-6.716-14.251-13.304-28.562-19.695-42.965m-72.8369 110.34c11.2964-19.27 23.084-38.235 35.3719-56.881 12.014-18.144 24.494-35.984 37.465-53.459m-158.5447 131.644c-2.3874-13.177-4.34-26.414-5.6894-39.726-1.1011-11.252-1.769-22.534-1.8307-33.83 10.0368-5.731 20.36399-10.906 30.8807-15.689 12.4137-5.596 25.0665-10.635 37.8773-15.238m-61.2379 104.483c9.12219-18.051 18.79349-35.815 28.9973-53.264 10.2264-17.404 20.9717-34.477 32.2406-51.219m-61.2379 104.483c12.83185-4.092 25.80656-7.687 38.8641-10.981 15.5216-3.851 31.1484-7.265 46.843-10.334-5.1763-14.861-10.0473-29.813-14.4836-44.916-3.6871-12.65-7.0687-25.391-9.9856-38.252m-61.2379 104.483c9.12219-18.051 18.79495-35.815 28.9988-53.264 10.2248-17.404 20.9702-34.477 32.2391-51.219m-68.7565 30.924c.0594 11.303.7278 22.576 1.8285 33.834 1.3502 13.308 3.3034 26.556 5.6903 39.715-10.5281 3.387-20.9523 7.07-31.1923 11.258-8.2065 3.372-16.2853 7.07-24.1265 11.229 6.8029-16.412 14.1643-32.572 22.0544-48.493 8.0521-16.13 16.6389-31.978 25.7456-47.543zm-78.3337 117.499c1.17-10.336 2.768-20.614 4.847-30.803 1.8768-9.046 4.1275-18.004 6.7785-26.845 2.9897-4.853 6.2976-9.501 9.8752-13.929 4.2639-5.234 8.8869-10.146 13.7842-14.793m-35.2849 86.37c4.7767-14.617 10.0698-29.029 15.8542-43.266 5.9764-14.588 12.4602-28.956 19.4307-43.104m-35.2849 86.37c3.9233-3.841 8.1828-7.301 12.6402-10.497 5.7154-4.061 11.7241-7.653 17.8941-10.967-.2214-11.656.0381-23.312.9061-34.938.7918-10.043 2.0396-20.042 3.8445-29.968m-35.2849 86.37c4.7767-14.617 10.0698-29.029 15.8556-43.266 5.975-14.588 12.4588-28.956 19.4293-43.104m1028.8501 249.216c-1.768-14.885-4.135-29.687-7.022-44.395-3.166-15.829-6.926-31.522-11.218-47.078m18.24 91.473c2.183-14.063 3.855-28.195 4.951-42.382.961-12.995 1.435-26.018 1.369-39.054-3.115-1.903-6.422-3.478-9.79-4.875-4.824-1.999-9.775-3.656-14.77-5.162m18.24 91.473c-1.768-14.885-4.136-29.687-7.029-44.394-3.16-15.83-6.919-31.523-11.211-47.079m18.24 91.473c-4.861.425-9.738.781-14.615 1.096-6.91.425-13.822.794-20.74 1.123 4.151-16.104 7.777-32.345 10.766-48.709 2.679-14.912 4.825-29.907 6.349-44.983m-17.116 93.691c-3.884-17.103-8.391-34.069-13.43-50.869-5.477-18.053-11.551-35.913-18.174-53.581m31.604 104.45c4.152-16.099 7.778-32.349 10.766-48.709 2.68-14.916 4.825-29.914 6.35-44.981-6.882-2.036-13.845-3.77-20.845-5.338-9.243-2.05-18.544-3.812-27.875-5.422m31.604 104.45c-9.287.441-18.574.812-27.868 1.156-11.928.427-23.857.798-35.785 1.142 6.689-18.273 12.883-36.711 18.485-55.341 5.061-16.994 9.619-34.124 13.564-51.407m-32.05 106.754c-6.608-19.368-13.793-38.5-21.466-57.453m21.466 57.453c6.689-18.275 12.883-36.717 18.485-55.338 5.061-17.004 9.619-34.132 13.564-51.412-11.863-2.019-23.769-3.774-35.697-5.364-14.652-1.936-29.333-3.636-44.036-5.157m47.684 117.271c-14.74.415-29.488.761-44.236 1.092-17.619.388-35.23.719-52.849 1.01 9.464-20.336 18.522-40.837 27.105-61.56 7.866-19.105 15.333-38.362 22.296-57.813m26.218 59.818c-8.207-20.17-16.968-40.104-26.218-59.818m26.218 59.818c-8.215-20.17-16.968-40.104-26.218-59.818m-49.401 119.378c-9.546-21.319-19.535-42.443-29.911-63.372-10.884-21.86-22.184-43.511-33.875-64.955m63.786 128.327c9.464-20.333 18.521-40.846 27.098-61.568 7.872-19.098 15.339-38.362 22.302-57.807-17.485-1.804-34.993-3.358-52.517-4.76-20.208-1.596-40.431-2.984-60.669-4.192m63.786 128.327c-9.546-21.319-19.544-42.443-29.918-63.372-10.877-21.86-22.177-43.511-33.868-64.955m63.786 128.327c-20.379.333-40.758.638-61.137.888-22.859.292-45.717.527-68.566.736 11.891-22.027 23.524-44.205 34.853-66.537 10.632-20.999 21.007-42.137 31.064-63.414m-65.919 129.944c-12.032-22.71-24.323-45.281-36.85-67.712-12.788-22.849-25.818-45.559-39.086-68.129m75.936 135.841c11.891-22.028 23.524-44.195 34.853-66.529 10.634-20.998 21.008-42.136 31.064-63.412-22.643-1.336-45.308-2.463-67.974-3.424-24.619-1.015-49.252-1.836-73.879-2.476m75.936 135.841c-12.039-22.71-24.323-45.281-36.857-67.712-12.781-22.849-25.811-45.559-39.079-68.129m75.936 135.841c-24.863.223-49.719.403-74.582.529-26.218.139-52.442.25-78.66.306 13.283-23.072 26.484-46.171 39.589-69.34 12.661-22.39 25.233-44.835 37.717-67.336m-237.529 136.535c-13.044-22.852-25.948-45.802-38.706-68.821-12.221-22.086-24.305-44.241-36.235-66.48 25.313-.864 50.633-1.532 75.957-2.006 26.324-.487 52.65-.793 78.978-.905m-79.994 138.212c13.13-23.2 26.371-46.331 39.72-69.406 13.318-23.005 26.74-45.94 40.274-68.806m-79.994 138.212c26.591.111 53.179.167 79.773.195 26.817.027 53.634 0 80.449-.056-13.341-23.256-26.727-46.484-40.179-69.67-13.297-22.935-26.647-45.829-40.049-68.681m-79.994 138.212c13.131-23.2 26.373-46.331 39.723-69.406 13.315-23.005 26.737-45.94 40.271-68.806m-228.186 137.145c-11.302-21.627-22.297-43.407-32.943-65.353-9.92-20.514-19.533-41.181-28.781-62.015 21.361-1.488 42.736-2.754 64.119-3.852m-2.395 131.22c11.444-22.406 23.197-44.644 35.232-66.744 12.38-22.656 25.057-45.158 38.021-67.494m-73.253 134.238c23.834.25 47.667.458 71.501.639 25.564.181 51.128.32 76.693.431-13.045-22.864-25.95-45.798-38.71-68.829-12.22-22.086-24.301-44.241-36.231-66.479m-73.253 134.238c11.444-22.406 23.197-44.644 35.235-66.744 12.379-22.656 25.055-45.158 38.018-67.494m-70.858 3.018c23.612-1.21 47.231-2.198 70.858-3.018m-70.858 3.018c23.613-1.201 47.231-2.196 70.858-3.016-11.086-20.683-22.036-41.455-32.826-62.313-9.725-18.825-19.317-37.708-28.739-56.693m-9.293 122.022c-21.384 1.098-42.759 2.371-64.12 3.864m-59.5894 125.573c-8.711-19.8-16.9824-39.78-24.7408-59.955-7.0802-18.524-13.7237-37.229-19.83055-56.1 15.93825-1.886 31.90145-3.522 47.88265-4.991 18.7421-1.72 37.505-3.217 56.2801-4.535-11.078 21.021-21.7329 42.249-31.9304 63.699-9.6594 20.424-18.9015 41.056-27.661 61.882zm0 0c18.889.361 37.7796.679 56.6714.957 21.547.319 43.096.582 64.645.818-11.304-21.616-22.299-43.386-32.947-65.335-9.919-20.521-19.533-41.194-28.779-62.021-11.077 21.021-21.7304 42.249-31.9265 63.699-9.6622 20.438-18.903 41.056-27.6639 61.882zm-87.711-2.185c-5.9569-17.687-11.3987-35.526-16.2287-53.544-4.3496-16.403-8.1869-32.944-11.3959-49.623 10.4031-2.044 20.8558-3.811 31.3348-5.413 13.1122-1.988 26.26166-3.714 39.43046-5.288-8.52237 19.165-16.53797 38.564-23.98196 58.17-6.9234 18.377-13.3372 36.934-19.1587 55.698zm0 0c13.1867.414 26.37618.787 39.56707 1.118 16.04643.401 32.09423.746 48.14483 1.063-8.713-19.785-16.9854-39.764-24.7442-59.95-7.0794-18.529-13.7225-37.224-19.82846-56.099-8.52099 19.165-16.5352 38.564-23.97914 58.17-6.9234 18.377-13.3386 36.934-19.1601 55.698zm-55.2222-2.307c-3.5511-15.542-6.569-31.18-8.9614-46.927-2.137-14.374-3.75-28.802-4.75-43.3 5.7132-2.02 11.5332-3.71 17.393-5.249 7.9129-2.047 15.8986-3.793 23.916-5.387m-27.5976 100.863c3.2294-16.49 7.0869-32.856 11.4818-49.071 4.7824-17.438 10.179-34.711 16.1158-51.792m-27.5976 100.863c7.9486.44 15.9014.811 23.8555 1.141 10.4539.439 20.9106.81 31.3673 1.154-5.9574-17.672-11.3994-35.508-16.2286-53.537-4.3508-16.407-8.1877-32.952-11.3966-49.621m-27.5976 100.863c3.2308-16.49 7.0883-32.856 11.4832-49.071 4.781-17.438 10.1776-34.711 16.1144-51.792m-56.576 98.697c-1.759-13.539-3.028-27.12-3.749-40.755-.621-12.514-.782-25.041-.431-37.568 2.339-1.833 4.9-3.351 7.538-4.705 3.847-1.956 7.851-3.569 11.909-5.019m-15.267 88.047c1.33-14.305 3.233-28.542 5.645-42.697m-5.645 42.697c3.898.424 7.806.752 11.716 1.053 5.75.438 11.5038.793 17.2606 1.122-3.5506-15.537-6.5678-31.182-8.9626-46.937-2.135-14.36-3.749-28.802-4.747-43.285m0 0c-3.751 15.003-6.98 30.115-9.622 45.35m9.622-45.35c-3.751 15.003-6.979 30.115-9.622 45.35m-5.646 42.706c1.946 14.594 4.459 29.109 7.481 43.519m-7.481-43.519c-1.179 13.149-1.874 26.337-2.025 39.539m2.025-39.539c3.899.433 7.808.761 11.718 1.064 5.75.433 11.5044.788 17.2597 1.116-2.9072 15.093-5.2876 30.279-7.0401 45.556-1.5357 13.792-2.5566 27.625-2.9636 41.496m-11.493-45.713c3.273 15.382 7.122 30.62 11.493 45.713m-11.493-45.713c3.275 15.382 7.122 30.62 11.493 45.713m0 0c-4.185-2.075-8.264-4.361-12.104-7.014-2.787-1.971-5.428-4.125-7.781-6.595-.855-12.006-1.211-24.039-1.114-36.084m0 0c.151-13.214.847-26.402 2.026-39.55-2.442-.262-4.883-.578-7.305-.999-1.357-.236-2.717-.499-4.033-.92.759 12.622 1.975 25.217 3.621 37.76 1.792 13.345 4.071 26.612 6.805 39.786-.856-12.004-1.21-24.047-1.114-36.077zm31.0037-37.368c3.8938 16.797 8.4044 33.436 13.4569 49.918 5.4306 17.545 11.4661 34.88 18.0449 52.005m-31.5018-101.923c-2.9082 15.091-5.2875 30.287-7.0395 45.561-1.5367 13.792-2.5582 27.624-2.9642 41.494 5.6979 2.782 11.572 5.171 17.5275 7.336 7.8872 2.847 15.9005 5.301 23.978 7.532m-31.5018-101.923c3.8938 16.797 8.4056 33.436 13.4582 49.918 5.4305 17.532 11.4648 34.867 18.0436 52.005m-31.5018-101.923c7.949.446 15.9018.813 23.8573 1.141 10.4529.446 20.9085.814 31.3667 1.155-5.2915 17.204-10.0763 34.552-14.247 52.058-3.7021 15.747-6.9043 31.599-9.4752 47.569m23.7207-99.62c6.4669 19.021 13.5237 37.844 21.0983 56.445 8.03738 19.624 16.64242 38.985 25.7627 58.123m-46.861-114.568c-5.2897 17.199-10.0746 34.541-14.2447 52.054-3.7034 15.743-6.9061 31.605-9.4768 47.571 10.3538 2.844 20.8033 5.309 31.3001 7.55 13.036 2.766 26.14015 5.191 39.2824 7.393m-46.861-114.568c6.4669 19.021 13.525 37.844 21.0996 56.445 8.03739 19.624 16.64112 38.985 25.7614 58.123m-46.861-114.568c13.1881.42 26.37746.787 39.56686 1.127 16.04724.394 32.09454.748 48.14444 1.062-8.0833 19.322-15.7484 38.815-22.9088 58.491-6.4354 17.801-12.4539 35.759-17.9415 53.888m103.4778 13.263c-11.549-20.835-22.6596-41.918-33.3027-63.237-10.2307-20.585-20.0226-41.393-29.3234-62.411-8.0828 19.315-15.748 38.814-22.9063 58.496-6.4367 17.809-12.4556 35.75-17.9441 53.873 15.8265 2.619 31.7015 4.911 47.608 6.98 18.5898 2.383 37.2176 4.452 55.8685 6.299zm0 0c-11.549-20.835-22.6582-41.918-33.3014-63.237-10.2306-20.585-20.0225-41.393-29.326-62.411 18.8898.367 37.7808.681 56.6734.956 21.547.327 43.095.602 64.643.825-10.804 21.214-21.329 42.572-31.529 64.074-9.351 19.8-18.427 39.718-27.16 59.793zm58.688-123.863c11.789 22.479 23.908 44.787 36.339 66.913 12.594 22.36 25.507 44.538 38.733 66.519m-75.072-133.432c-10.803 21.21-21.327 42.563-31.524 64.086-9.355 19.784-18.431 39.698-27.164 59.782 21.167 2.067 42.361 3.833 63.574 5.377 23.378 1.662 46.777 3.049 70.186 4.187m-75.072-133.432c11.789 22.479 23.91 44.774 36.342 66.913 12.594 22.36 25.505 44.538 38.73 66.519m-75.072-133.432c23.834.262 47.667.471 71.5.641 25.566.184 51.129.327 76.693.432-12.765 22.57-25.424 45.206-37.968 67.907-11.826 21.432-23.549 42.916-35.153 64.452m73.12-132.359c13.208 23.122 26.559 46.164 40.051 69.115 13.253 22.52 26.639 44.948 40.174 67.298m-80.225-136.413c-12.763 22.572-25.422 45.223-37.967 67.912-11.825 21.421-23.549 42.908-35.152 64.46 25.053 1.19 50.118 2.105 75.19 2.785 26.047.68 52.099 1.099 78.154 1.256m-80.225-136.413c13.21 23.122 26.56 46.151 40.055 69.115 13.249 22.52 26.635 44.948 40.17 67.298m-80.225-136.413c26.592.105 53.179.17 79.774.197 26.816.013 53.634 0 80.45-.066-13.334 23.135-26.765 46.216-40.277 69.246-13.149 22.402-26.388 44.738-39.722 67.036m233.236-137.1c11.448 21.664 22.658 43.432 33.596 65.344 10.109 20.276 19.98 40.684 29.569 61.222-22.429 1.858-44.887 3.428-67.36 4.762-24.375 1.413-48.757 2.551-73.153 3.441m77.348-134.769c-12.312 22.749-24.899 45.341-37.767 67.777-12.92 22.487-26.114 44.831-39.581 66.992m77.348-134.769c-24.862.223-49.718.393-74.581.536-26.217.131-52.442.236-78.659.288 13.075 22.828 26.099 45.669 39.07 68.549 12.328 21.768 24.605 43.575 36.822 65.396m77.348-134.769c-12.312 22.749-24.906 45.342-37.767 67.764-12.92 22.5-26.114 44.844-39.581 67.005m207.056-136.397c8.865 19.873 17.338 39.917 25.352 60.144 7.237 18.367 14.097 36.879 20.461 55.561-17.345 2.5-34.743 4.7-52.161 6.651-20.039 2.212-40.099 4.137-60.19 5.825m66.538-128.181c-10.048 21.483-20.542 42.758-31.448 63.822-11.278 21.68-22.977 43.138-35.09 64.359m66.538-128.181c-20.378.34-40.757.641-61.136.89-22.859.288-45.716.537-68.567.733 11.447 21.654 22.659 43.426 33.603 65.341 10.1 20.279 19.971 40.676 29.562 61.217m66.538-128.181c-10.048 21.483-20.542 42.758-31.456 63.822-11.27 21.68-22.969 43.138-35.082 64.359m163.625-130.292c6.03 17.783 11.572 35.737 16.516 53.848 4.41 16.302 8.332 32.735 11.64 49.3-11.803 2.804-23.687 5.255-35.608 7.482-14.556 2.7-29.17 5.059-43.821 7.195m51.273-117.825c-7.238 19.605-15.044 39-23.354 58.172-8.776 20.129-18.101 40.009-27.919 59.653m51.273-117.825c-14.741.42-29.489.773-44.237 1.101-17.618.38-35.23.708-52.848 1.009 8.864 19.867 17.337 39.917 25.351 60.138 7.237 18.373 14.097 36.889 20.461 55.577m114.924-120.116c3.501 15.65 6.475 31.419 8.813 47.306 2.057 14.299 3.596 28.678 4.514 43.108-6.86 2.821-13.867 5.248-20.941 7.452-9.205 2.847-18.515 5.326-27.89 7.569 7.259-17.684 13.971-35.591 20.09-53.721 5.698-17.068 10.863-34.306 15.414-51.714zm0 0c-9.287.433-18.573.813-27.867 1.154-11.929.433-23.857.8-35.786 1.141 6.032 17.79 11.573 35.723 16.517 53.84 4.409 16.307 8.332 32.744 11.64 49.3 7.251-17.684 13.963-35.591 20.075-53.721 5.705-17.068 10.87-34.306 15.421-51.714zm35.356-2.219c1.576 13.657 2.653 27.367 3.152 41.104.42 12.502.354 25.004-.237 37.493-3.125 2.587-6.514 4.82-10.007 6.829-4.82 2.744-9.836 5.082-14.942 7.21m22.034-92.636c-2.404 15.181-5.398 30.257-8.918 45.228-3.795 15.955-8.195 31.767-13.116 47.408m22.034-92.636c-4.873.433-9.745.774-14.619 1.089-6.912.447-13.823.802-20.742 1.143 3.5 15.654 6.475 31.413 8.813 47.303 2.058 14.301 3.597 28.668 4.514 43.101m-1042.102-255.493c-1.272 11.63-1.999 23.303-2.253 34.99-.236 13.085.117 26.171.974 39.229-4.059 1.455-8.061 3.066-11.908 5.016-2.639 1.357-5.2 2.883-7.539 4.706m20.726-83.941c-4.557 14.075-8.625 28.291-12.175 42.635m12.175-42.635c-3.083 3.052-5.929 6.331-8.443 9.864-2.021 2.897-3.806 5.935-5.302 9.129-1.927 10.203-3.454 20.462-4.611 30.764-1.235 11.362-2.013 22.766-2.37 34.184m20.726-83.941c-4.557 14.075-8.625 28.277-12.175 42.635m-8.551 41.306c2.352-13.863 5.214-27.641 8.551-41.306m42.7092-64.103c.3038 13.379 1.2396 26.729 2.676 40.022 1.6789 15.091 3.9954 30.11 6.8197 45.029-8.0165 1.584-16.0031 3.338-23.9169 5.378-5.8597 1.54-11.6781 3.238-17.392 5.263m31.8132-95.692c-6.5502 15.918-12.5682 32.049-18.0115 48.381-5.1493 15.604-9.7667 31.379-13.8017 47.311m31.8132-95.692c-6.1707 3.309-12.1788 6.918-17.8959 10.968-4.4575 3.195-8.7154 6.661-12.6383 10.498-1.271 11.625-1.997 23.292-2.251 34.988-.238 13.093.117 26.173.972 39.238m87.1314-118.174c2.8257 15.323 6.2361 30.531 10.08148 45.623 4.43299 17.224 9.42909 34.275 14.86015 51.211-13.16791 1.57-26.31563 3.298-39.42883 5.285-10.479 1.598-20.9321 3.37-31.3363 5.415m45.8235-107.534c-8.915 17.757-17.2927 35.758-25.0944 54.019-7.4704 17.627-14.3979 35.456-20.7291 53.515m45.8235-107.534c-10.528 3.385-20.9509 7.071-31.1923 11.248-8.2063 3.384-16.2845 7.071-24.1279 11.233.3053 13.378 1.2429 26.728 2.6774 40.02 1.6792 15.093 3.9965 30.113 6.8193 45.033m45.8235-107.534c-8.915 17.757-17.2927 35.758-25.0958 54.019-7.469 17.613-14.3965 35.456-20.7277 53.515m131.5313-128.833c6.0485 17.264 12.5069 34.382 19.269 51.385 7.6821 19.225 15.7518 38.291 24.1258 57.226-18.7748 1.322-37.5367 2.805-56.2797 4.519-15.9803 1.483-31.9447 3.125-47.88285 4.999 8.95075-20.01 18.44805-39.773 28.45095-59.275 10.2588-19.894 21.0349-39.512 32.3168-58.854zm0 0c-15.6955 3.066-31.3242 6.481-46.8439 10.347-13.05773 3.269-26.03119 6.873-38.8652 10.957 2.8267 15.316 6.2361 30.531 10.08291 45.63 4.43252 17.205 9.42746 34.266 14.85984 51.195 8.94935-20.01 18.44515-39.773 28.44805-59.275 10.2588-19.894 21.0364-39.512 32.3183-58.854zm116.8078-17.283c-13.08 20.435-25.735 41.133-37.975 62.079-12.239 21.035-24.057 42.304-35.438 63.807m73.413-125.886c-20.739 2.269-41.434 4.889-62.073 7.949-18.308 2.737-36.561 5.811-54.7337 9.324 6.0503 17.272 12.5089 34.384 19.2706 51.393 7.684 19.22 15.7511 38.278 24.1231 57.22m73.413-125.886c-13.08 20.435-25.737 41.133-37.978 62.079-12.238 21.035-24.054 42.304-35.435 63.807m214.867-136.198c12.164 20.229 24.267 40.502 36.32 60.789 12.967 21.846 25.873 43.721 38.726 65.626-26.329.118-52.655.412-78.979.897-25.324.485-50.643 1.147-75.957 2.014 12.948-22.258 26.18-44.339 39.703-66.258 13.116-21.199 26.504-42.222 40.187-63.068zm0 0c-24.387 1-48.756 2.352-73.099 4.131-22.818 1.676-45.608 3.72-68.355 6.189 9.421 18.98 19.016 37.87 28.741 56.688 10.789 20.846 21.739 41.619 32.824 62.318 12.947-22.258 26.177-44.339 39.699-66.258 13.117-21.199 26.507-42.222 40.19-63.068zm152.426-1.302c13.572 20.813 26.899 41.788 40.003 62.91 13.623 22.005 27.002 44.172 40.151 66.486m-80.154-129.396c-12.712 20.46-25.292 40.994-37.783 61.601-13.313 21.961-26.506 44.01-39.597 66.118 26.543-.103 53.094-.015 79.644.25 25.966.294 51.933.765 77.89 1.427m-80.154-129.396c24.975.588 49.941 1.544 74.886 2.897 23.753 1.324 47.478 3.001 71.171 5.09-10.27 19.372-20.646 38.699-31.102 57.968-11.506 21.196-23.109 42.348-34.801 63.441m65.899-121.4c13.387 20.627 26.38 41.488 38.997 62.598 12.713 21.345 25.034 42.91 36.955 64.71m-75.952-127.308c-10.27 19.38-20.637 38.702-31.093 57.98-11.515 21.184-23.117 42.324-34.808 63.42 24.626.645 49.26 1.466 73.879 2.477 22.666.968 45.33 2.082 67.974 3.431m-75.952-127.308c21.933 1.964 43.83 4.281 65.673 7.022 19.669 2.507 39.293 5.351 58.851 8.62-6.986 17.768-14.326 35.404-21.918 52.908-8.577 19.733-17.486 39.304-26.654 58.758m48.574-111.665c11.854 19.69 23.228 39.672 34.105 59.931m-34.105-59.931c-6.986 17.768-14.318 35.39-21.918 52.911-8.576 19.72-17.486 39.294-26.654 58.737 20.238 1.223 40.462 2.592 60.671 4.195 17.522 1.398 35.03 2.971 52.516 4.762m-64.615-120.605c17.138 2.913 34.216 6.146 51.199 9.831 14.496 3.189 28.919 6.699 43.214 10.675-3.655 15.86-7.857 31.59-12.46 47.202-5.299 17.783-11.115 35.405-17.338 52.897m-30.51-60.674c10.663 19.967 20.853 40.197 30.51 60.674m-30.51-60.674c10.671 19.967 20.853 40.197 30.51 60.674m29.798-100.102c9.584 18.221 18.633 36.702 27.12 55.457m-27.12-55.457c-3.654 15.868-7.85 31.591-12.461 47.213-5.298 17.788-11.114 35.403-17.337 52.888 14.703 1.53 29.384 3.219 44.035 5.154 11.929 1.588 23.835 3.35 35.697 5.357m-49.934-110.612c9.584 18.221 18.64 36.702 27.12 55.457m-27.12-55.457c11.892 3.335 23.695 7.002 35.335 11.132 9.449 3.393 18.772 7.089 27.904 11.276-.91 13.904-2.449 27.736-4.477 41.525-2.36 15.665-5.342 31.23-8.828 46.679m-22.814-55.155c8.163 18.164 15.785 36.544 22.814 55.155m13.307-88.203c7.171 16.432 13.8 33.092 19.861 49.967m-19.861-49.967c-.909 13.9-2.45 27.744-4.476 41.515-2.362 15.674-5.344 31.233-8.829 46.692 9.33 1.602 18.632 3.361 27.876 5.42 6.999 1.559 13.963 3.304 20.845 5.335m-35.416-98.962c7.171 16.432 13.809 33.092 19.861 49.967m-19.861-49.967c7.244 3.361 14.348 7.022 21.192 11.14 5.351 3.261 10.524 6.808 15.385 10.783.94 12.07 1.294 24.183 1.161 36.296-.191 13.614-1.005 27.2-2.322 40.743m-15.555-48.995c5.735 16.146 10.944 32.492 15.555 48.995m-15.555-48.995c5.742 16.146 10.944 32.492 15.555 48.995m1.162-77.048c5.047 14.563 9.597 29.297 13.608 44.185 3.767 14.181 7.046 28.489 9.791 42.896m-23.399-87.081c.94 12.084 1.295 24.182 1.162 36.295-.193 13.614-1.006 27.199-2.323 40.756 4.995 1.502 9.945 3.159 14.769 5.157 3.368 1.402 6.676 2.975 9.791 4.873m-23.399-87.081c3.789 3.131 7.37 6.517 10.605 10.229 2.567 2.989 4.883 6.162 6.896 9.548 1.821 10.554 3.212 21.164 4.195 31.831 1.051 11.801 1.598 23.63 1.703 35.473m-30.214 246.61c1.379-11.271 2.201-22.593 2.556-33.953.341-12.865.063-25.731-.696-38.571 5.111-2.125 10.121-4.478 14.941-7.21 3.504-2.024 6.895-4.251 10.007-6.831m-26.808 86.565c5.592-14.383 10.703-28.956 15.27-43.694 4.339-14.155 8.211-28.45 11.538-42.871m-26.808 86.565c3.947-3.668 7.654-7.602 11.007-11.828 2.72-3.504 5.199-7.185 7.363-11.056 2.188-9.918 3.947-19.912 5.338-29.968 1.506-11.196 2.518-22.442 3.1-33.713m-63.86 111.888c-.377-12.929-1.395-25.832-2.877-38.685-1.759-14.801-4.159-29.513-7.034-44.125 9.371-2.249 18.682-4.724 27.879-7.577 7.074-2.211 14.086-4.636 20.946-7.463m-38.914 97.85c7.728-16.12 14.902-32.491 21.524-49.101 6.345-16.044 12.163-32.302 17.39-48.749m-38.914 97.85c7.351-3.908 14.513-8.154 21.361-12.866 5.49-3.819 10.755-7.928 15.693-12.451 1.383-11.27 2.199-22.603 2.551-33.948.339-12.879.075-25.744-.691-38.585m-101.943 123.695c-3.108-14.767-6.757-29.409-10.789-43.951-4.706-16.812-9.924-33.487-15.525-50.037 14.652-2.133 29.266-4.49 43.822-7.184 11.921-2.232 23.805-4.677 35.603-7.483m-53.111 108.655c10.064-17.735 19.594-35.782 28.57-54.103m-28.57 54.103c11.854-3.866 23.598-8.082 35.134-12.834 9.48-3.928 18.813-8.219 27.893-13.008-.387-12.933-1.397-25.829-2.881-38.675-1.771-14.804-4.154-29.521-7.035-44.138m0 0c-7.621 18.433-15.809 36.617-24.541 54.552m24.541-54.552c-7.621 18.433-15.809 36.63-24.541 54.552m-121.904 77.68c-6.474-16.567-13.267-33.01-20.297-49.342-8.066-18.709-16.435-37.282-25.033-55.743 20.09-1.697 40.15-3.616 60.189-5.832 17.419-1.956 34.816-4.136 52.169-6.649m-67.028 117.566c12.196-19.019 23.901-38.347 35.113-57.96 11.143-19.6 21.785-39.461 31.915-59.606m-67.028 117.566c16.938-3.343 33.795-7.07 50.534-11.305 14.385-3.665 28.666-7.714 42.8-12.27-3.108-14.772-6.756-29.407-10.789-43.943-4.707-16.827-9.924-33.494-15.517-50.048m-189.492 135.512c-9.856-18.138-19.778-36.251-29.746-54.328-11.151-20.193-22.37-40.361-33.632-60.505 24.397-.886 48.779-2.031 73.154-3.446 22.473-1.341 44.932-2.904 67.36-4.762m-77.136 123.041c13.527-19.725 26.639-39.734 39.368-59.988 13.001-20.772 25.588-41.789 37.768-63.053m-77.136 123.041c21.563-2.251 43.074-4.922 64.527-8.06 19.387-2.867 38.708-6.128 57.94-9.893-6.475-16.563-13.269-33.003-20.298-49.345-8.065-18.704-16.435-37.273-25.033-55.743m-220.378 132.186c-12.454-19.278-24.76-38.665-36.932-58.126-13.179-21.091-26.202-42.268-39.093-63.518 26.269.134 52.539.012 78.801-.368 25.705-.404 51.397-1.054 77.09-1.973m-79.866 123.985c13.49-19.731 26.691-39.646 39.655-59.732m-39.655 59.732c24.493-.674 48.965-1.765 73.421-3.322 23.309-1.507 46.589-3.431 69.824-5.821-9.857-18.15-19.779-36.25-29.754-54.326-11.144-20.209-22.362-40.381-33.625-60.516m-79.866 123.985c13.49-19.731 26.698-39.646 39.655-59.732m40.211-64.253c-13.142 21.581-26.536 43.003-40.211 64.253m-189.02 58.247c-13.656-19.797-26.986-39.814-40.029-60.04-13.64-21.182-26.96-42.585-39.978-64.16m80.007 124.2c11.865-19.024 23.631-38.109 35.317-57.243 12.763-20.913 25.432-41.887 38.019-62.91-26.054-.159-52.107-.564-78.153-1.251-25.073-.675-50.138-1.594-75.19-2.796m80.007 124.2c-13.656-19.797-26.987-39.814-40.033-60.027-13.637-21.195-26.956-42.598-39.974-64.173m80.007 124.2c-23.922-1.141-47.822-2.698-71.686-4.722-22.416-1.938-44.792-4.269-67.114-7.09 8.974-17.748 18.083-35.422 27.294-53.036 10.381-19.858 20.889-39.63 31.499-59.352m-58.793 112.397c-13.279-19.608-26.117-39.5-38.536-59.662-12.585-20.508-24.73-41.287-36.432-62.312m74.968 121.974c8.974-17.76 18.082-35.433 27.292-53.057 10.381-19.842 20.891-39.622 31.501-59.341-23.41-1.146-46.808-2.526-70.186-4.202-21.214-1.529-42.407-3.303-63.575-5.374m74.968 121.974c-13.279-19.608-26.12-39.5-38.538-59.662-12.584-20.508-24.729-41.287-36.43-62.312m74.968 121.974c-20.412-2.626-40.772-5.633-61.051-9.121-18.069-3.155-36.0675-6.692-53.9586-10.722 5.5216-16.083 11.4303-32.043 17.6139-47.892 7.1424-18.215 14.6467-36.282 22.4277-54.239m-40.0403 102.132c-11.6684-18.721-22.8269-37.751-33.4718-57.067-10.5108-19.179-20.5068-38.619-29.9619-58.344m63.4337 115.411c5.521-16.09 11.4277-32.044 17.6112-47.899 7.1425-18.211 14.6501-36.274 22.4311-54.238-18.652-1.836-37.2793-3.92-55.8681-6.302-15.9078-2.059-31.7833-4.354-47.6079-6.972m63.4337 115.411c-11.6684-18.721-22.8281-37.751-33.473-57.067-10.5109-19.166-20.5069-38.619-29.9607-58.344m63.4337 115.411c-15.5442-3.548-30.9991-7.468-46.3151-11.897-12.9897-3.784-25.86898-7.94-38.5696-12.617 2.28155-14.266 5.13881-28.421 8.41415-42.477 3.83736-16.264 8.22805-32.404 13.03685-48.42m-21.4512 90.896c-9.4199-17.333-18.3036-34.93-26.6262-52.813m26.6262 52.813c2.28092-14.259 5.13801-28.418 8.41379-42.478 3.83571-16.271 8.2276-32.405 13.03691-48.415-13.14312-2.187-26.2475-4.611-39.2831-7.385-10.4973-2.237-20.9458-4.712-31.3006-7.549m49.133 105.827c-9.4212-17.333-18.3049-34.93-26.6262-52.813m26.6262 52.813c-10.5347-3.911-20.9345-8.185-31.1055-12.972-8.2776-3.936-16.3886-8.198-24.22-12.959m28.6993-26.882c-8.0588-17.434-15.5765-35.105-22.5068-53.014m0 0c-2.2271 14.122-3.9594 28.307-5.0542 42.566-.9124 12.422-1.3395 24.87-1.1383 37.33m0 0c-7.1005-15.66-13.6747-31.534-19.6912-47.635-5.7483-15.534-10.9704-31.245-15.6221-47.132m35.3133 94.767c-.2014-12.463.2253-24.913 1.1356-37.338 1.0965-14.25 2.8288-28.437 5.0571-42.562-8.0761-2.228-16.0905-4.683-23.9766-7.528-5.9548-2.165-11.8315-4.557-17.5294-7.339m35.3133 94.767c-6.2884-3.878-12.3779-8.057-18.1351-12.677-4.609-3.751-8.9798-7.767-12.9971-12.148m-4.1811-69.942c-.32 12.4-.147 24.787.607 37.162.7097 10.977 1.8771 21.916 3.5741 32.78m0 0c-5.0941-13.901-9.7101-27.98-13.8181-42.21-3.897-13.661-7.324-27.435-10.249-41.336m24.0671 83.546c-1.6969-10.86-2.8653-21.796-3.5751-32.782-.755-12.368-.926-24.761-.606-37.155-4.184-2.078-8.264-4.359-12.105-7.02-2.785-1.951-5.428-4.118-7.781-6.589m24.0671 83.546c-3.2451-3.573-6.2351-7.375-8.8891-11.417-2.19-3.371-4.135-6.907-5.8-10.569-2.265-9.605-4.152-19.287-5.684-29.031-1.661-10.784-2.882-21.631-3.694-32.529m963.038 256.867c1.507-6.801 2.48-13.696 3.083-20.626.695-8.574.822-17.173.556-25.771 9.549-5.202 18.854-10.799 27.836-16.918 7.59-5.214 14.914-10.788 21.879-16.802m-53.354 80.117c9.758-12.63 19.075-25.585 27.94-38.853 8.946-13.453 17.417-27.219 25.414-41.264m-53.354 80.117c7.753-5.99 15.251-12.317 22.401-19.027 6.234-5.909 12.203-12.086 17.835-18.551 2.816-6.258 5.237-12.666 7.323-19.201 2.388-7.66 4.3-15.447 5.795-23.338m-114.243 117.849c-.9-7.659-2.231-15.25-3.813-22.785-2.06-9.73-4.53-19.347-7.23-28.907 13.922-4.78 27.694-10.003 41.215-15.819 11.678-5.076 23.162-10.561 34.361-16.616m-64.533 84.127c11.529-13.031 22.603-26.46 33.234-40.254 10.915-14.271 21.352-28.907 31.299-43.873m-64.533 84.127c11.347-5.747 22.467-11.927 33.279-18.653 9.492-5.941 18.712-12.28 27.601-19.086 1.513-6.783 2.492-13.68 3.084-20.622.706-8.57.831-17.173.569-25.766m-148.87 117.941c-4.167-8.612-8.421-17.189-12.735-25.732-5.505-10.902-11.1-21.782-16.738-32.628 18.336-3.69 36.561-7.872 54.647-12.635 16.19-4.328 32.243-9.125 48.122-14.514m-73.296 85.509c12.801-13.006 25.129-26.458 37.035-40.301 12.565-14.682 24.642-29.766 36.261-45.208m-73.296 85.509c15.228-4.833 30.287-10.178 45.124-16.126 13.299-5.39 26.383-11.249 39.209-17.69-.894-7.648-2.236-15.241-3.813-22.789-2.057-9.717-4.529-19.344-7.224-28.904m-179.543 110.819c-7.615-9.65-15.036-19.44-22.348-29.322-8.954-12.117-17.729-24.366-26.38-36.692m48.728 66.014c13.09-12.51 25.737-25.47 38.005-38.773 13.372-14.585 26.277-29.576 38.775-44.91m-76.78 83.683c18.64-3.19 37.177-6.95 55.571-11.32 17.05-4.1 33.959-8.74 50.682-13.99-4.166-8.616-8.428-17.187-12.734-25.734-5.506-10.917-11.1-21.789-16.739-32.639m-125.508 17.669c21.748-1.928 43.444-4.373 65.067-7.402 20.237-2.887 40.387-6.279 60.441-10.267m-125.508 17.669c-22.696 1.963-45.427 3.359-68.189 4.199-23.177.829-46.36 1.08-69.551.796 11.1 13.754 22.444 27.3 34.128 40.579 9.997 11.31 20.238 22.4 30.812 33.2m72.8-78.774c-12.173 14.604-24.678 28.936-37.583 42.894m37.583-42.894c8.65 12.325 17.427 24.573 26.373 36.691 7.312 9.883 14.741 19.663 22.354 29.313-19.727 3.33-39.559 6.03-59.457 8.14-20.638 2.16-41.335 3.68-62.07 4.63m0 0c12.107-11.6 23.813-23.6 35.217-35.88m-35.217 35.88c12.107-11.6 23.82-23.58 35.217-35.88m-161.187 33.8c-12.507-11.87-24.603-24.16-36.371-36.76-13.173-14.178-25.922-28.747-38.318-43.6 22.176 2.557 44.41 4.535 66.686 5.989 22.987 1.454 46.004 2.339 69.032 2.678-10.523 13.377-21.259 26.591-32.302 39.563-9.337 10.92-18.881 21.66-28.727 32.13zm0 0c-12.507-11.87-24.604-24.16-36.372-36.76-13.173-14.178-25.921-28.747-38.316-43.6-7.86 11.913-15.793 23.782-23.843 35.564-6.494 9.496-13.062 18.926-19.754 28.286 19.05 3.92 38.217 7.2 57.474 9.93 20.201 2.81 40.479 4.99 60.811 6.58zm-118.286-16.51c-13.13-12.69-25.805-25.835-38.088-39.334-13.263-14.66-26.048-29.741-38.41-45.164m76.498 84.498c6.691-9.35 13.259-18.78 19.75-28.278 8.052-11.786 15.986-23.66 23.847-35.567-20.976-2.477-41.885-5.451-62.702-9.022-19.237-3.35-38.378-7.187-57.393-11.631m76.498 84.498c-13.13-12.69-25.806-25.835-38.092-39.334-13.259-14.66-26.044-29.741-38.406-45.164m76.498 84.498c-17.802-3.71-35.482-7.96-53.001-12.84-16.073-4.54-31.992-9.578-47.701-15.239 3.225-8.358 6.639-16.628 10.155-24.854 4.537-10.592 9.244-21.106 14.049-31.565m-24.203 56.417c-12.531-13.066-24.5931-26.569-36.2202-40.443-12.1799-14.627-23.8643-29.636-35.0802-45.005m71.3004 85.448c3.224-8.358 6.638-16.627 10.153-24.85 4.537-10.594 9.245-21.109 14.052-31.568-17.184-4.056-34.249-8.595-51.1429-13.74-14.9571-4.583-29.7671-9.639-44.3625-15.29m71.3004 85.448c-12.531-13.066-24.5943-26.569-36.2214-40.443-12.1799-14.627-23.8631-29.636-35.079-45.005m71.3004 85.448c-14.181-5.168-28.1715-10.808-41.9119-17.054-12.2293-5.606-24.2384-11.672-35.9531-18.289.1326-7.392.7628-14.773 1.6841-22.109 1.2168-9.403 2.9054-18.727 4.8805-27.996m-6.5656 50.111c-11.0837-12.958-21.7031-26.306-31.8729-39.985m31.8729 39.985c.1316-7.4.7607-14.777 1.6826-22.109 1.2159-9.413 2.9076-18.734 4.883-27.999-12.6885-4.952-25.1963-10.339-37.4422-16.309-10.4867-5.159-20.75949-10.729-30.7246-16.837m61.6012 83.254c-11.0837-12.958-21.7042-26.306-31.8729-39.985m31.8729 39.985c-10.3173-5.867-20.3853-12.158-30.1274-18.952-8.52155-5.982-16.773185-12.329-24.68394-19.112-1.97086-6.599-3.43606-13.347-4.51706-20.153-1.273-8.292-1.9754-16.653-2.2728-25.037m29.7283 43.269c-10.3963-14.091-20.30422-28.514-29.7283-43.269m29.7283 43.269c-10.39744-14.091-20.30422-28.514-29.7283-43.269m-19.6263 6.921c8.3649 13.063 17.171 25.824 26.41732 38.27-1.97132-6.613-3.43722-13.354-4.51892-20.154-1.2715-8.301-1.9736-16.661-2.2706-25.044-8.4405-5.228-16.6377-10.816-24.4868-16.894-6.6171-5.181-12.9641-10.688-18.9444-16.579m23.8034 40.401c-8.3963-13.192-16.3339-26.663-23.8034-40.401m23.8034 40.401c-8.3963-13.192-16.3351-26.663-23.8034-40.401m23.8034 40.401c8.3649 13.063 17.171 25.824 26.41849 38.27-6.90129-5.949-13.52539-12.213-19.81999-18.815-5.4959-5.798-10.7274-11.841-15.6609-18.128-2.9994-6.171-5.6577-12.493-7.9969-18.943-2.6722-7.463-4.9009-15.078-6.7441-22.785m-38.1122-84.184c5.2945 14.323 11.0914 28.465 17.3697 42.4 6.4304 14.165 13.352 28.088 20.7442 41.779m-38.1139-84.179c1.537 9.606 3.4839 19.139 5.8843 28.562 2.1548 8.329 4.6562 16.561 7.5272 24.672 3.197 5.204 6.6942 10.213 10.4579 15.029 4.4226 5.593 9.1931 10.882 14.2445 15.916m-38.1139-84.179c5.2945 14.323 11.0914 28.465 17.3697 42.387 6.4304 14.178 13.352 28.101 20.7442 41.792m-38.1139-84.179c4.0165 4.377 8.3893 8.39 12.9969 12.135 5.7579 4.62 11.8465 8.803 18.1346 12.67.2152 10.749.8974 21.473 2.1718 32.149 1.1358 9.156 2.7069 18.239 4.8106 27.225m-6.9848-59.358c7.3045 15.981 15.1481 31.711 23.5093 47.164 8.4572 15.525 17.4283 30.762 26.9062 45.687m-50.4155-92.851c.2162 10.746.8982 21.468 2.1747 32.143 1.1336 9.149 2.7054 18.251 4.808 27.232 5.9811 5.895 12.3274 11.395 18.9438 16.582 7.8496 6.075 16.0462 11.671 24.489 16.894m-50.4155-92.851c7.3045 15.981 15.1481 31.711 23.5105 47.164 8.456 15.525 17.4271 30.762 26.905 45.687m-50.4155-92.851c7.8316 4.766 15.943 9.029 24.2225 12.967 10.1708 4.779 20.5697 9.054 31.1031 12.968-1.8913 12.079-3.367 24.206-4.2496 36.406-.6953 10.158-.9763 20.328-.6605 30.51m4.9108-66.921c9.534818 17.429 19.60402 34.549 30.1993 51.362 10.5111 16.575 21.527 32.818 33.056 48.707m-63.2553-100.069c-1.8911 12.085-3.3663 24.206-4.2478 36.409-.6956 10.154-.9775 20.332-.6623 30.509 9.96368 6.102 20.23666 11.682 30.7229 16.836 12.2458 5.96 24.7535 11.35 37.4425 16.315m-63.2553-100.069c9.536002 17.429 19.6039 34.549 30.2004 51.362 10.5111 16.575 21.5259 32.818 33.0549 48.707m-63.2553-100.069c12.70084 4.68 25.5805 8.839 38.5704 12.63 15.3171 4.431 30.7704 8.353 46.3149 11.896-4.6424 13.601-9.0087 27.309-12.9603 41.136-3.2252 11.374-6.1684 22.843-8.6697 34.407m21.6302-75.549c11.5441 18.424 23.5771 36.532 36.1082 54.312 12.121 17.102 24.698 33.876 37.765 50.265m-73.8732-104.577c-4.6431 13.604-9.0066 27.314-12.9595 41.14-3.2253 11.382-6.1686 22.846-8.6709 34.403 14.5938 5.65 29.4029 10.703 44.3617 15.301 16.8949 5.135 33.9579 9.662 51.1419 13.733m-73.8732-104.577c11.5452 18.424 23.5771 36.532 36.1112 54.312 12.119 17.102 24.695 33.865 37.762 50.265m-73.8732-104.577c17.8916 4.036 35.8902 7.568 53.9582 10.727 20.281 3.486 40.637 6.492 61.051 9.101m-41.136 84.749c5.972-12.985 12.099-25.875 18.323-38.731 7.477-15.406 15.095-30.741 22.813-46.018m0 0c12.766 18.776 25.93 37.263 39.532 55.437 12.747 16.959 25.87 33.628 39.427 49.95m-78.959-105.387c-7.717 15.292-15.334 30.618-22.808 46.014-6.228 12.85-12.355 25.745-18.328 38.734 19.015 4.433 38.156 8.276 57.392 11.622 20.818 3.565 41.725 6.552 62.703 9.017m-78.959-105.387c12.766 18.776 25.93 37.263 39.533 55.437 12.747 16.959 25.869 33.628 39.426 49.95m-78.959-105.387c22.323 2.824 44.699 5.163 67.116 7.096 23.864 2.014 47.762 3.577 71.683 4.723-10.538 16.878-21.157 33.709-31.879 50.471-9.234 14.424-18.543 28.79-27.961 43.097m59.839-93.568c12.693 18.36 25.662 36.512 38.959 54.435 12.016 16.151 24.3 32.106 36.917 47.797m-75.876-102.232c-10.537 16.876-21.155 33.717-31.876 50.478-9.235 14.425-18.546 28.793-27.965 43.092 22.175 2.565 44.41 4.543 66.685 5.993 22.988 1.449 46.004 2.335 69.032 2.669m-75.876-102.232c12.694 18.36 25.663 36.512 38.961 54.435 12.022 16.151 24.305 32.106 36.915 47.797m-75.876-102.232c24.782 1.151 49.576 1.841 74.388 2.106 24.997.241 49.985.034 74.975-.622-12.417 18.13-25.063 36.075-38.006 53.814-11.58 15.84-23.383 31.508-35.481 46.934m216.731-109.89c8.54 15.743 17.035 31.498 25.463 47.299 7.074 13.283 14.097 26.589 21.045 39.941-20.046 3.973-40.203 7.369-60.434 10.257-21.622 3.038-43.319 5.486-65.066 7.404m78.992-104.901c-12.89 18.723-26.151 37.204-39.818 55.372-12.69 16.795-25.728 33.335-39.174 49.529m78.992-104.901c-23.235 2.391-46.514 4.32-69.832 5.833-24.448 1.547-48.92 2.645-73.413 3.315 11.174 17.268 22.473 34.443 33.935 51.526 9.968 14.842 20.055 29.592 30.318 44.227m201.456-122.848c5.468 14.063 10.707 28.219 15.606 42.48 4.011 11.765 7.791 23.601 11.204 35.564-15.866 5.388-31.924 10.18-48.114 14.494-18.085 4.781-36.31 8.967-54.655 12.652m75.959-105.19c-11.988 18.599-24.434 36.883-37.369 54.817-12.409 17.129-25.263 33.943-38.59 50.373m75.959-105.19c-19.24 3.755-38.561 7.02-57.941 9.888-21.451 3.137-42.963 5.808-64.526 8.058 8.54 15.742 17.035 31.507 25.463 47.307 7.075 13.281 14.097 26.586 21.045 39.937m169.293-128.78c2.586 12.478 4.794 25.027 6.435 37.658 1.322 10.472 2.267 20.978 2.633 31.52-11.204 6.057-22.692 11.558-34.363 16.61-13.527 5.82-27.29 11.05-41.225 15.831m66.52-101.619c-10.129 17.755-20.778 35.203-31.962 52.321-11.019 16.775-22.532 33.22-34.558 49.298m66.52-101.619c-14.131 4.556-28.411 8.606-42.795 12.277-16.739 4.226-33.603 7.957-50.534 11.309 5.468 14.049 10.708 28.203 15.606 42.476 4.019 11.758 7.792 23.599 11.203 35.557m129.554-127.454c.288 11.091.108 22.181-.681 33.248-.706 9.403-1.867 18.771-3.59 28.067-6.963 6.005-14.286 11.581-21.883 16.797-8.974 6.101-18.282 11.712-27.818 16.905m53.972-95.017c-7.908 16.415-16.355 32.554-25.329 48.394-9.033 15.864-18.593 31.405-28.643 46.623m53.972-95.017c-9.093 4.798-18.413 9.081-27.901 13.005-11.546 4.75-23.271 8.973-35.14 12.837 2.596 12.466 4.798 25.028 6.437 37.662 1.328 10.468 2.261 20.973 2.632 31.513m91.006-120.332c-1.261 9.889-2.945 19.73-5.139 29.461-1.963 8.544-4.303 16.991-7.042 25.305-3.83 5.429-7.987 10.604-12.423 15.537-5.224 5.78-10.823 11.21-16.701 16.324m41.305-86.627c-5.806 14.785-12.12 29.364-18.932 43.725-6.969 14.555-14.422 28.856-22.373 42.902m41.305-86.627c-4.921 4.52-10.193 8.629-15.683 12.458-6.86 4.714-14.011 8.956-21.356 12.859.291 11.089.109 22.19-.679 33.242-.715 9.417-1.866 18.785-3.587 28.068m-903.98036 69.668c9.086169 12.165 18.58196 24.006 28.49176 35.512 9.6141 11.093 19.601 21.841 29.9673 32.231m-58.45906-67.743c1.6641 5.469 3.66973 10.826 6.07604 16.015 2.052513 4.353 4.37624 8.571 6.9868 12.622 6.61512 6.752 13.50142 13.236 20.63222 19.441 7.9779 6.897 16.2448 13.448 24.764 19.665m-58.45906-67.743c9.086169 12.165 18.58306 24.006 28.49286 35.512 9.613 11.093 19.5999 21.841 29.9662 32.231m-58.45906-67.743c7.912031 6.775 16.16335 13.125 24.68366 19.118 9.7424 6.785 19.8108 13.068 30.1269 18.938-.0714 5.681.1518 11.362.8739 16.998.5804 4.296 1.4543 8.548 2.7746 12.689m-3.6465-29.691c10.673 12.413 21.7579 24.443 33.2777 36.08 10.9319 10.956 22.2351 21.546 33.9351 31.696m-67.2128-67.776c-.071 5.671.1519 11.353.8753 16.991.5803 4.294 1.4534 8.556 2.7735 12.697 9.5047 6.884 19.3023 13.338 29.3447 19.418 11.145 6.7 22.5683 12.9 34.2193 18.67m-67.2128-67.776c10.673 12.413 21.759 24.443 33.2788 36.08 10.9309 10.956 22.236 21.546 33.934 31.696m-67.2128-67.776c11.7155 6.611 23.7249 12.686 35.9539 18.28 13.7392 6.251 27.7309 11.889 41.9099 17.057-2.39 6.229-4.679 12.489-6.749 18.819-1.455 4.49-2.805 9.02-3.902 13.62m0 0c12.822 6.3 25.894 12.05 39.168 17.33 14.451 5.7 29.115 10.82 43.949 15.42-12.372-9.5-24.349-19.48-35.972-29.88-12.587-11.33-24.738-23.12-36.494-35.308m-10.651 32.438c1.097-4.59 2.448-9.13 3.904-13.62 2.07-6.33 4.358-12.595 6.747-18.818m0 0c11.756 12.188 23.908 23.978 36.496 35.308 11.621 10.4 23.598 20.38 35.969 29.88 4.243-5.09 8.336-10.3 12.359-15.56 5.407-7.1 10.679-14.3 15.879-21.55-17.802-3.7-35.482-7.96-53-12.84-16.074-4.53-31.992-9.572-47.703-15.238zm100.7 28.088c11.927 11.47 24.214 22.55 36.923 33.14 11.349 9.4 23.02 18.4 35.072 26.89m-71.995-60.03c-5.199 7.25-10.471 14.45-15.877 21.55-4.023 5.26-8.117 10.46-12.361 15.55 15.939 4.9 32.048 9.19 48.293 12.96 17.196 3.92 34.518 7.23 51.94 9.97m-71.995-60.03c11.928 11.47 24.215 22.55 36.925 33.14 11.349 9.4 23.018 18.4 35.07 26.89m-71.995-60.03c19.048 3.92 38.215 7.22 57.472 9.94 20.201 2.8 40.479 4.98 60.81 6.57-8.097 8.57-16.393 16.96-24.991 25.03-6.878 6.42-13.939 12.64-21.296 18.49m46.289-43.52c10.931 10.32 22.166 20.32 33.789 29.86 9.968 8.12 20.202 15.9 30.798 23.18m-64.587-53.04c-8.097 8.57-16.393 16.95-24.99 25.03-6.878 6.41-13.941 12.63-21.299 18.49 18.139 2.8 36.362 4.99 54.646 6.59m-8.357-50.11c10.933 10.32 22.168 20.31 33.789 29.85 9.968 8.13 20.202 15.91 30.798 23.19m-64.587-53.04c20.892 1.59 41.818 2.56 62.773 2.94 21.068.31 42.143.03 63.195-.86-10.456 9.96-21.193 19.61-32.307 28.82-9.406 7.76-19.062 15.19-29.074 22.14m0 0c-18.774-.36-37.521-1.34-56.23-2.93m0 0c-18.285-1.6-36.508-3.79-54.647-6.59 10.61 7.42 21.496 14.42 32.711 20.89 9.766 5.58 19.762 10.76 30.02 15.38m-8.084-29.68c18.709 1.59 37.456 2.56 56.23 2.93-8.325 5.74-16.872 11.14-25.722 16.03-7.273 3.99-14.733 7.61-22.424 10.72m231.054-90.47c6.008 7.59 12.128 15.09 18.448 22.43 4.795 5.55 9.709 11 14.821 16.28-16.656 4.38-33.469 8.15-50.391 11.36-17.753 3.34-35.616 6.04-53.546 8.18m70.668-58.25c-11.78 11.18-23.901 22-36.436 32.32m36.436-32.32c-19.735 3.32-39.559 6.02-59.457 8.15-20.638 2.14-41.335 3.66-62.069 4.61 8.82 8.94 17.87 17.67 27.246 26.04 7.629 6.78 15.458 13.31 23.612 19.45m0 0c11.766-8.17 23.154-16.85 34.232-25.93m-34.232 25.93c11.759-8.17 23.154-16.85 34.232-25.93m142.691-57.64c3.111 6.46 6.191 12.94 9.144 19.47 2.11 4.66 4.156 9.33 6.096 14.06-13.731 5.99-27.686 11.41-41.827 16.35-15.288 5.28-30.769 9.97-46.397 14.14m72.984-64.02c-11.906 12.04-24.205 23.68-36.932 34.85-11.655 10.16-23.657 19.92-36.052 29.17m72.984-64.02c-16.731 5.26-33.639 9.89-50.688 14-18.396 4.37-36.925 8.13-55.565 11.31 6.008 7.6 12.128 15.1 18.448 22.44 4.795 5.55 9.708 11 14.821 16.27m72.984-64.02c-11.906 12.04-24.205 23.68-36.939 34.85-11.655 10.16-23.65 19.92-36.045 29.17m157.314-97.825c.652 5.78 1.054 11.582.989 17.405-.065 4.303-.391 8.605-1.162 12.853-10.399 6.797-21.079 13.147-31.988 19.067-12.071 6.51-24.404 12.48-36.938 18.01m69.099-67.335c-11.039 12.397-22.491 24.413-34.367 36.005-11.202 10.86-22.763 21.33-34.732 31.33m69.099-67.335c-12.821 6.443-25.924 12.299-39.224 17.688-14.82 5.943-29.881 11.288-45.11 16.127 3.115 6.46 6.185 12.94 9.153 19.48 2.101 4.65 4.151 9.32 6.082 14.04m129.985-105.073c-1.254 5.515-2.874 10.93-4.916 16.2-1.731 4.328-3.75 8.544-6.092 12.572-7.346 6.858-14.97 13.393-22.826 19.618-8.8 6.913-17.888 13.438-27.232 19.596m61.066-67.986c-9.554 12.272-19.508 24.201-29.884 35.774-10.009 11.107-20.407 21.848-31.182 32.212m61.066-67.986c-8.888 6.802-18.121 13.138-27.609 19.085-10.797 6.713-21.927 12.905-33.279 18.653.654 5.781 1.054 11.584.998 17.399-.066 4.305-.399 8.61-1.176 12.849m-63.648 52.647c-.416-2.04-1.036-4.05-1.687-6.02-1.079-3.23-2.307-6.39-3.588-9.54 12.548-5.52 24.873-11.51 36.941-18 10.915-5.94 21.584-12.28 31.986-19.086m-63.652 52.646c10.904-7.71 21.51-15.84 31.837-24.32m-31.837 24.32c10.413-5.69 20.612-11.75 30.577-18.19 9.131-5.94 18.049-12.19 26.721-18.77 1.463-2.02 2.659-4.19 3.641-6.47 1.25-2.97 2.104-6.07 2.713-9.216m-63.652 52.646c10.904-7.71 21.52-15.84 31.837-24.32m31.815-28.326c-10.274 9.816-20.879 19.276-31.815 28.326m-104.89 56.91c-3.109-2-6.024-4.29-8.837-6.68-4.039-3.47-7.872-7.18-11.594-10.99 15.628-4.15 31.108-8.85 46.396-14.14 14.139-4.93 28.093-10.36 41.828-16.35m-67.793 48.16c11.424-6.77 22.554-14.03 33.41-21.68m-33.41 21.68c13.015-4.69 25.854-9.85 38.484-15.49 11.728-5.28 23.267-10.97 34.576-17.11-.428-2.05-1.034-4.04-1.682-6.02-1.077-3.22-2.31-6.39-3.585-9.54m0 0c-11.132 9.26-22.588 18.1-34.383 26.48m34.383-26.48c-11.132 9.26-22.578 18.1-34.383 26.48m-120.844 45.73c-5.816-2.45-11.411-5.38-16.842-8.59-6.949-4.14-13.616-8.73-20.098-13.57 17.937-2.13 35.792-4.84 53.545-8.17 16.923-3.22 33.735-7 50.392-11.38m-66.997 41.71c11.091-5.57 21.917-11.67 32.484-18.18 11.833-7.35 23.325-15.24 34.513-23.53m-66.997 41.71c15.221-3.03 30.323-6.6 45.293-10.71 14.201-3.94 28.26-8.38 42.134-13.33-3.115-2-6.023-4.29-8.835-6.69-4.04-3.47-7.873-7.17-11.595-10.98m-164.246 53.72c-8.34-3.4-16.443-7.34-24.346-11.65-9.479-5.2-18.654-10.94-27.586-17.04 18.862.32 37.731.03 56.579-.86 18.595-.95 37.161-2.47 55.661-4.62m-60.308 34.17c9.812-4.28 19.365-9.1 28.704-14.33 10.84-6.12 21.355-12.78 31.604-19.84m-60.308 34.17c16.531-.89 33.017-2.33 49.453-4.33 16.013-2.01 31.952-4.56 47.795-7.67-5.816-2.46-11.411-5.39-16.85-8.6-6.948-4.15-13.615-8.72-20.09-13.57m-60.308 34.17c9.812-4.28 19.372-9.1 28.711-14.33 10.833-6.12 21.348-12.78 31.597-19.84m-160.383 32.22c-10.258-4.62-20.254-9.8-30.023-15.38-11.214-6.47-22.099-13.47-32.707-20.89-5.733 4.53-11.635 8.85-17.807 12.76-4.71 2.95-9.567 5.66-14.643 7.95 15.394 3.66 30.909 6.79 46.522 9.37 16.145 2.63 32.372 4.69 48.658 6.19zm-162.961-59.2c11.269 8.59 22.847 16.76 34.767 24.42 10.738 6.86 21.736 13.28 33.016 19.21 5.076-2.28 9.931-4.99 14.641-7.95 6.173-3.9 12.075-8.22 17.809-12.76-17.422-2.74-34.744-6.05-51.939-9.97-16.245-3.76-32.356-8.06-48.294-12.95zm0 0c11.269 8.59 22.845 16.76 34.766 24.42 10.738 6.86 21.736 13.28 33.018 19.21-14.688-3.55-29.243-7.61-43.639-12.2-13.567-4.38-26.972-9.22-40.184-14.58 2.384-1.97 4.598-4.15 6.745-6.37 3.229-3.38 6.297-6.9 9.294-10.48zm-16.038 16.84c-11.357-7.06-22.418-14.57-33.197-22.49-11.636-8.6-22.923-17.66-33.883-27.11 12.823 6.3 25.897 12.06 39.17 17.34 14.451 5.69 29.114 10.81 43.948 15.42-2.998 3.57-6.067 7.1-9.296 10.48-2.145 2.22-4.36 4.39-6.742 6.36zm0 0c-11.357-7.06-22.419-14.57-33.198-22.49-11.636-8.6-22.922-17.66-33.881-27.11-.723 3.09-1.338 6.2-1.656 9.36-.191 2.01-.265 4.02-.016 6.04m68.751 34.2c-12.32-5.03-24.453-10.5-36.367-16.43-11.008-5.53-21.814-11.44-32.384-17.77m0 0c10.849 6.97 45.03 28.64 60.765 38.61m7.988-4.4c10.428 6.44 21.086 12.49 31.982 18.12m-31.982-18.12c-1.487 1.22-3.036 2.38-4.736 3.28-1.021.53-2.102.97-3.252 1.12m7.988-4.4c10.428 6.44 21.087 12.49 31.982 18.12m-31.982-18.12c13.212 5.36 26.616 10.21 40.184 14.58 14.395 4.6 28.95 8.65 43.638 12.2-3.846 1.7-7.801 3.13-11.888 4.13-3.15.74-6.352 1.2-9.589 1.29m-30.363-14.08c9.941 5.07 20.062 9.78 30.363 14.08m0 0c-12.363-3.93-24.587-8.28-36.651-13.04-11.392-4.54-22.626-9.46-33.682-14.76m151.189 47.05c-9.651-2.99-19.151-6.42-28.501-10.24-10.506-4.34-20.795-9.18-30.878-14.42-3.846 1.69-7.8 3.13-11.886 4.11-3.152.75-6.355 1.22-9.592 1.3 12.978 4.09 26.091 7.71 39.319 10.9 13.747 3.26 27.598 6.04 41.538 8.35zm0 0c-9.651-2.99-19.151-6.42-28.5-10.24-10.506-4.34-20.796-9.18-30.88-14.42 15.394 3.67 30.909 6.78 46.522 9.38 16.144 2.62 32.369 4.68 48.657 6.18-6.299 2.5-12.733 4.64-19.311 6.28-5.427 1.31-10.927 2.29-16.488 2.82zm62.973 1.43c-9.242-3.03-18.294-6.57-27.174-10.54-6.299 2.5-12.73 4.65-19.308 6.29-5.43 1.31-10.93 2.28-16.491 2.82 14.325 2.32 28.723 4.15 43.174 5.5 14.678 1.31 29.396 2.13 44.13 2.43m-24.331-6.5c7.999 2.58 16.109 4.77 24.331 6.5m-24.331-6.5c-9.242-3.03-18.294-6.57-27.175-10.54 16.601 1.5 33.243 2.4 49.9 2.75 16.73.3 33.462.04 50.178-.81-8.414 3.62-16.99 6.83-25.744 9.52-7.503 2.28-15.118 4.16-22.828 5.58m145.815-27.08c4.521 1.88 9.16 3.46 13.933 4.58 3.774.86 7.607 1.42 11.469 1.58-13.415 3.66-26.956 6.83-40.594 9.55-14.089 2.76-28.267 5.04-42.511 6.82m57.703-22.53c-9.842 4.89-19.883 9.38-30.125 13.35m30.125-13.35c-15.844 3.11-31.782 5.66-47.795 7.67-16.435 2.01-32.921 3.44-49.453 4.32 6.927 2.78 13.993 5.19 21.215 7.08 6.031 1.55 12.143 2.73 18.33 3.46m0 0c9.33-2.63 18.528-5.71 27.578-9.18m-27.578 9.18c9.33-2.63 18.521-5.71 27.578-9.18m117.554-37.4c2.094 1.32 4.269 2.52 6.594 3.37 1.574.57 3.199.97 4.875 1.05-11.617 5.02-23.405 9.64-35.333 13.88-12.58 4.41-25.308 8.37-38.161 11.91m62.025-30.21c-10.419 6.13-21.06 11.87-31.938 17.15-9.856 4.75-19.883 9.11-30.087 13.06m62.025-30.21c-13.882 4.97-27.934 9.39-42.134 13.34-14.97 4.11-30.081 7.66-45.301 10.71 4.527 1.88 9.167 3.46 13.948 4.59 3.766.85 7.599 1.41 11.462 1.57m-121.079-1058.3968c-8.738-4.495-17.678-8.5753-26.839-12.1083-7.806-2.969-15.747-5.5398-23.835-7.6132 15.428-.2819 30.858-.0331 46.272.7464 15.272.8128 30.501 2.1563 45.671 4.0306-6.491 1.3435-12.861 3.1681-19.106 5.3741-7.586 2.7202-14.964 5.9545-22.163 9.5704zm-298.116 37.7675c1.151.7142 2.17 1.6069 3.151 2.5322 1.713 1.6394 3.295 3.4088 4.837 5.2111-12.649 5.161-25.105 10.761-37.328 16.865-11.234 5.649-22.255 11.703-33.022 18.196 10.215-8.148 20.709-15.924 31.484-23.326 10.062-6.85 20.354-13.3587 30.878-19.4783zm501.712-8.6237c10.641 5.8301 21.06 12.0672 31.242 18.663 10.982 7.165 21.674 14.722 32.1 22.669-11.566-6.303-23.376-12.133-35.385-17.539-13.01-5.798-26.232-11.0744-39.634-15.8785 2.154-1.9379 4.389-3.7944 6.801-5.3903 1.539-1.0097 3.136-1.9217 4.876-2.5242zm-564.076 51.427c-.297 2.731-.229 5.462-.008 8.193.354 4.04 1.051 8.049 1.887 12.025-11.8595 5.765-23.491 11.961-34.8351 18.684-10.1494 6.069-20.0448 12.537-29.6353 19.436 9.9785-10.716 20.3196-21.096 31.0312-31.093 10.1957-9.454 20.7125-18.541 31.5602-27.245zm685.403 27.716c9.93 8.99 19.535 18.328 28.829 27.981 9.619 10.049 18.885 20.445 27.787 31.125-7.275-6.857-14.853-13.382-22.696-19.575-8.828-6.936-17.967-13.462-27.364-19.592-.57-3.934-1.414-7.821-2.694-11.581-1.013-2.907-2.278-5.719-3.862-8.358zm-315.402-13.924c-10.826-11.326-21.94-22.392-33.425-33.052-9.783-9.035-19.824-17.761-30.228-26.0646 19.631-.325 39.256-.0325 58.866.8612 19.343.9425 38.641 2.4862 57.88 4.6637-8.509 7.4747-16.709 15.2747-24.699 23.3017-9.746 9.832-19.181 19.971-28.394 30.29zm-477.70659 83.587c-2.65805 4.796-4.98101 9.746-6.99791 14.849-2.3598 6.057-4.2722 12.268-5.8142 18.586-6.8088 5.749-13.3364 11.805-19.5165 18.231-5.3453 5.595-10.4123 11.437-15.1642 17.555 7.1517-12.144 14.7107-24.042 22.668-35.664 7.8957-11.467 16.1712-22.658 24.82481-33.557zm849.72159-10.553c9.124 11.022 17.864 22.337 26.21 33.946 8.45 11.84 16.494 23.943 24.115 36.323-5.497-6.298-11.336-12.272-17.448-17.968-7.081-6.53-14.518-12.659-22.229-18.448-1.116-6.406-2.612-12.735-4.594-18.925-1.674-5.11-3.672-10.112-6.054-14.928zm-897.2193 79.77c-2.9164 6.95-5.4532 14.065-7.6402 21.27-2.486 8.356-4.4921 16.816-6.0886 25.381-4.8972 4.634-9.5178 9.552-13.7827 14.783-3.5772 4.44-6.8838 9.089-9.8765 13.932 5.3232-12.9 11.0844-25.636 17.2701-38.147 6.283-12.63 12.9919-25.052 20.1179-37.219zm947.5493-9.504c7.622 12.455 14.814 25.165 21.563 38.1 6.667 12.875 12.891 25.975 18.655 39.27-3.641-5.072-7.629-9.874-11.891-14.435-5.113-5.402-10.589-10.429-16.332-15.156-1.236-8.779-2.901-17.482-5.083-26.081-1.909-7.352-4.196-14.6-6.912-21.698zm-489.483-60.589c-10.914-14.859-22.028-29.576-33.418-44.085-9.748-12.38-19.689-24.601-29.903-36.584 21.637-1.557 43.305-2.511 65.001-2.876 21.822-.318 43.651-.032 65.46.842-10.946 12.301-21.571 24.887-31.968 37.649-12.01 14.795-23.709 29.829-35.172 45.054zm-495.4525 145.461c-2.6496 8.85-4.9007 17.802-6.7796 26.841-2.0789 10.183-3.6769 20.467-4.8459 30.795-3.08 3.057-5.929 6.33-8.442 9.865-2.021 2.897-3.806 5.938-5.302 9.14 3.278-12.849 6.997-25.581 11.135-38.169 4.308-12.979 9.0585-25.812 14.2345-38.472zm1025.1475-7.502c5.624 13.063 10.796 26.301 15.511 39.728 4.535 13.035 8.635 26.2 12.268 39.525-2.013-3.386-4.337-6.568-6.896-9.547-3.242-3.72-6.815-7.091-10.611-10.23-.866-10.68-2.192-21.303-4.033-31.852-1.665-9.3-3.73-18.513-6.239-27.624zm-451.68 237.075c-13.341-23.257-26.727-46.486-40.173-69.687-13.297-22.922-26.647-45.817-40.054-68.67 26.542-.097 53.093-.014 79.642.265 25.966.292 51.925.752 77.891 1.406-12.483 22.505-25.056 44.94-37.716 67.347-13.113 23.159-26.307 46.277-39.59 69.339zm-605.819-87.98c-.352 12.527-.191 25.054.431 37.568.721 13.63 1.989 27.219 3.748 40.754-2.443-.272-4.883-.585-7.306-1.008-1.357-.231-2.717-.503-4.032-.912.232-12.364.916-24.714 2.03-37.023 1.233-13.181 2.953-26.321 5.129-39.379zm1091.178-2.533c2.538 13.578 4.602 27.223 6.148 40.951 1.392 12.787 2.34 25.615 2.798 38.483-1.88.409-3.782.695-5.691.954-3.182.437-6.379.75-9.575 1.036 2.184-14.054 3.855-28.177 4.951-42.368.961-12.991 1.436-26.024 1.369-39.056zm-485.355 90.516c13.075 22.819 26.099 45.664 39.063 68.548 12.335 21.773 24.612 43.572 36.828 65.397-25.691.916-51.384 1.57-77.091 1.962-26.261.392-52.531.51-78.801.379 13.336-22.296 26.574-44.644 39.723-67.044 13.519-23.029 26.942-46.109 40.278-69.242zm481.955 69.52c.605-12.487.658-24.988.25-37.489-.512-13.736-1.577-27.446-3.168-41.103 3.194-.303 6.389-.618 9.583-1.039 1.906-.276 3.799-.552 5.679-.973-1.012 13.132-2.497 26.224-4.469 39.251-2.117 13.88-4.759 27.669-7.875 41.353zm-562.186-207.878c-12.853-21.894-25.76-43.773-38.723-65.623-12.055-20.29-24.159-40.551-36.325-60.782 25.29-1 50.591-1.604 75.906-1.839 25.506-.206 51.014-.03 76.52.53-12.712 20.466-25.299 41.006-37.783 61.605-13.312 21.968-26.505 44.009-39.595 66.109zm.23 274.633c12.891 21.262 25.913 42.438 39.085 63.517 12.181 19.463 24.486 38.852 36.941 58.131-24.982.649-49.979.857-74.975.612-24.811-.257-49.607-.955-74.387-2.105 11.867-19.022 23.633-38.106 35.32-57.238 12.761-20.919 25.43-41.9 38.016-62.917zm480.716 148.983c2.816-6.257 5.244-12.667 7.318-19.195 2.392-7.659 4.301-15.46 5.809-23.343 5.869-5.113 11.466-10.534 16.698-16.319 4.431-4.937 8.591-10.11 12.421-15.542-6.164 12.867-12.774 25.51-19.786 37.93-7.07 12.408-14.565 24.568-22.46 36.469zm-926.35-9.815c-7.4126-11.667-14.4276-23.583-21.0367-35.723-6.5499-12.105-12.688-24.435-18.406-36.954 3.1963 5.206 6.6943 10.223 10.4574 15.028 4.4222 5.596 9.1924 10.886 14.2453 15.926 1.8413 7.704 4.072 15.324 6.7428 22.791 2.3383 6.437 4.9985 12.755 7.9972 18.932zm448.17 83.244c11.1 13.759 22.443 27.3 34.12 40.569 10.004 11.31 20.245 22.42 30.82 33.2-21.053.9-42.127 1.18-63.201.86-20.949-.37-41.877-1.34-62.769-2.93 9.848-10.47 19.393-21.21 28.729-32.13 11.042-12.965 21.778-26.18 32.301-39.569zm73.49-100.755c11.174 17.264 22.473 34.448 33.928 51.541 9.975 14.827 20.061 29.586 30.325 44.218-22.695 1.966-45.428 3.357-68.19 4.207-23.176.816-46.36 1.081-69.55.782 12.099-15.437 23.909-31.104 35.482-46.932 12.942-17.747 25.595-35.701 38.005-53.816zm446.936-47.069c2.734-8.324 5.076-16.759 7.038-25.303 2.194-9.734 3.874-19.567 5.137-29.46 3.948-3.678 7.663-7.613 11.01-11.843 2.734-3.494 5.198-7.172 7.368-11.046-4.131 13.13-8.705 26.101-13.719 38.912-5.174 13.106-10.789 26.027-16.834 38.74zm-1008.0379-8.091c-5.6004-12.356-10.7865-24.896-15.5435-37.596-4.6036-12.405-8.7946-24.945-12.5586-37.633 1.667 3.664 3.613 7.192 5.802 10.573 2.654 4.045 5.643 7.831 8.8885 11.421 1.5369 9.602 3.4833 19.143 5.8833 28.56 2.1541 8.336 4.6574 16.56 7.5283 24.675zm552.5519 229.694c8.821 8.95 17.872 17.68 27.246 26.05 7.623 6.77 15.459 13.31 23.614 19.45-18.501 2.14-37.066 3.68-55.661 4.6-18.847.9-37.718 1.19-56.579.86 10.012-6.95 19.668-14.39 29.073-22.13 11.114-9.22 21.859-18.88 32.307-28.83zm361.999-80.853c2.345-4.032 4.361-8.246 6.083-12.584 2.05-5.267 3.67-10.681 4.927-16.197 7.76-5.98 15.236-12.312 22.395-19.017 6.23-5.913 12.199-12.086 17.84-18.553-7.85 11.757-16.096 23.242-24.716 34.433-8.485 10.941-17.331 21.588-26.529 31.918zm-826.56122-10.58c-8.75944-10.271-17.16248-20.827-25.21018-31.667-8.1581-11.046-15.9371-22.353-23.3334-33.922 4.9354 6.286 10.1669 12.332 15.6638 18.139 6.2928 6.593 12.916 12.856 19.81692 18.8 1.66488 5.477 3.67028 10.829 6.07537 16.021 2.053203 4.35 4.37743 8.575 6.98749 12.629zm770.14122 65.483c1.463-2.01 2.664-4.19 3.647-6.48 1.245-2.96 2.108-6.06 2.708-9.204 9.337-6.159 18.434-12.689 27.225-19.601 7.863-6.224 15.485-12.765 22.834-19.611-8.954 9.98-18.226 19.655-27.825 29.013-9.238 8.943-18.772 17.583-28.589 25.883zm-662.855 27.1c-10.652-7.92-21.0062-16.21-31.0715-24.86-10.6121-9.18-20.8837-18.729-30.82-28.624 9.5054 6.887 19.3031 13.354 29.3458 19.424 11.1452 6.71 22.5677 12.91 34.2177 18.67-.722 3.08-1.339 6.2-1.658 9.35-.189 2-.264 4.03-.014 6.04zm295.895 49.82c8.931 6.09 18.107 11.84 27.586 17.04 7.903 4.31 16.005 8.24 24.344 11.64-16.715.84-33.446 1.11-50.177.81-16.664-.34-33.298-1.25-49.9-2.75 7.691-3.09 15.151-6.72 22.425-10.71 8.85-4.89 17.397-10.29 25.722-16.03zm51.934 28.68c6.926 2.78 13.993 5.18 21.215 7.08 6.031 1.54 12.143 2.72 18.33 3.46-14.549 1.78-29.149 3.06-43.785 3.84-14.77.75-29.554.99-44.332.72 7.71-1.42 15.325-3.31 22.828-5.58 8.754-2.7 17.33-5.91 25.744-9.52zm196.147-31.63c-1.672-.08-3.3-.49-4.876-1.04-2.324-.86-4.5-2.06-6.593-3.38 13.008-4.69 25.857-9.85 38.482-15.48 11.734-5.28 23.271-10.98 34.571-17.11-10.181 7.17-20.621 13.96-31.298 20.37-9.902 5.89-19.992 11.45-30.286 16.64z"></path><g filter="url(#a)"><rect y="187.156" x="130" width="247.468" rx="7.6982" height="89.4338" fill="#1a202c"></rect></g><g fill-rule="evenodd" fill="#fff" clip-rule="evenodd"><path d="m229.893 231.549h1.741c1.627 0 2.844-.324 3.652-.971s1.211-1.589 1.211-2.825c0-1.248-.338-2.17-1.015-2.765-.677-.596-1.738-.894-3.183-.894h-2.406zm11.946-3.985c0 2.702-.839 4.769-2.518 6.2-1.677 1.432-4.064 2.147-7.158 2.147h-2.27v8.932h-5.29v-25.111h7.969c3.027 0 5.328.655 6.904 1.966 1.575 1.311 2.363 3.267 2.363 5.866z"></path><path d="m255.863 225.279c.705 0 1.291.052 1.757.155l-.392 4.912c-.421-.114-.933-.172-1.536-.172-1.661 0-2.955.43-3.883 1.288-.927.859-1.39 2.062-1.39 3.608v9.773h-5.206v-19.203h3.943l.768 3.229h.255c.592-1.076 1.391-1.944 2.399-2.602 1.006-.658 2.101-.988 3.285-.988z"></path><path d="m260.382 244.843h5.205v-19.203h-5.205zm-.221-24.167c0-1.706.944-2.559 2.832-2.559s2.833.853 2.833 2.559c0 .813-.236 1.446-.708 1.898-.472.453-1.18.678-2.125.678-1.888 0-2.832-.858-2.832-2.576z"></path><path d="m283.913 239.14c0 1.97-.68 3.47-2.04 4.5-1.359 1.031-3.393 1.546-6.101 1.546-1.388 0-2.571-.094-3.549-.283-.979-.189-1.895-.467-2.748-.833v-4.329c.967.459 2.056.842 3.268 1.151s2.278.464 3.2.464c1.888 0 2.833-.55 2.833-1.649 0-.412-.125-.747-.375-1.005-.251-.257-.683-.549-1.298-.876-.614-.326-1.433-.707-2.457-1.142-1.467-.618-2.546-1.191-3.234-1.718-.688-.526-1.189-1.13-1.501-1.812-.314-.681-.47-1.52-.47-2.516 0-1.706.656-3.025 1.971-3.959 1.314-.933 3.177-1.399 5.589-1.399 2.298 0 4.534.504 6.707 1.511l-1.57 3.778c-.956-.412-1.849-.749-2.68-1.013-.83-.263-1.678-.395-2.542-.395-1.536 0-2.304.418-2.304 1.254 0 .47.248.876.742 1.219.495.344 1.579.854 3.251 1.529 1.491.607 2.583 1.174 3.277 1.7.694.527 1.206 1.134 1.536 1.821s.495 1.506.495 2.456z"></path><path d="m304.533 244.843h-5.205v-11.216c0-1.385-.231-2.425-.691-3.117-.461-.693-1.186-1.04-2.176-1.04-1.331 0-2.298.493-2.901 1.477-.603.985-.905 2.605-.905 4.861v9.035h-5.205v-19.203h3.976l.7 2.456h.291c.511-.881 1.251-1.572 2.218-2.07s2.076-.747 3.328-.747c2.856 0 4.79.94 5.803 2.817h.46c.512-.893 1.266-1.586 2.261-2.078.996-.493 2.119-.739 3.371-.739 2.161 0 3.798.559 4.906 1.675 1.11 1.116 1.664 2.905 1.664 5.367v12.522h-5.222v-11.216c0-1.385-.231-2.425-.691-3.117-.461-.693-1.186-1.04-2.176-1.04-1.274 0-2.227.459-2.859 1.374-.631.917-.947 2.37-.947 4.363z"></path><path d="m331.575 235.946-2.013.068c-1.514.046-2.64.321-3.379.825-.74.504-1.11 1.27-1.11 2.302 0 1.476.842 2.215 2.526 2.215 1.206 0 2.17-.349 2.892-1.048.723-.698 1.084-1.625 1.084-2.783zm1.536 8.897-1.007-2.611h-.136c-.877 1.111-1.778 1.881-2.706 2.31-.926.429-2.135.644-3.625.644-1.833 0-3.274-.526-4.327-1.58-1.052-1.053-1.578-2.553-1.578-4.5 0-2.038.708-3.541 2.124-4.509 1.417-.967 3.553-1.503 6.409-1.606l3.31-.103v-.842c0-1.946-.99-2.919-2.969-2.919-1.525 0-3.317.463-5.376 1.391l-1.724-3.538c2.196-1.157 4.631-1.735 7.304-1.735 2.56 0 4.523.561 5.889 1.683 1.364 1.122 2.047 2.828 2.047 5.118v12.797z"></path><path d="m204.021 245.261-20.969 6.163c-.641.188-1.255-.362-1.12-1.004l7.491-35.652c.14-.666 1.068-.772 1.36-.155l13.87 29.27c.262.552-.037 1.203-.632 1.378zm3.596-1.454-16.06-33.89c-.402-.848-1.243-1.407-2.196-1.459-.977-.057-1.852.412-2.346 1.209l-17.418 28.035c-.54.873-.529 1.951.031 2.814l8.514 13.106c.507.783 1.386 1.235 2.3 1.235.259 0 .52-.036.776-.111l24.714-7.264c.757-.223 1.376-.755 1.7-1.46.323-.706.317-1.514-.015-2.215z"></path></g><g filter="url(#b)"><rect y="187" x="466.039" width="248" rx="7.6982" height="90" fill="#1a202c"></rect></g><g clip-path="url(#g)"><g fill="#fafafa"><path d="m570.489 227.487v18.745h-5.767v-18.745h-4.005v-5.456h13.743v5.456z"></path><path d="m576.29 236.58v-14.549h5.766v14.549c0 2.728 1.278 4.616 4.11 4.616 2.728 0 4.04-1.923 4.04-4.651v-14.514h5.766v14.514c0 5.84-3.314 10.142-9.875 10.142-6.734 0-9.807-4.057-9.807-10.107z"></path><path d="m611.511 235.181 5.456 11.051h-6.181l-4.696-9.932h-1.555v9.932h-5.732v-24.201h8.219c5.007 0 7.528 2.623 7.528 7.204 0 2.693-1.106 4.757-3.039 5.946zm-6.976-8.114v4.477h2.004c1.312 0 2.071-.91 2.071-2.274 0-1.329-.794-2.203-2.071-2.203z"></path><path d="m624.771 230.733 3.004 1.189c3.108 1.294 4.939 3.392 4.939 6.995 0 4.896-3.42 7.763-8.219 7.763-6.838 0-8.08-4.511-7.873-8.043h5.455c-.068 1.539.518 3.042 2.418 3.042 1.312 0 2.279-.734 2.279-2.133 0-1.364-.967-2.028-2.521-2.623-1.209-.489-2.417-.944-3.729-1.608-2.418-1.26-3.695-3.638-3.695-6.575 0-4.232 3.038-7.17 7.7-7.17 5.629 0 7.667 3.253 7.424 7.554h-5.317c.034-1.503-.725-2.553-2.072-2.553-1.312 0-1.969.805-1.969 1.819s.553 1.714 2.176 2.343z"></path><path d="m646.353 221.57c7.804 0 12.674 5.421 12.674 12.485 0 7.065-4.836 12.625-12.502 12.625-7.803 0-12.568-5.42-12.568-12.52 0-7.029 5.041-12.59 12.396-12.59zm.138 19.655c4.213 0 6.492-3.148 6.492-7.1 0-3.951-2.417-7.099-6.527-7.099-4.212 0-6.457 3.148-6.457 7.099 0 3.987 2.521 7.1 6.492 7.1z"></path></g><path fill="#4ff8d2" d="m553.55 215.78-.808-.605-1.597 1.709-1.28-1.849-.736.339 1.013 2.584-.469.503-3.637-3.836-.824.408 3.234 6.952-3.03 1.065h-.073l-1.642-1.954-1.645 1.956h-9.524l-1.644-1.956-1.648 1.96h-.051l-3.047-1.072 3.235-6.951-.825-.408-3.637 3.836-.469-.503 1.014-2.585-.737-.338-1.28 1.849-1.597-1.709-.807.605 2.485 4.148-1.279 1.349.447 3.414 2.963 1.132-.006 1.476h-2.805v.637l1.086 1.549 1.719.623v10.021l4.395 6.54 1.007 2.453 1.583-2.309 1.641 2.309 1.436-2.309 1.583 2.309 1.583-2.309 1.437 2.309 1.64-2.309 1.583 2.309 1.007-2.453 4.395-6.54v-10.021l1.72-.623 1.086-1.549v-.637h-2.806l.004-1.48 2.953-1.128.447-3.414-1.279-1.349zm-12.835 26.904h-9.123l1.141-2.322 1.14 2.322 1.14-1.556 1.141 1.556 1.14-1.556 1.141 1.556 1.14-1.556 1.14 1.556 1.14-2.322 1.141 2.322zm5.585-10.623-4.743 1.559-.205 4.4-4.063.901-4.063-.901-.204-4.4-4.744-1.559v-2.349l6.133 1.738-.075 5.932h5.906l-.074-5.932 6.132-1.738z"></path></g><g filter="url(#c)"><path fill="#fff" d="m437.714 229.035c.263 0 .474.105.632.316.211.158.316.369.316.632v7.665c0 .264-.105.501-.316.712-.158.158-.369.237-.632.237h-10.827c-.263 0-.395.131-.395.395v10.668c0 .263-.105.501-.316.711-.158.158-.369.237-.632.237h-7.586c-.264 0-.501-.079-.712-.237-.158-.21-.237-.448-.237-.711v-10.668c0-.264-.131-.395-.395-.395h-10.826c-.264 0-.501-.079-.711-.237-.158-.211-.237-.448-.237-.712v-7.665c0-.263.079-.474.237-.632.21-.211.447-.316.711-.316h10.826c.264 0 .395-.132.395-.395v-10.906c0-.263.079-.474.237-.632.211-.211.448-.316.712-.316h7.586c.263 0 .474.105.632.316.211.158.316.369.316.632v10.906c0 .263.132.395.395.395z"></path></g></g></svg>