<svg xmlns="http://www.w3.org/2000/svg" fill="none" viewBox="0 0 844 474" height="474" width="844">
<g clip-path="url(#clip0_1456_1684)">
<rect fill="url(#paint0_linear_1456_1684)" height="474" width="844"></rect>
<g style="mix-blend-mode:soft-light">
<path fill-opacity="0.4" fill="url(#paint1_linear_1456_1684)" d="M421.5 200.787L478.714 533H364.286L421.5 200.787Z"></path>
<path fill-opacity="0.4" fill="url(#paint2_linear_1456_1684)" d="M397.38 205.572L671.299 472.098L572.201 514.455L397.38 205.572Z"></path>
<path fill-opacity="0.4" fill="url(#paint3_linear_1456_1684)" d="M445.62 205.572L270.799 514.455L171.701 472.098L445.62 205.572Z"></path>
<path fill-opacity="0.4" fill="url(#paint4_linear_1456_1684)" d="M469.739 236.5L21 278.857L21 194.143L469.739 236.5Z"></path>
<path fill-opacity="0.4" fill="url(#paint5_linear_1456_1684)" d="M463.277 218.644L103.264 421.432L46.0497 348.068L463.277 218.644Z"></path>
<path fill-opacity="0.4" fill="url(#paint6_linear_1456_1684)" d="M463.277 254.356L46.0497 124.932L103.264 51.5676L463.277 254.356Z"></path>
<path fill-opacity="0.4" fill="url(#paint7_linear_1456_1684)" d="M421.5 272.213L364.286 -60L478.714 -60L421.5 272.213Z"></path>
<path fill-opacity="0.4" fill="url(#paint8_linear_1456_1684)" d="M445.62 267.428L171.701 0.902077L270.799 -41.4551L445.62 267.428Z"></path>
<path fill-opacity="0.4" fill="url(#paint9_linear_1456_1684)" d="M397.38 267.428L572.201 -41.4551L671.299 0.902038L397.38 267.428Z"></path>
<path fill-opacity="0.4" fill="url(#paint10_linear_1456_1684)" d="M373.261 236.5L822 194.143L822 278.857L373.261 236.5Z"></path>
<path fill-opacity="0.4" fill="url(#paint11_linear_1456_1684)" d="M379.723 254.356L739.736 51.5677L796.95 124.932L379.723 254.356Z"></path>
<path fill-opacity="0.4" fill="url(#paint12_linear_1456_1684)" d="M379.723 218.644L796.95 348.068L739.736 421.432L379.723 218.644Z"></path>
</g>
<rect stroke-width="2" stroke="#4A5568" fill="#2D3748" rx="7" height="169" width="460" y="152" x="192"></rect>
<path fill="white" d="M268.816 266.811C265.033 266.811 261.709 266.108 258.845 264.703C256.035 263.244 253.846 261.217 252.279 258.623C250.712 255.975 249.928 252.868 249.928 249.301V238.115C249.928 234.494 250.712 231.387 252.279 228.793C253.846 226.199 256.035 224.199 258.845 222.794C261.709 221.335 265.033 220.606 268.816 220.606C274.436 220.606 278.921 222.065 282.272 224.983C285.622 227.847 287.379 231.765 287.541 236.737H277.408C277.246 234.413 276.408 232.63 274.895 231.387C273.436 230.09 271.41 229.441 268.816 229.441C266.114 229.441 263.979 230.198 262.412 231.711C260.845 233.17 260.061 235.278 260.061 238.034V249.301C260.061 252.057 260.845 254.192 262.412 255.705C263.979 257.218 266.114 257.975 268.816 257.975C271.41 257.975 273.436 257.353 274.895 256.111C276.408 254.814 277.246 253.003 277.408 250.679H287.541C287.379 255.651 285.622 259.596 282.272 262.514C278.921 265.379 274.436 266.811 268.816 266.811ZM310.611 266.811C306.018 266.811 302.397 265.595 299.749 263.163C297.101 260.731 295.777 257.462 295.777 253.354C295.777 248.977 297.236 245.6 300.155 243.222C303.073 240.844 307.207 239.655 312.557 239.655H323.662V235.845C323.662 233.684 322.96 232.008 321.555 230.819C320.15 229.576 318.231 228.955 315.799 228.955C313.584 228.955 311.746 229.441 310.287 230.414C308.828 231.387 307.963 232.711 307.693 234.386H297.804C298.29 230.171 300.182 226.82 303.478 224.335C306.775 221.849 310.99 220.606 316.124 220.606C321.582 220.606 325.878 221.984 329.012 224.74C332.201 227.442 333.795 231.117 333.795 235.764V266H323.987V258.218H322.365L323.987 256.029C323.987 259.326 322.771 261.947 320.339 263.892C317.907 265.838 314.665 266.811 310.611 266.811ZM313.935 259.191C316.799 259.191 319.123 258.461 320.906 257.002C322.744 255.543 323.662 253.652 323.662 251.328V245.897H312.719C310.666 245.897 309.017 246.491 307.774 247.68C306.531 248.869 305.91 250.436 305.91 252.382C305.91 254.489 306.612 256.165 308.018 257.408C309.477 258.596 311.449 259.191 313.935 259.191ZM362.783 266.811C359 266.811 355.677 266.108 352.813 264.703C350.003 263.244 347.814 261.217 346.247 258.623C344.68 255.975 343.896 252.868 343.896 249.301V238.115C343.896 234.494 344.68 231.387 346.247 228.793C347.814 226.199 350.003 224.199 352.813 222.794C355.677 221.335 359 220.606 362.783 220.606C368.403 220.606 372.889 222.065 376.239 224.983C379.59 227.847 381.346 231.765 381.508 236.737H371.376C371.214 234.413 370.376 232.63 368.863 231.387C367.404 230.09 365.377 229.441 362.783 229.441C360.081 229.441 357.947 230.198 356.379 231.711C354.812 233.17 354.029 235.278 354.029 238.034V249.301C354.029 252.057 354.812 254.192 356.379 255.705C357.947 257.218 360.081 257.975 362.783 257.975C365.377 257.975 367.404 257.353 368.863 256.111C370.376 254.814 371.214 253.003 371.376 250.679H381.508C381.346 255.651 379.59 259.596 376.239 262.514C372.889 265.379 368.403 266.811 362.783 266.811ZM391.447 266V206.825H401.58V221.416L401.337 229.928H404.093L401.337 232.279C401.337 228.604 402.391 225.74 404.498 223.686C406.66 221.632 409.605 220.606 413.334 220.606C417.711 220.606 421.197 222.065 423.791 224.983C426.439 227.901 427.763 231.819 427.763 236.737V266H417.63V237.791C417.63 235.089 416.927 233.008 415.522 231.549C414.117 230.09 412.145 229.36 409.605 229.36C407.119 229.36 405.147 230.117 403.687 231.63C402.282 233.143 401.58 235.305 401.58 238.115V266H391.447ZM438.35 266V256.759H453.914V230.576H440.377V221.416H463.641V256.759H477.422V266H438.35ZM457.967 213.959C455.913 213.959 454.292 213.445 453.103 212.419C451.914 211.338 451.32 209.906 451.32 208.122C451.32 206.339 451.914 204.934 453.103 203.907C454.292 202.826 455.913 202.286 457.967 202.286C460.02 202.286 461.642 202.826 462.831 203.907C464.019 204.934 464.614 206.339 464.614 208.122C464.614 209.906 464.019 211.338 462.831 212.419C461.642 213.445 460.02 213.959 457.967 213.959ZM485.415 266V221.416H495.304V229.928H498.06L495.304 232.279C495.304 228.604 496.358 225.74 498.466 223.686C500.627 221.632 503.573 220.606 507.301 220.606C511.679 220.606 515.164 222.065 517.758 224.983C520.406 227.901 521.73 231.819 521.73 236.737V266H511.598V237.791C511.598 235.089 510.895 233.008 509.49 231.549C508.085 230.09 506.113 229.36 503.573 229.36C501.087 229.36 499.114 230.117 497.655 231.63C496.25 233.143 495.548 235.305 495.548 238.115V266H485.415ZM538.478 280.591V272.161H551.691C553.961 272.161 555.663 271.593 556.798 270.458C557.933 269.378 558.501 267.81 558.501 265.757V262.433L558.663 254.084H556.474L558.663 251.895C558.663 255.516 557.582 258.353 555.42 260.407C553.313 262.406 550.448 263.406 546.828 263.406C542.288 263.406 538.668 261.866 535.965 258.786C533.317 255.705 531.993 251.544 531.993 246.302V237.629C531.993 232.441 533.317 228.307 535.965 225.226C538.668 222.146 542.288 220.606 546.828 220.606C550.448 220.606 553.313 221.632 555.42 223.686C557.582 225.686 558.663 228.496 558.663 232.116L556.474 229.928H558.663L558.419 221.416H568.552V266C568.552 270.485 567.066 274.025 564.094 276.619C561.121 279.267 557.041 280.591 551.853 280.591H538.478ZM550.232 254.651C552.826 254.651 554.826 253.895 556.231 252.382C557.69 250.815 558.419 248.653 558.419 245.897V238.115C558.419 235.359 557.69 233.224 556.231 231.711C554.826 230.144 552.826 229.36 550.232 229.36C547.638 229.36 545.639 230.117 544.234 231.63C542.829 233.143 542.126 235.305 542.126 238.115V245.897C542.126 248.707 542.829 250.869 544.234 252.382C545.639 253.895 547.638 254.651 550.232 254.651Z"></path>
<path fill="#4A5568" d="M578.005 277.186V268.027H616.914V277.186H578.005Z"></path>
<circle stroke-width="1.12616" stroke="#4A5568" r="6.1939" cy="175.757" cx="216.757"></circle>
<circle stroke-width="1.12616" stroke="#4A5568" r="6.1939" cy="175.757" cx="243.785"></circle>
<circle stroke-width="1.12616" stroke="#4A5568" r="6.1939" cy="175.757" cx="270.813"></circle>
</g>
<defs>
<linearGradient gradientUnits="userSpaceOnUse" y2="474" x2="422" y1="0" x1="422" id="paint0_linear_1456_1684">
<stop stop-color="#5A67D8"></stop>
<stop stop-color="#667EEA" offset="1"></stop>
</linearGradient>
<linearGradient gradientUnits="userSpaceOnUse" y2="533" x2="421.5" y1="200.787" x1="421.5" id="paint1_linear_1456_1684">
<stop stop-color="white"></stop>
<stop stop-opacity="0" stop-color="white" offset="1"></stop>
</linearGradient>
<linearGradient gradientUnits="userSpaceOnUse" y2="529.921" x2="536.016" y1="205.572" x1="397.38" id="paint2_linear_1456_1684">
<stop stop-color="white"></stop>
<stop stop-opacity="0" stop-color="white" offset="1"></stop>
</linearGradient>
<linearGradient gradientUnits="userSpaceOnUse" y2="529.921" x2="306.984" y1="205.572" x1="445.62" id="paint3_linear_1456_1684">
<stop stop-color="white"></stop>
<stop stop-opacity="0" stop-color="white" offset="1"></stop>
</linearGradient>
<linearGradient gradientUnits="userSpaceOnUse" y2="236.5" x2="21" y1="236.5" x1="469.739" id="paint4_linear_1456_1684">
<stop stop-color="white"></stop>
<stop stop-opacity="0" stop-color="white" offset="1"></stop>
</linearGradient>
<linearGradient gradientUnits="userSpaceOnUse" y2="469.916" x2="141.075" y1="218.644" x1="463.277" id="paint5_linear_1456_1684">
<stop stop-color="white"></stop>
<stop stop-opacity="0" stop-color="white" offset="1"></stop>
</linearGradient>
<linearGradient gradientUnits="userSpaceOnUse" y2="3.08368" x2="141.075" y1="254.356" x1="463.277" id="paint6_linear_1456_1684">
<stop stop-color="white"></stop>
<stop stop-opacity="0" stop-color="white" offset="1"></stop>
</linearGradient>
<linearGradient gradientUnits="userSpaceOnUse" y2="-60" x2="421.5" y1="272.213" x1="421.5" id="paint7_linear_1456_1684">
<stop stop-color="white"></stop>
<stop stop-opacity="0" stop-color="white" offset="1"></stop>
</linearGradient>
<linearGradient gradientUnits="userSpaceOnUse" y2="-56.9215" x2="306.984" y1="267.428" x1="445.62" id="paint8_linear_1456_1684">
<stop stop-color="white"></stop>
<stop stop-opacity="0" stop-color="white" offset="1"></stop>
</linearGradient>
<linearGradient gradientUnits="userSpaceOnUse" y2="-56.9215" x2="536.016" y1="267.428" x1="397.38" id="paint9_linear_1456_1684">
<stop stop-color="white"></stop>
<stop stop-opacity="0" stop-color="white" offset="1"></stop>
</linearGradient>
<linearGradient gradientUnits="userSpaceOnUse" y2="236.5" x2="822" y1="236.5" x1="373.261" id="paint10_linear_1456_1684">
<stop stop-color="white"></stop>
<stop stop-opacity="0" stop-color="white" offset="1"></stop>
</linearGradient>
<linearGradient gradientUnits="userSpaceOnUse" y2="3.08375" x2="701.925" y1="254.356" x1="379.723" id="paint11_linear_1456_1684">
<stop stop-color="white"></stop>
<stop stop-opacity="0" stop-color="white" offset="1"></stop>
</linearGradient>
<linearGradient gradientUnits="userSpaceOnUse" y2="469.916" x2="701.925" y1="218.644" x1="379.723" id="paint12_linear_1456_1684">
<stop stop-color="white"></stop>
<stop stop-opacity="0" stop-color="white" offset="1"></stop>
</linearGradient>
<clipPath id="clip0_1456_1684">
<rect fill="white" height="474" width="844"></rect>
</clipPath>
</defs>
</svg>
