<svg xmlns="http://www.w3.org/2000/svg" fill="none" viewBox="0 0 844 474" height="474" width="844">
<g clip-path="url(#clip0_9399_17470)">
<rect fill="#090A15" height="474" width="844"></rect>
<g clip-path="url(#clip1_9399_17470)" opacity="0.7">
<path stroke-linecap="round" stroke-miterlimit="10" stroke-width="9.35478" stroke="url(#paint0_linear_9399_17470)" d="M376.762 97.0547C346.104 112.395 318.964 135.736 298.818 166.374C292.251 176.337 286.708 186.706 282.125 197.289C281.186 199.444 280.334 201.62 279.481 203.817C273.853 218.197 270.036 233.026 267.862 247.939C256.968 323.019 288.947 401.234 356.359 445.633C418.526 486.576 495.234 488.496 557.465 457.368C588.123 442.028 615.262 418.687 635.409 388.049C641.976 378.085 647.519 367.716 652.102 357.134"></path>
<path stroke-linecap="round" stroke-miterlimit="10" stroke-width="9.35478" stroke="url(#paint1_linear_9399_17470)" d="M352.436 91.0625C326.022 107.299 302.677 129.402 284.555 156.968C271.614 176.66 262.276 197.697 256.371 219.31C255.689 221.764 255.092 224.238 254.495 226.713C248.589 251.761 247.246 277.428 250.188 302.518C257.437 364.498 290.93 422.978 346.957 459.889C420.062 508.043 511.671 506.421 581.748 463.345C608.163 447.109 631.508 425.005 649.63 397.44C662.571 377.747 671.908 356.71 677.814 335.098"></path>
<path stroke-linecap="round" stroke-miterlimit="10" stroke-width="9.35478" stroke="url(#paint2_linear_9399_17470)" d="M310.521 101.047C295.469 114.446 281.889 129.978 270.313 147.601C265.75 154.556 261.593 161.661 257.841 168.894C256.583 171.347 255.368 173.801 254.195 176.276C239.74 206.785 232.385 239.279 231.66 271.667C229.933 350.181 267.328 427.885 337.575 474.161C428.482 534.029 545.93 522.529 623.661 453.402C638.713 440.003 652.293 424.471 663.87 406.848C668.432 399.893 672.589 392.788 676.342 385.555"></path>
<path stroke-linecap="round" stroke-miterlimit="10" stroke-width="9.35478" stroke="url(#paint3_linear_9399_17470)" d="M281.934 105.195C260.785 127.939 243.495 154.992 231.599 185.673C224.393 204.235 219.553 223.138 216.888 242.062C216.462 245.156 216.078 248.271 215.779 251.365C212.56 282.728 215.374 313.984 223.476 343.64C243.9 418.336 298.137 482.769 375.654 512.873C474.853 551.426 583.838 522.773 652.274 449.187C673.423 426.443 690.713 399.39 702.609 368.71C709.815 350.148 714.655 331.244 717.32 312.32"></path>
<path stroke-linecap="round" stroke-miterlimit="10" stroke-width="9.35478" stroke="url(#paint4_linear_9399_17470)" d="M255.562 109.953C222.112 152.197 200.92 204.832 197.808 262.63C195.868 298.708 201.133 333.549 212.347 365.723C224.222 399.796 242.792 430.903 266.499 457.359C312.613 508.798 378.298 542.679 452.533 546.69C543.268 551.597 626.094 510.804 678.625 444.429C712.076 402.185 733.267 349.55 736.38 291.753C738.32 255.674 733.054 220.834 721.84 188.66"></path>
<path stroke-linecap="round" stroke-miterlimit="10" stroke-width="9.35478" stroke="url(#paint5_linear_9399_17470)" d="M265.666 72.9375C257.266 81.2583 249.271 90.1765 241.788 99.6921C232.898 110.979 225.031 122.734 218.102 134.853C148.75 256.166 176.785 413.686 289.735 502.676C404.455 593.053 567.251 581.618 668.518 481.448"></path>
<path stroke-linecap="round" stroke-miterlimit="10" stroke-width="9.35478" stroke="url(#paint6_linear_9399_17470)" d="M279.162 38.3125C254.111 58.0051 231.79 82.0075 213.327 110.064C210.15 114.885 207.166 119.75 204.309 124.678C189.833 149.641 179.323 175.926 172.564 202.766C141.907 324.72 189.343 458.237 300.097 531.162C412.003 604.854 555.121 594.699 655.066 516.077C680.117 496.385 702.438 472.382 720.901 444.326C724.077 439.505 727.062 434.64 729.919 429.712"></path>
<path stroke-linecap="round" stroke-miterlimit="10" stroke-width="9.35478" stroke="url(#paint7_linear_9399_17470)" d="M288.583 10.3828C253.981 33.5104 223.345 63.7641 199.062 100.675C185.716 120.986 174.971 142.257 166.763 164.105C158.321 186.528 152.565 209.549 149.367 232.762C132.951 351.665 184.011 475.155 290.693 545.412C401.597 618.465 541.538 613.515 645.598 544.004C680.2 520.877 710.836 490.623 735.119 453.713C748.465 433.401 759.21 412.13 767.418 390.282"></path>
<path stroke-linecap="round" stroke-miterlimit="10" stroke-width="9.35478" stroke="url(#paint8_linear_9399_17470)" d="M265.732 5.84373C207.721 48.856 162.95 110.665 141.865 185.446C138.54 197.223 135.917 209.021 133.913 220.82C122.209 289.712 132.549 358.348 160.328 418.621C200.323 505.371 276.519 574.797 375.377 602.682C479.992 632.21 587.229 608.805 668.456 548.575C726.466 505.563 771.237 443.754 792.322 368.973C795.648 357.196 798.27 345.398 800.274 333.599"></path>
<path stroke-linecap="round" stroke-miterlimit="10" stroke-width="9.35478" stroke="url(#paint9_linear_9399_17470)" d="M143.358 131.641C121.036 181.139 109.758 236.483 112.551 294.345C114.15 327.351 120.226 359.077 130.161 389.01C141.546 423.339 158.026 455.278 178.62 483.996C246.544 578.619 359.537 638.059 484.234 632.043C621.916 625.386 737.723 540.663 790.872 422.784C813.194 373.286 824.472 317.942 821.679 260.08C820.08 227.074 814.004 195.348 804.069 165.415"></path>
<path stroke-linecap="round" stroke-miterlimit="10" stroke-width="9.35478" stroke="url(#paint10_linear_9399_17470)" d="M198.764 19.3047C183.286 35.4343 169.066 53.1854 156.339 72.5153C146.276 87.8342 137.492 103.644 129.966 119.773C121.247 138.463 114.211 157.622 108.796 177.038C66.5623 328.754 124.253 497.07 262.595 588.172C414.624 688.3 613.726 662.036 735.46 535.068C750.938 518.939 765.158 501.188 777.886 481.858C787.949 466.539 796.732 450.729 804.258 434.6"></path>
<path stroke-linecap="round" stroke-miterlimit="10" stroke-width="9.35478" stroke="url(#paint11_linear_9399_17470)" d="M151.67 49.2578C148.387 53.8022 145.189 58.4107 142.076 63.1258C113.743 106.223 95.1095 152.927 85.6224 200.654C55.5833 351.581 117.047 512.771 253.193 602.444C427.693 717.357 661.461 673.086 782.513 505.111"></path>
<path stroke-linecap="round" stroke-miterlimit="10" stroke-width="9.35478" stroke="url(#paint12_linear_9399_17470)" d="M105.77 91.6093C97.2207 108.251 89.9294 125.277 83.8746 142.58C66.2221 192.953 59.0162 245.523 61.6384 297.326C67.9916 422.309 131.588 542.791 243.813 616.718C430.891 739.93 683.228 687.85 806.348 500.653C814.471 488.3 821.805 475.669 828.414 462.804C836.963 446.162 844.254 429.137 850.309 411.833"></path>
<path stroke-linecap="round" stroke-miterlimit="10" stroke-width="9.35478" stroke="url(#paint13_linear_9399_17470)" d="M117.944 37.9062C109.139 50.7928 100.931 64.2768 93.4267 78.4009C60.8719 139.698 44.925 205.475 44.0082 270.527C43.4113 312.536 49.1035 354.226 60.616 394.23C91.2521 500.715 163.205 595.146 268.459 651.152C460.398 753.263 696.32 692.052 816.263 516.503C825.068 503.617 833.276 490.133 840.78 476.009C873.335 414.712 889.282 348.935 890.199 283.883"></path>
<path stroke-linecap="round" stroke-miterlimit="10" stroke-width="9.35478" stroke="url(#paint14_linear_9399_17470)" d="M91.1234 47.8906C72.2344 78.9124 56.9057 112.772 45.8622 149.106C15.2474 249.959 22.6879 353.457 59.8691 444.09C75.7947 482.899 97.1994 519.34 123.401 552.218C177.019 619.532 250.742 671.889 339.09 698.75C535.058 758.34 741.068 673.937 843.061 506.518C861.95 475.496 877.278 441.637 888.322 405.302C918.936 304.45 911.496 200.951 874.315 110.318"></path>
<path stroke-linecap="round" stroke-miterlimit="10" stroke-width="9.35478" stroke="url(#paint15_linear_9399_17470)" d="M127.643 -29.5313C112.315 -12.5056 98.0521 5.8856 85.0898 25.5996C40.2763 93.7451 16.1001 169.593 10.9834 245.696C8.76616 278.745 10.1519 311.858 14.9915 344.415C33.518 468.78 102.721 585.058 215.693 659.455C406.63 785.206 657.944 748.787 806.54 583.885C821.869 566.859 836.132 548.468 849.094 528.754C893.907 460.608 918.084 384.761 923.2 308.657"></path>
<path stroke-linecap="round" stroke-miterlimit="10" stroke-width="9.35478" stroke="url(#paint16_linear_9399_17470)" d="M168.9 -92C131.719 -61.9597 98.5028 -25.7961 70.8515 16.2135C16.6574 98.6324 -8.4569 191.868 -7.04982 283.803C-6.38892 326.943 0.134852 369.785 12.223 411.069C42.7524 515.229 108.821 609.51 206.315 673.73C382.819 789.965 609.061 772.598 765.29 646.378C802.471 616.337 835.687 580.174 863.338 538.164C917.532 455.745 942.647 362.509 941.24 270.575"></path>
<path stroke-linecap="round" stroke-miterlimit="10" stroke-width="9.35478" stroke="url(#paint17_linear_9399_17470)" d="M55.606 8.45309C19.9172 63.0079 -5.45294 125.542 -17.2 193.794C-36.6646 307.022 -15.6011 417.987 35.459 511.821C56.2668 550.075 82.106 585.45 112.188 617.005C182.435 690.697 275.985 743.311 383.755 761.873C582.601 796.116 774.541 705.056 878.601 545.979C914.29 491.424 939.66 428.89 951.407 360.638C970.871 247.41 949.808 136.445 898.748 42.6112"></path>
<path stroke-linecap="round" stroke-miterlimit="10" stroke-width="9.35478" stroke="url(#paint18_linear_9399_17470)" d="M78.4577 -50.7422C22.6007 15.3337 -17.16 96.4938 -33.4481 187.639C-56.5584 316.932 -28.4381 443.75 36.3304 547.12C61.8285 587.85 93.0402 624.931 129.027 657.105C196.845 717.74 281.675 760.944 377.591 778.119C562.495 811.211 742.324 739.289 855.722 605.153C911.579 539.077 951.34 457.917 967.628 366.772C990.738 237.479 962.618 110.682 897.85 7.29027"></path>
<path stroke-linecap="round" stroke-miterlimit="10" stroke-width="9.35478" stroke="url(#paint19_linear_9399_17470)" d="M3.24656 30.1412C-33.1458 98.308 -55.0196 175.521 -58.0683 257.791C-62.119 367.839 -31.888 471.337 22.9883 558.002C58.0801 613.41 103.277 661.927 156.043 700.843C238.059 761.35 338.431 798.709 447.714 802.741C655.067 810.401 839.182 696.128 930.963 524.228C967.355 456.061 989.229 378.848 992.277 296.579C996.328 186.53 966.097 83.0319 911.221 -3.63282"></path>
<path stroke-linecap="round" stroke-miterlimit="10" stroke-width="9.35478" stroke="url(#paint20_linear_9399_17470)" d="M141.249 -156.977C92.5338 -120.429 49.2127 -75.0697 13.865 -21.3257C-44.5076 67.4298 -73.3742 167.173 -75.2077 266.298C-76.295 325.397 -67.7671 384.262 -50.1146 440.438C-13.9568 555.564 60.4693 659.382 168.815 730.75C365.039 859.978 614.988 844.83 792.963 711.334C841.678 674.787 884.999 629.427 920.347 575.683C978.72 486.928 1007.59 387.184 1009.42 288.06"></path>
<path stroke-linecap="round" stroke-miterlimit="10" stroke-width="9.35478" stroke="url(#paint21_linear_9399_17470)" d="M103.555 -148.477C37.9548 -92.5564 -15.6423 -20.6558 -50.5636 64.43C-102.178 190.203 -104.523 324.125 -66.6385 444.671C-52.5037 489.625 -32.7406 532.701 -7.90339 572.812C51.983 669.461 141.589 748.85 254.496 795.255C454.899 877.631 676.089 834.64 830.655 702.873C896.255 646.952 949.852 575.052 984.773 489.966C1036.39 364.193 1038.73 230.271 1000.85 109.725"></path>
<path stroke-linecap="round" stroke-miterlimit="10" stroke-width="9.35478" stroke="url(#paint22_linear_9399_17470)" d="M72.0643 -142.844C-31.1219 -45.7247 -99.0882 89.2647 -108.49 241.579C-113.927 329.523 -99.2588 414.119 -68.4948 490.948C-42.5277 555.829 -5.04822 615.141 41.5135 666.197C138.943 773.003 276.219 843.623 431.51 853.224C596.693 863.444 750.151 802.659 862.142 697.24C965.328 600.121 1033.29 465.132 1042.7 312.818C1048.13 224.873 1033.47 140.278 1002.7 63.4489"></path>
<path stroke-linecap="round" stroke-miterlimit="10" stroke-width="9.35478" stroke="url(#paint23_linear_9399_17470)" d="M-85.8717 61.1874C-124.268 159.16 -137.166 268.504 -117.787 379.534C-94.3568 513.627 -27.435 629.372 65.9016 714.863C124.637 768.65 193.818 810.446 269.225 837.286C362.434 870.442 465.13 880.747 569.318 862.526C780.871 825.509 946.822 680.044 1020.03 493.231C1058.43 395.258 1071.33 285.914 1051.95 174.884C1028.52 40.7908 961.596 -74.9541 868.259 -160.445"></path>
<path stroke-linecap="round" stroke-miterlimit="10" stroke-width="9.35478" stroke="url(#paint24_linear_9399_17470)" d="M12.8818 -131.048C-76.1482 -32.0517 -133.689 96.5159 -142.537 239.463C-153.73 420.452 -84.5908 588.149 33.9667 707.734C75.4757 749.594 123.039 785.566 175.336 814.134C251.361 855.674 337.385 881.597 429.4 887.294C622.703 899.263 800.849 819.425 921.325 685.439C1010.36 586.442 1067.9 457.896 1076.74 314.927C1087.92 133.938 1018.8 -33.7585 900.219 -153.344"></path>
<rect fill="url(#paint25_linear_9399_17470)" transform="matrix(1 0 0 -1 -135.471 474.219)" height="477.853" width="1058.67"></rect>
<rect fill="url(#paint26_linear_9399_17470)" height="474.033" width="1892.43" y="0.195312" x="-969.226"></rect>
<rect fill-opacity="0.6" fill="url(#paint27_linear_9399_17470)" transform="matrix(-1 0 0 1 1204.68 0.195312)" height="474.033" width="1491.68"></rect>
</g>
<path fill="white" d="M181.814 266.281C181.458 266.281 181.226 266.103 181.119 265.747L179.517 260.512C179.446 260.37 179.357 260.298 179.25 260.298H166.109C166.002 260.298 165.913 260.37 165.842 260.512L164.293 265.747C164.186 266.103 163.954 266.281 163.598 266.281H156.814C156.6 266.281 156.44 266.228 156.333 266.121C156.226 265.979 156.209 265.783 156.28 265.533L167.818 229.423C167.925 229.066 168.157 228.888 168.513 228.888H176.899C177.255 228.888 177.487 229.066 177.594 229.423L189.132 265.533C189.168 265.605 189.186 265.694 189.186 265.8C189.186 266.121 188.99 266.281 188.598 266.281H181.814ZM167.765 254.155C167.729 254.369 167.8 254.476 167.978 254.476H177.38C177.594 254.476 177.665 254.369 177.594 254.155L172.786 238.29C172.751 238.148 172.697 238.094 172.626 238.13C172.555 238.13 172.501 238.183 172.466 238.29L167.765 254.155ZM203.518 266.709C200.669 266.709 198.194 265.996 196.092 264.572C194.027 263.147 192.549 261.189 191.659 258.696C191.053 256.915 190.751 254.814 190.751 252.392C190.751 250.006 191.053 247.941 191.659 246.196C192.513 243.774 193.991 241.869 196.092 240.48C198.194 239.091 200.669 238.397 203.518 238.397C206.367 238.397 208.859 239.109 210.996 240.534C213.168 241.958 214.611 243.756 215.323 245.929C215.608 246.784 215.75 247.425 215.75 247.852V247.959C215.75 248.279 215.572 248.475 215.216 248.546L209.073 249.454H208.966C208.646 249.454 208.432 249.276 208.325 248.92L208.165 248.066C207.916 247.14 207.364 246.374 206.509 245.769C205.654 245.163 204.639 244.86 203.464 244.86C202.325 244.86 201.363 245.145 200.58 245.715C199.796 246.285 199.244 247.068 198.924 248.066C198.532 249.134 198.336 250.594 198.336 252.446C198.336 254.298 198.514 255.758 198.87 256.826C199.191 257.895 199.743 258.731 200.526 259.337C201.345 259.942 202.325 260.245 203.464 260.245C204.568 260.245 205.53 259.96 206.349 259.39C207.203 258.785 207.791 257.966 208.112 256.933C208.147 256.862 208.165 256.755 208.165 256.613C208.201 256.577 208.218 256.523 208.218 256.452C208.254 256.025 208.503 255.847 208.966 255.918L215.109 256.88C215.465 256.951 215.644 257.147 215.644 257.467C215.644 257.752 215.537 258.286 215.323 259.07C214.575 261.456 213.115 263.325 210.943 264.679C208.806 266.032 206.331 266.709 203.518 266.709ZM230.828 266.709C227.979 266.709 225.504 265.996 223.403 264.572C221.337 263.147 219.859 261.189 218.969 258.696C218.363 256.915 218.061 254.814 218.061 252.392C218.061 250.006 218.363 247.941 218.969 246.196C219.824 243.774 221.301 241.869 223.403 240.48C225.504 239.091 227.979 238.397 230.828 238.397C233.677 238.397 236.17 239.109 238.306 240.534C240.479 241.958 241.921 243.756 242.633 245.929C242.918 246.784 243.061 247.425 243.061 247.852V247.959C243.061 248.279 242.882 248.475 242.526 248.546L236.383 249.454H236.276C235.956 249.454 235.742 249.276 235.635 248.92L235.475 248.066C235.226 247.14 234.674 246.374 233.819 245.769C232.964 245.163 231.949 244.86 230.774 244.86C229.635 244.86 228.673 245.145 227.89 245.715C227.106 246.285 226.554 247.068 226.234 248.066C225.842 249.134 225.646 250.594 225.646 252.446C225.646 254.298 225.824 255.758 226.18 256.826C226.501 257.895 227.053 258.731 227.836 259.337C228.655 259.942 229.635 260.245 230.774 260.245C231.878 260.245 232.84 259.96 233.659 259.39C234.514 258.785 235.101 257.966 235.422 256.933C235.457 256.862 235.475 256.755 235.475 256.613C235.511 256.577 235.529 256.523 235.529 256.452C235.564 256.025 235.813 255.847 236.276 255.918L242.42 256.88C242.776 256.951 242.954 257.147 242.954 257.467C242.954 257.752 242.847 258.286 242.633 259.07C241.885 261.456 240.425 263.325 238.253 264.679C236.116 266.032 233.641 266.709 230.828 266.709ZM270.371 249.722C270.584 251.075 270.656 252.588 270.584 254.262C270.549 254.689 270.317 254.903 269.89 254.903H253.384C253.17 254.903 253.099 254.992 253.17 255.17C253.277 255.882 253.473 256.595 253.758 257.307C254.683 259.301 256.571 260.298 259.42 260.298C261.699 260.263 263.498 259.337 264.815 257.521C264.958 257.307 265.118 257.2 265.296 257.2C265.403 257.2 265.527 257.271 265.67 257.414L269.516 261.207C269.694 261.385 269.783 261.545 269.783 261.687C269.783 261.758 269.712 261.901 269.569 262.115C268.394 263.575 266.881 264.714 265.029 265.533C263.177 266.317 261.147 266.709 258.939 266.709C255.876 266.709 253.277 266.014 251.14 264.625C249.039 263.236 247.525 261.296 246.599 258.803C245.852 257.022 245.478 254.689 245.478 251.805C245.478 249.846 245.745 248.119 246.279 246.623C247.098 244.095 248.523 242.083 250.552 240.587C252.618 239.091 255.057 238.343 257.871 238.343C261.432 238.343 264.281 239.376 266.418 241.442C268.59 243.507 269.908 246.267 270.371 249.722ZM257.924 244.86C255.681 244.86 254.203 245.911 253.49 248.012C253.348 248.475 253.223 249.045 253.117 249.722C253.117 249.9 253.206 249.989 253.384 249.989H262.625C262.839 249.989 262.91 249.9 262.839 249.722C262.661 248.689 262.572 248.19 262.572 248.226C262.251 247.157 261.681 246.338 260.862 245.769C260.079 245.163 259.099 244.86 257.924 244.86ZM274.799 266.281C274.621 266.281 274.461 266.228 274.318 266.121C274.211 265.979 274.158 265.818 274.158 265.64V229.529C274.158 229.351 274.211 229.209 274.318 229.102C274.461 228.96 274.621 228.888 274.799 228.888H281.049C281.227 228.888 281.369 228.96 281.476 229.102C281.619 229.209 281.69 229.351 281.69 229.529V265.64C281.69 265.818 281.619 265.979 281.476 266.121C281.369 266.228 281.227 266.281 281.049 266.281H274.799ZM310.437 249.722C310.65 251.075 310.721 252.588 310.65 254.262C310.615 254.689 310.383 254.903 309.956 254.903H293.45C293.236 254.903 293.165 254.992 293.236 255.17C293.343 255.882 293.539 256.595 293.823 257.307C294.749 259.301 296.637 260.298 299.486 260.298C301.765 260.263 303.563 259.337 304.881 257.521C305.023 257.307 305.184 257.2 305.362 257.2C305.469 257.2 305.593 257.271 305.736 257.414L309.582 261.207C309.76 261.385 309.849 261.545 309.849 261.687C309.849 261.758 309.778 261.901 309.635 262.115C308.46 263.575 306.947 264.714 305.095 265.533C303.243 266.317 301.213 266.709 299.005 266.709C295.942 266.709 293.343 266.014 291.206 264.625C289.105 263.236 287.591 261.296 286.665 258.803C285.918 257.022 285.544 254.689 285.544 251.805C285.544 249.846 285.811 248.119 286.345 246.623C287.164 244.095 288.588 242.083 290.618 240.587C292.684 239.091 295.123 238.343 297.937 238.343C301.498 238.343 304.347 239.376 306.484 241.442C308.656 243.507 309.974 246.267 310.437 249.722ZM297.99 244.86C295.746 244.86 294.269 245.911 293.556 248.012C293.414 248.475 293.289 249.045 293.182 249.722C293.182 249.9 293.271 249.989 293.45 249.989H302.691C302.905 249.989 302.976 249.9 302.905 249.722C302.726 248.689 302.637 248.19 302.637 248.226C302.317 247.157 301.747 246.338 300.928 245.769C300.145 245.163 299.165 244.86 297.99 244.86ZM327.899 238.45C329.181 238.45 330.196 238.7 330.944 239.198C331.229 239.341 331.336 239.608 331.264 239.999L330.143 246.089C330.107 246.516 329.858 246.641 329.395 246.463C328.86 246.285 328.237 246.196 327.525 246.196C327.24 246.196 326.848 246.232 326.35 246.303C325.068 246.41 323.982 246.89 323.091 247.745C322.201 248.564 321.756 249.668 321.756 251.057V265.64C321.756 265.818 321.685 265.979 321.542 266.121C321.435 266.228 321.293 266.281 321.115 266.281H314.865C314.687 266.281 314.527 266.228 314.384 266.121C314.277 265.979 314.224 265.818 314.224 265.64V239.465C314.224 239.287 314.277 239.145 314.384 239.038C314.527 238.895 314.687 238.824 314.865 238.824H321.115C321.293 238.824 321.435 238.895 321.542 239.038C321.685 239.145 321.756 239.287 321.756 239.465V241.495C321.756 241.602 321.791 241.673 321.863 241.709C321.934 241.744 321.987 241.727 322.023 241.655C323.483 239.519 325.442 238.45 327.899 238.45ZM344.242 238.397C346.557 238.397 348.623 238.806 350.439 239.625C352.255 240.409 353.662 241.495 354.659 242.884C355.692 244.273 356.208 245.822 356.208 247.531V265.64C356.208 265.818 356.137 265.979 355.995 266.121C355.888 266.228 355.745 266.281 355.567 266.281H349.317C349.139 266.281 348.979 266.228 348.836 266.121C348.73 265.979 348.676 265.818 348.676 265.64V263.877C348.676 263.771 348.641 263.699 348.569 263.664C348.498 263.628 348.427 263.664 348.356 263.771C346.86 265.729 344.456 266.709 341.144 266.709C338.366 266.709 336.123 266.032 334.413 264.679C332.704 263.325 331.849 261.331 331.849 258.696C331.849 255.954 332.811 253.835 334.734 252.339C336.657 250.808 339.399 250.042 342.96 250.042H348.409C348.587 250.042 348.676 249.953 348.676 249.775V248.6C348.676 247.425 348.32 246.516 347.608 245.875C346.896 245.199 345.827 244.86 344.403 244.86C343.299 244.86 342.373 245.056 341.625 245.448C340.913 245.84 340.45 246.392 340.236 247.104C340.129 247.496 339.898 247.674 339.542 247.638L333.078 246.784C332.651 246.712 332.455 246.552 332.49 246.303C332.633 244.807 333.22 243.454 334.253 242.243C335.322 241.032 336.71 240.088 338.42 239.412C340.165 238.735 342.106 238.397 344.242 238.397ZM343.174 261.1C344.705 261.1 346.005 260.69 347.074 259.871C348.142 259.052 348.676 258.001 348.676 256.719V254.796C348.676 254.618 348.587 254.529 348.409 254.529H344.563C342.96 254.529 341.696 254.832 340.77 255.437C339.88 256.043 339.435 256.897 339.435 258.001C339.435 258.963 339.773 259.729 340.45 260.298C341.126 260.833 342.034 261.1 343.174 261.1ZM375.63 244.219C375.63 244.398 375.559 244.558 375.416 244.7C375.309 244.807 375.167 244.86 374.989 244.86H369.861C369.683 244.86 369.594 244.95 369.594 245.128V256.452C369.594 257.627 369.825 258.5 370.288 259.07C370.787 259.64 371.57 259.924 372.639 259.924H374.401C374.579 259.924 374.722 259.996 374.829 260.138C374.971 260.245 375.042 260.387 375.042 260.565V265.64C375.042 266.032 374.829 266.263 374.401 266.335C372.906 266.406 371.837 266.442 371.196 266.442C368.24 266.442 366.032 265.961 364.572 264.999C363.112 264.002 362.364 262.15 362.329 259.444V245.128C362.329 244.95 362.24 244.86 362.062 244.86H359.017C358.839 244.86 358.679 244.807 358.536 244.7C358.429 244.558 358.376 244.398 358.376 244.219V239.465C358.376 239.287 358.429 239.145 358.536 239.038C358.679 238.895 358.839 238.824 359.017 238.824H362.062C362.24 238.824 362.329 238.735 362.329 238.557V232.2C362.329 232.022 362.382 231.88 362.489 231.773C362.631 231.631 362.792 231.559 362.97 231.559H368.953C369.131 231.559 369.273 231.631 369.38 231.773C369.522 231.88 369.594 232.022 369.594 232.2V238.557C369.594 238.735 369.683 238.824 369.861 238.824H374.989C375.167 238.824 375.309 238.895 375.416 239.038C375.559 239.145 375.63 239.287 375.63 239.465V244.219ZM403.036 249.722C403.25 251.075 403.321 252.588 403.25 254.262C403.214 254.689 402.983 254.903 402.555 254.903H386.049C385.835 254.903 385.764 254.992 385.835 255.17C385.942 255.882 386.138 256.595 386.423 257.307C387.349 259.301 389.236 260.298 392.085 260.298C394.364 260.263 396.163 259.337 397.481 257.521C397.623 257.307 397.783 257.2 397.961 257.2C398.068 257.2 398.193 257.271 398.335 257.414L402.181 261.207C402.359 261.385 402.448 261.545 402.448 261.687C402.448 261.758 402.377 261.901 402.235 262.115C401.06 263.575 399.546 264.714 397.694 265.533C395.842 266.317 393.813 266.709 391.605 266.709C388.542 266.709 385.942 266.014 383.805 264.625C381.704 263.236 380.191 261.296 379.265 258.803C378.517 257.022 378.143 254.689 378.143 251.805C378.143 249.846 378.41 248.119 378.944 246.623C379.763 244.095 381.188 242.083 383.218 240.587C385.283 239.091 387.723 238.343 390.536 238.343C394.097 238.343 396.946 239.376 399.083 241.442C401.255 243.507 402.573 246.267 403.036 249.722ZM390.59 244.86C388.346 244.86 386.868 245.911 386.156 248.012C386.013 248.475 385.889 249.045 385.782 249.722C385.782 249.9 385.871 249.989 386.049 249.989H395.29C395.504 249.989 395.575 249.9 395.504 249.722C395.326 248.689 395.237 248.19 395.237 248.226C394.916 247.157 394.347 246.338 393.528 245.769C392.744 245.163 391.765 244.86 390.59 244.86Z"></path>
<path fill="#04C8BB" d="M119.296 226.189L111.557 244.281H122.814C124.121 244.281 125.327 245.085 125.83 246.291C126.232 247.598 125.93 249.005 124.925 249.91L99.1939 272.425C97.9877 273.329 96.3795 273.43 95.1734 272.525C93.9672 271.721 93.4647 270.113 94.0678 268.706L101.807 250.613H90.6503C89.2432 250.613 88.037 249.809 87.635 248.603C87.1324 247.296 87.4339 245.889 88.4391 244.985L114.17 222.47C115.376 221.565 116.985 221.465 118.191 222.369C119.397 223.173 119.899 224.782 119.296 226.189Z"></path>
<line stroke-width="0.88612" stroke="#16A394" y2="322.695" x2="450.254" y1="167.695" x1="450.254"></line>
<path fill="#FFF6F6" d="M530.659 266.563C527.902 266.563 525.269 266.11 522.759 265.205C520.249 264.299 518.088 262.962 516.278 261.193L519.24 255.823C521.174 257.386 523.067 258.539 524.919 259.279C526.812 260.02 528.622 260.39 530.35 260.39C531.955 260.39 533.231 260.102 534.177 259.526C535.165 258.95 535.659 258.086 535.659 256.934C535.659 256.152 535.391 255.555 534.856 255.144C534.321 254.691 533.539 254.3 532.511 253.971C531.523 253.642 530.309 253.272 528.869 252.86C526.483 252.078 524.487 251.317 522.882 250.576C521.277 249.836 520.063 248.91 519.24 247.799C518.459 246.647 518.068 245.186 518.068 243.417C518.068 241.277 518.603 239.446 519.672 237.923C520.783 236.36 522.306 235.146 524.24 234.282C526.215 233.418 528.519 232.985 531.153 232.985C533.457 232.985 535.638 233.356 537.695 234.096C539.753 234.796 541.625 235.948 543.312 237.553L539.979 242.799C538.333 241.524 536.77 240.598 535.288 240.022C533.807 239.405 532.305 239.096 530.783 239.096C529.918 239.096 529.095 239.199 528.314 239.405C527.573 239.61 526.956 239.96 526.462 240.454C526.009 240.907 525.783 241.565 525.783 242.429C525.783 243.211 525.989 243.828 526.4 244.281C526.853 244.692 527.511 245.063 528.375 245.392C529.281 245.721 530.371 246.091 531.647 246.503C534.239 247.243 536.42 248.005 538.189 248.786C540 249.568 541.358 250.535 542.263 251.687C543.168 252.798 543.621 254.341 543.621 256.317C543.621 259.526 542.448 262.036 540.103 263.847C537.757 265.657 534.609 266.563 530.659 266.563ZM562.949 266.563C560.315 266.563 557.949 266.13 555.851 265.266C553.752 264.361 551.962 263.127 550.481 261.563C549.041 259.999 547.93 258.209 547.148 256.193C546.366 254.177 545.975 252.058 545.975 249.836C545.975 247.573 546.366 245.433 547.148 243.417C547.93 241.4 549.041 239.61 550.481 238.047C551.962 236.483 553.752 235.269 555.851 234.405C557.949 233.5 560.315 233.047 562.949 233.047C565.582 233.047 567.928 233.5 569.985 234.405C572.084 235.269 573.874 236.483 575.355 238.047C576.836 239.61 577.947 241.4 578.688 243.417C579.47 245.433 579.861 247.573 579.861 249.836C579.861 252.058 579.47 254.177 578.688 256.193C577.947 258.209 576.836 259.999 575.355 261.563C573.915 263.127 572.145 264.361 570.047 265.266C567.948 266.13 565.582 266.563 562.949 266.563ZM554.493 249.836C554.493 251.729 554.863 253.416 555.604 254.897C556.344 256.337 557.353 257.469 558.628 258.292C559.904 259.115 561.344 259.526 562.949 259.526C564.512 259.526 565.932 259.115 567.208 258.292C568.483 257.428 569.491 256.275 570.232 254.835C571.014 253.354 571.405 251.667 571.405 249.774C571.405 247.922 571.014 246.256 570.232 244.774C569.491 243.293 568.483 242.141 567.208 241.318C565.932 240.495 564.512 240.084 562.949 240.084C561.344 240.084 559.904 240.516 558.628 241.38C557.353 242.203 556.344 243.355 555.604 244.836C554.863 246.276 554.493 247.943 554.493 249.836ZM584.147 220.888H592.418V255.576C592.418 257.057 592.665 258.065 593.159 258.6C593.652 259.094 594.331 259.341 595.195 259.341C595.854 259.341 596.533 259.259 597.232 259.094C597.932 258.93 598.549 258.724 599.084 258.477L600.195 264.773C599.084 265.308 597.788 265.719 596.306 266.007C594.825 266.295 593.488 266.439 592.294 266.439C589.702 266.439 587.686 265.76 586.246 264.402C584.847 263.003 584.147 261.028 584.147 258.477V220.888ZM602.564 265.945V233.603H610.835V265.945H602.564ZM602.564 229.097V220.888H610.835V229.097H602.564ZM647.12 265.945H638.85V247.799C638.85 245.207 638.397 243.314 637.492 242.12C636.586 240.927 635.331 240.33 633.727 240.33C632.616 240.33 631.484 240.618 630.332 241.195C629.221 241.771 628.213 242.573 627.308 243.602C626.402 244.589 625.744 245.741 625.332 247.058V265.945H617.062V233.603H624.53V239.59C625.353 238.191 626.402 237.018 627.678 236.072C628.953 235.084 630.414 234.343 632.06 233.85C633.747 233.315 635.517 233.047 637.368 233.047C639.385 233.047 641.031 233.418 642.306 234.158C643.623 234.858 644.61 235.825 645.269 237.059C645.968 238.252 646.442 239.61 646.688 241.133C646.976 242.655 647.12 244.198 647.12 245.762V265.945Z"></path>
</g>
<defs>
<linearGradient gradientUnits="userSpaceOnUse" y2="227.703" x2="265.747" y1="287.913" x1="652.102" id="paint0_linear_9399_17470">
<stop stop-color="#04C8BB"></stop>
<stop stop-opacity="0" stop-color="#04C8BB" offset="0.75"></stop>
</linearGradient>
<linearGradient gradientUnits="userSpaceOnUse" y2="181.352" x2="255.702" y1="293.447" x1="677.814" id="paint1_linear_9399_17470">
<stop stop-color="#04C8BB"></stop>
<stop stop-opacity="0" stop-color="#04C8BB" offset="0.75"></stop>
</linearGradient>
<linearGradient gradientUnits="userSpaceOnUse" y2="80.2352" x2="231.374" y1="306.977" x1="676.342" id="paint2_linear_9399_17470">
<stop stop-color="#04C8BB"></stop>
<stop stop-opacity="0" stop-color="#04C8BB" offset="0.75"></stop>
</linearGradient>
<linearGradient gradientUnits="userSpaceOnUse" y2="0.370942" x2="273.034" y1="317.611" x1="717.32" id="paint3_linear_9399_17470">
<stop stop-color="#04C8BB"></stop>
<stop stop-opacity="0" stop-color="#04C8BB" offset="0.75"></stop>
</linearGradient>
<linearGradient gradientUnits="userSpaceOnUse" y2="140.816" x2="672.057" y1="634.876" x1="736.885" id="paint4_linear_9399_17470">
<stop stop-color="#04C8BB"></stop>
<stop stop-opacity="0" stop-color="#04C8BB" offset="1"></stop>
</linearGradient>
<linearGradient gradientUnits="userSpaceOnUse" y2="46.1926" x2="304.429" y1="318.792" x1="668.432" id="paint5_linear_9399_17470">
<stop stop-color="#04C8BB"></stop>
<stop stop-opacity="0" stop-color="#04C8BB" offset="1"></stop>
</linearGradient>
<linearGradient gradientUnits="userSpaceOnUse" y2="217.727" x2="183.633" y1="534.216" x1="589.109" id="paint6_linear_9399_17470">
<stop stop-color="#04C8BB"></stop>
<stop stop-opacity="0" stop-color="#04C8BB" offset="1"></stop>
</linearGradient>
<linearGradient gradientUnits="userSpaceOnUse" y2="32.9056" x2="275.437" y1="422.678" x1="659.975" id="paint7_linear_9399_17470">
<stop stop-color="#04C8BB"></stop>
<stop stop-opacity="0" stop-color="#04C8BB" offset="1"></stop>
</linearGradient>
<linearGradient gradientUnits="userSpaceOnUse" y2="206.457" x2="128.873" y1="701.725" x1="562.132" id="paint8_linear_9399_17470">
<stop stop-color="#04C8BB"></stop>
<stop stop-opacity="0" stop-color="#04C8BB" offset="1"></stop>
</linearGradient>
<linearGradient gradientUnits="userSpaceOnUse" y2="96.64" x2="592.628" y1="640.524" x1="711.114" id="paint9_linear_9399_17470">
<stop stop-color="#04C8BB"></stop>
<stop stop-opacity="0" stop-color="#04C8BB" offset="1"></stop>
</linearGradient>
<linearGradient gradientUnits="userSpaceOnUse" y2="17.5121" x2="270.591" y1="461.232" x1="681.597" id="paint10_linear_9399_17470">
<stop stop-color="#04C8BB"></stop>
<stop stop-opacity="0" stop-color="#04C8BB" offset="1"></stop>
</linearGradient>
<linearGradient gradientUnits="userSpaceOnUse" y2="41.8726" x2="258.527" y1="482.151" x1="660.66" id="paint11_linear_9399_17470">
<stop stop-color="#04C8BB"></stop>
<stop stop-opacity="0" stop-color="#04C8BB" offset="1"></stop>
</linearGradient>
<linearGradient gradientUnits="userSpaceOnUse" y2="118.272" x2="204.571" y1="494.756" x1="578.64" id="paint12_linear_9399_17470">
<stop stop-color="#04C8BB"></stop>
<stop stop-opacity="0" stop-color="#04C8BB" offset="1"></stop>
</linearGradient>
<linearGradient gradientUnits="userSpaceOnUse" y2="-17.6274" x2="318.985" y1="502.755" x1="743.803" id="paint13_linear_9399_17470">
<stop stop-color="#04C8BB"></stop>
<stop stop-opacity="0" stop-color="#04C8BB" offset="1"></stop>
</linearGradient>
<linearGradient gradientUnits="userSpaceOnUse" y2="105.993" x2="741.338" y1="517.786" x1="755.039" id="paint14_linear_9399_17470">
<stop stop-color="#04C8BB"></stop>
<stop stop-opacity="0" stop-color="#04C8BB" offset="1"></stop>
</linearGradient>
<linearGradient gradientUnits="userSpaceOnUse" y2="-61.3892" x2="269.863" y1="506.491" x1="765.212" id="paint15_linear_9399_17470">
<stop stop-color="#04C8BB"></stop>
<stop stop-opacity="0" stop-color="#04C8BB" offset="1"></stop>
</linearGradient>
<linearGradient gradientUnits="userSpaceOnUse" y2="-93.7597" x2="226.776" y1="499.807" x1="777.225" id="paint16_linear_9399_17470">
<stop stop-color="#04C8BB"></stop>
<stop stop-opacity="0" stop-color="#04C8BB" offset="1"></stop>
</linearGradient>
<linearGradient gradientUnits="userSpaceOnUse" y2="-146.921" x2="503.295" y1="541.936" x1="788.527" id="paint17_linear_9399_17470">
<stop stop-color="#04C8BB"></stop>
<stop stop-opacity="0" stop-color="#04C8BB" offset="1"></stop>
</linearGradient>
<linearGradient gradientUnits="userSpaceOnUse" y2="6.32956" x2="773.852" y1="536.234" x1="799.674" id="paint18_linear_9399_17470">
<stop stop-color="#04C8BB"></stop>
<stop stop-opacity="0" stop-color="#04C8BB" offset="1"></stop>
</linearGradient>
<linearGradient gradientUnits="userSpaceOnUse" y2="28.2622" x2="796.425" y1="562.216" x1="810.807" id="paint19_linear_9399_17470">
<stop stop-color="#04C8BB"></stop>
<stop stop-opacity="0" stop-color="#04C8BB" offset="1"></stop>
</linearGradient>
<linearGradient gradientUnits="userSpaceOnUse" y2="-133.864" x2="117.579" y1="547.499" x1="622.129" id="paint20_linear_9399_17470">
<stop stop-color="#04C8BB"></stop>
<stop stop-opacity="0" stop-color="#04C8BB" offset="1"></stop>
</linearGradient>
<linearGradient gradientUnits="userSpaceOnUse" y2="-138.296" x2="188.109" y1="527.776" x1="570.99" id="paint21_linear_9399_17470">
<stop stop-color="#04C8BB"></stop>
<stop stop-opacity="0" stop-color="#04C8BB" offset="1"></stop>
</linearGradient>
<linearGradient gradientUnits="userSpaceOnUse" y2="-163.445" x2="195.389" y1="556.584" x1="844.273" id="paint22_linear_9399_17470">
<stop stop-color="#04C8BB"></stop>
<stop stop-opacity="0" stop-color="#04C8BB" offset="1"></stop>
</linearGradient>
<linearGradient gradientUnits="userSpaceOnUse" y2="-72.1268" x2="543.018" y1="1026.67" x1="391.806" id="paint23_linear_9399_17470">
<stop stop-color="#04C8BB"></stop>
<stop stop-opacity="0" stop-color="#04C8BB" offset="1"></stop>
</linearGradient>
<linearGradient gradientUnits="userSpaceOnUse" y2="-53.5998" x2="840.189" y1="577.393" x1="866.581" id="paint24_linear_9399_17470">
<stop stop-color="#04C8BB"></stop>
<stop stop-opacity="0" stop-color="#04C8BB" offset="1"></stop>
</linearGradient>
<linearGradient gradientUnits="userSpaceOnUse" y2="493.54" x2="1019.19" y1="238.927" x1="-426.036" id="paint25_linear_9399_17470">
<stop stop-color="#1A202C" offset="0.055728"></stop>
<stop stop-opacity="0" stop-color="#1A202C" offset="0.677083"></stop>
<stop stop-opacity="0.46332" stop-color="#1A202C" offset="1"></stop>
</linearGradient>
<linearGradient gradientUnits="userSpaceOnUse" y2="-1007.88" x2="283.99" y1="551.274" x1="-969.226" id="paint26_linear_9399_17470">
<stop stop-color="#1A202C" offset="0.055728"></stop>
<stop stop-opacity="0" stop-color="#1A202C" offset="0.677083"></stop>
<stop stop-opacity="0.46332" stop-color="#1A202C" offset="1"></stop>
</linearGradient>
<linearGradient gradientUnits="userSpaceOnUse" y2="-707.097" x2="1282.99" y1="551.079" x1="-4.29714e-05" id="paint27_linear_9399_17470">
<stop stop-color="#1A202C" offset="0.055728"></stop>
<stop stop-opacity="0" stop-color="#1A202C" offset="0.677083"></stop>
<stop stop-opacity="0.46332" stop-color="#1A202C" offset="1"></stop>
</linearGradient>
<clipPath id="clip0_9399_17470">
<rect fill="white" height="474" width="844"></rect>
</clipPath>
<clipPath id="clip1_9399_17470">
<rect transform="translate(-287 -75.9922)" fill="white" height="549.99" width="1392.66"></rect>
</clipPath>
</defs>
</svg>
