<svg xmlns="http://www.w3.org/2000/svg" fill="none" viewBox="0 0 844 474" height="474" width="844">
<g clip-path="url(#clip0_11851_8827)">
<rect fill="url(#paint0_linear_11851_8827)" height="474" width="844"></rect>
<rect fill="url(#paint1_radial_11851_8827)" height="474" width="844"></rect>
<rect fill-opacity="0.2" fill="url(#paint2_radial_11851_8827)" height="474" width="844"></rect>
<path stroke-width="2.40809" stroke="#71E8DF" fill="#0D3A38" d="M422 -256.562C694.306 -256.561 915.054 -35.5876 915.054 237C915.054 509.588 694.306 730.561 422 730.562C149.695 730.562 -71.0542 509.588 -71.0542 237C-71.0542 -35.5877 149.695 -256.562 422 -256.562Z" opacity="0.14"></path>
<path stroke-width="2.40809" stroke="#71E8DF" fill="#0D3A38" d="M422 -469.632C811.862 -469.632 1127.91 -153.261 1127.91 237.004C1127.91 627.269 811.862 943.64 422 943.64C32.138 943.64 -283.91 627.269 -283.91 237.004C-283.91 -153.261 32.138 -469.632 422 -469.632Z" opacity="0.14"></path>
<path stroke-width="2.40809" stroke="#71E8DF" fill="#0D3A38" d="M422 -736.882C959.306 -736.882 1394.88 -300.861 1394.88 237C1394.88 774.861 959.306 1210.88 422 1210.88C-115.307 1210.88 -550.882 774.861 -550.882 237C-550.882 -300.861 -115.307 -736.882 422 -736.882Z" opacity="0.14"></path>
<path stroke-width="2.40809" stroke="#71E8DF" fill="#0D3A38" d="M422 -132.569C625.897 -132.569 791.189 32.8915 791.189 237C791.189 441.108 625.897 606.569 422 606.569C218.104 606.569 52.8111 441.109 52.811 237C52.811 32.8914 218.104 -132.569 422 -132.569Z" opacity="0.14"></path>
<path stroke-width="2.40809" stroke="#71E8DF" fill="#0D3A38" d="M422 -43.4912C576.748 -43.4912 702.199 82.086 702.199 236.996C702.199 391.906 576.748 517.483 422 517.483C267.252 517.483 141.802 391.906 141.802 236.996C141.802 82.0861 267.252 -43.4911 422 -43.4912Z" opacity="0.14"></path>
<path stroke-width="2.40809" stroke="#71E8DF" fill="#0D3A38" d="M422.225 22.7197C540.567 22.72 636.505 118.754 636.505 237.222C636.505 355.689 540.567 451.723 422.225 451.724C303.882 451.724 207.943 355.689 207.943 237.222C207.943 118.754 303.882 22.7197 422.225 22.7197Z" opacity="0.14"></path>
<circle stroke-width="3.03387" stroke="#71E8DF" fill="#0D3A38" r="169.681" cy="237.269" cx="422.741"></circle>
<circle fill="#090A15" r="143.108" cy="237.413" cx="422.862" opacity="0.99"></circle>
<g filter="url(#filter0_dddddd_11851_8827)">
<path fill="white" d="M384.307 337.945C382.974 337.945 381.973 337.612 381.307 336.945C380.806 336.112 380.806 335.028 381.307 333.694L433.067 204.667C433.234 204.334 433.151 204 432.817 203.667C432.651 203.334 432.401 203.167 432.067 203.167H399.06C398.227 203.167 397.81 203.584 397.81 204.417V215.669C397.81 216.836 397.477 217.753 396.81 218.42C396.143 219.087 395.226 219.42 394.059 219.42H363.553C362.386 219.42 361.469 219.087 360.802 218.42C360.135 217.753 359.802 216.836 359.802 215.669L360.052 166.659C360.052 165.492 360.385 164.575 361.052 163.909C361.719 163.242 362.636 162.908 363.803 162.908H479.327C480.494 162.908 481.411 163.242 482.078 163.909C482.745 164.575 483.078 165.492 483.078 166.659V200.666C483.078 201.833 482.745 203.417 482.078 205.417L430.817 334.945C430.15 336.945 428.65 337.945 426.316 337.945H384.307Z"></path>
</g>
<g filter="url(#filter1_dddddd_11851_8827)">
<path fill="white" d="M774.881 49.6261C774.41 50.3297 774.417 51.2174 774.9 51.9145L783.637 64.5307C784.204 65.3495 785.297 65.7229 786.312 65.4443L811.526 58.5204C812.902 58.1425 813.594 56.7375 812.993 55.5433L796.784 23.359C795.994 21.7895 793.611 21.6606 792.624 23.1341L774.881 49.6261ZM796.353 30.7167C796.009 29.987 794.842 30.0994 794.671 30.8787L788.431 59.3201C788.299 59.9198 788.913 60.432 789.553 60.257L806.974 55.4969C807.483 55.358 807.745 54.8439 807.534 54.398L796.353 30.7167Z" clip-rule="evenodd" fill-rule="evenodd"></path>
</g>
</g>
<defs>
<filter color-interpolation-filters="sRGB" filterUnits="userSpaceOnUse" height="438.001" width="386.238" y="56.8734" x="228.321" id="filter0_dddddd_11851_8827">
<feFlood result="BackgroundImageFix" flood-opacity="0"></feFlood>
<feColorMatrix result="hardAlpha" values="0 0 0 0 0 0 0 0 0 0 0 0 0 0 0 0 0 0 127 0" type="matrix" in="SourceAlpha"></feColorMatrix>
<feOffset dy="0.704208"></feOffset>
<feGaussianBlur stdDeviation="1.8192"></feGaussianBlur>
<feColorMatrix values="0 0 0 0 0.0862745 0 0 0 0 0.639216 0 0 0 0 0.580392 0 0 0 0.0759093 0" type="matrix"></feColorMatrix>
<feBlend result="effect1_dropShadow_11851_8827" in2="BackgroundImageFix" mode="normal"></feBlend>
<feColorMatrix result="hardAlpha" values="0 0 0 0 0 0 0 0 0 0 0 0 0 0 0 0 0 0 127 0" type="matrix" in="SourceAlpha"></feColorMatrix>
<feOffset dy="1.69231"></feOffset>
<feGaussianBlur stdDeviation="4.3718"></feGaussianBlur>
<feColorMatrix values="0 0 0 0 0.0862745 0 0 0 0 0.639216 0 0 0 0 0.580392 0 0 0 0.109051 0" type="matrix"></feColorMatrix>
<feBlend result="effect2_dropShadow_11851_8827" in2="effect1_dropShadow_11851_8827" mode="normal"></feBlend>
<feColorMatrix result="hardAlpha" values="0 0 0 0 0 0 0 0 0 0 0 0 0 0 0 0 0 0 127 0" type="matrix" in="SourceAlpha"></feColorMatrix>
<feOffset dy="3.18647"></feOffset>
<feGaussianBlur stdDeviation="8.23171"></feGaussianBlur>
<feColorMatrix values="0 0 0 0 0.0862745 0 0 0 0 0.639216 0 0 0 0 0.580392 0 0 0 0.135 0" type="matrix"></feColorMatrix>
<feBlend result="effect3_dropShadow_11851_8827" in2="effect2_dropShadow_11851_8827" mode="normal"></feBlend>
<feColorMatrix result="hardAlpha" values="0 0 0 0 0 0 0 0 0 0 0 0 0 0 0 0 0 0 127 0" type="matrix" in="SourceAlpha"></feColorMatrix>
<feOffset dy="5.68412"></feOffset>
<feGaussianBlur stdDeviation="14.684"></feGaussianBlur>
<feColorMatrix values="0 0 0 0 0.0862745 0 0 0 0 0.639216 0 0 0 0 0.580392 0 0 0 0.160949 0" type="matrix"></feColorMatrix>
<feBlend result="effect4_dropShadow_11851_8827" in2="effect3_dropShadow_11851_8827" mode="normal"></feBlend>
<feColorMatrix result="hardAlpha" values="0 0 0 0 0 0 0 0 0 0 0 0 0 0 0 0 0 0 127 0" type="matrix" in="SourceAlpha"></feColorMatrix>
<feOffset dy="10.6315"></feOffset>
<feGaussianBlur stdDeviation="27.4648"></feGaussianBlur>
<feColorMatrix values="0 0 0 0 0.0862745 0 0 0 0 0.639216 0 0 0 0 0.580392 0 0 0 0.194091 0" type="matrix"></feColorMatrix>
<feBlend result="effect5_dropShadow_11851_8827" in2="effect4_dropShadow_11851_8827" mode="normal"></feBlend>
<feColorMatrix result="hardAlpha" values="0 0 0 0 0 0 0 0 0 0 0 0 0 0 0 0 0 0 127 0" type="matrix" in="SourceAlpha"></feColorMatrix>
<feOffset dy="25.4479"></feOffset>
<feGaussianBlur stdDeviation="65.7404"></feGaussianBlur>
<feColorMatrix values="0 0 0 0 0.0862745 0 0 0 0 0.639216 0 0 0 0 0.580392 0 0 0 0.4 0" type="matrix"></feColorMatrix>
<feBlend result="effect6_dropShadow_11851_8827" in2="effect5_dropShadow_11851_8827" mode="normal"></feBlend>
<feBlend result="shape" in2="effect6_dropShadow_11851_8827" in="SourceGraphic" mode="normal"></feBlend>
</filter>
<filter color-interpolation-filters="sRGB" filterUnits="userSpaceOnUse" height="178.892" width="159.083" y="22.1016" x="714.33" id="filter1_dddddd_11851_8827">
<feFlood result="BackgroundImageFix" flood-opacity="0"></feFlood>
<feColorMatrix result="hardAlpha" values="0 0 0 0 0 0 0 0 0 0 0 0 0 0 0 0 0 0 127 0" type="matrix" in="SourceAlpha"></feColorMatrix>
<feOffset dy="2.08244"></feOffset>
<feGaussianBlur stdDeviation="0.832974"></feGaussianBlur>
<feColorMatrix values="0 0 0 0 0 0 0 0 0 0 0 0 0 0 0 0 0 0 0.151819 0" type="matrix"></feColorMatrix>
<feBlend result="effect1_dropShadow_11851_8827" in2="BackgroundImageFix" mode="normal"></feBlend>
<feColorMatrix result="hardAlpha" values="0 0 0 0 0 0 0 0 0 0 0 0 0 0 0 0 0 0 127 0" type="matrix" in="SourceAlpha"></feColorMatrix>
<feOffset dy="5.00438"></feOffset>
<feGaussianBlur stdDeviation="2.00175"></feGaussianBlur>
<feColorMatrix values="0 0 0 0 0 0 0 0 0 0 0 0 0 0 0 0 0 0 0.218102 0" type="matrix"></feColorMatrix>
<feBlend result="effect2_dropShadow_11851_8827" in2="effect1_dropShadow_11851_8827" mode="normal"></feBlend>
<feColorMatrix result="hardAlpha" values="0 0 0 0 0 0 0 0 0 0 0 0 0 0 0 0 0 0 127 0" type="matrix" in="SourceAlpha"></feColorMatrix>
<feOffset dy="9.42281"></feOffset>
<feGaussianBlur stdDeviation="3.76912"></feGaussianBlur>
<feColorMatrix values="0 0 0 0 0 0 0 0 0 0 0 0 0 0 0 0 0 0 0.27 0" type="matrix"></feColorMatrix>
<feBlend result="effect3_dropShadow_11851_8827" in2="effect2_dropShadow_11851_8827" mode="normal"></feBlend>
<feColorMatrix result="hardAlpha" values="0 0 0 0 0 0 0 0 0 0 0 0 0 0 0 0 0 0 127 0" type="matrix" in="SourceAlpha"></feColorMatrix>
<feOffset dy="16.8087"></feOffset>
<feGaussianBlur stdDeviation="6.72347"></feGaussianBlur>
<feColorMatrix values="0 0 0 0 0 0 0 0 0 0 0 0 0 0 0 0 0 0 0.321898 0" type="matrix"></feColorMatrix>
<feBlend result="effect4_dropShadow_11851_8827" in2="effect3_dropShadow_11851_8827" mode="normal"></feBlend>
<feColorMatrix result="hardAlpha" values="0 0 0 0 0 0 0 0 0 0 0 0 0 0 0 0 0 0 127 0" type="matrix" in="SourceAlpha"></feColorMatrix>
<feOffset dy="31.4388"></feOffset>
<feGaussianBlur stdDeviation="12.5755"></feGaussianBlur>
<feColorMatrix values="0 0 0 0 0 0 0 0 0 0 0 0 0 0 0 0 0 0 0.388181 0" type="matrix"></feColorMatrix>
<feBlend result="effect5_dropShadow_11851_8827" in2="effect4_dropShadow_11851_8827" mode="normal"></feBlend>
<feColorMatrix result="hardAlpha" values="0 0 0 0 0 0 0 0 0 0 0 0 0 0 0 0 0 0 127 0" type="matrix" in="SourceAlpha"></feColorMatrix>
<feOffset dy="75.2527"></feOffset>
<feGaussianBlur stdDeviation="30.1011"></feGaussianBlur>
<feColorMatrix values="0 0 0 0 0 0 0 0 0 0 0 0 0 0 0 0 0 0 0.54 0" type="matrix"></feColorMatrix>
<feBlend result="effect6_dropShadow_11851_8827" in2="effect5_dropShadow_11851_8827" mode="normal"></feBlend>
<feBlend result="shape" in2="effect6_dropShadow_11851_8827" in="SourceGraphic" mode="normal"></feBlend>
</filter>
<linearGradient gradientUnits="userSpaceOnUse" y2="474" x2="422" y1="0" x1="422" id="paint0_linear_11851_8827">
<stop stop-color="#090A15"></stop>
<stop stop-color="#0D3A38" offset="0.955752"></stop>
</linearGradient>
<radialGradient gradientTransform="translate(422 355.876) rotate(90) scale(529.676 495.147)" gradientUnits="userSpaceOnUse" r="1" cy="0" cx="0" id="paint1_radial_11851_8827">
<stop stop-opacity="0.11" stop-color="#71E8DF"></stop>
<stop stop-opacity="0" stop-color="#71E8DF" offset="1"></stop>
</radialGradient>
<radialGradient gradientTransform="translate(422 458.5) rotate(90) scale(300 534.177)" gradientUnits="userSpaceOnUse" r="1" cy="0" cx="0" id="paint2_radial_11851_8827">
<stop stop-color="#71E8DF"></stop>
<stop stop-opacity="0" stop-color="#71E8DF" offset="1"></stop>
</radialGradient>
<clipPath id="clip0_11851_8827">
<rect fill="white" height="474" width="844"></rect>
</clipPath>
</defs>
</svg>
