<svg xmlns="http://www.w3.org/2000/svg" fill="none" viewBox="0 0 844 474" height="474" width="844">
<g clip-path="url(#clip0_7076_2387)">
<rect fill="url(#paint0_radial_7076_2387)" height="474" width="844"></rect>
<circle fill="#68D391" r="23.9489" cy="388.427" cx="749.142"></circle>
<circle stroke-width="0.928014" stroke="white" r="44.0124" cy="388.427" cx="749.144"></circle>
<circle stroke-width="0.928014" stroke="white" r="66.2506" cy="388.429" cx="749.149"></circle>
<circle stroke-width="0.928014" stroke="white" r="86.7782" cy="388.43" cx="749.147"></circle>
<circle stroke-width="0.928014" stroke="white" r="109.016" cy="388.428" cx="749.143"></circle>
<circle stroke-width="0.928014" stroke="white" r="131.255" cy="388.43" cx="749.138"></circle>
<circle stroke-width="0.928014" stroke="white" r="155.204" cy="388.429" cx="749.146"></circle>
<circle stroke-width="0.928014" stroke="white" r="175.731" cy="388.429" cx="749.144"></circle>
<circle stroke-width="0.928014" stroke="white" fill="#667EEA" r="7.15022" cy="280.861" cx="749.347"></circle>
<circle stroke-width="0.928014" stroke="white" fill="#667EEA" r="7.15022" cy="384.07" cx="617.628"></circle>
<path stroke-linejoin="round" stroke-linecap="round" stroke-width="0.788889" stroke="white" d="M749.027 396.439C753.384 396.439 756.916 392.907 756.916 388.55C756.916 384.193 753.384 380.661 749.027 380.661C744.67 380.661 741.138 384.193 741.138 388.55C741.138 392.907 744.67 396.439 749.027 396.439Z"></path>
<path stroke-linejoin="round" stroke-linecap="round" stroke-width="0.788889" stroke="white" d="M749.027 383.817V388.55L752.183 390.128"></path>
<circle stroke-width="0.960298" stroke="white" transform="rotate(2.58807 -66.4997 -23.1856)" r="84.4455" cy="-23.1856" cx="-66.4997"></circle>
<circle stroke-width="0.960298" stroke="white" transform="rotate(2.58807 -66.4907 -23.1665)" r="126.908" cy="-23.1665" cx="-66.4907"></circle>
<circle stroke-width="0.960298" stroke="white" transform="rotate(2.58807 -66.495 -23.1708)" r="166.105" cy="-23.1708" cx="-66.495"></circle>
<circle stroke-width="0.960298" stroke="white" transform="rotate(2.58807 -66.5038 -23.1762)" r="208.568" cy="-23.1762" cx="-66.5038"></circle>
<circle stroke-width="0.960298" stroke="white" transform="rotate(2.58807 -66.5129 -23.1735)" r="251.03" cy="-23.1735" cx="-66.5129"></circle>
<circle stroke-width="0.960298" stroke="white" transform="rotate(2.58807 -66.498 -23.172)" r="296.759" cy="-23.172" cx="-66.498"></circle>
<circle stroke-width="0.960298" stroke="white" transform="rotate(2.58807 -66.5017 -23.1762)" r="335.956" cy="-23.1762" cx="-66.5017"></circle>
<circle stroke-width="0.960298" stroke="white" fill="#68D391" transform="rotate(2.58807 53.2315 13.1382)" r="14.0589" cy="13.1382" cx="53.2315"></circle>
<circle stroke-width="0.960298" stroke="white" fill="#667EEA" transform="rotate(2.58807 219.107 56.6074)" r="14.0589" cy="56.6074" cx="219.107"></circle>
<circle stroke-width="0.960298" stroke="white" fill="#667EEA" transform="rotate(2.58807 40.718 255.004)" r="14.0589" cy="255.004" cx="40.718"></circle>
<rect fill="url(#paint1_linear_7076_2387)" rx="13.6354" height="165.759" width="483" y="161.879" x="182"></rect>
<rect stroke-width="1.18046" stroke="#6379E6" fill="#6379E6" rx="1.77069" height="17.5175" width="416.928" y="210.184" x="215.517"></rect>
<path fill="#434293" d="M222.127 222.297V217.146H224.159C224.55 217.146 224.883 217.221 225.158 217.37C225.433 217.518 225.642 217.723 225.786 217.986C225.932 218.248 226.005 218.55 226.005 218.892C226.005 219.234 225.931 219.536 225.784 219.797C225.636 220.059 225.423 220.263 225.143 220.408C224.864 220.554 224.527 220.627 224.131 220.627H222.836V219.755H223.955C224.165 219.755 224.338 219.718 224.474 219.646C224.611 219.573 224.713 219.471 224.78 219.342C224.849 219.211 224.883 219.061 224.883 218.892C224.883 218.721 224.849 218.572 224.78 218.444C224.713 218.315 224.611 218.215 224.474 218.145C224.336 218.073 224.162 218.037 223.95 218.037H223.216V222.297H222.127ZM226.925 222.297V217.146H228.957C229.346 217.146 229.678 217.216 229.953 217.355C230.23 217.493 230.441 217.688 230.585 217.941C230.731 218.193 230.804 218.489 230.804 218.829C230.804 219.171 230.73 219.465 230.582 219.712C230.435 219.957 230.221 220.144 229.941 220.275C229.663 220.406 229.325 220.471 228.93 220.471H227.569V219.596H228.754C228.962 219.596 229.134 219.568 229.272 219.511C229.409 219.454 229.512 219.368 229.579 219.254C229.647 219.14 229.682 218.998 229.682 218.829C229.682 218.658 229.647 218.514 229.579 218.396C229.512 218.279 229.408 218.19 229.269 218.13C229.132 218.068 228.958 218.037 228.749 218.037H228.014V222.297H226.925ZM229.707 219.953L230.987 222.297H229.785L228.532 219.953H229.707ZM232.875 217.146V222.297H231.786V217.146H232.875ZM236.778 218.628C236.758 218.425 236.671 218.267 236.519 218.155C236.366 218.043 236.159 217.986 235.897 217.986C235.72 217.986 235.57 218.011 235.447 218.062C235.325 218.11 235.231 218.178 235.165 218.266C235.102 218.353 235.07 218.452 235.07 218.562C235.066 218.655 235.086 218.735 235.128 218.804C235.171 218.873 235.231 218.932 235.306 218.982C235.382 219.031 235.469 219.074 235.568 219.111C235.667 219.146 235.772 219.176 235.885 219.201L236.348 219.312C236.572 219.362 236.778 219.429 236.966 219.513C237.154 219.597 237.317 219.7 237.454 219.822C237.592 219.945 237.698 220.089 237.774 220.255C237.851 220.421 237.89 220.611 237.892 220.826C237.89 221.141 237.81 221.415 237.65 221.646C237.493 221.876 237.265 222.054 236.966 222.182C236.67 222.307 236.312 222.37 235.892 222.37C235.476 222.37 235.114 222.307 234.806 222.179C234.499 222.052 234.259 221.863 234.086 221.613C233.915 221.362 233.826 221.051 233.817 220.68H234.871C234.883 220.853 234.932 220.997 235.02 221.113C235.108 221.227 235.227 221.313 235.374 221.372C235.523 221.429 235.692 221.457 235.88 221.457C236.064 221.457 236.224 221.43 236.36 221.377C236.498 221.323 236.604 221.249 236.68 221.153C236.755 221.057 236.793 220.948 236.793 220.823C236.793 220.708 236.758 220.611 236.69 220.532C236.623 220.453 236.524 220.386 236.393 220.33C236.264 220.275 236.105 220.225 235.917 220.18L235.357 220.039C234.922 219.933 234.579 219.768 234.328 219.543C234.076 219.319 233.951 219.016 233.953 218.635C233.951 218.323 234.034 218.051 234.202 217.818C234.371 217.585 234.604 217.403 234.899 217.272C235.194 217.141 235.529 217.076 235.905 217.076C236.287 217.076 236.621 217.141 236.906 217.272C237.193 217.403 237.416 217.585 237.575 217.818C237.734 218.051 237.816 218.321 237.821 218.628H236.778ZM238.837 217.146H240.18L241.599 220.607H241.659L243.078 217.146H244.421V222.297H243.364V218.945H243.321L241.988 222.272H241.269L239.936 218.932H239.893V222.297H238.837V217.146ZM246.418 222.297H245.251L247.029 217.146H248.433L250.209 222.297H249.042L247.751 218.323H247.711L246.418 222.297ZM246.345 220.273H249.102V221.123H246.345V220.273ZM224.071 229.507H224.997L225.462 230.105L225.92 230.638L226.782 231.72H225.766L225.173 230.991L224.868 230.558L224.071 229.507ZM226.86 228.722C226.86 229.284 226.754 229.761 226.541 230.155C226.33 230.55 226.041 230.85 225.676 231.058C225.312 231.265 224.903 231.368 224.448 231.368C223.991 231.368 223.58 231.264 223.216 231.056C222.852 230.848 222.564 230.547 222.353 230.153C222.142 229.759 222.036 229.282 222.036 228.722C222.036 228.16 222.142 227.682 222.353 227.288C222.564 226.894 222.852 226.594 223.216 226.388C223.58 226.18 223.991 226.076 224.448 226.076C224.903 226.076 225.312 226.18 225.676 226.388C226.041 226.594 226.33 226.894 226.541 227.288C226.754 227.682 226.86 228.16 226.86 228.722ZM225.756 228.722C225.756 228.358 225.702 228.051 225.593 227.801C225.485 227.551 225.334 227.362 225.138 227.233C224.941 227.104 224.712 227.039 224.448 227.039C224.185 227.039 223.955 227.104 223.759 227.233C223.563 227.362 223.41 227.551 223.301 227.801C223.194 228.051 223.14 228.358 223.14 228.722C223.14 229.086 223.194 229.393 223.301 229.642C223.41 229.892 223.563 230.082 223.759 230.211C223.955 230.34 224.185 230.404 224.448 230.404C224.712 230.404 224.941 230.34 225.138 230.211C225.334 230.082 225.485 229.892 225.593 229.642C225.702 229.393 225.756 229.086 225.756 228.722ZM231.061 226.146H232.15V229.491C232.15 229.867 232.061 230.196 231.881 230.477C231.704 230.759 231.455 230.979 231.134 231.136C230.814 231.292 230.441 231.37 230.015 231.37C229.587 231.37 229.214 231.292 228.893 231.136C228.573 230.979 228.324 230.759 228.146 230.477C227.969 230.196 227.88 229.867 227.88 229.491V226.146H228.969V229.398C228.969 229.595 229.011 229.769 229.097 229.922C229.184 230.074 229.307 230.194 229.464 230.281C229.622 230.368 229.805 230.412 230.015 230.412C230.226 230.412 230.41 230.368 230.566 230.281C230.723 230.194 230.845 230.074 230.931 229.922C231.018 229.769 231.061 229.595 231.061 229.398V226.146ZM233.259 231.297V226.146H236.73V227.044H234.348V228.272H236.551V229.17H234.348V230.399H236.74V231.297H233.259ZM237.808 231.297V226.146H239.841C240.23 226.146 240.562 226.216 240.837 226.355C241.113 226.493 241.324 226.688 241.468 226.941C241.614 227.193 241.687 227.489 241.687 227.829C241.687 228.171 241.613 228.465 241.465 228.712C241.318 228.957 241.104 229.144 240.824 229.275C240.546 229.406 240.209 229.471 239.813 229.471H238.452V228.596H239.637C239.845 228.596 240.017 228.568 240.155 228.511C240.292 228.454 240.395 228.368 240.462 228.254C240.531 228.14 240.565 227.998 240.565 227.829C240.565 227.658 240.531 227.514 240.462 227.396C240.395 227.279 240.292 227.19 240.152 227.13C240.015 227.068 239.841 227.037 239.632 227.037H238.897V231.297H237.808ZM240.59 228.953L241.87 231.297H240.668L239.415 228.953H240.59ZM242.153 226.146H243.372L244.547 228.365H244.597L245.772 226.146H246.992L245.113 229.476V231.297H244.031V229.476L242.153 226.146Z"></path>
<path fill="#434293" d="M613.435 217.527V221.82H612.528V218.388H612.503L611.52 219.005V218.2L612.582 217.527H613.435ZM616.316 221.914C615.955 221.913 615.645 221.824 615.385 221.648C615.127 221.472 614.927 221.217 614.788 220.883C614.649 220.549 614.581 220.147 614.582 219.677C614.582 219.209 614.651 218.81 614.79 218.481C614.93 218.151 615.129 217.9 615.387 217.728C615.647 217.555 615.957 217.468 616.316 217.468C616.675 217.468 616.984 217.555 617.242 217.728C617.502 217.901 617.702 218.153 617.842 218.483C617.981 218.811 618.05 219.209 618.049 219.677C618.049 220.148 617.979 220.551 617.839 220.885C617.701 221.219 617.503 221.474 617.244 221.65C616.986 221.826 616.676 221.914 616.316 221.914ZM616.316 221.161C616.562 221.161 616.758 221.038 616.905 220.79C617.051 220.543 617.124 220.172 617.123 219.677C617.123 219.352 617.089 219.081 617.022 218.864C616.956 218.648 616.863 218.485 616.741 218.376C616.621 218.267 616.479 218.212 616.316 218.212C616.071 218.212 615.876 218.335 615.729 218.579C615.582 218.824 615.508 219.19 615.507 219.677C615.507 220.007 615.539 220.283 615.605 220.503C615.672 220.723 615.767 220.888 615.888 220.998C616.01 221.107 616.152 221.161 616.316 221.161ZM618.898 217.527H620.018L621.2 220.411H621.25L622.432 217.527H623.552V221.82H622.671V219.026H622.636L621.525 221.799H620.925L619.814 219.015H619.779V221.82H618.898V217.527ZM613.922 225.762C613.905 225.592 613.833 225.461 613.706 225.367C613.579 225.274 613.406 225.227 613.188 225.227C613.04 225.227 612.915 225.248 612.813 225.29C612.711 225.33 612.633 225.387 612.578 225.46C612.525 225.532 612.498 225.615 612.498 225.707C612.496 225.784 612.512 225.851 612.547 225.908C612.583 225.966 612.633 226.015 612.695 226.057C612.758 226.098 612.831 226.133 612.913 226.164C612.996 226.193 613.084 226.218 613.178 226.239L613.563 226.332C613.75 226.374 613.922 226.429 614.079 226.499C614.235 226.569 614.371 226.655 614.485 226.757C614.6 226.859 614.689 226.979 614.752 227.118C614.816 227.256 614.849 227.415 614.85 227.593C614.849 227.856 614.782 228.084 614.649 228.277C614.518 228.468 614.328 228.617 614.079 228.723C613.831 228.828 613.533 228.88 613.184 228.88C612.837 228.88 612.535 228.827 612.278 228.721C612.023 228.615 611.823 228.458 611.679 228.249C611.536 228.04 611.462 227.781 611.455 227.472H612.333C612.343 227.616 612.384 227.736 612.456 227.832C612.531 227.927 612.629 227.999 612.752 228.048C612.876 228.096 613.017 228.12 613.173 228.12C613.327 228.12 613.46 228.097 613.574 228.052C613.688 228.008 613.777 227.946 613.84 227.866C613.903 227.786 613.934 227.695 613.934 227.591C613.934 227.495 613.906 227.414 613.848 227.348C613.792 227.283 613.71 227.227 613.601 227.181C613.493 227.134 613.361 227.092 613.205 227.055L612.737 226.937C612.375 226.849 612.09 226.712 611.88 226.524C611.67 226.337 611.566 226.085 611.568 225.768C611.566 225.508 611.636 225.281 611.775 225.087C611.916 224.892 612.11 224.741 612.356 224.632C612.602 224.523 612.881 224.468 613.194 224.468C613.513 224.468 613.791 224.523 614.028 224.632C614.267 224.741 614.453 224.892 614.586 225.087C614.719 225.281 614.787 225.506 614.791 225.762H613.922Z"></path>
<rect stroke-width="1.18046" stroke="#6379E6" fill="#C3DAFE" rx="1.77069" height="17.5175" width="416.928" y="210.184" x="215.517"></rect>
<rect stroke-width="1.18046" stroke="#6379E6" fill="#6379E6" rx="1.77069" height="17.6242" width="341.83" y="210.184" x="215.672"></rect>
<path fill="#434293" d="M611.81 217.385V221.677H610.903V218.246H610.877L609.894 218.862V218.057L610.957 217.385H611.81ZM614.69 221.772C614.33 221.77 614.02 221.681 613.76 221.505C613.501 221.329 613.302 221.074 613.163 220.74C613.024 220.406 612.956 220.005 612.957 219.535C612.957 219.067 613.026 218.668 613.165 218.338C613.304 218.009 613.503 217.758 613.762 217.586C614.022 217.413 614.331 217.326 614.69 217.326C615.05 217.326 615.358 217.413 615.617 217.586C615.877 217.759 616.077 218.011 616.216 218.34C616.356 218.669 616.425 219.067 616.424 219.535C616.424 220.006 616.354 220.408 616.214 220.742C616.076 221.076 615.878 221.331 615.619 221.507C615.361 221.684 615.051 221.772 614.69 221.772ZM614.69 221.019C614.936 221.019 615.133 220.895 615.279 220.648C615.426 220.401 615.499 220.03 615.497 219.535C615.497 219.21 615.464 218.938 615.397 218.722C615.331 218.505 615.238 218.343 615.116 218.234C614.996 218.125 614.854 218.07 614.69 218.07C614.446 218.07 614.25 218.192 614.104 218.437C613.957 218.681 613.883 219.047 613.881 219.535C613.881 219.865 613.914 220.14 613.98 220.361C614.047 220.58 614.141 220.745 614.263 220.856C614.384 220.965 614.527 221.019 614.69 221.019ZM617.273 217.385H618.392L619.575 220.269H619.625L620.807 217.385H621.926V221.677H621.046V218.883H621.01L619.9 221.656H619.3L618.189 218.873H618.154V221.677H617.273V217.385ZM625.18 218.619C625.163 218.45 625.091 218.319 624.964 218.225C624.837 218.132 624.664 218.085 624.446 218.085C624.298 218.085 624.173 218.106 624.071 218.148C623.969 218.188 623.891 218.245 623.836 218.317C623.783 218.39 623.757 218.472 623.757 218.565C623.754 218.642 623.77 218.709 623.805 218.766C623.841 218.823 623.891 218.873 623.954 218.915C624.017 218.955 624.089 218.991 624.172 219.022C624.254 219.051 624.342 219.076 624.436 219.097L624.821 219.189C625.009 219.231 625.18 219.287 625.337 219.357C625.493 219.427 625.629 219.513 625.744 219.615C625.858 219.717 625.947 219.837 626.01 219.975C626.074 220.114 626.107 220.272 626.108 220.451C626.107 220.714 626.04 220.942 625.907 221.134C625.776 221.326 625.586 221.475 625.337 221.581C625.09 221.686 624.791 221.738 624.442 221.738C624.095 221.738 623.794 221.685 623.537 221.579C623.281 221.473 623.081 221.315 622.937 221.107C622.795 220.898 622.72 220.638 622.713 220.33H623.591C623.601 220.473 623.642 220.594 623.715 220.69C623.789 220.785 623.887 220.857 624.01 220.906C624.135 220.953 624.275 220.977 624.432 220.977C624.585 220.977 624.719 220.955 624.832 220.91C624.946 220.865 625.035 220.803 625.098 220.724C625.161 220.644 625.192 220.552 625.192 220.449C625.192 220.353 625.164 220.272 625.106 220.206C625.051 220.14 624.968 220.084 624.859 220.038C624.752 219.992 624.619 219.95 624.463 219.912L623.996 219.795C623.634 219.707 623.348 219.569 623.138 219.382C622.929 219.195 622.825 218.943 622.826 218.625C622.825 218.366 622.894 218.139 623.033 217.944C623.175 217.75 623.368 217.598 623.614 217.489C623.86 217.38 624.139 217.326 624.452 217.326C624.771 217.326 625.049 217.38 625.287 217.489C625.526 217.598 625.711 217.75 625.844 217.944C625.977 218.139 626.045 218.363 626.05 218.619H625.18Z"></path>
<rect stroke-width="1.18046" stroke="#5A67D8" fill="#C3DAFE" rx="1.77069" height="17.5175" width="277.435" y="236.662" x="215.644"></rect>
<path fill="#4C51BF" d="M474.781 248.147L476.56 244.626V244.597H474.487V243.855H477.499V244.607L475.718 248.147H474.781ZM478.324 243.855H479.443L480.625 246.739H480.675L481.857 243.855H482.977V248.147H482.096V245.353H482.061L480.95 248.126H480.35L479.24 245.343H479.204V248.147H478.324V243.855ZM486.23 245.089C486.213 244.92 486.141 244.789 486.014 244.695C485.887 244.602 485.715 244.555 485.497 244.555C485.348 244.555 485.223 244.576 485.121 244.618C485.019 244.658 484.941 244.715 484.887 244.787C484.834 244.86 484.807 244.942 484.807 245.035C484.804 245.112 484.82 245.179 484.855 245.236C484.892 245.293 484.941 245.343 485.004 245.385C485.067 245.425 485.14 245.461 485.222 245.492C485.304 245.521 485.392 245.546 485.486 245.567L485.872 245.659C486.059 245.701 486.231 245.757 486.387 245.827C486.544 245.897 486.679 245.983 486.794 246.085C486.909 246.187 486.997 246.307 487.06 246.445C487.124 246.584 487.157 246.742 487.159 246.921C487.157 247.184 487.09 247.412 486.957 247.604C486.826 247.796 486.636 247.945 486.387 248.051C486.14 248.156 485.842 248.208 485.492 248.208C485.146 248.208 484.844 248.155 484.587 248.049C484.331 247.943 484.131 247.785 483.987 247.577C483.845 247.368 483.77 247.108 483.763 246.799H484.641C484.651 246.943 484.692 247.064 484.765 247.16C484.839 247.255 484.938 247.327 485.061 247.376C485.185 247.423 485.325 247.447 485.482 247.447C485.636 247.447 485.769 247.425 485.882 247.38C485.997 247.335 486.086 247.273 486.148 247.194C486.211 247.114 486.243 247.022 486.243 246.919C486.243 246.823 486.214 246.742 486.157 246.676C486.101 246.61 486.018 246.554 485.909 246.508C485.802 246.462 485.67 246.42 485.513 246.382L485.046 246.265C484.684 246.177 484.398 246.039 484.189 245.852C483.979 245.665 483.875 245.413 483.876 245.095C483.875 244.836 483.944 244.608 484.084 244.414C484.225 244.22 484.419 244.068 484.664 243.959C484.91 243.85 485.19 243.796 485.503 243.796C485.821 243.796 486.099 243.85 486.337 243.959C486.576 244.068 486.762 244.22 486.895 244.414C487.027 244.608 487.096 244.833 487.1 245.089H486.23Z"></path>
<rect stroke-width="1.18046" stroke="#68D391" fill="#C6F6D5" rx="1.77069" height="17.5175" width="137.793" y="262.996" x="215.644"></rect>
<path fill="#48BB78" d="M335.352 274.651C335.039 274.651 334.761 274.597 334.516 274.489C334.273 274.38 334.081 274.231 333.94 274.041C333.8 273.849 333.728 273.629 333.724 273.378H334.638C334.643 273.483 334.677 273.575 334.74 273.655C334.805 273.733 334.89 273.794 334.996 273.837C335.102 273.881 335.222 273.902 335.354 273.902C335.493 273.902 335.615 273.878 335.721 273.829C335.827 273.78 335.911 273.712 335.971 273.626C336.031 273.539 336.061 273.439 336.061 273.326C336.061 273.211 336.029 273.11 335.964 273.022C335.901 272.933 335.811 272.863 335.692 272.813C335.574 272.762 335.435 272.737 335.273 272.737H334.872V272.071H335.273C335.41 272.071 335.53 272.047 335.635 271.999C335.741 271.952 335.824 271.886 335.883 271.802C335.941 271.717 335.971 271.618 335.971 271.505C335.971 271.397 335.945 271.303 335.893 271.222C335.843 271.139 335.772 271.075 335.679 271.029C335.588 270.983 335.482 270.96 335.361 270.96C335.238 270.96 335.125 270.982 335.023 271.027C334.921 271.07 334.839 271.132 334.778 271.213C334.717 271.294 334.684 271.389 334.679 271.498H333.81C333.814 271.251 333.884 271.033 334.021 270.844C334.158 270.656 334.343 270.508 334.575 270.402C334.808 270.295 335.071 270.241 335.365 270.241C335.661 270.241 335.92 270.295 336.142 270.402C336.365 270.51 336.537 270.655 336.66 270.838C336.785 271.02 336.846 271.224 336.845 271.45C336.846 271.69 336.771 271.891 336.62 272.052C336.471 272.212 336.276 272.314 336.036 272.358V272.391C336.351 272.432 336.592 272.541 336.757 272.72C336.923 272.898 337.005 273.12 337.004 273.387C337.005 273.631 336.935 273.849 336.792 274.039C336.651 274.229 336.456 274.378 336.207 274.487C335.959 274.596 335.674 274.651 335.352 274.651ZM337.859 270.299H338.978L340.16 273.184H340.21L341.392 270.299H342.512V274.592H341.631V271.798H341.596L340.485 274.571H339.885L338.774 271.788H338.739V274.592H337.859V270.299ZM345.765 271.534C345.748 271.365 345.676 271.234 345.549 271.14C345.422 271.046 345.249 271 345.032 271C344.883 271 344.758 271.02 344.656 271.062C344.554 271.103 344.476 271.16 344.422 271.232C344.368 271.305 344.342 271.387 344.342 271.479C344.339 271.556 344.355 271.623 344.39 271.681C344.426 271.738 344.476 271.788 344.539 271.83C344.602 271.87 344.674 271.906 344.757 271.936C344.839 271.966 344.927 271.991 345.021 272.012L345.407 272.104C345.594 272.146 345.766 272.202 345.922 272.272C346.079 272.342 346.214 272.428 346.329 272.53C346.444 272.632 346.532 272.752 346.595 272.89C346.659 273.028 346.692 273.187 346.694 273.366C346.692 273.629 346.625 273.856 346.492 274.049C346.361 274.241 346.171 274.389 345.922 274.496C345.675 274.6 345.377 274.653 345.027 274.653C344.681 274.653 344.379 274.6 344.122 274.494C343.866 274.387 343.666 274.23 343.522 274.022C343.38 273.812 343.305 273.553 343.298 273.244H344.176C344.186 273.388 344.227 273.508 344.3 273.605C344.374 273.7 344.473 273.772 344.596 273.821C344.72 273.868 344.86 273.892 345.017 273.892C345.171 273.892 345.304 273.87 345.417 273.825C345.532 273.78 345.62 273.718 345.683 273.638C345.746 273.559 345.778 273.467 345.778 273.364C345.778 273.267 345.749 273.186 345.692 273.121C345.636 273.055 345.553 272.999 345.444 272.953C345.337 272.907 345.205 272.865 345.048 272.827L344.581 272.71C344.219 272.622 343.933 272.484 343.724 272.297C343.514 272.11 343.41 271.857 343.411 271.54C343.41 271.28 343.479 271.053 343.619 270.859C343.76 270.665 343.953 270.513 344.199 270.404C344.445 270.295 344.725 270.241 345.038 270.241C345.356 270.241 345.634 270.295 345.872 270.404C346.111 270.513 346.297 270.665 346.43 270.859C346.562 271.053 346.631 271.278 346.635 271.534H345.765Z"></path>
<rect stroke-width="1.18046" stroke="#68D391" fill="#C6F6D5" rx="1.77069" height="17.5175" width="138.113" y="263.116" x="401.281"></rect>
<path fill="#48BB78" d="M522.342 274.771C522.029 274.771 521.75 274.717 521.506 274.61C521.263 274.501 521.07 274.351 520.929 274.161C520.79 273.97 520.718 273.749 520.713 273.499H521.627C521.633 273.604 521.667 273.696 521.73 273.775C521.794 273.854 521.879 273.915 521.986 273.958C522.092 274.001 522.211 274.023 522.344 274.023C522.482 274.023 522.605 273.998 522.711 273.949C522.817 273.901 522.9 273.833 522.96 273.746C523.02 273.66 523.05 273.56 523.05 273.446C523.05 273.332 523.018 273.231 522.954 273.143C522.891 273.053 522.8 272.983 522.682 272.933C522.564 272.883 522.424 272.857 522.262 272.857H521.862V272.191H522.262C522.399 272.191 522.52 272.167 522.625 272.12C522.731 272.072 522.814 272.006 522.872 271.923C522.931 271.837 522.96 271.738 522.96 271.625C522.96 271.517 522.934 271.423 522.883 271.342C522.832 271.26 522.761 271.195 522.669 271.149C522.578 271.103 522.472 271.08 522.35 271.08C522.227 271.08 522.115 271.102 522.013 271.147C521.911 271.19 521.829 271.253 521.768 271.334C521.706 271.415 521.673 271.51 521.669 271.619H520.799C520.804 271.371 520.874 271.153 521.011 270.965C521.148 270.776 521.332 270.629 521.564 270.523C521.798 270.415 522.061 270.361 522.355 270.361C522.651 270.361 522.91 270.415 523.132 270.523C523.354 270.63 523.527 270.775 523.65 270.958C523.774 271.14 523.836 271.344 523.834 271.571C523.836 271.811 523.761 272.011 523.61 272.172C523.461 272.333 523.266 272.435 523.025 272.478V272.512C523.341 272.552 523.581 272.662 523.746 272.841C523.913 273.018 523.995 273.24 523.994 273.507C523.995 273.752 523.924 273.969 523.782 274.159C523.641 274.349 523.446 274.499 523.197 274.608C522.948 274.717 522.663 274.771 522.342 274.771ZM524.848 270.42H525.967L527.15 273.304H527.2L528.382 270.42H529.501V274.712H528.621V271.918H528.585L527.474 274.691H526.875L525.764 271.908H525.729V274.712H524.848V270.42ZM532.755 271.654C532.738 271.485 532.666 271.354 532.539 271.26C532.412 271.167 532.239 271.12 532.021 271.12C531.873 271.12 531.748 271.141 531.646 271.183C531.544 271.223 531.466 271.28 531.411 271.353C531.358 271.425 531.332 271.508 531.332 271.6C531.329 271.677 531.345 271.744 531.38 271.801C531.416 271.858 531.466 271.908 531.529 271.95C531.592 271.99 531.664 272.026 531.747 272.057C531.829 272.086 531.917 272.111 532.011 272.132L532.396 272.224C532.584 272.266 532.755 272.322 532.912 272.392C533.068 272.462 533.204 272.548 533.319 272.65C533.433 272.752 533.522 272.872 533.585 273.01C533.649 273.149 533.682 273.307 533.683 273.486C533.682 273.749 533.615 273.977 533.482 274.17C533.351 274.361 533.161 274.51 532.912 274.616C532.665 274.721 532.366 274.773 532.017 274.773C531.67 274.773 531.369 274.72 531.112 274.614C530.856 274.508 530.656 274.35 530.512 274.142C530.37 273.933 530.295 273.673 530.288 273.365H531.166C531.176 273.509 531.217 273.629 531.29 273.725C531.364 273.82 531.462 273.892 531.585 273.941C531.71 273.989 531.85 274.012 532.007 274.012C532.16 274.012 532.294 273.99 532.407 273.945C532.521 273.901 532.61 273.838 532.673 273.759C532.736 273.679 532.767 273.588 532.767 273.484C532.767 273.388 532.739 273.307 532.681 273.241C532.626 273.175 532.543 273.119 532.434 273.073C532.326 273.027 532.194 272.985 532.038 272.948L531.571 272.83C531.209 272.742 530.923 272.605 530.713 272.417C530.504 272.23 530.4 271.978 530.401 271.661C530.4 271.401 530.469 271.174 530.608 270.979C530.75 270.785 530.943 270.634 531.189 270.525C531.435 270.416 531.714 270.361 532.027 270.361C532.346 270.361 532.624 270.416 532.862 270.525C533.101 270.634 533.286 270.785 533.419 270.979C533.552 271.174 533.62 271.399 533.625 271.654H532.755Z"></path>
<line stroke-width="0.779168" stroke="white" y2="308.172" x2="214.038" y1="308.172" x1="632.963"></line>
<line stroke-width="0.779168" stroke="white" transform="matrix(2.94657e-06 -1 1 5.95431e-07 214.735 308.644)" y2="-0.389584" x2="6.43515" y1="-0.389584"></line>
<line stroke-width="0.779168" stroke="white" transform="matrix(4.97726e-06 -1 1 3.52499e-07 261.205 308.644)" y2="-0.389584" x2="6.43515" y1="-0.389584"></line>
<line stroke-width="0.779168" stroke="white" transform="matrix(4.97726e-06 -1 1 3.52499e-07 307.674 308.644)" y2="-0.389584" x2="6.43515" y1="-0.389584"></line>
<line stroke-width="0.779168" stroke="white" transform="matrix(4.97726e-06 -1 1 3.52499e-07 354.143 308.644)" y2="-0.389584" x2="6.43515" y1="-0.389584"></line>
<line stroke-width="0.779168" stroke="white" transform="matrix(4.97726e-06 -1 1 3.52499e-07 400.613 308.644)" y2="-0.389584" x2="6.43515" y1="-0.389584"></line>
<line stroke-width="0.779168" stroke="white" transform="matrix(4.97726e-06 -1 1 3.52499e-07 447.084 308.644)" y2="-0.389584" x2="6.43515" y1="-0.389584"></line>
<line stroke-width="0.779168" stroke="white" transform="matrix(4.97726e-06 -1 1 3.52499e-07 493.554 308.644)" y2="-0.389584" x2="6.43515" y1="-0.389584"></line>
<line stroke-width="0.779168" stroke="white" transform="matrix(4.97726e-06 -1 1 3.52499e-07 540.022 308.644)" y2="-0.389584" x2="6.43515" y1="-0.389584"></line>
<line stroke-width="0.779168" stroke="white" transform="matrix(4.97726e-06 -1 1 3.52499e-07 586.493 308.644)" y2="-0.389584" x2="6.43515" y1="-0.389584"></line>
<line stroke-width="0.779168" stroke="white" transform="matrix(4.97726e-06 -1 1 3.52499e-07 632.963 308.644)" y2="-0.389584" x2="6.43515" y1="-0.389584"></line>
<circle stroke-width="0.779168" stroke="white" fill="#C3DAFE" transform="rotate(-180 560.92 307.837)" r="3.13445" cy="307.837" cx="560.92"></circle>
<path fill="white" d="M223.333 183.682C223.383 183.682 223.424 183.702 223.454 183.742C223.494 183.773 223.515 183.813 223.515 183.864V185.35C223.515 185.401 223.494 185.446 223.454 185.487C223.424 185.517 223.383 185.532 223.333 185.532H220.618C220.567 185.532 220.542 185.557 220.542 185.608V194.116C220.542 194.167 220.522 194.212 220.481 194.253C220.451 194.283 220.411 194.298 220.36 194.298H218.586C218.535 194.298 218.49 194.283 218.449 194.253C218.419 194.212 218.404 194.167 218.404 194.116V185.608C218.404 185.557 218.378 185.532 218.328 185.532H215.689C215.638 185.532 215.593 185.517 215.552 185.487C215.522 185.446 215.507 185.401 215.507 185.35V183.864C215.507 183.813 215.522 183.773 215.552 183.742C215.593 183.702 215.638 183.682 215.689 183.682H223.333ZM231.158 194.298C231.057 194.298 230.986 194.253 230.946 194.162L229.05 189.961C229.03 189.92 228.999 189.9 228.959 189.9H227.548C227.498 189.9 227.472 189.925 227.472 189.976V194.116C227.472 194.167 227.452 194.212 227.412 194.253C227.381 194.283 227.341 194.298 227.29 194.298H225.516C225.465 194.298 225.42 194.283 225.38 194.253C225.349 194.212 225.334 194.167 225.334 194.116V183.864C225.334 183.813 225.349 183.773 225.38 183.742C225.42 183.702 225.465 183.682 225.516 183.682H229.854C230.501 183.682 231.067 183.813 231.552 184.076C232.048 184.339 232.427 184.713 232.69 185.198C232.963 185.684 233.099 186.245 233.099 186.882C233.099 187.569 232.927 188.161 232.583 188.656C232.24 189.142 231.759 189.485 231.143 189.688C231.092 189.708 231.077 189.743 231.097 189.794L233.16 194.086C233.18 194.126 233.19 194.157 233.19 194.177C233.19 194.258 233.134 194.298 233.023 194.298H231.158ZM227.548 185.517C227.498 185.517 227.472 185.542 227.472 185.593V188.186C227.472 188.237 227.498 188.262 227.548 188.262H229.535C229.96 188.262 230.303 188.136 230.566 187.883C230.839 187.63 230.976 187.301 230.976 186.897C230.976 186.493 230.839 186.164 230.566 185.911C230.303 185.648 229.96 185.517 229.535 185.517H227.548ZM242.076 194.298C241.975 194.298 241.909 194.248 241.879 194.146L241.424 192.66C241.404 192.62 241.378 192.599 241.348 192.599H237.617C237.587 192.599 237.562 192.62 237.541 192.66L237.102 194.146C237.071 194.248 237.005 194.298 236.904 194.298H234.978C234.918 194.298 234.872 194.283 234.842 194.253C234.811 194.212 234.806 194.157 234.827 194.086L238.103 183.833C238.133 183.732 238.199 183.682 238.3 183.682H240.681C240.782 183.682 240.848 183.732 240.878 183.833L244.154 194.086C244.164 194.106 244.169 194.131 244.169 194.162C244.169 194.253 244.113 194.298 244.002 194.298H242.076ZM238.087 190.855C238.077 190.916 238.097 190.946 238.148 190.946H240.817C240.878 190.946 240.898 190.916 240.878 190.855L239.513 186.351C239.503 186.311 239.488 186.295 239.467 186.306C239.447 186.306 239.432 186.321 239.422 186.351L238.087 190.855ZM249.362 194.419C248.573 194.419 247.881 194.268 247.284 193.964C246.688 193.651 246.228 193.216 245.904 192.66C245.581 192.104 245.419 191.462 245.419 190.734V187.231C245.419 186.503 245.581 185.861 245.904 185.305C246.228 184.748 246.688 184.319 247.284 184.015C247.881 183.712 248.573 183.56 249.362 183.56C250.141 183.56 250.823 183.707 251.409 184C252.006 184.283 252.466 184.693 252.79 185.229C253.123 185.755 253.29 186.366 253.29 187.064C253.29 187.155 253.229 187.21 253.108 187.231L251.334 187.337H251.303C251.202 187.337 251.152 187.281 251.152 187.17C251.152 186.634 250.985 186.204 250.651 185.881C250.328 185.557 249.898 185.396 249.362 185.396C248.816 185.396 248.376 185.557 248.043 185.881C247.719 186.204 247.557 186.634 247.557 187.17V190.825C247.557 191.351 247.719 191.775 248.043 192.099C248.376 192.423 248.816 192.584 249.362 192.584C249.898 192.584 250.328 192.423 250.651 192.099C250.985 191.775 251.152 191.351 251.152 190.825C251.152 190.714 251.212 190.658 251.334 190.658L253.108 190.734C253.159 190.734 253.199 190.749 253.229 190.78C253.27 190.81 253.29 190.845 253.29 190.886C253.29 191.583 253.123 192.2 252.79 192.736C252.466 193.272 252.006 193.686 251.409 193.98C250.823 194.273 250.141 194.419 249.362 194.419ZM255.495 194.298C255.445 194.298 255.399 194.283 255.359 194.253C255.328 194.212 255.313 194.167 255.313 194.116V183.864C255.313 183.813 255.328 183.773 255.359 183.742C255.399 183.702 255.445 183.682 255.495 183.682H257.27C257.32 183.682 257.361 183.702 257.391 183.742C257.431 183.773 257.452 183.813 257.452 183.864V194.116C257.452 194.167 257.431 194.212 257.391 194.253C257.361 194.283 257.32 194.298 257.27 194.298H255.495ZM265.849 183.864C265.849 183.813 265.864 183.773 265.895 183.742C265.935 183.702 265.98 183.682 266.031 183.682H267.805C267.856 183.682 267.896 183.702 267.927 183.742C267.967 183.773 267.987 183.813 267.987 183.864V194.116C267.987 194.167 267.967 194.212 267.927 194.253C267.896 194.283 267.856 194.298 267.805 194.298H266.092C265.991 194.298 265.92 194.258 265.879 194.177L261.951 187.686C261.931 187.655 261.911 187.645 261.891 187.655C261.87 187.655 261.86 187.676 261.86 187.716L261.891 194.116C261.891 194.167 261.87 194.212 261.83 194.253C261.8 194.283 261.759 194.298 261.709 194.298H259.934C259.884 194.298 259.838 194.283 259.798 194.253C259.767 194.212 259.752 194.167 259.752 194.116V183.864C259.752 183.813 259.767 183.773 259.798 183.742C259.838 183.702 259.884 183.682 259.934 183.682H261.648C261.749 183.682 261.82 183.722 261.86 183.803L265.773 190.264C265.793 190.294 265.814 190.309 265.834 190.309C265.854 190.299 265.864 190.274 265.864 190.234L265.849 183.864ZM274.024 194.419C273.246 194.419 272.558 194.263 271.962 193.949C271.365 193.636 270.9 193.201 270.566 192.645C270.243 192.079 270.081 191.427 270.081 190.689V187.291C270.081 186.553 270.243 185.901 270.566 185.335C270.9 184.769 271.365 184.334 271.962 184.031C272.558 183.717 273.246 183.56 274.024 183.56C274.793 183.56 275.47 183.712 276.056 184.015C276.653 184.319 277.113 184.733 277.437 185.259C277.77 185.775 277.937 186.351 277.937 186.988V187.094C277.937 187.145 277.917 187.19 277.876 187.231C277.846 187.261 277.806 187.276 277.755 187.276H275.981C275.93 187.276 275.885 187.261 275.844 187.231C275.814 187.19 275.799 187.145 275.799 187.094V187.049C275.799 186.584 275.637 186.194 275.313 185.881C274.99 185.557 274.56 185.396 274.024 185.396C273.478 185.396 273.038 185.567 272.705 185.911C272.381 186.245 272.219 186.685 272.219 187.231V190.749C272.219 191.295 272.396 191.74 272.75 192.084C273.104 192.417 273.554 192.584 274.1 192.584C274.626 192.584 275.045 192.448 275.359 192.175C275.672 191.892 275.829 191.502 275.829 191.007V190.325C275.829 190.274 275.804 190.249 275.753 190.249H274.055C274.004 190.249 273.958 190.234 273.918 190.203C273.888 190.163 273.873 190.117 273.873 190.067V188.671C273.873 188.621 273.888 188.58 273.918 188.55C273.958 188.51 274.004 188.489 274.055 188.489H277.755C277.806 188.489 277.846 188.51 277.876 188.55C277.917 188.58 277.937 188.621 277.937 188.671V190.673C277.937 191.442 277.775 192.109 277.452 192.675C277.128 193.242 276.668 193.676 276.072 193.98C275.485 194.273 274.803 194.419 274.024 194.419ZM283.708 194.298C283.657 194.298 283.612 194.283 283.571 194.253C283.541 194.212 283.526 194.167 283.526 194.116V183.864C283.526 183.813 283.541 183.773 283.571 183.742C283.612 183.702 283.657 183.682 283.708 183.682H285.482C285.533 183.682 285.573 183.702 285.604 183.742C285.644 183.773 285.664 183.813 285.664 183.864V194.116C285.664 194.167 285.644 194.212 285.604 194.253C285.573 194.283 285.533 194.298 285.482 194.298H283.708ZM294.062 183.864C294.062 183.813 294.077 183.773 294.107 183.742C294.148 183.702 294.193 183.682 294.244 183.682H296.018C296.069 183.682 296.109 183.702 296.139 183.742C296.18 183.773 296.2 183.813 296.2 183.864V194.116C296.2 194.167 296.18 194.212 296.139 194.253C296.109 194.283 296.069 194.298 296.018 194.298H294.304C294.203 194.298 294.132 194.258 294.092 194.177L290.164 187.686C290.144 187.655 290.123 187.645 290.103 187.655C290.083 187.655 290.073 187.676 290.073 187.716L290.103 194.116C290.103 194.167 290.083 194.212 290.043 194.253C290.012 194.283 289.972 194.298 289.921 194.298H288.147C288.096 194.298 288.051 194.283 288.01 194.253C287.98 194.212 287.965 194.167 287.965 194.116V183.864C287.965 183.813 287.98 183.773 288.01 183.742C288.051 183.702 288.096 183.682 288.147 183.682H289.861C289.962 183.682 290.032 183.722 290.073 183.803L293.986 190.264C294.006 190.294 294.026 190.309 294.046 190.309C294.067 190.299 294.077 190.274 294.077 190.234L294.062 183.864ZM306.38 183.667C307.047 183.667 307.634 183.803 308.139 184.076C308.645 184.349 309.034 184.738 309.307 185.244C309.59 185.739 309.732 186.311 309.732 186.958C309.732 187.595 309.585 188.156 309.292 188.641C309.009 189.126 308.604 189.506 308.079 189.779C307.563 190.041 306.966 190.173 306.289 190.173H304.135C304.085 190.173 304.06 190.198 304.06 190.249V194.116C304.06 194.167 304.039 194.212 303.999 194.253C303.969 194.283 303.928 194.298 303.878 194.298H302.103C302.053 194.298 302.007 194.283 301.967 194.253C301.936 194.212 301.921 194.167 301.921 194.116V183.849C301.921 183.798 301.936 183.758 301.967 183.727C302.007 183.687 302.053 183.667 302.103 183.667H306.38ZM306.062 188.459C306.527 188.459 306.901 188.328 307.184 188.065C307.467 187.792 307.609 187.438 307.609 187.003C307.609 186.558 307.467 186.199 307.184 185.926C306.901 185.653 306.527 185.517 306.062 185.517H304.135C304.085 185.517 304.06 185.542 304.06 185.593V188.383C304.06 188.434 304.085 188.459 304.135 188.459H306.062ZM317.325 194.298C317.224 194.298 317.153 194.253 317.113 194.162L315.217 189.961C315.197 189.92 315.166 189.9 315.126 189.9H313.716C313.665 189.9 313.64 189.925 313.64 189.976V194.116C313.64 194.167 313.62 194.212 313.579 194.253C313.549 194.283 313.508 194.298 313.458 194.298H311.683C311.633 194.298 311.587 194.283 311.547 194.253C311.517 194.212 311.501 194.167 311.501 194.116V183.864C311.501 183.813 311.517 183.773 311.547 183.742C311.587 183.702 311.633 183.682 311.683 183.682H316.021C316.668 183.682 317.234 183.813 317.719 184.076C318.215 184.339 318.594 184.713 318.857 185.198C319.13 185.684 319.266 186.245 319.266 186.882C319.266 187.569 319.095 188.161 318.751 188.656C318.407 189.142 317.927 189.485 317.31 189.688C317.259 189.708 317.244 189.743 317.264 189.794L319.327 194.086C319.347 194.126 319.357 194.157 319.357 194.177C319.357 194.258 319.302 194.298 319.191 194.298H317.325ZM313.716 185.517C313.665 185.517 313.64 185.542 313.64 185.593V188.186C313.64 188.237 313.665 188.262 313.716 188.262H315.702C316.127 188.262 316.471 188.136 316.734 187.883C317.007 187.63 317.143 187.301 317.143 186.897C317.143 186.493 317.007 186.164 316.734 185.911C316.471 185.648 316.127 185.517 315.702 185.517H313.716ZM321.454 194.298C321.404 194.298 321.358 194.283 321.318 194.253C321.287 194.212 321.272 194.167 321.272 194.116V183.864C321.272 183.813 321.287 183.773 321.318 183.742C321.358 183.702 321.404 183.682 321.454 183.682H323.229C323.279 183.682 323.32 183.702 323.35 183.742C323.39 183.773 323.411 183.813 323.411 183.864V194.116C323.411 194.167 323.39 194.212 323.35 194.253C323.32 194.283 323.279 194.298 323.229 194.298H321.454ZM329.351 194.419C328.542 194.419 327.835 194.293 327.228 194.04C326.621 193.777 326.151 193.408 325.817 192.933C325.494 192.448 325.332 191.887 325.332 191.25V190.916C325.332 190.865 325.347 190.825 325.378 190.795C325.418 190.754 325.464 190.734 325.514 190.734H327.243C327.294 190.734 327.334 190.754 327.364 190.795C327.405 190.825 327.425 190.865 327.425 190.916V191.144C327.425 191.548 327.612 191.892 327.986 192.175C328.36 192.448 328.866 192.584 329.503 192.584C330.039 192.584 330.438 192.473 330.701 192.251C330.964 192.018 331.095 191.735 331.095 191.401C331.095 191.159 331.014 190.956 330.853 190.795C330.691 190.623 330.468 190.476 330.185 190.355C329.912 190.223 329.472 190.047 328.866 189.824C328.188 189.592 327.612 189.354 327.137 189.111C326.672 188.869 326.277 188.54 325.954 188.125C325.641 187.701 325.484 187.18 325.484 186.563C325.484 185.957 325.641 185.426 325.954 184.971C326.267 184.516 326.702 184.167 327.258 183.924C327.814 183.682 328.456 183.56 329.184 183.56C329.953 183.56 330.635 183.697 331.232 183.97C331.838 184.243 332.309 184.627 332.642 185.123C332.986 185.608 333.158 186.174 333.158 186.821V187.049C333.158 187.099 333.138 187.145 333.097 187.185C333.067 187.216 333.026 187.231 332.976 187.231H331.232C331.181 187.231 331.136 187.216 331.095 187.185C331.065 187.145 331.05 187.099 331.05 187.049V186.927C331.05 186.503 330.873 186.144 330.519 185.851C330.175 185.547 329.7 185.396 329.093 185.396C328.618 185.396 328.244 185.497 327.971 185.699C327.708 185.901 327.577 186.179 327.577 186.533C327.577 186.786 327.653 186.998 327.804 187.17C327.966 187.342 328.199 187.499 328.502 187.64C328.815 187.772 329.296 187.954 329.943 188.186C330.661 188.449 331.222 188.682 331.626 188.884C332.041 189.086 332.41 189.389 332.733 189.794C333.067 190.188 333.234 190.704 333.234 191.341C333.234 192.291 332.885 193.044 332.187 193.6C331.49 194.146 330.544 194.419 329.351 194.419ZM342.011 183.803C342.061 183.722 342.132 183.682 342.223 183.682H343.998C344.048 183.682 344.089 183.702 344.119 183.742C344.159 183.773 344.179 183.813 344.179 183.864V194.116C344.179 194.167 344.159 194.212 344.119 194.253C344.089 194.283 344.048 194.298 343.998 194.298H342.223C342.173 194.298 342.127 194.283 342.087 194.253C342.056 194.212 342.041 194.167 342.041 194.116V187.428C342.041 187.387 342.031 187.367 342.011 187.367C341.991 187.367 341.97 187.382 341.95 187.413L340.342 189.93C340.292 190.011 340.221 190.052 340.13 190.052H339.235C339.144 190.052 339.074 190.011 339.023 189.93L337.415 187.413C337.395 187.382 337.375 187.372 337.355 187.382C337.335 187.382 337.324 187.403 337.324 187.443V194.116C337.324 194.167 337.304 194.212 337.264 194.253C337.233 194.283 337.193 194.298 337.142 194.298H335.368C335.317 194.298 335.272 194.283 335.231 194.253C335.201 194.212 335.186 194.167 335.186 194.116V183.864C335.186 183.813 335.201 183.773 335.231 183.742C335.272 183.702 335.317 183.682 335.368 183.682H337.142C337.233 183.682 337.304 183.722 337.355 183.803L339.63 187.337C339.66 187.398 339.69 187.398 339.721 187.337L342.011 183.803ZM353.231 194.298C353.13 194.298 353.064 194.248 353.034 194.146L352.579 192.66C352.559 192.62 352.534 192.599 352.503 192.599H348.772C348.742 192.599 348.717 192.62 348.697 192.66L348.257 194.146C348.226 194.248 348.161 194.298 348.06 194.298H346.134C346.073 194.298 346.027 194.283 345.997 194.253C345.967 194.212 345.962 194.157 345.982 194.086L349.258 183.833C349.288 183.732 349.354 183.682 349.455 183.682H351.836C351.937 183.682 352.003 183.732 352.033 183.833L355.309 194.086C355.319 194.106 355.324 194.131 355.324 194.162C355.324 194.253 355.269 194.298 355.157 194.298H353.231ZM349.243 190.855C349.233 190.916 349.253 190.946 349.303 190.946H351.973C352.033 190.946 352.053 190.916 352.033 190.855L350.668 186.351C350.658 186.311 350.643 186.295 350.623 186.306C350.603 186.306 350.587 186.321 350.577 186.351L349.243 190.855Z"></path>
</g>
<defs>
<radialGradient gradientTransform="translate(422 205.894) rotate(90) scale(298.225 531.017)" gradientUnits="userSpaceOnUse" r="1" cy="0" cx="0" id="paint0_radial_7076_2387">
<stop stop-color="#667EEA" offset="0.311258"></stop>
<stop stop-color="#5A67D8" offset="1"></stop>
</radialGradient>
<linearGradient gradientUnits="userSpaceOnUse" y2="327.638" x2="423.5" y1="161.879" x1="423.5" id="paint1_linear_7076_2387">
<stop stop-color="#4247B8" offset="0.0648065"></stop>
<stop stop-color="#434190" offset="1"></stop>
</linearGradient>
<clipPath id="clip0_7076_2387">
<rect fill="white" height="474" width="844"></rect>
</clipPath>
</defs>
</svg>
