<svg xmlns="http://www.w3.org/2000/svg" fill="none" viewBox="0 0 844 474" height="474" width="844">
<rect fill="url(#paint0_linear_10768_4952)" height="474" width="844"></rect>
<rect fill="url(#paint1_radial_10768_4952)" height="474" width="844"></rect>
<rect fill-opacity="0.2" fill="url(#paint2_radial_10768_4952)" height="474" width="844"></rect>
<g filter="url(#filter0_d_10768_4952)">
<path stroke-linecap="round" stroke-width="5.53564" stroke="url(#paint3_linear_10768_4952)" d="M577.277 105.67C555.979 104.8 532.443 104.688 507.717 105.47C412.7 108.477 332.574 129.161 333.067 144.758C333.561 160.355 410.987 170.562 506.003 167.555C601.019 164.548 677.645 149.466 677.151 133.869C676.793 122.566 644.625 114.517 586.049 111.853"></path>
</g>
<g filter="url(#filter1_ddddd_10768_4952)">
<path fill="white" d="M207.032 96C206.644 96 206.398 95.8239 206.292 95.4716L196.94 59.7014L196.887 59.49C196.887 59.173 197.081 59.0145 197.468 59.0145H204.02C204.372 59.0145 204.601 59.1906 204.707 59.5429L209.727 81.0473C209.762 81.1882 209.815 81.2586 209.885 81.2586C209.955 81.2586 210.008 81.1882 210.044 81.0473L214.905 59.5957C215.01 59.2082 215.239 59.0145 215.591 59.0145H221.985C222.372 59.0145 222.619 59.1906 222.724 59.5429L228.008 81.0473C228.043 81.153 228.096 81.2234 228.166 81.2586C228.237 81.2586 228.29 81.1882 228.325 81.0473L233.186 59.5957C233.292 59.2082 233.521 59.0145 233.873 59.0145H240.107C240.601 59.0145 240.794 59.2435 240.689 59.7014L232.023 95.4716C231.918 95.8239 231.671 96 231.284 96H224.996C224.644 96 224.415 95.8239 224.309 95.4716L218.92 72.5935C218.885 72.4526 218.832 72.3821 218.762 72.3821C218.691 72.3821 218.638 72.4526 218.603 72.5935L213.584 95.4188C213.513 95.8063 213.284 96 212.897 96H207.032ZM257.805 68.4194C260.623 68.4194 262.895 69.2824 264.621 71.0084C266.347 72.7344 267.21 75.0768 267.21 78.0356V95.366C267.21 95.5421 267.14 95.7006 266.999 95.8415C266.893 95.9472 266.752 96 266.576 96H260.394C260.218 96 260.06 95.9472 259.919 95.8415C259.813 95.7006 259.76 95.5421 259.76 95.366V79.5679C259.76 78.1589 259.355 77.0141 258.545 76.1335C257.77 75.2529 256.731 74.8126 255.428 74.8126C254.124 74.8126 253.068 75.2529 252.257 76.1335C251.482 77.0141 251.095 78.1589 251.095 79.5679V95.366C251.095 95.5421 251.025 95.7006 250.884 95.8415C250.778 95.9472 250.637 96 250.461 96H244.279C244.103 96 243.944 95.9472 243.804 95.8415C243.698 95.7006 243.645 95.5421 243.645 95.366V59.6486C243.645 59.4724 243.698 59.3315 243.804 59.2259C243.944 59.085 244.103 59.0145 244.279 59.0145H250.461C250.637 59.0145 250.778 59.085 250.884 59.2259C251.025 59.3315 251.095 59.4724 251.095 59.6486V71.3254C251.095 71.4311 251.13 71.5015 251.201 71.5367C251.271 71.572 251.324 71.5544 251.359 71.4839C252.803 69.4409 254.952 68.4194 257.805 68.4194ZM270.138 106.514C270.032 106.514 269.944 106.444 269.874 106.303C269.803 106.197 269.768 106.057 269.768 105.88V101.019C269.768 100.843 269.821 100.685 269.927 100.544C270.068 100.438 270.226 100.385 270.402 100.385C271.882 100.35 273.044 100.227 273.889 100.016C274.77 99.8042 275.457 99.3991 275.95 98.8003C276.478 98.2015 276.883 97.3209 277.165 96.1585C277.2 96.0881 277.2 95.9824 277.165 95.8415L268.5 69.529C268.465 69.4585 268.447 69.3705 268.447 69.2648C268.447 68.9478 268.641 68.7893 269.028 68.7893H275.633C276.02 68.7893 276.267 68.9654 276.373 69.3176L280.811 86.4366C280.846 86.5423 280.899 86.5951 280.969 86.5951C281.04 86.5951 281.093 86.5423 281.128 86.4366L285.566 69.3176C285.672 68.9654 285.918 68.7893 286.306 68.7893H292.752C292.963 68.7893 293.104 68.8597 293.175 69.0006C293.28 69.1063 293.298 69.2824 293.227 69.529L284.087 97.0039C283.206 99.5753 282.308 101.495 281.392 102.763C280.476 104.066 279.191 105.017 277.535 105.616C275.88 106.215 273.537 106.514 270.508 106.514H270.138ZM321.13 58.9617C323.455 58.9617 325.498 59.4372 327.259 60.3883C329.021 61.3393 330.377 62.6955 331.328 64.4567C332.314 66.1827 332.807 68.1728 332.807 70.4272C332.807 72.6463 332.297 74.6013 331.275 76.292C330.289 77.9828 328.88 79.3037 327.048 80.2548C325.252 81.1706 323.173 81.6285 320.813 81.6285H313.311C313.135 81.6285 313.046 81.7166 313.046 81.8927V95.366C313.046 95.5421 312.976 95.7006 312.835 95.8415C312.729 95.9472 312.589 96 312.412 96H306.231C306.054 96 305.896 95.9472 305.755 95.8415C305.649 95.7006 305.597 95.5421 305.597 95.366V59.5957C305.597 59.4196 305.649 59.2787 305.755 59.173C305.896 59.0321 306.054 58.9617 306.231 58.9617H321.13ZM320.021 75.658C321.641 75.658 322.944 75.2001 323.931 74.2842C324.917 73.3332 325.41 72.1003 325.41 70.5857C325.41 69.0358 324.917 67.7854 323.931 66.8343C322.944 65.8832 321.641 65.4077 320.021 65.4077H313.311C313.135 65.4077 313.046 65.4958 313.046 65.6719V75.3938C313.046 75.5699 313.135 75.658 313.311 75.658H320.021ZM349.381 68.4722C350.649 68.4722 351.653 68.7188 352.393 69.2119C352.674 69.3528 352.78 69.617 352.71 70.0045L351.6 76.0278C351.565 76.4505 351.318 76.5738 350.86 76.3977C350.332 76.2216 349.716 76.1335 349.011 76.1335C348.729 76.1335 348.342 76.1687 347.849 76.2392C346.581 76.3449 345.506 76.8204 344.626 77.6658C343.745 78.4759 343.305 79.5679 343.305 80.9416V95.366C343.305 95.5421 343.234 95.7006 343.093 95.8415C342.988 95.9472 342.847 96 342.671 96H336.489C336.313 96 336.154 95.9472 336.013 95.8415C335.908 95.7006 335.855 95.5421 335.855 95.366V69.4761C335.855 69.3 335.908 69.1591 336.013 69.0534C336.154 68.9125 336.313 68.8421 336.489 68.8421H342.671C342.847 68.8421 342.988 68.9125 343.093 69.0534C343.234 69.1591 343.305 69.3 343.305 69.4761V71.4839C343.305 71.5896 343.34 71.66 343.41 71.6953C343.481 71.7305 343.534 71.7129 343.569 71.6424C345.013 69.529 346.951 68.4722 349.381 68.4722ZM359.04 65.7776C357.843 65.7776 356.839 65.3901 356.028 64.6152C355.254 63.805 354.866 62.8011 354.866 61.6035C354.866 60.3707 355.254 59.3668 356.028 58.5918C356.803 57.8169 357.807 57.4294 359.04 57.4294C360.273 57.4294 361.277 57.8169 362.052 58.5918C362.827 59.3668 363.214 60.3707 363.214 61.6035C363.214 62.8011 362.809 63.805 361.999 64.6152C361.224 65.3901 360.238 65.7776 359.04 65.7776ZM355.87 96C355.694 96 355.535 95.9472 355.394 95.8415C355.289 95.7006 355.236 95.5421 355.236 95.366V69.4233C355.236 69.2472 355.289 69.1063 355.394 69.0006C355.535 68.8597 355.694 68.7893 355.87 68.7893H362.052C362.228 68.7893 362.369 68.8597 362.475 69.0006C362.615 69.1063 362.686 69.2472 362.686 69.4233V95.366C362.686 95.5421 362.615 95.7006 362.475 95.8415C362.369 95.9472 362.228 96 362.052 96H355.87ZM378.266 96.3699C375.906 96.3699 373.846 96.0352 372.085 95.366C370.323 94.6967 368.95 93.7633 367.963 92.5656C367.012 91.368 366.537 90.0119 366.537 88.4972V87.9689C366.537 87.7927 366.59 87.6518 366.695 87.5462C366.836 87.4053 366.995 87.3348 367.171 87.3348H373.036C373.212 87.3348 373.353 87.4053 373.458 87.5462C373.599 87.6518 373.67 87.7927 373.67 87.9689V88.0217C373.67 88.7966 374.092 89.4659 374.938 90.0295C375.818 90.5579 376.91 90.822 378.214 90.822C379.411 90.822 380.38 90.5931 381.12 90.1352C381.859 89.642 382.229 89.0432 382.229 88.3387C382.229 87.7047 381.912 87.2292 381.278 86.9121C380.644 86.5951 379.605 86.2605 378.161 85.9082C376.505 85.4856 375.202 85.0805 374.251 84.693C371.996 83.9181 370.2 82.967 368.862 81.8398C367.523 80.7127 366.854 79.0924 366.854 76.9789C366.854 74.3723 367.858 72.3117 369.865 70.797C371.908 69.2472 374.603 68.4722 377.949 68.4722C380.204 68.4722 382.176 68.8421 383.867 69.5818C385.558 70.2863 386.861 71.2902 387.777 72.5935C388.728 73.8968 389.204 75.3762 389.204 77.0317C389.204 77.2079 389.133 77.3664 388.992 77.5073C388.887 77.6129 388.746 77.6658 388.57 77.6658H382.916C382.74 77.6658 382.581 77.6129 382.44 77.5073C382.335 77.3664 382.282 77.2079 382.282 77.0317C382.282 76.2568 381.877 75.6051 381.067 75.0768C380.292 74.5484 379.253 74.2842 377.949 74.2842C376.787 74.2842 375.836 74.4956 375.096 74.9183C374.357 75.341 373.987 75.9222 373.987 76.6619C373.987 77.3664 374.339 77.8947 375.043 78.247C375.783 78.5992 376.998 78.9691 378.689 79.3565C379.077 79.4622 379.517 79.5855 380.01 79.7264C380.503 79.8321 381.032 79.973 381.595 80.1491C384.096 80.8888 386.069 81.8398 387.513 83.0022C388.957 84.1646 389.679 85.8554 389.679 88.0745C389.679 90.6811 388.64 92.7241 386.562 94.2036C384.519 95.6478 381.754 96.3699 378.266 96.3699ZM423.016 68.4194C425.764 68.4194 427.913 69.2472 429.462 70.9027C431.012 72.5582 431.787 74.883 431.787 77.8771V95.366C431.787 95.5421 431.717 95.7006 431.576 95.8415C431.47 95.9472 431.329 96 431.153 96H424.971C424.795 96 424.637 95.9472 424.496 95.8415C424.39 95.7006 424.337 95.5421 424.337 95.366V79.515C424.337 78.0708 423.967 76.9261 423.228 76.0807C422.488 75.2353 421.502 74.8126 420.269 74.8126C419.036 74.8126 418.032 75.2353 417.257 76.0807C416.482 76.9261 416.095 78.0532 416.095 79.4622V95.366C416.095 95.5421 416.024 95.7006 415.883 95.8415C415.778 95.9472 415.637 96 415.461 96H409.332C409.156 96 408.997 95.9472 408.856 95.8415C408.751 95.7006 408.698 95.5421 408.698 95.366V79.515C408.698 78.1061 408.31 76.9789 407.535 76.1335C406.76 75.2529 405.756 74.8126 404.524 74.8126C403.396 74.8126 402.445 75.1472 401.67 75.8165C400.931 76.4858 400.49 77.4192 400.35 78.6168V95.366C400.35 95.5421 400.279 95.7006 400.138 95.8415C400.033 95.9472 399.892 96 399.716 96H393.534C393.358 96 393.199 95.9472 393.058 95.8415C392.952 95.7006 392.9 95.5421 392.9 95.366V69.4761C392.9 69.3 392.952 69.1591 393.058 69.0534C393.199 68.9125 393.358 68.8421 393.534 68.8421H399.716C399.892 68.8421 400.033 68.9125 400.138 69.0534C400.279 69.1591 400.35 69.3 400.35 69.4761V71.5367C400.35 71.6424 400.385 71.7129 400.455 71.7481C400.526 71.7833 400.596 71.7481 400.667 71.6424C402.111 69.4937 404.347 68.4194 407.377 68.4194C409.138 68.4194 410.67 68.7893 411.974 69.529C413.312 70.2687 414.334 71.3254 415.038 72.6991C415.144 72.9105 415.267 72.9105 415.408 72.6991C416.183 71.255 417.222 70.1806 418.525 69.4761C419.864 68.7716 421.361 68.4194 423.016 68.4194ZM446.791 68.4194C449.08 68.4194 451.123 68.8245 452.92 69.6346C454.716 70.4096 456.108 71.4839 457.094 72.8577C458.115 74.2314 458.626 75.7637 458.626 77.4544V95.366C458.626 95.5421 458.556 95.7006 458.415 95.8415C458.309 95.9472 458.168 96 457.992 96H451.81C451.634 96 451.476 95.9472 451.335 95.8415C451.229 95.7006 451.176 95.5421 451.176 95.366V93.6224C451.176 93.5167 451.141 93.4462 451.07 93.411C451 93.3758 450.93 93.411 450.859 93.5167C449.38 95.454 447.002 96.4227 443.726 96.4227C440.979 96.4227 438.76 95.7534 437.069 94.4149C435.378 93.0764 434.533 91.1038 434.533 88.4972C434.533 85.785 435.484 83.6891 437.386 82.2097C439.288 80.6951 442 79.9377 445.523 79.9377H450.912C451.088 79.9377 451.176 79.8497 451.176 79.6736V78.5111C451.176 77.3487 450.824 76.4505 450.119 75.8165C449.415 75.1472 448.358 74.8126 446.949 74.8126C445.857 74.8126 444.941 75.0063 444.202 75.3938C443.497 75.7813 443.039 76.3272 442.828 77.0317C442.722 77.4192 442.493 77.5953 442.141 77.5601L435.748 76.7147C435.325 76.6443 435.131 76.4858 435.167 76.2392C435.308 74.7598 435.889 73.4212 436.91 72.2236C437.967 71.026 439.341 70.0925 441.032 69.4233C442.758 68.754 444.677 68.4194 446.791 68.4194ZM445.734 90.8749C447.249 90.8749 448.534 90.4698 449.591 89.6596C450.648 88.8495 451.176 87.8104 451.176 86.5423V84.6402C451.176 84.4641 451.088 84.376 450.912 84.376H447.108C445.523 84.376 444.272 84.6754 443.356 85.2742C442.476 85.873 442.035 86.7184 442.035 87.8104C442.035 88.7614 442.37 89.5187 443.039 90.0823C443.709 90.6107 444.607 90.8749 445.734 90.8749ZM485.811 96.4227C483.064 96.4227 480.651 95.8943 478.573 94.8376C476.494 93.7456 474.892 92.231 473.764 90.2937C472.637 88.3563 472.074 86.1196 472.074 83.5834V71.3782C472.074 68.8421 472.637 66.6053 473.764 64.668C474.892 62.7307 476.494 61.2336 478.573 60.1769C480.651 59.1202 483.064 58.5918 485.811 58.5918C488.523 58.5918 490.901 59.1026 492.944 60.1241C495.022 61.1104 496.625 62.5369 497.752 64.4038C498.915 66.2355 499.496 68.3666 499.496 70.797C499.496 71.1141 499.284 71.3078 498.862 71.3782L492.68 71.7481H492.574C492.222 71.7481 492.046 71.5544 492.046 71.1669C492.046 69.3 491.465 67.803 490.302 66.6758C489.175 65.5486 487.678 64.985 485.811 64.985C483.909 64.985 482.377 65.5486 481.214 66.6758C480.087 67.803 479.524 69.3 479.524 71.1669V83.9005C479.524 85.7321 480.087 87.2115 481.214 88.3387C482.377 89.4659 483.909 90.0295 485.811 90.0295C487.678 90.0295 489.175 89.4659 490.302 88.3387C491.465 87.2115 492.046 85.7321 492.046 83.9005C492.046 83.513 492.257 83.3193 492.68 83.3193L498.862 83.5834C499.038 83.5834 499.179 83.6363 499.284 83.742C499.425 83.8476 499.496 83.9709 499.496 84.1118C499.496 86.5423 498.915 88.691 497.752 90.5579C496.625 92.4247 495.022 93.8689 492.944 94.8904C490.901 95.9119 488.523 96.4227 485.811 96.4227ZM504.061 96C503.885 96 503.726 95.9472 503.585 95.8415C503.48 95.7006 503.427 95.5421 503.427 95.366V59.6486C503.427 59.4724 503.48 59.3315 503.585 59.2259C503.726 59.085 503.885 59.0145 504.061 59.0145H510.243C510.419 59.0145 510.56 59.085 510.665 59.2259C510.806 59.3315 510.877 59.4724 510.877 59.6486V95.366C510.877 95.5421 510.806 95.7006 510.665 95.8415C510.56 95.9472 510.419 96 510.243 96H504.061ZM519.285 65.7776C518.087 65.7776 517.084 65.3901 516.273 64.6152C515.498 63.805 515.111 62.8011 515.111 61.6035C515.111 60.3707 515.498 59.3668 516.273 58.5918C517.048 57.8169 518.052 57.4294 519.285 57.4294C520.518 57.4294 521.522 57.8169 522.297 58.5918C523.072 59.3668 523.459 60.3707 523.459 61.6035C523.459 62.8011 523.054 63.805 522.244 64.6152C521.469 65.3901 520.483 65.7776 519.285 65.7776ZM516.115 96C515.939 96 515.78 95.9472 515.639 95.8415C515.534 95.7006 515.481 95.5421 515.481 95.366V69.4233C515.481 69.2472 515.534 69.1063 515.639 69.0006C515.78 68.8597 515.939 68.7893 516.115 68.7893H522.297C522.473 68.7893 522.614 68.8597 522.719 69.0006C522.86 69.1063 522.931 69.2472 522.931 69.4233V95.366C522.931 95.5421 522.86 95.7006 522.719 95.8415C522.614 95.9472 522.473 96 522.297 96H516.115ZM551.72 79.6207C551.932 80.9592 552.002 82.4563 551.932 84.1118C551.897 84.5345 551.668 84.7458 551.245 84.7458H534.919C534.707 84.7458 534.637 84.8339 534.707 85.01C534.813 85.7145 535.007 86.419 535.288 87.1235C536.204 89.096 538.071 90.0823 540.889 90.0823C543.143 90.0471 544.922 89.1313 546.226 87.3348C546.366 87.1235 546.525 87.0178 546.701 87.0178C546.807 87.0178 546.93 87.0883 547.071 87.2292L550.875 90.9805C551.051 91.1567 551.139 91.3152 551.139 91.4561C551.139 91.5265 551.069 91.6674 550.928 91.8788C549.766 93.323 548.269 94.4501 546.437 95.2603C544.605 96.0352 542.597 96.4227 540.414 96.4227C537.384 96.4227 534.813 95.7358 532.699 94.3621C530.621 92.9883 529.124 91.0686 528.208 88.6029C527.469 86.8417 527.099 84.5345 527.099 81.6813C527.099 79.744 527.363 78.0356 527.891 76.5562C528.701 74.0553 530.11 72.0651 532.118 70.5857C534.161 69.1063 536.574 68.3666 539.357 68.3666C542.879 68.3666 545.697 69.3881 547.811 71.4311C549.959 73.4741 551.263 76.204 551.72 79.6207ZM539.41 74.8126C537.19 74.8126 535.729 75.8517 535.024 77.9299C534.883 78.3879 534.76 78.9515 534.654 79.6207C534.654 79.7968 534.742 79.8849 534.919 79.8849H544.059C544.271 79.8849 544.341 79.7968 544.271 79.6207C544.094 78.5992 544.006 78.1061 544.006 78.1413C543.689 77.0846 543.126 76.2744 542.316 75.7108C541.541 75.112 540.572 74.8126 539.41 74.8126ZM569.627 68.4194C572.445 68.4194 574.717 69.2824 576.443 71.0084C578.169 72.7344 579.032 75.0768 579.032 78.0356V95.366C579.032 95.5421 578.961 95.7006 578.82 95.8415C578.715 95.9472 578.574 96 578.397 96H572.216C572.04 96 571.881 95.9472 571.74 95.8415C571.634 95.7006 571.582 95.5421 571.582 95.366V79.5679C571.582 78.1589 571.177 77.0141 570.366 76.1335C569.591 75.2529 568.552 74.8126 567.249 74.8126C565.946 74.8126 564.889 75.2529 564.079 76.1335C563.304 77.0141 562.916 78.1589 562.916 79.5679V95.366C562.916 95.5421 562.846 95.7006 562.705 95.8415C562.599 95.9472 562.459 96 562.282 96H556.101C555.924 96 555.766 95.9472 555.625 95.8415C555.519 95.7006 555.466 95.5421 555.466 95.366V69.4761C555.466 69.3 555.519 69.1591 555.625 69.0534C555.766 68.9125 555.924 68.8421 556.101 68.8421H562.282C562.459 68.8421 562.599 68.9125 562.705 69.0534C562.846 69.1591 562.916 69.3 562.916 69.4761V71.3254C562.916 71.4311 562.952 71.5015 563.022 71.5367C563.093 71.572 563.145 71.5544 563.181 71.4839C564.625 69.4409 566.773 68.4194 569.627 68.4194ZM598.891 74.1786C598.891 74.3547 598.821 74.5132 598.68 74.6541C598.574 74.7598 598.434 74.8126 598.257 74.8126H593.185C593.009 74.8126 592.921 74.9007 592.921 75.0768V86.2781C592.921 87.4405 593.15 88.3035 593.608 88.8671C594.101 89.4307 594.876 89.7125 595.933 89.7125H597.676C597.852 89.7125 597.993 89.7829 598.099 89.9238C598.24 90.0295 598.31 90.1704 598.31 90.3465V95.366C598.31 95.7534 598.099 95.9824 597.676 96.0528C596.197 96.1233 595.14 96.1585 594.506 96.1585C591.582 96.1585 589.398 95.683 587.954 94.7319C586.51 93.7456 585.77 91.914 585.735 89.2369V75.0768C585.735 74.9007 585.647 74.8126 585.471 74.8126H582.459C582.283 74.8126 582.125 74.7598 581.984 74.6541C581.878 74.5132 581.825 74.3547 581.825 74.1786V69.4761C581.825 69.3 581.878 69.1591 581.984 69.0534C582.125 68.9125 582.283 68.8421 582.459 68.8421H585.471C585.647 68.8421 585.735 68.754 585.735 68.5779V62.2904C585.735 62.1143 585.788 61.9734 585.894 61.8677C586.035 61.7268 586.193 61.6563 586.369 61.6563H592.287C592.463 61.6563 592.604 61.7268 592.71 61.8677C592.85 61.9734 592.921 62.1143 592.921 62.2904V68.5779C592.921 68.754 593.009 68.8421 593.185 68.8421H598.257C598.434 68.8421 598.574 68.9125 598.68 69.0534C598.821 69.1591 598.891 69.3 598.891 69.4761V74.1786ZM612.95 96C612.774 96 612.615 95.9472 612.474 95.8415C612.369 95.7006 612.316 95.5421 612.316 95.366V59.6486C612.316 59.4724 612.369 59.3315 612.474 59.2259C612.615 59.085 612.774 59.0145 612.95 59.0145H619.132C619.308 59.0145 619.449 59.085 619.555 59.2259C619.695 59.3315 619.766 59.4724 619.766 59.6486V95.366C619.766 95.5421 619.695 95.7006 619.555 95.8415C619.449 95.9472 619.308 96 619.132 96H612.95ZM635.495 96.3699C633.135 96.3699 631.074 96.0352 629.313 95.366C627.552 94.6967 626.178 93.7633 625.192 92.5656C624.241 91.368 623.765 90.0119 623.765 88.4972V87.9689C623.765 87.7927 623.818 87.6518 623.924 87.5462C624.065 87.4053 624.223 87.3348 624.399 87.3348H630.264C630.44 87.3348 630.581 87.4053 630.687 87.5462C630.828 87.6518 630.898 87.7927 630.898 87.9689V88.0217C630.898 88.7966 631.321 89.4659 632.166 90.0295C633.047 90.5579 634.139 90.822 635.442 90.822C636.64 90.822 637.609 90.5931 638.348 90.1352C639.088 89.642 639.458 89.0432 639.458 88.3387C639.458 87.7047 639.141 87.2292 638.507 86.9121C637.873 86.5951 636.834 86.2605 635.389 85.9082C633.734 85.4856 632.431 85.0805 631.48 84.693C629.225 83.9181 627.429 82.967 626.09 81.8398C624.752 80.7127 624.082 79.0924 624.082 76.9789C624.082 74.3723 625.086 72.3117 627.094 70.797C629.137 69.2472 631.832 68.4722 635.178 68.4722C637.432 68.4722 639.405 68.8421 641.096 69.5818C642.787 70.2863 644.09 71.2902 645.006 72.5935C645.957 73.8968 646.432 75.3762 646.432 77.0317C646.432 77.2079 646.362 77.3664 646.221 77.5073C646.115 77.6129 645.974 77.6658 645.798 77.6658H640.145C639.969 77.6658 639.81 77.6129 639.669 77.5073C639.563 77.3664 639.511 77.2079 639.511 77.0317C639.511 76.2568 639.106 75.6051 638.295 75.0768C637.52 74.5484 636.481 74.2842 635.178 74.2842C634.016 74.2842 633.065 74.4956 632.325 74.9183C631.585 75.341 631.215 75.9222 631.215 76.6619C631.215 77.3664 631.568 77.8947 632.272 78.247C633.012 78.5992 634.227 78.9691 635.918 79.3565C636.305 79.4622 636.746 79.5855 637.239 79.7264C637.732 79.8321 638.26 79.973 638.824 80.1491C641.325 80.8888 643.297 81.8398 644.741 83.0022C646.186 84.1646 646.908 85.8554 646.908 88.0745C646.908 90.6811 645.869 92.7241 643.79 94.2036C641.747 95.6478 638.982 96.3699 635.495 96.3699ZM165.229 151C165.052 151 164.894 150.947 164.753 150.841C164.647 150.701 164.595 150.542 164.595 150.366V114.649C164.595 114.472 164.647 114.332 164.753 114.226C164.894 114.085 165.052 114.015 165.229 114.015H171.41C171.587 114.015 171.727 114.085 171.833 114.226C171.974 114.332 172.044 114.472 172.044 114.649V144.343C172.044 144.519 172.133 144.607 172.309 144.607H189.586C189.762 144.607 189.903 144.677 190.009 144.818C190.15 144.924 190.22 145.065 190.22 145.241V150.366C190.22 150.542 190.15 150.701 190.009 150.841C189.903 150.947 189.762 151 189.586 151H165.229ZM217.339 134.621C217.551 135.959 217.621 137.456 217.551 139.112C217.515 139.534 217.286 139.746 216.864 139.746H200.537C200.326 139.746 200.256 139.834 200.326 140.01C200.432 140.715 200.625 141.419 200.907 142.123C201.823 144.096 203.69 145.082 206.508 145.082C208.762 145.047 210.541 144.131 211.844 142.335C211.985 142.123 212.144 142.018 212.32 142.018C212.426 142.018 212.549 142.088 212.69 142.229L216.494 145.981C216.67 146.157 216.758 146.315 216.758 146.456C216.758 146.527 216.688 146.667 216.547 146.879C215.384 148.323 213.887 149.45 212.056 150.26C210.224 151.035 208.216 151.423 206.032 151.423C203.003 151.423 200.432 150.736 198.318 149.362C196.24 147.988 194.743 146.069 193.827 143.603C193.087 141.842 192.718 139.534 192.718 136.681C192.718 134.744 192.982 133.036 193.51 131.556C194.32 129.055 195.729 127.065 197.737 125.586C199.78 124.106 202.193 123.367 204.976 123.367C208.498 123.367 211.316 124.388 213.429 126.431C215.578 128.474 216.881 131.204 217.339 134.621ZM205.028 129.813C202.809 129.813 201.347 130.852 200.643 132.93C200.502 133.388 200.379 133.951 200.273 134.621C200.273 134.797 200.361 134.885 200.537 134.885H209.678C209.889 134.885 209.96 134.797 209.889 134.621C209.713 133.599 209.625 133.106 209.625 133.141C209.308 132.085 208.745 131.274 207.934 130.711C207.159 130.112 206.191 129.813 205.028 129.813ZM231.659 123.419C233.948 123.419 235.991 123.824 237.788 124.635C239.584 125.41 240.976 126.484 241.962 127.858C242.983 129.231 243.494 130.764 243.494 132.454V150.366C243.494 150.542 243.424 150.701 243.283 150.841C243.177 150.947 243.036 151 242.86 151H236.678C236.502 151 236.344 150.947 236.203 150.841C236.097 150.701 236.044 150.542 236.044 150.366V148.622C236.044 148.517 236.009 148.446 235.939 148.411C235.868 148.376 235.798 148.411 235.727 148.517C234.248 150.454 231.87 151.423 228.594 151.423C225.847 151.423 223.628 150.753 221.937 149.415C220.246 148.076 219.401 146.104 219.401 143.497C219.401 140.785 220.352 138.689 222.254 137.21C224.156 135.695 226.868 134.938 230.391 134.938H235.78C235.956 134.938 236.044 134.85 236.044 134.674V133.511C236.044 132.349 235.692 131.451 234.987 130.816C234.283 130.147 233.226 129.813 231.817 129.813C230.725 129.813 229.81 130.006 229.07 130.394C228.365 130.781 227.907 131.327 227.696 132.032C227.59 132.419 227.361 132.595 227.009 132.56L220.616 131.715C220.193 131.644 220 131.486 220.035 131.239C220.176 129.76 220.757 128.421 221.778 127.224C222.835 126.026 224.209 125.093 225.9 124.423C227.626 123.754 229.545 123.419 231.659 123.419ZM230.602 145.875C232.117 145.875 233.402 145.47 234.459 144.66C235.516 143.849 236.044 142.81 236.044 141.542V139.64C236.044 139.464 235.956 139.376 235.78 139.376H231.976C230.391 139.376 229.14 139.675 228.224 140.274C227.344 140.873 226.904 141.718 226.904 142.81C226.904 143.761 227.238 144.519 227.907 145.082C228.577 145.611 229.475 145.875 230.602 145.875ZM254.518 151C254.166 151 253.937 150.824 253.832 150.472L245.378 124.529C245.342 124.459 245.325 124.37 245.325 124.265C245.325 123.948 245.519 123.789 245.906 123.789H252.722C253.109 123.789 253.356 123.965 253.462 124.318L257.794 140.327C257.829 140.433 257.882 140.486 257.953 140.486C258.023 140.486 258.076 140.433 258.111 140.327L262.444 124.318C262.55 123.965 262.796 123.789 263.184 123.789L269.999 123.895C270.211 123.895 270.369 123.965 270.475 124.106C270.581 124.212 270.598 124.388 270.528 124.635L262.127 150.472C262.021 150.824 261.792 151 261.44 151H254.518ZM277.372 120.778C276.174 120.778 275.17 120.39 274.36 119.615C273.585 118.805 273.198 117.801 273.198 116.604C273.198 115.371 273.585 114.367 274.36 113.592C275.135 112.817 276.139 112.429 277.372 112.429C278.605 112.429 279.609 112.817 280.383 113.592C281.158 114.367 281.546 115.371 281.546 116.604C281.546 117.801 281.141 118.805 280.331 119.615C279.556 120.39 278.569 120.778 277.372 120.778ZM274.202 151C274.025 151 273.867 150.947 273.726 150.841C273.62 150.701 273.568 150.542 273.568 150.366V124.423C273.568 124.247 273.62 124.106 273.726 124.001C273.867 123.86 274.025 123.789 274.202 123.789H280.383C280.56 123.789 280.7 123.86 280.806 124.001C280.947 124.106 281.017 124.247 281.017 124.423V150.366C281.017 150.542 280.947 150.701 280.806 150.841C280.7 150.947 280.56 151 280.383 151H274.202ZM299.927 123.419C302.745 123.419 305.017 124.282 306.743 126.008C308.469 127.734 309.332 130.077 309.332 133.036V150.366C309.332 150.542 309.261 150.701 309.12 150.841C309.015 150.947 308.874 151 308.698 151H302.516C302.34 151 302.181 150.947 302.04 150.841C301.935 150.701 301.882 150.542 301.882 150.366V134.568C301.882 133.159 301.477 132.014 300.666 131.134C299.891 130.253 298.852 129.813 297.549 129.813C296.246 129.813 295.189 130.253 294.379 131.134C293.604 132.014 293.216 133.159 293.216 134.568V150.366C293.216 150.542 293.146 150.701 293.005 150.841C292.899 150.947 292.759 151 292.582 151H286.401C286.224 151 286.066 150.947 285.925 150.841C285.819 150.701 285.767 150.542 285.767 150.366V124.476C285.767 124.3 285.819 124.159 285.925 124.053C286.066 123.913 286.224 123.842 286.401 123.842H292.582C292.759 123.842 292.899 123.913 293.005 124.053C293.146 124.159 293.216 124.3 293.216 124.476V126.325C293.216 126.431 293.252 126.502 293.322 126.537C293.393 126.572 293.445 126.554 293.481 126.484C294.925 124.441 297.074 123.419 299.927 123.419ZM330.195 124.476C330.195 124.3 330.248 124.159 330.354 124.053C330.495 123.913 330.653 123.842 330.829 123.842H337.011C337.187 123.842 337.328 123.913 337.434 124.053C337.575 124.159 337.645 124.3 337.645 124.476V148.57C337.645 153.184 336.307 156.477 333.63 158.45C330.988 160.422 327.571 161.409 323.379 161.409C322.147 161.409 320.773 161.321 319.258 161.145C318.906 161.109 318.73 160.88 318.73 160.458L318.941 155.016C318.941 154.558 319.188 154.364 319.681 154.434C320.949 154.646 322.111 154.751 323.168 154.751C325.423 154.751 327.148 154.258 328.346 153.272C329.579 152.286 330.195 150.701 330.195 148.517C330.195 148.411 330.16 148.358 330.09 148.358C330.019 148.323 329.949 148.341 329.878 148.411C328.54 149.855 326.585 150.577 324.014 150.577C321.724 150.577 319.611 150.031 317.673 148.939C315.771 147.812 314.415 146.016 313.605 143.55C313.076 141.93 312.812 139.834 312.812 137.263C312.812 134.515 313.129 132.278 313.763 130.552C314.503 128.404 315.753 126.678 317.515 125.374C319.276 124.071 321.319 123.419 323.644 123.419C326.356 123.419 328.434 124.23 329.878 125.85C329.949 125.92 330.019 125.956 330.09 125.956C330.16 125.92 330.195 125.85 330.195 125.744V124.476ZM329.773 141.542C330.054 140.486 330.195 139.041 330.195 137.21C330.195 136.118 330.16 135.272 330.09 134.674C330.019 134.075 329.896 133.511 329.72 132.983C329.403 132.032 328.874 131.274 328.135 130.711C327.395 130.112 326.479 129.813 325.387 129.813C324.331 129.813 323.432 130.112 322.693 130.711C321.953 131.274 321.407 132.032 321.055 132.983C320.562 134.04 320.315 135.466 320.315 137.263C320.315 139.235 320.526 140.644 320.949 141.489C321.266 142.441 321.812 143.215 322.587 143.814C323.397 144.378 324.348 144.66 325.44 144.66C326.567 144.66 327.501 144.378 328.24 143.814C328.98 143.215 329.491 142.458 329.773 141.542ZM365.588 123.419C368.406 123.419 370.678 124.282 372.404 126.008C374.13 127.734 374.993 130.077 374.993 133.036V150.366C374.993 150.542 374.923 150.701 374.782 150.841C374.676 150.947 374.535 151 374.359 151H368.177C368.001 151 367.843 150.947 367.702 150.841C367.596 150.701 367.543 150.542 367.543 150.366V134.568C367.543 133.159 367.138 132.014 366.328 131.134C365.553 130.253 364.514 129.813 363.211 129.813C361.907 129.813 360.851 130.253 360.041 131.134C359.266 132.014 358.878 133.159 358.878 134.568V150.366C358.878 150.542 358.808 150.701 358.667 150.841C358.561 150.947 358.42 151 358.244 151H352.062C351.886 151 351.728 150.947 351.587 150.841C351.481 150.701 351.428 150.542 351.428 150.366V124.476C351.428 124.3 351.481 124.159 351.587 124.053C351.728 123.913 351.886 123.842 352.062 123.842H358.244C358.42 123.842 358.561 123.913 358.667 124.053C358.808 124.159 358.878 124.3 358.878 124.476V126.325C358.878 126.431 358.913 126.502 358.984 126.537C359.054 126.572 359.107 126.554 359.142 126.484C360.586 124.441 362.735 123.419 365.588 123.419ZM391.105 151.423C388.147 151.423 385.61 150.648 383.497 149.098C381.384 147.548 379.939 145.435 379.164 142.758C378.671 141.102 378.425 139.306 378.425 137.368C378.425 135.29 378.671 133.423 379.164 131.768C379.975 129.161 381.436 127.118 383.55 125.639C385.663 124.159 388.199 123.419 391.158 123.419C394.047 123.419 396.512 124.159 398.555 125.639C400.598 127.083 402.043 129.108 402.888 131.715C403.452 133.476 403.733 135.325 403.733 137.263C403.733 139.165 403.487 140.943 402.994 142.599C402.219 145.347 400.775 147.513 398.661 149.098C396.583 150.648 394.064 151.423 391.105 151.423ZM391.105 145.029C392.268 145.029 393.254 144.677 394.064 143.973C394.874 143.268 395.456 142.3 395.808 141.067C396.09 139.94 396.231 138.707 396.231 137.368C396.231 135.889 396.09 134.638 395.808 133.617C395.42 132.419 394.822 131.486 394.011 130.816C393.201 130.147 392.215 129.813 391.053 129.813C389.855 129.813 388.851 130.147 388.041 130.816C387.266 131.486 386.702 132.419 386.35 133.617C386.068 134.462 385.927 135.713 385.927 137.368C385.927 138.953 386.051 140.186 386.297 141.067C386.65 142.3 387.231 143.268 388.041 143.973C388.886 144.677 389.908 145.029 391.105 145.029ZM424.321 114.649C424.321 114.472 424.373 114.332 424.479 114.226C424.62 114.085 424.778 114.015 424.955 114.015H431.136C431.313 114.015 431.453 114.085 431.559 114.226C431.7 114.332 431.77 114.472 431.77 114.649V150.366C431.77 150.542 431.7 150.701 431.559 150.841C431.453 150.947 431.313 151 431.136 151H424.955C424.778 151 424.62 150.947 424.479 150.841C424.373 150.701 424.321 150.542 424.321 150.366V148.622C424.321 148.517 424.285 148.464 424.215 148.464C424.144 148.429 424.074 148.446 424.004 148.517C422.524 150.454 420.499 151.423 417.927 151.423C415.462 151.423 413.331 150.736 411.534 149.362C409.773 147.988 408.505 146.104 407.73 143.709C407.131 141.877 406.832 139.746 406.832 137.315C406.832 134.814 407.149 132.631 407.783 130.764C408.593 128.509 409.861 126.73 411.587 125.427C413.348 124.089 415.514 123.419 418.086 123.419C420.622 123.419 422.595 124.3 424.004 126.061C424.074 126.167 424.144 126.202 424.215 126.167C424.285 126.132 424.321 126.061 424.321 125.956V114.649ZM423.211 142.758C423.915 141.454 424.268 139.675 424.268 137.421C424.268 135.061 423.88 133.212 423.105 131.873C422.295 130.499 421.115 129.813 419.565 129.813C417.91 129.813 416.659 130.499 415.814 131.873C414.933 133.247 414.493 135.114 414.493 137.474C414.493 139.587 414.863 141.349 415.603 142.758C416.483 144.272 417.786 145.029 419.512 145.029C421.098 145.029 422.33 144.272 423.211 142.758ZM460.376 134.621C460.588 135.959 460.658 137.456 460.588 139.112C460.553 139.534 460.324 139.746 459.901 139.746H443.574C443.363 139.746 443.293 139.834 443.363 140.01C443.469 140.715 443.663 141.419 443.944 142.123C444.86 144.096 446.727 145.082 449.545 145.082C451.799 145.047 453.578 144.131 454.881 142.335C455.022 142.123 455.181 142.018 455.357 142.018C455.463 142.018 455.586 142.088 455.727 142.229L459.531 145.981C459.707 146.157 459.795 146.315 459.795 146.456C459.795 146.527 459.725 146.667 459.584 146.879C458.421 148.323 456.924 149.45 455.093 150.26C453.261 151.035 451.253 151.423 449.069 151.423C446.04 151.423 443.469 150.736 441.355 149.362C439.277 147.988 437.78 146.069 436.864 143.603C436.125 141.842 435.755 139.534 435.755 136.681C435.755 134.744 436.019 133.036 436.547 131.556C437.357 129.055 438.766 127.065 440.774 125.586C442.817 124.106 445.23 123.367 448.013 123.367C451.535 123.367 454.353 124.388 456.467 126.431C458.615 128.474 459.919 131.204 460.376 134.621ZM448.066 129.813C445.846 129.813 444.385 130.852 443.68 132.93C443.539 133.388 443.416 133.951 443.31 134.621C443.31 134.797 443.398 134.885 443.574 134.885H452.715C452.927 134.885 452.997 134.797 452.927 134.621C452.75 133.599 452.662 133.106 452.662 133.141C452.345 132.085 451.782 131.274 450.972 130.711C450.197 130.112 449.228 129.813 448.066 129.813ZM463.013 151C462.837 151 462.678 150.947 462.537 150.841C462.432 150.701 462.379 150.542 462.379 150.366V145.981C462.379 145.804 462.432 145.664 462.537 145.558C462.678 145.417 462.837 145.347 463.013 145.347H487.37C487.547 145.347 487.687 145.417 487.793 145.558C487.934 145.664 488.005 145.804 488.005 145.981V150.366C488.005 150.542 487.934 150.701 487.793 150.841C487.687 150.947 487.547 151 487.37 151H463.013ZM520.839 123.419C523.587 123.419 525.735 124.247 527.285 125.903C528.835 127.558 529.61 129.883 529.61 132.877V150.366C529.61 150.542 529.539 150.701 529.399 150.841C529.293 150.947 529.152 151 528.976 151H522.794C522.618 151 522.459 150.947 522.318 150.841C522.213 150.701 522.16 150.542 522.16 150.366V134.515C522.16 133.071 521.79 131.926 521.05 131.081C520.311 130.235 519.324 129.813 518.092 129.813C516.859 129.813 515.855 130.235 515.08 131.081C514.305 131.926 513.917 133.053 513.917 134.462V150.366C513.917 150.542 513.847 150.701 513.706 150.841C513.6 150.947 513.46 151 513.283 151H507.154C506.978 151 506.82 150.947 506.679 150.841C506.573 150.701 506.52 150.542 506.52 150.366V134.515C506.52 133.106 506.133 131.979 505.358 131.134C504.583 130.253 503.579 129.813 502.346 129.813C501.219 129.813 500.268 130.147 499.493 130.816C498.753 131.486 498.313 132.419 498.172 133.617V150.366C498.172 150.542 498.102 150.701 497.961 150.841C497.855 150.947 497.714 151 497.538 151H491.356C491.18 151 491.022 150.947 490.881 150.841C490.775 150.701 490.722 150.542 490.722 150.366V124.476C490.722 124.3 490.775 124.159 490.881 124.053C491.022 123.913 491.18 123.842 491.356 123.842H497.538C497.714 123.842 497.855 123.913 497.961 124.053C498.102 124.159 498.172 124.3 498.172 124.476V126.537C498.172 126.642 498.207 126.713 498.278 126.748C498.348 126.783 498.419 126.748 498.489 126.642C499.933 124.494 502.17 123.419 505.199 123.419C506.961 123.419 508.493 123.789 509.796 124.529C511.135 125.269 512.156 126.325 512.861 127.699C512.966 127.91 513.09 127.91 513.231 127.699C514.006 126.255 515.045 125.181 516.348 124.476C517.686 123.772 519.183 123.419 520.839 123.419ZM545.621 151.423C542.662 151.423 540.126 150.648 538.013 149.098C535.899 147.548 534.455 145.435 533.68 142.758C533.187 141.102 532.94 139.306 532.94 137.368C532.94 135.29 533.187 133.423 533.68 131.768C534.49 129.161 535.952 127.118 538.065 125.639C540.179 124.159 542.715 123.419 545.674 123.419C548.562 123.419 551.028 124.159 553.071 125.639C555.114 127.083 556.558 129.108 557.403 131.715C557.967 133.476 558.249 135.325 558.249 137.263C558.249 139.165 558.002 140.943 557.509 142.599C556.734 145.347 555.29 147.513 553.177 149.098C551.098 150.648 548.58 151.423 545.621 151.423ZM545.621 145.029C546.783 145.029 547.77 144.677 548.58 143.973C549.39 143.268 549.971 142.3 550.323 141.067C550.605 139.94 550.746 138.707 550.746 137.368C550.746 135.889 550.605 134.638 550.323 133.617C549.936 132.419 549.337 131.486 548.527 130.816C547.717 130.147 546.731 129.813 545.568 129.813C544.371 129.813 543.367 130.147 542.556 130.816C541.782 131.486 541.218 132.419 540.866 133.617C540.584 134.462 540.443 135.713 540.443 137.368C540.443 138.953 540.566 140.186 540.813 141.067C541.165 142.3 541.746 143.268 542.556 143.973C543.402 144.677 544.423 145.029 545.621 145.029ZM578.836 114.649C578.836 114.472 578.889 114.332 578.995 114.226C579.135 114.085 579.294 114.015 579.47 114.015H585.652C585.828 114.015 585.969 114.085 586.075 114.226C586.216 114.332 586.286 114.472 586.286 114.649V150.366C586.286 150.542 586.216 150.701 586.075 150.841C585.969 150.947 585.828 151 585.652 151H579.47C579.294 151 579.135 150.947 578.995 150.841C578.889 150.701 578.836 150.542 578.836 150.366V148.622C578.836 148.517 578.801 148.464 578.73 148.464C578.66 148.429 578.59 148.446 578.519 148.517C577.04 150.454 575.014 151.423 572.443 151.423C569.977 151.423 567.846 150.736 566.05 149.362C564.288 147.988 563.02 146.104 562.245 143.709C561.647 141.877 561.347 139.746 561.347 137.315C561.347 134.814 561.664 132.631 562.298 130.764C563.108 128.509 564.377 126.73 566.102 125.427C567.864 124.089 570.03 123.419 572.601 123.419C575.138 123.419 577.11 124.3 578.519 126.061C578.59 126.167 578.66 126.202 578.73 126.167C578.801 126.132 578.836 126.061 578.836 125.956V114.649ZM577.727 142.758C578.431 141.454 578.783 139.675 578.783 137.421C578.783 135.061 578.396 133.212 577.621 131.873C576.811 130.499 575.631 129.813 574.081 129.813C572.425 129.813 571.175 130.499 570.329 131.873C569.449 133.247 569.008 135.114 569.008 137.474C569.008 139.587 569.378 141.349 570.118 142.758C570.999 144.272 572.302 145.029 574.028 145.029C575.613 145.029 576.846 144.272 577.727 142.758ZM606.702 124.476C606.702 124.3 606.755 124.159 606.861 124.053C607.002 123.913 607.16 123.842 607.336 123.842H613.518C613.694 123.842 613.835 123.913 613.941 124.053C614.082 124.159 614.152 124.3 614.152 124.476V150.366C614.152 150.542 614.082 150.701 613.941 150.841C613.835 150.947 613.694 151 613.518 151H607.336C607.16 151 607.002 150.947 606.861 150.841C606.755 150.701 606.702 150.542 606.702 150.366V148.57C606.702 148.464 606.667 148.411 606.597 148.411C606.526 148.376 606.456 148.411 606.385 148.517C604.976 150.419 602.792 151.37 599.834 151.37C597.157 151.37 594.955 150.56 593.229 148.939C591.503 147.319 590.64 145.047 590.64 142.123V124.476C590.64 124.3 590.693 124.159 590.799 124.053C590.939 123.913 591.098 123.842 591.274 123.842H597.403C597.579 123.842 597.72 123.913 597.826 124.053C597.967 124.159 598.037 124.3 598.037 124.476V140.274C598.037 141.683 598.407 142.828 599.147 143.709C599.922 144.589 600.978 145.029 602.317 145.029C603.515 145.029 604.501 144.677 605.276 143.973C606.051 143.233 606.526 142.282 606.702 141.12V124.476ZM619.22 151C619.044 151 618.886 150.947 618.745 150.841C618.639 150.701 618.586 150.542 618.586 150.366V114.649C618.586 114.472 618.639 114.332 618.745 114.226C618.886 114.085 619.044 114.015 619.22 114.015H625.402C625.578 114.015 625.719 114.085 625.825 114.226C625.966 114.332 626.036 114.472 626.036 114.649V150.366C626.036 150.542 625.966 150.701 625.825 150.841C625.719 150.947 625.578 151 625.402 151H619.22ZM654.47 134.621C654.681 135.959 654.752 137.456 654.681 139.112C654.646 139.534 654.417 139.746 653.994 139.746H637.668C637.456 139.746 637.386 139.834 637.456 140.01C637.562 140.715 637.756 141.419 638.038 142.123C638.953 144.096 640.82 145.082 643.638 145.082C645.893 145.047 647.671 144.131 648.975 142.335C649.116 142.123 649.274 142.018 649.45 142.018C649.556 142.018 649.679 142.088 649.82 142.229L653.624 145.981C653.8 146.157 653.889 146.315 653.889 146.456C653.889 146.527 653.818 146.667 653.677 146.879C652.515 148.323 651.018 149.45 649.186 150.26C647.354 151.035 645.347 151.423 643.163 151.423C640.133 151.423 637.562 150.736 635.449 149.362C633.37 147.988 631.873 146.069 630.958 143.603C630.218 141.842 629.848 139.534 629.848 136.681C629.848 134.744 630.112 133.036 630.641 131.556C631.451 129.055 632.86 127.065 634.867 125.586C636.91 124.106 639.323 123.367 642.106 123.367C645.628 123.367 648.446 124.388 650.56 126.431C652.709 128.474 654.012 131.204 654.47 134.621ZM642.159 129.813C639.94 129.813 638.478 130.852 637.773 132.93C637.633 133.388 637.509 133.951 637.404 134.621C637.404 134.797 637.492 134.885 637.668 134.885H646.808C647.02 134.885 647.09 134.797 647.02 134.621C646.844 133.599 646.756 133.106 646.756 133.141C646.439 132.085 645.875 131.274 645.065 130.711C644.29 130.112 643.321 129.813 642.159 129.813ZM668.686 151.37C666.326 151.37 664.265 151.035 662.504 150.366C660.743 149.697 659.369 148.763 658.383 147.566C657.432 146.368 656.956 145.012 656.956 143.497V142.969C656.956 142.793 657.009 142.652 657.115 142.546C657.256 142.405 657.414 142.335 657.59 142.335H663.455C663.631 142.335 663.772 142.405 663.878 142.546C664.019 142.652 664.089 142.793 664.089 142.969V143.022C664.089 143.797 664.512 144.466 665.357 145.029C666.238 145.558 667.33 145.822 668.633 145.822C669.831 145.822 670.799 145.593 671.539 145.135C672.279 144.642 672.649 144.043 672.649 143.339C672.649 142.705 672.332 142.229 671.698 141.912C671.064 141.595 670.025 141.26 668.58 140.908C666.925 140.486 665.622 140.08 664.67 139.693C662.416 138.918 660.62 137.967 659.281 136.84C657.943 135.713 657.273 134.092 657.273 131.979C657.273 129.372 658.277 127.312 660.285 125.797C662.328 124.247 665.023 123.472 668.369 123.472C670.623 123.472 672.596 123.842 674.287 124.582C675.977 125.286 677.281 126.29 678.197 127.593C679.148 128.897 679.623 130.376 679.623 132.032C679.623 132.208 679.553 132.366 679.412 132.507C679.306 132.613 679.165 132.666 678.989 132.666H673.336C673.16 132.666 673.001 132.613 672.86 132.507C672.754 132.366 672.702 132.208 672.702 132.032C672.702 131.257 672.297 130.605 671.486 130.077C670.711 129.548 669.672 129.284 668.369 129.284C667.207 129.284 666.256 129.496 665.516 129.918C664.776 130.341 664.406 130.922 664.406 131.662C664.406 132.366 664.759 132.895 665.463 133.247C666.203 133.599 667.418 133.969 669.109 134.357C669.496 134.462 669.937 134.585 670.43 134.726C670.923 134.832 671.451 134.973 672.015 135.149C674.516 135.889 676.488 136.84 677.932 138.002C679.377 139.165 680.099 140.855 680.099 143.075C680.099 145.681 679.06 147.724 676.981 149.204C674.938 150.648 672.173 151.37 668.686 151.37Z"></path>
</g>
<g filter="url(#filter2_d_10768_4952)">
<rect shape-rendering="crispEdges" fill="#131920" rx="8.56805" height="223.996" width="625.654" y="193.754" x="90.3455"></rect>
<rect shape-rendering="crispEdges" stroke-width="2.34767" stroke="#2D3748" rx="9.74189" height="226.344" width="628.002" y="192.58" x="89.1717"></rect>
<path fill="#E2E8F0" d="M132.64 249.731V247.919H136.506C137.125 247.919 137.574 247.779 137.854 247.499C138.149 247.22 138.296 246.785 138.296 246.196V244.649L138.34 242.44H137.942L138.318 242.108C138.318 242.992 138.023 243.692 137.434 244.207C136.845 244.723 136.057 244.981 135.07 244.981C133.818 244.981 132.831 244.575 132.109 243.765C131.387 242.94 131.027 241.836 131.027 240.451V237.888C131.027 236.503 131.387 235.406 132.109 234.596C132.831 233.785 133.818 233.38 135.07 233.38C136.057 233.38 136.845 233.638 137.434 234.154C138.023 234.669 138.318 235.369 138.318 236.253L137.942 235.921H138.318V233.601H140.285V246.196C140.285 247.286 139.946 248.148 139.268 248.781C138.605 249.414 137.677 249.731 136.484 249.731H132.64ZM135.667 243.257C136.492 243.257 137.14 242.999 137.611 242.484C138.082 241.968 138.318 241.254 138.318 240.34V238.02C138.318 237.107 138.082 236.393 137.611 235.877C137.14 235.362 136.492 235.104 135.667 235.104C134.827 235.104 134.171 235.354 133.7 235.855C133.243 236.356 133.015 237.078 133.015 238.02V240.34C133.015 241.283 133.243 242.005 133.7 242.506C134.171 243.007 134.827 243.257 135.667 243.257ZM148.518 245.975C147.56 245.975 146.721 245.783 145.999 245.4C145.292 245.017 144.739 244.48 144.342 243.787C143.959 243.08 143.767 242.263 143.767 241.335V238.02C143.767 237.078 143.959 236.26 144.342 235.568C144.739 234.875 145.292 234.338 145.999 233.955C146.721 233.572 147.56 233.38 148.518 233.38C149.475 233.38 150.307 233.572 151.015 233.955C151.736 234.338 152.289 234.875 152.672 235.568C153.069 236.26 153.268 237.078 153.268 238.02V240.164H145.712V241.335C145.712 242.292 145.955 243.029 146.441 243.544C146.927 244.045 147.619 244.296 148.518 244.296C149.284 244.296 149.902 244.163 150.374 243.898C150.845 243.618 151.132 243.206 151.235 242.661H153.224C153.092 243.677 152.591 244.487 151.722 245.091C150.867 245.68 149.799 245.975 148.518 245.975ZM151.324 238.838V238.02C151.324 237.063 151.081 236.326 150.595 235.811C150.123 235.295 149.431 235.037 148.518 235.037C147.619 235.037 146.927 235.295 146.441 235.811C145.955 236.326 145.712 237.063 145.712 238.02V238.661H151.479L151.324 238.838ZM156.729 245.754V233.601H158.717V235.921H159.137L158.717 236.385C158.717 235.428 159.005 234.691 159.579 234.176C160.154 233.645 160.949 233.38 161.965 233.38C163.188 233.38 164.16 233.756 164.882 234.507C165.604 235.258 165.965 236.282 165.965 237.578V245.754H163.976V237.799C163.976 236.93 163.74 236.267 163.269 235.811C162.812 235.339 162.186 235.104 161.391 235.104C160.566 235.104 159.91 235.354 159.424 235.855C158.953 236.356 158.717 237.078 158.717 238.02V245.754H156.729ZM174.131 245.975C173.174 245.975 172.334 245.783 171.613 245.4C170.906 245.017 170.353 244.48 169.955 243.787C169.572 243.08 169.381 242.263 169.381 241.335V238.02C169.381 237.078 169.572 236.26 169.955 235.568C170.353 234.875 170.906 234.338 171.613 233.955C172.334 233.572 173.174 233.38 174.131 233.38C175.089 233.38 175.921 233.572 176.628 233.955C177.35 234.338 177.902 234.875 178.285 235.568C178.683 236.26 178.882 237.078 178.882 238.02V240.164H171.325V241.335C171.325 242.292 171.568 243.029 172.054 243.544C172.541 244.045 173.233 244.296 174.131 244.296C174.897 244.296 175.516 244.163 175.988 243.898C176.459 243.618 176.746 243.206 176.849 242.661H178.838C178.705 243.677 178.204 244.487 177.335 245.091C176.481 245.68 175.413 245.975 174.131 245.975ZM176.938 238.838V238.02C176.938 237.063 176.695 236.326 176.208 235.811C175.737 235.295 175.045 235.037 174.131 235.037C173.233 235.037 172.541 235.295 172.054 235.811C171.568 236.326 171.325 237.063 171.325 238.02V238.661H177.092L176.938 238.838ZM182.762 245.754V233.601H184.707V235.921H185.171L184.53 237.358C184.53 236.047 184.81 235.06 185.37 234.397C185.944 233.719 186.791 233.38 187.911 233.38C189.192 233.38 190.209 233.785 190.96 234.596C191.726 235.391 192.109 236.474 192.109 237.844V238.573H190.12V238.02C190.12 237.063 189.884 236.334 189.413 235.833C188.956 235.317 188.301 235.06 187.447 235.06C186.607 235.06 185.944 235.317 185.458 235.833C184.987 236.348 184.751 237.078 184.751 238.02V245.754H182.762ZM198.685 245.975C197.403 245.975 196.394 245.651 195.658 245.003C194.921 244.34 194.553 243.449 194.553 242.329C194.553 241.195 194.921 240.304 195.658 239.655C196.394 239.007 197.388 238.683 198.64 238.683H202.397V237.468C202.397 236.717 202.168 236.142 201.712 235.745C201.27 235.332 200.636 235.126 199.812 235.126C199.09 235.126 198.486 235.281 198 235.59C197.514 235.884 197.234 236.29 197.16 236.805H195.171C195.304 235.759 195.798 234.927 196.652 234.308C197.506 233.69 198.574 233.38 199.856 233.38C201.255 233.38 202.36 233.741 203.17 234.463C203.98 235.185 204.385 236.164 204.385 237.402V245.754H202.441V243.434H202.11L202.441 243.102C202.441 243.986 202.095 244.686 201.402 245.202C200.725 245.717 199.819 245.975 198.685 245.975ZM199.171 244.406C200.114 244.406 200.887 244.17 201.491 243.699C202.095 243.228 202.397 242.624 202.397 241.887V240.164H198.685C198.022 240.164 197.499 240.348 197.116 240.716C196.733 241.084 196.541 241.585 196.541 242.219C196.541 242.896 196.77 243.434 197.226 243.832C197.698 244.215 198.346 244.406 199.171 244.406ZM213.878 245.754C212.832 245.754 212.015 245.474 211.425 244.914C210.851 244.355 210.564 243.566 210.564 242.55V235.413H207.139V233.601H210.564V230.176H212.552V233.601H217.413V235.413H212.552V242.55C212.552 243.478 212.994 243.942 213.878 243.942H217.192V245.754H213.878ZM225.359 245.931C224.387 245.931 223.547 245.747 222.84 245.378C222.133 245.01 221.581 244.48 221.183 243.787C220.8 243.08 220.608 242.248 220.608 241.291V238.065C220.608 237.092 220.8 236.26 221.183 235.568C221.581 234.875 222.133 234.345 222.84 233.977C223.547 233.609 224.387 233.424 225.359 233.424C226.331 233.424 227.171 233.609 227.878 233.977C228.585 234.345 229.13 234.875 229.513 235.568C229.911 236.26 230.11 237.085 230.11 238.042V241.291C230.11 242.248 229.911 243.08 229.513 243.787C229.13 244.48 228.585 245.01 227.878 245.378C227.171 245.747 226.331 245.931 225.359 245.931ZM225.359 244.163C226.228 244.163 226.906 243.92 227.392 243.434C227.878 242.948 228.121 242.233 228.121 241.291V238.065C228.121 237.122 227.878 236.407 227.392 235.921C226.906 235.435 226.228 235.192 225.359 235.192C224.505 235.192 223.827 235.435 223.326 235.921C222.84 236.407 222.597 237.122 222.597 238.065V241.291C222.597 242.233 222.84 242.948 223.326 243.434C223.827 243.92 224.505 244.163 225.359 244.163ZM233.99 245.754V233.601H235.934V235.921H236.398L235.758 237.358C235.758 236.047 236.037 235.06 236.597 234.397C237.172 233.719 238.019 233.38 239.138 233.38C240.42 233.38 241.436 233.785 242.187 234.596C242.953 235.391 243.336 236.474 243.336 237.844V238.573H241.348V238.02C241.348 237.063 241.112 236.334 240.641 235.833C240.184 235.317 239.529 235.06 238.674 235.06C237.835 235.06 237.172 235.317 236.686 235.833C236.214 236.348 235.978 237.078 235.978 238.02V245.754H233.99ZM263.868 245.975C262.896 245.975 262.042 245.791 261.305 245.422C260.583 245.054 260.023 244.524 259.626 243.832C259.228 243.125 259.029 242.292 259.029 241.335V238.02C259.029 237.048 259.228 236.216 259.626 235.524C260.023 234.831 260.583 234.301 261.305 233.933C262.042 233.564 262.896 233.38 263.868 233.38C265.268 233.38 266.394 233.756 267.249 234.507C268.103 235.258 268.552 236.282 268.597 237.578H266.608C266.564 236.798 266.299 236.201 265.813 235.789C265.341 235.362 264.693 235.148 263.868 235.148C262.999 235.148 262.307 235.398 261.791 235.899C261.276 236.385 261.018 237.085 261.018 237.998V241.335C261.018 242.248 261.276 242.955 261.791 243.456C262.307 243.957 262.999 244.207 263.868 244.207C264.693 244.207 265.341 243.994 265.813 243.566C266.299 243.139 266.564 242.543 266.608 241.777H268.597C268.552 243.073 268.103 244.097 267.249 244.848C266.394 245.599 265.268 245.975 263.868 245.975ZM278.244 245.754C277.537 245.754 276.918 245.614 276.388 245.334C275.857 245.054 275.445 244.656 275.15 244.141C274.856 243.625 274.708 243.021 274.708 242.329V231.436H270.621V229.624H276.697V242.329C276.697 242.83 276.837 243.228 277.117 243.522C277.397 243.802 277.772 243.942 278.244 243.942H282.111V245.754H278.244ZM284.643 245.754V243.942H288.952V235.413H285.195V233.601H290.94V243.942H295.028V245.754H284.643ZM289.725 231.414C289.239 231.414 288.856 231.289 288.576 231.038C288.296 230.788 288.156 230.449 288.156 230.022C288.156 229.58 288.296 229.234 288.576 228.983C288.856 228.718 289.239 228.586 289.725 228.586C290.211 228.586 290.594 228.718 290.874 228.983C291.154 229.234 291.294 229.58 291.294 230.022C291.294 230.449 291.154 230.788 290.874 231.038C290.594 231.289 290.211 231.414 289.725 231.414ZM302.2 245.975C301.243 245.975 300.403 245.783 299.682 245.4C298.974 245.017 298.422 244.48 298.024 243.787C297.641 243.08 297.45 242.263 297.45 241.335V238.02C297.45 237.078 297.641 236.26 298.024 235.568C298.422 234.875 298.974 234.338 299.682 233.955C300.403 233.572 301.243 233.38 302.2 233.38C303.158 233.38 303.99 233.572 304.697 233.955C305.419 234.338 305.971 234.875 306.354 235.568C306.752 236.26 306.951 237.078 306.951 238.02V240.164H299.394V241.335C299.394 242.292 299.637 243.029 300.123 243.544C300.61 244.045 301.302 244.296 302.2 244.296C302.966 244.296 303.585 244.163 304.056 243.898C304.528 243.618 304.815 243.206 304.918 242.661H306.907C306.774 243.677 306.273 244.487 305.404 245.091C304.55 245.68 303.482 245.975 302.2 245.975ZM305.007 238.838V238.02C305.007 237.063 304.764 236.326 304.277 235.811C303.806 235.295 303.114 235.037 302.2 235.037C301.302 235.037 300.61 235.295 300.123 235.811C299.637 236.326 299.394 237.063 299.394 238.02V238.661H305.161L305.007 238.838ZM310.411 245.754V233.601H312.4V235.921H312.82L312.4 236.385C312.4 235.428 312.687 234.691 313.262 234.176C313.836 233.645 314.632 233.38 315.648 233.38C316.871 233.38 317.843 233.756 318.565 234.507C319.287 235.258 319.647 236.282 319.647 237.578V245.754H317.659V237.799C317.659 236.93 317.423 236.267 316.952 235.811C316.495 235.339 315.869 235.104 315.074 235.104C314.249 235.104 313.593 235.354 313.107 235.855C312.636 236.356 312.4 237.078 312.4 238.02V245.754H310.411ZM329.14 245.754C328.094 245.754 327.277 245.474 326.687 244.914C326.113 244.355 325.826 243.566 325.826 242.55V235.413H322.401V233.601H325.826V230.176H327.814V233.601H332.675V235.413H327.814V242.55C327.814 243.478 328.256 243.942 329.14 243.942H332.454V245.754H329.14ZM156.729 283.731V267.601H158.717V269.921H159.115L158.717 270.385C158.717 269.457 159.019 268.728 159.623 268.198C160.242 267.653 161.052 267.38 162.054 267.38C163.276 267.38 164.249 267.785 164.97 268.596C165.707 269.391 166.075 270.488 166.075 271.888V275.445C166.075 276.373 165.906 277.176 165.567 277.854C165.243 278.531 164.779 279.054 164.175 279.422C163.586 279.791 162.879 279.975 162.054 279.975C161.067 279.975 160.264 279.702 159.645 279.157C159.027 278.612 158.717 277.883 158.717 276.97L159.115 277.434H158.673L158.717 280.196V283.731H156.729ZM161.391 278.251C162.231 278.251 162.886 278.001 163.357 277.5C163.844 276.999 164.087 276.278 164.087 275.335V272.02C164.087 271.078 163.844 270.356 163.357 269.855C162.886 269.354 162.231 269.104 161.391 269.104C160.581 269.104 159.933 269.362 159.446 269.877C158.96 270.393 158.717 271.107 158.717 272.02V275.335C158.717 276.248 158.96 276.962 159.446 277.478C159.933 277.994 160.581 278.251 161.391 278.251ZM169.955 279.754V267.601H171.9V269.921H172.364L171.723 271.358C171.723 270.047 172.003 269.06 172.563 268.397C173.137 267.719 173.984 267.38 175.104 267.38C176.385 267.38 177.402 267.785 178.153 268.596C178.919 269.391 179.302 270.474 179.302 271.844V272.573H177.313V272.02C177.313 271.063 177.078 270.334 176.606 269.833C176.15 269.317 175.494 269.06 174.64 269.06C173.8 269.06 173.137 269.317 172.651 269.833C172.18 270.348 171.944 271.078 171.944 272.02V279.754H169.955ZM186.938 279.931C185.966 279.931 185.127 279.747 184.419 279.378C183.712 279.01 183.16 278.48 182.762 277.787C182.379 277.08 182.188 276.248 182.188 275.291V272.065C182.188 271.092 182.379 270.26 182.762 269.568C183.16 268.875 183.712 268.345 184.419 267.977C185.127 267.609 185.966 267.424 186.938 267.424C187.911 267.424 188.75 267.609 189.457 267.977C190.164 268.345 190.709 268.875 191.092 269.568C191.49 270.26 191.689 271.085 191.689 272.042V275.291C191.689 276.248 191.49 277.08 191.092 277.787C190.709 278.48 190.164 279.01 189.457 279.378C188.75 279.747 187.911 279.931 186.938 279.931ZM186.938 278.163C187.807 278.163 188.485 277.92 188.971 277.434C189.457 276.948 189.7 276.233 189.7 275.291V272.065C189.7 271.122 189.457 270.407 188.971 269.921C188.485 269.435 187.807 269.192 186.938 269.192C186.084 269.192 185.406 269.435 184.906 269.921C184.419 270.407 184.176 271.122 184.176 272.065V275.291C184.176 276.233 184.419 276.948 184.906 277.434C185.406 277.92 186.084 278.163 186.938 278.163ZM198.397 279.754L194.332 267.601H196.365L199.06 275.777C199.222 276.263 199.37 276.734 199.502 277.191C199.635 277.633 199.731 277.979 199.789 278.229C199.863 277.979 199.966 277.633 200.099 277.191C200.231 276.734 200.371 276.263 200.519 275.777L203.148 267.601H205.159L201.093 279.754H198.397ZM207.802 279.754V277.942H212.11V269.413H208.354V267.601H214.099V277.942H218.187V279.754H207.802ZM212.884 265.414C212.398 265.414 212.015 265.289 211.735 265.038C211.455 264.788 211.315 264.449 211.315 264.022C211.315 263.58 211.455 263.234 211.735 262.983C212.015 262.718 212.398 262.586 212.884 262.586C213.37 262.586 213.753 262.718 214.033 262.983C214.312 263.234 214.452 263.58 214.452 264.022C214.452 264.449 214.312 264.788 214.033 265.038C213.753 265.289 213.37 265.414 212.884 265.414ZM224.652 279.975C223.444 279.975 222.465 279.57 221.713 278.76C220.977 277.949 220.608 276.852 220.608 275.467V271.91C220.608 270.511 220.977 269.406 221.713 268.596C222.45 267.785 223.429 267.38 224.652 267.38C225.654 267.38 226.456 267.653 227.06 268.198C227.664 268.743 227.966 269.472 227.966 270.385L227.569 269.921H228.011L227.966 267.159V263.624H229.955V279.754H227.966V277.434H227.569L227.966 276.97C227.966 277.898 227.664 278.634 227.06 279.179C226.456 279.71 225.654 279.975 224.652 279.975ZM225.315 278.251C226.14 278.251 226.788 277.994 227.259 277.478C227.731 276.962 227.966 276.248 227.966 275.335V272.02C227.966 271.107 227.731 270.393 227.259 269.877C226.788 269.362 226.14 269.104 225.315 269.104C224.475 269.104 223.812 269.354 223.326 269.855C222.84 270.356 222.597 271.078 222.597 272.02V275.335C222.597 276.278 222.84 276.999 223.326 277.5C223.812 278.001 224.475 278.251 225.315 278.251ZM238.166 279.975C237.208 279.975 236.369 279.783 235.647 279.4C234.94 279.017 234.388 278.48 233.99 277.787C233.607 277.08 233.415 276.263 233.415 275.335V272.02C233.415 271.078 233.607 270.26 233.99 269.568C234.388 268.875 234.94 268.338 235.647 267.955C236.369 267.572 237.208 267.38 238.166 267.38C239.123 267.38 239.956 267.572 240.663 267.955C241.385 268.338 241.937 268.875 242.32 269.568C242.718 270.26 242.917 271.078 242.917 272.02V274.164H235.36V275.335C235.36 276.292 235.603 277.029 236.089 277.544C236.575 278.045 237.267 278.296 238.166 278.296C238.932 278.296 239.551 278.163 240.022 277.898C240.493 277.618 240.781 277.206 240.884 276.661H242.872C242.74 277.677 242.239 278.487 241.37 279.091C240.515 279.68 239.448 279.975 238.166 279.975ZM240.972 272.838V272.02C240.972 271.063 240.729 270.326 240.243 269.811C239.772 269.295 239.079 269.037 238.166 269.037C237.267 269.037 236.575 269.295 236.089 269.811C235.603 270.326 235.36 271.063 235.36 272.02V272.661H241.127L240.972 272.838ZM246.797 279.754V267.601H248.741V269.921H249.205L248.564 271.358C248.564 270.047 248.844 269.06 249.404 268.397C249.979 267.719 250.826 267.38 251.945 267.38C253.227 267.38 254.243 267.785 254.994 268.596C255.76 269.391 256.143 270.474 256.143 271.844V272.573H254.155V272.02C254.155 271.063 253.919 270.334 253.448 269.833C252.991 269.317 252.335 269.06 251.481 269.06C250.641 269.06 249.979 269.317 249.492 269.833C249.021 270.348 248.785 271.078 248.785 272.02V279.754H246.797Z"></path>
<path fill="#718096" d="M357.184 248.184C356.315 248.184 355.564 248.037 354.931 247.743C354.312 247.463 353.84 247.043 353.516 246.483C353.192 245.938 353.052 245.283 353.097 244.517L353.318 240.893C353.362 240.112 353.244 239.552 352.964 239.214C352.684 238.86 352.065 238.683 351.108 238.683H348.677V236.916H351.108C352.065 236.916 352.684 236.746 352.964 236.407C353.244 236.054 353.362 235.487 353.318 234.706L353.097 231.082C353.052 230.302 353.192 229.639 353.516 229.094C353.84 228.549 354.312 228.136 354.931 227.856C355.564 227.562 356.315 227.414 357.184 227.414H358.179V229.182H357.184C356.492 229.182 355.962 229.344 355.593 229.668C355.225 229.978 355.056 230.449 355.085 231.082L355.306 234.706C355.365 235.664 355.137 236.43 354.621 237.004C354.106 237.564 353.376 237.844 352.434 237.844V237.733C353.362 237.733 354.083 238.02 354.599 238.595C355.129 239.169 355.365 239.935 355.306 240.893L355.085 244.517C355.056 245.15 355.225 245.621 355.593 245.931C355.962 246.255 356.492 246.417 357.184 246.417H358.179V248.184H357.184ZM130.96 384.184V382.417H131.955C132.647 382.417 133.177 382.255 133.545 381.931C133.914 381.621 134.083 381.15 134.054 380.517L133.833 376.893C133.774 375.935 134.002 375.169 134.518 374.595C135.048 374.02 135.777 373.733 136.705 373.733V373.844C135.762 373.844 135.033 373.564 134.518 373.004C134.002 372.43 133.774 371.664 133.833 370.706L134.054 367.082C134.083 366.449 133.914 365.978 133.545 365.668C133.177 365.344 132.647 365.182 131.955 365.182H130.96V363.414H131.955C132.824 363.414 133.568 363.562 134.186 363.856C134.82 364.136 135.298 364.549 135.622 365.094C135.946 365.639 136.086 366.302 136.042 367.082L135.821 370.706C135.777 371.487 135.895 372.054 136.175 372.407C136.455 372.746 137.073 372.916 138.031 372.916H140.461V374.683H138.031C137.088 374.683 136.469 374.86 136.175 375.214C135.895 375.552 135.777 376.112 135.821 376.893L136.042 380.517C136.086 381.283 135.946 381.938 135.622 382.483C135.298 383.043 134.82 383.463 134.186 383.743C133.568 384.037 132.824 384.184 131.955 384.184H130.96Z"></path>
<path fill="#187367" d="M361.484 270.695V268.927H370.985V270.695H361.484ZM361.484 275.998V274.23H370.985V275.998H361.484ZM393.285 270.253L393.02 265.613V263.624H395.163V265.613L394.92 270.253H393.285ZM388.799 270.253L388.534 265.613V263.624H390.678V265.613L390.435 270.253H388.799ZM400.06 283.731V267.601H402.048V269.921H402.446L402.048 270.385C402.048 269.457 402.35 268.728 402.954 268.198C403.573 267.653 404.383 267.38 405.385 267.38C406.607 267.38 407.58 267.785 408.301 268.596C409.038 269.391 409.406 270.488 409.406 271.888V275.445C409.406 276.373 409.237 277.176 408.898 277.854C408.574 278.531 408.11 279.054 407.506 279.422C406.917 279.791 406.21 279.975 405.385 279.975C404.398 279.975 403.595 279.702 402.976 279.157C402.358 278.612 402.048 277.883 402.048 276.97L402.446 277.434H402.004L402.048 280.196V283.731H400.06ZM404.722 278.251C405.562 278.251 406.217 278.001 406.688 277.5C407.174 276.999 407.418 276.278 407.418 275.335V272.02C407.418 271.078 407.174 270.356 406.688 269.855C406.217 269.354 405.562 269.104 404.722 269.104C403.912 269.104 403.264 269.362 402.777 269.877C402.291 270.393 402.048 271.107 402.048 272.02V275.335C402.048 276.248 402.291 276.962 402.777 277.478C403.264 277.994 403.912 278.251 404.722 278.251ZM413.286 279.754V267.601H415.231V269.921H415.695L415.054 271.358C415.054 270.047 415.334 269.06 415.894 268.397C416.468 267.719 417.315 267.38 418.435 267.38C419.716 267.38 420.733 267.785 421.484 268.596C422.25 269.391 422.633 270.474 422.633 271.844V272.573H420.644V272.02C420.644 271.063 420.409 270.334 419.937 269.833C419.481 269.317 418.825 269.06 417.971 269.06C417.131 269.06 416.468 269.317 415.982 269.833C415.511 270.348 415.275 271.078 415.275 272.02V279.754H413.286ZM425.519 279.754V277.942H429.827V269.413H426.071V267.601H431.816V277.942H435.904V279.754H425.519ZM430.601 265.414C430.115 265.414 429.732 265.289 429.452 265.038C429.172 264.788 429.032 264.449 429.032 264.022C429.032 263.58 429.172 263.234 429.452 262.983C429.732 262.718 430.115 262.586 430.601 262.586C431.087 262.586 431.47 262.718 431.75 262.983C432.03 263.234 432.17 263.58 432.17 264.022C432.17 264.449 432.03 264.788 431.75 265.038C431.47 265.289 431.087 265.414 430.601 265.414ZM442.701 279.931C441.876 279.931 441.154 279.805 440.535 279.555C439.931 279.29 439.445 278.922 439.077 278.45C438.723 277.979 438.51 277.419 438.436 276.771H440.425C440.513 277.198 440.749 277.537 441.132 277.787C441.53 278.038 442.052 278.163 442.701 278.163H443.629C444.409 278.163 444.991 278.008 445.374 277.699C445.757 277.375 445.949 276.948 445.949 276.417C445.949 275.902 445.772 275.497 445.418 275.202C445.08 274.893 444.571 274.687 443.894 274.584L442.259 274.318C441.066 274.112 440.174 273.744 439.585 273.214C439.011 272.669 438.723 271.88 438.723 270.849C438.723 269.759 439.07 268.92 439.762 268.33C440.454 267.726 441.493 267.424 442.877 267.424H443.717C444.881 267.424 445.816 267.697 446.523 268.242C447.23 268.787 447.657 269.524 447.805 270.452H445.816C445.728 270.069 445.507 269.767 445.153 269.546C444.8 269.31 444.321 269.192 443.717 269.192H442.877C442.126 269.192 441.574 269.332 441.22 269.612C440.881 269.892 440.712 270.312 440.712 270.871C440.712 271.372 440.859 271.741 441.154 271.976C441.449 272.212 441.913 272.381 442.546 272.484L444.181 272.75C445.492 272.956 446.442 273.339 447.031 273.899C447.635 274.458 447.937 275.268 447.937 276.329C447.937 277.449 447.576 278.332 446.855 278.981C446.148 279.614 445.072 279.931 443.629 279.931H442.701ZM450.713 279.754V267.601H452.458V269.06H452.856L452.547 269.59C452.547 268.912 452.723 268.375 453.077 267.977C453.445 267.579 453.939 267.38 454.557 267.38C455.235 267.38 455.758 267.631 456.126 268.132C456.494 268.632 456.679 269.339 456.679 270.253L456.082 269.06H457.01L456.59 269.59C456.59 268.912 456.774 268.375 457.143 267.977C457.526 267.579 458.026 267.38 458.645 267.38C459.411 267.38 460 267.668 460.413 268.242C460.84 268.817 461.054 269.575 461.054 270.518V279.754H459.22V270.496C459.22 269.995 459.109 269.605 458.888 269.325C458.682 269.045 458.373 268.905 457.96 268.905C457.562 268.905 457.246 269.045 457.01 269.325C456.789 269.59 456.679 269.973 456.679 270.474V279.754H455.088V270.496C455.088 269.98 454.97 269.59 454.734 269.325C454.513 269.045 454.197 268.905 453.784 268.905C453.372 268.905 453.062 269.045 452.856 269.325C452.65 269.59 452.547 269.973 452.547 270.474V279.754H450.713ZM467.629 279.975C466.348 279.975 465.339 279.651 464.602 279.003C463.866 278.34 463.498 277.449 463.498 276.329C463.498 275.195 463.866 274.304 464.602 273.655C465.339 273.007 466.333 272.683 467.585 272.683H471.342V271.468C471.342 270.717 471.113 270.142 470.657 269.745C470.215 269.332 469.581 269.126 468.756 269.126C468.035 269.126 467.431 269.281 466.944 269.59C466.458 269.884 466.178 270.29 466.105 270.805H464.116C464.249 269.759 464.742 268.927 465.597 268.308C466.451 267.69 467.519 267.38 468.801 267.38C470.2 267.38 471.305 267.741 472.115 268.463C472.925 269.185 473.33 270.164 473.33 271.402V279.754H471.386V277.434H471.054L471.386 277.102C471.386 277.986 471.04 278.686 470.347 279.202C469.67 279.717 468.764 279.975 467.629 279.975ZM468.116 278.406C469.058 278.406 469.832 278.17 470.436 277.699C471.04 277.228 471.342 276.624 471.342 275.887V274.164H467.629C466.967 274.164 466.444 274.348 466.061 274.716C465.678 275.084 465.486 275.585 465.486 276.219C465.486 276.896 465.714 277.434 466.171 277.832C466.642 278.215 467.291 278.406 468.116 278.406ZM477.962 273.346V271.578H485.032V273.346H477.962ZM494.392 279.975C493.42 279.975 492.566 279.791 491.829 279.422C491.107 279.054 490.548 278.524 490.15 277.832C489.752 277.125 489.553 276.292 489.553 275.335V272.02C489.553 271.048 489.752 270.216 490.15 269.524C490.548 268.831 491.107 268.301 491.829 267.933C492.566 267.564 493.42 267.38 494.392 267.38C495.792 267.38 496.918 267.756 497.773 268.507C498.627 269.258 499.077 270.282 499.121 271.578H497.132C497.088 270.798 496.823 270.201 496.337 269.789C495.865 269.362 495.217 269.148 494.392 269.148C493.523 269.148 492.831 269.398 492.315 269.899C491.8 270.385 491.542 271.085 491.542 271.998V275.335C491.542 276.248 491.8 276.955 492.315 277.456C492.831 277.957 493.523 278.207 494.392 278.207C495.217 278.207 495.865 277.994 496.337 277.566C496.823 277.139 497.088 276.543 497.132 275.777H499.121C499.077 277.073 498.627 278.097 497.773 278.848C496.918 279.599 495.792 279.975 494.392 279.975ZM508.768 279.754C508.061 279.754 507.442 279.614 506.912 279.334C506.382 279.054 505.969 278.656 505.674 278.141C505.38 277.625 505.233 277.021 505.233 276.329V265.436H501.145V263.624H507.221V276.329C507.221 276.83 507.361 277.228 507.641 277.522C507.921 277.802 508.297 277.942 508.768 277.942H512.635V279.754H508.768ZM515.167 279.754V277.942H519.476V269.413H515.719V267.601H521.464V277.942H525.552V279.754H515.167ZM520.249 265.414C519.763 265.414 519.38 265.289 519.1 265.038C518.82 264.788 518.68 264.449 518.68 264.022C518.68 263.58 518.82 263.234 519.1 262.983C519.38 262.718 519.763 262.586 520.249 262.586C520.735 262.586 521.118 262.718 521.398 262.983C521.678 263.234 521.818 263.58 521.818 264.022C521.818 264.449 521.678 264.788 521.398 265.038C521.118 265.289 520.735 265.414 520.249 265.414ZM532.725 279.975C531.767 279.975 530.927 279.783 530.206 279.4C529.499 279.017 528.946 278.48 528.548 277.787C528.165 277.08 527.974 276.263 527.974 275.335V272.02C527.974 271.078 528.165 270.26 528.548 269.568C528.946 268.875 529.499 268.338 530.206 267.955C530.927 267.572 531.767 267.38 532.725 267.38C533.682 267.38 534.514 267.572 535.221 267.955C535.943 268.338 536.496 268.875 536.879 269.568C537.276 270.26 537.475 271.078 537.475 272.02V274.164H529.918V275.335C529.918 276.292 530.161 277.029 530.648 277.544C531.134 278.045 531.826 278.296 532.725 278.296C533.491 278.296 534.109 278.163 534.581 277.898C535.052 277.618 535.339 277.206 535.442 276.661H537.431C537.298 277.677 536.797 278.487 535.928 279.091C535.074 279.68 534.006 279.975 532.725 279.975ZM535.531 272.838V272.02C535.531 271.063 535.288 270.326 534.802 269.811C534.33 269.295 533.638 269.037 532.725 269.037C531.826 269.037 531.134 269.295 530.648 269.811C530.161 270.326 529.918 271.063 529.918 272.02V272.661H535.685L535.531 272.838ZM540.935 279.754V267.601H542.924V269.921H543.344L542.924 270.385C542.924 269.428 543.211 268.691 543.786 268.176C544.36 267.645 545.156 267.38 546.172 267.38C547.395 267.38 548.367 267.756 549.089 268.507C549.811 269.258 550.172 270.282 550.172 271.578V279.754H548.183V271.799C548.183 270.93 547.947 270.267 547.476 269.811C547.019 269.339 546.393 269.104 545.598 269.104C544.773 269.104 544.117 269.354 543.631 269.855C543.16 270.356 542.924 271.078 542.924 272.02V279.754H540.935ZM559.664 279.754C558.618 279.754 557.801 279.474 557.211 278.914C556.637 278.355 556.35 277.566 556.35 276.55V269.413H552.925V267.601H556.35V264.176H558.338V267.601H563.199V269.413H558.338V276.55C558.338 277.478 558.78 277.942 559.664 277.942H562.978V279.754H559.664ZM567.61 273.346V271.578H574.68V273.346H567.61ZM579.202 283.731V281.897H582.052C582.965 281.897 583.672 281.647 584.173 281.146C584.689 280.66 584.946 279.967 584.946 279.069V269.413H579.864V267.601H586.935V279.069C586.935 280.498 586.493 281.632 585.609 282.472C584.725 283.311 583.54 283.731 582.052 283.731H579.202ZM585.83 265.414C585.344 265.414 584.961 265.289 584.681 265.038C584.401 264.788 584.261 264.449 584.261 264.022C584.261 263.58 584.401 263.234 584.681 262.983C584.961 262.718 585.344 262.586 585.83 262.586C586.316 262.586 586.699 262.718 586.979 262.983C587.259 263.234 587.399 263.58 587.399 264.022C587.399 264.449 587.259 264.788 586.979 265.038C586.699 265.289 586.316 265.414 585.83 265.414ZM596.383 279.931C595.558 279.931 594.837 279.805 594.218 279.555C593.614 279.29 593.128 278.922 592.76 278.45C592.406 277.979 592.193 277.419 592.119 276.771H594.107C594.196 277.198 594.432 277.537 594.815 277.787C595.212 278.038 595.735 278.163 596.383 278.163H597.311C598.092 278.163 598.674 278.008 599.057 277.699C599.44 277.375 599.631 276.948 599.631 276.417C599.631 275.902 599.455 275.497 599.101 275.202C598.762 274.893 598.254 274.687 597.577 274.584L595.941 274.318C594.748 274.112 593.857 273.744 593.268 273.214C592.693 272.669 592.406 271.88 592.406 270.849C592.406 269.759 592.752 268.92 593.445 268.33C594.137 267.726 595.175 267.424 596.56 267.424H597.4C598.563 267.424 599.499 267.697 600.206 268.242C600.913 268.787 601.34 269.524 601.487 270.452H599.499C599.41 270.069 599.189 269.767 598.836 269.546C598.482 269.31 598.004 269.192 597.4 269.192H596.56C595.809 269.192 595.256 269.332 594.903 269.612C594.564 269.892 594.395 270.312 594.395 270.871C594.395 271.372 594.542 271.741 594.837 271.976C595.131 272.212 595.595 272.381 596.229 272.484L597.864 272.75C599.175 272.956 600.125 273.339 600.714 273.899C601.318 274.458 601.62 275.268 601.62 276.329C601.62 277.449 601.259 278.332 600.537 278.981C599.83 279.614 598.755 279.931 597.311 279.931H596.383ZM611.002 270.253L610.737 265.613V263.624H612.88V265.613L612.637 270.253H611.002ZM606.517 270.253L606.251 265.613V263.624H608.395V265.613L608.152 270.253H606.517Z"></path>
</g>
<g filter="url(#filter3_ddddd_10768_4952)">
<rect fill="#131920" rx="9.16518" height="59.1129" width="547.714" y="292.355" x="127.908"></rect>
<rect stroke-width="2.51129" stroke="#71E8DF" rx="10.4208" height="61.6241" width="550.226" y="291.1" x="126.653"></rect>
<path fill="#E2E8F0" d="M158.394 330.087C157.422 330.087 156.582 329.903 155.875 329.535C155.168 329.166 154.616 328.636 154.218 327.944C153.835 327.237 153.644 326.404 153.644 325.447V322.221C153.644 321.249 153.835 320.416 154.218 319.724C154.616 319.032 155.168 318.501 155.875 318.133C156.582 317.765 157.422 317.581 158.394 317.581C159.366 317.581 160.206 317.765 160.913 318.133C161.62 318.501 162.165 319.032 162.548 319.724C162.946 320.416 163.145 321.241 163.145 322.199V325.447C163.145 326.404 162.946 327.237 162.548 327.944C162.165 328.636 161.62 329.166 160.913 329.535C160.206 329.903 159.366 330.087 158.394 330.087ZM158.394 328.319C159.263 328.319 159.941 328.076 160.427 327.59C160.913 327.104 161.156 326.39 161.156 325.447V322.221C161.156 321.278 160.913 320.564 160.427 320.078C159.941 319.591 159.263 319.348 158.394 319.348C157.54 319.348 156.862 319.591 156.361 320.078C155.875 320.564 155.632 321.278 155.632 322.221V325.447C155.632 326.39 155.875 327.104 156.361 327.59C156.862 328.076 157.54 328.319 158.394 328.319ZM171.179 330.131C169.78 330.131 168.66 329.719 167.82 328.894C166.981 328.054 166.561 326.92 166.561 325.491V317.758H168.55V325.491C168.55 326.404 168.785 327.119 169.257 327.634C169.728 328.135 170.369 328.386 171.179 328.386C172.004 328.386 172.652 328.135 173.123 327.634C173.61 327.119 173.853 326.404 173.853 325.491V317.758H175.841V325.491C175.841 326.92 175.414 328.054 174.56 328.894C173.705 329.719 172.578 330.131 171.179 330.131ZM185.334 329.91C184.288 329.91 183.47 329.63 182.881 329.071C182.307 328.511 182.019 327.723 182.019 326.706V319.569H178.595V317.758H182.019V314.333H184.008V317.758H188.869V319.569H184.008V326.706C184.008 327.634 184.45 328.098 185.334 328.098H188.648V329.91H185.334ZM192.219 333.887V317.758H194.208V320.078H194.605L194.208 320.542C194.208 319.614 194.51 318.884 195.114 318.354C195.732 317.809 196.542 317.537 197.544 317.537C198.767 317.537 199.739 317.942 200.461 318.752C201.197 319.547 201.565 320.645 201.565 322.044V325.601C201.565 326.53 201.396 327.332 201.057 328.01C200.733 328.688 200.269 329.21 199.665 329.579C199.076 329.947 198.369 330.131 197.544 330.131C196.557 330.131 195.754 329.859 195.136 329.314C194.517 328.769 194.208 328.039 194.208 327.126L194.605 327.59H194.163L194.208 330.352V333.887H192.219ZM196.881 328.408C197.721 328.408 198.376 328.157 198.848 327.656C199.334 327.156 199.577 326.434 199.577 325.491V322.177C199.577 321.234 199.334 320.512 198.848 320.011C198.376 319.51 197.721 319.26 196.881 319.26C196.071 319.26 195.423 319.518 194.937 320.033C194.451 320.549 194.208 321.263 194.208 322.177V325.491C194.208 326.404 194.451 327.119 194.937 327.634C195.423 328.15 196.071 328.408 196.881 328.408ZM209.6 330.131C208.2 330.131 207.081 329.719 206.241 328.894C205.401 328.054 204.982 326.92 204.982 325.491V317.758H206.97V325.491C206.97 326.404 207.206 327.119 207.677 327.634C208.149 328.135 208.789 328.386 209.6 328.386C210.425 328.386 211.073 328.135 211.544 327.634C212.03 327.119 212.273 326.404 212.273 325.491V317.758H214.262V325.491C214.262 326.92 213.835 328.054 212.98 328.894C212.126 329.719 210.999 330.131 209.6 330.131ZM223.754 329.91C222.709 329.91 221.891 329.63 221.302 329.071C220.727 328.511 220.44 327.723 220.44 326.706V319.569H217.015V317.758H220.44V314.333H222.429V317.758H227.29V319.569H222.429V326.706C222.429 327.634 222.871 328.098 223.754 328.098H227.069V329.91H223.754Z"></path>
<path fill="#187367" d="M358.554 320.851V319.083H368.055V320.851H358.554ZM358.554 326.154V324.386H368.055V326.154H358.554Z"></path>
<path fill="#71E8DF" d="M390.354 320.409L390.089 315.769V313.78H392.233V315.769L391.99 320.409H390.354ZM385.869 320.409L385.604 315.769V313.78H387.747V315.769L387.504 320.409H385.869ZM403.086 330.131C402.527 330.131 402.085 329.969 401.761 329.645C401.422 329.321 401.253 328.886 401.253 328.341C401.253 327.767 401.422 327.31 401.761 326.971C402.085 326.633 402.527 326.463 403.086 326.463C403.646 326.463 404.096 326.633 404.434 326.971C404.758 327.31 404.92 327.767 404.92 328.341C404.92 328.886 404.758 329.321 404.434 329.645C404.096 329.969 403.646 330.131 403.086 330.131ZM412.764 330.131C412.205 330.131 411.755 329.969 411.417 329.645C411.093 329.321 410.93 328.886 410.93 328.341C410.93 327.767 411.093 327.31 411.417 326.971C411.755 326.633 412.205 326.463 412.764 326.463C413.324 326.463 413.766 326.633 414.09 326.971C414.429 327.31 414.598 327.767 414.598 328.341C414.598 328.886 414.429 329.321 414.09 329.645C413.766 329.969 413.324 330.131 412.764 330.131ZM422.367 332.341L430.211 311.571H432.31L424.467 332.341H422.367ZM437.075 333.887V332.076H440.941C441.56 332.076 442.009 331.936 442.289 331.656C442.584 331.376 442.731 330.941 442.731 330.352V328.805L442.775 326.596H442.378L442.753 326.264C442.753 327.148 442.459 327.848 441.869 328.363C441.28 328.879 440.492 329.137 439.505 329.137C438.253 329.137 437.266 328.732 436.544 327.922C435.822 327.097 435.462 325.992 435.462 324.607V322.044C435.462 320.659 435.822 319.562 436.544 318.752C437.266 317.942 438.253 317.537 439.505 317.537C440.492 317.537 441.28 317.794 441.869 318.31C442.459 318.825 442.753 319.525 442.753 320.409L442.378 320.078H442.753V317.758H444.72V330.352C444.72 331.442 444.381 332.304 443.703 332.937C443.04 333.571 442.112 333.887 440.919 333.887H437.075ZM440.102 327.413C440.927 327.413 441.575 327.156 442.046 326.64C442.517 326.124 442.753 325.41 442.753 324.497V322.177C442.753 321.263 442.517 320.549 442.046 320.033C441.575 319.518 440.927 319.26 440.102 319.26C439.262 319.26 438.607 319.51 438.135 320.011C437.678 320.512 437.45 321.234 437.45 322.177V324.497C437.45 325.439 437.678 326.161 438.135 326.662C438.607 327.163 439.262 327.413 440.102 327.413ZM452.953 330.131C451.995 330.131 451.156 329.94 450.434 329.557C449.727 329.174 449.174 328.636 448.777 327.944C448.394 327.237 448.202 326.419 448.202 325.491V322.177C448.202 321.234 448.394 320.416 448.777 319.724C449.174 319.032 449.727 318.494 450.434 318.111C451.156 317.728 451.995 317.537 452.953 317.537C453.91 317.537 454.742 317.728 455.45 318.111C456.171 318.494 456.724 319.032 457.107 319.724C457.504 320.416 457.703 321.234 457.703 322.177V324.32H450.147V325.491C450.147 326.448 450.39 327.185 450.876 327.701C451.362 328.201 452.054 328.452 452.953 328.452C453.719 328.452 454.337 328.319 454.809 328.054C455.28 327.774 455.567 327.362 455.67 326.817H457.659C457.527 327.833 457.026 328.643 456.157 329.247C455.302 329.837 454.234 330.131 452.953 330.131ZM455.759 322.994V322.177C455.759 321.219 455.516 320.483 455.03 319.967C454.558 319.452 453.866 319.194 452.953 319.194C452.054 319.194 451.362 319.452 450.876 319.967C450.39 320.483 450.147 321.219 450.147 322.177V322.817H455.914L455.759 322.994ZM461.164 329.91V317.758H463.152V320.078H463.572L463.152 320.542C463.152 319.584 463.44 318.848 464.014 318.332C464.589 317.802 465.384 317.537 466.4 317.537C467.623 317.537 468.595 317.912 469.317 318.663C470.039 319.415 470.4 320.438 470.4 321.735V329.91H468.411V321.956C468.411 321.087 468.175 320.424 467.704 319.967C467.247 319.496 466.621 319.26 465.826 319.26C465.001 319.26 464.346 319.51 463.859 320.011C463.388 320.512 463.152 321.234 463.152 322.177V329.91H461.164ZM478.567 330.131C477.609 330.131 476.769 329.94 476.048 329.557C475.341 329.174 474.788 328.636 474.39 327.944C474.007 327.237 473.816 326.419 473.816 325.491V322.177C473.816 321.234 474.007 320.416 474.39 319.724C474.788 319.032 475.341 318.494 476.048 318.111C476.769 317.728 477.609 317.537 478.567 317.537C479.524 317.537 480.356 317.728 481.063 318.111C481.785 318.494 482.338 319.032 482.721 319.724C483.118 320.416 483.317 321.234 483.317 322.177V324.32H475.76V325.491C475.76 326.448 476.003 327.185 476.49 327.701C476.976 328.201 477.668 328.452 478.567 328.452C479.333 328.452 479.951 328.319 480.423 328.054C480.894 327.774 481.181 327.362 481.284 326.817H483.273C483.14 327.833 482.64 328.643 481.77 329.247C480.916 329.837 479.848 330.131 478.567 330.131ZM481.373 322.994V322.177C481.373 321.219 481.13 320.483 480.644 319.967C480.172 319.452 479.48 319.194 478.567 319.194C477.668 319.194 476.976 319.452 476.49 319.967C476.003 320.483 475.76 321.219 475.76 322.177V322.817H481.527L481.373 322.994ZM487.197 329.91V317.758H489.142V320.078H489.606L488.965 321.514C488.965 320.203 489.245 319.216 489.805 318.553C490.379 317.875 491.226 317.537 492.346 317.537C493.627 317.537 494.644 317.942 495.395 318.752C496.161 319.547 496.544 320.63 496.544 322V322.729H494.555V322.177C494.555 321.219 494.32 320.49 493.848 319.989C493.391 319.474 492.736 319.216 491.882 319.216C491.042 319.216 490.379 319.474 489.893 319.989C489.422 320.505 489.186 321.234 489.186 322.177V329.91H487.197ZM503.12 330.131C501.838 330.131 500.829 329.807 500.093 329.159C499.356 328.496 498.988 327.605 498.988 326.485C498.988 325.351 499.356 324.46 500.093 323.812C500.829 323.164 501.823 322.84 503.076 322.84H506.832V321.624C506.832 320.873 506.603 320.299 506.147 319.901C505.705 319.488 505.072 319.282 504.247 319.282C503.525 319.282 502.921 319.437 502.435 319.746C501.949 320.041 501.669 320.446 501.595 320.961H499.607C499.739 319.916 500.233 319.083 501.087 318.465C501.941 317.846 503.009 317.537 504.291 317.537C505.69 317.537 506.795 317.897 507.605 318.619C508.415 319.341 508.82 320.321 508.82 321.558V329.91H506.876V327.59H506.545L506.876 327.259C506.876 328.142 506.53 328.842 505.838 329.358C505.16 329.873 504.254 330.131 503.12 330.131ZM503.606 328.562C504.549 328.562 505.322 328.327 505.926 327.855C506.53 327.384 506.832 326.78 506.832 326.043V324.32H503.12C502.457 324.32 501.934 324.504 501.551 324.872C501.168 325.241 500.976 325.741 500.976 326.375C500.976 327.052 501.205 327.59 501.661 327.988C502.133 328.371 502.781 328.562 503.606 328.562ZM518.313 329.91C517.267 329.91 516.45 329.63 515.86 329.071C515.286 328.511 514.999 327.723 514.999 326.706V319.569H511.574V317.758H514.999V314.333H516.987V317.758H521.848V319.569H516.987V326.706C516.987 327.634 517.429 328.098 518.313 328.098H521.627V329.91H518.313ZM529.794 330.131C528.837 330.131 527.997 329.94 527.275 329.557C526.568 329.174 526.016 328.636 525.618 327.944C525.235 327.237 525.044 326.419 525.044 325.491V322.177C525.044 321.234 525.235 320.416 525.618 319.724C526.016 319.032 526.568 318.494 527.275 318.111C527.997 317.728 528.837 317.537 529.794 317.537C530.752 317.537 531.584 317.728 532.291 318.111C533.013 318.494 533.565 319.032 533.948 319.724C534.346 320.416 534.545 321.234 534.545 322.177V324.32H526.988V325.491C526.988 326.448 527.231 327.185 527.717 327.701C528.203 328.201 528.896 328.452 529.794 328.452C530.56 328.452 531.179 328.319 531.65 328.054C532.122 327.774 532.409 327.362 532.512 326.817H534.5C534.368 327.833 533.867 328.643 532.998 329.247C532.144 329.837 531.076 330.131 529.794 330.131ZM532.6 322.994V322.177C532.6 321.219 532.357 320.483 531.871 319.967C531.4 319.452 530.707 319.194 529.794 319.194C528.896 319.194 528.203 319.452 527.717 319.967C527.231 320.483 526.988 321.219 526.988 322.177V322.817H532.755L532.6 322.994ZM541.894 330.131C540.686 330.131 539.706 329.726 538.955 328.916C538.219 328.106 537.85 327.008 537.85 325.624V322.066C537.85 320.667 538.219 319.562 538.955 318.752C539.692 317.942 540.671 317.537 541.894 317.537C542.896 317.537 543.698 317.809 544.302 318.354C544.906 318.899 545.208 319.628 545.208 320.542L544.811 320.078H545.252L545.208 317.316V313.78H547.197V329.91H545.208V327.59H544.811L545.208 327.126C545.208 328.054 544.906 328.791 544.302 329.336C543.698 329.866 542.896 330.131 541.894 330.131ZM542.557 328.408C543.382 328.408 544.03 328.15 544.501 327.634C544.973 327.119 545.208 326.404 545.208 325.491V322.177C545.208 321.263 544.973 320.549 544.501 320.033C544.03 319.518 543.382 319.26 542.557 319.26C541.717 319.26 541.054 319.51 540.568 320.011C540.082 320.512 539.839 321.234 539.839 322.177V325.491C539.839 326.434 540.082 327.156 540.568 327.656C541.054 328.157 541.717 328.408 542.557 328.408ZM550.436 332.341L558.28 311.571H560.379L552.535 332.341H550.436ZM563.619 333.887V317.758H565.607V320.078H566.005L565.607 320.542C565.607 319.614 565.909 318.884 566.513 318.354C567.132 317.809 567.942 317.537 568.944 317.537C570.167 317.537 571.139 317.942 571.861 318.752C572.597 319.547 572.965 320.645 572.965 322.044V325.601C572.965 326.53 572.796 327.332 572.457 328.01C572.133 328.688 571.669 329.21 571.065 329.579C570.476 329.947 569.769 330.131 568.944 330.131C567.957 330.131 567.154 329.859 566.536 329.314C565.917 328.769 565.607 328.039 565.607 327.126L566.005 327.59H565.563L565.607 330.352V333.887H563.619ZM568.281 328.408C569.121 328.408 569.776 328.157 570.248 327.656C570.734 327.156 570.977 326.434 570.977 325.491V322.177C570.977 321.234 570.734 320.512 570.248 320.011C569.776 319.51 569.121 319.26 568.281 319.26C567.471 319.26 566.823 319.518 566.337 320.033C565.851 320.549 565.607 321.263 565.607 322.177V325.491C565.607 326.404 565.851 327.119 566.337 327.634C566.823 328.15 567.471 328.408 568.281 328.408ZM576.846 329.91V317.758H578.79V320.078H579.254L578.613 321.514C578.613 320.203 578.893 319.216 579.453 318.553C580.027 317.875 580.874 317.537 581.994 317.537C583.275 317.537 584.292 317.942 585.043 318.752C585.809 319.547 586.192 320.63 586.192 322V322.729H584.203V322.177C584.203 321.219 583.968 320.49 583.496 319.989C583.04 319.474 582.384 319.216 581.53 319.216C580.69 319.216 580.027 319.474 579.541 319.989C579.07 320.505 578.834 321.234 578.834 322.177V329.91H576.846ZM589.078 329.91V328.098H593.387V319.569H589.63V317.758H595.375V328.098H599.463V329.91H589.078ZM594.16 315.57C593.674 315.57 593.291 315.445 593.011 315.194C592.731 314.944 592.591 314.605 592.591 314.178C592.591 313.736 592.731 313.39 593.011 313.139C593.291 312.874 593.674 312.742 594.16 312.742C594.646 312.742 595.029 312.874 595.309 313.139C595.589 313.39 595.729 313.736 595.729 314.178C595.729 314.605 595.589 314.944 595.309 315.194C595.029 315.445 594.646 315.57 594.16 315.57ZM606.26 330.087C605.435 330.087 604.713 329.962 604.094 329.711C603.491 329.446 603.004 329.078 602.636 328.607C602.283 328.135 602.069 327.575 601.995 326.927H603.984C604.072 327.354 604.308 327.693 604.691 327.944C605.089 328.194 605.612 328.319 606.26 328.319H607.188C607.969 328.319 608.55 328.165 608.933 327.855C609.316 327.531 609.508 327.104 609.508 326.574C609.508 326.058 609.331 325.653 608.978 325.358C608.639 325.049 608.131 324.843 607.453 324.74L605.818 324.475C604.625 324.268 603.734 323.9 603.144 323.37C602.57 322.825 602.283 322.037 602.283 321.006C602.283 319.916 602.629 319.076 603.321 318.487C604.013 317.883 605.052 317.581 606.437 317.581H607.276C608.44 317.581 609.375 317.853 610.082 318.398C610.789 318.943 611.217 319.68 611.364 320.608H609.375C609.287 320.225 609.066 319.923 608.712 319.702C608.359 319.466 607.88 319.348 607.276 319.348H606.437C605.685 319.348 605.133 319.488 604.779 319.768C604.441 320.048 604.271 320.468 604.271 321.028C604.271 321.529 604.419 321.897 604.713 322.132C605.008 322.368 605.472 322.538 606.105 322.641L607.74 322.906C609.051 323.112 610.001 323.495 610.591 324.055C611.195 324.615 611.497 325.425 611.497 326.485C611.497 327.605 611.136 328.489 610.414 329.137C609.707 329.77 608.631 330.087 607.188 330.087H606.26ZM614.272 329.91V317.758H616.018V319.216H616.415L616.106 319.746C616.106 319.069 616.283 318.531 616.636 318.133C617.004 317.735 617.498 317.537 618.117 317.537C618.794 317.537 619.317 317.787 619.685 318.288C620.054 318.789 620.238 319.496 620.238 320.409L619.641 319.216H620.569L620.149 319.746C620.149 319.069 620.334 318.531 620.702 318.133C621.085 317.735 621.586 317.537 622.204 317.537C622.97 317.537 623.56 317.824 623.972 318.398C624.399 318.973 624.613 319.731 624.613 320.674V329.91H622.779V320.652C622.779 320.151 622.668 319.761 622.447 319.481C622.241 319.201 621.932 319.061 621.519 319.061C621.122 319.061 620.805 319.201 620.569 319.481C620.348 319.746 620.238 320.129 620.238 320.63V329.91H618.647V320.652C618.647 320.136 618.529 319.746 618.293 319.481C618.072 319.201 617.756 319.061 617.343 319.061C616.931 319.061 616.621 319.201 616.415 319.481C616.209 319.746 616.106 320.129 616.106 320.63V329.91H614.272ZM631.189 330.131C629.907 330.131 628.898 329.807 628.162 329.159C627.425 328.496 627.057 327.605 627.057 326.485C627.057 325.351 627.425 324.46 628.162 323.812C628.898 323.164 629.892 322.84 631.144 322.84H634.901V321.624C634.901 320.873 634.672 320.299 634.216 319.901C633.774 319.488 633.14 319.282 632.316 319.282C631.594 319.282 630.99 319.437 630.504 319.746C630.018 320.041 629.738 320.446 629.664 320.961H627.675C627.808 319.916 628.301 319.083 629.156 318.465C630.01 317.846 631.078 317.537 632.36 317.537C633.759 317.537 634.864 317.897 635.674 318.619C636.484 319.341 636.889 320.321 636.889 321.558V329.91H634.945V327.59H634.613L634.945 327.259C634.945 328.142 634.599 328.842 633.906 329.358C633.229 329.873 632.323 330.131 631.189 330.131ZM631.675 328.562C632.617 328.562 633.391 328.327 633.995 327.855C634.599 327.384 634.901 326.78 634.901 326.043V324.32H631.189C630.526 324.32 630.003 324.504 629.62 324.872C629.237 325.241 629.045 325.741 629.045 326.375C629.045 327.052 629.274 327.59 629.73 327.988C630.202 328.371 630.85 328.562 631.675 328.562ZM646.492 320.409L646.227 315.769V313.78H648.371V315.769L648.127 320.409H646.492ZM642.007 320.409L641.742 315.769V313.78H643.885V315.769L643.642 320.409H642.007Z"></path>
</g>
<defs>
<filter color-interpolation-filters="sRGB" filterUnits="userSpaceOnUse" height="116.234" width="397.186" y="79.5008" x="306.516" id="filter0_d_10768_4952">
<feFlood result="BackgroundImageFix" flood-opacity="0"></feFlood>
<feColorMatrix result="hardAlpha" values="0 0 0 0 0 0 0 0 0 0 0 0 0 0 0 0 0 0 127 0" type="matrix" in="SourceAlpha"></feColorMatrix>
<feOffset dy="1.1061"></feOffset>
<feGaussianBlur stdDeviation="11.8905"></feGaussianBlur>
<feComposite operator="out" in2="hardAlpha"></feComposite>
<feColorMatrix values="0 0 0 0 0 0 0 0 0 0 0 0 0 0 0 0 0 0 0.25 0" type="matrix"></feColorMatrix>
<feBlend result="effect1_dropShadow_10768_4952" in2="BackgroundImageFix" mode="normal"></feBlend>
<feBlend result="shape" in2="effect1_dropShadow_10768_4952" in="SourceGraphic" mode="normal"></feBlend>
</filter>
<filter color-interpolation-filters="sRGB" filterUnits="userSpaceOnUse" height="146.898" width="553.653" y="57.4297" x="145.52" id="filter1_ddddd_10768_4952">
<feFlood result="BackgroundImageFix" flood-opacity="0"></feFlood>
<feColorMatrix result="hardAlpha" values="0 0 0 0 0 0 0 0 0 0 0 0 0 0 0 0 0 0 127 0" type="matrix" in="SourceAlpha"></feColorMatrix>
<feOffset dy="1.57932"></feOffset>
<feGaussianBlur stdDeviation="0.631726"></feGaussianBlur>
<feColorMatrix values="0 0 0 0 0 0 0 0 0 0 0 0 0 0 0 0 0 0 0.129327 0" type="matrix"></feColorMatrix>
<feBlend result="effect1_dropShadow_10768_4952" in2="BackgroundImageFix" mode="normal"></feBlend>
<feColorMatrix result="hardAlpha" values="0 0 0 0 0 0 0 0 0 0 0 0 0 0 0 0 0 0 127 0" type="matrix" in="SourceAlpha"></feColorMatrix>
<feOffset dy="3.79531"></feOffset>
<feGaussianBlur stdDeviation="1.51813"></feGaussianBlur>
<feColorMatrix values="0 0 0 0 0 0 0 0 0 0 0 0 0 0 0 0 0 0 0.185791 0" type="matrix"></feColorMatrix>
<feBlend result="effect2_dropShadow_10768_4952" in2="effect1_dropShadow_10768_4952" mode="normal"></feBlend>
<feColorMatrix result="hardAlpha" values="0 0 0 0 0 0 0 0 0 0 0 0 0 0 0 0 0 0 127 0" type="matrix" in="SourceAlpha"></feColorMatrix>
<feOffset dy="7.14624"></feOffset>
<feGaussianBlur stdDeviation="2.8585"></feGaussianBlur>
<feColorMatrix values="0 0 0 0 0 0 0 0 0 0 0 0 0 0 0 0 0 0 0.23 0" type="matrix"></feColorMatrix>
<feBlend result="effect3_dropShadow_10768_4952" in2="effect2_dropShadow_10768_4952" mode="normal"></feBlend>
<feColorMatrix result="hardAlpha" values="0 0 0 0 0 0 0 0 0 0 0 0 0 0 0 0 0 0 127 0" type="matrix" in="SourceAlpha"></feColorMatrix>
<feOffset dy="12.7477"></feOffset>
<feGaussianBlur stdDeviation="5.09907"></feGaussianBlur>
<feColorMatrix values="0 0 0 0 0 0 0 0 0 0 0 0 0 0 0 0 0 0 0.274209 0" type="matrix"></feColorMatrix>
<feBlend result="effect4_dropShadow_10768_4952" in2="effect3_dropShadow_10768_4952" mode="normal"></feBlend>
<feColorMatrix result="hardAlpha" values="0 0 0 0 0 0 0 0 0 0 0 0 0 0 0 0 0 0 127 0" type="matrix" in="SourceAlpha"></feColorMatrix>
<feOffset dy="23.8431"></feOffset>
<feGaussianBlur stdDeviation="9.53724"></feGaussianBlur>
<feColorMatrix values="0 0 0 0 0 0 0 0 0 0 0 0 0 0 0 0 0 0 0.330673 0" type="matrix"></feColorMatrix>
<feBlend result="effect5_dropShadow_10768_4952" in2="effect4_dropShadow_10768_4952" mode="normal"></feBlend>
<feBlend result="shape" in2="effect5_dropShadow_10768_4952" in="SourceGraphic" mode="normal"></feBlend>
</filter>
<filter color-interpolation-filters="sRGB" filterUnits="userSpaceOnUse" height="237.259" width="638.918" y="187.122" x="83.7138" id="filter2_d_10768_4952">
<feFlood result="BackgroundImageFix" flood-opacity="0"></feFlood>
<feColorMatrix result="hardAlpha" values="0 0 0 0 0 0 0 0 0 0 0 0 0 0 0 0 0 0 127 0" type="matrix" in="SourceAlpha"></feColorMatrix>
<feOffset></feOffset>
<feGaussianBlur stdDeviation="2.14201"></feGaussianBlur>
<feComposite operator="out" in2="hardAlpha"></feComposite>
<feColorMatrix values="0 0 0 0 0.745833 0 0 0 0 0.745833 0 0 0 0 0.745833 0 0 0 0.2 0" type="matrix"></feColorMatrix>
<feBlend result="effect1_dropShadow_10768_4952" in2="BackgroundImageFix" mode="normal"></feBlend>
<feBlend result="shape" in2="effect1_dropShadow_10768_4952" in="SourceGraphic" mode="normal"></feBlend>
</filter>
<filter color-interpolation-filters="sRGB" filterUnits="userSpaceOnUse" height="251.95" width="740.551" y="206.501" x="31.4901" id="filter3_ddddd_10768_4952">
<feFlood result="BackgroundImageFix" flood-opacity="0"></feFlood>
<feColorMatrix result="hardAlpha" values="0 0 0 0 0 0 0 0 0 0 0 0 0 0 0 0 0 0 127 0" type="matrix" in="SourceAlpha"></feColorMatrix>
<feOffset dy="0.36288"></feOffset>
<feGaussianBlur stdDeviation="1.6128"></feGaussianBlur>
<feColorMatrix values="0 0 0 0 0.141176 0 0 0 0 0.631373 0 0 0 0 0.54902 0 0 0 0.0465028 0" type="matrix"></feColorMatrix>
<feBlend result="effect1_dropShadow_10768_4952" in2="BackgroundImageFix" mode="normal"></feBlend>
<feColorMatrix result="hardAlpha" values="0 0 0 0 0 0 0 0 0 0 0 0 0 0 0 0 0 0 127 0" type="matrix" in="SourceAlpha"></feColorMatrix>
<feOffset dy="0.917751"></feOffset>
<feGaussianBlur stdDeviation="4.07889"></feGaussianBlur>
<feColorMatrix values="0 0 0 0 0.141176 0 0 0 0 0.631373 0 0 0 0 0.54902 0 0 0 0.0665564 0" type="matrix"></feColorMatrix>
<feBlend result="effect2_dropShadow_10768_4952" in2="effect1_dropShadow_10768_4952" mode="normal"></feBlend>
<feColorMatrix result="hardAlpha" values="0 0 0 0 0 0 0 0 0 0 0 0 0 0 0 0 0 0 127 0" type="matrix" in="SourceAlpha"></feColorMatrix>
<feOffset dy="1.87213"></feOffset>
<feGaussianBlur stdDeviation="8.32056"></feGaussianBlur>
<feColorMatrix values="0 0 0 0 0.141176 0 0 0 0 0.631373 0 0 0 0 0.54902 0 0 0 0.0834436 0" type="matrix"></feColorMatrix>
<feBlend result="effect3_dropShadow_10768_4952" in2="effect2_dropShadow_10768_4952" mode="normal"></feBlend>
<feColorMatrix result="hardAlpha" values="0 0 0 0 0 0 0 0 0 0 0 0 0 0 0 0 0 0 127 0" type="matrix" in="SourceAlpha"></feColorMatrix>
<feOffset dy="3.85622"></feOffset>
<feGaussianBlur stdDeviation="17.1388"></feGaussianBlur>
<feColorMatrix values="0 0 0 0 0.141176 0 0 0 0 0.631373 0 0 0 0 0.54902 0 0 0 0.103497 0" type="matrix"></feColorMatrix>
<feBlend result="effect4_dropShadow_10768_4952" in2="effect3_dropShadow_10768_4952" mode="normal"></feBlend>
<feColorMatrix result="hardAlpha" values="0 0 0 0 0 0 0 0 0 0 0 0 0 0 0 0 0 0 127 0" type="matrix" in="SourceAlpha"></feColorMatrix>
<feOffset dy="10.5645"></feOffset>
<feGaussianBlur stdDeviation="46.9534"></feGaussianBlur>
<feColorMatrix values="0 0 0 0 0.141176 0 0 0 0 0.631373 0 0 0 0 0.54902 0 0 0 0.15 0" type="matrix"></feColorMatrix>
<feBlend result="effect5_dropShadow_10768_4952" in2="effect4_dropShadow_10768_4952" mode="normal"></feBlend>
<feBlend result="shape" in2="effect5_dropShadow_10768_4952" in="SourceGraphic" mode="normal"></feBlend>
</filter>
<linearGradient gradientUnits="userSpaceOnUse" y2="474" x2="422" y1="0" x1="422" id="paint0_linear_10768_4952">
<stop stop-color="#090A15"></stop>
<stop stop-color="#0D3A38" offset="0.955752"></stop>
</linearGradient>
<radialGradient gradientTransform="translate(422 355.876) rotate(90) scale(529.676 495.147)" gradientUnits="userSpaceOnUse" r="1" cy="0" cx="0" id="paint1_radial_10768_4952">
<stop stop-opacity="0.11" stop-color="#71E8DF"></stop>
<stop stop-opacity="0" stop-color="#71E8DF" offset="1"></stop>
</radialGradient>
<radialGradient gradientTransform="translate(422 458.5) rotate(90) scale(300 534.177)" gradientUnits="userSpaceOnUse" r="1" cy="0" cx="0" id="paint2_radial_10768_4952">
<stop stop-color="#71E8DF"></stop>
<stop stop-opacity="0" stop-color="#71E8DF" offset="1"></stop>
</radialGradient>
<linearGradient gradientUnits="userSpaceOnUse" y2="106.607" x2="516.484" y1="207.533" x1="511.355" id="paint3_linear_10768_4952">
<stop stop-color="#16A394"></stop>
<stop stop-color="#073530" offset="1"></stop>
</linearGradient>
</defs>
</svg>
