<svg xmlns="http://www.w3.org/2000/svg" fill="none" viewBox="0 0 844 474" height="474" width="844">
<g clip-path="url(#clip0_2211_449)">
<rect fill="url(#paint0_linear_2211_449)" height="474" width="844"></rect>
<rect fill="url(#paint1_radial_2211_449)" height="474" width="844"></rect>
<rect fill-opacity="0.2" fill="url(#paint2_radial_2211_449)" height="474" width="844"></rect>
<path fill="url(#paint3_linear_2211_449)" d="M620.873 205.623C621.534 205.73 622.158 205.282 622.265 204.62L624.019 193.846C624.127 193.185 623.678 192.562 623.017 192.454C622.356 192.347 621.732 192.795 621.625 193.457L620.066 203.034L610.489 201.475C609.828 201.367 609.204 201.816 609.097 202.477C608.989 203.138 609.438 203.761 610.099 203.869L620.873 205.623ZM569.016 134.209L620.084 205.134L622.052 203.717L570.984 132.791L569.016 134.209Z"></path>
<path fill="url(#paint4_linear_2211_449)" d="M643.926 205.623C643.265 205.73 642.641 205.282 642.534 204.62L640.78 193.846C640.672 193.185 641.121 192.562 641.782 192.454C642.443 192.347 643.067 192.795 643.174 193.457L644.733 203.034L654.31 201.475C654.971 201.367 655.595 201.816 655.702 202.477C655.81 203.138 655.361 203.761 654.7 203.869L643.926 205.623ZM695.783 134.209L644.715 205.134L642.747 203.717L693.815 132.791L695.783 134.209Z"></path>
<g filter="url(#filter0_ddddd_2211_449)">
<path fill="white" d="M70.5513 188C69.9894 188 69.6318 187.745 69.4785 187.234L55.9157 135.358L55.839 135.051C55.839 134.591 56.12 134.362 56.6819 134.362H66.1836C66.6944 134.362 67.0265 134.617 67.1797 135.128L74.4592 166.315C74.5103 166.519 74.5869 166.621 74.6891 166.621C74.7913 166.621 74.8679 166.519 74.919 166.315L81.9686 135.204C82.1219 134.643 82.4539 134.362 82.9648 134.362H92.2365C92.7985 134.362 93.1561 134.617 93.3093 135.128L100.972 166.315C101.023 166.468 101.1 166.57 101.202 166.621C101.304 166.621 101.381 166.519 101.432 166.315L108.481 135.204C108.635 134.643 108.967 134.362 109.477 134.362H118.519C119.235 134.362 119.516 134.694 119.362 135.358L106.796 187.234C106.642 187.745 106.285 188 105.723 188H96.6042C96.0934 188 95.7613 187.745 95.6081 187.234L87.7922 154.055C87.7411 153.85 87.6645 153.748 87.5623 153.748C87.4602 153.748 87.3835 153.85 87.3325 154.055L80.053 187.157C79.9508 187.719 79.6187 188 79.0568 188H70.5513ZM136.33 188.613C132.039 188.613 128.36 187.489 125.295 185.241C122.23 182.994 120.136 179.929 119.012 176.046C118.297 173.645 117.939 171.04 117.939 168.23C117.939 165.216 118.297 162.509 119.012 160.108C120.187 156.328 122.307 153.365 125.372 151.219C128.437 149.074 132.115 148.001 136.406 148.001C140.595 148.001 144.171 149.074 147.134 151.219C150.097 153.314 152.191 156.251 153.417 160.031C154.235 162.586 154.643 165.268 154.643 168.077C154.643 170.836 154.286 173.415 153.571 175.816C152.447 179.801 150.352 182.943 147.287 185.241C144.273 187.489 140.621 188.613 136.33 188.613ZM136.33 179.341C138.015 179.341 139.446 178.83 140.621 177.809C141.796 176.787 142.639 175.382 143.149 173.594C143.558 171.96 143.762 170.172 143.762 168.23C143.762 166.085 143.558 164.271 143.149 162.79C142.587 161.053 141.719 159.699 140.544 158.729C139.369 157.758 137.939 157.273 136.253 157.273C134.516 157.273 133.06 157.758 131.885 158.729C130.761 159.699 129.944 161.053 129.433 162.79C129.025 164.016 128.82 165.829 128.82 168.23C128.82 170.529 128.999 172.317 129.357 173.594C129.867 175.382 130.71 176.787 131.885 177.809C133.111 178.83 134.593 179.341 136.33 179.341ZM179.673 148.078C181.512 148.078 182.967 148.435 184.04 149.15C184.449 149.355 184.602 149.738 184.5 150.3L182.891 159.035C182.84 159.648 182.482 159.827 181.818 159.572C181.052 159.316 180.158 159.188 179.136 159.188C178.728 159.188 178.166 159.24 177.45 159.342C175.611 159.495 174.053 160.185 172.776 161.411C171.499 162.586 170.861 164.169 170.861 166.161V187.08C170.861 187.336 170.758 187.566 170.554 187.77C170.401 187.923 170.196 188 169.941 188H160.976C160.72 188 160.49 187.923 160.286 187.77C160.133 187.566 160.056 187.336 160.056 187.08V149.534C160.056 149.278 160.133 149.074 160.286 148.921C160.49 148.716 160.72 148.614 160.976 148.614H169.941C170.196 148.614 170.401 148.716 170.554 148.921C170.758 149.074 170.861 149.278 170.861 149.534V152.445C170.861 152.599 170.912 152.701 171.014 152.752C171.116 152.803 171.193 152.777 171.244 152.675C173.338 149.61 176.148 148.078 179.673 148.078ZM188.777 188C188.521 188 188.291 187.923 188.087 187.77C187.934 187.566 187.857 187.336 187.857 187.08V135.281C187.857 135.026 187.934 134.821 188.087 134.668C188.291 134.464 188.521 134.362 188.777 134.362H197.742C197.997 134.362 198.202 134.464 198.355 134.668C198.559 134.821 198.662 135.026 198.662 135.281V161.104C198.662 161.257 198.713 161.36 198.815 161.411C198.917 161.411 199.019 161.36 199.121 161.257L209.542 149.15C209.9 148.793 210.283 148.614 210.692 148.614H220.883C221.394 148.614 221.649 148.793 221.649 149.15C221.649 149.304 221.573 149.508 221.42 149.763L211.688 162.1C211.586 162.305 211.56 162.483 211.611 162.637L223.029 186.927C223.131 187.132 223.182 187.285 223.182 187.387C223.182 187.796 222.901 188 222.339 188H212.914C212.403 188 212.046 187.77 211.841 187.31L204.255 169.38C204.204 169.278 204.102 169.227 203.949 169.227C203.847 169.175 203.77 169.201 203.719 169.303L198.815 175.433C198.713 175.638 198.662 175.791 198.662 175.893V187.08C198.662 187.336 198.559 187.566 198.355 187.77C198.202 187.923 197.997 188 197.742 188H188.777ZM233.006 144.17C231.269 144.17 229.813 143.608 228.638 142.484C227.514 141.309 226.952 139.853 226.952 138.116C226.952 136.328 227.514 134.872 228.638 133.749C229.762 132.625 231.218 132.063 233.006 132.063C234.794 132.063 236.25 132.625 237.373 133.749C238.497 134.872 239.059 136.328 239.059 138.116C239.059 139.853 238.472 141.309 237.297 142.484C236.173 143.608 234.743 144.17 233.006 144.17ZM228.408 188C228.153 188 227.923 187.923 227.718 187.77C227.565 187.566 227.489 187.336 227.489 187.08V149.457C227.489 149.202 227.565 148.997 227.718 148.844C227.923 148.64 228.153 148.537 228.408 148.537H237.373C237.629 148.537 237.833 148.64 237.986 148.844C238.191 148.997 238.293 149.202 238.293 149.457V187.08C238.293 187.336 238.191 187.566 237.986 187.77C237.833 187.923 237.629 188 237.373 188H228.408ZM265.716 148.001C269.803 148.001 273.098 149.253 275.601 151.756C278.104 154.259 279.356 157.656 279.356 161.947V187.08C279.356 187.336 279.253 187.566 279.049 187.77C278.896 187.923 278.692 188 278.436 188H269.471C269.215 188 268.986 187.923 268.781 187.77C268.628 187.566 268.551 187.336 268.551 187.08V164.169C268.551 162.126 267.964 160.466 266.789 159.188C265.665 157.911 264.158 157.273 262.268 157.273C260.378 157.273 258.845 157.911 257.67 159.188C256.547 160.466 255.985 162.126 255.985 164.169V187.08C255.985 187.336 255.882 187.566 255.678 187.77C255.525 187.923 255.321 188 255.065 188H246.1C245.844 188 245.615 187.923 245.41 187.77C245.257 187.566 245.18 187.336 245.18 187.08V149.534C245.18 149.278 245.257 149.074 245.41 148.921C245.615 148.716 245.844 148.614 246.1 148.614H255.065C255.321 148.614 255.525 148.716 255.678 148.921C255.882 149.074 255.985 149.278 255.985 149.534V152.216C255.985 152.369 256.036 152.471 256.138 152.522C256.24 152.573 256.317 152.548 256.368 152.445C258.462 149.482 261.578 148.001 265.716 148.001ZM309.613 149.534C309.613 149.278 309.69 149.074 309.843 148.921C310.048 148.716 310.278 148.614 310.533 148.614H319.498C319.754 148.614 319.958 148.716 320.111 148.921C320.316 149.074 320.418 149.278 320.418 149.534V184.475C320.418 191.167 318.477 195.944 314.594 198.804C310.763 201.665 305.808 203.095 299.729 203.095C297.941 203.095 295.948 202.968 293.752 202.712C293.241 202.661 292.986 202.329 292.986 201.716L293.292 193.824C293.292 193.16 293.65 192.879 294.365 192.981C296.204 193.287 297.89 193.44 299.422 193.44C302.692 193.44 305.195 192.725 306.932 191.295C308.719 189.865 309.613 187.566 309.613 184.399C309.613 184.245 309.562 184.169 309.46 184.169C309.358 184.118 309.256 184.143 309.154 184.245C307.213 186.34 304.377 187.387 300.648 187.387C297.328 187.387 294.263 186.595 291.453 185.012C288.694 183.377 286.728 180.772 285.553 177.196C284.787 174.846 284.403 171.806 284.403 168.077C284.403 164.093 284.863 160.849 285.783 158.346C286.855 155.229 288.669 152.726 291.223 150.836C293.777 148.946 296.74 148.001 300.112 148.001C304.045 148.001 307.059 149.176 309.154 151.526C309.256 151.628 309.358 151.679 309.46 151.679C309.562 151.628 309.613 151.526 309.613 151.373V149.534ZM309 174.284C309.409 172.751 309.613 170.657 309.613 168.001C309.613 166.417 309.562 165.191 309.46 164.322C309.358 163.454 309.179 162.637 308.924 161.87C308.464 160.491 307.698 159.393 306.625 158.575C305.552 157.707 304.224 157.273 302.64 157.273C301.108 157.273 299.805 157.707 298.733 158.575C297.66 159.393 296.868 160.491 296.357 161.87C295.642 163.403 295.284 165.472 295.284 168.077C295.284 170.938 295.591 172.981 296.204 174.207C296.664 175.587 297.455 176.71 298.579 177.579C299.754 178.396 301.133 178.805 302.717 178.805C304.352 178.805 305.706 178.396 306.778 177.579C307.851 176.71 308.592 175.612 309 174.284ZM70.5513 268C69.9894 268 69.6318 267.745 69.4785 267.234L55.9157 215.358L55.839 215.051C55.839 214.591 56.12 214.362 56.6819 214.362H66.1836C66.6944 214.362 67.0265 214.617 67.1797 215.128L74.4592 246.315C74.5103 246.519 74.5869 246.621 74.6891 246.621C74.7913 246.621 74.8679 246.519 74.919 246.315L81.9686 215.204C82.1219 214.643 82.4539 214.362 82.9648 214.362H92.2365C92.7985 214.362 93.1561 214.617 93.3093 215.128L100.972 246.315C101.023 246.468 101.1 246.57 101.202 246.621C101.304 246.621 101.381 246.519 101.432 246.315L108.481 215.204C108.635 214.643 108.967 214.362 109.477 214.362H118.519C119.235 214.362 119.516 214.694 119.362 215.358L106.796 267.234C106.642 267.745 106.285 268 105.723 268H96.6042C96.0934 268 95.7613 267.745 95.6081 267.234L87.7922 234.055C87.7411 233.85 87.6645 233.748 87.5623 233.748C87.4602 233.748 87.3835 233.85 87.3325 234.055L80.053 267.157C79.9508 267.719 79.6187 268 79.0568 268H70.5513ZM129.473 224.17C127.736 224.17 126.281 223.608 125.106 222.484C123.982 221.309 123.42 219.853 123.42 218.116C123.42 216.328 123.982 214.872 125.106 213.749C126.229 212.625 127.685 212.063 129.473 212.063C131.261 212.063 132.717 212.625 133.841 213.749C134.965 214.872 135.527 216.328 135.527 218.116C135.527 219.853 134.939 221.309 133.764 222.484C132.641 223.608 131.21 224.17 129.473 224.17ZM124.876 268C124.62 268 124.39 267.923 124.186 267.77C124.033 267.566 123.956 267.336 123.956 267.08V229.457C123.956 229.202 124.033 228.997 124.186 228.844C124.39 228.64 124.62 228.537 124.876 228.537H133.841C134.096 228.537 134.301 228.64 134.454 228.844C134.658 228.997 134.761 229.202 134.761 229.457V267.08C134.761 267.336 134.658 267.566 134.454 267.77C134.301 267.923 134.096 268 133.841 268H124.876ZM164.253 236.353C164.253 236.609 164.151 236.839 163.946 237.043C163.793 237.196 163.589 237.273 163.333 237.273H155.977C155.722 237.273 155.594 237.401 155.594 237.656V253.901C155.594 255.587 155.926 256.838 156.59 257.655C157.305 258.473 158.429 258.881 159.962 258.881H162.49C162.746 258.881 162.95 258.984 163.103 259.188C163.308 259.341 163.41 259.546 163.41 259.801V267.08C163.41 267.642 163.103 267.974 162.49 268.077C160.345 268.179 158.812 268.23 157.893 268.23C153.653 268.23 150.486 267.54 148.391 266.161C146.297 264.731 145.224 262.074 145.173 258.192V237.656C145.173 237.401 145.045 237.273 144.79 237.273H140.422C140.167 237.273 139.937 237.196 139.732 237.043C139.579 236.839 139.502 236.609 139.502 236.353V229.534C139.502 229.278 139.579 229.074 139.732 228.921C139.937 228.716 140.167 228.614 140.422 228.614H144.79C145.045 228.614 145.173 228.486 145.173 228.231V219.112C145.173 218.857 145.249 218.653 145.403 218.499C145.607 218.295 145.837 218.193 146.092 218.193H154.674C154.93 218.193 155.134 218.295 155.287 218.499C155.492 218.653 155.594 218.857 155.594 219.112V228.231C155.594 228.486 155.722 228.614 155.977 228.614H163.333C163.589 228.614 163.793 228.716 163.946 228.921C164.151 229.074 164.253 229.278 164.253 229.534V236.353ZM189.76 228.001C193.847 228.001 197.142 229.253 199.645 231.756C202.148 234.259 203.4 237.656 203.4 241.947V267.08C203.4 267.336 203.298 267.566 203.093 267.77C202.94 267.923 202.736 268 202.48 268H193.515C193.26 268 193.03 267.923 192.825 267.77C192.672 267.566 192.595 267.336 192.595 267.08V244.169C192.595 242.126 192.008 240.466 190.833 239.188C189.709 237.911 188.202 237.273 186.312 237.273C184.422 237.273 182.889 237.911 181.715 239.188C180.591 240.466 180.029 242.126 180.029 244.169V267.08C180.029 267.336 179.927 267.566 179.722 267.77C179.569 267.923 179.365 268 179.109 268H170.144C169.889 268 169.659 267.923 169.454 267.77C169.301 267.566 169.224 267.336 169.224 267.08V215.281C169.224 215.026 169.301 214.821 169.454 214.668C169.659 214.464 169.889 214.362 170.144 214.362H179.109C179.365 214.362 179.569 214.464 179.722 214.668C179.927 214.821 180.029 215.026 180.029 215.281V232.216C180.029 232.369 180.08 232.471 180.182 232.522C180.284 232.573 180.361 232.548 180.412 232.445C182.506 229.482 185.622 228.001 189.76 228.001ZM225.014 268C224.758 268 224.528 267.923 224.324 267.77C224.171 267.566 224.094 267.336 224.094 267.08V215.281C224.094 215.026 224.171 214.821 224.324 214.668C224.528 214.464 224.758 214.362 225.014 214.362H244.17C248.002 214.362 251.348 215.051 254.208 216.43C257.12 217.759 259.368 219.649 260.952 222.101C262.535 224.553 263.327 227.388 263.327 230.606V251.755C263.327 254.974 262.535 257.809 260.952 260.261C259.368 262.713 257.12 264.628 254.208 266.008C251.348 267.336 248.002 268 244.17 268H225.014ZM234.899 258.345C234.899 258.601 235.026 258.728 235.282 258.728H244.554C246.903 258.728 248.794 257.936 250.224 256.353C251.705 254.769 252.472 252.649 252.523 249.993V232.369C252.523 229.712 251.782 227.592 250.3 226.009C248.87 224.425 246.929 223.633 244.477 223.633H235.282C235.026 223.633 234.899 223.761 234.899 224.016V258.345ZM284.724 228.001C288.044 228.001 291.007 228.589 293.612 229.763C296.218 230.887 298.235 232.445 299.666 234.438C301.147 236.43 301.888 238.652 301.888 241.104V267.08C301.888 267.336 301.786 267.566 301.581 267.77C301.428 267.923 301.224 268 300.968 268H292.003C291.748 268 291.518 267.923 291.314 267.77C291.16 267.566 291.084 267.336 291.084 267.08V264.552C291.084 264.399 291.033 264.296 290.93 264.245C290.828 264.194 290.726 264.245 290.624 264.399C288.478 267.208 285.03 268.613 280.279 268.613C276.295 268.613 273.076 267.642 270.624 265.701C268.172 263.76 266.946 260.899 266.946 257.119C266.946 253.186 268.326 250.146 271.084 248.001C273.843 245.804 277.776 244.706 282.885 244.706H290.701C290.956 244.706 291.084 244.578 291.084 244.322V242.637C291.084 240.951 290.573 239.648 289.551 238.729C288.529 237.758 286.997 237.273 284.954 237.273C283.37 237.273 282.042 237.554 280.969 238.116C279.947 238.678 279.283 239.469 278.977 240.491C278.823 241.053 278.491 241.308 277.981 241.257L268.709 240.031C268.096 239.929 267.815 239.699 267.866 239.342C268.07 237.196 268.913 235.255 270.395 233.518C271.927 231.781 273.919 230.428 276.371 229.457C278.875 228.486 281.659 228.001 284.724 228.001ZM283.191 260.567C285.388 260.567 287.252 259.98 288.785 258.805C290.317 257.63 291.084 256.123 291.084 254.284V251.525C291.084 251.27 290.956 251.142 290.701 251.142H285.183C282.885 251.142 281.071 251.576 279.743 252.445C278.466 253.313 277.827 254.539 277.827 256.123C277.827 257.502 278.313 258.601 279.283 259.418C280.254 260.184 281.556 260.567 283.191 260.567ZM329.748 236.353C329.748 236.609 329.645 236.839 329.441 237.043C329.288 237.196 329.084 237.273 328.828 237.273H321.472C321.217 237.273 321.089 237.401 321.089 237.656V253.901C321.089 255.587 321.421 256.838 322.085 257.655C322.8 258.473 323.924 258.881 325.457 258.881H327.985C328.241 258.881 328.445 258.984 328.598 259.188C328.803 259.341 328.905 259.546 328.905 259.801V267.08C328.905 267.642 328.598 267.974 327.985 268.077C325.84 268.179 324.307 268.23 323.388 268.23C319.148 268.23 315.98 267.54 313.886 266.161C311.792 264.731 310.719 262.074 310.668 258.192V237.656C310.668 237.401 310.54 237.273 310.285 237.273H305.917C305.661 237.273 305.432 237.196 305.227 237.043C305.074 236.839 304.997 236.609 304.997 236.353V229.534C304.997 229.278 305.074 229.074 305.227 228.921C305.432 228.716 305.661 228.614 305.917 228.614H310.285C310.54 228.614 310.668 228.486 310.668 228.231V219.112C310.668 218.857 310.744 218.653 310.898 218.499C311.102 218.295 311.332 218.193 311.587 218.193H320.169C320.425 218.193 320.629 218.295 320.782 218.499C320.987 218.653 321.089 218.857 321.089 219.112V228.231C321.089 228.486 321.217 228.614 321.472 228.614H328.828C329.084 228.614 329.288 228.716 329.441 228.921C329.645 229.074 329.748 229.278 329.748 229.534V236.353ZM350.428 228.001C353.748 228.001 356.711 228.589 359.316 229.763C361.922 230.887 363.94 232.445 365.37 234.438C366.851 236.43 367.592 238.652 367.592 241.104V267.08C367.592 267.336 367.49 267.566 367.286 267.77C367.132 267.923 366.928 268 366.673 268H357.707C357.452 268 357.222 267.923 357.018 267.77C356.864 267.566 356.788 267.336 356.788 267.08V264.552C356.788 264.399 356.737 264.296 356.634 264.245C356.532 264.194 356.43 264.245 356.328 264.399C354.182 267.208 350.734 268.613 345.983 268.613C341.999 268.613 338.781 267.642 336.328 265.701C333.876 263.76 332.65 260.899 332.65 257.119C332.65 253.186 334.03 250.146 336.788 248.001C339.547 245.804 343.48 244.706 348.589 244.706H356.405C356.66 244.706 356.788 244.578 356.788 244.322V242.637C356.788 240.951 356.277 239.648 355.255 238.729C354.234 237.758 352.701 237.273 350.658 237.273C349.074 237.273 347.746 237.554 346.673 238.116C345.651 238.678 344.987 239.469 344.681 240.491C344.528 241.053 344.195 241.308 343.685 241.257L334.413 240.031C333.8 239.929 333.519 239.699 333.57 239.342C333.774 237.196 334.617 235.255 336.099 233.518C337.631 231.781 339.623 230.428 342.075 229.457C344.579 228.486 347.363 228.001 350.428 228.001ZM348.895 260.567C351.092 260.567 352.956 259.98 354.489 258.805C356.021 257.63 356.788 256.123 356.788 254.284V251.525C356.788 251.27 356.66 251.142 356.405 251.142H350.887C348.589 251.142 346.775 251.576 345.447 252.445C344.17 253.313 343.531 254.539 343.531 256.123C343.531 257.502 344.017 258.601 344.987 259.418C345.958 260.184 347.261 260.567 348.895 260.567ZM393.301 224.17C391.565 224.17 390.109 223.608 388.934 222.484C387.81 221.309 387.248 219.853 387.248 218.116C387.248 216.328 387.81 214.872 388.934 213.749C390.058 212.625 391.513 212.063 393.301 212.063C395.089 212.063 396.545 212.625 397.669 213.749C398.793 214.872 399.355 216.328 399.355 218.116C399.355 219.853 398.767 221.309 397.592 222.484C396.469 223.608 395.038 224.17 393.301 224.17ZM388.704 268C388.448 268 388.218 267.923 388.014 267.77C387.861 267.566 387.784 267.336 387.784 267.08V229.457C387.784 229.202 387.861 228.997 388.014 228.844C388.218 228.64 388.448 228.537 388.704 228.537H397.669C397.924 228.537 398.129 228.64 398.282 228.844C398.486 228.997 398.589 229.202 398.589 229.457V267.08C398.589 267.336 398.486 267.566 398.282 267.77C398.129 267.923 397.924 268 397.669 268H388.704ZM426.012 228.001C430.099 228.001 433.394 229.253 435.897 231.756C438.4 234.259 439.651 237.656 439.651 241.947V267.08C439.651 267.336 439.549 267.566 439.345 267.77C439.192 267.923 438.987 268 438.732 268H429.767C429.511 268 429.281 267.923 429.077 267.77C428.924 267.566 428.847 267.336 428.847 267.08V244.169C428.847 242.126 428.26 240.466 427.085 239.188C425.961 237.911 424.454 237.273 422.564 237.273C420.674 237.273 419.141 237.911 417.966 239.188C416.842 240.466 416.28 242.126 416.28 244.169V267.08C416.28 267.336 416.178 267.566 415.974 267.77C415.821 267.923 415.616 268 415.361 268H406.396C406.14 268 405.91 267.923 405.706 267.77C405.553 267.566 405.476 267.336 405.476 267.08V229.534C405.476 229.278 405.553 229.074 405.706 228.921C405.91 228.716 406.14 228.614 406.396 228.614H415.361C415.616 228.614 415.821 228.716 415.974 228.921C416.178 229.074 416.28 229.278 416.28 229.534V232.216C416.28 232.369 416.331 232.471 416.434 232.522C416.536 232.573 416.612 232.548 416.663 232.445C418.758 229.482 421.874 228.001 426.012 228.001ZM59.5937 348C59.3383 348 59.1084 347.923 58.9041 347.77C58.7508 347.566 58.6742 347.336 58.6742 347.08V295.281C58.6742 295.026 58.7508 294.821 58.9041 294.668C59.1084 294.464 59.3383 294.362 59.5937 294.362H68.559C68.8144 294.362 69.0188 294.464 69.172 294.668C69.3764 294.821 69.4785 295.026 69.4785 295.281V338.345C69.4785 338.601 69.6062 338.728 69.8617 338.728H94.9185C95.1739 338.728 95.3782 338.83 95.5315 339.035C95.7358 339.188 95.838 339.392 95.838 339.648V347.08C95.838 347.336 95.7358 347.566 95.5315 347.77C95.3782 347.923 95.1739 348 94.9185 348H59.5937ZM116.011 308.001C119.332 308.001 122.294 308.589 124.9 309.763C127.505 310.887 129.523 312.445 130.953 314.438C132.435 316.43 133.175 318.652 133.175 321.104V347.08C133.175 347.336 133.073 347.566 132.869 347.77C132.716 347.923 132.511 348 132.256 348H123.291C123.035 348 122.805 347.923 122.601 347.77C122.448 347.566 122.371 347.336 122.371 347.08V344.552C122.371 344.399 122.32 344.296 122.218 344.245C122.116 344.194 122.013 344.245 121.911 344.399C119.766 347.208 116.318 348.613 111.567 348.613C107.582 348.613 104.364 347.642 101.912 345.701C99.4598 343.76 98.2337 340.899 98.2337 337.119C98.2337 333.186 99.613 330.146 102.372 328.001C105.13 325.804 109.064 324.706 114.172 324.706H121.988C122.243 324.706 122.371 324.578 122.371 324.322V322.637C122.371 320.951 121.86 319.648 120.839 318.729C119.817 317.758 118.284 317.273 116.241 317.273C114.657 317.273 113.329 317.554 112.256 318.116C111.235 318.678 110.571 319.469 110.264 320.491C110.111 321.053 109.779 321.308 109.268 321.257L99.9961 320.031C99.3831 319.929 99.1022 319.699 99.1533 319.342C99.3576 317.196 100.2 315.255 101.682 313.518C103.214 311.781 105.207 310.428 107.659 309.457C110.162 308.486 112.946 308.001 116.011 308.001ZM114.479 340.567C116.675 340.567 118.54 339.98 120.072 338.805C121.605 337.63 122.371 336.123 122.371 334.284V331.525C122.371 331.27 122.243 331.142 121.988 331.142H116.471C114.172 331.142 112.359 331.576 111.03 332.445C109.753 333.313 109.115 334.539 109.115 336.123C109.115 337.502 109.6 338.601 110.571 339.418C111.541 340.184 112.844 340.567 114.479 340.567ZM158.87 308.078C160.709 308.078 162.165 308.435 163.237 309.15C163.646 309.355 163.799 309.738 163.697 310.3L162.088 319.035C162.037 319.648 161.679 319.827 161.015 319.572C160.249 319.316 159.355 319.188 158.333 319.188C157.925 319.188 157.363 319.24 156.648 319.342C154.809 319.495 153.25 320.185 151.973 321.411C150.696 322.586 150.058 324.169 150.058 326.161V347.08C150.058 347.336 149.956 347.566 149.751 347.77C149.598 347.923 149.394 348 149.138 348H140.173C139.917 348 139.688 347.923 139.483 347.77C139.33 347.566 139.253 347.336 139.253 347.08V309.534C139.253 309.278 139.33 309.074 139.483 308.921C139.688 308.716 139.917 308.614 140.173 308.614H149.138C149.394 308.614 149.598 308.716 149.751 308.921C149.956 309.074 150.058 309.278 150.058 309.534V312.445C150.058 312.599 150.109 312.701 150.211 312.752C150.313 312.803 150.39 312.777 150.441 312.675C152.535 309.61 155.345 308.078 158.87 308.078ZM189.319 309.534C189.319 309.278 189.396 309.074 189.549 308.921C189.753 308.716 189.983 308.614 190.239 308.614H199.204C199.459 308.614 199.664 308.716 199.817 308.921C200.021 309.074 200.123 309.278 200.123 309.534V344.475C200.123 351.167 198.182 355.944 194.3 358.804C190.468 361.665 185.513 363.095 179.434 363.095C177.646 363.095 175.654 362.968 173.457 362.712C172.947 362.661 172.691 362.329 172.691 361.716L172.998 353.824C172.998 353.16 173.355 352.879 174.07 352.981C175.909 353.287 177.595 353.44 179.128 353.44C182.397 353.44 184.9 352.725 186.637 351.295C188.425 349.865 189.319 347.566 189.319 344.399C189.319 344.245 189.268 344.169 189.166 344.169C189.064 344.118 188.962 344.143 188.859 344.245C186.918 346.34 184.083 347.387 180.354 347.387C177.033 347.387 173.968 346.595 171.159 345.012C168.4 343.377 166.433 340.772 165.258 337.196C164.492 334.846 164.109 331.806 164.109 328.077C164.109 324.093 164.569 320.849 165.488 318.346C166.561 315.229 168.375 312.726 170.929 310.836C173.483 308.946 176.446 308.001 179.817 308.001C183.751 308.001 186.765 309.176 188.859 311.526C188.962 311.628 189.064 311.679 189.166 311.679C189.268 311.628 189.319 311.526 189.319 311.373V309.534ZM188.706 334.284C189.115 332.751 189.319 330.657 189.319 328.001C189.319 326.417 189.268 325.191 189.166 324.322C189.064 323.454 188.885 322.637 188.629 321.87C188.17 320.491 187.403 319.393 186.331 318.575C185.258 317.707 183.93 317.273 182.346 317.273C180.814 317.273 179.511 317.707 178.438 318.575C177.365 319.393 176.574 320.491 176.063 321.87C175.348 323.403 174.99 325.472 174.99 328.077C174.99 330.938 175.296 332.981 175.909 334.207C176.369 335.587 177.161 336.71 178.285 337.579C179.46 338.396 180.839 338.805 182.423 338.805C184.057 338.805 185.411 338.396 186.484 337.579C187.557 336.71 188.297 335.612 188.706 334.284ZM241.169 324.246C241.476 326.187 241.578 328.358 241.476 330.759C241.425 331.372 241.093 331.679 240.48 331.679H216.802C216.496 331.679 216.394 331.806 216.496 332.062C216.649 333.083 216.93 334.105 217.339 335.127C218.667 337.987 221.374 339.418 225.461 339.418C228.73 339.367 231.31 338.039 233.2 335.433C233.405 335.127 233.634 334.974 233.89 334.974C234.043 334.974 234.222 335.076 234.426 335.28L239.943 340.72C240.199 340.976 240.326 341.206 240.326 341.41C240.326 341.512 240.224 341.717 240.02 342.023C238.334 344.118 236.163 345.752 233.507 346.927C230.85 348.051 227.939 348.613 224.771 348.613C220.378 348.613 216.649 347.617 213.584 345.625C210.57 343.632 208.399 340.848 207.071 337.272C205.998 334.718 205.462 331.372 205.462 327.234C205.462 324.425 205.845 321.947 206.611 319.802C207.786 316.175 209.829 313.288 212.741 311.143C215.704 308.997 219.203 307.924 223.239 307.924C228.347 307.924 232.434 309.406 235.499 312.369C238.615 315.332 240.505 319.291 241.169 324.246ZM223.315 317.273C220.097 317.273 217.977 318.78 216.955 321.794C216.751 322.458 216.572 323.275 216.419 324.246C216.419 324.501 216.547 324.629 216.802 324.629H230.059C230.365 324.629 230.467 324.501 230.365 324.246C230.11 322.764 229.982 322.049 229.982 322.1C229.522 320.568 228.705 319.393 227.53 318.575C226.406 317.707 225.001 317.273 223.315 317.273ZM298.11 294.362C298.365 294.362 298.57 294.464 298.723 294.668C298.927 294.821 299.029 295.026 299.029 295.281V302.79C299.029 303.046 298.927 303.276 298.723 303.48C298.57 303.633 298.365 303.71 298.11 303.71H284.394C284.138 303.71 284.011 303.838 284.011 304.093V347.08C284.011 347.336 283.909 347.566 283.704 347.77C283.551 347.923 283.347 348 283.091 348H274.126C273.87 348 273.641 347.923 273.436 347.77C273.283 347.566 273.206 347.336 273.206 347.08V304.093C273.206 303.838 273.079 303.71 272.823 303.71H259.49C259.235 303.71 259.005 303.633 258.801 303.48C258.647 303.276 258.571 303.046 258.571 302.79V295.281C258.571 295.026 258.647 294.821 258.801 294.668C259.005 294.464 259.235 294.362 259.49 294.362H298.11ZM332.13 324.246C332.437 326.187 332.539 328.358 332.437 330.759C332.386 331.372 332.054 331.679 331.441 331.679H307.763C307.457 331.679 307.354 331.806 307.457 332.062C307.61 333.083 307.891 334.105 308.299 335.127C309.628 337.987 312.335 339.418 316.422 339.418C319.691 339.367 322.271 338.039 324.161 335.433C324.365 335.127 324.595 334.974 324.851 334.974C325.004 334.974 325.183 335.076 325.387 335.28L330.904 340.72C331.16 340.976 331.287 341.206 331.287 341.41C331.287 341.512 331.185 341.717 330.981 342.023C329.295 344.118 327.124 345.752 324.468 346.927C321.811 348.051 318.899 348.613 315.732 348.613C311.339 348.613 307.61 347.617 304.545 345.625C301.531 343.632 299.36 340.848 298.032 337.272C296.959 334.718 296.422 331.372 296.422 327.234C296.422 324.425 296.805 321.947 297.572 319.802C298.747 316.175 300.79 313.288 303.702 311.143C306.665 308.997 310.164 307.924 314.2 307.924C319.308 307.924 323.395 309.406 326.46 312.369C329.576 315.332 331.466 319.291 332.13 324.246ZM314.276 317.273C311.058 317.273 308.938 318.78 307.916 321.794C307.712 322.458 307.533 323.275 307.38 324.246C307.38 324.501 307.508 324.629 307.763 324.629H321.019C321.326 324.629 321.428 324.501 321.326 324.246C321.07 322.764 320.943 322.049 320.943 322.1C320.483 320.568 319.666 319.393 318.491 318.575C317.367 317.707 315.962 317.273 314.276 317.273ZM352.897 308.001C356.218 308.001 359.181 308.589 361.786 309.763C364.391 310.887 366.409 312.445 367.839 314.438C369.321 316.43 370.061 318.652 370.061 321.104V347.08C370.061 347.336 369.959 347.566 369.755 347.77C369.602 347.923 369.397 348 369.142 348H360.177C359.921 348 359.691 347.923 359.487 347.77C359.334 347.566 359.257 347.336 359.257 347.08V344.552C359.257 344.399 359.206 344.296 359.104 344.245C359.002 344.194 358.9 344.245 358.797 344.399C356.652 347.208 353.204 348.613 348.453 348.613C344.468 348.613 341.25 347.642 338.798 345.701C336.346 343.76 335.12 340.899 335.12 337.119C335.12 333.186 336.499 330.146 339.258 328.001C342.016 325.804 345.95 324.706 351.058 324.706H358.874C359.129 324.706 359.257 324.578 359.257 324.322V322.637C359.257 320.951 358.746 319.648 357.725 318.729C356.703 317.758 355.17 317.273 353.127 317.273C351.543 317.273 350.215 317.554 349.142 318.116C348.121 318.678 347.457 319.469 347.15 320.491C346.997 321.053 346.665 321.308 346.154 321.257L336.882 320.031C336.269 319.929 335.988 319.699 336.039 319.342C336.244 317.196 337.087 315.255 338.568 313.518C340.101 311.781 342.093 310.428 344.545 309.457C347.048 308.486 349.832 308.001 352.897 308.001ZM351.365 340.567C353.561 340.567 355.426 339.98 356.958 338.805C358.491 337.63 359.257 336.123 359.257 334.284V331.525C359.257 331.27 359.129 331.142 358.874 331.142H353.357C351.058 331.142 349.245 331.576 347.916 332.445C346.639 333.313 346.001 334.539 346.001 336.123C346.001 337.502 346.486 338.601 347.457 339.418C348.427 340.184 349.73 340.567 351.365 340.567ZM419.816 308.001C423.801 308.001 426.917 309.202 429.165 311.602C431.413 314.003 432.536 317.375 432.536 321.717V347.08C432.536 347.336 432.434 347.566 432.23 347.77C432.077 347.923 431.872 348 431.617 348H422.652C422.396 348 422.166 347.923 421.962 347.77C421.809 347.566 421.732 347.336 421.732 347.08V324.093C421.732 321.998 421.196 320.338 420.123 319.112C419.05 317.886 417.62 317.273 415.832 317.273C414.044 317.273 412.588 317.886 411.464 319.112C410.34 320.338 409.778 321.973 409.778 324.016V347.08C409.778 347.336 409.676 347.566 409.472 347.77C409.319 347.923 409.114 348 408.859 348H399.97C399.715 348 399.485 347.923 399.281 347.77C399.127 347.566 399.051 347.336 399.051 347.08V324.093C399.051 322.049 398.489 320.415 397.365 319.188C396.241 317.911 394.785 317.273 392.997 317.273C391.363 317.273 389.983 317.758 388.859 318.729C387.787 319.699 387.148 321.053 386.944 322.79V347.08C386.944 347.336 386.842 347.566 386.637 347.77C386.484 347.923 386.28 348 386.024 348H377.059C376.804 348 376.574 347.923 376.369 347.77C376.216 347.566 376.139 347.336 376.139 347.08V309.534C376.139 309.278 376.216 309.074 376.369 308.921C376.574 308.716 376.804 308.614 377.059 308.614H386.024C386.28 308.614 386.484 308.716 386.637 308.921C386.842 309.074 386.944 309.278 386.944 309.534V312.522C386.944 312.675 386.995 312.777 387.097 312.829C387.199 312.88 387.301 312.829 387.404 312.675C389.498 309.559 392.742 308.001 397.135 308.001C399.689 308.001 401.911 308.537 403.802 309.61C405.743 310.683 407.224 312.216 408.246 314.208C408.399 314.514 408.578 314.514 408.782 314.208C409.906 312.113 411.413 310.555 413.303 309.534C415.244 308.512 417.416 308.001 419.816 308.001ZM454.295 348.536C450.873 348.536 447.884 348.051 445.33 347.08C442.776 346.11 440.784 344.756 439.353 343.019C437.974 341.282 437.284 339.316 437.284 337.119V336.353C437.284 336.097 437.361 335.893 437.514 335.74C437.718 335.535 437.948 335.433 438.204 335.433H446.709C446.965 335.433 447.169 335.535 447.322 335.74C447.527 335.893 447.629 336.097 447.629 336.353V336.429C447.629 337.553 448.242 338.524 449.468 339.341C450.745 340.107 452.329 340.491 454.219 340.491C455.956 340.491 457.36 340.159 458.433 339.494C459.506 338.779 460.042 337.911 460.042 336.889C460.042 335.97 459.583 335.28 458.663 334.82C457.744 334.361 456.237 333.875 454.142 333.364C451.741 332.751 449.851 332.164 448.472 331.602C445.202 330.478 442.597 329.099 440.656 327.464C438.715 325.829 437.744 323.48 437.744 320.415C437.744 316.634 439.2 313.646 442.112 311.449C445.075 309.202 448.983 308.078 453.836 308.078C457.105 308.078 459.966 308.614 462.418 309.687C464.87 310.709 466.76 312.164 468.088 314.055C469.467 315.945 470.157 318.09 470.157 320.491C470.157 320.747 470.055 320.976 469.85 321.181C469.697 321.334 469.493 321.411 469.237 321.411H461.038C460.783 321.411 460.553 321.334 460.349 321.181C460.196 320.976 460.119 320.747 460.119 320.491C460.119 319.367 459.531 318.422 458.357 317.656C457.233 316.89 455.726 316.507 453.836 316.507C452.15 316.507 450.771 316.813 449.698 317.426C448.625 318.039 448.089 318.882 448.089 319.955C448.089 320.976 448.599 321.743 449.621 322.254C450.694 322.764 452.456 323.301 454.908 323.863C455.47 324.016 456.109 324.195 456.824 324.399C457.539 324.552 458.305 324.757 459.123 325.012C462.75 326.085 465.61 327.464 467.705 329.15C469.799 330.836 470.847 333.288 470.847 336.506C470.847 340.286 469.34 343.249 466.326 345.395C463.363 347.489 459.353 348.536 454.295 348.536Z"></path>
</g>
<path fill="url(#paint5_linear_2211_449)" d="M633.151 319.056C633.625 319.529 634.393 319.529 634.866 319.055L642.582 311.334C643.056 310.86 643.055 310.092 642.582 309.619C642.108 309.145 641.34 309.145 640.866 309.619L634.008 316.483L627.144 309.624C626.67 309.15 625.902 309.151 625.429 309.625C624.955 310.098 624.956 310.866 625.429 311.34L633.151 319.056ZM635.188 223C635.188 222.33 634.645 221.787 633.975 221.787C633.305 221.787 632.762 222.331 632.762 223L635.188 223ZM635.221 318.198L635.188 223L632.762 223L632.795 318.198L635.221 318.198Z"></path>
<rect fill="url(#paint6_linear_2211_449)" rx="13.386" height="48.8752" width="48.7451" y="69" x="508"></rect>
<rect stroke-width="1.77816" stroke-opacity="0.46" stroke="#010101" rx="12.4969" height="47.097" width="46.9669" y="69.8891" x="508.889"></rect>
<path fill="white" d="M532.05 92.4386C530.039 92.4386 528.204 91.3898 527.199 89.6418C526.194 87.9374 526.194 85.7961 527.199 84.0481C528.204 82.3437 530.039 81.2512 532.05 81.2512C534.016 81.2512 535.852 82.3437 536.857 84.0481C537.862 85.7961 537.862 87.9374 536.857 89.6418C535.852 91.3898 534.016 92.4386 532.05 92.4386ZM530.039 94.5363H534.016C538.342 94.5363 541.839 98.0323 541.839 102.359C541.839 103.058 541.227 103.626 540.528 103.626H523.528C522.829 103.626 522.261 103.058 522.261 102.359C522.261 98.0323 525.713 94.5363 530.039 94.5363Z"></path>
<rect fill="url(#paint7_linear_2211_449)" rx="13.386" height="48.8752" width="48.7451" y="17" x="508"></rect>
<rect stroke-width="1.77816" stroke-opacity="0.46" stroke="#010101" rx="12.4969" height="47.097" width="46.9669" y="17.8891" x="508.889"></rect>
<path fill="white" d="M532.05 40.4386C530.039 40.4386 528.204 39.3898 527.199 37.6418C526.194 35.9374 526.194 33.7961 527.199 32.0481C528.204 30.3437 530.039 29.2512 532.05 29.2512C534.016 29.2512 535.852 30.3437 536.857 32.0481C537.862 33.7961 537.862 35.9374 536.857 37.6418C535.852 39.3898 534.016 40.4386 532.05 40.4386ZM530.039 42.5363H534.016C538.342 42.5363 541.839 46.0323 541.839 50.3587C541.839 51.0579 541.227 51.626 540.528 51.626H523.528C522.829 51.626 522.261 51.0579 522.261 50.3587C522.261 46.0323 525.713 42.5363 530.039 42.5363Z"></path>
<rect fill="url(#paint8_linear_2211_449)" rx="13.386" height="48.8752" width="48.7451" y="-35" x="508"></rect>
<rect stroke-width="1.77816" stroke-opacity="0.46" stroke="#010101" rx="12.4969" height="47.097" width="46.9669" y="-34.1109" x="508.889"></rect>
<rect fill="url(#paint9_linear_2211_449)" rx="13.386" height="48.8752" width="48.7451" y="69" x="456"></rect>
<rect stroke-width="1.77816" stroke-opacity="0.46" stroke="#010101" rx="12.4969" height="47.097" width="46.9669" y="69.8891" x="456.889"></rect>
<path fill="white" d="M480.05 92.4386C478.039 92.4386 476.204 91.3898 475.199 89.6418C474.194 87.9374 474.194 85.7961 475.199 84.0481C476.204 82.3437 478.039 81.2512 480.05 81.2512C482.016 81.2512 483.852 82.3437 484.857 84.0481C485.862 85.7961 485.862 87.9374 484.857 89.6418C483.852 91.3898 482.016 92.4386 480.05 92.4386ZM478.039 94.5363H482.016C486.342 94.5363 489.839 98.0323 489.839 102.359C489.839 103.058 489.227 103.626 488.528 103.626H471.528C470.829 103.626 470.261 103.058 470.261 102.359C470.261 98.0323 473.713 94.5363 478.039 94.5363Z"></path>
<rect fill="url(#paint10_linear_2211_449)" rx="13.386" height="48.8752" width="48.7451" y="17" x="456"></rect>
<rect stroke-width="1.77816" stroke-opacity="0.46" stroke="#010101" rx="12.4969" height="47.097" width="46.9669" y="17.8891" x="456.889"></rect>
<path fill="white" d="M480.05 40.4386C478.039 40.4386 476.204 39.3898 475.199 37.6418C474.194 35.9374 474.194 33.7961 475.199 32.0481C476.204 30.3437 478.039 29.2512 480.05 29.2512C482.016 29.2512 483.852 30.3437 484.857 32.0481C485.862 33.7961 485.862 35.9374 484.857 37.6418C483.852 39.3898 482.016 40.4386 480.05 40.4386ZM478.039 42.5363H482.016C486.342 42.5363 489.839 46.0323 489.839 50.3587C489.839 51.0579 489.227 51.626 488.528 51.626H471.528C470.829 51.626 470.261 51.0579 470.261 50.3587C470.261 46.0323 473.713 42.5363 478.039 42.5363Z"></path>
<rect fill="url(#paint11_linear_2211_449)" rx="13.386" height="48.8752" width="48.7451" y="-35" x="456"></rect>
<rect stroke-width="1.77816" stroke-opacity="0.46" stroke="#010101" rx="12.4969" height="47.097" width="46.9669" y="-34.1109" x="456.889"></rect>
<rect fill="url(#paint12_linear_2211_449)" rx="13.386" height="48.8752" width="48.7451" y="17" x="404"></rect>
<rect stroke-width="1.77816" stroke-opacity="0.46" stroke="#010101" rx="12.4969" height="47.097" width="46.9669" y="17.8891" x="404.889"></rect>
<path fill="white" d="M428.05 40.4386C426.039 40.4386 424.204 39.3898 423.199 37.6418C422.194 35.9374 422.194 33.7961 423.199 32.0481C424.204 30.3437 426.039 29.2512 428.05 29.2512C430.016 29.2512 431.852 30.3437 432.857 32.0481C433.862 33.7961 433.862 35.9374 432.857 37.6418C431.852 39.3898 430.016 40.4386 428.05 40.4386ZM426.039 42.5363H430.016C434.342 42.5363 437.839 46.0323 437.839 50.3587C437.839 51.0579 437.227 51.626 436.528 51.626H419.528C418.829 51.626 418.261 51.0579 418.261 50.3587C418.261 46.0323 421.713 42.5363 426.039 42.5363Z"></path>
<rect fill="url(#paint13_linear_2211_449)" rx="13.386" height="48.8752" width="48.7451" y="-35" x="404"></rect>
<rect stroke-width="1.77816" stroke-opacity="0.46" stroke="#010101" rx="12.4969" height="47.097" width="46.9669" y="-34.1109" x="404.889"></rect>
<rect fill="url(#paint14_linear_2211_449)" rx="13.386" height="48.8752" width="48.7451" y="-35" x="352"></rect>
<rect stroke-width="1.77816" stroke-opacity="0.46" stroke="#010101" rx="12.4969" height="47.097" width="46.9669" y="-34.1109" x="352.889"></rect>
<rect fill="url(#paint15_linear_2211_449)" rx="13.386" height="48.8752" width="48.7451" y="69" x="559.255"></rect>
<rect stroke-width="1.77816" stroke-opacity="0.46" stroke="#010101" rx="12.4969" height="47.097" width="46.9669" y="69.8891" x="560.144"></rect>
<path fill="white" d="M583.304 92.4386C581.294 92.4386 579.459 91.3898 578.454 89.6418C577.449 87.9374 577.449 85.7961 578.454 84.0481C579.459 82.3437 581.294 81.2512 583.304 81.2512C585.271 81.2512 587.106 82.3437 588.112 84.0481C589.117 85.7961 589.117 87.9374 588.112 89.6418C587.106 91.3898 585.271 92.4386 583.304 92.4386ZM581.294 94.5363H585.271C589.597 94.5363 593.093 98.0323 593.093 102.359C593.093 103.058 592.482 103.626 591.782 103.626H574.783C574.084 103.626 573.515 103.058 573.515 102.359C573.515 98.0323 576.968 94.5363 581.294 94.5363Z"></path>
<rect fill="url(#paint16_linear_2211_449)" rx="13.386" height="48.8752" width="48.7451" y="17" x="559.255"></rect>
<rect stroke-width="1.77816" stroke-opacity="0.46" stroke="#010101" rx="12.4969" height="47.097" width="46.9669" y="17.8891" x="560.144"></rect>
<path fill="white" d="M583.304 40.4386C581.294 40.4386 579.459 39.3898 578.454 37.6418C577.449 35.9374 577.449 33.7961 578.454 32.0481C579.459 30.3437 581.294 29.2512 583.304 29.2512C585.271 29.2512 587.106 30.3437 588.112 32.0481C589.117 33.7961 589.117 35.9374 588.112 37.6418C587.106 39.3898 585.271 40.4386 583.304 40.4386ZM581.294 42.5363H585.271C589.597 42.5363 593.093 46.0323 593.093 50.3587C593.093 51.0579 592.482 51.626 591.782 51.626H574.783C574.084 51.626 573.515 51.0579 573.515 50.3587C573.515 46.0323 576.968 42.5363 581.294 42.5363Z"></path>
<rect fill="url(#paint17_linear_2211_449)" rx="13.386" height="48.8752" width="48.7451" y="-35" x="559.255"></rect>
<rect stroke-width="1.77816" stroke-opacity="0.46" stroke="#010101" rx="12.4969" height="47.097" width="46.9669" y="-34.1109" x="560.144"></rect>
<rect fill="url(#paint18_linear_2211_449)" rx="13.386" height="48.8752" width="48.7451" y="120.385" x="508"></rect>
<rect stroke-width="1.77816" stroke-opacity="0.46" stroke="#010101" rx="12.4969" height="47.097" width="46.9669" y="121.274" x="508.889"></rect>
<path fill="white" d="M532.05 143.824C530.039 143.824 528.204 142.775 527.199 141.027C526.194 139.322 526.194 137.181 527.199 135.433C528.204 133.729 530.039 132.636 532.05 132.636C534.016 132.636 535.852 133.729 536.857 135.433C537.862 137.181 537.862 139.322 536.857 141.027C535.852 142.775 534.016 143.824 532.05 143.824ZM530.039 145.921H534.016C538.342 145.921 541.839 149.417 541.839 153.744C541.839 154.443 541.227 155.011 540.528 155.011H523.528C522.829 155.011 522.261 154.443 522.261 153.744C522.261 149.417 525.713 145.921 530.039 145.921Z"></path>
<rect fill="url(#paint19_linear_2211_449)" rx="13.386" height="48.8752" width="48.7451" y="120.385" x="559.255"></rect>
<rect stroke-width="1.77816" stroke-opacity="0.46" stroke="#010101" rx="12.4969" height="47.097" width="46.9669" y="121.274" x="560.144"></rect>
<path fill="white" d="M583.304 143.824C581.294 143.824 579.459 142.775 578.454 141.027C577.449 139.322 577.449 137.181 578.454 135.433C579.459 133.729 581.294 132.636 583.304 132.636C585.271 132.636 587.106 133.729 588.112 135.433C589.117 137.181 589.117 139.322 588.112 141.027C587.106 142.775 585.271 143.824 583.304 143.824ZM581.294 145.921H585.271C589.597 145.921 593.093 149.417 593.093 153.744C593.093 154.443 592.482 155.011 591.782 155.011H574.783C574.084 155.011 573.515 154.443 573.515 153.744C573.515 149.417 576.968 145.921 581.294 145.921Z"></path>
<g filter="url(#filter1_dd_2211_449)">
<path fill="url(#paint20_linear_2211_449)" d="M637.127 240.399L639.263 220.889L656.413 238.238L637.127 240.399Z"></path>
<path fill="url(#paint21_linear_2211_449)" d="M613.054 283.066C612.528 283.066 612.101 282.634 612.101 282.102V220.159C612.101 219.627 612.528 219.195 613.054 219.195H635.222C638.379 219.195 640.938 221.784 640.938 224.978V231.435C640.938 234.257 643.226 236.544 646.048 236.544H648.56C648.57 236.544 648.579 236.544 648.589 236.544H652.371C655.529 236.544 658.088 239.134 658.088 242.327V282.102C658.088 282.634 657.661 283.066 657.135 283.066L613.054 283.066Z"></path>
<path fill="url(#paint22_linear_2211_449)" d="M638.103 242.959C638.867 243.183 639.316 243.947 639.091 244.71L633.343 264.829C633.118 265.593 632.355 266.042 631.591 265.817C630.828 265.593 630.379 264.829 630.603 264.066L636.352 243.947C636.576 243.183 637.34 242.734 638.103 242.959ZM641.741 248.348C642.28 247.764 643.223 247.764 643.762 248.348L648.791 253.378C649.375 253.917 649.375 254.86 648.791 255.399L643.762 260.428C643.223 261.012 642.28 261.012 641.741 260.428C641.157 259.889 641.157 258.946 641.741 258.407L645.738 254.366L641.741 250.369C641.157 249.83 641.157 248.887 641.741 248.348ZM627.954 248.348C628.537 248.887 628.537 249.83 627.954 250.369L623.957 254.366L627.954 258.407C628.537 258.946 628.537 259.889 627.954 260.428C627.415 261.012 626.472 261.012 625.933 260.428L620.903 255.399C620.319 254.86 620.319 253.917 620.903 253.378L625.933 248.348C626.472 247.764 627.415 247.764 627.954 248.348Z"></path>
</g>
<rect fill="url(#paint23_linear_2211_449)" rx="13.386" height="48.8752" width="48.7451" y="69" x="656.799"></rect>
<rect stroke-width="1.77816" stroke-opacity="0.46" stroke="#010101" rx="12.4969" height="47.097" width="46.9669" y="69.8891" x="657.688"></rect>
<path fill="white" d="M680.849 92.4386C678.838 92.4386 677.003 91.3898 675.998 89.6418C674.993 87.9374 674.993 85.7961 675.998 84.0481C677.003 82.3437 678.838 81.2512 680.849 81.2512C682.815 81.2512 684.651 82.3437 685.656 84.0481C686.661 85.7961 686.661 87.9374 685.656 89.6418C684.651 91.3898 682.815 92.4386 680.849 92.4386ZM678.838 94.5363H682.815C687.142 94.5363 690.638 98.0323 690.638 102.359C690.638 103.058 690.026 103.626 689.327 103.626H672.327C671.628 103.626 671.06 103.058 671.06 102.359C671.06 98.0323 674.512 94.5363 678.838 94.5363Z"></path>
<rect fill="url(#paint24_linear_2211_449)" rx="13.386" height="48.8752" width="48.7451" y="17" x="656.799"></rect>
<rect stroke-width="1.77816" stroke-opacity="0.46" stroke="#010101" rx="12.4969" height="47.097" width="46.9669" y="17.8891" x="657.688"></rect>
<path fill="white" d="M680.849 40.4386C678.838 40.4386 677.003 39.3898 675.998 37.6418C674.993 35.9374 674.993 33.7961 675.998 32.0481C677.003 30.3437 678.838 29.2512 680.849 29.2512C682.815 29.2512 684.651 30.3437 685.656 32.0481C686.661 33.7961 686.661 35.9374 685.656 37.6418C684.651 39.3898 682.815 40.4386 680.849 40.4386ZM678.838 42.5363H682.815C687.142 42.5363 690.638 46.0323 690.638 50.3587C690.638 51.0579 690.026 51.626 689.327 51.626H672.327C671.628 51.626 671.06 51.0579 671.06 50.3587C671.06 46.0323 674.512 42.5363 678.838 42.5363Z"></path>
<rect fill="url(#paint25_linear_2211_449)" rx="13.386" height="48.8752" width="48.7451" y="-35" x="656.799"></rect>
<rect stroke-width="1.77816" stroke-opacity="0.46" stroke="#010101" rx="12.4969" height="47.097" width="46.9669" y="-34.1109" x="657.688"></rect>
<rect fill="url(#paint26_linear_2211_449)" rx="13.386" height="48.8752" width="48.7451" y="69" x="708.054"></rect>
<rect stroke-width="1.77816" stroke-opacity="0.46" stroke="#010101" rx="12.4969" height="47.097" width="46.9669" y="69.8891" x="708.943"></rect>
<path fill="white" d="M732.104 92.4386C730.093 92.4386 728.258 91.3898 727.253 89.6418C726.248 87.9374 726.248 85.7961 727.253 84.0481C728.258 82.3437 730.093 81.2512 732.104 81.2512C734.07 81.2512 735.905 82.3437 736.911 84.0481C737.916 85.7961 737.916 87.9374 736.911 89.6418C735.905 91.3898 734.07 92.4386 732.104 92.4386ZM730.093 94.5363H734.07C738.396 94.5363 741.892 98.0323 741.892 102.359C741.892 103.058 741.281 103.626 740.581 103.626H723.582C722.883 103.626 722.315 103.058 722.315 102.359C722.315 98.0323 725.767 94.5363 730.093 94.5363Z"></path>
<rect fill="url(#paint27_linear_2211_449)" rx="13.386" height="48.8752" width="48.7451" y="17" x="708.054"></rect>
<rect stroke-width="1.77816" stroke-opacity="0.46" stroke="#010101" rx="12.4969" height="47.097" width="46.9669" y="17.8891" x="708.943"></rect>
<path fill="white" d="M732.104 40.4386C730.093 40.4386 728.258 39.3898 727.253 37.6418C726.248 35.9374 726.248 33.7961 727.253 32.0481C728.258 30.3437 730.093 29.2512 732.104 29.2512C734.07 29.2512 735.905 30.3437 736.911 32.0481C737.916 33.7961 737.916 35.9374 736.911 37.6418C735.905 39.3898 734.07 40.4386 732.104 40.4386ZM730.093 42.5363H734.07C738.396 42.5363 741.892 46.0323 741.892 50.3587C741.892 51.0579 741.281 51.626 740.581 51.626H723.582C722.883 51.626 722.315 51.0579 722.315 50.3587C722.315 46.0323 725.767 42.5363 730.093 42.5363Z"></path>
<rect fill="url(#paint28_linear_2211_449)" rx="13.386" height="48.8752" width="48.7451" y="-35" x="708.054"></rect>
<rect stroke-width="1.77816" stroke-opacity="0.46" stroke="#010101" rx="12.4969" height="47.097" width="46.9669" y="-34.1109" x="708.943"></rect>
<rect fill="url(#paint29_linear_2211_449)" rx="13.386" height="48.8752" width="48.7451" y="69" x="759"></rect>
<rect stroke-width="1.77816" stroke-opacity="0.46" stroke="#010101" rx="12.4969" height="47.097" width="46.9669" y="69.8891" x="759.889"></rect>
<path fill="white" d="M783.05 92.4386C781.039 92.4386 779.204 91.3898 778.199 89.6418C777.194 87.9374 777.194 85.7961 778.199 84.0481C779.204 82.3437 781.039 81.2512 783.05 81.2512C785.016 81.2512 786.852 82.3437 787.857 84.0481C788.862 85.7961 788.862 87.9374 787.857 89.6418C786.852 91.3898 785.016 92.4386 783.05 92.4386ZM781.039 94.5363H785.016C789.342 94.5363 792.839 98.0323 792.839 102.359C792.839 103.058 792.227 103.626 791.528 103.626H774.528C773.829 103.626 773.261 103.058 773.261 102.359C773.261 98.0323 776.713 94.5363 781.039 94.5363Z"></path>
<rect fill="url(#paint30_linear_2211_449)" rx="13.386" height="48.8752" width="48.7451" y="17" x="759"></rect>
<rect stroke-width="1.77816" stroke-opacity="0.46" stroke="#010101" rx="12.4969" height="47.097" width="46.9669" y="17.8891" x="759.889"></rect>
<path fill="white" d="M783.05 40.4386C781.039 40.4386 779.204 39.3898 778.199 37.6418C777.194 35.9374 777.194 33.7961 778.199 32.0481C779.204 30.3437 781.039 29.2512 783.05 29.2512C785.016 29.2512 786.852 30.3437 787.857 32.0481C788.862 33.7961 788.862 35.9374 787.857 37.6418C786.852 39.3898 785.016 40.4386 783.05 40.4386ZM781.039 42.5363H785.016C789.342 42.5363 792.839 46.0323 792.839 50.3587C792.839 51.0579 792.227 51.626 791.528 51.626H774.528C773.829 51.626 773.261 51.0579 773.261 50.3587C773.261 46.0323 776.713 42.5363 781.039 42.5363Z"></path>
<rect fill="url(#paint31_linear_2211_449)" rx="13.386" height="48.8752" width="48.7451" y="-35" x="759"></rect>
<rect stroke-width="1.77816" stroke-opacity="0.46" stroke="#010101" rx="12.4969" height="47.097" width="46.9669" y="-34.1109" x="759.889"></rect>
<rect fill="url(#paint32_linear_2211_449)" rx="13.386" height="48.8752" width="48.7451" y="17" x="810"></rect>
<rect stroke-width="1.77816" stroke-opacity="0.46" stroke="#010101" rx="12.4969" height="47.097" width="46.9669" y="17.8891" x="810.889"></rect>
<path fill="white" d="M834.05 40.4386C832.039 40.4386 830.204 39.3898 829.199 37.6418C828.194 35.9374 828.194 33.7961 829.199 32.0481C830.204 30.3437 832.039 29.2512 834.05 29.2512C836.016 29.2512 837.852 30.3437 838.857 32.0481C839.862 33.7961 839.862 35.9374 838.857 37.6418C837.852 39.3898 836.016 40.4386 834.05 40.4386ZM832.039 42.5363H836.016C840.342 42.5363 843.839 46.0323 843.839 50.3587C843.839 51.0579 843.227 51.626 842.528 51.626H825.528C824.829 51.626 824.261 51.0579 824.261 50.3587C824.261 46.0323 827.713 42.5363 832.039 42.5363Z"></path>
<rect fill="url(#paint33_linear_2211_449)" rx="13.386" height="48.8752" width="48.7451" y="-35" x="810"></rect>
<rect stroke-width="1.77816" stroke-opacity="0.46" stroke="#010101" rx="12.4969" height="47.097" width="46.9669" y="-34.1109" x="810.889"></rect>
<rect fill="url(#paint34_linear_2211_449)" rx="13.386" height="48.8752" width="48.7451" y="120.385" x="656.799"></rect>
<rect stroke-width="1.77816" stroke-opacity="0.46" stroke="#010101" rx="12.4969" height="47.097" width="46.9669" y="121.274" x="657.688"></rect>
<path fill="white" d="M680.849 143.824C678.838 143.824 677.003 142.775 675.998 141.027C674.993 139.322 674.993 137.181 675.998 135.433C677.003 133.729 678.838 132.636 680.849 132.636C682.815 132.636 684.651 133.729 685.656 135.433C686.661 137.181 686.661 139.322 685.656 141.027C684.651 142.775 682.815 143.824 680.849 143.824ZM678.838 145.921H682.815C687.142 145.921 690.638 149.417 690.638 153.744C690.638 154.443 690.026 155.011 689.327 155.011H672.327C671.628 155.011 671.06 154.443 671.06 153.744C671.06 149.417 674.512 145.921 678.838 145.921Z"></path>
<rect fill="url(#paint35_linear_2211_449)" rx="13.386" height="48.8752" width="48.7451" y="120.385" x="708.054"></rect>
<rect stroke-width="1.77816" stroke-opacity="0.46" stroke="#010101" rx="12.4969" height="47.097" width="46.9669" y="121.274" x="708.943"></rect>
<path fill="white" d="M732.104 143.824C730.093 143.824 728.258 142.775 727.253 141.027C726.248 139.322 726.248 137.181 727.253 135.433C728.258 133.729 730.093 132.636 732.104 132.636C734.07 132.636 735.905 133.729 736.911 135.433C737.916 137.181 737.916 139.322 736.911 141.027C735.905 142.775 734.07 143.824 732.104 143.824ZM730.093 145.921H734.07C738.396 145.921 741.892 149.417 741.892 153.744C741.892 154.443 741.281 155.011 740.581 155.011H723.582C722.883 155.011 722.315 154.443 722.315 153.744C722.315 149.417 725.767 145.921 730.093 145.921Z"></path>
<rect stroke-width="2.91792" stroke="url(#paint36_linear_2211_449)" fill-opacity="0.46" fill="#010101" rx="20.5071" height="94.0821" width="92.438" y="335.459" x="587.781"></rect>
<path fill="white" d="M650.064 369.61V373.052C650.064 376.279 642.821 378.789 634 378.789C625.108 378.789 617.937 376.279 617.937 373.052V369.61C617.937 366.455 625.108 363.873 634 363.873C642.821 363.873 650.064 366.455 650.064 369.61ZM646.119 379.291C647.625 378.789 648.988 378.072 650.064 377.283V384.526C650.064 387.753 642.821 390.263 634 390.263C625.108 390.263 617.937 387.753 617.937 384.526V377.283C618.941 378.072 620.375 378.789 621.809 379.291C625.036 380.438 629.339 381.084 634 381.084C638.59 381.084 642.892 380.438 646.119 379.291ZM617.937 388.757C618.941 389.546 620.375 390.263 621.809 390.765C625.036 391.912 629.339 392.558 634 392.558C638.59 392.558 642.892 391.912 646.119 390.765C647.625 390.263 648.988 389.546 650.064 388.757V394.853C650.064 398.08 642.821 400.59 634 400.59C625.108 400.59 617.937 398.08 617.937 394.853V388.757Z"></path>
</g>
<defs>
<filter color-interpolation-filters="sRGB" filterUnits="userSpaceOnUse" height="293.274" width="470.333" y="132.063" x="28.1762" id="filter0_ddddd_2211_449">
<feFlood result="BackgroundImageFix" flood-opacity="0"></feFlood>
<feColorMatrix result="hardAlpha" values="0 0 0 0 0 0 0 0 0 0 0 0 0 0 0 0 0 0 127 0" type="matrix" in="SourceAlpha"></feColorMatrix>
<feOffset dy="2.29041"></feOffset>
<feGaussianBlur stdDeviation="0.916165"></feGaussianBlur>
<feColorMatrix values="0 0 0 0 0 0 0 0 0 0 0 0 0 0 0 0 0 0 0.129327 0" type="matrix"></feColorMatrix>
<feBlend result="effect1_dropShadow_2211_449" in2="BackgroundImageFix" mode="normal"></feBlend>
<feColorMatrix result="hardAlpha" values="0 0 0 0 0 0 0 0 0 0 0 0 0 0 0 0 0 0 127 0" type="matrix" in="SourceAlpha"></feColorMatrix>
<feOffset dy="5.50418"></feOffset>
<feGaussianBlur stdDeviation="2.20167"></feGaussianBlur>
<feColorMatrix values="0 0 0 0 0 0 0 0 0 0 0 0 0 0 0 0 0 0 0.185791 0" type="matrix"></feColorMatrix>
<feBlend result="effect2_dropShadow_2211_449" in2="effect1_dropShadow_2211_449" mode="normal"></feBlend>
<feColorMatrix result="hardAlpha" values="0 0 0 0 0 0 0 0 0 0 0 0 0 0 0 0 0 0 127 0" type="matrix" in="SourceAlpha"></feColorMatrix>
<feOffset dy="10.3639"></feOffset>
<feGaussianBlur stdDeviation="4.14555"></feGaussianBlur>
<feColorMatrix values="0 0 0 0 0 0 0 0 0 0 0 0 0 0 0 0 0 0 0.23 0" type="matrix"></feColorMatrix>
<feBlend result="effect3_dropShadow_2211_449" in2="effect2_dropShadow_2211_449" mode="normal"></feBlend>
<feColorMatrix result="hardAlpha" values="0 0 0 0 0 0 0 0 0 0 0 0 0 0 0 0 0 0 127 0" type="matrix" in="SourceAlpha"></feColorMatrix>
<feOffset dy="18.4874"></feOffset>
<feGaussianBlur stdDeviation="7.39496"></feGaussianBlur>
<feColorMatrix values="0 0 0 0 0 0 0 0 0 0 0 0 0 0 0 0 0 0 0.274209 0" type="matrix"></feColorMatrix>
<feBlend result="effect4_dropShadow_2211_449" in2="effect3_dropShadow_2211_449" mode="normal"></feBlend>
<feColorMatrix result="hardAlpha" values="0 0 0 0 0 0 0 0 0 0 0 0 0 0 0 0 0 0 127 0" type="matrix" in="SourceAlpha"></feColorMatrix>
<feOffset dy="34.5786"></feOffset>
<feGaussianBlur stdDeviation="13.8314"></feGaussianBlur>
<feColorMatrix values="0 0 0 0 0 0 0 0 0 0 0 0 0 0 0 0 0 0 0.330673 0" type="matrix"></feColorMatrix>
<feBlend result="effect5_dropShadow_2211_449" in2="effect4_dropShadow_2211_449" mode="normal"></feBlend>
<feBlend result="shape" in2="effect5_dropShadow_2211_449" in="SourceGraphic" mode="normal"></feBlend>
</filter>
<filter color-interpolation-filters="sRGB" filterUnits="userSpaceOnUse" height="72.0659" width="52.6255" y="219" x="609" id="filter1_dd_2211_449">
<feFlood result="BackgroundImageFix" flood-opacity="0"></feFlood>
<feColorMatrix result="hardAlpha" values="0 0 0 0 0 0 0 0 0 0 0 0 0 0 0 0 0 0 127 0" type="matrix" in="SourceAlpha"></feColorMatrix>
<feOffset dy="5"></feOffset>
<feGaussianBlur stdDeviation="1.5"></feGaussianBlur>
<feColorMatrix values="0 0 0 0 0.0901961 0 0 0 0 0.168627 0 0 0 0 0.301961 0 0 0 0.08 0" type="matrix"></feColorMatrix>
<feBlend result="effect1_dropShadow_2211_449" in2="BackgroundImageFix" mode="normal"></feBlend>
<feColorMatrix result="hardAlpha" values="0 0 0 0 0 0 0 0 0 0 0 0 0 0 0 0 0 0 127 0" type="matrix" in="SourceAlpha"></feColorMatrix>
<feOffset dy="3"></feOffset>
<feGaussianBlur stdDeviation="1"></feGaussianBlur>
<feColorMatrix values="0 0 0 0 0.0901961 0 0 0 0 0.168627 0 0 0 0 0.301961 0 0 0 0.04 0" type="matrix"></feColorMatrix>
<feBlend result="effect2_dropShadow_2211_449" in2="effect1_dropShadow_2211_449" mode="normal"></feBlend>
<feBlend result="shape" in2="effect2_dropShadow_2211_449" in="SourceGraphic" mode="normal"></feBlend>
</filter>
<linearGradient gradientUnits="userSpaceOnUse" y2="474" x2="422" y1="0" x1="422" id="paint0_linear_2211_449">
<stop stop-color="#090A15"></stop>
<stop stop-color="#0D3A38" offset="0.955752"></stop>
</linearGradient>
<radialGradient gradientTransform="translate(422 355.876) rotate(90) scale(529.676 495.147)" gradientUnits="userSpaceOnUse" r="1" cy="0" cx="0" id="paint1_radial_2211_449">
<stop stop-opacity="0.11" stop-color="#71E8DF"></stop>
<stop stop-opacity="0" stop-color="#71E8DF" offset="1"></stop>
</radialGradient>
<radialGradient gradientTransform="translate(422 458.5) rotate(90) scale(300 534.177)" gradientUnits="userSpaceOnUse" r="1" cy="0" cx="0" id="paint2_radial_2211_449">
<stop stop-color="#71E8DF"></stop>
<stop stop-opacity="0" stop-color="#71E8DF" offset="1"></stop>
</radialGradient>
<linearGradient gradientUnits="userSpaceOnUse" y2="158.872" x2="608.866" y1="160.809" x1="607.3" id="paint3_linear_2211_449">
<stop stop-color="#2E9186"></stop>
<stop stop-color="#026C61" offset="1"></stop>
</linearGradient>
<linearGradient gradientUnits="userSpaceOnUse" y2="158.872" x2="655.933" y1="160.809" x1="657.499" id="paint4_linear_2211_449">
<stop stop-color="#2E9186"></stop>
<stop stop-color="#026C61" offset="1"></stop>
</linearGradient>
<linearGradient gradientUnits="userSpaceOnUse" y2="255.36" x2="496.84" y1="248.052" x1="500.609" id="paint5_linear_2211_449">
<stop stop-color="#2E9186"></stop>
<stop stop-color="#026C61" offset="1"></stop>
</linearGradient>
<linearGradient gradientUnits="userSpaceOnUse" y2="127.792" x2="526.171" y1="67.9188" x1="529.383" id="paint6_linear_2211_449">
<stop stop-color="#16A394"></stop>
<stop stop-color="#71E8DF" offset="1"></stop>
</linearGradient>
<linearGradient gradientUnits="userSpaceOnUse" y2="75.7923" x2="526.171" y1="15.9188" x1="529.383" id="paint7_linear_2211_449">
<stop stop-color="#16A394"></stop>
<stop stop-color="#71E8DF" offset="1"></stop>
</linearGradient>
<linearGradient gradientUnits="userSpaceOnUse" y2="23.7923" x2="526.171" y1="-36.0812" x1="529.383" id="paint8_linear_2211_449">
<stop stop-color="#16A394"></stop>
<stop stop-color="#71E8DF" offset="1"></stop>
</linearGradient>
<linearGradient gradientUnits="userSpaceOnUse" y2="127.792" x2="474.171" y1="67.9188" x1="477.383" id="paint9_linear_2211_449">
<stop stop-color="#16A394"></stop>
<stop stop-color="#71E8DF" offset="1"></stop>
</linearGradient>
<linearGradient gradientUnits="userSpaceOnUse" y2="75.7923" x2="474.171" y1="15.9188" x1="477.383" id="paint10_linear_2211_449">
<stop stop-color="#16A394"></stop>
<stop stop-color="#71E8DF" offset="1"></stop>
</linearGradient>
<linearGradient gradientUnits="userSpaceOnUse" y2="23.7923" x2="474.171" y1="-36.0812" x1="477.383" id="paint11_linear_2211_449">
<stop stop-color="#16A394"></stop>
<stop stop-color="#71E8DF" offset="1"></stop>
</linearGradient>
<linearGradient gradientUnits="userSpaceOnUse" y2="75.7923" x2="422.171" y1="15.9188" x1="425.383" id="paint12_linear_2211_449">
<stop stop-color="#16A394"></stop>
<stop stop-color="#71E8DF" offset="1"></stop>
</linearGradient>
<linearGradient gradientUnits="userSpaceOnUse" y2="23.7923" x2="422.171" y1="-36.0812" x1="425.383" id="paint13_linear_2211_449">
<stop stop-color="#16A394"></stop>
<stop stop-color="#71E8DF" offset="1"></stop>
</linearGradient>
<linearGradient gradientUnits="userSpaceOnUse" y2="23.7923" x2="370.171" y1="-36.0812" x1="373.383" id="paint14_linear_2211_449">
<stop stop-color="#16A394"></stop>
<stop stop-color="#71E8DF" offset="1"></stop>
</linearGradient>
<linearGradient gradientUnits="userSpaceOnUse" y2="127.792" x2="577.426" y1="67.9188" x1="580.638" id="paint15_linear_2211_449">
<stop stop-color="#16A394"></stop>
<stop stop-color="#71E8DF" offset="1"></stop>
</linearGradient>
<linearGradient gradientUnits="userSpaceOnUse" y2="75.7923" x2="577.426" y1="15.9188" x1="580.638" id="paint16_linear_2211_449">
<stop stop-color="#16A394"></stop>
<stop stop-color="#71E8DF" offset="1"></stop>
</linearGradient>
<linearGradient gradientUnits="userSpaceOnUse" y2="23.7923" x2="577.426" y1="-36.0812" x1="580.638" id="paint17_linear_2211_449">
<stop stop-color="#16A394"></stop>
<stop stop-color="#71E8DF" offset="1"></stop>
</linearGradient>
<linearGradient gradientUnits="userSpaceOnUse" y2="179.177" x2="526.171" y1="119.304" x1="529.383" id="paint18_linear_2211_449">
<stop stop-color="#16A394"></stop>
<stop stop-color="#71E8DF" offset="1"></stop>
</linearGradient>
<linearGradient gradientUnits="userSpaceOnUse" y2="179.177" x2="577.426" y1="119.304" x1="580.638" id="paint19_linear_2211_449">
<stop stop-color="#16A394"></stop>
<stop stop-color="#71E8DF" offset="1"></stop>
</linearGradient>
<linearGradient gradientUnits="userSpaceOnUse" y2="238.472" x2="649.226" y1="215.175" x1="642.555" id="paint20_linear_2211_449">
<stop stop-color="#187367"></stop>
<stop stop-color="#187367" offset="0.980769"></stop>
</linearGradient>
<linearGradient gradientUnits="userSpaceOnUse" y2="236.234" x2="668.589" y1="333.132" x1="586.953" id="paint21_linear_2211_449">
<stop stop-color="#F7FAFC"></stop>
<stop stop-color="#EDF2F7" offset="0.88298"></stop>
<stop stop-color="#CBD5E0" offset="1"></stop>
</linearGradient>
<linearGradient gradientUnits="userSpaceOnUse" y2="264.542" x2="634.883" y1="236.253" x1="628.532" id="paint22_linear_2211_449">
<stop stop-color="#187367"></stop>
<stop stop-color="#187367" offset="0.980769"></stop>
</linearGradient>
<linearGradient gradientUnits="userSpaceOnUse" y2="127.792" x2="674.971" y1="67.9188" x1="678.183" id="paint23_linear_2211_449">
<stop stop-color="#1689A3"></stop>
<stop stop-color="#71BCE8" offset="1"></stop>
</linearGradient>
<linearGradient gradientUnits="userSpaceOnUse" y2="75.7923" x2="674.971" y1="15.9188" x1="678.183" id="paint24_linear_2211_449">
<stop stop-color="#1689A3"></stop>
<stop stop-color="#71BCE8" offset="1"></stop>
</linearGradient>
<linearGradient gradientUnits="userSpaceOnUse" y2="23.7923" x2="674.971" y1="-36.0812" x1="678.183" id="paint25_linear_2211_449">
<stop stop-color="#1689A3"></stop>
<stop stop-color="#71BCE8" offset="1"></stop>
</linearGradient>
<linearGradient gradientUnits="userSpaceOnUse" y2="127.792" x2="726.225" y1="67.9188" x1="729.437" id="paint26_linear_2211_449">
<stop stop-color="#1689A3"></stop>
<stop stop-color="#71BCE8" offset="1"></stop>
</linearGradient>
<linearGradient gradientUnits="userSpaceOnUse" y2="75.7923" x2="726.225" y1="15.9188" x1="729.437" id="paint27_linear_2211_449">
<stop stop-color="#1689A3"></stop>
<stop stop-color="#71BCE8" offset="1"></stop>
</linearGradient>
<linearGradient gradientUnits="userSpaceOnUse" y2="23.7923" x2="726.225" y1="-36.0812" x1="729.437" id="paint28_linear_2211_449">
<stop stop-color="#1689A3"></stop>
<stop stop-color="#71BCE8" offset="1"></stop>
</linearGradient>
<linearGradient gradientUnits="userSpaceOnUse" y2="127.792" x2="777.171" y1="67.9188" x1="780.383" id="paint29_linear_2211_449">
<stop stop-color="#1689A3"></stop>
<stop stop-color="#71BCE8" offset="1"></stop>
</linearGradient>
<linearGradient gradientUnits="userSpaceOnUse" y2="75.7923" x2="777.171" y1="15.9188" x1="780.383" id="paint30_linear_2211_449">
<stop stop-color="#1689A3"></stop>
<stop stop-color="#71BCE8" offset="1"></stop>
</linearGradient>
<linearGradient gradientUnits="userSpaceOnUse" y2="23.7923" x2="777.171" y1="-36.0812" x1="780.383" id="paint31_linear_2211_449">
<stop stop-color="#1689A3"></stop>
<stop stop-color="#71BCE8" offset="1"></stop>
</linearGradient>
<linearGradient gradientUnits="userSpaceOnUse" y2="75.7923" x2="828.171" y1="15.9188" x1="831.383" id="paint32_linear_2211_449">
<stop stop-color="#1689A3"></stop>
<stop stop-color="#71BCE8" offset="1"></stop>
</linearGradient>
<linearGradient gradientUnits="userSpaceOnUse" y2="23.7923" x2="828.171" y1="-36.0812" x1="831.383" id="paint33_linear_2211_449">
<stop stop-color="#1689A3"></stop>
<stop stop-color="#71BCE8" offset="1"></stop>
</linearGradient>
<linearGradient gradientUnits="userSpaceOnUse" y2="179.177" x2="674.971" y1="119.304" x1="678.183" id="paint34_linear_2211_449">
<stop stop-color="#1689A3"></stop>
<stop stop-color="#71BCE8" offset="1"></stop>
</linearGradient>
<linearGradient gradientUnits="userSpaceOnUse" y2="179.177" x2="726.225" y1="119.304" x1="729.437" id="paint35_linear_2211_449">
<stop stop-color="#1689A3"></stop>
<stop stop-color="#71BCE8" offset="1"></stop>
</linearGradient>
<linearGradient gradientUnits="userSpaceOnUse" y2="450.672" x2="621.686" y1="331.854" x1="628.153" id="paint36_linear_2211_449">
<stop stop-color="#16A394"></stop>
<stop stop-color="#71E8DF" offset="1"></stop>
</linearGradient>
<clipPath id="clip0_2211_449">
<rect fill="white" height="474" width="844"></rect>
</clipPath>
</defs>
</svg>
