<svg xmlns="http://www.w3.org/2000/svg" fill="none" viewBox="0 0 844 474" height="474" width="844">
<g clip-path="url(#clip0_10142_187945)">
<rect fill="url(#paint0_linear_10142_187945)" height="474" width="844"></rect>
<rect fill="url(#paint1_radial_10142_187945)" height="474" width="844"></rect>
<rect fill-opacity="0.2" fill="url(#paint2_radial_10142_187945)" height="474" width="844"></rect>
<g filter="url(#filter0_d_10142_187945)" opacity="0.8">
<g clip-path="url(#clip1_10142_187945)">
<rect fill="#090A15" rx="8" height="256" width="207" y="185" x="466"></rect>
<rect fill="#090A15" height="32" width="143" y="185" x="498"></rect>
<rect stroke-width="2" stroke="#2D3748" height="32" width="143" y="185" x="498"></rect>
<rect fill="#2D3748" rx="4" height="8" width="127" y="197" x="506"></rect>
<rect fill="#090A15" height="32" width="207" y="217" x="466"></rect>
<rect stroke-width="2" stroke="#2D3748" height="32" width="207" y="217" x="466"></rect>
<rect fill="#2D3748" rx="4" height="8" width="191" y="229" x="474"></rect>
<rect fill="#090A15" height="32" width="207" y="249" x="466"></rect>
<rect stroke-width="2" stroke="#2D3748" height="32" width="207" y="249" x="466"></rect>
<rect fill="#2D3748" rx="4" height="8" width="191" y="261" x="474"></rect>
<rect fill="#090A15" height="32" width="207" y="281" x="466"></rect>
<rect stroke-width="2" stroke="#2D3748" height="32" width="207" y="281" x="466"></rect>
<rect fill="#2D3748" rx="4" height="8" width="191" y="293" x="474"></rect>
<rect fill="#090A15" height="32" width="207" y="313" x="466"></rect>
<rect stroke-width="2" stroke="#2D3748" height="32" width="207" y="313" x="466"></rect>
<rect fill="#2D3748" rx="4" height="8" width="151" y="325" x="474"></rect>
<rect fill="#090A15" height="32" width="207" y="345" x="466"></rect>
<rect stroke-width="2" stroke="#2D3748" height="32" width="207" y="345" x="466"></rect>
<rect fill="#2D3748" rx="4" height="8" width="79" y="357" x="474"></rect>
<rect fill="#090A15" height="32" width="207" y="377" x="466"></rect>
<rect stroke-width="2" stroke="#2D3748" height="32" width="207" y="377" x="466"></rect>
<rect fill="#2D3748" rx="4" height="8" width="191" y="389" x="474"></rect>
<rect fill="#090A15" height="32" width="207" y="409" x="466"></rect>
<rect stroke-width="2" stroke="#2D3748" height="32" width="207" y="409" x="466"></rect>
<rect fill="#2D3748" rx="4" height="8" width="191" y="421" x="474"></rect>
<rect fill="#090A15" height="32" width="32" y="185" x="641"></rect>
<rect stroke-width="2" stroke="#2D3748" height="32" width="32" y="185" x="641"></rect>
<rect fill="#2D3748" rx="4" height="8" width="16" y="197" x="649"></rect>
<rect fill="#090A15" height="32" width="32" y="185" x="466"></rect>
<rect stroke-width="2" stroke="#2D3748" height="32" width="32" y="185" x="466"></rect>
<rect fill="#2D3748" rx="4" height="8" width="16" y="197" x="474"></rect>
</g>
<rect stroke-width="2" stroke="#2D3748" rx="8" height="256" width="207" y="185" x="466"></rect>
</g>
<g filter="url(#filter1_dddddd_10142_187945)">
<path fill="white" d="M84.056 141C83.8729 141 83.7082 140.945 83.5617 140.835C83.4519 140.689 83.397 140.524 83.397 140.341V103.219C83.397 103.036 83.4519 102.89 83.5617 102.78C83.7082 102.633 83.8729 102.56 84.056 102.56H97.7844C100.53 102.56 102.928 103.054 104.978 104.043C107.065 104.995 108.676 106.349 109.811 108.107C110.945 109.864 111.513 111.896 111.513 114.202V129.358C111.513 131.665 110.945 133.696 109.811 135.454C108.676 137.211 107.065 138.584 104.978 139.572C102.928 140.524 100.53 141 97.7844 141H84.056ZM91.1399 134.081C91.1399 134.264 91.2314 134.355 91.4144 134.355H98.059C99.743 134.355 101.098 133.788 102.123 132.653C103.184 131.518 103.733 129.999 103.77 128.095V115.465C103.77 113.561 103.239 112.042 102.178 110.907C101.152 109.772 99.7613 109.205 98.0041 109.205H91.4144C91.2314 109.205 91.1399 109.296 91.1399 109.479V134.081ZM140.736 123.977C140.956 125.368 141.029 126.924 140.956 128.644C140.919 129.084 140.681 129.303 140.242 129.303H123.273C123.054 129.303 122.981 129.395 123.054 129.578C123.164 130.31 123.365 131.042 123.658 131.774C124.61 133.825 126.55 134.85 129.479 134.85C131.822 134.813 133.671 133.861 135.025 131.994C135.172 131.774 135.336 131.665 135.519 131.665C135.629 131.665 135.757 131.738 135.904 131.884L139.857 135.783C140.041 135.966 140.132 136.131 140.132 136.277C140.132 136.351 140.059 136.497 139.912 136.717C138.704 138.218 137.148 139.389 135.245 140.231C133.341 141.037 131.254 141.439 128.985 141.439C125.836 141.439 123.164 140.725 120.967 139.298C118.807 137.87 117.251 135.875 116.299 133.312C115.531 131.482 115.146 129.084 115.146 126.118C115.146 124.105 115.421 122.329 115.97 120.792C116.812 118.192 118.276 116.124 120.363 114.586C122.486 113.049 124.994 112.28 127.886 112.28C131.547 112.28 134.476 113.342 136.672 115.465C138.906 117.588 140.26 120.426 140.736 123.977ZM127.941 118.98C125.635 118.98 124.116 120.059 123.383 122.219C123.237 122.695 123.109 123.281 122.999 123.977C122.999 124.16 123.09 124.251 123.273 124.251H132.774C132.993 124.251 133.066 124.16 132.993 123.977C132.81 122.915 132.719 122.402 132.719 122.439C132.389 121.341 131.803 120.499 130.961 119.913C130.156 119.291 129.149 118.98 127.941 118.98ZM175.93 112.335C178.786 112.335 181.019 113.195 182.63 114.916C184.241 116.637 185.046 119.053 185.046 122.165V140.341C185.046 140.524 184.973 140.689 184.826 140.835C184.717 140.945 184.57 141 184.387 141H177.962C177.779 141 177.614 140.945 177.468 140.835C177.358 140.689 177.303 140.524 177.303 140.341V123.867C177.303 122.366 176.919 121.176 176.15 120.297C175.381 119.419 174.356 118.98 173.075 118.98C171.794 118.98 170.75 119.419 169.945 120.297C169.139 121.176 168.737 122.348 168.737 123.812V140.341C168.737 140.524 168.663 140.689 168.517 140.835C168.407 140.945 168.261 141 168.078 141H161.708C161.525 141 161.36 140.945 161.213 140.835C161.104 140.689 161.049 140.524 161.049 140.341V123.867C161.049 122.402 160.646 121.231 159.841 120.352C159.035 119.437 157.992 118.98 156.71 118.98C155.539 118.98 154.551 119.327 153.745 120.023C152.976 120.718 152.519 121.689 152.372 122.933V140.341C152.372 140.524 152.299 140.689 152.153 140.835C152.043 140.945 151.896 141 151.713 141H145.288C145.105 141 144.941 140.945 144.794 140.835C144.684 140.689 144.629 140.524 144.629 140.341V113.433C144.629 113.25 144.684 113.104 144.794 112.994C144.941 112.847 145.105 112.774 145.288 112.774H151.713C151.896 112.774 152.043 112.847 152.153 112.994C152.299 113.104 152.372 113.25 152.372 113.433V115.575C152.372 115.685 152.409 115.758 152.482 115.795C152.555 115.831 152.629 115.795 152.702 115.685C154.203 113.452 156.527 112.335 159.676 112.335C161.506 112.335 163.099 112.719 164.453 113.488C165.844 114.257 166.906 115.355 167.638 116.783C167.748 117.003 167.876 117.003 168.023 116.783C168.828 115.282 169.908 114.165 171.263 113.433C172.654 112.701 174.21 112.335 175.93 112.335ZM187.984 151.928C187.874 151.928 187.783 151.855 187.709 151.708C187.636 151.598 187.6 151.452 187.6 151.269V146.217C187.6 146.034 187.654 145.869 187.764 145.723C187.911 145.613 188.075 145.558 188.259 145.558C189.796 145.521 191.004 145.393 191.883 145.173C192.798 144.954 193.512 144.533 194.024 143.91C194.574 143.288 194.995 142.373 195.288 141.165C195.324 141.092 195.324 140.982 195.288 140.835L186.282 113.488C186.245 113.415 186.227 113.323 186.227 113.214C186.227 112.884 186.428 112.719 186.831 112.719H193.695C194.098 112.719 194.354 112.902 194.464 113.268L199.077 131.061C199.113 131.17 199.168 131.225 199.241 131.225C199.315 131.225 199.369 131.17 199.406 131.061L204.019 113.268C204.129 112.902 204.385 112.719 204.788 112.719H211.487C211.707 112.719 211.853 112.793 211.926 112.939C212.036 113.049 212.055 113.232 211.981 113.488L202.481 142.043C201.566 144.716 200.632 146.711 199.681 148.029C198.729 149.384 197.393 150.372 195.672 150.994C193.951 151.617 191.517 151.928 188.368 151.928H187.984ZM223.995 141.384C221.542 141.384 219.401 141.037 217.57 140.341C215.74 139.645 214.312 138.675 213.287 137.431C212.298 136.186 211.804 134.776 211.804 133.202V132.653C211.804 132.47 211.859 132.324 211.969 132.214C212.115 132.067 212.28 131.994 212.463 131.994H218.559C218.742 131.994 218.888 132.067 218.998 132.214C219.144 132.324 219.218 132.47 219.218 132.653V132.708C219.218 133.513 219.657 134.209 220.535 134.795C221.451 135.344 222.586 135.618 223.94 135.618C225.185 135.618 226.192 135.38 226.96 134.905C227.729 134.392 228.114 133.77 228.114 133.037C228.114 132.379 227.784 131.884 227.125 131.555C226.466 131.225 225.386 130.878 223.885 130.511C222.165 130.072 220.81 129.651 219.822 129.248C217.479 128.443 215.612 127.455 214.22 126.283C212.829 125.112 212.134 123.428 212.134 121.231C212.134 118.522 213.177 116.38 215.264 114.806C217.387 113.195 220.188 112.39 223.666 112.39C226.009 112.39 228.059 112.774 229.816 113.543C231.573 114.275 232.928 115.319 233.88 116.673C234.868 118.028 235.362 119.565 235.362 121.286C235.362 121.469 235.289 121.634 235.143 121.78C235.033 121.89 234.886 121.945 234.703 121.945H228.827C228.644 121.945 228.48 121.89 228.333 121.78C228.223 121.634 228.169 121.469 228.169 121.286C228.169 120.481 227.747 119.803 226.905 119.254C226.1 118.705 225.02 118.43 223.666 118.43C222.457 118.43 221.469 118.65 220.7 119.089C219.931 119.529 219.547 120.133 219.547 120.902C219.547 121.634 219.913 122.183 220.645 122.549C221.414 122.915 222.677 123.299 224.434 123.702C224.837 123.812 225.295 123.94 225.807 124.087C226.32 124.196 226.869 124.343 227.455 124.526C230.054 125.295 232.104 126.283 233.605 127.491C235.106 128.699 235.856 130.457 235.856 132.763C235.856 135.472 234.776 137.595 232.617 139.133C230.493 140.634 227.619 141.384 223.995 141.384ZM255.35 118.321C255.35 118.504 255.276 118.668 255.13 118.815C255.02 118.925 254.874 118.98 254.691 118.98H249.419C249.236 118.98 249.144 119.071 249.144 119.254V130.896C249.144 132.104 249.382 133.001 249.858 133.587C250.371 134.172 251.176 134.465 252.274 134.465H254.087C254.27 134.465 254.416 134.538 254.526 134.685C254.672 134.795 254.746 134.941 254.746 135.124V140.341C254.746 140.744 254.526 140.982 254.087 141.055C252.549 141.128 251.451 141.165 250.792 141.165C247.753 141.165 245.483 140.671 243.982 139.682C242.481 138.657 241.713 136.753 241.676 133.971V119.254C241.676 119.071 241.585 118.98 241.401 118.98H238.271C238.088 118.98 237.924 118.925 237.777 118.815C237.667 118.668 237.612 118.504 237.612 118.321V113.433C237.612 113.25 237.667 113.104 237.777 112.994C237.924 112.847 238.088 112.774 238.271 112.774H241.401C241.585 112.774 241.676 112.683 241.676 112.5V105.965C241.676 105.782 241.731 105.635 241.841 105.526C241.987 105.379 242.152 105.306 242.335 105.306H248.485C248.668 105.306 248.815 105.379 248.925 105.526C249.071 105.635 249.144 105.782 249.144 105.965V112.5C249.144 112.683 249.236 112.774 249.419 112.774H254.691C254.874 112.774 255.02 112.847 255.13 112.994C255.276 113.104 255.35 113.25 255.35 113.433V118.321ZM263.086 109.589C261.841 109.589 260.798 109.187 259.956 108.381C259.151 107.539 258.748 106.496 258.748 105.251C258.748 103.97 259.151 102.926 259.956 102.121C260.761 101.316 261.805 100.913 263.086 100.913C264.367 100.913 265.411 101.316 266.216 102.121C267.022 102.926 267.424 103.97 267.424 105.251C267.424 106.496 267.003 107.539 266.161 108.381C265.356 109.187 264.331 109.589 263.086 109.589ZM259.791 141C259.608 141 259.443 140.945 259.297 140.835C259.187 140.689 259.132 140.524 259.132 140.341V113.378C259.132 113.195 259.187 113.049 259.297 112.939C259.443 112.793 259.608 112.719 259.791 112.719H266.216C266.399 112.719 266.546 112.793 266.655 112.939C266.802 113.049 266.875 113.195 266.875 113.378V140.341C266.875 140.524 266.802 140.689 266.655 140.835C266.546 140.945 266.399 141 266.216 141H259.791ZM287.901 112.719C288.084 112.719 288.23 112.793 288.34 112.939C288.486 113.049 288.56 113.195 288.56 113.378V118.595C288.56 118.778 288.486 118.943 288.34 119.089C288.23 119.199 288.084 119.254 287.901 119.254H282.574C282.391 119.254 282.299 119.346 282.299 119.529V140.341C282.299 140.524 282.226 140.689 282.08 140.835C281.97 140.945 281.824 141 281.64 141H275.216C275.033 141 274.868 140.945 274.721 140.835C274.612 140.689 274.557 140.524 274.557 140.341V119.529C274.557 119.346 274.465 119.254 274.282 119.254H271.042C270.859 119.254 270.694 119.199 270.548 119.089C270.438 118.943 270.383 118.778 270.383 118.595V113.378C270.383 113.195 270.438 113.049 270.548 112.939C270.694 112.793 270.859 112.719 271.042 112.719H274.282C274.465 112.719 274.557 112.628 274.557 112.445V111.237C274.557 108.967 274.904 107.21 275.6 105.965C276.296 104.684 277.412 103.787 278.95 103.274C280.524 102.725 282.684 102.487 285.43 102.56H287.516C287.699 102.56 287.846 102.633 287.956 102.78C288.102 102.89 288.175 103.036 288.175 103.219V107.667C288.175 107.85 288.102 108.015 287.956 108.161C287.846 108.271 287.699 108.326 287.516 108.326H285.704C284.423 108.363 283.526 108.637 283.013 109.15C282.537 109.626 282.299 110.523 282.299 111.841V112.445C282.299 112.628 282.391 112.719 282.574 112.719H287.901ZM291.784 151.928C291.674 151.928 291.583 151.855 291.51 151.708C291.436 151.598 291.4 151.452 291.4 151.269V146.217C291.4 146.034 291.455 145.869 291.564 145.723C291.711 145.613 291.876 145.558 292.059 145.558C293.596 145.521 294.804 145.393 295.683 145.173C296.598 144.954 297.312 144.533 297.825 143.91C298.374 143.288 298.795 142.373 299.088 141.165C299.124 141.092 299.124 140.982 299.088 140.835L290.082 113.488C290.045 113.415 290.027 113.323 290.027 113.214C290.027 112.884 290.228 112.719 290.631 112.719H297.495C297.898 112.719 298.154 112.902 298.264 113.268L302.877 131.061C302.913 131.17 302.968 131.225 303.041 131.225C303.115 131.225 303.17 131.17 303.206 131.061L307.819 113.268C307.929 112.902 308.185 112.719 308.588 112.719H315.287C315.507 112.719 315.653 112.793 315.727 112.939C315.836 113.049 315.855 113.232 315.781 113.488L306.281 142.043C305.366 144.716 304.433 146.711 303.481 148.029C302.529 149.384 301.193 150.372 299.472 150.994C297.751 151.617 295.317 151.928 292.169 151.928H291.784ZM322.695 109.589C321.451 109.589 320.407 109.187 319.565 108.381C318.76 107.539 318.357 106.496 318.357 105.251C318.357 103.97 318.76 102.926 319.565 102.121C320.371 101.316 321.414 100.913 322.695 100.913C323.977 100.913 325.02 101.316 325.826 102.121C326.631 102.926 327.034 103.97 327.034 105.251C327.034 106.496 326.613 107.539 325.771 108.381C324.965 109.187 323.94 109.589 322.695 109.589ZM319.401 141C319.218 141 319.053 140.945 318.906 140.835C318.797 140.689 318.742 140.524 318.742 140.341V113.378C318.742 113.195 318.797 113.049 318.906 112.939C319.053 112.793 319.218 112.719 319.401 112.719H325.826C326.009 112.719 326.155 112.793 326.265 112.939C326.411 113.049 326.485 113.195 326.485 113.378V140.341C326.485 140.524 326.411 140.689 326.265 140.835C326.155 140.945 326.009 141 325.826 141H319.401ZM346.137 112.335C349.066 112.335 351.427 113.232 353.221 115.026C355.015 116.82 355.912 119.254 355.912 122.329V140.341C355.912 140.524 355.839 140.689 355.692 140.835C355.582 140.945 355.436 141 355.253 141H348.828C348.645 141 348.48 140.945 348.334 140.835C348.224 140.689 348.169 140.524 348.169 140.341V123.922C348.169 122.457 347.748 121.268 346.906 120.352C346.101 119.437 345.021 118.98 343.666 118.98C342.312 118.98 341.213 119.437 340.371 120.352C339.566 121.268 339.163 122.457 339.163 123.922V140.341C339.163 140.524 339.09 140.689 338.944 140.835C338.834 140.945 338.687 141 338.504 141H332.079C331.896 141 331.732 140.945 331.585 140.835C331.475 140.689 331.42 140.524 331.42 140.341V113.433C331.42 113.25 331.475 113.104 331.585 112.994C331.732 112.847 331.896 112.774 332.079 112.774H338.504C338.687 112.774 338.834 112.847 338.944 112.994C339.09 113.104 339.163 113.25 339.163 113.433V115.355C339.163 115.465 339.2 115.538 339.273 115.575C339.346 115.611 339.401 115.593 339.438 115.52C340.939 113.397 343.172 112.335 346.137 112.335ZM377.596 113.433C377.596 113.25 377.651 113.104 377.761 112.994C377.907 112.847 378.072 112.774 378.255 112.774H384.68C384.863 112.774 385.009 112.847 385.119 112.994C385.266 113.104 385.339 113.25 385.339 113.433V138.474C385.339 143.27 383.948 146.693 381.166 148.743C378.42 150.793 374.869 151.818 370.512 151.818C369.231 151.818 367.803 151.727 366.229 151.543C365.863 151.507 365.68 151.269 365.68 150.83L365.899 145.173C365.899 144.698 366.156 144.496 366.668 144.569C367.986 144.789 369.194 144.899 370.293 144.899C372.636 144.899 374.429 144.386 375.674 143.361C376.955 142.336 377.596 140.689 377.596 138.419C377.596 138.309 377.56 138.254 377.486 138.254C377.413 138.218 377.34 138.236 377.267 138.309C375.875 139.81 373.844 140.561 371.171 140.561C368.792 140.561 366.595 139.993 364.582 138.858C362.605 137.687 361.195 135.82 360.353 133.257C359.804 131.573 359.529 129.395 359.529 126.722C359.529 123.867 359.859 121.542 360.518 119.748C361.287 117.515 362.586 115.721 364.417 114.367C366.247 113.012 368.371 112.335 370.787 112.335C373.606 112.335 375.766 113.177 377.267 114.861C377.34 114.934 377.413 114.971 377.486 114.971C377.56 114.934 377.596 114.861 377.596 114.751V113.433ZM377.157 131.17C377.45 130.072 377.596 128.571 377.596 126.667C377.596 125.533 377.56 124.654 377.486 124.032C377.413 123.409 377.285 122.823 377.102 122.274C376.772 121.286 376.223 120.499 375.454 119.913C374.686 119.291 373.734 118.98 372.599 118.98C371.501 118.98 370.567 119.291 369.798 119.913C369.03 120.499 368.462 121.286 368.096 122.274C367.583 123.373 367.327 124.855 367.327 126.722C367.327 128.773 367.547 130.237 367.986 131.115C368.316 132.104 368.883 132.909 369.689 133.532C370.531 134.117 371.519 134.41 372.654 134.41C373.825 134.41 374.796 134.117 375.564 133.532C376.333 132.909 376.864 132.122 377.157 131.17ZM411.635 141.439C408.853 141.439 406.418 140.927 404.331 139.902C402.281 138.84 400.689 137.376 399.554 135.509C398.419 133.605 397.852 131.408 397.852 128.919V125.459C397.852 125.276 397.907 125.13 398.016 125.02C398.163 124.874 398.328 124.8 398.511 124.8H404.935C405.119 124.8 405.265 124.874 405.375 125.02C405.521 125.13 405.594 125.276 405.594 125.459V128.919C405.594 130.676 406.125 132.104 407.187 133.202C408.285 134.264 409.768 134.795 411.635 134.795C413.429 134.795 414.893 134.264 416.028 133.202C417.2 132.104 417.785 130.676 417.785 128.919V103.219C417.785 103.036 417.84 102.89 417.95 102.78C418.097 102.633 418.261 102.56 418.444 102.56H424.814C424.997 102.56 425.144 102.633 425.254 102.78C425.4 102.89 425.473 103.036 425.473 103.219V128.919C425.473 131.408 424.888 133.605 423.716 135.509C422.545 137.376 420.915 138.84 418.829 139.902C416.742 140.927 414.344 141.439 411.635 141.439ZM444.427 141.604C441.571 141.604 439.045 141.018 436.849 139.847C434.689 138.675 433.005 137.046 431.797 134.959C430.588 132.836 429.984 130.402 429.984 127.656V115.904C429.984 113.195 430.588 110.797 431.797 108.711C433.005 106.624 434.689 105.013 436.849 103.878C439.045 102.707 441.571 102.121 444.427 102.121C447.319 102.121 449.845 102.707 452.005 103.878C454.201 105.013 455.904 106.624 457.112 108.711C458.32 110.797 458.924 113.195 458.924 115.904V127.656C458.924 130.402 458.32 132.836 457.112 134.959C455.904 137.083 454.201 138.73 452.005 139.902C449.845 141.037 447.319 141.604 444.427 141.604ZM444.427 134.959C446.44 134.959 448.069 134.319 449.314 133.037C450.559 131.756 451.181 130.054 451.181 127.93V115.849C451.181 113.726 450.559 112.024 449.314 110.742C448.106 109.425 446.477 108.766 444.427 108.766C442.413 108.766 440.784 109.425 439.539 110.742C438.331 112.024 437.727 113.726 437.727 115.849V127.93C437.727 130.054 438.331 131.756 439.539 133.037C440.784 134.319 442.413 134.959 444.427 134.959ZM464.421 141C464.238 141 464.073 140.945 463.926 140.835C463.816 140.689 463.762 140.524 463.762 140.341V103.219C463.762 103.036 463.816 102.89 463.926 102.78C464.073 102.633 464.238 102.56 464.421 102.56H470.845C471.029 102.56 471.175 102.633 471.285 102.78C471.431 102.89 471.504 103.036 471.504 103.219V140.341C471.504 140.524 471.431 140.689 471.285 140.835C471.175 140.945 471.029 141 470.845 141H464.421ZM499.164 103.219C499.164 103.036 499.219 102.89 499.329 102.78C499.476 102.633 499.64 102.56 499.823 102.56H506.248C506.431 102.56 506.578 102.633 506.688 102.78C506.834 102.89 506.907 103.036 506.907 103.219V140.341C506.907 140.524 506.834 140.689 506.688 140.835C506.578 140.945 506.431 141 506.248 141H500.043C499.677 141 499.421 140.854 499.274 140.561L485.051 117.058C484.978 116.948 484.905 116.911 484.832 116.948C484.759 116.948 484.722 117.021 484.722 117.167L484.832 140.341C484.832 140.524 484.759 140.689 484.612 140.835C484.502 140.945 484.356 141 484.173 141H477.748C477.565 141 477.4 140.945 477.254 140.835C477.144 140.689 477.089 140.524 477.089 140.341V103.219C477.089 103.036 477.144 102.89 477.254 102.78C477.4 102.633 477.565 102.56 477.748 102.56H483.953C484.319 102.56 484.576 102.707 484.722 103L498.89 126.393C498.963 126.503 499.036 126.558 499.109 126.558C499.183 126.521 499.219 126.43 499.219 126.283L499.164 103.219ZM535.585 141.439C532.656 141.439 530.094 140.982 527.897 140.066C525.701 139.115 523.998 137.778 522.79 136.058C521.619 134.301 521.033 132.269 521.033 129.962V128.754C521.033 128.571 521.088 128.425 521.198 128.315C521.344 128.168 521.509 128.095 521.692 128.095H527.952C528.135 128.095 528.282 128.168 528.391 128.315C528.538 128.425 528.611 128.571 528.611 128.754V129.578C528.611 131.042 529.288 132.287 530.643 133.312C531.997 134.301 533.828 134.795 536.134 134.795C538.075 134.795 539.521 134.392 540.472 133.587C541.424 132.745 541.9 131.72 541.9 130.511C541.9 129.633 541.607 128.901 541.022 128.315C540.436 127.693 539.63 127.162 538.605 126.722C537.617 126.246 536.024 125.606 533.828 124.8C531.375 123.958 529.288 123.098 527.568 122.219C525.884 121.341 524.456 120.151 523.284 118.65C522.15 117.112 521.582 115.227 521.582 112.994C521.582 110.797 522.15 108.875 523.284 107.228C524.419 105.581 525.993 104.318 528.007 103.439C530.021 102.56 532.345 102.121 534.981 102.121C537.763 102.121 540.234 102.615 542.394 103.604C544.591 104.592 546.293 105.983 547.501 107.777C548.746 109.534 549.369 111.584 549.369 113.927V114.751C549.369 114.934 549.295 115.099 549.149 115.245C549.039 115.355 548.893 115.41 548.71 115.41H542.394C542.211 115.41 542.047 115.355 541.9 115.245C541.79 115.099 541.735 114.934 541.735 114.751V114.312C541.735 112.774 541.095 111.475 539.813 110.413C538.569 109.315 536.848 108.766 534.652 108.766C532.931 108.766 531.576 109.132 530.588 109.864C529.636 110.596 529.16 111.603 529.16 112.884C529.16 113.799 529.435 114.568 529.984 115.19C530.57 115.813 531.412 116.38 532.51 116.893C533.645 117.369 535.384 118.028 537.727 118.87C540.326 119.822 542.358 120.664 543.822 121.396C545.323 122.128 546.659 123.226 547.831 124.691C549.039 126.118 549.643 127.985 549.643 130.292C549.643 133.733 548.38 136.46 545.854 138.474C543.328 140.451 539.905 141.439 535.585 141.439ZM569.672 118.321C569.672 118.504 569.598 118.668 569.452 118.815C569.342 118.925 569.196 118.98 569.013 118.98H563.741C563.558 118.98 563.466 119.071 563.466 119.254V130.896C563.466 132.104 563.704 133.001 564.18 133.587C564.693 134.172 565.498 134.465 566.596 134.465H568.409C568.592 134.465 568.738 134.538 568.848 134.685C568.994 134.795 569.068 134.941 569.068 135.124V140.341C569.068 140.744 568.848 140.982 568.409 141.055C566.871 141.128 565.773 141.165 565.114 141.165C562.075 141.165 559.805 140.671 558.304 139.682C556.803 138.657 556.035 136.753 555.998 133.971V119.254C555.998 119.071 555.907 118.98 555.724 118.98H552.593C552.41 118.98 552.246 118.925 552.099 118.815C551.989 118.668 551.934 118.504 551.934 118.321V113.433C551.934 113.25 551.989 113.104 552.099 112.994C552.246 112.847 552.41 112.774 552.593 112.774H555.724C555.907 112.774 555.998 112.683 555.998 112.5V105.965C555.998 105.782 556.053 105.635 556.163 105.526C556.309 105.379 556.474 105.306 556.657 105.306H562.807C562.99 105.306 563.137 105.379 563.247 105.526C563.393 105.635 563.466 105.782 563.466 105.965V112.5C563.466 112.683 563.558 112.774 563.741 112.774H569.013C569.196 112.774 569.342 112.847 569.452 112.994C569.598 113.104 569.672 113.25 569.672 113.433V118.321ZM587.293 112.39C588.611 112.39 589.654 112.646 590.423 113.159C590.716 113.305 590.825 113.58 590.752 113.982L589.599 120.243C589.562 120.682 589.306 120.81 588.83 120.627C588.281 120.444 587.64 120.352 586.908 120.352C586.615 120.352 586.213 120.389 585.7 120.462C584.382 120.572 583.266 121.066 582.35 121.945C581.435 122.787 580.977 123.922 580.977 125.35V140.341C580.977 140.524 580.904 140.689 580.758 140.835C580.648 140.945 580.502 141 580.319 141H573.894C573.711 141 573.546 140.945 573.399 140.835C573.29 140.689 573.235 140.524 573.235 140.341V113.433C573.235 113.25 573.29 113.104 573.399 112.994C573.546 112.847 573.711 112.774 573.894 112.774H580.319C580.502 112.774 580.648 112.847 580.758 112.994C580.904 113.104 580.977 113.25 580.977 113.433V115.52C580.977 115.63 581.014 115.703 581.087 115.74C581.161 115.776 581.215 115.758 581.252 115.685C582.753 113.488 584.767 112.39 587.293 112.39ZM604.094 112.335C606.473 112.335 608.597 112.756 610.464 113.598C612.331 114.403 613.777 115.52 614.802 116.948C615.864 118.375 616.394 119.968 616.394 121.725V140.341C616.394 140.524 616.321 140.689 616.175 140.835C616.065 140.945 615.918 141 615.735 141H609.31C609.127 141 608.963 140.945 608.816 140.835C608.706 140.689 608.652 140.524 608.652 140.341V138.529C608.652 138.419 608.615 138.346 608.542 138.309C608.468 138.273 608.395 138.309 608.322 138.419C606.784 140.433 604.313 141.439 600.909 141.439C598.053 141.439 595.747 140.744 593.989 139.353C592.232 137.961 591.354 135.911 591.354 133.202C591.354 130.383 592.342 128.205 594.319 126.667C596.296 125.093 599.115 124.306 602.776 124.306H608.377C608.56 124.306 608.652 124.215 608.652 124.032V122.823C608.652 121.615 608.285 120.682 607.553 120.023C606.821 119.327 605.723 118.98 604.258 118.98C603.124 118.98 602.172 119.181 601.403 119.584C600.671 119.986 600.195 120.554 599.975 121.286C599.865 121.689 599.627 121.872 599.261 121.835L592.617 120.956C592.177 120.883 591.976 120.718 592.013 120.462C592.159 118.925 592.763 117.533 593.825 116.289C594.923 115.044 596.351 114.074 598.108 113.378C599.902 112.683 601.897 112.335 604.094 112.335ZM602.995 135.673C604.57 135.673 605.906 135.252 607.004 134.41C608.102 133.568 608.652 132.488 608.652 131.17V129.194C608.652 129.01 608.56 128.919 608.377 128.919H604.423C602.776 128.919 601.476 129.23 600.524 129.852C599.609 130.475 599.151 131.353 599.151 132.488C599.151 133.477 599.499 134.264 600.195 134.85C600.89 135.399 601.824 135.673 602.995 135.673ZM636.36 118.321C636.36 118.504 636.287 118.668 636.14 118.815C636.03 118.925 635.884 118.98 635.701 118.98H630.429C630.246 118.98 630.155 119.071 630.155 119.254V130.896C630.155 132.104 630.393 133.001 630.868 133.587C631.381 134.172 632.186 134.465 633.285 134.465H635.097C635.28 134.465 635.426 134.538 635.536 134.685C635.683 134.795 635.756 134.941 635.756 135.124V140.341C635.756 140.744 635.536 140.982 635.097 141.055C633.559 141.128 632.461 141.165 631.802 141.165C628.763 141.165 626.494 140.671 624.993 139.682C623.492 138.657 622.723 136.753 622.686 133.971V119.254C622.686 119.071 622.595 118.98 622.412 118.98H619.282C619.099 118.98 618.934 118.925 618.787 118.815C618.678 118.668 618.623 118.504 618.623 118.321V113.433C618.623 113.25 618.678 113.104 618.787 112.994C618.934 112.847 619.099 112.774 619.282 112.774H622.412C622.595 112.774 622.686 112.683 622.686 112.5V105.965C622.686 105.782 622.741 105.635 622.851 105.526C622.997 105.379 623.162 105.306 623.345 105.306H629.496C629.679 105.306 629.825 105.379 629.935 105.526C630.081 105.635 630.155 105.782 630.155 105.965V112.5C630.155 112.683 630.246 112.774 630.429 112.774H635.701C635.884 112.774 636.03 112.847 636.14 112.994C636.287 113.104 636.36 113.25 636.36 113.433V118.321ZM664.533 123.977C664.753 125.368 664.826 126.924 664.753 128.644C664.716 129.084 664.478 129.303 664.039 129.303H647.071C646.851 129.303 646.778 129.395 646.851 129.578C646.961 130.31 647.162 131.042 647.455 131.774C648.407 133.825 650.347 134.85 653.276 134.85C655.619 134.813 657.468 133.861 658.822 131.994C658.969 131.774 659.133 131.665 659.316 131.665C659.426 131.665 659.554 131.738 659.701 131.884L663.655 135.783C663.838 135.966 663.929 136.131 663.929 136.277C663.929 136.351 663.856 136.497 663.71 136.717C662.501 138.218 660.946 139.389 659.042 140.231C657.138 141.037 655.051 141.439 652.782 141.439C649.633 141.439 646.961 140.725 644.764 139.298C642.604 137.87 641.048 135.875 640.097 133.312C639.328 131.482 638.943 129.084 638.943 126.118C638.943 124.105 639.218 122.329 639.767 120.792C640.609 118.192 642.073 116.124 644.16 114.586C646.284 113.049 648.791 112.28 651.683 112.28C655.344 112.28 658.273 113.342 660.47 115.465C662.703 117.588 664.057 120.426 664.533 123.977ZM651.738 118.98C649.432 118.98 647.913 120.059 647.18 122.219C647.034 122.695 646.906 123.281 646.796 123.977C646.796 124.16 646.888 124.251 647.071 124.251H656.571C656.79 124.251 656.864 124.16 656.79 123.977C656.607 122.915 656.516 122.402 656.516 122.439C656.186 121.341 655.601 120.499 654.759 119.913C653.953 119.291 652.946 118.98 651.738 118.98ZM685.67 113.433C685.67 113.25 685.724 113.104 685.834 112.994C685.981 112.847 686.145 112.774 686.329 112.774H692.753C692.936 112.774 693.083 112.847 693.193 112.994C693.339 113.104 693.412 113.25 693.412 113.433V138.474C693.412 143.27 692.021 146.693 689.239 148.743C686.493 150.793 682.942 151.818 678.586 151.818C677.304 151.818 675.877 151.727 674.302 151.543C673.936 151.507 673.753 151.269 673.753 150.83L673.973 145.173C673.973 144.698 674.229 144.496 674.742 144.569C676.06 144.789 677.268 144.899 678.366 144.899C680.709 144.899 682.503 144.386 683.748 143.361C685.029 142.336 685.67 140.689 685.67 138.419C685.67 138.309 685.633 138.254 685.56 138.254C685.486 138.218 685.413 138.236 685.34 138.309C683.949 139.81 681.917 140.561 679.245 140.561C676.865 140.561 674.668 139.993 672.655 138.858C670.678 137.687 669.269 135.82 668.427 133.257C667.877 131.573 667.603 129.395 667.603 126.722C667.603 123.867 667.932 121.542 668.591 119.748C669.36 117.515 670.66 115.721 672.49 114.367C674.321 113.012 676.444 112.335 678.86 112.335C681.679 112.335 683.839 113.177 685.34 114.861C685.413 114.934 685.486 114.971 685.56 114.971C685.633 114.934 685.67 114.861 685.67 114.751V113.433ZM685.23 131.17C685.523 130.072 685.67 128.571 685.67 126.667C685.67 125.533 685.633 124.654 685.56 124.032C685.486 123.409 685.358 122.823 685.175 122.274C684.846 121.286 684.297 120.499 683.528 119.913C682.759 119.291 681.807 118.98 680.672 118.98C679.574 118.98 678.641 119.291 677.872 119.913C677.103 120.499 676.536 121.286 676.169 122.274C675.657 123.373 675.401 124.855 675.401 126.722C675.401 128.773 675.62 130.237 676.06 131.115C676.389 132.104 676.957 132.909 677.762 133.532C678.604 134.117 679.592 134.41 680.727 134.41C681.899 134.41 682.869 134.117 683.638 133.532C684.407 132.909 684.937 132.122 685.23 131.17ZM702.015 109.589C700.771 109.589 699.727 109.187 698.885 108.381C698.08 107.539 697.677 106.496 697.677 105.251C697.677 103.97 698.08 102.926 698.885 102.121C699.691 101.316 700.734 100.913 702.015 100.913C703.297 100.913 704.34 101.316 705.146 102.121C705.951 102.926 706.354 103.97 706.354 105.251C706.354 106.496 705.933 107.539 705.091 108.381C704.285 109.187 703.26 109.589 702.015 109.589ZM698.721 141C698.538 141 698.373 140.945 698.226 140.835C698.117 140.689 698.062 140.524 698.062 140.341V113.378C698.062 113.195 698.117 113.049 698.226 112.939C698.373 112.793 698.538 112.719 698.721 112.719H705.146C705.329 112.719 705.475 112.793 705.585 112.939C705.731 113.049 705.804 113.195 705.804 113.378V140.341C705.804 140.524 705.731 140.689 705.585 140.835C705.475 140.945 705.329 141 705.146 141H698.721ZM735.726 123.977C735.946 125.368 736.019 126.924 735.946 128.644C735.909 129.084 735.671 129.303 735.232 129.303H718.264C718.044 129.303 717.971 129.395 718.044 129.578C718.154 130.31 718.355 131.042 718.648 131.774C719.6 133.825 721.54 134.85 724.469 134.85C726.812 134.813 728.661 133.861 730.015 131.994C730.162 131.774 730.326 131.665 730.509 131.665C730.619 131.665 730.747 131.738 730.894 131.884L734.848 135.783C735.031 135.966 735.122 136.131 735.122 136.277C735.122 136.351 735.049 136.497 734.902 136.717C733.694 138.218 732.138 139.389 730.235 140.231C728.331 141.037 726.244 141.439 723.975 141.439C720.826 141.439 718.154 140.725 715.957 139.298C713.797 137.87 712.241 135.875 711.289 133.312C710.521 131.482 710.136 129.084 710.136 126.118C710.136 124.105 710.411 122.329 710.96 120.792C711.802 118.192 713.266 116.124 715.353 114.586C717.476 113.049 719.984 112.28 722.876 112.28C726.537 112.28 729.466 113.342 731.663 115.465C733.896 117.588 735.25 120.426 735.726 123.977ZM722.931 118.98C720.625 118.98 719.106 120.059 718.373 122.219C718.227 122.695 718.099 123.281 717.989 123.977C717.989 124.16 718.081 124.251 718.264 124.251H727.764C727.983 124.251 728.057 124.16 727.983 123.977C727.8 122.915 727.709 122.402 727.709 122.439C727.379 121.341 726.794 120.499 725.952 119.913C725.146 119.291 724.139 118.98 722.931 118.98ZM750.501 141.384C748.049 141.384 745.907 141.037 744.076 140.341C742.246 139.645 740.818 138.675 739.793 137.431C738.805 136.186 738.311 134.776 738.311 133.202V132.653C738.311 132.47 738.365 132.324 738.475 132.214C738.622 132.067 738.786 131.994 738.97 131.994H745.065C745.248 131.994 745.394 132.067 745.504 132.214C745.651 132.324 745.724 132.47 745.724 132.653V132.708C745.724 133.513 746.163 134.209 747.042 134.795C747.957 135.344 749.092 135.618 750.447 135.618C751.691 135.618 752.698 135.38 753.467 134.905C754.236 134.392 754.62 133.77 754.62 133.037C754.62 132.379 754.29 131.884 753.632 131.555C752.973 131.225 751.893 130.878 750.392 130.511C748.671 130.072 747.316 129.651 746.328 129.248C743.985 128.443 742.118 127.455 740.727 126.283C739.336 125.112 738.64 123.428 738.64 121.231C738.64 118.522 739.683 116.38 741.77 114.806C743.893 113.195 746.694 112.39 750.172 112.39C752.515 112.39 754.565 112.774 756.322 113.543C758.08 114.275 759.434 115.319 760.386 116.673C761.374 118.028 761.869 119.565 761.869 121.286C761.869 121.469 761.795 121.634 761.649 121.78C761.539 121.89 761.393 121.945 761.21 121.945H755.334C755.151 121.945 754.986 121.89 754.84 121.78C754.73 121.634 754.675 121.469 754.675 121.286C754.675 120.481 754.254 119.803 753.412 119.254C752.606 118.705 751.526 118.43 750.172 118.43C748.964 118.43 747.975 118.65 747.207 119.089C746.438 119.529 746.053 120.133 746.053 120.902C746.053 121.634 746.419 122.183 747.152 122.549C747.92 122.915 749.183 123.299 750.941 123.702C751.343 123.812 751.801 123.94 752.314 124.087C752.826 124.196 753.375 124.343 753.961 124.526C756.56 125.295 758.61 126.283 760.111 127.491C761.612 128.699 762.363 130.457 762.363 132.763C762.363 135.472 761.283 137.595 759.123 139.133C757 140.634 754.126 141.384 750.501 141.384Z"></path>
</g>
<path fill="#71E8DF" d="M225.991 76C225.9 76 225.818 75.9727 225.745 75.9182C225.691 75.8455 225.664 75.7636 225.664 75.6727V57.2364C225.664 57.1455 225.691 57.0727 225.745 57.0182C225.818 56.9455 225.9 56.9091 225.991 56.9091H232.809C234.173 56.9091 235.364 57.1545 236.382 57.6455C237.418 58.1182 238.218 58.7909 238.782 59.6636C239.345 60.5364 239.627 61.5455 239.627 62.6909V70.2182C239.627 71.3636 239.345 72.3727 238.782 73.2455C238.218 74.1182 237.418 74.8 236.382 75.2909C235.364 75.7636 234.173 76 232.809 76H225.991ZM229.509 72.5636C229.509 72.6545 229.555 72.7 229.645 72.7H232.945C233.782 72.7 234.455 72.4182 234.964 71.8545C235.491 71.2909 235.764 70.5364 235.782 69.5909V63.3182C235.782 62.3727 235.518 61.6182 234.991 61.0545C234.482 60.4909 233.791 60.2091 232.918 60.2091H229.645C229.555 60.2091 229.509 60.2545 229.509 60.3455V72.5636ZM256.348 76C256.166 76 256.048 75.9091 255.993 75.7273L255.175 73.0545C255.138 72.9818 255.093 72.9455 255.038 72.9455H248.329C248.275 72.9455 248.229 72.9818 248.193 73.0545L247.402 75.7273C247.348 75.9091 247.229 76 247.048 76H243.584C243.475 76 243.393 75.9727 243.338 75.9182C243.284 75.8455 243.275 75.7455 243.311 75.6182L249.202 57.1818C249.257 57 249.375 56.9091 249.557 56.9091H253.838C254.02 56.9091 254.138 57 254.193 57.1818L260.084 75.6182C260.102 75.6545 260.111 75.7 260.111 75.7545C260.111 75.9182 260.011 76 259.811 76H256.348ZM249.175 69.8091C249.157 69.9182 249.193 69.9727 249.284 69.9727H254.084C254.193 69.9727 254.229 69.9182 254.193 69.8091L251.738 61.7091C251.72 61.6364 251.693 61.6091 251.657 61.6273C251.62 61.6273 251.593 61.6545 251.575 61.7091L249.175 69.8091ZM276.065 56.9091C276.156 56.9091 276.228 56.9455 276.283 57.0182C276.356 57.0727 276.392 57.1455 276.392 57.2364V59.9091C276.392 60 276.356 60.0818 276.283 60.1545C276.228 60.2091 276.156 60.2364 276.065 60.2364H271.183C271.092 60.2364 271.047 60.2818 271.047 60.3727V75.6727C271.047 75.7636 271.01 75.8455 270.937 75.9182C270.883 75.9727 270.81 76 270.719 76H267.528C267.437 76 267.356 75.9727 267.283 75.9182C267.228 75.8455 267.201 75.7636 267.201 75.6727V60.3727C267.201 60.2818 267.156 60.2364 267.065 60.2364H262.319C262.228 60.2364 262.147 60.2091 262.074 60.1545C262.019 60.0818 261.992 60 261.992 59.9091V57.2364C261.992 57.1455 262.019 57.0727 262.074 57.0182C262.147 56.9455 262.228 56.9091 262.319 56.9091H276.065ZM291.951 76C291.769 76 291.651 75.9091 291.597 75.7273L290.779 73.0545C290.742 72.9818 290.697 72.9455 290.642 72.9455H283.933C283.879 72.9455 283.833 72.9818 283.797 73.0545L283.006 75.7273C282.951 75.9091 282.833 76 282.651 76H279.188C279.079 76 278.997 75.9727 278.942 75.9182C278.888 75.8455 278.879 75.7455 278.915 75.6182L284.806 57.1818C284.86 57 284.979 56.9091 285.16 56.9091H289.442C289.624 56.9091 289.742 57 289.797 57.1818L295.688 75.6182C295.706 75.6545 295.715 75.7 295.715 75.7545C295.715 75.9182 295.615 76 295.415 76H291.951ZM284.779 69.8091C284.76 69.9182 284.797 69.9727 284.888 69.9727H289.688C289.797 69.9727 289.833 69.9182 289.797 69.8091L287.342 61.7091C287.324 61.6364 287.297 61.6091 287.26 61.6273C287.224 61.6273 287.197 61.6545 287.179 61.7091L284.779 69.8091ZM312.158 66.0455C312.049 66.1 312.049 66.1545 312.158 66.2091C313.885 67.1 314.749 68.5818 314.749 70.6545C314.749 72.4182 314.149 73.7545 312.949 74.6636C311.749 75.5545 310.176 76 308.23 76H301.167C301.076 76 300.994 75.9727 300.921 75.9182C300.867 75.8455 300.839 75.7636 300.839 75.6727V57.2364C300.839 57.1455 300.867 57.0727 300.921 57.0182C300.994 56.9455 301.076 56.9091 301.167 56.9091H308.012C312.321 56.9091 314.476 58.6545 314.476 62.1455C314.476 63.9636 313.703 65.2636 312.158 66.0455ZM304.821 60.2091C304.73 60.2091 304.685 60.2545 304.685 60.3455V64.6C304.685 64.6909 304.73 64.7364 304.821 64.7364H308.012C308.867 64.7364 309.53 64.5364 310.003 64.1364C310.476 63.7364 310.712 63.1909 310.712 62.5C310.712 61.7909 310.476 61.2364 310.003 60.8364C309.53 60.4182 308.867 60.2091 308.012 60.2091H304.821ZM308.23 72.6727C309.067 72.6727 309.721 72.4636 310.194 72.0455C310.667 71.6091 310.903 71.0182 310.903 70.2727C310.903 69.5273 310.667 68.9455 310.194 68.5273C309.721 68.0909 309.058 67.8727 308.203 67.8727H304.821C304.73 67.8727 304.685 67.9182 304.685 68.0091V72.5364C304.685 72.6273 304.73 72.6727 304.821 72.6727H308.23ZM331.577 76C331.395 76 331.277 75.9091 331.222 75.7273L330.404 73.0545C330.368 72.9818 330.322 72.9455 330.268 72.9455H323.558C323.504 72.9455 323.458 72.9818 323.422 73.0545L322.631 75.7273C322.577 75.9091 322.458 76 322.277 76H318.813C318.704 76 318.622 75.9727 318.568 75.9182C318.513 75.8455 318.504 75.7455 318.54 75.6182L324.431 57.1818C324.486 57 324.604 56.9091 324.786 56.9091H329.068C329.249 56.9091 329.368 57 329.422 57.1818L335.313 75.6182C335.331 75.6545 335.34 75.7 335.34 75.7545C335.34 75.9182 335.24 76 335.04 76H331.577ZM324.404 69.8091C324.386 69.9182 324.422 69.9727 324.513 69.9727H329.313C329.422 69.9727 329.458 69.9182 329.422 69.8091L326.968 61.7091C326.949 61.6364 326.922 61.6091 326.886 61.6273C326.849 61.6273 326.822 61.6545 326.804 61.7091L324.404 69.8091ZM345.812 76.2182C344.357 76.2182 343.084 75.9909 341.994 75.5364C340.903 75.0636 340.057 74.4 339.457 73.5455C338.875 72.6727 338.584 71.6636 338.584 70.5182V69.9182C338.584 69.8273 338.612 69.7545 338.666 69.7C338.739 69.6273 338.821 69.5909 338.912 69.5909H342.021C342.112 69.5909 342.184 69.6273 342.239 69.7C342.312 69.7545 342.348 69.8273 342.348 69.9182V70.3273C342.348 71.0545 342.684 71.6727 343.357 72.1818C344.03 72.6727 344.939 72.9182 346.084 72.9182C347.048 72.9182 347.766 72.7182 348.239 72.3182C348.712 71.9 348.948 71.3909 348.948 70.7909C348.948 70.3545 348.803 69.9909 348.512 69.7C348.221 69.3909 347.821 69.1273 347.312 68.9091C346.821 68.6727 346.03 68.3545 344.939 67.9545C343.721 67.5364 342.684 67.1091 341.83 66.6727C340.994 66.2364 340.284 65.6455 339.703 64.9C339.139 64.1364 338.857 63.2 338.857 62.0909C338.857 61 339.139 60.0455 339.703 59.2273C340.266 58.4091 341.048 57.7818 342.048 57.3455C343.048 56.9091 344.203 56.6909 345.512 56.6909C346.894 56.6909 348.121 56.9364 349.194 57.4273C350.284 57.9182 351.13 58.6091 351.73 59.5C352.348 60.3727 352.657 61.3909 352.657 62.5545V62.9636C352.657 63.0545 352.621 63.1364 352.548 63.2091C352.494 63.2636 352.421 63.2909 352.33 63.2909H349.194C349.103 63.2909 349.021 63.2636 348.948 63.2091C348.894 63.1364 348.866 63.0545 348.866 62.9636V62.7455C348.866 61.9818 348.548 61.3364 347.912 60.8091C347.294 60.2636 346.439 59.9909 345.348 59.9909C344.494 59.9909 343.821 60.1727 343.33 60.5364C342.857 60.9 342.621 61.4 342.621 62.0364C342.621 62.4909 342.757 62.8727 343.03 63.1818C343.321 63.4909 343.739 63.7727 344.284 64.0273C344.848 64.2636 345.712 64.5909 346.875 65.0091C348.166 65.4818 349.175 65.9 349.903 66.2636C350.648 66.6273 351.312 67.1727 351.894 67.9C352.494 68.6091 352.794 69.5364 352.794 70.6818C352.794 72.3909 352.166 73.7455 350.912 74.7455C349.657 75.7273 347.957 76.2182 345.812 76.2182ZM371.468 59.8818C371.468 59.9727 371.432 60.0545 371.359 60.1273C371.304 60.1818 371.232 60.2091 371.141 60.2091H362.195C362.104 60.2091 362.059 60.2545 362.059 60.3455V64.5727C362.059 64.6636 362.104 64.7091 362.195 64.7091H368.059C368.15 64.7091 368.222 64.7455 368.277 64.8182C368.35 64.8727 368.386 64.9455 368.386 65.0364V67.6818C368.386 67.7727 368.35 67.8545 368.277 67.9273C368.222 67.9818 368.15 68.0091 368.059 68.0091H362.195C362.104 68.0091 362.059 68.0545 362.059 68.1455V72.5636C362.059 72.6545 362.104 72.7 362.195 72.7H371.141C371.232 72.7 371.304 72.7364 371.359 72.8091C371.432 72.8636 371.468 72.9364 371.468 73.0273V75.6727C371.468 75.7636 371.432 75.8455 371.359 75.9182C371.304 75.9727 371.232 76 371.141 76H358.541C358.45 76 358.368 75.9727 358.295 75.9182C358.241 75.8455 358.213 75.7636 358.213 75.6727V57.2364C358.213 57.1455 358.241 57.0727 358.295 57.0182C358.368 56.9455 358.45 56.9091 358.541 56.9091H371.141C371.232 56.9091 371.304 56.9455 371.359 57.0182C371.432 57.0727 371.468 57.1455 371.468 57.2364V59.8818ZM390.127 76C389.946 76 389.827 75.9091 389.773 75.7273L384.155 57.2909L384.127 57.1818C384.127 57 384.227 56.9091 384.427 56.9091H387.864C388.064 56.9091 388.191 57 388.246 57.1818L391.873 70.4909C391.891 70.5455 391.918 70.5727 391.955 70.5727C391.991 70.5727 392.018 70.5455 392.036 70.4909L395.609 57.1818C395.664 57 395.791 56.9091 395.991 56.9091H399.346C399.455 56.9091 399.536 56.9455 399.591 57.0182C399.646 57.0909 399.655 57.1818 399.618 57.2909L393.918 75.7273C393.864 75.9091 393.746 76 393.564 76H390.127ZM410.68 76.2182C409.226 76.2182 407.953 75.9909 406.862 75.5364C405.771 75.0636 404.926 74.4 404.326 73.5455C403.744 72.6727 403.453 71.6636 403.453 70.5182V69.9182C403.453 69.8273 403.48 69.7545 403.535 69.7C403.608 69.6273 403.689 69.5909 403.78 69.5909H406.889C406.98 69.5909 407.053 69.6273 407.108 69.7C407.18 69.7545 407.217 69.8273 407.217 69.9182V70.3273C407.217 71.0545 407.553 71.6727 408.226 72.1818C408.899 72.6727 409.808 72.9182 410.953 72.9182C411.917 72.9182 412.635 72.7182 413.108 72.3182C413.58 71.9 413.817 71.3909 413.817 70.7909C413.817 70.3545 413.671 69.9909 413.38 69.7C413.089 69.3909 412.689 69.1273 412.18 68.9091C411.689 68.6727 410.899 68.3545 409.808 67.9545C408.589 67.5364 407.553 67.1091 406.699 66.6727C405.862 66.2364 405.153 65.6455 404.571 64.9C404.008 64.1364 403.726 63.2 403.726 62.0909C403.726 61 404.008 60.0455 404.571 59.2273C405.135 58.4091 405.917 57.7818 406.917 57.3455C407.917 56.9091 409.071 56.6909 410.38 56.6909C411.762 56.6909 412.989 56.9364 414.062 57.4273C415.153 57.9182 415.999 58.6091 416.599 59.5C417.217 60.3727 417.526 61.3909 417.526 62.5545V62.9636C417.526 63.0545 417.489 63.1364 417.417 63.2091C417.362 63.2636 417.289 63.2909 417.199 63.2909H414.062C413.971 63.2909 413.889 63.2636 413.817 63.2091C413.762 63.1364 413.735 63.0545 413.735 62.9636V62.7455C413.735 61.9818 413.417 61.3364 412.78 60.8091C412.162 60.2636 411.308 59.9909 410.217 59.9909C409.362 59.9909 408.689 60.1727 408.199 60.5364C407.726 60.9 407.489 61.4 407.489 62.0364C407.489 62.4909 407.626 62.8727 407.899 63.1818C408.189 63.4909 408.608 63.7727 409.153 64.0273C409.717 64.2636 410.58 64.5909 411.744 65.0091C413.035 65.4818 414.044 65.9 414.771 66.2636C415.517 66.6273 416.18 67.1727 416.762 67.9C417.362 68.6091 417.662 69.5364 417.662 70.6818C417.662 72.3909 417.035 73.7455 415.78 74.7455C414.526 75.7273 412.826 76.2182 410.68 76.2182ZM443.405 76C443.224 76 443.105 75.9091 443.051 75.7273L442.233 73.0545C442.196 72.9818 442.151 72.9455 442.096 72.9455H435.387C435.333 72.9455 435.287 72.9818 435.251 73.0545L434.46 75.7273C434.405 75.9091 434.287 76 434.105 76H430.642C430.533 76 430.451 75.9727 430.396 75.9182C430.342 75.8455 430.333 75.7455 430.369 75.6182L436.26 57.1818C436.315 57 436.433 56.9091 436.615 56.9091H440.896C441.078 56.9091 441.196 57 441.251 57.1818L447.142 75.6182C447.16 75.6545 447.169 75.7 447.169 75.7545C447.169 75.9182 447.069 76 446.869 76H443.405ZM436.233 69.8091C436.215 69.9182 436.251 69.9727 436.342 69.9727H441.142C441.251 69.9727 441.287 69.9182 441.251 69.8091L438.796 61.7091C438.778 61.6364 438.751 61.6091 438.715 61.6273C438.678 61.6273 438.651 61.6545 438.633 61.7091L436.233 69.8091ZM460.175 56.8818C461.375 56.8818 462.43 57.1273 463.339 57.6182C464.248 58.1091 464.948 58.8091 465.439 59.7182C465.948 60.6091 466.203 61.6364 466.203 62.8C466.203 63.9455 465.939 64.9545 465.412 65.8273C464.903 66.7 464.175 67.3818 463.23 67.8727C462.303 68.3455 461.23 68.5818 460.012 68.5818H456.139C456.048 68.5818 456.003 68.6273 456.003 68.7182V75.6727C456.003 75.7636 455.966 75.8455 455.894 75.9182C455.839 75.9727 455.766 76 455.675 76H452.485C452.394 76 452.312 75.9727 452.239 75.9182C452.185 75.8455 452.157 75.7636 452.157 75.6727V57.2091C452.157 57.1182 452.185 57.0455 452.239 56.9909C452.312 56.9182 452.394 56.8818 452.485 56.8818H460.175ZM459.603 65.5C460.439 65.5 461.112 65.2636 461.621 64.7909C462.13 64.3 462.385 63.6636 462.385 62.8818C462.385 62.0818 462.13 61.4364 461.621 60.9455C461.112 60.4545 460.439 60.2091 459.603 60.2091H456.139C456.048 60.2091 456.003 60.2545 456.003 60.3455V65.3636C456.003 65.4545 456.048 65.5 456.139 65.5H459.603ZM479.176 56.8818C480.376 56.8818 481.43 57.1273 482.339 57.6182C483.249 58.1091 483.949 58.8091 484.439 59.7182C484.949 60.6091 485.203 61.6364 485.203 62.8C485.203 63.9455 484.939 64.9545 484.412 65.8273C483.903 66.7 483.176 67.3818 482.23 67.8727C481.303 68.3455 480.23 68.5818 479.012 68.5818H475.139C475.049 68.5818 475.003 68.6273 475.003 68.7182V75.6727C475.003 75.7636 474.967 75.8455 474.894 75.9182C474.839 75.9727 474.767 76 474.676 76H471.485C471.394 76 471.312 75.9727 471.239 75.9182C471.185 75.8455 471.158 75.7636 471.158 75.6727V57.2091C471.158 57.1182 471.185 57.0455 471.239 56.9909C471.312 56.9182 471.394 56.8818 471.485 56.8818H479.176ZM478.603 65.5C479.439 65.5 480.112 65.2636 480.621 64.7909C481.13 64.3 481.385 63.6636 481.385 62.8818C481.385 62.0818 481.13 61.4364 480.621 60.9455C480.112 60.4545 479.439 60.2091 478.603 60.2091H475.139C475.049 60.2091 475.003 60.2545 475.003 60.3455V65.3636C475.003 65.4545 475.049 65.5 475.139 65.5H478.603ZM490.622 76C490.531 76 490.449 75.9727 490.376 75.9182C490.322 75.8455 490.294 75.7636 490.294 75.6727V57.2364C490.294 57.1455 490.322 57.0727 490.376 57.0182C490.449 56.9455 490.531 56.9091 490.622 56.9091H493.812C493.903 56.9091 493.976 56.9455 494.031 57.0182C494.103 57.0727 494.14 57.1455 494.14 57.2364V72.5636C494.14 72.6545 494.185 72.7 494.276 72.7H503.194C503.285 72.7 503.358 72.7364 503.412 72.8091C503.485 72.8636 503.522 72.9364 503.522 73.0273V75.6727C503.522 75.7636 503.485 75.8455 503.412 75.9182C503.358 75.9727 503.285 76 503.194 76H490.622ZM508.956 76C508.865 76 508.783 75.9727 508.711 75.9182C508.656 75.8455 508.629 75.7636 508.629 75.6727V57.2364C508.629 57.1455 508.656 57.0727 508.711 57.0182C508.783 56.9455 508.865 56.9091 508.956 56.9091H512.147C512.238 56.9091 512.311 56.9455 512.365 57.0182C512.438 57.0727 512.474 57.1455 512.474 57.2364V75.6727C512.474 75.7636 512.438 75.8455 512.365 75.9182C512.311 75.9727 512.238 76 512.147 76H508.956ZM525.23 76.2182C523.811 76.2182 522.566 75.9455 521.493 75.4C520.421 74.8364 519.593 74.0545 519.011 73.0545C518.43 72.0545 518.139 70.9 518.139 69.5909V63.2909C518.139 61.9818 518.43 60.8273 519.011 59.8273C519.593 58.8273 520.421 58.0545 521.493 57.5091C522.566 56.9636 523.811 56.6909 525.23 56.6909C526.63 56.6909 527.857 56.9545 528.911 57.4818C529.984 57.9909 530.811 58.7273 531.393 59.6909C531.993 60.6364 532.293 61.7364 532.293 62.9909C532.293 63.1545 532.184 63.2545 531.966 63.2909L528.775 63.4818H528.721C528.539 63.4818 528.448 63.3818 528.448 63.1818C528.448 62.2182 528.148 61.4455 527.548 60.8636C526.966 60.2818 526.193 59.9909 525.23 59.9909C524.248 59.9909 523.457 60.2818 522.857 60.8636C522.275 61.4455 521.984 62.2182 521.984 63.1818V69.7545C521.984 70.7 522.275 71.4636 522.857 72.0455C523.457 72.6273 524.248 72.9182 525.23 72.9182C526.193 72.9182 526.966 72.6273 527.548 72.0455C528.148 71.4636 528.448 70.7 528.448 69.7545C528.448 69.5545 528.557 69.4545 528.775 69.4545L531.966 69.5909C532.057 69.5909 532.13 69.6182 532.184 69.6727C532.257 69.7273 532.293 69.7909 532.293 69.8636C532.293 71.1182 531.993 72.2273 531.393 73.1909C530.811 74.1545 529.984 74.9 528.911 75.4273C527.857 75.9545 526.63 76.2182 525.23 76.2182ZM549.551 76C549.369 76 549.251 75.9091 549.196 75.7273L548.378 73.0545C548.342 72.9818 548.296 72.9455 548.242 72.9455H541.533C541.478 72.9455 541.433 72.9818 541.396 73.0545L540.605 75.7273C540.551 75.9091 540.433 76 540.251 76H536.787C536.678 76 536.596 75.9727 536.542 75.9182C536.487 75.8455 536.478 75.7455 536.514 75.6182L542.405 57.1818C542.46 57 542.578 56.9091 542.76 56.9091H547.042C547.223 56.9091 547.342 57 547.396 57.1818L553.287 75.6182C553.305 75.6545 553.314 75.7 553.314 75.7545C553.314 75.9182 553.214 76 553.014 76H549.551ZM542.378 69.8091C542.36 69.9182 542.396 69.9727 542.487 69.9727H547.287C547.396 69.9727 547.433 69.9182 547.396 69.8091L544.942 61.7091C544.923 61.6364 544.896 61.6091 544.86 61.6273C544.823 61.6273 544.796 61.6545 544.778 61.7091L542.378 69.8091ZM569.268 56.9091C569.359 56.9091 569.431 56.9455 569.486 57.0182C569.559 57.0727 569.595 57.1455 569.595 57.2364V59.9091C569.595 60 569.559 60.0818 569.486 60.1545C569.431 60.2091 569.359 60.2364 569.268 60.2364H564.386C564.295 60.2364 564.25 60.2818 564.25 60.3727V75.6727C564.25 75.7636 564.213 75.8455 564.141 75.9182C564.086 75.9727 564.013 76 563.922 76H560.731C560.641 76 560.559 75.9727 560.486 75.9182C560.431 75.8455 560.404 75.7636 560.404 75.6727V60.3727C560.404 60.2818 560.359 60.2364 560.268 60.2364H555.522C555.431 60.2364 555.35 60.2091 555.277 60.1545C555.222 60.0818 555.195 60 555.195 59.9091V57.2364C555.195 57.1455 555.222 57.0727 555.277 57.0182C555.35 56.9455 555.431 56.9091 555.522 56.9091H569.268ZM575.103 76C575.012 76 574.93 75.9727 574.858 75.9182C574.803 75.8455 574.776 75.7636 574.776 75.6727V57.2364C574.776 57.1455 574.803 57.0727 574.858 57.0182C574.93 56.9455 575.012 56.9091 575.103 56.9091H578.294C578.385 56.9091 578.458 56.9455 578.512 57.0182C578.585 57.0727 578.621 57.1455 578.621 57.2364V75.6727C578.621 75.7636 578.585 75.8455 578.512 75.9182C578.458 75.9727 578.385 76 578.294 76H575.103ZM591.458 76.3C590.04 76.3 588.786 76.0091 587.695 75.4273C586.622 74.8455 585.786 74.0364 585.186 73C584.586 71.9455 584.286 70.7364 584.286 69.3727V63.5364C584.286 62.1909 584.586 61 585.186 59.9636C585.786 58.9273 586.622 58.1273 587.695 57.5636C588.786 56.9818 590.04 56.6909 591.458 56.6909C592.895 56.6909 594.149 56.9818 595.222 57.5636C596.313 58.1273 597.158 58.9273 597.758 59.9636C598.358 61 598.658 62.1909 598.658 63.5364V69.3727C598.658 70.7364 598.358 71.9455 597.758 73C597.158 74.0545 596.313 74.8727 595.222 75.4545C594.149 76.0182 592.895 76.3 591.458 76.3ZM591.458 73C592.458 73 593.268 72.6818 593.886 72.0455C594.504 71.4091 594.813 70.5636 594.813 69.5091V63.5091C594.813 62.4545 594.504 61.6091 593.886 60.9727C593.286 60.3182 592.477 59.9909 591.458 59.9909C590.458 59.9909 589.649 60.3182 589.031 60.9727C588.431 61.6091 588.131 62.4545 588.131 63.5091V69.5091C588.131 70.5636 588.431 71.4091 589.031 72.0455C589.649 72.6818 590.458 73 591.458 73ZM615.297 57.2364C615.297 57.1455 615.325 57.0727 615.379 57.0182C615.452 56.9455 615.534 56.9091 615.625 56.9091H618.816C618.906 56.9091 618.979 56.9455 619.034 57.0182C619.106 57.0727 619.143 57.1455 619.143 57.2364V75.6727C619.143 75.7636 619.106 75.8455 619.034 75.9182C618.979 75.9727 618.906 76 618.816 76H615.734C615.552 76 615.425 75.9273 615.352 75.7818L608.288 64.1091C608.252 64.0545 608.216 64.0364 608.179 64.0545C608.143 64.0545 608.125 64.0909 608.125 64.1636L608.179 75.6727C608.179 75.7636 608.143 75.8455 608.07 75.9182C608.016 75.9727 607.943 76 607.852 76H604.661C604.57 76 604.488 75.9727 604.416 75.9182C604.361 75.8455 604.334 75.7636 604.334 75.6727V57.2364C604.334 57.1455 604.361 57.0727 604.416 57.0182C604.488 56.9455 604.57 56.9091 604.661 56.9091H607.743C607.925 56.9091 608.052 56.9818 608.125 57.1273L615.161 68.7455C615.197 68.8 615.234 68.8273 615.27 68.8273C615.306 68.8091 615.325 68.7636 615.325 68.6909L615.297 57.2364Z"></path>
<g filter="url(#filter2_d_10142_187945)" opacity="0.8">
<g clip-path="url(#clip2_10142_187945)">
<rect fill="#090A15" rx="8" height="256" width="207" y="185" x="173"></rect>
<rect fill="#090A15" height="32" width="143" y="185" x="205"></rect>
<rect stroke-width="2" stroke="#2D3748" height="32" width="143" y="185" x="205"></rect>
<rect fill="#2D3748" rx="4" height="8" width="127" y="197" x="213"></rect>
<rect fill="#090A15" height="32" width="207" y="217" x="173"></rect>
<rect stroke-width="2" stroke="#2D3748" height="32" width="207" y="217" x="173"></rect>
<rect fill="#2D3748" rx="4" height="8" width="191" y="229" x="181"></rect>
<rect fill="#090A15" height="32" width="207" y="249" x="173"></rect>
<rect stroke-width="2" stroke="#2D3748" height="32" width="207" y="249" x="173"></rect>
<rect fill="#2D3748" rx="4" height="8" width="151" y="261" x="181"></rect>
<rect fill="#090A15" height="32" width="207" y="281" x="173"></rect>
<rect stroke-width="2" stroke="#2D3748" height="32" width="207" y="281" x="173"></rect>
<rect fill="#2D3748" rx="4" height="8" width="79" y="293" x="181"></rect>
<rect fill="#090A15" height="32" width="207" y="313" x="173"></rect>
<rect stroke-width="2" stroke="#2D3748" height="32" width="207" y="313" x="173"></rect>
<rect fill="#2D3748" rx="4" height="8" width="79" y="325" x="181"></rect>
<rect fill="#090A15" height="32" width="207" y="345" x="173"></rect>
<rect stroke-width="2" stroke="#2D3748" height="32" width="207" y="345" x="173"></rect>
<rect fill="#2D3748" rx="4" height="8" width="151" y="357" x="181"></rect>
<rect fill="#090A15" height="32" width="207" y="377" x="173"></rect>
<rect stroke-width="2" stroke="#2D3748" height="32" width="207" y="377" x="173"></rect>
<rect fill="#2D3748" rx="4" height="8" width="191" y="389" x="181"></rect>
<rect fill="#090A15" height="32" width="207" y="409" x="173"></rect>
<rect stroke-width="2" stroke="#2D3748" height="32" width="207" y="409" x="173"></rect>
<rect fill="#2D3748" rx="4" height="8" width="191" y="421" x="181"></rect>
<rect fill="#090A15" height="32" width="32" y="185" x="348"></rect>
<rect stroke-width="2" stroke="#2D3748" height="32" width="32" y="185" x="348"></rect>
<rect fill="#2D3748" rx="4" height="8" width="16" y="197" x="356"></rect>
<rect fill="#090A15" height="32" width="32" y="185" x="173"></rect>
<rect stroke-width="2" stroke="#2D3748" height="32" width="32" y="185" x="173"></rect>
<rect fill="#2D3748" rx="4" height="8" width="16" y="197" x="181"></rect>
</g>
<rect stroke-width="2" stroke="#2D3748" rx="8" height="256" width="207" y="185" x="173"></rect>
</g>
<g filter="url(#filter3_d_10142_187945)">
<g clip-path="url(#clip3_10142_187945)">
<rect fill="#090A15" rx="8" height="256" width="207" y="185" x="318"></rect>
<rect fill="#090A15" height="32" width="143" y="185" x="350"></rect>
<rect stroke-width="2" stroke="#2D3748" height="32" width="143" y="185" x="350"></rect>
<rect fill="#71E8DF" rx="4" height="8" width="127" y="197" x="358"></rect>
<rect fill="#090A15" height="32" width="207" y="217" x="318"></rect>
<rect stroke-width="2" stroke="#2D3748" height="32" width="207" y="217" x="318"></rect>
<rect fill="#4A5568" rx="4" height="8" width="79" y="229" x="326"></rect>
<rect fill="#090A15" height="32" width="207" y="249" x="318"></rect>
<rect stroke-width="2" stroke="#2D3748" height="32" width="207" y="249" x="318"></rect>
<rect fill="#4A5568" rx="4" height="8" width="140" y="261" x="326"></rect>
<rect fill="#090A15" height="32" width="207" y="281" x="318"></rect>
<rect stroke-width="2" stroke="#2D3748" height="32" width="207" y="281" x="318"></rect>
<rect fill="#4A5568" rx="4" height="8" width="191" y="293" x="326"></rect>
<rect fill="#090A15" height="32" width="207" y="313" x="318"></rect>
<rect stroke-width="2" stroke="#2D3748" height="32" width="207" y="313" x="318"></rect>
<rect fill="#4A5568" rx="4" height="8" width="70" y="325" x="326"></rect>
<rect fill="#090A15" height="32" width="207" y="345" x="318"></rect>
<rect stroke-width="2" stroke="#2D3748" height="32" width="207" y="345" x="318"></rect>
<rect fill="#4A5568" rx="4" height="8" width="168" y="357" x="326"></rect>
<rect fill="#090A15" height="32" width="207" y="377" x="318"></rect>
<rect stroke-width="2" stroke="#2D3748" height="32" width="207" y="377" x="318"></rect>
<rect fill="#4A5568" rx="4" height="8" width="107" y="389" x="326"></rect>
<rect fill="#090A15" height="32" width="207" y="409" x="318"></rect>
<rect stroke-width="2" stroke="#2D3748" height="32" width="207" y="409" x="318"></rect>
<rect fill="#4A5568" rx="4" height="8" width="151" y="421" x="326"></rect>
<rect fill="#090A15" height="32" width="32" y="185" x="493"></rect>
<rect stroke-width="2" stroke="#2D3748" height="32" width="32" y="185" x="493"></rect>
<rect fill="#4A5568" rx="4" height="8" width="16" y="197" x="501"></rect>
<rect fill="#090A15" height="32" width="32" y="185" x="318"></rect>
<rect stroke-width="2" stroke="#2D3748" height="32" width="32" y="185" x="318"></rect>
<rect fill="#71E8DF" rx="4" height="8" width="16" y="197" x="326"></rect>
</g>
<rect stroke-width="5" stroke="#71E8DF" rx="8" height="256" width="207" y="185" x="318"></rect>
</g>
<g filter="url(#filter4_ddddddd_10142_187945)">
<path fill="#71E8DF" d="M280.121 316.121C281.293 314.95 281.293 313.05 280.121 311.879L261.029 292.787C259.858 291.615 257.958 291.615 256.787 292.787C255.615 293.958 255.615 295.858 256.787 297.029L273.757 314L256.787 330.971C255.615 332.142 255.615 334.042 256.787 335.213C257.958 336.385 259.858 336.385 261.029 335.213L280.121 316.121ZM-25 317L278 317L278 311L-25 311L-25 317Z"></path>
</g>
<g filter="url(#filter5_ddddddd_10142_187945)">
<path fill="#71E8DF" d="M562.879 316.121C561.707 314.95 561.707 313.05 562.879 311.879L581.971 292.787C583.142 291.615 585.042 291.615 586.213 292.787C587.385 293.958 587.385 295.858 586.213 297.029L569.243 314L586.213 330.971C587.385 332.142 587.385 334.042 586.213 335.213C585.042 336.385 583.142 336.385 581.971 335.213L562.879 316.121ZM868 317L565 317L565 311L868 311L868 317Z"></path>
</g>
<g filter="url(#filter6_dddddd_10142_187945)">
<path fill="#E76900" d="M678.07 451.14C707.38 451.14 731.14 427.38 731.14 398.07C731.14 368.76 707.38 345 678.07 345C648.76 345 625 368.76 625 398.07C625 427.38 648.76 451.14 678.07 451.14Z"></path>
<path fill="url(#paint3_linear_10142_187945)" d="M678.215 449.05C706.374 449.05 729.201 426.223 729.201 398.064C729.201 369.905 706.374 347.078 678.215 347.078C650.056 347.078 627.229 369.905 627.229 398.064C627.229 426.223 650.056 449.05 678.215 449.05Z"></path>
<path fill="url(#paint4_linear_10142_187945)" d="M678.215 445.237C704.262 445.237 725.376 424.122 725.376 398.076C725.376 372.029 704.262 350.914 678.215 350.914C652.168 350.914 631.053 372.029 631.053 398.076C631.053 424.122 652.168 445.237 678.215 445.237Z"></path>
<path fill="#FFE1A6" d="M667.19 381.828C667.169 381.959 667.148 382.086 667.123 382.214C667.116 382.313 667.109 382.412 667.099 382.514C667.12 382.387 667.137 382.26 667.155 382.129C667.169 382.03 667.18 381.927 667.19 381.828Z"></path>
<path fill="#FFE1A6" d="M667.102 382.517C667.113 382.418 667.12 382.315 667.127 382.216C666.95 383.168 666.674 384.063 666.313 384.876C665.015 387.806 662.658 389.67 660.235 389.356C657.815 389.041 656.014 386.635 655.505 383.468C655.363 382.591 655.324 381.653 655.398 380.688C655.381 380.787 655.363 380.886 655.345 380.985C655.324 381.112 655.306 381.239 655.289 381.37C654.673 386.111 656.807 390.297 660.054 390.718C663.302 391.139 666.437 387.64 667.056 382.902C667.074 382.771 667.088 382.644 667.099 382.517H667.102Z"></path>
<path fill="#EAAC1F" d="M662.389 372.785C659.209 372.371 656.141 375.714 655.434 380.303C655.42 380.434 655.409 380.565 655.398 380.692C655.324 381.658 655.363 382.596 655.505 383.473C655.515 383.087 655.543 382.698 655.589 382.305C655.597 382.245 655.604 382.182 655.611 382.121C656.226 377.38 659.177 373.857 662.202 374.249C665.223 374.642 667.176 378.803 666.557 383.544C666.55 383.604 666.54 383.668 666.529 383.728C666.472 384.12 666.398 384.506 666.31 384.878C666.67 384.064 666.946 383.169 667.123 382.217C667.148 382.09 667.169 381.962 667.191 381.831C667.682 377.218 665.57 373.199 662.389 372.785Z"></path>
<path fill="#632900" d="M661.944 376.226C664.633 376.577 666.497 379.779 666.529 383.727C666.536 383.667 666.547 383.607 666.557 383.543C667.173 378.802 665.223 374.641 662.202 374.249C659.181 373.856 656.23 377.38 655.611 382.121C655.604 382.181 655.597 382.245 655.589 382.305C656.633 378.494 659.255 375.876 661.944 376.226Z"></path>
<path fill="#974800" d="M661.944 376.227C659.255 375.876 656.633 378.495 655.589 382.305C655.543 382.701 655.515 383.09 655.505 383.473C656.01 386.639 657.811 389.045 660.235 389.36C662.655 389.675 665.011 387.81 666.313 384.881C666.402 384.506 666.476 384.123 666.532 383.731C666.501 379.782 664.633 376.58 661.947 376.23L661.944 376.227Z"></path>
<path fill="#FFE1A6" d="M698.52 385.113C698.498 385.24 698.474 385.368 698.445 385.491C698.435 385.591 698.424 385.686 698.413 385.785C698.438 385.661 698.459 385.534 698.477 385.407C698.491 385.308 698.505 385.208 698.516 385.109L698.52 385.113Z"></path>
<path fill="#FFE1A6" d="M698.413 385.785C698.424 385.686 698.435 385.587 698.445 385.491C698.247 386.425 697.95 387.299 697.571 388.092C696.209 390.947 693.81 392.719 691.398 392.344C688.985 391.969 687.237 389.556 686.802 386.422C686.681 385.555 686.664 384.631 686.756 383.68C686.735 383.775 686.717 383.874 686.696 383.97C686.671 384.094 686.65 384.221 686.632 384.348C685.91 389.001 687.952 393.183 691.192 393.682C694.43 394.184 697.639 390.816 698.36 386.163C698.382 386.036 698.396 385.909 698.413 385.785Z"></path>
<path fill="#EAAC1F" d="M693.92 376.073C690.75 375.581 687.612 378.797 686.802 383.298C686.784 383.425 686.77 383.552 686.759 383.68C686.664 384.628 686.685 385.551 686.805 386.422C686.826 386.043 686.862 385.661 686.915 385.272C686.922 385.212 686.929 385.152 686.94 385.091C687.661 380.439 690.686 377.043 693.697 377.51C696.708 377.977 698.566 382.127 697.847 386.779C697.837 386.839 697.826 386.899 697.815 386.96C697.752 387.345 697.667 387.72 697.571 388.088C697.95 387.296 698.247 386.422 698.445 385.488C698.47 385.364 698.495 385.237 698.52 385.109C699.11 380.577 697.09 376.561 693.92 376.07V376.073Z"></path>
<path fill="#632900" d="M693.397 379.454C696.075 379.868 697.869 383.073 697.815 386.962C697.826 386.902 697.837 386.841 697.847 386.781C698.569 382.129 696.712 377.975 693.697 377.512C690.686 377.045 687.658 380.441 686.94 385.094C686.929 385.154 686.922 385.214 686.915 385.274C688.04 381.549 690.718 379.037 693.397 379.454Z"></path>
<path fill="#974800" d="M693.396 379.451C690.718 379.037 688.04 381.545 686.915 385.271C686.862 385.66 686.826 386.042 686.805 386.421C687.24 389.552 688.988 391.968 691.401 392.343C693.814 392.718 696.209 390.942 697.575 388.091C697.67 387.723 697.752 387.348 697.819 386.962C697.872 383.07 696.078 379.868 693.4 379.454L693.396 379.451Z"></path>
<path fill="#EBB121" d="M663.129 410.911C666.341 410.221 670.718 409.662 675.852 410.108C682.45 410.681 687.654 412.68 691.065 414.357C691.528 414.583 691.826 415.001 691.914 415.461C692.332 414.668 692.024 413.677 691.214 413.271C687.764 411.54 682.499 409.485 675.83 408.898C670.64 408.441 666.214 409.014 662.966 409.725C662.117 409.913 661.569 410.741 661.728 411.594C661.728 411.604 661.731 411.615 661.735 411.625C661.767 411.802 661.827 411.965 661.912 412.11C662.039 411.526 662.499 411.042 663.129 410.907V410.911Z"></path>
<path fill="#FEDD78" d="M691.879 415.523C691.815 415.629 691.751 415.739 691.688 415.845C691.256 416.577 690.336 416.846 689.575 416.467C685.57 414.472 679.184 412.063 671.206 412.112C668.39 412.13 665.846 412.452 663.645 412.898C662.938 413.043 662.244 412.699 661.912 412.102C661.869 412.3 661.866 412.505 661.905 412.717C661.905 412.728 661.908 412.738 661.912 412.749C662.075 413.609 662.927 414.168 663.801 413.994C665.981 413.559 668.493 413.248 671.28 413.23C679.17 413.181 685.489 415.523 689.448 417.462C690.198 417.83 691.111 417.568 691.536 416.857C691.599 416.75 691.663 416.648 691.723 416.542C691.928 416.199 691.985 415.813 691.914 415.452C691.903 415.477 691.893 415.498 691.879 415.523Z"></path>
<path fill="#874101" d="M663.649 412.903C665.853 412.458 668.393 412.136 671.21 412.118C679.188 412.068 685.574 414.478 689.579 416.473C690.34 416.852 691.26 416.583 691.691 415.851C691.755 415.744 691.819 415.635 691.882 415.529C691.896 415.507 691.907 415.483 691.918 415.458C691.829 414.998 691.532 414.58 691.069 414.354C687.658 412.673 682.45 410.675 675.855 410.105C670.721 409.659 666.345 410.218 663.132 410.908C662.503 411.042 662.043 411.527 661.915 412.111C662.248 412.709 662.941 413.052 663.649 412.907V412.903Z"></path>
<path fill="#FFE19C" d="M709.71 373.423C709.594 373.182 709.459 373.009 709.339 372.871C708.653 372.082 707.641 371.53 706.696 371.183C704.343 370.193 701.895 369.68 699.379 369.528C699.153 369.513 698.962 369.503 698.842 369.499C698.714 369.496 698.58 369.492 698.452 369.492C695.845 369.517 693.315 370.087 690.881 371.084C689.937 371.473 689.271 372.301 688.341 372.737C688.252 372.779 688.022 372.885 687.842 373.126C687.417 373.692 687.502 374.7 687.938 375.167C687.948 375.178 687.955 375.188 687.969 375.199C688.012 375.238 688.054 375.277 688.104 375.305C688.316 375.44 688.525 375.415 688.854 375.394C689.321 375.362 689.929 375.298 690.637 375.164C690.711 375.153 690.786 375.146 690.86 375.135C693.542 374.75 696.298 374.544 699.001 374.544C701.626 374.544 704.322 374.725 706.922 375.093C707.768 375.213 708.504 375.256 709.063 375.277C709.374 375.291 709.576 375.287 709.739 375.185C709.901 375.082 709.969 374.916 709.976 374.725C710.039 374.336 709.898 373.791 709.714 373.416L709.71 373.423Z"></path>
<path fill="#632900" d="M687.708 372.917C687.867 372.553 688.118 372.323 688.21 372.248C688.964 371.654 689.823 371.169 690.754 370.833C693.22 369.938 695.739 369.503 698.318 369.492C698.449 369.492 698.58 369.492 698.707 369.499C698.831 369.503 699.019 369.513 699.245 369.524C701.768 369.669 704.283 370.076 706.6 370.989C707.503 371.343 708.44 371.905 709.197 372.567C709.258 372.616 709.463 372.8 709.633 373.09C709.891 373.533 710.075 374.254 709.693 374.513C709.551 374.608 709.374 374.608 709.07 374.594C708.578 374.573 707.892 374.516 707.064 374.371C704.485 373.908 701.852 373.727 699.241 373.717C699.199 373.717 699.125 373.727 699.118 373.717V373.706C699.111 373.699 699.072 373.706 699.047 373.706C696.337 373.695 693.63 373.901 690.931 374.268C690.053 374.435 689.286 374.541 688.652 374.612C688.366 374.644 688.136 374.647 687.913 374.516C687.417 374.219 687.488 373.409 687.7 372.917H687.708Z"></path>
<path fill="#974800" d="M709.675 374.514C709.456 374.659 709.137 374.62 708.999 374.602C708.546 374.549 707.818 374.486 706.859 374.376C704.234 373.937 701.566 373.743 698.934 373.732C696.209 373.721 693.446 373.905 690.729 374.344C689.802 374.486 689.08 374.57 688.645 374.62C688.497 374.638 688.182 374.673 687.966 374.532C687.916 374.5 687.877 374.461 687.846 374.415C687.902 374.259 687.984 374.11 688.068 373.987C688.281 373.679 688.553 373.488 688.652 373.424C689.445 372.925 690.319 372.515 691.231 372.225C693.598 371.468 696.004 371.043 698.453 370.972C698.576 370.969 698.7 370.969 698.82 370.969C698.937 370.969 699.114 370.972 699.33 370.979C701.764 371.043 704.205 371.333 706.484 372.073C707.4 372.37 708.362 372.855 709.162 373.456C709.226 373.502 709.445 373.668 709.625 373.941C709.703 374.057 709.834 374.259 709.827 374.344C709.827 374.386 709.739 374.468 709.671 374.514H709.675Z"></path>
<path fill="#FFE19C" d="M646.065 370.255C646.171 369.947 646.292 369.696 646.405 369.49C647.031 368.337 647.919 367.307 648.924 366.462C651.05 364.633 653.431 363.306 656.248 362.966C656.481 362.938 656.672 362.92 656.8 362.913C656.931 362.906 657.068 362.896 657.199 362.899C660.086 362.917 662.687 364.045 664.983 365.864C665.988 366.66 666.664 367.764 667.576 368.638C667.665 368.723 667.898 368.953 668.082 369.289C668.517 370.078 668.464 371.019 668.047 371.235C668.036 371.238 668.029 371.245 668.019 371.249C667.98 371.267 667.934 371.277 667.888 371.281C667.682 371.298 667.47 371.164 667.145 370.98C666.678 370.715 666.069 370.368 665.347 369.957C665.273 369.919 665.195 369.88 665.121 369.841C662.542 368.486 659.612 367.75 656.785 367.866C654.015 367.98 651.263 368.914 648.818 370.403C648.128 370.824 647.427 371.256 646.745 371.695C646.447 371.886 646.253 372.006 646.094 372.009C645.934 372.009 645.867 371.889 645.853 371.705C645.779 371.366 645.899 370.739 646.062 370.262L646.065 370.255Z"></path>
<path fill="#632900" d="M668.206 369.154C668.04 368.708 667.785 368.354 667.69 368.227C666.964 367.254 666.076 366.383 665.1 365.665C662.779 363.953 660.178 362.923 657.334 362.898C657.203 362.898 657.065 362.906 656.934 362.913C656.81 362.92 656.616 362.934 656.382 362.962C653.591 363.27 651.068 364.491 649.009 366.238C648.061 367.045 647.233 368.082 646.529 369.122C646.472 369.203 646.281 369.507 646.125 369.897C645.892 370.484 645.74 371.305 646.111 371.326C646.249 371.333 646.416 371.227 646.709 371.036C647.18 370.728 647.841 370.3 648.648 369.766C651.036 368.188 653.704 367.271 656.502 367.07C656.545 367.07 656.623 367.07 656.63 367.063V367.052C656.637 367.045 656.676 367.052 656.701 367.049C659.634 366.942 662.326 367.671 665.011 368.963C665.783 369.401 666.554 369.847 667.307 370.314C667.594 370.491 667.824 370.615 668.036 370.608C668.521 370.59 668.422 369.759 668.199 369.157L668.206 369.154Z"></path>
<path fill="#974800" d="M646.132 371.303C646.348 371.31 646.653 371.084 646.783 370.988C647.452 370.507 648.156 370.086 648.86 369.661C651.302 368.112 654.051 367.174 656.828 367.057C659.679 366.937 662.627 367.659 665.227 369.106C665.935 369.499 666.639 369.888 667.325 370.316C667.474 370.408 667.789 370.61 667.997 370.588C668.043 370.585 668.082 370.567 668.114 370.542C668.05 370.358 667.969 370.171 667.881 370.001C667.661 369.587 667.389 369.258 667.283 369.145C666.508 368.292 665.637 367.493 664.654 366.842C662.379 365.331 659.917 364.411 657.235 364.344C657.111 364.344 656.98 364.344 656.856 364.351C656.739 364.354 656.555 364.365 656.333 364.383C653.661 364.609 651.199 365.663 649.15 367.241C648.181 367.988 647.353 368.968 646.585 369.962C646.525 370.043 646.32 370.337 646.157 370.712C646.086 370.875 645.952 371.14 645.977 371.232C645.984 371.261 646.065 371.299 646.132 371.303Z"></path>
<path fill="#EC8C02" d="M685.079 424.257C686.069 423.988 688.288 423.38 689.363 424.47C690.117 425.234 689.958 426.476 689.936 426.617C689.784 427.689 689.016 428.609 687.934 429.023C683.575 431.238 679.213 433.456 674.854 435.671C675.109 435.961 675.954 437.001 675.915 438.469C675.869 440.097 674.751 441.6 673.074 442.287C674.412 442.481 675.547 443.338 676 444.533C676.58 446.058 675.972 447.902 674.472 448.903C672.742 448.878 670.704 448.726 668.447 448.309C666.536 447.955 664.845 447.484 663.398 446.992C663.26 445.935 661.961 434.818 669.168 428.75C671.461 426.819 671.645 427.905 685.075 424.254L685.079 424.257Z" opacity="0.3"></path>
<path fill="#F3AC19" d="M662.938 455.491C659.878 455.668 657.511 455.657 656.605 455.65C655.243 455.639 653.484 455.604 651.425 455.508C651.139 455.494 650.856 455.469 650.573 455.427C648.588 455.123 645.527 454.284 643.083 451.8C639.884 448.549 639.502 444.279 639.202 440.886C638.933 437.875 639.269 435.55 639.552 433.665C640.068 430.215 640.974 427.346 641.823 425.188C642.212 424.201 642.414 423.153 642.414 422.095V412.875C642.414 412.355 642.524 411.839 642.757 411.372C642.927 411.032 643.182 410.675 643.56 410.374C643.705 410.261 644.289 409.812 645.121 409.737C647.325 409.539 648.998 412.164 649.193 412.472C649.504 412.96 649.968 413.831 650.169 415.08C650.198 415.253 650.212 415.43 650.212 415.607C650.222 418.179 650.233 420.751 650.244 423.323C650.424 423.967 650.827 425.014 651.772 425.835C652.469 426.444 653.449 426.918 655.844 427.077C657.454 427.183 659.92 427.158 662.938 426.376C669.77 424.848 676.602 423.32 683.43 421.791C683.504 421.773 683.579 421.756 683.649 421.735C684.258 421.558 685.532 421.296 686.819 421.862C687.219 422.039 687.817 422.301 688.167 422.941C688.659 423.843 688.284 424.83 688.167 425.138C688.008 425.559 687.778 425.895 687.538 426.161C687.173 426.56 686.706 426.861 686.2 427.052C680.685 429.118 675.169 431.188 669.653 433.254C671.341 433.735 672.568 435.197 672.738 436.913C672.897 438.522 672.105 440.097 670.7 440.953C672.13 441.816 672.94 443.398 672.77 444.993C672.551 447.052 670.817 448.075 670.637 448.174C670.817 448.464 671.924 450.318 671.178 452.151C670.615 453.531 669.324 454.111 668.238 454.603C667.173 455.084 666.161 455.307 662.934 455.494L662.938 455.491Z"></path>
<path fill="#F8C729" d="M643.069 411.016C642.046 412.166 642.916 413.722 643.419 418.683C643.553 420.009 643.684 421.354 643.663 423.105C643.631 425.642 643.306 426.594 642.984 429.682C642.708 432.332 642.531 434.002 642.64 435.743C642.722 437.055 642.973 441.067 645.4 444.192C649.716 449.743 657.949 448.681 664.151 447.882C664.64 447.818 665.584 447.662 666.359 446.948C667.336 446.049 667.732 444.545 667.463 443.215C667.247 442.157 666.66 441.453 666.359 441.135C666.642 440.841 668.019 439.359 667.973 437.105C667.909 434.211 665.556 432.619 665.344 432.481C669.798 431.175 674.536 429.576 679.471 427.602C681.987 426.597 684.392 425.557 686.681 424.506C687.269 424.06 687.909 423.452 687.785 422.935C687.541 421.948 684.605 421.892 683.628 421.874C678.102 421.771 674.408 423.696 667.636 425.649C661.965 427.287 658.416 427.708 654.783 426.838C652.126 426.201 651.238 425.309 650.796 424.672C649.366 422.61 650.948 420.756 650.244 416.825C650.173 416.429 649.111 410.839 645.959 410.206C645.071 410.025 643.794 410.198 643.076 411.012L643.069 411.016Z"></path>
<path fill="#FDDC66" d="M645.828 414.702C644.848 414.67 644.363 413.439 644.342 413.386C644.105 412.756 644.052 411.713 644.597 411.391C645.174 411.055 646.15 411.677 646.592 412.367C646.928 412.891 647.204 413.832 646.72 414.363C646.398 414.713 645.906 414.706 645.828 414.702Z"></path>
<path fill="#FDDC66" d="M652.614 433.074C651.117 432.989 648.719 432.851 646.759 431.079C646.373 430.732 644.339 428.818 644.512 426.2C644.53 425.91 644.654 424.02 645.616 423.699C646.596 423.369 647.438 425.018 649.773 426.667C649.773 426.667 652.536 428.62 655.883 429.168C658.767 429.642 661.098 428.91 662.206 428.574C671.164 425.857 684.608 423.391 684.732 423.78C684.799 423.996 680.911 425.482 677.242 426.674C674.543 427.548 674.238 427.523 670.817 428.531C666.097 429.922 663.373 430.941 657.985 432.335C656 432.848 654.553 433.18 652.618 433.071L652.614 433.074Z"></path>
<path stroke-linejoin="round" stroke-linecap="round" stroke-width="1.68055" stroke="#E76900" d="M662.938 455.491C659.878 455.668 657.511 455.657 656.605 455.65C655.243 455.639 653.484 455.604 651.425 455.508C651.139 455.494 650.856 455.469 650.573 455.427C648.588 455.123 645.527 454.284 643.083 451.8C639.884 448.549 639.502 444.279 639.202 440.886C638.933 437.875 639.269 435.55 639.552 433.665C640.068 430.215 640.974 427.346 641.823 425.188C642.212 424.201 642.414 423.153 642.414 422.095V412.875C642.414 412.355 642.524 411.839 642.757 411.372C642.927 411.032 643.182 410.675 643.56 410.374C643.705 410.261 644.289 409.812 645.121 409.737C647.325 409.539 648.998 412.164 649.193 412.472C649.504 412.96 649.968 413.831 650.169 415.08C650.198 415.253 650.212 415.43 650.212 415.607C650.222 417.875 650.229 420.146 650.24 422.414C650.244 423.666 650.742 424.876 651.655 425.733C651.694 425.768 651.73 425.803 651.772 425.835C652.469 426.444 653.449 426.918 655.844 427.077C657.454 427.183 659.92 427.158 662.938 426.376C669.77 424.848 676.602 423.32 683.43 421.791C683.504 421.773 683.579 421.756 683.649 421.735C684.258 421.558 685.532 421.296 686.819 421.862C687.219 422.039 687.817 422.301 688.167 422.941C688.659 423.843 688.284 424.83 688.167 425.138C688.008 425.559 687.778 425.895 687.538 426.161C687.173 426.56 686.706 426.861 686.2 427.052C680.685 429.118 675.169 431.188 669.653 433.254C671.341 433.735 672.568 435.197 672.738 436.913C672.897 438.522 672.105 440.097 670.7 440.953C672.13 441.816 672.94 443.398 672.77 444.993C672.551 447.052 670.817 448.075 670.637 448.174C670.817 448.464 671.924 450.318 671.178 452.151C670.615 453.531 669.324 454.111 668.238 454.603C667.173 455.084 666.161 455.307 662.934 455.494L662.938 455.491Z"></path>
</g>
</g>
<defs>
<filter color-interpolation-filters="sRGB" filterUnits="userSpaceOnUse" height="426.985" width="377.985" y="166.037" x="380.508" id="filter0_d_10142_187945">
<feFlood result="BackgroundImageFix" flood-opacity="0"></feFlood>
<feColorMatrix result="hardAlpha" values="0 0 0 0 0 0 0 0 0 0 0 0 0 0 0 0 0 0 127 0" type="matrix" in="SourceAlpha"></feColorMatrix>
<feOffset dy="66.5295"></feOffset>
<feGaussianBlur stdDeviation="42.2462"></feGaussianBlur>
<feColorMatrix values="0 0 0 0 0.286275 0 0 0 0 1 0 0 0 0 0.835294 0 0 0 0.388181 0" type="matrix"></feColorMatrix>
<feBlend result="effect1_dropShadow_10142_187945" in2="BackgroundImageFix" mode="normal"></feBlend>
<feBlend result="shape" in2="effect1_dropShadow_10142_187945" in="SourceGraphic" mode="normal"></feBlend>
</filter>
<filter color-interpolation-filters="sRGB" filterUnits="userSpaceOnUse" height="93.187" width="716.452" y="100.914" x="64.6542" id="filter1_dddddd_10142_187945">
<feFlood result="BackgroundImageFix" flood-opacity="0"></feFlood>
<feColorMatrix result="hardAlpha" values="0 0 0 0 0 0 0 0 0 0 0 0 0 0 0 0 0 0 127 0" type="matrix" in="SourceAlpha"></feColorMatrix>
<feOffset dy="0.648328"></feOffset>
<feGaussianBlur stdDeviation="0.259331"></feGaussianBlur>
<feColorMatrix values="0 0 0 0 0 0 0 0 0 0 0 0 0 0 0 0 0 0 0.129327 0" type="matrix"></feColorMatrix>
<feBlend result="effect1_dropShadow_10142_187945" in2="BackgroundImageFix" mode="normal"></feBlend>
<feColorMatrix result="hardAlpha" values="0 0 0 0 0 0 0 0 0 0 0 0 0 0 0 0 0 0 127 0" type="matrix" in="SourceAlpha"></feColorMatrix>
<feOffset dy="1.55802"></feOffset>
<feGaussianBlur stdDeviation="0.623209"></feGaussianBlur>
<feColorMatrix values="0 0 0 0 0 0 0 0 0 0 0 0 0 0 0 0 0 0 0.185791 0" type="matrix"></feColorMatrix>
<feBlend result="effect2_dropShadow_10142_187945" in2="effect1_dropShadow_10142_187945" mode="normal"></feBlend>
<feColorMatrix result="hardAlpha" values="0 0 0 0 0 0 0 0 0 0 0 0 0 0 0 0 0 0 127 0" type="matrix" in="SourceAlpha"></feColorMatrix>
<feOffset dy="2.93362"></feOffset>
<feGaussianBlur stdDeviation="1.17345"></feGaussianBlur>
<feColorMatrix values="0 0 0 0 0 0 0 0 0 0 0 0 0 0 0 0 0 0 0.23 0" type="matrix"></feColorMatrix>
<feBlend result="effect3_dropShadow_10142_187945" in2="effect2_dropShadow_10142_187945" mode="normal"></feBlend>
<feColorMatrix result="hardAlpha" values="0 0 0 0 0 0 0 0 0 0 0 0 0 0 0 0 0 0 127 0" type="matrix" in="SourceAlpha"></feColorMatrix>
<feOffset dy="5.23307"></feOffset>
<feGaussianBlur stdDeviation="2.09323"></feGaussianBlur>
<feColorMatrix values="0 0 0 0 0 0 0 0 0 0 0 0 0 0 0 0 0 0 0.274209 0" type="matrix"></feColorMatrix>
<feBlend result="effect4_dropShadow_10142_187945" in2="effect3_dropShadow_10142_187945" mode="normal"></feBlend>
<feColorMatrix result="hardAlpha" values="0 0 0 0 0 0 0 0 0 0 0 0 0 0 0 0 0 0 127 0" type="matrix" in="SourceAlpha"></feColorMatrix>
<feOffset dy="9.78789"></feOffset>
<feGaussianBlur stdDeviation="3.91515"></feGaussianBlur>
<feColorMatrix values="0 0 0 0 0 0 0 0 0 0 0 0 0 0 0 0 0 0 0.330673 0" type="matrix"></feColorMatrix>
<feBlend result="effect5_dropShadow_10142_187945" in2="effect4_dropShadow_10142_187945" mode="normal"></feBlend>
<feColorMatrix result="hardAlpha" values="0 0 0 0 0 0 0 0 0 0 0 0 0 0 0 0 0 0 127 0" type="matrix" in="SourceAlpha"></feColorMatrix>
<feOffset dy="23.4285"></feOffset>
<feGaussianBlur stdDeviation="9.37142"></feGaussianBlur>
<feColorMatrix values="0 0 0 0 0 0 0 0 0 0 0 0 0 0 0 0 0 0 0.46 0" type="matrix"></feColorMatrix>
<feBlend result="effect6_dropShadow_10142_187945" in2="effect5_dropShadow_10142_187945" mode="normal"></feBlend>
<feBlend result="shape" in2="effect6_dropShadow_10142_187945" in="SourceGraphic" mode="normal"></feBlend>
</filter>
<filter color-interpolation-filters="sRGB" filterUnits="userSpaceOnUse" height="426.985" width="377.985" y="166.037" x="87.5076" id="filter2_d_10142_187945">
<feFlood result="BackgroundImageFix" flood-opacity="0"></feFlood>
<feColorMatrix result="hardAlpha" values="0 0 0 0 0 0 0 0 0 0 0 0 0 0 0 0 0 0 127 0" type="matrix" in="SourceAlpha"></feColorMatrix>
<feOffset dy="66.5295"></feOffset>
<feGaussianBlur stdDeviation="42.2462"></feGaussianBlur>
<feColorMatrix values="0 0 0 0 0.286275 0 0 0 0 1 0 0 0 0 0.835294 0 0 0 0.388181 0" type="matrix"></feColorMatrix>
<feBlend result="effect1_dropShadow_10142_187945" in2="BackgroundImageFix" mode="normal"></feBlend>
<feBlend result="shape" in2="effect1_dropShadow_10142_187945" in="SourceGraphic" mode="normal"></feBlend>
</filter>
<filter color-interpolation-filters="sRGB" filterUnits="userSpaceOnUse" height="429.985" width="380.985" y="164.537" x="231.008" id="filter3_d_10142_187945">
<feFlood result="BackgroundImageFix" flood-opacity="0"></feFlood>
<feColorMatrix result="hardAlpha" values="0 0 0 0 0 0 0 0 0 0 0 0 0 0 0 0 0 0 127 0" type="matrix" in="SourceAlpha"></feColorMatrix>
<feOffset dy="66.5295"></feOffset>
<feGaussianBlur stdDeviation="42.2462"></feGaussianBlur>
<feColorMatrix values="0 0 0 0 0.286275 0 0 0 0 1 0 0 0 0 0.835294 0 0 0 0.388181 0" type="matrix"></feColorMatrix>
<feBlend result="effect1_dropShadow_10142_187945" in2="BackgroundImageFix" mode="normal"></feBlend>
<feBlend result="shape" in2="effect1_dropShadow_10142_187945" in="SourceGraphic" mode="normal"></feBlend>
</filter>
<filter color-interpolation-filters="sRGB" filterUnits="userSpaceOnUse" height="240.188" width="502" y="215.906" x="-123" id="filter4_ddddddd_10142_187945">
<feFlood result="BackgroundImageFix" flood-opacity="0"></feFlood>
<feColorMatrix result="hardAlpha" values="0 0 0 0 0 0 0 0 0 0 0 0 0 0 0 0 0 0 127 0" type="matrix" in="SourceAlpha"></feColorMatrix>
<feOffset dy="0.509789"></feOffset>
<feGaussianBlur stdDeviation="1.13544"></feGaussianBlur>
<feColorMatrix values="0 0 0 0 0.172549 0 0 0 0 0.741176 0 0 0 0 0.709804 0 0 0 0.124006 0" type="matrix"></feColorMatrix>
<feBlend result="effect1_dropShadow_10142_187945" in2="BackgroundImageFix" mode="normal"></feBlend>
<feColorMatrix result="hardAlpha" values="0 0 0 0 0 0 0 0 0 0 0 0 0 0 0 0 0 0 127 0" type="matrix" in="SourceAlpha"></feColorMatrix>
<feOffset dy="1.1853"></feOffset>
<feGaussianBlur stdDeviation="2.63998"></feGaussianBlur>
<feColorMatrix values="0 0 0 0 0.172549 0 0 0 0 0.741176 0 0 0 0 0.709804 0 0 0 0.207853 0" type="matrix"></feColorMatrix>
<feBlend result="effect2_dropShadow_10142_187945" in2="effect1_dropShadow_10142_187945" mode="normal"></feBlend>
<feColorMatrix result="hardAlpha" values="0 0 0 0 0 0 0 0 0 0 0 0 0 0 0 0 0 0 127 0" type="matrix" in="SourceAlpha"></feColorMatrix>
<feOffset dy="2.12852"></feOffset>
<feGaussianBlur stdDeviation="4.7408"></feGaussianBlur>
<feColorMatrix values="0 0 0 0 0.172549 0 0 0 0 0.741176 0 0 0 0 0.709804 0 0 0 0.273929 0" type="matrix"></feColorMatrix>
<feBlend result="effect3_dropShadow_10142_187945" in2="effect2_dropShadow_10142_187945" mode="normal"></feBlend>
<feColorMatrix result="hardAlpha" values="0 0 0 0 0 0 0 0 0 0 0 0 0 0 0 0 0 0 127 0" type="matrix" in="SourceAlpha"></feColorMatrix>
<feOffset dy="3.53256"></feOffset>
<feGaussianBlur stdDeviation="7.86797"></feGaussianBlur>
<feColorMatrix values="0 0 0 0 0.172549 0 0 0 0 0.741176 0 0 0 0 0.709804 0 0 0 0.333646 0" type="matrix"></feColorMatrix>
<feBlend result="effect4_dropShadow_10142_187945" in2="effect3_dropShadow_10142_187945" mode="normal"></feBlend>
<feColorMatrix result="hardAlpha" values="0 0 0 0 0 0 0 0 0 0 0 0 0 0 0 0 0 0 127 0" type="matrix" in="SourceAlpha"></feColorMatrix>
<feOffset dy="5.81977"></feOffset>
<feGaussianBlur stdDeviation="12.9622"></feGaussianBlur>
<feColorMatrix values="0 0 0 0 0.172549 0 0 0 0 0.741176 0 0 0 0 0.709804 0 0 0 0.397055 0" type="matrix"></feColorMatrix>
<feBlend result="effect5_dropShadow_10142_187945" in2="effect4_dropShadow_10142_187945" mode="normal"></feBlend>
<feColorMatrix result="hardAlpha" values="0 0 0 0 0 0 0 0 0 0 0 0 0 0 0 0 0 0 127 0" type="matrix" in="SourceAlpha"></feColorMatrix>
<feOffset dy="10.1713"></feOffset>
<feGaussianBlur stdDeviation="22.6542"></feGaussianBlur>
<feColorMatrix values="0 0 0 0 0.172549 0 0 0 0 0.741176 0 0 0 0 0.709804 0 0 0 0.480787 0" type="matrix"></feColorMatrix>
<feBlend result="effect6_dropShadow_10142_187945" in2="effect5_dropShadow_10142_187945" mode="normal"></feBlend>
<feColorMatrix result="hardAlpha" values="0 0 0 0 0 0 0 0 0 0 0 0 0 0 0 0 0 0 127 0" type="matrix" in="SourceAlpha"></feColorMatrix>
<feOffset dy="22"></feOffset>
<feGaussianBlur stdDeviation="49"></feGaussianBlur>
<feColorMatrix values="0 0 0 0 0.172549 0 0 0 0 0.741176 0 0 0 0 0.709804 0 0 0 0.67 0" type="matrix"></feColorMatrix>
<feBlend result="effect7_dropShadow_10142_187945" in2="effect6_dropShadow_10142_187945" mode="normal"></feBlend>
<feBlend result="shape" in2="effect7_dropShadow_10142_187945" in="SourceGraphic" mode="normal"></feBlend>
</filter>
<filter color-interpolation-filters="sRGB" filterUnits="userSpaceOnUse" height="240.188" width="502" y="215.906" x="464" id="filter5_ddddddd_10142_187945">
<feFlood result="BackgroundImageFix" flood-opacity="0"></feFlood>
<feColorMatrix result="hardAlpha" values="0 0 0 0 0 0 0 0 0 0 0 0 0 0 0 0 0 0 127 0" type="matrix" in="SourceAlpha"></feColorMatrix>
<feOffset dy="0.509789"></feOffset>
<feGaussianBlur stdDeviation="1.13544"></feGaussianBlur>
<feColorMatrix values="0 0 0 0 0.172549 0 0 0 0 0.741176 0 0 0 0 0.709804 0 0 0 0.124006 0" type="matrix"></feColorMatrix>
<feBlend result="effect1_dropShadow_10142_187945" in2="BackgroundImageFix" mode="normal"></feBlend>
<feColorMatrix result="hardAlpha" values="0 0 0 0 0 0 0 0 0 0 0 0 0 0 0 0 0 0 127 0" type="matrix" in="SourceAlpha"></feColorMatrix>
<feOffset dy="1.1853"></feOffset>
<feGaussianBlur stdDeviation="2.63998"></feGaussianBlur>
<feColorMatrix values="0 0 0 0 0.172549 0 0 0 0 0.741176 0 0 0 0 0.709804 0 0 0 0.207853 0" type="matrix"></feColorMatrix>
<feBlend result="effect2_dropShadow_10142_187945" in2="effect1_dropShadow_10142_187945" mode="normal"></feBlend>
<feColorMatrix result="hardAlpha" values="0 0 0 0 0 0 0 0 0 0 0 0 0 0 0 0 0 0 127 0" type="matrix" in="SourceAlpha"></feColorMatrix>
<feOffset dy="2.12852"></feOffset>
<feGaussianBlur stdDeviation="4.7408"></feGaussianBlur>
<feColorMatrix values="0 0 0 0 0.172549 0 0 0 0 0.741176 0 0 0 0 0.709804 0 0 0 0.273929 0" type="matrix"></feColorMatrix>
<feBlend result="effect3_dropShadow_10142_187945" in2="effect2_dropShadow_10142_187945" mode="normal"></feBlend>
<feColorMatrix result="hardAlpha" values="0 0 0 0 0 0 0 0 0 0 0 0 0 0 0 0 0 0 127 0" type="matrix" in="SourceAlpha"></feColorMatrix>
<feOffset dy="3.53256"></feOffset>
<feGaussianBlur stdDeviation="7.86797"></feGaussianBlur>
<feColorMatrix values="0 0 0 0 0.172549 0 0 0 0 0.741176 0 0 0 0 0.709804 0 0 0 0.333646 0" type="matrix"></feColorMatrix>
<feBlend result="effect4_dropShadow_10142_187945" in2="effect3_dropShadow_10142_187945" mode="normal"></feBlend>
<feColorMatrix result="hardAlpha" values="0 0 0 0 0 0 0 0 0 0 0 0 0 0 0 0 0 0 127 0" type="matrix" in="SourceAlpha"></feColorMatrix>
<feOffset dy="5.81977"></feOffset>
<feGaussianBlur stdDeviation="12.9622"></feGaussianBlur>
<feColorMatrix values="0 0 0 0 0.172549 0 0 0 0 0.741176 0 0 0 0 0.709804 0 0 0 0.397055 0" type="matrix"></feColorMatrix>
<feBlend result="effect5_dropShadow_10142_187945" in2="effect4_dropShadow_10142_187945" mode="normal"></feBlend>
<feColorMatrix result="hardAlpha" values="0 0 0 0 0 0 0 0 0 0 0 0 0 0 0 0 0 0 127 0" type="matrix" in="SourceAlpha"></feColorMatrix>
<feOffset dy="10.1713"></feOffset>
<feGaussianBlur stdDeviation="22.6542"></feGaussianBlur>
<feColorMatrix values="0 0 0 0 0.172549 0 0 0 0 0.741176 0 0 0 0 0.709804 0 0 0 0.480787 0" type="matrix"></feColorMatrix>
<feBlend result="effect6_dropShadow_10142_187945" in2="effect5_dropShadow_10142_187945" mode="normal"></feBlend>
<feColorMatrix result="hardAlpha" values="0 0 0 0 0 0 0 0 0 0 0 0 0 0 0 0 0 0 127 0" type="matrix" in="SourceAlpha"></feColorMatrix>
<feOffset dy="22"></feOffset>
<feGaussianBlur stdDeviation="49"></feGaussianBlur>
<feColorMatrix values="0 0 0 0 0.172549 0 0 0 0 0.741176 0 0 0 0 0.709804 0 0 0 0.67 0" type="matrix"></feColorMatrix>
<feBlend result="effect7_dropShadow_10142_187945" in2="effect6_dropShadow_10142_187945" mode="normal"></feBlend>
<feBlend result="shape" in2="effect7_dropShadow_10142_187945" in="SourceGraphic" mode="normal"></feBlend>
</filter>
<filter color-interpolation-filters="sRGB" filterUnits="userSpaceOnUse" height="340" width="466" y="314" x="445" id="filter6_dddddd_10142_187945">
<feFlood result="BackgroundImageFix" flood-opacity="0"></feFlood>
<feColorMatrix result="hardAlpha" values="0 0 0 0 0 0 0 0 0 0 0 0 0 0 0 0 0 0 127 0" type="matrix" in="SourceAlpha"></feColorMatrix>
<feOffset dy="2.76726"></feOffset>
<feGaussianBlur stdDeviation="1.1069"></feGaussianBlur>
<feColorMatrix values="0 0 0 0 0.0117647 0 0 0 0 0.0705882 0 0 0 0 0.0392157 0 0 0 0.112458 0" type="matrix"></feColorMatrix>
<feBlend result="effect1_dropShadow_10142_187945" in2="BackgroundImageFix" mode="normal"></feBlend>
<feColorMatrix result="hardAlpha" values="0 0 0 0 0 0 0 0 0 0 0 0 0 0 0 0 0 0 127 0" type="matrix" in="SourceAlpha"></feColorMatrix>
<feOffset dy="6.6501"></feOffset>
<feGaussianBlur stdDeviation="2.66004"></feGaussianBlur>
<feColorMatrix values="0 0 0 0 0.0117647 0 0 0 0 0.0705882 0 0 0 0 0.0392157 0 0 0 0.161557 0" type="matrix"></feColorMatrix>
<feBlend result="effect2_dropShadow_10142_187945" in2="effect1_dropShadow_10142_187945" mode="normal"></feBlend>
<feColorMatrix result="hardAlpha" values="0 0 0 0 0 0 0 0 0 0 0 0 0 0 0 0 0 0 127 0" type="matrix" in="SourceAlpha"></feColorMatrix>
<feOffset dy="12.5216"></feOffset>
<feGaussianBlur stdDeviation="5.00862"></feGaussianBlur>
<feColorMatrix values="0 0 0 0 0.0117647 0 0 0 0 0.0705882 0 0 0 0 0.0392157 0 0 0 0.2 0" type="matrix"></feColorMatrix>
<feBlend result="effect3_dropShadow_10142_187945" in2="effect2_dropShadow_10142_187945" mode="normal"></feBlend>
<feColorMatrix result="hardAlpha" values="0 0 0 0 0 0 0 0 0 0 0 0 0 0 0 0 0 0 127 0" type="matrix" in="SourceAlpha"></feColorMatrix>
<feOffset dy="22.3363"></feOffset>
<feGaussianBlur stdDeviation="8.93452"></feGaussianBlur>
<feColorMatrix values="0 0 0 0 0.0117647 0 0 0 0 0.0705882 0 0 0 0 0.0392157 0 0 0 0.238443 0" type="matrix"></feColorMatrix>
<feBlend result="effect4_dropShadow_10142_187945" in2="effect3_dropShadow_10142_187945" mode="normal"></feBlend>
<feColorMatrix result="hardAlpha" values="0 0 0 0 0 0 0 0 0 0 0 0 0 0 0 0 0 0 127 0" type="matrix" in="SourceAlpha"></feColorMatrix>
<feOffset dy="41.7776"></feOffset>
<feGaussianBlur stdDeviation="16.711"></feGaussianBlur>
<feColorMatrix values="0 0 0 0 0.0117647 0 0 0 0 0.0705882 0 0 0 0 0.0392157 0 0 0 0.287542 0" type="matrix"></feColorMatrix>
<feBlend result="effect5_dropShadow_10142_187945" in2="effect4_dropShadow_10142_187945" mode="normal"></feBlend>
<feColorMatrix result="hardAlpha" values="0 0 0 0 0 0 0 0 0 0 0 0 0 0 0 0 0 0 127 0" type="matrix" in="SourceAlpha"></feColorMatrix>
<feOffset dy="100"></feOffset>
<feGaussianBlur stdDeviation="40"></feGaussianBlur>
<feColorMatrix values="0 0 0 0 0.0117647 0 0 0 0 0.0705882 0 0 0 0 0.0392157 0 0 0 0.4 0" type="matrix"></feColorMatrix>
<feBlend result="effect6_dropShadow_10142_187945" in2="effect5_dropShadow_10142_187945" mode="normal"></feBlend>
<feBlend result="shape" in2="effect6_dropShadow_10142_187945" in="SourceGraphic" mode="normal"></feBlend>
</filter>
<linearGradient gradientUnits="userSpaceOnUse" y2="474" x2="422" y1="0" x1="422" id="paint0_linear_10142_187945">
<stop stop-color="#090A15"></stop>
<stop stop-color="#0D3A38" offset="0.955752"></stop>
</linearGradient>
<radialGradient gradientTransform="translate(422 355.876) rotate(90) scale(529.676 495.147)" gradientUnits="userSpaceOnUse" r="1" cy="0" cx="0" id="paint1_radial_10142_187945">
<stop stop-opacity="0.11" stop-color="#71E8DF"></stop>
<stop stop-opacity="0" stop-color="#71E8DF" offset="1"></stop>
</radialGradient>
<radialGradient gradientTransform="translate(422 458.5) rotate(90) scale(300 534.177)" gradientUnits="userSpaceOnUse" r="1" cy="0" cx="0" id="paint2_radial_10142_187945">
<stop stop-color="#71E8DF"></stop>
<stop stop-opacity="0" stop-color="#71E8DF" offset="1"></stop>
</radialGradient>
<linearGradient gradientUnits="userSpaceOnUse" y2="347.078" x2="678.215" y1="449.05" x1="678.215" id="paint3_linear_10142_187945">
<stop stop-color="#FCCF17"></stop>
<stop stop-color="#FCCF17" offset="1"></stop>
</linearGradient>
<linearGradient gradientUnits="userSpaceOnUse" y2="350.914" x2="678.215" y1="445.237" x1="678.215" id="paint4_linear_10142_187945">
<stop stop-color="#FCCF17"></stop>
<stop stop-color="#F6CC2C" offset="0.5"></stop>
<stop stop-color="#FAF7C9" offset="1"></stop>
</linearGradient>
<clipPath id="clip0_10142_187945">
<rect fill="white" height="474" width="844"></rect>
</clipPath>
<clipPath id="clip1_10142_187945">
<rect fill="white" rx="8" height="256" width="207" y="185" x="466"></rect>
</clipPath>
<clipPath id="clip2_10142_187945">
<rect fill="white" rx="8" height="256" width="207" y="185" x="173"></rect>
</clipPath>
<clipPath id="clip3_10142_187945">
<rect fill="white" rx="8" height="256" width="207" y="185" x="318"></rect>
</clipPath>
</defs>
</svg>
