<svg xmlns:xlink="http://www.w3.org/1999/xlink" xmlns="http://www.w3.org/2000/svg" width="844" viewBox="0 0 844 474" height="474" fill="none"><filter y="120.922" x="30.4878" width="388.742" height="260.369" filterUnits="userSpaceOnUse" color-interpolation-filters="sRGB" id="a"><feFlood result="BackgroundImageFix" flood-opacity="0"></feFlood><feColorMatrix values="0 0 0 0 0 0 0 0 0 0 0 0 0 0 0 0 0 0 127 0" type="matrix" result="hardAlpha" in="SourceAlpha"></feColorMatrix><feOffset dy="1.2446"></feOffset><feGaussianBlur stdDeviation=".497839"></feGaussianBlur><feColorMatrix values="0 0 0 0 0 0 0 0 0 0 0 0 0 0 0 0 0 0 0.129327 0" type="matrix"></feColorMatrix><feBlend result="effect1_dropShadow_10271_188375" mode="normal" in2="BackgroundImageFix"></feBlend><feColorMatrix values="0 0 0 0 0 0 0 0 0 0 0 0 0 0 0 0 0 0 127 0" type="matrix" result="hardAlpha" in="SourceAlpha"></feColorMatrix><feOffset dy="2.99094"></feOffset><feGaussianBlur stdDeviation="1.19638"></feGaussianBlur><feColorMatrix values="0 0 0 0 0 0 0 0 0 0 0 0 0 0 0 0 0 0 0.185791 0" type="matrix"></feColorMatrix><feBlend result="effect2_dropShadow_10271_188375" mode="normal" in2="effect1_dropShadow_10271_188375"></feBlend><feColorMatrix values="0 0 0 0 0 0 0 0 0 0 0 0 0 0 0 0 0 0 127 0" type="matrix" result="hardAlpha" in="SourceAlpha"></feColorMatrix><feOffset dy="5.63167"></feOffset><feGaussianBlur stdDeviation="2.25267"></feGaussianBlur><feColorMatrix values="0 0 0 0 0 0 0 0 0 0 0 0 0 0 0 0 0 0 0.23 0" type="matrix"></feColorMatrix><feBlend result="effect3_dropShadow_10271_188375" mode="normal" in2="effect2_dropShadow_10271_188375"></feBlend><feColorMatrix values="0 0 0 0 0 0 0 0 0 0 0 0 0 0 0 0 0 0 127 0" type="matrix" result="hardAlpha" in="SourceAlpha"></feColorMatrix><feOffset dy="10.0459"></feOffset><feGaussianBlur stdDeviation="4.01838"></feGaussianBlur><feColorMatrix values="0 0 0 0 0 0 0 0 0 0 0 0 0 0 0 0 0 0 0.274209 0" type="matrix"></feColorMatrix><feBlend result="effect4_dropShadow_10271_188375" mode="normal" in2="effect3_dropShadow_10271_188375"></feBlend><feColorMatrix values="0 0 0 0 0 0 0 0 0 0 0 0 0 0 0 0 0 0 127 0" type="matrix" result="hardAlpha" in="SourceAlpha"></feColorMatrix><feOffset dy="18.7898"></feOffset><feGaussianBlur stdDeviation="7.51593"></feGaussianBlur><feColorMatrix values="0 0 0 0 0 0 0 0 0 0 0 0 0 0 0 0 0 0 0.330673 0" type="matrix"></feColorMatrix><feBlend result="effect5_dropShadow_10271_188375" mode="normal" in2="effect4_dropShadow_10271_188375"></feBlend><feBlend result="shape" mode="normal" in2="effect5_dropShadow_10271_188375" in="SourceGraphic"></feBlend></filter><filter y="158" x="513.946" width="240.054" height="271.789" filterUnits="userSpaceOnUse" color-interpolation-filters="sRGB" id="b"><feFlood result="BackgroundImageFix" flood-opacity="0"></feFlood><feColorMatrix values="0 0 0 0 0 0 0 0 0 0 0 0 0 0 0 0 0 0 127 0" type="matrix" result="hardAlpha" in="SourceAlpha"></feColorMatrix><feOffset dy="1.93708"></feOffset><feGaussianBlur stdDeviation=".774832"></feGaussianBlur><feColorMatrix values="0 0 0 0 0.00392157 0 0 0 0 0.0627451 0 0 0 0 0.0588235 0 0 0 0.112458 0" type="matrix"></feColorMatrix><feBlend result="effect1_dropShadow_10271_188375" mode="normal" in2="BackgroundImageFix"></feBlend><feColorMatrix values="0 0 0 0 0 0 0 0 0 0 0 0 0 0 0 0 0 0 127 0" type="matrix" result="hardAlpha" in="SourceAlpha"></feColorMatrix><feOffset dy="4.65507"></feOffset><feGaussianBlur stdDeviation="1.86203"></feGaussianBlur><feColorMatrix values="0 0 0 0 0.00392157 0 0 0 0 0.0627451 0 0 0 0 0.0588235 0 0 0 0.161557 0" type="matrix"></feColorMatrix><feBlend result="effect2_dropShadow_10271_188375" mode="normal" in2="effect1_dropShadow_10271_188375"></feBlend><feColorMatrix values="0 0 0 0 0 0 0 0 0 0 0 0 0 0 0 0 0 0 127 0" type="matrix" result="hardAlpha" in="SourceAlpha"></feColorMatrix><feOffset dy="8.76509"></feOffset><feGaussianBlur stdDeviation="3.50603"></feGaussianBlur><feColorMatrix values="0 0 0 0 0.00392157 0 0 0 0 0.0627451 0 0 0 0 0.0588235 0 0 0 0.2 0" type="matrix"></feColorMatrix><feBlend result="effect3_dropShadow_10271_188375" mode="normal" in2="effect2_dropShadow_10271_188375"></feBlend><feColorMatrix values="0 0 0 0 0 0 0 0 0 0 0 0 0 0 0 0 0 0 127 0" type="matrix" result="hardAlpha" in="SourceAlpha"></feColorMatrix><feOffset dy="15.6354"></feOffset><feGaussianBlur stdDeviation="6.25417"></feGaussianBlur><feColorMatrix values="0 0 0 0 0.00392157 0 0 0 0 0.0627451 0 0 0 0 0.0588235 0 0 0 0.238443 0" type="matrix"></feColorMatrix><feBlend result="effect4_dropShadow_10271_188375" mode="normal" in2="effect3_dropShadow_10271_188375"></feBlend><feColorMatrix values="0 0 0 0 0 0 0 0 0 0 0 0 0 0 0 0 0 0 127 0" type="matrix" result="hardAlpha" in="SourceAlpha"></feColorMatrix><feOffset dy="29.2443"></feOffset><feGaussianBlur stdDeviation="11.6977"></feGaussianBlur><feColorMatrix values="0 0 0 0 0.00392157 0 0 0 0 0.0627451 0 0 0 0 0.0588235 0 0 0 0.287542 0" type="matrix"></feColorMatrix><feBlend result="effect5_dropShadow_10271_188375" mode="normal" in2="effect4_dropShadow_10271_188375"></feBlend><feColorMatrix values="0 0 0 0 0 0 0 0 0 0 0 0 0 0 0 0 0 0 127 0" type="matrix" result="hardAlpha" in="SourceAlpha"></feColorMatrix><feOffset dy="70"></feOffset><feGaussianBlur stdDeviation="28"></feGaussianBlur><feColorMatrix values="0 0 0 0 0.00392157 0 0 0 0 0.0627451 0 0 0 0 0.0588235 0 0 0 0.4 0" type="matrix"></feColorMatrix><feBlend result="effect6_dropShadow_10271_188375" mode="normal" in2="effect5_dropShadow_10271_188375"></feBlend><feBlend result="shape" mode="normal" in2="effect6_dropShadow_10271_188375" in="SourceGraphic"></feBlend></filter><filter y="142.286" x="553.239" width="160.483" height="176.748" filterUnits="userSpaceOnUse" color-interpolation-filters="sRGB" id="c"><feFlood result="BackgroundImageFix" flood-opacity="0"></feFlood><feColorMatrix values="0 0 0 0 0 0 0 0 0 0 0 0 0 0 0 0 0 0 127 0" type="matrix" result="hardAlpha" in="SourceAlpha"></feColorMatrix><feOffset></feOffset><feGaussianBlur stdDeviation="5.86093"></feGaussianBlur><feComposite operator="out" in2="hardAlpha"></feComposite><feColorMatrix values="0 0 0 0 0.443137 0 0 0 0 0.909804 0 0 0 0 0.87451 0 0 0 1 0" type="matrix"></feColorMatrix><feBlend result="effect1_dropShadow_10271_188375" mode="normal" in2="BackgroundImageFix"></feBlend><feBlend result="shape" mode="normal" in2="effect1_dropShadow_10271_188375" in="SourceGraphic"></feBlend></filter><filter y="354" x="373.761" width="191.313" height="203.874" filterUnits="userSpaceOnUse" color-interpolation-filters="sRGB" id="d"><feFlood result="BackgroundImageFix" flood-opacity="0"></feFlood><feColorMatrix values="0 0 0 0 0 0 0 0 0 0 0 0 0 0 0 0 0 0 127 0" type="matrix" result="hardAlpha" in="SourceAlpha"></feColorMatrix><feOffset dy="1.73781"></feOffset><feGaussianBlur stdDeviation=".695122"></feGaussianBlur><feColorMatrix values="0 0 0 0 0.0235294 0 0 0 0 0.054902 0 0 0 0 0.0627451 0 0 0 0.132138 0" type="matrix"></feColorMatrix><feBlend result="effect1_dropShadow_10271_188375" mode="normal" in2="BackgroundImageFix"></feBlend><feColorMatrix values="0 0 0 0 0 0 0 0 0 0 0 0 0 0 0 0 0 0 127 0" type="matrix" result="hardAlpha" in="SourceAlpha"></feColorMatrix><feOffset dy="4.17619"></feOffset><feGaussianBlur stdDeviation="1.67047"></feGaussianBlur><feColorMatrix values="0 0 0 0 0.0235294 0 0 0 0 0.054902 0 0 0 0 0.0627451 0 0 0 0.18983 0" type="matrix"></feColorMatrix><feBlend result="effect2_dropShadow_10271_188375" mode="normal" in2="effect1_dropShadow_10271_188375"></feBlend><feColorMatrix values="0 0 0 0 0 0 0 0 0 0 0 0 0 0 0 0 0 0 127 0" type="matrix" result="hardAlpha" in="SourceAlpha"></feColorMatrix><feOffset dy="7.86339"></feOffset><feGaussianBlur stdDeviation="3.14536"></feGaussianBlur><feColorMatrix values="0 0 0 0 0.0235294 0 0 0 0 0.054902 0 0 0 0 0.0627451 0 0 0 0.235 0" type="matrix"></feColorMatrix><feBlend result="effect3_dropShadow_10271_188375" mode="normal" in2="effect2_dropShadow_10271_188375"></feBlend><feColorMatrix values="0 0 0 0 0 0 0 0 0 0 0 0 0 0 0 0 0 0 127 0" type="matrix" result="hardAlpha" in="SourceAlpha"></feColorMatrix><feOffset dy="14.0269"></feOffset><feGaussianBlur stdDeviation="5.61078"></feGaussianBlur><feColorMatrix values="0 0 0 0 0.0235294 0 0 0 0 0.054902 0 0 0 0 0.0627451 0 0 0 0.28017 0" type="matrix"></feColorMatrix><feBlend result="effect4_dropShadow_10271_188375" mode="normal" in2="effect3_dropShadow_10271_188375"></feBlend><feColorMatrix values="0 0 0 0 0 0 0 0 0 0 0 0 0 0 0 0 0 0 127 0" type="matrix" result="hardAlpha" in="SourceAlpha"></feColorMatrix><feOffset dy="26.2359"></feOffset><feGaussianBlur stdDeviation="10.4943"></feGaussianBlur><feColorMatrix values="0 0 0 0 0.0235294 0 0 0 0 0.054902 0 0 0 0 0.0627451 0 0 0 0.337862 0" type="matrix"></feColorMatrix><feBlend result="effect5_dropShadow_10271_188375" mode="normal" in2="effect4_dropShadow_10271_188375"></feBlend><feColorMatrix values="0 0 0 0 0 0 0 0 0 0 0 0 0 0 0 0 0 0 127 0" type="matrix" result="hardAlpha" in="SourceAlpha"></feColorMatrix><feOffset dy="62.7988"></feOffset><feGaussianBlur stdDeviation="25.1195"></feGaussianBlur><feColorMatrix values="0 0 0 0 0.0235294 0 0 0 0 0.054902 0 0 0 0 0.0627451 0 0 0 0.47 0" type="matrix"></feColorMatrix><feBlend result="effect6_dropShadow_10271_188375" mode="normal" in2="effect5_dropShadow_10271_188375"></feBlend><feBlend result="shape" mode="normal" in2="effect6_dropShadow_10271_188375" in="SourceGraphic"></feBlend></filter><filter y="354" x="478.596" width="191.313" height="203.874" filterUnits="userSpaceOnUse" color-interpolation-filters="sRGB" id="e"><feFlood result="BackgroundImageFix" flood-opacity="0"></feFlood><feColorMatrix values="0 0 0 0 0 0 0 0 0 0 0 0 0 0 0 0 0 0 127 0" type="matrix" result="hardAlpha" in="SourceAlpha"></feColorMatrix><feOffset dy="1.73781"></feOffset><feGaussianBlur stdDeviation=".695122"></feGaussianBlur><feColorMatrix values="0 0 0 0 0.0235294 0 0 0 0 0.054902 0 0 0 0 0.0627451 0 0 0 0.132138 0" type="matrix"></feColorMatrix><feBlend result="effect1_dropShadow_10271_188375" mode="normal" in2="BackgroundImageFix"></feBlend><feColorMatrix values="0 0 0 0 0 0 0 0 0 0 0 0 0 0 0 0 0 0 127 0" type="matrix" result="hardAlpha" in="SourceAlpha"></feColorMatrix><feOffset dy="4.17619"></feOffset><feGaussianBlur stdDeviation="1.67047"></feGaussianBlur><feColorMatrix values="0 0 0 0 0.0235294 0 0 0 0 0.054902 0 0 0 0 0.0627451 0 0 0 0.18983 0" type="matrix"></feColorMatrix><feBlend result="effect2_dropShadow_10271_188375" mode="normal" in2="effect1_dropShadow_10271_188375"></feBlend><feColorMatrix values="0 0 0 0 0 0 0 0 0 0 0 0 0 0 0 0 0 0 127 0" type="matrix" result="hardAlpha" in="SourceAlpha"></feColorMatrix><feOffset dy="7.86339"></feOffset><feGaussianBlur stdDeviation="3.14536"></feGaussianBlur><feColorMatrix values="0 0 0 0 0.0235294 0 0 0 0 0.054902 0 0 0 0 0.0627451 0 0 0 0.235 0" type="matrix"></feColorMatrix><feBlend result="effect3_dropShadow_10271_188375" mode="normal" in2="effect2_dropShadow_10271_188375"></feBlend><feColorMatrix values="0 0 0 0 0 0 0 0 0 0 0 0 0 0 0 0 0 0 127 0" type="matrix" result="hardAlpha" in="SourceAlpha"></feColorMatrix><feOffset dy="14.0269"></feOffset><feGaussianBlur stdDeviation="5.61078"></feGaussianBlur><feColorMatrix values="0 0 0 0 0.0235294 0 0 0 0 0.054902 0 0 0 0 0.0627451 0 0 0 0.28017 0" type="matrix"></feColorMatrix><feBlend result="effect4_dropShadow_10271_188375" mode="normal" in2="effect3_dropShadow_10271_188375"></feBlend><feColorMatrix values="0 0 0 0 0 0 0 0 0 0 0 0 0 0 0 0 0 0 127 0" type="matrix" result="hardAlpha" in="SourceAlpha"></feColorMatrix><feOffset dy="26.2359"></feOffset><feGaussianBlur stdDeviation="10.4943"></feGaussianBlur><feColorMatrix values="0 0 0 0 0.0235294 0 0 0 0 0.054902 0 0 0 0 0.0627451 0 0 0 0.337862 0" type="matrix"></feColorMatrix><feBlend result="effect5_dropShadow_10271_188375" mode="normal" in2="effect4_dropShadow_10271_188375"></feBlend><feColorMatrix values="0 0 0 0 0 0 0 0 0 0 0 0 0 0 0 0 0 0 127 0" type="matrix" result="hardAlpha" in="SourceAlpha"></feColorMatrix><feOffset dy="62.7988"></feOffset><feGaussianBlur stdDeviation="25.1195"></feGaussianBlur><feColorMatrix values="0 0 0 0 0.0235294 0 0 0 0 0.054902 0 0 0 0 0.0627451 0 0 0 0.47 0" type="matrix"></feColorMatrix><feBlend result="effect6_dropShadow_10271_188375" mode="normal" in2="effect5_dropShadow_10271_188375"></feBlend><feBlend result="shape" mode="normal" in2="effect6_dropShadow_10271_188375" in="SourceGraphic"></feBlend></filter><filter y="354" x="583.43" width="191.313" height="203.874" filterUnits="userSpaceOnUse" color-interpolation-filters="sRGB" id="f"><feFlood result="BackgroundImageFix" flood-opacity="0"></feFlood><feColorMatrix values="0 0 0 0 0 0 0 0 0 0 0 0 0 0 0 0 0 0 127 0" type="matrix" result="hardAlpha" in="SourceAlpha"></feColorMatrix><feOffset dy="1.73781"></feOffset><feGaussianBlur stdDeviation=".695122"></feGaussianBlur><feColorMatrix values="0 0 0 0 0.0235294 0 0 0 0 0.054902 0 0 0 0 0.0627451 0 0 0 0.132138 0" type="matrix"></feColorMatrix><feBlend result="effect1_dropShadow_10271_188375" mode="normal" in2="BackgroundImageFix"></feBlend><feColorMatrix values="0 0 0 0 0 0 0 0 0 0 0 0 0 0 0 0 0 0 127 0" type="matrix" result="hardAlpha" in="SourceAlpha"></feColorMatrix><feOffset dy="4.17619"></feOffset><feGaussianBlur stdDeviation="1.67047"></feGaussianBlur><feColorMatrix values="0 0 0 0 0.0235294 0 0 0 0 0.054902 0 0 0 0 0.0627451 0 0 0 0.18983 0" type="matrix"></feColorMatrix><feBlend result="effect2_dropShadow_10271_188375" mode="normal" in2="effect1_dropShadow_10271_188375"></feBlend><feColorMatrix values="0 0 0 0 0 0 0 0 0 0 0 0 0 0 0 0 0 0 127 0" type="matrix" result="hardAlpha" in="SourceAlpha"></feColorMatrix><feOffset dy="7.86339"></feOffset><feGaussianBlur stdDeviation="3.14536"></feGaussianBlur><feColorMatrix values="0 0 0 0 0.0235294 0 0 0 0 0.054902 0 0 0 0 0.0627451 0 0 0 0.235 0" type="matrix"></feColorMatrix><feBlend result="effect3_dropShadow_10271_188375" mode="normal" in2="effect2_dropShadow_10271_188375"></feBlend><feColorMatrix values="0 0 0 0 0 0 0 0 0 0 0 0 0 0 0 0 0 0 127 0" type="matrix" result="hardAlpha" in="SourceAlpha"></feColorMatrix><feOffset dy="14.0269"></feOffset><feGaussianBlur stdDeviation="5.61078"></feGaussianBlur><feColorMatrix values="0 0 0 0 0.0235294 0 0 0 0 0.054902 0 0 0 0 0.0627451 0 0 0 0.28017 0" type="matrix"></feColorMatrix><feBlend result="effect4_dropShadow_10271_188375" mode="normal" in2="effect3_dropShadow_10271_188375"></feBlend><feColorMatrix values="0 0 0 0 0 0 0 0 0 0 0 0 0 0 0 0 0 0 127 0" type="matrix" result="hardAlpha" in="SourceAlpha"></feColorMatrix><feOffset dy="26.2359"></feOffset><feGaussianBlur stdDeviation="10.4943"></feGaussianBlur><feColorMatrix values="0 0 0 0 0.0235294 0 0 0 0 0.054902 0 0 0 0 0.0627451 0 0 0 0.337862 0" type="matrix"></feColorMatrix><feBlend result="effect5_dropShadow_10271_188375" mode="normal" in2="effect4_dropShadow_10271_188375"></feBlend><feColorMatrix values="0 0 0 0 0 0 0 0 0 0 0 0 0 0 0 0 0 0 127 0" type="matrix" result="hardAlpha" in="SourceAlpha"></feColorMatrix><feOffset dy="62.7988"></feOffset><feGaussianBlur stdDeviation="25.1195"></feGaussianBlur><feColorMatrix values="0 0 0 0 0.0235294 0 0 0 0 0.054902 0 0 0 0 0.0627451 0 0 0 0.47 0" type="matrix"></feColorMatrix><feBlend result="effect6_dropShadow_10271_188375" mode="normal" in2="effect5_dropShadow_10271_188375"></feBlend><feBlend result="shape" mode="normal" in2="effect6_dropShadow_10271_188375" in="SourceGraphic"></feBlend></filter><filter y="354" x="688.265" width="191.313" height="203.874" filterUnits="userSpaceOnUse" color-interpolation-filters="sRGB" id="g"><feFlood result="BackgroundImageFix" flood-opacity="0"></feFlood><feColorMatrix values="0 0 0 0 0 0 0 0 0 0 0 0 0 0 0 0 0 0 127 0" type="matrix" result="hardAlpha" in="SourceAlpha"></feColorMatrix><feOffset dy="1.73781"></feOffset><feGaussianBlur stdDeviation=".695122"></feGaussianBlur><feColorMatrix values="0 0 0 0 0.0235294 0 0 0 0 0.054902 0 0 0 0 0.0627451 0 0 0 0.132138 0" type="matrix"></feColorMatrix><feBlend result="effect1_dropShadow_10271_188375" mode="normal" in2="BackgroundImageFix"></feBlend><feColorMatrix values="0 0 0 0 0 0 0 0 0 0 0 0 0 0 0 0 0 0 127 0" type="matrix" result="hardAlpha" in="SourceAlpha"></feColorMatrix><feOffset dy="4.17619"></feOffset><feGaussianBlur stdDeviation="1.67047"></feGaussianBlur><feColorMatrix values="0 0 0 0 0.0235294 0 0 0 0 0.054902 0 0 0 0 0.0627451 0 0 0 0.18983 0" type="matrix"></feColorMatrix><feBlend result="effect2_dropShadow_10271_188375" mode="normal" in2="effect1_dropShadow_10271_188375"></feBlend><feColorMatrix values="0 0 0 0 0 0 0 0 0 0 0 0 0 0 0 0 0 0 127 0" type="matrix" result="hardAlpha" in="SourceAlpha"></feColorMatrix><feOffset dy="7.86339"></feOffset><feGaussianBlur stdDeviation="3.14536"></feGaussianBlur><feColorMatrix values="0 0 0 0 0.0235294 0 0 0 0 0.054902 0 0 0 0 0.0627451 0 0 0 0.235 0" type="matrix"></feColorMatrix><feBlend result="effect3_dropShadow_10271_188375" mode="normal" in2="effect2_dropShadow_10271_188375"></feBlend><feColorMatrix values="0 0 0 0 0 0 0 0 0 0 0 0 0 0 0 0 0 0 127 0" type="matrix" result="hardAlpha" in="SourceAlpha"></feColorMatrix><feOffset dy="14.0269"></feOffset><feGaussianBlur stdDeviation="5.61078"></feGaussianBlur><feColorMatrix values="0 0 0 0 0.0235294 0 0 0 0 0.054902 0 0 0 0 0.0627451 0 0 0 0.28017 0" type="matrix"></feColorMatrix><feBlend result="effect4_dropShadow_10271_188375" mode="normal" in2="effect3_dropShadow_10271_188375"></feBlend><feColorMatrix values="0 0 0 0 0 0 0 0 0 0 0 0 0 0 0 0 0 0 127 0" type="matrix" result="hardAlpha" in="SourceAlpha"></feColorMatrix><feOffset dy="26.2359"></feOffset><feGaussianBlur stdDeviation="10.4943"></feGaussianBlur><feColorMatrix values="0 0 0 0 0.0235294 0 0 0 0 0.054902 0 0 0 0 0.0627451 0 0 0 0.337862 0" type="matrix"></feColorMatrix><feBlend result="effect5_dropShadow_10271_188375" mode="normal" in2="effect4_dropShadow_10271_188375"></feBlend><feColorMatrix values="0 0 0 0 0 0 0 0 0 0 0 0 0 0 0 0 0 0 127 0" type="matrix" result="hardAlpha" in="SourceAlpha"></feColorMatrix><feOffset dy="62.7988"></feOffset><feGaussianBlur stdDeviation="25.1195"></feGaussianBlur><feColorMatrix values="0 0 0 0 0.0235294 0 0 0 0 0.054902 0 0 0 0 0.0627451 0 0 0 0.47 0" type="matrix"></feColorMatrix><feBlend result="effect6_dropShadow_10271_188375" mode="normal" in2="effect5_dropShadow_10271_188375"></feBlend><feBlend result="shape" mode="normal" in2="effect6_dropShadow_10271_188375" in="SourceGraphic"></feBlend></filter><linearGradient y2="474" y1="0" x2="422" x1="422" gradientUnits="userSpaceOnUse" id="h"><stop stop-color="#090a15" offset="0"></stop><stop stop-color="#0d3a38" offset=".955752"></stop></linearGradient><radialGradient r="1" gradientUnits="userSpaceOnUse" gradientTransform="matrix(0 529.676 -495.147 0 422 355.876)" cy="0" cx="0" id="i"><stop stop-opacity=".11" stop-color="#71e8df" offset="0"></stop><stop stop-opacity="0" stop-color="#71e8df" offset="1"></stop></radialGradient><radialGradient r="1" gradientUnits="userSpaceOnUse" gradientTransform="matrix(0 300 -534.177 0 422 458.5)" cy="0" cx="0" id="j"><stop stop-color="#71e8df" offset="0"></stop><stop stop-opacity="0" stop-color="#71e8df" offset="1"></stop></radialGradient><linearGradient y2="393" y1="84" x2="627" x1="627" gradientUnits="userSpaceOnUse" id="k"><stop stop-opacity="0" stop-color="#92efe6" offset="0"></stop><stop stop-color="#92efe6" offset="1"></stop></linearGradient><linearGradient id="l"><stop stop-color="#b4c5cd" offset="0"></stop><stop stop-color="#6c8a98" offset=".718232"></stop><stop stop-color="#6b8692" offset="1"></stop></linearGradient><linearGradient y2="247.563" y1="247.563" xlink:href="#l" x2="697.709" x1="570.169" gradientUnits="userSpaceOnUse" id="m"></linearGradient><linearGradient id="n"><stop stop-color="#648697" offset="0"></stop><stop stop-color="#b8ccd5" offset="1"></stop></linearGradient><linearGradient y2="284.504" y1="224.359" xlink:href="#n" x2="611.444" x1="676.166" gradientUnits="userSpaceOnUse" id="o"></linearGradient><linearGradient id="p"><stop stop-color="#fff" offset="0"></stop><stop stop-opacity="0" stop-color="#fff" offset="1"></stop></linearGradient><radialGradient xlink:href="#p" r="1" gradientUnits="userSpaceOnUse" gradientTransform="matrix(-28.01443714 -22.70670044 19.48403411 -24.0384661 598.184 278.049)" cy="0" cx="0" id="q"></radialGradient><linearGradient id="r"><stop stop-color="#183c56" offset="0"></stop><stop stop-color="#335d7b" offset=".286458"></stop><stop stop-color="#082133" offset="1"></stop></linearGradient><linearGradient y2="231.617" y1="231.617" xlink:href="#r" x2="694.48" x1="573.398" gradientUnits="userSpaceOnUse" id="s"></linearGradient><linearGradient y2="224.984" y1="224.984" xlink:href="#r" x2="694.48" x1="573.397" gradientUnits="userSpaceOnUse" id="t"></linearGradient><linearGradient y2="217.479" y1="217.479" xlink:href="#l" x2="697.709" x1="570.169" gradientUnits="userSpaceOnUse" id="u"></linearGradient><linearGradient y2="244.703" y1="185.001" xlink:href="#n" x2="607.333" x1="676.165" gradientUnits="userSpaceOnUse" id="v"></linearGradient><radialGradient xlink:href="#p" r="1" gradientUnits="userSpaceOnUse" gradientTransform="matrix(-28.01448586 -24.32859545 21.12745066 -24.32835341 598.184 242.526)" cy="0" cx="0" id="w"></radialGradient><linearGradient y2="194.224" y1="194.224" xlink:href="#r" x2="694.48" x1="573.398" gradientUnits="userSpaceOnUse" id="x"></linearGradient><linearGradient y2="186.849" y1="186.849" xlink:href="#r" x2="694.48" x1="573.398" gradientUnits="userSpaceOnUse" id="y"></linearGradient><linearGradient y2="180.397" y1="180.397" xlink:href="#l" x2="697.71" x1="570.169" gradientUnits="userSpaceOnUse" id="z"></linearGradient><linearGradient y2="224.678" y1="163.955" x2="620.953" x1="677.029" gradientUnits="userSpaceOnUse" id="A"><stop stop-color="#b9cad2" offset="0"></stop><stop stop-color="#dbe6eb" offset="1"></stop></linearGradient><radialGradient xlink:href="#p" r="1" gradientUnits="userSpaceOnUse" gradientTransform="matrix(45.7080379 -31.7007594 85.8097291 123.72556442 588.602 201.981)" cy="0" cx="0" id="B"></radialGradient><clipPath id="C"><path d="m0 0h844v474h-844z"></path></clipPath><clipPath id="D"><path d="m440.401 372.922h58.7903v51.9008h-58.7903z"></path></clipPath><mask y="154.008" x="564.961" width="138" maskUnits="userSpaceOnUse" height="154" fill="#000" id="E"><path fill="#fff" d="m564.961 154.008h138v154h-138z"></path><path fill-rule="evenodd" fill="#000" d="m697.458 182.302c.02-.245.03-.49.03-.736 0-13.011-28.551-23.558-63.77-23.558s-63.77 10.547-63.77 23.558c0 .246.01.491.03.736h-.032v22.323c0 1.995.671 3.932 1.935 5.782-1.898 2.274-2.92 4.692-2.92 7.2 0 1.441.338 2.852.985 4.224v19.524c0 2.384.987 4.684 2.821 6.849-1.834 2.108-2.821 4.347-2.821 6.668v.006 20.988c0 15.157 28.551 27.445 63.77 27.445s63.77-12.288 63.77-27.445v-20.944-.05c0-2.321-.987-4.561-2.821-6.668 1.834-2.165 2.821-4.465 2.821-6.849v-20.688c.339-1.002.514-2.024.514-3.06 0-2.394-.932-4.706-2.667-6.889 1.405-1.944 2.153-3.986 2.153-6.093v-22.323z" clip-rule="evenodd"></path></mask><mask y="372" x="440" width="60" maskUnits="userSpaceOnUse" height="53" id="F"><path fill="#fff" d="m499.191 372.93h-58.79v51.733h58.79z"></path></mask><g clip-path="url(#C)"><path fill="url(#h)" d="m0 0h844v474h-844z"></path><path fill="url(#i)" d="m0 0h844v474h-844z"></path><path fill-opacity=".2" fill="url(#j)" d="m0 0h844v474h-844z"></path><rect y="84" x="440" width="374" stroke-width="4" stroke-dasharray="8 8" stroke="#71e8df" rx="32" height="309" fill-opacity=".5" fill="url(#k)"></rect><g filter="url(#a)"><path fill="#fff" d="m64.2822 123.085c2.6497 0 4.9877.545 7.014 1.637 2.0653 1.091 3.6434 2.63 4.7345 4.617 1.13 1.948 1.695 4.208 1.695 6.78 0 2.533-.5845 4.774-1.7535 6.722-1.13 1.948-2.7471 3.449-4.8513 4.501s-4.5397 1.578-7.3063 1.578h-7.1309c-.1949 0-.2923.097-.2923.292v14.087c0 .194-.0779.37-.2338.526-.1169.117-.2727.175-.4676.175h-8.2999c-.1948 0-.3702-.058-.526-.175-.1169-.156-.1754-.332-.1754-.526v-39.513c0-.195.0585-.35.1754-.467.1558-.156.3312-.234.526-.234zm-1.5782 18.119c1.5977 0 2.8836-.448 3.8578-1.344 1.0131-.896 1.5197-2.065 1.5197-3.507 0-1.481-.5066-2.669-1.5197-3.565-.9742-.936-2.2601-1.403-3.8578-1.403h-6.0203c-.1949 0-.2923.097-.2923.292v9.235c0 .195.0974.292.2923.292zm33.5888-7.832c1.4028 0 2.4939.253 3.2732.76.3117.195.4286.487.3507.877l-1.3444 8.124c-.0389.468-.3117.604-.8183.409-.7014-.155-1.3638-.233-1.9873-.233-.6624 0-1.169.039-1.5197.117-1.2079.155-2.2406.623-3.0978 1.402-.8183.78-1.2275 1.812-1.2275 3.098v15.373c0 .194-.0779.37-.2338.526-.1169.117-.2728.175-.4676.175h-8.2999c-.1948 0-.3702-.058-.5261-.175-.1169-.156-.1753-.332-.1753-.526v-28.816c0-.195.0584-.351.1753-.468.1559-.156.3313-.234.5261-.234h8.2999c.1948 0 .3507.078.4676.234.1559.117.2338.273.2338.468v1.87c0 .117.039.195.1169.234.078.039.1364 0 .1754-.117 1.5586-2.065 3.5849-3.098 6.0788-3.098zm10.5592-2.279c-1.481 0-2.708-.468-3.683-1.403-.935-.974-1.402-2.202-1.402-3.683 0-1.519.467-2.747 1.402-3.682.975-.935 2.202-1.403 3.683-1.403 1.48 0 2.688.468 3.624 1.403.974.935 1.461 2.163 1.461 3.682 0 1.442-.487 2.65-1.461 3.624-.936.974-2.144 1.462-3.624 1.462zm-4.209 32.907c-.195 0-.37-.058-.526-.175-.117-.156-.175-.332-.175-.526v-28.816c0-.195.058-.351.175-.468.156-.156.331-.234.526-.234h8.3c.195 0 .351.078.468.234.156.117.234.273.234.468v28.816c0 .194-.078.37-.234.526-.117.117-.273.175-.468.175zm25.713.468c-2.767 0-5.183-.371-7.248-1.111-2.065-.779-3.663-1.851-4.793-3.215-1.091-1.403-1.636-3-1.636-4.793v-.643c0-.194.058-.35.175-.467.156-.156.331-.234.526-.234h7.891c.195 0 .35.078.467.234.156.117.234.273.234.467 0 .741.409 1.364 1.228 1.871.818.467 1.85.701 3.097.701 1.092 0 1.949-.175 2.572-.526.663-.389.994-.896.994-1.52 0-.623-.351-1.071-1.052-1.344-.663-.312-1.754-.604-3.273-.877-2.455-.467-4.443-1.032-5.962-1.695-1.988-.818-3.566-1.831-4.735-3.039-1.169-1.247-1.753-2.942-1.753-5.085 0-3.04 1.169-5.436 3.507-7.19 2.377-1.792 5.494-2.688 9.352-2.688 2.611 0 4.89.428 6.838 1.286 1.988.818 3.527 1.987 4.618 3.507 1.091 1.519 1.637 3.273 1.637 5.26 0 .195-.078.37-.234.526-.117.117-.273.176-.468.176h-7.657c-.195 0-.37-.059-.526-.176-.117-.156-.175-.331-.175-.526 0-.74-.351-1.344-1.052-1.812-.702-.467-1.656-.701-2.864-.701-1.091 0-1.988.195-2.689.584-.663.351-.994.858-.994 1.52s.37 1.149 1.111 1.461c.74.273 1.987.585 3.741.935 2.26.468 3.838.838 4.734 1.111 2.416.779 4.286 1.831 5.611 3.156 1.364 1.325 2.046 3.098 2.046 5.319 0 3.04-1.208 5.397-3.624 7.073-2.377 1.636-5.592 2.455-9.644 2.455zm50.544-31.154c3.04 0 5.417.935 7.131 2.805 1.715 1.871 2.572 4.501 2.572 7.891v19.289c0 .194-.078.37-.234.526-.117.117-.273.175-.467.175h-8.242c-.195 0-.37-.058-.526-.175-.117-.156-.175-.332-.175-.526v-17.185c0-1.325-.351-2.396-1.052-3.215-.663-.857-1.559-1.285-2.689-1.285s-2.065.409-2.806 1.227c-.701.818-1.052 1.909-1.052 3.273v17.185c0 .194-.078.37-.234.526-.117.117-.272.175-.467.175h-8.3c-.195 0-.37-.058-.526-.175-.117-.156-.176-.332-.176-.526v-17.185c0-1.325-.37-2.396-1.11-3.215-.702-.857-1.617-1.285-2.747-1.285-1.052 0-1.929.331-2.631.993-.701.663-1.13 1.539-1.285 2.631v18.061c0 .194-.078.37-.234.526-.117.117-.273.175-.468.175h-8.3c-.195 0-.37-.058-.526-.175-.117-.156-.175-.332-.175-.526v-28.816c0-.195.058-.351.175-.468.156-.156.331-.234.526-.234h8.3c.195 0 .351.078.468.234.156.117.234.273.234.468v2.63c0 .156.038.253.116.292.078 0 .156-.078.234-.234 1.52-2.571 4.014-3.857 7.482-3.857 1.948 0 3.663.428 5.143 1.286 1.481.857 2.611 2.104 3.391 3.74.116.234.233.215.35-.058.819-1.676 1.929-2.923 3.332-3.741 1.442-.818 3.098-1.227 4.968-1.227zm25.826 0c2.611 0 4.968.448 7.072 1.344 2.105.857 3.761 2.065 4.969 3.624 1.208 1.52 1.812 3.215 1.812 5.085v19.932c0 .194-.078.37-.234.526-.117.117-.273.175-.468.175h-8.3c-.194 0-.37-.058-.526-.175-.117-.156-.175-.332-.175-.526v-2.046c0-.156-.039-.234-.117-.234-.078-.039-.156.02-.234.175-1.48 2.183-4.013 3.274-7.598 3.274-3.118 0-5.611-.721-7.482-2.163-1.831-1.481-2.747-3.643-2.747-6.488 0-3 1.033-5.319 3.098-6.956 2.104-1.636 5.143-2.454 9.118-2.454h5.67c.195 0 .292-.098.292-.293v-1.11c0-1.052-.351-1.871-1.052-2.455-.702-.624-1.676-.935-2.923-.935-.935 0-1.753.175-2.455.526-.662.35-1.091.798-1.285 1.344-.195.429-.468.623-.819.585l-8.417-1.111c-.467-.078-.701-.253-.701-.526.156-1.715.818-3.254 1.987-4.618 1.208-1.402 2.806-2.494 4.793-3.273 2.027-.818 4.267-1.227 6.722-1.227zm-.935 24.198c1.481 0 2.689-.37 3.624-1.111.974-.779 1.461-1.792 1.461-3.039v-1.403c0-.195-.097-.292-.292-.292h-3.507c-1.481 0-2.631.253-3.449.76-.779.506-1.169 1.266-1.169 2.279 0 .858.292 1.54.877 2.046.584.507 1.403.76 2.455.76zm-139.5088 26.573c2.6497 0 4.9877.545 7.014 1.637 2.0653 1.091 3.6434 2.63 4.7345 4.617 1.13 1.948 1.695 4.208 1.695 6.78 0 2.533-.5845 4.774-1.7535 6.722-1.13 1.948-2.7471 3.449-4.8513 4.501s-4.5397 1.578-7.3063 1.578h-7.1309c-.1949 0-.2923.097-.2923.292v14.087c0 .194-.0779.37-.2338.526-.1169.117-.2727.175-.4676.175h-8.2999c-.1948 0-.3702-.058-.526-.175-.1169-.156-.1754-.332-.1754-.526v-39.513c0-.195.0585-.35.1754-.467.1558-.156.3312-.234.526-.234zm-1.5782 18.119c1.5977 0 2.8836-.448 3.8578-1.344 1.0131-.896 1.5197-2.065 1.5197-3.507 0-1.481-.5066-2.669-1.5197-3.565-.9742-.936-2.2601-1.403-3.8578-1.403h-6.0203c-.1949 0-.2923.097-.2923.292v9.235c0 .195.0974.292.2923.292zm29.4269 23.264c-3.507 0-6.4879-.936-8.9428-2.806s-4.0915-4.403-4.9098-7.599c-.4676-1.597-.7014-3.351-.7014-5.26 0-2.143.2532-4.033.7598-5.67.8963-3.078 2.5523-5.475 4.9683-7.189 2.4549-1.754 5.4164-2.63 8.8844-2.63 3.4291 0 6.3321.876 8.7086 2.63 2.377 1.714 4.034 4.091 4.969 7.131.545 1.753.818 3.624.818 5.611 0 1.793-.214 3.507-.643 5.144-.818 3.273-2.455 5.864-4.91 7.774-2.4546 1.909-5.4551 2.864-9.0011 2.864zm0-8.3c1.1301 0 2.0653-.351 2.8057-1.052.7403-.741 1.2859-1.734 1.6366-2.981.2338-1.014.3507-2.124.3507-3.332 0-1.169-.1364-2.299-.4092-3.39-.3117-1.208-.8378-2.143-1.5781-2.806-.7404-.662-1.6756-.993-2.8057-.993-2.26 0-3.7408 1.266-4.4422 3.799-.2338.935-.3507 2.065-.3507 3.39 0 1.208.1169 2.318.3507 3.332.3118 1.247.8378 2.24 1.5782 2.981.7793.701 1.734 1.052 2.864 1.052zm30.4301 8.3c-2.767 0-5.182-.371-7.248-1.111-2.065-.779-3.663-1.851-4.793-3.215-1.091-1.403-1.636-3-1.636-4.793v-.643c0-.194.058-.35.175-.467.156-.156.331-.234.526-.234h7.891c.195 0 .351.078.468.234.155.117.233.273.233.467 0 .741.409 1.364 1.228 1.871.818.467 1.851.701 3.098.701 1.091 0 1.948-.175 2.571-.526.663-.389.994-.896.994-1.52 0-.623-.351-1.071-1.052-1.344-.662-.312-1.754-.604-3.273-.877-2.455-.467-4.442-1.032-5.962-1.695-1.987-.818-3.566-1.831-4.735-3.039-1.169-1.247-1.753-2.942-1.753-5.085 0-3.04 1.169-5.436 3.507-7.19 2.377-1.792 5.494-2.688 9.352-2.688 2.611 0 4.89.428 6.839 1.286 1.987.818 3.526 1.987 4.617 3.507 1.091 1.519 1.637 3.273 1.637 5.26 0 .195-.078.37-.234.526-.117.117-.273.176-.468.176h-7.657c-.194 0-.37-.059-.526-.176-.117-.156-.175-.331-.175-.526 0-.74-.351-1.344-1.052-1.812-.702-.467-1.656-.701-2.864-.701-1.091 0-1.987.195-2.689.584-.662.351-.994.858-.994 1.52s.371 1.149 1.111 1.461c.74.273 1.987.585 3.741.935 2.26.468 3.838.838 4.734 1.111 2.416.779 4.287 1.831 5.612 3.156 1.363 1.325 2.045 3.098 2.045 5.319 0 3.04-1.208 5.397-3.624 7.073-2.377 1.636-5.591 2.455-9.644 2.455zm34.356-23.614c0 .195-.077.37-.233.526-.117.117-.273.175-.468.175h-5.319c-.195 0-.292.098-.292.292v10.638c0 2.221.896 3.332 2.689 3.332h2.162c.195 0 .351.078.468.234.156.117.234.273.234.467v6.781c0 .428-.234.682-.702.759-1.87.078-3.234.117-4.091.117-3.39 0-5.904-.526-7.54-1.578-1.637-1.091-2.475-3.137-2.514-6.137v-14.613c0-.194-.097-.292-.292-.292h-3.332c-.194 0-.37-.058-.526-.175-.117-.156-.175-.331-.175-.526v-6.371c0-.195.058-.351.175-.468.156-.156.332-.234.526-.234h3.332c.195 0 .292-.097.292-.292v-7.072c0-.195.059-.351.176-.468.155-.156.331-.234.526-.234h7.89c.195 0 .351.078.468.234.156.117.234.273.234.468v7.072c0 .195.097.292.292.292h5.319c.195 0 .351.078.468.234.156.117.233.273.233.468zm21.029-6.371c0-.195.058-.351.175-.468.156-.156.331-.234.526-.234h8.3c.195 0 .351.078.468.234.156.117.234.273.234.468v26.127c0 5.338-1.54 9.157-4.618 11.456s-6.975 3.449-11.69 3.449c-1.754 0-3.604-.156-5.553-.468-.39-.039-.584-.292-.584-.76l.292-7.248c0-.272.078-.467.234-.584.156-.078.35-.078.584 0 1.598.351 3.079.526 4.442.526 2.222 0 3.975-.507 5.261-1.52s1.929-2.611 1.929-4.793l-.409.409c-1.403 1.403-3.429 2.105-6.079 2.105-2.572 0-4.929-.565-7.073-1.695-2.143-1.13-3.682-3.118-4.617-5.962-.624-1.871-.935-4.17-.935-6.897 0-3.001.37-5.456 1.11-7.365.896-2.416 2.319-4.345 4.267-5.787 1.987-1.441 4.286-2.162 6.897-2.162 2.806 0 4.968.857 6.488 2.571.078.078.156.117.234.117.078-.039.117-.117.117-.233zm-.526 18.47c.35-.896.526-2.358.526-4.384 0-1.052-.039-1.87-.117-2.455-.078-.623-.234-1.208-.468-1.753-.311-.858-.818-1.52-1.519-1.988-.663-.506-1.481-.759-2.455-.759-1.832 0-3.137.915-3.916 2.747-.585 1.091-.877 2.533-.877 4.325 0 1.909.253 3.312.76 4.208.35.819.876 1.481 1.578 1.988.701.506 1.539.76 2.513.76 1.987 0 3.312-.897 3.975-2.689zm30.013-19.581c1.402 0 2.493.253 3.273.76.311.195.428.487.35.877l-1.344 8.124c-.039.468-.312.604-.818.409-.702-.155-1.364-.233-1.988-.233-.662 0-1.169.039-1.519.117-1.208.155-2.241.623-3.098 1.402-.818.78-1.228 1.812-1.228 3.098v15.373c0 .194-.077.37-.233.526-.117.117-.273.175-.468.175h-8.3c-.195 0-.37-.058-.526-.175-.117-.156-.175-.332-.175-.526v-28.816c0-.195.058-.351.175-.468.156-.156.331-.234.526-.234h8.3c.195 0 .351.078.468.234.156.117.233.273.233.468v1.87c0 .117.039.195.117.234s.137 0 .176-.117c1.558-2.065 3.585-3.098 6.079-3.098zm32.616 12.859c.195 1.169.253 2.708.175 4.618-.039.467-.292.701-.759.701h-17.828c-.078 0-.156.039-.234.117-.077.039-.097.097-.058.175.078.429.273.994.585 1.695.467.819 1.169 1.481 2.104 1.988.935.506 2.084.76 3.448.76 2.455 0 4.384-.799 5.787-2.397.156-.195.331-.292.526-.292s.351.078.468.234l4.5 5.143c.156.117.234.273.234.468 0 .156-.078.312-.234.467-1.364 1.481-3.059 2.611-5.085 3.391-1.987.779-4.169 1.169-6.546 1.169-3.546 0-6.566-.76-9.06-2.28-2.455-1.559-4.228-3.721-5.319-6.488-.818-1.948-1.228-4.384-1.228-7.306 0-2.026.312-3.975.936-5.845 1.013-2.884 2.669-5.144 4.968-6.78 2.338-1.676 5.105-2.514 8.3-2.514 2.572 0 4.871.565 6.897 1.695 2.026 1.091 3.663 2.631 4.91 4.618 1.286 1.948 2.123 4.169 2.513 6.663zm-14.32-4.617c-2.026 0-3.371.954-4.033 2.864-.156.428-.254.837-.293 1.227-.077.195 0 .292.234.292h8.3c.156 0 .234-.078.234-.233 0-.312-.078-.702-.234-1.169-.273-.975-.779-1.715-1.52-2.222-.701-.506-1.597-.759-2.688-.759zm29.806 22.854c-2.766 0-5.182-.371-7.248-1.111-2.065-.779-3.663-1.851-4.793-3.215-1.091-1.403-1.636-3-1.636-4.793v-.643c0-.194.058-.35.175-.467.156-.156.331-.234.526-.234h7.891c.195 0 .351.078.468.234.155.117.233.273.233.467 0 .741.41 1.364 1.228 1.871.818.467 1.851.701 3.098.701 1.091 0 1.948-.175 2.572-.526.662-.389.993-.896.993-1.52 0-.623-.351-1.071-1.052-1.344-.662-.312-1.753-.604-3.273-.877-2.455-.467-4.442-1.032-5.962-1.695-1.987-.818-3.566-1.831-4.735-3.039-1.169-1.247-1.753-2.942-1.753-5.085 0-3.04 1.169-5.436 3.507-7.19 2.377-1.792 5.494-2.688 9.352-2.688 2.611 0 4.89.428 6.839 1.286 1.987.818 3.526 1.987 4.617 3.507 1.091 1.519 1.637 3.273 1.637 5.26 0 .195-.078.37-.234.526-.117.117-.273.176-.468.176h-7.657c-.194 0-.37-.059-.526-.176-.116-.156-.175-.331-.175-.526 0-.74-.351-1.344-1.052-1.812-.701-.467-1.656-.701-2.864-.701-1.091 0-1.987.195-2.689.584-.662.351-.993.858-.993 1.52s.37 1.149 1.11 1.461c.74.273 1.987.585 3.741.935 2.26.468 3.838.838 4.734 1.111 2.416.779 4.287 1.831 5.612 3.156 1.363 1.325 2.045 3.098 2.045 5.319 0 3.04-1.208 5.397-3.624 7.073-2.377 1.636-5.591 2.455-9.644 2.455zm31.384-33.375c-1.481 0-2.708-.468-3.682-1.403-.935-.974-1.403-2.202-1.403-3.683 0-1.519.468-2.747 1.403-3.682.974-.935 2.201-1.403 3.682-1.403s2.689.468 3.624 1.403c.974.935 1.461 2.163 1.461 3.682 0 1.442-.487 2.65-1.461 3.624-.935.974-2.143 1.462-3.624 1.462zm-4.208 32.907c-.195 0-.37-.058-.526-.175-.117-.156-.176-.332-.176-.526v-28.816c0-.195.059-.351.176-.468.156-.156.331-.234.526-.234h8.3c.195 0 .35.078.467.234.156.117.234.273.234.468v28.816c0 .194-.078.37-.234.526-.117.117-.272.175-.467.175zm29.862-30.686c3.04 0 5.534.974 7.482 2.922 1.948 1.91 2.922 4.52 2.922 7.833v19.23c0 .194-.077.37-.233.526-.117.117-.273.175-.468.175h-8.3c-.195 0-.37-.058-.526-.175-.117-.156-.175-.332-.175-.526v-17.126c0-1.325-.37-2.416-1.111-3.274-.74-.857-1.695-1.285-2.864-1.285-1.208 0-2.182.428-2.922 1.285-.741.819-1.111 1.91-1.111 3.274v17.126c0 .194-.078.37-.234.526-.117.117-.272.175-.467.175h-8.3c-.195 0-.37-.058-.526-.175-.117-.156-.176-.332-.176-.526v-28.816c0-.195.059-.351.176-.468.156-.156.331-.234.526-.234h8.3c.195 0 .35.078.467.234.156.117.234.273.234.468v2.162c0 .156.02.254.059.293.077 0 .155-.059.233-.176 1.481-2.299 3.819-3.448 7.014-3.448zm-254.1943 91.569c-.1948 0-.3701-.058-.526-.175-.1169-.156-.1754-.331-.1754-.526v-13.853c0-.156-.0195-.273-.0584-.351l-11.9823-25.075c-.0779-.156-.1169-.273-.1169-.35 0-.312.2143-.468.643-.468h9.0013c.3896 0 .6624.175.8183.526l6.371 14.788c.1169.234.2338.234.3507 0l6.4296-14.788c.1558-.351.4286-.526.8183-.526h9.0597c.2728 0 .4482.078.5261.234.1169.117.1169.311 0 .584l-12.1576 25.075c-.039.078-.0585.195-.0585.351v13.853c0 .195-.0779.37-.2338.526-.1169.117-.2728.175-.4676.175zm32.896.585c-3.507 0-6.4879-.936-8.9428-2.806s-4.0915-4.403-4.9098-7.599c-.4676-1.597-.7014-3.351-.7014-5.26 0-2.143.2532-4.033.7598-5.67.8963-3.078 2.5523-5.475 4.9683-7.189 2.4549-1.754 5.4164-2.63 8.8844-2.63 3.4291 0 6.3321.876 8.7088 2.63 2.377 1.714 4.033 4.091 4.969 7.131.545 1.753.818 3.624.818 5.611 0 1.793-.214 3.507-.643 5.144-.818 3.273-2.455 5.864-4.91 7.774-2.4548 1.909-5.4553 2.864-9.0013 2.864zm0-8.3c1.1301 0 2.0653-.351 2.8057-1.052.7403-.741 1.2859-1.734 1.6366-2.981.2338-1.014.3507-2.124.3507-3.332 0-1.169-.1364-2.299-.4092-3.39-.3117-1.208-.8378-2.143-1.5781-2.806-.7404-.662-1.6756-.993-2.8057-.993-2.26 0-3.7408 1.266-4.4422 3.799-.2338.935-.3507 2.065-.3507 3.39 0 1.208.1169 2.318.3507 3.332.3118 1.247.8378 2.24 1.5782 2.981.7793.701 1.734 1.052 2.864 1.052zm35.0473-21.685c0-.195.059-.351.176-.468.156-.156.331-.234.526-.234h8.3c.195 0 .35.078.467.234.156.117.234.273.234.468v28.816c0 .194-.078.37-.234.526-.117.117-.272.175-.467.175h-8.3c-.195 0-.37-.058-.526-.175-.117-.156-.176-.332-.176-.526v-2.046c0-.117-.039-.195-.116-.234-.078-.039-.156 0-.234.117-1.559 2.221-4.014 3.332-7.365 3.332-2.961 0-5.358-.936-7.189-2.806-1.832-1.87-2.747-4.481-2.747-7.832v-19.347c0-.195.058-.351.175-.468.156-.156.331-.234.526-.234h8.3c.195 0 .351.078.467.234.156.117.234.273.234.468v17.126c0 1.363.351 2.454 1.052 3.273.702.818 1.656 1.227 2.864 1.227 1.091 0 1.988-.331 2.689-.993.74-.663 1.189-1.54 1.344-2.631zm29.508-1.111c1.403 0 2.494.253 3.273.76.312.195.429.487.351.877l-1.345 8.124c-.039.468-.311.604-.818.409-.701-.155-1.364-.233-1.987-.233-.663 0-1.169.039-1.52.117-1.208.155-2.241.623-3.098 1.402-.818.78-1.227 1.812-1.227 3.098v15.373c0 .194-.078.37-.234.526-.117.117-.273.175-.468.175h-8.3c-.194 0-.37-.058-.526-.175-.117-.156-.175-.332-.175-.526v-28.816c0-.195.058-.351.175-.468.156-.156.332-.234.526-.234h8.3c.195 0 .351.078.468.234.156.117.234.273.234.468v1.87c0 .117.039.195.117.234.077.039.136 0 .175-.117 1.559-2.065 3.585-3.098 6.079-3.098zm45.465-2.689c0 .195-.078.371-.234.526-.117.117-.273.176-.468.176h-18.294c-.195 0-.293.097-.293.292v7.189c0 .195.098.293.293.293h11.748c.195 0 .351.078.468.233.155.117.233.273.233.468v6.839c0 .195-.078.37-.233.526-.117.117-.273.175-.468.175h-11.748c-.195 0-.293.098-.293.292v15.607c0 .194-.078.37-.234.526-.116.117-.272.175-.467.175h-8.3c-.195 0-.37-.058-.526-.175-.117-.156-.175-.332-.175-.526v-39.513c0-.195.058-.35.175-.467.156-.156.331-.234.526-.234h27.588c.195 0 .351.078.468.234.156.117.234.272.234.467zm11.395 2.631c2.611 0 4.968.448 7.072 1.344 2.105.857 3.761 2.065 4.969 3.624 1.208 1.52 1.812 3.215 1.812 5.085v19.932c0 .194-.078.37-.234.526-.117.117-.273.175-.468.175h-8.3c-.195 0-.37-.058-.526-.175-.117-.156-.175-.332-.175-.526v-2.046c0-.156-.039-.234-.117-.234-.078-.039-.156.02-.234.175-1.481 2.183-4.013 3.274-7.598 3.274-3.118 0-5.612-.721-7.482-2.163-1.831-1.481-2.747-3.643-2.747-6.488 0-3 1.032-5.319 3.098-6.956 2.104-1.636 5.143-2.454 9.118-2.454h5.67c.194 0 .292-.098.292-.293v-1.11c0-1.052-.351-1.871-1.052-2.455-.702-.624-1.676-.935-2.923-.935-.935 0-1.753.175-2.455.526-.662.35-1.091.798-1.286 1.344-.194.429-.467.623-.818.585l-8.417-1.111c-.467-.078-.701-.253-.701-.526.156-1.715.818-3.254 1.987-4.618 1.208-1.402 2.806-2.494 4.793-3.273 2.026-.818 4.267-1.227 6.722-1.227zm-.935 24.198c1.48 0 2.688-.37 3.624-1.111.974-.779 1.461-1.792 1.461-3.039v-1.403c0-.195-.098-.292-.292-.292h-3.507c-1.481 0-2.631.253-3.449.76-.779.506-1.169 1.266-1.169 2.279 0 .858.292 1.54.877 2.046.584.507 1.403.76 2.455.76zm26.042 6.488c-.389 0-.643-.195-.759-.585l-9.177-28.874c-.039-.078-.059-.175-.059-.292 0-.351.215-.526.643-.526h9.119c.428 0 .701.195.818.584l3.858 16.074c.039.117.097.175.175.175s.136-.058.175-.175l3.916-16.074c.117-.389.39-.584.819-.584l9.06.117c.233 0 .409.078.526.234.116.116.136.311.058.584l-9.118 28.757c-.117.39-.37.585-.76.585zm33.203.468c-3.507 0-6.488-.936-8.943-2.806s-4.092-4.403-4.91-7.599c-.467-1.597-.701-3.351-.701-5.26 0-2.143.253-4.033.76-5.67.896-3.078 2.552-5.475 4.968-7.189 2.455-1.754 5.416-2.63 8.884-2.63 3.429 0 6.332.876 8.709 2.63 2.377 1.714 4.033 4.091 4.969 7.131.545 1.753.818 3.624.818 5.611 0 1.793-.214 3.507-.643 5.144-.818 3.273-2.455 5.864-4.91 7.774-2.455 1.909-5.455 2.864-9.001 2.864zm0-8.3c1.13 0 2.065-.351 2.805-1.052.741-.741 1.286-1.734 1.637-2.981.234-1.014.351-2.124.351-3.332 0-1.169-.137-2.299-.409-3.39-.312-1.208-.838-2.143-1.579-2.806-.74-.662-1.675-.993-2.805-.993-2.26 0-3.741 1.266-4.442 3.799-.234.935-.351 2.065-.351 3.39 0 1.208.117 2.318.351 3.332.311 1.247.837 2.24 1.578 2.981.779.701 1.734 1.052 2.864 1.052zm35.047-21.685c0-.195.059-.351.176-.468.156-.156.331-.234.526-.234h8.3c.195 0 .351.078.467.234.156.117.234.273.234.468v28.816c0 .194-.078.37-.234.526-.116.117-.272.175-.467.175h-8.3c-.195 0-.37-.058-.526-.175-.117-.156-.176-.332-.176-.526v-2.046c0-.117-.038-.195-.116-.234s-.156 0-.234.117c-1.559 2.221-4.014 3.332-7.365 3.332-2.961 0-5.358-.936-7.189-2.806-1.832-1.87-2.747-4.481-2.747-7.832v-19.347c0-.195.058-.351.175-.468.156-.156.331-.234.526-.234h8.3c.195 0 .351.078.467.234.156.117.234.273.234.468v17.126c0 1.363.351 2.454 1.052 3.273.702.818 1.656 1.227 2.864 1.227 1.092 0 1.988-.331 2.689-.993.741-.663 1.189-1.54 1.344-2.631zm29.508-1.111c1.403 0 2.494.253 3.273.76.312.195.429.487.351.877l-1.345 8.124c-.039.468-.311.604-.818.409-.701-.155-1.364-.233-1.987-.233-.663 0-1.169.039-1.52.117-1.208.155-2.241.623-3.098 1.402-.818.78-1.227 1.812-1.227 3.098v15.373c0 .194-.078.37-.234.526-.117.117-.273.175-.468.175h-8.3c-.194 0-.37-.058-.526-.175-.117-.156-.175-.332-.175-.526v-28.816c0-.195.058-.351.175-.468.156-.156.332-.234.526-.234h8.3c.195 0 .351.078.468.234.156.117.234.273.234.468v1.87c0 .117.039.195.117.234s.136 0 .175-.117c1.559-2.065 3.585-3.098 6.079-3.098zm10.559-2.279c-1.481 0-2.708-.468-3.683-1.403-.935-.974-1.402-2.202-1.402-3.683 0-1.519.467-2.747 1.402-3.682.975-.935 2.202-1.403 3.683-1.403 1.48 0 2.688.468 3.624 1.403.974.935 1.461 2.163 1.461 3.682 0 1.442-.487 2.65-1.461 3.624-.936.974-2.144 1.462-3.624 1.462zm-4.209 32.907c-.195 0-.37-.058-.526-.175-.117-.156-.175-.332-.175-.526v-28.816c0-.195.058-.351.175-.468.156-.156.331-.234.526-.234h8.3c.195 0 .351.078.468.234.156.117.234.273.234.468v28.816c0 .194-.078.37-.234.526-.117.117-.273.175-.468.175zm31.499-23.146c0 .195-.078.37-.233.526-.117.117-.273.175-.468.175h-5.319c-.195 0-.292.098-.292.292v10.638c0 2.221.896 3.332 2.689 3.332h2.162c.195 0 .351.078.468.234.156.117.234.273.234.467v6.781c0 .428-.234.682-.702.759-1.87.078-3.234.117-4.091.117-3.39 0-5.904-.526-7.54-1.578-1.637-1.091-2.475-3.137-2.514-6.137v-14.613c0-.194-.097-.292-.292-.292h-3.332c-.195 0-.37-.058-.526-.175-.117-.156-.175-.331-.175-.526v-6.371c0-.195.058-.351.175-.468.156-.156.331-.234.526-.234h3.332c.195 0 .292-.097.292-.292v-7.072c0-.195.059-.351.176-.468.155-.156.331-.234.526-.234h7.89c.195 0 .351.078.468.234.156.117.234.273.234.468v7.072c0 .195.097.292.292.292h5.319c.195 0 .351.078.468.234.155.117.233.273.233.468zm30.502 5.377c.195 1.169.253 2.708.175 4.618-.039.467-.292.701-.76.701h-17.827c-.078 0-.156.039-.234.117-.078.039-.097.097-.058.175.078.429.273.994.584 1.695.468.819 1.169 1.481 2.104 1.988.936.506 2.085.76 3.449.76 2.455 0 4.384-.799 5.787-2.397.155-.195.331-.292.526-.292.194 0 .35.078.467.234l4.501 5.143c.156.117.234.273.234.468 0 .156-.078.312-.234.467-1.364 1.481-3.059 2.611-5.085 3.391-1.988.779-4.17 1.169-6.547 1.169-3.546 0-6.566-.76-9.059-2.28-2.455-1.559-4.228-3.721-5.319-6.488-.819-1.948-1.228-4.384-1.228-7.306 0-2.026.312-3.975.935-5.845 1.013-2.884 2.67-5.144 4.969-6.78 2.338-1.676 5.104-2.514 8.3-2.514 2.571 0 4.87.565 6.897 1.695 2.026 1.091 3.663 2.631 4.909 4.618 1.286 1.948 2.124 4.169 2.514 6.663zm-14.32-4.617c-2.027 0-3.371.954-4.034 2.864-.155.428-.253.837-.292 1.227-.078.195 0 .292.234.292h8.3c.156 0 .234-.078.234-.233 0-.312-.078-.702-.234-1.169-.273-.975-.779-1.715-1.52-2.222-.701-.506-1.597-.759-2.688-.759zm-313.6722 50.069c0 .195-.078.371-.2338.526-.1169.117-.2728.176-.4676.176h-18.3534c-.1948 0-.2922.097-.2922.292v7.189c0 .195.0974.293.2922.293h11.7485c.1948 0 .3507.078.4676.233.1559.117.2338.273.2338.468v6.839c0 .195-.0779.37-.2338.526-.1169.117-.2728.175-.4676.175h-11.7485c-.1948 0-.2922.098-.2922.292v7.716c0 .195.0974.292.2922.292h18.3534c.1948 0 .3507.078.4676.234.1558.117.2338.273.2338.467v6.898c0 .194-.078.37-.2338.526-.1169.117-.2728.175-.4676.175h-27.6469c-.1949 0-.3702-.058-.5261-.175-.1169-.156-.1753-.332-.1753-.526v-39.513c0-.195.0584-.35.1753-.467.1559-.156.3312-.234.5261-.234h27.6469c.1948 0 .3507.078.4676.234.1558.117.2338.272.2338.467zm20.1155 2.631c3.0394 0 5.5337.974 7.4817 2.922 1.948 1.91 2.922 4.52 2.922 7.833v19.23c0 .194-.078.37-.233.526-.117.117-.273.175-.468.175h-8.2999c-.1948 0-.3702-.058-.526-.175-.1169-.156-.1754-.332-.1754-.526v-17.126c0-1.325-.3702-2.416-1.1106-3.274-.7403-.857-1.695-1.285-2.864-1.285-1.208 0-2.1821.428-2.9225 1.285-.7404.819-1.1106 1.91-1.1106 3.274v17.126c0 .194-.0779.37-.2338.526-.1169.117-.2727.175-.4676.175h-8.2999c-.1948 0-.3702-.058-.526-.175-.1169-.156-.1754-.332-.1754-.526v-28.816c0-.195.0585-.351.1754-.468.1558-.156.3312-.234.526-.234h8.2999c.1949 0 .3507.078.4676.234.1559.117.2338.273.2338.468v2.162c0 .156.0195.254.0585.293.0779 0 .1558-.059.2338-.176 1.4807-2.299 3.8187-3.448 7.014-3.448zm20.9517 30.686c-.389 0-.643-.195-.759-.585l-9.177-28.874c-.039-.078-.059-.175-.059-.292 0-.351.215-.526.643-.526h9.119c.428 0 .701.195.818.584l3.858 16.074c.039.117.097.175.175.175s.136-.058.175-.175l3.916-16.074c.117-.389.39-.584.819-.584l9.06.117c.233 0 .409.078.526.234.116.116.136.311.058.584l-9.118 28.757c-.117.39-.37.585-.76.585zm26.603-32.907c-1.481 0-2.708-.468-3.682-1.403-.936-.974-1.403-2.202-1.403-3.683 0-1.519.467-2.747 1.403-3.682.974-.935 2.201-1.403 3.682-1.403s2.689.468 3.624 1.403c.974.935 1.461 2.163 1.461 3.682 0 1.442-.487 2.65-1.461 3.624-.935.974-2.143 1.462-3.624 1.462zm-4.208 32.907c-.195 0-.371-.058-.526-.175-.117-.156-.176-.332-.176-.526v-28.816c0-.195.059-.351.176-.468.155-.156.331-.234.526-.234h8.299c.195 0 .351.078.468.234.156.117.234.273.234.468v28.816c0 .194-.078.37-.234.526-.117.117-.273.175-.468.175zm28.927-30.628c1.403 0 2.494.253 3.273.76.312.195.429.487.351.877l-1.345 8.124c-.039.468-.311.604-.818.409-.701-.155-1.364-.233-1.987-.233-.663 0-1.169.039-1.52.117-1.208.155-2.24.623-3.098 1.402-.818.78-1.227 1.812-1.227 3.098v15.373c0 .194-.078.37-.234.526-.117.117-.273.175-.468.175h-8.299c-.195 0-.371-.058-.527-.175-.116-.156-.175-.332-.175-.526v-28.816c0-.195.059-.351.175-.468.156-.156.332-.234.527-.234h8.299c.195 0 .351.078.468.234.156.117.234.273.234.468v1.87c0 .117.039.195.117.234s.136 0 .175-.117c1.559-2.065 3.585-3.098 6.079-3.098zm18.472 31.096c-3.508 0-6.488-.936-8.943-2.806s-4.092-4.403-4.91-7.599c-.468-1.597-.702-3.351-.702-5.26 0-2.143.254-4.033.76-5.67.897-3.078 2.553-5.475 4.969-7.189 2.454-1.754 5.416-2.63 8.884-2.63 3.429 0 6.332.876 8.709 2.63 2.377 1.714 4.033 4.091 4.968 7.131.546 1.753.819 3.624.819 5.611 0 1.793-.215 3.507-.643 5.144-.819 3.273-2.455 5.864-4.91 7.774-2.455 1.909-5.456 2.864-9.001 2.864zm0-8.3c1.13 0 2.065-.351 2.805-1.052.74-.741 1.286-1.734 1.637-2.981.234-1.014.35-2.124.35-3.332 0-1.169-.136-2.299-.409-3.39-.311-1.208-.838-2.143-1.578-2.806-.74-.662-1.675-.993-2.805-.993-2.261 0-3.741 1.266-4.443 3.799-.234.935-.35 2.065-.35 3.39 0 1.208.116 2.318.35 3.332.312 1.247.838 2.24 1.578 2.981.78.701 1.734 1.052 2.865 1.052zm34.58-22.854c3.039 0 5.533.974 7.481 2.922 1.949 1.91 2.923 4.52 2.923 7.833v19.23c0 .194-.078.37-.234.526-.117.117-.273.175-.468.175h-8.3c-.194 0-.37-.058-.526-.175-.117-.156-.175-.332-.175-.526v-17.126c0-1.325-.37-2.416-1.111-3.274-.74-.857-1.695-1.285-2.864-1.285-1.208 0-2.182.428-2.922 1.285-.74.819-1.111 1.91-1.111 3.274v17.126c0 .194-.078.37-.233.526-.117.117-.273.175-.468.175h-8.3c-.195 0-.37-.058-.526-.175-.117-.156-.175-.332-.175-.526v-28.816c0-.195.058-.351.175-.468.156-.156.331-.234.526-.234h8.3c.195 0 .351.078.468.234.155.117.233.273.233.468v2.162c0 .156.02.254.059.293.078 0 .156-.059.234-.176 1.48-2.299 3.818-3.448 7.014-3.448zm48.677 0c3.04 0 5.417.935 7.131 2.805 1.715 1.871 2.572 4.501 2.572 7.891v19.289c0 .194-.078.37-.234.526-.117.117-.273.175-.468.175h-8.241c-.195 0-.37-.058-.526-.175-.117-.156-.175-.332-.175-.526v-17.185c0-1.325-.351-2.396-1.052-3.215-.663-.857-1.559-1.285-2.689-1.285s-2.065.409-2.806 1.227c-.701.818-1.052 1.909-1.052 3.273v17.185c0 .194-.078.37-.234.526-.117.117-.272.175-.467.175h-8.3c-.195 0-.37-.058-.526-.175-.117-.156-.176-.332-.176-.526v-17.185c0-1.325-.37-2.396-1.11-3.215-.702-.857-1.617-1.285-2.747-1.285-1.052 0-1.929.331-2.631.993-.701.663-1.13 1.539-1.285 2.631v18.061c0 .194-.078.37-.234.526-.117.117-.273.175-.468.175h-8.3c-.195 0-.37-.058-.526-.175-.117-.156-.175-.332-.175-.526v-28.816c0-.195.058-.351.175-.468.156-.156.331-.234.526-.234h8.3c.195 0 .351.078.468.234.156.117.234.273.234.468v2.63c0 .156.038.253.116.292.078 0 .156-.078.234-.234 1.52-2.571 4.014-3.857 7.482-3.857 1.948 0 3.663.428 5.143 1.286 1.481.857 2.611 2.104 3.391 3.74.116.234.233.215.35-.058.819-1.676 1.929-2.923 3.332-3.741 1.442-.818 3.098-1.227 4.968-1.227zm41.141 12.917c.195 1.169.254 2.708.176 4.618-.039.467-.293.701-.76.701h-17.827c-.078 0-.156.039-.234.117-.078.039-.098.097-.059.175.078.429.273.994.585 1.695.467.819 1.169 1.481 2.104 1.988.935.506 2.085.76 3.449.76 2.454 0 4.383-.799 5.786-2.397.156-.195.331-.292.526-.292s.351.078.468.234l4.5 5.143c.156.117.234.273.234.468 0 .156-.078.312-.234.467-1.363 1.481-3.058 2.611-5.085 3.391-1.987.779-4.169 1.169-6.546 1.169-3.546 0-6.566-.76-9.06-2.28-2.455-1.559-4.228-3.721-5.319-6.488-.818-1.948-1.227-4.384-1.227-7.306 0-2.026.311-3.975.935-5.845 1.013-2.884 2.669-5.144 4.968-6.78 2.338-1.676 5.105-2.514 8.3-2.514 2.572 0 4.871.565 6.897 1.695 2.026 1.091 3.663 2.631 4.91 4.618 1.286 1.948 2.124 4.169 2.513 6.663zm-14.32-4.617c-2.026 0-3.371.954-4.033 2.864-.156.428-.253.837-.292 1.227-.078.195 0 .292.234.292h8.299c.156 0 .234-.078.234-.233 0-.312-.078-.702-.234-1.169-.272-.975-.779-1.715-1.519-2.222-.702-.506-1.598-.759-2.689-.759zm34.299-8.3c3.039 0 5.533.974 7.481 2.922 1.949 1.91 2.923 4.52 2.923 7.833v19.23c0 .194-.078.37-.234.526-.117.117-.273.175-.467.175h-8.3c-.195 0-.371-.058-.526-.175-.117-.156-.176-.332-.176-.526v-17.126c0-1.325-.37-2.416-1.11-3.274-.741-.857-1.695-1.285-2.864-1.285-1.208 0-2.183.428-2.923 1.285-.74.819-1.11 1.91-1.11 3.274v17.126c0 .194-.078.37-.234.526-.117.117-.273.175-.468.175h-8.3c-.195 0-.37-.058-.526-.175-.117-.156-.175-.332-.175-.526v-28.816c0-.195.058-.351.175-.468.156-.156.331-.234.526-.234h8.3c.195 0 .351.078.468.234.156.117.234.273.234.468v2.162c0 .156.019.254.058.293.078 0 .156-.059.234-.176 1.481-2.299 3.819-3.448 7.014-3.448zm32.604 7.54c0 .195-.078.37-.234.526-.117.117-.273.175-.468.175h-5.319c-.195 0-.292.098-.292.292v10.638c0 2.221.896 3.332 2.689 3.332h2.162c.195 0 .351.078.468.234.156.117.234.273.234.467v6.781c0 .428-.234.682-.702.759-1.87.078-3.234.117-4.091.117-3.39 0-5.904-.526-7.54-1.578-1.637-1.091-2.475-3.137-2.514-6.137v-14.613c0-.194-.097-.292-.292-.292h-3.332c-.194 0-.37-.058-.526-.175-.116-.156-.175-.331-.175-.526v-6.371c0-.195.059-.351.175-.468.156-.156.332-.234.526-.234h3.332c.195 0 .292-.097.292-.292v-7.072c0-.195.059-.351.176-.468.156-.156.331-.234.526-.234h7.891c.194 0 .35.078.467.234.156.117.234.273.234.468v7.072c0 .195.097.292.292.292h5.319c.195 0 .351.078.468.234.156.117.234.273.234.468z"></path></g><g filter="url(#b)"><path fill="url(#m)" d="m633.939 303.792c35.22 0 63.77-12.287 63.77-27.445v-20.988h-127.54v20.988c0 15.158 28.551 27.445 63.77 27.445z"></path><ellipse ry="22.602" rx="63.7701" fill="url(#o)" cy="255.36" cx="633.94"></ellipse><ellipse ry="22.602" rx="63.7701" fill-opacity=".44" fill="url(#q)" cy="255.36" cx="633.94"></ellipse><path fill="url(#s)" d="m633.939 274.726c33.436 0 60.541-9.421 60.541-21.042v-16.09h-121.082v16.09c0 11.621 27.105 21.042 60.541 21.042z"></path><path fill-opacity=".284" fill="#c6d4db" d="m633.939 274.726c33.436 0 60.541-9.421 60.541-21.042v-16.09h-121.082v16.09c0 11.621 27.105 21.042 60.541 21.042z"></path><path opacity=".5" fill="url(#t)" d="m633.939 268.093c33.436 0 60.541-9.421 60.541-21.042v-16.09h-121.083v16.09c0 11.621 27.106 21.042 60.542 21.042z"></path><path fill="url(#u)" d="m633.939 265.032c35.22 0 63.77-10.391 63.77-23.21v-21.994h-127.54v21.994c0 12.819 28.551 23.21 63.77 23.21z"></path><ellipse ry="24.2165" rx="63.7701" fill="url(#v)" cy="218.216" cx="633.939"></ellipse><ellipse ry="24.2165" rx="63.7701" fill-opacity=".44" fill="url(#w)" cy="218.216" cx="633.939"></ellipse><path fill="url(#x)" d="m633.939 239.207c33.436 0 60.541-9.83 60.541-21.956v-16.79h-121.082v16.79c0 12.126 27.105 21.956 60.541 21.956z"></path><path fill-opacity=".284" fill="#c6d4db" d="m633.939 239.207c33.436 0 60.541-9.83 60.541-21.956v-16.79h-121.082v16.79c0 12.126 27.105 21.956 60.541 21.956z"></path><path opacity=".5" fill="url(#y)" d="m633.939 231.832c33.436 0 60.541-9.83 60.541-21.956v-16.79h-121.082v16.79c0 12.126 27.105 21.956 60.541 21.956z"></path><path fill="url(#z)" d="m633.939 228.663c35.22 0 63.771-10.547 63.771-23.558v-22.324h-127.541v22.324c0 13.011 28.551 23.558 63.77 23.558z"></path><ellipse ry="23.5587" rx="63.7701" fill="url(#A)" cy="182.043" cx="633.941"></ellipse><path stroke-width="2.21168" stroke-opacity=".46" stroke="url(#B)" d="m696.606 182.043c0 2.816-1.542 5.637-4.633 8.337-3.09 2.699-7.624 5.179-13.323 7.284-11.388 4.207-27.195 6.832-44.709 6.832-17.513 0-33.32-2.625-44.709-6.832-5.698-2.105-10.233-4.585-13.322-7.284-3.092-2.7-4.633-5.521-4.633-8.337s1.541-5.637 4.633-8.337c3.089-2.699 7.624-5.179 13.322-7.284 11.389-4.207 27.196-6.832 44.709-6.832 17.514 0 33.321 2.625 44.709 6.832 5.699 2.105 10.233 4.585 13.323 7.284 3.091 2.7 4.633 5.521 4.633 8.337z"></path></g><g filter="url(#c)"><path mask="url(#E)" fill="#121521" d="m697.458 182.302-3.987-.331c-.092 1.114.286 2.217 1.043 3.04.758.822 1.825 1.291 2.944 1.291zm-127.48 0v4c1.119 0 2.186-.469 2.943-1.291.758-.823 1.136-1.926 1.044-3.04zm-.032 0v-4c-2.209 0-4 1.79-4 4zm1.935 28.105 3.071 2.563c1.146-1.374 1.241-3.342.232-4.819zm-1.935 11.424h4c0-.591-.131-1.174-.383-1.707zm2.821 26.373 3.018 2.625c1.297-1.49 1.311-3.704.034-5.211zm-2.821 6.668h-4v.002zm0 .006v4c1.061 0 2.079-.421 2.829-1.172.75-.75 1.171-1.768 1.171-2.829zm0 0v-4c-2.209 0-4 1.791-4 4zm127.54.044-4-.012v.012zm0-.05 4 .013v-.013zm-2.821-6.668-3.052-2.586c-1.277 1.507-1.262 3.721.034 5.211zm2.821-27.537-3.789-1.282c-.14.413-.211.846-.211 1.282zm-2.153-9.949-3.242-2.343c-1.05 1.453-1.005 3.428.111 4.832zm2.153-28.416h4c0-2.21-1.791-4-4-4zm-3.998-.736c0 .136-.006.27-.017.405l7.973.661c.029-.353.044-.709.044-1.066zm-59.77-19.558c17.263 0 32.714 2.591 43.706 6.652 5.511 2.036 9.692 4.365 12.421 6.749 2.738 2.391 3.643 4.483 3.643 6.157h8c0-4.831-2.664-8.937-6.38-12.182-3.725-3.253-8.883-6.001-14.912-8.228-12.088-4.466-28.522-7.148-46.478-7.148zm-59.77 19.558c0-1.674.905-3.766 3.643-6.157 2.729-2.384 6.909-4.713 12.421-6.749 10.992-4.061 26.443-6.652 43.706-6.652v-8c-17.957 0-34.39 2.682-46.479 7.148-6.028 2.227-11.187 4.975-14.911 8.228-3.716 3.245-6.38 7.351-6.38 12.182zm.017.405c-.012-.135-.017-.269-.017-.405h-8c0 .357.015.713.044 1.066zm-3.987-3.669h-.032v8h.032zm-4.032 4v22.323h8v-22.323zm0 22.323c0 2.939.999 5.648 2.632 8.038l6.606-4.512c-.895-1.31-1.238-2.475-1.238-3.526zm2.864 3.219c-2.339 2.803-3.849 6.098-3.849 9.763h8c0-1.35.535-2.892 1.991-4.637zm-3.849 9.763c0 2.085.492 4.076 1.368 5.931l7.234-3.414c-.419-.889-.602-1.72-.602-2.517zm.985 4.224v19.524h8v-19.524zm0 19.524c0 3.561 1.491 6.745 3.769 9.434l6.104-5.171c-1.389-1.64-1.873-3.056-1.873-4.263zm3.803 4.223c-2.284 2.626-3.803 5.762-3.803 9.294h8c0-1.11.456-2.453 1.839-4.043zm-3.803 9.296v.006l8-.003v-.006zm4-3.996v8zm-4 4v20.988h8v-20.988zm0 20.988c0 5.136 2.435 9.698 6.158 13.486 3.706 3.771 8.871 6.983 14.938 9.595 12.149 5.228 28.654 8.364 46.674 8.364v-8c-17.199 0-32.58-3.008-43.511-7.713-5.473-2.355-9.647-5.057-12.395-7.853-2.731-2.779-3.864-5.437-3.864-7.879zm67.77 31.445c18.02 0 34.525-3.136 46.674-8.364 6.067-2.612 11.232-5.824 14.938-9.595 3.723-3.788 6.158-8.35 6.158-13.486h-8c0 2.442-1.133 5.1-3.864 7.879-2.748 2.796-6.922 5.498-12.395 7.853-10.931 4.705-26.312 7.713-43.511 7.713zm67.77-31.445v-20.944h-8v20.944zm0-20.931v-.05l-8-.025v.05zm0-.063c0-3.532-1.518-6.668-3.803-9.294l-6.036 5.251c1.383 1.59 1.839 2.933 1.839 4.043zm-3.769-4.083c2.278-2.69 3.769-5.873 3.769-9.434h-8c0 1.207-.484 2.623-1.873 4.263zm3.769-9.434v-20.688h-8v20.688zm-.211-19.406c.472-1.394.725-2.848.725-4.342h-8c0 .579-.097 1.168-.303 1.778zm.725-4.342c0-3.496-1.375-6.66-3.536-9.378l-6.262 4.978c1.309 1.647 1.798 3.108 1.798 4.4zm-3.425-4.546c1.795-2.484 2.911-5.329 2.911-8.436h-8c0 1.107-.381 2.347-1.395 3.75zm2.911-8.436v-22.323h-8v22.323zm-4-26.323h-.028v8h.028z"></path></g><circle stroke-width="2" stroke="#71e8df" r="30.2" fill="#090a15" cy="277.466" cx="573.2"></circle><path fill="#71e8df" d="m575.445 261.667 3.894 6.602h-12.278l3.828-6.602c.991-1.716 3.565-1.716 4.556 0zm-14.59 17.164 4.951-8.45h14.722l4.951 8.45zm-1.188 2.113h27.066l2.575 4.489c1.056 1.782-.198 3.961-2.245 3.961h-27.792c-1.981 0-3.301-2.179-2.245-3.961z"></path><g filter="url(#d)"><path fill="#fff" d="m424 379.12c0-13.874 11.246-25.12 25.12-25.12h40.595c13.873 0 25.12 11.246 25.12 25.12v40.595c0 13.873-11.247 25.12-25.12 25.12h-40.595c-13.874 0-25.12-11.247-25.12-25.12z"></path><path stroke-width="1.88397" stroke="#16a394" d="m449.12 354.942h40.595c13.353 0 24.178 10.825 24.178 24.178v40.595c0 13.353-10.825 24.178-24.178 24.178h-40.595c-13.353 0-24.178-10.825-24.178-24.178v-40.595c0-13.353 10.825-24.178 24.178-24.178z"></path></g><g clip-path="url(#D)"><g mask="url(#F)"><path fill="#05bdba" d="m456.29 416.132h-.555l-2.771-2.771v-.555l4.236-4.236h2.934l.392.392v2.934z"></path><path fill="#05bdba" d="m452.964 384.795v-.555l2.771-2.771h.555l4.236 4.236v2.935l-.392.391h-2.934z"></path><path fill="#014847" d="m477.356 407.197h-4.032l-.336-.337v-9.436c0-1.679-.66-2.981-2.685-3.026-1.042-.027-2.234 0-3.508.05l-.191.196v12.212l-.337.336h-4.031l-.337-.336v-16.121l.337-.337h9.073c3.526 0 6.383 2.858 6.383 6.384v10.078z"></path><g fill="#05bdba"><path d="m456.863 401.151h-16.126l-.336-.336v-4.041l.336-.336h16.126l.336.336v4.041z"></path><path d="m498.859 401.151h-16.125l-.337-.336v-4.041l.337-.336h16.125l.337.336v4.041z"></path><path d="m467.473 385.36v-12.094l.337-.336h4.04l.337.336v12.094l-.337.337h-4.04z"></path><path d="m467.473 424.321v-12.094l.337-.336h4.04l.337.336v12.094l-.337.337h-4.04z"></path></g></g></g><g filter="url(#e)"><path fill="#fff" d="m528.835 379.12c0-13.874 11.246-25.12 25.119-25.12h40.596c13.873 0 25.119 11.246 25.119 25.12v40.595c0 13.873-11.246 25.12-25.119 25.12h-40.596c-13.873 0-25.119-11.247-25.119-25.12z"></path><path stroke-width="1.88397" stroke="#16a394" d="m553.954 354.942h40.596c13.353 0 24.177 10.825 24.177 24.178v40.595c0 13.353-10.824 24.178-24.177 24.178h-40.596c-13.353 0-24.177-10.825-24.177-24.178v-40.595c0-13.353 10.824-24.178 24.177-24.178z"></path></g><g fill="#5f6a7b"><rect y="369.141" x="561.022" width="19.5163" rx="3.29416" height="6.58831"></rect><rect y="395.492" x="567.486" width="21.8782" rx="3.29416" height="6.58831"></rect><rect y="408.672" x="558.536" width="13.7982" rx="3.29416" height="6.58831"></rect><rect y="408.672" x="576.685" width="13.7982" rx="3.29416" height="6.58831"></rect><rect y="382.32" x="558.536" width="31.9471" rx="3.29416" height="6.58831"></rect><rect y="421.852" x="549.461" width="31.9471" rx="3.29416" height="6.58831"></rect><rect y="369.141" x="549.835" width="6.58831" rx="3.29416" height="6.58831"></rect><rect y="395.492" x="593.715" width="6.58831" rx="3.29416" height="6.58831"></rect></g><g filter="url(#f)"><path fill="#fff" d="m633.669 379.12c0-13.874 11.247-25.12 25.12-25.12h40.595c13.873 0 25.12 11.246 25.12 25.12v40.595c0 13.873-11.247 25.12-25.12 25.12h-40.595c-13.873 0-25.12-11.247-25.12-25.12z"></path><path stroke-width="1.88397" stroke="#16a394" d="m658.789 354.942h40.595c13.353 0 24.178 10.825 24.178 24.178v40.595c0 13.353-10.825 24.178-24.178 24.178h-40.595c-13.353 0-24.178-10.825-24.178-24.178v-40.595c0-13.353 10.825-24.178 24.178-24.178z"></path></g><path fill="#000" d="m679.086 369.141 30.279 52.88h-60.557z"></path><g filter="url(#g)"><path fill="#154f47" d="m738.504 379.12c0-13.874 11.246-25.12 25.119-25.12h40.596c13.873 0 25.119 11.246 25.119 25.12v40.595c0 13.873-11.246 25.12-25.119 25.12h-40.596c-13.873 0-25.119-11.247-25.119-25.12z"></path><path stroke-width="1.88397" stroke="#16a394" d="m763.623 354.942h40.596c13.353 0 24.177 10.825 24.177 24.178v40.595c0 13.353-10.824 24.178-24.177 24.178h-40.596c-13.353 0-24.177-10.825-24.177-24.178v-40.595c0-13.353 10.824-24.178 24.177-24.178z"></path></g><path fill="#71e8df" d="m785.404 388.698v9.507h9.506c1.122 0 2.113.99 2.113 2.112 0 1.188-.991 2.113-2.113 2.113h-9.506v9.506c0 1.188-.99 2.112-2.113 2.112-1.188 0-2.112-.924-2.112-2.112v-9.506h-9.506c-1.189 0-2.113-.925-2.113-2.113 0-1.122.924-2.112 2.113-2.112h9.506v-9.507c0-1.122.924-2.112 2.112-2.112 1.123 0 2.113.99 2.113 2.112z"></path><rect y="57" x="742" width="60.4" rx="10" height="60.4" fill="#090a15"></rect><rect y="57" x="742" width="60.4" stroke-width="2" stroke="#71e8df" rx="10" height="60.4"></rect><path fill="#71e8df" d="m759.425 72.2406h25.35c2.311 0 4.225 1.9145 4.225 4.225v4.225c0 2.3766-1.914 4.225-4.225 4.225h-25.35c-2.377 0-4.225-1.8484-4.225-4.225v-4.225c0-2.3105 1.848-4.225 4.225-4.225zm18.484 4.7531c-.924 0-1.584.7262-1.584 1.5844 0 .9242.66 1.5844 1.584 1.5844.859 0 1.585-.6602 1.585-1.5844 0-.8582-.726-1.5844-1.585-1.5844zm3.169 1.5844c0 .9242.66 1.5844 1.584 1.5844.859 0 1.585-.6602 1.585-1.5844 0-.8582-.726-1.5844-1.585-1.5844-.924 0-1.584.7262-1.584 1.5844zm-21.653 10.5625h25.35c2.311 0 4.225 1.9145 4.225 4.225v4.225c0 2.3766-1.914 4.2254-4.225 4.2254h-25.35c-2.377 0-4.225-1.8488-4.225-4.2254v-4.225c0-2.3105 1.848-4.225 4.225-4.225zm18.484 4.7531c-.924 0-1.584.7262-1.584 1.5844 0 .9242.66 1.5844 1.584 1.5844.859 0 1.585-.6602 1.585-1.5844 0-.8582-.726-1.5844-1.585-1.5844zm3.697 1.5844c0 .9242.66 1.5844 1.585 1.5844.858 0 1.584-.6602 1.584-1.5844 0-.8582-.726-1.5844-1.584-1.5844-.925 0-1.585.7262-1.585 1.5844z"></path><rect y="433" x="640" width="78" rx="11" height="22" fill="#16a394"></rect><path fill="#fff" d="m651.07 448.08c-.52 0-.977-.1-1.37-.3-.393-.207-.697-.493-.91-.86s-.32-.79-.32-1.27v-2.31c0-.48.107-.903.32-1.27s.517-.65.91-.85.85-.3 1.37-.3c.513 0 .963.097 1.35.29.393.187.697.457.91.81.22.347.33.75.33 1.21 0 .06-.04.097-.12.11l-1.17.07h-.02c-.067 0-.1-.037-.1-.11 0-.353-.11-.637-.33-.85-.213-.213-.497-.32-.85-.32-.36 0-.65.107-.87.32-.213.213-.32.497-.32.85v2.41c0 .347.107.627.32.84.22.213.51.32.87.32.353 0 .637-.107.85-.32.22-.213.33-.493.33-.84 0-.073.04-.11.12-.11l1.17.05c.033 0 .06.01.08.03.027.02.04.043.04.07 0 .46-.11.867-.33 1.22-.213.353-.517.627-.91.82-.387.193-.837.29-1.35.29zm6.114.03c-.52 0-.98-.107-1.38-.32-.393-.213-.7-.51-.92-.89-.22-.387-.33-.83-.33-1.33v-2.14c0-.493.11-.93.33-1.31s.527-.673.92-.88c.4-.213.86-.32 1.38-.32.527 0 .987.107 1.38.32.4.207.71.5.93.88s.33.817.33 1.31v2.14c0 .5-.11.943-.33 1.33s-.53.687-.93.9c-.393.207-.853.31-1.38.31zm0-1.21c.367 0 .663-.117.89-.35s.34-.543.34-.93v-2.2c0-.387-.113-.697-.34-.93-.22-.24-.517-.36-.89-.36-.367 0-.663.12-.89.36-.22.233-.33.543-.33.93v2.2c0 .387.11.697.33.93.227.233.523.35.89.35zm8.221-5.82c.033-.053.08-.08.14-.08h1.17c.033 0 .06.013.08.04.027.02.04.047.04.08v6.76c0 .033-.013.063-.04.09-.02.02-.047.03-.08.03h-1.17c-.033 0-.063-.01-.09-.03-.02-.027-.03-.057-.03-.09v-4.41c0-.027-.007-.04-.02-.04s-.027.01-.04.03l-1.06 1.66c-.033.053-.08.08-.14.08h-.59c-.06 0-.107-.027-.14-.08l-1.06-1.66c-.013-.02-.027-.027-.04-.02-.013 0-.02.013-.02.04v4.4c0 .033-.013.063-.04.09-.02.02-.047.03-.08.03h-1.17c-.033 0-.063-.01-.09-.03-.02-.027-.03-.057-.03-.09v-6.76c0-.033.01-.06.03-.08.027-.027.057-.04.09-.04h1.17c.06 0 .107.027.14.08l1.5 2.33c.02.04.04.04.06 0zm2.768 6.92c-.033 0-.063-.01-.09-.03-.02-.027-.03-.057-.03-.09v-6.76c0-.033.01-.06.03-.08.027-.027.057-.04.09-.04h1.17c.034 0 .06.013.08.04.027.02.04.047.04.08v6.76c0 .033-.013.063-.04.09-.02.02-.046.03-.08.03zm6.527-6.88c0-.033.01-.06.03-.08.027-.027.057-.04.09-.04h1.17c.034 0 .06.013.08.04.027.02.04.047.04.08v6.76c0 .033-.013.063-.04.09-.02.02-.046.03-.08.03h-1.13c-.066 0-.113-.027-.14-.08l-2.59-4.28c-.013-.02-.026-.027-.04-.02-.013 0-.02.013-.02.04l.02 4.22c0 .033-.013.063-.04.09-.02.02-.046.03-.08.03h-1.17c-.033 0-.063-.01-.09-.03-.02-.027-.03-.057-.03-.09v-6.76c0-.033.01-.06.03-.08.027-.027.057-.04.09-.04h1.13c.067 0 .114.027.14.08l2.58 4.26c.014.02.027.03.04.03.014-.007.02-.023.02-.05zm5.091 6.96c-.514 0-.967-.103-1.36-.31-.394-.207-.7-.493-.92-.86-.214-.373-.32-.803-.32-1.29v-2.24c0-.487.106-.917.32-1.29.22-.373.526-.66.92-.86.393-.207.846-.31 1.36-.31.506 0 .953.1 1.34.3.393.2.696.473.91.82.22.34.33.72.33 1.14v.07c0 .033-.014.063-.04.09-.02.02-.047.03-.08.03h-1.17c-.034 0-.064-.01-.09-.03-.02-.027-.03-.057-.03-.09v-.03c0-.307-.107-.563-.32-.77-.214-.213-.497-.32-.85-.32-.36 0-.65.113-.87.34-.214.22-.32.51-.32.87v2.32c0 .36.116.653.35.88.233.22.53.33.89.33.346 0 .623-.09.83-.27.206-.187.31-.443.31-.77v-.45c0-.033-.017-.05-.05-.05h-1.12c-.034 0-.064-.01-.09-.03-.02-.027-.03-.057-.03-.09v-.92c0-.033.01-.06.03-.08.026-.027.056-.04.09-.04h2.44c.033 0 .06.013.08.04.026.02.04.047.04.08v1.32c0 .507-.107.947-.32 1.32-.214.373-.517.66-.91.86-.387.193-.837.29-1.35.29zm8.065 0c-.534 0-1-.083-1.4-.25-.4-.173-.71-.417-.93-.73-.214-.32-.32-.69-.32-1.11v-.22c0-.033.01-.06.03-.08.026-.027.056-.04.09-.04h1.14c.033 0 .06.013.08.04.026.02.04.047.04.08v.15c0 .267.123.493.37.68.246.18.58.27 1 .27.353 0 .616-.073.79-.22.173-.153.26-.34.26-.56 0-.16-.054-.293-.16-.4-.107-.113-.254-.21-.44-.29-.18-.087-.47-.203-.87-.35-.447-.153-.827-.31-1.14-.47-.307-.16-.567-.377-.78-.65-.207-.28-.31-.623-.31-1.03 0-.4.103-.75.31-1.05.206-.3.493-.53.86-.69.366-.16.79-.24 1.27-.24.506 0 .956.09 1.35.27.4.18.71.433.93.76.226.32.34.693.34 1.12v.15c0 .033-.014.063-.04.09-.02.02-.047.03-.08.03h-1.15c-.034 0-.064-.01-.09-.03-.02-.027-.03-.057-.03-.09v-.08c0-.28-.117-.517-.35-.71-.227-.2-.54-.3-.94-.3-.314 0-.56.067-.74.2-.174.133-.26.317-.26.55 0 .167.05.307.15.42.106.113.26.217.46.31.206.087.523.207.95.36.473.173.843.327 1.11.46.273.133.516.333.73.6.22.26.33.6.33 1.02 0 .627-.23 1.123-.69 1.49-.46.36-1.084.54-1.87.54zm6.037.03c-.52 0-.98-.107-1.38-.32-.393-.213-.7-.51-.92-.89-.22-.387-.33-.83-.33-1.33v-2.14c0-.493.11-.93.33-1.31s.527-.673.92-.88c.4-.213.86-.32 1.38-.32.527 0 .987.107 1.38.32.4.207.71.5.93.88s.33.817.33 1.31v2.14c0 .5-.11.943-.33 1.33s-.53.687-.93.9c-.393.207-.853.31-1.38.31zm0-1.21c.367 0 .663-.117.89-.35s.34-.543.34-.93v-2.2c0-.387-.113-.697-.34-.93-.22-.24-.517-.36-.89-.36-.367 0-.663.12-.89.36-.22.233-.33.543-.33.93v2.2c0 .387.11.697.33.93.227.233.523.35.89.35zm6.211 1.21c-.52 0-.98-.107-1.38-.32-.393-.213-.7-.51-.92-.89-.22-.387-.33-.83-.33-1.33v-2.14c0-.493.11-.93.33-1.31s.527-.673.92-.88c.4-.213.86-.32 1.38-.32.527 0 .987.107 1.38.32.4.207.71.5.93.88s.33.817.33 1.31v2.14c0 .5-.11.943-.33 1.33s-.53.687-.93.9c-.393.207-.853.31-1.38.31zm0-1.21c.367 0 .663-.117.89-.35s.34-.543.34-.93v-2.2c0-.387-.113-.697-.34-.93-.22-.24-.517-.36-.89-.36-.367 0-.663.12-.89.36-.22.233-.33.543-.33.93v2.2c0 .387.11.697.33.93.227.233.523.35.89.35zm7.741-5.78c0-.033.01-.06.03-.08.027-.027.057-.04.09-.04h1.17c.033 0 .06.013.08.04.027.02.04.047.04.08v6.76c0 .033-.013.063-.04.09-.02.02-.047.03-.08.03h-1.13c-.067 0-.113-.027-.14-.08l-2.59-4.28c-.013-.02-.027-.027-.04-.02-.013 0-.02.013-.02.04l.02 4.22c0 .033-.013.063-.04.09-.02.02-.047.03-.08.03h-1.17c-.033 0-.063-.01-.09-.03-.02-.027-.03-.057-.03-.09v-6.76c0-.033.01-.06.03-.08.027-.027.057-.04.09-.04h1.13c.067 0 .113.027.14.08l2.58 4.26c.013.02.027.03.04.03.013-.007.02-.023.02-.05z"></path></g></svg>