<svg xmlns="http://www.w3.org/2000/svg" fill="none" viewBox="0 0 844 474" height="474" width="844">
<rect fill="url(#paint0_radial_7076_3929)" height="474" width="844"></rect>
<path fill="url(#paint1_linear_7076_3929)" d="M427 80C503.215 80 565 142.232 565 219H427V80Z"></path>
<path fill="url(#paint2_linear_7076_3929)" d="M427 330.5C488.304 330.5 538 280.58 538 219H427V330.5Z"></path>
<path fill="url(#paint3_linear_7076_3929)" d="M427 330.5C365.696 330.5 316 280.58 316 219H427V330.5Z"></path>
<path fill="url(#paint4_linear_7076_3929)" d="M427 107C365.696 107 316 156.92 316 218.5H427V107Z"></path>
<path fill-opacity="0.2" fill="#9F7AEA" d="M83.7184 410.3C84.9017 410.3 85.9434 410.55 86.8434 411.05C87.7434 411.533 88.4434 412.217 88.9434 413.1C89.4434 413.983 89.6934 415.008 89.6934 416.175V422.475C89.6934 423.975 89.2684 425.225 88.4184 426.225C87.585 427.225 86.4517 427.842 85.0184 428.075C84.9517 428.092 84.9184 428.133 84.9184 428.2V430.475C84.9184 430.642 84.835 430.725 84.6684 430.725H82.7684C82.6017 430.725 82.5184 430.642 82.5184 430.475V428.2C82.5184 428.133 82.485 428.092 82.4184 428.075C80.985 427.842 79.8434 427.225 78.9934 426.225C78.16 425.225 77.7434 423.975 77.7434 422.475V416.175C77.7434 415.008 77.9934 413.983 78.4934 413.1C78.9934 412.217 79.6934 411.533 80.5934 411.05C81.4934 410.55 82.535 410.3 83.7184 410.3ZM87.2934 416.05C87.2934 414.95 86.96 414.067 86.2934 413.4C85.6434 412.717 84.785 412.375 83.7184 412.375C82.6517 412.375 81.785 412.717 81.1184 413.4C80.4684 414.067 80.1434 414.95 80.1434 416.05V422.45C80.1434 423.55 80.4684 424.442 81.1184 425.125C81.785 425.792 82.6517 426.125 83.7184 426.125C84.785 426.125 85.6434 425.792 86.2934 425.125C86.96 424.442 87.2934 423.55 87.2934 422.45V416.05ZM95.2441 410.575C95.3441 410.525 95.4525 410.5 95.5691 410.5H97.5441C97.7108 410.5 97.7941 410.583 97.7941 410.75V427.75C97.7941 427.917 97.7108 428 97.5441 428H95.6441C95.4775 428 95.3941 427.917 95.3941 427.75V413.075C95.3941 413.042 95.3775 413.017 95.3441 413C95.3275 412.983 95.3025 412.983 95.2691 413L92.6441 413.9C92.6108 413.917 92.5691 413.925 92.5191 413.925C92.4191 413.925 92.3608 413.858 92.3441 413.725L92.2441 412.3C92.2441 412.133 92.2941 412.033 92.3941 412L95.2441 410.575ZM105.713 428C105.53 428 105.463 427.908 105.513 427.725L111.388 410.7C111.438 410.567 111.538 410.5 111.688 410.5H113.563C113.746 410.5 113.813 410.592 113.763 410.775L107.888 427.8C107.838 427.933 107.738 428 107.588 428H105.713ZM124.913 425.8C124.896 425.833 124.896 425.867 124.913 425.9C124.929 425.917 124.954 425.925 124.988 425.925H132.513C132.679 425.925 132.763 426.008 132.763 426.175V427.75C132.763 427.917 132.679 428 132.513 428H122.038C121.871 428 121.788 427.917 121.788 427.75V426.225C121.788 426.108 121.829 426.008 121.913 425.925C122.479 425.275 123.779 423.75 125.813 421.35L127.538 419.275C129.088 417.425 129.863 415.992 129.863 414.975C129.863 414.192 129.596 413.567 129.063 413.1C128.546 412.617 127.854 412.375 126.988 412.375C126.121 412.375 125.429 412.617 124.913 413.1C124.396 413.583 124.146 414.217 124.163 415V415.75C124.163 415.917 124.079 416 123.913 416H121.988C121.821 416 121.738 415.917 121.738 415.75V414.675C121.771 413.808 122.013 413.042 122.463 412.375C122.929 411.708 123.554 411.2 124.338 410.85C125.121 410.483 126.004 410.3 126.988 410.3C128.054 410.3 128.988 410.5 129.788 410.9C130.588 411.3 131.204 411.85 131.638 412.55C132.071 413.25 132.288 414.042 132.288 414.925C132.288 416.308 131.538 417.942 130.038 419.825C129.371 420.675 128.579 421.633 127.663 422.7C126.746 423.75 125.829 424.783 124.913 425.8ZM138.018 410.575C138.118 410.525 138.226 410.5 138.343 410.5H140.318C140.484 410.5 140.568 410.583 140.568 410.75V427.75C140.568 427.917 140.484 428 140.318 428H138.418C138.251 428 138.168 427.917 138.168 427.75V413.075C138.168 413.042 138.151 413.017 138.118 413C138.101 412.983 138.076 412.983 138.043 413L135.418 413.9C135.384 413.917 135.343 413.925 135.293 413.925C135.193 413.925 135.134 413.858 135.118 413.725L135.018 412.3C135.018 412.133 135.068 412.033 135.168 412L138.018 410.575Z"></path>
<path fill-opacity="0.2" fill="#9F7AEA" d="M497.558 410.3C498.741 410.3 499.783 410.55 500.683 411.05C501.583 411.533 502.283 412.217 502.783 413.1C503.283 413.983 503.533 415.008 503.533 416.175V422.475C503.533 423.975 503.108 425.225 502.258 426.225C501.424 427.225 500.291 427.842 498.858 428.075C498.791 428.092 498.758 428.133 498.758 428.2V430.475C498.758 430.642 498.674 430.725 498.508 430.725H496.608C496.441 430.725 496.358 430.642 496.358 430.475V428.2C496.358 428.133 496.324 428.092 496.258 428.075C494.824 427.842 493.683 427.225 492.833 426.225C491.999 425.225 491.583 423.975 491.583 422.475V416.175C491.583 415.008 491.833 413.983 492.333 413.1C492.833 412.217 493.533 411.533 494.433 411.05C495.333 410.55 496.374 410.3 497.558 410.3ZM501.133 416.05C501.133 414.95 500.799 414.067 500.133 413.4C499.483 412.717 498.624 412.375 497.558 412.375C496.491 412.375 495.624 412.717 494.958 413.4C494.308 414.067 493.983 414.95 493.983 416.05V422.45C493.983 423.55 494.308 424.442 494.958 425.125C495.624 425.792 496.491 426.125 497.558 426.125C498.624 426.125 499.483 425.792 500.133 425.125C500.799 424.442 501.133 423.55 501.133 422.45V416.05ZM516.008 419.7C516.342 420.517 516.508 421.458 516.508 422.525C516.508 423.408 516.375 424.225 516.108 424.975C515.742 426.008 515.133 426.808 514.283 427.375C513.433 427.925 512.408 428.2 511.208 428.2C510.008 428.2 508.967 427.892 508.083 427.275C507.217 426.658 506.608 425.825 506.258 424.775C506.075 424.308 505.967 423.642 505.933 422.775C505.933 422.608 506.017 422.525 506.183 422.525H508.108C508.275 422.525 508.358 422.608 508.358 422.775C508.392 423.375 508.458 423.817 508.558 424.1C508.725 424.717 509.033 425.208 509.483 425.575C509.95 425.942 510.525 426.125 511.208 426.125C512.475 426.125 513.325 425.55 513.758 424.4C513.975 423.9 514.083 423.25 514.083 422.45C514.083 421.6 513.95 420.842 513.683 420.175C513.217 419.142 512.383 418.625 511.183 418.625C510.9 418.625 510.542 418.75 510.108 419C510.042 419.033 509.992 419.05 509.958 419.05C509.875 419.05 509.808 419.008 509.758 418.925L508.808 417.625C508.775 417.558 508.758 417.5 508.758 417.45C508.758 417.4 508.783 417.342 508.833 417.275L513.108 412.7C513.158 412.617 513.142 412.575 513.058 412.575H506.408C506.242 412.575 506.158 412.492 506.158 412.325V410.75C506.158 410.583 506.242 410.5 506.408 410.5H516.108C516.275 410.5 516.358 410.583 516.358 410.75V412.55C516.358 412.633 516.317 412.733 516.233 412.85L512.433 417C512.4 417.033 512.392 417.067 512.408 417.1C512.425 417.117 512.458 417.133 512.508 417.15C513.358 417.233 514.075 417.5 514.658 417.95C515.242 418.383 515.692 418.967 516.008 419.7ZM523.874 428C523.69 428 523.624 427.908 523.674 427.725L529.549 410.7C529.599 410.567 529.699 410.5 529.849 410.5H531.724C531.907 410.5 531.974 410.592 531.924 410.775L526.049 427.8C525.999 427.933 525.899 428 525.749 428H523.874ZM543.073 425.8C543.056 425.833 543.056 425.867 543.073 425.9C543.09 425.917 543.115 425.925 543.148 425.925H550.673C550.84 425.925 550.923 426.008 550.923 426.175V427.75C550.923 427.917 550.84 428 550.673 428H540.198C540.031 428 539.948 427.917 539.948 427.75V426.225C539.948 426.108 539.99 426.008 540.073 425.925C540.64 425.275 541.94 423.75 543.973 421.35L545.698 419.275C547.248 417.425 548.023 415.992 548.023 414.975C548.023 414.192 547.756 413.567 547.223 413.1C546.706 412.617 546.015 412.375 545.148 412.375C544.281 412.375 543.59 412.617 543.073 413.1C542.556 413.583 542.306 414.217 542.323 415V415.75C542.323 415.917 542.24 416 542.073 416H540.148C539.981 416 539.898 415.917 539.898 415.75V414.675C539.931 413.808 540.173 413.042 540.623 412.375C541.09 411.708 541.715 411.2 542.498 410.85C543.281 410.483 544.165 410.3 545.148 410.3C546.215 410.3 547.148 410.5 547.948 410.9C548.748 411.3 549.365 411.85 549.798 412.55C550.231 413.25 550.448 414.042 550.448 414.925C550.448 416.308 549.698 417.942 548.198 419.825C547.531 420.675 546.74 421.633 545.823 422.7C544.906 423.75 543.99 424.783 543.073 425.8ZM556.178 410.575C556.278 410.525 556.387 410.5 556.503 410.5H558.478C558.645 410.5 558.728 410.583 558.728 410.75V427.75C558.728 427.917 558.645 428 558.478 428H556.578C556.412 428 556.328 427.917 556.328 427.75V413.075C556.328 413.042 556.312 413.017 556.278 413C556.262 412.983 556.237 412.983 556.203 413L553.578 413.9C553.545 413.917 553.503 413.925 553.453 413.925C553.353 413.925 553.295 413.858 553.278 413.725L553.178 412.3C553.178 412.133 553.228 412.033 553.328 412L556.178 410.575Z"></path>
<path fill="#9F7AEA" d="M288.242 410.3C289.509 410.3 290.626 410.558 291.592 411.075C292.559 411.592 293.309 412.325 293.842 413.275C294.376 414.225 294.642 415.325 294.642 416.575V422.175C294.642 423.658 294.242 424.917 293.442 425.95C292.642 426.967 291.542 427.642 290.142 427.975C290.076 427.992 290.042 428.033 290.042 428.1V430.15C290.042 430.233 290.009 430.3 289.942 430.35C289.892 430.417 289.826 430.45 289.742 430.45H286.817C286.734 430.45 286.659 430.417 286.592 430.35C286.542 430.3 286.517 430.233 286.517 430.15V428.125C286.517 428.058 286.484 428.017 286.417 428C285.017 427.667 283.909 426.983 283.092 425.95C282.276 424.917 281.867 423.658 281.867 422.175V416.575C281.867 415.325 282.134 414.233 282.667 413.3C283.201 412.35 283.951 411.617 284.917 411.1C285.884 410.567 286.992 410.3 288.242 410.3ZM291.117 416.4C291.117 415.483 290.851 414.742 290.317 414.175C289.801 413.608 289.109 413.325 288.242 413.325C287.392 413.325 286.701 413.608 286.167 414.175C285.651 414.742 285.392 415.483 285.392 416.4V422.1C285.392 423.017 285.651 423.758 286.167 424.325C286.701 424.892 287.392 425.175 288.242 425.175C289.109 425.175 289.801 424.892 290.317 424.325C290.851 423.758 291.117 423.017 291.117 422.1V416.4ZM301.487 424.825C301.453 424.858 301.445 424.892 301.462 424.925C301.478 424.958 301.512 424.975 301.562 424.975H308.337C308.42 424.975 308.487 425.008 308.537 425.075C308.603 425.125 308.637 425.192 308.637 425.275V427.7C308.637 427.783 308.603 427.858 308.537 427.925C308.487 427.975 308.42 428 308.337 428H297.087C297.003 428 296.928 427.975 296.862 427.925C296.812 427.858 296.787 427.783 296.787 427.7V425.4C296.787 425.25 296.837 425.125 296.937 425.025C297.753 424.225 298.587 423.358 299.437 422.425C300.287 421.475 300.82 420.883 301.037 420.65C301.503 420.1 301.978 419.575 302.462 419.075C303.978 417.392 304.737 416.142 304.737 415.325C304.737 414.742 304.528 414.267 304.112 413.9C303.695 413.517 303.153 413.325 302.487 413.325C301.82 413.325 301.278 413.517 300.862 413.9C300.445 414.267 300.237 414.758 300.237 415.375V416C300.237 416.083 300.203 416.158 300.137 416.225C300.087 416.275 300.02 416.3 299.937 416.3H296.987C296.903 416.3 296.828 416.275 296.762 416.225C296.712 416.158 296.687 416.083 296.687 416V414.825C296.737 413.925 297.02 413.133 297.537 412.45C298.053 411.75 298.737 411.217 299.587 410.85C300.453 410.483 301.42 410.3 302.487 410.3C303.67 410.3 304.695 410.525 305.562 410.975C306.445 411.408 307.12 412 307.587 412.75C308.07 413.5 308.312 414.333 308.312 415.25C308.312 415.95 308.137 416.667 307.787 417.4C307.437 418.133 306.912 418.925 306.212 419.775C305.695 420.425 305.137 421.067 304.537 421.7C303.937 422.333 303.045 423.25 301.862 424.45L301.487 424.825ZM315.506 428C315.256 428 315.172 427.883 315.256 427.65L321.681 410.725C321.731 410.575 321.847 410.5 322.031 410.5H324.931C325.181 410.5 325.264 410.617 325.181 410.85L318.756 427.775C318.706 427.925 318.589 428 318.406 428H315.506ZM337.302 424.825C337.269 424.858 337.26 424.892 337.277 424.925C337.294 424.958 337.327 424.975 337.377 424.975H344.152C344.235 424.975 344.302 425.008 344.352 425.075C344.419 425.125 344.452 425.192 344.452 425.275V427.7C344.452 427.783 344.419 427.858 344.352 427.925C344.302 427.975 344.235 428 344.152 428H332.902C332.819 428 332.744 427.975 332.677 427.925C332.627 427.858 332.602 427.783 332.602 427.7V425.4C332.602 425.25 332.652 425.125 332.752 425.025C333.569 424.225 334.402 423.358 335.252 422.425C336.102 421.475 336.635 420.883 336.852 420.65C337.319 420.1 337.794 419.575 338.277 419.075C339.794 417.392 340.552 416.142 340.552 415.325C340.552 414.742 340.344 414.267 339.927 413.9C339.51 413.517 338.969 413.325 338.302 413.325C337.635 413.325 337.094 413.517 336.677 413.9C336.26 414.267 336.052 414.758 336.052 415.375V416C336.052 416.083 336.019 416.158 335.952 416.225C335.902 416.275 335.835 416.3 335.752 416.3H332.802C332.719 416.3 332.644 416.275 332.577 416.225C332.527 416.158 332.502 416.083 332.502 416V414.825C332.552 413.925 332.835 413.133 333.352 412.45C333.869 411.75 334.552 411.217 335.402 410.85C336.269 410.483 337.235 410.3 338.302 410.3C339.485 410.3 340.51 410.525 341.377 410.975C342.26 411.408 342.935 412 343.402 412.75C343.885 413.5 344.127 414.333 344.127 415.25C344.127 415.95 343.952 416.667 343.602 417.4C343.252 418.133 342.727 418.925 342.027 419.775C341.51 420.425 340.952 421.067 340.352 421.7C339.752 422.333 338.86 423.25 337.677 424.45L337.302 424.825ZM349.07 410.575C349.153 410.525 349.278 410.5 349.445 410.5H352.47C352.553 410.5 352.62 410.533 352.67 410.6C352.736 410.65 352.77 410.717 352.77 410.8V427.7C352.77 427.783 352.736 427.858 352.67 427.925C352.62 427.975 352.553 428 352.47 428H349.545C349.461 428 349.386 427.975 349.32 427.925C349.27 427.858 349.245 427.783 349.245 427.7V414C349.245 413.967 349.228 413.933 349.195 413.9C349.161 413.867 349.128 413.858 349.095 413.875L346.62 414.55L346.52 414.575C346.37 414.575 346.295 414.483 346.295 414.3L346.22 412.15C346.22 411.983 346.295 411.867 346.445 411.8L349.07 410.575Z"></path>
<path fill-opacity="0.2" fill="#9F7AEA" d="M683.984 410.3C685.167 410.3 686.209 410.55 687.109 411.05C688.009 411.533 688.709 412.217 689.209 413.1C689.709 413.983 689.959 415.008 689.959 416.175V422.475C689.959 423.975 689.534 425.225 688.684 426.225C687.851 427.225 686.717 427.842 685.284 428.075C685.217 428.092 685.184 428.133 685.184 428.2V430.475C685.184 430.642 685.101 430.725 684.934 430.725H683.034C682.867 430.725 682.784 430.642 682.784 430.475V428.2C682.784 428.133 682.751 428.092 682.684 428.075C681.251 427.842 680.109 427.225 679.259 426.225C678.426 425.225 678.009 423.975 678.009 422.475V416.175C678.009 415.008 678.259 413.983 678.759 413.1C679.259 412.217 679.959 411.533 680.859 411.05C681.759 410.55 682.801 410.3 683.984 410.3ZM687.559 416.05C687.559 414.95 687.226 414.067 686.559 413.4C685.909 412.717 685.051 412.375 683.984 412.375C682.917 412.375 682.051 412.717 681.384 413.4C680.734 414.067 680.409 414.95 680.409 416.05V422.45C680.409 423.55 680.734 424.442 681.384 425.125C682.051 425.792 682.917 426.125 683.984 426.125C685.051 426.125 685.909 425.792 686.559 425.125C687.226 424.442 687.559 423.55 687.559 422.45V416.05ZM703.86 421.15C704.026 421.15 704.11 421.233 704.11 421.4V423.05C704.11 423.217 704.026 423.3 703.86 423.3H702.785C702.718 423.3 702.685 423.333 702.685 423.4V427.75C702.685 427.917 702.601 428 702.435 428H700.535C700.368 428 700.285 427.917 700.285 427.75V423.4C700.285 423.333 700.251 423.3 700.185 423.3H692.585C692.418 423.3 692.335 423.217 692.335 423.05V421.7C692.335 421.617 692.36 421.517 692.41 421.4L697.335 410.675C697.385 410.558 697.476 410.5 697.61 410.5H699.61C699.693 410.5 699.751 410.533 699.785 410.6C699.835 410.65 699.843 410.717 699.81 410.8L695.11 421.025C695.093 421.058 695.093 421.092 695.11 421.125C695.126 421.142 695.151 421.15 695.185 421.15H700.185C700.251 421.15 700.285 421.117 700.285 421.05V417.325C700.285 417.158 700.368 417.075 700.535 417.075H702.435C702.601 417.075 702.685 417.158 702.685 417.325V421.05C702.685 421.117 702.718 421.15 702.785 421.15H703.86ZM711.447 428C711.264 428 711.197 427.908 711.247 427.725L717.122 410.7C717.172 410.567 717.272 410.5 717.422 410.5H719.297C719.481 410.5 719.547 410.592 719.497 410.775L713.622 427.8C713.572 427.933 713.472 428 713.322 428H711.447ZM730.647 425.8C730.63 425.833 730.63 425.867 730.647 425.9C730.664 425.917 730.689 425.925 730.722 425.925H738.247C738.414 425.925 738.497 426.008 738.497 426.175V427.75C738.497 427.917 738.414 428 738.247 428H727.772C727.605 428 727.522 427.917 727.522 427.75V426.225C727.522 426.108 727.564 426.008 727.647 425.925C728.214 425.275 729.514 423.75 731.547 421.35L733.272 419.275C734.822 417.425 735.597 415.992 735.597 414.975C735.597 414.192 735.33 413.567 734.797 413.1C734.28 412.617 733.589 412.375 732.722 412.375C731.855 412.375 731.164 412.617 730.647 413.1C730.13 413.583 729.88 414.217 729.897 415V415.75C729.897 415.917 729.814 416 729.647 416H727.722C727.555 416 727.472 415.917 727.472 415.75V414.675C727.505 413.808 727.747 413.042 728.197 412.375C728.664 411.708 729.289 411.2 730.072 410.85C730.855 410.483 731.739 410.3 732.722 410.3C733.789 410.3 734.722 410.5 735.522 410.9C736.322 411.3 736.939 411.85 737.372 412.55C737.805 413.25 738.022 414.042 738.022 414.925C738.022 416.308 737.272 417.942 735.772 419.825C735.105 420.675 734.314 421.633 733.397 422.7C732.48 423.75 731.564 424.783 730.647 425.8ZM743.752 410.575C743.852 410.525 743.96 410.5 744.077 410.5H746.052C746.219 410.5 746.302 410.583 746.302 410.75V427.75C746.302 427.917 746.219 428 746.052 428H744.152C743.985 428 743.902 427.917 743.902 427.75V413.075C743.902 413.042 743.885 413.017 743.852 413C743.835 412.983 743.81 412.983 743.777 413L741.152 413.9C741.119 413.917 741.077 413.925 741.027 413.925C740.927 413.925 740.869 413.858 740.852 413.725L740.752 412.3C740.752 412.133 740.802 412.033 740.902 412L743.752 410.575Z"></path>
<path fill="#705AA6" d="M105.948 69.7581L88.0189 75.0757C87.4712 75.2384 86.9462 74.7632 87.0613 74.2093L93.4664 43.4486C93.5862 42.8733 94.3791 42.782 94.6292 43.3147L106.489 68.5691C106.712 69.0455 106.457 69.6073 105.948 69.7581M109.025 68.5041L95.2932 39.2627V39.2621C94.9488 38.531 94.2301 38.0487 93.4157 38.004C92.5801 37.9552 91.8314 38.3593 91.4091 39.0472L76.5165 63.2362C76.0552 63.9901 76.0642 64.9197 76.5427 65.6645L83.8224 76.9729C84.2563 77.648 85.0081 78.0387 85.7894 78.0387C86.0109 78.0387 86.2336 78.0074 86.4526 77.9423L107.584 71.675C108.231 71.4829 108.76 71.0237 109.037 70.415C109.313 69.806 109.309 69.1091 109.025 68.5041" clip-rule="evenodd" fill-rule="evenodd"></path>
<defs>
<radialGradient gradientTransform="translate(422 237) rotate(90) scale(237 422)" gradientUnits="userSpaceOnUse" r="1" cy="0" cx="0" id="paint0_radial_7076_3929">
<stop stop-color="#44337A"></stop>
<stop stop-color="#2D3748" offset="1"></stop>
</radialGradient>
<linearGradient gradientUnits="userSpaceOnUse" y2="219" x2="427" y1="119" x1="519" id="paint1_linear_7076_3929">
<stop stop-color="#B794F4"></stop>
<stop stop-color="#6B46C1" offset="1"></stop>
</linearGradient>
<linearGradient gradientUnits="userSpaceOnUse" y2="219" x2="482.5" y1="330.5" x1="482.5" id="paint2_linear_7076_3929">
<stop stop-color="#9F7AEA"></stop>
<stop stop-color="#1A202C" offset="1"></stop>
</linearGradient>
<linearGradient gradientUnits="userSpaceOnUse" y2="219" x2="371.5" y1="330.5" x1="371.5" id="paint3_linear_7076_3929">
<stop stop-color="#1A202C"></stop>
<stop stop-color="#9F7AEA" offset="1"></stop>
</linearGradient>
<linearGradient gradientUnits="userSpaceOnUse" y2="218.5" x2="371.5" y1="107" x1="371.5" id="paint4_linear_7076_3929">
<stop stop-color="#9F7AEA"></stop>
<stop stop-color="#1A202C" offset="1"></stop>
</linearGradient>
</defs>
</svg>
