<svg width="85" height="85" viewBox="0 0 85 85" fill="none" xmlns="http://www.w3.org/2000/svg">
<g filter="url(#filter0_d_2744_54)">
<path fill-rule="evenodd" clip-rule="evenodd" d="M22.1545 49.1507C21.6497 49.9726 21.6575 51.0096 22.1747 51.8238L31.5354 66.5605C32.1429 67.5169 33.3139 67.953 34.4008 67.6276L61.4136 59.54C62.8878 59.0986 63.6295 57.4574 62.9851 56.0625L45.62 18.4688C44.7731 16.6354 42.2202 16.4849 41.1629 18.2061L22.1545 49.1507ZM45.1586 27.0631C44.7895 26.2108 43.5397 26.3421 43.3565 27.2524L36.671 60.4741C36.53 61.1746 37.1872 61.7728 37.8732 61.5684L56.5369 56.0083C57.0817 55.846 57.3623 55.2455 57.1368 54.7247L45.1586 27.0631Z" fill="white"/>
</g>
<defs>
<filter id="filter0_d_2744_54" x="21.5156" y="16.7344" width="42.5" height="51.7969" filterUnits="userSpaceOnUse" color-interpolation-filters="sRGB">
<feFlood flood-opacity="0" result="BackgroundImageFix"/>
<feColorMatrix in="SourceAlpha" type="matrix" values="0 0 0 0 0 0 0 0 0 0 0 0 0 0 0 0 0 0 127 0" result="hardAlpha"/>
<feOffset dx="0.265625" dy="0.265625"/>
<feGaussianBlur stdDeviation="0.265625"/>
<feComposite in2="hardAlpha" operator="out"/>
<feColorMatrix type="matrix" values="0 0 0 0 0 0 0 0 0 0 0 0 0 0 0 0 0 0 0.2 0"/>
<feBlend mode="normal" in2="BackgroundImageFix" result="effect1_dropShadow_2744_54"/>
<feBlend mode="normal" in="SourceGraphic" in2="effect1_dropShadow_2744_54" result="shape"/>
</filter>
</defs>
</svg>
