<svg xmlns="http://www.w3.org/2000/svg" fill="none" viewBox="0 0 844 474" height="474" width="844">
<g clip-path="url(#clip0_870_29072)">
<rect fill="#1A202C" height="474" width="844"></rect>
<g clip-path="url(#clip1_870_29072)">
<rect fill="#1A202C" transform="translate(-586.229 -332.875)" height="827.107" width="1743.83"></rect>
<path stroke-linecap="round" stroke-miterlimit="10" stroke-width="14.0672" stroke="url(#paint0_linear_870_29072)" d="M149.833 -72.9385C103.732 -49.8707 62.9205 -14.7717 32.6247 31.2997C22.7505 46.2825 14.4152 61.875 7.52246 77.7882C6.11186 81.0286 4.82943 84.3011 3.54706 87.6057C-4.91654 109.23 -10.6551 131.528 -13.9251 153.954C-30.3073 266.854 17.7813 384.471 119.152 451.236C212.636 512.804 327.985 515.691 421.566 468.882C467.667 445.814 508.478 410.715 538.774 364.644C548.648 349.661 556.983 334.069 563.876 318.155"></path>
<path stroke-linecap="round" stroke-miterlimit="10" stroke-width="14.0672" stroke="url(#paint1_linear_870_29072)" d="M113.255 -81.9541C73.5338 -57.5388 38.4291 -24.3007 11.1789 17.1508C-8.28099 46.7636 -22.3229 78.3976 -31.2033 110.898C-32.2291 114.587 -33.1268 118.309 -34.0245 122.031C-42.9048 159.696 -44.9245 198.292 -40.5004 236.022C-29.6003 329.224 20.7646 417.164 105.016 472.668C214.947 545.079 352.704 542.641 458.083 477.865C497.804 453.45 532.909 420.212 560.159 378.76C579.619 349.148 593.661 317.513 602.541 285.013"></path>
<path stroke-linecap="round" stroke-miterlimit="10" stroke-width="14.0672" stroke="url(#paint2_linear_870_29072)" d="M50.2256 -66.9395C27.5919 -46.7912 7.17027 -23.4347 -10.2378 3.06598C-17.0985 13.5251 -23.35 24.2088 -28.9924 35.085C-30.8839 38.7746 -32.7112 42.4641 -34.4745 46.1858C-56.2106 92.0647 -67.271 140.927 -68.361 189.63C-70.9578 307.696 -14.7262 424.543 90.9086 494.131C227.609 584.156 404.222 566.864 521.11 462.914C543.743 442.766 564.165 419.409 581.573 392.909C588.434 382.45 594.685 371.766 600.328 360.89"></path>
<path stroke-linecap="round" stroke-miterlimit="10" stroke-width="14.0672" stroke="url(#paint3_linear_870_29072)" d="M7.23452 -60.6831C-24.5681 -26.4825 -50.5681 14.199 -68.4571 60.3346C-79.293 88.2469 -86.5704 116.673 -90.5778 145.13C-91.219 149.782 -91.7961 154.467 -92.245 159.119C-97.0859 206.281 -92.854 253.283 -80.6716 297.878C-49.959 410.202 31.5994 507.093 148.166 552.362C297.337 610.336 461.223 567.249 564.133 456.594C595.936 422.393 621.936 381.712 639.825 335.576C650.661 307.664 657.938 279.238 661.945 250.78"></path>
<path stroke-linecap="round" stroke-miterlimit="10" stroke-width="14.0672" stroke="url(#paint4_linear_870_29072)" d="M-32.423 -53.5284C-82.7238 9.99634 -114.591 89.1456 -119.271 176.059C-122.189 230.312 -114.27 282.703 -97.4068 331.085C-79.5499 382.322 -51.6264 429.099 -15.9767 468.882C53.3671 546.235 152.141 597.183 263.771 603.214C400.215 610.593 524.764 549.25 603.758 449.44C654.059 385.915 685.925 306.766 690.606 219.852C693.523 165.6 685.605 113.208 668.742 64.8265"></path>
<path stroke-linecap="round" stroke-miterlimit="10" stroke-width="14.0672" stroke="url(#paint5_linear_870_29072)" d="M-17.2257 -109.192C-29.857 -96.68 -41.8792 -83.2692 -53.132 -68.9601C-66.5006 -51.9881 -78.3304 -34.3103 -88.7496 -16.0871C-193.038 166.338 -150.88 403.208 18.9689 537.027C191.479 672.931 436.282 655.735 588.563 505.104"></path>
<path stroke-linecap="round" stroke-miterlimit="10" stroke-width="14.0672" stroke="url(#paint6_linear_870_29072)" d="M3.06691 -161.264C-34.6025 -131.651 -68.1684 -95.5578 -95.9316 -53.3685C-100.708 -46.1177 -105.197 -38.8027 -109.493 -31.3915C-131.261 6.14582 -147.066 45.6723 -157.229 86.0329C-203.33 269.42 -131.998 470.197 34.5489 579.857C202.827 690.672 418.04 675.401 568.333 557.174C606.002 527.561 639.568 491.468 667.332 449.279C672.108 442.028 676.597 434.713 680.893 427.302"></path>
<path stroke-linecap="round" stroke-miterlimit="10" stroke-width="14.0672" stroke="url(#paint7_linear_870_29072)" d="M17.2369 -203.26C-34.795 -168.482 -80.864 -122.988 -117.379 -67.4843C-137.448 -36.9411 -153.606 -4.95416 -165.949 27.899C-178.644 61.6184 -187.3 96.2362 -192.109 131.143C-216.795 309.942 -140.013 495.64 20.4107 601.29C187.182 711.142 397.618 703.699 554.098 599.172C606.13 564.394 652.199 518.9 688.715 463.396C708.784 432.853 724.941 400.866 737.284 368.013"></path>
<path stroke-linecap="round" stroke-miterlimit="10" stroke-width="14.0672" stroke="url(#paint8_linear_870_29072)" d="M-17.1302 -210.094C-104.363 -145.415 -171.687 -52.4697 -203.394 59.9819C-208.395 77.6918 -212.338 95.4338 -215.352 113.176C-232.952 216.772 -217.403 319.984 -175.63 410.619C-115.487 541.069 -0.908328 645.468 147.75 687.4C305.064 731.804 466.321 696.608 588.466 606.038C675.699 541.358 743.023 448.413 774.729 335.961C779.731 318.251 783.674 300.509 786.687 282.767"></path>
<path stroke-linecap="round" stroke-miterlimit="10" stroke-width="14.0672" stroke="url(#paint9_linear_870_29072)" d="M-201.148 -20.9322C-234.714 53.5008 -251.673 136.725 -247.474 223.734C-245.069 273.367 -235.932 321.074 -220.993 366.087C-203.873 417.709 -179.092 465.738 -148.123 508.922C-45.9822 651.21 123.931 740.594 311.445 731.547C518.482 721.537 692.627 594.134 772.551 416.875C806.117 342.442 823.076 259.218 818.876 172.209C816.472 122.576 807.335 74.8682 792.395 29.8555"></path>
<path stroke-linecap="round" stroke-miterlimit="10" stroke-width="14.0672" stroke="url(#paint10_linear_870_29072)" d="M-117.829 -189.851C-141.104 -165.596 -162.487 -138.903 -181.627 -109.835C-196.759 -86.7995 -209.967 -63.0259 -221.284 -38.771C-234.396 -10.6661 -244.976 18.1446 -253.119 47.3402C-316.628 275.484 -229.876 528.588 -21.8443 665.583C206.769 816.149 506.169 776.655 689.226 585.728C712.501 561.473 733.885 534.78 753.024 505.713C768.156 482.677 781.364 458.903 792.681 434.648"></path>
<path stroke-linecap="round" stroke-miterlimit="10" stroke-width="14.0672" stroke="url(#paint11_linear_870_29072)" d="M-188.646 -144.806C-193.583 -137.972 -198.392 -131.042 -203.073 -123.952C-245.679 -59.1436 -273.699 11.0864 -287.965 82.8565C-333.137 309.813 -240.71 552.201 -35.9809 687.047C226.423 859.847 577.951 793.274 759.982 540.683"></path>
<path stroke-linecap="round" stroke-miterlimit="10" stroke-width="14.0672" stroke="url(#paint12_linear_870_29072)" d="M-257.67 -81.1202C-270.525 -56.0953 -281.49 -30.4929 -290.594 -4.47345C-317.139 71.2749 -327.975 150.328 -324.032 228.226C-314.478 416.169 -218.846 597.343 -50.0871 708.511C231.232 893.791 610.683 815.476 795.824 533.979C808.039 515.402 819.067 496.409 829.005 477.063C841.861 452.038 852.825 426.436 861.93 400.416"></path>
<path stroke-linecap="round" stroke-miterlimit="10" stroke-width="14.0672" stroke="url(#paint13_linear_870_29072)" d="M-239.364 -161.873C-252.604 -142.495 -264.947 -122.218 -276.232 -100.979C-325.186 -8.80429 -349.166 90.1081 -350.545 187.93C-351.443 251.101 -342.883 313.792 -325.571 373.948C-279.502 534.075 -171.303 676.075 -13.0269 760.294C275.601 913.844 630.367 821.797 810.732 557.817C823.972 538.438 836.315 518.162 847.6 496.923C896.554 404.748 920.534 305.835 921.913 208.014"></path>
<path stroke-linecap="round" stroke-miterlimit="10" stroke-width="14.0672" stroke="url(#paint14_linear_870_29072)" d="M-279.693 -146.858C-308.097 -100.21 -331.148 -49.2935 -347.755 5.34414C-393.791 157.001 -382.603 312.637 -326.692 448.926C-302.744 507.285 -270.556 562.083 -231.156 611.524C-150.527 712.746 -39.6666 791.478 93.1863 831.871C387.873 921.479 697.66 794.558 851.031 542.802C879.436 496.153 902.486 445.237 919.093 390.599C965.13 238.942 953.941 83.3063 898.03 -52.983"></path>
<path stroke-linecap="round" stroke-miterlimit="10" stroke-width="14.0672" stroke="url(#paint15_linear_870_29072)" d="M-224.776 -263.289C-247.827 -237.686 -269.274 -210.031 -288.766 -180.386C-356.154 -77.912 -392.509 36.1437 -400.203 150.584C-403.538 200.281 -401.454 250.074 -394.176 299.033C-366.317 486.046 -262.253 660.899 -92.372 772.773C194.749 961.872 572.662 907.106 796.114 659.135C819.164 633.533 840.612 605.877 860.104 576.232C927.492 473.758 963.847 359.703 971.541 245.262"></path>
<path stroke-linecap="round" stroke-miterlimit="10" stroke-width="14.0672" stroke="url(#paint16_linear_870_29072)" d="M-162.742 -357.228C-218.653 -312.054 -268.601 -257.673 -310.182 -194.502C-391.676 -70.5644 -429.442 69.639 -427.326 207.885C-426.332 272.758 -416.522 337.181 -398.344 399.262C-352.436 555.892 -253.085 697.667 -106.478 794.238C158.939 969.027 499.15 942.911 734.079 753.107C789.99 707.934 839.938 653.553 881.519 590.381C963.013 466.444 1000.78 326.24 998.663 187.994"></path>
<path stroke-linecap="round" stroke-miterlimit="10" stroke-width="14.0672" stroke="url(#paint17_linear_870_29072)" d="M-333.104 -206.181C-386.771 -124.144 -424.921 -30.1082 -442.586 72.5259C-471.856 242.791 -440.182 409.656 -363.4 550.758C-332.11 608.283 -293.255 661.477 -248.019 708.928C-142.385 819.743 -1.7093 898.86 160.349 926.773C459.365 978.266 747.993 841.335 904.473 602.123C958.14 520.086 996.29 426.051 1013.96 323.416C1043.23 153.151 1011.55 -13.7136 934.769 -154.815"></path>
<path stroke-linecap="round" stroke-miterlimit="10" stroke-width="14.0672" stroke="url(#paint18_linear_870_29072)" d="M-298.737 -295.18C-382.732 -195.818 -442.522 -73.7738 -467.015 63.2855C-501.767 257.71 -459.481 448.412 -362.086 603.855C-323.743 665.102 -276.809 720.862 -222.693 769.244C-120.713 860.424 6.85034 925.392 151.084 951.219C429.133 1000.98 699.551 892.828 870.074 691.121C954.068 591.76 1013.86 469.715 1038.35 332.656C1073.1 138.232 1030.82 -52.4384 933.422 -207.913"></path>
<path stroke-linecap="round" stroke-miterlimit="10" stroke-width="14.0672" stroke="url(#paint19_linear_870_29072)" d="M-411.841 -173.552C-466.566 -71.0465 -499.459 45.0625 -504.043 168.775C-510.135 334.26 -464.675 489.896 -382.155 620.218C-329.385 703.538 -261.42 776.495 -182.074 835.015C-58.7424 926.002 92.1918 982.18 256.527 988.244C568.333 999.762 845.196 827.924 983.21 569.43C1037.94 466.924 1070.83 350.815 1075.41 227.103C1081.5 61.6175 1036.04 -94.018 953.524 -224.34"></path>
<path stroke-linecap="round" stroke-miterlimit="10" stroke-width="14.0672" stroke="url(#paint20_linear_870_29072)" d="M-204.322 -454.922C-277.577 -399.963 -342.721 -331.755 -395.875 -250.937C-483.653 -117.471 -527.061 32.5177 -529.818 181.576C-531.453 270.447 -518.63 358.964 -492.085 443.439C-437.712 616.56 -325.794 772.677 -162.87 879.995C132.202 1074.32 508.063 1051.54 775.692 850.799C848.947 795.841 914.092 727.632 967.246 646.814C1055.02 513.348 1098.43 363.359 1101.19 214.301"></path>
<path stroke-linecap="round" stroke-miterlimit="10" stroke-width="14.0672" stroke="url(#paint21_linear_870_29072)" d="M-261.002 -442.152C-359.648 -358.062 -440.245 -249.942 -492.758 -121.994C-570.373 67.1364 -573.899 268.522 -516.93 449.792C-495.675 517.392 -465.956 582.168 -428.607 642.484C-338.553 787.821 -203.809 907.202 -34.0242 976.983C267.331 1100.86 599.944 1036.21 832.373 838.063C931.019 753.973 1011.62 645.853 1064.13 517.905C1141.74 328.775 1145.27 127.389 1088.3 -53.8813"></path>
<path stroke-linecap="round" stroke-miterlimit="10" stroke-width="14.0672" stroke="url(#paint22_linear_870_29072)" d="M-308.355 -433.682C-463.521 -287.64 -565.725 -84.6494 -579.863 144.392C-588.038 276.639 -565.981 403.849 -519.72 519.381C-480.672 616.946 -424.312 706.137 -354.295 782.912C-207.785 943.52 -1.35672 1049.72 232.162 1064.15C480.556 1079.52 711.317 988.116 879.724 829.593C1034.89 683.55 1137.09 480.56 1151.23 251.518C1159.41 119.271 1137.35 -7.93837 1091.09 -123.47"></path>
<path stroke-linecap="round" stroke-miterlimit="10" stroke-width="14.0672" stroke="url(#paint23_linear_870_29072)" d="M-545.85 -126.871C-603.589 20.4549 -622.984 184.881 -593.843 351.842C-558.61 553.485 -457.976 727.536 -317.621 856.093C-229.299 936.975 -125.267 999.826 -11.8738 1040.19C128.289 1090.04 282.717 1105.54 439.39 1078.14C757.513 1022.48 1007.06 803.734 1117.15 522.813C1174.89 375.487 1194.29 211.061 1165.14 44.1003C1129.91 -157.542 1029.28 -331.594 888.923 -460.151"></path>
<path stroke-linecap="round" stroke-miterlimit="10" stroke-width="14.0672" stroke="url(#paint24_linear_870_29072)" d="M-397.351 -415.94C-531.229 -267.074 -617.757 -73.7408 -631.061 141.216C-647.893 413.378 -543.925 665.552 -365.644 845.378C-303.225 908.325 -231.701 962.417 -153.06 1005.38C-38.7377 1067.84 90.6207 1106.82 228.988 1115.39C519.668 1133.39 787.553 1013.33 968.719 811.851C1102.6 662.985 1189.13 469.684 1202.43 254.695C1219.23 -17.4669 1115.29 -269.641 936.981 -449.467"></path>
</g>
<path fill="#718096" d="M53.2776 70.0725C54.165 70.0725 54.9447 70.254 55.617 70.617C56.2892 70.98 56.8068 71.4977 57.1698 72.1699C57.5463 72.8287 57.7345 73.5883 57.7345 74.4487C57.7345 75.2957 57.5395 76.0419 57.1497 76.6872C56.7732 77.3326 56.2354 77.8368 55.5363 78.1998C54.8506 78.5493 54.0574 78.7241 53.1566 78.7241H50.2929C50.2257 78.7241 50.1921 78.7577 50.1921 78.8249V83.9675C50.1921 84.0347 50.1652 84.0952 50.1114 84.149C50.0711 84.1893 50.0173 84.2095 49.9501 84.2095H47.5906C47.5234 84.2095 47.4629 84.1893 47.4091 84.149C47.3687 84.0952 47.3486 84.0347 47.3486 83.9675V70.3145C47.3486 70.2473 47.3687 70.1935 47.4091 70.1532C47.4629 70.0994 47.5234 70.0725 47.5906 70.0725H53.2776ZM52.8541 76.4452C53.4726 76.4452 53.97 76.2705 54.3465 75.9209C54.7229 75.5579 54.9111 75.0873 54.9111 74.5092C54.9111 73.9177 54.7229 73.4404 54.3465 73.0774C53.97 72.7144 53.4726 72.5329 52.8541 72.5329H50.2929C50.2257 72.5329 50.1921 72.5665 50.1921 72.6337V76.3444C50.1921 76.4116 50.2257 76.4452 50.2929 76.4452H52.8541ZM69.2433 84.2095C69.1088 84.2095 69.0147 84.149 68.9609 84.028L66.4401 78.4418C66.4132 78.388 66.3729 78.3611 66.3191 78.3611H64.4436C64.3764 78.3611 64.3427 78.3947 64.3427 78.4619V83.9675C64.3427 84.0347 64.3159 84.0952 64.2621 84.149C64.2217 84.1893 64.168 84.2095 64.1007 84.2095H61.7412C61.674 84.2095 61.6135 84.1893 61.5597 84.149C61.5194 84.0952 61.4992 84.0347 61.4992 83.9675V70.3347C61.4992 70.2675 61.5194 70.2137 61.5597 70.1734C61.6135 70.1196 61.674 70.0927 61.7412 70.0927H67.5089C68.3694 70.0927 69.1223 70.2675 69.7676 70.617C70.4264 70.9666 70.9306 71.464 71.2801 72.1094C71.6431 72.7547 71.8246 73.5009 71.8246 74.3479C71.8246 75.2621 71.5961 76.0486 71.139 76.7074C70.6819 77.3528 70.0432 77.8099 69.2231 78.0788C69.1559 78.1056 69.1357 78.1527 69.1626 78.2199L71.9053 83.9271C71.9322 83.9809 71.9456 84.0212 71.9456 84.0481C71.9456 84.1557 71.8717 84.2095 71.7238 84.2095H69.2433ZM64.4436 72.5329C64.3764 72.5329 64.3427 72.5665 64.3427 72.6337V76.0822C64.3427 76.1495 64.3764 76.1831 64.4436 76.1831H67.0854C67.6501 76.1831 68.1072 76.015 68.4568 75.6789C68.8198 75.3428 69.0013 74.9058 69.0013 74.3681C69.0013 73.8303 68.8198 73.3933 68.4568 73.0572C68.1072 72.7077 67.6501 72.5329 67.0854 72.5329H64.4436ZM85.7046 72.2909C85.7046 72.3581 85.6777 72.4186 85.6239 72.4724C85.5836 72.5127 85.5298 72.5329 85.4626 72.5329H78.8479C78.7807 72.5329 78.7471 72.5665 78.7471 72.6337V75.7596C78.7471 75.8268 78.7807 75.8604 78.8479 75.8604H83.1838C83.251 75.8604 83.3048 75.8873 83.3451 75.9411C83.3989 75.9814 83.4258 76.0352 83.4258 76.1024V78.0586C83.4258 78.1258 83.3989 78.1863 83.3451 78.2401C83.3048 78.2804 83.251 78.3006 83.1838 78.3006H78.8479C78.7807 78.3006 78.7471 78.3342 78.7471 78.4014V81.6685C78.7471 81.7357 78.7807 81.7693 78.8479 81.7693H85.4626C85.5298 81.7693 85.5836 81.7962 85.6239 81.85C85.6777 81.8903 85.7046 81.9441 85.7046 82.0113V83.9675C85.7046 84.0347 85.6777 84.0952 85.6239 84.149C85.5836 84.1893 85.5298 84.2095 85.4626 84.2095H76.1455C76.0783 84.2095 76.0178 84.1893 75.964 84.149C75.9237 84.0952 75.9035 84.0347 75.9035 83.9675V70.3347C75.9035 70.2675 75.9237 70.2137 75.964 70.1734C76.0178 70.1196 76.0783 70.0927 76.1455 70.0927H85.4626C85.5298 70.0927 85.5836 70.1196 85.6239 70.1734C85.6777 70.2137 85.7046 70.2675 85.7046 70.3347V72.2909ZM93.5665 84.2095C93.4321 84.2095 93.3447 84.1422 93.3043 84.0078L89.15 70.375L89.1298 70.2944C89.1298 70.1599 89.2038 70.0927 89.3517 70.0927H91.8927C92.0406 70.0927 92.1347 70.1599 92.175 70.2944L94.8572 80.1358C94.8706 80.1761 94.8908 80.1963 94.9177 80.1963C94.9446 80.1963 94.9647 80.1761 94.9782 80.1358L97.62 70.2944C97.6604 70.1599 97.7545 70.0927 97.9024 70.0927H100.383C100.464 70.0927 100.524 70.1196 100.564 70.1734C100.605 70.2271 100.611 70.2944 100.585 70.375L96.3697 84.0078C96.3294 84.1422 96.242 84.2095 96.1075 84.2095H93.5665ZM104.619 84.2095C104.552 84.2095 104.492 84.1893 104.438 84.149C104.398 84.0952 104.377 84.0347 104.377 83.9675V70.3347C104.377 70.2675 104.398 70.2137 104.438 70.1734C104.492 70.1196 104.552 70.0927 104.619 70.0927H106.979C107.046 70.0927 107.1 70.1196 107.14 70.1734C107.194 70.2137 107.221 70.2675 107.221 70.3347V83.9675C107.221 84.0347 107.194 84.0952 107.14 84.149C107.1 84.1893 107.046 84.2095 106.979 84.2095H104.619ZM121.493 72.2909C121.493 72.3581 121.466 72.4186 121.412 72.4724C121.372 72.5127 121.318 72.5329 121.251 72.5329H114.636C114.569 72.5329 114.535 72.5665 114.535 72.6337V75.7596C114.535 75.8268 114.569 75.8604 114.636 75.8604H118.972C119.039 75.8604 119.093 75.8873 119.133 75.9411C119.187 75.9814 119.214 76.0352 119.214 76.1024V78.0586C119.214 78.1258 119.187 78.1863 119.133 78.2401C119.093 78.2804 119.039 78.3006 118.972 78.3006H114.636C114.569 78.3006 114.535 78.3342 114.535 78.4014V81.6685C114.535 81.7357 114.569 81.7693 114.636 81.7693H121.251C121.318 81.7693 121.372 81.7962 121.412 81.85C121.466 81.8903 121.493 81.9441 121.493 82.0113V83.9675C121.493 84.0347 121.466 84.0952 121.412 84.149C121.372 84.1893 121.318 84.2095 121.251 84.2095H111.934C111.867 84.2095 111.806 84.1893 111.752 84.149C111.712 84.0952 111.692 84.0347 111.692 83.9675V70.3347C111.692 70.2675 111.712 70.2137 111.752 70.1734C111.806 70.1196 111.867 70.0927 111.934 70.0927H121.251C121.318 70.0927 121.372 70.1196 121.412 70.1734C121.466 70.2137 121.493 70.2675 121.493 70.3347V72.2909ZM128.73 84.2095C128.582 84.2095 128.488 84.1422 128.447 84.0078L124.878 70.3549L124.858 70.2742C124.858 70.1532 124.931 70.0927 125.079 70.0927H127.58C127.715 70.0927 127.802 70.1599 127.842 70.2944L129.758 78.5023C129.772 78.556 129.792 78.5829 129.819 78.5829C129.845 78.5829 129.866 78.556 129.879 78.5023L131.734 70.3145C131.775 70.1666 131.862 70.0927 131.997 70.0927H134.437C134.585 70.0927 134.679 70.1599 134.719 70.2944L136.736 78.5023C136.749 78.5426 136.769 78.5695 136.796 78.5829C136.823 78.5829 136.843 78.556 136.857 78.5023L138.712 70.3145C138.752 70.1666 138.84 70.0927 138.974 70.0927H141.354C141.542 70.0927 141.616 70.1801 141.576 70.3549L138.268 84.0078C138.228 84.1422 138.134 84.2095 137.986 84.2095H135.586C135.452 84.2095 135.364 84.1422 135.324 84.0078L133.267 75.2756C133.254 75.2218 133.233 75.1949 133.207 75.1949C133.18 75.1949 133.16 75.2218 133.146 75.2756L131.23 83.9876C131.203 84.1355 131.116 84.2095 130.968 84.2095H128.73Z"></path>
<path fill="white" d="M82.7669 170.343C82.2854 170.343 81.9724 170.102 81.8279 169.62L79.6611 162.542C79.5648 162.349 79.4444 162.253 79.2999 162.253H61.5317C61.3872 162.253 61.2669 162.349 61.1706 162.542L59.0759 169.62C58.9315 170.102 58.6185 170.343 58.137 170.343H48.9639C48.675 170.343 48.4583 170.271 48.3139 170.126C48.1694 169.933 48.1453 169.669 48.2416 169.332L63.843 120.505C63.9875 120.024 64.3005 119.783 64.782 119.783H76.1219C76.6034 119.783 76.9164 120.024 77.0608 120.505L92.6622 169.332C92.7104 169.428 92.7344 169.548 92.7344 169.693C92.7344 170.126 92.4696 170.343 91.9399 170.343H82.7669ZM63.7708 153.947C63.7226 154.236 63.8189 154.38 64.0597 154.38H76.7719C77.0608 154.38 77.1571 154.236 77.0608 153.947L70.5603 132.495C70.5121 132.302 70.4399 132.23 70.3436 132.278C70.2473 132.278 70.1751 132.351 70.1269 132.495L63.7708 153.947ZM112.113 170.921C108.261 170.921 104.914 169.958 102.073 168.031C99.2805 166.105 97.2822 163.457 96.0784 160.086C95.2598 157.679 94.8505 154.838 94.8505 151.563C94.8505 148.337 95.2598 145.544 96.0784 143.185C97.2341 139.91 99.2324 137.334 102.073 135.456C104.914 133.578 108.261 132.639 112.113 132.639C115.965 132.639 119.336 133.603 122.225 135.529C125.162 137.455 127.113 139.886 128.076 142.824C128.461 143.979 128.653 144.846 128.653 145.424V145.568C128.653 146.002 128.413 146.267 127.931 146.363L119.625 147.591H119.48C119.047 147.591 118.758 147.35 118.614 146.868L118.397 145.713C118.06 144.461 117.314 143.426 116.158 142.607C115.002 141.788 113.63 141.379 112.041 141.379C110.5 141.379 109.2 141.764 108.141 142.535C107.081 143.305 106.335 144.365 105.901 145.713C105.372 147.157 105.107 149.132 105.107 151.636C105.107 154.139 105.348 156.114 105.829 157.558C106.263 159.003 107.009 160.134 108.068 160.953C109.176 161.772 110.5 162.181 112.041 162.181C113.534 162.181 114.834 161.796 115.941 161.025C117.097 160.207 117.891 159.099 118.325 157.703C118.373 157.606 118.397 157.462 118.397 157.269C118.445 157.221 118.469 157.149 118.469 157.053C118.517 156.475 118.854 156.234 119.48 156.33L127.787 157.631C128.268 157.727 128.509 157.992 128.509 158.425C128.509 158.81 128.365 159.533 128.076 160.592C127.064 163.818 125.09 166.346 122.153 168.176C119.264 170.006 115.917 170.921 112.113 170.921ZM149.04 170.921C145.188 170.921 141.841 169.958 139 168.031C136.207 166.105 134.209 163.457 133.005 160.086C132.187 157.679 131.777 154.838 131.777 151.563C131.777 148.337 132.187 145.544 133.005 143.185C134.161 139.91 136.159 137.334 139 135.456C141.841 133.578 145.188 132.639 149.04 132.639C152.892 132.639 156.263 133.603 159.152 135.529C162.089 137.455 164.039 139.886 165.003 142.824C165.388 143.979 165.58 144.846 165.58 145.424V145.568C165.58 146.002 165.34 146.267 164.858 146.363L156.552 147.591H156.407C155.974 147.591 155.685 147.35 155.541 146.868L155.324 145.713C154.987 144.461 154.24 143.426 153.085 142.607C151.929 141.788 150.557 141.379 148.968 141.379C147.427 141.379 146.127 141.764 145.067 142.535C144.008 143.305 143.262 144.365 142.828 145.713C142.299 147.157 142.034 149.132 142.034 151.636C142.034 154.139 142.275 156.114 142.756 157.558C143.189 159.003 143.936 160.134 144.995 160.953C146.103 161.772 147.427 162.181 148.968 162.181C150.46 162.181 151.761 161.796 152.868 161.025C154.024 160.207 154.818 159.099 155.252 157.703C155.3 157.606 155.324 157.462 155.324 157.269C155.372 157.221 155.396 157.149 155.396 157.053C155.444 156.475 155.781 156.234 156.407 156.33L164.714 157.631C165.195 157.727 165.436 157.992 165.436 158.425C165.436 158.81 165.291 159.533 165.003 160.592C163.991 163.818 162.017 166.346 159.08 168.176C156.191 170.006 152.844 170.921 149.04 170.921ZM202.507 147.952C202.796 149.782 202.892 151.828 202.796 154.091C202.748 154.669 202.435 154.958 201.857 154.958H179.539C179.25 154.958 179.153 155.078 179.25 155.319C179.394 156.282 179.659 157.245 180.044 158.208C181.296 160.905 183.848 162.253 187.7 162.253C190.782 162.205 193.214 160.953 194.995 158.497C195.188 158.208 195.405 158.064 195.645 158.064C195.79 158.064 195.958 158.16 196.151 158.353L201.352 163.481C201.592 163.722 201.713 163.939 201.713 164.131C201.713 164.227 201.616 164.42 201.424 164.709C199.835 166.683 197.788 168.224 195.284 169.332C192.78 170.391 190.036 170.921 187.05 170.921C182.909 170.921 179.394 169.982 176.505 168.104C173.664 166.226 171.617 163.601 170.365 160.231C169.354 157.823 168.849 154.669 168.849 150.769C168.849 148.12 169.21 145.785 169.932 143.763C171.04 140.344 172.966 137.623 175.71 135.601C178.503 133.578 181.802 132.567 185.606 132.567C190.421 132.567 194.273 133.964 197.162 136.756C200.1 139.549 201.881 143.281 202.507 147.952ZM185.678 141.379C182.644 141.379 180.646 142.8 179.683 145.641C179.49 146.267 179.322 147.037 179.177 147.952C179.177 148.193 179.298 148.313 179.539 148.313H192.034C192.323 148.313 192.419 148.193 192.323 147.952C192.082 146.555 191.962 145.881 191.962 145.93C191.528 144.485 190.758 143.377 189.651 142.607C188.591 141.788 187.267 141.379 185.678 141.379ZM208.495 170.343C208.254 170.343 208.037 170.271 207.845 170.126C207.7 169.933 207.628 169.717 207.628 169.476V120.65C207.628 120.409 207.7 120.216 207.845 120.072C208.037 119.879 208.254 119.783 208.495 119.783H216.946C217.186 119.783 217.379 119.879 217.523 120.072C217.716 120.216 217.812 120.409 217.812 120.65V169.476C217.812 169.717 217.716 169.933 217.523 170.126C217.379 170.271 217.186 170.343 216.946 170.343H208.495ZM256.681 147.952C256.97 149.782 257.067 151.828 256.97 154.091C256.922 154.669 256.609 154.958 256.031 154.958H233.713C233.424 154.958 233.328 155.078 233.424 155.319C233.568 156.282 233.833 157.245 234.218 158.208C235.47 160.905 238.022 162.253 241.875 162.253C244.956 162.205 247.388 160.953 249.17 158.497C249.362 158.208 249.579 158.064 249.82 158.064C249.964 158.064 250.133 158.16 250.325 158.353L255.526 163.481C255.767 163.722 255.887 163.939 255.887 164.131C255.887 164.227 255.791 164.42 255.598 164.709C254.009 166.683 251.963 168.224 249.459 169.332C246.955 170.391 244.21 170.921 241.225 170.921C237.083 170.921 233.568 169.982 230.679 168.104C227.838 166.226 225.792 163.601 224.54 160.231C223.529 157.823 223.023 154.669 223.023 150.769C223.023 148.12 223.384 145.785 224.106 143.763C225.214 140.344 227.14 137.623 229.885 135.601C232.677 133.578 235.976 132.567 239.78 132.567C244.595 132.567 248.447 133.964 251.337 136.756C254.274 139.549 256.055 143.281 256.681 147.952ZM239.852 141.379C236.819 141.379 234.82 142.8 233.857 145.641C233.665 146.267 233.496 147.037 233.352 147.952C233.352 148.193 233.472 148.313 233.713 148.313H246.208C246.497 148.313 246.594 148.193 246.497 147.952C246.256 146.555 246.136 145.881 246.136 145.93C245.703 144.485 244.932 143.377 243.825 142.607C242.765 141.788 241.441 141.379 239.852 141.379ZM280.293 132.712C282.026 132.712 283.399 133.049 284.41 133.723C284.795 133.915 284.94 134.277 284.843 134.806L283.326 143.04C283.278 143.618 282.941 143.787 282.315 143.546C281.593 143.305 280.75 143.185 279.787 143.185C279.402 143.185 278.872 143.233 278.198 143.329C276.465 143.474 274.996 144.124 273.792 145.279C272.588 146.387 271.987 147.88 271.987 149.758V169.476C271.987 169.717 271.89 169.933 271.698 170.126C271.553 170.271 271.361 170.343 271.12 170.343H262.669C262.428 170.343 262.212 170.271 262.019 170.126C261.875 169.933 261.802 169.717 261.802 169.476V134.084C261.802 133.843 261.875 133.651 262.019 133.506C262.212 133.314 262.428 133.217 262.669 133.217H271.12C271.361 133.217 271.553 133.314 271.698 133.506C271.89 133.651 271.987 133.843 271.987 134.084V136.829C271.987 136.973 272.035 137.069 272.131 137.118C272.227 137.166 272.3 137.142 272.348 137.045C274.322 134.156 276.97 132.712 280.293 132.712ZM302.391 132.639C305.521 132.639 308.314 133.193 310.77 134.301C313.226 135.36 315.128 136.829 316.476 138.707C317.872 140.585 318.571 142.679 318.571 144.991V169.476C318.571 169.717 318.474 169.933 318.282 170.126C318.137 170.271 317.945 170.343 317.704 170.343H309.253C309.012 170.343 308.796 170.271 308.603 170.126C308.459 169.933 308.386 169.717 308.386 169.476V167.092C308.386 166.948 308.338 166.852 308.242 166.804C308.146 166.755 308.049 166.804 307.953 166.948C305.931 169.596 302.68 170.921 298.202 170.921C294.446 170.921 291.413 170.006 289.101 168.176C286.79 166.346 285.634 163.65 285.634 160.086C285.634 156.379 286.935 153.514 289.535 151.491C292.135 149.421 295.843 148.385 300.658 148.385H308.025C308.266 148.385 308.386 148.265 308.386 148.024V146.435C308.386 144.846 307.905 143.618 306.942 142.751C305.979 141.837 304.534 141.379 302.608 141.379C301.115 141.379 299.863 141.644 298.852 142.174C297.889 142.703 297.263 143.45 296.974 144.413C296.83 144.942 296.517 145.183 296.035 145.135L287.296 143.979C286.718 143.883 286.453 143.666 286.501 143.329C286.694 141.307 287.488 139.477 288.885 137.84C290.329 136.203 292.207 134.927 294.519 134.012C296.878 133.097 299.502 132.639 302.391 132.639ZM300.947 163.337C303.017 163.337 304.775 162.783 306.22 161.675C307.664 160.568 308.386 159.147 308.386 157.414V154.814C308.386 154.573 308.266 154.452 308.025 154.452H302.825C300.658 154.452 298.949 154.862 297.697 155.68C296.493 156.499 295.891 157.655 295.891 159.147C295.891 160.447 296.348 161.483 297.263 162.253C298.178 162.975 299.406 163.337 300.947 163.337ZM344.831 140.512C344.831 140.753 344.735 140.97 344.542 141.162C344.398 141.307 344.205 141.379 343.965 141.379H337.031C336.79 141.379 336.67 141.499 336.67 141.74V157.053C336.67 158.642 336.983 159.821 337.608 160.592C338.283 161.362 339.342 161.748 340.787 161.748H343.17C343.411 161.748 343.603 161.844 343.748 162.036C343.941 162.181 344.037 162.374 344.037 162.614V169.476C344.037 170.006 343.748 170.319 343.17 170.415C341.148 170.511 339.703 170.559 338.836 170.559C334.84 170.559 331.854 169.909 329.88 168.609C327.906 167.261 326.895 164.757 326.846 161.098V141.74C326.846 141.499 326.726 141.379 326.485 141.379H322.368C322.128 141.379 321.911 141.307 321.718 141.162C321.574 140.97 321.502 140.753 321.502 140.512V134.084C321.502 133.843 321.574 133.651 321.718 133.506C321.911 133.314 322.128 133.217 322.368 133.217H326.485C326.726 133.217 326.846 133.097 326.846 132.856V124.261C326.846 124.02 326.919 123.828 327.063 123.683C327.256 123.491 327.472 123.394 327.713 123.394H335.803C336.044 123.394 336.236 123.491 336.381 123.683C336.573 123.828 336.67 124.02 336.67 124.261V132.856C336.67 133.097 336.79 133.217 337.031 133.217H343.965C344.205 133.217 344.398 133.314 344.542 133.506C344.735 133.651 344.831 133.843 344.831 134.084V140.512ZM381.888 147.952C382.177 149.782 382.273 151.828 382.177 154.091C382.129 154.669 381.816 154.958 381.238 154.958H358.919C358.63 154.958 358.534 155.078 358.63 155.319C358.775 156.282 359.04 157.245 359.425 158.208C360.677 160.905 363.229 162.253 367.081 162.253C370.163 162.205 372.595 160.953 374.376 158.497C374.569 158.208 374.786 158.064 375.026 158.064C375.171 158.064 375.339 158.16 375.532 158.353L380.732 163.481C380.973 163.722 381.093 163.939 381.093 164.131C381.093 164.227 380.997 164.42 380.805 164.709C379.216 166.683 377.169 168.224 374.665 169.332C372.161 170.391 369.417 170.921 366.431 170.921C362.29 170.921 358.775 169.982 355.886 168.104C353.045 166.226 350.998 163.601 349.746 160.231C348.735 157.823 348.229 154.669 348.229 150.769C348.229 148.12 348.591 145.785 349.313 143.763C350.42 140.344 352.346 137.623 355.091 135.601C357.884 133.578 361.182 132.567 364.986 132.567C369.802 132.567 373.654 133.964 376.543 136.756C379.48 139.549 381.262 143.281 381.888 147.952ZM365.059 141.379C362.025 141.379 360.027 142.8 359.064 145.641C358.871 146.267 358.703 147.037 358.558 147.952C358.558 148.193 358.679 148.313 358.919 148.313H371.415C371.704 148.313 371.8 148.193 371.704 147.952C371.463 146.555 371.343 145.881 371.343 145.93C370.909 144.485 370.139 143.377 369.031 142.607C367.972 141.788 366.648 141.379 365.059 141.379Z"></path>
<path fill="white" d="M61.002 259.995C58.5302 259.995 56.3473 259.498 54.4533 258.502C52.5593 257.507 51.0826 256.127 50.0233 254.361C48.996 252.564 48.4824 250.493 48.4824 248.15V237.363C48.4824 235.02 48.996 232.949 50.0233 231.152C51.0826 229.354 52.5593 227.974 54.4533 227.011C56.3473 226.016 58.5302 225.518 61.002 225.518C63.4417 225.518 65.5925 226 67.4544 226.963C69.3484 227.926 70.8091 229.242 71.8363 230.911C72.8957 232.548 73.4253 234.378 73.4253 236.4V236.737C73.4253 236.898 73.3611 237.042 73.2327 237.171C73.1364 237.267 73.008 237.315 72.8475 237.315H67.2137C67.0532 237.315 66.9087 237.267 66.7803 237.171C66.684 237.042 66.6358 236.898 66.6358 236.737V236.593C66.6358 235.116 66.1222 233.88 65.095 232.885C64.0677 231.858 62.7034 231.344 61.002 231.344C59.2685 231.344 57.8721 231.89 56.8128 232.982C55.7855 234.041 55.2719 235.437 55.2719 237.171V248.342C55.2719 250.076 55.8337 251.488 56.9572 252.58C58.0808 253.639 59.5093 254.169 61.2428 254.169C62.9121 254.169 64.2443 253.735 65.2394 252.869C66.2346 251.97 66.7322 250.734 66.7322 249.161V246.994C66.7322 246.833 66.6519 246.753 66.4914 246.753H61.0983C60.9378 246.753 60.7934 246.705 60.665 246.609C60.5686 246.48 60.5205 246.336 60.5205 246.175V241.745C60.5205 241.585 60.5686 241.456 60.665 241.36C60.7934 241.232 60.9378 241.168 61.0983 241.168H72.8475C73.008 241.168 73.1364 241.232 73.2327 241.36C73.3611 241.456 73.4253 241.585 73.4253 241.745V248.101C73.4253 250.541 72.9117 252.66 71.8845 254.458C70.8572 256.255 69.3966 257.636 67.5026 258.599C65.6407 259.53 63.4738 259.995 61.002 259.995ZM77.8219 259.61C77.6614 259.61 77.5169 259.562 77.3885 259.465C77.2922 259.337 77.244 259.193 77.244 259.032V226.481C77.244 226.321 77.2922 226.192 77.3885 226.096C77.5169 225.967 77.6614 225.903 77.8219 225.903H83.4557C83.6162 225.903 83.7446 225.967 83.8409 226.096C83.9693 226.192 84.0335 226.321 84.0335 226.481V259.032C84.0335 259.193 83.9693 259.337 83.8409 259.465C83.7446 259.562 83.6162 259.61 83.4557 259.61H77.8219ZM98.9675 259.995C96.271 259.995 93.9597 259.289 92.0336 257.876C90.1075 256.464 88.7913 254.538 88.0851 252.098C87.6357 250.589 87.411 248.952 87.411 247.187C87.411 245.293 87.6357 243.591 88.0851 242.082C88.8234 239.707 90.1557 237.845 92.0817 236.497C94.0078 235.148 96.3192 234.474 99.0157 234.474C101.648 234.474 103.895 235.148 105.757 236.497C107.619 237.813 108.935 239.659 109.706 242.034C110.219 243.639 110.476 245.325 110.476 247.09C110.476 248.824 110.251 250.445 109.802 251.954C109.096 254.458 107.779 256.432 105.853 257.876C103.959 259.289 101.664 259.995 98.9675 259.995ZM98.9675 254.169C100.027 254.169 100.926 253.848 101.664 253.206C102.402 252.564 102.932 251.681 103.253 250.557C103.51 249.53 103.638 248.406 103.638 247.187C103.638 245.838 103.51 244.699 103.253 243.768C102.9 242.676 102.354 241.826 101.616 241.216C100.878 240.606 99.9787 240.301 98.9194 240.301C97.8279 240.301 96.913 240.606 96.1747 241.216C95.4685 241.826 94.9548 242.676 94.6338 243.768C94.377 244.538 94.2486 245.678 94.2486 247.187C94.2486 248.631 94.361 249.755 94.5857 250.557C94.9067 251.681 95.4364 252.564 96.1747 253.206C96.9451 253.848 97.8761 254.169 98.9675 254.169ZM135.787 241.168C136.397 242.837 136.702 244.827 136.702 247.138C136.702 249.353 136.429 251.296 135.883 252.965C135.145 255.148 133.957 256.865 132.32 258.117C130.715 259.369 128.805 259.995 126.59 259.995C124.246 259.995 122.4 259.112 121.052 257.347C120.988 257.282 120.924 257.266 120.86 257.299C120.795 257.299 120.763 257.347 120.763 257.443V259.032C120.763 259.193 120.699 259.337 120.571 259.465C120.474 259.562 120.346 259.61 120.185 259.61H114.552C114.391 259.61 114.247 259.562 114.118 259.465C114.022 259.337 113.974 259.193 113.974 259.032V226.481C113.974 226.321 114.022 226.192 114.118 226.096C114.247 225.967 114.391 225.903 114.552 225.903H120.185C120.346 225.903 120.474 225.967 120.571 226.096C120.699 226.192 120.763 226.321 120.763 226.481V236.786C120.763 236.882 120.795 236.946 120.86 236.978C120.924 237.01 120.988 236.978 121.052 236.882C122.304 235.277 124.086 234.474 126.397 234.474C128.741 234.474 130.699 235.084 132.272 236.304C133.877 237.492 135.048 239.113 135.787 241.168ZM128.66 252.098C129.334 250.878 129.671 249.273 129.671 247.283C129.671 245.068 129.286 243.366 128.516 242.179C127.745 240.927 126.606 240.301 125.097 240.301C123.685 240.301 122.609 240.927 121.871 242.179C121.165 243.399 120.811 245.084 120.811 247.235C120.811 249.386 121.132 251.007 121.774 252.098C122.545 253.478 123.668 254.169 125.145 254.169C126.718 254.169 127.89 253.478 128.66 252.098ZM150.059 234.474C152.146 234.474 154.008 234.843 155.645 235.582C157.282 236.288 158.55 237.267 159.449 238.519C160.38 239.771 160.846 241.168 160.846 242.708V259.032C160.846 259.193 160.781 259.337 160.653 259.465C160.557 259.562 160.428 259.61 160.268 259.61H154.634C154.473 259.61 154.329 259.562 154.201 259.465C154.104 259.337 154.056 259.193 154.056 259.032V257.443C154.056 257.347 154.024 257.282 153.96 257.25C153.896 257.218 153.831 257.25 153.767 257.347C152.419 259.112 150.252 259.995 147.267 259.995C144.763 259.995 142.74 259.385 141.199 258.165C139.659 256.945 138.888 255.148 138.888 252.772C138.888 250.3 139.755 248.39 141.488 247.042C143.222 245.662 145.694 244.972 148.904 244.972H153.815C153.976 244.972 154.056 244.891 154.056 244.731V243.671C154.056 242.612 153.735 241.793 153.093 241.216C152.451 240.606 151.488 240.301 150.204 240.301C149.209 240.301 148.374 240.477 147.7 240.83C147.058 241.184 146.641 241.681 146.448 242.323C146.352 242.676 146.143 242.837 145.822 242.805L139.996 242.034C139.61 241.97 139.434 241.826 139.466 241.601C139.594 240.253 140.124 239.033 141.055 237.941C142.018 236.85 143.27 235.999 144.811 235.389C146.384 234.779 148.133 234.474 150.059 234.474ZM149.096 254.939C150.477 254.939 151.649 254.57 152.612 253.832C153.575 253.093 154.056 252.146 154.056 250.991V249.257C154.056 249.097 153.976 249.016 153.815 249.016H150.348C148.904 249.016 147.764 249.289 146.93 249.835C146.127 250.381 145.726 251.151 145.726 252.146C145.726 253.013 146.031 253.703 146.641 254.217C147.251 254.698 148.069 254.939 149.096 254.939ZM165.243 259.61C165.082 259.61 164.938 259.562 164.81 259.465C164.713 259.337 164.665 259.193 164.665 259.032V226.481C164.665 226.321 164.713 226.192 164.81 226.096C164.938 225.967 165.082 225.903 165.243 225.903H170.877C171.037 225.903 171.166 225.967 171.262 226.096C171.39 226.192 171.455 226.321 171.455 226.481V259.032C171.455 259.193 171.39 259.337 171.262 259.465C171.166 259.562 171.037 259.61 170.877 259.61H165.243ZM54.8867 312.61C54.5336 312.61 54.3088 312.449 54.2125 312.128L47.2786 288.486L47.2304 288.293C47.2304 287.972 47.407 287.811 47.7601 287.811H53.5866C53.9397 287.811 54.1644 287.972 54.2607 288.293L57.7277 302.835C57.7598 302.931 57.8079 302.979 57.8721 302.979C57.9363 302.979 57.9845 302.931 58.0166 302.835L61.628 288.293C61.7243 287.972 61.949 287.811 62.3021 287.811H67.3581C67.7113 287.811 67.936 287.972 68.0323 288.293L71.8363 302.883C71.8684 302.979 71.9166 303.028 71.9808 303.028C72.045 303.028 72.0931 302.979 72.1252 302.883L75.8811 288.293C75.9774 287.972 76.2021 287.811 76.5552 287.811L82.3335 287.908C82.5261 287.908 82.6545 287.972 82.7187 288.1C82.815 288.197 82.8472 288.341 82.8151 288.534L75.7848 312.128C75.6885 312.449 75.4798 312.61 75.1588 312.61H69.3324C68.9793 312.61 68.7546 312.449 68.6582 312.128L64.9505 299.223C64.9184 299.127 64.8703 299.079 64.8061 299.079C64.7419 299.079 64.6937 299.127 64.6616 299.223L61.3872 312.128C61.2909 312.449 61.0662 312.61 60.7131 312.61H54.8867ZM89.1328 285.067C88.0413 285.067 87.1264 284.714 86.3881 284.007C85.6819 283.269 85.3288 282.354 85.3288 281.263C85.3288 280.139 85.6819 279.224 86.3881 278.518C87.0943 277.812 88.0092 277.459 89.1328 277.459C90.2563 277.459 91.1712 277.812 91.8775 278.518C92.5837 279.224 92.9368 280.139 92.9368 281.263C92.9368 282.354 92.5677 283.269 91.8293 284.007C91.1231 284.714 90.2242 285.067 89.1328 285.067ZM86.2437 312.61C86.0831 312.61 85.9387 312.562 85.8103 312.465C85.714 312.337 85.6658 312.193 85.6658 312.032V288.389C85.6658 288.229 85.714 288.1 85.8103 288.004C85.9387 287.876 86.0831 287.811 86.2437 287.811H91.8775C92.038 287.811 92.1664 287.876 92.2627 288.004C92.3911 288.1 92.4553 288.229 92.4553 288.389V312.032C92.4553 312.193 92.3911 312.337 92.2627 312.465C92.1664 312.562 92.038 312.61 91.8775 312.61H86.2437ZM110.988 292.723C110.988 292.883 110.924 293.028 110.796 293.156C110.699 293.253 110.571 293.301 110.411 293.301H105.788C105.627 293.301 105.547 293.381 105.547 293.542V303.75C105.547 304.809 105.756 305.596 106.173 306.109C106.623 306.623 107.329 306.88 108.292 306.88H109.881C110.041 306.88 110.17 306.944 110.266 307.072C110.394 307.169 110.459 307.297 110.459 307.458V312.032C110.459 312.385 110.266 312.594 109.881 312.658C108.533 312.722 107.57 312.754 106.992 312.754C104.327 312.754 102.337 312.321 101.021 311.454C99.7046 310.555 99.0305 308.886 98.9984 306.446V293.542C98.9984 293.381 98.9181 293.301 98.7576 293.301H96.0129C95.8524 293.301 95.708 293.253 95.5796 293.156C95.4833 293.028 95.4351 292.883 95.4351 292.723V288.437C95.4351 288.277 95.4833 288.148 95.5796 288.052C95.708 287.924 95.8524 287.86 96.0129 287.86H98.7576C98.9181 287.86 98.9984 287.779 98.9984 287.619V281.889C98.9984 281.728 99.0465 281.6 99.1428 281.503C99.2713 281.375 99.4157 281.311 99.5762 281.311H104.969C105.13 281.311 105.258 281.375 105.355 281.503C105.483 281.6 105.547 281.728 105.547 281.889V287.619C105.547 287.779 105.627 287.86 105.788 287.86H110.411C110.571 287.86 110.699 287.924 110.796 288.052C110.924 288.148 110.988 288.277 110.988 288.437V292.723ZM127.017 287.474C129.586 287.474 131.656 288.261 133.229 289.834C134.802 291.407 135.589 293.542 135.589 296.238V312.032C135.589 312.193 135.524 312.337 135.396 312.465C135.3 312.562 135.171 312.61 135.011 312.61H129.377C129.216 312.61 129.072 312.562 128.944 312.465C128.847 312.337 128.799 312.193 128.799 312.032V297.634C128.799 296.35 128.43 295.307 127.692 294.505C126.985 293.702 126.038 293.301 124.851 293.301C123.663 293.301 122.7 293.702 121.961 294.505C121.255 295.307 120.902 296.35 120.902 297.634V312.032C120.902 312.193 120.838 312.337 120.709 312.465C120.613 312.562 120.485 312.61 120.324 312.61H114.69C114.53 312.61 114.385 312.562 114.257 312.465C114.161 312.337 114.113 312.193 114.113 312.032V279.481C114.113 279.321 114.161 279.192 114.257 279.096C114.385 278.967 114.53 278.903 114.69 278.903H120.324C120.485 278.903 120.613 278.967 120.709 279.096C120.838 279.192 120.902 279.321 120.902 279.481V290.123C120.902 290.219 120.934 290.283 120.998 290.315C121.063 290.347 121.111 290.331 121.143 290.267C122.459 288.405 124.417 287.474 127.017 287.474ZM158.031 312.947C155.88 312.947 154.002 312.642 152.397 312.032C150.792 311.422 149.54 310.571 148.641 309.48C147.774 308.389 147.341 307.153 147.341 305.772V305.291C147.341 305.13 147.389 305.002 147.486 304.905C147.614 304.777 147.758 304.713 147.919 304.713H153.264C153.424 304.713 153.553 304.777 153.649 304.905C153.777 305.002 153.842 305.13 153.842 305.291V305.339C153.842 306.045 154.227 306.655 154.997 307.169C155.8 307.65 156.795 307.891 157.983 307.891C159.074 307.891 159.957 307.682 160.631 307.265C161.305 306.816 161.642 306.27 161.642 305.628C161.642 305.05 161.353 304.617 160.776 304.328C160.198 304.039 159.251 303.734 157.935 303.413C156.426 303.028 155.238 302.658 154.371 302.305C152.317 301.599 150.68 300.732 149.46 299.705C148.24 298.678 147.63 297.201 147.63 295.275C147.63 292.899 148.545 291.022 150.375 289.641C152.237 288.229 154.692 287.522 157.742 287.522C159.797 287.522 161.594 287.86 163.135 288.534C164.676 289.176 165.864 290.091 166.698 291.278C167.565 292.466 167.998 293.814 167.998 295.323C167.998 295.484 167.934 295.628 167.806 295.757C167.71 295.853 167.581 295.901 167.421 295.901H162.268C162.108 295.901 161.963 295.853 161.835 295.757C161.739 295.628 161.691 295.484 161.691 295.323C161.691 294.617 161.321 294.023 160.583 293.542C159.877 293.06 158.93 292.819 157.742 292.819C156.683 292.819 155.816 293.012 155.142 293.397C154.468 293.782 154.131 294.312 154.131 294.986C154.131 295.628 154.452 296.11 155.094 296.431C155.768 296.752 156.875 297.089 158.416 297.442C158.769 297.538 159.171 297.651 159.62 297.779C160.069 297.875 160.551 298.004 161.065 298.164C163.344 298.838 165.141 299.705 166.458 300.764C167.774 301.824 168.432 303.365 168.432 305.387C168.432 307.763 167.485 309.624 165.591 310.973C163.729 312.289 161.209 312.947 158.031 312.947ZM182.249 312.995C179.681 312.995 177.45 312.353 175.556 311.069C173.694 309.785 172.362 308.019 171.56 305.772C171.014 304.167 170.741 302.273 170.741 300.09C170.741 297.939 171.014 296.078 171.56 294.505C172.33 292.322 173.662 290.604 175.556 289.352C177.45 288.1 179.681 287.474 182.249 287.474C184.817 287.474 187.065 288.116 188.991 289.4C190.949 290.684 192.249 292.306 192.891 294.264C193.148 295.034 193.276 295.612 193.276 295.997V296.094C193.276 296.383 193.116 296.559 192.795 296.623L187.257 297.442H187.161C186.872 297.442 186.679 297.281 186.583 296.96L186.439 296.19C186.214 295.355 185.716 294.665 184.946 294.119C184.175 293.574 183.261 293.301 182.201 293.301C181.174 293.301 180.307 293.558 179.601 294.071C178.895 294.585 178.397 295.291 178.108 296.19C177.755 297.153 177.579 298.469 177.579 300.138C177.579 301.808 177.739 303.124 178.06 304.087C178.349 305.05 178.847 305.804 179.553 306.35C180.291 306.896 181.174 307.169 182.201 307.169C183.196 307.169 184.063 306.912 184.801 306.398C185.572 305.852 186.102 305.114 186.39 304.183C186.423 304.119 186.439 304.023 186.439 303.894C186.471 303.862 186.487 303.814 186.487 303.75C186.519 303.365 186.744 303.204 187.161 303.268L192.698 304.135C193.019 304.199 193.18 304.376 193.18 304.665C193.18 304.922 193.084 305.403 192.891 306.109C192.217 308.26 190.901 309.945 188.943 311.165C187.016 312.385 184.785 312.995 182.249 312.995ZM206.138 287.474C208.225 287.474 210.087 287.843 211.724 288.582C213.361 289.288 214.629 290.267 215.528 291.519C216.459 292.771 216.924 294.168 216.924 295.708V312.032C216.924 312.193 216.86 312.337 216.732 312.465C216.635 312.562 216.507 312.61 216.346 312.61H210.713C210.552 312.61 210.408 312.562 210.279 312.465C210.183 312.337 210.135 312.193 210.135 312.032V310.443C210.135 310.347 210.103 310.282 210.039 310.25C209.974 310.218 209.91 310.25 209.846 310.347C208.498 312.112 206.331 312.995 203.345 312.995C200.841 312.995 198.819 312.385 197.278 311.165C195.737 309.945 194.967 308.148 194.967 305.772C194.967 303.3 195.834 301.39 197.567 300.042C199.301 298.662 201.772 297.972 204.983 297.972H209.894C210.055 297.972 210.135 297.891 210.135 297.731V296.671C210.135 295.612 209.814 294.793 209.172 294.216C208.53 293.606 207.567 293.301 206.283 293.301C205.288 293.301 204.453 293.477 203.779 293.83C203.137 294.184 202.719 294.681 202.527 295.323C202.43 295.676 202.222 295.837 201.901 295.805L196.074 295.034C195.689 294.97 195.513 294.826 195.545 294.601C195.673 293.253 196.203 292.033 197.134 290.941C198.097 289.85 199.349 288.999 200.89 288.389C202.463 287.779 204.212 287.474 206.138 287.474ZM205.175 307.939C206.556 307.939 207.727 307.57 208.69 306.832C209.653 306.093 210.135 305.146 210.135 303.991V302.257C210.135 302.097 210.055 302.016 209.894 302.016H206.427C204.983 302.016 203.843 302.289 203.008 302.835C202.206 303.381 201.804 304.151 201.804 305.146C201.804 306.013 202.109 306.703 202.719 307.217C203.329 307.698 204.148 307.939 205.175 307.939ZM221.322 312.61C221.161 312.61 221.017 312.562 220.888 312.465C220.792 312.337 220.744 312.193 220.744 312.032V279.481C220.744 279.321 220.792 279.192 220.888 279.096C221.017 278.967 221.161 278.903 221.322 278.903H226.955C227.116 278.903 227.244 278.967 227.341 279.096C227.469 279.192 227.533 279.321 227.533 279.481V312.032C227.533 312.193 227.469 312.337 227.341 312.465C227.244 312.562 227.116 312.61 226.955 312.61H221.322ZM241.408 287.474C243.495 287.474 245.356 287.843 246.994 288.582C248.631 289.288 249.899 290.267 250.798 291.519C251.729 292.771 252.194 294.168 252.194 295.708V312.032C252.194 312.193 252.13 312.337 252.001 312.465C251.905 312.562 251.777 312.61 251.616 312.61H245.982C245.822 312.61 245.677 312.562 245.549 312.465C245.453 312.337 245.405 312.193 245.405 312.032V310.443C245.405 310.347 245.372 310.282 245.308 310.25C245.244 310.218 245.18 310.25 245.116 310.347C243.767 312.112 241.601 312.995 238.615 312.995C236.111 312.995 234.089 312.385 232.548 311.165C231.007 309.945 230.237 308.148 230.237 305.772C230.237 303.3 231.103 301.39 232.837 300.042C234.57 298.662 237.042 297.972 240.252 297.972H245.164C245.324 297.972 245.405 297.891 245.405 297.731V296.671C245.405 295.612 245.084 294.793 244.442 294.216C243.8 293.606 242.836 293.301 241.552 293.301C240.557 293.301 239.723 293.477 239.048 293.83C238.406 294.184 237.989 294.681 237.797 295.323C237.7 295.676 237.492 295.837 237.171 295.805L231.344 295.034C230.959 294.97 230.782 294.826 230.814 294.601C230.943 293.253 231.472 292.033 232.403 290.941C233.366 289.85 234.618 288.999 236.159 288.389C237.732 287.779 239.482 287.474 241.408 287.474ZM240.445 307.939C241.825 307.939 242.997 307.57 243.96 306.832C244.923 306.093 245.405 305.146 245.405 303.991V302.257C245.405 302.097 245.324 302.016 245.164 302.016H241.697C240.252 302.016 239.113 302.289 238.278 302.835C237.475 303.381 237.074 304.151 237.074 305.146C237.074 306.013 237.379 306.703 237.989 307.217C238.599 307.698 239.418 307.939 240.445 307.939ZM277.923 294.168C278.533 295.837 278.838 297.827 278.838 300.138C278.838 302.353 278.565 304.296 278.019 305.965C277.281 308.148 276.093 309.865 274.456 311.117C272.851 312.369 270.941 312.995 268.726 312.995C266.382 312.995 264.536 312.112 263.188 310.347C263.124 310.282 263.06 310.266 262.996 310.299C262.931 310.299 262.899 310.347 262.899 310.443V312.032C262.899 312.193 262.835 312.337 262.707 312.465C262.61 312.562 262.482 312.61 262.321 312.61H256.688C256.527 312.61 256.383 312.562 256.254 312.465C256.158 312.337 256.11 312.193 256.11 312.032V279.481C256.11 279.321 256.158 279.192 256.254 279.096C256.383 278.967 256.527 278.903 256.688 278.903H262.321C262.482 278.903 262.61 278.967 262.707 279.096C262.835 279.192 262.899 279.321 262.899 279.481V289.786C262.899 289.882 262.931 289.946 262.996 289.978C263.06 290.01 263.124 289.978 263.188 289.882C264.44 288.277 266.222 287.474 268.533 287.474C270.877 287.474 272.835 288.084 274.408 289.304C276.013 290.492 277.185 292.113 277.923 294.168ZM270.796 305.098C271.47 303.878 271.808 302.273 271.808 300.283C271.808 298.068 271.422 296.366 270.652 295.179C269.881 293.927 268.742 293.301 267.233 293.301C265.821 293.301 264.745 293.927 264.007 295.179C263.301 296.399 262.947 298.084 262.947 300.235C262.947 302.386 263.268 304.007 263.911 305.098C264.681 306.478 265.805 307.169 267.281 307.169C268.854 307.169 270.026 306.478 270.796 305.098ZM282.902 312.61C282.742 312.61 282.597 312.562 282.469 312.465C282.372 312.337 282.324 312.193 282.324 312.032V279.481C282.324 279.321 282.372 279.192 282.469 279.096C282.597 278.967 282.742 278.903 282.902 278.903H288.536C288.696 278.903 288.825 278.967 288.921 279.096C289.05 279.192 289.114 279.321 289.114 279.481V312.032C289.114 312.193 289.05 312.337 288.921 312.465C288.825 312.562 288.696 312.61 288.536 312.61H282.902ZM315.027 297.683C315.219 298.902 315.283 300.267 315.219 301.776C315.187 302.161 314.978 302.353 314.593 302.353H299.714C299.521 302.353 299.457 302.434 299.521 302.594C299.618 303.236 299.794 303.878 300.051 304.52C300.886 306.318 302.587 307.217 305.155 307.217C307.21 307.185 308.831 306.35 310.019 304.713C310.147 304.52 310.292 304.424 310.452 304.424C310.548 304.424 310.661 304.488 310.789 304.617L314.256 308.035C314.417 308.196 314.497 308.34 314.497 308.469C314.497 308.533 314.433 308.661 314.304 308.854C313.245 310.17 311.881 311.197 310.211 311.936C308.542 312.642 306.712 312.995 304.722 312.995C301.961 312.995 299.618 312.369 297.692 311.117C295.798 309.865 294.433 308.116 293.599 305.869C292.925 304.263 292.588 302.161 292.588 299.561C292.588 297.795 292.828 296.238 293.31 294.89C294.048 292.611 295.332 290.797 297.162 289.449C299.024 288.1 301.223 287.426 303.759 287.426C306.969 287.426 309.537 288.357 311.463 290.219C313.421 292.081 314.609 294.569 315.027 297.683ZM303.807 293.301C301.785 293.301 300.452 294.248 299.81 296.142C299.682 296.559 299.57 297.073 299.473 297.683C299.473 297.843 299.554 297.923 299.714 297.923H308.044C308.237 297.923 308.301 297.843 308.237 297.683C308.077 296.752 307.996 296.302 307.996 296.334C307.707 295.371 307.194 294.633 306.455 294.119C305.749 293.574 304.866 293.301 303.807 293.301Z"></path>
<path fill="#04C8BB" d="M199.495 226.481C199.495 226.321 199.544 226.192 199.64 226.096C199.768 225.967 199.913 225.903 200.073 225.903H205.707C205.868 225.903 205.996 225.967 206.092 226.096C206.221 226.192 206.285 226.321 206.285 226.481V259.032C206.285 259.193 206.221 259.337 206.092 259.465C205.996 259.562 205.868 259.61 205.707 259.61H200.073C199.913 259.61 199.768 259.562 199.64 259.465C199.544 259.337 199.495 259.193 199.495 259.032V257.443C199.495 257.347 199.463 257.299 199.399 257.299C199.335 257.266 199.271 257.282 199.207 257.347C197.858 259.112 196.012 259.995 193.669 259.995C191.422 259.995 189.48 259.369 187.843 258.117C186.237 256.865 185.082 255.148 184.376 252.965C183.83 251.296 183.557 249.353 183.557 247.138C183.557 244.859 183.846 242.869 184.424 241.168C185.162 239.113 186.318 237.492 187.891 236.304C189.496 235.084 191.47 234.474 193.813 234.474C196.125 234.474 197.922 235.277 199.207 236.882C199.271 236.978 199.335 237.01 199.399 236.978C199.463 236.946 199.495 236.882 199.495 236.786V226.481ZM198.484 252.098C199.126 250.91 199.447 249.289 199.447 247.235C199.447 245.084 199.094 243.399 198.388 242.179C197.65 240.927 196.574 240.301 195.162 240.301C193.653 240.301 192.513 240.927 191.743 242.179C190.94 243.431 190.539 245.132 190.539 247.283C190.539 249.209 190.876 250.814 191.55 252.098C192.353 253.478 193.541 254.169 195.114 254.169C196.558 254.169 197.682 253.478 198.484 252.098ZM220.317 234.474C222.403 234.474 224.265 234.843 225.902 235.582C227.54 236.288 228.808 237.267 229.707 238.519C230.637 239.771 231.103 241.168 231.103 242.708V259.032C231.103 259.193 231.039 259.337 230.91 259.465C230.814 259.562 230.686 259.61 230.525 259.61H224.891C224.731 259.61 224.586 259.562 224.458 259.465C224.362 259.337 224.313 259.193 224.313 259.032V257.443C224.313 257.347 224.281 257.282 224.217 257.25C224.153 257.218 224.089 257.25 224.025 257.347C222.676 259.112 220.509 259.995 217.524 259.995C215.02 259.995 212.998 259.385 211.457 258.165C209.916 256.945 209.145 255.148 209.145 252.772C209.145 250.3 210.012 248.39 211.746 247.042C213.479 245.662 215.951 244.972 219.161 244.972H224.073C224.233 244.972 224.313 244.891 224.313 244.731V243.671C224.313 242.612 223.992 241.793 223.35 241.216C222.708 240.606 221.745 240.301 220.461 240.301C219.466 240.301 218.631 240.477 217.957 240.83C217.315 241.184 216.898 241.681 216.705 242.323C216.609 242.676 216.4 242.837 216.079 242.805L210.253 242.034C209.868 241.97 209.691 241.826 209.723 241.601C209.852 240.253 210.381 239.033 211.312 237.941C212.275 236.85 213.527 235.999 215.068 235.389C216.641 234.779 218.391 234.474 220.317 234.474ZM219.354 254.939C220.734 254.939 221.906 254.57 222.869 253.832C223.832 253.093 224.313 252.146 224.313 250.991V249.257C224.313 249.097 224.233 249.016 224.073 249.016H220.606C219.161 249.016 218.022 249.289 217.187 249.835C216.384 250.381 215.983 251.151 215.983 252.146C215.983 253.013 216.288 253.703 216.898 254.217C217.508 254.698 218.327 254.939 219.354 254.939ZM248.61 239.723C248.61 239.883 248.546 240.028 248.417 240.156C248.321 240.253 248.193 240.301 248.032 240.301H243.41C243.249 240.301 243.169 240.381 243.169 240.542V250.75C243.169 251.809 243.378 252.596 243.795 253.109C244.244 253.623 244.951 253.88 245.914 253.88H247.503C247.663 253.88 247.792 253.944 247.888 254.072C248.016 254.169 248.08 254.297 248.08 254.458V259.032C248.08 259.385 247.888 259.594 247.503 259.658C246.154 259.722 245.191 259.754 244.613 259.754C241.949 259.754 239.959 259.321 238.643 258.454C237.326 257.555 236.652 255.886 236.62 253.446V240.542C236.62 240.381 236.54 240.301 236.379 240.301H233.635C233.474 240.301 233.33 240.253 233.201 240.156C233.105 240.028 233.057 239.883 233.057 239.723V235.437C233.057 235.277 233.105 235.148 233.201 235.052C233.33 234.924 233.474 234.86 233.635 234.86H236.379C236.54 234.86 236.62 234.779 236.62 234.619V228.889C236.62 228.728 236.668 228.6 236.765 228.503C236.893 228.375 237.037 228.311 237.198 228.311H242.591C242.752 228.311 242.88 228.375 242.976 228.503C243.105 228.6 243.169 228.728 243.169 228.889V234.619C243.169 234.779 243.249 234.86 243.41 234.86H248.032C248.193 234.86 248.321 234.924 248.417 235.052C248.546 235.148 248.61 235.277 248.61 235.437V239.723ZM261.606 234.474C263.692 234.474 265.554 234.843 267.191 235.582C268.828 236.288 270.096 237.267 270.995 238.519C271.926 239.771 272.392 241.168 272.392 242.708V259.032C272.392 259.193 272.328 259.337 272.199 259.465C272.103 259.562 271.974 259.61 271.814 259.61H266.18C266.02 259.61 265.875 259.562 265.747 259.465C265.65 259.337 265.602 259.193 265.602 259.032V257.443C265.602 257.347 265.57 257.282 265.506 257.25C265.442 257.218 265.378 257.25 265.313 257.347C263.965 259.112 261.798 259.995 258.813 259.995C256.309 259.995 254.286 259.385 252.746 258.165C251.205 256.945 250.434 255.148 250.434 252.772C250.434 250.3 251.301 248.39 253.034 247.042C254.768 245.662 257.24 244.972 260.45 244.972H265.361C265.522 244.972 265.602 244.891 265.602 244.731V243.671C265.602 242.612 265.281 241.793 264.639 241.216C263.997 240.606 263.034 240.301 261.75 240.301C260.755 240.301 259.92 240.477 259.246 240.83C258.604 241.184 258.187 241.681 257.994 242.323C257.898 242.676 257.689 242.837 257.368 242.805L251.542 242.034C251.157 241.97 250.98 241.826 251.012 241.601C251.14 240.253 251.67 239.033 252.601 237.941C253.564 236.85 254.816 235.999 256.357 235.389C257.93 234.779 259.68 234.474 261.606 234.474ZM260.643 254.939C262.023 254.939 263.195 254.57 264.158 253.832C265.121 253.093 265.602 252.146 265.602 250.991V249.257C265.602 249.097 265.522 249.016 265.361 249.016H261.895C260.45 249.016 259.31 249.289 258.476 249.835C257.673 250.381 257.272 251.151 257.272 252.146C257.272 253.013 257.577 253.703 258.187 254.217C258.797 254.698 259.615 254.939 260.643 254.939ZM298.121 241.168C298.73 242.837 299.035 244.827 299.035 247.138C299.035 249.353 298.763 251.296 298.217 252.965C297.478 255.148 296.291 256.865 294.654 258.117C293.048 259.369 291.138 259.995 288.923 259.995C286.58 259.995 284.734 259.112 283.386 257.347C283.322 257.282 283.257 257.266 283.193 257.299C283.129 257.299 283.097 257.347 283.097 257.443V259.032C283.097 259.193 283.033 259.337 282.904 259.465C282.808 259.562 282.68 259.61 282.519 259.61H276.885C276.725 259.61 276.58 259.562 276.452 259.465C276.356 259.337 276.307 259.193 276.307 259.032V226.481C276.307 226.321 276.356 226.192 276.452 226.096C276.58 225.967 276.725 225.903 276.885 225.903H282.519C282.68 225.903 282.808 225.967 282.904 226.096C283.033 226.192 283.097 226.321 283.097 226.481V236.786C283.097 236.882 283.129 236.946 283.193 236.978C283.257 237.01 283.322 236.978 283.386 236.882C284.638 235.277 286.419 234.474 288.731 234.474C291.074 234.474 293.032 235.084 294.605 236.304C296.21 237.492 297.382 239.113 298.121 241.168ZM290.994 252.098C291.668 250.878 292.005 249.273 292.005 247.283C292.005 245.068 291.62 243.366 290.85 242.179C290.079 240.927 288.939 240.301 287.431 240.301C286.018 240.301 284.943 240.927 284.204 242.179C283.498 243.399 283.145 245.084 283.145 247.235C283.145 249.386 283.466 251.007 284.108 252.098C284.879 253.478 286.002 254.169 287.479 254.169C289.052 254.169 290.224 253.478 290.994 252.098ZM312.393 234.474C314.48 234.474 316.342 234.843 317.979 235.582C319.616 236.288 320.884 237.267 321.783 238.519C322.714 239.771 323.179 241.168 323.179 242.708V259.032C323.179 259.193 323.115 259.337 322.987 259.465C322.89 259.562 322.762 259.61 322.602 259.61H316.968C316.807 259.61 316.663 259.562 316.534 259.465C316.438 259.337 316.39 259.193 316.39 259.032V257.443C316.39 257.347 316.358 257.282 316.294 257.25C316.229 257.218 316.165 257.25 316.101 257.347C314.753 259.112 312.586 259.995 309.6 259.995C307.096 259.995 305.074 259.385 303.533 258.165C301.992 256.945 301.222 255.148 301.222 252.772C301.222 250.3 302.089 248.39 303.822 247.042C305.556 245.662 308.027 244.972 311.238 244.972H316.149C316.31 244.972 316.39 244.891 316.39 244.731V243.671C316.39 242.612 316.069 241.793 315.427 241.216C314.785 240.606 313.822 240.301 312.538 240.301C311.543 240.301 310.708 240.477 310.034 240.83C309.392 241.184 308.974 241.681 308.782 242.323C308.685 242.676 308.477 242.837 308.156 242.805L302.329 242.034C301.944 241.97 301.768 241.826 301.8 241.601C301.928 240.253 302.458 239.033 303.389 237.941C304.352 236.85 305.604 235.999 307.145 235.389C308.718 234.779 310.467 234.474 312.393 234.474ZM311.43 254.939C312.811 254.939 313.982 254.57 314.945 253.832C315.908 253.093 316.39 252.146 316.39 250.991V249.257C316.39 249.097 316.31 249.016 316.149 249.016H312.682C311.238 249.016 310.098 249.289 309.263 249.835C308.461 250.381 308.059 251.151 308.059 252.146C308.059 253.013 308.364 253.703 308.974 254.217C309.584 254.698 310.403 254.939 311.43 254.939ZM336.87 259.947C334.719 259.947 332.841 259.642 331.236 259.032C329.631 258.422 328.379 257.571 327.48 256.48C326.614 255.389 326.18 254.153 326.18 252.772V252.291C326.18 252.13 326.228 252.002 326.325 251.905C326.453 251.777 326.598 251.713 326.758 251.713H332.103C332.263 251.713 332.392 251.777 332.488 251.905C332.617 252.002 332.681 252.13 332.681 252.291V252.339C332.681 253.045 333.066 253.655 333.836 254.169C334.639 254.65 335.634 254.891 336.822 254.891C337.913 254.891 338.796 254.682 339.47 254.265C340.144 253.816 340.481 253.27 340.481 252.628C340.481 252.05 340.193 251.617 339.615 251.328C339.037 251.039 338.09 250.734 336.774 250.413C335.265 250.028 334.077 249.658 333.21 249.305C331.156 248.599 329.519 247.732 328.299 246.705C327.079 245.678 326.469 244.201 326.469 242.275C326.469 239.899 327.384 238.022 329.214 236.641C331.076 235.229 333.531 234.522 336.581 234.522C338.636 234.522 340.433 234.86 341.974 235.534C343.515 236.176 344.703 237.091 345.537 238.278C346.404 239.466 346.838 240.814 346.838 242.323C346.838 242.484 346.773 242.628 346.645 242.757C346.549 242.853 346.42 242.901 346.26 242.901H341.107C340.947 242.901 340.802 242.853 340.674 242.757C340.578 242.628 340.53 242.484 340.53 242.323C340.53 241.617 340.16 241.023 339.422 240.542C338.716 240.06 337.769 239.819 336.581 239.819C335.522 239.819 334.655 240.012 333.981 240.397C333.307 240.782 332.97 241.312 332.97 241.986C332.97 242.628 333.291 243.11 333.933 243.431C334.607 243.752 335.714 244.089 337.255 244.442C337.608 244.538 338.01 244.651 338.459 244.779C338.908 244.875 339.39 245.004 339.904 245.164C342.183 245.838 343.981 246.705 345.297 247.764C346.613 248.824 347.271 250.365 347.271 252.387C347.271 254.763 346.324 256.624 344.43 257.973C342.568 259.289 340.048 259.947 336.87 259.947ZM372.115 244.683C372.308 245.902 372.372 247.267 372.308 248.776C372.276 249.161 372.067 249.353 371.682 249.353H356.803C356.61 249.353 356.546 249.434 356.61 249.594C356.707 250.236 356.883 250.878 357.14 251.52C357.975 253.318 359.676 254.217 362.244 254.217C364.299 254.185 365.92 253.35 367.107 251.713C367.236 251.52 367.38 251.424 367.541 251.424C367.637 251.424 367.749 251.488 367.878 251.617L371.345 255.035C371.505 255.196 371.586 255.34 371.586 255.469C371.586 255.533 371.521 255.661 371.393 255.854C370.334 257.17 368.969 258.197 367.3 258.936C365.631 259.642 363.801 259.995 361.811 259.995C359.05 259.995 356.707 259.369 354.78 258.117C352.886 256.865 351.522 255.116 350.688 252.869C350.013 251.263 349.676 249.161 349.676 246.561C349.676 244.795 349.917 243.238 350.399 241.89C351.137 239.611 352.421 237.797 354.251 236.449C356.113 235.1 358.312 234.426 360.848 234.426C364.058 234.426 366.626 235.357 368.552 237.219C370.51 239.081 371.698 241.569 372.115 244.683ZM360.896 240.301C358.873 240.301 357.541 241.248 356.899 243.142C356.771 243.559 356.658 244.073 356.562 244.683C356.562 244.843 356.642 244.923 356.803 244.923H365.133C365.326 244.923 365.39 244.843 365.326 244.683C365.165 243.752 365.085 243.302 365.085 243.334C364.796 242.371 364.283 241.633 363.544 241.119C362.838 240.574 361.955 240.301 360.896 240.301ZM395.089 259.995C392.52 259.995 390.289 259.353 388.395 258.069C386.533 256.785 385.201 255.019 384.399 252.772C383.853 251.167 383.58 249.273 383.58 247.09C383.58 244.939 383.853 243.078 384.399 241.505C385.169 239.322 386.501 237.604 388.395 236.352C390.289 235.1 392.52 234.474 395.089 234.474C397.657 234.474 399.904 235.116 401.83 236.4C403.788 237.684 405.088 239.306 405.73 241.264C405.987 242.034 406.115 242.612 406.115 242.997V243.094C406.115 243.383 405.955 243.559 405.634 243.623L400.096 244.442H400C399.711 244.442 399.519 244.281 399.422 243.96L399.278 243.19C399.053 242.355 398.555 241.665 397.785 241.119C397.015 240.574 396.1 240.301 395.04 240.301C394.013 240.301 393.146 240.558 392.44 241.071C391.734 241.585 391.236 242.291 390.947 243.19C390.594 244.153 390.418 245.469 390.418 247.138C390.418 248.808 390.578 250.124 390.899 251.087C391.188 252.05 391.686 252.804 392.392 253.35C393.13 253.896 394.013 254.169 395.04 254.169C396.036 254.169 396.902 253.912 397.641 253.398C398.411 252.852 398.941 252.114 399.23 251.183C399.262 251.119 399.278 251.023 399.278 250.894C399.31 250.862 399.326 250.814 399.326 250.75C399.358 250.365 399.583 250.204 400 250.268L405.538 251.135C405.859 251.199 406.019 251.376 406.019 251.665C406.019 251.922 405.923 252.403 405.73 253.109C405.056 255.26 403.74 256.945 401.782 258.165C399.856 259.385 397.625 259.995 395.089 259.995ZM418.977 234.474C421.064 234.474 422.926 234.843 424.563 235.582C426.2 236.288 427.468 237.267 428.367 238.519C429.298 239.771 429.764 241.168 429.764 242.708V259.032C429.764 259.193 429.699 259.337 429.571 259.465C429.475 259.562 429.346 259.61 429.186 259.61H423.552C423.391 259.61 423.247 259.562 423.118 259.465C423.022 259.337 422.974 259.193 422.974 259.032V257.443C422.974 257.347 422.942 257.282 422.878 257.25C422.814 257.218 422.749 257.25 422.685 257.347C421.337 259.112 419.17 259.995 416.185 259.995C413.681 259.995 411.658 259.385 410.117 258.165C408.576 256.945 407.806 255.148 407.806 252.772C407.806 250.3 408.673 248.39 410.406 247.042C412.14 245.662 414.612 244.972 417.822 244.972H422.733C422.894 244.972 422.974 244.891 422.974 244.731V243.671C422.974 242.612 422.653 241.793 422.011 241.216C421.369 240.606 420.406 240.301 419.122 240.301C418.127 240.301 417.292 240.477 416.618 240.83C415.976 241.184 415.559 241.681 415.366 242.323C415.27 242.676 415.061 242.837 414.74 242.805L408.914 242.034C408.528 241.97 408.352 241.826 408.384 241.601C408.512 240.253 409.042 239.033 409.973 237.941C410.936 236.85 412.188 235.999 413.729 235.389C415.302 234.779 417.051 234.474 418.977 234.474ZM418.014 254.939C419.395 254.939 420.566 254.57 421.529 253.832C422.492 253.093 422.974 252.146 422.974 250.991V249.257C422.974 249.097 422.894 249.016 422.733 249.016H419.266C417.822 249.016 416.682 249.289 415.847 249.835C415.045 250.381 414.644 251.151 414.644 252.146C414.644 253.013 414.949 253.703 415.559 254.217C416.168 254.698 416.987 254.939 418.014 254.939ZM444.465 259.995C441.897 259.995 439.666 259.353 437.772 258.069C435.91 256.785 434.578 255.019 433.776 252.772C433.23 251.167 432.957 249.273 432.957 247.09C432.957 244.939 433.23 243.078 433.776 241.505C434.546 239.322 435.878 237.604 437.772 236.352C439.666 235.1 441.897 234.474 444.465 234.474C447.034 234.474 449.281 235.116 451.207 236.4C453.165 237.684 454.465 239.306 455.107 241.264C455.364 242.034 455.492 242.612 455.492 242.997V243.094C455.492 243.383 455.332 243.559 455.011 243.623L449.473 244.442H449.377C449.088 244.442 448.895 244.281 448.799 243.96L448.655 243.19C448.43 242.355 447.932 241.665 447.162 241.119C446.391 240.574 445.477 240.301 444.417 240.301C443.39 240.301 442.523 240.558 441.817 241.071C441.111 241.585 440.613 242.291 440.324 243.19C439.971 244.153 439.795 245.469 439.795 247.138C439.795 248.808 439.955 250.124 440.276 251.087C440.565 252.05 441.063 252.804 441.769 253.35C442.507 253.896 443.39 254.169 444.417 254.169C445.412 254.169 446.279 253.912 447.017 253.398C447.788 252.852 448.318 252.114 448.607 251.183C448.639 251.119 448.655 251.023 448.655 250.894C448.687 250.862 448.703 250.814 448.703 250.75C448.735 250.365 448.96 250.204 449.377 250.268L454.914 251.135C455.235 251.199 455.396 251.376 455.396 251.665C455.396 251.922 455.3 252.403 455.107 253.109C454.433 255.26 453.117 256.945 451.159 258.165C449.232 259.385 447.001 259.995 444.465 259.995ZM471.388 234.474C473.956 234.474 476.027 235.261 477.6 236.834C479.172 238.407 479.959 240.542 479.959 243.238V259.032C479.959 259.193 479.895 259.337 479.766 259.465C479.67 259.562 479.542 259.61 479.381 259.61H473.747C473.587 259.61 473.442 259.562 473.314 259.465C473.218 259.337 473.169 259.193 473.169 259.032V244.634C473.169 243.35 472.8 242.307 472.062 241.505C471.356 240.702 470.409 240.301 469.221 240.301C468.033 240.301 467.07 240.702 466.332 241.505C465.626 242.307 465.273 243.35 465.273 244.634V259.032C465.273 259.193 465.208 259.337 465.08 259.465C464.984 259.562 464.855 259.61 464.695 259.61H459.061C458.9 259.61 458.756 259.562 458.627 259.465C458.531 259.337 458.483 259.193 458.483 259.032V226.481C458.483 226.321 458.531 226.192 458.627 226.096C458.756 225.967 458.9 225.903 459.061 225.903H464.695C464.855 225.903 464.984 225.967 465.08 226.096C465.208 226.192 465.273 226.321 465.273 226.481V237.123C465.273 237.219 465.305 237.283 465.369 237.315C465.433 237.347 465.481 237.331 465.513 237.267C466.829 235.405 468.788 234.474 471.388 234.474ZM505.622 244.683C505.814 245.902 505.878 247.267 505.814 248.776C505.782 249.161 505.573 249.353 505.188 249.353H490.309C490.116 249.353 490.052 249.434 490.116 249.594C490.213 250.236 490.389 250.878 490.646 251.52C491.481 253.318 493.182 254.217 495.75 254.217C497.805 254.185 499.426 253.35 500.614 251.713C500.742 251.52 500.887 251.424 501.047 251.424C501.143 251.424 501.256 251.488 501.384 251.617L504.851 255.035C505.012 255.196 505.092 255.34 505.092 255.469C505.092 255.533 505.028 255.661 504.899 255.854C503.84 257.17 502.476 258.197 500.806 258.936C499.137 259.642 497.307 259.995 495.317 259.995C492.556 259.995 490.213 259.369 488.287 258.117C486.393 256.865 485.028 255.116 484.194 252.869C483.52 251.263 483.183 249.161 483.183 246.561C483.183 244.795 483.423 243.238 483.905 241.89C484.643 239.611 485.927 237.797 487.757 236.449C489.619 235.1 491.818 234.426 494.354 234.426C497.564 234.426 500.132 235.357 502.058 237.219C504.016 239.081 505.204 241.569 505.622 244.683ZM494.402 240.301C492.38 240.301 491.047 241.248 490.405 243.142C490.277 243.559 490.165 244.073 490.068 244.683C490.068 244.843 490.149 244.923 490.309 244.923H498.639C498.832 244.923 498.896 244.843 498.832 244.683C498.672 243.752 498.591 243.302 498.591 243.334C498.302 242.371 497.789 241.633 497.05 241.119C496.344 240.574 495.461 240.301 494.402 240.301ZM59.6056 365.995C57.0375 365.995 54.8064 365.353 52.9124 364.069C51.0505 362.785 49.7183 361.019 48.9158 358.772C48.37 357.167 48.0972 355.273 48.0972 353.09C48.0972 350.939 48.37 349.078 48.9158 347.505C49.6862 345.322 51.0184 343.604 52.9124 342.352C54.8064 341.1 57.0375 340.474 59.6056 340.474C62.1737 340.474 64.4208 341.116 66.3469 342.4C68.3051 343.684 69.6052 345.306 70.2473 347.264C70.5041 348.034 70.6325 348.612 70.6325 348.997V349.094C70.6325 349.383 70.472 349.559 70.151 349.623L64.6134 350.442H64.5171C64.2282 350.442 64.0356 350.281 63.9393 349.96L63.7949 349.19C63.5701 348.355 63.0726 347.665 62.3021 347.119C61.5317 346.574 60.6168 346.301 59.5574 346.301C58.5302 346.301 57.6635 346.558 56.9572 347.071C56.251 347.585 55.7534 348.291 55.4645 349.19C55.1114 350.153 54.9348 351.469 54.9348 353.138C54.9348 354.808 55.0953 356.124 55.4163 357.087C55.7053 358.05 56.2028 358.804 56.9091 359.35C57.6474 359.896 58.5302 360.169 59.5574 360.169C60.5526 360.169 61.4193 359.912 62.1577 359.398C62.9281 358.852 63.4578 358.114 63.7467 357.183C63.7788 357.119 63.7949 357.023 63.7949 356.894C63.827 356.862 63.843 356.814 63.843 356.75C63.8751 356.365 64.0998 356.204 64.5171 356.268L70.0547 357.135C70.3757 357.199 70.5362 357.376 70.5362 357.665C70.5362 357.922 70.4399 358.403 70.2473 359.109C69.5731 361.26 68.257 362.945 66.2988 364.165C64.3727 365.385 62.1416 365.995 59.6056 365.995ZM84.2717 365.995C81.5751 365.995 79.2638 365.289 77.3377 363.876C75.4116 362.464 74.0955 360.538 73.3892 358.098C72.9398 356.589 72.7151 354.952 72.7151 353.187C72.7151 351.293 72.9398 349.591 73.3892 348.082C74.1276 345.707 75.4598 343.845 77.3859 342.497C79.312 341.148 81.6233 340.474 84.3198 340.474C86.9521 340.474 89.1993 341.148 91.0611 342.497C92.923 343.813 94.2392 345.659 95.0096 348.034C95.5233 349.639 95.7801 351.325 95.7801 353.09C95.7801 354.824 95.5554 356.445 95.1059 357.954C94.3997 360.458 93.0835 362.432 91.1575 363.876C89.2635 365.289 86.9682 365.995 84.2717 365.995ZM84.2717 360.169C85.331 360.169 86.2299 359.848 86.9682 359.206C87.7065 358.564 88.2362 357.681 88.5572 356.557C88.814 355.53 88.9424 354.406 88.9424 353.187C88.9424 351.838 88.814 350.699 88.5572 349.768C88.2041 348.676 87.6584 347.826 86.92 347.216C86.1817 346.606 85.2829 346.301 84.2235 346.301C83.1321 346.301 82.2172 346.606 81.4788 347.216C80.7726 347.826 80.259 348.676 79.9379 349.768C79.6811 350.538 79.5527 351.678 79.5527 353.187C79.5527 354.631 79.6651 355.755 79.8898 356.557C80.2108 357.681 80.7405 358.564 81.4788 359.206C82.2493 359.848 83.1802 360.169 84.2717 360.169ZM112.086 340.474C114.655 340.474 116.725 341.261 118.298 342.834C119.871 344.407 120.658 346.542 120.658 349.238V365.032C120.658 365.193 120.593 365.337 120.465 365.465C120.369 365.562 120.24 365.61 120.08 365.61H114.446C114.285 365.61 114.141 365.562 114.013 365.465C113.916 365.337 113.868 365.193 113.868 365.032V350.634C113.868 349.35 113.499 348.307 112.761 347.505C112.054 346.702 111.107 346.301 109.92 346.301C108.732 346.301 107.769 346.702 107.03 347.505C106.324 348.307 105.971 349.35 105.971 350.634V365.032C105.971 365.193 105.907 365.337 105.778 365.465C105.682 365.562 105.554 365.61 105.393 365.61H99.7594C99.5989 365.61 99.4545 365.562 99.3261 365.465C99.2297 365.337 99.1816 365.193 99.1816 365.032V341.437C99.1816 341.277 99.2297 341.148 99.3261 341.052C99.4545 340.924 99.5989 340.86 99.7594 340.86H105.393C105.554 340.86 105.682 340.924 105.778 341.052C105.907 341.148 105.971 341.277 105.971 341.437V343.123C105.971 343.219 106.003 343.283 106.067 343.315C106.132 343.347 106.18 343.331 106.212 343.267C107.528 341.405 109.486 340.474 112.086 340.474ZM137.457 340.474C140.025 340.474 142.095 341.261 143.668 342.834C145.241 344.407 146.028 346.542 146.028 349.238V365.032C146.028 365.193 145.964 365.337 145.835 365.465C145.739 365.562 145.611 365.61 145.45 365.61H139.816C139.656 365.61 139.511 365.562 139.383 365.465C139.287 365.337 139.238 365.193 139.238 365.032V350.634C139.238 349.35 138.869 348.307 138.131 347.505C137.425 346.702 136.478 346.301 135.29 346.301C134.102 346.301 133.139 346.702 132.401 347.505C131.694 348.307 131.341 349.35 131.341 350.634V365.032C131.341 365.193 131.277 365.337 131.149 365.465C131.052 365.562 130.924 365.61 130.764 365.61H125.13C124.969 365.61 124.825 365.562 124.696 365.465C124.6 365.337 124.552 365.193 124.552 365.032V341.437C124.552 341.277 124.6 341.148 124.696 341.052C124.825 340.924 124.969 340.86 125.13 340.86H130.764C130.924 340.86 131.052 340.924 131.149 341.052C131.277 341.148 131.341 341.277 131.341 341.437V343.123C131.341 343.219 131.373 343.283 131.438 343.315C131.502 343.347 131.55 343.331 131.582 343.267C132.898 341.405 134.856 340.474 137.457 340.474ZM171.69 350.683C171.883 351.902 171.947 353.267 171.883 354.776C171.851 355.161 171.642 355.353 171.257 355.353H156.378C156.185 355.353 156.121 355.434 156.185 355.594C156.282 356.236 156.458 356.878 156.715 357.52C157.55 359.318 159.251 360.217 161.819 360.217C163.874 360.185 165.495 359.35 166.683 357.713C166.811 357.52 166.955 357.424 167.116 357.424C167.212 357.424 167.325 357.488 167.453 357.617L170.92 361.035C171.08 361.196 171.161 361.34 171.161 361.469C171.161 361.533 171.097 361.661 170.968 361.854C169.909 363.17 168.544 364.197 166.875 364.936C165.206 365.642 163.376 365.995 161.386 365.995C158.625 365.995 156.282 365.369 154.356 364.117C152.462 362.865 151.097 361.116 150.263 358.869C149.588 357.263 149.251 355.161 149.251 352.561C149.251 350.795 149.492 349.238 149.974 347.89C150.712 345.611 151.996 343.797 153.826 342.449C155.688 341.1 157.887 340.426 160.423 340.426C163.633 340.426 166.201 341.357 168.127 343.219C170.085 345.081 171.273 347.569 171.69 350.683ZM160.471 346.301C158.449 346.301 157.116 347.248 156.474 349.142C156.346 349.559 156.234 350.073 156.137 350.683C156.137 350.843 156.217 350.923 156.378 350.923H164.708C164.901 350.923 164.965 350.843 164.901 350.683C164.74 349.752 164.66 349.302 164.66 349.334C164.371 348.371 163.858 347.633 163.119 347.119C162.413 346.574 161.53 346.301 160.471 346.301ZM185.987 365.995C183.419 365.995 181.188 365.353 179.294 364.069C177.432 362.785 176.1 361.019 175.297 358.772C174.751 357.167 174.478 355.273 174.478 353.09C174.478 350.939 174.751 349.078 175.297 347.505C176.067 345.322 177.4 343.604 179.294 342.352C181.188 341.1 183.419 340.474 185.987 340.474C188.555 340.474 190.802 341.116 192.728 342.4C194.686 343.684 195.986 345.306 196.628 347.264C196.885 348.034 197.014 348.612 197.014 348.997V349.094C197.014 349.383 196.853 349.559 196.532 349.623L190.995 350.442H190.898C190.609 350.442 190.417 350.281 190.321 349.96L190.176 349.19C189.951 348.355 189.454 347.665 188.683 347.119C187.913 346.574 186.998 346.301 185.939 346.301C184.911 346.301 184.045 346.558 183.338 347.071C182.632 347.585 182.135 348.291 181.846 349.19C181.493 350.153 181.316 351.469 181.316 353.138C181.316 354.808 181.477 356.124 181.798 357.087C182.086 358.05 182.584 358.804 183.29 359.35C184.029 359.896 184.911 360.169 185.939 360.169C186.934 360.169 187.801 359.912 188.539 359.398C189.309 358.852 189.839 358.114 190.128 357.183C190.16 357.119 190.176 357.023 190.176 356.894C190.208 356.862 190.224 356.814 190.224 356.75C190.256 356.365 190.481 356.204 190.898 356.268L196.436 357.135C196.757 357.199 196.917 357.376 196.917 357.665C196.917 357.922 196.821 358.403 196.628 359.109C195.954 361.26 194.638 362.945 192.68 364.165C190.754 365.385 188.523 365.995 185.987 365.995ZM214.209 345.723C214.209 345.883 214.145 346.028 214.017 346.156C213.92 346.253 213.792 346.301 213.632 346.301H209.009C208.848 346.301 208.768 346.381 208.768 346.542V356.75C208.768 357.809 208.977 358.596 209.394 359.109C209.844 359.623 210.55 359.88 211.513 359.88H213.102C213.262 359.88 213.391 359.944 213.487 360.072C213.615 360.169 213.68 360.297 213.68 360.458V365.032C213.68 365.385 213.487 365.594 213.102 365.658C211.754 365.722 210.791 365.754 210.213 365.754C207.548 365.754 205.558 365.321 204.242 364.454C202.926 363.555 202.252 361.886 202.219 359.446V346.542C202.219 346.381 202.139 346.301 201.979 346.301H199.234C199.073 346.301 198.929 346.253 198.801 346.156C198.704 346.028 198.656 345.883 198.656 345.723V341.437C198.656 341.277 198.704 341.148 198.801 341.052C198.929 340.924 199.073 340.86 199.234 340.86H201.979C202.139 340.86 202.219 340.779 202.219 340.619V334.889C202.219 334.728 202.268 334.6 202.364 334.503C202.492 334.375 202.637 334.311 202.797 334.311H208.19C208.351 334.311 208.479 334.375 208.576 334.503C208.704 334.6 208.768 334.728 208.768 334.889V340.619C208.768 340.779 208.848 340.86 209.009 340.86H213.632C213.792 340.86 213.92 340.924 214.017 341.052C214.145 341.148 214.209 341.277 214.209 341.437V345.723ZM220.993 338.067C219.902 338.067 218.987 337.714 218.249 337.007C217.542 336.269 217.189 335.354 217.189 334.263C217.189 333.139 217.542 332.224 218.249 331.518C218.955 330.812 219.87 330.459 220.993 330.459C222.117 330.459 223.032 330.812 223.738 331.518C224.444 332.224 224.797 333.139 224.797 334.263C224.797 335.354 224.428 336.269 223.69 337.007C222.984 337.714 222.085 338.067 220.993 338.067ZM218.104 365.61C217.944 365.61 217.799 365.562 217.671 365.465C217.574 365.337 217.526 365.193 217.526 365.032V341.389C217.526 341.229 217.574 341.1 217.671 341.004C217.799 340.876 217.944 340.811 218.104 340.811H223.738C223.898 340.811 224.027 340.876 224.123 341.004C224.252 341.1 224.316 341.229 224.316 341.389V365.032C224.316 365.193 224.252 365.337 224.123 365.465C224.027 365.562 223.898 365.61 223.738 365.61H218.104ZM239.574 365.995C236.878 365.995 234.567 365.289 232.64 363.876C230.714 362.464 229.398 360.538 228.692 358.098C228.243 356.589 228.018 354.952 228.018 353.187C228.018 351.293 228.243 349.591 228.692 348.082C229.43 345.707 230.762 343.845 232.689 342.497C234.615 341.148 236.926 340.474 239.623 340.474C242.255 340.474 244.502 341.148 246.364 342.497C248.226 343.813 249.542 345.659 250.312 348.034C250.826 349.639 251.083 351.325 251.083 353.09C251.083 354.824 250.858 356.445 250.409 357.954C249.702 360.458 248.386 362.432 246.46 363.876C244.566 365.289 242.271 365.995 239.574 365.995ZM239.574 360.169C240.634 360.169 241.533 359.848 242.271 359.206C243.009 358.564 243.539 357.681 243.86 356.557C244.117 355.53 244.245 354.406 244.245 353.187C244.245 351.838 244.117 350.699 243.86 349.768C243.507 348.676 242.961 347.826 242.223 347.216C241.484 346.606 240.586 346.301 239.526 346.301C238.435 346.301 237.52 346.606 236.782 347.216C236.075 347.826 235.562 348.676 235.241 349.768C234.984 350.538 234.855 351.678 234.855 353.187C234.855 354.631 234.968 355.755 235.193 356.557C235.514 357.681 236.043 358.564 236.782 359.206C237.552 359.848 238.483 360.169 239.574 360.169ZM267.389 340.474C269.957 340.474 272.028 341.261 273.601 342.834C275.174 344.407 275.96 346.542 275.96 349.238V365.032C275.96 365.193 275.896 365.337 275.768 365.465C275.671 365.562 275.543 365.61 275.382 365.61H269.749C269.588 365.61 269.444 365.562 269.315 365.465C269.219 365.337 269.171 365.193 269.171 365.032V350.634C269.171 349.35 268.802 348.307 268.063 347.505C267.357 346.702 266.41 346.301 265.222 346.301C264.035 346.301 263.071 346.702 262.333 347.505C261.627 348.307 261.274 349.35 261.274 350.634V365.032C261.274 365.193 261.21 365.337 261.081 365.465C260.985 365.562 260.856 365.61 260.696 365.61H255.062C254.902 365.61 254.757 365.562 254.629 365.465C254.532 365.337 254.484 365.193 254.484 365.032V341.437C254.484 341.277 254.532 341.148 254.629 341.052C254.757 340.924 254.902 340.86 255.062 340.86H260.696C260.856 340.86 260.985 340.924 261.081 341.052C261.21 341.148 261.274 341.277 261.274 341.437V343.123C261.274 343.219 261.306 343.283 261.37 343.315C261.434 343.347 261.482 343.331 261.515 343.267C262.831 341.405 264.789 340.474 267.389 340.474ZM310.633 347.505C311.211 349.142 311.5 351.068 311.5 353.283C311.5 355.498 311.195 357.504 310.585 359.302C309.847 361.356 308.675 362.994 307.07 364.213C305.497 365.401 303.539 365.995 301.196 365.995C298.884 365.995 297.087 365.193 295.802 363.587C295.738 363.491 295.674 363.459 295.61 363.491C295.546 363.523 295.514 363.587 295.514 363.684V373.988C295.514 374.149 295.449 374.277 295.321 374.374C295.225 374.502 295.096 374.566 294.936 374.566H289.302C289.141 374.566 288.997 374.502 288.869 374.374C288.772 374.277 288.724 374.149 288.724 373.988V341.437C288.724 341.277 288.772 341.148 288.869 341.052C288.997 340.924 289.141 340.86 289.302 340.86H294.936C295.096 340.86 295.225 340.924 295.321 341.052C295.449 341.148 295.514 341.277 295.514 341.437V343.026C295.514 343.123 295.546 343.187 295.61 343.219C295.674 343.219 295.738 343.187 295.802 343.123C297.151 341.357 299.013 340.474 301.388 340.474C303.603 340.474 305.513 341.1 307.118 342.352C308.755 343.572 309.927 345.29 310.633 347.505ZM303.266 358.291C304.069 357.039 304.47 355.337 304.47 353.187C304.47 351.164 304.133 349.559 303.459 348.371C302.72 346.991 301.533 346.301 299.895 346.301C298.419 346.301 297.311 346.991 296.573 348.371C295.899 349.527 295.562 351.148 295.562 353.235C295.562 355.386 295.915 357.055 296.621 358.243C297.359 359.527 298.451 360.169 299.895 360.169C301.34 360.169 302.464 359.543 303.266 358.291ZM325.726 365.995C323.029 365.995 320.718 365.289 318.792 363.876C316.866 362.464 315.55 360.538 314.843 358.098C314.394 356.589 314.169 354.952 314.169 353.187C314.169 351.293 314.394 349.591 314.843 348.082C315.582 345.707 316.914 343.845 318.84 342.497C320.766 341.148 323.077 340.474 325.774 340.474C328.406 340.474 330.653 341.148 332.515 342.497C334.377 343.813 335.693 345.659 336.464 348.034C336.977 349.639 337.234 351.325 337.234 353.09C337.234 354.824 337.009 356.445 336.56 357.954C335.854 360.458 334.538 362.432 332.612 363.876C330.718 365.289 328.422 365.995 325.726 365.995ZM325.726 360.169C326.785 360.169 327.684 359.848 328.422 359.206C329.161 358.564 329.69 357.681 330.011 356.557C330.268 355.53 330.397 354.406 330.397 353.187C330.397 351.838 330.268 350.699 330.011 349.768C329.658 348.676 329.112 347.826 328.374 347.216C327.636 346.606 326.737 346.301 325.678 346.301C324.586 346.301 323.671 346.606 322.933 347.216C322.227 347.826 321.713 348.676 321.392 349.768C321.135 350.538 321.007 351.678 321.007 353.187C321.007 354.631 321.119 355.755 321.344 356.557C321.665 357.681 322.195 358.564 322.933 359.206C323.703 359.848 324.634 360.169 325.726 360.169ZM351.566 365.995C348.87 365.995 346.558 365.289 344.632 363.876C342.706 362.464 341.39 360.538 340.684 358.098C340.234 356.589 340.01 354.952 340.01 353.187C340.01 351.293 340.234 349.591 340.684 348.082C341.422 345.707 342.754 343.845 344.68 342.497C346.607 341.148 348.918 340.474 351.614 340.474C354.247 340.474 356.494 341.148 358.356 342.497C360.218 343.813 361.534 345.659 362.304 348.034C362.818 349.639 363.075 351.325 363.075 353.09C363.075 354.824 362.85 356.445 362.401 357.954C361.694 360.458 360.378 362.432 358.452 363.876C356.558 365.289 354.263 365.995 351.566 365.995ZM351.566 360.169C352.626 360.169 353.524 359.848 354.263 359.206C355.001 358.564 355.531 357.681 355.852 356.557C356.109 355.53 356.237 354.406 356.237 353.187C356.237 351.838 356.109 350.699 355.852 349.768C355.499 348.676 354.953 347.826 354.215 347.216C353.476 346.606 352.577 346.301 351.518 346.301C350.427 346.301 349.512 346.606 348.773 347.216C348.067 347.826 347.554 348.676 347.233 349.768C346.976 350.538 346.847 351.678 346.847 353.187C346.847 354.631 346.96 355.755 347.184 356.557C347.505 357.681 348.035 358.564 348.773 359.206C349.544 359.848 350.475 360.169 351.566 360.169ZM367.054 365.61C366.894 365.61 366.749 365.562 366.621 365.465C366.524 365.337 366.476 365.193 366.476 365.032V332.481C366.476 332.321 366.524 332.192 366.621 332.096C366.749 331.967 366.894 331.903 367.054 331.903H372.688C372.848 331.903 372.977 331.967 373.073 332.096C373.201 332.192 373.266 332.321 373.266 332.481V365.032C373.266 365.193 373.201 365.337 373.073 365.465C372.977 365.562 372.848 365.61 372.688 365.61H367.054ZM380.929 338.067C379.837 338.067 378.922 337.714 378.184 337.007C377.478 336.269 377.125 335.354 377.125 334.263C377.125 333.139 377.478 332.224 378.184 331.518C378.89 330.812 379.805 330.459 380.929 330.459C382.052 330.459 382.967 330.812 383.673 331.518C384.38 332.224 384.733 333.139 384.733 334.263C384.733 335.354 384.364 336.269 383.625 337.007C382.919 337.714 382.02 338.067 380.929 338.067ZM378.04 365.61C377.879 365.61 377.735 365.562 377.606 365.465C377.51 365.337 377.462 365.193 377.462 365.032V341.389C377.462 341.229 377.51 341.1 377.606 341.004C377.735 340.876 377.879 340.811 378.04 340.811H383.673C383.834 340.811 383.962 340.876 384.059 341.004C384.187 341.1 384.251 341.229 384.251 341.389V365.032C384.251 365.193 384.187 365.337 384.059 365.465C383.962 365.562 383.834 365.61 383.673 365.61H378.04ZM401.484 340.474C404.052 340.474 406.123 341.261 407.696 342.834C409.269 344.407 410.055 346.542 410.055 349.238V365.032C410.055 365.193 409.991 365.337 409.863 365.465C409.766 365.562 409.638 365.61 409.477 365.61H403.844C403.683 365.61 403.539 365.562 403.41 365.465C403.314 365.337 403.266 365.193 403.266 365.032V350.634C403.266 349.35 402.897 348.307 402.158 347.505C401.452 346.702 400.505 346.301 399.317 346.301C398.13 346.301 397.166 346.702 396.428 347.505C395.722 348.307 395.369 349.35 395.369 350.634V365.032C395.369 365.193 395.305 365.337 395.176 365.465C395.08 365.562 394.951 365.61 394.791 365.61H389.157C388.997 365.61 388.852 365.562 388.724 365.465C388.627 365.337 388.579 365.193 388.579 365.032V341.437C388.579 341.277 388.627 341.148 388.724 341.052C388.852 340.924 388.997 340.86 389.157 340.86H394.791C394.951 340.86 395.08 340.924 395.176 341.052C395.305 341.148 395.369 341.277 395.369 341.437V343.123C395.369 343.219 395.401 343.283 395.465 343.315C395.529 343.347 395.577 343.331 395.61 343.267C396.926 341.405 398.884 340.474 401.484 340.474ZM429.069 341.437C429.069 341.277 429.118 341.148 429.214 341.052C429.342 340.924 429.487 340.86 429.647 340.86H435.281C435.442 340.86 435.57 340.924 435.666 341.052C435.795 341.148 435.859 341.277 435.859 341.437V363.395C435.859 367.6 434.639 370.602 432.199 372.399C429.792 374.197 426.678 375.096 422.858 375.096C421.734 375.096 420.482 375.016 419.102 374.855C418.781 374.823 418.62 374.614 418.62 374.229L418.813 369.269C418.813 368.852 419.038 368.676 419.487 368.74C420.643 368.932 421.702 369.029 422.665 369.029C424.72 369.029 426.293 368.579 427.384 367.68C428.508 366.782 429.069 365.337 429.069 363.347C429.069 363.25 429.037 363.202 428.973 363.202C428.909 363.17 428.845 363.186 428.781 363.25C427.561 364.567 425.779 365.225 423.436 365.225C421.349 365.225 419.423 364.727 417.657 363.732C415.924 362.705 414.688 361.067 413.95 358.82C413.468 357.344 413.227 355.434 413.227 353.09C413.227 350.586 413.516 348.548 414.094 346.975C414.768 345.017 415.908 343.444 417.513 342.256C419.118 341.068 420.98 340.474 423.099 340.474C425.57 340.474 427.464 341.213 428.781 342.689C428.845 342.754 428.909 342.786 428.973 342.786C429.037 342.754 429.069 342.689 429.069 342.593V341.437ZM428.684 356.991C428.941 356.028 429.069 354.711 429.069 353.042C429.069 352.047 429.037 351.277 428.973 350.731C428.909 350.185 428.797 349.671 428.636 349.19C428.347 348.323 427.866 347.633 427.191 347.119C426.517 346.574 425.683 346.301 424.688 346.301C423.725 346.301 422.906 346.574 422.232 347.119C421.558 347.633 421.06 348.323 420.739 349.19C420.29 350.153 420.065 351.453 420.065 353.09C420.065 354.888 420.258 356.172 420.643 356.942C420.932 357.809 421.429 358.515 422.135 359.061C422.874 359.575 423.741 359.832 424.736 359.832C425.763 359.832 426.614 359.575 427.288 359.061C427.962 358.515 428.427 357.825 428.684 356.991Z"></path>
</g>
<defs>
<linearGradient gradientUnits="userSpaceOnUse" y2="123.524" x2="-17.105" y1="214.064" x1="563.876" id="paint0_linear_870_29072">
<stop stop-color="#04C8BB"></stop>
<stop stop-opacity="0" stop-color="#04C8BB" offset="0.75"></stop>
</linearGradient>
<linearGradient gradientUnits="userSpaceOnUse" y2="53.8181" x2="-32.2091" y1="222.381" x1="602.541" id="paint1_linear_870_29072">
<stop stop-color="#04C8BB"></stop>
<stop stop-opacity="0" stop-color="#04C8BB" offset="0.75"></stop>
</linearGradient>
<linearGradient gradientUnits="userSpaceOnUse" y2="-98.2348" x2="-68.7923" y1="242.728" x1="600.328" id="paint2_linear_870_29072">
<stop stop-color="#04C8BB"></stop>
<stop stop-opacity="0" stop-color="#04C8BB" offset="0.75"></stop>
</linearGradient>
<linearGradient gradientUnits="userSpaceOnUse" y2="-218.313" x2="-6.14917" y1="258.737" x1="661.945" id="paint3_linear_870_29072">
<stop stop-color="#04C8BB"></stop>
<stop stop-opacity="0" stop-color="#04C8BB" offset="0.75"></stop>
</linearGradient>
<linearGradient gradientUnits="userSpaceOnUse" y2="-7.11865" x2="593.88" y1="735.824" x1="691.365" id="paint4_linear_870_29072">
<stop stop-color="#04C8BB"></stop>
<stop stop-opacity="0" stop-color="#04C8BB" offset="1"></stop>
</linearGradient>
<linearGradient gradientUnits="userSpaceOnUse" y2="-149.41" x2="41.065" y1="260.511" x1="588.433" id="paint5_linear_870_29072">
<stop stop-color="#04C8BB"></stop>
<stop stop-opacity="0" stop-color="#04C8BB" offset="1"></stop>
</linearGradient>
<linearGradient gradientUnits="userSpaceOnUse" y2="108.531" x2="-140.584" y1="584.45" x1="469.15" id="paint6_linear_870_29072">
<stop stop-color="#04C8BB"></stop>
<stop stop-opacity="0" stop-color="#04C8BB" offset="1"></stop>
</linearGradient>
<linearGradient gradientUnits="userSpaceOnUse" y2="-169.392" x2="-2.53077" y1="416.728" x1="575.717" id="paint7_linear_870_29072">
<stop stop-color="#04C8BB"></stop>
<stop stop-opacity="0" stop-color="#04C8BB" offset="1"></stop>
</linearGradient>
<linearGradient gradientUnits="userSpaceOnUse" y2="91.5772" x2="-222.931" y1="836.337" x1="428.582" id="paint8_linear_870_29072">
<stop stop-color="#04C8BB"></stop>
<stop stop-opacity="0" stop-color="#04C8BB" offset="1"></stop>
</linearGradient>
<linearGradient gradientUnits="userSpaceOnUse" y2="-73.5643" x2="474.441" y1="744.301" x1="652.614" id="paint9_linear_870_29072">
<stop stop-color="#04C8BB"></stop>
<stop stop-opacity="0" stop-color="#04C8BB" offset="1"></stop>
</linearGradient>
<linearGradient gradientUnits="userSpaceOnUse" y2="-192.546" x2="-9.82062" y1="474.696" x1="608.23" id="paint10_linear_870_29072">
<stop stop-color="#04C8BB"></stop>
<stop stop-opacity="0" stop-color="#04C8BB" offset="1"></stop>
</linearGradient>
<linearGradient gradientUnits="userSpaceOnUse" y2="-155.911" x2="-27.9601" y1="506.156" x1="576.747" id="paint11_linear_870_29072">
<stop stop-color="#04C8BB"></stop>
<stop stop-opacity="0" stop-color="#04C8BB" offset="1"></stop>
</linearGradient>
<linearGradient gradientUnits="userSpaceOnUse" y2="-41.0266" x2="-109.098" y1="525.112" x1="453.408" id="paint12_linear_870_29072">
<stop stop-color="#04C8BB"></stop>
<stop stop-opacity="0" stop-color="#04C8BB" offset="1"></stop>
</linearGradient>
<linearGradient gradientUnits="userSpaceOnUse" y2="-245.382" x2="62.9514" y1="537.142" x1="701.771" id="paint13_linear_870_29072">
<stop stop-color="#04C8BB"></stop>
<stop stop-opacity="0" stop-color="#04C8BB" offset="1"></stop>
</linearGradient>
<linearGradient gradientUnits="userSpaceOnUse" y2="-59.4873" x2="698.066" y1="559.746" x1="718.669" id="paint14_linear_870_29072">
<stop stop-color="#04C8BB"></stop>
<stop stop-opacity="0" stop-color="#04C8BB" offset="1"></stop>
</linearGradient>
<linearGradient gradientUnits="userSpaceOnUse" y2="-311.195" x2="-10.9131" y1="542.753" x1="733.967" id="paint15_linear_870_29072">
<stop stop-color="#04C8BB"></stop>
<stop stop-opacity="0" stop-color="#04C8BB" offset="1"></stop>
</linearGradient>
<linearGradient gradientUnits="userSpaceOnUse" y2="-359.874" x2="-75.7101" y1="532.702" x1="752.027" id="paint16_linear_870_29072">
<stop stop-color="#04C8BB"></stop>
<stop stop-opacity="0" stop-color="#04C8BB" offset="1"></stop>
</linearGradient>
<linearGradient gradientUnits="userSpaceOnUse" y2="-439.825" x2="340.107" y1="596.043" x1="769.024" id="paint17_linear_870_29072">
<stop stop-color="#04C8BB"></stop>
<stop stop-opacity="0" stop-color="#04C8BB" offset="1"></stop>
</linearGradient>
<linearGradient gradientUnits="userSpaceOnUse" y2="-209.358" x2="746.961" y1="587.485" x1="785.791" id="paint18_linear_870_29072">
<stop stop-color="#04C8BB"></stop>
<stop stop-opacity="0" stop-color="#04C8BB" offset="1"></stop>
</linearGradient>
<linearGradient gradientUnits="userSpaceOnUse" y2="-176.378" x2="780.9" y1="626.555" x1="802.527" id="paint19_linear_870_29072">
<stop stop-color="#04C8BB"></stop>
<stop stop-opacity="0" stop-color="#04C8BB" offset="1"></stop>
</linearGradient>
<linearGradient gradientUnits="userSpaceOnUse" y2="-420.166" x2="-239.916" y1="604.432" x1="518.801" id="paint20_linear_870_29072">
<stop stop-color="#04C8BB"></stop>
<stop stop-opacity="0" stop-color="#04C8BB" offset="1"></stop>
</linearGradient>
<linearGradient gradientUnits="userSpaceOnUse" y2="-426.844" x2="-133.855" y1="574.762" x1="441.903" id="paint21_linear_870_29072">
<stop stop-color="#04C8BB"></stop>
<stop stop-opacity="0" stop-color="#04C8BB" offset="1"></stop>
</linearGradient>
<linearGradient gradientUnits="userSpaceOnUse" y2="-464.661" x2="-122.906" y1="618.081" x1="852.853" id="paint22_linear_870_29072">
<stop stop-color="#04C8BB"></stop>
<stop stop-opacity="0" stop-color="#04C8BB" offset="1"></stop>
</linearGradient>
<linearGradient gradientUnits="userSpaceOnUse" y2="-327.342" x2="399.842" y1="1324.97" x1="172.456" id="paint23_linear_870_29072">
<stop stop-color="#04C8BB"></stop>
<stop stop-opacity="0" stop-color="#04C8BB" offset="1"></stop>
</linearGradient>
<linearGradient gradientUnits="userSpaceOnUse" y2="-299.477" x2="846.711" y1="649.377" x1="886.398" id="paint24_linear_870_29072">
<stop stop-color="#04C8BB"></stop>
<stop stop-opacity="0" stop-color="#04C8BB" offset="1"></stop>
</linearGradient>
<clipPath id="clip0_870_29072">
<rect fill="white" height="474" width="844"></rect>
</clipPath>
<clipPath id="clip1_870_29072">
<rect transform="translate(-508.726 -332.875)" fill="white" height="827.107" width="1743.83"></rect>
</clipPath>
</defs>
</svg>
