<svg xmlns="http://www.w3.org/2000/svg" fill="none" viewBox="0 0 844 474" height="474" width="844">
<g clip-path="url(#clip0_7076_2495)">
<rect fill="#5A67D8" height="474" width="844"></rect>
<path fill-opacity="0.05" fill="white" d="M42.362 -27.1678C42.0756 -27.3331 41.7227 -27.3331 41.4363 -27.1678L-13.1415 4.34267C-13.4279 4.50804 -13.6043 4.81364 -13.6043 5.14436C-13.6043 5.47508 -13.4279 5.78068 -13.1415 5.94604L40.0606 36.6622L-13.1415 67.3784C-13.4279 67.5438 -13.6043 67.8494 -13.6043 68.1801C-13.6043 68.5109 -13.4279 68.8165 -13.1415 68.9818L40.088 99.7138L-13.1415 130.446C-13.4279 130.611 -13.6043 130.917 -13.6043 131.248C-13.6043 131.578 -13.4279 131.884 -13.1415 132.049L40.0738 162.773L-13.1415 193.497C-13.4279 193.662 -13.6043 193.968 -13.6043 194.299C-13.6043 194.629 -13.4279 194.935 -13.1415 195.1L40.0677 225.821L-13.1415 256.541C-13.4279 256.706 -13.6043 257.012 -13.6043 257.343C-13.6043 257.673 -13.4279 257.979 -13.1415 258.144L40.0809 288.872L-13.1415 319.6C-13.4279 319.765 -13.6043 320.071 -13.6043 320.402C-13.6043 320.732 -13.4279 321.038 -13.1415 321.203L40.0667 351.923L-13.1415 382.643C-13.4279 382.808 -13.6043 383.114 -13.6043 383.445C-13.6043 383.775 -13.4279 384.081 -13.1415 384.246L40.0464 414.954L-13.1415 445.662C-13.4279 445.828 -13.6043 446.133 -13.6043 446.464C-13.6043 446.795 -13.4279 447.1 -13.1415 447.266L41.4363 478.776C41.7227 478.941 42.0756 478.941 42.362 478.776L96.4085 447.572L150.455 478.776C150.741 478.941 151.094 478.941 151.381 478.776L205.428 447.572L259.475 478.776C259.761 478.941 260.114 478.941 260.4 478.776L314.447 447.572L368.494 478.776C368.78 478.941 369.133 478.941 369.419 478.776L423.466 447.572L477.513 478.776C477.8 478.941 478.152 478.941 478.439 478.776L532.485 447.572L586.532 478.776C586.818 478.941 587.171 478.941 587.457 478.776L641.504 447.572L695.551 478.776C695.838 478.941 696.19 478.941 696.477 478.776L750.524 447.572L804.57 478.776C804.857 478.941 805.21 478.941 805.496 478.776L860.074 447.266C860.36 447.1 860.537 446.795 860.537 446.464C860.537 446.133 860.36 445.828 860.074 445.662L832.785 429.907L806.886 414.954L860.074 384.246C860.36 384.081 860.537 383.775 860.537 383.445C860.537 383.114 860.36 382.808 860.074 382.643L832.785 366.888L806.866 351.923L860.074 321.203C860.36 321.038 860.537 320.732 860.537 320.402C860.537 320.071 860.36 319.765 860.074 319.6L832.785 303.845L806.852 288.872L860.074 258.144C860.36 257.979 860.537 257.673 860.537 257.343C860.537 257.012 860.36 256.706 860.074 256.541L832.785 240.786L806.865 225.821L860.074 195.1C860.36 194.935 860.537 194.629 860.537 194.299C860.537 193.968 860.36 193.662 860.074 193.497L832.785 177.742L806.859 162.773L860.074 132.049C860.36 131.884 860.537 131.578 860.537 131.248C860.537 130.917 860.36 130.611 860.074 130.446L832.785 114.691L806.844 99.7138L860.074 68.9818C860.36 68.8165 860.537 68.5109 860.537 68.1801C860.537 67.8494 860.36 67.5438 860.074 67.3784L832.785 51.6232L806.872 36.6622L860.074 5.94604C860.36 5.78068 860.537 5.47508 860.537 5.14436C860.537 4.81364 860.36 4.50804 860.074 4.34267L832.785 -11.4126L805.496 -27.1678C805.21 -27.3331 804.857 -27.3331 804.57 -27.1678L750.524 4.03617L723.766 -11.4126L696.477 -27.1678C696.19 -27.3331 695.837 -27.3331 695.551 -27.1678L641.504 4.03615L614.746 -11.4126L587.457 -27.1678C587.171 -27.3331 586.818 -27.3331 586.532 -27.1678L532.485 4.0359L505.728 -11.4126L478.439 -27.1678C478.152 -27.3331 477.8 -27.3331 477.513 -27.1678L423.466 4.03625L396.708 -11.4126L369.419 -27.1678C369.133 -27.3331 368.78 -27.3331 368.494 -27.1678L314.447 4.036L287.689 -11.4126L260.4 -27.1678C260.114 -27.3331 259.761 -27.3331 259.475 -27.1678L205.428 4.03624L178.67 -11.4126L151.381 -27.1678C151.094 -27.3331 150.741 -27.3331 150.455 -27.1678L96.4085 4.036L69.6508 -11.4126L42.362 -27.1678ZM803.181 414.954L750.524 384.553L697.867 414.954L723.766 429.907L750.524 445.356L803.181 414.954ZM694.161 414.954L641.504 445.356L614.746 429.907L588.847 414.954L641.504 384.553L694.161 414.954ZM585.142 414.954L532.485 384.553L479.829 414.954L505.728 429.907L532.485 445.355L585.142 414.954ZM476.123 414.954L423.466 445.356L396.708 429.907L370.809 414.954L423.466 384.553L476.123 414.954ZM367.104 414.954L314.447 445.356L287.689 429.907L261.79 414.954L314.447 384.553L367.104 414.954ZM258.085 414.954L205.428 384.553L152.771 414.954L178.67 429.907L205.428 445.356L258.085 414.954ZM149.065 414.954L96.4085 445.356L69.6508 429.907L43.7518 414.954L96.4085 384.553L149.065 414.954ZM803.201 351.923L750.524 382.336L723.766 366.888L697.846 351.923L750.524 321.51L803.201 351.923ZM694.182 351.923L641.504 321.51L588.827 351.923L614.746 366.888L641.504 382.336L694.182 351.923ZM585.162 351.923L532.485 382.336L505.728 366.888L479.808 351.923L532.485 321.51L585.162 351.923ZM476.144 351.923L423.466 321.51L370.789 351.923L396.708 366.888L423.466 382.336L476.144 351.923ZM367.124 351.923L314.447 321.51L261.77 351.923L287.689 366.888L314.447 382.336L367.124 351.923ZM258.105 351.923L205.428 382.336L178.67 366.888L152.75 351.923L205.428 321.51L258.105 351.923ZM149.085 351.923L96.4085 321.51L43.7316 351.923L69.6508 366.888L96.4085 382.336L149.085 351.923ZM803.215 288.872L750.524 258.451L697.832 288.872L723.766 303.845L750.524 319.293L803.215 288.872ZM694.196 288.872L641.504 319.294L614.746 303.845L588.813 288.872L641.504 258.451L694.196 288.872ZM585.176 288.872L532.485 258.451L479.794 288.872L505.728 303.845L532.485 319.293L585.176 288.872ZM476.158 288.872L423.466 319.294L396.708 303.845L370.775 288.872L423.466 258.451L476.158 288.872ZM367.138 288.872L314.447 319.293L287.689 303.845L261.756 288.872L314.447 258.451L367.138 288.872ZM258.119 288.872L205.428 258.451L152.736 288.872L178.67 303.845L205.428 319.294L258.119 288.872ZM149.1 288.872L96.4085 319.293L69.6508 303.845L43.7174 288.872L96.4085 258.451L149.1 288.872ZM803.202 225.821L750.524 256.234L723.766 240.786L697.845 225.821L750.524 195.407L803.202 225.821ZM694.182 225.82L641.504 195.407L588.826 225.821L614.746 240.786L641.504 256.234L694.182 225.82ZM585.163 225.821L532.485 256.234L505.728 240.786L479.807 225.821L532.485 195.407L585.163 225.821ZM476.145 225.821L423.466 195.407L370.788 225.821L396.708 240.786L423.466 256.234L476.145 225.821ZM367.125 225.821L314.447 195.407L261.769 225.821L287.689 240.786L314.447 256.234L367.125 225.821ZM258.106 225.821L205.428 256.234L178.67 240.786L152.749 225.821L205.428 195.407L258.106 225.821ZM149.086 225.821L96.4085 195.407L43.7306 225.821L69.6508 240.786L96.4085 256.234L149.086 225.821ZM803.208 162.773L750.524 132.356L697.839 162.773L723.766 177.742L750.524 193.19L803.208 162.773ZM694.189 162.773L641.504 193.19L614.746 177.742L588.82 162.773L641.504 132.356L694.189 162.773ZM585.169 162.773L532.485 132.356L479.801 162.773L505.728 177.742L532.485 193.19L585.169 162.773ZM476.151 162.773L423.466 193.19L396.708 177.742L370.782 162.773L423.466 132.356L476.151 162.773ZM367.131 162.773L314.447 193.19L287.689 177.742L261.763 162.773L314.447 132.356L367.131 162.773ZM258.112 162.773L205.428 132.356L152.743 162.773L178.67 177.742L205.428 193.19L258.112 162.773ZM149.093 162.773L96.4085 193.19L69.6508 177.742L43.7245 162.773L96.4085 132.356L149.093 162.773ZM803.222 99.7138L750.524 130.139L723.766 114.691L697.825 99.7138L750.524 69.2884L803.222 99.7138ZM694.203 99.7138L641.504 69.2884L588.806 99.7139L614.746 114.691L641.504 130.139L694.203 99.7138ZM585.184 99.7137L532.485 130.139L505.728 114.691L479.787 99.7138L532.485 69.2885L585.184 99.7137ZM476.165 99.7138L423.466 69.2883L370.768 99.7139L396.708 114.691L423.466 130.139L476.165 99.7138ZM367.145 99.7138L314.447 69.2885L261.749 99.7138L287.689 114.691L314.447 130.139L367.145 99.7138ZM258.126 99.7138L205.428 130.139L178.67 114.691L152.729 99.7138L205.428 69.2883L258.126 99.7138ZM149.107 99.7138L96.4085 69.2885L43.7103 99.7138L69.6508 114.691L96.4085 130.139L149.107 99.7138ZM803.195 36.6622L750.524 6.25255L697.852 36.6622L723.766 51.6232L750.524 67.0719L803.195 36.6622ZM694.175 36.6623L641.504 67.0719L614.747 51.6232L588.833 36.6621L641.504 6.25257L694.175 36.6623ZM585.156 36.6623L532.485 6.25282L479.815 36.6622L505.728 51.6232L532.485 67.0718L585.156 36.6623ZM476.137 36.6622L423.466 67.072L396.708 51.6232L370.795 36.6622L423.466 6.25247L476.137 36.6622ZM367.118 36.6623L314.447 67.0718L287.689 51.6232L261.776 36.6622L314.447 6.25272L367.118 36.6623ZM258.099 36.6622L205.428 6.25248L152.756 36.6622L178.67 51.6232L205.428 67.072L258.099 36.6622ZM149.079 36.6622L96.4085 67.0718L69.6508 51.6232L43.7377 36.6622L96.4085 6.25272L149.079 36.6622ZM41.8991 35.5859L-10.8272 5.14436L41.8991 -25.2972L68.7251 -9.80919L94.6254 5.14436L41.8991 35.5859ZM150.918 35.5859L98.1916 5.14436L150.918 -25.2972L177.744 -9.80919L203.644 5.14436L150.918 35.5859ZM207.211 5.14436L259.938 35.5859L312.664 5.14436L286.764 -9.80919L259.938 -25.2972L207.211 5.14436ZM368.956 35.5859L316.23 5.14436L368.956 -25.2972L395.782 -9.80919L421.683 5.14436L368.956 35.5859ZM425.25 5.14436L477.976 35.5859L530.702 5.14436L504.802 -9.80919L477.976 -25.2972L425.25 5.14436ZM534.268 5.14436L586.995 35.5859L639.721 5.14436L613.821 -9.80919L586.995 -25.2972L534.268 5.14436ZM696.014 35.5859L643.288 5.14436L696.014 -25.2972L722.84 -9.80919L748.74 5.14436L696.014 35.5859ZM752.307 5.14436L805.033 35.5859L857.76 5.14436L831.859 -9.80919L805.033 -25.2972L752.307 5.14436ZM41.8991 98.6217L-10.8272 68.1801L41.8991 37.7386L68.7251 53.2266L94.6254 68.1801L41.8991 98.6217ZM98.1916 68.1801L150.918 98.6217L203.644 68.1801L177.744 53.2266L150.918 37.7386L98.1916 68.1801ZM259.938 98.6217L207.211 68.1801L259.938 37.7386L286.764 53.2266L312.664 68.1801L259.938 98.6217ZM316.23 68.1801L368.956 98.6217L421.683 68.1801L395.782 53.2266L368.956 37.7386L316.23 68.1801ZM477.976 98.6217L425.25 68.1801L477.976 37.7386L504.802 53.2266L530.702 68.1801L477.976 98.6217ZM586.995 98.6217L534.269 68.1801L586.995 37.7386L613.821 53.2266L639.721 68.1801L586.995 98.6217ZM643.288 68.1801L696.014 98.6217L748.74 68.1801L722.84 53.2266L696.014 37.7386L643.288 68.1801ZM805.033 98.6217L752.307 68.1801L805.033 37.7386L831.859 53.2266L857.76 68.1801L805.033 98.6217ZM-10.8272 131.248L41.8991 161.689L94.6254 131.248L68.7251 116.294L41.8991 100.806L-10.8272 131.248ZM150.918 161.689L98.1916 131.248L150.918 100.806L177.744 116.294L203.644 131.248L150.918 161.689ZM207.211 131.248L259.938 161.689L312.664 131.248L286.764 116.294L259.938 100.806L207.211 131.248ZM368.956 161.689L316.23 131.248L368.956 100.806L395.782 116.294L421.683 131.248L368.956 161.689ZM425.25 131.248L477.976 161.689L530.702 131.248L504.802 116.294L477.976 100.806L425.25 131.248ZM534.268 131.248L586.995 161.689L639.721 131.248L613.821 116.294L586.995 100.806L534.268 131.248ZM696.014 161.689L643.288 131.248L696.014 100.806L722.84 116.294L748.74 131.248L696.014 161.689ZM752.307 131.248L805.033 161.689L857.76 131.248L831.859 116.294L805.033 100.806L752.307 131.248ZM41.8991 224.74L-10.8272 194.299L41.8991 163.857L68.7251 179.345L94.6254 194.299L41.8991 224.74ZM98.1916 194.299L150.918 224.74L203.644 194.299L177.744 179.345L150.918 163.857L98.1916 194.299ZM259.938 224.74L207.211 194.299L259.938 163.857L286.764 179.345L312.664 194.299L259.938 224.74ZM316.23 194.299L368.956 224.74L421.683 194.299L395.782 179.345L368.956 163.857L316.23 194.299ZM477.976 224.74L425.25 194.299L477.976 163.857L504.802 179.345L530.702 194.299L477.976 224.74ZM586.995 224.74L534.268 194.299L586.995 163.857L613.821 179.345L639.721 194.299L586.995 224.74ZM643.288 194.299L696.014 224.74L748.74 194.299L722.84 179.345L696.014 163.857L643.288 194.299ZM805.033 224.74L752.307 194.299L805.033 163.857L831.859 179.345L857.76 194.299L805.033 224.74ZM-10.8272 257.343L41.8991 287.784L94.6254 257.343L68.7251 242.389L41.8991 226.901L-10.8272 257.343ZM150.918 287.784L98.1916 257.343L150.918 226.901L177.744 242.389L203.644 257.343L150.918 287.784ZM207.211 257.343L259.938 287.784L312.664 257.343L286.764 242.389L259.938 226.901L207.211 257.343ZM368.956 287.784L316.23 257.343L368.956 226.901L395.782 242.389L421.683 257.343L368.956 287.784ZM425.25 257.343L477.976 287.784L530.702 257.343L504.802 242.389L477.976 226.901L425.25 257.343ZM534.268 257.343L586.995 287.784L639.721 257.343L613.821 242.389L586.995 226.901L534.268 257.343ZM696.014 287.784L643.288 257.343L696.014 226.901L722.84 242.389L748.74 257.343L696.014 287.784ZM752.307 257.343L805.033 287.784L857.76 257.343L831.859 242.389L805.033 226.901L752.307 257.343ZM41.8991 350.843L-10.8272 320.402L41.8991 289.96L68.7251 305.448L94.6254 320.402L41.8991 350.843ZM98.1916 320.402L150.918 350.843L203.644 320.402L177.744 305.448L150.918 289.96L98.1916 320.402ZM259.938 350.843L207.211 320.402L259.938 289.96L286.764 305.448L312.664 320.402L259.938 350.843ZM316.23 320.402L368.956 350.843L421.683 320.402L395.782 305.448L368.956 289.96L316.23 320.402ZM477.976 350.843L425.25 320.402L477.976 289.96L504.802 305.448L530.702 320.402L477.976 350.843ZM586.995 350.843L534.268 320.402L586.995 289.96L613.821 305.448L639.721 320.402L586.995 350.843ZM643.288 320.402L696.014 350.843L748.74 320.402L722.84 305.448L696.014 289.96L643.288 320.402ZM805.033 350.843L752.307 320.402L805.033 289.96L831.859 305.448L857.76 320.402L805.033 350.843ZM-10.8272 383.445L41.8991 413.886L94.6254 383.445L68.7251 368.491L41.8991 353.003L-10.8272 383.445ZM150.918 413.886L98.1916 383.445L150.918 353.003L177.744 368.491L203.644 383.445L150.918 413.886ZM207.211 383.445L259.938 413.886L312.664 383.445L286.764 368.491L259.938 353.003L207.211 383.445ZM368.956 413.886L316.23 383.445L368.956 353.003L395.782 368.491L421.683 383.445L368.956 413.886ZM425.25 383.445L477.976 413.886L530.702 383.445L504.802 368.491L477.976 353.003L425.25 383.445ZM534.268 383.445L586.995 413.886L639.721 383.445L613.821 368.491L586.995 353.003L534.268 383.445ZM696.014 413.886L643.288 383.445L696.014 353.003L722.84 368.491L748.74 383.445L696.014 413.886ZM752.307 383.445L805.033 413.886L857.76 383.445L831.859 368.491L805.033 353.003L752.307 383.445ZM41.8991 476.906L-10.8272 446.464L41.8991 416.022L68.7251 431.51L94.6254 446.464L41.8991 476.906ZM98.1916 446.464L150.918 476.906L203.644 446.464L177.744 431.51L150.918 416.022L98.1916 446.464ZM259.938 476.906L207.211 446.464L259.938 416.022L286.764 431.51L312.664 446.464L259.938 476.906ZM316.23 446.464L368.956 476.906L421.683 446.464L395.782 431.51L368.956 416.022L316.23 446.464ZM477.976 476.906L425.25 446.464L477.976 416.022L504.802 431.51L530.702 446.464L477.976 476.906ZM586.995 476.906L534.268 446.464L586.995 416.022L613.821 431.51L639.721 446.464L586.995 476.906ZM643.288 446.464L696.014 476.906L748.74 446.464L722.84 431.51L696.014 416.022L643.288 446.464ZM805.033 476.906L752.307 446.464L805.033 416.022L831.859 431.51L857.76 446.464L805.033 476.906Z" clip-rule="evenodd" fill-rule="evenodd"></path>
<path fill="white" d="M94.6925 239.139C93.8642 239.139 93.1079 238.938 92.4234 238.534C91.7389 238.123 91.1913 237.575 90.7806 236.891C90.3767 236.206 90.1748 235.45 90.1748 234.622C90.1748 233.787 90.3767 233.03 90.7806 232.353C91.1913 231.668 91.7389 231.124 92.4234 230.72C93.1079 230.309 93.8642 230.104 94.6925 230.104C95.5276 230.104 96.2839 230.309 96.9616 230.72C97.6461 231.124 98.1902 231.668 98.5941 232.353C99.0048 233.03 99.2101 233.787 99.2101 234.622C99.2101 235.45 99.0048 236.206 98.5941 236.891C98.1902 237.575 97.6461 238.123 96.9616 238.534C96.2839 238.938 95.5276 239.139 94.6925 239.139ZM118.68 243V221.972H126.175C127.804 221.972 129.156 222.253 130.231 222.814C131.312 223.376 132.12 224.152 132.654 225.145C133.188 226.131 133.455 227.27 133.455 228.564C133.455 229.851 133.184 230.984 132.643 231.963C132.11 232.935 131.302 233.691 130.22 234.232C129.146 234.772 127.794 235.043 126.165 235.043H120.487V232.312H125.877C126.904 232.312 127.739 232.164 128.382 231.87C129.033 231.576 129.508 231.148 129.81 230.587C130.111 230.025 130.261 229.351 130.261 228.564C130.261 227.77 130.107 227.082 129.799 226.5C129.498 225.918 129.022 225.474 128.372 225.165C127.729 224.851 126.883 224.693 125.836 224.693H121.852V243H118.68ZM129.06 233.513L134.255 243H130.641L125.549 233.513H129.06ZM143.668 243.318C142.114 243.318 140.776 242.986 139.653 242.322C138.538 241.652 137.675 240.71 137.066 239.499C136.464 238.28 136.163 236.853 136.163 235.217C136.163 233.602 136.464 232.178 137.066 230.946C137.675 229.714 138.524 228.752 139.612 228.061C140.708 227.37 141.988 227.024 143.452 227.024C144.342 227.024 145.205 227.171 146.04 227.465C146.875 227.76 147.624 228.222 148.288 228.852C148.952 229.481 149.476 230.299 149.859 231.305C150.243 232.305 150.434 233.52 150.434 234.95V236.039H137.898V233.739H147.426C147.426 232.931 147.262 232.216 146.933 231.593C146.605 230.963 146.143 230.467 145.547 230.104C144.958 229.741 144.267 229.56 143.473 229.56C142.611 229.56 141.858 229.772 141.214 230.197C140.578 230.614 140.085 231.162 139.736 231.839C139.393 232.51 139.222 233.239 139.222 234.026V235.823C139.222 236.877 139.407 237.774 139.777 238.513C140.153 239.252 140.677 239.817 141.348 240.207C142.018 240.591 142.802 240.782 143.699 240.782C144.281 240.782 144.811 240.7 145.29 240.536C145.769 240.365 146.184 240.111 146.533 239.776C146.882 239.441 147.149 239.027 147.334 238.534L150.239 239.057C150.006 239.913 149.589 240.662 148.987 241.306C148.391 241.942 147.642 242.439 146.738 242.795C145.841 243.144 144.818 243.318 143.668 243.318ZM158.43 243.349C157.431 243.349 156.527 243.164 155.719 242.795C154.912 242.418 154.272 241.874 153.799 241.162C153.334 240.45 153.101 239.578 153.101 238.544C153.101 237.654 153.272 236.922 153.615 236.347C153.957 235.772 154.419 235.317 155.001 234.981C155.583 234.646 156.233 234.392 156.952 234.221C157.67 234.05 158.403 233.92 159.149 233.831C160.093 233.722 160.86 233.633 161.449 233.564C162.037 233.489 162.465 233.369 162.732 233.205C162.999 233.041 163.133 232.774 163.133 232.404V232.332C163.133 231.435 162.879 230.741 162.373 230.248C161.873 229.755 161.127 229.509 160.134 229.509C159.101 229.509 158.286 229.738 157.691 230.197C157.102 230.648 156.695 231.151 156.469 231.706L153.584 231.049C153.926 230.09 154.426 229.317 155.083 228.728C155.747 228.133 156.51 227.702 157.372 227.435C158.235 227.161 159.142 227.024 160.093 227.024C160.723 227.024 161.39 227.099 162.096 227.25C162.807 227.394 163.471 227.66 164.087 228.051C164.71 228.441 165.22 228.999 165.617 229.724C166.014 230.443 166.213 231.377 166.213 232.527V243H163.215V240.844H163.091C162.893 241.241 162.595 241.631 162.198 242.014C161.801 242.398 161.291 242.716 160.668 242.969C160.045 243.222 159.299 243.349 158.43 243.349ZM159.097 240.885C159.946 240.885 160.672 240.717 161.274 240.382C161.883 240.046 162.345 239.608 162.66 239.068C162.982 238.52 163.143 237.935 163.143 237.312V235.279C163.033 235.388 162.821 235.491 162.506 235.587C162.198 235.676 161.846 235.755 161.449 235.823C161.052 235.885 160.665 235.943 160.288 235.998C159.912 236.046 159.597 236.087 159.344 236.121C158.748 236.196 158.204 236.323 157.711 236.501C157.225 236.679 156.835 236.935 156.541 237.271C156.253 237.599 156.11 238.037 156.11 238.585C156.11 239.345 156.39 239.92 156.952 240.31C157.513 240.693 158.228 240.885 159.097 240.885ZM176.945 243.318C175.418 243.318 174.104 242.973 173.002 242.281C171.907 241.583 171.065 240.621 170.476 239.396C169.888 238.171 169.593 236.768 169.593 235.186C169.593 233.585 169.894 232.171 170.497 230.946C171.099 229.714 171.948 228.752 173.043 228.061C174.138 227.37 175.429 227.024 176.914 227.024C178.112 227.024 179.18 227.246 180.117 227.691C181.055 228.129 181.811 228.745 182.386 229.539C182.968 230.333 183.314 231.261 183.423 232.322H180.436C180.271 231.583 179.895 230.946 179.306 230.412C178.724 229.878 177.944 229.611 176.965 229.611C176.11 229.611 175.36 229.837 174.717 230.289C174.08 230.734 173.584 231.37 173.228 232.199C172.872 233.02 172.694 233.992 172.694 235.115C172.694 236.265 172.869 237.257 173.218 238.092C173.567 238.927 174.06 239.574 174.696 240.033C175.34 240.491 176.096 240.721 176.965 240.721C177.547 240.721 178.074 240.615 178.546 240.402C179.026 240.183 179.426 239.872 179.748 239.468C180.076 239.064 180.306 238.578 180.436 238.01H183.423C183.314 239.03 182.982 239.94 182.428 240.741C181.873 241.542 181.13 242.172 180.2 242.63C179.275 243.089 178.191 243.318 176.945 243.318ZM194.068 227.229V229.693H185.454V227.229H194.068ZM187.764 223.451H190.834V238.369C190.834 238.965 190.923 239.413 191.101 239.714C191.279 240.009 191.508 240.211 191.789 240.32C192.076 240.423 192.388 240.474 192.723 240.474C192.97 240.474 193.185 240.457 193.37 240.423C193.555 240.389 193.699 240.361 193.801 240.341L194.356 242.877C194.178 242.945 193.924 243.014 193.596 243.082C193.267 243.157 192.857 243.199 192.364 243.205C191.556 243.219 190.803 243.075 190.105 242.774C189.407 242.473 188.842 242.007 188.411 241.378C187.98 240.748 187.764 239.957 187.764 239.006V223.451ZM216.934 231.08L214.151 231.572C214.035 231.216 213.85 230.878 213.597 230.556C213.35 230.234 213.015 229.971 212.591 229.765C212.166 229.56 211.636 229.457 210.999 229.457C210.13 229.457 209.404 229.652 208.823 230.043C208.241 230.426 207.95 230.922 207.95 231.531C207.95 232.058 208.145 232.483 208.535 232.804C208.925 233.126 209.555 233.39 210.424 233.595L212.929 234.17C214.381 234.505 215.462 235.022 216.174 235.72C216.886 236.419 217.242 237.326 217.242 238.441C217.242 239.386 216.968 240.228 216.42 240.967C215.88 241.699 215.123 242.274 214.151 242.692C213.186 243.11 212.067 243.318 210.794 243.318C209.028 243.318 207.587 242.942 206.471 242.189C205.356 241.429 204.671 240.351 204.418 238.955L207.385 238.503C207.57 239.276 207.95 239.862 208.525 240.259C209.1 240.649 209.849 240.844 210.773 240.844C211.78 240.844 212.584 240.635 213.186 240.218C213.789 239.793 214.09 239.276 214.09 238.667C214.09 238.174 213.905 237.76 213.535 237.425C213.172 237.089 212.615 236.836 211.862 236.665L209.192 236.08C207.72 235.744 206.632 235.21 205.927 234.478C205.229 233.746 204.88 232.818 204.88 231.696C204.88 230.765 205.14 229.95 205.66 229.252C206.18 228.554 206.899 228.01 207.816 227.619C208.734 227.222 209.784 227.024 210.968 227.024C212.673 227.024 214.014 227.394 214.993 228.133C215.972 228.865 216.619 229.847 216.934 231.08ZM227.414 243.318C225.86 243.318 224.522 242.986 223.4 242.322C222.284 241.652 221.421 240.71 220.812 239.499C220.21 238.28 219.909 236.853 219.909 235.217C219.909 233.602 220.21 232.178 220.812 230.946C221.421 229.714 222.27 228.752 223.359 228.061C224.454 227.37 225.734 227.024 227.199 227.024C228.088 227.024 228.951 227.171 229.786 227.465C230.621 227.76 231.371 228.222 232.035 228.852C232.699 229.481 233.222 230.299 233.605 231.305C233.989 232.305 234.18 233.52 234.18 234.95V236.039H221.644V233.739H231.172C231.172 232.931 231.008 232.216 230.679 231.593C230.351 230.963 229.889 230.467 229.293 230.104C228.705 229.741 228.013 229.56 227.219 229.56C226.357 229.56 225.604 229.772 224.96 230.197C224.324 230.614 223.831 231.162 223.482 231.839C223.14 232.51 222.968 233.239 222.968 234.026V235.823C222.968 236.877 223.153 237.774 223.523 238.513C223.899 239.252 224.423 239.817 225.094 240.207C225.765 240.591 226.548 240.782 227.445 240.782C228.027 240.782 228.557 240.7 229.036 240.536C229.516 240.365 229.93 240.111 230.279 239.776C230.628 239.441 230.895 239.027 231.08 238.534L233.985 239.057C233.753 239.913 233.335 240.662 232.733 241.306C232.137 241.942 231.388 242.439 230.484 242.795C229.588 243.144 228.564 243.318 227.414 243.318ZM244.948 227.229V229.693H236.334V227.229H244.948ZM238.644 223.451H241.714V238.369C241.714 238.965 241.803 239.413 241.981 239.714C242.159 240.009 242.388 240.211 242.669 240.32C242.957 240.423 243.268 240.474 243.603 240.474C243.85 240.474 244.065 240.457 244.25 240.423C244.435 240.389 244.579 240.361 244.681 240.341L245.236 242.877C245.058 242.945 244.805 243.014 244.476 243.082C244.148 243.157 243.737 243.199 243.244 243.205C242.436 243.219 241.683 243.075 240.985 242.774C240.287 242.473 239.722 242.007 239.291 241.378C238.86 240.748 238.644 239.957 238.644 239.006V223.451ZM258.335 236.46V227.229H261.415V243H258.396V240.269H258.232C257.869 241.111 257.287 241.812 256.486 242.374C255.692 242.928 254.703 243.205 253.519 243.205C252.506 243.205 251.609 242.983 250.829 242.538C250.056 242.086 249.446 241.419 249.001 240.536C248.563 239.653 248.344 238.561 248.344 237.261V227.229H251.414V236.891C251.414 237.966 251.712 238.821 252.308 239.458C252.903 240.094 253.677 240.413 254.628 240.413C255.203 240.413 255.775 240.269 256.343 239.981C256.918 239.694 257.393 239.259 257.77 238.677C258.153 238.096 258.341 237.356 258.335 236.46ZM265.54 248.914V227.229H268.538V229.786H268.794C268.972 229.457 269.229 229.077 269.565 228.646C269.9 228.215 270.365 227.838 270.961 227.517C271.556 227.188 272.344 227.024 273.322 227.024C274.596 227.024 275.732 227.346 276.731 227.989C277.731 228.632 278.514 229.56 279.082 230.772C279.657 231.983 279.945 233.441 279.945 235.145C279.945 236.85 279.661 238.311 279.093 239.53C278.525 240.741 277.744 241.676 276.752 242.333C275.759 242.983 274.626 243.308 273.353 243.308C272.395 243.308 271.611 243.147 271.002 242.825C270.4 242.504 269.927 242.127 269.585 241.696C269.243 241.265 268.979 240.881 268.794 240.546H268.61V248.914H265.54ZM268.548 235.115C268.548 236.224 268.709 237.195 269.031 238.031C269.352 238.866 269.818 239.519 270.427 239.992C271.036 240.457 271.782 240.69 272.665 240.69C273.583 240.69 274.349 240.447 274.965 239.961C275.581 239.468 276.047 238.801 276.362 237.959C276.683 237.117 276.844 236.169 276.844 235.115C276.844 234.074 276.687 233.14 276.372 232.312C276.064 231.483 275.598 230.83 274.975 230.351C274.359 229.871 273.589 229.632 272.665 229.632C271.775 229.632 271.023 229.861 270.406 230.32C269.797 230.778 269.335 231.418 269.02 232.24C268.705 233.061 268.548 234.019 268.548 235.115ZM294.455 243L289.814 227.229H292.987L296.078 238.811H296.232L299.332 227.229H302.505L305.585 238.76H305.739L308.809 227.229H311.982L307.351 243H304.22L301.016 231.613H300.78L297.577 243H294.455ZM322.904 220.987L316.127 246.162H313.386L320.162 220.987H322.904ZM335.248 221.972L341.1 239.098H341.336L347.189 221.972H350.618L343.051 243H339.386L331.818 221.972H335.248ZM353.408 243V227.229H356.478V243H353.408ZM354.959 224.796C354.425 224.796 353.966 224.618 353.583 224.262C353.206 223.899 353.018 223.468 353.018 222.968C353.018 222.462 353.206 222.031 353.583 221.675C353.966 221.312 354.425 221.13 354.959 221.13C355.493 221.13 355.948 221.312 356.324 221.675C356.708 222.031 356.899 222.462 356.899 222.968C356.899 223.468 356.708 223.899 356.324 224.262C355.948 224.618 355.493 224.796 354.959 224.796ZM367.97 227.229V229.693H359.356V227.229H367.97ZM361.666 223.451H364.736V238.369C364.736 238.965 364.825 239.413 365.003 239.714C365.181 240.009 365.41 240.211 365.691 240.32C365.978 240.423 366.29 240.474 366.625 240.474C366.871 240.474 367.087 240.457 367.272 240.423C367.457 240.389 367.6 240.361 367.703 240.341L368.258 242.877C368.08 242.945 367.826 243.014 367.498 243.082C367.169 243.157 366.758 243.199 366.266 243.205C365.458 243.219 364.705 243.075 364.007 242.774C363.309 242.473 362.744 242.007 362.313 241.378C361.881 240.748 361.666 239.957 361.666 239.006V223.451ZM377.994 243.318C376.44 243.318 375.102 242.986 373.979 242.322C372.863 241.652 372.001 240.71 371.392 239.499C370.789 238.28 370.488 236.853 370.488 235.217C370.488 233.602 370.789 232.178 371.392 230.946C372.001 229.714 372.85 228.752 373.938 228.061C375.033 227.37 376.313 227.024 377.778 227.024C378.668 227.024 379.53 227.171 380.365 227.465C381.2 227.76 381.95 228.222 382.614 228.852C383.278 229.481 383.802 230.299 384.185 231.305C384.568 232.305 384.76 233.52 384.76 234.95V236.039H372.223V233.739H381.751C381.751 232.931 381.587 232.216 381.259 231.593C380.93 230.963 380.468 230.467 379.873 230.104C379.284 229.741 378.593 229.56 377.799 229.56C376.936 229.56 376.183 229.772 375.54 230.197C374.903 230.614 374.41 231.162 374.061 231.839C373.719 232.51 373.548 233.239 373.548 234.026V235.823C373.548 236.877 373.733 237.774 374.102 238.513C374.479 239.252 375.002 239.817 375.673 240.207C376.344 240.591 377.128 240.782 378.024 240.782C378.606 240.782 379.137 240.7 379.616 240.536C380.095 240.365 380.509 240.111 380.858 239.776C381.207 239.441 381.474 239.027 381.659 238.534L384.565 239.057C384.332 239.913 383.914 240.662 383.312 241.306C382.717 241.942 381.967 242.439 381.064 242.795C380.167 243.144 379.144 243.318 377.994 243.318ZM94.6925 281.139C93.8642 281.139 93.1079 280.938 92.4234 280.534C91.7389 280.123 91.1913 279.575 90.7806 278.891C90.3767 278.206 90.1748 277.45 90.1748 276.622C90.1748 275.787 90.3767 275.03 90.7806 274.353C91.1913 273.668 91.7389 273.124 92.4234 272.72C93.1079 272.309 93.8642 272.104 94.6925 272.104C95.5276 272.104 96.2839 272.309 96.9616 272.72C97.6461 273.124 98.1902 273.668 98.5941 274.353C99.0048 275.03 99.2101 275.787 99.2101 276.622C99.2101 277.45 99.0048 278.206 98.5941 278.891C98.1902 279.575 97.6461 280.123 96.9616 280.534C96.2839 280.938 95.5276 281.139 94.6925 281.139ZM117.643 266.703V263.972H133.917V266.703H127.356V285H124.193V266.703H117.643ZM139.71 285.349C138.711 285.349 137.807 285.164 136.999 284.795C136.192 284.418 135.552 283.874 135.079 283.162C134.614 282.45 134.381 281.578 134.381 280.544C134.381 279.654 134.552 278.922 134.895 278.347C135.237 277.772 135.699 277.317 136.281 276.981C136.862 276.646 137.513 276.392 138.231 276.221C138.95 276.05 139.683 275.92 140.429 275.831C141.373 275.722 142.14 275.633 142.729 275.564C143.317 275.489 143.745 275.369 144.012 275.205C144.279 275.041 144.412 274.774 144.412 274.404V274.332C144.412 273.435 144.159 272.741 143.653 272.248C143.153 271.755 142.407 271.509 141.414 271.509C140.381 271.509 139.566 271.738 138.971 272.197C138.382 272.648 137.975 273.151 137.749 273.706L134.864 273.049C135.206 272.09 135.706 271.317 136.363 270.728C137.027 270.133 137.79 269.702 138.652 269.435C139.515 269.161 140.422 269.024 141.373 269.024C142.003 269.024 142.67 269.099 143.375 269.25C144.087 269.394 144.751 269.66 145.367 270.051C145.99 270.441 146.5 270.999 146.897 271.724C147.294 272.443 147.493 273.377 147.493 274.527V285H144.495V282.844H144.371C144.173 283.241 143.875 283.631 143.478 284.014C143.081 284.398 142.571 284.716 141.948 284.969C141.325 285.222 140.579 285.349 139.71 285.349ZM140.377 282.885C141.226 282.885 141.952 282.717 142.554 282.382C143.163 282.046 143.625 281.608 143.94 281.068C144.262 280.52 144.423 279.935 144.423 279.312V277.279C144.313 277.388 144.101 277.491 143.786 277.587C143.478 277.676 143.126 277.755 142.729 277.823C142.332 277.885 141.945 277.943 141.568 277.998C141.192 278.046 140.877 278.087 140.624 278.121C140.028 278.196 139.484 278.323 138.991 278.501C138.505 278.679 138.115 278.935 137.821 279.271C137.533 279.599 137.39 280.037 137.39 280.585C137.39 281.345 137.67 281.92 138.231 282.31C138.793 282.693 139.508 282.885 140.377 282.885ZM151.582 285V269.229H154.652V285H151.582ZM153.132 266.796C152.598 266.796 152.14 266.618 151.756 266.262C151.38 265.899 151.192 265.468 151.192 264.968C151.192 264.462 151.38 264.031 151.756 263.675C152.14 263.312 152.598 263.13 153.132 263.13C153.666 263.13 154.121 263.312 154.498 263.675C154.881 264.031 155.073 264.462 155.073 264.968C155.073 265.468 154.881 265.899 154.498 266.262C154.121 266.618 153.666 266.796 153.132 266.796ZM161.852 263.972V285H158.782V263.972H161.852ZM169.401 285L164.76 269.229H167.933L171.023 280.811H171.177L174.278 269.229H177.45L180.531 280.76H180.685L183.755 269.229H186.927L182.297 285H179.165L175.962 273.613H175.725L172.522 285H169.401ZM189.841 285V269.229H192.911V285H189.841ZM191.391 266.796C190.857 266.796 190.398 266.618 190.015 266.262C189.639 265.899 189.45 265.468 189.45 264.968C189.45 264.462 189.639 264.031 190.015 263.675C190.398 263.312 190.857 263.13 191.391 263.13C191.925 263.13 192.38 263.312 192.757 263.675C193.14 264.031 193.332 264.462 193.332 264.968C193.332 265.468 193.14 265.899 192.757 266.262C192.38 266.618 191.925 266.796 191.391 266.796ZM200.111 275.636V285H197.041V269.229H199.987V271.796H200.182C200.545 270.961 201.113 270.29 201.887 269.784C202.667 269.277 203.649 269.024 204.834 269.024C205.908 269.024 206.849 269.25 207.657 269.702C208.465 270.146 209.091 270.81 209.536 271.693C209.981 272.576 210.203 273.668 210.203 274.969V285H207.134V275.338C207.134 274.195 206.836 273.302 206.24 272.659C205.645 272.008 204.827 271.683 203.786 271.683C203.074 271.683 202.441 271.837 201.887 272.145C201.339 272.453 200.905 272.905 200.583 273.5C200.268 274.089 200.111 274.801 200.111 275.636ZM220.224 285.308C218.951 285.308 217.815 284.983 216.816 284.333C215.823 283.676 215.043 282.741 214.475 281.53C213.913 280.311 213.633 278.85 213.633 277.145C213.633 275.441 213.917 273.983 214.485 272.772C215.06 271.56 215.847 270.632 216.846 269.989C217.846 269.346 218.979 269.024 220.245 269.024C221.224 269.024 222.011 269.188 222.607 269.517C223.209 269.838 223.674 270.215 224.003 270.646C224.338 271.077 224.598 271.457 224.783 271.786H224.968V263.972H228.038V285H225.04V282.546H224.783C224.598 282.881 224.331 283.265 223.982 283.696C223.64 284.127 223.168 284.504 222.565 284.825C221.963 285.147 221.183 285.308 220.224 285.308ZM220.902 282.69C221.785 282.69 222.531 282.457 223.14 281.992C223.756 281.519 224.222 280.866 224.537 280.031C224.858 279.195 225.019 278.224 225.019 277.115C225.019 276.019 224.862 275.061 224.547 274.24C224.232 273.418 223.77 272.778 223.161 272.32C222.552 271.861 221.799 271.632 220.902 271.632C219.978 271.632 219.208 271.871 218.592 272.351C217.976 272.83 217.51 273.483 217.196 274.312C216.888 275.14 216.734 276.074 216.734 277.115C216.734 278.169 216.891 279.117 217.206 279.959C217.521 280.801 217.986 281.468 218.602 281.961C219.225 282.447 219.992 282.69 220.902 282.69ZM250.131 270.81H246.927C246.804 270.126 246.575 269.524 246.24 269.003C245.904 268.483 245.493 268.042 245.007 267.679C244.521 267.316 243.977 267.042 243.375 266.857C242.779 266.673 242.146 266.58 241.475 266.58C240.264 266.58 239.179 266.885 238.221 267.494C237.269 268.103 236.516 268.997 235.962 270.174C235.414 271.351 235.14 272.789 235.14 274.486C235.14 276.197 235.414 277.642 235.962 278.819C236.516 279.996 237.273 280.886 238.231 281.489C239.189 282.091 240.267 282.392 241.465 282.392C242.129 282.392 242.759 282.303 243.354 282.125C243.957 281.94 244.501 281.67 244.987 281.314C245.473 280.958 245.884 280.523 246.219 280.01C246.561 279.49 246.797 278.894 246.927 278.224L250.131 278.234C249.96 279.267 249.628 280.219 249.135 281.088C248.649 281.951 248.023 282.697 247.256 283.326C246.496 283.949 245.627 284.432 244.648 284.774C243.669 285.116 242.601 285.287 241.445 285.287C239.624 285.287 238.002 284.856 236.578 283.994C235.154 283.124 234.032 281.882 233.21 280.267C232.396 278.651 231.988 276.724 231.988 274.486C231.988 272.241 232.399 270.314 233.22 268.706C234.042 267.09 235.164 265.851 236.588 264.989C238.012 264.119 239.631 263.685 241.445 263.685C242.56 263.685 243.601 263.846 244.566 264.167C245.538 264.482 246.411 264.948 247.184 265.564C247.958 266.173 248.598 266.919 249.104 267.802C249.611 268.678 249.953 269.681 250.131 270.81ZM265.396 269.496C265.286 268.524 264.835 267.771 264.041 267.237C263.247 266.697 262.247 266.426 261.043 266.426C260.18 266.426 259.434 266.563 258.804 266.837C258.175 267.104 257.685 267.474 257.336 267.946C256.994 268.411 256.823 268.942 256.823 269.537C256.823 270.037 256.939 270.468 257.172 270.831C257.411 271.194 257.723 271.498 258.106 271.745C258.496 271.984 258.914 272.186 259.359 272.351C259.804 272.508 260.231 272.638 260.642 272.741L262.696 273.275C263.366 273.439 264.054 273.661 264.759 273.942C265.464 274.223 266.118 274.592 266.72 275.051C267.323 275.509 267.809 276.078 268.178 276.755C268.555 277.433 268.743 278.244 268.743 279.189C268.743 280.38 268.435 281.437 267.819 282.361C267.21 283.285 266.323 284.014 265.16 284.548C264.003 285.082 262.603 285.349 260.96 285.349C259.386 285.349 258.024 285.099 256.874 284.6C255.724 284.1 254.824 283.391 254.174 282.474C253.523 281.55 253.164 280.455 253.096 279.189H256.279C256.34 279.948 256.587 280.582 257.018 281.088C257.456 281.588 258.014 281.961 258.691 282.207C259.376 282.447 260.125 282.567 260.94 282.567C261.837 282.567 262.634 282.426 263.332 282.146C264.037 281.858 264.592 281.461 264.996 280.955C265.399 280.441 265.601 279.842 265.601 279.158C265.601 278.535 265.423 278.025 265.067 277.628C264.718 277.231 264.243 276.902 263.64 276.642C263.045 276.382 262.371 276.153 261.618 275.954L259.133 275.277C257.449 274.818 256.114 274.144 255.129 273.254C254.15 272.364 253.66 271.187 253.66 269.722C253.66 268.511 253.989 267.453 254.646 266.549C255.303 265.646 256.193 264.944 257.316 264.445C258.438 263.938 259.704 263.685 261.114 263.685C262.538 263.685 263.794 263.935 264.883 264.434C265.978 264.934 266.84 265.622 267.47 266.498C268.1 267.367 268.428 268.367 268.456 269.496H265.396ZM284.003 269.496C283.894 268.524 283.442 267.771 282.648 267.237C281.854 266.697 280.854 266.426 279.65 266.426C278.787 266.426 278.041 266.563 277.411 266.837C276.782 267.104 276.292 267.474 275.943 267.946C275.601 268.411 275.43 268.942 275.43 269.537C275.43 270.037 275.546 270.468 275.779 270.831C276.018 271.194 276.33 271.498 276.713 271.745C277.103 271.984 277.521 272.186 277.966 272.351C278.411 272.508 278.839 272.638 279.249 272.741L281.303 273.275C281.974 273.439 282.661 273.661 283.367 273.942C284.072 274.223 284.725 274.592 285.328 275.051C285.93 275.509 286.416 276.078 286.786 276.755C287.162 277.433 287.35 278.244 287.35 279.189C287.35 280.38 287.042 281.437 286.426 282.361C285.817 283.285 284.931 284.014 283.767 284.548C282.61 285.082 281.21 285.349 279.568 285.349C277.993 285.349 276.631 285.099 275.481 284.6C274.331 284.1 273.431 283.391 272.781 282.474C272.131 281.55 271.771 280.455 271.703 279.189H274.886C274.947 279.948 275.194 280.582 275.625 281.088C276.063 281.588 276.621 281.961 277.298 282.207C277.983 282.447 278.732 282.567 279.547 282.567C280.444 282.567 281.241 282.426 281.939 282.146C282.644 281.858 283.199 281.461 283.603 280.955C284.007 280.441 284.208 279.842 284.208 279.158C284.208 278.535 284.03 278.025 283.675 277.628C283.325 277.231 282.85 276.902 282.247 276.642C281.652 276.382 280.978 276.153 280.225 275.954L277.74 275.277C276.056 274.818 274.721 274.144 273.736 273.254C272.757 272.364 272.267 271.187 272.267 269.722C272.267 268.511 272.596 267.453 273.253 266.549C273.91 265.646 274.8 264.944 275.923 264.445C277.045 263.938 278.312 263.685 279.722 263.685C281.145 263.685 282.401 263.935 283.49 264.434C284.585 264.934 285.447 265.622 286.077 266.498C286.707 267.367 287.035 268.367 287.063 269.496H284.003Z"></path>
<rect fill="url(#paint0_linear_7076_2495)" transform="matrix(-1 0 0 1 806.788 -48.9558)" height="262.622" width="327.222"></rect>
<path fill="url(#paint1_linear_7076_2495)" d="M874.555 -65L1269.54 163L874.555 391L479.566 163L677.06 49L874.555 -65Z"></path>
<circle stroke-width="11.9991" stroke="#CBD5E0" fill="#727DDE" transform="matrix(-1 0 0 1 682.654 130.889)" r="10.8893"></circle>
<path stroke-width="11.9991" stroke="#CBD5E0" d="M683 144L683 277.982C683 341.505 734.495 393 798.018 393V393L876 393"></path>
<rect fill="url(#paint2_linear_7076_2495)" height="80" width="74" y="174" x="774"></rect>
<ellipse fill="url(#paint3_linear_7076_2495)" ry="45.9136" rx="45.5" cy="258.914" cx="819.5"></ellipse>
<path stroke-width="8.03858" stroke="white" d="M796.336 259.745L810.814 275.05L833.15 242.786"></path>
<circle stroke-width="11.7383" stroke="#5A67D8" fill="#77D99C" transform="matrix(-1 0 0 1 530.522 131.522)" r="10.6526"></circle>
<circle stroke-width="11.7383" stroke="#5A67D8" fill="#77D99C" transform="matrix(-1 0 0 1 704.522 341.522)" r="10.6526"></circle>
<path stroke-width="1.65217" stroke="#68D391" d="M139.5 81.4823H384.022C389.725 81.4823 394.348 86.1055 394.348 91.8084V130.635C394.348 136.337 389.725 140.961 384.022 140.961H139.5V81.4823Z"></path>
<path fill="white" d="M169.391 121.347C168.14 121.347 167.028 121.104 166.056 120.618C165.1 120.114 164.353 119.41 163.815 118.507C163.293 117.586 163.033 116.535 163.033 115.354V108.605C163.033 107.424 163.293 106.39 163.815 105.504C164.353 104.601 165.1 103.906 166.056 103.419C167.028 102.915 168.14 102.664 169.391 102.664C170.642 102.664 171.745 102.907 172.7 103.393C173.656 103.862 174.394 104.531 174.915 105.4C175.454 106.268 175.723 107.276 175.723 108.422V108.448C175.723 108.535 175.697 108.605 175.645 108.657C175.593 108.709 175.532 108.735 175.463 108.735L173.482 108.839C173.309 108.839 173.222 108.761 173.222 108.605V108.527C173.222 107.415 172.874 106.52 172.179 105.843C171.484 105.165 170.555 104.826 169.391 104.826C168.227 104.826 167.289 105.165 166.577 105.843C165.882 106.52 165.534 107.415 165.534 108.527V115.458C165.534 116.57 165.882 117.465 166.577 118.142C167.289 118.82 168.227 119.158 169.391 119.158C170.555 119.158 171.484 118.82 172.179 118.142C172.874 117.465 173.222 116.57 173.222 115.458V115.406C173.222 115.25 173.309 115.172 173.482 115.172L175.463 115.276C175.636 115.276 175.723 115.363 175.723 115.536C175.723 116.683 175.454 117.699 174.915 118.585C174.394 119.454 173.656 120.131 172.7 120.618C171.745 121.104 170.642 121.347 169.391 121.347ZM185.298 121.347C184.029 121.347 182.909 121.087 181.936 120.566C180.963 120.044 180.208 119.315 179.669 118.377C179.13 117.421 178.861 116.327 178.861 115.093V108.891C178.861 107.658 179.13 106.572 179.669 105.634C180.208 104.696 180.963 103.966 181.936 103.445C182.909 102.924 184.029 102.664 185.298 102.664C186.583 102.664 187.712 102.924 188.685 103.445C189.658 103.966 190.414 104.696 190.952 105.634C191.491 106.572 191.76 107.658 191.76 108.891V115.093C191.76 116.327 191.491 117.421 190.952 118.377C190.414 119.315 189.658 120.044 188.685 120.566C187.712 121.087 186.583 121.347 185.298 121.347ZM185.298 119.184C186.479 119.184 187.434 118.82 188.164 118.09C188.894 117.36 189.258 116.396 189.258 115.198V108.865C189.258 107.649 188.894 106.677 188.164 105.947C187.434 105.2 186.479 104.826 185.298 104.826C184.116 104.826 183.161 105.2 182.431 105.947C181.719 106.677 181.363 107.649 181.363 108.865V115.198C181.363 116.396 181.719 117.36 182.431 118.09C183.161 118.82 184.116 119.184 185.298 119.184ZM201.794 121.321C200.526 121.321 199.406 121.078 198.433 120.592C197.477 120.088 196.73 119.384 196.192 118.481C195.653 117.56 195.384 116.509 195.384 115.328V103.133C195.384 102.959 195.471 102.872 195.645 102.872H197.625C197.799 102.872 197.886 102.959 197.886 103.133V115.38C197.886 116.509 198.242 117.421 198.954 118.116C199.684 118.811 200.63 119.158 201.794 119.158C202.958 119.158 203.896 118.811 204.609 118.116C205.321 117.421 205.677 116.509 205.677 115.38V103.133C205.677 102.959 205.764 102.872 205.937 102.872H207.918C208.092 102.872 208.179 102.959 208.179 103.133V115.328C208.179 116.509 207.909 117.56 207.371 118.481C206.85 119.384 206.103 120.088 205.13 120.592C204.174 121.078 203.062 121.321 201.794 121.321ZM222.657 121.113C222.518 121.113 222.423 121.052 222.37 120.93L218.722 113.139C218.705 113.087 218.67 113.061 218.618 113.061H214.866C214.796 113.061 214.761 113.096 214.761 113.165V120.852C214.761 121.026 214.675 121.113 214.501 121.113H212.52C212.347 121.113 212.26 121.026 212.26 120.852V103.133C212.26 102.959 212.347 102.872 212.52 102.872H219.53C220.572 102.872 221.484 103.089 222.266 103.523C223.065 103.958 223.682 104.566 224.116 105.348C224.551 106.129 224.768 107.033 224.768 108.058C224.768 109.274 224.446 110.307 223.804 111.159C223.178 111.992 222.301 112.557 221.172 112.852C221.102 112.887 221.085 112.93 221.12 112.983L224.898 120.8C224.915 120.835 224.924 120.878 224.924 120.93C224.924 121.052 224.855 121.113 224.716 121.113H222.657ZM214.866 105.035C214.796 105.035 214.761 105.07 214.761 105.139V110.976C214.761 111.046 214.796 111.08 214.866 111.08H219.217C220.138 111.08 220.876 110.811 221.432 110.273C221.988 109.717 222.266 108.987 222.266 108.084C222.266 107.163 221.988 106.425 221.432 105.869C220.876 105.313 220.138 105.035 219.217 105.035H214.866ZM233.869 121.321C232.532 121.321 231.368 121.113 230.378 120.696C229.405 120.279 228.649 119.688 228.111 118.924C227.589 118.16 227.329 117.265 227.329 116.24V115.484C227.329 115.31 227.416 115.224 227.589 115.224H229.492C229.665 115.224 229.752 115.31 229.752 115.484V116.11C229.752 116.996 230.134 117.725 230.899 118.298C231.663 118.872 232.714 119.158 234.052 119.158C235.251 119.158 236.154 118.907 236.762 118.403C237.37 117.899 237.674 117.239 237.674 116.422C237.674 115.884 237.518 115.423 237.205 115.041C236.892 114.659 236.432 114.312 235.824 113.999C235.233 113.669 234.365 113.278 233.218 112.826C231.95 112.34 230.942 111.897 230.195 111.497C229.466 111.098 228.858 110.577 228.371 109.934C227.885 109.274 227.642 108.448 227.642 107.458C227.642 105.964 228.171 104.792 229.231 103.94C230.308 103.089 231.759 102.664 233.583 102.664C234.868 102.664 235.998 102.881 236.97 103.315C237.943 103.749 238.69 104.357 239.211 105.139C239.75 105.921 240.019 106.824 240.019 107.849V108.37C240.019 108.544 239.932 108.631 239.759 108.631H237.804C237.63 108.631 237.544 108.544 237.544 108.37V107.979C237.544 107.076 237.179 106.329 236.449 105.738C235.737 105.13 234.747 104.826 233.479 104.826C232.401 104.826 231.568 105.052 230.977 105.504C230.386 105.938 230.091 106.572 230.091 107.406C230.091 107.979 230.239 108.448 230.534 108.813C230.829 109.178 231.264 109.508 231.837 109.804C232.428 110.081 233.322 110.446 234.521 110.898C235.754 111.384 236.753 111.836 237.518 112.253C238.282 112.653 238.916 113.191 239.42 113.869C239.924 114.529 240.176 115.354 240.176 116.344C240.176 117.873 239.611 119.089 238.482 119.992C237.37 120.878 235.832 121.321 233.869 121.321ZM255.677 104.774C255.677 104.948 255.59 105.035 255.417 105.035H246.166C246.097 105.035 246.062 105.07 246.062 105.139V110.742C246.062 110.811 246.097 110.846 246.166 110.846H252.524C252.698 110.846 252.785 110.933 252.785 111.106V112.748C252.785 112.922 252.698 113.009 252.524 113.009H246.166C246.097 113.009 246.062 113.043 246.062 113.113V118.846C246.062 118.915 246.097 118.95 246.166 118.95H255.417C255.59 118.95 255.677 119.037 255.677 119.211V120.852C255.677 121.026 255.59 121.113 255.417 121.113H243.821C243.647 121.113 243.56 121.026 243.56 120.852V103.133C243.56 102.959 243.647 102.872 243.821 102.872H255.417C255.59 102.872 255.677 102.959 255.677 103.133V104.774ZM276.707 102.846C277.767 102.846 278.697 103.072 279.496 103.523C280.312 103.958 280.938 104.575 281.372 105.374C281.824 106.173 282.049 107.093 282.049 108.136C282.049 109.178 281.824 110.09 281.372 110.872C280.92 111.654 280.277 112.262 279.444 112.696C278.627 113.13 277.68 113.347 276.603 113.347H272.017C271.947 113.347 271.913 113.382 271.913 113.452V120.852C271.913 121.026 271.826 121.113 271.652 121.113H269.672C269.498 121.113 269.411 121.026 269.411 120.852V103.107C269.411 102.933 269.498 102.846 269.672 102.846H276.707ZM276.369 111.315C277.324 111.315 278.089 111.028 278.662 110.455C279.252 109.882 279.548 109.126 279.548 108.188C279.548 107.232 279.252 106.468 278.662 105.895C278.089 105.304 277.324 105.009 276.369 105.009H272.017C271.947 105.009 271.913 105.044 271.913 105.113V111.211C271.913 111.28 271.947 111.315 272.017 111.315H276.369ZM295.173 121.113C295.016 121.113 294.912 121.043 294.86 120.904L293.922 117.855C293.905 117.803 293.87 117.777 293.818 117.777H286.495C286.443 117.777 286.408 117.803 286.391 117.855L285.453 120.904C285.401 121.043 285.297 121.113 285.14 121.113H283.03C282.839 121.113 282.769 121.017 282.821 120.826L288.528 103.081C288.58 102.942 288.684 102.872 288.841 102.872H291.446C291.603 102.872 291.707 102.942 291.759 103.081L297.518 120.826L297.544 120.93C297.544 121.052 297.466 121.113 297.309 121.113H295.173ZM287.043 115.667C287.025 115.701 287.025 115.736 287.043 115.771C287.077 115.788 287.112 115.797 287.147 115.797H293.14C293.175 115.797 293.201 115.788 293.218 115.771C293.253 115.736 293.262 115.701 293.244 115.667L290.222 105.999C290.204 105.964 290.178 105.947 290.143 105.947C290.109 105.947 290.083 105.964 290.065 105.999L287.043 115.667ZM310.909 121.113C310.77 121.113 310.674 121.052 310.622 120.93L306.974 113.139C306.957 113.087 306.922 113.061 306.87 113.061H303.117C303.048 113.061 303.013 113.096 303.013 113.165V120.852C303.013 121.026 302.926 121.113 302.753 121.113H300.772C300.598 121.113 300.512 121.026 300.512 120.852V103.133C300.512 102.959 300.598 102.872 300.772 102.872H307.782C308.824 102.872 309.736 103.089 310.518 103.523C311.317 103.958 311.934 104.566 312.368 105.348C312.802 106.129 313.02 107.033 313.02 108.058C313.02 109.274 312.698 110.307 312.055 111.159C311.43 111.992 310.553 112.557 309.424 112.852C309.354 112.887 309.337 112.93 309.371 112.983L313.15 120.8C313.167 120.835 313.176 120.878 313.176 120.93C313.176 121.052 313.106 121.113 312.967 121.113H310.909ZM303.117 105.035C303.048 105.035 303.013 105.07 303.013 105.139V110.976C303.013 111.046 303.048 111.08 303.117 111.08H307.469C308.39 111.08 309.128 110.811 309.684 110.273C310.24 109.717 310.518 108.987 310.518 108.084C310.518 107.163 310.24 106.425 309.684 105.869C309.128 105.313 308.39 105.035 307.469 105.035H303.117ZM328.063 102.872C328.237 102.872 328.324 102.959 328.324 103.133V104.8C328.324 104.974 328.237 105.061 328.063 105.061H323.06C322.99 105.061 322.956 105.096 322.956 105.165V120.852C322.956 121.026 322.869 121.113 322.695 121.113H320.715C320.541 121.113 320.454 121.026 320.454 120.852V105.165C320.454 105.096 320.419 105.061 320.35 105.061H315.581C315.407 105.061 315.321 104.974 315.321 104.8V103.133C315.321 102.959 315.407 102.872 315.581 102.872H328.063ZM338.94 102.95C339.044 102.898 339.157 102.872 339.279 102.872H341.337C341.511 102.872 341.598 102.959 341.598 103.133V120.852C341.598 121.026 341.511 121.113 341.337 121.113H339.357C339.183 121.113 339.096 121.026 339.096 120.852V105.556C339.096 105.521 339.079 105.495 339.044 105.478C339.027 105.46 339.001 105.46 338.966 105.478L336.23 106.416C336.195 106.433 336.152 106.442 336.1 106.442C335.996 106.442 335.935 106.373 335.917 106.234L335.813 104.748C335.813 104.575 335.865 104.47 335.969 104.436L338.94 102.95ZM344.635 121.113C344.444 121.113 344.375 121.017 344.427 120.826L350.551 103.081C350.603 102.942 350.707 102.872 350.863 102.872H352.818C353.009 102.872 353.078 102.968 353.026 103.159L346.902 120.904C346.85 121.043 346.746 121.113 346.59 121.113H344.635ZM367.9 113.973C368.073 113.973 368.16 114.06 368.16 114.233V115.953C368.16 116.127 368.073 116.214 367.9 116.214H366.779C366.71 116.214 366.675 116.249 366.675 116.318V120.852C366.675 121.026 366.588 121.113 366.414 121.113H364.434C364.26 121.113 364.173 121.026 364.173 120.852V116.318C364.173 116.249 364.139 116.214 364.069 116.214H356.147C355.974 116.214 355.887 116.127 355.887 115.953V114.546C355.887 114.459 355.913 114.355 355.965 114.233L361.099 103.054C361.151 102.933 361.246 102.872 361.385 102.872H363.47C363.557 102.872 363.617 102.907 363.652 102.976C363.704 103.028 363.713 103.098 363.678 103.185L358.779 113.843C358.762 113.877 358.762 113.912 358.779 113.947C358.797 113.964 358.823 113.973 358.858 113.973H364.069C364.139 113.973 364.173 113.938 364.173 113.869V109.986C364.173 109.812 364.26 109.725 364.434 109.725H366.414C366.588 109.725 366.675 109.812 366.675 109.986V113.869C366.675 113.938 366.71 113.973 366.779 113.973H367.9Z"></path>
<path fill="#77D99C" d="M81.6738 91.8084C81.6738 85.6492 86.6668 80.6562 92.826 80.6562H142.804V141.787H92.826C86.6668 141.787 81.6738 136.794 81.6738 130.635V91.8084Z"></path>
<path fill="#434299" d="M97.0134 116.488C96.6263 117.118 96.6323 117.913 97.0289 118.537L104.206 129.838C104.671 130.571 105.569 130.905 106.403 130.656L127.113 124.454C128.243 124.116 128.812 122.857 128.318 121.788L115.004 92.9603C114.355 91.5544 112.398 91.439 111.587 92.7588L97.0134 116.488ZM114.65 99.5505C114.367 98.8969 113.409 98.9976 113.269 99.6956L108.143 125.17C108.035 125.708 108.539 126.166 109.065 126.01L123.374 121.746C123.792 121.622 124.007 121.161 123.834 120.762L114.65 99.5505Z" clip-rule="evenodd" fill-rule="evenodd"></path>
<path fill="white" d="M249.756 377.898C249.391 378.493 249.396 379.244 249.771 379.833L256.547 390.502C256.987 391.195 257.834 391.511 258.621 391.275L278.175 385.42C279.242 385.1 279.779 383.912 279.313 382.902L266.742 355.684C266.129 354.357 264.281 354.248 263.516 355.494L249.756 377.898ZM266.408 361.907C266.141 361.289 265.237 361.385 265.104 362.044L260.264 386.096C260.162 386.603 260.638 387.036 261.135 386.888L274.645 382.863C275.039 382.745 275.242 382.31 275.079 381.933L266.408 361.907Z" clip-rule="evenodd" fill-rule="evenodd"></path>
<path fill="white" d="M291.197 372.93H292.388C293.501 372.93 294.334 372.71 294.887 372.271C295.439 371.832 295.716 371.193 295.716 370.354C295.716 369.508 295.484 368.882 295.021 368.478C294.558 368.074 293.832 367.872 292.843 367.872H291.197V372.93ZM299.371 370.22C299.371 372.053 298.797 373.455 297.648 374.426C296.501 375.398 294.868 375.883 292.751 375.883H291.198V381.943H287.579V364.906H293.031C295.102 364.906 296.676 365.351 297.754 366.24C298.832 367.13 299.371 368.456 299.371 370.22Z" clip-rule="evenodd" fill-rule="evenodd"></path>
<path fill="white" d="M308.968 368.666C309.451 368.666 309.851 368.701 310.17 368.771L309.902 372.103C309.614 372.026 309.264 371.987 308.851 371.987C307.715 371.987 306.83 372.278 306.195 372.861C305.561 373.443 305.244 374.259 305.244 375.308V381.939H301.683V368.911H304.38L304.905 371.101H305.08C305.485 370.371 306.031 369.783 306.721 369.336C307.409 368.889 308.158 368.666 308.968 368.666" clip-rule="evenodd" fill-rule="evenodd"></path>
<path fill="white" d="M312.046 381.937H315.607V368.909H312.046V381.937ZM311.897 365.544C311.897 364.387 312.543 363.808 313.835 363.808C315.127 363.808 315.773 364.387 315.773 365.544C315.773 366.096 315.612 366.525 315.289 366.832C314.966 367.139 314.481 367.292 313.835 367.292C312.543 367.292 311.897 366.71 311.897 365.544Z" clip-rule="evenodd" fill-rule="evenodd"></path>
<path fill="white" d="M328.159 378.07C328.159 379.406 327.694 380.424 326.763 381.123C325.833 381.822 324.442 382.172 322.59 382.172C321.64 382.172 320.831 382.108 320.162 381.979C319.492 381.851 318.866 381.663 318.282 381.414V378.478C318.943 378.789 319.688 379.049 320.518 379.259C321.346 379.468 322.076 379.573 322.706 379.573C323.998 379.573 324.645 379.2 324.645 378.455C324.645 378.175 324.559 377.948 324.388 377.773C324.217 377.598 323.921 377.4 323.5 377.178C323.08 376.957 322.52 376.699 321.819 376.403C320.815 375.984 320.078 375.596 319.607 375.238C319.136 374.881 318.793 374.471 318.58 374.008C318.366 373.546 318.258 372.977 318.258 372.301C318.258 371.144 318.708 370.249 319.607 369.615C320.506 368.982 321.78 368.666 323.43 368.666C325.003 368.666 326.532 369.008 328.019 369.691L326.945 372.255C326.291 371.975 325.68 371.746 325.111 371.567C324.543 371.389 323.963 371.299 323.372 371.299C322.321 371.299 321.796 371.583 321.796 372.15C321.796 372.469 321.966 372.744 322.304 372.977C322.643 373.21 323.384 373.556 324.528 374.015C325.548 374.427 326.295 374.811 326.77 375.168C327.244 375.526 327.594 375.937 327.82 376.403C328.046 376.87 328.159 377.425 328.159 378.07" clip-rule="evenodd" fill-rule="evenodd"></path>
<path fill="white" d="M342.26 381.939H338.699V374.329C338.699 373.39 338.541 372.684 338.226 372.214C337.911 371.744 337.415 371.509 336.737 371.509C335.827 371.509 335.166 371.843 334.753 372.511C334.34 373.18 334.134 374.279 334.134 375.81V381.939H330.573V368.911H333.294L333.772 370.577H333.971C334.321 369.979 334.827 369.511 335.488 369.173C336.15 368.835 336.909 368.666 337.765 368.666C339.719 368.666 341.042 369.303 341.735 370.577H342.05C342.4 369.971 342.916 369.501 343.597 369.167C344.278 368.833 345.046 368.666 345.902 368.666C347.381 368.666 348.5 369.045 349.259 369.802C350.018 370.559 350.397 371.773 350.397 373.443V381.939H346.825V374.329C346.825 373.39 346.667 372.684 346.352 372.214C346.036 371.744 345.54 371.509 344.863 371.509C343.992 371.509 343.34 371.82 342.907 372.442C342.476 373.063 342.26 374.05 342.26 375.401V381.939Z" clip-rule="evenodd" fill-rule="evenodd"></path>
<path fill="white" d="M360.761 375.9L359.383 375.946C358.348 375.978 357.577 376.164 357.071 376.506C356.565 376.848 356.312 377.368 356.312 378.068C356.312 379.07 356.888 379.571 358.04 379.571C358.865 379.571 359.525 379.334 360.019 378.86C360.513 378.386 360.761 377.757 360.761 376.972V375.9ZM361.81 381.936L361.121 380.164H361.027C360.428 380.918 359.811 381.44 359.177 381.732C358.543 382.023 357.716 382.169 356.696 382.169C355.443 382.169 354.456 381.812 353.736 381.097C353.016 380.382 352.657 379.364 352.657 378.044C352.657 376.661 353.141 375.641 354.11 374.985C355.079 374.328 356.54 373.965 358.494 373.895L360.759 373.825V373.254C360.759 371.933 360.081 371.273 358.727 371.273C357.684 371.273 356.458 371.587 355.05 372.217L353.871 369.816C355.373 369.032 357.039 368.639 358.867 368.639C360.619 368.639 361.961 369.02 362.895 369.781C363.829 370.543 364.296 371.7 364.296 373.254V381.936H361.81Z" clip-rule="evenodd" fill-rule="evenodd"></path>
<path fill="white" d="M132.495 367.846C131.865 367.846 131.291 367.93 130.772 368.097C130.269 368.251 129.828 368.51 129.449 368.874C129.084 369.224 128.79 369.678 128.566 370.238C128.356 370.797 128.237 371.464 128.209 372.24C128.165 373.498 128.165 374.756 128.209 376.015C128.237 376.797 128.356 377.465 128.566 378.017C128.79 378.575 129.084 379.037 129.449 379.401C129.826 379.751 130.267 380.01 130.772 380.179C131.291 380.332 131.865 380.409 132.495 380.409C133.113 380.409 133.687 380.326 134.217 380.158C134.747 379.976 135.202 379.712 135.583 379.365C135.976 379.001 136.285 378.54 136.51 377.98C136.734 377.421 136.846 376.764 136.846 376.009V374.94H133.186C132.878 374.94 132.723 374.783 132.723 374.469V374.174C132.723 373.86 132.878 373.703 133.186 373.703H137.68C137.995 373.703 138.152 373.86 138.152 374.174V376.019C138.152 376.859 138.027 377.629 137.775 378.327C137.523 379.013 137.152 379.608 136.661 380.113C136.185 380.615 135.589 381.006 134.873 381.287C134.165 381.552 133.367 381.685 132.478 381.685C131.567 381.685 130.769 381.552 130.083 381.287C129.397 381.007 128.815 380.622 128.34 380.133C127.877 379.644 127.52 379.063 127.268 378.392C127.03 377.707 126.897 376.952 126.87 376.127C126.841 375.499 126.827 374.834 126.827 374.134C126.827 373.428 126.841 372.764 126.87 372.142C126.898 371.318 127.038 370.569 127.29 369.897C127.541 369.212 127.898 368.625 128.361 368.136C128.837 367.647 129.418 367.269 130.104 367.003C130.791 366.724 131.582 366.584 132.478 366.584C133.445 366.584 134.272 366.731 134.958 367.024C135.644 367.318 136.205 367.671 136.639 368.084C137.073 368.49 137.395 368.917 137.606 369.364C137.816 369.812 137.928 370.182 137.942 370.476C137.957 370.601 137.921 370.706 137.836 370.79C137.752 370.861 137.64 370.896 137.5 370.896H137.038C136.912 370.896 136.82 370.869 136.764 370.814C136.709 370.743 136.653 370.631 136.596 370.478C136.485 370.164 136.327 369.85 136.124 369.536C135.928 369.222 135.663 368.943 135.329 368.698C134.994 368.446 134.594 368.243 134.132 368.089C133.669 367.935 133.123 367.858 132.492 367.858L132.495 367.846ZM142.413 372.018C142.917 371.053 143.869 370.57 145.271 370.57H146.049C146.358 370.57 146.512 370.724 146.512 371.031V371.326C146.512 371.634 146.358 371.787 146.049 371.787H145.146C144.304 371.787 143.639 372.032 143.15 372.521C142.66 373.01 142.415 373.674 142.415 374.513V381.013C142.415 381.153 142.365 381.265 142.267 381.349C142.183 381.433 142.071 381.475 141.931 381.475H141.595C141.286 381.475 141.132 381.321 141.132 381.013V371.051C141.132 370.912 141.174 370.8 141.259 370.716C141.343 370.618 141.455 370.569 141.595 370.569H141.931C142.071 370.569 142.183 370.618 142.267 370.716C142.365 370.8 142.415 370.912 142.415 371.051V372.017L142.413 372.018ZM155.39 381.481C155.082 381.481 154.928 381.327 154.928 381.019V380.034C154.802 380.23 154.634 380.426 154.424 380.622C154.227 380.819 153.982 380.993 153.689 381.146C153.395 381.3 153.041 381.426 152.627 381.523C152.221 381.635 151.745 381.69 151.2 381.69C150.697 381.69 150.213 381.614 149.749 381.46C149.301 381.292 148.901 381.069 148.551 380.788C148.216 380.509 147.943 380.18 147.733 379.803C147.536 379.426 147.438 379.014 147.438 378.566C147.438 378.092 147.536 377.665 147.733 377.286C147.943 376.91 148.23 376.581 148.594 376.301C148.958 376.007 149.392 375.77 149.896 375.588C150.415 375.392 150.983 375.252 151.599 375.169L154.918 374.708V373.974C154.918 373.219 154.687 372.632 154.225 372.213C153.776 371.793 153.055 371.584 152.061 371.584C151.277 371.584 150.667 371.738 150.233 372.045C149.813 372.339 149.548 372.661 149.437 373.011C149.382 373.178 149.312 373.297 149.227 373.368C149.157 373.423 149.058 373.45 148.933 373.45H148.638C148.512 373.45 148.4 373.408 148.301 373.324C148.217 373.226 148.175 373.114 148.175 372.989C148.175 372.792 148.245 372.548 148.385 372.255C148.525 371.961 148.749 371.675 149.058 371.395C149.372 371.116 149.778 370.878 150.276 370.683C150.766 370.473 151.362 370.368 152.065 370.368C152.89 370.368 153.57 370.48 154.103 370.704C154.649 370.928 155.076 371.221 155.385 371.585C155.694 371.934 155.904 372.326 156.015 372.759C156.141 373.192 156.204 373.619 156.204 374.039V381.022C156.204 381.329 156.05 381.483 155.742 381.483H155.384L155.39 381.481ZM151.419 380.474C151.895 380.474 152.343 380.397 152.764 380.243C153.198 380.076 153.577 379.832 153.899 379.51C154.214 379.196 154.465 378.79 154.654 378.293C154.837 377.804 154.928 377.231 154.928 376.574V375.862L152.218 376.238C149.893 376.552 148.731 377.294 148.731 378.462C148.731 378.811 148.808 379.112 148.962 379.364C149.13 379.615 149.339 379.824 149.592 379.992C149.844 380.16 150.131 380.285 150.453 380.369C150.768 380.44 151.09 380.475 151.42 380.475L151.419 380.474ZM164.344 381.69C163.462 381.69 162.741 381.533 162.181 381.219C161.621 380.905 161.165 380.514 160.814 380.045V385.015C160.814 385.322 160.66 385.476 160.352 385.476H159.995C159.686 385.476 159.532 385.322 159.532 385.015V371.031C159.532 370.724 159.686 370.57 159.995 370.57H160.352C160.66 370.57 160.814 370.724 160.814 371.031V372.017C161.164 371.542 161.62 371.151 162.181 370.843C162.741 370.529 163.462 370.372 164.344 370.372C165.157 370.372 165.843 370.519 166.403 370.812C166.977 371.092 167.439 371.469 167.79 371.945C168.14 372.407 168.392 372.938 168.545 373.54C168.713 374.127 168.811 374.728 168.84 375.344C168.854 375.553 168.861 375.784 168.861 376.036C168.861 376.287 168.854 376.518 168.84 376.728C168.812 377.345 168.713 377.954 168.545 378.554C168.391 379.141 168.139 379.672 167.79 380.148C167.44 380.609 166.978 380.987 166.403 381.281C165.843 381.56 165.157 381.7 164.344 381.7V381.69ZM160.814 375.273C160.8 375.483 160.793 375.755 160.793 376.09C160.793 376.425 160.8 376.698 160.814 376.907C160.829 377.327 160.899 377.753 161.024 378.187C161.164 378.606 161.374 378.984 161.654 379.32C161.934 379.655 162.288 379.935 162.716 380.158C163.136 380.368 163.64 380.473 164.229 380.473C164.847 380.473 165.358 380.368 165.762 380.158C166.182 379.949 166.518 379.669 166.771 379.32C167.037 378.957 167.225 378.544 167.337 378.084C167.463 377.609 167.54 377.119 167.568 376.615C167.582 376.223 167.582 375.831 167.568 375.441C167.54 374.939 167.463 374.456 167.337 373.993C167.225 373.531 167.037 373.126 166.771 372.777C166.519 372.413 166.183 372.127 165.762 371.917C165.356 371.693 164.844 371.581 164.229 371.581C163.626 371.581 163.115 371.693 162.695 371.917C162.275 372.141 161.921 372.434 161.633 372.798C161.367 373.147 161.164 373.538 161.023 373.972C160.897 374.405 160.827 374.838 160.813 375.272L160.814 375.273ZM173.004 372.018C173.382 371.529 173.837 371.131 174.37 370.823C174.901 370.515 175.622 370.361 176.534 370.361C177.248 370.361 177.871 370.48 178.404 370.718C178.934 370.956 179.375 371.285 179.727 371.704C180.092 372.123 180.365 372.62 180.546 373.193C180.729 373.766 180.82 374.389 180.82 375.06V381.016C180.82 381.323 180.666 381.477 180.357 381.477H180.004C179.695 381.477 179.541 381.323 179.541 381.016V375.163C179.541 374.045 179.268 373.171 178.722 372.542C178.177 371.898 177.378 371.577 176.328 371.577C175.319 371.577 174.514 371.891 173.912 372.519C173.309 373.147 173.008 374.029 173.008 375.165V381.017C173.008 381.325 172.854 381.478 172.545 381.478H172.188C171.88 381.478 171.726 381.325 171.726 381.017V367.046C171.726 366.738 171.88 366.584 172.188 366.584H172.545C172.854 366.584 173.008 366.738 173.008 367.046V372.015L173.004 372.018ZM189.39 366.587C190.203 366.587 190.945 366.706 191.618 366.944C192.29 367.182 192.864 367.546 193.34 368.035C193.83 368.51 194.208 369.111 194.475 369.839C194.755 370.551 194.909 371.397 194.937 372.376C194.966 373.004 194.98 373.591 194.98 374.138C194.98 374.683 194.966 375.27 194.937 375.899C194.867 377.899 194.355 379.367 193.404 380.303L194.749 382.191C194.763 382.219 194.777 382.247 194.791 382.273C194.805 382.302 194.812 382.351 194.812 382.421C194.812 382.532 194.77 382.63 194.686 382.715C194.602 382.799 194.504 382.841 194.391 382.841H193.929C193.775 382.841 193.642 382.778 193.53 382.652C193.418 382.541 193.327 382.443 193.256 382.358L192.329 381.078C191.488 381.484 190.507 381.687 189.387 381.687C187.636 381.687 186.285 381.219 185.332 380.282C184.394 379.346 183.897 377.885 183.84 375.899C183.812 375.271 183.797 374.684 183.797 374.138C183.797 373.593 183.812 373.006 183.84 372.376C183.868 371.397 184.015 370.551 184.281 369.839C184.561 369.112 184.939 368.51 185.416 368.035C185.906 367.546 186.48 367.182 187.138 366.944C187.811 366.706 188.56 366.587 189.387 366.587H189.39ZM189.39 367.847C188.802 367.847 188.256 367.938 187.751 368.121C187.247 368.288 186.806 368.56 186.427 368.938C186.05 369.315 185.748 369.797 185.523 370.386C185.313 370.973 185.194 371.672 185.166 372.482C185.152 372.796 185.138 373.09 185.123 373.363C185.123 373.628 185.123 373.887 185.123 374.14C185.123 374.391 185.123 374.656 185.123 374.934C185.138 375.199 185.152 375.486 185.166 375.793C185.194 376.618 185.313 377.324 185.523 377.913C185.748 378.486 186.042 378.961 186.406 379.338C186.783 379.715 187.225 379.994 187.729 380.176C188.233 380.343 188.785 380.427 189.386 380.427C189.988 380.427 190.54 380.343 191.042 380.176C191.545 379.994 191.98 379.715 192.344 379.338C192.722 378.961 193.016 378.486 193.227 377.913C193.451 377.326 193.577 376.619 193.604 375.793C193.619 375.486 193.626 375.199 193.626 374.934C193.626 374.654 193.626 374.39 193.626 374.14C193.626 373.889 193.626 373.63 193.626 373.363C193.626 373.098 193.619 372.804 193.604 372.482C193.576 371.671 193.45 370.973 193.227 370.386C193.017 369.799 192.723 369.316 192.344 368.938C191.967 368.561 191.526 368.289 191.021 368.121C190.517 367.938 189.971 367.847 189.381 367.847H189.39ZM199.646 380.219H206.894C207.208 380.219 207.366 380.376 207.366 380.69V381.004C207.366 381.312 207.208 381.466 206.894 381.466H198.784C198.476 381.466 198.322 381.312 198.322 381.004V367.257C198.322 366.95 198.476 366.796 198.784 366.796H199.183C199.491 366.796 199.646 366.95 199.646 367.257V380.217V380.219ZM88.6367 386.122L87.221 385.304L103.003 358.021L104.419 358.838L88.6367 386.122Z"></path>
<path fill="white" d="M86.8997 383.13H118.464V384.763H86.8997V383.13Z"></path>
<path fill="white" d="M103.313 393.139L87.5235 384.04L88.3422 382.627L104.13 391.723L103.313 393.139ZM117.028 369.423L101.24 360.325L102.059 358.912L117.847 368.011L117.028 369.423Z"></path>
<path fill="white" d="M88.3469 369.422L87.5282 368.009L103.329 358.921L104.148 360.334L88.3469 369.422Z"></path>
<path fill="white" d="M116.737 386.122L100.954 358.838L102.37 358.021L118.152 385.304L116.737 386.122ZM88.152 366.925H89.7859V385.123H88.152V366.925ZM115.587 366.925H117.223V385.123H115.586L115.587 366.925Z"></path>
<path fill="white" d="M103.037 392.451L102.322 391.214L116.054 383.301L116.769 384.537L103.037 392.451Z"></path>
<path fill="white" d="M119.391 385.655C118.934 386.444 118.182 387.019 117.301 387.255C116.419 387.491 115.48 387.369 114.689 386.914C113.899 386.458 113.323 385.708 113.086 384.828C112.85 383.948 112.973 383.011 113.428 382.222C113.885 381.433 114.637 380.858 115.518 380.622C116.399 380.386 117.339 380.508 118.129 380.963C119.786 381.905 120.347 384.024 119.392 385.655H119.391ZM91.9365 369.829C91.4798 370.618 90.7282 371.193 89.8468 371.429C88.9654 371.665 88.0262 371.543 87.2354 371.088C86.4454 370.632 85.8689 369.882 85.6324 369.002C85.396 368.122 85.5189 367.185 85.9743 366.396C86.431 365.607 87.1826 365.032 88.064 364.796C88.9454 364.56 89.8846 364.682 90.6754 365.137C92.3211 366.079 92.8815 368.198 91.9377 369.829H91.9365ZM85.9849 385.655C85.0388 384.013 85.6003 381.918 87.2472 380.963C88.8929 380.018 90.9916 380.579 91.9483 382.223C92.8944 383.865 92.3329 385.96 90.686 386.915C89.0297 387.86 86.931 387.299 85.9849 385.655V385.655ZM113.44 369.829C112.494 368.187 113.056 366.092 114.702 365.137C116.348 364.192 118.447 364.753 119.404 366.397C120.35 368.039 119.788 370.134 118.141 371.089C117.35 371.544 116.411 371.667 115.53 371.431C114.648 371.195 113.897 370.619 113.44 369.83V369.829ZM102.685 395.289C100.783 395.289 99.246 393.754 99.246 391.856C99.246 389.958 100.787 388.424 102.685 388.424C104.583 388.424 106.124 389.958 106.124 391.856C106.122 392.766 105.759 393.638 105.115 394.282C104.47 394.925 103.596 395.287 102.685 395.289V395.289ZM102.685 363.634C100.783 363.634 99.246 362.1 99.246 360.202C99.246 358.304 100.787 356.769 102.685 356.769C104.583 356.769 106.124 358.304 106.124 360.202C106.124 360.653 106.036 361.099 105.863 361.516C105.691 361.933 105.438 362.312 105.118 362.631C104.799 362.95 104.419 363.202 104.002 363.375C103.584 363.547 103.137 363.635 102.685 363.634Z"></path>
<path fill="white" d="M424.601 377.293C426.635 377.293 428.283 375.648 428.283 373.618C428.283 371.588 426.635 369.943 424.601 369.943C422.568 369.943 420.92 371.588 420.92 373.618C420.92 375.648 422.568 377.293 424.601 377.293Z"></path>
<path stroke-width="1.80541" stroke="white" d="M424.6 366.148C429.544 366.148 434.136 366.856 437.599 368.046C441.77 369.479 444.335 371.652 444.335 373.62C444.335 375.67 441.617 377.979 437.137 379.46C433.75 380.58 429.293 381.165 424.6 381.165C419.789 381.165 415.233 380.616 411.808 379.448C407.475 377.97 404.865 375.631 404.865 373.62C404.865 371.668 407.314 369.512 411.427 368.08C414.902 366.871 419.608 366.148 424.6 366.148H424.6Z" clip-rule="evenodd" fill-rule="evenodd"></path>
<path stroke-width="1.80541" stroke="white" d="M418.085 369.908C420.555 365.634 423.464 362.017 426.226 359.617C429.554 356.726 432.722 355.594 434.429 356.576C436.209 357.601 436.854 361.105 435.902 365.719C435.183 369.207 433.463 373.353 431.119 377.41C428.715 381.57 425.963 385.236 423.238 387.613C419.79 390.621 416.457 391.71 414.711 390.705C413.017 389.731 412.369 386.535 413.182 382.264C413.869 378.654 415.592 374.224 418.085 369.908L418.085 369.908Z" clip-rule="evenodd" fill-rule="evenodd"></path>
<path stroke-width="1.80541" stroke="white" d="M418.091 377.424C415.614 373.155 413.928 368.832 413.224 365.245C412.377 360.923 412.976 357.618 414.682 356.633C416.46 355.605 419.823 356.797 423.352 359.925C426.021 362.29 428.761 365.847 431.112 369.9C433.522 374.056 435.329 378.267 436.032 381.81C436.921 386.295 436.201 389.721 434.457 390.729C432.765 391.707 429.668 390.671 426.366 387.835C423.577 385.439 420.592 381.736 418.091 377.424V377.424Z" clip-rule="evenodd" fill-rule="evenodd"></path>
<path fill="white" d="M465.469 383.004L460.956 376.199C463.237 375.998 465.292 374.348 465.292 371.335C465.292 368.268 463.112 366.306 460.054 366.306H453.338V382.991H455.418V376.361H458.752L463.013 382.991L465.469 383.004ZM459.805 374.548H455.419V368.169H459.805C461.786 368.169 463.139 369.469 463.139 371.346C463.139 373.223 461.785 374.55 459.805 374.55V374.548ZM473.214 383.303C475.195 383.303 476.823 382.653 478.027 381.453L477.124 380.226C476.171 381.202 474.768 381.752 473.39 381.752C470.784 381.752 469.179 379.851 469.029 377.575H478.828V377.099C478.828 373.473 476.672 370.62 473.012 370.62C469.553 370.62 467.048 373.447 467.048 376.949C467.048 380.727 469.629 383.294 473.213 383.294L473.214 383.303ZM476.975 376.198H469.03C469.13 374.347 470.407 372.169 472.989 372.169C475.747 372.169 476.949 374.396 476.975 376.198ZM491.312 383.003V374.697C491.312 371.77 489.183 370.619 486.625 370.619C484.644 370.619 483.091 371.269 481.788 372.62L482.666 373.921C483.743 372.771 484.922 372.245 486.375 372.245C488.13 372.245 489.434 373.17 489.434 374.796V376.973C488.456 375.846 487.078 375.321 485.423 375.321C483.368 375.321 481.186 376.597 481.186 379.299C481.186 381.925 483.366 383.302 485.423 383.302C487.052 383.302 488.432 382.727 489.434 381.626V383.001L491.312 383.003ZM486.1 381.952C484.346 381.952 483.117 380.852 483.117 379.325C483.117 377.774 484.346 376.673 486.1 376.673C487.428 376.673 488.706 377.174 489.434 378.175V380.451C488.707 381.452 487.428 381.953 486.1 381.953V381.952ZM500.401 383.303C502.607 383.303 503.91 382.402 504.838 381.202L503.584 380.052C502.783 381.127 501.755 381.627 500.512 381.627C497.931 381.627 496.328 379.626 496.328 376.949C496.328 374.273 497.932 372.297 500.512 372.297C501.766 372.297 502.793 372.773 503.584 373.872L504.838 372.722C503.911 371.521 502.607 370.621 500.401 370.621C496.792 370.621 494.361 373.373 494.361 376.95C494.361 380.553 496.792 383.295 500.401 383.295V383.303ZM510.528 383.303C511.63 383.303 512.308 382.978 512.785 382.528L512.234 381.127C511.983 381.402 511.492 381.627 510.955 381.627C510.129 381.627 509.727 380.977 509.727 380.076V372.571H512.184V370.92H509.727V367.618H507.846V370.92H505.841V372.572H507.846V380.478C507.846 382.28 508.749 383.305 510.528 383.305V383.303Z" clip-rule="evenodd" fill-rule="evenodd"></path>
</g>
<defs>
<linearGradient gradientUnits="userSpaceOnUse" y2="168.917" x2="328.159" y1="151.066" x1="26.1778" id="paint0_linear_7076_2495">
<stop stop-opacity="0.2" stop-color="white"></stop>
<stop stop-opacity="0.0938656" stop-color="white" offset="0.469328"></stop>
<stop stop-opacity="0" stop-color="white" offset="1"></stop>
</linearGradient>
<linearGradient gradientUnits="userSpaceOnUse" y2="391" x2="874.555" y1="-65" x1="874.555" id="paint1_linear_7076_2495">
<stop stop-color="#4247B8" offset="0.0648065"></stop>
<stop stop-color="#434190" offset="1"></stop>
</linearGradient>
<linearGradient gradientUnits="userSpaceOnUse" y2="254" x2="811" y1="174" x1="811" id="paint2_linear_7076_2495">
<stop stop-opacity="0" stop-color="white"></stop>
<stop stop-opacity="0.2" stop-color="white" offset="1"></stop>
</linearGradient>
<linearGradient gradientUnits="userSpaceOnUse" y2="294.686" x2="845.396" y1="225.604" x1="785.301" id="paint3_linear_7076_2495">
<stop stop-color="#9AE6B4"></stop>
<stop stop-color="#68D391" offset="0.647681"></stop>
<stop stop-color="#48BB78" offset="1"></stop>
</linearGradient>
<clipPath id="clip0_7076_2495">
<rect fill="white" height="474" width="844"></rect>
</clipPath>
</defs>
</svg>
