<svg xmlns="http://www.w3.org/2000/svg" fill="none" viewBox="0 0 844 474" height="474" width="844">
<g clip-path="url(#clip0_7080_3388)">
<rect fill="#434190" height="474" width="844"></rect>
<path fill="url(#paint0_linear_7080_3388)" d="M66.1407 -67.6326C65.4907 -68.0079 64.6898 -68.0079 64.0398 -67.6326L-59.8246 3.88051C-60.4746 4.2558 -60.875 4.94936 -60.875 5.69994C-60.875 6.45051 -60.4746 7.14407 -59.8246 7.51936L60.9387 77.242L-59.8246 146.965C-60.4746 147.34 -60.875 148.034 -60.875 148.784C-60.875 149.535 -60.4746 150.228 -59.8246 150.604L60.9288 220.321L-59.8246 290.037C-60.4746 290.413 -60.875 291.106 -60.875 291.857C-60.875 292.607 -60.4746 293.301 -59.8246 293.676L60.9486 363.405L-59.8246 433.133C-60.4746 433.508 -60.875 434.202 -60.875 434.953C-60.875 435.703 -60.4746 436.397 -59.8246 436.772L60.9438 506.498L-59.8246 576.223C-60.4746 576.599 -60.875 577.292 -60.875 578.043C-60.875 578.793 -60.4746 579.487 -59.8246 579.862L60.9387 649.585L-59.8246 719.307C-60.4746 719.683 -60.875 720.376 -60.875 721.127C-60.875 721.877 -60.4746 722.571 -59.8246 722.946L60.9407 792.67L-59.8246 862.394C-60.4746 862.769 -60.875 863.463 -60.875 864.213C-60.875 864.964 -60.4746 865.657 -59.8246 866.033L60.9368 935.754L-59.8246 1005.48C-60.4746 1005.85 -60.875 1006.54 -60.875 1007.3C-60.875 1008.05 -60.4746 1008.74 -59.8246 1009.11L64.0398 1080.63C64.6898 1081 65.4907 1081 66.1407 1080.63L188.799 1009.81L311.458 1080.63C312.108 1081 312.909 1081 313.559 1080.63L436.219 1009.81L558.879 1080.63C559.529 1081 560.33 1081 560.98 1080.63L683.639 1009.81L806.297 1080.63C806.947 1081 807.748 1081 808.398 1080.63L931.058 1009.81L1053.72 1080.63C1054.37 1081 1055.17 1081 1055.82 1080.63L1178.48 1009.81L1301.14 1080.63C1301.79 1081 1302.59 1081 1303.24 1080.63L1425.9 1009.81L1548.56 1080.63C1549.21 1081 1550.01 1081 1550.66 1080.63L1673.32 1009.81L1795.98 1080.63C1796.63 1081 1797.43 1081 1798.08 1080.63L1921.94 1009.11C1922.59 1008.74 1922.99 1008.05 1922.99 1007.3C1922.99 1006.54 1922.59 1005.85 1921.94 1005.48L1860.01 969.719L1801.18 935.754L1921.94 866.033C1922.59 865.657 1922.99 864.964 1922.99 864.213C1922.99 863.463 1922.59 862.769 1921.94 862.394L1860.01 826.637L1801.18 792.67L1921.94 722.946C1922.59 722.571 1922.99 721.877 1922.99 721.127C1922.99 720.376 1922.59 719.683 1921.94 719.307L1860.01 683.551L1801.18 649.585L1921.94 579.862C1922.59 579.487 1922.99 578.793 1922.99 578.043C1922.99 577.292 1922.59 576.599 1921.94 576.223L1860.01 540.467L1801.17 506.498L1921.94 436.772C1922.59 436.397 1922.99 435.703 1922.99 434.953C1922.99 434.202 1922.59 433.508 1921.94 433.133L1860.01 397.377L1801.17 363.405L1921.94 293.676C1922.59 293.301 1922.99 292.607 1922.99 291.857C1922.99 291.106 1922.59 290.413 1921.94 290.037L1860.01 254.281L1801.19 220.321L1921.94 150.604C1922.59 150.228 1922.99 149.535 1922.99 148.784C1922.99 148.034 1922.59 147.34 1921.94 146.965L1860.01 111.208L1801.18 77.2421L1921.94 7.51936C1922.59 7.14407 1922.99 6.45051 1922.99 5.69994C1922.99 4.94936 1922.59 4.2558 1921.94 3.88051L1860.01 -31.876L1798.08 -67.6326C1797.43 -68.0079 1796.63 -68.0079 1795.98 -67.6326L1673.32 3.18479L1612.59 -31.876L1550.66 -67.6326C1550.01 -68.0079 1549.21 -68.0079 1548.56 -67.6326L1425.9 3.18475L1365.17 -31.876L1303.24 -67.6326C1302.59 -68.0079 1301.79 -68.0079 1301.14 -67.6326L1178.48 3.18447L1117.75 -31.876L1055.82 -67.6326C1055.17 -68.0079 1054.37 -68.0079 1053.72 -67.6326L931.058 3.18504L870.33 -31.876L808.398 -67.6326C807.748 -68.0079 806.947 -68.0079 806.297 -67.6326L683.639 3.18451L622.912 -31.876L560.98 -67.6326C560.33 -68.0079 559.529 -68.0079 558.879 -67.6326L436.219 3.18506L375.491 -31.876L313.559 -67.6326C312.909 -68.0079 312.108 -68.0079 311.458 -67.6326L188.799 3.18449L128.073 -31.876L66.1407 -67.6326ZM1792.87 935.754L1673.32 866.729L1553.76 935.754L1612.59 969.719L1673.32 1004.78L1792.87 935.754ZM1545.45 935.754L1425.9 1004.78L1365.17 969.719L1306.34 935.754L1425.9 866.729L1545.45 935.754ZM1298.03 935.754L1178.48 866.729L1058.92 935.754L1117.75 969.719L1178.48 1004.78L1298.03 935.754ZM1050.61 935.754L931.058 1004.78L870.33 969.719L811.501 935.754L931.058 866.728L1050.61 935.754ZM803.194 935.754L683.639 1004.78L622.912 969.719L564.083 935.754L683.639 866.729L803.194 935.754ZM555.776 935.754L436.219 866.728L316.662 935.754L375.491 969.719L436.219 1004.78L555.776 935.754ZM308.355 935.754L188.799 1004.78L128.073 969.719L69.2437 935.754L188.799 866.729L308.355 935.754ZM1792.88 792.67L1673.32 861.698L1612.59 826.637L1553.76 792.67L1673.32 723.642L1792.88 792.67ZM1545.46 792.67L1425.9 723.642L1306.34 792.67L1365.17 826.637L1425.9 861.698L1545.46 792.67ZM1298.04 792.67L1178.48 861.698L1117.75 826.637L1058.92 792.67L1178.48 723.642L1298.04 792.67ZM1050.62 792.67L931.058 723.642L811.497 792.67L870.33 826.637L931.058 861.698L1050.62 792.67ZM803.198 792.67L683.639 723.642L564.079 792.67L622.912 826.637L683.639 861.698L803.198 792.67ZM555.78 792.67L436.219 861.698L375.491 826.637L316.658 792.67L436.219 723.642L555.78 792.67ZM308.359 792.67L188.799 723.642L69.2398 792.67L128.073 826.637L188.799 861.698L308.359 792.67ZM1792.87 649.585L1673.32 580.558L1553.76 649.585L1612.59 683.551L1673.32 718.612L1792.87 649.585ZM1545.45 649.585L1425.9 718.612L1365.17 683.551L1306.34 649.585L1425.9 580.558L1545.45 649.585ZM1298.04 649.585L1178.48 580.558L1058.92 649.585L1117.75 683.551L1178.48 718.611L1298.04 649.585ZM1050.62 649.585L931.058 718.612L870.33 683.551L811.499 649.585L931.058 580.558L1050.62 649.585ZM803.196 649.585L683.639 718.611L622.912 683.551L564.081 649.585L683.639 580.558L803.196 649.585ZM555.778 649.585L436.219 580.557L316.66 649.585L375.491 683.551L436.219 718.612L555.778 649.585ZM308.357 649.585L188.799 718.611L128.073 683.551L69.2418 649.585L188.799 580.558L308.357 649.585ZM1792.88 506.498L1673.32 575.527L1612.59 540.467L1553.75 506.498L1673.32 437.468L1792.88 506.498ZM1545.46 506.498L1425.9 437.468L1306.33 506.498L1365.17 540.467L1425.9 575.527L1545.46 506.498ZM1298.04 506.498L1178.48 575.527L1117.75 540.467L1058.91 506.498L1178.48 437.468L1298.04 506.498ZM1050.62 506.498L931.058 437.467L811.494 506.498L870.33 540.467L931.058 575.528L1050.62 506.498ZM803.201 506.498L683.639 437.468L564.076 506.498L622.912 540.467L683.639 575.527L803.201 506.498ZM555.783 506.498L436.219 575.528L375.491 540.467L316.655 506.498L436.219 437.467L555.783 506.498ZM308.362 506.498L188.799 437.468L69.2367 506.498L128.073 540.467L188.799 575.527L308.362 506.498ZM1792.88 363.405L1673.32 294.372L1553.75 363.405L1612.59 397.377L1673.32 432.437L1792.88 363.405ZM1545.46 363.405L1425.9 432.437L1365.17 397.377L1306.33 363.405L1425.9 294.372L1545.46 363.405ZM1298.05 363.405L1178.48 294.372L1058.91 363.405L1117.75 397.377L1178.48 432.437L1298.05 363.405ZM1050.63 363.405L931.058 432.438L870.33 397.377L811.489 363.405L931.058 294.372L1050.63 363.405ZM803.206 363.405L683.639 432.437L622.912 397.377L564.071 363.405L683.639 294.372L803.206 363.405ZM555.788 363.405L436.219 294.372L316.65 363.405L375.491 397.377L436.219 432.438L555.788 363.405ZM308.367 363.405L188.799 432.437L128.073 397.377L69.2319 363.405L188.799 294.372L308.367 363.405ZM1792.86 220.321L1673.32 289.342L1612.59 254.281L1553.77 220.32L1673.32 151.299L1792.86 220.321ZM1545.44 220.321L1425.9 151.299L1306.35 220.321L1365.17 254.281L1425.9 289.342L1545.44 220.321ZM1298.03 220.321L1178.48 289.341L1117.75 254.281L1058.93 220.321L1178.48 151.3L1298.03 220.321ZM1050.61 220.321L931.058 151.299L811.509 220.321L870.33 254.281L931.058 289.342L1050.61 220.321ZM803.186 220.321L683.639 151.3L564.091 220.321L622.912 254.281L683.639 289.341L803.186 220.321ZM555.768 220.321L436.219 289.342L375.491 254.281L316.67 220.321L436.219 151.299L555.768 220.321ZM308.347 220.321L188.799 151.3L69.2517 220.321L128.073 254.281L188.799 289.341L308.347 220.321ZM1792.87 77.2421L1673.32 8.21508L1553.76 77.242L1612.59 111.208L1673.32 146.269L1792.87 77.2421ZM1545.45 77.2421L1425.9 146.269L1365.17 111.208L1306.34 77.2421L1425.9 8.21512L1545.45 77.2421ZM1298.04 77.2421L1178.48 8.2154L1058.92 77.242L1117.75 111.208L1178.48 146.269L1298.04 77.2421ZM1050.62 77.2421L931.058 146.269L870.331 111.208L811.499 77.2421L931.058 8.21484L1050.62 77.2421ZM803.196 77.2421L683.639 146.269L622.912 111.208L564.081 77.242L683.639 8.21536L803.196 77.2421ZM555.778 77.242L436.219 8.21481L316.66 77.242L375.491 111.208L436.219 146.269L555.778 77.242ZM308.357 77.242L188.799 146.269L128.073 111.208L69.2418 77.242L188.799 8.21538L308.357 77.242ZM65.0902 74.7871L-54.5723 5.69994L65.0902 -63.3873L125.972 -28.2372L184.753 5.69994L65.0902 74.7871ZM312.509 74.7871L192.846 5.69994L312.509 -63.3873L373.391 -28.2372L432.171 5.69994L312.509 74.7871ZM440.267 5.69994L559.929 74.7871L679.592 5.69994L620.811 -28.2372L559.929 -63.3873L440.267 5.69994ZM807.348 74.7871L687.685 5.69994L807.348 -63.3873L868.23 -28.2372L927.01 5.69994L807.348 74.7871ZM935.106 5.69994L1054.77 74.7871L1174.43 5.69994L1115.65 -28.2372L1054.77 -63.3873L935.106 5.69994ZM1182.52 5.69994L1302.19 74.7871L1421.85 5.69994L1363.07 -28.2372L1302.19 -63.3873L1182.52 5.69994ZM1549.61 74.7871L1429.94 5.69994L1549.61 -63.3873L1610.49 -28.2372L1669.27 5.69994L1549.61 74.7871ZM1677.36 5.69994L1797.03 74.7871L1916.69 5.69994L1857.91 -28.2372L1797.03 -63.3873L1677.36 5.69994ZM65.0902 217.871L-54.5723 148.784L65.0902 79.6969L125.972 114.847L184.753 148.784L65.0902 217.871ZM192.846 148.784L312.509 217.871L432.171 148.784L373.391 114.847L312.509 79.6969L192.846 148.784ZM559.929 217.871L440.267 148.784L559.929 79.6969L620.811 114.847L679.592 148.784L559.929 217.871ZM687.685 148.784L807.348 217.871L927.01 148.784L868.23 114.847L807.348 79.697L687.685 148.784ZM1054.77 217.871L935.106 148.784L1054.77 79.6969L1115.65 114.847L1174.43 148.784L1054.77 217.871ZM1302.19 217.871L1182.52 148.784L1302.19 79.697L1363.07 114.847L1421.85 148.784L1302.19 217.871ZM1429.94 148.784L1549.61 217.871L1669.27 148.784L1610.49 114.847L1549.61 79.6969L1429.94 148.784ZM1797.03 217.871L1677.36 148.784L1797.03 79.697L1857.91 114.847L1916.69 148.784L1797.03 217.871ZM-54.5723 291.857L65.0902 360.944L184.753 291.857L125.972 257.92L65.0902 222.77L-54.5723 291.857ZM312.509 360.944L192.846 291.857L312.509 222.77L373.391 257.92L432.171 291.857L312.509 360.944ZM440.267 291.857L559.929 360.944L679.592 291.857L620.811 257.92L559.929 222.77L440.267 291.857ZM807.348 360.944L687.685 291.857L807.348 222.77L868.23 257.92L927.01 291.857L807.348 360.944ZM935.106 291.857L1054.77 360.944L1174.43 291.857L1115.65 257.92L1054.77 222.77L935.106 291.857ZM1182.52 291.857L1302.19 360.944L1421.85 291.857L1363.07 257.92L1302.19 222.77L1182.52 291.857ZM1549.61 360.944L1429.94 291.857L1549.61 222.77L1610.49 257.92L1669.27 291.857L1549.61 360.944ZM1677.36 291.857L1797.03 360.944L1916.69 291.857L1857.91 257.92L1797.03 222.77L1677.36 291.857ZM65.0902 504.04L-54.5723 434.953L65.0902 365.865L125.972 401.015L184.753 434.953L65.0902 504.04ZM192.846 434.953L312.509 504.04L432.171 434.953L373.391 401.015L312.509 365.865L192.846 434.953ZM559.929 504.04L440.267 434.953L559.929 365.865L620.811 401.015L679.592 434.953L559.929 504.04ZM687.685 434.953L807.348 504.04L927.01 434.953L868.23 401.015L807.348 365.865L687.685 434.953ZM1054.77 504.04L935.106 434.953L1054.77 365.865L1115.65 401.015L1174.43 434.953L1054.77 504.04ZM1302.19 504.04L1182.52 434.953L1302.19 365.865L1363.07 401.015L1421.85 434.953L1302.19 504.04ZM1429.94 434.953L1549.61 504.04L1669.27 434.953L1610.49 401.015L1549.61 365.865L1429.94 434.953ZM1797.03 504.04L1677.36 434.953L1797.03 365.865L1857.91 401.015L1916.69 434.953L1797.03 504.04ZM-54.5723 578.043L65.0902 647.13L184.753 578.043L125.972 544.106L65.0902 508.955L-54.5723 578.043ZM312.509 647.13L192.846 578.043L312.509 508.955L373.391 544.106L432.171 578.043L312.509 647.13ZM440.267 578.043L559.929 647.13L679.592 578.043L620.811 544.106L559.929 508.955L440.267 578.043ZM807.348 647.13L687.685 578.043L807.348 508.955L868.23 544.106L927.01 578.043L807.348 647.13ZM935.106 578.043L1054.77 647.13L1174.43 578.043L1115.65 544.106L1054.77 508.955L935.106 578.043ZM1182.52 578.043L1302.19 647.13L1421.85 578.043L1363.07 544.106L1302.19 508.955L1182.52 578.043ZM1549.61 647.13L1429.94 578.043L1549.61 508.955L1610.49 544.106L1669.27 578.043L1549.61 647.13ZM1677.36 578.043L1797.03 647.13L1916.69 578.043L1857.91 544.106L1797.03 508.955L1677.36 578.043ZM65.0902 790.214L-54.5723 721.127L65.0902 652.04L125.972 687.19L184.753 721.127L65.0902 790.214ZM192.846 721.127L312.509 790.214L432.171 721.127L373.391 687.19L312.509 652.04L192.846 721.127ZM559.929 790.214L440.267 721.127L559.929 652.04L620.811 687.19L679.592 721.127L559.929 790.214ZM687.685 721.127L807.348 790.214L927.01 721.127L868.23 687.19L807.348 652.04L687.685 721.127ZM1054.77 790.214L935.106 721.127L1054.77 652.04L1115.65 687.19L1174.43 721.127L1054.77 790.214ZM1302.19 790.214L1182.52 721.127L1302.19 652.04L1363.07 687.19L1421.85 721.127L1302.19 790.214ZM1429.94 721.127L1549.61 790.214L1669.27 721.127L1610.49 687.19L1549.61 652.04L1429.94 721.127ZM1797.03 790.214L1677.36 721.127L1797.03 652.04L1857.91 687.19L1916.69 721.127L1797.03 790.214ZM-54.5723 864.213L65.0902 933.301L184.753 864.213L125.972 830.276L65.0902 795.126L-54.5723 864.213ZM312.509 933.301L192.846 864.213L312.509 795.126L373.391 830.276L432.171 864.213L312.509 933.301ZM440.267 864.213L559.929 933.301L679.592 864.213L620.811 830.276L559.929 795.126L440.267 864.213ZM807.348 933.301L687.685 864.213L807.348 795.126L868.23 830.276L927.01 864.213L807.348 933.301ZM935.106 864.213L1054.77 933.301L1174.43 864.213L1115.65 830.276L1054.77 795.126L935.106 864.213ZM1182.52 864.213L1302.19 933.301L1421.85 864.213L1363.07 830.276L1302.19 795.126L1182.52 864.213ZM1549.61 933.301L1429.94 864.213L1549.61 795.126L1610.49 830.276L1669.27 864.213L1549.61 933.301ZM1677.36 864.213L1797.03 933.301L1916.69 864.213L1857.91 830.276L1797.03 795.126L1677.36 864.213ZM65.0902 1076.38L-54.5723 1007.3L65.0902 938.208L125.972 973.358L184.753 1007.3L65.0902 1076.38ZM192.846 1007.3L312.509 1076.38L432.171 1007.3L373.391 973.358L312.509 938.208L192.846 1007.3ZM559.929 1076.38L440.267 1007.3L559.929 938.208L620.811 973.358L679.592 1007.3L559.929 1076.38ZM687.685 1007.3L807.348 1076.38L927.01 1007.3L868.23 973.358L807.348 938.208L687.685 1007.3ZM1054.77 1076.38L935.106 1007.3L1054.77 938.208L1115.65 973.358L1174.43 1007.3L1054.77 1076.38ZM1302.19 1076.38L1182.52 1007.3L1302.19 938.208L1363.07 973.358L1421.85 1007.3L1302.19 1076.38ZM1429.94 1007.3L1549.61 1076.38L1669.27 1007.3L1610.49 973.358L1549.61 938.208L1429.94 1007.3ZM1797.03 1076.38L1677.36 1007.3L1797.03 938.208L1857.91 973.358L1916.69 1007.3L1797.03 1076.38Z" clip-rule="evenodd" fill-rule="evenodd"></path>
<rect fill="url(#paint1_linear_7080_3388)" height="1126" width="2023" y="-57" x="-76"></rect>
<path fill="white" d="M101.172 231.939C100.292 231.939 99.4884 231.725 98.7611 231.296C98.0338 230.859 97.4519 230.277 97.0155 229.55C96.5864 228.823 96.3718 228.019 96.3718 227.139C96.3718 226.252 96.5864 225.448 97.0155 224.728C97.4519 224.001 98.0338 223.422 98.7611 222.993C99.4884 222.557 100.292 222.339 101.172 222.339C102.059 222.339 102.863 222.557 103.583 222.993C104.311 223.422 104.889 224.001 105.318 224.728C105.754 225.448 105.973 226.252 105.973 227.139C105.973 228.019 105.754 228.823 105.318 229.55C104.889 230.277 104.311 230.859 103.583 231.296C102.863 231.725 102.059 231.939 101.172 231.939ZM145.218 220.964H141.814C141.683 220.237 141.44 219.597 141.083 219.044C140.727 218.491 140.29 218.022 139.774 217.637C139.258 217.251 138.679 216.96 138.039 216.764C137.407 216.567 136.734 216.469 136.021 216.469C134.734 216.469 133.581 216.793 132.563 217.44C131.552 218.087 130.752 219.037 130.162 220.288C129.581 221.539 129.29 223.066 129.29 224.87C129.29 226.688 129.581 228.223 130.162 229.474C130.752 230.725 131.555 231.67 132.574 232.31C133.592 232.95 134.737 233.27 136.01 233.27C136.716 233.27 137.385 233.176 138.018 232.987C138.658 232.79 139.236 232.503 139.752 232.125C140.269 231.747 140.705 231.285 141.061 230.739C141.425 230.187 141.676 229.554 141.814 228.841L145.218 228.852C145.036 229.95 144.683 230.961 144.16 231.885C143.643 232.801 142.978 233.594 142.163 234.263C141.356 234.925 140.432 235.438 139.392 235.801C138.352 236.165 137.217 236.347 135.988 236.347C134.054 236.347 132.33 235.889 130.817 234.972C129.304 234.049 128.111 232.729 127.239 231.012C126.373 229.296 125.94 227.248 125.94 224.87C125.94 222.484 126.377 220.437 127.249 218.728C128.122 217.011 129.315 215.695 130.828 214.778C132.341 213.854 134.061 213.393 135.988 213.393C137.174 213.393 138.279 213.564 139.305 213.905C140.338 214.24 141.265 214.735 142.087 215.389C142.909 216.036 143.589 216.829 144.127 217.767C144.665 218.698 145.029 219.764 145.218 220.964ZM149.252 236.042V213.698H157.216C158.947 213.698 160.384 213.996 161.526 214.593C162.675 215.189 163.533 216.015 164.1 217.069C164.668 218.117 164.951 219.328 164.951 220.702C164.951 222.07 164.664 223.273 164.089 224.313C163.522 225.346 162.664 226.15 161.515 226.724C160.373 227.299 158.936 227.586 157.205 227.586H151.172V224.684H156.9C157.991 224.684 158.878 224.528 159.562 224.215C160.253 223.902 160.758 223.448 161.078 222.851C161.398 222.255 161.558 221.539 161.558 220.702C161.558 219.859 161.395 219.128 161.067 218.509C160.747 217.891 160.242 217.418 159.551 217.091C158.867 216.756 157.969 216.589 156.856 216.589H152.623V236.042H149.252ZM160.282 225.961L165.802 236.042H161.962L156.551 225.961H160.282ZM183.422 213.698H186.804V228.394C186.804 229.957 186.436 231.343 185.702 232.55C184.967 233.75 183.934 234.696 182.603 235.387C181.272 236.071 179.712 236.412 177.923 236.412C176.141 236.412 174.585 236.071 173.254 235.387C171.923 234.696 170.89 233.75 170.155 232.55C169.421 231.343 169.053 229.957 169.053 228.394V213.698H172.425V228.121C172.425 229.132 172.646 230.03 173.09 230.816C173.541 231.601 174.177 232.219 174.999 232.67C175.821 233.114 176.796 233.336 177.923 233.336C179.058 233.336 180.036 233.114 180.858 232.67C181.687 232.219 182.32 231.601 182.756 230.816C183.2 230.03 183.422 229.132 183.422 228.121V213.698ZM198.938 236.042H191.705V213.698H199.167C201.357 213.698 203.237 214.145 204.808 215.04C206.379 215.927 207.583 217.204 208.419 218.869C209.263 220.528 209.685 222.517 209.685 224.837C209.685 227.164 209.259 229.165 208.408 230.837C207.564 232.51 206.342 233.798 204.742 234.7C203.142 235.594 201.208 236.042 198.938 236.042ZM195.076 233.096H198.753C200.455 233.096 201.869 232.776 202.997 232.136C204.124 231.488 204.968 230.554 205.528 229.332C206.088 228.103 206.368 226.604 206.368 224.837C206.368 223.084 206.088 221.597 205.528 220.375C204.975 219.153 204.15 218.226 203.051 217.593C201.953 216.96 200.589 216.644 198.96 216.644H195.076V233.096ZM101.172 275.939C100.292 275.939 99.4884 275.725 98.7611 275.296C98.0338 274.859 97.4519 274.277 97.0155 273.55C96.5864 272.823 96.3718 272.019 96.3718 271.139C96.3718 270.252 96.5864 269.448 97.0155 268.728C97.4519 268.001 98.0338 267.422 98.7611 266.993C99.4884 266.557 100.292 266.339 101.172 266.339C102.059 266.339 102.863 266.557 103.583 266.993C104.311 267.422 104.889 268.001 105.318 268.728C105.754 269.448 105.973 270.252 105.973 271.139C105.973 272.019 105.754 272.823 105.318 273.55C104.889 274.277 104.311 274.859 103.583 275.296C102.863 275.725 102.059 275.939 101.172 275.939ZM126.66 280.042V257.698H140.516V260.6H130.032V267.408H139.523V270.299H130.032V280.042H126.66ZM144.4 280.042V263.284H147.662V280.042H144.4ZM146.047 260.698C145.48 260.698 144.993 260.509 144.585 260.131C144.185 259.745 143.985 259.287 143.985 258.756C143.985 258.218 144.185 257.76 144.585 257.382C144.993 256.996 145.48 256.803 146.047 256.803C146.615 256.803 147.098 256.996 147.498 257.382C147.906 257.76 148.109 258.218 148.109 258.756C148.109 259.287 147.906 259.745 147.498 260.131C147.098 260.509 146.615 260.698 146.047 260.698ZM155.312 257.698V280.042H152.05V257.698H155.312ZM167.523 263.284V265.902H158.37V263.284H167.523ZM160.825 259.269H164.087V275.121C164.087 275.754 164.181 276.23 164.37 276.55C164.559 276.863 164.803 277.078 165.101 277.194C165.407 277.303 165.738 277.358 166.094 277.358C166.356 277.358 166.585 277.339 166.781 277.303C166.978 277.267 167.131 277.238 167.24 277.216L167.829 279.911C167.64 279.983 167.371 280.056 167.021 280.129C166.672 280.209 166.236 280.252 165.712 280.26C164.854 280.274 164.054 280.122 163.312 279.801C162.57 279.481 161.97 278.987 161.512 278.318C161.054 277.649 160.825 276.809 160.825 275.798V259.269ZM178.174 280.38C176.523 280.38 175.101 280.027 173.908 279.321C172.723 278.609 171.806 277.609 171.159 276.321C170.519 275.027 170.199 273.51 170.199 271.772C170.199 270.055 170.519 268.542 171.159 267.233C171.806 265.924 172.708 264.902 173.865 264.168C175.028 263.433 176.388 263.066 177.945 263.066C178.89 263.066 179.807 263.222 180.694 263.535C181.582 263.848 182.378 264.339 183.084 265.008C183.789 265.677 184.345 266.546 184.753 267.615C185.16 268.677 185.364 269.968 185.364 271.488V272.645H172.043V270.201H182.167C182.167 269.343 181.993 268.582 181.643 267.921C181.294 267.251 180.803 266.724 180.171 266.339C179.545 265.953 178.81 265.76 177.967 265.76C177.05 265.76 176.25 265.986 175.567 266.437C174.89 266.881 174.367 267.462 173.996 268.182C173.632 268.895 173.45 269.67 173.45 270.506V272.415C173.45 273.536 173.646 274.488 174.039 275.274C174.439 276.059 174.996 276.659 175.708 277.074C176.421 277.481 177.254 277.685 178.207 277.685C178.825 277.685 179.389 277.598 179.898 277.423C180.407 277.241 180.847 276.972 181.218 276.616C181.589 276.259 181.873 275.819 182.069 275.296L185.156 275.852C184.909 276.761 184.465 277.558 183.825 278.241C183.193 278.918 182.396 279.445 181.436 279.823C180.483 280.194 179.396 280.38 178.174 280.38ZM188.983 280.042V263.284H192.136V265.946H192.311C192.616 265.044 193.154 264.335 193.925 263.819C194.703 263.295 195.584 263.033 196.565 263.033C196.769 263.033 197.009 263.04 197.285 263.055C197.569 263.069 197.791 263.088 197.951 263.109V266.23C197.82 266.193 197.587 266.153 197.253 266.11C196.918 266.059 196.584 266.033 196.249 266.033C195.478 266.033 194.791 266.197 194.187 266.524C193.591 266.844 193.118 267.291 192.769 267.866C192.42 268.433 192.245 269.081 192.245 269.808V280.042H188.983ZM200.774 280.042V263.284H204.036V280.042H200.774ZM202.421 260.698C201.854 260.698 201.367 260.509 200.959 260.131C200.559 259.745 200.359 259.287 200.359 258.756C200.359 258.218 200.559 257.76 200.959 257.382C201.367 256.996 201.854 256.803 202.421 256.803C202.989 256.803 203.472 256.996 203.872 257.382C204.28 257.76 204.483 258.218 204.483 258.756C204.483 259.287 204.28 259.745 203.872 260.131C203.472 260.509 202.989 260.698 202.421 260.698ZM211.687 270.092V280.042H208.424V263.284H211.556V266.011H211.763C212.148 265.124 212.752 264.411 213.574 263.873C214.403 263.335 215.447 263.066 216.705 263.066C217.847 263.066 218.847 263.306 219.705 263.786C220.564 264.259 221.229 264.964 221.702 265.902C222.175 266.841 222.411 268.001 222.411 269.383V280.042H219.149V269.775C219.149 268.561 218.832 267.612 218.2 266.928C217.567 266.237 216.698 265.891 215.592 265.891C214.836 265.891 214.163 266.055 213.574 266.382C212.992 266.71 212.53 267.19 212.188 267.822C211.854 268.448 211.687 269.204 211.687 270.092ZM233.812 286.675C232.481 286.675 231.335 286.5 230.375 286.151C229.422 285.802 228.644 285.34 228.04 284.765C227.437 284.191 226.986 283.562 226.688 282.878L229.491 281.722C229.688 282.042 229.95 282.38 230.277 282.736C230.611 283.1 231.062 283.409 231.63 283.664C232.204 283.918 232.943 284.045 233.844 284.045C235.081 284.045 236.103 283.744 236.91 283.14C237.717 282.544 238.121 281.591 238.121 280.282V276.987H237.914C237.717 277.343 237.434 277.74 237.063 278.176C236.699 278.612 236.197 278.991 235.557 279.311C234.917 279.631 234.084 279.791 233.059 279.791C231.735 279.791 230.542 279.481 229.481 278.863C228.426 278.238 227.589 277.318 226.971 276.103C226.36 274.881 226.055 273.379 226.055 271.597C226.055 269.815 226.357 268.288 226.96 267.015C227.571 265.742 228.408 264.768 229.47 264.091C230.531 263.408 231.735 263.066 233.081 263.066C234.121 263.066 234.961 263.24 235.601 263.589C236.241 263.931 236.739 264.331 237.096 264.789C237.459 265.248 237.739 265.651 237.936 266H238.176V263.284H241.372V280.412C241.372 281.853 241.038 283.034 240.369 283.958C239.699 284.882 238.794 285.566 237.652 286.009C236.517 286.453 235.237 286.675 233.812 286.675ZM233.779 277.085C234.717 277.085 235.51 276.867 236.157 276.43C236.812 275.987 237.307 275.354 237.641 274.532C237.983 273.703 238.154 272.71 238.154 271.554C238.154 270.426 237.987 269.433 237.652 268.575C237.317 267.717 236.826 267.048 236.179 266.568C235.532 266.08 234.732 265.837 233.779 265.837C232.797 265.837 231.979 266.091 231.324 266.601C230.67 267.102 230.175 267.786 229.841 268.652C229.513 269.517 229.35 270.484 229.35 271.554C229.35 272.652 229.517 273.616 229.851 274.445C230.186 275.274 230.681 275.921 231.335 276.387C231.997 276.852 232.812 277.085 233.779 277.085ZM260.38 280.358C258.882 280.358 257.591 280.085 256.507 279.54C255.431 278.994 254.601 278.252 254.02 277.314C253.438 276.369 253.147 275.299 253.147 274.107C253.147 273.197 253.336 272.39 253.714 271.685C254.092 270.972 254.62 270.314 255.296 269.71C255.972 269.106 256.754 268.499 257.642 267.888L261.242 265.346C261.853 264.946 262.329 264.524 262.671 264.08C263.013 263.629 263.184 263.073 263.184 262.411C263.184 261.887 262.958 261.386 262.507 260.906C262.057 260.426 261.453 260.186 260.696 260.186C260.173 260.186 259.711 260.313 259.311 260.567C258.918 260.822 258.609 261.149 258.384 261.549C258.165 261.942 258.056 262.357 258.056 262.793C258.056 263.302 258.194 263.815 258.471 264.331C258.754 264.848 259.118 265.382 259.562 265.935C260.005 266.481 260.471 267.048 260.958 267.637L271.334 280.042H267.646L259.06 269.95C258.34 269.099 257.671 268.299 257.053 267.55C256.434 266.793 255.932 266.03 255.547 265.259C255.169 264.48 254.98 263.64 254.98 262.738C254.98 261.713 255.212 260.804 255.678 260.011C256.151 259.211 256.809 258.585 257.653 258.134C258.496 257.684 259.485 257.458 260.62 257.458C261.769 257.458 262.755 257.684 263.577 258.134C264.406 258.578 265.042 259.171 265.486 259.913C265.937 260.647 266.162 261.451 266.162 262.324C266.162 263.386 265.897 264.324 265.366 265.139C264.842 265.946 264.118 266.688 263.195 267.364L258.711 270.67C257.838 271.31 257.231 271.943 256.889 272.568C256.554 273.186 256.387 273.67 256.387 274.019C256.387 274.659 256.551 275.252 256.878 275.798C257.213 276.343 257.678 276.779 258.274 277.107C258.878 277.434 259.584 277.598 260.391 277.598C261.22 277.598 262.027 277.419 262.813 277.063C263.606 276.699 264.322 276.179 264.962 275.503C265.609 274.827 266.122 274.016 266.5 273.07C266.879 272.125 267.068 271.066 267.068 269.895H270.013C270.013 271.335 269.85 272.554 269.522 273.55C269.195 274.539 268.799 275.347 268.333 275.972C267.875 276.59 267.442 277.074 267.035 277.423C266.904 277.54 266.78 277.656 266.664 277.772C266.548 277.889 266.424 278.005 266.293 278.121C265.537 278.885 264.62 279.449 263.544 279.812C262.475 280.176 261.42 280.358 260.38 280.358ZM294.468 263.568C294.352 262.535 293.872 261.735 293.028 261.167C292.184 260.593 291.122 260.306 289.842 260.306C288.926 260.306 288.133 260.451 287.464 260.742C286.795 261.026 286.275 261.418 285.904 261.92C285.54 262.415 285.358 262.978 285.358 263.611C285.358 264.142 285.482 264.6 285.729 264.986C285.984 265.371 286.315 265.695 286.722 265.957C287.136 266.211 287.58 266.426 288.053 266.601C288.526 266.768 288.98 266.906 289.417 267.015L291.599 267.582C292.311 267.757 293.042 267.993 293.792 268.292C294.541 268.59 295.235 268.983 295.875 269.47C296.515 269.957 297.032 270.561 297.425 271.281C297.825 272.001 298.025 272.863 298.025 273.867C298.025 275.132 297.697 276.256 297.043 277.238C296.395 278.22 295.453 278.994 294.217 279.561C292.988 280.129 291.5 280.412 289.755 280.412C288.082 280.412 286.635 280.147 285.413 279.616C284.191 279.085 283.234 278.332 282.543 277.358C281.852 276.376 281.471 275.212 281.398 273.867H284.78C284.845 274.674 285.107 275.347 285.565 275.885C286.031 276.416 286.624 276.812 287.344 277.074C288.071 277.329 288.868 277.456 289.733 277.456C290.686 277.456 291.533 277.307 292.275 277.009C293.024 276.703 293.613 276.281 294.042 275.743C294.472 275.198 294.686 274.561 294.686 273.834C294.686 273.172 294.497 272.63 294.119 272.208C293.748 271.786 293.242 271.437 292.602 271.161C291.97 270.884 291.253 270.641 290.453 270.43L287.813 269.71C286.024 269.223 284.605 268.506 283.558 267.561C282.518 266.615 281.998 265.364 281.998 263.808C281.998 262.52 282.347 261.397 283.045 260.436C283.744 259.476 284.689 258.731 285.882 258.2C287.075 257.662 288.42 257.393 289.919 257.393C291.431 257.393 292.766 257.658 293.922 258.189C295.086 258.72 296.003 259.451 296.672 260.382C297.341 261.306 297.69 262.367 297.719 263.568H294.468ZM308.85 280.38C307.279 280.38 305.908 280.02 304.737 279.3C303.566 278.58 302.657 277.572 302.009 276.278C301.362 274.983 301.038 273.47 301.038 271.739C301.038 270.001 301.362 268.481 302.009 267.179C302.657 265.877 303.566 264.866 304.737 264.146C305.908 263.426 307.279 263.066 308.85 263.066C310.421 263.066 311.792 263.426 312.963 264.146C314.134 264.866 315.043 265.877 315.69 267.179C316.338 268.481 316.661 270.001 316.661 271.739C316.661 273.47 316.338 274.983 315.69 276.278C315.043 277.572 314.134 278.58 312.963 279.3C311.792 280.02 310.421 280.38 308.85 280.38ZM308.861 277.641C309.879 277.641 310.723 277.372 311.392 276.834C312.061 276.296 312.556 275.579 312.876 274.685C313.203 273.79 313.367 272.805 313.367 271.728C313.367 270.659 313.203 269.677 312.876 268.783C312.556 267.881 312.061 267.157 311.392 266.611C310.723 266.066 309.879 265.793 308.861 265.793C307.835 265.793 306.984 266.066 306.308 266.611C305.639 267.157 305.141 267.881 304.813 268.783C304.493 269.677 304.333 270.659 304.333 271.728C304.333 272.805 304.493 273.79 304.813 274.685C305.141 275.579 305.639 276.296 306.308 276.834C306.984 277.372 307.835 277.641 308.861 277.641ZM320.303 280.042V263.284H323.455V265.946H323.63C323.936 265.044 324.474 264.335 325.245 263.819C326.023 263.295 326.903 263.033 327.885 263.033C328.089 263.033 328.329 263.04 328.605 263.055C328.889 263.069 329.11 263.088 329.27 263.109V266.23C329.14 266.193 328.907 266.153 328.572 266.11C328.238 266.059 327.903 266.033 327.568 266.033C326.798 266.033 326.11 266.197 325.507 266.524C324.91 266.844 324.437 267.291 324.088 267.866C323.739 268.433 323.565 269.081 323.565 269.808V280.042H320.303ZM340.906 263.284V265.902H331.752V263.284H340.906ZM334.207 259.269H337.469V275.121C337.469 275.754 337.564 276.23 337.753 276.55C337.942 276.863 338.186 277.078 338.484 277.194C338.789 277.303 339.12 277.358 339.477 277.358C339.738 277.358 339.968 277.339 340.164 277.303C340.36 277.267 340.513 277.238 340.622 277.216L341.211 279.911C341.022 279.983 340.753 280.056 340.404 280.129C340.055 280.209 339.618 280.252 339.095 280.26C338.237 280.274 337.436 280.122 336.695 279.801C335.953 279.481 335.353 278.987 334.894 278.318C334.436 277.649 334.207 276.809 334.207 275.798V259.269ZM344.514 280.042V263.284H347.776V280.042H344.514ZM346.162 260.698C345.594 260.698 345.107 260.509 344.7 260.131C344.3 259.745 344.1 259.287 344.1 258.756C344.1 258.218 344.3 257.76 344.7 257.382C345.107 256.996 345.594 256.803 346.162 256.803C346.729 256.803 347.213 256.996 347.613 257.382C348.02 257.76 348.224 258.218 348.224 258.756C348.224 259.287 348.02 259.745 347.613 260.131C347.213 260.509 346.729 260.698 346.162 260.698ZM355.427 270.092V280.042H352.165V263.284H355.296V266.011H355.503C355.889 265.124 356.492 264.411 357.314 263.873C358.143 263.335 359.187 263.066 360.445 263.066C361.587 263.066 362.587 263.306 363.446 263.786C364.304 264.259 364.969 264.964 365.442 265.902C365.915 266.841 366.151 268.001 366.151 269.383V280.042H362.889V269.775C362.889 268.561 362.573 267.612 361.94 266.928C361.307 266.237 360.438 265.891 359.333 265.891C358.576 265.891 357.903 266.055 357.314 266.382C356.732 266.71 356.271 267.19 355.929 267.822C355.594 268.448 355.427 269.204 355.427 270.092ZM377.552 286.675C376.221 286.675 375.076 286.5 374.115 286.151C373.163 285.802 372.384 285.34 371.781 284.765C371.177 284.191 370.726 283.562 370.428 282.878L373.232 281.722C373.428 282.042 373.69 282.38 374.017 282.736C374.352 283.1 374.803 283.409 375.37 283.664C375.945 283.918 376.683 284.045 377.585 284.045C378.821 284.045 379.843 283.744 380.651 283.14C381.458 282.544 381.862 281.591 381.862 280.282V276.987H381.654C381.458 277.343 381.174 277.74 380.803 278.176C380.44 278.612 379.938 278.991 379.298 279.311C378.658 279.631 377.825 279.791 376.799 279.791C375.476 279.791 374.283 279.481 373.221 278.863C372.166 278.238 371.33 277.318 370.712 276.103C370.101 274.881 369.795 273.379 369.795 271.597C369.795 269.815 370.097 268.288 370.701 267.015C371.312 265.742 372.148 264.768 373.21 264.091C374.272 263.408 375.476 263.066 376.821 263.066C377.861 263.066 378.701 263.24 379.341 263.589C379.981 263.931 380.48 264.331 380.836 264.789C381.2 265.248 381.48 265.651 381.676 266H381.916V263.284H385.113V280.412C385.113 281.853 384.778 283.034 384.109 283.958C383.44 284.882 382.534 285.566 381.392 286.009C380.258 286.453 378.978 286.675 377.552 286.675ZM377.519 277.085C378.458 277.085 379.25 276.867 379.898 276.43C380.552 275.987 381.047 275.354 381.381 274.532C381.723 273.703 381.894 272.71 381.894 271.554C381.894 270.426 381.727 269.433 381.392 268.575C381.058 267.717 380.567 267.048 379.92 266.568C379.272 266.08 378.472 265.837 377.519 265.837C376.537 265.837 375.719 266.091 375.065 266.601C374.41 267.102 373.915 267.786 373.581 268.652C373.254 269.517 373.09 270.484 373.09 271.554C373.09 272.652 373.257 273.616 373.592 274.445C373.926 275.274 374.421 275.921 375.076 276.387C375.737 276.852 376.552 277.085 377.519 277.085ZM101.172 319.939C100.292 319.939 99.4884 319.725 98.7611 319.296C98.0338 318.859 97.4519 318.277 97.0155 317.55C96.5864 316.823 96.3718 316.019 96.3718 315.139C96.3718 314.252 96.5864 313.448 97.0155 312.728C97.4519 312.001 98.0338 311.422 98.7611 310.993C99.4884 310.557 100.292 310.339 101.172 310.339C102.059 310.339 102.863 310.557 103.583 310.993C104.311 311.422 104.889 312.001 105.318 312.728C105.754 313.448 105.973 314.252 105.973 315.139C105.973 316.019 105.754 316.823 105.318 317.55C104.889 318.277 104.311 318.859 103.583 319.296C102.863 319.725 102.059 319.939 101.172 319.939ZM128.548 324.042H124.969L133.01 301.698H136.905L144.945 324.042H141.367L135.05 305.757H134.876L128.548 324.042ZM129.148 315.292H140.756V318.128H129.148V315.292ZM153.913 324.369C152.56 324.369 151.353 324.023 150.291 323.332C149.237 322.634 148.407 321.641 147.804 320.354C147.207 319.059 146.909 317.506 146.909 315.695C146.909 313.884 147.211 312.335 147.815 311.048C148.426 309.76 149.262 308.775 150.324 308.091C151.386 307.408 152.59 307.066 153.935 307.066C154.975 307.066 155.812 307.24 156.444 307.589C157.084 307.931 157.579 308.331 157.928 308.789C158.284 309.248 158.561 309.651 158.757 310H158.954V301.698H162.216V324.042H159.03V321.434H158.757C158.561 321.79 158.277 322.198 157.906 322.656C157.543 323.114 157.041 323.514 156.401 323.856C155.761 324.198 154.931 324.369 153.913 324.369ZM154.633 321.587C155.572 321.587 156.364 321.339 157.012 320.845C157.666 320.343 158.161 319.648 158.495 318.761C158.837 317.874 159.008 316.841 159.008 315.663C159.008 314.499 158.841 313.481 158.506 312.608C158.172 311.735 157.681 311.055 157.033 310.568C156.386 310.08 155.586 309.837 154.633 309.837C153.651 309.837 152.833 310.091 152.179 310.601C151.524 311.11 151.029 311.804 150.695 312.684C150.368 313.564 150.204 314.557 150.204 315.663C150.204 316.783 150.371 317.79 150.706 318.685C151.04 319.579 151.535 320.289 152.189 320.812C152.851 321.329 153.666 321.587 154.633 321.587ZM181.207 307.284L175.13 324.042H171.639L165.551 307.284H169.053L173.297 320.179H173.472L177.705 307.284H181.207ZM188.669 324.412C187.607 324.412 186.647 324.216 185.789 323.823C184.931 323.423 184.251 322.845 183.749 322.089C183.254 321.332 183.007 320.405 183.007 319.307C183.007 318.361 183.189 317.583 183.553 316.972C183.916 316.361 184.407 315.877 185.025 315.521C185.644 315.164 186.335 314.895 187.098 314.714C187.862 314.532 188.64 314.394 189.433 314.299C190.437 314.183 191.251 314.088 191.877 314.015C192.502 313.935 192.957 313.808 193.241 313.633C193.524 313.459 193.666 313.175 193.666 312.783V312.706C193.666 311.753 193.397 311.015 192.859 310.491C192.328 309.968 191.535 309.706 190.48 309.706C189.382 309.706 188.517 309.95 187.884 310.437C187.258 310.917 186.826 311.452 186.586 312.041L183.52 311.342C183.884 310.324 184.415 309.502 185.113 308.877C185.818 308.244 186.629 307.786 187.546 307.502C188.462 307.211 189.426 307.066 190.437 307.066C191.106 307.066 191.815 307.146 192.564 307.306C193.321 307.458 194.026 307.742 194.681 308.157C195.343 308.571 195.884 309.164 196.306 309.935C196.728 310.699 196.939 311.692 196.939 312.913V324.042H193.753V321.75H193.622C193.412 322.172 193.095 322.587 192.673 322.994C192.251 323.401 191.71 323.74 191.048 324.009C190.386 324.278 189.593 324.412 188.669 324.412ZM189.379 321.794C190.28 321.794 191.051 321.616 191.691 321.259C192.339 320.903 192.83 320.438 193.164 319.863C193.506 319.281 193.677 318.659 193.677 317.997V315.837C193.561 315.954 193.335 316.063 193.001 316.165C192.673 316.259 192.299 316.343 191.877 316.415C191.455 316.481 191.044 316.543 190.644 316.601C190.244 316.652 189.909 316.696 189.64 316.732C189.008 316.812 188.429 316.946 187.906 317.136C187.389 317.325 186.975 317.597 186.662 317.954C186.356 318.303 186.204 318.768 186.204 319.35C186.204 320.158 186.502 320.769 187.098 321.183C187.695 321.59 188.455 321.794 189.379 321.794ZM204.546 314.092V324.042H201.284V307.284H204.415V310.011H204.622C205.008 309.124 205.612 308.411 206.433 307.873C207.263 307.335 208.306 307.066 209.565 307.066C210.706 307.066 211.707 307.306 212.565 307.786C213.423 308.259 214.088 308.964 214.561 309.902C215.034 310.841 215.27 312.001 215.27 313.383V324.042H212.008V313.775C212.008 312.561 211.692 311.612 211.059 310.928C210.426 310.237 209.557 309.891 208.452 309.891C207.695 309.891 207.023 310.055 206.433 310.382C205.852 310.71 205.39 311.19 205.048 311.822C204.713 312.448 204.546 313.204 204.546 314.092ZM226.704 324.38C225.082 324.38 223.686 324.012 222.515 323.278C221.351 322.536 220.456 321.514 219.831 320.212C219.205 318.91 218.892 317.419 218.892 315.739C218.892 314.037 219.213 312.535 219.853 311.233C220.493 309.924 221.394 308.902 222.558 308.168C223.722 307.433 225.093 307.066 226.671 307.066C227.944 307.066 229.079 307.302 230.075 307.775C231.072 308.24 231.875 308.895 232.486 309.739C233.104 310.582 233.472 311.568 233.588 312.695H230.413C230.239 311.91 229.839 311.233 229.213 310.666C228.595 310.099 227.766 309.815 226.726 309.815C225.817 309.815 225.02 310.055 224.337 310.535C223.66 311.008 223.133 311.684 222.755 312.564C222.376 313.437 222.187 314.47 222.187 315.663C222.187 316.885 222.373 317.939 222.744 318.827C223.115 319.714 223.638 320.401 224.315 320.889C224.998 321.376 225.802 321.62 226.726 321.62C227.344 321.62 227.904 321.507 228.406 321.281C228.915 321.049 229.341 320.718 229.682 320.289C230.031 319.859 230.275 319.343 230.413 318.739H233.588C233.472 319.823 233.119 320.79 232.53 321.641C231.941 322.492 231.152 323.161 230.162 323.649C229.18 324.136 228.028 324.38 226.704 324.38ZM244.299 324.38C242.648 324.38 241.226 324.027 240.033 323.321C238.848 322.609 237.931 321.609 237.284 320.321C236.644 319.027 236.324 317.51 236.324 315.772C236.324 314.055 236.644 312.542 237.284 311.233C237.931 309.924 238.833 308.902 239.989 308.168C241.153 307.433 242.513 307.066 244.07 307.066C245.015 307.066 245.932 307.222 246.819 307.535C247.706 307.848 248.503 308.339 249.208 309.008C249.914 309.677 250.47 310.546 250.878 311.615C251.285 312.677 251.488 313.968 251.488 315.488V316.645H238.168V314.201H248.292C248.292 313.343 248.117 312.582 247.768 311.921C247.419 311.251 246.928 310.724 246.295 310.339C245.67 309.953 244.935 309.76 244.092 309.76C243.175 309.76 242.375 309.986 241.691 310.437C241.015 310.881 240.491 311.462 240.12 312.182C239.757 312.895 239.575 313.67 239.575 314.506V316.415C239.575 317.536 239.771 318.488 240.164 319.274C240.564 320.059 241.12 320.659 241.833 321.074C242.546 321.481 243.379 321.685 244.332 321.685C244.95 321.685 245.513 321.598 246.023 321.423C246.532 321.241 246.972 320.972 247.343 320.616C247.714 320.259 247.997 319.819 248.194 319.296L251.281 319.852C251.034 320.761 250.59 321.558 249.95 322.241C249.317 322.918 248.521 323.445 247.561 323.823C246.608 324.194 245.521 324.38 244.299 324.38ZM261.381 324.369C260.028 324.369 258.821 324.023 257.759 323.332C256.704 322.634 255.875 321.641 255.271 320.354C254.675 319.059 254.377 317.506 254.377 315.695C254.377 313.884 254.679 312.335 255.282 311.048C255.893 309.76 256.73 308.775 257.792 308.091C258.854 307.408 260.057 307.066 261.403 307.066C262.443 307.066 263.279 307.24 263.912 307.589C264.552 307.931 265.047 308.331 265.396 308.789C265.752 309.248 266.029 309.651 266.225 310H266.421V301.698H269.683V324.042H266.498V321.434H266.225C266.029 321.79 265.745 322.198 265.374 322.656C265.01 323.114 264.508 323.514 263.868 323.856C263.228 324.198 262.399 324.369 261.381 324.369ZM262.101 321.587C263.039 321.587 263.832 321.339 264.479 320.845C265.134 320.343 265.629 319.648 265.963 318.761C266.305 317.874 266.476 316.841 266.476 315.663C266.476 314.499 266.309 313.481 265.974 312.608C265.639 311.735 265.149 311.055 264.501 310.568C263.854 310.08 263.054 309.837 262.101 309.837C261.119 309.837 260.301 310.091 259.646 310.601C258.992 311.11 258.497 311.804 258.163 312.684C257.835 313.564 257.672 314.557 257.672 315.663C257.672 316.783 257.839 317.79 258.173 318.685C258.508 319.579 259.003 320.289 259.657 320.812C260.319 321.329 261.134 321.587 262.101 321.587ZM282.732 324.042V301.698H290.696C292.427 301.698 293.863 301.996 295.005 302.593C296.154 303.189 297.013 304.015 297.58 305.069C298.147 306.117 298.431 307.328 298.431 308.702C298.431 310.07 298.144 311.273 297.569 312.313C297.002 313.346 296.144 314.15 294.994 314.724C293.852 315.299 292.416 315.586 290.685 315.586H284.652V312.684H290.379C291.47 312.684 292.358 312.528 293.041 312.215C293.732 311.902 294.238 311.448 294.558 310.851C294.878 310.255 295.038 309.539 295.038 308.702C295.038 307.859 294.874 307.128 294.547 306.509C294.227 305.891 293.722 305.418 293.031 305.091C292.347 304.756 291.449 304.589 290.336 304.589H286.103V324.042H282.732ZM293.762 313.961L299.282 324.042H295.442L290.03 313.961H293.762ZM309.12 324.38C307.549 324.38 306.178 324.02 305.007 323.3C303.836 322.58 302.927 321.572 302.279 320.278C301.632 318.983 301.308 317.47 301.308 315.739C301.308 314.001 301.632 312.481 302.279 311.179C302.927 309.877 303.836 308.866 305.007 308.146C306.178 307.426 307.549 307.066 309.12 307.066C310.691 307.066 312.062 307.426 313.233 308.146C314.404 308.866 315.313 309.877 315.96 311.179C316.608 312.481 316.931 314.001 316.931 315.739C316.931 317.47 316.608 318.983 315.96 320.278C315.313 321.572 314.404 322.58 313.233 323.3C312.062 324.02 310.691 324.38 309.12 324.38ZM309.131 321.641C310.149 321.641 310.993 321.372 311.662 320.834C312.331 320.296 312.826 319.579 313.146 318.685C313.473 317.79 313.637 316.805 313.637 315.728C313.637 314.659 313.473 313.677 313.146 312.783C312.826 311.881 312.331 311.157 311.662 310.611C310.993 310.066 310.149 309.793 309.131 309.793C308.105 309.793 307.254 310.066 306.578 310.611C305.909 311.157 305.411 311.881 305.083 312.783C304.763 313.677 304.603 314.659 304.603 315.728C304.603 316.805 304.763 317.79 305.083 318.685C305.411 319.579 305.909 320.296 306.578 320.834C307.254 321.372 308.105 321.641 309.131 321.641ZM331.188 317.092V307.284H334.461V324.042H331.253V321.139H331.079C330.693 322.034 330.075 322.78 329.224 323.376C328.38 323.965 327.329 324.26 326.071 324.26C324.995 324.26 324.042 324.023 323.213 323.551C322.391 323.071 321.744 322.361 321.271 321.423C320.805 320.485 320.573 319.325 320.573 317.943V307.284H323.835V317.55C323.835 318.692 324.151 319.601 324.784 320.278C325.417 320.954 326.238 321.292 327.249 321.292C327.86 321.292 328.468 321.139 329.071 320.834C329.682 320.529 330.188 320.067 330.588 319.448C330.995 318.83 331.195 318.045 331.188 317.092ZM346.666 307.284V309.902H337.513V307.284H346.666ZM339.968 303.269H343.23V319.121C343.23 319.754 343.324 320.23 343.513 320.55C343.702 320.863 343.946 321.078 344.244 321.194C344.55 321.303 344.881 321.358 345.237 321.358C345.499 321.358 345.728 321.339 345.924 321.303C346.121 321.267 346.273 321.238 346.383 321.216L346.972 323.911C346.783 323.983 346.514 324.056 346.164 324.129C345.815 324.209 345.379 324.252 344.855 324.26C343.997 324.274 343.197 324.122 342.455 323.801C341.713 323.481 341.113 322.987 340.655 322.318C340.197 321.649 339.968 320.809 339.968 319.798V303.269ZM350.275 324.042V307.284H353.537V324.042H350.275ZM351.922 304.698C351.355 304.698 350.867 304.509 350.46 304.131C350.06 303.745 349.86 303.287 349.86 302.756C349.86 302.218 350.06 301.76 350.46 301.382C350.867 300.996 351.355 300.803 351.922 300.803C352.489 300.803 352.973 300.996 353.373 301.382C353.78 301.76 353.984 302.218 353.984 302.756C353.984 303.287 353.78 303.745 353.373 304.131C352.973 304.509 352.489 304.698 351.922 304.698ZM361.187 314.092V324.042H357.925V307.284H361.056V310.011H361.264C361.649 309.124 362.253 308.411 363.075 307.873C363.904 307.335 364.948 307.066 366.206 307.066C367.348 307.066 368.348 307.306 369.206 307.786C370.064 308.259 370.73 308.964 371.203 309.902C371.675 310.841 371.912 312.001 371.912 313.383V324.042H368.65V313.775C368.65 312.561 368.333 311.612 367.7 310.928C367.068 310.237 366.199 309.891 365.093 309.891C364.337 309.891 363.664 310.055 363.075 310.382C362.493 310.71 362.031 311.19 361.689 311.822C361.355 312.448 361.187 313.204 361.187 314.092ZM383.313 330.675C381.982 330.675 380.836 330.5 379.876 330.151C378.923 329.802 378.145 329.34 377.541 328.765C376.938 328.191 376.487 327.562 376.188 326.878L378.992 325.722C379.189 326.042 379.45 326.38 379.778 326.736C380.112 327.1 380.563 327.409 381.131 327.664C381.705 327.918 382.443 328.045 383.345 328.045C384.582 328.045 385.604 327.744 386.411 327.14C387.218 326.544 387.622 325.591 387.622 324.282V320.987H387.415C387.218 321.343 386.935 321.74 386.564 322.176C386.2 322.612 385.698 322.991 385.058 323.311C384.418 323.631 383.585 323.791 382.56 323.791C381.236 323.791 380.043 323.481 378.981 322.863C377.927 322.238 377.09 321.318 376.472 320.103C375.861 318.881 375.556 317.379 375.556 315.597C375.556 313.815 375.857 312.288 376.461 311.015C377.072 309.742 377.909 308.768 378.97 308.091C380.032 307.408 381.236 307.066 382.582 307.066C383.622 307.066 384.462 307.24 385.102 307.589C385.742 307.931 386.24 308.331 386.596 308.789C386.96 309.248 387.24 309.651 387.436 310H387.676V307.284H390.873V324.412C390.873 325.853 390.539 327.034 389.869 327.958C389.2 328.882 388.295 329.566 387.153 330.009C386.018 330.453 384.738 330.675 383.313 330.675ZM383.28 321.085C384.218 321.085 385.011 320.867 385.658 320.43C386.313 319.987 386.807 319.354 387.142 318.532C387.484 317.703 387.655 316.71 387.655 315.554C387.655 314.426 387.487 313.433 387.153 312.575C386.818 311.717 386.327 311.048 385.68 310.568C385.033 310.08 384.233 309.837 383.28 309.837C382.298 309.837 381.48 310.091 380.825 310.601C380.17 311.102 379.676 311.786 379.341 312.652C379.014 313.517 378.85 314.484 378.85 315.554C378.85 316.652 379.018 317.616 379.352 318.445C379.687 319.274 380.181 319.921 380.836 320.387C381.498 320.852 382.312 321.085 383.28 321.085Z"></path>
<path fill="#68D391" d="M349.739 386.82C348.711 385.61 347.825 384.372 347.645 384.118C347.641 384.113 347.636 384.109 347.631 384.106C347.625 384.103 347.618 384.101 347.612 384.101C347.605 384.101 347.599 384.103 347.593 384.106C347.587 384.109 347.582 384.113 347.578 384.118C347.399 384.372 346.513 385.61 345.485 386.82C336.674 398.017 346.876 405.571 346.876 405.571L346.958 405.628C347.036 406.797 347.228 408.477 347.228 408.477H347.996C347.996 408.477 348.187 406.804 348.265 405.636L348.348 405.571C348.348 405.571 358.549 398.017 349.739 386.82ZM347.612 405.407H347.612C347.612 405.407 347.154 405.018 347.031 404.823L347.03 404.802L347.583 392.612C347.583 392.604 347.587 392.597 347.592 392.592C347.597 392.587 347.604 392.584 347.612 392.584C347.619 392.584 347.626 392.587 347.632 392.592C347.637 392.597 347.64 392.604 347.641 392.612L348.194 404.802L348.193 404.823C348.069 405.017 347.612 405.407 347.612 405.407Z"></path>
<path fill="white" d="M366.663 402.911L362.427 392.617L362.415 392.588H359.112V393.277L359.642 393.278C359.722 393.278 359.8 393.294 359.874 393.324C359.947 393.355 360.013 393.4 360.069 393.456C360.125 393.513 360.169 393.58 360.199 393.653C360.229 393.727 360.244 393.805 360.243 393.884L360.145 404.253C360.145 404.409 360.082 404.559 359.972 404.67C359.862 404.781 359.713 404.845 359.556 404.848L359.013 404.854V405.539H362.228V404.854L361.897 404.848C361.74 404.844 361.59 404.779 361.48 404.667C361.37 404.554 361.308 404.404 361.307 404.247V394.479L365.928 405.532C365.961 405.61 366.015 405.676 366.085 405.722C366.155 405.769 366.237 405.794 366.322 405.794C366.406 405.794 366.488 405.769 366.558 405.722C366.628 405.676 366.683 405.609 366.715 405.532L371.23 394.723L371.298 404.245C371.298 404.404 371.236 404.556 371.125 404.669C371.014 404.783 370.862 404.848 370.703 404.85L370.363 404.854V405.539H374.125V404.854L373.61 404.85C373.452 404.847 373.302 404.783 373.191 404.671C373.08 404.559 373.017 404.409 373.016 404.251L372.983 393.884C372.983 393.727 373.045 393.575 373.156 393.462C373.267 393.35 373.418 393.285 373.576 393.282L374.126 393.277V392.588H370.913L366.663 402.911Z"></path>
<path fill="white" d="M396.279 404.688C396.225 404.634 396.183 404.569 396.155 404.497C396.127 404.425 396.115 404.349 396.118 404.272V399.192C396.118 398.228 395.831 397.466 395.266 396.926C394.701 396.387 393.924 396.114 392.959 396.114C391.596 396.114 390.526 396.664 389.777 397.747C389.77 397.757 389.761 397.765 389.75 397.769C389.739 397.774 389.727 397.775 389.715 397.773C389.703 397.771 389.693 397.766 389.684 397.758C389.675 397.75 389.669 397.74 389.666 397.728L389.314 396.371H388.725L387.211 397.236L387.211 397.712H387.602C387.76 397.704 387.917 397.755 388.039 397.856C388.095 397.912 388.139 397.98 388.166 398.055C388.194 398.13 388.205 398.209 388.198 398.289V404.272C388.202 404.349 388.19 404.425 388.162 404.497C388.134 404.569 388.092 404.634 388.037 404.688C387.983 404.743 387.918 404.785 387.846 404.813C387.774 404.84 387.697 404.853 387.62 404.849H387.241V405.538H390.724V404.849H390.345C390.268 404.853 390.191 404.84 390.119 404.813C390.047 404.785 389.982 404.743 389.927 404.688C389.873 404.634 389.83 404.569 389.803 404.497C389.775 404.425 389.763 404.349 389.766 404.272V400.312C389.769 399.796 389.88 399.286 390.094 398.816C390.305 398.337 390.639 397.922 391.063 397.614C391.508 397.297 392.044 397.132 392.591 397.145C393.259 397.145 393.757 397.355 394.072 397.769C394.389 398.188 394.55 398.728 394.55 399.375V404.272C394.554 404.349 394.542 404.425 394.514 404.497C394.486 404.569 394.444 404.634 394.389 404.688C394.335 404.743 394.269 404.785 394.198 404.813C394.126 404.84 394.049 404.853 393.972 404.849H393.593V405.538H397.076V404.849H396.697C396.62 404.852 396.543 404.84 396.471 404.812C396.399 404.785 396.334 404.742 396.279 404.688Z"></path>
<path fill="white" d="M428.192 393.365C427.198 392.844 426.089 392.577 424.966 392.588H420.399V393.277H420.842C421.02 393.29 421.188 393.367 421.315 393.493C421.441 393.619 421.518 393.787 421.531 393.965V404.163C421.529 404.252 421.508 404.34 421.471 404.421C421.434 404.502 421.381 404.575 421.315 404.634C421.255 404.701 421.182 404.754 421.101 404.791C421.019 404.828 420.931 404.848 420.842 404.85H420.399V405.54H424.966C426.089 405.551 427.198 405.284 428.192 404.763C429.164 404.248 429.971 403.472 430.522 402.522C431.094 401.552 431.385 400.389 431.385 399.064C431.385 397.739 431.094 396.575 430.522 395.605C429.971 394.656 429.164 393.879 428.192 393.365V393.365ZM429.559 399.064C429.559 400.274 429.341 401.305 428.911 402.127C428.481 402.948 427.908 403.565 427.208 403.963C426.502 404.362 425.704 404.569 424.893 404.563H423.972C423.883 404.562 423.794 404.541 423.713 404.504C423.632 404.467 423.559 404.414 423.499 404.347C423.433 404.288 423.38 404.215 423.343 404.134C423.305 404.053 423.285 403.965 423.283 403.876V394.252C423.285 394.162 423.305 394.075 423.342 393.993C423.379 393.912 423.433 393.84 423.499 393.78C423.559 393.714 423.632 393.661 423.713 393.624C423.795 393.587 423.883 393.567 423.972 393.564H424.893C425.704 393.558 426.502 393.765 427.208 394.164C427.908 394.562 428.481 395.18 428.911 396C429.341 396.823 429.559 397.853 429.559 399.064V399.064Z"></path>
<path fill="white" d="M442.137 399.75C441.723 399.27 440.914 398.861 439.957 398.643C441.273 397.992 441.94 397.065 441.94 395.887C441.95 395.276 441.77 394.676 441.426 394.17C441.061 393.656 440.56 393.253 439.979 393.006C439.298 392.716 438.564 392.574 437.824 392.589H432.701V393.278H433.107C433.285 393.291 433.453 393.368 433.579 393.494C433.706 393.62 433.783 393.787 433.796 393.965V404.164C433.793 404.253 433.773 404.34 433.736 404.421C433.699 404.502 433.646 404.575 433.579 404.635C433.52 404.701 433.447 404.755 433.366 404.792C433.284 404.829 433.196 404.849 433.107 404.851H432.664V405.54H438.226C439.028 405.549 439.824 405.404 440.572 405.114C441.243 404.861 441.83 404.426 442.268 403.859C442.684 403.308 442.895 402.635 442.895 401.856C442.911 401.085 442.641 400.335 442.137 399.75V399.75ZM435.764 404.348C435.698 404.288 435.645 404.216 435.608 404.134C435.57 404.053 435.55 403.966 435.548 403.877V399.296H438.189C439.116 399.296 439.836 399.535 440.328 400.008C440.82 400.48 441.069 401.102 441.069 401.856C441.068 402.313 440.957 402.762 440.743 403.166C440.519 403.587 440.18 403.937 439.766 404.176C439.334 404.433 438.803 404.564 438.189 404.564H436.237C436.148 404.562 436.059 404.542 435.978 404.505C435.897 404.468 435.824 404.415 435.764 404.348V404.348ZM435.548 398.319V394.252C435.55 394.163 435.57 394.075 435.607 393.994C435.644 393.913 435.698 393.84 435.764 393.781C435.824 393.715 435.897 393.662 435.978 393.625C436.06 393.588 436.148 393.567 436.237 393.565H437.492C438.395 393.565 439.064 393.789 439.483 394.23C439.902 394.672 440.115 395.248 440.115 395.942C440.115 396.661 439.917 397.244 439.529 397.674C439.141 398.102 438.549 398.319 437.768 398.319H435.548Z"></path>
<path fill="white" d="M383.019 396.717C382.268 396.321 381.433 396.114 380.584 396.114C379.735 396.114 378.899 396.321 378.149 396.717C377.423 397.115 376.821 397.706 376.41 398.424C375.988 399.201 375.768 400.071 375.768 400.955C375.768 401.838 375.988 402.708 376.41 403.485C376.821 404.204 377.423 404.794 378.149 405.193C378.899 405.589 379.735 405.795 380.584 405.795C381.433 405.795 382.268 405.589 383.019 405.193C383.745 404.794 384.347 404.204 384.758 403.485C385.179 402.708 385.4 401.838 385.4 400.955C385.4 400.071 385.179 399.201 384.758 398.424C384.347 397.706 383.745 397.115 383.019 396.717ZM383.722 400.955C383.722 402.125 383.434 403.067 382.867 403.753C382.302 404.436 381.534 404.782 380.584 404.782C379.634 404.782 378.865 404.436 378.301 403.753C377.734 403.067 377.446 402.126 377.446 400.955C377.446 399.784 377.734 398.842 378.301 398.157C378.865 397.473 379.634 397.127 380.584 397.127C381.534 397.127 382.302 397.473 382.867 398.157C383.434 398.843 383.722 399.784 383.722 400.955H383.722Z"></path>
<path fill="white" d="M416.565 396.717C415.815 396.321 414.979 396.114 414.131 396.114C413.282 396.114 412.446 396.321 411.696 396.717C410.969 397.115 410.367 397.706 409.956 398.424C409.535 399.201 409.315 400.071 409.315 400.955C409.315 401.838 409.535 402.708 409.956 403.485C410.367 404.204 410.969 404.794 411.696 405.193C412.446 405.589 413.282 405.795 414.131 405.795C414.979 405.795 415.815 405.589 416.565 405.193C417.292 404.794 417.894 404.204 418.305 403.485C418.726 402.708 418.947 401.838 418.947 400.955C418.947 400.071 418.726 399.201 418.305 398.424C417.894 397.706 417.292 397.115 416.565 396.717V396.717ZM417.268 400.955C417.268 402.125 416.981 403.067 416.414 403.753C415.849 404.436 415.081 404.782 414.131 404.782C413.18 404.782 412.412 404.436 411.848 403.753C411.281 403.067 410.993 402.126 410.993 400.955C410.993 399.784 411.281 398.842 411.848 398.157C412.412 397.473 413.18 397.127 414.131 397.127C415.081 397.127 415.849 397.473 416.414 398.157C416.981 398.843 417.268 399.784 417.268 400.955H417.268Z"></path>
<path fill="white" d="M403.025 396.114C402.303 396.106 401.59 396.272 400.946 396.597C400.346 396.896 399.837 397.35 399.473 397.911C399.122 398.454 398.936 399.086 398.939 399.732C398.932 400.294 399.072 400.848 399.347 401.339C399.615 401.807 399.985 402.207 400.431 402.511L399.076 404.348C398.994 404.46 398.944 404.592 398.933 404.729C398.921 404.867 398.949 405.006 399.011 405.129C399.074 405.253 399.169 405.356 399.288 405.429C399.406 405.501 399.542 405.539 399.68 405.539H400.069C399.707 405.775 399.402 406.088 399.176 406.455C398.936 406.838 398.808 407.28 398.805 407.73C398.805 408.545 399.166 409.216 399.877 409.726C400.584 410.232 401.572 410.489 402.814 410.489C403.648 410.495 404.476 410.355 405.261 410.075C405.968 409.833 406.601 409.415 407.099 408.859C407.561 408.331 407.811 407.649 407.799 406.948C407.799 406.172 407.514 405.617 406.845 405.091C406.273 404.642 405.382 404.405 404.269 404.405H400.466C400.461 404.405 400.457 404.404 400.453 404.402C400.449 404.399 400.446 404.396 400.444 404.392C400.442 404.388 400.441 404.384 400.441 404.38C400.442 404.375 400.443 404.371 400.445 404.367L401.432 403.036C401.666 403.144 401.912 403.226 402.164 403.281C402.416 403.329 402.672 403.351 402.929 403.349C403.673 403.361 404.408 403.195 405.075 402.867C405.68 402.568 406.195 402.114 406.567 401.552C406.924 401.012 407.113 400.379 407.11 399.732C407.11 399.028 406.772 397.747 405.838 397.094C405.84 397.087 405.845 397.088 405.847 397.088L407.895 397.317V396.382H404.621C404.108 396.204 403.568 396.114 403.025 396.114V396.114ZM404.17 402.047H404.17C403.818 402.238 403.425 402.337 403.025 402.338C402.4 402.342 401.8 402.1 401.354 401.663C400.881 401.217 400.642 400.567 400.642 399.732C400.642 398.896 400.881 398.246 401.354 397.8C401.8 397.364 402.4 397.121 403.025 397.125C403.425 397.126 403.818 397.226 404.17 397.416C404.541 397.619 404.849 397.92 405.06 398.286C405.291 398.671 405.408 399.158 405.408 399.732C405.408 400.306 405.291 400.792 405.06 401.177C404.849 401.544 404.541 401.845 404.17 402.047ZM401.588 405.539H404.165C404.881 405.539 405.336 405.678 405.641 405.988C405.793 406.146 405.911 406.332 405.99 406.537C406.068 406.741 406.104 406.958 406.097 407.177C406.104 407.504 406.033 407.828 405.89 408.122C405.747 408.416 405.535 408.671 405.273 408.867C404.722 409.298 403.979 409.516 403.063 409.516C402.26 409.516 401.603 409.339 401.11 408.99C400.621 408.645 400.374 408.131 400.374 407.463C400.37 407.055 400.49 406.654 400.72 406.316C400.935 405.984 401.234 405.717 401.588 405.539V405.539Z"></path>
<path fill="white" d="M446.592 405.556C446.407 405.452 446.254 405.3 446.148 405.116C446.043 404.929 445.988 404.719 445.988 404.505C445.988 404.291 446.043 404.08 446.148 403.894C446.254 403.71 446.407 403.558 446.592 403.454C446.788 403.348 447.007 403.292 447.23 403.292C447.453 403.292 447.672 403.348 447.868 403.454C448.053 403.558 448.207 403.71 448.312 403.894C448.417 404.08 448.473 404.291 448.473 404.505C448.473 404.719 448.417 404.929 448.312 405.116C448.207 405.3 448.053 405.452 447.868 405.556C447.672 405.662 447.453 405.717 447.23 405.717C447.007 405.717 446.788 405.662 446.592 405.556ZM447.76 405.416C447.915 405.328 448.042 405.199 448.129 405.043C448.216 404.877 448.262 404.692 448.262 404.505C448.262 404.317 448.216 404.133 448.129 403.967C448.042 403.811 447.915 403.682 447.76 403.594C447.597 403.505 447.415 403.459 447.23 403.459C447.045 403.459 446.863 403.505 446.701 403.594C446.546 403.682 446.418 403.811 446.332 403.967C446.244 404.133 446.198 404.317 446.198 404.505C446.198 404.692 446.244 404.877 446.332 405.043C446.418 405.199 446.546 405.328 446.701 405.416C446.863 405.504 447.045 405.551 447.23 405.551C447.415 405.551 447.597 405.504 447.76 405.416V405.416ZM446.716 405.084V405.001L446.733 404.988H446.789C446.808 404.987 446.825 404.979 446.838 404.966C446.851 404.953 446.859 404.936 446.86 404.918V404.038C446.859 404.02 446.851 404.003 446.838 403.99C446.825 403.977 446.808 403.97 446.789 403.968H446.733L446.716 403.955V403.872L446.733 403.859H447.227C447.346 403.852 447.463 403.885 447.561 403.952C447.602 403.983 447.634 404.023 447.656 404.07C447.677 404.116 447.687 404.167 447.685 404.218C447.685 404.261 447.677 404.304 447.66 404.344C447.644 404.383 447.62 404.42 447.589 404.45C447.525 404.516 447.439 404.558 447.347 404.568L447.461 404.601L447.681 404.948C447.687 404.959 447.696 404.969 447.708 404.976C447.719 404.983 447.731 404.987 447.745 404.988H447.801L447.815 405.001V405.084L447.801 405.098H447.511L447.491 405.084L447.184 404.575H447.11V404.918C447.111 404.936 447.119 404.953 447.132 404.966C447.145 404.979 447.162 404.987 447.18 404.988H447.237L447.254 405.001V405.084L447.237 405.098H446.733L446.716 405.084ZM447.194 404.465C447.226 404.467 447.259 404.462 447.29 404.452C447.321 404.441 447.35 404.424 447.374 404.402C447.396 404.377 447.413 404.348 447.424 404.316C447.435 404.285 447.44 404.252 447.437 404.218C447.441 404.152 447.419 404.088 447.377 404.037C447.357 404.014 447.333 403.996 447.305 403.985C447.277 403.973 447.247 403.967 447.217 403.968H447.18C447.162 403.97 447.145 403.977 447.132 403.99C447.119 404.003 447.111 404.02 447.11 404.038V404.465H447.194Z"></path>
<path fill="white" d="M84.5875 402.032C84.3344 402.444 84.3384 402.964 84.5976 403.372L89.289 410.761C89.5935 411.24 90.1804 411.459 90.7251 411.296L104.263 407.241C105.002 407.02 105.374 406.197 105.051 405.497L96.3479 386.648C95.9235 385.729 94.644 385.653 94.1142 386.516L84.5875 402.032ZM96.1167 390.957C95.9317 390.53 95.3053 390.596 95.2135 391.052L91.8629 407.709C91.7922 408.06 92.1216 408.36 92.4654 408.258L101.819 405.47C102.092 405.389 102.233 405.088 102.12 404.827L96.1167 390.957Z" clip-rule="evenodd" fill-rule="evenodd"></path>
<path fill="white" d="M113.277 398.584H114.102C114.873 398.584 115.449 398.433 115.832 398.128C116.215 397.824 116.406 397.382 116.406 396.8C116.406 396.214 116.246 395.781 115.925 395.501C115.604 395.221 115.102 395.081 114.417 395.081H113.277V398.584ZM118.936 396.71C118.936 397.98 118.539 398.951 117.744 399.624C116.949 400.296 115.819 400.632 114.353 400.632H113.278V404.829H110.772V393.03H114.547C115.981 393.03 117.07 393.338 117.817 393.954C118.563 394.57 118.936 395.489 118.936 396.71Z" clip-rule="evenodd" fill-rule="evenodd"></path>
<path fill="white" d="M125.58 395.636C125.914 395.636 126.191 395.66 126.412 395.709L126.226 398.016C126.027 397.963 125.785 397.936 125.499 397.936C124.712 397.936 124.099 398.138 123.66 398.541C123.221 398.945 123.001 399.51 123.001 400.236V404.828H120.536V395.806H122.403L122.767 397.323H122.888C123.168 396.817 123.547 396.409 124.024 396.1C124.501 395.791 125.019 395.636 125.58 395.636" clip-rule="evenodd" fill-rule="evenodd"></path>
<path fill="white" d="M127.713 404.828H130.178V395.805H127.713V404.828ZM127.609 393.473C127.609 392.671 128.056 392.271 128.95 392.271C129.844 392.271 130.292 392.671 130.292 393.473C130.292 393.855 130.18 394.152 129.957 394.365C129.733 394.577 129.397 394.683 128.95 394.683C128.056 394.683 127.609 394.28 127.609 393.473Z" clip-rule="evenodd" fill-rule="evenodd"></path>
<path fill="white" d="M138.867 402.148C138.867 403.074 138.545 403.778 137.901 404.263C137.257 404.747 136.294 404.989 135.012 404.989C134.354 404.989 133.794 404.945 133.331 404.856C132.867 404.767 132.434 404.636 132.029 404.464V402.431C132.488 402.646 133.003 402.826 133.577 402.972C134.151 403.117 134.656 403.189 135.093 403.189C135.987 403.189 136.435 402.931 136.435 402.415C136.435 402.221 136.375 402.064 136.257 401.943C136.138 401.821 135.933 401.684 135.642 401.531C135.352 401.377 134.963 401.199 134.478 400.994C133.784 400.704 133.273 400.435 132.947 400.187C132.621 399.94 132.384 399.656 132.236 399.336C132.087 399.016 132.013 398.622 132.013 398.154C132.013 397.352 132.324 396.732 132.947 396.294C133.569 395.855 134.451 395.636 135.594 395.636C136.682 395.636 137.741 395.873 138.77 396.346L138.027 398.121C137.574 397.928 137.151 397.769 136.758 397.645C136.364 397.522 135.963 397.46 135.554 397.46C134.826 397.46 134.462 397.656 134.462 398.049C134.462 398.27 134.58 398.46 134.814 398.622C135.048 398.783 135.562 399.023 136.354 399.34C137.06 399.625 137.577 399.891 137.906 400.139C138.234 400.386 138.477 400.671 138.633 400.994C138.79 401.317 138.867 401.702 138.867 402.148" clip-rule="evenodd" fill-rule="evenodd"></path>
<path fill="white" d="M148.631 404.829H146.165V399.558C146.165 398.908 146.056 398.419 145.838 398.094C145.619 397.768 145.276 397.605 144.807 397.605C144.177 397.605 143.719 397.837 143.433 398.299C143.147 398.762 143.004 399.523 143.004 400.583V404.829H140.539V395.806H142.422L142.754 396.96H142.891C143.134 396.545 143.484 396.221 143.942 395.987C144.4 395.753 144.926 395.636 145.519 395.636C146.871 395.636 147.787 396.077 148.267 396.96H148.485C148.728 396.54 149.085 396.214 149.556 395.983C150.028 395.752 150.56 395.636 151.153 395.636C152.176 395.636 152.951 395.898 153.477 396.423C154.002 396.947 154.265 397.788 154.265 398.945V404.829H151.791V399.558C151.791 398.908 151.682 398.419 151.464 398.094C151.245 397.768 150.902 397.605 150.433 397.605C149.83 397.605 149.378 397.821 149.079 398.251C148.78 398.682 148.631 399.365 148.631 400.301V404.829Z" clip-rule="evenodd" fill-rule="evenodd"></path>
<path fill="white" d="M161.439 400.645L160.485 400.677C159.768 400.699 159.234 400.828 158.884 401.065C158.534 401.302 158.359 401.662 158.359 402.147C158.359 402.841 158.757 403.188 159.555 403.188C160.126 403.188 160.583 403.024 160.925 402.695C161.267 402.367 161.439 401.931 161.439 401.388V400.645ZM162.166 404.825L161.689 403.598H161.624C161.209 404.12 160.783 404.482 160.343 404.684C159.904 404.886 159.332 404.986 158.626 404.986C157.758 404.986 157.075 404.739 156.577 404.244C156.079 403.749 155.829 403.044 155.829 402.13C155.829 401.172 156.165 400.466 156.835 400.011C157.507 399.557 158.518 399.305 159.871 399.257L161.439 399.208V398.813C161.439 397.899 160.97 397.441 160.032 397.441C159.31 397.441 158.461 397.659 157.486 398.095L156.67 396.432C157.71 395.889 158.863 395.617 160.129 395.617C161.342 395.617 162.271 395.881 162.918 396.408C163.564 396.935 163.888 397.737 163.888 398.813V404.825H162.166Z" clip-rule="evenodd" fill-rule="evenodd"></path>
<path fill="white" d="M227.251 399.431H224.832V404.105C224.832 405.358 225.661 405.335 227.251 405.268V407.169C224.003 407.549 222.726 406.655 222.726 404.127V399.453H220.934V397.418H222.726V394.801L224.832 394.175V397.418H227.251V399.431ZM236.48 397.396H238.586V407.147H236.48V405.738C235.741 406.767 234.576 407.393 233.053 407.393C230.387 407.393 228.192 405.156 228.192 402.271C228.192 399.364 230.41 397.15 233.053 397.15C234.576 397.15 235.741 397.776 236.48 398.782V397.396V397.396ZM233.389 405.402C235.158 405.402 236.48 404.105 236.48 402.271C236.48 400.46 235.158 399.14 233.389 399.14C231.642 399.14 230.298 400.437 230.298 402.271C230.298 404.105 231.642 405.402 233.389 405.402ZM242.102 395.942C241.363 395.942 240.758 395.316 240.758 394.6C240.758 393.862 241.363 393.258 242.102 393.258C242.842 393.258 243.446 393.862 243.446 394.6C243.469 395.316 242.842 395.942 242.102 395.942ZM241.05 407.147V397.396H243.155V407.147H241.05ZM245.597 407.147V392.9H247.702V407.147H245.597ZM261.411 397.396H263.629L260.56 407.147H258.499L256.461 400.571L254.4 407.147H252.339L249.271 397.396H251.488L253.392 404.127L255.453 397.396H257.469L259.507 404.127L261.411 397.396ZM266.272 395.942C265.533 395.942 264.928 395.316 264.928 394.6C264.928 393.862 265.533 393.258 266.272 393.258C267.011 393.258 267.616 393.862 267.616 394.6C267.616 395.316 267.011 395.942 266.272 395.942ZM265.197 407.147V397.396H267.303V407.147H265.197ZM274.896 397.15C277.091 397.15 278.659 398.626 278.659 401.175V407.169H276.554V401.377C276.554 399.901 275.703 399.118 274.359 399.118C272.97 399.118 271.872 399.945 271.872 401.936V407.169H269.767V397.418H271.872V398.67C272.522 397.642 273.575 397.15 274.896 397.15ZM288.65 393.504H290.756V407.169H288.65V405.76C287.911 406.789 286.746 407.415 285.223 407.415C282.557 407.415 280.362 405.179 280.362 402.294C280.362 399.386 282.58 397.172 285.223 397.172C286.746 397.172 287.911 397.798 288.65 398.805V393.504ZM285.581 405.402C287.351 405.402 288.672 404.105 288.672 402.271C288.672 400.46 287.351 399.14 285.581 399.14C283.834 399.14 282.49 400.437 282.49 402.271C282.49 404.105 283.812 405.402 285.581 405.402ZM297.834 407.415C294.877 407.415 292.682 405.179 292.682 402.294C292.682 399.386 294.9 397.172 297.834 397.172C299.76 397.172 301.418 398.156 302.202 399.699L300.388 400.75C299.962 399.833 298.999 399.252 297.834 399.252C296.109 399.252 294.81 400.549 294.81 402.316C294.81 404.083 296.109 405.38 297.834 405.38C298.999 405.38 299.962 404.776 300.432 403.881L302.247 404.91C301.418 406.409 299.76 407.415 297.834 407.415ZM305.719 400.102C305.719 401.869 310.983 400.795 310.983 404.418C310.983 406.364 309.28 407.415 307.175 407.415C305.226 407.415 303.815 406.543 303.188 405.134L305.002 404.083C305.316 404.955 306.1 405.492 307.175 405.492C308.116 405.492 308.832 405.179 308.832 404.396C308.832 402.651 303.568 403.635 303.568 400.147C303.568 398.313 305.159 397.172 307.152 397.172C308.765 397.172 310.087 397.91 310.759 399.207L308.989 400.191C308.631 399.431 307.959 399.073 307.152 399.073C306.391 399.051 305.719 399.386 305.719 400.102ZM314.724 400.102C314.724 401.869 319.988 400.795 319.988 404.418C319.988 406.364 318.285 407.415 316.18 407.415C314.231 407.415 312.82 406.543 312.193 405.134L314.007 404.083C314.321 404.955 315.105 405.492 316.18 405.492C317.121 405.492 317.837 405.179 317.837 404.396C317.837 402.651 312.573 403.635 312.573 400.147C312.573 398.313 314.164 397.172 316.157 397.172C317.77 397.172 319.092 397.91 319.764 399.207L317.994 400.191C317.636 399.431 316.964 399.073 316.157 399.073C315.396 399.051 314.724 399.386 314.724 400.102Z" clip-rule="evenodd" fill-rule="evenodd"></path>
<path fill="white" d="M199.475 392.429C195.779 392.429 193.449 394.285 192.531 397.976C193.919 396.119 195.532 395.426 197.391 395.896C198.444 396.164 199.206 396.925 200.035 397.774C201.401 399.161 202.969 400.749 206.419 400.749C210.115 400.749 212.445 398.893 213.363 395.202C211.974 397.059 210.361 397.752 208.502 397.282C207.449 397.014 206.688 396.254 205.859 395.404C204.492 394.017 202.924 392.429 199.475 392.429ZM192.531 400.727C188.834 400.727 186.505 402.583 185.586 406.273C186.975 404.417 188.588 403.724 190.447 404.193C191.5 404.462 192.262 405.222 193.091 406.072C194.457 407.459 196.025 409.046 199.475 409.046C203.171 409.046 205.5 407.19 206.419 403.5C205.03 405.356 203.417 406.05 201.558 405.58C200.505 405.311 199.743 404.551 198.915 403.701C197.548 402.337 195.98 400.727 192.531 400.727Z" clip-rule="evenodd" fill-rule="evenodd"></path>
<path fill="white" d="M483.878 401.766C484.025 403.653 484.025 404.538 484.025 405.503H479.652C479.652 405.293 479.656 405.101 479.659 404.905C479.671 404.299 479.684 403.667 479.585 402.389C479.455 400.519 478.649 400.104 477.166 400.104H475.852H470.287V396.702H477.374C479.247 396.702 480.184 396.133 480.184 394.627C480.184 393.302 479.247 392.5 477.374 392.5H470.287V389.171H478.154C482.395 389.171 484.503 391.17 484.503 394.365C484.503 396.754 483.02 398.312 481.016 398.572C482.707 398.909 483.696 399.87 483.878 401.766Z" clip-rule="evenodd" fill-rule="evenodd"></path>
<path fill="white" d="M470.287 405.503V402.967H474.911C475.684 402.967 475.851 403.538 475.851 403.879V405.503H470.287Z"></path>
<path fill="white" d="M536.807 393.95H532.462L530.485 396.703L528.56 393.95H523.902L528.091 399.637L523.538 405.533H527.883L530.199 402.39L532.514 405.533H537.171L532.592 399.456L536.807 393.95Z"></path>
<path fill="white" d="M493.604 401.402C493.214 402.311 492.486 402.7 491.341 402.7C490.066 402.7 489.025 402.025 488.921 400.597H497.065V399.428C497.065 396.286 495.009 393.637 491.133 393.637C487.516 393.637 484.81 396.26 484.81 399.921C484.81 403.609 487.464 405.843 491.185 405.843C494.255 405.843 496.388 404.362 496.987 401.713L493.604 401.402ZM488.973 398.571C489.129 397.48 489.728 396.649 491.081 396.649C492.329 396.649 493.006 397.532 493.058 398.571H488.973Z"></path>
<path fill="white" d="M509.439 395.922C508.945 394.571 507.878 393.636 505.823 393.636C504.08 393.636 502.831 394.416 502.207 395.688V393.948H497.992V405.53H502.207V399.843C502.207 398.103 502.701 396.961 504.08 396.961C505.355 396.961 505.667 397.792 505.667 399.376V405.53H509.882V399.843C509.882 398.103 510.35 396.961 511.755 396.961C513.03 396.961 513.316 397.792 513.316 399.376V405.53H517.531V398.259C517.531 395.844 516.594 393.636 513.394 393.636C511.443 393.636 510.064 394.623 509.439 395.922Z"></path>
<path fill="white" d="M518.909 393.949V405.532H523.124V393.949H518.909ZM518.883 392.858H523.15V389.17H518.883V392.858Z"></path>
<path stroke-width="1.75556" stroke="#68D391" d="M146.589 68.4666H406.411C412.471 68.4666 417.383 73.3791 417.383 79.4389V120.694C417.383 126.754 412.471 131.667 406.411 131.667H146.589V68.4666Z"></path>
<path fill="white" d="M178.351 111.199C177.021 111.199 175.84 110.941 174.806 110.424C173.791 109.889 172.997 109.141 172.425 108.181C171.871 107.203 171.594 106.086 171.594 104.831V97.6596C171.594 96.4044 171.871 95.3061 172.425 94.3647C172.997 93.4048 173.791 92.6664 174.806 92.1496C175.84 91.6142 177.021 91.3466 178.351 91.3466C179.68 91.3466 180.852 91.605 181.867 92.1219C182.882 92.6203 183.667 93.3309 184.221 94.2539C184.793 95.1769 185.079 96.2475 185.079 97.4658V97.4935C185.079 97.5858 185.051 97.6596 184.996 97.715C184.94 97.7704 184.876 97.7981 184.802 97.7981L182.698 97.9088C182.513 97.9088 182.421 97.8257 182.421 97.6596V97.5765C182.421 96.3952 182.052 95.4445 181.313 94.7246C180.575 94.0047 179.587 93.6447 178.351 93.6447C177.114 93.6447 176.117 94.0047 175.36 94.7246C174.622 95.4445 174.253 96.3952 174.253 97.5765V104.942C174.253 106.123 174.622 107.074 175.36 107.794C176.117 108.514 177.114 108.874 178.351 108.874C179.587 108.874 180.575 108.514 181.313 107.794C182.052 107.074 182.421 106.123 182.421 104.942V104.886C182.421 104.72 182.513 104.637 182.698 104.637L184.802 104.748C184.987 104.748 185.079 104.84 185.079 105.025C185.079 106.243 184.793 107.323 184.221 108.264C183.667 109.187 182.882 109.907 181.867 110.424C180.852 110.941 179.68 111.199 178.351 111.199ZM195.252 111.199C193.905 111.199 192.714 110.923 191.68 110.369C190.647 109.815 189.844 109.04 189.272 108.043C188.699 107.028 188.413 105.865 188.413 104.554V97.9642C188.413 96.6536 188.699 95.4999 189.272 94.5031C189.844 93.5063 190.647 92.731 191.68 92.1772C192.714 91.6235 193.905 91.3466 195.252 91.3466C196.618 91.3466 197.818 91.6235 198.852 92.1772C199.886 92.731 200.689 93.5063 201.261 94.5031C201.833 95.4999 202.119 96.6536 202.119 97.9642V104.554C202.119 105.865 201.833 107.028 201.261 108.043C200.689 109.04 199.886 109.815 198.852 110.369C197.818 110.923 196.618 111.199 195.252 111.199ZM195.252 108.901C196.508 108.901 197.523 108.514 198.298 107.738C199.073 106.963 199.461 105.939 199.461 104.665V97.9365C199.461 96.6444 199.073 95.6106 198.298 94.8354C197.523 94.0416 196.508 93.6447 195.252 93.6447C193.997 93.6447 192.982 94.0416 192.207 94.8354C191.45 95.6106 191.071 96.6444 191.071 97.9365V104.665C191.071 105.939 191.45 106.963 192.207 107.738C192.982 108.514 193.997 108.901 195.252 108.901ZM212.781 111.172C211.434 111.172 210.243 110.913 209.209 110.396C208.194 109.861 207.4 109.114 206.828 108.154C206.256 107.175 205.97 106.059 205.97 104.803V91.845C205.97 91.6604 206.062 91.5681 206.247 91.5681H208.351C208.536 91.5681 208.628 91.6604 208.628 91.845V104.859C208.628 106.059 209.006 107.028 209.763 107.766C210.538 108.504 211.544 108.874 212.781 108.874C214.018 108.874 215.015 108.504 215.772 107.766C216.528 107.028 216.907 106.059 216.907 104.859V91.845C216.907 91.6604 216.999 91.5681 217.184 91.5681H219.288C219.473 91.5681 219.565 91.6604 219.565 91.845V104.803C219.565 106.059 219.279 107.175 218.707 108.154C218.153 109.114 217.359 109.861 216.325 110.396C215.31 110.913 214.129 111.172 212.781 111.172ZM234.95 110.95C234.802 110.95 234.7 110.886 234.645 110.756L230.769 102.477C230.75 102.422 230.713 102.394 230.658 102.394H226.671C226.597 102.394 226.56 102.431 226.56 102.505V110.673C226.56 110.858 226.468 110.95 226.283 110.95H224.179C223.994 110.95 223.902 110.858 223.902 110.673V91.845C223.902 91.6604 223.994 91.5681 224.179 91.5681H231.627C232.734 91.5681 233.704 91.7988 234.534 92.2603C235.383 92.7218 236.039 93.3679 236.5 94.1985C236.962 95.0292 237.192 95.9891 237.192 97.0781C237.192 98.3703 236.851 99.4686 236.168 100.373C235.503 101.259 234.571 101.859 233.371 102.173C233.297 102.21 233.279 102.256 233.316 102.311L237.331 110.618C237.349 110.655 237.358 110.701 237.358 110.756C237.358 110.886 237.285 110.95 237.137 110.95H234.95ZM226.671 93.8663C226.597 93.8663 226.56 93.9032 226.56 93.977V100.179C226.56 100.253 226.597 100.29 226.671 100.29H231.295C232.273 100.29 233.057 100.004 233.648 99.4317C234.239 98.841 234.534 98.0657 234.534 97.1058C234.534 96.1275 234.239 95.343 233.648 94.7523C233.057 94.1616 232.273 93.8663 231.295 93.8663H226.671ZM246.863 111.172C245.442 111.172 244.205 110.95 243.153 110.507C242.119 110.064 241.316 109.437 240.744 108.624C240.19 107.812 239.914 106.861 239.914 105.772V104.969C239.914 104.785 240.006 104.693 240.19 104.693H242.212C242.396 104.693 242.489 104.785 242.489 104.969V105.634C242.489 106.575 242.895 107.351 243.707 107.96C244.519 108.569 245.636 108.874 247.057 108.874C248.331 108.874 249.291 108.606 249.937 108.071C250.583 107.535 250.906 106.834 250.906 105.966C250.906 105.394 250.74 104.905 250.408 104.499C250.075 104.093 249.586 103.723 248.94 103.391C248.313 103.04 247.39 102.625 246.171 102.145C244.824 101.628 243.753 101.158 242.959 100.733C242.184 100.308 241.538 99.7547 241.021 99.0717C240.504 98.3703 240.246 97.4935 240.246 96.4413C240.246 94.8538 240.809 93.6078 241.935 92.7033C243.079 91.7988 244.621 91.3466 246.559 91.3466C247.925 91.3466 249.125 91.5773 250.158 92.0388C251.192 92.5003 251.986 93.1463 252.54 93.977C253.112 94.8077 253.398 95.7675 253.398 96.8566V97.4104C253.398 97.595 253.306 97.6873 253.121 97.6873H251.044C250.86 97.6873 250.768 97.595 250.768 97.4104V96.9951C250.768 96.0352 250.38 95.2415 249.605 94.6138C248.848 93.9678 247.796 93.6447 246.448 93.6447C245.304 93.6447 244.418 93.8847 243.79 94.3647C243.162 94.8261 242.849 95.4999 242.849 96.3859C242.849 96.9951 243.005 97.4935 243.319 97.8811C243.633 98.2688 244.095 98.6195 244.704 98.9333C245.331 99.2286 246.282 99.6163 247.556 100.096C248.866 100.613 249.928 101.093 250.74 101.536C251.552 101.961 252.226 102.533 252.761 103.253C253.296 103.954 253.564 104.831 253.564 105.883C253.564 107.508 252.964 108.8 251.764 109.76C250.583 110.701 248.949 111.172 246.863 111.172ZM270.036 93.5894C270.036 93.774 269.944 93.8663 269.759 93.8663H259.93C259.856 93.8663 259.819 93.9032 259.819 93.977V99.9301C259.819 100.004 259.856 100.041 259.93 100.041H266.686C266.87 100.041 266.962 100.133 266.962 100.318V102.062C266.962 102.247 266.87 102.339 266.686 102.339H259.93C259.856 102.339 259.819 102.376 259.819 102.45V108.541C259.819 108.615 259.856 108.652 259.93 108.652H269.759C269.944 108.652 270.036 108.744 270.036 108.929V110.673C270.036 110.858 269.944 110.95 269.759 110.95H257.438C257.253 110.95 257.161 110.858 257.161 110.673V91.845C257.161 91.6604 257.253 91.5681 257.438 91.5681H269.759C269.944 91.5681 270.036 91.6604 270.036 91.845V93.5894ZM292.382 91.5404C293.508 91.5404 294.496 91.7804 295.345 92.2603C296.212 92.7218 296.877 93.3771 297.338 94.2262C297.818 95.0753 298.058 96.0537 298.058 97.1612C298.058 98.2688 297.818 99.2379 297.338 100.069C296.858 100.899 296.175 101.545 295.289 102.007C294.422 102.468 293.416 102.699 292.271 102.699H287.398C287.324 102.699 287.287 102.736 287.287 102.81V110.673C287.287 110.858 287.195 110.95 287.01 110.95H284.906C284.721 110.95 284.629 110.858 284.629 110.673V91.8173C284.629 91.6327 284.721 91.5404 284.906 91.5404H292.382ZM292.022 100.539C293.037 100.539 293.849 100.235 294.459 99.6255C295.086 99.0164 295.4 98.2134 295.4 97.2166C295.4 96.2013 295.086 95.3891 294.459 94.78C293.849 94.1524 293.037 93.8386 292.022 93.8386H287.398C287.324 93.8386 287.287 93.8755 287.287 93.9493V100.428C287.287 100.502 287.324 100.539 287.398 100.539H292.022ZM312.003 110.95C311.837 110.95 311.726 110.876 311.67 110.729L310.674 107.489C310.655 107.434 310.618 107.406 310.563 107.406H302.782C302.727 107.406 302.69 107.434 302.672 107.489L301.675 110.729C301.619 110.876 301.509 110.95 301.343 110.95H299.1C298.897 110.95 298.823 110.849 298.878 110.646L304.942 91.7896C304.997 91.6419 305.108 91.5681 305.274 91.5681H308.043C308.209 91.5681 308.32 91.6419 308.375 91.7896L314.495 110.646L314.522 110.756C314.522 110.886 314.439 110.95 314.273 110.95H312.003ZM303.364 105.163C303.345 105.2 303.345 105.237 303.364 105.274C303.401 105.292 303.438 105.302 303.475 105.302H309.843C309.88 105.302 309.908 105.292 309.926 105.274C309.963 105.237 309.972 105.2 309.954 105.163L306.742 94.8907C306.723 94.8538 306.696 94.8354 306.659 94.8354C306.622 94.8354 306.594 94.8538 306.576 94.8907L303.364 105.163ZM328.723 110.95C328.576 110.95 328.474 110.886 328.419 110.756L324.542 102.477C324.524 102.422 324.487 102.394 324.432 102.394H320.444C320.371 102.394 320.334 102.431 320.334 102.505V110.673C320.334 110.858 320.241 110.95 320.057 110.95H317.953C317.768 110.95 317.676 110.858 317.676 110.673V91.845C317.676 91.6604 317.768 91.5681 317.953 91.5681H325.401C326.508 91.5681 327.477 91.7988 328.308 92.2603C329.157 92.7218 329.813 93.3679 330.274 94.1985C330.735 95.0292 330.966 95.9891 330.966 97.0781C330.966 98.3703 330.625 99.4686 329.942 100.373C329.277 101.259 328.345 101.859 327.145 102.173C327.071 102.21 327.053 102.256 327.09 102.311L331.105 110.618C331.123 110.655 331.132 110.701 331.132 110.756C331.132 110.886 331.059 110.95 330.911 110.95H328.723ZM320.444 93.8663C320.371 93.8663 320.334 93.9032 320.334 93.977V100.179C320.334 100.253 320.371 100.29 320.444 100.29H325.069C326.047 100.29 326.831 100.004 327.422 99.4317C328.013 98.841 328.308 98.0657 328.308 97.1058C328.308 96.1275 328.013 95.343 327.422 94.7523C326.831 94.1616 326.047 93.8663 325.069 93.8663H320.444ZM346.951 91.5681C347.136 91.5681 347.228 91.6604 347.228 91.845V93.6171C347.228 93.8016 347.136 93.8939 346.951 93.8939H341.635C341.561 93.8939 341.524 93.9309 341.524 94.0047V110.673C341.524 110.858 341.432 110.95 341.247 110.95H339.143C338.958 110.95 338.866 110.858 338.866 110.673V94.0047C338.866 93.9309 338.829 93.8939 338.755 93.8939H333.688C333.504 93.8939 333.411 93.8016 333.411 93.6171V91.845C333.411 91.6604 333.504 91.5681 333.688 91.5681H346.951ZM366.178 101.758C366.548 102.662 366.732 103.705 366.732 104.886C366.732 105.865 366.585 106.769 366.289 107.6C365.883 108.744 365.209 109.63 364.268 110.258C363.327 110.867 362.191 111.172 360.862 111.172C359.533 111.172 358.379 110.83 357.401 110.147C356.441 109.464 355.768 108.541 355.38 107.378C355.177 106.861 355.057 106.123 355.02 105.163C355.02 104.979 355.112 104.886 355.297 104.886H357.429C357.613 104.886 357.706 104.979 357.706 105.163C357.743 105.828 357.816 106.317 357.927 106.631C358.112 107.314 358.453 107.858 358.952 108.264C359.469 108.67 360.105 108.874 360.862 108.874C362.265 108.874 363.207 108.237 363.686 106.963C363.926 106.409 364.046 105.689 364.046 104.803C364.046 103.862 363.899 103.022 363.603 102.284C363.087 101.139 362.164 100.567 360.835 100.567C360.521 100.567 360.124 100.705 359.644 100.982C359.57 101.019 359.515 101.038 359.478 101.038C359.386 101.038 359.312 100.991 359.256 100.899L358.204 99.4594C358.167 99.3855 358.149 99.3209 358.149 99.2656C358.149 99.2102 358.176 99.1456 358.232 99.0717L362.967 94.0047C363.022 93.9124 363.004 93.8663 362.911 93.8663H355.546C355.361 93.8663 355.269 93.774 355.269 93.5894V91.845C355.269 91.6604 355.361 91.5681 355.546 91.5681H366.289C366.474 91.5681 366.566 91.6604 366.566 91.845V93.8386C366.566 93.9309 366.52 94.0416 366.428 94.1708L362.219 98.7672C362.182 98.8041 362.173 98.841 362.191 98.8779C362.21 98.8964 362.247 98.9148 362.302 98.9333C363.243 99.0256 364.037 99.3209 364.683 99.8193C365.329 100.299 365.828 100.945 366.178 101.758ZM369.346 110.95C369.143 110.95 369.07 110.849 369.125 110.646L375.632 91.7896C375.687 91.6419 375.798 91.5681 375.964 91.5681H378.041C378.244 91.5681 378.318 91.6696 378.262 91.8727L371.755 110.729C371.7 110.876 371.589 110.95 371.423 110.95H369.346ZM393.07 102.367C393.273 103.179 393.374 104.019 393.374 104.886C393.374 105.754 393.263 106.557 393.042 107.295C392.691 108.477 392.017 109.418 391.021 110.12C390.042 110.803 388.87 111.144 387.504 111.144C386.157 111.144 385.003 110.812 384.043 110.147C383.083 109.483 382.409 108.578 382.022 107.434C381.837 106.917 381.736 106.465 381.717 106.077V106.022C381.717 105.874 381.8 105.8 381.966 105.8H384.154C384.32 105.8 384.412 105.883 384.431 106.049C384.449 106.179 384.495 106.372 384.569 106.631C384.772 107.314 385.123 107.858 385.621 108.264C386.138 108.652 386.757 108.846 387.477 108.846C388.233 108.846 388.87 108.643 389.387 108.237C389.922 107.812 390.282 107.231 390.467 106.492C390.596 106.105 390.661 105.569 390.661 104.886C390.661 104.277 390.605 103.714 390.495 103.197C390.365 102.496 390.033 101.961 389.498 101.591C388.981 101.204 388.335 101.01 387.56 101.01C386.84 101.01 386.194 101.176 385.621 101.508C385.049 101.822 384.68 102.247 384.514 102.782C384.458 102.948 384.357 103.031 384.209 103.031H381.994C381.81 103.031 381.717 102.939 381.717 102.754V91.845C381.717 91.6604 381.81 91.5681 381.994 91.5681H392.35C392.534 91.5681 392.627 91.6604 392.627 91.845V93.5894C392.627 93.774 392.534 93.8663 392.35 93.8663H384.486C384.412 93.8663 384.375 93.9032 384.375 93.977L384.348 99.764C384.348 99.8747 384.394 99.9024 384.486 99.847C384.929 99.4594 385.437 99.1733 386.009 98.9887C386.6 98.7856 387.218 98.6841 387.864 98.6841C389.156 98.6841 390.264 99.0071 391.187 99.6532C392.128 100.299 392.756 101.204 393.07 102.367Z"></path>
<path fill="#68D391" d="M85.1447 79.4394C85.1447 72.8948 90.4501 67.5894 96.9947 67.5894H150.1V132.545H96.9947C90.4501 132.545 85.1447 127.239 85.1447 120.695V79.4394Z"></path>
<path fill="#434190" d="M101.849 106.185C101.436 106.857 101.442 107.706 101.865 108.372L109.521 120.43C110.018 121.213 110.976 121.569 111.865 121.303L133.959 114.686C135.165 114.324 135.771 112.982 135.244 111.84L121.041 81.0793C120.349 79.5791 118.261 79.456 117.396 80.8643L101.849 106.185ZM120.664 88.1115C120.362 87.4141 119.34 87.5215 119.19 88.2664L113.722 115.45C113.607 116.023 114.144 116.513 114.705 116.345L129.97 111.796C130.416 111.663 130.645 111.172 130.461 110.745L120.664 88.1115Z" clip-rule="evenodd" fill-rule="evenodd"></path>
<path fill="url(#paint2_linear_7080_3388)" d="M775.106 400.846L912.163 325.292L1046.93 400.846L912.163 477.511L775.106 400.846Z"></path>
<path stroke-width="2.45727" stroke="#434190" fill="url(#paint3_linear_7080_3388)" d="M714.723 307.087L912.198 199.22L1106.37 307.087L912.198 416.54L714.723 307.087Z"></path>
<path stroke-width="2.45727" stroke="#434190" fill="url(#paint4_linear_7080_3388)" d="M654.532 202.528L913.101 67.8892L1167.34 202.528L913.101 339.148L654.532 202.528Z"></path>
<path stroke-width="2.45727" stroke="#434190" fill="url(#paint5_linear_7080_3388)" d="M602.156 89.4463L910.39 -61.8774L1213.46 89.4463L910.39 242.995L602.156 89.4463Z"></path>
</g>
<defs>
<linearGradient gradientUnits="userSpaceOnUse" y2="-31.9988" x2="123.302" y1="646.857" x1="1308.34" id="paint0_linear_7080_3388">
<stop stop-opacity="0.1" stop-color="white"></stop>
<stop stop-opacity="0" stop-color="white" offset="0.972576"></stop>
</linearGradient>
<linearGradient gradientUnits="userSpaceOnUse" y2="164.03" x2="935.5" y1="1069" x1="935.5" id="paint1_linear_7080_3388">
<stop stop-opacity="0" stop-color="#434190"></stop>
<stop stop-color="#434190" offset="0.741935"></stop>
</linearGradient>
<linearGradient gradientUnits="userSpaceOnUse" y2="477.511" x2="911.016" y1="325.292" x1="911.016" id="paint2_linear_7080_3388">
<stop stop-opacity="0" stop-color="white" offset="0.183968"></stop>
<stop stop-color="white" offset="1"></stop>
</linearGradient>
<linearGradient gradientUnits="userSpaceOnUse" y2="416.54" x2="910.545" y1="199.22" x1="910.545" id="paint3_linear_7080_3388">
<stop stop-opacity="0" stop-color="white" offset="0.173551"></stop>
<stop stop-opacity="0.6" stop-color="white" offset="1"></stop>
</linearGradient>
<linearGradient gradientUnits="userSpaceOnUse" y2="339.148" x2="910.938" y1="67.8892" x1="910.938" id="paint4_linear_7080_3388">
<stop stop-color="#EBF4FF"></stop>
<stop stop-opacity="0.5" stop-color="#A3BFFA" offset="0.512099"></stop>
<stop stop-opacity="0.2" stop-color="#EBF4FF" offset="1"></stop>
</linearGradient>
<linearGradient gradientUnits="userSpaceOnUse" y2="242.995" x2="907.81" y1="-61.8774" x1="907.81" id="paint5_linear_7080_3388">
<stop stop-color="#68D391"></stop>
<stop stop-opacity="0.6" stop-color="#C3DAFE" offset="0.512099"></stop>
<stop stop-color="#A3BFFA" offset="1"></stop>
</linearGradient>
<clipPath id="clip0_7080_3388">
<rect fill="white" height="474" width="844"></rect>
</clipPath>
</defs>
</svg>
