<svg xmlns="http://www.w3.org/2000/svg" fill="none" viewBox="0 0 844 423" height="423" width="844">
<g clip-path="url(#clip0_9_58322)">
<rect fill="url(#paint0_linear_9_58322)" transform="translate(0 0.5)" height="422" width="844"></rect>
<rect fill="url(#paint1_linear_9_58322)" transform="translate(0 0.5)" height="422" width="844"></rect>
<path fill="#2C7A7B" d="M486.795 333.008C454.543 333.083 421.479 336.511 392.149 321.281C379.13 314.523 367.585 305.678 355.597 297.504C343.364 289.156 330.079 278.851 317.672 271.118C281.795 248.754 257.247 252.994 227.475 256.597C210.624 258.634 184.311 272.683 165.642 271.118C119.313 267.242 85.7831 239.017 63.8717 223.861C41.0023 208.06 16.9784 194.941 -10.7055 187.96C-38.1193 181.053 -67.0069 179.711 -95.0348 183.711C-123.407 187.786 -150.55 197.625 -174.328 212.631C-200.514 229.178 -223.924 251.912 -256.201 256.061C-266.936 257.428 -286.882 257.403 -286.882 257.403L-296.902 407.967L562.11 421.666V351.344C541.476 336.014 512.391 332.958 486.795 333.008Z"></path>
<path fill="#236A69" d="M151.702 336.373L151.194 335.4L158.313 334.896L139.676 294.277L139.402 295.171L133.968 283.246L132.308 288.879L127.457 279.469L135.281 278.915L117.052 243.581L103.951 281.134L111.775 280.58L107.596 292.58L100.87 306.744L102.717 306.613L102.523 307.199L105.343 306.999L101.143 315.839L95.3779 309.723L84.6109 293.501L92.4351 292.947L74.7888 266.316L61.0711 295.168L68.8953 294.614L59.3777 314.626L48.9869 298.949L46.1995 304.864L37.2841 291.437L45.1083 290.883L27.462 264.252L13.7443 293.104L21.5685 292.55L14.6364 307.133L7.2559 291.075L1.69451 309.764L-12.4871 281.542L-22.94 312.652L-39.6179 294.932L-53.9398 315.25L-46.1156 314.696L-56.2663 329.103L-51.2964 328.751L-63.8559 346.793L-51.1961 345.897L-67.23 384.935L-42.3805 383.176L-42.345 383.678L-11.5518 381.497L-13.6866 389.955L42.191 385.999L38.8858 377.926L153.428 369.815L151.744 346.022L152.382 345.977L151.665 344.918L151.063 336.418L151.702 336.373ZM-23.1585 326.725L-21.5466 326.611L-21.8837 328.048L-23.1585 326.725ZM64.2105 314.721L62.2426 318.862L59.7108 315.039L64.2105 314.721ZM58.7754 326.137L57.3096 329.268L57.2089 329.275L55.3166 326.382L58.7754 326.137ZM-19.9362 319.805L-20.8196 323.533L-24.0666 320.097L-19.9362 319.805ZM-22.9499 312.989L-25.0131 319.121L-30.304 313.51L-22.9499 312.989Z"></path>
<path fill="#236A69" d="M351.918 355.713L351.48 354.706H358.617L342.896 312.872L342.559 313.744L337.981 301.466L335.928 306.968L331.753 297.239H339.597L323.909 260.705L308.188 297.239H316.032L311.016 308.913L303.307 322.567H305.158L304.923 323.138H307.75L302.936 331.659L297.617 325.151L288.023 308.209H295.867L280.146 280.398L264.424 308.209H272.268L261.361 327.499L252.103 311.128L248.905 316.831L240.96 302.808H248.804L233.083 274.996L217.362 302.808H225.205L217.261 316.864L211.033 300.325L204.165 318.575L192.012 289.422L179.388 319.716L164.004 300.862L148.282 320.118H156.126L144.983 333.772H149.966L136.163 350.882H148.855L130.104 388.69H155.015V389.193H185.885L183.159 397.48H239.176L236.449 389.193H351.279V365.341H351.918L351.279 364.234V355.713H351.918ZM178.176 333.739H179.792L179.355 335.148L178.176 333.739ZM266.175 327.935L263.919 331.927L261.664 327.935H266.175ZM259.947 338.939L258.264 341.958H258.163L256.48 338.939H259.947ZM181.879 327.063L180.735 330.719L177.739 327.063H181.879ZM179.355 320.051L176.863 326.023L171.982 320.051H179.355Z"></path>
<path fill="#2C7A7B" d="M282.919 440.086C313.117 440.73 343.97 447.541 371.902 420.06C384.3 407.867 395.383 391.822 406.859 377.014C418.571 361.891 430.843 349.011 444.207 339.616C470.866 320.823 500.316 312.563 528.081 319.641C543.797 323.644 568.008 334.172 585.536 331.594C629.035 325.212 661.3 273.959 682.284 246.499C704.185 217.869 727.084 194.18 753.22 181.807C779.102 169.567 806.192 167.56 832.312 175.339C858.752 183.261 883.865 201.738 905.667 229.643C929.675 260.413 950.894 302.488 980.989 310.608C990.998 313.284 1009.68 313.552 1009.68 313.552L1006.95 475.959L212.001 462.604L211.834 472.54C231.627 444.741 258.954 439.592 282.919 440.086Z"></path>
<path fill="#236A69" d="M852.007 360.876L851.684 359.827L858.776 360.624L847.821 317.297L847.389 318.126L844.209 305.413L841.555 310.652L838.492 300.518L846.287 301.393L834.773 263.337L815.074 297.888L822.869 298.764L816.582 309.806L807.397 322.514L809.237 322.721L808.939 323.261L811.749 323.577L806.015 331.508L801.455 324.447L793.811 306.54L801.606 307.415L789.086 278.024L770.36 303.907L778.154 304.782L765.163 322.735L757.79 305.433L753.975 310.743L747.645 295.922L755.44 296.797L742.919 267.405L724.193 293.289L731.988 294.164L722.525 307.246L718.181 290.115L709.32 307.485L700.496 277.158L684.57 305.854L671.386 285.401L653.614 302.784L661.409 303.659L648.812 315.984L653.763 316.54L638.138 332.003L650.75 333.419L627.898 368.899L652.654 371.678L652.598 372.179L683.275 375.623L679.641 383.553L735.308 389.803L733.523 381.265L847.635 394.077L850.297 370.373L850.932 370.445L850.42 369.273L851.371 360.805L852.007 360.876ZM681.801 319.654L683.407 319.835L682.815 321.186L681.801 319.654ZM769.898 323.705L767.211 327.421L765.415 323.202L769.898 323.705ZM762.482 333.945L760.472 336.758L760.372 336.747L759.036 333.559L762.482 333.945ZM686.226 313.433L684.681 316.939L682.111 312.971L686.226 313.433ZM684.5 306.184L681.358 311.84L677.173 305.361L684.5 306.184Z"></path>
<path fill="#319795" d="M-154.288 437.511C-154.288 437.511 0.0317461 334.609 133.439 346.607C193.373 351.981 390.309 407.488 540.863 351.083C630.365 314.275 767.855 282.244 910.72 437.511C878.862 437.511 -154.288 437.511 -154.288 437.511Z"></path>
<ellipse fill="#2B8987" ry="20.0158" rx="306.075" cy="382.468" cx="431.173"></ellipse>
<path fill="#F6E05E" d="M390.52 301.568L347.433 302.113L368.507 266.656L390.52 301.568Z"></path>
<path fill="#F6E05E" d="M383.307 284.885L354.173 285.254L368.439 261.253L383.307 284.885Z"></path>
<path fill="#E8D97E" d="M396.114 325.033L342.385 325.713L368.694 281.45L396.114 325.033Z"></path>
<path fill="#F2CA42" d="M375.326 376.377L367.225 376.48L367.459 394.962L375.56 394.86L375.326 376.377Z"></path>
<path fill="#E8D97E" d="M413.106 378.053L326.742 379.146L368.806 290.332L413.106 378.053Z"></path>
<path fill="#E8D97E" d="M386.419 325.156L396.115 325.034L381.439 301.681L390.52 301.566L380.044 284.925L383.307 284.884L369.549 263.023L376.402 284.971L374.794 284.992L380.02 301.699L375.621 301.754L382.919 325.201L378.189 325.261L391.586 378.323L413.106 378.051L386.419 325.156Z"></path>
<path fill="#FFEF8E" d="M605.094 259.432L557.536 255.982L584.107 218.869L605.094 259.432Z"></path>
<path fill="#FFEF8E" d="M598.711 240.359L566.553 238.026L584.539 212.905L598.711 240.359Z"></path>
<path fill="#FFEF8E" d="M609.057 285.832L549.752 281.53L582.922 235.201L609.057 285.832Z"></path>
<path fill="#F2CA42" d="M581.476 338.135L568.518 337.195L566.867 359.947L581.476 359.947L581.476 338.135Z"></path>
<path fill="#E8D97E" d="M622.804 345.885L527.479 338.97L582.21 245L622.804 345.885Z"></path>
<path fill="#D5C773" d="M598.352 285.056L609.053 285.833L595.068 258.704L605.091 259.431L595.106 240.099L598.708 240.36L585.594 214.963L591.086 239.807L589.311 239.678L593.502 258.591L588.647 258.238L594.488 284.776L589.268 284.397L599.049 344.163L622.802 345.886L598.352 285.056Z"></path>
<path fill="#2B6CB0" d="M390.164 218.276C399.867 186.569 381.853 153.054 349.93 143.417C318.007 133.781 284.262 151.672 274.56 183.379C264.858 215.085 282.871 248.601 314.794 258.237C346.717 267.874 380.462 249.982 390.164 218.276Z"></path>
<path fill="#2B6CB0" d="M342.27 254.904C352.185 222.223 333.548 187.747 300.643 177.9C267.739 168.053 233.028 186.564 223.113 219.245C213.199 251.926 231.836 286.402 264.741 296.249C297.645 306.096 332.356 287.585 342.27 254.904Z"></path>
<path fill="#2B6CB0" d="M394.115 274.195C402.924 245.159 386.365 214.529 357.131 205.78C327.898 197.032 297.058 213.478 288.25 242.513C279.441 271.549 296 302.179 325.234 310.928C354.468 319.676 385.307 303.23 394.115 274.195Z"></path>
<path fill="#F8EABA" d="M316.127 241.472H312.252L308.77 388.43H318.612L316.127 241.472Z"></path>
<path fill="#F8EABA" d="M316.127 311.582H312.252V285.091C312.252 277.65 318.323 271.621 325.814 271.621H337.31C342.67 271.621 346.997 267.323 346.997 261.999V244.68H350.872V261.999C350.872 269.44 344.801 275.469 337.31 275.469H325.814C320.454 275.469 316.127 279.767 316.127 285.091V311.582Z"></path>
<path fill="#F8EABA" d="M316.063 307.348H312.188V277.393C312.188 271.556 308.7 263.153 304.567 259.048L292.49 247.117C287.647 242.306 283.707 232.877 283.707 226.078V223.26H287.582V226.078C287.582 231.915 291.069 240.318 295.203 244.423L307.28 256.418C312.123 261.228 316.063 270.658 316.063 277.457V307.348Z"></path>
<path fill="#F8EABA" d="M316.126 251.093H312.251V239.547C312.251 232.491 316.836 223.896 322.713 219.919L333.046 212.992C337.826 209.785 341.83 202.729 341.83 197.533V186.949H345.705V197.533C345.705 204.012 341.119 212.222 335.242 216.199L324.909 223.126C320.13 226.334 316.126 233.839 316.126 239.547V251.093Z"></path>
<path fill="#2B6CB0" d="M704.789 226.132C713.603 197.329 697.239 166.884 668.239 158.13C639.24 149.375 608.586 165.628 599.772 194.431C590.958 223.234 607.322 253.68 636.322 262.434C665.321 271.188 695.975 254.935 704.789 226.132Z"></path>
<path fill="#2B6CB0" d="M671.354 293.572C679.356 267.196 664.314 239.371 637.758 231.423C611.201 223.476 583.186 238.416 575.185 264.792C567.183 291.168 582.225 318.993 608.781 326.941C635.338 334.888 663.353 319.948 671.354 293.572Z"></path>
<path fill="#2B6CB0" d="M729.434 293.568C737.435 267.192 722.393 239.367 695.837 231.419C669.28 223.472 641.265 238.412 633.264 264.788C625.262 291.165 640.304 318.989 666.86 326.937C693.417 334.884 721.432 319.944 729.434 293.568Z"></path>
<path fill="#F8EABA" d="M654.042 265.357H650.522L647.358 373.425H656.3L654.042 265.357Z"></path>
<path fill="#F8EABA" d="M654.042 329.045H650.521V304.98C650.521 298.221 656.036 292.744 662.842 292.744H673.284C678.154 292.744 682.085 288.84 682.085 284.003V268.271H685.605V284.003C685.605 290.762 680.09 296.24 673.284 296.24H662.842C657.972 296.24 654.042 300.144 654.042 304.98V329.045Z"></path>
<path fill="#F8EABA" d="M653.983 325.2H650.463V297.988C650.463 292.686 647.295 285.052 643.54 281.323L632.57 270.485C628.17 266.115 624.591 257.549 624.591 251.373V235.057H628.111V251.373C628.111 256.675 631.279 264.308 635.034 268.038L646.004 278.934C650.404 283.304 653.983 291.87 653.983 298.046V325.2Z"></path>
<path fill="#F8EABA" d="M654.042 274.097H650.521V263.609C650.521 257.199 654.687 249.391 660.026 245.778L669.412 239.485C673.754 236.572 677.391 230.162 677.391 225.442V215.828H680.911V225.442C680.911 231.327 676.746 238.786 671.407 242.398L662.02 248.692C657.679 251.605 654.042 258.423 654.042 263.609V274.097Z"></path>
<path fill="#F8EABA" d="M654.237 338.193H650.846V324.5C650.846 319.197 648.415 312.263 645.533 309.292C642.028 305.679 639.259 297.871 639.259 291.578V221.072H642.65V291.578C642.65 296.88 645.081 303.814 647.963 306.786C651.468 310.399 654.237 318.207 654.237 324.5V338.193Z"></path>
<path fill="#4299E1" d="M123.93 228.304C115.553 200.93 131.105 171.994 158.667 163.674C186.228 155.354 215.362 170.801 223.739 198.175C232.116 225.55 216.563 254.486 189.002 262.806C161.44 271.126 132.306 255.679 123.93 228.304Z"></path>
<path fill="#4299E1" d="M155.704 292.401C148.099 267.332 162.395 240.887 187.635 233.334C212.874 225.781 239.5 239.979 247.105 265.048C254.71 290.116 240.414 316.562 215.174 324.115C189.935 331.668 163.309 317.469 155.704 292.401Z"></path>
<path fill="#4299E1" d="M100.507 292.397C92.9019 267.328 107.198 240.883 132.438 233.33C157.677 225.777 184.303 239.976 191.908 265.044C199.513 290.113 185.217 316.558 159.977 324.111C134.737 331.664 108.112 317.465 100.507 292.397Z"></path>
<path fill="#F8EABA" d="M172.16 265.586H175.505L178.512 379.392H170.014L172.16 265.586Z"></path>
<path fill="#F8EABA" d="M172.158 326.116H175.504V303.244C175.504 296.82 170.263 291.615 163.795 291.615H153.87C149.242 291.615 145.506 287.904 145.506 283.308V268.355H142.16V283.308C142.16 289.732 147.402 294.937 153.87 294.937H163.795C168.423 294.937 172.158 298.648 172.158 303.244V326.116Z"></path>
<path fill="#F8EABA" d="M172.214 322.46H175.559V296.598C175.559 291.558 178.57 284.304 182.139 280.759L192.565 270.459C196.747 266.305 200.148 258.164 200.148 252.294V236.788H196.803V252.294C196.803 257.334 193.792 264.588 190.223 268.133L179.797 278.489C175.615 282.642 172.214 290.783 172.214 296.653V322.46Z"></path>
<path fill="#F8EABA" d="M172.159 273.893H175.505V263.924C175.505 257.832 171.546 250.412 166.472 246.978L157.551 240.997C153.425 238.228 149.968 232.136 149.968 227.65V218.513H146.622V227.65C146.622 233.244 150.581 240.332 155.655 243.766L164.576 249.747C168.702 252.516 172.159 258.995 172.159 263.924V273.893Z"></path>
<path fill="#F8EABA" d="M171.971 334.81H175.194V321.796C175.194 316.756 177.504 310.166 180.244 307.342C183.575 303.908 186.207 296.487 186.207 290.506V223.497H182.984V290.506C182.984 295.546 180.674 302.136 177.934 304.961C174.604 308.394 171.971 315.815 171.971 321.796V334.81Z"></path>
<path fill="#4299E1" d="M460.029 280.409C425.452 245.845 425.452 189.805 460.029 155.24C494.605 120.676 550.665 120.676 585.241 155.24C619.818 189.805 619.818 245.845 585.241 280.409C550.665 314.973 494.605 314.973 460.029 280.409Z"></path>
<path fill="#F8EABA" d="M520.528 261.053C520.528 257.975 518.604 253.359 516.435 251.19L496.598 231.36C493.624 228.387 491.28 222.756 491.28 218.524V179.388H495.478V218.559C495.478 221.637 497.402 226.254 499.572 228.422L519.409 248.252C519.794 248.637 520.179 249.057 520.528 249.546V228.562V204.92C520.528 200.688 522.977 195.092 526.126 192.259L531.829 187.048C534.068 184.984 536.062 180.508 536.062 177.465V166.798H540.261V177.465C540.261 181.697 537.812 187.293 534.663 190.126L528.96 195.337C526.721 197.4 524.727 201.877 524.727 204.92V221.078C526.056 220.273 527.596 219.783 529.275 219.783H541.765C544.284 219.783 546.313 217.755 546.313 215.237V188.307H550.512V215.237C550.512 220.063 546.593 223.98 541.765 223.98H529.275C526.756 223.98 524.727 226.009 524.727 228.527V261.053V294.278V301.623V312.954C526.126 310.261 527.841 307.813 529.66 305.994L546.208 289.452L549.182 292.425L532.634 308.967C528.4 313.199 524.832 321.803 524.832 327.783V350.062H524.727L529.27 383.217H512.957L520.528 335.303H520.423V313.024C520.423 307.044 516.855 298.44 512.622 294.208L496.073 277.665L499.047 274.693L515.595 291.235C517.45 293.089 519.129 295.502 520.528 298.195V294.208V261.053Z"></path>
<path fill="#FFEF8E" d="M463.448 233.567L391.724 238.522L423.5 177.478L463.448 233.567Z"></path>
<path fill="#FFEF8E" d="M449.867 206.455L401.369 209.805L422.879 168.484L449.867 206.455Z"></path>
<path fill="#FFEF8E" d="M474.972 272.131L385.534 278.311L425.201 202.107L474.972 272.131Z"></path>
<path fill="#F2CA42" d="M445.173 359.804L428.613 360.948L430.726 391.524L447.286 390.379L445.173 359.804Z"></path>
<path fill="#FFEF8E" d="M508.258 358.855L364.495 368.788L426.225 216.89L508.258 358.855Z"></path>
<path fill="#E8D97E" d="M458.833 273.25L474.973 272.135L448.332 234.612L463.449 233.568L444.435 206.832L449.868 206.456L424.896 171.333L438.373 207.251L435.696 207.436L445.97 234.775L438.648 235.281L453.007 273.653L445.134 274.197L472.434 361.33L508.256 358.855L458.833 273.25Z"></path>
<path fill="white" d="M241.859 58.046C241.859 50.2158 248.207 43.8682 256.037 43.8682H321.089C327.998 43.8682 333.598 49.469 333.598 56.378V72.2239H256.037C248.207 72.2239 241.859 65.8762 241.859 58.046V58.046Z"></path>
<path fill="white" d="M595.76 85.5675C595.76 77.2767 589.039 70.5557 580.748 70.5557H498.183C491.274 70.5557 485.673 76.1565 485.673 83.0655V100.579H580.748C589.039 100.579 595.76 93.8583 595.76 85.5675V85.5675Z"></path>
<path fill="#FFEF8E" d="M273.571 287.632L224.608 285.156L251.084 246.41L273.571 287.632Z"></path>
<path fill="#FFEF8E" d="M266.581 268.171L233.473 266.497L251.396 240.269L266.581 268.171Z"></path>
<path fill="#FFEF8E" d="M278.238 314.68L217.182 311.592L250.234 263.224L278.238 314.68Z"></path>
<path fill="#F2CA42" d="M250.962 371.12L238.896 370.51L238.029 387.654L250.095 388.264L250.962 371.12Z"></path>
<path fill="#FFEF8E" d="M293.722 376.099L195.582 371.136L249.725 273.313L293.722 376.099Z"></path>
<path fill="#E8D97E" d="M267.218 314.122L278.236 314.679L263.249 287.108L273.569 287.63L262.869 267.983L266.578 268.171L252.526 242.36L258.731 267.774L256.904 267.681L261.637 287.027L256.639 286.774L263.24 313.92L257.866 313.649L269.265 374.861L293.719 376.098L267.218 314.122Z"></path>
<circle fill="white" transform="matrix(-1 0 0 1 139.925 127.453)" r="9.63724" cy="9.63724" cx="9.63724"></circle>
<circle fill="white" transform="matrix(-1 0 0 1 123.06 144.317)" r="4.81862" cy="4.81862" cx="4.81862"></circle>
<path fill="white" d="M202.567 123.097C202.567 116.188 196.967 110.587 190.058 110.587H135.57C128.661 110.587 123.06 116.188 123.06 123.097V124.579C123.06 131.488 128.661 137.089 135.57 137.089H190.058C196.967 137.089 202.567 131.488 202.567 124.579V123.097Z"></path>
<circle fill="#A0AEC0" transform="matrix(-1 0 0 1 168.096 120.223)" r="4.81862" cy="4.81862" cx="4.81862"></circle>
<circle fill="#718096" transform="matrix(-1 0 0 1 184.961 120.223)" r="4.81862" cy="4.81862" cx="4.81862"></circle>
<circle fill="#CBD5E0" transform="matrix(-1 0 0 1 151.229 120.223)" r="4.81862" cy="4.81862" cx="4.81862"></circle>
<circle fill="white" transform="matrix(-1 0 0 1 682.021 147.468)" r="9.63724" cy="9.63724" cx="9.63724"></circle>
<circle fill="white" transform="matrix(-1 0 0 1 665.155 164.333)" r="4.81862" cy="4.81862" cx="4.81862"></circle>
<path fill="white" d="M744.663 143.112C744.663 136.203 739.062 130.602 732.153 130.602H677.666C670.757 130.602 665.156 136.203 665.156 143.112V144.595C665.156 151.504 670.757 157.104 677.666 157.104H732.153C739.062 157.104 744.663 151.504 744.663 144.595V143.112Z"></path>
<circle fill="#A0AEC0" transform="matrix(-1 0 0 1 710.189 140.239)" r="4.81862" cy="4.81862" cx="4.81862"></circle>
<circle fill="#718096" transform="matrix(-1 0 0 1 727.056 140.239)" r="4.81862" cy="4.81862" cx="4.81862"></circle>
<circle fill="#CBD5E0" transform="matrix(-1 0 0 1 693.323 140.239)" r="4.81862" cy="4.81862" cx="4.81862"></circle>
<circle fill="#A0AEC0" transform="matrix(-1 0 0 1 285.039 53.875)" r="4.81862" cy="4.81862" cx="4.81862"></circle>
<circle fill="#718096" transform="matrix(-1 0 0 1 301.905 53.875)" r="4.81862" cy="4.81862" cx="4.81862"></circle>
<circle fill="#CBD5E0" transform="matrix(-1 0 0 1 268.173 53.875)" r="4.81862" cy="4.81862" cx="4.81862"></circle>
<circle fill="#A0AEC0" transform="matrix(-1 0 0 1 563.596 80.563)" r="4.81862" cy="4.81862" cx="4.81862"></circle>
<circle fill="#718096" transform="matrix(-1 0 0 1 580.461 80.563)" r="4.81862" cy="4.81862" cx="4.81862"></circle>
<circle fill="#CBD5E0" transform="matrix(-1 0 0 1 546.729 80.563)" r="4.81862" cy="4.81862" cx="4.81862"></circle>
<path fill="#BEE3F8" d="M372.249 70.7811C369.59 71.9666 366.752 72.757 363.77 73.1162C366.824 71.284 369.159 68.41 370.237 64.9611C367.399 66.6496 364.237 67.8711 360.86 68.5537C358.166 65.6796 354.358 63.8833 350.119 63.8833C341.963 63.8833 335.389 70.4936 335.389 78.6129C335.389 79.7625 335.533 80.8762 335.784 81.9899C323.533 81.3792 312.684 75.5233 305.391 66.5777C304.134 68.7692 303.379 71.284 303.379 73.9785C303.379 79.0799 305.966 83.6066 309.954 86.2651C307.546 86.1932 305.247 85.5106 303.271 84.4329C303.271 84.5047 303.271 84.5406 303.271 84.6125C303.271 91.7617 308.337 97.7254 315.091 99.0547C313.869 99.378 312.54 99.5576 311.211 99.5576C310.277 99.5576 309.343 99.4499 308.445 99.3062C310.313 105.162 315.774 109.437 322.204 109.545C317.175 113.497 310.816 115.868 303.882 115.868C302.697 115.868 301.511 115.796 300.361 115.652C306.9 119.82 314.624 122.263 322.959 122.263C350.083 122.263 364.884 99.8091 364.884 80.3373C364.884 79.6907 364.884 79.0799 364.848 78.4333C367.758 76.3496 370.273 73.7629 372.249 70.7811Z"></path>
<path fill="#BEE3F8" d="M447.02 98.3487C449.374 99.3988 451.888 100.099 454.529 100.417C451.824 98.7942 449.756 96.2486 448.801 93.1939C451.315 94.6894 454.115 95.7713 457.107 96.3759C459.493 93.8303 462.866 92.2393 466.621 92.2393C473.844 92.2393 479.667 98.0941 479.667 105.285C479.667 106.304 479.54 107.29 479.317 108.277C490.167 107.736 499.777 102.549 506.237 94.6258C507.35 96.5668 508.019 98.7942 508.019 101.181C508.019 105.699 505.727 109.708 502.195 112.063C504.327 111.999 506.364 111.395 508.114 110.44C508.114 110.504 508.114 110.536 508.114 110.599C508.114 116.932 503.627 122.214 497.645 123.391C498.727 123.677 499.904 123.837 501.082 123.837C501.909 123.837 502.736 123.741 503.532 123.614C501.877 128.8 497.041 132.587 491.345 132.682C495.8 136.183 501.432 138.283 507.573 138.283C508.623 138.283 509.673 138.219 510.691 138.092C504.9 141.783 498.059 143.947 490.677 143.947C466.653 143.947 453.543 124.059 453.543 106.813C453.543 106.24 453.543 105.699 453.574 105.126C450.997 103.281 448.77 100.99 447.02 98.3487Z"></path>
<path fill-opacity="0.2" fill="url(#paint2_linear_9_58322)" d="M560.498 19.0444C561.199 20.7368 561.797 22.4942 562.284 24.3112C568.318 46.8295 554.954 69.9756 532.436 76.0094C510.15 81.9808 487.249 68.9536 480.93 46.8559C460.098 49.8118 439.862 36.8136 434.279 15.9766C428.245 -6.54175 441.608 -29.6878 464.127 -35.7216C478.131 -39.474 492.378 -35.7242 502.601 -26.9358C504.688 -38.7736 513.407 -48.9267 525.783 -52.2429C539.697 -55.9713 553.929 -49.9045 561.156 -38.2695C561.263 -38.2995 561.371 -38.329 561.479 -38.3579C577.406 -42.6257 593.778 -33.1736 598.046 -17.246C602.314 -1.31838 592.861 15.0532 576.934 19.321C571.328 20.8231 565.667 20.6256 560.498 19.0444ZM14.4489 103.913C14.3587 103.914 14.2684 103.914 14.178 103.914C0.820525 103.914 -10.0078 93.0861 -10.0078 79.7287C-10.0078 66.3712 0.820525 55.5429 14.178 55.5429C18.8792 55.5429 23.2672 56.8843 26.9801 59.2052C26.7868 57.7339 26.6871 56.2332 26.6871 54.7092C26.6871 35.8246 41.9962 20.5155 60.8808 20.5155C79.571 20.5155 94.7588 35.5108 95.0696 54.1268C111.991 56.1807 125.1 70.5942 125.1 88.0696C125.1 106.954 109.791 122.263 90.9066 122.263C79.161 122.263 68.7986 116.341 62.6424 107.32C58.5282 116.146 49.5769 122.263 39.1969 122.263C27.5279 122.263 17.6644 114.532 14.4489 103.913ZM862.348 88.0699C862.348 106.955 847.039 122.264 828.154 122.264C816.409 122.264 806.047 116.342 799.891 107.321C795.777 116.147 786.826 122.264 776.446 122.264C764.777 122.264 754.913 114.533 751.698 103.914C751.607 103.915 751.517 103.915 751.426 103.915C738.068 103.915 727.24 93.087 727.24 79.7296C727.24 66.3721 738.068 55.5438 751.426 55.5438C756.127 55.5438 760.515 56.8853 764.228 59.2063C764.035 57.735 763.935 56.2342 763.935 54.7101C763.935 35.8254 779.244 20.5164 798.129 20.5164C816.819 20.5164 832.007 35.5114 832.318 54.1272C849.239 56.1812 862.348 70.5946 862.348 88.0699ZM190.551 95.6055C187.473 84.1204 194.289 72.315 205.774 69.2376C212.917 67.3237 220.183 69.2362 225.397 73.7185C226.462 67.681 230.909 62.5029 237.221 60.8115C244.318 58.9099 251.576 62.0042 255.262 67.9385L255.332 67.9191L255.379 67.9063L255.428 67.8932C263.551 65.7165 271.901 70.5374 274.078 78.6611C276.255 86.7848 271.434 95.1349 263.31 97.3116C260.451 98.0777 257.564 97.977 254.928 97.1706C255.285 98.0339 255.59 98.9303 255.838 99.8571C258.916 111.342 252.1 123.148 240.615 126.225C229.248 129.271 217.568 122.626 214.345 111.355C203.719 112.863 193.398 106.233 190.551 95.6055ZM626.063 63.3287C622.986 51.8435 629.802 40.0382 641.287 36.9607C648.429 35.0469 655.696 36.9593 660.91 41.4417C661.975 35.4043 666.421 30.2262 672.734 28.5348C679.83 26.6333 687.089 29.7275 690.775 35.6617C690.83 35.6464 690.885 35.6313 690.94 35.6165C699.064 33.4398 707.414 38.2607 709.591 46.3844C711.767 54.508 706.946 62.8581 698.823 65.0349C695.964 65.8009 693.077 65.7003 690.441 64.894C690.798 65.7571 691.103 66.6533 691.351 67.5799C694.429 79.0651 687.613 90.8705 676.128 93.9479C664.761 96.9936 653.081 90.3491 649.858 79.0782C639.232 80.5862 628.911 73.9566 626.063 63.3287Z" clip-rule="evenodd" fill-rule="evenodd"></path>
</g>
<defs>
<linearGradient gradientUnits="userSpaceOnUse" y2="133.596" x2="731.391" y1="250.856" x1="255.838" id="paint0_linear_9_58322">
<stop stop-color="white"></stop>
<stop stop-color="#EDF2F7" offset="1"></stop>
</linearGradient>
<linearGradient gradientUnits="userSpaceOnUse" y2="422" x2="422" y1="0" x1="422" id="paint1_linear_9_58322">
<stop stop-color="#4AABFF"></stop>
<stop stop-color="#BEE3F8" offset="1"></stop>
</linearGradient>
<linearGradient gradientUnits="userSpaceOnUse" y2="126.965" x2="266.535" y1="-30.2717" x1="266.535" id="paint2_linear_9_58322">
<stop stop-color="white"></stop>
<stop stop-opacity="0" stop-color="white" offset="1"></stop>
</linearGradient>
<clipPath id="clip0_9_58322">
<rect transform="translate(0 0.5)" fill="white" height="422" width="844"></rect>
</clipPath>
</defs>
</svg>
