<svg xmlns="http://www.w3.org/2000/svg" fill="none" viewBox="0 0 844 474" height="474" width="844">
<g clip-path="url(#clip0_7973_6019)">
<rect fill="url(#paint0_linear_7973_6019)" height="474" width="844"></rect>
<line stroke-opacity="0.1" stroke="url(#paint1_linear_7973_6019)" y2="473.527" x2="2128.33" y1="-5.72011" x1="805.185"></line>
<line stroke-opacity="0.1" stroke="url(#paint2_linear_7973_6019)" y2="473.527" x2="1982.47" y1="-5.72011" x1="659.328"></line>
<line stroke-opacity="0.1" stroke="url(#paint3_linear_7973_6019)" y2="473.527" x2="1836.61" y1="-5.72011" x1="513.469"></line>
<line stroke-opacity="0.1" stroke="url(#paint4_linear_7973_6019)" y2="473.527" x2="1690.75" y1="-5.72011" x1="367.612"></line>
<line stroke-opacity="0.1" stroke="url(#paint5_linear_7973_6019)" y2="473.527" x2="1544.89" y1="-5.72011" x1="221.754"></line>
<line stroke-opacity="0.1" stroke="url(#paint6_linear_7973_6019)" y2="473.527" x2="1399.04" y1="-5.72011" x1="75.8959"></line>
<line stroke-opacity="0.1" stroke="url(#paint7_linear_7973_6019)" y2="473.527" x2="1253.18" y1="-5.72011" x1="-69.962"></line>
<line stroke-opacity="0.1" stroke="url(#paint8_linear_7973_6019)" y2="473.527" x2="1107.32" y1="-5.72011" x1="-215.82"></line>
<line stroke-opacity="0.1" stroke="url(#paint9_linear_7973_6019)" y2="473.527" x2="961.462" y1="-5.72011" x1="-361.678"></line>
<line stroke-opacity="0.1" stroke="url(#paint10_linear_7973_6019)" y2="473.527" x2="815.604" y1="-5.72011" x1="-507.536"></line>
<line stroke-opacity="0.1" stroke="url(#paint11_linear_7973_6019)" y2="473.527" x2="669.746" y1="-5.72011" x1="-653.394"></line>
<line stroke-opacity="0.1" stroke="url(#paint12_linear_7973_6019)" y2="473.527" x2="523.888" y1="-5.72011" x1="-799.252"></line>
<line stroke-opacity="0.1" stroke="url(#paint13_linear_7973_6019)" transform="matrix(-0.940225 0.340554 0.340554 0.940225 243.705 -5.25)" y2="-0.5" x2="1407.26" y1="-0.5"></line>
<line stroke-opacity="0.1" stroke="url(#paint14_linear_7973_6019)" transform="matrix(-0.940225 0.340554 0.340554 0.940225 389.563 -5.25)" y2="-0.5" x2="1407.26" y1="-0.5"></line>
<line stroke-opacity="0.1" stroke="url(#paint15_linear_7973_6019)" transform="matrix(-0.940225 0.340554 0.340554 0.940225 535.421 -5.25)" y2="-0.5" x2="1407.26" y1="-0.5"></line>
<line stroke-opacity="0.1" stroke="url(#paint16_linear_7973_6019)" transform="matrix(-0.940225 0.340554 0.340554 0.940225 681.279 -5.25)" y2="-0.5" x2="1407.26" y1="-0.5"></line>
<line stroke-opacity="0.1" stroke="url(#paint17_linear_7973_6019)" transform="matrix(-0.940225 0.340554 0.340554 0.940225 827.137 -5.25)" y2="-0.5" x2="1407.26" y1="-0.5"></line>
<line stroke-opacity="0.1" stroke="url(#paint18_linear_7973_6019)" transform="matrix(-0.940225 0.340554 0.340554 0.940225 972.995 -5.25)" y2="-0.5" x2="1407.26" y1="-0.5"></line>
<line stroke-opacity="0.1" stroke="url(#paint19_linear_7973_6019)" transform="matrix(-0.940225 0.340554 0.340554 0.940225 1118.85 -5.25)" y2="-0.5" x2="1407.26" y1="-0.5"></line>
<line stroke-opacity="0.1" stroke="url(#paint20_linear_7973_6019)" transform="matrix(-0.940225 0.340554 0.340554 0.940225 1264.71 -5.25)" y2="-0.5" x2="1407.26" y1="-0.5"></line>
<line stroke-opacity="0.1" stroke="url(#paint21_linear_7973_6019)" transform="matrix(-0.940225 0.340554 0.340554 0.940225 1410.57 -5.25)" y2="-0.5" x2="1407.26" y1="-0.5"></line>
<line stroke-opacity="0.1" stroke="url(#paint22_linear_7973_6019)" transform="matrix(-0.940225 0.340554 0.340554 0.940225 1556.43 -5.25)" y2="-0.5" x2="1407.26" y1="-0.5"></line>
<line stroke-opacity="0.1" stroke="url(#paint23_linear_7973_6019)" transform="matrix(-0.940225 0.340554 0.340554 0.940225 1702.28 -5.25)" y2="-0.5" x2="1407.26" y1="-0.5"></line>
<line stroke-opacity="0.1" stroke="url(#paint24_linear_7973_6019)" transform="matrix(-0.940225 0.340554 0.340554 0.940225 1848.14 -5.25)" y2="-0.5" x2="1407.26" y1="-0.5"></line>
<line stroke-opacity="0.1" stroke="url(#paint25_linear_7973_6019)" transform="matrix(-0.940225 0.340554 0.340554 0.940225 1994 -5.25)" y2="-0.5" x2="1407.26" y1="-0.5"></line>
<path stroke-linejoin="round" stroke-width="2" stroke="white" fill="white" d="M160.857 218.383L213.584 236.9L160.857 255.418L108.131 236.9L134.494 227.642L160.857 218.383Z"></path>
<path stroke-linejoin="round" stroke-width="2" stroke="white" fill="url(#paint26_linear_7973_6019)" d="M108.126 384.072V236.469L160.853 254.897V402.5L108.126 384.072Z"></path>
<path stroke-linejoin="round" stroke-width="2" stroke="white" fill="url(#paint27_linear_7973_6019)" d="M213.58 384.194V236.906L160.854 255.334V402.622L213.58 384.194Z"></path>
<path stroke-linejoin="round" stroke-width="2" stroke="white" fill="white" d="M319.483 209.422L425.107 246.813L319.483 284.205L213.86 246.813L266.672 228.118L319.483 209.422Z"></path>
<path stroke-linejoin="round" stroke-width="2" stroke="white" fill="#C3DAFE" d="M213.863 480.574V246.812L319.487 284.023V517.785L213.863 480.574Z"></path>
<path stroke-linejoin="round" stroke-width="2" stroke="white" fill="url(#paint28_linear_7973_6019)" d="M425.11 495.063V246.812L319.487 284.023V532.274L425.11 495.063Z"></path>
<path stroke-linejoin="round" stroke-width="2" stroke="white" fill="white" d="M504.7 375.195L610.324 412.587L504.7 449.978L399.077 412.587L451.889 393.891L504.7 375.195Z"></path>
<path stroke-linejoin="round" stroke-width="2" stroke="white" fill="#C3DAFE" d="M399.08 646.347V412.586L504.704 449.797V683.558L399.08 646.347Z"></path>
<path stroke-linejoin="round" stroke-width="2" stroke="white" fill="url(#paint29_linear_7973_6019)" d="M610.327 660.837V412.586L504.704 449.797V698.048L610.327 660.837Z"></path>
<path stroke-linejoin="round" stroke-width="2" stroke="white" fill="white" d="M161.794 347.102L267.417 384.493L161.794 421.885L56.17 384.493L108.982 365.797L161.794 347.102Z"></path>
<path stroke-linejoin="round" stroke-width="2" stroke="white" fill="#C3DAFE" d="M56.1734 618.254V384.492L161.797 421.703V655.465L56.1734 618.254Z"></path>
<path stroke-linejoin="round" stroke-width="2" stroke="white" fill="url(#paint30_linear_7973_6019)" d="M267.42 632.743V384.492L161.797 421.703V669.954L267.42 632.743Z"></path>
<path stroke-linejoin="round" stroke-width="2" stroke="white" fill="#71E8DF" d="M371.884 156.75L425.043 175.419L371.884 194.089L318.725 175.419L345.304 166.085L371.884 156.75Z"></path>
<path stroke-linejoin="round" stroke-width="2" stroke="white" fill="url(#paint31_linear_7973_6019)" d="M318.722 246.308V175.508L371.881 194.087V264.887L318.722 246.308Z"></path>
<path stroke-linejoin="round" stroke-width="2" stroke="white" fill="url(#paint32_linear_7973_6019)" d="M425.04 246.304V175.414L371.881 193.993V264.883L425.04 246.304Z"></path>
<path stroke-linejoin="round" stroke-width="2" stroke="white" fill="#71E8DF" d="M267.269 156.75L320.428 175.419L267.269 194.089L214.11 175.419L240.69 166.085L267.269 156.75Z"></path>
<path stroke-linejoin="round" stroke-width="2" stroke="white" fill="url(#paint33_linear_7973_6019)" d="M214.107 246.308V175.508L267.267 194.087V264.887L214.107 246.308Z"></path>
<path stroke-linejoin="round" stroke-width="2" stroke="white" fill="url(#paint34_linear_7973_6019)" d="M320.426 246.304V175.414L267.267 193.993V264.883L320.426 246.304Z"></path>
<ellipse fill="url(#paint35_radial_7973_6019)" ry="102.208" rx="87.2455" cy="212.841" cx="255.766"></ellipse>
<ellipse fill="url(#paint36_radial_7973_6019)" ry="102.208" rx="67.0268" cy="208.567" cx="387.93"></ellipse>
<path stroke-linejoin="round" stroke-width="2" stroke="white" fill="white" d="M504.631 342.945L557.357 361.463L504.631 379.98L451.904 361.463L478.268 352.204L504.631 342.945Z"></path>
<path stroke-linejoin="round" stroke-width="2" stroke="white" fill="url(#paint37_linear_7973_6019)" d="M451.9 431.771V361.547L504.627 379.975V450.199L451.9 431.771Z"></path>
<path stroke-linejoin="round" stroke-width="2" stroke="white" fill="url(#paint38_linear_7973_6019)" d="M557.354 431.781V361.469L504.627 379.897V450.21L557.354 431.781Z"></path>
<path stroke-linejoin="round" stroke-width="2" stroke="white" fill="white" d="M162.494 313.555L215.22 332.072L162.494 350.59L109.767 332.072L136.13 322.813L162.494 313.555Z"></path>
<path stroke-linejoin="round" stroke-width="2" stroke="white" fill="url(#paint39_linear_7973_6019)" d="M109.763 402.38V332.156L162.49 350.584V420.808L109.763 402.38Z"></path>
<path stroke-linejoin="round" stroke-width="2" stroke="white" fill="url(#paint40_linear_7973_6019)" d="M215.216 402.391V332.078L162.49 350.506V420.819L215.216 402.391Z"></path>
<rect fill="url(#paint41_linear_7973_6019)" height="655.328" width="106" y="-57.3281" x="266.783"></rect>
<path stroke-linejoin="round" stroke-width="2" stroke="white" fill="#5A67D8" d="M319.505 175.414L372.665 194.083L319.505 212.753L266.346 194.083L292.926 184.749L319.505 175.414Z"></path>
<path stroke-linejoin="round" stroke-width="2" stroke="white" fill="#5A67D8" d="M266.342 264.917V194.117L319.501 212.696V283.496L266.342 264.917Z"></path>
<path fill="white" d="M281.108 236.685C280.833 237.045 280.837 237.701 281.119 238.377L286.222 250.619C286.553 251.413 287.191 252.057 287.784 252.194L302.51 255.594C303.313 255.78 303.717 254.978 303.366 253.896L293.9 224.718C293.438 223.296 292.046 222.397 291.47 223.15L281.108 236.685ZM293.648 229.994C293.447 229.34 292.766 229.03 292.666 229.546L289.021 248.396C288.944 248.794 289.303 249.378 289.677 249.465L299.851 251.832C300.148 251.901 300.301 251.611 300.178 251.211L293.648 229.994Z" clip-rule="evenodd" fill-rule="evenodd"></path>
<path stroke-linejoin="round" stroke-width="2" stroke="white" fill="#4C51BF" d="M372.661 264.913V194.023L319.501 212.603V283.492L372.661 264.913Z"></path>
<path fill="white" d="M335.931 249.489C335.655 250.167 335.66 250.818 335.942 251.169L341.044 257.518C341.376 257.93 342.014 257.836 342.606 257.289L357.332 243.686C358.136 242.943 358.54 241.675 358.189 240.998L348.723 222.752C348.261 221.862 346.869 222.57 346.293 223.989L335.931 249.489ZM348.471 228.318C348.27 227.896 347.588 228.372 347.489 229.004L343.844 252.062C343.767 252.549 344.125 252.719 344.499 252.374L354.674 242.993C354.971 242.719 355.124 242.252 355.001 241.995L348.471 228.318Z" clip-rule="evenodd" fill-rule="evenodd"></path>
<path fill="white" d="M306.698 195.25C306.381 195.516 306.385 195.852 306.711 196.116L312.603 200.886C312.986 201.195 313.723 201.336 314.407 201.231L331.411 198.613C332.339 198.47 332.806 197.939 332.4 197.488L321.469 185.319C320.936 184.726 319.329 184.677 318.664 185.234L306.698 195.25ZM321.179 188.101C320.947 187.825 320.16 187.868 320.044 188.162L315.836 198.916C315.747 199.142 316.161 199.336 316.593 199.27L328.341 197.47C328.684 197.418 328.861 197.223 328.719 197.055L321.179 188.101Z" clip-rule="evenodd" fill-rule="evenodd"></path>
<g filter="url(#filter0_ddd_7973_6019)">
<rect shape-rendering="crispEdges" fill="#1A202C" rx="10.355" height="47" width="332" y="201.266" x="473.015"></rect>
<path fill="#EBF4FF" d="M499.385 234.024C498.246 234.024 497.245 233.809 496.382 233.377C495.536 232.946 494.881 232.325 494.415 231.513C493.949 230.685 493.716 229.71 493.716 228.588V224.705C493.716 223.566 493.949 222.591 494.415 221.78C494.881 220.969 495.536 220.347 496.382 219.916C497.245 219.484 498.246 219.269 499.385 219.269C501.024 219.269 502.345 219.709 503.346 220.589C504.347 221.469 504.873 222.669 504.925 224.187H502.595C502.543 223.273 502.233 222.574 501.663 222.09C501.111 221.59 500.351 221.34 499.385 221.34C498.367 221.34 497.556 221.633 496.952 222.22C496.347 222.789 496.045 223.609 496.045 224.679V228.588C496.045 229.658 496.347 230.487 496.952 231.073C497.556 231.66 498.367 231.954 499.385 231.954C500.351 231.954 501.111 231.703 501.663 231.203C502.233 230.702 502.543 230.003 502.595 229.106H504.925C504.873 230.625 504.347 231.824 503.346 232.704C502.345 233.584 501.024 234.024 499.385 234.024ZM516.745 233.766C515.917 233.766 515.192 233.602 514.571 233.274C513.949 232.946 513.466 232.48 513.121 231.876C512.776 231.272 512.603 230.564 512.603 229.753V216.991H507.814V214.868H514.933V229.753C514.933 230.34 515.097 230.806 515.425 231.151C515.753 231.479 516.193 231.643 516.745 231.643H521.276V233.766H516.745ZM524.76 233.766V231.643H529.808V221.65H525.407V219.528H532.138V231.643H536.927V233.766H524.76ZM530.714 216.965C530.145 216.965 529.696 216.818 529.368 216.525C529.04 216.231 528.876 215.834 528.876 215.334C528.876 214.816 529.04 214.41 529.368 214.117C529.696 213.806 530.145 213.651 530.714 213.651C531.284 213.651 531.733 213.806 532.061 214.117C532.388 214.41 532.552 214.816 532.552 215.334C532.552 215.834 532.388 216.231 532.061 216.525C531.733 216.818 531.284 216.965 530.714 216.965ZM545.848 234.024C544.727 234.024 543.743 233.8 542.897 233.351C542.069 232.903 541.422 232.273 540.956 231.462C540.507 230.633 540.283 229.675 540.283 228.588V224.705C540.283 223.6 540.507 222.643 540.956 221.832C541.422 221.02 542.069 220.39 542.897 219.942C543.743 219.493 544.727 219.269 545.848 219.269C546.97 219.269 547.945 219.493 548.774 219.942C549.619 220.39 550.267 221.02 550.715 221.832C551.181 222.643 551.414 223.6 551.414 224.705V227.216H542.561V228.588C542.561 229.71 542.846 230.573 543.415 231.177C543.985 231.764 544.796 232.057 545.848 232.057C546.746 232.057 547.471 231.902 548.023 231.591C548.575 231.263 548.912 230.78 549.033 230.141H551.362C551.207 231.332 550.62 232.281 549.602 232.989C548.601 233.679 547.35 234.024 545.848 234.024ZM549.136 225.663V224.705C549.136 223.583 548.851 222.72 548.282 222.116C547.73 221.512 546.918 221.21 545.848 221.21C544.796 221.21 543.985 221.512 543.415 222.116C542.846 222.72 542.561 223.583 542.561 224.705V225.456H549.317L549.136 225.663ZM555.986 233.766V219.528H558.316V222.246H558.808L558.316 222.789C558.316 221.668 558.653 220.805 559.326 220.201C559.999 219.579 560.931 219.269 562.122 219.269C563.554 219.269 564.693 219.709 565.539 220.589C566.384 221.469 566.807 222.669 566.807 224.187V233.766H564.477V224.446C564.477 223.428 564.201 222.651 563.649 222.116C563.114 221.564 562.38 221.288 561.448 221.288C560.482 221.288 559.714 221.581 559.144 222.168C558.592 222.755 558.316 223.6 558.316 224.705V233.766H555.986ZM578.446 233.766C577.221 233.766 576.263 233.438 575.573 232.782C574.9 232.126 574.563 231.203 574.563 230.012V221.65H570.551V219.528H574.563V215.515H576.893V219.528H582.588V221.65H576.893V230.012C576.893 231.099 577.411 231.643 578.446 231.643H582.33V233.766H578.446ZM587.238 233.766V214.868H598.111V216.991H589.542V222.841H597.205V224.938H589.542V231.643H598.111V233.766H587.238ZM601.466 233.766L606.514 226.439L601.777 219.528H604.521L607.342 223.928C607.463 224.118 607.575 224.325 607.679 224.55C607.8 224.774 607.895 224.955 607.964 225.093C608.016 224.955 608.093 224.774 608.197 224.55C608.318 224.325 608.438 224.118 608.559 223.928L611.407 219.528H614.125L609.388 226.465L614.41 233.766H611.666L608.611 229.106C608.49 228.916 608.369 228.7 608.249 228.459C608.145 228.2 608.05 227.993 607.964 227.837C607.895 227.993 607.791 228.2 607.653 228.459C607.532 228.7 607.403 228.916 607.265 229.106L604.184 233.766H601.466ZM625.014 233.766C623.788 233.766 622.83 233.438 622.14 232.782C621.467 232.126 621.13 231.203 621.13 230.012V221.65H617.118V219.528H621.13V215.515H623.46V219.528H629.156V221.65H623.46V230.012C623.46 231.099 623.978 231.643 625.014 231.643H628.897V233.766H625.014ZM638.983 234.024C637.861 234.024 636.877 233.8 636.031 233.351C635.203 232.903 634.556 232.273 634.09 231.462C633.641 230.633 633.417 229.675 633.417 228.588V224.705C633.417 223.6 633.641 222.643 634.09 221.832C634.556 221.02 635.203 220.39 636.031 219.942C636.877 219.493 637.861 219.269 638.983 219.269C640.104 219.269 641.08 219.493 641.908 219.942C642.754 220.39 643.401 221.02 643.849 221.832C644.315 222.643 644.548 223.6 644.548 224.705V227.216H635.695V228.588C635.695 229.71 635.98 230.573 636.549 231.177C637.119 231.764 637.93 232.057 638.983 232.057C639.88 232.057 640.605 231.902 641.157 231.591C641.709 231.263 642.046 230.78 642.167 230.141H644.497C644.341 231.332 643.755 232.281 642.736 232.989C641.735 233.679 640.484 234.024 638.983 234.024ZM642.27 225.663V224.705C642.27 223.583 641.986 222.72 641.416 222.116C640.864 221.512 640.053 221.21 638.983 221.21C637.93 221.21 637.119 221.512 636.549 222.116C635.98 222.72 635.695 223.583 635.695 224.705V225.456H642.452L642.27 225.663ZM649.12 233.766V219.528H651.45V222.246H651.942L651.45 222.789C651.45 221.668 651.787 220.805 652.46 220.201C653.133 219.579 654.065 219.269 655.256 219.269C656.688 219.269 657.827 219.709 658.673 220.589C659.519 221.469 659.941 222.669 659.941 224.187V233.766H657.611V224.446C657.611 223.428 657.335 222.651 656.783 222.116C656.248 221.564 655.515 221.288 654.583 221.288C653.616 221.288 652.848 221.581 652.279 222.168C651.726 222.755 651.45 223.6 651.45 224.705V233.766H649.12ZM669.587 233.973C668.621 233.973 667.775 233.826 667.05 233.533C666.343 233.222 665.773 232.791 665.342 232.238C664.928 231.686 664.677 231.03 664.591 230.271H666.921C667.024 230.771 667.301 231.168 667.749 231.462C668.215 231.755 668.828 231.902 669.587 231.902H670.675C671.589 231.902 672.271 231.721 672.72 231.358C673.168 230.978 673.393 230.478 673.393 229.857C673.393 229.253 673.186 228.778 672.771 228.433C672.374 228.07 671.779 227.829 670.985 227.708L669.07 227.397C667.672 227.156 666.627 226.724 665.937 226.103C665.264 225.464 664.928 224.541 664.928 223.333C664.928 222.056 665.333 221.072 666.144 220.382C666.955 219.674 668.172 219.32 669.794 219.32H670.778C672.141 219.32 673.237 219.64 674.066 220.278C674.894 220.917 675.395 221.78 675.567 222.867H673.237C673.134 222.418 672.875 222.064 672.461 221.806C672.047 221.529 671.486 221.391 670.778 221.391H669.794C668.914 221.391 668.267 221.555 667.853 221.883C667.456 222.211 667.257 222.703 667.257 223.359C667.257 223.946 667.43 224.377 667.775 224.653C668.12 224.929 668.664 225.128 669.406 225.249L671.322 225.559C672.858 225.801 673.971 226.25 674.661 226.905C675.369 227.561 675.723 228.51 675.723 229.753C675.723 231.065 675.3 232.1 674.454 232.86C673.626 233.602 672.366 233.973 670.675 233.973H669.587ZM679.984 233.766V231.643H685.032V221.65H680.631V219.528H687.362V231.643H692.151V233.766H679.984ZM685.938 216.965C685.368 216.965 684.92 216.818 684.592 216.525C684.264 216.231 684.1 215.834 684.1 215.334C684.1 214.816 684.264 214.41 684.592 214.117C684.92 213.806 685.368 213.651 685.938 213.651C686.508 213.651 686.956 213.806 687.284 214.117C687.612 214.41 687.776 214.816 687.776 215.334C687.776 215.834 687.612 216.231 687.284 216.525C686.956 216.818 686.508 216.965 685.938 216.965ZM701.072 233.973C699.933 233.973 698.949 233.757 698.121 233.326C697.293 232.894 696.645 232.273 696.179 231.462C695.731 230.633 695.506 229.658 695.506 228.536V224.757C695.506 223.618 695.731 222.643 696.179 221.832C696.645 221.02 697.293 220.399 698.121 219.968C698.949 219.536 699.933 219.32 701.072 219.32C702.211 219.32 703.195 219.536 704.023 219.968C704.852 220.399 705.49 221.02 705.939 221.832C706.405 222.643 706.638 223.609 706.638 224.731V228.536C706.638 229.658 706.405 230.633 705.939 231.462C705.49 232.273 704.852 232.894 704.023 233.326C703.195 233.757 702.211 233.973 701.072 233.973ZM701.072 231.902C702.09 231.902 702.884 231.617 703.454 231.047C704.023 230.478 704.308 229.641 704.308 228.536V224.757C704.308 223.652 704.023 222.815 703.454 222.246C702.884 221.676 702.09 221.391 701.072 221.391C700.071 221.391 699.277 221.676 698.69 222.246C698.121 222.815 697.836 223.652 697.836 224.757V228.536C697.836 229.641 698.121 230.478 698.69 231.047C699.277 231.617 700.071 231.902 701.072 231.902ZM711.21 233.766V219.528H713.54V222.246H714.032L713.54 222.789C713.54 221.668 713.876 220.805 714.549 220.201C715.222 219.579 716.154 219.269 717.345 219.269C718.778 219.269 719.917 219.709 720.762 220.589C721.608 221.469 722.031 222.669 722.031 224.187V233.766H719.701V224.446C719.701 223.428 719.425 222.651 718.873 222.116C718.338 221.564 717.604 221.288 716.672 221.288C715.706 221.288 714.938 221.581 714.368 222.168C713.816 222.755 713.54 223.6 713.54 224.705V233.766H711.21ZM731.677 233.973C730.71 233.973 729.865 233.826 729.14 233.533C728.432 233.222 727.863 232.791 727.431 232.238C727.017 231.686 726.767 231.03 726.68 230.271H729.01C729.114 230.771 729.39 231.168 729.839 231.462C730.305 231.755 730.917 231.902 731.677 231.902H732.764C733.679 231.902 734.36 231.721 734.809 231.358C735.258 230.978 735.482 230.478 735.482 229.857C735.482 229.253 735.275 228.778 734.861 228.433C734.464 228.07 733.869 227.829 733.075 227.708L731.159 227.397C729.761 227.156 728.717 226.724 728.027 226.103C727.354 225.464 727.017 224.541 727.017 223.333C727.017 222.056 727.423 221.072 728.234 220.382C729.045 219.674 730.262 219.32 731.884 219.32H732.868C734.231 219.32 735.327 219.64 736.155 220.278C736.984 220.917 737.484 221.78 737.657 222.867H735.327C735.223 222.418 734.964 222.064 734.55 221.806C734.136 221.529 733.575 221.391 732.868 221.391H731.884C731.004 221.391 730.356 221.555 729.942 221.883C729.545 222.211 729.347 222.703 729.347 223.359C729.347 223.946 729.519 224.377 729.865 224.653C730.21 224.929 730.753 225.128 731.495 225.249L733.411 225.559C734.947 225.801 736.06 226.25 736.751 226.905C737.458 227.561 737.812 228.51 737.812 229.753C737.812 231.065 737.389 232.1 736.544 232.86C735.715 233.602 734.455 233.973 732.764 233.973H731.677ZM763.265 234.024C762.126 234.024 761.134 233.809 760.288 233.377C759.46 232.946 758.812 232.325 758.346 231.513C757.898 230.685 757.673 229.71 757.673 228.588V220.045C757.673 218.906 757.898 217.931 758.346 217.12C758.812 216.309 759.46 215.688 760.288 215.256C761.134 214.825 762.126 214.609 763.265 214.609C764.404 214.609 765.388 214.833 766.216 215.282C767.045 215.713 767.683 216.335 768.132 217.146C768.581 217.957 768.805 218.923 768.805 220.045H766.475C766.475 218.975 766.19 218.155 765.621 217.586C765.069 216.999 764.283 216.706 763.265 216.706C762.247 216.706 761.444 216.991 760.858 217.56C760.288 218.13 760.003 218.949 760.003 220.019V228.588C760.003 229.658 760.288 230.487 760.858 231.073C761.444 231.66 762.247 231.954 763.265 231.954C764.283 231.954 765.069 231.66 765.621 231.073C766.19 230.487 766.475 229.658 766.475 228.588V226.258H762.644V224.135H768.805V228.588C768.805 229.693 768.581 230.659 768.132 231.488C767.683 232.299 767.045 232.929 766.216 233.377C765.388 233.809 764.404 234.024 763.265 234.024ZM772.212 233.766L777.131 214.868H780.263L785.156 233.766H782.8L781.557 228.743H775.836L774.594 233.766H772.212ZM776.302 226.776H781.066L779.616 220.951C779.34 219.847 779.124 218.923 778.969 218.181C778.813 217.439 778.718 216.956 778.684 216.732C778.649 216.956 778.554 217.439 778.399 218.181C778.244 218.923 778.028 219.838 777.752 220.925L776.302 226.776Z"></path>
</g>
</g>
<defs>
<filter color-interpolation-filters="sRGB" filterUnits="userSpaceOnUse" height="184.204" width="451.082" y="141.724" x="413.474" id="filter0_ddd_7973_6019">
<feFlood result="BackgroundImageFix" flood-opacity="0"></feFlood>
<feColorMatrix result="hardAlpha" values="0 0 0 0 0 0 0 0 0 0 0 0 0 0 0 0 0 0 127 0" type="matrix" in="SourceAlpha"></feColorMatrix>
<feOffset dy="23.2987"></feOffset>
<feGaussianBlur stdDeviation="27.1818"></feGaussianBlur>
<feColorMatrix values="0 0 0 0 0.0901961 0 0 0 0 0.168627 0 0 0 0 0.301961 0 0 0 0.08 0" type="matrix"></feColorMatrix>
<feBlend result="effect1_dropShadow_7973_6019" in2="BackgroundImageFix" mode="normal"></feBlend>
<feColorMatrix result="hardAlpha" values="0 0 0 0 0 0 0 0 0 0 0 0 0 0 0 0 0 0 127 0" type="matrix" in="SourceAlpha"></feColorMatrix>
<feOffset dy="5.17749"></feOffset>
<feGaussianBlur stdDeviation="16.8268"></feGaussianBlur>
<feColorMatrix values="0 0 0 0 0.0901961 0 0 0 0 0.168627 0 0 0 0 0.301961 0 0 0 0.05 0" type="matrix"></feColorMatrix>
<feBlend result="effect2_dropShadow_7973_6019" in2="effect1_dropShadow_7973_6019" mode="normal"></feBlend>
<feColorMatrix result="hardAlpha" values="0 0 0 0 0 0 0 0 0 0 0 0 0 0 0 0 0 0 127 0" type="matrix" in="SourceAlpha"></feColorMatrix>
<feOffset></feOffset>
<feGaussianBlur stdDeviation="29.7706"></feGaussianBlur>
<feComposite operator="out" in2="hardAlpha"></feComposite>
<feColorMatrix values="0 0 0 0 0.0901961 0 0 0 0 0.168627 0 0 0 0 0.301961 0 0 0 0.01 0" type="matrix"></feColorMatrix>
<feBlend result="effect3_dropShadow_7973_6019" in2="effect2_dropShadow_7973_6019" mode="normal"></feBlend>
<feBlend result="shape" in2="effect3_dropShadow_7973_6019" in="SourceGraphic" mode="normal"></feBlend>
</filter>
<linearGradient gradientUnits="userSpaceOnUse" y2="460.344" x2="843.267" y1="0" x1="0" id="paint0_linear_7973_6019">
<stop stop-color="#A3BFFA"></stop>
<stop stop-color="#5A67D8" offset="0.747534"></stop>
<stop stop-color="#4C51BF" offset="1"></stop>
</linearGradient>
<linearGradient gradientUnits="userSpaceOnUse" y2="235.314" x2="1466.24" y1="234.374" x1="1466.58" id="paint1_linear_7973_6019">
<stop stop-color="white"></stop>
<stop stop-opacity="0" stop-color="white" offset="1"></stop>
</linearGradient>
<linearGradient gradientUnits="userSpaceOnUse" y2="235.314" x2="1320.39" y1="234.374" x1="1320.73" id="paint2_linear_7973_6019">
<stop stop-color="white"></stop>
<stop stop-opacity="0" stop-color="white" offset="1"></stop>
</linearGradient>
<linearGradient gradientUnits="userSpaceOnUse" y2="235.314" x2="1174.53" y1="234.374" x1="1174.87" id="paint3_linear_7973_6019">
<stop stop-color="white"></stop>
<stop stop-opacity="0" stop-color="white" offset="1"></stop>
</linearGradient>
<linearGradient gradientUnits="userSpaceOnUse" y2="235.314" x2="1028.67" y1="234.374" x1="1029.01" id="paint4_linear_7973_6019">
<stop stop-color="white"></stop>
<stop stop-opacity="0" stop-color="white" offset="1"></stop>
</linearGradient>
<linearGradient gradientUnits="userSpaceOnUse" y2="235.314" x2="882.813" y1="234.374" x1="883.153" id="paint5_linear_7973_6019">
<stop stop-color="white"></stop>
<stop stop-opacity="0" stop-color="white" offset="1"></stop>
</linearGradient>
<linearGradient gradientUnits="userSpaceOnUse" y2="235.314" x2="736.955" y1="234.374" x1="737.295" id="paint6_linear_7973_6019">
<stop stop-color="white"></stop>
<stop stop-opacity="0" stop-color="white" offset="1"></stop>
</linearGradient>
<linearGradient gradientUnits="userSpaceOnUse" y2="235.314" x2="591.097" y1="234.374" x1="591.438" id="paint7_linear_7973_6019">
<stop stop-color="white"></stop>
<stop stop-opacity="0" stop-color="white" offset="1"></stop>
</linearGradient>
<linearGradient gradientUnits="userSpaceOnUse" y2="235.314" x2="445.239" y1="234.374" x1="445.58" id="paint8_linear_7973_6019">
<stop stop-color="white"></stop>
<stop stop-opacity="0" stop-color="white" offset="1"></stop>
</linearGradient>
<linearGradient gradientUnits="userSpaceOnUse" y2="235.314" x2="299.381" y1="234.374" x1="299.722" id="paint9_linear_7973_6019">
<stop stop-color="white"></stop>
<stop stop-opacity="0" stop-color="white" offset="1"></stop>
</linearGradient>
<linearGradient gradientUnits="userSpaceOnUse" y2="235.314" x2="153.523" y1="234.374" x1="153.864" id="paint10_linear_7973_6019">
<stop stop-color="white"></stop>
<stop stop-opacity="0" stop-color="white" offset="1"></stop>
</linearGradient>
<linearGradient gradientUnits="userSpaceOnUse" y2="235.314" x2="7.66532" y1="234.374" x1="8.00587" id="paint11_linear_7973_6019">
<stop stop-color="white"></stop>
<stop stop-opacity="0" stop-color="white" offset="1"></stop>
</linearGradient>
<linearGradient gradientUnits="userSpaceOnUse" y2="235.314" x2="-138.193" y1="234.374" x1="-137.852" id="paint12_linear_7973_6019">
<stop stop-color="white"></stop>
<stop stop-opacity="0" stop-color="white" offset="1"></stop>
</linearGradient>
<linearGradient gradientUnits="userSpaceOnUse" y2="1" x2="703.629" y1="0" x1="703.629" id="paint13_linear_7973_6019">
<stop stop-color="white"></stop>
<stop stop-opacity="0" stop-color="white" offset="1"></stop>
</linearGradient>
<linearGradient gradientUnits="userSpaceOnUse" y2="1" x2="703.629" y1="0" x1="703.629" id="paint14_linear_7973_6019">
<stop stop-color="white"></stop>
<stop stop-opacity="0" stop-color="white" offset="1"></stop>
</linearGradient>
<linearGradient gradientUnits="userSpaceOnUse" y2="1" x2="703.629" y1="0" x1="703.629" id="paint15_linear_7973_6019">
<stop stop-color="white"></stop>
<stop stop-opacity="0" stop-color="white" offset="1"></stop>
</linearGradient>
<linearGradient gradientUnits="userSpaceOnUse" y2="1" x2="703.629" y1="0" x1="703.629" id="paint16_linear_7973_6019">
<stop stop-color="white"></stop>
<stop stop-opacity="0" stop-color="white" offset="1"></stop>
</linearGradient>
<linearGradient gradientUnits="userSpaceOnUse" y2="1" x2="703.629" y1="0" x1="703.629" id="paint17_linear_7973_6019">
<stop stop-color="white"></stop>
<stop stop-opacity="0" stop-color="white" offset="1"></stop>
</linearGradient>
<linearGradient gradientUnits="userSpaceOnUse" y2="1" x2="703.629" y1="0" x1="703.629" id="paint18_linear_7973_6019">
<stop stop-color="white"></stop>
<stop stop-opacity="0" stop-color="white" offset="1"></stop>
</linearGradient>
<linearGradient gradientUnits="userSpaceOnUse" y2="1" x2="703.629" y1="0" x1="703.629" id="paint19_linear_7973_6019">
<stop stop-color="white"></stop>
<stop stop-opacity="0" stop-color="white" offset="1"></stop>
</linearGradient>
<linearGradient gradientUnits="userSpaceOnUse" y2="1" x2="703.629" y1="0" x1="703.629" id="paint20_linear_7973_6019">
<stop stop-color="white"></stop>
<stop stop-opacity="0" stop-color="white" offset="1"></stop>
</linearGradient>
<linearGradient gradientUnits="userSpaceOnUse" y2="1" x2="703.629" y1="0" x1="703.629" id="paint21_linear_7973_6019">
<stop stop-color="white"></stop>
<stop stop-opacity="0" stop-color="white" offset="1"></stop>
</linearGradient>
<linearGradient gradientUnits="userSpaceOnUse" y2="1" x2="703.629" y1="0" x1="703.629" id="paint22_linear_7973_6019">
<stop stop-color="white"></stop>
<stop stop-opacity="0" stop-color="white" offset="1"></stop>
</linearGradient>
<linearGradient gradientUnits="userSpaceOnUse" y2="1" x2="703.629" y1="0" x1="703.629" id="paint23_linear_7973_6019">
<stop stop-color="white"></stop>
<stop stop-opacity="0" stop-color="white" offset="1"></stop>
</linearGradient>
<linearGradient gradientUnits="userSpaceOnUse" y2="1" x2="703.629" y1="0" x1="703.629" id="paint24_linear_7973_6019">
<stop stop-color="white"></stop>
<stop stop-opacity="0" stop-color="white" offset="1"></stop>
</linearGradient>
<linearGradient gradientUnits="userSpaceOnUse" y2="1" x2="703.629" y1="0" x1="703.629" id="paint25_linear_7973_6019">
<stop stop-color="white"></stop>
<stop stop-opacity="0" stop-color="white" offset="1"></stop>
</linearGradient>
<linearGradient gradientUnits="userSpaceOnUse" y2="292.189" x2="134.49" y1="236.905" x1="134.49" id="paint26_linear_7973_6019">
<stop stop-color="white"></stop>
<stop stop-color="#C3DAFE" offset="1"></stop>
</linearGradient>
<linearGradient gradientUnits="userSpaceOnUse" y2="273.419" x2="187.217" y1="236.906" x1="187.217" id="paint27_linear_7973_6019">
<stop stop-color="white"></stop>
<stop stop-color="#A3BFFA" offset="1"></stop>
</linearGradient>
<linearGradient gradientUnits="userSpaceOnUse" y2="337.115" x2="372.299" y1="246.813" x1="372.299" id="paint28_linear_7973_6019">
<stop stop-color="white"></stop>
<stop stop-color="#A3BFFA" offset="1"></stop>
</linearGradient>
<linearGradient gradientUnits="userSpaceOnUse" y2="502.888" x2="557.515" y1="412.586" x1="557.515" id="paint29_linear_7973_6019">
<stop stop-color="white"></stop>
<stop stop-color="#A3BFFA" offset="1"></stop>
</linearGradient>
<linearGradient gradientUnits="userSpaceOnUse" y2="474.794" x2="214.609" y1="384.492" x1="214.609" id="paint30_linear_7973_6019">
<stop stop-color="white"></stop>
<stop stop-color="#A3BFFA" offset="1"></stop>
</linearGradient>
<linearGradient gradientUnits="userSpaceOnUse" y2="231.161" x2="345.302" y1="175.423" x1="345.302" id="paint31_linear_7973_6019">
<stop stop-color="white"></stop>
<stop stop-color="#C3DAFE" offset="1"></stop>
</linearGradient>
<linearGradient gradientUnits="userSpaceOnUse" y2="212.226" x2="398.461" y1="175.414" x1="398.461" id="paint32_linear_7973_6019">
<stop stop-color="#71E8DF"></stop>
<stop stop-color="#CEFFFB" offset="1"></stop>
</linearGradient>
<linearGradient gradientUnits="userSpaceOnUse" y2="231.161" x2="240.687" y1="175.423" x1="240.687" id="paint33_linear_7973_6019">
<stop stop-color="#70FDFF"></stop>
<stop stop-color="#E7FFFD" offset="1"></stop>
</linearGradient>
<linearGradient gradientUnits="userSpaceOnUse" y2="212.226" x2="293.846" y1="175.414" x1="293.846" id="paint34_linear_7973_6019">
<stop stop-color="white"></stop>
<stop stop-color="#A3BFFA" offset="1"></stop>
</linearGradient>
<radialGradient gradientTransform="translate(255.766 212.841) rotate(90) scale(102.208 87.2455)" gradientUnits="userSpaceOnUse" r="1" cy="0" cx="0" id="paint35_radial_7973_6019">
<stop stop-color="#92EFE6"></stop>
<stop stop-opacity="0" stop-color="#92EFE6" offset="1"></stop>
</radialGradient>
<radialGradient gradientTransform="translate(387.93 208.567) rotate(90) scale(102.208 67.0268)" gradientUnits="userSpaceOnUse" r="1" cy="0" cx="0" id="paint36_radial_7973_6019">
<stop stop-color="#92EFE6"></stop>
<stop stop-opacity="0" stop-color="#92EFE6" offset="1"></stop>
</radialGradient>
<linearGradient gradientUnits="userSpaceOnUse" y2="416.747" x2="478.264" y1="361.463" x1="478.264" id="paint37_linear_7973_6019">
<stop stop-color="white"></stop>
<stop stop-color="#C3DAFE" offset="1"></stop>
</linearGradient>
<linearGradient gradientUnits="userSpaceOnUse" y2="397.981" x2="530.99" y1="361.469" x1="530.99" id="paint38_linear_7973_6019">
<stop stop-color="white"></stop>
<stop stop-color="#A3BFFA" offset="1"></stop>
</linearGradient>
<linearGradient gradientUnits="userSpaceOnUse" y2="387.356" x2="136.126" y1="332.072" x1="136.126" id="paint39_linear_7973_6019">
<stop stop-color="white"></stop>
<stop stop-color="#C3DAFE" offset="1"></stop>
</linearGradient>
<linearGradient gradientUnits="userSpaceOnUse" y2="368.591" x2="188.853" y1="332.078" x1="188.853" id="paint40_linear_7973_6019">
<stop stop-color="white"></stop>
<stop stop-color="#A3BFFA" offset="1"></stop>
</linearGradient>
<linearGradient gradientUnits="userSpaceOnUse" y2="598" x2="319.783" y1="-57.3281" x1="319.783" id="paint41_linear_7973_6019">
<stop stop-opacity="0" stop-color="#92EFE6"></stop>
<stop stop-color="#92EFE6" offset="1"></stop>
</linearGradient>
<clipPath id="clip0_7973_6019">
<rect fill="white" height="474" width="844"></rect>
</clipPath>
</defs>
</svg>
