<svg xmlns="http://www.w3.org/2000/svg" fill="none" viewBox="0 0 844 474" height="474" width="844">
<g clip-path="url(#clip0_9861_184593)">
<rect fill="url(#paint0_linear_9861_184593)" height="474" width="844"></rect>
<path fill="white" d="M134.168 119.528C131.672 119.528 129.464 119.016 127.544 117.992C125.656 116.968 124.184 115.544 123.128 113.72C122.072 111.864 121.544 109.736 121.544 107.336V97.064C121.544 94.696 122.072 92.6 123.128 90.776C124.184 88.952 125.656 87.544 127.544 86.552C129.464 85.528 131.672 85.016 134.168 85.016C136.696 85.016 138.904 85.528 140.792 86.552C142.712 87.544 144.2 88.952 145.256 90.776C146.312 92.6 146.84 94.696 146.84 97.064V107.336C146.84 109.736 146.312 111.864 145.256 113.72C144.2 115.576 142.712 117.016 140.792 118.04C138.904 119.032 136.696 119.528 134.168 119.528ZM134.168 113.72C135.928 113.72 137.352 113.16 138.44 112.04C139.528 110.92 140.072 109.432 140.072 107.576V97.016C140.072 95.16 139.528 93.672 138.44 92.552C137.384 91.4 135.96 90.824 134.168 90.824C132.408 90.824 130.984 91.4 129.896 92.552C128.84 93.672 128.312 95.16 128.312 97.016V107.576C128.312 109.432 128.84 110.92 129.896 112.04C130.984 113.16 132.408 113.72 134.168 113.72ZM163.501 93.944C166.061 93.944 168.125 94.728 169.693 96.296C171.261 97.864 172.045 99.992 172.045 102.68V118.424C172.045 118.584 171.981 118.728 171.853 118.856C171.757 118.952 171.629 119 171.469 119H165.853C165.693 119 165.549 118.952 165.421 118.856C165.325 118.728 165.277 118.584 165.277 118.424V104.072C165.277 102.792 164.909 101.752 164.173 100.952C163.469 100.152 162.525 99.752 161.341 99.752C160.157 99.752 159.197 100.152 158.461 100.952C157.757 101.752 157.405 102.792 157.405 104.072V118.424C157.405 118.584 157.341 118.728 157.213 118.856C157.117 118.952 156.989 119 156.829 119H151.213C151.053 119 150.909 118.952 150.781 118.856C150.685 118.728 150.637 118.584 150.637 118.424V94.904C150.637 94.744 150.685 94.616 150.781 94.52C150.909 94.392 151.053 94.328 151.213 94.328H156.829C156.989 94.328 157.117 94.392 157.213 94.52C157.341 94.616 157.405 94.744 157.405 94.904V96.584C157.405 96.68 157.437 96.744 157.501 96.776C157.565 96.808 157.613 96.792 157.645 96.728C158.957 94.872 160.909 93.944 163.501 93.944ZM175.258 107.72C175.098 107.72 174.954 107.672 174.826 107.576C174.73 107.448 174.682 107.304 174.682 107.144V102.488C174.682 102.328 174.73 102.2 174.826 102.104C174.954 101.976 175.098 101.912 175.258 101.912H190.954C191.114 101.912 191.242 101.976 191.338 102.104C191.466 102.2 191.53 102.328 191.53 102.488V107.144C191.53 107.304 191.466 107.448 191.338 107.576C191.242 107.672 191.114 107.72 190.954 107.72H175.258ZM209.779 85.976C209.779 85.816 209.827 85.688 209.923 85.592C210.051 85.464 210.195 85.4 210.355 85.4H215.971C216.131 85.4 216.259 85.464 216.355 85.592C216.483 85.688 216.547 85.816 216.547 85.976V118.424C216.547 118.584 216.483 118.728 216.355 118.856C216.259 118.952 216.131 119 215.971 119H210.355C210.195 119 210.051 118.952 209.923 118.856C209.827 118.728 209.779 118.584 209.779 118.424V116.84C209.779 116.744 209.747 116.696 209.683 116.696C209.619 116.664 209.555 116.68 209.491 116.744C208.147 118.504 206.307 119.384 203.971 119.384C201.731 119.384 199.795 118.76 198.163 117.512C196.563 116.264 195.411 114.552 194.707 112.376C194.163 110.712 193.891 108.776 193.891 106.568C193.891 104.296 194.179 102.312 194.755 100.616C195.491 98.568 196.643 96.952 198.211 95.768C199.811 94.552 201.779 93.944 204.115 93.944C206.419 93.944 208.211 94.744 209.491 96.344C209.555 96.44 209.619 96.472 209.683 96.44C209.747 96.408 209.779 96.344 209.779 96.248V85.976ZM208.771 111.512C209.411 110.328 209.731 108.712 209.731 106.664C209.731 104.52 209.379 102.84 208.675 101.624C207.939 100.376 206.867 99.752 205.459 99.752C203.955 99.752 202.819 100.376 202.051 101.624C201.251 102.872 200.851 104.568 200.851 106.712C200.851 108.632 201.187 110.232 201.859 111.512C202.659 112.888 203.843 113.576 205.411 113.576C206.851 113.576 207.971 112.888 208.771 111.512ZM242.534 104.12C242.726 105.336 242.79 106.696 242.726 108.2C242.694 108.584 242.486 108.776 242.102 108.776H227.27C227.078 108.776 227.014 108.856 227.078 109.016C227.174 109.656 227.35 110.296 227.606 110.936C228.438 112.728 230.134 113.624 232.694 113.624C234.742 113.592 236.358 112.76 237.542 111.128C237.67 110.936 237.814 110.84 237.974 110.84C238.07 110.84 238.182 110.904 238.31 111.032L241.766 114.44C241.926 114.6 242.006 114.744 242.006 114.872C242.006 114.936 241.942 115.064 241.814 115.256C240.758 116.568 239.398 117.592 237.734 118.328C236.07 119.032 234.246 119.384 232.262 119.384C229.51 119.384 227.174 118.76 225.254 117.512C223.366 116.264 222.006 114.52 221.174 112.28C220.502 110.68 220.166 108.584 220.166 105.992C220.166 104.232 220.406 102.68 220.886 101.336C221.622 99.064 222.902 97.256 224.726 95.912C226.582 94.568 228.774 93.896 231.302 93.896C234.502 93.896 237.062 94.824 238.982 96.68C240.934 98.536 242.118 101.016 242.534 104.12ZM231.35 99.752C229.334 99.752 228.006 100.696 227.366 102.584C227.238 103 227.126 103.512 227.03 104.12C227.03 104.28 227.11 104.36 227.27 104.36H235.574C235.766 104.36 235.83 104.28 235.766 104.12C235.606 103.192 235.526 102.744 235.526 102.776C235.238 101.816 234.726 101.08 233.99 100.568C233.286 100.024 232.406 99.752 231.35 99.752ZM273.297 93.944C275.793 93.944 277.745 94.696 279.153 96.2C280.561 97.704 281.265 99.816 281.265 102.536V118.424C281.265 118.584 281.201 118.728 281.073 118.856C280.977 118.952 280.849 119 280.689 119H275.073C274.913 119 274.769 118.952 274.641 118.856C274.545 118.728 274.497 118.584 274.497 118.424V104.024C274.497 102.712 274.161 101.672 273.489 100.904C272.817 100.136 271.921 99.752 270.801 99.752C269.681 99.752 268.769 100.136 268.065 100.904C267.361 101.672 267.009 102.696 267.009 103.976V118.424C267.009 118.584 266.945 118.728 266.817 118.856C266.721 118.952 266.593 119 266.433 119H260.865C260.705 119 260.561 118.952 260.433 118.856C260.337 118.728 260.289 118.584 260.289 118.424V104.024C260.289 102.744 259.937 101.72 259.233 100.952C258.529 100.152 257.617 99.752 256.497 99.752C255.473 99.752 254.609 100.056 253.905 100.664C253.233 101.272 252.833 102.12 252.705 103.208V118.424C252.705 118.584 252.641 118.728 252.513 118.856C252.417 118.952 252.289 119 252.129 119H246.513C246.353 119 246.209 118.952 246.081 118.856C245.985 118.728 245.937 118.584 245.937 118.424V94.904C245.937 94.744 245.985 94.616 246.081 94.52C246.209 94.392 246.353 94.328 246.513 94.328H252.129C252.289 94.328 252.417 94.392 252.513 94.52C252.641 94.616 252.705 94.744 252.705 94.904V96.776C252.705 96.872 252.737 96.936 252.801 96.968C252.865 97 252.929 96.968 252.993 96.872C254.305 94.92 256.337 93.944 259.089 93.944C260.689 93.944 262.081 94.28 263.265 94.952C264.481 95.624 265.409 96.584 266.049 97.832C266.145 98.024 266.257 98.024 266.385 97.832C267.089 96.52 268.033 95.544 269.217 94.904C270.433 94.264 271.793 93.944 273.297 93.944ZM294.895 93.944C296.975 93.944 298.831 94.312 300.463 95.048C302.095 95.752 303.359 96.728 304.255 97.976C305.183 99.224 305.647 100.616 305.647 102.152V118.424C305.647 118.584 305.583 118.728 305.455 118.856C305.359 118.952 305.231 119 305.071 119H299.455C299.295 119 299.151 118.952 299.023 118.856C298.927 118.728 298.879 118.584 298.879 118.424V116.84C298.879 116.744 298.847 116.68 298.783 116.648C298.719 116.616 298.655 116.648 298.591 116.744C297.247 118.504 295.087 119.384 292.111 119.384C289.615 119.384 287.599 118.776 286.063 117.56C284.527 116.344 283.759 114.552 283.759 112.184C283.759 109.72 284.623 107.816 286.351 106.472C288.079 105.096 290.543 104.408 293.743 104.408H298.639C298.799 104.408 298.879 104.328 298.879 104.168V103.112C298.879 102.056 298.559 101.24 297.919 100.664C297.279 100.056 296.319 99.752 295.039 99.752C294.047 99.752 293.215 99.928 292.543 100.28C291.903 100.632 291.487 101.128 291.295 101.768C291.199 102.12 290.991 102.28 290.671 102.248L284.863 101.48C284.479 101.416 284.303 101.272 284.335 101.048C284.463 99.704 284.991 98.488 285.919 97.4C286.879 96.312 288.127 95.464 289.663 94.856C291.231 94.248 292.975 93.944 294.895 93.944ZM293.935 114.344C295.311 114.344 296.479 113.976 297.439 113.24C298.399 112.504 298.879 111.56 298.879 110.408V108.68C298.879 108.52 298.799 108.44 298.639 108.44H295.183C293.743 108.44 292.607 108.712 291.775 109.256C290.975 109.8 290.575 110.568 290.575 111.56C290.575 112.424 290.879 113.112 291.487 113.624C292.095 114.104 292.911 114.344 293.935 114.344ZM322.319 93.944C324.879 93.944 326.943 94.728 328.511 96.296C330.079 97.864 330.863 99.992 330.863 102.68V118.424C330.863 118.584 330.799 118.728 330.671 118.856C330.575 118.952 330.447 119 330.287 119H324.671C324.511 119 324.367 118.952 324.239 118.856C324.143 118.728 324.095 118.584 324.095 118.424V104.072C324.095 102.792 323.727 101.752 322.991 100.952C322.287 100.152 321.343 99.752 320.159 99.752C318.975 99.752 318.015 100.152 317.279 100.952C316.575 101.752 316.223 102.792 316.223 104.072V118.424C316.223 118.584 316.159 118.728 316.031 118.856C315.935 118.952 315.807 119 315.647 119H310.031C309.871 119 309.727 118.952 309.599 118.856C309.503 118.728 309.455 118.584 309.455 118.424V94.904C309.455 94.744 309.503 94.616 309.599 94.52C309.727 94.392 309.871 94.328 310.031 94.328H315.647C315.807 94.328 315.935 94.392 316.031 94.52C316.159 94.616 316.223 94.744 316.223 94.904V96.584C316.223 96.68 316.255 96.744 316.319 96.776C316.383 96.808 316.431 96.792 316.463 96.728C317.775 94.872 319.727 93.944 322.319 93.944ZM349.916 85.976C349.916 85.816 349.964 85.688 350.06 85.592C350.188 85.464 350.332 85.4 350.492 85.4H356.108C356.268 85.4 356.396 85.464 356.492 85.592C356.62 85.688 356.684 85.816 356.684 85.976V118.424C356.684 118.584 356.62 118.728 356.492 118.856C356.396 118.952 356.268 119 356.108 119H350.492C350.332 119 350.188 118.952 350.06 118.856C349.964 118.728 349.916 118.584 349.916 118.424V116.84C349.916 116.744 349.884 116.696 349.82 116.696C349.756 116.664 349.692 116.68 349.628 116.744C348.284 118.504 346.444 119.384 344.108 119.384C341.868 119.384 339.932 118.76 338.3 117.512C336.7 116.264 335.548 114.552 334.844 112.376C334.3 110.712 334.028 108.776 334.028 106.568C334.028 104.296 334.316 102.312 334.892 100.616C335.628 98.568 336.78 96.952 338.348 95.768C339.948 94.552 341.916 93.944 344.252 93.944C346.556 93.944 348.348 94.744 349.628 96.344C349.692 96.44 349.756 96.472 349.82 96.44C349.884 96.408 349.916 96.344 349.916 96.248V85.976ZM348.908 111.512C349.548 110.328 349.868 108.712 349.868 106.664C349.868 104.52 349.516 102.84 348.812 101.624C348.076 100.376 347.004 99.752 345.596 99.752C344.092 99.752 342.956 100.376 342.188 101.624C341.388 102.872 340.988 104.568 340.988 106.712C340.988 108.632 341.324 110.232 341.996 111.512C342.796 112.888 343.98 113.576 345.548 113.576C346.988 113.576 348.108 112.888 348.908 111.512ZM380.329 119.384C377.769 119.384 375.545 118.744 373.657 117.464C371.801 116.184 370.473 114.424 369.673 112.184C369.129 110.584 368.857 108.696 368.857 106.52C368.857 104.376 369.129 102.52 369.673 100.952C370.441 98.776 371.769 97.064 373.657 95.816C375.545 94.568 377.769 93.944 380.329 93.944C382.889 93.944 385.129 94.584 387.049 95.864C389.001 97.144 390.297 98.76 390.937 100.712C391.193 101.48 391.321 102.056 391.321 102.44V102.536C391.321 102.824 391.161 103 390.841 103.064L385.321 103.88H385.225C384.937 103.88 384.745 103.72 384.649 103.4L384.505 102.632C384.281 101.8 383.785 101.112 383.017 100.568C382.249 100.024 381.337 99.752 380.281 99.752C379.257 99.752 378.393 100.008 377.689 100.52C376.985 101.032 376.489 101.736 376.201 102.632C375.849 103.592 375.673 104.904 375.673 106.568C375.673 108.232 375.833 109.544 376.153 110.504C376.441 111.464 376.937 112.216 377.641 112.76C378.377 113.304 379.257 113.576 380.281 113.576C381.273 113.576 382.137 113.32 382.873 112.808C383.641 112.264 384.169 111.528 384.457 110.6C384.489 110.536 384.505 110.44 384.505 110.312C384.537 110.28 384.553 110.232 384.553 110.168C384.585 109.784 384.809 109.624 385.225 109.688L390.745 110.552C391.065 110.616 391.225 110.792 391.225 111.08C391.225 111.336 391.129 111.816 390.937 112.52C390.265 114.664 388.953 116.344 387.001 117.56C385.081 118.776 382.857 119.384 380.329 119.384ZM404.142 93.944C406.222 93.944 408.078 94.312 409.71 95.048C411.342 95.752 412.606 96.728 413.502 97.976C414.43 99.224 414.894 100.616 414.894 102.152V118.424C414.894 118.584 414.83 118.728 414.702 118.856C414.606 118.952 414.478 119 414.318 119H408.702C408.542 119 408.398 118.952 408.27 118.856C408.174 118.728 408.126 118.584 408.126 118.424V116.84C408.126 116.744 408.094 116.68 408.03 116.648C407.966 116.616 407.902 116.648 407.838 116.744C406.494 118.504 404.334 119.384 401.358 119.384C398.862 119.384 396.846 118.776 395.31 117.56C393.774 116.344 393.006 114.552 393.006 112.184C393.006 109.72 393.87 107.816 395.598 106.472C397.326 105.096 399.79 104.408 402.99 104.408H407.886C408.046 104.408 408.126 104.328 408.126 104.168V103.112C408.126 102.056 407.806 101.24 407.166 100.664C406.526 100.056 405.566 99.752 404.286 99.752C403.294 99.752 402.462 99.928 401.79 100.28C401.15 100.632 400.734 101.128 400.542 101.768C400.446 102.12 400.238 102.28 399.918 102.248L394.11 101.48C393.726 101.416 393.55 101.272 393.582 101.048C393.71 99.704 394.238 98.488 395.166 97.4C396.126 96.312 397.374 95.464 398.91 94.856C400.478 94.248 402.222 93.944 404.142 93.944ZM403.182 114.344C404.558 114.344 405.726 113.976 406.686 113.24C407.646 112.504 408.126 111.56 408.126 110.408V108.68C408.126 108.52 408.046 108.44 407.886 108.44H404.43C402.99 108.44 401.854 108.712 401.022 109.256C400.222 109.8 399.822 110.568 399.822 111.56C399.822 112.424 400.126 113.112 400.734 113.624C401.342 114.104 402.158 114.344 403.182 114.344ZM429.55 119.384C426.99 119.384 424.766 118.744 422.878 117.464C421.022 116.184 419.694 114.424 418.894 112.184C418.35 110.584 418.078 108.696 418.078 106.52C418.078 104.376 418.35 102.52 418.894 100.952C419.662 98.776 420.99 97.064 422.878 95.816C424.766 94.568 426.99 93.944 429.55 93.944C432.11 93.944 434.35 94.584 436.27 95.864C438.222 97.144 439.518 98.76 440.158 100.712C440.414 101.48 440.542 102.056 440.542 102.44V102.536C440.542 102.824 440.382 103 440.062 103.064L434.542 103.88H434.446C434.158 103.88 433.966 103.72 433.87 103.4L433.726 102.632C433.502 101.8 433.006 101.112 432.238 100.568C431.47 100.024 430.558 99.752 429.502 99.752C428.478 99.752 427.614 100.008 426.91 100.52C426.206 101.032 425.71 101.736 425.422 102.632C425.07 103.592 424.894 104.904 424.894 106.568C424.894 108.232 425.054 109.544 425.374 110.504C425.662 111.464 426.158 112.216 426.862 112.76C427.598 113.304 428.478 113.576 429.502 113.576C430.494 113.576 431.358 113.32 432.094 112.808C432.862 112.264 433.39 111.528 433.678 110.6C433.71 110.536 433.726 110.44 433.726 110.312C433.758 110.28 433.774 110.232 433.774 110.168C433.806 109.784 434.03 109.624 434.446 109.688L439.966 110.552C440.286 110.616 440.446 110.792 440.446 111.08C440.446 111.336 440.35 111.816 440.158 112.52C439.486 114.664 438.174 116.344 436.222 117.56C434.302 118.776 432.078 119.384 429.55 119.384ZM456.387 93.944C458.947 93.944 461.011 94.728 462.579 96.296C464.147 97.864 464.931 99.992 464.931 102.68V118.424C464.931 118.584 464.867 118.728 464.739 118.856C464.643 118.952 464.515 119 464.355 119H458.739C458.579 119 458.435 118.952 458.307 118.856C458.211 118.728 458.163 118.584 458.163 118.424V104.072C458.163 102.792 457.795 101.752 457.059 100.952C456.355 100.152 455.411 99.752 454.227 99.752C453.043 99.752 452.083 100.152 451.347 100.952C450.643 101.752 450.291 102.792 450.291 104.072V118.424C450.291 118.584 450.227 118.728 450.099 118.856C450.003 118.952 449.875 119 449.715 119H444.099C443.939 119 443.795 118.952 443.667 118.856C443.571 118.728 443.523 118.584 443.523 118.424V85.976C443.523 85.816 443.571 85.688 443.667 85.592C443.795 85.464 443.939 85.4 444.099 85.4H449.715C449.875 85.4 450.003 85.464 450.099 85.592C450.227 85.688 450.291 85.816 450.291 85.976V96.584C450.291 96.68 450.323 96.744 450.387 96.776C450.451 96.808 450.499 96.792 450.531 96.728C451.843 94.872 453.795 93.944 456.387 93.944ZM490.512 104.12C490.704 105.336 490.768 106.696 490.704 108.2C490.672 108.584 490.464 108.776 490.08 108.776H475.248C475.056 108.776 474.992 108.856 475.056 109.016C475.152 109.656 475.328 110.296 475.584 110.936C476.416 112.728 478.112 113.624 480.672 113.624C482.72 113.592 484.336 112.76 485.52 111.128C485.648 110.936 485.792 110.84 485.952 110.84C486.048 110.84 486.16 110.904 486.288 111.032L489.744 114.44C489.904 114.6 489.984 114.744 489.984 114.872C489.984 114.936 489.92 115.064 489.792 115.256C488.736 116.568 487.376 117.592 485.712 118.328C484.048 119.032 482.224 119.384 480.24 119.384C477.488 119.384 475.152 118.76 473.232 117.512C471.344 116.264 469.984 114.52 469.152 112.28C468.48 110.68 468.144 108.584 468.144 105.992C468.144 104.232 468.384 102.68 468.864 101.336C469.6 99.064 470.88 97.256 472.704 95.912C474.56 94.568 476.752 93.896 479.28 93.896C482.48 93.896 485.04 94.824 486.96 96.68C488.912 98.536 490.096 101.016 490.512 104.12ZM479.328 99.752C477.312 99.752 475.984 100.696 475.344 102.584C475.216 103 475.104 103.512 475.008 104.12C475.008 104.28 475.088 104.36 475.248 104.36H483.552C483.744 104.36 483.808 104.28 483.744 104.12C483.584 103.192 483.504 102.744 483.504 102.776C483.216 101.816 482.704 101.08 481.968 100.568C481.264 100.024 480.384 99.752 479.328 99.752ZM506.213 91.544C505.125 91.544 504.213 91.192 503.477 90.488C502.773 89.752 502.421 88.84 502.421 87.752C502.421 86.632 502.773 85.72 503.477 85.016C504.181 84.312 505.093 83.96 506.213 83.96C507.333 83.96 508.245 84.312 508.949 85.016C509.653 85.72 510.005 86.632 510.005 87.752C510.005 88.84 509.637 89.752 508.901 90.488C508.197 91.192 507.301 91.544 506.213 91.544ZM503.333 119C503.173 119 503.029 118.952 502.901 118.856C502.805 118.728 502.757 118.584 502.757 118.424V94.856C502.757 94.696 502.805 94.568 502.901 94.472C503.029 94.344 503.173 94.28 503.333 94.28H508.949C509.109 94.28 509.237 94.344 509.333 94.472C509.461 94.568 509.525 94.696 509.525 94.856V118.424C509.525 118.584 509.461 118.728 509.333 118.856C509.237 118.952 509.109 119 508.949 119H503.333ZM526.703 93.944C529.263 93.944 531.327 94.728 532.895 96.296C534.463 97.864 535.247 99.992 535.247 102.68V118.424C535.247 118.584 535.183 118.728 535.055 118.856C534.959 118.952 534.831 119 534.671 119H529.055C528.895 119 528.751 118.952 528.623 118.856C528.527 118.728 528.479 118.584 528.479 118.424V104.072C528.479 102.792 528.111 101.752 527.375 100.952C526.671 100.152 525.727 99.752 524.543 99.752C523.359 99.752 522.399 100.152 521.663 100.952C520.959 101.752 520.607 102.792 520.607 104.072V118.424C520.607 118.584 520.543 118.728 520.415 118.856C520.319 118.952 520.191 119 520.031 119H514.415C514.255 119 514.111 118.952 513.983 118.856C513.887 118.728 513.839 118.584 513.839 118.424V94.904C513.839 94.744 513.887 94.616 513.983 94.52C514.111 94.392 514.255 94.328 514.415 94.328H520.031C520.191 94.328 520.319 94.392 520.415 94.52C520.543 94.616 520.607 94.744 520.607 94.904V96.584C520.607 96.68 520.639 96.744 520.703 96.776C520.767 96.808 520.815 96.792 520.847 96.728C522.159 94.872 524.111 93.944 526.703 93.944ZM544.915 119C544.595 119 544.387 118.84 544.291 118.52L536.611 94.952C536.579 94.888 536.563 94.808 536.563 94.712C536.563 94.424 536.739 94.28 537.091 94.28H543.283C543.635 94.28 543.859 94.44 543.955 94.76L547.891 109.304C547.923 109.4 547.971 109.448 548.035 109.448C548.099 109.448 548.147 109.4 548.179 109.304L552.115 94.76C552.211 94.44 552.435 94.28 552.787 94.28L558.979 94.376C559.171 94.376 559.315 94.44 559.411 94.568C559.507 94.664 559.523 94.824 559.459 95.048L551.827 118.52C551.731 118.84 551.523 119 551.203 119H544.915ZM570.556 93.944C572.636 93.944 574.492 94.312 576.124 95.048C577.756 95.752 579.02 96.728 579.916 97.976C580.844 99.224 581.308 100.616 581.308 102.152V118.424C581.308 118.584 581.244 118.728 581.116 118.856C581.02 118.952 580.892 119 580.732 119H575.116C574.956 119 574.812 118.952 574.684 118.856C574.588 118.728 574.54 118.584 574.54 118.424V116.84C574.54 116.744 574.508 116.68 574.444 116.648C574.38 116.616 574.316 116.648 574.252 116.744C572.908 118.504 570.748 119.384 567.772 119.384C565.276 119.384 563.26 118.776 561.724 117.56C560.188 116.344 559.42 114.552 559.42 112.184C559.42 109.72 560.284 107.816 562.012 106.472C563.74 105.096 566.204 104.408 569.404 104.408H574.3C574.46 104.408 574.54 104.328 574.54 104.168V103.112C574.54 102.056 574.22 101.24 573.58 100.664C572.94 100.056 571.98 99.752 570.7 99.752C569.708 99.752 568.876 99.928 568.204 100.28C567.564 100.632 567.148 101.128 566.956 101.768C566.86 102.12 566.652 102.28 566.332 102.248L560.524 101.48C560.14 101.416 559.964 101.272 559.996 101.048C560.124 99.704 560.652 98.488 561.58 97.4C562.54 96.312 563.788 95.464 565.324 94.856C566.892 94.248 568.636 93.944 570.556 93.944ZM569.596 114.344C570.972 114.344 572.14 113.976 573.1 113.24C574.06 112.504 574.54 111.56 574.54 110.408V108.68C574.54 108.52 574.46 108.44 574.3 108.44H570.844C569.404 108.44 568.268 108.712 567.436 109.256C566.636 109.8 566.236 110.568 566.236 111.56C566.236 112.424 566.54 113.112 567.148 113.624C567.756 114.104 568.572 114.344 569.596 114.344ZM585.691 119C585.531 119 585.387 118.952 585.259 118.856C585.163 118.728 585.115 118.584 585.115 118.424V85.976C585.115 85.816 585.163 85.688 585.259 85.592C585.387 85.464 585.531 85.4 585.691 85.4H591.307C591.467 85.4 591.595 85.464 591.691 85.592C591.819 85.688 591.883 85.816 591.883 85.976V118.424C591.883 118.584 591.819 118.728 591.691 118.856C591.595 118.952 591.467 119 591.307 119H585.691ZM599.522 91.544C598.434 91.544 597.522 91.192 596.786 90.488C596.082 89.752 595.73 88.84 595.73 87.752C595.73 86.632 596.082 85.72 596.786 85.016C597.49 84.312 598.402 83.96 599.522 83.96C600.642 83.96 601.554 84.312 602.258 85.016C602.962 85.72 603.314 86.632 603.314 87.752C603.314 88.84 602.946 89.752 602.21 90.488C601.506 91.192 600.61 91.544 599.522 91.544ZM596.642 119C596.482 119 596.338 118.952 596.21 118.856C596.114 118.728 596.066 118.584 596.066 118.424V94.856C596.066 94.696 596.114 94.568 596.21 94.472C596.338 94.344 596.482 94.28 596.642 94.28H602.258C602.418 94.28 602.546 94.344 602.642 94.472C602.77 94.568 602.834 94.696 602.834 94.856V118.424C602.834 118.584 602.77 118.728 602.642 118.856C602.546 118.952 602.418 119 602.258 119H596.642ZM622.461 85.976C622.461 85.816 622.509 85.688 622.605 85.592C622.733 85.464 622.877 85.4 623.037 85.4H628.653C628.813 85.4 628.941 85.464 629.037 85.592C629.165 85.688 629.229 85.816 629.229 85.976V118.424C629.229 118.584 629.165 118.728 629.037 118.856C628.941 118.952 628.813 119 628.653 119H623.037C622.877 119 622.733 118.952 622.605 118.856C622.509 118.728 622.461 118.584 622.461 118.424V116.84C622.461 116.744 622.429 116.696 622.365 116.696C622.301 116.664 622.237 116.68 622.173 116.744C620.829 118.504 618.989 119.384 616.653 119.384C614.413 119.384 612.477 118.76 610.845 117.512C609.245 116.264 608.093 114.552 607.389 112.376C606.845 110.712 606.573 108.776 606.573 106.568C606.573 104.296 606.861 102.312 607.437 100.616C608.173 98.568 609.325 96.952 610.893 95.768C612.493 94.552 614.461 93.944 616.797 93.944C619.101 93.944 620.893 94.744 622.173 96.344C622.237 96.44 622.301 96.472 622.365 96.44C622.429 96.408 622.461 96.344 622.461 96.248V85.976ZM621.453 111.512C622.093 110.328 622.413 108.712 622.413 106.664C622.413 104.52 622.061 102.84 621.357 101.624C620.621 100.376 619.549 99.752 618.141 99.752C616.637 99.752 615.501 100.376 614.733 101.624C613.933 102.872 613.533 104.568 613.533 106.712C613.533 108.632 613.869 110.232 614.541 111.512C615.341 112.888 616.525 113.576 618.093 113.576C619.533 113.576 620.653 112.888 621.453 111.512ZM643.216 93.944C645.296 93.944 647.152 94.312 648.784 95.048C650.416 95.752 651.68 96.728 652.576 97.976C653.504 99.224 653.968 100.616 653.968 102.152V118.424C653.968 118.584 653.904 118.728 653.776 118.856C653.68 118.952 653.552 119 653.392 119H647.776C647.616 119 647.472 118.952 647.344 118.856C647.248 118.728 647.2 118.584 647.2 118.424V116.84C647.2 116.744 647.168 116.68 647.104 116.648C647.04 116.616 646.976 116.648 646.912 116.744C645.568 118.504 643.408 119.384 640.432 119.384C637.936 119.384 635.92 118.776 634.384 117.56C632.848 116.344 632.08 114.552 632.08 112.184C632.08 109.72 632.944 107.816 634.672 106.472C636.4 105.096 638.864 104.408 642.064 104.408H646.96C647.12 104.408 647.2 104.328 647.2 104.168V103.112C647.2 102.056 646.88 101.24 646.24 100.664C645.6 100.056 644.64 99.752 643.36 99.752C642.368 99.752 641.536 99.928 640.864 100.28C640.224 100.632 639.808 101.128 639.616 101.768C639.52 102.12 639.312 102.28 638.992 102.248L633.184 101.48C632.8 101.416 632.624 101.272 632.656 101.048C632.784 99.704 633.312 98.488 634.24 97.4C635.2 96.312 636.448 95.464 637.984 94.856C639.552 94.248 641.296 93.944 643.216 93.944ZM642.256 114.344C643.632 114.344 644.8 113.976 645.76 113.24C646.72 112.504 647.2 111.56 647.2 110.408V108.68C647.2 108.52 647.12 108.44 646.96 108.44H643.504C642.064 108.44 640.928 108.712 640.096 109.256C639.296 109.8 638.896 110.568 638.896 111.56C638.896 112.424 639.2 113.112 639.808 113.624C640.416 114.104 641.232 114.344 642.256 114.344ZM671.42 99.176C671.42 99.336 671.356 99.48 671.228 99.608C671.132 99.704 671.004 99.752 670.844 99.752H666.236C666.076 99.752 665.996 99.832 665.996 99.992V110.168C665.996 111.224 666.204 112.008 666.62 112.52C667.068 113.032 667.772 113.288 668.732 113.288H670.316C670.476 113.288 670.604 113.352 670.7 113.48C670.828 113.576 670.892 113.704 670.892 113.864V118.424C670.892 118.776 670.7 118.984 670.316 119.048C668.972 119.112 668.012 119.144 667.436 119.144C664.78 119.144 662.796 118.712 661.484 117.848C660.172 116.952 659.5 115.288 659.468 112.856V99.992C659.468 99.832 659.388 99.752 659.228 99.752H656.492C656.332 99.752 656.188 99.704 656.06 99.608C655.964 99.48 655.916 99.336 655.916 99.176V94.904C655.916 94.744 655.964 94.616 656.06 94.52C656.188 94.392 656.332 94.328 656.492 94.328H659.228C659.388 94.328 659.468 94.248 659.468 94.088V88.376C659.468 88.216 659.516 88.088 659.612 87.992C659.74 87.864 659.884 87.8 660.044 87.8H665.42C665.58 87.8 665.708 87.864 665.804 87.992C665.932 88.088 665.996 88.216 665.996 88.376V94.088C665.996 94.248 666.076 94.328 666.236 94.328H670.844C671.004 94.328 671.132 94.392 671.228 94.52C671.356 94.616 671.42 94.744 671.42 94.904V99.176ZM678.182 91.544C677.094 91.544 676.182 91.192 675.446 90.488C674.742 89.752 674.39 88.84 674.39 87.752C674.39 86.632 674.742 85.72 675.446 85.016C676.15 84.312 677.062 83.96 678.182 83.96C679.302 83.96 680.214 84.312 680.918 85.016C681.622 85.72 681.974 86.632 681.974 87.752C681.974 88.84 681.606 89.752 680.87 90.488C680.166 91.192 679.27 91.544 678.182 91.544ZM675.302 119C675.142 119 674.998 118.952 674.87 118.856C674.774 118.728 674.726 118.584 674.726 118.424V94.856C674.726 94.696 674.774 94.568 674.87 94.472C674.998 94.344 675.142 94.28 675.302 94.28H680.918C681.078 94.28 681.206 94.344 681.302 94.472C681.43 94.568 681.494 94.696 681.494 94.856V118.424C681.494 118.584 681.43 118.728 681.302 118.856C681.206 118.952 681.078 119 680.918 119H675.302ZM696.705 119.384C694.017 119.384 691.713 118.68 689.793 117.272C687.873 115.864 686.561 113.944 685.857 111.512C685.409 110.008 685.185 108.376 685.185 106.616C685.185 104.728 685.409 103.032 685.857 101.528C686.593 99.16 687.921 97.304 689.841 95.96C691.761 94.616 694.065 93.944 696.753 93.944C699.377 93.944 701.617 94.616 703.473 95.96C705.329 97.272 706.641 99.112 707.409 101.48C707.921 103.08 708.177 104.76 708.177 106.52C708.177 108.248 707.953 109.864 707.505 111.368C706.801 113.864 705.489 115.832 703.569 117.272C701.681 118.68 699.393 119.384 696.705 119.384ZM696.705 113.576C697.761 113.576 698.657 113.256 699.393 112.616C700.129 111.976 700.657 111.096 700.977 109.976C701.233 108.952 701.361 107.832 701.361 106.616C701.361 105.272 701.233 104.136 700.977 103.208C700.625 102.12 700.081 101.272 699.345 100.664C698.609 100.056 697.713 99.752 696.657 99.752C695.569 99.752 694.657 100.056 693.921 100.664C693.217 101.272 692.705 102.12 692.385 103.208C692.129 103.976 692.001 105.112 692.001 106.616C692.001 108.056 692.113 109.176 692.337 109.976C692.657 111.096 693.185 111.976 693.921 112.616C694.689 113.256 695.617 113.576 696.705 113.576ZM724.431 93.944C726.991 93.944 729.055 94.728 730.623 96.296C732.191 97.864 732.975 99.992 732.975 102.68V118.424C732.975 118.584 732.911 118.728 732.783 118.856C732.687 118.952 732.559 119 732.399 119H726.783C726.623 119 726.479 118.952 726.351 118.856C726.255 118.728 726.207 118.584 726.207 118.424V104.072C726.207 102.792 725.839 101.752 725.103 100.952C724.399 100.152 723.455 99.752 722.271 99.752C721.087 99.752 720.127 100.152 719.391 100.952C718.687 101.752 718.335 102.792 718.335 104.072V118.424C718.335 118.584 718.271 118.728 718.143 118.856C718.047 118.952 717.919 119 717.759 119H712.143C711.983 119 711.839 118.952 711.711 118.856C711.615 118.728 711.567 118.584 711.567 118.424V94.904C711.567 94.744 711.615 94.616 711.711 94.52C711.839 94.392 711.983 94.328 712.143 94.328H717.759C717.919 94.328 718.047 94.392 718.143 94.52C718.271 94.616 718.335 94.744 718.335 94.904V96.584C718.335 96.68 718.367 96.744 718.431 96.776C718.495 96.808 718.543 96.792 718.575 96.728C719.887 94.872 721.839 93.944 724.431 93.944ZM193.275 172C192.923 172 192.699 171.84 192.603 171.52L185.691 147.952L185.643 147.76C185.643 147.44 185.819 147.28 186.171 147.28H191.979C192.331 147.28 192.555 147.44 192.651 147.76L196.107 162.256C196.139 162.352 196.187 162.4 196.251 162.4C196.315 162.4 196.363 162.352 196.395 162.256L199.995 147.76C200.091 147.44 200.315 147.28 200.667 147.28H205.707C206.059 147.28 206.283 147.44 206.379 147.76L210.171 162.304C210.203 162.4 210.251 162.448 210.315 162.448C210.379 162.448 210.427 162.4 210.459 162.304L214.203 147.76C214.299 147.44 214.523 147.28 214.875 147.28L220.635 147.376C220.827 147.376 220.955 147.44 221.019 147.568C221.115 147.664 221.147 147.808 221.115 148L214.107 171.52C214.011 171.84 213.803 172 213.483 172H207.675C207.323 172 207.099 171.84 207.003 171.52L203.307 158.656C203.275 158.56 203.227 158.512 203.163 158.512C203.099 158.512 203.051 158.56 203.019 158.656L199.755 171.52C199.659 171.84 199.435 172 199.083 172H193.275ZM227.412 144.544C226.324 144.544 225.412 144.192 224.676 143.488C223.972 142.752 223.62 141.84 223.62 140.752C223.62 139.632 223.972 138.72 224.676 138.016C225.38 137.312 226.292 136.96 227.412 136.96C228.532 136.96 229.444 137.312 230.148 138.016C230.852 138.72 231.204 139.632 231.204 140.752C231.204 141.84 230.836 142.752 230.1 143.488C229.396 144.192 228.5 144.544 227.412 144.544ZM224.532 172C224.372 172 224.228 171.952 224.1 171.856C224.004 171.728 223.956 171.584 223.956 171.424V147.856C223.956 147.696 224.004 147.568 224.1 147.472C224.228 147.344 224.372 147.28 224.532 147.28H230.148C230.308 147.28 230.436 147.344 230.532 147.472C230.66 147.568 230.724 147.696 230.724 147.856V171.424C230.724 171.584 230.66 171.728 230.532 171.856C230.436 171.952 230.308 172 230.148 172H224.532ZM249.199 152.176C249.199 152.336 249.135 152.48 249.007 152.608C248.911 152.704 248.783 152.752 248.623 152.752H244.015C243.855 152.752 243.775 152.832 243.775 152.992V163.168C243.775 164.224 243.983 165.008 244.399 165.52C244.847 166.032 245.551 166.288 246.511 166.288H248.095C248.255 166.288 248.383 166.352 248.479 166.48C248.607 166.576 248.671 166.704 248.671 166.864V171.424C248.671 171.776 248.479 171.984 248.095 172.048C246.751 172.112 245.791 172.144 245.215 172.144C242.559 172.144 240.575 171.712 239.263 170.848C237.951 169.952 237.279 168.288 237.247 165.856V152.992C237.247 152.832 237.167 152.752 237.007 152.752H234.271C234.111 152.752 233.967 152.704 233.839 152.608C233.743 152.48 233.695 152.336 233.695 152.176V147.904C233.695 147.744 233.743 147.616 233.839 147.52C233.967 147.392 234.111 147.328 234.271 147.328H237.007C237.167 147.328 237.247 147.248 237.247 147.088V141.376C237.247 141.216 237.295 141.088 237.391 140.992C237.519 140.864 237.663 140.8 237.823 140.8H243.199C243.359 140.8 243.487 140.864 243.583 140.992C243.711 141.088 243.775 141.216 243.775 141.376V147.088C243.775 147.248 243.855 147.328 244.015 147.328H248.623C248.783 147.328 248.911 147.392 249.007 147.52C249.135 147.616 249.199 147.744 249.199 147.904V152.176ZM265.177 146.944C267.737 146.944 269.801 147.728 271.369 149.296C272.937 150.864 273.721 152.992 273.721 155.68V171.424C273.721 171.584 273.657 171.728 273.529 171.856C273.433 171.952 273.305 172 273.145 172H267.529C267.369 172 267.225 171.952 267.097 171.856C267.001 171.728 266.953 171.584 266.953 171.424V157.072C266.953 155.792 266.585 154.752 265.849 153.952C265.145 153.152 264.201 152.752 263.017 152.752C261.833 152.752 260.873 153.152 260.137 153.952C259.433 154.752 259.081 155.792 259.081 157.072V171.424C259.081 171.584 259.017 171.728 258.889 171.856C258.793 171.952 258.665 172 258.505 172H252.889C252.729 172 252.585 171.952 252.457 171.856C252.361 171.728 252.313 171.584 252.313 171.424V138.976C252.313 138.816 252.361 138.688 252.457 138.592C252.585 138.464 252.729 138.4 252.889 138.4H258.505C258.665 138.4 258.793 138.464 258.889 138.592C259.017 138.688 259.081 138.816 259.081 138.976V149.584C259.081 149.68 259.113 149.744 259.177 149.776C259.241 149.808 259.289 149.792 259.321 149.728C260.633 147.872 262.585 146.944 265.177 146.944ZM300.557 138.352C302.669 138.352 304.525 138.784 306.125 139.648C307.725 140.512 308.957 141.744 309.821 143.344C310.717 144.912 311.165 146.72 311.165 148.768C311.165 150.784 310.701 152.56 309.773 154.096C308.877 155.632 307.597 156.832 305.933 157.696C304.301 158.528 302.413 158.944 300.269 158.944H293.453C293.293 158.944 293.213 159.024 293.213 159.184V171.424C293.213 171.584 293.149 171.728 293.021 171.856C292.925 171.952 292.797 172 292.637 172H287.021C286.861 172 286.717 171.952 286.589 171.856C286.493 171.728 286.445 171.584 286.445 171.424V138.928C286.445 138.768 286.493 138.64 286.589 138.544C286.717 138.416 286.861 138.352 287.021 138.352H300.557ZM299.549 153.52C301.021 153.52 302.205 153.104 303.101 152.272C303.997 151.408 304.445 150.288 304.445 148.912C304.445 147.504 303.997 146.368 303.101 145.504C302.205 144.64 301.021 144.208 299.549 144.208H293.453C293.293 144.208 293.213 144.288 293.213 144.448V153.28C293.213 153.44 293.293 153.52 293.453 153.52H299.549ZM326.221 146.992C327.373 146.992 328.285 147.216 328.957 147.664C329.213 147.792 329.309 148.032 329.245 148.384L328.237 153.856C328.205 154.24 327.981 154.352 327.565 154.192C327.085 154.032 326.525 153.952 325.885 153.952C325.629 153.952 325.277 153.984 324.829 154.048C323.677 154.144 322.701 154.576 321.901 155.344C321.101 156.08 320.701 157.072 320.701 158.32V171.424C320.701 171.584 320.637 171.728 320.509 171.856C320.413 171.952 320.285 172 320.125 172H314.509C314.349 172 314.205 171.952 314.077 171.856C313.981 171.728 313.933 171.584 313.933 171.424V147.904C313.933 147.744 313.981 147.616 314.077 147.52C314.205 147.392 314.349 147.328 314.509 147.328H320.125C320.285 147.328 320.413 147.392 320.509 147.52C320.637 147.616 320.701 147.744 320.701 147.904V149.728C320.701 149.824 320.733 149.888 320.797 149.92C320.861 149.952 320.909 149.936 320.941 149.872C322.253 147.952 324.013 146.992 326.221 146.992ZM334.996 144.544C333.908 144.544 332.996 144.192 332.26 143.488C331.556 142.752 331.204 141.84 331.204 140.752C331.204 139.632 331.556 138.72 332.26 138.016C332.964 137.312 333.876 136.96 334.996 136.96C336.116 136.96 337.028 137.312 337.732 138.016C338.436 138.72 338.788 139.632 338.788 140.752C338.788 141.84 338.42 142.752 337.684 143.488C336.98 144.192 336.084 144.544 334.996 144.544ZM332.116 172C331.956 172 331.812 171.952 331.684 171.856C331.588 171.728 331.54 171.584 331.54 171.424V147.856C331.54 147.696 331.588 147.568 331.684 147.472C331.812 147.344 331.956 147.28 332.116 147.28H337.732C337.892 147.28 338.02 147.344 338.116 147.472C338.244 147.568 338.308 147.696 338.308 147.856V171.424C338.308 171.584 338.244 171.728 338.116 171.856C338.02 171.952 337.892 172 337.732 172H332.116ZM352.463 172.336C350.319 172.336 348.447 172.032 346.847 171.424C345.247 170.816 343.999 169.968 343.103 168.88C342.239 167.792 341.807 166.56 341.807 165.184V164.704C341.807 164.544 341.855 164.416 341.951 164.32C342.079 164.192 342.223 164.128 342.383 164.128H347.711C347.871 164.128 347.999 164.192 348.095 164.32C348.223 164.416 348.287 164.544 348.287 164.704V164.752C348.287 165.456 348.671 166.064 349.439 166.576C350.239 167.056 351.231 167.296 352.415 167.296C353.503 167.296 354.383 167.088 355.055 166.672C355.727 166.224 356.063 165.68 356.063 165.04C356.063 164.464 355.775 164.032 355.199 163.744C354.623 163.456 353.679 163.152 352.367 162.832C350.863 162.448 349.679 162.08 348.815 161.728C346.767 161.024 345.135 160.16 343.919 159.136C342.703 158.112 342.095 156.64 342.095 154.72C342.095 152.352 343.007 150.48 344.831 149.104C346.687 147.696 349.135 146.992 352.175 146.992C354.223 146.992 356.015 147.328 357.551 148C359.087 148.64 360.271 149.552 361.103 150.736C361.967 151.92 362.399 153.264 362.399 154.768C362.399 154.928 362.335 155.072 362.207 155.2C362.111 155.296 361.983 155.344 361.823 155.344H356.687C356.527 155.344 356.383 155.296 356.255 155.2C356.159 155.072 356.111 154.928 356.111 154.768C356.111 154.064 355.743 153.472 355.007 152.992C354.303 152.512 353.359 152.272 352.175 152.272C351.119 152.272 350.255 152.464 349.583 152.848C348.911 153.232 348.575 153.76 348.575 154.432C348.575 155.072 348.895 155.552 349.535 155.872C350.207 156.192 351.311 156.528 352.847 156.88C353.199 156.976 353.599 157.088 354.047 157.216C354.495 157.312 354.975 157.44 355.487 157.6C357.759 158.272 359.551 159.136 360.863 160.192C362.175 161.248 362.831 162.784 362.831 164.8C362.831 167.168 361.887 169.024 359.999 170.368C358.143 171.68 355.631 172.336 352.463 172.336ZM393.116 146.944C395.612 146.944 397.564 147.696 398.972 149.2C400.38 150.704 401.084 152.816 401.084 155.536V171.424C401.084 171.584 401.02 171.728 400.892 171.856C400.796 171.952 400.668 172 400.508 172H394.892C394.732 172 394.588 171.952 394.46 171.856C394.364 171.728 394.316 171.584 394.316 171.424V157.024C394.316 155.712 393.98 154.672 393.308 153.904C392.636 153.136 391.74 152.752 390.62 152.752C389.5 152.752 388.588 153.136 387.884 153.904C387.18 154.672 386.828 155.696 386.828 156.976V171.424C386.828 171.584 386.764 171.728 386.636 171.856C386.54 171.952 386.412 172 386.252 172H380.684C380.524 172 380.38 171.952 380.252 171.856C380.156 171.728 380.108 171.584 380.108 171.424V157.024C380.108 155.744 379.756 154.72 379.052 153.952C378.348 153.152 377.436 152.752 376.316 152.752C375.292 152.752 374.428 153.056 373.724 153.664C373.052 154.272 372.652 155.12 372.524 156.208V171.424C372.524 171.584 372.46 171.728 372.332 171.856C372.236 171.952 372.108 172 371.948 172H366.332C366.172 172 366.028 171.952 365.9 171.856C365.804 171.728 365.756 171.584 365.756 171.424V147.904C365.756 147.744 365.804 147.616 365.9 147.52C366.028 147.392 366.172 147.328 366.332 147.328H371.948C372.108 147.328 372.236 147.392 372.332 147.52C372.46 147.616 372.524 147.744 372.524 147.904V149.776C372.524 149.872 372.556 149.936 372.62 149.968C372.684 150 372.748 149.968 372.812 149.872C374.124 147.92 376.156 146.944 378.908 146.944C380.508 146.944 381.9 147.28 383.084 147.952C384.3 148.624 385.228 149.584 385.868 150.832C385.964 151.024 386.076 151.024 386.204 150.832C386.908 149.52 387.852 148.544 389.036 147.904C390.252 147.264 391.612 146.944 393.116 146.944ZM414.714 146.944C416.794 146.944 418.65 147.312 420.282 148.048C421.914 148.752 423.178 149.728 424.074 150.976C425.002 152.224 425.466 153.616 425.466 155.152V171.424C425.466 171.584 425.402 171.728 425.274 171.856C425.178 171.952 425.05 172 424.89 172H419.274C419.114 172 418.97 171.952 418.842 171.856C418.746 171.728 418.698 171.584 418.698 171.424V169.84C418.698 169.744 418.666 169.68 418.602 169.648C418.538 169.616 418.474 169.648 418.41 169.744C417.066 171.504 414.906 172.384 411.93 172.384C409.434 172.384 407.418 171.776 405.882 170.56C404.346 169.344 403.578 167.552 403.578 165.184C403.578 162.72 404.442 160.816 406.17 159.472C407.898 158.096 410.362 157.408 413.562 157.408H418.458C418.618 157.408 418.698 157.328 418.698 157.168V156.112C418.698 155.056 418.378 154.24 417.738 153.664C417.098 153.056 416.138 152.752 414.858 152.752C413.866 152.752 413.034 152.928 412.362 153.28C411.722 153.632 411.306 154.128 411.114 154.768C411.018 155.12 410.81 155.28 410.49 155.248L404.682 154.48C404.298 154.416 404.122 154.272 404.154 154.048C404.282 152.704 404.81 151.488 405.738 150.4C406.698 149.312 407.946 148.464 409.482 147.856C411.05 147.248 412.794 146.944 414.714 146.944ZM413.754 167.344C415.13 167.344 416.298 166.976 417.258 166.24C418.218 165.504 418.698 164.56 418.698 163.408V161.68C418.698 161.52 418.618 161.44 418.458 161.44H415.002C413.562 161.44 412.426 161.712 411.594 162.256C410.794 162.8 410.394 163.568 410.394 164.56C410.394 165.424 410.698 166.112 411.306 166.624C411.914 167.104 412.73 167.344 413.754 167.344ZM459.715 172C459.395 172 459.187 171.84 459.091 171.52L457.651 166.816C457.587 166.688 457.507 166.624 457.411 166.624H445.603C445.507 166.624 445.427 166.688 445.363 166.816L443.971 171.52C443.875 171.84 443.667 172 443.347 172H437.251C437.059 172 436.915 171.952 436.819 171.856C436.723 171.728 436.707 171.552 436.771 171.328L447.139 138.88C447.235 138.56 447.443 138.4 447.763 138.4H455.299C455.619 138.4 455.827 138.56 455.923 138.88L466.291 171.328C466.323 171.392 466.339 171.472 466.339 171.568C466.339 171.856 466.163 172 465.811 172H459.715ZM447.091 161.104C447.059 161.296 447.123 161.392 447.283 161.392H455.731C455.923 161.392 455.987 161.296 455.923 161.104L451.603 146.848C451.571 146.72 451.523 146.672 451.459 146.704C451.395 146.704 451.347 146.752 451.315 146.848L447.091 161.104ZM479.217 172.384C476.657 172.384 474.433 171.744 472.545 170.464C470.689 169.184 469.361 167.424 468.561 165.184C468.017 163.584 467.745 161.696 467.745 159.52C467.745 157.376 468.017 155.52 468.561 153.952C469.329 151.776 470.657 150.064 472.545 148.816C474.433 147.568 476.657 146.944 479.217 146.944C481.777 146.944 484.017 147.584 485.937 148.864C487.889 150.144 489.185 151.76 489.825 153.712C490.081 154.48 490.209 155.056 490.209 155.44V155.536C490.209 155.824 490.049 156 489.729 156.064L484.209 156.88H484.113C483.825 156.88 483.633 156.72 483.537 156.4L483.393 155.632C483.169 154.8 482.673 154.112 481.905 153.568C481.137 153.024 480.225 152.752 479.169 152.752C478.145 152.752 477.281 153.008 476.577 153.52C475.873 154.032 475.377 154.736 475.089 155.632C474.737 156.592 474.561 157.904 474.561 159.568C474.561 161.232 474.721 162.544 475.041 163.504C475.329 164.464 475.825 165.216 476.529 165.76C477.265 166.304 478.145 166.576 479.169 166.576C480.161 166.576 481.025 166.32 481.761 165.808C482.529 165.264 483.057 164.528 483.345 163.6C483.377 163.536 483.393 163.44 483.393 163.312C483.425 163.28 483.441 163.232 483.441 163.168C483.473 162.784 483.697 162.624 484.113 162.688L489.633 163.552C489.953 163.616 490.113 163.792 490.113 164.08C490.113 164.336 490.017 164.816 489.825 165.52C489.153 167.664 487.841 169.344 485.889 170.56C483.969 171.776 481.745 172.384 479.217 172.384ZM503.757 172.384C501.197 172.384 498.973 171.744 497.085 170.464C495.229 169.184 493.901 167.424 493.101 165.184C492.557 163.584 492.285 161.696 492.285 159.52C492.285 157.376 492.557 155.52 493.101 153.952C493.869 151.776 495.197 150.064 497.085 148.816C498.973 147.568 501.197 146.944 503.757 146.944C506.317 146.944 508.557 147.584 510.477 148.864C512.429 150.144 513.725 151.76 514.365 153.712C514.621 154.48 514.749 155.056 514.749 155.44V155.536C514.749 155.824 514.589 156 514.269 156.064L508.749 156.88H508.653C508.365 156.88 508.173 156.72 508.077 156.4L507.933 155.632C507.709 154.8 507.213 154.112 506.445 153.568C505.677 153.024 504.765 152.752 503.709 152.752C502.685 152.752 501.821 153.008 501.117 153.52C500.413 154.032 499.917 154.736 499.629 155.632C499.277 156.592 499.101 157.904 499.101 159.568C499.101 161.232 499.261 162.544 499.581 163.504C499.869 164.464 500.365 165.216 501.069 165.76C501.805 166.304 502.685 166.576 503.709 166.576C504.701 166.576 505.565 166.32 506.301 165.808C507.069 165.264 507.597 164.528 507.885 163.6C507.917 163.536 507.933 163.44 507.933 163.312C507.965 163.28 507.981 163.232 507.981 163.168C508.013 162.784 508.237 162.624 508.653 162.688L514.173 163.552C514.493 163.616 514.653 163.792 514.653 164.08C514.653 164.336 514.557 164.816 514.365 165.52C513.693 167.664 512.381 169.344 510.429 170.56C508.509 171.776 506.285 172.384 503.757 172.384ZM539.289 157.12C539.481 158.336 539.545 159.696 539.481 161.2C539.449 161.584 539.241 161.776 538.857 161.776H524.025C523.833 161.776 523.769 161.856 523.833 162.016C523.929 162.656 524.105 163.296 524.361 163.936C525.193 165.728 526.889 166.624 529.449 166.624C531.497 166.592 533.113 165.76 534.297 164.128C534.425 163.936 534.569 163.84 534.729 163.84C534.825 163.84 534.937 163.904 535.065 164.032L538.521 167.44C538.681 167.6 538.761 167.744 538.761 167.872C538.761 167.936 538.697 168.064 538.569 168.256C537.513 169.568 536.153 170.592 534.489 171.328C532.825 172.032 531.001 172.384 529.017 172.384C526.265 172.384 523.929 171.76 522.009 170.512C520.121 169.264 518.761 167.52 517.929 165.28C517.257 163.68 516.921 161.584 516.921 158.992C516.921 157.232 517.161 155.68 517.641 154.336C518.377 152.064 519.657 150.256 521.481 148.912C523.337 147.568 525.529 146.896 528.057 146.896C531.257 146.896 533.817 147.824 535.737 149.68C537.689 151.536 538.873 154.016 539.289 157.12ZM528.105 152.752C526.089 152.752 524.761 153.696 524.121 155.584C523.993 156 523.881 156.512 523.785 157.12C523.785 157.28 523.865 157.36 524.025 157.36H532.329C532.521 157.36 532.585 157.28 532.521 157.12C532.361 156.192 532.281 155.744 532.281 155.776C531.993 154.816 531.481 154.08 530.745 153.568C530.041 153.024 529.161 152.752 528.105 152.752ZM543.269 172C543.109 172 542.965 171.952 542.837 171.856C542.741 171.728 542.693 171.584 542.693 171.424V138.976C542.693 138.816 542.741 138.688 542.837 138.592C542.965 138.464 543.109 138.4 543.269 138.4H548.885C549.045 138.4 549.173 138.464 549.269 138.592C549.397 138.688 549.461 138.816 549.461 138.976V171.424C549.461 171.584 549.397 171.728 549.269 171.856C549.173 171.952 549.045 172 548.885 172H543.269ZM575.291 157.12C575.483 158.336 575.547 159.696 575.483 161.2C575.451 161.584 575.243 161.776 574.859 161.776H560.027C559.835 161.776 559.771 161.856 559.835 162.016C559.931 162.656 560.107 163.296 560.363 163.936C561.195 165.728 562.891 166.624 565.451 166.624C567.499 166.592 569.115 165.76 570.299 164.128C570.427 163.936 570.571 163.84 570.731 163.84C570.827 163.84 570.939 163.904 571.067 164.032L574.523 167.44C574.683 167.6 574.763 167.744 574.763 167.872C574.763 167.936 574.699 168.064 574.571 168.256C573.515 169.568 572.155 170.592 570.491 171.328C568.827 172.032 567.003 172.384 565.019 172.384C562.267 172.384 559.931 171.76 558.011 170.512C556.123 169.264 554.763 167.52 553.931 165.28C553.259 163.68 552.923 161.584 552.923 158.992C552.923 157.232 553.163 155.68 553.643 154.336C554.379 152.064 555.659 150.256 557.483 148.912C559.339 147.568 561.531 146.896 564.059 146.896C567.259 146.896 569.819 147.824 571.739 149.68C573.691 151.536 574.875 154.016 575.291 157.12ZM564.107 152.752C562.091 152.752 560.763 153.696 560.123 155.584C559.995 156 559.883 156.512 559.787 157.12C559.787 157.28 559.867 157.36 560.027 157.36H568.331C568.523 157.36 568.587 157.28 568.523 157.12C568.363 156.192 568.283 155.744 568.283 155.776C567.995 154.816 567.483 154.08 566.747 153.568C566.043 153.024 565.163 152.752 564.107 152.752ZM590.982 146.992C592.134 146.992 593.046 147.216 593.718 147.664C593.974 147.792 594.07 148.032 594.006 148.384L592.998 153.856C592.966 154.24 592.742 154.352 592.326 154.192C591.846 154.032 591.286 153.952 590.646 153.952C590.39 153.952 590.038 153.984 589.59 154.048C588.438 154.144 587.462 154.576 586.662 155.344C585.862 156.08 585.462 157.072 585.462 158.32V171.424C585.462 171.584 585.398 171.728 585.27 171.856C585.174 171.952 585.046 172 584.886 172H579.27C579.11 172 578.966 171.952 578.838 171.856C578.742 171.728 578.694 171.584 578.694 171.424V147.904C578.694 147.744 578.742 147.616 578.838 147.52C578.966 147.392 579.11 147.328 579.27 147.328H584.886C585.046 147.328 585.174 147.392 585.27 147.52C585.398 147.616 585.462 147.744 585.462 147.904V149.728C585.462 149.824 585.494 149.888 585.558 149.92C585.622 149.952 585.67 149.936 585.702 149.872C587.014 147.952 588.774 146.992 590.982 146.992ZM605.668 146.944C607.748 146.944 609.604 147.312 611.236 148.048C612.868 148.752 614.132 149.728 615.028 150.976C615.956 152.224 616.42 153.616 616.42 155.152V171.424C616.42 171.584 616.356 171.728 616.228 171.856C616.132 171.952 616.004 172 615.844 172H610.228C610.068 172 609.924 171.952 609.796 171.856C609.7 171.728 609.652 171.584 609.652 171.424V169.84C609.652 169.744 609.62 169.68 609.556 169.648C609.492 169.616 609.428 169.648 609.364 169.744C608.02 171.504 605.86 172.384 602.884 172.384C600.388 172.384 598.372 171.776 596.836 170.56C595.3 169.344 594.532 167.552 594.532 165.184C594.532 162.72 595.396 160.816 597.124 159.472C598.852 158.096 601.316 157.408 604.516 157.408H609.412C609.572 157.408 609.652 157.328 609.652 157.168V156.112C609.652 155.056 609.332 154.24 608.692 153.664C608.052 153.056 607.092 152.752 605.812 152.752C604.82 152.752 603.988 152.928 603.316 153.28C602.676 153.632 602.26 154.128 602.068 154.768C601.972 155.12 601.764 155.28 601.444 155.248L595.636 154.48C595.252 154.416 595.076 154.272 595.108 154.048C595.236 152.704 595.764 151.488 596.692 150.4C597.652 149.312 598.9 148.464 600.436 147.856C602.004 147.248 603.748 146.944 605.668 146.944ZM604.708 167.344C606.084 167.344 607.252 166.976 608.212 166.24C609.172 165.504 609.652 164.56 609.652 163.408V161.68C609.652 161.52 609.572 161.44 609.412 161.44H605.956C604.516 161.44 603.38 161.712 602.548 162.256C601.748 162.8 601.348 163.568 601.348 164.56C601.348 165.424 601.652 166.112 602.26 166.624C602.868 167.104 603.684 167.344 604.708 167.344ZM633.872 152.176C633.872 152.336 633.808 152.48 633.68 152.608C633.584 152.704 633.456 152.752 633.296 152.752H628.688C628.528 152.752 628.448 152.832 628.448 152.992V163.168C628.448 164.224 628.656 165.008 629.072 165.52C629.52 166.032 630.224 166.288 631.184 166.288H632.768C632.928 166.288 633.056 166.352 633.152 166.48C633.28 166.576 633.344 166.704 633.344 166.864V171.424C633.344 171.776 633.152 171.984 632.768 172.048C631.424 172.112 630.464 172.144 629.888 172.144C627.232 172.144 625.248 171.712 623.936 170.848C622.624 169.952 621.952 168.288 621.92 165.856V152.992C621.92 152.832 621.84 152.752 621.68 152.752H618.944C618.784 152.752 618.64 152.704 618.512 152.608C618.416 152.48 618.368 152.336 618.368 152.176V147.904C618.368 147.744 618.416 147.616 618.512 147.52C618.64 147.392 618.784 147.328 618.944 147.328H621.68C621.84 147.328 621.92 147.248 621.92 147.088V141.376C621.92 141.216 621.968 141.088 622.064 140.992C622.192 140.864 622.336 140.8 622.496 140.8H627.872C628.032 140.8 628.16 140.864 628.256 140.992C628.384 141.088 628.448 141.216 628.448 141.376V147.088C628.448 147.248 628.528 147.328 628.688 147.328H633.296C633.456 147.328 633.584 147.392 633.68 147.52C633.808 147.616 633.872 147.744 633.872 147.904V152.176ZM658.498 157.12C658.69 158.336 658.754 159.696 658.69 161.2C658.658 161.584 658.45 161.776 658.066 161.776H643.234C643.042 161.776 642.978 161.856 643.042 162.016C643.138 162.656 643.314 163.296 643.57 163.936C644.402 165.728 646.098 166.624 648.658 166.624C650.706 166.592 652.322 165.76 653.506 164.128C653.634 163.936 653.778 163.84 653.938 163.84C654.034 163.84 654.146 163.904 654.274 164.032L657.73 167.44C657.89 167.6 657.97 167.744 657.97 167.872C657.97 167.936 657.906 168.064 657.778 168.256C656.722 169.568 655.362 170.592 653.698 171.328C652.034 172.032 650.21 172.384 648.226 172.384C645.474 172.384 643.138 171.76 641.218 170.512C639.33 169.264 637.97 167.52 637.138 165.28C636.466 163.68 636.13 161.584 636.13 158.992C636.13 157.232 636.37 155.68 636.85 154.336C637.586 152.064 638.866 150.256 640.69 148.912C642.546 147.568 644.738 146.896 647.266 146.896C650.466 146.896 653.026 147.824 654.946 149.68C656.898 151.536 658.082 154.016 658.498 157.12ZM647.314 152.752C645.298 152.752 643.97 153.696 643.33 155.584C643.202 156 643.09 156.512 642.994 157.12C642.994 157.28 643.074 157.36 643.234 157.36H651.538C651.73 157.36 651.794 157.28 651.73 157.12C651.57 156.192 651.49 155.744 651.49 155.776C651.202 154.816 650.69 154.08 649.954 153.568C649.25 153.024 648.37 152.752 647.314 152.752Z"></path>
<path stroke-width="5" stroke="#71E8DF" d="M501 111C535.985 110 631.765 108 735 108"></path>
<rect fill="#090A15" rx="15" height="168.4" width="675.3" y="228" x="84"></rect>
<rect stroke-width="2" stroke="#71E8DF" rx="15" height="168.4" width="675.3" y="228" x="84"></rect>
<path fill="#71E8DF" d="M125.552 285.463C124.044 285.463 122.857 285.082 121.99 284.319C121.123 283.539 120.69 282.49 120.69 281.173C120.69 279.838 121.123 278.79 121.99 278.027C122.857 277.264 124.027 276.883 125.5 276.883H129.92V275.453C129.92 274.569 129.651 273.893 129.114 273.425C128.594 272.94 127.849 272.697 126.878 272.697C126.029 272.697 125.318 272.879 124.746 273.243C124.174 273.59 123.845 274.066 123.758 274.673H121.418C121.574 273.442 122.155 272.463 123.16 271.735C124.165 271.007 125.422 270.643 126.93 270.643C128.577 270.643 129.877 271.068 130.83 271.917C131.783 272.766 132.26 273.919 132.26 275.375V285.203H129.972V282.473H129.582L129.972 282.083C129.972 283.123 129.565 283.946 128.75 284.553C127.953 285.16 126.887 285.463 125.552 285.463ZM126.124 283.617C127.233 283.617 128.143 283.34 128.854 282.785C129.565 282.23 129.92 281.52 129.92 280.653V278.625H125.552C124.772 278.625 124.157 278.842 123.706 279.275C123.255 279.708 123.03 280.298 123.03 281.043C123.03 281.84 123.299 282.473 123.836 282.941C124.391 283.392 125.153 283.617 126.124 283.617ZM137.788 285.203L135.5 270.903H137.58L139.01 281.043C139.062 281.424 139.114 281.84 139.166 282.291C139.235 282.724 139.287 283.088 139.322 283.383C139.357 283.088 139.409 282.724 139.478 282.291C139.565 281.84 139.634 281.424 139.686 281.043L141.272 270.903H143.508L145.094 281.043C145.146 281.424 145.207 281.84 145.276 282.291C145.363 282.724 145.423 283.088 145.458 283.383C145.493 283.088 145.545 282.724 145.614 282.291C145.701 281.84 145.77 281.424 145.822 281.043L147.304 270.903H149.28L146.888 285.203H144.314L142.78 275.323C142.711 274.838 142.633 274.352 142.546 273.867C142.459 273.382 142.399 273 142.364 272.723C142.329 273 142.277 273.382 142.208 273.867C142.139 274.352 142.061 274.838 141.974 275.323L140.362 285.203H137.788ZM156.732 285.463C155.224 285.463 154.036 285.082 153.17 284.319C152.303 283.539 151.87 282.49 151.87 281.173C151.87 279.838 152.303 278.79 153.17 278.027C154.036 277.264 155.206 276.883 156.68 276.883H161.1V275.453C161.1 274.569 160.831 273.893 160.294 273.425C159.774 272.94 159.028 272.697 158.058 272.697C157.208 272.697 156.498 272.879 155.926 273.243C155.354 273.59 155.024 274.066 154.938 274.673H152.598C152.754 273.442 153.334 272.463 154.34 271.735C155.345 271.007 156.602 270.643 158.11 270.643C159.756 270.643 161.056 271.068 162.01 271.917C162.963 272.766 163.44 273.919 163.44 275.375V285.203H161.152V282.473H160.762L161.152 282.083C161.152 283.123 160.744 283.946 159.93 284.553C159.132 285.16 158.066 285.463 156.732 285.463ZM157.304 283.617C158.413 283.617 159.323 283.34 160.034 282.785C160.744 282.23 161.1 281.52 161.1 280.653V278.625H156.732C155.952 278.625 155.336 278.842 154.886 279.275C154.435 279.708 154.21 280.298 154.21 281.043C154.21 281.84 154.478 282.473 155.016 282.941C155.57 283.392 156.333 283.617 157.304 283.617ZM167.98 285.203V283.071H173.05V273.035H168.63V270.903H175.39V283.071H180.2V285.203H167.98ZM173.96 268.329C173.388 268.329 172.937 268.182 172.608 267.887C172.278 267.592 172.114 267.194 172.114 266.691C172.114 266.171 172.278 265.764 172.608 265.469C172.937 265.157 173.388 265.001 173.96 265.001C174.532 265.001 174.982 265.157 175.312 265.469C175.641 265.764 175.806 266.171 175.806 266.691C175.806 267.194 175.641 267.592 175.312 267.887C174.982 268.182 174.532 268.329 173.96 268.329ZM190.719 285.203C189.489 285.203 188.527 284.874 187.833 284.215C187.157 283.556 186.819 282.629 186.819 281.433V273.035H182.789V270.903H186.819V266.873H189.159V270.903H194.879V273.035H189.159V281.433C189.159 282.525 189.679 283.071 190.719 283.071H194.619V285.203H190.719ZM267.239 309.113L270.619 301.027H272.699L270.619 309.113H267.239ZM261.259 309.113L264.639 301.027H266.719L264.639 309.113H261.259ZM277.29 325.883V306.903H279.63V309.633H280.098L279.63 310.179C279.63 309.087 279.986 308.229 280.696 307.605C281.424 306.964 282.378 306.643 283.556 306.643C284.995 306.643 286.139 307.12 286.988 308.073C287.855 309.009 288.288 310.3 288.288 311.947V316.133C288.288 317.225 288.089 318.17 287.69 318.967C287.309 319.764 286.763 320.38 286.052 320.813C285.359 321.246 284.527 321.463 283.556 321.463C282.395 321.463 281.45 321.142 280.722 320.501C279.994 319.86 279.63 319.002 279.63 317.927L280.098 318.473H279.578L279.63 321.723V325.883H277.29ZM282.776 319.435C283.764 319.435 284.536 319.14 285.09 318.551C285.662 317.962 285.948 317.112 285.948 316.003V312.103C285.948 310.994 285.662 310.144 285.09 309.555C284.536 308.966 283.764 308.671 282.776 308.671C281.823 308.671 281.06 308.974 280.488 309.581C279.916 310.188 279.63 311.028 279.63 312.103V316.003C279.63 317.078 279.916 317.918 280.488 318.525C281.06 319.132 281.823 319.435 282.776 319.435ZM298.288 321.411C297.144 321.411 296.156 321.194 295.324 320.761C294.492 320.328 293.842 319.704 293.374 318.889C292.924 318.057 292.698 317.078 292.698 315.951V312.155C292.698 311.011 292.924 310.032 293.374 309.217C293.842 308.402 294.492 307.778 295.324 307.345C296.156 306.912 297.144 306.695 298.288 306.695C299.432 306.695 300.42 306.912 301.252 307.345C302.084 307.778 302.726 308.402 303.176 309.217C303.644 310.032 303.878 311.002 303.878 312.129V315.951C303.878 317.078 303.644 318.057 303.176 318.889C302.726 319.704 302.084 320.328 301.252 320.761C300.42 321.194 299.432 321.411 298.288 321.411ZM298.288 319.331C299.311 319.331 300.108 319.045 300.68 318.473C301.252 317.901 301.538 317.06 301.538 315.951V312.155C301.538 311.046 301.252 310.205 300.68 309.633C300.108 309.061 299.311 308.775 298.288 308.775C297.283 308.775 296.486 309.061 295.896 309.633C295.324 310.205 295.038 311.046 295.038 312.155V315.951C295.038 317.06 295.324 317.901 295.896 318.473C296.486 319.045 297.283 319.331 298.288 319.331ZM313.436 321.411C312.465 321.411 311.616 321.264 310.888 320.969C310.177 320.657 309.605 320.224 309.172 319.669C308.756 319.114 308.505 318.456 308.418 317.693H310.758C310.862 318.196 311.139 318.594 311.59 318.889C312.058 319.184 312.673 319.331 313.436 319.331H314.528C315.447 319.331 316.131 319.149 316.582 318.785C317.033 318.404 317.258 317.901 317.258 317.277C317.258 316.67 317.05 316.194 316.634 315.847C316.235 315.483 315.637 315.24 314.84 315.119L312.916 314.807C311.512 314.564 310.463 314.131 309.77 313.507C309.094 312.866 308.756 311.938 308.756 310.725C308.756 309.442 309.163 308.454 309.978 307.761C310.793 307.05 312.015 306.695 313.644 306.695H314.632C316.001 306.695 317.102 307.016 317.934 307.657C318.766 308.298 319.269 309.165 319.442 310.257H317.102C316.998 309.806 316.738 309.451 316.322 309.191C315.906 308.914 315.343 308.775 314.632 308.775H313.644C312.76 308.775 312.11 308.94 311.694 309.269C311.295 309.598 311.096 310.092 311.096 310.751C311.096 311.34 311.269 311.774 311.616 312.051C311.963 312.328 312.509 312.528 313.254 312.649L315.178 312.961C316.721 313.204 317.839 313.654 318.532 314.313C319.243 314.972 319.598 315.925 319.598 317.173C319.598 318.49 319.173 319.53 318.324 320.293C317.492 321.038 316.227 321.411 314.528 321.411H313.436ZM331.028 321.203C329.797 321.203 328.835 320.874 328.142 320.215C327.466 319.556 327.128 318.629 327.128 317.433V309.035H323.098V306.903H327.128V302.873H329.468V306.903H335.188V309.035H329.468V317.433C329.468 318.525 329.988 319.071 331.028 319.071H334.928V321.203H331.028ZM344.616 321.411C343.645 321.411 342.796 321.264 342.068 320.969C341.357 320.657 340.785 320.224 340.352 319.669C339.936 319.114 339.684 318.456 339.598 317.693H341.938C342.042 318.196 342.319 318.594 342.77 318.889C343.238 319.184 343.853 319.331 344.616 319.331H345.708C346.626 319.331 347.311 319.149 347.762 318.785C348.212 318.404 348.438 317.901 348.438 317.277C348.438 316.67 348.23 316.194 347.814 315.847C347.415 315.483 346.817 315.24 346.02 315.119L344.096 314.807C342.692 314.564 341.643 314.131 340.95 313.507C340.274 312.866 339.936 311.938 339.936 310.725C339.936 309.442 340.343 308.454 341.158 307.761C341.972 307.05 343.194 306.695 344.824 306.695H345.812C347.181 306.695 348.282 307.016 349.114 307.657C349.946 308.298 350.448 309.165 350.622 310.257H348.282C348.178 309.806 347.918 309.451 347.502 309.191C347.086 308.914 346.522 308.775 345.812 308.775H344.824C343.94 308.775 343.29 308.94 342.874 309.269C342.475 309.598 342.276 310.092 342.276 310.751C342.276 311.34 342.449 311.774 342.796 312.051C343.142 312.328 343.688 312.528 344.434 312.649L346.358 312.961C347.9 313.204 349.018 313.654 349.712 314.313C350.422 314.972 350.778 315.925 350.778 317.173C350.778 318.49 350.353 319.53 349.504 320.293C348.672 321.038 347.406 321.411 345.708 321.411H344.616ZM361.038 309.113L363.118 301.027H366.498L363.118 309.113H361.038ZM355.058 309.113L357.138 301.027H360.518L357.138 309.113H355.058Z"></path>
<path fill="#7F9CF5" d="M214.931 289.883V270.903H217.271V273.633H217.739L217.271 274.179C217.271 273.087 217.626 272.229 218.337 271.605C219.065 270.964 220.018 270.643 221.197 270.643C222.636 270.643 223.78 271.12 224.629 272.073C225.496 273.009 225.929 274.3 225.929 275.947V280.133C225.929 281.225 225.73 282.17 225.331 282.967C224.95 283.764 224.404 284.38 223.693 284.813C223 285.246 222.168 285.463 221.197 285.463C220.036 285.463 219.091 285.142 218.363 284.501C217.635 283.86 217.271 283.002 217.271 281.927L217.739 282.473H217.219L217.271 285.723V289.883H214.931ZM220.417 283.435C221.405 283.435 222.176 283.14 222.731 282.551C223.303 281.962 223.589 281.112 223.589 280.003V276.103C223.589 274.994 223.303 274.144 222.731 273.555C222.176 272.966 221.405 272.671 220.417 272.671C219.464 272.671 218.701 272.974 218.129 273.581C217.557 274.188 217.271 275.028 217.271 276.103V280.003C217.271 281.078 217.557 281.918 218.129 282.525C218.701 283.132 219.464 283.435 220.417 283.435ZM231.015 285.203V270.903H233.303V273.633H233.849L233.095 275.323C233.095 273.78 233.424 272.619 234.083 271.839C234.759 271.042 235.756 270.643 237.073 270.643C238.581 270.643 239.777 271.12 240.661 272.073C241.562 273.009 242.013 274.283 242.013 275.895V276.753H239.673V276.103C239.673 274.976 239.396 274.118 238.841 273.529C238.304 272.922 237.532 272.619 236.527 272.619C235.539 272.619 234.759 272.922 234.187 273.529C233.632 274.136 233.355 274.994 233.355 276.103V285.203H231.015ZM245.929 285.203V283.071H250.999V273.035H246.579V270.903H253.339V283.071H258.149V285.203H245.929ZM251.909 268.329C251.337 268.329 250.886 268.182 250.557 267.887C250.227 267.592 250.063 267.194 250.063 266.691C250.063 266.171 250.227 265.764 250.557 265.469C250.886 265.157 251.337 265.001 251.909 265.001C252.481 265.001 252.931 265.157 253.261 265.469C253.59 265.764 253.755 266.171 253.755 266.691C253.755 267.194 253.59 267.592 253.261 267.887C252.931 268.182 252.481 268.329 251.909 268.329ZM266.667 285.411C265.696 285.411 264.847 285.264 264.119 284.969C263.408 284.657 262.836 284.224 262.403 283.669C261.987 283.114 261.735 282.456 261.649 281.693H263.989C264.093 282.196 264.37 282.594 264.821 282.889C265.289 283.184 265.904 283.331 266.667 283.331H267.759C268.677 283.331 269.362 283.149 269.813 282.785C270.263 282.404 270.489 281.901 270.489 281.277C270.489 280.67 270.281 280.194 269.865 279.847C269.466 279.483 268.868 279.24 268.071 279.119L266.147 278.807C264.743 278.564 263.694 278.131 263.001 277.507C262.325 276.866 261.987 275.938 261.987 274.725C261.987 273.442 262.394 272.454 263.209 271.761C264.023 271.05 265.245 270.695 266.875 270.695H267.863C269.232 270.695 270.333 271.016 271.165 271.657C271.997 272.298 272.499 273.165 272.673 274.257H270.333C270.229 273.806 269.969 273.451 269.553 273.191C269.137 272.914 268.573 272.775 267.863 272.775H266.875C265.991 272.775 265.341 272.94 264.925 273.269C264.526 273.598 264.327 274.092 264.327 274.751C264.327 275.34 264.5 275.774 264.847 276.051C265.193 276.328 265.739 276.528 266.485 276.649L268.409 276.961C269.951 277.204 271.069 277.654 271.763 278.313C272.473 278.972 272.829 279.925 272.829 281.173C272.829 282.49 272.404 283.53 271.555 284.293C270.723 285.038 269.457 285.411 267.759 285.411H266.667ZM276.614 285.203V270.903H278.668V272.619H279.136L278.772 273.243C278.772 272.446 278.98 271.813 279.396 271.345C279.83 270.877 280.41 270.643 281.138 270.643C281.936 270.643 282.551 270.938 282.984 271.527C283.418 272.116 283.634 272.948 283.634 274.023L282.932 272.619H284.024L283.53 273.243C283.53 272.446 283.747 271.813 284.18 271.345C284.631 270.877 285.22 270.643 285.948 270.643C286.85 270.643 287.543 270.981 288.028 271.657C288.531 272.333 288.782 273.226 288.782 274.335V285.203H286.624V274.309C286.624 273.72 286.494 273.26 286.234 272.931C285.992 272.602 285.628 272.437 285.142 272.437C284.674 272.437 284.302 272.602 284.024 272.931C283.764 273.243 283.634 273.694 283.634 274.283V285.203H281.762V274.309C281.762 273.702 281.624 273.243 281.346 272.931C281.086 272.602 280.714 272.437 280.228 272.437C279.743 272.437 279.379 272.602 279.136 272.931C278.894 273.243 278.772 273.694 278.772 274.283V285.203H276.614ZM297.04 285.463C295.532 285.463 294.345 285.082 293.478 284.319C292.612 283.539 292.178 282.49 292.178 281.173C292.178 279.838 292.612 278.79 293.478 278.027C294.345 277.264 295.515 276.883 296.988 276.883H301.408V275.453C301.408 274.569 301.14 273.893 300.602 273.425C300.082 272.94 299.337 272.697 298.366 272.697C297.517 272.697 296.806 272.879 296.234 273.243C295.662 273.59 295.333 274.066 295.246 274.673H292.906C293.062 273.442 293.643 272.463 294.648 271.735C295.654 271.007 296.91 270.643 298.418 270.643C300.065 270.643 301.365 271.068 302.318 271.917C303.272 272.766 303.748 273.919 303.748 275.375V285.203H301.46V282.473H301.07L301.46 282.083C301.46 283.123 301.053 283.946 300.238 284.553C299.441 285.16 298.375 285.463 297.04 285.463ZM297.612 283.617C298.722 283.617 299.632 283.34 300.342 282.785C301.053 282.23 301.408 281.52 301.408 280.653V278.625H297.04C296.26 278.625 295.645 278.842 295.194 279.275C294.744 279.708 294.518 280.298 294.518 281.043C294.518 281.84 294.787 282.473 295.324 282.941C295.879 283.392 296.642 283.617 297.612 283.617ZM328.818 288.843V285.437C327.189 285.298 325.906 284.778 324.97 283.877C324.051 282.958 323.575 281.754 323.54 280.263H325.88C325.88 281.112 326.131 281.806 326.634 282.343C327.154 282.88 327.882 283.21 328.818 283.331V276.519L328.116 276.311C326.816 275.912 325.811 275.245 325.1 274.309C324.407 273.373 324.06 272.272 324.06 271.007C324.06 269.62 324.485 268.476 325.334 267.575C326.201 266.674 327.362 266.154 328.818 266.015V262.583H330.378V265.989C331.817 266.128 332.969 266.648 333.836 267.549C334.703 268.45 335.145 269.612 335.162 271.033H332.822C332.822 270.218 332.605 269.56 332.172 269.057C331.756 268.537 331.158 268.216 330.378 268.095V274.543L331.418 274.881C332.683 275.28 333.663 275.956 334.356 276.909C335.049 277.862 335.396 278.98 335.396 280.263C335.396 281.684 334.937 282.863 334.018 283.799C333.117 284.735 331.903 285.281 330.378 285.437V288.843H328.818ZM330.378 283.331C331.227 283.192 331.886 282.863 332.354 282.343C332.822 281.823 333.056 281.147 333.056 280.315C333.056 279.552 332.848 278.885 332.432 278.313C332.033 277.741 331.453 277.342 330.69 277.117L330.378 277.013V283.331ZM328.818 275.089V268.095C328.055 268.216 327.457 268.511 327.024 268.979C326.608 269.447 326.4 270.054 326.4 270.799C326.4 271.7 326.677 272.463 327.232 273.087C327.787 273.694 328.584 274.075 329.624 274.231L328.818 275.089ZM343.81 285.463C342.302 285.463 341.114 285.082 340.248 284.319C339.381 283.539 338.948 282.49 338.948 281.173C338.948 279.838 339.381 278.79 340.248 278.027C341.114 277.264 342.284 276.883 343.758 276.883H348.178V275.453C348.178 274.569 347.909 273.893 347.372 273.425C346.852 272.94 346.106 272.697 345.136 272.697C344.286 272.697 343.576 272.879 343.004 273.243C342.432 273.59 342.102 274.066 342.016 274.673H339.676C339.832 273.442 340.412 272.463 341.418 271.735C342.423 271.007 343.68 270.643 345.188 270.643C346.834 270.643 348.134 271.068 349.088 271.917C350.041 272.766 350.518 273.919 350.518 275.375V285.203H348.23V282.473H347.84L348.23 282.083C348.23 283.123 347.822 283.946 347.008 284.553C346.21 285.16 345.144 285.463 343.81 285.463ZM344.382 283.617C345.491 283.617 346.401 283.34 347.112 282.785C347.822 282.23 348.178 281.52 348.178 280.653V278.625H343.81C343.03 278.625 342.414 278.842 341.964 279.275C341.513 279.708 341.288 280.298 341.288 281.043C341.288 281.84 341.556 282.473 342.094 282.941C342.648 283.392 343.411 283.617 344.382 283.617ZM360.752 285.463C359.608 285.463 358.602 285.246 357.736 284.813C356.886 284.38 356.228 283.756 355.76 282.941C355.292 282.109 355.058 281.13 355.058 280.003V276.103C355.058 274.959 355.292 273.98 355.76 273.165C356.228 272.35 356.886 271.726 357.736 271.293C358.602 270.86 359.608 270.643 360.752 270.643C362.398 270.643 363.724 271.085 364.73 271.969C365.735 272.853 366.264 274.058 366.316 275.583H363.976C363.924 274.664 363.612 273.962 363.04 273.477C362.485 272.974 361.722 272.723 360.752 272.723C359.729 272.723 358.914 273.018 358.308 273.607C357.701 274.179 357.398 275.002 357.398 276.077V280.003C357.398 281.078 357.701 281.91 358.308 282.499C358.914 283.088 359.729 283.383 360.752 283.383C361.722 283.383 362.485 283.132 363.04 282.629C363.612 282.126 363.924 281.424 363.976 280.523H366.316C366.264 282.048 365.735 283.253 364.73 284.137C363.724 285.021 362.398 285.463 360.752 285.463ZM376.342 285.463C375.198 285.463 374.192 285.246 373.326 284.813C372.476 284.38 371.818 283.756 371.35 282.941C370.882 282.109 370.648 281.13 370.648 280.003V276.103C370.648 274.959 370.882 273.98 371.35 273.165C371.818 272.35 372.476 271.726 373.326 271.293C374.192 270.86 375.198 270.643 376.342 270.643C377.988 270.643 379.314 271.085 380.32 271.969C381.325 272.853 381.854 274.058 381.906 275.583H379.566C379.514 274.664 379.202 273.962 378.63 273.477C378.075 272.974 377.312 272.723 376.342 272.723C375.319 272.723 374.504 273.018 373.898 273.607C373.291 274.179 372.988 275.002 372.988 276.077V280.003C372.988 281.078 373.291 281.91 373.898 282.499C374.504 283.088 375.319 283.383 376.342 283.383C377.312 283.383 378.075 283.132 378.63 282.629C379.202 282.126 379.514 281.424 379.566 280.523H381.906C381.854 282.048 381.325 283.253 380.32 284.137C379.314 285.021 377.988 285.463 376.342 285.463ZM391.827 285.463C390.701 285.463 389.713 285.238 388.863 284.787C388.031 284.336 387.381 283.704 386.913 282.889C386.463 282.057 386.237 281.095 386.237 280.003V276.103C386.237 274.994 386.463 274.032 386.913 273.217C387.381 272.402 388.031 271.77 388.863 271.319C389.713 270.868 390.701 270.643 391.827 270.643C392.954 270.643 393.933 270.868 394.765 271.319C395.615 271.77 396.265 272.402 396.715 273.217C397.183 274.032 397.417 274.994 397.417 276.103V278.625H388.525V280.003C388.525 281.13 388.811 281.996 389.383 282.603C389.955 283.192 390.77 283.487 391.827 283.487C392.729 283.487 393.457 283.331 394.011 283.019C394.566 282.69 394.904 282.204 395.025 281.563H397.365C397.209 282.759 396.62 283.712 395.597 284.423C394.592 285.116 393.335 285.463 391.827 285.463ZM395.129 277.065V276.103C395.129 274.976 394.843 274.11 394.271 273.503C393.717 272.896 392.902 272.593 391.827 272.593C390.77 272.593 389.955 272.896 389.383 273.503C388.811 274.11 388.525 274.976 388.525 276.103V276.857H395.311L395.129 277.065ZM409.367 285.203C408.535 285.203 407.807 285.038 407.183 284.709C406.559 284.38 406.074 283.912 405.727 283.305C405.381 282.698 405.207 281.988 405.207 281.173V268.355H400.397V266.223H407.547V281.173C407.547 281.762 407.712 282.23 408.041 282.577C408.371 282.906 408.813 283.071 409.367 283.071H413.917V285.203H409.367ZM423.007 285.463C421.88 285.463 420.892 285.238 420.043 284.787C419.211 284.336 418.561 283.704 418.093 282.889C417.642 282.057 417.417 281.095 417.417 280.003V276.103C417.417 274.994 417.642 274.032 418.093 273.217C418.561 272.402 419.211 271.77 420.043 271.319C420.892 270.868 421.88 270.643 423.007 270.643C424.134 270.643 425.113 270.868 425.945 271.319C426.794 271.77 427.444 272.402 427.895 273.217C428.363 274.032 428.597 274.994 428.597 276.103V278.625H419.705V280.003C419.705 281.13 419.991 281.996 420.563 282.603C421.135 283.192 421.95 283.487 423.007 283.487C423.908 283.487 424.636 283.331 425.191 283.019C425.746 282.69 426.084 282.204 426.205 281.563H428.545C428.389 282.759 427.8 283.712 426.777 284.423C425.772 285.116 424.515 285.463 423.007 285.463ZM426.309 277.065V276.103C426.309 274.976 426.023 274.11 425.451 273.503C424.896 272.896 424.082 272.593 423.007 272.593C421.95 272.593 421.135 272.896 420.563 273.503C419.991 274.11 419.705 274.976 419.705 276.103V276.857H426.491L426.309 277.065ZM433.683 285.203V270.903H435.971V273.633H436.517L435.763 275.323C435.763 273.78 436.092 272.619 436.751 271.839C437.427 271.042 438.424 270.643 439.741 270.643C441.249 270.643 442.445 271.12 443.329 272.073C444.23 273.009 444.681 274.283 444.681 275.895V276.753H442.341V276.103C442.341 274.976 442.064 274.118 441.509 273.529C440.972 272.922 440.2 272.619 439.195 272.619C438.207 272.619 437.427 272.922 436.855 273.529C436.3 274.136 436.023 274.994 436.023 276.103V285.203H433.683ZM452.939 285.463C451.431 285.463 450.243 285.082 449.377 284.319C448.51 283.539 448.077 282.49 448.077 281.173C448.077 279.838 448.51 278.79 449.377 278.027C450.243 277.264 451.413 276.883 452.887 276.883H457.307V275.453C457.307 274.569 457.038 273.893 456.501 273.425C455.981 272.94 455.235 272.697 454.265 272.697C453.415 272.697 452.705 272.879 452.133 273.243C451.561 273.59 451.231 274.066 451.145 274.673H448.805C448.961 273.442 449.541 272.463 450.547 271.735C451.552 271.007 452.809 270.643 454.317 270.643C455.963 270.643 457.263 271.068 458.217 271.917C459.17 272.766 459.647 273.919 459.647 275.375V285.203H457.359V282.473H456.969L457.359 282.083C457.359 283.123 456.951 283.946 456.137 284.553C455.339 285.16 454.273 285.463 452.939 285.463ZM453.511 283.617C454.62 283.617 455.53 283.34 456.241 282.785C456.951 282.23 457.307 281.52 457.307 280.653V278.625H452.939C452.159 278.625 451.543 278.842 451.093 279.275C450.642 279.708 450.417 280.298 450.417 281.043C450.417 281.84 450.685 282.473 451.223 282.941C451.777 283.392 452.54 283.617 453.511 283.617ZM471.337 285.203C470.106 285.203 469.144 284.874 468.451 284.215C467.775 283.556 467.437 282.629 467.437 281.433V273.035H463.407V270.903H467.437V266.873H469.777V270.903H475.497V273.035H469.777V281.433C469.777 282.525 470.297 283.071 471.337 283.071H475.237V285.203H471.337ZM485.366 285.463C484.24 285.463 483.252 285.238 482.402 284.787C481.57 284.336 480.92 283.704 480.452 282.889C480.002 282.057 479.776 281.095 479.776 280.003V276.103C479.776 274.994 480.002 274.032 480.452 273.217C480.92 272.402 481.57 271.77 482.402 271.319C483.252 270.868 484.24 270.643 485.366 270.643C486.493 270.643 487.472 270.868 488.304 271.319C489.154 271.77 489.804 272.402 490.254 273.217C490.722 274.032 490.956 274.994 490.956 276.103V278.625H482.064V280.003C482.064 281.13 482.35 281.996 482.922 282.603C483.494 283.192 484.309 283.487 485.366 283.487C486.268 283.487 486.996 283.331 487.55 283.019C488.105 282.69 488.443 282.204 488.564 281.563H490.904C490.748 282.759 490.159 283.712 489.136 284.423C488.131 285.116 486.874 285.463 485.366 285.463ZM488.668 277.065V276.103C488.668 274.976 488.382 274.11 487.81 273.503C487.256 272.896 486.441 272.593 485.366 272.593C484.309 272.593 483.494 272.896 482.922 273.503C482.35 274.11 482.064 274.976 482.064 276.103V276.857H488.85L488.668 277.065ZM159.54 321.203C158.309 321.203 157.347 320.874 156.654 320.215C155.978 319.556 155.64 318.629 155.64 317.433V309.035H151.61V306.903H155.64V302.873H157.98V306.903H163.7V309.035H157.98V317.433C157.98 318.525 158.5 319.071 159.54 319.071H163.44V321.203H159.54ZM172.322 321.463C170.814 321.463 169.626 321.082 168.76 320.319C167.893 319.539 167.46 318.49 167.46 317.173C167.46 315.838 167.893 314.79 168.76 314.027C169.626 313.264 170.796 312.883 172.27 312.883H176.69V311.453C176.69 310.569 176.421 309.893 175.884 309.425C175.364 308.94 174.618 308.697 173.648 308.697C172.798 308.697 172.088 308.879 171.516 309.243C170.944 309.59 170.614 310.066 170.528 310.673H168.188C168.344 309.442 168.924 308.463 169.93 307.735C170.935 307.007 172.192 306.643 173.7 306.643C175.346 306.643 176.646 307.068 177.6 307.917C178.553 308.766 179.03 309.919 179.03 311.375V321.203H176.742V318.473H176.352L176.742 318.083C176.742 319.123 176.334 319.946 175.52 320.553C174.722 321.16 173.656 321.463 172.322 321.463ZM172.894 319.617C174.003 319.617 174.913 319.34 175.624 318.785C176.334 318.23 176.69 317.52 176.69 316.653V314.625H172.322C171.542 314.625 170.926 314.842 170.476 315.275C170.025 315.708 169.8 316.298 169.8 317.043C169.8 317.84 170.068 318.473 170.606 318.941C171.16 319.392 171.923 319.617 172.894 319.617ZM185.545 325.883V323.751H190.095C190.823 323.751 191.352 323.586 191.681 323.257C192.028 322.928 192.201 322.416 192.201 321.723V319.903L192.253 317.303H191.785L192.227 316.913C192.227 317.953 191.881 318.776 191.187 319.383C190.494 319.99 189.567 320.293 188.405 320.293C186.932 320.293 185.771 319.816 184.921 318.863C184.072 317.892 183.647 316.592 183.647 314.963V311.947C183.647 310.318 184.072 309.026 184.921 308.073C185.771 307.12 186.932 306.643 188.405 306.643C189.567 306.643 190.494 306.946 191.187 307.553C191.881 308.16 192.227 308.983 192.227 310.023L191.785 309.633H192.227V306.903H194.541V321.723C194.541 323.006 194.143 324.02 193.345 324.765C192.565 325.51 191.473 325.883 190.069 325.883H185.545ZM189.107 318.265C190.078 318.265 190.841 317.962 191.395 317.355C191.95 316.748 192.227 315.908 192.227 314.833V312.103C192.227 311.028 191.95 310.188 191.395 309.581C190.841 308.974 190.078 308.671 189.107 308.671C188.119 308.671 187.348 308.966 186.793 309.555C186.256 310.144 185.987 310.994 185.987 312.103V314.833C185.987 315.942 186.256 316.792 186.793 317.381C187.348 317.97 188.119 318.265 189.107 318.265ZM204.307 321.411C203.337 321.411 202.487 321.264 201.759 320.969C201.049 320.657 200.477 320.224 200.043 319.669C199.627 319.114 199.376 318.456 199.289 317.693H201.629C201.733 318.196 202.011 318.594 202.461 318.889C202.929 319.184 203.545 319.331 204.307 319.331H205.399C206.318 319.331 207.003 319.149 207.453 318.785C207.904 318.404 208.129 317.901 208.129 317.277C208.129 316.67 207.921 316.194 207.505 315.847C207.107 315.483 206.509 315.24 205.711 315.119L203.787 314.807C202.383 314.564 201.335 314.131 200.641 313.507C199.965 312.866 199.627 311.938 199.627 310.725C199.627 309.442 200.035 308.454 200.849 307.761C201.664 307.05 202.886 306.695 204.515 306.695H205.503C206.873 306.695 207.973 307.016 208.805 307.657C209.637 308.298 210.14 309.165 210.313 310.257H207.973C207.869 309.806 207.609 309.451 207.193 309.191C206.777 308.914 206.214 308.775 205.503 308.775H204.515C203.631 308.775 202.981 308.94 202.565 309.269C202.167 309.598 201.967 310.092 201.967 310.751C201.967 311.34 202.141 311.774 202.487 312.051C202.834 312.328 203.38 312.528 204.125 312.649L206.049 312.961C207.592 313.204 208.71 313.654 209.403 314.313C210.114 314.972 210.469 315.925 210.469 317.173C210.469 318.49 210.045 319.53 209.195 320.293C208.363 321.038 207.098 321.411 205.399 321.411H204.307ZM249.049 324.063V299.623H255.419V301.703H251.389V321.983H255.419V324.063H249.049ZM372.338 324.063V321.983H376.368V301.703H372.338V299.623H378.708V324.063H372.338Z"></path>
<path fill="#4A5568" d="M313.878 285.463C313.219 285.463 312.691 285.272 312.292 284.891C311.911 284.51 311.72 283.998 311.72 283.357C311.72 282.681 311.911 282.144 312.292 281.745C312.691 281.346 313.219 281.147 313.878 281.147C314.537 281.147 315.057 281.346 315.438 281.745C315.837 282.144 316.036 282.681 316.036 283.357C316.036 283.998 315.837 284.51 315.438 284.891C315.057 285.272 314.537 285.463 313.878 285.463ZM500.956 285.463C500.298 285.463 499.769 285.272 499.37 284.891C498.989 284.51 498.798 283.998 498.798 283.357C498.798 282.681 498.989 282.144 499.37 281.745C499.769 281.346 500.298 281.147 500.956 281.147C501.615 281.147 502.135 281.346 502.516 281.745C502.915 282.144 503.114 282.681 503.114 283.357C503.114 283.998 502.915 284.51 502.516 284.891C502.135 285.272 501.615 285.463 500.956 285.463ZM677.255 288.323C674.793 287.716 672.878 286.52 671.509 284.735C670.139 282.95 669.455 280.766 669.455 278.183V273.503C669.455 271.804 669.767 270.27 670.391 268.901C671.032 267.514 671.933 266.344 673.095 265.391C674.273 264.438 675.66 263.762 677.255 263.363V265.573C676.145 265.833 675.183 266.336 674.369 267.081C673.554 267.809 672.921 268.719 672.471 269.811C672.02 270.903 671.795 272.134 671.795 273.503V278.183C671.795 279.518 672.011 280.731 672.445 281.823C672.895 282.915 673.528 283.825 674.343 284.553C675.175 285.264 676.145 285.749 677.255 286.009V288.323ZM692.454 288.063C691.432 288.063 690.548 287.89 689.802 287.543C689.074 287.214 688.52 286.72 688.138 286.061C687.757 285.42 687.592 284.648 687.644 283.747L687.904 279.483C687.956 278.564 687.818 277.906 687.488 277.507C687.159 277.091 686.431 276.883 685.304 276.883H682.444V274.803H685.304C686.431 274.803 687.159 274.604 687.488 274.205C687.818 273.789 687.956 273.122 687.904 272.203L687.644 267.939C687.592 267.02 687.757 266.24 688.138 265.599C688.52 264.958 689.074 264.472 689.802 264.143C690.548 263.796 691.432 263.623 692.454 263.623H693.624V265.703H692.454C691.64 265.703 691.016 265.894 690.582 266.275C690.149 266.639 689.95 267.194 689.984 267.939L690.244 272.203C690.314 273.33 690.045 274.231 689.438 274.907C688.832 275.566 687.974 275.895 686.864 275.895V275.765C687.956 275.765 688.806 276.103 689.412 276.779C690.036 277.455 690.314 278.356 690.244 279.483L689.984 283.747C689.95 284.492 690.149 285.047 690.582 285.411C691.016 285.792 691.64 285.983 692.454 285.983H693.624V288.063H692.454ZM220.339 310.543C219.698 310.543 219.178 310.37 218.779 310.023C218.38 309.659 218.181 309.182 218.181 308.593C218.181 308.004 218.38 307.536 218.779 307.189C219.178 306.825 219.698 306.643 220.339 306.643C220.998 306.643 221.518 306.825 221.899 307.189C222.298 307.536 222.497 308.004 222.497 308.593C222.497 309.182 222.298 309.659 221.899 310.023C221.518 310.37 220.998 310.543 220.339 310.543ZM220.339 321.463C219.698 321.463 219.178 321.29 218.779 320.943C218.38 320.579 218.181 320.102 218.181 319.513C218.181 318.924 218.38 318.456 218.779 318.109C219.178 317.745 219.698 317.563 220.339 317.563C220.998 317.563 221.518 317.745 221.899 318.109C222.298 318.456 222.497 318.924 222.497 319.513C222.497 320.102 222.298 320.579 221.899 320.943C221.518 321.29 220.998 321.463 220.339 321.463ZM121.21 360.063V357.983H122.38C123.195 357.983 123.819 357.792 124.252 357.411C124.685 357.047 124.885 356.492 124.85 355.747L124.59 351.483C124.521 350.356 124.789 349.455 125.396 348.779C126.02 348.103 126.878 347.765 127.97 347.765V347.895C126.861 347.895 126.003 347.566 125.396 346.907C124.789 346.231 124.521 345.33 124.59 344.203L124.85 339.939C124.885 339.194 124.685 338.639 124.252 338.275C123.819 337.894 123.195 337.703 122.38 337.703H121.21V335.623H122.38C123.403 335.623 124.278 335.796 125.006 336.143C125.751 336.472 126.315 336.958 126.696 337.599C127.077 338.24 127.242 339.02 127.19 339.939L126.93 344.203C126.878 345.122 127.017 345.789 127.346 346.205C127.675 346.604 128.403 346.803 129.53 346.803H132.39V348.883H129.53C128.421 348.883 127.693 349.091 127.346 349.507C127.017 349.906 126.878 350.564 126.93 351.483L127.19 355.747C127.242 356.648 127.077 357.42 126.696 358.061C126.315 358.72 125.751 359.214 125.006 359.543C124.278 359.89 123.403 360.063 122.38 360.063H121.21ZM137.58 360.323V358.009C138.707 357.749 139.677 357.264 140.492 356.553C141.307 355.825 141.931 354.915 142.364 353.823C142.815 352.731 143.04 351.518 143.04 350.183V345.503C143.04 344.134 142.815 342.903 142.364 341.811C141.913 340.719 141.281 339.809 140.466 339.081C139.651 338.336 138.689 337.833 137.58 337.573V335.363C139.192 335.762 140.579 336.438 141.74 337.391C142.901 338.344 143.794 339.514 144.418 340.901C145.059 342.27 145.38 343.804 145.38 345.503V350.183C145.38 352.766 144.695 354.95 143.326 356.735C141.957 358.52 140.041 359.716 137.58 360.323ZM154.6 361.363L156.68 353.277H160.06L156.68 361.363H154.6ZM157.72 346.543C157.148 346.543 156.68 346.361 156.316 345.997C155.952 345.633 155.77 345.165 155.77 344.593C155.77 344.038 155.952 343.579 156.316 343.215C156.697 342.834 157.165 342.643 157.72 342.643H158.24C158.794 342.643 159.254 342.834 159.618 343.215C159.999 343.579 160.19 344.038 160.19 344.593C160.19 345.165 160.008 345.633 159.644 345.997C159.28 346.361 158.812 346.543 158.24 346.543H157.72Z"></path>
<path fill="#E2E8F0" d="M510.956 285.203V283.071H516.026V273.035H511.606V270.903H518.366V283.071H523.176V285.203H510.956ZM516.936 268.329C516.364 268.329 515.913 268.182 515.584 267.887C515.255 267.592 515.09 267.194 515.09 266.691C515.09 266.171 515.255 265.764 515.584 265.469C515.913 265.157 516.364 265.001 516.936 265.001C517.508 265.001 517.959 265.157 518.288 265.469C518.617 265.764 518.782 266.171 518.782 266.691C518.782 267.194 518.617 267.592 518.288 267.887C517.959 268.182 517.508 268.329 516.936 268.329ZM526.728 285.203V270.903H529.068V273.633H529.562L529.068 274.179C529.068 273.052 529.406 272.186 530.082 271.579C530.758 270.955 531.694 270.643 532.89 270.643C534.329 270.643 535.473 271.085 536.322 271.969C537.171 272.853 537.596 274.058 537.596 275.583V285.203H535.256V275.843C535.256 274.82 534.979 274.04 534.424 273.503C533.887 272.948 533.15 272.671 532.214 272.671C531.243 272.671 530.472 272.966 529.9 273.555C529.345 274.144 529.068 274.994 529.068 276.103V285.203H526.728ZM546.14 285.203L541.356 270.903H543.748L546.92 280.523C547.11 281.095 547.284 281.65 547.44 282.187C547.596 282.707 547.708 283.114 547.778 283.409C547.864 283.114 547.986 282.707 548.142 282.187C548.298 281.65 548.462 281.095 548.636 280.523L551.73 270.903H554.096L549.312 285.203H546.14ZM562.068 285.463C560.56 285.463 559.372 285.082 558.506 284.319C557.639 283.539 557.206 282.49 557.206 281.173C557.206 279.838 557.639 278.79 558.506 278.027C559.372 277.264 560.542 276.883 562.016 276.883H566.436V275.453C566.436 274.569 566.167 273.893 565.63 273.425C565.11 272.94 564.364 272.697 563.394 272.697C562.544 272.697 561.834 272.879 561.262 273.243C560.69 273.59 560.36 274.066 560.274 274.673H557.934C558.09 273.442 558.67 272.463 559.676 271.735C560.681 271.007 561.938 270.643 563.446 270.643C565.092 270.643 566.392 271.068 567.346 271.917C568.299 272.766 568.776 273.919 568.776 275.375V285.203H566.488V282.473H566.098L566.488 282.083C566.488 283.123 566.08 283.946 565.266 284.553C564.468 285.16 563.402 285.463 562.068 285.463ZM562.64 283.617C563.749 283.617 564.659 283.34 565.37 282.785C566.08 282.23 566.436 281.52 566.436 280.653V278.625H562.068C561.288 278.625 560.672 278.842 560.222 279.275C559.771 279.708 559.546 280.298 559.546 281.043C559.546 281.84 559.814 282.473 560.352 282.941C560.906 283.392 561.669 283.617 562.64 283.617ZM580.856 285.203C580.024 285.203 579.296 285.038 578.672 284.709C578.048 284.38 577.562 283.912 577.216 283.305C576.869 282.698 576.695 281.988 576.695 281.173V268.355H571.885V266.223H579.036V281.173C579.036 281.762 579.2 282.23 579.529 282.577C579.859 282.906 580.301 283.071 580.856 283.071H585.406V285.203H580.856ZM588.905 285.203V283.071H593.975V273.035H589.555V270.903H596.315V283.071H601.125V285.203H588.905ZM594.885 268.329C594.313 268.329 593.863 268.182 593.533 267.887C593.204 267.592 593.039 267.194 593.039 266.691C593.039 266.171 593.204 265.764 593.533 265.469C593.863 265.157 594.313 265.001 594.885 265.001C595.457 265.001 595.908 265.157 596.237 265.469C596.567 265.764 596.731 266.171 596.731 266.691C596.731 267.194 596.567 267.592 596.237 267.887C595.908 268.182 595.457 268.329 594.885 268.329ZM609.253 285.463C607.832 285.463 606.679 284.986 605.795 284.033C604.929 283.08 604.495 281.788 604.495 280.159V275.973C604.495 274.326 604.929 273.026 605.795 272.073C606.662 271.12 607.815 270.643 609.253 270.643C610.432 270.643 611.377 270.964 612.087 271.605C612.798 272.246 613.153 273.104 613.153 274.179L612.685 273.633H613.205L613.153 270.383V266.223H615.493V285.203H613.153V282.473H612.685L613.153 281.927C613.153 283.019 612.798 283.886 612.087 284.527C611.377 285.151 610.432 285.463 609.253 285.463ZM610.033 283.435C611.004 283.435 611.767 283.132 612.321 282.525C612.876 281.918 613.153 281.078 613.153 280.003V276.103C613.153 275.028 612.876 274.188 612.321 273.581C611.767 272.974 611.004 272.671 610.033 272.671C609.045 272.671 608.265 272.966 607.693 273.555C607.121 274.144 606.835 274.994 606.835 276.103V280.003C606.835 281.112 607.121 281.962 607.693 282.551C608.265 283.14 609.045 283.435 610.033 283.435ZM624.427 285.463C622.919 285.463 621.732 285.082 620.865 284.319C619.998 283.539 619.565 282.49 619.565 281.173C619.565 279.838 619.998 278.79 620.865 278.027C621.732 277.264 622.902 276.883 624.375 276.883H628.795V275.453C628.795 274.569 628.526 273.893 627.989 273.425C627.469 272.94 626.724 272.697 625.753 272.697C624.904 272.697 624.193 272.879 623.621 273.243C623.049 273.59 622.72 274.066 622.633 274.673H620.293C620.449 273.442 621.03 272.463 622.035 271.735C623.04 271.007 624.297 270.643 625.805 270.643C627.452 270.643 628.752 271.068 629.705 271.917C630.658 272.766 631.135 273.919 631.135 275.375V285.203H628.847V282.473H628.457L628.847 282.083C628.847 283.123 628.44 283.946 627.625 284.553C626.828 285.16 625.762 285.463 624.427 285.463ZM624.999 283.617C626.108 283.617 627.018 283.34 627.729 282.785C628.44 282.23 628.795 281.52 628.795 280.653V278.625H624.427C623.647 278.625 623.032 278.842 622.581 279.275C622.13 279.708 621.905 280.298 621.905 281.043C621.905 281.84 622.174 282.473 622.711 282.941C623.266 283.392 624.028 283.617 624.999 283.617ZM642.825 285.203C641.594 285.203 640.632 284.874 639.939 284.215C639.263 283.556 638.925 282.629 638.925 281.433V273.035H634.895V270.903H638.925V266.873H641.265V270.903H646.985V273.035H641.265V281.433C641.265 282.525 641.785 283.071 642.825 283.071H646.725V285.203H642.825ZM656.855 285.463C655.728 285.463 654.74 285.238 653.891 284.787C653.059 284.336 652.409 283.704 651.941 282.889C651.49 282.057 651.265 281.095 651.265 280.003V276.103C651.265 274.994 651.49 274.032 651.941 273.217C652.409 272.402 653.059 271.77 653.891 271.319C654.74 270.868 655.728 270.643 656.855 270.643C657.981 270.643 658.961 270.868 659.793 271.319C660.642 271.77 661.292 272.402 661.743 273.217C662.211 274.032 662.445 274.994 662.445 276.103V278.625H653.553V280.003C653.553 281.13 653.839 281.996 654.411 282.603C654.983 283.192 655.797 283.487 656.855 283.487C657.756 283.487 658.484 283.331 659.039 283.019C659.593 282.69 659.931 282.204 660.053 281.563H662.393C662.237 282.759 661.647 283.712 660.625 284.423C659.619 285.116 658.363 285.463 656.855 285.463ZM660.157 277.065V276.103C660.157 274.976 659.871 274.11 659.299 273.503C658.744 272.896 657.929 272.593 656.855 272.593C655.797 272.593 654.983 272.896 654.411 273.503C653.839 274.11 653.553 274.976 653.553 276.103V276.857H660.339L660.157 277.065Z"></path>
</g>
<defs>
<linearGradient gradientUnits="userSpaceOnUse" y2="0" x2="422" y1="474" x1="422" id="paint0_linear_9861_184593">
<stop stop-color="#093137"></stop>
<stop stop-color="#0A0B16" offset="1"></stop>
</linearGradient>
<clipPath id="clip0_9861_184593">
<rect fill="white" height="474" width="844"></rect>
</clipPath>
</defs>
</svg>
