<svg xmlns="http://www.w3.org/2000/svg" fill="none" viewBox="0 0 844 474" height="474" width="844">
<rect fill="url(#paint0_linear_8024_6060)" height="474" width="844"></rect>
<path fill-opacity="0.15" fill="white" d="M413.499 297.195C400.331 297.195 388.641 294.879 378.431 290.248C368.276 285.562 360.269 279.117 354.411 270.915C348.608 262.713 345.651 253.283 345.539 242.626H390.734C390.901 248.541 393.189 253.256 397.597 256.771C402.06 260.286 407.361 262.043 413.499 262.043C418.241 262.043 422.426 261.039 426.053 259.03C429.679 256.966 432.525 254.065 434.59 250.326C436.654 246.588 437.658 242.236 437.603 237.27C437.658 232.248 436.654 227.896 434.59 224.214C432.525 220.475 429.679 217.602 426.053 215.593C422.426 213.529 418.241 212.497 413.499 212.497C408.589 212.497 404.041 213.696 399.856 216.095C395.728 218.439 392.687 221.703 390.734 225.888L349.891 217.853L356.587 123.446H471.75V160.606H394.751L391.403 198.436H392.408C395.086 193.247 399.717 188.951 406.301 185.547C412.885 182.088 420.529 180.358 429.233 180.358C439.444 180.358 448.539 182.729 456.517 187.472C464.552 192.215 470.885 198.771 475.516 207.14C480.203 215.454 482.518 225.051 482.463 235.931C482.518 247.871 479.673 258.473 473.926 267.735C468.235 276.941 460.228 284.167 449.906 289.411C439.583 294.6 427.448 297.195 413.499 297.195Z"></path>
<path fill-opacity="0.05" fill="white" d="M334.71 297.195C321.542 297.195 309.853 294.879 299.642 290.248C289.487 285.562 281.48 279.117 275.622 270.915C269.819 262.713 266.862 253.283 266.75 242.626H311.945C312.112 248.541 314.4 253.256 318.808 256.771C323.272 260.286 328.572 262.043 334.71 262.043C339.452 262.043 343.637 261.039 347.264 259.03C350.891 256.966 353.736 254.065 355.801 250.326C357.865 246.588 358.87 242.236 358.814 237.27C358.87 232.248 357.865 227.896 355.801 224.214C353.736 220.475 350.891 217.602 347.264 215.593C343.637 213.529 339.452 212.497 334.71 212.497C329.8 212.497 325.252 213.696 321.068 216.095C316.939 218.439 313.898 221.703 311.945 225.888L271.102 217.853L277.798 123.446H392.961V160.606H315.962L312.615 198.436H313.619C316.297 193.247 320.928 188.951 327.512 185.547C334.096 182.088 341.74 180.358 350.444 180.358C360.655 180.358 369.75 182.729 377.729 187.472C385.763 192.215 392.096 198.771 396.727 207.14C401.414 215.454 403.73 225.051 403.674 235.931C403.73 247.871 400.884 258.473 395.137 267.735C389.446 276.941 381.439 284.167 371.117 289.411C360.794 294.6 348.659 297.195 334.71 297.195Z"></path>
<path fill="#2C308F" d="M169.261 268.069V231.914L238.225 123.446H271.034V171.654H252.286L215.126 230.574V231.914H316.898V268.069H169.261ZM252.621 294.852V257.022L253.625 241.287V123.446H297.146V294.852H252.621Z"></path>
<g filter="url(#filter0_d_8024_6060)">
<path fill="white" d="M537.773 297.195C524.605 297.195 512.916 294.879 502.705 290.248C492.55 285.562 484.543 279.117 478.685 270.915C472.882 262.713 469.925 253.283 469.813 242.626H515.008C515.175 248.541 517.463 253.256 521.871 256.771C526.335 260.286 531.635 262.043 537.773 262.043C542.515 262.043 546.7 261.039 550.327 259.03C553.954 256.966 556.799 254.065 558.864 250.326C560.928 246.588 561.932 242.236 561.877 237.27C561.932 232.248 560.928 227.896 558.864 224.214C556.799 220.475 553.954 217.602 550.327 215.593C546.7 213.529 542.515 212.497 537.773 212.497C532.863 212.497 528.315 213.696 524.131 216.095C520.002 218.439 516.961 221.703 515.008 225.888L474.165 217.853L480.861 123.446H596.024V160.606H519.025L515.678 198.436H516.682C519.36 193.247 523.991 188.951 530.575 185.547C537.159 182.088 544.803 180.358 553.507 180.358C563.718 180.358 572.813 182.729 580.792 187.472C588.826 192.215 595.159 198.771 599.79 207.14C604.477 215.454 606.793 225.051 606.737 235.931C606.793 247.871 603.947 258.473 598.2 267.735C592.509 276.941 584.502 284.167 574.18 289.411C563.857 294.6 551.722 297.195 537.773 297.195Z"></path>
</g>
<path fill-opacity="0.3" fill="white" d="M476.608 297.195C463.44 297.195 451.751 294.879 441.54 290.248C431.385 285.562 423.379 279.117 417.52 270.915C411.717 262.713 408.76 253.283 408.648 242.626H453.843C454.011 248.541 456.298 253.256 460.706 256.771C465.17 260.286 470.47 262.043 476.608 262.043C481.351 262.043 485.535 261.039 489.162 259.03C492.789 256.966 495.634 254.065 497.699 250.326C499.763 246.588 500.768 242.236 500.712 237.27C500.768 232.248 499.763 227.896 497.699 224.214C495.634 220.475 492.789 217.602 489.162 215.593C485.535 213.529 481.351 212.497 476.608 212.497C471.698 212.497 467.151 213.696 462.966 216.095C458.837 218.439 455.796 221.703 453.843 225.888L413 217.853L419.696 123.446H534.859V160.606H457.861L454.513 198.436H455.517C458.195 193.247 462.826 188.951 469.41 185.547C475.994 182.088 483.638 180.358 492.342 180.358C502.553 180.358 511.648 182.729 519.627 187.472C527.661 192.215 533.994 198.771 538.625 207.14C543.312 215.454 545.628 225.051 545.572 235.931C545.628 247.871 542.782 258.473 537.035 267.735C531.344 276.941 523.337 284.167 513.015 289.411C502.693 294.6 490.557 297.195 476.608 297.195Z"></path>
<path fill="url(#paint1_linear_8024_6060)" d="M176.227 371.081C174.835 371.081 173.706 372.209 173.706 373.602C173.706 374.994 174.835 376.123 176.227 376.123L176.227 371.081ZM590.273 375.384C591.258 374.4 591.258 372.803 590.273 371.819L574.23 355.776C573.246 354.791 571.649 354.791 570.665 355.776C569.68 356.76 569.68 358.356 570.665 359.341L584.926 373.602L570.665 387.862C569.68 388.847 569.68 390.443 570.665 391.427C571.649 392.412 573.246 392.412 574.23 391.427L590.273 375.384ZM176.227 376.123L588.491 376.122L588.491 371.081L176.227 371.081L176.227 376.123Z"></path>
<path stroke-width="9" stroke="#5057C5" fill="white" d="M376.217 378.014C374.629 380.604 374.654 383.872 376.281 386.439L389.086 406.638C390.997 409.653 394.68 411.027 398.099 410.002L435.051 398.916C439.688 397.525 442.021 392.352 439.995 387.955L416.24 336.426C413.576 330.648 405.546 330.173 402.22 335.598L376.217 378.014L380.054 380.365L376.217 378.014ZM405.372 391.551L411.453 361.274L422.348 386.484L405.372 391.551Z"></path>
<defs>
<filter color-interpolation-filters="sRGB" filterUnits="userSpaceOnUse" height="228.491" width="191.748" y="114.082" x="442.443" id="filter0_d_8024_6060">
<feFlood result="BackgroundImageFix" flood-opacity="0"></feFlood>
<feColorMatrix result="hardAlpha" values="0 0 0 0 0 0 0 0 0 0 0 0 0 0 0 0 0 0 127 0" type="matrix" in="SourceAlpha"></feColorMatrix>
<feMorphology result="effect1_dropShadow_8024_6060" in="SourceAlpha" operator="erode" radius="8.64327"></feMorphology>
<feOffset dy="18.0068"></feOffset>
<feGaussianBlur stdDeviation="18.0068"></feGaussianBlur>
<feComposite operator="out" in2="hardAlpha"></feComposite>
<feColorMatrix values="0 0 0 0 0 0 0 0 0 0 0 0 0 0 0 0 0 0 0.25 0" type="matrix"></feColorMatrix>
<feBlend result="effect1_dropShadow_8024_6060" in2="BackgroundImageFix" mode="normal"></feBlend>
<feBlend result="shape" in2="effect1_dropShadow_8024_6060" in="SourceGraphic" mode="normal"></feBlend>
</filter>
<linearGradient gradientUnits="userSpaceOnUse" y2="287.747" x2="893.739" y1="10.1571" x1="5.06401" id="paint0_linear_8024_6060">
<stop stop-color="#5A67D8"></stop>
<stop stop-color="#4C51BF" offset="0.745399"></stop>
<stop stop-color="#434190" offset="1"></stop>
</linearGradient>
<linearGradient gradientUnits="userSpaceOnUse" y2="373.602" x2="183.205" y1="373.602" x1="571.565" id="paint1_linear_8024_6060">
<stop stop-color="white"></stop>
<stop stop-opacity="0" stop-color="white" offset="1"></stop>
</linearGradient>
</defs>
</svg>
