<svg xmlns="http://www.w3.org/2000/svg" fill="none" viewBox="0 0 844 474" height="474" width="844">
<g clip-path="url(#clip0_10218_190661)">
<rect fill="url(#paint0_linear_10218_190661)" height="474" width="844"></rect>
<rect fill="url(#paint1_radial_10218_190661)" height="474" width="844"></rect>
<rect fill="url(#paint2_radial_10218_190661)" height="474" width="844"></rect>
<path fill-opacity="0.38" fill="url(#paint3_radial_10218_190661)" d="M554 -30H787V214L554 175.5V-30Z"></path>
<rect fill-opacity="0.38" fill="url(#paint4_linear_10218_190661)" height="236" width="21" y="-69" x="573"></rect>
<rect fill-opacity="0.38" fill="url(#paint5_linear_10218_190661)" height="236" width="13" y="-69" x="714"></rect>
<rect fill-opacity="0.38" fill="url(#paint6_linear_10218_190661)" height="236" width="7" y="-69" x="606"></rect>
<rect fill-opacity="0.38" fill="url(#paint7_linear_10218_190661)" height="274" width="25" y="-69" x="750"></rect>
<path fill-opacity="0.03" fill="white" d="M680.66 58.6735L554.312 146.609C545.843 152.503 543.756 164.146 549.65 172.615L637.586 298.963C643.48 307.432 655.123 309.519 663.591 303.625L789.94 215.689C798.408 209.795 800.496 198.152 794.602 189.684L706.666 63.3352C700.772 54.8667 689.129 52.7796 680.66 58.6735Z"></path>
<ellipse fill-opacity="0.45" fill="#0D0E26" ry="31.4886" rx="102.521" cy="397.871" cx="647.349"></ellipse>
<g filter="url(#filter0_ddddd_10218_190661)">
<path fill="white" d="M78.7203 185.587C78.7203 185.854 78.6133 186.095 78.3994 186.309C78.239 186.469 78.025 186.549 77.7576 186.549H52.6486C52.3812 186.549 52.2475 186.683 52.2475 186.95V196.818C52.2475 197.085 52.3812 197.219 52.6486 197.219H68.7729C69.0403 197.219 69.2542 197.326 69.4147 197.54C69.6286 197.7 69.7356 197.914 69.7356 198.181V207.567C69.7356 207.835 69.6286 208.075 69.4147 208.289C69.2542 208.45 69.0403 208.53 68.7729 208.53H52.6486C52.3812 208.53 52.2475 208.664 52.2475 208.931V230.35C52.2475 230.617 52.1405 230.858 51.9266 231.072C51.7661 231.232 51.5522 231.312 51.2848 231.312H39.8935C39.6261 231.312 39.3854 231.232 39.1715 231.072C39.011 230.858 38.9308 230.617 38.9308 230.35V176.121C38.9308 175.853 39.011 175.639 39.1715 175.479C39.3854 175.265 39.6261 175.158 39.8935 175.158H77.7576C78.025 175.158 78.239 175.265 78.3994 175.479C78.6133 175.639 78.7203 175.853 78.7203 176.121V185.587ZM100.659 189.277C102.585 189.277 104.082 189.624 105.152 190.32C105.58 190.587 105.74 190.988 105.633 191.523L103.788 202.674C103.735 203.315 103.36 203.503 102.665 203.235C101.702 203.021 100.793 202.914 99.9374 202.914C99.0282 202.914 98.333 202.968 97.8517 203.075C96.1938 203.289 94.7765 203.93 93.6 205C92.4769 206.07 91.9153 207.487 91.9153 209.252V230.35C91.9153 230.617 91.8084 230.858 91.5945 231.072C91.434 231.232 91.2201 231.312 90.9527 231.312H79.5613C79.2939 231.312 79.0533 231.232 78.8394 231.072C78.6789 230.858 78.5987 230.617 78.5987 230.35V190.801C78.5987 190.534 78.6789 190.32 78.8394 190.159C79.0533 189.945 79.2939 189.838 79.5613 189.838H90.9527C91.2201 189.838 91.434 189.945 91.5945 190.159C91.8084 190.32 91.9153 190.534 91.9153 190.801V193.368C91.9153 193.529 91.9688 193.636 92.0758 193.689C92.1827 193.742 92.263 193.689 92.3164 193.529C94.4557 190.694 97.2366 189.277 100.659 189.277ZM126.011 231.954C121.198 231.954 117.107 230.671 113.737 228.104C110.368 225.537 108.122 222.06 106.999 217.675C106.357 215.482 106.036 213.076 106.036 210.455C106.036 207.514 106.384 204.92 107.079 202.674C108.309 198.449 110.582 195.16 113.898 192.807C117.267 190.4 121.331 189.197 126.091 189.197C130.798 189.197 134.782 190.4 138.044 192.807C141.306 195.16 143.579 198.422 144.863 202.593C145.612 205 145.986 207.567 145.986 210.295C145.986 212.755 145.692 215.108 145.104 217.354C143.98 221.846 141.734 225.403 138.365 228.023C134.996 230.644 130.878 231.954 126.011 231.954ZM126.011 220.563C127.562 220.563 128.845 220.082 129.862 219.119C130.878 218.103 131.626 216.739 132.108 215.028C132.429 213.637 132.589 212.113 132.589 210.455C132.589 208.851 132.402 207.3 132.028 205.802C131.6 204.144 130.878 202.861 129.862 201.952C128.845 201.043 127.562 200.588 126.011 200.588C122.909 200.588 120.877 202.326 119.914 205.802C119.593 207.086 119.433 208.637 119.433 210.455C119.433 212.113 119.593 213.637 119.914 215.028C120.342 216.739 121.064 218.103 122.08 219.119C123.15 220.082 124.46 220.563 126.011 220.563ZM197.778 189.197C201.949 189.197 205.212 190.48 207.565 193.047C209.918 195.614 211.094 199.224 211.094 203.877V230.35C211.094 230.617 210.988 230.858 210.774 231.072C210.613 231.232 210.399 231.312 210.132 231.312H198.821C198.553 231.312 198.313 231.232 198.099 231.072C197.938 230.858 197.858 230.617 197.858 230.35V206.765C197.858 204.947 197.377 203.476 196.414 202.353C195.505 201.176 194.275 200.588 192.724 200.588C191.173 200.588 189.889 201.15 188.873 202.273C187.911 203.396 187.429 204.893 187.429 206.765V230.35C187.429 230.617 187.322 230.858 187.108 231.072C186.948 231.232 186.734 231.312 186.467 231.312H175.075C174.808 231.312 174.567 231.232 174.353 231.072C174.193 230.858 174.113 230.617 174.113 230.35V206.765C174.113 204.947 173.605 203.476 172.589 202.353C171.626 201.176 170.369 200.588 168.818 200.588C167.374 200.588 166.171 201.043 165.208 201.952C164.246 202.861 163.657 204.064 163.443 205.562V230.35C163.443 230.617 163.336 230.858 163.123 231.072C162.962 231.232 162.748 231.312 162.481 231.312H151.089C150.822 231.312 150.581 231.232 150.367 231.072C150.207 230.858 150.127 230.617 150.127 230.35V190.801C150.127 190.534 150.207 190.32 150.367 190.159C150.581 189.945 150.822 189.838 151.089 189.838H162.481C162.748 189.838 162.962 189.945 163.123 190.159C163.336 190.32 163.443 190.534 163.443 190.801V194.411C163.443 194.625 163.497 194.759 163.604 194.812C163.711 194.812 163.818 194.705 163.925 194.491C166.01 190.961 169.433 189.197 174.193 189.197C176.867 189.197 179.22 189.785 181.252 190.961C183.285 192.138 184.836 193.849 185.905 196.096C186.066 196.416 186.226 196.39 186.387 196.015C187.51 193.716 189.034 192.004 190.959 190.881C192.938 189.758 195.211 189.197 197.778 189.197ZM260.995 231.312C260.46 231.312 260.086 231.072 259.872 230.591L250.406 209.252C250.299 209.038 250.138 208.931 249.924 208.931H244.63C244.362 208.931 244.229 209.065 244.229 209.332V230.35C244.229 230.617 244.122 230.858 243.908 231.072C243.747 231.232 243.534 231.312 243.266 231.312H231.875C231.607 231.312 231.367 231.232 231.153 231.072C230.992 230.858 230.912 230.617 230.912 230.35V176.121C230.912 175.853 230.992 175.639 231.153 175.479C231.367 175.265 231.607 175.158 231.875 175.158H255.7C259.23 175.158 262.332 175.88 265.006 177.324C267.68 178.768 269.739 180.827 271.183 183.501C272.68 186.121 273.429 189.143 273.429 192.566C273.429 196.149 272.547 199.251 270.782 201.871C269.017 204.492 266.557 206.391 263.402 207.567C263.134 207.674 263.054 207.861 263.161 208.129L273.75 230.189C273.857 230.403 273.91 230.564 273.91 230.671C273.91 231.099 273.616 231.312 273.028 231.312H260.995ZM244.63 186.549C244.362 186.549 244.229 186.683 244.229 186.95V198.342C244.229 198.609 244.362 198.743 244.63 198.743H253.534C255.513 198.743 257.118 198.208 258.348 197.138C259.578 196.015 260.193 194.545 260.193 192.726C260.193 190.855 259.578 189.357 258.348 188.234C257.118 187.111 255.513 186.549 253.534 186.549H244.63ZM302.008 190.801C302.008 190.534 302.089 190.32 302.249 190.159C302.463 189.945 302.704 189.838 302.971 189.838H314.362C314.63 189.838 314.844 189.945 315.004 190.159C315.218 190.32 315.325 190.534 315.325 190.801V230.35C315.325 230.617 315.218 230.858 315.004 231.072C314.844 231.232 314.63 231.312 314.362 231.312H302.971C302.704 231.312 302.463 231.232 302.249 231.072C302.089 230.858 302.008 230.617 302.008 230.35V227.542C302.008 227.382 301.955 227.275 301.848 227.221C301.741 227.168 301.634 227.221 301.527 227.382C299.388 230.43 296.019 231.954 291.419 231.954C287.355 231.954 284.066 230.671 281.552 228.104C279.039 225.537 277.782 221.953 277.782 217.354V190.801C277.782 190.534 277.862 190.32 278.022 190.159C278.236 189.945 278.477 189.838 278.744 189.838H290.136C290.403 189.838 290.617 189.945 290.777 190.159C290.991 190.32 291.098 190.534 291.098 190.801V214.306C291.098 216.178 291.58 217.675 292.542 218.798C293.505 219.921 294.815 220.483 296.473 220.483C297.971 220.483 299.201 220.028 300.163 219.119C301.179 218.21 301.794 217.006 302.008 215.509V190.801ZM338.094 231.954C334.297 231.954 330.981 231.446 328.147 230.43C325.312 229.36 323.119 227.89 321.568 226.018C320.071 224.093 319.322 221.9 319.322 219.44V218.557C319.322 218.29 319.402 218.076 319.563 217.916C319.777 217.702 320.018 217.595 320.285 217.595H331.115C331.382 217.595 331.596 217.702 331.756 217.916C331.97 218.076 332.077 218.29 332.077 218.557C332.077 219.574 332.639 220.429 333.762 221.124C334.885 221.766 336.302 222.087 338.014 222.087C339.511 222.087 340.688 221.846 341.543 221.365C342.453 220.83 342.907 220.135 342.907 219.279C342.907 218.424 342.426 217.809 341.463 217.434C340.554 217.006 339.057 216.605 336.971 216.231C333.602 215.589 330.874 214.814 328.788 213.905C326.061 212.782 323.895 211.391 322.29 209.733C320.686 208.022 319.884 205.695 319.884 202.754C319.884 198.582 321.488 195.293 324.697 192.887C327.959 190.427 332.238 189.197 337.532 189.197C341.116 189.197 344.244 189.785 346.918 190.961C349.646 192.085 351.758 193.689 353.256 195.775C354.753 197.86 355.502 200.267 355.502 202.995C355.502 203.262 355.395 203.503 355.181 203.717C355.02 203.877 354.807 203.957 354.539 203.957H344.03C343.763 203.957 343.522 203.877 343.308 203.717C343.148 203.503 343.068 203.262 343.068 202.995C343.068 201.978 342.586 201.15 341.624 200.508C340.661 199.866 339.351 199.545 337.693 199.545C336.195 199.545 334.965 199.812 334.003 200.347C333.093 200.829 332.639 201.524 332.639 202.433C332.639 203.342 333.147 204.011 334.163 204.439C335.179 204.813 336.891 205.241 339.297 205.722C342.399 206.364 344.565 206.872 345.795 207.246C349.111 208.316 351.678 209.76 353.496 211.578C355.368 213.397 356.304 215.83 356.304 218.878C356.304 223.05 354.646 226.285 351.33 228.585C348.068 230.831 343.656 231.954 338.094 231.954ZM385.247 199.545C385.247 199.812 385.14 200.053 384.926 200.267C384.765 200.428 384.552 200.508 384.284 200.508H376.984C376.717 200.508 376.583 200.641 376.583 200.909V215.509C376.583 218.557 377.813 220.082 380.273 220.082H383.241C383.509 220.082 383.723 220.189 383.883 220.402C384.097 220.563 384.204 220.777 384.204 221.044V230.35C384.204 230.938 383.883 231.286 383.241 231.393C380.674 231.5 378.802 231.553 377.626 231.553C372.973 231.553 369.523 230.831 367.277 229.387C365.031 227.89 363.881 225.082 363.828 220.964V200.909C363.828 200.641 363.694 200.508 363.427 200.508H358.854C358.587 200.508 358.346 200.428 358.132 200.267C357.972 200.053 357.891 199.812 357.891 199.545V190.801C357.891 190.534 357.972 190.32 358.132 190.159C358.346 189.945 358.587 189.838 358.854 189.838H363.427C363.694 189.838 363.828 189.705 363.828 189.437V179.731C363.828 179.463 363.908 179.249 364.068 179.089C364.282 178.875 364.523 178.768 364.79 178.768H375.62C375.888 178.768 376.102 178.875 376.262 179.089C376.476 179.249 376.583 179.463 376.583 179.731V189.437C376.583 189.705 376.717 189.838 376.984 189.838H384.284C384.552 189.838 384.765 189.945 384.926 190.159C385.14 190.32 385.247 190.534 385.247 190.801V199.545ZM63.9597 283.545C63.9597 283.812 63.8527 284.053 63.6388 284.267C63.4784 284.428 63.2644 284.508 62.997 284.508H55.6969C55.4295 284.508 55.2958 284.641 55.2958 284.909V299.509C55.2958 302.557 56.5259 304.082 58.986 304.082H61.9542C62.2216 304.082 62.4355 304.189 62.5959 304.402C62.8098 304.563 62.9168 304.777 62.9168 305.044V314.35C62.9168 314.938 62.5959 315.286 61.9542 315.393C59.3871 315.5 57.5153 315.553 56.3387 315.553C51.6859 315.553 48.2364 314.831 45.9902 313.387C43.7441 311.89 42.5942 309.082 42.5407 304.964V284.909C42.5407 284.641 42.407 284.508 42.1396 284.508H37.5671C37.2997 284.508 37.059 284.428 36.8451 284.267C36.6846 284.053 36.6044 283.812 36.6044 283.545V274.801C36.6044 274.534 36.6846 274.32 36.8451 274.159C37.059 273.945 37.2997 273.838 37.5671 273.838H42.1396C42.407 273.838 42.5407 273.705 42.5407 273.437V263.731C42.5407 263.463 42.621 263.249 42.7814 263.089C42.9953 262.875 43.236 262.768 43.5034 262.768H54.3332C54.6006 262.768 54.8145 262.875 54.975 263.089C55.1889 263.249 55.2958 263.463 55.2958 263.731V273.437C55.2958 273.705 55.4295 273.838 55.6969 273.838H62.997C63.2644 273.838 63.4784 273.945 63.6388 274.159C63.8527 274.32 63.9597 274.534 63.9597 274.801V283.545ZM86.4083 315.954C81.5951 315.954 77.5038 314.671 74.1345 312.104C70.7653 309.537 68.5191 306.06 67.396 301.675C66.7542 299.482 66.4334 297.076 66.4334 294.455C66.4334 291.514 66.781 288.92 67.4762 286.674C68.7063 282.449 70.9792 279.16 74.295 276.807C77.6643 274.4 81.7288 273.197 86.4885 273.197C91.1948 273.197 95.1791 274.4 98.4414 276.807C101.704 279.16 103.977 282.422 105.26 286.593C106.009 289 106.383 291.567 106.383 294.295C106.383 296.755 106.089 299.108 105.501 301.354C104.378 305.846 102.132 309.403 98.7623 312.023C95.393 314.644 91.275 315.954 86.4083 315.954ZM86.4083 304.563C87.9593 304.563 89.2428 304.082 90.2589 303.119C91.275 302.103 92.0238 300.739 92.5051 299.028C92.826 297.637 92.9864 296.113 92.9864 294.455C92.9864 292.851 92.7992 291.3 92.4249 289.802C91.997 288.144 91.275 286.861 90.2589 285.952C89.2428 285.043 87.9593 284.588 86.4083 284.588C83.3064 284.588 81.2742 286.326 80.3115 289.802C79.9907 291.086 79.8302 292.637 79.8302 294.455C79.8302 296.113 79.9907 297.637 80.3115 299.028C80.7394 300.739 81.4614 302.103 82.4775 303.119C83.5471 304.082 84.8574 304.563 86.4083 304.563ZM166.133 259.158C166.4 259.158 166.614 259.265 166.774 259.479C166.988 259.639 167.095 259.853 167.095 260.121V269.667C167.095 269.934 166.988 270.175 166.774 270.389C166.614 270.549 166.4 270.63 166.133 270.63H152.094C151.827 270.63 151.693 270.763 151.693 271.031V314.35C151.693 314.617 151.586 314.858 151.372 315.072C151.212 315.232 150.998 315.312 150.73 315.312H139.339C139.072 315.312 138.831 315.232 138.617 315.072C138.457 314.858 138.376 314.617 138.376 314.35V271.031C138.376 270.763 138.243 270.63 137.975 270.63H124.418C124.15 270.63 123.91 270.549 123.696 270.389C123.535 270.175 123.455 269.934 123.455 269.667V260.121C123.455 259.853 123.535 259.639 123.696 259.479C123.91 259.265 124.15 259.158 124.418 259.158H166.133ZM166.002 331.276C165.841 331.276 165.708 331.169 165.601 330.956C165.494 330.795 165.44 330.581 165.44 330.314V321.329C165.44 320.687 165.734 320.366 166.323 320.366C169.745 320.366 172.205 320.046 173.703 319.404C175.2 318.762 176.109 317.478 176.43 315.553C176.484 315.446 176.484 315.286 176.43 315.072L163.515 274.881C163.461 274.774 163.435 274.641 163.435 274.48C163.435 273.999 163.729 273.758 164.317 273.758H176.43C176.965 273.758 177.313 274.026 177.473 274.56L183.008 298.306C183.062 298.52 183.142 298.627 183.249 298.627C183.356 298.627 183.436 298.52 183.49 298.306L189.025 274.56C189.185 274.026 189.533 273.758 190.068 273.758H201.941C202.261 273.758 202.502 273.865 202.663 274.079C202.823 274.239 202.85 274.507 202.743 274.881L189.185 316.115C187.848 320.126 186.431 323.147 184.934 325.18C183.49 327.265 181.351 328.79 178.516 329.752C175.735 330.768 171.751 331.276 166.563 331.276H166.002ZM244.661 285.39C245.516 288.278 245.944 291.38 245.944 294.696C245.944 298.493 245.383 301.862 244.259 304.804C243.029 308.119 241.051 310.82 238.323 312.906C235.649 314.938 232.387 315.954 228.536 315.954C224.686 315.954 221.771 314.697 219.792 312.184C219.685 312.023 219.578 311.97 219.471 312.023C219.364 312.077 219.311 312.184 219.311 312.344V329.03C219.311 329.298 219.204 329.512 218.99 329.672C218.83 329.886 218.616 329.993 218.348 329.993H206.957C206.689 329.993 206.449 329.886 206.235 329.672C206.074 329.512 205.994 329.298 205.994 329.03V274.801C205.994 274.534 206.074 274.32 206.235 274.159C206.449 273.945 206.689 273.838 206.957 273.838H218.348C218.616 273.838 218.83 273.945 218.99 274.159C219.204 274.32 219.311 274.534 219.311 274.801V277.448C219.311 277.609 219.364 277.716 219.471 277.769C219.578 277.769 219.685 277.716 219.792 277.609C221.931 274.667 225.007 273.197 229.018 273.197C232.654 273.197 235.863 274.293 238.644 276.486C241.425 278.625 243.431 281.593 244.661 285.39ZM230.462 301.675C231.531 299.857 232.066 297.45 232.066 294.455C232.066 291.567 231.585 289.294 230.622 287.636C229.499 285.604 227.814 284.588 225.568 284.588C223.429 284.588 221.798 285.604 220.675 287.636C219.765 289.455 219.311 291.754 219.311 294.535C219.311 297.53 219.819 299.937 220.835 301.755C221.958 303.627 223.536 304.563 225.568 304.563C227.761 304.563 229.392 303.6 230.462 301.675ZM288.481 290.925C288.748 292.53 288.828 294.642 288.721 297.263C288.668 297.905 288.32 298.225 287.678 298.225H263.211C263.104 298.225 262.997 298.279 262.89 298.386C262.783 298.439 262.756 298.52 262.81 298.627C262.917 299.215 263.184 299.99 263.612 300.953C264.254 302.076 265.217 302.985 266.5 303.68C267.784 304.376 269.361 304.723 271.233 304.723C274.602 304.723 277.25 303.627 279.175 301.434C279.389 301.167 279.63 301.033 279.897 301.033C280.164 301.033 280.378 301.14 280.539 301.354L286.716 308.414C286.93 308.574 287.037 308.788 287.037 309.055C287.037 309.269 286.93 309.483 286.716 309.697C284.844 311.729 282.517 313.28 279.736 314.35C277.009 315.419 274.014 315.954 270.752 315.954C265.885 315.954 261.74 314.911 258.318 312.826C254.948 310.686 252.515 307.718 251.017 303.921C249.894 301.247 249.333 297.905 249.333 293.894C249.333 291.113 249.761 288.439 250.616 285.871C252.007 281.914 254.28 278.812 257.435 276.566C260.644 274.266 264.441 273.116 268.826 273.116C272.356 273.116 275.512 273.892 278.293 275.443C281.073 276.94 283.32 279.053 285.031 281.78C286.796 284.454 287.946 287.503 288.481 290.925ZM268.826 284.588C266.045 284.588 264.2 285.898 263.291 288.519C263.077 289.107 262.944 289.669 262.89 290.203C262.783 290.471 262.89 290.605 263.211 290.605H274.602C274.816 290.605 274.923 290.498 274.923 290.284C274.923 289.856 274.816 289.321 274.602 288.679C274.228 287.342 273.533 286.326 272.517 285.631C271.554 284.936 270.324 284.588 268.826 284.588ZM313.494 315.954C309.055 315.954 305.178 315.259 301.862 313.869C298.599 312.425 296.059 310.392 294.241 307.772C292.476 305.098 291.593 302.023 291.593 298.546V297.022C291.593 296.755 291.674 296.541 291.834 296.38C292.048 296.166 292.289 296.06 292.556 296.06H303.707C303.974 296.06 304.188 296.166 304.349 296.38C304.562 296.541 304.669 296.755 304.669 297.022V297.985C304.669 299.75 305.552 301.301 307.317 302.638C309.082 303.921 311.461 304.563 314.456 304.563C316.81 304.563 318.548 304.055 319.671 303.039C320.794 302.023 321.355 300.846 321.355 299.509C321.355 298.439 321.008 297.584 320.312 296.942C319.671 296.247 318.788 295.685 317.665 295.257C316.542 294.776 314.804 294.134 312.451 293.332C312.13 293.172 311.809 293.065 311.488 293.011C311.167 292.904 310.873 292.797 310.606 292.69C307.13 291.567 304.108 290.364 301.541 289.08C298.974 287.743 296.781 285.925 294.963 283.625C293.144 281.272 292.235 278.384 292.235 274.961C292.235 271.646 293.091 268.758 294.802 266.298C296.567 263.784 299.001 261.859 302.102 260.522C305.204 259.185 308.707 258.516 312.611 258.516C316.729 258.516 320.419 259.265 323.682 260.762C326.998 262.26 329.591 264.372 331.463 267.1C333.335 269.827 334.271 272.956 334.271 276.486V277.609C334.271 277.876 334.164 278.117 333.95 278.331C333.79 278.491 333.576 278.571 333.308 278.571H322.158C321.89 278.571 321.649 278.491 321.436 278.331C321.275 278.117 321.195 277.876 321.195 277.609V277.047C321.195 275.175 320.366 273.518 318.708 272.074C317.05 270.63 314.831 269.908 312.05 269.908C309.964 269.908 308.333 270.335 307.156 271.191C305.98 272.047 305.391 273.25 305.391 274.801C305.391 275.978 305.766 276.967 306.515 277.769C307.263 278.518 308.413 279.24 309.964 279.935C311.568 280.577 314.002 281.433 317.264 282.502C321.008 283.786 323.922 284.909 326.008 285.871C328.094 286.834 330.046 288.412 331.864 290.605C333.736 292.744 334.672 295.578 334.672 299.108C334.672 302.584 333.79 305.579 332.025 308.093C330.26 310.606 327.773 312.558 324.564 313.949C321.409 315.286 317.719 315.954 313.494 315.954ZM358.067 315.954C353.682 315.954 349.831 314.858 346.515 312.665C343.253 310.473 340.927 307.451 339.536 303.6C338.52 301.033 338.012 297.958 338.012 294.375C338.012 290.792 338.52 287.717 339.536 285.15C340.873 281.406 343.199 278.491 346.515 276.405C349.831 274.266 353.682 273.197 358.067 273.197C362.506 273.197 366.41 274.293 369.779 276.486C373.148 278.678 375.421 281.459 376.598 284.829C376.972 285.791 377.213 286.834 377.32 287.957C377.32 288.546 377.026 288.893 376.438 289L365.287 290.685H365.126C364.645 290.685 364.324 290.417 364.164 289.883L364.003 289.161C363.896 288.733 363.789 288.358 363.682 288.037C363.201 287.021 362.452 286.192 361.436 285.551C360.474 284.909 359.324 284.588 357.987 284.588C355.152 284.588 353.28 285.845 352.371 288.358C351.783 289.856 351.489 291.888 351.489 294.455C351.489 296.755 351.756 298.76 352.291 300.472C353.307 303.199 355.206 304.563 357.987 304.563C359.377 304.563 360.581 304.215 361.597 303.52C362.613 302.771 363.335 301.728 363.763 300.391C363.816 300.284 363.843 300.124 363.843 299.91C363.896 299.857 363.923 299.75 363.923 299.589C364.084 298.947 364.458 298.68 365.046 298.787L376.277 300.552C376.812 300.659 377.079 300.953 377.079 301.434C377.079 302.237 376.919 303.119 376.598 304.082C375.314 307.825 372.988 310.74 369.619 312.826C366.303 314.911 362.452 315.954 358.067 315.954ZM403.066 273.277C404.992 273.277 406.489 273.624 407.559 274.32C407.987 274.587 408.147 274.988 408.04 275.523L406.195 286.674C406.142 287.315 405.767 287.503 405.072 287.235C404.109 287.021 403.2 286.914 402.344 286.914C401.435 286.914 400.74 286.968 400.259 287.075C398.601 287.289 397.184 287.93 396.007 289C394.884 290.07 394.322 291.487 394.322 293.252V314.35C394.322 314.617 394.215 314.858 394.001 315.072C393.841 315.232 393.627 315.312 393.36 315.312H381.968C381.701 315.312 381.46 315.232 381.246 315.072C381.086 314.858 381.006 314.617 381.006 314.35V274.801C381.006 274.534 381.086 274.32 381.246 274.159C381.46 273.945 381.701 273.838 381.968 273.838H393.36C393.627 273.838 393.841 273.945 394.001 274.159C394.215 274.32 394.322 274.534 394.322 274.801V277.368C394.322 277.529 394.376 277.636 394.483 277.689C394.59 277.742 394.67 277.689 394.723 277.529C396.863 274.694 399.644 273.277 403.066 273.277ZM417.558 270.148C415.526 270.148 413.841 269.506 412.504 268.223C411.221 266.886 410.579 265.201 410.579 263.169C410.579 261.083 411.221 259.399 412.504 258.115C413.841 256.832 415.526 256.19 417.558 256.19C419.59 256.19 421.248 256.832 422.532 258.115C423.869 259.399 424.537 261.083 424.537 263.169C424.537 265.148 423.869 266.806 422.532 268.143C421.248 269.48 419.59 270.148 417.558 270.148ZM411.782 315.312C411.515 315.312 411.274 315.232 411.06 315.072C410.9 314.858 410.82 314.617 410.82 314.35V274.801C410.82 274.534 410.9 274.32 411.06 274.159C411.274 273.945 411.515 273.838 411.782 273.838H423.174C423.441 273.838 423.655 273.945 423.815 274.159C424.029 274.32 424.136 274.534 424.136 274.801V314.35C424.136 314.617 424.029 314.858 423.815 315.072C423.655 315.232 423.441 315.312 423.174 315.312H411.782ZM468.411 285.39C469.266 288.278 469.694 291.38 469.694 294.696C469.694 298.493 469.133 301.862 468.009 304.804C466.779 308.119 464.801 310.82 462.073 312.906C459.399 314.938 456.137 315.954 452.286 315.954C448.436 315.954 445.521 314.697 443.542 312.184C443.435 312.023 443.328 311.97 443.221 312.023C443.114 312.077 443.061 312.184 443.061 312.344V329.03C443.061 329.298 442.954 329.512 442.74 329.672C442.58 329.886 442.366 329.993 442.098 329.993H430.707C430.439 329.993 430.199 329.886 429.985 329.672C429.824 329.512 429.744 329.298 429.744 329.03V274.801C429.744 274.534 429.824 274.32 429.985 274.159C430.199 273.945 430.439 273.838 430.707 273.838H442.098C442.366 273.838 442.58 273.945 442.74 274.159C442.954 274.32 443.061 274.534 443.061 274.801V277.448C443.061 277.609 443.114 277.716 443.221 277.769C443.328 277.769 443.435 277.716 443.542 277.609C445.681 274.667 448.757 273.197 452.768 273.197C456.404 273.197 459.613 274.293 462.394 276.486C465.175 278.625 467.181 281.593 468.411 285.39ZM454.212 301.675C455.281 299.857 455.816 297.45 455.816 294.455C455.816 291.567 455.335 289.294 454.372 287.636C453.249 285.604 451.564 284.588 449.318 284.588C447.179 284.588 445.548 285.604 444.425 287.636C443.515 289.455 443.061 291.754 443.061 294.535C443.061 297.53 443.569 299.937 444.585 301.755C445.708 303.627 447.286 304.563 449.318 304.563C451.511 304.563 453.142 303.6 454.212 301.675ZM499.474 283.545C499.474 283.812 499.367 284.053 499.153 284.267C498.992 284.428 498.778 284.508 498.511 284.508H491.211C490.943 284.508 490.81 284.641 490.81 284.909V299.509C490.81 302.557 492.04 304.082 494.5 304.082H497.468C497.735 304.082 497.949 304.189 498.11 304.402C498.324 304.563 498.431 304.777 498.431 305.044V314.35C498.431 314.938 498.11 315.286 497.468 315.393C494.901 315.5 493.029 315.553 491.853 315.553C487.2 315.553 483.75 314.831 481.504 313.387C479.258 311.89 478.108 309.082 478.055 304.964V284.909C478.055 284.641 477.921 284.508 477.653 284.508H473.081C472.814 284.508 472.573 284.428 472.359 284.267C472.198 284.053 472.118 283.812 472.118 283.545V274.801C472.118 274.534 472.198 274.32 472.359 274.159C472.573 273.945 472.814 273.838 473.081 273.838H477.653C477.921 273.838 478.055 273.705 478.055 273.437V263.731C478.055 263.463 478.135 263.249 478.295 263.089C478.509 262.875 478.75 262.768 479.017 262.768H489.847C490.114 262.768 490.328 262.875 490.489 263.089C490.703 263.249 490.81 263.463 490.81 263.731V273.437C490.81 273.705 490.943 273.838 491.211 273.838H498.511C498.778 273.838 498.992 273.945 499.153 274.159C499.367 274.32 499.474 274.534 499.474 274.801V283.545Z"></path>
</g>
<g clip-path="url(#clip1_10218_190661)">
<path fill="#8F1E1C" d="M647.321 331.578C623.997 331.578 602.807 334.382 587.118 338.952V377.986C602.807 382.556 623.997 385.359 647.321 385.359C674.016 385.359 697.914 381.686 713.967 375.897V341.041C697.914 335.251 674.016 331.578 647.321 331.578Z"></path>
<path fill="#8F1E1C" d="M715.011 366.896C714.327 365.007 714.19 362.616 714.769 360.312C715.806 356.185 718.742 353.898 721.328 355.203C721.969 355.526 722.528 356.041 722.991 356.694C723.033 356.694 723.076 356.694 723.118 356.697C723.118 356.697 731.012 366.107 723.705 377.251C723.546 377.884 710.144 393.503 707.041 394C705.011 394.325 709.68 378.053 715.011 366.896Z"></path>
<path fill="#8F1E1C" d="M585.496 365.048C586.435 363.341 586.765 361.01 586.243 358.594C585.31 354.268 582.007 351.31 578.865 351.987C578.086 352.155 577.39 352.532 576.798 353.068C576.748 353.058 576.698 353.048 576.648 353.041C576.648 353.041 566.674 360.474 574.512 373.227C574.654 373.889 589.369 392.511 592.994 393.738C595.367 394.541 591.002 377.344 585.496 365.048Z"></path>
<path fill="#E33A25" d="M571.496 366.117L571.497 366.12C571.53 366.145 571.559 366.168 571.496 366.117Z"></path>
<path fill="#E43A25" d="M730.195 352.801C730.039 352.258 729.883 351.715 729.723 351.178L735.16 343.301C735.714 342.5 735.828 341.459 735.466 340.545C735.105 339.636 734.316 338.984 733.382 338.825L724.189 337.265C723.833 336.538 723.46 335.822 723.085 335.112L726.947 326.27C727.345 325.368 727.261 324.321 726.734 323.504C726.209 322.683 725.318 322.203 724.369 322.24L715.039 322.579C714.556 321.95 714.065 321.327 713.564 320.715L715.708 311.237C715.925 310.275 715.651 309.267 714.981 308.568C714.315 307.871 713.346 307.583 712.425 307.809L703.337 310.043C702.749 309.523 702.15 309.01 701.545 308.506L701.873 298.776C701.908 297.791 701.449 296.855 700.66 296.309C699.872 295.759 698.872 295.676 698.01 296.085L689.532 300.115C688.849 299.724 688.163 299.335 687.469 298.96L685.971 289.372C685.819 288.401 685.194 287.576 684.318 287.199C683.446 286.82 682.446 286.942 681.68 287.519L674.121 293.19C673.377 292.943 672.63 292.706 671.872 292.48L668.615 283.387C668.283 282.46 667.519 281.78 666.588 281.588C665.66 281.398 664.705 281.72 664.061 282.439L657.699 289.557C656.929 289.468 656.16 289.388 655.387 289.321L650.475 281.044C649.977 280.206 649.099 279.695 648.151 279.695C647.206 279.695 646.326 280.206 645.832 281.044L640.918 289.321C640.146 289.388 639.373 289.468 638.605 289.557L632.242 282.439C631.598 281.72 630.639 281.398 629.714 281.588C628.783 281.782 628.017 282.46 627.688 283.387L624.427 292.48C623.672 292.706 622.925 292.945 622.179 293.19L614.623 287.519C613.854 286.94 612.854 286.818 611.98 287.199C611.108 287.576 610.48 288.401 610.33 289.372L608.83 298.96C608.137 299.335 607.45 299.721 606.766 300.115L598.289 296.085C597.428 295.674 596.423 295.759 595.639 296.309C594.851 296.855 594.391 297.791 594.427 298.776L594.752 308.506C594.149 309.01 593.552 309.523 592.96 310.043L583.874 307.809C582.951 307.585 581.984 307.871 581.316 308.568C580.643 309.267 580.371 310.275 580.587 311.237L582.727 320.715C582.231 321.329 581.739 321.95 581.258 322.579L571.928 322.24C570.986 322.212 570.087 322.683 569.561 323.504C569.034 324.321 568.954 325.368 569.347 326.27L573.212 335.112C572.836 335.822 572.463 336.538 572.105 337.265L562.912 338.825C561.978 338.982 561.19 339.634 560.827 340.545C560.466 341.459 560.583 342.5 561.135 343.301L566.573 351.178C566.531 351.316 566.492 351.457 566.45 351.596L563.462 354.77L571.496 366.119C571.496 366.119 648.6 401.686 720.121 366.721C728.29 365.255 730.195 352.801 730.195 352.801Z"></path>
<path fill="#E43A25" d="M574.001 368.088C575.944 365.88 580.665 363.205 580.303 359.887C579.656 353.947 574.73 349.611 569.3 350.202C567.954 350.349 566.703 350.786 565.593 351.449C565.511 351.43 565.429 351.412 565.347 351.397C565.347 351.397 546.985 360.411 557.451 378.446C557.549 379.356 578.332 406.028 584.168 408.06C587.988 409.389 580.64 385.266 574.001 368.088Z"></path>
<path fill="#E43A25" d="M723.183 367.294C720.934 365.398 715.004 363.676 714.87 360.341C714.629 354.37 718.858 349.352 724.316 349.132C725.669 349.078 726.971 349.324 728.167 349.816C728.245 349.785 728.324 349.755 728.402 349.728C728.402 349.728 747.898 355.921 740.22 375.308C740.257 376.222 723.659 405.68 718.188 408.554C714.607 410.435 719.163 385.266 723.183 367.294Z"></path>
<path fill="#E43A25" d="M588.094 367.445C588.094 367.445 587.849 391.772 611.69 397.201L616.661 387.214C616.661 387.214 599.386 388.885 598.057 367.445H588.094Z"></path>
<path fill="#E43A25" d="M709.507 367.445C709.507 367.445 709.752 391.772 685.911 397.201L680.94 387.214C680.94 387.214 698.215 388.885 699.544 367.445H709.507Z"></path>
<path fill="#E43A25" d="M692.285 392.245C688.697 383.573 677.119 380.13 666.424 384.555C657.011 388.449 651.428 397.141 652.67 405.081C660.103 404.965 668.075 404.484 675.835 403.359C675.835 403.359 671.257 410.759 664.52 417.217C669.05 418.386 674.334 418.062 679.418 415.958C690.112 411.533 695.873 400.916 692.285 392.245Z"></path>
<path fill="#E43A25" d="M625.942 402.945C625.942 402.945 635.724 404.237 649.095 404.567C650.267 396.149 643.89 387.239 633.715 383.793C622.475 379.986 610.86 384.288 607.773 393.402C604.685 402.517 611.294 412.992 622.535 416.8C627.518 418.488 632.573 418.58 636.928 417.368C630.387 410.9 625.942 402.945 625.942 402.945Z"></path>
<path stroke-linecap="round" stroke-width="4.39375" stroke="#090A15" d="M592.306 360.936C600.849 359.96 619.693 357.421 626.723 355.078"></path>
<path stroke-linecap="round" stroke-width="4.39375" stroke="#090A15" d="M701.417 360.936C692.874 359.96 674.029 357.421 666.999 355.078"></path>
<path stroke-linecap="round" stroke-width="4.39375" stroke="#090A15" d="M595.275 347.9C602.006 353.251 617.126 364.781 623.754 368.095"></path>
<path stroke-linecap="round" stroke-width="4.39375" stroke="#090A15" d="M698.448 347.9C691.716 353.251 676.596 364.781 669.968 368.095"></path>
<path fill="#8F1E1C" d="M640.022 324.063L646.549 318.842C646.594 318.806 646.643 318.776 646.694 318.751L657.087 313.86C657.723 313.561 658.374 314.242 658.047 314.864L651.953 326.444C651.824 326.689 651.844 326.985 652.005 327.211L655.148 331.611C655.305 331.831 655.328 332.121 655.207 332.364L644.101 354.574C643.705 355.366 642.506 354.906 642.74 354.053L648.683 332.444C648.762 332.157 648.659 331.851 648.423 331.669L640.033 325.215C639.657 324.926 639.651 324.36 640.022 324.063Z"></path>
<path fill="#8F1E1C" d="M616.592 294.618L614.396 288.027L627.577 286.562L680.302 290.224L698.609 297.547L694.215 307.067L680.302 312.925L672.979 318.051L659.158 325.883C654.065 328.769 647.869 328.93 642.634 326.312L640.758 325.374L625.38 312.925L619.522 297.547L616.592 294.618Z"></path>
</g>
<g filter="url(#filter1_ddddd_10218_190661)">
<g clip-path="url(#clip2_10218_190661)">
<path fill="#3178C6" d="M678.66 69.6579L552.312 157.594C543.843 163.488 541.756 175.131 547.65 183.599L635.586 309.948C641.48 318.416 653.123 320.503 661.591 314.609L787.94 226.673C796.408 220.78 798.496 209.137 792.602 200.668L704.666 74.3196C698.772 65.8511 687.129 63.764 678.66 69.6579Z"></path>
<path fill="#3178C6" d="M678.66 69.6579L552.312 157.594C543.843 163.488 541.756 175.131 547.65 183.599L635.586 309.948C641.48 318.416 653.123 320.503 661.591 314.609L787.94 226.673C796.408 220.78 798.496 209.137 792.602 200.668L704.666 74.3196C698.772 65.8511 687.129 63.764 678.66 69.6579Z"></path>
<path fill="white" d="M721.135 225.551L731.82 240.904C735.206 240.446 738.825 239.351 742.678 237.619C746.531 235.887 750.345 233.707 754.121 231.079C757.801 228.518 761.051 225.734 763.873 222.725C766.695 219.717 768.792 216.536 770.164 213.184C771.535 209.832 772.042 206.346 771.683 202.726C771.325 199.106 769.81 195.377 767.139 191.539C765.203 188.756 763.09 186.607 760.8 185.091C758.51 183.576 756.013 182.548 753.31 182.008C750.607 181.468 747.709 181.312 744.615 181.543C741.522 181.773 738.199 182.27 734.646 183.034C732.051 183.605 729.681 184.055 727.536 184.385C725.391 184.715 723.474 184.862 721.787 184.826C720.099 184.79 718.634 184.527 717.392 184.039C716.15 183.55 715.128 182.731 714.326 181.579C713.592 180.524 713.202 179.383 713.156 178.157C713.11 176.93 713.371 175.669 713.94 174.37C714.509 173.072 715.397 171.754 716.603 170.417C717.809 169.078 719.292 167.797 721.052 166.573C722.332 165.682 723.75 164.837 725.308 164.038C726.865 163.239 728.503 162.538 730.221 161.935C731.939 161.333 733.69 160.863 735.472 160.524C737.255 160.185 739.001 160.015 740.709 160.013L730.726 145.668C727.767 146.398 724.753 147.51 721.685 149.005C718.617 150.499 715.29 152.494 711.707 154.988C708.059 157.527 704.876 160.324 702.158 163.379C699.44 166.434 697.419 169.655 696.097 173.045C694.775 176.434 694.29 179.916 694.642 183.493C694.994 187.07 696.416 190.649 698.91 194.232C702.093 198.805 706.128 201.789 711.017 203.182C715.904 204.575 721.815 204.521 728.749 203.018C731.462 202.412 734.019 201.89 736.422 201.452C738.825 201.015 741.002 200.781 742.952 200.753C744.904 200.724 746.63 200.97 748.133 201.491C749.636 202.012 750.854 202.944 751.789 204.288C752.479 205.279 752.879 206.366 752.989 207.547C753.099 208.729 752.883 209.971 752.341 211.274C751.8 212.577 750.923 213.911 749.712 215.276C748.501 216.641 746.92 218.003 744.968 219.361C741.64 221.677 737.938 223.387 733.862 224.491C729.786 225.595 725.544 225.949 721.135 225.551ZM669 205.688L688.694 191.982L679.926 179.383L625.032 217.588L633.8 230.187L653.398 216.547L692.44 272.642L708.041 261.784L669 205.688Z" clip-rule="evenodd" fill-rule="evenodd"></path>
</g>
</g>
<path fill="#E43A25" d="M589.34 283.775L598.875 290.554C599.429 290.947 600.173 290.441 600.011 289.782L596.197 274.287C596.044 273.666 595.224 273.526 594.873 274.06L589.152 282.776C588.936 283.105 589.019 283.547 589.34 283.775Z"></path>
<path fill="#E43A25" d="M737.869 302.77H726.793C726.057 302.77 725.781 301.807 726.405 301.417L733.261 297.132C733.552 296.95 733.93 296.994 734.171 297.239L738.391 301.524C738.846 301.987 738.518 302.77 737.869 302.77Z"></path>
<path fill="#E43A25" d="M714.292 300.762L710.277 303.453C709.649 303.874 708.873 303.184 709.217 302.511L712.366 296.355C712.674 295.753 713.564 295.855 713.728 296.511L714.595 299.976C714.67 300.276 714.548 300.59 714.292 300.762Z"></path>
<path fill="#E43A25" d="M589.209 295.426L584.849 293.341C584.167 293.015 583.499 293.809 583.936 294.425L587.938 300.064C588.329 300.616 589.195 300.387 589.263 299.714L589.622 296.16C589.653 295.853 589.488 295.559 589.209 295.426Z"></path>
<path fill="#E43A25" d="M723.016 291.017L722.283 292.164C721.876 292.8 722.582 293.561 723.247 293.202L724.961 292.278C725.557 291.957 725.436 291.069 724.776 290.919L723.795 290.697C723.494 290.628 723.182 290.756 723.016 291.017Z"></path>
<path fill="#E43A25" d="M573.444 313.524L572.711 314.671C572.304 315.308 573.01 316.069 573.675 315.71L575.389 314.786C575.985 314.465 575.863 313.577 575.204 313.427L574.223 313.205C573.922 313.136 573.61 313.264 573.444 313.524Z"></path>
<path fill="#A3BFFA" d="M47.8983 141C47.7283 141 47.6179 140.915 47.5669 140.745L46.8022 138.247C46.7682 138.179 46.7257 138.145 46.6747 138.145H40.404C40.353 138.145 40.3106 138.179 40.2766 138.247L39.5373 140.745C39.4864 140.915 39.3759 141 39.206 141H35.9686C35.8667 141 35.7902 140.975 35.7392 140.924C35.6882 140.856 35.6798 140.762 35.7137 140.643L41.2197 123.411C41.2707 123.241 41.3812 123.157 41.5511 123.157H45.5531C45.7231 123.157 45.8335 123.241 45.8845 123.411L51.3905 140.643C51.4075 140.677 51.416 140.72 51.416 140.771C51.416 140.924 51.3225 141 51.1356 141H47.8983ZM41.1942 135.214C41.1772 135.316 41.2112 135.367 41.2962 135.367H45.7826C45.8845 135.367 45.9185 135.316 45.8845 135.214L43.5904 127.643C43.5734 127.575 43.5479 127.549 43.5139 127.566C43.4799 127.566 43.4544 127.592 43.4374 127.643L41.1942 135.214ZM74.1051 123.462C74.1051 123.377 74.1306 123.309 74.1816 123.258C74.2495 123.191 74.326 123.157 74.411 123.157H77.3934C77.4783 123.157 77.5463 123.191 77.5973 123.258C77.6653 123.309 77.6993 123.377 77.6993 123.462V140.694C77.6993 140.779 77.6653 140.856 77.5973 140.924C77.5463 140.975 77.4783 141 77.3934 141H74.5129C74.343 141 74.224 140.932 74.1561 140.796L67.554 129.886C67.52 129.835 67.486 129.818 67.452 129.835C67.418 129.835 67.401 129.869 67.401 129.937L67.452 140.694C67.452 140.779 67.418 140.856 67.3501 140.924C67.2991 140.975 67.2311 141 67.1461 141H64.1637C64.0788 141 64.0023 140.975 63.9343 140.924C63.8833 140.856 63.8578 140.779 63.8578 140.694V123.462C63.8578 123.377 63.8833 123.309 63.9343 123.258C64.0023 123.191 64.0788 123.157 64.1637 123.157H67.0442C67.2141 123.157 67.3331 123.225 67.401 123.36L73.9776 134.219C74.0116 134.27 74.0456 134.296 74.0796 134.296C74.1136 134.279 74.1306 134.236 74.1306 134.168L74.1051 123.462ZM95.5983 125.935C95.5983 126.02 95.5643 126.096 95.4963 126.164C95.4454 126.215 95.3774 126.241 95.2924 126.241H86.9315C86.8465 126.241 86.804 126.283 86.804 126.368V130.319C86.804 130.404 86.8465 130.447 86.9315 130.447H92.412C92.4969 130.447 92.5649 130.481 92.6159 130.549C92.6839 130.6 92.7179 130.668 92.7179 130.753V133.225C92.7179 133.31 92.6839 133.387 92.6159 133.455C92.5649 133.506 92.4969 133.531 92.412 133.531H86.9315C86.8465 133.531 86.804 133.574 86.804 133.659V137.788C86.804 137.873 86.8465 137.916 86.9315 137.916H95.2924C95.3774 137.916 95.4454 137.95 95.4963 138.018C95.5643 138.069 95.5983 138.137 95.5983 138.222V140.694C95.5983 140.779 95.5643 140.856 95.4963 140.924C95.4454 140.975 95.3774 141 95.2924 141H83.5157C83.4308 141 83.3543 140.975 83.2863 140.924C83.2353 140.856 83.2098 140.779 83.2098 140.694V123.462C83.2098 123.377 83.2353 123.309 83.2863 123.258C83.3543 123.191 83.4308 123.157 83.5157 123.157H95.2924C95.3774 123.157 95.4454 123.191 95.4963 123.258C95.5643 123.309 95.5983 123.377 95.5983 123.462V125.935ZM104.745 141C104.559 141 104.44 140.915 104.389 140.745L99.8768 123.488L99.8513 123.386C99.8513 123.233 99.9447 123.157 100.132 123.157H103.293C103.462 123.157 103.573 123.241 103.624 123.411L106.045 133.786C106.062 133.854 106.088 133.888 106.122 133.888C106.156 133.888 106.181 133.854 106.198 133.786L108.544 123.437C108.595 123.25 108.705 123.157 108.875 123.157H111.959C112.146 123.157 112.265 123.241 112.316 123.411L114.865 133.786C114.882 133.837 114.908 133.871 114.942 133.888C114.976 133.888 115.001 133.854 115.018 133.786L117.363 123.437C117.414 123.25 117.525 123.157 117.695 123.157H120.703C120.941 123.157 121.034 123.267 120.983 123.488L116.803 140.745C116.752 140.915 116.633 141 116.446 141H113.412C113.242 141 113.132 140.915 113.081 140.745L110.481 129.708C110.464 129.64 110.438 129.606 110.404 129.606C110.37 129.606 110.345 129.64 110.328 129.708L107.906 140.72C107.872 140.907 107.762 141 107.575 141H104.745ZM139.62 141.204C138.295 141.204 137.131 140.949 136.128 140.439C135.126 139.912 134.352 139.182 133.809 138.247C133.265 137.312 132.993 136.233 132.993 135.01V129.121C132.993 127.898 133.265 126.819 133.809 125.884C134.352 124.949 135.126 124.227 136.128 123.717C137.131 123.208 138.295 122.953 139.62 122.953C140.929 122.953 142.076 123.199 143.062 123.692C144.064 124.168 144.838 124.856 145.381 125.757C145.942 126.64 146.223 127.668 146.223 128.841C146.223 128.994 146.121 129.087 145.917 129.121L142.934 129.3H142.883C142.713 129.3 142.628 129.206 142.628 129.019C142.628 128.119 142.348 127.396 141.787 126.853C141.243 126.309 140.521 126.037 139.62 126.037C138.703 126.037 137.964 126.309 137.403 126.853C136.859 127.396 136.587 128.119 136.587 129.019V135.163C136.587 136.046 136.859 136.76 137.403 137.304C137.964 137.848 138.703 138.12 139.62 138.12C140.521 138.12 141.243 137.848 141.787 137.304C142.348 136.76 142.628 136.046 142.628 135.163C142.628 134.976 142.73 134.882 142.934 134.882L145.917 135.01C146.002 135.01 146.07 135.035 146.121 135.086C146.189 135.137 146.223 135.197 146.223 135.265C146.223 136.437 145.942 137.474 145.381 138.374C144.838 139.275 144.064 139.972 143.062 140.465C142.076 140.958 140.929 141.204 139.62 141.204ZM160.89 123.462C160.89 123.377 160.915 123.309 160.966 123.258C161.034 123.191 161.111 123.157 161.196 123.157H164.178C164.263 123.157 164.331 123.191 164.382 123.258C164.45 123.309 164.484 123.377 164.484 123.462V140.694C164.484 140.779 164.45 140.856 164.382 140.924C164.331 140.975 164.263 141 164.178 141H161.196C161.111 141 161.034 140.975 160.966 140.924C160.915 140.856 160.89 140.779 160.89 140.694V133.659C160.89 133.574 160.847 133.531 160.762 133.531H155.129C155.044 133.531 155.002 133.574 155.002 133.659V140.694C155.002 140.779 154.968 140.856 154.9 140.924C154.849 140.975 154.781 141 154.696 141H151.713C151.628 141 151.552 140.975 151.484 140.924C151.433 140.856 151.407 140.779 151.407 140.694V123.462C151.407 123.377 151.433 123.309 151.484 123.258C151.552 123.191 151.628 123.157 151.713 123.157H154.696C154.781 123.157 154.849 123.191 154.9 123.258C154.968 123.309 155.002 123.377 155.002 123.462V130.319C155.002 130.404 155.044 130.447 155.129 130.447H160.762C160.847 130.447 160.89 130.404 160.89 130.319V123.462ZM181.381 141C181.211 141 181.1 140.915 181.049 140.745L180.285 138.247C180.251 138.179 180.208 138.145 180.157 138.145H173.887C173.836 138.145 173.793 138.179 173.759 138.247L173.02 140.745C172.969 140.915 172.858 141 172.688 141H169.451C169.349 141 169.273 140.975 169.222 140.924C169.171 140.856 169.162 140.762 169.196 140.643L174.702 123.411C174.753 123.241 174.864 123.157 175.034 123.157H179.036C179.206 123.157 179.316 123.241 179.367 123.411L184.873 140.643C184.89 140.677 184.899 140.72 184.899 140.771C184.899 140.924 184.805 141 184.618 141H181.381ZM174.677 135.214C174.66 135.316 174.694 135.367 174.779 135.367H179.265C179.367 135.367 179.401 135.316 179.367 135.214L177.073 127.643C177.056 127.575 177.03 127.549 176.996 127.566C176.962 127.566 176.937 127.592 176.92 127.643L174.677 135.214ZM197.055 123.131C198.177 123.131 199.162 123.36 200.012 123.819C200.862 124.278 201.516 124.932 201.975 125.782C202.45 126.615 202.688 127.575 202.688 128.663C202.688 129.733 202.442 130.676 201.949 131.492C201.473 132.308 200.794 132.945 199.91 133.404C199.043 133.846 198.041 134.067 196.902 134.067H193.282C193.197 134.067 193.155 134.109 193.155 134.194V140.694C193.155 140.779 193.121 140.856 193.053 140.924C193.002 140.975 192.934 141 192.849 141H189.867C189.782 141 189.705 140.975 189.637 140.924C189.586 140.856 189.561 140.779 189.561 140.694V123.437C189.561 123.352 189.586 123.284 189.637 123.233C189.705 123.165 189.782 123.131 189.867 123.131H197.055ZM196.52 131.186C197.301 131.186 197.93 130.965 198.406 130.523C198.882 130.065 199.12 129.47 199.12 128.739C199.12 127.991 198.882 127.388 198.406 126.929C197.93 126.47 197.301 126.241 196.52 126.241H193.282C193.197 126.241 193.155 126.283 193.155 126.368V131.059C193.155 131.144 193.197 131.186 193.282 131.186H196.52ZM219.759 123.157C219.844 123.157 219.912 123.191 219.963 123.258C220.031 123.309 220.065 123.377 220.065 123.462V125.961C220.065 126.045 220.031 126.122 219.963 126.19C219.912 126.241 219.844 126.266 219.759 126.266H215.196C215.111 126.266 215.069 126.309 215.069 126.394V140.694C215.069 140.779 215.035 140.856 214.967 140.924C214.916 140.975 214.848 141 214.763 141H211.78C211.695 141 211.619 140.975 211.551 140.924C211.5 140.856 211.475 140.779 211.475 140.694V126.394C211.475 126.309 211.432 126.266 211.347 126.266H206.912C206.827 126.266 206.75 126.241 206.682 126.19C206.631 126.122 206.606 126.045 206.606 125.961V123.462C206.606 123.377 206.631 123.309 206.682 123.258C206.75 123.191 206.827 123.157 206.912 123.157H219.759ZM237.296 125.935C237.296 126.02 237.262 126.096 237.194 126.164C237.143 126.215 237.075 126.241 236.99 126.241H228.629C228.544 126.241 228.501 126.283 228.501 126.368V130.319C228.501 130.404 228.544 130.447 228.629 130.447H234.109C234.194 130.447 234.262 130.481 234.313 130.549C234.381 130.6 234.415 130.668 234.415 130.753V133.225C234.415 133.31 234.381 133.387 234.313 133.455C234.262 133.506 234.194 133.531 234.109 133.531H228.629C228.544 133.531 228.501 133.574 228.501 133.659V137.788C228.501 137.873 228.544 137.916 228.629 137.916H236.99C237.075 137.916 237.143 137.95 237.194 138.018C237.262 138.069 237.296 138.137 237.296 138.222V140.694C237.296 140.779 237.262 140.856 237.194 140.924C237.143 140.975 237.075 141 236.99 141H225.213C225.128 141 225.052 140.975 224.984 140.924C224.933 140.856 224.907 140.779 224.907 140.694V123.462C224.907 123.377 224.933 123.309 224.984 123.258C225.052 123.191 225.128 123.157 225.213 123.157H236.99C237.075 123.157 237.143 123.191 237.194 123.258C237.262 123.309 237.296 123.377 237.296 123.462V125.935ZM252.131 141C251.961 141 251.842 140.924 251.774 140.771L248.588 133.71C248.554 133.642 248.503 133.608 248.435 133.608H246.064C245.979 133.608 245.937 133.65 245.937 133.735V140.694C245.937 140.779 245.903 140.856 245.835 140.924C245.784 140.975 245.716 141 245.631 141H242.648C242.563 141 242.487 140.975 242.419 140.924C242.368 140.856 242.342 140.779 242.342 140.694V123.462C242.342 123.377 242.368 123.309 242.419 123.258C242.487 123.191 242.563 123.157 242.648 123.157H249.939C251.026 123.157 251.978 123.377 252.794 123.819C253.626 124.261 254.263 124.89 254.705 125.706C255.164 126.521 255.394 127.464 255.394 128.535C255.394 129.691 255.105 130.685 254.527 131.517C253.949 132.333 253.142 132.911 252.105 133.251C252.02 133.285 251.995 133.344 252.029 133.429L255.496 140.643C255.53 140.711 255.547 140.762 255.547 140.796C255.547 140.932 255.453 141 255.266 141H252.131ZM246.064 126.241C245.979 126.241 245.937 126.283 245.937 126.368V130.727C245.937 130.812 245.979 130.855 246.064 130.855H249.403C250.117 130.855 250.695 130.642 251.137 130.217C251.595 129.793 251.825 129.24 251.825 128.561C251.825 127.881 251.595 127.329 251.137 126.904C250.695 126.462 250.117 126.241 249.403 126.241H246.064ZM280.564 125.935C280.564 126.02 280.53 126.096 280.462 126.164C280.411 126.215 280.343 126.241 280.259 126.241H271.923C271.838 126.241 271.796 126.283 271.796 126.368V130.319C271.796 130.404 271.838 130.447 271.923 130.447H277.404C277.489 130.447 277.556 130.481 277.607 130.549C277.675 130.6 277.709 130.668 277.709 130.753V133.225C277.709 133.31 277.675 133.387 277.607 133.455C277.556 133.506 277.489 133.531 277.404 133.531H271.923C271.838 133.531 271.796 133.574 271.796 133.659V140.694C271.796 140.779 271.762 140.856 271.694 140.924C271.643 140.975 271.575 141 271.49 141H268.507C268.422 141 268.346 140.975 268.278 140.924C268.227 140.856 268.201 140.779 268.201 140.694V123.462C268.201 123.377 268.227 123.309 268.278 123.258C268.346 123.191 268.422 123.157 268.507 123.157H280.259C280.343 123.157 280.411 123.191 280.462 123.258C280.53 123.309 280.564 123.377 280.564 123.462V125.935ZM291.337 141.28C290.011 141.28 288.839 141.008 287.819 140.465C286.816 139.921 286.035 139.165 285.474 138.196C284.913 137.21 284.633 136.08 284.633 134.806V129.351C284.633 128.093 284.913 126.98 285.474 126.011C286.035 125.043 286.816 124.295 287.819 123.768C288.839 123.225 290.011 122.953 291.337 122.953C292.679 122.953 293.852 123.225 294.854 123.768C295.874 124.295 296.664 125.043 297.225 126.011C297.786 126.98 298.066 128.093 298.066 129.351V134.806C298.066 136.08 297.786 137.21 297.225 138.196C296.664 139.182 295.874 139.946 294.854 140.49C293.852 141.017 292.679 141.28 291.337 141.28ZM291.337 138.196C292.271 138.196 293.027 137.899 293.605 137.304C294.183 136.709 294.472 135.919 294.472 134.933V129.325C294.472 128.34 294.183 127.549 293.605 126.955C293.044 126.343 292.288 126.037 291.337 126.037C290.402 126.037 289.646 126.343 289.068 126.955C288.507 127.549 288.227 128.34 288.227 129.325V134.933C288.227 135.919 288.507 136.709 289.068 137.304C289.646 137.899 290.402 138.196 291.337 138.196ZM313.159 141C312.989 141 312.87 140.924 312.802 140.771L309.616 133.71C309.582 133.642 309.531 133.608 309.463 133.608H307.092C307.007 133.608 306.965 133.65 306.965 133.735V140.694C306.965 140.779 306.931 140.856 306.863 140.924C306.812 140.975 306.744 141 306.659 141H303.676C303.591 141 303.515 140.975 303.447 140.924C303.396 140.856 303.371 140.779 303.371 140.694V123.462C303.371 123.377 303.396 123.309 303.447 123.258C303.515 123.191 303.591 123.157 303.676 123.157H310.967C312.054 123.157 313.006 123.377 313.822 123.819C314.654 124.261 315.292 124.89 315.734 125.706C316.192 126.521 316.422 127.464 316.422 128.535C316.422 129.691 316.133 130.685 315.555 131.517C314.977 132.333 314.17 132.911 313.134 133.251C313.049 133.285 313.023 133.344 313.057 133.429L316.524 140.643C316.558 140.711 316.575 140.762 316.575 140.796C316.575 140.932 316.481 141 316.294 141H313.159ZM307.092 126.241C307.007 126.241 306.965 126.283 306.965 126.368V130.727C306.965 130.812 307.007 130.855 307.092 130.855H310.431C311.145 130.855 311.723 130.642 312.165 130.217C312.624 129.793 312.853 129.24 312.853 128.561C312.853 127.881 312.624 127.329 312.165 126.904C311.723 126.462 311.145 126.241 310.431 126.241H307.092ZM336.596 123.131C337.718 123.131 338.704 123.36 339.553 123.819C340.403 124.278 341.057 124.932 341.516 125.782C341.992 126.615 342.23 127.575 342.23 128.663C342.23 129.733 341.984 130.676 341.491 131.492C341.015 132.308 340.335 132.945 339.451 133.404C338.585 133.846 337.582 134.067 336.444 134.067H332.824C332.739 134.067 332.696 134.109 332.696 134.194V140.694C332.696 140.779 332.662 140.856 332.594 140.924C332.543 140.975 332.475 141 332.391 141H329.408C329.323 141 329.247 140.975 329.179 140.924C329.128 140.856 329.102 140.779 329.102 140.694V123.437C329.102 123.352 329.128 123.284 329.179 123.233C329.247 123.165 329.323 123.131 329.408 123.131H336.596ZM336.061 131.186C336.843 131.186 337.472 130.965 337.947 130.523C338.423 130.065 338.661 129.47 338.661 128.739C338.661 127.991 338.423 127.388 337.947 126.929C337.472 126.47 336.843 126.241 336.061 126.241H332.824C332.739 126.241 332.696 126.283 332.696 126.368V131.059C332.696 131.144 332.739 131.186 332.824 131.186H336.061ZM356.777 141C356.607 141 356.488 140.924 356.42 140.771L353.234 133.71C353.2 133.642 353.149 133.608 353.081 133.608H350.71C350.625 133.608 350.583 133.65 350.583 133.735V140.694C350.583 140.779 350.549 140.856 350.481 140.924C350.43 140.975 350.362 141 350.277 141H347.294C347.209 141 347.133 140.975 347.065 140.924C347.014 140.856 346.989 140.779 346.989 140.694V123.462C346.989 123.377 347.014 123.309 347.065 123.258C347.133 123.191 347.209 123.157 347.294 123.157H354.585C355.672 123.157 356.624 123.377 357.44 123.819C358.272 124.261 358.91 124.89 359.352 125.706C359.81 126.521 360.04 127.464 360.04 128.535C360.04 129.691 359.751 130.685 359.173 131.517C358.595 132.333 357.788 132.911 356.751 133.251C356.666 133.285 356.641 133.344 356.675 133.429L360.142 140.643C360.176 140.711 360.193 140.762 360.193 140.796C360.193 140.932 360.099 141 359.912 141H356.777ZM350.71 126.241C350.625 126.241 350.583 126.283 350.583 126.368V130.727C350.583 130.812 350.625 130.855 350.71 130.855H354.049C354.763 130.855 355.341 130.642 355.783 130.217C356.242 129.793 356.471 129.24 356.471 128.561C356.471 127.881 356.242 127.329 355.783 126.904C355.341 126.462 354.763 126.241 354.049 126.241H350.71ZM365.501 141C365.416 141 365.34 140.975 365.272 140.924C365.221 140.856 365.195 140.779 365.195 140.694V123.462C365.195 123.377 365.221 123.309 365.272 123.258C365.34 123.191 365.416 123.157 365.501 123.157H368.484C368.569 123.157 368.637 123.191 368.688 123.258C368.756 123.309 368.79 123.377 368.79 123.462V140.694C368.79 140.779 368.756 140.856 368.688 140.924C368.637 140.975 368.569 141 368.484 141H365.501ZM380.559 141.204C379.199 141.204 378.009 140.992 376.99 140.567C375.97 140.125 375.18 139.505 374.619 138.706C374.075 137.89 373.803 136.947 373.803 135.876V135.316C373.803 135.231 373.829 135.163 373.88 135.112C373.948 135.044 374.024 135.01 374.109 135.01H377.015C377.1 135.01 377.168 135.044 377.219 135.112C377.287 135.163 377.321 135.231 377.321 135.316V135.698C377.321 136.378 377.636 136.955 378.264 137.431C378.893 137.89 379.743 138.12 380.813 138.12C381.714 138.12 382.385 137.933 382.827 137.559C383.269 137.168 383.49 136.692 383.49 136.131C383.49 135.723 383.354 135.384 383.082 135.112C382.81 134.823 382.436 134.576 381.961 134.372C381.502 134.152 380.762 133.854 379.743 133.48C378.604 133.089 377.636 132.69 376.837 132.282C376.055 131.874 375.392 131.322 374.849 130.625C374.322 129.912 374.058 129.036 374.058 128C374.058 126.98 374.322 126.088 374.849 125.323C375.375 124.559 376.106 123.972 377.041 123.564C377.975 123.157 379.055 122.953 380.278 122.953C381.57 122.953 382.717 123.182 383.719 123.641C384.739 124.1 385.529 124.745 386.09 125.578C386.668 126.394 386.957 127.345 386.957 128.433V128.815C386.957 128.9 386.923 128.977 386.855 129.045C386.804 129.096 386.736 129.121 386.651 129.121H383.719C383.634 129.121 383.558 129.096 383.49 129.045C383.439 128.977 383.413 128.9 383.413 128.815V128.612C383.413 127.898 383.116 127.295 382.521 126.802C381.944 126.292 381.145 126.037 380.125 126.037C379.326 126.037 378.698 126.207 378.239 126.547C377.797 126.887 377.576 127.354 377.576 127.949C377.576 128.374 377.704 128.73 377.958 129.019C378.23 129.308 378.621 129.572 379.131 129.81C379.658 130.031 380.465 130.336 381.553 130.727C382.759 131.169 383.702 131.56 384.382 131.9C385.079 132.24 385.699 132.75 386.243 133.429C386.804 134.092 387.084 134.959 387.084 136.029C387.084 137.627 386.498 138.893 385.325 139.827C384.153 140.745 382.564 141.204 380.559 141.204ZM403.621 123.36C403.706 123.225 403.825 123.157 403.977 123.157H406.96C407.045 123.157 407.113 123.191 407.164 123.258C407.232 123.309 407.266 123.377 407.266 123.462V140.694C407.266 140.779 407.232 140.856 407.164 140.924C407.113 140.975 407.045 141 406.96 141H403.977C403.893 141 403.816 140.975 403.748 140.924C403.697 140.856 403.672 140.779 403.672 140.694V129.453C403.672 129.385 403.655 129.351 403.621 129.351C403.587 129.351 403.553 129.376 403.519 129.427L400.817 133.659C400.732 133.795 400.613 133.863 400.46 133.863H398.956C398.803 133.863 398.684 133.795 398.599 133.659L395.897 129.427C395.863 129.376 395.829 129.359 395.795 129.376C395.761 129.376 395.744 129.41 395.744 129.478V140.694C395.744 140.779 395.71 140.856 395.642 140.924C395.591 140.975 395.523 141 395.438 141H392.456C392.371 141 392.294 140.975 392.226 140.924C392.175 140.856 392.15 140.779 392.15 140.694V123.462C392.15 123.377 392.175 123.309 392.226 123.258C392.294 123.191 392.371 123.157 392.456 123.157H395.438C395.591 123.157 395.71 123.225 395.795 123.36L399.619 129.3C399.67 129.402 399.721 129.402 399.772 129.3L403.621 123.36ZM424.264 141C424.094 141 423.984 140.915 423.933 140.745L423.168 138.247C423.134 138.179 423.092 138.145 423.041 138.145H416.77C416.719 138.145 416.676 138.179 416.642 138.247L415.903 140.745C415.852 140.915 415.742 141 415.572 141H412.334C412.232 141 412.156 140.975 412.105 140.924C412.054 140.856 412.046 140.762 412.08 140.643L417.586 123.411C417.637 123.241 417.747 123.157 417.917 123.157H421.919C422.089 123.157 422.199 123.241 422.25 123.411L427.756 140.643C427.773 140.677 427.782 140.72 427.782 140.771C427.782 140.924 427.688 141 427.501 141H424.264ZM417.56 135.214C417.543 135.316 417.577 135.367 417.662 135.367H422.148C422.25 135.367 422.284 135.316 422.25 135.214L419.956 127.643C419.939 127.575 419.914 127.549 419.88 127.566C419.846 127.566 419.82 127.592 419.803 127.643L417.56 135.214ZM446.571 141.28C445.245 141.28 444.073 141.008 443.053 140.465C442.05 139.921 441.269 139.165 440.708 138.196C440.147 137.21 439.867 136.08 439.867 134.806V129.351C439.867 128.093 440.147 126.98 440.708 126.011C441.269 125.043 442.05 124.295 443.053 123.768C444.073 123.225 445.245 122.953 446.571 122.953C447.913 122.953 449.086 123.225 450.089 123.768C451.108 124.295 451.898 125.043 452.459 126.011C453.02 126.98 453.3 128.093 453.3 129.351V134.806C453.3 136.08 453.02 137.21 452.459 138.196C451.898 139.182 451.108 139.946 450.089 140.49C449.086 141.017 447.913 141.28 446.571 141.28ZM446.571 138.196C447.505 138.196 448.262 137.899 448.839 137.304C449.417 136.709 449.706 135.919 449.706 134.933V129.325C449.706 128.34 449.417 127.549 448.839 126.955C448.279 126.343 447.522 126.037 446.571 126.037C445.636 126.037 444.88 126.343 444.302 126.955C443.741 127.549 443.461 128.34 443.461 129.325V134.933C443.461 135.919 443.741 136.709 444.302 137.304C444.88 137.899 445.636 138.196 446.571 138.196ZM468.393 141C468.223 141 468.104 140.924 468.036 140.771L464.85 133.71C464.816 133.642 464.765 133.608 464.697 133.608H462.326C462.241 133.608 462.199 133.65 462.199 133.735V140.694C462.199 140.779 462.165 140.856 462.097 140.924C462.046 140.975 461.978 141 461.893 141H458.911C458.826 141 458.749 140.975 458.681 140.924C458.63 140.856 458.605 140.779 458.605 140.694V123.462C458.605 123.377 458.63 123.309 458.681 123.258C458.749 123.191 458.826 123.157 458.911 123.157H466.201C467.289 123.157 468.24 123.377 469.056 123.819C469.889 124.261 470.526 124.89 470.968 125.706C471.427 126.521 471.656 127.464 471.656 128.535C471.656 129.691 471.367 130.685 470.789 131.517C470.212 132.333 469.404 132.911 468.368 133.251C468.283 133.285 468.257 133.344 468.291 133.429L471.758 140.643C471.792 140.711 471.809 140.762 471.809 140.796C471.809 140.932 471.716 141 471.529 141H468.393ZM462.326 126.241C462.241 126.241 462.199 126.283 462.199 126.368V130.727C462.199 130.812 462.241 130.855 462.326 130.855H465.666C466.379 130.855 466.957 130.642 467.399 130.217C467.858 129.793 468.087 129.24 468.087 128.561C468.087 127.881 467.858 127.329 467.399 126.904C466.957 126.462 466.379 126.241 465.666 126.241H462.326ZM488.283 123.36C488.367 123.225 488.486 123.157 488.639 123.157H491.622C491.707 123.157 491.775 123.191 491.826 123.258C491.894 123.309 491.928 123.377 491.928 123.462V140.694C491.928 140.779 491.894 140.856 491.826 140.924C491.775 140.975 491.707 141 491.622 141H488.639C488.554 141 488.478 140.975 488.41 140.924C488.359 140.856 488.333 140.779 488.333 140.694V129.453C488.333 129.385 488.316 129.351 488.283 129.351C488.249 129.351 488.215 129.376 488.181 129.427L485.479 133.659C485.394 133.795 485.275 133.863 485.122 133.863H483.618C483.465 133.863 483.346 133.795 483.261 133.659L480.559 129.427C480.525 129.376 480.491 129.359 480.457 129.376C480.423 129.376 480.406 129.41 480.406 129.478V140.694C480.406 140.779 480.372 140.856 480.304 140.924C480.253 140.975 480.185 141 480.1 141H477.118C477.033 141 476.956 140.975 476.888 140.924C476.837 140.856 476.812 140.779 476.812 140.694V123.462C476.812 123.377 476.837 123.309 476.888 123.258C476.956 123.191 477.033 123.157 477.118 123.157H480.1C480.253 123.157 480.372 123.225 480.457 123.36L484.28 129.3C484.331 129.402 484.382 129.402 484.433 129.3L488.283 123.36Z"></path>
</g>
<defs>
<filter color-interpolation-filters="sRGB" filterUnits="userSpaceOnUse" height="186.689" width="490.044" y="175.156" x="23.017" id="filter0_ddddd_10218_190661">
<feFlood result="BackgroundImageFix" flood-opacity="0"></feFlood>
<feColorMatrix result="hardAlpha" values="0 0 0 0 0 0 0 0 0 0 0 0 0 0 0 0 0 0 127 0" type="matrix" in="SourceAlpha"></feColorMatrix>
<feOffset dy="1.125"></feOffset>
<feGaussianBlur stdDeviation="0.450001"></feGaussianBlur>
<feColorMatrix values="0 0 0 0 0 0 0 0 0 0 0 0 0 0 0 0 0 0 0.129327 0" type="matrix"></feColorMatrix>
<feBlend result="effect1_dropShadow_10218_190661" in2="BackgroundImageFix" mode="normal"></feBlend>
<feColorMatrix result="hardAlpha" values="0 0 0 0 0 0 0 0 0 0 0 0 0 0 0 0 0 0 127 0" type="matrix" in="SourceAlpha"></feColorMatrix>
<feOffset dy="2.70354"></feOffset>
<feGaussianBlur stdDeviation="1.08141"></feGaussianBlur>
<feColorMatrix values="0 0 0 0 0 0 0 0 0 0 0 0 0 0 0 0 0 0 0.185791 0" type="matrix"></feColorMatrix>
<feBlend result="effect2_dropShadow_10218_190661" in2="effect1_dropShadow_10218_190661" mode="normal"></feBlend>
<feColorMatrix result="hardAlpha" values="0 0 0 0 0 0 0 0 0 0 0 0 0 0 0 0 0 0 127 0" type="matrix" in="SourceAlpha"></feColorMatrix>
<feOffset dy="5.09052"></feOffset>
<feGaussianBlur stdDeviation="2.03621"></feGaussianBlur>
<feColorMatrix values="0 0 0 0 0 0 0 0 0 0 0 0 0 0 0 0 0 0 0.23 0" type="matrix"></feColorMatrix>
<feBlend result="effect3_dropShadow_10218_190661" in2="effect2_dropShadow_10218_190661" mode="normal"></feBlend>
<feColorMatrix result="hardAlpha" values="0 0 0 0 0 0 0 0 0 0 0 0 0 0 0 0 0 0 127 0" type="matrix" in="SourceAlpha"></feColorMatrix>
<feOffset dy="9.08062"></feOffset>
<feGaussianBlur stdDeviation="3.63225"></feGaussianBlur>
<feColorMatrix values="0 0 0 0 0 0 0 0 0 0 0 0 0 0 0 0 0 0 0.274209 0" type="matrix"></feColorMatrix>
<feBlend result="effect4_dropShadow_10218_190661" in2="effect3_dropShadow_10218_190661" mode="normal"></feBlend>
<feColorMatrix result="hardAlpha" values="0 0 0 0 0 0 0 0 0 0 0 0 0 0 0 0 0 0 127 0" type="matrix" in="SourceAlpha"></feColorMatrix>
<feOffset dy="16.9843"></feOffset>
<feGaussianBlur stdDeviation="6.79372"></feGaussianBlur>
<feColorMatrix values="0 0 0 0 0 0 0 0 0 0 0 0 0 0 0 0 0 0 0.330673 0" type="matrix"></feColorMatrix>
<feBlend result="effect5_dropShadow_10218_190661" in2="effect4_dropShadow_10218_190661" mode="normal"></feBlend>
<feBlend result="shape" in2="effect5_dropShadow_10218_190661" in="SourceGraphic" mode="normal"></feBlend>
</filter>
<filter color-interpolation-filters="sRGB" filterUnits="userSpaceOnUse" height="313.734" width="313.732" y="34.673" x="513.26" id="filter1_ddddd_10218_190661">
<feFlood result="BackgroundImageFix" flood-opacity="0"></feFlood>
<feColorMatrix result="hardAlpha" values="0 0 0 0 0 0 0 0 0 0 0 0 0 0 0 0 0 0 127 0" type="matrix" in="SourceAlpha"></feColorMatrix>
<feOffset dy="-0.0203675"></feOffset>
<feGaussianBlur stdDeviation="0.407351"></feGaussianBlur>
<feColorMatrix values="0 0 0 0 0 0 0 0 0 0 0 0 0 0 0 0 0 0 0.0589035 0" type="matrix"></feColorMatrix>
<feBlend result="effect1_dropShadow_10218_190661" in2="BackgroundImageFix" mode="normal"></feBlend>
<feColorMatrix result="hardAlpha" values="0 0 0 0 0 0 0 0 0 0 0 0 0 0 0 0 0 0 127 0" type="matrix" in="SourceAlpha"></feColorMatrix>
<feOffset dy="-0.051511"></feOffset>
<feGaussianBlur stdDeviation="1.03022"></feGaussianBlur>
<feColorMatrix values="0 0 0 0 0 0 0 0 0 0 0 0 0 0 0 0 0 0 0.0843048 0" type="matrix"></feColorMatrix>
<feBlend result="effect2_dropShadow_10218_190661" in2="effect1_dropShadow_10218_190661" mode="normal"></feBlend>
<feColorMatrix result="hardAlpha" values="0 0 0 0 0 0 0 0 0 0 0 0 0 0 0 0 0 0 127 0" type="matrix" in="SourceAlpha"></feColorMatrix>
<feOffset dy="-0.105078"></feOffset>
<feGaussianBlur stdDeviation="2.10155"></feGaussianBlur>
<feColorMatrix values="0 0 0 0 0 0 0 0 0 0 0 0 0 0 0 0 0 0 0.105695 0" type="matrix"></feColorMatrix>
<feBlend result="effect3_dropShadow_10218_190661" in2="effect2_dropShadow_10218_190661" mode="normal"></feBlend>
<feColorMatrix result="hardAlpha" values="0 0 0 0 0 0 0 0 0 0 0 0 0 0 0 0 0 0 127 0" type="matrix" in="SourceAlpha"></feColorMatrix>
<feOffset dy="-0.21644"></feOffset>
<feGaussianBlur stdDeviation="4.3288"></feGaussianBlur>
<feColorMatrix values="0 0 0 0 0 0 0 0 0 0 0 0 0 0 0 0 0 0 0.131096 0" type="matrix"></feColorMatrix>
<feBlend result="effect4_dropShadow_10218_190661" in2="effect3_dropShadow_10218_190661" mode="normal"></feBlend>
<feColorMatrix result="hardAlpha" values="0 0 0 0 0 0 0 0 0 0 0 0 0 0 0 0 0 0 127 0" type="matrix" in="SourceAlpha"></feColorMatrix>
<feOffset dy="-0.59296"></feOffset>
<feGaussianBlur stdDeviation="11.8592"></feGaussianBlur>
<feColorMatrix values="0 0 0 0 0 0 0 0 0 0 0 0 0 0 0 0 0 0 0.19 0" type="matrix"></feColorMatrix>
<feBlend result="effect5_dropShadow_10218_190661" in2="effect4_dropShadow_10218_190661" mode="normal"></feBlend>
<feBlend result="shape" in2="effect5_dropShadow_10218_190661" in="SourceGraphic" mode="normal"></feBlend>
</filter>
<linearGradient gradientUnits="userSpaceOnUse" y2="474" x2="422" y1="0" x1="422" id="paint0_linear_10218_190661">
<stop stop-color="#090A15"></stop>
<stop stop-color="#0D0F3A" offset="0.955752"></stop>
</linearGradient>
<radialGradient gradientTransform="translate(422 355.876) rotate(90) scale(529.676 495.147)" gradientUnits="userSpaceOnUse" r="1" cy="0" cx="0" id="paint1_radial_10218_190661">
<stop stop-opacity="0.11" stop-color="#5A67D8"></stop>
<stop stop-opacity="0" stop-color="#5A67D8" offset="1"></stop>
</radialGradient>
<radialGradient gradientTransform="translate(640.5 386) rotate(119.477) scale(444.034 361.989)" gradientUnits="userSpaceOnUse" r="1" cy="0" cx="0" id="paint2_radial_10218_190661">
<stop stop-color="#5A67D8"></stop>
<stop stop-opacity="0" stop-color="#5A67D8" offset="1"></stop>
</radialGradient>
<radialGradient gradientTransform="translate(670.5 134) rotate(90) scale(178.5 165.699)" gradientUnits="userSpaceOnUse" r="1" cy="0" cx="0" id="paint3_radial_10218_190661">
<stop stop-color="#C3DAFE"></stop>
<stop stop-opacity="0" stop-color="#C3DAFE" offset="1"></stop>
</radialGradient>
<linearGradient gradientUnits="userSpaceOnUse" y2="262.271" x2="583.5" y1="12.8387" x1="583.5" id="paint4_linear_10218_190661">
<stop stop-opacity="0" stop-color="#C3DAFE"></stop>
<stop stop-color="#C3DAFE" offset="1"></stop>
</linearGradient>
<linearGradient gradientUnits="userSpaceOnUse" y2="262.271" x2="720.5" y1="12.8387" x1="720.5" id="paint5_linear_10218_190661">
<stop stop-opacity="0" stop-color="#C3DAFE"></stop>
<stop stop-color="#C3DAFE" offset="1"></stop>
</linearGradient>
<linearGradient gradientUnits="userSpaceOnUse" y2="262.271" x2="609.5" y1="12.8387" x1="609.5" id="paint6_linear_10218_190661">
<stop stop-opacity="0" stop-color="#C3DAFE"></stop>
<stop stop-color="#C3DAFE" offset="1"></stop>
</linearGradient>
<linearGradient gradientUnits="userSpaceOnUse" y2="315.611" x2="762.5" y1="26.0161" x1="762.5" id="paint7_linear_10218_190661">
<stop stop-opacity="0" stop-color="#C3DAFE"></stop>
<stop stop-color="#C3DAFE" offset="1"></stop>
</linearGradient>
<clipPath id="clip0_10218_190661">
<rect fill="white" height="474" width="844"></rect>
</clipPath>
<clipPath id="clip1_10218_190661">
<rect transform="translate(554.226 279.656)" fill="white" height="138.589" width="187.833"></rect>
</clipPath>
<clipPath id="clip2_10218_190661">
<rect transform="translate(536.978 168.266) rotate(-34.8371)" fill="white" height="191.301" width="191.301"></rect>
</clipPath>
</defs>
</svg>
