<svg xmlns="http://www.w3.org/2000/svg" fill="none" viewBox="0 0 844 474" height="474" width="844">
<g clip-path="url(#clip0_7082_4538)">
<rect fill="#EBF4FF" height="474" width="844"></rect>
<g filter="url(#filter0_f_7082_4538)">
<ellipse fill="#7F9CF5" transform="rotate(-100.709 476.67 535.066)" ry="242.439" rx="126.214" cy="535.066" cx="476.67"></ellipse>
</g>
<g filter="url(#filter1_f_7082_4538)">
<ellipse fill-opacity="0.5" fill="#68D391" ry="133.5" rx="69.5" cy="258.5" cx="-6.5"></ellipse>
</g>
<path stroke-width="1.64829" stroke="#4C51BF" d="M139.497 81.6304H383.443C389.133 81.6304 393.745 86.2427 393.745 91.9322V130.667C393.745 136.356 389.133 140.969 383.443 140.969H139.497V81.6304Z"></path>
<path fill="#4C4DBF" d="M169.318 121.459C168.07 121.459 166.961 121.217 165.99 120.731C165.037 120.229 164.292 119.527 163.754 118.626C163.234 117.707 162.974 116.659 162.974 115.48V108.747C162.974 107.568 163.234 106.537 163.754 105.653C164.292 104.752 165.037 104.059 165.99 103.573C166.961 103.071 168.07 102.82 169.318 102.82C170.566 102.82 171.666 103.062 172.619 103.547C173.573 104.015 174.309 104.683 174.829 105.549C175.366 106.416 175.635 107.421 175.635 108.565V108.591C175.635 108.678 175.609 108.747 175.557 108.799C175.505 108.851 175.444 108.877 175.375 108.877L173.399 108.981C173.226 108.981 173.139 108.903 173.139 108.747V108.669C173.139 107.56 172.793 106.667 172.099 105.991C171.406 105.315 170.479 104.977 169.318 104.977C168.157 104.977 167.221 105.315 166.51 105.991C165.817 106.667 165.47 107.56 165.47 108.669V115.584C165.47 116.693 165.817 117.586 166.51 118.262C167.221 118.938 168.157 119.276 169.318 119.276C170.479 119.276 171.406 118.938 172.099 118.262C172.793 117.586 173.139 116.693 173.139 115.584V115.532C173.139 115.376 173.226 115.298 173.399 115.298L175.375 115.402C175.548 115.402 175.635 115.489 175.635 115.662C175.635 116.806 175.366 117.82 174.829 118.704C174.309 119.57 173.573 120.246 172.619 120.731C171.666 121.217 170.566 121.459 169.318 121.459ZM185.187 121.459C183.922 121.459 182.804 121.199 181.833 120.679C180.863 120.159 180.109 119.432 179.571 118.496C179.034 117.542 178.766 116.451 178.766 115.22V109.033C178.766 107.802 179.034 106.719 179.571 105.783C180.109 104.847 180.863 104.119 181.833 103.599C182.804 103.08 183.922 102.82 185.187 102.82C186.469 102.82 187.596 103.08 188.566 103.599C189.537 104.119 190.291 104.847 190.828 105.783C191.365 106.719 191.634 107.802 191.634 109.033V115.22C191.634 116.451 191.365 117.542 190.828 118.496C190.291 119.432 189.537 120.159 188.566 120.679C187.596 121.199 186.469 121.459 185.187 121.459ZM185.187 119.302C186.365 119.302 187.319 118.938 188.046 118.21C188.774 117.482 189.138 116.52 189.138 115.324V109.007C189.138 107.794 188.774 106.823 188.046 106.095C187.319 105.35 186.365 104.977 185.187 104.977C184.008 104.977 183.055 105.35 182.327 106.095C181.617 106.823 181.261 107.794 181.261 109.007V115.324C181.261 116.52 181.617 117.482 182.327 118.21C183.055 118.938 184.008 119.302 185.187 119.302ZM201.645 121.433C200.379 121.433 199.262 121.191 198.291 120.705C197.338 120.203 196.593 119.501 196.055 118.6C195.518 117.681 195.249 116.633 195.249 115.454V103.288C195.249 103.114 195.336 103.028 195.509 103.028H197.485C197.658 103.028 197.745 103.114 197.745 103.288V115.506C197.745 116.633 198.1 117.542 198.811 118.236C199.539 118.929 200.483 119.276 201.645 119.276C202.806 119.276 203.742 118.929 204.452 118.236C205.163 117.542 205.518 116.633 205.518 115.506V103.288C205.518 103.114 205.605 103.028 205.778 103.028H207.754C207.927 103.028 208.014 103.114 208.014 103.288V115.454C208.014 116.633 207.745 117.681 207.208 118.6C206.688 119.501 205.943 120.203 204.972 120.705C204.019 121.191 202.91 121.433 201.645 121.433ZM222.458 121.225C222.32 121.225 222.224 121.165 222.172 121.043L218.533 113.27C218.515 113.218 218.481 113.192 218.429 113.192H214.685C214.616 113.192 214.581 113.227 214.581 113.296V120.965C214.581 121.139 214.495 121.225 214.321 121.225H212.346C212.172 121.225 212.086 121.139 212.086 120.965V103.288C212.086 103.114 212.172 103.028 212.346 103.028H219.339C220.379 103.028 221.288 103.244 222.068 103.677C222.866 104.111 223.481 104.717 223.914 105.497C224.347 106.277 224.564 107.178 224.564 108.201C224.564 109.414 224.243 110.445 223.602 111.295C222.978 112.126 222.103 112.69 220.977 112.984C220.907 113.019 220.89 113.062 220.925 113.114L224.694 120.913C224.711 120.948 224.72 120.991 224.72 121.043C224.72 121.165 224.651 121.225 224.512 121.225H222.458ZM214.685 105.185C214.616 105.185 214.581 105.22 214.581 105.289V111.113C214.581 111.182 214.616 111.217 214.685 111.217H219.027C219.945 111.217 220.682 110.948 221.236 110.411C221.791 109.856 222.068 109.128 222.068 108.227C222.068 107.308 221.791 106.572 221.236 106.017C220.682 105.463 219.945 105.185 219.027 105.185H214.685ZM233.644 121.433C232.31 121.433 231.149 121.225 230.161 120.809C229.19 120.393 228.436 119.804 227.899 119.042C227.379 118.279 227.119 117.386 227.119 116.364V115.61C227.119 115.437 227.206 115.35 227.379 115.35H229.277C229.45 115.35 229.537 115.437 229.537 115.61V116.234C229.537 117.118 229.918 117.846 230.681 118.418C231.443 118.99 232.492 119.276 233.826 119.276C235.022 119.276 235.923 119.024 236.53 118.522C237.137 118.019 237.44 117.36 237.44 116.546C237.44 116.009 237.284 115.549 236.972 115.168C236.66 114.787 236.201 114.44 235.594 114.128C235.005 113.799 234.138 113.409 232.994 112.958C231.729 112.473 230.724 112.031 229.979 111.632C229.251 111.234 228.644 110.714 228.159 110.073C227.674 109.414 227.431 108.591 227.431 107.603C227.431 106.112 227.96 104.943 229.017 104.093C230.091 103.244 231.539 102.82 233.358 102.82C234.641 102.82 235.767 103.036 236.738 103.469C237.708 103.903 238.454 104.509 238.974 105.289C239.511 106.069 239.78 106.97 239.78 107.993V108.513C239.78 108.686 239.693 108.773 239.52 108.773H237.57C237.397 108.773 237.31 108.686 237.31 108.513V108.123C237.31 107.222 236.946 106.476 236.218 105.887C235.507 105.281 234.52 104.977 233.254 104.977C232.18 104.977 231.348 105.203 230.759 105.653C230.169 106.087 229.875 106.719 229.875 107.551C229.875 108.123 230.022 108.591 230.317 108.955C230.611 109.319 231.045 109.648 231.617 109.943C232.206 110.22 233.098 110.584 234.294 111.035C235.525 111.52 236.521 111.97 237.284 112.386C238.046 112.785 238.679 113.322 239.182 113.998C239.684 114.657 239.936 115.48 239.936 116.468C239.936 117.993 239.372 119.206 238.246 120.107C237.137 120.991 235.603 121.433 233.644 121.433ZM255.401 104.925C255.401 105.099 255.314 105.185 255.141 105.185H245.912C245.843 105.185 245.808 105.22 245.808 105.289V110.879C245.808 110.948 245.843 110.983 245.912 110.983H252.255C252.429 110.983 252.515 111.069 252.515 111.243V112.88C252.515 113.054 252.429 113.14 252.255 113.14H245.912C245.843 113.14 245.808 113.175 245.808 113.244V118.964C245.808 119.033 245.843 119.068 245.912 119.068H255.141C255.314 119.068 255.401 119.154 255.401 119.328V120.965C255.401 121.139 255.314 121.225 255.141 121.225H243.572C243.399 121.225 243.312 121.139 243.312 120.965V103.288C243.312 103.114 243.399 103.028 243.572 103.028H255.141C255.314 103.028 255.401 103.114 255.401 103.288V104.925ZM276.382 103.002C277.439 103.002 278.366 103.227 279.163 103.677C279.978 104.111 280.602 104.726 281.035 105.523C281.486 106.32 281.711 107.239 281.711 108.279C281.711 109.319 281.486 110.229 281.035 111.009C280.584 111.788 279.943 112.395 279.111 112.828C278.297 113.262 277.352 113.478 276.278 113.478H271.702C271.633 113.478 271.598 113.513 271.598 113.582V120.965C271.598 121.139 271.511 121.225 271.338 121.225H269.362C269.189 121.225 269.102 121.139 269.102 120.965V103.262C269.102 103.088 269.189 103.002 269.362 103.002H276.382ZM276.044 111.451C276.997 111.451 277.759 111.165 278.331 110.593C278.921 110.021 279.215 109.267 279.215 108.331C279.215 107.378 278.921 106.615 278.331 106.043C277.759 105.454 276.997 105.159 276.044 105.159H271.702C271.633 105.159 271.598 105.194 271.598 105.263V111.347C271.598 111.416 271.633 111.451 271.702 111.451H276.044ZM294.803 121.225C294.647 121.225 294.543 121.156 294.491 121.017L293.555 117.976C293.538 117.924 293.503 117.898 293.451 117.898H286.146C286.094 117.898 286.06 117.924 286.042 117.976L285.107 121.017C285.055 121.156 284.951 121.225 284.795 121.225H282.689C282.498 121.225 282.429 121.13 282.481 120.939L288.174 103.236C288.226 103.097 288.33 103.028 288.486 103.028H291.086C291.242 103.028 291.346 103.097 291.398 103.236L297.143 120.939L297.169 121.043C297.169 121.165 297.091 121.225 296.935 121.225H294.803ZM286.692 115.792C286.675 115.827 286.675 115.861 286.692 115.896C286.727 115.913 286.762 115.922 286.796 115.922H292.776C292.81 115.922 292.836 115.913 292.854 115.896C292.888 115.861 292.897 115.827 292.88 115.792L289.864 106.147C289.847 106.112 289.821 106.095 289.786 106.095C289.751 106.095 289.725 106.112 289.708 106.147L286.692 115.792ZM310.502 121.225C310.364 121.225 310.268 121.165 310.216 121.043L306.577 113.27C306.56 113.218 306.525 113.192 306.473 113.192H302.729C302.66 113.192 302.625 113.227 302.625 113.296V120.965C302.625 121.139 302.539 121.225 302.365 121.225H300.39C300.216 121.225 300.13 121.139 300.13 120.965V103.288C300.13 103.114 300.216 103.028 300.39 103.028H307.383C308.423 103.028 309.333 103.244 310.112 103.677C310.91 104.111 311.525 104.717 311.958 105.497C312.391 106.277 312.608 107.178 312.608 108.201C312.608 109.414 312.288 110.445 311.646 111.295C311.022 112.126 310.147 112.69 309.021 112.984C308.951 113.019 308.934 113.062 308.969 113.114L312.738 120.913C312.755 120.948 312.764 120.991 312.764 121.043C312.764 121.165 312.695 121.225 312.556 121.225H310.502ZM302.729 105.185C302.66 105.185 302.625 105.22 302.625 105.289V111.113C302.625 111.182 302.66 111.217 302.729 111.217H307.071C307.989 111.217 308.726 110.948 309.281 110.411C309.835 109.856 310.112 109.128 310.112 108.227C310.112 107.308 309.835 106.572 309.281 106.017C308.726 105.463 307.989 105.185 307.071 105.185H302.729ZM327.616 103.028C327.79 103.028 327.876 103.114 327.876 103.288V104.951C327.876 105.125 327.79 105.211 327.616 105.211H322.625C322.556 105.211 322.521 105.246 322.521 105.315V120.965C322.521 121.139 322.434 121.225 322.261 121.225H320.285C320.112 121.225 320.025 121.139 320.025 120.965V105.315C320.025 105.246 319.99 105.211 319.921 105.211H315.164C314.99 105.211 314.904 105.125 314.904 104.951V103.288C314.904 103.114 314.99 103.028 315.164 103.028H327.616ZM347.151 114.102C347.324 114.102 347.411 114.189 347.411 114.362V116.078C347.411 116.251 347.324 116.338 347.151 116.338H346.033C345.963 116.338 345.929 116.373 345.929 116.442V120.965C345.929 121.139 345.842 121.225 345.669 121.225H343.693C343.52 121.225 343.433 121.139 343.433 120.965V116.442C343.433 116.373 343.398 116.338 343.329 116.338H335.426C335.253 116.338 335.166 116.251 335.166 116.078V114.674C335.166 114.587 335.192 114.483 335.244 114.362L340.365 103.21C340.417 103.088 340.513 103.028 340.651 103.028H342.731C342.818 103.028 342.879 103.062 342.913 103.132C342.965 103.184 342.974 103.253 342.939 103.34L338.052 113.972C338.034 114.007 338.034 114.042 338.052 114.076C338.069 114.094 338.095 114.102 338.13 114.102H343.329C343.398 114.102 343.433 114.068 343.433 113.998V110.125C343.433 109.951 343.52 109.865 343.693 109.865H345.669C345.842 109.865 345.929 109.951 345.929 110.125V113.998C345.929 114.068 345.963 114.102 346.033 114.102H347.151ZM349.836 121.225C349.646 121.225 349.576 121.13 349.628 120.939L355.738 103.236C355.79 103.097 355.894 103.028 356.05 103.028H357.999C358.19 103.028 358.259 103.123 358.207 103.314L352.098 121.017C352.046 121.156 351.942 121.225 351.786 121.225H349.836ZM372.11 113.166C372.301 113.929 372.396 114.717 372.396 115.532C372.396 116.347 372.292 117.101 372.084 117.794C371.755 118.903 371.122 119.787 370.186 120.445C369.268 121.087 368.167 121.407 366.885 121.407C365.62 121.407 364.536 121.095 363.635 120.471C362.734 119.848 362.101 118.998 361.737 117.924C361.564 117.438 361.469 117.014 361.451 116.65V116.598C361.451 116.459 361.529 116.39 361.685 116.39H363.739C363.895 116.39 363.982 116.468 363.999 116.624C364.016 116.745 364.06 116.927 364.129 117.17C364.32 117.811 364.649 118.322 365.117 118.704C365.602 119.068 366.183 119.25 366.859 119.25C367.569 119.25 368.167 119.059 368.652 118.678C369.155 118.279 369.493 117.733 369.666 117.04C369.788 116.676 369.848 116.173 369.848 115.532C369.848 114.96 369.796 114.431 369.692 113.946C369.571 113.288 369.259 112.785 368.756 112.438C368.271 112.074 367.665 111.892 366.937 111.892C366.261 111.892 365.654 112.048 365.117 112.36C364.58 112.655 364.233 113.054 364.077 113.556C364.025 113.712 363.93 113.79 363.791 113.79H361.711C361.538 113.79 361.451 113.704 361.451 113.53V103.288C361.451 103.114 361.538 103.028 361.711 103.028H371.434C371.607 103.028 371.694 103.114 371.694 103.288V104.925C371.694 105.099 371.607 105.185 371.434 105.185H364.051C363.982 105.185 363.947 105.22 363.947 105.289L363.921 110.723C363.921 110.827 363.964 110.853 364.051 110.801C364.467 110.437 364.944 110.168 365.481 109.995C366.035 109.804 366.616 109.709 367.223 109.709C368.436 109.709 369.476 110.012 370.342 110.619C371.226 111.225 371.815 112.074 372.11 113.166Z"></path>
<path fill="#4C51BF" d="M81.807 91.9322C81.807 85.7875 86.7883 80.8063 92.9329 80.8063H142.794V141.793H92.9329C86.7883 141.793 81.807 136.812 81.807 130.667V91.9322Z"></path>
<path fill="white" d="M97.3389 116.824C96.9518 117.454 96.9578 118.249 97.3544 118.874L104.531 130.174C104.997 130.907 105.895 131.242 106.728 130.992L127.439 124.791C128.569 124.452 129.138 123.194 128.644 122.124L115.33 93.2968C114.681 91.891 112.723 91.7756 111.913 93.0954L97.3389 116.824ZM114.976 99.887C114.693 99.2335 113.735 99.3341 113.594 100.032L108.469 125.507C108.361 126.044 108.864 126.503 109.39 126.346L123.7 122.083C124.118 121.958 124.333 121.498 124.16 121.098L114.976 99.887Z" clip-rule="evenodd" fill-rule="evenodd"></path>
<path fill="#4C51BF" d="M93.8356 258.873C93.0335 258.873 92.301 258.678 91.6381 258.286C90.9753 257.889 90.445 257.358 90.0472 256.696C89.6561 256.033 89.4606 255.3 89.4606 254.498C89.4606 253.689 89.6561 252.957 90.0472 252.301C90.445 251.638 90.9753 251.111 91.6381 250.72C92.301 250.322 93.0335 250.123 93.8356 250.123C94.6443 250.123 95.3768 250.322 96.033 250.72C96.6959 251.111 97.2229 251.638 97.614 252.301C98.0117 252.957 98.2106 253.689 98.2106 254.498C98.2106 255.3 98.0117 256.033 97.614 256.696C97.2229 257.358 96.6959 257.889 96.033 258.286C95.3768 258.678 94.6443 258.873 93.8356 258.873ZM120.138 242.248V262.612H117.065V242.248H120.138ZM124.374 262.612V247.339H127.227V249.825H127.416C127.734 248.983 128.255 248.327 128.977 247.856C129.7 247.379 130.565 247.14 131.572 247.14C132.593 247.14 133.448 247.379 134.138 247.856C134.834 248.333 135.348 248.99 135.679 249.825H135.838C136.203 249.009 136.783 248.36 137.578 247.876C138.374 247.385 139.321 247.14 140.422 247.14C141.807 247.14 142.938 247.574 143.812 248.443C144.694 249.311 145.135 250.62 145.135 252.37V262.612H142.162V252.649C142.162 251.615 141.88 250.865 141.317 250.401C140.753 249.937 140.08 249.705 139.298 249.705C138.33 249.705 137.578 250.004 137.041 250.6C136.504 251.19 136.236 251.949 136.236 252.877V262.612H133.273V252.46C133.273 251.631 133.014 250.965 132.497 250.461C131.98 249.957 131.307 249.705 130.479 249.705C129.915 249.705 129.395 249.855 128.918 250.153C128.447 250.445 128.066 250.852 127.774 251.376C127.489 251.9 127.347 252.506 127.347 253.196V262.612H124.374ZM153.564 262.95C152.596 262.95 151.721 262.771 150.939 262.413C150.157 262.048 149.537 261.521 149.08 260.832C148.629 260.142 148.404 259.297 148.404 258.296C148.404 257.435 148.569 256.725 148.901 256.169C149.232 255.612 149.68 255.171 150.243 254.846C150.807 254.521 151.436 254.276 152.132 254.11C152.828 253.945 153.538 253.819 154.26 253.732C155.175 253.626 155.917 253.54 156.488 253.474C157.058 253.401 157.472 253.285 157.73 253.126C157.989 252.967 158.118 252.708 158.118 252.35V252.281C158.118 251.412 157.873 250.74 157.382 250.262C156.899 249.785 156.176 249.546 155.215 249.546C154.214 249.546 153.425 249.768 152.848 250.213C152.278 250.65 151.884 251.137 151.665 251.674L148.871 251.038C149.203 250.11 149.686 249.361 150.323 248.791C150.966 248.214 151.705 247.796 152.54 247.538C153.375 247.273 154.254 247.14 155.175 247.14C155.785 247.14 156.431 247.213 157.114 247.359C157.803 247.498 158.446 247.757 159.043 248.134C159.646 248.512 160.14 249.053 160.525 249.755C160.909 250.451 161.101 251.356 161.101 252.47V262.612H158.198V260.524H158.078C157.886 260.908 157.598 261.286 157.213 261.657C156.829 262.028 156.335 262.337 155.732 262.582C155.129 262.827 154.406 262.95 153.564 262.95ZM154.211 260.563C155.033 260.563 155.735 260.401 156.319 260.076C156.908 259.751 157.356 259.327 157.661 258.803C157.972 258.273 158.128 257.706 158.128 257.103V255.134C158.022 255.24 157.817 255.34 157.512 255.433C157.213 255.519 156.872 255.595 156.488 255.661C156.103 255.721 155.729 255.777 155.364 255.83C154.999 255.877 154.694 255.917 154.449 255.95C153.873 256.023 153.346 256.145 152.868 256.318C152.398 256.49 152.02 256.739 151.735 257.063C151.456 257.382 151.317 257.806 151.317 258.336C151.317 259.072 151.589 259.629 152.132 260.007C152.676 260.378 153.369 260.563 154.211 260.563ZM171.464 268.657C170.251 268.657 169.207 268.498 168.332 268.18C167.464 267.862 166.755 267.441 166.205 266.917C165.654 266.393 165.243 265.82 164.972 265.197L167.527 264.143C167.706 264.435 167.945 264.743 168.243 265.068C168.548 265.399 168.959 265.681 169.476 265.913C170 266.145 170.672 266.261 171.494 266.261C172.621 266.261 173.553 265.986 174.288 265.436C175.024 264.892 175.392 264.024 175.392 262.83V259.828H175.203C175.024 260.152 174.766 260.514 174.428 260.911C174.096 261.309 173.639 261.654 173.055 261.946C172.472 262.237 171.713 262.383 170.778 262.383C169.572 262.383 168.485 262.101 167.517 261.538C166.556 260.968 165.794 260.129 165.23 259.022C164.673 257.909 164.395 256.54 164.395 254.916C164.395 253.292 164.67 251.9 165.22 250.74C165.777 249.579 166.539 248.691 167.507 248.075C168.475 247.452 169.572 247.14 170.798 247.14C171.746 247.14 172.512 247.299 173.095 247.617C173.679 247.929 174.133 248.294 174.457 248.711C174.789 249.129 175.044 249.497 175.223 249.815H175.442V247.339H178.355V262.95C178.355 264.262 178.05 265.339 177.44 266.181C176.83 267.023 176.005 267.646 174.964 268.051C173.93 268.455 172.764 268.657 171.464 268.657ZM171.435 259.917C172.29 259.917 173.012 259.718 173.602 259.321C174.199 258.916 174.65 258.339 174.955 257.59C175.266 256.835 175.422 255.93 175.422 254.876C175.422 253.848 175.269 252.944 174.964 252.161C174.66 251.379 174.212 250.769 173.622 250.332C173.032 249.888 172.303 249.666 171.435 249.666C170.54 249.666 169.794 249.898 169.197 250.362C168.601 250.819 168.15 251.442 167.845 252.231C167.547 253.02 167.398 253.901 167.398 254.876C167.398 255.877 167.55 256.755 167.855 257.511C168.16 258.267 168.611 258.856 169.207 259.281C169.811 259.705 170.553 259.917 171.435 259.917ZM188.925 262.92C187.42 262.92 186.124 262.598 185.037 261.955C183.956 261.306 183.121 260.394 182.531 259.221C181.948 258.041 181.656 256.659 181.656 255.075C181.656 253.51 181.948 252.132 182.531 250.938C183.121 249.745 183.943 248.814 184.997 248.144C186.058 247.475 187.297 247.14 188.716 247.14C189.578 247.14 190.413 247.283 191.222 247.568C192.03 247.853 192.756 248.3 193.399 248.91C194.042 249.52 194.549 250.312 194.92 251.286C195.292 252.254 195.477 253.431 195.477 254.816V255.87H183.337V253.643H192.564C192.564 252.861 192.405 252.168 192.087 251.565C191.768 250.955 191.321 250.474 190.744 250.123C190.174 249.772 189.505 249.596 188.736 249.596C187.901 249.596 187.171 249.802 186.548 250.213C185.932 250.617 185.455 251.147 185.116 251.803C184.785 252.453 184.619 253.159 184.619 253.921V255.661C184.619 256.682 184.798 257.551 185.156 258.267C185.521 258.982 186.028 259.529 186.678 259.907C187.327 260.278 188.086 260.464 188.955 260.464C189.518 260.464 190.032 260.384 190.496 260.225C190.96 260.06 191.361 259.814 191.699 259.49C192.037 259.165 192.295 258.764 192.474 258.286L195.288 258.794C195.063 259.622 194.659 260.348 194.075 260.971C193.499 261.588 192.773 262.068 191.898 262.413C191.029 262.751 190.038 262.92 188.925 262.92ZM219.52 242.248H222.602V255.642C222.602 257.067 222.268 258.329 221.598 259.43C220.929 260.524 219.987 261.385 218.774 262.015C217.561 262.638 216.139 262.95 214.509 262.95C212.884 262.95 211.466 262.638 210.253 262.015C209.04 261.385 208.098 260.524 207.429 259.43C206.759 258.329 206.425 257.067 206.425 255.642V242.248H209.497V255.393C209.497 256.314 209.699 257.133 210.104 257.849C210.515 258.565 211.095 259.128 211.844 259.539C212.593 259.944 213.481 260.146 214.509 260.146C215.543 260.146 216.434 259.944 217.183 259.539C217.939 259.128 218.516 258.565 218.913 257.849C219.318 257.133 219.52 256.314 219.52 255.393V242.248ZM226.831 268.339V247.339H229.734V249.815H229.983C230.155 249.497 230.404 249.129 230.728 248.711C231.053 248.294 231.504 247.929 232.081 247.617C232.657 247.299 233.42 247.14 234.368 247.14C235.6 247.14 236.701 247.452 237.669 248.075C238.636 248.698 239.395 249.596 239.946 250.769C240.502 251.943 240.781 253.355 240.781 255.005C240.781 256.656 240.506 258.071 239.956 259.251C239.405 260.424 238.65 261.329 237.689 261.965C236.727 262.595 235.63 262.91 234.397 262.91C233.469 262.91 232.71 262.754 232.12 262.443C231.537 262.131 231.08 261.767 230.748 261.349C230.417 260.931 230.162 260.56 229.983 260.235H229.804V268.339H226.831ZM229.744 254.975C229.744 256.049 229.9 256.99 230.211 257.799C230.523 258.608 230.974 259.241 231.564 259.698C232.154 260.149 232.876 260.374 233.731 260.374C234.619 260.374 235.362 260.139 235.958 259.669C236.555 259.191 237.006 258.545 237.311 257.73C237.622 256.914 237.778 255.996 237.778 254.975C237.778 253.968 237.626 253.063 237.321 252.261C237.022 251.459 236.572 250.826 235.968 250.362C235.372 249.898 234.626 249.666 233.731 249.666C232.869 249.666 232.14 249.888 231.544 250.332C230.954 250.776 230.506 251.396 230.201 252.191C229.896 252.987 229.744 253.915 229.744 254.975ZM247.085 242.248V262.612H244.112V242.248H247.085ZM257.518 262.92C256.086 262.92 254.836 262.592 253.769 261.936C252.702 261.279 251.873 260.361 251.283 259.181C250.693 258.001 250.398 256.623 250.398 255.045C250.398 253.461 250.693 252.075 251.283 250.889C251.873 249.702 252.702 248.781 253.769 248.124C254.836 247.468 256.086 247.14 257.518 247.14C258.95 247.14 260.199 247.468 261.266 248.124C262.334 248.781 263.162 249.702 263.752 250.889C264.342 252.075 264.637 253.461 264.637 255.045C264.637 256.623 264.342 258.001 263.752 259.181C263.162 260.361 262.334 261.279 261.266 261.936C260.199 262.592 258.95 262.92 257.518 262.92ZM257.528 260.424C258.456 260.424 259.225 260.179 259.835 259.688C260.444 259.198 260.895 258.545 261.187 257.73C261.485 256.914 261.634 256.016 261.634 255.035C261.634 254.061 261.485 253.166 261.187 252.35C260.895 251.528 260.444 250.869 259.835 250.372C259.225 249.874 258.456 249.626 257.528 249.626C256.593 249.626 255.817 249.874 255.201 250.372C254.591 250.869 254.137 251.528 253.839 252.35C253.547 253.166 253.401 254.061 253.401 255.035C253.401 256.016 253.547 256.914 253.839 257.73C254.137 258.545 254.591 259.198 255.201 259.688C255.817 260.179 256.593 260.424 257.528 260.424ZM272.4 262.95C271.432 262.95 270.557 262.771 269.775 262.413C268.993 262.048 268.373 261.521 267.916 260.832C267.465 260.142 267.24 259.297 267.24 258.296C267.24 257.435 267.405 256.725 267.737 256.169C268.068 255.612 268.516 255.171 269.079 254.846C269.643 254.521 270.272 254.276 270.968 254.11C271.664 253.945 272.374 253.819 273.096 253.732C274.011 253.626 274.753 253.54 275.324 253.474C275.894 253.401 276.308 253.285 276.566 253.126C276.825 252.967 276.954 252.708 276.954 252.35V252.281C276.954 251.412 276.709 250.74 276.218 250.262C275.734 249.785 275.012 249.546 274.051 249.546C273.05 249.546 272.261 249.768 271.684 250.213C271.114 250.65 270.72 251.137 270.501 251.674L267.707 251.038C268.038 250.11 268.522 249.361 269.159 248.791C269.802 248.214 270.541 247.796 271.376 247.538C272.211 247.273 273.09 247.14 274.011 247.14C274.621 247.14 275.267 247.213 275.95 247.359C276.639 247.498 277.282 247.757 277.879 248.134C278.482 248.512 278.976 249.053 279.36 249.755C279.745 250.451 279.937 251.356 279.937 252.47V262.612H277.034V260.524H276.914C276.722 260.908 276.434 261.286 276.049 261.657C275.665 262.028 275.171 262.337 274.568 262.582C273.965 262.827 273.242 262.95 272.4 262.95ZM273.047 260.563C273.868 260.563 274.571 260.401 275.154 260.076C275.744 259.751 276.192 259.327 276.497 258.803C276.808 258.273 276.964 257.706 276.964 257.103V255.134C276.858 255.24 276.653 255.34 276.348 255.433C276.049 255.519 275.708 255.595 275.324 255.661C274.939 255.721 274.565 255.777 274.2 255.83C273.835 255.877 273.53 255.917 273.285 255.95C272.708 256.023 272.181 256.145 271.704 256.318C271.234 256.49 270.856 256.739 270.571 257.063C270.292 257.382 270.153 257.806 270.153 258.336C270.153 259.072 270.425 259.629 270.968 260.007C271.512 260.378 272.205 260.563 273.047 260.563ZM289.614 262.91C288.381 262.91 287.281 262.595 286.313 261.965C285.352 261.329 284.596 260.424 284.046 259.251C283.503 258.071 283.231 256.656 283.231 255.005C283.231 253.355 283.506 251.943 284.056 250.769C284.613 249.596 285.375 248.698 286.343 248.075C287.311 247.452 288.408 247.14 289.634 247.14C290.582 247.14 291.344 247.299 291.921 247.617C292.504 247.929 292.955 248.294 293.273 248.711C293.598 249.129 293.85 249.497 294.029 249.815H294.208V242.248H297.181V262.612H294.278V260.235H294.029C293.85 260.56 293.592 260.931 293.254 261.349C292.922 261.767 292.465 262.131 291.881 262.443C291.298 262.754 290.542 262.91 289.614 262.91ZM290.271 260.374C291.126 260.374 291.848 260.149 292.438 259.698C293.035 259.241 293.486 258.608 293.79 257.799C294.102 256.99 294.258 256.049 294.258 254.975C294.258 253.915 294.105 252.987 293.8 252.191C293.496 251.396 293.048 250.776 292.458 250.332C291.868 249.888 291.139 249.666 290.271 249.666C289.376 249.666 288.63 249.898 288.033 250.362C287.437 250.826 286.986 251.459 286.681 252.261C286.383 253.063 286.234 253.968 286.234 254.975C286.234 255.996 286.386 256.914 286.691 257.73C286.996 258.545 287.447 259.191 288.043 259.669C288.647 260.139 289.389 260.374 290.271 260.374Z"></path>
<path fill="#4748A5" d="M228.864 394.513C228.533 395.052 228.538 395.733 228.877 396.267L235.016 405.933C235.415 406.56 236.183 406.846 236.895 406.633L254.611 401.328C255.578 401.038 256.064 399.962 255.642 399.047L244.253 374.388C243.698 373.186 242.024 373.087 241.33 374.216L228.864 394.513ZM243.951 380.026C243.709 379.467 242.889 379.553 242.769 380.15L238.384 401.941C238.292 402.4 238.723 402.793 239.173 402.658L251.413 399.011C251.77 398.905 251.954 398.511 251.806 398.17L243.951 380.026Z" clip-rule="evenodd" fill-rule="evenodd"></path>
<path fill="#4748A5" d="M266.409 390.009H267.487C268.496 390.009 269.25 389.81 269.751 389.412C270.251 389.014 270.502 388.435 270.502 387.675C270.502 386.909 270.292 386.342 269.872 385.976C269.453 385.61 268.795 385.427 267.9 385.427H266.409V390.009ZM273.813 387.565C273.813 389.226 273.293 390.496 272.252 391.376C271.213 392.256 269.734 392.696 267.816 392.696H266.409V398.186H263.13V382.751H268.069C269.945 382.751 271.371 383.154 272.348 383.959C273.325 384.765 273.813 385.967 273.813 387.565Z" clip-rule="evenodd" fill-rule="evenodd"></path>
<path fill="#4748A5" d="M282.508 386.149C282.945 386.149 283.308 386.18 283.597 386.244L283.354 389.263C283.093 389.193 282.776 389.158 282.402 389.158C281.373 389.158 280.571 389.422 279.996 389.949C279.421 390.477 279.134 391.217 279.134 392.167V398.174H275.908V386.371H278.351L278.827 388.355H278.986C279.352 387.694 279.848 387.161 280.472 386.756C281.096 386.351 281.774 386.149 282.508 386.149" clip-rule="evenodd" fill-rule="evenodd"></path>
<path fill="#4748A5" d="M285.295 398.197H288.522V386.394H285.295V398.197ZM285.16 383.338C285.16 382.289 285.746 381.765 286.916 381.765C288.086 381.765 288.672 382.289 288.672 383.338C288.672 383.838 288.525 384.227 288.233 384.505C287.94 384.783 287.501 384.921 286.916 384.921C285.746 384.921 285.16 384.394 285.16 383.338Z" clip-rule="evenodd" fill-rule="evenodd"></path>
<path fill="#4748A5" d="M299.895 394.669C299.895 395.879 299.473 396.801 298.631 397.435C297.788 398.068 296.527 398.385 294.849 398.385C293.989 398.385 293.256 398.327 292.649 398.211C292.043 398.095 291.475 397.924 290.946 397.699V395.038C291.546 395.32 292.221 395.556 292.972 395.746C293.723 395.935 294.384 396.03 294.955 396.03C296.126 396.03 296.711 395.693 296.711 395.017C296.711 394.764 296.633 394.558 296.478 394.399C296.323 394.241 296.055 394.062 295.674 393.861C295.294 393.66 294.786 393.426 294.151 393.159C293.242 392.779 292.573 392.427 292.147 392.103C291.72 391.779 291.41 391.408 291.216 390.989C291.022 390.57 290.925 390.055 290.925 389.442C290.925 388.394 291.332 387.583 292.147 387.009C292.961 386.435 294.116 386.149 295.611 386.149C297.035 386.149 298.421 386.459 299.768 387.078L298.795 389.4C298.202 389.147 297.649 388.94 297.134 388.777C296.619 388.616 296.094 388.535 295.558 388.535C294.606 388.535 294.13 388.792 294.13 389.305C294.13 389.594 294.284 389.844 294.59 390.055C294.897 390.266 295.569 390.579 296.605 390.995C297.529 391.368 298.206 391.716 298.636 392.04C299.066 392.364 299.383 392.736 299.588 393.159C299.793 393.581 299.895 394.084 299.895 394.669" clip-rule="evenodd" fill-rule="evenodd"></path>
<path fill="#4748A5" d="M312.67 398.174H309.444V391.28C309.444 390.428 309.301 389.789 309.016 389.364C308.73 388.938 308.281 388.725 307.667 388.725C306.842 388.725 306.243 389.027 305.869 389.633C305.495 390.238 305.308 391.234 305.308 392.621V398.174H302.082V386.371H304.547L304.98 387.88H305.16C305.478 387.338 305.936 386.914 306.535 386.608C307.135 386.302 307.822 386.149 308.598 386.149C310.368 386.149 311.567 386.726 312.194 387.88H312.48C312.797 387.331 313.264 386.906 313.881 386.603C314.498 386.3 315.195 386.149 315.97 386.149C317.31 386.149 318.324 386.492 319.011 387.178C319.699 387.864 320.042 388.964 320.042 390.477V398.174H316.806V391.28C316.806 390.428 316.663 389.789 316.378 389.364C316.092 388.938 315.642 388.725 315.029 388.725C314.239 388.725 313.649 389.007 313.257 389.57C312.866 390.133 312.67 391.026 312.67 392.251V398.174Z" clip-rule="evenodd" fill-rule="evenodd"></path>
<path fill="#4748A5" d="M329.431 392.709L328.183 392.751C327.245 392.779 326.547 392.948 326.089 393.258C325.63 393.567 325.401 394.039 325.401 394.672C325.401 395.58 325.923 396.034 326.966 396.034C327.714 396.034 328.312 395.819 328.759 395.39C329.207 394.961 329.431 394.391 329.431 393.68V392.709ZM330.382 398.181L329.758 396.576H329.674C329.13 397.259 328.572 397.732 327.997 397.996C327.423 398.26 326.673 398.392 325.75 398.392C324.614 398.392 323.72 398.069 323.068 397.421C322.416 396.774 322.09 395.852 322.09 394.655C322.09 393.402 322.529 392.479 323.406 391.884C324.285 391.289 325.608 390.96 327.378 390.896L329.43 390.833V390.316C329.43 389.119 328.817 388.521 327.59 388.521C326.645 388.521 325.534 388.806 324.258 389.376L323.19 387.201C324.551 386.49 326.06 386.135 327.717 386.135C329.303 386.135 330.52 386.48 331.366 387.17C332.212 387.859 332.635 388.908 332.635 390.316V398.181H330.382Z" clip-rule="evenodd" fill-rule="evenodd"></path>
<path fill="#4748A5" d="M132.897 384.68C132.333 384.68 131.818 384.755 131.353 384.905C130.902 385.042 130.506 385.275 130.166 385.601C129.84 385.914 129.576 386.322 129.375 386.824C129.187 387.325 129.08 387.923 129.055 388.618C129.015 389.746 129.015 390.874 129.055 392.002C129.08 392.703 129.187 393.302 129.375 393.796C129.576 394.297 129.84 394.711 130.166 395.038C130.505 395.351 130.9 395.583 131.353 395.734C131.818 395.872 132.333 395.941 132.897 395.941C133.451 395.941 133.965 395.866 134.441 395.716C134.916 395.553 135.324 395.316 135.665 395.005C136.018 394.679 136.295 394.265 136.496 393.764C136.697 393.263 136.798 392.674 136.798 391.997V391.038H133.516C133.24 391.038 133.102 390.897 133.102 390.616V390.352C133.102 390.071 133.24 389.93 133.516 389.93H137.545C137.827 389.93 137.968 390.071 137.968 390.352V392.006C137.968 392.759 137.856 393.449 137.63 394.075C137.404 394.689 137.072 395.223 136.632 395.675C136.205 396.125 135.671 396.476 135.029 396.727C134.394 396.965 133.679 397.084 132.882 397.084C132.066 397.084 131.35 396.965 130.735 396.727C130.12 396.477 129.599 396.132 129.172 395.693C128.758 395.255 128.438 394.735 128.212 394.133C127.999 393.519 127.879 392.842 127.855 392.102C127.829 391.539 127.817 390.944 127.817 390.316C127.817 389.683 127.829 389.088 127.855 388.53C127.88 387.791 128.006 387.121 128.231 386.518C128.457 385.904 128.777 385.378 129.191 384.939C129.618 384.501 130.139 384.163 130.754 383.924C131.37 383.673 132.079 383.548 132.882 383.548C133.749 383.548 134.49 383.68 135.105 383.943C135.72 384.206 136.222 384.523 136.612 384.893C137.001 385.257 137.29 385.639 137.479 386.04C137.667 386.441 137.767 386.774 137.78 387.037C137.793 387.149 137.761 387.243 137.685 387.319C137.61 387.382 137.509 387.414 137.384 387.414H136.969C136.856 387.414 136.774 387.389 136.724 387.34C136.674 387.276 136.624 387.176 136.574 387.039C136.473 386.757 136.332 386.476 136.151 386.194C135.974 385.913 135.737 385.662 135.438 385.443C135.137 385.218 134.779 385.036 134.364 384.897C133.95 384.759 133.46 384.69 132.895 384.69L132.897 384.68ZM141.788 388.419C142.239 387.554 143.093 387.121 144.349 387.121H145.047C145.323 387.121 145.462 387.259 145.462 387.535V387.799C145.462 388.075 145.323 388.213 145.047 388.213H144.237C143.483 388.213 142.886 388.432 142.448 388.87C142.009 389.309 141.789 389.904 141.789 390.656V396.483C141.789 396.608 141.745 396.708 141.657 396.783C141.581 396.859 141.481 396.896 141.355 396.896H141.054C140.778 396.896 140.639 396.758 140.639 396.483V387.553C140.639 387.428 140.677 387.327 140.753 387.252C140.828 387.164 140.929 387.12 141.054 387.12H141.355C141.481 387.12 141.581 387.164 141.657 387.252C141.745 387.327 141.789 387.428 141.789 387.553V388.418L141.788 388.419ZM153.42 396.902C153.144 396.902 153.006 396.764 153.006 396.488V395.604C152.893 395.78 152.742 395.956 152.554 396.132C152.378 396.308 152.158 396.465 151.895 396.602C151.632 396.74 151.314 396.852 150.943 396.94C150.579 397.04 150.152 397.089 149.664 397.089C149.213 397.089 148.779 397.021 148.363 396.883C147.961 396.733 147.604 396.532 147.29 396.281C146.989 396.03 146.744 395.736 146.556 395.397C146.38 395.06 146.292 394.69 146.292 394.289C146.292 393.863 146.38 393.481 146.556 393.142C146.744 392.804 147.002 392.51 147.328 392.258C147.654 391.995 148.044 391.782 148.495 391.62C148.961 391.444 149.469 391.319 150.021 391.244L152.997 390.83V390.173C152.997 389.496 152.79 388.969 152.375 388.594C151.973 388.218 151.327 388.03 150.436 388.03C149.733 388.03 149.187 388.168 148.797 388.444C148.42 388.707 148.183 388.995 148.084 389.309C148.035 389.459 147.972 389.566 147.896 389.629C147.832 389.678 147.744 389.703 147.631 389.703H147.367C147.254 389.703 147.154 389.665 147.066 389.59C146.99 389.502 146.953 389.402 146.953 389.289C146.953 389.113 147.015 388.894 147.141 388.632C147.266 388.368 147.467 388.112 147.744 387.861C148.026 387.611 148.39 387.398 148.836 387.222C149.275 387.035 149.809 386.941 150.439 386.941C151.179 386.941 151.788 387.041 152.266 387.241C152.756 387.442 153.139 387.705 153.416 388.031C153.692 388.344 153.88 388.695 153.98 389.083C154.093 389.472 154.15 389.854 154.15 390.231V396.49C154.15 396.766 154.012 396.904 153.735 396.904H153.415L153.42 396.902ZM149.861 395.999C150.287 395.999 150.689 395.93 151.066 395.792C151.455 395.642 151.794 395.423 152.083 395.135C152.365 394.853 152.591 394.49 152.76 394.044C152.924 393.606 153.006 393.092 153.006 392.503V391.865L150.577 392.202C148.493 392.484 147.451 393.148 147.451 394.195C147.451 394.508 147.52 394.778 147.658 395.004C147.808 395.229 147.996 395.417 148.223 395.567C148.448 395.717 148.705 395.83 148.995 395.905C149.277 395.969 149.566 396 149.862 396L149.861 395.999ZM161.446 397.089C160.655 397.089 160.009 396.949 159.507 396.667C159.005 396.386 158.597 396.035 158.282 395.615V400.069C158.282 400.345 158.144 400.483 157.868 400.483H157.547C157.271 400.483 157.133 400.345 157.133 400.069V387.535C157.133 387.259 157.271 387.121 157.547 387.121H157.868C158.144 387.121 158.282 387.259 158.282 387.535V388.418C158.596 387.993 159.004 387.642 159.507 387.366C160.009 387.085 160.655 386.944 161.446 386.944C162.174 386.944 162.79 387.075 163.291 387.339C163.806 387.589 164.221 387.928 164.535 388.354C164.849 388.768 165.074 389.244 165.212 389.783C165.362 390.31 165.45 390.849 165.476 391.4C165.489 391.588 165.495 391.795 165.495 392.021C165.495 392.246 165.489 392.453 165.476 392.642C165.451 393.195 165.363 393.74 165.212 394.278C165.074 394.804 164.848 395.28 164.535 395.707C164.221 396.121 163.807 396.459 163.291 396.722C162.79 396.973 162.174 397.098 161.446 397.098V397.089ZM158.282 391.337C158.27 391.525 158.263 391.769 158.263 392.069C158.263 392.37 158.27 392.614 158.282 392.802C158.295 393.178 158.358 393.56 158.471 393.949C158.596 394.325 158.784 394.664 159.035 394.965C159.286 395.265 159.603 395.516 159.987 395.716C160.363 395.904 160.815 395.998 161.343 395.998C161.897 395.998 162.355 395.904 162.717 395.716C163.094 395.528 163.395 395.278 163.621 394.965C163.86 394.639 164.029 394.269 164.129 393.856C164.242 393.431 164.311 392.992 164.336 392.54C164.349 392.188 164.349 391.838 164.336 391.488C164.311 391.037 164.242 390.605 164.129 390.19C164.029 389.776 163.86 389.412 163.621 389.099C163.396 388.773 163.094 388.517 162.717 388.329C162.353 388.128 161.895 388.028 161.343 388.028C160.803 388.028 160.344 388.128 159.968 388.329C159.591 388.529 159.274 388.792 159.016 389.118C158.778 389.431 158.596 389.782 158.469 390.171C158.357 390.559 158.294 390.947 158.281 391.336L158.282 391.337ZM169.209 388.419C169.547 387.981 169.956 387.624 170.434 387.348C170.909 387.072 171.555 386.934 172.373 386.934C173.013 386.934 173.572 387.041 174.049 387.254C174.524 387.467 174.92 387.762 175.236 388.138C175.562 388.513 175.807 388.958 175.969 389.473C176.133 389.987 176.215 390.544 176.215 391.146V396.485C176.215 396.761 176.077 396.898 175.8 396.898H175.483C175.207 396.898 175.069 396.761 175.069 396.485V391.239C175.069 390.236 174.824 389.453 174.335 388.889C173.845 388.312 173.13 388.024 172.188 388.024C171.284 388.024 170.562 388.305 170.022 388.868C169.482 389.431 169.212 390.222 169.212 391.24V396.486C169.212 396.762 169.074 396.899 168.798 396.899H168.477C168.201 396.899 168.063 396.762 168.063 396.486V383.962C168.063 383.686 168.201 383.548 168.477 383.548H168.798C169.074 383.548 169.212 383.686 169.212 383.962V388.416L169.209 388.419ZM183.897 383.551C184.626 383.551 185.291 383.658 185.894 383.871C186.497 384.084 187.011 384.41 187.438 384.849C187.877 385.274 188.216 385.813 188.455 386.466C188.706 387.105 188.844 387.863 188.87 388.74C188.895 389.303 188.908 389.83 188.908 390.319C188.908 390.808 188.895 391.334 188.87 391.898C188.806 393.691 188.348 395.007 187.495 395.846L188.7 397.538C188.713 397.563 188.726 397.588 188.738 397.612C188.751 397.637 188.757 397.681 188.757 397.744C188.757 397.844 188.72 397.932 188.644 398.008C188.569 398.083 188.481 398.121 188.38 398.121H187.965C187.827 398.121 187.708 398.064 187.608 397.952C187.508 397.852 187.426 397.764 187.363 397.688L186.531 396.541C185.777 396.904 184.898 397.086 183.894 397.086C182.325 397.086 181.113 396.667 180.26 395.827C179.419 394.988 178.973 393.678 178.922 391.898C178.897 391.335 178.884 390.809 178.884 390.319C178.884 389.831 178.897 389.305 178.922 388.74C178.947 387.863 179.079 387.105 179.317 386.466C179.568 385.814 179.907 385.275 180.335 384.849C180.774 384.41 181.289 384.084 181.879 383.871C182.481 383.658 183.153 383.551 183.894 383.551H183.897ZM183.897 384.681C183.37 384.681 182.88 384.762 182.427 384.926C181.976 385.076 181.581 385.32 181.241 385.658C180.903 385.996 180.633 386.429 180.431 386.956C180.243 387.483 180.136 388.109 180.11 388.835C180.098 389.117 180.085 389.38 180.072 389.625C180.072 389.863 180.072 390.095 180.072 390.321C180.072 390.547 180.072 390.784 180.072 391.033C180.085 391.271 180.098 391.528 180.11 391.803C180.136 392.542 180.243 393.176 180.431 393.703C180.632 394.217 180.895 394.643 181.222 394.981C181.56 395.318 181.956 395.569 182.408 395.732C182.86 395.882 183.354 395.957 183.893 395.957C184.433 395.957 184.928 395.882 185.378 395.732C185.829 395.569 186.218 395.318 186.545 394.981C186.884 394.643 187.147 394.217 187.336 393.703C187.537 393.177 187.65 392.544 187.675 391.803C187.687 391.528 187.694 391.271 187.694 391.033C187.694 390.782 187.694 390.545 187.694 390.321C187.694 390.096 187.694 389.864 187.694 389.625C187.694 389.387 187.687 389.124 187.675 388.835C187.649 388.108 187.536 387.482 187.336 386.956C187.148 386.43 186.884 385.997 186.545 385.658C186.207 385.32 185.811 385.076 185.359 384.926C184.908 384.762 184.418 384.681 183.889 384.681H183.897ZM193.09 395.77H199.587C199.869 395.77 200.01 395.911 200.01 396.192V396.474C200.01 396.75 199.869 396.888 199.587 396.888H192.318C192.042 396.888 191.903 396.75 191.903 396.474V384.152C191.903 383.876 192.042 383.738 192.318 383.738H192.675C192.952 383.738 193.09 383.876 193.09 384.152V395.769V395.77ZM93.5833 401.061L92.3143 400.329L106.461 375.872L107.73 376.605L93.5833 401.061Z"></path>
<path fill="#4748A5" d="M92.0267 398.371H120.321V399.835H92.0267V398.371Z"></path>
<path fill="#4748A5" d="M106.739 407.346L92.5859 399.19L93.3198 397.923L107.472 406.077L106.739 407.346ZM119.033 386.088L104.881 377.933L105.615 376.666L119.767 384.822L119.033 386.088Z"></path>
<path fill="#4748A5" d="M93.3237 386.087L92.5898 384.82L106.754 376.674L107.488 377.94L93.3237 386.087Z"></path>
<path fill="#4748A5" d="M118.773 401.061L104.625 376.605L105.894 375.872L120.041 400.329L118.773 401.061ZM93.149 383.854H94.6137V400.166H93.149V383.854ZM117.742 383.854H119.208V400.166H117.741L117.742 383.854Z"></path>
<path fill="#4748A5" d="M106.491 406.713L105.85 405.604L118.159 398.511L118.8 399.62L106.491 406.713Z"></path>
<path fill="#4748A5" d="M121.151 400.637C120.741 401.344 120.067 401.86 119.277 402.072C118.487 402.283 117.645 402.173 116.937 401.766C116.228 401.357 115.712 400.685 115.5 399.896C115.288 399.107 115.398 398.267 115.806 397.559C116.216 396.853 116.889 396.337 117.679 396.125C118.469 395.914 119.311 396.024 120.02 396.431C121.505 397.276 122.008 399.175 121.152 400.637H121.151ZM96.5409 386.451C96.1315 387.158 95.4578 387.674 94.6678 387.885C93.8777 388.097 93.0358 387.987 92.3269 387.58C91.6187 387.171 91.1019 386.498 90.89 385.71C90.6781 384.921 90.7883 384.081 91.1965 383.373C91.6059 382.666 92.2796 382.151 93.0696 381.939C93.8597 381.728 94.7016 381.838 95.4105 382.245C96.8857 383.089 97.388 384.989 96.542 386.451H96.5409ZM91.206 400.637C90.3579 399.165 90.8612 397.287 92.3375 396.431C93.8127 395.585 95.6939 396.087 96.5515 397.561C97.3996 399.033 96.8963 400.911 95.42 401.767C93.9353 402.613 92.0541 402.111 91.206 400.637V400.637ZM115.817 386.451C114.969 384.979 115.472 383.101 116.948 382.245C118.423 381.398 120.305 381.901 121.162 383.374C122.01 384.847 121.507 386.725 120.031 387.581C119.322 387.988 118.48 388.098 117.69 387.887C116.9 387.675 116.226 387.159 115.817 386.452V386.451ZM106.176 409.273C104.471 409.273 103.093 407.897 103.093 406.196C103.093 404.494 104.474 403.119 106.176 403.119C107.877 403.119 109.258 404.494 109.258 406.196C109.257 407.011 108.932 407.793 108.354 408.37C107.776 408.947 106.993 409.271 106.176 409.273V409.273ZM106.176 380.898C104.471 380.898 103.093 379.523 103.093 377.821C103.093 376.12 104.474 374.744 106.176 374.744C107.877 374.744 109.258 376.12 109.258 377.821C109.259 378.226 109.18 378.626 109.025 379C108.87 379.373 108.643 379.713 108.357 379.998C108.07 380.284 107.73 380.511 107.356 380.665C106.982 380.82 106.581 380.899 106.176 380.898Z"></path>
<g clip-path="url(#clip1_7082_4538)">
<path fill="#4748A5" d="M372.71 373.426H400.808C402.691 373.426 404.217 374.95 404.217 376.829V404.875C404.217 406.755 402.691 408.279 400.808 408.279H372.71C370.826 408.279 369.3 406.755 369.3 404.875V376.829C369.3 374.95 370.826 373.426 372.71 373.426ZM390.919 401.269V401.134L390.789 401.164C390.832 401.2 390.875 401.235 390.919 401.269ZM390.919 401.269V404.538C391.471 404.824 392.146 405.035 392.896 405.178C393.647 405.321 394.465 405.389 395.283 405.389C396.102 405.389 396.852 405.314 397.602 405.157C398.352 405.001 398.966 404.742 399.512 404.408C400.064 404.048 400.535 403.592 400.808 402.979C401.08 402.366 401.292 401.686 401.292 400.801C401.292 400.181 401.196 399.643 401.012 399.167C400.828 398.69 400.562 398.282 400.194 397.942C399.846 397.581 399.444 397.261 398.966 396.989C398.489 396.716 397.943 396.43 397.329 396.172C397.05 396.058 396.803 395.946 396.558 395.836C396.407 395.769 396.257 395.701 396.102 395.634C395.747 395.457 395.44 395.28 395.215 395.103C394.963 394.919 394.772 394.729 394.636 394.531C394.499 394.327 394.431 394.102 394.431 393.85C394.431 393.619 394.492 393.408 394.615 393.217C394.739 393.027 394.908 392.87 395.127 392.734C395.345 392.598 395.618 392.496 395.945 392.421C396.265 392.346 396.62 392.312 397.036 392.312C397.323 392.312 397.623 392.333 397.923 392.376C398.236 392.419 398.557 392.485 398.877 392.573C399.198 392.662 399.512 392.771 399.832 392.907C400.132 393.043 400.412 393.2 400.651 393.377V390.177C400.132 389.98 399.559 389.83 398.946 389.735C398.332 389.639 397.65 389.592 396.832 389.592C396.013 389.592 395.263 389.68 394.513 389.85C393.763 390.021 393.149 390.293 392.603 390.667C392.051 391.035 391.648 391.484 391.307 392.097C390.987 392.669 390.83 393.322 390.83 394.139C390.83 395.16 391.123 396.045 391.717 396.726C392.303 397.475 393.217 398.019 394.376 398.564C394.785 398.729 395.152 398.895 395.51 399.056C395.564 399.08 395.618 399.104 395.672 399.129C396.081 399.313 396.422 399.503 396.695 399.701C396.988 399.898 397.22 400.116 397.377 400.347C397.548 400.579 397.636 400.851 397.636 401.164C397.636 401.382 397.583 401.586 397.479 401.777C397.376 401.967 397.213 402.131 396.995 402.267C396.777 402.403 396.511 402.512 396.177 402.594C395.856 402.668 395.495 402.709 395.017 402.709C394.267 402.709 393.517 402.58 392.835 402.321C392.137 402.081 391.499 401.728 390.919 401.269ZM389.555 392.761H385.19V405.218H381.712V392.761H377.347V389.97H389.555V392.761Z" clip-rule="evenodd" fill-rule="evenodd"></path>
</g>
<g clip-path="url(#clip2_7082_4538)">
<path fill="#4748A5" d="M519.81 383.11V386.11H513.331V401.893H510.09V386.11H503.476V383.11H519.81ZM520.539 400.104C520.767 400.104 520.967 400.186 521.136 400.349C521.307 400.513 521.393 400.709 521.395 400.937C521.393 401.092 521.353 401.234 521.274 401.361C521.193 401.49 521.09 401.591 520.96 401.664C520.833 401.74 520.692 401.778 520.539 401.778C520.301 401.778 520.1 401.697 519.931 401.533C519.762 401.369 519.678 401.171 519.68 400.937C519.678 400.709 519.762 400.513 519.931 400.349C520.1 400.186 520.301 400.104 520.539 400.104ZM456.322 401.893L444.374 387.117V401.885H441.135V383.102H445.184L460.278 401.752L460.278 386.11L460.277 383.11H476.611V386.11H463.518V390.936H474.048V393.936H463.518V398.893H476.611V401.893H456.322ZM486.995 393.908L489.119 396.535L484.768 401.915H480.516L486.995 393.908ZM484.768 383.117L490.25 389.892L495.715 383.138L499.955 383.132L492.373 392.516L499.967 401.901H495.715L480.528 383.117H484.768ZM526.069 393.865H527.504V399.37C527.502 399.876 527.392 400.308 527.177 400.672C526.96 401.036 526.659 401.313 526.273 401.509C525.889 401.703 525.439 401.802 524.927 401.802C524.459 401.802 524.04 401.718 523.667 401.555C523.294 401.391 522.997 401.146 522.78 400.823C522.56 400.5 522.453 400.097 522.453 399.615H523.891C523.893 399.826 523.941 400.009 524.034 400.162C524.126 400.315 524.253 400.431 524.416 400.513C524.58 400.594 524.769 400.635 524.982 400.635C525.212 400.635 525.41 400.588 525.57 400.491C525.73 400.396 525.853 400.254 525.939 400.065C526.022 399.878 526.066 399.645 526.069 399.37V393.865ZM533.412 396.018C533.377 395.684 533.223 395.424 532.955 395.239C532.685 395.052 532.336 394.959 531.908 394.959C531.607 394.959 531.348 395.004 531.133 395.092C530.918 395.183 530.751 395.303 530.637 395.456C530.523 395.609 530.466 395.783 530.461 395.979C530.461 396.143 530.501 396.285 530.578 396.403C530.654 396.524 530.758 396.625 530.892 396.707C531.023 396.791 531.17 396.86 531.331 396.916C531.493 396.972 531.656 397.019 531.818 397.058L532.566 397.241C532.867 397.31 533.159 397.402 533.438 397.521C533.717 397.637 533.969 397.785 534.191 397.964C534.413 398.143 534.588 398.358 534.718 398.61C534.847 398.862 534.913 399.157 534.913 399.497C534.913 399.955 534.795 400.358 534.555 400.706C534.316 401.053 533.971 401.324 533.519 401.52C533.069 401.714 532.525 401.813 531.884 401.813C531.265 401.813 530.725 401.718 530.27 401.529C529.814 401.341 529.458 401.066 529.201 400.704C528.944 400.343 528.806 399.901 528.786 399.383H530.209C530.229 399.654 530.316 399.88 530.466 400.063C530.617 400.244 530.815 400.377 531.056 400.467C531.3 400.556 531.572 400.601 531.873 400.601C532.187 400.601 532.463 400.554 532.703 400.461C532.94 400.368 533.126 400.239 533.26 400.071C533.396 399.906 533.465 399.71 533.467 399.486C533.465 399.281 533.403 399.111 533.284 398.978C533.164 398.844 532.997 398.732 532.784 398.642C532.569 398.552 532.318 398.47 532.033 398.399L531.124 398.171C530.468 398.005 529.948 397.753 529.568 397.415C529.186 397.077 528.997 396.629 528.997 396.068C528.997 395.607 529.124 395.202 529.381 394.856C529.636 394.509 529.985 394.24 530.426 394.048C530.87 393.855 531.37 393.76 531.928 393.76C532.494 393.76 532.99 393.855 533.418 394.048C533.846 394.24 534.182 394.507 534.426 394.847C534.67 395.187 534.797 395.577 534.804 396.018H533.412Z"></path>
</g>
<g filter="url(#filter2_f_7082_4538)">
<ellipse fill="white" transform="rotate(91.312 784.952 181.158)" ry="298.611" rx="155.408" cy="181.158" cx="784.952"></ellipse>
</g>
<line stroke-width="1.99529" stroke="#C3DAFE" y2="71.8328" x2="1174.23" y1="71.8328" x1="587.615"></line>
<line stroke-width="1.99529" stroke="#C3DAFE" y2="112.947" x2="1174.23" y1="112.947" x1="587.614"></line>
<line stroke-width="1.99529" stroke="#C3DAFE" y2="154.03" x2="1174.23" y1="154.03" x1="587.614"></line>
<line stroke-width="1.99529" stroke="#C3DAFE" y2="195.144" x2="1174.23" y1="195.144" x1="587.614"></line>
<line stroke-width="1.99529" stroke="#C3DAFE" y2="236.257" x2="1174.23" y1="236.257" x1="587.614"></line>
<line stroke-width="1.99529" stroke="#C3DAFE" y2="277.348" x2="1174.23" y1="277.348" x1="587.614"></line>
<line stroke-width="1.99529" stroke="#C3DAFE" y2="318.454" x2="1174.23" y1="318.454" x1="587.614"></line>
<line stroke-width="1.99529" stroke="#C3DAFE" y2="359.568" x2="1174.23" y1="359.568" x1="587.614"></line>
<line stroke-width="1.99529" stroke="#C3DAFE" y2="400.659" x2="1174.23" y1="400.659" x1="587.614"></line>
<line stroke-width="1.99529" stroke="#C3DAFE" y2="401.662" x2="823.259" y1="72.8306" x1="823.259"></line>
<line stroke-width="1.99529" stroke="#C3DAFE" y2="401.662" x2="784.151" y1="72.8306" x1="784.151"></line>
<line stroke-width="1.99529" stroke="#C3DAFE" y2="401.662" x2="745.043" y1="72.8306" x1="745.043"></line>
<line stroke-width="1.99529" stroke="#C3DAFE" y2="401.662" x2="705.935" y1="72.8306" x1="705.935"></line>
<line stroke-width="1.99529" stroke="#C3DAFE" y2="401.662" x2="666.827" y1="72.8306" x1="666.827"></line>
<line stroke-width="1.99529" stroke="#C3DAFE" y2="401.662" x2="627.719" y1="72.8306" x1="627.719"></line>
<line stroke-width="1.99529" stroke="#C3DAFE" y2="401.662" x2="588.612" y1="72.8304" x1="588.612"></line>
<path fill="url(#paint0_linear_7082_4538)" d="M664.442 115.729L501.816 209.078L664.442 302.426L827.068 209.078L745.755 162.403L664.442 115.729Z"></path>
<path fill="url(#paint1_linear_7082_4538)" d="M664.433 302.289L631.51 257.894L720.301 270.863L664.433 302.289Z"></path>
<path fill="url(#paint2_linear_7082_4538)" d="M793.603 163.874L630.978 257.809L793.603 351.744L956.229 257.809L874.916 210.841L793.603 163.874Z"></path>
<path fill="url(#paint3_linear_7082_4538)" d="M793.827 351.751L761.204 307.277L849.995 320.247L793.827 351.751Z"></path>
<path fill="url(#paint4_linear_7082_4538)" d="M923.175 212.836L759.962 306.771L923.175 400.707L1086.39 306.771L1004.78 259.804L923.175 212.836Z"></path>
<g filter="url(#filter3_f_7082_4538)">
<ellipse fill="#434190" transform="matrix(-1 0 0 1 704.788 171.967)" ry="4.46288" rx="20.4017"></ellipse>
</g>
<circle fill="url(#paint5_linear_7082_4538)" transform="matrix(-1 0 0 1 704.838 147.153)" r="20.4518"></circle>
</g>
<defs>
<filter color-interpolation-filters="sRGB" filterUnits="userSpaceOnUse" height="979.646" width="1194.46" y="45.2429" x="-120.558" id="filter0_f_7082_4538">
<feFlood result="BackgroundImageFix" flood-opacity="0"></feFlood>
<feBlend result="shape" in2="BackgroundImageFix" in="SourceGraphic" mode="normal"></feBlend>
<feGaussianBlur result="effect1_foregroundBlur_7082_4538" stdDeviation="178.921"></feGaussianBlur>
</filter>
<filter color-interpolation-filters="sRGB" filterUnits="userSpaceOnUse" height="567" width="439" y="-25" x="-226" id="filter1_f_7082_4538">
<feFlood result="BackgroundImageFix" flood-opacity="0"></feFlood>
<feBlend result="shape" in2="BackgroundImageFix" in="SourceGraphic" mode="normal"></feBlend>
<feGaussianBlur result="effect1_foregroundBlur_7082_4538" stdDeviation="75"></feGaussianBlur>
</filter>
<filter color-interpolation-filters="sRGB" filterUnits="userSpaceOnUse" height="610.335" width="896.403" y="-124.009" x="336.751" id="filter2_f_7082_4538">
<feFlood result="BackgroundImageFix" flood-opacity="0"></feFlood>
<feBlend result="shape" in2="BackgroundImageFix" in="SourceGraphic" mode="normal"></feBlend>
<feGaussianBlur result="effect1_foregroundBlur_7082_4538" stdDeviation="74.8235"></feGaussianBlur>
</filter>
<filter color-interpolation-filters="sRGB" filterUnits="userSpaceOnUse" height="28.8787" width="60.7564" y="157.527" x="674.41" id="filter3_f_7082_4538">
<feFlood result="BackgroundImageFix" flood-opacity="0"></feFlood>
<feBlend result="shape" in2="BackgroundImageFix" in="SourceGraphic" mode="normal"></feBlend>
<feGaussianBlur result="effect1_foregroundBlur_7082_4538" stdDeviation="4.98823"></feGaussianBlur>
</filter>
<linearGradient gradientUnits="userSpaceOnUse" y2="302.426" x2="664.442" y1="115.729" x1="664.442" id="paint0_linear_7082_4538">
<stop stop-color="#5A67D8" offset="0.0648065"></stop>
<stop stop-color="#434190" offset="1"></stop>
</linearGradient>
<linearGradient gradientUnits="userSpaceOnUse" y2="302.462" x2="673.512" y1="257.894" x1="675.906" id="paint1_linear_7082_4538">
<stop stop-color="#38A169"></stop>
<stop stop-color="#68D391" offset="0.668984"></stop>
<stop stop-color="#77D99C" offset="1"></stop>
</linearGradient>
<linearGradient gradientUnits="userSpaceOnUse" y2="351.744" x2="793.603" y1="163.874" x1="793.603" id="paint2_linear_7082_4538">
<stop stop-color="#5A67D8" offset="0.0648065"></stop>
<stop stop-color="#434190" offset="1"></stop>
</linearGradient>
<linearGradient gradientUnits="userSpaceOnUse" y2="351.923" x2="803.198" y1="307.277" x1="805.6" id="paint3_linear_7082_4538">
<stop stop-color="#38A169"></stop>
<stop stop-color="#68D391" offset="0.668984"></stop>
<stop stop-color="#77D99C" offset="1"></stop>
</linearGradient>
<linearGradient gradientUnits="userSpaceOnUse" y2="400.707" x2="923.175" y1="212.836" x1="923.175" id="paint4_linear_7082_4538">
<stop stop-color="#5A67D8" offset="0.0648065"></stop>
<stop stop-color="#434190" offset="1"></stop>
</linearGradient>
<linearGradient gradientUnits="userSpaceOnUse" y2="40.7112" x2="16.0795" y1="0" x1="20.4518" id="paint5_linear_7082_4538">
<stop stop-color="#9AE6B4"></stop>
<stop stop-color="#68D391" offset="0.314811"></stop>
<stop stop-color="#38A169" offset="1"></stop>
</linearGradient>
<clipPath id="clip0_7082_4538">
<rect fill="white" height="474" width="844"></rect>
</clipPath>
<clipPath id="clip1_7082_4538">
<rect transform="translate(369.3 373.425)" fill="white" height="34.8529" width="34.9176"></rect>
</clipPath>
<clipPath id="clip2_7082_4538">
<rect transform="translate(441.135 383.097)" fill="white" height="18.9553" width="93.7788"></rect>
</clipPath>
</defs>
</svg>
