<svg xmlns="http://www.w3.org/2000/svg" width="582" height="287" fill="none" class="sc-eZYOHW csaSJf active"><g clip-path="url(#a)"><path fill="#E53E3E" d="M346.776 253.484a.31.31 0 0 1 .28-.16h2.34q.1 0 .16.08.08.06.08.16v13.52a.25.25 0 0 1-.08.18.22.22 0 0 1-.16.06h-2.34a.3.3 0 0 1-.18-.06.3.3 0 0 1-.06-.18v-8.82q0-.08-.04-.08t-.08.06l-2.12 3.32a.31.31 0 0 1-.28.16h-1.18a.31.31 0 0 1-.28-.16l-2.12-3.32q-.04-.06-.08-.04-.04 0-.04.08v8.8a.25.25 0 0 1-.08.18.22.22 0 0 1-.16.06h-2.34a.3.3 0 0 1-.18-.06.3.3 0 0 1-.06-.18v-13.52q0-.1.06-.16a.25.25 0 0 1 .18-.08h2.34q.18 0 .28.16l3 4.66q.06.12.12 0zm15.197 13.84q-.2 0-.26-.2l-.6-1.96q-.04-.08-.1-.08h-4.92q-.06 0-.1.08l-.58 1.96q-.06.2-.26.2h-2.54q-.12 0-.18-.06-.06-.08-.02-.22l4.32-13.52q.06-.2.26-.2h3.14q.2 0 .26.2l4.32 13.52q.02.04.02.1 0 .18-.22.18zm-5.26-4.54q-.02.12.08.12h3.52q.12 0 .08-.12l-1.8-5.94q-.021-.08-.06-.06-.04 0-.06.06zm10.378 4.54q-.14 0-.2-.08t.02-.2l3.88-6.66a.1.1 0 0 0 0-.12l-3.88-6.66-.04-.12q0-.16.22-.16h2.54q.2 0 .3.16l2.6 4.58q.06.12.12 0l2.6-4.58a.33.33 0 0 1 .3-.16h2.52q.14 0 .2.08t-.02.2l-3.88 6.66a.18.18 0 0 0 0 .12l3.88 6.66.04.12q0 .16-.22.16h-2.52a.33.33 0 0 1-.3-.16l-2.6-4.56q-.06-.12-.12 0l-2.62 4.56a.33.33 0 0 1-.3.16zm22.461-2.54q-.04.04-.02.08t.08.04h5.42q.1 0 .16.08.08.06.08.16v1.94a.25.25 0 0 1-.08.18.22.22 0 0 1-.16.06h-9a.3.3 0 0 1-.18-.06.3.3 0 0 1-.06-.18v-1.84q0-.18.12-.3.98-.96 2-2.08 1.02-1.14 1.28-1.42.56-.66 1.14-1.26 1.82-2.019 1.82-3 0-.699-.5-1.14-.5-.46-1.3-.46t-1.3.46q-.5.44-.5 1.18v.5a.25.25 0 0 1-.08.18.22.22 0 0 1-.16.06h-2.36a.3.3 0 0 1-.18-.06.3.3 0 0 1-.06-.18v-.94q.06-1.08.68-1.9.62-.84 1.64-1.28 1.04-.44 2.32-.44 1.419 0 2.46.54 1.059.52 1.62 1.42.58.9.58 2 0 .84-.42 1.72t-1.26 1.9a24 24 0 0 1-1.34 1.54q-.72.76-2.14 2.2zm13.211 2.76q-2.2 0-3.48-1.22-1.28-1.239-1.28-3.36v-5.28q0-2.079 1.28-3.3t3.48-1.22q2.2 0 3.48 1.22 1.3 1.221 1.3 3.3v5.28q0 2.121-1.3 3.36-1.28 1.22-3.48 1.22m0-2.42q.9 0 1.42-.54.54-.56.54-1.48v-5.5q0-.92-.54-1.46-.52-.56-1.42-.56-.88 0-1.42.56-.52.54-.52 1.46v5.5q0 .92.52 1.48.54.54 1.42.54m17.87 2.36q-1.56 0-2.74-.6a4.44 4.44 0 0 1-1.82-1.72q-.64-1.1-.64-2.54v-4.62q0-1.44.64-2.54a4.3 4.3 0 0 1 1.82-1.7q1.18-.6 2.74-.6 1.54 0 2.7.58 1.18.561 1.82 1.62.66 1.04.66 2.42 0 .18-.24.22l-2.34.14h-.04q-.2 0-.2-.22 0-1.06-.66-1.7-.64-.64-1.7-.64-1.08 0-1.74.64-.64.64-.64 1.7v4.82q0 1.041.64 1.68.66.64 1.74.64 1.06 0 1.7-.64.66-.639.66-1.68 0-.22.24-.22l2.34.1q.1 0 .16.06.08.06.08.14 0 1.38-.66 2.44-.64 1.06-1.82 1.64-1.16.58-2.7.58m13.228.06q-1.56 0-2.76-.64a4.63 4.63 0 0 1-1.84-1.78q-.66-1.16-.66-2.66v-4.28q0-1.48.66-2.62a4.5 4.5 0 0 1 1.84-1.76q1.2-.64 2.76-.64 1.58 0 2.76.64 1.2.62 1.86 1.76t.66 2.62v4.28q0 1.5-.66 2.66a4.56 4.56 0 0 1-1.86 1.8q-1.18.62-2.76.62m0-2.42q1.1 0 1.78-.7.68-.699.68-1.86v-4.4q0-1.16-.68-1.86-.66-.72-1.78-.72-1.1 0-1.78.72-.66.7-.66 1.86v4.4q0 1.161.66 1.86.68.7 1.78.7m16.482-11.56q0-.1.06-.16a.25.25 0 0 1 .18-.08h2.34a.19.19 0 0 1 .16.08q.08.06.08.16v13.52a.25.25 0 0 1-.08.18.22.22 0 0 1-.16.06h-2.26q-.2 0-.28-.16l-5.18-8.56q-.04-.06-.08-.04-.04 0-.04.08l.04 8.44a.25.25 0 0 1-.08.18.22.22 0 0 1-.16.06h-2.34a.3.3 0 0 1-.18-.06.3.3 0 0 1-.06-.18v-13.52q0-.1.06-.16a.25.25 0 0 1 .18-.08h2.26q.2 0 .28.16l5.16 8.52q.04.06.08.06.04-.02.04-.1zm14.184 0q0-.1.06-.16a.25.25 0 0 1 .18-.08h2.34q.1 0 .16.08.08.06.08.16v13.52a.25.25 0 0 1-.08.18.22.22 0 0 1-.16.06h-2.26q-.2 0-.28-.16l-5.18-8.56q-.04-.06-.08-.04-.04 0-.04.08l.04 8.44a.25.25 0 0 1-.08.18.22.22 0 0 1-.16.06h-2.34a.3.3 0 0 1-.18-.06.3.3 0 0 1-.06-.18v-13.52q0-.1.06-.16a.25.25 0 0 1 .18-.08h2.26q.2 0 .28.16l5.16 8.52q.04.06.08.06.04-.02.04-.1zm15.863 1.94a.25.25 0 0 1-.08.18.22.22 0 0 1-.16.06h-6.56q-.1 0-.1.1v3.1q0 .1.1.1h4.3a.19.19 0 0 1 .16.08.19.19 0 0 1 .08.16v1.94a.25.25 0 0 1-.08.18.22.22 0 0 1-.16.06h-4.3q-.1 0-.1.1v3.24q0 .1.1.1h6.56a.19.19 0 0 1 .16.08.19.19 0 0 1 .08.16v1.94a.25.25 0 0 1-.08.18.22.22 0 0 1-.16.06h-9.24a.3.3 0 0 1-.18-.06.3.3 0 0 1-.06-.18v-13.52q0-.1.06-.16a.25.25 0 0 1 .18-.08h9.24a.19.19 0 0 1 .16.08.19.19 0 0 1 .08.16zm7.88 11.98q-1.56 0-2.74-.6a4.44 4.44 0 0 1-1.82-1.72q-.64-1.1-.64-2.54v-4.62q0-1.44.64-2.54a4.3 4.3 0 0 1 1.82-1.7q1.18-.6 2.74-.6 1.54 0 2.7.58 1.18.561 1.82 1.62.66 1.04.66 2.42 0 .18-.24.22l-2.34.14h-.04q-.2 0-.2-.22 0-1.06-.66-1.7-.64-.64-1.7-.64-1.08 0-1.74.64-.64.64-.64 1.7v4.82q0 1.041.64 1.68.66.64 1.74.64 1.06 0 1.7-.64.66-.639.66-1.68 0-.22.24-.22l2.34.1q.1 0 .16.06.08.06.08.14 0 1.38-.66 2.44-.64 1.06-1.82 1.64-1.16.58-2.7.58m17.752-14.16q.1 0 .16.08.08.06.08.16v1.96a.25.25 0 0 1-.08.18.22.22 0 0 1-.16.06h-3.58q-.1 0-.1.1v11.22a.25.25 0 0 1-.08.18.22.22 0 0 1-.16.06h-2.34a.3.3 0 0 1-.18-.06.3.3 0 0 1-.06-.18v-11.22q0-.1-.1-.1h-3.48a.3.3 0 0 1-.18-.06.3.3 0 0 1-.06-.18v-1.96q0-.1.06-.16a.25.25 0 0 1 .18-.08zm3.279 14a.3.3 0 0 1-.18-.06.3.3 0 0 1-.06-.18v-13.52q0-.1.06-.16a.25.25 0 0 1 .18-.08h2.34q.1 0 .16.08.08.06.08.16v13.52a.25.25 0 0 1-.08.18.22.22 0 0 1-.16.06zm10.994.22q-1.56 0-2.76-.64a4.63 4.63 0 0 1-1.84-1.78q-.66-1.16-.66-2.66v-4.28q0-1.48.66-2.62a4.5 4.5 0 0 1 1.84-1.76q1.2-.64 2.76-.64 1.58 0 2.76.64 1.2.62 1.86 1.76t.66 2.62v4.28q0 1.5-.66 2.66a4.56 4.56 0 0 1-1.86 1.8q-1.18.62-2.76.62m0-2.42q1.1 0 1.78-.7.68-.699.68-1.86v-4.4q0-1.16-.68-1.86-.66-.72-1.78-.72-1.1 0-1.78.72-.66.7-.66 1.86v4.4q0 1.161.66 1.86.68.7 1.78.7m16.482-11.56q0-.1.06-.16a.25.25 0 0 1 .18-.08h2.34q.1 0 .16.08.08.06.08.16v13.52a.25.25 0 0 1-.08.18.22.22 0 0 1-.16.06h-2.26q-.2 0-.28-.16l-5.18-8.56q-.04-.06-.08-.04-.04 0-.04.08l.04 8.44a.25.25 0 0 1-.08.18.22.22 0 0 1-.16.06h-2.34a.3.3 0 0 1-.18-.06.3.3 0 0 1-.06-.18v-13.52q0-.1.06-.16a.25.25 0 0 1 .18-.08h2.26q.2 0 .28.16l5.16 8.52q.04.06.08.06.04-.02.04-.1zm11.06 13.92q-1.6 0-2.8-.5-1.2-.52-1.86-1.46-.64-.96-.64-2.22v-.44q0-.1.06-.16a.25.25 0 0 1 .18-.08h2.28a.19.19 0 0 1 .16.08.19.19 0 0 1 .08.16v.3q0 .8.74 1.36.74.54 2 .54 1.06 0 1.58-.44.52-.46.52-1.12 0-.48-.32-.8-.32-.34-.88-.58-.54-.26-1.74-.7a18 18 0 0 1-2.28-.94 4.7 4.7 0 0 1-1.56-1.3q-.62-.84-.62-2.06 0-1.2.62-2.1t1.72-1.38 2.54-.48q1.521 0 2.7.54 1.2.54 1.86 1.52.68.96.68 2.24v.3a.25.25 0 0 1-.08.18.22.22 0 0 1-.16.06h-2.3a.3.3 0 0 1-.18-.06.3.3 0 0 1-.06-.18v-.16q0-.84-.7-1.42-.68-.6-1.88-.6-.94 0-1.48.4-.52.4-.52 1.1 0 .501.3.84.32.34.92.62.62.261 1.9.72 1.42.52 2.22.92.82.4 1.46 1.2.66.78.66 2.04 0 1.88-1.38 2.98-1.38 1.08-3.74 1.08" class="svg-elem-1"/><path stroke="url(#b)" stroke-linecap="round" stroke-linejoin="round" stroke-width="5.051" d="M-69.997 235.47H149.57c44.923 0 15.733-92.844 70.647-92.844h243.118" class="svg-elem-2"/><path stroke="url(#c)" stroke-linecap="round" stroke-linejoin="round" stroke-width="5.051" d="M-69.997 224.863H149.57c44.923 0 15.733-92.844 70.647-92.844h243.118" class="svg-elem-3"/><path stroke="url(#d)" stroke-linecap="round" stroke-linejoin="round" stroke-width="5.051" d="M-69.997 214.258H149.57c44.923 0 15.733-92.844 70.647-92.844h243.118" class="svg-elem-4"/><path stroke="url(#e)" stroke-linecap="round" stroke-linejoin="round" stroke-width="5.051" d="M-69.997 203.652H149.57c44.923 0 15.733-92.843 70.647-92.843h243.118" class="svg-elem-5"/><path stroke="url(#f)" stroke-linecap="round" stroke-linejoin="round" stroke-width="5.051" d="M-69.997 18.008H149.57c44.923 0 15.733 92.844 70.647 92.844h243.118" class="svg-elem-6"/><path stroke="url(#g)" stroke-linecap="round" stroke-linejoin="round" stroke-width="5.051" d="M-69.997 28.613H149.57c44.923 0 15.733 92.844 70.647 92.844h243.118" class="svg-elem-7"/><path stroke="url(#h)" stroke-linecap="round" stroke-linejoin="round" stroke-width="5.051" d="M-69.997 39.22H149.57c44.923 0 15.733 92.844 70.647 92.844h243.118" class="svg-elem-8"/><path stroke="url(#i)" stroke-linecap="round" stroke-linejoin="round" stroke-width="5.051" d="M-69.997 49.825H149.57c44.923 0 15.733 92.844 70.647 92.844h243.118" class="svg-elem-9"/><path stroke="url(#j)" stroke-linecap="round" stroke-linejoin="round" stroke-width="5.051" d="M-69.997 60.432H149.57c44.923 0 15.733 92.843 70.647 92.843h243.118" class="svg-elem-10"/><path stroke="url(#k)" stroke-linecap="round" stroke-linejoin="round" stroke-width="5.051" d="M-69.997 71.037H149.57c44.923 0 15.733 92.844 70.647 92.844h243.118" class="svg-elem-11"/><path stroke="url(#l)" stroke-linecap="round" stroke-linejoin="round" stroke-width="5.051" d="M-69.997 81.643H149.57c44.923 0 15.733 92.843 70.647 92.843h243.118" class="svg-elem-12"/><path stroke="url(#m)" stroke-linecap="round" stroke-linejoin="round" stroke-width="5.051" d="M-69.997 267.287H149.57c44.923 0 15.733-92.844 70.647-92.844h243.118" class="svg-elem-13"/><path stroke="url(#n)" stroke-linecap="round" stroke-linejoin="round" stroke-width="5.051" d="M-69.997 256.682H149.57c44.923 0 15.733-92.844 70.647-92.844h243.118" class="svg-elem-14"/><path stroke="url(#o)" stroke-linecap="round" stroke-linejoin="round" stroke-width="5.051" d="M-69.997 246.075H149.57c44.923 0 15.733-92.844 70.647-92.844h243.118" class="svg-elem-15"/><path stroke="url(#p)" stroke-linecap="round" stroke-width="5.051" d="M-69.997 18.082H149.57c44.923 0 15.733 92.844 70.647 92.844h243.118" class="svg-elem-16"/><path stroke="url(#q)" stroke-linecap="round" stroke-width="5.051" d="M-69.997 28.688H149.57c44.923 0 15.733 92.843 70.647 92.843h243.118" class="svg-elem-17"/><path stroke="url(#r)" stroke-linecap="round" stroke-width="5.051" d="M-69.997 28.688H149.57c44.923 0 15.733 92.843 70.647 92.843h243.118" class="svg-elem-18"/><path stroke="url(#s)" stroke-linecap="round" stroke-width="5.051" d="M-69.997 28.688H149.57c44.923 0 15.733 92.843 70.647 92.843h243.118" class="svg-elem-19"/><path stroke="url(#t)" stroke-linecap="round" stroke-width="5.051" d="M-69.997 39.294H149.57c44.923 0 15.733 92.844 70.647 92.844h243.118" class="svg-elem-20"/><path stroke="url(#u)" stroke-linecap="round" stroke-width="5.051" d="M-69.997 39.294H149.57c44.923 0 15.733 92.844 70.647 92.844h243.118" class="svg-elem-21"/><path stroke="url(#v)" stroke-linecap="round" stroke-width="5.051" d="M-69.997 39.294H149.57c44.923 0 15.733 92.844 70.647 92.844h243.118" class="svg-elem-22"/><path stroke="url(#w)" stroke-linecap="round" stroke-width="5.051" d="M-69.997 49.9H149.57c44.923 0 15.733 92.843 70.647 92.843h243.118" class="svg-elem-23"/><path stroke="url(#x)" stroke-linecap="round" stroke-width="5.051" d="M-69.997 49.9H149.57c44.923 0 15.733 92.843 70.647 92.843h243.118" class="svg-elem-24"/><path stroke="url(#y)" stroke-linecap="round" stroke-width="5.051" d="M-69.997 49.9H149.57c44.923 0 15.733 92.843 70.647 92.843h243.118" class="svg-elem-25"/><path stroke="url(#z)" stroke-linecap="round" stroke-width="5.051" d="M-69.997 60.506H149.57c44.923 0 15.733 92.844 70.647 92.844h243.118" class="svg-elem-26"/><path stroke="url(#A)" stroke-linecap="round" stroke-width="5.051" d="M-69.997 60.506H149.57c44.923 0 15.733 92.844 70.647 92.844h243.118" class="svg-elem-27"/><path stroke="url(#B)" stroke-linecap="round" stroke-width="5.051" d="M-69.997 60.506H149.57c44.923 0 15.733 92.844 70.647 92.844h243.118" class="svg-elem-28"/><path stroke="url(#C)" stroke-linecap="round" stroke-width="5.051" d="M-69.997 71.111H149.57c44.923 0 15.733 92.844 70.647 92.844h243.118" class="svg-elem-29"/><path stroke="url(#D)" stroke-linecap="round" stroke-width="5.051" d="M-69.997 71.111H149.57c44.923 0 15.733 92.844 70.647 92.844h243.118" class="svg-elem-30"/><path stroke="url(#E)" stroke-linecap="round" stroke-width="5.051" d="M-69.997 71.111H149.57c44.923 0 15.733 92.844 70.647 92.844h243.118" class="svg-elem-31"/><path stroke="url(#F)" stroke-linecap="round" stroke-width="5.051" d="M-69.997 81.717H149.57c44.923 0 15.733 92.844 70.647 92.844h243.118" class="svg-elem-32"/><path stroke="url(#G)" stroke-linecap="round" stroke-width="5.051" d="M-69.997 81.717H149.57c44.923 0 15.733 92.844 70.647 92.844h243.118" class="svg-elem-33"/><path stroke="url(#H)" stroke-linecap="round" stroke-width="5.051" d="M-69.997 81.717H149.57c44.923 0 15.733 92.844 70.647 92.844h243.118" class="svg-elem-34"/><path stroke="url(#I)" stroke-linecap="round" stroke-width="5.051" d="M-69.997 267.361H149.57c44.923 0 15.733-92.844 70.647-92.844h243.118" class="svg-elem-35"/><path stroke="url(#J)" stroke-linecap="round" stroke-width="5.051" d="M-69.997 267.361H149.57c44.923 0 15.733-92.844 70.647-92.844h243.118" class="svg-elem-36"/><path stroke="url(#K)" stroke-linecap="round" stroke-width="5.051" d="M-69.997 267.361H149.57c44.923 0 15.733-92.844 70.647-92.844h243.118" class="svg-elem-37"/><path stroke="url(#L)" stroke-linecap="round" stroke-width="5.051" d="M-69.997 256.756H149.57c44.923 0 15.733-92.844 70.647-92.844h243.118" class="svg-elem-38"/><path stroke="url(#M)" stroke-linecap="round" stroke-width="5.051" d="M-69.997 256.756H149.57c44.923 0 15.733-92.844 70.647-92.844h243.118" class="svg-elem-39"/><path stroke="url(#N)" stroke-linecap="round" stroke-width="5.051" d="M-69.997 256.756H149.57c44.923 0 15.733-92.844 70.647-92.844h243.118" class="svg-elem-40"/><path stroke="url(#O)" stroke-linecap="round" stroke-width="5.051" d="M-69.997 246.149H149.57c44.923 0 15.733-92.843 70.647-92.843h243.118" class="svg-elem-41"/><mask id="Q" width="152" height="79" x="413" y="153" maskUnits="userSpaceOnUse" style="mask-type:alpha"><path fill="url(#P)" d="M413.008 153.941h151.931v77.837H413.008z" class="svg-elem-42"/></mask><g mask="url(#Q)"><ellipse cx="488.973" cy="191.364" fill="url(#R)" class="svg-elem-43" rx="75.966" ry="30.686"/></g><g filter="url(#S)"><path fill="url(#T)" d="M488.937 215.283c35.881 0 64.969-12.519 64.969-27.962v-21.382H423.968v21.382c0 15.443 29.087 27.962 64.969 27.962" class="svg-elem-44"/><ellipse cx="488.937" cy="165.938" fill="url(#U)" class="svg-elem-45" rx="64.969" ry="23.027"/><ellipse cx="488.937" cy="165.938" fill="url(#V)" fill-opacity=".44" class="svg-elem-46" rx="64.969" ry="23.027"/><path fill="url(#W)" d="M488.936 185.676c34.065 0 61.68-9.598 61.68-21.437v-16.393H427.257v16.393c0 11.839 27.615 21.437 61.679 21.437" class="svg-elem-47"/><path fill="#C6D4DB" fill-opacity=".284" d="M488.936 185.676c34.065 0 61.68-9.598 61.68-21.437v-16.393H427.257v16.393c0 11.839 27.615 21.437 61.679 21.437" class="svg-elem-48"/><path fill="url(#X)" d="M488.936 178.917c34.065 0 61.68-9.598 61.68-21.438v-16.393H427.257v16.393c0 11.84 27.615 21.438 61.679 21.438" class="svg-elem-49" opacity=".5"/><path fill="url(#Y)" d="M488.937 175.808c35.881 0 64.969-10.587 64.969-23.646v-22.408H423.968v22.408c0 13.059 29.087 23.646 64.969 23.646" class="svg-elem-50"/><ellipse cx="488.937" cy="128.109" fill="url(#Z)" class="svg-elem-51" rx="64.969" ry="24.672"/><ellipse cx="488.937" cy="128.109" fill="url(#aa)" fill-opacity=".44" class="svg-elem-52" rx="64.969" ry="24.672"/><path fill="url(#ab)" d="M488.936 149.492c34.065 0 61.68-10.015 61.68-22.369v-17.106H427.257v17.106c0 12.354 27.615 22.369 61.679 22.369" class="svg-elem-53"/><path fill="#C6D4DB" fill-opacity=".284" d="M488.936 149.492c34.065 0 61.68-10.015 61.68-22.369v-17.106H427.257v17.106c0 12.354 27.615 22.369 61.679 22.369" class="svg-elem-54"/><path fill="url(#ac)" d="M488.936 141.981c34.065 0 61.68-10.015 61.68-22.369v-17.106H427.257v17.106c0 12.354 27.615 22.369 61.679 22.369" class="svg-elem-55" opacity=".5"/><path fill="url(#ad)" d="M488.937 138.751c35.881 0 64.969-10.746 64.969-24.002V92.006H423.968v22.743c0 13.256 29.087 24.002 64.969 24.002" class="svg-elem-56"/><ellipse cx="488.939" cy="91.253" fill="url(#ae)" class="svg-elem-57" rx="64.969" ry="24.002"/><path stroke="url(#af)" stroke-opacity=".46" stroke-width="2.253" d="M552.781 91.253c0 2.87-1.57 5.743-4.72 8.494-3.147 2.749-7.767 5.276-13.573 7.421-11.602 4.286-27.706 6.96-45.549 6.96s-33.947-2.674-45.55-6.96c-5.806-2.145-10.425-4.672-13.573-7.421-3.149-2.751-4.72-5.625-4.72-8.494 0-2.87 1.571-5.743 4.72-8.494s7.767-5.276 13.573-7.421c11.603-4.286 27.707-6.96 45.55-6.96s33.947 2.674 45.549 6.96c5.806 2.145 10.426 4.672 13.573 7.42 3.15 2.752 4.72 5.626 4.72 8.495Z" class="svg-elem-58"/></g><g filter="url(#ag)"><rect width="55.239" height="55.239" x="514.566" y="60.74" fill="#FF4F56" class="svg-elem-59" rx="27.62"/></g><path fill="#fff" fill-rule="evenodd" d="m542.541 91.908 8.525 8.676 3.436-3.376-8.523-8.677 8.677-8.526-3.377-3.437-8.678 8.525-8.523-8.676-3.438 3.376 8.525 8.678-8.675 8.523 3.377 3.437z" class="svg-elem-60" clip-rule="evenodd"/></g><defs><linearGradient id="b" x1="657.271" x2="-147.206" y1="235.47" y2="265.238" gradientUnits="userSpaceOnUse"><stop stop-color="#6B8692"/><stop offset=".992" stop-color="#fff"/></linearGradient><linearGradient id="c" x1="657.271" x2="-147.206" y1="224.863" y2="254.631" gradientUnits="userSpaceOnUse"><stop stop-color="#6B8692"/><stop offset=".992" stop-color="#fff"/></linearGradient><linearGradient id="d" x1="657.271" x2="-147.206" y1="214.258" y2="244.026" gradientUnits="userSpaceOnUse"><stop stop-color="#6B8692"/><stop offset=".992" stop-color="#fff"/></linearGradient><linearGradient id="e" x1="657.271" x2="-147.206" y1="203.652" y2="233.42" gradientUnits="userSpaceOnUse"><stop stop-color="#6B8692"/><stop offset=".992" stop-color="#fff"/></linearGradient><linearGradient id="f" x1="657.271" x2="-147.206" y1="18.008" y2="-11.76" gradientUnits="userSpaceOnUse"><stop stop-color="#6B8692"/><stop offset=".992" stop-color="#fff"/></linearGradient><linearGradient id="g" x1="657.271" x2="-147.206" y1="28.613" y2="-1.155" gradientUnits="userSpaceOnUse"><stop stop-color="#6B8692"/><stop offset=".992" stop-color="#fff"/></linearGradient><linearGradient id="h" x1="657.271" x2="-147.206" y1="39.22" y2="9.452" gradientUnits="userSpaceOnUse"><stop stop-color="#6B8692"/><stop offset=".992" stop-color="#fff"/></linearGradient><linearGradient id="i" x1="657.271" x2="-147.206" y1="49.825" y2="20.057" gradientUnits="userSpaceOnUse"><stop stop-color="#6B8692"/><stop offset=".992" stop-color="#fff"/></linearGradient><linearGradient id="j" x1="657.271" x2="-147.206" y1="60.432" y2="30.664" gradientUnits="userSpaceOnUse"><stop stop-color="#6B8692"/><stop offset=".992" stop-color="#fff"/></linearGradient><linearGradient id="k" x1="657.271" x2="-147.206" y1="71.037" y2="41.269" gradientUnits="userSpaceOnUse"><stop stop-color="#6B8692"/><stop offset=".992" stop-color="#fff"/></linearGradient><linearGradient id="l" x1="657.271" x2="-147.206" y1="81.643" y2="51.875" gradientUnits="userSpaceOnUse"><stop stop-color="#6B8692"/><stop offset=".992" stop-color="#fff"/></linearGradient><linearGradient id="m" x1="657.271" x2="-147.206" y1="267.287" y2="297.055" gradientUnits="userSpaceOnUse"><stop stop-color="#6B8692"/><stop offset=".992" stop-color="#fff"/></linearGradient><linearGradient id="n" x1="657.271" x2="-147.206" y1="256.682" y2="286.45" gradientUnits="userSpaceOnUse"><stop stop-color="#6B8692"/><stop offset=".992" stop-color="#fff"/></linearGradient><linearGradient id="o" x1="657.271" x2="-147.206" y1="246.075" y2="275.843" gradientUnits="userSpaceOnUse"><stop stop-color="#6B8692"/><stop offset=".992" stop-color="#fff"/></linearGradient><linearGradient id="p" x1="536.483" x2="-20.142" y1="110.926" y2="-45.727" gradientUnits="userSpaceOnUse"><stop stop-color="#00A043"/><stop offset=".992" stop-color="#E4FDEE"/></linearGradient><linearGradient id="q" x1="156.669" x2="156.272" y1="28.688" y2="137.461" gradientUnits="userSpaceOnUse"><stop stop-color="#00A043"/><stop offset=".992" stop-color="#94E2B5"/></linearGradient><linearGradient id="r" x1="536.483" x2="-20.142" y1="121.531" y2="-35.122" gradientUnits="userSpaceOnUse"><stop stop-color="#00A043"/><stop offset=".992" stop-color="#fff"/></linearGradient><linearGradient id="s" x1="536.483" x2="-20.142" y1="121.531" y2="-35.122" gradientUnits="userSpaceOnUse"><stop stop-color="#00A043"/><stop offset=".992" stop-color="#E4FDEE"/></linearGradient><linearGradient id="t" x1="156.669" x2="156.272" y1="39.294" y2="148.068" gradientUnits="userSpaceOnUse"><stop stop-color="#00A043"/><stop offset=".992" stop-color="#94E2B5"/></linearGradient><linearGradient id="u" x1="536.483" x2="-20.142" y1="132.138" y2="-24.515" gradientUnits="userSpaceOnUse"><stop stop-color="#00A043"/><stop offset=".992" stop-color="#fff"/></linearGradient><linearGradient id="v" x1="536.483" x2="-20.142" y1="132.138" y2="-24.515" gradientUnits="userSpaceOnUse"><stop stop-color="#00A043"/><stop offset=".992" stop-color="#E4FDEE"/></linearGradient><linearGradient id="w" x1="156.669" x2="156.272" y1="49.899" y2="158.673" gradientUnits="userSpaceOnUse"><stop stop-color="#00A043"/><stop offset=".992" stop-color="#94E2B5"/></linearGradient><linearGradient id="x" x1="536.483" x2="-20.142" y1="142.743" y2="-13.91" gradientUnits="userSpaceOnUse"><stop stop-color="#00A043"/><stop offset=".992" stop-color="#fff"/></linearGradient><linearGradient id="y" x1="536.483" x2="-20.142" y1="142.743" y2="-13.91" gradientUnits="userSpaceOnUse"><stop stop-color="#00A043"/><stop offset=".992" stop-color="#E4FDEE"/></linearGradient><linearGradient id="z" x1="156.669" x2="156.272" y1="60.506" y2="169.28" gradientUnits="userSpaceOnUse"><stop stop-color="#00A043"/><stop offset=".992" stop-color="#94E2B5"/></linearGradient><linearGradient id="A" x1="536.483" x2="-20.142" y1="153.35" y2="-3.303" gradientUnits="userSpaceOnUse"><stop stop-color="#00A043"/><stop offset=".992" stop-color="#fff"/></linearGradient><linearGradient id="B" x1="536.483" x2="-20.142" y1="153.35" y2="-3.303" gradientUnits="userSpaceOnUse"><stop stop-color="#00A043"/><stop offset=".992" stop-color="#E4FDEE"/></linearGradient><linearGradient id="C" x1="156.669" x2="156.272" y1="71.111" y2="179.885" gradientUnits="userSpaceOnUse"><stop stop-color="#00A043"/><stop offset=".992" stop-color="#94E2B5"/></linearGradient><linearGradient id="D" x1="536.483" x2="-20.142" y1="163.955" y2="7.302" gradientUnits="userSpaceOnUse"><stop stop-color="#00A043"/><stop offset=".992" stop-color="#fff"/></linearGradient><linearGradient id="E" x1="536.483" x2="-20.142" y1="163.955" y2="7.302" gradientUnits="userSpaceOnUse"><stop stop-color="#00A043"/><stop offset=".992" stop-color="#E4FDEE"/></linearGradient><linearGradient id="F" x1="156.669" x2="156.272" y1="81.717" y2="190.491" gradientUnits="userSpaceOnUse"><stop stop-color="#00A043"/><stop offset=".992" stop-color="#94E2B5"/></linearGradient><linearGradient id="G" x1="536.483" x2="-20.142" y1="174.561" y2="17.908" gradientUnits="userSpaceOnUse"><stop stop-color="#00A043"/><stop offset=".992" stop-color="#fff"/></linearGradient><linearGradient id="H" x1="536.483" x2="-20.142" y1="174.561" y2="17.908" gradientUnits="userSpaceOnUse"><stop stop-color="#00A043"/><stop offset=".992" stop-color="#E4FDEE"/></linearGradient><linearGradient id="I" x1="156.669" x2="156.272" y1="267.361" y2="158.587" gradientUnits="userSpaceOnUse"><stop stop-color="#fff"/><stop offset="1" stop-color="#FF4F56"/></linearGradient><linearGradient id="J" x1="-33.171" x2="333.593" y1="185.9" y2="139.26" gradientUnits="userSpaceOnUse"><stop stop-color="#fff"/><stop offset="1" stop-color="#FF4F56"/></linearGradient><linearGradient id="K" x1="-33.171" x2="333.593" y1="185.9" y2="139.26" gradientUnits="userSpaceOnUse"><stop stop-color="#FFEAEA"/><stop offset="1" stop-color="#FF4F56"/></linearGradient><linearGradient id="L" x1="156.669" x2="156.272" y1="256.756" y2="147.982" gradientUnits="userSpaceOnUse"><stop stop-color="#fff"/><stop offset="1" stop-color="#FF4F56"/></linearGradient><linearGradient id="M" x1="-33.171" x2="333.593" y1="175.295" y2="128.655" gradientUnits="userSpaceOnUse"><stop stop-color="#fff"/><stop offset="1" stop-color="#FF4F56"/></linearGradient><linearGradient id="N" x1="-33.171" x2="333.593" y1="175.295" y2="128.655" gradientUnits="userSpaceOnUse"><stop stop-color="#FFEAEA"/><stop offset="1" stop-color="#FF4F56"/></linearGradient><linearGradient id="O" x1="-33.171" x2="333.593" y1="164.688" y2="118.048" gradientUnits="userSpaceOnUse"><stop stop-color="#FFEAEA"/><stop offset="1" stop-color="#FF4F56"/></linearGradient><linearGradient id="P" x1="448.184" x2="431.719" y1="192.859" y2="162.174" gradientUnits="userSpaceOnUse"><stop stop-color="#C4C4C4"/><stop offset="1" stop-color="#C4C4C4" stop-opacity="0"/></linearGradient><linearGradient id="T" x1="423.968" x2="553.906" y1="157.996" y2="157.996" gradientUnits="userSpaceOnUse"><stop stop-color="#B4C5CD"/><stop offset=".718" stop-color="#6C8A98"/><stop offset="1" stop-color="#6B8692"/></linearGradient><linearGradient id="U" x1="531.957" x2="466.018" y1="134.355" y2="195.63" gradientUnits="userSpaceOnUse"><stop stop-color="#648697"/><stop offset="1" stop-color="#B8CCD5"/></linearGradient><linearGradient id="W" x1="427.257" x2="550.616" y1="141.756" y2="141.756" gradientUnits="userSpaceOnUse"><stop stop-color="#183C56"/><stop offset=".286" stop-color="#335D7B"/><stop offset="1" stop-color="#082133"/></linearGradient><linearGradient id="X" x1="427.257" x2="550.616" y1="134.997" y2="134.997" gradientUnits="userSpaceOnUse"><stop stop-color="#183C56"/><stop offset=".286" stop-color="#335D7B"/><stop offset="1" stop-color="#082133"/></linearGradient><linearGradient id="Y" x1="423.968" x2="553.906" y1="127.361" y2="127.361" gradientUnits="userSpaceOnUse"><stop stop-color="#B4C5CD"/><stop offset=".718" stop-color="#6C8A98"/><stop offset="1" stop-color="#6B8692"/></linearGradient><linearGradient id="Z" x1="531.957" x2="461.83" y1="94.269" y2="155.093" gradientUnits="userSpaceOnUse"><stop stop-color="#648697"/><stop offset="1" stop-color="#B8CCD5"/></linearGradient><linearGradient id="ab" x1="427.257" x2="550.616" y1="103.663" y2="103.663" gradientUnits="userSpaceOnUse"><stop stop-color="#183C56"/><stop offset=".286" stop-color="#335D7B"/><stop offset="1" stop-color="#082133"/></linearGradient><linearGradient id="ac" x1="427.257" x2="550.616" y1="96.151" y2="96.151" gradientUnits="userSpaceOnUse"><stop stop-color="#183C56"/><stop offset=".286" stop-color="#335D7B"/><stop offset="1" stop-color="#082133"/></linearGradient><linearGradient id="ad" x1="423.968" x2="553.906" y1="89.577" y2="89.577" gradientUnits="userSpaceOnUse"><stop stop-color="#B4C5CD"/><stop offset=".718" stop-color="#6C8A98"/><stop offset="1" stop-color="#6B8692"/></linearGradient><linearGradient id="ae" x1="532.837" x2="475.706" y1="72.825" y2="134.69" gradientUnits="userSpaceOnUse"><stop stop-color="#B9CAD2"/><stop offset="1" stop-color="#DBE6EB"/></linearGradient><radialGradient id="R" cx="0" cy="0" r="1" gradientTransform="matrix(0 30.6856 -75.9656 0 488.99 191.386)" gradientUnits="userSpaceOnUse"><stop offset=".604" stop-color="#071B29"/><stop offset=".849" stop-color="#071B29" stop-opacity=".17"/><stop offset="1" stop-color="#071B29" stop-opacity="0"/></radialGradient><radialGradient id="V" cx="0" cy="0" r="1" gradientTransform="matrix(-28.54123 -23.13368 19.85038 -24.49044 452.509 189.054)" gradientUnits="userSpaceOnUse"><stop stop-color="#fff"/><stop offset="1" stop-color="#fff" stop-opacity="0"/></radialGradient><radialGradient id="aa" cx="0" cy="0" r="1" gradientTransform="rotate(-139.028 254.812 -8.092)scale(37.8014 32.8276)" gradientUnits="userSpaceOnUse"><stop stop-color="#fff"/><stop offset="1" stop-color="#fff" stop-opacity="0"/></radialGradient><radialGradient id="af" cx="0" cy="0" r="1" gradientTransform="matrix(46.56758 -32.29665 87.42267 126.05214 442.744 111.565)" gradientUnits="userSpaceOnUse"><stop stop-color="#fff"/><stop offset="1" stop-color="#fff" stop-opacity="0"/></radialGradient><filter id="S" width="136.483" height="156.555" x="420.731" y="66.756" color-interpolation-filters="sRGB" filterUnits="userSpaceOnUse"><feFlood flood-opacity="0" result="BackgroundImageFix"/><feColorMatrix in="SourceAlpha" result="hardAlpha" values="0 0 0 0 0 0 0 0 0 0 0 0 0 0 0 0 0 0 127 0"/><feOffset dy="5.018"/><feGaussianBlur stdDeviation="1.505"/><feColorMatrix values="0 0 0 0 0.0901961 0 0 0 0 0.168627 0 0 0 0 0.301961 0 0 0 0.08 0"/><feBlend in2="BackgroundImageFix" result="effect1_dropShadow_1786_5509"/><feColorMatrix in="SourceAlpha" result="hardAlpha" values="0 0 0 0 0 0 0 0 0 0 0 0 0 0 0 0 0 0 127 0"/><feOffset dy="3.011"/><feGaussianBlur stdDeviation="1.004"/><feColorMatrix values="0 0 0 0 0.0901961 0 0 0 0 0.168627 0 0 0 0 0.301961 0 0 0 0.04 0"/><feBlend in2="effect1_dropShadow_1786_5509" result="effect2_dropShadow_1786_5509"/><feBlend in="SourceGraphic" in2="effect2_dropShadow_1786_5509" result="shape"/></filter><filter id="ag" width="55.239" height="55.239" x="514.566" y="60.74" color-interpolation-filters="sRGB" filterUnits="userSpaceOnUse"><feFlood flood-opacity="0" result="BackgroundImageFix"/><feBlend in="SourceGraphic" in2="BackgroundImageFix" result="shape"/><feColorMatrix in="SourceAlpha" result="hardAlpha" values="0 0 0 0 0 0 0 0 0 0 0 0 0 0 0 0 0 0 127 0"/><feOffset dy=".842"/><feComposite in2="hardAlpha" k2="-1" k3="1" operator="arithmetic"/><feColorMatrix values="0 0 0 0 1 0 0 0 0 1 0 0 0 0 1 0 0 0 0.4 0"/><feBlend in2="shape" result="effect1_innerShadow_1786_5509"/></filter><clipPath id="a"><path fill="#fff" d="M0 0h582v287H0z" class="svg-elem-61"/></clipPath></defs></svg>