<svg xmlns="http://www.w3.org/2000/svg" fill="none" viewBox="0 0 844 474" height="474" width="844">
<g clip-path="url(#clip0_8784_9448)">
<rect fill="url(#paint0_linear_8784_9448)" height="474" width="844"></rect>
<rect fill-opacity="0.05" fill="white" height="57" width="844" y="-3"></rect>
<rect fill-opacity="0.05" fill="white" height="57" width="844" y="57"></rect>
<rect fill-opacity="0.05" fill="white" height="57" width="844" y="117"></rect>
<rect fill-opacity="0.05" fill="white" height="57" width="392" y="177" x="452"></rect>
<rect fill-opacity="0.05" fill="white" height="57" width="326" y="237" x="518"></rect>
<rect fill-opacity="0.05" fill="white" height="57" width="844" y="297"></rect>
<rect fill-opacity="0.05" fill="white" transform="matrix(-1 0 0 1 76 177)" height="57" width="76"></rect>
<rect fill-opacity="0.05" fill="white" transform="matrix(-1 0 0 1 76 237)" height="57" width="76"></rect>
<rect fill-opacity="0.05" fill="white" height="57" width="844" y="358"></rect>
<rect fill-opacity="0.05" fill="white" height="57" width="844" y="417"></rect>
<path fill="white" d="M772.854 136.283C773.011 134.634 771.802 133.169 770.152 133.012L743.274 130.451C741.625 130.294 740.16 131.504 740.003 133.153C739.846 134.803 741.056 136.267 742.705 136.424L766.597 138.701L764.321 162.592C764.164 164.242 765.373 165.706 767.023 165.863C768.672 166.021 770.136 164.811 770.294 163.161L772.854 136.283ZM504.454 331.126L506.725 329.166L504.454 331.126ZM530.939 333.362L532.849 335.675L530.939 333.362ZM492.169 316.89L489.898 318.85L492.169 316.89ZM282.127 435.109L280.074 437.297L282.127 435.109ZM306.675 436.34L304.851 433.958L306.675 436.34ZM253.755 408.492L251.703 410.68L253.755 408.492ZM-39.2868 603.574L231.428 409.348L227.931 404.473L-42.7845 598.699L-39.2868 603.574ZM251.703 410.68L280.074 437.297L284.179 432.921L255.808 406.304L251.703 410.68ZM308.498 438.723L468.06 316.597L464.413 311.832L304.851 433.958L308.498 438.723ZM489.898 318.85L502.182 333.086L506.725 329.166L494.441 314.93L489.898 318.85ZM532.849 335.675L771.778 138.312L767.957 133.686L529.028 331.049L532.849 335.675ZM502.182 333.086C509.999 342.145 523.624 343.296 532.849 335.675L529.028 331.049C522.319 336.592 512.41 335.755 506.725 329.166L502.182 333.086ZM468.06 316.597C474.787 311.448 484.363 312.435 489.898 318.85L494.441 314.93C486.83 306.11 473.664 304.752 464.413 311.832L468.06 316.597ZM280.074 437.297C287.924 444.662 299.95 445.265 308.498 438.723L304.851 433.958C298.635 438.716 289.888 438.277 284.179 432.921L280.074 437.297ZM231.428 409.348C237.637 404.893 246.13 405.451 251.703 410.68L255.808 406.304C248.145 399.115 236.468 398.348 227.931 404.473L231.428 409.348Z"></path>
<path stroke-width="4.01869" stroke="#1A202C" fill="#1A202C" d="M681.519 255.066C675.308 260.164 674.406 269.331 679.504 275.542C684.602 281.753 693.77 282.655 699.981 277.557C704.371 273.953 708.793 269.288 712.5 263.385C716.773 256.58 714.72 247.599 707.915 243.326C701.11 239.053 692.13 241.106 687.857 247.911C686.027 250.825 683.807 253.187 681.519 255.066Z"></path>
<path stroke-width="4.01869" stroke="#1A202C" fill="white" d="M672.587 260.101C664.77 261.962 659.942 269.807 661.803 277.624C663.664 285.441 671.509 290.269 679.326 288.408C684.688 287.131 692.54 283.666 699.981 277.558C706.192 272.46 707.094 263.293 701.996 257.082C696.898 250.871 687.73 249.969 681.519 255.067C677.344 258.494 673.466 259.891 672.587 260.101Z"></path>
<rect stroke-width="4.01869" stroke="#1A202C" fill="#1A202C" transform="matrix(0.960403 0.278615 -0.278618 0.960402 608.897 279.728)" rx="16.6571" height="65.9007" width="33.3142" y="-2.48961" x="-1.36994"></rect>
<rect stroke-width="4.01869" stroke="#1A202C" fill="#1A202C" transform="matrix(0.964879 -0.262695 0.262698 0.964878 644.475 286.115)" rx="16.6571" height="65.9007" width="33.3142" y="-1.41093" x="-2.46663"></rect>
<path stroke-width="4.01869" stroke="#1A202C" fill="white" d="M617.931 251.327C602.616 251.327 590.202 263.741 590.202 279.056V285.661C590.202 308.744 608.914 327.456 631.996 327.456H639.783C662.865 327.456 681.577 308.744 681.577 285.661V279.056C681.577 263.741 669.162 251.327 653.848 251.327H617.931Z"></path>
<path stroke-width="4.01869" stroke="#1A202C" fill="#E2E8F0" d="M671.541 277.808C676.861 277.545 681.388 281.644 681.651 286.964L682.711 308.373C682.974 313.693 678.875 318.219 673.555 318.483L634.667 320.408C626.465 320.814 619.487 314.494 619.081 306.292L618.538 295.32C618.132 287.118 624.451 280.14 632.653 279.734L671.541 277.808Z"></path>
<path stroke-width="4.01869" stroke="#1A202C" fill="white" d="M671.942 277.788C677.041 277.536 681.379 281.464 681.631 286.563L682.453 303.155C682.859 311.357 676.539 318.335 668.337 318.741L641.501 320.07C633.299 320.476 626.321 314.156 625.915 305.954L625.093 289.362C624.841 284.264 628.769 279.926 633.868 279.673L671.942 277.788Z"></path>
<line stroke-width="2.41121" stroke="#1A202C" y2="296.336" x2="626.809" y1="293.329" x1="680.516"></line>
<path stroke-width="2.41121" stroke="#1A202C" fill="#7F9CF5" d="M671.181 298.759C668.669 298.883 666.808 296.675 666.687 294.228C666.566 291.781 668.2 289.4 670.712 289.275C673.224 289.151 675.085 291.359 675.206 293.806C675.327 296.253 673.693 298.634 671.181 298.759Z"></path>
<path stroke-width="4.01869" stroke="#1A202C" fill="#7F9CF5" d="M688.348 197.077L686.339 197.077L686.339 199.086L686.339 225.204L686.339 227.213L688.348 227.213C693.39 227.213 697.48 223.123 697.48 218.081L697.48 206.209C697.48 201.167 693.39 197.077 688.348 197.077Z"></path>
<rect stroke-width="4.01869" stroke="#1A202C" fill="#7F9CF5" transform="matrix(-0.999791 0.0204486 0.0204488 0.999791 676.214 245.709)" rx="12.5104" height="25.0209" width="73.3741" y="-2.05001" x="1.96784"></rect>
<ellipse fill="#1A202C" transform="matrix(-0.999791 0.0204486 0.0204488 0.999791 663.005 260.133)" ry="2.16871" rx="2.16872" cy="2.16871" cx="2.16872"></ellipse>
<ellipse fill="#1A202C" transform="matrix(-0.999791 0.0204486 0.0204488 0.999791 653.364 260.328)" ry="2.16871" rx="2.16872" cy="2.16871" cx="2.16872"></ellipse>
<rect fill="#C3DAFE" rx="26.1215" height="92.1393" width="89.8708" y="156.031" x="591.354"></rect>
<path stroke-linecap="round" stroke-miterlimit="10" stroke-width="6.43177" stroke="#1A202C" d="M625.109 201.894C627.712 199.29 631.934 199.29 634.538 201.894"></path>
<path stroke-linecap="round" stroke-miterlimit="10" stroke-width="6.43177" stroke="#1A202C" d="M661.725 201.894C664.329 199.29 668.551 199.29 671.155 201.894"></path>
<path stroke-linecap="round" stroke-miterlimit="10" stroke-width="4.01986" stroke="#1A202C" d="M655.137 218.469C655.137 222.219 652.098 225.258 648.35 225.258C644.601 225.258 641.562 222.219 641.562 218.469"></path>
<path stroke-linecap="round" stroke-miterlimit="10" stroke-width="4.82383" stroke="#1A202C" d="M625.147 214.191C627.751 211.587 631.972 211.587 634.576 214.191"></path>
<path stroke-linecap="round" stroke-miterlimit="10" stroke-width="4.82383" stroke="#1A202C" d="M661.763 214.191C664.367 211.587 668.589 211.587 671.193 214.191"></path>
<mask fill="black" height="119" width="112" y="143" x="580.434" maskUnits="userSpaceOnUse" id="path-31-outside-1_8784_9448">
<rect height="119" width="112" y="143" x="580.434" fill="white"></rect>
<path d="M687.157 223.052V198.861C687.157 170.773 664.385 148 636.296 148C608.207 148 585.434 170.773 585.434 198.861V223.052C585.434 241.78 600.614 256.959 619.342 256.959H653.25C671.978 256.959 687.157 241.78 687.157 223.052ZM683.358 227.631V197.452C683.391 191.291 679.54 185.778 673.743 183.695C669.443 182.075 665.032 180.768 660.548 179.782C657.536 179.121 654.429 180.146 652.248 182.326C650.457 184.118 648.027 185.124 645.493 185.124H638.829C636.325 185.124 633.924 184.13 632.153 182.359C629.997 180.203 626.927 179.19 623.949 179.843C619.445 180.83 615.016 182.141 610.699 183.768C604.898 185.818 601.017 191.3 601.011 197.452V227.631C600.999 233.801 604.883 239.308 610.699 241.364C620.611 245.106 631.131 246.971 641.724 246.862H642.79C653.334 246.952 663.803 245.087 673.67 241.364C679.486 239.308 683.37 233.801 683.358 227.631Z" clip-rule="evenodd" fill-rule="evenodd"></path>
</mask>
<path fill="white" d="M687.157 223.052V198.861C687.157 170.773 664.385 148 636.296 148C608.207 148 585.434 170.773 585.434 198.861V223.052C585.434 241.78 600.614 256.959 619.342 256.959H653.25C671.978 256.959 687.157 241.78 687.157 223.052ZM683.358 227.631V197.452C683.391 191.291 679.54 185.778 673.743 183.695C669.443 182.075 665.032 180.768 660.548 179.782C657.536 179.121 654.429 180.146 652.248 182.326C650.457 184.118 648.027 185.124 645.493 185.124H638.829C636.325 185.124 633.924 184.13 632.153 182.359C629.997 180.203 626.927 179.19 623.949 179.843C619.445 180.83 615.016 182.141 610.699 183.768C604.898 185.818 601.017 191.3 601.011 197.452V227.631C600.999 233.801 604.883 239.308 610.699 241.364C620.611 245.106 631.131 246.971 641.724 246.862H642.79C653.334 246.952 663.803 245.087 673.67 241.364C679.486 239.308 683.37 233.801 683.358 227.631Z" clip-rule="evenodd" fill-rule="evenodd"></path>
<path mask="url(#path-31-outside-1_8784_9448)" fill="#1A202C" d="M683.358 197.452L678.536 197.426L678.536 197.439V197.452H683.358ZM683.358 227.631H678.536L678.536 227.641L683.358 227.631ZM673.743 183.695L672.043 188.208L672.077 188.221L672.112 188.234L673.743 183.695ZM660.548 179.782L659.513 184.492L660.548 179.782ZM652.248 182.326L648.838 178.917H648.838L652.248 182.326ZM632.153 182.359L628.743 185.769V185.769L632.153 182.359ZM623.949 179.843L622.917 175.132V175.132L623.949 179.843ZM610.699 183.768L612.305 188.315L612.352 188.298L612.399 188.281L610.699 183.768ZM601.011 197.452L596.188 197.447V197.452H601.011ZM601.011 227.631L605.833 227.641V227.631H601.011ZM610.699 241.364L612.402 236.852L612.354 236.834L612.306 236.817L610.699 241.364ZM641.724 246.862V242.039H641.699L641.675 242.039L641.724 246.862ZM642.79 246.862L642.831 242.039L642.811 242.039H642.79V246.862ZM673.67 241.364L672.063 236.817L672.015 236.834L671.967 236.852L673.67 241.364ZM682.335 198.861V223.052H691.98V198.861H682.335ZM636.296 152.822C661.721 152.822 682.335 173.436 682.335 198.861H691.98C691.98 168.109 667.048 143.178 636.296 143.178V152.822ZM590.257 198.861C590.257 173.436 610.87 152.822 636.296 152.822V143.178C605.544 143.178 580.612 168.109 580.612 198.861H590.257ZM590.257 223.052V198.861H580.612V223.052H590.257ZM619.342 252.137C603.277 252.137 590.257 239.116 590.257 223.052H580.612C580.612 244.443 597.951 261.782 619.342 261.782V252.137ZM653.25 252.137H619.342V261.782H653.25V252.137ZM682.335 223.052C682.335 239.116 669.314 252.137 653.25 252.137V261.782C674.641 261.782 691.98 244.443 691.98 223.052H682.335ZM678.536 197.452V227.631H688.18V197.452H678.536ZM672.112 188.234C675.984 189.625 678.558 193.307 678.536 197.426L688.18 197.478C688.225 189.276 683.097 181.932 675.373 179.157L672.112 188.234ZM659.513 184.492C663.771 185.428 667.959 186.67 672.043 188.208L675.443 179.183C670.926 177.481 666.293 176.107 661.583 175.072L659.513 184.492ZM655.658 185.736C656.775 184.62 658.239 184.212 659.513 184.492L661.583 175.072C656.833 174.029 652.083 175.671 648.838 178.917L655.658 185.736ZM645.493 189.947C649.306 189.947 652.962 188.432 655.658 185.736L648.838 178.917C647.951 179.804 646.748 180.302 645.493 180.302V189.947ZM638.829 189.947H645.493V180.302H638.829V189.947ZM628.743 185.769C631.418 188.444 635.046 189.947 638.829 189.947V180.302C637.604 180.302 636.429 179.815 635.563 178.949L628.743 185.769ZM624.981 184.554C626.223 184.281 627.652 184.678 628.743 185.769L635.563 178.949C632.342 175.728 627.63 174.099 622.917 175.132L624.981 184.554ZM612.399 188.281C616.499 186.736 620.705 185.491 624.981 184.554L622.917 175.132C618.186 176.169 613.534 177.546 608.998 179.255L612.399 188.281ZM605.833 197.457C605.837 193.347 608.43 189.684 612.305 188.315L609.092 179.221C601.366 181.951 596.196 189.254 596.188 197.447L605.833 197.457ZM605.833 227.631V197.452H596.188V227.631H605.833ZM612.306 236.817C608.421 235.444 605.825 231.765 605.833 227.641L596.188 227.622C596.172 235.838 601.344 243.172 609.091 245.91L612.306 236.817ZM641.675 242.039C631.68 242.142 621.754 240.383 612.402 236.852L608.995 245.875C619.467 249.829 630.582 251.799 641.774 251.684L641.675 242.039ZM642.79 242.039H641.724V251.684H642.79V242.039ZM671.967 236.852C662.657 240.366 652.78 242.125 642.831 242.039L642.748 251.684C653.889 251.78 664.95 249.809 675.373 245.876L671.967 236.852ZM678.536 227.641C678.544 231.765 675.947 235.444 672.063 236.817L675.277 245.91C683.024 243.172 688.197 235.838 688.18 227.622L678.536 227.641Z"></path>
<rect stroke-width="4.01869" stroke="#1A202C" fill="#7F9CF5" rx="11.2642" height="29.9101" width="22.5284" y="197.077" x="571.53"></rect>
<g opacity="0.4" style="mix-blend-mode:overlay">
<path stroke-linejoin="round" stroke-linecap="round" stroke-miterlimit="10" stroke-width="4.01869" stroke="white" d="M624.117 189.945L614.258 193.082C613.212 193.232 611.121 194.606 611.121 198.908C611.121 203.21 611.121 205.037 611.121 208.324"></path>
</g>
<rect fill="#1A202C" height="6.86789" width="7.14263" y="164.219" x="638.785"></rect>
<path stroke-width="4.79999" stroke="#1A202C" fill="white" d="M650.938 175.81L650.269 173.505L650.938 175.81C652.991 175.214 654.158 172.913 653.184 170.868L644.916 153.527C643.692 150.96 640.104 150.783 638.601 153.154L629.551 167.428L631.578 168.713L629.551 167.428C628.806 168.603 628.818 170.099 629.581 171.262L634.037 178.059C634.921 179.408 636.577 179.976 638.077 179.541L650.938 175.81ZM642.796 165.002L645.117 170.195L641.501 171.239L642.796 165.002Z"></path>
<path stroke-width="4.01869" stroke="#1A202C" fill="#1A202C" d="M593.55 291.832C598.939 285.871 598.475 276.671 592.515 271.282C586.554 265.894 577.354 266.357 571.965 272.318C568.156 276.532 564.473 281.799 561.68 288.186C558.46 295.548 561.819 304.126 569.181 307.346C576.543 310.565 585.121 307.207 588.34 299.845C589.719 296.693 591.565 294.028 593.55 291.832Z"></path>
<path stroke-width="4.01869" stroke="#1A202C" fill="white" d="M601.639 285.534C609.094 282.537 612.709 274.064 609.712 266.608C606.716 259.153 598.243 255.538 590.787 258.535C585.673 260.59 578.419 265.179 571.964 272.319C566.575 278.28 567.039 287.48 572.999 292.869C578.96 298.257 588.16 297.794 593.549 291.833C597.171 287.827 600.8 285.871 601.639 285.534Z"></path>
<path fill="white" d="M93.0341 226V191.091H116.557V197.176H100.415V205.494H115.347V211.58H100.415V219.915H116.625V226H93.0341ZM127.397 199.818L132.203 208.972L137.129 199.818H144.578L136.993 212.909L144.783 226H137.368L132.203 216.949L127.124 226H119.624L127.397 212.909L119.897 199.818H127.397ZM161.857 199.818V205.273H146.09V199.818H161.857ZM149.669 193.545H156.931V217.955C156.931 218.625 157.033 219.148 157.238 219.523C157.442 219.886 157.726 220.142 158.09 220.29C158.465 220.437 158.897 220.511 159.385 220.511C159.726 220.511 160.067 220.483 160.408 220.426C160.749 220.358 161.01 220.307 161.192 220.273L162.334 225.676C161.971 225.79 161.459 225.92 160.8 226.068C160.141 226.227 159.34 226.324 158.397 226.358C156.647 226.426 155.113 226.193 153.794 225.659C152.488 225.125 151.471 224.295 150.743 223.17C150.016 222.045 149.658 220.625 149.669 218.909V193.545ZM177.278 226.511C174.584 226.511 172.266 225.966 170.323 224.875C168.391 223.773 166.903 222.216 165.857 220.205C164.812 218.182 164.289 215.79 164.289 213.028C164.289 210.335 164.812 207.972 165.857 205.938C166.903 203.903 168.374 202.318 170.272 201.182C172.181 200.045 174.42 199.477 176.988 199.477C178.715 199.477 180.323 199.756 181.812 200.312C183.312 200.858 184.619 201.682 185.732 202.784C186.857 203.886 187.732 205.273 188.357 206.943C188.982 208.602 189.295 210.545 189.295 212.773V214.767H167.187V210.267H182.459C182.459 209.222 182.232 208.295 181.778 207.489C181.323 206.682 180.692 206.051 179.886 205.597C179.09 205.131 178.164 204.898 177.107 204.898C176.005 204.898 175.028 205.153 174.175 205.665C173.334 206.165 172.675 206.841 172.198 207.693C171.721 208.534 171.477 209.472 171.465 210.506V214.784C171.465 216.08 171.704 217.199 172.181 218.142C172.67 219.085 173.357 219.812 174.244 220.324C175.13 220.835 176.181 221.091 177.397 221.091C178.204 221.091 178.942 220.977 179.613 220.75C180.283 220.523 180.857 220.182 181.334 219.727C181.812 219.273 182.175 218.716 182.425 218.057L189.141 218.5C188.8 220.114 188.102 221.523 187.045 222.727C185.999 223.92 184.647 224.852 182.988 225.523C181.34 226.182 179.437 226.511 177.278 226.511ZM200.335 210.864V226H193.073V199.818H199.994V204.438H200.301C200.88 202.915 201.852 201.71 203.215 200.824C204.579 199.926 206.232 199.477 208.176 199.477C209.994 199.477 211.579 199.875 212.931 200.67C214.284 201.466 215.335 202.602 216.085 204.08C216.835 205.545 217.21 207.295 217.21 209.33V226H209.948V210.625C209.96 209.023 209.551 207.773 208.721 206.875C207.892 205.966 206.749 205.511 205.295 205.511C204.318 205.511 203.454 205.722 202.704 206.142C201.965 206.562 201.386 207.176 200.965 207.983C200.556 208.778 200.346 209.739 200.335 210.864ZM231.62 226.426C229.632 226.426 227.831 225.915 226.217 224.892C224.615 223.858 223.342 222.341 222.399 220.341C221.467 218.33 221.001 215.864 221.001 212.943C221.001 209.943 221.484 207.449 222.45 205.46C223.416 203.46 224.7 201.966 226.302 200.977C227.916 199.977 229.683 199.477 231.603 199.477C233.069 199.477 234.291 199.727 235.268 200.227C236.257 200.716 237.052 201.33 237.655 202.068C238.268 202.795 238.734 203.511 239.052 204.216H239.274V191.091H246.518V226H239.359V221.807H239.052C238.711 222.534 238.228 223.256 237.603 223.972C236.99 224.676 236.189 225.261 235.2 225.727C234.223 226.193 233.03 226.426 231.62 226.426ZM233.922 220.648C235.092 220.648 236.081 220.33 236.887 219.693C237.706 219.045 238.331 218.142 238.762 216.983C239.206 215.824 239.427 214.466 239.427 212.909C239.427 211.352 239.211 210 238.78 208.852C238.348 207.705 237.723 206.818 236.905 206.193C236.086 205.568 235.092 205.256 233.922 205.256C232.728 205.256 231.723 205.58 230.905 206.227C230.086 206.875 229.467 207.773 229.047 208.92C228.626 210.068 228.416 211.398 228.416 212.909C228.416 214.432 228.626 215.778 229.047 216.949C229.478 218.108 230.098 219.017 230.905 219.676C231.723 220.324 232.728 220.648 233.922 220.648ZM263.46 226.511C260.767 226.511 258.449 225.966 256.506 224.875C254.574 223.773 253.085 222.216 252.04 220.205C250.994 218.182 250.472 215.79 250.472 213.028C250.472 210.335 250.994 207.972 252.04 205.938C253.085 203.903 254.557 202.318 256.454 201.182C258.364 200.045 260.602 199.477 263.17 199.477C264.898 199.477 266.506 199.756 267.994 200.312C269.494 200.858 270.801 201.682 271.915 202.784C273.04 203.886 273.915 205.273 274.54 206.943C275.165 208.602 275.477 210.545 275.477 212.773V214.767H253.369V210.267H268.642C268.642 209.222 268.415 208.295 267.96 207.489C267.506 206.682 266.875 206.051 266.068 205.597C265.273 205.131 264.347 204.898 263.29 204.898C262.187 204.898 261.21 205.153 260.358 205.665C259.517 206.165 258.858 206.841 258.381 207.693C257.903 208.534 257.659 209.472 257.648 210.506V214.784C257.648 216.08 257.886 217.199 258.364 218.142C258.852 219.085 259.54 219.812 260.426 220.324C261.312 220.835 262.364 221.091 263.579 221.091C264.386 221.091 265.125 220.977 265.795 220.75C266.466 220.523 267.04 220.182 267.517 219.727C267.994 219.273 268.358 218.716 268.608 218.057L275.324 218.5C274.983 220.114 274.284 221.523 273.227 222.727C272.182 223.92 270.829 224.852 269.17 225.523C267.523 226.182 265.619 226.511 263.46 226.511ZM288.904 226.426C286.915 226.426 285.114 225.915 283.5 224.892C281.898 223.858 280.625 222.341 279.682 220.341C278.75 218.33 278.284 215.864 278.284 212.943C278.284 209.943 278.767 207.449 279.733 205.46C280.699 203.46 281.983 201.966 283.585 200.977C285.199 199.977 286.966 199.477 288.887 199.477C290.352 199.477 291.574 199.727 292.551 200.227C293.54 200.716 294.335 201.33 294.938 202.068C295.551 202.795 296.017 203.511 296.335 204.216H296.557V191.091H303.801V226H296.642V221.807H296.335C295.994 222.534 295.512 223.256 294.887 223.972C294.273 224.676 293.472 225.261 292.483 225.727C291.506 226.193 290.313 226.426 288.904 226.426ZM291.205 220.648C292.375 220.648 293.364 220.33 294.171 219.693C294.989 219.045 295.614 218.142 296.046 216.983C296.489 215.824 296.71 214.466 296.71 212.909C296.71 211.352 296.494 210 296.063 208.852C295.631 207.705 295.006 206.818 294.188 206.193C293.369 205.568 292.375 205.256 291.205 205.256C290.012 205.256 289.006 205.58 288.188 206.227C287.369 206.875 286.75 207.773 286.33 208.92C285.909 210.068 285.699 211.398 285.699 212.909C285.699 214.432 285.909 215.778 286.33 216.949C286.762 218.108 287.381 219.017 288.188 219.676C289.006 220.324 290.012 220.648 291.205 220.648ZM319.097 226V191.091H342.62V197.176H326.478V205.494H341.41V211.58H326.478V219.915H342.688V226H319.097ZM366.465 201.131C366.329 199.756 365.744 198.687 364.71 197.926C363.676 197.165 362.272 196.784 360.499 196.784C359.295 196.784 358.278 196.955 357.448 197.295C356.619 197.625 355.982 198.085 355.539 198.676C355.107 199.267 354.891 199.938 354.891 200.688C354.869 201.312 354.999 201.858 355.284 202.324C355.579 202.79 355.982 203.193 356.494 203.534C357.005 203.864 357.596 204.153 358.266 204.403C358.937 204.642 359.653 204.847 360.414 205.017L363.551 205.767C365.073 206.108 366.471 206.562 367.744 207.131C369.016 207.699 370.119 208.398 371.051 209.227C371.982 210.057 372.704 211.034 373.215 212.159C373.738 213.284 374.005 214.574 374.016 216.028C374.005 218.165 373.46 220.017 372.38 221.585C371.312 223.142 369.766 224.352 367.744 225.216C365.732 226.068 363.306 226.494 360.465 226.494C357.647 226.494 355.193 226.062 353.102 225.199C351.022 224.335 349.397 223.057 348.227 221.364C347.068 219.659 346.46 217.551 346.403 215.04H353.545C353.624 216.21 353.96 217.187 354.551 217.972C355.153 218.744 355.954 219.33 356.954 219.727C357.965 220.114 359.107 220.307 360.38 220.307C361.63 220.307 362.715 220.125 363.636 219.761C364.568 219.398 365.289 218.892 365.801 218.244C366.312 217.597 366.568 216.852 366.568 216.011C366.568 215.227 366.335 214.568 365.869 214.034C365.414 213.5 364.744 213.045 363.857 212.67C362.982 212.295 361.909 211.955 360.636 211.648L356.835 210.693C353.891 209.977 351.568 208.858 349.863 207.335C348.159 205.812 347.312 203.761 347.323 201.182C347.312 199.068 347.874 197.222 349.011 195.642C350.159 194.062 351.732 192.83 353.732 191.943C355.732 191.057 358.005 190.614 360.551 190.614C363.141 190.614 365.403 191.057 367.335 191.943C369.278 192.83 370.789 194.062 371.869 195.642C372.948 197.222 373.505 199.051 373.539 201.131H366.465ZM410.101 208.545C410.101 212.352 409.379 215.591 407.936 218.261C406.504 220.932 404.549 222.972 402.072 224.381C399.606 225.778 396.833 226.477 393.754 226.477C390.652 226.477 387.868 225.773 385.402 224.364C382.936 222.955 380.987 220.915 379.555 218.244C378.123 215.574 377.407 212.341 377.407 208.545C377.407 204.739 378.123 201.5 379.555 198.83C380.987 196.159 382.936 194.125 385.402 192.727C387.868 191.318 390.652 190.614 393.754 190.614C396.833 190.614 399.606 191.318 402.072 192.727C404.549 194.125 406.504 196.159 407.936 198.83C409.379 201.5 410.101 204.739 410.101 208.545ZM402.618 208.545C402.618 206.08 402.248 204 401.51 202.307C400.782 200.614 399.754 199.33 398.424 198.455C397.095 197.58 395.538 197.142 393.754 197.142C391.97 197.142 390.413 197.58 389.083 198.455C387.754 199.33 386.72 200.614 385.981 202.307C385.254 204 384.89 206.08 384.89 208.545C384.89 211.011 385.254 213.091 385.981 214.784C386.72 216.477 387.754 217.761 389.083 218.636C390.413 219.511 391.97 219.949 393.754 219.949C395.538 219.949 397.095 219.511 398.424 218.636C399.754 217.761 400.782 216.477 401.51 214.784C402.248 213.091 402.618 211.011 402.618 208.545ZM414.608 226V191.091H428.381C431.028 191.091 433.284 191.597 435.148 192.608C437.011 193.608 438.432 195 439.409 196.784C440.398 198.557 440.892 200.602 440.892 202.92C440.892 205.239 440.392 207.284 439.392 209.057C438.392 210.83 436.943 212.21 435.045 213.199C433.159 214.187 430.875 214.682 428.193 214.682H419.415V208.767H427C428.42 208.767 429.591 208.523 430.511 208.034C431.443 207.534 432.136 206.847 432.591 205.972C433.057 205.085 433.29 204.068 433.29 202.92C433.29 201.761 433.057 200.75 432.591 199.886C432.136 199.011 431.443 198.335 430.511 197.858C429.579 197.369 428.398 197.125 426.966 197.125H421.989V226H414.608ZM93.0341 276V241.091H116.557V247.176H100.415V255.494H115.347V261.58H100.415V269.915H116.625V276H93.0341ZM127.397 249.818L132.203 258.972L137.129 249.818H144.578L136.993 262.909L144.783 276H137.368L132.203 266.949L127.124 276H119.624L127.397 262.909L119.897 249.818H127.397ZM158.925 276.511C156.232 276.511 153.914 275.966 151.971 274.875C150.039 273.773 148.55 272.216 147.505 270.205C146.459 268.182 145.937 265.79 145.937 263.028C145.937 260.335 146.459 257.972 147.505 255.938C148.55 253.903 150.022 252.318 151.919 251.182C153.829 250.045 156.067 249.477 158.635 249.477C160.363 249.477 161.971 249.756 163.459 250.312C164.959 250.858 166.266 251.682 167.38 252.784C168.505 253.886 169.38 255.273 170.005 256.943C170.63 258.602 170.942 260.545 170.942 262.773V264.767H148.834V260.267H164.107C164.107 259.222 163.88 258.295 163.425 257.489C162.971 256.682 162.34 256.051 161.533 255.597C160.738 255.131 159.812 254.898 158.755 254.898C157.652 254.898 156.675 255.153 155.823 255.665C154.982 256.165 154.323 256.841 153.846 257.693C153.368 258.534 153.124 259.472 153.113 260.506V264.784C153.113 266.08 153.351 267.199 153.829 268.142C154.317 269.085 155.005 269.812 155.891 270.324C156.777 270.835 157.829 271.091 159.044 271.091C159.851 271.091 160.59 270.977 161.26 270.75C161.931 270.523 162.505 270.182 162.982 269.727C163.459 269.273 163.823 268.716 164.073 268.057L170.789 268.5C170.448 270.114 169.749 271.523 168.692 272.727C167.647 273.92 166.294 274.852 164.635 275.523C162.988 276.182 161.084 276.511 158.925 276.511ZM174.721 276V249.818H181.761V254.386H182.033C182.511 252.761 183.312 251.534 184.437 250.705C185.562 249.864 186.857 249.443 188.323 249.443C188.687 249.443 189.079 249.466 189.499 249.511C189.92 249.557 190.289 249.619 190.607 249.699V256.142C190.266 256.04 189.795 255.949 189.192 255.869C188.59 255.79 188.039 255.75 187.539 255.75C186.471 255.75 185.516 255.983 184.675 256.449C183.846 256.903 183.187 257.54 182.698 258.358C182.221 259.176 181.982 260.119 181.982 261.188V276H174.721ZM204.012 276.511C201.33 276.511 199.024 275.943 197.092 274.807C195.171 273.659 193.694 272.068 192.66 270.034C191.637 268 191.126 265.659 191.126 263.011C191.126 260.33 191.643 257.977 192.677 255.955C193.723 253.92 195.205 252.335 197.126 251.199C199.046 250.051 201.33 249.477 203.978 249.477C206.262 249.477 208.262 249.892 209.978 250.722C211.694 251.551 213.052 252.716 214.052 254.216C215.052 255.716 215.603 257.477 215.705 259.5H208.853C208.66 258.193 208.149 257.142 207.319 256.347C206.501 255.54 205.427 255.136 204.098 255.136C202.973 255.136 201.99 255.443 201.149 256.057C200.319 256.659 199.671 257.54 199.205 258.699C198.74 259.858 198.507 261.261 198.507 262.909C198.507 264.58 198.734 266 199.188 267.17C199.654 268.341 200.308 269.233 201.149 269.847C201.99 270.46 202.973 270.767 204.098 270.767C204.927 270.767 205.671 270.597 206.33 270.256C207.001 269.915 207.552 269.42 207.984 268.773C208.427 268.114 208.717 267.324 208.853 266.403H215.705C215.592 268.403 215.046 270.165 214.069 271.688C213.103 273.199 211.768 274.381 210.063 275.233C208.359 276.085 206.342 276.511 204.012 276.511ZM219.395 276V249.818H226.656V276H219.395ZM223.042 246.443C221.963 246.443 221.037 246.085 220.264 245.369C219.503 244.642 219.122 243.773 219.122 242.761C219.122 241.761 219.503 240.903 220.264 240.188C221.037 239.46 221.963 239.097 223.042 239.097C224.122 239.097 225.042 239.46 225.804 240.188C226.576 240.903 226.963 241.761 226.963 242.761C226.963 243.773 226.576 244.642 225.804 245.369C225.042 246.085 224.122 246.443 223.042 246.443ZM253.297 257.284L246.649 257.693C246.535 257.125 246.291 256.614 245.916 256.159C245.541 255.693 245.047 255.324 244.433 255.051C243.831 254.767 243.109 254.625 242.268 254.625C241.143 254.625 240.195 254.864 239.422 255.341C238.649 255.807 238.263 256.432 238.263 257.216C238.263 257.841 238.513 258.369 239.013 258.801C239.513 259.233 240.371 259.58 241.587 259.841L246.325 260.795C248.871 261.318 250.768 262.159 252.018 263.318C253.268 264.477 253.893 266 253.893 267.886C253.893 269.602 253.388 271.108 252.376 272.403C251.376 273.699 250.001 274.71 248.251 275.438C246.513 276.153 244.507 276.511 242.234 276.511C238.768 276.511 236.007 275.79 233.95 274.347C231.905 272.892 230.706 270.915 230.354 268.415L237.496 268.04C237.712 269.097 238.234 269.903 239.064 270.46C239.893 271.006 240.956 271.278 242.251 271.278C243.524 271.278 244.547 271.034 245.32 270.545C246.104 270.045 246.501 269.403 246.513 268.619C246.501 267.96 246.223 267.42 245.678 267C245.132 266.568 244.291 266.239 243.155 266.011L238.621 265.108C236.064 264.597 234.16 263.71 232.91 262.449C231.672 261.187 231.053 259.58 231.053 257.625C231.053 255.943 231.507 254.494 232.416 253.278C233.337 252.062 234.626 251.125 236.285 250.466C237.956 249.807 239.91 249.477 242.149 249.477C245.456 249.477 248.058 250.176 249.956 251.574C251.865 252.972 252.979 254.875 253.297 257.284ZM269.438 276.511C266.744 276.511 264.426 275.966 262.483 274.875C260.551 273.773 259.063 272.216 258.017 270.205C256.972 268.182 256.449 265.79 256.449 263.028C256.449 260.335 256.972 257.972 258.017 255.938C259.063 253.903 260.534 252.318 262.432 251.182C264.341 250.045 266.58 249.477 269.148 249.477C270.875 249.477 272.483 249.756 273.972 250.312C275.472 250.858 276.779 251.682 277.892 252.784C279.017 253.886 279.892 255.273 280.517 256.943C281.142 258.602 281.455 260.545 281.455 262.773V264.767H259.347V260.267H274.619C274.619 259.222 274.392 258.295 273.938 257.489C273.483 256.682 272.852 256.051 272.046 255.597C271.25 255.131 270.324 254.898 269.267 254.898C268.165 254.898 267.188 255.153 266.335 255.665C265.494 256.165 264.835 256.841 264.358 257.693C263.881 258.534 263.637 259.472 263.625 260.506V264.784C263.625 266.08 263.864 267.199 264.341 268.142C264.83 269.085 265.517 269.812 266.404 270.324C267.29 270.835 268.341 271.091 269.557 271.091C270.364 271.091 271.102 270.977 271.773 270.75C272.443 270.523 273.017 270.182 273.494 269.727C273.972 269.273 274.335 268.716 274.585 268.057L281.301 268.5C280.96 270.114 280.262 271.523 279.205 272.727C278.159 273.92 276.807 274.852 275.148 275.523C273.5 276.182 271.597 276.511 269.438 276.511ZM303.377 276L293.388 241.091H301.451L307.229 265.347H307.519L313.894 241.091H320.798L327.155 265.398H327.462L333.241 241.091H341.303L331.315 276H324.121L317.474 253.176H317.201L310.57 276H303.377ZM344.157 276V249.818H351.418V276H344.157ZM347.805 246.443C346.725 246.443 345.799 246.085 345.026 245.369C344.265 244.642 343.884 243.773 343.884 242.761C343.884 241.761 344.265 240.903 345.026 240.188C345.799 239.46 346.725 239.097 347.805 239.097C348.884 239.097 349.805 239.46 350.566 240.188C351.339 240.903 351.725 241.761 351.725 242.761C351.725 243.773 351.339 244.642 350.566 245.369C349.805 246.085 348.884 246.443 347.805 246.443ZM363.537 260.864V276H356.275V249.818H363.196V254.438H363.503C364.082 252.915 365.054 251.71 366.417 250.824C367.781 249.926 369.434 249.477 371.378 249.477C373.196 249.477 374.781 249.875 376.133 250.67C377.485 251.466 378.537 252.602 379.287 254.08C380.037 255.545 380.412 257.295 380.412 259.33V276H373.15V260.625C373.162 259.023 372.753 257.773 371.923 256.875C371.093 255.966 369.951 255.511 368.497 255.511C367.52 255.511 366.656 255.722 365.906 256.142C365.167 256.562 364.588 257.176 364.167 257.983C363.758 258.778 363.548 259.739 363.537 260.864ZM394.822 276.426C392.834 276.426 391.033 275.915 389.419 274.892C387.817 273.858 386.544 272.341 385.601 270.341C384.669 268.33 384.203 265.864 384.203 262.943C384.203 259.943 384.686 257.449 385.652 255.46C386.618 253.46 387.902 251.966 389.504 250.977C391.118 249.977 392.885 249.477 394.805 249.477C396.271 249.477 397.493 249.727 398.47 250.227C399.459 250.716 400.254 251.33 400.856 252.068C401.47 252.795 401.936 253.511 402.254 254.216H402.476V241.091H409.72V276H402.561V271.807H402.254C401.913 272.534 401.43 273.256 400.805 273.972C400.192 274.676 399.391 275.261 398.402 275.727C397.425 276.193 396.231 276.426 394.822 276.426ZM397.123 270.648C398.294 270.648 399.283 270.33 400.089 269.693C400.908 269.045 401.533 268.142 401.964 266.983C402.408 265.824 402.629 264.466 402.629 262.909C402.629 261.352 402.413 260 401.981 258.852C401.55 257.705 400.925 256.818 400.106 256.193C399.288 255.568 398.294 255.256 397.123 255.256C395.93 255.256 394.925 255.58 394.106 256.227C393.288 256.875 392.669 257.773 392.248 258.92C391.828 260.068 391.618 261.398 391.618 262.909C391.618 264.432 391.828 265.778 392.248 266.949C392.68 268.108 393.3 269.017 394.106 269.676C394.925 270.324 395.93 270.648 397.123 270.648ZM426.56 276.511C423.912 276.511 421.622 275.949 419.69 274.824C417.77 273.687 416.287 272.108 415.242 270.085C414.196 268.051 413.673 265.693 413.673 263.011C413.673 260.307 414.196 257.943 415.242 255.92C416.287 253.886 417.77 252.307 419.69 251.182C421.622 250.045 423.912 249.477 426.56 249.477C429.207 249.477 431.492 250.045 433.412 251.182C435.344 252.307 436.832 253.886 437.878 255.92C438.923 257.943 439.446 260.307 439.446 263.011C439.446 265.693 438.923 268.051 437.878 270.085C436.832 272.108 435.344 273.687 433.412 274.824C431.492 275.949 429.207 276.511 426.56 276.511ZM426.594 270.886C427.798 270.886 428.804 270.545 429.611 269.864C430.418 269.17 431.026 268.227 431.435 267.034C431.855 265.841 432.065 264.483 432.065 262.96C432.065 261.438 431.855 260.08 431.435 258.886C431.026 257.693 430.418 256.75 429.611 256.057C428.804 255.364 427.798 255.017 426.594 255.017C425.378 255.017 424.355 255.364 423.526 256.057C422.707 256.75 422.088 257.693 421.668 258.886C421.259 260.08 421.054 261.438 421.054 262.96C421.054 264.483 421.259 265.841 421.668 267.034C422.088 268.227 422.707 269.17 423.526 269.864C424.355 270.545 425.378 270.886 426.594 270.886ZM447.716 276L440.591 249.818H447.938L451.995 267.409H452.233L456.461 249.818H463.671L467.966 267.307H468.188L472.176 249.818H479.506L472.398 276H464.711L460.211 259.534H459.887L455.387 276H447.716ZM504.204 257.284L497.556 257.693C497.442 257.125 497.198 256.614 496.823 256.159C496.448 255.693 495.954 255.324 495.34 255.051C494.738 254.767 494.016 254.625 493.175 254.625C492.05 254.625 491.101 254.864 490.329 255.341C489.556 255.807 489.17 256.432 489.17 257.216C489.17 257.841 489.42 258.369 489.92 258.801C490.42 259.233 491.278 259.58 492.493 259.841L497.232 260.795C499.778 261.318 501.675 262.159 502.925 263.318C504.175 264.477 504.8 266 504.8 267.886C504.8 269.602 504.295 271.108 503.283 272.403C502.283 273.699 500.908 274.71 499.158 275.438C497.42 276.153 495.414 276.511 493.141 276.511C489.675 276.511 486.914 275.79 484.857 274.347C482.812 272.892 481.613 270.915 481.261 268.415L488.403 268.04C488.618 269.097 489.141 269.903 489.971 270.46C490.8 271.006 491.863 271.278 493.158 271.278C494.431 271.278 495.454 271.034 496.226 270.545C497.011 270.045 497.408 269.403 497.42 268.619C497.408 267.96 497.13 267.42 496.584 267C496.039 266.568 495.198 266.239 494.062 266.011L489.528 265.108C486.971 264.597 485.067 263.71 483.817 262.449C482.579 261.187 481.959 259.58 481.959 257.625C481.959 255.943 482.414 254.494 483.323 253.278C484.243 252.062 485.533 251.125 487.192 250.466C488.863 249.807 490.817 249.477 493.056 249.477C496.363 249.477 498.965 250.176 500.863 251.574C502.772 252.972 503.886 254.875 504.204 257.284Z"></path>
</g>
<defs>
<linearGradient gradientUnits="userSpaceOnUse" y2="474" x2="422" y1="0" x1="422" id="paint0_linear_8784_9448">
<stop stop-color="#5A67D8"></stop>
<stop stop-color="#667EEA" offset="1"></stop>
</linearGradient>
<clipPath id="clip0_8784_9448">
<rect fill="white" height="474" width="844"></rect>
</clipPath>
</defs>
</svg>
