<svg xmlns="http://www.w3.org/2000/svg" fill="none" viewBox="0 0 844 474" height="474" width="844">
<rect fill="url(#paint0_linear_1187_26050)" height="474" width="844"></rect>
<path stroke-dasharray="6.68 6.68" stroke-width="1.5" stroke="#4A5568" d="M60 451L783 128"></path>
<path stroke-dasharray="6.68 6.68" stroke-width="1.5" stroke="#4A5568" d="M783 451L60 128"></path>
<path fill="url(#paint1_linear_1187_26050)" d="M248.168 209.884C256.465 206.105 262.76 198.011 264.115 188.959C264.676 185.204 264.466 181.293 265.72 177.709C266.982 174.126 270.395 170.846 275.217 171.469C271.571 173.152 269.374 177.522 270.215 181.456C271.049 185.39 274.827 188.491 278.855 188.538C282.524 188.585 285.866 186.372 288.429 183.739C290.985 181.106 293.01 177.99 295.643 175.427C301.86 169.366 311.419 166.974 320.954 170.581C315.205 170.324 310.048 175.559 309.588 181.301C309.128 187.042 312.774 192.651 317.838 195.401C322.902 198.143 329.088 198.291 334.634 196.733C340.173 195.175 345.151 192.044 349.693 188.499C353.495 185.539 357.149 182.119 359.049 177.686C360.943 173.261 360.693 167.621 357.328 164.302C358.925 162.736 361.831 163.679 363.062 165.541C364.3 167.402 364.37 169.771 364.495 172.007C364.612 174.235 364.892 176.642 366.411 178.286C368.897 180.989 373.579 180.202 376.336 177.779C379.094 175.349 380.52 171.804 382.257 168.571C391.317 151.744 411.736 141.85 430.542 146.181C425.977 147.771 422.44 152.016 421.708 156.792C420.968 161.575 423.063 166.686 426.943 169.576C433.604 174.523 442.929 172.373 450.898 170.051C458.86 167.722 468.248 165.681 474.799 170.776C479.668 174.554 482.029 181.745 487.981 183.334C493.037 184.682 498.739 180.14 498.56 174.912C498.381 169.685 492.39 165.548 487.436 167.239C491.611 164.637 496.465 162.845 501.373 163.188C506.281 163.523 511.181 166.304 513.159 170.807C514.016 172.77 514.305 174.951 515.255 176.876C516.206 178.792 518.176 180.498 520.28 180.124C522.391 179.742 523.404 176.33 521.589 174.702C524.471 175.434 526.567 178.496 526.208 181.456C525.944 183.63 524.549 185.57 524.479 187.759C524.393 190.392 526.302 192.745 528.569 194.092C531.397 195.791 535.012 196.274 538.073 195.058C541.143 193.843 543.503 190.82 543.612 187.517C543.713 184.518 542.093 181.76 541.415 178.839C540.278 173.861 542.132 168.314 547.274 165.33C544.952 170.332 546.16 176.751 550.148 180.56C551.488 181.846 553.187 182.874 555.041 183.014C556.895 183.162 558.897 182.259 559.676 180.568C560.315 179.166 560.042 177.538 559.699 176.042C559.357 174.546 558.952 172.988 559.341 171.5C559.731 170.02 561.273 168.703 562.73 169.179C560.712 172.801 563.151 177.507 566.602 179.805C570.061 182.095 574.299 182.82 578.147 184.37C588.314 188.452 595.465 198.977 595.831 209.884"></path>
<rect fill="#71E8DF" rx="6.4" height="26.7095" width="126.4" y="258.287" x="247"></rect>
<path fill="#090A15" d="M286.402 287.535C284.691 287.451 282.823 287.353 280.853 287.241C284.525 287.316 285.158 287.058 286.402 287.535Z"></path>
<path fill="#090A15" d="M297.89 287.241H303.205C302.524 287.307 296.486 287.901 295.826 287.88C296.412 287.476 297.124 287.241 297.89 287.241Z"></path>
<path fill="#090A15" d="M373.4 276.644V368.46C373.4 369.469 372.964 370.375 372.275 371.005C372.26 371.018 372.244 371.032 372.23 371.043C371.623 371.575 370.832 371.897 369.965 371.897H250.458C248.563 371.897 247.025 370.359 247.025 368.463V276.642C247.025 274.736 248.574 273.208 250.458 273.208H369.965C370.845 273.208 371.648 273.538 372.257 274.086C372.957 274.716 373.4 275.629 373.4 276.644Z"></path>
<path fill="#16A394" d="M274.336 304.223V316.036C274.336 318.554 272.296 320.595 269.779 320.595H247.025V299.664H269.779C272.296 299.664 274.336 301.705 274.336 304.223Z"></path>
<path fill="#16A394" d="M307.224 328.71V341.184C307.224 343.52 305.331 345.413 302.997 345.413H247.025V324.481H302.997C305.331 324.481 307.224 326.375 307.224 328.71Z"></path>
<path fill="#16A394" d="M275.023 354.18V371.897H250.458C248.562 371.897 247.025 370.359 247.025 368.463V349.708H270.552C273.021 349.708 275.023 351.71 275.023 354.18Z"></path>
<path fill="#16A394" d="M373.4 349.708V368.46C373.4 369.469 372.965 370.375 372.276 371.005C372.26 371.018 372.244 371.032 372.23 371.043C371.623 371.575 370.832 371.897 369.965 371.897H278.967V355.262C278.967 352.195 281.453 349.708 284.518 349.708H373.4Z"></path>
<path fill="#16A394" d="M373.4 324.481V345.413H315.329C313.314 345.413 311.68 343.779 311.68 341.763V328.132C311.68 326.116 313.314 324.481 315.329 324.481H373.4Z"></path>
<path fill="#16A394" d="M307.224 273.208V290.72C307.224 293.004 305.373 294.856 303.089 294.856H247.025V276.642C247.025 274.745 248.562 273.208 250.458 273.208H307.224Z"></path>
<path fill="#16A394" d="M373.4 276.644V294.856H315.815C313.531 294.856 311.68 293.004 311.68 290.719V273.207H369.965C371.862 273.207 373.4 274.746 373.4 276.644Z"></path>
<path fill="#16A394" d="M339.283 303.319V316.94C339.283 318.959 337.648 320.595 335.63 320.595H282.879C280.861 320.595 279.226 318.959 279.226 316.94V303.319C279.226 301.3 280.861 299.664 282.879 299.664H335.63C337.648 299.664 339.283 301.3 339.283 303.319Z"></path>
<path fill="#16A394" d="M373.4 299.664V320.595H347.173C345.435 320.595 344.025 319.185 344.025 317.446V302.813C344.025 301.074 345.435 299.664 347.173 299.664H373.4Z"></path>
<rect fill="#1A202C" height="15.0476" width="4.51428" y="258.287" x="307.19"></rect>
<rect fill="#71E8DF" rx="6.4" height="26.7095" width="126.4" y="258.287" x="359"></rect>
<path fill="#090A15" d="M398.402 287.535C396.691 287.451 394.823 287.353 392.853 287.241C396.525 287.316 397.158 287.058 398.402 287.535Z"></path>
<path fill="#090A15" d="M409.89 287.241H415.205C414.524 287.307 408.486 287.901 407.826 287.88C408.412 287.476 409.124 287.241 409.89 287.241Z"></path>
<path fill="#090A15" d="M485.4 276.644V368.46C485.4 369.469 484.964 370.375 484.275 371.005C484.26 371.018 484.244 371.032 484.23 371.043C483.623 371.575 482.832 371.897 481.965 371.897H362.458C360.563 371.897 359.025 370.359 359.025 368.463V276.642C359.025 274.736 360.574 273.208 362.458 273.208H481.965C482.845 273.208 483.648 273.538 484.257 274.086C484.957 274.716 485.4 275.629 485.4 276.644Z"></path>
<path fill="#16A394" d="M386.336 304.223V316.036C386.336 318.554 384.296 320.595 381.779 320.595H359.025V299.664H381.779C384.296 299.664 386.336 301.705 386.336 304.223Z"></path>
<path fill="#16A394" d="M419.224 328.71V341.184C419.224 343.52 417.331 345.413 414.997 345.413H359.025V324.481H414.997C417.331 324.481 419.224 326.375 419.224 328.71Z"></path>
<path fill="#16A394" d="M387.023 354.18V371.897H362.458C360.562 371.897 359.025 370.359 359.025 368.463V349.708H382.552C385.021 349.708 387.023 351.71 387.023 354.18Z"></path>
<path fill="#16A394" d="M485.4 349.708V368.46C485.4 369.469 484.965 370.375 484.276 371.005C484.26 371.018 484.244 371.032 484.23 371.043C483.623 371.575 482.832 371.897 481.965 371.897H390.967V355.262C390.967 352.195 393.453 349.708 396.518 349.708H485.4Z"></path>
<path fill="#16A394" d="M485.4 324.481V345.413H427.329C425.314 345.413 423.68 343.779 423.68 341.763V328.132C423.68 326.116 425.314 324.481 427.329 324.481H485.4Z"></path>
<path fill="#16A394" d="M419.224 273.208V290.72C419.224 293.004 417.373 294.856 415.089 294.856H359.025V276.642C359.025 274.745 360.562 273.208 362.458 273.208H419.224Z"></path>
<path fill="#16A394" d="M485.4 276.644V294.856H427.815C425.531 294.856 423.68 293.004 423.68 290.719V273.207H481.965C483.862 273.207 485.4 274.746 485.4 276.644Z"></path>
<path fill="#16A394" d="M451.283 303.319V316.94C451.283 318.959 449.648 320.595 447.63 320.595H394.879C392.861 320.595 391.226 318.959 391.226 316.94V303.319C391.226 301.3 392.861 299.664 394.879 299.664H447.63C449.648 299.664 451.283 301.3 451.283 303.319Z"></path>
<path fill="#16A394" d="M485.4 299.664V320.595H459.173C457.435 320.595 456.025 319.185 456.025 317.446V302.813C456.025 301.074 457.435 299.664 459.173 299.664H485.4Z"></path>
<rect fill="#1A202C" height="15.0476" width="4.51428" y="258.287" x="419.19"></rect>
<rect fill="#71E8DF" rx="6.4" height="26.7095" width="126.4" y="258.287" x="471"></rect>
<path fill="#090A15" d="M510.402 287.535C508.691 287.451 506.823 287.353 504.853 287.241C508.525 287.316 509.158 287.058 510.402 287.535Z"></path>
<path fill="#090A15" d="M521.89 287.241H527.205C526.524 287.307 520.486 287.901 519.826 287.88C520.412 287.476 521.124 287.241 521.89 287.241Z"></path>
<path fill="#090A15" d="M597.4 276.644V368.46C597.4 369.469 596.964 370.375 596.275 371.005C596.26 371.018 596.244 371.032 596.23 371.043C595.623 371.575 594.832 371.897 593.965 371.897H474.458C472.563 371.897 471.025 370.359 471.025 368.463V276.642C471.025 274.736 472.574 273.208 474.458 273.208H593.965C594.845 273.208 595.648 273.538 596.257 274.086C596.957 274.716 597.4 275.629 597.4 276.644Z"></path>
<path fill="#16A394" d="M498.336 304.223V316.036C498.336 318.554 496.296 320.595 493.779 320.595H471.025V299.664H493.779C496.296 299.664 498.336 301.705 498.336 304.223Z"></path>
<path fill="#16A394" d="M531.224 328.71V341.184C531.224 343.52 529.331 345.413 526.997 345.413H471.025V324.481H526.997C529.331 324.481 531.224 326.375 531.224 328.71Z"></path>
<path fill="#16A394" d="M499.023 354.18V371.897H474.458C472.562 371.897 471.025 370.359 471.025 368.463V349.708H494.552C497.021 349.708 499.023 351.71 499.023 354.18Z"></path>
<path fill="#16A394" d="M597.4 349.708V368.46C597.4 369.469 596.965 370.375 596.276 371.005C596.26 371.018 596.244 371.032 596.23 371.043C595.623 371.575 594.832 371.897 593.965 371.897H502.967V355.262C502.967 352.195 505.453 349.708 508.518 349.708H597.4Z"></path>
<path fill="#16A394" d="M597.4 324.481V345.413H539.329C537.314 345.413 535.68 343.779 535.68 341.763V328.132C535.68 326.116 537.314 324.481 539.329 324.481H597.4Z"></path>
<path fill="#16A394" d="M531.224 273.208V290.72C531.224 293.004 529.373 294.856 527.089 294.856H471.025V276.642C471.025 274.745 472.562 273.208 474.458 273.208H531.224Z"></path>
<path fill="#16A394" d="M597.4 276.644V294.856H539.815C537.531 294.856 535.68 293.004 535.68 290.719V273.207H593.965C595.862 273.207 597.4 274.746 597.4 276.644Z"></path>
<path fill="#16A394" d="M563.283 303.319V316.94C563.283 318.959 561.648 320.595 559.63 320.595H506.879C504.861 320.595 503.226 318.959 503.226 316.94V303.319C503.226 301.3 504.861 299.664 506.879 299.664H559.63C561.648 299.664 563.283 301.3 563.283 303.319Z"></path>
<path fill="#16A394" d="M597.4 299.664V320.595H571.173C569.435 320.595 568.025 319.185 568.025 317.446V302.813C568.025 301.074 569.435 299.664 571.173 299.664H597.4Z"></path>
<rect fill="#1A202C" height="15.0476" width="4.51428" y="258.287" x="531.19"></rect>
<rect fill="#71E8DF" rx="6.4" height="26.7095" width="126.4" y="207.287" x="247"></rect>
<path fill="#090A15" d="M286.402 236.535C284.691 236.451 282.823 236.353 280.853 236.241C284.525 236.316 285.158 236.058 286.402 236.535Z"></path>
<path fill="#090A15" d="M297.89 236.241H303.205C302.524 236.307 296.486 236.901 295.826 236.88C296.412 236.476 297.124 236.241 297.89 236.241Z"></path>
<path fill="#090A15" d="M373.4 225.644V317.46C373.4 318.469 372.964 319.375 372.275 320.005C372.26 320.018 372.244 320.032 372.23 320.043C371.623 320.575 370.832 320.897 369.965 320.897H250.458C248.563 320.897 247.025 319.359 247.025 317.463V225.642C247.025 223.736 248.574 222.208 250.458 222.208H369.965C370.845 222.208 371.648 222.538 372.257 223.086C372.957 223.716 373.4 224.629 373.4 225.644Z"></path>
<path fill="#16A394" d="M274.336 253.223V265.036C274.336 267.554 272.296 269.595 269.779 269.595H247.025V248.664H269.779C272.296 248.664 274.336 250.705 274.336 253.223Z"></path>
<path fill="#16A394" d="M307.224 277.71V290.184C307.224 292.52 305.331 294.413 302.997 294.413H247.025V273.481H302.997C305.331 273.481 307.224 275.375 307.224 277.71Z"></path>
<path fill="#16A394" d="M275.023 303.18V320.897H250.458C248.562 320.897 247.025 319.359 247.025 317.463V298.708H270.552C273.021 298.708 275.023 300.71 275.023 303.18Z"></path>
<path fill="#16A394" d="M373.4 298.708V317.46C373.4 318.469 372.965 319.375 372.276 320.005C372.26 320.018 372.244 320.032 372.23 320.043C371.623 320.575 370.832 320.897 369.965 320.897H278.967V304.262C278.967 301.195 281.453 298.708 284.518 298.708H373.4Z"></path>
<path fill="#16A394" d="M373.4 273.481V294.413H315.329C313.314 294.413 311.68 292.779 311.68 290.763V277.132C311.68 275.116 313.314 273.481 315.329 273.481H373.4Z"></path>
<path fill="#16A394" d="M307.224 222.208V239.72C307.224 242.004 305.373 243.856 303.089 243.856H247.025V225.642C247.025 223.745 248.562 222.208 250.458 222.208H307.224Z"></path>
<path fill="#16A394" d="M373.4 225.644V243.856H315.815C313.531 243.856 311.68 242.004 311.68 239.719V222.207H369.965C371.862 222.207 373.4 223.746 373.4 225.644Z"></path>
<path fill="#16A394" d="M339.283 252.319V265.94C339.283 267.959 337.648 269.595 335.63 269.595H282.879C280.861 269.595 279.226 267.959 279.226 265.94V252.319C279.226 250.3 280.861 248.664 282.879 248.664H335.63C337.648 248.664 339.283 250.3 339.283 252.319Z"></path>
<path fill="#16A394" d="M373.4 248.664V269.595H347.173C345.435 269.595 344.025 268.185 344.025 266.446V251.813C344.025 250.074 345.435 248.664 347.173 248.664H373.4Z"></path>
<rect fill="#1A202C" height="15.0476" width="4.51428" y="207.287" x="307.19"></rect>
<rect fill="#71E8DF" rx="6.4" height="26.7095" width="126.4" y="207.287" x="359"></rect>
<path fill="#090A15" d="M398.402 236.535C396.691 236.451 394.823 236.353 392.853 236.241C396.525 236.316 397.158 236.058 398.402 236.535Z"></path>
<path fill="#090A15" d="M409.89 236.241H415.205C414.524 236.307 408.486 236.901 407.826 236.88C408.412 236.476 409.124 236.241 409.89 236.241Z"></path>
<path fill="#090A15" d="M485.4 225.644V317.46C485.4 318.469 484.964 319.375 484.275 320.005C484.26 320.018 484.244 320.032 484.23 320.043C483.623 320.575 482.832 320.897 481.965 320.897H362.458C360.563 320.897 359.025 319.359 359.025 317.463V225.642C359.025 223.736 360.574 222.208 362.458 222.208H481.965C482.845 222.208 483.648 222.538 484.257 223.086C484.957 223.716 485.4 224.629 485.4 225.644Z"></path>
<path fill="#16A394" d="M386.336 253.223V265.036C386.336 267.554 384.296 269.595 381.779 269.595H359.025V248.664H381.779C384.296 248.664 386.336 250.705 386.336 253.223Z"></path>
<path fill="#16A394" d="M419.224 277.71V290.184C419.224 292.52 417.331 294.413 414.997 294.413H359.025V273.481H414.997C417.331 273.481 419.224 275.375 419.224 277.71Z"></path>
<path fill="#16A394" d="M387.023 303.18V320.897H362.458C360.562 320.897 359.025 319.359 359.025 317.463V298.708H382.552C385.021 298.708 387.023 300.71 387.023 303.18Z"></path>
<path fill="#16A394" d="M485.4 298.708V317.46C485.4 318.469 484.965 319.375 484.276 320.005C484.26 320.018 484.244 320.032 484.23 320.043C483.623 320.575 482.832 320.897 481.965 320.897H390.967V304.262C390.967 301.195 393.453 298.708 396.518 298.708H485.4Z"></path>
<path fill="#16A394" d="M485.4 273.481V294.413H427.329C425.314 294.413 423.68 292.779 423.68 290.763V277.132C423.68 275.116 425.314 273.481 427.329 273.481H485.4Z"></path>
<path fill="#16A394" d="M419.224 222.208V239.72C419.224 242.004 417.373 243.856 415.089 243.856H359.025V225.642C359.025 223.745 360.562 222.208 362.458 222.208H419.224Z"></path>
<path fill="#16A394" d="M485.4 225.644V243.856H427.815C425.531 243.856 423.68 242.004 423.68 239.719V222.207H481.965C483.862 222.207 485.4 223.746 485.4 225.644Z"></path>
<path fill="#16A394" d="M451.283 252.319V265.94C451.283 267.959 449.648 269.595 447.63 269.595H394.879C392.861 269.595 391.226 267.959 391.226 265.94V252.319C391.226 250.3 392.861 248.664 394.879 248.664H447.63C449.648 248.664 451.283 250.3 451.283 252.319Z"></path>
<path fill="#16A394" d="M485.4 248.664V269.595H459.173C457.435 269.595 456.025 268.185 456.025 266.446V251.813C456.025 250.074 457.435 248.664 459.173 248.664H485.4Z"></path>
<rect fill="#1A202C" height="15.0476" width="4.51428" y="207.287" x="419.19"></rect>
<rect fill="#71E8DF" rx="6.4" height="26.7095" width="126.4" y="207.287" x="471"></rect>
<path fill="#090A15" d="M510.402 236.535C508.691 236.451 506.823 236.353 504.853 236.241C508.525 236.316 509.158 236.058 510.402 236.535Z"></path>
<path fill="#090A15" d="M521.89 236.241H527.205C526.524 236.307 520.486 236.901 519.826 236.88C520.412 236.476 521.124 236.241 521.89 236.241Z"></path>
<path fill="#090A15" d="M597.4 225.644V317.46C597.4 318.469 596.964 319.375 596.275 320.005C596.26 320.018 596.244 320.032 596.23 320.043C595.623 320.575 594.832 320.897 593.965 320.897H474.458C472.563 320.897 471.025 319.359 471.025 317.463V225.642C471.025 223.736 472.574 222.208 474.458 222.208H593.965C594.845 222.208 595.648 222.538 596.257 223.086C596.957 223.716 597.4 224.629 597.4 225.644Z"></path>
<path fill="#16A394" d="M498.336 253.223V265.036C498.336 267.554 496.296 269.595 493.779 269.595H471.025V248.664H493.779C496.296 248.664 498.336 250.705 498.336 253.223Z"></path>
<path fill="#16A394" d="M531.224 277.71V290.184C531.224 292.52 529.331 294.413 526.997 294.413H471.025V273.481H526.997C529.331 273.481 531.224 275.375 531.224 277.71Z"></path>
<path fill="#16A394" d="M499.023 303.18V320.897H474.458C472.562 320.897 471.025 319.359 471.025 317.463V298.708H494.552C497.021 298.708 499.023 300.71 499.023 303.18Z"></path>
<path fill="#16A394" d="M597.4 298.708V317.46C597.4 318.469 596.965 319.375 596.276 320.005C596.26 320.018 596.244 320.032 596.23 320.043C595.623 320.575 594.832 320.897 593.965 320.897H502.967V304.262C502.967 301.195 505.453 298.708 508.518 298.708H597.4Z"></path>
<path fill="#16A394" d="M597.4 273.481V294.413H539.329C537.314 294.413 535.68 292.779 535.68 290.763V277.132C535.68 275.116 537.314 273.481 539.329 273.481H597.4Z"></path>
<path fill="#16A394" d="M531.224 222.208V239.72C531.224 242.004 529.373 243.856 527.089 243.856H471.025V225.642C471.025 223.745 472.562 222.208 474.458 222.208H531.224Z"></path>
<path fill="#16A394" d="M597.4 225.644V243.856H539.815C537.531 243.856 535.68 242.004 535.68 239.719V222.207H593.965C595.862 222.207 597.4 223.746 597.4 225.644Z"></path>
<path fill="#16A394" d="M563.283 252.319V265.94C563.283 267.959 561.648 269.595 559.63 269.595H506.879C504.861 269.595 503.226 267.959 503.226 265.94V252.319C503.226 250.3 504.861 248.664 506.879 248.664H559.63C561.648 248.664 563.283 250.3 563.283 252.319Z"></path>
<path fill="#16A394" d="M597.4 248.664V269.595H571.173C569.435 269.595 568.025 268.185 568.025 266.446V251.813C568.025 250.074 569.435 248.664 571.173 248.664H597.4Z"></path>
<rect fill="#1A202C" height="15.0476" width="4.51428" y="207.287" x="531.19"></rect>
<circle stroke-width="3" stroke="#E2E8F0" fill="#101225" r="59.5" cy="297.287" cx="422"></circle>
<g filter="url(#filter0_dd_1187_26050)">
<path fill="url(#paint2_linear_1187_26050)" d="M422.988 321.288C435.445 321.288 445.542 316.905 445.542 311.498V304.012H400.434V311.498C400.434 316.905 410.532 321.288 422.988 321.288Z"></path>
<ellipse fill="url(#paint3_linear_1187_26050)" ry="8.06194" rx="22.5543" cy="304.012" cx="422.988"></ellipse>
<ellipse fill-opacity="0.44" fill="url(#paint4_radial_1187_26050)" ry="8.06194" rx="22.5543" cy="304.012" cx="422.988"></ellipse>
<path fill="url(#paint5_linear_1187_26050)" d="M422.988 310.922C434.814 310.922 444.4 307.562 444.4 303.417V297.677H401.576V303.417C401.576 307.562 411.162 310.922 422.988 310.922Z"></path>
<path fill-opacity="0.284" fill="#C6D4DB" d="M422.988 310.922C434.814 310.922 444.4 307.562 444.4 303.417V297.677H401.576V303.417C401.576 307.562 411.162 310.922 422.988 310.922Z"></path>
<path fill="url(#paint6_linear_1187_26050)" d="M422.988 308.556C434.814 308.556 444.4 305.195 444.4 301.05V295.311H401.576V301.05C401.576 305.195 411.162 308.556 422.988 308.556Z" opacity="0.5"></path>
<path fill="url(#paint7_linear_1187_26050)" d="M422.988 307.467C435.445 307.467 445.542 303.761 445.542 299.188V291.344H400.434V299.188C400.434 303.761 410.532 307.467 422.988 307.467Z"></path>
<ellipse fill="url(#paint8_linear_1187_26050)" ry="8.63779" rx="22.5543" cy="290.767" cx="422.988"></ellipse>
<ellipse fill-opacity="0.44" fill="url(#paint9_radial_1187_26050)" ry="8.63779" rx="22.5543" cy="290.767" cx="422.988"></ellipse>
<path fill="url(#paint10_linear_1187_26050)" d="M422.988 298.254C434.814 298.254 444.4 294.747 444.4 290.422V284.433H401.576V290.422C401.576 294.747 411.162 298.254 422.988 298.254Z"></path>
<path fill-opacity="0.284" fill="#C6D4DB" d="M422.988 298.254C434.814 298.254 444.4 294.747 444.4 290.422V284.433H401.576V290.422C401.576 294.747 411.162 298.254 422.988 298.254Z"></path>
<path fill="url(#paint11_linear_1187_26050)" d="M422.988 295.624C434.814 295.624 444.4 292.118 444.4 287.792V281.804H401.576V287.792C401.576 292.118 411.162 295.624 422.988 295.624Z" opacity="0.5"></path>
<path fill="url(#paint12_linear_1187_26050)" d="M422.988 294.493C435.445 294.493 445.542 290.731 445.542 286.09V278.127H400.434V286.09C400.434 290.731 410.532 294.493 422.988 294.493Z"></path>
<ellipse fill="url(#paint13_linear_1187_26050)" ry="8.40316" rx="22.5543" cy="277.864" cx="422.989"></ellipse>
<path stroke-width="1.41236" stroke-opacity="0.46" stroke="url(#paint14_radial_1187_26050)" d="M444.837 277.864C444.837 278.748 444.359 279.676 443.304 280.605C442.25 281.533 440.685 282.401 438.691 283.144C434.706 284.628 429.155 285.561 422.989 285.561C416.822 285.561 411.271 284.628 407.287 283.144C405.292 282.401 403.727 281.533 402.674 280.605C401.619 279.676 401.141 278.748 401.141 277.864C401.141 276.98 401.619 276.052 402.674 275.123C403.727 274.195 405.292 273.327 407.287 272.584C411.271 271.099 416.822 270.167 422.989 270.167C429.155 270.167 434.706 271.099 438.691 272.584C440.685 273.327 442.25 274.195 443.304 275.123C444.359 276.052 444.837 276.98 444.837 277.864Z"></path>
</g>
<path fill="white" d="M73.6532 66.632C73.6532 66.792 73.5892 66.936 73.4612 67.064C73.3652 67.16 73.2372 67.208 73.0772 67.208H57.3332C57.1732 67.208 57.0932 67.288 57.0932 67.448V74.888C57.0932 75.048 57.1732 75.128 57.3332 75.128H67.6532C67.8132 75.128 67.9412 75.192 68.0372 75.32C68.1652 75.416 68.2292 75.544 68.2292 75.704V80.36C68.2292 80.52 68.1652 80.664 68.0372 80.792C67.9412 80.888 67.8132 80.936 67.6532 80.936H57.3332C57.1732 80.936 57.0932 81.016 57.0932 81.176V88.952C57.0932 89.112 57.1732 89.192 57.3332 89.192H73.0772C73.2372 89.192 73.3652 89.256 73.4612 89.384C73.5892 89.48 73.6532 89.608 73.6532 89.768V94.424C73.6532 94.584 73.5892 94.728 73.4612 94.856C73.3652 94.952 73.2372 95 73.0772 95H50.9012C50.7412 95 50.5972 94.952 50.4692 94.856C50.3732 94.728 50.3252 94.584 50.3252 94.424V61.976C50.3252 61.816 50.3732 61.688 50.4692 61.592C50.5972 61.464 50.7412 61.4 50.9012 61.4H73.0772C73.2372 61.4 73.3652 61.464 73.4612 61.592C73.5892 61.688 73.6532 61.816 73.6532 61.976V66.632ZM89.8284 69.944C92.3884 69.944 94.4524 70.728 96.0204 72.296C97.5884 73.864 98.3724 75.992 98.3724 78.68V94.424C98.3724 94.584 98.3084 94.728 98.1804 94.856C98.0844 94.952 97.9564 95 97.7964 95H92.1804C92.0204 95 91.8764 94.952 91.7484 94.856C91.6524 94.728 91.6044 94.584 91.6044 94.424V80.072C91.6044 78.792 91.2364 77.752 90.5004 76.952C89.7964 76.152 88.8524 75.752 87.6684 75.752C86.4844 75.752 85.5244 76.152 84.7884 76.952C84.0844 77.752 83.7324 78.792 83.7324 80.072V94.424C83.7324 94.584 83.6684 94.728 83.5404 94.856C83.4444 94.952 83.3164 95 83.1564 95H77.5404C77.3804 95 77.2364 94.952 77.1084 94.856C77.0124 94.728 76.9644 94.584 76.9644 94.424V70.904C76.9644 70.744 77.0124 70.616 77.1084 70.52C77.2364 70.392 77.3804 70.328 77.5404 70.328H83.1564C83.3164 70.328 83.4444 70.392 83.5404 70.52C83.6684 70.616 83.7324 70.744 83.7324 70.904V72.584C83.7324 72.68 83.7644 72.744 83.8284 72.776C83.8924 72.808 83.9404 72.792 83.9724 72.728C85.2844 70.872 87.2364 69.944 89.8284 69.944ZM112.094 69.944C114.174 69.944 116.03 70.312 117.662 71.048C119.294 71.752 120.558 72.728 121.454 73.976C122.382 75.224 122.846 76.616 122.846 78.152V94.424C122.846 94.584 122.782 94.728 122.654 94.856C122.558 94.952 122.43 95 122.27 95H116.654C116.494 95 116.35 94.952 116.222 94.856C116.126 94.728 116.078 94.584 116.078 94.424V92.84C116.078 92.744 116.046 92.68 115.982 92.648C115.918 92.616 115.854 92.648 115.79 92.744C114.446 94.504 112.286 95.384 109.31 95.384C106.814 95.384 104.798 94.776 103.262 93.56C101.726 92.344 100.958 90.552 100.958 88.184C100.958 85.72 101.822 83.816 103.55 82.472C105.278 81.096 107.742 80.408 110.942 80.408H115.838C115.998 80.408 116.078 80.328 116.078 80.168V79.112C116.078 78.056 115.758 77.24 115.118 76.664C114.478 76.056 113.518 75.752 112.238 75.752C111.246 75.752 110.414 75.928 109.742 76.28C109.102 76.632 108.686 77.128 108.494 77.768C108.398 78.12 108.19 78.28 107.87 78.248L102.062 77.48C101.678 77.416 101.502 77.272 101.534 77.048C101.662 75.704 102.19 74.488 103.118 73.4C104.078 72.312 105.326 71.464 106.862 70.856C108.43 70.248 110.174 69.944 112.094 69.944ZM111.134 90.344C112.51 90.344 113.678 89.976 114.638 89.24C115.598 88.504 116.078 87.56 116.078 86.408V84.68C116.078 84.52 115.998 84.44 115.838 84.44H112.382C110.942 84.44 109.806 84.712 108.974 85.256C108.174 85.8 107.774 86.568 107.774 87.56C107.774 88.424 108.078 89.112 108.686 89.624C109.294 90.104 110.11 90.344 111.134 90.344ZM148.494 76.616C149.102 78.28 149.406 80.264 149.406 82.568C149.406 84.776 149.134 86.712 148.59 88.376C147.854 90.552 146.67 92.264 145.038 93.512C143.438 94.76 141.534 95.384 139.326 95.384C136.99 95.384 135.15 94.504 133.806 92.744C133.742 92.68 133.678 92.664 133.614 92.696C133.55 92.696 133.518 92.744 133.518 92.84V94.424C133.518 94.584 133.454 94.728 133.326 94.856C133.23 94.952 133.102 95 132.942 95H127.326C127.166 95 127.022 94.952 126.894 94.856C126.798 94.728 126.75 94.584 126.75 94.424V61.976C126.75 61.816 126.798 61.688 126.894 61.592C127.022 61.464 127.166 61.4 127.326 61.4H132.942C133.102 61.4 133.23 61.464 133.326 61.592C133.454 61.688 133.518 61.816 133.518 61.976V72.248C133.518 72.344 133.55 72.408 133.614 72.44C133.678 72.472 133.742 72.44 133.806 72.344C135.054 70.744 136.83 69.944 139.134 69.944C141.47 69.944 143.422 70.552 144.99 71.768C146.59 72.952 147.758 74.568 148.494 76.616ZM141.39 87.512C142.062 86.296 142.398 84.696 142.398 82.712C142.398 80.504 142.014 78.808 141.246 77.624C140.478 76.376 139.342 75.752 137.838 75.752C136.43 75.752 135.358 76.376 134.622 77.624C133.918 78.84 133.566 80.52 133.566 82.664C133.566 84.808 133.886 86.424 134.526 87.512C135.294 88.888 136.414 89.576 137.886 89.576C139.454 89.576 140.622 88.888 141.39 87.512ZM153.457 95C153.297 95 153.153 94.952 153.025 94.856C152.929 94.728 152.881 94.584 152.881 94.424V61.976C152.881 61.816 152.929 61.688 153.025 61.592C153.153 61.464 153.297 61.4 153.457 61.4H159.073C159.233 61.4 159.361 61.464 159.457 61.592C159.585 61.688 159.649 61.816 159.649 61.976V94.424C159.649 94.584 159.585 94.728 159.457 94.856C159.361 94.952 159.233 95 159.073 95H153.457ZM185.48 80.12C185.672 81.336 185.736 82.696 185.672 84.2C185.64 84.584 185.432 84.776 185.048 84.776H170.216C170.024 84.776 169.96 84.856 170.024 85.016C170.12 85.656 170.296 86.296 170.552 86.936C171.384 88.728 173.08 89.624 175.64 89.624C177.688 89.592 179.304 88.76 180.488 87.128C180.616 86.936 180.76 86.84 180.92 86.84C181.016 86.84 181.128 86.904 181.256 87.032L184.712 90.44C184.872 90.6 184.952 90.744 184.952 90.872C184.952 90.936 184.888 91.064 184.76 91.256C183.704 92.568 182.344 93.592 180.68 94.328C179.016 95.032 177.192 95.384 175.208 95.384C172.456 95.384 170.12 94.76 168.2 93.512C166.312 92.264 164.952 90.52 164.12 88.28C163.448 86.68 163.112 84.584 163.112 81.992C163.112 80.232 163.352 78.68 163.832 77.336C164.568 75.064 165.848 73.256 167.672 71.912C169.528 70.568 171.72 69.896 174.248 69.896C177.448 69.896 180.008 70.824 181.928 72.68C183.88 74.536 185.064 77.016 185.48 80.12ZM174.296 75.752C172.28 75.752 170.952 76.696 170.312 78.584C170.184 79 170.072 79.512 169.976 80.12C169.976 80.28 170.056 80.36 170.216 80.36H178.52C178.712 80.36 178.776 80.28 178.712 80.12C178.552 79.192 178.472 78.744 178.472 78.776C178.184 77.816 177.672 77.08 176.936 76.568C176.232 76.024 175.352 75.752 174.296 75.752ZM209.485 95.384C206.925 95.384 204.685 94.984 202.765 94.184C200.845 93.352 199.357 92.184 198.301 90.68C197.277 89.144 196.765 87.368 196.765 85.352V84.296C196.765 84.136 196.813 84.008 196.909 83.912C197.037 83.784 197.181 83.72 197.341 83.72H202.813C202.973 83.72 203.101 83.784 203.197 83.912C203.325 84.008 203.389 84.136 203.389 84.296V85.016C203.389 86.296 203.981 87.384 205.165 88.28C206.349 89.144 207.949 89.576 209.965 89.576C211.661 89.576 212.925 89.224 213.757 88.52C214.589 87.784 215.005 86.888 215.005 85.832C215.005 85.064 214.749 84.424 214.237 83.912C213.725 83.368 213.021 82.904 212.125 82.52C211.261 82.104 209.869 81.544 207.949 80.84C205.805 80.104 203.981 79.352 202.477 78.584C201.005 77.816 199.757 76.776 198.733 75.464C197.741 74.12 197.245 72.472 197.245 70.52C197.245 68.6 197.741 66.92 198.733 65.48C199.725 64.04 201.101 62.936 202.861 62.168C204.621 61.4 206.653 61.016 208.957 61.016C211.389 61.016 213.549 61.448 215.437 62.312C217.357 63.176 218.845 64.392 219.901 65.96C220.989 67.496 221.533 69.288 221.533 71.336V72.056C221.533 72.216 221.469 72.36 221.341 72.488C221.245 72.584 221.117 72.632 220.957 72.632H215.437C215.277 72.632 215.133 72.584 215.005 72.488C214.909 72.36 214.861 72.216 214.861 72.056V71.672C214.861 70.328 214.301 69.192 213.181 68.264C212.093 67.304 210.589 66.824 208.669 66.824C207.165 66.824 205.981 67.144 205.117 67.784C204.285 68.424 203.869 69.304 203.869 70.424C203.869 71.224 204.109 71.896 204.589 72.44C205.101 72.984 205.837 73.48 206.797 73.928C207.789 74.344 209.309 74.92 211.357 75.656C213.629 76.488 215.405 77.224 216.685 77.864C217.997 78.504 219.165 79.464 220.189 80.744C221.245 81.992 221.773 83.624 221.773 85.64C221.773 88.648 220.669 91.032 218.461 92.792C216.253 94.52 213.261 95.384 209.485 95.384ZM239.279 75.176C239.279 75.336 239.215 75.48 239.087 75.608C238.991 75.704 238.863 75.752 238.703 75.752H234.095C233.935 75.752 233.855 75.832 233.855 75.992V86.168C233.855 87.224 234.063 88.008 234.479 88.52C234.927 89.032 235.631 89.288 236.591 89.288H238.175C238.335 89.288 238.463 89.352 238.559 89.48C238.687 89.576 238.751 89.704 238.751 89.864V94.424C238.751 94.776 238.559 94.984 238.175 95.048C236.831 95.112 235.871 95.144 235.295 95.144C232.639 95.144 230.655 94.712 229.343 93.848C228.031 92.952 227.359 91.288 227.327 88.856V75.992C227.327 75.832 227.247 75.752 227.087 75.752H224.351C224.191 75.752 224.047 75.704 223.919 75.608C223.823 75.48 223.775 75.336 223.775 75.176V70.904C223.775 70.744 223.823 70.616 223.919 70.52C224.047 70.392 224.191 70.328 224.351 70.328H227.087C227.247 70.328 227.327 70.248 227.327 70.088V64.376C227.327 64.216 227.375 64.088 227.471 63.992C227.599 63.864 227.743 63.8 227.903 63.8H233.279C233.439 63.8 233.567 63.864 233.663 63.992C233.791 64.088 233.855 64.216 233.855 64.376V70.088C233.855 70.248 233.935 70.328 234.095 70.328H238.703C238.863 70.328 238.991 70.392 239.087 70.52C239.215 70.616 239.279 70.744 239.279 70.904V75.176ZM252.234 69.944C254.314 69.944 256.17 70.312 257.802 71.048C259.434 71.752 260.698 72.728 261.594 73.976C262.522 75.224 262.986 76.616 262.986 78.152V94.424C262.986 94.584 262.922 94.728 262.794 94.856C262.698 94.952 262.57 95 262.41 95H256.794C256.634 95 256.49 94.952 256.362 94.856C256.266 94.728 256.218 94.584 256.218 94.424V92.84C256.218 92.744 256.186 92.68 256.122 92.648C256.058 92.616 255.994 92.648 255.93 92.744C254.586 94.504 252.426 95.384 249.45 95.384C246.954 95.384 244.938 94.776 243.402 93.56C241.866 92.344 241.098 90.552 241.098 88.184C241.098 85.72 241.962 83.816 243.69 82.472C245.418 81.096 247.882 80.408 251.082 80.408H255.978C256.138 80.408 256.218 80.328 256.218 80.168V79.112C256.218 78.056 255.898 77.24 255.258 76.664C254.618 76.056 253.658 75.752 252.378 75.752C251.386 75.752 250.554 75.928 249.882 76.28C249.242 76.632 248.826 77.128 248.634 77.768C248.538 78.12 248.33 78.28 248.01 78.248L242.202 77.48C241.818 77.416 241.642 77.272 241.674 77.048C241.802 75.704 242.33 74.488 243.258 73.4C244.218 72.312 245.466 71.464 247.002 70.856C248.57 70.248 250.314 69.944 252.234 69.944ZM251.274 90.344C252.65 90.344 253.818 89.976 254.778 89.24C255.738 88.504 256.218 87.56 256.218 86.408V84.68C256.218 84.52 256.138 84.44 255.978 84.44H252.522C251.082 84.44 249.946 84.712 249.114 85.256C248.314 85.8 247.914 86.568 247.914 87.56C247.914 88.424 248.218 89.112 248.826 89.624C249.434 90.104 250.25 90.344 251.274 90.344ZM280.438 75.176C280.438 75.336 280.374 75.48 280.246 75.608C280.15 75.704 280.022 75.752 279.862 75.752H275.254C275.094 75.752 275.014 75.832 275.014 75.992V86.168C275.014 87.224 275.222 88.008 275.638 88.52C276.086 89.032 276.79 89.288 277.75 89.288H279.334C279.494 89.288 279.622 89.352 279.718 89.48C279.846 89.576 279.91 89.704 279.91 89.864V94.424C279.91 94.776 279.718 94.984 279.334 95.048C277.99 95.112 277.03 95.144 276.454 95.144C273.798 95.144 271.814 94.712 270.502 93.848C269.19 92.952 268.518 91.288 268.486 88.856V75.992C268.486 75.832 268.406 75.752 268.246 75.752H265.51C265.35 75.752 265.206 75.704 265.078 75.608C264.982 75.48 264.934 75.336 264.934 75.176V70.904C264.934 70.744 264.982 70.616 265.078 70.52C265.206 70.392 265.35 70.328 265.51 70.328H268.246C268.406 70.328 268.486 70.248 268.486 70.088V64.376C268.486 64.216 268.534 64.088 268.63 63.992C268.758 63.864 268.902 63.8 269.062 63.8H274.438C274.598 63.8 274.726 63.864 274.822 63.992C274.95 64.088 275.014 64.216 275.014 64.376V70.088C275.014 70.248 275.094 70.328 275.254 70.328H279.862C280.022 70.328 280.15 70.392 280.246 70.52C280.374 70.616 280.438 70.744 280.438 70.904V75.176ZM287.2 67.544C286.112 67.544 285.2 67.192 284.464 66.488C283.76 65.752 283.408 64.84 283.408 63.752C283.408 62.632 283.76 61.72 284.464 61.016C285.168 60.312 286.08 59.96 287.2 59.96C288.32 59.96 289.232 60.312 289.936 61.016C290.64 61.72 290.992 62.632 290.992 63.752C290.992 64.84 290.624 65.752 289.888 66.488C289.184 67.192 288.288 67.544 287.2 67.544ZM284.32 95C284.16 95 284.016 94.952 283.888 94.856C283.792 94.728 283.744 94.584 283.744 94.424V70.856C283.744 70.696 283.792 70.568 283.888 70.472C284.016 70.344 284.16 70.28 284.32 70.28H289.936C290.096 70.28 290.224 70.344 290.32 70.472C290.448 70.568 290.512 70.696 290.512 70.856V94.424C290.512 94.584 290.448 94.728 290.32 94.856C290.224 94.952 290.096 95 289.936 95H284.32ZM305.674 95.384C303.114 95.384 300.89 94.744 299.002 93.464C297.146 92.184 295.818 90.424 295.018 88.184C294.474 86.584 294.202 84.696 294.202 82.52C294.202 80.376 294.474 78.52 295.018 76.952C295.786 74.776 297.114 73.064 299.002 71.816C300.89 70.568 303.114 69.944 305.674 69.944C308.234 69.944 310.474 70.584 312.394 71.864C314.346 73.144 315.642 74.76 316.282 76.712C316.538 77.48 316.666 78.056 316.666 78.44V78.536C316.666 78.824 316.506 79 316.186 79.064L310.666 79.88H310.57C310.282 79.88 310.09 79.72 309.994 79.4L309.85 78.632C309.626 77.8 309.13 77.112 308.362 76.568C307.594 76.024 306.682 75.752 305.626 75.752C304.602 75.752 303.738 76.008 303.034 76.52C302.33 77.032 301.834 77.736 301.546 78.632C301.194 79.592 301.018 80.904 301.018 82.568C301.018 84.232 301.178 85.544 301.498 86.504C301.786 87.464 302.282 88.216 302.986 88.76C303.722 89.304 304.602 89.576 305.626 89.576C306.618 89.576 307.482 89.32 308.218 88.808C308.986 88.264 309.514 87.528 309.802 86.6C309.834 86.536 309.85 86.44 309.85 86.312C309.882 86.28 309.898 86.232 309.898 86.168C309.93 85.784 310.154 85.624 310.57 85.688L316.09 86.552C316.41 86.616 316.57 86.792 316.57 87.08C316.57 87.336 316.474 87.816 316.282 88.52C315.61 90.664 314.298 92.344 312.346 93.56C310.426 94.776 308.202 95.384 305.674 95.384ZM329.305 95C329.145 95 329.001 94.952 328.873 94.856C328.777 94.728 328.729 94.584 328.729 94.424V61.976C328.729 61.816 328.777 61.688 328.873 61.592C329.001 61.464 329.145 61.4 329.305 61.4H334.921C335.081 61.4 335.209 61.464 335.305 61.592C335.433 61.688 335.497 61.816 335.497 61.976V94.424C335.497 94.584 335.433 94.728 335.305 94.856C335.209 94.952 335.081 95 334.921 95H329.305ZM354.25 61.352C356.362 61.352 358.218 61.784 359.818 62.648C361.418 63.512 362.65 64.744 363.514 66.344C364.41 67.912 364.858 69.72 364.858 71.768C364.858 73.784 364.394 75.56 363.466 77.096C362.57 78.632 361.29 79.832 359.626 80.696C357.994 81.528 356.106 81.944 353.962 81.944H347.146C346.986 81.944 346.906 82.024 346.906 82.184V94.424C346.906 94.584 346.842 94.728 346.714 94.856C346.618 94.952 346.49 95 346.33 95H340.714C340.554 95 340.41 94.952 340.282 94.856C340.186 94.728 340.138 94.584 340.138 94.424V61.928C340.138 61.768 340.186 61.64 340.282 61.544C340.41 61.416 340.554 61.352 340.714 61.352H354.25ZM353.242 76.52C354.714 76.52 355.898 76.104 356.794 75.272C357.69 74.408 358.138 73.288 358.138 71.912C358.138 70.504 357.69 69.368 356.794 68.504C355.898 67.64 354.714 67.208 353.242 67.208H347.146C346.986 67.208 346.906 67.288 346.906 67.448V76.28C346.906 76.44 346.986 76.52 347.146 76.52H353.242ZM379.924 67.544C378.836 67.544 377.924 67.192 377.188 66.488C376.484 65.752 376.132 64.84 376.132 63.752C376.132 62.632 376.484 61.72 377.188 61.016C377.892 60.312 378.804 59.96 379.924 59.96C381.044 59.96 381.956 60.312 382.66 61.016C383.364 61.72 383.716 62.632 383.716 63.752C383.716 64.84 383.348 65.752 382.612 66.488C381.908 67.192 381.012 67.544 379.924 67.544ZM377.044 95C376.884 95 376.74 94.952 376.612 94.856C376.516 94.728 376.468 94.584 376.468 94.424V70.856C376.468 70.696 376.516 70.568 376.612 70.472C376.74 70.344 376.884 70.28 377.044 70.28H382.66C382.82 70.28 382.948 70.344 383.044 70.472C383.172 70.568 383.236 70.696 383.236 70.856V94.424C383.236 94.584 383.172 94.728 383.044 94.856C382.948 94.952 382.82 95 382.66 95H377.044ZM400.415 69.944C402.975 69.944 405.039 70.728 406.607 72.296C408.175 73.864 408.959 75.992 408.959 78.68V94.424C408.959 94.584 408.895 94.728 408.767 94.856C408.671 94.952 408.543 95 408.383 95H402.767C402.607 95 402.463 94.952 402.335 94.856C402.239 94.728 402.191 94.584 402.191 94.424V80.072C402.191 78.792 401.823 77.752 401.087 76.952C400.383 76.152 399.439 75.752 398.255 75.752C397.071 75.752 396.111 76.152 395.375 76.952C394.671 77.752 394.319 78.792 394.319 80.072V94.424C394.319 94.584 394.255 94.728 394.127 94.856C394.031 94.952 393.903 95 393.743 95H388.127C387.967 95 387.823 94.952 387.695 94.856C387.599 94.728 387.551 94.584 387.551 94.424V70.904C387.551 70.744 387.599 70.616 387.695 70.52C387.823 70.392 387.967 70.328 388.127 70.328H393.743C393.903 70.328 394.031 70.392 394.127 70.52C394.255 70.616 394.319 70.744 394.319 70.904V72.584C394.319 72.68 394.351 72.744 394.415 72.776C394.479 72.808 394.527 72.792 394.559 72.728C395.871 70.872 397.823 69.944 400.415 69.944ZM435.794 61.352C437.906 61.352 439.762 61.784 441.362 62.648C442.962 63.512 444.194 64.744 445.058 66.344C445.954 67.912 446.402 69.72 446.402 71.768C446.402 73.784 445.938 75.56 445.01 77.096C444.114 78.632 442.834 79.832 441.17 80.696C439.538 81.528 437.65 81.944 435.506 81.944H428.69C428.53 81.944 428.45 82.024 428.45 82.184V94.424C428.45 94.584 428.386 94.728 428.258 94.856C428.162 94.952 428.034 95 427.874 95H422.258C422.098 95 421.954 94.952 421.826 94.856C421.73 94.728 421.682 94.584 421.682 94.424V61.928C421.682 61.768 421.73 61.64 421.826 61.544C421.954 61.416 422.098 61.352 422.258 61.352H435.794ZM434.786 76.52C436.258 76.52 437.442 76.104 438.338 75.272C439.234 74.408 439.682 73.288 439.682 71.912C439.682 70.504 439.234 69.368 438.338 68.504C437.442 67.64 436.258 67.208 434.786 67.208H428.69C428.53 67.208 428.45 67.288 428.45 67.448V76.28C428.45 76.44 428.53 76.52 428.69 76.52H434.786ZM461.459 69.992C462.611 69.992 463.523 70.216 464.195 70.664C464.451 70.792 464.547 71.032 464.483 71.384L463.475 76.856C463.443 77.24 463.219 77.352 462.803 77.192C462.323 77.032 461.763 76.952 461.123 76.952C460.867 76.952 460.515 76.984 460.067 77.048C458.915 77.144 457.939 77.576 457.139 78.344C456.339 79.08 455.939 80.072 455.939 81.32V94.424C455.939 94.584 455.875 94.728 455.747 94.856C455.651 94.952 455.523 95 455.363 95H449.747C449.587 95 449.443 94.952 449.315 94.856C449.219 94.728 449.171 94.584 449.171 94.424V70.904C449.171 70.744 449.219 70.616 449.315 70.52C449.443 70.392 449.587 70.328 449.747 70.328H455.363C455.523 70.328 455.651 70.392 455.747 70.52C455.875 70.616 455.939 70.744 455.939 70.904V72.728C455.939 72.824 455.971 72.888 456.035 72.92C456.099 72.952 456.147 72.936 456.179 72.872C457.491 70.952 459.251 69.992 461.459 69.992ZM470.234 67.544C469.146 67.544 468.234 67.192 467.498 66.488C466.794 65.752 466.442 64.84 466.442 63.752C466.442 62.632 466.794 61.72 467.498 61.016C468.202 60.312 469.114 59.96 470.234 59.96C471.354 59.96 472.266 60.312 472.97 61.016C473.674 61.72 474.026 62.632 474.026 63.752C474.026 64.84 473.658 65.752 472.922 66.488C472.218 67.192 471.322 67.544 470.234 67.544ZM467.354 95C467.194 95 467.05 94.952 466.922 94.856C466.826 94.728 466.778 94.584 466.778 94.424V70.856C466.778 70.696 466.826 70.568 466.922 70.472C467.05 70.344 467.194 70.28 467.354 70.28H472.97C473.13 70.28 473.258 70.344 473.354 70.472C473.482 70.568 473.546 70.696 473.546 70.856V94.424C473.546 94.584 473.482 94.728 473.354 94.856C473.258 94.952 473.13 95 472.97 95H467.354ZM487.7 95.336C485.556 95.336 483.684 95.032 482.084 94.424C480.484 93.816 479.236 92.968 478.34 91.88C477.476 90.792 477.044 89.56 477.044 88.184V87.704C477.044 87.544 477.092 87.416 477.188 87.32C477.316 87.192 477.46 87.128 477.62 87.128H482.948C483.108 87.128 483.236 87.192 483.332 87.32C483.46 87.416 483.524 87.544 483.524 87.704V87.752C483.524 88.456 483.908 89.064 484.676 89.576C485.476 90.056 486.468 90.296 487.652 90.296C488.74 90.296 489.62 90.088 490.292 89.672C490.964 89.224 491.3 88.68 491.3 88.04C491.3 87.464 491.012 87.032 490.436 86.744C489.86 86.456 488.916 86.152 487.604 85.832C486.1 85.448 484.916 85.08 484.052 84.728C482.004 84.024 480.372 83.16 479.156 82.136C477.94 81.112 477.332 79.64 477.332 77.72C477.332 75.352 478.244 73.48 480.068 72.104C481.924 70.696 484.372 69.992 487.412 69.992C489.46 69.992 491.252 70.328 492.788 71C494.324 71.64 495.508 72.552 496.34 73.736C497.204 74.92 497.636 76.264 497.636 77.768C497.636 77.928 497.572 78.072 497.444 78.2C497.348 78.296 497.22 78.344 497.06 78.344H491.924C491.764 78.344 491.62 78.296 491.492 78.2C491.396 78.072 491.348 77.928 491.348 77.768C491.348 77.064 490.98 76.472 490.244 75.992C489.54 75.512 488.596 75.272 487.412 75.272C486.356 75.272 485.492 75.464 484.82 75.848C484.148 76.232 483.812 76.76 483.812 77.432C483.812 78.072 484.132 78.552 484.772 78.872C485.444 79.192 486.548 79.528 488.084 79.88C488.436 79.976 488.836 80.088 489.284 80.216C489.732 80.312 490.212 80.44 490.724 80.6C492.996 81.272 494.788 82.136 496.1 83.192C497.412 84.248 498.068 85.784 498.068 87.8C498.068 90.168 497.124 92.024 495.236 93.368C493.38 94.68 490.868 95.336 487.7 95.336ZM528.354 69.944C530.85 69.944 532.802 70.696 534.21 72.2C535.618 73.704 536.322 75.816 536.322 78.536V94.424C536.322 94.584 536.258 94.728 536.13 94.856C536.034 94.952 535.906 95 535.746 95H530.13C529.97 95 529.826 94.952 529.698 94.856C529.602 94.728 529.554 94.584 529.554 94.424V80.024C529.554 78.712 529.218 77.672 528.546 76.904C527.874 76.136 526.978 75.752 525.858 75.752C524.738 75.752 523.826 76.136 523.122 76.904C522.418 77.672 522.066 78.696 522.066 79.976V94.424C522.066 94.584 522.002 94.728 521.874 94.856C521.778 94.952 521.65 95 521.49 95H515.922C515.762 95 515.618 94.952 515.49 94.856C515.394 94.728 515.346 94.584 515.346 94.424V80.024C515.346 78.744 514.994 77.72 514.29 76.952C513.586 76.152 512.674 75.752 511.554 75.752C510.53 75.752 509.666 76.056 508.962 76.664C508.29 77.272 507.89 78.12 507.762 79.208V94.424C507.762 94.584 507.698 94.728 507.57 94.856C507.474 94.952 507.346 95 507.186 95H501.57C501.41 95 501.266 94.952 501.138 94.856C501.042 94.728 500.994 94.584 500.994 94.424V70.904C500.994 70.744 501.042 70.616 501.138 70.52C501.266 70.392 501.41 70.328 501.57 70.328H507.186C507.346 70.328 507.474 70.392 507.57 70.52C507.698 70.616 507.762 70.744 507.762 70.904V72.776C507.762 72.872 507.794 72.936 507.858 72.968C507.922 73 507.986 72.968 508.05 72.872C509.362 70.92 511.394 69.944 514.146 69.944C515.746 69.944 517.138 70.28 518.322 70.952C519.538 71.624 520.466 72.584 521.106 73.832C521.202 74.024 521.314 74.024 521.442 73.832C522.146 72.52 523.09 71.544 524.274 70.904C525.49 70.264 526.85 69.944 528.354 69.944ZM549.952 69.944C552.032 69.944 553.888 70.312 555.52 71.048C557.152 71.752 558.416 72.728 559.312 73.976C560.24 75.224 560.704 76.616 560.704 78.152V94.424C560.704 94.584 560.64 94.728 560.512 94.856C560.416 94.952 560.288 95 560.128 95H554.512C554.352 95 554.208 94.952 554.08 94.856C553.984 94.728 553.936 94.584 553.936 94.424V92.84C553.936 92.744 553.904 92.68 553.84 92.648C553.776 92.616 553.712 92.648 553.648 92.744C552.304 94.504 550.144 95.384 547.168 95.384C544.672 95.384 542.656 94.776 541.12 93.56C539.584 92.344 538.816 90.552 538.816 88.184C538.816 85.72 539.68 83.816 541.408 82.472C543.136 81.096 545.6 80.408 548.8 80.408H553.696C553.856 80.408 553.936 80.328 553.936 80.168V79.112C553.936 78.056 553.616 77.24 552.976 76.664C552.336 76.056 551.376 75.752 550.096 75.752C549.104 75.752 548.272 75.928 547.6 76.28C546.96 76.632 546.544 77.128 546.352 77.768C546.256 78.12 546.048 78.28 545.728 78.248L539.92 77.48C539.536 77.416 539.36 77.272 539.392 77.048C539.52 75.704 540.048 74.488 540.976 73.4C541.936 72.312 543.184 71.464 544.72 70.856C546.288 70.248 548.032 69.944 549.952 69.944ZM548.992 90.344C550.368 90.344 551.536 89.976 552.496 89.24C553.456 88.504 553.936 87.56 553.936 86.408V84.68C553.936 84.52 553.856 84.44 553.696 84.44H550.24C548.8 84.44 547.664 84.712 546.832 85.256C546.032 85.8 545.632 86.568 545.632 87.56C545.632 88.424 545.936 89.112 546.544 89.624C547.152 90.104 547.968 90.344 548.992 90.344ZM594.953 95C594.633 95 594.425 94.84 594.329 94.52L592.889 89.816C592.825 89.688 592.745 89.624 592.649 89.624H580.841C580.745 89.624 580.665 89.688 580.601 89.816L579.209 94.52C579.113 94.84 578.905 95 578.585 95H572.489C572.297 95 572.153 94.952 572.057 94.856C571.961 94.728 571.945 94.552 572.009 94.328L582.377 61.88C582.473 61.56 582.681 61.4 583.001 61.4H590.537C590.857 61.4 591.065 61.56 591.161 61.88L601.529 94.328C601.561 94.392 601.577 94.472 601.577 94.568C601.577 94.856 601.401 95 601.049 95H594.953ZM582.329 84.104C582.297 84.296 582.361 84.392 582.521 84.392H590.969C591.161 84.392 591.225 84.296 591.161 84.104L586.841 69.848C586.809 69.72 586.761 69.672 586.697 69.704C586.633 69.704 586.585 69.752 586.553 69.848L582.329 84.104ZM614.455 95.384C611.895 95.384 609.671 94.744 607.783 93.464C605.927 92.184 604.599 90.424 603.799 88.184C603.255 86.584 602.983 84.696 602.983 82.52C602.983 80.376 603.255 78.52 603.799 76.952C604.567 74.776 605.895 73.064 607.783 71.816C609.671 70.568 611.895 69.944 614.455 69.944C617.015 69.944 619.255 70.584 621.175 71.864C623.127 73.144 624.423 74.76 625.063 76.712C625.319 77.48 625.447 78.056 625.447 78.44V78.536C625.447 78.824 625.287 79 624.967 79.064L619.447 79.88H619.351C619.063 79.88 618.871 79.72 618.775 79.4L618.631 78.632C618.407 77.8 617.911 77.112 617.143 76.568C616.375 76.024 615.463 75.752 614.407 75.752C613.383 75.752 612.519 76.008 611.815 76.52C611.111 77.032 610.615 77.736 610.327 78.632C609.975 79.592 609.799 80.904 609.799 82.568C609.799 84.232 609.959 85.544 610.279 86.504C610.567 87.464 611.063 88.216 611.767 88.76C612.503 89.304 613.383 89.576 614.407 89.576C615.399 89.576 616.263 89.32 616.999 88.808C617.767 88.264 618.295 87.528 618.583 86.6C618.615 86.536 618.631 86.44 618.631 86.312C618.663 86.28 618.679 86.232 618.679 86.168C618.711 85.784 618.935 85.624 619.351 85.688L624.871 86.552C625.191 86.616 625.351 86.792 625.351 87.08C625.351 87.336 625.255 87.816 625.063 88.52C624.391 90.664 623.079 92.344 621.127 93.56C619.207 94.776 616.983 95.384 614.455 95.384ZM638.995 95.384C636.435 95.384 634.211 94.744 632.323 93.464C630.467 92.184 629.139 90.424 628.339 88.184C627.795 86.584 627.523 84.696 627.523 82.52C627.523 80.376 627.795 78.52 628.339 76.952C629.107 74.776 630.435 73.064 632.323 71.816C634.211 70.568 636.435 69.944 638.995 69.944C641.555 69.944 643.795 70.584 645.715 71.864C647.667 73.144 648.963 74.76 649.603 76.712C649.859 77.48 649.987 78.056 649.987 78.44V78.536C649.987 78.824 649.827 79 649.507 79.064L643.987 79.88H643.891C643.603 79.88 643.411 79.72 643.315 79.4L643.171 78.632C642.947 77.8 642.451 77.112 641.683 76.568C640.915 76.024 640.003 75.752 638.947 75.752C637.923 75.752 637.059 76.008 636.355 76.52C635.651 77.032 635.155 77.736 634.867 78.632C634.515 79.592 634.339 80.904 634.339 82.568C634.339 84.232 634.499 85.544 634.819 86.504C635.107 87.464 635.603 88.216 636.307 88.76C637.043 89.304 637.923 89.576 638.947 89.576C639.939 89.576 640.803 89.32 641.539 88.808C642.307 88.264 642.835 87.528 643.123 86.6C643.155 86.536 643.171 86.44 643.171 86.312C643.203 86.28 643.219 86.232 643.219 86.168C643.251 85.784 643.475 85.624 643.891 85.688L649.411 86.552C649.731 86.616 649.891 86.792 649.891 87.08C649.891 87.336 649.795 87.816 649.603 88.52C648.931 90.664 647.619 92.344 645.667 93.56C643.747 94.776 641.523 95.384 638.995 95.384ZM674.527 80.12C674.719 81.336 674.783 82.696 674.719 84.2C674.687 84.584 674.479 84.776 674.095 84.776H659.263C659.071 84.776 659.007 84.856 659.071 85.016C659.167 85.656 659.343 86.296 659.599 86.936C660.431 88.728 662.127 89.624 664.687 89.624C666.735 89.592 668.351 88.76 669.535 87.128C669.663 86.936 669.807 86.84 669.967 86.84C670.063 86.84 670.175 86.904 670.303 87.032L673.759 90.44C673.919 90.6 673.999 90.744 673.999 90.872C673.999 90.936 673.935 91.064 673.807 91.256C672.751 92.568 671.391 93.592 669.727 94.328C668.063 95.032 666.239 95.384 664.255 95.384C661.503 95.384 659.167 94.76 657.247 93.512C655.359 92.264 653.999 90.52 653.167 88.28C652.495 86.68 652.159 84.584 652.159 81.992C652.159 80.232 652.399 78.68 652.879 77.336C653.615 75.064 654.895 73.256 656.719 71.912C658.575 70.568 660.767 69.896 663.295 69.896C666.495 69.896 669.055 70.824 670.975 72.68C672.927 74.536 674.111 77.016 674.527 80.12ZM663.343 75.752C661.327 75.752 659.999 76.696 659.359 78.584C659.231 79 659.119 79.512 659.023 80.12C659.023 80.28 659.103 80.36 659.263 80.36H667.567C667.759 80.36 667.823 80.28 667.759 80.12C667.599 79.192 667.519 78.744 667.519 78.776C667.231 77.816 666.719 77.08 665.983 76.568C665.279 76.024 664.399 75.752 663.343 75.752ZM678.506 95C678.346 95 678.202 94.952 678.074 94.856C677.978 94.728 677.93 94.584 677.93 94.424V61.976C677.93 61.816 677.978 61.688 678.074 61.592C678.202 61.464 678.346 61.4 678.506 61.4H684.122C684.282 61.4 684.41 61.464 684.506 61.592C684.634 61.688 684.698 61.816 684.698 61.976V94.424C684.698 94.584 684.634 94.728 684.506 94.856C684.41 94.952 684.282 95 684.122 95H678.506ZM710.529 80.12C710.721 81.336 710.785 82.696 710.721 84.2C710.689 84.584 710.481 84.776 710.097 84.776H695.265C695.073 84.776 695.009 84.856 695.073 85.016C695.169 85.656 695.345 86.296 695.601 86.936C696.433 88.728 698.129 89.624 700.689 89.624C702.737 89.592 704.353 88.76 705.537 87.128C705.665 86.936 705.809 86.84 705.969 86.84C706.065 86.84 706.177 86.904 706.305 87.032L709.761 90.44C709.921 90.6 710.001 90.744 710.001 90.872C710.001 90.936 709.937 91.064 709.809 91.256C708.753 92.568 707.393 93.592 705.729 94.328C704.065 95.032 702.241 95.384 700.257 95.384C697.505 95.384 695.169 94.76 693.249 93.512C691.361 92.264 690.001 90.52 689.169 88.28C688.497 86.68 688.161 84.584 688.161 81.992C688.161 80.232 688.401 78.68 688.881 77.336C689.617 75.064 690.897 73.256 692.721 71.912C694.577 70.568 696.769 69.896 699.297 69.896C702.497 69.896 705.057 70.824 706.977 72.68C708.929 74.536 710.113 77.016 710.529 80.12ZM699.345 75.752C697.329 75.752 696.001 76.696 695.361 78.584C695.233 79 695.121 79.512 695.025 80.12C695.025 80.28 695.105 80.36 695.265 80.36H703.569C703.761 80.36 703.825 80.28 703.761 80.12C703.601 79.192 703.521 78.744 703.521 78.776C703.233 77.816 702.721 77.08 701.985 76.568C701.281 76.024 700.401 75.752 699.345 75.752ZM726.22 69.992C727.372 69.992 728.284 70.216 728.956 70.664C729.212 70.792 729.308 71.032 729.244 71.384L728.236 76.856C728.204 77.24 727.98 77.352 727.564 77.192C727.084 77.032 726.524 76.952 725.884 76.952C725.628 76.952 725.276 76.984 724.828 77.048C723.676 77.144 722.7 77.576 721.9 78.344C721.1 79.08 720.7 80.072 720.7 81.32V94.424C720.7 94.584 720.636 94.728 720.508 94.856C720.412 94.952 720.284 95 720.124 95H714.508C714.348 95 714.204 94.952 714.076 94.856C713.98 94.728 713.932 94.584 713.932 94.424V70.904C713.932 70.744 713.98 70.616 714.076 70.52C714.204 70.392 714.348 70.328 714.508 70.328H720.124C720.284 70.328 720.412 70.392 720.508 70.52C720.636 70.616 720.7 70.744 720.7 70.904V72.728C720.7 72.824 720.732 72.888 720.796 72.92C720.86 72.952 720.908 72.936 720.94 72.872C722.252 70.952 724.012 69.992 726.22 69.992ZM740.906 69.944C742.986 69.944 744.842 70.312 746.474 71.048C748.106 71.752 749.37 72.728 750.266 73.976C751.194 75.224 751.658 76.616 751.658 78.152V94.424C751.658 94.584 751.594 94.728 751.466 94.856C751.37 94.952 751.242 95 751.082 95H745.466C745.306 95 745.162 94.952 745.034 94.856C744.938 94.728 744.89 94.584 744.89 94.424V92.84C744.89 92.744 744.858 92.68 744.794 92.648C744.73 92.616 744.666 92.648 744.602 92.744C743.258 94.504 741.098 95.384 738.122 95.384C735.626 95.384 733.61 94.776 732.074 93.56C730.538 92.344 729.77 90.552 729.77 88.184C729.77 85.72 730.634 83.816 732.362 82.472C734.09 81.096 736.554 80.408 739.754 80.408H744.65C744.81 80.408 744.89 80.328 744.89 80.168V79.112C744.89 78.056 744.57 77.24 743.93 76.664C743.29 76.056 742.33 75.752 741.05 75.752C740.058 75.752 739.226 75.928 738.554 76.28C737.914 76.632 737.498 77.128 737.306 77.768C737.21 78.12 737.002 78.28 736.682 78.248L730.874 77.48C730.49 77.416 730.314 77.272 730.346 77.048C730.474 75.704 731.002 74.488 731.93 73.4C732.89 72.312 734.138 71.464 735.674 70.856C737.242 70.248 738.986 69.944 740.906 69.944ZM739.946 90.344C741.322 90.344 742.49 89.976 743.45 89.24C744.41 88.504 744.89 87.56 744.89 86.408V84.68C744.89 84.52 744.81 84.44 744.65 84.44H741.194C739.754 84.44 738.618 84.712 737.786 85.256C736.986 85.8 736.586 86.568 736.586 87.56C736.586 88.424 736.89 89.112 737.498 89.624C738.106 90.104 738.922 90.344 739.946 90.344ZM769.109 75.176C769.109 75.336 769.045 75.48 768.917 75.608C768.821 75.704 768.693 75.752 768.533 75.752H763.925C763.765 75.752 763.685 75.832 763.685 75.992V86.168C763.685 87.224 763.893 88.008 764.309 88.52C764.757 89.032 765.461 89.288 766.421 89.288H768.005C768.165 89.288 768.293 89.352 768.389 89.48C768.517 89.576 768.581 89.704 768.581 89.864V94.424C768.581 94.776 768.389 94.984 768.005 95.048C766.661 95.112 765.701 95.144 765.125 95.144C762.469 95.144 760.485 94.712 759.173 93.848C757.861 92.952 757.189 91.288 757.157 88.856V75.992C757.157 75.832 757.077 75.752 756.917 75.752H754.181C754.021 75.752 753.877 75.704 753.749 75.608C753.653 75.48 753.605 75.336 753.605 75.176V70.904C753.605 70.744 753.653 70.616 753.749 70.52C753.877 70.392 754.021 70.328 754.181 70.328H756.917C757.077 70.328 757.157 70.248 757.157 70.088V64.376C757.157 64.216 757.205 64.088 757.301 63.992C757.429 63.864 757.573 63.8 757.733 63.8H763.109C763.269 63.8 763.397 63.864 763.493 63.992C763.621 64.088 763.685 64.216 763.685 64.376V70.088C763.685 70.248 763.765 70.328 763.925 70.328H768.533C768.693 70.328 768.821 70.392 768.917 70.52C769.045 70.616 769.109 70.744 769.109 70.904V75.176ZM793.736 80.12C793.928 81.336 793.992 82.696 793.928 84.2C793.896 84.584 793.688 84.776 793.304 84.776H778.472C778.28 84.776 778.216 84.856 778.28 85.016C778.376 85.656 778.552 86.296 778.808 86.936C779.64 88.728 781.336 89.624 783.896 89.624C785.944 89.592 787.56 88.76 788.744 87.128C788.872 86.936 789.016 86.84 789.176 86.84C789.272 86.84 789.384 86.904 789.512 87.032L792.968 90.44C793.128 90.6 793.208 90.744 793.208 90.872C793.208 90.936 793.144 91.064 793.016 91.256C791.96 92.568 790.6 93.592 788.936 94.328C787.272 95.032 785.448 95.384 783.464 95.384C780.712 95.384 778.376 94.76 776.456 93.512C774.568 92.264 773.208 90.52 772.376 88.28C771.704 86.68 771.368 84.584 771.368 81.992C771.368 80.232 771.608 78.68 772.088 77.336C772.824 75.064 774.104 73.256 775.928 71.912C777.784 70.568 779.976 69.896 782.504 69.896C785.704 69.896 788.264 70.824 790.184 72.68C792.136 74.536 793.32 77.016 793.736 80.12ZM782.552 75.752C780.536 75.752 779.208 76.696 778.568 78.584C778.44 79 778.328 79.512 778.232 80.12C778.232 80.28 778.312 80.36 778.472 80.36H786.776C786.968 80.36 787.032 80.28 786.968 80.12C786.808 79.192 786.728 78.744 786.728 78.776C786.44 77.816 785.928 77.08 785.192 76.568C784.488 76.024 783.608 75.752 782.552 75.752Z"></path>
<circle stroke-width="3" stroke="#16A394" fill="white" r="21.6918" cy="343.5" cx="476.192"></circle>
<path fill="#1A202C" d="M467.232 346.38C467.005 346.75 467.008 347.218 467.241 347.585L471.452 354.228C471.726 354.659 472.253 354.856 472.742 354.709L484.895 351.063C485.558 350.864 485.892 350.124 485.602 349.495L477.789 332.547C477.408 331.721 476.26 331.653 475.784 332.429L467.232 346.38ZM477.582 336.422C477.416 336.038 476.853 336.097 476.771 336.507L473.763 351.484C473.7 351.8 473.995 352.07 474.304 351.978L482.701 349.471C482.946 349.398 483.072 349.127 482.971 348.892L477.582 336.422Z" clip-rule="evenodd" fill-rule="evenodd"></path>
<defs>
<filter color-interpolation-filters="sRGB" filterUnits="userSpaceOnUse" height="60.0004" width="51.2903" y="269.287" x="397.355" id="filter0_dd_1187_26050">
<feFlood result="BackgroundImageFix" flood-opacity="0"></feFlood>
<feColorMatrix result="hardAlpha" values="0 0 0 0 0 0 0 0 0 0 0 0 0 0 0 0 0 0 127 0" type="matrix" in="SourceAlpha"></feColorMatrix>
<feOffset dy="5"></feOffset>
<feGaussianBlur stdDeviation="1.5"></feGaussianBlur>
<feColorMatrix values="0 0 0 0 0.0901961 0 0 0 0 0.168627 0 0 0 0 0.301961 0 0 0 0.08 0" type="matrix"></feColorMatrix>
<feBlend result="effect1_dropShadow_1187_26050" in2="BackgroundImageFix" mode="normal"></feBlend>
<feColorMatrix result="hardAlpha" values="0 0 0 0 0 0 0 0 0 0 0 0 0 0 0 0 0 0 127 0" type="matrix" in="SourceAlpha"></feColorMatrix>
<feOffset dy="3"></feOffset>
<feGaussianBlur stdDeviation="1"></feGaussianBlur>
<feColorMatrix values="0 0 0 0 0.0901961 0 0 0 0 0.168627 0 0 0 0 0.301961 0 0 0 0.04 0" type="matrix"></feColorMatrix>
<feBlend result="effect2_dropShadow_1187_26050" in2="effect1_dropShadow_1187_26050" mode="normal"></feBlend>
<feBlend result="shape" in2="effect2_dropShadow_1187_26050" in="SourceGraphic" mode="normal"></feBlend>
</filter>
<linearGradient gradientUnits="userSpaceOnUse" y2="474" x2="422" y1="0" x1="422" id="paint0_linear_1187_26050">
<stop stop-color="#171937"></stop>
<stop stop-color="#090A15" offset="1"></stop>
</linearGradient>
<linearGradient gradientUnits="userSpaceOnUse" y2="324.287" x2="405" y1="46.7874" x1="389.5" id="paint1_linear_1187_26050">
<stop stop-color="#D9F9F6"></stop>
<stop stop-opacity="0.02" stop-color="#154F47" offset="1"></stop>
</linearGradient>
<linearGradient gradientUnits="userSpaceOnUse" y2="301.231" x2="445.542" y1="301.231" x1="400.434" id="paint2_linear_1187_26050">
<stop stop-color="#B4C5CD"></stop>
<stop stop-color="#6C8A98" offset="0.718232"></stop>
<stop stop-color="#6B8692" offset="1"></stop>
</linearGradient>
<linearGradient gradientUnits="userSpaceOnUse" y2="314.212" x2="414.852" y1="292.954" x1="437.923" id="paint3_linear_1187_26050">
<stop stop-color="#648697"></stop>
<stop stop-color="#B8CCD5" offset="1"></stop>
</linearGradient>
<radialGradient gradientTransform="translate(410.342 312.105) rotate(-140.737) scale(12.7973 10.9999)" gradientUnits="userSpaceOnUse" r="1" cy="0" cx="0" id="paint4_radial_1187_26050">
<stop stop-color="white"></stop>
<stop stop-opacity="0" stop-color="white" offset="1"></stop>
</radialGradient>
<linearGradient gradientUnits="userSpaceOnUse" y2="295.545" x2="444.4" y1="295.545" x1="401.576" id="paint5_linear_1187_26050">
<stop stop-color="#183C56"></stop>
<stop stop-color="#335D7B" offset="0.286458"></stop>
<stop stop-color="#082133" offset="1"></stop>
</linearGradient>
<linearGradient gradientUnits="userSpaceOnUse" y2="293.179" x2="444.4" y1="293.179" x1="401.576" id="paint6_linear_1187_26050">
<stop stop-color="#183C56"></stop>
<stop stop-color="#335D7B" offset="0.286458"></stop>
<stop stop-color="#082133" offset="1"></stop>
</linearGradient>
<linearGradient gradientUnits="userSpaceOnUse" y2="290.506" x2="445.542" y1="290.506" x1="400.434" id="paint7_linear_1187_26050">
<stop stop-color="#B4C5CD"></stop>
<stop stop-color="#6C8A98" offset="0.718232"></stop>
<stop stop-color="#6B8692" offset="1"></stop>
</linearGradient>
<linearGradient gradientUnits="userSpaceOnUse" y2="300.009" x2="413.401" y1="278.92" x1="437.923" id="paint8_linear_1187_26050">
<stop stop-color="#648697"></stop>
<stop stop-color="#B8CCD5" offset="1"></stop>
</linearGradient>
<radialGradient gradientTransform="translate(410.342 299.438) rotate(-138.788) scale(13.171 11.4512)" gradientUnits="userSpaceOnUse" r="1" cy="0" cx="0" id="paint9_radial_1187_26050">
<stop stop-color="white"></stop>
<stop stop-opacity="0" stop-color="white" offset="1"></stop>
</radialGradient>
<linearGradient gradientUnits="userSpaceOnUse" y2="282.209" x2="444.4" y1="282.209" x1="401.576" id="paint10_linear_1187_26050">
<stop stop-color="#183C56"></stop>
<stop stop-color="#335D7B" offset="0.286458"></stop>
<stop stop-color="#082133" offset="1"></stop>
</linearGradient>
<linearGradient gradientUnits="userSpaceOnUse" y2="279.579" x2="444.4" y1="279.579" x1="401.576" id="paint11_linear_1187_26050">
<stop stop-color="#183C56"></stop>
<stop stop-color="#335D7B" offset="0.286458"></stop>
<stop stop-color="#082133" offset="1"></stop>
</linearGradient>
<linearGradient gradientUnits="userSpaceOnUse" y2="277.277" x2="445.542" y1="277.277" x1="400.434" id="paint12_linear_1187_26050">
<stop stop-color="#B4C5CD"></stop>
<stop stop-color="#6C8A98" offset="0.718232"></stop>
<stop stop-color="#6B8692" offset="1"></stop>
</linearGradient>
<linearGradient gradientUnits="userSpaceOnUse" y2="292.902" x2="418.214" y1="271.412" x1="438.228" id="paint13_linear_1187_26050">
<stop stop-color="#B9CAD2"></stop>
<stop stop-color="#DBE6EB" offset="1"></stop>
</linearGradient>
<radialGradient gradientTransform="translate(406.953 284.975) rotate(-34.9709) scale(19.7281 53.5584)" gradientUnits="userSpaceOnUse" r="1" cy="0" cx="0" id="paint14_radial_1187_26050">
<stop stop-color="white"></stop>
<stop stop-opacity="0" stop-color="white" offset="1"></stop>
</radialGradient>
</defs>
</svg>
