<svg xmlns="http://www.w3.org/2000/svg" fill="none" viewBox="0 0 844 474" height="474" width="844">
<g clip-path="url(#clip0_7103_3521)">
<rect fill="url(#paint0_linear_7103_3521)" height="474" width="844"></rect>
<line stroke-opacity="0.1" stroke="url(#paint1_linear_7103_3521)" y2="473.527" x2="2128.31" y1="-5.72011" x1="805.173"></line>
<line stroke-opacity="0.1" stroke="url(#paint2_linear_7103_3521)" y2="473.527" x2="1982.45" y1="-5.72011" x1="659.315"></line>
<line stroke-opacity="0.1" stroke="url(#paint3_linear_7103_3521)" y2="473.527" x2="1836.6" y1="-5.72011" x1="513.456"></line>
<line stroke-opacity="0.1" stroke="url(#paint4_linear_7103_3521)" y2="473.527" x2="1690.74" y1="-5.72011" x1="367.599"></line>
<line stroke-opacity="0.1" stroke="url(#paint5_linear_7103_3521)" y2="473.527" x2="1544.88" y1="-5.72011" x1="221.741"></line>
<line stroke-opacity="0.1" stroke="url(#paint6_linear_7103_3521)" y2="473.527" x2="1399.02" y1="-5.72011" x1="75.8832"></line>
<line stroke-opacity="0.1" stroke="url(#paint7_linear_7103_3521)" y2="473.527" x2="1253.16" y1="-5.72011" x1="-69.9749"></line>
<line stroke-opacity="0.1" stroke="url(#paint8_linear_7103_3521)" y2="473.527" x2="1107.31" y1="-5.72011" x1="-215.833"></line>
<line stroke-opacity="0.1" stroke="url(#paint9_linear_7103_3521)" y2="473.527" x2="961.449" y1="-5.72011" x1="-361.691"></line>
<line stroke-opacity="0.1" stroke="url(#paint10_linear_7103_3521)" y2="473.527" x2="815.591" y1="-5.72011" x1="-507.549"></line>
<line stroke-opacity="0.1" stroke="url(#paint11_linear_7103_3521)" y2="473.527" x2="669.733" y1="-5.72011" x1="-653.407"></line>
<line stroke-opacity="0.1" stroke="url(#paint12_linear_7103_3521)" y2="473.527" x2="523.875" y1="-5.72011" x1="-799.264"></line>
<line stroke-opacity="0.1" stroke="url(#paint13_linear_7103_3521)" transform="matrix(-0.940225 0.340554 0.340554 0.940225 243.705 -5.25)" y2="-0.5" x2="1407.26" y1="-0.5"></line>
<line stroke-opacity="0.1" stroke="url(#paint14_linear_7103_3521)" transform="matrix(-0.940225 0.340554 0.340554 0.940225 389.563 -5.25)" y2="-0.5" x2="1407.26" y1="-0.5"></line>
<line stroke-opacity="0.1" stroke="url(#paint15_linear_7103_3521)" transform="matrix(-0.940225 0.340554 0.340554 0.940225 535.421 -5.25)" y2="-0.5" x2="1407.26" y1="-0.5"></line>
<line stroke-opacity="0.1" stroke="url(#paint16_linear_7103_3521)" transform="matrix(-0.940225 0.340554 0.340554 0.940225 681.279 -5.25)" y2="-0.5" x2="1407.26" y1="-0.5"></line>
<line stroke-opacity="0.1" stroke="url(#paint17_linear_7103_3521)" transform="matrix(-0.940225 0.340554 0.340554 0.940225 827.136 -5.25)" y2="-0.5" x2="1407.26" y1="-0.5"></line>
<line stroke-opacity="0.1" stroke="url(#paint18_linear_7103_3521)" transform="matrix(-0.940225 0.340554 0.340554 0.940225 972.994 -5.25)" y2="-0.5" x2="1407.26" y1="-0.5"></line>
<line stroke-opacity="0.1" stroke="url(#paint19_linear_7103_3521)" transform="matrix(-0.940225 0.340554 0.340554 0.940225 1118.85 -5.25)" y2="-0.5" x2="1407.26" y1="-0.5"></line>
<line stroke-opacity="0.1" stroke="url(#paint20_linear_7103_3521)" transform="matrix(-0.940225 0.340554 0.340554 0.940225 1264.71 -5.25)" y2="-0.5" x2="1407.26" y1="-0.5"></line>
<line stroke-opacity="0.1" stroke="url(#paint21_linear_7103_3521)" transform="matrix(-0.940225 0.340554 0.340554 0.940225 1410.57 -5.25)" y2="-0.5" x2="1407.26" y1="-0.5"></line>
<line stroke-opacity="0.1" stroke="url(#paint22_linear_7103_3521)" transform="matrix(-0.940225 0.340554 0.340554 0.940225 1556.43 -5.25)" y2="-0.5" x2="1407.26" y1="-0.5"></line>
<line stroke-opacity="0.1" stroke="url(#paint23_linear_7103_3521)" transform="matrix(-0.940225 0.340554 0.340554 0.940225 1702.28 -5.25)" y2="-0.5" x2="1407.26" y1="-0.5"></line>
<line stroke-opacity="0.1" stroke="url(#paint24_linear_7103_3521)" transform="matrix(-0.940225 0.340554 0.340554 0.940225 1848.14 -5.25)" y2="-0.5" x2="1407.26" y1="-0.5"></line>
<line stroke-opacity="0.1" stroke="url(#paint25_linear_7103_3521)" transform="matrix(-0.940225 0.340554 0.340554 0.940225 1994 -5.25)" y2="-0.5" x2="1407.26" y1="-0.5"></line>
<rect fill="url(#paint26_linear_7103_3521)" height="372" width="606" y="-1" x="-2"></rect>
<rect fill="url(#paint27_linear_7103_3521)" height="83" width="106" y="-31" x="53"></rect>
<rect fill="url(#paint28_linear_7103_3521)" height="83" width="106" y="278" x="397"></rect>
<rect fill="url(#paint29_linear_7103_3521)" height="83" width="106" y="199" x="1"></rect>
<path stroke-linejoin="round" stroke-width="2" stroke="white" fill="white" d="M264.7 209.422L370.324 246.813L264.7 284.205L159.077 246.813L211.888 228.118L264.7 209.422Z"></path>
<path stroke-linejoin="round" stroke-width="2" stroke="white" fill="#C3DAFE" d="M159.08 480.574V246.812L264.704 284.023V517.785L159.08 480.574Z"></path>
<path stroke-linejoin="round" stroke-width="2" stroke="white" fill="url(#paint30_linear_7103_3521)" d="M370.327 495.063V246.812L264.704 284.023V532.274L370.327 495.063Z"></path>
<path stroke-linejoin="round" stroke-width="2" stroke="white" fill="white" d="M449.917 375.195L555.541 412.587L449.917 449.978L344.294 412.587L397.105 393.891L449.917 375.195Z"></path>
<path stroke-linejoin="round" stroke-width="2" stroke="white" fill="#C3DAFE" d="M344.297 646.347V412.586L449.921 449.797V683.558L344.297 646.347Z"></path>
<path stroke-linejoin="round" stroke-width="2" stroke="white" fill="url(#paint31_linear_7103_3521)" d="M555.544 660.837V412.586L449.921 449.797V698.048L555.544 660.837Z"></path>
<path stroke-linejoin="round" stroke-width="2" stroke="white" fill="white" d="M107.01 347.102L212.634 384.493L107.01 421.885L1.38667 384.493L54.1984 365.797L107.01 347.102Z"></path>
<path stroke-linejoin="round" stroke-width="2" stroke="white" fill="#C3DAFE" d="M1.39022 618.254V384.492L107.014 421.703V655.465L1.39022 618.254Z"></path>
<path stroke-linejoin="round" stroke-width="2" stroke="white" fill="url(#paint32_linear_7103_3521)" d="M212.637 632.743V384.492L107.014 421.703V669.954L212.637 632.743Z"></path>
<path stroke-linejoin="round" stroke-width="2" stroke="white" fill="white" d="M317.1 156.75L370.26 175.419L317.1 194.089L263.941 175.419L290.521 166.085L317.1 156.75Z"></path>
<path stroke-linejoin="round" stroke-width="2" stroke="white" fill="url(#paint33_linear_7103_3521)" d="M263.939 246.308V175.508L317.098 194.087V264.887L263.939 246.308Z"></path>
<path stroke-linejoin="round" stroke-width="2" stroke="white" fill="url(#paint34_linear_7103_3521)" d="M370.257 246.304V175.414L317.098 193.993V264.883L370.257 246.304Z"></path>
<path stroke-linejoin="round" stroke-width="2" stroke="white" fill="white" d="M212.486 156.75L265.645 175.419L212.486 194.089L159.326 175.419L185.906 166.085L212.486 156.75Z"></path>
<path stroke-linejoin="round" stroke-width="2" stroke="white" fill="url(#paint35_linear_7103_3521)" d="M159.324 246.308V175.508L212.483 194.087V264.887L159.324 246.308Z"></path>
<path stroke-linejoin="round" stroke-width="2" stroke="white" fill="url(#paint36_linear_7103_3521)" d="M265.642 246.304V175.414L212.483 193.993V264.883L265.642 246.304Z"></path>
<path stroke-linejoin="round" stroke-width="2" stroke="white" fill="white" d="M449.848 342.945L502.574 361.463L449.848 379.98L397.121 361.463L423.484 352.204L449.848 342.945Z"></path>
<path stroke-linejoin="round" stroke-width="2" stroke="white" fill="url(#paint37_linear_7103_3521)" d="M397.117 431.771V361.547L449.844 379.975V450.199L397.117 431.771Z"></path>
<path stroke-linejoin="round" stroke-width="2" stroke="white" fill="url(#paint38_linear_7103_3521)" d="M502.57 431.781V361.469L449.844 379.897V450.21L502.57 431.781Z"></path>
<path stroke-linejoin="round" stroke-width="2" stroke="white" fill="white" d="M106.94 314.859L159.667 333.377L106.94 351.894L54.2139 333.377L80.5771 324.118L106.94 314.859Z"></path>
<path stroke-linejoin="round" stroke-width="2" stroke="white" fill="url(#paint39_linear_7103_3521)" d="M54.2099 403.685V333.461L106.936 351.889V422.113L54.2099 403.685Z"></path>
<path stroke-linejoin="round" stroke-width="2" stroke="white" fill="url(#paint40_linear_7103_3521)" d="M159.663 403.696V333.383L106.936 351.811V422.124L159.663 403.696Z"></path>
<path stroke-linejoin="round" stroke-width="2" stroke="white" fill="white" d="M106.074 34L158.801 52.5175L106.074 71.035L53.3478 52.5175L79.7111 43.2587L106.074 34Z"></path>
<path stroke-linejoin="round" stroke-width="2" stroke="white" fill="url(#paint41_linear_7103_3521)" d="M53.3435 199.689V52.0859L106.07 70.514V218.117L53.3435 199.689Z"></path>
<path stroke-linejoin="round" stroke-width="2" stroke="white" fill="url(#paint42_linear_7103_3521)" d="M158.797 199.812V52.5234L106.07 70.9515V218.24L158.797 199.812Z"></path>
<path stroke-linejoin="round" stroke-width="2" stroke="white" fill="white" d="M53.684 262.852L106.843 281.521L53.684 300.19L0.524864 281.521L27.1044 272.186L53.684 262.852Z"></path>
<path stroke-linejoin="round" stroke-width="2" stroke="white" fill="url(#paint43_linear_7103_3521)" d="M0.522213 352.409V281.609L53.6813 300.189V370.989L0.522213 352.409Z"></path>
<path stroke-linejoin="round" stroke-width="2" stroke="white" fill="url(#paint44_linear_7103_3521)" d="M106.84 352.405V281.516L53.6813 300.095V370.984L106.84 352.405Z"></path>
<g filter="url(#filter0_ddd_7103_3521)">
<rect shape-rendering="crispEdges" fill="#1A202C" rx="10.355" height="47" width="287" y="187" x="459"></rect>
<path fill="#EBF4FF" d="M485.87 219.759C484.731 219.759 483.73 219.543 482.867 219.112C482.021 218.68 481.365 218.059 480.899 217.248C480.433 216.419 480.2 215.444 480.2 214.323V210.439C480.2 209.3 480.433 208.325 480.899 207.514C481.365 206.703 482.021 206.082 482.867 205.65C483.73 205.219 484.731 205.003 485.87 205.003C487.509 205.003 488.83 205.443 489.831 206.323C490.832 207.203 491.358 208.403 491.41 209.922H489.08C489.028 209.007 488.717 208.308 488.148 207.825C487.596 207.324 486.836 207.074 485.87 207.074C484.852 207.074 484.04 207.367 483.436 207.954C482.832 208.524 482.53 209.343 482.53 210.414V214.323C482.53 215.393 482.832 216.221 483.436 216.808C484.04 217.394 484.852 217.688 485.87 217.688C486.836 217.688 487.596 217.438 488.148 216.937C488.717 216.437 489.028 215.738 489.08 214.84H491.41C491.358 216.359 490.832 217.558 489.831 218.439C488.83 219.319 487.509 219.759 485.87 219.759ZM503.23 219.5C502.402 219.5 501.677 219.336 501.056 219.008C500.434 218.68 499.951 218.214 499.606 217.61C499.261 217.006 499.088 216.299 499.088 215.487V202.725H494.299V200.602H501.418V215.487C501.418 216.074 501.582 216.54 501.91 216.885C502.238 217.213 502.678 217.377 503.23 217.377H507.76V219.5H503.23ZM511.245 219.5V217.377H516.293V207.385H511.892V205.262H518.623V217.377H523.412V219.5H511.245ZM517.199 202.699C516.63 202.699 516.181 202.552 515.853 202.259C515.525 201.966 515.361 201.569 515.361 201.068C515.361 200.55 515.525 200.145 515.853 199.851C516.181 199.541 516.63 199.385 517.199 199.385C517.769 199.385 518.218 199.541 518.545 199.851C518.873 200.145 519.037 200.55 519.037 201.068C519.037 201.569 518.873 201.966 518.545 202.259C518.218 202.552 517.769 202.699 517.199 202.699ZM532.333 219.759C531.212 219.759 530.228 219.535 529.382 219.086C528.554 218.637 527.907 218.007 527.441 217.196C526.992 216.368 526.768 215.41 526.768 214.323V210.439C526.768 209.335 526.992 208.377 527.441 207.566C527.907 206.755 528.554 206.125 529.382 205.676C530.228 205.227 531.212 205.003 532.333 205.003C533.455 205.003 534.43 205.227 535.259 205.676C536.104 206.125 536.751 206.755 537.2 207.566C537.666 208.377 537.899 209.335 537.899 210.439V212.95H529.046V214.323C529.046 215.444 529.33 216.307 529.9 216.911C530.469 217.498 531.281 217.791 532.333 217.791C533.231 217.791 533.956 217.636 534.508 217.325C535.06 216.998 535.397 216.514 535.517 215.876H537.847C537.692 217.067 537.105 218.016 536.087 218.723C535.086 219.414 533.835 219.759 532.333 219.759ZM535.621 211.397V210.439C535.621 209.318 535.336 208.455 534.767 207.851C534.214 207.247 533.403 206.945 532.333 206.945C531.281 206.945 530.469 207.247 529.9 207.851C529.33 208.455 529.046 209.318 529.046 210.439V211.19H535.802L535.621 211.397ZM542.471 219.5V205.262H544.801V207.98H545.293L544.801 208.524C544.801 207.402 545.137 206.539 545.811 205.935C546.484 205.314 547.416 205.003 548.606 205.003C550.039 205.003 551.178 205.443 552.024 206.323C552.869 207.203 553.292 208.403 553.292 209.922V219.5H550.962V210.181C550.962 209.162 550.686 208.386 550.134 207.851C549.599 207.298 548.865 207.022 547.933 207.022C546.967 207.022 546.199 207.316 545.629 207.902C545.077 208.489 544.801 209.335 544.801 210.439V219.5H542.471ZM564.931 219.5C563.706 219.5 562.748 219.172 562.058 218.516C561.385 217.86 561.048 216.937 561.048 215.746V207.385H557.036V205.262H561.048V201.249H563.378V205.262H569.073V207.385H563.378V215.746C563.378 216.834 563.896 217.377 564.931 217.377H568.814V219.5H564.931ZM573.723 219.5V200.602H584.596V202.725H576.027V208.575H583.69V210.672H576.027V217.377H584.596V219.5H573.723ZM587.951 219.5L592.999 212.174L588.262 205.262H591.006L593.827 209.663C593.948 209.853 594.06 210.06 594.164 210.284C594.285 210.508 594.38 210.69 594.449 210.828C594.5 210.69 594.578 210.508 594.682 210.284C594.802 210.06 594.923 209.853 595.044 209.663L597.892 205.262H600.61L595.872 212.2L600.895 219.5H598.151L595.096 214.84C594.975 214.65 594.854 214.435 594.733 214.193C594.63 213.934 594.535 213.727 594.449 213.572C594.38 213.727 594.276 213.934 594.138 214.193C594.017 214.435 593.888 214.65 593.75 214.84L590.669 219.5H587.951ZM611.498 219.5C610.273 219.5 609.315 219.172 608.625 218.516C607.952 217.86 607.615 216.937 607.615 215.746V207.385H603.603V205.262H607.615V201.249H609.945V205.262H615.64V207.385H609.945V215.746C609.945 216.834 610.463 217.377 611.498 217.377H615.381V219.5H611.498ZM625.467 219.759C624.346 219.759 623.362 219.535 622.516 219.086C621.688 218.637 621.041 218.007 620.575 217.196C620.126 216.368 619.902 215.41 619.902 214.323V210.439C619.902 209.335 620.126 208.377 620.575 207.566C621.041 206.755 621.688 206.125 622.516 205.676C623.362 205.227 624.346 205.003 625.467 205.003C626.589 205.003 627.564 205.227 628.393 205.676C629.238 206.125 629.886 206.755 630.334 207.566C630.8 208.377 631.033 209.335 631.033 210.439V212.95H622.18V214.323C622.18 215.444 622.465 216.307 623.034 216.911C623.604 217.498 624.415 217.791 625.467 217.791C626.365 217.791 627.09 217.636 627.642 217.325C628.194 216.998 628.531 216.514 628.652 215.876H630.982C630.826 217.067 630.239 218.016 629.221 218.723C628.22 219.414 626.969 219.759 625.467 219.759ZM628.755 211.397V210.439C628.755 209.318 628.47 208.455 627.901 207.851C627.349 207.247 626.537 206.945 625.467 206.945C624.415 206.945 623.604 207.247 623.034 207.851C622.465 208.455 622.18 209.318 622.18 210.439V211.19H628.936L628.755 211.397ZM635.605 219.5V205.262H637.935V207.98H638.427L637.935 208.524C637.935 207.402 638.272 206.539 638.945 205.935C639.618 205.314 640.55 205.003 641.741 205.003C643.173 205.003 644.312 205.443 645.158 206.323C646.003 207.203 646.426 208.403 646.426 209.922V219.5H644.096V210.181C644.096 209.162 643.82 208.386 643.268 207.851C642.733 207.298 641.999 207.022 641.068 207.022C640.101 207.022 639.333 207.316 638.764 207.902C638.211 208.489 637.935 209.335 637.935 210.439V219.5H635.605ZM656.072 219.707C655.106 219.707 654.26 219.56 653.535 219.267C652.828 218.956 652.258 218.525 651.827 217.973C651.412 217.42 651.162 216.765 651.076 216.005H653.406C653.509 216.506 653.785 216.903 654.234 217.196C654.7 217.489 655.313 217.636 656.072 217.636H657.159C658.074 217.636 658.756 217.455 659.205 217.092C659.653 216.713 659.878 216.212 659.878 215.591C659.878 214.987 659.67 214.512 659.256 214.167C658.859 213.805 658.264 213.563 657.47 213.442L655.554 213.132C654.156 212.89 653.112 212.459 652.422 211.837C651.749 211.199 651.412 210.275 651.412 209.067C651.412 207.79 651.818 206.807 652.629 206.116C653.44 205.409 654.657 205.055 656.279 205.055H657.263C658.626 205.055 659.722 205.374 660.551 206.013C661.379 206.651 661.88 207.514 662.052 208.601H659.722C659.619 208.153 659.36 207.799 658.946 207.54C658.531 207.264 657.971 207.126 657.263 207.126H656.279C655.399 207.126 654.752 207.29 654.338 207.618C653.941 207.946 653.742 208.437 653.742 209.093C653.742 209.68 653.915 210.111 654.26 210.388C654.605 210.664 655.149 210.862 655.891 210.983L657.807 211.294C659.343 211.535 660.456 211.984 661.146 212.64C661.854 213.296 662.207 214.245 662.207 215.487C662.207 216.799 661.785 217.835 660.939 218.594C660.111 219.336 658.851 219.707 657.159 219.707H656.072ZM666.469 219.5V217.377H671.517V207.385H667.116V205.262H673.847V217.377H678.636V219.5H666.469ZM672.423 202.699C671.853 202.699 671.405 202.552 671.077 202.259C670.749 201.966 670.585 201.569 670.585 201.068C670.585 200.55 670.749 200.145 671.077 199.851C671.405 199.541 671.853 199.385 672.423 199.385C672.992 199.385 673.441 199.541 673.769 199.851C674.097 200.145 674.261 200.55 674.261 201.068C674.261 201.569 674.097 201.966 673.769 202.259C673.441 202.552 672.992 202.699 672.423 202.699ZM687.557 219.707C686.418 219.707 685.434 219.491 684.606 219.06C683.777 218.628 683.13 218.007 682.664 217.196C682.215 216.368 681.991 215.393 681.991 214.271V210.491C681.991 209.352 682.215 208.377 682.664 207.566C683.13 206.755 683.777 206.133 684.606 205.702C685.434 205.271 686.418 205.055 687.557 205.055C688.696 205.055 689.68 205.271 690.508 205.702C691.337 206.133 691.975 206.755 692.424 207.566C692.89 208.377 693.123 209.343 693.123 210.465V214.271C693.123 215.393 692.89 216.368 692.424 217.196C691.975 218.007 691.337 218.628 690.508 219.06C689.68 219.491 688.696 219.707 687.557 219.707ZM687.557 217.636C688.575 217.636 689.369 217.351 689.939 216.782C690.508 216.212 690.793 215.375 690.793 214.271V210.491C690.793 209.387 690.508 208.55 689.939 207.98C689.369 207.411 688.575 207.126 687.557 207.126C686.556 207.126 685.762 207.411 685.175 207.98C684.606 208.55 684.321 209.387 684.321 210.491V214.271C684.321 215.375 684.606 216.212 685.175 216.782C685.762 217.351 686.556 217.636 687.557 217.636ZM697.695 219.5V205.262H700.025V207.98H700.516L700.025 208.524C700.025 207.402 700.361 206.539 701.034 205.935C701.707 205.314 702.639 205.003 703.83 205.003C705.262 205.003 706.402 205.443 707.247 206.323C708.093 207.203 708.516 208.403 708.516 209.922V219.5H706.186V210.181C706.186 209.162 705.91 208.386 705.357 207.851C704.822 207.298 704.089 207.022 703.157 207.022C702.19 207.022 701.422 207.316 700.853 207.902C700.301 208.489 700.025 209.335 700.025 210.439V219.5H697.695ZM718.162 219.707C717.195 219.707 716.349 219.56 715.625 219.267C714.917 218.956 714.347 218.525 713.916 217.973C713.502 217.42 713.252 216.765 713.165 216.005H715.495C715.599 216.506 715.875 216.903 716.324 217.196C716.79 217.489 717.402 217.636 718.162 217.636H719.249C720.164 217.636 720.845 217.455 721.294 217.092C721.743 216.713 721.967 216.212 721.967 215.591C721.967 214.987 721.76 214.512 721.346 214.167C720.949 213.805 720.353 213.563 719.559 213.442L717.644 213.132C716.246 212.89 715.202 212.459 714.511 211.837C713.838 211.199 713.502 210.275 713.502 209.067C713.502 207.79 713.907 206.807 714.719 206.116C715.53 205.409 716.746 205.055 718.369 205.055H719.352C720.716 205.055 721.812 205.374 722.64 206.013C723.468 206.651 723.969 207.514 724.142 208.601H721.812C721.708 208.153 721.449 207.799 721.035 207.54C720.621 207.264 720.06 207.126 719.352 207.126H718.369C717.488 207.126 716.841 207.29 716.427 207.618C716.03 207.946 715.832 208.437 715.832 209.093C715.832 209.68 716.004 210.111 716.349 210.388C716.695 210.664 717.238 210.862 717.98 210.983L719.896 211.294C721.432 211.535 722.545 211.984 723.236 212.64C723.943 213.296 724.297 214.245 724.297 215.487C724.297 216.799 723.874 217.835 723.028 218.594C722.2 219.336 720.94 219.707 719.249 219.707H718.162Z"></path>
</g>
<path fill="white" d="M470.36 141.981C469.873 142.773 469.881 143.772 470.379 144.557L479.398 158.758C479.983 159.679 481.111 160.099 482.159 159.786L508.185 151.992C509.605 151.567 510.32 149.986 509.699 148.642L492.968 112.415C492.152 110.649 489.692 110.504 488.674 112.162L470.36 141.981ZM492.523 120.697C492.168 119.876 490.964 120.002 490.787 120.879L484.346 152.893C484.21 153.568 484.843 154.144 485.504 153.947L503.486 148.589C504.011 148.433 504.281 147.854 504.064 147.352L492.523 120.697Z" clip-rule="evenodd" fill-rule="evenodd"></path>
<path fill="white" d="M525.514 135.368H527.099C528.581 135.368 529.689 135.076 530.425 134.491C531.16 133.907 531.528 133.057 531.528 131.94C531.528 130.813 531.22 129.981 530.603 129.443C529.987 128.905 529.021 128.636 527.705 128.636H525.514V135.368ZM536.394 131.76C536.394 134.201 535.63 136.067 534.102 137.359C532.574 138.652 530.401 139.298 527.584 139.298H525.517V147.364H520.7V124.688H527.956C530.712 124.688 532.807 125.28 534.242 126.463C535.677 127.647 536.394 129.413 536.394 131.76Z" clip-rule="evenodd" fill-rule="evenodd"></path>
<path fill="white" d="M549.166 129.695C549.809 129.695 550.342 129.742 550.767 129.835L550.41 134.271C550.026 134.168 549.56 134.116 549.011 134.116C547.498 134.116 546.32 134.503 545.475 135.279C544.631 136.054 544.209 137.14 544.209 138.536V147.362H539.47V130.021H543.059L543.759 132.937H543.992C544.53 131.965 545.258 131.182 546.175 130.587C547.092 129.993 548.089 129.695 549.166 129.695Z" clip-rule="evenodd" fill-rule="evenodd"></path>
<path fill="white" d="M553.264 147.357H558.003V130.017H553.264V147.357ZM553.066 125.537C553.066 123.997 553.926 123.227 555.645 123.227C557.364 123.227 558.225 123.997 558.225 125.537C558.225 126.272 558.01 126.843 557.58 127.251C557.15 127.66 556.505 127.864 555.645 127.864C553.926 127.864 553.066 127.088 553.066 125.537Z" clip-rule="evenodd" fill-rule="evenodd"></path>
<path fill="white" d="M574.712 142.212C574.712 143.991 574.093 145.345 572.855 146.276C571.617 147.206 569.765 147.672 567.3 147.672C566.036 147.672 564.959 147.586 564.068 147.415C563.177 147.245 562.343 146.994 561.566 146.664V142.755C562.447 143.169 563.438 143.515 564.542 143.794C565.645 144.073 566.616 144.213 567.455 144.213C569.175 144.213 570.035 143.716 570.035 142.724C570.035 142.352 569.921 142.049 569.694 141.817C569.465 141.584 569.072 141.32 568.512 141.025C567.953 140.731 567.207 140.387 566.275 139.994C564.939 139.436 563.956 138.919 563.33 138.443C562.703 137.967 562.247 137.422 561.963 136.806C561.678 136.191 561.535 135.434 561.535 134.534C561.535 132.993 562.133 131.802 563.33 130.959C564.526 130.116 566.222 129.695 568.419 129.695C570.512 129.695 572.547 130.15 574.526 131.06L573.096 134.472C572.226 134.1 571.413 133.795 570.656 133.557C569.9 133.319 569.128 133.2 568.342 133.2C566.943 133.2 566.243 133.578 566.243 134.333C566.243 134.757 566.469 135.124 566.919 135.434C567.37 135.744 568.357 136.204 569.88 136.815C571.237 137.363 572.232 137.874 572.863 138.35C573.495 138.826 573.961 139.373 574.262 139.994C574.563 140.614 574.712 141.354 574.712 142.212Z" clip-rule="evenodd" fill-rule="evenodd"></path>
<path fill="white" d="M593.478 147.362H588.738V137.234C588.738 135.983 588.528 135.044 588.109 134.418C587.689 133.793 587.029 133.48 586.127 133.48C584.916 133.48 584.035 133.924 583.486 134.814C582.937 135.703 582.662 137.166 582.662 139.204V147.362H577.923V130.021H581.544L582.181 132.239H582.445C582.911 131.443 583.585 130.82 584.465 130.37C585.345 129.92 586.356 129.695 587.495 129.695C590.095 129.695 591.856 130.544 592.779 132.239H593.198C593.664 131.433 594.351 130.807 595.257 130.362C596.163 129.918 597.186 129.695 598.326 129.695C600.294 129.695 601.784 130.2 602.793 131.207C603.803 132.216 604.308 133.831 604.308 136.054V147.362H599.553V137.234C599.553 135.983 599.343 135.044 598.924 134.418C598.504 133.793 597.844 133.48 596.943 133.48C595.783 133.48 594.915 133.894 594.34 134.721C593.765 135.548 593.478 136.861 593.478 138.66V147.362Z" clip-rule="evenodd" fill-rule="evenodd"></path>
<path fill="white" d="M618.105 139.321L616.271 139.383C614.893 139.425 613.868 139.673 613.195 140.128C612.521 140.583 612.185 141.276 612.185 142.207C612.185 143.54 612.951 144.207 614.484 144.207C615.582 144.207 616.461 143.892 617.118 143.261C617.776 142.631 618.105 141.793 618.105 140.748V139.321ZM619.501 147.354L618.584 144.996H618.459C617.662 146 616.841 146.695 615.996 147.082C615.152 147.47 614.052 147.664 612.695 147.664C611.026 147.664 609.714 147.189 608.755 146.237C607.797 145.286 607.318 143.932 607.318 142.173C607.318 140.333 607.963 138.976 609.252 138.102C610.543 137.228 612.487 136.745 615.088 136.652L618.102 136.559V135.798C618.102 134.041 617.201 133.162 615.398 133.162C614.01 133.162 612.378 133.58 610.503 134.418L608.934 131.223C610.933 130.179 613.151 129.656 615.585 129.656C617.916 129.656 619.703 130.163 620.946 131.177C622.189 132.19 622.81 133.73 622.81 135.798V147.354H619.501Z" clip-rule="evenodd" fill-rule="evenodd"></path>
<ellipse fill="url(#paint45_radial_7103_3521)" transform="rotate(-60 270.472 316.188)" ry="62.733" rx="69.7319" cy="316.188" cx="270.472"></ellipse>
<ellipse fill="url(#paint46_radial_7103_3521)" ry="62.0177" rx="52.9388" cy="298.986" cx="226.121"></ellipse>
<ellipse fill="url(#paint47_radial_7103_3521)" ry="62.0177" rx="40.6705" cy="296.393" cx="306.315"></ellipse>
<ellipse fill="url(#paint48_radial_7103_3521)" transform="rotate(-72.3198 262.322 278.004)" ry="56.4957" rx="58.0363" cy="278.004" cx="262.322"></ellipse>
<rect fill="url(#paint49_linear_7103_3521)" height="358.25" width="106" y="-79.25" x="212"></rect>
<path stroke-linejoin="round" stroke-width="2" stroke="white" fill="white" d="M264.722 247.25L317.881 265.919L264.722 284.589L211.563 265.919L238.142 256.585L264.722 247.25Z"></path>
<path stroke-linejoin="round" stroke-width="2" stroke="white" fill="url(#paint50_linear_7103_3521)" d="M211.559 336.753V265.953L264.718 284.532V355.332L211.559 336.753Z"></path>
<path stroke-linejoin="round" stroke-width="2" stroke="white" fill="url(#paint51_linear_7103_3521)" d="M317.877 336.749V265.859L264.718 284.439V355.328L317.877 336.749Z"></path>
</g>
<defs>
<filter color-interpolation-filters="sRGB" filterUnits="userSpaceOnUse" height="184.204" width="406.082" y="127.459" x="399.459" id="filter0_ddd_7103_3521">
<feFlood result="BackgroundImageFix" flood-opacity="0"></feFlood>
<feColorMatrix result="hardAlpha" values="0 0 0 0 0 0 0 0 0 0 0 0 0 0 0 0 0 0 127 0" type="matrix" in="SourceAlpha"></feColorMatrix>
<feOffset dy="23.2987"></feOffset>
<feGaussianBlur stdDeviation="27.1818"></feGaussianBlur>
<feColorMatrix values="0 0 0 0 0.0901961 0 0 0 0 0.168627 0 0 0 0 0.301961 0 0 0 0.08 0" type="matrix"></feColorMatrix>
<feBlend result="effect1_dropShadow_7103_3521" in2="BackgroundImageFix" mode="normal"></feBlend>
<feColorMatrix result="hardAlpha" values="0 0 0 0 0 0 0 0 0 0 0 0 0 0 0 0 0 0 127 0" type="matrix" in="SourceAlpha"></feColorMatrix>
<feOffset dy="5.17749"></feOffset>
<feGaussianBlur stdDeviation="16.8268"></feGaussianBlur>
<feColorMatrix values="0 0 0 0 0.0901961 0 0 0 0 0.168627 0 0 0 0 0.301961 0 0 0 0.05 0" type="matrix"></feColorMatrix>
<feBlend result="effect2_dropShadow_7103_3521" in2="effect1_dropShadow_7103_3521" mode="normal"></feBlend>
<feColorMatrix result="hardAlpha" values="0 0 0 0 0 0 0 0 0 0 0 0 0 0 0 0 0 0 127 0" type="matrix" in="SourceAlpha"></feColorMatrix>
<feOffset></feOffset>
<feGaussianBlur stdDeviation="29.7706"></feGaussianBlur>
<feComposite operator="out" in2="hardAlpha"></feComposite>
<feColorMatrix values="0 0 0 0 0.0901961 0 0 0 0 0.168627 0 0 0 0 0.301961 0 0 0 0.01 0" type="matrix"></feColorMatrix>
<feBlend result="effect3_dropShadow_7103_3521" in2="effect2_dropShadow_7103_3521" mode="normal"></feBlend>
<feBlend result="shape" in2="effect3_dropShadow_7103_3521" in="SourceGraphic" mode="normal"></feBlend>
</filter>
<linearGradient gradientUnits="userSpaceOnUse" y2="460.344" x2="843.267" y1="0" x1="0" id="paint0_linear_7103_3521">
<stop stop-color="#A3BFFA"></stop>
<stop stop-color="#5A67D8" offset="0.747534"></stop>
<stop stop-color="#4C51BF" offset="1"></stop>
</linearGradient>
<linearGradient gradientUnits="userSpaceOnUse" y2="235.314" x2="1466.23" y1="234.374" x1="1466.57" id="paint1_linear_7103_3521">
<stop stop-color="white"></stop>
<stop stop-opacity="0" stop-color="white" offset="1"></stop>
</linearGradient>
<linearGradient gradientUnits="userSpaceOnUse" y2="235.314" x2="1320.37" y1="234.374" x1="1320.71" id="paint2_linear_7103_3521">
<stop stop-color="white"></stop>
<stop stop-opacity="0" stop-color="white" offset="1"></stop>
</linearGradient>
<linearGradient gradientUnits="userSpaceOnUse" y2="235.314" x2="1174.52" y1="234.374" x1="1174.86" id="paint3_linear_7103_3521">
<stop stop-color="white"></stop>
<stop stop-opacity="0" stop-color="white" offset="1"></stop>
</linearGradient>
<linearGradient gradientUnits="userSpaceOnUse" y2="235.314" x2="1028.66" y1="234.374" x1="1029" id="paint4_linear_7103_3521">
<stop stop-color="white"></stop>
<stop stop-opacity="0" stop-color="white" offset="1"></stop>
</linearGradient>
<linearGradient gradientUnits="userSpaceOnUse" y2="235.314" x2="882.8" y1="234.374" x1="883.14" id="paint5_linear_7103_3521">
<stop stop-color="white"></stop>
<stop stop-opacity="0" stop-color="white" offset="1"></stop>
</linearGradient>
<linearGradient gradientUnits="userSpaceOnUse" y2="235.314" x2="736.942" y1="234.374" x1="737.283" id="paint6_linear_7103_3521">
<stop stop-color="white"></stop>
<stop stop-opacity="0" stop-color="white" offset="1"></stop>
</linearGradient>
<linearGradient gradientUnits="userSpaceOnUse" y2="235.314" x2="591.084" y1="234.374" x1="591.425" id="paint7_linear_7103_3521">
<stop stop-color="white"></stop>
<stop stop-opacity="0" stop-color="white" offset="1"></stop>
</linearGradient>
<linearGradient gradientUnits="userSpaceOnUse" y2="235.314" x2="445.226" y1="234.374" x1="445.567" id="paint8_linear_7103_3521">
<stop stop-color="white"></stop>
<stop stop-opacity="0" stop-color="white" offset="1"></stop>
</linearGradient>
<linearGradient gradientUnits="userSpaceOnUse" y2="235.314" x2="299.368" y1="234.374" x1="299.709" id="paint9_linear_7103_3521">
<stop stop-color="white"></stop>
<stop stop-opacity="0" stop-color="white" offset="1"></stop>
</linearGradient>
<linearGradient gradientUnits="userSpaceOnUse" y2="235.314" x2="153.51" y1="234.374" x1="153.851" id="paint10_linear_7103_3521">
<stop stop-color="white"></stop>
<stop stop-opacity="0" stop-color="white" offset="1"></stop>
</linearGradient>
<linearGradient gradientUnits="userSpaceOnUse" y2="235.314" x2="7.6525" y1="234.374" x1="7.99305" id="paint11_linear_7103_3521">
<stop stop-color="white"></stop>
<stop stop-opacity="0" stop-color="white" offset="1"></stop>
</linearGradient>
<linearGradient gradientUnits="userSpaceOnUse" y2="235.314" x2="-138.205" y1="234.374" x1="-137.865" id="paint12_linear_7103_3521">
<stop stop-color="white"></stop>
<stop stop-opacity="0" stop-color="white" offset="1"></stop>
</linearGradient>
<linearGradient gradientUnits="userSpaceOnUse" y2="1" x2="703.629" y1="0" x1="703.629" id="paint13_linear_7103_3521">
<stop stop-color="white"></stop>
<stop stop-opacity="0" stop-color="white" offset="1"></stop>
</linearGradient>
<linearGradient gradientUnits="userSpaceOnUse" y2="1" x2="703.629" y1="0" x1="703.629" id="paint14_linear_7103_3521">
<stop stop-color="white"></stop>
<stop stop-opacity="0" stop-color="white" offset="1"></stop>
</linearGradient>
<linearGradient gradientUnits="userSpaceOnUse" y2="1" x2="703.629" y1="0" x1="703.629" id="paint15_linear_7103_3521">
<stop stop-color="white"></stop>
<stop stop-opacity="0" stop-color="white" offset="1"></stop>
</linearGradient>
<linearGradient gradientUnits="userSpaceOnUse" y2="1" x2="703.629" y1="0" x1="703.629" id="paint16_linear_7103_3521">
<stop stop-color="white"></stop>
<stop stop-opacity="0" stop-color="white" offset="1"></stop>
</linearGradient>
<linearGradient gradientUnits="userSpaceOnUse" y2="1" x2="703.629" y1="0" x1="703.629" id="paint17_linear_7103_3521">
<stop stop-color="white"></stop>
<stop stop-opacity="0" stop-color="white" offset="1"></stop>
</linearGradient>
<linearGradient gradientUnits="userSpaceOnUse" y2="1" x2="703.629" y1="0" x1="703.629" id="paint18_linear_7103_3521">
<stop stop-color="white"></stop>
<stop stop-opacity="0" stop-color="white" offset="1"></stop>
</linearGradient>
<linearGradient gradientUnits="userSpaceOnUse" y2="1" x2="703.629" y1="0" x1="703.629" id="paint19_linear_7103_3521">
<stop stop-color="white"></stop>
<stop stop-opacity="0" stop-color="white" offset="1"></stop>
</linearGradient>
<linearGradient gradientUnits="userSpaceOnUse" y2="1" x2="703.629" y1="0" x1="703.629" id="paint20_linear_7103_3521">
<stop stop-color="white"></stop>
<stop stop-opacity="0" stop-color="white" offset="1"></stop>
</linearGradient>
<linearGradient gradientUnits="userSpaceOnUse" y2="1" x2="703.629" y1="0" x1="703.629" id="paint21_linear_7103_3521">
<stop stop-color="white"></stop>
<stop stop-opacity="0" stop-color="white" offset="1"></stop>
</linearGradient>
<linearGradient gradientUnits="userSpaceOnUse" y2="1" x2="703.629" y1="0" x1="703.629" id="paint22_linear_7103_3521">
<stop stop-color="white"></stop>
<stop stop-opacity="0" stop-color="white" offset="1"></stop>
</linearGradient>
<linearGradient gradientUnits="userSpaceOnUse" y2="1" x2="703.629" y1="0" x1="703.629" id="paint23_linear_7103_3521">
<stop stop-color="white"></stop>
<stop stop-opacity="0" stop-color="white" offset="1"></stop>
</linearGradient>
<linearGradient gradientUnits="userSpaceOnUse" y2="1" x2="703.629" y1="0" x1="703.629" id="paint24_linear_7103_3521">
<stop stop-color="white"></stop>
<stop stop-opacity="0" stop-color="white" offset="1"></stop>
</linearGradient>
<linearGradient gradientUnits="userSpaceOnUse" y2="1" x2="703.629" y1="0" x1="703.629" id="paint25_linear_7103_3521">
<stop stop-color="white"></stop>
<stop stop-opacity="0" stop-color="white" offset="1"></stop>
</linearGradient>
<linearGradient gradientUnits="userSpaceOnUse" y2="382.512" x2="343.225" y1="17" x1="-2" id="paint26_linear_7103_3521">
<stop stop-color="#A3BFFA" offset="0.206806"></stop>
<stop stop-opacity="0" stop-color="#A3BFFA" offset="0.775386"></stop>
</linearGradient>
<linearGradient gradientUnits="userSpaceOnUse" y2="52" x2="106" y1="-31" x1="106" id="paint27_linear_7103_3521">
<stop stop-opacity="0" stop-color="white"></stop>
<stop stop-opacity="0.3" stop-color="white" offset="1"></stop>
</linearGradient>
<linearGradient gradientUnits="userSpaceOnUse" y2="361" x2="450" y1="278" x1="450" id="paint28_linear_7103_3521">
<stop stop-opacity="0" stop-color="white"></stop>
<stop stop-opacity="0.3" stop-color="white" offset="1"></stop>
</linearGradient>
<linearGradient gradientUnits="userSpaceOnUse" y2="282" x2="54" y1="199" x1="54" id="paint29_linear_7103_3521">
<stop stop-opacity="0" stop-color="white"></stop>
<stop stop-opacity="0.3" stop-color="white" offset="1"></stop>
</linearGradient>
<linearGradient gradientUnits="userSpaceOnUse" y2="337.115" x2="317.515" y1="246.813" x1="317.515" id="paint30_linear_7103_3521">
<stop stop-color="white"></stop>
<stop stop-color="#A3BFFA" offset="1"></stop>
</linearGradient>
<linearGradient gradientUnits="userSpaceOnUse" y2="502.888" x2="502.732" y1="412.586" x1="502.732" id="paint31_linear_7103_3521">
<stop stop-color="white"></stop>
<stop stop-color="#A3BFFA" offset="1"></stop>
</linearGradient>
<linearGradient gradientUnits="userSpaceOnUse" y2="474.794" x2="159.825" y1="384.492" x1="159.825" id="paint32_linear_7103_3521">
<stop stop-color="white"></stop>
<stop stop-color="#A3BFFA" offset="1"></stop>
</linearGradient>
<linearGradient gradientUnits="userSpaceOnUse" y2="231.161" x2="290.518" y1="175.423" x1="290.518" id="paint33_linear_7103_3521">
<stop stop-color="white"></stop>
<stop stop-color="#C3DAFE" offset="1"></stop>
</linearGradient>
<linearGradient gradientUnits="userSpaceOnUse" y2="212.226" x2="343.678" y1="175.414" x1="343.678" id="paint34_linear_7103_3521">
<stop stop-color="white"></stop>
<stop stop-color="#A3BFFA" offset="1"></stop>
</linearGradient>
<linearGradient gradientUnits="userSpaceOnUse" y2="231.161" x2="185.904" y1="175.423" x1="185.904" id="paint35_linear_7103_3521">
<stop stop-color="white"></stop>
<stop stop-color="#C3DAFE" offset="1"></stop>
</linearGradient>
<linearGradient gradientUnits="userSpaceOnUse" y2="212.226" x2="239.063" y1="175.414" x1="239.063" id="paint36_linear_7103_3521">
<stop stop-color="white"></stop>
<stop stop-color="#A3BFFA" offset="1"></stop>
</linearGradient>
<linearGradient gradientUnits="userSpaceOnUse" y2="416.747" x2="423.48" y1="361.463" x1="423.48" id="paint37_linear_7103_3521">
<stop stop-color="white"></stop>
<stop stop-color="#C3DAFE" offset="1"></stop>
</linearGradient>
<linearGradient gradientUnits="userSpaceOnUse" y2="397.981" x2="476.207" y1="361.469" x1="476.207" id="paint38_linear_7103_3521">
<stop stop-color="white"></stop>
<stop stop-color="#A3BFFA" offset="1"></stop>
</linearGradient>
<linearGradient gradientUnits="userSpaceOnUse" y2="388.661" x2="80.5732" y1="333.377" x1="80.5732" id="paint39_linear_7103_3521">
<stop stop-color="white"></stop>
<stop stop-color="#C3DAFE" offset="1"></stop>
</linearGradient>
<linearGradient gradientUnits="userSpaceOnUse" y2="369.895" x2="133.3" y1="333.383" x1="133.3" id="paint40_linear_7103_3521">
<stop stop-color="white"></stop>
<stop stop-color="#A3BFFA" offset="1"></stop>
</linearGradient>
<linearGradient gradientUnits="userSpaceOnUse" y2="107.806" x2="79.7068" y1="52.5222" x1="79.7068" id="paint41_linear_7103_3521">
<stop stop-color="white"></stop>
<stop stop-color="#C3DAFE" offset="1"></stop>
</linearGradient>
<linearGradient gradientUnits="userSpaceOnUse" y2="89.0359" x2="132.434" y1="52.5234" x1="132.434" id="paint42_linear_7103_3521">
<stop stop-color="white"></stop>
<stop stop-color="#A3BFFA" offset="1"></stop>
</linearGradient>
<linearGradient gradientUnits="userSpaceOnUse" y2="337.262" x2="27.1018" y1="281.525" x1="27.1018" id="paint43_linear_7103_3521">
<stop stop-color="white"></stop>
<stop stop-color="#C3DAFE" offset="1"></stop>
</linearGradient>
<linearGradient gradientUnits="userSpaceOnUse" y2="318.328" x2="80.2609" y1="281.516" x1="80.2609" id="paint44_linear_7103_3521">
<stop stop-color="white"></stop>
<stop stop-color="#A3BFFA" offset="1"></stop>
</linearGradient>
<radialGradient gradientTransform="translate(270.472 316.188) rotate(90) scale(62.733 69.7319)" gradientUnits="userSpaceOnUse" r="1" cy="0" cx="0" id="paint45_radial_7103_3521">
<stop stop-color="#92EFE6"></stop>
<stop stop-opacity="0" stop-color="#92EFE6" offset="1"></stop>
</radialGradient>
<radialGradient gradientTransform="translate(226.121 298.986) rotate(90) scale(62.0177 52.9388)" gradientUnits="userSpaceOnUse" r="1" cy="0" cx="0" id="paint46_radial_7103_3521">
<stop stop-color="#92EFE6"></stop>
<stop stop-opacity="0" stop-color="#92EFE6" offset="1"></stop>
</radialGradient>
<radialGradient gradientTransform="translate(306.315 296.393) rotate(90) scale(62.0177 40.6705)" gradientUnits="userSpaceOnUse" r="1" cy="0" cx="0" id="paint47_radial_7103_3521">
<stop stop-color="#92EFE6"></stop>
<stop stop-opacity="0" stop-color="#92EFE6" offset="1"></stop>
</radialGradient>
<radialGradient gradientTransform="translate(262.322 278.004) rotate(90) scale(56.4957 58.0363)" gradientUnits="userSpaceOnUse" r="1" cy="0" cx="0" id="paint48_radial_7103_3521">
<stop stop-color="#92EFE6"></stop>
<stop stop-opacity="0" stop-color="#92EFE6" offset="1"></stop>
</radialGradient>
<linearGradient gradientUnits="userSpaceOnUse" y2="279" x2="265" y1="-79.25" x1="265" id="paint49_linear_7103_3521">
<stop stop-opacity="0" stop-color="#92EFE6"></stop>
<stop stop-color="#92EFE6" offset="1"></stop>
</linearGradient>
<linearGradient gradientUnits="userSpaceOnUse" y2="321.606" x2="238.138" y1="265.869" x1="238.138" id="paint50_linear_7103_3521">
<stop stop-color="white"></stop>
<stop stop-color="#C3DAFE" offset="1"></stop>
</linearGradient>
<linearGradient gradientUnits="userSpaceOnUse" y2="302.671" x2="291.297" y1="265.859" x1="291.297" id="paint51_linear_7103_3521">
<stop stop-color="white"></stop>
<stop stop-color="#A3BFFA" offset="1"></stop>
</linearGradient>
<clipPath id="clip0_7103_3521">
<rect fill="white" height="474" width="844"></rect>
</clipPath>
</defs>
</svg>
