<svg xmlns="http://www.w3.org/2000/svg" fill="none" viewBox="0 0 844 474" height="474" width="844">
<g clip-path="url(#clip0_7080_3093)">
<rect fill="#434190" height="474" width="844"></rect>
<path fill="url(#paint0_linear_7080_3093)" d="M66.1407 -67.6326C65.4907 -68.0079 64.6898 -68.0079 64.0398 -67.6326L-59.8246 3.88051C-60.4746 4.2558 -60.875 4.94936 -60.875 5.69994C-60.875 6.45051 -60.4746 7.14407 -59.8246 7.51936L60.9387 77.242L-59.8246 146.965C-60.4746 147.34 -60.875 148.034 -60.875 148.784C-60.875 149.535 -60.4746 150.228 -59.8246 150.604L60.9288 220.321L-59.8246 290.037C-60.4746 290.413 -60.875 291.106 -60.875 291.857C-60.875 292.607 -60.4746 293.301 -59.8246 293.676L60.9486 363.405L-59.8246 433.133C-60.4746 433.508 -60.875 434.202 -60.875 434.953C-60.875 435.703 -60.4746 436.397 -59.8246 436.772L60.9438 506.498L-59.8246 576.223C-60.4746 576.599 -60.875 577.292 -60.875 578.043C-60.875 578.793 -60.4746 579.487 -59.8246 579.862L60.9387 649.585L-59.8246 719.307C-60.4746 719.683 -60.875 720.376 -60.875 721.127C-60.875 721.877 -60.4746 722.571 -59.8246 722.946L60.9407 792.67L-59.8246 862.394C-60.4746 862.769 -60.875 863.463 -60.875 864.213C-60.875 864.964 -60.4746 865.657 -59.8246 866.033L60.9368 935.754L-59.8246 1005.48C-60.4746 1005.85 -60.875 1006.54 -60.875 1007.3C-60.875 1008.05 -60.4746 1008.74 -59.8246 1009.11L64.0398 1080.63C64.6898 1081 65.4907 1081 66.1407 1080.63L188.799 1009.81L311.458 1080.63C312.108 1081 312.909 1081 313.559 1080.63L436.219 1009.81L558.879 1080.63C559.529 1081 560.33 1081 560.98 1080.63L683.639 1009.81L806.297 1080.63C806.947 1081 807.748 1081 808.398 1080.63L931.058 1009.81L1053.72 1080.63C1054.37 1081 1055.17 1081 1055.82 1080.63L1178.48 1009.81L1301.14 1080.63C1301.79 1081 1302.59 1081 1303.24 1080.63L1425.9 1009.81L1548.56 1080.63C1549.21 1081 1550.01 1081 1550.66 1080.63L1673.32 1009.81L1795.98 1080.63C1796.63 1081 1797.43 1081 1798.08 1080.63L1921.94 1009.11C1922.59 1008.74 1922.99 1008.05 1922.99 1007.3C1922.99 1006.54 1922.59 1005.85 1921.94 1005.48L1860.01 969.719L1801.18 935.754L1921.94 866.033C1922.59 865.657 1922.99 864.964 1922.99 864.213C1922.99 863.463 1922.59 862.769 1921.94 862.394L1860.01 826.637L1801.18 792.67L1921.94 722.946C1922.59 722.571 1922.99 721.877 1922.99 721.127C1922.99 720.376 1922.59 719.683 1921.94 719.307L1860.01 683.551L1801.18 649.585L1921.94 579.862C1922.59 579.487 1922.99 578.793 1922.99 578.043C1922.99 577.292 1922.59 576.599 1921.94 576.223L1860.01 540.467L1801.17 506.498L1921.94 436.772C1922.59 436.397 1922.99 435.703 1922.99 434.953C1922.99 434.202 1922.59 433.508 1921.94 433.133L1860.01 397.377L1801.17 363.405L1921.94 293.676C1922.59 293.301 1922.99 292.607 1922.99 291.857C1922.99 291.106 1922.59 290.413 1921.94 290.037L1860.01 254.281L1801.19 220.321L1921.94 150.604C1922.59 150.228 1922.99 149.535 1922.99 148.784C1922.99 148.034 1922.59 147.34 1921.94 146.965L1860.01 111.208L1801.18 77.2421L1921.94 7.51936C1922.59 7.14407 1922.99 6.45051 1922.99 5.69994C1922.99 4.94936 1922.59 4.2558 1921.94 3.88051L1860.01 -31.876L1798.08 -67.6326C1797.43 -68.0079 1796.63 -68.0079 1795.98 -67.6326L1673.32 3.18479L1612.59 -31.876L1550.66 -67.6326C1550.01 -68.0079 1549.21 -68.0079 1548.56 -67.6326L1425.9 3.18475L1365.17 -31.876L1303.24 -67.6326C1302.59 -68.0079 1301.79 -68.0079 1301.14 -67.6326L1178.48 3.18447L1117.75 -31.876L1055.82 -67.6326C1055.17 -68.0079 1054.37 -68.0079 1053.72 -67.6326L931.058 3.18504L870.33 -31.876L808.398 -67.6326C807.748 -68.0079 806.947 -68.0079 806.297 -67.6326L683.639 3.18451L622.912 -31.876L560.98 -67.6326C560.33 -68.0079 559.529 -68.0079 558.879 -67.6326L436.219 3.18506L375.491 -31.876L313.559 -67.6326C312.909 -68.0079 312.108 -68.0079 311.458 -67.6326L188.799 3.18449L128.073 -31.876L66.1407 -67.6326ZM1792.87 935.754L1673.32 866.729L1553.76 935.754L1612.59 969.719L1673.32 1004.78L1792.87 935.754ZM1545.45 935.754L1425.9 1004.78L1365.17 969.719L1306.34 935.754L1425.9 866.729L1545.45 935.754ZM1298.03 935.754L1178.48 866.729L1058.92 935.754L1117.75 969.719L1178.48 1004.78L1298.03 935.754ZM1050.61 935.754L931.058 1004.78L870.33 969.719L811.501 935.754L931.058 866.728L1050.61 935.754ZM803.194 935.754L683.639 1004.78L622.912 969.719L564.083 935.754L683.639 866.729L803.194 935.754ZM555.776 935.754L436.219 866.728L316.662 935.754L375.491 969.719L436.219 1004.78L555.776 935.754ZM308.355 935.754L188.799 1004.78L128.073 969.719L69.2437 935.754L188.799 866.729L308.355 935.754ZM1792.88 792.67L1673.32 861.698L1612.59 826.637L1553.76 792.67L1673.32 723.642L1792.88 792.67ZM1545.46 792.67L1425.9 723.642L1306.34 792.67L1365.17 826.637L1425.9 861.698L1545.46 792.67ZM1298.04 792.67L1178.48 861.698L1117.75 826.637L1058.92 792.67L1178.48 723.642L1298.04 792.67ZM1050.62 792.67L931.058 723.642L811.497 792.67L870.33 826.637L931.058 861.698L1050.62 792.67ZM803.198 792.67L683.639 723.642L564.079 792.67L622.912 826.637L683.639 861.698L803.198 792.67ZM555.78 792.67L436.219 861.698L375.491 826.637L316.658 792.67L436.219 723.642L555.78 792.67ZM308.359 792.67L188.799 723.642L69.2398 792.67L128.073 826.637L188.799 861.698L308.359 792.67ZM1792.87 649.585L1673.32 580.558L1553.76 649.585L1612.59 683.551L1673.32 718.612L1792.87 649.585ZM1545.45 649.585L1425.9 718.612L1365.17 683.551L1306.34 649.585L1425.9 580.558L1545.45 649.585ZM1298.04 649.585L1178.48 580.558L1058.92 649.585L1117.75 683.551L1178.48 718.611L1298.04 649.585ZM1050.62 649.585L931.058 718.612L870.33 683.551L811.499 649.585L931.058 580.558L1050.62 649.585ZM803.196 649.585L683.639 718.611L622.912 683.551L564.081 649.585L683.639 580.558L803.196 649.585ZM555.778 649.585L436.219 580.557L316.66 649.585L375.491 683.551L436.219 718.612L555.778 649.585ZM308.357 649.585L188.799 718.611L128.073 683.551L69.2418 649.585L188.799 580.558L308.357 649.585ZM1792.88 506.498L1673.32 575.527L1612.59 540.467L1553.75 506.498L1673.32 437.468L1792.88 506.498ZM1545.46 506.498L1425.9 437.468L1306.33 506.498L1365.17 540.467L1425.9 575.527L1545.46 506.498ZM1298.04 506.498L1178.48 575.527L1117.75 540.467L1058.91 506.498L1178.48 437.468L1298.04 506.498ZM1050.62 506.498L931.058 437.467L811.494 506.498L870.33 540.467L931.058 575.528L1050.62 506.498ZM803.201 506.498L683.639 437.468L564.076 506.498L622.912 540.467L683.639 575.527L803.201 506.498ZM555.783 506.498L436.219 575.528L375.491 540.467L316.655 506.498L436.219 437.467L555.783 506.498ZM308.362 506.498L188.799 437.468L69.2367 506.498L128.073 540.467L188.799 575.527L308.362 506.498ZM1792.88 363.405L1673.32 294.372L1553.75 363.405L1612.59 397.377L1673.32 432.437L1792.88 363.405ZM1545.46 363.405L1425.9 432.437L1365.17 397.377L1306.33 363.405L1425.9 294.372L1545.46 363.405ZM1298.05 363.405L1178.48 294.372L1058.91 363.405L1117.75 397.377L1178.48 432.437L1298.05 363.405ZM1050.63 363.405L931.058 432.438L870.33 397.377L811.489 363.405L931.058 294.372L1050.63 363.405ZM803.206 363.405L683.639 432.437L622.912 397.377L564.071 363.405L683.639 294.372L803.206 363.405ZM555.788 363.405L436.219 294.372L316.65 363.405L375.491 397.377L436.219 432.438L555.788 363.405ZM308.367 363.405L188.799 432.437L128.073 397.377L69.2319 363.405L188.799 294.372L308.367 363.405ZM1792.86 220.321L1673.32 289.342L1612.59 254.281L1553.77 220.32L1673.32 151.299L1792.86 220.321ZM1545.44 220.321L1425.9 151.299L1306.35 220.321L1365.17 254.281L1425.9 289.342L1545.44 220.321ZM1298.03 220.321L1178.48 289.341L1117.75 254.281L1058.93 220.321L1178.48 151.3L1298.03 220.321ZM1050.61 220.321L931.058 151.299L811.509 220.321L870.33 254.281L931.058 289.342L1050.61 220.321ZM803.186 220.321L683.639 151.3L564.091 220.321L622.912 254.281L683.639 289.341L803.186 220.321ZM555.768 220.321L436.219 289.342L375.491 254.281L316.67 220.321L436.219 151.299L555.768 220.321ZM308.347 220.321L188.799 151.3L69.2517 220.321L128.073 254.281L188.799 289.341L308.347 220.321ZM1792.87 77.2421L1673.32 8.21508L1553.76 77.242L1612.59 111.208L1673.32 146.269L1792.87 77.2421ZM1545.45 77.2421L1425.9 146.269L1365.17 111.208L1306.34 77.2421L1425.9 8.21512L1545.45 77.2421ZM1298.04 77.2421L1178.48 8.2154L1058.92 77.242L1117.75 111.208L1178.48 146.269L1298.04 77.2421ZM1050.62 77.2421L931.058 146.269L870.331 111.208L811.499 77.2421L931.058 8.21484L1050.62 77.2421ZM803.196 77.2421L683.639 146.269L622.912 111.208L564.081 77.242L683.639 8.21536L803.196 77.2421ZM555.778 77.242L436.219 8.21481L316.66 77.242L375.491 111.208L436.219 146.269L555.778 77.242ZM308.357 77.242L188.799 146.269L128.073 111.208L69.2418 77.242L188.799 8.21538L308.357 77.242ZM65.0902 74.7871L-54.5723 5.69994L65.0902 -63.3873L125.972 -28.2372L184.753 5.69994L65.0902 74.7871ZM312.509 74.7871L192.846 5.69994L312.509 -63.3873L373.391 -28.2372L432.171 5.69994L312.509 74.7871ZM440.267 5.69994L559.929 74.7871L679.592 5.69994L620.811 -28.2372L559.929 -63.3873L440.267 5.69994ZM807.348 74.7871L687.685 5.69994L807.348 -63.3873L868.23 -28.2372L927.01 5.69994L807.348 74.7871ZM935.106 5.69994L1054.77 74.7871L1174.43 5.69994L1115.65 -28.2372L1054.77 -63.3873L935.106 5.69994ZM1182.52 5.69994L1302.19 74.7871L1421.85 5.69994L1363.07 -28.2372L1302.19 -63.3873L1182.52 5.69994ZM1549.61 74.7871L1429.94 5.69994L1549.61 -63.3873L1610.49 -28.2372L1669.27 5.69994L1549.61 74.7871ZM1677.36 5.69994L1797.03 74.7871L1916.69 5.69994L1857.91 -28.2372L1797.03 -63.3873L1677.36 5.69994ZM65.0902 217.871L-54.5723 148.784L65.0902 79.6969L125.972 114.847L184.753 148.784L65.0902 217.871ZM192.846 148.784L312.509 217.871L432.171 148.784L373.391 114.847L312.509 79.6969L192.846 148.784ZM559.929 217.871L440.267 148.784L559.929 79.6969L620.811 114.847L679.592 148.784L559.929 217.871ZM687.685 148.784L807.348 217.871L927.01 148.784L868.23 114.847L807.348 79.697L687.685 148.784ZM1054.77 217.871L935.106 148.784L1054.77 79.6969L1115.65 114.847L1174.43 148.784L1054.77 217.871ZM1302.19 217.871L1182.52 148.784L1302.19 79.697L1363.07 114.847L1421.85 148.784L1302.19 217.871ZM1429.94 148.784L1549.61 217.871L1669.27 148.784L1610.49 114.847L1549.61 79.6969L1429.94 148.784ZM1797.03 217.871L1677.36 148.784L1797.03 79.697L1857.91 114.847L1916.69 148.784L1797.03 217.871ZM-54.5723 291.857L65.0902 360.944L184.753 291.857L125.972 257.92L65.0902 222.77L-54.5723 291.857ZM312.509 360.944L192.846 291.857L312.509 222.77L373.391 257.92L432.171 291.857L312.509 360.944ZM440.267 291.857L559.929 360.944L679.592 291.857L620.811 257.92L559.929 222.77L440.267 291.857ZM807.348 360.944L687.685 291.857L807.348 222.77L868.23 257.92L927.01 291.857L807.348 360.944ZM935.106 291.857L1054.77 360.944L1174.43 291.857L1115.65 257.92L1054.77 222.77L935.106 291.857ZM1182.52 291.857L1302.19 360.944L1421.85 291.857L1363.07 257.92L1302.19 222.77L1182.52 291.857ZM1549.61 360.944L1429.94 291.857L1549.61 222.77L1610.49 257.92L1669.27 291.857L1549.61 360.944ZM1677.36 291.857L1797.03 360.944L1916.69 291.857L1857.91 257.92L1797.03 222.77L1677.36 291.857ZM65.0902 504.04L-54.5723 434.953L65.0902 365.865L125.972 401.015L184.753 434.953L65.0902 504.04ZM192.846 434.953L312.509 504.04L432.171 434.953L373.391 401.015L312.509 365.865L192.846 434.953ZM559.929 504.04L440.267 434.953L559.929 365.865L620.811 401.015L679.592 434.953L559.929 504.04ZM687.685 434.953L807.348 504.04L927.01 434.953L868.23 401.015L807.348 365.865L687.685 434.953ZM1054.77 504.04L935.106 434.953L1054.77 365.865L1115.65 401.015L1174.43 434.953L1054.77 504.04ZM1302.19 504.04L1182.52 434.953L1302.19 365.865L1363.07 401.015L1421.85 434.953L1302.19 504.04ZM1429.94 434.953L1549.61 504.04L1669.27 434.953L1610.49 401.015L1549.61 365.865L1429.94 434.953ZM1797.03 504.04L1677.36 434.953L1797.03 365.865L1857.91 401.015L1916.69 434.953L1797.03 504.04ZM-54.5723 578.043L65.0902 647.13L184.753 578.043L125.972 544.106L65.0902 508.955L-54.5723 578.043ZM312.509 647.13L192.846 578.043L312.509 508.955L373.391 544.106L432.171 578.043L312.509 647.13ZM440.267 578.043L559.929 647.13L679.592 578.043L620.811 544.106L559.929 508.955L440.267 578.043ZM807.348 647.13L687.685 578.043L807.348 508.955L868.23 544.106L927.01 578.043L807.348 647.13ZM935.106 578.043L1054.77 647.13L1174.43 578.043L1115.65 544.106L1054.77 508.955L935.106 578.043ZM1182.52 578.043L1302.19 647.13L1421.85 578.043L1363.07 544.106L1302.19 508.955L1182.52 578.043ZM1549.61 647.13L1429.94 578.043L1549.61 508.955L1610.49 544.106L1669.27 578.043L1549.61 647.13ZM1677.36 578.043L1797.03 647.13L1916.69 578.043L1857.91 544.106L1797.03 508.955L1677.36 578.043ZM65.0902 790.214L-54.5723 721.127L65.0902 652.04L125.972 687.19L184.753 721.127L65.0902 790.214ZM192.846 721.127L312.509 790.214L432.171 721.127L373.391 687.19L312.509 652.04L192.846 721.127ZM559.929 790.214L440.267 721.127L559.929 652.04L620.811 687.19L679.592 721.127L559.929 790.214ZM687.685 721.127L807.348 790.214L927.01 721.127L868.23 687.19L807.348 652.04L687.685 721.127ZM1054.77 790.214L935.106 721.127L1054.77 652.04L1115.65 687.19L1174.43 721.127L1054.77 790.214ZM1302.19 790.214L1182.52 721.127L1302.19 652.04L1363.07 687.19L1421.85 721.127L1302.19 790.214ZM1429.94 721.127L1549.61 790.214L1669.27 721.127L1610.49 687.19L1549.61 652.04L1429.94 721.127ZM1797.03 790.214L1677.36 721.127L1797.03 652.04L1857.91 687.19L1916.69 721.127L1797.03 790.214ZM-54.5723 864.213L65.0902 933.301L184.753 864.213L125.972 830.276L65.0902 795.126L-54.5723 864.213ZM312.509 933.301L192.846 864.213L312.509 795.126L373.391 830.276L432.171 864.213L312.509 933.301ZM440.267 864.213L559.929 933.301L679.592 864.213L620.811 830.276L559.929 795.126L440.267 864.213ZM807.348 933.301L687.685 864.213L807.348 795.126L868.23 830.276L927.01 864.213L807.348 933.301ZM935.106 864.213L1054.77 933.301L1174.43 864.213L1115.65 830.276L1054.77 795.126L935.106 864.213ZM1182.52 864.213L1302.19 933.301L1421.85 864.213L1363.07 830.276L1302.19 795.126L1182.52 864.213ZM1549.61 933.301L1429.94 864.213L1549.61 795.126L1610.49 830.276L1669.27 864.213L1549.61 933.301ZM1677.36 864.213L1797.03 933.301L1916.69 864.213L1857.91 830.276L1797.03 795.126L1677.36 864.213ZM65.0902 1076.38L-54.5723 1007.3L65.0902 938.208L125.972 973.358L184.753 1007.3L65.0902 1076.38ZM192.846 1007.3L312.509 1076.38L432.171 1007.3L373.391 973.358L312.509 938.208L192.846 1007.3ZM559.929 1076.38L440.267 1007.3L559.929 938.208L620.811 973.358L679.592 1007.3L559.929 1076.38ZM687.685 1007.3L807.348 1076.38L927.01 1007.3L868.23 973.358L807.348 938.208L687.685 1007.3ZM1054.77 1076.38L935.106 1007.3L1054.77 938.208L1115.65 973.358L1174.43 1007.3L1054.77 1076.38ZM1302.19 1076.38L1182.52 1007.3L1302.19 938.208L1363.07 973.358L1421.85 1007.3L1302.19 1076.38ZM1429.94 1007.3L1549.61 1076.38L1669.27 1007.3L1610.49 973.358L1549.61 938.208L1429.94 1007.3ZM1797.03 1076.38L1677.36 1007.3L1797.03 938.208L1857.91 973.358L1916.69 1007.3L1797.03 1076.38Z" clip-rule="evenodd" fill-rule="evenodd"></path>
<rect fill="url(#paint1_linear_7080_3093)" height="1126" width="2023" y="-57" x="-76"></rect>
<path fill="white" d="M94.1498 250.637C93.2698 250.637 92.4661 250.422 91.7387 249.993C91.0114 249.557 90.4296 248.975 89.9932 248.247C89.564 247.52 89.3495 246.716 89.3495 245.836C89.3495 244.949 89.564 244.145 89.9932 243.425C90.4296 242.698 91.0114 242.12 91.7387 241.691C92.4661 241.254 93.2698 241.036 94.1498 241.036C95.0372 241.036 95.8409 241.254 96.5609 241.691C97.2882 242.12 97.8665 242.698 98.2956 243.425C98.732 244.145 98.9502 244.949 98.9502 245.836C98.9502 246.716 98.732 247.52 98.2956 248.247C97.8665 248.975 97.2882 249.557 96.5609 249.993C95.8409 250.422 95.0372 250.637 94.1498 250.637ZM121.525 254.739H117.947L125.988 232.395H129.882L137.923 254.739H134.345L128.028 236.454H127.853L121.525 254.739ZM122.125 245.989H133.734V248.826H122.125V245.989ZM151.503 247.789V237.981H154.776V254.739H151.569V251.837H151.394C151.008 252.731 150.39 253.477 149.539 254.073C148.696 254.662 147.645 254.957 146.386 254.957C145.31 254.957 144.357 254.721 143.528 254.248C142.706 253.768 142.059 253.059 141.586 252.12C141.12 251.182 140.888 250.022 140.888 248.64V237.981H144.15V248.247C144.15 249.389 144.466 250.298 145.099 250.975C145.732 251.651 146.554 251.989 147.565 251.989C148.176 251.989 148.783 251.837 149.387 251.531C149.997 251.226 150.503 250.764 150.903 250.146C151.31 249.527 151.51 248.742 151.503 247.789ZM166.981 237.981V240.6H157.828V237.981H166.981ZM160.283 233.966H163.545V249.818C163.545 250.451 163.639 250.928 163.828 251.248C164.018 251.56 164.261 251.775 164.559 251.891C164.865 252 165.196 252.055 165.552 252.055C165.814 252.055 166.043 252.037 166.24 252C166.436 251.964 166.589 251.935 166.698 251.913L167.287 254.608C167.098 254.681 166.829 254.753 166.48 254.826C166.13 254.906 165.694 254.95 165.17 254.957C164.312 254.972 163.512 254.819 162.77 254.499C162.028 254.179 161.428 253.684 160.97 253.015C160.512 252.346 160.283 251.506 160.283 250.495V233.966ZM174.212 244.789V254.739H170.95V232.395H174.168V240.709H174.376C174.768 239.807 175.368 239.09 176.176 238.559C176.983 238.028 178.038 237.763 179.34 237.763C180.489 237.763 181.492 237.999 182.351 238.472C183.216 238.945 183.885 239.65 184.358 240.589C184.838 241.52 185.078 242.683 185.078 244.08V254.739H181.816V244.473C181.816 243.243 181.5 242.291 180.867 241.614C180.234 240.93 179.354 240.589 178.227 240.589C177.456 240.589 176.765 240.752 176.154 241.08C175.55 241.407 175.074 241.887 174.725 242.52C174.383 243.145 174.212 243.902 174.212 244.789ZM196.654 255.077C195.003 255.077 193.581 254.724 192.388 254.019C191.202 253.306 190.286 252.306 189.639 251.019C188.998 249.724 188.678 248.207 188.678 246.469C188.678 244.753 188.998 243.24 189.639 241.931C190.286 240.621 191.188 239.599 192.344 238.865C193.508 238.13 194.868 237.763 196.424 237.763C197.37 237.763 198.286 237.919 199.174 238.232C200.061 238.545 200.858 239.036 201.563 239.705C202.269 240.374 202.825 241.243 203.232 242.312C203.64 243.374 203.843 244.665 203.843 246.185V247.342H190.522V244.898H200.647C200.647 244.04 200.472 243.28 200.123 242.618C199.774 241.949 199.283 241.421 198.65 241.036C198.025 240.65 197.29 240.458 196.446 240.458C195.53 240.458 194.73 240.683 194.046 241.134C193.37 241.578 192.846 242.16 192.475 242.88C192.111 243.593 191.93 244.367 191.93 245.204V247.113C191.93 248.233 192.126 249.186 192.519 249.971C192.919 250.757 193.475 251.357 194.188 251.771C194.901 252.179 195.734 252.382 196.686 252.382C197.305 252.382 197.868 252.295 198.377 252.12C198.886 251.939 199.327 251.669 199.697 251.313C200.068 250.957 200.352 250.517 200.548 249.993L203.636 250.549C203.389 251.459 202.945 252.255 202.305 252.939C201.672 253.615 200.876 254.142 199.916 254.521C198.963 254.892 197.875 255.077 196.654 255.077ZM210.725 244.789V254.739H207.463V237.981H210.594V240.709H210.801C211.186 239.821 211.79 239.109 212.612 238.57C213.441 238.032 214.485 237.763 215.743 237.763C216.885 237.763 217.885 238.003 218.743 238.483C219.602 238.956 220.267 239.661 220.74 240.6C221.213 241.538 221.449 242.698 221.449 244.08V254.739H218.187V244.473C218.187 243.258 217.871 242.309 217.238 241.625C216.605 240.934 215.736 240.589 214.63 240.589C213.874 240.589 213.201 240.752 212.612 241.08C212.03 241.407 211.568 241.887 211.226 242.52C210.892 243.145 210.725 243.902 210.725 244.789ZM233.646 237.981V240.6H224.493V237.981H233.646ZM226.948 233.966H230.21V249.818C230.21 250.451 230.304 250.928 230.493 251.248C230.682 251.56 230.926 251.775 231.224 251.891C231.53 252 231.861 252.055 232.217 252.055C232.479 252.055 232.708 252.037 232.904 252C233.101 251.964 233.253 251.935 233.363 251.913L233.952 254.608C233.763 254.681 233.494 254.753 233.144 254.826C232.795 254.906 232.359 254.95 231.835 254.957C230.977 254.972 230.177 254.819 229.435 254.499C228.693 254.179 228.093 253.684 227.635 253.015C227.177 252.346 226.948 251.506 226.948 250.495V233.966ZM237.255 254.739V237.981H240.517V254.739H237.255ZM238.902 235.396C238.335 235.396 237.847 235.206 237.44 234.828C237.04 234.443 236.84 233.985 236.84 233.454C236.84 232.915 237.04 232.457 237.44 232.079C237.847 231.693 238.335 231.501 238.902 231.501C239.469 231.501 239.953 231.693 240.353 232.079C240.76 232.457 240.964 232.915 240.964 233.454C240.964 233.985 240.76 234.443 240.353 234.828C239.953 235.206 239.469 235.396 238.902 235.396ZM251.964 255.077C250.342 255.077 248.946 254.71 247.775 253.975C246.611 253.233 245.716 252.211 245.091 250.909C244.465 249.607 244.152 248.116 244.152 246.436C244.152 244.734 244.472 243.232 245.113 241.931C245.753 240.621 246.654 239.599 247.818 238.865C248.982 238.13 250.353 237.763 251.931 237.763C253.204 237.763 254.339 237.999 255.335 238.472C256.332 238.938 257.135 239.592 257.746 240.436C258.364 241.28 258.732 242.265 258.848 243.392H255.673C255.499 242.607 255.099 241.931 254.473 241.363C253.855 240.796 253.026 240.512 251.986 240.512C251.077 240.512 250.28 240.752 249.596 241.232C248.92 241.705 248.393 242.382 248.015 243.262C247.636 244.134 247.447 245.167 247.447 246.36C247.447 247.582 247.633 248.637 248.004 249.524C248.375 250.411 248.898 251.099 249.575 251.586C250.258 252.073 251.062 252.317 251.986 252.317C252.604 252.317 253.164 252.204 253.666 251.979C254.175 251.746 254.6 251.415 254.942 250.986C255.291 250.557 255.535 250.04 255.673 249.437H258.848C258.732 250.52 258.379 251.488 257.79 252.339C257.201 253.19 256.412 253.859 255.422 254.346C254.44 254.833 253.288 255.077 251.964 255.077ZM267.213 255.11C266.151 255.11 265.191 254.913 264.333 254.521C263.475 254.121 262.795 253.542 262.293 252.786C261.798 252.029 261.551 251.102 261.551 250.004C261.551 249.058 261.733 248.28 262.096 247.669C262.46 247.058 262.951 246.575 263.569 246.218C264.188 245.862 264.879 245.593 265.642 245.411C266.406 245.229 267.184 245.091 267.977 244.996C268.981 244.88 269.795 244.785 270.421 244.713C271.046 244.633 271.501 244.505 271.784 244.331C272.068 244.156 272.21 243.873 272.21 243.48V243.403C272.21 242.451 271.941 241.712 271.403 241.189C270.872 240.665 270.079 240.403 269.024 240.403C267.926 240.403 267.06 240.647 266.428 241.134C265.802 241.614 265.369 242.149 265.129 242.738L262.064 242.04C262.427 241.021 262.958 240.2 263.657 239.574C264.362 238.941 265.173 238.483 266.089 238.199C267.006 237.908 267.97 237.763 268.981 237.763C269.65 237.763 270.359 237.843 271.108 238.003C271.864 238.156 272.57 238.439 273.225 238.854C273.886 239.269 274.428 239.861 274.85 240.632C275.272 241.396 275.483 242.389 275.483 243.611V254.739H272.297V252.448H272.166C271.955 252.87 271.639 253.284 271.217 253.691C270.795 254.099 270.253 254.437 269.592 254.706C268.93 254.975 268.137 255.11 267.213 255.11ZM267.922 252.491C268.824 252.491 269.595 252.313 270.235 251.957C270.883 251.6 271.374 251.135 271.708 250.56C272.05 249.978 272.221 249.357 272.221 248.695V246.535C272.104 246.651 271.879 246.76 271.544 246.862C271.217 246.956 270.843 247.04 270.421 247.113C269.999 247.178 269.588 247.24 269.188 247.298C268.788 247.349 268.453 247.393 268.184 247.429C267.551 247.509 266.973 247.644 266.45 247.833C265.933 248.022 265.519 248.295 265.206 248.651C264.9 249 264.748 249.466 264.748 250.048C264.748 250.855 265.046 251.466 265.642 251.88C266.239 252.288 266.999 252.491 267.922 252.491ZM287.65 237.981V240.6H278.497V237.981H287.65ZM280.951 233.966H284.214V249.818C284.214 250.451 284.308 250.928 284.497 251.248C284.686 251.56 284.93 251.775 285.228 251.891C285.534 252 285.865 252.055 286.221 252.055C286.483 252.055 286.712 252.037 286.908 252C287.105 251.964 287.257 251.935 287.366 251.913L287.956 254.608C287.767 254.681 287.497 254.753 287.148 254.826C286.799 254.906 286.363 254.95 285.839 254.957C284.981 254.972 284.181 254.819 283.439 254.499C282.697 254.179 282.097 253.684 281.639 253.015C281.181 252.346 280.951 251.506 280.951 250.495V233.966ZM291.259 254.739V237.981H294.521V254.739H291.259ZM292.906 235.396C292.339 235.396 291.851 235.206 291.444 234.828C291.044 234.443 290.844 233.985 290.844 233.454C290.844 232.915 291.044 232.457 291.444 232.079C291.851 231.693 292.339 231.501 292.906 231.501C293.473 231.501 293.957 231.693 294.357 232.079C294.764 232.457 294.968 232.915 294.968 233.454C294.968 233.985 294.764 234.443 294.357 234.828C293.957 235.206 293.473 235.396 292.906 235.396ZM305.968 255.077C304.397 255.077 303.026 254.717 301.855 253.997C300.684 253.277 299.775 252.27 299.127 250.975C298.48 249.68 298.156 248.167 298.156 246.436C298.156 244.698 298.48 243.178 299.127 241.876C299.775 240.574 300.684 239.563 301.855 238.843C303.026 238.123 304.397 237.763 305.968 237.763C307.539 237.763 308.91 238.123 310.081 238.843C311.252 239.563 312.161 240.574 312.808 241.876C313.456 243.178 313.779 244.698 313.779 246.436C313.779 248.167 313.456 249.68 312.808 250.975C312.161 252.27 311.252 253.277 310.081 253.997C308.91 254.717 307.539 255.077 305.968 255.077ZM305.979 252.339C306.997 252.339 307.841 252.069 308.51 251.531C309.179 250.993 309.674 250.277 309.994 249.382C310.321 248.487 310.485 247.502 310.485 246.425C310.485 245.356 310.321 244.374 309.994 243.48C309.674 242.578 309.179 241.854 308.51 241.309C307.841 240.763 306.997 240.49 305.979 240.49C304.953 240.49 304.102 240.763 303.426 241.309C302.757 241.854 302.258 242.578 301.931 243.48C301.611 244.374 301.451 245.356 301.451 246.425C301.451 247.502 301.611 248.487 301.931 249.382C302.258 250.277 302.757 250.993 303.426 251.531C304.102 252.069 304.953 252.339 305.979 252.339ZM320.683 244.789V254.739H317.42V237.981H320.552V240.709H320.759C321.144 239.821 321.748 239.109 322.57 238.57C323.399 238.032 324.443 237.763 325.701 237.763C326.843 237.763 327.843 238.003 328.701 238.483C329.56 238.956 330.225 239.661 330.698 240.6C331.171 241.538 331.407 242.698 331.407 244.08V254.739H328.145V244.473C328.145 243.258 327.829 242.309 327.196 241.625C326.563 240.934 325.694 240.589 324.588 240.589C323.832 240.589 323.159 240.752 322.57 241.08C321.988 241.407 321.526 241.887 321.184 242.52C320.85 243.145 320.683 243.902 320.683 244.789ZM94.1498 294.637C93.2698 294.637 92.4661 294.422 91.7387 293.993C91.0114 293.557 90.4296 292.975 89.9932 292.247C89.564 291.52 89.3495 290.716 89.3495 289.836C89.3495 288.949 89.564 288.145 89.9932 287.425C90.4296 286.698 91.0114 286.12 91.7387 285.691C92.4661 285.254 93.2698 285.036 94.1498 285.036C95.0372 285.036 95.8409 285.254 96.5609 285.691C97.2882 286.12 97.8665 286.698 98.2956 287.425C98.732 288.145 98.9502 288.949 98.9502 289.836C98.9502 290.716 98.732 291.52 98.2956 292.247C97.8665 292.975 97.2882 293.557 96.5609 293.993C95.8409 294.422 95.0372 294.637 94.1498 294.637ZM119.638 298.739V276.395H133.646V279.297H123.009V286.105H132.915V288.996H123.009V295.837H133.777V298.739H119.638ZM137.888 298.739V281.981H141.019V284.709H141.226C141.575 283.785 142.146 283.065 142.939 282.549C143.732 282.025 144.681 281.763 145.786 281.763C146.906 281.763 147.845 282.025 148.601 282.549C149.365 283.072 149.928 283.792 150.292 284.709H150.467C150.867 283.814 151.503 283.101 152.376 282.57C153.249 282.032 154.289 281.763 155.496 281.763C157.016 281.763 158.256 282.239 159.216 283.192C160.184 284.145 160.667 285.581 160.667 287.502V298.739H157.405V287.807C157.405 286.672 157.096 285.851 156.478 285.341C155.86 284.832 155.121 284.578 154.263 284.578C153.201 284.578 152.376 284.905 151.787 285.56C151.198 286.207 150.903 287.04 150.903 288.058V298.739H147.652V287.6C147.652 286.691 147.368 285.96 146.801 285.407C146.234 284.854 145.495 284.578 144.586 284.578C143.968 284.578 143.397 284.741 142.873 285.069C142.357 285.389 141.939 285.836 141.619 286.411C141.306 286.985 141.15 287.651 141.15 288.407V298.739H137.888ZM165.301 298.739V276.395H168.563V284.698H168.76C168.949 284.349 169.222 283.945 169.578 283.487C169.934 283.029 170.429 282.629 171.062 282.287C171.695 281.938 172.531 281.763 173.571 281.763C174.924 281.763 176.131 282.105 177.193 282.789C178.255 283.472 179.088 284.458 179.691 285.745C180.302 287.032 180.608 288.582 180.608 290.393C180.608 292.204 180.306 293.757 179.702 295.051C179.099 296.339 178.27 297.331 177.215 298.03C176.16 298.721 174.957 299.066 173.604 299.066C172.585 299.066 171.753 298.895 171.105 298.553C170.465 298.211 169.963 297.811 169.6 297.353C169.236 296.895 168.956 296.488 168.76 296.131H168.487V298.739H165.301ZM168.498 290.36C168.498 291.538 168.669 292.571 169.011 293.458C169.353 294.346 169.847 295.04 170.494 295.542C171.142 296.037 171.935 296.284 172.873 296.284C173.847 296.284 174.662 296.026 175.317 295.509C175.971 294.986 176.466 294.277 176.8 293.382C177.142 292.487 177.313 291.48 177.313 290.36C177.313 289.254 177.146 288.262 176.811 287.382C176.484 286.502 175.989 285.807 175.327 285.298C174.673 284.789 173.855 284.534 172.873 284.534C171.927 284.534 171.127 284.778 170.473 285.265C169.825 285.752 169.334 286.432 169 287.305C168.665 288.178 168.498 289.196 168.498 290.36ZM191.493 299.077C189.842 299.077 188.42 298.724 187.227 298.019C186.042 297.306 185.125 296.306 184.478 295.019C183.838 293.724 183.518 292.207 183.518 290.469C183.518 288.753 183.838 287.24 184.478 285.931C185.125 284.621 186.027 283.599 187.184 282.865C188.348 282.13 189.708 281.763 191.264 281.763C192.21 281.763 193.126 281.919 194.013 282.232C194.901 282.545 195.697 283.036 196.403 283.705C197.108 284.374 197.665 285.243 198.072 286.312C198.479 287.374 198.683 288.665 198.683 290.185V291.342H185.362V288.898H195.486C195.486 288.04 195.312 287.28 194.963 286.618C194.613 285.949 194.122 285.421 193.49 285.036C192.864 284.65 192.13 284.458 191.286 284.458C190.369 284.458 189.569 284.683 188.886 285.134C188.209 285.578 187.686 286.16 187.315 286.88C186.951 287.593 186.769 288.367 186.769 289.204V291.113C186.769 292.233 186.966 293.186 187.358 293.971C187.758 294.757 188.315 295.357 189.028 295.771C189.74 296.179 190.573 296.382 191.526 296.382C192.144 296.382 192.708 296.295 193.217 296.12C193.726 295.939 194.166 295.669 194.537 295.313C194.908 294.957 195.192 294.517 195.388 293.993L198.476 294.549C198.228 295.459 197.785 296.255 197.145 296.939C196.512 297.615 195.715 298.142 194.755 298.521C193.802 298.892 192.715 299.077 191.493 299.077ZM208.575 299.066C207.223 299.066 206.015 298.721 204.953 298.03C203.899 297.331 203.069 296.339 202.466 295.051C201.869 293.757 201.571 292.204 201.571 290.393C201.571 288.582 201.873 287.032 202.477 285.745C203.088 284.458 203.924 283.472 204.986 282.789C206.048 282.105 207.252 281.763 208.597 281.763C209.637 281.763 210.474 281.938 211.106 282.287C211.746 282.629 212.241 283.029 212.59 283.487C212.947 283.945 213.223 284.349 213.419 284.698H213.616V276.395H216.878V298.739H213.692V296.131H213.419C213.223 296.488 212.939 296.895 212.568 297.353C212.205 297.811 211.703 298.211 211.063 298.553C210.423 298.895 209.594 299.066 208.575 299.066ZM209.295 296.284C210.234 296.284 211.026 296.037 211.674 295.542C212.328 295.04 212.823 294.346 213.157 293.458C213.499 292.571 213.67 291.538 213.67 290.36C213.67 289.196 213.503 288.178 213.168 287.305C212.834 286.432 212.343 285.752 211.696 285.265C211.048 284.778 210.248 284.534 209.295 284.534C208.314 284.534 207.495 284.789 206.841 285.298C206.186 285.807 205.692 286.502 205.357 287.382C205.03 288.262 204.866 289.254 204.866 290.36C204.866 291.48 205.033 292.487 205.368 293.382C205.702 294.277 206.197 294.986 206.852 295.509C207.513 296.026 208.328 296.284 209.295 296.284ZM227.807 299.066C226.454 299.066 225.247 298.721 224.185 298.03C223.13 297.331 222.301 296.339 221.697 295.051C221.101 293.757 220.803 292.204 220.803 290.393C220.803 288.582 221.104 287.032 221.708 285.745C222.319 284.458 223.155 283.472 224.217 282.789C225.279 282.105 226.483 281.763 227.829 281.763C228.869 281.763 229.705 281.938 230.338 282.287C230.978 282.629 231.472 283.029 231.822 283.487C232.178 283.945 232.454 284.349 232.651 284.698H232.847V276.395H236.109V298.739H232.923V296.131H232.651C232.454 296.488 232.171 296.895 231.8 297.353C231.436 297.811 230.934 298.211 230.294 298.553C229.654 298.895 228.825 299.066 227.807 299.066ZM228.527 296.284C229.465 296.284 230.258 296.037 230.905 295.542C231.56 295.04 232.054 294.346 232.389 293.458C232.731 292.571 232.902 291.538 232.902 290.36C232.902 289.196 232.734 288.178 232.4 287.305C232.065 286.432 231.574 285.752 230.927 285.265C230.28 284.778 229.48 284.534 228.527 284.534C227.545 284.534 226.727 284.789 226.072 285.298C225.417 285.807 224.923 286.502 224.588 287.382C224.261 288.262 224.097 289.254 224.097 290.36C224.097 291.48 224.265 292.487 224.599 293.382C224.934 294.277 225.428 294.986 226.083 295.509C226.745 296.026 227.559 296.284 228.527 296.284ZM247.987 299.077C246.336 299.077 244.914 298.724 243.722 298.019C242.536 297.306 241.62 296.306 240.972 295.019C240.332 293.724 240.012 292.207 240.012 290.469C240.012 288.753 240.332 287.24 240.972 285.931C241.62 284.621 242.521 283.599 243.678 282.865C244.842 282.13 246.202 281.763 247.758 281.763C248.704 281.763 249.62 281.919 250.507 282.232C251.395 282.545 252.191 283.036 252.897 283.705C253.602 284.374 254.159 285.243 254.566 286.312C254.973 287.374 255.177 288.665 255.177 290.185V291.342H241.856V288.898H251.98C251.98 288.04 251.806 287.28 251.457 286.618C251.108 285.949 250.617 285.421 249.984 285.036C249.358 284.65 248.624 284.458 247.78 284.458C246.864 284.458 246.064 284.683 245.38 285.134C244.703 285.578 244.18 286.16 243.809 286.88C243.445 287.593 243.263 288.367 243.263 289.204V291.113C243.263 292.233 243.46 293.186 243.852 293.971C244.252 294.757 244.809 295.357 245.522 295.771C246.234 296.179 247.067 296.382 248.02 296.382C248.638 296.382 249.202 296.295 249.711 296.12C250.22 295.939 250.66 295.669 251.031 295.313C251.402 294.957 251.686 294.517 251.882 293.993L254.97 294.549C254.722 295.459 254.279 296.255 253.639 296.939C253.006 297.615 252.209 298.142 251.249 298.521C250.297 298.892 249.209 299.077 247.987 299.077ZM265.069 299.066C263.717 299.066 262.509 298.721 261.447 298.03C260.393 297.331 259.564 296.339 258.96 295.051C258.363 293.757 258.065 292.204 258.065 290.393C258.065 288.582 258.367 287.032 258.971 285.745C259.582 284.458 260.418 283.472 261.48 282.789C262.542 282.105 263.746 281.763 265.091 281.763C266.131 281.763 266.968 281.938 267.601 282.287C268.241 282.629 268.735 283.029 269.084 283.487C269.441 283.945 269.717 284.349 269.913 284.698H270.11V276.395H273.372V298.739H270.186V296.131H269.913C269.717 296.488 269.433 296.895 269.062 297.353C268.699 297.811 268.197 298.211 267.557 298.553C266.917 298.895 266.088 299.066 265.069 299.066ZM265.789 296.284C266.728 296.284 267.521 296.037 268.168 295.542C268.822 295.04 269.317 294.346 269.652 293.458C269.993 292.571 270.164 291.538 270.164 290.36C270.164 289.196 269.997 288.178 269.662 287.305C269.328 286.432 268.837 285.752 268.19 285.265C267.542 284.778 266.742 284.534 265.789 284.534C264.808 284.534 263.989 284.789 263.335 285.298C262.68 285.807 262.186 286.502 261.851 287.382C261.524 288.262 261.36 289.254 261.36 290.36C261.36 291.48 261.527 292.487 261.862 293.382C262.196 294.277 262.691 294.986 263.346 295.509C264.008 296.026 264.822 296.284 265.789 296.284ZM285.318 279.297V276.395H302.61V279.297H295.639V298.739H292.279V279.297H285.318ZM306.311 305.023C305.824 305.023 305.381 304.983 304.98 304.903C304.58 304.83 304.282 304.75 304.086 304.663L304.871 301.99C305.468 302.15 305.999 302.219 306.464 302.197C306.93 302.175 307.341 302.001 307.697 301.674C308.061 301.346 308.381 300.812 308.657 300.07L309.061 298.957L302.929 281.981H306.421L310.665 294.986H310.839L315.083 281.981H318.585L311.679 300.975C311.359 301.848 310.952 302.586 310.457 303.19C309.963 303.801 309.374 304.259 308.69 304.565C308.006 304.87 307.213 305.023 306.311 305.023ZM321.651 305.023V281.981H324.836V284.698H325.109C325.298 284.349 325.571 283.945 325.927 283.487C326.284 283.029 326.778 282.629 327.411 282.287C328.044 281.938 328.88 281.763 329.92 281.763C331.273 281.763 332.481 282.105 333.543 282.789C334.604 283.472 335.437 284.458 336.041 285.745C336.652 287.032 336.957 288.582 336.957 290.393C336.957 292.204 336.656 293.757 336.052 295.051C335.448 296.339 334.619 297.331 333.564 298.03C332.51 298.721 331.306 299.066 329.953 299.066C328.935 299.066 328.102 298.895 327.455 298.553C326.815 298.211 326.313 297.811 325.949 297.353C325.586 296.895 325.306 296.488 325.109 296.131H324.913V305.023H321.651ZM324.847 290.36C324.847 291.538 325.018 292.571 325.36 293.458C325.702 294.346 326.197 295.04 326.844 295.542C327.491 296.037 328.284 296.284 329.222 296.284C330.197 296.284 331.011 296.026 331.666 295.509C332.321 294.986 332.815 294.277 333.15 293.382C333.492 292.487 333.663 291.48 333.663 290.36C333.663 289.254 333.495 288.262 333.161 287.382C332.833 286.502 332.339 285.807 331.677 285.298C331.022 284.789 330.204 284.534 329.222 284.534C328.277 284.534 327.477 284.778 326.822 285.265C326.175 285.752 325.684 286.432 325.349 287.305C325.015 288.178 324.847 289.196 324.847 290.36ZM347.835 299.077C346.183 299.077 344.762 298.724 343.569 298.019C342.383 297.306 341.467 296.306 340.819 295.019C340.179 293.724 339.859 292.207 339.859 290.469C339.859 288.753 340.179 287.24 340.819 285.931C341.467 284.621 342.369 283.599 343.525 282.865C344.689 282.13 346.049 281.763 347.605 281.763C348.551 281.763 349.467 281.919 350.355 282.232C351.242 282.545 352.038 283.036 352.744 283.705C353.449 284.374 354.006 285.243 354.413 286.312C354.82 287.374 355.024 288.665 355.024 290.185V291.342H341.703V288.898H351.828C351.828 288.04 351.653 287.28 351.304 286.618C350.955 285.949 350.464 285.421 349.831 285.036C349.206 284.65 348.471 284.458 347.627 284.458C346.711 284.458 345.911 284.683 345.227 285.134C344.551 285.578 344.027 286.16 343.656 286.88C343.292 287.593 343.111 288.367 343.111 289.204V291.113C343.111 292.233 343.307 293.186 343.7 293.971C344.1 294.757 344.656 295.357 345.369 295.771C346.082 296.179 346.914 296.382 347.867 296.382C348.485 296.382 349.049 296.295 349.558 296.12C350.067 295.939 350.507 295.669 350.878 295.313C351.249 294.957 351.533 294.517 351.729 293.993L354.817 294.549C354.57 295.459 354.126 296.255 353.486 296.939C352.853 297.615 352.057 298.142 351.097 298.521C350.144 298.892 349.056 299.077 347.835 299.077ZM371.201 286.072L368.244 286.596C368.12 286.218 367.924 285.858 367.655 285.516C367.393 285.174 367.037 284.894 366.586 284.676C366.135 284.458 365.571 284.349 364.895 284.349C363.971 284.349 363.2 284.556 362.582 284.971C361.964 285.378 361.655 285.905 361.655 286.552C361.655 287.112 361.862 287.563 362.276 287.905C362.691 288.247 363.36 288.527 364.284 288.745L366.946 289.356C368.488 289.713 369.637 290.262 370.393 291.004C371.15 291.746 371.528 292.709 371.528 293.895C371.528 294.898 371.237 295.793 370.655 296.579C370.081 297.357 369.277 297.968 368.244 298.411C367.219 298.855 366.029 299.077 364.677 299.077C362.8 299.077 361.269 298.677 360.084 297.877C358.898 297.07 358.171 295.924 357.902 294.44L361.055 293.96C361.251 294.782 361.655 295.404 362.266 295.826C362.876 296.24 363.673 296.448 364.655 296.448C365.724 296.448 366.579 296.226 367.219 295.782C367.859 295.331 368.179 294.782 368.179 294.135C368.179 293.611 367.982 293.171 367.59 292.815C367.204 292.458 366.611 292.189 365.811 292.007L362.975 291.386C361.411 291.029 360.254 290.462 359.505 289.684C358.763 288.905 358.393 287.92 358.393 286.727C358.393 285.738 358.669 284.872 359.222 284.13C359.774 283.389 360.538 282.81 361.513 282.396C362.487 281.974 363.604 281.763 364.862 281.763C366.673 281.763 368.099 282.156 369.139 282.941C370.179 283.72 370.866 284.763 371.201 286.072Z"></path>
<path fill="#68D391" d="M349.739 386.82C348.711 385.61 347.825 384.372 347.645 384.118C347.642 384.113 347.637 384.109 347.631 384.106C347.625 384.103 347.619 384.101 347.612 384.101C347.606 384.101 347.599 384.103 347.593 384.106C347.588 384.109 347.583 384.113 347.579 384.118C347.399 384.372 346.513 385.61 345.486 386.82C336.675 398.017 346.876 405.571 346.876 405.571L346.959 405.628C347.036 406.797 347.228 408.477 347.228 408.477H347.996C347.996 408.477 348.187 406.804 348.265 405.636L348.348 405.571C348.348 405.571 358.55 398.017 349.739 386.82ZM347.612 405.407H347.612C347.612 405.407 347.155 405.018 347.031 404.823L347.03 404.802L347.583 392.612C347.584 392.604 347.587 392.597 347.592 392.592C347.598 392.587 347.605 392.584 347.612 392.584C347.62 392.584 347.627 392.587 347.632 392.592C347.637 392.597 347.641 392.604 347.641 392.612L348.194 404.802L348.193 404.823C348.07 405.017 347.612 405.407 347.612 405.407Z"></path>
<path fill="white" d="M366.663 402.911L362.427 392.617L362.415 392.588H359.112V393.277L359.642 393.278C359.722 393.278 359.8 393.294 359.874 393.325C359.947 393.355 360.014 393.4 360.07 393.456C360.125 393.513 360.17 393.58 360.199 393.653C360.229 393.727 360.244 393.805 360.243 393.885L360.146 404.253C360.145 404.41 360.083 404.559 359.973 404.67C359.862 404.782 359.713 404.845 359.556 404.848L359.014 404.854V405.54H362.228V404.855L361.897 404.848C361.74 404.844 361.591 404.779 361.48 404.667C361.37 404.555 361.308 404.404 361.308 404.247V394.48L365.928 405.532C365.961 405.61 366.015 405.676 366.085 405.722C366.155 405.769 366.238 405.794 366.322 405.794C366.406 405.794 366.488 405.769 366.558 405.722C366.628 405.676 366.683 405.61 366.715 405.532L371.231 394.723L371.298 404.245C371.299 404.404 371.237 404.556 371.125 404.67C371.014 404.783 370.862 404.848 370.703 404.85L370.364 404.854V405.54H374.126V404.854L373.61 404.85C373.453 404.847 373.302 404.783 373.191 404.672C373.08 404.56 373.017 404.409 373.016 404.251L372.983 393.885C372.983 393.727 373.046 393.575 373.156 393.463C373.267 393.35 373.418 393.285 373.576 393.282L374.126 393.277V392.588H370.913L366.663 402.911Z"></path>
<path fill="white" d="M396.279 404.688C396.225 404.634 396.183 404.569 396.155 404.497C396.127 404.425 396.115 404.349 396.118 404.272V399.192C396.118 398.228 395.831 397.466 395.266 396.926C394.7 396.387 393.924 396.114 392.959 396.114C391.596 396.114 390.525 396.664 389.777 397.747C389.77 397.757 389.761 397.765 389.75 397.769C389.739 397.774 389.727 397.775 389.715 397.773C389.703 397.771 389.692 397.766 389.684 397.758C389.675 397.75 389.669 397.74 389.666 397.728L389.314 396.371H388.725L387.211 397.236L387.211 397.712H387.601C387.76 397.704 387.916 397.755 388.039 397.856C388.095 397.912 388.139 397.98 388.166 398.055C388.193 398.13 388.204 398.209 388.198 398.289V404.272C388.202 404.349 388.19 404.425 388.162 404.497C388.134 404.569 388.092 404.634 388.037 404.688C387.983 404.743 387.917 404.785 387.846 404.813C387.774 404.84 387.697 404.853 387.62 404.849H387.241V405.538H390.724V404.849H390.345C390.268 404.853 390.191 404.84 390.119 404.813C390.047 404.785 389.982 404.743 389.927 404.688C389.873 404.634 389.83 404.569 389.803 404.497C389.775 404.425 389.762 404.349 389.766 404.272V400.312C389.769 399.796 389.88 399.286 390.094 398.816C390.305 398.337 390.639 397.922 391.063 397.614C391.508 397.297 392.044 397.132 392.591 397.145C393.259 397.145 393.757 397.355 394.072 397.769C394.389 398.188 394.55 398.728 394.55 399.375V404.272C394.554 404.349 394.542 404.425 394.514 404.497C394.486 404.569 394.444 404.634 394.389 404.688C394.335 404.743 394.269 404.785 394.197 404.813C394.126 404.84 394.049 404.853 393.972 404.849H393.593V405.538H397.075V404.849H396.697C396.62 404.852 396.543 404.84 396.471 404.812C396.399 404.785 396.334 404.742 396.279 404.688Z"></path>
<path fill="white" d="M428.192 393.365C427.198 392.844 426.089 392.577 424.966 392.588H420.399V393.277H420.842C421.02 393.29 421.188 393.367 421.314 393.493C421.441 393.619 421.518 393.787 421.531 393.965V404.163C421.528 404.252 421.508 404.34 421.471 404.421C421.434 404.502 421.381 404.575 421.314 404.634C421.255 404.701 421.182 404.754 421.1 404.791C421.019 404.828 420.931 404.848 420.842 404.85H420.399V405.54H424.966C426.089 405.551 427.198 405.284 428.192 404.763C429.164 404.248 429.971 403.472 430.522 402.522C431.094 401.552 431.384 400.389 431.384 399.064C431.384 397.739 431.094 396.575 430.522 395.605C429.971 394.656 429.164 393.879 428.192 393.365V393.365ZM429.559 399.064C429.559 400.274 429.341 401.305 428.91 402.127C428.481 402.948 427.908 403.565 427.207 403.963C426.502 404.362 425.704 404.569 424.893 404.563H423.972C423.882 404.562 423.794 404.541 423.713 404.504C423.632 404.467 423.559 404.414 423.499 404.347C423.433 404.288 423.38 404.215 423.342 404.134C423.305 404.053 423.285 403.965 423.283 403.876V394.252C423.285 394.162 423.305 394.075 423.342 393.993C423.379 393.912 423.433 393.84 423.499 393.78C423.559 393.714 423.632 393.661 423.713 393.624C423.795 393.587 423.883 393.567 423.972 393.564H424.893C425.704 393.558 426.502 393.765 427.207 394.164C427.908 394.562 428.481 395.18 428.91 396C429.341 396.823 429.559 397.853 429.559 399.064V399.064Z"></path>
<path fill="white" d="M442.138 399.75C441.723 399.27 440.914 398.861 439.957 398.643C441.273 397.992 441.941 397.065 441.941 395.887C441.95 395.276 441.77 394.676 441.426 394.17C441.061 393.656 440.56 393.253 439.979 393.006C439.298 392.716 438.564 392.574 437.824 392.589H432.701V393.278H433.107C433.285 393.291 433.453 393.368 433.58 393.494C433.706 393.62 433.783 393.787 433.796 393.965V404.164C433.794 404.253 433.773 404.34 433.736 404.421C433.699 404.502 433.646 404.575 433.58 404.635C433.52 404.701 433.447 404.755 433.366 404.792C433.284 404.829 433.196 404.849 433.107 404.851H432.664V405.54H438.226C439.028 405.549 439.825 405.404 440.573 405.114C441.243 404.861 441.83 404.426 442.268 403.859C442.684 403.308 442.895 402.635 442.895 401.856C442.911 401.085 442.641 400.335 442.138 399.75V399.75ZM435.764 404.348C435.698 404.288 435.645 404.216 435.608 404.134C435.57 404.053 435.55 403.966 435.548 403.877V399.296H438.189C439.117 399.296 439.837 399.535 440.329 400.008C440.82 400.48 441.069 401.102 441.069 401.856C441.069 402.313 440.957 402.762 440.743 403.166C440.519 403.587 440.18 403.937 439.766 404.176C439.334 404.433 438.803 404.564 438.189 404.564H436.237C436.148 404.562 436.06 404.542 435.978 404.505C435.897 404.468 435.824 404.415 435.764 404.348V404.348ZM435.548 398.319V394.252C435.55 394.163 435.57 394.075 435.607 393.994C435.644 393.913 435.698 393.84 435.764 393.781C435.824 393.715 435.897 393.662 435.979 393.625C436.06 393.588 436.148 393.567 436.237 393.565H437.492C438.395 393.565 439.065 393.789 439.483 394.23C439.902 394.672 440.115 395.248 440.115 395.942C440.115 396.661 439.918 397.244 439.529 397.674C439.141 398.102 438.549 398.319 437.769 398.319H435.548Z"></path>
<path fill="white" d="M383.019 396.717C382.268 396.321 381.433 396.114 380.584 396.114C379.735 396.114 378.899 396.321 378.149 396.717C377.423 397.115 376.821 397.706 376.41 398.424C375.988 399.201 375.768 400.071 375.768 400.955C375.768 401.838 375.988 402.708 376.41 403.485C376.821 404.204 377.423 404.794 378.149 405.193C378.899 405.589 379.735 405.795 380.584 405.795C381.433 405.795 382.268 405.589 383.019 405.193C383.745 404.794 384.347 404.204 384.758 403.485C385.179 402.708 385.4 401.838 385.4 400.955C385.4 400.071 385.179 399.201 384.758 398.424C384.347 397.706 383.745 397.115 383.019 396.717ZM383.722 400.955C383.722 402.125 383.434 403.067 382.867 403.753C382.302 404.436 381.534 404.782 380.584 404.782C379.634 404.782 378.865 404.436 378.301 403.753C377.734 403.067 377.446 402.126 377.446 400.955C377.446 399.784 377.734 398.842 378.301 398.157C378.865 397.473 379.634 397.127 380.584 397.127C381.534 397.127 382.302 397.473 382.867 398.157C383.434 398.843 383.722 399.784 383.722 400.955H383.722Z"></path>
<path fill="white" d="M416.565 396.717C415.815 396.321 414.979 396.114 414.13 396.114C413.282 396.114 412.446 396.321 411.696 396.717C410.969 397.115 410.367 397.706 409.956 398.424C409.535 399.201 409.314 400.071 409.314 400.955C409.314 401.838 409.535 402.708 409.956 403.485C410.367 404.204 410.969 404.794 411.696 405.193C412.446 405.589 413.282 405.795 414.13 405.795C414.979 405.795 415.815 405.589 416.565 405.193C417.292 404.794 417.894 404.204 418.305 403.485C418.726 402.708 418.946 401.838 418.946 400.955C418.946 400.071 418.726 399.201 418.305 398.424C417.894 397.706 417.292 397.115 416.565 396.717V396.717ZM417.268 400.955C417.268 402.125 416.981 403.067 416.414 403.753C415.849 404.436 415.081 404.782 414.13 404.782C413.18 404.782 412.412 404.436 411.847 403.753C411.28 403.067 410.993 402.126 410.993 400.955C410.993 399.784 411.28 398.842 411.847 398.157C412.412 397.473 413.18 397.127 414.13 397.127C415.081 397.127 415.849 397.473 416.414 398.157C416.981 398.843 417.268 399.784 417.268 400.955H417.268Z"></path>
<path fill="white" d="M403.024 396.114C402.303 396.106 401.589 396.272 400.945 396.597C400.346 396.896 399.837 397.35 399.473 397.911C399.121 398.454 398.936 399.086 398.939 399.732C398.931 400.294 399.072 400.848 399.347 401.339C399.615 401.807 399.985 402.207 400.431 402.511L399.076 404.348C398.994 404.46 398.944 404.592 398.933 404.729C398.921 404.867 398.948 405.006 399.011 405.129C399.073 405.253 399.169 405.356 399.287 405.429C399.405 405.501 399.541 405.539 399.68 405.539H400.069C399.707 405.775 399.402 406.088 399.175 406.455C398.936 406.838 398.808 407.28 398.805 407.73C398.805 408.545 399.166 409.216 399.877 409.726C400.584 410.232 401.572 410.489 402.814 410.489C403.647 410.495 404.476 410.355 405.261 410.075C405.968 409.833 406.6 409.415 407.098 408.859C407.561 408.331 407.811 407.649 407.799 406.948C407.799 406.172 407.514 405.617 406.845 405.091C406.273 404.642 405.382 404.405 404.268 404.405H400.465C400.461 404.405 400.457 404.404 400.453 404.402C400.449 404.399 400.446 404.396 400.444 404.392C400.442 404.388 400.441 404.384 400.441 404.38C400.441 404.375 400.443 404.371 400.445 404.367L401.432 403.036C401.666 403.144 401.911 403.226 402.163 403.281C402.416 403.329 402.672 403.351 402.929 403.349C403.672 403.361 404.408 403.195 405.075 402.867C405.68 402.568 406.195 402.114 406.566 401.552C406.923 401.012 407.113 400.379 407.11 399.732C407.11 399.028 406.772 397.747 405.838 397.094C405.84 397.087 405.845 397.088 405.846 397.088L407.895 397.317V396.382H404.621C404.107 396.204 403.568 396.114 403.024 396.114V396.114ZM404.169 402.047H404.169C403.818 402.238 403.424 402.337 403.024 402.338C402.4 402.342 401.799 402.1 401.354 401.663C400.881 401.217 400.641 400.567 400.641 399.732C400.641 398.896 400.881 398.246 401.354 397.8C401.799 397.364 402.4 397.121 403.024 397.125C403.424 397.126 403.818 397.226 404.169 397.416C404.541 397.619 404.849 397.92 405.06 398.286C405.291 398.671 405.407 399.158 405.407 399.732C405.407 400.306 405.291 400.792 405.06 401.177C404.849 401.544 404.541 401.845 404.169 402.047ZM401.587 405.539H404.165C404.88 405.539 405.336 405.678 405.641 405.988C405.793 406.146 405.911 406.332 405.989 406.537C406.068 406.741 406.104 406.958 406.096 407.177C406.104 407.504 406.033 407.828 405.89 408.122C405.746 408.416 405.535 408.671 405.272 408.867C404.722 409.298 403.979 409.516 403.063 409.516C402.26 409.516 401.603 409.339 401.109 408.99C400.621 408.645 400.374 408.131 400.374 407.463C400.37 407.055 400.49 406.654 400.719 406.316C400.934 405.984 401.234 405.717 401.587 405.539V405.539Z"></path>
<path fill="white" d="M446.592 405.556C446.407 405.452 446.254 405.3 446.148 405.116C446.043 404.929 445.988 404.719 445.988 404.505C445.988 404.291 446.043 404.08 446.148 403.894C446.254 403.71 446.407 403.558 446.592 403.454C446.788 403.348 447.007 403.292 447.23 403.292C447.453 403.292 447.672 403.348 447.868 403.454C448.053 403.558 448.207 403.71 448.312 403.894C448.417 404.08 448.472 404.291 448.472 404.505C448.472 404.719 448.417 404.929 448.312 405.116C448.207 405.3 448.053 405.452 447.868 405.556C447.672 405.662 447.453 405.717 447.23 405.717C447.007 405.717 446.788 405.662 446.592 405.556ZM447.759 405.416C447.915 405.328 448.042 405.199 448.129 405.043C448.216 404.877 448.262 404.692 448.262 404.505C448.262 404.317 448.216 404.133 448.129 403.967C448.042 403.811 447.915 403.682 447.759 403.594C447.597 403.505 447.415 403.459 447.23 403.459C447.045 403.459 446.863 403.505 446.701 403.594C446.546 403.682 446.418 403.811 446.332 403.967C446.244 404.133 446.198 404.317 446.198 404.505C446.198 404.692 446.244 404.877 446.332 405.043C446.418 405.199 446.546 405.328 446.701 405.416C446.863 405.504 447.045 405.551 447.23 405.551C447.415 405.551 447.597 405.504 447.759 405.416V405.416ZM446.716 405.084V405.001L446.733 404.988H446.789C446.808 404.987 446.825 404.979 446.838 404.966C446.851 404.953 446.858 404.936 446.859 404.918V404.038C446.858 404.02 446.851 404.003 446.838 403.99C446.825 403.977 446.808 403.97 446.789 403.968H446.733L446.716 403.955V403.872L446.733 403.859H447.227C447.345 403.852 447.463 403.885 447.561 403.952C447.602 403.983 447.634 404.023 447.656 404.07C447.677 404.116 447.687 404.167 447.684 404.218C447.685 404.261 447.677 404.304 447.66 404.344C447.644 404.383 447.62 404.42 447.589 404.45C447.525 404.516 447.439 404.558 447.347 404.568L447.461 404.601L447.681 404.948C447.687 404.959 447.696 404.969 447.707 404.976C447.719 404.983 447.731 404.987 447.744 404.988H447.801L447.815 405.001V405.084L447.801 405.098H447.511L447.491 405.084L447.183 404.575H447.11V404.918C447.111 404.936 447.119 404.953 447.132 404.966C447.145 404.979 447.162 404.987 447.18 404.988H447.237L447.254 405.001V405.084L447.237 405.098H446.733L446.716 405.084ZM447.193 404.465C447.226 404.467 447.259 404.462 447.29 404.452C447.321 404.441 447.35 404.424 447.374 404.402C447.396 404.377 447.413 404.348 447.424 404.316C447.435 404.285 447.439 404.252 447.437 404.218C447.441 404.152 447.419 404.088 447.377 404.037C447.357 404.014 447.332 403.996 447.305 403.985C447.277 403.973 447.247 403.967 447.217 403.968H447.18C447.162 403.97 447.145 403.977 447.132 403.99C447.119 404.003 447.111 404.02 447.11 404.038V404.465H447.193Z"></path>
<path fill="white" d="M84.5873 402.032C84.3343 402.444 84.3382 402.964 84.5974 403.372L89.2889 410.761C89.5933 411.24 90.1802 411.459 90.725 411.296L104.263 407.241C105.002 407.02 105.374 406.197 105.051 405.497L96.3478 386.648C95.9234 385.729 94.6439 385.653 94.114 386.516L84.5873 402.032ZM96.1166 390.957C95.9316 390.53 95.3052 390.596 95.2134 391.052L91.8628 407.709C91.7921 408.06 92.1215 408.36 92.4653 408.258L101.819 405.47C102.092 405.389 102.233 405.088 102.12 404.827L96.1166 390.957Z" clip-rule="evenodd" fill-rule="evenodd"></path>
<path fill="white" d="M113.277 398.585H114.102C114.873 398.585 115.449 398.433 115.832 398.129C116.215 397.825 116.406 397.382 116.406 396.801C116.406 396.215 116.246 395.781 115.925 395.501C115.604 395.221 115.102 395.082 114.417 395.082H113.277V398.585ZM118.936 396.711C118.936 397.981 118.539 398.952 117.744 399.624C116.949 400.297 115.819 400.633 114.353 400.633H113.278V404.83H110.772V393.031H114.547C115.981 393.031 117.07 393.339 117.817 393.954C118.563 394.571 118.936 395.489 118.936 396.711Z" clip-rule="evenodd" fill-rule="evenodd"></path>
<path fill="white" d="M125.58 395.636C125.914 395.636 126.192 395.66 126.412 395.709L126.227 398.016C126.027 397.963 125.785 397.936 125.499 397.936C124.712 397.936 124.1 398.138 123.66 398.541C123.221 398.945 123.002 399.51 123.002 400.236V404.828H120.536V395.806H122.403L122.767 397.323H122.888C123.169 396.817 123.547 396.409 124.024 396.1C124.501 395.791 125.019 395.636 125.58 395.636" clip-rule="evenodd" fill-rule="evenodd"></path>
<path fill="white" d="M127.713 404.828H130.178V395.806H127.713V404.828ZM127.608 393.473C127.608 392.671 128.056 392.271 128.95 392.271C129.844 392.271 130.292 392.671 130.292 393.473C130.292 393.855 130.18 394.152 129.957 394.365C129.733 394.578 129.397 394.684 128.95 394.684C128.056 394.684 127.608 394.28 127.608 393.473Z" clip-rule="evenodd" fill-rule="evenodd"></path>
<path fill="white" d="M138.867 402.149C138.867 403.074 138.545 403.779 137.901 404.263C137.257 404.747 136.294 404.989 135.012 404.989C134.354 404.989 133.794 404.945 133.331 404.856C132.867 404.767 132.434 404.637 132.029 404.465V402.431C132.488 402.646 133.003 402.826 133.577 402.972C134.151 403.117 134.656 403.189 135.093 403.189C135.987 403.189 136.435 402.931 136.435 402.415C136.435 402.221 136.375 402.064 136.257 401.943C136.138 401.822 135.933 401.685 135.642 401.531C135.352 401.378 134.963 401.199 134.478 400.994C133.784 400.704 133.273 400.435 132.947 400.187C132.621 399.94 132.384 399.656 132.236 399.336C132.087 399.016 132.013 398.622 132.013 398.154C132.013 397.352 132.324 396.732 132.947 396.294C133.569 395.855 134.451 395.636 135.594 395.636C136.682 395.636 137.741 395.873 138.77 396.346L138.027 398.122C137.574 397.928 137.151 397.769 136.758 397.645C136.364 397.522 135.963 397.46 135.554 397.46C134.826 397.46 134.462 397.656 134.462 398.049C134.462 398.27 134.58 398.461 134.814 398.622C135.048 398.783 135.562 399.023 136.354 399.34C137.06 399.626 137.577 399.892 137.906 400.139C138.234 400.387 138.477 400.672 138.633 400.994C138.79 401.317 138.867 401.702 138.867 402.149" clip-rule="evenodd" fill-rule="evenodd"></path>
<path fill="white" d="M148.631 404.829H146.165V399.559C146.165 398.908 146.056 398.419 145.838 398.094C145.619 397.768 145.276 397.605 144.807 397.605C144.177 397.605 143.719 397.837 143.433 398.3C143.147 398.762 143.004 399.524 143.004 400.584V404.829H140.539V395.806H142.422L142.754 396.96H142.891C143.134 396.546 143.484 396.221 143.942 395.987C144.4 395.753 144.926 395.636 145.519 395.636C146.871 395.636 147.787 396.078 148.267 396.96H148.485C148.728 396.54 149.085 396.215 149.556 395.983C150.028 395.752 150.56 395.636 151.153 395.636C152.176 395.636 152.951 395.899 153.477 396.423C154.002 396.948 154.265 397.788 154.265 398.945V404.829H151.791V399.559C151.791 398.908 151.682 398.419 151.464 398.094C151.245 397.768 150.902 397.605 150.433 397.605C149.83 397.605 149.378 397.821 149.079 398.251C148.78 398.682 148.631 399.365 148.631 400.301V404.829Z" clip-rule="evenodd" fill-rule="evenodd"></path>
<path fill="white" d="M161.438 400.646L160.485 400.678C159.768 400.7 159.234 400.829 158.884 401.066C158.533 401.303 158.358 401.663 158.358 402.147C158.358 402.841 158.757 403.188 159.555 403.188C160.126 403.188 160.583 403.024 160.925 402.696C161.267 402.368 161.438 401.932 161.438 401.388V400.646ZM162.166 404.826L161.689 403.599H161.624C161.209 404.121 160.782 404.483 160.343 404.684C159.904 404.886 159.332 404.987 158.626 404.987C157.758 404.987 157.075 404.74 156.577 404.245C156.078 403.75 155.829 403.045 155.829 402.13C155.829 401.173 156.165 400.467 156.835 400.012C157.507 399.557 158.518 399.306 159.871 399.257L161.439 399.209V398.813C161.439 397.899 160.97 397.442 160.032 397.442C159.31 397.442 158.461 397.659 157.486 398.095L156.67 396.433C157.71 395.89 158.863 395.618 160.129 395.618C161.341 395.618 162.271 395.882 162.918 396.409C163.564 396.936 163.888 397.737 163.888 398.813V404.826H162.166Z" clip-rule="evenodd" fill-rule="evenodd"></path>
<path fill="white" d="M227.252 399.431H224.832V404.105C224.832 405.358 225.661 405.335 227.252 405.268V407.169C224.004 407.549 222.727 406.655 222.727 404.127V399.453H220.935V397.418H222.727V394.801L224.832 394.175V397.418H227.252V399.431ZM236.48 397.396H238.586V407.147H236.48V405.738C235.741 406.767 234.576 407.393 233.053 407.393C230.388 407.393 228.192 405.156 228.192 402.271C228.192 399.364 230.41 397.15 233.053 397.15C234.576 397.15 235.741 397.776 236.48 398.782V397.396V397.396ZM233.389 405.402C235.159 405.402 236.48 404.105 236.48 402.271C236.48 400.46 235.159 399.14 233.389 399.14C231.642 399.14 230.298 400.437 230.298 402.271C230.298 404.105 231.642 405.402 233.389 405.402ZM242.103 395.942C241.364 395.942 240.759 395.316 240.759 394.6C240.759 393.862 241.364 393.258 242.103 393.258C242.842 393.258 243.447 393.862 243.447 394.6C243.469 395.316 242.842 395.942 242.103 395.942ZM241.05 407.147V397.396H243.156V407.147H241.05ZM245.597 407.147V392.9H247.703V407.147H245.597ZM261.412 397.396H263.629L260.561 407.147H258.5L256.461 400.571L254.401 407.147H252.34L249.271 397.396H251.488L253.393 404.127L255.453 397.396H257.469L259.508 404.127L261.412 397.396ZM266.273 395.942C265.533 395.942 264.929 395.316 264.929 394.6C264.929 393.862 265.533 393.258 266.273 393.258C267.012 393.258 267.617 393.862 267.617 394.6C267.617 395.316 267.012 395.942 266.273 395.942ZM265.197 407.147V397.396H267.303V407.147H265.197ZM274.897 397.15C277.092 397.15 278.66 398.626 278.66 401.175V407.169H276.554V401.377C276.554 399.901 275.703 399.118 274.359 399.118C272.97 399.118 271.873 399.945 271.873 401.936V407.169H269.767V397.418H271.873V398.67C272.522 397.642 273.575 397.15 274.897 397.15ZM288.65 393.504H290.756V407.169H288.65V405.76C287.911 406.789 286.746 407.415 285.223 407.415C282.557 407.415 280.362 405.179 280.362 402.294C280.362 399.386 282.58 397.172 285.223 397.172C286.746 397.172 287.911 397.798 288.65 398.805V393.504ZM285.581 405.402C287.351 405.402 288.673 404.105 288.673 402.271C288.673 400.46 287.351 399.14 285.581 399.14C283.834 399.14 282.49 400.437 282.49 402.271C282.49 404.105 283.812 405.402 285.581 405.402ZM297.834 407.415C294.878 407.415 292.682 405.179 292.682 402.294C292.682 399.386 294.9 397.172 297.834 397.172C299.761 397.172 301.418 398.156 302.202 399.699L300.388 400.75C299.962 399.833 298.999 399.252 297.834 399.252C296.11 399.252 294.81 400.549 294.81 402.316C294.81 404.083 296.11 405.38 297.834 405.38C298.999 405.38 299.962 404.776 300.433 403.881L302.247 404.91C301.418 406.409 299.761 407.415 297.834 407.415ZM305.719 400.102C305.719 401.869 310.983 400.795 310.983 404.418C310.983 406.364 309.281 407.415 307.175 407.415C305.226 407.415 303.815 406.543 303.188 405.134L305.002 404.083C305.316 404.955 306.1 405.492 307.175 405.492C308.116 405.492 308.833 405.179 308.833 404.396C308.833 402.651 303.569 403.635 303.569 400.147C303.569 398.313 305.159 397.172 307.153 397.172C308.766 397.172 310.087 397.91 310.759 399.207L308.99 400.191C308.631 399.431 307.959 399.073 307.153 399.073C306.391 399.051 305.719 399.386 305.719 400.102ZM314.724 400.102C314.724 401.869 319.988 400.795 319.988 404.418C319.988 406.364 318.286 407.415 316.18 407.415C314.231 407.415 312.82 406.543 312.193 405.134L314.007 404.083C314.321 404.955 315.105 405.492 316.18 405.492C317.121 405.492 317.838 405.179 317.838 404.396C317.838 402.651 312.574 403.635 312.574 400.147C312.574 398.313 314.164 397.172 316.158 397.172C317.771 397.172 319.092 397.91 319.764 399.207L317.995 400.191C317.636 399.431 316.964 399.073 316.158 399.073C315.396 399.051 314.724 399.386 314.724 400.102Z" clip-rule="evenodd" fill-rule="evenodd"></path>
<path fill="white" d="M199.475 392.429C195.779 392.429 193.449 394.285 192.531 397.976C193.92 396.119 195.532 395.426 197.392 395.896C198.444 396.164 199.206 396.925 200.035 397.774C201.401 399.161 202.969 400.749 206.419 400.749C210.115 400.749 212.445 398.893 213.363 395.202C211.974 397.059 210.361 397.752 208.502 397.282C207.449 397.014 206.688 396.254 205.859 395.404C204.493 394.017 202.924 392.429 199.475 392.429ZM192.531 400.727C188.835 400.727 186.505 402.583 185.587 406.273C186.975 404.417 188.588 403.724 190.447 404.193C191.5 404.462 192.262 405.222 193.091 406.072C194.457 407.459 196.025 409.046 199.475 409.046C203.171 409.046 205.501 407.19 206.419 403.5C205.03 405.356 203.417 406.05 201.558 405.58C200.505 405.311 199.744 404.551 198.915 403.701C197.548 402.337 195.98 400.727 192.531 400.727Z" clip-rule="evenodd" fill-rule="evenodd"></path>
<path fill="white" d="M483.878 401.766C484.026 403.653 484.026 404.537 484.026 405.503H479.652C479.652 405.292 479.656 405.1 479.66 404.905C479.672 404.298 479.684 403.666 479.586 402.389C479.455 400.519 478.649 400.104 477.166 400.104H475.852H470.287V396.701H477.374C479.247 396.701 480.184 396.133 480.184 394.626C480.184 393.302 479.247 392.499 477.374 392.499H470.287V389.17H478.155C482.395 389.17 484.503 391.17 484.503 394.364C484.503 396.753 483.02 398.312 481.016 398.571C482.708 398.909 483.696 399.87 483.878 401.766Z" clip-rule="evenodd" fill-rule="evenodd"></path>
<path fill="white" d="M470.287 405.503V402.967H474.911C475.684 402.967 475.851 403.538 475.851 403.879V405.503H470.287Z"></path>
<path fill="white" d="M536.807 393.949H532.463L530.485 396.702L528.56 393.949H523.903L528.091 399.637L523.538 405.532H527.883L530.199 402.39L532.515 405.532H537.172L532.593 399.455L536.807 393.949Z"></path>
<path fill="white" d="M493.605 401.402C493.214 402.311 492.486 402.7 491.341 402.7C490.066 402.7 489.025 402.025 488.921 400.597H497.065V399.428C497.065 396.286 495.01 393.637 491.133 393.637C487.516 393.637 484.811 396.26 484.811 399.921C484.811 403.609 487.464 405.843 491.185 405.843C494.255 405.843 496.389 404.362 496.987 401.713L493.605 401.402ZM488.973 398.571C489.13 397.48 489.728 396.649 491.081 396.649C492.33 396.649 493.006 397.532 493.058 398.571H488.973Z"></path>
<path fill="white" d="M509.44 395.922C508.945 394.571 507.879 393.636 505.823 393.636C504.08 393.636 502.831 394.416 502.207 395.688V393.948H497.992V405.53H502.207V399.843C502.207 398.103 502.701 396.961 504.08 396.961C505.355 396.961 505.667 397.792 505.667 399.376V405.53H509.882V399.843C509.882 398.103 510.35 396.961 511.755 396.961C513.03 396.961 513.316 397.792 513.316 399.376V405.53H517.531V398.259C517.531 395.844 516.594 393.636 513.394 393.636C511.443 393.636 510.064 394.623 509.44 395.922Z"></path>
<path fill="white" d="M518.909 393.948V405.531H523.124V393.948H518.909ZM518.883 392.858H523.15V389.17H518.883V392.858Z"></path>
<path stroke-width="1.75556" stroke="#68D391" d="M146.589 68.4669H406.411C412.471 68.4669 417.384 73.3793 417.384 79.4391V120.695C417.384 126.754 412.471 131.667 406.411 131.667H146.589V68.4669Z"></path>
<path fill="white" d="M178.351 111.199C177.021 111.199 175.84 110.941 174.806 110.424C173.791 109.889 172.997 109.141 172.425 108.181C171.871 107.203 171.594 106.086 171.594 104.831V97.6596C171.594 96.4044 171.871 95.3061 172.425 94.3647C172.997 93.4048 173.791 92.6664 174.806 92.1496C175.84 91.6142 177.021 91.3466 178.351 91.3466C179.68 91.3466 180.852 91.605 181.867 92.1219C182.882 92.6203 183.667 93.3309 184.221 94.2539C184.793 95.1769 185.079 96.2475 185.079 97.4658V97.4935C185.079 97.5858 185.051 97.6596 184.996 97.715C184.94 97.7704 184.876 97.7981 184.802 97.7981L182.698 97.9088C182.513 97.9088 182.421 97.8257 182.421 97.6596V97.5765C182.421 96.3952 182.052 95.4445 181.313 94.7246C180.575 94.0047 179.587 93.6447 178.351 93.6447C177.114 93.6447 176.117 94.0047 175.36 94.7246C174.622 95.4445 174.253 96.3952 174.253 97.5765V104.942C174.253 106.123 174.622 107.074 175.36 107.794C176.117 108.514 177.114 108.874 178.351 108.874C179.587 108.874 180.575 108.514 181.313 107.794C182.052 107.074 182.421 106.123 182.421 104.942V104.886C182.421 104.72 182.513 104.637 182.698 104.637L184.802 104.748C184.987 104.748 185.079 104.84 185.079 105.025C185.079 106.243 184.793 107.323 184.221 108.264C183.667 109.187 182.882 109.907 181.867 110.424C180.852 110.941 179.68 111.199 178.351 111.199ZM195.252 111.199C193.905 111.199 192.714 110.923 191.68 110.369C190.647 109.815 189.844 109.04 189.272 108.043C188.699 107.028 188.413 105.865 188.413 104.554V97.9642C188.413 96.6536 188.699 95.4999 189.272 94.5031C189.844 93.5063 190.647 92.731 191.68 92.1772C192.714 91.6235 193.905 91.3466 195.252 91.3466C196.618 91.3466 197.818 91.6235 198.852 92.1772C199.886 92.731 200.689 93.5063 201.261 94.5031C201.833 95.4999 202.119 96.6536 202.119 97.9642V104.554C202.119 105.865 201.833 107.028 201.261 108.043C200.689 109.04 199.886 109.815 198.852 110.369C197.818 110.923 196.618 111.199 195.252 111.199ZM195.252 108.901C196.508 108.901 197.523 108.514 198.298 107.738C199.073 106.963 199.461 105.939 199.461 104.665V97.9365C199.461 96.6444 199.073 95.6106 198.298 94.8354C197.523 94.0416 196.508 93.6447 195.252 93.6447C193.997 93.6447 192.982 94.0416 192.207 94.8354C191.45 95.6106 191.071 96.6444 191.071 97.9365V104.665C191.071 105.939 191.45 106.963 192.207 107.738C192.982 108.514 193.997 108.901 195.252 108.901ZM212.781 111.172C211.434 111.172 210.243 110.913 209.209 110.396C208.194 109.861 207.4 109.114 206.828 108.154C206.256 107.175 205.97 106.059 205.97 104.803V91.845C205.97 91.6604 206.062 91.5681 206.247 91.5681H208.351C208.536 91.5681 208.628 91.6604 208.628 91.845V104.859C208.628 106.059 209.006 107.028 209.763 107.766C210.538 108.504 211.544 108.874 212.781 108.874C214.018 108.874 215.015 108.504 215.772 107.766C216.528 107.028 216.907 106.059 216.907 104.859V91.845C216.907 91.6604 216.999 91.5681 217.184 91.5681H219.288C219.473 91.5681 219.565 91.6604 219.565 91.845V104.803C219.565 106.059 219.279 107.175 218.707 108.154C218.153 109.114 217.359 109.861 216.325 110.396C215.31 110.913 214.129 111.172 212.781 111.172ZM234.95 110.95C234.802 110.95 234.7 110.886 234.645 110.756L230.769 102.477C230.75 102.422 230.713 102.394 230.658 102.394H226.671C226.597 102.394 226.56 102.431 226.56 102.505V110.673C226.56 110.858 226.468 110.95 226.283 110.95H224.179C223.994 110.95 223.902 110.858 223.902 110.673V91.845C223.902 91.6604 223.994 91.5681 224.179 91.5681H231.627C232.734 91.5681 233.704 91.7988 234.534 92.2603C235.383 92.7218 236.039 93.3679 236.5 94.1985C236.962 95.0292 237.192 95.9891 237.192 97.0781C237.192 98.3703 236.851 99.4686 236.168 100.373C235.503 101.259 234.571 101.859 233.371 102.173C233.297 102.21 233.279 102.256 233.316 102.311L237.331 110.618C237.349 110.655 237.358 110.701 237.358 110.756C237.358 110.886 237.285 110.95 237.137 110.95H234.95ZM226.671 93.8663C226.597 93.8663 226.56 93.9032 226.56 93.977V100.179C226.56 100.253 226.597 100.29 226.671 100.29H231.295C232.273 100.29 233.057 100.004 233.648 99.4317C234.239 98.841 234.534 98.0657 234.534 97.1058C234.534 96.1275 234.239 95.343 233.648 94.7523C233.057 94.1616 232.273 93.8663 231.295 93.8663H226.671ZM246.863 111.172C245.442 111.172 244.205 110.95 243.153 110.507C242.119 110.064 241.316 109.437 240.744 108.624C240.19 107.812 239.914 106.861 239.914 105.772V104.969C239.914 104.785 240.006 104.693 240.19 104.693H242.212C242.396 104.693 242.489 104.785 242.489 104.969V105.634C242.489 106.575 242.895 107.351 243.707 107.96C244.519 108.569 245.636 108.874 247.057 108.874C248.331 108.874 249.291 108.606 249.937 108.071C250.583 107.535 250.906 106.834 250.906 105.966C250.906 105.394 250.74 104.905 250.408 104.499C250.075 104.093 249.586 103.723 248.94 103.391C248.313 103.04 247.39 102.625 246.171 102.145C244.824 101.628 243.753 101.158 242.959 100.733C242.184 100.308 241.538 99.7547 241.021 99.0717C240.504 98.3703 240.246 97.4935 240.246 96.4413C240.246 94.8538 240.809 93.6078 241.935 92.7033C243.079 91.7988 244.621 91.3466 246.559 91.3466C247.925 91.3466 249.125 91.5773 250.158 92.0388C251.192 92.5003 251.986 93.1463 252.54 93.977C253.112 94.8077 253.398 95.7675 253.398 96.8566V97.4104C253.398 97.595 253.306 97.6873 253.121 97.6873H251.044C250.86 97.6873 250.768 97.595 250.768 97.4104V96.9951C250.768 96.0352 250.38 95.2415 249.605 94.6138C248.848 93.9678 247.796 93.6447 246.448 93.6447C245.304 93.6447 244.418 93.8847 243.79 94.3647C243.162 94.8261 242.849 95.4999 242.849 96.3859C242.849 96.9951 243.005 97.4935 243.319 97.8811C243.633 98.2688 244.095 98.6195 244.704 98.9333C245.331 99.2286 246.282 99.6163 247.556 100.096C248.866 100.613 249.928 101.093 250.74 101.536C251.552 101.961 252.226 102.533 252.761 103.253C253.296 103.954 253.564 104.831 253.564 105.883C253.564 107.508 252.964 108.8 251.764 109.76C250.583 110.701 248.949 111.172 246.863 111.172ZM270.036 93.5894C270.036 93.774 269.944 93.8663 269.759 93.8663H259.93C259.856 93.8663 259.819 93.9032 259.819 93.977V99.9301C259.819 100.004 259.856 100.041 259.93 100.041H266.686C266.87 100.041 266.962 100.133 266.962 100.318V102.062C266.962 102.247 266.87 102.339 266.686 102.339H259.93C259.856 102.339 259.819 102.376 259.819 102.45V108.541C259.819 108.615 259.856 108.652 259.93 108.652H269.759C269.944 108.652 270.036 108.744 270.036 108.929V110.673C270.036 110.858 269.944 110.95 269.759 110.95H257.438C257.253 110.95 257.161 110.858 257.161 110.673V91.845C257.161 91.6604 257.253 91.5681 257.438 91.5681H269.759C269.944 91.5681 270.036 91.6604 270.036 91.845V93.5894ZM292.382 91.5404C293.508 91.5404 294.496 91.7804 295.345 92.2603C296.212 92.7218 296.877 93.3771 297.338 94.2262C297.818 95.0753 298.058 96.0537 298.058 97.1612C298.058 98.2688 297.818 99.2379 297.338 100.069C296.858 100.899 296.175 101.545 295.289 102.007C294.422 102.468 293.416 102.699 292.271 102.699H287.398C287.324 102.699 287.287 102.736 287.287 102.81V110.673C287.287 110.858 287.195 110.95 287.01 110.95H284.906C284.721 110.95 284.629 110.858 284.629 110.673V91.8173C284.629 91.6327 284.721 91.5404 284.906 91.5404H292.382ZM292.022 100.539C293.037 100.539 293.849 100.235 294.459 99.6255C295.086 99.0164 295.4 98.2134 295.4 97.2166C295.4 96.2013 295.086 95.3891 294.459 94.78C293.849 94.1524 293.037 93.8386 292.022 93.8386H287.398C287.324 93.8386 287.287 93.8755 287.287 93.9493V100.428C287.287 100.502 287.324 100.539 287.398 100.539H292.022ZM312.003 110.95C311.837 110.95 311.726 110.876 311.67 110.729L310.674 107.489C310.655 107.434 310.618 107.406 310.563 107.406H302.782C302.727 107.406 302.69 107.434 302.672 107.489L301.675 110.729C301.619 110.876 301.509 110.95 301.343 110.95H299.1C298.897 110.95 298.823 110.849 298.878 110.646L304.942 91.7896C304.997 91.6419 305.108 91.5681 305.274 91.5681H308.043C308.209 91.5681 308.32 91.6419 308.375 91.7896L314.495 110.646L314.522 110.756C314.522 110.886 314.439 110.95 314.273 110.95H312.003ZM303.364 105.163C303.345 105.2 303.345 105.237 303.364 105.274C303.401 105.292 303.438 105.302 303.475 105.302H309.843C309.88 105.302 309.908 105.292 309.926 105.274C309.963 105.237 309.972 105.2 309.954 105.163L306.742 94.8907C306.723 94.8538 306.696 94.8354 306.659 94.8354C306.622 94.8354 306.594 94.8538 306.576 94.8907L303.364 105.163ZM328.723 110.95C328.576 110.95 328.474 110.886 328.419 110.756L324.542 102.477C324.524 102.422 324.487 102.394 324.432 102.394H320.444C320.371 102.394 320.334 102.431 320.334 102.505V110.673C320.334 110.858 320.241 110.95 320.057 110.95H317.953C317.768 110.95 317.676 110.858 317.676 110.673V91.845C317.676 91.6604 317.768 91.5681 317.953 91.5681H325.401C326.508 91.5681 327.477 91.7988 328.308 92.2603C329.157 92.7218 329.813 93.3679 330.274 94.1985C330.735 95.0292 330.966 95.9891 330.966 97.0781C330.966 98.3703 330.625 99.4686 329.942 100.373C329.277 101.259 328.345 101.859 327.145 102.173C327.071 102.21 327.053 102.256 327.09 102.311L331.105 110.618C331.123 110.655 331.132 110.701 331.132 110.756C331.132 110.886 331.059 110.95 330.911 110.95H328.723ZM320.444 93.8663C320.371 93.8663 320.334 93.9032 320.334 93.977V100.179C320.334 100.253 320.371 100.29 320.444 100.29H325.069C326.047 100.29 326.831 100.004 327.422 99.4317C328.013 98.841 328.308 98.0657 328.308 97.1058C328.308 96.1275 328.013 95.343 327.422 94.7523C326.831 94.1616 326.047 93.8663 325.069 93.8663H320.444ZM346.951 91.5681C347.136 91.5681 347.228 91.6604 347.228 91.845V93.6171C347.228 93.8016 347.136 93.8939 346.951 93.8939H341.635C341.561 93.8939 341.524 93.9309 341.524 94.0047V110.673C341.524 110.858 341.432 110.95 341.247 110.95H339.143C338.958 110.95 338.866 110.858 338.866 110.673V94.0047C338.866 93.9309 338.829 93.8939 338.755 93.8939H333.688C333.504 93.8939 333.411 93.8016 333.411 93.6171V91.845C333.411 91.6604 333.504 91.5681 333.688 91.5681H346.951ZM358.758 108.514C358.739 108.551 358.739 108.587 358.758 108.624C358.776 108.643 358.804 108.652 358.841 108.652H367.175C367.36 108.652 367.452 108.744 367.452 108.929V110.673C367.452 110.858 367.36 110.95 367.175 110.95H355.574C355.389 110.95 355.297 110.858 355.297 110.673V108.984C355.297 108.855 355.343 108.744 355.435 108.652C356.063 107.932 357.503 106.243 359.755 103.585L361.665 101.287C363.382 99.2379 364.24 97.6504 364.24 96.5244C364.24 95.6568 363.945 94.9646 363.354 94.4477C362.782 93.9124 362.016 93.6447 361.056 93.6447C360.096 93.6447 359.33 93.9124 358.758 94.4477C358.186 94.983 357.909 95.6845 357.927 96.5521V97.3827C357.927 97.5673 357.835 97.6596 357.65 97.6596H355.518C355.334 97.6596 355.241 97.5673 355.241 97.3827V96.1921C355.278 95.2322 355.546 94.3831 356.044 93.6447C356.561 92.9064 357.253 92.3434 358.121 91.9557C358.989 91.5496 359.967 91.3466 361.056 91.3466C362.237 91.3466 363.271 91.5681 364.157 92.0111C365.043 92.4541 365.726 93.0633 366.206 93.8386C366.686 94.6138 366.926 95.4907 366.926 96.469C366.926 98.0011 366.095 99.8101 364.434 101.896C363.696 102.837 362.819 103.899 361.804 105.08C360.788 106.243 359.773 107.388 358.758 108.514ZM369.887 110.95C369.684 110.95 369.61 110.849 369.666 110.646L376.173 91.7896C376.228 91.6419 376.339 91.5681 376.505 91.5681H378.582C378.785 91.5681 378.858 91.6696 378.803 91.8727L372.296 110.729C372.241 110.876 372.13 110.95 371.964 110.95H369.887ZM393.61 102.367C393.813 103.179 393.915 104.019 393.915 104.886C393.915 105.754 393.804 106.557 393.583 107.295C393.232 108.477 392.558 109.418 391.561 110.12C390.583 110.803 389.411 111.144 388.045 111.144C386.697 111.144 385.544 110.812 384.584 110.147C383.624 109.483 382.95 108.578 382.563 107.434C382.378 106.917 382.277 106.465 382.258 106.077V106.022C382.258 105.874 382.341 105.8 382.507 105.8H384.695C384.861 105.8 384.953 105.883 384.972 106.049C384.99 106.179 385.036 106.372 385.11 106.631C385.313 107.314 385.664 107.858 386.162 108.264C386.679 108.652 387.297 108.846 388.017 108.846C388.774 108.846 389.411 108.643 389.928 108.237C390.463 107.812 390.823 107.231 391.008 106.492C391.137 106.105 391.202 105.569 391.202 104.886C391.202 104.277 391.146 103.714 391.035 103.197C390.906 102.496 390.574 101.961 390.039 101.591C389.522 101.204 388.876 101.01 388.1 101.01C387.38 101.01 386.734 101.176 386.162 101.508C385.59 101.822 385.221 102.247 385.055 102.782C384.999 102.948 384.898 103.031 384.75 103.031H382.535C382.35 103.031 382.258 102.939 382.258 102.754V91.845C382.258 91.6604 382.35 91.5681 382.535 91.5681H392.891C393.075 91.5681 393.167 91.6604 393.167 91.845V93.5894C393.167 93.774 393.075 93.8663 392.891 93.8663H385.027C384.953 93.8663 384.916 93.9032 384.916 93.977L384.888 99.764C384.888 99.8747 384.935 99.9024 385.027 99.847C385.47 99.4594 385.978 99.1733 386.55 98.9887C387.141 98.7856 387.759 98.6841 388.405 98.6841C389.697 98.6841 390.805 99.0071 391.728 99.6532C392.669 100.299 393.297 101.204 393.61 102.367Z"></path>
<path fill="#68D391" d="M85.1447 79.4394C85.1447 72.8948 90.4501 67.5894 96.9947 67.5894H150.1V132.545H96.9947C90.4501 132.545 85.1447 127.239 85.1447 120.695V79.4394Z"></path>
<path fill="#434190" d="M101.849 106.185C101.436 106.857 101.443 107.706 101.866 108.372L109.522 120.43C110.019 121.213 110.976 121.569 111.865 121.303L133.959 114.686C135.165 114.324 135.772 112.982 135.245 111.84L121.042 81.0793C120.349 79.5791 118.261 79.456 117.396 80.8643L101.849 106.185ZM120.664 88.1115C120.362 87.4141 119.34 87.5215 119.19 88.2664L113.722 115.45C113.607 116.023 114.144 116.513 114.705 116.345L129.971 111.796C130.416 111.663 130.646 111.172 130.461 110.745L120.664 88.1115Z" clip-rule="evenodd" fill-rule="evenodd"></path>
<path fill="url(#paint2_linear_7080_3093)" d="M775.106 400.846L912.163 325.292L1046.93 400.846L912.163 477.511L775.106 400.846Z"></path>
<path stroke-width="2.45727" stroke="#434190" fill="url(#paint3_linear_7080_3093)" d="M714.723 307.087L912.198 199.22L1106.37 307.087L912.198 416.54L714.723 307.087Z"></path>
<path stroke-width="2.45727" stroke="#434190" fill="url(#paint4_linear_7080_3093)" d="M654.532 202.529L913.102 67.8896L1167.34 202.529L913.102 339.148L654.532 202.529Z"></path>
<path stroke-width="2.45727" stroke="#434190" fill="url(#paint5_linear_7080_3093)" d="M602.156 89.4463L910.39 -61.8774L1213.46 89.4463L910.39 242.995L602.156 89.4463Z"></path>
</g>
<defs>
<linearGradient gradientUnits="userSpaceOnUse" y2="-31.9988" x2="123.302" y1="646.857" x1="1308.34" id="paint0_linear_7080_3093">
<stop stop-opacity="0.1" stop-color="white"></stop>
<stop stop-opacity="0" stop-color="white" offset="0.972576"></stop>
</linearGradient>
<linearGradient gradientUnits="userSpaceOnUse" y2="164.03" x2="935.5" y1="1069" x1="935.5" id="paint1_linear_7080_3093">
<stop stop-opacity="0" stop-color="#434190"></stop>
<stop stop-color="#434190" offset="0.741935"></stop>
</linearGradient>
<linearGradient gradientUnits="userSpaceOnUse" y2="477.511" x2="911.016" y1="325.292" x1="911.016" id="paint2_linear_7080_3093">
<stop stop-opacity="0" stop-color="white" offset="0.183968"></stop>
<stop stop-color="white" offset="1"></stop>
</linearGradient>
<linearGradient gradientUnits="userSpaceOnUse" y2="416.54" x2="910.546" y1="199.22" x1="910.546" id="paint3_linear_7080_3093">
<stop stop-opacity="0" stop-color="white" offset="0.173551"></stop>
<stop stop-opacity="0.6" stop-color="white" offset="1"></stop>
</linearGradient>
<linearGradient gradientUnits="userSpaceOnUse" y2="339.148" x2="910.938" y1="67.8896" x1="910.938" id="paint4_linear_7080_3093">
<stop stop-color="#EBF4FF"></stop>
<stop stop-opacity="0.5" stop-color="#A3BFFA" offset="0.512099"></stop>
<stop stop-opacity="0.2" stop-color="#EBF4FF" offset="1"></stop>
</linearGradient>
<linearGradient gradientUnits="userSpaceOnUse" y2="242.995" x2="907.81" y1="-61.8774" x1="907.81" id="paint5_linear_7080_3093">
<stop stop-color="#68D391"></stop>
<stop stop-opacity="0.6" stop-color="#C3DAFE" offset="0.512099"></stop>
<stop stop-color="#A3BFFA" offset="1"></stop>
</linearGradient>
<clipPath id="clip0_7080_3093">
<rect fill="white" height="474" width="844"></rect>
</clipPath>
</defs>
</svg>
