<svg xmlns="http://www.w3.org/2000/svg" fill="none" viewBox="0 0 844 474" height="474" width="844">
<g clip-path="url(#clip0_7080_3978)">
<rect fill="#434190" height="474" width="844"></rect>
<path fill="url(#paint0_linear_7080_3978)" d="M245.286 -29.6841C245.571 -29.8488 245.922 -29.8488 246.208 -29.6841L273.389 -13.9908L300.042 1.39706L353.875 -29.6835C354.16 -29.8482 354.512 -29.8482 354.797 -29.6835L381.978 -13.9903L408.631 1.39741L462.464 -29.6835C462.75 -29.8482 463.101 -29.8482 463.386 -29.6835L490.568 -13.9903L517.22 1.39727L571.053 -29.6835C571.339 -29.8482 571.69 -29.8482 571.976 -29.6835L599.157 -13.9903L625.81 1.39755L679.643 -29.6835C679.929 -29.8482 680.28 -29.8482 680.566 -29.6835L707.747 -13.9903L734.399 1.39729L788.233 -29.6835C788.518 -29.8482 788.869 -29.8482 789.155 -29.6835L816.336 -13.9903L843.518 1.703C843.803 1.86771 843.979 2.17211 843.979 2.50153C843.979 2.83095 843.803 3.13535 843.518 3.30006L790.516 33.9004L816.336 48.8075L843.518 64.5007C843.803 64.6654 843.979 64.9698 843.979 65.2993C843.979 65.6287 843.803 65.9331 843.518 66.0978L790.521 96.6954L816.337 111.6L843.519 127.294C843.804 127.458 843.98 127.763 843.98 128.092C843.98 128.422 843.804 128.726 843.519 128.891L790.511 159.494L816.336 174.404L843.518 190.098C843.803 190.262 843.979 190.567 843.979 190.896C843.979 191.226 843.803 191.53 843.518 191.695L790.514 222.296L816.336 237.205L843.518 252.898C843.803 253.063 843.979 253.367 843.979 253.696C843.979 254.026 843.803 254.33 843.518 254.495L790.516 285.095L816.336 300.003L843.518 315.696C843.803 315.861 843.979 316.165 843.979 316.495C843.979 316.824 843.803 317.128 843.518 317.293L790.515 347.894L816.336 362.802L843.518 378.495C843.803 378.66 843.979 378.964 843.979 379.294C843.979 379.623 843.803 379.928 843.518 380.092L790.517 410.692L816.336 425.599L843.518 441.292C843.803 441.457 843.979 441.762 843.979 442.091C843.979 442.42 843.803 442.725 843.518 442.89L789.155 474.276C788.869 474.441 788.518 474.441 788.233 474.276L734.399 443.195L680.566 474.276C680.28 474.441 679.929 474.441 679.643 474.276L625.81 443.195L571.976 474.276C571.69 474.441 571.339 474.441 571.053 474.276L517.22 443.195L463.386 474.276C463.101 474.441 462.75 474.441 462.464 474.276L408.631 443.195L354.797 474.276C354.512 474.441 354.16 474.441 353.875 474.276L300.041 443.195L246.208 474.276C245.922 474.441 245.571 474.441 245.286 474.276L191.452 443.195L137.618 474.276C137.333 474.441 136.981 474.441 136.696 474.276L82.8617 443.195L29.0277 474.276C28.7425 474.441 28.391 474.441 28.1057 474.276L-26.2574 442.89C-26.5426 442.725 -26.7184 442.42 -26.7184 442.091C-26.7184 441.762 -26.5426 441.457 -26.2574 441.292L26.7435 410.692L-26.2573 380.092C-26.5426 379.928 -26.7183 379.623 -26.7183 379.294C-26.7183 378.965 -26.5426 378.66 -26.2573 378.495L26.7455 347.894L-26.2573 317.293C-26.5426 317.128 -26.7183 316.824 -26.7183 316.495C-26.7183 316.165 -26.5426 315.861 -26.2573 315.696L26.7444 285.095L-26.2574 254.495C-26.5426 254.33 -26.7184 254.026 -26.7184 253.696C-26.7184 253.367 -26.5426 253.063 -26.2574 252.898L26.7462 222.296L-26.2572 191.695C-26.5425 191.53 -26.7182 191.226 -26.7182 190.896C-26.7182 190.567 -26.5425 190.262 -26.2572 190.098L26.7496 159.494L-26.2574 128.891C-26.5426 128.726 -26.7184 128.422 -26.7184 128.092C-26.7184 127.763 -26.5426 127.458 -26.2574 127.294L26.7398 96.6957L-26.2574 66.0978C-26.5426 65.9331 -26.7184 65.6287 -26.7184 65.2993C-26.7184 64.9698 -26.5426 64.6654 -26.2574 64.5007L26.7441 33.9003L-26.2573 3.29996C-26.5426 3.13525 -26.7183 2.83086 -26.7183 2.50143C-26.7183 2.17201 -26.5426 1.86762 -26.2573 1.70291L28.1058 -29.6836C28.391 -29.8483 28.7425 -29.8483 29.0278 -29.6836L56.2093 -13.9903L82.8619 1.39749L136.696 -29.6835C136.981 -29.8482 137.333 -29.8482 137.618 -29.6835L164.799 -13.9903L191.451 1.3972L245.286 -29.6841ZM734.399 440.987L786.87 410.692L734.399 380.398L681.928 410.692L707.747 425.599L734.399 440.987ZM625.81 380.398L678.281 410.692L625.81 440.987L599.157 425.599L573.338 410.692L625.81 380.398ZM517.22 440.987L569.691 410.692L517.22 380.398L464.749 410.692L490.568 425.599L517.22 440.987ZM408.631 380.398L461.102 410.692L408.631 440.987L381.978 425.599L356.159 410.692L408.631 380.398ZM300.041 380.398L352.513 410.692L300.041 440.987L273.389 425.599L247.57 410.692L300.041 380.398ZM191.452 440.987L243.923 410.692L191.452 380.398L138.98 410.692L164.799 425.599L191.452 440.987ZM82.8619 380.398L135.334 410.692L82.8617 440.987L56.2093 425.599L30.39 410.693L82.8619 380.398ZM734.399 317.599L786.872 347.894L734.399 378.19L707.747 362.802L681.926 347.894L734.399 317.599ZM625.81 378.19L678.283 347.894L625.81 317.599L573.336 347.894L599.157 362.802L625.81 378.19ZM517.22 317.599L569.693 347.894L517.22 378.19L490.568 362.802L464.747 347.894L517.22 317.599ZM408.631 378.19L461.104 347.894L408.631 317.599L356.157 347.894L381.978 362.802L408.631 378.19ZM300.041 378.19L352.514 347.894L300.042 317.599L247.568 347.895L273.389 362.802L300.041 378.19ZM191.451 317.599L243.925 347.894L191.452 378.19L164.799 362.802L138.978 347.894L191.451 317.599ZM82.8616 378.19L135.335 347.894L82.8617 317.599L30.388 347.894L56.2093 362.802L82.8616 378.19ZM734.399 315.39L786.871 285.095L734.399 254.801L681.927 285.096L707.747 300.003L734.399 315.39ZM625.809 254.801L678.282 285.096L625.81 315.391L599.157 300.003L573.337 285.095L625.809 254.801ZM517.22 315.39L569.692 285.095L517.22 254.801L464.748 285.095L490.568 300.003L517.22 315.39ZM408.631 254.8L461.103 285.095L408.631 315.39L381.978 300.003L356.158 285.095L408.631 254.8ZM300.042 254.801L352.514 285.095L300.041 315.391L273.389 300.003L247.569 285.096L300.042 254.801ZM191.452 315.391L243.924 285.096L191.451 254.801L138.979 285.095L164.799 300.003L191.452 315.391ZM82.8617 254.8L135.334 285.095L82.8618 315.391L56.2093 300.003L30.3891 285.095L82.8617 254.8ZM734.399 192L786.873 222.296L734.399 252.592L707.747 237.205L681.925 222.297L734.399 192ZM625.81 252.593L678.284 222.297L625.81 192L573.335 222.296L599.157 237.205L625.81 252.593ZM517.22 192L569.694 222.296L517.22 252.592L490.568 237.205L464.746 222.296L517.22 192ZM408.631 252.592L461.105 222.296L408.631 192L356.156 222.296L381.978 237.205L408.631 252.592ZM300.041 252.592L352.515 222.296L300.042 192.001L247.567 222.297L273.389 237.205L300.041 252.592ZM191.451 192.001L243.926 222.297L191.452 252.593L164.799 237.205L138.977 222.296L191.451 192.001ZM82.8617 252.592L135.336 222.296L82.8618 192L30.3874 222.296L56.2093 237.205L82.8617 252.592ZM734.399 189.792L786.877 159.494L734.4 129.196L681.922 159.494L707.747 174.404L734.399 189.792ZM625.809 129.196L678.287 159.494L625.81 189.792L599.157 174.404L573.332 159.494L625.809 129.196ZM517.22 189.792L569.698 159.494L517.22 129.196L464.743 159.494L490.568 174.404L517.22 189.792ZM408.631 129.196L461.108 159.494L408.631 189.792L381.978 174.404L356.153 159.494L408.631 129.196ZM300.041 129.196L352.519 159.494L300.041 189.792L273.389 174.405L247.563 159.495L300.041 129.196ZM191.452 189.792L243.93 159.495L191.451 129.196L138.974 159.494L164.799 174.404L191.452 189.792ZM82.8617 129.196L135.34 159.494L82.8618 189.792L56.2094 174.404L30.384 159.494L82.8617 129.196ZM734.399 66.4035L786.867 96.696L734.399 126.988L707.747 111.601L681.931 96.6959L734.399 66.4035ZM625.81 126.988L678.278 96.6959L625.81 66.4032L573.342 96.6955L599.158 111.6L625.81 126.988ZM517.22 66.4035L569.688 96.6958L517.22 126.988L490.568 111.6L464.752 96.6957L517.22 66.4035ZM408.631 126.988L461.098 96.6957L408.631 66.4034L356.163 96.6957L381.978 111.6L408.631 126.988ZM300.041 126.988L352.509 96.6957L300.042 66.4036L247.574 96.696L273.389 111.601L300.041 126.988ZM191.451 66.4035L243.92 96.696L191.452 126.988L164.799 111.6L138.984 96.6957L191.451 66.4035ZM82.8617 126.988L135.33 96.6957L82.8617 66.4032L30.3937 96.6957L56.2093 111.6L82.8617 126.988ZM734.399 64.195L786.871 33.9004L734.399 3.60577L681.927 33.9004L707.747 48.8075L734.399 64.195ZM625.81 3.60551L678.282 33.9004L625.81 64.1953L599.157 48.8075L573.337 33.9004L625.81 3.60551ZM517.22 64.195L569.692 33.9004L517.22 3.60579L464.748 33.9004L490.568 48.8075L517.22 64.195ZM408.631 3.60565L461.103 33.9004L408.631 64.1951L381.978 48.8075L356.159 33.9004L408.631 3.60565ZM300.041 3.60542L352.513 33.9004L300.041 64.1953L273.389 48.8078L247.568 33.9003L300.041 3.60542ZM191.452 64.1954L243.925 33.9003L191.452 3.60528L138.979 33.9004L164.799 48.8075L191.452 64.1954ZM82.8617 3.60548L135.334 33.9004L82.8617 64.1953L56.2093 48.8075L30.3894 33.9004L82.8617 3.60548ZM193.228 2.50095L245.747 32.8228L298.265 2.50095L272.467 -12.3938L245.747 -27.8209L193.228 2.50095ZM28.5668 32.8232L-23.9521 2.50143L28.5668 -27.8204L55.2873 -12.3933L81.0857 2.50143L28.5668 32.8232ZM137.157 32.8233L84.6378 2.50153L137.157 -27.8203L163.877 -12.3932L189.676 2.50153L137.157 32.8233ZM354.336 32.8233L301.817 2.50153L354.336 -27.8203L381.056 -12.3932L406.855 2.50153L354.336 32.8233ZM410.406 2.50153L462.925 32.8233L515.444 2.50153L489.646 -12.3932L462.925 -27.8203L410.406 2.50153ZM518.996 2.50153L571.515 32.8233L624.033 2.50153L598.235 -12.3932L571.515 -27.8203L518.996 2.50153ZM680.105 32.8233L627.586 2.50153L680.105 -27.8203L706.825 -12.3932L732.623 2.50153L680.105 32.8233ZM736.175 2.50153L788.694 32.8233L841.213 2.50153L815.414 -12.3932L788.694 -27.8203L736.175 2.50153ZM28.5667 95.6211L-23.9522 65.2993L28.5667 34.9774L55.2872 50.4045L81.0856 65.2993L28.5667 95.6211ZM84.6378 65.2993L137.157 95.6211L189.676 65.2993L163.877 50.4045L137.157 34.9774L84.6378 65.2993ZM245.747 95.6214L193.228 65.2996L245.747 34.9778L272.467 50.4049L298.265 65.2996L245.747 95.6214ZM301.817 65.2993L354.336 95.6211L406.855 65.2993L381.056 50.4045L354.336 34.9774L301.817 65.2993ZM462.925 95.6211L410.406 65.2993L462.925 34.9774L489.646 50.4045L515.444 65.2993L462.925 95.6211ZM571.515 95.6211L518.996 65.2993L571.515 34.9774L598.235 50.4045L624.033 65.2993L571.515 95.6211ZM627.586 65.2993L680.105 95.6211L732.623 65.2993L706.825 50.4045L680.105 34.9774L627.586 65.2993ZM788.694 95.6211L736.175 65.2993L788.694 34.9774L815.414 50.4045L841.213 65.2993L788.694 95.6211ZM-23.9522 128.092L28.5667 158.414L81.0856 128.092L55.2872 113.197L28.5667 97.7703L-23.9522 128.092ZM137.157 158.414L84.6378 128.092L137.157 97.7703L163.877 113.197L189.676 128.092L137.157 158.414ZM193.228 128.092L245.747 158.414L298.265 128.092L272.467 113.198L245.747 97.7706L193.228 128.092ZM354.336 158.414L301.817 128.092L354.336 97.7703L381.056 113.197L406.855 128.092L354.336 158.414ZM410.406 128.092L462.925 158.414L515.444 128.092L489.646 113.197L462.925 97.7703L410.406 128.092ZM518.996 128.092L571.515 158.414L624.034 128.092L598.235 113.197L571.515 97.7703L518.996 128.092ZM680.105 158.414L627.586 128.093L680.105 97.7708L706.825 113.198L732.623 128.093L680.105 158.414ZM736.176 128.092L788.695 158.414L841.214 128.092L815.415 113.197L788.695 97.7703L736.176 128.092ZM28.5669 221.218L-23.9521 190.896L28.5669 160.574L55.2874 176.001L81.0858 190.896L28.5669 221.218ZM84.6378 190.896L137.157 221.218L189.676 190.896L163.877 176.001L137.157 160.574L84.6378 190.896ZM245.747 221.219L193.228 190.897L245.747 160.575L272.467 176.002L298.265 190.897L245.747 221.219ZM301.817 190.896L354.336 221.218L406.855 190.896L381.056 176.001L354.336 160.574L301.817 190.896ZM462.925 221.218L410.406 190.896L462.925 160.574L489.646 176.001L515.444 190.896L462.925 221.218ZM571.515 221.218L518.996 190.896L571.515 160.574L598.235 176.001L624.033 190.896L571.515 221.218ZM627.586 190.896L680.105 221.218L732.623 190.896L706.825 176.001L680.105 160.574L627.586 190.896ZM788.694 221.218L736.175 190.896L788.694 160.574L815.414 176.001L841.213 190.896L788.694 221.218ZM-23.9522 253.696L28.5667 284.018L81.0856 253.696L55.2872 238.802L28.5667 223.375L-23.9522 253.696ZM137.157 284.018L84.6378 253.696L137.157 223.375L163.877 238.802L189.676 253.696L137.157 284.018ZM193.228 253.697L245.747 284.019L298.265 253.697L272.467 238.802L245.747 223.375L193.228 253.697ZM354.336 284.018L301.817 253.696L354.336 223.375L381.056 238.802L406.855 253.696L354.336 284.018ZM410.406 253.696L462.925 284.018L515.444 253.696L489.646 238.802L462.925 223.375L410.406 253.696ZM518.996 253.696L571.515 284.018L624.033 253.696L598.235 238.802L571.515 223.375L518.996 253.696ZM680.105 284.019L627.586 253.697L680.105 223.375L706.825 238.802L732.623 253.697L680.105 284.019ZM736.175 253.696L788.694 284.018L841.213 253.696L815.414 238.802L788.694 223.375L736.175 253.696ZM28.5668 346.816L-23.9521 316.495L28.5668 286.173L55.2873 301.6L81.0857 316.495L28.5668 346.816ZM84.6378 316.495L137.157 346.816L189.676 316.495L163.877 301.6L137.157 286.173L84.6378 316.495ZM245.747 346.817L193.228 316.495L245.747 286.173L272.467 301.6L298.265 316.495L245.747 346.817ZM301.817 316.495L354.336 346.816L406.855 316.495L381.056 301.6L354.336 286.173L301.817 316.495ZM462.925 346.816L410.406 316.495L462.925 286.173L489.646 301.6L515.444 316.495L462.925 346.816ZM571.515 346.816L518.996 316.495L571.515 286.173L598.235 301.6L624.033 316.495L571.515 346.816ZM627.586 316.495L680.105 346.816L732.623 316.495L706.825 301.6L680.105 286.173L627.586 316.495ZM788.694 346.816L736.175 316.495L788.694 286.173L815.414 301.6L841.213 316.495L788.694 346.816ZM-23.9521 379.294L28.5668 409.616L81.0857 379.294L55.2873 364.399L28.5668 348.972L-23.9521 379.294ZM137.157 409.616L84.6378 379.294L137.157 348.972L163.877 364.399L189.676 379.294L137.157 409.616ZM193.228 379.294L245.747 409.616L298.265 379.294L272.467 364.399L245.747 348.972L193.228 379.294ZM354.336 409.616L301.817 379.294L354.336 348.972L381.056 364.399L406.855 379.294L354.336 409.616ZM410.406 379.294L462.925 409.616L515.444 379.294L489.646 364.399L462.925 348.972L410.406 379.294ZM518.996 379.294L571.515 409.616L624.033 379.294L598.235 364.399L571.515 348.972L518.996 379.294ZM680.105 409.616L627.586 379.294L680.105 348.972L706.825 364.399L732.623 379.294L680.105 409.616ZM736.175 379.294L788.694 409.616L841.213 379.294L815.414 364.399L788.694 348.972L736.175 379.294ZM28.5667 472.413L-23.9522 442.091L28.5667 411.769L55.2872 427.196L81.0856 442.091L28.5667 472.413ZM84.6378 442.091L137.157 472.413L189.676 442.091L163.877 427.196L137.157 411.769L84.6378 442.091ZM245.747 472.413L193.228 442.091L245.747 411.769L272.467 427.196L298.265 442.091L245.747 472.413ZM301.817 442.091L354.336 472.413L406.855 442.091L381.056 427.196L354.336 411.769L301.817 442.091ZM462.925 472.413L410.406 442.091L462.925 411.769L489.646 427.196L515.444 442.091L462.925 472.413ZM571.515 472.413L518.996 442.091L571.515 411.769L598.235 427.196L624.033 442.091L571.515 472.413ZM627.586 442.091L680.105 472.413L732.623 442.091L706.825 427.196L680.105 411.769L627.586 442.091ZM788.694 472.413L736.175 442.091L788.694 411.769L815.414 427.196L841.213 442.091L788.694 472.413Z" clip-rule="evenodd" fill-rule="evenodd"></path>
<rect fill="url(#paint1_linear_7080_3978)" height="494.189" width="887.872" y="-25.0171" x="-33.3552"></rect>
<path fill="white" d="M98.9779 248.865C98.0979 248.865 97.2942 248.65 96.5669 248.221C95.8395 247.785 95.2577 247.203 94.8213 246.475C94.3922 245.748 94.1776 244.944 94.1776 244.064C94.1776 243.177 94.3922 242.373 94.8213 241.653C95.2577 240.926 95.8395 240.348 96.5669 239.919C97.2942 239.482 98.0979 239.264 98.9779 239.264C99.8653 239.264 100.669 239.482 101.389 239.919C102.116 240.348 102.695 240.926 103.124 241.653C103.56 242.373 103.778 243.177 103.778 244.064C103.778 244.944 103.56 245.748 103.124 246.475C102.695 247.203 102.116 247.785 101.389 248.221C100.669 248.65 99.8653 248.865 98.9779 248.865ZM143.024 237.889H139.62C139.489 237.162 139.245 236.522 138.889 235.969C138.533 235.416 138.096 234.947 137.58 234.562C137.063 234.176 136.485 233.885 135.845 233.689C135.212 233.493 134.54 233.394 133.827 233.394C132.539 233.394 131.387 233.718 130.368 234.365C129.357 235.013 128.557 235.962 127.968 237.213C127.386 238.464 127.095 239.991 127.095 241.795C127.095 243.613 127.386 245.148 127.968 246.399C128.557 247.65 129.361 248.596 130.379 249.236C131.398 249.876 132.543 250.196 133.816 250.196C134.521 250.196 135.191 250.101 135.823 249.912C136.463 249.716 137.042 249.428 137.558 249.05C138.074 248.672 138.511 248.21 138.867 247.665C139.231 247.112 139.482 246.479 139.62 245.766L143.024 245.777C142.842 246.875 142.489 247.886 141.966 248.81C141.449 249.727 140.784 250.519 139.969 251.188C139.162 251.85 138.238 252.363 137.198 252.727C136.158 253.09 135.023 253.272 133.794 253.272C131.859 253.272 130.136 252.814 128.623 251.898C127.11 250.974 125.917 249.654 125.044 247.937C124.179 246.221 123.746 244.173 123.746 241.795C123.746 239.409 124.182 237.362 125.055 235.653C125.928 233.936 127.121 232.62 128.634 231.703C130.147 230.78 131.867 230.318 133.794 230.318C134.98 230.318 136.085 230.489 137.111 230.831C138.144 231.165 139.071 231.66 139.893 232.314C140.715 232.962 141.395 233.755 141.933 234.693C142.471 235.624 142.835 236.689 143.024 237.889ZM153.855 253.305C152.284 253.305 150.913 252.945 149.742 252.225C148.571 251.505 147.661 250.498 147.014 249.203C146.367 247.908 146.043 246.395 146.043 244.664C146.043 242.926 146.367 241.406 147.014 240.104C147.661 238.802 148.571 237.791 149.742 237.071C150.913 236.351 152.284 235.991 153.855 235.991C155.426 235.991 156.797 236.351 157.968 237.071C159.139 237.791 160.048 238.802 160.695 240.104C161.342 241.406 161.666 242.926 161.666 244.664C161.666 246.395 161.342 247.908 160.695 249.203C160.048 250.498 159.139 251.505 157.968 252.225C156.797 252.945 155.426 253.305 153.855 253.305ZM153.866 250.567C154.884 250.567 155.727 250.298 156.397 249.759C157.066 249.221 157.56 248.505 157.88 247.61C158.208 246.715 158.371 245.73 158.371 244.653C158.371 243.584 158.208 242.602 157.88 241.708C157.56 240.806 157.066 240.082 156.397 239.537C155.727 238.991 154.884 238.718 153.866 238.718C152.84 238.718 151.989 238.991 151.313 239.537C150.643 240.082 150.145 240.806 149.818 241.708C149.498 242.602 149.338 243.584 149.338 244.653C149.338 245.73 149.498 246.715 149.818 247.61C150.145 248.505 150.643 249.221 151.313 249.759C151.989 250.298 152.84 250.567 153.866 250.567ZM168.569 243.017V252.967H165.307V236.209H168.438V238.937H168.646C169.031 238.049 169.635 237.337 170.457 236.798C171.286 236.26 172.33 235.991 173.588 235.991C174.73 235.991 175.73 236.231 176.588 236.711C177.446 237.184 178.112 237.889 178.585 238.828C179.057 239.766 179.294 240.926 179.294 242.308V252.967H176.032V242.701C176.032 241.486 175.715 240.537 175.083 239.853C174.45 239.162 173.581 238.817 172.475 238.817C171.719 238.817 171.046 238.98 170.457 239.308C169.875 239.635 169.413 240.115 169.071 240.748C168.737 241.373 168.569 242.13 168.569 243.017ZM191.644 236.209V238.828H182.174V236.209H191.644ZM184.771 252.967V234.267C184.771 233.22 185 232.351 185.458 231.66C185.916 230.962 186.523 230.442 187.28 230.1C188.036 229.751 188.858 229.576 189.745 229.576C190.4 229.576 190.96 229.631 191.426 229.74C191.891 229.841 192.236 229.936 192.462 230.023L191.698 232.664C191.546 232.62 191.349 232.569 191.109 232.511C190.869 232.445 190.578 232.413 190.236 232.413C189.444 232.413 188.876 232.609 188.534 233.002C188.2 233.394 188.033 233.962 188.033 234.704V252.967H184.771ZM195.009 252.967V236.209H198.271V252.967H195.009ZM196.657 233.624C196.089 233.624 195.602 233.434 195.195 233.056C194.795 232.671 194.595 232.213 194.595 231.682C194.595 231.143 194.795 230.685 195.195 230.307C195.602 229.921 196.089 229.729 196.657 229.729C197.224 229.729 197.708 229.921 198.108 230.307C198.515 230.685 198.719 231.143 198.719 231.682C198.719 232.213 198.515 232.671 198.108 233.056C197.708 233.434 197.224 233.624 196.657 233.624ZM209.686 259.6C208.355 259.6 207.209 259.425 206.249 259.076C205.297 258.727 204.518 258.265 203.915 257.691C203.311 257.116 202.86 256.487 202.562 255.803L205.366 254.647C205.562 254.967 205.824 255.305 206.151 255.662C206.486 256.025 206.937 256.334 207.504 256.589C208.079 256.843 208.817 256.971 209.719 256.971C210.955 256.971 211.977 256.669 212.784 256.065C213.592 255.469 213.995 254.516 213.995 253.207V249.912H213.788C213.592 250.268 213.308 250.665 212.937 251.101C212.573 251.538 212.072 251.916 211.432 252.236C210.791 252.556 209.959 252.716 208.933 252.716C207.609 252.716 206.417 252.407 205.355 251.789C204.3 251.163 203.464 250.243 202.845 249.028C202.234 247.806 201.929 246.304 201.929 244.523C201.929 242.741 202.231 241.213 202.835 239.94C203.445 238.668 204.282 237.693 205.344 237.017C206.406 236.333 207.609 235.991 208.955 235.991C209.995 235.991 210.835 236.166 211.475 236.515C212.115 236.857 212.613 237.257 212.97 237.715C213.333 238.173 213.613 238.577 213.81 238.926H214.05V236.209H217.246V253.338C217.246 254.778 216.912 255.96 216.243 256.883C215.574 257.807 214.668 258.491 213.526 258.935C212.392 259.378 211.111 259.6 209.686 259.6ZM209.653 250.01C210.591 250.01 211.384 249.792 212.032 249.356C212.686 248.912 213.181 248.279 213.515 247.457C213.857 246.628 214.028 245.635 214.028 244.479C214.028 243.352 213.861 242.359 213.526 241.501C213.192 240.642 212.701 239.973 212.053 239.493C211.406 239.006 210.606 238.762 209.653 238.762C208.671 238.762 207.853 239.017 207.198 239.526C206.544 240.028 206.049 240.711 205.715 241.577C205.387 242.442 205.224 243.41 205.224 244.479C205.224 245.577 205.391 246.541 205.726 247.37C206.06 248.199 206.555 248.846 207.209 249.312C207.871 249.777 208.686 250.01 209.653 250.01ZM232.237 246.017V236.209H235.51V252.967H232.302V250.065H232.128C231.742 250.959 231.124 251.705 230.273 252.301C229.429 252.89 228.378 253.185 227.12 253.185C226.043 253.185 225.091 252.949 224.262 252.476C223.44 251.996 222.792 251.287 222.32 250.348C221.854 249.41 221.621 248.25 221.621 246.868V236.209H224.883V246.475C224.883 247.617 225.2 248.526 225.833 249.203C226.465 249.879 227.287 250.218 228.298 250.218C228.909 250.218 229.516 250.065 230.12 249.759C230.731 249.454 231.237 248.992 231.637 248.374C232.044 247.756 232.244 246.97 232.237 246.017ZM239.893 252.967V236.209H243.046V238.871H243.22C243.526 237.969 244.064 237.26 244.835 236.744C245.613 236.22 246.493 235.958 247.475 235.958C247.679 235.958 247.919 235.966 248.195 235.98C248.479 235.995 248.701 236.013 248.861 236.035V239.155C248.73 239.119 248.497 239.079 248.162 239.035C247.828 238.984 247.493 238.959 247.159 238.959C246.388 238.959 245.7 239.122 245.097 239.449C244.5 239.769 244.028 240.217 243.678 240.791C243.329 241.359 243.155 242.006 243.155 242.733V252.967H239.893ZM256.41 253.338C255.348 253.338 254.388 253.141 253.53 252.749C252.672 252.349 251.992 251.77 251.49 251.014C250.995 250.258 250.748 249.33 250.748 248.232C250.748 247.286 250.93 246.508 251.293 245.897C251.657 245.286 252.148 244.803 252.766 244.446C253.385 244.09 254.076 243.821 254.839 243.639C255.603 243.457 256.381 243.319 257.174 243.224C258.178 243.108 258.992 243.013 259.618 242.941C260.243 242.861 260.698 242.733 260.981 242.559C261.265 242.384 261.407 242.101 261.407 241.708V241.631C261.407 240.679 261.138 239.94 260.6 239.417C260.069 238.893 259.276 238.631 258.221 238.631C257.123 238.631 256.257 238.875 255.625 239.362C254.999 239.842 254.566 240.377 254.326 240.966L251.261 240.268C251.624 239.249 252.155 238.428 252.854 237.802C253.559 237.169 254.37 236.711 255.287 236.427C256.203 236.136 257.167 235.991 258.178 235.991C258.847 235.991 259.556 236.071 260.305 236.231C261.061 236.384 261.767 236.667 262.422 237.082C263.083 237.497 263.625 238.089 264.047 238.86C264.469 239.624 264.68 240.617 264.68 241.839V252.967H261.494V250.676H261.363C261.152 251.098 260.836 251.512 260.414 251.919C259.992 252.327 259.45 252.665 258.789 252.934C258.127 253.203 257.334 253.338 256.41 253.338ZM257.119 250.719C258.021 250.719 258.792 250.541 259.432 250.185C260.08 249.828 260.571 249.363 260.905 248.788C261.247 248.206 261.418 247.585 261.418 246.923V244.763C261.301 244.879 261.076 244.988 260.741 245.09C260.414 245.184 260.04 245.268 259.618 245.341C259.196 245.406 258.785 245.468 258.385 245.526C257.985 245.577 257.65 245.621 257.381 245.657C256.748 245.737 256.17 245.872 255.647 246.061C255.13 246.25 254.716 246.523 254.403 246.879C254.097 247.228 253.945 247.694 253.945 248.276C253.945 249.083 254.243 249.694 254.839 250.108C255.436 250.516 256.196 250.719 257.119 250.719ZM276.847 236.209V238.828H267.694V236.209H276.847ZM270.148 232.194H273.411V248.046C273.411 248.679 273.505 249.156 273.694 249.476C273.883 249.788 274.127 250.003 274.425 250.119C274.731 250.228 275.062 250.283 275.418 250.283C275.68 250.283 275.909 250.265 276.105 250.228C276.302 250.192 276.454 250.163 276.563 250.141L277.153 252.836C276.964 252.909 276.694 252.981 276.345 253.054C275.996 253.134 275.56 253.178 275.036 253.185C274.178 253.2 273.378 253.047 272.636 252.727C271.894 252.407 271.294 251.912 270.836 251.243C270.378 250.574 270.148 249.734 270.148 248.723V232.194ZM280.456 252.967V236.209H283.718V252.967H280.456ZM282.103 233.624C281.536 233.624 281.048 233.434 280.641 233.056C280.241 232.671 280.041 232.213 280.041 231.682C280.041 231.143 280.241 230.685 280.641 230.307C281.048 229.921 281.536 229.729 282.103 229.729C282.67 229.729 283.154 229.921 283.554 230.307C283.961 230.685 284.165 231.143 284.165 231.682C284.165 232.213 283.961 232.671 283.554 233.056C283.154 233.434 282.67 233.624 282.103 233.624ZM295.165 253.305C293.594 253.305 292.223 252.945 291.052 252.225C289.881 251.505 288.972 250.498 288.324 249.203C287.677 247.908 287.353 246.395 287.353 244.664C287.353 242.926 287.677 241.406 288.324 240.104C288.972 238.802 289.881 237.791 291.052 237.071C292.223 236.351 293.594 235.991 295.165 235.991C296.736 235.991 298.107 236.351 299.278 237.071C300.449 237.791 301.358 238.802 302.005 240.104C302.653 241.406 302.976 242.926 302.976 244.664C302.976 246.395 302.653 247.908 302.005 249.203C301.358 250.498 300.449 251.505 299.278 252.225C298.107 252.945 296.736 253.305 295.165 253.305ZM295.176 250.567C296.194 250.567 297.038 250.298 297.707 249.759C298.376 249.221 298.871 248.505 299.191 247.61C299.518 246.715 299.682 245.73 299.682 244.653C299.682 243.584 299.518 242.602 299.191 241.708C298.871 240.806 298.376 240.082 297.707 239.537C297.038 238.991 296.194 238.718 295.176 238.718C294.15 238.718 293.299 238.991 292.623 239.537C291.954 240.082 291.455 240.806 291.128 241.708C290.808 242.602 290.648 243.584 290.648 244.653C290.648 245.73 290.808 246.715 291.128 247.61C291.455 248.505 291.954 249.221 292.623 249.759C293.299 250.298 294.15 250.567 295.176 250.567ZM309.88 243.017V252.967H306.617V236.209H309.749V238.937H309.956C310.341 238.049 310.945 237.337 311.767 236.798C312.596 236.26 313.64 235.991 314.898 235.991C316.04 235.991 317.04 236.231 317.898 236.711C318.757 237.184 319.422 237.889 319.895 238.828C320.368 239.766 320.604 240.926 320.604 242.308V252.967H317.342V242.701C317.342 241.486 317.026 240.537 316.393 239.853C315.76 239.162 314.891 238.817 313.785 238.817C313.029 238.817 312.356 238.98 311.767 239.308C311.185 239.635 310.723 240.115 310.381 240.748C310.047 241.373 309.88 242.13 309.88 243.017ZM98.9779 292.865C98.0979 292.865 97.2942 292.65 96.5669 292.221C95.8395 291.785 95.2577 291.203 94.8213 290.475C94.3922 289.748 94.1776 288.944 94.1776 288.064C94.1776 287.177 94.3922 286.373 94.8213 285.653C95.2577 284.926 95.8395 284.348 96.5669 283.919C97.2942 283.482 98.0979 283.264 98.9779 283.264C99.8653 283.264 100.669 283.482 101.389 283.919C102.116 284.348 102.695 284.926 103.124 285.653C103.56 286.373 103.778 287.177 103.778 288.064C103.778 288.944 103.56 289.748 103.124 290.475C102.695 291.203 102.116 291.785 101.389 292.221C100.669 292.65 99.8653 292.865 98.9779 292.865ZM131.699 296.967H124.466V274.623H131.929C134.118 274.623 135.998 275.071 137.569 275.965C139.14 276.853 140.344 278.129 141.18 279.795C142.024 281.453 142.446 283.442 142.446 285.762C142.446 288.09 142.02 290.09 141.169 291.763C140.325 293.436 139.104 294.723 137.503 295.625C135.903 296.519 133.969 296.967 131.699 296.967ZM127.837 294.021H131.514C133.216 294.021 134.631 293.701 135.758 293.061C136.885 292.414 137.729 291.479 138.289 290.257C138.849 289.028 139.129 287.53 139.129 285.762C139.129 284.009 138.849 282.522 138.289 281.3C137.736 280.078 136.911 279.151 135.812 278.518C134.714 277.885 133.35 277.569 131.721 277.569H127.837V294.021ZM153.598 297.305C151.947 297.305 150.525 296.952 149.332 296.247C148.147 295.534 147.231 294.534 146.583 293.247C145.943 291.952 145.623 290.435 145.623 288.697C145.623 286.981 145.943 285.468 146.583 284.159C147.231 282.849 148.132 281.828 149.289 281.093C150.453 280.358 151.813 279.991 153.369 279.991C154.315 279.991 155.231 280.147 156.118 280.46C157.006 280.773 157.802 281.264 158.508 281.933C159.213 282.602 159.77 283.471 160.177 284.54C160.584 285.602 160.788 286.893 160.788 288.413V289.57H147.467V287.126H157.591C157.591 286.268 157.417 285.508 157.068 284.846C156.718 284.177 156.228 283.649 155.595 283.264C154.969 282.879 154.235 282.686 153.391 282.686C152.475 282.686 151.674 282.911 150.991 283.362C150.314 283.806 149.791 284.388 149.42 285.108C149.056 285.821 148.874 286.595 148.874 287.432V289.341C148.874 290.461 149.071 291.414 149.463 292.199C149.863 292.985 150.42 293.585 151.133 293.999C151.845 294.407 152.678 294.61 153.631 294.61C154.249 294.61 154.813 294.523 155.322 294.348C155.831 294.167 156.271 293.897 156.642 293.541C157.013 293.185 157.297 292.745 157.493 292.221L160.581 292.777C160.333 293.687 159.89 294.483 159.25 295.167C158.617 295.843 157.82 296.37 156.86 296.749C155.908 297.12 154.82 297.305 153.598 297.305ZM164.407 303.251V280.209H167.593V282.926H167.866C168.055 282.577 168.327 282.173 168.684 281.715C169.04 281.257 169.535 280.857 170.168 280.515C170.8 280.166 171.637 279.991 172.677 279.991C174.03 279.991 175.237 280.333 176.299 281.017C177.361 281.7 178.194 282.686 178.797 283.973C179.408 285.26 179.714 286.81 179.714 288.621C179.714 290.432 179.412 291.985 178.808 293.279C178.205 294.567 177.375 295.559 176.321 296.258C175.266 296.949 174.062 297.294 172.71 297.294C171.691 297.294 170.859 297.123 170.211 296.781C169.571 296.439 169.069 296.039 168.706 295.581C168.342 295.123 168.062 294.716 167.866 294.359H167.669V303.251H164.407ZM167.604 288.588C167.604 289.766 167.775 290.799 168.117 291.686C168.458 292.574 168.953 293.268 169.6 293.77C170.248 294.265 171.04 294.512 171.979 294.512C172.953 294.512 173.768 294.254 174.422 293.737C175.077 293.214 175.572 292.505 175.906 291.61C176.248 290.715 176.419 289.708 176.419 288.588C176.419 287.482 176.252 286.49 175.917 285.61C175.59 284.73 175.095 284.035 174.433 283.526C173.779 283.017 172.961 282.762 171.979 282.762C171.033 282.762 170.233 283.006 169.578 283.493C168.931 283.98 168.44 284.66 168.106 285.533C167.771 286.406 167.604 287.424 167.604 288.588ZM186.631 274.623V296.967H183.369V274.623H186.631ZM198.078 297.305C196.507 297.305 195.136 296.945 193.965 296.225C192.794 295.505 191.885 294.498 191.237 293.203C190.59 291.908 190.266 290.395 190.266 288.664C190.266 286.926 190.59 285.406 191.237 284.104C191.885 282.802 192.794 281.791 193.965 281.071C195.136 280.351 196.507 279.991 198.078 279.991C199.649 279.991 201.02 280.351 202.191 281.071C203.362 281.791 204.271 282.802 204.918 284.104C205.566 285.406 205.889 286.926 205.889 288.664C205.889 290.395 205.566 291.908 204.918 293.203C204.271 294.498 203.362 295.505 202.191 296.225C201.02 296.945 199.649 297.305 198.078 297.305ZM198.089 294.567C199.107 294.567 199.951 294.298 200.62 293.759C201.289 293.221 201.784 292.505 202.104 291.61C202.431 290.715 202.595 289.73 202.595 288.653C202.595 287.584 202.431 286.602 202.104 285.708C201.784 284.806 201.289 284.082 200.62 283.537C199.951 282.991 199.107 282.718 198.089 282.718C197.063 282.718 196.212 282.991 195.536 283.537C194.867 284.082 194.368 284.806 194.041 285.708C193.721 286.602 193.561 287.584 193.561 288.653C193.561 289.73 193.721 290.715 194.041 291.61C194.368 292.505 194.867 293.221 195.536 293.759C196.212 294.298 197.063 294.567 198.089 294.567ZM211.022 303.251C210.535 303.251 210.091 303.211 209.691 303.131C209.291 303.058 208.993 302.978 208.797 302.891L209.582 300.218C210.179 300.378 210.71 300.447 211.175 300.425C211.641 300.403 212.052 300.229 212.408 299.902C212.772 299.574 213.092 299.04 213.368 298.298L213.772 297.185L207.64 280.209H211.131L215.375 293.214H215.55L219.794 280.209H223.296L216.39 299.203C216.07 300.076 215.663 300.814 215.168 301.418C214.674 302.029 214.084 302.487 213.401 302.793C212.717 303.098 211.924 303.251 211.022 303.251ZM226.362 296.967V280.209H229.493V282.937H229.7C230.049 282.013 230.62 281.293 231.413 280.777C232.206 280.253 233.155 279.991 234.26 279.991C235.381 279.991 236.319 280.253 237.075 280.777C237.839 281.3 238.403 282.02 238.766 282.937H238.941C239.341 282.042 239.977 281.329 240.85 280.798C241.723 280.26 242.763 279.991 243.97 279.991C245.49 279.991 246.73 280.467 247.691 281.42C248.658 282.373 249.142 283.809 249.142 285.73V296.967H245.879V286.035C245.879 284.9 245.57 284.079 244.952 283.569C244.334 283.06 243.596 282.806 242.737 282.806C241.676 282.806 240.85 283.133 240.261 283.788C239.672 284.435 239.377 285.268 239.377 286.286V296.967H236.126V285.828C236.126 284.919 235.842 284.188 235.275 283.635C234.708 283.082 233.97 282.806 233.06 282.806C232.442 282.806 231.871 282.969 231.348 283.297C230.831 283.617 230.413 284.064 230.093 284.639C229.78 285.213 229.624 285.879 229.624 286.635V296.967H226.362ZM260.736 297.305C259.085 297.305 257.663 296.952 256.47 296.247C255.285 295.534 254.368 294.534 253.721 293.247C253.081 291.952 252.761 290.435 252.761 288.697C252.761 286.981 253.081 285.468 253.721 284.159C254.368 282.849 255.27 281.828 256.427 281.093C257.59 280.358 258.95 279.991 260.507 279.991C261.452 279.991 262.369 280.147 263.256 280.46C264.143 280.773 264.94 281.264 265.645 281.933C266.351 282.602 266.907 283.471 267.315 284.54C267.722 285.602 267.926 286.893 267.926 288.413V289.57H254.605V287.126H264.729C264.729 286.268 264.554 285.508 264.205 284.846C263.856 284.177 263.365 283.649 262.732 283.264C262.107 282.879 261.372 282.686 260.529 282.686C259.612 282.686 258.812 282.911 258.129 283.362C257.452 283.806 256.928 284.388 256.557 285.108C256.194 285.821 256.012 286.595 256.012 287.432V289.341C256.012 290.461 256.208 291.414 256.601 292.199C257.001 292.985 257.558 293.585 258.27 293.999C258.983 294.407 259.816 294.61 260.769 294.61C261.387 294.61 261.951 294.523 262.46 294.348C262.969 294.167 263.409 293.897 263.78 293.541C264.151 293.185 264.434 292.745 264.631 292.221L267.718 292.777C267.471 293.687 267.027 294.483 266.387 295.167C265.755 295.843 264.958 296.37 263.998 296.749C263.045 297.12 261.958 297.305 260.736 297.305ZM274.807 287.017V296.967H271.545V280.209H274.676V282.937H274.883C275.269 282.049 275.873 281.337 276.694 280.798C277.524 280.26 278.567 279.991 279.826 279.991C280.967 279.991 281.968 280.231 282.826 280.711C283.684 281.184 284.35 281.889 284.822 282.828C285.295 283.766 285.531 284.926 285.531 286.308V296.967H282.269V286.701C282.269 285.486 281.953 284.537 281.32 283.853C280.687 283.162 279.818 282.817 278.713 282.817C277.956 282.817 277.284 282.98 276.694 283.308C276.113 283.635 275.651 284.115 275.309 284.748C274.974 285.373 274.807 286.13 274.807 287.017ZM297.729 280.209V282.828H288.575V280.209H297.729ZM291.03 276.194H294.292V292.046C294.292 292.679 294.387 293.156 294.576 293.476C294.765 293.788 295.008 294.003 295.307 294.119C295.612 294.228 295.943 294.283 296.299 294.283C296.561 294.283 296.79 294.265 296.987 294.228C297.183 294.192 297.336 294.163 297.445 294.141L298.034 296.836C297.845 296.909 297.576 296.981 297.227 297.054C296.878 297.134 296.441 297.178 295.918 297.185C295.059 297.2 294.259 297.047 293.517 296.727C292.776 296.407 292.176 295.912 291.717 295.243C291.259 294.574 291.03 293.734 291.03 292.723V276.194Z"></path>
<path fill="#68D391" d="M349.739 386.82C348.711 385.61 347.825 384.372 347.646 384.118C347.642 384.113 347.637 384.109 347.631 384.106C347.625 384.103 347.619 384.101 347.612 384.101C347.606 384.101 347.599 384.103 347.593 384.106C347.588 384.109 347.583 384.113 347.579 384.118C347.399 384.372 346.514 385.61 345.486 386.82C336.675 398.017 346.876 405.571 346.876 405.571L346.959 405.628C347.036 406.797 347.228 408.477 347.228 408.477H347.996C347.996 408.477 348.188 406.804 348.265 405.636L348.348 405.571C348.348 405.571 358.55 398.017 349.739 386.82ZM347.612 405.407H347.612C347.612 405.407 347.155 405.018 347.032 404.823L347.03 404.802L347.584 392.612C347.584 392.604 347.587 392.597 347.592 392.592C347.598 392.587 347.605 392.584 347.612 392.584C347.62 392.584 347.627 392.587 347.632 392.592C347.638 392.597 347.641 392.604 347.641 392.612L348.194 404.802L348.193 404.823C348.07 405.017 347.612 405.407 347.612 405.407Z"></path>
<path fill="white" d="M366.663 402.911L362.427 392.617L362.415 392.588H359.112V393.277L359.642 393.278C359.722 393.278 359.8 393.294 359.874 393.325C359.947 393.355 360.013 393.4 360.069 393.456C360.125 393.513 360.169 393.58 360.199 393.653C360.229 393.727 360.244 393.805 360.243 393.885L360.145 404.253C360.145 404.41 360.082 404.559 359.972 404.67C359.862 404.782 359.713 404.845 359.556 404.848L359.013 404.854V405.54H362.228V404.855L361.897 404.848C361.74 404.844 361.59 404.779 361.48 404.667C361.37 404.555 361.308 404.404 361.307 404.247V394.48L365.928 405.532C365.961 405.61 366.015 405.676 366.085 405.722C366.155 405.769 366.237 405.794 366.322 405.794C366.406 405.794 366.488 405.769 366.558 405.722C366.628 405.676 366.683 405.61 366.715 405.532L371.23 394.723L371.298 404.245C371.298 404.404 371.236 404.556 371.125 404.67C371.014 404.783 370.862 404.848 370.703 404.85L370.363 404.854V405.54H374.125V404.854L373.61 404.85C373.452 404.847 373.302 404.783 373.191 404.672C373.08 404.56 373.017 404.409 373.016 404.251L372.983 393.885C372.983 393.727 373.045 393.575 373.156 393.463C373.267 393.35 373.418 393.285 373.576 393.282L374.126 393.277V392.588H370.913L366.663 402.911Z"></path>
<path fill="white" d="M396.28 404.688C396.226 404.633 396.183 404.568 396.156 404.497C396.128 404.425 396.115 404.348 396.119 404.272V399.191C396.119 398.228 395.832 397.465 395.266 396.926C394.701 396.387 393.925 396.114 392.96 396.114C391.597 396.114 390.526 396.663 389.777 397.747C389.771 397.757 389.761 397.765 389.75 397.769C389.739 397.774 389.727 397.775 389.716 397.773C389.704 397.771 389.693 397.766 389.684 397.758C389.676 397.75 389.669 397.739 389.666 397.728L389.314 396.371H388.726L387.211 397.236L387.211 397.712H387.602C387.761 397.703 387.917 397.755 388.04 397.855C388.096 397.912 388.139 397.98 388.167 398.055C388.194 398.129 388.205 398.209 388.199 398.289V404.272C388.203 404.349 388.19 404.425 388.163 404.497C388.135 404.569 388.092 404.634 388.038 404.688C387.983 404.742 387.918 404.785 387.846 404.813C387.774 404.84 387.697 404.853 387.62 404.849H387.242V405.538H390.724V404.849H390.345C390.268 404.853 390.191 404.84 390.12 404.813C390.048 404.785 389.982 404.743 389.928 404.688C389.873 404.634 389.831 404.569 389.803 404.497C389.775 404.425 389.763 404.349 389.767 404.272V400.312C389.769 399.796 389.881 399.286 390.094 398.816C390.305 398.337 390.64 397.922 391.064 397.614C391.509 397.297 392.045 397.132 392.591 397.145C393.26 397.145 393.758 397.355 394.072 397.769C394.39 398.188 394.551 398.728 394.551 399.375V404.272C394.554 404.349 394.542 404.425 394.514 404.497C394.487 404.569 394.444 404.634 394.39 404.688C394.335 404.743 394.27 404.785 394.198 404.813C394.126 404.84 394.049 404.853 393.972 404.849H393.593V405.538H397.076V404.849H396.697C396.62 404.852 396.543 404.84 396.472 404.812C396.4 404.784 396.334 404.742 396.28 404.688Z"></path>
<path fill="white" d="M428.192 393.365C427.198 392.844 426.089 392.577 424.966 392.588H420.399V393.278H420.842C421.02 393.291 421.188 393.367 421.314 393.493C421.441 393.619 421.518 393.787 421.531 393.965V404.163C421.528 404.252 421.508 404.34 421.471 404.421C421.434 404.502 421.38 404.575 421.314 404.635C421.255 404.701 421.182 404.754 421.1 404.792C421.019 404.829 420.931 404.849 420.842 404.85H420.399V405.54H424.966C426.089 405.551 427.198 405.284 428.192 404.763C429.164 404.248 429.971 403.472 430.522 402.523C431.094 401.553 431.384 400.389 431.384 399.064C431.384 397.739 431.094 396.576 430.522 395.605C429.971 394.656 429.164 393.88 428.192 393.365V393.365ZM429.558 399.064C429.558 400.275 429.34 401.305 428.91 402.128C428.481 402.948 427.908 403.566 427.207 403.964C426.502 404.363 425.703 404.57 424.892 404.563H423.972C423.882 404.562 423.794 404.542 423.713 404.505C423.631 404.468 423.559 404.414 423.499 404.348C423.433 404.288 423.379 404.215 423.342 404.134C423.305 404.053 423.285 403.965 423.283 403.876V394.252C423.284 394.163 423.305 394.075 423.342 393.994C423.379 393.913 423.432 393.84 423.499 393.78C423.559 393.714 423.632 393.661 423.713 393.624C423.794 393.587 423.882 393.567 423.972 393.565H424.892C425.703 393.558 426.502 393.765 427.207 394.165C427.908 394.562 428.481 395.18 428.91 396C429.34 396.823 429.558 397.854 429.558 399.064V399.064Z"></path>
<path fill="white" d="M442.138 399.75C441.724 399.27 440.915 398.861 439.958 398.643C441.274 397.992 441.941 397.065 441.941 395.887C441.951 395.276 441.771 394.676 441.426 394.171C441.062 393.656 440.561 393.253 439.98 393.006C439.299 392.717 438.564 392.574 437.824 392.589H432.702V393.278H433.107C433.286 393.291 433.454 393.368 433.58 393.494C433.707 393.62 433.783 393.788 433.796 393.966V404.164C433.794 404.253 433.774 404.341 433.737 404.422C433.7 404.503 433.646 404.575 433.58 404.635C433.52 404.702 433.448 404.755 433.366 404.792C433.285 404.829 433.197 404.849 433.107 404.851H432.665V405.541H438.226C439.029 405.549 439.825 405.405 440.573 405.115C441.244 404.861 441.831 404.426 442.269 403.859C442.685 403.309 442.895 402.635 442.895 401.856C442.912 401.085 442.642 400.335 442.138 399.75V399.75ZM435.765 404.348C435.699 404.288 435.645 404.216 435.608 404.135C435.571 404.054 435.551 403.966 435.549 403.877V399.296H438.189C439.117 399.296 439.837 399.535 440.329 400.008C440.82 400.48 441.069 401.102 441.069 401.856C441.069 402.313 440.957 402.763 440.743 403.166C440.519 403.588 440.181 403.937 439.767 404.176C439.335 404.434 438.804 404.564 438.189 404.564H436.238C436.148 404.562 436.06 404.542 435.979 404.505C435.897 404.468 435.825 404.415 435.765 404.348V404.348ZM435.549 398.319V394.253C435.55 394.163 435.57 394.075 435.608 393.994C435.645 393.913 435.698 393.841 435.765 393.781C435.825 393.715 435.898 393.662 435.979 393.625C436.06 393.588 436.148 393.568 436.238 393.565H437.493C438.395 393.565 439.065 393.789 439.484 394.23C439.903 394.672 440.115 395.248 440.115 395.942C440.115 396.661 439.918 397.244 439.529 397.674C439.141 398.102 438.549 398.319 437.769 398.319H435.549Z"></path>
<path fill="white" d="M383.019 396.716C382.268 396.321 381.433 396.114 380.584 396.114C379.735 396.114 378.899 396.321 378.149 396.717C377.423 397.115 376.821 397.706 376.409 398.424C375.988 399.201 375.768 400.071 375.768 400.954C375.768 401.838 375.988 402.708 376.409 403.485C376.82 404.203 377.422 404.794 378.149 405.193C378.899 405.588 379.735 405.795 380.584 405.795C381.433 405.795 382.268 405.588 383.019 405.192C383.745 404.794 384.347 404.203 384.758 403.485C385.179 402.708 385.4 401.838 385.4 400.954C385.4 400.071 385.179 399.201 384.758 398.424C384.347 397.706 383.745 397.115 383.019 396.716ZM383.721 400.954C383.721 402.125 383.434 403.067 382.867 403.752C382.302 404.436 381.534 404.782 380.584 404.782C379.633 404.782 378.865 404.436 378.301 403.752C377.734 403.067 377.446 402.126 377.446 400.954C377.446 399.783 377.734 398.842 378.301 398.156C378.865 397.473 379.633 397.127 380.584 397.127C381.534 397.127 382.302 397.473 382.867 398.156C383.434 398.842 383.721 399.784 383.721 400.954H383.721Z"></path>
<path fill="white" d="M416.566 396.716C415.816 396.321 414.98 396.114 414.131 396.114C413.282 396.114 412.447 396.321 411.696 396.717C410.97 397.115 410.368 397.706 409.957 398.424C409.536 399.201 409.315 400.071 409.315 400.954C409.315 401.838 409.536 402.708 409.957 403.485C410.368 404.203 410.97 404.794 411.696 405.193C412.447 405.588 413.283 405.795 414.131 405.795C414.98 405.795 415.816 405.588 416.566 405.192C417.293 404.794 417.895 404.203 418.306 403.485C418.727 402.708 418.947 401.838 418.947 400.954C418.947 400.071 418.727 399.201 418.306 398.424C417.894 397.706 417.292 397.115 416.566 396.716V396.716ZM417.269 400.954C417.269 402.125 416.981 403.067 416.414 403.752C415.849 404.436 415.081 404.782 414.131 404.782C413.181 404.782 412.413 404.436 411.848 403.752C411.281 403.067 410.994 402.126 410.994 400.954C410.994 399.784 411.281 398.842 411.848 398.156C412.413 397.473 413.181 397.127 414.131 397.127C415.081 397.127 415.85 397.473 416.414 398.156C416.981 398.842 417.269 399.784 417.269 400.954H417.269Z"></path>
<path fill="white" d="M403.025 396.114C402.303 396.106 401.59 396.271 400.946 396.597C400.346 396.896 399.837 397.35 399.473 397.911C399.122 398.453 398.936 399.086 398.939 399.731C398.932 400.294 399.072 400.848 399.347 401.339C399.615 401.807 399.985 402.207 400.431 402.511L399.076 404.348C398.994 404.459 398.944 404.591 398.933 404.729C398.921 404.867 398.949 405.005 399.011 405.129C399.074 405.252 399.169 405.356 399.288 405.428C399.406 405.501 399.542 405.539 399.68 405.539H400.069C399.707 405.775 399.402 406.088 399.176 406.455C398.936 406.838 398.808 407.279 398.805 407.73C398.805 408.544 399.166 409.216 399.877 409.725C400.584 410.232 401.572 410.488 402.814 410.488C403.648 410.494 404.476 410.355 405.261 410.075C405.968 409.833 406.601 409.415 407.099 408.859C407.561 408.33 407.811 407.649 407.799 406.947C407.799 406.172 407.514 405.616 406.845 405.091C406.273 404.642 405.382 404.405 404.269 404.405H400.466C400.461 404.405 400.457 404.404 400.453 404.401C400.449 404.399 400.446 404.396 400.444 404.392C400.442 404.388 400.441 404.384 400.441 404.379C400.442 404.375 400.443 404.371 400.445 404.367L401.432 403.036C401.666 403.144 401.912 403.226 402.164 403.281C402.416 403.328 402.672 403.351 402.929 403.349C403.673 403.36 404.408 403.195 405.075 402.866C405.68 402.568 406.195 402.114 406.567 401.552C406.924 401.012 407.113 400.378 407.11 399.731C407.11 399.028 406.772 397.747 405.838 397.094C405.84 397.087 405.845 397.088 405.847 397.088L407.895 397.317V396.381H404.621C404.108 396.204 403.568 396.113 403.025 396.114V396.114ZM404.17 402.047H404.17C403.818 402.237 403.425 402.337 403.025 402.337C402.4 402.342 401.8 402.099 401.354 401.663C400.881 401.217 400.642 400.567 400.642 399.731C400.642 398.896 400.881 398.246 401.354 397.799C401.8 397.363 402.4 397.121 403.025 397.125C403.425 397.126 403.818 397.225 404.17 397.415C404.541 397.618 404.849 397.92 405.06 398.286C405.291 398.671 405.408 399.158 405.408 399.731C405.408 400.305 405.291 400.792 405.06 401.177C404.849 401.543 404.541 401.844 404.17 402.047ZM401.588 405.539H404.165C404.881 405.539 405.336 405.678 405.641 405.988C405.793 406.146 405.911 406.332 405.99 406.536C406.068 406.74 406.104 406.958 406.097 407.177C406.104 407.503 406.033 407.827 405.89 408.121C405.747 408.415 405.535 408.671 405.273 408.867C404.722 409.297 403.979 409.515 403.063 409.515C402.26 409.515 401.603 409.339 401.11 408.99C400.621 408.644 400.374 408.131 400.374 407.463C400.37 407.054 400.49 406.654 400.72 406.315C400.935 405.984 401.234 405.716 401.588 405.539V405.539Z"></path>
<path fill="white" d="M446.592 405.556C446.407 405.452 446.254 405.3 446.148 405.116C446.043 404.93 445.988 404.719 445.988 404.505C445.988 404.291 446.043 404.08 446.148 403.894C446.254 403.71 446.407 403.558 446.592 403.454C446.788 403.348 447.007 403.292 447.23 403.292C447.453 403.292 447.672 403.348 447.868 403.454C448.053 403.558 448.207 403.71 448.312 403.894C448.417 404.08 448.473 404.291 448.473 404.505C448.473 404.719 448.417 404.93 448.312 405.116C448.207 405.3 448.053 405.452 447.868 405.556C447.672 405.662 447.453 405.718 447.23 405.718C447.007 405.718 446.788 405.662 446.592 405.556ZM447.76 405.416C447.915 405.328 448.042 405.199 448.129 405.043C448.216 404.877 448.262 404.693 448.262 404.505C448.262 404.318 448.216 404.133 448.129 403.967C448.042 403.811 447.915 403.682 447.76 403.594C447.597 403.505 447.415 403.459 447.23 403.459C447.045 403.459 446.863 403.505 446.701 403.594C446.546 403.682 446.418 403.811 446.332 403.967C446.244 404.133 446.198 404.318 446.198 404.505C446.198 404.693 446.244 404.877 446.332 405.043C446.418 405.199 446.546 405.328 446.701 405.416C446.863 405.505 447.045 405.551 447.23 405.551C447.415 405.551 447.597 405.505 447.76 405.416V405.416ZM446.716 405.085V405.001L446.733 404.988H446.789C446.808 404.987 446.825 404.979 446.838 404.966C446.851 404.954 446.859 404.936 446.86 404.918V404.039C446.859 404.02 446.851 404.003 446.838 403.99C446.825 403.977 446.808 403.97 446.789 403.969H446.733L446.716 403.955V403.872L446.733 403.859H447.227C447.346 403.852 447.463 403.885 447.561 403.952C447.602 403.983 447.634 404.024 447.656 404.07C447.677 404.116 447.687 404.167 447.685 404.219C447.685 404.262 447.677 404.304 447.66 404.344C447.644 404.384 447.62 404.42 447.589 404.45C447.525 404.516 447.439 404.558 447.347 404.568L447.461 404.602L447.681 404.948C447.687 404.96 447.696 404.969 447.708 404.976C447.719 404.983 447.731 404.987 447.745 404.988H447.801L447.815 405.001V405.085L447.801 405.098H447.511L447.491 405.085L447.184 404.575H447.11V404.918C447.111 404.936 447.119 404.954 447.132 404.966C447.145 404.979 447.162 404.987 447.18 404.988H447.237L447.254 405.001V405.085L447.237 405.098H446.733L446.716 405.085ZM447.194 404.465C447.226 404.467 447.259 404.463 447.29 404.452C447.321 404.441 447.35 404.424 447.374 404.402C447.396 404.377 447.413 404.348 447.424 404.317C447.435 404.285 447.44 404.252 447.437 404.219C447.441 404.153 447.419 404.088 447.377 404.037C447.357 404.014 447.333 403.997 447.305 403.985C447.277 403.973 447.247 403.968 447.217 403.969H447.18C447.162 403.97 447.145 403.978 447.132 403.99C447.119 404.003 447.111 404.02 447.11 404.039V404.465H447.194Z"></path>
<path fill="white" d="M84.588 402.032C84.3349 402.444 84.3388 402.964 84.598 403.372L89.2895 410.761C89.594 411.24 90.1809 411.459 90.7256 411.296L104.264 407.241C105.003 407.02 105.374 406.197 105.052 405.497L96.3484 386.648C95.924 385.729 94.6445 385.653 94.1146 386.516L84.588 402.032ZM96.1172 390.957C95.9322 390.53 95.3058 390.596 95.214 391.052L91.8634 407.709C91.7927 408.06 92.1221 408.36 92.4659 408.258L101.82 405.47C102.093 405.389 102.233 405.088 102.12 404.827L96.1172 390.957Z" clip-rule="evenodd" fill-rule="evenodd"></path>
<path fill="white" d="M113.278 398.585H114.103C114.874 398.585 115.45 398.433 115.833 398.129C116.216 397.824 116.407 397.382 116.407 396.801C116.407 396.214 116.247 395.781 115.926 395.501C115.605 395.221 115.103 395.081 114.418 395.081H113.278V398.585ZM118.937 396.71C118.937 397.98 118.54 398.951 117.744 399.624C116.95 400.297 115.819 400.633 114.354 400.633H113.279V404.83H110.773V393.03H114.548C115.981 393.03 117.071 393.338 117.817 393.954C118.564 394.57 118.937 395.489 118.937 396.71Z" clip-rule="evenodd" fill-rule="evenodd"></path>
<path fill="white" d="M125.581 395.636C125.915 395.636 126.192 395.66 126.413 395.709L126.227 398.017C126.028 397.963 125.785 397.936 125.5 397.936C124.713 397.936 124.1 398.138 123.661 398.541C123.222 398.945 123.002 399.51 123.002 400.236V404.828H120.537V395.806H122.404L122.768 397.323H122.889C123.169 396.817 123.548 396.41 124.025 396.1C124.501 395.791 125.02 395.636 125.581 395.636" clip-rule="evenodd" fill-rule="evenodd"></path>
<path fill="white" d="M127.713 404.828H130.178V395.805H127.713V404.828ZM127.609 393.473C127.609 392.671 128.056 392.271 128.95 392.271C129.845 392.271 130.292 392.671 130.292 393.473C130.292 393.855 130.18 394.152 129.957 394.365C129.733 394.577 129.398 394.683 128.95 394.683C128.056 394.683 127.609 394.28 127.609 393.473Z" clip-rule="evenodd" fill-rule="evenodd"></path>
<path fill="white" d="M138.868 402.149C138.868 403.074 138.546 403.779 137.902 404.263C137.258 404.747 136.295 404.989 135.013 404.989C134.355 404.989 133.795 404.945 133.332 404.856C132.868 404.767 132.434 404.637 132.03 404.465V402.431C132.488 402.646 133.004 402.826 133.578 402.972C134.152 403.117 134.657 403.189 135.093 403.189C135.988 403.189 136.435 402.931 136.435 402.415C136.435 402.221 136.376 402.064 136.258 401.943C136.139 401.822 135.934 401.685 135.643 401.531C135.352 401.378 134.964 401.199 134.479 400.994C133.784 400.704 133.273 400.435 132.948 400.187C132.622 399.94 132.384 399.656 132.237 399.336C132.088 399.016 132.014 398.622 132.014 398.154C132.014 397.352 132.325 396.732 132.948 396.294C133.57 395.855 134.452 395.636 135.595 395.636C136.683 395.636 137.742 395.873 138.771 396.346L138.028 398.122C137.575 397.928 137.152 397.769 136.758 397.645C136.365 397.522 135.964 397.46 135.554 397.46C134.827 397.46 134.463 397.656 134.463 398.049C134.463 398.27 134.581 398.461 134.815 398.622C135.049 398.783 135.562 399.023 136.354 399.34C137.06 399.626 137.578 399.892 137.906 400.139C138.235 400.387 138.477 400.672 138.634 400.994C138.79 401.317 138.868 401.702 138.868 402.149" clip-rule="evenodd" fill-rule="evenodd"></path>
<path fill="white" d="M148.631 404.829H146.166V399.559C146.166 398.908 146.056 398.419 145.839 398.094C145.62 397.768 145.277 397.605 144.808 397.605C144.177 397.605 143.719 397.837 143.434 398.3C143.148 398.762 143.005 399.524 143.005 400.584V404.829H140.54V395.806H142.423L142.755 396.96H142.892C143.135 396.546 143.485 396.221 143.943 395.987C144.401 395.753 144.926 395.636 145.519 395.636C146.872 395.636 147.788 396.078 148.268 396.96H148.486C148.728 396.54 149.085 396.215 149.557 395.983C150.028 395.752 150.561 395.636 151.153 395.636C152.177 395.636 152.952 395.899 153.477 396.423C154.003 396.948 154.265 397.788 154.265 398.945V404.829H151.792V399.559C151.792 398.908 151.683 398.419 151.465 398.094C151.246 397.768 150.903 397.605 150.434 397.605C149.83 397.605 149.379 397.821 149.08 398.251C148.781 398.682 148.631 399.365 148.631 400.301V404.829Z" clip-rule="evenodd" fill-rule="evenodd"></path>
<path fill="white" d="M161.44 400.645L160.486 400.677C159.769 400.699 159.235 400.828 158.885 401.065C158.535 401.302 158.36 401.662 158.36 402.147C158.36 402.841 158.758 403.188 159.556 403.188C160.127 403.188 160.584 403.024 160.926 402.695C161.268 402.367 161.44 401.931 161.44 401.388V400.645ZM162.166 404.825L161.689 403.598H161.624C161.209 404.12 160.783 404.482 160.343 404.684C159.904 404.886 159.332 404.986 158.626 404.986C157.758 404.986 157.075 404.739 156.577 404.244C156.079 403.749 155.829 403.044 155.829 402.13C155.829 401.172 156.165 400.466 156.835 400.011C157.507 399.557 158.518 399.305 159.871 399.257L161.439 399.208V398.813C161.439 397.899 160.97 397.441 160.032 397.441C159.31 397.441 158.461 397.659 157.486 398.095L156.67 396.432C157.71 395.889 158.863 395.617 160.129 395.617C161.342 395.617 162.271 395.881 162.918 396.408C163.564 396.935 163.888 397.737 163.888 398.813V404.825H162.166Z" clip-rule="evenodd" fill-rule="evenodd"></path>
<path fill="white" d="M227.251 399.431H224.832V404.105C224.832 405.358 225.661 405.335 227.251 405.268V407.169C224.003 407.549 222.726 406.655 222.726 404.127V399.453H220.934V397.418H222.726V394.801L224.832 394.175V397.418H227.251V399.431ZM236.48 397.396H238.586V407.147H236.48V405.738C235.741 406.767 234.576 407.393 233.053 407.393C230.387 407.393 228.192 405.156 228.192 402.271C228.192 399.364 230.41 397.15 233.053 397.15C234.576 397.15 235.741 397.776 236.48 398.782V397.396V397.396ZM233.389 405.402C235.158 405.402 236.48 404.105 236.48 402.271C236.48 400.46 235.158 399.14 233.389 399.14C231.642 399.14 230.298 400.437 230.298 402.271C230.298 404.105 231.642 405.402 233.389 405.402ZM242.102 395.942C241.363 395.942 240.758 395.316 240.758 394.6C240.758 393.862 241.363 393.258 242.102 393.258C242.842 393.258 243.446 393.862 243.446 394.6C243.469 395.316 242.842 395.942 242.102 395.942ZM241.05 407.147V397.396H243.155V407.147H241.05ZM245.597 407.147V392.9H247.702V407.147H245.597ZM261.411 397.396H263.629L260.56 407.147H258.499L256.461 400.571L254.4 407.147H252.339L249.271 397.396H251.488L253.392 404.127L255.453 397.396H257.469L259.507 404.127L261.411 397.396ZM266.272 395.942C265.533 395.942 264.928 395.316 264.928 394.6C264.928 393.862 265.533 393.258 266.272 393.258C267.011 393.258 267.616 393.862 267.616 394.6C267.616 395.316 267.011 395.942 266.272 395.942ZM265.197 407.147V397.396H267.303V407.147H265.197ZM274.896 397.15C277.091 397.15 278.659 398.626 278.659 401.175V407.169H276.554V401.377C276.554 399.901 275.703 399.118 274.359 399.118C272.97 399.118 271.872 399.945 271.872 401.936V407.169H269.767V397.418H271.872V398.67C272.522 397.642 273.575 397.15 274.896 397.15ZM288.65 393.504H290.756V407.169H288.65V405.76C287.911 406.789 286.746 407.415 285.223 407.415C282.557 407.415 280.362 405.179 280.362 402.294C280.362 399.386 282.58 397.172 285.223 397.172C286.746 397.172 287.911 397.798 288.65 398.805V393.504ZM285.581 405.402C287.351 405.402 288.672 404.105 288.672 402.271C288.672 400.46 287.351 399.14 285.581 399.14C283.834 399.14 282.49 400.437 282.49 402.271C282.49 404.105 283.812 405.402 285.581 405.402ZM297.834 407.415C294.877 407.415 292.682 405.179 292.682 402.294C292.682 399.386 294.9 397.172 297.834 397.172C299.76 397.172 301.418 398.156 302.202 399.699L300.388 400.75C299.962 399.833 298.999 399.252 297.834 399.252C296.109 399.252 294.81 400.549 294.81 402.316C294.81 404.083 296.109 405.38 297.834 405.38C298.999 405.38 299.962 404.776 300.432 403.881L302.247 404.91C301.418 406.409 299.76 407.415 297.834 407.415ZM305.719 400.102C305.719 401.869 310.983 400.795 310.983 404.418C310.983 406.364 309.28 407.415 307.175 407.415C305.226 407.415 303.815 406.543 303.188 405.134L305.002 404.083C305.316 404.955 306.1 405.492 307.175 405.492C308.116 405.492 308.832 405.179 308.832 404.396C308.832 402.651 303.568 403.635 303.568 400.147C303.568 398.313 305.159 397.172 307.152 397.172C308.765 397.172 310.087 397.91 310.759 399.207L308.989 400.191C308.631 399.431 307.959 399.073 307.152 399.073C306.391 399.051 305.719 399.386 305.719 400.102ZM314.724 400.102C314.724 401.869 319.988 400.795 319.988 404.418C319.988 406.364 318.285 407.415 316.18 407.415C314.231 407.415 312.82 406.543 312.193 405.134L314.007 404.083C314.321 404.955 315.105 405.492 316.18 405.492C317.121 405.492 317.837 405.179 317.837 404.396C317.837 402.651 312.573 403.635 312.573 400.147C312.573 398.313 314.164 397.172 316.157 397.172C317.77 397.172 319.092 397.91 319.764 399.207L317.994 400.191C317.636 399.431 316.964 399.073 316.157 399.073C315.396 399.051 314.724 399.386 314.724 400.102Z" clip-rule="evenodd" fill-rule="evenodd"></path>
<path fill="white" d="M199.475 392.429C195.779 392.429 193.449 394.285 192.531 397.976C193.92 396.119 195.532 395.426 197.392 395.896C198.445 396.164 199.206 396.925 200.035 397.774C201.401 399.161 202.969 400.749 206.419 400.749C210.115 400.749 212.445 398.893 213.363 395.202C211.974 397.059 210.362 397.752 208.502 397.282C207.449 397.014 206.688 396.254 205.859 395.404C204.493 394.017 202.925 392.429 199.475 392.429ZM192.531 400.727C188.835 400.727 186.505 402.583 185.587 406.273C186.975 404.417 188.588 403.724 190.448 404.193C191.5 404.462 192.262 405.222 193.091 406.072C194.457 407.459 196.025 409.046 199.475 409.046C203.171 409.046 205.501 407.19 206.419 403.5C205.03 405.356 203.417 406.05 201.558 405.58C200.505 405.311 199.744 404.551 198.915 403.701C197.548 402.337 195.98 400.727 192.531 400.727Z" clip-rule="evenodd" fill-rule="evenodd"></path>
<path fill="white" d="M483.879 401.766C484.026 403.653 484.026 404.538 484.026 405.503H479.652C479.652 405.293 479.656 405.1 479.66 404.905C479.672 404.299 479.684 403.666 479.586 402.389C479.456 400.519 478.649 400.104 477.166 400.104H475.852H470.288V396.702H477.374C479.247 396.702 480.184 396.133 480.184 394.627C480.184 393.302 479.247 392.499 477.374 392.499H470.288V389.17H478.155C482.396 389.17 484.503 391.17 484.503 394.364C484.503 396.754 483.02 398.312 481.017 398.571C482.708 398.909 483.696 399.87 483.879 401.766Z" clip-rule="evenodd" fill-rule="evenodd"></path>
<path fill="white" d="M470.288 405.503V402.967H474.912C475.684 402.967 475.852 403.539 475.852 403.88V405.503H470.288Z"></path>
<path fill="white" d="M536.807 393.95H532.462L530.485 396.703L528.559 393.95H523.902L528.091 399.638L523.538 405.533H527.883L530.198 402.391L532.514 405.533H537.171L532.592 399.456L536.807 393.95Z"></path>
<path fill="white" d="M493.604 401.402C493.214 402.311 492.486 402.7 491.341 402.7C490.066 402.7 489.025 402.025 488.921 400.597H497.065V399.428C497.065 396.286 495.009 393.637 491.133 393.637C487.516 393.637 484.81 396.26 484.81 399.921C484.81 403.609 487.464 405.843 491.185 405.843C494.255 405.843 496.388 404.362 496.987 401.713L493.604 401.402ZM488.973 398.571C489.129 397.48 489.728 396.649 491.081 396.649C492.329 396.649 493.006 397.532 493.058 398.571H488.973Z"></path>
<path fill="white" d="M509.441 395.922C508.946 394.572 507.88 393.637 505.824 393.637C504.081 393.637 502.832 394.416 502.208 395.688V393.948H497.993V405.531H502.208V399.843C502.208 398.103 502.702 396.961 504.081 396.961C505.356 396.961 505.668 397.792 505.668 399.376V405.531H509.883V399.843C509.883 398.103 510.351 396.961 511.756 396.961C513.031 396.961 513.317 397.792 513.317 399.376V405.531H517.532V398.259C517.532 395.844 516.595 393.637 513.395 393.637C511.444 393.637 510.065 394.624 509.441 395.922Z"></path>
<path fill="white" d="M518.91 393.949V405.532H523.125V393.949H518.91ZM518.884 392.858H523.151V389.17H518.884V392.858Z"></path>
<path stroke-width="1.75556" stroke="#68D391" d="M146.589 68.4666H406.411C412.471 68.4666 417.384 73.3791 417.384 79.4389V120.694C417.384 126.754 412.471 131.667 406.411 131.667H146.589V68.4666Z"></path>
<path fill="white" d="M178.351 111.199C177.022 111.199 175.84 110.94 174.807 110.424C173.791 109.888 172.998 109.141 172.426 108.181C171.872 107.202 171.595 106.086 171.595 104.83V97.6591C171.595 96.4039 171.872 95.3056 172.426 94.3642C172.998 93.4043 173.791 92.6659 174.807 92.1491C175.84 91.6138 177.022 91.3461 178.351 91.3461C179.68 91.3461 180.852 91.6045 181.867 92.1214C182.883 92.6198 183.667 93.3304 184.221 94.2534C184.793 95.1764 185.079 96.247 185.079 97.4653V97.493C185.079 97.5853 185.052 97.6591 184.996 97.7145C184.941 97.7699 184.876 97.7976 184.802 97.7976L182.698 97.9083C182.513 97.9083 182.421 97.8253 182.421 97.6591V97.5761C182.421 96.3947 182.052 95.444 181.314 94.7241C180.575 94.0042 179.588 93.6443 178.351 93.6443C177.114 93.6443 176.117 94.0042 175.361 94.7241C174.622 95.444 174.253 96.3947 174.253 97.5761V104.941C174.253 106.123 174.622 107.073 175.361 107.793C176.117 108.513 177.114 108.873 178.351 108.873C179.588 108.873 180.575 108.513 181.314 107.793C182.052 107.073 182.421 106.123 182.421 104.941V104.886C182.421 104.72 182.513 104.637 182.698 104.637L184.802 104.747C184.987 104.747 185.079 104.84 185.079 105.024C185.079 106.243 184.793 107.322 184.221 108.264C183.667 109.187 182.883 109.907 181.867 110.424C180.852 110.94 179.68 111.199 178.351 111.199ZM195.253 111.199C193.905 111.199 192.715 110.922 191.681 110.368C190.647 109.814 189.844 109.039 189.272 108.042C188.7 107.027 188.414 105.864 188.414 104.554V97.9637C188.414 96.6531 188.7 95.4994 189.272 94.5026C189.844 93.5058 190.647 92.7305 191.681 92.1768C192.715 91.623 193.905 91.3461 195.253 91.3461C196.619 91.3461 197.819 91.623 198.852 92.1768C199.886 92.7305 200.689 93.5058 201.261 94.5026C201.833 95.4994 202.12 96.6531 202.12 97.9637V104.554C202.12 105.864 201.833 107.027 201.261 108.042C200.689 109.039 199.886 109.814 198.852 110.368C197.819 110.922 196.619 111.199 195.253 111.199ZM195.253 108.901C196.508 108.901 197.523 108.513 198.298 107.738C199.074 106.963 199.461 105.938 199.461 104.664V97.936C199.461 96.6439 199.074 95.6102 198.298 94.8349C197.523 94.0411 196.508 93.6443 195.253 93.6443C193.997 93.6443 192.982 94.0411 192.207 94.8349C191.45 95.6102 191.072 96.6439 191.072 97.936V104.664C191.072 105.938 191.45 106.963 192.207 107.738C192.982 108.513 193.997 108.901 195.253 108.901ZM212.782 111.171C211.434 111.171 210.243 110.913 209.21 110.396C208.195 109.861 207.401 109.113 206.829 108.153C206.256 107.175 205.97 106.058 205.97 104.803V91.8445C205.97 91.6599 206.062 91.5676 206.247 91.5676H208.351C208.536 91.5676 208.628 91.6599 208.628 91.8445V104.858C208.628 106.058 209.007 107.027 209.764 107.766C210.539 108.504 211.545 108.873 212.782 108.873C214.018 108.873 215.015 108.504 215.772 107.766C216.529 107.027 216.907 106.058 216.907 104.858V91.8445C216.907 91.6599 217 91.5676 217.184 91.5676H219.288C219.473 91.5676 219.565 91.6599 219.565 91.8445V104.803C219.565 106.058 219.279 107.175 218.707 108.153C218.153 109.113 217.359 109.861 216.326 110.396C215.311 110.913 214.129 111.171 212.782 111.171ZM234.95 110.95C234.802 110.95 234.701 110.885 234.645 110.756L230.769 102.477C230.75 102.422 230.714 102.394 230.658 102.394H226.671C226.597 102.394 226.56 102.431 226.56 102.505V110.673C226.56 110.857 226.468 110.95 226.283 110.95H224.179C223.994 110.95 223.902 110.857 223.902 110.673V91.8445C223.902 91.6599 223.994 91.5676 224.179 91.5676H231.627C232.735 91.5676 233.704 91.7983 234.535 92.2598C235.384 92.7213 236.039 93.3674 236.5 94.198C236.962 95.0287 237.193 95.9886 237.193 97.0777C237.193 98.3698 236.851 99.4681 236.168 100.373C235.504 101.259 234.571 101.859 233.372 102.172C233.298 102.209 233.279 102.255 233.316 102.311L237.331 110.617C237.35 110.654 237.359 110.701 237.359 110.756C237.359 110.885 237.285 110.95 237.137 110.95H234.95ZM226.671 93.8658C226.597 93.8658 226.56 93.9027 226.56 93.9765V100.179C226.56 100.253 226.597 100.29 226.671 100.29H231.295C232.273 100.29 233.058 100.003 233.649 99.4312C234.239 98.8405 234.535 98.0652 234.535 97.1053C234.535 96.127 234.239 95.3425 233.649 94.7518C233.058 94.1611 232.273 93.8658 231.295 93.8658H226.671ZM246.864 111.171C245.442 111.171 244.206 110.95 243.154 110.507C242.12 110.064 241.317 109.436 240.745 108.624C240.191 107.812 239.914 106.861 239.914 105.772V104.969C239.914 104.784 240.006 104.692 240.191 104.692H242.212C242.397 104.692 242.489 104.784 242.489 104.969V105.633C242.489 106.575 242.895 107.35 243.707 107.959C244.52 108.568 245.636 108.873 247.058 108.873C248.331 108.873 249.291 108.605 249.937 108.07C250.583 107.535 250.906 106.833 250.906 105.966C250.906 105.394 250.74 104.904 250.408 104.498C250.076 104.092 249.587 103.723 248.94 103.391C248.313 103.04 247.39 102.625 246.172 102.145C244.824 101.628 243.753 101.157 242.96 100.733C242.184 100.308 241.538 99.7542 241.022 99.0712C240.505 98.3698 240.246 97.493 240.246 96.4408C240.246 94.8533 240.809 93.6073 241.935 92.7028C243.08 91.7983 244.621 91.3461 246.559 91.3461C247.925 91.3461 249.125 91.5768 250.159 92.0383C251.192 92.4998 251.986 93.1459 252.54 93.9765C253.112 94.8072 253.398 95.7671 253.398 96.8561V97.4099C253.398 97.5945 253.306 97.6868 253.121 97.6868H251.045C250.86 97.6868 250.768 97.5945 250.768 97.4099V96.9946C250.768 96.0347 250.38 95.241 249.605 94.6134C248.848 93.9673 247.796 93.6443 246.448 93.6443C245.304 93.6443 244.418 93.8842 243.79 94.3642C243.163 94.8256 242.849 95.4994 242.849 96.3854C242.849 96.9946 243.006 97.493 243.32 97.8806C243.633 98.2683 244.095 98.619 244.704 98.9328C245.332 99.2281 246.282 99.6158 247.556 100.096C248.867 100.613 249.928 101.093 250.74 101.536C251.552 101.96 252.226 102.532 252.762 103.252C253.297 103.954 253.564 104.83 253.564 105.883C253.564 107.507 252.965 108.799 251.765 109.759C250.583 110.701 248.95 111.171 246.864 111.171ZM270.036 93.5889C270.036 93.7735 269.944 93.8658 269.759 93.8658H259.93C259.856 93.8658 259.819 93.9027 259.819 93.9765V99.9296C259.819 100.003 259.856 100.04 259.93 100.04H266.686C266.871 100.04 266.963 100.133 266.963 100.317V102.062C266.963 102.246 266.871 102.339 266.686 102.339H259.93C259.856 102.339 259.819 102.375 259.819 102.449V108.541C259.819 108.615 259.856 108.652 259.93 108.652H269.759C269.944 108.652 270.036 108.744 270.036 108.928V110.673C270.036 110.857 269.944 110.95 269.759 110.95H257.438C257.253 110.95 257.161 110.857 257.161 110.673V91.8445C257.161 91.6599 257.253 91.5676 257.438 91.5676H269.759C269.944 91.5676 270.036 91.6599 270.036 91.8445V93.5889ZM292.382 91.5399C293.508 91.5399 294.496 91.7799 295.345 92.2598C296.213 92.7213 296.877 93.3766 297.339 94.2257C297.819 95.0748 298.059 96.0532 298.059 97.1607C298.059 98.2683 297.819 99.2374 297.339 100.068C296.859 100.899 296.176 101.545 295.29 102.006C294.422 102.468 293.416 102.698 292.272 102.698H287.398C287.325 102.698 287.288 102.735 287.288 102.809V110.673C287.288 110.857 287.195 110.95 287.011 110.95H284.906C284.722 110.95 284.63 110.857 284.63 110.673V91.8168C284.63 91.6322 284.722 91.5399 284.906 91.5399H292.382ZM292.022 100.539C293.038 100.539 293.85 100.234 294.459 99.625C295.087 99.0159 295.4 98.2129 295.4 97.2161C295.4 96.2008 295.087 95.3886 294.459 94.7795C293.85 94.1519 293.038 93.8381 292.022 93.8381H287.398C287.325 93.8381 287.288 93.875 287.288 93.9488V100.428C287.288 100.502 287.325 100.539 287.398 100.539H292.022ZM312.003 110.95C311.837 110.95 311.726 110.876 311.671 110.728L310.674 107.489C310.656 107.433 310.619 107.406 310.563 107.406H302.783C302.727 107.406 302.69 107.433 302.672 107.489L301.675 110.728C301.62 110.876 301.509 110.95 301.343 110.95H299.1C298.897 110.95 298.823 110.848 298.879 110.645L304.942 91.7891C304.998 91.6414 305.109 91.5676 305.275 91.5676H308.044C308.21 91.5676 308.32 91.6414 308.376 91.7891L314.495 110.645L314.523 110.756C314.523 110.885 314.44 110.95 314.274 110.95H312.003ZM303.364 105.163C303.346 105.2 303.346 105.237 303.364 105.274C303.401 105.292 303.438 105.301 303.475 105.301H309.843C309.88 105.301 309.908 105.292 309.926 105.274C309.963 105.237 309.973 105.2 309.954 105.163L306.742 94.8902C306.724 94.8533 306.696 94.8349 306.659 94.8349C306.622 94.8349 306.595 94.8533 306.576 94.8902L303.364 105.163ZM328.724 110.95C328.576 110.95 328.475 110.885 328.419 110.756L324.543 102.477C324.524 102.422 324.487 102.394 324.432 102.394H320.445C320.371 102.394 320.334 102.431 320.334 102.505V110.673C320.334 110.857 320.242 110.95 320.057 110.95H317.953C317.768 110.95 317.676 110.857 317.676 110.673V91.8445C317.676 91.6599 317.768 91.5676 317.953 91.5676H325.401C326.509 91.5676 327.478 91.7983 328.308 92.2598C329.158 92.7213 329.813 93.3674 330.274 94.198C330.736 95.0287 330.967 95.9886 330.967 97.0777C330.967 98.3698 330.625 99.4681 329.942 100.373C329.278 101.259 328.345 101.859 327.146 102.172C327.072 102.209 327.053 102.255 327.09 102.311L331.105 110.617C331.123 110.654 331.133 110.701 331.133 110.756C331.133 110.885 331.059 110.95 330.911 110.95H328.724ZM320.445 93.8658C320.371 93.8658 320.334 93.9027 320.334 93.9765V100.179C320.334 100.253 320.371 100.29 320.445 100.29H325.069C326.047 100.29 326.832 100.003 327.422 99.4312C328.013 98.8405 328.308 98.0652 328.308 97.1053C328.308 96.127 328.013 95.3425 327.422 94.7518C326.832 94.1611 326.047 93.8658 325.069 93.8658H320.445ZM346.951 91.5676C347.136 91.5676 347.228 91.6599 347.228 91.8445V93.6166C347.228 93.8012 347.136 93.8935 346.951 93.8935H341.635C341.561 93.8935 341.524 93.9304 341.524 94.0042V110.673C341.524 110.857 341.432 110.95 341.248 110.95H339.143C338.959 110.95 338.866 110.857 338.866 110.673V94.0042C338.866 93.9304 338.829 93.8935 338.756 93.8935H333.689C333.504 93.8935 333.412 93.8012 333.412 93.6166V91.8445C333.412 91.6599 333.504 91.5676 333.689 91.5676H346.951ZM366.76 102.366C366.963 103.178 367.065 104.018 367.065 104.886C367.065 105.753 366.954 106.556 366.733 107.295C366.382 108.476 365.708 109.418 364.711 110.119C363.733 110.802 362.561 111.144 361.195 111.144C359.847 111.144 358.694 110.811 357.734 110.147C356.774 109.482 356.1 108.578 355.713 107.433C355.528 106.916 355.426 106.464 355.408 106.076V106.021C355.408 105.873 355.491 105.8 355.657 105.8H357.845C358.011 105.8 358.103 105.883 358.121 106.049C358.14 106.178 358.186 106.372 358.26 106.63C358.463 107.313 358.814 107.858 359.312 108.264C359.829 108.652 360.447 108.845 361.167 108.845C361.924 108.845 362.561 108.642 363.078 108.236C363.613 107.812 363.973 107.23 364.158 106.492C364.287 106.104 364.351 105.569 364.351 104.886C364.351 104.277 364.296 103.714 364.185 103.197C364.056 102.495 363.724 101.96 363.188 101.591C362.672 101.203 362.026 101.009 361.25 101.009C360.53 101.009 359.884 101.176 359.312 101.508C358.74 101.822 358.371 102.246 358.204 102.782C358.149 102.948 358.048 103.031 357.9 103.031H355.685C355.5 103.031 355.408 102.938 355.408 102.754V91.8445C355.408 91.6599 355.5 91.5676 355.685 91.5676H366.04C366.225 91.5676 366.317 91.6599 366.317 91.8445V93.5889C366.317 93.7735 366.225 93.8658 366.04 93.8658H358.177C358.103 93.8658 358.066 93.9027 358.066 93.9765L358.038 99.7635C358.038 99.8742 358.085 99.9019 358.177 99.8465C358.62 99.4589 359.127 99.1728 359.7 98.9882C360.29 98.7851 360.909 98.6836 361.555 98.6836C362.847 98.6836 363.955 99.0066 364.877 99.6527C365.819 100.299 366.447 101.203 366.76 102.366ZM369.32 110.95C369.117 110.95 369.043 110.848 369.098 110.645L375.605 91.7891C375.661 91.6414 375.771 91.5676 375.937 91.5676H378.014C378.217 91.5676 378.291 91.6691 378.236 91.8722L371.729 110.728C371.673 110.876 371.563 110.95 371.396 110.95H369.32ZM393.043 102.366C393.246 103.178 393.348 104.018 393.348 104.886C393.348 105.753 393.237 106.556 393.015 107.295C392.665 108.476 391.991 109.418 390.994 110.119C390.016 110.802 388.844 111.144 387.478 111.144C386.13 111.144 384.976 110.811 384.016 110.147C383.057 109.482 382.383 108.578 381.995 107.433C381.811 106.916 381.709 106.464 381.691 106.076V106.021C381.691 105.873 381.774 105.8 381.94 105.8H384.127C384.293 105.8 384.386 105.883 384.404 106.049C384.423 106.178 384.469 106.372 384.543 106.63C384.746 107.313 385.096 107.858 385.595 108.264C386.112 108.652 386.73 108.845 387.45 108.845C388.207 108.845 388.844 108.642 389.36 108.236C389.896 107.812 390.256 107.23 390.44 106.492C390.569 106.104 390.634 105.569 390.634 104.886C390.634 104.277 390.579 103.714 390.468 103.197C390.339 102.495 390.006 101.96 389.471 101.591C388.954 101.203 388.308 101.009 387.533 101.009C386.813 101.009 386.167 101.176 385.595 101.508C385.022 101.822 384.653 102.246 384.487 102.782C384.432 102.948 384.33 103.031 384.183 103.031H381.967C381.783 103.031 381.691 102.938 381.691 102.754V91.8445C381.691 91.6599 381.783 91.5676 381.967 91.5676H392.323C392.508 91.5676 392.6 91.6599 392.6 91.8445V93.5889C392.6 93.7735 392.508 93.8658 392.323 93.8658H384.459C384.386 93.8658 384.349 93.9027 384.349 93.9765L384.321 99.7635C384.321 99.8742 384.367 99.9019 384.459 99.8465C384.902 99.4589 385.41 99.1728 385.982 98.9882C386.573 98.7851 387.191 98.6836 387.837 98.6836C389.13 98.6836 390.237 99.0066 391.16 99.6527C392.102 100.299 392.729 101.203 393.043 102.366Z"></path>
<path fill="#68D391" d="M85.1444 79.4389C85.1444 72.8943 90.4498 67.5889 96.9944 67.5889H150.1V132.544H96.9944C90.4498 132.544 85.1444 127.239 85.1444 120.694V79.4389Z"></path>
<path fill="#434190" d="M101.85 106.185C101.437 106.857 101.443 107.706 101.866 108.372L109.522 120.43C110.019 121.213 110.977 121.569 111.866 121.303L133.96 114.686C135.166 114.324 135.772 112.982 135.245 111.84L121.042 81.0793C120.35 79.5791 118.261 79.456 117.397 80.8643L101.85 106.185ZM120.665 88.1115C120.363 87.4141 119.341 87.5215 119.191 88.2664L113.723 115.45C113.607 116.023 114.145 116.513 114.706 116.345L129.971 111.796C130.417 111.663 130.646 111.172 130.462 110.745L120.665 88.1115Z" clip-rule="evenodd" fill-rule="evenodd"></path>
<path fill="url(#paint2_linear_7080_3978)" d="M775.106 400.847L912.163 325.292L1046.93 400.847L912.163 477.512L775.106 400.847Z"></path>
<path stroke-width="2.45727" stroke="#434190" fill="url(#paint3_linear_7080_3978)" d="M714.723 307.087L912.198 199.221L1106.37 307.087L912.198 416.54L714.723 307.087Z"></path>
<path stroke-width="2.45727" stroke="#434190" fill="url(#paint4_linear_7080_3978)" d="M654.531 202.529L913.101 67.8901L1167.34 202.529L913.101 339.149L654.531 202.529Z"></path>
<path stroke-width="2.45727" stroke="#434190" fill="url(#paint5_linear_7080_3978)" d="M602.156 89.4468L910.39 -61.877L1213.47 89.4468L910.39 242.996L602.156 89.4468Z"></path>
</g>
<defs>
<linearGradient gradientUnits="userSpaceOnUse" y2="-14.0442" x2="54.1148" y1="283.898" x1="574.217" id="paint0_linear_7080_3978">
<stop stop-opacity="0.1" stop-color="white"></stop>
<stop stop-opacity="0" stop-color="white" offset="0.972576"></stop>
</linearGradient>
<linearGradient gradientUnits="userSpaceOnUse" y2="71.9904" x2="410.581" y1="469.172" x1="410.581" id="paint1_linear_7080_3978">
<stop stop-opacity="0" stop-color="#434190"></stop>
<stop stop-color="#434190" offset="0.741935"></stop>
</linearGradient>
<linearGradient gradientUnits="userSpaceOnUse" y2="477.512" x2="911.016" y1="325.292" x1="911.016" id="paint2_linear_7080_3978">
<stop stop-opacity="0" stop-color="white" offset="0.183968"></stop>
<stop stop-color="white" offset="1"></stop>
</linearGradient>
<linearGradient gradientUnits="userSpaceOnUse" y2="416.54" x2="910.546" y1="199.221" x1="910.546" id="paint3_linear_7080_3978">
<stop stop-opacity="0" stop-color="white" offset="0.173551"></stop>
<stop stop-opacity="0.6" stop-color="white" offset="1"></stop>
</linearGradient>
<linearGradient gradientUnits="userSpaceOnUse" y2="339.149" x2="910.937" y1="67.8901" x1="910.937" id="paint4_linear_7080_3978">
<stop stop-color="#EBF4FF"></stop>
<stop stop-opacity="0.5" stop-color="#A3BFFA" offset="0.512099"></stop>
<stop stop-opacity="0.2" stop-color="#EBF4FF" offset="1"></stop>
</linearGradient>
<linearGradient gradientUnits="userSpaceOnUse" y2="242.996" x2="907.811" y1="-61.877" x1="907.811" id="paint5_linear_7080_3978">
<stop stop-color="#68D391"></stop>
<stop stop-opacity="0.6" stop-color="#C3DAFE" offset="0.512099"></stop>
<stop stop-color="#A3BFFA" offset="1"></stop>
</linearGradient>
<clipPath id="clip0_7080_3978">
<rect fill="white" height="474" width="844"></rect>
</clipPath>
</defs>
</svg>
