<svg xmlns="http://www.w3.org/2000/svg" fill="none" viewBox="0 0 844 474" height="474" width="844">
<rect fill="url(#paint0_radial_1919_66596)" height="474" width="844"></rect>
<line stroke-width="1.46059" stroke="#5A67D8" y2="442.73" x2="819.726" y1="442.73" x1="24.2742"></line>
<line stroke-width="1.46059" stroke="#5A67D8" y2="392.73" x2="819.726" y1="392.73" x1="24.2742"></line>
<line stroke-width="1.46059" stroke="#5A67D8" y2="342.73" x2="819.726" y1="342.73" x1="24.2742"></line>
<line stroke-width="1.46059" stroke="#5A67D8" y2="292.73" x2="819.726" y1="292.73" x1="24.2742"></line>
<line stroke-width="1.46059" stroke="#5A67D8" y2="242.73" x2="819.726" y1="242.73" x1="24.2742"></line>
<line stroke-width="1.46059" stroke="#5A67D8" y2="192.73" x2="819.726" y1="192.73" x1="24.2742"></line>
<line stroke-width="1.46059" stroke="#5A67D8" y2="142.73" x2="819.726" y1="142.73" x1="24.2742"></line>
<line stroke-width="1.46059" stroke="#5A67D8" y2="92.7297" x2="819.726" y1="92.7297" x1="24.2742"></line>
<line stroke-width="1.46059" stroke="#5A67D8" y2="42.7297" x2="819.726" y1="42.7297" x1="24.2742"></line>
<g filter="url(#filter0_ddd_1919_66596)">
<rect fill="url(#paint1_linear_1919_66596)" rx="76.1705" height="152.341" width="462.599" y="160.83" x="189.8"></rect>
</g>
<rect fill="#566EF9" rx="60.4283" height="120.857" width="424.431" y="176.572" x="209.059"></rect>
<g filter="url(#filter1_dd_1919_66596)">
<g filter="url(#filter2_ddd_1919_66596)">
<rect fill="url(#paint2_linear_1919_66596)" rx="60.5" height="121.37" width="121" y="176.571" x="209"></rect>
</g>
<path fill="white" d="M250.033 228.515C245.448 228.515 241.882 224.949 241.882 220.364C241.882 215.881 245.448 212.213 250.033 212.213C254.516 212.213 258.184 215.881 258.184 220.364C258.184 224.949 254.516 228.515 250.033 228.515ZM287.527 228.515C282.942 228.515 279.376 224.949 279.376 220.364C279.376 215.881 282.942 212.213 287.527 212.213C292.01 212.213 295.678 215.881 295.678 220.364C295.678 224.949 292.01 228.515 287.527 228.515ZM235.362 242.677C235.362 236.665 240.15 231.775 246.162 231.775H250.543C252.173 231.775 253.701 232.182 255.127 232.794C254.924 233.507 254.924 234.322 254.924 235.035C254.924 239.009 256.554 242.473 259.305 244.816C259.305 244.816 259.305 244.816 259.203 244.816H237.501C236.279 244.816 235.362 243.899 235.362 242.677ZM276.625 244.816H276.523C279.274 242.473 280.904 239.009 280.904 235.035C280.904 234.322 280.904 233.507 280.802 232.794C282.127 232.182 283.655 231.775 285.285 231.775H289.666C295.678 231.775 300.568 236.665 300.568 242.677C300.568 243.899 299.549 244.816 298.327 244.816H276.625ZM277.746 235.035C277.746 240.435 273.365 244.816 267.965 244.816C262.565 244.816 258.184 240.435 258.184 235.035C258.184 229.635 262.565 225.254 267.965 225.254C273.365 225.254 277.746 229.635 277.746 235.035ZM248.403 261.729C248.403 254.19 254.414 248.076 261.954 248.076H273.874C281.414 248.076 287.527 254.19 287.527 261.729C287.527 263.155 286.304 264.378 284.776 264.378H251.052C249.626 264.378 248.403 263.257 248.403 261.729Z"></path>
</g>
<path stroke-linejoin="round" stroke-linecap="round" stroke-width="6.7184" stroke-opacity="0.48" stroke="white" d="M408.355 216.42L427.48 235.545L408.355 254.67"></path>
<path stroke-linejoin="round" stroke-linecap="round" stroke-width="6.7184" stroke-opacity="0.82" stroke="white" d="M436.438 216.42L455.562 235.545L436.438 254.67"></path>
<path stroke-linejoin="round" stroke-linecap="round" stroke-width="6.7184" stroke="white" d="M464.52 216.42L483.645 235.545L464.52 254.67"></path>
<defs>
<filter color-interpolation-filters="sRGB" filterUnits="userSpaceOnUse" height="258.341" width="554.598" y="114.83" x="143.8" id="filter0_ddd_1919_66596">
<feFlood result="BackgroundImageFix" flood-opacity="0"></feFlood>
<feColorMatrix result="hardAlpha" values="0 0 0 0 0 0 0 0 0 0 0 0 0 0 0 0 0 0 127 0" type="matrix" in="SourceAlpha"></feColorMatrix>
<feOffset dy="18"></feOffset>
<feGaussianBlur stdDeviation="21"></feGaussianBlur>
<feColorMatrix values="0 0 0 0 0.0901961 0 0 0 0 0.168627 0 0 0 0 0.301961 0 0 0 0.08 0" type="matrix"></feColorMatrix>
<feBlend result="effect1_dropShadow_1919_66596" in2="BackgroundImageFix" mode="normal"></feBlend>
<feColorMatrix result="hardAlpha" values="0 0 0 0 0 0 0 0 0 0 0 0 0 0 0 0 0 0 127 0" type="matrix" in="SourceAlpha"></feColorMatrix>
<feOffset dy="4"></feOffset>
<feGaussianBlur stdDeviation="13"></feGaussianBlur>
<feColorMatrix values="0 0 0 0 0.0901961 0 0 0 0 0.168627 0 0 0 0 0.301961 0 0 0 0.05 0" type="matrix"></feColorMatrix>
<feBlend result="effect2_dropShadow_1919_66596" in2="effect1_dropShadow_1919_66596" mode="normal"></feBlend>
<feColorMatrix result="hardAlpha" values="0 0 0 0 0 0 0 0 0 0 0 0 0 0 0 0 0 0 127 0" type="matrix" in="SourceAlpha"></feColorMatrix>
<feOffset></feOffset>
<feGaussianBlur stdDeviation="23"></feGaussianBlur>
<feComposite operator="out" in2="hardAlpha"></feComposite>
<feColorMatrix values="0 0 0 0 0.0901961 0 0 0 0 0.168627 0 0 0 0 0.301961 0 0 0 0.01 0" type="matrix"></feColorMatrix>
<feBlend result="effect3_dropShadow_1919_66596" in2="effect2_dropShadow_1919_66596" mode="normal"></feBlend>
<feBlend result="shape" in2="effect3_dropShadow_1919_66596" in="SourceGraphic" mode="normal"></feBlend>
</filter>
<filter color-interpolation-filters="sRGB" filterUnits="userSpaceOnUse" height="131.081" width="128.29" y="176.571" x="205.369" id="filter1_dd_1919_66596">
<feFlood result="BackgroundImageFix" flood-opacity="0"></feFlood>
<feColorMatrix result="hardAlpha" values="0 0 0 0 0 0 0 0 0 0 0 0 0 0 0 0 0 0 127 0" type="matrix" in="SourceAlpha"></feColorMatrix>
<feOffset dy="6.0514"></feOffset>
<feGaussianBlur stdDeviation="1.81542"></feGaussianBlur>
<feColorMatrix values="0 0 0 0 0.0901961 0 0 0 0 0.168627 0 0 0 0 0.301961 0 0 0 0.08 0" type="matrix"></feColorMatrix>
<feBlend result="effect1_dropShadow_1919_66596" in2="BackgroundImageFix" mode="normal"></feBlend>
<feColorMatrix result="hardAlpha" values="0 0 0 0 0 0 0 0 0 0 0 0 0 0 0 0 0 0 127 0" type="matrix" in="SourceAlpha"></feColorMatrix>
<feOffset dy="3.63084"></feOffset>
<feGaussianBlur stdDeviation="1.21028"></feGaussianBlur>
<feColorMatrix values="0 0 0 0 0.0901961 0 0 0 0 0.168627 0 0 0 0 0.301961 0 0 0 0.04 0" type="matrix"></feColorMatrix>
<feBlend result="effect2_dropShadow_1919_66596" in2="effect1_dropShadow_1919_66596" mode="normal"></feBlend>
<feBlend result="shape" in2="effect2_dropShadow_1919_66596" in="SourceGraphic" mode="normal"></feBlend>
</filter>
<filter color-interpolation-filters="sRGB" filterUnits="userSpaceOnUse" height="227.37" width="213" y="130.571" x="163" id="filter2_ddd_1919_66596">
<feFlood result="BackgroundImageFix" flood-opacity="0"></feFlood>
<feColorMatrix result="hardAlpha" values="0 0 0 0 0 0 0 0 0 0 0 0 0 0 0 0 0 0 127 0" type="matrix" in="SourceAlpha"></feColorMatrix>
<feOffset dy="18"></feOffset>
<feGaussianBlur stdDeviation="21"></feGaussianBlur>
<feColorMatrix values="0 0 0 0 0.0901961 0 0 0 0 0.168627 0 0 0 0 0.301961 0 0 0 0.08 0" type="matrix"></feColorMatrix>
<feBlend result="effect1_dropShadow_1919_66596" in2="BackgroundImageFix" mode="normal"></feBlend>
<feColorMatrix result="hardAlpha" values="0 0 0 0 0 0 0 0 0 0 0 0 0 0 0 0 0 0 127 0" type="matrix" in="SourceAlpha"></feColorMatrix>
<feOffset dy="4"></feOffset>
<feGaussianBlur stdDeviation="13"></feGaussianBlur>
<feColorMatrix values="0 0 0 0 0.0901961 0 0 0 0 0.168627 0 0 0 0 0.301961 0 0 0 0.05 0" type="matrix"></feColorMatrix>
<feBlend result="effect2_dropShadow_1919_66596" in2="effect1_dropShadow_1919_66596" mode="normal"></feBlend>
<feColorMatrix result="hardAlpha" values="0 0 0 0 0 0 0 0 0 0 0 0 0 0 0 0 0 0 127 0" type="matrix" in="SourceAlpha"></feColorMatrix>
<feOffset></feOffset>
<feGaussianBlur stdDeviation="23"></feGaussianBlur>
<feComposite operator="out" in2="hardAlpha"></feComposite>
<feColorMatrix values="0 0 0 0 0.0901961 0 0 0 0 0.168627 0 0 0 0 0.301961 0 0 0 0.01 0" type="matrix"></feColorMatrix>
<feBlend result="effect3_dropShadow_1919_66596" in2="effect2_dropShadow_1919_66596" mode="normal"></feBlend>
<feBlend result="shape" in2="effect3_dropShadow_1919_66596" in="SourceGraphic" mode="normal"></feBlend>
</filter>
<radialGradient gradientTransform="translate(422 205.894) rotate(90) scale(298.225 531.017)" gradientUnits="userSpaceOnUse" r="1" cy="0" cx="0" id="paint0_radial_1919_66596">
<stop stop-color="#667EEA" offset="0.311258"></stop>
<stop stop-color="#5A67D8" offset="1"></stop>
</radialGradient>
<linearGradient gradientUnits="userSpaceOnUse" y2="313.171" x2="421.099" y1="160.83" x1="421.099" id="paint1_linear_1919_66596">
<stop stop-color="#4247B8" offset="0.0648065"></stop>
<stop stop-color="#434190" offset="1"></stop>
</linearGradient>
<linearGradient gradientUnits="userSpaceOnUse" y2="189.702" x2="203.032" y1="186.88" x1="324.452" id="paint2_linear_1919_66596">
<stop stop-color="#68D391"></stop>
<stop stop-color="#68D3C0" offset="1"></stop>
</linearGradient>
</defs>
</svg>
