<svg xmlns="http://www.w3.org/2000/svg" fill="none" viewBox="0 0 844 475" height="475" width="844">
<rect fill="url(#paint0_linear_10001_188263)" transform="translate(0 0.5)" height="474" width="844"></rect>
<line stroke-width="0.663281" stroke="url(#paint1_linear_10001_188263)" y2="194.234" x2="447.385" y1="309.023" x1="447.385"></line>
<path fill="white" d="M104.76 256.38C103.917 257.755 103.93 259.49 104.794 260.853L120.427 285.514C121.441 287.114 123.397 287.844 125.212 287.299L170.326 273.765C172.788 273.027 174.026 270.28 172.95 267.946L143.949 205.036C142.535 201.968 138.271 201.716 136.506 204.596L104.76 256.38ZM143.179 219.418C142.562 217.992 140.475 218.211 140.169 219.735L129.004 275.329C128.768 276.501 129.866 277.502 131.011 277.16L162.181 267.855C163.091 267.584 163.56 266.579 163.183 265.707L143.179 219.418Z" clip-rule="evenodd" fill-rule="evenodd"></path>
<path fill="white" d="M222.295 238.491C222.295 242.811 220.945 246.114 218.244 248.402C215.545 250.691 211.706 251.834 206.728 251.834H203.076V266.111H194.565V225.972H207.386C212.256 225.972 215.957 227.02 218.492 229.115C221.028 231.211 222.295 234.336 222.295 238.491ZM203.077 244.861H205.878C208.496 244.861 210.453 244.345 211.753 243.31C213.053 242.276 213.703 240.77 213.703 238.793C213.703 236.799 213.158 235.326 212.069 234.374C210.979 233.422 209.273 232.946 206.948 232.946H203.077V244.861Z" clip-rule="evenodd" fill-rule="evenodd"></path>
<path fill="white" d="M247.682 235.086C246.932 234.921 245.99 234.839 244.854 234.839C242.95 234.839 241.189 235.365 239.57 236.417C237.949 237.47 236.663 238.857 235.711 240.577H235.3L234.064 235.415H227.722V266.11H236.096V250.488C236.096 248.017 236.842 246.095 238.333 244.722C239.826 243.349 241.907 242.663 244.58 242.663C245.55 242.663 246.373 242.755 247.051 242.937L247.682 235.086Z"></path>
<path fill="white" d="M252.129 266.111H260.504V235.416H252.129V266.111Z"></path>
<path fill="white" d="M251.772 227.481C251.772 224.754 253.291 223.391 256.329 223.391C259.366 223.391 260.887 224.754 260.887 227.481C260.887 228.781 260.507 229.792 259.747 230.515C258.987 231.238 257.848 231.599 256.329 231.599C253.291 231.599 251.772 230.226 251.772 227.481Z"></path>
<path fill="white" d="M286.702 264.188C288.89 262.541 289.983 260.143 289.983 256.994C289.983 255.475 289.719 254.167 289.187 253.068C288.656 251.97 287.832 251 286.716 250.158C285.6 249.316 283.843 248.411 281.444 247.441C278.754 246.361 277.011 245.545 276.214 244.997C275.419 244.448 275.02 243.798 275.02 243.047C275.02 241.711 276.256 241.043 278.727 241.043C280.117 241.043 281.481 241.253 282.817 241.674C284.153 242.096 285.591 242.635 287.128 243.294L289.654 237.255C286.158 235.644 282.561 234.839 278.864 234.839C274.983 234.839 271.986 235.584 269.873 237.076C267.758 238.568 266.701 240.677 266.701 243.404C266.701 244.997 266.953 246.337 267.457 247.426C267.959 248.516 268.765 249.481 269.873 250.323C270.979 251.165 272.714 252.08 275.075 253.068C276.722 253.764 278.041 254.372 279.028 254.894C280.017 255.416 280.712 255.883 281.116 256.295C281.518 256.707 281.72 257.242 281.72 257.901C281.72 259.658 280.2 260.536 277.161 260.536C275.679 260.536 273.963 260.289 272.014 259.795C270.064 259.301 268.312 258.688 266.756 257.955V264.874C268.129 265.46 269.602 265.904 271.177 266.205C272.751 266.508 274.653 266.659 276.887 266.659C281.243 266.659 284.515 265.835 286.702 264.188Z"></path>
<path fill="white" d="M323.154 266.11H314.78V248.182C314.78 245.968 314.409 244.306 313.669 243.199C312.927 242.092 311.76 241.538 310.168 241.538C308.027 241.538 306.471 242.325 305.501 243.899C304.53 245.474 304.045 248.063 304.045 251.669V266.11H295.671V235.415H302.069L303.194 239.342H303.662C304.485 237.932 305.675 236.829 307.23 236.033C308.786 235.237 310.571 234.839 312.584 234.839C317.179 234.839 320.29 236.34 321.919 239.342H322.66C323.484 237.914 324.697 236.807 326.298 236.019C327.9 235.232 329.707 234.839 331.72 234.839C335.198 234.839 337.83 235.732 339.614 237.515C341.398 239.3 342.29 242.16 342.29 246.095V266.11H333.889V248.182C333.889 245.968 333.518 244.306 332.778 243.199C332.035 242.092 330.869 241.538 329.276 241.538C327.227 241.538 325.694 242.27 324.677 243.734C323.662 245.199 323.154 247.523 323.154 250.708V266.11Z"></path>
<path fill="white" d="M367.507 261.937L369.127 266.111H374.975V245.656C374.975 241.996 373.877 239.269 371.681 237.475C369.484 235.682 366.327 234.784 362.208 234.784C357.908 234.784 353.99 235.709 350.458 237.557L353.23 243.213C356.543 241.73 359.426 240.989 361.879 240.989C365.063 240.989 366.656 242.545 366.656 245.656V247.002L361.33 247.167C356.736 247.331 353.3 248.187 351.02 249.734C348.742 251.281 347.603 253.683 347.603 256.941C347.603 260.053 348.449 262.45 350.142 264.134C351.835 265.818 354.154 266.659 357.102 266.659C359.5 266.659 361.444 266.316 362.935 265.63C364.427 264.943 365.878 263.713 367.287 261.937H367.507ZM363.417 251.999L366.656 251.889V254.415C366.656 256.265 366.075 257.747 364.912 258.863C363.751 259.98 362.199 260.538 360.259 260.538C357.55 260.538 356.196 259.357 356.196 256.997C356.196 255.348 356.79 254.123 357.981 253.317C359.17 252.512 360.982 252.073 363.417 251.999Z" clip-rule="evenodd" fill-rule="evenodd"></path>
<g clip-path="url(#clip0_10001_188263)">
<path fill="#98E0EA" d="M552.602 230.616V233.164C549.432 231.308 545.753 230.234 541.821 230.234C530.044 230.241 520.457 239.822 520.457 251.605C520.457 263.389 530.044 272.976 541.828 272.976C545.76 272.976 549.439 271.903 552.609 270.046V272.369H563.199V230.616H552.609H552.602ZM541.821 262.386C535.876 262.386 531.04 257.55 531.04 251.605C531.04 245.661 535.876 240.825 541.821 240.825C547.765 240.825 552.602 245.661 552.602 251.605C552.602 257.55 547.765 262.386 541.821 262.386Z"></path>
<path fill="#98E0EA" d="M658.292 230.616V233.164C655.121 231.308 651.443 230.234 647.511 230.234C635.727 230.234 626.14 239.822 626.14 251.605C626.14 263.389 635.727 272.976 647.511 272.976C651.443 272.976 655.121 271.903 658.292 270.046V272.369H668.882V230.616H658.292ZM647.511 262.386C641.566 262.386 636.73 257.55 636.73 251.605C636.73 245.661 641.566 240.825 647.511 240.825C653.455 240.825 658.292 245.661 658.292 251.605C658.292 257.55 653.455 262.386 647.511 262.386Z"></path>
<path fill="#98E0EA" d="M616.75 217.188H606.16V272.369H616.75V217.188Z"></path>
<path fill="#98E0EA" d="M597.836 230.58H585.304V217.188H574.714V272.369H585.304V241.171H597.836V230.58Z"></path>
<path fill="#98E0EA" d="M692.626 246.336C692.548 246.336 692.471 246.336 692.393 246.336C690.888 246.336 689.66 245.107 689.66 243.604C689.66 242.1 690.888 240.871 692.393 240.871H705.002V230.281H692.393C685.043 230.281 679.07 236.261 679.07 243.604C679.07 250.946 684.923 256.799 692.159 256.926C692.237 256.926 692.314 256.926 692.393 256.926C693.897 256.926 695.125 258.155 695.125 259.658C695.125 261.162 693.897 262.391 692.393 262.391H679.762V272.981H692.393C699.742 272.981 705.715 267.001 705.715 259.658C705.715 252.316 699.862 246.463 692.626 246.336Z"></path>
</g>
<defs>
<linearGradient gradientUnits="userSpaceOnUse" y2="0" x2="422" y1="474" x1="422" id="paint0_linear_10001_188263">
<stop stop-color="#093137"></stop>
<stop stop-color="#0A0B16" offset="1"></stop>
</linearGradient>
<linearGradient gradientUnits="userSpaceOnUse" y2="194.234" x2="448.708" y1="310.98" x1="448.708" id="paint1_linear_10001_188263">
<stop stop-opacity="0" stop-color="#92EFE6"></stop>
<stop stop-color="#92EFE6" offset="0.27"></stop>
<stop stop-color="#92EFE6" offset="0.8"></stop>
<stop stop-opacity="0" stop-color="#92EFE6" offset="1"></stop>
</linearGradient>
<clipPath id="clip0_10001_188263">
<rect transform="translate(520.457 216.508)" fill="white" height="57.0422" width="185.719"></rect>
</clipPath>
</defs>
</svg>
