<svg xmlns="http://www.w3.org/2000/svg" width="582" height="200" fill="none"><linearGradient id="a" x1="9.463" x2="592.737" y1="-10.323" y2="219.399" gradientUnits="userSpaceOnUse"><stop offset="0" stop-color="#bee3f8"/><stop offset=".469" stop-color="#fff" stop-opacity="0"/><stop offset="1" stop-color="#bee3f8"/></linearGradient><path fill="#fff" d="m149.202 32.32 29.049 29.046H89.803c-15.464 0-28 12.536-28 28v10.22L31.4 129.984 1 99.586V86C1 39.056 39.056 1 86 1h93.111l-29.909 29.906-.707.707zm342.987 29.046h-90.16l29.048-29.046.708-.707-.708-.707L401.168 1h94.835C542.948 1 581 39.056 581 86v4.769l-30.616 30.613-30.187-30.183v-1.835c0-15.464-12.545-27.998-28.008-27.998M208.278 199h-15.632c2.098-2.035 5.616-5.528 9.742-9.654a6279 6279 0 0 0 19.463-19.569l.701-.707-.704-.704-29.305-29.301h13.933c7.425 0 14.547-2.95 19.798-8.2l25.644-25.642 44.091-44.086 36.102-36.098a82.1 82.1 0 0 1 57.627-24.038l30.615 30.612-29.76 29.756a23.85 23.85 0 0 0-16.444 6.98l-35.464 35.46-44.091 44.086-26.215 26.212A85 85 0 0 1 208.278 199m311.919-87.935v-8.436l29.48 29.476.707.707.707-.707L581 102.199V114c0 46.944-38.059 85-85.003 85h-97.73l-29.93-29.927 30.012-30.008h93.84c15.464 0 28.008-12.536 28.008-28m-458.394-.252v.252c0 15.464 12.536 28 28 28h91.308l30.011 30.007L181.112 199H86c-46.944 0-85-38.056-85-85v-3.187l29.692 29.892.71.714.709-.714zm295.809 58.967L386.835 199h-4.51a85 85 0 0 1-60.101-24.893l-21.852-21.849 42.677-42.672 21.281 21.279a28 28 0 0 0 19.797 8.2h2.79l-29.305 29.301-.707.707zM159.926 31.613 190.543 1h8.701a85 85 0 0 1 60.102 24.893l30.885 30.881-42.677 42.672-29.884-29.88a28 28 0 0 0-19.797-8.2h-8.191z"/><path fill="url(#a)" d="m149.202 32.32 29.049 29.046H89.803c-15.464 0-28 12.536-28 28v10.22L31.4 129.984 1 99.586V86C1 39.056 39.056 1 86 1h93.111l-29.909 29.906-.707.707zm342.987 29.046h-90.16l29.048-29.046.708-.707-.708-.707L401.168 1h94.835C542.948 1 581 39.056 581 86v4.769l-30.616 30.613-30.187-30.183v-1.835c0-15.464-12.545-27.998-28.008-27.998M208.278 199h-15.632c2.098-2.035 5.616-5.528 9.742-9.654a6279 6279 0 0 0 19.463-19.569l.701-.707-.704-.704-29.305-29.301h13.933c7.425 0 14.547-2.95 19.798-8.2l25.644-25.642 44.091-44.086 36.102-36.098a82.1 82.1 0 0 1 57.627-24.038l30.615 30.612-29.76 29.756a23.85 23.85 0 0 0-16.444 6.98l-35.464 35.46-44.091 44.086-26.215 26.212A85 85 0 0 1 208.278 199m311.919-87.935v-8.436l29.48 29.476.707.707.707-.707L581 102.199V114c0 46.944-38.059 85-85.003 85h-97.73l-29.93-29.927 30.012-30.008h93.84c15.464 0 28.008-12.536 28.008-28m-458.394-.252v.252c0 15.464 12.536 28 28 28h91.308l30.011 30.007L181.112 199H86c-46.944 0-85-38.056-85-85v-3.187l29.692 29.892.71.714.709-.714zm295.809 58.967L386.835 199h-4.51a85 85 0 0 1-60.101-24.893l-21.852-21.849 42.677-42.672 21.281 21.279a28 28 0 0 0 19.797 8.2h2.79l-29.305 29.301-.707.707zM159.926 31.613 190.543 1h8.701a85 85 0 0 1 60.102 24.893l30.885 30.881-42.677 42.672-29.884-29.88a28 28 0 0 0-19.797-8.2h-8.191z"/><path stroke="#3182ce" stroke-width="2" d="m149.202 32.32 29.049 29.046H89.803c-15.464 0-28 12.536-28 28v10.22L31.4 129.984 1 99.586V86C1 39.056 39.056 1 86 1h93.111l-29.909 29.906-.707.707zm342.987 29.046h-90.16l29.048-29.046.708-.707-.708-.707L401.168 1h94.835C542.948 1 581 39.056 581 86v4.769l-30.616 30.613-30.187-30.183v-1.835c0-15.464-12.545-27.998-28.008-27.998zM208.278 199h-15.632c2.098-2.035 5.616-5.528 9.742-9.654a6279 6279 0 0 0 19.463-19.569l.701-.707-.704-.704-29.305-29.301h13.933c7.425 0 14.547-2.95 19.798-8.2l25.644-25.642 44.091-44.086 36.102-36.098a82.1 82.1 0 0 1 57.627-24.038l30.615 30.612-29.76 29.756a23.85 23.85 0 0 0-16.444 6.98l-35.464 35.46-44.091 44.086-26.215 26.212A85 85 0 0 1 208.278 199zm311.919-87.935v-8.436l29.48 29.476.707.707.707-.707L581 102.199V114c0 46.944-38.059 85-85.003 85h-97.73l-29.93-29.927 30.012-30.008h93.84c15.464 0 28.008-12.536 28.008-28zm-458.394-.252v.252c0 15.464 12.536 28 28 28h91.308l30.011 30.007L181.112 199H86c-46.944 0-85-38.056-85-85v-3.187l29.692 29.892.71.714.709-.714zm295.809 58.967L386.835 199h-4.51a85 85 0 0 1-60.101-24.893l-21.852-21.849 42.677-42.672 21.281 21.279a28 28 0 0 0 19.797 8.2h2.79l-29.305 29.301-.707.707zM159.926 31.613 190.543 1h8.701a85 85 0 0 1 60.102 24.893l30.885 30.881-42.677 42.672-29.884-29.88a28 28 0 0 0-19.797-8.2h-8.191z"/><path fill="#3182ce" d="M62.324 40.16q-1.56 0-2.74-.6-1.18-.62-1.82-1.72c-.64-1.1-.64-1.58-.64-2.54v-4.62q0-1.44.64-2.54c.64-1.1 1.033-1.3 1.82-1.7s1.7-.6 2.74-.6q1.539 0 2.7.58 1.18.56 1.82 1.62.66 1.04.66 2.42 0 .18-.24.22l-2.34.14h-.04q-.2 0-.2-.22 0-1.06-.66-1.7-.64-.64-1.7-.64-1.08 0-1.74.64-.64.64-.64 1.7v4.82q0 1.04.64 1.68.66.64 1.74.64 1.06 0 1.7-.64.66-.64.66-1.68 0-.22.24-.22l2.34.1q.1 0 .16.06.08.06.08.14 0 1.38-.66 2.44-.64 1.06-1.82 1.64-1.161.58-2.7.58m13.228.06q-1.56 0-2.76-.64a4.64 4.64 0 0 1-1.84-1.78q-.66-1.16-.66-2.66v-4.28q0-1.48.66-2.62c.66-1.14 1.053-1.347 1.84-1.76q1.2-.64 2.76-.64 1.58 0 2.76.64 1.2.62 1.86 1.76c.66 1.14.66 1.633.66 2.62v4.28q0 1.5-.66 2.66c-.66 1.16-1.06 1.373-1.86 1.8q-1.18.62-2.76.62m0-2.42q1.1 0 1.78-.7t.68-1.86v-4.4q0-1.16-.68-1.86-.66-.72-1.78-.72-1.1 0-1.78.72-.66.7-.66 1.86v4.4q0 1.16.66 1.86.68.7 1.78.7m8.681 2.2a.3.3 0 0 1-.18-.06.3.3 0 0 1-.06-.18V26.24q0-.1.06-.16a.25.25 0 0 1 .18-.08h5q1.5 0 2.62.54 1.14.52 1.76 1.48t.62 2.22v5.52q0 1.26-.62 2.22t-1.76 1.5q-1.12.52-2.62.52zm2.58-2.52q0 .1.1.1h2.42q.92 0 1.48-.62.58-.62.6-1.66v-4.6q0-1.04-.58-1.66-.56-.62-1.52-.62h-2.4q-.1 0-.1.1zm20.264-9.3a.25.25 0 0 1-.08.18.22.22 0 0 1-.16.06h-6.56q-.1 0-.1.1v3.1q0 .1.1.1h4.3q.1 0 .16.08a.19.19 0 0 1 .08.16v1.94a.25.25 0 0 1-.08.18.22.22 0 0 1-.16.06h-4.3q-.1 0-.1.1v3.24q0 .1.1.1h6.56q.1 0 .16.08a.19.19 0 0 1 .08.16v1.94a.25.25 0 0 1-.08.18.22.22 0 0 1-.16.06h-9.24a.3.3 0 0 1-.18-.06.3.3 0 0 1-.06-.18V26.24q0-.1.06-.16a.25.25 0 0 1 .18-.08h9.24q.1 0 .16.08a.19.19 0 0 1 .08.16zM100.972 160q.1 0 .16.08a.19.19 0 0 1 .08.16v1.96a.25.25 0 0 1-.08.18.22.22 0 0 1-.16.06h-3.58q-.1 0-.1.1v11.22a.25.25 0 0 1-.08.18.22.22 0 0 1-.16.06h-2.34a.3.3 0 0 1-.18-.06.3.3 0 0 1-.06-.18v-11.22q0-.1-.1-.1h-3.48a.3.3 0 0 1-.18-.06.3.3 0 0 1-.06-.18v-1.96q0-.1.06-.16a.25.25 0 0 1 .18-.08zm12.759 2.18a.25.25 0 0 1-.08.18.22.22 0 0 1-.16.06h-6.56q-.1 0-.1.1v3.1q0 .1.1.1h4.3a.19.19 0 0 1 .16.08.19.19 0 0 1 .08.16v1.94a.25.25 0 0 1-.08.18.22.22 0 0 1-.16.06h-4.3q-.1 0-.1.1v3.24q0 .1.1.1h6.56a.19.19 0 0 1 .16.08.19.19 0 0 1 .08.16v1.94a.25.25 0 0 1-.08.18.22.22 0 0 1-.16.06h-9.24a.3.3 0 0 1-.18-.06.3.3 0 0 1-.06-.18v-13.52q0-.1.06-.16a.25.25 0 0 1 .18-.08h9.24a.19.19 0 0 1 .16.08.19.19 0 0 1 .08.16zm7.76 11.98q-1.6 0-2.8-.5-1.2-.52-1.86-1.46-.64-.96-.64-2.22v-.44q0-.1.06-.16a.25.25 0 0 1 .18-.08h2.28q.1 0 .16.08a.19.19 0 0 1 .08.16v.3q0 .8.74 1.36.74.54 2 .54 1.06 0 1.58-.44.52-.46.52-1.12 0-.48-.32-.8-.32-.34-.88-.58-.54-.26-1.74-.7a18 18 0 0 1-2.28-.94 4.7 4.7 0 0 1-1.56-1.3q-.62-.84-.62-2.06 0-1.2.62-2.1t1.72-1.38 2.54-.48q1.52 0 2.7.54 1.2.54 1.86 1.52.68.96.68 2.24v.3a.25.25 0 0 1-.08.18.22.22 0 0 1-.16.06h-2.3a.3.3 0 0 1-.18-.06.3.3 0 0 1-.06-.18v-.16q0-.84-.7-1.42-.68-.6-1.88-.6-.94 0-1.48.4-.52.4-.52 1.1 0 .5.3.84.32.34.92.62.62.26 1.9.72 1.419.52 2.22.92.82.4 1.46 1.2.66.78.66 2.04 0 1.88-1.38 2.98-1.38 1.08-3.74 1.08M139.089 160a.19.19 0 0 1 .16.08.19.19 0 0 1 .08.16v1.96a.25.25 0 0 1-.08.18.22.22 0 0 1-.16.06h-3.58q-.1 0-.1.1v11.22a.25.25 0 0 1-.08.18.22.22 0 0 1-.16.06h-2.34a.3.3 0 0 1-.18-.06.3.3 0 0 1-.06-.18v-11.22q0-.1-.1-.1h-3.48a.3.3 0 0 1-.18-.06.3.3 0 0 1-.06-.18v-1.96q0-.1.06-.16a.25.25 0 0 1 .18-.08zm141.854-28.039a.3.3 0 0 1-.17.084.3.3 0 0 1-.17-.084l-9.56-9.561a.22.22 0 0 1-.071-.155q0-.114.071-.184l3.536-3.536q1.06-1.06 2.234-1.47 1.174-.44 2.291-.198 1.117.24 2.008 1.131l3.904 3.903q.891.891 1.131 2.008.24 1.118-.184 2.306-.425 1.16-1.485 2.22zm.042-3.607q.07.07.141 0l1.712-1.711q.65-.651.608-1.485-.028-.848-.75-1.598l-3.252-3.253q-.736-.735-1.584-.763-.835-.043-1.514.636l-1.697 1.697q-.07.07 0 .142zm7.752-20.904a.25.25 0 0 1 .071.184.22.22 0 0 1-.071.155l-4.638 4.639q-.072.07 0 .141l2.192 2.192q.07.07.141 0l3.041-3.04a.19.19 0 0 1 .169-.057.2.2 0 0 1 .17.057l1.372 1.372a.25.25 0 0 1 .071.183.22.22 0 0 1-.071.156l-3.041 3.041q-.07.07 0 .141l2.291 2.291q.071.07.142 0l4.638-4.639a.19.19 0 0 1 .17-.056.19.19 0 0 1 .17.056l1.372 1.372a.25.25 0 0 1 .07.184.22.22 0 0 1-.07.156l-6.534 6.533a.3.3 0 0 1-.17.085.3.3 0 0 1-.17-.085l-9.56-9.56a.22.22 0 0 1-.07-.155q0-.114.07-.184l6.534-6.534a.19.19 0 0 1 .17-.056.19.19 0 0 1 .169.056zm4.624-7.736q.934-.933 2.023-1.258a3.73 3.73 0 0 1 2.178 0q1.088.296 1.994 1.202.89.891 1.159 1.98a3.87 3.87 0 0 1-.07 2.192q-.354 1.088-1.301 2.036l-2.009 2.008q-.07.071 0 .142l3.607 3.606q.07.07.07.184a.22.22 0 0 1-.07.155l-1.655 1.655a.3.3 0 0 1-.17.085.3.3 0 0 1-.169-.085l-9.575-9.574a.22.22 0 0 1-.07-.156q0-.112.07-.184zm4.172 4.766q.65-.65.679-1.414.015-.778-.594-1.386-.622-.622-1.4-.608t-1.428.665l-1.796 1.796q-.07.07 0 .141l2.602 2.602q.07.07.141 0zm10.97-.08a.3.3 0 0 1-.17.085.3.3 0 0 1-.169-.085l-9.56-9.56a.22.22 0 0 1-.071-.156.25.25 0 0 1 .071-.184l1.654-1.654a.19.19 0 0 1 .17-.057.19.19 0 0 1 .17.057l7.948 7.948q.07.07.141 0l4.625-4.625a.19.19 0 0 1 .169-.056.19.19 0 0 1 .17.056l1.372 1.372q.07.07.07.184a.22.22 0 0 1-.07.155zM320.7 92.514q-1.103 1.103-2.404 1.5a4.64 4.64 0 0 1-2.56.042q-1.287-.354-2.347-1.415l-3.027-3.026q-1.045-1.046-1.386-2.32a4.5 4.5 0 0 1 .057-2.545q.396-1.301 1.499-2.404 1.117-1.118 2.404-1.5a4.47 4.47 0 0 1 2.56-.07q1.272.339 2.319 1.386l3.027 3.027q1.06 1.061 1.414 2.347a4.57 4.57 0 0 1-.043 2.588q-.396 1.273-1.513 2.39m-1.711-1.711q.777-.778.764-1.754-.015-.975-.835-1.796l-3.111-3.111q-.82-.82-1.796-.834-.976-.043-1.768.75-.777.777-.749 1.767.027.962.848 1.782l3.111 3.111q.82.82 1.782.849.976.014 1.754-.764m9.797-6.714a.3.3 0 0 1-.17.085.3.3 0 0 1-.17-.085l-3.577-3.578a.3.3 0 0 0-.099-.07l-8.769-2.942a.3.3 0 0 1-.113-.057q-.113-.113.043-.269l1.782-1.781a.28.28 0 0 1 .325-.071l5.529 1.994q.128.042.085-.085l-1.994-5.53a.28.28 0 0 1 .071-.325l1.81-1.81q.099-.1.184-.07.086 0 .141.14l2.914 8.797a.3.3 0 0 0 .07.1l3.578 3.577a.25.25 0 0 1 .071.184.21.21 0 0 1-.071.156zM460.663 26.16a.31.31 0 0 1 .28-.16h2.34a.19.19 0 0 1 .16.08q.08.06.08.16v13.52a.25.25 0 0 1-.08.18.22.22 0 0 1-.16.06h-2.34a.3.3 0 0 1-.18-.06.3.3 0 0 1-.06-.18v-8.82q0-.08-.04-.08t-.08.06l-2.12 3.32a.31.31 0 0 1-.28.16h-1.18a.31.31 0 0 1-.28-.16l-2.12-3.32q-.04-.06-.08-.04-.04 0-.04.08v8.8a.25.25 0 0 1-.08.18.22.22 0 0 1-.16.06h-2.34a.3.3 0 0 1-.18-.06.3.3 0 0 1-.06-.18V26.24q0-.1.06-.16a.25.25 0 0 1 .18-.08h2.34q.18 0 .28.16l3 4.66q.06.12.12 0zm11.277 14.06q-1.56 0-2.76-.64a4.64 4.64 0 0 1-1.84-1.78q-.66-1.16-.66-2.66v-4.28q0-1.48.66-2.62c.66-1.14 1.054-1.347 1.84-1.76q1.2-.64 2.76-.64 1.581 0 2.76.64 1.2.62 1.86 1.76c.66 1.14.66 1.633.66 2.62v4.28q0 1.5-.66 2.66c-.66 1.16-1.06 1.373-1.86 1.8q-1.179.62-2.76.62m0-2.42q1.1 0 1.78-.7t.68-1.86v-4.4q0-1.16-.68-1.86-.66-.72-1.78-.72-1.1 0-1.78.72-.66.7-.66 1.86v4.4q0 1.16.66 1.86.68.7 1.78.7m16.482-11.56q0-.1.06-.16a.25.25 0 0 1 .18-.08h2.34a.19.19 0 0 1 .16.08.19.19 0 0 1 .08.16v13.52a.25.25 0 0 1-.08.18.22.22 0 0 1-.16.06h-2.26q-.2 0-.28-.16l-5.18-8.56q-.04-.06-.08-.04-.04 0-.04.08l.04 8.44a.25.25 0 0 1-.08.18.22.22 0 0 1-.16.06h-2.34a.3.3 0 0 1-.18-.06.3.3 0 0 1-.06-.18V26.24q0-.1.06-.16a.25.25 0 0 1 .18-.08h2.26q.2 0 .28.16l5.16 8.52q.04.06.08.06.04-.02.04-.1zM494.923 40a.3.3 0 0 1-.18-.06.3.3 0 0 1-.06-.18V26.24q0-.1.06-.16a.25.25 0 0 1 .18-.08h2.34a.19.19 0 0 1 .16.08.19.19 0 0 1 .08.16v13.52a.25.25 0 0 1-.08.18.22.22 0 0 1-.16.06zm15.674-14q.1 0 .16.08a.19.19 0 0 1 .08.16v1.96a.25.25 0 0 1-.08.18.22.22 0 0 1-.16.06h-3.58q-.1 0-.1.1v11.22a.25.25 0 0 1-.08.18.22.22 0 0 1-.16.06h-2.34a.3.3 0 0 1-.18-.06.3.3 0 0 1-.06-.18V28.54q0-.1-.1-.1h-3.48a.3.3 0 0 1-.18-.06.3.3 0 0 1-.06-.18v-1.96q0-.1.06-.16a.25.25 0 0 1 .18-.08zm7.453 14.22q-1.56 0-2.76-.64a4.63 4.63 0 0 1-1.84-1.78q-.66-1.16-.66-2.66v-4.28q0-1.48.66-2.62c.66-1.14 1.053-1.347 1.84-1.76q1.2-.64 2.76-.64 1.58 0 2.76.64 1.2.62 1.86 1.76c.66 1.14.66 1.633.66 2.62v4.28q0 1.5-.66 2.66c-.66 1.16-1.06 1.373-1.86 1.8q-1.18.62-2.76.62m0-2.42q1.1 0 1.78-.7t.68-1.86v-4.4q0-1.16-.68-1.86-.66-.72-1.78-.72-1.1 0-1.78.72-.66.7-.66 1.86v4.4q0 1.16.66 1.86.68.7 1.78.7m16.121 2.2a.28.28 0 0 1-.28-.18l-2.5-5.54q-.039-.08-.12-.08h-1.86q-.1 0-.1.1v5.46a.25.25 0 0 1-.08.18.22.22 0 0 1-.16.06h-2.34a.3.3 0 0 1-.18-.06.3.3 0 0 1-.06-.18V26.24q0-.1.06-.16a.25.25 0 0 1 .18-.08h5.72q1.28 0 2.24.52.981.52 1.5 1.48.54.96.54 2.22 0 1.36-.68 2.34-.68.96-1.9 1.36-.099.04-.06.14l2.72 5.66q.04.08.04.12 0 .16-.22.16zm-4.76-11.58q-.1 0-.1.1v3.42q0 .1.1.1h2.62q.84 0 1.36-.5.54-.5.54-1.3c0-.8-.18-.967-.54-1.3q-.52-.52-1.36-.52zm-95.057 145.8q-1.56 0-2.76-.64a4.64 4.64 0 0 1-1.84-1.78q-.66-1.16-.66-2.66v-4.28q0-1.48.66-2.62c.66-1.14 1.054-1.347 1.84-1.76q1.2-.64 2.76-.64 1.581 0 2.76.64 1.2.62 1.86 1.76c.66 1.14.66 1.633.66 2.62v4.28q0 1.5-.66 2.66c-.66 1.16-1.06 1.373-1.86 1.8q-1.179.62-2.76.62m0-2.42q1.1 0 1.78-.7t.68-1.86v-4.4q0-1.16-.68-1.86-.66-.72-1.78-.72-1.1 0-1.78.72-.66.7-.66 1.86v4.4q0 1.16.66 1.86.68.7 1.78.7m14.222-11.82q1.32 0 2.32.54t1.54 1.54q.56.98.56 2.26 0 1.26-.58 2.22a3.86 3.86 0 0 1-1.6 1.5q-1.02.52-2.36.52h-2.84q-.1 0-.1.1v5.1a.25.25 0 0 1-.08.18.22.22 0 0 1-.16.06h-2.34a.3.3 0 0 1-.18-.06.3.3 0 0 1-.06-.18v-13.54q0-.1.06-.16a.25.25 0 0 1 .18-.08zm-.42 6.32q.92 0 1.48-.52.56-.54.56-1.4 0-.88-.56-1.42t-1.48-.54h-2.54q-.1 0-.1.1v3.68q0 .1.1.1zm17.294-4.12a.25.25 0 0 1-.08.18.22.22 0 0 1-.16.06h-6.56q-.1 0-.1.1v3.1q0 .1.1.1h4.3q.1 0 .16.08a.19.19 0 0 1 .08.16v1.94a.25.25 0 0 1-.08.18.22.22 0 0 1-.16.06h-4.3q-.1 0-.1.1v3.24q0 .1.1.1h6.56q.1 0 .16.08a.19.19 0 0 1 .08.16v1.94a.25.25 0 0 1-.08.18.22.22 0 0 1-.16.06h-9.24a.3.3 0 0 1-.18-.06.3.3 0 0 1-.06-.18v-13.52q0-.1.06-.16a.25.25 0 0 1 .18-.08h9.24q.1 0 .16.08a.19.19 0 0 1 .08.16zM476.089 174a.28.28 0 0 1-.28-.18l-2.5-5.54q-.039-.08-.12-.08h-1.86q-.1 0-.1.1v5.46a.25.25 0 0 1-.08.18.22.22 0 0 1-.16.06h-2.34a.3.3 0 0 1-.18-.06.3.3 0 0 1-.06-.18v-13.52q0-.1.06-.16a.25.25 0 0 1 .18-.08h5.72q1.28 0 2.24.52.981.52 1.5 1.48.54.96.54 2.22 0 1.36-.68 2.34-.68.96-1.9 1.36-.099.04-.06.14l2.72 5.66q.04.08.04.12 0 .16-.22.16zm-4.76-11.58q-.1 0-.1.1v3.42q0 .1.1.1h2.62q.84 0 1.36-.5.54-.5.54-1.3c0-.8-.18-.967-.54-1.3q-.52-.52-1.36-.52zM490.888 174q-.2 0-.26-.2l-.6-1.96q-.04-.08-.1-.08h-4.92q-.06 0-.1.08l-.58 1.96q-.06.2-.26.2h-2.54q-.12 0-.18-.06-.06-.08-.02-.22l4.32-13.52q.06-.2.26-.2h3.14q.2 0 .26.2l4.32 13.52q.02.04.02.1 0 .18-.22.18zm-5.26-4.54q-.02.12.08.12h3.52q.12 0 .08-.12l-1.8-5.94q-.021-.08-.06-.06-.04 0-.06.06zm18.719-9.46q.1 0 .16.08a.19.19 0 0 1 .08.16v1.96a.25.25 0 0 1-.08.18.22.22 0 0 1-.16.06h-3.58q-.1 0-.1.1v11.22a.25.25 0 0 1-.08.18.22.22 0 0 1-.16.06h-2.34a.3.3 0 0 1-.18-.06.3.3 0 0 1-.06-.18v-11.22q0-.1-.1-.1h-3.48a.3.3 0 0 1-.18-.06.3.3 0 0 1-.06-.18v-1.96q0-.1.06-.16a.25.25 0 0 1 .18-.08zm12.759 2.18a.25.25 0 0 1-.08.18.22.22 0 0 1-.16.06h-6.56q-.1 0-.1.1v3.1q0 .1.1.1h4.3a.19.19 0 0 1 .16.08.19.19 0 0 1 .08.16v1.94a.25.25 0 0 1-.08.18.22.22 0 0 1-.16.06h-4.3q-.1 0-.1.1v3.24q0 .1.1.1h6.56a.19.19 0 0 1 .16.08.19.19 0 0 1 .08.16v1.94a.25.25 0 0 1-.08.18.22.22 0 0 1-.16.06h-9.24a.3.3 0 0 1-.18-.06.3.3 0 0 1-.06-.18v-13.52q0-.1.06-.16a.25.25 0 0 1 .18-.08h9.24a.19.19 0 0 1 .16.08.19.19 0 0 1 .08.16zM228.48 28.966q.933.933 1.258 2.022c.325 1.089.217 1.452 0 2.178q-.297 1.089-1.202 1.994-.891.89-1.98 1.16a3.87 3.87 0 0 1-2.192-.071q-1.089-.354-2.036-1.301l-2.008-2.008q-.071-.07-.142 0l-3.606 3.606a.25.25 0 0 1-.184.07.22.22 0 0 1-.155-.07l-1.655-1.655a.3.3 0 0 1-.085-.17.3.3 0 0 1 .085-.17l9.574-9.573a.22.22 0 0 1 .156-.071.25.25 0 0 1 .184.07zm-4.766 4.172q.65.65 1.414.678.779.015 1.386-.594.622-.621.608-1.4-.014-.777-.665-1.428l-1.796-1.796q-.07-.07-.141 0l-2.602 2.602q-.07.07 0 .142zm.08 10.97a.3.3 0 0 1-.085-.17.3.3 0 0 1 .085-.17l9.56-9.56a.22.22 0 0 1 .156-.07.25.25 0 0 1 .184.07l1.654 1.655a.2.2 0 0 1 .057.17.2.2 0 0 1-.057.169L227.4 44.15q-.07.07 0 .141l4.625 4.625a.19.19 0 0 1 .056.17.19.19 0 0 1-.056.17l-1.372 1.37a.25.25 0 0 1-.184.072.22.22 0 0 1-.155-.071zm15.159 15.158q-.142-.142-.043-.325l.962-1.81q.028-.086-.014-.128l-3.479-3.479q-.043-.042-.128-.014l-1.796.976q-.183.1-.325-.043l-1.796-1.796q-.085-.084-.085-.17.015-.098.142-.17l12.614-6.504q.184-.099.326.042l2.22 2.22q.141.142.042.326l-6.505 12.614a.2.2 0 0 1-.057.085q-.127.128-.282-.028zm-.51-6.93q-.099.071-.028.142l2.489 2.489q.085.084.142-.029l2.927-5.473q.042-.07 0-.085-.028-.027-.085 0zm19.826 6.787a.22.22 0 0 1 .156-.07.25.25 0 0 1 .184.07l1.654 1.655a.2.2 0 0 1 .057.17.2.2 0 0 1-.057.169l-9.56 9.56a.25.25 0 0 1-.184.07.22.22 0 0 1-.155-.07l-1.598-1.598q-.142-.141-.085-.311l2.39-9.716q.014-.07-.028-.085-.028-.028-.085.029l-5.94 5.996a.25.25 0 0 1-.184.07.22.22 0 0 1-.155-.07l-1.655-1.655a.3.3 0 0 1-.085-.17.3.3 0 0 1 .085-.17l9.56-9.56a.22.22 0 0 1 .156-.07.25.25 0 0 1 .184.07l1.598 1.599q.141.141.084.311l-2.375 9.673q-.015.07.014.1.042.014.099-.043z"/></svg>