<svg xmlns="http://www.w3.org/2000/svg" fill="none" viewBox="0 0 844 474" height="474" width="844">
<rect fill="url(#paint0_linear_11738_306348)" height="474" width="844"></rect>
<rect fill="url(#paint1_radial_11738_306348)" height="474" width="844"></rect>
<path fill="white" d="M292.404 239.428C292.404 240.482 292.404 241.997 292.204 242.524H269.36C270.426 246.347 273.489 248.719 277.685 248.719C281.149 248.785 283.679 247.269 285.477 245.094L291.139 250.3C288.342 253.793 283.613 256.362 277.086 256.362C267.562 256.362 260.369 249.773 260.369 239.692C260.369 229.94 267.229 223.152 276.487 223.152C286.01 223.152 292.404 230.005 292.404 239.428ZM276.753 230.73C273.223 230.73 270.426 232.641 269.427 236.331H283.746C282.88 232.971 280.549 230.73 276.753 230.73ZM315.315 223.152C322.309 223.152 327.169 226.843 327.169 236.726V255.835H318.445V238.901C318.445 232.773 316.248 230.862 312.184 230.862C307.79 230.862 304.792 233.893 304.792 239.626V255.835H296.067V223.679H304.792V227.831H304.925C307.588 224.734 311.32 223.152 315.315 223.152ZM347.683 256.362C337.361 256.362 330.434 249.378 330.434 239.757C330.434 230.137 337.361 223.152 347.683 223.152C357.808 223.152 365 229.874 365 239.757C365 249.641 357.808 256.362 347.683 256.362ZM347.683 248.653C352.412 248.653 356.143 244.963 356.143 239.757C356.143 234.486 352.546 230.862 347.683 230.862C342.621 230.862 339.226 234.684 339.226 239.757C339.226 244.765 342.755 248.653 347.683 248.653ZM228.654 255.835V223.152H240.596C251.046 223.152 257.764 229.873 257.764 239.54C257.764 249.161 251.466 255.835 240.736 255.835H228.654ZM237.238 248.056H240.13C245.168 248.056 248.48 244.235 248.48 239.54C248.48 234.66 245.121 230.932 240.783 230.932H237.238V248.056Z" clip-rule="evenodd" fill-rule="evenodd"></path>
<path fill="white" d="M189.223 246.878C194.816 247.149 200.657 244.666 202.47 239.724C204.284 234.782 203.58 229.895 197.076 226.964C190.571 224.031 187.567 220.546 182.311 218.443C178.878 217.069 175.058 217.885 171.135 220.03C160.57 225.806 151.104 244.058 155.467 260.968C155.53 261.2 155.424 261.442 155.212 261.559C155.001 261.674 154.735 261.63 154.572 261.454C148.689 255.034 145.378 246.329 146.097 237.014C147.486 219.028 163.372 205.541 181.552 206.915C199.73 208.288 213.362 224.005 211.974 241.991C211.391 249.544 208.252 256.304 203.458 261.503C199.792 265.229 195.121 266.885 191.223 266.816C188.398 266.767 185.634 265.654 183.723 264.027C180.995 261.702 179.892 259.046 179.515 256.08C179.421 255.343 179.476 253.335 179.864 251.944C180.152 250.907 180.886 248.905 181.958 248.029C180.703 247.495 179.09 246.331 178.581 245.773C178.456 245.636 178.473 245.421 178.585 245.273C178.696 245.125 178.893 245.067 179.068 245.13C180.146 245.496 181.459 245.856 182.844 246.086C184.664 246.387 186.929 246.765 189.223 246.878ZM177.841 220.721C179.623 220.583 181.178 222.088 181.446 224.089C181.804 226.755 180.815 229.509 177.563 229.572C174.785 229.627 173.943 226.855 174.127 225.176C174.31 223.497 175.709 220.887 177.841 220.721Z" clip-rule="evenodd" fill-rule="evenodd"></path>
<line stroke-width="0.66473" stroke="#16A394" y2="292.848" x2="430.332" y1="180.789" x1="430.332"></line>
<path fill="white" d="M495.468 245.335C494.835 246.367 494.845 247.668 495.493 248.69L507.221 267.191C507.982 268.392 509.449 268.939 510.811 268.531L544.656 258.378C546.503 257.823 547.432 255.763 546.625 254.012L524.868 206.816C523.807 204.514 520.608 204.326 519.283 206.486L495.468 245.335ZM524.29 217.606C523.827 216.536 522.261 216.7 522.032 217.843L513.655 259.55C513.479 260.43 514.302 261.181 515.162 260.924L538.546 253.944C539.228 253.74 539.58 252.986 539.297 252.332L524.29 217.606Z" clip-rule="evenodd" fill-rule="evenodd"></path>
<path fill="white" d="M583.643 231.917C583.643 235.158 582.631 237.636 580.605 239.352C578.58 241.069 575.7 241.927 571.965 241.927H569.225V252.637H562.84V222.525H572.459C576.112 222.525 578.889 223.311 580.791 224.883C582.693 226.455 583.643 228.8 583.643 231.917ZM569.226 236.696H571.327C573.291 236.696 574.76 236.308 575.735 235.532C576.71 234.756 577.197 233.627 577.197 232.144C577.197 230.648 576.789 229.542 575.972 228.828C575.154 228.114 573.874 227.757 572.13 227.757H569.226V236.696Z" clip-rule="evenodd" fill-rule="evenodd"></path>
<path fill="white" d="M602.689 229.362C602.126 229.239 601.419 229.177 600.568 229.177C599.139 229.177 597.818 229.572 596.603 230.361C595.387 231.151 594.423 232.191 593.709 233.482H593.4L592.473 229.61H587.715V252.637H593.997V240.917C593.997 239.064 594.557 237.621 595.675 236.592C596.795 235.562 598.357 235.047 600.362 235.047C601.09 235.047 601.707 235.116 602.216 235.253L602.689 229.362Z"></path>
<path fill="white" d="M606.026 252.637H612.308V229.61H606.026V252.637Z"></path>
<path fill="white" d="M605.757 223.657C605.757 221.611 606.897 220.588 609.176 220.588C611.455 220.588 612.595 221.611 612.595 223.657C612.595 224.632 612.31 225.391 611.741 225.933C611.171 226.476 610.316 226.746 609.176 226.746C606.897 226.746 605.757 225.717 605.757 223.657Z"></path>
<path fill="white" d="M631.962 251.195C633.603 249.959 634.424 248.161 634.424 245.798C634.424 244.659 634.225 243.677 633.827 242.853C633.428 242.029 632.81 241.301 631.973 240.669C631.136 240.038 629.817 239.359 628.018 238.631C626 237.821 624.692 237.209 624.094 236.797C623.498 236.386 623.198 235.898 623.198 235.335C623.198 234.333 624.125 233.831 625.979 233.831C627.022 233.831 628.046 233.989 629.048 234.305C630.05 234.621 631.128 235.026 632.282 235.52L634.177 230.989C631.554 229.781 628.856 229.177 626.082 229.177C623.17 229.177 620.922 229.736 619.337 230.855C617.75 231.975 616.957 233.557 616.957 235.602C616.957 236.797 617.146 237.803 617.525 238.62C617.901 239.437 618.506 240.162 619.337 240.793C620.167 241.425 621.469 242.112 623.24 242.853C624.475 243.375 625.464 243.831 626.205 244.222C626.947 244.614 627.469 244.964 627.771 245.273C628.073 245.582 628.224 245.984 628.224 246.478C628.224 247.796 627.084 248.455 624.805 248.455C623.693 248.455 622.405 248.27 620.944 247.899C619.48 247.529 618.166 247.069 616.999 246.519V251.71C618.029 252.149 619.134 252.482 620.315 252.708C621.496 252.935 622.923 253.049 624.599 253.049C627.867 253.049 630.321 252.43 631.962 251.195Z"></path>
<path fill="white" d="M659.309 252.637H653.027V239.187C653.027 237.526 652.748 236.28 652.193 235.449C651.636 234.618 650.761 234.202 649.566 234.202C647.96 234.202 646.793 234.793 646.065 235.974C645.337 237.155 644.973 239.098 644.973 241.803V252.637H638.691V229.61H643.491L644.335 232.555H644.685C645.303 231.498 646.196 230.67 647.363 230.073C648.53 229.476 649.869 229.177 651.379 229.177C654.826 229.177 657.16 230.303 658.383 232.555H658.938C659.556 231.484 660.466 230.653 661.668 230.063C662.869 229.472 664.225 229.177 665.735 229.177C668.344 229.177 670.319 229.847 671.657 231.185C672.996 232.524 673.665 234.669 673.665 237.621V252.637H667.362V239.187C667.362 237.526 667.084 236.28 666.529 235.449C665.972 234.618 665.097 234.202 663.902 234.202C662.364 234.202 661.215 234.752 660.452 235.85C659.69 236.949 659.309 238.693 659.309 241.082V252.637Z"></path>
<path fill="white" d="M692.583 249.506L693.798 252.637H698.186V237.292C698.186 234.546 697.361 232.5 695.714 231.155C694.066 229.809 691.697 229.136 688.608 229.136C685.382 229.136 682.443 229.83 679.792 231.216L681.872 235.459C684.358 234.347 686.52 233.791 688.361 233.791C690.75 233.791 691.945 234.958 691.945 237.292V238.302L687.949 238.425C684.502 238.549 681.925 239.191 680.214 240.351C678.505 241.512 677.65 243.314 677.65 245.758C677.65 248.093 678.285 249.891 679.555 251.154C680.826 252.418 682.565 253.049 684.777 253.049C686.576 253.049 688.035 252.792 689.153 252.277C690.273 251.762 691.361 250.839 692.418 249.506H692.583ZM689.514 242.051L691.945 241.968V243.863C691.945 245.251 691.509 246.363 690.636 247.2C689.765 248.038 688.601 248.457 687.145 248.457C685.113 248.457 684.097 247.571 684.097 245.8C684.097 244.563 684.543 243.644 685.436 243.04C686.329 242.435 687.688 242.106 689.514 242.051Z" clip-rule="evenodd" fill-rule="evenodd"></path>
<defs>
<linearGradient gradientUnits="userSpaceOnUse" y2="474" x2="422" y1="0" x1="422" id="paint0_linear_11738_306348">
<stop stop-color="#090A15"></stop>
<stop stop-color="#0D3A38" offset="0.955752"></stop>
</linearGradient>
<radialGradient gradientTransform="translate(422 355.876) rotate(90) scale(529.676 495.147)" gradientUnits="userSpaceOnUse" r="1" cy="0" cx="0" id="paint1_radial_11738_306348">
<stop stop-opacity="0.11" stop-color="#71E8DF"></stop>
<stop stop-opacity="0" stop-color="#71E8DF" offset="1"></stop>
</radialGradient>
</defs>
</svg>
