<svg xmlns="http://www.w3.org/2000/svg" fill="none" viewBox="0 0 844 474" height="474" width="844">
<rect fill="url(#paint0_linear_10623_188389)" height="474" width="844"></rect>
<rect fill="url(#paint1_radial_10623_188389)" height="474" width="844"></rect>
<rect fill-opacity="0.2" fill="url(#paint2_radial_10623_188389)" height="474" width="844"></rect>
<g filter="url(#filter0_ddddd_10623_188389)">
<path fill="white" d="M83.5337 144.88C83.7655 144.509 84.09 144.324 84.5072 144.324H92.6431C92.8749 144.324 93.0603 144.416 93.1994 144.602C93.3848 144.741 93.4776 144.926 93.4776 145.158V192.166C93.4776 192.397 93.3848 192.606 93.1994 192.791C93.0603 192.93 92.8749 193 92.6431 193H84.5072C84.2754 193 84.0668 192.93 83.8814 192.791C83.7423 192.606 83.6728 192.397 83.6728 192.166V161.499C83.6728 161.314 83.6264 161.221 83.5337 161.221C83.441 161.221 83.3483 161.291 83.2555 161.43L75.8846 172.973C75.6528 173.344 75.3283 173.529 74.911 173.529H70.8083C70.3911 173.529 70.0666 173.344 69.8348 172.973L62.4638 161.43C62.3711 161.291 62.2784 161.245 62.1857 161.291C62.0929 161.291 62.0466 161.384 62.0466 161.569V192.166C62.0466 192.397 61.9539 192.606 61.7684 192.791C61.6294 192.93 61.4439 193 61.2121 193H53.0762C52.8444 193 52.6358 192.93 52.4504 192.791C52.3113 192.606 52.2418 192.397 52.2418 192.166V145.158C52.2418 144.926 52.3113 144.741 52.4504 144.602C52.6358 144.416 52.8444 144.324 53.0762 144.324H61.2121C61.6294 144.324 61.9539 144.509 62.1857 144.88L72.6163 161.082C72.7554 161.36 72.8944 161.36 73.0335 161.082L83.5337 144.88ZM114.189 156.701C117.202 156.701 119.891 157.235 122.255 158.301C124.62 159.321 126.451 160.735 127.749 162.543C129.093 164.351 129.765 166.367 129.765 168.592V192.166C129.765 192.397 129.673 192.606 129.487 192.791C129.348 192.93 129.163 193 128.931 193H120.795C120.563 193 120.355 192.93 120.169 192.791C120.03 192.606 119.961 192.397 119.961 192.166V189.871C119.961 189.732 119.914 189.639 119.821 189.593C119.729 189.546 119.636 189.593 119.543 189.732C117.596 192.281 114.467 193.556 110.156 193.556C106.54 193.556 103.619 192.675 101.394 190.914C99.1688 189.152 98.0562 186.556 98.0562 183.126C98.0562 179.556 99.3078 176.798 101.811 174.851C104.315 172.857 107.884 171.861 112.52 171.861H119.613C119.845 171.861 119.961 171.745 119.961 171.513V169.983C119.961 168.453 119.497 167.271 118.57 166.437C117.643 165.556 116.252 165.115 114.397 165.115C112.96 165.115 111.755 165.37 110.782 165.88C109.854 166.39 109.252 167.109 108.974 168.036C108.834 168.546 108.533 168.778 108.07 168.731L99.6555 167.619C99.0992 167.526 98.8443 167.317 98.8906 166.993C99.0761 165.046 99.841 163.284 101.185 161.708C102.576 160.132 104.384 158.903 106.609 158.023C108.881 157.142 111.407 156.701 114.189 156.701ZM112.798 186.255C114.792 186.255 116.484 185.722 117.874 184.655C119.265 183.589 119.961 182.222 119.961 180.553V178.049C119.961 177.818 119.845 177.702 119.613 177.702H114.606C112.52 177.702 110.874 178.096 109.669 178.884C108.51 179.672 107.931 180.785 107.931 182.222C107.931 183.473 108.371 184.47 109.252 185.212C110.133 185.907 111.315 186.255 112.798 186.255ZM136.115 193C135.884 193 135.675 192.93 135.49 192.791C135.351 192.606 135.281 192.397 135.281 192.166V145.158C135.281 144.926 135.351 144.741 135.49 144.602C135.675 144.416 135.884 144.324 136.115 144.324H144.251C144.483 144.324 144.669 144.416 144.808 144.602C144.993 144.741 145.086 144.926 145.086 145.158V168.592C145.086 168.731 145.132 168.824 145.225 168.87C145.318 168.87 145.41 168.824 145.503 168.731L154.96 157.744C155.285 157.42 155.632 157.258 156.003 157.258H165.252C165.715 157.258 165.947 157.42 165.947 157.744C165.947 157.884 165.878 158.069 165.738 158.301L156.907 169.496C156.815 169.682 156.791 169.844 156.838 169.983L167.199 192.026C167.291 192.212 167.338 192.351 167.338 192.444C167.338 192.815 167.083 193 166.573 193H158.02C157.556 193 157.232 192.791 157.046 192.374L150.162 176.102C150.116 176.01 150.023 175.963 149.884 175.963C149.791 175.917 149.722 175.94 149.675 176.033L145.225 181.596C145.132 181.781 145.086 181.92 145.086 182.013V192.166C145.086 192.397 144.993 192.606 144.808 192.791C144.669 192.93 144.483 193 144.251 193H136.115ZM199.416 171.443C199.694 173.205 199.787 175.175 199.694 177.354C199.648 177.91 199.346 178.189 198.79 178.189H177.303C177.025 178.189 176.932 178.304 177.025 178.536C177.164 179.463 177.419 180.391 177.79 181.318C178.995 183.914 181.452 185.212 185.161 185.212C188.128 185.165 190.469 183.96 192.184 181.596C192.369 181.318 192.578 181.179 192.81 181.179C192.949 181.179 193.111 181.271 193.297 181.457L198.303 186.394C198.535 186.626 198.651 186.834 198.651 187.02C198.651 187.112 198.558 187.298 198.373 187.576C196.843 189.477 194.873 190.96 192.462 192.026C190.051 193.046 187.409 193.556 184.535 193.556C180.548 193.556 177.164 192.652 174.382 190.844C171.647 189.036 169.677 186.51 168.472 183.265C167.498 180.947 167.011 177.91 167.011 174.155C167.011 171.606 167.359 169.357 168.054 167.41C169.121 164.119 170.975 161.499 173.617 159.552C176.306 157.605 179.482 156.632 183.144 156.632C187.78 156.632 191.489 157.976 194.27 160.665C197.098 163.354 198.813 166.947 199.416 171.443ZM183.214 165.115C180.293 165.115 178.369 166.483 177.442 169.218C177.257 169.821 177.094 170.563 176.955 171.443C176.955 171.675 177.071 171.791 177.303 171.791H189.333C189.611 171.791 189.704 171.675 189.611 171.443C189.379 170.099 189.263 169.45 189.263 169.496C188.846 168.106 188.104 167.039 187.038 166.298C186.018 165.509 184.743 165.115 183.214 165.115ZM216.668 206.838C216.529 206.838 216.413 206.745 216.32 206.56C216.227 206.421 216.181 206.235 216.181 206.004V199.606C216.181 199.374 216.25 199.166 216.39 198.98C216.575 198.841 216.784 198.772 217.015 198.772C218.962 198.725 220.492 198.563 221.605 198.285C222.764 198.007 223.668 197.474 224.317 196.685C225.012 195.897 225.545 194.738 225.916 193.209C225.963 193.116 225.963 192.977 225.916 192.791L214.512 158.162C214.466 158.069 214.442 157.953 214.442 157.814C214.442 157.397 214.697 157.188 215.207 157.188H223.9C224.41 157.188 224.734 157.42 224.873 157.884L230.714 180.414C230.761 180.553 230.83 180.622 230.923 180.622C231.016 180.622 231.085 180.553 231.131 180.414L236.973 157.884C237.112 157.42 237.436 157.188 237.946 157.188H246.43C246.708 157.188 246.893 157.281 246.986 157.466C247.125 157.605 247.148 157.837 247.056 158.162L235.026 194.321C233.867 197.705 232.685 200.232 231.479 201.901C230.274 203.616 228.582 204.868 226.403 205.656C224.224 206.444 221.141 206.838 217.154 206.838H216.668ZM264.002 193.556C260.108 193.556 256.77 192.536 253.989 190.497C251.207 188.457 249.307 185.675 248.287 182.152C247.638 179.973 247.313 177.609 247.313 175.059C247.313 172.324 247.638 169.867 248.287 167.688C249.353 164.258 251.277 161.569 254.058 159.622C256.84 157.675 260.178 156.701 264.072 156.701C267.873 156.701 271.118 157.675 273.807 159.622C276.496 161.523 278.396 164.188 279.509 167.619C280.251 169.937 280.622 172.371 280.622 174.92C280.622 177.424 280.297 179.765 279.648 181.944C278.628 185.559 276.727 188.411 273.946 190.497C271.211 192.536 267.896 193.556 264.002 193.556ZM264.002 185.142C265.532 185.142 266.83 184.679 267.896 183.752C268.962 182.824 269.727 181.549 270.191 179.927C270.562 178.443 270.747 176.821 270.747 175.059C270.747 173.112 270.562 171.467 270.191 170.122C269.681 168.546 268.893 167.317 267.827 166.437C266.76 165.556 265.462 165.115 263.933 165.115C262.356 165.115 261.035 165.556 259.969 166.437C258.949 167.317 258.207 168.546 257.744 170.122C257.373 171.235 257.187 172.88 257.187 175.059C257.187 177.145 257.35 178.768 257.674 179.927C258.138 181.549 258.903 182.824 259.969 183.752C261.082 184.679 262.426 185.142 264.002 185.142ZM306.395 158.092C306.395 157.86 306.465 157.675 306.604 157.536C306.789 157.35 306.998 157.258 307.229 157.258H315.365C315.597 157.258 315.783 157.35 315.922 157.536C316.107 157.675 316.2 157.86 316.2 158.092V192.166C316.2 192.397 316.107 192.606 315.922 192.791C315.783 192.93 315.597 193 315.365 193H307.229C306.998 193 306.789 192.93 306.604 192.791C306.465 192.606 306.395 192.397 306.395 192.166V189.801C306.395 189.662 306.349 189.593 306.256 189.593C306.163 189.546 306.071 189.593 305.978 189.732C304.123 192.235 301.249 193.487 297.355 193.487C293.832 193.487 290.935 192.421 288.663 190.288C286.391 188.156 285.256 185.165 285.256 181.318V158.092C285.256 157.86 285.325 157.675 285.464 157.536C285.65 157.35 285.858 157.258 286.09 157.258H294.156C294.388 157.258 294.574 157.35 294.713 157.536C294.898 157.675 294.991 157.86 294.991 158.092V178.884C294.991 180.738 295.478 182.245 296.451 183.404C297.471 184.563 298.862 185.142 300.623 185.142C302.2 185.142 303.498 184.679 304.518 183.752C305.537 182.778 306.163 181.526 306.395 179.996V158.092ZM339.837 156.771C341.506 156.771 342.827 157.095 343.801 157.744C344.172 157.93 344.311 158.278 344.218 158.788L342.758 166.715C342.711 167.271 342.387 167.433 341.784 167.202C341.089 166.97 340.278 166.854 339.35 166.854C338.98 166.854 338.47 166.9 337.821 166.993C336.152 167.132 334.738 167.758 333.579 168.87C332.42 169.937 331.84 171.374 331.84 173.182V192.166C331.84 192.397 331.748 192.606 331.562 192.791C331.423 192.93 331.238 193 331.006 193H322.87C322.638 193 322.43 192.93 322.244 192.791C322.105 192.606 322.036 192.397 322.036 192.166V158.092C322.036 157.86 322.105 157.675 322.244 157.536C322.43 157.35 322.638 157.258 322.87 157.258H331.006C331.238 157.258 331.423 157.35 331.562 157.536C331.748 157.675 331.84 157.86 331.84 158.092V160.735C331.84 160.874 331.887 160.966 331.979 161.013C332.072 161.059 332.142 161.036 332.188 160.943C334.089 158.162 336.638 156.771 339.837 156.771ZM65.8712 228.701C68.8844 228.701 71.5732 229.235 73.9375 230.301C76.3018 231.321 78.1329 232.735 79.431 234.543C80.7754 236.351 81.4476 238.367 81.4476 240.592V264.166C81.4476 264.397 81.3548 264.606 81.1694 264.791C81.0303 264.93 80.8449 265 80.6131 265H72.4772C72.2454 265 72.0368 264.93 71.8514 264.791C71.7123 264.606 71.6428 264.397 71.6428 264.166V261.871C71.6428 261.732 71.5964 261.639 71.5037 261.593C71.411 261.546 71.3183 261.593 71.2255 261.732C69.2785 264.281 66.1493 265.556 61.838 265.556C58.222 265.556 55.3014 264.675 53.0762 262.914C50.851 261.152 49.7384 258.556 49.7384 255.126C49.7384 251.556 50.9901 248.798 53.4935 246.851C55.9968 244.857 59.5664 243.861 64.2023 243.861H71.2951C71.5269 243.861 71.6428 243.745 71.6428 243.513V241.983C71.6428 240.453 71.1792 239.271 70.252 238.437C69.3249 237.556 67.9341 237.115 66.0798 237.115C64.6427 237.115 63.4373 237.37 62.4638 237.88C61.5366 238.39 60.934 239.109 60.6558 240.036C60.5168 240.546 60.2154 240.778 59.7518 240.731L51.3378 239.619C50.7815 239.526 50.5265 239.317 50.5729 238.993C50.7583 237.046 51.5232 235.284 52.8676 233.708C54.2584 232.132 56.0664 230.903 58.2916 230.023C60.5631 229.142 63.0896 228.701 65.8712 228.701ZM64.4804 258.255C66.4738 258.255 68.1659 257.722 69.5566 256.655C70.9474 255.589 71.6428 254.222 71.6428 252.553V250.049C71.6428 249.818 71.5269 249.702 71.2951 249.702H66.2884C64.2023 249.702 62.5565 250.096 61.3512 250.884C60.1923 251.672 59.6128 252.785 59.6128 254.222C59.6128 255.473 60.0532 256.47 60.934 257.212C61.8148 257.907 62.9969 258.255 64.4804 258.255ZM118.881 238.854C119.715 241.218 120.133 244 120.133 247.198C120.133 250.397 119.692 253.295 118.812 255.891C117.745 258.858 116.053 261.222 113.735 262.983C111.464 264.699 108.636 265.556 105.252 265.556C101.914 265.556 99.3178 264.397 97.4635 262.079C97.3708 261.94 97.278 261.894 97.1853 261.94C97.0926 261.987 97.0462 262.079 97.0462 262.218V277.1C97.0462 277.331 96.9535 277.517 96.7681 277.656C96.629 277.841 96.4436 277.934 96.2118 277.934H88.0759C87.8441 277.934 87.6355 277.841 87.4501 277.656C87.311 277.517 87.2415 277.331 87.2415 277.1V230.092C87.2415 229.86 87.311 229.675 87.4501 229.536C87.6355 229.35 87.8441 229.258 88.0759 229.258H96.2118C96.4436 229.258 96.629 229.35 96.7681 229.536C96.9535 229.675 97.0462 229.86 97.0462 230.092V232.387C97.0462 232.526 97.0926 232.619 97.1853 232.665C97.278 232.665 97.3708 232.619 97.4635 232.526C99.4105 229.976 102.099 228.701 105.53 228.701C108.729 228.701 111.487 229.605 113.805 231.413C116.169 233.175 117.861 235.655 118.881 238.854ZM108.242 254.43C109.401 252.622 109.98 250.165 109.98 247.059C109.98 244.139 109.493 241.821 108.52 240.106C107.454 238.112 105.738 237.115 103.374 237.115C101.242 237.115 99.6423 238.112 98.5761 240.106C97.6026 241.774 97.1158 244.116 97.1158 247.129C97.1158 250.235 97.6257 252.645 98.6456 254.361C99.7119 256.215 101.288 257.142 103.374 257.142C105.46 257.142 107.083 256.238 108.242 254.43ZM157.013 238.854C157.847 241.218 158.264 244 158.264 247.198C158.264 250.397 157.824 253.295 156.943 255.891C155.877 258.858 154.185 261.222 151.867 262.983C149.595 264.699 146.767 265.556 143.383 265.556C140.045 265.556 137.449 264.397 135.595 262.079C135.502 261.94 135.41 261.894 135.317 261.94C135.224 261.987 135.178 262.079 135.178 262.218V277.1C135.178 277.331 135.085 277.517 134.9 277.656C134.761 277.841 134.575 277.934 134.343 277.934H126.207C125.976 277.934 125.767 277.841 125.582 277.656C125.443 277.517 125.373 277.331 125.373 277.1V230.092C125.373 229.86 125.443 229.675 125.582 229.536C125.767 229.35 125.976 229.258 126.207 229.258H134.343C134.575 229.258 134.761 229.35 134.9 229.536C135.085 229.675 135.178 229.86 135.178 230.092V232.387C135.178 232.526 135.224 232.619 135.317 232.665C135.41 232.665 135.502 232.619 135.595 232.526C137.542 229.976 140.231 228.701 143.661 228.701C146.86 228.701 149.618 229.605 151.936 231.413C154.301 233.175 155.993 235.655 157.013 238.854ZM146.373 254.43C147.532 252.622 148.112 250.165 148.112 247.059C148.112 244.139 147.625 241.821 146.652 240.106C145.585 238.112 143.87 237.115 141.506 237.115C139.373 237.115 137.774 238.112 136.708 240.106C135.734 241.774 135.247 244.116 135.247 247.129C135.247 250.235 135.757 252.645 136.777 254.361C137.843 256.215 139.42 257.142 141.506 257.142C143.592 257.142 145.214 256.238 146.373 254.43ZM164.061 265C163.829 265 163.62 264.93 163.435 264.791C163.296 264.606 163.226 264.397 163.226 264.166V217.158C163.226 216.926 163.296 216.741 163.435 216.602C163.62 216.416 163.829 216.324 164.061 216.324H172.197C172.429 216.324 172.614 216.416 172.753 216.602C172.939 216.741 173.031 216.926 173.031 217.158V264.166C173.031 264.397 172.939 264.606 172.753 264.791C172.614 264.93 172.429 265 172.197 265H164.061ZM184.097 225.225C182.521 225.225 181.2 224.715 180.134 223.695C179.114 222.628 178.604 221.307 178.604 219.731C178.604 218.109 179.114 216.787 180.134 215.767C181.154 214.748 182.475 214.238 184.097 214.238C185.72 214.238 187.041 214.748 188.061 215.767C189.081 216.787 189.591 218.109 189.591 219.731C189.591 221.307 189.058 222.628 187.992 223.695C186.972 224.715 185.674 225.225 184.097 225.225ZM179.925 265C179.693 265 179.485 264.93 179.299 264.791C179.16 264.606 179.091 264.397 179.091 264.166V230.023C179.091 229.791 179.16 229.605 179.299 229.466C179.485 229.281 179.693 229.188 179.925 229.188H188.061C188.293 229.188 188.478 229.281 188.617 229.466C188.803 229.605 188.896 229.791 188.896 230.023V264.166C188.896 264.397 188.803 264.606 188.617 264.791C188.478 264.93 188.293 265 188.061 265H179.925ZM210.861 265.556C207.153 265.556 203.931 264.629 201.196 262.775C198.507 260.92 196.583 258.371 195.424 255.126C194.636 252.808 194.242 250.073 194.242 246.92C194.242 243.814 194.636 241.125 195.424 238.854C196.537 235.702 198.46 233.221 201.196 231.413C203.931 229.605 207.153 228.701 210.861 228.701C214.57 228.701 217.815 229.629 220.597 231.483C223.424 233.337 225.302 235.678 226.229 238.506C226.6 239.619 226.785 240.453 226.785 241.01V241.149C226.785 241.566 226.554 241.821 226.09 241.914L218.093 243.096H217.954C217.537 243.096 217.259 242.864 217.12 242.4L216.911 241.288C216.587 240.082 215.868 239.086 214.755 238.298C213.643 237.509 212.322 237.115 210.792 237.115C209.308 237.115 208.057 237.486 207.037 238.228C206.017 238.97 205.298 239.99 204.881 241.288C204.371 242.678 204.116 244.579 204.116 246.99C204.116 249.4 204.348 251.301 204.812 252.692C205.229 254.083 205.947 255.172 206.967 255.96C208.033 256.748 209.308 257.142 210.792 257.142C212.229 257.142 213.481 256.771 214.547 256.03C215.659 255.242 216.424 254.175 216.842 252.831C216.888 252.738 216.911 252.599 216.911 252.414C216.957 252.367 216.981 252.298 216.981 252.205C217.027 251.649 217.351 251.417 217.954 251.51L225.951 252.761C226.415 252.854 226.646 253.109 226.646 253.526C226.646 253.897 226.507 254.593 226.229 255.612C225.256 258.718 223.355 261.152 220.527 262.914C217.746 264.675 214.524 265.556 210.861 265.556ZM245.36 228.701C248.373 228.701 251.062 229.235 253.426 230.301C255.79 231.321 257.621 232.735 258.919 234.543C260.264 236.351 260.936 238.367 260.936 240.592V264.166C260.936 264.397 260.843 264.606 260.658 264.791C260.519 264.93 260.333 265 260.101 265H251.966C251.734 265 251.525 264.93 251.34 264.791C251.201 264.606 251.131 264.397 251.131 264.166V261.871C251.131 261.732 251.085 261.639 250.992 261.593C250.899 261.546 250.807 261.593 250.714 261.732C248.767 264.281 245.638 265.556 241.326 265.556C237.71 265.556 234.79 264.675 232.565 262.914C230.339 261.152 229.227 258.556 229.227 255.126C229.227 251.556 230.478 248.798 232.982 246.851C235.485 244.857 239.055 243.861 243.691 243.861H250.783C251.015 243.861 251.131 243.745 251.131 243.513V241.983C251.131 240.453 250.668 239.271 249.74 238.437C248.813 237.556 247.422 237.115 245.568 237.115C244.131 237.115 242.926 237.37 241.952 237.88C241.025 238.39 240.422 239.109 240.144 240.036C240.005 240.546 239.704 240.778 239.24 240.731L230.826 239.619C230.27 239.526 230.015 239.317 230.061 238.993C230.247 237.046 231.012 235.284 232.356 233.708C233.747 232.132 235.555 230.903 237.78 230.023C240.051 229.142 242.578 228.701 245.36 228.701ZM243.969 258.255C245.962 258.255 247.654 257.722 249.045 256.655C250.436 255.589 251.131 254.222 251.131 252.553V250.049C251.131 249.818 251.015 249.702 250.783 249.702H245.777C243.691 249.702 242.045 250.096 240.84 250.884C239.681 251.672 239.101 252.785 239.101 254.222C239.101 255.473 239.542 256.47 240.422 257.212C241.303 257.907 242.485 258.255 243.969 258.255ZM286.218 236.281C286.218 236.513 286.126 236.721 285.94 236.907C285.801 237.046 285.616 237.115 285.384 237.115H278.708C278.476 237.115 278.361 237.231 278.361 237.463V252.205C278.361 253.735 278.662 254.871 279.265 255.612C279.914 256.354 280.933 256.725 282.324 256.725H284.619C284.851 256.725 285.036 256.818 285.175 257.003C285.361 257.142 285.453 257.328 285.453 257.559V264.166C285.453 264.675 285.175 264.977 284.619 265.07C282.672 265.162 281.281 265.209 280.447 265.209C276.599 265.209 273.725 264.583 271.824 263.331C269.923 262.033 268.95 259.622 268.903 256.099V237.463C268.903 237.231 268.788 237.115 268.556 237.115H264.592C264.36 237.115 264.152 237.046 263.966 236.907C263.827 236.721 263.758 236.513 263.758 236.281V230.092C263.758 229.86 263.827 229.675 263.966 229.536C264.152 229.35 264.36 229.258 264.592 229.258H268.556C268.788 229.258 268.903 229.142 268.903 228.91V220.635C268.903 220.403 268.973 220.218 269.112 220.079C269.297 219.893 269.506 219.801 269.738 219.801H277.526C277.758 219.801 277.943 219.893 278.082 220.079C278.268 220.218 278.361 220.403 278.361 220.635V228.91C278.361 229.142 278.476 229.258 278.708 229.258H285.384C285.616 229.258 285.801 229.35 285.94 229.536C286.126 229.675 286.218 229.86 286.218 230.092V236.281ZM296.015 225.225C294.439 225.225 293.118 224.715 292.051 223.695C291.031 222.628 290.521 221.307 290.521 219.731C290.521 218.109 291.031 216.787 292.051 215.767C293.071 214.748 294.392 214.238 296.015 214.238C297.637 214.238 298.959 214.748 299.979 215.767C300.998 216.787 301.508 218.109 301.508 219.731C301.508 221.307 300.975 222.628 299.909 223.695C298.889 224.715 297.591 225.225 296.015 225.225ZM291.843 265C291.611 265 291.402 264.93 291.217 264.791C291.078 264.606 291.008 264.397 291.008 264.166V230.023C291.008 229.791 291.078 229.605 291.217 229.466C291.402 229.281 291.611 229.188 291.843 229.188H299.979C300.21 229.188 300.396 229.281 300.535 229.466C300.72 229.605 300.813 229.791 300.813 230.023V264.166C300.813 264.397 300.72 264.606 300.535 264.791C300.396 264.93 300.21 265 299.979 265H291.843ZM322.848 265.556C318.954 265.556 315.616 264.536 312.835 262.497C310.053 260.457 308.153 257.675 307.133 254.152C306.484 251.973 306.159 249.609 306.159 247.059C306.159 244.324 306.484 241.867 307.133 239.688C308.199 236.258 310.123 233.569 312.904 231.622C315.686 229.675 319.024 228.701 322.918 228.701C326.719 228.701 329.964 229.675 332.653 231.622C335.342 233.523 337.243 236.188 338.355 239.619C339.097 241.937 339.468 244.371 339.468 246.92C339.468 249.424 339.143 251.765 338.494 253.944C337.474 257.559 335.574 260.411 332.792 262.497C330.057 264.536 326.742 265.556 322.848 265.556ZM322.848 257.142C324.378 257.142 325.676 256.679 326.742 255.752C327.809 254.824 328.574 253.549 329.037 251.927C329.408 250.443 329.593 248.821 329.593 247.059C329.593 245.112 329.408 243.467 329.037 242.122C328.527 240.546 327.739 239.317 326.673 238.437C325.607 237.556 324.309 237.115 322.779 237.115C321.203 237.115 319.881 237.556 318.815 238.437C317.795 239.317 317.053 240.546 316.59 242.122C316.219 243.235 316.034 244.88 316.034 247.059C316.034 249.145 316.196 250.768 316.52 251.927C316.984 253.549 317.749 254.824 318.815 255.752C319.928 256.679 321.272 257.142 322.848 257.142ZM363.016 228.701C366.725 228.701 369.715 229.837 371.986 232.109C374.258 234.38 375.394 237.463 375.394 241.357V264.166C375.394 264.397 375.301 264.606 375.115 264.791C374.976 264.93 374.791 265 374.559 265H366.423C366.192 265 365.983 264.93 365.797 264.791C365.658 264.606 365.589 264.397 365.589 264.166V243.374C365.589 241.519 365.056 240.013 363.989 238.854C362.97 237.695 361.602 237.115 359.887 237.115C358.172 237.115 356.781 237.695 355.715 238.854C354.695 240.013 354.185 241.519 354.185 243.374V264.166C354.185 264.397 354.092 264.606 353.907 264.791C353.767 264.93 353.582 265 353.35 265H345.214C344.983 265 344.774 264.93 344.589 264.791C344.449 264.606 344.38 264.397 344.38 264.166V230.092C344.38 229.86 344.449 229.675 344.589 229.536C344.774 229.35 344.983 229.258 345.214 229.258H353.35C353.582 229.258 353.767 229.35 353.907 229.536C354.092 229.675 354.185 229.86 354.185 230.092V232.526C354.185 232.665 354.231 232.758 354.324 232.804C354.416 232.85 354.486 232.827 354.532 232.735C356.433 230.046 359.261 228.701 363.016 228.701ZM71.9905 301.188C72.2222 301.188 72.4077 301.281 72.5468 301.466C72.7322 301.605 72.8249 301.791 72.8249 302.023V308.629C72.8249 308.86 72.7322 309.069 72.5468 309.255C72.4077 309.394 72.2222 309.463 71.9905 309.463H65.2453C65.0135 309.463 64.8976 309.579 64.8976 309.811V336.166C64.8976 336.397 64.8049 336.606 64.6195 336.791C64.4804 336.93 64.295 337 64.0632 337H55.9273C55.6955 337 55.4869 336.93 55.3014 336.791C55.1624 336.606 55.0928 336.397 55.0928 336.166V309.811C55.0928 309.579 54.9769 309.463 54.7451 309.463H50.6424C50.4106 309.463 50.202 309.394 50.0166 309.255C49.8775 309.069 49.808 308.86 49.808 308.629V302.023C49.808 301.791 49.8775 301.605 50.0166 301.466C50.202 301.281 50.4106 301.188 50.6424 301.188H54.7451C54.9769 301.188 55.0928 301.072 55.0928 300.84V299.311C55.0928 296.436 55.5332 294.211 56.414 292.635C57.2949 291.012 58.7088 289.877 60.6558 289.228C62.6492 288.532 65.3844 288.231 68.8613 288.324H71.5037C71.7355 288.324 71.9209 288.416 72.06 288.602C72.2454 288.741 72.3381 288.926 72.3381 289.158V294.791C72.3381 295.022 72.2454 295.231 72.06 295.417C71.9209 295.556 71.7355 295.625 71.5037 295.625H69.209C67.5864 295.672 66.4506 296.019 65.8016 296.668C65.199 297.271 64.8976 298.407 64.8976 300.076V300.84C64.8976 301.072 65.0135 301.188 65.2453 301.188H71.9905ZM90.8965 300.701C93.9098 300.701 96.5986 301.235 98.9629 302.301C101.327 303.321 103.158 304.735 104.456 306.543C105.801 308.351 106.473 310.367 106.473 312.592V336.166C106.473 336.397 106.38 336.606 106.195 336.791C106.056 336.93 105.87 337 105.638 337H97.5026C97.2708 337 97.0622 336.93 96.8768 336.791C96.7377 336.606 96.6681 336.397 96.6681 336.166V333.871C96.6681 333.732 96.6218 333.639 96.5291 333.593C96.4363 333.546 96.3436 333.593 96.2509 333.732C94.3039 336.281 91.1747 337.556 86.8633 337.556C83.2474 337.556 80.3268 336.675 78.1016 334.914C75.8764 333.152 74.7638 330.556 74.7638 327.126C74.7638 323.556 76.0155 320.798 78.5188 318.851C81.0222 316.857 84.5918 315.861 89.2276 315.861H96.3205C96.5522 315.861 96.6681 315.745 96.6681 315.513V313.983C96.6681 312.453 96.2046 311.271 95.2774 310.437C94.3502 309.556 92.9595 309.115 91.1051 309.115C89.668 309.115 88.4627 309.37 87.4892 309.88C86.562 310.39 85.9594 311.109 85.6812 312.036C85.5421 312.546 85.2408 312.778 84.7772 312.731L76.3632 311.619C75.8069 311.526 75.5519 311.317 75.5983 310.993C75.7837 309.046 76.5486 307.284 77.893 305.708C79.2837 304.132 81.0917 302.903 83.3169 302.023C85.5885 301.142 88.115 300.701 90.8965 300.701ZM89.5058 330.255C91.4992 330.255 93.1913 329.722 94.582 328.655C95.9728 327.589 96.6681 326.222 96.6681 324.553V322.049C96.6681 321.818 96.5522 321.702 96.3205 321.702H91.3137C89.2276 321.702 87.5819 322.096 86.3766 322.884C85.2176 323.672 84.6381 324.785 84.6381 326.222C84.6381 327.473 85.0785 328.47 85.9594 329.212C86.8402 329.907 88.0223 330.255 89.5058 330.255ZM126.244 337.487C123.138 337.487 120.426 337.046 118.108 336.166C115.79 335.285 113.982 334.056 112.684 332.48C111.432 330.904 110.807 329.119 110.807 327.126V326.43C110.807 326.198 110.876 326.013 111.015 325.874C111.201 325.689 111.409 325.596 111.641 325.596H119.36C119.591 325.596 119.777 325.689 119.916 325.874C120.101 326.013 120.194 326.198 120.194 326.43V326.5C120.194 327.52 120.75 328.401 121.863 329.142C123.022 329.838 124.459 330.185 126.174 330.185C127.751 330.185 129.025 329.884 129.999 329.281C130.972 328.632 131.459 327.844 131.459 326.917C131.459 326.083 131.042 325.457 130.208 325.04C129.373 324.622 128.005 324.182 126.105 323.718C123.926 323.162 122.211 322.629 120.959 322.119C117.992 321.099 115.628 319.847 113.866 318.364C112.105 316.88 111.224 314.748 111.224 311.966C111.224 308.536 112.545 305.824 115.187 303.831C117.876 301.791 121.423 300.771 125.827 300.771C128.794 300.771 131.39 301.258 133.615 302.231C135.84 303.158 137.555 304.48 138.761 306.195C140.012 307.91 140.638 309.857 140.638 312.036C140.638 312.268 140.545 312.476 140.36 312.662C140.221 312.801 140.035 312.87 139.804 312.87H132.363C132.131 312.87 131.923 312.801 131.737 312.662C131.598 312.476 131.529 312.268 131.529 312.036C131.529 311.016 130.996 310.159 129.929 309.463C128.909 308.768 127.542 308.42 125.827 308.42C124.297 308.42 123.045 308.698 122.072 309.255C121.098 309.811 120.611 310.576 120.611 311.549C120.611 312.476 121.075 313.172 122.002 313.635C122.976 314.099 124.575 314.586 126.8 315.096C127.31 315.235 127.89 315.397 128.539 315.582C129.188 315.722 129.883 315.907 130.625 316.139C133.916 317.112 136.512 318.364 138.413 319.894C140.314 321.424 141.264 323.649 141.264 326.569C141.264 330 139.896 332.689 137.161 334.636C134.472 336.536 130.833 337.487 126.244 337.487ZM165.948 308.281C165.948 308.513 165.855 308.721 165.67 308.907C165.531 309.046 165.346 309.115 165.114 309.115H158.438C158.206 309.115 158.09 309.231 158.09 309.463V324.205C158.09 325.735 158.392 326.871 158.994 327.612C159.643 328.354 160.663 328.725 162.054 328.725H164.349C164.581 328.725 164.766 328.818 164.905 329.003C165.091 329.142 165.183 329.328 165.183 329.559V336.166C165.183 336.675 164.905 336.977 164.349 337.07C162.402 337.162 161.011 337.209 160.177 337.209C156.329 337.209 153.455 336.583 151.554 335.331C149.653 334.033 148.68 331.622 148.633 328.099V309.463C148.633 309.231 148.517 309.115 148.286 309.115H144.322C144.09 309.115 143.882 309.046 143.696 308.907C143.557 308.721 143.488 308.513 143.488 308.281V302.092C143.488 301.86 143.557 301.675 143.696 301.536C143.882 301.35 144.09 301.258 144.322 301.258H148.286C148.517 301.258 148.633 301.142 148.633 300.91V292.635C148.633 292.403 148.703 292.218 148.842 292.079C149.027 291.893 149.236 291.801 149.468 291.801H157.256C157.488 291.801 157.673 291.893 157.812 292.079C157.998 292.218 158.09 292.403 158.09 292.635V300.91C158.09 301.142 158.206 301.258 158.438 301.258H165.114C165.346 301.258 165.531 301.35 165.67 301.536C165.855 301.675 165.948 301.86 165.948 302.092V308.281ZM204.825 302.092C204.825 301.86 204.895 301.675 205.034 301.536C205.219 301.35 205.428 301.258 205.66 301.258H213.795C214.027 301.258 214.213 301.35 214.352 301.536C214.537 301.675 214.63 301.86 214.63 302.092V333.801C214.63 339.874 212.868 344.209 209.345 346.805C205.868 349.401 201.371 350.699 195.855 350.699C194.232 350.699 192.424 350.583 190.431 350.351C189.967 350.305 189.735 350.004 189.735 349.447L190.014 342.285C190.014 341.682 190.338 341.427 190.987 341.52C192.656 341.798 194.186 341.937 195.577 341.937C198.544 341.937 200.815 341.288 202.391 339.99C204.014 338.692 204.825 336.606 204.825 333.732C204.825 333.593 204.779 333.523 204.686 333.523C204.593 333.477 204.501 333.5 204.408 333.593C202.646 335.493 200.073 336.444 196.689 336.444C193.676 336.444 190.894 335.725 188.345 334.288C185.841 332.805 184.057 330.44 182.99 327.195C182.295 325.063 181.947 322.304 181.947 318.92C181.947 315.304 182.364 312.361 183.199 310.089C184.172 307.261 185.818 304.99 188.136 303.274C190.454 301.559 193.143 300.701 196.202 300.701C199.772 300.701 202.507 301.768 204.408 303.9C204.501 303.993 204.593 304.039 204.686 304.039C204.779 303.993 204.825 303.9 204.825 303.761V302.092ZM204.269 324.553C204.64 323.162 204.825 321.261 204.825 318.851C204.825 317.414 204.779 316.301 204.686 315.513C204.593 314.725 204.431 313.983 204.199 313.288C203.782 312.036 203.087 311.039 202.113 310.298C201.14 309.509 199.934 309.115 198.497 309.115C197.106 309.115 195.924 309.509 194.951 310.298C193.977 311.039 193.259 312.036 192.795 313.288C192.146 314.678 191.822 316.556 191.822 318.92C191.822 321.516 192.1 323.371 192.656 324.483C193.073 325.735 193.792 326.755 194.812 327.543C195.878 328.285 197.13 328.655 198.567 328.655C200.05 328.655 201.279 328.285 202.252 327.543C203.226 326.755 203.898 325.758 204.269 324.553ZM221.074 337C220.842 337 220.633 336.93 220.448 336.791C220.309 336.606 220.239 336.397 220.239 336.166V289.158C220.239 288.926 220.309 288.741 220.448 288.602C220.633 288.416 220.842 288.324 221.074 288.324H229.209C229.441 288.324 229.627 288.416 229.766 288.602C229.951 288.741 230.044 288.926 230.044 289.158V336.166C230.044 336.397 229.951 336.606 229.766 336.791C229.627 336.93 229.441 337 229.209 337H221.074ZM251.61 337.556C247.716 337.556 244.378 336.536 241.597 334.497C238.815 332.457 236.915 329.675 235.895 326.152C235.246 323.973 234.921 321.609 234.921 319.059C234.921 316.324 235.246 313.867 235.895 311.688C236.961 308.258 238.885 305.569 241.666 303.622C244.448 301.675 247.786 300.701 251.68 300.701C255.481 300.701 258.726 301.675 261.415 303.622C264.104 305.523 266.005 308.188 267.117 311.619C267.859 313.937 268.23 316.371 268.23 318.92C268.23 321.424 267.905 323.765 267.256 325.944C266.236 329.559 264.336 332.411 261.554 334.497C258.819 336.536 255.504 337.556 251.61 337.556ZM251.61 329.142C253.14 329.142 254.438 328.679 255.504 327.752C256.571 326.824 257.336 325.549 257.799 323.927C258.17 322.443 258.355 320.821 258.355 319.059C258.355 317.112 258.17 315.467 257.799 314.122C257.289 312.546 256.501 311.317 255.435 310.437C254.369 309.556 253.071 309.115 251.541 309.115C249.965 309.115 248.643 309.556 247.577 310.437C246.557 311.317 245.816 312.546 245.352 314.122C244.981 315.235 244.796 316.88 244.796 319.059C244.796 321.145 244.958 322.768 245.282 323.927C245.746 325.549 246.511 326.824 247.577 327.752C248.69 328.679 250.034 329.142 251.61 329.142ZM304.782 310.367C305.662 312.778 306.103 315.652 306.103 318.99C306.103 322.189 305.709 324.993 304.921 327.404C303.854 330.556 302.139 333.036 299.775 334.844C297.457 336.652 294.699 337.556 291.5 337.556C288.116 337.556 285.45 336.281 283.503 333.732C283.41 333.639 283.318 333.616 283.225 333.662C283.132 333.662 283.086 333.732 283.086 333.871V336.166C283.086 336.397 282.993 336.606 282.808 336.791C282.669 336.93 282.483 337 282.251 337H274.115C273.884 337 273.675 336.93 273.49 336.791C273.351 336.606 273.281 336.397 273.281 336.166V289.158C273.281 288.926 273.351 288.741 273.49 288.602C273.675 288.416 273.884 288.324 274.115 288.324H282.251C282.483 288.324 282.669 288.416 282.808 288.602C282.993 288.741 283.086 288.926 283.086 289.158V304.039C283.086 304.178 283.132 304.271 283.225 304.317C283.318 304.364 283.41 304.317 283.503 304.178C285.311 301.86 287.884 300.701 291.222 300.701C294.606 300.701 297.434 301.582 299.705 303.344C302.023 305.059 303.715 307.4 304.782 310.367ZM294.49 326.152C295.464 324.391 295.95 322.073 295.95 319.198C295.95 316 295.394 313.543 294.281 311.827C293.169 310.019 291.523 309.115 289.344 309.115C287.304 309.115 285.751 310.019 284.685 311.827C283.665 313.589 283.155 316.023 283.155 319.129C283.155 322.235 283.619 324.576 284.546 326.152C285.659 328.146 287.281 329.142 289.414 329.142C291.685 329.142 293.377 328.146 294.49 326.152ZM325.393 300.701C328.406 300.701 331.095 301.235 333.459 302.301C335.824 303.321 337.655 304.735 338.953 306.543C340.297 308.351 340.969 310.367 340.969 312.592V336.166C340.969 336.397 340.877 336.606 340.691 336.791C340.552 336.93 340.367 337 340.135 337H331.999C331.767 337 331.559 336.93 331.373 336.791C331.234 336.606 331.165 336.397 331.165 336.166V333.871C331.165 333.732 331.118 333.639 331.025 333.593C330.933 333.546 330.84 333.593 330.747 333.732C328.8 336.281 325.671 337.556 321.36 337.556C317.744 337.556 314.823 336.675 312.598 334.914C310.373 333.152 309.26 330.556 309.26 327.126C309.26 323.556 310.512 320.798 313.015 318.851C315.519 316.857 319.088 315.861 323.724 315.861H330.817C331.049 315.861 331.165 315.745 331.165 315.513V313.983C331.165 312.453 330.701 311.271 329.774 310.437C328.847 309.556 327.456 309.115 325.602 309.115C324.164 309.115 322.959 309.37 321.986 309.88C321.058 310.39 320.456 311.109 320.178 312.036C320.039 312.546 319.737 312.778 319.274 312.731L310.86 311.619C310.303 311.526 310.048 311.317 310.095 310.993C310.28 309.046 311.045 307.284 312.389 305.708C313.78 304.132 315.588 302.903 317.813 302.023C320.085 301.142 322.611 300.701 325.393 300.701ZM324.002 330.255C325.996 330.255 327.688 329.722 329.078 328.655C330.469 327.589 331.165 326.222 331.165 324.553V322.049C331.165 321.818 331.049 321.702 330.817 321.702H325.81C323.724 321.702 322.078 322.096 320.873 322.884C319.714 323.672 319.135 324.785 319.135 326.222C319.135 327.473 319.575 328.47 320.456 329.212C321.337 329.907 322.519 330.255 324.002 330.255ZM347.32 337C347.088 337 346.879 336.93 346.694 336.791C346.555 336.606 346.485 336.397 346.485 336.166V289.158C346.485 288.926 346.555 288.741 346.694 288.602C346.879 288.416 347.088 288.324 347.32 288.324H355.455C355.687 288.324 355.873 288.416 356.012 288.602C356.197 288.741 356.29 288.926 356.29 289.158V336.166C356.29 336.397 356.197 336.606 356.012 336.791C355.873 336.93 355.687 337 355.455 337H347.32ZM362.906 337C362.674 337 362.465 336.93 362.28 336.791C362.141 336.606 362.071 336.397 362.071 336.166V289.158C362.071 288.926 362.141 288.741 362.28 288.602C362.465 288.416 362.674 288.324 362.906 288.324H371.042C371.273 288.324 371.459 288.416 371.598 288.602C371.783 288.741 371.876 288.926 371.876 289.158V336.166C371.876 336.397 371.783 336.606 371.598 336.791C371.459 336.93 371.273 337 371.042 337H362.906ZM377.449 350.838C377.31 350.838 377.194 350.745 377.101 350.56C377.008 350.421 376.962 350.235 376.962 350.004V343.606C376.962 343.374 377.032 343.166 377.171 342.98C377.356 342.841 377.565 342.772 377.797 342.772C379.744 342.725 381.273 342.563 382.386 342.285C383.545 342.007 384.449 341.474 385.098 340.685C385.793 339.897 386.326 338.738 386.697 337.209C386.744 337.116 386.744 336.977 386.697 336.791L375.293 302.162C375.247 302.069 375.224 301.953 375.224 301.814C375.224 301.397 375.479 301.188 375.989 301.188H384.681C385.191 301.188 385.515 301.42 385.654 301.884L391.495 324.414C391.542 324.553 391.611 324.622 391.704 324.622C391.797 324.622 391.866 324.553 391.913 324.414L397.754 301.884C397.893 301.42 398.217 301.188 398.727 301.188H407.211C407.489 301.188 407.674 301.281 407.767 301.466C407.906 301.605 407.929 301.837 407.837 302.162L395.807 338.321C394.648 341.705 393.466 344.232 392.26 345.901C391.055 347.616 389.363 348.868 387.184 349.656C385.005 350.444 381.922 350.838 377.936 350.838H377.449Z"></path>
</g>
<path stroke-miterlimit="10" stroke-width="3.36985" stroke="#154F47" fill-opacity="0.05" fill="#B7F4EE" d="M621.996 371.556C710.076 371.556 781.478 317.705 781.478 251.278C781.478 184.85 710.076 131 621.996 131C533.917 131 462.514 184.85 462.514 251.278C462.514 317.705 533.917 371.556 621.996 371.556Z"></path>
<path stroke-miterlimit="10" stroke-width="3.36985" stroke="#154F47" d="M621.996 371.556C686.666 371.556 739.092 317.705 739.092 251.278C739.092 184.85 686.666 131 621.996 131C557.325 131 504.899 184.85 504.899 251.278C504.899 317.705 557.325 371.556 621.996 371.556Z"></path>
<path stroke-miterlimit="10" stroke-width="3.36985" stroke="#154F47" d="M621.996 371.556C663.255 371.556 696.703 317.705 696.703 251.278C696.703 184.85 663.255 131 621.996 131C580.736 131 547.289 184.85 547.289 251.278C547.289 317.705 580.736 371.556 621.996 371.556Z"></path>
<path stroke-miterlimit="10" stroke-width="3.36985" stroke="#154F47" d="M621.996 371.556C639.846 371.556 654.317 317.705 654.317 251.278C654.317 184.85 639.846 131 621.996 131C604.145 131 589.675 184.85 589.675 251.278C589.675 317.705 604.145 371.556 621.996 371.556Z"></path>
<path stroke-miterlimit="10" stroke-width="3.36985" stroke="#154F47" d="M778.485 227.965C778.485 243.115 708.422 255.396 621.996 255.396C535.571 255.396 465.508 243.115 465.508 227.965"></path>
<path stroke-linecap="round" stroke-width="1.12328" stroke="url(#paint3_linear_10623_188389)" d="M598.155 167.436C562.197 97.3428 525.641 133.363 511.857 160.134C455.045 143.51 466.761 183.162 475.45 215.175C426.548 292.909 542.571 311.217 606.695 310.654C553.837 396.473 511.857 380 504 305C499.685 173.351 564.595 167.061 598.155 167.436ZM598.155 167.436C624.823 133.363 686.969 83.4141 722.208 156.203C761.161 168.746 820.011 221.241 743.782 330.873C743.332 261.23 713.578 131.041 598.155 167.436Z"></path>
<path stroke-linecap="round" stroke-width="1.12328" stroke="url(#paint4_linear_10623_188389)" d="M596.357 332.56C582.273 282.387 562.557 179.12 596.357 167.438C611.938 218.734 662.339 306.725 739.287 248.314"></path>
<path stroke-width="3.36985" stroke="#71E8DF" fill="#154F47" d="M470.206 207.312C476.725 207.312 481.439 213.697 481.439 220.791C481.439 227.885 476.725 234.27 470.206 234.27C463.688 234.269 458.974 227.885 458.974 220.791C458.974 213.697 463.687 207.312 470.206 207.312Z"></path>
<path stroke-width="3.36985" stroke="#71E8DF" fill="#154F47" d="M733.739 236.835C740.257 236.835 744.971 243.22 744.971 250.314C744.971 257.409 740.257 263.793 733.739 263.793C727.22 263.793 722.506 257.409 722.506 250.314C722.506 243.22 727.22 236.835 733.739 236.835Z"></path>
<path stroke-width="3.36985" stroke="#71E8DF" fill="#154F47" d="M591.521 159.011C595.041 159.011 598.307 159.89 600.748 161.401C603.163 162.896 605 165.183 605 167.997C605 170.811 603.163 173.097 600.748 174.592C598.307 176.103 595.041 176.983 591.521 176.983C588.002 176.983 584.735 176.103 582.294 174.592C579.879 173.097 578.042 170.811 578.042 167.997C578.042 165.183 579.879 162.896 582.294 161.401C584.735 159.89 588.002 159.011 591.521 159.011Z"></path>
<path stroke-width="3.36985" stroke="#71E8DF" fill="#154F47" d="M589.275 321.886C592.794 321.886 596.06 322.765 598.501 324.276C600.917 325.771 602.753 328.058 602.753 330.872C602.753 333.686 600.916 335.972 598.501 337.467C596.06 338.978 592.794 339.858 589.275 339.858C585.756 339.858 582.488 338.978 580.047 337.467C577.632 335.972 575.796 333.686 575.795 330.872C575.795 328.058 577.632 325.771 580.047 324.276C582.488 322.765 585.756 321.886 589.275 321.886Z"></path>
<path stroke-width="3.36985" stroke="#71E8DF" fill="#154F47" d="M509.879 288.439C512.983 290.231 515.308 292.826 516.515 295.641C517.723 298.456 517.842 301.603 516.299 304.276C514.755 306.95 511.97 308.42 508.928 308.783C505.887 309.145 502.477 308.428 499.372 306.636C496.268 304.844 493.942 302.249 492.735 299.433C491.528 296.618 491.409 293.471 492.952 290.797C494.496 288.124 497.28 286.654 500.322 286.292C503.364 285.929 506.774 286.646 509.879 288.439Z"></path>
<path stroke-width="3.36985" stroke="#71E8DF" fill="#154F47" d="M720.083 164.163C717.035 162.403 714.646 160.008 713.288 157.479C711.944 154.977 711.496 152.079 712.903 149.641C714.311 147.204 717.044 146.143 719.883 146.056C722.752 145.968 726.022 146.839 729.069 148.598C732.117 150.358 734.506 152.754 735.865 155.283C737.209 157.785 737.657 160.683 736.25 163.12C734.842 165.558 732.109 166.619 729.27 166.706C726.4 166.795 723.131 165.923 720.083 164.163Z"></path>
<path stroke-width="3.36985" stroke="#71E8DF" fill="#154F47" d="M740.302 322.708C737.255 324.468 734.865 326.863 733.507 329.392C732.163 331.894 731.715 334.792 733.123 337.23C734.53 339.667 737.263 340.728 740.102 340.815C742.972 340.903 746.241 340.032 749.288 338.273C752.336 336.513 754.725 334.117 756.084 331.588C757.428 329.086 757.876 326.188 756.469 323.751C755.062 321.313 752.328 320.252 749.489 320.165C746.619 320.077 743.35 320.948 740.302 322.708Z"></path>
<path stroke-width="3.36985" stroke="#71E8DF" fill="#154F47" d="M520.139 166.409C523.187 164.649 525.576 162.255 526.934 159.725C528.278 157.223 528.726 154.325 527.319 151.887C525.911 149.45 523.178 148.389 520.339 148.302C517.469 148.214 514.2 149.085 511.153 150.844C508.105 152.604 505.716 155 504.357 157.529C503.013 160.031 502.565 162.929 503.972 165.366C505.38 167.804 508.113 168.865 510.952 168.953C513.822 169.041 517.091 168.169 520.139 166.409Z"></path>
<path fill="#04C8BB" d="M452.701 156C449.229 156 446.414 158.815 446.414 162.287V203.496C446.414 206.968 449.229 209.783 452.701 209.783H460.206C463.399 214.819 466.627 219.319 468.805 222.287C470.178 224.122 472.81 224.122 474.184 222.287C476.404 219.319 479.659 214.819 482.869 209.783H490.423C493.895 209.783 496.71 206.968 496.71 203.496V162.287C496.71 158.815 493.895 156 490.423 156H452.701Z" clip-rule="evenodd" fill-rule="evenodd"></path>
<path fill="#EBF4FF" d="M462.56 171.567H481.421C483.14 171.567 484.564 172.992 484.564 174.711V177.854C484.564 179.622 483.14 180.998 481.421 180.998H462.56C460.792 180.998 459.416 179.622 459.416 177.854V174.711C459.416 172.992 460.792 171.567 462.56 171.567ZM476.313 175.104C475.625 175.104 475.134 175.644 475.134 176.283C475.134 176.97 475.625 177.461 476.313 177.461C476.951 177.461 477.491 176.97 477.491 176.283C477.491 175.644 476.951 175.104 476.313 175.104ZM478.67 176.283C478.67 176.97 479.161 177.461 479.849 177.461C480.487 177.461 481.028 176.97 481.028 176.283C481.028 175.644 480.487 175.104 479.849 175.104C479.161 175.104 478.67 175.644 478.67 176.283ZM462.56 184.141H481.421C483.14 184.141 484.564 185.566 484.564 187.285V190.428C484.564 192.196 483.14 193.572 481.421 193.572H462.56C460.792 193.572 459.416 192.196 459.416 190.428V187.285C459.416 185.566 460.792 184.141 462.56 184.141ZM476.313 187.678C475.625 187.678 475.134 188.218 475.134 188.857C475.134 189.544 475.625 190.035 476.313 190.035C476.951 190.035 477.491 189.544 477.491 188.857C477.491 188.218 476.951 187.678 476.313 187.678ZM479.063 188.857C479.063 189.544 479.554 190.035 480.242 190.035C480.88 190.035 481.421 189.544 481.421 188.857C481.421 188.218 480.88 187.678 480.242 187.678C479.554 187.678 479.063 188.218 479.063 188.857Z"></path>
<g filter="url(#filter1_dd_10623_188389)">
<rect fill="#090A15" rx="30.0409" height="60.0819" width="60.0856" y="186.383" x="479.096"></rect>
<rect fill="#EBF4FF" rx="23.6105" height="47.2211" width="47.224" y="192.812" x="485.527"></rect>
<path fill="#04C8BB" d="M495.741 219.983C495.741 217.309 497.466 214.98 499.881 214.161C499.881 214.031 499.881 213.902 499.881 213.773C499.881 209.978 502.943 206.873 506.781 206.873C509.326 206.873 511.568 208.296 512.732 210.366C513.379 209.891 514.199 209.633 515.061 209.633C517.347 209.633 519.201 211.487 519.201 213.773C519.201 214.333 519.072 214.808 518.899 215.282C521.443 215.8 523.341 218.042 523.341 220.673C523.341 223.734 520.84 226.192 517.821 226.192H501.951C498.501 226.192 495.741 223.433 495.741 219.983Z"></path>
</g>
<path fill="#04C8BB" d="M573.701 266C570.229 266 567.414 268.815 567.414 272.287V313.496C567.414 316.968 570.229 319.783 573.701 319.783H581.206C584.399 324.819 587.627 329.319 589.805 332.287C591.178 334.122 593.81 334.122 595.184 332.287C597.404 329.319 600.659 324.819 603.869 319.783H611.423C614.895 319.783 617.71 316.968 617.71 313.496V272.287C617.71 268.815 614.895 266 611.423 266H573.701Z" clip-rule="evenodd" fill-rule="evenodd"></path>
<path fill="#EBF4FF" d="M583.56 281.567H602.421C604.14 281.567 605.564 282.992 605.564 284.711V287.854C605.564 289.622 604.14 290.998 602.421 290.998H583.56C581.792 290.998 580.416 289.622 580.416 287.854V284.711C580.416 282.992 581.792 281.567 583.56 281.567ZM597.313 285.104C596.625 285.104 596.134 285.644 596.134 286.283C596.134 286.97 596.625 287.461 597.313 287.461C597.951 287.461 598.491 286.97 598.491 286.283C598.491 285.644 597.951 285.104 597.313 285.104ZM599.67 286.283C599.67 286.97 600.161 287.461 600.849 287.461C601.487 287.461 602.028 286.97 602.028 286.283C602.028 285.644 601.487 285.104 600.849 285.104C600.161 285.104 599.67 285.644 599.67 286.283ZM583.56 294.141H602.421C604.14 294.141 605.564 295.566 605.564 297.285V300.428C605.564 302.196 604.14 303.572 602.421 303.572H583.56C581.792 303.572 580.416 302.196 580.416 300.428V297.285C580.416 295.566 581.792 294.141 583.56 294.141ZM597.313 297.678C596.625 297.678 596.134 298.218 596.134 298.857C596.134 299.544 596.625 300.035 597.313 300.035C597.951 300.035 598.491 299.544 598.491 298.857C598.491 298.218 597.951 297.678 597.313 297.678ZM600.063 298.857C600.063 299.544 600.554 300.035 601.242 300.035C601.88 300.035 602.421 299.544 602.421 298.857C602.421 298.218 601.88 297.678 601.242 297.678C600.554 297.678 600.063 298.218 600.063 298.857Z"></path>
<g filter="url(#filter2_dd_10623_188389)">
<rect fill="#090A15" rx="30.0409" height="60.0819" width="60.0856" y="296.383" x="600.096"></rect>
<rect fill="#EBF4FF" rx="23.6105" height="47.2211" width="47.224" y="302.812" x="606.527"></rect>
<path fill="#04C8BB" d="M616.741 329.983C616.741 327.309 618.466 324.98 620.881 324.161C620.881 324.031 620.881 323.902 620.881 323.773C620.881 319.978 623.943 316.873 627.781 316.873C630.326 316.873 632.568 318.296 633.732 320.366C634.379 319.891 635.199 319.633 636.061 319.633C638.347 319.633 640.201 321.487 640.201 323.773C640.201 324.333 640.072 324.808 639.899 325.282C642.443 325.8 644.341 328.042 644.341 330.673C644.341 333.734 641.84 336.192 638.821 336.192H622.951C619.501 336.192 616.741 333.433 616.741 329.983Z"></path>
</g>
<path fill="#04C8BB" d="M714.701 186C711.229 186 708.414 188.815 708.414 192.287V233.496C708.414 236.968 711.229 239.783 714.701 239.783H722.206C725.399 244.819 728.627 249.319 730.805 252.287C732.178 254.122 734.81 254.122 736.184 252.287C738.404 249.319 741.659 244.819 744.869 239.783H752.423C755.895 239.783 758.71 236.968 758.71 233.496V192.287C758.71 188.815 755.895 186 752.423 186H714.701Z" clip-rule="evenodd" fill-rule="evenodd"></path>
<path fill="#EBF4FF" d="M724.56 201.567H743.421C745.14 201.567 746.564 202.992 746.564 204.711V207.854C746.564 209.622 745.14 210.998 743.421 210.998H724.56C722.792 210.998 721.416 209.622 721.416 207.854V204.711C721.416 202.992 722.792 201.567 724.56 201.567ZM738.313 205.104C737.625 205.104 737.134 205.644 737.134 206.283C737.134 206.97 737.625 207.461 738.313 207.461C738.951 207.461 739.491 206.97 739.491 206.283C739.491 205.644 738.951 205.104 738.313 205.104ZM740.67 206.283C740.67 206.97 741.161 207.461 741.849 207.461C742.487 207.461 743.028 206.97 743.028 206.283C743.028 205.644 742.487 205.104 741.849 205.104C741.161 205.104 740.67 205.644 740.67 206.283ZM724.56 214.141H743.421C745.14 214.141 746.564 215.566 746.564 217.285V220.428C746.564 222.196 745.14 223.572 743.421 223.572H724.56C722.792 223.572 721.416 222.196 721.416 220.428V217.285C721.416 215.566 722.792 214.141 724.56 214.141ZM738.313 217.678C737.625 217.678 737.134 218.218 737.134 218.857C737.134 219.544 737.625 220.035 738.313 220.035C738.951 220.035 739.491 219.544 739.491 218.857C739.491 218.218 738.951 217.678 738.313 217.678ZM741.063 218.857C741.063 219.544 741.554 220.035 742.242 220.035C742.88 220.035 743.421 219.544 743.421 218.857C743.421 218.218 742.88 217.678 742.242 217.678C741.554 217.678 741.063 218.218 741.063 218.857Z"></path>
<g filter="url(#filter3_dd_10623_188389)">
<rect fill="#090A15" rx="30.0409" height="60.0819" width="60.0856" y="216.383" x="741.096"></rect>
<rect fill="#EBF4FF" rx="23.6105" height="47.2211" width="47.224" y="222.812" x="747.527"></rect>
<path fill="#04C8BB" d="M757.741 249.983C757.741 247.309 759.466 244.98 761.881 244.161C761.881 244.031 761.881 243.902 761.881 243.773C761.881 239.978 764.943 236.873 768.781 236.873C771.326 236.873 773.568 238.296 774.732 240.366C775.379 239.891 776.199 239.633 777.061 239.633C779.347 239.633 781.201 241.487 781.201 243.773C781.201 244.333 781.072 244.808 780.899 245.282C783.443 245.8 785.341 248.042 785.341 250.673C785.341 253.734 782.84 256.192 779.821 256.192H763.951C760.501 256.192 757.741 253.433 757.741 249.983Z"></path>
</g>
<path fill="#04C8BB" d="M573.701 102C570.229 102 567.414 104.815 567.414 108.287V149.496C567.414 152.968 570.229 155.783 573.701 155.783H581.206C584.399 160.819 587.627 165.319 589.805 168.287C591.178 170.122 593.81 170.122 595.184 168.287C597.404 165.319 600.659 160.819 603.869 155.783H611.423C614.895 155.783 617.71 152.968 617.71 149.496V108.287C617.71 104.815 614.895 102 611.423 102H573.701Z" clip-rule="evenodd" fill-rule="evenodd"></path>
<path fill="#EBF4FF" d="M583.56 117.567H602.421C604.14 117.567 605.564 118.992 605.564 120.711V123.854C605.564 125.622 604.14 126.998 602.421 126.998H583.56C581.792 126.998 580.416 125.622 580.416 123.854V120.711C580.416 118.992 581.792 117.567 583.56 117.567ZM597.313 121.104C596.625 121.104 596.134 121.644 596.134 122.283C596.134 122.97 596.625 123.461 597.313 123.461C597.951 123.461 598.491 122.97 598.491 122.283C598.491 121.644 597.951 121.104 597.313 121.104ZM599.67 122.283C599.67 122.97 600.161 123.461 600.849 123.461C601.487 123.461 602.028 122.97 602.028 122.283C602.028 121.644 601.487 121.104 600.849 121.104C600.161 121.104 599.67 121.644 599.67 122.283ZM583.56 130.141H602.421C604.14 130.141 605.564 131.566 605.564 133.285V136.428C605.564 138.196 604.14 139.572 602.421 139.572H583.56C581.792 139.572 580.416 138.196 580.416 136.428V133.285C580.416 131.566 581.792 130.141 583.56 130.141ZM597.313 133.678C596.625 133.678 596.134 134.218 596.134 134.857C596.134 135.544 596.625 136.035 597.313 136.035C597.951 136.035 598.491 135.544 598.491 134.857C598.491 134.218 597.951 133.678 597.313 133.678ZM600.063 134.857C600.063 135.544 600.554 136.035 601.242 136.035C601.88 136.035 602.421 135.544 602.421 134.857C602.421 134.218 601.88 133.678 601.242 133.678C600.554 133.678 600.063 134.218 600.063 134.857Z"></path>
<g filter="url(#filter4_dd_10623_188389)">
<rect fill="#090A15" rx="30.0409" height="60.0819" width="60.0856" y="132.383" x="600.096"></rect>
<rect fill="#EBF4FF" rx="23.6105" height="47.2211" width="47.224" y="138.812" x="606.527"></rect>
<path fill="#04C8BB" d="M616.741 165.983C616.741 163.309 618.466 160.98 620.881 160.161C620.881 160.031 620.881 159.902 620.881 159.773C620.881 155.978 623.943 152.873 627.781 152.873C630.326 152.873 632.568 154.296 633.732 156.366C634.379 155.891 635.199 155.633 636.061 155.633C638.347 155.633 640.201 157.487 640.201 159.773C640.201 160.333 640.072 160.808 639.899 161.282C642.443 161.8 644.341 164.042 644.341 166.673C644.341 169.734 641.84 172.192 638.821 172.192H622.951C619.501 172.192 616.741 169.433 616.741 165.983Z"></path>
</g>
<defs>
<filter color-interpolation-filters="sRGB" filterUnits="userSpaceOnUse" height="262.999" width="408.445" y="144.324" x="24.6347" id="filter0_ddddd_10623_188389">
<feFlood result="BackgroundImageFix" flood-opacity="0"></feFlood>
<feColorMatrix result="hardAlpha" values="0 0 0 0 0 0 0 0 0 0 0 0 0 0 0 0 0 0 127 0" type="matrix" in="SourceAlpha"></feColorMatrix>
<feOffset dy="2.07852"></feOffset>
<feGaussianBlur stdDeviation="0.831409"></feGaussianBlur>
<feColorMatrix values="0 0 0 0 0 0 0 0 0 0 0 0 0 0 0 0 0 0 0.129327 0" type="matrix"></feColorMatrix>
<feBlend result="effect1_dropShadow_10623_188389" in2="BackgroundImageFix" mode="normal"></feBlend>
<feColorMatrix result="hardAlpha" values="0 0 0 0 0 0 0 0 0 0 0 0 0 0 0 0 0 0 127 0" type="matrix" in="SourceAlpha"></feColorMatrix>
<feOffset dy="4.99498"></feOffset>
<feGaussianBlur stdDeviation="1.99799"></feGaussianBlur>
<feColorMatrix values="0 0 0 0 0 0 0 0 0 0 0 0 0 0 0 0 0 0 0.185791 0" type="matrix"></feColorMatrix>
<feBlend result="effect2_dropShadow_10623_188389" in2="effect1_dropShadow_10623_188389" mode="normal"></feBlend>
<feColorMatrix result="hardAlpha" values="0 0 0 0 0 0 0 0 0 0 0 0 0 0 0 0 0 0 127 0" type="matrix" in="SourceAlpha"></feColorMatrix>
<feOffset dy="9.40511"></feOffset>
<feGaussianBlur stdDeviation="3.76204"></feGaussianBlur>
<feColorMatrix values="0 0 0 0 0 0 0 0 0 0 0 0 0 0 0 0 0 0 0.23 0" type="matrix"></feColorMatrix>
<feBlend result="effect3_dropShadow_10623_188389" in2="effect2_dropShadow_10623_188389" mode="normal"></feBlend>
<feColorMatrix result="hardAlpha" values="0 0 0 0 0 0 0 0 0 0 0 0 0 0 0 0 0 0 127 0" type="matrix" in="SourceAlpha"></feColorMatrix>
<feOffset dy="16.7771"></feOffset>
<feGaussianBlur stdDeviation="6.71084"></feGaussianBlur>
<feColorMatrix values="0 0 0 0 0 0 0 0 0 0 0 0 0 0 0 0 0 0 0.274209 0" type="matrix"></feColorMatrix>
<feBlend result="effect4_dropShadow_10623_188389" in2="effect3_dropShadow_10623_188389" mode="normal"></feBlend>
<feColorMatrix result="hardAlpha" values="0 0 0 0 0 0 0 0 0 0 0 0 0 0 0 0 0 0 127 0" type="matrix" in="SourceAlpha"></feColorMatrix>
<feOffset dy="31.3797"></feOffset>
<feGaussianBlur stdDeviation="12.5519"></feGaussianBlur>
<feColorMatrix values="0 0 0 0 0 0 0 0 0 0 0 0 0 0 0 0 0 0 0.330673 0" type="matrix"></feColorMatrix>
<feBlend result="effect5_dropShadow_10623_188389" in2="effect4_dropShadow_10623_188389" mode="normal"></feBlend>
<feBlend result="shape" in2="effect5_dropShadow_10623_188389" in="SourceGraphic" mode="normal"></feBlend>
</filter>
<filter color-interpolation-filters="sRGB" filterUnits="userSpaceOnUse" height="108.082" width="108.086" y="167.383" x="455.096" id="filter1_dd_10623_188389">
<feFlood result="BackgroundImageFix" flood-opacity="0"></feFlood>
<feColorMatrix result="hardAlpha" values="0 0 0 0 0 0 0 0 0 0 0 0 0 0 0 0 0 0 127 0" type="matrix" in="SourceAlpha"></feColorMatrix>
<feOffset dy="8"></feOffset>
<feGaussianBlur stdDeviation="6"></feGaussianBlur>
<feColorMatrix values="0 0 0 0 0.0901961 0 0 0 0 0.168627 0 0 0 0 0.301961 0 0 0 0.08 0" type="matrix"></feColorMatrix>
<feBlend result="effect1_dropShadow_10623_188389" in2="BackgroundImageFix" mode="normal"></feBlend>
<feColorMatrix result="hardAlpha" values="0 0 0 0 0 0 0 0 0 0 0 0 0 0 0 0 0 0 127 0" type="matrix" in="SourceAlpha"></feColorMatrix>
<feOffset dy="5"></feOffset>
<feGaussianBlur stdDeviation="12"></feGaussianBlur>
<feColorMatrix values="0 0 0 0 0.0901961 0 0 0 0 0.168627 0 0 0 0 0.301961 0 0 0 0.04 0" type="matrix"></feColorMatrix>
<feBlend result="effect2_dropShadow_10623_188389" in2="effect1_dropShadow_10623_188389" mode="normal"></feBlend>
<feBlend result="shape" in2="effect2_dropShadow_10623_188389" in="SourceGraphic" mode="normal"></feBlend>
</filter>
<filter color-interpolation-filters="sRGB" filterUnits="userSpaceOnUse" height="108.082" width="108.086" y="277.383" x="576.096" id="filter2_dd_10623_188389">
<feFlood result="BackgroundImageFix" flood-opacity="0"></feFlood>
<feColorMatrix result="hardAlpha" values="0 0 0 0 0 0 0 0 0 0 0 0 0 0 0 0 0 0 127 0" type="matrix" in="SourceAlpha"></feColorMatrix>
<feOffset dy="8"></feOffset>
<feGaussianBlur stdDeviation="6"></feGaussianBlur>
<feColorMatrix values="0 0 0 0 0.0901961 0 0 0 0 0.168627 0 0 0 0 0.301961 0 0 0 0.08 0" type="matrix"></feColorMatrix>
<feBlend result="effect1_dropShadow_10623_188389" in2="BackgroundImageFix" mode="normal"></feBlend>
<feColorMatrix result="hardAlpha" values="0 0 0 0 0 0 0 0 0 0 0 0 0 0 0 0 0 0 127 0" type="matrix" in="SourceAlpha"></feColorMatrix>
<feOffset dy="5"></feOffset>
<feGaussianBlur stdDeviation="12"></feGaussianBlur>
<feColorMatrix values="0 0 0 0 0.0901961 0 0 0 0 0.168627 0 0 0 0 0.301961 0 0 0 0.04 0" type="matrix"></feColorMatrix>
<feBlend result="effect2_dropShadow_10623_188389" in2="effect1_dropShadow_10623_188389" mode="normal"></feBlend>
<feBlend result="shape" in2="effect2_dropShadow_10623_188389" in="SourceGraphic" mode="normal"></feBlend>
</filter>
<filter color-interpolation-filters="sRGB" filterUnits="userSpaceOnUse" height="108.082" width="108.086" y="197.383" x="717.096" id="filter3_dd_10623_188389">
<feFlood result="BackgroundImageFix" flood-opacity="0"></feFlood>
<feColorMatrix result="hardAlpha" values="0 0 0 0 0 0 0 0 0 0 0 0 0 0 0 0 0 0 127 0" type="matrix" in="SourceAlpha"></feColorMatrix>
<feOffset dy="8"></feOffset>
<feGaussianBlur stdDeviation="6"></feGaussianBlur>
<feColorMatrix values="0 0 0 0 0.0901961 0 0 0 0 0.168627 0 0 0 0 0.301961 0 0 0 0.08 0" type="matrix"></feColorMatrix>
<feBlend result="effect1_dropShadow_10623_188389" in2="BackgroundImageFix" mode="normal"></feBlend>
<feColorMatrix result="hardAlpha" values="0 0 0 0 0 0 0 0 0 0 0 0 0 0 0 0 0 0 127 0" type="matrix" in="SourceAlpha"></feColorMatrix>
<feOffset dy="5"></feOffset>
<feGaussianBlur stdDeviation="12"></feGaussianBlur>
<feColorMatrix values="0 0 0 0 0.0901961 0 0 0 0 0.168627 0 0 0 0 0.301961 0 0 0 0.04 0" type="matrix"></feColorMatrix>
<feBlend result="effect2_dropShadow_10623_188389" in2="effect1_dropShadow_10623_188389" mode="normal"></feBlend>
<feBlend result="shape" in2="effect2_dropShadow_10623_188389" in="SourceGraphic" mode="normal"></feBlend>
</filter>
<filter color-interpolation-filters="sRGB" filterUnits="userSpaceOnUse" height="108.082" width="108.086" y="113.383" x="576.096" id="filter4_dd_10623_188389">
<feFlood result="BackgroundImageFix" flood-opacity="0"></feFlood>
<feColorMatrix result="hardAlpha" values="0 0 0 0 0 0 0 0 0 0 0 0 0 0 0 0 0 0 127 0" type="matrix" in="SourceAlpha"></feColorMatrix>
<feOffset dy="8"></feOffset>
<feGaussianBlur stdDeviation="6"></feGaussianBlur>
<feColorMatrix values="0 0 0 0 0.0901961 0 0 0 0 0.168627 0 0 0 0 0.301961 0 0 0 0.08 0" type="matrix"></feColorMatrix>
<feBlend result="effect1_dropShadow_10623_188389" in2="BackgroundImageFix" mode="normal"></feBlend>
<feColorMatrix result="hardAlpha" values="0 0 0 0 0 0 0 0 0 0 0 0 0 0 0 0 0 0 127 0" type="matrix" in="SourceAlpha"></feColorMatrix>
<feOffset dy="5"></feOffset>
<feGaussianBlur stdDeviation="12"></feGaussianBlur>
<feColorMatrix values="0 0 0 0 0.0901961 0 0 0 0 0.168627 0 0 0 0 0.301961 0 0 0 0.04 0" type="matrix"></feColorMatrix>
<feBlend result="effect2_dropShadow_10623_188389" in2="effect1_dropShadow_10623_188389" mode="normal"></feBlend>
<feBlend result="shape" in2="effect2_dropShadow_10623_188389" in="SourceGraphic" mode="normal"></feBlend>
</filter>
<linearGradient gradientUnits="userSpaceOnUse" y2="474" x2="422" y1="0" x1="422" id="paint0_linear_10623_188389">
<stop stop-color="#090A15"></stop>
<stop stop-color="#0D3A38" offset="0.955752"></stop>
</linearGradient>
<radialGradient gradientTransform="translate(422 355.876) rotate(90) scale(529.676 495.147)" gradientUnits="userSpaceOnUse" r="1" cy="0" cx="0" id="paint1_radial_10623_188389">
<stop stop-opacity="0.11" stop-color="#71E8DF"></stop>
<stop stop-opacity="0" stop-color="#71E8DF" offset="1"></stop>
</radialGradient>
<radialGradient gradientTransform="translate(422 458.5) rotate(90) scale(300 534.177)" gradientUnits="userSpaceOnUse" r="1" cy="0" cx="0" id="paint2_radial_10623_188389">
<stop stop-color="#71E8DF"></stop>
<stop stop-opacity="0" stop-color="#71E8DF" offset="1"></stop>
</radialGradient>
<linearGradient gradientUnits="userSpaceOnUse" y2="372.5" x2="725.5" y1="118.785" x1="622.285" id="paint3_linear_10623_188389">
<stop stop-color="#2E9186"></stop>
<stop stop-color="#026C61" offset="1"></stop>
</linearGradient>
<linearGradient gradientUnits="userSpaceOnUse" y2="321.078" x2="740.271" y1="167.438" x1="658.491" id="paint4_linear_10623_188389">
<stop stop-color="#2E9186"></stop>
<stop stop-color="#026C61" offset="1"></stop>
</linearGradient>
</defs>
</svg>
