<svg xmlns="http://www.w3.org/2000/svg" fill="none" viewBox="0 0 844 474" height="474" width="844">
<g id="blog-build-data-layer 4">
<rect fill="url(#paint0_linear_9865_184440)" height="474" width="844"></rect>
<circle stroke-dasharray="10 10" stroke-linecap="round" stroke-width="2.5" stroke="url(#paint1_linear_9865_184440)" r="172" cy="243" cx="422" id="Ellipse 2703"></circle>
<g id="Frame 2895">
<rect fill="url(#paint2_linear_9865_184440)" rx="72.2286" height="144.457" width="144.46" y="171" x="350"></rect>
<g id="Logo/Primitives/Icon">
<path fill="white" d="M391.199 253.595C390.429 254.851 390.441 256.436 391.23 257.68L405.507 280.201C406.433 281.663 408.219 282.33 409.877 281.832L451.077 269.472C453.325 268.798 454.456 266.29 453.474 264.158L426.988 206.706C425.697 203.904 421.803 203.674 420.191 206.304L391.199 253.595ZM426.285 219.84C425.722 218.537 423.816 218.738 423.536 220.129L413.34 270.9C413.125 271.97 414.127 272.885 415.173 272.572L443.639 264.075C444.47 263.827 444.898 262.909 444.554 262.113L426.285 219.84Z" clip-rule="evenodd" fill-rule="evenodd" id="Icon"></path>
</g>
</g>
<g id="Accelerate">
<rect fill="#0D383F" rx="40" height="80" width="80" y="168.198" x="209.8"></rect>
<rect stroke-width="1.6" stroke="#71E8DF" rx="40" height="80" width="80" y="168.198" x="209.8"></rect>
<path fill="url(#paint3_linear_9865_184440)" d="M257.192 188.553C258.64 188.553 259.707 190.001 259.326 191.373L255.211 205.624H261.765C263.213 205.624 264.356 206.844 264.356 208.292C264.356 209.13 264.051 209.816 263.441 210.349L243.703 227.115C243.322 227.42 242.865 227.573 242.331 227.573C240.883 227.573 239.816 226.201 240.197 224.829L244.313 210.502H237.682C236.311 210.502 235.168 209.359 235.168 207.987C235.168 207.225 235.472 206.539 236.006 206.005L255.82 189.087C256.201 188.782 256.659 188.553 257.192 188.553ZM254.449 195.031L240.655 206.844H246.751C247.285 206.844 247.818 207.149 248.199 207.606C248.504 208.063 248.657 208.673 248.504 209.206L245.075 221.171L259.021 209.282H252.848C252.239 209.282 251.705 209.054 251.324 208.597C251.019 208.139 250.867 207.53 251.019 206.996L254.449 195.031Z" id="bolt"></path>
</g>
<g id="Accelerate_2">
<rect fill="#0D383F" rx="40" height="80" width="80" y="168.198" x="553.8"></rect>
<rect stroke-width="1.6" stroke="#71E8DF" rx="40" height="80" width="80" y="168.198" x="553.8"></rect>
<path fill="url(#paint4_linear_9865_184440)" d="M579.396 193.888C580.234 194.498 580.311 195.641 579.701 196.479C577.034 199.604 575.509 203.643 575.509 208.063C575.509 212.559 577.034 216.599 579.701 219.723C580.311 220.485 580.234 221.705 579.396 222.314C578.634 223 577.491 222.848 576.881 222.086C573.68 218.275 571.851 213.398 571.851 208.063C571.851 202.805 573.68 197.927 576.881 194.117C577.491 193.355 578.634 193.202 579.396 193.888ZM608.127 193.888C608.889 193.202 610.032 193.355 610.718 194.117C613.843 197.927 615.748 202.805 615.748 208.063C615.748 213.398 613.843 218.275 610.718 222.086C610.032 222.848 608.889 222.924 608.127 222.314C607.365 221.705 607.213 220.485 607.899 219.723C610.49 216.599 612.09 212.559 612.09 208.063C612.09 203.643 610.49 199.604 607.899 196.479C607.213 195.641 607.365 194.498 608.127 193.888ZM590.751 208.063C590.751 206.996 591.285 206.005 592.276 205.472C593.19 204.938 594.333 204.938 595.324 205.472C596.239 206.005 596.848 206.996 596.848 208.063C596.848 209.206 596.239 210.197 595.324 210.73C594.333 211.264 593.19 211.264 592.276 210.73C591.285 210.197 590.751 209.206 590.751 208.063ZM586.026 202.119C584.807 203.795 584.045 205.853 584.045 208.063C584.045 210.349 584.807 212.407 586.026 214.084C586.712 214.846 586.56 215.989 585.722 216.675C584.959 217.284 583.816 217.132 583.207 216.294C581.378 214.084 580.387 211.188 580.387 208.063C580.387 205.015 581.378 202.119 583.207 199.832C583.816 199.07 584.959 198.918 585.722 199.528C586.56 200.137 586.712 201.28 586.026 202.119ZM604.393 199.832C606.146 202.119 607.213 205.015 607.213 208.063C607.213 211.188 606.146 214.084 604.393 216.294C603.707 217.132 602.564 217.284 601.802 216.675C600.964 216.065 600.887 214.846 601.497 214.084C602.793 212.407 603.555 210.349 603.555 208.063C603.555 205.853 602.793 203.795 601.497 202.119C600.887 201.28 600.964 200.137 601.802 199.528C602.564 198.918 603.707 199.07 604.393 199.832Z" id="signal-stream"></path>
</g>
<g id="Accelerate_3">
<rect fill="#0D383F" rx="40" height="80" width="80" y="30.8" x="382.6"></rect>
<rect stroke-width="1.6" stroke="#71E8DF" rx="40" height="80" width="80" y="30.8" x="382.6"></rect>
<path fill="url(#paint5_linear_9865_184440)" d="M436.013 57.709H435.936C435.555 57.3279 434.717 56.8707 433.421 56.4134C430.83 55.4989 426.944 54.813 422.6 54.813C418.179 54.813 414.293 55.4989 411.702 56.4134C410.406 56.8707 409.568 57.3279 409.187 57.709V64.4916C410.177 65.0251 411.549 65.5586 413.302 66.0158C415.893 66.6255 419.094 67.0066 422.6 67.0066C426.029 67.0066 429.23 66.6255 431.821 66.0158C433.574 65.5586 434.946 65.0251 436.013 64.4916V57.709ZM436.013 68.5307C434.946 68.9118 433.879 69.2928 432.659 69.5977C429.763 70.2836 426.258 70.6646 422.6 70.6646C418.865 70.6646 415.36 70.2836 412.464 69.5977C411.244 69.2928 410.177 68.9118 409.187 68.5307V74.2465C410.177 74.7799 411.549 75.3134 413.302 75.7707C415.893 76.3803 419.094 76.7614 422.6 76.7614C426.029 76.7614 429.23 76.3803 431.821 75.7707C433.574 75.3134 434.946 74.7799 436.013 74.2465V68.5307ZM409.187 83.6203V83.6965C409.644 84.0013 410.406 84.5348 411.702 84.992C414.293 85.9066 418.179 86.5162 422.6 86.5162C426.944 86.5162 430.83 85.9066 433.421 84.992C434.717 84.5348 435.555 84.0013 435.936 83.6965L436.013 83.6203V78.2856C434.946 78.6666 433.879 79.0477 432.659 79.3525C429.763 80.0384 426.258 80.4195 422.6 80.4195C418.865 80.4195 415.36 80.0384 412.464 79.3525C411.244 79.0477 410.177 78.6666 409.187 78.2856V83.6203ZM436.165 83.4678L436.089 83.5441C436.165 83.4678 436.165 83.4678 436.165 83.4678ZM409.034 83.4678C408.958 83.4678 409.034 83.4678 409.034 83.4678V83.5441C409.034 83.5441 409.034 83.5441 409.034 83.4678ZM409.034 57.9376C408.958 57.8614 409.034 57.8614 409.034 57.8614C409.034 57.9376 409.034 57.9376 409.034 57.9376C409.034 57.9376 409.034 57.9376 408.958 57.9376C408.958 57.9376 408.958 57.9376 409.034 57.9376ZM436.165 57.8614V57.9376C436.165 57.9376 436.165 57.9376 436.089 57.9376C436.089 57.8614 436.089 57.8614 436.165 57.8614ZM439.671 84.0775C439.671 87.507 431.973 90.1743 422.6 90.1743C413.15 90.1743 405.529 87.507 405.529 84.0775V57.2517C405.529 53.8985 413.15 51.1549 422.6 51.1549C431.973 51.1549 439.671 53.8985 439.671 57.2517V84.0775Z" id="database"></path>
</g>
<g id="Accelerate_4">
<rect fill="#0D383F" rx="40" height="80" width="80" y="348.8" x="291.8"></rect>
<rect stroke-width="1.6" stroke="#71E8DF" rx="40" height="80" width="80" y="348.8" x="291.8"></rect>
<path fill="url(#paint6_linear_9865_184440)" d="M315.948 389.274H329.971V381.348H315.948V389.274ZM315.948 392.932V400.858C315.948 401.544 316.482 402.078 317.168 402.078H329.971V392.932H315.948ZM333.629 402.078H346.432C347.042 402.078 347.651 401.544 347.651 400.858V392.932H333.629V402.078ZM347.651 389.274V381.348H333.629V389.274H347.651ZM317.168 371.594H346.432C349.099 371.594 351.309 373.804 351.309 376.471V400.858C351.309 403.602 349.099 405.736 346.432 405.736H317.168C314.424 405.736 312.29 403.602 312.29 400.858V376.471C312.29 373.804 314.424 371.594 317.168 371.594Z" id="table"></path>
</g>
<g id="Accelerate_5">
<rect fill="#0D383F" rx="40" height="80" width="80" y="348.8" x="490.8"></rect>
<rect stroke-width="1.6" stroke="#71E8DF" rx="40" height="80" width="80" y="348.8" x="490.8"></rect>
<path fill="url(#paint7_linear_9865_184440)" d="M527.142 372.813C522.722 372.813 518.759 375.176 516.549 378.91C514.339 382.72 514.339 387.369 516.549 391.103C518.759 394.914 522.722 397.2 527.142 397.2C531.486 397.2 535.449 394.914 537.659 391.103C539.869 387.369 539.869 382.72 537.659 378.91C535.449 375.176 531.486 372.813 527.142 372.813ZM527.142 400.858C518.378 400.858 511.29 393.771 511.29 385.007C511.29 376.319 518.378 369.155 527.142 369.155C535.83 369.155 542.993 376.319 542.993 385.007C542.993 388.741 541.698 392.17 539.564 394.914L549.7 405.126C550.462 405.812 550.462 406.955 549.7 407.641C549.014 408.403 547.871 408.403 547.185 407.641L536.973 397.505C534.229 399.639 530.8 400.858 527.142 400.858ZM519.216 385.616C519.216 384.626 519.978 383.787 521.045 383.787C522.036 383.787 522.874 384.626 522.874 385.616V390.494C522.874 391.561 522.036 392.323 521.045 392.323C519.978 392.323 519.216 391.561 519.216 390.494V385.616ZM525.313 378.3C525.313 377.309 526.075 376.471 527.142 376.471C528.132 376.471 528.971 377.309 528.971 378.3V390.494C528.971 391.561 528.132 392.323 527.142 392.323C526.075 392.323 525.313 391.561 525.313 390.494V378.3ZM531.409 383.178C531.409 382.187 532.172 381.348 533.239 381.348C534.229 381.348 535.068 382.187 535.068 383.178V390.494C535.068 391.561 534.229 392.323 533.239 392.323C532.172 392.323 531.409 391.561 531.409 390.494V383.178Z" id="magnifying-glass-chart"></path>
</g>
</g>
<defs>
<linearGradient gradientUnits="userSpaceOnUse" y2="0" x2="422" y1="474" x1="422" id="paint0_linear_9865_184440">
<stop stop-color="#093137"></stop>
<stop stop-color="#0A0B16" offset="1"></stop>
</linearGradient>
<linearGradient gradientUnits="userSpaceOnUse" y2="415" x2="422" y1="71" x1="422" id="paint1_linear_9865_184440">
<stop stop-color="#187367"></stop>
<stop stop-color="#2DD9C2" offset="1"></stop>
</linearGradient>
<linearGradient gradientUnits="userSpaceOnUse" y2="315.457" x2="422.23" y1="171" x1="422.23" id="paint2_linear_9865_184440">
<stop stop-color="#187367"></stop>
<stop stop-color="#2DD9C2" offset="1"></stop>
</linearGradient>
<linearGradient gradientUnits="userSpaceOnUse" y2="229.695" x2="249.8" y1="186.695" x1="249.8" id="paint3_linear_9865_184440">
<stop stop-color="#E8FFFC"></stop>
<stop stop-color="#2DD9C2" offset="1"></stop>
</linearGradient>
<linearGradient gradientUnits="userSpaceOnUse" y2="229.695" x2="593.8" y1="186.695" x1="593.8" id="paint4_linear_9865_184440">
<stop stop-color="#E8FFFC"></stop>
<stop stop-color="#2DD9C2" offset="1"></stop>
</linearGradient>
<linearGradient gradientUnits="userSpaceOnUse" y2="92.2969" x2="422.6" y1="49.2969" x1="422.6" id="paint5_linear_9865_184440">
<stop stop-color="#E8FFFC"></stop>
<stop stop-color="#2DD9C2" offset="1"></stop>
</linearGradient>
<linearGradient gradientUnits="userSpaceOnUse" y2="410.297" x2="331.8" y1="367.297" x1="331.8" id="paint6_linear_9865_184440">
<stop stop-color="#E8FFFC"></stop>
<stop stop-color="#2DD9C2" offset="1"></stop>
</linearGradient>
<linearGradient gradientUnits="userSpaceOnUse" y2="410.297" x2="530.8" y1="367.297" x1="530.8" id="paint7_linear_9865_184440">
<stop stop-color="#E8FFFC"></stop>
<stop stop-color="#2DD9C2" offset="1"></stop>
</linearGradient>
</defs>
</svg>
