
<svg width="32" height="36" viewBox="0 0 32 36" fill="none" xmlns="http://www.w3.org/2000/svg">
<g clip-path="url(#clip0_2102_1867)">
<path d="M18.7958 17.3295C18.7438 17.1733 18.2235 17.4855 18.0674 17.5375C18.2463 18.6217 18.3506 19.7169 18.3796 20.8153C17.1665 20.1525 16.0016 19.405 14.8937 18.5781L14.5296 18.7342V18.5781L14.0093 18.7342C13.8532 18.8382 13.9052 18.7342 13.9052 18.9423C14.0171 20.44 13.8224 21.9448 13.3329 23.3646C12.2924 22.4801 11.3039 21.2315 11.0438 20.0868C10.9332 20.152 10.8078 20.1878 10.6795 20.1909C10.5235 20.243 10.4714 20.1909 10.5235 20.3471C10.9559 21.7209 11.8118 22.9229 12.9688 23.7809C11.9802 24.145 10.8877 24.5613 9.63902 24.9775C9.2228 25.1335 8.59847 25.2896 7.92212 25.5498C8.96525 23.8804 9.82025 22.1006 10.4714 20.243L9.69104 20.5552C8.92346 22.2727 8.01873 23.9255 6.98562 25.4977C6.9336 25.5498 6.9336 25.6018 6.88157 25.6538C6.59527 25.134 6.41974 24.5605 6.36601 23.9696C6.31229 23.3786 6.38154 22.7829 6.56941 22.22C6.62143 22.0119 5.89305 22.5322 5.84102 22.5842C5.63291 22.6883 5.63291 22.8443 5.58089 23.0524C5.51781 23.3784 5.483 23.7091 5.47683 24.041C5.50119 24.8008 5.73528 25.539 6.15319 26.1741C4.54034 26.6424 2.71938 27.2147 0.950459 27.6829V27.5268C1.21059 26.2781 2.45925 24.6653 3.91601 23.8328L4.2802 23.4166L2.30317 24.7694C1.36667 25.5498 0.326131 26.7984 0.0659947 27.943C-0.298196 29.6079 0.950459 30.9086 2.30317 31.8971C3.76682 32.8615 5.38616 33.5655 7.08968 33.9782C9.67811 34.6291 12.3298 34.9955 14.9978 35.0708H15.3621C15.4071 35.0071 15.4422 34.9369 15.466 34.8627C15.6222 34.5505 17.9634 30.1801 18.5877 26.4862C19.2889 23.4812 19.3597 20.3633 18.7958 17.3295ZM14.5296 18.8903C15.7447 19.6883 17.0137 20.4011 18.3275 21.0234C16.9571 21.9994 15.4719 22.8032 13.9052 23.4166C14.4084 21.9635 14.6206 20.4254 14.5296 18.8903ZM10.2633 25.6018C11.1496 25.3046 12.0181 24.9572 12.8647 24.5613C12.2239 26.1029 11.4764 27.598 10.6275 29.0356C10.2273 28.8235 9.84457 28.5799 9.48294 28.3072C8.73958 27.7784 8.07409 27.1479 7.50589 26.4343C8.44239 26.1741 9.37888 25.914 10.2633 25.6018ZM1.10654 27.943C2.77141 27.5268 4.54034 27.1626 6.30927 26.7464C5.00859 28.6714 3.86399 30.0762 3.23966 31.1687C2.19911 30.3883 1.15857 29.1917 1.10654 27.943ZM3.44777 31.3248C4.48831 29.764 5.78899 28.3592 6.9336 26.9545C7.21855 27.3087 7.53174 27.6394 7.87009 27.943C8.46471 28.4815 9.12982 28.9365 9.84712 29.2958C7.80765 30.0241 5.72657 30.8045 3.70791 31.4808C3.60842 31.4539 3.51836 31.3999 3.44777 31.3248ZM7.92212 33.4579C7.81806 33.4059 7.71401 33.4059 7.60996 33.3538C6.30331 32.984 5.05855 32.4229 3.91601 31.689C4.74845 31.4289 8.39036 30.4923 10.1073 29.92C9.11874 31.5329 8.23428 32.8335 7.92212 33.4579ZM15.258 34.7586C13.8532 34.6025 10.9917 34.1342 9.06671 33.7701C11.7201 33.1457 13.4891 32.8856 16.5066 31.4289C15.9863 32.8335 15.5181 34.1863 15.258 34.7586ZM8.59847 33.562C8.49158 33.5749 8.38322 33.5568 8.28631 33.51C9.27517 32.3631 10.1794 31.1459 10.9917 29.8681C12.7492 30.5921 14.6109 31.0311 16.5066 31.1687C15.258 31.689 8.91063 33.51 8.59847 33.562ZM17.8593 26.7984C17.5178 28.2412 17.101 29.6653 16.6107 31.0646C14.8132 30.7577 13.0639 30.2155 11.408 29.4518C13.1769 28.7234 16.9229 27.0065 17.9114 26.3302C17.9114 26.4862 17.8593 26.6424 17.8593 26.7984ZM18.0154 26.018C16.9749 26.6424 13.437 27.9951 11.7721 28.6193C12.5598 27.2496 13.2048 25.8025 13.6971 24.3011C15.0452 25.0809 16.5 25.6593 18.0154 26.018ZM18.0154 25.8099C16.625 25.4176 15.3071 24.8026 14.1133 23.989C15.6112 23.2527 17.0392 22.382 18.3796 21.3876C18.377 22.8691 18.2553 24.348 18.0154 25.8099Z" fill="url(#paint0_radial_2102_1867)"/>
<path d="M6.725 5.62288C6.04864 5.10262 6.77702 4.37423 7.19324 4.06207C7.34932 3.90599 7.55743 3.80193 7.71351 3.64585C8.23379 4.27017 9.53446 5.93505 10.0547 6.45533L10.9912 6.4033C10.523 5.98707 8.54595 4.01004 7.97364 3.48977C9.8738 4.05114 11.8262 4.41723 13.8008 4.58234V4.63437C12.834 5.11749 11.8959 5.65601 10.9912 6.24722L11.7716 6.35127C12.5666 5.95235 13.302 5.44453 13.9568 4.84248C14.2947 5.59102 14.6733 6.32048 15.091 7.02762L15.8193 7.13168C14.4666 4.79045 13.4781 2.70936 13.0619 0.94043C12.0838 1.25259 6.725 3.12557 5.72606 4.42625C5.25782 4.94653 6.3504 5.36275 6.71459 5.62288H6.725ZM12.8642 1.20057C12.9582 2.23662 13.2036 3.2533 13.5926 4.21815C12.3439 3.90599 9.32635 3.43774 8.23379 3.33369C9.70283 2.4711 11.2539 1.75655 12.8642 1.20057Z" fill="url(#paint1_radial_2102_1867)"/>
<path d="M31.1779 14.468C29.305 11.5545 26.4955 8.84908 18.0151 7.28826C16.2462 6.9761 14.113 6.71596 10.3671 6.0396C9.06638 5.8315 5.16434 5.20717 5.63258 4.42676C5.54175 4.54276 5.5006 4.69003 5.51815 4.83632C5.5357 4.9826 5.61053 5.11596 5.72623 5.20717C7.65125 7.39231 10.4607 8.693 10.4607 13.1673C10.4607 17.2775 6.76678 21.1275 3.02082 24.1971C2.80018 24.3549 2.59151 24.5289 2.39648 24.7175C5.79314 22.6088 9.40306 20.8648 13.1661 19.5147C17.5364 17.7978 26.225 15.3525 31.2196 14.6761L31.1779 14.468ZM23.8942 9.73355C24.4144 9.94165 24.8827 10.1498 25.351 10.3579C23.1478 10.8309 20.9894 11.4923 18.8996 12.3349C19.5172 11.1339 19.9053 9.82825 20.0442 8.48489C21.3344 8.84908 22.6455 9.26529 23.8942 9.73355ZM18.0151 12.439C17.1512 11.9158 16.2465 11.4635 15.3096 11.0863C16.6857 10.1026 18.1286 9.21598 19.6279 8.43286C19.5759 9.42137 19.0556 10.7741 18.0151 12.439ZM10.7833 10.67C11.778 10.8808 12.7527 11.1768 13.6969 11.5545C12.717 12.3554 11.7793 13.2063 10.8873 14.1039C11.011 12.9599 10.9761 11.8044 10.7833 10.67ZM14.0506 12.0747C13.7333 13.3987 13.2065 14.6633 12.4897 15.8207C12.0759 15.3473 11.56 14.9737 10.981 14.7281C11.9281 13.7593 12.9549 12.8717 14.0506 12.0747ZM14.6749 11.9187C15.4553 12.2828 16.2878 12.6991 17.1202 13.1153C15.8552 13.6955 14.6375 14.3739 13.4783 15.1444C14.0752 14.1523 14.4844 13.0589 14.6854 11.9187H14.6749ZM19.1492 8.32881C17.6263 8.94419 16.1777 9.72958 14.831 10.67C14.8757 9.54414 14.6622 8.42292 14.2067 7.39231C15.8819 7.65245 17.4948 7.96461 19.1597 8.32881H19.1492ZM13.8424 7.34029C14.1969 8.43015 14.3208 9.58174 14.2067 10.7221C13.1141 10.3579 11.9695 10.0457 10.9289 9.78557C11.8246 8.8845 12.7998 8.06608 13.8424 7.34029ZM6.87083 5.77947C7.49517 5.98758 8.22354 6.19568 9.05598 6.40379C9.42017 7.44434 9.68031 8.38084 9.94044 9.21327C9.16795 7.87028 8.12647 6.70128 6.88124 5.77947H6.87083ZM9.42017 6.50785C10.9289 6.87204 12.5418 7.13218 13.4783 7.28826C12.3803 7.85504 11.3793 8.59261 10.5127 9.47341C10.2401 8.45494 9.87794 7.46257 9.43057 6.50785H9.42017ZM10.5648 15.5606C10.9788 15.7481 11.3642 15.9934 11.7093 16.2889C10.8249 16.9133 9.99247 17.5377 9.31612 18.1099C9.8789 17.3387 10.3048 16.4763 10.5752 15.5606H10.5648ZM8.69178 19.0464C9.36815 18.5782 10.3046 17.9018 11.5012 17.1214C10.2423 18.6525 8.72864 19.9549 7.02691 20.9715C7.64191 20.3812 8.2026 19.737 8.70219 19.0464H8.69178ZM7.85935 21.0234C9.54321 19.898 11.0362 18.5104 12.2816 16.9133C12.7051 17.4366 12.9752 18.0668 13.062 18.7343C11.0435 19.5667 9.43057 20.1911 7.86975 21.0234H7.85935ZM13.4366 18.6302C13.4395 17.8149 13.243 17.0111 12.8644 16.2889C14.113 15.5606 15.5178 14.7802 17.0786 13.9998C15.9546 15.6119 14.7386 17.158 13.4366 18.6302ZM14.0089 18.4221C15.5872 17.0572 16.9703 15.4816 18.1192 13.7397C19.2126 14.4202 20.225 15.2232 21.1367 16.1329C19.0556 16.7052 16.652 17.4336 14.0089 18.4221ZM21.6569 15.9769C20.9509 14.8408 20.0322 13.8515 18.9516 13.0632C21.1458 12.0904 23.406 11.2733 25.7151 10.618C24.9347 12.0227 23.634 13.4795 21.6569 15.9769ZM22.3334 15.8207C23.9503 14.4338 25.2461 12.7117 26.1314 10.7741C27.8234 11.6747 29.3392 12.8732 30.6057 14.312C30.665 14.3762 30.7355 14.4291 30.8138 14.468C27.95 14.6447 25.1099 15.0977 22.3334 15.8207Z" fill="url(#paint2_radial_2102_1867)"/>
<path d="M17.2342 34.1344H16.922V35.0708H16.8179V34.1344H16.5059V34.0303H17.2342" fill="#231F20"/>
<path d="M18.4324 35.0701H18.3284V34.1337C18.3284 34.1857 18.3284 34.2377 18.2764 34.2377L17.9122 35.0181H17.8601L17.496 34.2377C17.4921 34.1978 17.4736 34.1607 17.4439 34.1337V35.0181H17.3398V33.9775H17.496L17.8082 34.706C17.8136 34.7454 17.8318 34.7819 17.8601 34.81C17.8657 34.7705 17.8839 34.7341 17.9122 34.706L18.2243 33.9775H18.3804" fill="#231F20"/>
</g>
<defs>
<radialGradient id="paint0_radial_2102_1867" cx="0" cy="0" r="1" gradientUnits="userSpaceOnUse" gradientTransform="translate(20.9474 15.6971) scale(30.0351 30.0351)">
<stop stop-color="white"/>
<stop offset="0.87" stop-color="#99A5B4"/>
<stop offset="0.99" stop-color="#8A97A8"/>
</radialGradient>
<radialGradient id="paint1_radial_2102_1867" cx="0" cy="0" r="1" gradientUnits="userSpaceOnUse" gradientTransform="translate(17.5306 8.87896) scale(14.7066 14.7066)">
<stop stop-color="white"/>
<stop offset="0.87" stop-color="#99A5B4"/>
<stop offset="0.99" stop-color="#8A97A8"/>
</radialGradient>
<radialGradient id="paint2_radial_2102_1867" cx="0" cy="0" r="1" gradientUnits="userSpaceOnUse" gradientTransform="translate(13.6875 15.1053) scale(12.459)">
<stop stop-color="#E23126"/>
<stop offset="1" stop-color="#B92226"/>
</radialGradient>
<clipPath id="clip0_2102_1867">
<rect width="31.9969" height="34.13" fill="white" transform="translate(0.00195312 0.94043)"/>
</clipPath>
</defs>
</svg>
